<?xml version="1.0" encoding="utf-8" standalone="no"?>
<!DOCTYPE svg PUBLIC "-//W3C//DTD SVG 1.1//EN"
  "http://www.w3.org/Graphics/SVG/1.1/DTD/svg11.dtd">
<svg xmlns:xlink="http://www.w3.org/1999/xlink" width="695.16pt" height="431.523687pt" viewBox="0 0 695.16 431.523687" xmlns="http://www.w3.org/2000/svg" version="1.1">
 <metadata>
  <rdf:RDF xmlns:dc="http://purl.org/dc/elements/1.1/" xmlns:cc="http://creativecommons.org/ns#" xmlns:rdf="http://www.w3.org/1999/02/22-rdf-syntax-ns#">
   <cc:Work>
    <dc:type rdf:resource="http://purl.org/dc/dcmitype/StillImage"/>
    <dc:date>2026-06-16T08:27:00.981507</dc:date>
    <dc:format>image/svg+xml</dc:format>
    <dc:creator>
     <cc:Agent>
      <dc:title>Matplotlib v3.10.8, https://matplotlib.org/</dc:title>
     </cc:Agent>
    </dc:creator>
   </cc:Work>
  </rdf:RDF>
 </metadata>
 <defs>
  <style type="text/css">*{stroke-linejoin: round; stroke-linecap: butt}</style>
 </defs>
 <g id="figure_1">
  <g id="patch_1">
   <path d="M 0 431.523687 
L 695.16 431.523687 
L 695.16 0 
L 0 0 
z
" style="fill: #ffffff"/>
  </g>
  <g id="axes_1">
   <g id="patch_2">
    <path d="M 49.588543 324.328859 
C 50.85322 324.328859 52.066269 323.826397 52.960531 322.932136 
C 53.854793 322.037874 54.357254 320.824825 54.357254 319.560148 
C 54.357254 318.295471 53.854793 317.082421 52.960531 316.18816 
C 52.066269 315.293898 50.85322 314.791436 49.588543 314.791436 
C 48.323866 314.791436 47.110817 315.293898 46.216555 316.18816 
C 45.322293 317.082421 44.819832 318.295471 44.819832 319.560148 
C 44.819832 320.824825 45.322293 322.037874 46.216555 322.932136 
C 47.110817 323.826397 48.323866 324.328859 49.588543 324.328859 
z
" clip-path="url(#p4f03df37d5)" style="fill: #1f77b4; opacity: 0.7"/>
   </g>
   <g id="patch_3">
    <path d="M 118.469925 324.328859 
C 119.734602 324.328859 120.947652 323.826397 121.841913 322.932136 
C 122.736175 322.037874 123.238636 320.824825 123.238636 319.560148 
C 123.238636 318.295471 122.736175 317.082421 121.841913 316.18816 
C 120.947652 315.293898 119.734602 314.791436 118.469925 314.791436 
C 117.205248 314.791436 115.992199 315.293898 115.097937 316.18816 
C 114.203676 317.082421 113.701214 318.295471 113.701214 319.560148 
C 113.701214 320.824825 114.203676 322.037874 115.097937 322.932136 
C 115.992199 323.826397 117.205248 324.328859 118.469925 324.328859 
z
" clip-path="url(#p4f03df37d5)" style="fill: #1f77b4; opacity: 0.7"/>
   </g>
   <g id="patch_4">
    <path d="M 187.351308 324.328859 
C 188.615985 324.328859 189.829034 323.826397 190.723296 322.932136 
C 191.617557 322.037874 192.120019 320.824825 192.120019 319.560148 
C 192.120019 318.295471 191.617557 317.082421 190.723296 316.18816 
C 189.829034 315.293898 188.615985 314.791436 187.351308 314.791436 
C 186.086631 314.791436 184.873581 315.293898 183.97932 316.18816 
C 183.085058 317.082421 182.582597 318.295471 182.582597 319.560148 
C 182.582597 320.824825 183.085058 322.037874 183.97932 322.932136 
C 184.873581 323.826397 186.086631 324.328859 187.351308 324.328859 
z
" clip-path="url(#p4f03df37d5)" style="fill: #1f77b4; opacity: 0.7"/>
   </g>
   <g id="patch_5">
    <path d="M 256.23269 324.328859 
C 257.497367 324.328859 258.710416 323.826397 259.604678 322.932136 
C 260.49894 322.037874 261.001401 320.824825 261.001401 319.560148 
C 261.001401 318.295471 260.49894 317.082421 259.604678 316.18816 
C 258.710416 315.293898 257.497367 314.791436 256.23269 314.791436 
C 254.968013 314.791436 253.754964 315.293898 252.860702 316.18816 
C 251.96644 317.082421 251.463979 318.295471 251.463979 319.560148 
C 251.463979 320.824825 251.96644 322.037874 252.860702 322.932136 
C 253.754964 323.826397 254.968013 324.328859 256.23269 324.328859 
z
" clip-path="url(#p4f03df37d5)" style="fill: #1f77b4; opacity: 0.7"/>
   </g>
   <g id="patch_6">
    <path d="M 67.603674 258.09676 
C 68.868351 258.09676 70.0814 257.594299 70.975662 256.700037 
C 71.869923 255.805775 72.372385 254.592726 72.372385 253.328049 
C 72.372385 252.063372 71.869923 250.850323 70.975662 249.956061 
C 70.0814 249.0618 68.868351 248.559338 67.603674 248.559338 
C 66.338997 248.559338 65.125947 249.0618 64.231686 249.956061 
C 63.337424 250.850323 62.834963 252.063372 62.834963 253.328049 
C 62.834963 254.592726 63.337424 255.805775 64.231686 256.700037 
C 65.125947 257.594299 66.338997 258.09676 67.603674 258.09676 
z
" clip-path="url(#p4f03df37d5)" style="fill: #1f77b4; opacity: 0.7"/>
   </g>
   <g id="patch_7">
    <path d="M 136.485056 258.09676 
C 137.749733 258.09676 138.962782 257.594299 139.857044 256.700037 
C 140.751306 255.805775 141.253767 254.592726 141.253767 253.328049 
C 141.253767 252.063372 140.751306 250.850323 139.857044 249.956061 
C 138.962782 249.0618 137.749733 248.559338 136.485056 248.559338 
C 135.220379 248.559338 134.00733 249.0618 133.113068 249.956061 
C 132.218806 250.850323 131.716345 252.063372 131.716345 253.328049 
C 131.716345 254.592726 132.218806 255.805775 133.113068 256.700037 
C 134.00733 257.594299 135.220379 258.09676 136.485056 258.09676 
z
" clip-path="url(#p4f03df37d5)" style="fill: #1f77b4; opacity: 0.7"/>
   </g>
   <g id="patch_8">
    <path d="M 205.366438 258.09676 
C 206.631115 258.09676 207.844165 257.594299 208.738426 256.700037 
C 209.632688 255.805775 210.135149 254.592726 210.135149 253.328049 
C 210.135149 252.063372 209.632688 250.850323 208.738426 249.956061 
C 207.844165 249.0618 206.631115 248.559338 205.366438 248.559338 
C 204.101761 248.559338 202.888712 249.0618 201.99445 249.956061 
C 201.100189 250.850323 200.597727 252.063372 200.597727 253.328049 
C 200.597727 254.592726 201.100189 255.805775 201.99445 256.700037 
C 202.888712 257.594299 204.101761 258.09676 205.366438 258.09676 
z
" clip-path="url(#p4f03df37d5)" style="fill: #1f77b4; opacity: 0.7"/>
   </g>
   <g id="patch_9">
    <path d="M 274.247821 258.09676 
C 275.512498 258.09676 276.725547 257.594299 277.619809 256.700037 
C 278.51407 255.805775 279.016532 254.592726 279.016532 253.328049 
C 279.016532 252.063372 278.51407 250.850323 277.619809 249.956061 
C 276.725547 249.0618 275.512498 248.559338 274.247821 248.559338 
C 272.983144 248.559338 271.770094 249.0618 270.875833 249.956061 
C 269.981571 250.850323 269.47911 252.063372 269.47911 253.328049 
C 269.47911 254.592726 269.981571 255.805775 270.875833 256.700037 
C 271.770094 257.594299 272.983144 258.09676 274.247821 258.09676 
z
" clip-path="url(#p4f03df37d5)" style="fill: #1f77b4; opacity: 0.7"/>
   </g>
   <g id="patch_10">
    <path d="M 49.588543 191.864662 
C 50.85322 191.864662 52.066269 191.3622 52.960531 190.467939 
C 53.854793 189.573677 54.357254 188.360628 54.357254 187.095951 
C 54.357254 185.831274 53.854793 184.618225 52.960531 183.723963 
C 52.066269 182.829701 50.85322 182.32724 49.588543 182.32724 
C 48.323866 182.32724 47.110817 182.829701 46.216555 183.723963 
C 45.322293 184.618225 44.819832 185.831274 44.819832 187.095951 
C 44.819832 188.360628 45.322293 189.573677 46.216555 190.467939 
C 47.110817 191.3622 48.323866 191.864662 49.588543 191.864662 
z
" clip-path="url(#p4f03df37d5)" style="fill: #1f77b4; opacity: 0.7"/>
   </g>
   <g id="patch_11">
    <path d="M 118.469925 191.864662 
C 119.734602 191.864662 120.947652 191.3622 121.841913 190.467939 
C 122.736175 189.573677 123.238636 188.360628 123.238636 187.095951 
C 123.238636 185.831274 122.736175 184.618225 121.841913 183.723963 
C 120.947652 182.829701 119.734602 182.32724 118.469925 182.32724 
C 117.205248 182.32724 115.992199 182.829701 115.097937 183.723963 
C 114.203676 184.618225 113.701214 185.831274 113.701214 187.095951 
C 113.701214 188.360628 114.203676 189.573677 115.097937 190.467939 
C 115.992199 191.3622 117.205248 191.864662 118.469925 191.864662 
z
" clip-path="url(#p4f03df37d5)" style="fill: #1f77b4; opacity: 0.7"/>
   </g>
   <g id="patch_12">
    <path d="M 187.351308 191.864662 
C 188.615985 191.864662 189.829034 191.3622 190.723296 190.467939 
C 191.617557 189.573677 192.120019 188.360628 192.120019 187.095951 
C 192.120019 185.831274 191.617557 184.618225 190.723296 183.723963 
C 189.829034 182.829701 188.615985 182.32724 187.351308 182.32724 
C 186.086631 182.32724 184.873581 182.829701 183.97932 183.723963 
C 183.085058 184.618225 182.582597 185.831274 182.582597 187.095951 
C 182.582597 188.360628 183.085058 189.573677 183.97932 190.467939 
C 184.873581 191.3622 186.086631 191.864662 187.351308 191.864662 
z
" clip-path="url(#p4f03df37d5)" style="fill: #1f77b4; opacity: 0.7"/>
   </g>
   <g id="patch_13">
    <path d="M 256.23269 191.864662 
C 257.497367 191.864662 258.710416 191.3622 259.604678 190.467939 
C 260.49894 189.573677 261.001401 188.360628 261.001401 187.095951 
C 261.001401 185.831274 260.49894 184.618225 259.604678 183.723963 
C 258.710416 182.829701 257.497367 182.32724 256.23269 182.32724 
C 254.968013 182.32724 253.754964 182.829701 252.860702 183.723963 
C 251.96644 184.618225 251.463979 185.831274 251.463979 187.095951 
C 251.463979 188.360628 251.96644 189.573677 252.860702 190.467939 
C 253.754964 191.3622 254.968013 191.864662 256.23269 191.864662 
z
" clip-path="url(#p4f03df37d5)" style="fill: #1f77b4; opacity: 0.7"/>
   </g>
   <g id="patch_14">
    <path d="M 67.603674 125.632564 
C 68.868351 125.632564 70.0814 125.130102 70.975662 124.23584 
C 71.869923 123.341579 72.372385 122.128529 72.372385 120.863852 
C 72.372385 119.599175 71.869923 118.386126 70.975662 117.491864 
C 70.0814 116.597603 68.868351 116.095141 67.603674 116.095141 
C 66.338997 116.095141 65.125947 116.597603 64.231686 117.491864 
C 63.337424 118.386126 62.834963 119.599175 62.834963 120.863852 
C 62.834963 122.128529 63.337424 123.341579 64.231686 124.23584 
C 65.125947 125.130102 66.338997 125.632564 67.603674 125.632564 
z
" clip-path="url(#p4f03df37d5)" style="fill: #1f77b4; opacity: 0.7"/>
   </g>
   <g id="patch_15">
    <path d="M 136.485056 125.632564 
C 137.749733 125.632564 138.962782 125.130102 139.857044 124.23584 
C 140.751306 123.341579 141.253767 122.128529 141.253767 120.863852 
C 141.253767 119.599175 140.751306 118.386126 139.857044 117.491864 
C 138.962782 116.597603 137.749733 116.095141 136.485056 116.095141 
C 135.220379 116.095141 134.00733 116.597603 133.113068 117.491864 
C 132.218806 118.386126 131.716345 119.599175 131.716345 120.863852 
C 131.716345 122.128529 132.218806 123.341579 133.113068 124.23584 
C 134.00733 125.130102 135.220379 125.632564 136.485056 125.632564 
z
" clip-path="url(#p4f03df37d5)" style="fill: #1f77b4; opacity: 0.7"/>
   </g>
   <g id="patch_16">
    <path d="M 205.366438 125.632564 
C 206.631115 125.632564 207.844165 125.130102 208.738426 124.23584 
C 209.632688 123.341579 210.135149 122.128529 210.135149 120.863852 
C 210.135149 119.599175 209.632688 118.386126 208.738426 117.491864 
C 207.844165 116.597603 206.631115 116.095141 205.366438 116.095141 
C 204.101761 116.095141 202.888712 116.597603 201.99445 117.491864 
C 201.100189 118.386126 200.597727 119.599175 200.597727 120.863852 
C 200.597727 122.128529 201.100189 123.341579 201.99445 124.23584 
C 202.888712 125.130102 204.101761 125.632564 205.366438 125.632564 
z
" clip-path="url(#p4f03df37d5)" style="fill: #1f77b4; opacity: 0.7"/>
   </g>
   <g id="patch_17">
    <path d="M 274.247821 125.632564 
C 275.512498 125.632564 276.725547 125.130102 277.619809 124.23584 
C 278.51407 123.341579 279.016532 122.128529 279.016532 120.863852 
C 279.016532 119.599175 278.51407 118.386126 277.619809 117.491864 
C 276.725547 116.597603 275.512498 116.095141 274.247821 116.095141 
C 272.983144 116.095141 271.770094 116.597603 270.875833 117.491864 
C 269.981571 118.386126 269.47911 119.599175 269.47911 120.863852 
C 269.47911 122.128529 269.981571 123.341579 270.875833 124.23584 
C 271.770094 125.130102 272.983144 125.632564 274.247821 125.632564 
z
" clip-path="url(#p4f03df37d5)" style="fill: #1f77b4; opacity: 0.7"/>
   </g>
   <g id="line2d_1">
    <path d="M 49.588543 319.560148 
L 55.328658 316.381007 
L 61.068773 322.739288 
L 66.808889 316.381007 
L 72.549004 322.739288 
L 78.289119 316.381007 
L 84.029234 322.739288 
L 89.769349 316.381007 
L 95.509465 322.739288 
L 101.24958 316.381007 
L 106.989695 322.739288 
L 112.72981 316.381007 
L 118.469925 319.560148 
" clip-path="url(#p4f03df37d5)" style="fill: none; stroke: #1f77b4; stroke-width: 1.2; stroke-linecap: square"/>
   </g>
   <g id="line2d_2">
    <path d="M 49.588543 319.560148 
L 48.022118 313.206396 
L 55.65875 309.355875 
L 51.02464 302.167712 
L 58.661272 298.317192 
L 54.027162 291.129029 
L 61.663794 287.278509 
L 57.029684 280.090346 
L 64.666316 276.239826 
L 60.032205 269.051663 
L 67.668838 265.201143 
L 63.034727 258.01298 
L 67.603674 253.328049 
" clip-path="url(#p4f03df37d5)" style="fill: none; stroke: #ff7f0e; stroke-width: 1.2; stroke-linecap: square"/>
   </g>
   <g id="line2d_3">
    <path d="M 118.469925 319.560148 
L 124.21004 316.381007 
L 129.950156 322.739288 
L 135.690271 316.381007 
L 141.430386 322.739288 
L 147.170501 316.381007 
L 152.910616 322.739288 
L 158.650732 316.381007 
L 164.390847 322.739288 
L 170.130962 316.381007 
L 175.871077 322.739288 
L 181.611192 316.381007 
L 187.351308 319.560148 
" clip-path="url(#p4f03df37d5)" style="fill: none; stroke: #2ca02c; stroke-width: 1.2; stroke-linecap: square"/>
   </g>
   <g id="line2d_4">
    <path d="M 118.469925 319.560148 
L 116.903501 313.206396 
L 124.540133 309.355875 
L 119.906022 302.167712 
L 127.542654 298.317192 
L 122.908544 291.129029 
L 130.545176 287.278509 
L 125.911066 280.090346 
L 133.547698 276.239826 
L 128.913588 269.051663 
L 136.55022 265.201143 
L 131.91611 258.01298 
L 136.485056 253.328049 
" clip-path="url(#p4f03df37d5)" style="fill: none; stroke: #d62728; stroke-width: 1.2; stroke-linecap: square"/>
   </g>
   <g id="line2d_5">
    <path d="M 187.351308 319.560148 
L 193.091423 316.381007 
L 198.831538 322.739288 
L 204.571653 316.381007 
L 210.311768 322.739288 
L 216.051884 316.381007 
L 221.791999 322.739288 
L 227.532114 316.381007 
L 233.272229 322.739288 
L 239.012344 316.381007 
L 244.75246 322.739288 
L 250.492575 316.381007 
L 256.23269 319.560148 
" clip-path="url(#p4f03df37d5)" style="fill: none; stroke: #9467bd; stroke-width: 1.2; stroke-linecap: square"/>
   </g>
   <g id="line2d_6">
    <path d="M 187.351308 319.560148 
L 185.784883 313.206396 
L 193.421515 309.355875 
L 188.787405 302.167712 
L 196.424037 298.317192 
L 191.789926 291.129029 
L 199.426559 287.278509 
L 194.792448 280.090346 
L 202.42908 276.239826 
L 197.79497 269.051663 
L 205.431602 265.201143 
L 200.797492 258.01298 
L 205.366438 253.328049 
" clip-path="url(#p4f03df37d5)" style="fill: none; stroke: #8c564b; stroke-width: 1.2; stroke-linecap: square"/>
   </g>
   <g id="line2d_7">
    <path d="M 256.23269 319.560148 
L 254.666265 313.206396 
L 262.302897 309.355875 
L 257.668787 302.167712 
L 265.305419 298.317192 
L 260.671309 291.129029 
L 268.307941 287.278509 
L 263.673831 280.090346 
L 271.310463 276.239826 
L 266.676352 269.051663 
L 274.312984 265.201143 
L 269.678874 258.01298 
L 274.247821 253.328049 
" clip-path="url(#p4f03df37d5)" style="fill: none; stroke: #e377c2; stroke-width: 1.2; stroke-linecap: square"/>
   </g>
   <g id="line2d_8">
    <path d="M 67.603674 253.328049 
L 73.343789 250.148908 
L 79.083904 256.50719 
L 84.824019 250.148908 
L 90.564134 256.50719 
L 96.30425 250.148908 
L 102.044365 256.50719 
L 107.78448 250.148908 
L 113.524595 256.50719 
L 119.26471 250.148908 
L 125.004826 256.50719 
L 130.744941 250.148908 
L 136.485056 253.328049 
" clip-path="url(#p4f03df37d5)" style="fill: none; stroke: #7f7f7f; stroke-width: 1.2; stroke-linecap: square"/>
   </g>
   <g id="line2d_9">
    <path d="M 67.603674 253.328049 
L 63.034727 248.643118 
L 67.668838 241.454956 
L 60.032205 237.604435 
L 64.666316 230.416273 
L 57.029684 226.565752 
L 61.663794 219.37759 
L 54.027162 215.527069 
L 58.661272 208.338906 
L 51.02464 204.488386 
L 55.65875 197.300223 
L 48.022118 193.449703 
L 49.588543 187.095951 
" clip-path="url(#p4f03df37d5)" style="fill: none; stroke: #bcbd22; stroke-width: 1.2; stroke-linecap: square"/>
   </g>
   <g id="line2d_10">
    <path d="M 136.485056 253.328049 
L 142.225171 250.148908 
L 147.965286 256.50719 
L 153.705402 250.148908 
L 159.445517 256.50719 
L 165.185632 250.148908 
L 170.925747 256.50719 
L 176.665862 250.148908 
L 182.405978 256.50719 
L 188.146093 250.148908 
L 193.886208 256.50719 
L 199.626323 250.148908 
L 205.366438 253.328049 
" clip-path="url(#p4f03df37d5)" style="fill: none; stroke: #17becf; stroke-width: 1.2; stroke-linecap: square"/>
   </g>
   <g id="line2d_11">
    <path d="M 136.485056 253.328049 
L 131.91611 248.643118 
L 136.55022 241.454956 
L 128.913588 237.604435 
L 133.547698 230.416273 
L 125.911066 226.565752 
L 130.545176 219.37759 
L 122.908544 215.527069 
L 127.542654 208.338906 
L 119.906022 204.488386 
L 124.540133 197.300223 
L 116.903501 193.449703 
L 118.469925 187.095951 
" clip-path="url(#p4f03df37d5)" style="fill: none; stroke: #1f77b4; stroke-width: 1.2; stroke-linecap: square"/>
   </g>
   <g id="line2d_12">
    <path d="M 205.366438 253.328049 
L 211.106554 250.148908 
L 216.846669 256.50719 
L 222.586784 250.148908 
L 228.326899 256.50719 
L 234.067014 250.148908 
L 239.80713 256.50719 
L 245.547245 250.148908 
L 251.28736 256.50719 
L 257.027475 250.148908 
L 262.76759 256.50719 
L 268.507705 250.148908 
L 274.247821 253.328049 
" clip-path="url(#p4f03df37d5)" style="fill: none; stroke: #ff7f0e; stroke-width: 1.2; stroke-linecap: square"/>
   </g>
   <g id="line2d_13">
    <path d="M 205.366438 253.328049 
L 200.797492 248.643118 
L 205.431602 241.454956 
L 197.79497 237.604435 
L 202.42908 230.416273 
L 194.792448 226.565752 
L 199.426559 219.37759 
L 191.789926 215.527069 
L 196.424037 208.338906 
L 188.787405 204.488386 
L 193.421515 197.300223 
L 185.784883 193.449703 
L 187.351308 187.095951 
" clip-path="url(#p4f03df37d5)" style="fill: none; stroke: #2ca02c; stroke-width: 1.2; stroke-linecap: square"/>
   </g>
   <g id="line2d_14">
    <path d="M 274.247821 253.328049 
L 269.678874 248.643118 
L 274.312984 241.454956 
L 266.676352 237.604435 
L 271.310463 230.416273 
L 263.673831 226.565752 
L 268.307941 219.37759 
L 260.671309 215.527069 
L 265.305419 208.338906 
L 257.668787 204.488386 
L 262.302897 197.300223 
L 254.666265 193.449703 
L 256.23269 187.095951 
" clip-path="url(#p4f03df37d5)" style="fill: none; stroke: #d62728; stroke-width: 1.2; stroke-linecap: square"/>
   </g>
   <g id="line2d_15">
    <path d="M 49.588543 187.095951 
L 55.328658 183.91681 
L 61.068773 190.275092 
L 66.808889 183.91681 
L 72.549004 190.275092 
L 78.289119 183.91681 
L 84.029234 190.275092 
L 89.769349 183.91681 
L 95.509465 190.275092 
L 101.24958 183.91681 
L 106.989695 190.275092 
L 112.72981 183.91681 
L 118.469925 187.095951 
" clip-path="url(#p4f03df37d5)" style="fill: none; stroke: #9467bd; stroke-width: 1.2; stroke-linecap: square"/>
   </g>
   <g id="line2d_16">
    <path d="M 49.588543 187.095951 
L 48.022118 180.742199 
L 55.65875 176.891678 
L 51.02464 169.703516 
L 58.661272 165.852995 
L 54.027162 158.664833 
L 61.663794 154.814312 
L 57.029684 147.62615 
L 64.666316 143.775629 
L 60.032205 136.587467 
L 67.668838 132.736946 
L 63.034727 125.548783 
L 67.603674 120.863852 
" clip-path="url(#p4f03df37d5)" style="fill: none; stroke: #8c564b; stroke-width: 1.2; stroke-linecap: square"/>
   </g>
   <g id="line2d_17">
    <path d="M 118.469925 187.095951 
L 124.21004 183.91681 
L 129.950156 190.275092 
L 135.690271 183.91681 
L 141.430386 190.275092 
L 147.170501 183.91681 
L 152.910616 190.275092 
L 158.650732 183.91681 
L 164.390847 190.275092 
L 170.130962 183.91681 
L 175.871077 190.275092 
L 181.611192 183.91681 
L 187.351308 187.095951 
" clip-path="url(#p4f03df37d5)" style="fill: none; stroke: #e377c2; stroke-width: 1.2; stroke-linecap: square"/>
   </g>
   <g id="line2d_18">
    <path d="M 118.469925 187.095951 
L 116.903501 180.742199 
L 124.540133 176.891678 
L 119.906022 169.703516 
L 127.542654 165.852995 
L 122.908544 158.664833 
L 130.545176 154.814312 
L 125.911066 147.62615 
L 133.547698 143.775629 
L 128.913588 136.587467 
L 136.55022 132.736946 
L 131.91611 125.548783 
L 136.485056 120.863852 
" clip-path="url(#p4f03df37d5)" style="fill: none; stroke: #7f7f7f; stroke-width: 1.2; stroke-linecap: square"/>
   </g>
   <g id="line2d_19">
    <path d="M 187.351308 187.095951 
L 193.091423 183.91681 
L 198.831538 190.275092 
L 204.571653 183.91681 
L 210.311768 190.275092 
L 216.051884 183.91681 
L 221.791999 190.275092 
L 227.532114 183.91681 
L 233.272229 190.275092 
L 239.012344 183.91681 
L 244.75246 190.275092 
L 250.492575 183.91681 
L 256.23269 187.095951 
" clip-path="url(#p4f03df37d5)" style="fill: none; stroke: #bcbd22; stroke-width: 1.2; stroke-linecap: square"/>
   </g>
   <g id="line2d_20">
    <path d="M 187.351308 187.095951 
L 185.784883 180.742199 
L 193.421515 176.891678 
L 188.787405 169.703516 
L 196.424037 165.852995 
L 191.789926 158.664833 
L 199.426559 154.814312 
L 194.792448 147.62615 
L 202.42908 143.775629 
L 197.79497 136.587467 
L 205.431602 132.736946 
L 200.797492 125.548783 
L 205.366438 120.863852 
" clip-path="url(#p4f03df37d5)" style="fill: none; stroke: #17becf; stroke-width: 1.2; stroke-linecap: square"/>
   </g>
   <g id="line2d_21">
    <path d="M 256.23269 187.095951 
L 254.666265 180.742199 
L 262.302897 176.891678 
L 257.668787 169.703516 
L 265.305419 165.852995 
L 260.671309 158.664833 
L 268.307941 154.814312 
L 263.673831 147.62615 
L 271.310463 143.775629 
L 266.676352 136.587467 
L 274.312984 132.736946 
L 269.678874 125.548783 
L 274.247821 120.863852 
" clip-path="url(#p4f03df37d5)" style="fill: none; stroke: #1f77b4; stroke-width: 1.2; stroke-linecap: square"/>
   </g>
   <g id="line2d_22">
    <path d="M 67.603674 120.863852 
L 73.343789 117.684712 
L 79.083904 124.042993 
L 84.824019 117.684712 
L 90.564134 124.042993 
L 96.30425 117.684712 
L 102.044365 124.042993 
L 107.78448 117.684712 
L 113.524595 124.042993 
L 119.26471 117.684712 
L 125.004826 124.042993 
L 130.744941 117.684712 
L 136.485056 120.863852 
" clip-path="url(#p4f03df37d5)" style="fill: none; stroke: #ff7f0e; stroke-width: 1.2; stroke-linecap: square"/>
   </g>
   <g id="line2d_23">
    <path d="M 136.485056 120.863852 
L 142.225171 117.684712 
L 147.965286 124.042993 
L 153.705402 117.684712 
L 159.445517 124.042993 
L 165.185632 117.684712 
L 170.925747 124.042993 
L 176.665862 117.684712 
L 182.405978 124.042993 
L 188.146093 117.684712 
L 193.886208 124.042993 
L 199.626323 117.684712 
L 205.366438 120.863852 
" clip-path="url(#p4f03df37d5)" style="fill: none; stroke: #2ca02c; stroke-width: 1.2; stroke-linecap: square"/>
   </g>
   <g id="line2d_24">
    <path d="M 205.366438 120.863852 
L 211.106554 117.684712 
L 216.846669 124.042993 
L 222.586784 117.684712 
L 228.326899 124.042993 
L 234.067014 117.684712 
L 239.80713 124.042993 
L 245.547245 117.684712 
L 251.28736 124.042993 
L 257.027475 117.684712 
L 262.76759 124.042993 
L 268.507705 117.684712 
L 274.247821 120.863852 
" clip-path="url(#p4f03df37d5)" style="fill: none; stroke: #d62728; stroke-width: 1.2; stroke-linecap: square"/>
   </g>
   <g id="line2d_25">
    <path d="M 49.588543 97.020297 
L 274.247821 97.020297 
" clip-path="url(#p4f03df37d5)" style="fill: none; stroke-dasharray: 2.96,1.28; stroke-dashoffset: 0; stroke: #9467bd; stroke-width: 0.8"/>
   </g>
   <g id="line2d_26">
    <path d="M 49.588543 343.403703 
L 274.247821 343.403703 
" clip-path="url(#p4f03df37d5)" style="fill: none; stroke-dasharray: 2.96,1.28; stroke-dashoffset: 0; stroke: #8c564b; stroke-width: 0.8"/>
   </g>
   <g id="text_1">
    <!-- configurazione iniziale -->
    <g transform="translate(85.516619 67.176742) scale(0.12 -0.12)">
     <defs>
      <path id="DejaVuSans-Bold-63" d="M 3366 3391 
L 3366 2478 
Q 3138 2634 2908 2709 
Q 2678 2784 2431 2784 
Q 1963 2784 1702 2511 
Q 1441 2238 1441 1747 
Q 1441 1256 1702 982 
Q 1963 709 2431 709 
Q 2694 709 2930 787 
Q 3166 866 3366 1019 
L 3366 103 
Q 3103 6 2833 -42 
Q 2563 -91 2291 -91 
Q 1344 -91 809 395 
Q 275 881 275 1747 
Q 275 2613 809 3098 
Q 1344 3584 2291 3584 
Q 2566 3584 2833 3536 
Q 3100 3488 3366 3391 
z
" transform="scale(0.015625)"/>
      <path id="DejaVuSans-Bold-6f" d="M 2203 2784 
Q 1831 2784 1636 2517 
Q 1441 2250 1441 1747 
Q 1441 1244 1636 976 
Q 1831 709 2203 709 
Q 2569 709 2762 976 
Q 2956 1244 2956 1747 
Q 2956 2250 2762 2517 
Q 2569 2784 2203 2784 
z
M 2203 3584 
Q 3106 3584 3614 3096 
Q 4122 2609 4122 1747 
Q 4122 884 3614 396 
Q 3106 -91 2203 -91 
Q 1297 -91 786 396 
Q 275 884 275 1747 
Q 275 2609 786 3096 
Q 1297 3584 2203 3584 
z
" transform="scale(0.015625)"/>
      <path id="DejaVuSans-Bold-6e" d="M 4056 2131 
L 4056 0 
L 2931 0 
L 2931 347 
L 2931 1631 
Q 2931 2084 2911 2256 
Q 2891 2428 2841 2509 
Q 2775 2619 2662 2680 
Q 2550 2741 2406 2741 
Q 2056 2741 1856 2470 
Q 1656 2200 1656 1722 
L 1656 0 
L 538 0 
L 538 3500 
L 1656 3500 
L 1656 2988 
Q 1909 3294 2193 3439 
Q 2478 3584 2822 3584 
Q 3428 3584 3742 3212 
Q 4056 2841 4056 2131 
z
" transform="scale(0.015625)"/>
      <path id="DejaVuSans-Bold-66" d="M 2841 4863 
L 2841 4128 
L 2222 4128 
Q 1984 4128 1890 4042 
Q 1797 3956 1797 3744 
L 1797 3500 
L 2753 3500 
L 2753 2700 
L 1797 2700 
L 1797 0 
L 678 0 
L 678 2700 
L 122 2700 
L 122 3500 
L 678 3500 
L 678 3744 
Q 678 4316 997 4589 
Q 1316 4863 1984 4863 
L 2841 4863 
z
" transform="scale(0.015625)"/>
      <path id="DejaVuSans-Bold-69" d="M 538 3500 
L 1656 3500 
L 1656 0 
L 538 0 
L 538 3500 
z
M 538 4863 
L 1656 4863 
L 1656 3950 
L 538 3950 
L 538 4863 
z
" transform="scale(0.015625)"/>
      <path id="DejaVuSans-Bold-67" d="M 2919 594 
Q 2688 288 2409 144 
Q 2131 0 1766 0 
Q 1125 0 706 504 
Q 288 1009 288 1791 
Q 288 2575 706 3076 
Q 1125 3578 1766 3578 
Q 2131 3578 2409 3434 
Q 2688 3291 2919 2981 
L 2919 3500 
L 4044 3500 
L 4044 353 
Q 4044 -491 3511 -936 
Q 2978 -1381 1966 -1381 
Q 1638 -1381 1331 -1331 
Q 1025 -1281 716 -1178 
L 716 -306 
Q 1009 -475 1290 -558 
Q 1572 -641 1856 -641 
Q 2406 -641 2662 -400 
Q 2919 -159 2919 353 
L 2919 594 
z
M 2181 2772 
Q 1834 2772 1640 2515 
Q 1447 2259 1447 1791 
Q 1447 1309 1634 1061 
Q 1822 813 2181 813 
Q 2531 813 2725 1069 
Q 2919 1325 2919 1791 
Q 2919 2259 2725 2515 
Q 2531 2772 2181 2772 
z
" transform="scale(0.015625)"/>
      <path id="DejaVuSans-Bold-75" d="M 500 1363 
L 500 3500 
L 1625 3500 
L 1625 3150 
Q 1625 2866 1622 2436 
Q 1619 2006 1619 1863 
Q 1619 1441 1641 1255 
Q 1663 1069 1716 984 
Q 1784 875 1895 815 
Q 2006 756 2150 756 
Q 2500 756 2700 1025 
Q 2900 1294 2900 1772 
L 2900 3500 
L 4019 3500 
L 4019 0 
L 2900 0 
L 2900 506 
Q 2647 200 2364 54 
Q 2081 -91 1741 -91 
Q 1134 -91 817 281 
Q 500 653 500 1363 
z
" transform="scale(0.015625)"/>
      <path id="DejaVuSans-Bold-72" d="M 3138 2547 
Q 2991 2616 2845 2648 
Q 2700 2681 2553 2681 
Q 2122 2681 1889 2404 
Q 1656 2128 1656 1613 
L 1656 0 
L 538 0 
L 538 3500 
L 1656 3500 
L 1656 2925 
Q 1872 3269 2151 3426 
Q 2431 3584 2822 3584 
Q 2878 3584 2943 3579 
Q 3009 3575 3134 3559 
L 3138 2547 
z
" transform="scale(0.015625)"/>
      <path id="DejaVuSans-Bold-61" d="M 2106 1575 
Q 1756 1575 1579 1456 
Q 1403 1338 1403 1106 
Q 1403 894 1545 773 
Q 1688 653 1941 653 
Q 2256 653 2472 879 
Q 2688 1106 2688 1447 
L 2688 1575 
L 2106 1575 
z
M 3816 1997 
L 3816 0 
L 2688 0 
L 2688 519 
Q 2463 200 2181 54 
Q 1900 -91 1497 -91 
Q 953 -91 614 226 
Q 275 544 275 1050 
Q 275 1666 698 1953 
Q 1122 2241 2028 2241 
L 2688 2241 
L 2688 2328 
Q 2688 2594 2478 2717 
Q 2269 2841 1825 2841 
Q 1466 2841 1156 2769 
Q 847 2697 581 2553 
L 581 3406 
Q 941 3494 1303 3539 
Q 1666 3584 2028 3584 
Q 2975 3584 3395 3211 
Q 3816 2838 3816 1997 
z
" transform="scale(0.015625)"/>
      <path id="DejaVuSans-Bold-7a" d="M 366 3500 
L 3419 3500 
L 3419 2719 
L 1575 800 
L 3419 800 
L 3419 0 
L 288 0 
L 288 781 
L 2131 2700 
L 366 2700 
L 366 3500 
z
" transform="scale(0.015625)"/>
      <path id="DejaVuSans-Bold-65" d="M 4031 1759 
L 4031 1441 
L 1416 1441 
Q 1456 1047 1700 850 
Q 1944 653 2381 653 
Q 2734 653 3104 758 
Q 3475 863 3866 1075 
L 3866 213 
Q 3469 63 3072 -14 
Q 2675 -91 2278 -91 
Q 1328 -91 801 392 
Q 275 875 275 1747 
Q 275 2603 792 3093 
Q 1309 3584 2216 3584 
Q 3041 3584 3536 3087 
Q 4031 2591 4031 1759 
z
M 2881 2131 
Q 2881 2450 2695 2645 
Q 2509 2841 2209 2841 
Q 1884 2841 1681 2658 
Q 1478 2475 1428 2131 
L 2881 2131 
z
" transform="scale(0.015625)"/>
      <path id="DejaVuSans-Bold-20" transform="scale(0.015625)"/>
      <path id="DejaVuSans-Bold-6c" d="M 538 4863 
L 1656 4863 
L 1656 0 
L 538 0 
L 538 4863 
z
" transform="scale(0.015625)"/>
     </defs>
     <use xlink:href="#DejaVuSans-Bold-63"/>
     <use xlink:href="#DejaVuSans-Bold-6f" transform="translate(59.277344 0)"/>
     <use xlink:href="#DejaVuSans-Bold-6e" transform="translate(127.978516 0)"/>
     <use xlink:href="#DejaVuSans-Bold-66" transform="translate(199.169922 0)"/>
     <use xlink:href="#DejaVuSans-Bold-69" transform="translate(242.675781 0)"/>
     <use xlink:href="#DejaVuSans-Bold-67" transform="translate(276.953125 0)"/>
     <use xlink:href="#DejaVuSans-Bold-75" transform="translate(348.535156 0)"/>
     <use xlink:href="#DejaVuSans-Bold-72" transform="translate(419.726562 0)"/>
     <use xlink:href="#DejaVuSans-Bold-61" transform="translate(469.042969 0)"/>
     <use xlink:href="#DejaVuSans-Bold-7a" transform="translate(536.523438 0)"/>
     <use xlink:href="#DejaVuSans-Bold-69" transform="translate(594.726562 0)"/>
     <use xlink:href="#DejaVuSans-Bold-6f" transform="translate(629.003906 0)"/>
     <use xlink:href="#DejaVuSans-Bold-6e" transform="translate(697.705078 0)"/>
     <use xlink:href="#DejaVuSans-Bold-65" transform="translate(768.896484 0)"/>
     <use xlink:href="#DejaVuSans-Bold-20" transform="translate(836.71875 0)"/>
     <use xlink:href="#DejaVuSans-Bold-69" transform="translate(871.533203 0)"/>
     <use xlink:href="#DejaVuSans-Bold-6e" transform="translate(905.810547 0)"/>
     <use xlink:href="#DejaVuSans-Bold-69" transform="translate(977.001953 0)"/>
     <use xlink:href="#DejaVuSans-Bold-7a" transform="translate(1011.279297 0)"/>
     <use xlink:href="#DejaVuSans-Bold-69" transform="translate(1069.482422 0)"/>
     <use xlink:href="#DejaVuSans-Bold-61" transform="translate(1103.759766 0)"/>
     <use xlink:href="#DejaVuSans-Bold-6c" transform="translate(1171.240234 0)"/>
     <use xlink:href="#DejaVuSans-Bold-65" transform="translate(1205.517578 0)"/>
    </g>
   </g>
  </g>
  <g id="axes_2">
   <g id="patch_18">
    <path d="M 428.680817 316.451089 
C 429.678455 316.451089 430.635366 316.054724 431.340803 315.349287 
C 432.046239 314.643851 432.442605 313.686939 432.442605 312.689301 
C 432.442605 311.691663 432.046239 310.734751 431.340803 310.029315 
C 430.635366 309.323878 429.678455 308.927512 428.680817 308.927512 
C 427.683179 308.927512 426.726267 309.323878 426.02083 310.029315 
C 425.315394 310.734751 424.919028 311.691663 424.919028 312.689301 
C 424.919028 313.686939 425.315394 314.643851 426.02083 315.349287 
C 426.726267 316.054724 427.683179 316.451089 428.680817 316.451089 
z
" clip-path="url(#pf84b261894)" style="fill: #1f77b4; opacity: 0.7"/>
   </g>
   <g id="patch_19">
    <path d="M 492.798412 316.451089 
C 493.79605 316.451089 494.752961 316.054724 495.458398 315.349287 
C 496.163835 314.643851 496.5602 313.686939 496.5602 312.689301 
C 496.5602 311.691663 496.163835 310.734751 495.458398 310.029315 
C 494.752961 309.323878 493.79605 308.927512 492.798412 308.927512 
C 491.800774 308.927512 490.843862 309.323878 490.138426 310.029315 
C 489.432989 310.734751 489.036623 311.691663 489.036623 312.689301 
C 489.036623 313.686939 489.432989 314.643851 490.138426 315.349287 
C 490.843862 316.054724 491.800774 316.451089 492.798412 316.451089 
z
" clip-path="url(#pf84b261894)" style="fill: #1f77b4; opacity: 0.7"/>
   </g>
   <g id="patch_20">
    <path d="M 556.916007 316.451089 
C 557.913645 316.451089 558.870557 316.054724 559.575993 315.349287 
C 560.28143 314.643851 560.677796 313.686939 560.677796 312.689301 
C 560.677796 311.691663 560.28143 310.734751 559.575993 310.029315 
C 558.870557 309.323878 557.913645 308.927512 556.916007 308.927512 
C 555.918369 308.927512 554.961458 309.323878 554.256021 310.029315 
C 553.550584 310.734751 553.154219 311.691663 553.154219 312.689301 
C 553.154219 313.686939 553.550584 314.643851 554.256021 315.349287 
C 554.961458 316.054724 555.918369 316.451089 556.916007 316.451089 
z
" clip-path="url(#pf84b261894)" style="fill: #1f77b4; opacity: 0.7"/>
   </g>
   <g id="patch_21">
    <path d="M 621.033603 316.451089 
C 622.031241 316.451089 622.988152 316.054724 623.693589 315.349287 
C 624.399025 314.643851 624.795391 313.686939 624.795391 312.689301 
C 624.795391 311.691663 624.399025 310.734751 623.693589 310.029315 
C 622.988152 309.323878 622.031241 308.927512 621.033603 308.927512 
C 620.035965 308.927512 619.079053 309.323878 618.373616 310.029315 
C 617.66818 310.734751 617.271814 311.691663 617.271814 312.689301 
C 617.271814 313.686939 617.66818 314.643851 618.373616 315.349287 
C 619.079053 316.054724 620.035965 316.451089 621.033603 316.451089 
z
" clip-path="url(#pf84b261894)" style="fill: #1f77b4; opacity: 0.7"/>
   </g>
   <g id="patch_22">
    <path d="M 445.450034 254.799556 
C 446.447672 254.799556 447.404583 254.40319 448.11002 253.697753 
C 448.815457 252.992317 449.211822 252.035405 449.211822 251.037767 
C 449.211822 250.040129 448.815457 249.083217 448.11002 248.377781 
C 447.404583 247.672344 446.447672 247.275978 445.450034 247.275978 
C 444.452396 247.275978 443.495484 247.672344 442.790048 248.377781 
C 442.084611 249.083217 441.688245 250.040129 441.688245 251.037767 
C 441.688245 252.035405 442.084611 252.992317 442.790048 253.697753 
C 443.495484 254.40319 444.452396 254.799556 445.450034 254.799556 
z
" clip-path="url(#pf84b261894)" style="fill: #1f77b4; opacity: 0.7"/>
   </g>
   <g id="patch_23">
    <path d="M 509.567629 254.799556 
C 510.565267 254.799556 511.522179 254.40319 512.227615 253.697753 
C 512.933052 252.992317 513.329418 252.035405 513.329418 251.037767 
C 513.329418 250.040129 512.933052 249.083217 512.227615 248.377781 
C 511.522179 247.672344 510.565267 247.275978 509.567629 247.275978 
C 508.569991 247.275978 507.61308 247.672344 506.907643 248.377781 
C 506.202206 249.083217 505.805841 250.040129 505.805841 251.037767 
C 505.805841 252.035405 506.202206 252.992317 506.907643 253.697753 
C 507.61308 254.40319 508.569991 254.799556 509.567629 254.799556 
z
" clip-path="url(#pf84b261894)" style="fill: #1f77b4; opacity: 0.7"/>
   </g>
   <g id="patch_24">
    <path d="M 573.685224 254.799556 
C 574.682862 254.799556 575.639774 254.40319 576.345211 253.697753 
C 577.050647 252.992317 577.447013 252.035405 577.447013 251.037767 
C 577.447013 250.040129 577.050647 249.083217 576.345211 248.377781 
C 575.639774 247.672344 574.682862 247.275978 573.685224 247.275978 
C 572.687586 247.275978 571.730675 247.672344 571.025238 248.377781 
C 570.319802 249.083217 569.923436 250.040129 569.923436 251.037767 
C 569.923436 252.035405 570.319802 252.992317 571.025238 253.697753 
C 571.730675 254.40319 572.687586 254.799556 573.685224 254.799556 
z
" clip-path="url(#pf84b261894)" style="fill: #1f77b4; opacity: 0.7"/>
   </g>
   <g id="patch_25">
    <path d="M 637.80282 254.799556 
C 638.800458 254.799556 639.757369 254.40319 640.462806 253.697753 
C 641.168243 252.992317 641.564608 252.035405 641.564608 251.037767 
C 641.564608 250.040129 641.168243 249.083217 640.462806 248.377781 
C 639.757369 247.672344 638.800458 247.275978 637.80282 247.275978 
C 636.805182 247.275978 635.84827 247.672344 635.142834 248.377781 
C 634.437397 249.083217 634.041031 250.040129 634.041031 251.037767 
C 634.041031 252.035405 634.437397 252.992317 635.142834 253.697753 
C 635.84827 254.40319 636.805182 254.799556 637.80282 254.799556 
z
" clip-path="url(#pf84b261894)" style="fill: #1f77b4; opacity: 0.7"/>
   </g>
   <g id="patch_26">
    <path d="M 428.680817 193.148022 
C 429.678455 193.148022 430.635366 192.751656 431.340803 192.046219 
C 432.046239 191.340783 432.442605 190.383871 432.442605 189.386233 
C 432.442605 188.388595 432.046239 187.431683 431.340803 186.726247 
C 430.635366 186.02081 429.678455 185.624444 428.680817 185.624444 
C 427.683179 185.624444 426.726267 186.02081 426.02083 186.726247 
C 425.315394 187.431683 424.919028 188.388595 424.919028 189.386233 
C 424.919028 190.383871 425.315394 191.340783 426.02083 192.046219 
C 426.726267 192.751656 427.683179 193.148022 428.680817 193.148022 
z
" clip-path="url(#pf84b261894)" style="fill: #1f77b4; opacity: 0.7"/>
   </g>
   <g id="patch_27">
    <path d="M 492.798412 193.148022 
C 493.79605 193.148022 494.752961 192.751656 495.458398 192.046219 
C 496.163835 191.340783 496.5602 190.383871 496.5602 189.386233 
C 496.5602 188.388595 496.163835 187.431683 495.458398 186.726247 
C 494.752961 186.02081 493.79605 185.624444 492.798412 185.624444 
C 491.800774 185.624444 490.843862 186.02081 490.138426 186.726247 
C 489.432989 187.431683 489.036623 188.388595 489.036623 189.386233 
C 489.036623 190.383871 489.432989 191.340783 490.138426 192.046219 
C 490.843862 192.751656 491.800774 193.148022 492.798412 193.148022 
z
" clip-path="url(#pf84b261894)" style="fill: #1f77b4; opacity: 0.7"/>
   </g>
   <g id="patch_28">
    <path d="M 556.916007 193.148022 
C 557.913645 193.148022 558.870557 192.751656 559.575993 192.046219 
C 560.28143 191.340783 560.677796 190.383871 560.677796 189.386233 
C 560.677796 188.388595 560.28143 187.431683 559.575993 186.726247 
C 558.870557 186.02081 557.913645 185.624444 556.916007 185.624444 
C 555.918369 185.624444 554.961458 186.02081 554.256021 186.726247 
C 553.550584 187.431683 553.154219 188.388595 553.154219 189.386233 
C 553.154219 190.383871 553.550584 191.340783 554.256021 192.046219 
C 554.961458 192.751656 555.918369 193.148022 556.916007 193.148022 
z
" clip-path="url(#pf84b261894)" style="fill: #1f77b4; opacity: 0.7"/>
   </g>
   <g id="patch_29">
    <path d="M 621.033603 193.148022 
C 622.031241 193.148022 622.988152 192.751656 623.693589 192.046219 
C 624.399025 191.340783 624.795391 190.383871 624.795391 189.386233 
C 624.795391 188.388595 624.399025 187.431683 623.693589 186.726247 
C 622.988152 186.02081 622.031241 185.624444 621.033603 185.624444 
C 620.035965 185.624444 619.079053 186.02081 618.373616 186.726247 
C 617.66818 187.431683 617.271814 188.388595 617.271814 189.386233 
C 617.271814 190.383871 617.66818 191.340783 618.373616 192.046219 
C 619.079053 192.751656 620.035965 193.148022 621.033603 193.148022 
z
" clip-path="url(#pf84b261894)" style="fill: #1f77b4; opacity: 0.7"/>
   </g>
   <g id="patch_30">
    <path d="M 445.450034 131.496488 
C 446.447672 131.496488 447.404583 131.100122 448.11002 130.394685 
C 448.815457 129.689249 449.211822 128.732337 449.211822 127.734699 
C 449.211822 126.737061 448.815457 125.780149 448.11002 125.074713 
C 447.404583 124.369276 446.447672 123.972911 445.450034 123.972911 
C 444.452396 123.972911 443.495484 124.369276 442.790048 125.074713 
C 442.084611 125.780149 441.688245 126.737061 441.688245 127.734699 
C 441.688245 128.732337 442.084611 129.689249 442.790048 130.394685 
C 443.495484 131.100122 444.452396 131.496488 445.450034 131.496488 
z
" clip-path="url(#pf84b261894)" style="fill: #1f77b4; opacity: 0.7"/>
   </g>
   <g id="patch_31">
    <path d="M 509.567629 131.496488 
C 510.565267 131.496488 511.522179 131.100122 512.227615 130.394685 
C 512.933052 129.689249 513.329418 128.732337 513.329418 127.734699 
C 513.329418 126.737061 512.933052 125.780149 512.227615 125.074713 
C 511.522179 124.369276 510.565267 123.972911 509.567629 123.972911 
C 508.569991 123.972911 507.61308 124.369276 506.907643 125.074713 
C 506.202206 125.780149 505.805841 126.737061 505.805841 127.734699 
C 505.805841 128.732337 506.202206 129.689249 506.907643 130.394685 
C 507.61308 131.100122 508.569991 131.496488 509.567629 131.496488 
z
" clip-path="url(#pf84b261894)" style="fill: #1f77b4; opacity: 0.7"/>
   </g>
   <g id="patch_32">
    <path d="M 573.685224 131.496488 
C 574.682862 131.496488 575.639774 131.100122 576.345211 130.394685 
C 577.050647 129.689249 577.447013 128.732337 577.447013 127.734699 
C 577.447013 126.737061 577.050647 125.780149 576.345211 125.074713 
C 575.639774 124.369276 574.682862 123.972911 573.685224 123.972911 
C 572.687586 123.972911 571.730675 124.369276 571.025238 125.074713 
C 570.319802 125.780149 569.923436 126.737061 569.923436 127.734699 
C 569.923436 128.732337 570.319802 129.689249 571.025238 130.394685 
C 571.730675 131.100122 572.687586 131.496488 573.685224 131.496488 
z
" clip-path="url(#pf84b261894)" style="fill: #1f77b4; opacity: 0.7"/>
   </g>
   <g id="patch_33">
    <path d="M 637.80282 131.496488 
C 638.800458 131.496488 639.757369 131.100122 640.462806 130.394685 
C 641.168243 129.689249 641.564608 128.732337 641.564608 127.734699 
C 641.564608 126.737061 641.168243 125.780149 640.462806 125.074713 
C 639.757369 124.369276 638.800458 123.972911 637.80282 123.972911 
C 636.805182 123.972911 635.84827 124.369276 635.142834 125.074713 
C 634.437397 125.780149 634.041031 126.737061 634.041031 127.734699 
C 634.041031 128.732337 634.437397 129.689249 635.142834 130.394685 
C 635.84827 131.100122 636.805182 131.496488 637.80282 131.496488 
z
" clip-path="url(#pf84b261894)" style="fill: #1f77b4; opacity: 0.7"/>
   </g>
   <g id="line2d_27">
    <path d="M 428.680817 312.689301 
L 434.023949 310.181442 
L 439.367082 315.19716 
L 444.710215 310.181442 
L 450.053348 315.19716 
L 455.396481 310.181442 
L 460.739614 315.19716 
L 466.082747 310.181442 
L 471.42588 315.19716 
L 476.769013 310.181442 
L 482.112146 315.19716 
L 487.455279 310.181442 
L 492.798412 312.689301 
" clip-path="url(#pf84b261894)" style="fill: none; stroke: #1f77b4; stroke-width: 1.2; stroke-linecap: square"/>
   </g>
   <g id="line2d_28">
    <path d="M 428.680817 312.689301 
L 427.658313 306.89345 
L 433.895624 303.072268 
L 430.453183 296.618194 
L 436.690493 292.797013 
L 433.248053 286.342939 
L 439.485363 282.521757 
L 436.042922 276.067683 
L 442.280233 272.246501 
L 438.837792 265.792427 
L 445.075102 261.971246 
L 441.632661 255.517172 
L 445.450034 251.037767 
" clip-path="url(#pf84b261894)" style="fill: none; stroke: #ff7f0e; stroke-width: 1.2; stroke-linecap: square"/>
   </g>
   <g id="line2d_29">
    <path d="M 492.798412 312.689301 
L 498.141545 310.181442 
L 503.484678 315.19716 
L 508.827811 310.181442 
L 514.170944 315.19716 
L 519.514077 310.181442 
L 524.85721 315.19716 
L 530.200343 310.181442 
L 535.543475 315.19716 
L 540.886608 310.181442 
L 546.229741 315.19716 
L 551.572874 310.181442 
L 556.916007 312.689301 
" clip-path="url(#pf84b261894)" style="fill: none; stroke: #2ca02c; stroke-width: 1.2; stroke-linecap: square"/>
   </g>
   <g id="line2d_30">
    <path d="M 492.798412 312.689301 
L 491.775909 306.89345 
L 498.013219 303.072268 
L 494.570778 296.618194 
L 500.808089 292.797013 
L 497.365648 286.342939 
L 503.602958 282.521757 
L 500.160517 276.067683 
L 506.397828 272.246501 
L 502.955387 265.792427 
L 509.192697 261.971246 
L 505.750257 255.517172 
L 509.567629 251.037767 
" clip-path="url(#pf84b261894)" style="fill: none; stroke: #d62728; stroke-width: 1.2; stroke-linecap: square"/>
   </g>
   <g id="line2d_31">
    <path d="M 556.916007 312.689301 
L 562.25914 310.181442 
L 567.602273 315.19716 
L 572.945406 310.181442 
L 578.288539 315.19716 
L 583.631672 310.181442 
L 588.974805 315.19716 
L 594.317938 310.181442 
L 599.661071 315.19716 
L 605.004204 310.181442 
L 610.347337 315.19716 
L 615.69047 310.181442 
L 621.033603 312.689301 
" clip-path="url(#pf84b261894)" style="fill: none; stroke: #9467bd; stroke-width: 1.2; stroke-linecap: square"/>
   </g>
   <g id="line2d_32">
    <path d="M 556.916007 312.689301 
L 555.893504 306.89345 
L 562.130815 303.072268 
L 558.688374 296.618194 
L 564.925684 292.797013 
L 561.483243 286.342939 
L 567.720554 282.521757 
L 564.278113 276.067683 
L 570.515423 272.246501 
L 567.072982 265.792427 
L 573.310293 261.971246 
L 569.867852 255.517172 
L 573.685224 251.037767 
" clip-path="url(#pf84b261894)" style="fill: none; stroke: #8c564b; stroke-width: 1.2; stroke-linecap: square"/>
   </g>
   <g id="line2d_33">
    <path d="M 621.033603 312.689301 
L 620.011099 306.89345 
L 626.24841 303.072268 
L 622.805969 296.618194 
L 629.043279 292.797013 
L 625.600839 286.342939 
L 631.838149 282.521757 
L 628.395708 276.067683 
L 634.633019 272.246501 
L 631.190578 265.792427 
L 637.427888 261.971246 
L 633.985447 255.517172 
L 637.80282 251.037767 
" clip-path="url(#pf84b261894)" style="fill: none; stroke: #e377c2; stroke-width: 1.2; stroke-linecap: square"/>
   </g>
   <g id="line2d_34">
    <path d="M 445.450034 251.037767 
L 450.793167 248.529908 
L 456.1363 253.545626 
L 461.479433 248.529908 
L 466.822566 253.545626 
L 472.165699 248.529908 
L 477.508831 253.545626 
L 482.851964 248.529908 
L 488.195097 253.545626 
L 493.53823 248.529908 
L 498.881363 253.545626 
L 504.224496 248.529908 
L 509.567629 251.037767 
" clip-path="url(#pf84b261894)" style="fill: none; stroke: #7f7f7f; stroke-width: 1.2; stroke-linecap: square"/>
   </g>
   <g id="line2d_35">
    <path d="M 445.450034 251.037767 
L 441.632661 246.558362 
L 445.075102 240.104288 
L 438.837792 236.283107 
L 442.280233 229.829033 
L 436.042922 226.007851 
L 439.485363 219.553777 
L 433.248053 215.732595 
L 436.690493 209.278521 
L 430.453183 205.45734 
L 433.895624 199.003266 
L 427.658313 195.182084 
L 428.680817 189.386233 
" clip-path="url(#pf84b261894)" style="fill: none; stroke: #bcbd22; stroke-width: 1.2; stroke-linecap: square"/>
   </g>
   <g id="line2d_36">
    <path d="M 509.567629 251.037767 
L 514.910762 248.529908 
L 520.253895 253.545626 
L 525.597028 248.529908 
L 530.940161 253.545626 
L 536.283294 248.529908 
L 541.626427 253.545626 
L 546.96956 248.529908 
L 552.312693 253.545626 
L 557.655826 248.529908 
L 562.998959 253.545626 
L 568.342092 248.529908 
L 573.685224 251.037767 
" clip-path="url(#pf84b261894)" style="fill: none; stroke: #17becf; stroke-width: 1.2; stroke-linecap: square"/>
   </g>
   <g id="line2d_37">
    <path d="M 509.567629 251.037767 
L 505.750257 246.558362 
L 509.192697 240.104288 
L 502.955387 236.283107 
L 506.397828 229.829033 
L 500.160517 226.007851 
L 503.602958 219.553777 
L 497.365648 215.732595 
L 500.808089 209.278521 
L 494.570778 205.45734 
L 498.013219 199.003266 
L 491.775909 195.182084 
L 492.798412 189.386233 
" clip-path="url(#pf84b261894)" style="fill: none; stroke: #1f77b4; stroke-width: 1.2; stroke-linecap: square"/>
   </g>
   <g id="line2d_38">
    <path d="M 573.685224 251.037767 
L 579.028357 248.529908 
L 584.37149 253.545626 
L 589.714623 248.529908 
L 595.057756 253.545626 
L 600.400889 248.529908 
L 605.744022 253.545626 
L 611.087155 248.529908 
L 616.430288 253.545626 
L 621.773421 248.529908 
L 627.116554 253.545626 
L 632.459687 248.529908 
L 637.80282 251.037767 
" clip-path="url(#pf84b261894)" style="fill: none; stroke: #ff7f0e; stroke-width: 1.2; stroke-linecap: square"/>
   </g>
   <g id="line2d_39">
    <path d="M 573.685224 251.037767 
L 569.867852 246.558362 
L 573.310293 240.104288 
L 567.072982 236.283107 
L 570.515423 229.829033 
L 564.278113 226.007851 
L 567.720554 219.553777 
L 561.483243 215.732595 
L 564.925684 209.278521 
L 558.688374 205.45734 
L 562.130815 199.003266 
L 555.893504 195.182084 
L 556.916007 189.386233 
" clip-path="url(#pf84b261894)" style="fill: none; stroke: #2ca02c; stroke-width: 1.2; stroke-linecap: square"/>
   </g>
   <g id="line2d_40">
    <path d="M 637.80282 251.037767 
L 633.985447 246.558362 
L 637.427888 240.104288 
L 631.190578 236.283107 
L 634.633019 229.829033 
L 628.395708 226.007851 
L 631.838149 219.553777 
L 625.600839 215.732595 
L 629.043279 209.278521 
L 622.805969 205.45734 
L 626.24841 199.003266 
L 620.011099 195.182084 
L 621.033603 189.386233 
" clip-path="url(#pf84b261894)" style="fill: none; stroke: #d62728; stroke-width: 1.2; stroke-linecap: square"/>
   </g>
   <g id="line2d_41">
    <path d="M 428.680817 189.386233 
L 434.023949 186.878374 
L 439.367082 191.894092 
L 444.710215 186.878374 
L 450.053348 191.894092 
L 455.396481 186.878374 
L 460.739614 191.894092 
L 466.082747 186.878374 
L 471.42588 191.894092 
L 476.769013 186.878374 
L 482.112146 191.894092 
L 487.455279 186.878374 
L 492.798412 189.386233 
" clip-path="url(#pf84b261894)" style="fill: none; stroke: #9467bd; stroke-width: 1.2; stroke-linecap: square"/>
   </g>
   <g id="line2d_42">
    <path d="M 428.680817 189.386233 
L 427.658313 183.590382 
L 433.895624 179.7692 
L 430.453183 173.315126 
L 436.690493 169.493945 
L 433.248053 163.039871 
L 439.485363 159.218689 
L 436.042922 152.764615 
L 442.280233 148.943433 
L 438.837792 142.489359 
L 445.075102 138.668178 
L 441.632661 132.214104 
L 445.450034 127.734699 
" clip-path="url(#pf84b261894)" style="fill: none; stroke: #8c564b; stroke-width: 1.2; stroke-linecap: square"/>
   </g>
   <g id="line2d_43">
    <path d="M 492.798412 189.386233 
L 498.141545 186.878374 
L 503.484678 191.894092 
L 508.827811 186.878374 
L 514.170944 191.894092 
L 519.514077 186.878374 
L 524.85721 191.894092 
L 530.200343 186.878374 
L 535.543475 191.894092 
L 540.886608 186.878374 
L 546.229741 191.894092 
L 551.572874 186.878374 
L 556.916007 189.386233 
" clip-path="url(#pf84b261894)" style="fill: none; stroke: #e377c2; stroke-width: 1.2; stroke-linecap: square"/>
   </g>
   <g id="line2d_44">
    <path d="M 492.798412 189.386233 
L 491.775909 183.590382 
L 498.013219 179.7692 
L 494.570778 173.315126 
L 500.808089 169.493945 
L 497.365648 163.039871 
L 503.602958 159.218689 
L 500.160517 152.764615 
L 506.397828 148.943433 
L 502.955387 142.489359 
L 509.192697 138.668178 
L 505.750257 132.214104 
L 509.567629 127.734699 
" clip-path="url(#pf84b261894)" style="fill: none; stroke: #7f7f7f; stroke-width: 1.2; stroke-linecap: square"/>
   </g>
   <g id="line2d_45">
    <path d="M 556.916007 189.386233 
L 562.25914 186.878374 
L 567.602273 191.894092 
L 572.945406 186.878374 
L 578.288539 191.894092 
L 583.631672 186.878374 
L 588.974805 191.894092 
L 594.317938 186.878374 
L 599.661071 191.894092 
L 605.004204 186.878374 
L 610.347337 191.894092 
L 615.69047 186.878374 
L 621.033603 189.386233 
" clip-path="url(#pf84b261894)" style="fill: none; stroke: #bcbd22; stroke-width: 1.2; stroke-linecap: square"/>
   </g>
   <g id="line2d_46">
    <path d="M 556.916007 189.386233 
L 555.893504 183.590382 
L 562.130815 179.7692 
L 558.688374 173.315126 
L 564.925684 169.493945 
L 561.483243 163.039871 
L 567.720554 159.218689 
L 564.278113 152.764615 
L 570.515423 148.943433 
L 567.072982 142.489359 
L 573.310293 138.668178 
L 569.867852 132.214104 
L 573.685224 127.734699 
" clip-path="url(#pf84b261894)" style="fill: none; stroke: #17becf; stroke-width: 1.2; stroke-linecap: square"/>
   </g>
   <g id="line2d_47">
    <path d="M 621.033603 189.386233 
L 620.011099 183.590382 
L 626.24841 179.7692 
L 622.805969 173.315126 
L 629.043279 169.493945 
L 625.600839 163.039871 
L 631.838149 159.218689 
L 628.395708 152.764615 
L 634.633019 148.943433 
L 631.190578 142.489359 
L 637.427888 138.668178 
L 633.985447 132.214104 
L 637.80282 127.734699 
" clip-path="url(#pf84b261894)" style="fill: none; stroke: #1f77b4; stroke-width: 1.2; stroke-linecap: square"/>
   </g>
   <g id="line2d_48">
    <path d="M 445.450034 127.734699 
L 450.793167 125.22684 
L 456.1363 130.242558 
L 461.479433 125.22684 
L 466.822566 130.242558 
L 472.165699 125.22684 
L 477.508831 130.242558 
L 482.851964 125.22684 
L 488.195097 130.242558 
L 493.53823 125.22684 
L 498.881363 130.242558 
L 504.224496 125.22684 
L 509.567629 127.734699 
" clip-path="url(#pf84b261894)" style="fill: none; stroke: #ff7f0e; stroke-width: 1.2; stroke-linecap: square"/>
   </g>
   <g id="line2d_49">
    <path d="M 509.567629 127.734699 
L 514.910762 125.22684 
L 520.253895 130.242558 
L 525.597028 125.22684 
L 530.940161 130.242558 
L 536.283294 125.22684 
L 541.626427 130.242558 
L 546.96956 125.22684 
L 552.312693 130.242558 
L 557.655826 125.22684 
L 562.998959 130.242558 
L 568.342092 125.22684 
L 573.685224 127.734699 
" clip-path="url(#pf84b261894)" style="fill: none; stroke: #2ca02c; stroke-width: 1.2; stroke-linecap: square"/>
   </g>
   <g id="line2d_50">
    <path d="M 573.685224 127.734699 
L 579.028357 125.22684 
L 584.37149 130.242558 
L 589.714623 125.22684 
L 595.057756 130.242558 
L 600.400889 125.22684 
L 605.744022 130.242558 
L 611.087155 125.22684 
L 616.430288 130.242558 
L 621.773421 125.22684 
L 627.116554 130.242558 
L 632.459687 125.22684 
L 637.80282 127.734699 
" clip-path="url(#pf84b261894)" style="fill: none; stroke: #d62728; stroke-width: 1.2; stroke-linecap: square"/>
   </g>
   <g id="line2d_51">
    <path d="M 428.680817 108.925756 
L 637.80282 108.925756 
" clip-path="url(#pf84b261894)" style="fill: none; stroke-dasharray: 2.96,1.28; stroke-dashoffset: 0; stroke: #9467bd; stroke-width: 0.8"/>
   </g>
   <g id="line2d_52">
    <path d="M 428.680817 331.498244 
L 637.80282 331.498244 
" clip-path="url(#pf84b261894)" style="fill: none; stroke-dasharray: 2.96,1.28; stroke-dashoffset: 0; stroke: #8c564b; stroke-width: 0.8"/>
   </g>
   <g id="patch_34">
    <path d="M 414.14501 220.212 
Q 401.514111 220.212 390.560262 220.212 
" style="fill: none; stroke: #000000; stroke-width: 1.5; stroke-linecap: round"/>
    <path d="M 395.760262 222.812 
L 390.560262 220.212 
L 395.760262 217.612 
z
" style="fill: #1f77b4; stroke: #000000; stroke-width: 1.5; stroke-linecap: round"/>
   </g>
   <g id="text_2">
    <!-- carico -->
    <g transform="translate(386.445938 212.521962) scale(0.1 -0.1)">
     <defs>
      <path id="DejaVuSans-63" d="M 3122 3366 
L 3122 2828 
Q 2878 2963 2633 3030 
Q 2388 3097 2138 3097 
Q 1578 3097 1268 2742 
Q 959 2388 959 1747 
Q 959 1106 1268 751 
Q 1578 397 2138 397 
Q 2388 397 2633 464 
Q 2878 531 3122 666 
L 3122 134 
Q 2881 22 2623 -34 
Q 2366 -91 2075 -91 
Q 1284 -91 818 406 
Q 353 903 353 1747 
Q 353 2603 823 3093 
Q 1294 3584 2113 3584 
Q 2378 3584 2631 3529 
Q 2884 3475 3122 3366 
z
" transform="scale(0.015625)"/>
      <path id="DejaVuSans-61" d="M 2194 1759 
Q 1497 1759 1228 1600 
Q 959 1441 959 1056 
Q 959 750 1161 570 
Q 1363 391 1709 391 
Q 2188 391 2477 730 
Q 2766 1069 2766 1631 
L 2766 1759 
L 2194 1759 
z
M 3341 1997 
L 3341 0 
L 2766 0 
L 2766 531 
Q 2569 213 2275 61 
Q 1981 -91 1556 -91 
Q 1019 -91 701 211 
Q 384 513 384 1019 
Q 384 1609 779 1909 
Q 1175 2209 1959 2209 
L 2766 2209 
L 2766 2266 
Q 2766 2663 2505 2880 
Q 2244 3097 1772 3097 
Q 1472 3097 1187 3025 
Q 903 2953 641 2809 
L 641 3341 
Q 956 3463 1253 3523 
Q 1550 3584 1831 3584 
Q 2591 3584 2966 3190 
Q 3341 2797 3341 1997 
z
" transform="scale(0.015625)"/>
      <path id="DejaVuSans-72" d="M 2631 2963 
Q 2534 3019 2420 3045 
Q 2306 3072 2169 3072 
Q 1681 3072 1420 2755 
Q 1159 2438 1159 1844 
L 1159 0 
L 581 0 
L 581 3500 
L 1159 3500 
L 1159 2956 
Q 1341 3275 1631 3429 
Q 1922 3584 2338 3584 
Q 2397 3584 2469 3576 
Q 2541 3569 2628 3553 
L 2631 2963 
z
" transform="scale(0.015625)"/>
      <path id="DejaVuSans-69" d="M 603 3500 
L 1178 3500 
L 1178 0 
L 603 0 
L 603 3500 
z
M 603 4863 
L 1178 4863 
L 1178 4134 
L 603 4134 
L 603 4863 
z
" transform="scale(0.015625)"/>
      <path id="DejaVuSans-6f" d="M 1959 3097 
Q 1497 3097 1228 2736 
Q 959 2375 959 1747 
Q 959 1119 1226 758 
Q 1494 397 1959 397 
Q 2419 397 2687 759 
Q 2956 1122 2956 1747 
Q 2956 2369 2687 2733 
Q 2419 3097 1959 3097 
z
M 1959 3584 
Q 2709 3584 3137 3096 
Q 3566 2609 3566 1747 
Q 3566 888 3137 398 
Q 2709 -91 1959 -91 
Q 1206 -91 779 398 
Q 353 888 353 1747 
Q 353 2609 779 3096 
Q 1206 3584 1959 3584 
z
" transform="scale(0.015625)"/>
     </defs>
     <use xlink:href="#DejaVuSans-63"/>
     <use xlink:href="#DejaVuSans-61" transform="translate(54.980469 0)"/>
     <use xlink:href="#DejaVuSans-72" transform="translate(116.259766 0)"/>
     <use xlink:href="#DejaVuSans-69" transform="translate(157.373047 0)"/>
     <use xlink:href="#DejaVuSans-63" transform="translate(185.15625 0)"/>
     <use xlink:href="#DejaVuSans-6f" transform="translate(240.136719 0)"/>
    </g>
   </g>
   <g id="patch_35">
    <path d="M 652.338626 220.212 
Q 664.969526 220.212 675.923374 220.212 
" style="fill: none; stroke: #000000; stroke-width: 1.5; stroke-linecap: round"/>
    <path d="M 670.723374 217.612 
L 675.923374 220.212 
L 670.723374 222.812 
z
" style="fill: #1f77b4; stroke: #000000; stroke-width: 1.5; stroke-linecap: round"/>
   </g>
   <g id="text_3">
    <!-- carico -->
    <g transform="translate(649.904886 212.521962) scale(0.1 -0.1)">
     <use xlink:href="#DejaVuSans-63"/>
     <use xlink:href="#DejaVuSans-61" transform="translate(54.980469 0)"/>
     <use xlink:href="#DejaVuSans-72" transform="translate(116.259766 0)"/>
     <use xlink:href="#DejaVuSans-69" transform="translate(157.373047 0)"/>
     <use xlink:href="#DejaVuSans-63" transform="translate(185.15625 0)"/>
     <use xlink:href="#DejaVuSans-6f" transform="translate(240.136719 0)"/>
    </g>
   </g>
   <g id="patch_36">
    <path d="M 533.241818 119.463693 
Q 533.241818 105.791529 533.241818 93.796417 
" style="fill: none; stroke: #000000; stroke-width: 1.5; stroke-linecap: round"/>
    <path d="M 530.641818 98.996417 
L 533.241818 93.796417 
L 535.841818 98.996417 
z
" style="fill: #1f77b4; stroke: #000000; stroke-width: 1.5; stroke-linecap: round"/>
   </g>
   <g id="text_4">
    <!-- espansione trasversale -->
    <g transform="translate(515.063648 108.550308) scale(0.1 -0.1)">
     <defs>
      <path id="DejaVuSans-65" d="M 3597 1894 
L 3597 1613 
L 953 1613 
Q 991 1019 1311 708 
Q 1631 397 2203 397 
Q 2534 397 2845 478 
Q 3156 559 3463 722 
L 3463 178 
Q 3153 47 2828 -22 
Q 2503 -91 2169 -91 
Q 1331 -91 842 396 
Q 353 884 353 1716 
Q 353 2575 817 3079 
Q 1281 3584 2069 3584 
Q 2775 3584 3186 3129 
Q 3597 2675 3597 1894 
z
M 3022 2063 
Q 3016 2534 2758 2815 
Q 2500 3097 2075 3097 
Q 1594 3097 1305 2825 
Q 1016 2553 972 2059 
L 3022 2063 
z
" transform="scale(0.015625)"/>
      <path id="DejaVuSans-73" d="M 2834 3397 
L 2834 2853 
Q 2591 2978 2328 3040 
Q 2066 3103 1784 3103 
Q 1356 3103 1142 2972 
Q 928 2841 928 2578 
Q 928 2378 1081 2264 
Q 1234 2150 1697 2047 
L 1894 2003 
Q 2506 1872 2764 1633 
Q 3022 1394 3022 966 
Q 3022 478 2636 193 
Q 2250 -91 1575 -91 
Q 1294 -91 989 -36 
Q 684 19 347 128 
L 347 722 
Q 666 556 975 473 
Q 1284 391 1588 391 
Q 1994 391 2212 530 
Q 2431 669 2431 922 
Q 2431 1156 2273 1281 
Q 2116 1406 1581 1522 
L 1381 1569 
Q 847 1681 609 1914 
Q 372 2147 372 2553 
Q 372 3047 722 3315 
Q 1072 3584 1716 3584 
Q 2034 3584 2315 3537 
Q 2597 3491 2834 3397 
z
" transform="scale(0.015625)"/>
      <path id="DejaVuSans-70" d="M 1159 525 
L 1159 -1331 
L 581 -1331 
L 581 3500 
L 1159 3500 
L 1159 2969 
Q 1341 3281 1617 3432 
Q 1894 3584 2278 3584 
Q 2916 3584 3314 3078 
Q 3713 2572 3713 1747 
Q 3713 922 3314 415 
Q 2916 -91 2278 -91 
Q 1894 -91 1617 61 
Q 1341 213 1159 525 
z
M 3116 1747 
Q 3116 2381 2855 2742 
Q 2594 3103 2138 3103 
Q 1681 3103 1420 2742 
Q 1159 2381 1159 1747 
Q 1159 1113 1420 752 
Q 1681 391 2138 391 
Q 2594 391 2855 752 
Q 3116 1113 3116 1747 
z
" transform="scale(0.015625)"/>
      <path id="DejaVuSans-6e" d="M 3513 2113 
L 3513 0 
L 2938 0 
L 2938 2094 
Q 2938 2591 2744 2837 
Q 2550 3084 2163 3084 
Q 1697 3084 1428 2787 
Q 1159 2491 1159 1978 
L 1159 0 
L 581 0 
L 581 3500 
L 1159 3500 
L 1159 2956 
Q 1366 3272 1645 3428 
Q 1925 3584 2291 3584 
Q 2894 3584 3203 3211 
Q 3513 2838 3513 2113 
z
" transform="scale(0.015625)"/>
      <path id="DejaVuSans-20" transform="scale(0.015625)"/>
      <path id="DejaVuSans-74" d="M 1172 4494 
L 1172 3500 
L 2356 3500 
L 2356 3053 
L 1172 3053 
L 1172 1153 
Q 1172 725 1289 603 
Q 1406 481 1766 481 
L 2356 481 
L 2356 0 
L 1766 0 
Q 1100 0 847 248 
Q 594 497 594 1153 
L 594 3053 
L 172 3053 
L 172 3500 
L 594 3500 
L 594 4494 
L 1172 4494 
z
" transform="scale(0.015625)"/>
      <path id="DejaVuSans-76" d="M 191 3500 
L 800 3500 
L 1894 563 
L 2988 3500 
L 3597 3500 
L 2284 0 
L 1503 0 
L 191 3500 
z
" transform="scale(0.015625)"/>
      <path id="DejaVuSans-6c" d="M 603 4863 
L 1178 4863 
L 1178 0 
L 603 0 
L 603 4863 
z
" transform="scale(0.015625)"/>
     </defs>
     <use xlink:href="#DejaVuSans-65"/>
     <use xlink:href="#DejaVuSans-73" transform="translate(61.523438 0)"/>
     <use xlink:href="#DejaVuSans-70" transform="translate(113.623047 0)"/>
     <use xlink:href="#DejaVuSans-61" transform="translate(177.099609 0)"/>
     <use xlink:href="#DejaVuSans-6e" transform="translate(238.378906 0)"/>
     <use xlink:href="#DejaVuSans-73" transform="translate(301.757812 0)"/>
     <use xlink:href="#DejaVuSans-69" transform="translate(353.857422 0)"/>
     <use xlink:href="#DejaVuSans-6f" transform="translate(381.640625 0)"/>
     <use xlink:href="#DejaVuSans-6e" transform="translate(442.822266 0)"/>
     <use xlink:href="#DejaVuSans-65" transform="translate(506.201172 0)"/>
     <use xlink:href="#DejaVuSans-20" transform="translate(567.724609 0)"/>
     <use xlink:href="#DejaVuSans-74" transform="translate(599.511719 0)"/>
     <use xlink:href="#DejaVuSans-72" transform="translate(638.720703 0)"/>
     <use xlink:href="#DejaVuSans-61" transform="translate(679.833984 0)"/>
     <use xlink:href="#DejaVuSans-73" transform="translate(741.113281 0)"/>
     <use xlink:href="#DejaVuSans-76" transform="translate(793.212891 0)"/>
     <use xlink:href="#DejaVuSans-65" transform="translate(852.392578 0)"/>
     <use xlink:href="#DejaVuSans-72" transform="translate(913.916016 0)"/>
     <use xlink:href="#DejaVuSans-73" transform="translate(955.029297 0)"/>
     <use xlink:href="#DejaVuSans-61" transform="translate(1007.128906 0)"/>
     <use xlink:href="#DejaVuSans-6c" transform="translate(1068.408203 0)"/>
     <use xlink:href="#DejaVuSans-65" transform="translate(1096.191406 0)"/>
    </g>
   </g>
   <g id="patch_37">
    <path d="M 533.241818 320.960307 
Q 533.241818 334.632471 533.241818 346.627583 
" style="fill: none; stroke: #000000; stroke-width: 1.5; stroke-linecap: round"/>
    <path d="M 535.841818 341.427583 
L 533.241818 346.627583 
L 530.641818 341.427583 
z
" style="fill: #1f77b4; stroke: #000000; stroke-width: 1.5; stroke-linecap: round"/>
   </g>
   <g id="text_5">
    <!-- espansione trasversale -->
    <g transform="translate(515.063648 337.392442) scale(0.1 -0.1)">
     <use xlink:href="#DejaVuSans-65"/>
     <use xlink:href="#DejaVuSans-73" transform="translate(61.523438 0)"/>
     <use xlink:href="#DejaVuSans-70" transform="translate(113.623047 0)"/>
     <use xlink:href="#DejaVuSans-61" transform="translate(177.099609 0)"/>
     <use xlink:href="#DejaVuSans-6e" transform="translate(238.378906 0)"/>
     <use xlink:href="#DejaVuSans-73" transform="translate(301.757812 0)"/>
     <use xlink:href="#DejaVuSans-69" transform="translate(353.857422 0)"/>
     <use xlink:href="#DejaVuSans-6f" transform="translate(381.640625 0)"/>
     <use xlink:href="#DejaVuSans-6e" transform="translate(442.822266 0)"/>
     <use xlink:href="#DejaVuSans-65" transform="translate(506.201172 0)"/>
     <use xlink:href="#DejaVuSans-20" transform="translate(567.724609 0)"/>
     <use xlink:href="#DejaVuSans-74" transform="translate(599.511719 0)"/>
     <use xlink:href="#DejaVuSans-72" transform="translate(638.720703 0)"/>
     <use xlink:href="#DejaVuSans-61" transform="translate(679.833984 0)"/>
     <use xlink:href="#DejaVuSans-73" transform="translate(741.113281 0)"/>
     <use xlink:href="#DejaVuSans-76" transform="translate(793.212891 0)"/>
     <use xlink:href="#DejaVuSans-65" transform="translate(852.392578 0)"/>
     <use xlink:href="#DejaVuSans-72" transform="translate(913.916016 0)"/>
     <use xlink:href="#DejaVuSans-73" transform="translate(955.029297 0)"/>
     <use xlink:href="#DejaVuSans-61" transform="translate(1007.128906 0)"/>
     <use xlink:href="#DejaVuSans-6c" transform="translate(1068.408203 0)"/>
     <use xlink:href="#DejaVuSans-65" transform="translate(1096.191406 0)"/>
    </g>
   </g>
   <g id="text_6">
    <!-- dopo carico uniaxiale -->
    <g transform="translate(461.179006 71.577519) scale(0.12 -0.12)">
     <defs>
      <path id="DejaVuSans-Bold-64" d="M 2919 2988 
L 2919 4863 
L 4044 4863 
L 4044 0 
L 2919 0 
L 2919 506 
Q 2688 197 2409 53 
Q 2131 -91 1766 -91 
Q 1119 -91 703 423 
Q 288 938 288 1747 
Q 288 2556 703 3070 
Q 1119 3584 1766 3584 
Q 2128 3584 2408 3439 
Q 2688 3294 2919 2988 
z
M 2181 722 
Q 2541 722 2730 984 
Q 2919 1247 2919 1747 
Q 2919 2247 2730 2509 
Q 2541 2772 2181 2772 
Q 1825 2772 1636 2509 
Q 1447 2247 1447 1747 
Q 1447 1247 1636 984 
Q 1825 722 2181 722 
z
" transform="scale(0.015625)"/>
      <path id="DejaVuSans-Bold-70" d="M 1656 506 
L 1656 -1331 
L 538 -1331 
L 538 3500 
L 1656 3500 
L 1656 2988 
Q 1888 3294 2169 3439 
Q 2450 3584 2816 3584 
Q 3463 3584 3878 3070 
Q 4294 2556 4294 1747 
Q 4294 938 3878 423 
Q 3463 -91 2816 -91 
Q 2450 -91 2169 54 
Q 1888 200 1656 506 
z
M 2400 2772 
Q 2041 2772 1848 2508 
Q 1656 2244 1656 1747 
Q 1656 1250 1848 986 
Q 2041 722 2400 722 
Q 2759 722 2948 984 
Q 3138 1247 3138 1747 
Q 3138 2247 2948 2509 
Q 2759 2772 2400 2772 
z
" transform="scale(0.015625)"/>
      <path id="DejaVuSans-Bold-78" d="M 1422 1791 
L 159 3500 
L 1344 3500 
L 2059 2463 
L 2784 3500 
L 3969 3500 
L 2706 1797 
L 4031 0 
L 2847 0 
L 2059 1106 
L 1281 0 
L 97 0 
L 1422 1791 
z
" transform="scale(0.015625)"/>
     </defs>
     <use xlink:href="#DejaVuSans-Bold-64"/>
     <use xlink:href="#DejaVuSans-Bold-6f" transform="translate(71.582031 0)"/>
     <use xlink:href="#DejaVuSans-Bold-70" transform="translate(140.283203 0)"/>
     <use xlink:href="#DejaVuSans-Bold-6f" transform="translate(211.865234 0)"/>
     <use xlink:href="#DejaVuSans-Bold-20" transform="translate(280.566406 0)"/>
     <use xlink:href="#DejaVuSans-Bold-63" transform="translate(315.380859 0)"/>
     <use xlink:href="#DejaVuSans-Bold-61" transform="translate(374.658203 0)"/>
     <use xlink:href="#DejaVuSans-Bold-72" transform="translate(442.138672 0)"/>
     <use xlink:href="#DejaVuSans-Bold-69" transform="translate(491.455078 0)"/>
     <use xlink:href="#DejaVuSans-Bold-63" transform="translate(525.732422 0)"/>
     <use xlink:href="#DejaVuSans-Bold-6f" transform="translate(585.009766 0)"/>
     <use xlink:href="#DejaVuSans-Bold-20" transform="translate(653.710938 0)"/>
     <use xlink:href="#DejaVuSans-Bold-75" transform="translate(688.525391 0)"/>
     <use xlink:href="#DejaVuSans-Bold-6e" transform="translate(759.716797 0)"/>
     <use xlink:href="#DejaVuSans-Bold-69" transform="translate(830.908203 0)"/>
     <use xlink:href="#DejaVuSans-Bold-61" transform="translate(865.185547 0)"/>
     <use xlink:href="#DejaVuSans-Bold-78" transform="translate(932.666016 0)"/>
     <use xlink:href="#DejaVuSans-Bold-69" transform="translate(997.167969 0)"/>
     <use xlink:href="#DejaVuSans-Bold-61" transform="translate(1031.445312 0)"/>
     <use xlink:href="#DejaVuSans-Bold-6c" transform="translate(1098.925781 0)"/>
     <use xlink:href="#DejaVuSans-Bold-65" transform="translate(1133.203125 0)"/>
    </g>
   </g>
  </g>
  <g id="text_7">
   <!-- Struttura auxetica massa-molla con rapporto di Poisson negativo -->
   <g transform="translate(60.237891 18.597656) scale(0.15 -0.15)">
    <defs>
     <path id="DejaVuSans-Bold-53" d="M 3834 4519 
L 3834 3531 
Q 3450 3703 3084 3790 
Q 2719 3878 2394 3878 
Q 1963 3878 1756 3759 
Q 1550 3641 1550 3391 
Q 1550 3203 1689 3098 
Q 1828 2994 2194 2919 
L 2706 2816 
Q 3484 2659 3812 2340 
Q 4141 2022 4141 1434 
Q 4141 663 3683 286 
Q 3225 -91 2284 -91 
Q 1841 -91 1394 -6 
Q 947 78 500 244 
L 500 1259 
Q 947 1022 1364 901 
Q 1781 781 2169 781 
Q 2563 781 2772 912 
Q 2981 1044 2981 1288 
Q 2981 1506 2839 1625 
Q 2697 1744 2272 1838 
L 1806 1941 
Q 1106 2091 782 2419 
Q 459 2747 459 3303 
Q 459 4000 909 4375 
Q 1359 4750 2203 4750 
Q 2588 4750 2994 4692 
Q 3400 4634 3834 4519 
z
" transform="scale(0.015625)"/>
     <path id="DejaVuSans-Bold-74" d="M 1759 4494 
L 1759 3500 
L 2913 3500 
L 2913 2700 
L 1759 2700 
L 1759 1216 
Q 1759 972 1856 886 
Q 1953 800 2241 800 
L 2816 800 
L 2816 0 
L 1856 0 
Q 1194 0 917 276 
Q 641 553 641 1216 
L 641 2700 
L 84 2700 
L 84 3500 
L 641 3500 
L 641 4494 
L 1759 4494 
z
" transform="scale(0.015625)"/>
     <path id="DejaVuSans-Bold-6d" d="M 3781 2919 
Q 3994 3244 4286 3414 
Q 4578 3584 4928 3584 
Q 5531 3584 5847 3212 
Q 6163 2841 6163 2131 
L 6163 0 
L 5038 0 
L 5038 1825 
Q 5041 1866 5042 1909 
Q 5044 1953 5044 2034 
Q 5044 2406 4934 2573 
Q 4825 2741 4581 2741 
Q 4263 2741 4089 2478 
Q 3916 2216 3909 1719 
L 3909 0 
L 2784 0 
L 2784 1825 
Q 2784 2406 2684 2573 
Q 2584 2741 2328 2741 
Q 2006 2741 1831 2477 
Q 1656 2213 1656 1722 
L 1656 0 
L 531 0 
L 531 3500 
L 1656 3500 
L 1656 2988 
Q 1863 3284 2130 3434 
Q 2397 3584 2719 3584 
Q 3081 3584 3359 3409 
Q 3638 3234 3781 2919 
z
" transform="scale(0.015625)"/>
     <path id="DejaVuSans-Bold-73" d="M 3272 3391 
L 3272 2541 
Q 2913 2691 2578 2766 
Q 2244 2841 1947 2841 
Q 1628 2841 1473 2761 
Q 1319 2681 1319 2516 
Q 1319 2381 1436 2309 
Q 1553 2238 1856 2203 
L 2053 2175 
Q 2913 2066 3209 1816 
Q 3506 1566 3506 1031 
Q 3506 472 3093 190 
Q 2681 -91 1863 -91 
Q 1516 -91 1145 -36 
Q 775 19 384 128 
L 384 978 
Q 719 816 1070 734 
Q 1422 653 1784 653 
Q 2113 653 2278 743 
Q 2444 834 2444 1013 
Q 2444 1163 2330 1236 
Q 2216 1309 1875 1350 
L 1678 1375 
Q 931 1469 631 1722 
Q 331 1975 331 2491 
Q 331 3047 712 3315 
Q 1094 3584 1881 3584 
Q 2191 3584 2531 3537 
Q 2872 3491 3272 3391 
z
" transform="scale(0.015625)"/>
     <path id="DejaVuSans-Bold-2d" d="M 347 2297 
L 2309 2297 
L 2309 1388 
L 347 1388 
L 347 2297 
z
" transform="scale(0.015625)"/>
     <path id="DejaVuSans-Bold-50" d="M 588 4666 
L 2584 4666 
Q 3475 4666 3951 4270 
Q 4428 3875 4428 3144 
Q 4428 2409 3951 2014 
Q 3475 1619 2584 1619 
L 1791 1619 
L 1791 0 
L 588 0 
L 588 4666 
z
M 1791 3794 
L 1791 2491 
L 2456 2491 
Q 2806 2491 2997 2661 
Q 3188 2831 3188 3144 
Q 3188 3456 2997 3625 
Q 2806 3794 2456 3794 
L 1791 3794 
z
" transform="scale(0.015625)"/>
     <path id="DejaVuSans-Bold-76" d="M 97 3500 
L 1216 3500 
L 2088 1081 
L 2956 3500 
L 4078 3500 
L 2700 0 
L 1472 0 
L 97 3500 
z
" transform="scale(0.015625)"/>
    </defs>
    <use xlink:href="#DejaVuSans-Bold-53"/>
    <use xlink:href="#DejaVuSans-Bold-74" transform="translate(72.021484 0)"/>
    <use xlink:href="#DejaVuSans-Bold-72" transform="translate(119.824219 0)"/>
    <use xlink:href="#DejaVuSans-Bold-75" transform="translate(169.140625 0)"/>
    <use xlink:href="#DejaVuSans-Bold-74" transform="translate(240.332031 0)"/>
    <use xlink:href="#DejaVuSans-Bold-74" transform="translate(288.134766 0)"/>
    <use xlink:href="#DejaVuSans-Bold-75" transform="translate(335.9375 0)"/>
    <use xlink:href="#DejaVuSans-Bold-72" transform="translate(407.128906 0)"/>
    <use xlink:href="#DejaVuSans-Bold-61" transform="translate(456.445312 0)"/>
    <use xlink:href="#DejaVuSans-Bold-20" transform="translate(523.925781 0)"/>
    <use xlink:href="#DejaVuSans-Bold-61" transform="translate(558.740234 0)"/>
    <use xlink:href="#DejaVuSans-Bold-75" transform="translate(626.220703 0)"/>
    <use xlink:href="#DejaVuSans-Bold-78" transform="translate(697.412109 0)"/>
    <use xlink:href="#DejaVuSans-Bold-65" transform="translate(761.914062 0)"/>
    <use xlink:href="#DejaVuSans-Bold-74" transform="translate(829.736328 0)"/>
    <use xlink:href="#DejaVuSans-Bold-69" transform="translate(877.539062 0)"/>
    <use xlink:href="#DejaVuSans-Bold-63" transform="translate(911.816406 0)"/>
    <use xlink:href="#DejaVuSans-Bold-61" transform="translate(971.09375 0)"/>
    <use xlink:href="#DejaVuSans-Bold-20" transform="translate(1038.574219 0)"/>
    <use xlink:href="#DejaVuSans-Bold-6d" transform="translate(1073.388672 0)"/>
    <use xlink:href="#DejaVuSans-Bold-61" transform="translate(1177.587891 0)"/>
    <use xlink:href="#DejaVuSans-Bold-73" transform="translate(1245.068359 0)"/>
    <use xlink:href="#DejaVuSans-Bold-73" transform="translate(1304.589844 0)"/>
    <use xlink:href="#DejaVuSans-Bold-61" transform="translate(1364.111328 0)"/>
    <use xlink:href="#DejaVuSans-Bold-2d" transform="translate(1431.591797 0)"/>
    <use xlink:href="#DejaVuSans-Bold-6d" transform="translate(1473.095703 0)"/>
    <use xlink:href="#DejaVuSans-Bold-6f" transform="translate(1577.294922 0)"/>
    <use xlink:href="#DejaVuSans-Bold-6c" transform="translate(1645.996094 0)"/>
    <use xlink:href="#DejaVuSans-Bold-6c" transform="translate(1680.273438 0)"/>
    <use xlink:href="#DejaVuSans-Bold-61" transform="translate(1714.550781 0)"/>
    <use xlink:href="#DejaVuSans-Bold-20" transform="translate(1782.03125 0)"/>
    <use xlink:href="#DejaVuSans-Bold-63" transform="translate(1816.845703 0)"/>
    <use xlink:href="#DejaVuSans-Bold-6f" transform="translate(1876.123047 0)"/>
    <use xlink:href="#DejaVuSans-Bold-6e" transform="translate(1944.824219 0)"/>
    <use xlink:href="#DejaVuSans-Bold-20" transform="translate(2016.015625 0)"/>
    <use xlink:href="#DejaVuSans-Bold-72" transform="translate(2050.830078 0)"/>
    <use xlink:href="#DejaVuSans-Bold-61" transform="translate(2100.146484 0)"/>
    <use xlink:href="#DejaVuSans-Bold-70" transform="translate(2167.626953 0)"/>
    <use xlink:href="#DejaVuSans-Bold-70" transform="translate(2239.208984 0)"/>
    <use xlink:href="#DejaVuSans-Bold-6f" transform="translate(2310.791016 0)"/>
    <use xlink:href="#DejaVuSans-Bold-72" transform="translate(2379.492188 0)"/>
    <use xlink:href="#DejaVuSans-Bold-74" transform="translate(2428.808594 0)"/>
    <use xlink:href="#DejaVuSans-Bold-6f" transform="translate(2476.611328 0)"/>
    <use xlink:href="#DejaVuSans-Bold-20" transform="translate(2545.3125 0)"/>
    <use xlink:href="#DejaVuSans-Bold-64" transform="translate(2580.126953 0)"/>
    <use xlink:href="#DejaVuSans-Bold-69" transform="translate(2651.708984 0)"/>
    <use xlink:href="#DejaVuSans-Bold-20" transform="translate(2685.986328 0)"/>
    <use xlink:href="#DejaVuSans-Bold-50" transform="translate(2720.800781 0)"/>
    <use xlink:href="#DejaVuSans-Bold-6f" transform="translate(2794.091797 0)"/>
    <use xlink:href="#DejaVuSans-Bold-69" transform="translate(2862.792969 0)"/>
    <use xlink:href="#DejaVuSans-Bold-73" transform="translate(2897.070312 0)"/>
    <use xlink:href="#DejaVuSans-Bold-73" transform="translate(2956.591797 0)"/>
    <use xlink:href="#DejaVuSans-Bold-6f" transform="translate(3016.113281 0)"/>
    <use xlink:href="#DejaVuSans-Bold-6e" transform="translate(3084.814453 0)"/>
    <use xlink:href="#DejaVuSans-Bold-20" transform="translate(3156.005859 0)"/>
    <use xlink:href="#DejaVuSans-Bold-6e" transform="translate(3190.820312 0)"/>
    <use xlink:href="#DejaVuSans-Bold-65" transform="translate(3262.011719 0)"/>
    <use xlink:href="#DejaVuSans-Bold-67" transform="translate(3329.833984 0)"/>
    <use xlink:href="#DejaVuSans-Bold-61" transform="translate(3401.416016 0)"/>
    <use xlink:href="#DejaVuSans-Bold-74" transform="translate(3468.896484 0)"/>
    <use xlink:href="#DejaVuSans-Bold-69" transform="translate(3516.699219 0)"/>
    <use xlink:href="#DejaVuSans-Bold-76" transform="translate(3550.976562 0)"/>
    <use xlink:href="#DejaVuSans-Bold-6f" transform="translate(3616.162109 0)"/>
   </g>
  </g>
  <g id="text_8">
   <!-- La geometria rientrante trasforma un allungamento longitudinale in un'espansione trasversale. -->
   <g transform="translate(97.724219 422.244) scale(0.1 -0.1)">
    <defs>
     <path id="DejaVuSans-4c" d="M 628 4666 
L 1259 4666 
L 1259 531 
L 3531 531 
L 3531 0 
L 628 0 
L 628 4666 
z
" transform="scale(0.015625)"/>
     <path id="DejaVuSans-67" d="M 2906 1791 
Q 2906 2416 2648 2759 
Q 2391 3103 1925 3103 
Q 1463 3103 1205 2759 
Q 947 2416 947 1791 
Q 947 1169 1205 825 
Q 1463 481 1925 481 
Q 2391 481 2648 825 
Q 2906 1169 2906 1791 
z
M 3481 434 
Q 3481 -459 3084 -895 
Q 2688 -1331 1869 -1331 
Q 1566 -1331 1297 -1286 
Q 1028 -1241 775 -1147 
L 775 -588 
Q 1028 -725 1275 -790 
Q 1522 -856 1778 -856 
Q 2344 -856 2625 -561 
Q 2906 -266 2906 331 
L 2906 616 
Q 2728 306 2450 153 
Q 2172 0 1784 0 
Q 1141 0 747 490 
Q 353 981 353 1791 
Q 353 2603 747 3093 
Q 1141 3584 1784 3584 
Q 2172 3584 2450 3431 
Q 2728 3278 2906 2969 
L 2906 3500 
L 3481 3500 
L 3481 434 
z
" transform="scale(0.015625)"/>
     <path id="DejaVuSans-6d" d="M 3328 2828 
Q 3544 3216 3844 3400 
Q 4144 3584 4550 3584 
Q 5097 3584 5394 3201 
Q 5691 2819 5691 2113 
L 5691 0 
L 5113 0 
L 5113 2094 
Q 5113 2597 4934 2840 
Q 4756 3084 4391 3084 
Q 3944 3084 3684 2787 
Q 3425 2491 3425 1978 
L 3425 0 
L 2847 0 
L 2847 2094 
Q 2847 2600 2669 2842 
Q 2491 3084 2119 3084 
Q 1678 3084 1418 2786 
Q 1159 2488 1159 1978 
L 1159 0 
L 581 0 
L 581 3500 
L 1159 3500 
L 1159 2956 
Q 1356 3278 1631 3431 
Q 1906 3584 2284 3584 
Q 2666 3584 2933 3390 
Q 3200 3197 3328 2828 
z
" transform="scale(0.015625)"/>
     <path id="DejaVuSans-66" d="M 2375 4863 
L 2375 4384 
L 1825 4384 
Q 1516 4384 1395 4259 
Q 1275 4134 1275 3809 
L 1275 3500 
L 2222 3500 
L 2222 3053 
L 1275 3053 
L 1275 0 
L 697 0 
L 697 3053 
L 147 3053 
L 147 3500 
L 697 3500 
L 697 3744 
Q 697 4328 969 4595 
Q 1241 4863 1831 4863 
L 2375 4863 
z
" transform="scale(0.015625)"/>
     <path id="DejaVuSans-75" d="M 544 1381 
L 544 3500 
L 1119 3500 
L 1119 1403 
Q 1119 906 1312 657 
Q 1506 409 1894 409 
Q 2359 409 2629 706 
Q 2900 1003 2900 1516 
L 2900 3500 
L 3475 3500 
L 3475 0 
L 2900 0 
L 2900 538 
Q 2691 219 2414 64 
Q 2138 -91 1772 -91 
Q 1169 -91 856 284 
Q 544 659 544 1381 
z
M 1991 3584 
L 1991 3584 
z
" transform="scale(0.015625)"/>
     <path id="DejaVuSans-64" d="M 2906 2969 
L 2906 4863 
L 3481 4863 
L 3481 0 
L 2906 0 
L 2906 525 
Q 2725 213 2448 61 
Q 2172 -91 1784 -91 
Q 1150 -91 751 415 
Q 353 922 353 1747 
Q 353 2572 751 3078 
Q 1150 3584 1784 3584 
Q 2172 3584 2448 3432 
Q 2725 3281 2906 2969 
z
M 947 1747 
Q 947 1113 1208 752 
Q 1469 391 1925 391 
Q 2381 391 2643 752 
Q 2906 1113 2906 1747 
Q 2906 2381 2643 2742 
Q 2381 3103 1925 3103 
Q 1469 3103 1208 2742 
Q 947 2381 947 1747 
z
" transform="scale(0.015625)"/>
     <path id="DejaVuSans-27" d="M 1147 4666 
L 1147 2931 
L 616 2931 
L 616 4666 
L 1147 4666 
z
" transform="scale(0.015625)"/>
     <path id="DejaVuSans-2e" d="M 684 794 
L 1344 794 
L 1344 0 
L 684 0 
L 684 794 
z
" transform="scale(0.015625)"/>
    </defs>
    <use xlink:href="#DejaVuSans-4c"/>
    <use xlink:href="#DejaVuSans-61" transform="translate(55.712891 0)"/>
    <use xlink:href="#DejaVuSans-20" transform="translate(116.992188 0)"/>
    <use xlink:href="#DejaVuSans-67" transform="translate(148.779297 0)"/>
    <use xlink:href="#DejaVuSans-65" transform="translate(212.255859 0)"/>
    <use xlink:href="#DejaVuSans-6f" transform="translate(273.779297 0)"/>
    <use xlink:href="#DejaVuSans-6d" transform="translate(334.960938 0)"/>
    <use xlink:href="#DejaVuSans-65" transform="translate(432.373047 0)"/>
    <use xlink:href="#DejaVuSans-74" transform="translate(493.896484 0)"/>
    <use xlink:href="#DejaVuSans-72" transform="translate(533.105469 0)"/>
    <use xlink:href="#DejaVuSans-69" transform="translate(574.21875 0)"/>
    <use xlink:href="#DejaVuSans-61" transform="translate(602.001953 0)"/>
    <use xlink:href="#DejaVuSans-20" transform="translate(663.28125 0)"/>
    <use xlink:href="#DejaVuSans-72" transform="translate(695.068359 0)"/>
    <use xlink:href="#DejaVuSans-69" transform="translate(736.181641 0)"/>
    <use xlink:href="#DejaVuSans-65" transform="translate(763.964844 0)"/>
    <use xlink:href="#DejaVuSans-6e" transform="translate(825.488281 0)"/>
    <use xlink:href="#DejaVuSans-74" transform="translate(888.867188 0)"/>
    <use xlink:href="#DejaVuSans-72" transform="translate(928.076172 0)"/>
    <use xlink:href="#DejaVuSans-61" transform="translate(969.189453 0)"/>
    <use xlink:href="#DejaVuSans-6e" transform="translate(1030.46875 0)"/>
    <use xlink:href="#DejaVuSans-74" transform="translate(1093.847656 0)"/>
    <use xlink:href="#DejaVuSans-65" transform="translate(1133.056641 0)"/>
    <use xlink:href="#DejaVuSans-20" transform="translate(1194.580078 0)"/>
    <use xlink:href="#DejaVuSans-74" transform="translate(1226.367188 0)"/>
    <use xlink:href="#DejaVuSans-72" transform="translate(1265.576172 0)"/>
    <use xlink:href="#DejaVuSans-61" transform="translate(1306.689453 0)"/>
    <use xlink:href="#DejaVuSans-73" transform="translate(1367.96875 0)"/>
    <use xlink:href="#DejaVuSans-66" transform="translate(1420.068359 0)"/>
    <use xlink:href="#DejaVuSans-6f" transform="translate(1455.273438 0)"/>
    <use xlink:href="#DejaVuSans-72" transform="translate(1516.455078 0)"/>
    <use xlink:href="#DejaVuSans-6d" transform="translate(1555.818359 0)"/>
    <use xlink:href="#DejaVuSans-61" transform="translate(1653.230469 0)"/>
    <use xlink:href="#DejaVuSans-20" transform="translate(1714.509766 0)"/>
    <use xlink:href="#DejaVuSans-75" transform="translate(1746.296875 0)"/>
    <use xlink:href="#DejaVuSans-6e" transform="translate(1809.675781 0)"/>
    <use xlink:href="#DejaVuSans-20" transform="translate(1873.054688 0)"/>
    <use xlink:href="#DejaVuSans-61" transform="translate(1904.841797 0)"/>
    <use xlink:href="#DejaVuSans-6c" transform="translate(1966.121094 0)"/>
    <use xlink:href="#DejaVuSans-6c" transform="translate(1993.904297 0)"/>
    <use xlink:href="#DejaVuSans-75" transform="translate(2021.6875 0)"/>
    <use xlink:href="#DejaVuSans-6e" transform="translate(2085.066406 0)"/>
    <use xlink:href="#DejaVuSans-67" transform="translate(2148.445312 0)"/>
    <use xlink:href="#DejaVuSans-61" transform="translate(2211.921875 0)"/>
    <use xlink:href="#DejaVuSans-6d" transform="translate(2273.201172 0)"/>
    <use xlink:href="#DejaVuSans-65" transform="translate(2370.613281 0)"/>
    <use xlink:href="#DejaVuSans-6e" transform="translate(2432.136719 0)"/>
    <use xlink:href="#DejaVuSans-74" transform="translate(2495.515625 0)"/>
    <use xlink:href="#DejaVuSans-6f" transform="translate(2534.724609 0)"/>
    <use xlink:href="#DejaVuSans-20" transform="translate(2595.90625 0)"/>
    <use xlink:href="#DejaVuSans-6c" transform="translate(2627.693359 0)"/>
    <use xlink:href="#DejaVuSans-6f" transform="translate(2655.476562 0)"/>
    <use xlink:href="#DejaVuSans-6e" transform="translate(2716.658203 0)"/>
    <use xlink:href="#DejaVuSans-67" transform="translate(2780.037109 0)"/>
    <use xlink:href="#DejaVuSans-69" transform="translate(2843.513672 0)"/>
    <use xlink:href="#DejaVuSans-74" transform="translate(2871.296875 0)"/>
    <use xlink:href="#DejaVuSans-75" transform="translate(2910.505859 0)"/>
    <use xlink:href="#DejaVuSans-64" transform="translate(2973.884766 0)"/>
    <use xlink:href="#DejaVuSans-69" transform="translate(3037.361328 0)"/>
    <use xlink:href="#DejaVuSans-6e" transform="translate(3065.144531 0)"/>
    <use xlink:href="#DejaVuSans-61" transform="translate(3128.523438 0)"/>
    <use xlink:href="#DejaVuSans-6c" transform="translate(3189.802734 0)"/>
    <use xlink:href="#DejaVuSans-65" transform="translate(3217.585938 0)"/>
    <use xlink:href="#DejaVuSans-20" transform="translate(3279.109375 0)"/>
    <use xlink:href="#DejaVuSans-69" transform="translate(3310.896484 0)"/>
    <use xlink:href="#DejaVuSans-6e" transform="translate(3338.679688 0)"/>
    <use xlink:href="#DejaVuSans-20" transform="translate(3402.058594 0)"/>
    <use xlink:href="#DejaVuSans-75" transform="translate(3433.845703 0)"/>
    <use xlink:href="#DejaVuSans-6e" transform="translate(3497.224609 0)"/>
    <use xlink:href="#DejaVuSans-27" transform="translate(3560.603516 0)"/>
    <use xlink:href="#DejaVuSans-65" transform="translate(3588.09375 0)"/>
    <use xlink:href="#DejaVuSans-73" transform="translate(3649.617188 0)"/>
    <use xlink:href="#DejaVuSans-70" transform="translate(3701.716797 0)"/>
    <use xlink:href="#DejaVuSans-61" transform="translate(3765.193359 0)"/>
    <use xlink:href="#DejaVuSans-6e" transform="translate(3826.472656 0)"/>
    <use xlink:href="#DejaVuSans-73" transform="translate(3889.851562 0)"/>
    <use xlink:href="#DejaVuSans-69" transform="translate(3941.951172 0)"/>
    <use xlink:href="#DejaVuSans-6f" transform="translate(3969.734375 0)"/>
    <use xlink:href="#DejaVuSans-6e" transform="translate(4030.916016 0)"/>
    <use xlink:href="#DejaVuSans-65" transform="translate(4094.294922 0)"/>
    <use xlink:href="#DejaVuSans-20" transform="translate(4155.818359 0)"/>
    <use xlink:href="#DejaVuSans-74" transform="translate(4187.605469 0)"/>
    <use xlink:href="#DejaVuSans-72" transform="translate(4226.814453 0)"/>
    <use xlink:href="#DejaVuSans-61" transform="translate(4267.927734 0)"/>
    <use xlink:href="#DejaVuSans-73" transform="translate(4329.207031 0)"/>
    <use xlink:href="#DejaVuSans-76" transform="translate(4381.306641 0)"/>
    <use xlink:href="#DejaVuSans-65" transform="translate(4440.486328 0)"/>
    <use xlink:href="#DejaVuSans-72" transform="translate(4502.009766 0)"/>
    <use xlink:href="#DejaVuSans-73" transform="translate(4543.123047 0)"/>
    <use xlink:href="#DejaVuSans-61" transform="translate(4595.222656 0)"/>
    <use xlink:href="#DejaVuSans-6c" transform="translate(4656.501953 0)"/>
    <use xlink:href="#DejaVuSans-65" transform="translate(4684.285156 0)"/>
    <use xlink:href="#DejaVuSans-2e" transform="translate(4745.808594 0)"/>
   </g>
  </g>
 </g>
 <defs>
  <clipPath id="p4f03df37d5">
   <rect x="7.2" y="73.176742" width="309.436364" height="294.070517"/>
  </clipPath>
  <clipPath id="pf84b261894">
   <rect x="378.523636" y="77.577519" width="309.436364" height="285.268962"/>
  </clipPath>
 </defs>
</svg>
