<?xml version="1.0" encoding="utf-8" standalone="no"?>
<!DOCTYPE svg PUBLIC "-//W3C//DTD SVG 1.1//EN"
  "http://www.w3.org/Graphics/SVG/1.1/DTD/svg11.dtd">
<svg xmlns:xlink="http://www.w3.org/1999/xlink" width="817.92pt" height="519.448pt" viewBox="0 0 817.92 519.448" xmlns="http://www.w3.org/2000/svg" version="1.1">
 <metadata>
  <rdf:RDF xmlns:dc="http://purl.org/dc/elements/1.1/" xmlns:cc="http://creativecommons.org/ns#" xmlns:rdf="http://www.w3.org/1999/02/22-rdf-syntax-ns#">
   <cc:Work>
    <dc:type rdf:resource="http://purl.org/dc/dcmitype/StillImage"/>
    <dc:date>2026-06-16T11:04:11.492055</dc:date>
    <dc:format>image/svg+xml</dc:format>
    <dc:creator>
     <cc:Agent>
      <dc:title>Matplotlib v3.10.8, https://matplotlib.org/</dc:title>
     </cc:Agent>
    </dc:creator>
   </cc:Work>
  </rdf:RDF>
 </metadata>
 <defs>
  <style type="text/css">*{stroke-linejoin: round; stroke-linecap: butt}</style>
 </defs>
 <g id="figure_1">
  <g id="patch_1">
   <path d="M 0 519.448 
L 817.92 519.448 
L 817.92 0 
L 0 0 
z
" style="fill: #ffffff"/>
  </g>
  <g id="patch_2">
   <path d="M 7.2 444.734182 
L 372.436364 444.734182 
L 372.436364 79.497818 
L 7.2 79.497818 
z
" style="fill: #ffffff"/>
  </g>
  <g id="axes_1">
   <g id="Line3DCollection_1">
    <path d="M 192.970259 286.756588 
L 93.715433 329.542198 
" clip-path="url(#p51d26e2971)" style="fill: none; stroke: #1f77b4; stroke-width: 1.5"/>
    <path d="M 192.970259 286.756588 
L 174.592657 301.621639 
" clip-path="url(#p51d26e2971)" style="fill: none; stroke: #1f77b4; stroke-width: 1.5"/>
    <path d="M 192.970259 286.756588 
L 174.534859 287.740552 
" clip-path="url(#p51d26e2971)" style="fill: none; stroke: #1f77b4; stroke-width: 1.5"/>
   </g>
   <g id="text_1">
    <!-- 3 -->
    <g transform="translate(162.457982 330.758909) scale(0.1 -0.1)">
     <defs>
      <path id="DejaVuSans-Bold-33" d="M 2981 2516 
Q 3453 2394 3698 2092 
Q 3944 1791 3944 1325 
Q 3944 631 3412 270 
Q 2881 -91 1863 -91 
Q 1503 -91 1142 -33 
Q 781 25 428 141 
L 428 1069 
Q 766 900 1098 814 
Q 1431 728 1753 728 
Q 2231 728 2486 893 
Q 2741 1059 2741 1369 
Q 2741 1688 2480 1852 
Q 2219 2016 1709 2016 
L 1228 2016 
L 1228 2791 
L 1734 2791 
Q 2188 2791 2409 2933 
Q 2631 3075 2631 3366 
Q 2631 3634 2415 3781 
Q 2200 3928 1806 3928 
Q 1516 3928 1219 3862 
Q 922 3797 628 3669 
L 628 4550 
Q 984 4650 1334 4700 
Q 1684 4750 2022 4750 
Q 2931 4750 3382 4451 
Q 3834 4153 3834 3553 
Q 3834 3144 3618 2883 
Q 3403 2622 2981 2516 
z
" transform="scale(0.015625)"/>
     </defs>
     <use xlink:href="#DejaVuSans-Bold-33"/>
    </g>
   </g>
   <g id="text_2">
    <!-- 3 -->
    <g transform="translate(161.874963 233.329953) scale(0.1 -0.1)">
     <use xlink:href="#DejaVuSans-Bold-33"/>
    </g>
   </g>
   <g id="text_3">
    <!-- 2 -->
    <g transform="translate(126.529969 297.551775) scale(0.1 -0.1)">
     <defs>
      <path id="DejaVuSans-Bold-32" d="M 1844 884 
L 3897 884 
L 3897 0 
L 506 0 
L 506 884 
L 2209 2388 
Q 2438 2594 2547 2791 
Q 2656 2988 2656 3200 
Q 2656 3528 2436 3728 
Q 2216 3928 1850 3928 
Q 1569 3928 1234 3808 
Q 900 3688 519 3450 
L 519 4475 
Q 925 4609 1322 4679 
Q 1719 4750 2100 4750 
Q 2938 4750 3402 4381 
Q 3866 4013 3866 3353 
Q 3866 2972 3669 2642 
Q 3472 2313 2841 1759 
L 1844 884 
z
" transform="scale(0.015625)"/>
     </defs>
     <use xlink:href="#DejaVuSans-Bold-32"/>
    </g>
   </g>
   <g id="text_4">
    <!-- 2 -->
    <g transform="translate(196.549735 268.043414) scale(0.1 -0.1)">
     <use xlink:href="#DejaVuSans-Bold-32"/>
    </g>
   </g>
   <g id="text_5">
    <!-- 1 -->
    <g transform="translate(200.609102 296.031276) scale(0.1 -0.1)">
     <defs>
      <path id="DejaVuSans-Bold-31" d="M 750 831 
L 1813 831 
L 1813 3847 
L 722 3622 
L 722 4441 
L 1806 4666 
L 2950 4666 
L 2950 831 
L 4013 831 
L 4013 0 
L 750 0 
L 750 831 
z
" transform="scale(0.015625)"/>
     </defs>
     <use xlink:href="#DejaVuSans-Bold-31"/>
    </g>
   </g>
   <g id="text_6">
    <!-- 1 -->
    <g transform="translate(124.954594 269.463456) scale(0.1 -0.1)">
     <use xlink:href="#DejaVuSans-Bold-31"/>
    </g>
   </g>
   <g id="text_7">
    <!-- 4 -->
    <g transform="translate(120.96873 223.785165) scale(0.09 -0.09)">
     <defs>
      <path id="DejaVuSans-34" d="M 2419 4116 
L 825 1625 
L 2419 1625 
L 2419 4116 
z
M 2253 4666 
L 3047 4666 
L 3047 1625 
L 3713 1625 
L 3713 1100 
L 3047 1100 
L 3047 0 
L 2419 0 
L 2419 1100 
L 313 1100 
L 313 1709 
L 2253 4666 
z
" transform="scale(0.015625)"/>
     </defs>
     <use xlink:href="#DejaVuSans-34"/>
    </g>
   </g>
   <g id="text_8">
    <!-- 5 -->
    <g transform="translate(187.433491 262.804235) scale(0.09 -0.09)">
     <defs>
      <path id="DejaVuSans-35" d="M 691 4666 
L 3169 4666 
L 3169 4134 
L 1269 4134 
L 1269 2991 
Q 1406 3038 1543 3061 
Q 1681 3084 1819 3084 
Q 2600 3084 3056 2656 
Q 3513 2228 3513 1497 
Q 3513 744 3044 326 
Q 2575 -91 1722 -91 
Q 1428 -91 1123 -41 
Q 819 9 494 109 
L 494 744 
Q 775 591 1075 516 
Q 1375 441 1709 441 
Q 2250 441 2565 725 
Q 2881 1009 2881 1497 
Q 2881 1984 2565 2268 
Q 2250 2553 1709 2553 
Q 1456 2553 1204 2497 
Q 953 2441 691 2322 
L 691 4666 
z
" transform="scale(0.015625)"/>
     </defs>
     <use xlink:href="#DejaVuSans-35"/>
    </g>
   </g>
   <g id="text_9">
    <!-- 6 -->
    <g transform="translate(230.575189 309.659535) scale(0.09 -0.09)">
     <defs>
      <path id="DejaVuSans-36" d="M 2113 2584 
Q 1688 2584 1439 2293 
Q 1191 2003 1191 1497 
Q 1191 994 1439 701 
Q 1688 409 2113 409 
Q 2538 409 2786 701 
Q 3034 994 3034 1497 
Q 3034 2003 2786 2293 
Q 2538 2584 2113 2584 
z
M 3366 4563 
L 3366 3988 
Q 3128 4100 2886 4159 
Q 2644 4219 2406 4219 
Q 1781 4219 1451 3797 
Q 1122 3375 1075 2522 
Q 1259 2794 1537 2939 
Q 1816 3084 2150 3084 
Q 2853 3084 3261 2657 
Q 3669 2231 3669 1497 
Q 3669 778 3244 343 
Q 2819 -91 2113 -91 
Q 1303 -91 875 529 
Q 447 1150 447 2328 
Q 447 3434 972 4092 
Q 1497 4750 2381 4750 
Q 2619 4750 2861 4703 
Q 3103 4656 3366 4563 
z
" transform="scale(0.015625)"/>
     </defs>
     <use xlink:href="#DejaVuSans-36"/>
    </g>
   </g>
   <g id="text_10">
    <!-- $x_1$ -->
    <g transform="translate(210.706765 374.503916) scale(0.085 -0.085)">
     <defs>
      <path id="DejaVuSans-Oblique-78" d="M 3841 3500 
L 2234 1784 
L 3219 0 
L 2559 0 
L 1819 1388 
L 531 0 
L -166 0 
L 1556 1844 
L 641 3500 
L 1300 3500 
L 1972 2234 
L 3144 3500 
L 3841 3500 
z
" transform="scale(0.015625)"/>
      <path id="DejaVuSans-31" d="M 794 531 
L 1825 531 
L 1825 4091 
L 703 3866 
L 703 4441 
L 1819 4666 
L 2450 4666 
L 2450 531 
L 3481 531 
L 3481 0 
L 794 0 
L 794 531 
z
" transform="scale(0.015625)"/>
     </defs>
     <use xlink:href="#DejaVuSans-Oblique-78" transform="translate(0 0.3125)"/>
     <use xlink:href="#DejaVuSans-31" transform="translate(59.179688 -16.09375) scale(0.7)"/>
    </g>
   </g>
   <g id="text_11">
    <!-- $x_2$ -->
    <g transform="translate(198.162992 284.518166) scale(0.085 -0.085)">
     <defs>
      <path id="DejaVuSans-32" d="M 1228 531 
L 3431 531 
L 3431 0 
L 469 0 
L 469 531 
Q 828 903 1448 1529 
Q 2069 2156 2228 2338 
Q 2531 2678 2651 2914 
Q 2772 3150 2772 3378 
Q 2772 3750 2511 3984 
Q 2250 4219 1831 4219 
Q 1534 4219 1204 4116 
Q 875 4013 500 3803 
L 500 4441 
Q 881 4594 1212 4672 
Q 1544 4750 1819 4750 
Q 2544 4750 2975 4387 
Q 3406 4025 3406 3419 
Q 3406 3131 3298 2873 
Q 3191 2616 2906 2266 
Q 2828 2175 2409 1742 
Q 1991 1309 1228 531 
z
" transform="scale(0.015625)"/>
     </defs>
     <use xlink:href="#DejaVuSans-Oblique-78" transform="translate(0 0.3125)"/>
     <use xlink:href="#DejaVuSans-32" transform="translate(59.179688 -16.09375) scale(0.7)"/>
    </g>
   </g>
   <g id="text_12">
    <!-- $x_3$ -->
    <g transform="translate(90.548124 178.632463) scale(0.085 -0.085)">
     <defs>
      <path id="DejaVuSans-33" d="M 2597 2516 
Q 3050 2419 3304 2112 
Q 3559 1806 3559 1356 
Q 3559 666 3084 287 
Q 2609 -91 1734 -91 
Q 1441 -91 1130 -33 
Q 819 25 488 141 
L 488 750 
Q 750 597 1062 519 
Q 1375 441 1716 441 
Q 2309 441 2620 675 
Q 2931 909 2931 1356 
Q 2931 1769 2642 2001 
Q 2353 2234 1838 2234 
L 1294 2234 
L 1294 2753 
L 1863 2753 
Q 2328 2753 2575 2939 
Q 2822 3125 2822 3475 
Q 2822 3834 2567 4026 
Q 2313 4219 1838 4219 
Q 1578 4219 1281 4162 
Q 984 4106 628 3988 
L 628 4550 
Q 988 4650 1302 4700 
Q 1616 4750 1894 4750 
Q 2613 4750 3031 4423 
Q 3450 4097 3450 3541 
Q 3450 3153 3228 2886 
Q 3006 2619 2597 2516 
z
" transform="scale(0.015625)"/>
     </defs>
     <use xlink:href="#DejaVuSans-Oblique-78" transform="translate(0 0.3125)"/>
     <use xlink:href="#DejaVuSans-33" transform="translate(59.179688 -16.09375) scale(0.7)"/>
    </g>
   </g>
   <g id="text_13">
    <!-- notazione di Voigt sulle facce -->
    <g transform="translate(94.414002 73.497818) scale(0.115 -0.115)">
     <defs>
      <path id="DejaVuSans-Bold-6e" d="M 4056 2131 
L 4056 0 
L 2931 0 
L 2931 347 
L 2931 1631 
Q 2931 2084 2911 2256 
Q 2891 2428 2841 2509 
Q 2775 2619 2662 2680 
Q 2550 2741 2406 2741 
Q 2056 2741 1856 2470 
Q 1656 2200 1656 1722 
L 1656 0 
L 538 0 
L 538 3500 
L 1656 3500 
L 1656 2988 
Q 1909 3294 2193 3439 
Q 2478 3584 2822 3584 
Q 3428 3584 3742 3212 
Q 4056 2841 4056 2131 
z
" transform="scale(0.015625)"/>
      <path id="DejaVuSans-Bold-6f" d="M 2203 2784 
Q 1831 2784 1636 2517 
Q 1441 2250 1441 1747 
Q 1441 1244 1636 976 
Q 1831 709 2203 709 
Q 2569 709 2762 976 
Q 2956 1244 2956 1747 
Q 2956 2250 2762 2517 
Q 2569 2784 2203 2784 
z
M 2203 3584 
Q 3106 3584 3614 3096 
Q 4122 2609 4122 1747 
Q 4122 884 3614 396 
Q 3106 -91 2203 -91 
Q 1297 -91 786 396 
Q 275 884 275 1747 
Q 275 2609 786 3096 
Q 1297 3584 2203 3584 
z
" transform="scale(0.015625)"/>
      <path id="DejaVuSans-Bold-74" d="M 1759 4494 
L 1759 3500 
L 2913 3500 
L 2913 2700 
L 1759 2700 
L 1759 1216 
Q 1759 972 1856 886 
Q 1953 800 2241 800 
L 2816 800 
L 2816 0 
L 1856 0 
Q 1194 0 917 276 
Q 641 553 641 1216 
L 641 2700 
L 84 2700 
L 84 3500 
L 641 3500 
L 641 4494 
L 1759 4494 
z
" transform="scale(0.015625)"/>
      <path id="DejaVuSans-Bold-61" d="M 2106 1575 
Q 1756 1575 1579 1456 
Q 1403 1338 1403 1106 
Q 1403 894 1545 773 
Q 1688 653 1941 653 
Q 2256 653 2472 879 
Q 2688 1106 2688 1447 
L 2688 1575 
L 2106 1575 
z
M 3816 1997 
L 3816 0 
L 2688 0 
L 2688 519 
Q 2463 200 2181 54 
Q 1900 -91 1497 -91 
Q 953 -91 614 226 
Q 275 544 275 1050 
Q 275 1666 698 1953 
Q 1122 2241 2028 2241 
L 2688 2241 
L 2688 2328 
Q 2688 2594 2478 2717 
Q 2269 2841 1825 2841 
Q 1466 2841 1156 2769 
Q 847 2697 581 2553 
L 581 3406 
Q 941 3494 1303 3539 
Q 1666 3584 2028 3584 
Q 2975 3584 3395 3211 
Q 3816 2838 3816 1997 
z
" transform="scale(0.015625)"/>
      <path id="DejaVuSans-Bold-7a" d="M 366 3500 
L 3419 3500 
L 3419 2719 
L 1575 800 
L 3419 800 
L 3419 0 
L 288 0 
L 288 781 
L 2131 2700 
L 366 2700 
L 366 3500 
z
" transform="scale(0.015625)"/>
      <path id="DejaVuSans-Bold-69" d="M 538 3500 
L 1656 3500 
L 1656 0 
L 538 0 
L 538 3500 
z
M 538 4863 
L 1656 4863 
L 1656 3950 
L 538 3950 
L 538 4863 
z
" transform="scale(0.015625)"/>
      <path id="DejaVuSans-Bold-65" d="M 4031 1759 
L 4031 1441 
L 1416 1441 
Q 1456 1047 1700 850 
Q 1944 653 2381 653 
Q 2734 653 3104 758 
Q 3475 863 3866 1075 
L 3866 213 
Q 3469 63 3072 -14 
Q 2675 -91 2278 -91 
Q 1328 -91 801 392 
Q 275 875 275 1747 
Q 275 2603 792 3093 
Q 1309 3584 2216 3584 
Q 3041 3584 3536 3087 
Q 4031 2591 4031 1759 
z
M 2881 2131 
Q 2881 2450 2695 2645 
Q 2509 2841 2209 2841 
Q 1884 2841 1681 2658 
Q 1478 2475 1428 2131 
L 2881 2131 
z
" transform="scale(0.015625)"/>
      <path id="DejaVuSans-Bold-20" transform="scale(0.015625)"/>
      <path id="DejaVuSans-Bold-64" d="M 2919 2988 
L 2919 4863 
L 4044 4863 
L 4044 0 
L 2919 0 
L 2919 506 
Q 2688 197 2409 53 
Q 2131 -91 1766 -91 
Q 1119 -91 703 423 
Q 288 938 288 1747 
Q 288 2556 703 3070 
Q 1119 3584 1766 3584 
Q 2128 3584 2408 3439 
Q 2688 3294 2919 2988 
z
M 2181 722 
Q 2541 722 2730 984 
Q 2919 1247 2919 1747 
Q 2919 2247 2730 2509 
Q 2541 2772 2181 2772 
Q 1825 2772 1636 2509 
Q 1447 2247 1447 1747 
Q 1447 1247 1636 984 
Q 1825 722 2181 722 
z
" transform="scale(0.015625)"/>
      <path id="DejaVuSans-Bold-56" d="M 31 4666 
L 1241 4666 
L 2478 1222 
L 3713 4666 
L 4922 4666 
L 3194 0 
L 1759 0 
L 31 4666 
z
" transform="scale(0.015625)"/>
      <path id="DejaVuSans-Bold-67" d="M 2919 594 
Q 2688 288 2409 144 
Q 2131 0 1766 0 
Q 1125 0 706 504 
Q 288 1009 288 1791 
Q 288 2575 706 3076 
Q 1125 3578 1766 3578 
Q 2131 3578 2409 3434 
Q 2688 3291 2919 2981 
L 2919 3500 
L 4044 3500 
L 4044 353 
Q 4044 -491 3511 -936 
Q 2978 -1381 1966 -1381 
Q 1638 -1381 1331 -1331 
Q 1025 -1281 716 -1178 
L 716 -306 
Q 1009 -475 1290 -558 
Q 1572 -641 1856 -641 
Q 2406 -641 2662 -400 
Q 2919 -159 2919 353 
L 2919 594 
z
M 2181 2772 
Q 1834 2772 1640 2515 
Q 1447 2259 1447 1791 
Q 1447 1309 1634 1061 
Q 1822 813 2181 813 
Q 2531 813 2725 1069 
Q 2919 1325 2919 1791 
Q 2919 2259 2725 2515 
Q 2531 2772 2181 2772 
z
" transform="scale(0.015625)"/>
      <path id="DejaVuSans-Bold-73" d="M 3272 3391 
L 3272 2541 
Q 2913 2691 2578 2766 
Q 2244 2841 1947 2841 
Q 1628 2841 1473 2761 
Q 1319 2681 1319 2516 
Q 1319 2381 1436 2309 
Q 1553 2238 1856 2203 
L 2053 2175 
Q 2913 2066 3209 1816 
Q 3506 1566 3506 1031 
Q 3506 472 3093 190 
Q 2681 -91 1863 -91 
Q 1516 -91 1145 -36 
Q 775 19 384 128 
L 384 978 
Q 719 816 1070 734 
Q 1422 653 1784 653 
Q 2113 653 2278 743 
Q 2444 834 2444 1013 
Q 2444 1163 2330 1236 
Q 2216 1309 1875 1350 
L 1678 1375 
Q 931 1469 631 1722 
Q 331 1975 331 2491 
Q 331 3047 712 3315 
Q 1094 3584 1881 3584 
Q 2191 3584 2531 3537 
Q 2872 3491 3272 3391 
z
" transform="scale(0.015625)"/>
      <path id="DejaVuSans-Bold-75" d="M 500 1363 
L 500 3500 
L 1625 3500 
L 1625 3150 
Q 1625 2866 1622 2436 
Q 1619 2006 1619 1863 
Q 1619 1441 1641 1255 
Q 1663 1069 1716 984 
Q 1784 875 1895 815 
Q 2006 756 2150 756 
Q 2500 756 2700 1025 
Q 2900 1294 2900 1772 
L 2900 3500 
L 4019 3500 
L 4019 0 
L 2900 0 
L 2900 506 
Q 2647 200 2364 54 
Q 2081 -91 1741 -91 
Q 1134 -91 817 281 
Q 500 653 500 1363 
z
" transform="scale(0.015625)"/>
      <path id="DejaVuSans-Bold-6c" d="M 538 4863 
L 1656 4863 
L 1656 0 
L 538 0 
L 538 4863 
z
" transform="scale(0.015625)"/>
      <path id="DejaVuSans-Bold-66" d="M 2841 4863 
L 2841 4128 
L 2222 4128 
Q 1984 4128 1890 4042 
Q 1797 3956 1797 3744 
L 1797 3500 
L 2753 3500 
L 2753 2700 
L 1797 2700 
L 1797 0 
L 678 0 
L 678 2700 
L 122 2700 
L 122 3500 
L 678 3500 
L 678 3744 
Q 678 4316 997 4589 
Q 1316 4863 1984 4863 
L 2841 4863 
z
" transform="scale(0.015625)"/>
      <path id="DejaVuSans-Bold-63" d="M 3366 3391 
L 3366 2478 
Q 3138 2634 2908 2709 
Q 2678 2784 2431 2784 
Q 1963 2784 1702 2511 
Q 1441 2238 1441 1747 
Q 1441 1256 1702 982 
Q 1963 709 2431 709 
Q 2694 709 2930 787 
Q 3166 866 3366 1019 
L 3366 103 
Q 3103 6 2833 -42 
Q 2563 -91 2291 -91 
Q 1344 -91 809 395 
Q 275 881 275 1747 
Q 275 2613 809 3098 
Q 1344 3584 2291 3584 
Q 2566 3584 2833 3536 
Q 3100 3488 3366 3391 
z
" transform="scale(0.015625)"/>
     </defs>
     <use xlink:href="#DejaVuSans-Bold-6e"/>
     <use xlink:href="#DejaVuSans-Bold-6f" transform="translate(71.191406 0)"/>
     <use xlink:href="#DejaVuSans-Bold-74" transform="translate(139.892578 0)"/>
     <use xlink:href="#DejaVuSans-Bold-61" transform="translate(187.695312 0)"/>
     <use xlink:href="#DejaVuSans-Bold-7a" transform="translate(255.175781 0)"/>
     <use xlink:href="#DejaVuSans-Bold-69" transform="translate(313.378906 0)"/>
     <use xlink:href="#DejaVuSans-Bold-6f" transform="translate(347.65625 0)"/>
     <use xlink:href="#DejaVuSans-Bold-6e" transform="translate(416.357422 0)"/>
     <use xlink:href="#DejaVuSans-Bold-65" transform="translate(487.548828 0)"/>
     <use xlink:href="#DejaVuSans-Bold-20" transform="translate(555.371094 0)"/>
     <use xlink:href="#DejaVuSans-Bold-64" transform="translate(590.185547 0)"/>
     <use xlink:href="#DejaVuSans-Bold-69" transform="translate(661.767578 0)"/>
     <use xlink:href="#DejaVuSans-Bold-20" transform="translate(696.044922 0)"/>
     <use xlink:href="#DejaVuSans-Bold-56" transform="translate(730.859375 0)"/>
     <use xlink:href="#DejaVuSans-Bold-6f" transform="translate(802.751953 0)"/>
     <use xlink:href="#DejaVuSans-Bold-69" transform="translate(871.453125 0)"/>
     <use xlink:href="#DejaVuSans-Bold-67" transform="translate(905.730469 0)"/>
     <use xlink:href="#DejaVuSans-Bold-74" transform="translate(977.3125 0)"/>
     <use xlink:href="#DejaVuSans-Bold-20" transform="translate(1025.115234 0)"/>
     <use xlink:href="#DejaVuSans-Bold-73" transform="translate(1059.929688 0)"/>
     <use xlink:href="#DejaVuSans-Bold-75" transform="translate(1119.451172 0)"/>
     <use xlink:href="#DejaVuSans-Bold-6c" transform="translate(1190.642578 0)"/>
     <use xlink:href="#DejaVuSans-Bold-6c" transform="translate(1224.919922 0)"/>
     <use xlink:href="#DejaVuSans-Bold-65" transform="translate(1259.197266 0)"/>
     <use xlink:href="#DejaVuSans-Bold-20" transform="translate(1327.019531 0)"/>
     <use xlink:href="#DejaVuSans-Bold-66" transform="translate(1361.833984 0)"/>
     <use xlink:href="#DejaVuSans-Bold-61" transform="translate(1405.339844 0)"/>
     <use xlink:href="#DejaVuSans-Bold-63" transform="translate(1472.820312 0)"/>
     <use xlink:href="#DejaVuSans-Bold-63" transform="translate(1532.097656 0)"/>
     <use xlink:href="#DejaVuSans-Bold-65" transform="translate(1591.375 0)"/>
    </g>
   </g>
   <g id="Line3DCollection_2">
    <path d="M 90.718647 186.757205 
L 93.715433 329.542198 
" clip-path="url(#p51d26e2971)" style="fill: none; stroke: #1f77b4; stroke-width: 1.5"/>
    <path d="M 90.718647 186.757205 
L 85.743942 213.13755 
" clip-path="url(#p51d26e2971)" style="fill: none; stroke: #1f77b4; stroke-width: 1.5"/>
    <path d="M 90.718647 186.757205 
L 96.90632 216.866596 
" clip-path="url(#p51d26e2971)" style="fill: none; stroke: #1f77b4; stroke-width: 1.5"/>
   </g>
   <g id="Line3DCollection_3">
    <path d="M 204.290775 372.038144 
L 93.715433 329.542198 
" clip-path="url(#p51d26e2971)" style="fill: none; stroke: #1f77b4; stroke-width: 1.5"/>
    <path d="M 204.290775 372.038144 
L 182.114871 370.902403 
" clip-path="url(#p51d26e2971)" style="fill: none; stroke: #1f77b4; stroke-width: 1.5"/>
    <path d="M 204.290775 372.038144 
L 182.075648 356.090748 
" clip-path="url(#p51d26e2971)" style="fill: none; stroke: #1f77b4; stroke-width: 1.5"/>
   </g>
   <g id="Poly3DCollection_1">
    <path d="M 237.902678 326.46233 
L 163.227952 299.577554 
L 162.611408 204.843629 
L 238.774083 229.178264 
z
" clip-path="url(#p51d26e2971)" style="fill: #e3e3e3; fill-opacity: 0.22; stroke: #404040; stroke-width: 0.9"/>
    <path d="M 93.715433 329.542198 
L 163.227952 299.577554 
L 162.611408 204.843629 
L 91.667535 231.967939 
z
" clip-path="url(#p51d26e2971)" style="fill: #dbdbdb; fill-opacity: 0.22; stroke: #404040; stroke-width: 0.9"/>
    <path d="M 93.715433 329.542198 
L 168.835552 358.412111 
L 237.902678 326.46233 
L 163.227952 299.577554 
z
" clip-path="url(#p51d26e2971)" style="fill: #ededed; fill-opacity: 0.22; stroke: #404040; stroke-width: 0.9"/>
    <path d="M 91.667535 231.967939 
L 168.29243 258.137132 
L 238.774083 229.178264 
L 162.611408 204.843629 
z
" clip-path="url(#p51d26e2971)" style="fill: #d4d4d4; fill-opacity: 0.22; stroke: #404040; stroke-width: 0.9"/>
    <path d="M 168.835552 358.412111 
L 237.902678 326.46233 
L 238.774083 229.178264 
L 168.29243 258.137132 
z
" clip-path="url(#p51d26e2971)" style="fill: #c7c7c7; fill-opacity: 0.22; stroke: #404040; stroke-width: 0.9"/>
    <path d="M 93.715433 329.542198 
L 168.835552 358.412111 
L 168.29243 258.137132 
L 91.667535 231.967939 
z
" clip-path="url(#p51d26e2971)" style="fill: #e3e3e3; fill-opacity: 0.22; stroke: #404040; stroke-width: 0.9"/>
   </g>
  </g>
  <g id="patch_3">
   <path d="M 445.483636 444.734182 
L 810.72 444.734182 
L 810.72 79.497818 
L 445.483636 79.497818 
z
" style="fill: #ffffff"/>
  </g>
  <g id="axes_2">
   <g id="Line3DCollection_4">
    <path d="M 674.754531 249.926217 
L 638.312277 265.284039 
" clip-path="url(#p4ba9f964a3)" style="fill: none; stroke: #1f77b4; stroke-width: 1.5"/>
    <path d="M 674.754531 249.926217 
L 667.803917 255.543178 
" clip-path="url(#p4ba9f964a3)" style="fill: none; stroke: #1f77b4; stroke-width: 1.5"/>
    <path d="M 674.754531 249.926217 
L 667.842287 250.1485 
" clip-path="url(#p4ba9f964a3)" style="fill: none; stroke: #1f77b4; stroke-width: 1.5"/>
   </g>
   <g id="text_14">
    <!-- $T_{11}$ -->
    <g transform="translate(690.692553 305.53991) scale(0.085 -0.085)">
     <defs>
      <path id="DejaVuSans-Oblique-54" d="M 378 4666 
L 4325 4666 
L 4225 4134 
L 2559 4134 
L 1759 0 
L 1125 0 
L 1925 4134 
L 275 4134 
L 378 4666 
z
" transform="scale(0.015625)"/>
     </defs>
     <use xlink:href="#DejaVuSans-Oblique-54" transform="translate(0 0.09375)"/>
     <use xlink:href="#DejaVuSans-31" transform="translate(61.083984 -16.3125) scale(0.7)"/>
     <use xlink:href="#DejaVuSans-31" transform="translate(105.620117 -16.3125) scale(0.7)"/>
    </g>
   </g>
   <g id="text_15">
    <!-- $T_{12}$ -->
    <g transform="translate(664.188382 262.987711) scale(0.085 -0.085)">
     <use xlink:href="#DejaVuSans-Oblique-54" transform="translate(0 0.09375)"/>
     <use xlink:href="#DejaVuSans-31" transform="translate(61.083984 -16.3125) scale(0.7)"/>
     <use xlink:href="#DejaVuSans-32" transform="translate(105.620117 -16.3125) scale(0.7)"/>
    </g>
   </g>
   <g id="text_16">
    <!-- $T_{13}$ -->
    <g transform="translate(660.778637 259.494046) scale(0.085 -0.085)">
     <use xlink:href="#DejaVuSans-Oblique-54" transform="translate(0 0.09375)"/>
     <use xlink:href="#DejaVuSans-31" transform="translate(61.083984 -16.3125) scale(0.7)"/>
     <use xlink:href="#DejaVuSans-33" transform="translate(105.620117 -16.3125) scale(0.7)"/>
    </g>
   </g>
   <g id="text_17">
    <!-- $T_{22}$ -->
    <g transform="translate(678.983341 247.009477) scale(0.085 -0.085)">
     <use xlink:href="#DejaVuSans-Oblique-54" transform="translate(0 0.09375)"/>
     <use xlink:href="#DejaVuSans-32" transform="translate(61.083984 -16.3125) scale(0.7)"/>
     <use xlink:href="#DejaVuSans-32" transform="translate(105.620117 -16.3125) scale(0.7)"/>
    </g>
   </g>
   <g id="text_18">
    <!-- $T_{21}$ -->
    <g transform="translate(661.762501 249.333148) scale(0.085 -0.085)">
     <use xlink:href="#DejaVuSans-Oblique-54" transform="translate(0 0.09375)"/>
     <use xlink:href="#DejaVuSans-32" transform="translate(61.083984 -16.3125) scale(0.7)"/>
     <use xlink:href="#DejaVuSans-31" transform="translate(105.620117 -16.3125) scale(0.7)"/>
    </g>
   </g>
   <g id="text_19">
    <!-- $T_{23}$ -->
    <g transform="translate(657.938862 243.189835) scale(0.085 -0.085)">
     <use xlink:href="#DejaVuSans-Oblique-54" transform="translate(0 0.09375)"/>
     <use xlink:href="#DejaVuSans-32" transform="translate(61.083984 -16.3125) scale(0.7)"/>
     <use xlink:href="#DejaVuSans-33" transform="translate(105.620117 -16.3125) scale(0.7)"/>
    </g>
   </g>
   <g id="text_20">
    <!-- $T_{33}$ -->
    <g transform="translate(607.753547 172.15569) scale(0.085 -0.085)">
     <use xlink:href="#DejaVuSans-Oblique-54" transform="translate(0 0.09375)"/>
     <use xlink:href="#DejaVuSans-33" transform="translate(61.083984 -16.3125) scale(0.7)"/>
     <use xlink:href="#DejaVuSans-33" transform="translate(105.620117 -16.3125) scale(0.7)"/>
    </g>
   </g>
   <g id="text_21">
    <!-- $T_{31}$ -->
    <g transform="translate(641.326716 228.204623) scale(0.085 -0.085)">
     <use xlink:href="#DejaVuSans-Oblique-54" transform="translate(0 0.09375)"/>
     <use xlink:href="#DejaVuSans-33" transform="translate(61.083984 -16.3125) scale(0.7)"/>
     <use xlink:href="#DejaVuSans-31" transform="translate(105.620117 -16.3125) scale(0.7)"/>
    </g>
   </g>
   <g id="text_22">
    <!-- $T_{32}$ -->
    <g transform="translate(640.91375 225.556696) scale(0.085 -0.085)">
     <use xlink:href="#DejaVuSans-Oblique-54" transform="translate(0 0.09375)"/>
     <use xlink:href="#DejaVuSans-33" transform="translate(61.083984 -16.3125) scale(0.7)"/>
     <use xlink:href="#DejaVuSans-32" transform="translate(105.620117 -16.3125) scale(0.7)"/>
    </g>
   </g>
   <g id="text_23">
    <!-- $x_1$ -->
    <g transform="translate(648.990401 374.503916) scale(0.085 -0.085)">
     <use xlink:href="#DejaVuSans-Oblique-78" transform="translate(0 0.3125)"/>
     <use xlink:href="#DejaVuSans-31" transform="translate(59.179688 -16.09375) scale(0.7)"/>
    </g>
   </g>
   <g id="text_24">
    <!-- $x_2$ -->
    <g transform="translate(636.446628 284.518166) scale(0.085 -0.085)">
     <use xlink:href="#DejaVuSans-Oblique-78" transform="translate(0 0.3125)"/>
     <use xlink:href="#DejaVuSans-32" transform="translate(59.179688 -16.09375) scale(0.7)"/>
    </g>
   </g>
   <g id="text_25">
    <!-- $x_3$ -->
    <g transform="translate(528.831761 178.632463) scale(0.085 -0.085)">
     <use xlink:href="#DejaVuSans-Oblique-78" transform="translate(0 0.3125)"/>
     <use xlink:href="#DejaVuSans-33" transform="translate(59.179688 -16.09375) scale(0.7)"/>
    </g>
   </g>
   <g id="text_26">
    <!-- nove componenti del tensore degli sforzi -->
    <g transform="translate(495.239982 73.497818) scale(0.115 -0.115)">
     <defs>
      <path id="DejaVuSans-Bold-76" d="M 97 3500 
L 1216 3500 
L 2088 1081 
L 2956 3500 
L 4078 3500 
L 2700 0 
L 1472 0 
L 97 3500 
z
" transform="scale(0.015625)"/>
      <path id="DejaVuSans-Bold-6d" d="M 3781 2919 
Q 3994 3244 4286 3414 
Q 4578 3584 4928 3584 
Q 5531 3584 5847 3212 
Q 6163 2841 6163 2131 
L 6163 0 
L 5038 0 
L 5038 1825 
Q 5041 1866 5042 1909 
Q 5044 1953 5044 2034 
Q 5044 2406 4934 2573 
Q 4825 2741 4581 2741 
Q 4263 2741 4089 2478 
Q 3916 2216 3909 1719 
L 3909 0 
L 2784 0 
L 2784 1825 
Q 2784 2406 2684 2573 
Q 2584 2741 2328 2741 
Q 2006 2741 1831 2477 
Q 1656 2213 1656 1722 
L 1656 0 
L 531 0 
L 531 3500 
L 1656 3500 
L 1656 2988 
Q 1863 3284 2130 3434 
Q 2397 3584 2719 3584 
Q 3081 3584 3359 3409 
Q 3638 3234 3781 2919 
z
" transform="scale(0.015625)"/>
      <path id="DejaVuSans-Bold-70" d="M 1656 506 
L 1656 -1331 
L 538 -1331 
L 538 3500 
L 1656 3500 
L 1656 2988 
Q 1888 3294 2169 3439 
Q 2450 3584 2816 3584 
Q 3463 3584 3878 3070 
Q 4294 2556 4294 1747 
Q 4294 938 3878 423 
Q 3463 -91 2816 -91 
Q 2450 -91 2169 54 
Q 1888 200 1656 506 
z
M 2400 2772 
Q 2041 2772 1848 2508 
Q 1656 2244 1656 1747 
Q 1656 1250 1848 986 
Q 2041 722 2400 722 
Q 2759 722 2948 984 
Q 3138 1247 3138 1747 
Q 3138 2247 2948 2509 
Q 2759 2772 2400 2772 
z
" transform="scale(0.015625)"/>
      <path id="DejaVuSans-Bold-72" d="M 3138 2547 
Q 2991 2616 2845 2648 
Q 2700 2681 2553 2681 
Q 2122 2681 1889 2404 
Q 1656 2128 1656 1613 
L 1656 0 
L 538 0 
L 538 3500 
L 1656 3500 
L 1656 2925 
Q 1872 3269 2151 3426 
Q 2431 3584 2822 3584 
Q 2878 3584 2943 3579 
Q 3009 3575 3134 3559 
L 3138 2547 
z
" transform="scale(0.015625)"/>
     </defs>
     <use xlink:href="#DejaVuSans-Bold-6e"/>
     <use xlink:href="#DejaVuSans-Bold-6f" transform="translate(71.191406 0)"/>
     <use xlink:href="#DejaVuSans-Bold-76" transform="translate(139.892578 0)"/>
     <use xlink:href="#DejaVuSans-Bold-65" transform="translate(205.078125 0)"/>
     <use xlink:href="#DejaVuSans-Bold-20" transform="translate(272.900391 0)"/>
     <use xlink:href="#DejaVuSans-Bold-63" transform="translate(307.714844 0)"/>
     <use xlink:href="#DejaVuSans-Bold-6f" transform="translate(366.992188 0)"/>
     <use xlink:href="#DejaVuSans-Bold-6d" transform="translate(435.693359 0)"/>
     <use xlink:href="#DejaVuSans-Bold-70" transform="translate(539.892578 0)"/>
     <use xlink:href="#DejaVuSans-Bold-6f" transform="translate(611.474609 0)"/>
     <use xlink:href="#DejaVuSans-Bold-6e" transform="translate(680.175781 0)"/>
     <use xlink:href="#DejaVuSans-Bold-65" transform="translate(751.367188 0)"/>
     <use xlink:href="#DejaVuSans-Bold-6e" transform="translate(819.189453 0)"/>
     <use xlink:href="#DejaVuSans-Bold-74" transform="translate(890.380859 0)"/>
     <use xlink:href="#DejaVuSans-Bold-69" transform="translate(938.183594 0)"/>
     <use xlink:href="#DejaVuSans-Bold-20" transform="translate(972.460938 0)"/>
     <use xlink:href="#DejaVuSans-Bold-64" transform="translate(1007.275391 0)"/>
     <use xlink:href="#DejaVuSans-Bold-65" transform="translate(1078.857422 0)"/>
     <use xlink:href="#DejaVuSans-Bold-6c" transform="translate(1146.679688 0)"/>
     <use xlink:href="#DejaVuSans-Bold-20" transform="translate(1180.957031 0)"/>
     <use xlink:href="#DejaVuSans-Bold-74" transform="translate(1215.771484 0)"/>
     <use xlink:href="#DejaVuSans-Bold-65" transform="translate(1263.574219 0)"/>
     <use xlink:href="#DejaVuSans-Bold-6e" transform="translate(1331.396484 0)"/>
     <use xlink:href="#DejaVuSans-Bold-73" transform="translate(1402.587891 0)"/>
     <use xlink:href="#DejaVuSans-Bold-6f" transform="translate(1462.109375 0)"/>
     <use xlink:href="#DejaVuSans-Bold-72" transform="translate(1530.810547 0)"/>
     <use xlink:href="#DejaVuSans-Bold-65" transform="translate(1580.126953 0)"/>
     <use xlink:href="#DejaVuSans-Bold-20" transform="translate(1647.949219 0)"/>
     <use xlink:href="#DejaVuSans-Bold-64" transform="translate(1682.763672 0)"/>
     <use xlink:href="#DejaVuSans-Bold-65" transform="translate(1754.345703 0)"/>
     <use xlink:href="#DejaVuSans-Bold-67" transform="translate(1822.167969 0)"/>
     <use xlink:href="#DejaVuSans-Bold-6c" transform="translate(1893.75 0)"/>
     <use xlink:href="#DejaVuSans-Bold-69" transform="translate(1928.027344 0)"/>
     <use xlink:href="#DejaVuSans-Bold-20" transform="translate(1962.304688 0)"/>
     <use xlink:href="#DejaVuSans-Bold-73" transform="translate(1997.119141 0)"/>
     <use xlink:href="#DejaVuSans-Bold-66" transform="translate(2056.640625 0)"/>
     <use xlink:href="#DejaVuSans-Bold-6f" transform="translate(2100.146484 0)"/>
     <use xlink:href="#DejaVuSans-Bold-72" transform="translate(2168.847656 0)"/>
     <use xlink:href="#DejaVuSans-Bold-7a" transform="translate(2218.164062 0)"/>
     <use xlink:href="#DejaVuSans-Bold-69" transform="translate(2276.367188 0)"/>
    </g>
   </g>
   <g id="Line3DCollection_5">
    <path d="M 631.253896 286.756588 
L 531.999069 329.542198 
" clip-path="url(#p4ba9f964a3)" style="fill: none; stroke: #1f77b4; stroke-width: 1.5"/>
    <path d="M 631.253896 286.756588 
L 612.876294 301.621639 
" clip-path="url(#p4ba9f964a3)" style="fill: none; stroke: #1f77b4; stroke-width: 1.5"/>
    <path d="M 631.253896 286.756588 
L 612.818496 287.740552 
" clip-path="url(#p4ba9f964a3)" style="fill: none; stroke: #1f77b4; stroke-width: 1.5"/>
   </g>
   <g id="Line3DCollection_6">
    <path d="M 653.589014 246.199046 
L 653.386541 294.448142 
" clip-path="url(#p4ba9f964a3)" style="fill: none; stroke: #1f77b4; stroke-width: 1.5"/>
    <path d="M 653.589014 246.199046 
L 651.568796 254.933686 
" clip-path="url(#p4ba9f964a3)" style="fill: none; stroke: #1f77b4; stroke-width: 1.5"/>
    <path d="M 653.589014 246.199046 
L 655.533672 256.256892 
" clip-path="url(#p4ba9f964a3)" style="fill: none; stroke: #1f77b4; stroke-width: 1.5"/>
   </g>
   <g id="Line3DCollection_7">
    <path d="M 657.408107 252.341193 
L 619.560297 239.782105 
" clip-path="url(#p4ba9f964a3)" style="fill: none; stroke: #1f77b4; stroke-width: 1.5"/>
    <path d="M 657.408107 252.341193 
L 649.993101 252.396501 
" clip-path="url(#p4ba9f964a3)" style="fill: none; stroke: #1f77b4; stroke-width: 1.5"/>
    <path d="M 657.408107 252.341193 
L 650.010533 247.368021 
" clip-path="url(#p4ba9f964a3)" style="fill: none; stroke: #1f77b4; stroke-width: 1.5"/>
   </g>
   <g id="Line3DCollection_8">
    <path d="M 636.908565 231.274295 
L 598.758492 218.844651 
" clip-path="url(#p4ba9f964a3)" style="fill: none; stroke: #1f77b4; stroke-width: 1.5"/>
    <path d="M 636.908565 231.274295 
L 629.443384 231.407916 
" clip-path="url(#p4ba9f964a3)" style="fill: none; stroke: #1f77b4; stroke-width: 1.5"/>
    <path d="M 636.908565 231.274295 
L 629.439627 226.272318 
" clip-path="url(#p4ba9f964a3)" style="fill: none; stroke: #1f77b4; stroke-width: 1.5"/>
   </g>
   <g id="Line3DCollection_9">
    <path d="M 656.336914 262.557674 
L 656.102643 311.635532 
" clip-path="url(#p4ba9f964a3)" style="fill: none; stroke: #1f77b4; stroke-width: 1.5"/>
    <path d="M 656.336914 262.557674 
L 654.267097 271.427565 
" clip-path="url(#p4ba9f964a3)" style="fill: none; stroke: #1f77b4; stroke-width: 1.5"/>
    <path d="M 656.336914 262.557674 
L 658.318912 272.806265 
" clip-path="url(#p4ba9f964a3)" style="fill: none; stroke: #1f77b4; stroke-width: 1.5"/>
   </g>
   <g id="Line3DCollection_10">
    <path d="M 529.002284 186.757205 
L 531.999069 329.542198 
" clip-path="url(#p4ba9f964a3)" style="fill: none; stroke: #1f77b4; stroke-width: 1.5"/>
    <path d="M 529.002284 186.757205 
L 524.027579 213.13755 
" clip-path="url(#p4ba9f964a3)" style="fill: none; stroke: #1f77b4; stroke-width: 1.5"/>
    <path d="M 529.002284 186.757205 
L 535.189957 216.866596 
" clip-path="url(#p4ba9f964a3)" style="fill: none; stroke: #1f77b4; stroke-width: 1.5"/>
   </g>
   <g id="Line3DCollection_11">
    <path d="M 603.306676 175.285323 
L 603.637505 230.570578 
" clip-path="url(#p4ba9f964a3)" style="fill: none; stroke: #1f77b4; stroke-width: 1.5"/>
    <path d="M 603.306676 175.285323 
L 601.178939 185.380308 
" clip-path="url(#p4ba9f964a3)" style="fill: none; stroke: #1f77b4; stroke-width: 1.5"/>
    <path d="M 603.306676 175.285323 
L 605.567517 186.745713 
" clip-path="url(#p4ba9f964a3)" style="fill: none; stroke: #1f77b4; stroke-width: 1.5"/>
   </g>
   <g id="Line3DCollection_12">
    <path d="M 636.511016 228.617115 
L 601.198454 242.808269 
" clip-path="url(#p4ba9f964a3)" style="fill: none; stroke: #1f77b4; stroke-width: 1.5"/>
    <path d="M 636.511016 228.617115 
L 629.790924 233.891839 
" clip-path="url(#p4ba9f964a3)" style="fill: none; stroke: #1f77b4; stroke-width: 1.5"/>
    <path d="M 636.511016 228.617115 
L 629.787519 228.742302 
" clip-path="url(#p4ba9f964a3)" style="fill: none; stroke: #1f77b4; stroke-width: 1.5"/>
   </g>
   <g id="Line3DCollection_13">
    <path d="M 659.757534 266.040921 
L 624.740759 280.979424 
" clip-path="url(#p4ba9f964a3)" style="fill: none; stroke: #1f77b4; stroke-width: 1.5"/>
    <path d="M 659.757534 266.040921 
L 653.081871 271.447665 
" clip-path="url(#p4ba9f964a3)" style="fill: none; stroke: #1f77b4; stroke-width: 1.5"/>
    <path d="M 659.757534 266.040921 
L 653.102974 266.318289 
" clip-path="url(#p4ba9f964a3)" style="fill: none; stroke: #1f77b4; stroke-width: 1.5"/>
   </g>
   <g id="Line3DCollection_14">
    <path d="M 686.14361 308.643433 
L 642.371645 293.271901 
" clip-path="url(#p4ba9f964a3)" style="fill: none; stroke: #1f77b4; stroke-width: 1.5"/>
    <path d="M 686.14361 308.643433 
L 677.536002 308.473949 
" clip-path="url(#p4ba9f964a3)" style="fill: none; stroke: #1f77b4; stroke-width: 1.5"/>
    <path d="M 686.14361 308.643433 
L 677.588382 302.782435 
" clip-path="url(#p4ba9f964a3)" style="fill: none; stroke: #1f77b4; stroke-width: 1.5"/>
   </g>
   <g id="Line3DCollection_15">
    <path d="M 642.574411 372.038144 
L 531.999069 329.542198 
" clip-path="url(#p4ba9f964a3)" style="fill: none; stroke: #1f77b4; stroke-width: 1.5"/>
    <path d="M 642.574411 372.038144 
L 620.398508 370.902403 
" clip-path="url(#p4ba9f964a3)" style="fill: none; stroke: #1f77b4; stroke-width: 1.5"/>
    <path d="M 642.574411 372.038144 
L 620.359284 356.090748 
" clip-path="url(#p4ba9f964a3)" style="fill: none; stroke: #1f77b4; stroke-width: 1.5"/>
   </g>
   <g id="Poly3DCollection_2">
    <path d="M 676.186315 326.46233 
L 601.511589 299.577554 
L 600.895044 204.843629 
L 677.05772 229.178264 
z
" clip-path="url(#p4ba9f964a3)" style="fill: #e3e3e3; fill-opacity: 0.22; stroke: #404040; stroke-width: 0.9"/>
    <path d="M 531.999069 329.542198 
L 601.511589 299.577554 
L 600.895044 204.843629 
L 529.951171 231.967939 
z
" clip-path="url(#p4ba9f964a3)" style="fill: #dbdbdb; fill-opacity: 0.22; stroke: #404040; stroke-width: 0.9"/>
    <path d="M 531.999069 329.542198 
L 607.119188 358.412111 
L 676.186315 326.46233 
L 601.511589 299.577554 
z
" clip-path="url(#p4ba9f964a3)" style="fill: #ededed; fill-opacity: 0.22; stroke: #404040; stroke-width: 0.9"/>
    <path d="M 529.951171 231.967939 
L 606.576066 258.137132 
L 677.05772 229.178264 
L 600.895044 204.843629 
z
" clip-path="url(#p4ba9f964a3)" style="fill: #d4d4d4; fill-opacity: 0.22; stroke: #404040; stroke-width: 0.9"/>
    <path d="M 607.119188 358.412111 
L 676.186315 326.46233 
L 677.05772 229.178264 
L 606.576066 258.137132 
z
" clip-path="url(#p4ba9f964a3)" style="fill: #c7c7c7; fill-opacity: 0.22; stroke: #404040; stroke-width: 0.9"/>
    <path d="M 531.999069 329.542198 
L 607.119188 358.412111 
L 606.576066 258.137132 
L 529.951171 231.967939 
z
" clip-path="url(#p4ba9f964a3)" style="fill: #e3e3e3; fill-opacity: 0.22; stroke: #404040; stroke-width: 0.9"/>
   </g>
  </g>
  <g id="text_27">
   <!-- Elemento di volume infinitesimo e componenti del tensore degli sforzi -->
   <g transform="translate(98.75625 18.597656) scale(0.15 -0.15)">
    <defs>
     <path id="DejaVuSans-Bold-45" d="M 588 4666 
L 3834 4666 
L 3834 3756 
L 1791 3756 
L 1791 2888 
L 3713 2888 
L 3713 1978 
L 1791 1978 
L 1791 909 
L 3903 909 
L 3903 0 
L 588 0 
L 588 4666 
z
" transform="scale(0.015625)"/>
    </defs>
    <use xlink:href="#DejaVuSans-Bold-45"/>
    <use xlink:href="#DejaVuSans-Bold-6c" transform="translate(68.310547 0)"/>
    <use xlink:href="#DejaVuSans-Bold-65" transform="translate(102.587891 0)"/>
    <use xlink:href="#DejaVuSans-Bold-6d" transform="translate(170.410156 0)"/>
    <use xlink:href="#DejaVuSans-Bold-65" transform="translate(274.609375 0)"/>
    <use xlink:href="#DejaVuSans-Bold-6e" transform="translate(342.431641 0)"/>
    <use xlink:href="#DejaVuSans-Bold-74" transform="translate(413.623047 0)"/>
    <use xlink:href="#DejaVuSans-Bold-6f" transform="translate(461.425781 0)"/>
    <use xlink:href="#DejaVuSans-Bold-20" transform="translate(530.126953 0)"/>
    <use xlink:href="#DejaVuSans-Bold-64" transform="translate(564.941406 0)"/>
    <use xlink:href="#DejaVuSans-Bold-69" transform="translate(636.523438 0)"/>
    <use xlink:href="#DejaVuSans-Bold-20" transform="translate(670.800781 0)"/>
    <use xlink:href="#DejaVuSans-Bold-76" transform="translate(705.615234 0)"/>
    <use xlink:href="#DejaVuSans-Bold-6f" transform="translate(770.800781 0)"/>
    <use xlink:href="#DejaVuSans-Bold-6c" transform="translate(839.501953 0)"/>
    <use xlink:href="#DejaVuSans-Bold-75" transform="translate(873.779297 0)"/>
    <use xlink:href="#DejaVuSans-Bold-6d" transform="translate(944.970703 0)"/>
    <use xlink:href="#DejaVuSans-Bold-65" transform="translate(1049.169922 0)"/>
    <use xlink:href="#DejaVuSans-Bold-20" transform="translate(1116.992188 0)"/>
    <use xlink:href="#DejaVuSans-Bold-69" transform="translate(1151.806641 0)"/>
    <use xlink:href="#DejaVuSans-Bold-6e" transform="translate(1186.083984 0)"/>
    <use xlink:href="#DejaVuSans-Bold-66" transform="translate(1257.275391 0)"/>
    <use xlink:href="#DejaVuSans-Bold-69" transform="translate(1300.78125 0)"/>
    <use xlink:href="#DejaVuSans-Bold-6e" transform="translate(1335.058594 0)"/>
    <use xlink:href="#DejaVuSans-Bold-69" transform="translate(1406.25 0)"/>
    <use xlink:href="#DejaVuSans-Bold-74" transform="translate(1440.527344 0)"/>
    <use xlink:href="#DejaVuSans-Bold-65" transform="translate(1488.330078 0)"/>
    <use xlink:href="#DejaVuSans-Bold-73" transform="translate(1556.152344 0)"/>
    <use xlink:href="#DejaVuSans-Bold-69" transform="translate(1615.673828 0)"/>
    <use xlink:href="#DejaVuSans-Bold-6d" transform="translate(1649.951172 0)"/>
    <use xlink:href="#DejaVuSans-Bold-6f" transform="translate(1754.150391 0)"/>
    <use xlink:href="#DejaVuSans-Bold-20" transform="translate(1822.851562 0)"/>
    <use xlink:href="#DejaVuSans-Bold-65" transform="translate(1857.666016 0)"/>
    <use xlink:href="#DejaVuSans-Bold-20" transform="translate(1925.488281 0)"/>
    <use xlink:href="#DejaVuSans-Bold-63" transform="translate(1960.302734 0)"/>
    <use xlink:href="#DejaVuSans-Bold-6f" transform="translate(2019.580078 0)"/>
    <use xlink:href="#DejaVuSans-Bold-6d" transform="translate(2088.28125 0)"/>
    <use xlink:href="#DejaVuSans-Bold-70" transform="translate(2192.480469 0)"/>
    <use xlink:href="#DejaVuSans-Bold-6f" transform="translate(2264.0625 0)"/>
    <use xlink:href="#DejaVuSans-Bold-6e" transform="translate(2332.763672 0)"/>
    <use xlink:href="#DejaVuSans-Bold-65" transform="translate(2403.955078 0)"/>
    <use xlink:href="#DejaVuSans-Bold-6e" transform="translate(2471.777344 0)"/>
    <use xlink:href="#DejaVuSans-Bold-74" transform="translate(2542.96875 0)"/>
    <use xlink:href="#DejaVuSans-Bold-69" transform="translate(2590.771484 0)"/>
    <use xlink:href="#DejaVuSans-Bold-20" transform="translate(2625.048828 0)"/>
    <use xlink:href="#DejaVuSans-Bold-64" transform="translate(2659.863281 0)"/>
    <use xlink:href="#DejaVuSans-Bold-65" transform="translate(2731.445312 0)"/>
    <use xlink:href="#DejaVuSans-Bold-6c" transform="translate(2799.267578 0)"/>
    <use xlink:href="#DejaVuSans-Bold-20" transform="translate(2833.544922 0)"/>
    <use xlink:href="#DejaVuSans-Bold-74" transform="translate(2868.359375 0)"/>
    <use xlink:href="#DejaVuSans-Bold-65" transform="translate(2916.162109 0)"/>
    <use xlink:href="#DejaVuSans-Bold-6e" transform="translate(2983.984375 0)"/>
    <use xlink:href="#DejaVuSans-Bold-73" transform="translate(3055.175781 0)"/>
    <use xlink:href="#DejaVuSans-Bold-6f" transform="translate(3114.697266 0)"/>
    <use xlink:href="#DejaVuSans-Bold-72" transform="translate(3183.398438 0)"/>
    <use xlink:href="#DejaVuSans-Bold-65" transform="translate(3232.714844 0)"/>
    <use xlink:href="#DejaVuSans-Bold-20" transform="translate(3300.537109 0)"/>
    <use xlink:href="#DejaVuSans-Bold-64" transform="translate(3335.351562 0)"/>
    <use xlink:href="#DejaVuSans-Bold-65" transform="translate(3406.933594 0)"/>
    <use xlink:href="#DejaVuSans-Bold-67" transform="translate(3474.755859 0)"/>
    <use xlink:href="#DejaVuSans-Bold-6c" transform="translate(3546.337891 0)"/>
    <use xlink:href="#DejaVuSans-Bold-69" transform="translate(3580.615234 0)"/>
    <use xlink:href="#DejaVuSans-Bold-20" transform="translate(3614.892578 0)"/>
    <use xlink:href="#DejaVuSans-Bold-73" transform="translate(3649.707031 0)"/>
    <use xlink:href="#DejaVuSans-Bold-66" transform="translate(3709.228516 0)"/>
    <use xlink:href="#DejaVuSans-Bold-6f" transform="translate(3752.734375 0)"/>
    <use xlink:href="#DejaVuSans-Bold-72" transform="translate(3821.435547 0)"/>
    <use xlink:href="#DejaVuSans-Bold-7a" transform="translate(3870.751953 0)"/>
    <use xlink:href="#DejaVuSans-Bold-69" transform="translate(3928.955078 0)"/>
   </g>
  </g>
  <g id="text_28">
   <!-- $T_{ij}$ è la componente dello sforzo lungo $x_j$ agente sulla faccia la cui normale è parallela a $x_i$. -->
   <g transform="translate(169.85 509.148) scale(0.1 -0.1)">
    <defs>
     <path id="DejaVuSans-Oblique-69" d="M 1172 4863 
L 1747 4863 
L 1606 4134 
L 1031 4134 
L 1172 4863 
z
M 909 3500 
L 1484 3500 
L 800 0 
L 225 0 
L 909 3500 
z
" transform="scale(0.015625)"/>
     <path id="DejaVuSans-Oblique-6a" d="M 928 3500 
L 1503 3500 
L 813 -63 
L 809 -78 
Q 694 -675 544 -897 
Q 403 -1106 132 -1218 
Q -138 -1331 -506 -1331 
L -722 -1331 
L -628 -844 
L -481 -844 
Q -144 -844 -1 -703 
Q 141 -563 238 -63 
L 928 3500 
z
M 1197 4863 
L 1772 4863 
L 1631 4134 
L 1056 4134 
L 1197 4863 
z
" transform="scale(0.015625)"/>
     <path id="DejaVuSans-20" transform="scale(0.015625)"/>
     <path id="DejaVuSans-e8" d="M 3597 1894 
L 3597 1613 
L 953 1613 
Q 991 1019 1311 708 
Q 1631 397 2203 397 
Q 2534 397 2845 478 
Q 3156 559 3463 722 
L 3463 178 
Q 3153 47 2828 -22 
Q 2503 -91 2169 -91 
Q 1331 -91 842 396 
Q 353 884 353 1716 
Q 353 2575 817 3079 
Q 1281 3584 2069 3584 
Q 2775 3584 3186 3129 
Q 3597 2675 3597 1894 
z
M 3022 2063 
Q 3016 2534 2758 2815 
Q 2500 3097 2075 3097 
Q 1594 3097 1305 2825 
Q 1016 2553 972 2059 
L 3022 2063 
z
M 1579 5119 
L 2460 3950 
L 1982 3950 
L 963 5119 
L 1579 5119 
z
" transform="scale(0.015625)"/>
     <path id="DejaVuSans-6c" d="M 603 4863 
L 1178 4863 
L 1178 0 
L 603 0 
L 603 4863 
z
" transform="scale(0.015625)"/>
     <path id="DejaVuSans-61" d="M 2194 1759 
Q 1497 1759 1228 1600 
Q 959 1441 959 1056 
Q 959 750 1161 570 
Q 1363 391 1709 391 
Q 2188 391 2477 730 
Q 2766 1069 2766 1631 
L 2766 1759 
L 2194 1759 
z
M 3341 1997 
L 3341 0 
L 2766 0 
L 2766 531 
Q 2569 213 2275 61 
Q 1981 -91 1556 -91 
Q 1019 -91 701 211 
Q 384 513 384 1019 
Q 384 1609 779 1909 
Q 1175 2209 1959 2209 
L 2766 2209 
L 2766 2266 
Q 2766 2663 2505 2880 
Q 2244 3097 1772 3097 
Q 1472 3097 1187 3025 
Q 903 2953 641 2809 
L 641 3341 
Q 956 3463 1253 3523 
Q 1550 3584 1831 3584 
Q 2591 3584 2966 3190 
Q 3341 2797 3341 1997 
z
" transform="scale(0.015625)"/>
     <path id="DejaVuSans-63" d="M 3122 3366 
L 3122 2828 
Q 2878 2963 2633 3030 
Q 2388 3097 2138 3097 
Q 1578 3097 1268 2742 
Q 959 2388 959 1747 
Q 959 1106 1268 751 
Q 1578 397 2138 397 
Q 2388 397 2633 464 
Q 2878 531 3122 666 
L 3122 134 
Q 2881 22 2623 -34 
Q 2366 -91 2075 -91 
Q 1284 -91 818 406 
Q 353 903 353 1747 
Q 353 2603 823 3093 
Q 1294 3584 2113 3584 
Q 2378 3584 2631 3529 
Q 2884 3475 3122 3366 
z
" transform="scale(0.015625)"/>
     <path id="DejaVuSans-6f" d="M 1959 3097 
Q 1497 3097 1228 2736 
Q 959 2375 959 1747 
Q 959 1119 1226 758 
Q 1494 397 1959 397 
Q 2419 397 2687 759 
Q 2956 1122 2956 1747 
Q 2956 2369 2687 2733 
Q 2419 3097 1959 3097 
z
M 1959 3584 
Q 2709 3584 3137 3096 
Q 3566 2609 3566 1747 
Q 3566 888 3137 398 
Q 2709 -91 1959 -91 
Q 1206 -91 779 398 
Q 353 888 353 1747 
Q 353 2609 779 3096 
Q 1206 3584 1959 3584 
z
" transform="scale(0.015625)"/>
     <path id="DejaVuSans-6d" d="M 3328 2828 
Q 3544 3216 3844 3400 
Q 4144 3584 4550 3584 
Q 5097 3584 5394 3201 
Q 5691 2819 5691 2113 
L 5691 0 
L 5113 0 
L 5113 2094 
Q 5113 2597 4934 2840 
Q 4756 3084 4391 3084 
Q 3944 3084 3684 2787 
Q 3425 2491 3425 1978 
L 3425 0 
L 2847 0 
L 2847 2094 
Q 2847 2600 2669 2842 
Q 2491 3084 2119 3084 
Q 1678 3084 1418 2786 
Q 1159 2488 1159 1978 
L 1159 0 
L 581 0 
L 581 3500 
L 1159 3500 
L 1159 2956 
Q 1356 3278 1631 3431 
Q 1906 3584 2284 3584 
Q 2666 3584 2933 3390 
Q 3200 3197 3328 2828 
z
" transform="scale(0.015625)"/>
     <path id="DejaVuSans-70" d="M 1159 525 
L 1159 -1331 
L 581 -1331 
L 581 3500 
L 1159 3500 
L 1159 2969 
Q 1341 3281 1617 3432 
Q 1894 3584 2278 3584 
Q 2916 3584 3314 3078 
Q 3713 2572 3713 1747 
Q 3713 922 3314 415 
Q 2916 -91 2278 -91 
Q 1894 -91 1617 61 
Q 1341 213 1159 525 
z
M 3116 1747 
Q 3116 2381 2855 2742 
Q 2594 3103 2138 3103 
Q 1681 3103 1420 2742 
Q 1159 2381 1159 1747 
Q 1159 1113 1420 752 
Q 1681 391 2138 391 
Q 2594 391 2855 752 
Q 3116 1113 3116 1747 
z
" transform="scale(0.015625)"/>
     <path id="DejaVuSans-6e" d="M 3513 2113 
L 3513 0 
L 2938 0 
L 2938 2094 
Q 2938 2591 2744 2837 
Q 2550 3084 2163 3084 
Q 1697 3084 1428 2787 
Q 1159 2491 1159 1978 
L 1159 0 
L 581 0 
L 581 3500 
L 1159 3500 
L 1159 2956 
Q 1366 3272 1645 3428 
Q 1925 3584 2291 3584 
Q 2894 3584 3203 3211 
Q 3513 2838 3513 2113 
z
" transform="scale(0.015625)"/>
     <path id="DejaVuSans-65" d="M 3597 1894 
L 3597 1613 
L 953 1613 
Q 991 1019 1311 708 
Q 1631 397 2203 397 
Q 2534 397 2845 478 
Q 3156 559 3463 722 
L 3463 178 
Q 3153 47 2828 -22 
Q 2503 -91 2169 -91 
Q 1331 -91 842 396 
Q 353 884 353 1716 
Q 353 2575 817 3079 
Q 1281 3584 2069 3584 
Q 2775 3584 3186 3129 
Q 3597 2675 3597 1894 
z
M 3022 2063 
Q 3016 2534 2758 2815 
Q 2500 3097 2075 3097 
Q 1594 3097 1305 2825 
Q 1016 2553 972 2059 
L 3022 2063 
z
" transform="scale(0.015625)"/>
     <path id="DejaVuSans-74" d="M 1172 4494 
L 1172 3500 
L 2356 3500 
L 2356 3053 
L 1172 3053 
L 1172 1153 
Q 1172 725 1289 603 
Q 1406 481 1766 481 
L 2356 481 
L 2356 0 
L 1766 0 
Q 1100 0 847 248 
Q 594 497 594 1153 
L 594 3053 
L 172 3053 
L 172 3500 
L 594 3500 
L 594 4494 
L 1172 4494 
z
" transform="scale(0.015625)"/>
     <path id="DejaVuSans-64" d="M 2906 2969 
L 2906 4863 
L 3481 4863 
L 3481 0 
L 2906 0 
L 2906 525 
Q 2725 213 2448 61 
Q 2172 -91 1784 -91 
Q 1150 -91 751 415 
Q 353 922 353 1747 
Q 353 2572 751 3078 
Q 1150 3584 1784 3584 
Q 2172 3584 2448 3432 
Q 2725 3281 2906 2969 
z
M 947 1747 
Q 947 1113 1208 752 
Q 1469 391 1925 391 
Q 2381 391 2643 752 
Q 2906 1113 2906 1747 
Q 2906 2381 2643 2742 
Q 2381 3103 1925 3103 
Q 1469 3103 1208 2742 
Q 947 2381 947 1747 
z
" transform="scale(0.015625)"/>
     <path id="DejaVuSans-73" d="M 2834 3397 
L 2834 2853 
Q 2591 2978 2328 3040 
Q 2066 3103 1784 3103 
Q 1356 3103 1142 2972 
Q 928 2841 928 2578 
Q 928 2378 1081 2264 
Q 1234 2150 1697 2047 
L 1894 2003 
Q 2506 1872 2764 1633 
Q 3022 1394 3022 966 
Q 3022 478 2636 193 
Q 2250 -91 1575 -91 
Q 1294 -91 989 -36 
Q 684 19 347 128 
L 347 722 
Q 666 556 975 473 
Q 1284 391 1588 391 
Q 1994 391 2212 530 
Q 2431 669 2431 922 
Q 2431 1156 2273 1281 
Q 2116 1406 1581 1522 
L 1381 1569 
Q 847 1681 609 1914 
Q 372 2147 372 2553 
Q 372 3047 722 3315 
Q 1072 3584 1716 3584 
Q 2034 3584 2315 3537 
Q 2597 3491 2834 3397 
z
" transform="scale(0.015625)"/>
     <path id="DejaVuSans-66" d="M 2375 4863 
L 2375 4384 
L 1825 4384 
Q 1516 4384 1395 4259 
Q 1275 4134 1275 3809 
L 1275 3500 
L 2222 3500 
L 2222 3053 
L 1275 3053 
L 1275 0 
L 697 0 
L 697 3053 
L 147 3053 
L 147 3500 
L 697 3500 
L 697 3744 
Q 697 4328 969 4595 
Q 1241 4863 1831 4863 
L 2375 4863 
z
" transform="scale(0.015625)"/>
     <path id="DejaVuSans-72" d="M 2631 2963 
Q 2534 3019 2420 3045 
Q 2306 3072 2169 3072 
Q 1681 3072 1420 2755 
Q 1159 2438 1159 1844 
L 1159 0 
L 581 0 
L 581 3500 
L 1159 3500 
L 1159 2956 
Q 1341 3275 1631 3429 
Q 1922 3584 2338 3584 
Q 2397 3584 2469 3576 
Q 2541 3569 2628 3553 
L 2631 2963 
z
" transform="scale(0.015625)"/>
     <path id="DejaVuSans-7a" d="M 353 3500 
L 3084 3500 
L 3084 2975 
L 922 459 
L 3084 459 
L 3084 0 
L 275 0 
L 275 525 
L 2438 3041 
L 353 3041 
L 353 3500 
z
" transform="scale(0.015625)"/>
     <path id="DejaVuSans-75" d="M 544 1381 
L 544 3500 
L 1119 3500 
L 1119 1403 
Q 1119 906 1312 657 
Q 1506 409 1894 409 
Q 2359 409 2629 706 
Q 2900 1003 2900 1516 
L 2900 3500 
L 3475 3500 
L 3475 0 
L 2900 0 
L 2900 538 
Q 2691 219 2414 64 
Q 2138 -91 1772 -91 
Q 1169 -91 856 284 
Q 544 659 544 1381 
z
M 1991 3584 
L 1991 3584 
z
" transform="scale(0.015625)"/>
     <path id="DejaVuSans-67" d="M 2906 1791 
Q 2906 2416 2648 2759 
Q 2391 3103 1925 3103 
Q 1463 3103 1205 2759 
Q 947 2416 947 1791 
Q 947 1169 1205 825 
Q 1463 481 1925 481 
Q 2391 481 2648 825 
Q 2906 1169 2906 1791 
z
M 3481 434 
Q 3481 -459 3084 -895 
Q 2688 -1331 1869 -1331 
Q 1566 -1331 1297 -1286 
Q 1028 -1241 775 -1147 
L 775 -588 
Q 1028 -725 1275 -790 
Q 1522 -856 1778 -856 
Q 2344 -856 2625 -561 
Q 2906 -266 2906 331 
L 2906 616 
Q 2728 306 2450 153 
Q 2172 0 1784 0 
Q 1141 0 747 490 
Q 353 981 353 1791 
Q 353 2603 747 3093 
Q 1141 3584 1784 3584 
Q 2172 3584 2450 3431 
Q 2728 3278 2906 2969 
L 2906 3500 
L 3481 3500 
L 3481 434 
z
" transform="scale(0.015625)"/>
     <path id="DejaVuSans-69" d="M 603 3500 
L 1178 3500 
L 1178 0 
L 603 0 
L 603 3500 
z
M 603 4863 
L 1178 4863 
L 1178 4134 
L 603 4134 
L 603 4863 
z
" transform="scale(0.015625)"/>
     <path id="DejaVuSans-2e" d="M 684 794 
L 1344 794 
L 1344 0 
L 684 0 
L 684 794 
z
" transform="scale(0.015625)"/>
    </defs>
    <use xlink:href="#DejaVuSans-Oblique-54" transform="translate(0 0.015625)"/>
    <use xlink:href="#DejaVuSans-Oblique-69" transform="translate(61.083984 -16.390625) scale(0.7)"/>
    <use xlink:href="#DejaVuSans-Oblique-6a" transform="translate(80.532227 -16.390625) scale(0.7)"/>
    <use xlink:href="#DejaVuSans-20" transform="translate(102.714844 0.015625)"/>
    <use xlink:href="#DejaVuSans-e8" transform="translate(134.501953 0.015625)"/>
    <use xlink:href="#DejaVuSans-20" transform="translate(196.025391 0.015625)"/>
    <use xlink:href="#DejaVuSans-6c" transform="translate(227.8125 0.015625)"/>
    <use xlink:href="#DejaVuSans-61" transform="translate(255.595703 0.015625)"/>
    <use xlink:href="#DejaVuSans-20" transform="translate(316.875 0.015625)"/>
    <use xlink:href="#DejaVuSans-63" transform="translate(348.662109 0.015625)"/>
    <use xlink:href="#DejaVuSans-6f" transform="translate(403.642578 0.015625)"/>
    <use xlink:href="#DejaVuSans-6d" transform="translate(464.824219 0.015625)"/>
    <use xlink:href="#DejaVuSans-70" transform="translate(562.236328 0.015625)"/>
    <use xlink:href="#DejaVuSans-6f" transform="translate(625.712891 0.015625)"/>
    <use xlink:href="#DejaVuSans-6e" transform="translate(686.894531 0.015625)"/>
    <use xlink:href="#DejaVuSans-65" transform="translate(750.273438 0.015625)"/>
    <use xlink:href="#DejaVuSans-6e" transform="translate(811.796875 0.015625)"/>
    <use xlink:href="#DejaVuSans-74" transform="translate(875.175781 0.015625)"/>
    <use xlink:href="#DejaVuSans-65" transform="translate(914.384766 0.015625)"/>
    <use xlink:href="#DejaVuSans-20" transform="translate(975.908203 0.015625)"/>
    <use xlink:href="#DejaVuSans-64" transform="translate(1007.695312 0.015625)"/>
    <use xlink:href="#DejaVuSans-65" transform="translate(1071.171875 0.015625)"/>
    <use xlink:href="#DejaVuSans-6c" transform="translate(1132.695312 0.015625)"/>
    <use xlink:href="#DejaVuSans-6c" transform="translate(1160.478516 0.015625)"/>
    <use xlink:href="#DejaVuSans-6f" transform="translate(1188.261719 0.015625)"/>
    <use xlink:href="#DejaVuSans-20" transform="translate(1249.443359 0.015625)"/>
    <use xlink:href="#DejaVuSans-73" transform="translate(1281.230469 0.015625)"/>
    <use xlink:href="#DejaVuSans-66" transform="translate(1333.330078 0.015625)"/>
    <use xlink:href="#DejaVuSans-6f" transform="translate(1368.535156 0.015625)"/>
    <use xlink:href="#DejaVuSans-72" transform="translate(1429.716797 0.015625)"/>
    <use xlink:href="#DejaVuSans-7a" transform="translate(1470.830078 0.015625)"/>
    <use xlink:href="#DejaVuSans-6f" transform="translate(1523.320312 0.015625)"/>
    <use xlink:href="#DejaVuSans-20" transform="translate(1584.501953 0.015625)"/>
    <use xlink:href="#DejaVuSans-6c" transform="translate(1616.289062 0.015625)"/>
    <use xlink:href="#DejaVuSans-75" transform="translate(1644.072266 0.015625)"/>
    <use xlink:href="#DejaVuSans-6e" transform="translate(1707.451172 0.015625)"/>
    <use xlink:href="#DejaVuSans-67" transform="translate(1770.830078 0.015625)"/>
    <use xlink:href="#DejaVuSans-6f" transform="translate(1834.306641 0.015625)"/>
    <use xlink:href="#DejaVuSans-20" transform="translate(1895.488281 0.015625)"/>
    <use xlink:href="#DejaVuSans-Oblique-78" transform="translate(1927.275391 0.015625)"/>
    <use xlink:href="#DejaVuSans-Oblique-6a" transform="translate(1986.455078 -16.390625) scale(0.7)"/>
    <use xlink:href="#DejaVuSans-20" transform="translate(2008.637695 0.015625)"/>
    <use xlink:href="#DejaVuSans-61" transform="translate(2040.424805 0.015625)"/>
    <use xlink:href="#DejaVuSans-67" transform="translate(2101.704102 0.015625)"/>
    <use xlink:href="#DejaVuSans-65" transform="translate(2165.180664 0.015625)"/>
    <use xlink:href="#DejaVuSans-6e" transform="translate(2226.704102 0.015625)"/>
    <use xlink:href="#DejaVuSans-74" transform="translate(2290.083008 0.015625)"/>
    <use xlink:href="#DejaVuSans-65" transform="translate(2329.291992 0.015625)"/>
    <use xlink:href="#DejaVuSans-20" transform="translate(2390.81543 0.015625)"/>
    <use xlink:href="#DejaVuSans-73" transform="translate(2422.602539 0.015625)"/>
    <use xlink:href="#DejaVuSans-75" transform="translate(2474.702148 0.015625)"/>
    <use xlink:href="#DejaVuSans-6c" transform="translate(2538.081055 0.015625)"/>
    <use xlink:href="#DejaVuSans-6c" transform="translate(2565.864258 0.015625)"/>
    <use xlink:href="#DejaVuSans-61" transform="translate(2593.647461 0.015625)"/>
    <use xlink:href="#DejaVuSans-20" transform="translate(2654.926758 0.015625)"/>
    <use xlink:href="#DejaVuSans-66" transform="translate(2686.713867 0.015625)"/>
    <use xlink:href="#DejaVuSans-61" transform="translate(2721.918945 0.015625)"/>
    <use xlink:href="#DejaVuSans-63" transform="translate(2783.198242 0.015625)"/>
    <use xlink:href="#DejaVuSans-63" transform="translate(2838.178711 0.015625)"/>
    <use xlink:href="#DejaVuSans-69" transform="translate(2893.15918 0.015625)"/>
    <use xlink:href="#DejaVuSans-61" transform="translate(2920.942383 0.015625)"/>
    <use xlink:href="#DejaVuSans-20" transform="translate(2982.22168 0.015625)"/>
    <use xlink:href="#DejaVuSans-6c" transform="translate(3014.008789 0.015625)"/>
    <use xlink:href="#DejaVuSans-61" transform="translate(3041.791992 0.015625)"/>
    <use xlink:href="#DejaVuSans-20" transform="translate(3103.071289 0.015625)"/>
    <use xlink:href="#DejaVuSans-63" transform="translate(3134.858398 0.015625)"/>
    <use xlink:href="#DejaVuSans-75" transform="translate(3189.838867 0.015625)"/>
    <use xlink:href="#DejaVuSans-69" transform="translate(3253.217773 0.015625)"/>
    <use xlink:href="#DejaVuSans-20" transform="translate(3281.000977 0.015625)"/>
    <use xlink:href="#DejaVuSans-6e" transform="translate(3312.788086 0.015625)"/>
    <use xlink:href="#DejaVuSans-6f" transform="translate(3376.166992 0.015625)"/>
    <use xlink:href="#DejaVuSans-72" transform="translate(3437.348633 0.015625)"/>
    <use xlink:href="#DejaVuSans-6d" transform="translate(3478.461914 0.015625)"/>
    <use xlink:href="#DejaVuSans-61" transform="translate(3575.874023 0.015625)"/>
    <use xlink:href="#DejaVuSans-6c" transform="translate(3637.15332 0.015625)"/>
    <use xlink:href="#DejaVuSans-65" transform="translate(3664.936523 0.015625)"/>
    <use xlink:href="#DejaVuSans-20" transform="translate(3726.459961 0.015625)"/>
    <use xlink:href="#DejaVuSans-e8" transform="translate(3758.24707 0.015625)"/>
    <use xlink:href="#DejaVuSans-20" transform="translate(3819.770508 0.015625)"/>
    <use xlink:href="#DejaVuSans-70" transform="translate(3851.557617 0.015625)"/>
    <use xlink:href="#DejaVuSans-61" transform="translate(3915.03418 0.015625)"/>
    <use xlink:href="#DejaVuSans-72" transform="translate(3976.313477 0.015625)"/>
    <use xlink:href="#DejaVuSans-61" transform="translate(4017.426758 0.015625)"/>
    <use xlink:href="#DejaVuSans-6c" transform="translate(4078.706055 0.015625)"/>
    <use xlink:href="#DejaVuSans-6c" transform="translate(4106.489258 0.015625)"/>
    <use xlink:href="#DejaVuSans-65" transform="translate(4134.272461 0.015625)"/>
    <use xlink:href="#DejaVuSans-6c" transform="translate(4195.795898 0.015625)"/>
    <use xlink:href="#DejaVuSans-61" transform="translate(4223.579102 0.015625)"/>
    <use xlink:href="#DejaVuSans-20" transform="translate(4284.858398 0.015625)"/>
    <use xlink:href="#DejaVuSans-61" transform="translate(4316.645508 0.015625)"/>
    <use xlink:href="#DejaVuSans-20" transform="translate(4377.924805 0.015625)"/>
    <use xlink:href="#DejaVuSans-Oblique-78" transform="translate(4409.711914 0.015625)"/>
    <use xlink:href="#DejaVuSans-Oblique-69" transform="translate(4468.891602 -16.390625) scale(0.7)"/>
    <use xlink:href="#DejaVuSans-2e" transform="translate(4491.074219 0.015625)"/>
   </g>
  </g>
 </g>
 <defs>
  <clipPath id="p51d26e2971">
   <rect x="7.2" y="79.497818" width="365.236364" height="365.236364"/>
  </clipPath>
  <clipPath id="p4ba9f964a3">
   <rect x="445.483636" y="79.497818" width="365.236364" height="365.236364"/>
  </clipPath>
 </defs>
</svg>
