<?xml version="1.0" encoding="utf-8" standalone="no"?>
<!DOCTYPE svg PUBLIC "-//W3C//DTD SVG 1.1//EN"
  "http://www.w3.org/Graphics/SVG/1.1/DTD/svg11.dtd">
<svg xmlns:xlink="http://www.w3.org/1999/xlink" width="759.290625pt" height="421.549344pt" viewBox="0 0 759.290625 421.549344" xmlns="http://www.w3.org/2000/svg" version="1.1">
 <metadata>
  <rdf:RDF xmlns:dc="http://purl.org/dc/elements/1.1/" xmlns:cc="http://creativecommons.org/ns#" xmlns:rdf="http://www.w3.org/1999/02/22-rdf-syntax-ns#">
   <cc:Work>
    <dc:type rdf:resource="http://purl.org/dc/dcmitype/StillImage"/>
    <dc:date>2026-06-16T11:04:12.911590</dc:date>
    <dc:format>image/svg+xml</dc:format>
    <dc:creator>
     <cc:Agent>
      <dc:title>Matplotlib v3.10.8, https://matplotlib.org/</dc:title>
     </cc:Agent>
    </dc:creator>
   </cc:Work>
  </rdf:RDF>
 </metadata>
 <defs>
  <style type="text/css">*{stroke-linejoin: round; stroke-linecap: butt}</style>
 </defs>
 <g id="figure_1">
  <g id="patch_1">
   <path d="M 0 421.549344 
L 759.290625 421.549344 
L 759.290625 0 
L 0 0 
z
" style="fill: #ffffff"/>
  </g>
  <g id="axes_1">
   <g id="patch_2">
    <path d="M 42.145313 374.325656 
L 739.645313 374.325656 
L 739.645313 30.597656 
L 42.145313 30.597656 
z
" style="fill: #ffffff"/>
   </g>
   <g id="patch_3">
    <path d="M 39.336588 374.325656 
L 91.766118 374.325656 
L 91.766118 30.597656 
L 39.336588 30.597656 
z
" clip-path="url(#p4b54013e6e)" style="fill: #1f77b4; opacity: 0.19"/>
   </g>
   <g id="patch_4">
    <path d="M 156.366789 374.325656 
L 208.796319 374.325656 
L 208.796319 30.597656 
L 156.366789 30.597656 
z
" clip-path="url(#p4b54013e6e)" style="fill: #1f77b4; opacity: 0.19"/>
   </g>
   <g id="patch_5">
    <path d="M 273.39699 374.325656 
L 325.826521 374.325656 
L 325.826521 30.597656 
L 273.39699 30.597656 
z
" clip-path="url(#p4b54013e6e)" style="fill: #1f77b4; opacity: 0.19"/>
   </g>
   <g id="patch_6">
    <path d="M 390.427192 374.325656 
L 442.856722 374.325656 
L 442.856722 30.597656 
L 390.427192 30.597656 
z
" clip-path="url(#p4b54013e6e)" style="fill: #1f77b4; opacity: 0.19"/>
   </g>
   <g id="patch_7">
    <path d="M 507.457393 374.325656 
L 559.886923 374.325656 
L 559.886923 30.597656 
L 507.457393 30.597656 
z
" clip-path="url(#p4b54013e6e)" style="fill: #1f77b4; opacity: 0.19"/>
   </g>
   <g id="patch_8">
    <path d="M 624.487594 374.325656 
L 676.917125 374.325656 
L 676.917125 30.597656 
L 624.487594 30.597656 
z
" clip-path="url(#p4b54013e6e)" style="fill: #1f77b4; opacity: 0.19"/>
   </g>
   <g id="patch_9">
    <path d="M 741.517796 374.325656 
L 793.947326 374.325656 
L 793.947326 30.597656 
L 741.517796 30.597656 
z
" clip-path="url(#p4b54013e6e)" style="fill: #1f77b4; opacity: 0.19"/>
   </g>
   <g id="patch_10">
    <path d="M 91.766118 374.325656 
L 156.366789 374.325656 
L 156.366789 30.597656 
L 91.766118 30.597656 
z
" clip-path="url(#p4b54013e6e)" style="fill: #1f77b4; opacity: 0.05"/>
   </g>
   <g id="patch_11">
    <path d="M 208.796319 374.325656 
L 273.39699 374.325656 
L 273.39699 30.597656 
L 208.796319 30.597656 
z
" clip-path="url(#p4b54013e6e)" style="fill: #1f77b4; opacity: 0.05"/>
   </g>
   <g id="patch_12">
    <path d="M 325.826521 374.325656 
L 390.427192 374.325656 
L 390.427192 30.597656 
L 325.826521 30.597656 
z
" clip-path="url(#p4b54013e6e)" style="fill: #1f77b4; opacity: 0.05"/>
   </g>
   <g id="patch_13">
    <path d="M 442.856722 374.325656 
L 507.457393 374.325656 
L 507.457393 30.597656 
L 442.856722 30.597656 
z
" clip-path="url(#p4b54013e6e)" style="fill: #1f77b4; opacity: 0.05"/>
   </g>
   <g id="patch_14">
    <path d="M 559.886923 374.325656 
L 624.487594 374.325656 
L 624.487594 30.597656 
L 559.886923 30.597656 
z
" clip-path="url(#p4b54013e6e)" style="fill: #1f77b4; opacity: 0.05"/>
   </g>
   <g id="patch_15">
    <path d="M 676.917125 374.325656 
L 741.517796 374.325656 
L 741.517796 30.597656 
L 676.917125 30.597656 
z
" clip-path="url(#p4b54013e6e)" style="fill: #1f77b4; opacity: 0.05"/>
   </g>
   <g id="matplotlib.axis_1">
    <g id="xtick_1">
     <g id="line2d_1">
      <path d="M 65.551353 374.325656 
L 65.551353 30.597656 
" clip-path="url(#p4b54013e6e)" style="fill: none; stroke: #b0b0b0; stroke-opacity: 0.13; stroke-width: 0.8; stroke-linecap: square"/>
     </g>
     <g id="line2d_2">
      <defs>
       <path id="m183c96b5f5" d="M 0 0 
L 0 3.5 
" style="stroke: #000000; stroke-width: 0.8"/>
      </defs>
      <g>
       <use xlink:href="#m183c96b5f5" x="65.551353" y="374.325656" style="stroke: #000000; stroke-width: 0.8"/>
      </g>
     </g>
     <g id="text_1">
      <!-- 0 -->
      <g transform="translate(62.370103 388.924094) scale(0.1 -0.1)">
       <defs>
        <path id="DejaVuSans-30" d="M 2034 4250 
Q 1547 4250 1301 3770 
Q 1056 3291 1056 2328 
Q 1056 1369 1301 889 
Q 1547 409 2034 409 
Q 2525 409 2770 889 
Q 3016 1369 3016 2328 
Q 3016 3291 2770 3770 
Q 2525 4250 2034 4250 
z
M 2034 4750 
Q 2819 4750 3233 4129 
Q 3647 3509 3647 2328 
Q 3647 1150 3233 529 
Q 2819 -91 2034 -91 
Q 1250 -91 836 529 
Q 422 1150 422 2328 
Q 422 3509 836 4129 
Q 1250 4750 2034 4750 
z
" transform="scale(0.015625)"/>
       </defs>
       <use xlink:href="#DejaVuSans-30"/>
      </g>
     </g>
    </g>
    <g id="xtick_2">
     <g id="line2d_3">
      <path d="M 159.175514 374.325656 
L 159.175514 30.597656 
" clip-path="url(#p4b54013e6e)" style="fill: none; stroke: #b0b0b0; stroke-opacity: 0.13; stroke-width: 0.8; stroke-linecap: square"/>
     </g>
     <g id="line2d_4">
      <g>
       <use xlink:href="#m183c96b5f5" x="159.175514" y="374.325656" style="stroke: #000000; stroke-width: 0.8"/>
      </g>
     </g>
     <g id="text_2">
      <!-- 1 -->
      <g transform="translate(155.994264 388.924094) scale(0.1 -0.1)">
       <defs>
        <path id="DejaVuSans-31" d="M 794 531 
L 1825 531 
L 1825 4091 
L 703 3866 
L 703 4441 
L 1819 4666 
L 2450 4666 
L 2450 531 
L 3481 531 
L 3481 0 
L 794 0 
L 794 531 
z
" transform="scale(0.015625)"/>
       </defs>
       <use xlink:href="#DejaVuSans-31"/>
      </g>
     </g>
    </g>
    <g id="xtick_3">
     <g id="line2d_5">
      <path d="M 252.799675 374.325656 
L 252.799675 30.597656 
" clip-path="url(#p4b54013e6e)" style="fill: none; stroke: #b0b0b0; stroke-opacity: 0.13; stroke-width: 0.8; stroke-linecap: square"/>
     </g>
     <g id="line2d_6">
      <g>
       <use xlink:href="#m183c96b5f5" x="252.799675" y="374.325656" style="stroke: #000000; stroke-width: 0.8"/>
      </g>
     </g>
     <g id="text_3">
      <!-- 2 -->
      <g transform="translate(249.618425 388.924094) scale(0.1 -0.1)">
       <defs>
        <path id="DejaVuSans-32" d="M 1228 531 
L 3431 531 
L 3431 0 
L 469 0 
L 469 531 
Q 828 903 1448 1529 
Q 2069 2156 2228 2338 
Q 2531 2678 2651 2914 
Q 2772 3150 2772 3378 
Q 2772 3750 2511 3984 
Q 2250 4219 1831 4219 
Q 1534 4219 1204 4116 
Q 875 4013 500 3803 
L 500 4441 
Q 881 4594 1212 4672 
Q 1544 4750 1819 4750 
Q 2544 4750 2975 4387 
Q 3406 4025 3406 3419 
Q 3406 3131 3298 2873 
Q 3191 2616 2906 2266 
Q 2828 2175 2409 1742 
Q 1991 1309 1228 531 
z
" transform="scale(0.015625)"/>
       </defs>
       <use xlink:href="#DejaVuSans-32"/>
      </g>
     </g>
    </g>
    <g id="xtick_4">
     <g id="line2d_7">
      <path d="M 346.423836 374.325656 
L 346.423836 30.597656 
" clip-path="url(#p4b54013e6e)" style="fill: none; stroke: #b0b0b0; stroke-opacity: 0.13; stroke-width: 0.8; stroke-linecap: square"/>
     </g>
     <g id="line2d_8">
      <g>
       <use xlink:href="#m183c96b5f5" x="346.423836" y="374.325656" style="stroke: #000000; stroke-width: 0.8"/>
      </g>
     </g>
     <g id="text_4">
      <!-- 3 -->
      <g transform="translate(343.242586 388.924094) scale(0.1 -0.1)">
       <defs>
        <path id="DejaVuSans-33" d="M 2597 2516 
Q 3050 2419 3304 2112 
Q 3559 1806 3559 1356 
Q 3559 666 3084 287 
Q 2609 -91 1734 -91 
Q 1441 -91 1130 -33 
Q 819 25 488 141 
L 488 750 
Q 750 597 1062 519 
Q 1375 441 1716 441 
Q 2309 441 2620 675 
Q 2931 909 2931 1356 
Q 2931 1769 2642 2001 
Q 2353 2234 1838 2234 
L 1294 2234 
L 1294 2753 
L 1863 2753 
Q 2328 2753 2575 2939 
Q 2822 3125 2822 3475 
Q 2822 3834 2567 4026 
Q 2313 4219 1838 4219 
Q 1578 4219 1281 4162 
Q 984 4106 628 3988 
L 628 4550 
Q 988 4650 1302 4700 
Q 1616 4750 1894 4750 
Q 2613 4750 3031 4423 
Q 3450 4097 3450 3541 
Q 3450 3153 3228 2886 
Q 3006 2619 2597 2516 
z
" transform="scale(0.015625)"/>
       </defs>
       <use xlink:href="#DejaVuSans-33"/>
      </g>
     </g>
    </g>
    <g id="xtick_5">
     <g id="line2d_9">
      <path d="M 440.047997 374.325656 
L 440.047997 30.597656 
" clip-path="url(#p4b54013e6e)" style="fill: none; stroke: #b0b0b0; stroke-opacity: 0.13; stroke-width: 0.8; stroke-linecap: square"/>
     </g>
     <g id="line2d_10">
      <g>
       <use xlink:href="#m183c96b5f5" x="440.047997" y="374.325656" style="stroke: #000000; stroke-width: 0.8"/>
      </g>
     </g>
     <g id="text_5">
      <!-- 4 -->
      <g transform="translate(436.866747 388.924094) scale(0.1 -0.1)">
       <defs>
        <path id="DejaVuSans-34" d="M 2419 4116 
L 825 1625 
L 2419 1625 
L 2419 4116 
z
M 2253 4666 
L 3047 4666 
L 3047 1625 
L 3713 1625 
L 3713 1100 
L 3047 1100 
L 3047 0 
L 2419 0 
L 2419 1100 
L 313 1100 
L 313 1709 
L 2253 4666 
z
" transform="scale(0.015625)"/>
       </defs>
       <use xlink:href="#DejaVuSans-34"/>
      </g>
     </g>
    </g>
    <g id="xtick_6">
     <g id="line2d_11">
      <path d="M 533.672158 374.325656 
L 533.672158 30.597656 
" clip-path="url(#p4b54013e6e)" style="fill: none; stroke: #b0b0b0; stroke-opacity: 0.13; stroke-width: 0.8; stroke-linecap: square"/>
     </g>
     <g id="line2d_12">
      <g>
       <use xlink:href="#m183c96b5f5" x="533.672158" y="374.325656" style="stroke: #000000; stroke-width: 0.8"/>
      </g>
     </g>
     <g id="text_6">
      <!-- 5 -->
      <g transform="translate(530.490908 388.924094) scale(0.1 -0.1)">
       <defs>
        <path id="DejaVuSans-35" d="M 691 4666 
L 3169 4666 
L 3169 4134 
L 1269 4134 
L 1269 2991 
Q 1406 3038 1543 3061 
Q 1681 3084 1819 3084 
Q 2600 3084 3056 2656 
Q 3513 2228 3513 1497 
Q 3513 744 3044 326 
Q 2575 -91 1722 -91 
Q 1428 -91 1123 -41 
Q 819 9 494 109 
L 494 744 
Q 775 591 1075 516 
Q 1375 441 1709 441 
Q 2250 441 2565 725 
Q 2881 1009 2881 1497 
Q 2881 1984 2565 2268 
Q 2250 2553 1709 2553 
Q 1456 2553 1204 2497 
Q 953 2441 691 2322 
L 691 4666 
z
" transform="scale(0.015625)"/>
       </defs>
       <use xlink:href="#DejaVuSans-35"/>
      </g>
     </g>
    </g>
    <g id="xtick_7">
     <g id="line2d_13">
      <path d="M 627.296319 374.325656 
L 627.296319 30.597656 
" clip-path="url(#p4b54013e6e)" style="fill: none; stroke: #b0b0b0; stroke-opacity: 0.13; stroke-width: 0.8; stroke-linecap: square"/>
     </g>
     <g id="line2d_14">
      <g>
       <use xlink:href="#m183c96b5f5" x="627.296319" y="374.325656" style="stroke: #000000; stroke-width: 0.8"/>
      </g>
     </g>
     <g id="text_7">
      <!-- 6 -->
      <g transform="translate(624.115069 388.924094) scale(0.1 -0.1)">
       <defs>
        <path id="DejaVuSans-36" d="M 2113 2584 
Q 1688 2584 1439 2293 
Q 1191 2003 1191 1497 
Q 1191 994 1439 701 
Q 1688 409 2113 409 
Q 2538 409 2786 701 
Q 3034 994 3034 1497 
Q 3034 2003 2786 2293 
Q 2538 2584 2113 2584 
z
M 3366 4563 
L 3366 3988 
Q 3128 4100 2886 4159 
Q 2644 4219 2406 4219 
Q 1781 4219 1451 3797 
Q 1122 3375 1075 2522 
Q 1259 2794 1537 2939 
Q 1816 3084 2150 3084 
Q 2853 3084 3261 2657 
Q 3669 2231 3669 1497 
Q 3669 778 3244 343 
Q 2819 -91 2113 -91 
Q 1303 -91 875 529 
Q 447 1150 447 2328 
Q 447 3434 972 4092 
Q 1497 4750 2381 4750 
Q 2619 4750 2861 4703 
Q 3103 4656 3366 4563 
z
" transform="scale(0.015625)"/>
       </defs>
       <use xlink:href="#DejaVuSans-36"/>
      </g>
     </g>
    </g>
    <g id="xtick_8">
     <g id="line2d_15">
      <path d="M 720.92048 374.325656 
L 720.92048 30.597656 
" clip-path="url(#p4b54013e6e)" style="fill: none; stroke: #b0b0b0; stroke-opacity: 0.13; stroke-width: 0.8; stroke-linecap: square"/>
     </g>
     <g id="line2d_16">
      <g>
       <use xlink:href="#m183c96b5f5" x="720.92048" y="374.325656" style="stroke: #000000; stroke-width: 0.8"/>
      </g>
     </g>
     <g id="text_8">
      <!-- 7 -->
      <g transform="translate(717.73923 388.924094) scale(0.1 -0.1)">
       <defs>
        <path id="DejaVuSans-37" d="M 525 4666 
L 3525 4666 
L 3525 4397 
L 1831 0 
L 1172 0 
L 2766 4134 
L 525 4134 
L 525 4666 
z
" transform="scale(0.015625)"/>
       </defs>
       <use xlink:href="#DejaVuSans-37"/>
      </g>
     </g>
    </g>
    <g id="text_9">
     <!-- coordinata cristallina unidimensionale $r$ -->
     <g transform="translate(291.945312 402.602219) scale(0.1 -0.1)">
      <defs>
       <path id="DejaVuSans-63" d="M 3122 3366 
L 3122 2828 
Q 2878 2963 2633 3030 
Q 2388 3097 2138 3097 
Q 1578 3097 1268 2742 
Q 959 2388 959 1747 
Q 959 1106 1268 751 
Q 1578 397 2138 397 
Q 2388 397 2633 464 
Q 2878 531 3122 666 
L 3122 134 
Q 2881 22 2623 -34 
Q 2366 -91 2075 -91 
Q 1284 -91 818 406 
Q 353 903 353 1747 
Q 353 2603 823 3093 
Q 1294 3584 2113 3584 
Q 2378 3584 2631 3529 
Q 2884 3475 3122 3366 
z
" transform="scale(0.015625)"/>
       <path id="DejaVuSans-6f" d="M 1959 3097 
Q 1497 3097 1228 2736 
Q 959 2375 959 1747 
Q 959 1119 1226 758 
Q 1494 397 1959 397 
Q 2419 397 2687 759 
Q 2956 1122 2956 1747 
Q 2956 2369 2687 2733 
Q 2419 3097 1959 3097 
z
M 1959 3584 
Q 2709 3584 3137 3096 
Q 3566 2609 3566 1747 
Q 3566 888 3137 398 
Q 2709 -91 1959 -91 
Q 1206 -91 779 398 
Q 353 888 353 1747 
Q 353 2609 779 3096 
Q 1206 3584 1959 3584 
z
" transform="scale(0.015625)"/>
       <path id="DejaVuSans-72" d="M 2631 2963 
Q 2534 3019 2420 3045 
Q 2306 3072 2169 3072 
Q 1681 3072 1420 2755 
Q 1159 2438 1159 1844 
L 1159 0 
L 581 0 
L 581 3500 
L 1159 3500 
L 1159 2956 
Q 1341 3275 1631 3429 
Q 1922 3584 2338 3584 
Q 2397 3584 2469 3576 
Q 2541 3569 2628 3553 
L 2631 2963 
z
" transform="scale(0.015625)"/>
       <path id="DejaVuSans-64" d="M 2906 2969 
L 2906 4863 
L 3481 4863 
L 3481 0 
L 2906 0 
L 2906 525 
Q 2725 213 2448 61 
Q 2172 -91 1784 -91 
Q 1150 -91 751 415 
Q 353 922 353 1747 
Q 353 2572 751 3078 
Q 1150 3584 1784 3584 
Q 2172 3584 2448 3432 
Q 2725 3281 2906 2969 
z
M 947 1747 
Q 947 1113 1208 752 
Q 1469 391 1925 391 
Q 2381 391 2643 752 
Q 2906 1113 2906 1747 
Q 2906 2381 2643 2742 
Q 2381 3103 1925 3103 
Q 1469 3103 1208 2742 
Q 947 2381 947 1747 
z
" transform="scale(0.015625)"/>
       <path id="DejaVuSans-69" d="M 603 3500 
L 1178 3500 
L 1178 0 
L 603 0 
L 603 3500 
z
M 603 4863 
L 1178 4863 
L 1178 4134 
L 603 4134 
L 603 4863 
z
" transform="scale(0.015625)"/>
       <path id="DejaVuSans-6e" d="M 3513 2113 
L 3513 0 
L 2938 0 
L 2938 2094 
Q 2938 2591 2744 2837 
Q 2550 3084 2163 3084 
Q 1697 3084 1428 2787 
Q 1159 2491 1159 1978 
L 1159 0 
L 581 0 
L 581 3500 
L 1159 3500 
L 1159 2956 
Q 1366 3272 1645 3428 
Q 1925 3584 2291 3584 
Q 2894 3584 3203 3211 
Q 3513 2838 3513 2113 
z
" transform="scale(0.015625)"/>
       <path id="DejaVuSans-61" d="M 2194 1759 
Q 1497 1759 1228 1600 
Q 959 1441 959 1056 
Q 959 750 1161 570 
Q 1363 391 1709 391 
Q 2188 391 2477 730 
Q 2766 1069 2766 1631 
L 2766 1759 
L 2194 1759 
z
M 3341 1997 
L 3341 0 
L 2766 0 
L 2766 531 
Q 2569 213 2275 61 
Q 1981 -91 1556 -91 
Q 1019 -91 701 211 
Q 384 513 384 1019 
Q 384 1609 779 1909 
Q 1175 2209 1959 2209 
L 2766 2209 
L 2766 2266 
Q 2766 2663 2505 2880 
Q 2244 3097 1772 3097 
Q 1472 3097 1187 3025 
Q 903 2953 641 2809 
L 641 3341 
Q 956 3463 1253 3523 
Q 1550 3584 1831 3584 
Q 2591 3584 2966 3190 
Q 3341 2797 3341 1997 
z
" transform="scale(0.015625)"/>
       <path id="DejaVuSans-74" d="M 1172 4494 
L 1172 3500 
L 2356 3500 
L 2356 3053 
L 1172 3053 
L 1172 1153 
Q 1172 725 1289 603 
Q 1406 481 1766 481 
L 2356 481 
L 2356 0 
L 1766 0 
Q 1100 0 847 248 
Q 594 497 594 1153 
L 594 3053 
L 172 3053 
L 172 3500 
L 594 3500 
L 594 4494 
L 1172 4494 
z
" transform="scale(0.015625)"/>
       <path id="DejaVuSans-20" transform="scale(0.015625)"/>
       <path id="DejaVuSans-73" d="M 2834 3397 
L 2834 2853 
Q 2591 2978 2328 3040 
Q 2066 3103 1784 3103 
Q 1356 3103 1142 2972 
Q 928 2841 928 2578 
Q 928 2378 1081 2264 
Q 1234 2150 1697 2047 
L 1894 2003 
Q 2506 1872 2764 1633 
Q 3022 1394 3022 966 
Q 3022 478 2636 193 
Q 2250 -91 1575 -91 
Q 1294 -91 989 -36 
Q 684 19 347 128 
L 347 722 
Q 666 556 975 473 
Q 1284 391 1588 391 
Q 1994 391 2212 530 
Q 2431 669 2431 922 
Q 2431 1156 2273 1281 
Q 2116 1406 1581 1522 
L 1381 1569 
Q 847 1681 609 1914 
Q 372 2147 372 2553 
Q 372 3047 722 3315 
Q 1072 3584 1716 3584 
Q 2034 3584 2315 3537 
Q 2597 3491 2834 3397 
z
" transform="scale(0.015625)"/>
       <path id="DejaVuSans-6c" d="M 603 4863 
L 1178 4863 
L 1178 0 
L 603 0 
L 603 4863 
z
" transform="scale(0.015625)"/>
       <path id="DejaVuSans-75" d="M 544 1381 
L 544 3500 
L 1119 3500 
L 1119 1403 
Q 1119 906 1312 657 
Q 1506 409 1894 409 
Q 2359 409 2629 706 
Q 2900 1003 2900 1516 
L 2900 3500 
L 3475 3500 
L 3475 0 
L 2900 0 
L 2900 538 
Q 2691 219 2414 64 
Q 2138 -91 1772 -91 
Q 1169 -91 856 284 
Q 544 659 544 1381 
z
M 1991 3584 
L 1991 3584 
z
" transform="scale(0.015625)"/>
       <path id="DejaVuSans-6d" d="M 3328 2828 
Q 3544 3216 3844 3400 
Q 4144 3584 4550 3584 
Q 5097 3584 5394 3201 
Q 5691 2819 5691 2113 
L 5691 0 
L 5113 0 
L 5113 2094 
Q 5113 2597 4934 2840 
Q 4756 3084 4391 3084 
Q 3944 3084 3684 2787 
Q 3425 2491 3425 1978 
L 3425 0 
L 2847 0 
L 2847 2094 
Q 2847 2600 2669 2842 
Q 2491 3084 2119 3084 
Q 1678 3084 1418 2786 
Q 1159 2488 1159 1978 
L 1159 0 
L 581 0 
L 581 3500 
L 1159 3500 
L 1159 2956 
Q 1356 3278 1631 3431 
Q 1906 3584 2284 3584 
Q 2666 3584 2933 3390 
Q 3200 3197 3328 2828 
z
" transform="scale(0.015625)"/>
       <path id="DejaVuSans-65" d="M 3597 1894 
L 3597 1613 
L 953 1613 
Q 991 1019 1311 708 
Q 1631 397 2203 397 
Q 2534 397 2845 478 
Q 3156 559 3463 722 
L 3463 178 
Q 3153 47 2828 -22 
Q 2503 -91 2169 -91 
Q 1331 -91 842 396 
Q 353 884 353 1716 
Q 353 2575 817 3079 
Q 1281 3584 2069 3584 
Q 2775 3584 3186 3129 
Q 3597 2675 3597 1894 
z
M 3022 2063 
Q 3016 2534 2758 2815 
Q 2500 3097 2075 3097 
Q 1594 3097 1305 2825 
Q 1016 2553 972 2059 
L 3022 2063 
z
" transform="scale(0.015625)"/>
       <path id="DejaVuSans-Oblique-72" d="M 2853 2969 
Q 2766 3016 2653 3041 
Q 2541 3066 2413 3066 
Q 1953 3066 1609 2717 
Q 1266 2369 1153 1784 
L 800 0 
L 225 0 
L 909 3500 
L 1484 3500 
L 1375 2956 
Q 1603 3259 1920 3421 
Q 2238 3584 2597 3584 
Q 2691 3584 2781 3573 
Q 2872 3563 2963 3538 
L 2853 2969 
z
" transform="scale(0.015625)"/>
      </defs>
      <use xlink:href="#DejaVuSans-63" transform="translate(0 0.015625)"/>
      <use xlink:href="#DejaVuSans-6f" transform="translate(54.980469 0.015625)"/>
      <use xlink:href="#DejaVuSans-6f" transform="translate(116.162109 0.015625)"/>
      <use xlink:href="#DejaVuSans-72" transform="translate(177.34375 0.015625)"/>
      <use xlink:href="#DejaVuSans-64" transform="translate(218.457031 0.015625)"/>
      <use xlink:href="#DejaVuSans-69" transform="translate(281.933594 0.015625)"/>
      <use xlink:href="#DejaVuSans-6e" transform="translate(309.716797 0.015625)"/>
      <use xlink:href="#DejaVuSans-61" transform="translate(373.095703 0.015625)"/>
      <use xlink:href="#DejaVuSans-74" transform="translate(434.375 0.015625)"/>
      <use xlink:href="#DejaVuSans-61" transform="translate(473.583984 0.015625)"/>
      <use xlink:href="#DejaVuSans-20" transform="translate(534.863281 0.015625)"/>
      <use xlink:href="#DejaVuSans-63" transform="translate(566.650391 0.015625)"/>
      <use xlink:href="#DejaVuSans-72" transform="translate(621.630859 0.015625)"/>
      <use xlink:href="#DejaVuSans-69" transform="translate(662.744141 0.015625)"/>
      <use xlink:href="#DejaVuSans-73" transform="translate(690.527344 0.015625)"/>
      <use xlink:href="#DejaVuSans-74" transform="translate(742.626953 0.015625)"/>
      <use xlink:href="#DejaVuSans-61" transform="translate(781.835938 0.015625)"/>
      <use xlink:href="#DejaVuSans-6c" transform="translate(843.115234 0.015625)"/>
      <use xlink:href="#DejaVuSans-6c" transform="translate(870.898438 0.015625)"/>
      <use xlink:href="#DejaVuSans-69" transform="translate(898.681641 0.015625)"/>
      <use xlink:href="#DejaVuSans-6e" transform="translate(926.464844 0.015625)"/>
      <use xlink:href="#DejaVuSans-61" transform="translate(989.84375 0.015625)"/>
      <use xlink:href="#DejaVuSans-20" transform="translate(1051.123047 0.015625)"/>
      <use xlink:href="#DejaVuSans-75" transform="translate(1082.910156 0.015625)"/>
      <use xlink:href="#DejaVuSans-6e" transform="translate(1146.289062 0.015625)"/>
      <use xlink:href="#DejaVuSans-69" transform="translate(1209.667969 0.015625)"/>
      <use xlink:href="#DejaVuSans-64" transform="translate(1237.451172 0.015625)"/>
      <use xlink:href="#DejaVuSans-69" transform="translate(1300.927734 0.015625)"/>
      <use xlink:href="#DejaVuSans-6d" transform="translate(1328.710938 0.015625)"/>
      <use xlink:href="#DejaVuSans-65" transform="translate(1426.123047 0.015625)"/>
      <use xlink:href="#DejaVuSans-6e" transform="translate(1487.646484 0.015625)"/>
      <use xlink:href="#DejaVuSans-73" transform="translate(1551.025391 0.015625)"/>
      <use xlink:href="#DejaVuSans-69" transform="translate(1603.125 0.015625)"/>
      <use xlink:href="#DejaVuSans-6f" transform="translate(1630.908203 0.015625)"/>
      <use xlink:href="#DejaVuSans-6e" transform="translate(1692.089844 0.015625)"/>
      <use xlink:href="#DejaVuSans-61" transform="translate(1755.46875 0.015625)"/>
      <use xlink:href="#DejaVuSans-6c" transform="translate(1816.748047 0.015625)"/>
      <use xlink:href="#DejaVuSans-65" transform="translate(1844.53125 0.015625)"/>
      <use xlink:href="#DejaVuSans-20" transform="translate(1906.054688 0.015625)"/>
      <use xlink:href="#DejaVuSans-Oblique-72" transform="translate(1937.841797 0.015625)"/>
     </g>
    </g>
   </g>
   <g id="matplotlib.axis_2">
    <g id="text_10">
     <!-- potenziale del campo cristallino $V_{\rm cfp}(r)$ -->
     <g transform="translate(35.045312 298.511656) rotate(-90) scale(0.1 -0.1)">
      <defs>
       <path id="DejaVuSans-70" d="M 1159 525 
L 1159 -1331 
L 581 -1331 
L 581 3500 
L 1159 3500 
L 1159 2969 
Q 1341 3281 1617 3432 
Q 1894 3584 2278 3584 
Q 2916 3584 3314 3078 
Q 3713 2572 3713 1747 
Q 3713 922 3314 415 
Q 2916 -91 2278 -91 
Q 1894 -91 1617 61 
Q 1341 213 1159 525 
z
M 3116 1747 
Q 3116 2381 2855 2742 
Q 2594 3103 2138 3103 
Q 1681 3103 1420 2742 
Q 1159 2381 1159 1747 
Q 1159 1113 1420 752 
Q 1681 391 2138 391 
Q 2594 391 2855 752 
Q 3116 1113 3116 1747 
z
" transform="scale(0.015625)"/>
       <path id="DejaVuSans-7a" d="M 353 3500 
L 3084 3500 
L 3084 2975 
L 922 459 
L 3084 459 
L 3084 0 
L 275 0 
L 275 525 
L 2438 3041 
L 353 3041 
L 353 3500 
z
" transform="scale(0.015625)"/>
       <path id="DejaVuSans-Oblique-56" d="M 1319 0 
L 500 4666 
L 1119 4666 
L 1797 653 
L 4063 4666 
L 4750 4666 
L 2053 0 
L 1319 0 
z
" transform="scale(0.015625)"/>
       <path id="DejaVuSans-66" d="M 2375 4863 
L 2375 4384 
L 1825 4384 
Q 1516 4384 1395 4259 
Q 1275 4134 1275 3809 
L 1275 3500 
L 2222 3500 
L 2222 3053 
L 1275 3053 
L 1275 0 
L 697 0 
L 697 3053 
L 147 3053 
L 147 3500 
L 697 3500 
L 697 3744 
Q 697 4328 969 4595 
Q 1241 4863 1831 4863 
L 2375 4863 
z
" transform="scale(0.015625)"/>
       <path id="DejaVuSans-28" d="M 1984 4856 
Q 1566 4138 1362 3434 
Q 1159 2731 1159 2009 
Q 1159 1288 1364 580 
Q 1569 -128 1984 -844 
L 1484 -844 
Q 1016 -109 783 600 
Q 550 1309 550 2009 
Q 550 2706 781 3412 
Q 1013 4119 1484 4856 
L 1984 4856 
z
" transform="scale(0.015625)"/>
       <path id="DejaVuSans-29" d="M 513 4856 
L 1013 4856 
Q 1481 4119 1714 3412 
Q 1947 2706 1947 2009 
Q 1947 1309 1714 600 
Q 1481 -109 1013 -844 
L 513 -844 
Q 928 -128 1133 580 
Q 1338 1288 1338 2009 
Q 1338 2731 1133 3434 
Q 928 4138 513 4856 
z
" transform="scale(0.015625)"/>
      </defs>
      <use xlink:href="#DejaVuSans-70" transform="translate(0 0.015625)"/>
      <use xlink:href="#DejaVuSans-6f" transform="translate(63.476562 0.015625)"/>
      <use xlink:href="#DejaVuSans-74" transform="translate(124.658203 0.015625)"/>
      <use xlink:href="#DejaVuSans-65" transform="translate(163.867188 0.015625)"/>
      <use xlink:href="#DejaVuSans-6e" transform="translate(225.390625 0.015625)"/>
      <use xlink:href="#DejaVuSans-7a" transform="translate(288.769531 0.015625)"/>
      <use xlink:href="#DejaVuSans-69" transform="translate(341.259766 0.015625)"/>
      <use xlink:href="#DejaVuSans-61" transform="translate(369.042969 0.015625)"/>
      <use xlink:href="#DejaVuSans-6c" transform="translate(430.322266 0.015625)"/>
      <use xlink:href="#DejaVuSans-65" transform="translate(458.105469 0.015625)"/>
      <use xlink:href="#DejaVuSans-20" transform="translate(519.628906 0.015625)"/>
      <use xlink:href="#DejaVuSans-64" transform="translate(551.416016 0.015625)"/>
      <use xlink:href="#DejaVuSans-65" transform="translate(614.892578 0.015625)"/>
      <use xlink:href="#DejaVuSans-6c" transform="translate(676.416016 0.015625)"/>
      <use xlink:href="#DejaVuSans-20" transform="translate(704.199219 0.015625)"/>
      <use xlink:href="#DejaVuSans-63" transform="translate(735.986328 0.015625)"/>
      <use xlink:href="#DejaVuSans-61" transform="translate(790.966797 0.015625)"/>
      <use xlink:href="#DejaVuSans-6d" transform="translate(852.246094 0.015625)"/>
      <use xlink:href="#DejaVuSans-70" transform="translate(949.658203 0.015625)"/>
      <use xlink:href="#DejaVuSans-6f" transform="translate(1013.134766 0.015625)"/>
      <use xlink:href="#DejaVuSans-20" transform="translate(1074.316406 0.015625)"/>
      <use xlink:href="#DejaVuSans-63" transform="translate(1106.103516 0.015625)"/>
      <use xlink:href="#DejaVuSans-72" transform="translate(1161.083984 0.015625)"/>
      <use xlink:href="#DejaVuSans-69" transform="translate(1202.197266 0.015625)"/>
      <use xlink:href="#DejaVuSans-73" transform="translate(1229.980469 0.015625)"/>
      <use xlink:href="#DejaVuSans-74" transform="translate(1282.080078 0.015625)"/>
      <use xlink:href="#DejaVuSans-61" transform="translate(1321.289062 0.015625)"/>
      <use xlink:href="#DejaVuSans-6c" transform="translate(1382.568359 0.015625)"/>
      <use xlink:href="#DejaVuSans-6c" transform="translate(1410.351562 0.015625)"/>
      <use xlink:href="#DejaVuSans-69" transform="translate(1438.134766 0.015625)"/>
      <use xlink:href="#DejaVuSans-6e" transform="translate(1465.917969 0.015625)"/>
      <use xlink:href="#DejaVuSans-6f" transform="translate(1529.296875 0.015625)"/>
      <use xlink:href="#DejaVuSans-20" transform="translate(1590.478516 0.015625)"/>
      <use xlink:href="#DejaVuSans-Oblique-56" transform="translate(1622.265625 0.015625)"/>
      <use xlink:href="#DejaVuSans-63" transform="translate(1690.673828 -16.390625) scale(0.7)"/>
      <use xlink:href="#DejaVuSans-66" transform="translate(1729.160156 -16.390625) scale(0.7)"/>
      <use xlink:href="#DejaVuSans-70" transform="translate(1753.803711 -16.390625) scale(0.7)"/>
      <use xlink:href="#DejaVuSans-28" transform="translate(1800.97168 0.015625)"/>
      <use xlink:href="#DejaVuSans-Oblique-72" transform="translate(1839.985352 0.015625)"/>
      <use xlink:href="#DejaVuSans-29" transform="translate(1881.098633 0.015625)"/>
     </g>
    </g>
   </g>
   <g id="line2d_17">
    <path d="M 41.814844 222.436865 
L 44.979018 240.959131 
L 52.493931 285.629886 
L 54.867061 298.083798 
L 56.84467 307.185388 
L 58.426757 313.424658 
L 59.613322 317.410086 
L 60.799888 320.747297 
L 61.986453 323.396022 
L 62.777496 324.763084 
L 63.56854 325.802245 
L 64.359583 326.507901 
L 65.150627 326.876303 
L 65.94167 326.905597 
L 66.732714 326.595845 
L 67.523757 325.949017 
L 68.314801 324.968983 
L 69.105844 323.661468 
L 70.29241 321.103117 
L 71.478975 317.857915 
L 72.66554 313.966561 
L 74.247627 307.856688 
L 75.829714 300.814281 
L 77.807323 290.92223 
L 80.180453 277.858146 
L 84.135671 254.583049 
L 88.881932 226.972777 
L 91.650584 212.193368 
L 94.023714 200.700656 
L 96.001323 192.066592 
L 97.978932 184.332894 
L 99.956541 177.503382 
L 101.934149 171.553718 
L 103.911758 166.438121 
L 105.493845 162.905776 
L 107.075932 159.833298 
L 108.658019 157.183616 
L 110.240106 154.919443 
L 111.822193 153.004573 
L 113.40428 151.404927 
L 114.986367 150.089368 
L 116.568454 149.030309 
L 118.150541 148.204139 
L 119.732628 147.591512 
L 121.314715 147.177533 
L 122.896802 146.951858 
L 124.478889 146.90875 
L 126.060976 147.047108 
L 127.643063 147.370466 
L 129.22515 147.886982 
L 130.807237 148.6094 
L 132.389324 149.55497 
L 133.971411 150.74531 
L 135.553498 152.206167 
L 137.135585 153.967068 
L 138.717672 156.060796 
L 140.299759 158.522686 
L 141.881846 161.389685 
L 143.463933 164.699184 
L 145.04602 168.487586 
L 146.628107 172.788631 
L 148.210194 177.631502 
L 150.187803 184.480577 
L 152.165411 192.234892 
L 154.14302 200.890252 
L 156.516151 212.408775 
L 158.889281 225.023575 
L 162.053455 243.130516 
L 169.96389 289.153721 
L 171.941499 299.26642 
L 173.919107 308.208797 
L 175.501194 314.327541 
L 176.68776 318.226348 
L 177.874325 321.480095 
L 179.06089 324.048491 
L 179.851934 325.363753 
L 180.642977 326.352533 
L 181.434021 327.009251 
L 182.225064 327.330184 
L 183.016108 327.313513 
L 183.807151 326.95933 
L 184.598195 326.269648 
L 185.389238 325.24837 
L 186.180282 323.901262 
L 187.366847 321.286696 
L 188.553412 317.989189 
L 189.739977 314.049536 
L 191.322064 307.881625 
L 192.904151 300.788527 
L 194.88176 290.843427 
L 197.254891 277.730424 
L 201.210108 254.406719 
L 205.560847 228.995088 
L 208.329499 214.036959 
L 210.70263 202.361559 
L 212.680239 193.564192 
L 214.657847 185.664135 
L 216.635456 178.670722 
L 218.613065 172.563992 
L 220.590674 167.301358 
L 222.172761 163.660029 
L 223.754848 160.486909 
L 225.336935 157.745136 
L 226.919022 155.397316 
L 228.501109 153.406873 
L 230.083196 151.73915 
L 231.665283 150.362278 
L 233.24737 149.247816 
L 234.829457 148.371224 
L 236.411544 147.712178 
L 237.993631 147.254768 
L 239.575718 146.987622 
L 241.157805 146.90397 
L 242.739892 147.001671 
L 244.321979 147.283224 
L 245.904065 147.755757 
L 247.486152 148.430995 
L 249.068239 149.325195 
L 250.650326 150.459014 
L 252.232413 151.857309 
L 253.8145 153.548801 
L 255.396587 155.565604 
L 256.978674 157.942556 
L 258.560761 160.716337 
L 260.142848 163.924353 
L 261.724935 167.60336 
L 263.307022 171.787848 
L 264.889109 176.508182 
L 266.866718 183.198253 
L 268.844327 190.791168 
L 270.821936 199.288227 
L 273.195066 210.630175 
L 275.568197 223.09521 
L 278.732371 241.067888 
L 287.038327 289.390539 
L 289.015936 299.480358 
L 290.993545 308.39319 
L 292.575632 314.48393 
L 293.762197 318.3595 
L 294.948762 321.588372 
L 296.135327 324.130542 
L 296.926371 325.427725 
L 297.717414 326.398067 
L 298.508458 327.036087 
L 299.299501 327.338172 
L 300.090545 327.302606 
L 300.881588 326.929591 
L 301.672632 326.221245 
L 302.463675 325.181577 
L 303.254719 323.816455 
L 304.441284 321.175789 
L 305.627849 317.853563 
L 306.814415 313.890856 
L 308.396502 307.695224 
L 309.978589 300.578288 
L 311.956197 290.60936 
L 314.329328 277.476951 
L 318.680067 251.783956 
L 323.030806 226.53666 
L 325.799459 211.786796 
L 328.172589 200.329412 
L 330.150198 191.729044 
L 332.127807 184.030922 
L 334.105415 177.237309 
L 336.083024 171.322625 
L 337.665111 167.192864 
L 339.247198 163.565112 
L 340.829285 160.40456 
L 342.411372 157.67431 
L 343.993459 155.336972 
L 345.575546 153.356012 
L 347.157633 151.696841 
L 348.73972 150.327674 
L 350.321807 149.220178 
L 351.903894 148.349925 
L 353.485981 147.696712 
L 355.068068 147.244755 
L 356.650155 146.98281 
L 358.232242 146.904236 
L 359.814329 147.007022 
L 361.396416 147.293797 
L 362.978503 147.771817 
L 364.56059 148.452936 
L 366.142677 149.353534 
L 367.724764 150.494392 
L 369.306851 151.900477 
L 370.888938 153.600615 
L 372.471025 155.627004 
L 374.053112 158.014546 
L 375.635199 160.799959 
L 377.217286 164.020652 
L 378.799373 167.713339 
L 380.38146 171.91242 
L 381.963547 176.648119 
L 383.941155 183.358163 
L 385.918764 190.971402 
L 387.896373 199.488453 
L 390.269503 210.852798 
L 392.642634 223.336963 
L 395.806808 241.327084 
L 404.112765 289.626919 
L 406.090373 299.693704 
L 408.067982 308.576848 
L 409.650069 314.639485 
L 410.836634 318.491752 
L 412.0232 321.695692 
L 413.209765 324.211593 
L 414.000808 325.490674 
L 414.791852 326.44256 
L 415.582895 327.061872 
L 416.373939 327.345103 
L 417.164982 327.290643 
L 417.956026 326.898803 
L 418.747069 326.171805 
L 419.538113 325.113766 
L 420.329156 323.730654 
L 421.515721 321.063933 
L 422.702287 317.717045 
L 423.888852 313.731353 
L 425.470939 307.508102 
L 427.053026 300.367441 
L 429.030635 290.374839 
L 431.403765 277.223211 
L 435.754504 251.52037 
L 440.105244 226.290922 
L 442.873896 211.562545 
L 445.247026 200.127363 
L 447.224635 191.546917 
L 449.202244 183.869119 
L 451.179853 177.095536 
L 453.157461 171.200045 
L 454.739548 167.084763 
L 456.321635 163.470561 
L 457.903722 160.322547 
L 459.485809 157.60379 
L 461.067896 155.276907 
L 462.649983 153.305403 
L 464.23207 151.654757 
L 465.814157 150.293275 
L 467.396244 149.192725 
L 468.978331 148.328795 
L 470.560418 147.681403 
L 472.142505 147.23489 
L 473.724592 146.978142 
L 475.306679 146.904644 
L 476.888766 147.012517 
L 478.470853 147.304519 
L 480.05294 147.788035 
L 481.635027 148.475048 
L 483.217114 149.382061 
L 484.799201 150.529977 
L 486.381288 151.943875 
L 487.963375 153.652683 
L 489.545462 155.688685 
L 491.127549 158.086847 
L 492.709636 160.883923 
L 494.291723 164.11732 
L 495.87381 167.823714 
L 497.455897 172.037412 
L 499.037984 176.788494 
L 501.015593 183.518526 
L 502.993202 191.152089 
L 504.97081 199.689117 
L 507.343941 211.075812 
L 509.717071 223.579031 
L 512.881245 241.586442 
L 521.187202 289.862859 
L 523.164811 299.906457 
L 525.142419 308.759771 
L 526.724506 314.794203 
L 527.911072 318.623101 
L 529.097637 321.802055 
L 530.284202 324.291642 
L 531.075246 325.5526 
L 531.866289 326.486012 
L 532.657333 327.086606 
L 533.448376 327.350977 
L 534.23942 327.277625 
L 535.030463 326.866966 
L 535.821507 326.12133 
L 536.61255 325.044938 
L 537.403594 323.64386 
L 538.590159 320.951131 
L 539.776724 317.579639 
L 540.963289 313.571028 
L 542.545376 307.320262 
L 544.127463 300.155991 
L 546.105072 290.139868 
L 548.478203 276.969209 
L 552.828942 251.256839 
L 556.784159 228.250281 
L 559.552811 213.353959 
L 561.925942 201.743818 
L 563.903551 193.005688 
L 565.881159 185.166541 
L 567.858768 178.233542 
L 569.836377 172.185001 
L 571.813986 166.977054 
L 573.396073 163.376375 
L 574.97816 160.240871 
L 576.560247 157.533577 
L 578.142334 155.21712 
L 579.724421 153.255045 
L 581.306508 151.6129 
L 582.888595 150.25908 
L 584.470682 149.165457 
L 586.052769 148.307835 
L 587.634856 147.666251 
L 589.216943 147.225174 
L 590.79903 146.973616 
L 592.381117 146.905194 
L 593.963203 147.018156 
L 595.54529 147.315391 
L 597.127377 147.804413 
L 598.709464 148.497331 
L 600.291551 149.410776 
L 601.873638 150.565769 
L 603.455725 151.987503 
L 605.037812 153.705007 
L 606.619899 155.750649 
L 608.201986 158.15946 
L 609.784073 160.968227 
L 611.36616 164.214358 
L 612.948247 167.934486 
L 614.530334 172.162825 
L 616.112421 176.929309 
L 618.09003 183.679343 
L 620.067639 191.33323 
L 622.045248 199.890217 
L 624.418378 211.299217 
L 626.791509 223.821411 
L 629.955683 241.845958 
L 638.261639 290.098356 
L 640.239248 300.118614 
L 642.216857 308.941955 
L 643.798944 314.948082 
L 644.985509 318.753546 
L 646.172074 321.907459 
L 647.358639 324.370689 
L 648.149683 325.613501 
L 648.940726 326.528424 
L 649.73177 327.110287 
L 650.522813 327.355794 
L 651.313857 327.263551 
L 652.1049 326.83408 
L 652.895944 326.069819 
L 653.686987 324.975093 
L 654.478031 323.556075 
L 655.664596 320.837384 
L 656.851161 317.441346 
L 658.037727 313.409883 
L 659.619814 307.131705 
L 661.201901 299.943938 
L 663.179509 289.904447 
L 665.948162 274.430603 
L 676.231727 215.169214 
L 678.604858 203.387383 
L 680.977988 192.820388 
L 682.955597 185.00154 
L 684.933205 178.088644 
L 686.910814 172.059437 
L 688.888423 166.869636 
L 690.47051 163.282428 
L 692.052597 160.159377 
L 693.634684 157.463483 
L 695.216771 155.15738 
L 696.798858 153.204656 
L 698.380945 151.570925 
L 699.963032 150.224669 
L 701.545119 149.137864 
L 703.127206 148.286422 
L 704.709293 147.650502 
L 706.29138 147.214692 
L 707.873467 146.968128 
L 709.455554 146.90455 
L 711.037641 147.022329 
L 712.619728 147.324475 
L 714.201815 147.818621 
L 715.783902 148.516994 
L 717.365989 149.436334 
L 718.948076 150.597769 
L 720.530163 152.026587 
L 722.11225 153.751896 
L 723.694337 155.806127 
L 725.276424 158.224344 
L 726.858511 161.043339 
L 728.440598 164.300482 
L 730.022685 168.03232 
L 731.604772 172.272929 
L 733.186859 177.052039 
L 735.164467 183.817942 
L 737.142076 191.487152 
L 739.119685 200.058066 
L 739.910728 203.732201 
L 739.910728 203.732201 
" clip-path="url(#p4b54013e6e)" style="fill: none; stroke: #1f77b4; stroke-width: 2.4; stroke-linecap: square"/>
   </g>
   <g id="line2d_18">
    <path d="M 42.145313 117.276891 
L 739.645313 117.276891 
" clip-path="url(#p4b54013e6e)" style="fill: none; stroke: #1f77b4; stroke-width: 0.9; stroke-linecap: square"/>
   </g>
   <g id="patch_16">
    <path d="M 42.145313 374.325656 
L 42.145313 30.597656 
" style="fill: none; stroke: #000000; stroke-width: 0.8; stroke-linejoin: miter; stroke-linecap: square"/>
   </g>
   <g id="patch_17">
    <path d="M 739.645313 374.325656 
L 739.645313 30.597656 
" style="fill: none; stroke: #000000; stroke-width: 0.8; stroke-linejoin: miter; stroke-linecap: square"/>
   </g>
   <g id="patch_18">
    <path d="M 42.145313 374.325656 
L 739.645313 374.325656 
" style="fill: none; stroke: #000000; stroke-width: 0.8; stroke-linejoin: miter; stroke-linecap: square"/>
   </g>
   <g id="patch_19">
    <path d="M 42.145313 30.597656 
L 739.645313 30.597656 
" style="fill: none; stroke: #000000; stroke-width: 0.8; stroke-linejoin: miter; stroke-linecap: square"/>
   </g>
   <g id="text_11">
    <!-- regione -->
    <g transform="translate(49.496978 80.858298) scale(0.085 -0.085)">
     <defs>
      <path id="DejaVuSans-67" d="M 2906 1791 
Q 2906 2416 2648 2759 
Q 2391 3103 1925 3103 
Q 1463 3103 1205 2759 
Q 947 2416 947 1791 
Q 947 1169 1205 825 
Q 1463 481 1925 481 
Q 2391 481 2648 825 
Q 2906 1169 2906 1791 
z
M 3481 434 
Q 3481 -459 3084 -895 
Q 2688 -1331 1869 -1331 
Q 1566 -1331 1297 -1286 
Q 1028 -1241 775 -1147 
L 775 -588 
Q 1028 -725 1275 -790 
Q 1522 -856 1778 -856 
Q 2344 -856 2625 -561 
Q 2906 -266 2906 331 
L 2906 616 
Q 2728 306 2450 153 
Q 2172 0 1784 0 
Q 1141 0 747 490 
Q 353 981 353 1791 
Q 353 2603 747 3093 
Q 1141 3584 1784 3584 
Q 2172 3584 2450 3431 
Q 2728 3278 2906 2969 
L 2906 3500 
L 3481 3500 
L 3481 434 
z
" transform="scale(0.015625)"/>
     </defs>
     <use xlink:href="#DejaVuSans-72"/>
     <use xlink:href="#DejaVuSans-65" transform="translate(38.863281 0)"/>
     <use xlink:href="#DejaVuSans-67" transform="translate(100.386719 0)"/>
     <use xlink:href="#DejaVuSans-69" transform="translate(163.863281 0)"/>
     <use xlink:href="#DejaVuSans-6f" transform="translate(191.646484 0)"/>
     <use xlink:href="#DejaVuSans-6e" transform="translate(252.828125 0)"/>
     <use xlink:href="#DejaVuSans-65" transform="translate(316.207031 0)"/>
    </g>
    <!-- di core -->
    <g transform="translate(51.117954 90.376439) scale(0.085 -0.085)">
     <use xlink:href="#DejaVuSans-64"/>
     <use xlink:href="#DejaVuSans-69" transform="translate(63.476562 0)"/>
     <use xlink:href="#DejaVuSans-20" transform="translate(91.259766 0)"/>
     <use xlink:href="#DejaVuSans-63" transform="translate(123.046875 0)"/>
     <use xlink:href="#DejaVuSans-6f" transform="translate(178.027344 0)"/>
     <use xlink:href="#DejaVuSans-72" transform="translate(239.208984 0)"/>
     <use xlink:href="#DejaVuSans-65" transform="translate(278.072266 0)"/>
    </g>
   </g>
   <g id="text_12">
    <!-- regione -->
    <g transform="translate(108.389828 78.093315) scale(0.083 -0.083)">
     <use xlink:href="#DejaVuSans-72"/>
     <use xlink:href="#DejaVuSans-65" transform="translate(38.863281 0)"/>
     <use xlink:href="#DejaVuSans-67" transform="translate(100.386719 0)"/>
     <use xlink:href="#DejaVuSans-69" transform="translate(163.863281 0)"/>
     <use xlink:href="#DejaVuSans-6f" transform="translate(191.646484 0)"/>
     <use xlink:href="#DejaVuSans-6e" transform="translate(252.828125 0)"/>
     <use xlink:href="#DejaVuSans-65" transform="translate(316.207031 0)"/>
    </g>
    <!-- interstiziale -->
    <g transform="translate(99.874547 87.3875) scale(0.083 -0.083)">
     <use xlink:href="#DejaVuSans-69"/>
     <use xlink:href="#DejaVuSans-6e" transform="translate(27.783203 0)"/>
     <use xlink:href="#DejaVuSans-74" transform="translate(91.162109 0)"/>
     <use xlink:href="#DejaVuSans-65" transform="translate(130.371094 0)"/>
     <use xlink:href="#DejaVuSans-72" transform="translate(191.894531 0)"/>
     <use xlink:href="#DejaVuSans-73" transform="translate(233.007812 0)"/>
     <use xlink:href="#DejaVuSans-74" transform="translate(285.107422 0)"/>
     <use xlink:href="#DejaVuSans-69" transform="translate(324.316406 0)"/>
     <use xlink:href="#DejaVuSans-7a" transform="translate(352.099609 0)"/>
     <use xlink:href="#DejaVuSans-69" transform="translate(404.589844 0)"/>
     <use xlink:href="#DejaVuSans-61" transform="translate(432.373047 0)"/>
     <use xlink:href="#DejaVuSans-6c" transform="translate(493.652344 0)"/>
     <use xlink:href="#DejaVuSans-65" transform="translate(521.435547 0)"/>
    </g>
   </g>
   <g id="text_13">
    <!-- regione -->
    <g transform="translate(283.55738 80.858298) scale(0.085 -0.085)">
     <use xlink:href="#DejaVuSans-72"/>
     <use xlink:href="#DejaVuSans-65" transform="translate(38.863281 0)"/>
     <use xlink:href="#DejaVuSans-67" transform="translate(100.386719 0)"/>
     <use xlink:href="#DejaVuSans-69" transform="translate(163.863281 0)"/>
     <use xlink:href="#DejaVuSans-6f" transform="translate(191.646484 0)"/>
     <use xlink:href="#DejaVuSans-6e" transform="translate(252.828125 0)"/>
     <use xlink:href="#DejaVuSans-65" transform="translate(316.207031 0)"/>
    </g>
    <!-- di core -->
    <g transform="translate(285.178357 90.376439) scale(0.085 -0.085)">
     <use xlink:href="#DejaVuSans-64"/>
     <use xlink:href="#DejaVuSans-69" transform="translate(63.476562 0)"/>
     <use xlink:href="#DejaVuSans-20" transform="translate(91.259766 0)"/>
     <use xlink:href="#DejaVuSans-63" transform="translate(123.046875 0)"/>
     <use xlink:href="#DejaVuSans-6f" transform="translate(178.027344 0)"/>
     <use xlink:href="#DejaVuSans-72" transform="translate(239.208984 0)"/>
     <use xlink:href="#DejaVuSans-65" transform="translate(278.072266 0)"/>
    </g>
   </g>
   <g id="text_14">
    <!-- regione -->
    <g transform="translate(342.450231 78.093315) scale(0.083 -0.083)">
     <use xlink:href="#DejaVuSans-72"/>
     <use xlink:href="#DejaVuSans-65" transform="translate(38.863281 0)"/>
     <use xlink:href="#DejaVuSans-67" transform="translate(100.386719 0)"/>
     <use xlink:href="#DejaVuSans-69" transform="translate(163.863281 0)"/>
     <use xlink:href="#DejaVuSans-6f" transform="translate(191.646484 0)"/>
     <use xlink:href="#DejaVuSans-6e" transform="translate(252.828125 0)"/>
     <use xlink:href="#DejaVuSans-65" transform="translate(316.207031 0)"/>
    </g>
    <!-- interstiziale -->
    <g transform="translate(333.93495 87.3875) scale(0.083 -0.083)">
     <use xlink:href="#DejaVuSans-69"/>
     <use xlink:href="#DejaVuSans-6e" transform="translate(27.783203 0)"/>
     <use xlink:href="#DejaVuSans-74" transform="translate(91.162109 0)"/>
     <use xlink:href="#DejaVuSans-65" transform="translate(130.371094 0)"/>
     <use xlink:href="#DejaVuSans-72" transform="translate(191.894531 0)"/>
     <use xlink:href="#DejaVuSans-73" transform="translate(233.007812 0)"/>
     <use xlink:href="#DejaVuSans-74" transform="translate(285.107422 0)"/>
     <use xlink:href="#DejaVuSans-69" transform="translate(324.316406 0)"/>
     <use xlink:href="#DejaVuSans-7a" transform="translate(352.099609 0)"/>
     <use xlink:href="#DejaVuSans-69" transform="translate(404.589844 0)"/>
     <use xlink:href="#DejaVuSans-61" transform="translate(432.373047 0)"/>
     <use xlink:href="#DejaVuSans-6c" transform="translate(493.652344 0)"/>
     <use xlink:href="#DejaVuSans-65" transform="translate(521.435547 0)"/>
    </g>
   </g>
   <g id="text_15">
    <!-- regione -->
    <g transform="translate(517.617783 80.858298) scale(0.085 -0.085)">
     <use xlink:href="#DejaVuSans-72"/>
     <use xlink:href="#DejaVuSans-65" transform="translate(38.863281 0)"/>
     <use xlink:href="#DejaVuSans-67" transform="translate(100.386719 0)"/>
     <use xlink:href="#DejaVuSans-69" transform="translate(163.863281 0)"/>
     <use xlink:href="#DejaVuSans-6f" transform="translate(191.646484 0)"/>
     <use xlink:href="#DejaVuSans-6e" transform="translate(252.828125 0)"/>
     <use xlink:href="#DejaVuSans-65" transform="translate(316.207031 0)"/>
    </g>
    <!-- di core -->
    <g transform="translate(519.23876 90.376439) scale(0.085 -0.085)">
     <use xlink:href="#DejaVuSans-64"/>
     <use xlink:href="#DejaVuSans-69" transform="translate(63.476562 0)"/>
     <use xlink:href="#DejaVuSans-20" transform="translate(91.259766 0)"/>
     <use xlink:href="#DejaVuSans-63" transform="translate(123.046875 0)"/>
     <use xlink:href="#DejaVuSans-6f" transform="translate(178.027344 0)"/>
     <use xlink:href="#DejaVuSans-72" transform="translate(239.208984 0)"/>
     <use xlink:href="#DejaVuSans-65" transform="translate(278.072266 0)"/>
    </g>
   </g>
   <g id="text_16">
    <!-- regione -->
    <g transform="translate(576.510634 78.093315) scale(0.083 -0.083)">
     <use xlink:href="#DejaVuSans-72"/>
     <use xlink:href="#DejaVuSans-65" transform="translate(38.863281 0)"/>
     <use xlink:href="#DejaVuSans-67" transform="translate(100.386719 0)"/>
     <use xlink:href="#DejaVuSans-69" transform="translate(163.863281 0)"/>
     <use xlink:href="#DejaVuSans-6f" transform="translate(191.646484 0)"/>
     <use xlink:href="#DejaVuSans-6e" transform="translate(252.828125 0)"/>
     <use xlink:href="#DejaVuSans-65" transform="translate(316.207031 0)"/>
    </g>
    <!-- interstiziale -->
    <g transform="translate(567.995353 87.3875) scale(0.083 -0.083)">
     <use xlink:href="#DejaVuSans-69"/>
     <use xlink:href="#DejaVuSans-6e" transform="translate(27.783203 0)"/>
     <use xlink:href="#DejaVuSans-74" transform="translate(91.162109 0)"/>
     <use xlink:href="#DejaVuSans-65" transform="translate(130.371094 0)"/>
     <use xlink:href="#DejaVuSans-72" transform="translate(191.894531 0)"/>
     <use xlink:href="#DejaVuSans-73" transform="translate(233.007812 0)"/>
     <use xlink:href="#DejaVuSans-74" transform="translate(285.107422 0)"/>
     <use xlink:href="#DejaVuSans-69" transform="translate(324.316406 0)"/>
     <use xlink:href="#DejaVuSans-7a" transform="translate(352.099609 0)"/>
     <use xlink:href="#DejaVuSans-69" transform="translate(404.589844 0)"/>
     <use xlink:href="#DejaVuSans-61" transform="translate(432.373047 0)"/>
     <use xlink:href="#DejaVuSans-6c" transform="translate(493.652344 0)"/>
     <use xlink:href="#DejaVuSans-65" transform="translate(521.435547 0)"/>
    </g>
   </g>
   <g id="patch_20">
    <path d="M 313.433628 348.856407 
Q 307.063452 338.948057 301.237435 329.886106 
" style="fill: none; stroke: #000000; stroke-width: 0.9; stroke-linecap: round"/>
    <path d="M 301.67019 333.887696 
L 301.237435 329.886106 
L 304.69836 331.940856 
z
" style="fill: #1f77b4; stroke: #000000; stroke-width: 0.9; stroke-linecap: round"/>
   </g>
   <g id="text_17">
    <!-- potenziale quasi atomico -->
    <g transform="translate(262.162091 359.380961) scale(0.09 -0.09)">
     <defs>
      <path id="DejaVuSans-71" d="M 947 1747 
Q 947 1113 1208 752 
Q 1469 391 1925 391 
Q 2381 391 2643 752 
Q 2906 1113 2906 1747 
Q 2906 2381 2643 2742 
Q 2381 3103 1925 3103 
Q 1469 3103 1208 2742 
Q 947 2381 947 1747 
z
M 2906 525 
Q 2725 213 2448 61 
Q 2172 -91 1784 -91 
Q 1150 -91 751 415 
Q 353 922 353 1747 
Q 353 2572 751 3078 
Q 1150 3584 1784 3584 
Q 2172 3584 2448 3432 
Q 2725 3281 2906 2969 
L 2906 3500 
L 3481 3500 
L 3481 -1331 
L 2906 -1331 
L 2906 525 
z
" transform="scale(0.015625)"/>
     </defs>
     <use xlink:href="#DejaVuSans-70"/>
     <use xlink:href="#DejaVuSans-6f" transform="translate(63.476562 0)"/>
     <use xlink:href="#DejaVuSans-74" transform="translate(124.658203 0)"/>
     <use xlink:href="#DejaVuSans-65" transform="translate(163.867188 0)"/>
     <use xlink:href="#DejaVuSans-6e" transform="translate(225.390625 0)"/>
     <use xlink:href="#DejaVuSans-7a" transform="translate(288.769531 0)"/>
     <use xlink:href="#DejaVuSans-69" transform="translate(341.259766 0)"/>
     <use xlink:href="#DejaVuSans-61" transform="translate(369.042969 0)"/>
     <use xlink:href="#DejaVuSans-6c" transform="translate(430.322266 0)"/>
     <use xlink:href="#DejaVuSans-65" transform="translate(458.105469 0)"/>
     <use xlink:href="#DejaVuSans-20" transform="translate(519.628906 0)"/>
     <use xlink:href="#DejaVuSans-71" transform="translate(551.416016 0)"/>
     <use xlink:href="#DejaVuSans-75" transform="translate(614.892578 0)"/>
     <use xlink:href="#DejaVuSans-61" transform="translate(678.271484 0)"/>
     <use xlink:href="#DejaVuSans-73" transform="translate(739.550781 0)"/>
     <use xlink:href="#DejaVuSans-69" transform="translate(791.650391 0)"/>
     <use xlink:href="#DejaVuSans-20" transform="translate(819.433594 0)"/>
     <use xlink:href="#DejaVuSans-61" transform="translate(851.220703 0)"/>
     <use xlink:href="#DejaVuSans-74" transform="translate(912.5 0)"/>
     <use xlink:href="#DejaVuSans-6f" transform="translate(951.708984 0)"/>
     <use xlink:href="#DejaVuSans-6d" transform="translate(1012.890625 0)"/>
     <use xlink:href="#DejaVuSans-69" transform="translate(1110.302734 0)"/>
     <use xlink:href="#DejaVuSans-63" transform="translate(1138.085938 0)"/>
     <use xlink:href="#DejaVuSans-6f" transform="translate(1193.066406 0)"/>
    </g>
   </g>
   <g id="text_18">
    <!-- Potenziale periodico del campo cristallino in un solido unidimensionale -->
    <g transform="translate(89.830078 18.597656) scale(0.15 -0.15)">
     <defs>
      <path id="DejaVuSans-Bold-50" d="M 588 4666 
L 2584 4666 
Q 3475 4666 3951 4270 
Q 4428 3875 4428 3144 
Q 4428 2409 3951 2014 
Q 3475 1619 2584 1619 
L 1791 1619 
L 1791 0 
L 588 0 
L 588 4666 
z
M 1791 3794 
L 1791 2491 
L 2456 2491 
Q 2806 2491 2997 2661 
Q 3188 2831 3188 3144 
Q 3188 3456 2997 3625 
Q 2806 3794 2456 3794 
L 1791 3794 
z
" transform="scale(0.015625)"/>
      <path id="DejaVuSans-Bold-6f" d="M 2203 2784 
Q 1831 2784 1636 2517 
Q 1441 2250 1441 1747 
Q 1441 1244 1636 976 
Q 1831 709 2203 709 
Q 2569 709 2762 976 
Q 2956 1244 2956 1747 
Q 2956 2250 2762 2517 
Q 2569 2784 2203 2784 
z
M 2203 3584 
Q 3106 3584 3614 3096 
Q 4122 2609 4122 1747 
Q 4122 884 3614 396 
Q 3106 -91 2203 -91 
Q 1297 -91 786 396 
Q 275 884 275 1747 
Q 275 2609 786 3096 
Q 1297 3584 2203 3584 
z
" transform="scale(0.015625)"/>
      <path id="DejaVuSans-Bold-74" d="M 1759 4494 
L 1759 3500 
L 2913 3500 
L 2913 2700 
L 1759 2700 
L 1759 1216 
Q 1759 972 1856 886 
Q 1953 800 2241 800 
L 2816 800 
L 2816 0 
L 1856 0 
Q 1194 0 917 276 
Q 641 553 641 1216 
L 641 2700 
L 84 2700 
L 84 3500 
L 641 3500 
L 641 4494 
L 1759 4494 
z
" transform="scale(0.015625)"/>
      <path id="DejaVuSans-Bold-65" d="M 4031 1759 
L 4031 1441 
L 1416 1441 
Q 1456 1047 1700 850 
Q 1944 653 2381 653 
Q 2734 653 3104 758 
Q 3475 863 3866 1075 
L 3866 213 
Q 3469 63 3072 -14 
Q 2675 -91 2278 -91 
Q 1328 -91 801 392 
Q 275 875 275 1747 
Q 275 2603 792 3093 
Q 1309 3584 2216 3584 
Q 3041 3584 3536 3087 
Q 4031 2591 4031 1759 
z
M 2881 2131 
Q 2881 2450 2695 2645 
Q 2509 2841 2209 2841 
Q 1884 2841 1681 2658 
Q 1478 2475 1428 2131 
L 2881 2131 
z
" transform="scale(0.015625)"/>
      <path id="DejaVuSans-Bold-6e" d="M 4056 2131 
L 4056 0 
L 2931 0 
L 2931 347 
L 2931 1631 
Q 2931 2084 2911 2256 
Q 2891 2428 2841 2509 
Q 2775 2619 2662 2680 
Q 2550 2741 2406 2741 
Q 2056 2741 1856 2470 
Q 1656 2200 1656 1722 
L 1656 0 
L 538 0 
L 538 3500 
L 1656 3500 
L 1656 2988 
Q 1909 3294 2193 3439 
Q 2478 3584 2822 3584 
Q 3428 3584 3742 3212 
Q 4056 2841 4056 2131 
z
" transform="scale(0.015625)"/>
      <path id="DejaVuSans-Bold-7a" d="M 366 3500 
L 3419 3500 
L 3419 2719 
L 1575 800 
L 3419 800 
L 3419 0 
L 288 0 
L 288 781 
L 2131 2700 
L 366 2700 
L 366 3500 
z
" transform="scale(0.015625)"/>
      <path id="DejaVuSans-Bold-69" d="M 538 3500 
L 1656 3500 
L 1656 0 
L 538 0 
L 538 3500 
z
M 538 4863 
L 1656 4863 
L 1656 3950 
L 538 3950 
L 538 4863 
z
" transform="scale(0.015625)"/>
      <path id="DejaVuSans-Bold-61" d="M 2106 1575 
Q 1756 1575 1579 1456 
Q 1403 1338 1403 1106 
Q 1403 894 1545 773 
Q 1688 653 1941 653 
Q 2256 653 2472 879 
Q 2688 1106 2688 1447 
L 2688 1575 
L 2106 1575 
z
M 3816 1997 
L 3816 0 
L 2688 0 
L 2688 519 
Q 2463 200 2181 54 
Q 1900 -91 1497 -91 
Q 953 -91 614 226 
Q 275 544 275 1050 
Q 275 1666 698 1953 
Q 1122 2241 2028 2241 
L 2688 2241 
L 2688 2328 
Q 2688 2594 2478 2717 
Q 2269 2841 1825 2841 
Q 1466 2841 1156 2769 
Q 847 2697 581 2553 
L 581 3406 
Q 941 3494 1303 3539 
Q 1666 3584 2028 3584 
Q 2975 3584 3395 3211 
Q 3816 2838 3816 1997 
z
" transform="scale(0.015625)"/>
      <path id="DejaVuSans-Bold-6c" d="M 538 4863 
L 1656 4863 
L 1656 0 
L 538 0 
L 538 4863 
z
" transform="scale(0.015625)"/>
      <path id="DejaVuSans-Bold-20" transform="scale(0.015625)"/>
      <path id="DejaVuSans-Bold-70" d="M 1656 506 
L 1656 -1331 
L 538 -1331 
L 538 3500 
L 1656 3500 
L 1656 2988 
Q 1888 3294 2169 3439 
Q 2450 3584 2816 3584 
Q 3463 3584 3878 3070 
Q 4294 2556 4294 1747 
Q 4294 938 3878 423 
Q 3463 -91 2816 -91 
Q 2450 -91 2169 54 
Q 1888 200 1656 506 
z
M 2400 2772 
Q 2041 2772 1848 2508 
Q 1656 2244 1656 1747 
Q 1656 1250 1848 986 
Q 2041 722 2400 722 
Q 2759 722 2948 984 
Q 3138 1247 3138 1747 
Q 3138 2247 2948 2509 
Q 2759 2772 2400 2772 
z
" transform="scale(0.015625)"/>
      <path id="DejaVuSans-Bold-72" d="M 3138 2547 
Q 2991 2616 2845 2648 
Q 2700 2681 2553 2681 
Q 2122 2681 1889 2404 
Q 1656 2128 1656 1613 
L 1656 0 
L 538 0 
L 538 3500 
L 1656 3500 
L 1656 2925 
Q 1872 3269 2151 3426 
Q 2431 3584 2822 3584 
Q 2878 3584 2943 3579 
Q 3009 3575 3134 3559 
L 3138 2547 
z
" transform="scale(0.015625)"/>
      <path id="DejaVuSans-Bold-64" d="M 2919 2988 
L 2919 4863 
L 4044 4863 
L 4044 0 
L 2919 0 
L 2919 506 
Q 2688 197 2409 53 
Q 2131 -91 1766 -91 
Q 1119 -91 703 423 
Q 288 938 288 1747 
Q 288 2556 703 3070 
Q 1119 3584 1766 3584 
Q 2128 3584 2408 3439 
Q 2688 3294 2919 2988 
z
M 2181 722 
Q 2541 722 2730 984 
Q 2919 1247 2919 1747 
Q 2919 2247 2730 2509 
Q 2541 2772 2181 2772 
Q 1825 2772 1636 2509 
Q 1447 2247 1447 1747 
Q 1447 1247 1636 984 
Q 1825 722 2181 722 
z
" transform="scale(0.015625)"/>
      <path id="DejaVuSans-Bold-63" d="M 3366 3391 
L 3366 2478 
Q 3138 2634 2908 2709 
Q 2678 2784 2431 2784 
Q 1963 2784 1702 2511 
Q 1441 2238 1441 1747 
Q 1441 1256 1702 982 
Q 1963 709 2431 709 
Q 2694 709 2930 787 
Q 3166 866 3366 1019 
L 3366 103 
Q 3103 6 2833 -42 
Q 2563 -91 2291 -91 
Q 1344 -91 809 395 
Q 275 881 275 1747 
Q 275 2613 809 3098 
Q 1344 3584 2291 3584 
Q 2566 3584 2833 3536 
Q 3100 3488 3366 3391 
z
" transform="scale(0.015625)"/>
      <path id="DejaVuSans-Bold-6d" d="M 3781 2919 
Q 3994 3244 4286 3414 
Q 4578 3584 4928 3584 
Q 5531 3584 5847 3212 
Q 6163 2841 6163 2131 
L 6163 0 
L 5038 0 
L 5038 1825 
Q 5041 1866 5042 1909 
Q 5044 1953 5044 2034 
Q 5044 2406 4934 2573 
Q 4825 2741 4581 2741 
Q 4263 2741 4089 2478 
Q 3916 2216 3909 1719 
L 3909 0 
L 2784 0 
L 2784 1825 
Q 2784 2406 2684 2573 
Q 2584 2741 2328 2741 
Q 2006 2741 1831 2477 
Q 1656 2213 1656 1722 
L 1656 0 
L 531 0 
L 531 3500 
L 1656 3500 
L 1656 2988 
Q 1863 3284 2130 3434 
Q 2397 3584 2719 3584 
Q 3081 3584 3359 3409 
Q 3638 3234 3781 2919 
z
" transform="scale(0.015625)"/>
      <path id="DejaVuSans-Bold-73" d="M 3272 3391 
L 3272 2541 
Q 2913 2691 2578 2766 
Q 2244 2841 1947 2841 
Q 1628 2841 1473 2761 
Q 1319 2681 1319 2516 
Q 1319 2381 1436 2309 
Q 1553 2238 1856 2203 
L 2053 2175 
Q 2913 2066 3209 1816 
Q 3506 1566 3506 1031 
Q 3506 472 3093 190 
Q 2681 -91 1863 -91 
Q 1516 -91 1145 -36 
Q 775 19 384 128 
L 384 978 
Q 719 816 1070 734 
Q 1422 653 1784 653 
Q 2113 653 2278 743 
Q 2444 834 2444 1013 
Q 2444 1163 2330 1236 
Q 2216 1309 1875 1350 
L 1678 1375 
Q 931 1469 631 1722 
Q 331 1975 331 2491 
Q 331 3047 712 3315 
Q 1094 3584 1881 3584 
Q 2191 3584 2531 3537 
Q 2872 3491 3272 3391 
z
" transform="scale(0.015625)"/>
      <path id="DejaVuSans-Bold-75" d="M 500 1363 
L 500 3500 
L 1625 3500 
L 1625 3150 
Q 1625 2866 1622 2436 
Q 1619 2006 1619 1863 
Q 1619 1441 1641 1255 
Q 1663 1069 1716 984 
Q 1784 875 1895 815 
Q 2006 756 2150 756 
Q 2500 756 2700 1025 
Q 2900 1294 2900 1772 
L 2900 3500 
L 4019 3500 
L 4019 0 
L 2900 0 
L 2900 506 
Q 2647 200 2364 54 
Q 2081 -91 1741 -91 
Q 1134 -91 817 281 
Q 500 653 500 1363 
z
" transform="scale(0.015625)"/>
     </defs>
     <use xlink:href="#DejaVuSans-Bold-50"/>
     <use xlink:href="#DejaVuSans-Bold-6f" transform="translate(73.291016 0)"/>
     <use xlink:href="#DejaVuSans-Bold-74" transform="translate(141.992188 0)"/>
     <use xlink:href="#DejaVuSans-Bold-65" transform="translate(189.794922 0)"/>
     <use xlink:href="#DejaVuSans-Bold-6e" transform="translate(257.617188 0)"/>
     <use xlink:href="#DejaVuSans-Bold-7a" transform="translate(328.808594 0)"/>
     <use xlink:href="#DejaVuSans-Bold-69" transform="translate(387.011719 0)"/>
     <use xlink:href="#DejaVuSans-Bold-61" transform="translate(421.289062 0)"/>
     <use xlink:href="#DejaVuSans-Bold-6c" transform="translate(488.769531 0)"/>
     <use xlink:href="#DejaVuSans-Bold-65" transform="translate(523.046875 0)"/>
     <use xlink:href="#DejaVuSans-Bold-20" transform="translate(590.869141 0)"/>
     <use xlink:href="#DejaVuSans-Bold-70" transform="translate(625.683594 0)"/>
     <use xlink:href="#DejaVuSans-Bold-65" transform="translate(697.265625 0)"/>
     <use xlink:href="#DejaVuSans-Bold-72" transform="translate(765.087891 0)"/>
     <use xlink:href="#DejaVuSans-Bold-69" transform="translate(814.404297 0)"/>
     <use xlink:href="#DejaVuSans-Bold-6f" transform="translate(848.681641 0)"/>
     <use xlink:href="#DejaVuSans-Bold-64" transform="translate(917.382812 0)"/>
     <use xlink:href="#DejaVuSans-Bold-69" transform="translate(988.964844 0)"/>
     <use xlink:href="#DejaVuSans-Bold-63" transform="translate(1023.242188 0)"/>
     <use xlink:href="#DejaVuSans-Bold-6f" transform="translate(1082.519531 0)"/>
     <use xlink:href="#DejaVuSans-Bold-20" transform="translate(1151.220703 0)"/>
     <use xlink:href="#DejaVuSans-Bold-64" transform="translate(1186.035156 0)"/>
     <use xlink:href="#DejaVuSans-Bold-65" transform="translate(1257.617188 0)"/>
     <use xlink:href="#DejaVuSans-Bold-6c" transform="translate(1325.439453 0)"/>
     <use xlink:href="#DejaVuSans-Bold-20" transform="translate(1359.716797 0)"/>
     <use xlink:href="#DejaVuSans-Bold-63" transform="translate(1394.53125 0)"/>
     <use xlink:href="#DejaVuSans-Bold-61" transform="translate(1453.808594 0)"/>
     <use xlink:href="#DejaVuSans-Bold-6d" transform="translate(1521.289062 0)"/>
     <use xlink:href="#DejaVuSans-Bold-70" transform="translate(1625.488281 0)"/>
     <use xlink:href="#DejaVuSans-Bold-6f" transform="translate(1697.070312 0)"/>
     <use xlink:href="#DejaVuSans-Bold-20" transform="translate(1765.771484 0)"/>
     <use xlink:href="#DejaVuSans-Bold-63" transform="translate(1800.585938 0)"/>
     <use xlink:href="#DejaVuSans-Bold-72" transform="translate(1859.863281 0)"/>
     <use xlink:href="#DejaVuSans-Bold-69" transform="translate(1909.179688 0)"/>
     <use xlink:href="#DejaVuSans-Bold-73" transform="translate(1943.457031 0)"/>
     <use xlink:href="#DejaVuSans-Bold-74" transform="translate(2002.978516 0)"/>
     <use xlink:href="#DejaVuSans-Bold-61" transform="translate(2050.78125 0)"/>
     <use xlink:href="#DejaVuSans-Bold-6c" transform="translate(2118.261719 0)"/>
     <use xlink:href="#DejaVuSans-Bold-6c" transform="translate(2152.539062 0)"/>
     <use xlink:href="#DejaVuSans-Bold-69" transform="translate(2186.816406 0)"/>
     <use xlink:href="#DejaVuSans-Bold-6e" transform="translate(2221.09375 0)"/>
     <use xlink:href="#DejaVuSans-Bold-6f" transform="translate(2292.285156 0)"/>
     <use xlink:href="#DejaVuSans-Bold-20" transform="translate(2360.986328 0)"/>
     <use xlink:href="#DejaVuSans-Bold-69" transform="translate(2395.800781 0)"/>
     <use xlink:href="#DejaVuSans-Bold-6e" transform="translate(2430.078125 0)"/>
     <use xlink:href="#DejaVuSans-Bold-20" transform="translate(2501.269531 0)"/>
     <use xlink:href="#DejaVuSans-Bold-75" transform="translate(2536.083984 0)"/>
     <use xlink:href="#DejaVuSans-Bold-6e" transform="translate(2607.275391 0)"/>
     <use xlink:href="#DejaVuSans-Bold-20" transform="translate(2678.466797 0)"/>
     <use xlink:href="#DejaVuSans-Bold-73" transform="translate(2713.28125 0)"/>
     <use xlink:href="#DejaVuSans-Bold-6f" transform="translate(2772.802734 0)"/>
     <use xlink:href="#DejaVuSans-Bold-6c" transform="translate(2841.503906 0)"/>
     <use xlink:href="#DejaVuSans-Bold-69" transform="translate(2875.78125 0)"/>
     <use xlink:href="#DejaVuSans-Bold-64" transform="translate(2910.058594 0)"/>
     <use xlink:href="#DejaVuSans-Bold-6f" transform="translate(2981.640625 0)"/>
     <use xlink:href="#DejaVuSans-Bold-20" transform="translate(3050.341797 0)"/>
     <use xlink:href="#DejaVuSans-Bold-75" transform="translate(3085.15625 0)"/>
     <use xlink:href="#DejaVuSans-Bold-6e" transform="translate(3156.347656 0)"/>
     <use xlink:href="#DejaVuSans-Bold-69" transform="translate(3227.539062 0)"/>
     <use xlink:href="#DejaVuSans-Bold-64" transform="translate(3261.816406 0)"/>
     <use xlink:href="#DejaVuSans-Bold-69" transform="translate(3333.398438 0)"/>
     <use xlink:href="#DejaVuSans-Bold-6d" transform="translate(3367.675781 0)"/>
     <use xlink:href="#DejaVuSans-Bold-65" transform="translate(3471.875 0)"/>
     <use xlink:href="#DejaVuSans-Bold-6e" transform="translate(3539.697266 0)"/>
     <use xlink:href="#DejaVuSans-Bold-73" transform="translate(3610.888672 0)"/>
     <use xlink:href="#DejaVuSans-Bold-69" transform="translate(3670.410156 0)"/>
     <use xlink:href="#DejaVuSans-Bold-6f" transform="translate(3704.6875 0)"/>
     <use xlink:href="#DejaVuSans-Bold-6e" transform="translate(3773.388672 0)"/>
     <use xlink:href="#DejaVuSans-Bold-61" transform="translate(3844.580078 0)"/>
     <use xlink:href="#DejaVuSans-Bold-6c" transform="translate(3912.060547 0)"/>
     <use xlink:href="#DejaVuSans-Bold-65" transform="translate(3946.337891 0)"/>
    </g>
   </g>
   <g id="PathCollection_1">
    <defs>
     <path id="mc55b378f72" d="M 0 3.807887 
C 1.009863 3.807887 1.978501 3.406664 2.692582 2.692582 
C 3.406664 1.978501 3.807887 1.009863 3.807887 0 
C 3.807887 -1.009863 3.406664 -1.978501 2.692582 -2.692582 
C 1.978501 -3.406664 1.009863 -3.807887 0 -3.807887 
C -1.009863 -3.807887 -1.978501 -3.406664 -2.692582 -2.692582 
C -3.406664 -1.978501 -3.807887 -1.009863 -3.807887 0 
C -3.807887 1.009863 -3.406664 1.978501 -2.692582 2.692582 
C -1.978501 3.406664 -1.009863 3.807887 0 3.807887 
z
" style="stroke: #1f77b4"/>
    </defs>
    <g clip-path="url(#p4b54013e6e)">
     <use xlink:href="#mc55b378f72" x="65.551353" y="117.276891" style="fill: #1f77b4; stroke: #1f77b4"/>
     <use xlink:href="#mc55b378f72" x="182.581554" y="117.276891" style="fill: #1f77b4; stroke: #1f77b4"/>
     <use xlink:href="#mc55b378f72" x="299.611755" y="117.276891" style="fill: #1f77b4; stroke: #1f77b4"/>
     <use xlink:href="#mc55b378f72" x="416.641957" y="117.276891" style="fill: #1f77b4; stroke: #1f77b4"/>
     <use xlink:href="#mc55b378f72" x="533.672158" y="117.276891" style="fill: #1f77b4; stroke: #1f77b4"/>
     <use xlink:href="#mc55b378f72" x="650.702359" y="117.276891" style="fill: #1f77b4; stroke: #1f77b4"/>
     <use xlink:href="#mc55b378f72" x="767.732561" y="117.276891" style="fill: #1f77b4; stroke: #1f77b4"/>
    </g>
   </g>
  </g>
  <g id="text_19">
   <!-- Vicino ai nuclei il potenziale è profondo e la funzione elettronica ha carattere atomico; nelle regioni interstiziali il potenziale è più debole e uniforme. -->
   <g transform="translate(7.2 412.269656) scale(0.1 -0.1)">
    <defs>
     <path id="DejaVuSans-56" d="M 1831 0 
L 50 4666 
L 709 4666 
L 2188 738 
L 3669 4666 
L 4325 4666 
L 2547 0 
L 1831 0 
z
" transform="scale(0.015625)"/>
     <path id="DejaVuSans-e8" d="M 3597 1894 
L 3597 1613 
L 953 1613 
Q 991 1019 1311 708 
Q 1631 397 2203 397 
Q 2534 397 2845 478 
Q 3156 559 3463 722 
L 3463 178 
Q 3153 47 2828 -22 
Q 2503 -91 2169 -91 
Q 1331 -91 842 396 
Q 353 884 353 1716 
Q 353 2575 817 3079 
Q 1281 3584 2069 3584 
Q 2775 3584 3186 3129 
Q 3597 2675 3597 1894 
z
M 3022 2063 
Q 3016 2534 2758 2815 
Q 2500 3097 2075 3097 
Q 1594 3097 1305 2825 
Q 1016 2553 972 2059 
L 3022 2063 
z
M 1579 5119 
L 2460 3950 
L 1982 3950 
L 963 5119 
L 1579 5119 
z
" transform="scale(0.015625)"/>
     <path id="DejaVuSans-68" d="M 3513 2113 
L 3513 0 
L 2938 0 
L 2938 2094 
Q 2938 2591 2744 2837 
Q 2550 3084 2163 3084 
Q 1697 3084 1428 2787 
Q 1159 2491 1159 1978 
L 1159 0 
L 581 0 
L 581 4863 
L 1159 4863 
L 1159 2956 
Q 1366 3272 1645 3428 
Q 1925 3584 2291 3584 
Q 2894 3584 3203 3211 
Q 3513 2838 3513 2113 
z
" transform="scale(0.015625)"/>
     <path id="DejaVuSans-3b" d="M 750 3309 
L 1409 3309 
L 1409 2516 
L 750 2516 
L 750 3309 
z
M 750 794 
L 1409 794 
L 1409 256 
L 897 -744 
L 494 -744 
L 750 256 
L 750 794 
z
" transform="scale(0.015625)"/>
     <path id="DejaVuSans-f9" d="M 544 1381 
L 544 3500 
L 1119 3500 
L 1119 1403 
Q 1119 906 1312 657 
Q 1506 409 1894 409 
Q 2359 409 2629 706 
Q 2900 1003 2900 1516 
L 2900 3500 
L 3475 3500 
L 3475 0 
L 2900 0 
L 2900 538 
Q 2691 219 2414 64 
Q 2138 -91 1772 -91 
Q 1169 -91 856 284 
Q 544 659 544 1381 
z
M 1991 3584 
L 1991 3584 
z
M 1531 5119 
L 2412 3950 
L 1934 3950 
L 915 5119 
L 1531 5119 
z
" transform="scale(0.015625)"/>
     <path id="DejaVuSans-62" d="M 3116 1747 
Q 3116 2381 2855 2742 
Q 2594 3103 2138 3103 
Q 1681 3103 1420 2742 
Q 1159 2381 1159 1747 
Q 1159 1113 1420 752 
Q 1681 391 2138 391 
Q 2594 391 2855 752 
Q 3116 1113 3116 1747 
z
M 1159 2969 
Q 1341 3281 1617 3432 
Q 1894 3584 2278 3584 
Q 2916 3584 3314 3078 
Q 3713 2572 3713 1747 
Q 3713 922 3314 415 
Q 2916 -91 2278 -91 
Q 1894 -91 1617 61 
Q 1341 213 1159 525 
L 1159 0 
L 581 0 
L 581 4863 
L 1159 4863 
L 1159 2969 
z
" transform="scale(0.015625)"/>
     <path id="DejaVuSans-2e" d="M 684 794 
L 1344 794 
L 1344 0 
L 684 0 
L 684 794 
z
" transform="scale(0.015625)"/>
    </defs>
    <use xlink:href="#DejaVuSans-56"/>
    <use xlink:href="#DejaVuSans-69" transform="translate(66.158203 0)"/>
    <use xlink:href="#DejaVuSans-63" transform="translate(93.941406 0)"/>
    <use xlink:href="#DejaVuSans-69" transform="translate(148.921875 0)"/>
    <use xlink:href="#DejaVuSans-6e" transform="translate(176.705078 0)"/>
    <use xlink:href="#DejaVuSans-6f" transform="translate(240.083984 0)"/>
    <use xlink:href="#DejaVuSans-20" transform="translate(301.265625 0)"/>
    <use xlink:href="#DejaVuSans-61" transform="translate(333.052734 0)"/>
    <use xlink:href="#DejaVuSans-69" transform="translate(394.332031 0)"/>
    <use xlink:href="#DejaVuSans-20" transform="translate(422.115234 0)"/>
    <use xlink:href="#DejaVuSans-6e" transform="translate(453.902344 0)"/>
    <use xlink:href="#DejaVuSans-75" transform="translate(517.28125 0)"/>
    <use xlink:href="#DejaVuSans-63" transform="translate(580.660156 0)"/>
    <use xlink:href="#DejaVuSans-6c" transform="translate(635.640625 0)"/>
    <use xlink:href="#DejaVuSans-65" transform="translate(663.423828 0)"/>
    <use xlink:href="#DejaVuSans-69" transform="translate(724.947266 0)"/>
    <use xlink:href="#DejaVuSans-20" transform="translate(752.730469 0)"/>
    <use xlink:href="#DejaVuSans-69" transform="translate(784.517578 0)"/>
    <use xlink:href="#DejaVuSans-6c" transform="translate(812.300781 0)"/>
    <use xlink:href="#DejaVuSans-20" transform="translate(840.083984 0)"/>
    <use xlink:href="#DejaVuSans-70" transform="translate(871.871094 0)"/>
    <use xlink:href="#DejaVuSans-6f" transform="translate(935.347656 0)"/>
    <use xlink:href="#DejaVuSans-74" transform="translate(996.529297 0)"/>
    <use xlink:href="#DejaVuSans-65" transform="translate(1035.738281 0)"/>
    <use xlink:href="#DejaVuSans-6e" transform="translate(1097.261719 0)"/>
    <use xlink:href="#DejaVuSans-7a" transform="translate(1160.640625 0)"/>
    <use xlink:href="#DejaVuSans-69" transform="translate(1213.130859 0)"/>
    <use xlink:href="#DejaVuSans-61" transform="translate(1240.914062 0)"/>
    <use xlink:href="#DejaVuSans-6c" transform="translate(1302.193359 0)"/>
    <use xlink:href="#DejaVuSans-65" transform="translate(1329.976562 0)"/>
    <use xlink:href="#DejaVuSans-20" transform="translate(1391.5 0)"/>
    <use xlink:href="#DejaVuSans-e8" transform="translate(1423.287109 0)"/>
    <use xlink:href="#DejaVuSans-20" transform="translate(1484.810547 0)"/>
    <use xlink:href="#DejaVuSans-70" transform="translate(1516.597656 0)"/>
    <use xlink:href="#DejaVuSans-72" transform="translate(1580.074219 0)"/>
    <use xlink:href="#DejaVuSans-6f" transform="translate(1618.9375 0)"/>
    <use xlink:href="#DejaVuSans-66" transform="translate(1680.119141 0)"/>
    <use xlink:href="#DejaVuSans-6f" transform="translate(1715.324219 0)"/>
    <use xlink:href="#DejaVuSans-6e" transform="translate(1776.505859 0)"/>
    <use xlink:href="#DejaVuSans-64" transform="translate(1839.884766 0)"/>
    <use xlink:href="#DejaVuSans-6f" transform="translate(1903.361328 0)"/>
    <use xlink:href="#DejaVuSans-20" transform="translate(1964.542969 0)"/>
    <use xlink:href="#DejaVuSans-65" transform="translate(1996.330078 0)"/>
    <use xlink:href="#DejaVuSans-20" transform="translate(2057.853516 0)"/>
    <use xlink:href="#DejaVuSans-6c" transform="translate(2089.640625 0)"/>
    <use xlink:href="#DejaVuSans-61" transform="translate(2117.423828 0)"/>
    <use xlink:href="#DejaVuSans-20" transform="translate(2178.703125 0)"/>
    <use xlink:href="#DejaVuSans-66" transform="translate(2210.490234 0)"/>
    <use xlink:href="#DejaVuSans-75" transform="translate(2245.695312 0)"/>
    <use xlink:href="#DejaVuSans-6e" transform="translate(2309.074219 0)"/>
    <use xlink:href="#DejaVuSans-7a" transform="translate(2372.453125 0)"/>
    <use xlink:href="#DejaVuSans-69" transform="translate(2424.943359 0)"/>
    <use xlink:href="#DejaVuSans-6f" transform="translate(2452.726562 0)"/>
    <use xlink:href="#DejaVuSans-6e" transform="translate(2513.908203 0)"/>
    <use xlink:href="#DejaVuSans-65" transform="translate(2577.287109 0)"/>
    <use xlink:href="#DejaVuSans-20" transform="translate(2638.810547 0)"/>
    <use xlink:href="#DejaVuSans-65" transform="translate(2670.597656 0)"/>
    <use xlink:href="#DejaVuSans-6c" transform="translate(2732.121094 0)"/>
    <use xlink:href="#DejaVuSans-65" transform="translate(2759.904297 0)"/>
    <use xlink:href="#DejaVuSans-74" transform="translate(2821.427734 0)"/>
    <use xlink:href="#DejaVuSans-74" transform="translate(2860.636719 0)"/>
    <use xlink:href="#DejaVuSans-72" transform="translate(2899.845703 0)"/>
    <use xlink:href="#DejaVuSans-6f" transform="translate(2938.708984 0)"/>
    <use xlink:href="#DejaVuSans-6e" transform="translate(2999.890625 0)"/>
    <use xlink:href="#DejaVuSans-69" transform="translate(3063.269531 0)"/>
    <use xlink:href="#DejaVuSans-63" transform="translate(3091.052734 0)"/>
    <use xlink:href="#DejaVuSans-61" transform="translate(3146.033203 0)"/>
    <use xlink:href="#DejaVuSans-20" transform="translate(3207.3125 0)"/>
    <use xlink:href="#DejaVuSans-68" transform="translate(3239.099609 0)"/>
    <use xlink:href="#DejaVuSans-61" transform="translate(3302.478516 0)"/>
    <use xlink:href="#DejaVuSans-20" transform="translate(3363.757812 0)"/>
    <use xlink:href="#DejaVuSans-63" transform="translate(3395.544922 0)"/>
    <use xlink:href="#DejaVuSans-61" transform="translate(3450.525391 0)"/>
    <use xlink:href="#DejaVuSans-72" transform="translate(3511.804688 0)"/>
    <use xlink:href="#DejaVuSans-61" transform="translate(3552.917969 0)"/>
    <use xlink:href="#DejaVuSans-74" transform="translate(3614.197266 0)"/>
    <use xlink:href="#DejaVuSans-74" transform="translate(3653.40625 0)"/>
    <use xlink:href="#DejaVuSans-65" transform="translate(3692.615234 0)"/>
    <use xlink:href="#DejaVuSans-72" transform="translate(3754.138672 0)"/>
    <use xlink:href="#DejaVuSans-65" transform="translate(3793.001953 0)"/>
    <use xlink:href="#DejaVuSans-20" transform="translate(3854.525391 0)"/>
    <use xlink:href="#DejaVuSans-61" transform="translate(3886.3125 0)"/>
    <use xlink:href="#DejaVuSans-74" transform="translate(3947.591797 0)"/>
    <use xlink:href="#DejaVuSans-6f" transform="translate(3986.800781 0)"/>
    <use xlink:href="#DejaVuSans-6d" transform="translate(4047.982422 0)"/>
    <use xlink:href="#DejaVuSans-69" transform="translate(4145.394531 0)"/>
    <use xlink:href="#DejaVuSans-63" transform="translate(4173.177734 0)"/>
    <use xlink:href="#DejaVuSans-6f" transform="translate(4228.158203 0)"/>
    <use xlink:href="#DejaVuSans-3b" transform="translate(4289.339844 0)"/>
    <use xlink:href="#DejaVuSans-20" transform="translate(4323.03125 0)"/>
    <use xlink:href="#DejaVuSans-6e" transform="translate(4354.818359 0)"/>
    <use xlink:href="#DejaVuSans-65" transform="translate(4418.197266 0)"/>
    <use xlink:href="#DejaVuSans-6c" transform="translate(4479.720703 0)"/>
    <use xlink:href="#DejaVuSans-6c" transform="translate(4507.503906 0)"/>
    <use xlink:href="#DejaVuSans-65" transform="translate(4535.287109 0)"/>
    <use xlink:href="#DejaVuSans-20" transform="translate(4596.810547 0)"/>
    <use xlink:href="#DejaVuSans-72" transform="translate(4628.597656 0)"/>
    <use xlink:href="#DejaVuSans-65" transform="translate(4667.460938 0)"/>
    <use xlink:href="#DejaVuSans-67" transform="translate(4728.984375 0)"/>
    <use xlink:href="#DejaVuSans-69" transform="translate(4792.460938 0)"/>
    <use xlink:href="#DejaVuSans-6f" transform="translate(4820.244141 0)"/>
    <use xlink:href="#DejaVuSans-6e" transform="translate(4881.425781 0)"/>
    <use xlink:href="#DejaVuSans-69" transform="translate(4944.804688 0)"/>
    <use xlink:href="#DejaVuSans-20" transform="translate(4972.587891 0)"/>
    <use xlink:href="#DejaVuSans-69" transform="translate(5004.375 0)"/>
    <use xlink:href="#DejaVuSans-6e" transform="translate(5032.158203 0)"/>
    <use xlink:href="#DejaVuSans-74" transform="translate(5095.537109 0)"/>
    <use xlink:href="#DejaVuSans-65" transform="translate(5134.746094 0)"/>
    <use xlink:href="#DejaVuSans-72" transform="translate(5196.269531 0)"/>
    <use xlink:href="#DejaVuSans-73" transform="translate(5237.382812 0)"/>
    <use xlink:href="#DejaVuSans-74" transform="translate(5289.482422 0)"/>
    <use xlink:href="#DejaVuSans-69" transform="translate(5328.691406 0)"/>
    <use xlink:href="#DejaVuSans-7a" transform="translate(5356.474609 0)"/>
    <use xlink:href="#DejaVuSans-69" transform="translate(5408.964844 0)"/>
    <use xlink:href="#DejaVuSans-61" transform="translate(5436.748047 0)"/>
    <use xlink:href="#DejaVuSans-6c" transform="translate(5498.027344 0)"/>
    <use xlink:href="#DejaVuSans-69" transform="translate(5525.810547 0)"/>
    <use xlink:href="#DejaVuSans-20" transform="translate(5553.59375 0)"/>
    <use xlink:href="#DejaVuSans-69" transform="translate(5585.380859 0)"/>
    <use xlink:href="#DejaVuSans-6c" transform="translate(5613.164062 0)"/>
    <use xlink:href="#DejaVuSans-20" transform="translate(5640.947266 0)"/>
    <use xlink:href="#DejaVuSans-70" transform="translate(5672.734375 0)"/>
    <use xlink:href="#DejaVuSans-6f" transform="translate(5736.210938 0)"/>
    <use xlink:href="#DejaVuSans-74" transform="translate(5797.392578 0)"/>
    <use xlink:href="#DejaVuSans-65" transform="translate(5836.601562 0)"/>
    <use xlink:href="#DejaVuSans-6e" transform="translate(5898.125 0)"/>
    <use xlink:href="#DejaVuSans-7a" transform="translate(5961.503906 0)"/>
    <use xlink:href="#DejaVuSans-69" transform="translate(6013.994141 0)"/>
    <use xlink:href="#DejaVuSans-61" transform="translate(6041.777344 0)"/>
    <use xlink:href="#DejaVuSans-6c" transform="translate(6103.056641 0)"/>
    <use xlink:href="#DejaVuSans-65" transform="translate(6130.839844 0)"/>
    <use xlink:href="#DejaVuSans-20" transform="translate(6192.363281 0)"/>
    <use xlink:href="#DejaVuSans-e8" transform="translate(6224.150391 0)"/>
    <use xlink:href="#DejaVuSans-20" transform="translate(6285.673828 0)"/>
    <use xlink:href="#DejaVuSans-70" transform="translate(6317.460938 0)"/>
    <use xlink:href="#DejaVuSans-69" transform="translate(6380.9375 0)"/>
    <use xlink:href="#DejaVuSans-f9" transform="translate(6408.720703 0)"/>
    <use xlink:href="#DejaVuSans-20" transform="translate(6472.099609 0)"/>
    <use xlink:href="#DejaVuSans-64" transform="translate(6503.886719 0)"/>
    <use xlink:href="#DejaVuSans-65" transform="translate(6567.363281 0)"/>
    <use xlink:href="#DejaVuSans-62" transform="translate(6628.886719 0)"/>
    <use xlink:href="#DejaVuSans-6f" transform="translate(6692.363281 0)"/>
    <use xlink:href="#DejaVuSans-6c" transform="translate(6753.544922 0)"/>
    <use xlink:href="#DejaVuSans-65" transform="translate(6781.328125 0)"/>
    <use xlink:href="#DejaVuSans-20" transform="translate(6842.851562 0)"/>
    <use xlink:href="#DejaVuSans-65" transform="translate(6874.638672 0)"/>
    <use xlink:href="#DejaVuSans-20" transform="translate(6936.162109 0)"/>
    <use xlink:href="#DejaVuSans-75" transform="translate(6967.949219 0)"/>
    <use xlink:href="#DejaVuSans-6e" transform="translate(7031.328125 0)"/>
    <use xlink:href="#DejaVuSans-69" transform="translate(7094.707031 0)"/>
    <use xlink:href="#DejaVuSans-66" transform="translate(7122.490234 0)"/>
    <use xlink:href="#DejaVuSans-6f" transform="translate(7157.695312 0)"/>
    <use xlink:href="#DejaVuSans-72" transform="translate(7218.876953 0)"/>
    <use xlink:href="#DejaVuSans-6d" transform="translate(7258.240234 0)"/>
    <use xlink:href="#DejaVuSans-65" transform="translate(7355.652344 0)"/>
    <use xlink:href="#DejaVuSans-2e" transform="translate(7417.175781 0)"/>
   </g>
  </g>
 </g>
 <defs>
  <clipPath id="p4b54013e6e">
   <rect x="42.145313" y="30.597656" width="697.5" height="343.728"/>
  </clipPath>
 </defs>
</svg>
