<?xml version="1.0" encoding="utf-8" standalone="no"?>
<!DOCTYPE svg PUBLIC "-//W3C//DTD SVG 1.1//EN"
  "http://www.w3.org/Graphics/SVG/1.1/DTD/svg11.dtd">
<svg xmlns:xlink="http://www.w3.org/1999/xlink" width="878.028125pt" height="635.319687pt" viewBox="0 0 878.028125 635.319687" xmlns="http://www.w3.org/2000/svg" version="1.1">
 <metadata>
  <rdf:RDF xmlns:dc="http://purl.org/dc/elements/1.1/" xmlns:cc="http://creativecommons.org/ns#" xmlns:rdf="http://www.w3.org/1999/02/22-rdf-syntax-ns#">
   <cc:Work>
    <dc:type rdf:resource="http://purl.org/dc/dcmitype/StillImage"/>
    <dc:date>2026-06-16T11:09:13.594198</dc:date>
    <dc:format>image/svg+xml</dc:format>
    <dc:creator>
     <cc:Agent>
      <dc:title>Matplotlib v3.10.8, https://matplotlib.org/</dc:title>
     </cc:Agent>
    </dc:creator>
   </cc:Work>
  </rdf:RDF>
 </metadata>
 <defs>
  <style type="text/css">*{stroke-linejoin: round; stroke-linecap: butt}</style>
 </defs>
 <g id="figure_1">
  <g id="patch_1">
   <path d="M 0 635.319687 
L 878.028125 635.319687 
L 878.028125 0 
L 0 0 
z
" style="fill: #ffffff"/>
  </g>
  <g id="axes_1">
   <g id="patch_2">
    <path d="M 82.539346 316.4904 
L 134.549157 316.4904 
L 134.549157 116.9064 
L 82.539346 116.9064 
z
" clip-path="url(#p0ac9a861b2)" style="fill: #1f77b4; opacity: 0.17"/>
   </g>
   <g id="patch_3">
    <path d="M 219.40727 316.4904 
L 271.417081 316.4904 
L 271.417081 116.9064 
L 219.40727 116.9064 
z
" clip-path="url(#p0ac9a861b2)" style="fill: #1f77b4; opacity: 0.17"/>
   </g>
   <g id="patch_4">
    <path d="M 356.275195 316.4904 
L 408.285006 316.4904 
L 408.285006 116.9064 
L 356.275195 116.9064 
z
" clip-path="url(#p0ac9a861b2)" style="fill: #1f77b4; opacity: 0.17"/>
   </g>
   <g id="patch_5">
    <path d="M 493.143119 316.4904 
L 545.15293 316.4904 
L 545.15293 116.9064 
L 493.143119 116.9064 
z
" clip-path="url(#p0ac9a861b2)" style="fill: #1f77b4; opacity: 0.17"/>
   </g>
   <g id="patch_6">
    <path d="M 630.011044 316.4904 
L 682.020855 316.4904 
L 682.020855 116.9064 
L 630.011044 116.9064 
z
" clip-path="url(#p0ac9a861b2)" style="fill: #1f77b4; opacity: 0.17"/>
   </g>
   <g id="patch_7">
    <path d="M 766.878968 316.4904 
L 818.888779 316.4904 
L 818.888779 116.9064 
L 766.878968 116.9064 
z
" clip-path="url(#p0ac9a861b2)" style="fill: #1f77b4; opacity: 0.17"/>
   </g>
   <g id="line2d_1">
    <path d="M 94.857459 185.0976 
L 806.570666 185.0976 
" clip-path="url(#p0ac9a861b2)" style="fill: none; stroke: #1f77b4; stroke-width: 0.9; stroke-linecap: square"/>
   </g>
   <g id="line2d_2">
    <path d="M 59.271798 334.7856 
L 157.816704 334.7856 
L 157.816704 334.7856 
" clip-path="url(#p0ac9a861b2)" style="fill: none; stroke: #ff7f0e; stroke-width: 2; stroke-linecap: square"/>
   </g>
   <g id="line2d_3">
    <path d="M 196.139723 334.7856 
L 294.684629 334.7856 
L 294.684629 334.7856 
" clip-path="url(#p0ac9a861b2)" style="fill: none; stroke: #2ca02c; stroke-width: 2; stroke-linecap: square"/>
   </g>
   <g id="line2d_4">
    <path d="M 333.007647 334.7856 
L 431.552553 334.7856 
L 431.552553 334.7856 
" clip-path="url(#p0ac9a861b2)" style="fill: none; stroke: #d62728; stroke-width: 2; stroke-linecap: square"/>
   </g>
   <g id="line2d_5">
    <path d="M 469.875572 334.7856 
L 568.420478 334.7856 
L 568.420478 334.7856 
" clip-path="url(#p0ac9a861b2)" style="fill: none; stroke: #9467bd; stroke-width: 2; stroke-linecap: square"/>
   </g>
   <g id="line2d_6">
    <path d="M 606.743496 334.7856 
L 705.288402 334.7856 
L 705.288402 334.7856 
" clip-path="url(#p0ac9a861b2)" style="fill: none; stroke: #8c564b; stroke-width: 2; stroke-linecap: square"/>
   </g>
   <g id="line2d_7">
    <path d="M 743.611421 334.7856 
L 842.156327 334.7856 
L 842.156327 334.7856 
" clip-path="url(#p0ac9a861b2)" style="fill: none; stroke: #e377c2; stroke-width: 2; stroke-linecap: square"/>
   </g>
   <g id="line2d_8">
    <path d="M 94.857459 517.7376 
L 806.570666 517.7376 
" clip-path="url(#p0ac9a861b2)" style="fill: none; stroke: #7f7f7f; stroke-width: 0.9; stroke-linecap: square"/>
   </g>
   <g id="line2d_9">
    <path d="M 134.549157 429.92064 
L 219.40727 429.92064 
" clip-path="url(#p0ac9a861b2)" style="fill: none; stroke: #bcbd22; stroke-width: 2.1; stroke-linecap: square"/>
   </g>
   <g id="line2d_10">
    <path d="M 219.40727 429.92064 
L 219.40727 517.7376 
" clip-path="url(#p0ac9a861b2)" style="fill: none; stroke: #17becf; stroke-width: 2.1; stroke-linecap: square"/>
   </g>
   <g id="line2d_11">
    <path d="M 219.40727 517.7376 
L 271.417081 517.7376 
" clip-path="url(#p0ac9a861b2)" style="fill: none; stroke: #1f77b4; stroke-width: 2.1; stroke-linecap: square"/>
   </g>
   <g id="line2d_12">
    <path d="M 271.417081 517.7376 
L 271.417081 429.92064 
" clip-path="url(#p0ac9a861b2)" style="fill: none; stroke: #ff7f0e; stroke-width: 2.1; stroke-linecap: square"/>
   </g>
   <g id="line2d_13">
    <path d="M 271.417081 429.92064 
L 356.275195 429.92064 
" clip-path="url(#p0ac9a861b2)" style="fill: none; stroke: #2ca02c; stroke-width: 2.1; stroke-linecap: square"/>
   </g>
   <g id="line2d_14">
    <path d="M 356.275195 429.92064 
L 356.275195 517.7376 
" clip-path="url(#p0ac9a861b2)" style="fill: none; stroke: #d62728; stroke-width: 2.1; stroke-linecap: square"/>
   </g>
   <g id="line2d_15">
    <path d="M 356.275195 517.7376 
L 408.285006 517.7376 
" clip-path="url(#p0ac9a861b2)" style="fill: none; stroke: #9467bd; stroke-width: 2.1; stroke-linecap: square"/>
   </g>
   <g id="line2d_16">
    <path d="M 408.285006 517.7376 
L 408.285006 429.92064 
" clip-path="url(#p0ac9a861b2)" style="fill: none; stroke: #8c564b; stroke-width: 2.1; stroke-linecap: square"/>
   </g>
   <g id="line2d_17">
    <path d="M 408.285006 429.92064 
L 493.143119 429.92064 
" clip-path="url(#p0ac9a861b2)" style="fill: none; stroke: #e377c2; stroke-width: 2.1; stroke-linecap: square"/>
   </g>
   <g id="line2d_18">
    <path d="M 493.143119 429.92064 
L 493.143119 517.7376 
" clip-path="url(#p0ac9a861b2)" style="fill: none; stroke: #7f7f7f; stroke-width: 2.1; stroke-linecap: square"/>
   </g>
   <g id="line2d_19">
    <path d="M 493.143119 517.7376 
L 545.15293 517.7376 
" clip-path="url(#p0ac9a861b2)" style="fill: none; stroke: #bcbd22; stroke-width: 2.1; stroke-linecap: square"/>
   </g>
   <g id="line2d_20">
    <path d="M 545.15293 517.7376 
L 545.15293 429.92064 
" clip-path="url(#p0ac9a861b2)" style="fill: none; stroke: #17becf; stroke-width: 2.1; stroke-linecap: square"/>
   </g>
   <g id="line2d_21">
    <path d="M 545.15293 429.92064 
L 630.011044 429.92064 
" clip-path="url(#p0ac9a861b2)" style="fill: none; stroke: #1f77b4; stroke-width: 2.1; stroke-linecap: square"/>
   </g>
   <g id="line2d_22">
    <path d="M 630.011044 429.92064 
L 630.011044 517.7376 
" clip-path="url(#p0ac9a861b2)" style="fill: none; stroke: #ff7f0e; stroke-width: 2.1; stroke-linecap: square"/>
   </g>
   <g id="line2d_23">
    <path d="M 630.011044 517.7376 
L 682.020855 517.7376 
" clip-path="url(#p0ac9a861b2)" style="fill: none; stroke: #2ca02c; stroke-width: 2.1; stroke-linecap: square"/>
   </g>
   <g id="line2d_24">
    <path d="M 682.020855 517.7376 
L 682.020855 429.92064 
" clip-path="url(#p0ac9a861b2)" style="fill: none; stroke: #d62728; stroke-width: 2.1; stroke-linecap: square"/>
   </g>
   <g id="line2d_25">
    <path d="M 682.020855 429.92064 
L 766.878968 429.92064 
" clip-path="url(#p0ac9a861b2)" style="fill: none; stroke: #9467bd; stroke-width: 2.1; stroke-linecap: square"/>
   </g>
   <g id="line2d_26">
    <path d="M 766.878968 429.92064 
L 766.878968 517.7376 
" clip-path="url(#p0ac9a861b2)" style="fill: none; stroke: #8c564b; stroke-width: 2.1; stroke-linecap: square"/>
   </g>
   <g id="line2d_27">
    <path d="M 766.878968 517.7376 
L 818.888779 517.7376 
" clip-path="url(#p0ac9a861b2)" style="fill: none; stroke: #e377c2; stroke-width: 2.1; stroke-linecap: square"/>
   </g>
   <g id="line2d_28">
    <path d="M 818.888779 517.7376 
L 818.888779 429.92064 
" clip-path="url(#p0ac9a861b2)" style="fill: none; stroke: #7f7f7f; stroke-width: 2.1; stroke-linecap: square"/>
   </g>
   <g id="line2d_29">
    <path d="M 108.544251 429.92064 
L 134.549157 429.92064 
" clip-path="url(#p0ac9a861b2)" style="fill: none; stroke: #bcbd22; stroke-width: 2.1; stroke-linecap: square"/>
   </g>
   <g id="line2d_30">
    <path d="M 766.878968 429.92064 
L 792.883874 429.92064 
" clip-path="url(#p0ac9a861b2)" style="fill: none; stroke: #17becf; stroke-width: 2.1; stroke-linecap: square"/>
   </g>
   <g id="line2d_31">
    <path d="M 82.539346 541.0224 
L 82.539346 326.4696 
" clip-path="url(#p0ac9a861b2)" style="fill: none; stroke-dasharray: 0.65,1.0725; stroke-dashoffset: 0; stroke: #1f77b4; stroke-width: 0.65"/>
   </g>
   <g id="line2d_32">
    <path d="M 134.549157 541.0224 
L 134.549157 326.4696 
" clip-path="url(#p0ac9a861b2)" style="fill: none; stroke-dasharray: 0.65,1.0725; stroke-dashoffset: 0; stroke: #1f77b4; stroke-width: 0.65"/>
   </g>
   <g id="line2d_33">
    <path d="M 219.40727 541.0224 
L 219.40727 326.4696 
" clip-path="url(#p0ac9a861b2)" style="fill: none; stroke-dasharray: 0.65,1.0725; stroke-dashoffset: 0; stroke: #1f77b4; stroke-width: 0.65"/>
   </g>
   <g id="line2d_34">
    <path d="M 271.417081 541.0224 
L 271.417081 326.4696 
" clip-path="url(#p0ac9a861b2)" style="fill: none; stroke-dasharray: 0.65,1.0725; stroke-dashoffset: 0; stroke: #1f77b4; stroke-width: 0.65"/>
   </g>
   <g id="line2d_35">
    <path d="M 356.275195 541.0224 
L 356.275195 326.4696 
" clip-path="url(#p0ac9a861b2)" style="fill: none; stroke-dasharray: 0.65,1.0725; stroke-dashoffset: 0; stroke: #1f77b4; stroke-width: 0.65"/>
   </g>
   <g id="line2d_36">
    <path d="M 408.285006 541.0224 
L 408.285006 326.4696 
" clip-path="url(#p0ac9a861b2)" style="fill: none; stroke-dasharray: 0.65,1.0725; stroke-dashoffset: 0; stroke: #1f77b4; stroke-width: 0.65"/>
   </g>
   <g id="line2d_37">
    <path d="M 493.143119 541.0224 
L 493.143119 326.4696 
" clip-path="url(#p0ac9a861b2)" style="fill: none; stroke-dasharray: 0.65,1.0725; stroke-dashoffset: 0; stroke: #1f77b4; stroke-width: 0.65"/>
   </g>
   <g id="line2d_38">
    <path d="M 545.15293 541.0224 
L 545.15293 326.4696 
" clip-path="url(#p0ac9a861b2)" style="fill: none; stroke-dasharray: 0.65,1.0725; stroke-dashoffset: 0; stroke: #1f77b4; stroke-width: 0.65"/>
   </g>
   <g id="line2d_39">
    <path d="M 630.011044 541.0224 
L 630.011044 326.4696 
" clip-path="url(#p0ac9a861b2)" style="fill: none; stroke-dasharray: 0.65,1.0725; stroke-dashoffset: 0; stroke: #1f77b4; stroke-width: 0.65"/>
   </g>
   <g id="line2d_40">
    <path d="M 682.020855 541.0224 
L 682.020855 326.4696 
" clip-path="url(#p0ac9a861b2)" style="fill: none; stroke-dasharray: 0.65,1.0725; stroke-dashoffset: 0; stroke: #1f77b4; stroke-width: 0.65"/>
   </g>
   <g id="line2d_41">
    <path d="M 766.878968 541.0224 
L 766.878968 326.4696 
" clip-path="url(#p0ac9a861b2)" style="fill: none; stroke-dasharray: 0.65,1.0725; stroke-dashoffset: 0; stroke: #1f77b4; stroke-width: 0.65"/>
   </g>
   <g id="line2d_42">
    <path d="M 818.888779 541.0224 
L 818.888779 326.4696 
" clip-path="url(#p0ac9a861b2)" style="fill: none; stroke-dasharray: 0.65,1.0725; stroke-dashoffset: 0; stroke: #1f77b4; stroke-width: 0.65"/>
   </g>
   <g id="patch_8">
    <path d="M 796.255115 185.0976 
Q 803.149865 185.0976 808.92658 185.0976 
" style="fill: none; stroke: #000000; stroke-linecap: round"/>
    <path d="M 804.92658 183.0976 
L 808.92658 185.0976 
L 804.92658 187.0976 
z
" style="fill: #1f77b4; stroke: #000000; stroke-linecap: round"/>
   </g>
   <g id="text_1">
    <!-- $r$ -->
    <g transform="translate(811.361044 205.056) scale(0.1 -0.1)">
     <defs>
      <path id="DejaVuSans-Oblique-72" d="M 2853 2969 
Q 2766 3016 2653 3041 
Q 2541 3066 2413 3066 
Q 1953 3066 1609 2717 
Q 1266 2369 1153 1784 
L 800 0 
L 225 0 
L 909 3500 
L 1484 3500 
L 1375 2956 
Q 1603 3259 1920 3421 
Q 2238 3584 2597 3584 
Q 2691 3584 2781 3573 
Q 2872 3563 2963 3538 
L 2853 2969 
z
" transform="scale(0.015625)"/>
     </defs>
     <use xlink:href="#DejaVuSans-Oblique-72"/>
    </g>
   </g>
   <g id="text_2">
    <!-- $V_{\rm cfp}(r)$ -->
    <g transform="translate(96.226138 88.632) scale(0.11 -0.11)">
     <defs>
      <path id="DejaVuSans-Oblique-56" d="M 1319 0 
L 500 4666 
L 1119 4666 
L 1797 653 
L 4063 4666 
L 4750 4666 
L 2053 0 
L 1319 0 
z
" transform="scale(0.015625)"/>
      <path id="DejaVuSans-63" d="M 3122 3366 
L 3122 2828 
Q 2878 2963 2633 3030 
Q 2388 3097 2138 3097 
Q 1578 3097 1268 2742 
Q 959 2388 959 1747 
Q 959 1106 1268 751 
Q 1578 397 2138 397 
Q 2388 397 2633 464 
Q 2878 531 3122 666 
L 3122 134 
Q 2881 22 2623 -34 
Q 2366 -91 2075 -91 
Q 1284 -91 818 406 
Q 353 903 353 1747 
Q 353 2603 823 3093 
Q 1294 3584 2113 3584 
Q 2378 3584 2631 3529 
Q 2884 3475 3122 3366 
z
" transform="scale(0.015625)"/>
      <path id="DejaVuSans-66" d="M 2375 4863 
L 2375 4384 
L 1825 4384 
Q 1516 4384 1395 4259 
Q 1275 4134 1275 3809 
L 1275 3500 
L 2222 3500 
L 2222 3053 
L 1275 3053 
L 1275 0 
L 697 0 
L 697 3053 
L 147 3053 
L 147 3500 
L 697 3500 
L 697 3744 
Q 697 4328 969 4595 
Q 1241 4863 1831 4863 
L 2375 4863 
z
" transform="scale(0.015625)"/>
      <path id="DejaVuSans-70" d="M 1159 525 
L 1159 -1331 
L 581 -1331 
L 581 3500 
L 1159 3500 
L 1159 2969 
Q 1341 3281 1617 3432 
Q 1894 3584 2278 3584 
Q 2916 3584 3314 3078 
Q 3713 2572 3713 1747 
Q 3713 922 3314 415 
Q 2916 -91 2278 -91 
Q 1894 -91 1617 61 
Q 1341 213 1159 525 
z
M 3116 1747 
Q 3116 2381 2855 2742 
Q 2594 3103 2138 3103 
Q 1681 3103 1420 2742 
Q 1159 2381 1159 1747 
Q 1159 1113 1420 752 
Q 1681 391 2138 391 
Q 2594 391 2855 752 
Q 3116 1113 3116 1747 
z
" transform="scale(0.015625)"/>
      <path id="DejaVuSans-28" d="M 1984 4856 
Q 1566 4138 1362 3434 
Q 1159 2731 1159 2009 
Q 1159 1288 1364 580 
Q 1569 -128 1984 -844 
L 1484 -844 
Q 1016 -109 783 600 
Q 550 1309 550 2009 
Q 550 2706 781 3412 
Q 1013 4119 1484 4856 
L 1984 4856 
z
" transform="scale(0.015625)"/>
      <path id="DejaVuSans-29" d="M 513 4856 
L 1013 4856 
Q 1481 4119 1714 3412 
Q 1947 2706 1947 2009 
Q 1947 1309 1714 600 
Q 1481 -109 1013 -844 
L 513 -844 
Q 928 -128 1133 580 
Q 1338 1288 1338 2009 
Q 1338 2731 1133 3434 
Q 928 4138 513 4856 
z
" transform="scale(0.015625)"/>
     </defs>
     <use xlink:href="#DejaVuSans-Oblique-56" transform="translate(0 0.125)"/>
     <use xlink:href="#DejaVuSans-63" transform="translate(68.408203 -16.28125) scale(0.7)"/>
     <use xlink:href="#DejaVuSans-66" transform="translate(106.894531 -16.28125) scale(0.7)"/>
     <use xlink:href="#DejaVuSans-70" transform="translate(131.538086 -16.28125) scale(0.7)"/>
     <use xlink:href="#DejaVuSans-28" transform="translate(178.706055 0.125)"/>
     <use xlink:href="#DejaVuSans-Oblique-72" transform="translate(217.719727 0.125)"/>
     <use xlink:href="#DejaVuSans-29" transform="translate(258.833008 0.125)"/>
    </g>
   </g>
   <g id="text_3">
    <!-- regione -->
    <g transform="translate(159.979463 111.817969) scale(0.09 -0.09)">
     <defs>
      <path id="DejaVuSans-72" d="M 2631 2963 
Q 2534 3019 2420 3045 
Q 2306 3072 2169 3072 
Q 1681 3072 1420 2755 
Q 1159 2438 1159 1844 
L 1159 0 
L 581 0 
L 581 3500 
L 1159 3500 
L 1159 2956 
Q 1341 3275 1631 3429 
Q 1922 3584 2338 3584 
Q 2397 3584 2469 3576 
Q 2541 3569 2628 3553 
L 2631 2963 
z
" transform="scale(0.015625)"/>
      <path id="DejaVuSans-65" d="M 3597 1894 
L 3597 1613 
L 953 1613 
Q 991 1019 1311 708 
Q 1631 397 2203 397 
Q 2534 397 2845 478 
Q 3156 559 3463 722 
L 3463 178 
Q 3153 47 2828 -22 
Q 2503 -91 2169 -91 
Q 1331 -91 842 396 
Q 353 884 353 1716 
Q 353 2575 817 3079 
Q 1281 3584 2069 3584 
Q 2775 3584 3186 3129 
Q 3597 2675 3597 1894 
z
M 3022 2063 
Q 3016 2534 2758 2815 
Q 2500 3097 2075 3097 
Q 1594 3097 1305 2825 
Q 1016 2553 972 2059 
L 3022 2063 
z
" transform="scale(0.015625)"/>
      <path id="DejaVuSans-67" d="M 2906 1791 
Q 2906 2416 2648 2759 
Q 2391 3103 1925 3103 
Q 1463 3103 1205 2759 
Q 947 2416 947 1791 
Q 947 1169 1205 825 
Q 1463 481 1925 481 
Q 2391 481 2648 825 
Q 2906 1169 2906 1791 
z
M 3481 434 
Q 3481 -459 3084 -895 
Q 2688 -1331 1869 -1331 
Q 1566 -1331 1297 -1286 
Q 1028 -1241 775 -1147 
L 775 -588 
Q 1028 -725 1275 -790 
Q 1522 -856 1778 -856 
Q 2344 -856 2625 -561 
Q 2906 -266 2906 331 
L 2906 616 
Q 2728 306 2450 153 
Q 2172 0 1784 0 
Q 1141 0 747 490 
Q 353 981 353 1791 
Q 353 2603 747 3093 
Q 1141 3584 1784 3584 
Q 2172 3584 2450 3431 
Q 2728 3278 2906 2969 
L 2906 3500 
L 3481 3500 
L 3481 434 
z
" transform="scale(0.015625)"/>
      <path id="DejaVuSans-69" d="M 603 3500 
L 1178 3500 
L 1178 0 
L 603 0 
L 603 3500 
z
M 603 4863 
L 1178 4863 
L 1178 4134 
L 603 4134 
L 603 4863 
z
" transform="scale(0.015625)"/>
      <path id="DejaVuSans-6f" d="M 1959 3097 
Q 1497 3097 1228 2736 
Q 959 2375 959 1747 
Q 959 1119 1226 758 
Q 1494 397 1959 397 
Q 2419 397 2687 759 
Q 2956 1122 2956 1747 
Q 2956 2369 2687 2733 
Q 2419 3097 1959 3097 
z
M 1959 3584 
Q 2709 3584 3137 3096 
Q 3566 2609 3566 1747 
Q 3566 888 3137 398 
Q 2709 -91 1959 -91 
Q 1206 -91 779 398 
Q 353 888 353 1747 
Q 353 2609 779 3096 
Q 1206 3584 1959 3584 
z
" transform="scale(0.015625)"/>
      <path id="DejaVuSans-6e" d="M 3513 2113 
L 3513 0 
L 2938 0 
L 2938 2094 
Q 2938 2591 2744 2837 
Q 2550 3084 2163 3084 
Q 1697 3084 1428 2787 
Q 1159 2491 1159 1978 
L 1159 0 
L 581 0 
L 581 3500 
L 1159 3500 
L 1159 2956 
Q 1366 3272 1645 3428 
Q 1925 3584 2291 3584 
Q 2894 3584 3203 3211 
Q 3513 2838 3513 2113 
z
" transform="scale(0.015625)"/>
     </defs>
     <use xlink:href="#DejaVuSans-72"/>
     <use xlink:href="#DejaVuSans-65" transform="translate(38.863281 0)"/>
     <use xlink:href="#DejaVuSans-67" transform="translate(100.386719 0)"/>
     <use xlink:href="#DejaVuSans-69" transform="translate(163.863281 0)"/>
     <use xlink:href="#DejaVuSans-6f" transform="translate(191.646484 0)"/>
     <use xlink:href="#DejaVuSans-6e" transform="translate(252.828125 0)"/>
     <use xlink:href="#DejaVuSans-65" transform="translate(316.207031 0)"/>
    </g>
    <!-- interstiziale -->
    <g transform="translate(150.746026 121.896) scale(0.09 -0.09)">
     <defs>
      <path id="DejaVuSans-74" d="M 1172 4494 
L 1172 3500 
L 2356 3500 
L 2356 3053 
L 1172 3053 
L 1172 1153 
Q 1172 725 1289 603 
Q 1406 481 1766 481 
L 2356 481 
L 2356 0 
L 1766 0 
Q 1100 0 847 248 
Q 594 497 594 1153 
L 594 3053 
L 172 3053 
L 172 3500 
L 594 3500 
L 594 4494 
L 1172 4494 
z
" transform="scale(0.015625)"/>
      <path id="DejaVuSans-73" d="M 2834 3397 
L 2834 2853 
Q 2591 2978 2328 3040 
Q 2066 3103 1784 3103 
Q 1356 3103 1142 2972 
Q 928 2841 928 2578 
Q 928 2378 1081 2264 
Q 1234 2150 1697 2047 
L 1894 2003 
Q 2506 1872 2764 1633 
Q 3022 1394 3022 966 
Q 3022 478 2636 193 
Q 2250 -91 1575 -91 
Q 1294 -91 989 -36 
Q 684 19 347 128 
L 347 722 
Q 666 556 975 473 
Q 1284 391 1588 391 
Q 1994 391 2212 530 
Q 2431 669 2431 922 
Q 2431 1156 2273 1281 
Q 2116 1406 1581 1522 
L 1381 1569 
Q 847 1681 609 1914 
Q 372 2147 372 2553 
Q 372 3047 722 3315 
Q 1072 3584 1716 3584 
Q 2034 3584 2315 3537 
Q 2597 3491 2834 3397 
z
" transform="scale(0.015625)"/>
      <path id="DejaVuSans-7a" d="M 353 3500 
L 3084 3500 
L 3084 2975 
L 922 459 
L 3084 459 
L 3084 0 
L 275 0 
L 275 525 
L 2438 3041 
L 353 3041 
L 353 3500 
z
" transform="scale(0.015625)"/>
      <path id="DejaVuSans-61" d="M 2194 1759 
Q 1497 1759 1228 1600 
Q 959 1441 959 1056 
Q 959 750 1161 570 
Q 1363 391 1709 391 
Q 2188 391 2477 730 
Q 2766 1069 2766 1631 
L 2766 1759 
L 2194 1759 
z
M 3341 1997 
L 3341 0 
L 2766 0 
L 2766 531 
Q 2569 213 2275 61 
Q 1981 -91 1556 -91 
Q 1019 -91 701 211 
Q 384 513 384 1019 
Q 384 1609 779 1909 
Q 1175 2209 1959 2209 
L 2766 2209 
L 2766 2266 
Q 2766 2663 2505 2880 
Q 2244 3097 1772 3097 
Q 1472 3097 1187 3025 
Q 903 2953 641 2809 
L 641 3341 
Q 956 3463 1253 3523 
Q 1550 3584 1831 3584 
Q 2591 3584 2966 3190 
Q 3341 2797 3341 1997 
z
" transform="scale(0.015625)"/>
      <path id="DejaVuSans-6c" d="M 603 4863 
L 1178 4863 
L 1178 0 
L 603 0 
L 603 4863 
z
" transform="scale(0.015625)"/>
     </defs>
     <use xlink:href="#DejaVuSans-69"/>
     <use xlink:href="#DejaVuSans-6e" transform="translate(27.783203 0)"/>
     <use xlink:href="#DejaVuSans-74" transform="translate(91.162109 0)"/>
     <use xlink:href="#DejaVuSans-65" transform="translate(130.371094 0)"/>
     <use xlink:href="#DejaVuSans-72" transform="translate(191.894531 0)"/>
     <use xlink:href="#DejaVuSans-73" transform="translate(233.007812 0)"/>
     <use xlink:href="#DejaVuSans-74" transform="translate(285.107422 0)"/>
     <use xlink:href="#DejaVuSans-69" transform="translate(324.316406 0)"/>
     <use xlink:href="#DejaVuSans-7a" transform="translate(352.099609 0)"/>
     <use xlink:href="#DejaVuSans-69" transform="translate(404.589844 0)"/>
     <use xlink:href="#DejaVuSans-61" transform="translate(432.373047 0)"/>
     <use xlink:href="#DejaVuSans-6c" transform="translate(493.652344 0)"/>
     <use xlink:href="#DejaVuSans-65" transform="translate(521.435547 0)"/>
    </g>
   </g>
   <g id="text_4">
    <!-- regione -->
    <g transform="translate(296.847388 111.817969) scale(0.09 -0.09)">
     <use xlink:href="#DejaVuSans-72"/>
     <use xlink:href="#DejaVuSans-65" transform="translate(38.863281 0)"/>
     <use xlink:href="#DejaVuSans-67" transform="translate(100.386719 0)"/>
     <use xlink:href="#DejaVuSans-69" transform="translate(163.863281 0)"/>
     <use xlink:href="#DejaVuSans-6f" transform="translate(191.646484 0)"/>
     <use xlink:href="#DejaVuSans-6e" transform="translate(252.828125 0)"/>
     <use xlink:href="#DejaVuSans-65" transform="translate(316.207031 0)"/>
    </g>
    <!-- interstiziale -->
    <g transform="translate(287.61395 121.896) scale(0.09 -0.09)">
     <use xlink:href="#DejaVuSans-69"/>
     <use xlink:href="#DejaVuSans-6e" transform="translate(27.783203 0)"/>
     <use xlink:href="#DejaVuSans-74" transform="translate(91.162109 0)"/>
     <use xlink:href="#DejaVuSans-65" transform="translate(130.371094 0)"/>
     <use xlink:href="#DejaVuSans-72" transform="translate(191.894531 0)"/>
     <use xlink:href="#DejaVuSans-73" transform="translate(233.007812 0)"/>
     <use xlink:href="#DejaVuSans-74" transform="translate(285.107422 0)"/>
     <use xlink:href="#DejaVuSans-69" transform="translate(324.316406 0)"/>
     <use xlink:href="#DejaVuSans-7a" transform="translate(352.099609 0)"/>
     <use xlink:href="#DejaVuSans-69" transform="translate(404.589844 0)"/>
     <use xlink:href="#DejaVuSans-61" transform="translate(432.373047 0)"/>
     <use xlink:href="#DejaVuSans-6c" transform="translate(493.652344 0)"/>
     <use xlink:href="#DejaVuSans-65" transform="translate(521.435547 0)"/>
    </g>
   </g>
   <g id="text_5">
    <!-- regione -->
    <g transform="translate(433.715312 111.817969) scale(0.09 -0.09)">
     <use xlink:href="#DejaVuSans-72"/>
     <use xlink:href="#DejaVuSans-65" transform="translate(38.863281 0)"/>
     <use xlink:href="#DejaVuSans-67" transform="translate(100.386719 0)"/>
     <use xlink:href="#DejaVuSans-69" transform="translate(163.863281 0)"/>
     <use xlink:href="#DejaVuSans-6f" transform="translate(191.646484 0)"/>
     <use xlink:href="#DejaVuSans-6e" transform="translate(252.828125 0)"/>
     <use xlink:href="#DejaVuSans-65" transform="translate(316.207031 0)"/>
    </g>
    <!-- interstiziale -->
    <g transform="translate(424.481875 121.896) scale(0.09 -0.09)">
     <use xlink:href="#DejaVuSans-69"/>
     <use xlink:href="#DejaVuSans-6e" transform="translate(27.783203 0)"/>
     <use xlink:href="#DejaVuSans-74" transform="translate(91.162109 0)"/>
     <use xlink:href="#DejaVuSans-65" transform="translate(130.371094 0)"/>
     <use xlink:href="#DejaVuSans-72" transform="translate(191.894531 0)"/>
     <use xlink:href="#DejaVuSans-73" transform="translate(233.007812 0)"/>
     <use xlink:href="#DejaVuSans-74" transform="translate(285.107422 0)"/>
     <use xlink:href="#DejaVuSans-69" transform="translate(324.316406 0)"/>
     <use xlink:href="#DejaVuSans-7a" transform="translate(352.099609 0)"/>
     <use xlink:href="#DejaVuSans-69" transform="translate(404.589844 0)"/>
     <use xlink:href="#DejaVuSans-61" transform="translate(432.373047 0)"/>
     <use xlink:href="#DejaVuSans-6c" transform="translate(493.652344 0)"/>
     <use xlink:href="#DejaVuSans-65" transform="translate(521.435547 0)"/>
    </g>
   </g>
   <g id="text_6">
    <!-- regione -->
    <g transform="translate(570.583237 111.817969) scale(0.09 -0.09)">
     <use xlink:href="#DejaVuSans-72"/>
     <use xlink:href="#DejaVuSans-65" transform="translate(38.863281 0)"/>
     <use xlink:href="#DejaVuSans-67" transform="translate(100.386719 0)"/>
     <use xlink:href="#DejaVuSans-69" transform="translate(163.863281 0)"/>
     <use xlink:href="#DejaVuSans-6f" transform="translate(191.646484 0)"/>
     <use xlink:href="#DejaVuSans-6e" transform="translate(252.828125 0)"/>
     <use xlink:href="#DejaVuSans-65" transform="translate(316.207031 0)"/>
    </g>
    <!-- interstiziale -->
    <g transform="translate(561.3498 121.896) scale(0.09 -0.09)">
     <use xlink:href="#DejaVuSans-69"/>
     <use xlink:href="#DejaVuSans-6e" transform="translate(27.783203 0)"/>
     <use xlink:href="#DejaVuSans-74" transform="translate(91.162109 0)"/>
     <use xlink:href="#DejaVuSans-65" transform="translate(130.371094 0)"/>
     <use xlink:href="#DejaVuSans-72" transform="translate(191.894531 0)"/>
     <use xlink:href="#DejaVuSans-73" transform="translate(233.007812 0)"/>
     <use xlink:href="#DejaVuSans-74" transform="translate(285.107422 0)"/>
     <use xlink:href="#DejaVuSans-69" transform="translate(324.316406 0)"/>
     <use xlink:href="#DejaVuSans-7a" transform="translate(352.099609 0)"/>
     <use xlink:href="#DejaVuSans-69" transform="translate(404.589844 0)"/>
     <use xlink:href="#DejaVuSans-61" transform="translate(432.373047 0)"/>
     <use xlink:href="#DejaVuSans-6c" transform="translate(493.652344 0)"/>
     <use xlink:href="#DejaVuSans-65" transform="translate(521.435547 0)"/>
    </g>
   </g>
   <g id="text_7">
    <!-- regione -->
    <g transform="translate(707.451162 111.817969) scale(0.09 -0.09)">
     <use xlink:href="#DejaVuSans-72"/>
     <use xlink:href="#DejaVuSans-65" transform="translate(38.863281 0)"/>
     <use xlink:href="#DejaVuSans-67" transform="translate(100.386719 0)"/>
     <use xlink:href="#DejaVuSans-69" transform="translate(163.863281 0)"/>
     <use xlink:href="#DejaVuSans-6f" transform="translate(191.646484 0)"/>
     <use xlink:href="#DejaVuSans-6e" transform="translate(252.828125 0)"/>
     <use xlink:href="#DejaVuSans-65" transform="translate(316.207031 0)"/>
    </g>
    <!-- interstiziale -->
    <g transform="translate(698.217724 121.896) scale(0.09 -0.09)">
     <use xlink:href="#DejaVuSans-69"/>
     <use xlink:href="#DejaVuSans-6e" transform="translate(27.783203 0)"/>
     <use xlink:href="#DejaVuSans-74" transform="translate(91.162109 0)"/>
     <use xlink:href="#DejaVuSans-65" transform="translate(130.371094 0)"/>
     <use xlink:href="#DejaVuSans-72" transform="translate(191.894531 0)"/>
     <use xlink:href="#DejaVuSans-73" transform="translate(233.007812 0)"/>
     <use xlink:href="#DejaVuSans-74" transform="translate(285.107422 0)"/>
     <use xlink:href="#DejaVuSans-69" transform="translate(324.316406 0)"/>
     <use xlink:href="#DejaVuSans-7a" transform="translate(352.099609 0)"/>
     <use xlink:href="#DejaVuSans-69" transform="translate(404.589844 0)"/>
     <use xlink:href="#DejaVuSans-61" transform="translate(432.373047 0)"/>
     <use xlink:href="#DejaVuSans-6c" transform="translate(493.652344 0)"/>
     <use xlink:href="#DejaVuSans-65" transform="translate(521.435547 0)"/>
    </g>
   </g>
   <g id="text_8">
    <!-- regione -->
    <g transform="translate(229.357801 134.332099) scale(0.085 -0.085)">
     <use xlink:href="#DejaVuSans-72"/>
     <use xlink:href="#DejaVuSans-65" transform="translate(38.863281 0)"/>
     <use xlink:href="#DejaVuSans-67" transform="translate(100.386719 0)"/>
     <use xlink:href="#DejaVuSans-69" transform="translate(163.863281 0)"/>
     <use xlink:href="#DejaVuSans-6f" transform="translate(191.646484 0)"/>
     <use xlink:href="#DejaVuSans-6e" transform="translate(252.828125 0)"/>
     <use xlink:href="#DejaVuSans-65" transform="translate(316.207031 0)"/>
    </g>
    <!-- di core -->
    <g transform="translate(230.978777 143.85024) scale(0.085 -0.085)">
     <defs>
      <path id="DejaVuSans-64" d="M 2906 2969 
L 2906 4863 
L 3481 4863 
L 3481 0 
L 2906 0 
L 2906 525 
Q 2725 213 2448 61 
Q 2172 -91 1784 -91 
Q 1150 -91 751 415 
Q 353 922 353 1747 
Q 353 2572 751 3078 
Q 1150 3584 1784 3584 
Q 2172 3584 2448 3432 
Q 2725 3281 2906 2969 
z
M 947 1747 
Q 947 1113 1208 752 
Q 1469 391 1925 391 
Q 2381 391 2643 752 
Q 2906 1113 2906 1747 
Q 2906 2381 2643 2742 
Q 2381 3103 1925 3103 
Q 1469 3103 1208 2742 
Q 947 2381 947 1747 
z
" transform="scale(0.015625)"/>
      <path id="DejaVuSans-20" transform="scale(0.015625)"/>
     </defs>
     <use xlink:href="#DejaVuSans-64"/>
     <use xlink:href="#DejaVuSans-69" transform="translate(63.476562 0)"/>
     <use xlink:href="#DejaVuSans-20" transform="translate(91.259766 0)"/>
     <use xlink:href="#DejaVuSans-63" transform="translate(123.046875 0)"/>
     <use xlink:href="#DejaVuSans-6f" transform="translate(178.027344 0)"/>
     <use xlink:href="#DejaVuSans-72" transform="translate(239.208984 0)"/>
     <use xlink:href="#DejaVuSans-65" transform="translate(278.072266 0)"/>
    </g>
   </g>
   <g id="text_9">
    <!-- regione -->
    <g transform="translate(366.225725 134.332099) scale(0.085 -0.085)">
     <use xlink:href="#DejaVuSans-72"/>
     <use xlink:href="#DejaVuSans-65" transform="translate(38.863281 0)"/>
     <use xlink:href="#DejaVuSans-67" transform="translate(100.386719 0)"/>
     <use xlink:href="#DejaVuSans-69" transform="translate(163.863281 0)"/>
     <use xlink:href="#DejaVuSans-6f" transform="translate(191.646484 0)"/>
     <use xlink:href="#DejaVuSans-6e" transform="translate(252.828125 0)"/>
     <use xlink:href="#DejaVuSans-65" transform="translate(316.207031 0)"/>
    </g>
    <!-- di core -->
    <g transform="translate(367.846702 143.85024) scale(0.085 -0.085)">
     <use xlink:href="#DejaVuSans-64"/>
     <use xlink:href="#DejaVuSans-69" transform="translate(63.476562 0)"/>
     <use xlink:href="#DejaVuSans-20" transform="translate(91.259766 0)"/>
     <use xlink:href="#DejaVuSans-63" transform="translate(123.046875 0)"/>
     <use xlink:href="#DejaVuSans-6f" transform="translate(178.027344 0)"/>
     <use xlink:href="#DejaVuSans-72" transform="translate(239.208984 0)"/>
     <use xlink:href="#DejaVuSans-65" transform="translate(278.072266 0)"/>
    </g>
   </g>
   <g id="text_10">
    <!-- regione -->
    <g transform="translate(503.09365 134.332099) scale(0.085 -0.085)">
     <use xlink:href="#DejaVuSans-72"/>
     <use xlink:href="#DejaVuSans-65" transform="translate(38.863281 0)"/>
     <use xlink:href="#DejaVuSans-67" transform="translate(100.386719 0)"/>
     <use xlink:href="#DejaVuSans-69" transform="translate(163.863281 0)"/>
     <use xlink:href="#DejaVuSans-6f" transform="translate(191.646484 0)"/>
     <use xlink:href="#DejaVuSans-6e" transform="translate(252.828125 0)"/>
     <use xlink:href="#DejaVuSans-65" transform="translate(316.207031 0)"/>
    </g>
    <!-- di core -->
    <g transform="translate(504.714626 143.85024) scale(0.085 -0.085)">
     <use xlink:href="#DejaVuSans-64"/>
     <use xlink:href="#DejaVuSans-69" transform="translate(63.476562 0)"/>
     <use xlink:href="#DejaVuSans-20" transform="translate(91.259766 0)"/>
     <use xlink:href="#DejaVuSans-63" transform="translate(123.046875 0)"/>
     <use xlink:href="#DejaVuSans-6f" transform="translate(178.027344 0)"/>
     <use xlink:href="#DejaVuSans-72" transform="translate(239.208984 0)"/>
     <use xlink:href="#DejaVuSans-65" transform="translate(278.072266 0)"/>
    </g>
   </g>
   <g id="text_11">
    <!-- regione -->
    <g transform="translate(639.961574 134.332099) scale(0.085 -0.085)">
     <use xlink:href="#DejaVuSans-72"/>
     <use xlink:href="#DejaVuSans-65" transform="translate(38.863281 0)"/>
     <use xlink:href="#DejaVuSans-67" transform="translate(100.386719 0)"/>
     <use xlink:href="#DejaVuSans-69" transform="translate(163.863281 0)"/>
     <use xlink:href="#DejaVuSans-6f" transform="translate(191.646484 0)"/>
     <use xlink:href="#DejaVuSans-6e" transform="translate(252.828125 0)"/>
     <use xlink:href="#DejaVuSans-65" transform="translate(316.207031 0)"/>
    </g>
    <!-- di core -->
    <g transform="translate(641.582551 143.85024) scale(0.085 -0.085)">
     <use xlink:href="#DejaVuSans-64"/>
     <use xlink:href="#DejaVuSans-69" transform="translate(63.476562 0)"/>
     <use xlink:href="#DejaVuSans-20" transform="translate(91.259766 0)"/>
     <use xlink:href="#DejaVuSans-63" transform="translate(123.046875 0)"/>
     <use xlink:href="#DejaVuSans-6f" transform="translate(178.027344 0)"/>
     <use xlink:href="#DejaVuSans-72" transform="translate(239.208984 0)"/>
     <use xlink:href="#DejaVuSans-65" transform="translate(278.072266 0)"/>
    </g>
   </g>
   <g id="patch_9">
    <path d="M 796.255115 517.7376 
Q 803.149865 517.7376 808.92658 517.7376 
" style="fill: none; stroke: #000000; stroke-linecap: round"/>
    <path d="M 804.92658 515.7376 
L 808.92658 517.7376 
L 804.92658 519.7376 
z
" style="fill: #1f77b4; stroke: #000000; stroke-linecap: round"/>
   </g>
   <g id="text_12">
    <!-- $x$ -->
    <g transform="translate(811.361044 537.696) scale(0.1 -0.1)">
     <defs>
      <path id="DejaVuSans-Oblique-78" d="M 3841 3500 
L 2234 1784 
L 3219 0 
L 2559 0 
L 1819 1388 
L 531 0 
L -166 0 
L 1556 1844 
L 641 3500 
L 1300 3500 
L 1972 2234 
L 3144 3500 
L 3841 3500 
z
" transform="scale(0.015625)"/>
     </defs>
     <use xlink:href="#DejaVuSans-Oblique-78" transform="translate(0 0.3125)"/>
    </g>
   </g>
   <g id="text_13">
    <!-- $V(x)$ -->
    <g transform="translate(413.759723 331.4592) scale(0.11 -0.11)">
     <use xlink:href="#DejaVuSans-Oblique-56" transform="translate(0 0.125)"/>
     <use xlink:href="#DejaVuSans-28" transform="translate(68.408203 0.125)"/>
     <use xlink:href="#DejaVuSans-Oblique-78" transform="translate(107.421875 0.125)"/>
     <use xlink:href="#DejaVuSans-29" transform="translate(166.601562 0.125)"/>
    </g>
   </g>
   <g id="patch_10">
    <path d="M 522.569723 514.617635 
Q 522.569723 473.827252 522.569723 433.036869 
" style="fill: none; stroke: #000000; stroke-linecap: round"/>
    <path d="M 524.569723 510.617635 
L 522.569723 514.617635 
L 520.569723 510.617635 
" style="fill: none; stroke: #000000; stroke-linecap: round"/>
    <path d="M 520.569723 437.036869 
L 522.569723 433.036869 
L 524.569723 437.036869 
" style="fill: none; stroke: #000000; stroke-linecap: round"/>
   </g>
   <g id="text_14">
    <!-- $V_0$ -->
    <g transform="translate(530.781798 476.588495) scale(0.1 -0.1)">
     <defs>
      <path id="DejaVuSans-30" d="M 2034 4250 
Q 1547 4250 1301 3770 
Q 1056 3291 1056 2328 
Q 1056 1369 1301 889 
Q 1547 409 2034 409 
Q 2525 409 2770 889 
Q 3016 1369 3016 2328 
Q 3016 3291 2770 3770 
Q 2525 4250 2034 4250 
z
M 2034 4750 
Q 2819 4750 3233 4129 
Q 3647 3509 3647 2328 
Q 3647 1150 3233 529 
Q 2819 -91 2034 -91 
Q 1250 -91 836 529 
Q 422 1150 422 2328 
Q 422 3509 836 4129 
Q 1250 4750 2034 4750 
z
" transform="scale(0.015625)"/>
     </defs>
     <use xlink:href="#DejaVuSans-Oblique-56" transform="translate(0 0.09375)"/>
     <use xlink:href="#DejaVuSans-30" transform="translate(68.408203 -16.3125) scale(0.7)"/>
    </g>
   </g>
   <g id="text_15">
    <!-- $-b$ -->
    <g transform="translate(348.875195 544.3488) scale(0.1 -0.1)">
     <defs>
      <path id="DejaVuSans-2212" d="M 678 2272 
L 4684 2272 
L 4684 1741 
L 678 1741 
L 678 2272 
z
" transform="scale(0.015625)"/>
      <path id="DejaVuSans-Oblique-62" d="M 3169 2138 
Q 3169 2591 2961 2847 
Q 2753 3103 2388 3103 
Q 2122 3103 1889 2973 
Q 1656 2844 1484 2597 
Q 1303 2338 1198 1995 
Q 1094 1653 1094 1313 
Q 1094 881 1298 636 
Q 1503 391 1863 391 
Q 2134 391 2365 517 
Q 2597 644 2772 891 
Q 2950 1147 3059 1487 
Q 3169 1828 3169 2138 
z
M 1381 2969 
Q 1594 3256 1914 3420 
Q 2234 3584 2584 3584 
Q 3122 3584 3439 3221 
Q 3756 2859 3756 2241 
Q 3756 1734 3570 1259 
Q 3384 784 3041 416 
Q 2816 172 2522 40 
Q 2228 -91 1906 -91 
Q 1566 -91 1316 65 
Q 1066 222 909 531 
L 806 0 
L 231 0 
L 1178 4863 
L 1753 4863 
L 1381 2969 
z
" transform="scale(0.015625)"/>
     </defs>
     <use xlink:href="#DejaVuSans-2212" transform="translate(0 0.015625)"/>
     <use xlink:href="#DejaVuSans-Oblique-62" transform="translate(83.789062 0.015625)"/>
    </g>
   </g>
   <g id="text_16">
    <!-- $0$ -->
    <g transform="translate(379.0801 544.3488) scale(0.1 -0.1)">
     <use xlink:href="#DejaVuSans-30" transform="translate(0 0.78125)"/>
    </g>
   </g>
   <g id="text_17">
    <!-- $a$ -->
    <g transform="translate(405.185006 544.3488) scale(0.1 -0.1)">
     <defs>
      <path id="DejaVuSans-Oblique-61" d="M 3438 1997 
L 3047 0 
L 2472 0 
L 2578 531 
Q 2325 219 2001 64 
Q 1678 -91 1281 -91 
Q 834 -91 548 182 
Q 263 456 263 884 
Q 263 1497 752 1853 
Q 1241 2209 2100 2209 
L 2900 2209 
L 2931 2363 
Q 2938 2388 2941 2417 
Q 2944 2447 2944 2509 
Q 2944 2788 2717 2942 
Q 2491 3097 2081 3097 
Q 1800 3097 1504 3025 
Q 1209 2953 897 2809 
L 997 3341 
Q 1322 3463 1633 3523 
Q 1944 3584 2234 3584 
Q 2853 3584 3176 3315 
Q 3500 3047 3500 2534 
Q 3500 2431 3484 2292 
Q 3469 2153 3438 1997 
z
M 2816 1759 
L 2241 1759 
Q 1534 1759 1195 1570 
Q 856 1381 856 984 
Q 856 709 1029 553 
Q 1203 397 1509 397 
Q 1978 397 2328 733 
Q 2678 1069 2791 1631 
L 2816 1759 
z
" transform="scale(0.015625)"/>
     </defs>
     <use xlink:href="#DejaVuSans-Oblique-61"/>
    </g>
   </g>
   <g id="text_18">
    <!-- $a+b$ -->
    <g transform="translate(480.743119 544.3488) scale(0.1 -0.1)">
     <defs>
      <path id="DejaVuSans-2b" d="M 2944 4013 
L 2944 2272 
L 4684 2272 
L 4684 1741 
L 2944 1741 
L 2944 0 
L 2419 0 
L 2419 1741 
L 678 1741 
L 678 2272 
L 2419 2272 
L 2419 4013 
L 2944 4013 
z
" transform="scale(0.015625)"/>
     </defs>
     <use xlink:href="#DejaVuSans-Oblique-61" transform="translate(0 0.015625)"/>
     <use xlink:href="#DejaVuSans-2b" transform="translate(80.761719 0.015625)"/>
     <use xlink:href="#DejaVuSans-Oblique-62" transform="translate(184.033203 0.015625)"/>
    </g>
   </g>
   <g id="PathCollection_1">
    <defs>
     <path id="m9530c0f928" d="M 0 6.123724 
C 1.624031 6.123724 3.181764 5.47849 4.330127 4.330127 
C 5.47849 3.181764 6.123724 1.624031 6.123724 0 
C 6.123724 -1.624031 5.47849 -3.181764 4.330127 -4.330127 
C 3.181764 -5.47849 1.624031 -6.123724 0 -6.123724 
C -1.624031 -6.123724 -3.181764 -5.47849 -4.330127 -4.330127 
C -5.47849 -3.181764 -6.123724 -1.624031 -6.123724 0 
C -6.123724 1.624031 -5.47849 3.181764 -4.330127 4.330127 
C -3.181764 5.47849 -1.624031 6.123724 0 6.123724 
z
" style="stroke: #1f77b4"/>
    </defs>
    <g clip-path="url(#p0ac9a861b2)">
     <use xlink:href="#m9530c0f928" x="108.544251" y="185.0976" style="fill: #1f77b4; stroke: #1f77b4"/>
    </g>
   </g>
   <g id="PathCollection_2">
    <defs>
     <path id="md8f508dc30" d="M 0 6.123724 
C 1.624031 6.123724 3.181764 5.47849 4.330127 4.330127 
C 5.47849 3.181764 6.123724 1.624031 6.123724 0 
C 6.123724 -1.624031 5.47849 -3.181764 4.330127 -4.330127 
C 3.181764 -5.47849 1.624031 -6.123724 0 -6.123724 
C -1.624031 -6.123724 -3.181764 -5.47849 -4.330127 -4.330127 
C -5.47849 -3.181764 -6.123724 -1.624031 -6.123724 0 
C -6.123724 1.624031 -5.47849 3.181764 -4.330127 4.330127 
C -3.181764 5.47849 -1.624031 6.123724 0 6.123724 
z
" style="stroke: #ff7f0e"/>
    </defs>
    <g clip-path="url(#p0ac9a861b2)">
     <use xlink:href="#md8f508dc30" x="245.412176" y="185.0976" style="fill: #ff7f0e; stroke: #ff7f0e"/>
    </g>
   </g>
   <g id="PathCollection_3">
    <defs>
     <path id="mc38a09e10b" d="M 0 6.123724 
C 1.624031 6.123724 3.181764 5.47849 4.330127 4.330127 
C 5.47849 3.181764 6.123724 1.624031 6.123724 0 
C 6.123724 -1.624031 5.47849 -3.181764 4.330127 -4.330127 
C 3.181764 -5.47849 1.624031 -6.123724 0 -6.123724 
C -1.624031 -6.123724 -3.181764 -5.47849 -4.330127 -4.330127 
C -5.47849 -3.181764 -6.123724 -1.624031 -6.123724 0 
C -6.123724 1.624031 -5.47849 3.181764 -4.330127 4.330127 
C -3.181764 5.47849 -1.624031 6.123724 0 6.123724 
z
" style="stroke: #2ca02c"/>
    </defs>
    <g clip-path="url(#p0ac9a861b2)">
     <use xlink:href="#mc38a09e10b" x="382.2801" y="185.0976" style="fill: #2ca02c; stroke: #2ca02c"/>
    </g>
   </g>
   <g id="PathCollection_4">
    <defs>
     <path id="md8c6afe67f" d="M 0 6.123724 
C 1.624031 6.123724 3.181764 5.47849 4.330127 4.330127 
C 5.47849 3.181764 6.123724 1.624031 6.123724 0 
C 6.123724 -1.624031 5.47849 -3.181764 4.330127 -4.330127 
C 3.181764 -5.47849 1.624031 -6.123724 0 -6.123724 
C -1.624031 -6.123724 -3.181764 -5.47849 -4.330127 -4.330127 
C -5.47849 -3.181764 -6.123724 -1.624031 -6.123724 0 
C -6.123724 1.624031 -5.47849 3.181764 -4.330127 4.330127 
C -3.181764 5.47849 -1.624031 6.123724 0 6.123724 
z
" style="stroke: #d62728"/>
    </defs>
    <g clip-path="url(#p0ac9a861b2)">
     <use xlink:href="#md8c6afe67f" x="519.148025" y="185.0976" style="fill: #d62728; stroke: #d62728"/>
    </g>
   </g>
   <g id="PathCollection_5">
    <defs>
     <path id="mba3abe46eb" d="M 0 6.123724 
C 1.624031 6.123724 3.181764 5.47849 4.330127 4.330127 
C 5.47849 3.181764 6.123724 1.624031 6.123724 0 
C 6.123724 -1.624031 5.47849 -3.181764 4.330127 -4.330127 
C 3.181764 -5.47849 1.624031 -6.123724 0 -6.123724 
C -1.624031 -6.123724 -3.181764 -5.47849 -4.330127 -4.330127 
C -5.47849 -3.181764 -6.123724 -1.624031 -6.123724 0 
C -6.123724 1.624031 -5.47849 3.181764 -4.330127 4.330127 
C -3.181764 5.47849 -1.624031 6.123724 0 6.123724 
z
" style="stroke: #9467bd"/>
    </defs>
    <g clip-path="url(#p0ac9a861b2)">
     <use xlink:href="#mba3abe46eb" x="656.015949" y="185.0976" style="fill: #9467bd; stroke: #9467bd"/>
    </g>
   </g>
   <g id="PathCollection_6">
    <defs>
     <path id="m4d91d16d2a" d="M 0 6.123724 
C 1.624031 6.123724 3.181764 5.47849 4.330127 4.330127 
C 5.47849 3.181764 6.123724 1.624031 6.123724 0 
C 6.123724 -1.624031 5.47849 -3.181764 4.330127 -4.330127 
C 3.181764 -5.47849 1.624031 -6.123724 0 -6.123724 
C -1.624031 -6.123724 -3.181764 -5.47849 -4.330127 -4.330127 
C -5.47849 -3.181764 -6.123724 -1.624031 -6.123724 0 
C -6.123724 1.624031 -5.47849 3.181764 -4.330127 4.330127 
C -3.181764 5.47849 -1.624031 6.123724 0 6.123724 
z
" style="stroke: #8c564b"/>
    </defs>
    <g clip-path="url(#p0ac9a861b2)">
     <use xlink:href="#m4d91d16d2a" x="792.883874" y="185.0976" style="fill: #8c564b; stroke: #8c564b"/>
    </g>
   </g>
   <g id="PathCollection_7">
    <defs>
     <path id="m2c55048e00" d="M 0 6.123724 
C 1.624031 6.123724 3.181764 5.47849 4.330127 4.330127 
C 5.47849 3.181764 6.123724 1.624031 6.123724 0 
C 6.123724 -1.624031 5.47849 -3.181764 4.330127 -4.330127 
C 3.181764 -5.47849 1.624031 -6.123724 0 -6.123724 
C -1.624031 -6.123724 -3.181764 -5.47849 -4.330127 -4.330127 
C -5.47849 -3.181764 -6.123724 -1.624031 -6.123724 0 
C -6.123724 1.624031 -5.47849 3.181764 -4.330127 4.330127 
C -3.181764 5.47849 -1.624031 6.123724 0 6.123724 
z
" style="stroke: #e377c2"/>
    </defs>
    <g clip-path="url(#p0ac9a861b2)">
     <use xlink:href="#m2c55048e00" x="108.544251" y="429.92064" style="fill: #e377c2; stroke: #e377c2"/>
    </g>
   </g>
   <g id="PathCollection_8">
    <defs>
     <path id="mea1d364f8a" d="M 0 6.123724 
C 1.624031 6.123724 3.181764 5.47849 4.330127 4.330127 
C 5.47849 3.181764 6.123724 1.624031 6.123724 0 
C 6.123724 -1.624031 5.47849 -3.181764 4.330127 -4.330127 
C 3.181764 -5.47849 1.624031 -6.123724 0 -6.123724 
C -1.624031 -6.123724 -3.181764 -5.47849 -4.330127 -4.330127 
C -5.47849 -3.181764 -6.123724 -1.624031 -6.123724 0 
C -6.123724 1.624031 -5.47849 3.181764 -4.330127 4.330127 
C -3.181764 5.47849 -1.624031 6.123724 0 6.123724 
z
" style="stroke: #7f7f7f"/>
    </defs>
    <g clip-path="url(#p0ac9a861b2)">
     <use xlink:href="#mea1d364f8a" x="245.412176" y="429.92064" style="fill: #7f7f7f; stroke: #7f7f7f"/>
    </g>
   </g>
   <g id="PathCollection_9">
    <defs>
     <path id="m8558597e68" d="M 0 6.123724 
C 1.624031 6.123724 3.181764 5.47849 4.330127 4.330127 
C 5.47849 3.181764 6.123724 1.624031 6.123724 0 
C 6.123724 -1.624031 5.47849 -3.181764 4.330127 -4.330127 
C 3.181764 -5.47849 1.624031 -6.123724 0 -6.123724 
C -1.624031 -6.123724 -3.181764 -5.47849 -4.330127 -4.330127 
C -5.47849 -3.181764 -6.123724 -1.624031 -6.123724 0 
C -6.123724 1.624031 -5.47849 3.181764 -4.330127 4.330127 
C -3.181764 5.47849 -1.624031 6.123724 0 6.123724 
z
" style="stroke: #bcbd22"/>
    </defs>
    <g clip-path="url(#p0ac9a861b2)">
     <use xlink:href="#m8558597e68" x="382.2801" y="429.92064" style="fill: #bcbd22; stroke: #bcbd22"/>
    </g>
   </g>
   <g id="PathCollection_10">
    <defs>
     <path id="m7fb2350730" d="M 0 6.123724 
C 1.624031 6.123724 3.181764 5.47849 4.330127 4.330127 
C 5.47849 3.181764 6.123724 1.624031 6.123724 0 
C 6.123724 -1.624031 5.47849 -3.181764 4.330127 -4.330127 
C 3.181764 -5.47849 1.624031 -6.123724 0 -6.123724 
C -1.624031 -6.123724 -3.181764 -5.47849 -4.330127 -4.330127 
C -5.47849 -3.181764 -6.123724 -1.624031 -6.123724 0 
C -6.123724 1.624031 -5.47849 3.181764 -4.330127 4.330127 
C -3.181764 5.47849 -1.624031 6.123724 0 6.123724 
z
" style="stroke: #17becf"/>
    </defs>
    <g clip-path="url(#p0ac9a861b2)">
     <use xlink:href="#m7fb2350730" x="519.148025" y="429.92064" style="fill: #17becf; stroke: #17becf"/>
    </g>
   </g>
   <g id="PathCollection_11">
    <g clip-path="url(#p0ac9a861b2)">
     <use xlink:href="#m9530c0f928" x="656.015949" y="429.92064" style="fill: #1f77b4; stroke: #1f77b4"/>
    </g>
   </g>
   <g id="PathCollection_12">
    <g clip-path="url(#p0ac9a861b2)">
     <use xlink:href="#md8f508dc30" x="792.883874" y="429.92064" style="fill: #ff7f0e; stroke: #ff7f0e"/>
    </g>
   </g>
  </g>
  <g id="text_19">
   <!-- Potenziale cristallino unidimensionale e approssimazione di Kronig–Penney -->
   <g transform="translate(119.829297 18.597656) scale(0.15 -0.15)">
    <defs>
     <path id="DejaVuSans-Bold-50" d="M 588 4666 
L 2584 4666 
Q 3475 4666 3951 4270 
Q 4428 3875 4428 3144 
Q 4428 2409 3951 2014 
Q 3475 1619 2584 1619 
L 1791 1619 
L 1791 0 
L 588 0 
L 588 4666 
z
M 1791 3794 
L 1791 2491 
L 2456 2491 
Q 2806 2491 2997 2661 
Q 3188 2831 3188 3144 
Q 3188 3456 2997 3625 
Q 2806 3794 2456 3794 
L 1791 3794 
z
" transform="scale(0.015625)"/>
     <path id="DejaVuSans-Bold-6f" d="M 2203 2784 
Q 1831 2784 1636 2517 
Q 1441 2250 1441 1747 
Q 1441 1244 1636 976 
Q 1831 709 2203 709 
Q 2569 709 2762 976 
Q 2956 1244 2956 1747 
Q 2956 2250 2762 2517 
Q 2569 2784 2203 2784 
z
M 2203 3584 
Q 3106 3584 3614 3096 
Q 4122 2609 4122 1747 
Q 4122 884 3614 396 
Q 3106 -91 2203 -91 
Q 1297 -91 786 396 
Q 275 884 275 1747 
Q 275 2609 786 3096 
Q 1297 3584 2203 3584 
z
" transform="scale(0.015625)"/>
     <path id="DejaVuSans-Bold-74" d="M 1759 4494 
L 1759 3500 
L 2913 3500 
L 2913 2700 
L 1759 2700 
L 1759 1216 
Q 1759 972 1856 886 
Q 1953 800 2241 800 
L 2816 800 
L 2816 0 
L 1856 0 
Q 1194 0 917 276 
Q 641 553 641 1216 
L 641 2700 
L 84 2700 
L 84 3500 
L 641 3500 
L 641 4494 
L 1759 4494 
z
" transform="scale(0.015625)"/>
     <path id="DejaVuSans-Bold-65" d="M 4031 1759 
L 4031 1441 
L 1416 1441 
Q 1456 1047 1700 850 
Q 1944 653 2381 653 
Q 2734 653 3104 758 
Q 3475 863 3866 1075 
L 3866 213 
Q 3469 63 3072 -14 
Q 2675 -91 2278 -91 
Q 1328 -91 801 392 
Q 275 875 275 1747 
Q 275 2603 792 3093 
Q 1309 3584 2216 3584 
Q 3041 3584 3536 3087 
Q 4031 2591 4031 1759 
z
M 2881 2131 
Q 2881 2450 2695 2645 
Q 2509 2841 2209 2841 
Q 1884 2841 1681 2658 
Q 1478 2475 1428 2131 
L 2881 2131 
z
" transform="scale(0.015625)"/>
     <path id="DejaVuSans-Bold-6e" d="M 4056 2131 
L 4056 0 
L 2931 0 
L 2931 347 
L 2931 1631 
Q 2931 2084 2911 2256 
Q 2891 2428 2841 2509 
Q 2775 2619 2662 2680 
Q 2550 2741 2406 2741 
Q 2056 2741 1856 2470 
Q 1656 2200 1656 1722 
L 1656 0 
L 538 0 
L 538 3500 
L 1656 3500 
L 1656 2988 
Q 1909 3294 2193 3439 
Q 2478 3584 2822 3584 
Q 3428 3584 3742 3212 
Q 4056 2841 4056 2131 
z
" transform="scale(0.015625)"/>
     <path id="DejaVuSans-Bold-7a" d="M 366 3500 
L 3419 3500 
L 3419 2719 
L 1575 800 
L 3419 800 
L 3419 0 
L 288 0 
L 288 781 
L 2131 2700 
L 366 2700 
L 366 3500 
z
" transform="scale(0.015625)"/>
     <path id="DejaVuSans-Bold-69" d="M 538 3500 
L 1656 3500 
L 1656 0 
L 538 0 
L 538 3500 
z
M 538 4863 
L 1656 4863 
L 1656 3950 
L 538 3950 
L 538 4863 
z
" transform="scale(0.015625)"/>
     <path id="DejaVuSans-Bold-61" d="M 2106 1575 
Q 1756 1575 1579 1456 
Q 1403 1338 1403 1106 
Q 1403 894 1545 773 
Q 1688 653 1941 653 
Q 2256 653 2472 879 
Q 2688 1106 2688 1447 
L 2688 1575 
L 2106 1575 
z
M 3816 1997 
L 3816 0 
L 2688 0 
L 2688 519 
Q 2463 200 2181 54 
Q 1900 -91 1497 -91 
Q 953 -91 614 226 
Q 275 544 275 1050 
Q 275 1666 698 1953 
Q 1122 2241 2028 2241 
L 2688 2241 
L 2688 2328 
Q 2688 2594 2478 2717 
Q 2269 2841 1825 2841 
Q 1466 2841 1156 2769 
Q 847 2697 581 2553 
L 581 3406 
Q 941 3494 1303 3539 
Q 1666 3584 2028 3584 
Q 2975 3584 3395 3211 
Q 3816 2838 3816 1997 
z
" transform="scale(0.015625)"/>
     <path id="DejaVuSans-Bold-6c" d="M 538 4863 
L 1656 4863 
L 1656 0 
L 538 0 
L 538 4863 
z
" transform="scale(0.015625)"/>
     <path id="DejaVuSans-Bold-20" transform="scale(0.015625)"/>
     <path id="DejaVuSans-Bold-63" d="M 3366 3391 
L 3366 2478 
Q 3138 2634 2908 2709 
Q 2678 2784 2431 2784 
Q 1963 2784 1702 2511 
Q 1441 2238 1441 1747 
Q 1441 1256 1702 982 
Q 1963 709 2431 709 
Q 2694 709 2930 787 
Q 3166 866 3366 1019 
L 3366 103 
Q 3103 6 2833 -42 
Q 2563 -91 2291 -91 
Q 1344 -91 809 395 
Q 275 881 275 1747 
Q 275 2613 809 3098 
Q 1344 3584 2291 3584 
Q 2566 3584 2833 3536 
Q 3100 3488 3366 3391 
z
" transform="scale(0.015625)"/>
     <path id="DejaVuSans-Bold-72" d="M 3138 2547 
Q 2991 2616 2845 2648 
Q 2700 2681 2553 2681 
Q 2122 2681 1889 2404 
Q 1656 2128 1656 1613 
L 1656 0 
L 538 0 
L 538 3500 
L 1656 3500 
L 1656 2925 
Q 1872 3269 2151 3426 
Q 2431 3584 2822 3584 
Q 2878 3584 2943 3579 
Q 3009 3575 3134 3559 
L 3138 2547 
z
" transform="scale(0.015625)"/>
     <path id="DejaVuSans-Bold-73" d="M 3272 3391 
L 3272 2541 
Q 2913 2691 2578 2766 
Q 2244 2841 1947 2841 
Q 1628 2841 1473 2761 
Q 1319 2681 1319 2516 
Q 1319 2381 1436 2309 
Q 1553 2238 1856 2203 
L 2053 2175 
Q 2913 2066 3209 1816 
Q 3506 1566 3506 1031 
Q 3506 472 3093 190 
Q 2681 -91 1863 -91 
Q 1516 -91 1145 -36 
Q 775 19 384 128 
L 384 978 
Q 719 816 1070 734 
Q 1422 653 1784 653 
Q 2113 653 2278 743 
Q 2444 834 2444 1013 
Q 2444 1163 2330 1236 
Q 2216 1309 1875 1350 
L 1678 1375 
Q 931 1469 631 1722 
Q 331 1975 331 2491 
Q 331 3047 712 3315 
Q 1094 3584 1881 3584 
Q 2191 3584 2531 3537 
Q 2872 3491 3272 3391 
z
" transform="scale(0.015625)"/>
     <path id="DejaVuSans-Bold-75" d="M 500 1363 
L 500 3500 
L 1625 3500 
L 1625 3150 
Q 1625 2866 1622 2436 
Q 1619 2006 1619 1863 
Q 1619 1441 1641 1255 
Q 1663 1069 1716 984 
Q 1784 875 1895 815 
Q 2006 756 2150 756 
Q 2500 756 2700 1025 
Q 2900 1294 2900 1772 
L 2900 3500 
L 4019 3500 
L 4019 0 
L 2900 0 
L 2900 506 
Q 2647 200 2364 54 
Q 2081 -91 1741 -91 
Q 1134 -91 817 281 
Q 500 653 500 1363 
z
" transform="scale(0.015625)"/>
     <path id="DejaVuSans-Bold-64" d="M 2919 2988 
L 2919 4863 
L 4044 4863 
L 4044 0 
L 2919 0 
L 2919 506 
Q 2688 197 2409 53 
Q 2131 -91 1766 -91 
Q 1119 -91 703 423 
Q 288 938 288 1747 
Q 288 2556 703 3070 
Q 1119 3584 1766 3584 
Q 2128 3584 2408 3439 
Q 2688 3294 2919 2988 
z
M 2181 722 
Q 2541 722 2730 984 
Q 2919 1247 2919 1747 
Q 2919 2247 2730 2509 
Q 2541 2772 2181 2772 
Q 1825 2772 1636 2509 
Q 1447 2247 1447 1747 
Q 1447 1247 1636 984 
Q 1825 722 2181 722 
z
" transform="scale(0.015625)"/>
     <path id="DejaVuSans-Bold-6d" d="M 3781 2919 
Q 3994 3244 4286 3414 
Q 4578 3584 4928 3584 
Q 5531 3584 5847 3212 
Q 6163 2841 6163 2131 
L 6163 0 
L 5038 0 
L 5038 1825 
Q 5041 1866 5042 1909 
Q 5044 1953 5044 2034 
Q 5044 2406 4934 2573 
Q 4825 2741 4581 2741 
Q 4263 2741 4089 2478 
Q 3916 2216 3909 1719 
L 3909 0 
L 2784 0 
L 2784 1825 
Q 2784 2406 2684 2573 
Q 2584 2741 2328 2741 
Q 2006 2741 1831 2477 
Q 1656 2213 1656 1722 
L 1656 0 
L 531 0 
L 531 3500 
L 1656 3500 
L 1656 2988 
Q 1863 3284 2130 3434 
Q 2397 3584 2719 3584 
Q 3081 3584 3359 3409 
Q 3638 3234 3781 2919 
z
" transform="scale(0.015625)"/>
     <path id="DejaVuSans-Bold-70" d="M 1656 506 
L 1656 -1331 
L 538 -1331 
L 538 3500 
L 1656 3500 
L 1656 2988 
Q 1888 3294 2169 3439 
Q 2450 3584 2816 3584 
Q 3463 3584 3878 3070 
Q 4294 2556 4294 1747 
Q 4294 938 3878 423 
Q 3463 -91 2816 -91 
Q 2450 -91 2169 54 
Q 1888 200 1656 506 
z
M 2400 2772 
Q 2041 2772 1848 2508 
Q 1656 2244 1656 1747 
Q 1656 1250 1848 986 
Q 2041 722 2400 722 
Q 2759 722 2948 984 
Q 3138 1247 3138 1747 
Q 3138 2247 2948 2509 
Q 2759 2772 2400 2772 
z
" transform="scale(0.015625)"/>
     <path id="DejaVuSans-Bold-4b" d="M 588 4666 
L 1791 4666 
L 1791 2963 
L 3525 4666 
L 4922 4666 
L 2675 2456 
L 5153 0 
L 3647 0 
L 1791 1838 
L 1791 0 
L 588 0 
L 588 4666 
z
" transform="scale(0.015625)"/>
     <path id="DejaVuSans-Bold-67" d="M 2919 594 
Q 2688 288 2409 144 
Q 2131 0 1766 0 
Q 1125 0 706 504 
Q 288 1009 288 1791 
Q 288 2575 706 3076 
Q 1125 3578 1766 3578 
Q 2131 3578 2409 3434 
Q 2688 3291 2919 2981 
L 2919 3500 
L 4044 3500 
L 4044 353 
Q 4044 -491 3511 -936 
Q 2978 -1381 1966 -1381 
Q 1638 -1381 1331 -1331 
Q 1025 -1281 716 -1178 
L 716 -306 
Q 1009 -475 1290 -558 
Q 1572 -641 1856 -641 
Q 2406 -641 2662 -400 
Q 2919 -159 2919 353 
L 2919 594 
z
M 2181 2772 
Q 1834 2772 1640 2515 
Q 1447 2259 1447 1791 
Q 1447 1309 1634 1061 
Q 1822 813 2181 813 
Q 2531 813 2725 1069 
Q 2919 1325 2919 1791 
Q 2919 2259 2725 2515 
Q 2531 2772 2181 2772 
z
" transform="scale(0.015625)"/>
     <path id="DejaVuSans-Bold-2013" d="M 344 2156 
L 2856 2156 
L 2856 1350 
L 344 1350 
L 344 2156 
z
" transform="scale(0.015625)"/>
     <path id="DejaVuSans-Bold-79" d="M 78 3500 
L 1197 3500 
L 2138 1125 
L 2938 3500 
L 4056 3500 
L 2584 -331 
Q 2363 -916 2067 -1148 
Q 1772 -1381 1288 -1381 
L 641 -1381 
L 641 -647 
L 991 -647 
Q 1275 -647 1404 -556 
Q 1534 -466 1606 -231 
L 1638 -134 
L 78 3500 
z
" transform="scale(0.015625)"/>
    </defs>
    <use xlink:href="#DejaVuSans-Bold-50"/>
    <use xlink:href="#DejaVuSans-Bold-6f" transform="translate(73.291016 0)"/>
    <use xlink:href="#DejaVuSans-Bold-74" transform="translate(141.992188 0)"/>
    <use xlink:href="#DejaVuSans-Bold-65" transform="translate(189.794922 0)"/>
    <use xlink:href="#DejaVuSans-Bold-6e" transform="translate(257.617188 0)"/>
    <use xlink:href="#DejaVuSans-Bold-7a" transform="translate(328.808594 0)"/>
    <use xlink:href="#DejaVuSans-Bold-69" transform="translate(387.011719 0)"/>
    <use xlink:href="#DejaVuSans-Bold-61" transform="translate(421.289062 0)"/>
    <use xlink:href="#DejaVuSans-Bold-6c" transform="translate(488.769531 0)"/>
    <use xlink:href="#DejaVuSans-Bold-65" transform="translate(523.046875 0)"/>
    <use xlink:href="#DejaVuSans-Bold-20" transform="translate(590.869141 0)"/>
    <use xlink:href="#DejaVuSans-Bold-63" transform="translate(625.683594 0)"/>
    <use xlink:href="#DejaVuSans-Bold-72" transform="translate(684.960938 0)"/>
    <use xlink:href="#DejaVuSans-Bold-69" transform="translate(734.277344 0)"/>
    <use xlink:href="#DejaVuSans-Bold-73" transform="translate(768.554688 0)"/>
    <use xlink:href="#DejaVuSans-Bold-74" transform="translate(828.076172 0)"/>
    <use xlink:href="#DejaVuSans-Bold-61" transform="translate(875.878906 0)"/>
    <use xlink:href="#DejaVuSans-Bold-6c" transform="translate(943.359375 0)"/>
    <use xlink:href="#DejaVuSans-Bold-6c" transform="translate(977.636719 0)"/>
    <use xlink:href="#DejaVuSans-Bold-69" transform="translate(1011.914062 0)"/>
    <use xlink:href="#DejaVuSans-Bold-6e" transform="translate(1046.191406 0)"/>
    <use xlink:href="#DejaVuSans-Bold-6f" transform="translate(1117.382812 0)"/>
    <use xlink:href="#DejaVuSans-Bold-20" transform="translate(1186.083984 0)"/>
    <use xlink:href="#DejaVuSans-Bold-75" transform="translate(1220.898438 0)"/>
    <use xlink:href="#DejaVuSans-Bold-6e" transform="translate(1292.089844 0)"/>
    <use xlink:href="#DejaVuSans-Bold-69" transform="translate(1363.28125 0)"/>
    <use xlink:href="#DejaVuSans-Bold-64" transform="translate(1397.558594 0)"/>
    <use xlink:href="#DejaVuSans-Bold-69" transform="translate(1469.140625 0)"/>
    <use xlink:href="#DejaVuSans-Bold-6d" transform="translate(1503.417969 0)"/>
    <use xlink:href="#DejaVuSans-Bold-65" transform="translate(1607.617188 0)"/>
    <use xlink:href="#DejaVuSans-Bold-6e" transform="translate(1675.439453 0)"/>
    <use xlink:href="#DejaVuSans-Bold-73" transform="translate(1746.630859 0)"/>
    <use xlink:href="#DejaVuSans-Bold-69" transform="translate(1806.152344 0)"/>
    <use xlink:href="#DejaVuSans-Bold-6f" transform="translate(1840.429688 0)"/>
    <use xlink:href="#DejaVuSans-Bold-6e" transform="translate(1909.130859 0)"/>
    <use xlink:href="#DejaVuSans-Bold-61" transform="translate(1980.322266 0)"/>
    <use xlink:href="#DejaVuSans-Bold-6c" transform="translate(2047.802734 0)"/>
    <use xlink:href="#DejaVuSans-Bold-65" transform="translate(2082.080078 0)"/>
    <use xlink:href="#DejaVuSans-Bold-20" transform="translate(2149.902344 0)"/>
    <use xlink:href="#DejaVuSans-Bold-65" transform="translate(2184.716797 0)"/>
    <use xlink:href="#DejaVuSans-Bold-20" transform="translate(2252.539062 0)"/>
    <use xlink:href="#DejaVuSans-Bold-61" transform="translate(2287.353516 0)"/>
    <use xlink:href="#DejaVuSans-Bold-70" transform="translate(2354.833984 0)"/>
    <use xlink:href="#DejaVuSans-Bold-70" transform="translate(2426.416016 0)"/>
    <use xlink:href="#DejaVuSans-Bold-72" transform="translate(2497.998047 0)"/>
    <use xlink:href="#DejaVuSans-Bold-6f" transform="translate(2547.314453 0)"/>
    <use xlink:href="#DejaVuSans-Bold-73" transform="translate(2616.015625 0)"/>
    <use xlink:href="#DejaVuSans-Bold-73" transform="translate(2675.537109 0)"/>
    <use xlink:href="#DejaVuSans-Bold-69" transform="translate(2735.058594 0)"/>
    <use xlink:href="#DejaVuSans-Bold-6d" transform="translate(2769.335938 0)"/>
    <use xlink:href="#DejaVuSans-Bold-61" transform="translate(2873.535156 0)"/>
    <use xlink:href="#DejaVuSans-Bold-7a" transform="translate(2941.015625 0)"/>
    <use xlink:href="#DejaVuSans-Bold-69" transform="translate(2999.21875 0)"/>
    <use xlink:href="#DejaVuSans-Bold-6f" transform="translate(3033.496094 0)"/>
    <use xlink:href="#DejaVuSans-Bold-6e" transform="translate(3102.197266 0)"/>
    <use xlink:href="#DejaVuSans-Bold-65" transform="translate(3173.388672 0)"/>
    <use xlink:href="#DejaVuSans-Bold-20" transform="translate(3241.210938 0)"/>
    <use xlink:href="#DejaVuSans-Bold-64" transform="translate(3276.025391 0)"/>
    <use xlink:href="#DejaVuSans-Bold-69" transform="translate(3347.607422 0)"/>
    <use xlink:href="#DejaVuSans-Bold-20" transform="translate(3381.884766 0)"/>
    <use xlink:href="#DejaVuSans-Bold-4b" transform="translate(3416.699219 0)"/>
    <use xlink:href="#DejaVuSans-Bold-72" transform="translate(3494.189453 0)"/>
    <use xlink:href="#DejaVuSans-Bold-6f" transform="translate(3543.505859 0)"/>
    <use xlink:href="#DejaVuSans-Bold-6e" transform="translate(3612.207031 0)"/>
    <use xlink:href="#DejaVuSans-Bold-69" transform="translate(3683.398438 0)"/>
    <use xlink:href="#DejaVuSans-Bold-67" transform="translate(3717.675781 0)"/>
    <use xlink:href="#DejaVuSans-Bold-2013" transform="translate(3789.257812 0)"/>
    <use xlink:href="#DejaVuSans-Bold-50" transform="translate(3839.257812 0)"/>
    <use xlink:href="#DejaVuSans-Bold-65" transform="translate(3912.548828 0)"/>
    <use xlink:href="#DejaVuSans-Bold-6e" transform="translate(3980.371094 0)"/>
    <use xlink:href="#DejaVuSans-Bold-6e" transform="translate(4051.5625 0)"/>
    <use xlink:href="#DejaVuSans-Bold-65" transform="translate(4122.753906 0)"/>
    <use xlink:href="#DejaVuSans-Bold-79" transform="translate(4190.576172 0)"/>
   </g>
  </g>
  <g id="text_20">
   <!-- In alto il potenziale è fortemente attrattivo vicino agli ioni; in basso è sostituito da pozzi rettangolari periodici di larghezza a, separati da barriere di spessore b e altezza V0. -->
   <g transform="translate(7.2 626.04) scale(0.1 -0.1)">
    <defs>
     <path id="DejaVuSans-49" d="M 628 4666 
L 1259 4666 
L 1259 0 
L 628 0 
L 628 4666 
z
" transform="scale(0.015625)"/>
     <path id="DejaVuSans-e8" d="M 3597 1894 
L 3597 1613 
L 953 1613 
Q 991 1019 1311 708 
Q 1631 397 2203 397 
Q 2534 397 2845 478 
Q 3156 559 3463 722 
L 3463 178 
Q 3153 47 2828 -22 
Q 2503 -91 2169 -91 
Q 1331 -91 842 396 
Q 353 884 353 1716 
Q 353 2575 817 3079 
Q 1281 3584 2069 3584 
Q 2775 3584 3186 3129 
Q 3597 2675 3597 1894 
z
M 3022 2063 
Q 3016 2534 2758 2815 
Q 2500 3097 2075 3097 
Q 1594 3097 1305 2825 
Q 1016 2553 972 2059 
L 3022 2063 
z
M 1579 5119 
L 2460 3950 
L 1982 3950 
L 963 5119 
L 1579 5119 
z
" transform="scale(0.015625)"/>
     <path id="DejaVuSans-6d" d="M 3328 2828 
Q 3544 3216 3844 3400 
Q 4144 3584 4550 3584 
Q 5097 3584 5394 3201 
Q 5691 2819 5691 2113 
L 5691 0 
L 5113 0 
L 5113 2094 
Q 5113 2597 4934 2840 
Q 4756 3084 4391 3084 
Q 3944 3084 3684 2787 
Q 3425 2491 3425 1978 
L 3425 0 
L 2847 0 
L 2847 2094 
Q 2847 2600 2669 2842 
Q 2491 3084 2119 3084 
Q 1678 3084 1418 2786 
Q 1159 2488 1159 1978 
L 1159 0 
L 581 0 
L 581 3500 
L 1159 3500 
L 1159 2956 
Q 1356 3278 1631 3431 
Q 1906 3584 2284 3584 
Q 2666 3584 2933 3390 
Q 3200 3197 3328 2828 
z
" transform="scale(0.015625)"/>
     <path id="DejaVuSans-76" d="M 191 3500 
L 800 3500 
L 1894 563 
L 2988 3500 
L 3597 3500 
L 2284 0 
L 1503 0 
L 191 3500 
z
" transform="scale(0.015625)"/>
     <path id="DejaVuSans-3b" d="M 750 3309 
L 1409 3309 
L 1409 2516 
L 750 2516 
L 750 3309 
z
M 750 794 
L 1409 794 
L 1409 256 
L 897 -744 
L 494 -744 
L 750 256 
L 750 794 
z
" transform="scale(0.015625)"/>
     <path id="DejaVuSans-62" d="M 3116 1747 
Q 3116 2381 2855 2742 
Q 2594 3103 2138 3103 
Q 1681 3103 1420 2742 
Q 1159 2381 1159 1747 
Q 1159 1113 1420 752 
Q 1681 391 2138 391 
Q 2594 391 2855 752 
Q 3116 1113 3116 1747 
z
M 1159 2969 
Q 1341 3281 1617 3432 
Q 1894 3584 2278 3584 
Q 2916 3584 3314 3078 
Q 3713 2572 3713 1747 
Q 3713 922 3314 415 
Q 2916 -91 2278 -91 
Q 1894 -91 1617 61 
Q 1341 213 1159 525 
L 1159 0 
L 581 0 
L 581 4863 
L 1159 4863 
L 1159 2969 
z
" transform="scale(0.015625)"/>
     <path id="DejaVuSans-75" d="M 544 1381 
L 544 3500 
L 1119 3500 
L 1119 1403 
Q 1119 906 1312 657 
Q 1506 409 1894 409 
Q 2359 409 2629 706 
Q 2900 1003 2900 1516 
L 2900 3500 
L 3475 3500 
L 3475 0 
L 2900 0 
L 2900 538 
Q 2691 219 2414 64 
Q 2138 -91 1772 -91 
Q 1169 -91 856 284 
Q 544 659 544 1381 
z
M 1991 3584 
L 1991 3584 
z
" transform="scale(0.015625)"/>
     <path id="DejaVuSans-68" d="M 3513 2113 
L 3513 0 
L 2938 0 
L 2938 2094 
Q 2938 2591 2744 2837 
Q 2550 3084 2163 3084 
Q 1697 3084 1428 2787 
Q 1159 2491 1159 1978 
L 1159 0 
L 581 0 
L 581 4863 
L 1159 4863 
L 1159 2956 
Q 1366 3272 1645 3428 
Q 1925 3584 2291 3584 
Q 2894 3584 3203 3211 
Q 3513 2838 3513 2113 
z
" transform="scale(0.015625)"/>
     <path id="DejaVuSans-2c" d="M 750 794 
L 1409 794 
L 1409 256 
L 897 -744 
L 494 -744 
L 750 256 
L 750 794 
z
" transform="scale(0.015625)"/>
     <path id="DejaVuSans-56" d="M 1831 0 
L 50 4666 
L 709 4666 
L 2188 738 
L 3669 4666 
L 4325 4666 
L 2547 0 
L 1831 0 
z
" transform="scale(0.015625)"/>
     <path id="DejaVuSans-2e" d="M 684 794 
L 1344 794 
L 1344 0 
L 684 0 
L 684 794 
z
" transform="scale(0.015625)"/>
    </defs>
    <use xlink:href="#DejaVuSans-49"/>
    <use xlink:href="#DejaVuSans-6e" transform="translate(29.492188 0)"/>
    <use xlink:href="#DejaVuSans-20" transform="translate(92.871094 0)"/>
    <use xlink:href="#DejaVuSans-61" transform="translate(124.658203 0)"/>
    <use xlink:href="#DejaVuSans-6c" transform="translate(185.9375 0)"/>
    <use xlink:href="#DejaVuSans-74" transform="translate(213.720703 0)"/>
    <use xlink:href="#DejaVuSans-6f" transform="translate(252.929688 0)"/>
    <use xlink:href="#DejaVuSans-20" transform="translate(314.111328 0)"/>
    <use xlink:href="#DejaVuSans-69" transform="translate(345.898438 0)"/>
    <use xlink:href="#DejaVuSans-6c" transform="translate(373.681641 0)"/>
    <use xlink:href="#DejaVuSans-20" transform="translate(401.464844 0)"/>
    <use xlink:href="#DejaVuSans-70" transform="translate(433.251953 0)"/>
    <use xlink:href="#DejaVuSans-6f" transform="translate(496.728516 0)"/>
    <use xlink:href="#DejaVuSans-74" transform="translate(557.910156 0)"/>
    <use xlink:href="#DejaVuSans-65" transform="translate(597.119141 0)"/>
    <use xlink:href="#DejaVuSans-6e" transform="translate(658.642578 0)"/>
    <use xlink:href="#DejaVuSans-7a" transform="translate(722.021484 0)"/>
    <use xlink:href="#DejaVuSans-69" transform="translate(774.511719 0)"/>
    <use xlink:href="#DejaVuSans-61" transform="translate(802.294922 0)"/>
    <use xlink:href="#DejaVuSans-6c" transform="translate(863.574219 0)"/>
    <use xlink:href="#DejaVuSans-65" transform="translate(891.357422 0)"/>
    <use xlink:href="#DejaVuSans-20" transform="translate(952.880859 0)"/>
    <use xlink:href="#DejaVuSans-e8" transform="translate(984.667969 0)"/>
    <use xlink:href="#DejaVuSans-20" transform="translate(1046.191406 0)"/>
    <use xlink:href="#DejaVuSans-66" transform="translate(1077.978516 0)"/>
    <use xlink:href="#DejaVuSans-6f" transform="translate(1113.183594 0)"/>
    <use xlink:href="#DejaVuSans-72" transform="translate(1174.365234 0)"/>
    <use xlink:href="#DejaVuSans-74" transform="translate(1215.478516 0)"/>
    <use xlink:href="#DejaVuSans-65" transform="translate(1254.6875 0)"/>
    <use xlink:href="#DejaVuSans-6d" transform="translate(1316.210938 0)"/>
    <use xlink:href="#DejaVuSans-65" transform="translate(1413.623047 0)"/>
    <use xlink:href="#DejaVuSans-6e" transform="translate(1475.146484 0)"/>
    <use xlink:href="#DejaVuSans-74" transform="translate(1538.525391 0)"/>
    <use xlink:href="#DejaVuSans-65" transform="translate(1577.734375 0)"/>
    <use xlink:href="#DejaVuSans-20" transform="translate(1639.257812 0)"/>
    <use xlink:href="#DejaVuSans-61" transform="translate(1671.044922 0)"/>
    <use xlink:href="#DejaVuSans-74" transform="translate(1732.324219 0)"/>
    <use xlink:href="#DejaVuSans-74" transform="translate(1771.533203 0)"/>
    <use xlink:href="#DejaVuSans-72" transform="translate(1810.742188 0)"/>
    <use xlink:href="#DejaVuSans-61" transform="translate(1851.855469 0)"/>
    <use xlink:href="#DejaVuSans-74" transform="translate(1913.134766 0)"/>
    <use xlink:href="#DejaVuSans-74" transform="translate(1952.34375 0)"/>
    <use xlink:href="#DejaVuSans-69" transform="translate(1991.552734 0)"/>
    <use xlink:href="#DejaVuSans-76" transform="translate(2019.335938 0)"/>
    <use xlink:href="#DejaVuSans-6f" transform="translate(2078.515625 0)"/>
    <use xlink:href="#DejaVuSans-20" transform="translate(2139.697266 0)"/>
    <use xlink:href="#DejaVuSans-76" transform="translate(2171.484375 0)"/>
    <use xlink:href="#DejaVuSans-69" transform="translate(2230.664062 0)"/>
    <use xlink:href="#DejaVuSans-63" transform="translate(2258.447266 0)"/>
    <use xlink:href="#DejaVuSans-69" transform="translate(2313.427734 0)"/>
    <use xlink:href="#DejaVuSans-6e" transform="translate(2341.210938 0)"/>
    <use xlink:href="#DejaVuSans-6f" transform="translate(2404.589844 0)"/>
    <use xlink:href="#DejaVuSans-20" transform="translate(2465.771484 0)"/>
    <use xlink:href="#DejaVuSans-61" transform="translate(2497.558594 0)"/>
    <use xlink:href="#DejaVuSans-67" transform="translate(2558.837891 0)"/>
    <use xlink:href="#DejaVuSans-6c" transform="translate(2622.314453 0)"/>
    <use xlink:href="#DejaVuSans-69" transform="translate(2650.097656 0)"/>
    <use xlink:href="#DejaVuSans-20" transform="translate(2677.880859 0)"/>
    <use xlink:href="#DejaVuSans-69" transform="translate(2709.667969 0)"/>
    <use xlink:href="#DejaVuSans-6f" transform="translate(2737.451172 0)"/>
    <use xlink:href="#DejaVuSans-6e" transform="translate(2798.632812 0)"/>
    <use xlink:href="#DejaVuSans-69" transform="translate(2862.011719 0)"/>
    <use xlink:href="#DejaVuSans-3b" transform="translate(2889.794922 0)"/>
    <use xlink:href="#DejaVuSans-20" transform="translate(2923.486328 0)"/>
    <use xlink:href="#DejaVuSans-69" transform="translate(2955.273438 0)"/>
    <use xlink:href="#DejaVuSans-6e" transform="translate(2983.056641 0)"/>
    <use xlink:href="#DejaVuSans-20" transform="translate(3046.435547 0)"/>
    <use xlink:href="#DejaVuSans-62" transform="translate(3078.222656 0)"/>
    <use xlink:href="#DejaVuSans-61" transform="translate(3141.699219 0)"/>
    <use xlink:href="#DejaVuSans-73" transform="translate(3202.978516 0)"/>
    <use xlink:href="#DejaVuSans-73" transform="translate(3255.078125 0)"/>
    <use xlink:href="#DejaVuSans-6f" transform="translate(3307.177734 0)"/>
    <use xlink:href="#DejaVuSans-20" transform="translate(3368.359375 0)"/>
    <use xlink:href="#DejaVuSans-e8" transform="translate(3400.146484 0)"/>
    <use xlink:href="#DejaVuSans-20" transform="translate(3461.669922 0)"/>
    <use xlink:href="#DejaVuSans-73" transform="translate(3493.457031 0)"/>
    <use xlink:href="#DejaVuSans-6f" transform="translate(3545.556641 0)"/>
    <use xlink:href="#DejaVuSans-73" transform="translate(3606.738281 0)"/>
    <use xlink:href="#DejaVuSans-74" transform="translate(3658.837891 0)"/>
    <use xlink:href="#DejaVuSans-69" transform="translate(3698.046875 0)"/>
    <use xlink:href="#DejaVuSans-74" transform="translate(3725.830078 0)"/>
    <use xlink:href="#DejaVuSans-75" transform="translate(3765.039062 0)"/>
    <use xlink:href="#DejaVuSans-69" transform="translate(3828.417969 0)"/>
    <use xlink:href="#DejaVuSans-74" transform="translate(3856.201172 0)"/>
    <use xlink:href="#DejaVuSans-6f" transform="translate(3895.410156 0)"/>
    <use xlink:href="#DejaVuSans-20" transform="translate(3956.591797 0)"/>
    <use xlink:href="#DejaVuSans-64" transform="translate(3988.378906 0)"/>
    <use xlink:href="#DejaVuSans-61" transform="translate(4051.855469 0)"/>
    <use xlink:href="#DejaVuSans-20" transform="translate(4113.134766 0)"/>
    <use xlink:href="#DejaVuSans-70" transform="translate(4144.921875 0)"/>
    <use xlink:href="#DejaVuSans-6f" transform="translate(4208.398438 0)"/>
    <use xlink:href="#DejaVuSans-7a" transform="translate(4269.580078 0)"/>
    <use xlink:href="#DejaVuSans-7a" transform="translate(4322.070312 0)"/>
    <use xlink:href="#DejaVuSans-69" transform="translate(4374.560547 0)"/>
    <use xlink:href="#DejaVuSans-20" transform="translate(4402.34375 0)"/>
    <use xlink:href="#DejaVuSans-72" transform="translate(4434.130859 0)"/>
    <use xlink:href="#DejaVuSans-65" transform="translate(4472.994141 0)"/>
    <use xlink:href="#DejaVuSans-74" transform="translate(4534.517578 0)"/>
    <use xlink:href="#DejaVuSans-74" transform="translate(4573.726562 0)"/>
    <use xlink:href="#DejaVuSans-61" transform="translate(4612.935547 0)"/>
    <use xlink:href="#DejaVuSans-6e" transform="translate(4674.214844 0)"/>
    <use xlink:href="#DejaVuSans-67" transform="translate(4737.59375 0)"/>
    <use xlink:href="#DejaVuSans-6f" transform="translate(4801.070312 0)"/>
    <use xlink:href="#DejaVuSans-6c" transform="translate(4862.251953 0)"/>
    <use xlink:href="#DejaVuSans-61" transform="translate(4890.035156 0)"/>
    <use xlink:href="#DejaVuSans-72" transform="translate(4951.314453 0)"/>
    <use xlink:href="#DejaVuSans-69" transform="translate(4992.427734 0)"/>
    <use xlink:href="#DejaVuSans-20" transform="translate(5020.210938 0)"/>
    <use xlink:href="#DejaVuSans-70" transform="translate(5051.998047 0)"/>
    <use xlink:href="#DejaVuSans-65" transform="translate(5115.474609 0)"/>
    <use xlink:href="#DejaVuSans-72" transform="translate(5176.998047 0)"/>
    <use xlink:href="#DejaVuSans-69" transform="translate(5218.111328 0)"/>
    <use xlink:href="#DejaVuSans-6f" transform="translate(5245.894531 0)"/>
    <use xlink:href="#DejaVuSans-64" transform="translate(5307.076172 0)"/>
    <use xlink:href="#DejaVuSans-69" transform="translate(5370.552734 0)"/>
    <use xlink:href="#DejaVuSans-63" transform="translate(5398.335938 0)"/>
    <use xlink:href="#DejaVuSans-69" transform="translate(5453.316406 0)"/>
    <use xlink:href="#DejaVuSans-20" transform="translate(5481.099609 0)"/>
    <use xlink:href="#DejaVuSans-64" transform="translate(5512.886719 0)"/>
    <use xlink:href="#DejaVuSans-69" transform="translate(5576.363281 0)"/>
    <use xlink:href="#DejaVuSans-20" transform="translate(5604.146484 0)"/>
    <use xlink:href="#DejaVuSans-6c" transform="translate(5635.933594 0)"/>
    <use xlink:href="#DejaVuSans-61" transform="translate(5663.716797 0)"/>
    <use xlink:href="#DejaVuSans-72" transform="translate(5724.996094 0)"/>
    <use xlink:href="#DejaVuSans-67" transform="translate(5764.359375 0)"/>
    <use xlink:href="#DejaVuSans-68" transform="translate(5827.835938 0)"/>
    <use xlink:href="#DejaVuSans-65" transform="translate(5891.214844 0)"/>
    <use xlink:href="#DejaVuSans-7a" transform="translate(5952.738281 0)"/>
    <use xlink:href="#DejaVuSans-7a" transform="translate(6005.228516 0)"/>
    <use xlink:href="#DejaVuSans-61" transform="translate(6057.71875 0)"/>
    <use xlink:href="#DejaVuSans-20" transform="translate(6118.998047 0)"/>
    <use xlink:href="#DejaVuSans-61" transform="translate(6150.785156 0)"/>
    <use xlink:href="#DejaVuSans-2c" transform="translate(6212.064453 0)"/>
    <use xlink:href="#DejaVuSans-20" transform="translate(6243.851562 0)"/>
    <use xlink:href="#DejaVuSans-73" transform="translate(6275.638672 0)"/>
    <use xlink:href="#DejaVuSans-65" transform="translate(6327.738281 0)"/>
    <use xlink:href="#DejaVuSans-70" transform="translate(6389.261719 0)"/>
    <use xlink:href="#DejaVuSans-61" transform="translate(6452.738281 0)"/>
    <use xlink:href="#DejaVuSans-72" transform="translate(6514.017578 0)"/>
    <use xlink:href="#DejaVuSans-61" transform="translate(6555.130859 0)"/>
    <use xlink:href="#DejaVuSans-74" transform="translate(6616.410156 0)"/>
    <use xlink:href="#DejaVuSans-69" transform="translate(6655.619141 0)"/>
    <use xlink:href="#DejaVuSans-20" transform="translate(6683.402344 0)"/>
    <use xlink:href="#DejaVuSans-64" transform="translate(6715.189453 0)"/>
    <use xlink:href="#DejaVuSans-61" transform="translate(6778.666016 0)"/>
    <use xlink:href="#DejaVuSans-20" transform="translate(6839.945312 0)"/>
    <use xlink:href="#DejaVuSans-62" transform="translate(6871.732422 0)"/>
    <use xlink:href="#DejaVuSans-61" transform="translate(6935.208984 0)"/>
    <use xlink:href="#DejaVuSans-72" transform="translate(6996.488281 0)"/>
    <use xlink:href="#DejaVuSans-72" transform="translate(7035.851562 0)"/>
    <use xlink:href="#DejaVuSans-69" transform="translate(7076.964844 0)"/>
    <use xlink:href="#DejaVuSans-65" transform="translate(7104.748047 0)"/>
    <use xlink:href="#DejaVuSans-72" transform="translate(7166.271484 0)"/>
    <use xlink:href="#DejaVuSans-65" transform="translate(7205.134766 0)"/>
    <use xlink:href="#DejaVuSans-20" transform="translate(7266.658203 0)"/>
    <use xlink:href="#DejaVuSans-64" transform="translate(7298.445312 0)"/>
    <use xlink:href="#DejaVuSans-69" transform="translate(7361.921875 0)"/>
    <use xlink:href="#DejaVuSans-20" transform="translate(7389.705078 0)"/>
    <use xlink:href="#DejaVuSans-73" transform="translate(7421.492188 0)"/>
    <use xlink:href="#DejaVuSans-70" transform="translate(7473.591797 0)"/>
    <use xlink:href="#DejaVuSans-65" transform="translate(7537.068359 0)"/>
    <use xlink:href="#DejaVuSans-73" transform="translate(7598.591797 0)"/>
    <use xlink:href="#DejaVuSans-73" transform="translate(7650.691406 0)"/>
    <use xlink:href="#DejaVuSans-6f" transform="translate(7702.791016 0)"/>
    <use xlink:href="#DejaVuSans-72" transform="translate(7763.972656 0)"/>
    <use xlink:href="#DejaVuSans-65" transform="translate(7802.835938 0)"/>
    <use xlink:href="#DejaVuSans-20" transform="translate(7864.359375 0)"/>
    <use xlink:href="#DejaVuSans-62" transform="translate(7896.146484 0)"/>
    <use xlink:href="#DejaVuSans-20" transform="translate(7959.623047 0)"/>
    <use xlink:href="#DejaVuSans-65" transform="translate(7991.410156 0)"/>
    <use xlink:href="#DejaVuSans-20" transform="translate(8052.933594 0)"/>
    <use xlink:href="#DejaVuSans-61" transform="translate(8084.720703 0)"/>
    <use xlink:href="#DejaVuSans-6c" transform="translate(8146 0)"/>
    <use xlink:href="#DejaVuSans-74" transform="translate(8173.783203 0)"/>
    <use xlink:href="#DejaVuSans-65" transform="translate(8212.992188 0)"/>
    <use xlink:href="#DejaVuSans-7a" transform="translate(8274.515625 0)"/>
    <use xlink:href="#DejaVuSans-7a" transform="translate(8327.005859 0)"/>
    <use xlink:href="#DejaVuSans-61" transform="translate(8379.496094 0)"/>
    <use xlink:href="#DejaVuSans-20" transform="translate(8440.775391 0)"/>
    <use xlink:href="#DejaVuSans-56" transform="translate(8472.5625 0)"/>
    <use xlink:href="#DejaVuSans-30" transform="translate(8540.970703 0)"/>
    <use xlink:href="#DejaVuSans-2e" transform="translate(8604.59375 0)"/>
   </g>
  </g>
 </g>
 <defs>
  <clipPath id="p0ac9a861b2">
   <rect x="88.014063" y="72" width="725.4" height="498.96"/>
  </clipPath>
 </defs>
</svg>
