<?xml version="1.0" encoding="utf-8" standalone="no"?>
<!DOCTYPE svg PUBLIC "-//W3C//DTD SVG 1.1//EN"
  "http://www.w3.org/Graphics/SVG/1.1/DTD/svg11.dtd">
<svg xmlns:xlink="http://www.w3.org/1999/xlink" width="727.570312pt" height="470.797344pt" viewBox="0 0 727.570312 470.797344" xmlns="http://www.w3.org/2000/svg" version="1.1">
 <metadata>
  <rdf:RDF xmlns:dc="http://purl.org/dc/elements/1.1/" xmlns:cc="http://creativecommons.org/ns#" xmlns:rdf="http://www.w3.org/1999/02/22-rdf-syntax-ns#">
   <cc:Work>
    <dc:type rdf:resource="http://purl.org/dc/dcmitype/StillImage"/>
    <dc:date>2026-06-16T11:09:11.451147</dc:date>
    <dc:format>image/svg+xml</dc:format>
    <dc:creator>
     <cc:Agent>
      <dc:title>Matplotlib v3.10.8, https://matplotlib.org/</dc:title>
     </cc:Agent>
    </dc:creator>
   </cc:Work>
  </rdf:RDF>
 </metadata>
 <defs>
  <style type="text/css">*{stroke-linejoin: round; stroke-linecap: butt}</style>
 </defs>
 <g id="figure_1">
  <g id="patch_1">
   <path d="M 0 470.797344 
L 727.570312 470.797344 
L 727.570312 0 
L 0 0 
z
" style="fill: #ffffff"/>
  </g>
  <g id="axes_1">
   <g id="patch_2">
    <path d="M 50.585156 418.677656 
L 697.865156 418.677656 
L 697.865156 30.597656 
L 50.585156 30.597656 
z
" style="fill: #ffffff"/>
   </g>
   <g id="matplotlib.axis_1">
    <g id="xtick_1">
     <g id="line2d_1">
      <path d="M 50.585156 418.677656 
L 50.585156 30.597656 
" clip-path="url(#p18f2f1b520)" style="fill: none; stroke: #b0b0b0; stroke-opacity: 0.15; stroke-width: 0.8; stroke-linecap: square"/>
     </g>
     <g id="line2d_2">
      <defs>
       <path id="mbb76565e69" d="M 0 0 
L 0 3.5 
" style="stroke: #000000; stroke-width: 0.8"/>
      </defs>
      <g>
       <use xlink:href="#mbb76565e69" x="50.585156" y="418.677656" style="stroke: #000000; stroke-width: 0.8"/>
      </g>
     </g>
     <g id="text_1">
      <!-- 0 -->
      <g transform="translate(47.403906 433.276094) scale(0.1 -0.1)">
       <defs>
        <path id="DejaVuSans-30" d="M 2034 4250 
Q 1547 4250 1301 3770 
Q 1056 3291 1056 2328 
Q 1056 1369 1301 889 
Q 1547 409 2034 409 
Q 2525 409 2770 889 
Q 3016 1369 3016 2328 
Q 3016 3291 2770 3770 
Q 2525 4250 2034 4250 
z
M 2034 4750 
Q 2819 4750 3233 4129 
Q 3647 3509 3647 2328 
Q 3647 1150 3233 529 
Q 2819 -91 2034 -91 
Q 1250 -91 836 529 
Q 422 1150 422 2328 
Q 422 3509 836 4129 
Q 1250 4750 2034 4750 
z
" transform="scale(0.015625)"/>
       </defs>
       <use xlink:href="#DejaVuSans-30"/>
      </g>
     </g>
    </g>
    <g id="xtick_2">
     <g id="line2d_3">
      <path d="M 180.041156 418.677656 
L 180.041156 30.597656 
" clip-path="url(#p18f2f1b520)" style="fill: none; stroke: #b0b0b0; stroke-opacity: 0.15; stroke-width: 0.8; stroke-linecap: square"/>
     </g>
     <g id="line2d_4">
      <g>
       <use xlink:href="#mbb76565e69" x="180.041156" y="418.677656" style="stroke: #000000; stroke-width: 0.8"/>
      </g>
     </g>
     <g id="text_2">
      <!-- 2 -->
      <g transform="translate(176.859906 433.276094) scale(0.1 -0.1)">
       <defs>
        <path id="DejaVuSans-32" d="M 1228 531 
L 3431 531 
L 3431 0 
L 469 0 
L 469 531 
Q 828 903 1448 1529 
Q 2069 2156 2228 2338 
Q 2531 2678 2651 2914 
Q 2772 3150 2772 3378 
Q 2772 3750 2511 3984 
Q 2250 4219 1831 4219 
Q 1534 4219 1204 4116 
Q 875 4013 500 3803 
L 500 4441 
Q 881 4594 1212 4672 
Q 1544 4750 1819 4750 
Q 2544 4750 2975 4387 
Q 3406 4025 3406 3419 
Q 3406 3131 3298 2873 
Q 3191 2616 2906 2266 
Q 2828 2175 2409 1742 
Q 1991 1309 1228 531 
z
" transform="scale(0.015625)"/>
       </defs>
       <use xlink:href="#DejaVuSans-32"/>
      </g>
     </g>
    </g>
    <g id="xtick_3">
     <g id="line2d_5">
      <path d="M 309.497156 418.677656 
L 309.497156 30.597656 
" clip-path="url(#p18f2f1b520)" style="fill: none; stroke: #b0b0b0; stroke-opacity: 0.15; stroke-width: 0.8; stroke-linecap: square"/>
     </g>
     <g id="line2d_6">
      <g>
       <use xlink:href="#mbb76565e69" x="309.497156" y="418.677656" style="stroke: #000000; stroke-width: 0.8"/>
      </g>
     </g>
     <g id="text_3">
      <!-- 4 -->
      <g transform="translate(306.315906 433.276094) scale(0.1 -0.1)">
       <defs>
        <path id="DejaVuSans-34" d="M 2419 4116 
L 825 1625 
L 2419 1625 
L 2419 4116 
z
M 2253 4666 
L 3047 4666 
L 3047 1625 
L 3713 1625 
L 3713 1100 
L 3047 1100 
L 3047 0 
L 2419 0 
L 2419 1100 
L 313 1100 
L 313 1709 
L 2253 4666 
z
" transform="scale(0.015625)"/>
       </defs>
       <use xlink:href="#DejaVuSans-34"/>
      </g>
     </g>
    </g>
    <g id="xtick_4">
     <g id="line2d_7">
      <path d="M 438.953156 418.677656 
L 438.953156 30.597656 
" clip-path="url(#p18f2f1b520)" style="fill: none; stroke: #b0b0b0; stroke-opacity: 0.15; stroke-width: 0.8; stroke-linecap: square"/>
     </g>
     <g id="line2d_8">
      <g>
       <use xlink:href="#mbb76565e69" x="438.953156" y="418.677656" style="stroke: #000000; stroke-width: 0.8"/>
      </g>
     </g>
     <g id="text_4">
      <!-- 6 -->
      <g transform="translate(435.771906 433.276094) scale(0.1 -0.1)">
       <defs>
        <path id="DejaVuSans-36" d="M 2113 2584 
Q 1688 2584 1439 2293 
Q 1191 2003 1191 1497 
Q 1191 994 1439 701 
Q 1688 409 2113 409 
Q 2538 409 2786 701 
Q 3034 994 3034 1497 
Q 3034 2003 2786 2293 
Q 2538 2584 2113 2584 
z
M 3366 4563 
L 3366 3988 
Q 3128 4100 2886 4159 
Q 2644 4219 2406 4219 
Q 1781 4219 1451 3797 
Q 1122 3375 1075 2522 
Q 1259 2794 1537 2939 
Q 1816 3084 2150 3084 
Q 2853 3084 3261 2657 
Q 3669 2231 3669 1497 
Q 3669 778 3244 343 
Q 2819 -91 2113 -91 
Q 1303 -91 875 529 
Q 447 1150 447 2328 
Q 447 3434 972 4092 
Q 1497 4750 2381 4750 
Q 2619 4750 2861 4703 
Q 3103 4656 3366 4563 
z
" transform="scale(0.015625)"/>
       </defs>
       <use xlink:href="#DejaVuSans-36"/>
      </g>
     </g>
    </g>
    <g id="xtick_5">
     <g id="line2d_9">
      <path d="M 568.409156 418.677656 
L 568.409156 30.597656 
" clip-path="url(#p18f2f1b520)" style="fill: none; stroke: #b0b0b0; stroke-opacity: 0.15; stroke-width: 0.8; stroke-linecap: square"/>
     </g>
     <g id="line2d_10">
      <g>
       <use xlink:href="#mbb76565e69" x="568.409156" y="418.677656" style="stroke: #000000; stroke-width: 0.8"/>
      </g>
     </g>
     <g id="text_5">
      <!-- 8 -->
      <g transform="translate(565.227906 433.276094) scale(0.1 -0.1)">
       <defs>
        <path id="DejaVuSans-38" d="M 2034 2216 
Q 1584 2216 1326 1975 
Q 1069 1734 1069 1313 
Q 1069 891 1326 650 
Q 1584 409 2034 409 
Q 2484 409 2743 651 
Q 3003 894 3003 1313 
Q 3003 1734 2745 1975 
Q 2488 2216 2034 2216 
z
M 1403 2484 
Q 997 2584 770 2862 
Q 544 3141 544 3541 
Q 544 4100 942 4425 
Q 1341 4750 2034 4750 
Q 2731 4750 3128 4425 
Q 3525 4100 3525 3541 
Q 3525 3141 3298 2862 
Q 3072 2584 2669 2484 
Q 3125 2378 3379 2068 
Q 3634 1759 3634 1313 
Q 3634 634 3220 271 
Q 2806 -91 2034 -91 
Q 1263 -91 848 271 
Q 434 634 434 1313 
Q 434 1759 690 2068 
Q 947 2378 1403 2484 
z
M 1172 3481 
Q 1172 3119 1398 2916 
Q 1625 2713 2034 2713 
Q 2441 2713 2670 2916 
Q 2900 3119 2900 3481 
Q 2900 3844 2670 4047 
Q 2441 4250 2034 4250 
Q 1625 4250 1398 4047 
Q 1172 3844 1172 3481 
z
" transform="scale(0.015625)"/>
       </defs>
       <use xlink:href="#DejaVuSans-38"/>
      </g>
     </g>
    </g>
    <g id="xtick_6">
     <g id="line2d_11">
      <path d="M 697.865156 418.677656 
L 697.865156 30.597656 
" clip-path="url(#p18f2f1b520)" style="fill: none; stroke: #b0b0b0; stroke-opacity: 0.15; stroke-width: 0.8; stroke-linecap: square"/>
     </g>
     <g id="line2d_12">
      <g>
       <use xlink:href="#mbb76565e69" x="697.865156" y="418.677656" style="stroke: #000000; stroke-width: 0.8"/>
      </g>
     </g>
     <g id="text_6">
      <!-- 10 -->
      <g transform="translate(691.502656 433.276094) scale(0.1 -0.1)">
       <defs>
        <path id="DejaVuSans-31" d="M 794 531 
L 1825 531 
L 1825 4091 
L 703 3866 
L 703 4441 
L 1819 4666 
L 2450 4666 
L 2450 531 
L 3481 531 
L 3481 0 
L 794 0 
L 794 531 
z
" transform="scale(0.015625)"/>
       </defs>
       <use xlink:href="#DejaVuSans-31"/>
       <use xlink:href="#DejaVuSans-30" transform="translate(63.623047 0)"/>
      </g>
     </g>
    </g>
    <g id="text_7">
     <!-- energia, unità arbitrarie -->
     <g transform="translate(314.506406 447.354219) scale(0.1 -0.1)">
      <defs>
       <path id="DejaVuSans-65" d="M 3597 1894 
L 3597 1613 
L 953 1613 
Q 991 1019 1311 708 
Q 1631 397 2203 397 
Q 2534 397 2845 478 
Q 3156 559 3463 722 
L 3463 178 
Q 3153 47 2828 -22 
Q 2503 -91 2169 -91 
Q 1331 -91 842 396 
Q 353 884 353 1716 
Q 353 2575 817 3079 
Q 1281 3584 2069 3584 
Q 2775 3584 3186 3129 
Q 3597 2675 3597 1894 
z
M 3022 2063 
Q 3016 2534 2758 2815 
Q 2500 3097 2075 3097 
Q 1594 3097 1305 2825 
Q 1016 2553 972 2059 
L 3022 2063 
z
" transform="scale(0.015625)"/>
       <path id="DejaVuSans-6e" d="M 3513 2113 
L 3513 0 
L 2938 0 
L 2938 2094 
Q 2938 2591 2744 2837 
Q 2550 3084 2163 3084 
Q 1697 3084 1428 2787 
Q 1159 2491 1159 1978 
L 1159 0 
L 581 0 
L 581 3500 
L 1159 3500 
L 1159 2956 
Q 1366 3272 1645 3428 
Q 1925 3584 2291 3584 
Q 2894 3584 3203 3211 
Q 3513 2838 3513 2113 
z
" transform="scale(0.015625)"/>
       <path id="DejaVuSans-72" d="M 2631 2963 
Q 2534 3019 2420 3045 
Q 2306 3072 2169 3072 
Q 1681 3072 1420 2755 
Q 1159 2438 1159 1844 
L 1159 0 
L 581 0 
L 581 3500 
L 1159 3500 
L 1159 2956 
Q 1341 3275 1631 3429 
Q 1922 3584 2338 3584 
Q 2397 3584 2469 3576 
Q 2541 3569 2628 3553 
L 2631 2963 
z
" transform="scale(0.015625)"/>
       <path id="DejaVuSans-67" d="M 2906 1791 
Q 2906 2416 2648 2759 
Q 2391 3103 1925 3103 
Q 1463 3103 1205 2759 
Q 947 2416 947 1791 
Q 947 1169 1205 825 
Q 1463 481 1925 481 
Q 2391 481 2648 825 
Q 2906 1169 2906 1791 
z
M 3481 434 
Q 3481 -459 3084 -895 
Q 2688 -1331 1869 -1331 
Q 1566 -1331 1297 -1286 
Q 1028 -1241 775 -1147 
L 775 -588 
Q 1028 -725 1275 -790 
Q 1522 -856 1778 -856 
Q 2344 -856 2625 -561 
Q 2906 -266 2906 331 
L 2906 616 
Q 2728 306 2450 153 
Q 2172 0 1784 0 
Q 1141 0 747 490 
Q 353 981 353 1791 
Q 353 2603 747 3093 
Q 1141 3584 1784 3584 
Q 2172 3584 2450 3431 
Q 2728 3278 2906 2969 
L 2906 3500 
L 3481 3500 
L 3481 434 
z
" transform="scale(0.015625)"/>
       <path id="DejaVuSans-69" d="M 603 3500 
L 1178 3500 
L 1178 0 
L 603 0 
L 603 3500 
z
M 603 4863 
L 1178 4863 
L 1178 4134 
L 603 4134 
L 603 4863 
z
" transform="scale(0.015625)"/>
       <path id="DejaVuSans-61" d="M 2194 1759 
Q 1497 1759 1228 1600 
Q 959 1441 959 1056 
Q 959 750 1161 570 
Q 1363 391 1709 391 
Q 2188 391 2477 730 
Q 2766 1069 2766 1631 
L 2766 1759 
L 2194 1759 
z
M 3341 1997 
L 3341 0 
L 2766 0 
L 2766 531 
Q 2569 213 2275 61 
Q 1981 -91 1556 -91 
Q 1019 -91 701 211 
Q 384 513 384 1019 
Q 384 1609 779 1909 
Q 1175 2209 1959 2209 
L 2766 2209 
L 2766 2266 
Q 2766 2663 2505 2880 
Q 2244 3097 1772 3097 
Q 1472 3097 1187 3025 
Q 903 2953 641 2809 
L 641 3341 
Q 956 3463 1253 3523 
Q 1550 3584 1831 3584 
Q 2591 3584 2966 3190 
Q 3341 2797 3341 1997 
z
" transform="scale(0.015625)"/>
       <path id="DejaVuSans-2c" d="M 750 794 
L 1409 794 
L 1409 256 
L 897 -744 
L 494 -744 
L 750 256 
L 750 794 
z
" transform="scale(0.015625)"/>
       <path id="DejaVuSans-20" transform="scale(0.015625)"/>
       <path id="DejaVuSans-75" d="M 544 1381 
L 544 3500 
L 1119 3500 
L 1119 1403 
Q 1119 906 1312 657 
Q 1506 409 1894 409 
Q 2359 409 2629 706 
Q 2900 1003 2900 1516 
L 2900 3500 
L 3475 3500 
L 3475 0 
L 2900 0 
L 2900 538 
Q 2691 219 2414 64 
Q 2138 -91 1772 -91 
Q 1169 -91 856 284 
Q 544 659 544 1381 
z
M 1991 3584 
L 1991 3584 
z
" transform="scale(0.015625)"/>
       <path id="DejaVuSans-74" d="M 1172 4494 
L 1172 3500 
L 2356 3500 
L 2356 3053 
L 1172 3053 
L 1172 1153 
Q 1172 725 1289 603 
Q 1406 481 1766 481 
L 2356 481 
L 2356 0 
L 1766 0 
Q 1100 0 847 248 
Q 594 497 594 1153 
L 594 3053 
L 172 3053 
L 172 3500 
L 594 3500 
L 594 4494 
L 1172 4494 
z
" transform="scale(0.015625)"/>
       <path id="DejaVuSans-e0" d="M 2194 1759 
Q 1497 1759 1228 1600 
Q 959 1441 959 1056 
Q 959 750 1161 570 
Q 1363 391 1709 391 
Q 2188 391 2477 730 
Q 2766 1069 2766 1631 
L 2766 1759 
L 2194 1759 
z
M 3341 1997 
L 3341 0 
L 2766 0 
L 2766 531 
Q 2569 213 2275 61 
Q 1981 -91 1556 -91 
Q 1019 -91 701 211 
Q 384 513 384 1019 
Q 384 1609 779 1909 
Q 1175 2209 1959 2209 
L 2766 2209 
L 2766 2266 
Q 2766 2663 2505 2880 
Q 2244 3097 1772 3097 
Q 1472 3097 1187 3025 
Q 903 2953 641 2809 
L 641 3341 
Q 956 3463 1253 3523 
Q 1550 3584 1831 3584 
Q 2591 3584 2966 3190 
Q 3341 2797 3341 1997 
z
M 1403 5119 
L 2284 3950 
L 1806 3950 
L 787 5119 
L 1403 5119 
z
" transform="scale(0.015625)"/>
       <path id="DejaVuSans-62" d="M 3116 1747 
Q 3116 2381 2855 2742 
Q 2594 3103 2138 3103 
Q 1681 3103 1420 2742 
Q 1159 2381 1159 1747 
Q 1159 1113 1420 752 
Q 1681 391 2138 391 
Q 2594 391 2855 752 
Q 3116 1113 3116 1747 
z
M 1159 2969 
Q 1341 3281 1617 3432 
Q 1894 3584 2278 3584 
Q 2916 3584 3314 3078 
Q 3713 2572 3713 1747 
Q 3713 922 3314 415 
Q 2916 -91 2278 -91 
Q 1894 -91 1617 61 
Q 1341 213 1159 525 
L 1159 0 
L 581 0 
L 581 4863 
L 1159 4863 
L 1159 2969 
z
" transform="scale(0.015625)"/>
      </defs>
      <use xlink:href="#DejaVuSans-65"/>
      <use xlink:href="#DejaVuSans-6e" transform="translate(61.523438 0)"/>
      <use xlink:href="#DejaVuSans-65" transform="translate(124.902344 0)"/>
      <use xlink:href="#DejaVuSans-72" transform="translate(186.425781 0)"/>
      <use xlink:href="#DejaVuSans-67" transform="translate(225.789062 0)"/>
      <use xlink:href="#DejaVuSans-69" transform="translate(289.265625 0)"/>
      <use xlink:href="#DejaVuSans-61" transform="translate(317.048828 0)"/>
      <use xlink:href="#DejaVuSans-2c" transform="translate(378.328125 0)"/>
      <use xlink:href="#DejaVuSans-20" transform="translate(410.115234 0)"/>
      <use xlink:href="#DejaVuSans-75" transform="translate(441.902344 0)"/>
      <use xlink:href="#DejaVuSans-6e" transform="translate(505.28125 0)"/>
      <use xlink:href="#DejaVuSans-69" transform="translate(568.660156 0)"/>
      <use xlink:href="#DejaVuSans-74" transform="translate(596.443359 0)"/>
      <use xlink:href="#DejaVuSans-e0" transform="translate(635.652344 0)"/>
      <use xlink:href="#DejaVuSans-20" transform="translate(696.931641 0)"/>
      <use xlink:href="#DejaVuSans-61" transform="translate(728.71875 0)"/>
      <use xlink:href="#DejaVuSans-72" transform="translate(789.998047 0)"/>
      <use xlink:href="#DejaVuSans-62" transform="translate(831.111328 0)"/>
      <use xlink:href="#DejaVuSans-69" transform="translate(894.587891 0)"/>
      <use xlink:href="#DejaVuSans-74" transform="translate(922.371094 0)"/>
      <use xlink:href="#DejaVuSans-72" transform="translate(961.580078 0)"/>
      <use xlink:href="#DejaVuSans-61" transform="translate(1002.693359 0)"/>
      <use xlink:href="#DejaVuSans-72" transform="translate(1063.972656 0)"/>
      <use xlink:href="#DejaVuSans-69" transform="translate(1105.085938 0)"/>
      <use xlink:href="#DejaVuSans-65" transform="translate(1132.869141 0)"/>
     </g>
    </g>
   </g>
   <g id="matplotlib.axis_2">
    <g id="ytick_1">
     <g id="line2d_13">
      <path d="M 50.585156 418.677656 
L 697.865156 418.677656 
" clip-path="url(#p18f2f1b520)" style="fill: none; stroke: #b0b0b0; stroke-opacity: 0.15; stroke-width: 0.8; stroke-linecap: square"/>
     </g>
     <g id="line2d_14">
      <defs>
       <path id="m205fa1a0ca" d="M 0 0 
L -3.5 0 
" style="stroke: #000000; stroke-width: 0.8"/>
      </defs>
      <g>
       <use xlink:href="#m205fa1a0ca" x="50.585156" y="418.677656" style="stroke: #000000; stroke-width: 0.8"/>
      </g>
     </g>
     <g id="text_8">
      <!-- 0.0 -->
      <g transform="translate(27.682031 422.476875) scale(0.1 -0.1)">
       <defs>
        <path id="DejaVuSans-2e" d="M 684 794 
L 1344 794 
L 1344 0 
L 684 0 
L 684 794 
z
" transform="scale(0.015625)"/>
       </defs>
       <use xlink:href="#DejaVuSans-30"/>
       <use xlink:href="#DejaVuSans-2e" transform="translate(63.623047 0)"/>
       <use xlink:href="#DejaVuSans-30" transform="translate(95.410156 0)"/>
      </g>
     </g>
    </g>
    <g id="ytick_2">
     <g id="line2d_15">
      <path d="M 50.585156 346.81099 
L 697.865156 346.81099 
" clip-path="url(#p18f2f1b520)" style="fill: none; stroke: #b0b0b0; stroke-opacity: 0.15; stroke-width: 0.8; stroke-linecap: square"/>
     </g>
     <g id="line2d_16">
      <g>
       <use xlink:href="#m205fa1a0ca" x="50.585156" y="346.81099" style="stroke: #000000; stroke-width: 0.8"/>
      </g>
     </g>
     <g id="text_9">
      <!-- 0.2 -->
      <g transform="translate(27.682031 350.610208) scale(0.1 -0.1)">
       <use xlink:href="#DejaVuSans-30"/>
       <use xlink:href="#DejaVuSans-2e" transform="translate(63.623047 0)"/>
       <use xlink:href="#DejaVuSans-32" transform="translate(95.410156 0)"/>
      </g>
     </g>
    </g>
    <g id="ytick_3">
     <g id="line2d_17">
      <path d="M 50.585156 274.944323 
L 697.865156 274.944323 
" clip-path="url(#p18f2f1b520)" style="fill: none; stroke: #b0b0b0; stroke-opacity: 0.15; stroke-width: 0.8; stroke-linecap: square"/>
     </g>
     <g id="line2d_18">
      <g>
       <use xlink:href="#m205fa1a0ca" x="50.585156" y="274.944323" style="stroke: #000000; stroke-width: 0.8"/>
      </g>
     </g>
     <g id="text_10">
      <!-- 0.4 -->
      <g transform="translate(27.682031 278.743542) scale(0.1 -0.1)">
       <use xlink:href="#DejaVuSans-30"/>
       <use xlink:href="#DejaVuSans-2e" transform="translate(63.623047 0)"/>
       <use xlink:href="#DejaVuSans-34" transform="translate(95.410156 0)"/>
      </g>
     </g>
    </g>
    <g id="ytick_4">
     <g id="line2d_19">
      <path d="M 50.585156 203.077656 
L 697.865156 203.077656 
" clip-path="url(#p18f2f1b520)" style="fill: none; stroke: #b0b0b0; stroke-opacity: 0.15; stroke-width: 0.8; stroke-linecap: square"/>
     </g>
     <g id="line2d_20">
      <g>
       <use xlink:href="#m205fa1a0ca" x="50.585156" y="203.077656" style="stroke: #000000; stroke-width: 0.8"/>
      </g>
     </g>
     <g id="text_11">
      <!-- 0.6 -->
      <g transform="translate(27.682031 206.876875) scale(0.1 -0.1)">
       <use xlink:href="#DejaVuSans-30"/>
       <use xlink:href="#DejaVuSans-2e" transform="translate(63.623047 0)"/>
       <use xlink:href="#DejaVuSans-36" transform="translate(95.410156 0)"/>
      </g>
     </g>
    </g>
    <g id="ytick_5">
     <g id="line2d_21">
      <path d="M 50.585156 131.21099 
L 697.865156 131.21099 
" clip-path="url(#p18f2f1b520)" style="fill: none; stroke: #b0b0b0; stroke-opacity: 0.15; stroke-width: 0.8; stroke-linecap: square"/>
     </g>
     <g id="line2d_22">
      <g>
       <use xlink:href="#m205fa1a0ca" x="50.585156" y="131.21099" style="stroke: #000000; stroke-width: 0.8"/>
      </g>
     </g>
     <g id="text_12">
      <!-- 0.8 -->
      <g transform="translate(27.682031 135.010208) scale(0.1 -0.1)">
       <use xlink:href="#DejaVuSans-30"/>
       <use xlink:href="#DejaVuSans-2e" transform="translate(63.623047 0)"/>
       <use xlink:href="#DejaVuSans-38" transform="translate(95.410156 0)"/>
      </g>
     </g>
    </g>
    <g id="ytick_6">
     <g id="line2d_23">
      <path d="M 50.585156 59.344323 
L 697.865156 59.344323 
" clip-path="url(#p18f2f1b520)" style="fill: none; stroke: #b0b0b0; stroke-opacity: 0.15; stroke-width: 0.8; stroke-linecap: square"/>
     </g>
     <g id="line2d_24">
      <g>
       <use xlink:href="#m205fa1a0ca" x="50.585156" y="59.344323" style="stroke: #000000; stroke-width: 0.8"/>
      </g>
     </g>
     <g id="text_13">
      <!-- 1.0 -->
      <g transform="translate(27.682031 63.143542) scale(0.1 -0.1)">
       <use xlink:href="#DejaVuSans-31"/>
       <use xlink:href="#DejaVuSans-2e" transform="translate(63.623047 0)"/>
       <use xlink:href="#DejaVuSans-30" transform="translate(95.410156 0)"/>
      </g>
     </g>
    </g>
    <g id="text_14">
     <!-- distribuzione di Fermi–Dirac $n_{\rm FD}(E,T)$ -->
     <g transform="translate(21.602344 316.787656) rotate(-90) scale(0.1 -0.1)">
      <defs>
       <path id="DejaVuSans-64" d="M 2906 2969 
L 2906 4863 
L 3481 4863 
L 3481 0 
L 2906 0 
L 2906 525 
Q 2725 213 2448 61 
Q 2172 -91 1784 -91 
Q 1150 -91 751 415 
Q 353 922 353 1747 
Q 353 2572 751 3078 
Q 1150 3584 1784 3584 
Q 2172 3584 2448 3432 
Q 2725 3281 2906 2969 
z
M 947 1747 
Q 947 1113 1208 752 
Q 1469 391 1925 391 
Q 2381 391 2643 752 
Q 2906 1113 2906 1747 
Q 2906 2381 2643 2742 
Q 2381 3103 1925 3103 
Q 1469 3103 1208 2742 
Q 947 2381 947 1747 
z
" transform="scale(0.015625)"/>
       <path id="DejaVuSans-73" d="M 2834 3397 
L 2834 2853 
Q 2591 2978 2328 3040 
Q 2066 3103 1784 3103 
Q 1356 3103 1142 2972 
Q 928 2841 928 2578 
Q 928 2378 1081 2264 
Q 1234 2150 1697 2047 
L 1894 2003 
Q 2506 1872 2764 1633 
Q 3022 1394 3022 966 
Q 3022 478 2636 193 
Q 2250 -91 1575 -91 
Q 1294 -91 989 -36 
Q 684 19 347 128 
L 347 722 
Q 666 556 975 473 
Q 1284 391 1588 391 
Q 1994 391 2212 530 
Q 2431 669 2431 922 
Q 2431 1156 2273 1281 
Q 2116 1406 1581 1522 
L 1381 1569 
Q 847 1681 609 1914 
Q 372 2147 372 2553 
Q 372 3047 722 3315 
Q 1072 3584 1716 3584 
Q 2034 3584 2315 3537 
Q 2597 3491 2834 3397 
z
" transform="scale(0.015625)"/>
       <path id="DejaVuSans-7a" d="M 353 3500 
L 3084 3500 
L 3084 2975 
L 922 459 
L 3084 459 
L 3084 0 
L 275 0 
L 275 525 
L 2438 3041 
L 353 3041 
L 353 3500 
z
" transform="scale(0.015625)"/>
       <path id="DejaVuSans-6f" d="M 1959 3097 
Q 1497 3097 1228 2736 
Q 959 2375 959 1747 
Q 959 1119 1226 758 
Q 1494 397 1959 397 
Q 2419 397 2687 759 
Q 2956 1122 2956 1747 
Q 2956 2369 2687 2733 
Q 2419 3097 1959 3097 
z
M 1959 3584 
Q 2709 3584 3137 3096 
Q 3566 2609 3566 1747 
Q 3566 888 3137 398 
Q 2709 -91 1959 -91 
Q 1206 -91 779 398 
Q 353 888 353 1747 
Q 353 2609 779 3096 
Q 1206 3584 1959 3584 
z
" transform="scale(0.015625)"/>
       <path id="DejaVuSans-46" d="M 628 4666 
L 3309 4666 
L 3309 4134 
L 1259 4134 
L 1259 2759 
L 3109 2759 
L 3109 2228 
L 1259 2228 
L 1259 0 
L 628 0 
L 628 4666 
z
" transform="scale(0.015625)"/>
       <path id="DejaVuSans-6d" d="M 3328 2828 
Q 3544 3216 3844 3400 
Q 4144 3584 4550 3584 
Q 5097 3584 5394 3201 
Q 5691 2819 5691 2113 
L 5691 0 
L 5113 0 
L 5113 2094 
Q 5113 2597 4934 2840 
Q 4756 3084 4391 3084 
Q 3944 3084 3684 2787 
Q 3425 2491 3425 1978 
L 3425 0 
L 2847 0 
L 2847 2094 
Q 2847 2600 2669 2842 
Q 2491 3084 2119 3084 
Q 1678 3084 1418 2786 
Q 1159 2488 1159 1978 
L 1159 0 
L 581 0 
L 581 3500 
L 1159 3500 
L 1159 2956 
Q 1356 3278 1631 3431 
Q 1906 3584 2284 3584 
Q 2666 3584 2933 3390 
Q 3200 3197 3328 2828 
z
" transform="scale(0.015625)"/>
       <path id="DejaVuSansDisplay-2013" d="M 313 1978 
L 2888 1978 
L 2888 1528 
L 313 1528 
L 313 1978 
z
" transform="scale(0.015625)"/>
       <path id="DejaVuSans-44" d="M 1259 4147 
L 1259 519 
L 2022 519 
Q 2988 519 3436 956 
Q 3884 1394 3884 2338 
Q 3884 3275 3436 3711 
Q 2988 4147 2022 4147 
L 1259 4147 
z
M 628 4666 
L 1925 4666 
Q 3281 4666 3915 4102 
Q 4550 3538 4550 2338 
Q 4550 1131 3912 565 
Q 3275 0 1925 0 
L 628 0 
L 628 4666 
z
" transform="scale(0.015625)"/>
       <path id="DejaVuSans-63" d="M 3122 3366 
L 3122 2828 
Q 2878 2963 2633 3030 
Q 2388 3097 2138 3097 
Q 1578 3097 1268 2742 
Q 959 2388 959 1747 
Q 959 1106 1268 751 
Q 1578 397 2138 397 
Q 2388 397 2633 464 
Q 2878 531 3122 666 
L 3122 134 
Q 2881 22 2623 -34 
Q 2366 -91 2075 -91 
Q 1284 -91 818 406 
Q 353 903 353 1747 
Q 353 2603 823 3093 
Q 1294 3584 2113 3584 
Q 2378 3584 2631 3529 
Q 2884 3475 3122 3366 
z
" transform="scale(0.015625)"/>
       <path id="DejaVuSans-Oblique-6e" d="M 3566 2113 
L 3156 0 
L 2578 0 
L 2988 2091 
Q 3016 2238 3031 2350 
Q 3047 2463 3047 2528 
Q 3047 2791 2881 2937 
Q 2716 3084 2419 3084 
Q 1956 3084 1622 2776 
Q 1288 2469 1184 1941 
L 800 0 
L 225 0 
L 903 3500 
L 1478 3500 
L 1363 2950 
Q 1603 3253 1940 3418 
Q 2278 3584 2650 3584 
Q 3113 3584 3367 3334 
Q 3622 3084 3622 2631 
Q 3622 2519 3608 2391 
Q 3594 2263 3566 2113 
z
" transform="scale(0.015625)"/>
       <path id="DejaVuSans-28" d="M 1984 4856 
Q 1566 4138 1362 3434 
Q 1159 2731 1159 2009 
Q 1159 1288 1364 580 
Q 1569 -128 1984 -844 
L 1484 -844 
Q 1016 -109 783 600 
Q 550 1309 550 2009 
Q 550 2706 781 3412 
Q 1013 4119 1484 4856 
L 1984 4856 
z
" transform="scale(0.015625)"/>
       <path id="DejaVuSans-Oblique-45" d="M 1081 4666 
L 4031 4666 
L 3928 4134 
L 1606 4134 
L 1338 2753 
L 3566 2753 
L 3463 2222 
L 1234 2222 
L 909 531 
L 3284 531 
L 3181 0 
L 172 0 
L 1081 4666 
z
" transform="scale(0.015625)"/>
       <path id="DejaVuSans-Oblique-54" d="M 378 4666 
L 4325 4666 
L 4225 4134 
L 2559 4134 
L 1759 0 
L 1125 0 
L 1925 4134 
L 275 4134 
L 378 4666 
z
" transform="scale(0.015625)"/>
       <path id="DejaVuSans-29" d="M 513 4856 
L 1013 4856 
Q 1481 4119 1714 3412 
Q 1947 2706 1947 2009 
Q 1947 1309 1714 600 
Q 1481 -109 1013 -844 
L 513 -844 
Q 928 -128 1133 580 
Q 1338 1288 1338 2009 
Q 1338 2731 1133 3434 
Q 928 4138 513 4856 
z
" transform="scale(0.015625)"/>
      </defs>
      <use xlink:href="#DejaVuSans-64" transform="translate(0 0.015625)"/>
      <use xlink:href="#DejaVuSans-69" transform="translate(63.476562 0.015625)"/>
      <use xlink:href="#DejaVuSans-73" transform="translate(91.259766 0.015625)"/>
      <use xlink:href="#DejaVuSans-74" transform="translate(143.359375 0.015625)"/>
      <use xlink:href="#DejaVuSans-72" transform="translate(182.568359 0.015625)"/>
      <use xlink:href="#DejaVuSans-69" transform="translate(223.681641 0.015625)"/>
      <use xlink:href="#DejaVuSans-62" transform="translate(251.464844 0.015625)"/>
      <use xlink:href="#DejaVuSans-75" transform="translate(314.941406 0.015625)"/>
      <use xlink:href="#DejaVuSans-7a" transform="translate(378.320312 0.015625)"/>
      <use xlink:href="#DejaVuSans-69" transform="translate(430.810547 0.015625)"/>
      <use xlink:href="#DejaVuSans-6f" transform="translate(458.59375 0.015625)"/>
      <use xlink:href="#DejaVuSans-6e" transform="translate(519.775391 0.015625)"/>
      <use xlink:href="#DejaVuSans-65" transform="translate(583.154297 0.015625)"/>
      <use xlink:href="#DejaVuSans-20" transform="translate(644.677734 0.015625)"/>
      <use xlink:href="#DejaVuSans-64" transform="translate(676.464844 0.015625)"/>
      <use xlink:href="#DejaVuSans-69" transform="translate(739.941406 0.015625)"/>
      <use xlink:href="#DejaVuSans-20" transform="translate(767.724609 0.015625)"/>
      <use xlink:href="#DejaVuSans-46" transform="translate(799.511719 0.015625)"/>
      <use xlink:href="#DejaVuSans-65" transform="translate(857.03125 0.015625)"/>
      <use xlink:href="#DejaVuSans-72" transform="translate(918.554688 0.015625)"/>
      <use xlink:href="#DejaVuSans-6d" transform="translate(959.667969 0.015625)"/>
      <use xlink:href="#DejaVuSans-69" transform="translate(1057.080078 0.015625)"/>
      <use xlink:href="#DejaVuSansDisplay-2013" transform="translate(1084.863281 0.015625)"/>
      <use xlink:href="#DejaVuSans-44" transform="translate(1134.863281 0.015625)"/>
      <use xlink:href="#DejaVuSans-69" transform="translate(1211.865234 0.015625)"/>
      <use xlink:href="#DejaVuSans-72" transform="translate(1239.648438 0.015625)"/>
      <use xlink:href="#DejaVuSans-61" transform="translate(1280.761719 0.015625)"/>
      <use xlink:href="#DejaVuSans-63" transform="translate(1342.041016 0.015625)"/>
      <use xlink:href="#DejaVuSans-20" transform="translate(1397.021484 0.015625)"/>
      <use xlink:href="#DejaVuSans-Oblique-6e" transform="translate(1428.808594 0.015625)"/>
      <use xlink:href="#DejaVuSans-46" transform="translate(1492.1875 -16.390625) scale(0.7)"/>
      <use xlink:href="#DejaVuSans-44" transform="translate(1532.451172 -16.390625) scale(0.7)"/>
      <use xlink:href="#DejaVuSans-28" transform="translate(1589.086914 0.015625)"/>
      <use xlink:href="#DejaVuSans-Oblique-45" transform="translate(1628.100586 0.015625)"/>
      <use xlink:href="#DejaVuSans-2c" transform="translate(1691.28418 0.015625)"/>
      <use xlink:href="#DejaVuSans-Oblique-54" transform="translate(1742.553711 0.015625)"/>
      <use xlink:href="#DejaVuSans-29" transform="translate(1803.637695 0.015625)"/>
     </g>
    </g>
   </g>
   <g id="line2d_25">
    <path d="M 50.585156 59.344323 
L 354.14609 59.44598 
L 358.464169 59.653182 
L 361.486824 60.016263 
L 363.645863 60.514261 
L 365.373095 61.166205 
L 366.668518 61.882435 
L 367.963942 62.87745 
L 369.259366 64.257171 
L 370.122981 65.459815 
L 370.986597 66.950543 
L 371.850213 68.794932 
L 372.713829 71.071645 
L 373.577444 73.874056 
L 374.44106 77.311529 
L 375.304676 81.509966 
L 376.168292 86.611099 
L 377.031907 92.76981 
L 377.895523 100.148647 
L 378.759139 108.90867 
L 380.054563 124.949541 
L 381.349986 144.75051 
L 382.64541 168.310728 
L 384.372641 204.660266 
L 389.122528 310.014905 
L 390.417951 333.531796 
L 391.713375 353.286818 
L 393.008799 369.284086 
L 394.304222 381.85799 
L 395.599646 391.511567 
L 396.463262 396.595116 
L 397.326877 400.778648 
L 398.190493 404.203626 
L 399.054109 406.995658 
L 399.917725 409.26381 
L 400.78134 411.10118 
L 401.644956 412.586179 
L 402.94038 414.29281 
L 404.235803 415.525566 
L 405.531227 416.413955 
L 406.826651 417.053101 
L 408.553882 417.634639 
L 410.712921 418.078702 
L 413.303769 418.37003 
L 417.19004 418.564501 
L 424.530773 418.66056 
L 455.189132 418.67765 
L 697.865156 418.677656 
L 697.865156 418.677656 
" clip-path="url(#p18f2f1b520)" style="fill: none; stroke: #1f77b4; stroke-width: 2.5; stroke-linecap: square"/>
   </g>
   <g id="LineCollection_1">
    <path d="M 385.876196 418.677656 
L 385.876196 239.01099 
" clip-path="url(#p18f2f1b520)" style="fill: none; stroke-dasharray: 1,1.65; stroke-dashoffset: 0; stroke: #1f77b4"/>
   </g>
   <g id="line2d_26">
    <path d="M 50.585156 59.344324 
L 243.171467 59.453915 
L 262.602821 59.691807 
L 274.261634 60.038358 
L 282.897791 60.502255 
L 289.806717 61.08719 
L 295.42022 61.772568 
L 300.170106 62.557329 
L 304.488185 63.486312 
L 308.374456 64.546668 
L 311.828919 65.711023 
L 314.851574 66.937183 
L 317.874229 68.393434 
L 320.896884 70.120425 
L 323.487731 71.85148 
L 326.078579 73.849036 
L 328.669426 76.150168 
L 331.260273 78.795776 
L 333.419312 81.295703 
L 335.578352 84.093527 
L 337.737391 87.218487 
L 339.89643 90.701042 
L 342.05547 94.572459 
L 344.214509 98.86426 
L 346.373549 103.607518 
L 348.532588 108.831978 
L 350.691627 114.565014 
L 353.282474 122.149137 
L 355.873322 130.531058 
L 358.464169 139.72838 
L 361.055016 149.741207 
L 364.077671 162.424526 
L 367.100326 176.114732 
L 370.554789 192.836719 
L 374.872868 214.972398 
L 389.554336 291.610751 
L 393.008799 307.922574 
L 396.031454 321.190978 
L 399.054109 333.41505 
L 401.644956 343.019167 
L 404.235803 351.805421 
L 406.826651 359.783162 
L 409.417498 366.977415 
L 412.008345 373.425223 
L 414.167384 378.26089 
L 416.326424 382.63911 
L 418.485463 386.59077 
L 420.644502 390.147365 
L 422.803542 393.340261 
L 424.962581 396.200111 
L 427.553428 399.233755 
L 430.144276 401.878386 
L 432.735123 404.178657 
L 435.32597 406.175454 
L 437.916817 407.905844 
L 440.939472 409.632166 
L 443.962128 411.087847 
L 446.984783 412.313523 
L 450.439246 413.477415 
L 454.325516 414.537347 
L 458.643595 415.465957 
L 463.393482 416.250401 
L 469.006984 416.935501 
L 475.484102 417.490215 
L 483.256644 417.928511 
L 493.620033 418.272571 
L 507.869693 418.503836 
L 531.619126 418.635254 
L 592.504036 418.676518 
L 697.865156 418.677654 
L 697.865156 418.677654 
" clip-path="url(#p18f2f1b520)" style="fill: none; stroke: #ff7f0e; stroke-width: 2.5; stroke-linecap: square"/>
   </g>
   <g id="LineCollection_2">
    <path d="M 379.403396 418.677656 
L 379.403396 239.01099 
" clip-path="url(#p18f2f1b520)" style="fill: none; stroke-dasharray: 1,1.65; stroke-dashoffset: 0; stroke: #1f77b4"/>
   </g>
   <g id="line2d_27">
    <path d="M 50.585156 59.378198 
L 111.038258 59.548355 
L 140.833001 59.838391 
L 161.127971 60.246222 
L 176.673055 60.773532 
L 189.195483 61.41396 
L 199.558872 62.154356 
L 208.626837 63.014323 
L 216.831187 64.014182 
L 224.171921 65.133909 
L 230.649039 66.33854 
L 236.694349 67.682698 
L 242.307851 69.154727 
L 247.489546 70.735723 
L 252.239432 72.399506 
L 256.989319 74.295851 
L 261.307398 76.246201 
L 265.625476 78.436859 
L 269.943555 80.893581 
L 273.829826 83.354792 
L 277.716097 86.074861 
L 281.602368 89.075756 
L 285.488639 92.380084 
L 289.374909 96.010798 
L 292.829372 99.53065 
L 296.283835 103.342321 
L 299.738298 107.461022 
L 303.192761 111.901018 
L 306.647224 116.675243 
L 310.101687 121.794871 
L 313.987958 127.978361 
L 317.874229 134.618867 
L 321.7605 141.719797 
L 325.646771 149.278505 
L 329.964849 158.202202 
L 334.282928 167.655359 
L 339.032815 178.622128 
L 344.214509 191.189803 
L 349.828011 205.392945 
L 357.168745 224.6152 
L 377.031907 277.015693 
L 382.64541 291.047513 
L 387.827104 303.416962 
L 392.576991 314.175171 
L 396.89507 323.422062 
L 401.213148 332.128635 
L 405.099419 339.486464 
L 408.98569 346.384552 
L 412.871961 352.823019 
L 416.758232 358.807674 
L 420.644502 364.349143 
L 424.530773 369.461997 
L 427.985236 373.66116 
L 431.439699 377.549558 
L 435.32597 381.571257 
L 439.212241 385.241018 
L 443.098512 388.581745 
L 446.984783 391.616407 
L 450.871054 394.36767 
L 454.757324 396.857585 
L 459.075403 399.343414 
L 463.393482 401.56041 
L 467.711561 403.534513 
L 472.461447 405.454228 
L 477.211334 407.138737 
L 482.393028 408.739623 
L 488.00653 410.23034 
L 494.051841 411.591705 
L 500.528959 412.811872 
L 507.437885 413.885862 
L 515.210426 414.86344 
L 523.846584 415.719521 
L 533.778165 416.47074 
L 545.00517 417.093924 
L 558.391214 417.612064 
L 575.231721 418.030803 
L 597.253922 418.341121 
L 629.207705 418.547345 
L 685.342728 418.653064 
L 697.865156 418.660704 
L 697.865156 418.660704 
" clip-path="url(#p18f2f1b520)" style="fill: none; stroke: #2ca02c; stroke-width: 2.5; stroke-linecap: square"/>
   </g>
   <g id="LineCollection_3">
    <path d="M 362.574116 418.677656 
L 362.574116 239.01099 
" clip-path="url(#p18f2f1b520)" style="fill: none; stroke-dasharray: 1,1.65; stroke-dashoffset: 0; stroke: #1f77b4"/>
   </g>
   <g id="line2d_28">
    <path d="M 50.585156 60.9174 
L 69.584703 61.590239 
L 85.561594 62.37242 
L 99.379446 63.263054 
L 111.901874 64.291414 
L 123.128879 65.436985 
L 133.06046 66.665118 
L 142.560233 68.065157 
L 151.19639 69.562272 
L 159.40074 71.213897 
L 167.173282 73.014569 
L 174.514015 74.954114 
L 181.422941 77.017453 
L 187.90006 79.184614 
L 193.94537 81.430966 
L 199.99068 83.913249 
L 205.604182 86.44735 
L 211.217685 89.2195 
L 216.831187 92.247109 
L 222.012881 95.283827 
L 227.194576 98.567137 
L 232.37627 102.110733 
L 237.557965 105.927888 
L 242.739659 110.031194 
L 247.921354 114.432276 
L 253.103048 119.141462 
L 258.284743 124.167442 
L 263.466437 129.516893 
L 268.648132 135.194106 
L 273.829826 141.200604 
L 279.01152 147.53478 
L 284.625023 154.760608 
L 290.238525 162.353558 
L 296.283835 170.92162 
L 302.760953 180.51977 
L 309.669879 191.184789 
L 317.442421 203.628037 
L 326.510386 218.595836 
L 340.760046 242.624504 
L 355.009706 266.524546 
L 363.645863 280.592276 
L 370.986597 292.147723 
L 377.895523 302.602346 
L 383.940833 311.366206 
L 389.986144 319.737508 
L 395.599646 327.137636 
L 401.213148 334.163918 
L 406.394843 340.310344 
L 411.576537 346.127765 
L 416.758232 351.616415 
L 421.939926 356.779453 
L 427.121621 361.622587 
L 432.303315 366.153694 
L 437.485009 370.38245 
L 442.666704 374.319967 
L 447.848398 377.978464 
L 453.030093 381.370958 
L 458.211787 384.510992 
L 463.82529 387.643843 
L 469.438792 390.514313 
L 475.052294 393.139932 
L 481.097605 395.713381 
L 487.142915 398.043533 
L 493.620033 400.292709 
L 500.097151 402.308566 
L 507.006077 404.226099 
L 514.346811 406.027028 
L 522.119352 407.69766 
L 530.323702 409.228868 
L 538.959859 410.615889 
L 548.459633 411.912164 
L 558.823021 413.093529 
L 570.050026 414.14471 
L 582.572454 415.087854 
L 596.390306 415.904313 
L 612.367198 416.621069 
L 630.934936 417.225699 
L 653.388945 417.725227 
L 681.456457 418.115771 
L 697.865156 418.265021 
L 697.865156 418.265021 
" clip-path="url(#p18f2f1b520)" style="fill: none; stroke: #d62728; stroke-width: 2.5; stroke-linecap: square"/>
   </g>
   <g id="LineCollection_4">
    <path d="M 338.624756 418.677656 
L 338.624756 239.01099 
" clip-path="url(#p18f2f1b520)" style="fill: none; stroke-dasharray: 1,1.65; stroke-dashoffset: 0; stroke: #1f77b4"/>
   </g>
   <g id="line2d_29">
    <path d="M 50.585156 239.01099 
L 697.865156 239.01099 
" clip-path="url(#p18f2f1b520)" style="fill: none; stroke-dasharray: 5.18,2.24; stroke-dashoffset: 0; stroke: #1f77b4; stroke-width: 1.4"/>
   </g>
   <g id="patch_3">
    <path d="M 50.585156 418.677656 
L 50.585156 30.597656 
" style="fill: none; stroke: #000000; stroke-width: 0.8; stroke-linejoin: miter; stroke-linecap: square"/>
   </g>
   <g id="patch_4">
    <path d="M 697.865156 418.677656 
L 697.865156 30.597656 
" style="fill: none; stroke: #000000; stroke-width: 0.8; stroke-linejoin: miter; stroke-linecap: square"/>
   </g>
   <g id="patch_5">
    <path d="M 50.585156 418.677656 
L 697.865156 418.677656 
" style="fill: none; stroke: #000000; stroke-width: 0.8; stroke-linejoin: miter; stroke-linecap: square"/>
   </g>
   <g id="patch_6">
    <path d="M 50.585156 30.597656 
L 697.865156 30.597656 
" style="fill: none; stroke: #000000; stroke-width: 0.8; stroke-linejoin: miter; stroke-linecap: square"/>
   </g>
   <g id="text_15">
    <!-- $n_{\rm FD}=1/2$ -->
    <g transform="translate(555.463556 226.434323) scale(0.1 -0.1)">
     <defs>
      <path id="DejaVuSans-3d" d="M 678 2906 
L 4684 2906 
L 4684 2381 
L 678 2381 
L 678 2906 
z
M 678 1631 
L 4684 1631 
L 4684 1100 
L 678 1100 
L 678 1631 
z
" transform="scale(0.015625)"/>
      <path id="DejaVuSans-2f" d="M 1625 4666 
L 2156 4666 
L 531 -594 
L 0 -594 
L 1625 4666 
z
" transform="scale(0.015625)"/>
     </defs>
     <use xlink:href="#DejaVuSans-Oblique-6e" transform="translate(0 0.78125)"/>
     <use xlink:href="#DejaVuSans-46" transform="translate(63.378906 -15.625) scale(0.7)"/>
     <use xlink:href="#DejaVuSans-44" transform="translate(103.642578 -15.625) scale(0.7)"/>
     <use xlink:href="#DejaVuSans-3d" transform="translate(179.760742 0.78125)"/>
     <use xlink:href="#DejaVuSans-31" transform="translate(283.032227 0.78125)"/>
     <use xlink:href="#DejaVuSans-2f" transform="translate(346.655273 0.78125)"/>
     <use xlink:href="#DejaVuSans-32" transform="translate(376.72168 0.78125)"/>
    </g>
   </g>
   <g id="patch_7">
    <path d="M 460.154903 302.155226 
Q 423.576584 355.997284 387.563716 409.007016 
" style="fill: none; stroke: #000000; stroke-width: 0.9; stroke-linecap: round"/>
    <path d="M 391.270751 406.93147 
L 387.563716 409.007016 
L 388.1275 404.796061 
z
" style="fill: #1f77b4; stroke: #000000; stroke-width: 0.9; stroke-linecap: round"/>
   </g>
   <g id="text_16">
    <!-- $\mu_c(T_1)$ -->
    <g transform="translate(451.898756 296.504323) scale(0.095 -0.095)">
     <defs>
      <path id="DejaVuSans-Oblique-3bc" d="M -84 -1331 
L 856 3500 
L 1434 3500 
L 1009 1322 
Q 997 1256 987 1175 
Q 978 1094 978 1013 
Q 978 722 1161 565 
Q 1344 409 1684 409 
Q 2147 409 2431 671 
Q 2716 934 2816 1459 
L 3213 3500 
L 3788 3500 
L 3266 809 
Q 3253 750 3248 706 
Q 3244 663 3244 628 
Q 3244 531 3283 486 
Q 3322 441 3406 441 
Q 3438 441 3492 456 
Q 3547 472 3647 513 
L 3559 50 
Q 3422 -19 3297 -55 
Q 3172 -91 3053 -91 
Q 2847 -91 2730 40 
Q 2613 172 2613 403 
Q 2438 153 2195 31 
Q 1953 -91 1625 -91 
Q 1334 -91 1117 43 
Q 900 178 831 397 
L 494 -1331 
L -84 -1331 
z
" transform="scale(0.015625)"/>
      <path id="DejaVuSans-Oblique-63" d="M 3431 3366 
L 3316 2797 
Q 3109 2947 2876 3022 
Q 2644 3097 2394 3097 
Q 2119 3097 1870 3000 
Q 1622 2903 1453 2725 
Q 1184 2453 1037 2087 
Q 891 1722 891 1331 
Q 891 859 1127 628 
Q 1363 397 1844 397 
Q 2081 397 2348 469 
Q 2616 541 2906 684 
L 2797 116 
Q 2547 13 2283 -39 
Q 2019 -91 1741 -91 
Q 1044 -91 669 257 
Q 294 606 294 1253 
Q 294 1797 489 2255 
Q 684 2713 1069 3078 
Q 1331 3328 1684 3456 
Q 2038 3584 2456 3584 
Q 2700 3584 2940 3529 
Q 3181 3475 3431 3366 
z
" transform="scale(0.015625)"/>
     </defs>
     <use xlink:href="#DejaVuSans-Oblique-3bc" transform="translate(0 0.125)"/>
     <use xlink:href="#DejaVuSans-Oblique-63" transform="translate(63.623047 -16.28125) scale(0.7)"/>
     <use xlink:href="#DejaVuSans-28" transform="translate(104.84375 0.125)"/>
     <use xlink:href="#DejaVuSans-Oblique-54" transform="translate(143.857422 0.125)"/>
     <use xlink:href="#DejaVuSans-31" transform="translate(204.941406 -16.28125) scale(0.7)"/>
     <use xlink:href="#DejaVuSans-29" transform="translate(252.211914 0.125)"/>
    </g>
   </g>
   <g id="patch_8">
    <path d="M 281.087694 376.990591 
Q 308.997594 393.725937 336.044514 409.943824 
" style="fill: none; stroke: #000000; stroke-width: 0.9; stroke-linecap: round"/>
    <path d="M 333.762582 406.36014 
L 336.044514 409.943824 
L 331.808408 409.619159 
z
" style="fill: #1f77b4; stroke: #000000; stroke-width: 0.9; stroke-linecap: round"/>
   </g>
   <g id="text_17">
    <!-- $\mu_c(T_4)$ -->
    <g transform="translate(254.478356 371.964323) scale(0.095 -0.095)">
     <use xlink:href="#DejaVuSans-Oblique-3bc" transform="translate(0 0.125)"/>
     <use xlink:href="#DejaVuSans-Oblique-63" transform="translate(63.623047 -16.28125) scale(0.7)"/>
     <use xlink:href="#DejaVuSans-28" transform="translate(104.84375 0.125)"/>
     <use xlink:href="#DejaVuSans-Oblique-54" transform="translate(143.857422 0.125)"/>
     <use xlink:href="#DejaVuSans-34" transform="translate(204.941406 -16.28125) scale(0.7)"/>
     <use xlink:href="#DejaVuSans-29" transform="translate(252.211914 0.125)"/>
    </g>
   </g>
   <g id="text_18">
    <!-- Distribuzione di Fermi–Dirac a quattro temperature -->
    <g transform="translate(156.882188 18.597656) scale(0.15 -0.15)">
     <defs>
      <path id="DejaVuSans-Bold-44" d="M 1791 3756 
L 1791 909 
L 2222 909 
Q 2959 909 3348 1275 
Q 3738 1641 3738 2338 
Q 3738 3031 3350 3393 
Q 2963 3756 2222 3756 
L 1791 3756 
z
M 588 4666 
L 1856 4666 
Q 2919 4666 3439 4514 
Q 3959 4363 4331 4000 
Q 4659 3684 4818 3271 
Q 4978 2859 4978 2338 
Q 4978 1809 4818 1395 
Q 4659 981 4331 666 
Q 3956 303 3431 151 
Q 2906 0 1856 0 
L 588 0 
L 588 4666 
z
" transform="scale(0.015625)"/>
      <path id="DejaVuSans-Bold-69" d="M 538 3500 
L 1656 3500 
L 1656 0 
L 538 0 
L 538 3500 
z
M 538 4863 
L 1656 4863 
L 1656 3950 
L 538 3950 
L 538 4863 
z
" transform="scale(0.015625)"/>
      <path id="DejaVuSans-Bold-73" d="M 3272 3391 
L 3272 2541 
Q 2913 2691 2578 2766 
Q 2244 2841 1947 2841 
Q 1628 2841 1473 2761 
Q 1319 2681 1319 2516 
Q 1319 2381 1436 2309 
Q 1553 2238 1856 2203 
L 2053 2175 
Q 2913 2066 3209 1816 
Q 3506 1566 3506 1031 
Q 3506 472 3093 190 
Q 2681 -91 1863 -91 
Q 1516 -91 1145 -36 
Q 775 19 384 128 
L 384 978 
Q 719 816 1070 734 
Q 1422 653 1784 653 
Q 2113 653 2278 743 
Q 2444 834 2444 1013 
Q 2444 1163 2330 1236 
Q 2216 1309 1875 1350 
L 1678 1375 
Q 931 1469 631 1722 
Q 331 1975 331 2491 
Q 331 3047 712 3315 
Q 1094 3584 1881 3584 
Q 2191 3584 2531 3537 
Q 2872 3491 3272 3391 
z
" transform="scale(0.015625)"/>
      <path id="DejaVuSans-Bold-74" d="M 1759 4494 
L 1759 3500 
L 2913 3500 
L 2913 2700 
L 1759 2700 
L 1759 1216 
Q 1759 972 1856 886 
Q 1953 800 2241 800 
L 2816 800 
L 2816 0 
L 1856 0 
Q 1194 0 917 276 
Q 641 553 641 1216 
L 641 2700 
L 84 2700 
L 84 3500 
L 641 3500 
L 641 4494 
L 1759 4494 
z
" transform="scale(0.015625)"/>
      <path id="DejaVuSans-Bold-72" d="M 3138 2547 
Q 2991 2616 2845 2648 
Q 2700 2681 2553 2681 
Q 2122 2681 1889 2404 
Q 1656 2128 1656 1613 
L 1656 0 
L 538 0 
L 538 3500 
L 1656 3500 
L 1656 2925 
Q 1872 3269 2151 3426 
Q 2431 3584 2822 3584 
Q 2878 3584 2943 3579 
Q 3009 3575 3134 3559 
L 3138 2547 
z
" transform="scale(0.015625)"/>
      <path id="DejaVuSans-Bold-62" d="M 2400 722 
Q 2759 722 2948 984 
Q 3138 1247 3138 1747 
Q 3138 2247 2948 2509 
Q 2759 2772 2400 2772 
Q 2041 2772 1848 2508 
Q 1656 2244 1656 1747 
Q 1656 1250 1848 986 
Q 2041 722 2400 722 
z
M 1656 2988 
Q 1888 3294 2169 3439 
Q 2450 3584 2816 3584 
Q 3463 3584 3878 3070 
Q 4294 2556 4294 1747 
Q 4294 938 3878 423 
Q 3463 -91 2816 -91 
Q 2450 -91 2169 54 
Q 1888 200 1656 506 
L 1656 0 
L 538 0 
L 538 4863 
L 1656 4863 
L 1656 2988 
z
" transform="scale(0.015625)"/>
      <path id="DejaVuSans-Bold-75" d="M 500 1363 
L 500 3500 
L 1625 3500 
L 1625 3150 
Q 1625 2866 1622 2436 
Q 1619 2006 1619 1863 
Q 1619 1441 1641 1255 
Q 1663 1069 1716 984 
Q 1784 875 1895 815 
Q 2006 756 2150 756 
Q 2500 756 2700 1025 
Q 2900 1294 2900 1772 
L 2900 3500 
L 4019 3500 
L 4019 0 
L 2900 0 
L 2900 506 
Q 2647 200 2364 54 
Q 2081 -91 1741 -91 
Q 1134 -91 817 281 
Q 500 653 500 1363 
z
" transform="scale(0.015625)"/>
      <path id="DejaVuSans-Bold-7a" d="M 366 3500 
L 3419 3500 
L 3419 2719 
L 1575 800 
L 3419 800 
L 3419 0 
L 288 0 
L 288 781 
L 2131 2700 
L 366 2700 
L 366 3500 
z
" transform="scale(0.015625)"/>
      <path id="DejaVuSans-Bold-6f" d="M 2203 2784 
Q 1831 2784 1636 2517 
Q 1441 2250 1441 1747 
Q 1441 1244 1636 976 
Q 1831 709 2203 709 
Q 2569 709 2762 976 
Q 2956 1244 2956 1747 
Q 2956 2250 2762 2517 
Q 2569 2784 2203 2784 
z
M 2203 3584 
Q 3106 3584 3614 3096 
Q 4122 2609 4122 1747 
Q 4122 884 3614 396 
Q 3106 -91 2203 -91 
Q 1297 -91 786 396 
Q 275 884 275 1747 
Q 275 2609 786 3096 
Q 1297 3584 2203 3584 
z
" transform="scale(0.015625)"/>
      <path id="DejaVuSans-Bold-6e" d="M 4056 2131 
L 4056 0 
L 2931 0 
L 2931 347 
L 2931 1631 
Q 2931 2084 2911 2256 
Q 2891 2428 2841 2509 
Q 2775 2619 2662 2680 
Q 2550 2741 2406 2741 
Q 2056 2741 1856 2470 
Q 1656 2200 1656 1722 
L 1656 0 
L 538 0 
L 538 3500 
L 1656 3500 
L 1656 2988 
Q 1909 3294 2193 3439 
Q 2478 3584 2822 3584 
Q 3428 3584 3742 3212 
Q 4056 2841 4056 2131 
z
" transform="scale(0.015625)"/>
      <path id="DejaVuSans-Bold-65" d="M 4031 1759 
L 4031 1441 
L 1416 1441 
Q 1456 1047 1700 850 
Q 1944 653 2381 653 
Q 2734 653 3104 758 
Q 3475 863 3866 1075 
L 3866 213 
Q 3469 63 3072 -14 
Q 2675 -91 2278 -91 
Q 1328 -91 801 392 
Q 275 875 275 1747 
Q 275 2603 792 3093 
Q 1309 3584 2216 3584 
Q 3041 3584 3536 3087 
Q 4031 2591 4031 1759 
z
M 2881 2131 
Q 2881 2450 2695 2645 
Q 2509 2841 2209 2841 
Q 1884 2841 1681 2658 
Q 1478 2475 1428 2131 
L 2881 2131 
z
" transform="scale(0.015625)"/>
      <path id="DejaVuSans-Bold-20" transform="scale(0.015625)"/>
      <path id="DejaVuSans-Bold-64" d="M 2919 2988 
L 2919 4863 
L 4044 4863 
L 4044 0 
L 2919 0 
L 2919 506 
Q 2688 197 2409 53 
Q 2131 -91 1766 -91 
Q 1119 -91 703 423 
Q 288 938 288 1747 
Q 288 2556 703 3070 
Q 1119 3584 1766 3584 
Q 2128 3584 2408 3439 
Q 2688 3294 2919 2988 
z
M 2181 722 
Q 2541 722 2730 984 
Q 2919 1247 2919 1747 
Q 2919 2247 2730 2509 
Q 2541 2772 2181 2772 
Q 1825 2772 1636 2509 
Q 1447 2247 1447 1747 
Q 1447 1247 1636 984 
Q 1825 722 2181 722 
z
" transform="scale(0.015625)"/>
      <path id="DejaVuSans-Bold-46" d="M 588 4666 
L 3834 4666 
L 3834 3756 
L 1791 3756 
L 1791 2888 
L 3713 2888 
L 3713 1978 
L 1791 1978 
L 1791 0 
L 588 0 
L 588 4666 
z
" transform="scale(0.015625)"/>
      <path id="DejaVuSans-Bold-6d" d="M 3781 2919 
Q 3994 3244 4286 3414 
Q 4578 3584 4928 3584 
Q 5531 3584 5847 3212 
Q 6163 2841 6163 2131 
L 6163 0 
L 5038 0 
L 5038 1825 
Q 5041 1866 5042 1909 
Q 5044 1953 5044 2034 
Q 5044 2406 4934 2573 
Q 4825 2741 4581 2741 
Q 4263 2741 4089 2478 
Q 3916 2216 3909 1719 
L 3909 0 
L 2784 0 
L 2784 1825 
Q 2784 2406 2684 2573 
Q 2584 2741 2328 2741 
Q 2006 2741 1831 2477 
Q 1656 2213 1656 1722 
L 1656 0 
L 531 0 
L 531 3500 
L 1656 3500 
L 1656 2988 
Q 1863 3284 2130 3434 
Q 2397 3584 2719 3584 
Q 3081 3584 3359 3409 
Q 3638 3234 3781 2919 
z
" transform="scale(0.015625)"/>
      <path id="DejaVuSans-Bold-2013" d="M 344 2156 
L 2856 2156 
L 2856 1350 
L 344 1350 
L 344 2156 
z
" transform="scale(0.015625)"/>
      <path id="DejaVuSans-Bold-61" d="M 2106 1575 
Q 1756 1575 1579 1456 
Q 1403 1338 1403 1106 
Q 1403 894 1545 773 
Q 1688 653 1941 653 
Q 2256 653 2472 879 
Q 2688 1106 2688 1447 
L 2688 1575 
L 2106 1575 
z
M 3816 1997 
L 3816 0 
L 2688 0 
L 2688 519 
Q 2463 200 2181 54 
Q 1900 -91 1497 -91 
Q 953 -91 614 226 
Q 275 544 275 1050 
Q 275 1666 698 1953 
Q 1122 2241 2028 2241 
L 2688 2241 
L 2688 2328 
Q 2688 2594 2478 2717 
Q 2269 2841 1825 2841 
Q 1466 2841 1156 2769 
Q 847 2697 581 2553 
L 581 3406 
Q 941 3494 1303 3539 
Q 1666 3584 2028 3584 
Q 2975 3584 3395 3211 
Q 3816 2838 3816 1997 
z
" transform="scale(0.015625)"/>
      <path id="DejaVuSans-Bold-63" d="M 3366 3391 
L 3366 2478 
Q 3138 2634 2908 2709 
Q 2678 2784 2431 2784 
Q 1963 2784 1702 2511 
Q 1441 2238 1441 1747 
Q 1441 1256 1702 982 
Q 1963 709 2431 709 
Q 2694 709 2930 787 
Q 3166 866 3366 1019 
L 3366 103 
Q 3103 6 2833 -42 
Q 2563 -91 2291 -91 
Q 1344 -91 809 395 
Q 275 881 275 1747 
Q 275 2613 809 3098 
Q 1344 3584 2291 3584 
Q 2566 3584 2833 3536 
Q 3100 3488 3366 3391 
z
" transform="scale(0.015625)"/>
      <path id="DejaVuSans-Bold-71" d="M 2181 2772 
Q 1825 2772 1636 2509 
Q 1447 2247 1447 1747 
Q 1447 1247 1636 984 
Q 1825 722 2181 722 
Q 2541 722 2730 984 
Q 2919 1247 2919 1747 
Q 2919 2247 2730 2509 
Q 2541 2772 2181 2772 
z
M 2919 506 
Q 2688 197 2409 53 
Q 2131 -91 1766 -91 
Q 1119 -91 703 423 
Q 288 938 288 1747 
Q 288 2556 703 3067 
Q 1119 3578 1766 3578 
Q 2131 3578 2409 3434 
Q 2688 3291 2919 2981 
L 2919 3500 
L 4044 3500 
L 4044 -1331 
L 2919 -1331 
L 2919 506 
z
" transform="scale(0.015625)"/>
      <path id="DejaVuSans-Bold-70" d="M 1656 506 
L 1656 -1331 
L 538 -1331 
L 538 3500 
L 1656 3500 
L 1656 2988 
Q 1888 3294 2169 3439 
Q 2450 3584 2816 3584 
Q 3463 3584 3878 3070 
Q 4294 2556 4294 1747 
Q 4294 938 3878 423 
Q 3463 -91 2816 -91 
Q 2450 -91 2169 54 
Q 1888 200 1656 506 
z
M 2400 2772 
Q 2041 2772 1848 2508 
Q 1656 2244 1656 1747 
Q 1656 1250 1848 986 
Q 2041 722 2400 722 
Q 2759 722 2948 984 
Q 3138 1247 3138 1747 
Q 3138 2247 2948 2509 
Q 2759 2772 2400 2772 
z
" transform="scale(0.015625)"/>
     </defs>
     <use xlink:href="#DejaVuSans-Bold-44"/>
     <use xlink:href="#DejaVuSans-Bold-69" transform="translate(83.007812 0)"/>
     <use xlink:href="#DejaVuSans-Bold-73" transform="translate(117.285156 0)"/>
     <use xlink:href="#DejaVuSans-Bold-74" transform="translate(176.806641 0)"/>
     <use xlink:href="#DejaVuSans-Bold-72" transform="translate(224.609375 0)"/>
     <use xlink:href="#DejaVuSans-Bold-69" transform="translate(273.925781 0)"/>
     <use xlink:href="#DejaVuSans-Bold-62" transform="translate(308.203125 0)"/>
     <use xlink:href="#DejaVuSans-Bold-75" transform="translate(379.785156 0)"/>
     <use xlink:href="#DejaVuSans-Bold-7a" transform="translate(450.976562 0)"/>
     <use xlink:href="#DejaVuSans-Bold-69" transform="translate(509.179688 0)"/>
     <use xlink:href="#DejaVuSans-Bold-6f" transform="translate(543.457031 0)"/>
     <use xlink:href="#DejaVuSans-Bold-6e" transform="translate(612.158203 0)"/>
     <use xlink:href="#DejaVuSans-Bold-65" transform="translate(683.349609 0)"/>
     <use xlink:href="#DejaVuSans-Bold-20" transform="translate(751.171875 0)"/>
     <use xlink:href="#DejaVuSans-Bold-64" transform="translate(785.986328 0)"/>
     <use xlink:href="#DejaVuSans-Bold-69" transform="translate(857.568359 0)"/>
     <use xlink:href="#DejaVuSans-Bold-20" transform="translate(891.845703 0)"/>
     <use xlink:href="#DejaVuSans-Bold-46" transform="translate(926.660156 0)"/>
     <use xlink:href="#DejaVuSans-Bold-65" transform="translate(990.970703 0)"/>
     <use xlink:href="#DejaVuSans-Bold-72" transform="translate(1058.792969 0)"/>
     <use xlink:href="#DejaVuSans-Bold-6d" transform="translate(1108.109375 0)"/>
     <use xlink:href="#DejaVuSans-Bold-69" transform="translate(1212.308594 0)"/>
     <use xlink:href="#DejaVuSans-Bold-2013" transform="translate(1246.585938 0)"/>
     <use xlink:href="#DejaVuSans-Bold-44" transform="translate(1296.585938 0)"/>
     <use xlink:href="#DejaVuSans-Bold-69" transform="translate(1379.59375 0)"/>
     <use xlink:href="#DejaVuSans-Bold-72" transform="translate(1413.871094 0)"/>
     <use xlink:href="#DejaVuSans-Bold-61" transform="translate(1463.1875 0)"/>
     <use xlink:href="#DejaVuSans-Bold-63" transform="translate(1530.667969 0)"/>
     <use xlink:href="#DejaVuSans-Bold-20" transform="translate(1589.945312 0)"/>
     <use xlink:href="#DejaVuSans-Bold-61" transform="translate(1624.759766 0)"/>
     <use xlink:href="#DejaVuSans-Bold-20" transform="translate(1692.240234 0)"/>
     <use xlink:href="#DejaVuSans-Bold-71" transform="translate(1727.054688 0)"/>
     <use xlink:href="#DejaVuSans-Bold-75" transform="translate(1798.636719 0)"/>
     <use xlink:href="#DejaVuSans-Bold-61" transform="translate(1869.828125 0)"/>
     <use xlink:href="#DejaVuSans-Bold-74" transform="translate(1937.308594 0)"/>
     <use xlink:href="#DejaVuSans-Bold-74" transform="translate(1985.111328 0)"/>
     <use xlink:href="#DejaVuSans-Bold-72" transform="translate(2032.914062 0)"/>
     <use xlink:href="#DejaVuSans-Bold-6f" transform="translate(2082.230469 0)"/>
     <use xlink:href="#DejaVuSans-Bold-20" transform="translate(2150.931641 0)"/>
     <use xlink:href="#DejaVuSans-Bold-74" transform="translate(2185.746094 0)"/>
     <use xlink:href="#DejaVuSans-Bold-65" transform="translate(2233.548828 0)"/>
     <use xlink:href="#DejaVuSans-Bold-6d" transform="translate(2301.371094 0)"/>
     <use xlink:href="#DejaVuSans-Bold-70" transform="translate(2405.570312 0)"/>
     <use xlink:href="#DejaVuSans-Bold-65" transform="translate(2477.152344 0)"/>
     <use xlink:href="#DejaVuSans-Bold-72" transform="translate(2544.974609 0)"/>
     <use xlink:href="#DejaVuSans-Bold-61" transform="translate(2594.291016 0)"/>
     <use xlink:href="#DejaVuSans-Bold-74" transform="translate(2661.771484 0)"/>
     <use xlink:href="#DejaVuSans-Bold-75" transform="translate(2709.574219 0)"/>
     <use xlink:href="#DejaVuSans-Bold-72" transform="translate(2780.765625 0)"/>
     <use xlink:href="#DejaVuSans-Bold-65" transform="translate(2830.082031 0)"/>
    </g>
   </g>
   <g id="PathCollection_1">
    <defs>
     <path id="mfaa3886e5d" d="M 0 3.082207 
C 0.817411 3.082207 1.601453 2.757446 2.179449 2.179449 
C 2.757446 1.601453 3.082207 0.817411 3.082207 0 
C 3.082207 -0.817411 2.757446 -1.601453 2.179449 -2.179449 
C 1.601453 -2.757446 0.817411 -3.082207 0 -3.082207 
C -0.817411 -3.082207 -1.601453 -2.757446 -2.179449 -2.179449 
C -2.757446 -1.601453 -3.082207 -0.817411 -3.082207 0 
C -3.082207 0.817411 -2.757446 1.601453 -2.179449 2.179449 
C -1.601453 2.757446 -0.817411 3.082207 0 3.082207 
z
" style="stroke: #1f77b4"/>
    </defs>
    <g clip-path="url(#p18f2f1b520)">
     <use xlink:href="#mfaa3886e5d" x="385.876196" y="418.677656" style="fill: #1f77b4; stroke: #1f77b4"/>
    </g>
   </g>
   <g id="PathCollection_2">
    <defs>
     <path id="med450ef72f" d="M 0 3.082207 
C 0.817411 3.082207 1.601453 2.757446 2.179449 2.179449 
C 2.757446 1.601453 3.082207 0.817411 3.082207 0 
C 3.082207 -0.817411 2.757446 -1.601453 2.179449 -2.179449 
C 1.601453 -2.757446 0.817411 -3.082207 0 -3.082207 
C -0.817411 -3.082207 -1.601453 -2.757446 -2.179449 -2.179449 
C -2.757446 -1.601453 -3.082207 -0.817411 -3.082207 0 
C -3.082207 0.817411 -2.757446 1.601453 -2.179449 2.179449 
C -1.601453 2.757446 -0.817411 3.082207 0 3.082207 
z
" style="stroke: #ff7f0e"/>
    </defs>
    <g clip-path="url(#p18f2f1b520)">
     <use xlink:href="#med450ef72f" x="379.403396" y="418.677656" style="fill: #ff7f0e; stroke: #ff7f0e"/>
    </g>
   </g>
   <g id="PathCollection_3">
    <defs>
     <path id="mee5525a480" d="M 0 3.082207 
C 0.817411 3.082207 1.601453 2.757446 2.179449 2.179449 
C 2.757446 1.601453 3.082207 0.817411 3.082207 0 
C 3.082207 -0.817411 2.757446 -1.601453 2.179449 -2.179449 
C 1.601453 -2.757446 0.817411 -3.082207 0 -3.082207 
C -0.817411 -3.082207 -1.601453 -2.757446 -2.179449 -2.179449 
C -2.757446 -1.601453 -3.082207 -0.817411 -3.082207 0 
C -3.082207 0.817411 -2.757446 1.601453 -2.179449 2.179449 
C -1.601453 2.757446 -0.817411 3.082207 0 3.082207 
z
" style="stroke: #2ca02c"/>
    </defs>
    <g clip-path="url(#p18f2f1b520)">
     <use xlink:href="#mee5525a480" x="362.574116" y="418.677656" style="fill: #2ca02c; stroke: #2ca02c"/>
    </g>
   </g>
   <g id="PathCollection_4">
    <defs>
     <path id="m514bcdfa0b" d="M 0 3.082207 
C 0.817411 3.082207 1.601453 2.757446 2.179449 2.179449 
C 2.757446 1.601453 3.082207 0.817411 3.082207 0 
C 3.082207 -0.817411 2.757446 -1.601453 2.179449 -2.179449 
C 1.601453 -2.757446 0.817411 -3.082207 0 -3.082207 
C -0.817411 -3.082207 -1.601453 -2.757446 -2.179449 -2.179449 
C -2.757446 -1.601453 -3.082207 -0.817411 -3.082207 0 
C -3.082207 0.817411 -2.757446 1.601453 -2.179449 2.179449 
C -1.601453 2.757446 -0.817411 3.082207 0 3.082207 
z
" style="stroke: #d62728"/>
    </defs>
    <g clip-path="url(#p18f2f1b520)">
     <use xlink:href="#m514bcdfa0b" x="338.624756" y="418.677656" style="fill: #d62728; stroke: #d62728"/>
    </g>
   </g>
   <g id="legend_1">
    <g id="line2d_30">
     <path d="M 649.965156 43.696094 
L 659.965156 43.696094 
L 669.965156 43.696094 
" style="fill: none; stroke: #1f77b4; stroke-width: 2.5; stroke-linecap: square"/>
    </g>
    <g id="text_19">
     <!-- $T_1$ -->
     <g transform="translate(677.965156 47.196094) scale(0.1 -0.1)">
      <use xlink:href="#DejaVuSans-Oblique-54" transform="translate(0 0.09375)"/>
      <use xlink:href="#DejaVuSans-31" transform="translate(61.083984 -16.3125) scale(0.7)"/>
     </g>
    </g>
    <g id="line2d_31">
     <path d="M 649.965156 58.374219 
L 659.965156 58.374219 
L 669.965156 58.374219 
" style="fill: none; stroke: #ff7f0e; stroke-width: 2.5; stroke-linecap: square"/>
    </g>
    <g id="text_20">
     <!-- $T_2$ -->
     <g transform="translate(677.965156 61.874219) scale(0.1 -0.1)">
      <use xlink:href="#DejaVuSans-Oblique-54" transform="translate(0 0.09375)"/>
      <use xlink:href="#DejaVuSans-32" transform="translate(61.083984 -16.3125) scale(0.7)"/>
     </g>
    </g>
    <g id="line2d_32">
     <path d="M 649.965156 73.052344 
L 659.965156 73.052344 
L 669.965156 73.052344 
" style="fill: none; stroke: #2ca02c; stroke-width: 2.5; stroke-linecap: square"/>
    </g>
    <g id="text_21">
     <!-- $T_3$ -->
     <g transform="translate(677.965156 76.552344) scale(0.1 -0.1)">
      <defs>
       <path id="DejaVuSans-33" d="M 2597 2516 
Q 3050 2419 3304 2112 
Q 3559 1806 3559 1356 
Q 3559 666 3084 287 
Q 2609 -91 1734 -91 
Q 1441 -91 1130 -33 
Q 819 25 488 141 
L 488 750 
Q 750 597 1062 519 
Q 1375 441 1716 441 
Q 2309 441 2620 675 
Q 2931 909 2931 1356 
Q 2931 1769 2642 2001 
Q 2353 2234 1838 2234 
L 1294 2234 
L 1294 2753 
L 1863 2753 
Q 2328 2753 2575 2939 
Q 2822 3125 2822 3475 
Q 2822 3834 2567 4026 
Q 2313 4219 1838 4219 
Q 1578 4219 1281 4162 
Q 984 4106 628 3988 
L 628 4550 
Q 988 4650 1302 4700 
Q 1616 4750 1894 4750 
Q 2613 4750 3031 4423 
Q 3450 4097 3450 3541 
Q 3450 3153 3228 2886 
Q 3006 2619 2597 2516 
z
" transform="scale(0.015625)"/>
      </defs>
      <use xlink:href="#DejaVuSans-Oblique-54" transform="translate(0 0.09375)"/>
      <use xlink:href="#DejaVuSans-33" transform="translate(61.083984 -16.3125) scale(0.7)"/>
     </g>
    </g>
    <g id="line2d_33">
     <path d="M 649.965156 87.730469 
L 659.965156 87.730469 
L 669.965156 87.730469 
" style="fill: none; stroke: #d62728; stroke-width: 2.5; stroke-linecap: square"/>
    </g>
    <g id="text_22">
     <!-- $T_4$ -->
     <g transform="translate(677.965156 91.230469) scale(0.1 -0.1)">
      <use xlink:href="#DejaVuSans-Oblique-54" transform="translate(0 0.09375)"/>
      <use xlink:href="#DejaVuSans-34" transform="translate(61.083984 -16.3125) scale(0.7)"/>
     </g>
    </g>
   </g>
  </g>
  <g id="text_23">
   <!-- L'aumento della temperatura allarga la regione di transizione e sposta il potenziale chimico; in ogni caso l'occupazione vale 1/2 per E = μc(T). -->
   <g transform="translate(7.2 461.517656) scale(0.1 -0.1)">
    <defs>
     <path id="DejaVuSans-4c" d="M 628 4666 
L 1259 4666 
L 1259 531 
L 3531 531 
L 3531 0 
L 628 0 
L 628 4666 
z
" transform="scale(0.015625)"/>
     <path id="DejaVuSans-27" d="M 1147 4666 
L 1147 2931 
L 616 2931 
L 616 4666 
L 1147 4666 
z
" transform="scale(0.015625)"/>
     <path id="DejaVuSans-6c" d="M 603 4863 
L 1178 4863 
L 1178 0 
L 603 0 
L 603 4863 
z
" transform="scale(0.015625)"/>
     <path id="DejaVuSans-70" d="M 1159 525 
L 1159 -1331 
L 581 -1331 
L 581 3500 
L 1159 3500 
L 1159 2969 
Q 1341 3281 1617 3432 
Q 1894 3584 2278 3584 
Q 2916 3584 3314 3078 
Q 3713 2572 3713 1747 
Q 3713 922 3314 415 
Q 2916 -91 2278 -91 
Q 1894 -91 1617 61 
Q 1341 213 1159 525 
z
M 3116 1747 
Q 3116 2381 2855 2742 
Q 2594 3103 2138 3103 
Q 1681 3103 1420 2742 
Q 1159 2381 1159 1747 
Q 1159 1113 1420 752 
Q 1681 391 2138 391 
Q 2594 391 2855 752 
Q 3116 1113 3116 1747 
z
" transform="scale(0.015625)"/>
     <path id="DejaVuSans-68" d="M 3513 2113 
L 3513 0 
L 2938 0 
L 2938 2094 
Q 2938 2591 2744 2837 
Q 2550 3084 2163 3084 
Q 1697 3084 1428 2787 
Q 1159 2491 1159 1978 
L 1159 0 
L 581 0 
L 581 4863 
L 1159 4863 
L 1159 2956 
Q 1366 3272 1645 3428 
Q 1925 3584 2291 3584 
Q 2894 3584 3203 3211 
Q 3513 2838 3513 2113 
z
" transform="scale(0.015625)"/>
     <path id="DejaVuSans-3b" d="M 750 3309 
L 1409 3309 
L 1409 2516 
L 750 2516 
L 750 3309 
z
M 750 794 
L 1409 794 
L 1409 256 
L 897 -744 
L 494 -744 
L 750 256 
L 750 794 
z
" transform="scale(0.015625)"/>
     <path id="DejaVuSans-76" d="M 191 3500 
L 800 3500 
L 1894 563 
L 2988 3500 
L 3597 3500 
L 2284 0 
L 1503 0 
L 191 3500 
z
" transform="scale(0.015625)"/>
     <path id="DejaVuSans-45" d="M 628 4666 
L 3578 4666 
L 3578 4134 
L 1259 4134 
L 1259 2753 
L 3481 2753 
L 3481 2222 
L 1259 2222 
L 1259 531 
L 3634 531 
L 3634 0 
L 628 0 
L 628 4666 
z
" transform="scale(0.015625)"/>
     <path id="DejaVuSans-3bc" d="M 544 -1331 
L 544 3500 
L 1119 3500 
L 1119 1325 
Q 1119 872 1334 640 
Q 1550 409 1972 409 
Q 2434 409 2667 671 
Q 2900 934 2900 1459 
L 2900 3500 
L 3475 3500 
L 3475 806 
Q 3475 619 3529 530 
Q 3584 441 3700 441 
Q 3728 441 3778 458 
Q 3828 475 3916 513 
L 3916 50 
Q 3788 -22 3673 -56 
Q 3559 -91 3450 -91 
Q 3234 -91 3106 31 
Q 2978 153 2931 403 
Q 2775 156 2548 32 
Q 2322 -91 2016 -91 
Q 1697 -91 1473 31 
Q 1250 153 1119 397 
L 1119 -1331 
L 544 -1331 
z
" transform="scale(0.015625)"/>
     <path id="DejaVuSans-54" d="M -19 4666 
L 3928 4666 
L 3928 4134 
L 2272 4134 
L 2272 0 
L 1638 0 
L 1638 4134 
L -19 4134 
L -19 4666 
z
" transform="scale(0.015625)"/>
    </defs>
    <use xlink:href="#DejaVuSans-4c"/>
    <use xlink:href="#DejaVuSans-27" transform="translate(55.712891 0)"/>
    <use xlink:href="#DejaVuSans-61" transform="translate(83.203125 0)"/>
    <use xlink:href="#DejaVuSans-75" transform="translate(144.482422 0)"/>
    <use xlink:href="#DejaVuSans-6d" transform="translate(207.861328 0)"/>
    <use xlink:href="#DejaVuSans-65" transform="translate(305.273438 0)"/>
    <use xlink:href="#DejaVuSans-6e" transform="translate(366.796875 0)"/>
    <use xlink:href="#DejaVuSans-74" transform="translate(430.175781 0)"/>
    <use xlink:href="#DejaVuSans-6f" transform="translate(469.384766 0)"/>
    <use xlink:href="#DejaVuSans-20" transform="translate(530.566406 0)"/>
    <use xlink:href="#DejaVuSans-64" transform="translate(562.353516 0)"/>
    <use xlink:href="#DejaVuSans-65" transform="translate(625.830078 0)"/>
    <use xlink:href="#DejaVuSans-6c" transform="translate(687.353516 0)"/>
    <use xlink:href="#DejaVuSans-6c" transform="translate(715.136719 0)"/>
    <use xlink:href="#DejaVuSans-61" transform="translate(742.919922 0)"/>
    <use xlink:href="#DejaVuSans-20" transform="translate(804.199219 0)"/>
    <use xlink:href="#DejaVuSans-74" transform="translate(835.986328 0)"/>
    <use xlink:href="#DejaVuSans-65" transform="translate(875.195312 0)"/>
    <use xlink:href="#DejaVuSans-6d" transform="translate(936.71875 0)"/>
    <use xlink:href="#DejaVuSans-70" transform="translate(1034.130859 0)"/>
    <use xlink:href="#DejaVuSans-65" transform="translate(1097.607422 0)"/>
    <use xlink:href="#DejaVuSans-72" transform="translate(1159.130859 0)"/>
    <use xlink:href="#DejaVuSans-61" transform="translate(1200.244141 0)"/>
    <use xlink:href="#DejaVuSans-74" transform="translate(1261.523438 0)"/>
    <use xlink:href="#DejaVuSans-75" transform="translate(1300.732422 0)"/>
    <use xlink:href="#DejaVuSans-72" transform="translate(1364.111328 0)"/>
    <use xlink:href="#DejaVuSans-61" transform="translate(1405.224609 0)"/>
    <use xlink:href="#DejaVuSans-20" transform="translate(1466.503906 0)"/>
    <use xlink:href="#DejaVuSans-61" transform="translate(1498.291016 0)"/>
    <use xlink:href="#DejaVuSans-6c" transform="translate(1559.570312 0)"/>
    <use xlink:href="#DejaVuSans-6c" transform="translate(1587.353516 0)"/>
    <use xlink:href="#DejaVuSans-61" transform="translate(1615.136719 0)"/>
    <use xlink:href="#DejaVuSans-72" transform="translate(1676.416016 0)"/>
    <use xlink:href="#DejaVuSans-67" transform="translate(1715.779297 0)"/>
    <use xlink:href="#DejaVuSans-61" transform="translate(1779.255859 0)"/>
    <use xlink:href="#DejaVuSans-20" transform="translate(1840.535156 0)"/>
    <use xlink:href="#DejaVuSans-6c" transform="translate(1872.322266 0)"/>
    <use xlink:href="#DejaVuSans-61" transform="translate(1900.105469 0)"/>
    <use xlink:href="#DejaVuSans-20" transform="translate(1961.384766 0)"/>
    <use xlink:href="#DejaVuSans-72" transform="translate(1993.171875 0)"/>
    <use xlink:href="#DejaVuSans-65" transform="translate(2032.035156 0)"/>
    <use xlink:href="#DejaVuSans-67" transform="translate(2093.558594 0)"/>
    <use xlink:href="#DejaVuSans-69" transform="translate(2157.035156 0)"/>
    <use xlink:href="#DejaVuSans-6f" transform="translate(2184.818359 0)"/>
    <use xlink:href="#DejaVuSans-6e" transform="translate(2246 0)"/>
    <use xlink:href="#DejaVuSans-65" transform="translate(2309.378906 0)"/>
    <use xlink:href="#DejaVuSans-20" transform="translate(2370.902344 0)"/>
    <use xlink:href="#DejaVuSans-64" transform="translate(2402.689453 0)"/>
    <use xlink:href="#DejaVuSans-69" transform="translate(2466.166016 0)"/>
    <use xlink:href="#DejaVuSans-20" transform="translate(2493.949219 0)"/>
    <use xlink:href="#DejaVuSans-74" transform="translate(2525.736328 0)"/>
    <use xlink:href="#DejaVuSans-72" transform="translate(2564.945312 0)"/>
    <use xlink:href="#DejaVuSans-61" transform="translate(2606.058594 0)"/>
    <use xlink:href="#DejaVuSans-6e" transform="translate(2667.337891 0)"/>
    <use xlink:href="#DejaVuSans-73" transform="translate(2730.716797 0)"/>
    <use xlink:href="#DejaVuSans-69" transform="translate(2782.816406 0)"/>
    <use xlink:href="#DejaVuSans-7a" transform="translate(2810.599609 0)"/>
    <use xlink:href="#DejaVuSans-69" transform="translate(2863.089844 0)"/>
    <use xlink:href="#DejaVuSans-6f" transform="translate(2890.873047 0)"/>
    <use xlink:href="#DejaVuSans-6e" transform="translate(2952.054688 0)"/>
    <use xlink:href="#DejaVuSans-65" transform="translate(3015.433594 0)"/>
    <use xlink:href="#DejaVuSans-20" transform="translate(3076.957031 0)"/>
    <use xlink:href="#DejaVuSans-65" transform="translate(3108.744141 0)"/>
    <use xlink:href="#DejaVuSans-20" transform="translate(3170.267578 0)"/>
    <use xlink:href="#DejaVuSans-73" transform="translate(3202.054688 0)"/>
    <use xlink:href="#DejaVuSans-70" transform="translate(3254.154297 0)"/>
    <use xlink:href="#DejaVuSans-6f" transform="translate(3317.630859 0)"/>
    <use xlink:href="#DejaVuSans-73" transform="translate(3378.8125 0)"/>
    <use xlink:href="#DejaVuSans-74" transform="translate(3430.912109 0)"/>
    <use xlink:href="#DejaVuSans-61" transform="translate(3470.121094 0)"/>
    <use xlink:href="#DejaVuSans-20" transform="translate(3531.400391 0)"/>
    <use xlink:href="#DejaVuSans-69" transform="translate(3563.1875 0)"/>
    <use xlink:href="#DejaVuSans-6c" transform="translate(3590.970703 0)"/>
    <use xlink:href="#DejaVuSans-20" transform="translate(3618.753906 0)"/>
    <use xlink:href="#DejaVuSans-70" transform="translate(3650.541016 0)"/>
    <use xlink:href="#DejaVuSans-6f" transform="translate(3714.017578 0)"/>
    <use xlink:href="#DejaVuSans-74" transform="translate(3775.199219 0)"/>
    <use xlink:href="#DejaVuSans-65" transform="translate(3814.408203 0)"/>
    <use xlink:href="#DejaVuSans-6e" transform="translate(3875.931641 0)"/>
    <use xlink:href="#DejaVuSans-7a" transform="translate(3939.310547 0)"/>
    <use xlink:href="#DejaVuSans-69" transform="translate(3991.800781 0)"/>
    <use xlink:href="#DejaVuSans-61" transform="translate(4019.583984 0)"/>
    <use xlink:href="#DejaVuSans-6c" transform="translate(4080.863281 0)"/>
    <use xlink:href="#DejaVuSans-65" transform="translate(4108.646484 0)"/>
    <use xlink:href="#DejaVuSans-20" transform="translate(4170.169922 0)"/>
    <use xlink:href="#DejaVuSans-63" transform="translate(4201.957031 0)"/>
    <use xlink:href="#DejaVuSans-68" transform="translate(4256.9375 0)"/>
    <use xlink:href="#DejaVuSans-69" transform="translate(4320.316406 0)"/>
    <use xlink:href="#DejaVuSans-6d" transform="translate(4348.099609 0)"/>
    <use xlink:href="#DejaVuSans-69" transform="translate(4445.511719 0)"/>
    <use xlink:href="#DejaVuSans-63" transform="translate(4473.294922 0)"/>
    <use xlink:href="#DejaVuSans-6f" transform="translate(4528.275391 0)"/>
    <use xlink:href="#DejaVuSans-3b" transform="translate(4589.457031 0)"/>
    <use xlink:href="#DejaVuSans-20" transform="translate(4623.148438 0)"/>
    <use xlink:href="#DejaVuSans-69" transform="translate(4654.935547 0)"/>
    <use xlink:href="#DejaVuSans-6e" transform="translate(4682.71875 0)"/>
    <use xlink:href="#DejaVuSans-20" transform="translate(4746.097656 0)"/>
    <use xlink:href="#DejaVuSans-6f" transform="translate(4777.884766 0)"/>
    <use xlink:href="#DejaVuSans-67" transform="translate(4839.066406 0)"/>
    <use xlink:href="#DejaVuSans-6e" transform="translate(4902.542969 0)"/>
    <use xlink:href="#DejaVuSans-69" transform="translate(4965.921875 0)"/>
    <use xlink:href="#DejaVuSans-20" transform="translate(4993.705078 0)"/>
    <use xlink:href="#DejaVuSans-63" transform="translate(5025.492188 0)"/>
    <use xlink:href="#DejaVuSans-61" transform="translate(5080.472656 0)"/>
    <use xlink:href="#DejaVuSans-73" transform="translate(5141.751953 0)"/>
    <use xlink:href="#DejaVuSans-6f" transform="translate(5193.851562 0)"/>
    <use xlink:href="#DejaVuSans-20" transform="translate(5255.033203 0)"/>
    <use xlink:href="#DejaVuSans-6c" transform="translate(5286.820312 0)"/>
    <use xlink:href="#DejaVuSans-27" transform="translate(5314.603516 0)"/>
    <use xlink:href="#DejaVuSans-6f" transform="translate(5342.09375 0)"/>
    <use xlink:href="#DejaVuSans-63" transform="translate(5403.275391 0)"/>
    <use xlink:href="#DejaVuSans-63" transform="translate(5458.255859 0)"/>
    <use xlink:href="#DejaVuSans-75" transform="translate(5513.236328 0)"/>
    <use xlink:href="#DejaVuSans-70" transform="translate(5576.615234 0)"/>
    <use xlink:href="#DejaVuSans-61" transform="translate(5640.091797 0)"/>
    <use xlink:href="#DejaVuSans-7a" transform="translate(5701.371094 0)"/>
    <use xlink:href="#DejaVuSans-69" transform="translate(5753.861328 0)"/>
    <use xlink:href="#DejaVuSans-6f" transform="translate(5781.644531 0)"/>
    <use xlink:href="#DejaVuSans-6e" transform="translate(5842.826172 0)"/>
    <use xlink:href="#DejaVuSans-65" transform="translate(5906.205078 0)"/>
    <use xlink:href="#DejaVuSans-20" transform="translate(5967.728516 0)"/>
    <use xlink:href="#DejaVuSans-76" transform="translate(5999.515625 0)"/>
    <use xlink:href="#DejaVuSans-61" transform="translate(6058.695312 0)"/>
    <use xlink:href="#DejaVuSans-6c" transform="translate(6119.974609 0)"/>
    <use xlink:href="#DejaVuSans-65" transform="translate(6147.757812 0)"/>
    <use xlink:href="#DejaVuSans-20" transform="translate(6209.28125 0)"/>
    <use xlink:href="#DejaVuSans-31" transform="translate(6241.068359 0)"/>
    <use xlink:href="#DejaVuSans-2f" transform="translate(6304.691406 0)"/>
    <use xlink:href="#DejaVuSans-32" transform="translate(6338.382812 0)"/>
    <use xlink:href="#DejaVuSans-20" transform="translate(6402.005859 0)"/>
    <use xlink:href="#DejaVuSans-70" transform="translate(6433.792969 0)"/>
    <use xlink:href="#DejaVuSans-65" transform="translate(6497.269531 0)"/>
    <use xlink:href="#DejaVuSans-72" transform="translate(6558.792969 0)"/>
    <use xlink:href="#DejaVuSans-20" transform="translate(6599.90625 0)"/>
    <use xlink:href="#DejaVuSans-45" transform="translate(6631.693359 0)"/>
    <use xlink:href="#DejaVuSans-20" transform="translate(6694.876953 0)"/>
    <use xlink:href="#DejaVuSans-3d" transform="translate(6726.664062 0)"/>
    <use xlink:href="#DejaVuSans-20" transform="translate(6810.453125 0)"/>
    <use xlink:href="#DejaVuSans-3bc" transform="translate(6842.240234 0)"/>
    <use xlink:href="#DejaVuSans-63" transform="translate(6905.863281 0)"/>
    <use xlink:href="#DejaVuSans-28" transform="translate(6960.84375 0)"/>
    <use xlink:href="#DejaVuSans-54" transform="translate(6999.857422 0)"/>
    <use xlink:href="#DejaVuSans-29" transform="translate(7060.941406 0)"/>
    <use xlink:href="#DejaVuSans-2e" transform="translate(7099.955078 0)"/>
   </g>
  </g>
 </g>
 <defs>
  <clipPath id="p18f2f1b520">
   <rect x="50.585156" y="30.597656" width="647.28" height="388.08"/>
  </clipPath>
 </defs>
</svg>
