<?xml version="1.0" encoding="utf-8" standalone="no"?>
<!DOCTYPE svg PUBLIC "-//W3C//DTD SVG 1.1//EN"
  "http://www.w3.org/Graphics/SVG/1.1/DTD/svg11.dtd">
<svg xmlns:xlink="http://www.w3.org/1999/xlink" width="574.265625pt" height="497.949656pt" viewBox="0 0 574.265625 497.949656" xmlns="http://www.w3.org/2000/svg" version="1.1">
 <metadata>
  <rdf:RDF xmlns:dc="http://purl.org/dc/elements/1.1/" xmlns:cc="http://creativecommons.org/ns#" xmlns:rdf="http://www.w3.org/1999/02/22-rdf-syntax-ns#">
   <cc:Work>
    <dc:type rdf:resource="http://purl.org/dc/dcmitype/StillImage"/>
    <dc:date>2026-06-16T08:45:52.300164</dc:date>
    <dc:format>image/svg+xml</dc:format>
    <dc:creator>
     <cc:Agent>
      <dc:title>Matplotlib v3.10.8, https://matplotlib.org/</dc:title>
     </cc:Agent>
    </dc:creator>
   </cc:Work>
  </rdf:RDF>
 </metadata>
 <defs>
  <style type="text/css">*{stroke-linejoin: round; stroke-linecap: butt}</style>
 </defs>
 <g id="figure_1">
  <g id="patch_1">
   <path d="M 0 497.949656 
L 574.265625 497.949656 
L 574.265625 0 
L 0 0 
z
" style="fill: #ffffff"/>
  </g>
  <g id="axes_1">
   <g id="patch_2">
    <path d="M 176.143212 328.721434 
C 181.221789 326.353254 185.518058 322.848687 188.085815 318.979572 
C 190.653571 315.110458 191.28317 311.192692 189.83595 308.089117 
C 188.388729 304.985542 184.982848 302.949551 180.368411 302.429548 
C 175.753975 301.909545 170.307733 302.947985 165.229156 305.316165 
C 160.150579 307.684344 155.85431 311.188911 153.286553 315.058026 
C 150.718796 318.92714 150.089198 322.844907 151.536418 325.948481 
C 152.983639 329.052056 156.38952 331.088047 161.003956 331.60805 
C 165.618392 332.128053 171.064635 331.089613 176.143212 328.721434 
L 176.143212 328.721434 
z
" clip-path="url(#p352da19305)" style="fill: none; stroke: #000000; stroke-linejoin: miter"/>
   </g>
   <g id="patch_3">
    <path d="M 188.269395 315.420794 
Q 185.947806 312.325342 184.229955 310.034875 
" clip-path="url(#p352da19305)" style="fill: none; stroke: #000000; stroke-width: 0.9; stroke-linecap: round"/>
    <path d="M 185.029955 314.434875 
L 184.229955 310.034875 
L 188.229955 312.034875 
z
" clip-path="url(#p352da19305)" style="fill: #1f77b4; stroke: #000000; stroke-width: 0.9; stroke-linecap: round"/>
   </g>
   <g id="patch_4">
    <path d="M 342.884028 387.194328 
C 349.373321 384.168321 354.918173 379.808587 358.297395 375.075308 
C 361.676616 370.342028 362.614309 365.621654 360.903957 361.953792 
C 359.193606 358.285931 354.974852 355.970047 349.176827 355.516188 
C 343.378803 355.062328 336.474891 356.507549 329.985597 359.533556 
C 323.496304 362.559563 317.951452 366.919297 314.57223 371.652576 
C 311.193009 376.385856 310.255316 381.10623 311.965668 384.774092 
C 313.676019 388.441953 317.894773 390.757837 323.692798 391.211696 
C 329.490822 391.665556 336.394734 390.220335 342.884028 387.194328 
L 342.884028 387.194328 
z
" clip-path="url(#p352da19305)" style="fill: none; stroke: #000000; stroke-linejoin: miter"/>
   </g>
   <g id="patch_5">
    <path d="M 354.018023 371.765937 
Q 351.696434 368.670485 349.978584 366.380018 
" clip-path="url(#p352da19305)" style="fill: none; stroke: #000000; stroke-width: 0.9; stroke-linecap: round"/>
    <path d="M 350.778584 370.780018 
L 349.978584 366.380018 
L 353.978584 368.380018 
z
" clip-path="url(#p352da19305)" style="fill: #1f77b4; stroke: #000000; stroke-width: 0.9; stroke-linecap: round"/>
   </g>
   <g id="patch_6">
    <path d="M 340.717983 252.420719 
C 346.360847 249.789409 351.198366 246.032452 354.165134 241.977276 
C 357.131901 237.9221 357.985694 233.89979 356.538473 230.796216 
C 355.091252 227.692641 351.461177 225.761193 346.447731 225.427251 
C 341.434284 225.09331 335.446791 226.38414 329.803927 229.01545 
C 324.161064 231.646761 319.323544 235.403717 316.356777 239.458894 
C 313.390009 243.51407 312.536217 247.536379 313.983438 250.639954 
C 315.430659 253.743529 319.060733 255.674977 324.07418 256.008918 
C 329.087627 256.34286 335.07512 255.05203 340.717983 252.420719 
L 340.717983 252.420719 
z
" clip-path="url(#p352da19305)" style="fill: none; stroke: #000000; stroke-linejoin: miter"/>
   </g>
   <g id="patch_7">
    <path d="M 352.844166 239.12008 
Q 350.522577 236.024628 348.804727 233.734161 
" clip-path="url(#p352da19305)" style="fill: none; stroke: #000000; stroke-width: 0.9; stroke-linecap: round"/>
    <path d="M 349.604727 238.134161 
L 348.804727 233.734161 
L 352.804727 235.734161 
z
" clip-path="url(#p352da19305)" style="fill: #1f77b4; stroke: #000000; stroke-width: 0.9; stroke-linecap: round"/>
   </g>
   <g id="line2d_1">
    <path d="M 315.305384 277.107656 
L 355.216527 204.328513 
" clip-path="url(#p352da19305)" style="fill: none; stroke-dasharray: 3.33,1.44; stroke-dashoffset: 0; stroke: #1f77b4; stroke-width: 0.9"/>
   </g>
   <g id="line2d_2">
    <path d="M 191.815613 277.107656 
L 355.216527 204.328513 
" clip-path="url(#p352da19305)" style="fill: none; stroke-dasharray: 3.33,1.44; stroke-dashoffset: 0; stroke: #ff7f0e; stroke-width: 0.9"/>
   </g>
   <g id="patch_8">
    <path d="M 164.69967 420.451275 
Q 215.527398 423.83979 264.347121 427.094439 
" style="fill: none; stroke: #000000; stroke-width: 1.8; stroke-linecap: round"/>
    <path d="M 259.331588 424.154298 
L 264.347121 427.094439 
L 258.985689 429.342781 
z
" style="fill: #1f77b4; stroke: #000000; stroke-width: 1.8; stroke-linecap: round"/>
   </g>
   <g id="text_1">
    <!-- $\mathbf{L}_1$ -->
    <g transform="translate(210.207527 439.608405) scale(0.095 -0.095)">
     <defs>
      <path id="DejaVuSans-Bold-4c" d="M 588 4666 
L 1791 4666 
L 1791 909 
L 3903 909 
L 3903 0 
L 588 0 
L 588 4666 
z
" transform="scale(0.015625)"/>
      <path id="DejaVuSans-31" d="M 794 531 
L 1825 531 
L 1825 4091 
L 703 3866 
L 703 4441 
L 1819 4666 
L 2450 4666 
L 2450 531 
L 3481 531 
L 3481 0 
L 794 0 
L 794 531 
z
" transform="scale(0.015625)"/>
     </defs>
     <use xlink:href="#DejaVuSans-Bold-4c" transform="translate(0 0.09375)"/>
     <use xlink:href="#DejaVuSans-31" transform="translate(64.677734 -16.3125) scale(0.7)"/>
    </g>
   </g>
   <g id="patch_9">
    <path d="M 269.9198 426.117228 
Q 302.394788 400.361202 333.293019 375.85571 
" style="fill: none; stroke: #000000; stroke-width: 1.8; stroke-linecap: round"/>
    <path d="M 327.603204 377.049868 
L 333.293019 375.85571 
L 330.834457 381.124056 
z
" style="fill: #1f77b4; stroke: #000000; stroke-width: 1.8; stroke-linecap: round"/>
   </g>
   <g id="text_2">
    <!-- $\mathbf{L}_2$ -->
    <g transform="translate(304.116098 407.679491) scale(0.095 -0.095)">
     <defs>
      <path id="DejaVuSans-32" d="M 1228 531 
L 3431 531 
L 3431 0 
L 469 0 
L 469 531 
Q 828 903 1448 1529 
Q 2069 2156 2228 2338 
Q 2531 2678 2651 2914 
Q 2772 3150 2772 3378 
Q 2772 3750 2511 3984 
Q 2250 4219 1831 4219 
Q 1534 4219 1204 4116 
Q 875 4013 500 3803 
L 500 4441 
Q 881 4594 1212 4672 
Q 1544 4750 1819 4750 
Q 2544 4750 2975 4387 
Q 3406 4025 3406 3419 
Q 3406 3131 3298 2873 
Q 3191 2616 2906 2266 
Q 2828 2175 2409 1742 
Q 1991 1309 1228 531 
z
" transform="scale(0.015625)"/>
     </defs>
     <use xlink:href="#DejaVuSans-Bold-4c" transform="translate(0 0.09375)"/>
     <use xlink:href="#DejaVuSans-32" transform="translate(64.677734 -16.3125) scale(0.7)"/>
    </g>
   </g>
   <g id="patch_10">
    <path d="M 336.006008 371.410499 
Q 325.870169 325.236123 316.165817 281.027407 
" style="fill: none; stroke: #000000; stroke-width: 1.8; stroke-linecap: round"/>
    <path d="M 314.7412 286.663936 
L 316.165817 281.027407 
L 319.82027 285.549018 
z
" style="fill: #1f77b4; stroke: #000000; stroke-width: 1.8; stroke-linecap: round"/>
   </g>
   <g id="text_3">
    <!-- $\mathbf{L}_3$ -->
    <g transform="translate(330.880041 324.100862) scale(0.095 -0.095)">
     <defs>
      <path id="DejaVuSans-33" d="M 2597 2516 
Q 3050 2419 3304 2112 
Q 3559 1806 3559 1356 
Q 3559 666 3084 287 
Q 2609 -91 1734 -91 
Q 1441 -91 1130 -33 
Q 819 25 488 141 
L 488 750 
Q 750 597 1062 519 
Q 1375 441 1716 441 
Q 2309 441 2620 675 
Q 2931 909 2931 1356 
Q 2931 1769 2642 2001 
Q 2353 2234 1838 2234 
L 1294 2234 
L 1294 2753 
L 1863 2753 
Q 2328 2753 2575 2939 
Q 2822 3125 2822 3475 
Q 2822 3834 2567 4026 
Q 2313 4219 1838 4219 
Q 1578 4219 1281 4162 
Q 984 4106 628 3988 
L 628 4550 
Q 988 4650 1302 4700 
Q 1616 4750 1894 4750 
Q 2613 4750 3031 4423 
Q 3450 4097 3450 3541 
Q 3450 3153 3228 2886 
Q 3006 2619 2597 2516 
z
" transform="scale(0.015625)"/>
     </defs>
     <use xlink:href="#DejaVuSans-Bold-4c" transform="translate(0 0.09375)"/>
     <use xlink:href="#DejaVuSans-33" transform="translate(64.677734 -16.3125) scale(0.7)"/>
    </g>
   </g>
   <g id="patch_11">
    <path d="M 164.163933 418.948095 
Q 239.004735 348.712881 312.051973 280.160857 
" style="fill: none; stroke: #000000; stroke-width: 2.2; stroke-linecap: round"/>
    <path d="M 306.480983 281.823404 
L 312.051973 280.160857 
L 310.039416 285.615178 
z
" style="fill: #1f77b4; stroke: #000000; stroke-width: 2.2; stroke-linecap: round"/>
   </g>
   <g id="text_4">
    <!-- $\mathbf{L}_{\rm tot}$ -->
    <g transform="translate(219.381098 346.63892) scale(0.095 -0.095)">
     <defs>
      <path id="DejaVuSans-74" d="M 1172 4494 
L 1172 3500 
L 2356 3500 
L 2356 3053 
L 1172 3053 
L 1172 1153 
Q 1172 725 1289 603 
Q 1406 481 1766 481 
L 2356 481 
L 2356 0 
L 1766 0 
Q 1100 0 847 248 
Q 594 497 594 1153 
L 594 3053 
L 172 3053 
L 172 3500 
L 594 3500 
L 594 4494 
L 1172 4494 
z
" transform="scale(0.015625)"/>
      <path id="DejaVuSans-6f" d="M 1959 3097 
Q 1497 3097 1228 2736 
Q 959 2375 959 1747 
Q 959 1119 1226 758 
Q 1494 397 1959 397 
Q 2419 397 2687 759 
Q 2956 1122 2956 1747 
Q 2956 2369 2687 2733 
Q 2419 3097 1959 3097 
z
M 1959 3584 
Q 2709 3584 3137 3096 
Q 3566 2609 3566 1747 
Q 3566 888 3137 398 
Q 2709 -91 1959 -91 
Q 1206 -91 779 398 
Q 353 888 353 1747 
Q 353 2609 779 3096 
Q 1206 3584 1959 3584 
z
" transform="scale(0.015625)"/>
     </defs>
     <use xlink:href="#DejaVuSans-Bold-4c" transform="translate(0 0.09375)"/>
     <use xlink:href="#DejaVuSans-74" transform="translate(64.677734 -16.3125) scale(0.7)"/>
     <use xlink:href="#DejaVuSans-6f" transform="translate(92.124023 -16.3125) scale(0.7)"/>
     <use xlink:href="#DejaVuSans-74" transform="translate(134.951172 -16.3125) scale(0.7)"/>
    </g>
   </g>
   <g id="patch_12">
    <path d="M 162.279091 418.363853 
Q 156.834577 393.319086 151.770068 370.022346 
" style="fill: none; stroke: #000000; stroke-width: 1.6; stroke-linecap: round"/>
    <path d="M 150.334044 375.65598 
L 151.770068 370.022346 
L 155.415361 374.551346 
z
" style="fill: #1f77b4; stroke: #000000; stroke-width: 1.6; stroke-linecap: round"/>
   </g>
   <g id="text_5">
    <!-- $\mathbf{S}_1$ -->
    <g transform="translate(137.93997 395.94092) scale(0.095 -0.095)">
     <defs>
      <path id="DejaVuSans-Bold-53" d="M 3834 4519 
L 3834 3531 
Q 3450 3703 3084 3790 
Q 2719 3878 2394 3878 
Q 1963 3878 1756 3759 
Q 1550 3641 1550 3391 
Q 1550 3203 1689 3098 
Q 1828 2994 2194 2919 
L 2706 2816 
Q 3484 2659 3812 2340 
Q 4141 2022 4141 1434 
Q 4141 663 3683 286 
Q 3225 -91 2284 -91 
Q 1841 -91 1394 -6 
Q 947 78 500 244 
L 500 1259 
Q 947 1022 1364 901 
Q 1781 781 2169 781 
Q 2563 781 2772 912 
Q 2981 1044 2981 1288 
Q 2981 1506 2839 1625 
Q 2697 1744 2272 1838 
L 1806 1941 
Q 1106 2091 782 2419 
Q 459 2747 459 3303 
Q 459 4000 909 4375 
Q 1359 4750 2203 4750 
Q 2588 4750 2994 4692 
Q 3400 4634 3834 4519 
z
" transform="scale(0.015625)"/>
     </defs>
     <use xlink:href="#DejaVuSans-Bold-53" transform="translate(0 0.78125)"/>
     <use xlink:href="#DejaVuSans-31" transform="translate(72.978516 -15.625) scale(0.7)"/>
    </g>
   </g>
   <g id="patch_13">
    <path d="M 151.708043 364.46415 
Q 160.825868 341.66959 169.279328 320.535939 
" style="fill: none; stroke: #000000; stroke-width: 1.6; stroke-linecap: round"/>
    <path d="M 164.934057 324.398402 
L 169.279328 320.535939 
L 169.762136 326.329633 
z
" style="fill: #1f77b4; stroke: #000000; stroke-width: 1.6; stroke-linecap: round"/>
   </g>
   <g id="text_6">
    <!-- $\mathbf{S}_2$ -->
    <g transform="translate(141.931084 344.291205) scale(0.095 -0.095)">
     <use xlink:href="#DejaVuSans-Bold-53" transform="translate(0 0.78125)"/>
     <use xlink:href="#DejaVuSans-32" transform="translate(72.978516 -15.625) scale(0.7)"/>
    </g>
   </g>
   <g id="patch_14">
    <path d="M 171.621171 315.252712 
Q 181.250631 297.063732 190.043108 280.45572 
" style="fill: none; stroke: #000000; stroke-width: 1.6; stroke-linecap: round"/>
    <path d="M 185.312243 283.834909 
L 190.043108 280.45572 
L 189.907941 286.267925 
z
" style="fill: #1f77b4; stroke: #000000; stroke-width: 1.6; stroke-linecap: round"/>
   </g>
   <g id="text_7">
    <!-- $\mathbf{S}_3$ -->
    <g transform="translate(162.356198 299.684634) scale(0.095 -0.095)">
     <use xlink:href="#DejaVuSans-Bold-53" transform="translate(0 0.78125)"/>
     <use xlink:href="#DejaVuSans-33" transform="translate(72.978516 -15.625) scale(0.7)"/>
    </g>
   </g>
   <g id="patch_15">
    <path d="M 163.102855 418.3559 
Q 177.259888 348.712429 190.971487 281.260211 
" style="fill: none; stroke: #000000; stroke-width: 2; stroke-linecap: round"/>
    <path d="M 187.387732 285.83806 
L 190.971487 281.260211 
L 192.483514 286.873924 
z
" style="fill: #1f77b4; stroke: #000000; stroke-width: 2; stroke-linecap: round"/>
   </g>
   <g id="text_8">
    <!-- $\mathbf{S}_{\rm tot}$ -->
    <g transform="translate(182.141984 348.986634) scale(0.095 -0.095)">
     <use xlink:href="#DejaVuSans-Bold-53" transform="translate(0 0.78125)"/>
     <use xlink:href="#DejaVuSans-74" transform="translate(72.978516 -15.625) scale(0.7)"/>
     <use xlink:href="#DejaVuSans-6f" transform="translate(100.424805 -15.625) scale(0.7)"/>
     <use xlink:href="#DejaVuSans-74" transform="translate(143.251953 -15.625) scale(0.7)"/>
    </g>
   </g>
   <g id="patch_16">
    <path d="M 164.034647 418.825257 
Q 258.959006 312.324757 352.023597 207.910824 
" style="fill: none; stroke: #000000; stroke-width: 2.5; stroke-linecap: round"/>
    <path d="M 346.622736 210.06273 
L 352.023597 207.910824 
L 350.504605 213.522657 
z
" style="fill: #1f77b4; stroke: #000000; stroke-width: 2.5; stroke-linecap: round"/>
   </g>
   <g id="text_9">
    <!-- $\mathbf{J}_{\rm tot}$ -->
    <g transform="translate(245.314598 305.534623) scale(0.095 -0.095)">
     <defs>
      <path id="DejaVuSans-Bold-4a" d="M 588 4666 
L 1791 4666 
L 1791 453 
Q 1791 -419 1317 -850 
Q 844 -1281 -116 -1281 
L -359 -1281 
L -359 -372 
L -172 -372 
Q 203 -372 395 -162 
Q 588 47 588 453 
L 588 4666 
z
" transform="scale(0.015625)"/>
     </defs>
     <use xlink:href="#DejaVuSans-Bold-4a" transform="translate(0 0.09375)"/>
     <use xlink:href="#DejaVuSans-74" transform="translate(38.164062 -16.3125) scale(0.7)"/>
     <use xlink:href="#DejaVuSans-6f" transform="translate(65.610352 -16.3125) scale(0.7)"/>
     <use xlink:href="#DejaVuSans-74" transform="translate(108.4375 -16.3125) scale(0.7)"/>
    </g>
   </g>
   <g id="text_10">
    <!-- somma vettoriale gerarchica -->
    <g transform="translate(273.09006 68.161085) scale(0.11 -0.11)">
     <defs>
      <path id="DejaVuSans-Bold-73" d="M 3272 3391 
L 3272 2541 
Q 2913 2691 2578 2766 
Q 2244 2841 1947 2841 
Q 1628 2841 1473 2761 
Q 1319 2681 1319 2516 
Q 1319 2381 1436 2309 
Q 1553 2238 1856 2203 
L 2053 2175 
Q 2913 2066 3209 1816 
Q 3506 1566 3506 1031 
Q 3506 472 3093 190 
Q 2681 -91 1863 -91 
Q 1516 -91 1145 -36 
Q 775 19 384 128 
L 384 978 
Q 719 816 1070 734 
Q 1422 653 1784 653 
Q 2113 653 2278 743 
Q 2444 834 2444 1013 
Q 2444 1163 2330 1236 
Q 2216 1309 1875 1350 
L 1678 1375 
Q 931 1469 631 1722 
Q 331 1975 331 2491 
Q 331 3047 712 3315 
Q 1094 3584 1881 3584 
Q 2191 3584 2531 3537 
Q 2872 3491 3272 3391 
z
" transform="scale(0.015625)"/>
      <path id="DejaVuSans-Bold-6f" d="M 2203 2784 
Q 1831 2784 1636 2517 
Q 1441 2250 1441 1747 
Q 1441 1244 1636 976 
Q 1831 709 2203 709 
Q 2569 709 2762 976 
Q 2956 1244 2956 1747 
Q 2956 2250 2762 2517 
Q 2569 2784 2203 2784 
z
M 2203 3584 
Q 3106 3584 3614 3096 
Q 4122 2609 4122 1747 
Q 4122 884 3614 396 
Q 3106 -91 2203 -91 
Q 1297 -91 786 396 
Q 275 884 275 1747 
Q 275 2609 786 3096 
Q 1297 3584 2203 3584 
z
" transform="scale(0.015625)"/>
      <path id="DejaVuSans-Bold-6d" d="M 3781 2919 
Q 3994 3244 4286 3414 
Q 4578 3584 4928 3584 
Q 5531 3584 5847 3212 
Q 6163 2841 6163 2131 
L 6163 0 
L 5038 0 
L 5038 1825 
Q 5041 1866 5042 1909 
Q 5044 1953 5044 2034 
Q 5044 2406 4934 2573 
Q 4825 2741 4581 2741 
Q 4263 2741 4089 2478 
Q 3916 2216 3909 1719 
L 3909 0 
L 2784 0 
L 2784 1825 
Q 2784 2406 2684 2573 
Q 2584 2741 2328 2741 
Q 2006 2741 1831 2477 
Q 1656 2213 1656 1722 
L 1656 0 
L 531 0 
L 531 3500 
L 1656 3500 
L 1656 2988 
Q 1863 3284 2130 3434 
Q 2397 3584 2719 3584 
Q 3081 3584 3359 3409 
Q 3638 3234 3781 2919 
z
" transform="scale(0.015625)"/>
      <path id="DejaVuSans-Bold-61" d="M 2106 1575 
Q 1756 1575 1579 1456 
Q 1403 1338 1403 1106 
Q 1403 894 1545 773 
Q 1688 653 1941 653 
Q 2256 653 2472 879 
Q 2688 1106 2688 1447 
L 2688 1575 
L 2106 1575 
z
M 3816 1997 
L 3816 0 
L 2688 0 
L 2688 519 
Q 2463 200 2181 54 
Q 1900 -91 1497 -91 
Q 953 -91 614 226 
Q 275 544 275 1050 
Q 275 1666 698 1953 
Q 1122 2241 2028 2241 
L 2688 2241 
L 2688 2328 
Q 2688 2594 2478 2717 
Q 2269 2841 1825 2841 
Q 1466 2841 1156 2769 
Q 847 2697 581 2553 
L 581 3406 
Q 941 3494 1303 3539 
Q 1666 3584 2028 3584 
Q 2975 3584 3395 3211 
Q 3816 2838 3816 1997 
z
" transform="scale(0.015625)"/>
      <path id="DejaVuSans-Bold-20" transform="scale(0.015625)"/>
      <path id="DejaVuSans-Bold-76" d="M 97 3500 
L 1216 3500 
L 2088 1081 
L 2956 3500 
L 4078 3500 
L 2700 0 
L 1472 0 
L 97 3500 
z
" transform="scale(0.015625)"/>
      <path id="DejaVuSans-Bold-65" d="M 4031 1759 
L 4031 1441 
L 1416 1441 
Q 1456 1047 1700 850 
Q 1944 653 2381 653 
Q 2734 653 3104 758 
Q 3475 863 3866 1075 
L 3866 213 
Q 3469 63 3072 -14 
Q 2675 -91 2278 -91 
Q 1328 -91 801 392 
Q 275 875 275 1747 
Q 275 2603 792 3093 
Q 1309 3584 2216 3584 
Q 3041 3584 3536 3087 
Q 4031 2591 4031 1759 
z
M 2881 2131 
Q 2881 2450 2695 2645 
Q 2509 2841 2209 2841 
Q 1884 2841 1681 2658 
Q 1478 2475 1428 2131 
L 2881 2131 
z
" transform="scale(0.015625)"/>
      <path id="DejaVuSans-Bold-74" d="M 1759 4494 
L 1759 3500 
L 2913 3500 
L 2913 2700 
L 1759 2700 
L 1759 1216 
Q 1759 972 1856 886 
Q 1953 800 2241 800 
L 2816 800 
L 2816 0 
L 1856 0 
Q 1194 0 917 276 
Q 641 553 641 1216 
L 641 2700 
L 84 2700 
L 84 3500 
L 641 3500 
L 641 4494 
L 1759 4494 
z
" transform="scale(0.015625)"/>
      <path id="DejaVuSans-Bold-72" d="M 3138 2547 
Q 2991 2616 2845 2648 
Q 2700 2681 2553 2681 
Q 2122 2681 1889 2404 
Q 1656 2128 1656 1613 
L 1656 0 
L 538 0 
L 538 3500 
L 1656 3500 
L 1656 2925 
Q 1872 3269 2151 3426 
Q 2431 3584 2822 3584 
Q 2878 3584 2943 3579 
Q 3009 3575 3134 3559 
L 3138 2547 
z
" transform="scale(0.015625)"/>
      <path id="DejaVuSans-Bold-69" d="M 538 3500 
L 1656 3500 
L 1656 0 
L 538 0 
L 538 3500 
z
M 538 4863 
L 1656 4863 
L 1656 3950 
L 538 3950 
L 538 4863 
z
" transform="scale(0.015625)"/>
      <path id="DejaVuSans-Bold-6c" d="M 538 4863 
L 1656 4863 
L 1656 0 
L 538 0 
L 538 4863 
z
" transform="scale(0.015625)"/>
      <path id="DejaVuSans-Bold-67" d="M 2919 594 
Q 2688 288 2409 144 
Q 2131 0 1766 0 
Q 1125 0 706 504 
Q 288 1009 288 1791 
Q 288 2575 706 3076 
Q 1125 3578 1766 3578 
Q 2131 3578 2409 3434 
Q 2688 3291 2919 2981 
L 2919 3500 
L 4044 3500 
L 4044 353 
Q 4044 -491 3511 -936 
Q 2978 -1381 1966 -1381 
Q 1638 -1381 1331 -1331 
Q 1025 -1281 716 -1178 
L 716 -306 
Q 1009 -475 1290 -558 
Q 1572 -641 1856 -641 
Q 2406 -641 2662 -400 
Q 2919 -159 2919 353 
L 2919 594 
z
M 2181 2772 
Q 1834 2772 1640 2515 
Q 1447 2259 1447 1791 
Q 1447 1309 1634 1061 
Q 1822 813 2181 813 
Q 2531 813 2725 1069 
Q 2919 1325 2919 1791 
Q 2919 2259 2725 2515 
Q 2531 2772 2181 2772 
z
" transform="scale(0.015625)"/>
      <path id="DejaVuSans-Bold-63" d="M 3366 3391 
L 3366 2478 
Q 3138 2634 2908 2709 
Q 2678 2784 2431 2784 
Q 1963 2784 1702 2511 
Q 1441 2238 1441 1747 
Q 1441 1256 1702 982 
Q 1963 709 2431 709 
Q 2694 709 2930 787 
Q 3166 866 3366 1019 
L 3366 103 
Q 3103 6 2833 -42 
Q 2563 -91 2291 -91 
Q 1344 -91 809 395 
Q 275 881 275 1747 
Q 275 2613 809 3098 
Q 1344 3584 2291 3584 
Q 2566 3584 2833 3536 
Q 3100 3488 3366 3391 
z
" transform="scale(0.015625)"/>
      <path id="DejaVuSans-Bold-68" d="M 4056 2131 
L 4056 0 
L 2931 0 
L 2931 347 
L 2931 1625 
Q 2931 2084 2911 2256 
Q 2891 2428 2841 2509 
Q 2775 2619 2662 2680 
Q 2550 2741 2406 2741 
Q 2056 2741 1856 2470 
Q 1656 2200 1656 1722 
L 1656 0 
L 538 0 
L 538 4863 
L 1656 4863 
L 1656 2988 
Q 1909 3294 2193 3439 
Q 2478 3584 2822 3584 
Q 3428 3584 3742 3212 
Q 4056 2841 4056 2131 
z
" transform="scale(0.015625)"/>
     </defs>
     <use xlink:href="#DejaVuSans-Bold-73"/>
     <use xlink:href="#DejaVuSans-Bold-6f" transform="translate(59.521484 0)"/>
     <use xlink:href="#DejaVuSans-Bold-6d" transform="translate(128.222656 0)"/>
     <use xlink:href="#DejaVuSans-Bold-6d" transform="translate(232.421875 0)"/>
     <use xlink:href="#DejaVuSans-Bold-61" transform="translate(336.621094 0)"/>
     <use xlink:href="#DejaVuSans-Bold-20" transform="translate(404.101562 0)"/>
     <use xlink:href="#DejaVuSans-Bold-76" transform="translate(438.916016 0)"/>
     <use xlink:href="#DejaVuSans-Bold-65" transform="translate(504.101562 0)"/>
     <use xlink:href="#DejaVuSans-Bold-74" transform="translate(571.923828 0)"/>
     <use xlink:href="#DejaVuSans-Bold-74" transform="translate(619.726562 0)"/>
     <use xlink:href="#DejaVuSans-Bold-6f" transform="translate(667.529297 0)"/>
     <use xlink:href="#DejaVuSans-Bold-72" transform="translate(736.230469 0)"/>
     <use xlink:href="#DejaVuSans-Bold-69" transform="translate(785.546875 0)"/>
     <use xlink:href="#DejaVuSans-Bold-61" transform="translate(819.824219 0)"/>
     <use xlink:href="#DejaVuSans-Bold-6c" transform="translate(887.304688 0)"/>
     <use xlink:href="#DejaVuSans-Bold-65" transform="translate(921.582031 0)"/>
     <use xlink:href="#DejaVuSans-Bold-20" transform="translate(989.404297 0)"/>
     <use xlink:href="#DejaVuSans-Bold-67" transform="translate(1024.21875 0)"/>
     <use xlink:href="#DejaVuSans-Bold-65" transform="translate(1095.800781 0)"/>
     <use xlink:href="#DejaVuSans-Bold-72" transform="translate(1163.623047 0)"/>
     <use xlink:href="#DejaVuSans-Bold-61" transform="translate(1212.939453 0)"/>
     <use xlink:href="#DejaVuSans-Bold-72" transform="translate(1280.419922 0)"/>
     <use xlink:href="#DejaVuSans-Bold-63" transform="translate(1329.736328 0)"/>
     <use xlink:href="#DejaVuSans-Bold-68" transform="translate(1389.013672 0)"/>
     <use xlink:href="#DejaVuSans-Bold-69" transform="translate(1460.205078 0)"/>
     <use xlink:href="#DejaVuSans-Bold-63" transform="translate(1494.482422 0)"/>
     <use xlink:href="#DejaVuSans-Bold-61" transform="translate(1553.759766 0)"/>
    </g>
   </g>
   <g id="text_11">
    <!-- I momenti orbitali si combinano in Ltot, gli spin in Stot; la loro somma definisce il momento angolare totale Jtot. -->
    <g transform="translate(7.2 469.620228) scale(0.1 -0.1)">
     <defs>
      <path id="DejaVuSans-49" d="M 628 4666 
L 1259 4666 
L 1259 0 
L 628 0 
L 628 4666 
z
" transform="scale(0.015625)"/>
      <path id="DejaVuSans-20" transform="scale(0.015625)"/>
      <path id="DejaVuSans-6d" d="M 3328 2828 
Q 3544 3216 3844 3400 
Q 4144 3584 4550 3584 
Q 5097 3584 5394 3201 
Q 5691 2819 5691 2113 
L 5691 0 
L 5113 0 
L 5113 2094 
Q 5113 2597 4934 2840 
Q 4756 3084 4391 3084 
Q 3944 3084 3684 2787 
Q 3425 2491 3425 1978 
L 3425 0 
L 2847 0 
L 2847 2094 
Q 2847 2600 2669 2842 
Q 2491 3084 2119 3084 
Q 1678 3084 1418 2786 
Q 1159 2488 1159 1978 
L 1159 0 
L 581 0 
L 581 3500 
L 1159 3500 
L 1159 2956 
Q 1356 3278 1631 3431 
Q 1906 3584 2284 3584 
Q 2666 3584 2933 3390 
Q 3200 3197 3328 2828 
z
" transform="scale(0.015625)"/>
      <path id="DejaVuSans-65" d="M 3597 1894 
L 3597 1613 
L 953 1613 
Q 991 1019 1311 708 
Q 1631 397 2203 397 
Q 2534 397 2845 478 
Q 3156 559 3463 722 
L 3463 178 
Q 3153 47 2828 -22 
Q 2503 -91 2169 -91 
Q 1331 -91 842 396 
Q 353 884 353 1716 
Q 353 2575 817 3079 
Q 1281 3584 2069 3584 
Q 2775 3584 3186 3129 
Q 3597 2675 3597 1894 
z
M 3022 2063 
Q 3016 2534 2758 2815 
Q 2500 3097 2075 3097 
Q 1594 3097 1305 2825 
Q 1016 2553 972 2059 
L 3022 2063 
z
" transform="scale(0.015625)"/>
      <path id="DejaVuSans-6e" d="M 3513 2113 
L 3513 0 
L 2938 0 
L 2938 2094 
Q 2938 2591 2744 2837 
Q 2550 3084 2163 3084 
Q 1697 3084 1428 2787 
Q 1159 2491 1159 1978 
L 1159 0 
L 581 0 
L 581 3500 
L 1159 3500 
L 1159 2956 
Q 1366 3272 1645 3428 
Q 1925 3584 2291 3584 
Q 2894 3584 3203 3211 
Q 3513 2838 3513 2113 
z
" transform="scale(0.015625)"/>
      <path id="DejaVuSans-69" d="M 603 3500 
L 1178 3500 
L 1178 0 
L 603 0 
L 603 3500 
z
M 603 4863 
L 1178 4863 
L 1178 4134 
L 603 4134 
L 603 4863 
z
" transform="scale(0.015625)"/>
      <path id="DejaVuSans-72" d="M 2631 2963 
Q 2534 3019 2420 3045 
Q 2306 3072 2169 3072 
Q 1681 3072 1420 2755 
Q 1159 2438 1159 1844 
L 1159 0 
L 581 0 
L 581 3500 
L 1159 3500 
L 1159 2956 
Q 1341 3275 1631 3429 
Q 1922 3584 2338 3584 
Q 2397 3584 2469 3576 
Q 2541 3569 2628 3553 
L 2631 2963 
z
" transform="scale(0.015625)"/>
      <path id="DejaVuSans-62" d="M 3116 1747 
Q 3116 2381 2855 2742 
Q 2594 3103 2138 3103 
Q 1681 3103 1420 2742 
Q 1159 2381 1159 1747 
Q 1159 1113 1420 752 
Q 1681 391 2138 391 
Q 2594 391 2855 752 
Q 3116 1113 3116 1747 
z
M 1159 2969 
Q 1341 3281 1617 3432 
Q 1894 3584 2278 3584 
Q 2916 3584 3314 3078 
Q 3713 2572 3713 1747 
Q 3713 922 3314 415 
Q 2916 -91 2278 -91 
Q 1894 -91 1617 61 
Q 1341 213 1159 525 
L 1159 0 
L 581 0 
L 581 4863 
L 1159 4863 
L 1159 2969 
z
" transform="scale(0.015625)"/>
      <path id="DejaVuSans-61" d="M 2194 1759 
Q 1497 1759 1228 1600 
Q 959 1441 959 1056 
Q 959 750 1161 570 
Q 1363 391 1709 391 
Q 2188 391 2477 730 
Q 2766 1069 2766 1631 
L 2766 1759 
L 2194 1759 
z
M 3341 1997 
L 3341 0 
L 2766 0 
L 2766 531 
Q 2569 213 2275 61 
Q 1981 -91 1556 -91 
Q 1019 -91 701 211 
Q 384 513 384 1019 
Q 384 1609 779 1909 
Q 1175 2209 1959 2209 
L 2766 2209 
L 2766 2266 
Q 2766 2663 2505 2880 
Q 2244 3097 1772 3097 
Q 1472 3097 1187 3025 
Q 903 2953 641 2809 
L 641 3341 
Q 956 3463 1253 3523 
Q 1550 3584 1831 3584 
Q 2591 3584 2966 3190 
Q 3341 2797 3341 1997 
z
" transform="scale(0.015625)"/>
      <path id="DejaVuSans-6c" d="M 603 4863 
L 1178 4863 
L 1178 0 
L 603 0 
L 603 4863 
z
" transform="scale(0.015625)"/>
      <path id="DejaVuSans-73" d="M 2834 3397 
L 2834 2853 
Q 2591 2978 2328 3040 
Q 2066 3103 1784 3103 
Q 1356 3103 1142 2972 
Q 928 2841 928 2578 
Q 928 2378 1081 2264 
Q 1234 2150 1697 2047 
L 1894 2003 
Q 2506 1872 2764 1633 
Q 3022 1394 3022 966 
Q 3022 478 2636 193 
Q 2250 -91 1575 -91 
Q 1294 -91 989 -36 
Q 684 19 347 128 
L 347 722 
Q 666 556 975 473 
Q 1284 391 1588 391 
Q 1994 391 2212 530 
Q 2431 669 2431 922 
Q 2431 1156 2273 1281 
Q 2116 1406 1581 1522 
L 1381 1569 
Q 847 1681 609 1914 
Q 372 2147 372 2553 
Q 372 3047 722 3315 
Q 1072 3584 1716 3584 
Q 2034 3584 2315 3537 
Q 2597 3491 2834 3397 
z
" transform="scale(0.015625)"/>
      <path id="DejaVuSans-63" d="M 3122 3366 
L 3122 2828 
Q 2878 2963 2633 3030 
Q 2388 3097 2138 3097 
Q 1578 3097 1268 2742 
Q 959 2388 959 1747 
Q 959 1106 1268 751 
Q 1578 397 2138 397 
Q 2388 397 2633 464 
Q 2878 531 3122 666 
L 3122 134 
Q 2881 22 2623 -34 
Q 2366 -91 2075 -91 
Q 1284 -91 818 406 
Q 353 903 353 1747 
Q 353 2603 823 3093 
Q 1294 3584 2113 3584 
Q 2378 3584 2631 3529 
Q 2884 3475 3122 3366 
z
" transform="scale(0.015625)"/>
      <path id="DejaVuSans-4c" d="M 628 4666 
L 1259 4666 
L 1259 531 
L 3531 531 
L 3531 0 
L 628 0 
L 628 4666 
z
" transform="scale(0.015625)"/>
      <path id="DejaVuSans-2c" d="M 750 794 
L 1409 794 
L 1409 256 
L 897 -744 
L 494 -744 
L 750 256 
L 750 794 
z
" transform="scale(0.015625)"/>
      <path id="DejaVuSans-67" d="M 2906 1791 
Q 2906 2416 2648 2759 
Q 2391 3103 1925 3103 
Q 1463 3103 1205 2759 
Q 947 2416 947 1791 
Q 947 1169 1205 825 
Q 1463 481 1925 481 
Q 2391 481 2648 825 
Q 2906 1169 2906 1791 
z
M 3481 434 
Q 3481 -459 3084 -895 
Q 2688 -1331 1869 -1331 
Q 1566 -1331 1297 -1286 
Q 1028 -1241 775 -1147 
L 775 -588 
Q 1028 -725 1275 -790 
Q 1522 -856 1778 -856 
Q 2344 -856 2625 -561 
Q 2906 -266 2906 331 
L 2906 616 
Q 2728 306 2450 153 
Q 2172 0 1784 0 
Q 1141 0 747 490 
Q 353 981 353 1791 
Q 353 2603 747 3093 
Q 1141 3584 1784 3584 
Q 2172 3584 2450 3431 
Q 2728 3278 2906 2969 
L 2906 3500 
L 3481 3500 
L 3481 434 
z
" transform="scale(0.015625)"/>
      <path id="DejaVuSans-70" d="M 1159 525 
L 1159 -1331 
L 581 -1331 
L 581 3500 
L 1159 3500 
L 1159 2969 
Q 1341 3281 1617 3432 
Q 1894 3584 2278 3584 
Q 2916 3584 3314 3078 
Q 3713 2572 3713 1747 
Q 3713 922 3314 415 
Q 2916 -91 2278 -91 
Q 1894 -91 1617 61 
Q 1341 213 1159 525 
z
M 3116 1747 
Q 3116 2381 2855 2742 
Q 2594 3103 2138 3103 
Q 1681 3103 1420 2742 
Q 1159 2381 1159 1747 
Q 1159 1113 1420 752 
Q 1681 391 2138 391 
Q 2594 391 2855 752 
Q 3116 1113 3116 1747 
z
" transform="scale(0.015625)"/>
      <path id="DejaVuSans-53" d="M 3425 4513 
L 3425 3897 
Q 3066 4069 2747 4153 
Q 2428 4238 2131 4238 
Q 1616 4238 1336 4038 
Q 1056 3838 1056 3469 
Q 1056 3159 1242 3001 
Q 1428 2844 1947 2747 
L 2328 2669 
Q 3034 2534 3370 2195 
Q 3706 1856 3706 1288 
Q 3706 609 3251 259 
Q 2797 -91 1919 -91 
Q 1588 -91 1214 -16 
Q 841 59 441 206 
L 441 856 
Q 825 641 1194 531 
Q 1563 422 1919 422 
Q 2459 422 2753 634 
Q 3047 847 3047 1241 
Q 3047 1584 2836 1778 
Q 2625 1972 2144 2069 
L 1759 2144 
Q 1053 2284 737 2584 
Q 422 2884 422 3419 
Q 422 4038 858 4394 
Q 1294 4750 2059 4750 
Q 2388 4750 2728 4690 
Q 3069 4631 3425 4513 
z
" transform="scale(0.015625)"/>
      <path id="DejaVuSans-3b" d="M 750 3309 
L 1409 3309 
L 1409 2516 
L 750 2516 
L 750 3309 
z
M 750 794 
L 1409 794 
L 1409 256 
L 897 -744 
L 494 -744 
L 750 256 
L 750 794 
z
" transform="scale(0.015625)"/>
      <path id="DejaVuSans-64" d="M 2906 2969 
L 2906 4863 
L 3481 4863 
L 3481 0 
L 2906 0 
L 2906 525 
Q 2725 213 2448 61 
Q 2172 -91 1784 -91 
Q 1150 -91 751 415 
Q 353 922 353 1747 
Q 353 2572 751 3078 
Q 1150 3584 1784 3584 
Q 2172 3584 2448 3432 
Q 2725 3281 2906 2969 
z
M 947 1747 
Q 947 1113 1208 752 
Q 1469 391 1925 391 
Q 2381 391 2643 752 
Q 2906 1113 2906 1747 
Q 2906 2381 2643 2742 
Q 2381 3103 1925 3103 
Q 1469 3103 1208 2742 
Q 947 2381 947 1747 
z
" transform="scale(0.015625)"/>
      <path id="DejaVuSans-66" d="M 2375 4863 
L 2375 4384 
L 1825 4384 
Q 1516 4384 1395 4259 
Q 1275 4134 1275 3809 
L 1275 3500 
L 2222 3500 
L 2222 3053 
L 1275 3053 
L 1275 0 
L 697 0 
L 697 3053 
L 147 3053 
L 147 3500 
L 697 3500 
L 697 3744 
Q 697 4328 969 4595 
Q 1241 4863 1831 4863 
L 2375 4863 
z
" transform="scale(0.015625)"/>
      <path id="DejaVuSans-4a" d="M 628 4666 
L 1259 4666 
L 1259 325 
Q 1259 -519 939 -900 
Q 619 -1281 -91 -1281 
L -331 -1281 
L -331 -750 
L -134 -750 
Q 284 -750 456 -515 
Q 628 -281 628 325 
L 628 4666 
z
" transform="scale(0.015625)"/>
      <path id="DejaVuSans-2e" d="M 684 794 
L 1344 794 
L 1344 0 
L 684 0 
L 684 794 
z
" transform="scale(0.015625)"/>
     </defs>
     <use xlink:href="#DejaVuSans-49"/>
     <use xlink:href="#DejaVuSans-20" transform="translate(29.492188 0)"/>
     <use xlink:href="#DejaVuSans-6d" transform="translate(61.279297 0)"/>
     <use xlink:href="#DejaVuSans-6f" transform="translate(158.691406 0)"/>
     <use xlink:href="#DejaVuSans-6d" transform="translate(219.873047 0)"/>
     <use xlink:href="#DejaVuSans-65" transform="translate(317.285156 0)"/>
     <use xlink:href="#DejaVuSans-6e" transform="translate(378.808594 0)"/>
     <use xlink:href="#DejaVuSans-74" transform="translate(442.1875 0)"/>
     <use xlink:href="#DejaVuSans-69" transform="translate(481.396484 0)"/>
     <use xlink:href="#DejaVuSans-20" transform="translate(509.179688 0)"/>
     <use xlink:href="#DejaVuSans-6f" transform="translate(540.966797 0)"/>
     <use xlink:href="#DejaVuSans-72" transform="translate(602.148438 0)"/>
     <use xlink:href="#DejaVuSans-62" transform="translate(643.261719 0)"/>
     <use xlink:href="#DejaVuSans-69" transform="translate(706.738281 0)"/>
     <use xlink:href="#DejaVuSans-74" transform="translate(734.521484 0)"/>
     <use xlink:href="#DejaVuSans-61" transform="translate(773.730469 0)"/>
     <use xlink:href="#DejaVuSans-6c" transform="translate(835.009766 0)"/>
     <use xlink:href="#DejaVuSans-69" transform="translate(862.792969 0)"/>
     <use xlink:href="#DejaVuSans-20" transform="translate(890.576172 0)"/>
     <use xlink:href="#DejaVuSans-73" transform="translate(922.363281 0)"/>
     <use xlink:href="#DejaVuSans-69" transform="translate(974.462891 0)"/>
     <use xlink:href="#DejaVuSans-20" transform="translate(1002.246094 0)"/>
     <use xlink:href="#DejaVuSans-63" transform="translate(1034.033203 0)"/>
     <use xlink:href="#DejaVuSans-6f" transform="translate(1089.013672 0)"/>
     <use xlink:href="#DejaVuSans-6d" transform="translate(1150.195312 0)"/>
     <use xlink:href="#DejaVuSans-62" transform="translate(1247.607422 0)"/>
     <use xlink:href="#DejaVuSans-69" transform="translate(1311.083984 0)"/>
     <use xlink:href="#DejaVuSans-6e" transform="translate(1338.867188 0)"/>
     <use xlink:href="#DejaVuSans-61" transform="translate(1402.246094 0)"/>
     <use xlink:href="#DejaVuSans-6e" transform="translate(1463.525391 0)"/>
     <use xlink:href="#DejaVuSans-6f" transform="translate(1526.904297 0)"/>
     <use xlink:href="#DejaVuSans-20" transform="translate(1588.085938 0)"/>
     <use xlink:href="#DejaVuSans-69" transform="translate(1619.873047 0)"/>
     <use xlink:href="#DejaVuSans-6e" transform="translate(1647.65625 0)"/>
     <use xlink:href="#DejaVuSans-20" transform="translate(1711.035156 0)"/>
     <use xlink:href="#DejaVuSans-4c" transform="translate(1742.822266 0)"/>
     <use xlink:href="#DejaVuSans-74" transform="translate(1798.535156 0)"/>
     <use xlink:href="#DejaVuSans-6f" transform="translate(1837.744141 0)"/>
     <use xlink:href="#DejaVuSans-74" transform="translate(1898.925781 0)"/>
     <use xlink:href="#DejaVuSans-2c" transform="translate(1938.134766 0)"/>
     <use xlink:href="#DejaVuSans-20" transform="translate(1969.921875 0)"/>
     <use xlink:href="#DejaVuSans-67" transform="translate(2001.708984 0)"/>
     <use xlink:href="#DejaVuSans-6c" transform="translate(2065.185547 0)"/>
     <use xlink:href="#DejaVuSans-69" transform="translate(2092.96875 0)"/>
     <use xlink:href="#DejaVuSans-20" transform="translate(2120.751953 0)"/>
     <use xlink:href="#DejaVuSans-73" transform="translate(2152.539062 0)"/>
     <use xlink:href="#DejaVuSans-70" transform="translate(2204.638672 0)"/>
     <use xlink:href="#DejaVuSans-69" transform="translate(2268.115234 0)"/>
     <use xlink:href="#DejaVuSans-6e" transform="translate(2295.898438 0)"/>
     <use xlink:href="#DejaVuSans-20" transform="translate(2359.277344 0)"/>
     <use xlink:href="#DejaVuSans-69" transform="translate(2391.064453 0)"/>
     <use xlink:href="#DejaVuSans-6e" transform="translate(2418.847656 0)"/>
     <use xlink:href="#DejaVuSans-20" transform="translate(2482.226562 0)"/>
     <use xlink:href="#DejaVuSans-53" transform="translate(2514.013672 0)"/>
     <use xlink:href="#DejaVuSans-74" transform="translate(2577.490234 0)"/>
     <use xlink:href="#DejaVuSans-6f" transform="translate(2616.699219 0)"/>
     <use xlink:href="#DejaVuSans-74" transform="translate(2677.880859 0)"/>
     <use xlink:href="#DejaVuSans-3b" transform="translate(2717.089844 0)"/>
     <use xlink:href="#DejaVuSans-20" transform="translate(2750.78125 0)"/>
     <use xlink:href="#DejaVuSans-6c" transform="translate(2782.568359 0)"/>
     <use xlink:href="#DejaVuSans-61" transform="translate(2810.351562 0)"/>
     <use xlink:href="#DejaVuSans-20" transform="translate(2871.630859 0)"/>
     <use xlink:href="#DejaVuSans-6c" transform="translate(2903.417969 0)"/>
     <use xlink:href="#DejaVuSans-6f" transform="translate(2931.201172 0)"/>
     <use xlink:href="#DejaVuSans-72" transform="translate(2992.382812 0)"/>
     <use xlink:href="#DejaVuSans-6f" transform="translate(3031.246094 0)"/>
     <use xlink:href="#DejaVuSans-20" transform="translate(3092.427734 0)"/>
     <use xlink:href="#DejaVuSans-73" transform="translate(3124.214844 0)"/>
     <use xlink:href="#DejaVuSans-6f" transform="translate(3176.314453 0)"/>
     <use xlink:href="#DejaVuSans-6d" transform="translate(3237.496094 0)"/>
     <use xlink:href="#DejaVuSans-6d" transform="translate(3334.908203 0)"/>
     <use xlink:href="#DejaVuSans-61" transform="translate(3432.320312 0)"/>
     <use xlink:href="#DejaVuSans-20" transform="translate(3493.599609 0)"/>
     <use xlink:href="#DejaVuSans-64" transform="translate(3525.386719 0)"/>
     <use xlink:href="#DejaVuSans-65" transform="translate(3588.863281 0)"/>
     <use xlink:href="#DejaVuSans-66" transform="translate(3650.386719 0)"/>
     <use xlink:href="#DejaVuSans-69" transform="translate(3685.591797 0)"/>
     <use xlink:href="#DejaVuSans-6e" transform="translate(3713.375 0)"/>
     <use xlink:href="#DejaVuSans-69" transform="translate(3776.753906 0)"/>
     <use xlink:href="#DejaVuSans-73" transform="translate(3804.537109 0)"/>
     <use xlink:href="#DejaVuSans-63" transform="translate(3856.636719 0)"/>
     <use xlink:href="#DejaVuSans-65" transform="translate(3911.617188 0)"/>
     <use xlink:href="#DejaVuSans-20" transform="translate(3973.140625 0)"/>
     <use xlink:href="#DejaVuSans-69" transform="translate(4004.927734 0)"/>
     <use xlink:href="#DejaVuSans-6c" transform="translate(4032.710938 0)"/>
     <use xlink:href="#DejaVuSans-20" transform="translate(4060.494141 0)"/>
     <use xlink:href="#DejaVuSans-6d" transform="translate(4092.28125 0)"/>
     <use xlink:href="#DejaVuSans-6f" transform="translate(4189.693359 0)"/>
     <use xlink:href="#DejaVuSans-6d" transform="translate(4250.875 0)"/>
     <use xlink:href="#DejaVuSans-65" transform="translate(4348.287109 0)"/>
     <use xlink:href="#DejaVuSans-6e" transform="translate(4409.810547 0)"/>
     <use xlink:href="#DejaVuSans-74" transform="translate(4473.189453 0)"/>
     <use xlink:href="#DejaVuSans-6f" transform="translate(4512.398438 0)"/>
     <use xlink:href="#DejaVuSans-20" transform="translate(4573.580078 0)"/>
     <use xlink:href="#DejaVuSans-61" transform="translate(4605.367188 0)"/>
     <use xlink:href="#DejaVuSans-6e" transform="translate(4666.646484 0)"/>
     <use xlink:href="#DejaVuSans-67" transform="translate(4730.025391 0)"/>
     <use xlink:href="#DejaVuSans-6f" transform="translate(4793.501953 0)"/>
     <use xlink:href="#DejaVuSans-6c" transform="translate(4854.683594 0)"/>
     <use xlink:href="#DejaVuSans-61" transform="translate(4882.466797 0)"/>
     <use xlink:href="#DejaVuSans-72" transform="translate(4943.746094 0)"/>
     <use xlink:href="#DejaVuSans-65" transform="translate(4982.609375 0)"/>
     <use xlink:href="#DejaVuSans-20" transform="translate(5044.132812 0)"/>
     <use xlink:href="#DejaVuSans-74" transform="translate(5075.919922 0)"/>
     <use xlink:href="#DejaVuSans-6f" transform="translate(5115.128906 0)"/>
     <use xlink:href="#DejaVuSans-74" transform="translate(5176.310547 0)"/>
     <use xlink:href="#DejaVuSans-61" transform="translate(5215.519531 0)"/>
     <use xlink:href="#DejaVuSans-6c" transform="translate(5276.798828 0)"/>
     <use xlink:href="#DejaVuSans-65" transform="translate(5304.582031 0)"/>
     <use xlink:href="#DejaVuSans-20" transform="translate(5366.105469 0)"/>
     <use xlink:href="#DejaVuSans-4a" transform="translate(5397.892578 0)"/>
     <use xlink:href="#DejaVuSans-74" transform="translate(5427.384766 0)"/>
     <use xlink:href="#DejaVuSans-6f" transform="translate(5466.59375 0)"/>
     <use xlink:href="#DejaVuSans-74" transform="translate(5527.775391 0)"/>
     <use xlink:href="#DejaVuSans-2e" transform="translate(5566.984375 0)"/>
    </g>
   </g>
   <g id="text_12">
    <!-- Schema di accoppiamento L–S per un sistema a tre elettroni -->
    <g transform="translate(36.869257 18.597656) scale(0.15 -0.15)">
     <defs>
      <path id="DejaVuSans-Bold-64" d="M 2919 2988 
L 2919 4863 
L 4044 4863 
L 4044 0 
L 2919 0 
L 2919 506 
Q 2688 197 2409 53 
Q 2131 -91 1766 -91 
Q 1119 -91 703 423 
Q 288 938 288 1747 
Q 288 2556 703 3070 
Q 1119 3584 1766 3584 
Q 2128 3584 2408 3439 
Q 2688 3294 2919 2988 
z
M 2181 722 
Q 2541 722 2730 984 
Q 2919 1247 2919 1747 
Q 2919 2247 2730 2509 
Q 2541 2772 2181 2772 
Q 1825 2772 1636 2509 
Q 1447 2247 1447 1747 
Q 1447 1247 1636 984 
Q 1825 722 2181 722 
z
" transform="scale(0.015625)"/>
      <path id="DejaVuSans-Bold-70" d="M 1656 506 
L 1656 -1331 
L 538 -1331 
L 538 3500 
L 1656 3500 
L 1656 2988 
Q 1888 3294 2169 3439 
Q 2450 3584 2816 3584 
Q 3463 3584 3878 3070 
Q 4294 2556 4294 1747 
Q 4294 938 3878 423 
Q 3463 -91 2816 -91 
Q 2450 -91 2169 54 
Q 1888 200 1656 506 
z
M 2400 2772 
Q 2041 2772 1848 2508 
Q 1656 2244 1656 1747 
Q 1656 1250 1848 986 
Q 2041 722 2400 722 
Q 2759 722 2948 984 
Q 3138 1247 3138 1747 
Q 3138 2247 2948 2509 
Q 2759 2772 2400 2772 
z
" transform="scale(0.015625)"/>
      <path id="DejaVuSans-Bold-6e" d="M 4056 2131 
L 4056 0 
L 2931 0 
L 2931 347 
L 2931 1631 
Q 2931 2084 2911 2256 
Q 2891 2428 2841 2509 
Q 2775 2619 2662 2680 
Q 2550 2741 2406 2741 
Q 2056 2741 1856 2470 
Q 1656 2200 1656 1722 
L 1656 0 
L 538 0 
L 538 3500 
L 1656 3500 
L 1656 2988 
Q 1909 3294 2193 3439 
Q 2478 3584 2822 3584 
Q 3428 3584 3742 3212 
Q 4056 2841 4056 2131 
z
" transform="scale(0.015625)"/>
      <path id="DejaVuSans-Bold-2013" d="M 344 2156 
L 2856 2156 
L 2856 1350 
L 344 1350 
L 344 2156 
z
" transform="scale(0.015625)"/>
      <path id="DejaVuSans-Bold-75" d="M 500 1363 
L 500 3500 
L 1625 3500 
L 1625 3150 
Q 1625 2866 1622 2436 
Q 1619 2006 1619 1863 
Q 1619 1441 1641 1255 
Q 1663 1069 1716 984 
Q 1784 875 1895 815 
Q 2006 756 2150 756 
Q 2500 756 2700 1025 
Q 2900 1294 2900 1772 
L 2900 3500 
L 4019 3500 
L 4019 0 
L 2900 0 
L 2900 506 
Q 2647 200 2364 54 
Q 2081 -91 1741 -91 
Q 1134 -91 817 281 
Q 500 653 500 1363 
z
" transform="scale(0.015625)"/>
     </defs>
     <use xlink:href="#DejaVuSans-Bold-53"/>
     <use xlink:href="#DejaVuSans-Bold-63" transform="translate(72.021484 0)"/>
     <use xlink:href="#DejaVuSans-Bold-68" transform="translate(131.298828 0)"/>
     <use xlink:href="#DejaVuSans-Bold-65" transform="translate(202.490234 0)"/>
     <use xlink:href="#DejaVuSans-Bold-6d" transform="translate(270.3125 0)"/>
     <use xlink:href="#DejaVuSans-Bold-61" transform="translate(374.511719 0)"/>
     <use xlink:href="#DejaVuSans-Bold-20" transform="translate(441.992188 0)"/>
     <use xlink:href="#DejaVuSans-Bold-64" transform="translate(476.806641 0)"/>
     <use xlink:href="#DejaVuSans-Bold-69" transform="translate(548.388672 0)"/>
     <use xlink:href="#DejaVuSans-Bold-20" transform="translate(582.666016 0)"/>
     <use xlink:href="#DejaVuSans-Bold-61" transform="translate(617.480469 0)"/>
     <use xlink:href="#DejaVuSans-Bold-63" transform="translate(684.960938 0)"/>
     <use xlink:href="#DejaVuSans-Bold-63" transform="translate(744.238281 0)"/>
     <use xlink:href="#DejaVuSans-Bold-6f" transform="translate(803.515625 0)"/>
     <use xlink:href="#DejaVuSans-Bold-70" transform="translate(872.216797 0)"/>
     <use xlink:href="#DejaVuSans-Bold-70" transform="translate(943.798828 0)"/>
     <use xlink:href="#DejaVuSans-Bold-69" transform="translate(1015.380859 0)"/>
     <use xlink:href="#DejaVuSans-Bold-61" transform="translate(1049.658203 0)"/>
     <use xlink:href="#DejaVuSans-Bold-6d" transform="translate(1117.138672 0)"/>
     <use xlink:href="#DejaVuSans-Bold-65" transform="translate(1221.337891 0)"/>
     <use xlink:href="#DejaVuSans-Bold-6e" transform="translate(1289.160156 0)"/>
     <use xlink:href="#DejaVuSans-Bold-74" transform="translate(1360.351562 0)"/>
     <use xlink:href="#DejaVuSans-Bold-6f" transform="translate(1408.154297 0)"/>
     <use xlink:href="#DejaVuSans-Bold-20" transform="translate(1476.855469 0)"/>
     <use xlink:href="#DejaVuSans-Bold-4c" transform="translate(1511.669922 0)"/>
     <use xlink:href="#DejaVuSans-Bold-2013" transform="translate(1575.390625 0)"/>
     <use xlink:href="#DejaVuSans-Bold-53" transform="translate(1625.390625 0)"/>
     <use xlink:href="#DejaVuSans-Bold-20" transform="translate(1697.412109 0)"/>
     <use xlink:href="#DejaVuSans-Bold-70" transform="translate(1732.226562 0)"/>
     <use xlink:href="#DejaVuSans-Bold-65" transform="translate(1803.808594 0)"/>
     <use xlink:href="#DejaVuSans-Bold-72" transform="translate(1871.630859 0)"/>
     <use xlink:href="#DejaVuSans-Bold-20" transform="translate(1920.947266 0)"/>
     <use xlink:href="#DejaVuSans-Bold-75" transform="translate(1955.761719 0)"/>
     <use xlink:href="#DejaVuSans-Bold-6e" transform="translate(2026.953125 0)"/>
     <use xlink:href="#DejaVuSans-Bold-20" transform="translate(2098.144531 0)"/>
     <use xlink:href="#DejaVuSans-Bold-73" transform="translate(2132.958984 0)"/>
     <use xlink:href="#DejaVuSans-Bold-69" transform="translate(2192.480469 0)"/>
     <use xlink:href="#DejaVuSans-Bold-73" transform="translate(2226.757812 0)"/>
     <use xlink:href="#DejaVuSans-Bold-74" transform="translate(2286.279297 0)"/>
     <use xlink:href="#DejaVuSans-Bold-65" transform="translate(2334.082031 0)"/>
     <use xlink:href="#DejaVuSans-Bold-6d" transform="translate(2401.904297 0)"/>
     <use xlink:href="#DejaVuSans-Bold-61" transform="translate(2506.103516 0)"/>
     <use xlink:href="#DejaVuSans-Bold-20" transform="translate(2573.583984 0)"/>
     <use xlink:href="#DejaVuSans-Bold-61" transform="translate(2608.398438 0)"/>
     <use xlink:href="#DejaVuSans-Bold-20" transform="translate(2675.878906 0)"/>
     <use xlink:href="#DejaVuSans-Bold-74" transform="translate(2710.693359 0)"/>
     <use xlink:href="#DejaVuSans-Bold-72" transform="translate(2758.496094 0)"/>
     <use xlink:href="#DejaVuSans-Bold-65" transform="translate(2807.8125 0)"/>
     <use xlink:href="#DejaVuSans-Bold-20" transform="translate(2875.634766 0)"/>
     <use xlink:href="#DejaVuSans-Bold-65" transform="translate(2910.449219 0)"/>
     <use xlink:href="#DejaVuSans-Bold-6c" transform="translate(2978.271484 0)"/>
     <use xlink:href="#DejaVuSans-Bold-65" transform="translate(3012.548828 0)"/>
     <use xlink:href="#DejaVuSans-Bold-74" transform="translate(3080.371094 0)"/>
     <use xlink:href="#DejaVuSans-Bold-74" transform="translate(3128.173828 0)"/>
     <use xlink:href="#DejaVuSans-Bold-72" transform="translate(3175.976562 0)"/>
     <use xlink:href="#DejaVuSans-Bold-6f" transform="translate(3225.292969 0)"/>
     <use xlink:href="#DejaVuSans-Bold-6e" transform="translate(3293.994141 0)"/>
     <use xlink:href="#DejaVuSans-Bold-69" transform="translate(3365.185547 0)"/>
    </g>
   </g>
  </g>
 </g>
 <defs>
  <clipPath id="p352da19305">
   <rect x="82.88167" y="30.597656" width="417.893143" height="460.152"/>
  </clipPath>
 </defs>
</svg>
