<?xml version="1.0" encoding="utf-8" standalone="no"?>
<!DOCTYPE svg PUBLIC "-//W3C//DTD SVG 1.1//EN"
  "http://www.w3.org/Graphics/SVG/1.1/DTD/svg11.dtd">
<svg xmlns:xlink="http://www.w3.org/1999/xlink" width="537.157031pt" height="490.813656pt" viewBox="0 0 537.157031 490.813656" xmlns="http://www.w3.org/2000/svg" version="1.1">
 <metadata>
  <rdf:RDF xmlns:dc="http://purl.org/dc/elements/1.1/" xmlns:cc="http://creativecommons.org/ns#" xmlns:rdf="http://www.w3.org/1999/02/22-rdf-syntax-ns#">
   <cc:Work>
    <dc:type rdf:resource="http://purl.org/dc/dcmitype/StillImage"/>
    <dc:date>2026-06-16T10:26:56.841962</dc:date>
    <dc:format>image/svg+xml</dc:format>
    <dc:creator>
     <cc:Agent>
      <dc:title>Matplotlib v3.10.8, https://matplotlib.org/</dc:title>
     </cc:Agent>
    </dc:creator>
   </cc:Work>
  </rdf:RDF>
 </metadata>
 <defs>
  <style type="text/css">*{stroke-linejoin: round; stroke-linecap: butt}</style>
 </defs>
 <g id="figure_1">
  <g id="patch_1">
   <path d="M 0 490.813656 
L 537.157031 490.813656 
L 537.157031 0 
L 0 0 
z
" style="fill: #ffffff"/>
  </g>
  <g id="axes_1">
   <g id="patch_2">
    <path d="M 273.556999 325.067845 
C 319.273577 317.006779 362.02295 303.031123 392.390065 286.218854 
C 422.75718 269.406584 438.262697 251.130348 435.491706 235.415275 
C 432.720714 219.700201 411.899454 207.829356 377.613565 202.417156 
C 343.327676 197.004955 298.37645 198.493281 252.659872 206.554347 
C 206.943294 214.615413 164.193921 228.591069 133.826806 245.403339 
C 103.459691 262.215608 87.954174 280.491844 90.725165 296.206918 
C 93.496157 311.921991 114.317418 323.792836 148.603307 329.205037 
C 182.889195 334.617238 227.840422 333.128911 273.556999 325.067845 
z
" clip-path="url(#p81bf053d1d)" style="fill: #1f77b4; opacity: 0.12; stroke-dasharray: 4.44,1.92; stroke-dashoffset: 0"/>
   </g>
   <g id="patch_3">
    <path d="M 219.038972 293.348754 
C 241.33256 329.025953 267.359499 360.345168 291.387657 380.408706 
C 315.415815 400.472244 335.483399 407.642005 347.170758 400.338933 
C 358.858116 393.035861 361.211028 371.856219 353.71129 341.464578 
C 346.211553 311.072936 329.471488 273.950638 307.177899 238.273439 
C 284.884311 202.59624 258.857372 171.277024 234.829214 151.213486 
C 210.801056 131.149948 190.733472 123.980187 179.046113 131.283259 
C 167.358755 138.586331 165.005844 159.765973 172.505581 190.157615 
C 180.005318 220.549256 196.745383 257.671554 219.038972 293.348754 
z
" clip-path="url(#p81bf053d1d)" style="fill: #1f77b4; opacity: 0.12; stroke-dasharray: 4.44,1.92; stroke-dashoffset: 0"/>
   </g>
   <g id="patch_4">
    <path d="M 263.108436 277.845272 
C 266.299936 277.845272 269.361151 276.577276 271.617883 274.320544 
C 273.874615 272.063812 275.142612 269.002597 275.142612 265.811096 
C 275.142612 262.619595 273.874615 259.558381 271.617883 257.301649 
C 269.361151 255.044917 266.299936 253.77692 263.108436 253.77692 
C 259.916935 253.77692 256.85572 255.044917 254.598988 257.301649 
C 252.342256 259.558381 251.07426 262.619595 251.07426 265.811096 
C 251.07426 269.002597 252.342256 272.063812 254.598988 274.320544 
C 256.85572 276.577276 259.916935 277.845272 263.108436 277.845272 
z
" clip-path="url(#p81bf053d1d)" style="fill: #1f77b4; opacity: 0.75"/>
   </g>
   <g id="patch_5">
    <path d="M 134.561556 261.98204 
C 136.447442 261.98204 138.256342 261.232769 139.589865 259.899246 
C 140.923389 258.565723 141.67266 256.756823 141.67266 254.870936 
C 141.67266 252.985049 140.923389 251.17615 139.589865 249.842626 
C 138.256342 248.509103 136.447442 247.759832 134.561556 247.759832 
C 132.675669 247.759832 130.866769 248.509103 129.533246 249.842626 
C 128.199722 251.17615 127.450452 252.985049 127.450452 254.870936 
C 127.450452 256.756823 128.199722 258.565723 129.533246 259.899246 
C 130.866769 261.232769 132.675669 261.98204 134.561556 261.98204 
z
" clip-path="url(#p81bf053d1d)" style="fill: #1f77b4"/>
   </g>
   <g id="patch_6">
    <path d="M 382.35618 241.195736 
C 384.242066 241.195736 386.050966 240.446465 387.384489 239.112942 
C 388.718013 237.779419 389.467284 235.970519 389.467284 234.084632 
C 389.467284 232.198745 388.718013 230.389846 387.384489 229.056322 
C 386.050966 227.722799 384.242066 226.973528 382.35618 226.973528 
C 380.470293 226.973528 378.661393 227.722799 377.32787 229.056322 
C 375.994346 230.389846 375.245076 232.198745 375.245076 234.084632 
C 375.245076 235.970519 375.994346 237.779419 377.32787 239.112942 
C 378.661393 240.446465 380.470293 241.195736 382.35618 241.195736 
z
" clip-path="url(#p81bf053d1d)" style="fill: #1f77b4"/>
   </g>
   <g id="patch_7">
    <path d="M 204.167196 228.678476 
Q 218.026423 211.623143 238.325922 216.88095 
" clip-path="url(#p81bf053d1d)" style="fill: none; stroke: #000000; stroke-width: 0.9; stroke-linecap: round"/>
    <path d="M 234.955177 213.941889 
L 238.325922 216.88095 
L 233.952226 217.81411 
z
" clip-path="url(#p81bf053d1d)" style="fill: #1f77b4; stroke: #000000; stroke-width: 0.9; stroke-linecap: round"/>
   </g>
   <g id="patch_8">
    <path d="M 204.167196 228.678476 
Q 218.026423 211.623143 238.325922 216.88095 
" clip-path="url(#p81bf053d1d)" style="fill: none; stroke: #000000; stroke-width: 0.9; stroke-linecap: round"/>
    <path d="M 234.955177 213.941889 
L 238.325922 216.88095 
L 233.952226 217.81411 
z
" clip-path="url(#p81bf053d1d)" style="fill: #1f77b4; stroke: #000000; stroke-width: 0.9; stroke-linecap: round"/>
   </g>
   <g id="text_1">
    <!-- $+Ze$ -->
    <g transform="translate(250.268436 292.06748) scale(0.12 -0.12)">
     <defs>
      <path id="DejaVuSans-2b" d="M 2944 4013 
L 2944 2272 
L 4684 2272 
L 4684 1741 
L 2944 1741 
L 2944 0 
L 2419 0 
L 2419 1741 
L 678 1741 
L 678 2272 
L 2419 2272 
L 2419 4013 
L 2944 4013 
z
" transform="scale(0.015625)"/>
      <path id="DejaVuSans-Oblique-5a" d="M 838 4666 
L 4500 4666 
L 4409 4184 
L 794 531 
L 3769 531 
L 3669 0 
L -141 0 
L -50 481 
L 3566 4134 
L 738 4134 
L 838 4666 
z
" transform="scale(0.015625)"/>
      <path id="DejaVuSans-Oblique-65" d="M 3078 2063 
Q 3088 2113 3092 2166 
Q 3097 2219 3097 2272 
Q 3097 2653 2873 2875 
Q 2650 3097 2266 3097 
Q 1838 3097 1509 2826 
Q 1181 2556 1013 2059 
L 3078 2063 
z
M 3578 1613 
L 903 1613 
Q 884 1494 878 1425 
Q 872 1356 872 1306 
Q 872 872 1139 634 
Q 1406 397 1894 397 
Q 2269 397 2603 481 
Q 2938 566 3225 728 
L 3116 159 
Q 2806 34 2476 -28 
Q 2147 -91 1806 -91 
Q 1078 -91 686 257 
Q 294 606 294 1247 
Q 294 1794 489 2264 
Q 684 2734 1063 3103 
Q 1306 3334 1642 3459 
Q 1978 3584 2356 3584 
Q 2950 3584 3301 3228 
Q 3653 2872 3653 2272 
Q 3653 2128 3634 1964 
Q 3616 1800 3578 1613 
z
" transform="scale(0.015625)"/>
     </defs>
     <use xlink:href="#DejaVuSans-2b" transform="translate(0 0.09375)"/>
     <use xlink:href="#DejaVuSans-Oblique-5a" transform="translate(83.789062 0.09375)"/>
     <use xlink:href="#DejaVuSans-Oblique-65" transform="translate(152.294922 0.09375)"/>
    </g>
   </g>
   <g id="text_2">
    <!-- $-e_1$ -->
    <g transform="translate(124.911556 235.178648) scale(0.1 -0.1)">
     <defs>
      <path id="DejaVuSans-2212" d="M 678 2272 
L 4684 2272 
L 4684 1741 
L 678 1741 
L 678 2272 
z
" transform="scale(0.015625)"/>
      <path id="DejaVuSans-31" d="M 794 531 
L 1825 531 
L 1825 4091 
L 703 3866 
L 703 4441 
L 1819 4666 
L 2450 4666 
L 2450 531 
L 3481 531 
L 3481 0 
L 794 0 
L 794 531 
z
" transform="scale(0.015625)"/>
     </defs>
     <use xlink:href="#DejaVuSans-2212"/>
     <use xlink:href="#DejaVuSans-Oblique-65" transform="translate(83.789062 0)"/>
     <use xlink:href="#DejaVuSans-31" transform="translate(145.3125 -16.40625) scale(0.7)"/>
    </g>
   </g>
   <g id="text_3">
    <!-- $-e_2$ -->
    <g transform="translate(372.70618 214.392344) scale(0.1 -0.1)">
     <defs>
      <path id="DejaVuSans-32" d="M 1228 531 
L 3431 531 
L 3431 0 
L 469 0 
L 469 531 
Q 828 903 1448 1529 
Q 2069 2156 2228 2338 
Q 2531 2678 2651 2914 
Q 2772 3150 2772 3378 
Q 2772 3750 2511 3984 
Q 2250 4219 1831 4219 
Q 1534 4219 1204 4116 
Q 875 4013 500 3803 
L 500 4441 
Q 881 4594 1212 4672 
Q 1544 4750 1819 4750 
Q 2544 4750 2975 4387 
Q 3406 4025 3406 3419 
Q 3406 3131 3298 2873 
Q 3191 2616 2906 2266 
Q 2828 2175 2409 1742 
Q 1991 1309 1228 531 
z
" transform="scale(0.015625)"/>
     </defs>
     <use xlink:href="#DejaVuSans-2212"/>
     <use xlink:href="#DejaVuSans-Oblique-65" transform="translate(83.789062 0)"/>
     <use xlink:href="#DejaVuSans-32" transform="translate(145.3125 -16.40625) scale(0.7)"/>
    </g>
   </g>
   <g id="patch_9">
    <path d="M 263.827293 263.942066 
Q 297.297117 176.920524 329.883969 92.194708 
" style="fill: none; stroke: #000000; stroke-width: 2.2; stroke-linecap: round"/>
    <path d="M 325.59058 96.11476 
L 329.883969 92.194708 
L 330.443977 97.981451 
z
" style="fill: #1f77b4; stroke: #000000; stroke-width: 2.2; stroke-linecap: round"/>
   </g>
   <g id="text_4">
    <!-- $\mathbf{M}_{L_1}$ -->
    <g transform="translate(303.81266 174.796232) scale(0.1 -0.1)">
     <defs>
      <path id="DejaVuSans-Bold-4d" d="M 588 4666 
L 2119 4666 
L 3181 2169 
L 4250 4666 
L 5778 4666 
L 5778 0 
L 4641 0 
L 4641 3413 
L 3566 897 
L 2803 897 
L 1728 3413 
L 1728 0 
L 588 0 
L 588 4666 
z
" transform="scale(0.015625)"/>
      <path id="DejaVuSans-Oblique-4c" d="M 1075 4666 
L 1709 4666 
L 909 525 
L 3181 525 
L 3078 0 
L 172 0 
L 1075 4666 
z
" transform="scale(0.015625)"/>
     </defs>
     <use xlink:href="#DejaVuSans-Bold-4d" transform="translate(0 0.09375)"/>
     <use xlink:href="#DejaVuSans-Oblique-4c" transform="translate(100.46875 -16.3125) scale(0.7)"/>
     <use xlink:href="#DejaVuSans-31" transform="translate(139.467773 -27.796875) scale(0.49)"/>
    </g>
   </g>
   <g id="patch_10">
    <path d="M 262.474171 263.914522 
Q 235.210789 182.391664 208.727519 103.201491 
" style="fill: none; stroke: #000000; stroke-width: 2.2; stroke-linecap: round"/>
    <path d="M 207.910986 108.957642 
L 208.727519 103.201491 
L 212.84252 107.308408 
z
" style="fill: #1f77b4; stroke: #000000; stroke-width: 2.2; stroke-linecap: round"/>
   </g>
   <g id="text_5">
    <!-- $\mathbf{M}_{L_2}$ -->
    <g transform="translate(210.000788 180.266312) scale(0.1 -0.1)">
     <use xlink:href="#DejaVuSans-Bold-4d" transform="translate(0 0.09375)"/>
     <use xlink:href="#DejaVuSans-Oblique-4c" transform="translate(100.46875 -16.3125) scale(0.7)"/>
     <use xlink:href="#DejaVuSans-32" transform="translate(139.467773 -27.796875) scale(0.49)"/>
    </g>
   </g>
   <g id="patch_11">
    <path d="M 133.847915 252.999611 
Q 122.253743 222.597116 111.456337 194.283918 
" style="fill: none; stroke: #000000; stroke-width: 2; stroke-linecap: round"/>
    <path d="M 110.879883 200.069046 
L 111.456337 194.283918 
L 115.738567 198.216158 
z
" style="fill: #1f77b4; stroke: #000000; stroke-width: 2; stroke-linecap: round"/>
   </g>
   <g id="text_6">
    <!-- $\mathbf{M}_{S_1}$ -->
    <g transform="translate(91.323556 223.20644) scale(0.1 -0.1)">
     <defs>
      <path id="DejaVuSans-Oblique-53" d="M 3859 4513 
L 3738 3897 
Q 3422 4066 3111 4152 
Q 2800 4238 2509 4238 
Q 1944 4238 1609 3991 
Q 1275 3744 1275 3334 
Q 1275 3109 1398 2989 
Q 1522 2869 2034 2731 
L 2413 2638 
Q 3053 2472 3303 2217 
Q 3553 1963 3553 1503 
Q 3553 797 2998 353 
Q 2444 -91 1538 -91 
Q 1166 -91 791 -17 
Q 416 56 38 206 
L 166 856 
Q 513 641 861 531 
Q 1209 422 1556 422 
Q 2147 422 2503 684 
Q 2859 947 2859 1369 
Q 2859 1650 2717 1795 
Q 2575 1941 2106 2059 
L 1728 2156 
Q 1081 2325 845 2545 
Q 609 2766 609 3163 
Q 609 3859 1145 4304 
Q 1681 4750 2541 4750 
Q 2875 4750 3203 4690 
Q 3531 4631 3859 4513 
z
" transform="scale(0.015625)"/>
     </defs>
     <use xlink:href="#DejaVuSans-Bold-4d" transform="translate(0 0.09375)"/>
     <use xlink:href="#DejaVuSans-Oblique-53" transform="translate(100.46875 -16.3125) scale(0.7)"/>
     <use xlink:href="#DejaVuSans-31" transform="translate(144.902344 -27.796875) scale(0.49)"/>
    </g>
   </g>
   <g id="patch_12">
    <path d="M 382.35618 232.084267 
Q 382.35618 202.633324 382.35618 175.418448 
" style="fill: none; stroke: #000000; stroke-width: 2; stroke-linecap: round"/>
    <path d="M 379.75618 180.618448 
L 382.35618 175.418448 
L 384.95618 180.618448 
z
" style="fill: #1f77b4; stroke: #000000; stroke-width: 2; stroke-linecap: round"/>
   </g>
   <g id="text_7">
    <!-- $\mathbf{M}_{S_2}$ -->
    <g transform="translate(394.092484 203.787656) scale(0.1 -0.1)">
     <use xlink:href="#DejaVuSans-Bold-4d" transform="translate(0 0.09375)"/>
     <use xlink:href="#DejaVuSans-Oblique-53" transform="translate(100.46875 -16.3125) scale(0.7)"/>
     <use xlink:href="#DejaVuSans-32" transform="translate(144.902344 -27.796875) scale(0.49)"/>
    </g>
   </g>
   <g id="text_8">
    <!-- Due elettroni nel sottoguscio esterno incompleto di un atomo -->
    <g transform="translate(7.2 18.597656) scale(0.15 -0.15)">
     <defs>
      <path id="DejaVuSans-Bold-44" d="M 1791 3756 
L 1791 909 
L 2222 909 
Q 2959 909 3348 1275 
Q 3738 1641 3738 2338 
Q 3738 3031 3350 3393 
Q 2963 3756 2222 3756 
L 1791 3756 
z
M 588 4666 
L 1856 4666 
Q 2919 4666 3439 4514 
Q 3959 4363 4331 4000 
Q 4659 3684 4818 3271 
Q 4978 2859 4978 2338 
Q 4978 1809 4818 1395 
Q 4659 981 4331 666 
Q 3956 303 3431 151 
Q 2906 0 1856 0 
L 588 0 
L 588 4666 
z
" transform="scale(0.015625)"/>
      <path id="DejaVuSans-Bold-75" d="M 500 1363 
L 500 3500 
L 1625 3500 
L 1625 3150 
Q 1625 2866 1622 2436 
Q 1619 2006 1619 1863 
Q 1619 1441 1641 1255 
Q 1663 1069 1716 984 
Q 1784 875 1895 815 
Q 2006 756 2150 756 
Q 2500 756 2700 1025 
Q 2900 1294 2900 1772 
L 2900 3500 
L 4019 3500 
L 4019 0 
L 2900 0 
L 2900 506 
Q 2647 200 2364 54 
Q 2081 -91 1741 -91 
Q 1134 -91 817 281 
Q 500 653 500 1363 
z
" transform="scale(0.015625)"/>
      <path id="DejaVuSans-Bold-65" d="M 4031 1759 
L 4031 1441 
L 1416 1441 
Q 1456 1047 1700 850 
Q 1944 653 2381 653 
Q 2734 653 3104 758 
Q 3475 863 3866 1075 
L 3866 213 
Q 3469 63 3072 -14 
Q 2675 -91 2278 -91 
Q 1328 -91 801 392 
Q 275 875 275 1747 
Q 275 2603 792 3093 
Q 1309 3584 2216 3584 
Q 3041 3584 3536 3087 
Q 4031 2591 4031 1759 
z
M 2881 2131 
Q 2881 2450 2695 2645 
Q 2509 2841 2209 2841 
Q 1884 2841 1681 2658 
Q 1478 2475 1428 2131 
L 2881 2131 
z
" transform="scale(0.015625)"/>
      <path id="DejaVuSans-Bold-20" transform="scale(0.015625)"/>
      <path id="DejaVuSans-Bold-6c" d="M 538 4863 
L 1656 4863 
L 1656 0 
L 538 0 
L 538 4863 
z
" transform="scale(0.015625)"/>
      <path id="DejaVuSans-Bold-74" d="M 1759 4494 
L 1759 3500 
L 2913 3500 
L 2913 2700 
L 1759 2700 
L 1759 1216 
Q 1759 972 1856 886 
Q 1953 800 2241 800 
L 2816 800 
L 2816 0 
L 1856 0 
Q 1194 0 917 276 
Q 641 553 641 1216 
L 641 2700 
L 84 2700 
L 84 3500 
L 641 3500 
L 641 4494 
L 1759 4494 
z
" transform="scale(0.015625)"/>
      <path id="DejaVuSans-Bold-72" d="M 3138 2547 
Q 2991 2616 2845 2648 
Q 2700 2681 2553 2681 
Q 2122 2681 1889 2404 
Q 1656 2128 1656 1613 
L 1656 0 
L 538 0 
L 538 3500 
L 1656 3500 
L 1656 2925 
Q 1872 3269 2151 3426 
Q 2431 3584 2822 3584 
Q 2878 3584 2943 3579 
Q 3009 3575 3134 3559 
L 3138 2547 
z
" transform="scale(0.015625)"/>
      <path id="DejaVuSans-Bold-6f" d="M 2203 2784 
Q 1831 2784 1636 2517 
Q 1441 2250 1441 1747 
Q 1441 1244 1636 976 
Q 1831 709 2203 709 
Q 2569 709 2762 976 
Q 2956 1244 2956 1747 
Q 2956 2250 2762 2517 
Q 2569 2784 2203 2784 
z
M 2203 3584 
Q 3106 3584 3614 3096 
Q 4122 2609 4122 1747 
Q 4122 884 3614 396 
Q 3106 -91 2203 -91 
Q 1297 -91 786 396 
Q 275 884 275 1747 
Q 275 2609 786 3096 
Q 1297 3584 2203 3584 
z
" transform="scale(0.015625)"/>
      <path id="DejaVuSans-Bold-6e" d="M 4056 2131 
L 4056 0 
L 2931 0 
L 2931 347 
L 2931 1631 
Q 2931 2084 2911 2256 
Q 2891 2428 2841 2509 
Q 2775 2619 2662 2680 
Q 2550 2741 2406 2741 
Q 2056 2741 1856 2470 
Q 1656 2200 1656 1722 
L 1656 0 
L 538 0 
L 538 3500 
L 1656 3500 
L 1656 2988 
Q 1909 3294 2193 3439 
Q 2478 3584 2822 3584 
Q 3428 3584 3742 3212 
Q 4056 2841 4056 2131 
z
" transform="scale(0.015625)"/>
      <path id="DejaVuSans-Bold-69" d="M 538 3500 
L 1656 3500 
L 1656 0 
L 538 0 
L 538 3500 
z
M 538 4863 
L 1656 4863 
L 1656 3950 
L 538 3950 
L 538 4863 
z
" transform="scale(0.015625)"/>
      <path id="DejaVuSans-Bold-73" d="M 3272 3391 
L 3272 2541 
Q 2913 2691 2578 2766 
Q 2244 2841 1947 2841 
Q 1628 2841 1473 2761 
Q 1319 2681 1319 2516 
Q 1319 2381 1436 2309 
Q 1553 2238 1856 2203 
L 2053 2175 
Q 2913 2066 3209 1816 
Q 3506 1566 3506 1031 
Q 3506 472 3093 190 
Q 2681 -91 1863 -91 
Q 1516 -91 1145 -36 
Q 775 19 384 128 
L 384 978 
Q 719 816 1070 734 
Q 1422 653 1784 653 
Q 2113 653 2278 743 
Q 2444 834 2444 1013 
Q 2444 1163 2330 1236 
Q 2216 1309 1875 1350 
L 1678 1375 
Q 931 1469 631 1722 
Q 331 1975 331 2491 
Q 331 3047 712 3315 
Q 1094 3584 1881 3584 
Q 2191 3584 2531 3537 
Q 2872 3491 3272 3391 
z
" transform="scale(0.015625)"/>
      <path id="DejaVuSans-Bold-67" d="M 2919 594 
Q 2688 288 2409 144 
Q 2131 0 1766 0 
Q 1125 0 706 504 
Q 288 1009 288 1791 
Q 288 2575 706 3076 
Q 1125 3578 1766 3578 
Q 2131 3578 2409 3434 
Q 2688 3291 2919 2981 
L 2919 3500 
L 4044 3500 
L 4044 353 
Q 4044 -491 3511 -936 
Q 2978 -1381 1966 -1381 
Q 1638 -1381 1331 -1331 
Q 1025 -1281 716 -1178 
L 716 -306 
Q 1009 -475 1290 -558 
Q 1572 -641 1856 -641 
Q 2406 -641 2662 -400 
Q 2919 -159 2919 353 
L 2919 594 
z
M 2181 2772 
Q 1834 2772 1640 2515 
Q 1447 2259 1447 1791 
Q 1447 1309 1634 1061 
Q 1822 813 2181 813 
Q 2531 813 2725 1069 
Q 2919 1325 2919 1791 
Q 2919 2259 2725 2515 
Q 2531 2772 2181 2772 
z
" transform="scale(0.015625)"/>
      <path id="DejaVuSans-Bold-63" d="M 3366 3391 
L 3366 2478 
Q 3138 2634 2908 2709 
Q 2678 2784 2431 2784 
Q 1963 2784 1702 2511 
Q 1441 2238 1441 1747 
Q 1441 1256 1702 982 
Q 1963 709 2431 709 
Q 2694 709 2930 787 
Q 3166 866 3366 1019 
L 3366 103 
Q 3103 6 2833 -42 
Q 2563 -91 2291 -91 
Q 1344 -91 809 395 
Q 275 881 275 1747 
Q 275 2613 809 3098 
Q 1344 3584 2291 3584 
Q 2566 3584 2833 3536 
Q 3100 3488 3366 3391 
z
" transform="scale(0.015625)"/>
      <path id="DejaVuSans-Bold-6d" d="M 3781 2919 
Q 3994 3244 4286 3414 
Q 4578 3584 4928 3584 
Q 5531 3584 5847 3212 
Q 6163 2841 6163 2131 
L 6163 0 
L 5038 0 
L 5038 1825 
Q 5041 1866 5042 1909 
Q 5044 1953 5044 2034 
Q 5044 2406 4934 2573 
Q 4825 2741 4581 2741 
Q 4263 2741 4089 2478 
Q 3916 2216 3909 1719 
L 3909 0 
L 2784 0 
L 2784 1825 
Q 2784 2406 2684 2573 
Q 2584 2741 2328 2741 
Q 2006 2741 1831 2477 
Q 1656 2213 1656 1722 
L 1656 0 
L 531 0 
L 531 3500 
L 1656 3500 
L 1656 2988 
Q 1863 3284 2130 3434 
Q 2397 3584 2719 3584 
Q 3081 3584 3359 3409 
Q 3638 3234 3781 2919 
z
" transform="scale(0.015625)"/>
      <path id="DejaVuSans-Bold-70" d="M 1656 506 
L 1656 -1331 
L 538 -1331 
L 538 3500 
L 1656 3500 
L 1656 2988 
Q 1888 3294 2169 3439 
Q 2450 3584 2816 3584 
Q 3463 3584 3878 3070 
Q 4294 2556 4294 1747 
Q 4294 938 3878 423 
Q 3463 -91 2816 -91 
Q 2450 -91 2169 54 
Q 1888 200 1656 506 
z
M 2400 2772 
Q 2041 2772 1848 2508 
Q 1656 2244 1656 1747 
Q 1656 1250 1848 986 
Q 2041 722 2400 722 
Q 2759 722 2948 984 
Q 3138 1247 3138 1747 
Q 3138 2247 2948 2509 
Q 2759 2772 2400 2772 
z
" transform="scale(0.015625)"/>
      <path id="DejaVuSans-Bold-64" d="M 2919 2988 
L 2919 4863 
L 4044 4863 
L 4044 0 
L 2919 0 
L 2919 506 
Q 2688 197 2409 53 
Q 2131 -91 1766 -91 
Q 1119 -91 703 423 
Q 288 938 288 1747 
Q 288 2556 703 3070 
Q 1119 3584 1766 3584 
Q 2128 3584 2408 3439 
Q 2688 3294 2919 2988 
z
M 2181 722 
Q 2541 722 2730 984 
Q 2919 1247 2919 1747 
Q 2919 2247 2730 2509 
Q 2541 2772 2181 2772 
Q 1825 2772 1636 2509 
Q 1447 2247 1447 1747 
Q 1447 1247 1636 984 
Q 1825 722 2181 722 
z
" transform="scale(0.015625)"/>
      <path id="DejaVuSans-Bold-61" d="M 2106 1575 
Q 1756 1575 1579 1456 
Q 1403 1338 1403 1106 
Q 1403 894 1545 773 
Q 1688 653 1941 653 
Q 2256 653 2472 879 
Q 2688 1106 2688 1447 
L 2688 1575 
L 2106 1575 
z
M 3816 1997 
L 3816 0 
L 2688 0 
L 2688 519 
Q 2463 200 2181 54 
Q 1900 -91 1497 -91 
Q 953 -91 614 226 
Q 275 544 275 1050 
Q 275 1666 698 1953 
Q 1122 2241 2028 2241 
L 2688 2241 
L 2688 2328 
Q 2688 2594 2478 2717 
Q 2269 2841 1825 2841 
Q 1466 2841 1156 2769 
Q 847 2697 581 2553 
L 581 3406 
Q 941 3494 1303 3539 
Q 1666 3584 2028 3584 
Q 2975 3584 3395 3211 
Q 3816 2838 3816 1997 
z
" transform="scale(0.015625)"/>
     </defs>
     <use xlink:href="#DejaVuSans-Bold-44"/>
     <use xlink:href="#DejaVuSans-Bold-75" transform="translate(83.007812 0)"/>
     <use xlink:href="#DejaVuSans-Bold-65" transform="translate(154.199219 0)"/>
     <use xlink:href="#DejaVuSans-Bold-20" transform="translate(222.021484 0)"/>
     <use xlink:href="#DejaVuSans-Bold-65" transform="translate(256.835938 0)"/>
     <use xlink:href="#DejaVuSans-Bold-6c" transform="translate(324.658203 0)"/>
     <use xlink:href="#DejaVuSans-Bold-65" transform="translate(358.935547 0)"/>
     <use xlink:href="#DejaVuSans-Bold-74" transform="translate(426.757812 0)"/>
     <use xlink:href="#DejaVuSans-Bold-74" transform="translate(474.560547 0)"/>
     <use xlink:href="#DejaVuSans-Bold-72" transform="translate(522.363281 0)"/>
     <use xlink:href="#DejaVuSans-Bold-6f" transform="translate(571.679688 0)"/>
     <use xlink:href="#DejaVuSans-Bold-6e" transform="translate(640.380859 0)"/>
     <use xlink:href="#DejaVuSans-Bold-69" transform="translate(711.572266 0)"/>
     <use xlink:href="#DejaVuSans-Bold-20" transform="translate(745.849609 0)"/>
     <use xlink:href="#DejaVuSans-Bold-6e" transform="translate(780.664062 0)"/>
     <use xlink:href="#DejaVuSans-Bold-65" transform="translate(851.855469 0)"/>
     <use xlink:href="#DejaVuSans-Bold-6c" transform="translate(919.677734 0)"/>
     <use xlink:href="#DejaVuSans-Bold-20" transform="translate(953.955078 0)"/>
     <use xlink:href="#DejaVuSans-Bold-73" transform="translate(988.769531 0)"/>
     <use xlink:href="#DejaVuSans-Bold-6f" transform="translate(1048.291016 0)"/>
     <use xlink:href="#DejaVuSans-Bold-74" transform="translate(1116.992188 0)"/>
     <use xlink:href="#DejaVuSans-Bold-74" transform="translate(1164.794922 0)"/>
     <use xlink:href="#DejaVuSans-Bold-6f" transform="translate(1212.597656 0)"/>
     <use xlink:href="#DejaVuSans-Bold-67" transform="translate(1281.298828 0)"/>
     <use xlink:href="#DejaVuSans-Bold-75" transform="translate(1352.880859 0)"/>
     <use xlink:href="#DejaVuSans-Bold-73" transform="translate(1424.072266 0)"/>
     <use xlink:href="#DejaVuSans-Bold-63" transform="translate(1483.59375 0)"/>
     <use xlink:href="#DejaVuSans-Bold-69" transform="translate(1542.871094 0)"/>
     <use xlink:href="#DejaVuSans-Bold-6f" transform="translate(1577.148438 0)"/>
     <use xlink:href="#DejaVuSans-Bold-20" transform="translate(1645.849609 0)"/>
     <use xlink:href="#DejaVuSans-Bold-65" transform="translate(1680.664062 0)"/>
     <use xlink:href="#DejaVuSans-Bold-73" transform="translate(1748.486328 0)"/>
     <use xlink:href="#DejaVuSans-Bold-74" transform="translate(1808.007812 0)"/>
     <use xlink:href="#DejaVuSans-Bold-65" transform="translate(1855.810547 0)"/>
     <use xlink:href="#DejaVuSans-Bold-72" transform="translate(1923.632812 0)"/>
     <use xlink:href="#DejaVuSans-Bold-6e" transform="translate(1972.949219 0)"/>
     <use xlink:href="#DejaVuSans-Bold-6f" transform="translate(2044.140625 0)"/>
     <use xlink:href="#DejaVuSans-Bold-20" transform="translate(2112.841797 0)"/>
     <use xlink:href="#DejaVuSans-Bold-69" transform="translate(2147.65625 0)"/>
     <use xlink:href="#DejaVuSans-Bold-6e" transform="translate(2181.933594 0)"/>
     <use xlink:href="#DejaVuSans-Bold-63" transform="translate(2253.125 0)"/>
     <use xlink:href="#DejaVuSans-Bold-6f" transform="translate(2312.402344 0)"/>
     <use xlink:href="#DejaVuSans-Bold-6d" transform="translate(2381.103516 0)"/>
     <use xlink:href="#DejaVuSans-Bold-70" transform="translate(2485.302734 0)"/>
     <use xlink:href="#DejaVuSans-Bold-6c" transform="translate(2556.884766 0)"/>
     <use xlink:href="#DejaVuSans-Bold-65" transform="translate(2591.162109 0)"/>
     <use xlink:href="#DejaVuSans-Bold-74" transform="translate(2658.984375 0)"/>
     <use xlink:href="#DejaVuSans-Bold-6f" transform="translate(2706.787109 0)"/>
     <use xlink:href="#DejaVuSans-Bold-20" transform="translate(2775.488281 0)"/>
     <use xlink:href="#DejaVuSans-Bold-64" transform="translate(2810.302734 0)"/>
     <use xlink:href="#DejaVuSans-Bold-69" transform="translate(2881.884766 0)"/>
     <use xlink:href="#DejaVuSans-Bold-20" transform="translate(2916.162109 0)"/>
     <use xlink:href="#DejaVuSans-Bold-75" transform="translate(2950.976562 0)"/>
     <use xlink:href="#DejaVuSans-Bold-6e" transform="translate(3022.167969 0)"/>
     <use xlink:href="#DejaVuSans-Bold-20" transform="translate(3093.359375 0)"/>
     <use xlink:href="#DejaVuSans-Bold-61" transform="translate(3128.173828 0)"/>
     <use xlink:href="#DejaVuSans-Bold-74" transform="translate(3195.654297 0)"/>
     <use xlink:href="#DejaVuSans-Bold-6f" transform="translate(3243.457031 0)"/>
     <use xlink:href="#DejaVuSans-Bold-6d" transform="translate(3312.158203 0)"/>
     <use xlink:href="#DejaVuSans-Bold-6f" transform="translate(3416.357422 0)"/>
    </g>
   </g>
  </g>
  <g id="text_9">
   <!-- Per ciascun elettrone sono rappresentati il momento magnetico orbitale $\mathbf{M}_{L_i}$ e quello di spin $\mathbf{M}_{S_i}$. -->
   <g transform="translate(17.608516 480.813656) scale(0.1 -0.1)">
    <defs>
     <path id="DejaVuSans-50" d="M 1259 4147 
L 1259 2394 
L 2053 2394 
Q 2494 2394 2734 2622 
Q 2975 2850 2975 3272 
Q 2975 3691 2734 3919 
Q 2494 4147 2053 4147 
L 1259 4147 
z
M 628 4666 
L 2053 4666 
Q 2838 4666 3239 4311 
Q 3641 3956 3641 3272 
Q 3641 2581 3239 2228 
Q 2838 1875 2053 1875 
L 1259 1875 
L 1259 0 
L 628 0 
L 628 4666 
z
" transform="scale(0.015625)"/>
     <path id="DejaVuSans-65" d="M 3597 1894 
L 3597 1613 
L 953 1613 
Q 991 1019 1311 708 
Q 1631 397 2203 397 
Q 2534 397 2845 478 
Q 3156 559 3463 722 
L 3463 178 
Q 3153 47 2828 -22 
Q 2503 -91 2169 -91 
Q 1331 -91 842 396 
Q 353 884 353 1716 
Q 353 2575 817 3079 
Q 1281 3584 2069 3584 
Q 2775 3584 3186 3129 
Q 3597 2675 3597 1894 
z
M 3022 2063 
Q 3016 2534 2758 2815 
Q 2500 3097 2075 3097 
Q 1594 3097 1305 2825 
Q 1016 2553 972 2059 
L 3022 2063 
z
" transform="scale(0.015625)"/>
     <path id="DejaVuSans-72" d="M 2631 2963 
Q 2534 3019 2420 3045 
Q 2306 3072 2169 3072 
Q 1681 3072 1420 2755 
Q 1159 2438 1159 1844 
L 1159 0 
L 581 0 
L 581 3500 
L 1159 3500 
L 1159 2956 
Q 1341 3275 1631 3429 
Q 1922 3584 2338 3584 
Q 2397 3584 2469 3576 
Q 2541 3569 2628 3553 
L 2631 2963 
z
" transform="scale(0.015625)"/>
     <path id="DejaVuSans-20" transform="scale(0.015625)"/>
     <path id="DejaVuSans-63" d="M 3122 3366 
L 3122 2828 
Q 2878 2963 2633 3030 
Q 2388 3097 2138 3097 
Q 1578 3097 1268 2742 
Q 959 2388 959 1747 
Q 959 1106 1268 751 
Q 1578 397 2138 397 
Q 2388 397 2633 464 
Q 2878 531 3122 666 
L 3122 134 
Q 2881 22 2623 -34 
Q 2366 -91 2075 -91 
Q 1284 -91 818 406 
Q 353 903 353 1747 
Q 353 2603 823 3093 
Q 1294 3584 2113 3584 
Q 2378 3584 2631 3529 
Q 2884 3475 3122 3366 
z
" transform="scale(0.015625)"/>
     <path id="DejaVuSans-69" d="M 603 3500 
L 1178 3500 
L 1178 0 
L 603 0 
L 603 3500 
z
M 603 4863 
L 1178 4863 
L 1178 4134 
L 603 4134 
L 603 4863 
z
" transform="scale(0.015625)"/>
     <path id="DejaVuSans-61" d="M 2194 1759 
Q 1497 1759 1228 1600 
Q 959 1441 959 1056 
Q 959 750 1161 570 
Q 1363 391 1709 391 
Q 2188 391 2477 730 
Q 2766 1069 2766 1631 
L 2766 1759 
L 2194 1759 
z
M 3341 1997 
L 3341 0 
L 2766 0 
L 2766 531 
Q 2569 213 2275 61 
Q 1981 -91 1556 -91 
Q 1019 -91 701 211 
Q 384 513 384 1019 
Q 384 1609 779 1909 
Q 1175 2209 1959 2209 
L 2766 2209 
L 2766 2266 
Q 2766 2663 2505 2880 
Q 2244 3097 1772 3097 
Q 1472 3097 1187 3025 
Q 903 2953 641 2809 
L 641 3341 
Q 956 3463 1253 3523 
Q 1550 3584 1831 3584 
Q 2591 3584 2966 3190 
Q 3341 2797 3341 1997 
z
" transform="scale(0.015625)"/>
     <path id="DejaVuSans-73" d="M 2834 3397 
L 2834 2853 
Q 2591 2978 2328 3040 
Q 2066 3103 1784 3103 
Q 1356 3103 1142 2972 
Q 928 2841 928 2578 
Q 928 2378 1081 2264 
Q 1234 2150 1697 2047 
L 1894 2003 
Q 2506 1872 2764 1633 
Q 3022 1394 3022 966 
Q 3022 478 2636 193 
Q 2250 -91 1575 -91 
Q 1294 -91 989 -36 
Q 684 19 347 128 
L 347 722 
Q 666 556 975 473 
Q 1284 391 1588 391 
Q 1994 391 2212 530 
Q 2431 669 2431 922 
Q 2431 1156 2273 1281 
Q 2116 1406 1581 1522 
L 1381 1569 
Q 847 1681 609 1914 
Q 372 2147 372 2553 
Q 372 3047 722 3315 
Q 1072 3584 1716 3584 
Q 2034 3584 2315 3537 
Q 2597 3491 2834 3397 
z
" transform="scale(0.015625)"/>
     <path id="DejaVuSans-75" d="M 544 1381 
L 544 3500 
L 1119 3500 
L 1119 1403 
Q 1119 906 1312 657 
Q 1506 409 1894 409 
Q 2359 409 2629 706 
Q 2900 1003 2900 1516 
L 2900 3500 
L 3475 3500 
L 3475 0 
L 2900 0 
L 2900 538 
Q 2691 219 2414 64 
Q 2138 -91 1772 -91 
Q 1169 -91 856 284 
Q 544 659 544 1381 
z
M 1991 3584 
L 1991 3584 
z
" transform="scale(0.015625)"/>
     <path id="DejaVuSans-6e" d="M 3513 2113 
L 3513 0 
L 2938 0 
L 2938 2094 
Q 2938 2591 2744 2837 
Q 2550 3084 2163 3084 
Q 1697 3084 1428 2787 
Q 1159 2491 1159 1978 
L 1159 0 
L 581 0 
L 581 3500 
L 1159 3500 
L 1159 2956 
Q 1366 3272 1645 3428 
Q 1925 3584 2291 3584 
Q 2894 3584 3203 3211 
Q 3513 2838 3513 2113 
z
" transform="scale(0.015625)"/>
     <path id="DejaVuSans-6c" d="M 603 4863 
L 1178 4863 
L 1178 0 
L 603 0 
L 603 4863 
z
" transform="scale(0.015625)"/>
     <path id="DejaVuSans-74" d="M 1172 4494 
L 1172 3500 
L 2356 3500 
L 2356 3053 
L 1172 3053 
L 1172 1153 
Q 1172 725 1289 603 
Q 1406 481 1766 481 
L 2356 481 
L 2356 0 
L 1766 0 
Q 1100 0 847 248 
Q 594 497 594 1153 
L 594 3053 
L 172 3053 
L 172 3500 
L 594 3500 
L 594 4494 
L 1172 4494 
z
" transform="scale(0.015625)"/>
     <path id="DejaVuSans-6f" d="M 1959 3097 
Q 1497 3097 1228 2736 
Q 959 2375 959 1747 
Q 959 1119 1226 758 
Q 1494 397 1959 397 
Q 2419 397 2687 759 
Q 2956 1122 2956 1747 
Q 2956 2369 2687 2733 
Q 2419 3097 1959 3097 
z
M 1959 3584 
Q 2709 3584 3137 3096 
Q 3566 2609 3566 1747 
Q 3566 888 3137 398 
Q 2709 -91 1959 -91 
Q 1206 -91 779 398 
Q 353 888 353 1747 
Q 353 2609 779 3096 
Q 1206 3584 1959 3584 
z
" transform="scale(0.015625)"/>
     <path id="DejaVuSans-70" d="M 1159 525 
L 1159 -1331 
L 581 -1331 
L 581 3500 
L 1159 3500 
L 1159 2969 
Q 1341 3281 1617 3432 
Q 1894 3584 2278 3584 
Q 2916 3584 3314 3078 
Q 3713 2572 3713 1747 
Q 3713 922 3314 415 
Q 2916 -91 2278 -91 
Q 1894 -91 1617 61 
Q 1341 213 1159 525 
z
M 3116 1747 
Q 3116 2381 2855 2742 
Q 2594 3103 2138 3103 
Q 1681 3103 1420 2742 
Q 1159 2381 1159 1747 
Q 1159 1113 1420 752 
Q 1681 391 2138 391 
Q 2594 391 2855 752 
Q 3116 1113 3116 1747 
z
" transform="scale(0.015625)"/>
     <path id="DejaVuSans-6d" d="M 3328 2828 
Q 3544 3216 3844 3400 
Q 4144 3584 4550 3584 
Q 5097 3584 5394 3201 
Q 5691 2819 5691 2113 
L 5691 0 
L 5113 0 
L 5113 2094 
Q 5113 2597 4934 2840 
Q 4756 3084 4391 3084 
Q 3944 3084 3684 2787 
Q 3425 2491 3425 1978 
L 3425 0 
L 2847 0 
L 2847 2094 
Q 2847 2600 2669 2842 
Q 2491 3084 2119 3084 
Q 1678 3084 1418 2786 
Q 1159 2488 1159 1978 
L 1159 0 
L 581 0 
L 581 3500 
L 1159 3500 
L 1159 2956 
Q 1356 3278 1631 3431 
Q 1906 3584 2284 3584 
Q 2666 3584 2933 3390 
Q 3200 3197 3328 2828 
z
" transform="scale(0.015625)"/>
     <path id="DejaVuSans-67" d="M 2906 1791 
Q 2906 2416 2648 2759 
Q 2391 3103 1925 3103 
Q 1463 3103 1205 2759 
Q 947 2416 947 1791 
Q 947 1169 1205 825 
Q 1463 481 1925 481 
Q 2391 481 2648 825 
Q 2906 1169 2906 1791 
z
M 3481 434 
Q 3481 -459 3084 -895 
Q 2688 -1331 1869 -1331 
Q 1566 -1331 1297 -1286 
Q 1028 -1241 775 -1147 
L 775 -588 
Q 1028 -725 1275 -790 
Q 1522 -856 1778 -856 
Q 2344 -856 2625 -561 
Q 2906 -266 2906 331 
L 2906 616 
Q 2728 306 2450 153 
Q 2172 0 1784 0 
Q 1141 0 747 490 
Q 353 981 353 1791 
Q 353 2603 747 3093 
Q 1141 3584 1784 3584 
Q 2172 3584 2450 3431 
Q 2728 3278 2906 2969 
L 2906 3500 
L 3481 3500 
L 3481 434 
z
" transform="scale(0.015625)"/>
     <path id="DejaVuSans-62" d="M 3116 1747 
Q 3116 2381 2855 2742 
Q 2594 3103 2138 3103 
Q 1681 3103 1420 2742 
Q 1159 2381 1159 1747 
Q 1159 1113 1420 752 
Q 1681 391 2138 391 
Q 2594 391 2855 752 
Q 3116 1113 3116 1747 
z
M 1159 2969 
Q 1341 3281 1617 3432 
Q 1894 3584 2278 3584 
Q 2916 3584 3314 3078 
Q 3713 2572 3713 1747 
Q 3713 922 3314 415 
Q 2916 -91 2278 -91 
Q 1894 -91 1617 61 
Q 1341 213 1159 525 
L 1159 0 
L 581 0 
L 581 4863 
L 1159 4863 
L 1159 2969 
z
" transform="scale(0.015625)"/>
     <path id="DejaVuSans-Oblique-69" d="M 1172 4863 
L 1747 4863 
L 1606 4134 
L 1031 4134 
L 1172 4863 
z
M 909 3500 
L 1484 3500 
L 800 0 
L 225 0 
L 909 3500 
z
" transform="scale(0.015625)"/>
     <path id="DejaVuSans-71" d="M 947 1747 
Q 947 1113 1208 752 
Q 1469 391 1925 391 
Q 2381 391 2643 752 
Q 2906 1113 2906 1747 
Q 2906 2381 2643 2742 
Q 2381 3103 1925 3103 
Q 1469 3103 1208 2742 
Q 947 2381 947 1747 
z
M 2906 525 
Q 2725 213 2448 61 
Q 2172 -91 1784 -91 
Q 1150 -91 751 415 
Q 353 922 353 1747 
Q 353 2572 751 3078 
Q 1150 3584 1784 3584 
Q 2172 3584 2448 3432 
Q 2725 3281 2906 2969 
L 2906 3500 
L 3481 3500 
L 3481 -1331 
L 2906 -1331 
L 2906 525 
z
" transform="scale(0.015625)"/>
     <path id="DejaVuSans-64" d="M 2906 2969 
L 2906 4863 
L 3481 4863 
L 3481 0 
L 2906 0 
L 2906 525 
Q 2725 213 2448 61 
Q 2172 -91 1784 -91 
Q 1150 -91 751 415 
Q 353 922 353 1747 
Q 353 2572 751 3078 
Q 1150 3584 1784 3584 
Q 2172 3584 2448 3432 
Q 2725 3281 2906 2969 
z
M 947 1747 
Q 947 1113 1208 752 
Q 1469 391 1925 391 
Q 2381 391 2643 752 
Q 2906 1113 2906 1747 
Q 2906 2381 2643 2742 
Q 2381 3103 1925 3103 
Q 1469 3103 1208 2742 
Q 947 2381 947 1747 
z
" transform="scale(0.015625)"/>
     <path id="DejaVuSans-2e" d="M 684 794 
L 1344 794 
L 1344 0 
L 684 0 
L 684 794 
z
" transform="scale(0.015625)"/>
    </defs>
    <use xlink:href="#DejaVuSans-50" transform="translate(0 0.015625)"/>
    <use xlink:href="#DejaVuSans-65" transform="translate(60.302734 0.015625)"/>
    <use xlink:href="#DejaVuSans-72" transform="translate(121.826172 0.015625)"/>
    <use xlink:href="#DejaVuSans-20" transform="translate(162.939453 0.015625)"/>
    <use xlink:href="#DejaVuSans-63" transform="translate(194.726562 0.015625)"/>
    <use xlink:href="#DejaVuSans-69" transform="translate(249.707031 0.015625)"/>
    <use xlink:href="#DejaVuSans-61" transform="translate(277.490234 0.015625)"/>
    <use xlink:href="#DejaVuSans-73" transform="translate(338.769531 0.015625)"/>
    <use xlink:href="#DejaVuSans-63" transform="translate(390.869141 0.015625)"/>
    <use xlink:href="#DejaVuSans-75" transform="translate(445.849609 0.015625)"/>
    <use xlink:href="#DejaVuSans-6e" transform="translate(509.228516 0.015625)"/>
    <use xlink:href="#DejaVuSans-20" transform="translate(572.607422 0.015625)"/>
    <use xlink:href="#DejaVuSans-65" transform="translate(604.394531 0.015625)"/>
    <use xlink:href="#DejaVuSans-6c" transform="translate(665.917969 0.015625)"/>
    <use xlink:href="#DejaVuSans-65" transform="translate(693.701172 0.015625)"/>
    <use xlink:href="#DejaVuSans-74" transform="translate(755.224609 0.015625)"/>
    <use xlink:href="#DejaVuSans-74" transform="translate(794.433594 0.015625)"/>
    <use xlink:href="#DejaVuSans-72" transform="translate(833.642578 0.015625)"/>
    <use xlink:href="#DejaVuSans-6f" transform="translate(874.755859 0.015625)"/>
    <use xlink:href="#DejaVuSans-6e" transform="translate(935.9375 0.015625)"/>
    <use xlink:href="#DejaVuSans-65" transform="translate(999.316406 0.015625)"/>
    <use xlink:href="#DejaVuSans-20" transform="translate(1060.839844 0.015625)"/>
    <use xlink:href="#DejaVuSans-73" transform="translate(1092.626953 0.015625)"/>
    <use xlink:href="#DejaVuSans-6f" transform="translate(1144.726562 0.015625)"/>
    <use xlink:href="#DejaVuSans-6e" transform="translate(1205.908203 0.015625)"/>
    <use xlink:href="#DejaVuSans-6f" transform="translate(1269.287109 0.015625)"/>
    <use xlink:href="#DejaVuSans-20" transform="translate(1330.46875 0.015625)"/>
    <use xlink:href="#DejaVuSans-72" transform="translate(1362.255859 0.015625)"/>
    <use xlink:href="#DejaVuSans-61" transform="translate(1403.369141 0.015625)"/>
    <use xlink:href="#DejaVuSans-70" transform="translate(1464.648438 0.015625)"/>
    <use xlink:href="#DejaVuSans-70" transform="translate(1528.125 0.015625)"/>
    <use xlink:href="#DejaVuSans-72" transform="translate(1591.601562 0.015625)"/>
    <use xlink:href="#DejaVuSans-65" transform="translate(1632.714844 0.015625)"/>
    <use xlink:href="#DejaVuSans-73" transform="translate(1694.238281 0.015625)"/>
    <use xlink:href="#DejaVuSans-65" transform="translate(1746.337891 0.015625)"/>
    <use xlink:href="#DejaVuSans-6e" transform="translate(1807.861328 0.015625)"/>
    <use xlink:href="#DejaVuSans-74" transform="translate(1871.240234 0.015625)"/>
    <use xlink:href="#DejaVuSans-61" transform="translate(1910.449219 0.015625)"/>
    <use xlink:href="#DejaVuSans-74" transform="translate(1971.728516 0.015625)"/>
    <use xlink:href="#DejaVuSans-69" transform="translate(2010.9375 0.015625)"/>
    <use xlink:href="#DejaVuSans-20" transform="translate(2038.720703 0.015625)"/>
    <use xlink:href="#DejaVuSans-69" transform="translate(2070.507812 0.015625)"/>
    <use xlink:href="#DejaVuSans-6c" transform="translate(2098.291016 0.015625)"/>
    <use xlink:href="#DejaVuSans-20" transform="translate(2126.074219 0.015625)"/>
    <use xlink:href="#DejaVuSans-6d" transform="translate(2157.861328 0.015625)"/>
    <use xlink:href="#DejaVuSans-6f" transform="translate(2255.273438 0.015625)"/>
    <use xlink:href="#DejaVuSans-6d" transform="translate(2316.455078 0.015625)"/>
    <use xlink:href="#DejaVuSans-65" transform="translate(2413.867188 0.015625)"/>
    <use xlink:href="#DejaVuSans-6e" transform="translate(2475.390625 0.015625)"/>
    <use xlink:href="#DejaVuSans-74" transform="translate(2538.769531 0.015625)"/>
    <use xlink:href="#DejaVuSans-6f" transform="translate(2577.978516 0.015625)"/>
    <use xlink:href="#DejaVuSans-20" transform="translate(2639.160156 0.015625)"/>
    <use xlink:href="#DejaVuSans-6d" transform="translate(2670.947266 0.015625)"/>
    <use xlink:href="#DejaVuSans-61" transform="translate(2768.359375 0.015625)"/>
    <use xlink:href="#DejaVuSans-67" transform="translate(2829.638672 0.015625)"/>
    <use xlink:href="#DejaVuSans-6e" transform="translate(2893.115234 0.015625)"/>
    <use xlink:href="#DejaVuSans-65" transform="translate(2956.494141 0.015625)"/>
    <use xlink:href="#DejaVuSans-74" transform="translate(3018.017578 0.015625)"/>
    <use xlink:href="#DejaVuSans-69" transform="translate(3057.226562 0.015625)"/>
    <use xlink:href="#DejaVuSans-63" transform="translate(3085.009766 0.015625)"/>
    <use xlink:href="#DejaVuSans-6f" transform="translate(3139.990234 0.015625)"/>
    <use xlink:href="#DejaVuSans-20" transform="translate(3201.171875 0.015625)"/>
    <use xlink:href="#DejaVuSans-6f" transform="translate(3232.958984 0.015625)"/>
    <use xlink:href="#DejaVuSans-72" transform="translate(3294.140625 0.015625)"/>
    <use xlink:href="#DejaVuSans-62" transform="translate(3335.253906 0.015625)"/>
    <use xlink:href="#DejaVuSans-69" transform="translate(3398.730469 0.015625)"/>
    <use xlink:href="#DejaVuSans-74" transform="translate(3426.513672 0.015625)"/>
    <use xlink:href="#DejaVuSans-61" transform="translate(3465.722656 0.015625)"/>
    <use xlink:href="#DejaVuSans-6c" transform="translate(3527.001953 0.015625)"/>
    <use xlink:href="#DejaVuSans-65" transform="translate(3554.785156 0.015625)"/>
    <use xlink:href="#DejaVuSans-20" transform="translate(3616.308594 0.015625)"/>
    <use xlink:href="#DejaVuSans-Bold-4d" transform="translate(3648.095703 0.015625)"/>
    <use xlink:href="#DejaVuSans-Oblique-4c" transform="translate(3748.564453 -16.390625) scale(0.7)"/>
    <use xlink:href="#DejaVuSans-Oblique-69" transform="translate(3787.563477 -27.875) scale(0.49)"/>
    <use xlink:href="#DejaVuSans-20" transform="translate(3805.825684 0.015625)"/>
    <use xlink:href="#DejaVuSans-65" transform="translate(3837.612793 0.015625)"/>
    <use xlink:href="#DejaVuSans-20" transform="translate(3899.13623 0.015625)"/>
    <use xlink:href="#DejaVuSans-71" transform="translate(3930.92334 0.015625)"/>
    <use xlink:href="#DejaVuSans-75" transform="translate(3994.399902 0.015625)"/>
    <use xlink:href="#DejaVuSans-65" transform="translate(4057.778809 0.015625)"/>
    <use xlink:href="#DejaVuSans-6c" transform="translate(4119.302246 0.015625)"/>
    <use xlink:href="#DejaVuSans-6c" transform="translate(4147.085449 0.015625)"/>
    <use xlink:href="#DejaVuSans-6f" transform="translate(4174.868652 0.015625)"/>
    <use xlink:href="#DejaVuSans-20" transform="translate(4236.050293 0.015625)"/>
    <use xlink:href="#DejaVuSans-64" transform="translate(4267.837402 0.015625)"/>
    <use xlink:href="#DejaVuSans-69" transform="translate(4331.313965 0.015625)"/>
    <use xlink:href="#DejaVuSans-20" transform="translate(4359.097168 0.015625)"/>
    <use xlink:href="#DejaVuSans-73" transform="translate(4390.884277 0.015625)"/>
    <use xlink:href="#DejaVuSans-70" transform="translate(4442.983887 0.015625)"/>
    <use xlink:href="#DejaVuSans-69" transform="translate(4506.460449 0.015625)"/>
    <use xlink:href="#DejaVuSans-6e" transform="translate(4534.243652 0.015625)"/>
    <use xlink:href="#DejaVuSans-20" transform="translate(4597.622559 0.015625)"/>
    <use xlink:href="#DejaVuSans-Bold-4d" transform="translate(4629.409668 0.015625)"/>
    <use xlink:href="#DejaVuSans-Oblique-53" transform="translate(4729.878418 -16.390625) scale(0.7)"/>
    <use xlink:href="#DejaVuSans-Oblique-69" transform="translate(4774.312012 -27.875) scale(0.49)"/>
    <use xlink:href="#DejaVuSans-2e" transform="translate(4792.574219 0.015625)"/>
   </g>
  </g>
 </g>
 <defs>
  <clipPath id="p81bf053d1d">
   <rect x="16.954836" y="30.597656" width="503.24736" height="410.256"/>
  </clipPath>
 </defs>
</svg>
