<?xml version="1.0" encoding="utf-8" standalone="no"?>
<!DOCTYPE svg PUBLIC "-//W3C//DTD SVG 1.1//EN"
  "http://www.w3.org/Graphics/SVG/1.1/DTD/svg11.dtd">
<svg xmlns:xlink="http://www.w3.org/1999/xlink" width="705.217359pt" height="459.141656pt" viewBox="0 0 705.217359 459.141656" xmlns="http://www.w3.org/2000/svg" version="1.1">
 <metadata>
  <rdf:RDF xmlns:dc="http://purl.org/dc/elements/1.1/" xmlns:cc="http://creativecommons.org/ns#" xmlns:rdf="http://www.w3.org/1999/02/22-rdf-syntax-ns#">
   <cc:Work>
    <dc:type rdf:resource="http://purl.org/dc/dcmitype/StillImage"/>
    <dc:date>2026-06-16T09:18:36.314084</dc:date>
    <dc:format>image/svg+xml</dc:format>
    <dc:creator>
     <cc:Agent>
      <dc:title>Matplotlib v3.10.8, https://matplotlib.org/</dc:title>
     </cc:Agent>
    </dc:creator>
   </cc:Work>
  </rdf:RDF>
 </metadata>
 <defs>
  <style type="text/css">*{stroke-linejoin: round; stroke-linecap: butt}</style>
 </defs>
 <g id="figure_1">
  <g id="patch_1">
   <path d="M 0 459.141656 
L 705.217359 459.141656 
L 705.217359 0 
L 0 0 
z
" style="fill: #ffffff"/>
  </g>
  <g id="axes_1">
   <g id="line2d_1">
    <path d="M 118.38475 134.949208 
L 212.112576 134.949208 
" clip-path="url(#p1979ca14d1)" style="fill: none; stroke: #1f77b4; stroke-width: 2.1; stroke-linecap: square"/>
   </g>
   <g id="line2d_2">
    <path d="M 404.501272 172.752034 
L 508.095185 172.752034 
" clip-path="url(#p1979ca14d1)" style="fill: none; stroke: #ff7f0e; stroke-width: 1.7; stroke-linecap: square"/>
   </g>
   <g id="line2d_3">
    <path d="M 212.112576 134.949208 
L 404.501272 172.752034 
" clip-path="url(#p1979ca14d1)" style="fill: none; stroke-dasharray: 0.8,1.32; stroke-dashoffset: 0; stroke: #2ca02c; stroke-width: 0.8"/>
   </g>
   <g id="line2d_4">
    <path d="M 404.501272 147.55015 
L 508.095185 147.55015 
" clip-path="url(#p1979ca14d1)" style="fill: none; stroke: #d62728; stroke-width: 1.7; stroke-linecap: square"/>
   </g>
   <g id="line2d_5">
    <path d="M 212.112576 134.949208 
L 404.501272 147.55015 
" clip-path="url(#p1979ca14d1)" style="fill: none; stroke-dasharray: 0.8,1.32; stroke-dashoffset: 0; stroke: #9467bd; stroke-width: 0.8"/>
   </g>
   <g id="line2d_6">
    <path d="M 404.501272 122.348266 
L 508.095185 122.348266 
" clip-path="url(#p1979ca14d1)" style="fill: none; stroke: #8c564b; stroke-width: 1.7; stroke-linecap: square"/>
   </g>
   <g id="line2d_7">
    <path d="M 212.112576 134.949208 
L 404.501272 122.348266 
" clip-path="url(#p1979ca14d1)" style="fill: none; stroke-dasharray: 0.8,1.32; stroke-dashoffset: 0; stroke: #e377c2; stroke-width: 0.8"/>
   </g>
   <g id="line2d_8">
    <path d="M 404.501272 97.146381 
L 508.095185 97.146381 
" clip-path="url(#p1979ca14d1)" style="fill: none; stroke: #7f7f7f; stroke-width: 1.7; stroke-linecap: square"/>
   </g>
   <g id="line2d_9">
    <path d="M 212.112576 134.949208 
L 404.501272 97.146381 
" clip-path="url(#p1979ca14d1)" style="fill: none; stroke-dasharray: 0.8,1.32; stroke-dashoffset: 0; stroke: #bcbd22; stroke-width: 0.8"/>
   </g>
   <g id="line2d_10">
    <path d="M 118.38475 233.394067 
L 212.112576 233.394067 
" clip-path="url(#p1979ca14d1)" style="fill: none; stroke: #17becf; stroke-width: 2.1; stroke-linecap: square"/>
   </g>
   <g id="line2d_11">
    <path d="M 404.501272 239.694538 
L 508.095185 239.694538 
" clip-path="url(#p1979ca14d1)" style="fill: none; stroke: #1f77b4; stroke-width: 1.7; stroke-linecap: square"/>
   </g>
   <g id="line2d_12">
    <path d="M 212.112576 233.394067 
L 404.501272 239.694538 
" clip-path="url(#p1979ca14d1)" style="fill: none; stroke-dasharray: 0.8,1.32; stroke-dashoffset: 0; stroke: #ff7f0e; stroke-width: 0.8"/>
   </g>
   <g id="line2d_13">
    <path d="M 404.501272 227.093596 
L 508.095185 227.093596 
" clip-path="url(#p1979ca14d1)" style="fill: none; stroke: #2ca02c; stroke-width: 1.7; stroke-linecap: square"/>
   </g>
   <g id="line2d_14">
    <path d="M 212.112576 233.394067 
L 404.501272 227.093596 
" clip-path="url(#p1979ca14d1)" style="fill: none; stroke-dasharray: 0.8,1.32; stroke-dashoffset: 0; stroke: #d62728; stroke-width: 0.8"/>
   </g>
   <g id="line2d_15">
    <path d="M 118.38475 343.65231 
L 212.112576 343.65231 
" clip-path="url(#p1979ca14d1)" style="fill: none; stroke: #9467bd; stroke-width: 2.1; stroke-linecap: square"/>
   </g>
   <g id="line2d_16">
    <path d="M 404.501272 362.553724 
L 508.095185 362.553724 
" clip-path="url(#p1979ca14d1)" style="fill: none; stroke: #8c564b; stroke-width: 1.7; stroke-linecap: square"/>
   </g>
   <g id="line2d_17">
    <path d="M 212.112576 343.65231 
L 404.501272 362.553724 
" clip-path="url(#p1979ca14d1)" style="fill: none; stroke-dasharray: 0.8,1.32; stroke-dashoffset: 0; stroke: #e377c2; stroke-width: 0.8"/>
   </g>
   <g id="line2d_18">
    <path d="M 404.501272 324.750897 
L 508.095185 324.750897 
" clip-path="url(#p1979ca14d1)" style="fill: none; stroke: #7f7f7f; stroke-width: 1.7; stroke-linecap: square"/>
   </g>
   <g id="line2d_19">
    <path d="M 212.112576 343.65231 
L 404.501272 324.750897 
" clip-path="url(#p1979ca14d1)" style="fill: none; stroke-dasharray: 0.8,1.32; stroke-dashoffset: 0; stroke: #bcbd22; stroke-width: 0.8"/>
   </g>
   <g id="text_1">
    <!-- $2\,{}^2P_{3/2}$ -->
    <g transform="translate(75.32875 133.793854) scale(0.105 -0.105)">
     <defs>
      <path id="DejaVuSans-32" d="M 1228 531 
L 3431 531 
L 3431 0 
L 469 0 
L 469 531 
Q 828 903 1448 1529 
Q 2069 2156 2228 2338 
Q 2531 2678 2651 2914 
Q 2772 3150 2772 3378 
Q 2772 3750 2511 3984 
Q 2250 4219 1831 4219 
Q 1534 4219 1204 4116 
Q 875 4013 500 3803 
L 500 4441 
Q 881 4594 1212 4672 
Q 1544 4750 1819 4750 
Q 2544 4750 2975 4387 
Q 3406 4025 3406 3419 
Q 3406 3131 3298 2873 
Q 3191 2616 2906 2266 
Q 2828 2175 2409 1742 
Q 1991 1309 1228 531 
z
" transform="scale(0.015625)"/>
      <path id="DejaVuSans-Oblique-50" d="M 1081 4666 
L 2541 4666 
Q 3178 4666 3512 4369 
Q 3847 4072 3847 3500 
Q 3847 2731 3353 2303 
Q 2859 1875 1966 1875 
L 1172 1875 
L 806 0 
L 172 0 
L 1081 4666 
z
M 1613 4147 
L 1275 2394 
L 2069 2394 
Q 2606 2394 2893 2669 
Q 3181 2944 3181 3456 
Q 3181 3784 2986 3965 
Q 2791 4147 2438 4147 
L 1613 4147 
z
" transform="scale(0.015625)"/>
      <path id="DejaVuSans-33" d="M 2597 2516 
Q 3050 2419 3304 2112 
Q 3559 1806 3559 1356 
Q 3559 666 3084 287 
Q 2609 -91 1734 -91 
Q 1441 -91 1130 -33 
Q 819 25 488 141 
L 488 750 
Q 750 597 1062 519 
Q 1375 441 1716 441 
Q 2309 441 2620 675 
Q 2931 909 2931 1356 
Q 2931 1769 2642 2001 
Q 2353 2234 1838 2234 
L 1294 2234 
L 1294 2753 
L 1863 2753 
Q 2328 2753 2575 2939 
Q 2822 3125 2822 3475 
Q 2822 3834 2567 4026 
Q 2313 4219 1838 4219 
Q 1578 4219 1281 4162 
Q 984 4106 628 3988 
L 628 4550 
Q 988 4650 1302 4700 
Q 1616 4750 1894 4750 
Q 2613 4750 3031 4423 
Q 3450 4097 3450 3541 
Q 3450 3153 3228 2886 
Q 3006 2619 2597 2516 
z
" transform="scale(0.015625)"/>
      <path id="DejaVuSans-2f" d="M 1625 4666 
L 2156 4666 
L 531 -594 
L 0 -594 
L 1625 4666 
z
" transform="scale(0.015625)"/>
     </defs>
     <use xlink:href="#DejaVuSans-32" transform="translate(0 0.765625)"/>
     <use xlink:href="#DejaVuSans-32" transform="translate(80.815754 39.046875) scale(0.7)"/>
     <use xlink:href="#DejaVuSans-Oblique-50" transform="translate(128.086262 0.765625)"/>
     <use xlink:href="#DejaVuSans-33" transform="translate(188.388997 -15.640625) scale(0.7)"/>
     <use xlink:href="#DejaVuSans-2f" transform="translate(232.925129 -15.640625) scale(0.7)"/>
     <use xlink:href="#DejaVuSans-32" transform="translate(253.971614 -15.640625) scale(0.7)"/>
    </g>
   </g>
   <g id="text_2">
    <!-- secondo stato eccitato -->
    <g transform="translate(7.2 151.553517) scale(0.088 -0.088)">
     <defs>
      <path id="DejaVuSans-73" d="M 2834 3397 
L 2834 2853 
Q 2591 2978 2328 3040 
Q 2066 3103 1784 3103 
Q 1356 3103 1142 2972 
Q 928 2841 928 2578 
Q 928 2378 1081 2264 
Q 1234 2150 1697 2047 
L 1894 2003 
Q 2506 1872 2764 1633 
Q 3022 1394 3022 966 
Q 3022 478 2636 193 
Q 2250 -91 1575 -91 
Q 1294 -91 989 -36 
Q 684 19 347 128 
L 347 722 
Q 666 556 975 473 
Q 1284 391 1588 391 
Q 1994 391 2212 530 
Q 2431 669 2431 922 
Q 2431 1156 2273 1281 
Q 2116 1406 1581 1522 
L 1381 1569 
Q 847 1681 609 1914 
Q 372 2147 372 2553 
Q 372 3047 722 3315 
Q 1072 3584 1716 3584 
Q 2034 3584 2315 3537 
Q 2597 3491 2834 3397 
z
" transform="scale(0.015625)"/>
      <path id="DejaVuSans-65" d="M 3597 1894 
L 3597 1613 
L 953 1613 
Q 991 1019 1311 708 
Q 1631 397 2203 397 
Q 2534 397 2845 478 
Q 3156 559 3463 722 
L 3463 178 
Q 3153 47 2828 -22 
Q 2503 -91 2169 -91 
Q 1331 -91 842 396 
Q 353 884 353 1716 
Q 353 2575 817 3079 
Q 1281 3584 2069 3584 
Q 2775 3584 3186 3129 
Q 3597 2675 3597 1894 
z
M 3022 2063 
Q 3016 2534 2758 2815 
Q 2500 3097 2075 3097 
Q 1594 3097 1305 2825 
Q 1016 2553 972 2059 
L 3022 2063 
z
" transform="scale(0.015625)"/>
      <path id="DejaVuSans-63" d="M 3122 3366 
L 3122 2828 
Q 2878 2963 2633 3030 
Q 2388 3097 2138 3097 
Q 1578 3097 1268 2742 
Q 959 2388 959 1747 
Q 959 1106 1268 751 
Q 1578 397 2138 397 
Q 2388 397 2633 464 
Q 2878 531 3122 666 
L 3122 134 
Q 2881 22 2623 -34 
Q 2366 -91 2075 -91 
Q 1284 -91 818 406 
Q 353 903 353 1747 
Q 353 2603 823 3093 
Q 1294 3584 2113 3584 
Q 2378 3584 2631 3529 
Q 2884 3475 3122 3366 
z
" transform="scale(0.015625)"/>
      <path id="DejaVuSans-6f" d="M 1959 3097 
Q 1497 3097 1228 2736 
Q 959 2375 959 1747 
Q 959 1119 1226 758 
Q 1494 397 1959 397 
Q 2419 397 2687 759 
Q 2956 1122 2956 1747 
Q 2956 2369 2687 2733 
Q 2419 3097 1959 3097 
z
M 1959 3584 
Q 2709 3584 3137 3096 
Q 3566 2609 3566 1747 
Q 3566 888 3137 398 
Q 2709 -91 1959 -91 
Q 1206 -91 779 398 
Q 353 888 353 1747 
Q 353 2609 779 3096 
Q 1206 3584 1959 3584 
z
" transform="scale(0.015625)"/>
      <path id="DejaVuSans-6e" d="M 3513 2113 
L 3513 0 
L 2938 0 
L 2938 2094 
Q 2938 2591 2744 2837 
Q 2550 3084 2163 3084 
Q 1697 3084 1428 2787 
Q 1159 2491 1159 1978 
L 1159 0 
L 581 0 
L 581 3500 
L 1159 3500 
L 1159 2956 
Q 1366 3272 1645 3428 
Q 1925 3584 2291 3584 
Q 2894 3584 3203 3211 
Q 3513 2838 3513 2113 
z
" transform="scale(0.015625)"/>
      <path id="DejaVuSans-64" d="M 2906 2969 
L 2906 4863 
L 3481 4863 
L 3481 0 
L 2906 0 
L 2906 525 
Q 2725 213 2448 61 
Q 2172 -91 1784 -91 
Q 1150 -91 751 415 
Q 353 922 353 1747 
Q 353 2572 751 3078 
Q 1150 3584 1784 3584 
Q 2172 3584 2448 3432 
Q 2725 3281 2906 2969 
z
M 947 1747 
Q 947 1113 1208 752 
Q 1469 391 1925 391 
Q 2381 391 2643 752 
Q 2906 1113 2906 1747 
Q 2906 2381 2643 2742 
Q 2381 3103 1925 3103 
Q 1469 3103 1208 2742 
Q 947 2381 947 1747 
z
" transform="scale(0.015625)"/>
      <path id="DejaVuSans-20" transform="scale(0.015625)"/>
      <path id="DejaVuSans-74" d="M 1172 4494 
L 1172 3500 
L 2356 3500 
L 2356 3053 
L 1172 3053 
L 1172 1153 
Q 1172 725 1289 603 
Q 1406 481 1766 481 
L 2356 481 
L 2356 0 
L 1766 0 
Q 1100 0 847 248 
Q 594 497 594 1153 
L 594 3053 
L 172 3053 
L 172 3500 
L 594 3500 
L 594 4494 
L 1172 4494 
z
" transform="scale(0.015625)"/>
      <path id="DejaVuSans-61" d="M 2194 1759 
Q 1497 1759 1228 1600 
Q 959 1441 959 1056 
Q 959 750 1161 570 
Q 1363 391 1709 391 
Q 2188 391 2477 730 
Q 2766 1069 2766 1631 
L 2766 1759 
L 2194 1759 
z
M 3341 1997 
L 3341 0 
L 2766 0 
L 2766 531 
Q 2569 213 2275 61 
Q 1981 -91 1556 -91 
Q 1019 -91 701 211 
Q 384 513 384 1019 
Q 384 1609 779 1909 
Q 1175 2209 1959 2209 
L 2766 2209 
L 2766 2266 
Q 2766 2663 2505 2880 
Q 2244 3097 1772 3097 
Q 1472 3097 1187 3025 
Q 903 2953 641 2809 
L 641 3341 
Q 956 3463 1253 3523 
Q 1550 3584 1831 3584 
Q 2591 3584 2966 3190 
Q 3341 2797 3341 1997 
z
" transform="scale(0.015625)"/>
      <path id="DejaVuSans-69" d="M 603 3500 
L 1178 3500 
L 1178 0 
L 603 0 
L 603 3500 
z
M 603 4863 
L 1178 4863 
L 1178 4134 
L 603 4134 
L 603 4863 
z
" transform="scale(0.015625)"/>
     </defs>
     <use xlink:href="#DejaVuSans-73"/>
     <use xlink:href="#DejaVuSans-65" transform="translate(52.099609 0)"/>
     <use xlink:href="#DejaVuSans-63" transform="translate(113.623047 0)"/>
     <use xlink:href="#DejaVuSans-6f" transform="translate(168.603516 0)"/>
     <use xlink:href="#DejaVuSans-6e" transform="translate(229.785156 0)"/>
     <use xlink:href="#DejaVuSans-64" transform="translate(293.164062 0)"/>
     <use xlink:href="#DejaVuSans-6f" transform="translate(356.640625 0)"/>
     <use xlink:href="#DejaVuSans-20" transform="translate(417.822266 0)"/>
     <use xlink:href="#DejaVuSans-73" transform="translate(449.609375 0)"/>
     <use xlink:href="#DejaVuSans-74" transform="translate(501.708984 0)"/>
     <use xlink:href="#DejaVuSans-61" transform="translate(540.917969 0)"/>
     <use xlink:href="#DejaVuSans-74" transform="translate(602.197266 0)"/>
     <use xlink:href="#DejaVuSans-6f" transform="translate(641.40625 0)"/>
     <use xlink:href="#DejaVuSans-20" transform="translate(702.587891 0)"/>
     <use xlink:href="#DejaVuSans-65" transform="translate(734.375 0)"/>
     <use xlink:href="#DejaVuSans-63" transform="translate(795.898438 0)"/>
     <use xlink:href="#DejaVuSans-63" transform="translate(850.878906 0)"/>
     <use xlink:href="#DejaVuSans-69" transform="translate(905.859375 0)"/>
     <use xlink:href="#DejaVuSans-74" transform="translate(933.642578 0)"/>
     <use xlink:href="#DejaVuSans-61" transform="translate(972.851562 0)"/>
     <use xlink:href="#DejaVuSans-74" transform="translate(1034.130859 0)"/>
     <use xlink:href="#DejaVuSans-6f" transform="translate(1073.339844 0)"/>
    </g>
   </g>
   <g id="text_3">
    <!-- $g=1.3$ -->
    <g transform="translate(224.445185 150.857646) scale(0.092 -0.092)">
     <defs>
      <path id="DejaVuSans-Oblique-67" d="M 3816 3500 
L 3219 434 
Q 3047 -456 2561 -893 
Q 2075 -1331 1253 -1331 
Q 950 -1331 690 -1286 
Q 431 -1241 206 -1147 
L 313 -588 
Q 525 -725 762 -790 
Q 1000 -856 1269 -856 
Q 1816 -856 2167 -557 
Q 2519 -259 2631 300 
L 2681 563 
Q 2441 288 2122 144 
Q 1803 0 1434 0 
Q 903 0 598 351 
Q 294 703 294 1319 
Q 294 1803 478 2267 
Q 663 2731 997 3091 
Q 1219 3328 1514 3456 
Q 1809 3584 2131 3584 
Q 2484 3584 2746 3420 
Q 3009 3256 3138 2956 
L 3238 3500 
L 3816 3500 
z
M 2950 2216 
Q 2950 2641 2750 2872 
Q 2550 3103 2181 3103 
Q 1953 3103 1747 3012 
Q 1541 2922 1394 2759 
Q 1156 2491 1023 2127 
Q 891 1763 891 1375 
Q 891 944 1092 712 
Q 1294 481 1672 481 
Q 2219 481 2584 976 
Q 2950 1472 2950 2216 
z
" transform="scale(0.015625)"/>
      <path id="DejaVuSans-3d" d="M 678 2906 
L 4684 2906 
L 4684 2381 
L 678 2381 
L 678 2906 
z
M 678 1631 
L 4684 1631 
L 4684 1100 
L 678 1100 
L 678 1631 
z
" transform="scale(0.015625)"/>
      <path id="DejaVuSans-31" d="M 794 531 
L 1825 531 
L 1825 4091 
L 703 3866 
L 703 4441 
L 1819 4666 
L 2450 4666 
L 2450 531 
L 3481 531 
L 3481 0 
L 794 0 
L 794 531 
z
" transform="scale(0.015625)"/>
      <path id="DejaVuSans-2e" d="M 684 794 
L 1344 794 
L 1344 0 
L 684 0 
L 684 794 
z
" transform="scale(0.015625)"/>
     </defs>
     <use xlink:href="#DejaVuSans-Oblique-67" transform="translate(0 0.78125)"/>
     <use xlink:href="#DejaVuSans-3d" transform="translate(82.958984 0.78125)"/>
     <use xlink:href="#DejaVuSans-31" transform="translate(186.230469 0.78125)"/>
     <use xlink:href="#DejaVuSans-2e" transform="translate(249.853516 0.78125)"/>
     <use xlink:href="#DejaVuSans-33" transform="translate(281.640625 0.78125)"/>
    </g>
   </g>
   <g id="text_4">
    <!-- $-\frac{3}{2}$ -->
    <g transform="translate(522.401011 175.459534) scale(0.095 -0.095)">
     <defs>
      <path id="DejaVuSans-2212" d="M 678 2272 
L 4684 2272 
L 4684 1741 
L 678 1741 
L 678 2272 
z
" transform="scale(0.015625)"/>
     </defs>
     <use xlink:href="#DejaVuSans-2212" transform="translate(0 0.254687)"/>
     <use xlink:href="#DejaVuSans-33" transform="translate(83.789062 45.046875) scale(0.7)"/>
     <use xlink:href="#DejaVuSans-32" transform="translate(83.789062 -39.151563) scale(0.7)"/>
     <path d="M 83.789062 19.051563 
L 83.789062 25.301563 
L 128.325195 25.301563 
L 128.325195 19.051563 
L 83.789062 19.051563 
z
"/>
    </g>
   </g>
   <g id="text_5">
    <!-- $-\frac{1}{2}$ -->
    <g transform="translate(522.401011 150.16265) scale(0.095 -0.095)">
     <use xlink:href="#DejaVuSans-2212" transform="translate(0 0.16875)"/>
     <use xlink:href="#DejaVuSans-31" transform="translate(83.789062 43.965625) scale(0.7)"/>
     <use xlink:href="#DejaVuSans-32" transform="translate(83.789062 -39.2375) scale(0.7)"/>
     <path d="M 83.789062 18.965625 
L 83.789062 25.215625 
L 128.325195 25.215625 
L 128.325195 18.965625 
L 83.789062 18.965625 
z
"/>
    </g>
   </g>
   <g id="text_6">
    <!-- $+\frac{1}{2}$ -->
    <g transform="translate(522.401011 124.960766) scale(0.095 -0.095)">
     <defs>
      <path id="DejaVuSans-2b" d="M 2944 4013 
L 2944 2272 
L 4684 2272 
L 4684 1741 
L 2944 1741 
L 2944 0 
L 2419 0 
L 2419 1741 
L 678 1741 
L 678 2272 
L 2419 2272 
L 2419 4013 
L 2944 4013 
z
" transform="scale(0.015625)"/>
     </defs>
     <use xlink:href="#DejaVuSans-2b" transform="translate(0 0.16875)"/>
     <use xlink:href="#DejaVuSans-31" transform="translate(83.789062 43.965625) scale(0.7)"/>
     <use xlink:href="#DejaVuSans-32" transform="translate(83.789062 -39.2375) scale(0.7)"/>
     <path d="M 83.789062 18.965625 
L 83.789062 25.215625 
L 128.325195 25.215625 
L 128.325195 18.965625 
L 83.789062 18.965625 
z
"/>
    </g>
   </g>
   <g id="text_7">
    <!-- $+\frac{3}{2}$ -->
    <g transform="translate(522.401011 99.853881) scale(0.095 -0.095)">
     <use xlink:href="#DejaVuSans-2b" transform="translate(0 0.254687)"/>
     <use xlink:href="#DejaVuSans-33" transform="translate(83.789062 45.046875) scale(0.7)"/>
     <use xlink:href="#DejaVuSans-32" transform="translate(83.789062 -39.151563) scale(0.7)"/>
     <path d="M 83.789062 19.051563 
L 83.789062 25.301563 
L 128.325195 25.301563 
L 128.325195 19.051563 
L 83.789062 19.051563 
z
"/>
    </g>
   </g>
   <g id="patch_2">
    <path d="M 384.769098 169.631262 
Q 384.769098 160.150809 384.769098 150.670356 
" style="fill: none; stroke: #000000; stroke-linecap: round"/>
    <path d="M 386.769098 165.631262 
L 384.769098 169.631262 
L 382.769098 165.631262 
" style="fill: none; stroke: #000000; stroke-linecap: round"/>
    <path d="M 382.769098 154.670356 
L 384.769098 150.670356 
L 386.769098 154.670356 
" style="fill: none; stroke: #000000; stroke-linecap: round"/>
   </g>
   <g id="text_8">
    <!-- $\frac{4}{3}\mu_B B$ -->
    <g transform="translate(349.75988 162.581092) scale(0.09 -0.09)">
     <defs>
      <path id="DejaVuSans-34" d="M 2419 4116 
L 825 1625 
L 2419 1625 
L 2419 4116 
z
M 2253 4666 
L 3047 4666 
L 3047 1625 
L 3713 1625 
L 3713 1100 
L 3047 1100 
L 3047 0 
L 2419 0 
L 2419 1100 
L 313 1100 
L 313 1709 
L 2253 4666 
z
" transform="scale(0.015625)"/>
      <path id="DejaVuSans-Oblique-3bc" d="M -84 -1331 
L 856 3500 
L 1434 3500 
L 1009 1322 
Q 997 1256 987 1175 
Q 978 1094 978 1013 
Q 978 722 1161 565 
Q 1344 409 1684 409 
Q 2147 409 2431 671 
Q 2716 934 2816 1459 
L 3213 3500 
L 3788 3500 
L 3266 809 
Q 3253 750 3248 706 
Q 3244 663 3244 628 
Q 3244 531 3283 486 
Q 3322 441 3406 441 
Q 3438 441 3492 456 
Q 3547 472 3647 513 
L 3559 50 
Q 3422 -19 3297 -55 
Q 3172 -91 3053 -91 
Q 2847 -91 2730 40 
Q 2613 172 2613 403 
Q 2438 153 2195 31 
Q 1953 -91 1625 -91 
Q 1334 -91 1117 43 
Q 900 178 831 397 
L 494 -1331 
L -84 -1331 
z
" transform="scale(0.015625)"/>
      <path id="DejaVuSans-Oblique-42" d="M 1081 4666 
L 2694 4666 
Q 3350 4666 3675 4422 
Q 4000 4178 4000 3688 
Q 4000 3238 3720 2911 
Q 3441 2584 2988 2516 
Q 3375 2428 3569 2181 
Q 3763 1934 3763 1522 
Q 3763 819 3242 409 
Q 2722 0 1819 0 
L 172 0 
L 1081 4666 
z
M 1234 2228 
L 903 519 
L 1919 519 
Q 2491 519 2800 781 
Q 3109 1044 3109 1522 
Q 3109 1891 2904 2059 
Q 2700 2228 2247 2228 
L 1234 2228 
z
M 1606 4147 
L 1331 2741 
L 2272 2741 
Q 2775 2741 3058 2959 
Q 3341 3178 3341 3566 
Q 3341 3869 3150 4008 
Q 2959 4147 2541 4147 
L 1606 4147 
z
" transform="scale(0.015625)"/>
     </defs>
     <use xlink:href="#DejaVuSans-34" transform="translate(0 43.965625) scale(0.7)"/>
     <use xlink:href="#DejaVuSans-33" transform="translate(0 -39.2375) scale(0.7)"/>
     <use xlink:href="#DejaVuSans-Oblique-3bc" transform="translate(57.036133 0.16875)"/>
     <use xlink:href="#DejaVuSans-Oblique-42" transform="translate(120.65918 -16.2375) scale(0.7)"/>
     <use xlink:href="#DejaVuSans-Oblique-42" transform="translate(171.416016 0.16875)"/>
     <path d="M 0 18.965625 
L 0 25.215625 
L 44.536133 25.215625 
L 44.536133 18.965625 
L 0 18.965625 
z
"/>
    </g>
   </g>
   <g id="text_9">
    <!-- $2\,{}^2P_{1/2}$ -->
    <g transform="translate(75.32875 232.238714) scale(0.105 -0.105)">
     <use xlink:href="#DejaVuSans-32" transform="translate(0 0.765625)"/>
     <use xlink:href="#DejaVuSans-32" transform="translate(80.815754 39.046875) scale(0.7)"/>
     <use xlink:href="#DejaVuSans-Oblique-50" transform="translate(128.086262 0.765625)"/>
     <use xlink:href="#DejaVuSans-31" transform="translate(188.388997 -15.640625) scale(0.7)"/>
     <use xlink:href="#DejaVuSans-2f" transform="translate(232.925129 -15.640625) scale(0.7)"/>
     <use xlink:href="#DejaVuSans-32" transform="translate(253.971614 -15.640625) scale(0.7)"/>
    </g>
   </g>
   <g id="text_10">
    <!-- primo stato eccitato -->
    <g transform="translate(18.365 249.998377) scale(0.088 -0.088)">
     <defs>
      <path id="DejaVuSans-70" d="M 1159 525 
L 1159 -1331 
L 581 -1331 
L 581 3500 
L 1159 3500 
L 1159 2969 
Q 1341 3281 1617 3432 
Q 1894 3584 2278 3584 
Q 2916 3584 3314 3078 
Q 3713 2572 3713 1747 
Q 3713 922 3314 415 
Q 2916 -91 2278 -91 
Q 1894 -91 1617 61 
Q 1341 213 1159 525 
z
M 3116 1747 
Q 3116 2381 2855 2742 
Q 2594 3103 2138 3103 
Q 1681 3103 1420 2742 
Q 1159 2381 1159 1747 
Q 1159 1113 1420 752 
Q 1681 391 2138 391 
Q 2594 391 2855 752 
Q 3116 1113 3116 1747 
z
" transform="scale(0.015625)"/>
      <path id="DejaVuSans-72" d="M 2631 2963 
Q 2534 3019 2420 3045 
Q 2306 3072 2169 3072 
Q 1681 3072 1420 2755 
Q 1159 2438 1159 1844 
L 1159 0 
L 581 0 
L 581 3500 
L 1159 3500 
L 1159 2956 
Q 1341 3275 1631 3429 
Q 1922 3584 2338 3584 
Q 2397 3584 2469 3576 
Q 2541 3569 2628 3553 
L 2631 2963 
z
" transform="scale(0.015625)"/>
      <path id="DejaVuSans-6d" d="M 3328 2828 
Q 3544 3216 3844 3400 
Q 4144 3584 4550 3584 
Q 5097 3584 5394 3201 
Q 5691 2819 5691 2113 
L 5691 0 
L 5113 0 
L 5113 2094 
Q 5113 2597 4934 2840 
Q 4756 3084 4391 3084 
Q 3944 3084 3684 2787 
Q 3425 2491 3425 1978 
L 3425 0 
L 2847 0 
L 2847 2094 
Q 2847 2600 2669 2842 
Q 2491 3084 2119 3084 
Q 1678 3084 1418 2786 
Q 1159 2488 1159 1978 
L 1159 0 
L 581 0 
L 581 3500 
L 1159 3500 
L 1159 2956 
Q 1356 3278 1631 3431 
Q 1906 3584 2284 3584 
Q 2666 3584 2933 3390 
Q 3200 3197 3328 2828 
z
" transform="scale(0.015625)"/>
     </defs>
     <use xlink:href="#DejaVuSans-70"/>
     <use xlink:href="#DejaVuSans-72" transform="translate(63.476562 0)"/>
     <use xlink:href="#DejaVuSans-69" transform="translate(104.589844 0)"/>
     <use xlink:href="#DejaVuSans-6d" transform="translate(132.373047 0)"/>
     <use xlink:href="#DejaVuSans-6f" transform="translate(229.785156 0)"/>
     <use xlink:href="#DejaVuSans-20" transform="translate(290.966797 0)"/>
     <use xlink:href="#DejaVuSans-73" transform="translate(322.753906 0)"/>
     <use xlink:href="#DejaVuSans-74" transform="translate(374.853516 0)"/>
     <use xlink:href="#DejaVuSans-61" transform="translate(414.0625 0)"/>
     <use xlink:href="#DejaVuSans-74" transform="translate(475.341797 0)"/>
     <use xlink:href="#DejaVuSans-6f" transform="translate(514.550781 0)"/>
     <use xlink:href="#DejaVuSans-20" transform="translate(575.732422 0)"/>
     <use xlink:href="#DejaVuSans-65" transform="translate(607.519531 0)"/>
     <use xlink:href="#DejaVuSans-63" transform="translate(669.042969 0)"/>
     <use xlink:href="#DejaVuSans-63" transform="translate(724.023438 0)"/>
     <use xlink:href="#DejaVuSans-69" transform="translate(779.003906 0)"/>
     <use xlink:href="#DejaVuSans-74" transform="translate(806.787109 0)"/>
     <use xlink:href="#DejaVuSans-61" transform="translate(845.996094 0)"/>
     <use xlink:href="#DejaVuSans-74" transform="translate(907.275391 0)"/>
     <use xlink:href="#DejaVuSans-6f" transform="translate(946.484375 0)"/>
    </g>
   </g>
   <g id="text_11">
    <!-- $g=0.67$ -->
    <g transform="translate(224.445185 249.302506) scale(0.092 -0.092)">
     <defs>
      <path id="DejaVuSans-30" d="M 2034 4250 
Q 1547 4250 1301 3770 
Q 1056 3291 1056 2328 
Q 1056 1369 1301 889 
Q 1547 409 2034 409 
Q 2525 409 2770 889 
Q 3016 1369 3016 2328 
Q 3016 3291 2770 3770 
Q 2525 4250 2034 4250 
z
M 2034 4750 
Q 2819 4750 3233 4129 
Q 3647 3509 3647 2328 
Q 3647 1150 3233 529 
Q 2819 -91 2034 -91 
Q 1250 -91 836 529 
Q 422 1150 422 2328 
Q 422 3509 836 4129 
Q 1250 4750 2034 4750 
z
" transform="scale(0.015625)"/>
      <path id="DejaVuSans-36" d="M 2113 2584 
Q 1688 2584 1439 2293 
Q 1191 2003 1191 1497 
Q 1191 994 1439 701 
Q 1688 409 2113 409 
Q 2538 409 2786 701 
Q 3034 994 3034 1497 
Q 3034 2003 2786 2293 
Q 2538 2584 2113 2584 
z
M 3366 4563 
L 3366 3988 
Q 3128 4100 2886 4159 
Q 2644 4219 2406 4219 
Q 1781 4219 1451 3797 
Q 1122 3375 1075 2522 
Q 1259 2794 1537 2939 
Q 1816 3084 2150 3084 
Q 2853 3084 3261 2657 
Q 3669 2231 3669 1497 
Q 3669 778 3244 343 
Q 2819 -91 2113 -91 
Q 1303 -91 875 529 
Q 447 1150 447 2328 
Q 447 3434 972 4092 
Q 1497 4750 2381 4750 
Q 2619 4750 2861 4703 
Q 3103 4656 3366 4563 
z
" transform="scale(0.015625)"/>
      <path id="DejaVuSans-37" d="M 525 4666 
L 3525 4666 
L 3525 4397 
L 1831 0 
L 1172 0 
L 2766 4134 
L 525 4134 
L 525 4666 
z
" transform="scale(0.015625)"/>
     </defs>
     <use xlink:href="#DejaVuSans-Oblique-67" transform="translate(0 0.78125)"/>
     <use xlink:href="#DejaVuSans-3d" transform="translate(82.958984 0.78125)"/>
     <use xlink:href="#DejaVuSans-30" transform="translate(186.230469 0.78125)"/>
     <use xlink:href="#DejaVuSans-2e" transform="translate(249.853516 0.78125)"/>
     <use xlink:href="#DejaVuSans-36" transform="translate(281.640625 0.78125)"/>
     <use xlink:href="#DejaVuSans-37" transform="translate(345.263672 0.78125)"/>
    </g>
   </g>
   <g id="text_12">
    <!-- $-\frac{1}{2}$ -->
    <g transform="translate(522.401011 242.307038) scale(0.095 -0.095)">
     <use xlink:href="#DejaVuSans-2212" transform="translate(0 0.16875)"/>
     <use xlink:href="#DejaVuSans-31" transform="translate(83.789062 43.965625) scale(0.7)"/>
     <use xlink:href="#DejaVuSans-32" transform="translate(83.789062 -39.2375) scale(0.7)"/>
     <path d="M 83.789062 18.965625 
L 83.789062 25.215625 
L 128.325195 25.215625 
L 128.325195 18.965625 
L 83.789062 18.965625 
z
"/>
    </g>
   </g>
   <g id="text_13">
    <!-- $+\frac{1}{2}$ -->
    <g transform="translate(522.401011 229.706096) scale(0.095 -0.095)">
     <use xlink:href="#DejaVuSans-2b" transform="translate(0 0.16875)"/>
     <use xlink:href="#DejaVuSans-31" transform="translate(83.789062 43.965625) scale(0.7)"/>
     <use xlink:href="#DejaVuSans-32" transform="translate(83.789062 -39.2375) scale(0.7)"/>
     <path d="M 83.789062 18.965625 
L 83.789062 25.215625 
L 128.325195 25.215625 
L 128.325195 18.965625 
L 83.789062 18.965625 
z
"/>
    </g>
   </g>
   <g id="patch_3">
    <path d="M 384.769098 236.573767 
Q 384.769098 233.392749 384.769098 230.211731 
" style="fill: none; stroke: #000000; stroke-linecap: round"/>
    <path d="M 386.769098 232.573767 
L 384.769098 236.573767 
L 382.769098 232.573767 
" style="fill: none; stroke: #000000; stroke-linecap: round"/>
    <path d="M 382.769098 234.211731 
L 384.769098 230.211731 
L 386.769098 234.211731 
" style="fill: none; stroke: #000000; stroke-linecap: round"/>
   </g>
   <g id="text_14">
    <!-- $\frac{2}{3}\mu_B B$ -->
    <g transform="translate(349.75988 235.869067) scale(0.09 -0.09)">
     <use xlink:href="#DejaVuSans-32" transform="translate(0 44.046875) scale(0.7)"/>
     <use xlink:href="#DejaVuSans-33" transform="translate(0 -39.15625) scale(0.7)"/>
     <use xlink:href="#DejaVuSans-Oblique-3bc" transform="translate(57.036133 0.25)"/>
     <use xlink:href="#DejaVuSans-Oblique-42" transform="translate(120.65918 -16.15625) scale(0.7)"/>
     <use xlink:href="#DejaVuSans-Oblique-42" transform="translate(171.416016 0.25)"/>
     <path d="M 0 19.046875 
L 0 25.296875 
L 44.536133 25.296875 
L 44.536133 19.046875 
L 0 19.046875 
z
"/>
    </g>
   </g>
   <g id="text_15">
    <!-- $2\,{}^2S_{1/2}$ -->
    <g transform="translate(75.01375 342.496957) scale(0.105 -0.105)">
     <defs>
      <path id="DejaVuSans-Oblique-53" d="M 3859 4513 
L 3738 3897 
Q 3422 4066 3111 4152 
Q 2800 4238 2509 4238 
Q 1944 4238 1609 3991 
Q 1275 3744 1275 3334 
Q 1275 3109 1398 2989 
Q 1522 2869 2034 2731 
L 2413 2638 
Q 3053 2472 3303 2217 
Q 3553 1963 3553 1503 
Q 3553 797 2998 353 
Q 2444 -91 1538 -91 
Q 1166 -91 791 -17 
Q 416 56 38 206 
L 166 856 
Q 513 641 861 531 
Q 1209 422 1556 422 
Q 2147 422 2503 684 
Q 2859 947 2859 1369 
Q 2859 1650 2717 1795 
Q 2575 1941 2106 2059 
L 1728 2156 
Q 1081 2325 845 2545 
Q 609 2766 609 3163 
Q 609 3859 1145 4304 
Q 1681 4750 2541 4750 
Q 2875 4750 3203 4690 
Q 3531 4631 3859 4513 
z
" transform="scale(0.015625)"/>
     </defs>
     <use xlink:href="#DejaVuSans-32" transform="translate(0 0.765625)"/>
     <use xlink:href="#DejaVuSans-32" transform="translate(80.815754 39.046875) scale(0.7)"/>
     <use xlink:href="#DejaVuSans-Oblique-53" transform="translate(128.086262 0.765625)"/>
     <use xlink:href="#DejaVuSans-31" transform="translate(191.562825 -15.640625) scale(0.7)"/>
     <use xlink:href="#DejaVuSans-2f" transform="translate(236.098958 -15.640625) scale(0.7)"/>
     <use xlink:href="#DejaVuSans-32" transform="translate(257.145442 -15.640625) scale(0.7)"/>
    </g>
   </g>
   <g id="text_16">
    <!-- stato fondamentale -->
    <g transform="translate(20.676375 360.25662) scale(0.088 -0.088)">
     <defs>
      <path id="DejaVuSans-66" d="M 2375 4863 
L 2375 4384 
L 1825 4384 
Q 1516 4384 1395 4259 
Q 1275 4134 1275 3809 
L 1275 3500 
L 2222 3500 
L 2222 3053 
L 1275 3053 
L 1275 0 
L 697 0 
L 697 3053 
L 147 3053 
L 147 3500 
L 697 3500 
L 697 3744 
Q 697 4328 969 4595 
Q 1241 4863 1831 4863 
L 2375 4863 
z
" transform="scale(0.015625)"/>
      <path id="DejaVuSans-6c" d="M 603 4863 
L 1178 4863 
L 1178 0 
L 603 0 
L 603 4863 
z
" transform="scale(0.015625)"/>
     </defs>
     <use xlink:href="#DejaVuSans-73"/>
     <use xlink:href="#DejaVuSans-74" transform="translate(52.099609 0)"/>
     <use xlink:href="#DejaVuSans-61" transform="translate(91.308594 0)"/>
     <use xlink:href="#DejaVuSans-74" transform="translate(152.587891 0)"/>
     <use xlink:href="#DejaVuSans-6f" transform="translate(191.796875 0)"/>
     <use xlink:href="#DejaVuSans-20" transform="translate(252.978516 0)"/>
     <use xlink:href="#DejaVuSans-66" transform="translate(284.765625 0)"/>
     <use xlink:href="#DejaVuSans-6f" transform="translate(319.970703 0)"/>
     <use xlink:href="#DejaVuSans-6e" transform="translate(381.152344 0)"/>
     <use xlink:href="#DejaVuSans-64" transform="translate(444.53125 0)"/>
     <use xlink:href="#DejaVuSans-61" transform="translate(508.007812 0)"/>
     <use xlink:href="#DejaVuSans-6d" transform="translate(569.287109 0)"/>
     <use xlink:href="#DejaVuSans-65" transform="translate(666.699219 0)"/>
     <use xlink:href="#DejaVuSans-6e" transform="translate(728.222656 0)"/>
     <use xlink:href="#DejaVuSans-74" transform="translate(791.601562 0)"/>
     <use xlink:href="#DejaVuSans-61" transform="translate(830.810547 0)"/>
     <use xlink:href="#DejaVuSans-6c" transform="translate(892.089844 0)"/>
     <use xlink:href="#DejaVuSans-65" transform="translate(919.873047 0)"/>
    </g>
   </g>
   <g id="text_17">
    <!-- $g=2$ -->
    <g transform="translate(224.445185 359.560749) scale(0.092 -0.092)">
     <use xlink:href="#DejaVuSans-Oblique-67" transform="translate(0 0.78125)"/>
     <use xlink:href="#DejaVuSans-3d" transform="translate(82.958984 0.78125)"/>
     <use xlink:href="#DejaVuSans-32" transform="translate(186.230469 0.78125)"/>
    </g>
   </g>
   <g id="text_18">
    <!-- $-\frac{1}{2}$ -->
    <g transform="translate(522.401011 365.166224) scale(0.095 -0.095)">
     <use xlink:href="#DejaVuSans-2212" transform="translate(0 0.16875)"/>
     <use xlink:href="#DejaVuSans-31" transform="translate(83.789062 43.965625) scale(0.7)"/>
     <use xlink:href="#DejaVuSans-32" transform="translate(83.789062 -39.2375) scale(0.7)"/>
     <path d="M 83.789062 18.965625 
L 83.789062 25.215625 
L 128.325195 25.215625 
L 128.325195 18.965625 
L 83.789062 18.965625 
z
"/>
    </g>
   </g>
   <g id="text_19">
    <!-- $+\frac{1}{2}$ -->
    <g transform="translate(522.401011 327.363397) scale(0.095 -0.095)">
     <use xlink:href="#DejaVuSans-2b" transform="translate(0 0.16875)"/>
     <use xlink:href="#DejaVuSans-31" transform="translate(83.789062 43.965625) scale(0.7)"/>
     <use xlink:href="#DejaVuSans-32" transform="translate(83.789062 -39.2375) scale(0.7)"/>
     <path d="M 83.789062 18.965625 
L 83.789062 25.215625 
L 128.325195 25.215625 
L 128.325195 18.965625 
L 83.789062 18.965625 
z
"/>
    </g>
   </g>
   <g id="patch_4">
    <path d="M 384.769098 359.437567 
Q 384.769098 343.651952 384.769098 327.866337 
" style="fill: none; stroke: #000000; stroke-linecap: round"/>
    <path d="M 386.769098 355.437567 
L 384.769098 359.437567 
L 382.769098 355.437567 
" style="fill: none; stroke: #000000; stroke-linecap: round"/>
    <path d="M 382.769098 331.866337 
L 384.769098 327.866337 
L 386.769098 331.866337 
" style="fill: none; stroke: #000000; stroke-linecap: round"/>
   </g>
   <g id="text_20">
    <!-- $2\mu_B B$ -->
    <g transform="translate(349.21988 346.117467) scale(0.09 -0.09)">
     <use xlink:href="#DejaVuSans-32" transform="translate(0 0.78125)"/>
     <use xlink:href="#DejaVuSans-Oblique-3bc" transform="translate(63.623047 0.78125)"/>
     <use xlink:href="#DejaVuSans-Oblique-42" transform="translate(127.246094 -15.625) scale(0.7)"/>
     <use xlink:href="#DejaVuSans-Oblique-42" transform="translate(178.00293 0.78125)"/>
    </g>
   </g>
   <g id="text_21">
    <!-- $B=0$ -->
    <g transform="translate(147.398663 62.100011) scale(0.14 -0.14)">
     <use xlink:href="#DejaVuSans-Oblique-42" transform="translate(0 0.78125)"/>
     <use xlink:href="#DejaVuSans-3d" transform="translate(88.085938 0.78125)"/>
     <use xlink:href="#DejaVuSans-30" transform="translate(191.357422 0.78125)"/>
    </g>
   </g>
   <g id="text_22">
    <!-- $B\neq0$ -->
    <g transform="translate(438.448228 62.100011) scale(0.14 -0.14)">
     <defs>
      <path id="DejaVuSans-2260" d="M 678 2906 
L 3091 2906 
L 3891 3891 
L 4281 3572 
L 3738 2906 
L 4684 2906 
L 4684 2381 
L 3309 2381 
L 2700 1631 
L 4684 1631 
L 4684 1100 
L 2266 1100 
L 1459 122 
L 1069 441 
L 1613 1100 
L 678 1100 
L 678 1631 
L 2047 1631 
L 2656 2381 
L 678 2381 
L 678 2906 
z
" transform="scale(0.015625)"/>
     </defs>
     <use xlink:href="#DejaVuSans-Oblique-42" transform="translate(0 0.78125)"/>
     <use xlink:href="#DejaVuSans-2260" transform="translate(88.085938 0.78125)"/>
     <use xlink:href="#DejaVuSans-30" transform="translate(191.357422 0.78125)"/>
    </g>
   </g>
   <g id="text_23">
    <!-- $m_j$ -->
    <g transform="translate(529.226924 62.100011) scale(0.1 -0.1)">
     <defs>
      <path id="DejaVuSans-Oblique-6d" d="M 5747 2113 
L 5338 0 
L 4763 0 
L 5166 2094 
Q 5191 2228 5203 2325 
Q 5216 2422 5216 2491 
Q 5216 2772 5059 2928 
Q 4903 3084 4622 3084 
Q 4203 3084 3875 2770 
Q 3547 2456 3450 1953 
L 3066 0 
L 2491 0 
L 2900 2094 
Q 2925 2209 2937 2307 
Q 2950 2406 2950 2484 
Q 2950 2769 2794 2926 
Q 2638 3084 2363 3084 
Q 1938 3084 1609 2770 
Q 1281 2456 1184 1953 
L 800 0 
L 225 0 
L 909 3500 
L 1484 3500 
L 1375 2956 
Q 1609 3263 1923 3423 
Q 2238 3584 2597 3584 
Q 2978 3584 3223 3384 
Q 3469 3184 3519 2828 
Q 3781 3197 4126 3390 
Q 4472 3584 4856 3584 
Q 5306 3584 5551 3325 
Q 5797 3066 5797 2591 
Q 5797 2488 5784 2364 
Q 5772 2241 5747 2113 
z
" transform="scale(0.015625)"/>
      <path id="DejaVuSans-Oblique-6a" d="M 928 3500 
L 1503 3500 
L 813 -63 
L 809 -78 
Q 694 -675 544 -897 
Q 403 -1106 132 -1218 
Q -138 -1331 -506 -1331 
L -722 -1331 
L -628 -844 
L -481 -844 
Q -144 -844 -1 -703 
Q 141 -563 238 -63 
L 928 3500 
z
M 1197 4863 
L 1772 4863 
L 1631 4134 
L 1056 4134 
L 1197 4863 
z
" transform="scale(0.015625)"/>
     </defs>
     <use xlink:href="#DejaVuSans-Oblique-6d"/>
     <use xlink:href="#DejaVuSans-Oblique-6a" transform="translate(97.412109 -16.40625) scale(0.7)"/>
    </g>
   </g>
   <g id="text_24">
    <!-- accoppiamento L–S -->
    <g transform="translate(259.66298 402.719226) scale(0.095 -0.095)">
     <defs>
      <path id="DejaVuSans-4c" d="M 628 4666 
L 1259 4666 
L 1259 531 
L 3531 531 
L 3531 0 
L 628 0 
L 628 4666 
z
" transform="scale(0.015625)"/>
      <path id="DejaVuSans-2013" d="M 313 1978 
L 2888 1978 
L 2888 1528 
L 313 1528 
L 313 1978 
z
" transform="scale(0.015625)"/>
      <path id="DejaVuSans-53" d="M 3425 4513 
L 3425 3897 
Q 3066 4069 2747 4153 
Q 2428 4238 2131 4238 
Q 1616 4238 1336 4038 
Q 1056 3838 1056 3469 
Q 1056 3159 1242 3001 
Q 1428 2844 1947 2747 
L 2328 2669 
Q 3034 2534 3370 2195 
Q 3706 1856 3706 1288 
Q 3706 609 3251 259 
Q 2797 -91 1919 -91 
Q 1588 -91 1214 -16 
Q 841 59 441 206 
L 441 856 
Q 825 641 1194 531 
Q 1563 422 1919 422 
Q 2459 422 2753 634 
Q 3047 847 3047 1241 
Q 3047 1584 2836 1778 
Q 2625 1972 2144 2069 
L 1759 2144 
Q 1053 2284 737 2584 
Q 422 2884 422 3419 
Q 422 4038 858 4394 
Q 1294 4750 2059 4750 
Q 2388 4750 2728 4690 
Q 3069 4631 3425 4513 
z
" transform="scale(0.015625)"/>
     </defs>
     <use xlink:href="#DejaVuSans-61"/>
     <use xlink:href="#DejaVuSans-63" transform="translate(61.279297 0)"/>
     <use xlink:href="#DejaVuSans-63" transform="translate(116.259766 0)"/>
     <use xlink:href="#DejaVuSans-6f" transform="translate(171.240234 0)"/>
     <use xlink:href="#DejaVuSans-70" transform="translate(232.421875 0)"/>
     <use xlink:href="#DejaVuSans-70" transform="translate(295.898438 0)"/>
     <use xlink:href="#DejaVuSans-69" transform="translate(359.375 0)"/>
     <use xlink:href="#DejaVuSans-61" transform="translate(387.158203 0)"/>
     <use xlink:href="#DejaVuSans-6d" transform="translate(448.4375 0)"/>
     <use xlink:href="#DejaVuSans-65" transform="translate(545.849609 0)"/>
     <use xlink:href="#DejaVuSans-6e" transform="translate(607.373047 0)"/>
     <use xlink:href="#DejaVuSans-74" transform="translate(670.751953 0)"/>
     <use xlink:href="#DejaVuSans-6f" transform="translate(709.960938 0)"/>
     <use xlink:href="#DejaVuSans-20" transform="translate(771.142578 0)"/>
     <use xlink:href="#DejaVuSans-4c" transform="translate(802.929688 0)"/>
     <use xlink:href="#DejaVuSans-2013" transform="translate(858.642578 0)"/>
     <use xlink:href="#DejaVuSans-53" transform="translate(908.642578 0)"/>
    </g>
   </g>
   <g id="text_25">
    <!-- accoppiamento con il campo esterno -->
    <g transform="translate(368.421744 402.719226) scale(0.095 -0.095)">
     <use xlink:href="#DejaVuSans-61"/>
     <use xlink:href="#DejaVuSans-63" transform="translate(61.279297 0)"/>
     <use xlink:href="#DejaVuSans-63" transform="translate(116.259766 0)"/>
     <use xlink:href="#DejaVuSans-6f" transform="translate(171.240234 0)"/>
     <use xlink:href="#DejaVuSans-70" transform="translate(232.421875 0)"/>
     <use xlink:href="#DejaVuSans-70" transform="translate(295.898438 0)"/>
     <use xlink:href="#DejaVuSans-69" transform="translate(359.375 0)"/>
     <use xlink:href="#DejaVuSans-61" transform="translate(387.158203 0)"/>
     <use xlink:href="#DejaVuSans-6d" transform="translate(448.4375 0)"/>
     <use xlink:href="#DejaVuSans-65" transform="translate(545.849609 0)"/>
     <use xlink:href="#DejaVuSans-6e" transform="translate(607.373047 0)"/>
     <use xlink:href="#DejaVuSans-74" transform="translate(670.751953 0)"/>
     <use xlink:href="#DejaVuSans-6f" transform="translate(709.960938 0)"/>
     <use xlink:href="#DejaVuSans-20" transform="translate(771.142578 0)"/>
     <use xlink:href="#DejaVuSans-63" transform="translate(802.929688 0)"/>
     <use xlink:href="#DejaVuSans-6f" transform="translate(857.910156 0)"/>
     <use xlink:href="#DejaVuSans-6e" transform="translate(919.091797 0)"/>
     <use xlink:href="#DejaVuSans-20" transform="translate(982.470703 0)"/>
     <use xlink:href="#DejaVuSans-69" transform="translate(1014.257812 0)"/>
     <use xlink:href="#DejaVuSans-6c" transform="translate(1042.041016 0)"/>
     <use xlink:href="#DejaVuSans-20" transform="translate(1069.824219 0)"/>
     <use xlink:href="#DejaVuSans-63" transform="translate(1101.611328 0)"/>
     <use xlink:href="#DejaVuSans-61" transform="translate(1156.591797 0)"/>
     <use xlink:href="#DejaVuSans-6d" transform="translate(1217.871094 0)"/>
     <use xlink:href="#DejaVuSans-70" transform="translate(1315.283203 0)"/>
     <use xlink:href="#DejaVuSans-6f" transform="translate(1378.759766 0)"/>
     <use xlink:href="#DejaVuSans-20" transform="translate(1439.941406 0)"/>
     <use xlink:href="#DejaVuSans-65" transform="translate(1471.728516 0)"/>
     <use xlink:href="#DejaVuSans-73" transform="translate(1533.251953 0)"/>
     <use xlink:href="#DejaVuSans-74" transform="translate(1585.351562 0)"/>
     <use xlink:href="#DejaVuSans-65" transform="translate(1624.560547 0)"/>
     <use xlink:href="#DejaVuSans-72" transform="translate(1686.083984 0)"/>
     <use xlink:href="#DejaVuSans-6e" transform="translate(1725.447266 0)"/>
     <use xlink:href="#DejaVuSans-6f" transform="translate(1788.826172 0)"/>
    </g>
   </g>
   <g id="text_26">
    <!-- La distanza tra sottolivelli adiacenti dipende dal fattore di Landé del multipletto. -->
    <g transform="translate(156.46314 424.377096) scale(0.1 -0.1)">
     <defs>
      <path id="DejaVuSans-7a" d="M 353 3500 
L 3084 3500 
L 3084 2975 
L 922 459 
L 3084 459 
L 3084 0 
L 275 0 
L 275 525 
L 2438 3041 
L 353 3041 
L 353 3500 
z
" transform="scale(0.015625)"/>
      <path id="DejaVuSans-76" d="M 191 3500 
L 800 3500 
L 1894 563 
L 2988 3500 
L 3597 3500 
L 2284 0 
L 1503 0 
L 191 3500 
z
" transform="scale(0.015625)"/>
      <path id="DejaVuSans-e9" d="M 3597 1894 
L 3597 1613 
L 953 1613 
Q 991 1019 1311 708 
Q 1631 397 2203 397 
Q 2534 397 2845 478 
Q 3156 559 3463 722 
L 3463 178 
Q 3153 47 2828 -22 
Q 2503 -91 2169 -91 
Q 1331 -91 842 396 
Q 353 884 353 1716 
Q 353 2575 817 3079 
Q 1281 3584 2069 3584 
Q 2775 3584 3186 3129 
Q 3597 2675 3597 1894 
z
M 3022 2063 
Q 3016 2534 2758 2815 
Q 2500 3097 2075 3097 
Q 1594 3097 1305 2825 
Q 1016 2553 972 2059 
L 3022 2063 
z
M 2466 5119 
L 3088 5119 
L 2070 3944 
L 1591 3944 
L 2466 5119 
z
" transform="scale(0.015625)"/>
      <path id="DejaVuSans-75" d="M 544 1381 
L 544 3500 
L 1119 3500 
L 1119 1403 
Q 1119 906 1312 657 
Q 1506 409 1894 409 
Q 2359 409 2629 706 
Q 2900 1003 2900 1516 
L 2900 3500 
L 3475 3500 
L 3475 0 
L 2900 0 
L 2900 538 
Q 2691 219 2414 64 
Q 2138 -91 1772 -91 
Q 1169 -91 856 284 
Q 544 659 544 1381 
z
M 1991 3584 
L 1991 3584 
z
" transform="scale(0.015625)"/>
     </defs>
     <use xlink:href="#DejaVuSans-4c"/>
     <use xlink:href="#DejaVuSans-61" transform="translate(55.712891 0)"/>
     <use xlink:href="#DejaVuSans-20" transform="translate(116.992188 0)"/>
     <use xlink:href="#DejaVuSans-64" transform="translate(148.779297 0)"/>
     <use xlink:href="#DejaVuSans-69" transform="translate(212.255859 0)"/>
     <use xlink:href="#DejaVuSans-73" transform="translate(240.039062 0)"/>
     <use xlink:href="#DejaVuSans-74" transform="translate(292.138672 0)"/>
     <use xlink:href="#DejaVuSans-61" transform="translate(331.347656 0)"/>
     <use xlink:href="#DejaVuSans-6e" transform="translate(392.626953 0)"/>
     <use xlink:href="#DejaVuSans-7a" transform="translate(456.005859 0)"/>
     <use xlink:href="#DejaVuSans-61" transform="translate(508.496094 0)"/>
     <use xlink:href="#DejaVuSans-20" transform="translate(569.775391 0)"/>
     <use xlink:href="#DejaVuSans-74" transform="translate(601.5625 0)"/>
     <use xlink:href="#DejaVuSans-72" transform="translate(640.771484 0)"/>
     <use xlink:href="#DejaVuSans-61" transform="translate(681.884766 0)"/>
     <use xlink:href="#DejaVuSans-20" transform="translate(743.164062 0)"/>
     <use xlink:href="#DejaVuSans-73" transform="translate(774.951172 0)"/>
     <use xlink:href="#DejaVuSans-6f" transform="translate(827.050781 0)"/>
     <use xlink:href="#DejaVuSans-74" transform="translate(888.232422 0)"/>
     <use xlink:href="#DejaVuSans-74" transform="translate(927.441406 0)"/>
     <use xlink:href="#DejaVuSans-6f" transform="translate(966.650391 0)"/>
     <use xlink:href="#DejaVuSans-6c" transform="translate(1027.832031 0)"/>
     <use xlink:href="#DejaVuSans-69" transform="translate(1055.615234 0)"/>
     <use xlink:href="#DejaVuSans-76" transform="translate(1083.398438 0)"/>
     <use xlink:href="#DejaVuSans-65" transform="translate(1142.578125 0)"/>
     <use xlink:href="#DejaVuSans-6c" transform="translate(1204.101562 0)"/>
     <use xlink:href="#DejaVuSans-6c" transform="translate(1231.884766 0)"/>
     <use xlink:href="#DejaVuSans-69" transform="translate(1259.667969 0)"/>
     <use xlink:href="#DejaVuSans-20" transform="translate(1287.451172 0)"/>
     <use xlink:href="#DejaVuSans-61" transform="translate(1319.238281 0)"/>
     <use xlink:href="#DejaVuSans-64" transform="translate(1380.517578 0)"/>
     <use xlink:href="#DejaVuSans-69" transform="translate(1443.994141 0)"/>
     <use xlink:href="#DejaVuSans-61" transform="translate(1471.777344 0)"/>
     <use xlink:href="#DejaVuSans-63" transform="translate(1533.056641 0)"/>
     <use xlink:href="#DejaVuSans-65" transform="translate(1588.037109 0)"/>
     <use xlink:href="#DejaVuSans-6e" transform="translate(1649.560547 0)"/>
     <use xlink:href="#DejaVuSans-74" transform="translate(1712.939453 0)"/>
     <use xlink:href="#DejaVuSans-69" transform="translate(1752.148438 0)"/>
     <use xlink:href="#DejaVuSans-20" transform="translate(1779.931641 0)"/>
     <use xlink:href="#DejaVuSans-64" transform="translate(1811.71875 0)"/>
     <use xlink:href="#DejaVuSans-69" transform="translate(1875.195312 0)"/>
     <use xlink:href="#DejaVuSans-70" transform="translate(1902.978516 0)"/>
     <use xlink:href="#DejaVuSans-65" transform="translate(1966.455078 0)"/>
     <use xlink:href="#DejaVuSans-6e" transform="translate(2027.978516 0)"/>
     <use xlink:href="#DejaVuSans-64" transform="translate(2091.357422 0)"/>
     <use xlink:href="#DejaVuSans-65" transform="translate(2154.833984 0)"/>
     <use xlink:href="#DejaVuSans-20" transform="translate(2216.357422 0)"/>
     <use xlink:href="#DejaVuSans-64" transform="translate(2248.144531 0)"/>
     <use xlink:href="#DejaVuSans-61" transform="translate(2311.621094 0)"/>
     <use xlink:href="#DejaVuSans-6c" transform="translate(2372.900391 0)"/>
     <use xlink:href="#DejaVuSans-20" transform="translate(2400.683594 0)"/>
     <use xlink:href="#DejaVuSans-66" transform="translate(2432.470703 0)"/>
     <use xlink:href="#DejaVuSans-61" transform="translate(2467.675781 0)"/>
     <use xlink:href="#DejaVuSans-74" transform="translate(2528.955078 0)"/>
     <use xlink:href="#DejaVuSans-74" transform="translate(2568.164062 0)"/>
     <use xlink:href="#DejaVuSans-6f" transform="translate(2607.373047 0)"/>
     <use xlink:href="#DejaVuSans-72" transform="translate(2668.554688 0)"/>
     <use xlink:href="#DejaVuSans-65" transform="translate(2707.417969 0)"/>
     <use xlink:href="#DejaVuSans-20" transform="translate(2768.941406 0)"/>
     <use xlink:href="#DejaVuSans-64" transform="translate(2800.728516 0)"/>
     <use xlink:href="#DejaVuSans-69" transform="translate(2864.205078 0)"/>
     <use xlink:href="#DejaVuSans-20" transform="translate(2891.988281 0)"/>
     <use xlink:href="#DejaVuSans-4c" transform="translate(2923.775391 0)"/>
     <use xlink:href="#DejaVuSans-61" transform="translate(2979.488281 0)"/>
     <use xlink:href="#DejaVuSans-6e" transform="translate(3040.767578 0)"/>
     <use xlink:href="#DejaVuSans-64" transform="translate(3104.146484 0)"/>
     <use xlink:href="#DejaVuSans-e9" transform="translate(3167.623047 0)"/>
     <use xlink:href="#DejaVuSans-20" transform="translate(3229.146484 0)"/>
     <use xlink:href="#DejaVuSans-64" transform="translate(3260.933594 0)"/>
     <use xlink:href="#DejaVuSans-65" transform="translate(3324.410156 0)"/>
     <use xlink:href="#DejaVuSans-6c" transform="translate(3385.933594 0)"/>
     <use xlink:href="#DejaVuSans-20" transform="translate(3413.716797 0)"/>
     <use xlink:href="#DejaVuSans-6d" transform="translate(3445.503906 0)"/>
     <use xlink:href="#DejaVuSans-75" transform="translate(3542.916016 0)"/>
     <use xlink:href="#DejaVuSans-6c" transform="translate(3606.294922 0)"/>
     <use xlink:href="#DejaVuSans-74" transform="translate(3634.078125 0)"/>
     <use xlink:href="#DejaVuSans-69" transform="translate(3673.287109 0)"/>
     <use xlink:href="#DejaVuSans-70" transform="translate(3701.070312 0)"/>
     <use xlink:href="#DejaVuSans-6c" transform="translate(3764.546875 0)"/>
     <use xlink:href="#DejaVuSans-65" transform="translate(3792.330078 0)"/>
     <use xlink:href="#DejaVuSans-74" transform="translate(3853.853516 0)"/>
     <use xlink:href="#DejaVuSans-74" transform="translate(3893.0625 0)"/>
     <use xlink:href="#DejaVuSans-6f" transform="translate(3932.271484 0)"/>
     <use xlink:href="#DejaVuSans-2e" transform="translate(3991.703125 0)"/>
    </g>
   </g>
   <g id="text_27">
    <!-- Effetto Zeeman sui primi livelli elettronici del sodio -->
    <g transform="translate(139.816265 18.597656) scale(0.15 -0.15)">
     <defs>
      <path id="DejaVuSans-Bold-45" d="M 588 4666 
L 3834 4666 
L 3834 3756 
L 1791 3756 
L 1791 2888 
L 3713 2888 
L 3713 1978 
L 1791 1978 
L 1791 909 
L 3903 909 
L 3903 0 
L 588 0 
L 588 4666 
z
" transform="scale(0.015625)"/>
      <path id="DejaVuSans-Bold-66" d="M 2841 4863 
L 2841 4128 
L 2222 4128 
Q 1984 4128 1890 4042 
Q 1797 3956 1797 3744 
L 1797 3500 
L 2753 3500 
L 2753 2700 
L 1797 2700 
L 1797 0 
L 678 0 
L 678 2700 
L 122 2700 
L 122 3500 
L 678 3500 
L 678 3744 
Q 678 4316 997 4589 
Q 1316 4863 1984 4863 
L 2841 4863 
z
" transform="scale(0.015625)"/>
      <path id="DejaVuSans-Bold-65" d="M 4031 1759 
L 4031 1441 
L 1416 1441 
Q 1456 1047 1700 850 
Q 1944 653 2381 653 
Q 2734 653 3104 758 
Q 3475 863 3866 1075 
L 3866 213 
Q 3469 63 3072 -14 
Q 2675 -91 2278 -91 
Q 1328 -91 801 392 
Q 275 875 275 1747 
Q 275 2603 792 3093 
Q 1309 3584 2216 3584 
Q 3041 3584 3536 3087 
Q 4031 2591 4031 1759 
z
M 2881 2131 
Q 2881 2450 2695 2645 
Q 2509 2841 2209 2841 
Q 1884 2841 1681 2658 
Q 1478 2475 1428 2131 
L 2881 2131 
z
" transform="scale(0.015625)"/>
      <path id="DejaVuSans-Bold-74" d="M 1759 4494 
L 1759 3500 
L 2913 3500 
L 2913 2700 
L 1759 2700 
L 1759 1216 
Q 1759 972 1856 886 
Q 1953 800 2241 800 
L 2816 800 
L 2816 0 
L 1856 0 
Q 1194 0 917 276 
Q 641 553 641 1216 
L 641 2700 
L 84 2700 
L 84 3500 
L 641 3500 
L 641 4494 
L 1759 4494 
z
" transform="scale(0.015625)"/>
      <path id="DejaVuSans-Bold-6f" d="M 2203 2784 
Q 1831 2784 1636 2517 
Q 1441 2250 1441 1747 
Q 1441 1244 1636 976 
Q 1831 709 2203 709 
Q 2569 709 2762 976 
Q 2956 1244 2956 1747 
Q 2956 2250 2762 2517 
Q 2569 2784 2203 2784 
z
M 2203 3584 
Q 3106 3584 3614 3096 
Q 4122 2609 4122 1747 
Q 4122 884 3614 396 
Q 3106 -91 2203 -91 
Q 1297 -91 786 396 
Q 275 884 275 1747 
Q 275 2609 786 3096 
Q 1297 3584 2203 3584 
z
" transform="scale(0.015625)"/>
      <path id="DejaVuSans-Bold-20" transform="scale(0.015625)"/>
      <path id="DejaVuSans-Bold-5a" d="M 359 4666 
L 4281 4666 
L 4281 3938 
L 1778 909 
L 4353 909 
L 4353 0 
L 288 0 
L 288 728 
L 2791 3756 
L 359 3756 
L 359 4666 
z
" transform="scale(0.015625)"/>
      <path id="DejaVuSans-Bold-6d" d="M 3781 2919 
Q 3994 3244 4286 3414 
Q 4578 3584 4928 3584 
Q 5531 3584 5847 3212 
Q 6163 2841 6163 2131 
L 6163 0 
L 5038 0 
L 5038 1825 
Q 5041 1866 5042 1909 
Q 5044 1953 5044 2034 
Q 5044 2406 4934 2573 
Q 4825 2741 4581 2741 
Q 4263 2741 4089 2478 
Q 3916 2216 3909 1719 
L 3909 0 
L 2784 0 
L 2784 1825 
Q 2784 2406 2684 2573 
Q 2584 2741 2328 2741 
Q 2006 2741 1831 2477 
Q 1656 2213 1656 1722 
L 1656 0 
L 531 0 
L 531 3500 
L 1656 3500 
L 1656 2988 
Q 1863 3284 2130 3434 
Q 2397 3584 2719 3584 
Q 3081 3584 3359 3409 
Q 3638 3234 3781 2919 
z
" transform="scale(0.015625)"/>
      <path id="DejaVuSans-Bold-61" d="M 2106 1575 
Q 1756 1575 1579 1456 
Q 1403 1338 1403 1106 
Q 1403 894 1545 773 
Q 1688 653 1941 653 
Q 2256 653 2472 879 
Q 2688 1106 2688 1447 
L 2688 1575 
L 2106 1575 
z
M 3816 1997 
L 3816 0 
L 2688 0 
L 2688 519 
Q 2463 200 2181 54 
Q 1900 -91 1497 -91 
Q 953 -91 614 226 
Q 275 544 275 1050 
Q 275 1666 698 1953 
Q 1122 2241 2028 2241 
L 2688 2241 
L 2688 2328 
Q 2688 2594 2478 2717 
Q 2269 2841 1825 2841 
Q 1466 2841 1156 2769 
Q 847 2697 581 2553 
L 581 3406 
Q 941 3494 1303 3539 
Q 1666 3584 2028 3584 
Q 2975 3584 3395 3211 
Q 3816 2838 3816 1997 
z
" transform="scale(0.015625)"/>
      <path id="DejaVuSans-Bold-6e" d="M 4056 2131 
L 4056 0 
L 2931 0 
L 2931 347 
L 2931 1631 
Q 2931 2084 2911 2256 
Q 2891 2428 2841 2509 
Q 2775 2619 2662 2680 
Q 2550 2741 2406 2741 
Q 2056 2741 1856 2470 
Q 1656 2200 1656 1722 
L 1656 0 
L 538 0 
L 538 3500 
L 1656 3500 
L 1656 2988 
Q 1909 3294 2193 3439 
Q 2478 3584 2822 3584 
Q 3428 3584 3742 3212 
Q 4056 2841 4056 2131 
z
" transform="scale(0.015625)"/>
      <path id="DejaVuSans-Bold-73" d="M 3272 3391 
L 3272 2541 
Q 2913 2691 2578 2766 
Q 2244 2841 1947 2841 
Q 1628 2841 1473 2761 
Q 1319 2681 1319 2516 
Q 1319 2381 1436 2309 
Q 1553 2238 1856 2203 
L 2053 2175 
Q 2913 2066 3209 1816 
Q 3506 1566 3506 1031 
Q 3506 472 3093 190 
Q 2681 -91 1863 -91 
Q 1516 -91 1145 -36 
Q 775 19 384 128 
L 384 978 
Q 719 816 1070 734 
Q 1422 653 1784 653 
Q 2113 653 2278 743 
Q 2444 834 2444 1013 
Q 2444 1163 2330 1236 
Q 2216 1309 1875 1350 
L 1678 1375 
Q 931 1469 631 1722 
Q 331 1975 331 2491 
Q 331 3047 712 3315 
Q 1094 3584 1881 3584 
Q 2191 3584 2531 3537 
Q 2872 3491 3272 3391 
z
" transform="scale(0.015625)"/>
      <path id="DejaVuSans-Bold-75" d="M 500 1363 
L 500 3500 
L 1625 3500 
L 1625 3150 
Q 1625 2866 1622 2436 
Q 1619 2006 1619 1863 
Q 1619 1441 1641 1255 
Q 1663 1069 1716 984 
Q 1784 875 1895 815 
Q 2006 756 2150 756 
Q 2500 756 2700 1025 
Q 2900 1294 2900 1772 
L 2900 3500 
L 4019 3500 
L 4019 0 
L 2900 0 
L 2900 506 
Q 2647 200 2364 54 
Q 2081 -91 1741 -91 
Q 1134 -91 817 281 
Q 500 653 500 1363 
z
" transform="scale(0.015625)"/>
      <path id="DejaVuSans-Bold-69" d="M 538 3500 
L 1656 3500 
L 1656 0 
L 538 0 
L 538 3500 
z
M 538 4863 
L 1656 4863 
L 1656 3950 
L 538 3950 
L 538 4863 
z
" transform="scale(0.015625)"/>
      <path id="DejaVuSans-Bold-70" d="M 1656 506 
L 1656 -1331 
L 538 -1331 
L 538 3500 
L 1656 3500 
L 1656 2988 
Q 1888 3294 2169 3439 
Q 2450 3584 2816 3584 
Q 3463 3584 3878 3070 
Q 4294 2556 4294 1747 
Q 4294 938 3878 423 
Q 3463 -91 2816 -91 
Q 2450 -91 2169 54 
Q 1888 200 1656 506 
z
M 2400 2772 
Q 2041 2772 1848 2508 
Q 1656 2244 1656 1747 
Q 1656 1250 1848 986 
Q 2041 722 2400 722 
Q 2759 722 2948 984 
Q 3138 1247 3138 1747 
Q 3138 2247 2948 2509 
Q 2759 2772 2400 2772 
z
" transform="scale(0.015625)"/>
      <path id="DejaVuSans-Bold-72" d="M 3138 2547 
Q 2991 2616 2845 2648 
Q 2700 2681 2553 2681 
Q 2122 2681 1889 2404 
Q 1656 2128 1656 1613 
L 1656 0 
L 538 0 
L 538 3500 
L 1656 3500 
L 1656 2925 
Q 1872 3269 2151 3426 
Q 2431 3584 2822 3584 
Q 2878 3584 2943 3579 
Q 3009 3575 3134 3559 
L 3138 2547 
z
" transform="scale(0.015625)"/>
      <path id="DejaVuSans-Bold-6c" d="M 538 4863 
L 1656 4863 
L 1656 0 
L 538 0 
L 538 4863 
z
" transform="scale(0.015625)"/>
      <path id="DejaVuSans-Bold-76" d="M 97 3500 
L 1216 3500 
L 2088 1081 
L 2956 3500 
L 4078 3500 
L 2700 0 
L 1472 0 
L 97 3500 
z
" transform="scale(0.015625)"/>
      <path id="DejaVuSans-Bold-63" d="M 3366 3391 
L 3366 2478 
Q 3138 2634 2908 2709 
Q 2678 2784 2431 2784 
Q 1963 2784 1702 2511 
Q 1441 2238 1441 1747 
Q 1441 1256 1702 982 
Q 1963 709 2431 709 
Q 2694 709 2930 787 
Q 3166 866 3366 1019 
L 3366 103 
Q 3103 6 2833 -42 
Q 2563 -91 2291 -91 
Q 1344 -91 809 395 
Q 275 881 275 1747 
Q 275 2613 809 3098 
Q 1344 3584 2291 3584 
Q 2566 3584 2833 3536 
Q 3100 3488 3366 3391 
z
" transform="scale(0.015625)"/>
      <path id="DejaVuSans-Bold-64" d="M 2919 2988 
L 2919 4863 
L 4044 4863 
L 4044 0 
L 2919 0 
L 2919 506 
Q 2688 197 2409 53 
Q 2131 -91 1766 -91 
Q 1119 -91 703 423 
Q 288 938 288 1747 
Q 288 2556 703 3070 
Q 1119 3584 1766 3584 
Q 2128 3584 2408 3439 
Q 2688 3294 2919 2988 
z
M 2181 722 
Q 2541 722 2730 984 
Q 2919 1247 2919 1747 
Q 2919 2247 2730 2509 
Q 2541 2772 2181 2772 
Q 1825 2772 1636 2509 
Q 1447 2247 1447 1747 
Q 1447 1247 1636 984 
Q 1825 722 2181 722 
z
" transform="scale(0.015625)"/>
     </defs>
     <use xlink:href="#DejaVuSans-Bold-45"/>
     <use xlink:href="#DejaVuSans-Bold-66" transform="translate(68.310547 0)"/>
     <use xlink:href="#DejaVuSans-Bold-66" transform="translate(111.816406 0)"/>
     <use xlink:href="#DejaVuSans-Bold-65" transform="translate(155.322266 0)"/>
     <use xlink:href="#DejaVuSans-Bold-74" transform="translate(223.144531 0)"/>
     <use xlink:href="#DejaVuSans-Bold-74" transform="translate(270.947266 0)"/>
     <use xlink:href="#DejaVuSans-Bold-6f" transform="translate(318.75 0)"/>
     <use xlink:href="#DejaVuSans-Bold-20" transform="translate(387.451172 0)"/>
     <use xlink:href="#DejaVuSans-Bold-5a" transform="translate(422.265625 0)"/>
     <use xlink:href="#DejaVuSans-Bold-65" transform="translate(494.775391 0)"/>
     <use xlink:href="#DejaVuSans-Bold-65" transform="translate(562.597656 0)"/>
     <use xlink:href="#DejaVuSans-Bold-6d" transform="translate(630.419922 0)"/>
     <use xlink:href="#DejaVuSans-Bold-61" transform="translate(734.619141 0)"/>
     <use xlink:href="#DejaVuSans-Bold-6e" transform="translate(802.099609 0)"/>
     <use xlink:href="#DejaVuSans-Bold-20" transform="translate(873.291016 0)"/>
     <use xlink:href="#DejaVuSans-Bold-73" transform="translate(908.105469 0)"/>
     <use xlink:href="#DejaVuSans-Bold-75" transform="translate(967.626953 0)"/>
     <use xlink:href="#DejaVuSans-Bold-69" transform="translate(1038.818359 0)"/>
     <use xlink:href="#DejaVuSans-Bold-20" transform="translate(1073.095703 0)"/>
     <use xlink:href="#DejaVuSans-Bold-70" transform="translate(1107.910156 0)"/>
     <use xlink:href="#DejaVuSans-Bold-72" transform="translate(1179.492188 0)"/>
     <use xlink:href="#DejaVuSans-Bold-69" transform="translate(1228.808594 0)"/>
     <use xlink:href="#DejaVuSans-Bold-6d" transform="translate(1263.085938 0)"/>
     <use xlink:href="#DejaVuSans-Bold-69" transform="translate(1367.285156 0)"/>
     <use xlink:href="#DejaVuSans-Bold-20" transform="translate(1401.5625 0)"/>
     <use xlink:href="#DejaVuSans-Bold-6c" transform="translate(1436.376953 0)"/>
     <use xlink:href="#DejaVuSans-Bold-69" transform="translate(1470.654297 0)"/>
     <use xlink:href="#DejaVuSans-Bold-76" transform="translate(1504.931641 0)"/>
     <use xlink:href="#DejaVuSans-Bold-65" transform="translate(1570.117188 0)"/>
     <use xlink:href="#DejaVuSans-Bold-6c" transform="translate(1637.939453 0)"/>
     <use xlink:href="#DejaVuSans-Bold-6c" transform="translate(1672.216797 0)"/>
     <use xlink:href="#DejaVuSans-Bold-69" transform="translate(1706.494141 0)"/>
     <use xlink:href="#DejaVuSans-Bold-20" transform="translate(1740.771484 0)"/>
     <use xlink:href="#DejaVuSans-Bold-65" transform="translate(1775.585938 0)"/>
     <use xlink:href="#DejaVuSans-Bold-6c" transform="translate(1843.408203 0)"/>
     <use xlink:href="#DejaVuSans-Bold-65" transform="translate(1877.685547 0)"/>
     <use xlink:href="#DejaVuSans-Bold-74" transform="translate(1945.507812 0)"/>
     <use xlink:href="#DejaVuSans-Bold-74" transform="translate(1993.310547 0)"/>
     <use xlink:href="#DejaVuSans-Bold-72" transform="translate(2041.113281 0)"/>
     <use xlink:href="#DejaVuSans-Bold-6f" transform="translate(2090.429688 0)"/>
     <use xlink:href="#DejaVuSans-Bold-6e" transform="translate(2159.130859 0)"/>
     <use xlink:href="#DejaVuSans-Bold-69" transform="translate(2230.322266 0)"/>
     <use xlink:href="#DejaVuSans-Bold-63" transform="translate(2264.599609 0)"/>
     <use xlink:href="#DejaVuSans-Bold-69" transform="translate(2323.876953 0)"/>
     <use xlink:href="#DejaVuSans-Bold-20" transform="translate(2358.154297 0)"/>
     <use xlink:href="#DejaVuSans-Bold-64" transform="translate(2392.96875 0)"/>
     <use xlink:href="#DejaVuSans-Bold-65" transform="translate(2464.550781 0)"/>
     <use xlink:href="#DejaVuSans-Bold-6c" transform="translate(2532.373047 0)"/>
     <use xlink:href="#DejaVuSans-Bold-20" transform="translate(2566.650391 0)"/>
     <use xlink:href="#DejaVuSans-Bold-73" transform="translate(2601.464844 0)"/>
     <use xlink:href="#DejaVuSans-Bold-6f" transform="translate(2660.986328 0)"/>
     <use xlink:href="#DejaVuSans-Bold-64" transform="translate(2729.6875 0)"/>
     <use xlink:href="#DejaVuSans-Bold-69" transform="translate(2801.269531 0)"/>
     <use xlink:href="#DejaVuSans-Bold-6f" transform="translate(2835.546875 0)"/>
    </g>
   </g>
  </g>
 </g>
 <defs>
  <clipPath id="p1979ca14d1">
   <rect x="17.257359" y="30.597656" width="680.76" height="421.344"/>
  </clipPath>
 </defs>
</svg>
