<?xml version="1.0" encoding="utf-8" standalone="no"?>
<!DOCTYPE svg PUBLIC "-//W3C//DTD SVG 1.1//EN"
  "http://www.w3.org/Graphics/SVG/1.1/DTD/svg11.dtd">
<svg xmlns:xlink="http://www.w3.org/1999/xlink" width="825.690625pt" height="470.797344pt" viewBox="0 0 825.690625 470.797344" xmlns="http://www.w3.org/2000/svg" version="1.1">
 <metadata>
  <rdf:RDF xmlns:dc="http://purl.org/dc/elements/1.1/" xmlns:cc="http://creativecommons.org/ns#" xmlns:rdf="http://www.w3.org/1999/02/22-rdf-syntax-ns#">
   <cc:Work>
    <dc:type rdf:resource="http://purl.org/dc/dcmitype/StillImage"/>
    <dc:date>2026-06-16T11:09:17.225416</dc:date>
    <dc:format>image/svg+xml</dc:format>
    <dc:creator>
     <cc:Agent>
      <dc:title>Matplotlib v3.10.8, https://matplotlib.org/</dc:title>
     </cc:Agent>
    </dc:creator>
   </cc:Work>
  </rdf:RDF>
 </metadata>
 <defs>
  <style type="text/css">*{stroke-linejoin: round; stroke-linecap: butt}</style>
 </defs>
 <g id="figure_1">
  <g id="patch_1">
   <path d="M 0 470.797344 
L 825.690625 470.797344 
L 825.690625 0 
L 0 0 
z
" style="fill: #ffffff"/>
  </g>
  <g id="axes_1">
   <g id="patch_2">
    <path d="M 110.445313 418.677656 
L 735.405313 418.677656 
L 735.405313 30.597656 
L 110.445313 30.597656 
z
" style="fill: #ffffff"/>
   </g>
   <g id="matplotlib.axis_1">
    <g id="xtick_1">
     <g id="line2d_1">
      <path d="M 110.445313 418.677656 
L 110.445313 30.597656 
" clip-path="url(#p1c238feccf)" style="fill: none; stroke: #b0b0b0; stroke-opacity: 0.15; stroke-width: 0.8; stroke-linecap: square"/>
     </g>
     <g id="line2d_2">
      <defs>
       <path id="mc3b1ebff29" d="M 0 0 
L 0 3.5 
" style="stroke: #000000; stroke-width: 0.8"/>
      </defs>
      <g>
       <use xlink:href="#mc3b1ebff29" x="110.445313" y="418.677656" style="stroke: #000000; stroke-width: 0.8"/>
      </g>
     </g>
     <g id="text_1">
      <!-- 0 -->
      <g transform="translate(107.264063 433.276094) scale(0.1 -0.1)">
       <defs>
        <path id="DejaVuSans-30" d="M 2034 4250 
Q 1547 4250 1301 3770 
Q 1056 3291 1056 2328 
Q 1056 1369 1301 889 
Q 1547 409 2034 409 
Q 2525 409 2770 889 
Q 3016 1369 3016 2328 
Q 3016 3291 2770 3770 
Q 2525 4250 2034 4250 
z
M 2034 4750 
Q 2819 4750 3233 4129 
Q 3647 3509 3647 2328 
Q 3647 1150 3233 529 
Q 2819 -91 2034 -91 
Q 1250 -91 836 529 
Q 422 1150 422 2328 
Q 422 3509 836 4129 
Q 1250 4750 2034 4750 
z
" transform="scale(0.015625)"/>
       </defs>
       <use xlink:href="#DejaVuSans-30"/>
      </g>
     </g>
    </g>
    <g id="xtick_2">
     <g id="line2d_3">
      <path d="M 247.497944 418.677656 
L 247.497944 30.597656 
" clip-path="url(#p1c238feccf)" style="fill: none; stroke: #b0b0b0; stroke-opacity: 0.15; stroke-width: 0.8; stroke-linecap: square"/>
     </g>
     <g id="line2d_4">
      <g>
       <use xlink:href="#mc3b1ebff29" x="247.497944" y="418.677656" style="stroke: #000000; stroke-width: 0.8"/>
      </g>
     </g>
     <g id="text_2">
      <!-- 5 -->
      <g transform="translate(244.316694 433.276094) scale(0.1 -0.1)">
       <defs>
        <path id="DejaVuSans-35" d="M 691 4666 
L 3169 4666 
L 3169 4134 
L 1269 4134 
L 1269 2991 
Q 1406 3038 1543 3061 
Q 1681 3084 1819 3084 
Q 2600 3084 3056 2656 
Q 3513 2228 3513 1497 
Q 3513 744 3044 326 
Q 2575 -91 1722 -91 
Q 1428 -91 1123 -41 
Q 819 9 494 109 
L 494 744 
Q 775 591 1075 516 
Q 1375 441 1709 441 
Q 2250 441 2565 725 
Q 2881 1009 2881 1497 
Q 2881 1984 2565 2268 
Q 2250 2553 1709 2553 
Q 1456 2553 1204 2497 
Q 953 2441 691 2322 
L 691 4666 
z
" transform="scale(0.015625)"/>
       </defs>
       <use xlink:href="#DejaVuSans-35"/>
      </g>
     </g>
    </g>
    <g id="xtick_3">
     <g id="line2d_5">
      <path d="M 384.550576 418.677656 
L 384.550576 30.597656 
" clip-path="url(#p1c238feccf)" style="fill: none; stroke: #b0b0b0; stroke-opacity: 0.15; stroke-width: 0.8; stroke-linecap: square"/>
     </g>
     <g id="line2d_6">
      <g>
       <use xlink:href="#mc3b1ebff29" x="384.550576" y="418.677656" style="stroke: #000000; stroke-width: 0.8"/>
      </g>
     </g>
     <g id="text_3">
      <!-- 10 -->
      <g transform="translate(378.188076 433.276094) scale(0.1 -0.1)">
       <defs>
        <path id="DejaVuSans-31" d="M 794 531 
L 1825 531 
L 1825 4091 
L 703 3866 
L 703 4441 
L 1819 4666 
L 2450 4666 
L 2450 531 
L 3481 531 
L 3481 0 
L 794 0 
L 794 531 
z
" transform="scale(0.015625)"/>
       </defs>
       <use xlink:href="#DejaVuSans-31"/>
       <use xlink:href="#DejaVuSans-30" transform="translate(63.623047 0)"/>
      </g>
     </g>
    </g>
    <g id="xtick_4">
     <g id="line2d_7">
      <path d="M 521.603207 418.677656 
L 521.603207 30.597656 
" clip-path="url(#p1c238feccf)" style="fill: none; stroke: #b0b0b0; stroke-opacity: 0.15; stroke-width: 0.8; stroke-linecap: square"/>
     </g>
     <g id="line2d_8">
      <g>
       <use xlink:href="#mc3b1ebff29" x="521.603207" y="418.677656" style="stroke: #000000; stroke-width: 0.8"/>
      </g>
     </g>
     <g id="text_4">
      <!-- 15 -->
      <g transform="translate(515.240707 433.276094) scale(0.1 -0.1)">
       <use xlink:href="#DejaVuSans-31"/>
       <use xlink:href="#DejaVuSans-35" transform="translate(63.623047 0)"/>
      </g>
     </g>
    </g>
    <g id="xtick_5">
     <g id="line2d_9">
      <path d="M 658.655839 418.677656 
L 658.655839 30.597656 
" clip-path="url(#p1c238feccf)" style="fill: none; stroke: #b0b0b0; stroke-opacity: 0.15; stroke-width: 0.8; stroke-linecap: square"/>
     </g>
     <g id="line2d_10">
      <g>
       <use xlink:href="#mc3b1ebff29" x="658.655839" y="418.677656" style="stroke: #000000; stroke-width: 0.8"/>
      </g>
     </g>
     <g id="text_5">
      <!-- 20 -->
      <g transform="translate(652.293339 433.276094) scale(0.1 -0.1)">
       <defs>
        <path id="DejaVuSans-32" d="M 1228 531 
L 3431 531 
L 3431 0 
L 469 0 
L 469 531 
Q 828 903 1448 1529 
Q 2069 2156 2228 2338 
Q 2531 2678 2651 2914 
Q 2772 3150 2772 3378 
Q 2772 3750 2511 3984 
Q 2250 4219 1831 4219 
Q 1534 4219 1204 4116 
Q 875 4013 500 3803 
L 500 4441 
Q 881 4594 1212 4672 
Q 1544 4750 1819 4750 
Q 2544 4750 2975 4387 
Q 3406 4025 3406 3419 
Q 3406 3131 3298 2873 
Q 3191 2616 2906 2266 
Q 2828 2175 2409 1742 
Q 1991 1309 1228 531 
z
" transform="scale(0.015625)"/>
       </defs>
       <use xlink:href="#DejaVuSans-32"/>
       <use xlink:href="#DejaVuSans-30" transform="translate(63.623047 0)"/>
      </g>
     </g>
    </g>
    <g id="text_6">
     <!-- energia del fotone (eV) -->
     <g transform="translate(365.118281 446.954219) scale(0.1 -0.1)">
      <defs>
       <path id="DejaVuSans-65" d="M 3597 1894 
L 3597 1613 
L 953 1613 
Q 991 1019 1311 708 
Q 1631 397 2203 397 
Q 2534 397 2845 478 
Q 3156 559 3463 722 
L 3463 178 
Q 3153 47 2828 -22 
Q 2503 -91 2169 -91 
Q 1331 -91 842 396 
Q 353 884 353 1716 
Q 353 2575 817 3079 
Q 1281 3584 2069 3584 
Q 2775 3584 3186 3129 
Q 3597 2675 3597 1894 
z
M 3022 2063 
Q 3016 2534 2758 2815 
Q 2500 3097 2075 3097 
Q 1594 3097 1305 2825 
Q 1016 2553 972 2059 
L 3022 2063 
z
" transform="scale(0.015625)"/>
       <path id="DejaVuSans-6e" d="M 3513 2113 
L 3513 0 
L 2938 0 
L 2938 2094 
Q 2938 2591 2744 2837 
Q 2550 3084 2163 3084 
Q 1697 3084 1428 2787 
Q 1159 2491 1159 1978 
L 1159 0 
L 581 0 
L 581 3500 
L 1159 3500 
L 1159 2956 
Q 1366 3272 1645 3428 
Q 1925 3584 2291 3584 
Q 2894 3584 3203 3211 
Q 3513 2838 3513 2113 
z
" transform="scale(0.015625)"/>
       <path id="DejaVuSans-72" d="M 2631 2963 
Q 2534 3019 2420 3045 
Q 2306 3072 2169 3072 
Q 1681 3072 1420 2755 
Q 1159 2438 1159 1844 
L 1159 0 
L 581 0 
L 581 3500 
L 1159 3500 
L 1159 2956 
Q 1341 3275 1631 3429 
Q 1922 3584 2338 3584 
Q 2397 3584 2469 3576 
Q 2541 3569 2628 3553 
L 2631 2963 
z
" transform="scale(0.015625)"/>
       <path id="DejaVuSans-67" d="M 2906 1791 
Q 2906 2416 2648 2759 
Q 2391 3103 1925 3103 
Q 1463 3103 1205 2759 
Q 947 2416 947 1791 
Q 947 1169 1205 825 
Q 1463 481 1925 481 
Q 2391 481 2648 825 
Q 2906 1169 2906 1791 
z
M 3481 434 
Q 3481 -459 3084 -895 
Q 2688 -1331 1869 -1331 
Q 1566 -1331 1297 -1286 
Q 1028 -1241 775 -1147 
L 775 -588 
Q 1028 -725 1275 -790 
Q 1522 -856 1778 -856 
Q 2344 -856 2625 -561 
Q 2906 -266 2906 331 
L 2906 616 
Q 2728 306 2450 153 
Q 2172 0 1784 0 
Q 1141 0 747 490 
Q 353 981 353 1791 
Q 353 2603 747 3093 
Q 1141 3584 1784 3584 
Q 2172 3584 2450 3431 
Q 2728 3278 2906 2969 
L 2906 3500 
L 3481 3500 
L 3481 434 
z
" transform="scale(0.015625)"/>
       <path id="DejaVuSans-69" d="M 603 3500 
L 1178 3500 
L 1178 0 
L 603 0 
L 603 3500 
z
M 603 4863 
L 1178 4863 
L 1178 4134 
L 603 4134 
L 603 4863 
z
" transform="scale(0.015625)"/>
       <path id="DejaVuSans-61" d="M 2194 1759 
Q 1497 1759 1228 1600 
Q 959 1441 959 1056 
Q 959 750 1161 570 
Q 1363 391 1709 391 
Q 2188 391 2477 730 
Q 2766 1069 2766 1631 
L 2766 1759 
L 2194 1759 
z
M 3341 1997 
L 3341 0 
L 2766 0 
L 2766 531 
Q 2569 213 2275 61 
Q 1981 -91 1556 -91 
Q 1019 -91 701 211 
Q 384 513 384 1019 
Q 384 1609 779 1909 
Q 1175 2209 1959 2209 
L 2766 2209 
L 2766 2266 
Q 2766 2663 2505 2880 
Q 2244 3097 1772 3097 
Q 1472 3097 1187 3025 
Q 903 2953 641 2809 
L 641 3341 
Q 956 3463 1253 3523 
Q 1550 3584 1831 3584 
Q 2591 3584 2966 3190 
Q 3341 2797 3341 1997 
z
" transform="scale(0.015625)"/>
       <path id="DejaVuSans-20" transform="scale(0.015625)"/>
       <path id="DejaVuSans-64" d="M 2906 2969 
L 2906 4863 
L 3481 4863 
L 3481 0 
L 2906 0 
L 2906 525 
Q 2725 213 2448 61 
Q 2172 -91 1784 -91 
Q 1150 -91 751 415 
Q 353 922 353 1747 
Q 353 2572 751 3078 
Q 1150 3584 1784 3584 
Q 2172 3584 2448 3432 
Q 2725 3281 2906 2969 
z
M 947 1747 
Q 947 1113 1208 752 
Q 1469 391 1925 391 
Q 2381 391 2643 752 
Q 2906 1113 2906 1747 
Q 2906 2381 2643 2742 
Q 2381 3103 1925 3103 
Q 1469 3103 1208 2742 
Q 947 2381 947 1747 
z
" transform="scale(0.015625)"/>
       <path id="DejaVuSans-6c" d="M 603 4863 
L 1178 4863 
L 1178 0 
L 603 0 
L 603 4863 
z
" transform="scale(0.015625)"/>
       <path id="DejaVuSans-66" d="M 2375 4863 
L 2375 4384 
L 1825 4384 
Q 1516 4384 1395 4259 
Q 1275 4134 1275 3809 
L 1275 3500 
L 2222 3500 
L 2222 3053 
L 1275 3053 
L 1275 0 
L 697 0 
L 697 3053 
L 147 3053 
L 147 3500 
L 697 3500 
L 697 3744 
Q 697 4328 969 4595 
Q 1241 4863 1831 4863 
L 2375 4863 
z
" transform="scale(0.015625)"/>
       <path id="DejaVuSans-6f" d="M 1959 3097 
Q 1497 3097 1228 2736 
Q 959 2375 959 1747 
Q 959 1119 1226 758 
Q 1494 397 1959 397 
Q 2419 397 2687 759 
Q 2956 1122 2956 1747 
Q 2956 2369 2687 2733 
Q 2419 3097 1959 3097 
z
M 1959 3584 
Q 2709 3584 3137 3096 
Q 3566 2609 3566 1747 
Q 3566 888 3137 398 
Q 2709 -91 1959 -91 
Q 1206 -91 779 398 
Q 353 888 353 1747 
Q 353 2609 779 3096 
Q 1206 3584 1959 3584 
z
" transform="scale(0.015625)"/>
       <path id="DejaVuSans-74" d="M 1172 4494 
L 1172 3500 
L 2356 3500 
L 2356 3053 
L 1172 3053 
L 1172 1153 
Q 1172 725 1289 603 
Q 1406 481 1766 481 
L 2356 481 
L 2356 0 
L 1766 0 
Q 1100 0 847 248 
Q 594 497 594 1153 
L 594 3053 
L 172 3053 
L 172 3500 
L 594 3500 
L 594 4494 
L 1172 4494 
z
" transform="scale(0.015625)"/>
       <path id="DejaVuSans-28" d="M 1984 4856 
Q 1566 4138 1362 3434 
Q 1159 2731 1159 2009 
Q 1159 1288 1364 580 
Q 1569 -128 1984 -844 
L 1484 -844 
Q 1016 -109 783 600 
Q 550 1309 550 2009 
Q 550 2706 781 3412 
Q 1013 4119 1484 4856 
L 1984 4856 
z
" transform="scale(0.015625)"/>
       <path id="DejaVuSans-56" d="M 1831 0 
L 50 4666 
L 709 4666 
L 2188 738 
L 3669 4666 
L 4325 4666 
L 2547 0 
L 1831 0 
z
" transform="scale(0.015625)"/>
       <path id="DejaVuSans-29" d="M 513 4856 
L 1013 4856 
Q 1481 4119 1714 3412 
Q 1947 2706 1947 2009 
Q 1947 1309 1714 600 
Q 1481 -109 1013 -844 
L 513 -844 
Q 928 -128 1133 580 
Q 1338 1288 1338 2009 
Q 1338 2731 1133 3434 
Q 928 4138 513 4856 
z
" transform="scale(0.015625)"/>
      </defs>
      <use xlink:href="#DejaVuSans-65"/>
      <use xlink:href="#DejaVuSans-6e" transform="translate(61.523438 0)"/>
      <use xlink:href="#DejaVuSans-65" transform="translate(124.902344 0)"/>
      <use xlink:href="#DejaVuSans-72" transform="translate(186.425781 0)"/>
      <use xlink:href="#DejaVuSans-67" transform="translate(225.789062 0)"/>
      <use xlink:href="#DejaVuSans-69" transform="translate(289.265625 0)"/>
      <use xlink:href="#DejaVuSans-61" transform="translate(317.048828 0)"/>
      <use xlink:href="#DejaVuSans-20" transform="translate(378.328125 0)"/>
      <use xlink:href="#DejaVuSans-64" transform="translate(410.115234 0)"/>
      <use xlink:href="#DejaVuSans-65" transform="translate(473.591797 0)"/>
      <use xlink:href="#DejaVuSans-6c" transform="translate(535.115234 0)"/>
      <use xlink:href="#DejaVuSans-20" transform="translate(562.898438 0)"/>
      <use xlink:href="#DejaVuSans-66" transform="translate(594.685547 0)"/>
      <use xlink:href="#DejaVuSans-6f" transform="translate(629.890625 0)"/>
      <use xlink:href="#DejaVuSans-74" transform="translate(691.072266 0)"/>
      <use xlink:href="#DejaVuSans-6f" transform="translate(730.28125 0)"/>
      <use xlink:href="#DejaVuSans-6e" transform="translate(791.462891 0)"/>
      <use xlink:href="#DejaVuSans-65" transform="translate(854.841797 0)"/>
      <use xlink:href="#DejaVuSans-20" transform="translate(916.365234 0)"/>
      <use xlink:href="#DejaVuSans-28" transform="translate(948.152344 0)"/>
      <use xlink:href="#DejaVuSans-65" transform="translate(987.166016 0)"/>
      <use xlink:href="#DejaVuSans-56" transform="translate(1048.689453 0)"/>
      <use xlink:href="#DejaVuSans-29" transform="translate(1117.097656 0)"/>
     </g>
    </g>
   </g>
   <g id="matplotlib.axis_2">
    <g id="ytick_1">
     <g id="line2d_11">
      <path d="M 110.445313 418.677656 
L 735.405313 418.677656 
" clip-path="url(#p1c238feccf)" style="fill: none; stroke: #b0b0b0; stroke-opacity: 0.15; stroke-width: 0.8; stroke-linecap: square"/>
     </g>
     <g id="line2d_12">
      <defs>
       <path id="m251106e5d9" d="M 0 0 
L -3.5 0 
" style="stroke: #000000; stroke-width: 0.8"/>
      </defs>
      <g>
       <use xlink:href="#m251106e5d9" x="110.445313" y="418.677656" style="stroke: #000000; stroke-width: 0.8"/>
      </g>
     </g>
     <g id="text_7">
      <!-- 0.0 -->
      <g transform="translate(87.542188 422.476875) scale(0.1 -0.1)">
       <defs>
        <path id="DejaVuSans-2e" d="M 684 794 
L 1344 794 
L 1344 0 
L 684 0 
L 684 794 
z
" transform="scale(0.015625)"/>
       </defs>
       <use xlink:href="#DejaVuSans-30"/>
       <use xlink:href="#DejaVuSans-2e" transform="translate(63.623047 0)"/>
       <use xlink:href="#DejaVuSans-30" transform="translate(95.410156 0)"/>
      </g>
     </g>
    </g>
    <g id="ytick_2">
     <g id="line2d_13">
      <path d="M 110.445313 346.81099 
L 735.405313 346.81099 
" clip-path="url(#p1c238feccf)" style="fill: none; stroke: #b0b0b0; stroke-opacity: 0.15; stroke-width: 0.8; stroke-linecap: square"/>
     </g>
     <g id="line2d_14">
      <g>
       <use xlink:href="#m251106e5d9" x="110.445313" y="346.81099" style="stroke: #000000; stroke-width: 0.8"/>
      </g>
     </g>
     <g id="text_8">
      <!-- 0.2 -->
      <g transform="translate(87.542188 350.610208) scale(0.1 -0.1)">
       <use xlink:href="#DejaVuSans-30"/>
       <use xlink:href="#DejaVuSans-2e" transform="translate(63.623047 0)"/>
       <use xlink:href="#DejaVuSans-32" transform="translate(95.410156 0)"/>
      </g>
     </g>
    </g>
    <g id="ytick_3">
     <g id="line2d_15">
      <path d="M 110.445313 274.944323 
L 735.405313 274.944323 
" clip-path="url(#p1c238feccf)" style="fill: none; stroke: #b0b0b0; stroke-opacity: 0.15; stroke-width: 0.8; stroke-linecap: square"/>
     </g>
     <g id="line2d_16">
      <g>
       <use xlink:href="#m251106e5d9" x="110.445313" y="274.944323" style="stroke: #000000; stroke-width: 0.8"/>
      </g>
     </g>
     <g id="text_9">
      <!-- 0.4 -->
      <g transform="translate(87.542188 278.743542) scale(0.1 -0.1)">
       <defs>
        <path id="DejaVuSans-34" d="M 2419 4116 
L 825 1625 
L 2419 1625 
L 2419 4116 
z
M 2253 4666 
L 3047 4666 
L 3047 1625 
L 3713 1625 
L 3713 1100 
L 3047 1100 
L 3047 0 
L 2419 0 
L 2419 1100 
L 313 1100 
L 313 1709 
L 2253 4666 
z
" transform="scale(0.015625)"/>
       </defs>
       <use xlink:href="#DejaVuSans-30"/>
       <use xlink:href="#DejaVuSans-2e" transform="translate(63.623047 0)"/>
       <use xlink:href="#DejaVuSans-34" transform="translate(95.410156 0)"/>
      </g>
     </g>
    </g>
    <g id="ytick_4">
     <g id="line2d_17">
      <path d="M 110.445313 203.077656 
L 735.405313 203.077656 
" clip-path="url(#p1c238feccf)" style="fill: none; stroke: #b0b0b0; stroke-opacity: 0.15; stroke-width: 0.8; stroke-linecap: square"/>
     </g>
     <g id="line2d_18">
      <g>
       <use xlink:href="#m251106e5d9" x="110.445313" y="203.077656" style="stroke: #000000; stroke-width: 0.8"/>
      </g>
     </g>
     <g id="text_10">
      <!-- 0.6 -->
      <g transform="translate(87.542188 206.876875) scale(0.1 -0.1)">
       <defs>
        <path id="DejaVuSans-36" d="M 2113 2584 
Q 1688 2584 1439 2293 
Q 1191 2003 1191 1497 
Q 1191 994 1439 701 
Q 1688 409 2113 409 
Q 2538 409 2786 701 
Q 3034 994 3034 1497 
Q 3034 2003 2786 2293 
Q 2538 2584 2113 2584 
z
M 3366 4563 
L 3366 3988 
Q 3128 4100 2886 4159 
Q 2644 4219 2406 4219 
Q 1781 4219 1451 3797 
Q 1122 3375 1075 2522 
Q 1259 2794 1537 2939 
Q 1816 3084 2150 3084 
Q 2853 3084 3261 2657 
Q 3669 2231 3669 1497 
Q 3669 778 3244 343 
Q 2819 -91 2113 -91 
Q 1303 -91 875 529 
Q 447 1150 447 2328 
Q 447 3434 972 4092 
Q 1497 4750 2381 4750 
Q 2619 4750 2861 4703 
Q 3103 4656 3366 4563 
z
" transform="scale(0.015625)"/>
       </defs>
       <use xlink:href="#DejaVuSans-30"/>
       <use xlink:href="#DejaVuSans-2e" transform="translate(63.623047 0)"/>
       <use xlink:href="#DejaVuSans-36" transform="translate(95.410156 0)"/>
      </g>
     </g>
    </g>
    <g id="ytick_5">
     <g id="line2d_19">
      <path d="M 110.445313 131.21099 
L 735.405313 131.21099 
" clip-path="url(#p1c238feccf)" style="fill: none; stroke: #b0b0b0; stroke-opacity: 0.15; stroke-width: 0.8; stroke-linecap: square"/>
     </g>
     <g id="line2d_20">
      <g>
       <use xlink:href="#m251106e5d9" x="110.445313" y="131.21099" style="stroke: #000000; stroke-width: 0.8"/>
      </g>
     </g>
     <g id="text_11">
      <!-- 0.8 -->
      <g transform="translate(87.542188 135.010208) scale(0.1 -0.1)">
       <defs>
        <path id="DejaVuSans-38" d="M 2034 2216 
Q 1584 2216 1326 1975 
Q 1069 1734 1069 1313 
Q 1069 891 1326 650 
Q 1584 409 2034 409 
Q 2484 409 2743 651 
Q 3003 894 3003 1313 
Q 3003 1734 2745 1975 
Q 2488 2216 2034 2216 
z
M 1403 2484 
Q 997 2584 770 2862 
Q 544 3141 544 3541 
Q 544 4100 942 4425 
Q 1341 4750 2034 4750 
Q 2731 4750 3128 4425 
Q 3525 4100 3525 3541 
Q 3525 3141 3298 2862 
Q 3072 2584 2669 2484 
Q 3125 2378 3379 2068 
Q 3634 1759 3634 1313 
Q 3634 634 3220 271 
Q 2806 -91 2034 -91 
Q 1263 -91 848 271 
Q 434 634 434 1313 
Q 434 1759 690 2068 
Q 947 2378 1403 2484 
z
M 1172 3481 
Q 1172 3119 1398 2916 
Q 1625 2713 2034 2713 
Q 2441 2713 2670 2916 
Q 2900 3119 2900 3481 
Q 2900 3844 2670 4047 
Q 2441 4250 2034 4250 
Q 1625 4250 1398 4047 
Q 1172 3844 1172 3481 
z
" transform="scale(0.015625)"/>
       </defs>
       <use xlink:href="#DejaVuSans-30"/>
       <use xlink:href="#DejaVuSans-2e" transform="translate(63.623047 0)"/>
       <use xlink:href="#DejaVuSans-38" transform="translate(95.410156 0)"/>
      </g>
     </g>
    </g>
    <g id="ytick_6">
     <g id="line2d_21">
      <path d="M 110.445313 59.344323 
L 735.405313 59.344323 
" clip-path="url(#p1c238feccf)" style="fill: none; stroke: #b0b0b0; stroke-opacity: 0.15; stroke-width: 0.8; stroke-linecap: square"/>
     </g>
     <g id="line2d_22">
      <g>
       <use xlink:href="#m251106e5d9" x="110.445313" y="59.344323" style="stroke: #000000; stroke-width: 0.8"/>
      </g>
     </g>
     <g id="text_12">
      <!-- 1.0 -->
      <g transform="translate(87.542188 63.143542) scale(0.1 -0.1)">
       <use xlink:href="#DejaVuSans-31"/>
       <use xlink:href="#DejaVuSans-2e" transform="translate(63.623047 0)"/>
       <use xlink:href="#DejaVuSans-30" transform="translate(95.410156 0)"/>
      </g>
     </g>
    </g>
    <g id="text_13">
     <!-- riflettività -->
     <g transform="translate(81.4625 248.99) rotate(-90) scale(0.1 -0.1)">
      <defs>
       <path id="DejaVuSans-76" d="M 191 3500 
L 800 3500 
L 1894 563 
L 2988 3500 
L 3597 3500 
L 2284 0 
L 1503 0 
L 191 3500 
z
" transform="scale(0.015625)"/>
       <path id="DejaVuSans-e0" d="M 2194 1759 
Q 1497 1759 1228 1600 
Q 959 1441 959 1056 
Q 959 750 1161 570 
Q 1363 391 1709 391 
Q 2188 391 2477 730 
Q 2766 1069 2766 1631 
L 2766 1759 
L 2194 1759 
z
M 3341 1997 
L 3341 0 
L 2766 0 
L 2766 531 
Q 2569 213 2275 61 
Q 1981 -91 1556 -91 
Q 1019 -91 701 211 
Q 384 513 384 1019 
Q 384 1609 779 1909 
Q 1175 2209 1959 2209 
L 2766 2209 
L 2766 2266 
Q 2766 2663 2505 2880 
Q 2244 3097 1772 3097 
Q 1472 3097 1187 3025 
Q 903 2953 641 2809 
L 641 3341 
Q 956 3463 1253 3523 
Q 1550 3584 1831 3584 
Q 2591 3584 2966 3190 
Q 3341 2797 3341 1997 
z
M 1403 5119 
L 2284 3950 
L 1806 3950 
L 787 5119 
L 1403 5119 
z
" transform="scale(0.015625)"/>
      </defs>
      <use xlink:href="#DejaVuSans-72"/>
      <use xlink:href="#DejaVuSans-69" transform="translate(41.113281 0)"/>
      <use xlink:href="#DejaVuSans-66" transform="translate(68.896484 0)"/>
      <use xlink:href="#DejaVuSans-6c" transform="translate(104.101562 0)"/>
      <use xlink:href="#DejaVuSans-65" transform="translate(131.884766 0)"/>
      <use xlink:href="#DejaVuSans-74" transform="translate(193.408203 0)"/>
      <use xlink:href="#DejaVuSans-74" transform="translate(232.617188 0)"/>
      <use xlink:href="#DejaVuSans-69" transform="translate(271.826172 0)"/>
      <use xlink:href="#DejaVuSans-76" transform="translate(299.609375 0)"/>
      <use xlink:href="#DejaVuSans-69" transform="translate(358.789062 0)"/>
      <use xlink:href="#DejaVuSans-74" transform="translate(386.572266 0)"/>
      <use xlink:href="#DejaVuSans-e0" transform="translate(425.78125 0)"/>
     </g>
    </g>
   </g>
   <g id="line2d_23">
    <path d="M 114.556891 81.106713 
L 116.05544 83.95445 
L 117.553989 86.196132 
L 119.052538 88.013127 
L 120.551087 89.513899 
L 122.549152 91.143737 
L 124.547217 92.451793 
L 126.545282 93.515867 
L 129.042863 94.585513 
L 132.039961 95.584944 
L 135.536575 96.470363 
L 139.532705 97.225719 
L 144.527867 97.913808 
L 150.522062 98.50112 
L 158.514323 99.046373 
L 170.003197 99.581449 
L 188.485298 100.189577 
L 255.919994 102.264481 
L 282.394356 103.364465 
L 305.87162 104.561182 
L 326.851303 105.852209 
L 345.333405 107.204549 
L 362.316958 108.666469 
L 377.302446 110.170769 
L 391.288901 111.797653 
L 403.776808 113.473158 
L 415.265682 115.242322 
L 425.256007 116.997015 
L 434.746816 118.890816 
L 443.238593 120.812412 
L 450.731337 122.723231 
L 457.724565 124.725648 
L 464.218276 126.812034 
L 470.212471 128.970483 
L 475.70715 131.183768 
L 480.702313 133.428281 
L 485.197959 135.673074 
L 489.693605 138.170631 
L 493.689735 140.642216 
L 497.685866 143.395672 
L 501.182479 146.07932 
L 504.679093 149.067794 
L 507.676191 151.916411 
L 510.673288 155.078891 
L 513.670386 158.613395 
L 516.167967 161.895175 
L 518.665549 165.538048 
L 521.16313 169.605877 
L 523.660711 174.176516 
L 525.658776 178.257775 
L 527.656841 182.777184 
L 529.654906 187.797979 
L 531.652972 193.388054 
L 533.651037 199.614613 
L 535.649102 206.533785 
L 537.647167 214.17359 
L 540.144748 224.695045 
L 543.141846 238.445705 
L 550.63459 273.452808 
L 553.132171 283.938519 
L 555.629752 293.520505 
L 558.127333 302.196012 
L 560.624915 310.020438 
L 563.122496 317.073548 
L 565.620077 323.440381 
L 568.117659 329.201935 
L 570.61524 334.431366 
L 573.112821 339.193003 
L 575.610403 343.54266 
L 578.6075 348.285718 
L 581.604598 352.5751 
L 584.601695 356.469883 
L 587.598793 360.019656 
L 591.095407 363.780432 
L 594.592021 367.183896 
L 598.088635 370.276257 
L 601.585248 373.096185 
L 605.581379 376.026937 
L 609.577509 378.685107 
L 614.073155 381.392002 
L 618.568801 383.837473 
L 623.563964 386.288826 
L 628.559127 388.497263 
L 634.053806 390.68379 
L 640.048001 392.818768 
L 646.541712 394.878878 
L 653.53494 396.846676 
L 661.027684 398.709957 
L 669.019944 400.461025 
L 677.51172 402.095941 
L 687.002529 403.692427 
L 697.492371 405.220992 
L 708.981245 406.66066 
L 713.476891 407.166982 
L 713.476891 407.166982 
" clip-path="url(#p1c238feccf)" style="fill: none; stroke: #1f77b4; stroke-width: 2.6; stroke-linecap: square"/>
   </g>
   <g id="line2d_24">
    <path d="M 543.531628 418.677656 
L 543.531628 30.597656 
" clip-path="url(#p1c238feccf)" style="fill: none; stroke-dasharray: 3.7,1.6; stroke-dashoffset: 0; stroke: #1f77b4"/>
   </g>
   <g id="patch_3">
    <path d="M 110.445313 418.677656 
L 110.445313 30.597656 
" style="fill: none; stroke: #000000; stroke-width: 0.8; stroke-linejoin: miter; stroke-linecap: square"/>
   </g>
   <g id="patch_4">
    <path d="M 735.405313 418.677656 
L 735.405313 30.597656 
" style="fill: none; stroke: #000000; stroke-width: 0.8; stroke-linejoin: miter; stroke-linecap: square"/>
   </g>
   <g id="patch_5">
    <path d="M 110.445313 418.677656 
L 735.405313 418.677656 
" style="fill: none; stroke: #000000; stroke-width: 0.8; stroke-linejoin: miter; stroke-linecap: square"/>
   </g>
   <g id="patch_6">
    <path d="M 110.445313 30.597656 
L 735.405313 30.597656 
" style="fill: none; stroke: #000000; stroke-width: 0.8; stroke-linejoin: miter; stroke-linecap: square"/>
   </g>
   <g id="patch_7">
    <path d="M 446.402498 356.439108 
Q 494.082265 381.69962 540.87288 406.489064 
" style="fill: none; stroke: #000000; stroke-width: 0.9; stroke-linecap: round"/>
    <path d="M 538.274593 402.849159 
L 540.87288 406.489064 
L 536.401984 406.38375 
z
" style="fill: #1f77b4; stroke: #000000; stroke-width: 0.9; stroke-linecap: round"/>
   </g>
   <g id="text_14">
    <!-- $\hbar\omega_p=15.8$ eV -->
    <g transform="translate(395.514786 350.404323) scale(0.1 -0.1)">
     <defs>
      <path id="DejaVuSans-Oblique-127" d="M 3634 2113 
L 3225 0 
L 2650 0 
L 3056 2094 
Q 3094 2291 3094 2450 
Q 3094 2688 3006 2838 
Q 2863 3084 2475 3084 
Q 2009 3084 1681 2788 
Q 1356 2491 1256 1978 
L 872 0 
L 294 0 
L 1066 3969 
L 675 3969 
L 775 4481 
L 1166 4481 
L 1238 4863 
L 1816 4863 
L 1744 4481 
L 2844 4481 
L 2744 3969 
L 1644 3969 
L 1447 2956 
Q 1713 3272 2025 3428 
Q 2331 3584 2700 3584 
Q 3300 3584 3538 3213 
Q 3688 2975 3688 2606 
Q 3688 2381 3634 2113 
z
" transform="scale(0.015625)"/>
      <path id="DejaVuSans-Oblique-3c9" d="M 1369 -91 
Q 72 -91 434 1766 
Q 575 2500 1256 3500 
L 1875 3500 
Q 1231 2500 1088 1750 
Q 819 397 1519 397 
Q 2166 397 2478 2078 
L 3009 2078 
Q 2669 388 3316 397 
Q 4013 403 4275 1750 
Q 4419 2500 4169 3500 
L 4788 3500 
Q 5075 2500 4934 1766 
Q 4578 -94 3278 -91 
Q 2428 -88 2503 844 
Q 2194 -91 1369 -91 
z
" transform="scale(0.015625)"/>
      <path id="DejaVuSans-Oblique-70" d="M 3175 2156 
Q 3175 2616 2975 2859 
Q 2775 3103 2400 3103 
Q 2144 3103 1911 2972 
Q 1678 2841 1497 2591 
Q 1319 2344 1212 1994 
Q 1106 1644 1106 1300 
Q 1106 863 1306 627 
Q 1506 391 1875 391 
Q 2147 391 2380 519 
Q 2613 647 2778 891 
Q 2956 1147 3065 1494 
Q 3175 1841 3175 2156 
z
M 1394 2969 
Q 1625 3272 1939 3428 
Q 2253 3584 2638 3584 
Q 3175 3584 3472 3232 
Q 3769 2881 3769 2247 
Q 3769 1728 3584 1258 
Q 3400 788 3053 416 
Q 2822 169 2531 39 
Q 2241 -91 1919 -91 
Q 1547 -91 1294 64 
Q 1041 219 916 525 
L 556 -1331 
L -19 -1331 
L 922 3500 
L 1497 3500 
L 1394 2969 
z
" transform="scale(0.015625)"/>
      <path id="DejaVuSans-3d" d="M 678 2906 
L 4684 2906 
L 4684 2381 
L 678 2381 
L 678 2906 
z
M 678 1631 
L 4684 1631 
L 4684 1100 
L 678 1100 
L 678 1631 
z
" transform="scale(0.015625)"/>
     </defs>
     <use xlink:href="#DejaVuSans-Oblique-127" transform="translate(0 0.015625)"/>
     <use xlink:href="#DejaVuSans-Oblique-3c9" transform="translate(69.482422 0.015625)"/>
     <use xlink:href="#DejaVuSans-Oblique-70" transform="translate(153.222656 -16.390625) scale(0.7)"/>
     <use xlink:href="#DejaVuSans-3d" transform="translate(219.873047 0.015625)"/>
     <use xlink:href="#DejaVuSans-31" transform="translate(323.144531 0.015625)"/>
     <use xlink:href="#DejaVuSans-35" transform="translate(386.767578 0.015625)"/>
     <use xlink:href="#DejaVuSans-2e" transform="translate(450.390625 0.015625)"/>
     <use xlink:href="#DejaVuSans-38" transform="translate(479.552734 0.015625)"/>
     <use xlink:href="#DejaVuSans-20" transform="translate(543.175781 0.015625)"/>
     <use xlink:href="#DejaVuSans-65" transform="translate(574.962891 0.015625)"/>
     <use xlink:href="#DejaVuSans-56" transform="translate(636.486328 0.015625)"/>
    </g>
   </g>
   <g id="text_15">
    <!-- Riflettività dell'alluminio nel modello di Drude -->
    <g transform="translate(227.497578 18.597656) scale(0.15 -0.15)">
     <defs>
      <path id="DejaVuSans-Bold-52" d="M 2297 2597 
Q 2675 2597 2839 2737 
Q 3003 2878 3003 3200 
Q 3003 3519 2839 3656 
Q 2675 3794 2297 3794 
L 1791 3794 
L 1791 2597 
L 2297 2597 
z
M 1791 1766 
L 1791 0 
L 588 0 
L 588 4666 
L 2425 4666 
Q 3347 4666 3776 4356 
Q 4206 4047 4206 3378 
Q 4206 2916 3982 2619 
Q 3759 2322 3309 2181 
Q 3556 2125 3751 1926 
Q 3947 1728 4147 1325 
L 4800 0 
L 3519 0 
L 2950 1159 
Q 2778 1509 2601 1637 
Q 2425 1766 2131 1766 
L 1791 1766 
z
" transform="scale(0.015625)"/>
      <path id="DejaVuSans-Bold-69" d="M 538 3500 
L 1656 3500 
L 1656 0 
L 538 0 
L 538 3500 
z
M 538 4863 
L 1656 4863 
L 1656 3950 
L 538 3950 
L 538 4863 
z
" transform="scale(0.015625)"/>
      <path id="DejaVuSans-Bold-66" d="M 2841 4863 
L 2841 4128 
L 2222 4128 
Q 1984 4128 1890 4042 
Q 1797 3956 1797 3744 
L 1797 3500 
L 2753 3500 
L 2753 2700 
L 1797 2700 
L 1797 0 
L 678 0 
L 678 2700 
L 122 2700 
L 122 3500 
L 678 3500 
L 678 3744 
Q 678 4316 997 4589 
Q 1316 4863 1984 4863 
L 2841 4863 
z
" transform="scale(0.015625)"/>
      <path id="DejaVuSans-Bold-6c" d="M 538 4863 
L 1656 4863 
L 1656 0 
L 538 0 
L 538 4863 
z
" transform="scale(0.015625)"/>
      <path id="DejaVuSans-Bold-65" d="M 4031 1759 
L 4031 1441 
L 1416 1441 
Q 1456 1047 1700 850 
Q 1944 653 2381 653 
Q 2734 653 3104 758 
Q 3475 863 3866 1075 
L 3866 213 
Q 3469 63 3072 -14 
Q 2675 -91 2278 -91 
Q 1328 -91 801 392 
Q 275 875 275 1747 
Q 275 2603 792 3093 
Q 1309 3584 2216 3584 
Q 3041 3584 3536 3087 
Q 4031 2591 4031 1759 
z
M 2881 2131 
Q 2881 2450 2695 2645 
Q 2509 2841 2209 2841 
Q 1884 2841 1681 2658 
Q 1478 2475 1428 2131 
L 2881 2131 
z
" transform="scale(0.015625)"/>
      <path id="DejaVuSans-Bold-74" d="M 1759 4494 
L 1759 3500 
L 2913 3500 
L 2913 2700 
L 1759 2700 
L 1759 1216 
Q 1759 972 1856 886 
Q 1953 800 2241 800 
L 2816 800 
L 2816 0 
L 1856 0 
Q 1194 0 917 276 
Q 641 553 641 1216 
L 641 2700 
L 84 2700 
L 84 3500 
L 641 3500 
L 641 4494 
L 1759 4494 
z
" transform="scale(0.015625)"/>
      <path id="DejaVuSans-Bold-76" d="M 97 3500 
L 1216 3500 
L 2088 1081 
L 2956 3500 
L 4078 3500 
L 2700 0 
L 1472 0 
L 97 3500 
z
" transform="scale(0.015625)"/>
      <path id="DejaVuSans-Bold-e0" d="M 2106 1575 
Q 1756 1575 1579 1456 
Q 1403 1338 1403 1106 
Q 1403 894 1545 773 
Q 1688 653 1941 653 
Q 2256 653 2472 879 
Q 2688 1106 2688 1447 
L 2688 1575 
L 2106 1575 
z
M 3816 1997 
L 3816 0 
L 2688 0 
L 2688 519 
Q 2463 200 2181 54 
Q 1900 -91 1497 -91 
Q 953 -91 614 226 
Q 275 544 275 1050 
Q 275 1666 698 1953 
Q 1122 2241 2028 2241 
L 2688 2241 
L 2688 2328 
Q 2688 2594 2478 2717 
Q 2269 2841 1825 2841 
Q 1466 2841 1156 2769 
Q 847 2697 581 2553 
L 581 3406 
Q 941 3494 1303 3539 
Q 1666 3584 2028 3584 
Q 2975 3584 3395 3211 
Q 3816 2838 3816 1997 
z
M 1762 5119 
L 2643 3944 
L 2031 3944 
L 878 5119 
L 1762 5119 
z
" transform="scale(0.015625)"/>
      <path id="DejaVuSans-Bold-20" transform="scale(0.015625)"/>
      <path id="DejaVuSans-Bold-64" d="M 2919 2988 
L 2919 4863 
L 4044 4863 
L 4044 0 
L 2919 0 
L 2919 506 
Q 2688 197 2409 53 
Q 2131 -91 1766 -91 
Q 1119 -91 703 423 
Q 288 938 288 1747 
Q 288 2556 703 3070 
Q 1119 3584 1766 3584 
Q 2128 3584 2408 3439 
Q 2688 3294 2919 2988 
z
M 2181 722 
Q 2541 722 2730 984 
Q 2919 1247 2919 1747 
Q 2919 2247 2730 2509 
Q 2541 2772 2181 2772 
Q 1825 2772 1636 2509 
Q 1447 2247 1447 1747 
Q 1447 1247 1636 984 
Q 1825 722 2181 722 
z
" transform="scale(0.015625)"/>
      <path id="DejaVuSans-Bold-27" d="M 1350 4666 
L 1350 2931 
L 609 2931 
L 609 4666 
L 1350 4666 
z
" transform="scale(0.015625)"/>
      <path id="DejaVuSans-Bold-61" d="M 2106 1575 
Q 1756 1575 1579 1456 
Q 1403 1338 1403 1106 
Q 1403 894 1545 773 
Q 1688 653 1941 653 
Q 2256 653 2472 879 
Q 2688 1106 2688 1447 
L 2688 1575 
L 2106 1575 
z
M 3816 1997 
L 3816 0 
L 2688 0 
L 2688 519 
Q 2463 200 2181 54 
Q 1900 -91 1497 -91 
Q 953 -91 614 226 
Q 275 544 275 1050 
Q 275 1666 698 1953 
Q 1122 2241 2028 2241 
L 2688 2241 
L 2688 2328 
Q 2688 2594 2478 2717 
Q 2269 2841 1825 2841 
Q 1466 2841 1156 2769 
Q 847 2697 581 2553 
L 581 3406 
Q 941 3494 1303 3539 
Q 1666 3584 2028 3584 
Q 2975 3584 3395 3211 
Q 3816 2838 3816 1997 
z
" transform="scale(0.015625)"/>
      <path id="DejaVuSans-Bold-75" d="M 500 1363 
L 500 3500 
L 1625 3500 
L 1625 3150 
Q 1625 2866 1622 2436 
Q 1619 2006 1619 1863 
Q 1619 1441 1641 1255 
Q 1663 1069 1716 984 
Q 1784 875 1895 815 
Q 2006 756 2150 756 
Q 2500 756 2700 1025 
Q 2900 1294 2900 1772 
L 2900 3500 
L 4019 3500 
L 4019 0 
L 2900 0 
L 2900 506 
Q 2647 200 2364 54 
Q 2081 -91 1741 -91 
Q 1134 -91 817 281 
Q 500 653 500 1363 
z
" transform="scale(0.015625)"/>
      <path id="DejaVuSans-Bold-6d" d="M 3781 2919 
Q 3994 3244 4286 3414 
Q 4578 3584 4928 3584 
Q 5531 3584 5847 3212 
Q 6163 2841 6163 2131 
L 6163 0 
L 5038 0 
L 5038 1825 
Q 5041 1866 5042 1909 
Q 5044 1953 5044 2034 
Q 5044 2406 4934 2573 
Q 4825 2741 4581 2741 
Q 4263 2741 4089 2478 
Q 3916 2216 3909 1719 
L 3909 0 
L 2784 0 
L 2784 1825 
Q 2784 2406 2684 2573 
Q 2584 2741 2328 2741 
Q 2006 2741 1831 2477 
Q 1656 2213 1656 1722 
L 1656 0 
L 531 0 
L 531 3500 
L 1656 3500 
L 1656 2988 
Q 1863 3284 2130 3434 
Q 2397 3584 2719 3584 
Q 3081 3584 3359 3409 
Q 3638 3234 3781 2919 
z
" transform="scale(0.015625)"/>
      <path id="DejaVuSans-Bold-6e" d="M 4056 2131 
L 4056 0 
L 2931 0 
L 2931 347 
L 2931 1631 
Q 2931 2084 2911 2256 
Q 2891 2428 2841 2509 
Q 2775 2619 2662 2680 
Q 2550 2741 2406 2741 
Q 2056 2741 1856 2470 
Q 1656 2200 1656 1722 
L 1656 0 
L 538 0 
L 538 3500 
L 1656 3500 
L 1656 2988 
Q 1909 3294 2193 3439 
Q 2478 3584 2822 3584 
Q 3428 3584 3742 3212 
Q 4056 2841 4056 2131 
z
" transform="scale(0.015625)"/>
      <path id="DejaVuSans-Bold-6f" d="M 2203 2784 
Q 1831 2784 1636 2517 
Q 1441 2250 1441 1747 
Q 1441 1244 1636 976 
Q 1831 709 2203 709 
Q 2569 709 2762 976 
Q 2956 1244 2956 1747 
Q 2956 2250 2762 2517 
Q 2569 2784 2203 2784 
z
M 2203 3584 
Q 3106 3584 3614 3096 
Q 4122 2609 4122 1747 
Q 4122 884 3614 396 
Q 3106 -91 2203 -91 
Q 1297 -91 786 396 
Q 275 884 275 1747 
Q 275 2609 786 3096 
Q 1297 3584 2203 3584 
z
" transform="scale(0.015625)"/>
      <path id="DejaVuSans-Bold-44" d="M 1791 3756 
L 1791 909 
L 2222 909 
Q 2959 909 3348 1275 
Q 3738 1641 3738 2338 
Q 3738 3031 3350 3393 
Q 2963 3756 2222 3756 
L 1791 3756 
z
M 588 4666 
L 1856 4666 
Q 2919 4666 3439 4514 
Q 3959 4363 4331 4000 
Q 4659 3684 4818 3271 
Q 4978 2859 4978 2338 
Q 4978 1809 4818 1395 
Q 4659 981 4331 666 
Q 3956 303 3431 151 
Q 2906 0 1856 0 
L 588 0 
L 588 4666 
z
" transform="scale(0.015625)"/>
      <path id="DejaVuSans-Bold-72" d="M 3138 2547 
Q 2991 2616 2845 2648 
Q 2700 2681 2553 2681 
Q 2122 2681 1889 2404 
Q 1656 2128 1656 1613 
L 1656 0 
L 538 0 
L 538 3500 
L 1656 3500 
L 1656 2925 
Q 1872 3269 2151 3426 
Q 2431 3584 2822 3584 
Q 2878 3584 2943 3579 
Q 3009 3575 3134 3559 
L 3138 2547 
z
" transform="scale(0.015625)"/>
     </defs>
     <use xlink:href="#DejaVuSans-Bold-52"/>
     <use xlink:href="#DejaVuSans-Bold-69" transform="translate(77.001953 0)"/>
     <use xlink:href="#DejaVuSans-Bold-66" transform="translate(111.279297 0)"/>
     <use xlink:href="#DejaVuSans-Bold-6c" transform="translate(154.785156 0)"/>
     <use xlink:href="#DejaVuSans-Bold-65" transform="translate(189.0625 0)"/>
     <use xlink:href="#DejaVuSans-Bold-74" transform="translate(256.884766 0)"/>
     <use xlink:href="#DejaVuSans-Bold-74" transform="translate(304.6875 0)"/>
     <use xlink:href="#DejaVuSans-Bold-69" transform="translate(352.490234 0)"/>
     <use xlink:href="#DejaVuSans-Bold-76" transform="translate(386.767578 0)"/>
     <use xlink:href="#DejaVuSans-Bold-69" transform="translate(451.953125 0)"/>
     <use xlink:href="#DejaVuSans-Bold-74" transform="translate(486.230469 0)"/>
     <use xlink:href="#DejaVuSans-Bold-e0" transform="translate(534.033203 0)"/>
     <use xlink:href="#DejaVuSans-Bold-20" transform="translate(601.513672 0)"/>
     <use xlink:href="#DejaVuSans-Bold-64" transform="translate(636.328125 0)"/>
     <use xlink:href="#DejaVuSans-Bold-65" transform="translate(707.910156 0)"/>
     <use xlink:href="#DejaVuSans-Bold-6c" transform="translate(775.732422 0)"/>
     <use xlink:href="#DejaVuSans-Bold-6c" transform="translate(810.009766 0)"/>
     <use xlink:href="#DejaVuSans-Bold-27" transform="translate(844.287109 0)"/>
     <use xlink:href="#DejaVuSans-Bold-61" transform="translate(874.902344 0)"/>
     <use xlink:href="#DejaVuSans-Bold-6c" transform="translate(942.382812 0)"/>
     <use xlink:href="#DejaVuSans-Bold-6c" transform="translate(976.660156 0)"/>
     <use xlink:href="#DejaVuSans-Bold-75" transform="translate(1010.9375 0)"/>
     <use xlink:href="#DejaVuSans-Bold-6d" transform="translate(1082.128906 0)"/>
     <use xlink:href="#DejaVuSans-Bold-69" transform="translate(1186.328125 0)"/>
     <use xlink:href="#DejaVuSans-Bold-6e" transform="translate(1220.605469 0)"/>
     <use xlink:href="#DejaVuSans-Bold-69" transform="translate(1291.796875 0)"/>
     <use xlink:href="#DejaVuSans-Bold-6f" transform="translate(1326.074219 0)"/>
     <use xlink:href="#DejaVuSans-Bold-20" transform="translate(1394.775391 0)"/>
     <use xlink:href="#DejaVuSans-Bold-6e" transform="translate(1429.589844 0)"/>
     <use xlink:href="#DejaVuSans-Bold-65" transform="translate(1500.78125 0)"/>
     <use xlink:href="#DejaVuSans-Bold-6c" transform="translate(1568.603516 0)"/>
     <use xlink:href="#DejaVuSans-Bold-20" transform="translate(1602.880859 0)"/>
     <use xlink:href="#DejaVuSans-Bold-6d" transform="translate(1637.695312 0)"/>
     <use xlink:href="#DejaVuSans-Bold-6f" transform="translate(1741.894531 0)"/>
     <use xlink:href="#DejaVuSans-Bold-64" transform="translate(1810.595703 0)"/>
     <use xlink:href="#DejaVuSans-Bold-65" transform="translate(1882.177734 0)"/>
     <use xlink:href="#DejaVuSans-Bold-6c" transform="translate(1950 0)"/>
     <use xlink:href="#DejaVuSans-Bold-6c" transform="translate(1984.277344 0)"/>
     <use xlink:href="#DejaVuSans-Bold-6f" transform="translate(2018.554688 0)"/>
     <use xlink:href="#DejaVuSans-Bold-20" transform="translate(2087.255859 0)"/>
     <use xlink:href="#DejaVuSans-Bold-64" transform="translate(2122.070312 0)"/>
     <use xlink:href="#DejaVuSans-Bold-69" transform="translate(2193.652344 0)"/>
     <use xlink:href="#DejaVuSans-Bold-20" transform="translate(2227.929688 0)"/>
     <use xlink:href="#DejaVuSans-Bold-44" transform="translate(2262.744141 0)"/>
     <use xlink:href="#DejaVuSans-Bold-72" transform="translate(2345.751953 0)"/>
     <use xlink:href="#DejaVuSans-Bold-75" transform="translate(2395.068359 0)"/>
     <use xlink:href="#DejaVuSans-Bold-64" transform="translate(2466.259766 0)"/>
     <use xlink:href="#DejaVuSans-Bold-65" transform="translate(2537.841797 0)"/>
    </g>
   </g>
   <g id="PathCollection_1">
    <defs>
     <path id="me561a6b2f6" d="M 0 2.12132 
C 0.562581 2.12132 1.102195 1.897805 1.5 1.5 
C 1.897805 1.102195 2.12132 0.562581 2.12132 0 
C 2.12132 -0.562581 1.897805 -1.102195 1.5 -1.5 
C 1.102195 -1.897805 0.562581 -2.12132 0 -2.12132 
C -0.562581 -2.12132 -1.102195 -1.897805 -1.5 -1.5 
C -1.897805 -1.102195 -2.12132 -0.562581 -2.12132 0 
C -2.12132 0.562581 -1.897805 1.102195 -1.5 1.5 
C -1.102195 1.897805 -0.562581 2.12132 0 2.12132 
z
" style="stroke: #1f77b4"/>
    </defs>
    <g clip-path="url(#p1c238feccf)">
     <use xlink:href="#me561a6b2f6" x="115.927418" y="90.028795" style="fill: #1f77b4; stroke: #1f77b4"/>
     <use xlink:href="#me561a6b2f6" x="119.265683" y="88.633177" style="fill: #1f77b4; stroke: #1f77b4"/>
     <use xlink:href="#me561a6b2f6" x="122.603948" y="91.986922" style="fill: #1f77b4; stroke: #1f77b4"/>
     <use xlink:href="#me561a6b2f6" x="125.942213" y="93.933168" style="fill: #1f77b4; stroke: #1f77b4"/>
     <use xlink:href="#me561a6b2f6" x="129.280479" y="95.748104" style="fill: #1f77b4; stroke: #1f77b4"/>
     <use xlink:href="#me561a6b2f6" x="132.618744" y="97.400478" style="fill: #1f77b4; stroke: #1f77b4"/>
     <use xlink:href="#me561a6b2f6" x="135.957009" y="97.26822" style="fill: #1f77b4; stroke: #1f77b4"/>
     <use xlink:href="#me561a6b2f6" x="139.295274" y="99.064872" style="fill: #1f77b4; stroke: #1f77b4"/>
     <use xlink:href="#me561a6b2f6" x="142.633539" y="108.90292" style="fill: #1f77b4; stroke: #1f77b4"/>
     <use xlink:href="#me561a6b2f6" x="145.971805" y="123.704881" style="fill: #1f77b4; stroke: #1f77b4"/>
     <use xlink:href="#me561a6b2f6" x="149.31007" y="121.510969" style="fill: #1f77b4; stroke: #1f77b4"/>
     <use xlink:href="#me561a6b2f6" x="152.648335" y="130.202843" style="fill: #1f77b4; stroke: #1f77b4"/>
     <use xlink:href="#me561a6b2f6" x="155.9866" y="118.138133" style="fill: #1f77b4; stroke: #1f77b4"/>
     <use xlink:href="#me561a6b2f6" x="159.324866" y="112.585445" style="fill: #1f77b4; stroke: #1f77b4"/>
     <use xlink:href="#me561a6b2f6" x="162.663131" y="107.123122" style="fill: #1f77b4; stroke: #1f77b4"/>
     <use xlink:href="#me561a6b2f6" x="166.001396" y="107.049095" style="fill: #1f77b4; stroke: #1f77b4"/>
     <use xlink:href="#me561a6b2f6" x="169.339661" y="102.461079" style="fill: #1f77b4; stroke: #1f77b4"/>
     <use xlink:href="#me561a6b2f6" x="172.677926" y="102.274381" style="fill: #1f77b4; stroke: #1f77b4"/>
     <use xlink:href="#me561a6b2f6" x="176.016192" y="95.169281" style="fill: #1f77b4; stroke: #1f77b4"/>
     <use xlink:href="#me561a6b2f6" x="179.354457" y="102.32419" style="fill: #1f77b4; stroke: #1f77b4"/>
     <use xlink:href="#me561a6b2f6" x="182.692722" y="104.603826" style="fill: #1f77b4; stroke: #1f77b4"/>
     <use xlink:href="#me561a6b2f6" x="186.030987" y="99.051134" style="fill: #1f77b4; stroke: #1f77b4"/>
     <use xlink:href="#me561a6b2f6" x="189.369253" y="101.049903" style="fill: #1f77b4; stroke: #1f77b4"/>
     <use xlink:href="#me561a6b2f6" x="192.707518" y="99.215433" style="fill: #1f77b4; stroke: #1f77b4"/>
     <use xlink:href="#me561a6b2f6" x="196.045783" y="95.657897" style="fill: #1f77b4; stroke: #1f77b4"/>
     <use xlink:href="#me561a6b2f6" x="199.384048" y="105.747495" style="fill: #1f77b4; stroke: #1f77b4"/>
     <use xlink:href="#me561a6b2f6" x="202.722313" y="99.393302" style="fill: #1f77b4; stroke: #1f77b4"/>
     <use xlink:href="#me561a6b2f6" x="206.060579" y="103.187692" style="fill: #1f77b4; stroke: #1f77b4"/>
     <use xlink:href="#me561a6b2f6" x="209.398844" y="100.461718" style="fill: #1f77b4; stroke: #1f77b4"/>
     <use xlink:href="#me561a6b2f6" x="212.737109" y="94.862326" style="fill: #1f77b4; stroke: #1f77b4"/>
     <use xlink:href="#me561a6b2f6" x="216.075374" y="103.924903" style="fill: #1f77b4; stroke: #1f77b4"/>
     <use xlink:href="#me561a6b2f6" x="219.413639" y="100.297359" style="fill: #1f77b4; stroke: #1f77b4"/>
     <use xlink:href="#me561a6b2f6" x="222.751905" y="98.408547" style="fill: #1f77b4; stroke: #1f77b4"/>
     <use xlink:href="#me561a6b2f6" x="226.09017" y="96.680341" style="fill: #1f77b4; stroke: #1f77b4"/>
     <use xlink:href="#me561a6b2f6" x="229.428435" y="102.322102" style="fill: #1f77b4; stroke: #1f77b4"/>
     <use xlink:href="#me561a6b2f6" x="232.7667" y="98.522498" style="fill: #1f77b4; stroke: #1f77b4"/>
     <use xlink:href="#me561a6b2f6" x="236.104966" y="93.857448" style="fill: #1f77b4; stroke: #1f77b4"/>
     <use xlink:href="#me561a6b2f6" x="239.443231" y="100.006017" style="fill: #1f77b4; stroke: #1f77b4"/>
     <use xlink:href="#me561a6b2f6" x="242.781496" y="97.943068" style="fill: #1f77b4; stroke: #1f77b4"/>
     <use xlink:href="#me561a6b2f6" x="246.119761" y="93.90153" style="fill: #1f77b4; stroke: #1f77b4"/>
     <use xlink:href="#me561a6b2f6" x="249.458026" y="94.839972" style="fill: #1f77b4; stroke: #1f77b4"/>
     <use xlink:href="#me561a6b2f6" x="252.796292" y="93.755274" style="fill: #1f77b4; stroke: #1f77b4"/>
     <use xlink:href="#me561a6b2f6" x="256.134557" y="90.864848" style="fill: #1f77b4; stroke: #1f77b4"/>
     <use xlink:href="#me561a6b2f6" x="259.472822" y="99.998267" style="fill: #1f77b4; stroke: #1f77b4"/>
     <use xlink:href="#me561a6b2f6" x="262.811087" y="102.386785" style="fill: #1f77b4; stroke: #1f77b4"/>
     <use xlink:href="#me561a6b2f6" x="266.149352" y="94.874815" style="fill: #1f77b4; stroke: #1f77b4"/>
     <use xlink:href="#me561a6b2f6" x="269.487618" y="103.069393" style="fill: #1f77b4; stroke: #1f77b4"/>
     <use xlink:href="#me561a6b2f6" x="272.825883" y="99.076251" style="fill: #1f77b4; stroke: #1f77b4"/>
     <use xlink:href="#me561a6b2f6" x="276.164148" y="104.566504" style="fill: #1f77b4; stroke: #1f77b4"/>
     <use xlink:href="#me561a6b2f6" x="279.502413" y="102.497428" style="fill: #1f77b4; stroke: #1f77b4"/>
     <use xlink:href="#me561a6b2f6" x="282.840679" y="100.887376" style="fill: #1f77b4; stroke: #1f77b4"/>
     <use xlink:href="#me561a6b2f6" x="286.178944" y="106.134406" style="fill: #1f77b4; stroke: #1f77b4"/>
     <use xlink:href="#me561a6b2f6" x="289.517209" y="105.106153" style="fill: #1f77b4; stroke: #1f77b4"/>
     <use xlink:href="#me561a6b2f6" x="292.855474" y="110.5752" style="fill: #1f77b4; stroke: #1f77b4"/>
     <use xlink:href="#me561a6b2f6" x="296.193739" y="113.424241" style="fill: #1f77b4; stroke: #1f77b4"/>
     <use xlink:href="#me561a6b2f6" x="299.532005" y="110.789367" style="fill: #1f77b4; stroke: #1f77b4"/>
     <use xlink:href="#me561a6b2f6" x="302.87027" y="113.092975" style="fill: #1f77b4; stroke: #1f77b4"/>
     <use xlink:href="#me561a6b2f6" x="306.208535" y="110.233634" style="fill: #1f77b4; stroke: #1f77b4"/>
     <use xlink:href="#me561a6b2f6" x="309.5468" y="111.543852" style="fill: #1f77b4; stroke: #1f77b4"/>
     <use xlink:href="#me561a6b2f6" x="312.885066" y="116.330828" style="fill: #1f77b4; stroke: #1f77b4"/>
     <use xlink:href="#me561a6b2f6" x="316.223331" y="115.943025" style="fill: #1f77b4; stroke: #1f77b4"/>
     <use xlink:href="#me561a6b2f6" x="319.561596" y="119.468971" style="fill: #1f77b4; stroke: #1f77b4"/>
     <use xlink:href="#me561a6b2f6" x="322.899861" y="111.585381" style="fill: #1f77b4; stroke: #1f77b4"/>
     <use xlink:href="#me561a6b2f6" x="326.238126" y="114.845229" style="fill: #1f77b4; stroke: #1f77b4"/>
     <use xlink:href="#me561a6b2f6" x="329.576392" y="113.810179" style="fill: #1f77b4; stroke: #1f77b4"/>
     <use xlink:href="#me561a6b2f6" x="332.914657" y="113.104598" style="fill: #1f77b4; stroke: #1f77b4"/>
     <use xlink:href="#me561a6b2f6" x="336.252922" y="121.749525" style="fill: #1f77b4; stroke: #1f77b4"/>
     <use xlink:href="#me561a6b2f6" x="339.591187" y="122.771611" style="fill: #1f77b4; stroke: #1f77b4"/>
     <use xlink:href="#me561a6b2f6" x="342.929452" y="127.03926" style="fill: #1f77b4; stroke: #1f77b4"/>
     <use xlink:href="#me561a6b2f6" x="346.267718" y="121.681523" style="fill: #1f77b4; stroke: #1f77b4"/>
     <use xlink:href="#me561a6b2f6" x="349.605983" y="120.81934" style="fill: #1f77b4; stroke: #1f77b4"/>
     <use xlink:href="#me561a6b2f6" x="352.944248" y="118.466336" style="fill: #1f77b4; stroke: #1f77b4"/>
     <use xlink:href="#me561a6b2f6" x="356.282513" y="125.647036" style="fill: #1f77b4; stroke: #1f77b4"/>
     <use xlink:href="#me561a6b2f6" x="359.620779" y="125.699392" style="fill: #1f77b4; stroke: #1f77b4"/>
     <use xlink:href="#me561a6b2f6" x="362.959044" y="127.984272" style="fill: #1f77b4; stroke: #1f77b4"/>
     <use xlink:href="#me561a6b2f6" x="366.297309" y="124.281024" style="fill: #1f77b4; stroke: #1f77b4"/>
     <use xlink:href="#me561a6b2f6" x="369.635574" y="127.837155" style="fill: #1f77b4; stroke: #1f77b4"/>
     <use xlink:href="#me561a6b2f6" x="372.973839" y="128.789281" style="fill: #1f77b4; stroke: #1f77b4"/>
     <use xlink:href="#me561a6b2f6" x="376.312105" y="129.477183" style="fill: #1f77b4; stroke: #1f77b4"/>
     <use xlink:href="#me561a6b2f6" x="379.65037" y="124.904327" style="fill: #1f77b4; stroke: #1f77b4"/>
     <use xlink:href="#me561a6b2f6" x="382.988635" y="132.097676" style="fill: #1f77b4; stroke: #1f77b4"/>
     <use xlink:href="#me561a6b2f6" x="386.3269" y="124.821262" style="fill: #1f77b4; stroke: #1f77b4"/>
     <use xlink:href="#me561a6b2f6" x="389.665165" y="132.94685" style="fill: #1f77b4; stroke: #1f77b4"/>
     <use xlink:href="#me561a6b2f6" x="393.003431" y="130.408506" style="fill: #1f77b4; stroke: #1f77b4"/>
     <use xlink:href="#me561a6b2f6" x="396.341696" y="131.915851" style="fill: #1f77b4; stroke: #1f77b4"/>
     <use xlink:href="#me561a6b2f6" x="399.679961" y="129.719779" style="fill: #1f77b4; stroke: #1f77b4"/>
     <use xlink:href="#me561a6b2f6" x="403.018226" y="131.282669" style="fill: #1f77b4; stroke: #1f77b4"/>
     <use xlink:href="#me561a6b2f6" x="406.356492" y="133.352517" style="fill: #1f77b4; stroke: #1f77b4"/>
     <use xlink:href="#me561a6b2f6" x="409.694757" y="132.006331" style="fill: #1f77b4; stroke: #1f77b4"/>
     <use xlink:href="#me561a6b2f6" x="413.033022" y="140.879283" style="fill: #1f77b4; stroke: #1f77b4"/>
     <use xlink:href="#me561a6b2f6" x="416.371287" y="134.165399" style="fill: #1f77b4; stroke: #1f77b4"/>
     <use xlink:href="#me561a6b2f6" x="419.709552" y="135.784744" style="fill: #1f77b4; stroke: #1f77b4"/>
     <use xlink:href="#me561a6b2f6" x="423.047818" y="140.790587" style="fill: #1f77b4; stroke: #1f77b4"/>
     <use xlink:href="#me561a6b2f6" x="426.386083" y="136.065998" style="fill: #1f77b4; stroke: #1f77b4"/>
     <use xlink:href="#me561a6b2f6" x="429.724348" y="134.073223" style="fill: #1f77b4; stroke: #1f77b4"/>
     <use xlink:href="#me561a6b2f6" x="433.062613" y="142.524817" style="fill: #1f77b4; stroke: #1f77b4"/>
     <use xlink:href="#me561a6b2f6" x="436.400879" y="142.356184" style="fill: #1f77b4; stroke: #1f77b4"/>
     <use xlink:href="#me561a6b2f6" x="439.739144" y="139.460242" style="fill: #1f77b4; stroke: #1f77b4"/>
     <use xlink:href="#me561a6b2f6" x="443.077409" y="143.021864" style="fill: #1f77b4; stroke: #1f77b4"/>
     <use xlink:href="#me561a6b2f6" x="446.415674" y="139.848188" style="fill: #1f77b4; stroke: #1f77b4"/>
     <use xlink:href="#me561a6b2f6" x="449.753939" y="138.508198" style="fill: #1f77b4; stroke: #1f77b4"/>
     <use xlink:href="#me561a6b2f6" x="453.092205" y="145.569605" style="fill: #1f77b4; stroke: #1f77b4"/>
     <use xlink:href="#me561a6b2f6" x="456.43047" y="145.798038" style="fill: #1f77b4; stroke: #1f77b4"/>
     <use xlink:href="#me561a6b2f6" x="459.768735" y="150.221141" style="fill: #1f77b4; stroke: #1f77b4"/>
     <use xlink:href="#me561a6b2f6" x="463.107" y="155.154792" style="fill: #1f77b4; stroke: #1f77b4"/>
     <use xlink:href="#me561a6b2f6" x="466.445265" y="156.355249" style="fill: #1f77b4; stroke: #1f77b4"/>
     <use xlink:href="#me561a6b2f6" x="469.783531" y="155.839665" style="fill: #1f77b4; stroke: #1f77b4"/>
     <use xlink:href="#me561a6b2f6" x="473.121796" y="158.445246" style="fill: #1f77b4; stroke: #1f77b4"/>
     <use xlink:href="#me561a6b2f6" x="476.460061" y="161.523402" style="fill: #1f77b4; stroke: #1f77b4"/>
     <use xlink:href="#me561a6b2f6" x="479.798326" y="161.283606" style="fill: #1f77b4; stroke: #1f77b4"/>
     <use xlink:href="#me561a6b2f6" x="483.136592" y="161.924383" style="fill: #1f77b4; stroke: #1f77b4"/>
     <use xlink:href="#me561a6b2f6" x="486.474857" y="169.239217" style="fill: #1f77b4; stroke: #1f77b4"/>
     <use xlink:href="#me561a6b2f6" x="489.813122" y="171.377905" style="fill: #1f77b4; stroke: #1f77b4"/>
     <use xlink:href="#me561a6b2f6" x="493.151387" y="175.386752" style="fill: #1f77b4; stroke: #1f77b4"/>
     <use xlink:href="#me561a6b2f6" x="496.489652" y="177.694929" style="fill: #1f77b4; stroke: #1f77b4"/>
     <use xlink:href="#me561a6b2f6" x="499.827918" y="184.40724" style="fill: #1f77b4; stroke: #1f77b4"/>
     <use xlink:href="#me561a6b2f6" x="503.166183" y="190.980838" style="fill: #1f77b4; stroke: #1f77b4"/>
     <use xlink:href="#me561a6b2f6" x="506.504448" y="187.115489" style="fill: #1f77b4; stroke: #1f77b4"/>
     <use xlink:href="#me561a6b2f6" x="509.842713" y="198.435073" style="fill: #1f77b4; stroke: #1f77b4"/>
     <use xlink:href="#me561a6b2f6" x="513.180978" y="207.792421" style="fill: #1f77b4; stroke: #1f77b4"/>
     <use xlink:href="#me561a6b2f6" x="516.519244" y="210.02045" style="fill: #1f77b4; stroke: #1f77b4"/>
     <use xlink:href="#me561a6b2f6" x="519.857509" y="215.946011" style="fill: #1f77b4; stroke: #1f77b4"/>
     <use xlink:href="#me561a6b2f6" x="523.195774" y="223.690114" style="fill: #1f77b4; stroke: #1f77b4"/>
     <use xlink:href="#me561a6b2f6" x="526.534039" y="236.117084" style="fill: #1f77b4; stroke: #1f77b4"/>
     <use xlink:href="#me561a6b2f6" x="529.872305" y="240.583044" style="fill: #1f77b4; stroke: #1f77b4"/>
     <use xlink:href="#me561a6b2f6" x="533.21057" y="251.099303" style="fill: #1f77b4; stroke: #1f77b4"/>
     <use xlink:href="#me561a6b2f6" x="536.548835" y="262.600474" style="fill: #1f77b4; stroke: #1f77b4"/>
     <use xlink:href="#me561a6b2f6" x="539.8871" y="279.523266" style="fill: #1f77b4; stroke: #1f77b4"/>
     <use xlink:href="#me561a6b2f6" x="543.225365" y="295.309775" style="fill: #1f77b4; stroke: #1f77b4"/>
     <use xlink:href="#me561a6b2f6" x="546.563631" y="311.349983" style="fill: #1f77b4; stroke: #1f77b4"/>
     <use xlink:href="#me561a6b2f6" x="549.901896" y="328.394975" style="fill: #1f77b4; stroke: #1f77b4"/>
     <use xlink:href="#me561a6b2f6" x="553.240161" y="342.088427" style="fill: #1f77b4; stroke: #1f77b4"/>
     <use xlink:href="#me561a6b2f6" x="556.578426" y="357.396118" style="fill: #1f77b4; stroke: #1f77b4"/>
     <use xlink:href="#me561a6b2f6" x="559.916692" y="368.139271" style="fill: #1f77b4; stroke: #1f77b4"/>
     <use xlink:href="#me561a6b2f6" x="563.254957" y="378.387349" style="fill: #1f77b4; stroke: #1f77b4"/>
     <use xlink:href="#me561a6b2f6" x="566.593222" y="386.925909" style="fill: #1f77b4; stroke: #1f77b4"/>
     <use xlink:href="#me561a6b2f6" x="569.931487" y="394.739753" style="fill: #1f77b4; stroke: #1f77b4"/>
     <use xlink:href="#me561a6b2f6" x="573.269752" y="400.986928" style="fill: #1f77b4; stroke: #1f77b4"/>
     <use xlink:href="#me561a6b2f6" x="576.608018" y="406.625043" style="fill: #1f77b4; stroke: #1f77b4"/>
     <use xlink:href="#me561a6b2f6" x="579.946283" y="411.571082" style="fill: #1f77b4; stroke: #1f77b4"/>
     <use xlink:href="#me561a6b2f6" x="583.284548" y="411.380724" style="fill: #1f77b4; stroke: #1f77b4"/>
     <use xlink:href="#me561a6b2f6" x="586.622813" y="411.426327" style="fill: #1f77b4; stroke: #1f77b4"/>
     <use xlink:href="#me561a6b2f6" x="589.961078" y="411.48156" style="fill: #1f77b4; stroke: #1f77b4"/>
     <use xlink:href="#me561a6b2f6" x="593.299344" y="411.525815" style="fill: #1f77b4; stroke: #1f77b4"/>
     <use xlink:href="#me561a6b2f6" x="596.637609" y="411.400921" style="fill: #1f77b4; stroke: #1f77b4"/>
     <use xlink:href="#me561a6b2f6" x="599.975874" y="411.391219" style="fill: #1f77b4; stroke: #1f77b4"/>
     <use xlink:href="#me561a6b2f6" x="603.314139" y="411.383345" style="fill: #1f77b4; stroke: #1f77b4"/>
     <use xlink:href="#me561a6b2f6" x="606.652405" y="411.543082" style="fill: #1f77b4; stroke: #1f77b4"/>
     <use xlink:href="#me561a6b2f6" x="609.99067" y="411.482384" style="fill: #1f77b4; stroke: #1f77b4"/>
     <use xlink:href="#me561a6b2f6" x="613.328935" y="411.484958" style="fill: #1f77b4; stroke: #1f77b4"/>
     <use xlink:href="#me561a6b2f6" x="616.6672" y="411.660393" style="fill: #1f77b4; stroke: #1f77b4"/>
     <use xlink:href="#me561a6b2f6" x="620.005465" y="411.56793" style="fill: #1f77b4; stroke: #1f77b4"/>
     <use xlink:href="#me561a6b2f6" x="623.343731" y="411.524788" style="fill: #1f77b4; stroke: #1f77b4"/>
     <use xlink:href="#me561a6b2f6" x="626.681996" y="411.51785" style="fill: #1f77b4; stroke: #1f77b4"/>
     <use xlink:href="#me561a6b2f6" x="630.020261" y="411.524567" style="fill: #1f77b4; stroke: #1f77b4"/>
     <use xlink:href="#me561a6b2f6" x="633.358526" y="411.582968" style="fill: #1f77b4; stroke: #1f77b4"/>
     <use xlink:href="#me561a6b2f6" x="636.696791" y="411.489004" style="fill: #1f77b4; stroke: #1f77b4"/>
     <use xlink:href="#me561a6b2f6" x="640.035057" y="411.446296" style="fill: #1f77b4; stroke: #1f77b4"/>
     <use xlink:href="#me561a6b2f6" x="643.373322" y="411.548071" style="fill: #1f77b4; stroke: #1f77b4"/>
     <use xlink:href="#me561a6b2f6" x="646.711587" y="411.503389" style="fill: #1f77b4; stroke: #1f77b4"/>
     <use xlink:href="#me561a6b2f6" x="650.049852" y="411.53824" style="fill: #1f77b4; stroke: #1f77b4"/>
     <use xlink:href="#me561a6b2f6" x="653.388118" y="411.431331" style="fill: #1f77b4; stroke: #1f77b4"/>
     <use xlink:href="#me561a6b2f6" x="656.726383" y="411.563056" style="fill: #1f77b4; stroke: #1f77b4"/>
     <use xlink:href="#me561a6b2f6" x="660.064648" y="411.464536" style="fill: #1f77b4; stroke: #1f77b4"/>
     <use xlink:href="#me561a6b2f6" x="663.402913" y="411.499527" style="fill: #1f77b4; stroke: #1f77b4"/>
     <use xlink:href="#me561a6b2f6" x="666.741178" y="411.467602" style="fill: #1f77b4; stroke: #1f77b4"/>
     <use xlink:href="#me561a6b2f6" x="670.079444" y="411.62943" style="fill: #1f77b4; stroke: #1f77b4"/>
     <use xlink:href="#me561a6b2f6" x="673.417709" y="411.553632" style="fill: #1f77b4; stroke: #1f77b4"/>
     <use xlink:href="#me561a6b2f6" x="676.755974" y="411.520197" style="fill: #1f77b4; stroke: #1f77b4"/>
     <use xlink:href="#me561a6b2f6" x="680.094239" y="411.438719" style="fill: #1f77b4; stroke: #1f77b4"/>
     <use xlink:href="#me561a6b2f6" x="683.432505" y="411.467109" style="fill: #1f77b4; stroke: #1f77b4"/>
     <use xlink:href="#me561a6b2f6" x="686.77077" y="411.427961" style="fill: #1f77b4; stroke: #1f77b4"/>
     <use xlink:href="#me561a6b2f6" x="690.109035" y="411.606286" style="fill: #1f77b4; stroke: #1f77b4"/>
     <use xlink:href="#me561a6b2f6" x="693.4473" y="411.387806" style="fill: #1f77b4; stroke: #1f77b4"/>
     <use xlink:href="#me561a6b2f6" x="696.785565" y="411.535625" style="fill: #1f77b4; stroke: #1f77b4"/>
     <use xlink:href="#me561a6b2f6" x="700.123831" y="411.464281" style="fill: #1f77b4; stroke: #1f77b4"/>
     <use xlink:href="#me561a6b2f6" x="703.462096" y="411.54124" style="fill: #1f77b4; stroke: #1f77b4"/>
     <use xlink:href="#me561a6b2f6" x="706.800361" y="411.553238" style="fill: #1f77b4; stroke: #1f77b4"/>
     <use xlink:href="#me561a6b2f6" x="710.138626" y="411.486512" style="fill: #1f77b4; stroke: #1f77b4"/>
     <use xlink:href="#me561a6b2f6" x="713.476891" y="411.48491" style="fill: #1f77b4; stroke: #1f77b4"/>
    </g>
   </g>
   <g id="legend_1">
    <g id="line2d_25">
     <path d="M 526.311563 43.696094 
L 536.311563 43.696094 
L 546.311563 43.696094 
" style="fill: none; stroke: #1f77b4; stroke-width: 2.6; stroke-linecap: square"/>
    </g>
    <g id="text_16">
     <!-- teoria di Drude -->
     <g transform="translate(554.311563 47.196094) scale(0.1 -0.1)">
      <defs>
       <path id="DejaVuSans-44" d="M 1259 4147 
L 1259 519 
L 2022 519 
Q 2988 519 3436 956 
Q 3884 1394 3884 2338 
Q 3884 3275 3436 3711 
Q 2988 4147 2022 4147 
L 1259 4147 
z
M 628 4666 
L 1925 4666 
Q 3281 4666 3915 4102 
Q 4550 3538 4550 2338 
Q 4550 1131 3912 565 
Q 3275 0 1925 0 
L 628 0 
L 628 4666 
z
" transform="scale(0.015625)"/>
       <path id="DejaVuSans-75" d="M 544 1381 
L 544 3500 
L 1119 3500 
L 1119 1403 
Q 1119 906 1312 657 
Q 1506 409 1894 409 
Q 2359 409 2629 706 
Q 2900 1003 2900 1516 
L 2900 3500 
L 3475 3500 
L 3475 0 
L 2900 0 
L 2900 538 
Q 2691 219 2414 64 
Q 2138 -91 1772 -91 
Q 1169 -91 856 284 
Q 544 659 544 1381 
z
M 1991 3584 
L 1991 3584 
z
" transform="scale(0.015625)"/>
      </defs>
      <use xlink:href="#DejaVuSans-74"/>
      <use xlink:href="#DejaVuSans-65" transform="translate(39.208984 0)"/>
      <use xlink:href="#DejaVuSans-6f" transform="translate(100.732422 0)"/>
      <use xlink:href="#DejaVuSans-72" transform="translate(161.914062 0)"/>
      <use xlink:href="#DejaVuSans-69" transform="translate(203.027344 0)"/>
      <use xlink:href="#DejaVuSans-61" transform="translate(230.810547 0)"/>
      <use xlink:href="#DejaVuSans-20" transform="translate(292.089844 0)"/>
      <use xlink:href="#DejaVuSans-64" transform="translate(323.876953 0)"/>
      <use xlink:href="#DejaVuSans-69" transform="translate(387.353516 0)"/>
      <use xlink:href="#DejaVuSans-20" transform="translate(415.136719 0)"/>
      <use xlink:href="#DejaVuSans-44" transform="translate(446.923828 0)"/>
      <use xlink:href="#DejaVuSans-72" transform="translate(523.925781 0)"/>
      <use xlink:href="#DejaVuSans-75" transform="translate(565.039062 0)"/>
      <use xlink:href="#DejaVuSans-64" transform="translate(628.417969 0)"/>
      <use xlink:href="#DejaVuSans-65" transform="translate(691.894531 0)"/>
     </g>
    </g>
    <g id="PathCollection_2">
     <g>
      <use xlink:href="#me561a6b2f6" x="536.311563" y="59.249219" style="fill: #1f77b4; stroke: #1f77b4"/>
     </g>
    </g>
    <g id="text_17">
     <!-- andamento sperimentale sintetico -->
     <g transform="translate(554.311563 61.874219) scale(0.1 -0.1)">
      <defs>
       <path id="DejaVuSans-6d" d="M 3328 2828 
Q 3544 3216 3844 3400 
Q 4144 3584 4550 3584 
Q 5097 3584 5394 3201 
Q 5691 2819 5691 2113 
L 5691 0 
L 5113 0 
L 5113 2094 
Q 5113 2597 4934 2840 
Q 4756 3084 4391 3084 
Q 3944 3084 3684 2787 
Q 3425 2491 3425 1978 
L 3425 0 
L 2847 0 
L 2847 2094 
Q 2847 2600 2669 2842 
Q 2491 3084 2119 3084 
Q 1678 3084 1418 2786 
Q 1159 2488 1159 1978 
L 1159 0 
L 581 0 
L 581 3500 
L 1159 3500 
L 1159 2956 
Q 1356 3278 1631 3431 
Q 1906 3584 2284 3584 
Q 2666 3584 2933 3390 
Q 3200 3197 3328 2828 
z
" transform="scale(0.015625)"/>
       <path id="DejaVuSans-73" d="M 2834 3397 
L 2834 2853 
Q 2591 2978 2328 3040 
Q 2066 3103 1784 3103 
Q 1356 3103 1142 2972 
Q 928 2841 928 2578 
Q 928 2378 1081 2264 
Q 1234 2150 1697 2047 
L 1894 2003 
Q 2506 1872 2764 1633 
Q 3022 1394 3022 966 
Q 3022 478 2636 193 
Q 2250 -91 1575 -91 
Q 1294 -91 989 -36 
Q 684 19 347 128 
L 347 722 
Q 666 556 975 473 
Q 1284 391 1588 391 
Q 1994 391 2212 530 
Q 2431 669 2431 922 
Q 2431 1156 2273 1281 
Q 2116 1406 1581 1522 
L 1381 1569 
Q 847 1681 609 1914 
Q 372 2147 372 2553 
Q 372 3047 722 3315 
Q 1072 3584 1716 3584 
Q 2034 3584 2315 3537 
Q 2597 3491 2834 3397 
z
" transform="scale(0.015625)"/>
       <path id="DejaVuSans-70" d="M 1159 525 
L 1159 -1331 
L 581 -1331 
L 581 3500 
L 1159 3500 
L 1159 2969 
Q 1341 3281 1617 3432 
Q 1894 3584 2278 3584 
Q 2916 3584 3314 3078 
Q 3713 2572 3713 1747 
Q 3713 922 3314 415 
Q 2916 -91 2278 -91 
Q 1894 -91 1617 61 
Q 1341 213 1159 525 
z
M 3116 1747 
Q 3116 2381 2855 2742 
Q 2594 3103 2138 3103 
Q 1681 3103 1420 2742 
Q 1159 2381 1159 1747 
Q 1159 1113 1420 752 
Q 1681 391 2138 391 
Q 2594 391 2855 752 
Q 3116 1113 3116 1747 
z
" transform="scale(0.015625)"/>
       <path id="DejaVuSans-63" d="M 3122 3366 
L 3122 2828 
Q 2878 2963 2633 3030 
Q 2388 3097 2138 3097 
Q 1578 3097 1268 2742 
Q 959 2388 959 1747 
Q 959 1106 1268 751 
Q 1578 397 2138 397 
Q 2388 397 2633 464 
Q 2878 531 3122 666 
L 3122 134 
Q 2881 22 2623 -34 
Q 2366 -91 2075 -91 
Q 1284 -91 818 406 
Q 353 903 353 1747 
Q 353 2603 823 3093 
Q 1294 3584 2113 3584 
Q 2378 3584 2631 3529 
Q 2884 3475 3122 3366 
z
" transform="scale(0.015625)"/>
      </defs>
      <use xlink:href="#DejaVuSans-61"/>
      <use xlink:href="#DejaVuSans-6e" transform="translate(61.279297 0)"/>
      <use xlink:href="#DejaVuSans-64" transform="translate(124.658203 0)"/>
      <use xlink:href="#DejaVuSans-61" transform="translate(188.134766 0)"/>
      <use xlink:href="#DejaVuSans-6d" transform="translate(249.414062 0)"/>
      <use xlink:href="#DejaVuSans-65" transform="translate(346.826172 0)"/>
      <use xlink:href="#DejaVuSans-6e" transform="translate(408.349609 0)"/>
      <use xlink:href="#DejaVuSans-74" transform="translate(471.728516 0)"/>
      <use xlink:href="#DejaVuSans-6f" transform="translate(510.9375 0)"/>
      <use xlink:href="#DejaVuSans-20" transform="translate(572.119141 0)"/>
      <use xlink:href="#DejaVuSans-73" transform="translate(603.90625 0)"/>
      <use xlink:href="#DejaVuSans-70" transform="translate(656.005859 0)"/>
      <use xlink:href="#DejaVuSans-65" transform="translate(719.482422 0)"/>
      <use xlink:href="#DejaVuSans-72" transform="translate(781.005859 0)"/>
      <use xlink:href="#DejaVuSans-69" transform="translate(822.119141 0)"/>
      <use xlink:href="#DejaVuSans-6d" transform="translate(849.902344 0)"/>
      <use xlink:href="#DejaVuSans-65" transform="translate(947.314453 0)"/>
      <use xlink:href="#DejaVuSans-6e" transform="translate(1008.837891 0)"/>
      <use xlink:href="#DejaVuSans-74" transform="translate(1072.216797 0)"/>
      <use xlink:href="#DejaVuSans-61" transform="translate(1111.425781 0)"/>
      <use xlink:href="#DejaVuSans-6c" transform="translate(1172.705078 0)"/>
      <use xlink:href="#DejaVuSans-65" transform="translate(1200.488281 0)"/>
      <use xlink:href="#DejaVuSans-20" transform="translate(1262.011719 0)"/>
      <use xlink:href="#DejaVuSans-73" transform="translate(1293.798828 0)"/>
      <use xlink:href="#DejaVuSans-69" transform="translate(1345.898438 0)"/>
      <use xlink:href="#DejaVuSans-6e" transform="translate(1373.681641 0)"/>
      <use xlink:href="#DejaVuSans-74" transform="translate(1437.060547 0)"/>
      <use xlink:href="#DejaVuSans-65" transform="translate(1476.269531 0)"/>
      <use xlink:href="#DejaVuSans-74" transform="translate(1537.792969 0)"/>
      <use xlink:href="#DejaVuSans-69" transform="translate(1577.001953 0)"/>
      <use xlink:href="#DejaVuSans-63" transform="translate(1604.785156 0)"/>
      <use xlink:href="#DejaVuSans-6f" transform="translate(1659.765625 0)"/>
     </g>
    </g>
   </g>
  </g>
  <g id="text_18">
   <!-- La risposta resta quasi metallica sotto la frequenza di plasma e diminuisce rapidamente oltre 15,8 eV; i punti sintetici includono correzioni interbanda qualitative. -->
   <g transform="translate(7.2 461.517656) scale(0.1 -0.1)">
    <defs>
     <path id="DejaVuSans-4c" d="M 628 4666 
L 1259 4666 
L 1259 531 
L 3531 531 
L 3531 0 
L 628 0 
L 628 4666 
z
" transform="scale(0.015625)"/>
     <path id="DejaVuSans-71" d="M 947 1747 
Q 947 1113 1208 752 
Q 1469 391 1925 391 
Q 2381 391 2643 752 
Q 2906 1113 2906 1747 
Q 2906 2381 2643 2742 
Q 2381 3103 1925 3103 
Q 1469 3103 1208 2742 
Q 947 2381 947 1747 
z
M 2906 525 
Q 2725 213 2448 61 
Q 2172 -91 1784 -91 
Q 1150 -91 751 415 
Q 353 922 353 1747 
Q 353 2572 751 3078 
Q 1150 3584 1784 3584 
Q 2172 3584 2448 3432 
Q 2725 3281 2906 2969 
L 2906 3500 
L 3481 3500 
L 3481 -1331 
L 2906 -1331 
L 2906 525 
z
" transform="scale(0.015625)"/>
     <path id="DejaVuSans-7a" d="M 353 3500 
L 3084 3500 
L 3084 2975 
L 922 459 
L 3084 459 
L 3084 0 
L 275 0 
L 275 525 
L 2438 3041 
L 353 3041 
L 353 3500 
z
" transform="scale(0.015625)"/>
     <path id="DejaVuSans-2c" d="M 750 794 
L 1409 794 
L 1409 256 
L 897 -744 
L 494 -744 
L 750 256 
L 750 794 
z
" transform="scale(0.015625)"/>
     <path id="DejaVuSans-3b" d="M 750 3309 
L 1409 3309 
L 1409 2516 
L 750 2516 
L 750 3309 
z
M 750 794 
L 1409 794 
L 1409 256 
L 897 -744 
L 494 -744 
L 750 256 
L 750 794 
z
" transform="scale(0.015625)"/>
     <path id="DejaVuSans-62" d="M 3116 1747 
Q 3116 2381 2855 2742 
Q 2594 3103 2138 3103 
Q 1681 3103 1420 2742 
Q 1159 2381 1159 1747 
Q 1159 1113 1420 752 
Q 1681 391 2138 391 
Q 2594 391 2855 752 
Q 3116 1113 3116 1747 
z
M 1159 2969 
Q 1341 3281 1617 3432 
Q 1894 3584 2278 3584 
Q 2916 3584 3314 3078 
Q 3713 2572 3713 1747 
Q 3713 922 3314 415 
Q 2916 -91 2278 -91 
Q 1894 -91 1617 61 
Q 1341 213 1159 525 
L 1159 0 
L 581 0 
L 581 4863 
L 1159 4863 
L 1159 2969 
z
" transform="scale(0.015625)"/>
    </defs>
    <use xlink:href="#DejaVuSans-4c"/>
    <use xlink:href="#DejaVuSans-61" transform="translate(55.712891 0)"/>
    <use xlink:href="#DejaVuSans-20" transform="translate(116.992188 0)"/>
    <use xlink:href="#DejaVuSans-72" transform="translate(148.779297 0)"/>
    <use xlink:href="#DejaVuSans-69" transform="translate(189.892578 0)"/>
    <use xlink:href="#DejaVuSans-73" transform="translate(217.675781 0)"/>
    <use xlink:href="#DejaVuSans-70" transform="translate(269.775391 0)"/>
    <use xlink:href="#DejaVuSans-6f" transform="translate(333.251953 0)"/>
    <use xlink:href="#DejaVuSans-73" transform="translate(394.433594 0)"/>
    <use xlink:href="#DejaVuSans-74" transform="translate(446.533203 0)"/>
    <use xlink:href="#DejaVuSans-61" transform="translate(485.742188 0)"/>
    <use xlink:href="#DejaVuSans-20" transform="translate(547.021484 0)"/>
    <use xlink:href="#DejaVuSans-72" transform="translate(578.808594 0)"/>
    <use xlink:href="#DejaVuSans-65" transform="translate(617.671875 0)"/>
    <use xlink:href="#DejaVuSans-73" transform="translate(679.195312 0)"/>
    <use xlink:href="#DejaVuSans-74" transform="translate(731.294922 0)"/>
    <use xlink:href="#DejaVuSans-61" transform="translate(770.503906 0)"/>
    <use xlink:href="#DejaVuSans-20" transform="translate(831.783203 0)"/>
    <use xlink:href="#DejaVuSans-71" transform="translate(863.570312 0)"/>
    <use xlink:href="#DejaVuSans-75" transform="translate(927.046875 0)"/>
    <use xlink:href="#DejaVuSans-61" transform="translate(990.425781 0)"/>
    <use xlink:href="#DejaVuSans-73" transform="translate(1051.705078 0)"/>
    <use xlink:href="#DejaVuSans-69" transform="translate(1103.804688 0)"/>
    <use xlink:href="#DejaVuSans-20" transform="translate(1131.587891 0)"/>
    <use xlink:href="#DejaVuSans-6d" transform="translate(1163.375 0)"/>
    <use xlink:href="#DejaVuSans-65" transform="translate(1260.787109 0)"/>
    <use xlink:href="#DejaVuSans-74" transform="translate(1322.310547 0)"/>
    <use xlink:href="#DejaVuSans-61" transform="translate(1361.519531 0)"/>
    <use xlink:href="#DejaVuSans-6c" transform="translate(1422.798828 0)"/>
    <use xlink:href="#DejaVuSans-6c" transform="translate(1450.582031 0)"/>
    <use xlink:href="#DejaVuSans-69" transform="translate(1478.365234 0)"/>
    <use xlink:href="#DejaVuSans-63" transform="translate(1506.148438 0)"/>
    <use xlink:href="#DejaVuSans-61" transform="translate(1561.128906 0)"/>
    <use xlink:href="#DejaVuSans-20" transform="translate(1622.408203 0)"/>
    <use xlink:href="#DejaVuSans-73" transform="translate(1654.195312 0)"/>
    <use xlink:href="#DejaVuSans-6f" transform="translate(1706.294922 0)"/>
    <use xlink:href="#DejaVuSans-74" transform="translate(1767.476562 0)"/>
    <use xlink:href="#DejaVuSans-74" transform="translate(1806.685547 0)"/>
    <use xlink:href="#DejaVuSans-6f" transform="translate(1845.894531 0)"/>
    <use xlink:href="#DejaVuSans-20" transform="translate(1907.076172 0)"/>
    <use xlink:href="#DejaVuSans-6c" transform="translate(1938.863281 0)"/>
    <use xlink:href="#DejaVuSans-61" transform="translate(1966.646484 0)"/>
    <use xlink:href="#DejaVuSans-20" transform="translate(2027.925781 0)"/>
    <use xlink:href="#DejaVuSans-66" transform="translate(2059.712891 0)"/>
    <use xlink:href="#DejaVuSans-72" transform="translate(2094.917969 0)"/>
    <use xlink:href="#DejaVuSans-65" transform="translate(2133.78125 0)"/>
    <use xlink:href="#DejaVuSans-71" transform="translate(2195.304688 0)"/>
    <use xlink:href="#DejaVuSans-75" transform="translate(2258.78125 0)"/>
    <use xlink:href="#DejaVuSans-65" transform="translate(2322.160156 0)"/>
    <use xlink:href="#DejaVuSans-6e" transform="translate(2383.683594 0)"/>
    <use xlink:href="#DejaVuSans-7a" transform="translate(2447.0625 0)"/>
    <use xlink:href="#DejaVuSans-61" transform="translate(2499.552734 0)"/>
    <use xlink:href="#DejaVuSans-20" transform="translate(2560.832031 0)"/>
    <use xlink:href="#DejaVuSans-64" transform="translate(2592.619141 0)"/>
    <use xlink:href="#DejaVuSans-69" transform="translate(2656.095703 0)"/>
    <use xlink:href="#DejaVuSans-20" transform="translate(2683.878906 0)"/>
    <use xlink:href="#DejaVuSans-70" transform="translate(2715.666016 0)"/>
    <use xlink:href="#DejaVuSans-6c" transform="translate(2779.142578 0)"/>
    <use xlink:href="#DejaVuSans-61" transform="translate(2806.925781 0)"/>
    <use xlink:href="#DejaVuSans-73" transform="translate(2868.205078 0)"/>
    <use xlink:href="#DejaVuSans-6d" transform="translate(2920.304688 0)"/>
    <use xlink:href="#DejaVuSans-61" transform="translate(3017.716797 0)"/>
    <use xlink:href="#DejaVuSans-20" transform="translate(3078.996094 0)"/>
    <use xlink:href="#DejaVuSans-65" transform="translate(3110.783203 0)"/>
    <use xlink:href="#DejaVuSans-20" transform="translate(3172.306641 0)"/>
    <use xlink:href="#DejaVuSans-64" transform="translate(3204.09375 0)"/>
    <use xlink:href="#DejaVuSans-69" transform="translate(3267.570312 0)"/>
    <use xlink:href="#DejaVuSans-6d" transform="translate(3295.353516 0)"/>
    <use xlink:href="#DejaVuSans-69" transform="translate(3392.765625 0)"/>
    <use xlink:href="#DejaVuSans-6e" transform="translate(3420.548828 0)"/>
    <use xlink:href="#DejaVuSans-75" transform="translate(3483.927734 0)"/>
    <use xlink:href="#DejaVuSans-69" transform="translate(3547.306641 0)"/>
    <use xlink:href="#DejaVuSans-73" transform="translate(3575.089844 0)"/>
    <use xlink:href="#DejaVuSans-63" transform="translate(3627.189453 0)"/>
    <use xlink:href="#DejaVuSans-65" transform="translate(3682.169922 0)"/>
    <use xlink:href="#DejaVuSans-20" transform="translate(3743.693359 0)"/>
    <use xlink:href="#DejaVuSans-72" transform="translate(3775.480469 0)"/>
    <use xlink:href="#DejaVuSans-61" transform="translate(3816.59375 0)"/>
    <use xlink:href="#DejaVuSans-70" transform="translate(3877.873047 0)"/>
    <use xlink:href="#DejaVuSans-69" transform="translate(3941.349609 0)"/>
    <use xlink:href="#DejaVuSans-64" transform="translate(3969.132812 0)"/>
    <use xlink:href="#DejaVuSans-61" transform="translate(4032.609375 0)"/>
    <use xlink:href="#DejaVuSans-6d" transform="translate(4093.888672 0)"/>
    <use xlink:href="#DejaVuSans-65" transform="translate(4191.300781 0)"/>
    <use xlink:href="#DejaVuSans-6e" transform="translate(4252.824219 0)"/>
    <use xlink:href="#DejaVuSans-74" transform="translate(4316.203125 0)"/>
    <use xlink:href="#DejaVuSans-65" transform="translate(4355.412109 0)"/>
    <use xlink:href="#DejaVuSans-20" transform="translate(4416.935547 0)"/>
    <use xlink:href="#DejaVuSans-6f" transform="translate(4448.722656 0)"/>
    <use xlink:href="#DejaVuSans-6c" transform="translate(4509.904297 0)"/>
    <use xlink:href="#DejaVuSans-74" transform="translate(4537.6875 0)"/>
    <use xlink:href="#DejaVuSans-72" transform="translate(4576.896484 0)"/>
    <use xlink:href="#DejaVuSans-65" transform="translate(4615.759766 0)"/>
    <use xlink:href="#DejaVuSans-20" transform="translate(4677.283203 0)"/>
    <use xlink:href="#DejaVuSans-31" transform="translate(4709.070312 0)"/>
    <use xlink:href="#DejaVuSans-35" transform="translate(4772.693359 0)"/>
    <use xlink:href="#DejaVuSans-2c" transform="translate(4836.316406 0)"/>
    <use xlink:href="#DejaVuSans-38" transform="translate(4868.103516 0)"/>
    <use xlink:href="#DejaVuSans-20" transform="translate(4931.726562 0)"/>
    <use xlink:href="#DejaVuSans-65" transform="translate(4963.513672 0)"/>
    <use xlink:href="#DejaVuSans-56" transform="translate(5025.037109 0)"/>
    <use xlink:href="#DejaVuSans-3b" transform="translate(5093.445312 0)"/>
    <use xlink:href="#DejaVuSans-20" transform="translate(5127.136719 0)"/>
    <use xlink:href="#DejaVuSans-69" transform="translate(5158.923828 0)"/>
    <use xlink:href="#DejaVuSans-20" transform="translate(5186.707031 0)"/>
    <use xlink:href="#DejaVuSans-70" transform="translate(5218.494141 0)"/>
    <use xlink:href="#DejaVuSans-75" transform="translate(5281.970703 0)"/>
    <use xlink:href="#DejaVuSans-6e" transform="translate(5345.349609 0)"/>
    <use xlink:href="#DejaVuSans-74" transform="translate(5408.728516 0)"/>
    <use xlink:href="#DejaVuSans-69" transform="translate(5447.9375 0)"/>
    <use xlink:href="#DejaVuSans-20" transform="translate(5475.720703 0)"/>
    <use xlink:href="#DejaVuSans-73" transform="translate(5507.507812 0)"/>
    <use xlink:href="#DejaVuSans-69" transform="translate(5559.607422 0)"/>
    <use xlink:href="#DejaVuSans-6e" transform="translate(5587.390625 0)"/>
    <use xlink:href="#DejaVuSans-74" transform="translate(5650.769531 0)"/>
    <use xlink:href="#DejaVuSans-65" transform="translate(5689.978516 0)"/>
    <use xlink:href="#DejaVuSans-74" transform="translate(5751.501953 0)"/>
    <use xlink:href="#DejaVuSans-69" transform="translate(5790.710938 0)"/>
    <use xlink:href="#DejaVuSans-63" transform="translate(5818.494141 0)"/>
    <use xlink:href="#DejaVuSans-69" transform="translate(5873.474609 0)"/>
    <use xlink:href="#DejaVuSans-20" transform="translate(5901.257812 0)"/>
    <use xlink:href="#DejaVuSans-69" transform="translate(5933.044922 0)"/>
    <use xlink:href="#DejaVuSans-6e" transform="translate(5960.828125 0)"/>
    <use xlink:href="#DejaVuSans-63" transform="translate(6024.207031 0)"/>
    <use xlink:href="#DejaVuSans-6c" transform="translate(6079.1875 0)"/>
    <use xlink:href="#DejaVuSans-75" transform="translate(6106.970703 0)"/>
    <use xlink:href="#DejaVuSans-64" transform="translate(6170.349609 0)"/>
    <use xlink:href="#DejaVuSans-6f" transform="translate(6233.826172 0)"/>
    <use xlink:href="#DejaVuSans-6e" transform="translate(6295.007812 0)"/>
    <use xlink:href="#DejaVuSans-6f" transform="translate(6358.386719 0)"/>
    <use xlink:href="#DejaVuSans-20" transform="translate(6419.568359 0)"/>
    <use xlink:href="#DejaVuSans-63" transform="translate(6451.355469 0)"/>
    <use xlink:href="#DejaVuSans-6f" transform="translate(6506.335938 0)"/>
    <use xlink:href="#DejaVuSans-72" transform="translate(6567.517578 0)"/>
    <use xlink:href="#DejaVuSans-72" transform="translate(6606.880859 0)"/>
    <use xlink:href="#DejaVuSans-65" transform="translate(6645.744141 0)"/>
    <use xlink:href="#DejaVuSans-7a" transform="translate(6707.267578 0)"/>
    <use xlink:href="#DejaVuSans-69" transform="translate(6759.757812 0)"/>
    <use xlink:href="#DejaVuSans-6f" transform="translate(6787.541016 0)"/>
    <use xlink:href="#DejaVuSans-6e" transform="translate(6848.722656 0)"/>
    <use xlink:href="#DejaVuSans-69" transform="translate(6912.101562 0)"/>
    <use xlink:href="#DejaVuSans-20" transform="translate(6939.884766 0)"/>
    <use xlink:href="#DejaVuSans-69" transform="translate(6971.671875 0)"/>
    <use xlink:href="#DejaVuSans-6e" transform="translate(6999.455078 0)"/>
    <use xlink:href="#DejaVuSans-74" transform="translate(7062.833984 0)"/>
    <use xlink:href="#DejaVuSans-65" transform="translate(7102.042969 0)"/>
    <use xlink:href="#DejaVuSans-72" transform="translate(7163.566406 0)"/>
    <use xlink:href="#DejaVuSans-62" transform="translate(7204.679688 0)"/>
    <use xlink:href="#DejaVuSans-61" transform="translate(7268.15625 0)"/>
    <use xlink:href="#DejaVuSans-6e" transform="translate(7329.435547 0)"/>
    <use xlink:href="#DejaVuSans-64" transform="translate(7392.814453 0)"/>
    <use xlink:href="#DejaVuSans-61" transform="translate(7456.291016 0)"/>
    <use xlink:href="#DejaVuSans-20" transform="translate(7517.570312 0)"/>
    <use xlink:href="#DejaVuSans-71" transform="translate(7549.357422 0)"/>
    <use xlink:href="#DejaVuSans-75" transform="translate(7612.833984 0)"/>
    <use xlink:href="#DejaVuSans-61" transform="translate(7676.212891 0)"/>
    <use xlink:href="#DejaVuSans-6c" transform="translate(7737.492188 0)"/>
    <use xlink:href="#DejaVuSans-69" transform="translate(7765.275391 0)"/>
    <use xlink:href="#DejaVuSans-74" transform="translate(7793.058594 0)"/>
    <use xlink:href="#DejaVuSans-61" transform="translate(7832.267578 0)"/>
    <use xlink:href="#DejaVuSans-74" transform="translate(7893.546875 0)"/>
    <use xlink:href="#DejaVuSans-69" transform="translate(7932.755859 0)"/>
    <use xlink:href="#DejaVuSans-76" transform="translate(7960.539062 0)"/>
    <use xlink:href="#DejaVuSans-65" transform="translate(8019.71875 0)"/>
    <use xlink:href="#DejaVuSans-2e" transform="translate(8081.242188 0)"/>
   </g>
  </g>
 </g>
 <defs>
  <clipPath id="p1c238feccf">
   <rect x="110.445313" y="30.597656" width="624.96" height="388.08"/>
  </clipPath>
 </defs>
</svg>
