<?xml version="1.0" encoding="utf-8" standalone="no"?>
<!DOCTYPE svg PUBLIC "-//W3C//DTD SVG 1.1//EN"
  "http://www.w3.org/Graphics/SVG/1.1/DTD/svg11.dtd">
<svg xmlns:xlink="http://www.w3.org/1999/xlink" width="854.317059pt" height="415.287687pt" viewBox="0 0 854.317059 415.287687" xmlns="http://www.w3.org/2000/svg" version="1.1">
 <metadata>
  <rdf:RDF xmlns:dc="http://purl.org/dc/elements/1.1/" xmlns:cc="http://creativecommons.org/ns#" xmlns:rdf="http://www.w3.org/1999/02/22-rdf-syntax-ns#">
   <cc:Work>
    <dc:type rdf:resource="http://purl.org/dc/dcmitype/StillImage"/>
    <dc:date>2026-06-16T12:29:37.086140</dc:date>
    <dc:format>image/svg+xml</dc:format>
    <dc:creator>
     <cc:Agent>
      <dc:title>Matplotlib v3.10.8, https://matplotlib.org/</dc:title>
     </cc:Agent>
    </dc:creator>
   </cc:Work>
  </rdf:RDF>
 </metadata>
 <defs>
  <style type="text/css">*{stroke-linejoin: round; stroke-linecap: butt}</style>
 </defs>
 <g id="figure_1">
  <g id="patch_1">
   <path d="M 0 415.287687 
L 854.317059 415.287687 
L 854.317059 0 
L 0 0 
z
" style="fill: #ffffff"/>
  </g>
  <g id="axes_1">
   <g id="patch_2">
    <path d="M 130.288235 291.133059 
C 151.348481 291.133059 171.54899 282.765734 186.440833 267.873891 
C 201.332676 252.982049 209.7 232.78154 209.7 211.721294 
C 209.7 190.661048 201.332676 170.46054 186.440833 155.568697 
C 171.54899 140.676854 151.348481 132.309529 130.288235 132.309529 
C 109.227989 132.309529 89.027481 140.676854 74.135638 155.568697 
C 59.243795 170.46054 50.876471 190.661048 50.876471 211.721294 
C 50.876471 232.78154 59.243795 252.982049 74.135638 267.873891 
C 89.027481 282.765734 109.227989 291.133059 130.288235 291.133059 
z
" clip-path="url(#pbd6cb11e81)" style="fill: #1f77b4; opacity: 0.18"/>
   </g>
   <g id="PathCollection_1">
    <defs>
     <path id="m4513f4f762" d="M 0 2.645751 
C 0.701661 2.645751 1.374679 2.366978 1.870829 1.870829 
C 2.366978 1.374679 2.645751 0.701661 2.645751 0 
C 2.645751 -0.701661 2.366978 -1.374679 1.870829 -1.870829 
C 1.374679 -2.366978 0.701661 -2.645751 0 -2.645751 
C -0.701661 -2.645751 -1.374679 -2.366978 -1.870829 -1.870829 
C -2.366978 -1.374679 -2.645751 -0.701661 -2.645751 0 
C -2.645751 0.701661 -2.366978 1.374679 -1.870829 1.870829 
C -1.374679 2.366978 -0.701661 2.645751 0 2.645751 
z
" style="stroke: #1f77b4"/>
    </defs>
    <g clip-path="url(#pbd6cb11e81)">
     <use xlink:href="#m4513f4f762" x="130.288235" y="211.721294" style="fill: #1f77b4; stroke: #1f77b4"/>
    </g>
   </g>
   <g id="line2d_1">
    <path d="M 7.2 211.721294 
L 253.376471 211.721294 
" clip-path="url(#pbd6cb11e81)" style="fill: none; stroke: #1f77b4; stroke-width: 0.75; stroke-linecap: square"/>
   </g>
   <g id="line2d_2">
    <path d="M 130.288235 330.838941 
L 130.288235 88.633059 
" clip-path="url(#pbd6cb11e81)" style="fill: none; stroke: #1f77b4; stroke-width: 0.75; stroke-linecap: square"/>
   </g>
   <g id="patch_3">
    <path d="M 223.609661 211.721294 
Q 233.522047 211.721294 242.428203 211.721294 
" style="fill: none; stroke: #000000; stroke-width: 0.9; stroke-linecap: round"/>
    <path d="M 238.428203 209.721294 
L 242.428203 211.721294 
L 238.428203 213.721294 
z
" style="fill: #1f77b4; stroke: #000000; stroke-width: 0.9; stroke-linecap: round"/>
   </g>
   <g id="patch_4">
    <path d="M 130.288235 118.399869 
Q 130.288235 108.487482 130.288235 99.581327 
" style="fill: none; stroke: #000000; stroke-width: 0.9; stroke-linecap: round"/>
    <path d="M 128.288235 103.581327 
L 130.288235 99.581327 
L 132.288235 103.581327 
z
" style="fill: #1f77b4; stroke: #000000; stroke-width: 0.9; stroke-linecap: round"/>
   </g>
   <g id="text_1">
    <!-- $k_x$ -->
    <g transform="translate(247.023529 218.074235) scale(0.09 -0.09)">
     <defs>
      <path id="DejaVuSans-Oblique-6b" d="M 1172 4863 
L 1747 4863 
L 1197 2028 
L 3169 3500 
L 3916 3500 
L 1716 1825 
L 3322 0 
L 2625 0 
L 1131 1709 
L 800 0 
L 225 0 
L 1172 4863 
z
" transform="scale(0.015625)"/>
      <path id="DejaVuSans-Oblique-78" d="M 3841 3500 
L 2234 1784 
L 3219 0 
L 2559 0 
L 1819 1388 
L 531 0 
L -166 0 
L 1556 1844 
L 641 3500 
L 1300 3500 
L 1972 2234 
L 3144 3500 
L 3841 3500 
z
" transform="scale(0.015625)"/>
     </defs>
     <use xlink:href="#DejaVuSans-Oblique-6b" transform="translate(0 0.015625)"/>
     <use xlink:href="#DejaVuSans-Oblique-78" transform="translate(57.910156 -16.390625) scale(0.7)"/>
    </g>
   </g>
   <g id="text_2">
    <!-- $k_y$ -->
    <g transform="translate(120.758824 94.986) scale(0.09 -0.09)">
     <defs>
      <path id="DejaVuSans-Oblique-79" d="M 1588 -325 
Q 1188 -997 936 -1164 
Q 684 -1331 294 -1331 
L -159 -1331 
L -63 -850 
L 269 -850 
Q 509 -850 678 -719 
Q 847 -588 1056 -206 
L 1234 128 
L 459 3500 
L 1069 3500 
L 1650 819 
L 3256 3500 
L 3859 3500 
L 1588 -325 
z
" transform="scale(0.015625)"/>
     </defs>
     <use xlink:href="#DejaVuSans-Oblique-6b" transform="translate(0 0.015625)"/>
     <use xlink:href="#DejaVuSans-Oblique-79" transform="translate(57.910156 -16.390625) scale(0.7)"/>
    </g>
   </g>
   <g id="patch_5">
    <path d="M 130.288235 209.719521 
Q 130.288235 172.013806 130.288235 135.426125 
" style="fill: none; stroke: #000000; stroke-linecap: round"/>
    <path d="M 127.688235 140.626125 
L 130.288235 135.426125 
L 132.888235 140.626125 
z
" style="fill: #1f77b4; stroke: #000000; stroke-linecap: round"/>
   </g>
   <g id="text_3">
    <!-- $k_F$ -->
    <g transform="translate(108.020147 174.636818) scale(0.095 -0.095)">
     <defs>
      <path id="DejaVuSans-Oblique-46" d="M 1081 4666 
L 3756 4666 
L 3653 4134 
L 1606 4134 
L 1338 2759 
L 3188 2759 
L 3084 2228 
L 1234 2228 
L 800 0 
L 172 0 
L 1081 4666 
z
" transform="scale(0.015625)"/>
     </defs>
     <use xlink:href="#DejaVuSans-Oblique-6b" transform="translate(0 0.015625)"/>
     <use xlink:href="#DejaVuSans-Oblique-46" transform="translate(57.910156 -16.390625) scale(0.7)"/>
    </g>
   </g>
   <g id="text_4">
    <!-- $\mathbf{k}=0$ -->
    <g transform="translate(136.641176 221.250706) scale(0.088 -0.088)">
     <defs>
      <path id="DejaVuSans-Bold-6b" d="M 538 4863 
L 1656 4863 
L 1656 2216 
L 2944 3500 
L 4244 3500 
L 2534 1894 
L 4378 0 
L 3022 0 
L 1656 1459 
L 1656 0 
L 538 0 
L 538 4863 
z
" transform="scale(0.015625)"/>
      <path id="DejaVuSans-3d" d="M 678 2906 
L 4684 2906 
L 4684 2381 
L 678 2381 
L 678 2906 
z
M 678 1631 
L 4684 1631 
L 4684 1100 
L 678 1100 
L 678 1631 
z
" transform="scale(0.015625)"/>
      <path id="DejaVuSans-30" d="M 2034 4250 
Q 1547 4250 1301 3770 
Q 1056 3291 1056 2328 
Q 1056 1369 1301 889 
Q 1547 409 2034 409 
Q 2525 409 2770 889 
Q 3016 1369 3016 2328 
Q 3016 3291 2770 3770 
Q 2525 4250 2034 4250 
z
M 2034 4750 
Q 2819 4750 3233 4129 
Q 3647 3509 3647 2328 
Q 3647 1150 3233 529 
Q 2819 -91 2034 -91 
Q 1250 -91 836 529 
Q 422 1150 422 2328 
Q 422 3509 836 4129 
Q 1250 4750 2034 4750 
z
" transform="scale(0.015625)"/>
     </defs>
     <use xlink:href="#DejaVuSans-Bold-6b" transform="translate(0 0.015625)"/>
     <use xlink:href="#DejaVuSans-3d" transform="translate(85.986328 0.015625)"/>
     <use xlink:href="#DejaVuSans-30" transform="translate(189.257812 0.015625)"/>
    </g>
   </g>
   <g id="text_5">
    <!-- equilibrio -->
    <g transform="translate(99.392767 82.633059) scale(0.115 -0.115)">
     <defs>
      <path id="DejaVuSans-Bold-65" d="M 4031 1759 
L 4031 1441 
L 1416 1441 
Q 1456 1047 1700 850 
Q 1944 653 2381 653 
Q 2734 653 3104 758 
Q 3475 863 3866 1075 
L 3866 213 
Q 3469 63 3072 -14 
Q 2675 -91 2278 -91 
Q 1328 -91 801 392 
Q 275 875 275 1747 
Q 275 2603 792 3093 
Q 1309 3584 2216 3584 
Q 3041 3584 3536 3087 
Q 4031 2591 4031 1759 
z
M 2881 2131 
Q 2881 2450 2695 2645 
Q 2509 2841 2209 2841 
Q 1884 2841 1681 2658 
Q 1478 2475 1428 2131 
L 2881 2131 
z
" transform="scale(0.015625)"/>
      <path id="DejaVuSans-Bold-71" d="M 2181 2772 
Q 1825 2772 1636 2509 
Q 1447 2247 1447 1747 
Q 1447 1247 1636 984 
Q 1825 722 2181 722 
Q 2541 722 2730 984 
Q 2919 1247 2919 1747 
Q 2919 2247 2730 2509 
Q 2541 2772 2181 2772 
z
M 2919 506 
Q 2688 197 2409 53 
Q 2131 -91 1766 -91 
Q 1119 -91 703 423 
Q 288 938 288 1747 
Q 288 2556 703 3067 
Q 1119 3578 1766 3578 
Q 2131 3578 2409 3434 
Q 2688 3291 2919 2981 
L 2919 3500 
L 4044 3500 
L 4044 -1331 
L 2919 -1331 
L 2919 506 
z
" transform="scale(0.015625)"/>
      <path id="DejaVuSans-Bold-75" d="M 500 1363 
L 500 3500 
L 1625 3500 
L 1625 3150 
Q 1625 2866 1622 2436 
Q 1619 2006 1619 1863 
Q 1619 1441 1641 1255 
Q 1663 1069 1716 984 
Q 1784 875 1895 815 
Q 2006 756 2150 756 
Q 2500 756 2700 1025 
Q 2900 1294 2900 1772 
L 2900 3500 
L 4019 3500 
L 4019 0 
L 2900 0 
L 2900 506 
Q 2647 200 2364 54 
Q 2081 -91 1741 -91 
Q 1134 -91 817 281 
Q 500 653 500 1363 
z
" transform="scale(0.015625)"/>
      <path id="DejaVuSans-Bold-69" d="M 538 3500 
L 1656 3500 
L 1656 0 
L 538 0 
L 538 3500 
z
M 538 4863 
L 1656 4863 
L 1656 3950 
L 538 3950 
L 538 4863 
z
" transform="scale(0.015625)"/>
      <path id="DejaVuSans-Bold-6c" d="M 538 4863 
L 1656 4863 
L 1656 0 
L 538 0 
L 538 4863 
z
" transform="scale(0.015625)"/>
      <path id="DejaVuSans-Bold-62" d="M 2400 722 
Q 2759 722 2948 984 
Q 3138 1247 3138 1747 
Q 3138 2247 2948 2509 
Q 2759 2772 2400 2772 
Q 2041 2772 1848 2508 
Q 1656 2244 1656 1747 
Q 1656 1250 1848 986 
Q 2041 722 2400 722 
z
M 1656 2988 
Q 1888 3294 2169 3439 
Q 2450 3584 2816 3584 
Q 3463 3584 3878 3070 
Q 4294 2556 4294 1747 
Q 4294 938 3878 423 
Q 3463 -91 2816 -91 
Q 2450 -91 2169 54 
Q 1888 200 1656 506 
L 1656 0 
L 538 0 
L 538 4863 
L 1656 4863 
L 1656 2988 
z
" transform="scale(0.015625)"/>
      <path id="DejaVuSans-Bold-72" d="M 3138 2547 
Q 2991 2616 2845 2648 
Q 2700 2681 2553 2681 
Q 2122 2681 1889 2404 
Q 1656 2128 1656 1613 
L 1656 0 
L 538 0 
L 538 3500 
L 1656 3500 
L 1656 2925 
Q 1872 3269 2151 3426 
Q 2431 3584 2822 3584 
Q 2878 3584 2943 3579 
Q 3009 3575 3134 3559 
L 3138 2547 
z
" transform="scale(0.015625)"/>
      <path id="DejaVuSans-Bold-6f" d="M 2203 2784 
Q 1831 2784 1636 2517 
Q 1441 2250 1441 1747 
Q 1441 1244 1636 976 
Q 1831 709 2203 709 
Q 2569 709 2762 976 
Q 2956 1244 2956 1747 
Q 2956 2250 2762 2517 
Q 2569 2784 2203 2784 
z
M 2203 3584 
Q 3106 3584 3614 3096 
Q 4122 2609 4122 1747 
Q 4122 884 3614 396 
Q 3106 -91 2203 -91 
Q 1297 -91 786 396 
Q 275 884 275 1747 
Q 275 2609 786 3096 
Q 1297 3584 2203 3584 
z
" transform="scale(0.015625)"/>
     </defs>
     <use xlink:href="#DejaVuSans-Bold-65"/>
     <use xlink:href="#DejaVuSans-Bold-71" transform="translate(67.822266 0)"/>
     <use xlink:href="#DejaVuSans-Bold-75" transform="translate(139.404297 0)"/>
     <use xlink:href="#DejaVuSans-Bold-69" transform="translate(210.595703 0)"/>
     <use xlink:href="#DejaVuSans-Bold-6c" transform="translate(244.873047 0)"/>
     <use xlink:href="#DejaVuSans-Bold-69" transform="translate(279.150391 0)"/>
     <use xlink:href="#DejaVuSans-Bold-62" transform="translate(313.427734 0)"/>
     <use xlink:href="#DejaVuSans-Bold-72" transform="translate(385.009766 0)"/>
     <use xlink:href="#DejaVuSans-Bold-69" transform="translate(434.326172 0)"/>
     <use xlink:href="#DejaVuSans-Bold-6f" transform="translate(468.603516 0)"/>
    </g>
   </g>
  </g>
  <g id="axes_2">
   <g id="patch_6">
    <path d="M 459.052941 291.133059 
C 480.113187 291.133059 500.313696 282.765734 515.205539 267.873891 
C 530.097381 252.982049 538.464706 232.78154 538.464706 211.721294 
C 538.464706 190.661048 530.097381 170.46054 515.205539 155.568697 
C 500.313696 140.676854 480.113187 132.309529 459.052941 132.309529 
C 437.992695 132.309529 417.792187 140.676854 402.900344 155.568697 
C 388.008501 170.46054 379.641176 190.661048 379.641176 211.721294 
C 379.641176 232.78154 388.008501 252.982049 402.900344 267.873891 
C 417.792187 282.765734 437.992695 291.133059 459.052941 291.133059 
z
" clip-path="url(#p96cf83da0a)" style="fill: #1f77b4; opacity: 0.18"/>
   </g>
   <g id="PathCollection_2">
    <defs>
     <path id="mb5a42d47b0" d="M 0 2.828427 
C 0.750108 2.828427 1.469594 2.530406 2 2 
C 2.530406 1.469594 2.828427 0.750108 2.828427 0 
C 2.828427 -0.750108 2.530406 -1.469594 2 -2 
C 1.469594 -2.530406 0.750108 -2.828427 0 -2.828427 
C -0.750108 -2.828427 -1.469594 -2.530406 -2 -2 
C -2.530406 -1.469594 -2.828427 -0.750108 -2.828427 0 
C -2.828427 0.750108 -2.530406 1.469594 -2 2 
C -1.469594 2.530406 -0.750108 2.828427 0 2.828427 
z
" style="stroke: #1f77b4"/>
    </defs>
    <g clip-path="url(#p96cf83da0a)">
     <use xlink:href="#mb5a42d47b0" x="459.052941" y="211.721294" style="fill: #1f77b4; stroke: #1f77b4"/>
    </g>
   </g>
   <g id="line2d_3">
    <path d="M 302.611765 211.721294 
L 548.788235 211.721294 
" clip-path="url(#p96cf83da0a)" style="fill: none; stroke: #1f77b4; stroke-width: 0.75; stroke-linecap: square"/>
   </g>
   <g id="line2d_4">
    <path d="M 425.7 330.838941 
L 425.7 88.633059 
" clip-path="url(#p96cf83da0a)" style="fill: none; stroke: #1f77b4; stroke-width: 0.75; stroke-linecap: square"/>
   </g>
   <g id="patch_7">
    <path d="M 519.021425 211.721294 
Q 528.933812 211.721294 537.839968 211.721294 
" style="fill: none; stroke: #000000; stroke-width: 0.9; stroke-linecap: round"/>
    <path d="M 533.839968 209.721294 
L 537.839968 211.721294 
L 533.839968 213.721294 
z
" style="fill: #1f77b4; stroke: #000000; stroke-width: 0.9; stroke-linecap: round"/>
   </g>
   <g id="patch_8">
    <path d="M 425.7 118.399869 
Q 425.7 108.487482 425.7 99.581327 
" style="fill: none; stroke: #000000; stroke-width: 0.9; stroke-linecap: round"/>
    <path d="M 423.7 103.581327 
L 425.7 99.581327 
L 427.7 103.581327 
z
" style="fill: #1f77b4; stroke: #000000; stroke-width: 0.9; stroke-linecap: round"/>
   </g>
   <g id="text_6">
    <!-- $k_x$ -->
    <g transform="translate(542.435294 218.074235) scale(0.09 -0.09)">
     <use xlink:href="#DejaVuSans-Oblique-6b" transform="translate(0 0.015625)"/>
     <use xlink:href="#DejaVuSans-Oblique-78" transform="translate(57.910156 -16.390625) scale(0.7)"/>
    </g>
   </g>
   <g id="text_7">
    <!-- $k_y$ -->
    <g transform="translate(416.170588 94.986) scale(0.09 -0.09)">
     <use xlink:href="#DejaVuSans-Oblique-6b" transform="translate(0 0.015625)"/>
     <use xlink:href="#DejaVuSans-Oblique-79" transform="translate(57.910156 -16.390625) scale(0.7)"/>
    </g>
   </g>
   <g id="patch_9">
    <path d="M 427.699059 211.721294 
Q 442.375141 211.721294 455.821385 211.721294 
" style="fill: none; stroke: #000000; stroke-width: 1.1; stroke-linecap: round"/>
    <path d="M 450.621385 209.121294 
L 455.821385 211.721294 
L 450.621385 214.321294 
z
" style="fill: #1f77b4; stroke: #000000; stroke-width: 1.1; stroke-linecap: round"/>
   </g>
   <g id="text_8">
    <!-- $\Delta\mathbf{k}$ -->
    <g transform="translate(435.963971 200.048583) scale(0.095 -0.095)">
     <defs>
      <path id="DejaVuSans-394" d="M 2188 4044 
L 906 525 
L 3472 525 
L 2188 4044 
z
M 50 0 
L 1831 4666 
L 2547 4666 
L 4325 0 
L 50 0 
z
" transform="scale(0.015625)"/>
     </defs>
     <use xlink:href="#DejaVuSans-394" transform="translate(0 0.015625)"/>
     <use xlink:href="#DejaVuSans-Bold-6b" transform="translate(68.408203 0.015625)"/>
    </g>
   </g>
   <g id="patch_10">
    <path d="M 324.467691 116.427176 
Q 360.18499 116.427176 394.560648 116.427176 
" style="fill: none; stroke: #000000; stroke-width: 1.2; stroke-linecap: round"/>
    <path d="M 389.360648 113.827176 
L 394.560648 116.427176 
L 389.360648 119.027176 
z
" style="fill: #1f77b4; stroke: #000000; stroke-width: 1.2; stroke-linecap: round"/>
   </g>
   <g id="text_9">
    <!-- $\mathbf{E}$ -->
    <g transform="translate(356.907794 103.16623) scale(0.095 -0.095)">
     <defs>
      <path id="DejaVuSans-Bold-45" d="M 588 4666 
L 3834 4666 
L 3834 3756 
L 1791 3756 
L 1791 2888 
L 3713 2888 
L 3713 1978 
L 1791 1978 
L 1791 909 
L 3903 909 
L 3903 0 
L 588 0 
L 588 4666 
z
" transform="scale(0.015625)"/>
     </defs>
     <use xlink:href="#DejaVuSans-Bold-45" transform="translate(0 0.09375)"/>
    </g>
   </g>
   <g id="patch_11">
    <path d="M 395.902897 140.250706 
Q 360.185598 140.250706 325.80994 140.250706 
" style="fill: none; stroke: #000000; stroke-width: 1.2; stroke-linecap: round"/>
    <path d="M 331.00994 142.850706 
L 325.80994 140.250706 
L 331.00994 137.650706 
z
" style="fill: #1f77b4; stroke: #000000; stroke-width: 1.2; stroke-linecap: round"/>
   </g>
   <g id="text_10">
    <!-- $-e\mathbf{E}$ -->
    <g transform="translate(350.020294 128.577994) scale(0.095 -0.095)">
     <defs>
      <path id="DejaVuSans-2212" d="M 678 2272 
L 4684 2272 
L 4684 1741 
L 678 1741 
L 678 2272 
z
" transform="scale(0.015625)"/>
      <path id="DejaVuSans-Oblique-65" d="M 3078 2063 
Q 3088 2113 3092 2166 
Q 3097 2219 3097 2272 
Q 3097 2653 2873 2875 
Q 2650 3097 2266 3097 
Q 1838 3097 1509 2826 
Q 1181 2556 1013 2059 
L 3078 2063 
z
M 3578 1613 
L 903 1613 
Q 884 1494 878 1425 
Q 872 1356 872 1306 
Q 872 872 1139 634 
Q 1406 397 1894 397 
Q 2269 397 2603 481 
Q 2938 566 3225 728 
L 3116 159 
Q 2806 34 2476 -28 
Q 2147 -91 1806 -91 
Q 1078 -91 686 257 
Q 294 606 294 1247 
Q 294 1794 489 2264 
Q 684 2734 1063 3103 
Q 1306 3334 1642 3459 
Q 1978 3584 2356 3584 
Q 2950 3584 3301 3228 
Q 3653 2872 3653 2272 
Q 3653 2128 3634 1964 
Q 3616 1800 3578 1613 
z
" transform="scale(0.015625)"/>
     </defs>
     <use xlink:href="#DejaVuSans-2212" transform="translate(0 0.09375)"/>
     <use xlink:href="#DejaVuSans-Oblique-65" transform="translate(83.789062 0.09375)"/>
     <use xlink:href="#DejaVuSans-Bold-45" transform="translate(145.3125 0.09375)"/>
    </g>
   </g>
   <g id="text_11">
    <!-- campo elettrico applicato -->
    <g transform="translate(342.873945 82.633059) scale(0.115 -0.115)">
     <defs>
      <path id="DejaVuSans-Bold-63" d="M 3366 3391 
L 3366 2478 
Q 3138 2634 2908 2709 
Q 2678 2784 2431 2784 
Q 1963 2784 1702 2511 
Q 1441 2238 1441 1747 
Q 1441 1256 1702 982 
Q 1963 709 2431 709 
Q 2694 709 2930 787 
Q 3166 866 3366 1019 
L 3366 103 
Q 3103 6 2833 -42 
Q 2563 -91 2291 -91 
Q 1344 -91 809 395 
Q 275 881 275 1747 
Q 275 2613 809 3098 
Q 1344 3584 2291 3584 
Q 2566 3584 2833 3536 
Q 3100 3488 3366 3391 
z
" transform="scale(0.015625)"/>
      <path id="DejaVuSans-Bold-61" d="M 2106 1575 
Q 1756 1575 1579 1456 
Q 1403 1338 1403 1106 
Q 1403 894 1545 773 
Q 1688 653 1941 653 
Q 2256 653 2472 879 
Q 2688 1106 2688 1447 
L 2688 1575 
L 2106 1575 
z
M 3816 1997 
L 3816 0 
L 2688 0 
L 2688 519 
Q 2463 200 2181 54 
Q 1900 -91 1497 -91 
Q 953 -91 614 226 
Q 275 544 275 1050 
Q 275 1666 698 1953 
Q 1122 2241 2028 2241 
L 2688 2241 
L 2688 2328 
Q 2688 2594 2478 2717 
Q 2269 2841 1825 2841 
Q 1466 2841 1156 2769 
Q 847 2697 581 2553 
L 581 3406 
Q 941 3494 1303 3539 
Q 1666 3584 2028 3584 
Q 2975 3584 3395 3211 
Q 3816 2838 3816 1997 
z
" transform="scale(0.015625)"/>
      <path id="DejaVuSans-Bold-6d" d="M 3781 2919 
Q 3994 3244 4286 3414 
Q 4578 3584 4928 3584 
Q 5531 3584 5847 3212 
Q 6163 2841 6163 2131 
L 6163 0 
L 5038 0 
L 5038 1825 
Q 5041 1866 5042 1909 
Q 5044 1953 5044 2034 
Q 5044 2406 4934 2573 
Q 4825 2741 4581 2741 
Q 4263 2741 4089 2478 
Q 3916 2216 3909 1719 
L 3909 0 
L 2784 0 
L 2784 1825 
Q 2784 2406 2684 2573 
Q 2584 2741 2328 2741 
Q 2006 2741 1831 2477 
Q 1656 2213 1656 1722 
L 1656 0 
L 531 0 
L 531 3500 
L 1656 3500 
L 1656 2988 
Q 1863 3284 2130 3434 
Q 2397 3584 2719 3584 
Q 3081 3584 3359 3409 
Q 3638 3234 3781 2919 
z
" transform="scale(0.015625)"/>
      <path id="DejaVuSans-Bold-70" d="M 1656 506 
L 1656 -1331 
L 538 -1331 
L 538 3500 
L 1656 3500 
L 1656 2988 
Q 1888 3294 2169 3439 
Q 2450 3584 2816 3584 
Q 3463 3584 3878 3070 
Q 4294 2556 4294 1747 
Q 4294 938 3878 423 
Q 3463 -91 2816 -91 
Q 2450 -91 2169 54 
Q 1888 200 1656 506 
z
M 2400 2772 
Q 2041 2772 1848 2508 
Q 1656 2244 1656 1747 
Q 1656 1250 1848 986 
Q 2041 722 2400 722 
Q 2759 722 2948 984 
Q 3138 1247 3138 1747 
Q 3138 2247 2948 2509 
Q 2759 2772 2400 2772 
z
" transform="scale(0.015625)"/>
      <path id="DejaVuSans-Bold-20" transform="scale(0.015625)"/>
      <path id="DejaVuSans-Bold-74" d="M 1759 4494 
L 1759 3500 
L 2913 3500 
L 2913 2700 
L 1759 2700 
L 1759 1216 
Q 1759 972 1856 886 
Q 1953 800 2241 800 
L 2816 800 
L 2816 0 
L 1856 0 
Q 1194 0 917 276 
Q 641 553 641 1216 
L 641 2700 
L 84 2700 
L 84 3500 
L 641 3500 
L 641 4494 
L 1759 4494 
z
" transform="scale(0.015625)"/>
     </defs>
     <use xlink:href="#DejaVuSans-Bold-63"/>
     <use xlink:href="#DejaVuSans-Bold-61" transform="translate(59.277344 0)"/>
     <use xlink:href="#DejaVuSans-Bold-6d" transform="translate(126.757812 0)"/>
     <use xlink:href="#DejaVuSans-Bold-70" transform="translate(230.957031 0)"/>
     <use xlink:href="#DejaVuSans-Bold-6f" transform="translate(302.539062 0)"/>
     <use xlink:href="#DejaVuSans-Bold-20" transform="translate(371.240234 0)"/>
     <use xlink:href="#DejaVuSans-Bold-65" transform="translate(406.054688 0)"/>
     <use xlink:href="#DejaVuSans-Bold-6c" transform="translate(473.876953 0)"/>
     <use xlink:href="#DejaVuSans-Bold-65" transform="translate(508.154297 0)"/>
     <use xlink:href="#DejaVuSans-Bold-74" transform="translate(575.976562 0)"/>
     <use xlink:href="#DejaVuSans-Bold-74" transform="translate(623.779297 0)"/>
     <use xlink:href="#DejaVuSans-Bold-72" transform="translate(671.582031 0)"/>
     <use xlink:href="#DejaVuSans-Bold-69" transform="translate(720.898438 0)"/>
     <use xlink:href="#DejaVuSans-Bold-63" transform="translate(755.175781 0)"/>
     <use xlink:href="#DejaVuSans-Bold-6f" transform="translate(814.453125 0)"/>
     <use xlink:href="#DejaVuSans-Bold-20" transform="translate(883.154297 0)"/>
     <use xlink:href="#DejaVuSans-Bold-61" transform="translate(917.96875 0)"/>
     <use xlink:href="#DejaVuSans-Bold-70" transform="translate(985.449219 0)"/>
     <use xlink:href="#DejaVuSans-Bold-70" transform="translate(1057.03125 0)"/>
     <use xlink:href="#DejaVuSans-Bold-6c" transform="translate(1128.613281 0)"/>
     <use xlink:href="#DejaVuSans-Bold-69" transform="translate(1162.890625 0)"/>
     <use xlink:href="#DejaVuSans-Bold-63" transform="translate(1197.167969 0)"/>
     <use xlink:href="#DejaVuSans-Bold-61" transform="translate(1256.445312 0)"/>
     <use xlink:href="#DejaVuSans-Bold-74" transform="translate(1323.925781 0)"/>
     <use xlink:href="#DejaVuSans-Bold-6f" transform="translate(1371.728516 0)"/>
    </g>
   </g>
  </g>
  <g id="axes_3">
   <g id="patch_12">
    <path d="M 721.111765 291.133059 
C 742.172011 291.133059 762.372519 282.765734 777.264362 267.873891 
C 792.156205 252.982049 800.523529 232.78154 800.523529 211.721294 
C 800.523529 190.661048 792.156205 170.46054 777.264362 155.568697 
C 762.372519 140.676854 742.172011 132.309529 721.111765 132.309529 
C 700.051519 132.309529 679.85101 140.676854 664.959167 155.568697 
C 650.067324 170.46054 641.7 190.661048 641.7 211.721294 
C 641.7 232.78154 650.067324 252.982049 664.959167 267.873891 
C 679.85101 282.765734 700.051519 291.133059 721.111765 291.133059 
z
" clip-path="url(#p83d70d991e)" style="fill: #1f77b4; opacity: 0.12; stroke-dasharray: 3.7,1.6; stroke-dashoffset: 0"/>
   </g>
   <g id="patch_13">
    <path d="M 754.464706 291.133059 
C 775.524952 291.133059 795.72546 282.765734 810.617303 267.873891 
C 825.509146 252.982049 833.876471 232.78154 833.876471 211.721294 
C 833.876471 190.661048 825.509146 170.46054 810.617303 155.568697 
C 795.72546 140.676854 775.524952 132.309529 754.464706 132.309529 
C 733.40446 132.309529 713.203951 140.676854 698.312109 155.568697 
C 683.420266 170.46054 675.052941 190.661048 675.052941 211.721294 
C 675.052941 232.78154 683.420266 252.982049 698.312109 267.873891 
C 713.203951 282.765734 733.40446 291.133059 754.464706 291.133059 
L 754.464706 291.133059 
z
" clip-path="url(#p83d70d991e)" style="fill: none; stroke-dasharray: 1,1.65; stroke-dashoffset: 0; stroke: #000000; stroke-linejoin: miter"/>
   </g>
   <g id="PathCollection_3">
    <g clip-path="url(#p83d70d991e)">
     <use xlink:href="#m4513f4f762" x="754.464706" y="211.721294" style="fill: #1f77b4; stroke: #1f77b4"/>
    </g>
   </g>
   <g id="PathCollection_4">
    <defs>
     <path id="m47aca9dad4" d="M 0 2.44949 
C 0.649612 2.44949 1.272706 2.191396 1.732051 1.732051 
C 2.191396 1.272706 2.44949 0.649612 2.44949 0 
C 2.44949 -0.649612 2.191396 -1.272706 1.732051 -1.732051 
C 1.272706 -2.191396 0.649612 -2.44949 0 -2.44949 
C -0.649612 -2.44949 -1.272706 -2.191396 -1.732051 -1.732051 
C -2.191396 -1.272706 -2.44949 -0.649612 -2.44949 0 
C -2.44949 0.649612 -2.191396 1.272706 -1.732051 1.732051 
C -1.272706 2.191396 -0.649612 2.44949 0 2.44949 
z
" style="stroke: #ff7f0e"/>
    </defs>
    <g clip-path="url(#p83d70d991e)">
     <use xlink:href="#m47aca9dad4" x="721.111765" y="211.721294" style="fill: #ff7f0e; stroke: #ff7f0e"/>
    </g>
   </g>
   <g id="PathCollection_5">
    <defs>
     <path id="mbd2ae2596d" d="M 0 3.082207 
C 0.817411 3.082207 1.601453 2.757446 2.179449 2.179449 
C 2.757446 1.601453 3.082207 0.817411 3.082207 0 
C 3.082207 -0.817411 2.757446 -1.601453 2.179449 -2.179449 
C 1.601453 -2.757446 0.817411 -3.082207 0 -3.082207 
C -0.817411 -3.082207 -1.601453 -2.757446 -2.179449 -2.179449 
C -2.757446 -1.601453 -3.082207 -0.817411 -3.082207 0 
C -3.082207 0.817411 -2.757446 1.601453 -2.179449 2.179449 
C -1.601453 2.757446 -0.817411 3.082207 0 3.082207 
z
" style="stroke: #2ca02c"/>
    </defs>
    <g clip-path="url(#p83d70d991e)">
     <use xlink:href="#mbd2ae2596d" x="796.552941" y="183.927176" style="fill: #2ca02c; stroke: #2ca02c"/>
    </g>
   </g>
   <g id="PathCollection_6">
    <defs>
     <path id="m2f8e54881f" d="M 0 3.082207 
C 0.817411 3.082207 1.601453 2.757446 2.179449 2.179449 
C 2.757446 1.601453 3.082207 0.817411 3.082207 0 
C 3.082207 -0.817411 2.757446 -1.601453 2.179449 -2.179449 
C 1.601453 -2.757446 0.817411 -3.082207 0 -3.082207 
C -0.817411 -3.082207 -1.601453 -2.757446 -2.179449 -2.179449 
C -2.757446 -1.601453 -3.082207 -0.817411 -3.082207 0 
C -3.082207 0.817411 -2.757446 1.601453 -2.179449 2.179449 
C -1.601453 2.757446 -0.817411 3.082207 0 3.082207 
z
" style="stroke: #000000"/>
    </defs>
    <g clip-path="url(#p83d70d991e)">
     <use xlink:href="#m2f8e54881f" x="661.552941" y="178.368353" style="fill: #ffffff; stroke: #000000"/>
    </g>
   </g>
   <g id="patch_14">
    <path d="M 794.660529 183.281726 
Q 729.862044 161.463863 664.79155 177.559225 
" clip-path="url(#p83d70d991e)" style="fill: none; stroke: #000000; stroke-width: 1.2; stroke-linecap: round"/>
    <path d="M 670.027401 178.736454 
L 664.79155 177.559225 
L 668.874843 174.076882 
z
" clip-path="url(#p83d70d991e)" style="fill: #1f77b4; stroke: #000000; stroke-width: 1.2; stroke-linecap: round"/>
   </g>
   <g id="PathCollection_7">
    <defs>
     <path id="mde0b6b51cc" d="M 0 3.082207 
C 0.817411 3.082207 1.601453 2.757446 2.179449 2.179449 
C 2.757446 1.601453 3.082207 0.817411 3.082207 0 
C 3.082207 -0.817411 2.757446 -1.601453 2.179449 -2.179449 
C 1.601453 -2.757446 0.817411 -3.082207 0 -3.082207 
C -0.817411 -3.082207 -1.601453 -2.757446 -2.179449 -2.179449 
C -2.757446 -1.601453 -3.082207 -0.817411 -3.082207 0 
C -3.082207 0.817411 -2.757446 1.601453 -2.179449 2.179449 
C -1.601453 2.757446 -0.817411 3.082207 0 3.082207 
z
" style="stroke: #d62728"/>
    </defs>
    <g clip-path="url(#p83d70d991e)">
     <use xlink:href="#mde0b6b51cc" x="776.7" y="268.897765" style="fill: #d62728; stroke: #d62728"/>
    </g>
   </g>
   <g id="PathCollection_8">
    <g clip-path="url(#p83d70d991e)">
     <use xlink:href="#m2f8e54881f" x="693.317647" y="140.250706" style="fill: #ffffff; stroke: #000000"/>
    </g>
   </g>
   <g id="patch_15">
    <path d="M 776.134954 266.983703 
Q 753.830748 192.377126 695.853564 142.426431 
" clip-path="url(#p83d70d991e)" style="fill: none; stroke: #000000; stroke-width: 1.2; stroke-linecap: round"/>
    <path d="M 697.92353 147.377719 
L 695.853564 142.426431 
L 701.056573 143.741232 
z
" clip-path="url(#p83d70d991e)" style="fill: #1f77b4; stroke: #000000; stroke-width: 1.2; stroke-linecap: round"/>
   </g>
   <g id="PathCollection_9">
    <defs>
     <path id="mb6788cc4da" d="M 0 3.082207 
C 0.817411 3.082207 1.601453 2.757446 2.179449 2.179449 
C 2.757446 1.601453 3.082207 0.817411 3.082207 0 
C 3.082207 -0.817411 2.757446 -1.601453 2.179449 -2.179449 
C 1.601453 -2.757446 0.817411 -3.082207 0 -3.082207 
C -0.817411 -3.082207 -1.601453 -2.757446 -2.179449 -2.179449 
C -2.757446 -1.601453 -3.082207 -0.817411 -3.082207 0 
C -3.082207 0.817411 -2.757446 1.601453 -2.179449 2.179449 
C -1.601453 2.757446 -0.817411 3.082207 0 3.082207 
z
" style="stroke: #9467bd"/>
    </defs>
    <g clip-path="url(#p83d70d991e)">
     <use xlink:href="#mb6788cc4da" x="804.494118" y="218.074235" style="fill: #9467bd; stroke: #9467bd"/>
    </g>
   </g>
   <g id="PathCollection_10">
    <g clip-path="url(#p83d70d991e)">
     <use xlink:href="#m2f8e54881f" x="653.611765" y="229.191882" style="fill: #ffffff; stroke: #000000"/>
    </g>
   </g>
   <g id="patch_16">
    <path d="M 802.541518 217.64903 
Q 727.428571 201.56705 656.740538 228.013819 
" clip-path="url(#p83d70d991e)" style="fill: none; stroke: #000000; stroke-width: 1.2; stroke-linecap: round"/>
    <path d="M 662.077186 228.579671 
L 656.740538 228.013819 
L 660.395209 224.084012 
z
" clip-path="url(#p83d70d991e)" style="fill: #1f77b4; stroke: #000000; stroke-width: 1.2; stroke-linecap: round"/>
   </g>
   <g id="line2d_5">
    <path d="M 598.023529 211.721294 
L 844.2 211.721294 
" clip-path="url(#p83d70d991e)" style="fill: none; stroke: #1f77b4; stroke-width: 0.75; stroke-linecap: square"/>
   </g>
   <g id="line2d_6">
    <path d="M 721.111765 330.838941 
L 721.111765 88.633059 
" clip-path="url(#p83d70d991e)" style="fill: none; stroke: #1f77b4; stroke-width: 0.75; stroke-linecap: square"/>
   </g>
   <g id="patch_17">
    <path d="M 814.43319 211.721294 
Q 824.345577 211.721294 833.251732 211.721294 
" style="fill: none; stroke: #000000; stroke-width: 0.9; stroke-linecap: round"/>
    <path d="M 829.251732 209.721294 
L 833.251732 211.721294 
L 829.251732 213.721294 
z
" style="fill: #1f77b4; stroke: #000000; stroke-width: 0.9; stroke-linecap: round"/>
   </g>
   <g id="patch_18">
    <path d="M 721.111765 118.399869 
Q 721.111765 108.487482 721.111765 99.581327 
" style="fill: none; stroke: #000000; stroke-width: 0.9; stroke-linecap: round"/>
    <path d="M 719.111765 103.581327 
L 721.111765 99.581327 
L 723.111765 103.581327 
z
" style="fill: #1f77b4; stroke: #000000; stroke-width: 0.9; stroke-linecap: round"/>
   </g>
   <g id="text_12">
    <!-- $k_x$ -->
    <g transform="translate(837.847059 218.074235) scale(0.09 -0.09)">
     <use xlink:href="#DejaVuSans-Oblique-6b" transform="translate(0 0.015625)"/>
     <use xlink:href="#DejaVuSans-Oblique-78" transform="translate(57.910156 -16.390625) scale(0.7)"/>
    </g>
   </g>
   <g id="text_13">
    <!-- $k_y$ -->
    <g transform="translate(711.582353 94.986) scale(0.09 -0.09)">
     <use xlink:href="#DejaVuSans-Oblique-6b" transform="translate(0 0.015625)"/>
     <use xlink:href="#DejaVuSans-Oblique-79" transform="translate(57.910156 -16.390625) scale(0.7)"/>
    </g>
   </g>
   <g id="text_14">
    <!-- rilassamento per scattering -->
    <g transform="translate(631.066765 82.633059) scale(0.115 -0.115)">
     <defs>
      <path id="DejaVuSans-Bold-73" d="M 3272 3391 
L 3272 2541 
Q 2913 2691 2578 2766 
Q 2244 2841 1947 2841 
Q 1628 2841 1473 2761 
Q 1319 2681 1319 2516 
Q 1319 2381 1436 2309 
Q 1553 2238 1856 2203 
L 2053 2175 
Q 2913 2066 3209 1816 
Q 3506 1566 3506 1031 
Q 3506 472 3093 190 
Q 2681 -91 1863 -91 
Q 1516 -91 1145 -36 
Q 775 19 384 128 
L 384 978 
Q 719 816 1070 734 
Q 1422 653 1784 653 
Q 2113 653 2278 743 
Q 2444 834 2444 1013 
Q 2444 1163 2330 1236 
Q 2216 1309 1875 1350 
L 1678 1375 
Q 931 1469 631 1722 
Q 331 1975 331 2491 
Q 331 3047 712 3315 
Q 1094 3584 1881 3584 
Q 2191 3584 2531 3537 
Q 2872 3491 3272 3391 
z
" transform="scale(0.015625)"/>
      <path id="DejaVuSans-Bold-6e" d="M 4056 2131 
L 4056 0 
L 2931 0 
L 2931 347 
L 2931 1631 
Q 2931 2084 2911 2256 
Q 2891 2428 2841 2509 
Q 2775 2619 2662 2680 
Q 2550 2741 2406 2741 
Q 2056 2741 1856 2470 
Q 1656 2200 1656 1722 
L 1656 0 
L 538 0 
L 538 3500 
L 1656 3500 
L 1656 2988 
Q 1909 3294 2193 3439 
Q 2478 3584 2822 3584 
Q 3428 3584 3742 3212 
Q 4056 2841 4056 2131 
z
" transform="scale(0.015625)"/>
      <path id="DejaVuSans-Bold-67" d="M 2919 594 
Q 2688 288 2409 144 
Q 2131 0 1766 0 
Q 1125 0 706 504 
Q 288 1009 288 1791 
Q 288 2575 706 3076 
Q 1125 3578 1766 3578 
Q 2131 3578 2409 3434 
Q 2688 3291 2919 2981 
L 2919 3500 
L 4044 3500 
L 4044 353 
Q 4044 -491 3511 -936 
Q 2978 -1381 1966 -1381 
Q 1638 -1381 1331 -1331 
Q 1025 -1281 716 -1178 
L 716 -306 
Q 1009 -475 1290 -558 
Q 1572 -641 1856 -641 
Q 2406 -641 2662 -400 
Q 2919 -159 2919 353 
L 2919 594 
z
M 2181 2772 
Q 1834 2772 1640 2515 
Q 1447 2259 1447 1791 
Q 1447 1309 1634 1061 
Q 1822 813 2181 813 
Q 2531 813 2725 1069 
Q 2919 1325 2919 1791 
Q 2919 2259 2725 2515 
Q 2531 2772 2181 2772 
z
" transform="scale(0.015625)"/>
     </defs>
     <use xlink:href="#DejaVuSans-Bold-72"/>
     <use xlink:href="#DejaVuSans-Bold-69" transform="translate(49.316406 0)"/>
     <use xlink:href="#DejaVuSans-Bold-6c" transform="translate(83.59375 0)"/>
     <use xlink:href="#DejaVuSans-Bold-61" transform="translate(117.871094 0)"/>
     <use xlink:href="#DejaVuSans-Bold-73" transform="translate(185.351562 0)"/>
     <use xlink:href="#DejaVuSans-Bold-73" transform="translate(244.873047 0)"/>
     <use xlink:href="#DejaVuSans-Bold-61" transform="translate(304.394531 0)"/>
     <use xlink:href="#DejaVuSans-Bold-6d" transform="translate(371.875 0)"/>
     <use xlink:href="#DejaVuSans-Bold-65" transform="translate(476.074219 0)"/>
     <use xlink:href="#DejaVuSans-Bold-6e" transform="translate(543.896484 0)"/>
     <use xlink:href="#DejaVuSans-Bold-74" transform="translate(615.087891 0)"/>
     <use xlink:href="#DejaVuSans-Bold-6f" transform="translate(662.890625 0)"/>
     <use xlink:href="#DejaVuSans-Bold-20" transform="translate(731.591797 0)"/>
     <use xlink:href="#DejaVuSans-Bold-70" transform="translate(766.40625 0)"/>
     <use xlink:href="#DejaVuSans-Bold-65" transform="translate(837.988281 0)"/>
     <use xlink:href="#DejaVuSans-Bold-72" transform="translate(905.810547 0)"/>
     <use xlink:href="#DejaVuSans-Bold-20" transform="translate(955.126953 0)"/>
     <use xlink:href="#DejaVuSans-Bold-73" transform="translate(989.941406 0)"/>
     <use xlink:href="#DejaVuSans-Bold-63" transform="translate(1049.462891 0)"/>
     <use xlink:href="#DejaVuSans-Bold-61" transform="translate(1108.740234 0)"/>
     <use xlink:href="#DejaVuSans-Bold-74" transform="translate(1176.220703 0)"/>
     <use xlink:href="#DejaVuSans-Bold-74" transform="translate(1224.023438 0)"/>
     <use xlink:href="#DejaVuSans-Bold-65" transform="translate(1271.826172 0)"/>
     <use xlink:href="#DejaVuSans-Bold-72" transform="translate(1339.648438 0)"/>
     <use xlink:href="#DejaVuSans-Bold-69" transform="translate(1388.964844 0)"/>
     <use xlink:href="#DejaVuSans-Bold-6e" transform="translate(1423.242188 0)"/>
     <use xlink:href="#DejaVuSans-Bold-67" transform="translate(1494.433594 0)"/>
    </g>
   </g>
  </g>
  <g id="text_15">
   <!-- Spostamento e rilassamento della sfera di Fermi -->
   <g transform="translate(206.4 18.597656) scale(0.15 -0.15)">
    <defs>
     <path id="DejaVuSans-Bold-53" d="M 3834 4519 
L 3834 3531 
Q 3450 3703 3084 3790 
Q 2719 3878 2394 3878 
Q 1963 3878 1756 3759 
Q 1550 3641 1550 3391 
Q 1550 3203 1689 3098 
Q 1828 2994 2194 2919 
L 2706 2816 
Q 3484 2659 3812 2340 
Q 4141 2022 4141 1434 
Q 4141 663 3683 286 
Q 3225 -91 2284 -91 
Q 1841 -91 1394 -6 
Q 947 78 500 244 
L 500 1259 
Q 947 1022 1364 901 
Q 1781 781 2169 781 
Q 2563 781 2772 912 
Q 2981 1044 2981 1288 
Q 2981 1506 2839 1625 
Q 2697 1744 2272 1838 
L 1806 1941 
Q 1106 2091 782 2419 
Q 459 2747 459 3303 
Q 459 4000 909 4375 
Q 1359 4750 2203 4750 
Q 2588 4750 2994 4692 
Q 3400 4634 3834 4519 
z
" transform="scale(0.015625)"/>
     <path id="DejaVuSans-Bold-64" d="M 2919 2988 
L 2919 4863 
L 4044 4863 
L 4044 0 
L 2919 0 
L 2919 506 
Q 2688 197 2409 53 
Q 2131 -91 1766 -91 
Q 1119 -91 703 423 
Q 288 938 288 1747 
Q 288 2556 703 3070 
Q 1119 3584 1766 3584 
Q 2128 3584 2408 3439 
Q 2688 3294 2919 2988 
z
M 2181 722 
Q 2541 722 2730 984 
Q 2919 1247 2919 1747 
Q 2919 2247 2730 2509 
Q 2541 2772 2181 2772 
Q 1825 2772 1636 2509 
Q 1447 2247 1447 1747 
Q 1447 1247 1636 984 
Q 1825 722 2181 722 
z
" transform="scale(0.015625)"/>
     <path id="DejaVuSans-Bold-66" d="M 2841 4863 
L 2841 4128 
L 2222 4128 
Q 1984 4128 1890 4042 
Q 1797 3956 1797 3744 
L 1797 3500 
L 2753 3500 
L 2753 2700 
L 1797 2700 
L 1797 0 
L 678 0 
L 678 2700 
L 122 2700 
L 122 3500 
L 678 3500 
L 678 3744 
Q 678 4316 997 4589 
Q 1316 4863 1984 4863 
L 2841 4863 
z
" transform="scale(0.015625)"/>
     <path id="DejaVuSans-Bold-46" d="M 588 4666 
L 3834 4666 
L 3834 3756 
L 1791 3756 
L 1791 2888 
L 3713 2888 
L 3713 1978 
L 1791 1978 
L 1791 0 
L 588 0 
L 588 4666 
z
" transform="scale(0.015625)"/>
    </defs>
    <use xlink:href="#DejaVuSans-Bold-53"/>
    <use xlink:href="#DejaVuSans-Bold-70" transform="translate(72.021484 0)"/>
    <use xlink:href="#DejaVuSans-Bold-6f" transform="translate(143.603516 0)"/>
    <use xlink:href="#DejaVuSans-Bold-73" transform="translate(212.304688 0)"/>
    <use xlink:href="#DejaVuSans-Bold-74" transform="translate(271.826172 0)"/>
    <use xlink:href="#DejaVuSans-Bold-61" transform="translate(319.628906 0)"/>
    <use xlink:href="#DejaVuSans-Bold-6d" transform="translate(387.109375 0)"/>
    <use xlink:href="#DejaVuSans-Bold-65" transform="translate(491.308594 0)"/>
    <use xlink:href="#DejaVuSans-Bold-6e" transform="translate(559.130859 0)"/>
    <use xlink:href="#DejaVuSans-Bold-74" transform="translate(630.322266 0)"/>
    <use xlink:href="#DejaVuSans-Bold-6f" transform="translate(678.125 0)"/>
    <use xlink:href="#DejaVuSans-Bold-20" transform="translate(746.826172 0)"/>
    <use xlink:href="#DejaVuSans-Bold-65" transform="translate(781.640625 0)"/>
    <use xlink:href="#DejaVuSans-Bold-20" transform="translate(849.462891 0)"/>
    <use xlink:href="#DejaVuSans-Bold-72" transform="translate(884.277344 0)"/>
    <use xlink:href="#DejaVuSans-Bold-69" transform="translate(933.59375 0)"/>
    <use xlink:href="#DejaVuSans-Bold-6c" transform="translate(967.871094 0)"/>
    <use xlink:href="#DejaVuSans-Bold-61" transform="translate(1002.148438 0)"/>
    <use xlink:href="#DejaVuSans-Bold-73" transform="translate(1069.628906 0)"/>
    <use xlink:href="#DejaVuSans-Bold-73" transform="translate(1129.150391 0)"/>
    <use xlink:href="#DejaVuSans-Bold-61" transform="translate(1188.671875 0)"/>
    <use xlink:href="#DejaVuSans-Bold-6d" transform="translate(1256.152344 0)"/>
    <use xlink:href="#DejaVuSans-Bold-65" transform="translate(1360.351562 0)"/>
    <use xlink:href="#DejaVuSans-Bold-6e" transform="translate(1428.173828 0)"/>
    <use xlink:href="#DejaVuSans-Bold-74" transform="translate(1499.365234 0)"/>
    <use xlink:href="#DejaVuSans-Bold-6f" transform="translate(1547.167969 0)"/>
    <use xlink:href="#DejaVuSans-Bold-20" transform="translate(1615.869141 0)"/>
    <use xlink:href="#DejaVuSans-Bold-64" transform="translate(1650.683594 0)"/>
    <use xlink:href="#DejaVuSans-Bold-65" transform="translate(1722.265625 0)"/>
    <use xlink:href="#DejaVuSans-Bold-6c" transform="translate(1790.087891 0)"/>
    <use xlink:href="#DejaVuSans-Bold-6c" transform="translate(1824.365234 0)"/>
    <use xlink:href="#DejaVuSans-Bold-61" transform="translate(1858.642578 0)"/>
    <use xlink:href="#DejaVuSans-Bold-20" transform="translate(1926.123047 0)"/>
    <use xlink:href="#DejaVuSans-Bold-73" transform="translate(1960.9375 0)"/>
    <use xlink:href="#DejaVuSans-Bold-66" transform="translate(2020.458984 0)"/>
    <use xlink:href="#DejaVuSans-Bold-65" transform="translate(2063.964844 0)"/>
    <use xlink:href="#DejaVuSans-Bold-72" transform="translate(2131.787109 0)"/>
    <use xlink:href="#DejaVuSans-Bold-61" transform="translate(2181.103516 0)"/>
    <use xlink:href="#DejaVuSans-Bold-20" transform="translate(2248.583984 0)"/>
    <use xlink:href="#DejaVuSans-Bold-64" transform="translate(2283.398438 0)"/>
    <use xlink:href="#DejaVuSans-Bold-69" transform="translate(2354.980469 0)"/>
    <use xlink:href="#DejaVuSans-Bold-20" transform="translate(2389.257812 0)"/>
    <use xlink:href="#DejaVuSans-Bold-46" transform="translate(2424.072266 0)"/>
    <use xlink:href="#DejaVuSans-Bold-65" transform="translate(2488.382812 0)"/>
    <use xlink:href="#DejaVuSans-Bold-72" transform="translate(2556.205078 0)"/>
    <use xlink:href="#DejaVuSans-Bold-6d" transform="translate(2605.521484 0)"/>
    <use xlink:href="#DejaVuSans-Bold-69" transform="translate(2709.720703 0)"/>
   </g>
  </g>
  <g id="text_16">
   <!-- Un campo uniforme trasla la distribuzione degli elettroni nello spazio k. Quando il campo viene rimosso, gli urti riportano il centro della sfera verso l'origine. -->
   <g transform="translate(20.833594 406.008) scale(0.1 -0.1)">
    <defs>
     <path id="DejaVuSans-55" d="M 556 4666 
L 1191 4666 
L 1191 1831 
Q 1191 1081 1462 751 
Q 1734 422 2344 422 
Q 2950 422 3222 751 
Q 3494 1081 3494 1831 
L 3494 4666 
L 4128 4666 
L 4128 1753 
Q 4128 841 3676 375 
Q 3225 -91 2344 -91 
Q 1459 -91 1007 375 
Q 556 841 556 1753 
L 556 4666 
z
" transform="scale(0.015625)"/>
     <path id="DejaVuSans-6e" d="M 3513 2113 
L 3513 0 
L 2938 0 
L 2938 2094 
Q 2938 2591 2744 2837 
Q 2550 3084 2163 3084 
Q 1697 3084 1428 2787 
Q 1159 2491 1159 1978 
L 1159 0 
L 581 0 
L 581 3500 
L 1159 3500 
L 1159 2956 
Q 1366 3272 1645 3428 
Q 1925 3584 2291 3584 
Q 2894 3584 3203 3211 
Q 3513 2838 3513 2113 
z
" transform="scale(0.015625)"/>
     <path id="DejaVuSans-20" transform="scale(0.015625)"/>
     <path id="DejaVuSans-63" d="M 3122 3366 
L 3122 2828 
Q 2878 2963 2633 3030 
Q 2388 3097 2138 3097 
Q 1578 3097 1268 2742 
Q 959 2388 959 1747 
Q 959 1106 1268 751 
Q 1578 397 2138 397 
Q 2388 397 2633 464 
Q 2878 531 3122 666 
L 3122 134 
Q 2881 22 2623 -34 
Q 2366 -91 2075 -91 
Q 1284 -91 818 406 
Q 353 903 353 1747 
Q 353 2603 823 3093 
Q 1294 3584 2113 3584 
Q 2378 3584 2631 3529 
Q 2884 3475 3122 3366 
z
" transform="scale(0.015625)"/>
     <path id="DejaVuSans-61" d="M 2194 1759 
Q 1497 1759 1228 1600 
Q 959 1441 959 1056 
Q 959 750 1161 570 
Q 1363 391 1709 391 
Q 2188 391 2477 730 
Q 2766 1069 2766 1631 
L 2766 1759 
L 2194 1759 
z
M 3341 1997 
L 3341 0 
L 2766 0 
L 2766 531 
Q 2569 213 2275 61 
Q 1981 -91 1556 -91 
Q 1019 -91 701 211 
Q 384 513 384 1019 
Q 384 1609 779 1909 
Q 1175 2209 1959 2209 
L 2766 2209 
L 2766 2266 
Q 2766 2663 2505 2880 
Q 2244 3097 1772 3097 
Q 1472 3097 1187 3025 
Q 903 2953 641 2809 
L 641 3341 
Q 956 3463 1253 3523 
Q 1550 3584 1831 3584 
Q 2591 3584 2966 3190 
Q 3341 2797 3341 1997 
z
" transform="scale(0.015625)"/>
     <path id="DejaVuSans-6d" d="M 3328 2828 
Q 3544 3216 3844 3400 
Q 4144 3584 4550 3584 
Q 5097 3584 5394 3201 
Q 5691 2819 5691 2113 
L 5691 0 
L 5113 0 
L 5113 2094 
Q 5113 2597 4934 2840 
Q 4756 3084 4391 3084 
Q 3944 3084 3684 2787 
Q 3425 2491 3425 1978 
L 3425 0 
L 2847 0 
L 2847 2094 
Q 2847 2600 2669 2842 
Q 2491 3084 2119 3084 
Q 1678 3084 1418 2786 
Q 1159 2488 1159 1978 
L 1159 0 
L 581 0 
L 581 3500 
L 1159 3500 
L 1159 2956 
Q 1356 3278 1631 3431 
Q 1906 3584 2284 3584 
Q 2666 3584 2933 3390 
Q 3200 3197 3328 2828 
z
" transform="scale(0.015625)"/>
     <path id="DejaVuSans-70" d="M 1159 525 
L 1159 -1331 
L 581 -1331 
L 581 3500 
L 1159 3500 
L 1159 2969 
Q 1341 3281 1617 3432 
Q 1894 3584 2278 3584 
Q 2916 3584 3314 3078 
Q 3713 2572 3713 1747 
Q 3713 922 3314 415 
Q 2916 -91 2278 -91 
Q 1894 -91 1617 61 
Q 1341 213 1159 525 
z
M 3116 1747 
Q 3116 2381 2855 2742 
Q 2594 3103 2138 3103 
Q 1681 3103 1420 2742 
Q 1159 2381 1159 1747 
Q 1159 1113 1420 752 
Q 1681 391 2138 391 
Q 2594 391 2855 752 
Q 3116 1113 3116 1747 
z
" transform="scale(0.015625)"/>
     <path id="DejaVuSans-6f" d="M 1959 3097 
Q 1497 3097 1228 2736 
Q 959 2375 959 1747 
Q 959 1119 1226 758 
Q 1494 397 1959 397 
Q 2419 397 2687 759 
Q 2956 1122 2956 1747 
Q 2956 2369 2687 2733 
Q 2419 3097 1959 3097 
z
M 1959 3584 
Q 2709 3584 3137 3096 
Q 3566 2609 3566 1747 
Q 3566 888 3137 398 
Q 2709 -91 1959 -91 
Q 1206 -91 779 398 
Q 353 888 353 1747 
Q 353 2609 779 3096 
Q 1206 3584 1959 3584 
z
" transform="scale(0.015625)"/>
     <path id="DejaVuSans-75" d="M 544 1381 
L 544 3500 
L 1119 3500 
L 1119 1403 
Q 1119 906 1312 657 
Q 1506 409 1894 409 
Q 2359 409 2629 706 
Q 2900 1003 2900 1516 
L 2900 3500 
L 3475 3500 
L 3475 0 
L 2900 0 
L 2900 538 
Q 2691 219 2414 64 
Q 2138 -91 1772 -91 
Q 1169 -91 856 284 
Q 544 659 544 1381 
z
M 1991 3584 
L 1991 3584 
z
" transform="scale(0.015625)"/>
     <path id="DejaVuSans-69" d="M 603 3500 
L 1178 3500 
L 1178 0 
L 603 0 
L 603 3500 
z
M 603 4863 
L 1178 4863 
L 1178 4134 
L 603 4134 
L 603 4863 
z
" transform="scale(0.015625)"/>
     <path id="DejaVuSans-66" d="M 2375 4863 
L 2375 4384 
L 1825 4384 
Q 1516 4384 1395 4259 
Q 1275 4134 1275 3809 
L 1275 3500 
L 2222 3500 
L 2222 3053 
L 1275 3053 
L 1275 0 
L 697 0 
L 697 3053 
L 147 3053 
L 147 3500 
L 697 3500 
L 697 3744 
Q 697 4328 969 4595 
Q 1241 4863 1831 4863 
L 2375 4863 
z
" transform="scale(0.015625)"/>
     <path id="DejaVuSans-72" d="M 2631 2963 
Q 2534 3019 2420 3045 
Q 2306 3072 2169 3072 
Q 1681 3072 1420 2755 
Q 1159 2438 1159 1844 
L 1159 0 
L 581 0 
L 581 3500 
L 1159 3500 
L 1159 2956 
Q 1341 3275 1631 3429 
Q 1922 3584 2338 3584 
Q 2397 3584 2469 3576 
Q 2541 3569 2628 3553 
L 2631 2963 
z
" transform="scale(0.015625)"/>
     <path id="DejaVuSans-65" d="M 3597 1894 
L 3597 1613 
L 953 1613 
Q 991 1019 1311 708 
Q 1631 397 2203 397 
Q 2534 397 2845 478 
Q 3156 559 3463 722 
L 3463 178 
Q 3153 47 2828 -22 
Q 2503 -91 2169 -91 
Q 1331 -91 842 396 
Q 353 884 353 1716 
Q 353 2575 817 3079 
Q 1281 3584 2069 3584 
Q 2775 3584 3186 3129 
Q 3597 2675 3597 1894 
z
M 3022 2063 
Q 3016 2534 2758 2815 
Q 2500 3097 2075 3097 
Q 1594 3097 1305 2825 
Q 1016 2553 972 2059 
L 3022 2063 
z
" transform="scale(0.015625)"/>
     <path id="DejaVuSans-74" d="M 1172 4494 
L 1172 3500 
L 2356 3500 
L 2356 3053 
L 1172 3053 
L 1172 1153 
Q 1172 725 1289 603 
Q 1406 481 1766 481 
L 2356 481 
L 2356 0 
L 1766 0 
Q 1100 0 847 248 
Q 594 497 594 1153 
L 594 3053 
L 172 3053 
L 172 3500 
L 594 3500 
L 594 4494 
L 1172 4494 
z
" transform="scale(0.015625)"/>
     <path id="DejaVuSans-73" d="M 2834 3397 
L 2834 2853 
Q 2591 2978 2328 3040 
Q 2066 3103 1784 3103 
Q 1356 3103 1142 2972 
Q 928 2841 928 2578 
Q 928 2378 1081 2264 
Q 1234 2150 1697 2047 
L 1894 2003 
Q 2506 1872 2764 1633 
Q 3022 1394 3022 966 
Q 3022 478 2636 193 
Q 2250 -91 1575 -91 
Q 1294 -91 989 -36 
Q 684 19 347 128 
L 347 722 
Q 666 556 975 473 
Q 1284 391 1588 391 
Q 1994 391 2212 530 
Q 2431 669 2431 922 
Q 2431 1156 2273 1281 
Q 2116 1406 1581 1522 
L 1381 1569 
Q 847 1681 609 1914 
Q 372 2147 372 2553 
Q 372 3047 722 3315 
Q 1072 3584 1716 3584 
Q 2034 3584 2315 3537 
Q 2597 3491 2834 3397 
z
" transform="scale(0.015625)"/>
     <path id="DejaVuSans-6c" d="M 603 4863 
L 1178 4863 
L 1178 0 
L 603 0 
L 603 4863 
z
" transform="scale(0.015625)"/>
     <path id="DejaVuSans-64" d="M 2906 2969 
L 2906 4863 
L 3481 4863 
L 3481 0 
L 2906 0 
L 2906 525 
Q 2725 213 2448 61 
Q 2172 -91 1784 -91 
Q 1150 -91 751 415 
Q 353 922 353 1747 
Q 353 2572 751 3078 
Q 1150 3584 1784 3584 
Q 2172 3584 2448 3432 
Q 2725 3281 2906 2969 
z
M 947 1747 
Q 947 1113 1208 752 
Q 1469 391 1925 391 
Q 2381 391 2643 752 
Q 2906 1113 2906 1747 
Q 2906 2381 2643 2742 
Q 2381 3103 1925 3103 
Q 1469 3103 1208 2742 
Q 947 2381 947 1747 
z
" transform="scale(0.015625)"/>
     <path id="DejaVuSans-62" d="M 3116 1747 
Q 3116 2381 2855 2742 
Q 2594 3103 2138 3103 
Q 1681 3103 1420 2742 
Q 1159 2381 1159 1747 
Q 1159 1113 1420 752 
Q 1681 391 2138 391 
Q 2594 391 2855 752 
Q 3116 1113 3116 1747 
z
M 1159 2969 
Q 1341 3281 1617 3432 
Q 1894 3584 2278 3584 
Q 2916 3584 3314 3078 
Q 3713 2572 3713 1747 
Q 3713 922 3314 415 
Q 2916 -91 2278 -91 
Q 1894 -91 1617 61 
Q 1341 213 1159 525 
L 1159 0 
L 581 0 
L 581 4863 
L 1159 4863 
L 1159 2969 
z
" transform="scale(0.015625)"/>
     <path id="DejaVuSans-7a" d="M 353 3500 
L 3084 3500 
L 3084 2975 
L 922 459 
L 3084 459 
L 3084 0 
L 275 0 
L 275 525 
L 2438 3041 
L 353 3041 
L 353 3500 
z
" transform="scale(0.015625)"/>
     <path id="DejaVuSans-67" d="M 2906 1791 
Q 2906 2416 2648 2759 
Q 2391 3103 1925 3103 
Q 1463 3103 1205 2759 
Q 947 2416 947 1791 
Q 947 1169 1205 825 
Q 1463 481 1925 481 
Q 2391 481 2648 825 
Q 2906 1169 2906 1791 
z
M 3481 434 
Q 3481 -459 3084 -895 
Q 2688 -1331 1869 -1331 
Q 1566 -1331 1297 -1286 
Q 1028 -1241 775 -1147 
L 775 -588 
Q 1028 -725 1275 -790 
Q 1522 -856 1778 -856 
Q 2344 -856 2625 -561 
Q 2906 -266 2906 331 
L 2906 616 
Q 2728 306 2450 153 
Q 2172 0 1784 0 
Q 1141 0 747 490 
Q 353 981 353 1791 
Q 353 2603 747 3093 
Q 1141 3584 1784 3584 
Q 2172 3584 2450 3431 
Q 2728 3278 2906 2969 
L 2906 3500 
L 3481 3500 
L 3481 434 
z
" transform="scale(0.015625)"/>
     <path id="DejaVuSans-6b" d="M 581 4863 
L 1159 4863 
L 1159 1991 
L 2875 3500 
L 3609 3500 
L 1753 1863 
L 3688 0 
L 2938 0 
L 1159 1709 
L 1159 0 
L 581 0 
L 581 4863 
z
" transform="scale(0.015625)"/>
     <path id="DejaVuSans-2e" d="M 684 794 
L 1344 794 
L 1344 0 
L 684 0 
L 684 794 
z
" transform="scale(0.015625)"/>
     <path id="DejaVuSans-51" d="M 2522 4238 
Q 1834 4238 1429 3725 
Q 1025 3213 1025 2328 
Q 1025 1447 1429 934 
Q 1834 422 2522 422 
Q 3209 422 3611 934 
Q 4013 1447 4013 2328 
Q 4013 3213 3611 3725 
Q 3209 4238 2522 4238 
z
M 3406 84 
L 4238 -825 
L 3475 -825 
L 2784 -78 
Q 2681 -84 2626 -87 
Q 2572 -91 2522 -91 
Q 1538 -91 948 567 
Q 359 1225 359 2328 
Q 359 3434 948 4092 
Q 1538 4750 2522 4750 
Q 3503 4750 4090 4092 
Q 4678 3434 4678 2328 
Q 4678 1516 4351 937 
Q 4025 359 3406 84 
z
" transform="scale(0.015625)"/>
     <path id="DejaVuSans-76" d="M 191 3500 
L 800 3500 
L 1894 563 
L 2988 3500 
L 3597 3500 
L 2284 0 
L 1503 0 
L 191 3500 
z
" transform="scale(0.015625)"/>
     <path id="DejaVuSans-2c" d="M 750 794 
L 1409 794 
L 1409 256 
L 897 -744 
L 494 -744 
L 750 256 
L 750 794 
z
" transform="scale(0.015625)"/>
     <path id="DejaVuSans-27" d="M 1147 4666 
L 1147 2931 
L 616 2931 
L 616 4666 
L 1147 4666 
z
" transform="scale(0.015625)"/>
    </defs>
    <use xlink:href="#DejaVuSans-55"/>
    <use xlink:href="#DejaVuSans-6e" transform="translate(73.193359 0)"/>
    <use xlink:href="#DejaVuSans-20" transform="translate(136.572266 0)"/>
    <use xlink:href="#DejaVuSans-63" transform="translate(168.359375 0)"/>
    <use xlink:href="#DejaVuSans-61" transform="translate(223.339844 0)"/>
    <use xlink:href="#DejaVuSans-6d" transform="translate(284.619141 0)"/>
    <use xlink:href="#DejaVuSans-70" transform="translate(382.03125 0)"/>
    <use xlink:href="#DejaVuSans-6f" transform="translate(445.507812 0)"/>
    <use xlink:href="#DejaVuSans-20" transform="translate(506.689453 0)"/>
    <use xlink:href="#DejaVuSans-75" transform="translate(538.476562 0)"/>
    <use xlink:href="#DejaVuSans-6e" transform="translate(601.855469 0)"/>
    <use xlink:href="#DejaVuSans-69" transform="translate(665.234375 0)"/>
    <use xlink:href="#DejaVuSans-66" transform="translate(693.017578 0)"/>
    <use xlink:href="#DejaVuSans-6f" transform="translate(728.222656 0)"/>
    <use xlink:href="#DejaVuSans-72" transform="translate(789.404297 0)"/>
    <use xlink:href="#DejaVuSans-6d" transform="translate(828.767578 0)"/>
    <use xlink:href="#DejaVuSans-65" transform="translate(926.179688 0)"/>
    <use xlink:href="#DejaVuSans-20" transform="translate(987.703125 0)"/>
    <use xlink:href="#DejaVuSans-74" transform="translate(1019.490234 0)"/>
    <use xlink:href="#DejaVuSans-72" transform="translate(1058.699219 0)"/>
    <use xlink:href="#DejaVuSans-61" transform="translate(1099.8125 0)"/>
    <use xlink:href="#DejaVuSans-73" transform="translate(1161.091797 0)"/>
    <use xlink:href="#DejaVuSans-6c" transform="translate(1213.191406 0)"/>
    <use xlink:href="#DejaVuSans-61" transform="translate(1240.974609 0)"/>
    <use xlink:href="#DejaVuSans-20" transform="translate(1302.253906 0)"/>
    <use xlink:href="#DejaVuSans-6c" transform="translate(1334.041016 0)"/>
    <use xlink:href="#DejaVuSans-61" transform="translate(1361.824219 0)"/>
    <use xlink:href="#DejaVuSans-20" transform="translate(1423.103516 0)"/>
    <use xlink:href="#DejaVuSans-64" transform="translate(1454.890625 0)"/>
    <use xlink:href="#DejaVuSans-69" transform="translate(1518.367188 0)"/>
    <use xlink:href="#DejaVuSans-73" transform="translate(1546.150391 0)"/>
    <use xlink:href="#DejaVuSans-74" transform="translate(1598.25 0)"/>
    <use xlink:href="#DejaVuSans-72" transform="translate(1637.458984 0)"/>
    <use xlink:href="#DejaVuSans-69" transform="translate(1678.572266 0)"/>
    <use xlink:href="#DejaVuSans-62" transform="translate(1706.355469 0)"/>
    <use xlink:href="#DejaVuSans-75" transform="translate(1769.832031 0)"/>
    <use xlink:href="#DejaVuSans-7a" transform="translate(1833.210938 0)"/>
    <use xlink:href="#DejaVuSans-69" transform="translate(1885.701172 0)"/>
    <use xlink:href="#DejaVuSans-6f" transform="translate(1913.484375 0)"/>
    <use xlink:href="#DejaVuSans-6e" transform="translate(1974.666016 0)"/>
    <use xlink:href="#DejaVuSans-65" transform="translate(2038.044922 0)"/>
    <use xlink:href="#DejaVuSans-20" transform="translate(2099.568359 0)"/>
    <use xlink:href="#DejaVuSans-64" transform="translate(2131.355469 0)"/>
    <use xlink:href="#DejaVuSans-65" transform="translate(2194.832031 0)"/>
    <use xlink:href="#DejaVuSans-67" transform="translate(2256.355469 0)"/>
    <use xlink:href="#DejaVuSans-6c" transform="translate(2319.832031 0)"/>
    <use xlink:href="#DejaVuSans-69" transform="translate(2347.615234 0)"/>
    <use xlink:href="#DejaVuSans-20" transform="translate(2375.398438 0)"/>
    <use xlink:href="#DejaVuSans-65" transform="translate(2407.185547 0)"/>
    <use xlink:href="#DejaVuSans-6c" transform="translate(2468.708984 0)"/>
    <use xlink:href="#DejaVuSans-65" transform="translate(2496.492188 0)"/>
    <use xlink:href="#DejaVuSans-74" transform="translate(2558.015625 0)"/>
    <use xlink:href="#DejaVuSans-74" transform="translate(2597.224609 0)"/>
    <use xlink:href="#DejaVuSans-72" transform="translate(2636.433594 0)"/>
    <use xlink:href="#DejaVuSans-6f" transform="translate(2675.296875 0)"/>
    <use xlink:href="#DejaVuSans-6e" transform="translate(2736.478516 0)"/>
    <use xlink:href="#DejaVuSans-69" transform="translate(2799.857422 0)"/>
    <use xlink:href="#DejaVuSans-20" transform="translate(2827.640625 0)"/>
    <use xlink:href="#DejaVuSans-6e" transform="translate(2859.427734 0)"/>
    <use xlink:href="#DejaVuSans-65" transform="translate(2922.806641 0)"/>
    <use xlink:href="#DejaVuSans-6c" transform="translate(2984.330078 0)"/>
    <use xlink:href="#DejaVuSans-6c" transform="translate(3012.113281 0)"/>
    <use xlink:href="#DejaVuSans-6f" transform="translate(3039.896484 0)"/>
    <use xlink:href="#DejaVuSans-20" transform="translate(3101.078125 0)"/>
    <use xlink:href="#DejaVuSans-73" transform="translate(3132.865234 0)"/>
    <use xlink:href="#DejaVuSans-70" transform="translate(3184.964844 0)"/>
    <use xlink:href="#DejaVuSans-61" transform="translate(3248.441406 0)"/>
    <use xlink:href="#DejaVuSans-7a" transform="translate(3309.720703 0)"/>
    <use xlink:href="#DejaVuSans-69" transform="translate(3362.210938 0)"/>
    <use xlink:href="#DejaVuSans-6f" transform="translate(3389.994141 0)"/>
    <use xlink:href="#DejaVuSans-20" transform="translate(3451.175781 0)"/>
    <use xlink:href="#DejaVuSans-6b" transform="translate(3482.962891 0)"/>
    <use xlink:href="#DejaVuSans-2e" transform="translate(3540.873047 0)"/>
    <use xlink:href="#DejaVuSans-20" transform="translate(3572.660156 0)"/>
    <use xlink:href="#DejaVuSans-51" transform="translate(3604.447266 0)"/>
    <use xlink:href="#DejaVuSans-75" transform="translate(3683.158203 0)"/>
    <use xlink:href="#DejaVuSans-61" transform="translate(3746.537109 0)"/>
    <use xlink:href="#DejaVuSans-6e" transform="translate(3807.816406 0)"/>
    <use xlink:href="#DejaVuSans-64" transform="translate(3871.195312 0)"/>
    <use xlink:href="#DejaVuSans-6f" transform="translate(3934.671875 0)"/>
    <use xlink:href="#DejaVuSans-20" transform="translate(3995.853516 0)"/>
    <use xlink:href="#DejaVuSans-69" transform="translate(4027.640625 0)"/>
    <use xlink:href="#DejaVuSans-6c" transform="translate(4055.423828 0)"/>
    <use xlink:href="#DejaVuSans-20" transform="translate(4083.207031 0)"/>
    <use xlink:href="#DejaVuSans-63" transform="translate(4114.994141 0)"/>
    <use xlink:href="#DejaVuSans-61" transform="translate(4169.974609 0)"/>
    <use xlink:href="#DejaVuSans-6d" transform="translate(4231.253906 0)"/>
    <use xlink:href="#DejaVuSans-70" transform="translate(4328.666016 0)"/>
    <use xlink:href="#DejaVuSans-6f" transform="translate(4392.142578 0)"/>
    <use xlink:href="#DejaVuSans-20" transform="translate(4453.324219 0)"/>
    <use xlink:href="#DejaVuSans-76" transform="translate(4485.111328 0)"/>
    <use xlink:href="#DejaVuSans-69" transform="translate(4544.291016 0)"/>
    <use xlink:href="#DejaVuSans-65" transform="translate(4572.074219 0)"/>
    <use xlink:href="#DejaVuSans-6e" transform="translate(4633.597656 0)"/>
    <use xlink:href="#DejaVuSans-65" transform="translate(4696.976562 0)"/>
    <use xlink:href="#DejaVuSans-20" transform="translate(4758.5 0)"/>
    <use xlink:href="#DejaVuSans-72" transform="translate(4790.287109 0)"/>
    <use xlink:href="#DejaVuSans-69" transform="translate(4831.400391 0)"/>
    <use xlink:href="#DejaVuSans-6d" transform="translate(4859.183594 0)"/>
    <use xlink:href="#DejaVuSans-6f" transform="translate(4956.595703 0)"/>
    <use xlink:href="#DejaVuSans-73" transform="translate(5017.777344 0)"/>
    <use xlink:href="#DejaVuSans-73" transform="translate(5069.876953 0)"/>
    <use xlink:href="#DejaVuSans-6f" transform="translate(5121.976562 0)"/>
    <use xlink:href="#DejaVuSans-2c" transform="translate(5183.158203 0)"/>
    <use xlink:href="#DejaVuSans-20" transform="translate(5214.945312 0)"/>
    <use xlink:href="#DejaVuSans-67" transform="translate(5246.732422 0)"/>
    <use xlink:href="#DejaVuSans-6c" transform="translate(5310.208984 0)"/>
    <use xlink:href="#DejaVuSans-69" transform="translate(5337.992188 0)"/>
    <use xlink:href="#DejaVuSans-20" transform="translate(5365.775391 0)"/>
    <use xlink:href="#DejaVuSans-75" transform="translate(5397.5625 0)"/>
    <use xlink:href="#DejaVuSans-72" transform="translate(5460.941406 0)"/>
    <use xlink:href="#DejaVuSans-74" transform="translate(5502.054688 0)"/>
    <use xlink:href="#DejaVuSans-69" transform="translate(5541.263672 0)"/>
    <use xlink:href="#DejaVuSans-20" transform="translate(5569.046875 0)"/>
    <use xlink:href="#DejaVuSans-72" transform="translate(5600.833984 0)"/>
    <use xlink:href="#DejaVuSans-69" transform="translate(5641.947266 0)"/>
    <use xlink:href="#DejaVuSans-70" transform="translate(5669.730469 0)"/>
    <use xlink:href="#DejaVuSans-6f" transform="translate(5733.207031 0)"/>
    <use xlink:href="#DejaVuSans-72" transform="translate(5794.388672 0)"/>
    <use xlink:href="#DejaVuSans-74" transform="translate(5835.501953 0)"/>
    <use xlink:href="#DejaVuSans-61" transform="translate(5874.710938 0)"/>
    <use xlink:href="#DejaVuSans-6e" transform="translate(5935.990234 0)"/>
    <use xlink:href="#DejaVuSans-6f" transform="translate(5999.369141 0)"/>
    <use xlink:href="#DejaVuSans-20" transform="translate(6060.550781 0)"/>
    <use xlink:href="#DejaVuSans-69" transform="translate(6092.337891 0)"/>
    <use xlink:href="#DejaVuSans-6c" transform="translate(6120.121094 0)"/>
    <use xlink:href="#DejaVuSans-20" transform="translate(6147.904297 0)"/>
    <use xlink:href="#DejaVuSans-63" transform="translate(6179.691406 0)"/>
    <use xlink:href="#DejaVuSans-65" transform="translate(6234.671875 0)"/>
    <use xlink:href="#DejaVuSans-6e" transform="translate(6296.195312 0)"/>
    <use xlink:href="#DejaVuSans-74" transform="translate(6359.574219 0)"/>
    <use xlink:href="#DejaVuSans-72" transform="translate(6398.783203 0)"/>
    <use xlink:href="#DejaVuSans-6f" transform="translate(6437.646484 0)"/>
    <use xlink:href="#DejaVuSans-20" transform="translate(6498.828125 0)"/>
    <use xlink:href="#DejaVuSans-64" transform="translate(6530.615234 0)"/>
    <use xlink:href="#DejaVuSans-65" transform="translate(6594.091797 0)"/>
    <use xlink:href="#DejaVuSans-6c" transform="translate(6655.615234 0)"/>
    <use xlink:href="#DejaVuSans-6c" transform="translate(6683.398438 0)"/>
    <use xlink:href="#DejaVuSans-61" transform="translate(6711.181641 0)"/>
    <use xlink:href="#DejaVuSans-20" transform="translate(6772.460938 0)"/>
    <use xlink:href="#DejaVuSans-73" transform="translate(6804.248047 0)"/>
    <use xlink:href="#DejaVuSans-66" transform="translate(6856.347656 0)"/>
    <use xlink:href="#DejaVuSans-65" transform="translate(6891.552734 0)"/>
    <use xlink:href="#DejaVuSans-72" transform="translate(6953.076172 0)"/>
    <use xlink:href="#DejaVuSans-61" transform="translate(6994.189453 0)"/>
    <use xlink:href="#DejaVuSans-20" transform="translate(7055.46875 0)"/>
    <use xlink:href="#DejaVuSans-76" transform="translate(7087.255859 0)"/>
    <use xlink:href="#DejaVuSans-65" transform="translate(7146.435547 0)"/>
    <use xlink:href="#DejaVuSans-72" transform="translate(7207.958984 0)"/>
    <use xlink:href="#DejaVuSans-73" transform="translate(7249.072266 0)"/>
    <use xlink:href="#DejaVuSans-6f" transform="translate(7301.171875 0)"/>
    <use xlink:href="#DejaVuSans-20" transform="translate(7362.353516 0)"/>
    <use xlink:href="#DejaVuSans-6c" transform="translate(7394.140625 0)"/>
    <use xlink:href="#DejaVuSans-27" transform="translate(7421.923828 0)"/>
    <use xlink:href="#DejaVuSans-6f" transform="translate(7449.414062 0)"/>
    <use xlink:href="#DejaVuSans-72" transform="translate(7510.595703 0)"/>
    <use xlink:href="#DejaVuSans-69" transform="translate(7551.708984 0)"/>
    <use xlink:href="#DejaVuSans-67" transform="translate(7579.492188 0)"/>
    <use xlink:href="#DejaVuSans-69" transform="translate(7642.96875 0)"/>
    <use xlink:href="#DejaVuSans-6e" transform="translate(7670.751953 0)"/>
    <use xlink:href="#DejaVuSans-65" transform="translate(7734.130859 0)"/>
    <use xlink:href="#DejaVuSans-2e" transform="translate(7795.654297 0)"/>
   </g>
  </g>
 </g>
 <defs>
  <clipPath id="pbd6cb11e81">
   <rect x="7.2" y="88.633059" width="246.176471" height="242.205882"/>
  </clipPath>
  <clipPath id="p96cf83da0a">
   <rect x="302.611765" y="88.633059" width="246.176471" height="242.205882"/>
  </clipPath>
  <clipPath id="p83d70d991e">
   <rect x="598.023529" y="88.633059" width="246.176471" height="242.205882"/>
  </clipPath>
 </defs>
</svg>
