<?xml version="1.0" encoding="utf-8" standalone="no"?>
<!DOCTYPE svg PUBLIC "-//W3C//DTD SVG 1.1//EN"
  "http://www.w3.org/Graphics/SVG/1.1/DTD/svg11.dtd">
<svg xmlns:xlink="http://www.w3.org/1999/xlink" width="798.073437pt" height="569.99952pt" viewBox="0 0 798.073437 569.99952" xmlns="http://www.w3.org/2000/svg" version="1.1">
 <metadata>
  <rdf:RDF xmlns:dc="http://purl.org/dc/elements/1.1/" xmlns:cc="http://creativecommons.org/ns#" xmlns:rdf="http://www.w3.org/1999/02/22-rdf-syntax-ns#">
   <cc:Work>
    <dc:type rdf:resource="http://purl.org/dc/dcmitype/StillImage"/>
    <dc:date>2026-06-16T12:29:35.111587</dc:date>
    <dc:format>image/svg+xml</dc:format>
    <dc:creator>
     <cc:Agent>
      <dc:title>Matplotlib v3.10.8, https://matplotlib.org/</dc:title>
     </cc:Agent>
    </dc:creator>
   </cc:Work>
  </rdf:RDF>
 </metadata>
 <defs>
  <style type="text/css">*{stroke-linejoin: round; stroke-linecap: butt}</style>
 </defs>
 <g id="figure_1">
  <g id="patch_1">
   <path d="M 0 569.99952 
L 798.073437 569.99952 
L 798.073437 0 
L 0 0 
z
" style="fill: #ffffff"/>
  </g>
  <g id="axes_1">
   <g id="patch_2">
    <path d="M 91.499402 212.357245 
L 706.574036 212.357245 
L 706.574036 89.342318 
L 91.499402 89.342318 
L 91.499402 212.357245 
z
" clip-path="url(#p175b01c728)" style="fill: none; stroke: #000000; stroke-width: 1.4; stroke-linejoin: miter"/>
   </g>
   <g id="PathCollection_1">
    <defs>
     <path id="mcb80b074c4" d="M 0 2.738613 
C 0.726289 2.738613 1.422928 2.450055 1.936492 1.936492 
C 2.450055 1.422928 2.738613 0.726289 2.738613 0 
C 2.738613 -0.726289 2.450055 -1.422928 1.936492 -1.936492 
C 1.422928 -2.450055 0.726289 -2.738613 0 -2.738613 
C -0.726289 -2.738613 -1.422928 -2.450055 -1.936492 -1.936492 
C -2.450055 -1.422928 -2.738613 -0.726289 -2.738613 0 
C -2.738613 0.726289 -2.450055 1.422928 -1.936492 1.936492 
C -1.422928 2.450055 -0.726289 2.738613 0 2.738613 
z
" style="stroke: #1f77b4"/>
    </defs>
    <g clip-path="url(#p175b01c728)">
     <use xlink:href="#mcb80b074c4" x="131.479253" y="184.678887" style="fill: #1f77b4; stroke: #1f77b4"/>
     <use xlink:href="#mcb80b074c4" x="190.936468" y="184.678887" style="fill: #1f77b4; stroke: #1f77b4"/>
     <use xlink:href="#mcb80b074c4" x="250.393682" y="184.678887" style="fill: #1f77b4; stroke: #1f77b4"/>
     <use xlink:href="#mcb80b074c4" x="309.850897" y="184.678887" style="fill: #1f77b4; stroke: #1f77b4"/>
     <use xlink:href="#mcb80b074c4" x="369.308111" y="184.678887" style="fill: #1f77b4; stroke: #1f77b4"/>
     <use xlink:href="#mcb80b074c4" x="428.765326" y="184.678887" style="fill: #1f77b4; stroke: #1f77b4"/>
     <use xlink:href="#mcb80b074c4" x="488.222541" y="184.678887" style="fill: #1f77b4; stroke: #1f77b4"/>
     <use xlink:href="#mcb80b074c4" x="547.679755" y="184.678887" style="fill: #1f77b4; stroke: #1f77b4"/>
     <use xlink:href="#mcb80b074c4" x="607.13697" y="184.678887" style="fill: #1f77b4; stroke: #1f77b4"/>
     <use xlink:href="#mcb80b074c4" x="666.594184" y="184.678887" style="fill: #1f77b4; stroke: #1f77b4"/>
    </g>
   </g>
   <g id="PathCollection_2">
    <defs>
     <path id="m07133939b1" d="M 0 2.738613 
C 0.726289 2.738613 1.422928 2.450055 1.936492 1.936492 
C 2.450055 1.422928 2.738613 0.726289 2.738613 0 
C 2.738613 -0.726289 2.450055 -1.422928 1.936492 -1.936492 
C 1.422928 -2.450055 0.726289 -2.738613 0 -2.738613 
C -0.726289 -2.738613 -1.422928 -2.450055 -1.936492 -1.936492 
C -2.450055 -1.422928 -2.738613 -0.726289 -2.738613 0 
C -2.738613 0.726289 -2.450055 1.422928 -1.936492 1.936492 
C -1.422928 2.450055 -0.726289 2.738613 0 2.738613 
z
" style="stroke: #ff7f0e"/>
    </defs>
    <g clip-path="url(#p175b01c728)">
     <use xlink:href="#m07133939b1" x="131.479253" y="150.849782" style="fill: #ff7f0e; stroke: #ff7f0e"/>
     <use xlink:href="#m07133939b1" x="190.936468" y="150.849782" style="fill: #ff7f0e; stroke: #ff7f0e"/>
     <use xlink:href="#m07133939b1" x="250.393682" y="150.849782" style="fill: #ff7f0e; stroke: #ff7f0e"/>
     <use xlink:href="#m07133939b1" x="309.850897" y="150.849782" style="fill: #ff7f0e; stroke: #ff7f0e"/>
     <use xlink:href="#m07133939b1" x="369.308111" y="150.849782" style="fill: #ff7f0e; stroke: #ff7f0e"/>
     <use xlink:href="#m07133939b1" x="428.765326" y="150.849782" style="fill: #ff7f0e; stroke: #ff7f0e"/>
     <use xlink:href="#m07133939b1" x="488.222541" y="150.849782" style="fill: #ff7f0e; stroke: #ff7f0e"/>
     <use xlink:href="#m07133939b1" x="547.679755" y="150.849782" style="fill: #ff7f0e; stroke: #ff7f0e"/>
     <use xlink:href="#m07133939b1" x="607.13697" y="150.849782" style="fill: #ff7f0e; stroke: #ff7f0e"/>
     <use xlink:href="#m07133939b1" x="666.594184" y="150.849782" style="fill: #ff7f0e; stroke: #ff7f0e"/>
    </g>
   </g>
   <g id="PathCollection_3">
    <defs>
     <path id="m55120d4710" d="M 0 2.738613 
C 0.726289 2.738613 1.422928 2.450055 1.936492 1.936492 
C 2.450055 1.422928 2.738613 0.726289 2.738613 0 
C 2.738613 -0.726289 2.450055 -1.422928 1.936492 -1.936492 
C 1.422928 -2.450055 0.726289 -2.738613 0 -2.738613 
C -0.726289 -2.738613 -1.422928 -2.450055 -1.936492 -1.936492 
C -2.450055 -1.422928 -2.738613 -0.726289 -2.738613 0 
C -2.738613 0.726289 -2.450055 1.422928 -1.936492 1.936492 
C -1.422928 2.450055 -0.726289 2.738613 0 2.738613 
z
" style="stroke: #2ca02c"/>
    </defs>
    <g clip-path="url(#p175b01c728)">
     <use xlink:href="#m55120d4710" x="131.479253" y="117.020677" style="fill: #2ca02c; stroke: #2ca02c"/>
     <use xlink:href="#m55120d4710" x="190.936468" y="117.020677" style="fill: #2ca02c; stroke: #2ca02c"/>
     <use xlink:href="#m55120d4710" x="250.393682" y="117.020677" style="fill: #2ca02c; stroke: #2ca02c"/>
     <use xlink:href="#m55120d4710" x="309.850897" y="117.020677" style="fill: #2ca02c; stroke: #2ca02c"/>
     <use xlink:href="#m55120d4710" x="369.308111" y="117.020677" style="fill: #2ca02c; stroke: #2ca02c"/>
     <use xlink:href="#m55120d4710" x="428.765326" y="117.020677" style="fill: #2ca02c; stroke: #2ca02c"/>
     <use xlink:href="#m55120d4710" x="488.222541" y="117.020677" style="fill: #2ca02c; stroke: #2ca02c"/>
     <use xlink:href="#m55120d4710" x="547.679755" y="117.020677" style="fill: #2ca02c; stroke: #2ca02c"/>
     <use xlink:href="#m55120d4710" x="607.13697" y="117.020677" style="fill: #2ca02c; stroke: #2ca02c"/>
     <use xlink:href="#m55120d4710" x="666.594184" y="117.020677" style="fill: #2ca02c; stroke: #2ca02c"/>
    </g>
   </g>
   <g id="patch_3">
    <path d="M 91.499402 212.357245 
L 706.574036 212.357245 
L 706.574036 89.342318 
L 91.499402 89.342318 
z
" clip-path="url(#p175b01c728)" style="fill: #1f77b4; opacity: 0.1"/>
   </g>
   <g id="text_1">
    <!-- configurazione di equilibrio -->
    <g transform="translate(313.813359 63.509184) scale(0.11 -0.11)">
     <defs>
      <path id="DejaVuSans-Bold-63" d="M 3366 3391 
L 3366 2478 
Q 3138 2634 2908 2709 
Q 2678 2784 2431 2784 
Q 1963 2784 1702 2511 
Q 1441 2238 1441 1747 
Q 1441 1256 1702 982 
Q 1963 709 2431 709 
Q 2694 709 2930 787 
Q 3166 866 3366 1019 
L 3366 103 
Q 3103 6 2833 -42 
Q 2563 -91 2291 -91 
Q 1344 -91 809 395 
Q 275 881 275 1747 
Q 275 2613 809 3098 
Q 1344 3584 2291 3584 
Q 2566 3584 2833 3536 
Q 3100 3488 3366 3391 
z
" transform="scale(0.015625)"/>
      <path id="DejaVuSans-Bold-6f" d="M 2203 2784 
Q 1831 2784 1636 2517 
Q 1441 2250 1441 1747 
Q 1441 1244 1636 976 
Q 1831 709 2203 709 
Q 2569 709 2762 976 
Q 2956 1244 2956 1747 
Q 2956 2250 2762 2517 
Q 2569 2784 2203 2784 
z
M 2203 3584 
Q 3106 3584 3614 3096 
Q 4122 2609 4122 1747 
Q 4122 884 3614 396 
Q 3106 -91 2203 -91 
Q 1297 -91 786 396 
Q 275 884 275 1747 
Q 275 2609 786 3096 
Q 1297 3584 2203 3584 
z
" transform="scale(0.015625)"/>
      <path id="DejaVuSans-Bold-6e" d="M 4056 2131 
L 4056 0 
L 2931 0 
L 2931 347 
L 2931 1631 
Q 2931 2084 2911 2256 
Q 2891 2428 2841 2509 
Q 2775 2619 2662 2680 
Q 2550 2741 2406 2741 
Q 2056 2741 1856 2470 
Q 1656 2200 1656 1722 
L 1656 0 
L 538 0 
L 538 3500 
L 1656 3500 
L 1656 2988 
Q 1909 3294 2193 3439 
Q 2478 3584 2822 3584 
Q 3428 3584 3742 3212 
Q 4056 2841 4056 2131 
z
" transform="scale(0.015625)"/>
      <path id="DejaVuSans-Bold-66" d="M 2841 4863 
L 2841 4128 
L 2222 4128 
Q 1984 4128 1890 4042 
Q 1797 3956 1797 3744 
L 1797 3500 
L 2753 3500 
L 2753 2700 
L 1797 2700 
L 1797 0 
L 678 0 
L 678 2700 
L 122 2700 
L 122 3500 
L 678 3500 
L 678 3744 
Q 678 4316 997 4589 
Q 1316 4863 1984 4863 
L 2841 4863 
z
" transform="scale(0.015625)"/>
      <path id="DejaVuSans-Bold-69" d="M 538 3500 
L 1656 3500 
L 1656 0 
L 538 0 
L 538 3500 
z
M 538 4863 
L 1656 4863 
L 1656 3950 
L 538 3950 
L 538 4863 
z
" transform="scale(0.015625)"/>
      <path id="DejaVuSans-Bold-67" d="M 2919 594 
Q 2688 288 2409 144 
Q 2131 0 1766 0 
Q 1125 0 706 504 
Q 288 1009 288 1791 
Q 288 2575 706 3076 
Q 1125 3578 1766 3578 
Q 2131 3578 2409 3434 
Q 2688 3291 2919 2981 
L 2919 3500 
L 4044 3500 
L 4044 353 
Q 4044 -491 3511 -936 
Q 2978 -1381 1966 -1381 
Q 1638 -1381 1331 -1331 
Q 1025 -1281 716 -1178 
L 716 -306 
Q 1009 -475 1290 -558 
Q 1572 -641 1856 -641 
Q 2406 -641 2662 -400 
Q 2919 -159 2919 353 
L 2919 594 
z
M 2181 2772 
Q 1834 2772 1640 2515 
Q 1447 2259 1447 1791 
Q 1447 1309 1634 1061 
Q 1822 813 2181 813 
Q 2531 813 2725 1069 
Q 2919 1325 2919 1791 
Q 2919 2259 2725 2515 
Q 2531 2772 2181 2772 
z
" transform="scale(0.015625)"/>
      <path id="DejaVuSans-Bold-75" d="M 500 1363 
L 500 3500 
L 1625 3500 
L 1625 3150 
Q 1625 2866 1622 2436 
Q 1619 2006 1619 1863 
Q 1619 1441 1641 1255 
Q 1663 1069 1716 984 
Q 1784 875 1895 815 
Q 2006 756 2150 756 
Q 2500 756 2700 1025 
Q 2900 1294 2900 1772 
L 2900 3500 
L 4019 3500 
L 4019 0 
L 2900 0 
L 2900 506 
Q 2647 200 2364 54 
Q 2081 -91 1741 -91 
Q 1134 -91 817 281 
Q 500 653 500 1363 
z
" transform="scale(0.015625)"/>
      <path id="DejaVuSans-Bold-72" d="M 3138 2547 
Q 2991 2616 2845 2648 
Q 2700 2681 2553 2681 
Q 2122 2681 1889 2404 
Q 1656 2128 1656 1613 
L 1656 0 
L 538 0 
L 538 3500 
L 1656 3500 
L 1656 2925 
Q 1872 3269 2151 3426 
Q 2431 3584 2822 3584 
Q 2878 3584 2943 3579 
Q 3009 3575 3134 3559 
L 3138 2547 
z
" transform="scale(0.015625)"/>
      <path id="DejaVuSans-Bold-61" d="M 2106 1575 
Q 1756 1575 1579 1456 
Q 1403 1338 1403 1106 
Q 1403 894 1545 773 
Q 1688 653 1941 653 
Q 2256 653 2472 879 
Q 2688 1106 2688 1447 
L 2688 1575 
L 2106 1575 
z
M 3816 1997 
L 3816 0 
L 2688 0 
L 2688 519 
Q 2463 200 2181 54 
Q 1900 -91 1497 -91 
Q 953 -91 614 226 
Q 275 544 275 1050 
Q 275 1666 698 1953 
Q 1122 2241 2028 2241 
L 2688 2241 
L 2688 2328 
Q 2688 2594 2478 2717 
Q 2269 2841 1825 2841 
Q 1466 2841 1156 2769 
Q 847 2697 581 2553 
L 581 3406 
Q 941 3494 1303 3539 
Q 1666 3584 2028 3584 
Q 2975 3584 3395 3211 
Q 3816 2838 3816 1997 
z
" transform="scale(0.015625)"/>
      <path id="DejaVuSans-Bold-7a" d="M 366 3500 
L 3419 3500 
L 3419 2719 
L 1575 800 
L 3419 800 
L 3419 0 
L 288 0 
L 288 781 
L 2131 2700 
L 366 2700 
L 366 3500 
z
" transform="scale(0.015625)"/>
      <path id="DejaVuSans-Bold-65" d="M 4031 1759 
L 4031 1441 
L 1416 1441 
Q 1456 1047 1700 850 
Q 1944 653 2381 653 
Q 2734 653 3104 758 
Q 3475 863 3866 1075 
L 3866 213 
Q 3469 63 3072 -14 
Q 2675 -91 2278 -91 
Q 1328 -91 801 392 
Q 275 875 275 1747 
Q 275 2603 792 3093 
Q 1309 3584 2216 3584 
Q 3041 3584 3536 3087 
Q 4031 2591 4031 1759 
z
M 2881 2131 
Q 2881 2450 2695 2645 
Q 2509 2841 2209 2841 
Q 1884 2841 1681 2658 
Q 1478 2475 1428 2131 
L 2881 2131 
z
" transform="scale(0.015625)"/>
      <path id="DejaVuSans-Bold-20" transform="scale(0.015625)"/>
      <path id="DejaVuSans-Bold-64" d="M 2919 2988 
L 2919 4863 
L 4044 4863 
L 4044 0 
L 2919 0 
L 2919 506 
Q 2688 197 2409 53 
Q 2131 -91 1766 -91 
Q 1119 -91 703 423 
Q 288 938 288 1747 
Q 288 2556 703 3070 
Q 1119 3584 1766 3584 
Q 2128 3584 2408 3439 
Q 2688 3294 2919 2988 
z
M 2181 722 
Q 2541 722 2730 984 
Q 2919 1247 2919 1747 
Q 2919 2247 2730 2509 
Q 2541 2772 2181 2772 
Q 1825 2772 1636 2509 
Q 1447 2247 1447 1747 
Q 1447 1247 1636 984 
Q 1825 722 2181 722 
z
" transform="scale(0.015625)"/>
      <path id="DejaVuSans-Bold-71" d="M 2181 2772 
Q 1825 2772 1636 2509 
Q 1447 2247 1447 1747 
Q 1447 1247 1636 984 
Q 1825 722 2181 722 
Q 2541 722 2730 984 
Q 2919 1247 2919 1747 
Q 2919 2247 2730 2509 
Q 2541 2772 2181 2772 
z
M 2919 506 
Q 2688 197 2409 53 
Q 2131 -91 1766 -91 
Q 1119 -91 703 423 
Q 288 938 288 1747 
Q 288 2556 703 3067 
Q 1119 3578 1766 3578 
Q 2131 3578 2409 3434 
Q 2688 3291 2919 2981 
L 2919 3500 
L 4044 3500 
L 4044 -1331 
L 2919 -1331 
L 2919 506 
z
" transform="scale(0.015625)"/>
      <path id="DejaVuSans-Bold-6c" d="M 538 4863 
L 1656 4863 
L 1656 0 
L 538 0 
L 538 4863 
z
" transform="scale(0.015625)"/>
      <path id="DejaVuSans-Bold-62" d="M 2400 722 
Q 2759 722 2948 984 
Q 3138 1247 3138 1747 
Q 3138 2247 2948 2509 
Q 2759 2772 2400 2772 
Q 2041 2772 1848 2508 
Q 1656 2244 1656 1747 
Q 1656 1250 1848 986 
Q 2041 722 2400 722 
z
M 1656 2988 
Q 1888 3294 2169 3439 
Q 2450 3584 2816 3584 
Q 3463 3584 3878 3070 
Q 4294 2556 4294 1747 
Q 4294 938 3878 423 
Q 3463 -91 2816 -91 
Q 2450 -91 2169 54 
Q 1888 200 1656 506 
L 1656 0 
L 538 0 
L 538 4863 
L 1656 4863 
L 1656 2988 
z
" transform="scale(0.015625)"/>
     </defs>
     <use xlink:href="#DejaVuSans-Bold-63"/>
     <use xlink:href="#DejaVuSans-Bold-6f" transform="translate(59.277344 0)"/>
     <use xlink:href="#DejaVuSans-Bold-6e" transform="translate(127.978516 0)"/>
     <use xlink:href="#DejaVuSans-Bold-66" transform="translate(199.169922 0)"/>
     <use xlink:href="#DejaVuSans-Bold-69" transform="translate(242.675781 0)"/>
     <use xlink:href="#DejaVuSans-Bold-67" transform="translate(276.953125 0)"/>
     <use xlink:href="#DejaVuSans-Bold-75" transform="translate(348.535156 0)"/>
     <use xlink:href="#DejaVuSans-Bold-72" transform="translate(419.726562 0)"/>
     <use xlink:href="#DejaVuSans-Bold-61" transform="translate(469.042969 0)"/>
     <use xlink:href="#DejaVuSans-Bold-7a" transform="translate(536.523438 0)"/>
     <use xlink:href="#DejaVuSans-Bold-69" transform="translate(594.726562 0)"/>
     <use xlink:href="#DejaVuSans-Bold-6f" transform="translate(629.003906 0)"/>
     <use xlink:href="#DejaVuSans-Bold-6e" transform="translate(697.705078 0)"/>
     <use xlink:href="#DejaVuSans-Bold-65" transform="translate(768.896484 0)"/>
     <use xlink:href="#DejaVuSans-Bold-20" transform="translate(836.71875 0)"/>
     <use xlink:href="#DejaVuSans-Bold-64" transform="translate(871.533203 0)"/>
     <use xlink:href="#DejaVuSans-Bold-69" transform="translate(943.115234 0)"/>
     <use xlink:href="#DejaVuSans-Bold-20" transform="translate(977.392578 0)"/>
     <use xlink:href="#DejaVuSans-Bold-65" transform="translate(1012.207031 0)"/>
     <use xlink:href="#DejaVuSans-Bold-71" transform="translate(1080.029297 0)"/>
     <use xlink:href="#DejaVuSans-Bold-75" transform="translate(1151.611328 0)"/>
     <use xlink:href="#DejaVuSans-Bold-69" transform="translate(1222.802734 0)"/>
     <use xlink:href="#DejaVuSans-Bold-6c" transform="translate(1257.080078 0)"/>
     <use xlink:href="#DejaVuSans-Bold-69" transform="translate(1291.357422 0)"/>
     <use xlink:href="#DejaVuSans-Bold-62" transform="translate(1325.634766 0)"/>
     <use xlink:href="#DejaVuSans-Bold-72" transform="translate(1397.216797 0)"/>
     <use xlink:href="#DejaVuSans-Bold-69" transform="translate(1446.533203 0)"/>
     <use xlink:href="#DejaVuSans-Bold-6f" transform="translate(1480.810547 0)"/>
    </g>
   </g>
   <g id="text_2">
    <!-- gas elettronico sovrapposto al reticolo ionico -->
    <g transform="translate(292.362852 244.341126) scale(0.095 -0.095)">
     <defs>
      <path id="DejaVuSans-67" d="M 2906 1791 
Q 2906 2416 2648 2759 
Q 2391 3103 1925 3103 
Q 1463 3103 1205 2759 
Q 947 2416 947 1791 
Q 947 1169 1205 825 
Q 1463 481 1925 481 
Q 2391 481 2648 825 
Q 2906 1169 2906 1791 
z
M 3481 434 
Q 3481 -459 3084 -895 
Q 2688 -1331 1869 -1331 
Q 1566 -1331 1297 -1286 
Q 1028 -1241 775 -1147 
L 775 -588 
Q 1028 -725 1275 -790 
Q 1522 -856 1778 -856 
Q 2344 -856 2625 -561 
Q 2906 -266 2906 331 
L 2906 616 
Q 2728 306 2450 153 
Q 2172 0 1784 0 
Q 1141 0 747 490 
Q 353 981 353 1791 
Q 353 2603 747 3093 
Q 1141 3584 1784 3584 
Q 2172 3584 2450 3431 
Q 2728 3278 2906 2969 
L 2906 3500 
L 3481 3500 
L 3481 434 
z
" transform="scale(0.015625)"/>
      <path id="DejaVuSans-61" d="M 2194 1759 
Q 1497 1759 1228 1600 
Q 959 1441 959 1056 
Q 959 750 1161 570 
Q 1363 391 1709 391 
Q 2188 391 2477 730 
Q 2766 1069 2766 1631 
L 2766 1759 
L 2194 1759 
z
M 3341 1997 
L 3341 0 
L 2766 0 
L 2766 531 
Q 2569 213 2275 61 
Q 1981 -91 1556 -91 
Q 1019 -91 701 211 
Q 384 513 384 1019 
Q 384 1609 779 1909 
Q 1175 2209 1959 2209 
L 2766 2209 
L 2766 2266 
Q 2766 2663 2505 2880 
Q 2244 3097 1772 3097 
Q 1472 3097 1187 3025 
Q 903 2953 641 2809 
L 641 3341 
Q 956 3463 1253 3523 
Q 1550 3584 1831 3584 
Q 2591 3584 2966 3190 
Q 3341 2797 3341 1997 
z
" transform="scale(0.015625)"/>
      <path id="DejaVuSans-73" d="M 2834 3397 
L 2834 2853 
Q 2591 2978 2328 3040 
Q 2066 3103 1784 3103 
Q 1356 3103 1142 2972 
Q 928 2841 928 2578 
Q 928 2378 1081 2264 
Q 1234 2150 1697 2047 
L 1894 2003 
Q 2506 1872 2764 1633 
Q 3022 1394 3022 966 
Q 3022 478 2636 193 
Q 2250 -91 1575 -91 
Q 1294 -91 989 -36 
Q 684 19 347 128 
L 347 722 
Q 666 556 975 473 
Q 1284 391 1588 391 
Q 1994 391 2212 530 
Q 2431 669 2431 922 
Q 2431 1156 2273 1281 
Q 2116 1406 1581 1522 
L 1381 1569 
Q 847 1681 609 1914 
Q 372 2147 372 2553 
Q 372 3047 722 3315 
Q 1072 3584 1716 3584 
Q 2034 3584 2315 3537 
Q 2597 3491 2834 3397 
z
" transform="scale(0.015625)"/>
      <path id="DejaVuSans-20" transform="scale(0.015625)"/>
      <path id="DejaVuSans-65" d="M 3597 1894 
L 3597 1613 
L 953 1613 
Q 991 1019 1311 708 
Q 1631 397 2203 397 
Q 2534 397 2845 478 
Q 3156 559 3463 722 
L 3463 178 
Q 3153 47 2828 -22 
Q 2503 -91 2169 -91 
Q 1331 -91 842 396 
Q 353 884 353 1716 
Q 353 2575 817 3079 
Q 1281 3584 2069 3584 
Q 2775 3584 3186 3129 
Q 3597 2675 3597 1894 
z
M 3022 2063 
Q 3016 2534 2758 2815 
Q 2500 3097 2075 3097 
Q 1594 3097 1305 2825 
Q 1016 2553 972 2059 
L 3022 2063 
z
" transform="scale(0.015625)"/>
      <path id="DejaVuSans-6c" d="M 603 4863 
L 1178 4863 
L 1178 0 
L 603 0 
L 603 4863 
z
" transform="scale(0.015625)"/>
      <path id="DejaVuSans-74" d="M 1172 4494 
L 1172 3500 
L 2356 3500 
L 2356 3053 
L 1172 3053 
L 1172 1153 
Q 1172 725 1289 603 
Q 1406 481 1766 481 
L 2356 481 
L 2356 0 
L 1766 0 
Q 1100 0 847 248 
Q 594 497 594 1153 
L 594 3053 
L 172 3053 
L 172 3500 
L 594 3500 
L 594 4494 
L 1172 4494 
z
" transform="scale(0.015625)"/>
      <path id="DejaVuSans-72" d="M 2631 2963 
Q 2534 3019 2420 3045 
Q 2306 3072 2169 3072 
Q 1681 3072 1420 2755 
Q 1159 2438 1159 1844 
L 1159 0 
L 581 0 
L 581 3500 
L 1159 3500 
L 1159 2956 
Q 1341 3275 1631 3429 
Q 1922 3584 2338 3584 
Q 2397 3584 2469 3576 
Q 2541 3569 2628 3553 
L 2631 2963 
z
" transform="scale(0.015625)"/>
      <path id="DejaVuSans-6f" d="M 1959 3097 
Q 1497 3097 1228 2736 
Q 959 2375 959 1747 
Q 959 1119 1226 758 
Q 1494 397 1959 397 
Q 2419 397 2687 759 
Q 2956 1122 2956 1747 
Q 2956 2369 2687 2733 
Q 2419 3097 1959 3097 
z
M 1959 3584 
Q 2709 3584 3137 3096 
Q 3566 2609 3566 1747 
Q 3566 888 3137 398 
Q 2709 -91 1959 -91 
Q 1206 -91 779 398 
Q 353 888 353 1747 
Q 353 2609 779 3096 
Q 1206 3584 1959 3584 
z
" transform="scale(0.015625)"/>
      <path id="DejaVuSans-6e" d="M 3513 2113 
L 3513 0 
L 2938 0 
L 2938 2094 
Q 2938 2591 2744 2837 
Q 2550 3084 2163 3084 
Q 1697 3084 1428 2787 
Q 1159 2491 1159 1978 
L 1159 0 
L 581 0 
L 581 3500 
L 1159 3500 
L 1159 2956 
Q 1366 3272 1645 3428 
Q 1925 3584 2291 3584 
Q 2894 3584 3203 3211 
Q 3513 2838 3513 2113 
z
" transform="scale(0.015625)"/>
      <path id="DejaVuSans-69" d="M 603 3500 
L 1178 3500 
L 1178 0 
L 603 0 
L 603 3500 
z
M 603 4863 
L 1178 4863 
L 1178 4134 
L 603 4134 
L 603 4863 
z
" transform="scale(0.015625)"/>
      <path id="DejaVuSans-63" d="M 3122 3366 
L 3122 2828 
Q 2878 2963 2633 3030 
Q 2388 3097 2138 3097 
Q 1578 3097 1268 2742 
Q 959 2388 959 1747 
Q 959 1106 1268 751 
Q 1578 397 2138 397 
Q 2388 397 2633 464 
Q 2878 531 3122 666 
L 3122 134 
Q 2881 22 2623 -34 
Q 2366 -91 2075 -91 
Q 1284 -91 818 406 
Q 353 903 353 1747 
Q 353 2603 823 3093 
Q 1294 3584 2113 3584 
Q 2378 3584 2631 3529 
Q 2884 3475 3122 3366 
z
" transform="scale(0.015625)"/>
      <path id="DejaVuSans-76" d="M 191 3500 
L 800 3500 
L 1894 563 
L 2988 3500 
L 3597 3500 
L 2284 0 
L 1503 0 
L 191 3500 
z
" transform="scale(0.015625)"/>
      <path id="DejaVuSans-70" d="M 1159 525 
L 1159 -1331 
L 581 -1331 
L 581 3500 
L 1159 3500 
L 1159 2969 
Q 1341 3281 1617 3432 
Q 1894 3584 2278 3584 
Q 2916 3584 3314 3078 
Q 3713 2572 3713 1747 
Q 3713 922 3314 415 
Q 2916 -91 2278 -91 
Q 1894 -91 1617 61 
Q 1341 213 1159 525 
z
M 3116 1747 
Q 3116 2381 2855 2742 
Q 2594 3103 2138 3103 
Q 1681 3103 1420 2742 
Q 1159 2381 1159 1747 
Q 1159 1113 1420 752 
Q 1681 391 2138 391 
Q 2594 391 2855 752 
Q 3116 1113 3116 1747 
z
" transform="scale(0.015625)"/>
     </defs>
     <use xlink:href="#DejaVuSans-67"/>
     <use xlink:href="#DejaVuSans-61" transform="translate(63.476562 0)"/>
     <use xlink:href="#DejaVuSans-73" transform="translate(124.755859 0)"/>
     <use xlink:href="#DejaVuSans-20" transform="translate(176.855469 0)"/>
     <use xlink:href="#DejaVuSans-65" transform="translate(208.642578 0)"/>
     <use xlink:href="#DejaVuSans-6c" transform="translate(270.166016 0)"/>
     <use xlink:href="#DejaVuSans-65" transform="translate(297.949219 0)"/>
     <use xlink:href="#DejaVuSans-74" transform="translate(359.472656 0)"/>
     <use xlink:href="#DejaVuSans-74" transform="translate(398.681641 0)"/>
     <use xlink:href="#DejaVuSans-72" transform="translate(437.890625 0)"/>
     <use xlink:href="#DejaVuSans-6f" transform="translate(476.753906 0)"/>
     <use xlink:href="#DejaVuSans-6e" transform="translate(537.935547 0)"/>
     <use xlink:href="#DejaVuSans-69" transform="translate(601.314453 0)"/>
     <use xlink:href="#DejaVuSans-63" transform="translate(629.097656 0)"/>
     <use xlink:href="#DejaVuSans-6f" transform="translate(684.078125 0)"/>
     <use xlink:href="#DejaVuSans-20" transform="translate(745.259766 0)"/>
     <use xlink:href="#DejaVuSans-73" transform="translate(777.046875 0)"/>
     <use xlink:href="#DejaVuSans-6f" transform="translate(829.146484 0)"/>
     <use xlink:href="#DejaVuSans-76" transform="translate(890.328125 0)"/>
     <use xlink:href="#DejaVuSans-72" transform="translate(949.507812 0)"/>
     <use xlink:href="#DejaVuSans-61" transform="translate(990.621094 0)"/>
     <use xlink:href="#DejaVuSans-70" transform="translate(1051.900391 0)"/>
     <use xlink:href="#DejaVuSans-70" transform="translate(1115.376953 0)"/>
     <use xlink:href="#DejaVuSans-6f" transform="translate(1178.853516 0)"/>
     <use xlink:href="#DejaVuSans-73" transform="translate(1240.035156 0)"/>
     <use xlink:href="#DejaVuSans-74" transform="translate(1292.134766 0)"/>
     <use xlink:href="#DejaVuSans-6f" transform="translate(1331.34375 0)"/>
     <use xlink:href="#DejaVuSans-20" transform="translate(1392.525391 0)"/>
     <use xlink:href="#DejaVuSans-61" transform="translate(1424.3125 0)"/>
     <use xlink:href="#DejaVuSans-6c" transform="translate(1485.591797 0)"/>
     <use xlink:href="#DejaVuSans-20" transform="translate(1513.375 0)"/>
     <use xlink:href="#DejaVuSans-72" transform="translate(1545.162109 0)"/>
     <use xlink:href="#DejaVuSans-65" transform="translate(1584.025391 0)"/>
     <use xlink:href="#DejaVuSans-74" transform="translate(1645.548828 0)"/>
     <use xlink:href="#DejaVuSans-69" transform="translate(1684.757812 0)"/>
     <use xlink:href="#DejaVuSans-63" transform="translate(1712.541016 0)"/>
     <use xlink:href="#DejaVuSans-6f" transform="translate(1767.521484 0)"/>
     <use xlink:href="#DejaVuSans-6c" transform="translate(1828.703125 0)"/>
     <use xlink:href="#DejaVuSans-6f" transform="translate(1856.486328 0)"/>
     <use xlink:href="#DejaVuSans-20" transform="translate(1917.667969 0)"/>
     <use xlink:href="#DejaVuSans-69" transform="translate(1949.455078 0)"/>
     <use xlink:href="#DejaVuSans-6f" transform="translate(1977.238281 0)"/>
     <use xlink:href="#DejaVuSans-6e" transform="translate(2038.419922 0)"/>
     <use xlink:href="#DejaVuSans-69" transform="translate(2101.798828 0)"/>
     <use xlink:href="#DejaVuSans-63" transform="translate(2129.582031 0)"/>
     <use xlink:href="#DejaVuSans-6f" transform="translate(2184.5625 0)"/>
    </g>
   </g>
  </g>
  <g id="axes_2">
   <g id="patch_4">
    <path d="M 91.499402 482.839818 
L 706.574036 482.839818 
L 706.574036 359.824891 
L 91.499402 359.824891 
L 91.499402 482.839818 
z
" clip-path="url(#pe39111a726)" style="fill: none; stroke: #000000; stroke-width: 1.4; stroke-linejoin: miter"/>
   </g>
   <g id="PathCollection_4">
    <g clip-path="url(#pe39111a726)">
     <use xlink:href="#mcb80b074c4" x="131.479253" y="455.161459" style="fill: #1f77b4; stroke: #1f77b4"/>
     <use xlink:href="#mcb80b074c4" x="190.936468" y="455.161459" style="fill: #1f77b4; stroke: #1f77b4"/>
     <use xlink:href="#mcb80b074c4" x="250.393682" y="455.161459" style="fill: #1f77b4; stroke: #1f77b4"/>
     <use xlink:href="#mcb80b074c4" x="309.850897" y="455.161459" style="fill: #1f77b4; stroke: #1f77b4"/>
     <use xlink:href="#mcb80b074c4" x="369.308111" y="455.161459" style="fill: #1f77b4; stroke: #1f77b4"/>
     <use xlink:href="#mcb80b074c4" x="428.765326" y="455.161459" style="fill: #1f77b4; stroke: #1f77b4"/>
     <use xlink:href="#mcb80b074c4" x="488.222541" y="455.161459" style="fill: #1f77b4; stroke: #1f77b4"/>
     <use xlink:href="#mcb80b074c4" x="547.679755" y="455.161459" style="fill: #1f77b4; stroke: #1f77b4"/>
     <use xlink:href="#mcb80b074c4" x="607.13697" y="455.161459" style="fill: #1f77b4; stroke: #1f77b4"/>
     <use xlink:href="#mcb80b074c4" x="666.594184" y="455.161459" style="fill: #1f77b4; stroke: #1f77b4"/>
    </g>
   </g>
   <g id="PathCollection_5">
    <g clip-path="url(#pe39111a726)">
     <use xlink:href="#m07133939b1" x="131.479253" y="421.332354" style="fill: #ff7f0e; stroke: #ff7f0e"/>
     <use xlink:href="#m07133939b1" x="190.936468" y="421.332354" style="fill: #ff7f0e; stroke: #ff7f0e"/>
     <use xlink:href="#m07133939b1" x="250.393682" y="421.332354" style="fill: #ff7f0e; stroke: #ff7f0e"/>
     <use xlink:href="#m07133939b1" x="309.850897" y="421.332354" style="fill: #ff7f0e; stroke: #ff7f0e"/>
     <use xlink:href="#m07133939b1" x="369.308111" y="421.332354" style="fill: #ff7f0e; stroke: #ff7f0e"/>
     <use xlink:href="#m07133939b1" x="428.765326" y="421.332354" style="fill: #ff7f0e; stroke: #ff7f0e"/>
     <use xlink:href="#m07133939b1" x="488.222541" y="421.332354" style="fill: #ff7f0e; stroke: #ff7f0e"/>
     <use xlink:href="#m07133939b1" x="547.679755" y="421.332354" style="fill: #ff7f0e; stroke: #ff7f0e"/>
     <use xlink:href="#m07133939b1" x="607.13697" y="421.332354" style="fill: #ff7f0e; stroke: #ff7f0e"/>
     <use xlink:href="#m07133939b1" x="666.594184" y="421.332354" style="fill: #ff7f0e; stroke: #ff7f0e"/>
    </g>
   </g>
   <g id="PathCollection_6">
    <g clip-path="url(#pe39111a726)">
     <use xlink:href="#m55120d4710" x="131.479253" y="387.503249" style="fill: #2ca02c; stroke: #2ca02c"/>
     <use xlink:href="#m55120d4710" x="190.936468" y="387.503249" style="fill: #2ca02c; stroke: #2ca02c"/>
     <use xlink:href="#m55120d4710" x="250.393682" y="387.503249" style="fill: #2ca02c; stroke: #2ca02c"/>
     <use xlink:href="#m55120d4710" x="309.850897" y="387.503249" style="fill: #2ca02c; stroke: #2ca02c"/>
     <use xlink:href="#m55120d4710" x="369.308111" y="387.503249" style="fill: #2ca02c; stroke: #2ca02c"/>
     <use xlink:href="#m55120d4710" x="428.765326" y="387.503249" style="fill: #2ca02c; stroke: #2ca02c"/>
     <use xlink:href="#m55120d4710" x="488.222541" y="387.503249" style="fill: #2ca02c; stroke: #2ca02c"/>
     <use xlink:href="#m55120d4710" x="547.679755" y="387.503249" style="fill: #2ca02c; stroke: #2ca02c"/>
     <use xlink:href="#m55120d4710" x="607.13697" y="387.503249" style="fill: #2ca02c; stroke: #2ca02c"/>
     <use xlink:href="#m55120d4710" x="666.594184" y="387.503249" style="fill: #2ca02c; stroke: #2ca02c"/>
    </g>
   </g>
   <g id="patch_5">
    <path d="M 135.784776 482.839818 
L 750.859409 482.839818 
L 750.859409 359.824891 
L 135.784776 359.824891 
z
" clip-path="url(#pe39111a726)" style="fill: #1f77b4; opacity: 0.1"/>
   </g>
   <g id="patch_6">
    <path d="M 91.499402 482.839818 
L 135.784776 482.839818 
L 135.784776 359.824891 
L 91.499402 359.824891 
z
" clip-path="url(#pe39111a726)" style="fill: url(#hb79009490c); opacity: 0.18"/>
   </g>
   <g id="patch_7">
    <path d="M 706.574036 482.839818 
L 750.859409 482.839818 
L 750.859409 359.824891 
L 706.574036 359.824891 
z
" clip-path="url(#pe39111a726)" style="fill: url(#h6870bcc468); opacity: 0.18"/>
   </g>
   <g id="text_3">
    <!-- + -->
    <g transform="translate(104.870221 426.299229) scale(0.18 -0.18)">
     <defs>
      <path id="DejaVuSans-Bold-2b" d="M 3053 4013 
L 3053 2375 
L 4684 2375 
L 4684 1638 
L 3053 1638 
L 3053 0 
L 2309 0 
L 2309 1638 
L 678 1638 
L 678 2375 
L 2309 2375 
L 2309 4013 
L 3053 4013 
z
" transform="scale(0.015625)"/>
     </defs>
     <use xlink:href="#DejaVuSans-Bold-2b"/>
    </g>
   </g>
   <g id="text_4">
    <!-- − -->
    <g transform="translate(721.175004 426.299229) scale(0.18 -0.18)">
     <defs>
      <path id="DejaVuSans-Bold-2212" d="M 678 2375 
L 4684 2375 
L 4684 1638 
L 678 1638 
L 678 2375 
z
" transform="scale(0.015625)"/>
     </defs>
     <use xlink:href="#DejaVuSans-Bold-2212"/>
    </g>
   </g>
   <g id="patch_8">
    <path d="M 96.574406 330.301308 
Q 115.181622 330.301308 132.559 330.301308 
" style="fill: none; stroke: #000000; stroke-width: 1.1; stroke-linecap: round"/>
    <path d="M 127.359 327.701308 
L 132.559 330.301308 
L 127.359 332.901308 
z
" style="fill: #1f77b4; stroke: #000000; stroke-width: 1.1; stroke-linecap: round"/>
   </g>
   <g id="text_5">
    <!-- $d$ -->
    <g transform="translate(112.139775 321.851371) scale(0.095 -0.095)">
     <defs>
      <path id="DejaVuSans-Oblique-64" d="M 2675 525 
Q 2444 222 2128 65 
Q 1813 -91 1428 -91 
Q 903 -91 598 267 
Q 294 625 294 1247 
Q 294 1766 478 2236 
Q 663 2706 1013 3078 
Q 1244 3325 1534 3454 
Q 1825 3584 2144 3584 
Q 2481 3584 2739 3421 
Q 2997 3259 3138 2956 
L 3513 4863 
L 4091 4863 
L 3144 0 
L 2566 0 
L 2675 525 
z
M 891 1350 
Q 891 897 1095 644 
Q 1300 391 1663 391 
Q 1931 391 2161 520 
Q 2391 650 2566 903 
Q 2750 1166 2856 1509 
Q 2963 1853 2963 2188 
Q 2963 2622 2758 2865 
Q 2553 3109 2194 3109 
Q 1922 3109 1687 2981 
Q 1453 2853 1288 2613 
Q 1106 2353 998 2009 
Q 891 1666 891 1350 
z
" transform="scale(0.015625)"/>
     </defs>
     <use xlink:href="#DejaVuSans-Oblique-64" transform="translate(0 0.015625)"/>
    </g>
   </g>
   <g id="patch_9">
    <path d="M 165.308358 385.194767 
Q 165.308358 421.3313 165.308358 456.182094 
" style="fill: none; stroke: #000000; stroke-width: 1.15; stroke-linecap: round"/>
    <path d="M 167.908358 450.982094 
L 165.308358 456.182094 
L 162.708358 450.982094 
z
" style="fill: #1f77b4; stroke: #000000; stroke-width: 1.15; stroke-linecap: round"/>
   </g>
   <g id="patch_10">
    <path d="M 282.172538 385.194767 
Q 282.172538 421.3313 282.172538 456.182094 
" style="fill: none; stroke: #000000; stroke-width: 1.15; stroke-linecap: round"/>
    <path d="M 284.772538 450.982094 
L 282.172538 456.182094 
L 279.572538 450.982094 
z
" style="fill: #1f77b4; stroke: #000000; stroke-width: 1.15; stroke-linecap: round"/>
   </g>
   <g id="patch_11">
    <path d="M 399.036719 385.194767 
Q 399.036719 421.3313 399.036719 456.182094 
" style="fill: none; stroke: #000000; stroke-width: 1.15; stroke-linecap: round"/>
    <path d="M 401.636719 450.982094 
L 399.036719 456.182094 
L 396.436719 450.982094 
z
" style="fill: #1f77b4; stroke: #000000; stroke-width: 1.15; stroke-linecap: round"/>
   </g>
   <g id="patch_12">
    <path d="M 515.900899 385.194767 
Q 515.900899 421.3313 515.900899 456.182094 
" style="fill: none; stroke: #000000; stroke-width: 1.15; stroke-linecap: round"/>
    <path d="M 518.500899 450.982094 
L 515.900899 456.182094 
L 513.300899 450.982094 
z
" style="fill: #1f77b4; stroke: #000000; stroke-width: 1.15; stroke-linecap: round"/>
   </g>
   <g id="patch_13">
    <path d="M 632.76508 385.194767 
Q 632.76508 421.3313 632.76508 456.182094 
" style="fill: none; stroke: #000000; stroke-width: 1.15; stroke-linecap: round"/>
    <path d="M 635.36508 450.982094 
L 632.76508 456.182094 
L 630.16508 450.982094 
z
" style="fill: #1f77b4; stroke: #000000; stroke-width: 1.15; stroke-linecap: round"/>
   </g>
   <g id="text_6">
    <!-- forza elettrica di richiamo -->
    <g transform="translate(339.1825 416.411757) scale(0.093 -0.093)">
     <defs>
      <path id="DejaVuSans-66" d="M 2375 4863 
L 2375 4384 
L 1825 4384 
Q 1516 4384 1395 4259 
Q 1275 4134 1275 3809 
L 1275 3500 
L 2222 3500 
L 2222 3053 
L 1275 3053 
L 1275 0 
L 697 0 
L 697 3053 
L 147 3053 
L 147 3500 
L 697 3500 
L 697 3744 
Q 697 4328 969 4595 
Q 1241 4863 1831 4863 
L 2375 4863 
z
" transform="scale(0.015625)"/>
      <path id="DejaVuSans-7a" d="M 353 3500 
L 3084 3500 
L 3084 2975 
L 922 459 
L 3084 459 
L 3084 0 
L 275 0 
L 275 525 
L 2438 3041 
L 353 3041 
L 353 3500 
z
" transform="scale(0.015625)"/>
      <path id="DejaVuSans-64" d="M 2906 2969 
L 2906 4863 
L 3481 4863 
L 3481 0 
L 2906 0 
L 2906 525 
Q 2725 213 2448 61 
Q 2172 -91 1784 -91 
Q 1150 -91 751 415 
Q 353 922 353 1747 
Q 353 2572 751 3078 
Q 1150 3584 1784 3584 
Q 2172 3584 2448 3432 
Q 2725 3281 2906 2969 
z
M 947 1747 
Q 947 1113 1208 752 
Q 1469 391 1925 391 
Q 2381 391 2643 752 
Q 2906 1113 2906 1747 
Q 2906 2381 2643 2742 
Q 2381 3103 1925 3103 
Q 1469 3103 1208 2742 
Q 947 2381 947 1747 
z
" transform="scale(0.015625)"/>
      <path id="DejaVuSans-68" d="M 3513 2113 
L 3513 0 
L 2938 0 
L 2938 2094 
Q 2938 2591 2744 2837 
Q 2550 3084 2163 3084 
Q 1697 3084 1428 2787 
Q 1159 2491 1159 1978 
L 1159 0 
L 581 0 
L 581 4863 
L 1159 4863 
L 1159 2956 
Q 1366 3272 1645 3428 
Q 1925 3584 2291 3584 
Q 2894 3584 3203 3211 
Q 3513 2838 3513 2113 
z
" transform="scale(0.015625)"/>
      <path id="DejaVuSans-6d" d="M 3328 2828 
Q 3544 3216 3844 3400 
Q 4144 3584 4550 3584 
Q 5097 3584 5394 3201 
Q 5691 2819 5691 2113 
L 5691 0 
L 5113 0 
L 5113 2094 
Q 5113 2597 4934 2840 
Q 4756 3084 4391 3084 
Q 3944 3084 3684 2787 
Q 3425 2491 3425 1978 
L 3425 0 
L 2847 0 
L 2847 2094 
Q 2847 2600 2669 2842 
Q 2491 3084 2119 3084 
Q 1678 3084 1418 2786 
Q 1159 2488 1159 1978 
L 1159 0 
L 581 0 
L 581 3500 
L 1159 3500 
L 1159 2956 
Q 1356 3278 1631 3431 
Q 1906 3584 2284 3584 
Q 2666 3584 2933 3390 
Q 3200 3197 3328 2828 
z
" transform="scale(0.015625)"/>
     </defs>
     <use xlink:href="#DejaVuSans-66"/>
     <use xlink:href="#DejaVuSans-6f" transform="translate(35.205078 0)"/>
     <use xlink:href="#DejaVuSans-72" transform="translate(96.386719 0)"/>
     <use xlink:href="#DejaVuSans-7a" transform="translate(137.5 0)"/>
     <use xlink:href="#DejaVuSans-61" transform="translate(189.990234 0)"/>
     <use xlink:href="#DejaVuSans-20" transform="translate(251.269531 0)"/>
     <use xlink:href="#DejaVuSans-65" transform="translate(283.056641 0)"/>
     <use xlink:href="#DejaVuSans-6c" transform="translate(344.580078 0)"/>
     <use xlink:href="#DejaVuSans-65" transform="translate(372.363281 0)"/>
     <use xlink:href="#DejaVuSans-74" transform="translate(433.886719 0)"/>
     <use xlink:href="#DejaVuSans-74" transform="translate(473.095703 0)"/>
     <use xlink:href="#DejaVuSans-72" transform="translate(512.304688 0)"/>
     <use xlink:href="#DejaVuSans-69" transform="translate(553.417969 0)"/>
     <use xlink:href="#DejaVuSans-63" transform="translate(581.201172 0)"/>
     <use xlink:href="#DejaVuSans-61" transform="translate(636.181641 0)"/>
     <use xlink:href="#DejaVuSans-20" transform="translate(697.460938 0)"/>
     <use xlink:href="#DejaVuSans-64" transform="translate(729.248047 0)"/>
     <use xlink:href="#DejaVuSans-69" transform="translate(792.724609 0)"/>
     <use xlink:href="#DejaVuSans-20" transform="translate(820.507812 0)"/>
     <use xlink:href="#DejaVuSans-72" transform="translate(852.294922 0)"/>
     <use xlink:href="#DejaVuSans-69" transform="translate(893.408203 0)"/>
     <use xlink:href="#DejaVuSans-63" transform="translate(921.191406 0)"/>
     <use xlink:href="#DejaVuSans-68" transform="translate(976.171875 0)"/>
     <use xlink:href="#DejaVuSans-69" transform="translate(1039.550781 0)"/>
     <use xlink:href="#DejaVuSans-61" transform="translate(1067.333984 0)"/>
     <use xlink:href="#DejaVuSans-6d" transform="translate(1128.613281 0)"/>
     <use xlink:href="#DejaVuSans-6f" transform="translate(1226.025391 0)"/>
    </g>
   </g>
   <g id="text_7">
    <!-- configurazione eccitata di plasma -->
    <g transform="translate(294.382891 514.823699) scale(0.11 -0.11)">
     <defs>
      <path id="DejaVuSans-Bold-74" d="M 1759 4494 
L 1759 3500 
L 2913 3500 
L 2913 2700 
L 1759 2700 
L 1759 1216 
Q 1759 972 1856 886 
Q 1953 800 2241 800 
L 2816 800 
L 2816 0 
L 1856 0 
Q 1194 0 917 276 
Q 641 553 641 1216 
L 641 2700 
L 84 2700 
L 84 3500 
L 641 3500 
L 641 4494 
L 1759 4494 
z
" transform="scale(0.015625)"/>
      <path id="DejaVuSans-Bold-70" d="M 1656 506 
L 1656 -1331 
L 538 -1331 
L 538 3500 
L 1656 3500 
L 1656 2988 
Q 1888 3294 2169 3439 
Q 2450 3584 2816 3584 
Q 3463 3584 3878 3070 
Q 4294 2556 4294 1747 
Q 4294 938 3878 423 
Q 3463 -91 2816 -91 
Q 2450 -91 2169 54 
Q 1888 200 1656 506 
z
M 2400 2772 
Q 2041 2772 1848 2508 
Q 1656 2244 1656 1747 
Q 1656 1250 1848 986 
Q 2041 722 2400 722 
Q 2759 722 2948 984 
Q 3138 1247 3138 1747 
Q 3138 2247 2948 2509 
Q 2759 2772 2400 2772 
z
" transform="scale(0.015625)"/>
      <path id="DejaVuSans-Bold-73" d="M 3272 3391 
L 3272 2541 
Q 2913 2691 2578 2766 
Q 2244 2841 1947 2841 
Q 1628 2841 1473 2761 
Q 1319 2681 1319 2516 
Q 1319 2381 1436 2309 
Q 1553 2238 1856 2203 
L 2053 2175 
Q 2913 2066 3209 1816 
Q 3506 1566 3506 1031 
Q 3506 472 3093 190 
Q 2681 -91 1863 -91 
Q 1516 -91 1145 -36 
Q 775 19 384 128 
L 384 978 
Q 719 816 1070 734 
Q 1422 653 1784 653 
Q 2113 653 2278 743 
Q 2444 834 2444 1013 
Q 2444 1163 2330 1236 
Q 2216 1309 1875 1350 
L 1678 1375 
Q 931 1469 631 1722 
Q 331 1975 331 2491 
Q 331 3047 712 3315 
Q 1094 3584 1881 3584 
Q 2191 3584 2531 3537 
Q 2872 3491 3272 3391 
z
" transform="scale(0.015625)"/>
      <path id="DejaVuSans-Bold-6d" d="M 3781 2919 
Q 3994 3244 4286 3414 
Q 4578 3584 4928 3584 
Q 5531 3584 5847 3212 
Q 6163 2841 6163 2131 
L 6163 0 
L 5038 0 
L 5038 1825 
Q 5041 1866 5042 1909 
Q 5044 1953 5044 2034 
Q 5044 2406 4934 2573 
Q 4825 2741 4581 2741 
Q 4263 2741 4089 2478 
Q 3916 2216 3909 1719 
L 3909 0 
L 2784 0 
L 2784 1825 
Q 2784 2406 2684 2573 
Q 2584 2741 2328 2741 
Q 2006 2741 1831 2477 
Q 1656 2213 1656 1722 
L 1656 0 
L 531 0 
L 531 3500 
L 1656 3500 
L 1656 2988 
Q 1863 3284 2130 3434 
Q 2397 3584 2719 3584 
Q 3081 3584 3359 3409 
Q 3638 3234 3781 2919 
z
" transform="scale(0.015625)"/>
     </defs>
     <use xlink:href="#DejaVuSans-Bold-63"/>
     <use xlink:href="#DejaVuSans-Bold-6f" transform="translate(59.277344 0)"/>
     <use xlink:href="#DejaVuSans-Bold-6e" transform="translate(127.978516 0)"/>
     <use xlink:href="#DejaVuSans-Bold-66" transform="translate(199.169922 0)"/>
     <use xlink:href="#DejaVuSans-Bold-69" transform="translate(242.675781 0)"/>
     <use xlink:href="#DejaVuSans-Bold-67" transform="translate(276.953125 0)"/>
     <use xlink:href="#DejaVuSans-Bold-75" transform="translate(348.535156 0)"/>
     <use xlink:href="#DejaVuSans-Bold-72" transform="translate(419.726562 0)"/>
     <use xlink:href="#DejaVuSans-Bold-61" transform="translate(469.042969 0)"/>
     <use xlink:href="#DejaVuSans-Bold-7a" transform="translate(536.523438 0)"/>
     <use xlink:href="#DejaVuSans-Bold-69" transform="translate(594.726562 0)"/>
     <use xlink:href="#DejaVuSans-Bold-6f" transform="translate(629.003906 0)"/>
     <use xlink:href="#DejaVuSans-Bold-6e" transform="translate(697.705078 0)"/>
     <use xlink:href="#DejaVuSans-Bold-65" transform="translate(768.896484 0)"/>
     <use xlink:href="#DejaVuSans-Bold-20" transform="translate(836.71875 0)"/>
     <use xlink:href="#DejaVuSans-Bold-65" transform="translate(871.533203 0)"/>
     <use xlink:href="#DejaVuSans-Bold-63" transform="translate(939.355469 0)"/>
     <use xlink:href="#DejaVuSans-Bold-63" transform="translate(998.632812 0)"/>
     <use xlink:href="#DejaVuSans-Bold-69" transform="translate(1057.910156 0)"/>
     <use xlink:href="#DejaVuSans-Bold-74" transform="translate(1092.1875 0)"/>
     <use xlink:href="#DejaVuSans-Bold-61" transform="translate(1139.990234 0)"/>
     <use xlink:href="#DejaVuSans-Bold-74" transform="translate(1207.470703 0)"/>
     <use xlink:href="#DejaVuSans-Bold-61" transform="translate(1255.273438 0)"/>
     <use xlink:href="#DejaVuSans-Bold-20" transform="translate(1322.753906 0)"/>
     <use xlink:href="#DejaVuSans-Bold-64" transform="translate(1357.568359 0)"/>
     <use xlink:href="#DejaVuSans-Bold-69" transform="translate(1429.150391 0)"/>
     <use xlink:href="#DejaVuSans-Bold-20" transform="translate(1463.427734 0)"/>
     <use xlink:href="#DejaVuSans-Bold-70" transform="translate(1498.242188 0)"/>
     <use xlink:href="#DejaVuSans-Bold-6c" transform="translate(1569.824219 0)"/>
     <use xlink:href="#DejaVuSans-Bold-61" transform="translate(1604.101562 0)"/>
     <use xlink:href="#DejaVuSans-Bold-73" transform="translate(1671.582031 0)"/>
     <use xlink:href="#DejaVuSans-Bold-6d" transform="translate(1731.103516 0)"/>
     <use xlink:href="#DejaVuSans-Bold-61" transform="translate(1835.302734 0)"/>
    </g>
   </g>
  </g>
  <g id="text_8">
   <!-- Oscillazione collettiva del gas elettronico in un metallo -->
   <g transform="translate(166.038672 18.597656) scale(0.15 -0.15)">
    <defs>
     <path id="DejaVuSans-Bold-4f" d="M 2719 3878 
Q 2169 3878 1866 3472 
Q 1563 3066 1563 2328 
Q 1563 1594 1866 1187 
Q 2169 781 2719 781 
Q 3272 781 3575 1187 
Q 3878 1594 3878 2328 
Q 3878 3066 3575 3472 
Q 3272 3878 2719 3878 
z
M 2719 4750 
Q 3844 4750 4481 4106 
Q 5119 3463 5119 2328 
Q 5119 1197 4481 553 
Q 3844 -91 2719 -91 
Q 1597 -91 958 553 
Q 319 1197 319 2328 
Q 319 3463 958 4106 
Q 1597 4750 2719 4750 
z
" transform="scale(0.015625)"/>
     <path id="DejaVuSans-Bold-76" d="M 97 3500 
L 1216 3500 
L 2088 1081 
L 2956 3500 
L 4078 3500 
L 2700 0 
L 1472 0 
L 97 3500 
z
" transform="scale(0.015625)"/>
    </defs>
    <use xlink:href="#DejaVuSans-Bold-4f"/>
    <use xlink:href="#DejaVuSans-Bold-73" transform="translate(85.009766 0)"/>
    <use xlink:href="#DejaVuSans-Bold-63" transform="translate(144.53125 0)"/>
    <use xlink:href="#DejaVuSans-Bold-69" transform="translate(203.808594 0)"/>
    <use xlink:href="#DejaVuSans-Bold-6c" transform="translate(238.085938 0)"/>
    <use xlink:href="#DejaVuSans-Bold-6c" transform="translate(272.363281 0)"/>
    <use xlink:href="#DejaVuSans-Bold-61" transform="translate(306.640625 0)"/>
    <use xlink:href="#DejaVuSans-Bold-7a" transform="translate(374.121094 0)"/>
    <use xlink:href="#DejaVuSans-Bold-69" transform="translate(432.324219 0)"/>
    <use xlink:href="#DejaVuSans-Bold-6f" transform="translate(466.601562 0)"/>
    <use xlink:href="#DejaVuSans-Bold-6e" transform="translate(535.302734 0)"/>
    <use xlink:href="#DejaVuSans-Bold-65" transform="translate(606.494141 0)"/>
    <use xlink:href="#DejaVuSans-Bold-20" transform="translate(674.316406 0)"/>
    <use xlink:href="#DejaVuSans-Bold-63" transform="translate(709.130859 0)"/>
    <use xlink:href="#DejaVuSans-Bold-6f" transform="translate(768.408203 0)"/>
    <use xlink:href="#DejaVuSans-Bold-6c" transform="translate(837.109375 0)"/>
    <use xlink:href="#DejaVuSans-Bold-6c" transform="translate(871.386719 0)"/>
    <use xlink:href="#DejaVuSans-Bold-65" transform="translate(905.664062 0)"/>
    <use xlink:href="#DejaVuSans-Bold-74" transform="translate(973.486328 0)"/>
    <use xlink:href="#DejaVuSans-Bold-74" transform="translate(1021.289062 0)"/>
    <use xlink:href="#DejaVuSans-Bold-69" transform="translate(1069.091797 0)"/>
    <use xlink:href="#DejaVuSans-Bold-76" transform="translate(1103.369141 0)"/>
    <use xlink:href="#DejaVuSans-Bold-61" transform="translate(1168.554688 0)"/>
    <use xlink:href="#DejaVuSans-Bold-20" transform="translate(1236.035156 0)"/>
    <use xlink:href="#DejaVuSans-Bold-64" transform="translate(1270.849609 0)"/>
    <use xlink:href="#DejaVuSans-Bold-65" transform="translate(1342.431641 0)"/>
    <use xlink:href="#DejaVuSans-Bold-6c" transform="translate(1410.253906 0)"/>
    <use xlink:href="#DejaVuSans-Bold-20" transform="translate(1444.53125 0)"/>
    <use xlink:href="#DejaVuSans-Bold-67" transform="translate(1479.345703 0)"/>
    <use xlink:href="#DejaVuSans-Bold-61" transform="translate(1550.927734 0)"/>
    <use xlink:href="#DejaVuSans-Bold-73" transform="translate(1618.408203 0)"/>
    <use xlink:href="#DejaVuSans-Bold-20" transform="translate(1677.929688 0)"/>
    <use xlink:href="#DejaVuSans-Bold-65" transform="translate(1712.744141 0)"/>
    <use xlink:href="#DejaVuSans-Bold-6c" transform="translate(1780.566406 0)"/>
    <use xlink:href="#DejaVuSans-Bold-65" transform="translate(1814.84375 0)"/>
    <use xlink:href="#DejaVuSans-Bold-74" transform="translate(1882.666016 0)"/>
    <use xlink:href="#DejaVuSans-Bold-74" transform="translate(1930.46875 0)"/>
    <use xlink:href="#DejaVuSans-Bold-72" transform="translate(1978.271484 0)"/>
    <use xlink:href="#DejaVuSans-Bold-6f" transform="translate(2027.587891 0)"/>
    <use xlink:href="#DejaVuSans-Bold-6e" transform="translate(2096.289062 0)"/>
    <use xlink:href="#DejaVuSans-Bold-69" transform="translate(2167.480469 0)"/>
    <use xlink:href="#DejaVuSans-Bold-63" transform="translate(2201.757812 0)"/>
    <use xlink:href="#DejaVuSans-Bold-6f" transform="translate(2261.035156 0)"/>
    <use xlink:href="#DejaVuSans-Bold-20" transform="translate(2329.736328 0)"/>
    <use xlink:href="#DejaVuSans-Bold-69" transform="translate(2364.550781 0)"/>
    <use xlink:href="#DejaVuSans-Bold-6e" transform="translate(2398.828125 0)"/>
    <use xlink:href="#DejaVuSans-Bold-20" transform="translate(2470.019531 0)"/>
    <use xlink:href="#DejaVuSans-Bold-75" transform="translate(2504.833984 0)"/>
    <use xlink:href="#DejaVuSans-Bold-6e" transform="translate(2576.025391 0)"/>
    <use xlink:href="#DejaVuSans-Bold-20" transform="translate(2647.216797 0)"/>
    <use xlink:href="#DejaVuSans-Bold-6d" transform="translate(2682.03125 0)"/>
    <use xlink:href="#DejaVuSans-Bold-65" transform="translate(2786.230469 0)"/>
    <use xlink:href="#DejaVuSans-Bold-74" transform="translate(2854.052734 0)"/>
    <use xlink:href="#DejaVuSans-Bold-61" transform="translate(2901.855469 0)"/>
    <use xlink:href="#DejaVuSans-Bold-6c" transform="translate(2969.335938 0)"/>
    <use xlink:href="#DejaVuSans-Bold-6c" transform="translate(3003.613281 0)"/>
    <use xlink:href="#DejaVuSans-Bold-6f" transform="translate(3037.890625 0)"/>
   </g>
  </g>
  <g id="text_9">
   <!-- Uno spostamento rigido del gas elettronico rispetto agli ioni crea cariche superficiali opposte e un campo interno che richiama gli elettroni verso l'equilibrio. -->
   <g transform="translate(7.2 559.06056) scale(0.1 -0.1)">
    <defs>
     <path id="DejaVuSans-55" d="M 556 4666 
L 1191 4666 
L 1191 1831 
Q 1191 1081 1462 751 
Q 1734 422 2344 422 
Q 2950 422 3222 751 
Q 3494 1081 3494 1831 
L 3494 4666 
L 4128 4666 
L 4128 1753 
Q 4128 841 3676 375 
Q 3225 -91 2344 -91 
Q 1459 -91 1007 375 
Q 556 841 556 1753 
L 556 4666 
z
" transform="scale(0.015625)"/>
     <path id="DejaVuSans-75" d="M 544 1381 
L 544 3500 
L 1119 3500 
L 1119 1403 
Q 1119 906 1312 657 
Q 1506 409 1894 409 
Q 2359 409 2629 706 
Q 2900 1003 2900 1516 
L 2900 3500 
L 3475 3500 
L 3475 0 
L 2900 0 
L 2900 538 
Q 2691 219 2414 64 
Q 2138 -91 1772 -91 
Q 1169 -91 856 284 
Q 544 659 544 1381 
z
M 1991 3584 
L 1991 3584 
z
" transform="scale(0.015625)"/>
     <path id="DejaVuSans-27" d="M 1147 4666 
L 1147 2931 
L 616 2931 
L 616 4666 
L 1147 4666 
z
" transform="scale(0.015625)"/>
     <path id="DejaVuSans-71" d="M 947 1747 
Q 947 1113 1208 752 
Q 1469 391 1925 391 
Q 2381 391 2643 752 
Q 2906 1113 2906 1747 
Q 2906 2381 2643 2742 
Q 2381 3103 1925 3103 
Q 1469 3103 1208 2742 
Q 947 2381 947 1747 
z
M 2906 525 
Q 2725 213 2448 61 
Q 2172 -91 1784 -91 
Q 1150 -91 751 415 
Q 353 922 353 1747 
Q 353 2572 751 3078 
Q 1150 3584 1784 3584 
Q 2172 3584 2448 3432 
Q 2725 3281 2906 2969 
L 2906 3500 
L 3481 3500 
L 3481 -1331 
L 2906 -1331 
L 2906 525 
z
" transform="scale(0.015625)"/>
     <path id="DejaVuSans-62" d="M 3116 1747 
Q 3116 2381 2855 2742 
Q 2594 3103 2138 3103 
Q 1681 3103 1420 2742 
Q 1159 2381 1159 1747 
Q 1159 1113 1420 752 
Q 1681 391 2138 391 
Q 2594 391 2855 752 
Q 3116 1113 3116 1747 
z
M 1159 2969 
Q 1341 3281 1617 3432 
Q 1894 3584 2278 3584 
Q 2916 3584 3314 3078 
Q 3713 2572 3713 1747 
Q 3713 922 3314 415 
Q 2916 -91 2278 -91 
Q 1894 -91 1617 61 
Q 1341 213 1159 525 
L 1159 0 
L 581 0 
L 581 4863 
L 1159 4863 
L 1159 2969 
z
" transform="scale(0.015625)"/>
     <path id="DejaVuSans-2e" d="M 684 794 
L 1344 794 
L 1344 0 
L 684 0 
L 684 794 
z
" transform="scale(0.015625)"/>
    </defs>
    <use xlink:href="#DejaVuSans-55"/>
    <use xlink:href="#DejaVuSans-6e" transform="translate(73.193359 0)"/>
    <use xlink:href="#DejaVuSans-6f" transform="translate(136.572266 0)"/>
    <use xlink:href="#DejaVuSans-20" transform="translate(197.753906 0)"/>
    <use xlink:href="#DejaVuSans-73" transform="translate(229.541016 0)"/>
    <use xlink:href="#DejaVuSans-70" transform="translate(281.640625 0)"/>
    <use xlink:href="#DejaVuSans-6f" transform="translate(345.117188 0)"/>
    <use xlink:href="#DejaVuSans-73" transform="translate(406.298828 0)"/>
    <use xlink:href="#DejaVuSans-74" transform="translate(458.398438 0)"/>
    <use xlink:href="#DejaVuSans-61" transform="translate(497.607422 0)"/>
    <use xlink:href="#DejaVuSans-6d" transform="translate(558.886719 0)"/>
    <use xlink:href="#DejaVuSans-65" transform="translate(656.298828 0)"/>
    <use xlink:href="#DejaVuSans-6e" transform="translate(717.822266 0)"/>
    <use xlink:href="#DejaVuSans-74" transform="translate(781.201172 0)"/>
    <use xlink:href="#DejaVuSans-6f" transform="translate(820.410156 0)"/>
    <use xlink:href="#DejaVuSans-20" transform="translate(881.591797 0)"/>
    <use xlink:href="#DejaVuSans-72" transform="translate(913.378906 0)"/>
    <use xlink:href="#DejaVuSans-69" transform="translate(954.492188 0)"/>
    <use xlink:href="#DejaVuSans-67" transform="translate(982.275391 0)"/>
    <use xlink:href="#DejaVuSans-69" transform="translate(1045.751953 0)"/>
    <use xlink:href="#DejaVuSans-64" transform="translate(1073.535156 0)"/>
    <use xlink:href="#DejaVuSans-6f" transform="translate(1137.011719 0)"/>
    <use xlink:href="#DejaVuSans-20" transform="translate(1198.193359 0)"/>
    <use xlink:href="#DejaVuSans-64" transform="translate(1229.980469 0)"/>
    <use xlink:href="#DejaVuSans-65" transform="translate(1293.457031 0)"/>
    <use xlink:href="#DejaVuSans-6c" transform="translate(1354.980469 0)"/>
    <use xlink:href="#DejaVuSans-20" transform="translate(1382.763672 0)"/>
    <use xlink:href="#DejaVuSans-67" transform="translate(1414.550781 0)"/>
    <use xlink:href="#DejaVuSans-61" transform="translate(1478.027344 0)"/>
    <use xlink:href="#DejaVuSans-73" transform="translate(1539.306641 0)"/>
    <use xlink:href="#DejaVuSans-20" transform="translate(1591.40625 0)"/>
    <use xlink:href="#DejaVuSans-65" transform="translate(1623.193359 0)"/>
    <use xlink:href="#DejaVuSans-6c" transform="translate(1684.716797 0)"/>
    <use xlink:href="#DejaVuSans-65" transform="translate(1712.5 0)"/>
    <use xlink:href="#DejaVuSans-74" transform="translate(1774.023438 0)"/>
    <use xlink:href="#DejaVuSans-74" transform="translate(1813.232422 0)"/>
    <use xlink:href="#DejaVuSans-72" transform="translate(1852.441406 0)"/>
    <use xlink:href="#DejaVuSans-6f" transform="translate(1891.304688 0)"/>
    <use xlink:href="#DejaVuSans-6e" transform="translate(1952.486328 0)"/>
    <use xlink:href="#DejaVuSans-69" transform="translate(2015.865234 0)"/>
    <use xlink:href="#DejaVuSans-63" transform="translate(2043.648438 0)"/>
    <use xlink:href="#DejaVuSans-6f" transform="translate(2098.628906 0)"/>
    <use xlink:href="#DejaVuSans-20" transform="translate(2159.810547 0)"/>
    <use xlink:href="#DejaVuSans-72" transform="translate(2191.597656 0)"/>
    <use xlink:href="#DejaVuSans-69" transform="translate(2232.710938 0)"/>
    <use xlink:href="#DejaVuSans-73" transform="translate(2260.494141 0)"/>
    <use xlink:href="#DejaVuSans-70" transform="translate(2312.59375 0)"/>
    <use xlink:href="#DejaVuSans-65" transform="translate(2376.070312 0)"/>
    <use xlink:href="#DejaVuSans-74" transform="translate(2437.59375 0)"/>
    <use xlink:href="#DejaVuSans-74" transform="translate(2476.802734 0)"/>
    <use xlink:href="#DejaVuSans-6f" transform="translate(2516.011719 0)"/>
    <use xlink:href="#DejaVuSans-20" transform="translate(2577.193359 0)"/>
    <use xlink:href="#DejaVuSans-61" transform="translate(2608.980469 0)"/>
    <use xlink:href="#DejaVuSans-67" transform="translate(2670.259766 0)"/>
    <use xlink:href="#DejaVuSans-6c" transform="translate(2733.736328 0)"/>
    <use xlink:href="#DejaVuSans-69" transform="translate(2761.519531 0)"/>
    <use xlink:href="#DejaVuSans-20" transform="translate(2789.302734 0)"/>
    <use xlink:href="#DejaVuSans-69" transform="translate(2821.089844 0)"/>
    <use xlink:href="#DejaVuSans-6f" transform="translate(2848.873047 0)"/>
    <use xlink:href="#DejaVuSans-6e" transform="translate(2910.054688 0)"/>
    <use xlink:href="#DejaVuSans-69" transform="translate(2973.433594 0)"/>
    <use xlink:href="#DejaVuSans-20" transform="translate(3001.216797 0)"/>
    <use xlink:href="#DejaVuSans-63" transform="translate(3033.003906 0)"/>
    <use xlink:href="#DejaVuSans-72" transform="translate(3087.984375 0)"/>
    <use xlink:href="#DejaVuSans-65" transform="translate(3126.847656 0)"/>
    <use xlink:href="#DejaVuSans-61" transform="translate(3188.371094 0)"/>
    <use xlink:href="#DejaVuSans-20" transform="translate(3249.650391 0)"/>
    <use xlink:href="#DejaVuSans-63" transform="translate(3281.4375 0)"/>
    <use xlink:href="#DejaVuSans-61" transform="translate(3336.417969 0)"/>
    <use xlink:href="#DejaVuSans-72" transform="translate(3397.697266 0)"/>
    <use xlink:href="#DejaVuSans-69" transform="translate(3438.810547 0)"/>
    <use xlink:href="#DejaVuSans-63" transform="translate(3466.59375 0)"/>
    <use xlink:href="#DejaVuSans-68" transform="translate(3521.574219 0)"/>
    <use xlink:href="#DejaVuSans-65" transform="translate(3584.953125 0)"/>
    <use xlink:href="#DejaVuSans-20" transform="translate(3646.476562 0)"/>
    <use xlink:href="#DejaVuSans-73" transform="translate(3678.263672 0)"/>
    <use xlink:href="#DejaVuSans-75" transform="translate(3730.363281 0)"/>
    <use xlink:href="#DejaVuSans-70" transform="translate(3793.742188 0)"/>
    <use xlink:href="#DejaVuSans-65" transform="translate(3857.21875 0)"/>
    <use xlink:href="#DejaVuSans-72" transform="translate(3918.742188 0)"/>
    <use xlink:href="#DejaVuSans-66" transform="translate(3959.855469 0)"/>
    <use xlink:href="#DejaVuSans-69" transform="translate(3995.060547 0)"/>
    <use xlink:href="#DejaVuSans-63" transform="translate(4022.84375 0)"/>
    <use xlink:href="#DejaVuSans-69" transform="translate(4077.824219 0)"/>
    <use xlink:href="#DejaVuSans-61" transform="translate(4105.607422 0)"/>
    <use xlink:href="#DejaVuSans-6c" transform="translate(4166.886719 0)"/>
    <use xlink:href="#DejaVuSans-69" transform="translate(4194.669922 0)"/>
    <use xlink:href="#DejaVuSans-20" transform="translate(4222.453125 0)"/>
    <use xlink:href="#DejaVuSans-6f" transform="translate(4254.240234 0)"/>
    <use xlink:href="#DejaVuSans-70" transform="translate(4315.421875 0)"/>
    <use xlink:href="#DejaVuSans-70" transform="translate(4378.898438 0)"/>
    <use xlink:href="#DejaVuSans-6f" transform="translate(4442.375 0)"/>
    <use xlink:href="#DejaVuSans-73" transform="translate(4503.556641 0)"/>
    <use xlink:href="#DejaVuSans-74" transform="translate(4555.65625 0)"/>
    <use xlink:href="#DejaVuSans-65" transform="translate(4594.865234 0)"/>
    <use xlink:href="#DejaVuSans-20" transform="translate(4656.388672 0)"/>
    <use xlink:href="#DejaVuSans-65" transform="translate(4688.175781 0)"/>
    <use xlink:href="#DejaVuSans-20" transform="translate(4749.699219 0)"/>
    <use xlink:href="#DejaVuSans-75" transform="translate(4781.486328 0)"/>
    <use xlink:href="#DejaVuSans-6e" transform="translate(4844.865234 0)"/>
    <use xlink:href="#DejaVuSans-20" transform="translate(4908.244141 0)"/>
    <use xlink:href="#DejaVuSans-63" transform="translate(4940.03125 0)"/>
    <use xlink:href="#DejaVuSans-61" transform="translate(4995.011719 0)"/>
    <use xlink:href="#DejaVuSans-6d" transform="translate(5056.291016 0)"/>
    <use xlink:href="#DejaVuSans-70" transform="translate(5153.703125 0)"/>
    <use xlink:href="#DejaVuSans-6f" transform="translate(5217.179688 0)"/>
    <use xlink:href="#DejaVuSans-20" transform="translate(5278.361328 0)"/>
    <use xlink:href="#DejaVuSans-69" transform="translate(5310.148438 0)"/>
    <use xlink:href="#DejaVuSans-6e" transform="translate(5337.931641 0)"/>
    <use xlink:href="#DejaVuSans-74" transform="translate(5401.310547 0)"/>
    <use xlink:href="#DejaVuSans-65" transform="translate(5440.519531 0)"/>
    <use xlink:href="#DejaVuSans-72" transform="translate(5502.042969 0)"/>
    <use xlink:href="#DejaVuSans-6e" transform="translate(5541.40625 0)"/>
    <use xlink:href="#DejaVuSans-6f" transform="translate(5604.785156 0)"/>
    <use xlink:href="#DejaVuSans-20" transform="translate(5665.966797 0)"/>
    <use xlink:href="#DejaVuSans-63" transform="translate(5697.753906 0)"/>
    <use xlink:href="#DejaVuSans-68" transform="translate(5752.734375 0)"/>
    <use xlink:href="#DejaVuSans-65" transform="translate(5816.113281 0)"/>
    <use xlink:href="#DejaVuSans-20" transform="translate(5877.636719 0)"/>
    <use xlink:href="#DejaVuSans-72" transform="translate(5909.423828 0)"/>
    <use xlink:href="#DejaVuSans-69" transform="translate(5950.537109 0)"/>
    <use xlink:href="#DejaVuSans-63" transform="translate(5978.320312 0)"/>
    <use xlink:href="#DejaVuSans-68" transform="translate(6033.300781 0)"/>
    <use xlink:href="#DejaVuSans-69" transform="translate(6096.679688 0)"/>
    <use xlink:href="#DejaVuSans-61" transform="translate(6124.462891 0)"/>
    <use xlink:href="#DejaVuSans-6d" transform="translate(6185.742188 0)"/>
    <use xlink:href="#DejaVuSans-61" transform="translate(6283.154297 0)"/>
    <use xlink:href="#DejaVuSans-20" transform="translate(6344.433594 0)"/>
    <use xlink:href="#DejaVuSans-67" transform="translate(6376.220703 0)"/>
    <use xlink:href="#DejaVuSans-6c" transform="translate(6439.697266 0)"/>
    <use xlink:href="#DejaVuSans-69" transform="translate(6467.480469 0)"/>
    <use xlink:href="#DejaVuSans-20" transform="translate(6495.263672 0)"/>
    <use xlink:href="#DejaVuSans-65" transform="translate(6527.050781 0)"/>
    <use xlink:href="#DejaVuSans-6c" transform="translate(6588.574219 0)"/>
    <use xlink:href="#DejaVuSans-65" transform="translate(6616.357422 0)"/>
    <use xlink:href="#DejaVuSans-74" transform="translate(6677.880859 0)"/>
    <use xlink:href="#DejaVuSans-74" transform="translate(6717.089844 0)"/>
    <use xlink:href="#DejaVuSans-72" transform="translate(6756.298828 0)"/>
    <use xlink:href="#DejaVuSans-6f" transform="translate(6795.162109 0)"/>
    <use xlink:href="#DejaVuSans-6e" transform="translate(6856.34375 0)"/>
    <use xlink:href="#DejaVuSans-69" transform="translate(6919.722656 0)"/>
    <use xlink:href="#DejaVuSans-20" transform="translate(6947.505859 0)"/>
    <use xlink:href="#DejaVuSans-76" transform="translate(6979.292969 0)"/>
    <use xlink:href="#DejaVuSans-65" transform="translate(7038.472656 0)"/>
    <use xlink:href="#DejaVuSans-72" transform="translate(7099.996094 0)"/>
    <use xlink:href="#DejaVuSans-73" transform="translate(7141.109375 0)"/>
    <use xlink:href="#DejaVuSans-6f" transform="translate(7193.208984 0)"/>
    <use xlink:href="#DejaVuSans-20" transform="translate(7254.390625 0)"/>
    <use xlink:href="#DejaVuSans-6c" transform="translate(7286.177734 0)"/>
    <use xlink:href="#DejaVuSans-27" transform="translate(7313.960938 0)"/>
    <use xlink:href="#DejaVuSans-65" transform="translate(7341.451172 0)"/>
    <use xlink:href="#DejaVuSans-71" transform="translate(7402.974609 0)"/>
    <use xlink:href="#DejaVuSans-75" transform="translate(7466.451172 0)"/>
    <use xlink:href="#DejaVuSans-69" transform="translate(7529.830078 0)"/>
    <use xlink:href="#DejaVuSans-6c" transform="translate(7557.613281 0)"/>
    <use xlink:href="#DejaVuSans-69" transform="translate(7585.396484 0)"/>
    <use xlink:href="#DejaVuSans-62" transform="translate(7613.179688 0)"/>
    <use xlink:href="#DejaVuSans-72" transform="translate(7676.65625 0)"/>
    <use xlink:href="#DejaVuSans-69" transform="translate(7717.769531 0)"/>
    <use xlink:href="#DejaVuSans-6f" transform="translate(7745.552734 0)"/>
    <use xlink:href="#DejaVuSans-2e" transform="translate(7804.984375 0)"/>
   </g>
  </g>
 </g>
 <defs>
  <clipPath id="p175b01c728">
   <rect x="36.142685" y="27.834855" width="725.788068" height="264.482092"/>
  </clipPath>
  <clipPath id="pe39111a726">
   <rect x="36.142685" y="298.317428" width="725.788068" height="264.482093"/>
  </clipPath>
 </defs>
 <defs>
  <pattern id="hb79009490c" patternUnits="userSpaceOnUse" x="0" y="0" width="72" height="72">
   <rect x="0" y="0" width="73" height="73" fill="#1f77b4"/>
   <path d="M -36 36 
L 36 -36 
M -32 40 
L 40 -32 
M -28 44 
L 44 -28 
M -24 48 
L 48 -24 
M -20 52 
L 52 -20 
M -16 56 
L 56 -16 
M -12 60 
L 60 -12 
M -8 64 
L 64 -8 
M -4 68 
L 68 -4 
M 0 72 
L 72 0 
M 4 76 
L 76 4 
M 8 80 
L 80 8 
M 12 84 
L 84 12 
M 16 88 
L 88 16 
M 20 92 
L 92 20 
M 24 96 
L 96 24 
M 28 100 
L 100 28 
M 32 104 
L 104 32 
M 36 108 
L 108 36 
" style="fill: #000000; stroke: #000000; stroke-width: 1.0; stroke-linecap: butt; stroke-linejoin: miter"/>
  </pattern>
  <pattern id="h6870bcc468" patternUnits="userSpaceOnUse" x="0" y="0" width="72" height="72">
   <rect x="0" y="0" width="73" height="73" fill="#1f77b4"/>
   <path d="M -36 36 
L 36 108 
M -30 30 
L 42 102 
M -24 24 
L 48 96 
M -18 18 
L 54 90 
M -12 12 
L 60 84 
M -6 6 
L 66 78 
M 0 0 
L 72 72 
M 6 -6 
L 78 66 
M 12 -12 
L 84 60 
M 18 -18 
L 90 54 
M 24 -24 
L 96 48 
M 30 -30 
L 102 42 
M 36 -36 
L 108 36 
" style="fill: #000000; stroke: #000000; stroke-width: 1.0; stroke-linecap: butt; stroke-linejoin: miter"/>
  </pattern>
 </defs>
</svg>
