<?xml version="1.0" encoding="utf-8" standalone="no"?>
<!DOCTYPE svg PUBLIC "-//W3C//DTD SVG 1.1//EN"
  "http://www.w3.org/Graphics/SVG/1.1/DTD/svg11.dtd">
<svg xmlns:xlink="http://www.w3.org/1999/xlink" width="632.823125pt" height="458.485344pt" viewBox="0 0 632.823125 458.485344" xmlns="http://www.w3.org/2000/svg" version="1.1">
 <metadata>
  <rdf:RDF xmlns:dc="http://purl.org/dc/elements/1.1/" xmlns:cc="http://creativecommons.org/ns#" xmlns:rdf="http://www.w3.org/1999/02/22-rdf-syntax-ns#">
   <cc:Work>
    <dc:type rdf:resource="http://purl.org/dc/dcmitype/StillImage"/>
    <dc:date>2026-06-16T12:24:01.793934</dc:date>
    <dc:format>image/svg+xml</dc:format>
    <dc:creator>
     <cc:Agent>
      <dc:title>Matplotlib v3.10.8, https://matplotlib.org/</dc:title>
     </cc:Agent>
    </dc:creator>
   </cc:Work>
  </rdf:RDF>
 </metadata>
 <defs>
  <style type="text/css">*{stroke-linejoin: round; stroke-linecap: butt}</style>
 </defs>
 <g id="figure_1">
  <g id="patch_1">
   <path d="M 0 458.485344 
L 632.823125 458.485344 
L 632.823125 0 
L 0 0 
z
" style="fill: #ffffff"/>
  </g>
  <g id="axes_1">
   <g id="patch_2">
    <path d="M 45.303125 407.589656 
L 625.623125 407.589656 
L 625.623125 30.597656 
L 45.303125 30.597656 
z
" style="fill: #ffffff"/>
   </g>
   <g id="matplotlib.axis_1">
    <g id="xtick_1">
     <g id="line2d_1">
      <path d="M 57.424692 407.589656 
L 57.424692 30.597656 
" clip-path="url(#p7f09f31393)" style="fill: none; stroke: #b0b0b0; stroke-opacity: 0.16; stroke-width: 0.8; stroke-linecap: square"/>
     </g>
     <g id="line2d_2">
      <defs>
       <path id="m4b523327e8" d="M 0 0 
L 0 3.5 
" style="stroke: #000000; stroke-width: 0.8"/>
      </defs>
      <g>
       <use xlink:href="#m4b523327e8" x="57.424692" y="407.589656" style="stroke: #000000; stroke-width: 0.8"/>
      </g>
     </g>
     <g id="text_1">
      <!-- 0 -->
      <g transform="translate(54.243442 422.188094) scale(0.1 -0.1)">
       <defs>
        <path id="DejaVuSans-30" d="M 2034 4250 
Q 1547 4250 1301 3770 
Q 1056 3291 1056 2328 
Q 1056 1369 1301 889 
Q 1547 409 2034 409 
Q 2525 409 2770 889 
Q 3016 1369 3016 2328 
Q 3016 3291 2770 3770 
Q 2525 4250 2034 4250 
z
M 2034 4750 
Q 2819 4750 3233 4129 
Q 3647 3509 3647 2328 
Q 3647 1150 3233 529 
Q 2819 -91 2034 -91 
Q 1250 -91 836 529 
Q 422 1150 422 2328 
Q 422 3509 836 4129 
Q 1250 4750 2034 4750 
z
" transform="scale(0.015625)"/>
       </defs>
       <use xlink:href="#DejaVuSans-30"/>
      </g>
     </g>
    </g>
    <g id="xtick_2">
     <g id="line2d_3">
      <path d="M 133.184483 407.589656 
L 133.184483 30.597656 
" clip-path="url(#p7f09f31393)" style="fill: none; stroke: #b0b0b0; stroke-opacity: 0.16; stroke-width: 0.8; stroke-linecap: square"/>
     </g>
     <g id="line2d_4">
      <g>
       <use xlink:href="#m4b523327e8" x="133.184483" y="407.589656" style="stroke: #000000; stroke-width: 0.8"/>
      </g>
     </g>
     <g id="text_2">
      <!-- 5 -->
      <g transform="translate(130.003233 422.188094) scale(0.1 -0.1)">
       <defs>
        <path id="DejaVuSans-35" d="M 691 4666 
L 3169 4666 
L 3169 4134 
L 1269 4134 
L 1269 2991 
Q 1406 3038 1543 3061 
Q 1681 3084 1819 3084 
Q 2600 3084 3056 2656 
Q 3513 2228 3513 1497 
Q 3513 744 3044 326 
Q 2575 -91 1722 -91 
Q 1428 -91 1123 -41 
Q 819 9 494 109 
L 494 744 
Q 775 591 1075 516 
Q 1375 441 1709 441 
Q 2250 441 2565 725 
Q 2881 1009 2881 1497 
Q 2881 1984 2565 2268 
Q 2250 2553 1709 2553 
Q 1456 2553 1204 2497 
Q 953 2441 691 2322 
L 691 4666 
z
" transform="scale(0.015625)"/>
       </defs>
       <use xlink:href="#DejaVuSans-35"/>
      </g>
     </g>
    </g>
    <g id="xtick_3">
     <g id="line2d_5">
      <path d="M 208.944274 407.589656 
L 208.944274 30.597656 
" clip-path="url(#p7f09f31393)" style="fill: none; stroke: #b0b0b0; stroke-opacity: 0.16; stroke-width: 0.8; stroke-linecap: square"/>
     </g>
     <g id="line2d_6">
      <g>
       <use xlink:href="#m4b523327e8" x="208.944274" y="407.589656" style="stroke: #000000; stroke-width: 0.8"/>
      </g>
     </g>
     <g id="text_3">
      <!-- 10 -->
      <g transform="translate(202.581774 422.188094) scale(0.1 -0.1)">
       <defs>
        <path id="DejaVuSans-31" d="M 794 531 
L 1825 531 
L 1825 4091 
L 703 3866 
L 703 4441 
L 1819 4666 
L 2450 4666 
L 2450 531 
L 3481 531 
L 3481 0 
L 794 0 
L 794 531 
z
" transform="scale(0.015625)"/>
       </defs>
       <use xlink:href="#DejaVuSans-31"/>
       <use xlink:href="#DejaVuSans-30" transform="translate(63.623047 0)"/>
      </g>
     </g>
    </g>
    <g id="xtick_4">
     <g id="line2d_7">
      <path d="M 284.704065 407.589656 
L 284.704065 30.597656 
" clip-path="url(#p7f09f31393)" style="fill: none; stroke: #b0b0b0; stroke-opacity: 0.16; stroke-width: 0.8; stroke-linecap: square"/>
     </g>
     <g id="line2d_8">
      <g>
       <use xlink:href="#m4b523327e8" x="284.704065" y="407.589656" style="stroke: #000000; stroke-width: 0.8"/>
      </g>
     </g>
     <g id="text_4">
      <!-- 15 -->
      <g transform="translate(278.341565 422.188094) scale(0.1 -0.1)">
       <use xlink:href="#DejaVuSans-31"/>
       <use xlink:href="#DejaVuSans-35" transform="translate(63.623047 0)"/>
      </g>
     </g>
    </g>
    <g id="xtick_5">
     <g id="line2d_9">
      <path d="M 360.463856 407.589656 
L 360.463856 30.597656 
" clip-path="url(#p7f09f31393)" style="fill: none; stroke: #b0b0b0; stroke-opacity: 0.16; stroke-width: 0.8; stroke-linecap: square"/>
     </g>
     <g id="line2d_10">
      <g>
       <use xlink:href="#m4b523327e8" x="360.463856" y="407.589656" style="stroke: #000000; stroke-width: 0.8"/>
      </g>
     </g>
     <g id="text_5">
      <!-- 20 -->
      <g transform="translate(354.101356 422.188094) scale(0.1 -0.1)">
       <defs>
        <path id="DejaVuSans-32" d="M 1228 531 
L 3431 531 
L 3431 0 
L 469 0 
L 469 531 
Q 828 903 1448 1529 
Q 2069 2156 2228 2338 
Q 2531 2678 2651 2914 
Q 2772 3150 2772 3378 
Q 2772 3750 2511 3984 
Q 2250 4219 1831 4219 
Q 1534 4219 1204 4116 
Q 875 4013 500 3803 
L 500 4441 
Q 881 4594 1212 4672 
Q 1544 4750 1819 4750 
Q 2544 4750 2975 4387 
Q 3406 4025 3406 3419 
Q 3406 3131 3298 2873 
Q 3191 2616 2906 2266 
Q 2828 2175 2409 1742 
Q 1991 1309 1228 531 
z
" transform="scale(0.015625)"/>
       </defs>
       <use xlink:href="#DejaVuSans-32"/>
       <use xlink:href="#DejaVuSans-30" transform="translate(63.623047 0)"/>
      </g>
     </g>
    </g>
    <g id="xtick_6">
     <g id="line2d_11">
      <path d="M 436.223647 407.589656 
L 436.223647 30.597656 
" clip-path="url(#p7f09f31393)" style="fill: none; stroke: #b0b0b0; stroke-opacity: 0.16; stroke-width: 0.8; stroke-linecap: square"/>
     </g>
     <g id="line2d_12">
      <g>
       <use xlink:href="#m4b523327e8" x="436.223647" y="407.589656" style="stroke: #000000; stroke-width: 0.8"/>
      </g>
     </g>
     <g id="text_6">
      <!-- 25 -->
      <g transform="translate(429.861147 422.188094) scale(0.1 -0.1)">
       <use xlink:href="#DejaVuSans-32"/>
       <use xlink:href="#DejaVuSans-35" transform="translate(63.623047 0)"/>
      </g>
     </g>
    </g>
    <g id="xtick_7">
     <g id="line2d_13">
      <path d="M 511.983438 407.589656 
L 511.983438 30.597656 
" clip-path="url(#p7f09f31393)" style="fill: none; stroke: #b0b0b0; stroke-opacity: 0.16; stroke-width: 0.8; stroke-linecap: square"/>
     </g>
     <g id="line2d_14">
      <g>
       <use xlink:href="#m4b523327e8" x="511.983438" y="407.589656" style="stroke: #000000; stroke-width: 0.8"/>
      </g>
     </g>
     <g id="text_7">
      <!-- 30 -->
      <g transform="translate(505.620938 422.188094) scale(0.1 -0.1)">
       <defs>
        <path id="DejaVuSans-33" d="M 2597 2516 
Q 3050 2419 3304 2112 
Q 3559 1806 3559 1356 
Q 3559 666 3084 287 
Q 2609 -91 1734 -91 
Q 1441 -91 1130 -33 
Q 819 25 488 141 
L 488 750 
Q 750 597 1062 519 
Q 1375 441 1716 441 
Q 2309 441 2620 675 
Q 2931 909 2931 1356 
Q 2931 1769 2642 2001 
Q 2353 2234 1838 2234 
L 1294 2234 
L 1294 2753 
L 1863 2753 
Q 2328 2753 2575 2939 
Q 2822 3125 2822 3475 
Q 2822 3834 2567 4026 
Q 2313 4219 1838 4219 
Q 1578 4219 1281 4162 
Q 984 4106 628 3988 
L 628 4550 
Q 988 4650 1302 4700 
Q 1616 4750 1894 4750 
Q 2613 4750 3031 4423 
Q 3450 4097 3450 3541 
Q 3450 3153 3228 2886 
Q 3006 2619 2597 2516 
z
" transform="scale(0.015625)"/>
       </defs>
       <use xlink:href="#DejaVuSans-33"/>
       <use xlink:href="#DejaVuSans-30" transform="translate(63.623047 0)"/>
      </g>
     </g>
    </g>
    <g id="xtick_8">
     <g id="line2d_15">
      <path d="M 587.743229 407.589656 
L 587.743229 30.597656 
" clip-path="url(#p7f09f31393)" style="fill: none; stroke: #b0b0b0; stroke-opacity: 0.16; stroke-width: 0.8; stroke-linecap: square"/>
     </g>
     <g id="line2d_16">
      <g>
       <use xlink:href="#m4b523327e8" x="587.743229" y="407.589656" style="stroke: #000000; stroke-width: 0.8"/>
      </g>
     </g>
     <g id="text_8">
      <!-- 35 -->
      <g transform="translate(581.380729 422.188094) scale(0.1 -0.1)">
       <use xlink:href="#DejaVuSans-33"/>
       <use xlink:href="#DejaVuSans-35" transform="translate(63.623047 0)"/>
      </g>
     </g>
    </g>
    <g id="text_9">
     <!-- $T^2$ (K$^2$) -->
     <g transform="translate(318.513125 436.688094) scale(0.1 -0.1)">
      <defs>
       <path id="DejaVuSans-Oblique-54" d="M 378 4666 
L 4325 4666 
L 4225 4134 
L 2559 4134 
L 1759 0 
L 1125 0 
L 1925 4134 
L 275 4134 
L 378 4666 
z
" transform="scale(0.015625)"/>
       <path id="DejaVuSans-20" transform="scale(0.015625)"/>
       <path id="DejaVuSans-28" d="M 1984 4856 
Q 1566 4138 1362 3434 
Q 1159 2731 1159 2009 
Q 1159 1288 1364 580 
Q 1569 -128 1984 -844 
L 1484 -844 
Q 1016 -109 783 600 
Q 550 1309 550 2009 
Q 550 2706 781 3412 
Q 1013 4119 1484 4856 
L 1984 4856 
z
" transform="scale(0.015625)"/>
       <path id="DejaVuSans-4b" d="M 628 4666 
L 1259 4666 
L 1259 2694 
L 3353 4666 
L 4166 4666 
L 1850 2491 
L 4331 0 
L 3500 0 
L 1259 2247 
L 1259 0 
L 628 0 
L 628 4666 
z
" transform="scale(0.015625)"/>
       <path id="DejaVuSans-29" d="M 513 4856 
L 1013 4856 
Q 1481 4119 1714 3412 
Q 1947 2706 1947 2009 
Q 1947 1309 1714 600 
Q 1481 -109 1013 -844 
L 513 -844 
Q 928 -128 1133 580 
Q 1338 1288 1338 2009 
Q 1338 2731 1133 3434 
Q 928 4138 513 4856 
z
" transform="scale(0.015625)"/>
      </defs>
      <use xlink:href="#DejaVuSans-Oblique-54" transform="translate(0 0.765625)"/>
      <use xlink:href="#DejaVuSans-32" transform="translate(68.100755 39.046875) scale(0.7)"/>
      <use xlink:href="#DejaVuSans-20" transform="translate(115.371263 0.765625)"/>
      <use xlink:href="#DejaVuSans-28" transform="translate(147.158372 0.765625)"/>
      <use xlink:href="#DejaVuSans-4b" transform="translate(186.172044 0.765625)"/>
      <use xlink:href="#DejaVuSans-32" transform="translate(252.705247 39.046875) scale(0.7)"/>
      <use xlink:href="#DejaVuSans-29" transform="translate(299.975755 0.765625)"/>
     </g>
    </g>
   </g>
   <g id="matplotlib.axis_2">
    <g id="ytick_1">
     <g id="line2d_17">
      <path d="M 45.303125 402.877256 
L 625.623125 402.877256 
" clip-path="url(#p7f09f31393)" style="fill: none; stroke: #b0b0b0; stroke-opacity: 0.16; stroke-width: 0.8; stroke-linecap: square"/>
     </g>
     <g id="line2d_18">
      <defs>
       <path id="mb363a617fd" d="M 0 0 
L -3.5 0 
" style="stroke: #000000; stroke-width: 0.8"/>
      </defs>
      <g>
       <use xlink:href="#mb363a617fd" x="45.303125" y="402.877256" style="stroke: #000000; stroke-width: 0.8"/>
      </g>
     </g>
     <g id="text_10">
      <!-- 0.5 -->
      <g transform="translate(22.4 406.676475) scale(0.1 -0.1)">
       <defs>
        <path id="DejaVuSans-2e" d="M 684 794 
L 1344 794 
L 1344 0 
L 684 0 
L 684 794 
z
" transform="scale(0.015625)"/>
       </defs>
       <use xlink:href="#DejaVuSans-30"/>
       <use xlink:href="#DejaVuSans-2e" transform="translate(63.623047 0)"/>
       <use xlink:href="#DejaVuSans-35" transform="translate(95.410156 0)"/>
      </g>
     </g>
    </g>
    <g id="ytick_2">
     <g id="line2d_19">
      <path d="M 45.303125 355.753256 
L 625.623125 355.753256 
" clip-path="url(#p7f09f31393)" style="fill: none; stroke: #b0b0b0; stroke-opacity: 0.16; stroke-width: 0.8; stroke-linecap: square"/>
     </g>
     <g id="line2d_20">
      <g>
       <use xlink:href="#mb363a617fd" x="45.303125" y="355.753256" style="stroke: #000000; stroke-width: 0.8"/>
      </g>
     </g>
     <g id="text_11">
      <!-- 1.0 -->
      <g transform="translate(22.4 359.552475) scale(0.1 -0.1)">
       <use xlink:href="#DejaVuSans-31"/>
       <use xlink:href="#DejaVuSans-2e" transform="translate(63.623047 0)"/>
       <use xlink:href="#DejaVuSans-30" transform="translate(95.410156 0)"/>
      </g>
     </g>
    </g>
    <g id="ytick_3">
     <g id="line2d_21">
      <path d="M 45.303125 308.629256 
L 625.623125 308.629256 
" clip-path="url(#p7f09f31393)" style="fill: none; stroke: #b0b0b0; stroke-opacity: 0.16; stroke-width: 0.8; stroke-linecap: square"/>
     </g>
     <g id="line2d_22">
      <g>
       <use xlink:href="#mb363a617fd" x="45.303125" y="308.629256" style="stroke: #000000; stroke-width: 0.8"/>
      </g>
     </g>
     <g id="text_12">
      <!-- 1.5 -->
      <g transform="translate(22.4 312.428475) scale(0.1 -0.1)">
       <use xlink:href="#DejaVuSans-31"/>
       <use xlink:href="#DejaVuSans-2e" transform="translate(63.623047 0)"/>
       <use xlink:href="#DejaVuSans-35" transform="translate(95.410156 0)"/>
      </g>
     </g>
    </g>
    <g id="ytick_4">
     <g id="line2d_23">
      <path d="M 45.303125 261.505256 
L 625.623125 261.505256 
" clip-path="url(#p7f09f31393)" style="fill: none; stroke: #b0b0b0; stroke-opacity: 0.16; stroke-width: 0.8; stroke-linecap: square"/>
     </g>
     <g id="line2d_24">
      <g>
       <use xlink:href="#mb363a617fd" x="45.303125" y="261.505256" style="stroke: #000000; stroke-width: 0.8"/>
      </g>
     </g>
     <g id="text_13">
      <!-- 2.0 -->
      <g transform="translate(22.4 265.304475) scale(0.1 -0.1)">
       <use xlink:href="#DejaVuSans-32"/>
       <use xlink:href="#DejaVuSans-2e" transform="translate(63.623047 0)"/>
       <use xlink:href="#DejaVuSans-30" transform="translate(95.410156 0)"/>
      </g>
     </g>
    </g>
    <g id="ytick_5">
     <g id="line2d_25">
      <path d="M 45.303125 214.381256 
L 625.623125 214.381256 
" clip-path="url(#p7f09f31393)" style="fill: none; stroke: #b0b0b0; stroke-opacity: 0.16; stroke-width: 0.8; stroke-linecap: square"/>
     </g>
     <g id="line2d_26">
      <g>
       <use xlink:href="#mb363a617fd" x="45.303125" y="214.381256" style="stroke: #000000; stroke-width: 0.8"/>
      </g>
     </g>
     <g id="text_14">
      <!-- 2.5 -->
      <g transform="translate(22.4 218.180475) scale(0.1 -0.1)">
       <use xlink:href="#DejaVuSans-32"/>
       <use xlink:href="#DejaVuSans-2e" transform="translate(63.623047 0)"/>
       <use xlink:href="#DejaVuSans-35" transform="translate(95.410156 0)"/>
      </g>
     </g>
    </g>
    <g id="ytick_6">
     <g id="line2d_27">
      <path d="M 45.303125 167.257256 
L 625.623125 167.257256 
" clip-path="url(#p7f09f31393)" style="fill: none; stroke: #b0b0b0; stroke-opacity: 0.16; stroke-width: 0.8; stroke-linecap: square"/>
     </g>
     <g id="line2d_28">
      <g>
       <use xlink:href="#mb363a617fd" x="45.303125" y="167.257256" style="stroke: #000000; stroke-width: 0.8"/>
      </g>
     </g>
     <g id="text_15">
      <!-- 3.0 -->
      <g transform="translate(22.4 171.056475) scale(0.1 -0.1)">
       <use xlink:href="#DejaVuSans-33"/>
       <use xlink:href="#DejaVuSans-2e" transform="translate(63.623047 0)"/>
       <use xlink:href="#DejaVuSans-30" transform="translate(95.410156 0)"/>
      </g>
     </g>
    </g>
    <g id="ytick_7">
     <g id="line2d_29">
      <path d="M 45.303125 120.133256 
L 625.623125 120.133256 
" clip-path="url(#p7f09f31393)" style="fill: none; stroke: #b0b0b0; stroke-opacity: 0.16; stroke-width: 0.8; stroke-linecap: square"/>
     </g>
     <g id="line2d_30">
      <g>
       <use xlink:href="#mb363a617fd" x="45.303125" y="120.133256" style="stroke: #000000; stroke-width: 0.8"/>
      </g>
     </g>
     <g id="text_16">
      <!-- 3.5 -->
      <g transform="translate(22.4 123.932475) scale(0.1 -0.1)">
       <use xlink:href="#DejaVuSans-33"/>
       <use xlink:href="#DejaVuSans-2e" transform="translate(63.623047 0)"/>
       <use xlink:href="#DejaVuSans-35" transform="translate(95.410156 0)"/>
      </g>
     </g>
    </g>
    <g id="ytick_8">
     <g id="line2d_31">
      <path d="M 45.303125 73.009256 
L 625.623125 73.009256 
" clip-path="url(#p7f09f31393)" style="fill: none; stroke: #b0b0b0; stroke-opacity: 0.16; stroke-width: 0.8; stroke-linecap: square"/>
     </g>
     <g id="line2d_32">
      <g>
       <use xlink:href="#mb363a617fd" x="45.303125" y="73.009256" style="stroke: #000000; stroke-width: 0.8"/>
      </g>
     </g>
     <g id="text_17">
      <!-- 4.0 -->
      <g transform="translate(22.4 76.808475) scale(0.1 -0.1)">
       <defs>
        <path id="DejaVuSans-34" d="M 2419 4116 
L 825 1625 
L 2419 1625 
L 2419 4116 
z
M 2253 4666 
L 3047 4666 
L 3047 1625 
L 3713 1625 
L 3713 1100 
L 3047 1100 
L 3047 0 
L 2419 0 
L 2419 1100 
L 313 1100 
L 313 1709 
L 2253 4666 
z
" transform="scale(0.015625)"/>
       </defs>
       <use xlink:href="#DejaVuSans-34"/>
       <use xlink:href="#DejaVuSans-2e" transform="translate(63.623047 0)"/>
       <use xlink:href="#DejaVuSans-30" transform="translate(95.410156 0)"/>
      </g>
     </g>
    </g>
    <g id="text_18">
     <!-- $c_V/T$ (mJ mol$^{-1}$ K$^{-2}$) -->
     <g transform="translate(16.3 267.443656) rotate(-90) scale(0.1 -0.1)">
      <defs>
       <path id="DejaVuSans-Oblique-63" d="M 3431 3366 
L 3316 2797 
Q 3109 2947 2876 3022 
Q 2644 3097 2394 3097 
Q 2119 3097 1870 3000 
Q 1622 2903 1453 2725 
Q 1184 2453 1037 2087 
Q 891 1722 891 1331 
Q 891 859 1127 628 
Q 1363 397 1844 397 
Q 2081 397 2348 469 
Q 2616 541 2906 684 
L 2797 116 
Q 2547 13 2283 -39 
Q 2019 -91 1741 -91 
Q 1044 -91 669 257 
Q 294 606 294 1253 
Q 294 1797 489 2255 
Q 684 2713 1069 3078 
Q 1331 3328 1684 3456 
Q 2038 3584 2456 3584 
Q 2700 3584 2940 3529 
Q 3181 3475 3431 3366 
z
" transform="scale(0.015625)"/>
       <path id="DejaVuSans-Oblique-56" d="M 1319 0 
L 500 4666 
L 1119 4666 
L 1797 653 
L 4063 4666 
L 4750 4666 
L 2053 0 
L 1319 0 
z
" transform="scale(0.015625)"/>
       <path id="DejaVuSans-2f" d="M 1625 4666 
L 2156 4666 
L 531 -594 
L 0 -594 
L 1625 4666 
z
" transform="scale(0.015625)"/>
       <path id="DejaVuSans-6d" d="M 3328 2828 
Q 3544 3216 3844 3400 
Q 4144 3584 4550 3584 
Q 5097 3584 5394 3201 
Q 5691 2819 5691 2113 
L 5691 0 
L 5113 0 
L 5113 2094 
Q 5113 2597 4934 2840 
Q 4756 3084 4391 3084 
Q 3944 3084 3684 2787 
Q 3425 2491 3425 1978 
L 3425 0 
L 2847 0 
L 2847 2094 
Q 2847 2600 2669 2842 
Q 2491 3084 2119 3084 
Q 1678 3084 1418 2786 
Q 1159 2488 1159 1978 
L 1159 0 
L 581 0 
L 581 3500 
L 1159 3500 
L 1159 2956 
Q 1356 3278 1631 3431 
Q 1906 3584 2284 3584 
Q 2666 3584 2933 3390 
Q 3200 3197 3328 2828 
z
" transform="scale(0.015625)"/>
       <path id="DejaVuSans-4a" d="M 628 4666 
L 1259 4666 
L 1259 325 
Q 1259 -519 939 -900 
Q 619 -1281 -91 -1281 
L -331 -1281 
L -331 -750 
L -134 -750 
Q 284 -750 456 -515 
Q 628 -281 628 325 
L 628 4666 
z
" transform="scale(0.015625)"/>
       <path id="DejaVuSans-6f" d="M 1959 3097 
Q 1497 3097 1228 2736 
Q 959 2375 959 1747 
Q 959 1119 1226 758 
Q 1494 397 1959 397 
Q 2419 397 2687 759 
Q 2956 1122 2956 1747 
Q 2956 2369 2687 2733 
Q 2419 3097 1959 3097 
z
M 1959 3584 
Q 2709 3584 3137 3096 
Q 3566 2609 3566 1747 
Q 3566 888 3137 398 
Q 2709 -91 1959 -91 
Q 1206 -91 779 398 
Q 353 888 353 1747 
Q 353 2609 779 3096 
Q 1206 3584 1959 3584 
z
" transform="scale(0.015625)"/>
       <path id="DejaVuSans-6c" d="M 603 4863 
L 1178 4863 
L 1178 0 
L 603 0 
L 603 4863 
z
" transform="scale(0.015625)"/>
       <path id="DejaVuSans-2212" d="M 678 2272 
L 4684 2272 
L 4684 1741 
L 678 1741 
L 678 2272 
z
" transform="scale(0.015625)"/>
      </defs>
      <use xlink:href="#DejaVuSans-Oblique-63" transform="translate(0 0.765625)"/>
      <use xlink:href="#DejaVuSans-Oblique-56" transform="translate(54.980469 -15.640625) scale(0.7)"/>
      <use xlink:href="#DejaVuSans-2f" transform="translate(105.600586 0.765625)"/>
      <use xlink:href="#DejaVuSans-Oblique-54" transform="translate(139.291992 0.765625)"/>
      <use xlink:href="#DejaVuSans-20" transform="translate(200.375977 0.765625)"/>
      <use xlink:href="#DejaVuSans-28" transform="translate(232.163086 0.765625)"/>
      <use xlink:href="#DejaVuSans-6d" transform="translate(271.176758 0.765625)"/>
      <use xlink:href="#DejaVuSans-4a" transform="translate(368.588867 0.765625)"/>
      <use xlink:href="#DejaVuSans-20" transform="translate(398.081055 0.765625)"/>
      <use xlink:href="#DejaVuSans-6d" transform="translate(429.868164 0.765625)"/>
      <use xlink:href="#DejaVuSans-6f" transform="translate(527.280273 0.765625)"/>
      <use xlink:href="#DejaVuSans-6c" transform="translate(588.461914 0.765625)"/>
      <use xlink:href="#DejaVuSans-2212" transform="translate(617.202148 39.046875) scale(0.7)"/>
      <use xlink:href="#DejaVuSans-31" transform="translate(675.854492 39.046875) scale(0.7)"/>
      <use xlink:href="#DejaVuSans-20" transform="translate(723.125 0.765625)"/>
      <use xlink:href="#DejaVuSans-4b" transform="translate(754.912109 0.765625)"/>
      <use xlink:href="#DejaVuSans-2212" transform="translate(821.445312 39.046875) scale(0.7)"/>
      <use xlink:href="#DejaVuSans-32" transform="translate(880.097656 39.046875) scale(0.7)"/>
      <use xlink:href="#DejaVuSans-29" transform="translate(927.368164 0.765625)"/>
     </g>
    </g>
   </g>
   <g id="line2d_33">
    <path d="M 57.424692 384.027656 
L 83.399477 368.517128 
L 109.374263 353.0066 
L 135.349048 337.496072 
L 161.323834 321.985544 
L 187.298619 306.475016 
L 213.273405 290.964488 
L 239.24819 275.45396 
L 265.222976 259.943432 
L 291.197761 244.432904 
L 317.172547 228.922376 
L 343.147332 213.411848 
L 369.122118 197.90132 
L 395.096903 182.390792 
L 421.071689 166.880264 
L 447.046474 151.369736 
L 473.02126 135.859208 
L 498.996046 120.34868 
L 524.970831 104.838152 
L 550.945617 89.327624 
L 576.920402 73.817096 
L 602.895188 58.306568 
" clip-path="url(#p7f09f31393)" style="fill: none; stroke-dasharray: 8.88,3.84; stroke-dashoffset: 0; stroke: #1f77b4; stroke-width: 2.4"/>
   </g>
   <g id="patch_3">
    <path d="M 45.303125 407.589656 
L 45.303125 30.597656 
" style="fill: none; stroke: #000000; stroke-width: 0.8; stroke-linejoin: miter; stroke-linecap: square"/>
   </g>
   <g id="patch_4">
    <path d="M 625.623125 407.589656 
L 625.623125 30.597656 
" style="fill: none; stroke: #000000; stroke-width: 0.8; stroke-linejoin: miter; stroke-linecap: square"/>
   </g>
   <g id="patch_5">
    <path d="M 45.303125 407.589656 
L 625.623125 407.589656 
" style="fill: none; stroke: #000000; stroke-width: 0.8; stroke-linejoin: miter; stroke-linecap: square"/>
   </g>
   <g id="patch_6">
    <path d="M 45.303125 30.597656 
L 625.623125 30.597656 
" style="fill: none; stroke: #000000; stroke-width: 0.8; stroke-linejoin: miter; stroke-linecap: square"/>
   </g>
   <g id="patch_7">
    <path d="M 129.56427 331.449797 
Q 94.303541 357.149055 59.855983 382.255646 
" style="fill: none; stroke: #000000; stroke-width: 0.9; stroke-linecap: round"/>
    <path d="M 64.266518 381.515927 
L 59.855983 382.255646 
L 61.910529 378.283387 
z
" style="fill: #1f77b4; stroke: #000000; stroke-width: 0.9; stroke-linecap: round"/>
   </g>
   <g id="text_19">
    <!-- $\gamma$ -->
    <g transform="translate(133.184483 329.363816) scale(0.1 -0.1)">
     <defs>
      <path id="DejaVuSans-Oblique-3b3" d="M 1491 2950 
L 1838 788 
L 3456 3500 
L 4066 3500 
L 1972 0 
L 1713 -1331 
L 1138 -1331 
L 1397 0 
L 988 2613 
Q 925 3006 628 3006 
L 475 3006 
L 569 3500 
L 788 3500 
Q 1403 3500 1491 2950 
z
" transform="scale(0.015625)"/>
     </defs>
     <use xlink:href="#DejaVuSans-Oblique-3b3" transform="translate(0 0.3125)"/>
    </g>
   </g>
   <g id="patch_8">
    <path d="M 355.037938 54.761139 
Q 409.988292 96.643465 464.138366 137.91583 
" style="fill: none; stroke: #000000; stroke-width: 0.9; stroke-linecap: round"/>
    <path d="M 462.169437 133.900445 
L 464.138366 137.91583 
L 459.744701 137.081742 
z
" style="fill: #1f77b4; stroke: #000000; stroke-width: 0.9; stroke-linecap: round"/>
   </g>
   <g id="text_20">
    <!-- pendenza $\alpha$ -->
    <g transform="translate(315.007981 49.447256) scale(0.1 -0.1)">
     <defs>
      <path id="DejaVuSans-70" d="M 1159 525 
L 1159 -1331 
L 581 -1331 
L 581 3500 
L 1159 3500 
L 1159 2969 
Q 1341 3281 1617 3432 
Q 1894 3584 2278 3584 
Q 2916 3584 3314 3078 
Q 3713 2572 3713 1747 
Q 3713 922 3314 415 
Q 2916 -91 2278 -91 
Q 1894 -91 1617 61 
Q 1341 213 1159 525 
z
M 3116 1747 
Q 3116 2381 2855 2742 
Q 2594 3103 2138 3103 
Q 1681 3103 1420 2742 
Q 1159 2381 1159 1747 
Q 1159 1113 1420 752 
Q 1681 391 2138 391 
Q 2594 391 2855 752 
Q 3116 1113 3116 1747 
z
" transform="scale(0.015625)"/>
      <path id="DejaVuSans-65" d="M 3597 1894 
L 3597 1613 
L 953 1613 
Q 991 1019 1311 708 
Q 1631 397 2203 397 
Q 2534 397 2845 478 
Q 3156 559 3463 722 
L 3463 178 
Q 3153 47 2828 -22 
Q 2503 -91 2169 -91 
Q 1331 -91 842 396 
Q 353 884 353 1716 
Q 353 2575 817 3079 
Q 1281 3584 2069 3584 
Q 2775 3584 3186 3129 
Q 3597 2675 3597 1894 
z
M 3022 2063 
Q 3016 2534 2758 2815 
Q 2500 3097 2075 3097 
Q 1594 3097 1305 2825 
Q 1016 2553 972 2059 
L 3022 2063 
z
" transform="scale(0.015625)"/>
      <path id="DejaVuSans-6e" d="M 3513 2113 
L 3513 0 
L 2938 0 
L 2938 2094 
Q 2938 2591 2744 2837 
Q 2550 3084 2163 3084 
Q 1697 3084 1428 2787 
Q 1159 2491 1159 1978 
L 1159 0 
L 581 0 
L 581 3500 
L 1159 3500 
L 1159 2956 
Q 1366 3272 1645 3428 
Q 1925 3584 2291 3584 
Q 2894 3584 3203 3211 
Q 3513 2838 3513 2113 
z
" transform="scale(0.015625)"/>
      <path id="DejaVuSans-64" d="M 2906 2969 
L 2906 4863 
L 3481 4863 
L 3481 0 
L 2906 0 
L 2906 525 
Q 2725 213 2448 61 
Q 2172 -91 1784 -91 
Q 1150 -91 751 415 
Q 353 922 353 1747 
Q 353 2572 751 3078 
Q 1150 3584 1784 3584 
Q 2172 3584 2448 3432 
Q 2725 3281 2906 2969 
z
M 947 1747 
Q 947 1113 1208 752 
Q 1469 391 1925 391 
Q 2381 391 2643 752 
Q 2906 1113 2906 1747 
Q 2906 2381 2643 2742 
Q 2381 3103 1925 3103 
Q 1469 3103 1208 2742 
Q 947 2381 947 1747 
z
" transform="scale(0.015625)"/>
      <path id="DejaVuSans-7a" d="M 353 3500 
L 3084 3500 
L 3084 2975 
L 922 459 
L 3084 459 
L 3084 0 
L 275 0 
L 275 525 
L 2438 3041 
L 353 3041 
L 353 3500 
z
" transform="scale(0.015625)"/>
      <path id="DejaVuSans-61" d="M 2194 1759 
Q 1497 1759 1228 1600 
Q 959 1441 959 1056 
Q 959 750 1161 570 
Q 1363 391 1709 391 
Q 2188 391 2477 730 
Q 2766 1069 2766 1631 
L 2766 1759 
L 2194 1759 
z
M 3341 1997 
L 3341 0 
L 2766 0 
L 2766 531 
Q 2569 213 2275 61 
Q 1981 -91 1556 -91 
Q 1019 -91 701 211 
Q 384 513 384 1019 
Q 384 1609 779 1909 
Q 1175 2209 1959 2209 
L 2766 2209 
L 2766 2266 
Q 2766 2663 2505 2880 
Q 2244 3097 1772 3097 
Q 1472 3097 1187 3025 
Q 903 2953 641 2809 
L 641 3341 
Q 956 3463 1253 3523 
Q 1550 3584 1831 3584 
Q 2591 3584 2966 3190 
Q 3341 2797 3341 1997 
z
" transform="scale(0.015625)"/>
      <path id="DejaVuSans-Oblique-3b1" d="M 2619 1628 
L 2622 2350 
Q 2625 3088 2069 3091 
Q 1653 3094 1394 2747 
Q 1069 2319 959 1747 
Q 825 1059 994 731 
Q 1169 397 1547 397 
Q 1966 397 2319 1063 
L 2619 1628 
z
M 2166 3578 
Q 3141 3594 3128 2584 
Q 3128 2584 3616 3500 
L 4128 3500 
L 3119 1603 
L 3109 919 
Q 3109 766 3194 638 
Q 3291 488 3391 488 
L 3669 488 
L 3575 0 
L 3228 0 
Q 2934 0 2722 263 
Q 2622 394 2619 669 
Q 2416 334 2066 50 
Q 1900 -81 1453 -78 
Q 722 -72 456 397 
Q 184 884 353 1747 
Q 534 2675 1009 3097 
Q 1544 3569 2166 3578 
z
" transform="scale(0.015625)"/>
     </defs>
     <use xlink:href="#DejaVuSans-70" transform="translate(0 0.015625)"/>
     <use xlink:href="#DejaVuSans-65" transform="translate(63.476562 0.015625)"/>
     <use xlink:href="#DejaVuSans-6e" transform="translate(125 0.015625)"/>
     <use xlink:href="#DejaVuSans-64" transform="translate(188.378906 0.015625)"/>
     <use xlink:href="#DejaVuSans-65" transform="translate(251.855469 0.015625)"/>
     <use xlink:href="#DejaVuSans-6e" transform="translate(313.378906 0.015625)"/>
     <use xlink:href="#DejaVuSans-7a" transform="translate(376.757812 0.015625)"/>
     <use xlink:href="#DejaVuSans-61" transform="translate(429.248047 0.015625)"/>
     <use xlink:href="#DejaVuSans-20" transform="translate(490.527344 0.015625)"/>
     <use xlink:href="#DejaVuSans-Oblique-3b1" transform="translate(522.314453 0.015625)"/>
    </g>
   </g>
   <g id="text_21">
    <!-- Calore specifico molare del rame a bassa temperatura -->
    <g transform="translate(105.802578 18.597656) scale(0.15 -0.15)">
     <defs>
      <path id="DejaVuSans-Bold-43" d="M 4288 256 
Q 3956 84 3597 -3 
Q 3238 -91 2847 -91 
Q 1681 -91 1000 561 
Q 319 1213 319 2328 
Q 319 3447 1000 4098 
Q 1681 4750 2847 4750 
Q 3238 4750 3597 4662 
Q 3956 4575 4288 4403 
L 4288 3438 
Q 3953 3666 3628 3772 
Q 3303 3878 2944 3878 
Q 2300 3878 1931 3465 
Q 1563 3053 1563 2328 
Q 1563 1606 1931 1193 
Q 2300 781 2944 781 
Q 3303 781 3628 887 
Q 3953 994 4288 1222 
L 4288 256 
z
" transform="scale(0.015625)"/>
      <path id="DejaVuSans-Bold-61" d="M 2106 1575 
Q 1756 1575 1579 1456 
Q 1403 1338 1403 1106 
Q 1403 894 1545 773 
Q 1688 653 1941 653 
Q 2256 653 2472 879 
Q 2688 1106 2688 1447 
L 2688 1575 
L 2106 1575 
z
M 3816 1997 
L 3816 0 
L 2688 0 
L 2688 519 
Q 2463 200 2181 54 
Q 1900 -91 1497 -91 
Q 953 -91 614 226 
Q 275 544 275 1050 
Q 275 1666 698 1953 
Q 1122 2241 2028 2241 
L 2688 2241 
L 2688 2328 
Q 2688 2594 2478 2717 
Q 2269 2841 1825 2841 
Q 1466 2841 1156 2769 
Q 847 2697 581 2553 
L 581 3406 
Q 941 3494 1303 3539 
Q 1666 3584 2028 3584 
Q 2975 3584 3395 3211 
Q 3816 2838 3816 1997 
z
" transform="scale(0.015625)"/>
      <path id="DejaVuSans-Bold-6c" d="M 538 4863 
L 1656 4863 
L 1656 0 
L 538 0 
L 538 4863 
z
" transform="scale(0.015625)"/>
      <path id="DejaVuSans-Bold-6f" d="M 2203 2784 
Q 1831 2784 1636 2517 
Q 1441 2250 1441 1747 
Q 1441 1244 1636 976 
Q 1831 709 2203 709 
Q 2569 709 2762 976 
Q 2956 1244 2956 1747 
Q 2956 2250 2762 2517 
Q 2569 2784 2203 2784 
z
M 2203 3584 
Q 3106 3584 3614 3096 
Q 4122 2609 4122 1747 
Q 4122 884 3614 396 
Q 3106 -91 2203 -91 
Q 1297 -91 786 396 
Q 275 884 275 1747 
Q 275 2609 786 3096 
Q 1297 3584 2203 3584 
z
" transform="scale(0.015625)"/>
      <path id="DejaVuSans-Bold-72" d="M 3138 2547 
Q 2991 2616 2845 2648 
Q 2700 2681 2553 2681 
Q 2122 2681 1889 2404 
Q 1656 2128 1656 1613 
L 1656 0 
L 538 0 
L 538 3500 
L 1656 3500 
L 1656 2925 
Q 1872 3269 2151 3426 
Q 2431 3584 2822 3584 
Q 2878 3584 2943 3579 
Q 3009 3575 3134 3559 
L 3138 2547 
z
" transform="scale(0.015625)"/>
      <path id="DejaVuSans-Bold-65" d="M 4031 1759 
L 4031 1441 
L 1416 1441 
Q 1456 1047 1700 850 
Q 1944 653 2381 653 
Q 2734 653 3104 758 
Q 3475 863 3866 1075 
L 3866 213 
Q 3469 63 3072 -14 
Q 2675 -91 2278 -91 
Q 1328 -91 801 392 
Q 275 875 275 1747 
Q 275 2603 792 3093 
Q 1309 3584 2216 3584 
Q 3041 3584 3536 3087 
Q 4031 2591 4031 1759 
z
M 2881 2131 
Q 2881 2450 2695 2645 
Q 2509 2841 2209 2841 
Q 1884 2841 1681 2658 
Q 1478 2475 1428 2131 
L 2881 2131 
z
" transform="scale(0.015625)"/>
      <path id="DejaVuSans-Bold-20" transform="scale(0.015625)"/>
      <path id="DejaVuSans-Bold-73" d="M 3272 3391 
L 3272 2541 
Q 2913 2691 2578 2766 
Q 2244 2841 1947 2841 
Q 1628 2841 1473 2761 
Q 1319 2681 1319 2516 
Q 1319 2381 1436 2309 
Q 1553 2238 1856 2203 
L 2053 2175 
Q 2913 2066 3209 1816 
Q 3506 1566 3506 1031 
Q 3506 472 3093 190 
Q 2681 -91 1863 -91 
Q 1516 -91 1145 -36 
Q 775 19 384 128 
L 384 978 
Q 719 816 1070 734 
Q 1422 653 1784 653 
Q 2113 653 2278 743 
Q 2444 834 2444 1013 
Q 2444 1163 2330 1236 
Q 2216 1309 1875 1350 
L 1678 1375 
Q 931 1469 631 1722 
Q 331 1975 331 2491 
Q 331 3047 712 3315 
Q 1094 3584 1881 3584 
Q 2191 3584 2531 3537 
Q 2872 3491 3272 3391 
z
" transform="scale(0.015625)"/>
      <path id="DejaVuSans-Bold-70" d="M 1656 506 
L 1656 -1331 
L 538 -1331 
L 538 3500 
L 1656 3500 
L 1656 2988 
Q 1888 3294 2169 3439 
Q 2450 3584 2816 3584 
Q 3463 3584 3878 3070 
Q 4294 2556 4294 1747 
Q 4294 938 3878 423 
Q 3463 -91 2816 -91 
Q 2450 -91 2169 54 
Q 1888 200 1656 506 
z
M 2400 2772 
Q 2041 2772 1848 2508 
Q 1656 2244 1656 1747 
Q 1656 1250 1848 986 
Q 2041 722 2400 722 
Q 2759 722 2948 984 
Q 3138 1247 3138 1747 
Q 3138 2247 2948 2509 
Q 2759 2772 2400 2772 
z
" transform="scale(0.015625)"/>
      <path id="DejaVuSans-Bold-63" d="M 3366 3391 
L 3366 2478 
Q 3138 2634 2908 2709 
Q 2678 2784 2431 2784 
Q 1963 2784 1702 2511 
Q 1441 2238 1441 1747 
Q 1441 1256 1702 982 
Q 1963 709 2431 709 
Q 2694 709 2930 787 
Q 3166 866 3366 1019 
L 3366 103 
Q 3103 6 2833 -42 
Q 2563 -91 2291 -91 
Q 1344 -91 809 395 
Q 275 881 275 1747 
Q 275 2613 809 3098 
Q 1344 3584 2291 3584 
Q 2566 3584 2833 3536 
Q 3100 3488 3366 3391 
z
" transform="scale(0.015625)"/>
      <path id="DejaVuSans-Bold-69" d="M 538 3500 
L 1656 3500 
L 1656 0 
L 538 0 
L 538 3500 
z
M 538 4863 
L 1656 4863 
L 1656 3950 
L 538 3950 
L 538 4863 
z
" transform="scale(0.015625)"/>
      <path id="DejaVuSans-Bold-66" d="M 2841 4863 
L 2841 4128 
L 2222 4128 
Q 1984 4128 1890 4042 
Q 1797 3956 1797 3744 
L 1797 3500 
L 2753 3500 
L 2753 2700 
L 1797 2700 
L 1797 0 
L 678 0 
L 678 2700 
L 122 2700 
L 122 3500 
L 678 3500 
L 678 3744 
Q 678 4316 997 4589 
Q 1316 4863 1984 4863 
L 2841 4863 
z
" transform="scale(0.015625)"/>
      <path id="DejaVuSans-Bold-6d" d="M 3781 2919 
Q 3994 3244 4286 3414 
Q 4578 3584 4928 3584 
Q 5531 3584 5847 3212 
Q 6163 2841 6163 2131 
L 6163 0 
L 5038 0 
L 5038 1825 
Q 5041 1866 5042 1909 
Q 5044 1953 5044 2034 
Q 5044 2406 4934 2573 
Q 4825 2741 4581 2741 
Q 4263 2741 4089 2478 
Q 3916 2216 3909 1719 
L 3909 0 
L 2784 0 
L 2784 1825 
Q 2784 2406 2684 2573 
Q 2584 2741 2328 2741 
Q 2006 2741 1831 2477 
Q 1656 2213 1656 1722 
L 1656 0 
L 531 0 
L 531 3500 
L 1656 3500 
L 1656 2988 
Q 1863 3284 2130 3434 
Q 2397 3584 2719 3584 
Q 3081 3584 3359 3409 
Q 3638 3234 3781 2919 
z
" transform="scale(0.015625)"/>
      <path id="DejaVuSans-Bold-64" d="M 2919 2988 
L 2919 4863 
L 4044 4863 
L 4044 0 
L 2919 0 
L 2919 506 
Q 2688 197 2409 53 
Q 2131 -91 1766 -91 
Q 1119 -91 703 423 
Q 288 938 288 1747 
Q 288 2556 703 3070 
Q 1119 3584 1766 3584 
Q 2128 3584 2408 3439 
Q 2688 3294 2919 2988 
z
M 2181 722 
Q 2541 722 2730 984 
Q 2919 1247 2919 1747 
Q 2919 2247 2730 2509 
Q 2541 2772 2181 2772 
Q 1825 2772 1636 2509 
Q 1447 2247 1447 1747 
Q 1447 1247 1636 984 
Q 1825 722 2181 722 
z
" transform="scale(0.015625)"/>
      <path id="DejaVuSans-Bold-62" d="M 2400 722 
Q 2759 722 2948 984 
Q 3138 1247 3138 1747 
Q 3138 2247 2948 2509 
Q 2759 2772 2400 2772 
Q 2041 2772 1848 2508 
Q 1656 2244 1656 1747 
Q 1656 1250 1848 986 
Q 2041 722 2400 722 
z
M 1656 2988 
Q 1888 3294 2169 3439 
Q 2450 3584 2816 3584 
Q 3463 3584 3878 3070 
Q 4294 2556 4294 1747 
Q 4294 938 3878 423 
Q 3463 -91 2816 -91 
Q 2450 -91 2169 54 
Q 1888 200 1656 506 
L 1656 0 
L 538 0 
L 538 4863 
L 1656 4863 
L 1656 2988 
z
" transform="scale(0.015625)"/>
      <path id="DejaVuSans-Bold-74" d="M 1759 4494 
L 1759 3500 
L 2913 3500 
L 2913 2700 
L 1759 2700 
L 1759 1216 
Q 1759 972 1856 886 
Q 1953 800 2241 800 
L 2816 800 
L 2816 0 
L 1856 0 
Q 1194 0 917 276 
Q 641 553 641 1216 
L 641 2700 
L 84 2700 
L 84 3500 
L 641 3500 
L 641 4494 
L 1759 4494 
z
" transform="scale(0.015625)"/>
      <path id="DejaVuSans-Bold-75" d="M 500 1363 
L 500 3500 
L 1625 3500 
L 1625 3150 
Q 1625 2866 1622 2436 
Q 1619 2006 1619 1863 
Q 1619 1441 1641 1255 
Q 1663 1069 1716 984 
Q 1784 875 1895 815 
Q 2006 756 2150 756 
Q 2500 756 2700 1025 
Q 2900 1294 2900 1772 
L 2900 3500 
L 4019 3500 
L 4019 0 
L 2900 0 
L 2900 506 
Q 2647 200 2364 54 
Q 2081 -91 1741 -91 
Q 1134 -91 817 281 
Q 500 653 500 1363 
z
" transform="scale(0.015625)"/>
     </defs>
     <use xlink:href="#DejaVuSans-Bold-43"/>
     <use xlink:href="#DejaVuSans-Bold-61" transform="translate(73.388672 0)"/>
     <use xlink:href="#DejaVuSans-Bold-6c" transform="translate(140.869141 0)"/>
     <use xlink:href="#DejaVuSans-Bold-6f" transform="translate(175.146484 0)"/>
     <use xlink:href="#DejaVuSans-Bold-72" transform="translate(243.847656 0)"/>
     <use xlink:href="#DejaVuSans-Bold-65" transform="translate(293.164062 0)"/>
     <use xlink:href="#DejaVuSans-Bold-20" transform="translate(360.986328 0)"/>
     <use xlink:href="#DejaVuSans-Bold-73" transform="translate(395.800781 0)"/>
     <use xlink:href="#DejaVuSans-Bold-70" transform="translate(455.322266 0)"/>
     <use xlink:href="#DejaVuSans-Bold-65" transform="translate(526.904297 0)"/>
     <use xlink:href="#DejaVuSans-Bold-63" transform="translate(594.726562 0)"/>
     <use xlink:href="#DejaVuSans-Bold-69" transform="translate(654.003906 0)"/>
     <use xlink:href="#DejaVuSans-Bold-66" transform="translate(688.28125 0)"/>
     <use xlink:href="#DejaVuSans-Bold-69" transform="translate(731.787109 0)"/>
     <use xlink:href="#DejaVuSans-Bold-63" transform="translate(766.064453 0)"/>
     <use xlink:href="#DejaVuSans-Bold-6f" transform="translate(825.341797 0)"/>
     <use xlink:href="#DejaVuSans-Bold-20" transform="translate(894.042969 0)"/>
     <use xlink:href="#DejaVuSans-Bold-6d" transform="translate(928.857422 0)"/>
     <use xlink:href="#DejaVuSans-Bold-6f" transform="translate(1033.056641 0)"/>
     <use xlink:href="#DejaVuSans-Bold-6c" transform="translate(1101.757812 0)"/>
     <use xlink:href="#DejaVuSans-Bold-61" transform="translate(1136.035156 0)"/>
     <use xlink:href="#DejaVuSans-Bold-72" transform="translate(1203.515625 0)"/>
     <use xlink:href="#DejaVuSans-Bold-65" transform="translate(1252.832031 0)"/>
     <use xlink:href="#DejaVuSans-Bold-20" transform="translate(1320.654297 0)"/>
     <use xlink:href="#DejaVuSans-Bold-64" transform="translate(1355.46875 0)"/>
     <use xlink:href="#DejaVuSans-Bold-65" transform="translate(1427.050781 0)"/>
     <use xlink:href="#DejaVuSans-Bold-6c" transform="translate(1494.873047 0)"/>
     <use xlink:href="#DejaVuSans-Bold-20" transform="translate(1529.150391 0)"/>
     <use xlink:href="#DejaVuSans-Bold-72" transform="translate(1563.964844 0)"/>
     <use xlink:href="#DejaVuSans-Bold-61" transform="translate(1613.28125 0)"/>
     <use xlink:href="#DejaVuSans-Bold-6d" transform="translate(1680.761719 0)"/>
     <use xlink:href="#DejaVuSans-Bold-65" transform="translate(1784.960938 0)"/>
     <use xlink:href="#DejaVuSans-Bold-20" transform="translate(1852.783203 0)"/>
     <use xlink:href="#DejaVuSans-Bold-61" transform="translate(1887.597656 0)"/>
     <use xlink:href="#DejaVuSans-Bold-20" transform="translate(1955.078125 0)"/>
     <use xlink:href="#DejaVuSans-Bold-62" transform="translate(1989.892578 0)"/>
     <use xlink:href="#DejaVuSans-Bold-61" transform="translate(2061.474609 0)"/>
     <use xlink:href="#DejaVuSans-Bold-73" transform="translate(2128.955078 0)"/>
     <use xlink:href="#DejaVuSans-Bold-73" transform="translate(2188.476562 0)"/>
     <use xlink:href="#DejaVuSans-Bold-61" transform="translate(2247.998047 0)"/>
     <use xlink:href="#DejaVuSans-Bold-20" transform="translate(2315.478516 0)"/>
     <use xlink:href="#DejaVuSans-Bold-74" transform="translate(2350.292969 0)"/>
     <use xlink:href="#DejaVuSans-Bold-65" transform="translate(2398.095703 0)"/>
     <use xlink:href="#DejaVuSans-Bold-6d" transform="translate(2465.917969 0)"/>
     <use xlink:href="#DejaVuSans-Bold-70" transform="translate(2570.117188 0)"/>
     <use xlink:href="#DejaVuSans-Bold-65" transform="translate(2641.699219 0)"/>
     <use xlink:href="#DejaVuSans-Bold-72" transform="translate(2709.521484 0)"/>
     <use xlink:href="#DejaVuSans-Bold-61" transform="translate(2758.837891 0)"/>
     <use xlink:href="#DejaVuSans-Bold-74" transform="translate(2826.318359 0)"/>
     <use xlink:href="#DejaVuSans-Bold-75" transform="translate(2874.121094 0)"/>
     <use xlink:href="#DejaVuSans-Bold-72" transform="translate(2945.3125 0)"/>
     <use xlink:href="#DejaVuSans-Bold-61" transform="translate(2994.628906 0)"/>
    </g>
   </g>
   <g id="PathCollection_1">
    <defs>
     <path id="m4b0ac5c540" d="M 0 2.915476 
C 0.773193 2.915476 1.514823 2.608283 2.061553 2.061553 
C 2.608283 1.514823 2.915476 0.773193 2.915476 0 
C 2.915476 -0.773193 2.608283 -1.514823 2.061553 -2.061553 
C 1.514823 -2.608283 0.773193 -2.915476 0 -2.915476 
C -0.773193 -2.915476 -1.514823 -2.608283 -2.061553 -2.061553 
C -2.608283 -1.514823 -2.915476 -0.773193 -2.915476 0 
C -2.915476 0.773193 -2.608283 1.514823 -2.061553 2.061553 
C -1.514823 2.608283 -0.773193 2.915476 0 2.915476 
z
" style="stroke: #1f77b4"/>
    </defs>
    <g clip-path="url(#p7f09f31393)">
     <use xlink:href="#m4b0ac5c540" x="57.424692" y="384.48551" style="fill: #1f77b4; stroke: #1f77b4"/>
     <use xlink:href="#m4b0ac5c540" x="83.399477" y="370.337138" style="fill: #1f77b4; stroke: #1f77b4"/>
     <use xlink:href="#m4b0ac5c540" x="109.374263" y="352.135068" style="fill: #1f77b4; stroke: #1f77b4"/>
     <use xlink:href="#m4b0ac5c540" x="135.349048" y="336.32102" style="fill: #1f77b4; stroke: #1f77b4"/>
     <use xlink:href="#m4b0ac5c540" x="161.323834" y="321.868083" style="fill: #1f77b4; stroke: #1f77b4"/>
     <use xlink:href="#m4b0ac5c540" x="187.298619" y="310.580488" style="fill: #1f77b4; stroke: #1f77b4"/>
     <use xlink:href="#m4b0ac5c540" x="213.273405" y="290.834662" style="fill: #1f77b4; stroke: #1f77b4"/>
     <use xlink:href="#m4b0ac5c540" x="239.24819" y="270.201787" style="fill: #1f77b4; stroke: #1f77b4"/>
     <use xlink:href="#m4b0ac5c540" x="265.222976" y="257.306283" style="fill: #1f77b4; stroke: #1f77b4"/>
     <use xlink:href="#m4b0ac5c540" x="291.197761" y="241.521086" style="fill: #1f77b4; stroke: #1f77b4"/>
     <use xlink:href="#m4b0ac5c540" x="317.172547" y="228.569845" style="fill: #1f77b4; stroke: #1f77b4"/>
     <use xlink:href="#m4b0ac5c540" x="343.147332" y="220.847268" style="fill: #1f77b4; stroke: #1f77b4"/>
     <use xlink:href="#m4b0ac5c540" x="369.122118" y="196.412048" style="fill: #1f77b4; stroke: #1f77b4"/>
     <use xlink:href="#m4b0ac5c540" x="395.096903" y="183.826217" style="fill: #1f77b4; stroke: #1f77b4"/>
     <use xlink:href="#m4b0ac5c540" x="421.071689" y="159.390346" style="fill: #1f77b4; stroke: #1f77b4"/>
     <use xlink:href="#m4b0ac5c540" x="447.046474" y="143.761652" style="fill: #1f77b4; stroke: #1f77b4"/>
     <use xlink:href="#m4b0ac5c540" x="473.02126" y="140.851097" style="fill: #1f77b4; stroke: #1f77b4"/>
     <use xlink:href="#m4b0ac5c540" x="498.996046" y="121.41642" style="fill: #1f77b4; stroke: #1f77b4"/>
     <use xlink:href="#m4b0ac5c540" x="524.970831" y="103.950209" style="fill: #1f77b4; stroke: #1f77b4"/>
     <use xlink:href="#m4b0ac5c540" x="550.945617" y="82.806252" style="fill: #1f77b4; stroke: #1f77b4"/>
     <use xlink:href="#m4b0ac5c540" x="576.920402" y="84.574942" style="fill: #1f77b4; stroke: #1f77b4"/>
     <use xlink:href="#m4b0ac5c540" x="602.895188" y="48.930558" style="fill: #1f77b4; stroke: #1f77b4"/>
    </g>
   </g>
   <g id="PathCollection_2">
    <defs>
     <path id="m775a8b03df" d="M 0 3.24037 
C 0.859356 3.24037 1.683631 2.898944 2.291288 2.291288 
C 2.898944 1.683631 3.24037 0.859356 3.24037 0 
C 3.24037 -0.859356 2.898944 -1.683631 2.291288 -2.291288 
C 1.683631 -2.898944 0.859356 -3.24037 0 -3.24037 
C -0.859356 -3.24037 -1.683631 -2.898944 -2.291288 -2.291288 
C -2.898944 -1.683631 -3.24037 -0.859356 -3.24037 0 
C -3.24037 0.859356 -2.898944 1.683631 -2.291288 2.291288 
C -1.683631 2.898944 -0.859356 3.24037 0 3.24037 
z
" style="stroke: #ff7f0e"/>
    </defs>
    <g clip-path="url(#p7f09f31393)">
     <use xlink:href="#m775a8b03df" x="57.424692" y="384.027656" style="fill: #ff7f0e; stroke: #ff7f0e"/>
    </g>
   </g>
   <g id="legend_1">
    <g id="PathCollection_3">
     <g>
      <use xlink:href="#m4b0ac5c540" x="64.303125" y="44.571094" style="fill: #1f77b4; stroke: #1f77b4"/>
     </g>
    </g>
    <g id="text_22">
     <!-- dati sintetici -->
     <g transform="translate(82.303125 47.196094) scale(0.1 -0.1)">
      <defs>
       <path id="DejaVuSans-74" d="M 1172 4494 
L 1172 3500 
L 2356 3500 
L 2356 3053 
L 1172 3053 
L 1172 1153 
Q 1172 725 1289 603 
Q 1406 481 1766 481 
L 2356 481 
L 2356 0 
L 1766 0 
Q 1100 0 847 248 
Q 594 497 594 1153 
L 594 3053 
L 172 3053 
L 172 3500 
L 594 3500 
L 594 4494 
L 1172 4494 
z
" transform="scale(0.015625)"/>
       <path id="DejaVuSans-69" d="M 603 3500 
L 1178 3500 
L 1178 0 
L 603 0 
L 603 3500 
z
M 603 4863 
L 1178 4863 
L 1178 4134 
L 603 4134 
L 603 4863 
z
" transform="scale(0.015625)"/>
       <path id="DejaVuSans-73" d="M 2834 3397 
L 2834 2853 
Q 2591 2978 2328 3040 
Q 2066 3103 1784 3103 
Q 1356 3103 1142 2972 
Q 928 2841 928 2578 
Q 928 2378 1081 2264 
Q 1234 2150 1697 2047 
L 1894 2003 
Q 2506 1872 2764 1633 
Q 3022 1394 3022 966 
Q 3022 478 2636 193 
Q 2250 -91 1575 -91 
Q 1294 -91 989 -36 
Q 684 19 347 128 
L 347 722 
Q 666 556 975 473 
Q 1284 391 1588 391 
Q 1994 391 2212 530 
Q 2431 669 2431 922 
Q 2431 1156 2273 1281 
Q 2116 1406 1581 1522 
L 1381 1569 
Q 847 1681 609 1914 
Q 372 2147 372 2553 
Q 372 3047 722 3315 
Q 1072 3584 1716 3584 
Q 2034 3584 2315 3537 
Q 2597 3491 2834 3397 
z
" transform="scale(0.015625)"/>
       <path id="DejaVuSans-63" d="M 3122 3366 
L 3122 2828 
Q 2878 2963 2633 3030 
Q 2388 3097 2138 3097 
Q 1578 3097 1268 2742 
Q 959 2388 959 1747 
Q 959 1106 1268 751 
Q 1578 397 2138 397 
Q 2388 397 2633 464 
Q 2878 531 3122 666 
L 3122 134 
Q 2881 22 2623 -34 
Q 2366 -91 2075 -91 
Q 1284 -91 818 406 
Q 353 903 353 1747 
Q 353 2603 823 3093 
Q 1294 3584 2113 3584 
Q 2378 3584 2631 3529 
Q 2884 3475 3122 3366 
z
" transform="scale(0.015625)"/>
      </defs>
      <use xlink:href="#DejaVuSans-64"/>
      <use xlink:href="#DejaVuSans-61" transform="translate(63.476562 0)"/>
      <use xlink:href="#DejaVuSans-74" transform="translate(124.755859 0)"/>
      <use xlink:href="#DejaVuSans-69" transform="translate(163.964844 0)"/>
      <use xlink:href="#DejaVuSans-20" transform="translate(191.748047 0)"/>
      <use xlink:href="#DejaVuSans-73" transform="translate(223.535156 0)"/>
      <use xlink:href="#DejaVuSans-69" transform="translate(275.634766 0)"/>
      <use xlink:href="#DejaVuSans-6e" transform="translate(303.417969 0)"/>
      <use xlink:href="#DejaVuSans-74" transform="translate(366.796875 0)"/>
      <use xlink:href="#DejaVuSans-65" transform="translate(406.005859 0)"/>
      <use xlink:href="#DejaVuSans-74" transform="translate(467.529297 0)"/>
      <use xlink:href="#DejaVuSans-69" transform="translate(506.738281 0)"/>
      <use xlink:href="#DejaVuSans-63" transform="translate(534.521484 0)"/>
      <use xlink:href="#DejaVuSans-69" transform="translate(589.501953 0)"/>
     </g>
    </g>
    <g id="line2d_34">
     <path d="M 54.303125 59.875781 
L 64.303125 59.875781 
L 74.303125 59.875781 
" style="fill: none; stroke-dasharray: 8.88,3.84; stroke-dashoffset: 0; stroke: #1f77b4; stroke-width: 2.4"/>
    </g>
    <g id="text_23">
     <!-- $c_V/T=\gamma+\alpha T^2$ -->
     <g transform="translate(82.303125 63.375781) scale(0.1 -0.1)">
      <defs>
       <path id="DejaVuSans-3d" d="M 678 2906 
L 4684 2906 
L 4684 2381 
L 678 2381 
L 678 2906 
z
M 678 1631 
L 4684 1631 
L 4684 1100 
L 678 1100 
L 678 1631 
z
" transform="scale(0.015625)"/>
       <path id="DejaVuSans-2b" d="M 2944 4013 
L 2944 2272 
L 4684 2272 
L 4684 1741 
L 2944 1741 
L 2944 0 
L 2419 0 
L 2419 1741 
L 678 1741 
L 678 2272 
L 2419 2272 
L 2419 4013 
L 2944 4013 
z
" transform="scale(0.015625)"/>
      </defs>
      <use xlink:href="#DejaVuSans-Oblique-63" transform="translate(0 0.765625)"/>
      <use xlink:href="#DejaVuSans-Oblique-56" transform="translate(54.980469 -15.640625) scale(0.7)"/>
      <use xlink:href="#DejaVuSans-2f" transform="translate(105.600586 0.765625)"/>
      <use xlink:href="#DejaVuSans-Oblique-54" transform="translate(139.291992 0.765625)"/>
      <use xlink:href="#DejaVuSans-3d" transform="translate(219.858398 0.765625)"/>
      <use xlink:href="#DejaVuSans-Oblique-3b3" transform="translate(323.129883 0.765625)"/>
      <use xlink:href="#DejaVuSans-2b" transform="translate(401.791992 0.765625)"/>
      <use xlink:href="#DejaVuSans-Oblique-3b1" transform="translate(505.063477 0.765625)"/>
      <use xlink:href="#DejaVuSans-Oblique-54" transform="translate(570.981445 0.765625)"/>
      <use xlink:href="#DejaVuSans-32" transform="translate(639.082201 39.046875) scale(0.7)"/>
     </g>
    </g>
   </g>
  </g>
  <g id="text_24">
   <!-- L'intercetta fornisce il contributo elettronico γ, mentre la pendenza α è legata al contributo fononico cubico. -->
   <g transform="translate(55.501563 449.205656) scale(0.1 -0.1)">
    <defs>
     <path id="DejaVuSans-4c" d="M 628 4666 
L 1259 4666 
L 1259 531 
L 3531 531 
L 3531 0 
L 628 0 
L 628 4666 
z
" transform="scale(0.015625)"/>
     <path id="DejaVuSans-27" d="M 1147 4666 
L 1147 2931 
L 616 2931 
L 616 4666 
L 1147 4666 
z
" transform="scale(0.015625)"/>
     <path id="DejaVuSans-72" d="M 2631 2963 
Q 2534 3019 2420 3045 
Q 2306 3072 2169 3072 
Q 1681 3072 1420 2755 
Q 1159 2438 1159 1844 
L 1159 0 
L 581 0 
L 581 3500 
L 1159 3500 
L 1159 2956 
Q 1341 3275 1631 3429 
Q 1922 3584 2338 3584 
Q 2397 3584 2469 3576 
Q 2541 3569 2628 3553 
L 2631 2963 
z
" transform="scale(0.015625)"/>
     <path id="DejaVuSans-66" d="M 2375 4863 
L 2375 4384 
L 1825 4384 
Q 1516 4384 1395 4259 
Q 1275 4134 1275 3809 
L 1275 3500 
L 2222 3500 
L 2222 3053 
L 1275 3053 
L 1275 0 
L 697 0 
L 697 3053 
L 147 3053 
L 147 3500 
L 697 3500 
L 697 3744 
Q 697 4328 969 4595 
Q 1241 4863 1831 4863 
L 2375 4863 
z
" transform="scale(0.015625)"/>
     <path id="DejaVuSans-62" d="M 3116 1747 
Q 3116 2381 2855 2742 
Q 2594 3103 2138 3103 
Q 1681 3103 1420 2742 
Q 1159 2381 1159 1747 
Q 1159 1113 1420 752 
Q 1681 391 2138 391 
Q 2594 391 2855 752 
Q 3116 1113 3116 1747 
z
M 1159 2969 
Q 1341 3281 1617 3432 
Q 1894 3584 2278 3584 
Q 2916 3584 3314 3078 
Q 3713 2572 3713 1747 
Q 3713 922 3314 415 
Q 2916 -91 2278 -91 
Q 1894 -91 1617 61 
Q 1341 213 1159 525 
L 1159 0 
L 581 0 
L 581 4863 
L 1159 4863 
L 1159 2969 
z
" transform="scale(0.015625)"/>
     <path id="DejaVuSans-75" d="M 544 1381 
L 544 3500 
L 1119 3500 
L 1119 1403 
Q 1119 906 1312 657 
Q 1506 409 1894 409 
Q 2359 409 2629 706 
Q 2900 1003 2900 1516 
L 2900 3500 
L 3475 3500 
L 3475 0 
L 2900 0 
L 2900 538 
Q 2691 219 2414 64 
Q 2138 -91 1772 -91 
Q 1169 -91 856 284 
Q 544 659 544 1381 
z
M 1991 3584 
L 1991 3584 
z
" transform="scale(0.015625)"/>
     <path id="DejaVuSans-3b3" d="M 1128 2950 
L 1894 788 
L 2988 3500 
L 3597 3500 
L 2181 0 
L 2181 -1331 
L 1606 -1331 
L 1606 0 
L 688 2613 
Q 550 3006 253 3006 
L 100 3006 
L 100 3500 
L 319 3500 
Q 934 3500 1128 2950 
z
" transform="scale(0.015625)"/>
     <path id="DejaVuSans-2c" d="M 750 794 
L 1409 794 
L 1409 256 
L 897 -744 
L 494 -744 
L 750 256 
L 750 794 
z
" transform="scale(0.015625)"/>
     <path id="DejaVuSans-3b1" d="M 2644 1628 
L 2506 2350 
Q 2366 3091 1809 3091 
Q 1391 3091 1200 2747 
Q 959 2316 959 1747 
Q 959 1059 1194 731 
Q 1431 397 1809 397 
Q 2228 397 2453 1063 
L 2644 1628 
z
M 2966 2584 
L 3275 3500 
L 3788 3500 
L 3147 1603 
L 3272 919 
Q 3300 766 3409 638 
Q 3538 488 3638 488 
L 3913 488 
L 3913 0 
L 3569 0 
Q 3275 0 3013 263 
Q 2884 394 2831 669 
Q 2688 322 2394 50 
Q 2256 -78 1809 -78 
Q 1075 -78 719 397 
Q 353 888 353 1747 
Q 353 2666 750 3097 
Q 1191 3578 1809 3578 
Q 2781 3578 2966 2584 
z
" transform="scale(0.015625)"/>
     <path id="DejaVuSans-e8" d="M 3597 1894 
L 3597 1613 
L 953 1613 
Q 991 1019 1311 708 
Q 1631 397 2203 397 
Q 2534 397 2845 478 
Q 3156 559 3463 722 
L 3463 178 
Q 3153 47 2828 -22 
Q 2503 -91 2169 -91 
Q 1331 -91 842 396 
Q 353 884 353 1716 
Q 353 2575 817 3079 
Q 1281 3584 2069 3584 
Q 2775 3584 3186 3129 
Q 3597 2675 3597 1894 
z
M 3022 2063 
Q 3016 2534 2758 2815 
Q 2500 3097 2075 3097 
Q 1594 3097 1305 2825 
Q 1016 2553 972 2059 
L 3022 2063 
z
M 1579 5119 
L 2460 3950 
L 1982 3950 
L 963 5119 
L 1579 5119 
z
" transform="scale(0.015625)"/>
     <path id="DejaVuSans-67" d="M 2906 1791 
Q 2906 2416 2648 2759 
Q 2391 3103 1925 3103 
Q 1463 3103 1205 2759 
Q 947 2416 947 1791 
Q 947 1169 1205 825 
Q 1463 481 1925 481 
Q 2391 481 2648 825 
Q 2906 1169 2906 1791 
z
M 3481 434 
Q 3481 -459 3084 -895 
Q 2688 -1331 1869 -1331 
Q 1566 -1331 1297 -1286 
Q 1028 -1241 775 -1147 
L 775 -588 
Q 1028 -725 1275 -790 
Q 1522 -856 1778 -856 
Q 2344 -856 2625 -561 
Q 2906 -266 2906 331 
L 2906 616 
Q 2728 306 2450 153 
Q 2172 0 1784 0 
Q 1141 0 747 490 
Q 353 981 353 1791 
Q 353 2603 747 3093 
Q 1141 3584 1784 3584 
Q 2172 3584 2450 3431 
Q 2728 3278 2906 2969 
L 2906 3500 
L 3481 3500 
L 3481 434 
z
" transform="scale(0.015625)"/>
    </defs>
    <use xlink:href="#DejaVuSans-4c"/>
    <use xlink:href="#DejaVuSans-27" transform="translate(55.712891 0)"/>
    <use xlink:href="#DejaVuSans-69" transform="translate(83.203125 0)"/>
    <use xlink:href="#DejaVuSans-6e" transform="translate(110.986328 0)"/>
    <use xlink:href="#DejaVuSans-74" transform="translate(174.365234 0)"/>
    <use xlink:href="#DejaVuSans-65" transform="translate(213.574219 0)"/>
    <use xlink:href="#DejaVuSans-72" transform="translate(275.097656 0)"/>
    <use xlink:href="#DejaVuSans-63" transform="translate(313.960938 0)"/>
    <use xlink:href="#DejaVuSans-65" transform="translate(368.941406 0)"/>
    <use xlink:href="#DejaVuSans-74" transform="translate(430.464844 0)"/>
    <use xlink:href="#DejaVuSans-74" transform="translate(469.673828 0)"/>
    <use xlink:href="#DejaVuSans-61" transform="translate(508.882812 0)"/>
    <use xlink:href="#DejaVuSans-20" transform="translate(570.162109 0)"/>
    <use xlink:href="#DejaVuSans-66" transform="translate(601.949219 0)"/>
    <use xlink:href="#DejaVuSans-6f" transform="translate(637.154297 0)"/>
    <use xlink:href="#DejaVuSans-72" transform="translate(698.335938 0)"/>
    <use xlink:href="#DejaVuSans-6e" transform="translate(737.699219 0)"/>
    <use xlink:href="#DejaVuSans-69" transform="translate(801.078125 0)"/>
    <use xlink:href="#DejaVuSans-73" transform="translate(828.861328 0)"/>
    <use xlink:href="#DejaVuSans-63" transform="translate(880.960938 0)"/>
    <use xlink:href="#DejaVuSans-65" transform="translate(935.941406 0)"/>
    <use xlink:href="#DejaVuSans-20" transform="translate(997.464844 0)"/>
    <use xlink:href="#DejaVuSans-69" transform="translate(1029.251953 0)"/>
    <use xlink:href="#DejaVuSans-6c" transform="translate(1057.035156 0)"/>
    <use xlink:href="#DejaVuSans-20" transform="translate(1084.818359 0)"/>
    <use xlink:href="#DejaVuSans-63" transform="translate(1116.605469 0)"/>
    <use xlink:href="#DejaVuSans-6f" transform="translate(1171.585938 0)"/>
    <use xlink:href="#DejaVuSans-6e" transform="translate(1232.767578 0)"/>
    <use xlink:href="#DejaVuSans-74" transform="translate(1296.146484 0)"/>
    <use xlink:href="#DejaVuSans-72" transform="translate(1335.355469 0)"/>
    <use xlink:href="#DejaVuSans-69" transform="translate(1376.46875 0)"/>
    <use xlink:href="#DejaVuSans-62" transform="translate(1404.251953 0)"/>
    <use xlink:href="#DejaVuSans-75" transform="translate(1467.728516 0)"/>
    <use xlink:href="#DejaVuSans-74" transform="translate(1531.107422 0)"/>
    <use xlink:href="#DejaVuSans-6f" transform="translate(1570.316406 0)"/>
    <use xlink:href="#DejaVuSans-20" transform="translate(1631.498047 0)"/>
    <use xlink:href="#DejaVuSans-65" transform="translate(1663.285156 0)"/>
    <use xlink:href="#DejaVuSans-6c" transform="translate(1724.808594 0)"/>
    <use xlink:href="#DejaVuSans-65" transform="translate(1752.591797 0)"/>
    <use xlink:href="#DejaVuSans-74" transform="translate(1814.115234 0)"/>
    <use xlink:href="#DejaVuSans-74" transform="translate(1853.324219 0)"/>
    <use xlink:href="#DejaVuSans-72" transform="translate(1892.533203 0)"/>
    <use xlink:href="#DejaVuSans-6f" transform="translate(1931.396484 0)"/>
    <use xlink:href="#DejaVuSans-6e" transform="translate(1992.578125 0)"/>
    <use xlink:href="#DejaVuSans-69" transform="translate(2055.957031 0)"/>
    <use xlink:href="#DejaVuSans-63" transform="translate(2083.740234 0)"/>
    <use xlink:href="#DejaVuSans-6f" transform="translate(2138.720703 0)"/>
    <use xlink:href="#DejaVuSans-20" transform="translate(2199.902344 0)"/>
    <use xlink:href="#DejaVuSans-3b3" transform="translate(2231.689453 0)"/>
    <use xlink:href="#DejaVuSans-2c" transform="translate(2290.869141 0)"/>
    <use xlink:href="#DejaVuSans-20" transform="translate(2322.65625 0)"/>
    <use xlink:href="#DejaVuSans-6d" transform="translate(2354.443359 0)"/>
    <use xlink:href="#DejaVuSans-65" transform="translate(2451.855469 0)"/>
    <use xlink:href="#DejaVuSans-6e" transform="translate(2513.378906 0)"/>
    <use xlink:href="#DejaVuSans-74" transform="translate(2576.757812 0)"/>
    <use xlink:href="#DejaVuSans-72" transform="translate(2615.966797 0)"/>
    <use xlink:href="#DejaVuSans-65" transform="translate(2654.830078 0)"/>
    <use xlink:href="#DejaVuSans-20" transform="translate(2716.353516 0)"/>
    <use xlink:href="#DejaVuSans-6c" transform="translate(2748.140625 0)"/>
    <use xlink:href="#DejaVuSans-61" transform="translate(2775.923828 0)"/>
    <use xlink:href="#DejaVuSans-20" transform="translate(2837.203125 0)"/>
    <use xlink:href="#DejaVuSans-70" transform="translate(2868.990234 0)"/>
    <use xlink:href="#DejaVuSans-65" transform="translate(2932.466797 0)"/>
    <use xlink:href="#DejaVuSans-6e" transform="translate(2993.990234 0)"/>
    <use xlink:href="#DejaVuSans-64" transform="translate(3057.369141 0)"/>
    <use xlink:href="#DejaVuSans-65" transform="translate(3120.845703 0)"/>
    <use xlink:href="#DejaVuSans-6e" transform="translate(3182.369141 0)"/>
    <use xlink:href="#DejaVuSans-7a" transform="translate(3245.748047 0)"/>
    <use xlink:href="#DejaVuSans-61" transform="translate(3298.238281 0)"/>
    <use xlink:href="#DejaVuSans-20" transform="translate(3359.517578 0)"/>
    <use xlink:href="#DejaVuSans-3b1" transform="translate(3391.304688 0)"/>
    <use xlink:href="#DejaVuSans-20" transform="translate(3457.222656 0)"/>
    <use xlink:href="#DejaVuSans-e8" transform="translate(3489.009766 0)"/>
    <use xlink:href="#DejaVuSans-20" transform="translate(3550.533203 0)"/>
    <use xlink:href="#DejaVuSans-6c" transform="translate(3582.320312 0)"/>
    <use xlink:href="#DejaVuSans-65" transform="translate(3610.103516 0)"/>
    <use xlink:href="#DejaVuSans-67" transform="translate(3671.626953 0)"/>
    <use xlink:href="#DejaVuSans-61" transform="translate(3735.103516 0)"/>
    <use xlink:href="#DejaVuSans-74" transform="translate(3796.382812 0)"/>
    <use xlink:href="#DejaVuSans-61" transform="translate(3835.591797 0)"/>
    <use xlink:href="#DejaVuSans-20" transform="translate(3896.871094 0)"/>
    <use xlink:href="#DejaVuSans-61" transform="translate(3928.658203 0)"/>
    <use xlink:href="#DejaVuSans-6c" transform="translate(3989.9375 0)"/>
    <use xlink:href="#DejaVuSans-20" transform="translate(4017.720703 0)"/>
    <use xlink:href="#DejaVuSans-63" transform="translate(4049.507812 0)"/>
    <use xlink:href="#DejaVuSans-6f" transform="translate(4104.488281 0)"/>
    <use xlink:href="#DejaVuSans-6e" transform="translate(4165.669922 0)"/>
    <use xlink:href="#DejaVuSans-74" transform="translate(4229.048828 0)"/>
    <use xlink:href="#DejaVuSans-72" transform="translate(4268.257812 0)"/>
    <use xlink:href="#DejaVuSans-69" transform="translate(4309.371094 0)"/>
    <use xlink:href="#DejaVuSans-62" transform="translate(4337.154297 0)"/>
    <use xlink:href="#DejaVuSans-75" transform="translate(4400.630859 0)"/>
    <use xlink:href="#DejaVuSans-74" transform="translate(4464.009766 0)"/>
    <use xlink:href="#DejaVuSans-6f" transform="translate(4503.21875 0)"/>
    <use xlink:href="#DejaVuSans-20" transform="translate(4564.400391 0)"/>
    <use xlink:href="#DejaVuSans-66" transform="translate(4596.1875 0)"/>
    <use xlink:href="#DejaVuSans-6f" transform="translate(4631.392578 0)"/>
    <use xlink:href="#DejaVuSans-6e" transform="translate(4692.574219 0)"/>
    <use xlink:href="#DejaVuSans-6f" transform="translate(4755.953125 0)"/>
    <use xlink:href="#DejaVuSans-6e" transform="translate(4817.134766 0)"/>
    <use xlink:href="#DejaVuSans-69" transform="translate(4880.513672 0)"/>
    <use xlink:href="#DejaVuSans-63" transform="translate(4908.296875 0)"/>
    <use xlink:href="#DejaVuSans-6f" transform="translate(4963.277344 0)"/>
    <use xlink:href="#DejaVuSans-20" transform="translate(5024.458984 0)"/>
    <use xlink:href="#DejaVuSans-63" transform="translate(5056.246094 0)"/>
    <use xlink:href="#DejaVuSans-75" transform="translate(5111.226562 0)"/>
    <use xlink:href="#DejaVuSans-62" transform="translate(5174.605469 0)"/>
    <use xlink:href="#DejaVuSans-69" transform="translate(5238.082031 0)"/>
    <use xlink:href="#DejaVuSans-63" transform="translate(5265.865234 0)"/>
    <use xlink:href="#DejaVuSans-6f" transform="translate(5320.845703 0)"/>
    <use xlink:href="#DejaVuSans-2e" transform="translate(5380.277344 0)"/>
   </g>
  </g>
 </g>
 <defs>
  <clipPath id="p7f09f31393">
   <rect x="45.303125" y="30.597656" width="580.32" height="376.992"/>
  </clipPath>
 </defs>
</svg>
