<?xml version="1.0" encoding="utf-8" standalone="no"?>
<!DOCTYPE svg PUBLIC "-//W3C//DTD SVG 1.1//EN"
  "http://www.w3.org/Graphics/SVG/1.1/DTD/svg11.dtd">
<svg xmlns:xlink="http://www.w3.org/1999/xlink" width="471.96pt" height="348.770769pt" viewBox="0 0 471.96 348.770769" xmlns="http://www.w3.org/2000/svg" version="1.1">
 <metadata>
  <rdf:RDF xmlns:dc="http://purl.org/dc/elements/1.1/" xmlns:cc="http://creativecommons.org/ns#" xmlns:rdf="http://www.w3.org/1999/02/22-rdf-syntax-ns#">
   <cc:Work>
    <dc:type rdf:resource="http://purl.org/dc/dcmitype/StillImage"/>
    <dc:date>2026-06-16T08:00:45.223768</dc:date>
    <dc:format>image/svg+xml</dc:format>
    <dc:creator>
     <cc:Agent>
      <dc:title>Matplotlib v3.10.8, https://matplotlib.org/</dc:title>
     </cc:Agent>
    </dc:creator>
   </cc:Work>
  </rdf:RDF>
 </metadata>
 <defs>
  <style type="text/css">*{stroke-linejoin: round; stroke-linecap: butt}</style>
 </defs>
 <g id="figure_1">
  <g id="patch_1">
   <path d="M 0 348.770769 
L 471.96 348.770769 
L 471.96 0 
L 0 0 
z
" style="fill: #ffffff"/>
  </g>
  <g id="axes_1">
   <g id="patch_2">
    <path d="M 7.2 341.570769 
L 464.76 341.570769 
L 464.76 7.2 
L 7.2 7.2 
z
" style="fill: #ffffff"/>
   </g>
   <g id="patch_3">
    <path d="M 182.124513 72.314308 
Q 196.383427 72.314308 210.642341 72.314308 
" clip-path="url(#p3205f998bc)" style="fill: none; stroke: #000000; stroke-width: 1.2; stroke-linecap: round"/>
    <path d="M 186.524513 74.514308 
L 182.124513 72.314308 
L 186.524513 70.114308 
" clip-path="url(#p3205f998bc)" style="fill: none; stroke: #000000; stroke-width: 1.2; stroke-linecap: round"/>
    <path d="M 206.242341 70.114308 
L 210.642341 72.314308 
L 206.242341 74.514308 
" clip-path="url(#p3205f998bc)" style="fill: none; stroke: #000000; stroke-width: 1.2; stroke-linecap: round"/>
   </g>
   <g id="patch_4">
    <path d="M 111.733889 144.907962 
Q 213.981828 144.907962 316.229768 144.907962 
" clip-path="url(#p3205f998bc)" style="fill: none; stroke: #000000; stroke-width: 1.2; stroke-linecap: round"/>
    <path d="M 116.133889 147.107962 
L 111.733889 144.907962 
L 116.133889 142.707962 
" clip-path="url(#p3205f998bc)" style="fill: none; stroke: #000000; stroke-width: 1.2; stroke-linecap: round"/>
    <path d="M 311.829768 142.707962 
L 316.229768 144.907962 
L 311.829768 147.107962 
" clip-path="url(#p3205f998bc)" style="fill: none; stroke: #000000; stroke-width: 1.2; stroke-linecap: round"/>
   </g>
   <g id="matplotlib.axis_1"/>
   <g id="matplotlib.axis_2"/>
   <g id="line2d_1">
    <path d="M 15.999231 51.196154 
L 455.960769 51.196154 
" clip-path="url(#p3205f998bc)" style="fill: none; stroke-dasharray: 1.1,1.815; stroke-dashoffset: 0; stroke: #8c8c8c; stroke-width: 1.1"/>
   </g>
   <g id="line2d_2">
    <path d="M 108.391154 123.789808 
L 319.572692 123.789808 
" clip-path="url(#p3205f998bc)" style="fill: none; stroke: #737373; stroke-width: 1.2; stroke-linecap: square"/>
   </g>
   <g id="line2d_3">
    <path d="M 235.98 187.584231 
L 267.877212 196.131063 
L 291.227591 219.481442 
L 299.774423 251.378654 
L 291.227591 283.275865 
L 267.877212 306.626245 
L 235.98 315.173077 
L 204.082788 306.626245 
L 180.732409 283.275865 
L 172.185577 251.378654 
L 180.732409 219.481442 
L 204.082788 196.131063 
L 235.98 187.584231 
" clip-path="url(#p3205f998bc)" style="fill: none; stroke: #808080; stroke-width: 1.1; stroke-linecap: square"/>
   </g>
   <g id="text_1">
    <!-- 1 -->
    <g transform="translate(105.050841 38.877231) scale(0.105 -0.105)">
     <defs>
      <path id="DejaVuSans-31" d="M 794 531 
L 1825 531 
L 1825 4091 
L 703 3866 
L 703 4441 
L 1819 4666 
L 2450 4666 
L 2450 531 
L 3481 531 
L 3481 0 
L 794 0 
L 794 531 
z
" transform="scale(0.015625)"/>
     </defs>
     <use xlink:href="#DejaVuSans-31"/>
    </g>
   </g>
   <g id="text_2">
    <!-- 2 -->
    <g transform="translate(140.247764 38.877231) scale(0.105 -0.105)">
     <defs>
      <path id="DejaVuSans-32" d="M 1228 531 
L 3431 531 
L 3431 0 
L 469 0 
L 469 531 
Q 828 903 1448 1529 
Q 2069 2156 2228 2338 
Q 2531 2678 2651 2914 
Q 2772 3150 2772 3378 
Q 2772 3750 2511 3984 
Q 2250 4219 1831 4219 
Q 1534 4219 1204 4116 
Q 875 4013 500 3803 
L 500 4441 
Q 881 4594 1212 4672 
Q 1544 4750 1819 4750 
Q 2544 4750 2975 4387 
Q 3406 4025 3406 3419 
Q 3406 3131 3298 2873 
Q 3191 2616 2906 2266 
Q 2828 2175 2409 1742 
Q 1991 1309 1228 531 
z
" transform="scale(0.015625)"/>
     </defs>
     <use xlink:href="#DejaVuSans-32"/>
    </g>
   </g>
   <g id="text_3">
    <!-- 3 -->
    <g transform="translate(175.444687 38.877231) scale(0.105 -0.105)">
     <defs>
      <path id="DejaVuSans-33" d="M 2597 2516 
Q 3050 2419 3304 2112 
Q 3559 1806 3559 1356 
Q 3559 666 3084 287 
Q 2609 -91 1734 -91 
Q 1441 -91 1130 -33 
Q 819 25 488 141 
L 488 750 
Q 750 597 1062 519 
Q 1375 441 1716 441 
Q 2309 441 2620 675 
Q 2931 909 2931 1356 
Q 2931 1769 2642 2001 
Q 2353 2234 1838 2234 
L 1294 2234 
L 1294 2753 
L 1863 2753 
Q 2328 2753 2575 2939 
Q 2822 3125 2822 3475 
Q 2822 3834 2567 4026 
Q 2313 4219 1838 4219 
Q 1578 4219 1281 4162 
Q 984 4106 628 3988 
L 628 4550 
Q 988 4650 1302 4700 
Q 1616 4750 1894 4750 
Q 2613 4750 3031 4423 
Q 3450 4097 3450 3541 
Q 3450 3153 3228 2886 
Q 3006 2619 2597 2516 
z
" transform="scale(0.015625)"/>
     </defs>
     <use xlink:href="#DejaVuSans-33"/>
    </g>
   </g>
   <g id="text_4">
    <!-- 4 -->
    <g transform="translate(210.641611 38.877231) scale(0.105 -0.105)">
     <defs>
      <path id="DejaVuSans-34" d="M 2419 4116 
L 825 1625 
L 2419 1625 
L 2419 4116 
z
M 2253 4666 
L 3047 4666 
L 3047 1625 
L 3713 1625 
L 3713 1100 
L 3047 1100 
L 3047 0 
L 2419 0 
L 2419 1100 
L 313 1100 
L 313 1709 
L 2253 4666 
z
" transform="scale(0.015625)"/>
     </defs>
     <use xlink:href="#DejaVuSans-34"/>
    </g>
   </g>
   <g id="text_5">
    <!-- 5 -->
    <g transform="translate(245.838534 38.877231) scale(0.105 -0.105)">
     <defs>
      <path id="DejaVuSans-35" d="M 691 4666 
L 3169 4666 
L 3169 4134 
L 1269 4134 
L 1269 2991 
Q 1406 3038 1543 3061 
Q 1681 3084 1819 3084 
Q 2600 3084 3056 2656 
Q 3513 2228 3513 1497 
Q 3513 744 3044 326 
Q 2575 -91 1722 -91 
Q 1428 -91 1123 -41 
Q 819 9 494 109 
L 494 744 
Q 775 591 1075 516 
Q 1375 441 1709 441 
Q 2250 441 2565 725 
Q 2881 1009 2881 1497 
Q 2881 1984 2565 2268 
Q 2250 2553 1709 2553 
Q 1456 2553 1204 2497 
Q 953 2441 691 2322 
L 691 4666 
z
" transform="scale(0.015625)"/>
     </defs>
     <use xlink:href="#DejaVuSans-35"/>
    </g>
   </g>
   <g id="text_6">
    <!-- N−1 -->
    <g transform="translate(272.708465 38.877231) scale(0.105 -0.105)">
     <defs>
      <path id="DejaVuSans-4e" d="M 628 4666 
L 1478 4666 
L 3547 763 
L 3547 4666 
L 4159 4666 
L 4159 0 
L 3309 0 
L 1241 3903 
L 1241 0 
L 628 0 
L 628 4666 
z
" transform="scale(0.015625)"/>
      <path id="DejaVuSans-2212" d="M 678 2272 
L 4684 2272 
L 4684 1741 
L 678 1741 
L 678 2272 
z
" transform="scale(0.015625)"/>
     </defs>
     <use xlink:href="#DejaVuSans-4e"/>
     <use xlink:href="#DejaVuSans-2212" transform="translate(74.804688 0)"/>
     <use xlink:href="#DejaVuSans-31" transform="translate(158.59375 0)"/>
    </g>
   </g>
   <g id="text_7">
    <!-- N -->
    <g transform="translate(315.645036 38.877231) scale(0.105 -0.105)">
     <use xlink:href="#DejaVuSans-4e"/>
    </g>
   </g>
   <g id="text_8">
    <!-- $a$ -->
    <g transform="translate(192.663462 80.905096) scale(0.12 -0.12)">
     <defs>
      <path id="DejaVuSans-Oblique-61" d="M 3438 1997 
L 3047 0 
L 2472 0 
L 2578 531 
Q 2325 219 2001 64 
Q 1678 -91 1281 -91 
Q 834 -91 548 182 
Q 263 456 263 884 
Q 263 1497 752 1853 
Q 1241 2209 2100 2209 
L 2900 2209 
L 2931 2363 
Q 2938 2388 2941 2417 
Q 2944 2447 2944 2509 
Q 2944 2788 2717 2942 
Q 2491 3097 2081 3097 
Q 1800 3097 1504 3025 
Q 1209 2953 897 2809 
L 997 3341 
Q 1322 3463 1633 3523 
Q 1944 3584 2234 3584 
Q 2853 3584 3176 3315 
Q 3500 3047 3500 2534 
Q 3500 2431 3484 2292 
Q 3469 2153 3438 1997 
z
M 2816 1759 
L 2241 1759 
Q 1534 1759 1195 1570 
Q 856 1381 856 984 
Q 856 709 1029 553 
Q 1203 397 1509 397 
Q 1978 397 2328 733 
Q 2678 1069 2791 1631 
L 2816 1759 
z
" transform="scale(0.015625)"/>
     </defs>
     <use xlink:href="#DejaVuSans-Oblique-61"/>
    </g>
   </g>
   <g id="text_9">
    <!-- A periodic one-dimensional chain -->
    <g transform="translate(95.291719 24.798462) scale(0.15 -0.15)">
     <defs>
      <path id="DejaVuSans-Bold-41" d="M 3419 850 
L 1538 850 
L 1241 0 
L 31 0 
L 1759 4666 
L 3194 4666 
L 4922 0 
L 3713 0 
L 3419 850 
z
M 1838 1716 
L 3116 1716 
L 2478 3572 
L 1838 1716 
z
" transform="scale(0.015625)"/>
      <path id="DejaVuSans-Bold-20" transform="scale(0.015625)"/>
      <path id="DejaVuSans-Bold-70" d="M 1656 506 
L 1656 -1331 
L 538 -1331 
L 538 3500 
L 1656 3500 
L 1656 2988 
Q 1888 3294 2169 3439 
Q 2450 3584 2816 3584 
Q 3463 3584 3878 3070 
Q 4294 2556 4294 1747 
Q 4294 938 3878 423 
Q 3463 -91 2816 -91 
Q 2450 -91 2169 54 
Q 1888 200 1656 506 
z
M 2400 2772 
Q 2041 2772 1848 2508 
Q 1656 2244 1656 1747 
Q 1656 1250 1848 986 
Q 2041 722 2400 722 
Q 2759 722 2948 984 
Q 3138 1247 3138 1747 
Q 3138 2247 2948 2509 
Q 2759 2772 2400 2772 
z
" transform="scale(0.015625)"/>
      <path id="DejaVuSans-Bold-65" d="M 4031 1759 
L 4031 1441 
L 1416 1441 
Q 1456 1047 1700 850 
Q 1944 653 2381 653 
Q 2734 653 3104 758 
Q 3475 863 3866 1075 
L 3866 213 
Q 3469 63 3072 -14 
Q 2675 -91 2278 -91 
Q 1328 -91 801 392 
Q 275 875 275 1747 
Q 275 2603 792 3093 
Q 1309 3584 2216 3584 
Q 3041 3584 3536 3087 
Q 4031 2591 4031 1759 
z
M 2881 2131 
Q 2881 2450 2695 2645 
Q 2509 2841 2209 2841 
Q 1884 2841 1681 2658 
Q 1478 2475 1428 2131 
L 2881 2131 
z
" transform="scale(0.015625)"/>
      <path id="DejaVuSans-Bold-72" d="M 3138 2547 
Q 2991 2616 2845 2648 
Q 2700 2681 2553 2681 
Q 2122 2681 1889 2404 
Q 1656 2128 1656 1613 
L 1656 0 
L 538 0 
L 538 3500 
L 1656 3500 
L 1656 2925 
Q 1872 3269 2151 3426 
Q 2431 3584 2822 3584 
Q 2878 3584 2943 3579 
Q 3009 3575 3134 3559 
L 3138 2547 
z
" transform="scale(0.015625)"/>
      <path id="DejaVuSans-Bold-69" d="M 538 3500 
L 1656 3500 
L 1656 0 
L 538 0 
L 538 3500 
z
M 538 4863 
L 1656 4863 
L 1656 3950 
L 538 3950 
L 538 4863 
z
" transform="scale(0.015625)"/>
      <path id="DejaVuSans-Bold-6f" d="M 2203 2784 
Q 1831 2784 1636 2517 
Q 1441 2250 1441 1747 
Q 1441 1244 1636 976 
Q 1831 709 2203 709 
Q 2569 709 2762 976 
Q 2956 1244 2956 1747 
Q 2956 2250 2762 2517 
Q 2569 2784 2203 2784 
z
M 2203 3584 
Q 3106 3584 3614 3096 
Q 4122 2609 4122 1747 
Q 4122 884 3614 396 
Q 3106 -91 2203 -91 
Q 1297 -91 786 396 
Q 275 884 275 1747 
Q 275 2609 786 3096 
Q 1297 3584 2203 3584 
z
" transform="scale(0.015625)"/>
      <path id="DejaVuSans-Bold-64" d="M 2919 2988 
L 2919 4863 
L 4044 4863 
L 4044 0 
L 2919 0 
L 2919 506 
Q 2688 197 2409 53 
Q 2131 -91 1766 -91 
Q 1119 -91 703 423 
Q 288 938 288 1747 
Q 288 2556 703 3070 
Q 1119 3584 1766 3584 
Q 2128 3584 2408 3439 
Q 2688 3294 2919 2988 
z
M 2181 722 
Q 2541 722 2730 984 
Q 2919 1247 2919 1747 
Q 2919 2247 2730 2509 
Q 2541 2772 2181 2772 
Q 1825 2772 1636 2509 
Q 1447 2247 1447 1747 
Q 1447 1247 1636 984 
Q 1825 722 2181 722 
z
" transform="scale(0.015625)"/>
      <path id="DejaVuSans-Bold-63" d="M 3366 3391 
L 3366 2478 
Q 3138 2634 2908 2709 
Q 2678 2784 2431 2784 
Q 1963 2784 1702 2511 
Q 1441 2238 1441 1747 
Q 1441 1256 1702 982 
Q 1963 709 2431 709 
Q 2694 709 2930 787 
Q 3166 866 3366 1019 
L 3366 103 
Q 3103 6 2833 -42 
Q 2563 -91 2291 -91 
Q 1344 -91 809 395 
Q 275 881 275 1747 
Q 275 2613 809 3098 
Q 1344 3584 2291 3584 
Q 2566 3584 2833 3536 
Q 3100 3488 3366 3391 
z
" transform="scale(0.015625)"/>
      <path id="DejaVuSans-Bold-6e" d="M 4056 2131 
L 4056 0 
L 2931 0 
L 2931 347 
L 2931 1631 
Q 2931 2084 2911 2256 
Q 2891 2428 2841 2509 
Q 2775 2619 2662 2680 
Q 2550 2741 2406 2741 
Q 2056 2741 1856 2470 
Q 1656 2200 1656 1722 
L 1656 0 
L 538 0 
L 538 3500 
L 1656 3500 
L 1656 2988 
Q 1909 3294 2193 3439 
Q 2478 3584 2822 3584 
Q 3428 3584 3742 3212 
Q 4056 2841 4056 2131 
z
" transform="scale(0.015625)"/>
      <path id="DejaVuSans-Bold-2d" d="M 347 2297 
L 2309 2297 
L 2309 1388 
L 347 1388 
L 347 2297 
z
" transform="scale(0.015625)"/>
      <path id="DejaVuSans-Bold-6d" d="M 3781 2919 
Q 3994 3244 4286 3414 
Q 4578 3584 4928 3584 
Q 5531 3584 5847 3212 
Q 6163 2841 6163 2131 
L 6163 0 
L 5038 0 
L 5038 1825 
Q 5041 1866 5042 1909 
Q 5044 1953 5044 2034 
Q 5044 2406 4934 2573 
Q 4825 2741 4581 2741 
Q 4263 2741 4089 2478 
Q 3916 2216 3909 1719 
L 3909 0 
L 2784 0 
L 2784 1825 
Q 2784 2406 2684 2573 
Q 2584 2741 2328 2741 
Q 2006 2741 1831 2477 
Q 1656 2213 1656 1722 
L 1656 0 
L 531 0 
L 531 3500 
L 1656 3500 
L 1656 2988 
Q 1863 3284 2130 3434 
Q 2397 3584 2719 3584 
Q 3081 3584 3359 3409 
Q 3638 3234 3781 2919 
z
" transform="scale(0.015625)"/>
      <path id="DejaVuSans-Bold-73" d="M 3272 3391 
L 3272 2541 
Q 2913 2691 2578 2766 
Q 2244 2841 1947 2841 
Q 1628 2841 1473 2761 
Q 1319 2681 1319 2516 
Q 1319 2381 1436 2309 
Q 1553 2238 1856 2203 
L 2053 2175 
Q 2913 2066 3209 1816 
Q 3506 1566 3506 1031 
Q 3506 472 3093 190 
Q 2681 -91 1863 -91 
Q 1516 -91 1145 -36 
Q 775 19 384 128 
L 384 978 
Q 719 816 1070 734 
Q 1422 653 1784 653 
Q 2113 653 2278 743 
Q 2444 834 2444 1013 
Q 2444 1163 2330 1236 
Q 2216 1309 1875 1350 
L 1678 1375 
Q 931 1469 631 1722 
Q 331 1975 331 2491 
Q 331 3047 712 3315 
Q 1094 3584 1881 3584 
Q 2191 3584 2531 3537 
Q 2872 3491 3272 3391 
z
" transform="scale(0.015625)"/>
      <path id="DejaVuSans-Bold-61" d="M 2106 1575 
Q 1756 1575 1579 1456 
Q 1403 1338 1403 1106 
Q 1403 894 1545 773 
Q 1688 653 1941 653 
Q 2256 653 2472 879 
Q 2688 1106 2688 1447 
L 2688 1575 
L 2106 1575 
z
M 3816 1997 
L 3816 0 
L 2688 0 
L 2688 519 
Q 2463 200 2181 54 
Q 1900 -91 1497 -91 
Q 953 -91 614 226 
Q 275 544 275 1050 
Q 275 1666 698 1953 
Q 1122 2241 2028 2241 
L 2688 2241 
L 2688 2328 
Q 2688 2594 2478 2717 
Q 2269 2841 1825 2841 
Q 1466 2841 1156 2769 
Q 847 2697 581 2553 
L 581 3406 
Q 941 3494 1303 3539 
Q 1666 3584 2028 3584 
Q 2975 3584 3395 3211 
Q 3816 2838 3816 1997 
z
" transform="scale(0.015625)"/>
      <path id="DejaVuSans-Bold-6c" d="M 538 4863 
L 1656 4863 
L 1656 0 
L 538 0 
L 538 4863 
z
" transform="scale(0.015625)"/>
      <path id="DejaVuSans-Bold-68" d="M 4056 2131 
L 4056 0 
L 2931 0 
L 2931 347 
L 2931 1625 
Q 2931 2084 2911 2256 
Q 2891 2428 2841 2509 
Q 2775 2619 2662 2680 
Q 2550 2741 2406 2741 
Q 2056 2741 1856 2470 
Q 1656 2200 1656 1722 
L 1656 0 
L 538 0 
L 538 4863 
L 1656 4863 
L 1656 2988 
Q 1909 3294 2193 3439 
Q 2478 3584 2822 3584 
Q 3428 3584 3742 3212 
Q 4056 2841 4056 2131 
z
" transform="scale(0.015625)"/>
     </defs>
     <use xlink:href="#DejaVuSans-Bold-41"/>
     <use xlink:href="#DejaVuSans-Bold-20" transform="translate(77.392578 0)"/>
     <use xlink:href="#DejaVuSans-Bold-70" transform="translate(112.207031 0)"/>
     <use xlink:href="#DejaVuSans-Bold-65" transform="translate(183.789062 0)"/>
     <use xlink:href="#DejaVuSans-Bold-72" transform="translate(251.611328 0)"/>
     <use xlink:href="#DejaVuSans-Bold-69" transform="translate(300.927734 0)"/>
     <use xlink:href="#DejaVuSans-Bold-6f" transform="translate(335.205078 0)"/>
     <use xlink:href="#DejaVuSans-Bold-64" transform="translate(403.90625 0)"/>
     <use xlink:href="#DejaVuSans-Bold-69" transform="translate(475.488281 0)"/>
     <use xlink:href="#DejaVuSans-Bold-63" transform="translate(509.765625 0)"/>
     <use xlink:href="#DejaVuSans-Bold-20" transform="translate(569.042969 0)"/>
     <use xlink:href="#DejaVuSans-Bold-6f" transform="translate(603.857422 0)"/>
     <use xlink:href="#DejaVuSans-Bold-6e" transform="translate(672.558594 0)"/>
     <use xlink:href="#DejaVuSans-Bold-65" transform="translate(743.75 0)"/>
     <use xlink:href="#DejaVuSans-Bold-2d" transform="translate(811.572266 0)"/>
     <use xlink:href="#DejaVuSans-Bold-64" transform="translate(853.076172 0)"/>
     <use xlink:href="#DejaVuSans-Bold-69" transform="translate(924.658203 0)"/>
     <use xlink:href="#DejaVuSans-Bold-6d" transform="translate(958.935547 0)"/>
     <use xlink:href="#DejaVuSans-Bold-65" transform="translate(1063.134766 0)"/>
     <use xlink:href="#DejaVuSans-Bold-6e" transform="translate(1130.957031 0)"/>
     <use xlink:href="#DejaVuSans-Bold-73" transform="translate(1202.148438 0)"/>
     <use xlink:href="#DejaVuSans-Bold-69" transform="translate(1261.669922 0)"/>
     <use xlink:href="#DejaVuSans-Bold-6f" transform="translate(1295.947266 0)"/>
     <use xlink:href="#DejaVuSans-Bold-6e" transform="translate(1364.648438 0)"/>
     <use xlink:href="#DejaVuSans-Bold-61" transform="translate(1435.839844 0)"/>
     <use xlink:href="#DejaVuSans-Bold-6c" transform="translate(1503.320312 0)"/>
     <use xlink:href="#DejaVuSans-Bold-20" transform="translate(1537.597656 0)"/>
     <use xlink:href="#DejaVuSans-Bold-63" transform="translate(1572.412109 0)"/>
     <use xlink:href="#DejaVuSans-Bold-68" transform="translate(1631.689453 0)"/>
     <use xlink:href="#DejaVuSans-Bold-61" transform="translate(1702.880859 0)"/>
     <use xlink:href="#DejaVuSans-Bold-69" transform="translate(1770.361328 0)"/>
     <use xlink:href="#DejaVuSans-Bold-6e" transform="translate(1804.638672 0)"/>
    </g>
   </g>
   <g id="text_10">
    <!-- 1 -->
    <g transform="translate(105.050841 112.790769) scale(0.105 -0.105)">
     <use xlink:href="#DejaVuSans-31"/>
    </g>
   </g>
   <g id="text_11">
    <!-- 2 -->
    <g transform="translate(140.247764 112.790769) scale(0.105 -0.105)">
     <use xlink:href="#DejaVuSans-32"/>
    </g>
   </g>
   <g id="text_12">
    <!-- 3 -->
    <g transform="translate(175.444687 112.790769) scale(0.105 -0.105)">
     <use xlink:href="#DejaVuSans-33"/>
    </g>
   </g>
   <g id="text_13">
    <!-- 4 -->
    <g transform="translate(210.641611 112.790769) scale(0.105 -0.105)">
     <use xlink:href="#DejaVuSans-34"/>
    </g>
   </g>
   <g id="text_14">
    <!-- 5 -->
    <g transform="translate(245.838534 112.790769) scale(0.105 -0.105)">
     <use xlink:href="#DejaVuSans-35"/>
    </g>
   </g>
   <g id="text_15">
    <!-- N−1 -->
    <g transform="translate(272.708465 112.790769) scale(0.105 -0.105)">
     <use xlink:href="#DejaVuSans-4e"/>
     <use xlink:href="#DejaVuSans-2212" transform="translate(74.804688 0)"/>
     <use xlink:href="#DejaVuSans-31" transform="translate(158.59375 0)"/>
    </g>
   </g>
   <g id="text_16">
    <!-- N -->
    <g transform="translate(315.645036 112.790769) scale(0.105 -0.105)">
     <use xlink:href="#DejaVuSans-4e"/>
    </g>
   </g>
   <g id="text_17">
    <!-- selected segment containing N sites -->
    <g transform="translate(104.707861 153.938712) scale(0.12 -0.12)">
     <defs>
      <path id="DejaVuSans-73" d="M 2834 3397 
L 2834 2853 
Q 2591 2978 2328 3040 
Q 2066 3103 1784 3103 
Q 1356 3103 1142 2972 
Q 928 2841 928 2578 
Q 928 2378 1081 2264 
Q 1234 2150 1697 2047 
L 1894 2003 
Q 2506 1872 2764 1633 
Q 3022 1394 3022 966 
Q 3022 478 2636 193 
Q 2250 -91 1575 -91 
Q 1294 -91 989 -36 
Q 684 19 347 128 
L 347 722 
Q 666 556 975 473 
Q 1284 391 1588 391 
Q 1994 391 2212 530 
Q 2431 669 2431 922 
Q 2431 1156 2273 1281 
Q 2116 1406 1581 1522 
L 1381 1569 
Q 847 1681 609 1914 
Q 372 2147 372 2553 
Q 372 3047 722 3315 
Q 1072 3584 1716 3584 
Q 2034 3584 2315 3537 
Q 2597 3491 2834 3397 
z
" transform="scale(0.015625)"/>
      <path id="DejaVuSans-65" d="M 3597 1894 
L 3597 1613 
L 953 1613 
Q 991 1019 1311 708 
Q 1631 397 2203 397 
Q 2534 397 2845 478 
Q 3156 559 3463 722 
L 3463 178 
Q 3153 47 2828 -22 
Q 2503 -91 2169 -91 
Q 1331 -91 842 396 
Q 353 884 353 1716 
Q 353 2575 817 3079 
Q 1281 3584 2069 3584 
Q 2775 3584 3186 3129 
Q 3597 2675 3597 1894 
z
M 3022 2063 
Q 3016 2534 2758 2815 
Q 2500 3097 2075 3097 
Q 1594 3097 1305 2825 
Q 1016 2553 972 2059 
L 3022 2063 
z
" transform="scale(0.015625)"/>
      <path id="DejaVuSans-6c" d="M 603 4863 
L 1178 4863 
L 1178 0 
L 603 0 
L 603 4863 
z
" transform="scale(0.015625)"/>
      <path id="DejaVuSans-63" d="M 3122 3366 
L 3122 2828 
Q 2878 2963 2633 3030 
Q 2388 3097 2138 3097 
Q 1578 3097 1268 2742 
Q 959 2388 959 1747 
Q 959 1106 1268 751 
Q 1578 397 2138 397 
Q 2388 397 2633 464 
Q 2878 531 3122 666 
L 3122 134 
Q 2881 22 2623 -34 
Q 2366 -91 2075 -91 
Q 1284 -91 818 406 
Q 353 903 353 1747 
Q 353 2603 823 3093 
Q 1294 3584 2113 3584 
Q 2378 3584 2631 3529 
Q 2884 3475 3122 3366 
z
" transform="scale(0.015625)"/>
      <path id="DejaVuSans-74" d="M 1172 4494 
L 1172 3500 
L 2356 3500 
L 2356 3053 
L 1172 3053 
L 1172 1153 
Q 1172 725 1289 603 
Q 1406 481 1766 481 
L 2356 481 
L 2356 0 
L 1766 0 
Q 1100 0 847 248 
Q 594 497 594 1153 
L 594 3053 
L 172 3053 
L 172 3500 
L 594 3500 
L 594 4494 
L 1172 4494 
z
" transform="scale(0.015625)"/>
      <path id="DejaVuSans-64" d="M 2906 2969 
L 2906 4863 
L 3481 4863 
L 3481 0 
L 2906 0 
L 2906 525 
Q 2725 213 2448 61 
Q 2172 -91 1784 -91 
Q 1150 -91 751 415 
Q 353 922 353 1747 
Q 353 2572 751 3078 
Q 1150 3584 1784 3584 
Q 2172 3584 2448 3432 
Q 2725 3281 2906 2969 
z
M 947 1747 
Q 947 1113 1208 752 
Q 1469 391 1925 391 
Q 2381 391 2643 752 
Q 2906 1113 2906 1747 
Q 2906 2381 2643 2742 
Q 2381 3103 1925 3103 
Q 1469 3103 1208 2742 
Q 947 2381 947 1747 
z
" transform="scale(0.015625)"/>
      <path id="DejaVuSans-20" transform="scale(0.015625)"/>
      <path id="DejaVuSans-67" d="M 2906 1791 
Q 2906 2416 2648 2759 
Q 2391 3103 1925 3103 
Q 1463 3103 1205 2759 
Q 947 2416 947 1791 
Q 947 1169 1205 825 
Q 1463 481 1925 481 
Q 2391 481 2648 825 
Q 2906 1169 2906 1791 
z
M 3481 434 
Q 3481 -459 3084 -895 
Q 2688 -1331 1869 -1331 
Q 1566 -1331 1297 -1286 
Q 1028 -1241 775 -1147 
L 775 -588 
Q 1028 -725 1275 -790 
Q 1522 -856 1778 -856 
Q 2344 -856 2625 -561 
Q 2906 -266 2906 331 
L 2906 616 
Q 2728 306 2450 153 
Q 2172 0 1784 0 
Q 1141 0 747 490 
Q 353 981 353 1791 
Q 353 2603 747 3093 
Q 1141 3584 1784 3584 
Q 2172 3584 2450 3431 
Q 2728 3278 2906 2969 
L 2906 3500 
L 3481 3500 
L 3481 434 
z
" transform="scale(0.015625)"/>
      <path id="DejaVuSans-6d" d="M 3328 2828 
Q 3544 3216 3844 3400 
Q 4144 3584 4550 3584 
Q 5097 3584 5394 3201 
Q 5691 2819 5691 2113 
L 5691 0 
L 5113 0 
L 5113 2094 
Q 5113 2597 4934 2840 
Q 4756 3084 4391 3084 
Q 3944 3084 3684 2787 
Q 3425 2491 3425 1978 
L 3425 0 
L 2847 0 
L 2847 2094 
Q 2847 2600 2669 2842 
Q 2491 3084 2119 3084 
Q 1678 3084 1418 2786 
Q 1159 2488 1159 1978 
L 1159 0 
L 581 0 
L 581 3500 
L 1159 3500 
L 1159 2956 
Q 1356 3278 1631 3431 
Q 1906 3584 2284 3584 
Q 2666 3584 2933 3390 
Q 3200 3197 3328 2828 
z
" transform="scale(0.015625)"/>
      <path id="DejaVuSans-6e" d="M 3513 2113 
L 3513 0 
L 2938 0 
L 2938 2094 
Q 2938 2591 2744 2837 
Q 2550 3084 2163 3084 
Q 1697 3084 1428 2787 
Q 1159 2491 1159 1978 
L 1159 0 
L 581 0 
L 581 3500 
L 1159 3500 
L 1159 2956 
Q 1366 3272 1645 3428 
Q 1925 3584 2291 3584 
Q 2894 3584 3203 3211 
Q 3513 2838 3513 2113 
z
" transform="scale(0.015625)"/>
      <path id="DejaVuSans-6f" d="M 1959 3097 
Q 1497 3097 1228 2736 
Q 959 2375 959 1747 
Q 959 1119 1226 758 
Q 1494 397 1959 397 
Q 2419 397 2687 759 
Q 2956 1122 2956 1747 
Q 2956 2369 2687 2733 
Q 2419 3097 1959 3097 
z
M 1959 3584 
Q 2709 3584 3137 3096 
Q 3566 2609 3566 1747 
Q 3566 888 3137 398 
Q 2709 -91 1959 -91 
Q 1206 -91 779 398 
Q 353 888 353 1747 
Q 353 2609 779 3096 
Q 1206 3584 1959 3584 
z
" transform="scale(0.015625)"/>
      <path id="DejaVuSans-61" d="M 2194 1759 
Q 1497 1759 1228 1600 
Q 959 1441 959 1056 
Q 959 750 1161 570 
Q 1363 391 1709 391 
Q 2188 391 2477 730 
Q 2766 1069 2766 1631 
L 2766 1759 
L 2194 1759 
z
M 3341 1997 
L 3341 0 
L 2766 0 
L 2766 531 
Q 2569 213 2275 61 
Q 1981 -91 1556 -91 
Q 1019 -91 701 211 
Q 384 513 384 1019 
Q 384 1609 779 1909 
Q 1175 2209 1959 2209 
L 2766 2209 
L 2766 2266 
Q 2766 2663 2505 2880 
Q 2244 3097 1772 3097 
Q 1472 3097 1187 3025 
Q 903 2953 641 2809 
L 641 3341 
Q 956 3463 1253 3523 
Q 1550 3584 1831 3584 
Q 2591 3584 2966 3190 
Q 3341 2797 3341 1997 
z
" transform="scale(0.015625)"/>
      <path id="DejaVuSans-69" d="M 603 3500 
L 1178 3500 
L 1178 0 
L 603 0 
L 603 3500 
z
M 603 4863 
L 1178 4863 
L 1178 4134 
L 603 4134 
L 603 4863 
z
" transform="scale(0.015625)"/>
     </defs>
     <use xlink:href="#DejaVuSans-73"/>
     <use xlink:href="#DejaVuSans-65" transform="translate(52.099609 0)"/>
     <use xlink:href="#DejaVuSans-6c" transform="translate(113.623047 0)"/>
     <use xlink:href="#DejaVuSans-65" transform="translate(141.40625 0)"/>
     <use xlink:href="#DejaVuSans-63" transform="translate(202.929688 0)"/>
     <use xlink:href="#DejaVuSans-74" transform="translate(257.910156 0)"/>
     <use xlink:href="#DejaVuSans-65" transform="translate(297.119141 0)"/>
     <use xlink:href="#DejaVuSans-64" transform="translate(358.642578 0)"/>
     <use xlink:href="#DejaVuSans-20" transform="translate(422.119141 0)"/>
     <use xlink:href="#DejaVuSans-73" transform="translate(453.90625 0)"/>
     <use xlink:href="#DejaVuSans-65" transform="translate(506.005859 0)"/>
     <use xlink:href="#DejaVuSans-67" transform="translate(567.529297 0)"/>
     <use xlink:href="#DejaVuSans-6d" transform="translate(631.005859 0)"/>
     <use xlink:href="#DejaVuSans-65" transform="translate(728.417969 0)"/>
     <use xlink:href="#DejaVuSans-6e" transform="translate(789.941406 0)"/>
     <use xlink:href="#DejaVuSans-74" transform="translate(853.320312 0)"/>
     <use xlink:href="#DejaVuSans-20" transform="translate(892.529297 0)"/>
     <use xlink:href="#DejaVuSans-63" transform="translate(924.316406 0)"/>
     <use xlink:href="#DejaVuSans-6f" transform="translate(979.296875 0)"/>
     <use xlink:href="#DejaVuSans-6e" transform="translate(1040.478516 0)"/>
     <use xlink:href="#DejaVuSans-74" transform="translate(1103.857422 0)"/>
     <use xlink:href="#DejaVuSans-61" transform="translate(1143.066406 0)"/>
     <use xlink:href="#DejaVuSans-69" transform="translate(1204.345703 0)"/>
     <use xlink:href="#DejaVuSans-6e" transform="translate(1232.128906 0)"/>
     <use xlink:href="#DejaVuSans-69" transform="translate(1295.507812 0)"/>
     <use xlink:href="#DejaVuSans-6e" transform="translate(1323.291016 0)"/>
     <use xlink:href="#DejaVuSans-67" transform="translate(1386.669922 0)"/>
     <use xlink:href="#DejaVuSans-20" transform="translate(1450.146484 0)"/>
     <use xlink:href="#DejaVuSans-4e" transform="translate(1481.933594 0)"/>
     <use xlink:href="#DejaVuSans-20" transform="translate(1556.738281 0)"/>
     <use xlink:href="#DejaVuSans-73" transform="translate(1588.525391 0)"/>
     <use xlink:href="#DejaVuSans-69" transform="translate(1640.625 0)"/>
     <use xlink:href="#DejaVuSans-74" transform="translate(1668.408203 0)"/>
     <use xlink:href="#DejaVuSans-65" transform="translate(1707.617188 0)"/>
     <use xlink:href="#DejaVuSans-73" transform="translate(1769.140625 0)"/>
    </g>
   </g>
   <g id="text_18">
    <!-- 1 -->
    <g transform="translate(232.639688 179.482536) scale(0.105 -0.105)">
     <use xlink:href="#DejaVuSans-31"/>
    </g>
   </g>
   <g id="text_19">
    <!-- 2 -->
    <g transform="translate(270.036418 189.50296) scale(0.105 -0.105)">
     <use xlink:href="#DejaVuSans-32"/>
    </g>
   </g>
   <g id="text_20">
    <!-- 3 -->
    <g transform="translate(297.412725 216.879267) scale(0.105 -0.105)">
     <use xlink:href="#DejaVuSans-33"/>
    </g>
   </g>
   <g id="text_21">
    <!-- 4 -->
    <g transform="translate(307.433149 254.275998) scale(0.105 -0.105)">
     <use xlink:href="#DejaVuSans-34"/>
    </g>
   </g>
   <g id="text_22">
    <!-- N−1 -->
    <g transform="translate(159.539658 291.672728) scale(0.105 -0.105)">
     <use xlink:href="#DejaVuSans-4e"/>
     <use xlink:href="#DejaVuSans-2212" transform="translate(74.804688 0)"/>
     <use xlink:href="#DejaVuSans-31" transform="translate(158.59375 0)"/>
    </g>
   </g>
   <g id="text_23">
    <!-- N -->
    <g transform="translate(157.258882 254.275998) scale(0.105 -0.105)">
     <use xlink:href="#DejaVuSans-4e"/>
    </g>
   </g>
   <g id="patch_5">
    <path d="M 304.831877 244.468269 
Q 312.222719 267.041747 295.918039 281.923039 
" style="fill: none; stroke: #ff7f0e; stroke-width: 1.5; stroke-linecap: round"/>
    <path d="M 300.220748 280.703737 
L 295.918039 281.923039 
L 297.524223 277.749291 
z
" style="fill: #ff7f0e; stroke: #ff7f0e; stroke-width: 1.5; stroke-linecap: round"/>
   </g>
   <g id="text_24">
    <!-- identify the two ends -->
    <g transform="translate(81.993462 255.778269) scale(0.11 -0.11)">
     <defs>
      <path id="DejaVuSans-66" d="M 2375 4863 
L 2375 4384 
L 1825 4384 
Q 1516 4384 1395 4259 
Q 1275 4134 1275 3809 
L 1275 3500 
L 2222 3500 
L 2222 3053 
L 1275 3053 
L 1275 0 
L 697 0 
L 697 3053 
L 147 3053 
L 147 3500 
L 697 3500 
L 697 3744 
Q 697 4328 969 4595 
Q 1241 4863 1831 4863 
L 2375 4863 
z
" transform="scale(0.015625)"/>
      <path id="DejaVuSans-79" d="M 2059 -325 
Q 1816 -950 1584 -1140 
Q 1353 -1331 966 -1331 
L 506 -1331 
L 506 -850 
L 844 -850 
Q 1081 -850 1212 -737 
Q 1344 -625 1503 -206 
L 1606 56 
L 191 3500 
L 800 3500 
L 1894 763 
L 2988 3500 
L 3597 3500 
L 2059 -325 
z
" transform="scale(0.015625)"/>
      <path id="DejaVuSans-68" d="M 3513 2113 
L 3513 0 
L 2938 0 
L 2938 2094 
Q 2938 2591 2744 2837 
Q 2550 3084 2163 3084 
Q 1697 3084 1428 2787 
Q 1159 2491 1159 1978 
L 1159 0 
L 581 0 
L 581 4863 
L 1159 4863 
L 1159 2956 
Q 1366 3272 1645 3428 
Q 1925 3584 2291 3584 
Q 2894 3584 3203 3211 
Q 3513 2838 3513 2113 
z
" transform="scale(0.015625)"/>
      <path id="DejaVuSans-77" d="M 269 3500 
L 844 3500 
L 1563 769 
L 2278 3500 
L 2956 3500 
L 3675 769 
L 4391 3500 
L 4966 3500 
L 4050 0 
L 3372 0 
L 2619 2869 
L 1863 0 
L 1184 0 
L 269 3500 
z
" transform="scale(0.015625)"/>
     </defs>
     <use xlink:href="#DejaVuSans-69"/>
     <use xlink:href="#DejaVuSans-64" transform="translate(27.783203 0)"/>
     <use xlink:href="#DejaVuSans-65" transform="translate(91.259766 0)"/>
     <use xlink:href="#DejaVuSans-6e" transform="translate(152.783203 0)"/>
     <use xlink:href="#DejaVuSans-74" transform="translate(216.162109 0)"/>
     <use xlink:href="#DejaVuSans-69" transform="translate(255.371094 0)"/>
     <use xlink:href="#DejaVuSans-66" transform="translate(283.154297 0)"/>
     <use xlink:href="#DejaVuSans-79" transform="translate(316.609375 0)"/>
     <use xlink:href="#DejaVuSans-20" transform="translate(375.789062 0)"/>
     <use xlink:href="#DejaVuSans-74" transform="translate(407.576172 0)"/>
     <use xlink:href="#DejaVuSans-68" transform="translate(446.785156 0)"/>
     <use xlink:href="#DejaVuSans-65" transform="translate(510.164062 0)"/>
     <use xlink:href="#DejaVuSans-20" transform="translate(571.6875 0)"/>
     <use xlink:href="#DejaVuSans-74" transform="translate(603.474609 0)"/>
     <use xlink:href="#DejaVuSans-77" transform="translate(642.683594 0)"/>
     <use xlink:href="#DejaVuSans-6f" transform="translate(724.470703 0)"/>
     <use xlink:href="#DejaVuSans-20" transform="translate(785.652344 0)"/>
     <use xlink:href="#DejaVuSans-65" transform="translate(817.439453 0)"/>
     <use xlink:href="#DejaVuSans-6e" transform="translate(878.962891 0)"/>
     <use xlink:href="#DejaVuSans-64" transform="translate(942.341797 0)"/>
     <use xlink:href="#DejaVuSans-73" transform="translate(1005.818359 0)"/>
    </g>
   </g>
   <g id="patch_6">
    <path d="M 173.55032 254.319406 
Q 204.082145 221.681938 233.697418 190.024232 
" style="fill: none; stroke: #000000; stroke-width: 1.2; stroke-linecap: round"/>
    <path d="M 229.504247 191.579003 
L 233.697418 190.024232 
L 232.425333 194.311632 
" style="fill: none; stroke: #000000; stroke-width: 1.2; stroke-linecap: round"/>
   </g>
   <g id="text_25">
    <!-- Born–von Karman condition: the chain closes into a ring, so site N is equivalent to site 1. -->
    <g transform="translate(14.189375 331.451654) scale(0.1 -0.1)">
     <defs>
      <path id="DejaVuSans-42" d="M 1259 2228 
L 1259 519 
L 2272 519 
Q 2781 519 3026 730 
Q 3272 941 3272 1375 
Q 3272 1813 3026 2020 
Q 2781 2228 2272 2228 
L 1259 2228 
z
M 1259 4147 
L 1259 2741 
L 2194 2741 
Q 2656 2741 2882 2914 
Q 3109 3088 3109 3444 
Q 3109 3797 2882 3972 
Q 2656 4147 2194 4147 
L 1259 4147 
z
M 628 4666 
L 2241 4666 
Q 2963 4666 3353 4366 
Q 3744 4066 3744 3513 
Q 3744 3084 3544 2831 
Q 3344 2578 2956 2516 
Q 3422 2416 3680 2098 
Q 3938 1781 3938 1306 
Q 3938 681 3513 340 
Q 3088 0 2303 0 
L 628 0 
L 628 4666 
z
" transform="scale(0.015625)"/>
      <path id="DejaVuSans-72" d="M 2631 2963 
Q 2534 3019 2420 3045 
Q 2306 3072 2169 3072 
Q 1681 3072 1420 2755 
Q 1159 2438 1159 1844 
L 1159 0 
L 581 0 
L 581 3500 
L 1159 3500 
L 1159 2956 
Q 1341 3275 1631 3429 
Q 1922 3584 2338 3584 
Q 2397 3584 2469 3576 
Q 2541 3569 2628 3553 
L 2631 2963 
z
" transform="scale(0.015625)"/>
      <path id="DejaVuSans-2013" d="M 313 1978 
L 2888 1978 
L 2888 1528 
L 313 1528 
L 313 1978 
z
" transform="scale(0.015625)"/>
      <path id="DejaVuSans-76" d="M 191 3500 
L 800 3500 
L 1894 563 
L 2988 3500 
L 3597 3500 
L 2284 0 
L 1503 0 
L 191 3500 
z
" transform="scale(0.015625)"/>
      <path id="DejaVuSans-4b" d="M 628 4666 
L 1259 4666 
L 1259 2694 
L 3353 4666 
L 4166 4666 
L 1850 2491 
L 4331 0 
L 3500 0 
L 1259 2247 
L 1259 0 
L 628 0 
L 628 4666 
z
" transform="scale(0.015625)"/>
      <path id="DejaVuSans-3a" d="M 750 794 
L 1409 794 
L 1409 0 
L 750 0 
L 750 794 
z
M 750 3309 
L 1409 3309 
L 1409 2516 
L 750 2516 
L 750 3309 
z
" transform="scale(0.015625)"/>
      <path id="DejaVuSans-2c" d="M 750 794 
L 1409 794 
L 1409 256 
L 897 -744 
L 494 -744 
L 750 256 
L 750 794 
z
" transform="scale(0.015625)"/>
      <path id="DejaVuSans-71" d="M 947 1747 
Q 947 1113 1208 752 
Q 1469 391 1925 391 
Q 2381 391 2643 752 
Q 2906 1113 2906 1747 
Q 2906 2381 2643 2742 
Q 2381 3103 1925 3103 
Q 1469 3103 1208 2742 
Q 947 2381 947 1747 
z
M 2906 525 
Q 2725 213 2448 61 
Q 2172 -91 1784 -91 
Q 1150 -91 751 415 
Q 353 922 353 1747 
Q 353 2572 751 3078 
Q 1150 3584 1784 3584 
Q 2172 3584 2448 3432 
Q 2725 3281 2906 2969 
L 2906 3500 
L 3481 3500 
L 3481 -1331 
L 2906 -1331 
L 2906 525 
z
" transform="scale(0.015625)"/>
      <path id="DejaVuSans-75" d="M 544 1381 
L 544 3500 
L 1119 3500 
L 1119 1403 
Q 1119 906 1312 657 
Q 1506 409 1894 409 
Q 2359 409 2629 706 
Q 2900 1003 2900 1516 
L 2900 3500 
L 3475 3500 
L 3475 0 
L 2900 0 
L 2900 538 
Q 2691 219 2414 64 
Q 2138 -91 1772 -91 
Q 1169 -91 856 284 
Q 544 659 544 1381 
z
M 1991 3584 
L 1991 3584 
z
" transform="scale(0.015625)"/>
      <path id="DejaVuSans-2e" d="M 684 794 
L 1344 794 
L 1344 0 
L 684 0 
L 684 794 
z
" transform="scale(0.015625)"/>
     </defs>
     <use xlink:href="#DejaVuSans-42"/>
     <use xlink:href="#DejaVuSans-6f" transform="translate(68.603516 0)"/>
     <use xlink:href="#DejaVuSans-72" transform="translate(129.785156 0)"/>
     <use xlink:href="#DejaVuSans-6e" transform="translate(169.148438 0)"/>
     <use xlink:href="#DejaVuSans-2013" transform="translate(232.527344 0)"/>
     <use xlink:href="#DejaVuSans-76" transform="translate(282.527344 0)"/>
     <use xlink:href="#DejaVuSans-6f" transform="translate(341.707031 0)"/>
     <use xlink:href="#DejaVuSans-6e" transform="translate(402.888672 0)"/>
     <use xlink:href="#DejaVuSans-20" transform="translate(466.267578 0)"/>
     <use xlink:href="#DejaVuSans-4b" transform="translate(498.054688 0)"/>
     <use xlink:href="#DejaVuSans-61" transform="translate(561.880859 0)"/>
     <use xlink:href="#DejaVuSans-72" transform="translate(623.160156 0)"/>
     <use xlink:href="#DejaVuSans-6d" transform="translate(662.523438 0)"/>
     <use xlink:href="#DejaVuSans-61" transform="translate(759.935547 0)"/>
     <use xlink:href="#DejaVuSans-6e" transform="translate(821.214844 0)"/>
     <use xlink:href="#DejaVuSans-20" transform="translate(884.59375 0)"/>
     <use xlink:href="#DejaVuSans-63" transform="translate(916.380859 0)"/>
     <use xlink:href="#DejaVuSans-6f" transform="translate(971.361328 0)"/>
     <use xlink:href="#DejaVuSans-6e" transform="translate(1032.542969 0)"/>
     <use xlink:href="#DejaVuSans-64" transform="translate(1095.921875 0)"/>
     <use xlink:href="#DejaVuSans-69" transform="translate(1159.398438 0)"/>
     <use xlink:href="#DejaVuSans-74" transform="translate(1187.181641 0)"/>
     <use xlink:href="#DejaVuSans-69" transform="translate(1226.390625 0)"/>
     <use xlink:href="#DejaVuSans-6f" transform="translate(1254.173828 0)"/>
     <use xlink:href="#DejaVuSans-6e" transform="translate(1315.355469 0)"/>
     <use xlink:href="#DejaVuSans-3a" transform="translate(1378.734375 0)"/>
     <use xlink:href="#DejaVuSans-20" transform="translate(1412.425781 0)"/>
     <use xlink:href="#DejaVuSans-74" transform="translate(1444.212891 0)"/>
     <use xlink:href="#DejaVuSans-68" transform="translate(1483.421875 0)"/>
     <use xlink:href="#DejaVuSans-65" transform="translate(1546.800781 0)"/>
     <use xlink:href="#DejaVuSans-20" transform="translate(1608.324219 0)"/>
     <use xlink:href="#DejaVuSans-63" transform="translate(1640.111328 0)"/>
     <use xlink:href="#DejaVuSans-68" transform="translate(1695.091797 0)"/>
     <use xlink:href="#DejaVuSans-61" transform="translate(1758.470703 0)"/>
     <use xlink:href="#DejaVuSans-69" transform="translate(1819.75 0)"/>
     <use xlink:href="#DejaVuSans-6e" transform="translate(1847.533203 0)"/>
     <use xlink:href="#DejaVuSans-20" transform="translate(1910.912109 0)"/>
     <use xlink:href="#DejaVuSans-63" transform="translate(1942.699219 0)"/>
     <use xlink:href="#DejaVuSans-6c" transform="translate(1997.679688 0)"/>
     <use xlink:href="#DejaVuSans-6f" transform="translate(2025.462891 0)"/>
     <use xlink:href="#DejaVuSans-73" transform="translate(2086.644531 0)"/>
     <use xlink:href="#DejaVuSans-65" transform="translate(2138.744141 0)"/>
     <use xlink:href="#DejaVuSans-73" transform="translate(2200.267578 0)"/>
     <use xlink:href="#DejaVuSans-20" transform="translate(2252.367188 0)"/>
     <use xlink:href="#DejaVuSans-69" transform="translate(2284.154297 0)"/>
     <use xlink:href="#DejaVuSans-6e" transform="translate(2311.9375 0)"/>
     <use xlink:href="#DejaVuSans-74" transform="translate(2375.316406 0)"/>
     <use xlink:href="#DejaVuSans-6f" transform="translate(2414.525391 0)"/>
     <use xlink:href="#DejaVuSans-20" transform="translate(2475.707031 0)"/>
     <use xlink:href="#DejaVuSans-61" transform="translate(2507.494141 0)"/>
     <use xlink:href="#DejaVuSans-20" transform="translate(2568.773438 0)"/>
     <use xlink:href="#DejaVuSans-72" transform="translate(2600.560547 0)"/>
     <use xlink:href="#DejaVuSans-69" transform="translate(2641.673828 0)"/>
     <use xlink:href="#DejaVuSans-6e" transform="translate(2669.457031 0)"/>
     <use xlink:href="#DejaVuSans-67" transform="translate(2732.835938 0)"/>
     <use xlink:href="#DejaVuSans-2c" transform="translate(2796.3125 0)"/>
     <use xlink:href="#DejaVuSans-20" transform="translate(2828.099609 0)"/>
     <use xlink:href="#DejaVuSans-73" transform="translate(2859.886719 0)"/>
     <use xlink:href="#DejaVuSans-6f" transform="translate(2911.986328 0)"/>
     <use xlink:href="#DejaVuSans-20" transform="translate(2973.167969 0)"/>
     <use xlink:href="#DejaVuSans-73" transform="translate(3004.955078 0)"/>
     <use xlink:href="#DejaVuSans-69" transform="translate(3057.054688 0)"/>
     <use xlink:href="#DejaVuSans-74" transform="translate(3084.837891 0)"/>
     <use xlink:href="#DejaVuSans-65" transform="translate(3124.046875 0)"/>
     <use xlink:href="#DejaVuSans-20" transform="translate(3185.570312 0)"/>
     <use xlink:href="#DejaVuSans-4e" transform="translate(3217.357422 0)"/>
     <use xlink:href="#DejaVuSans-20" transform="translate(3292.162109 0)"/>
     <use xlink:href="#DejaVuSans-69" transform="translate(3323.949219 0)"/>
     <use xlink:href="#DejaVuSans-73" transform="translate(3351.732422 0)"/>
     <use xlink:href="#DejaVuSans-20" transform="translate(3403.832031 0)"/>
     <use xlink:href="#DejaVuSans-65" transform="translate(3435.619141 0)"/>
     <use xlink:href="#DejaVuSans-71" transform="translate(3497.142578 0)"/>
     <use xlink:href="#DejaVuSans-75" transform="translate(3560.619141 0)"/>
     <use xlink:href="#DejaVuSans-69" transform="translate(3623.998047 0)"/>
     <use xlink:href="#DejaVuSans-76" transform="translate(3651.78125 0)"/>
     <use xlink:href="#DejaVuSans-61" transform="translate(3710.960938 0)"/>
     <use xlink:href="#DejaVuSans-6c" transform="translate(3772.240234 0)"/>
     <use xlink:href="#DejaVuSans-65" transform="translate(3800.023438 0)"/>
     <use xlink:href="#DejaVuSans-6e" transform="translate(3861.546875 0)"/>
     <use xlink:href="#DejaVuSans-74" transform="translate(3924.925781 0)"/>
     <use xlink:href="#DejaVuSans-20" transform="translate(3964.134766 0)"/>
     <use xlink:href="#DejaVuSans-74" transform="translate(3995.921875 0)"/>
     <use xlink:href="#DejaVuSans-6f" transform="translate(4035.130859 0)"/>
     <use xlink:href="#DejaVuSans-20" transform="translate(4096.3125 0)"/>
     <use xlink:href="#DejaVuSans-73" transform="translate(4128.099609 0)"/>
     <use xlink:href="#DejaVuSans-69" transform="translate(4180.199219 0)"/>
     <use xlink:href="#DejaVuSans-74" transform="translate(4207.982422 0)"/>
     <use xlink:href="#DejaVuSans-65" transform="translate(4247.191406 0)"/>
     <use xlink:href="#DejaVuSans-20" transform="translate(4308.714844 0)"/>
     <use xlink:href="#DejaVuSans-31" transform="translate(4340.501953 0)"/>
     <use xlink:href="#DejaVuSans-2e" transform="translate(4404.125 0)"/>
    </g>
   </g>
   <g id="PathCollection_1">
    <defs>
     <path id="m349a252740" d="M 0 3.708099 
C 0.983399 3.708099 1.926654 3.317391 2.622022 2.622022 
C 3.317391 1.926654 3.708099 0.983399 3.708099 0 
C 3.708099 -0.983399 3.317391 -1.926654 2.622022 -2.622022 
C 1.926654 -3.317391 0.983399 -3.708099 0 -3.708099 
C -0.983399 -3.708099 -1.926654 -3.317391 -2.622022 -2.622022 
C -3.317391 -1.926654 -3.708099 -0.983399 -3.708099 0 
C -3.708099 0.983399 -3.317391 1.926654 -2.622022 2.622022 
C -1.926654 3.317391 -0.983399 3.708099 0 3.708099 
z
" style="stroke: #1f77b4; stroke-width: 1.6"/>
    </defs>
    <g clip-path="url(#p3205f998bc)">
     <use xlink:href="#m349a252740" x="37.997308" y="51.196154" style="fill: #ffffff; stroke: #1f77b4; stroke-width: 1.6"/>
     <use xlink:href="#m349a252740" x="73.194231" y="51.196154" style="fill: #ffffff; stroke: #1f77b4; stroke-width: 1.6"/>
     <use xlink:href="#m349a252740" x="108.391154" y="51.196154" style="fill: #ffffff; stroke: #1f77b4; stroke-width: 1.6"/>
     <use xlink:href="#m349a252740" x="143.588077" y="51.196154" style="fill: #ffffff; stroke: #1f77b4; stroke-width: 1.6"/>
     <use xlink:href="#m349a252740" x="178.785" y="51.196154" style="fill: #ffffff; stroke: #1f77b4; stroke-width: 1.6"/>
     <use xlink:href="#m349a252740" x="213.981923" y="51.196154" style="fill: #ffffff; stroke: #1f77b4; stroke-width: 1.6"/>
     <use xlink:href="#m349a252740" x="249.178846" y="51.196154" style="fill: #ffffff; stroke: #1f77b4; stroke-width: 1.6"/>
     <use xlink:href="#m349a252740" x="284.375769" y="51.196154" style="fill: #ffffff; stroke: #1f77b4; stroke-width: 1.6"/>
     <use xlink:href="#m349a252740" x="319.572692" y="51.196154" style="fill: #ffffff; stroke: #1f77b4; stroke-width: 1.6"/>
     <use xlink:href="#m349a252740" x="354.769615" y="51.196154" style="fill: #ffffff; stroke: #1f77b4; stroke-width: 1.6"/>
     <use xlink:href="#m349a252740" x="389.966538" y="51.196154" style="fill: #ffffff; stroke: #1f77b4; stroke-width: 1.6"/>
     <use xlink:href="#m349a252740" x="425.163462" y="51.196154" style="fill: #ffffff; stroke: #1f77b4; stroke-width: 1.6"/>
    </g>
   </g>
   <g id="PathCollection_2">
    <g clip-path="url(#p3205f998bc)">
     <use xlink:href="#m349a252740" x="108.391154" y="123.789808" style="fill: #ffffff; stroke: #1f77b4; stroke-width: 1.6"/>
     <use xlink:href="#m349a252740" x="143.588077" y="123.789808" style="fill: #ffffff; stroke: #1f77b4; stroke-width: 1.6"/>
     <use xlink:href="#m349a252740" x="178.785" y="123.789808" style="fill: #ffffff; stroke: #1f77b4; stroke-width: 1.6"/>
     <use xlink:href="#m349a252740" x="213.981923" y="123.789808" style="fill: #ffffff; stroke: #1f77b4; stroke-width: 1.6"/>
     <use xlink:href="#m349a252740" x="249.178846" y="123.789808" style="fill: #ffffff; stroke: #1f77b4; stroke-width: 1.6"/>
     <use xlink:href="#m349a252740" x="284.375769" y="123.789808" style="fill: #ffffff; stroke: #1f77b4; stroke-width: 1.6"/>
     <use xlink:href="#m349a252740" x="319.572692" y="123.789808" style="fill: #ffffff; stroke: #1f77b4; stroke-width: 1.6"/>
    </g>
   </g>
   <g id="PathCollection_3">
    <g clip-path="url(#p3205f998bc)">
     <use xlink:href="#m349a252740" x="235.98" y="187.584231" style="fill: #ffffff; stroke: #1f77b4; stroke-width: 1.6"/>
     <use xlink:href="#m349a252740" x="267.877212" y="196.131063" style="fill: #ffffff; stroke: #1f77b4; stroke-width: 1.6"/>
     <use xlink:href="#m349a252740" x="291.227591" y="219.481442" style="fill: #ffffff; stroke: #1f77b4; stroke-width: 1.6"/>
     <use xlink:href="#m349a252740" x="299.774423" y="251.378654" style="fill: #ffffff; stroke: #1f77b4; stroke-width: 1.6"/>
     <use xlink:href="#m349a252740" x="291.227591" y="283.275865" style="fill: #ffffff; stroke: #1f77b4; stroke-width: 1.6"/>
     <use xlink:href="#m349a252740" x="267.877212" y="306.626245" style="fill: #ffffff; stroke: #1f77b4; stroke-width: 1.6"/>
     <use xlink:href="#m349a252740" x="235.98" y="315.173077" style="fill: #ffffff; stroke: #1f77b4; stroke-width: 1.6"/>
     <use xlink:href="#m349a252740" x="204.082788" y="306.626245" style="fill: #ffffff; stroke: #1f77b4; stroke-width: 1.6"/>
     <use xlink:href="#m349a252740" x="180.732409" y="283.275865" style="fill: #ffffff; stroke: #1f77b4; stroke-width: 1.6"/>
     <use xlink:href="#m349a252740" x="172.185577" y="251.378654" style="fill: #ffffff; stroke: #1f77b4; stroke-width: 1.6"/>
     <use xlink:href="#m349a252740" x="180.732409" y="219.481442" style="fill: #ffffff; stroke: #1f77b4; stroke-width: 1.6"/>
     <use xlink:href="#m349a252740" x="204.082788" y="196.131063" style="fill: #ffffff; stroke: #1f77b4; stroke-width: 1.6"/>
    </g>
   </g>
   <g id="PathCollection_4">
    <path d="M 235.98 192.457628 
C 237.27244 192.457628 238.512119 191.944136 239.426012 191.030243 
C 240.339905 190.11635 240.853397 188.876671 240.853397 187.584231 
C 240.853397 186.291791 240.339905 185.052112 239.426012 184.138219 
C 238.512119 183.224325 237.27244 182.710834 235.98 182.710834 
C 234.68756 182.710834 233.447881 183.224325 232.533988 184.138219 
C 231.620095 185.052112 231.106603 186.291791 231.106603 187.584231 
C 231.106603 188.876671 231.620095 190.11635 232.533988 191.030243 
C 233.447881 191.944136 234.68756 192.457628 235.98 192.457628 
L 235.98 192.457628 
z
" clip-path="url(#p3205f998bc)" style="fill: none; stroke: #ff7f0e; stroke-width: 2"/>
   </g>
  </g>
 </g>
 <defs>
  <clipPath id="p3205f998bc">
   <rect x="7.2" y="7.2" width="457.56" height="334.370769"/>
  </clipPath>
 </defs>
</svg>
