<?xml version="1.0" encoding="utf-8" standalone="no"?>
<!DOCTYPE svg PUBLIC "-//W3C//DTD SVG 1.1//EN"
  "http://www.w3.org/Graphics/SVG/1.1/DTD/svg11.dtd">
<svg xmlns:xlink="http://www.w3.org/1999/xlink" width="805.978125pt" height="458.485344pt" viewBox="0 0 805.978125 458.485344" xmlns="http://www.w3.org/2000/svg" version="1.1">
 <metadata>
  <rdf:RDF xmlns:dc="http://purl.org/dc/elements/1.1/" xmlns:cc="http://creativecommons.org/ns#" xmlns:rdf="http://www.w3.org/1999/02/22-rdf-syntax-ns#">
   <cc:Work>
    <dc:type rdf:resource="http://purl.org/dc/dcmitype/StillImage"/>
    <dc:date>2026-06-16T10:37:31.332369</dc:date>
    <dc:format>image/svg+xml</dc:format>
    <dc:creator>
     <cc:Agent>
      <dc:title>Matplotlib v3.10.8, https://matplotlib.org/</dc:title>
     </cc:Agent>
    </dc:creator>
   </cc:Work>
  </rdf:RDF>
 </metadata>
 <defs>
  <style type="text/css">*{stroke-linejoin: round; stroke-linecap: butt}</style>
 </defs>
 <g id="figure_1">
  <g id="patch_1">
   <path d="M 0 458.485344 
L 805.978125 458.485344 
L 805.978125 0 
L 0 0 
z
" style="fill: #ffffff"/>
  </g>
  <g id="axes_1">
   <g id="patch_2">
    <path d="M 119.489063 407.589656 
L 705.389063 407.589656 
L 705.389063 30.597656 
L 119.489063 30.597656 
z
" style="fill: #ffffff"/>
   </g>
   <g id="matplotlib.axis_1">
    <g id="xtick_1">
     <g id="line2d_1">
      <path d="M 177.551225 407.589656 
L 177.551225 30.597656 
" clip-path="url(#p9dbf3a75c5)" style="fill: none; stroke: #b0b0b0; stroke-opacity: 0.15; stroke-width: 0.8; stroke-linecap: square"/>
     </g>
     <g id="line2d_2">
      <defs>
       <path id="me1a05d7859" d="M 0 0 
L 0 3.5 
" style="stroke: #000000; stroke-width: 0.8"/>
      </defs>
      <g>
       <use xlink:href="#me1a05d7859" x="177.551225" y="407.589656" style="stroke: #000000; stroke-width: 0.8"/>
      </g>
     </g>
     <g id="text_1">
      <!-- 2 -->
      <g transform="translate(174.369975 422.188094) scale(0.1 -0.1)">
       <defs>
        <path id="DejaVuSans-32" d="M 1228 531 
L 3431 531 
L 3431 0 
L 469 0 
L 469 531 
Q 828 903 1448 1529 
Q 2069 2156 2228 2338 
Q 2531 2678 2651 2914 
Q 2772 3150 2772 3378 
Q 2772 3750 2511 3984 
Q 2250 4219 1831 4219 
Q 1534 4219 1204 4116 
Q 875 4013 500 3803 
L 500 4441 
Q 881 4594 1212 4672 
Q 1544 4750 1819 4750 
Q 2544 4750 2975 4387 
Q 3406 4025 3406 3419 
Q 3406 3131 3298 2873 
Q 3191 2616 2906 2266 
Q 2828 2175 2409 1742 
Q 1991 1309 1228 531 
z
" transform="scale(0.015625)"/>
       </defs>
       <use xlink:href="#DejaVuSans-32"/>
      </g>
     </g>
    </g>
    <g id="xtick_2">
     <g id="line2d_3">
      <path d="M 283.118792 407.589656 
L 283.118792 30.597656 
" clip-path="url(#p9dbf3a75c5)" style="fill: none; stroke: #b0b0b0; stroke-opacity: 0.15; stroke-width: 0.8; stroke-linecap: square"/>
     </g>
     <g id="line2d_4">
      <g>
       <use xlink:href="#me1a05d7859" x="283.118792" y="407.589656" style="stroke: #000000; stroke-width: 0.8"/>
      </g>
     </g>
     <g id="text_2">
      <!-- 3 -->
      <g transform="translate(279.937542 422.188094) scale(0.1 -0.1)">
       <defs>
        <path id="DejaVuSans-33" d="M 2597 2516 
Q 3050 2419 3304 2112 
Q 3559 1806 3559 1356 
Q 3559 666 3084 287 
Q 2609 -91 1734 -91 
Q 1441 -91 1130 -33 
Q 819 25 488 141 
L 488 750 
Q 750 597 1062 519 
Q 1375 441 1716 441 
Q 2309 441 2620 675 
Q 2931 909 2931 1356 
Q 2931 1769 2642 2001 
Q 2353 2234 1838 2234 
L 1294 2234 
L 1294 2753 
L 1863 2753 
Q 2328 2753 2575 2939 
Q 2822 3125 2822 3475 
Q 2822 3834 2567 4026 
Q 2313 4219 1838 4219 
Q 1578 4219 1281 4162 
Q 984 4106 628 3988 
L 628 4550 
Q 988 4650 1302 4700 
Q 1616 4750 1894 4750 
Q 2613 4750 3031 4423 
Q 3450 4097 3450 3541 
Q 3450 3153 3228 2886 
Q 3006 2619 2597 2516 
z
" transform="scale(0.015625)"/>
       </defs>
       <use xlink:href="#DejaVuSans-33"/>
      </g>
     </g>
    </g>
    <g id="xtick_3">
     <g id="line2d_5">
      <path d="M 388.68636 407.589656 
L 388.68636 30.597656 
" clip-path="url(#p9dbf3a75c5)" style="fill: none; stroke: #b0b0b0; stroke-opacity: 0.15; stroke-width: 0.8; stroke-linecap: square"/>
     </g>
     <g id="line2d_6">
      <g>
       <use xlink:href="#me1a05d7859" x="388.68636" y="407.589656" style="stroke: #000000; stroke-width: 0.8"/>
      </g>
     </g>
     <g id="text_3">
      <!-- 4 -->
      <g transform="translate(385.50511 422.188094) scale(0.1 -0.1)">
       <defs>
        <path id="DejaVuSans-34" d="M 2419 4116 
L 825 1625 
L 2419 1625 
L 2419 4116 
z
M 2253 4666 
L 3047 4666 
L 3047 1625 
L 3713 1625 
L 3713 1100 
L 3047 1100 
L 3047 0 
L 2419 0 
L 2419 1100 
L 313 1100 
L 313 1709 
L 2253 4666 
z
" transform="scale(0.015625)"/>
       </defs>
       <use xlink:href="#DejaVuSans-34"/>
      </g>
     </g>
    </g>
    <g id="xtick_4">
     <g id="line2d_7">
      <path d="M 494.253927 407.589656 
L 494.253927 30.597656 
" clip-path="url(#p9dbf3a75c5)" style="fill: none; stroke: #b0b0b0; stroke-opacity: 0.15; stroke-width: 0.8; stroke-linecap: square"/>
     </g>
     <g id="line2d_8">
      <g>
       <use xlink:href="#me1a05d7859" x="494.253927" y="407.589656" style="stroke: #000000; stroke-width: 0.8"/>
      </g>
     </g>
     <g id="text_4">
      <!-- 5 -->
      <g transform="translate(491.072677 422.188094) scale(0.1 -0.1)">
       <defs>
        <path id="DejaVuSans-35" d="M 691 4666 
L 3169 4666 
L 3169 4134 
L 1269 4134 
L 1269 2991 
Q 1406 3038 1543 3061 
Q 1681 3084 1819 3084 
Q 2600 3084 3056 2656 
Q 3513 2228 3513 1497 
Q 3513 744 3044 326 
Q 2575 -91 1722 -91 
Q 1428 -91 1123 -41 
Q 819 9 494 109 
L 494 744 
Q 775 591 1075 516 
Q 1375 441 1709 441 
Q 2250 441 2565 725 
Q 2881 1009 2881 1497 
Q 2881 1984 2565 2268 
Q 2250 2553 1709 2553 
Q 1456 2553 1204 2497 
Q 953 2441 691 2322 
L 691 4666 
z
" transform="scale(0.015625)"/>
       </defs>
       <use xlink:href="#DejaVuSans-35"/>
      </g>
     </g>
    </g>
    <g id="xtick_5">
     <g id="line2d_9">
      <path d="M 599.821495 407.589656 
L 599.821495 30.597656 
" clip-path="url(#p9dbf3a75c5)" style="fill: none; stroke: #b0b0b0; stroke-opacity: 0.15; stroke-width: 0.8; stroke-linecap: square"/>
     </g>
     <g id="line2d_10">
      <g>
       <use xlink:href="#me1a05d7859" x="599.821495" y="407.589656" style="stroke: #000000; stroke-width: 0.8"/>
      </g>
     </g>
     <g id="text_5">
      <!-- 6 -->
      <g transform="translate(596.640245 422.188094) scale(0.1 -0.1)">
       <defs>
        <path id="DejaVuSans-36" d="M 2113 2584 
Q 1688 2584 1439 2293 
Q 1191 2003 1191 1497 
Q 1191 994 1439 701 
Q 1688 409 2113 409 
Q 2538 409 2786 701 
Q 3034 994 3034 1497 
Q 3034 2003 2786 2293 
Q 2538 2584 2113 2584 
z
M 3366 4563 
L 3366 3988 
Q 3128 4100 2886 4159 
Q 2644 4219 2406 4219 
Q 1781 4219 1451 3797 
Q 1122 3375 1075 2522 
Q 1259 2794 1537 2939 
Q 1816 3084 2150 3084 
Q 2853 3084 3261 2657 
Q 3669 2231 3669 1497 
Q 3669 778 3244 343 
Q 2819 -91 2113 -91 
Q 1303 -91 875 529 
Q 447 1150 447 2328 
Q 447 3434 972 4092 
Q 1497 4750 2381 4750 
Q 2619 4750 2861 4703 
Q 3103 4656 3366 4563 
z
" transform="scale(0.015625)"/>
       </defs>
       <use xlink:href="#DejaVuSans-36"/>
      </g>
     </g>
    </g>
    <g id="xtick_6">
     <g id="line2d_11">
      <path d="M 705.389063 407.589656 
L 705.389063 30.597656 
" clip-path="url(#p9dbf3a75c5)" style="fill: none; stroke: #b0b0b0; stroke-opacity: 0.15; stroke-width: 0.8; stroke-linecap: square"/>
     </g>
     <g id="line2d_12">
      <g>
       <use xlink:href="#me1a05d7859" x="705.389063" y="407.589656" style="stroke: #000000; stroke-width: 0.8"/>
      </g>
     </g>
     <g id="text_6">
      <!-- 7 -->
      <g transform="translate(702.207813 422.188094) scale(0.1 -0.1)">
       <defs>
        <path id="DejaVuSans-37" d="M 525 4666 
L 3525 4666 
L 3525 4397 
L 1831 0 
L 1172 0 
L 2766 4134 
L 525 4134 
L 525 4666 
z
" transform="scale(0.015625)"/>
       </defs>
       <use xlink:href="#DejaVuSans-37"/>
      </g>
     </g>
    </g>
    <g id="text_7">
     <!-- distanza interatomica (Å) -->
     <g transform="translate(349.083594 436.789656) scale(0.1 -0.1)">
      <defs>
       <path id="DejaVuSans-64" d="M 2906 2969 
L 2906 4863 
L 3481 4863 
L 3481 0 
L 2906 0 
L 2906 525 
Q 2725 213 2448 61 
Q 2172 -91 1784 -91 
Q 1150 -91 751 415 
Q 353 922 353 1747 
Q 353 2572 751 3078 
Q 1150 3584 1784 3584 
Q 2172 3584 2448 3432 
Q 2725 3281 2906 2969 
z
M 947 1747 
Q 947 1113 1208 752 
Q 1469 391 1925 391 
Q 2381 391 2643 752 
Q 2906 1113 2906 1747 
Q 2906 2381 2643 2742 
Q 2381 3103 1925 3103 
Q 1469 3103 1208 2742 
Q 947 2381 947 1747 
z
" transform="scale(0.015625)"/>
       <path id="DejaVuSans-69" d="M 603 3500 
L 1178 3500 
L 1178 0 
L 603 0 
L 603 3500 
z
M 603 4863 
L 1178 4863 
L 1178 4134 
L 603 4134 
L 603 4863 
z
" transform="scale(0.015625)"/>
       <path id="DejaVuSans-73" d="M 2834 3397 
L 2834 2853 
Q 2591 2978 2328 3040 
Q 2066 3103 1784 3103 
Q 1356 3103 1142 2972 
Q 928 2841 928 2578 
Q 928 2378 1081 2264 
Q 1234 2150 1697 2047 
L 1894 2003 
Q 2506 1872 2764 1633 
Q 3022 1394 3022 966 
Q 3022 478 2636 193 
Q 2250 -91 1575 -91 
Q 1294 -91 989 -36 
Q 684 19 347 128 
L 347 722 
Q 666 556 975 473 
Q 1284 391 1588 391 
Q 1994 391 2212 530 
Q 2431 669 2431 922 
Q 2431 1156 2273 1281 
Q 2116 1406 1581 1522 
L 1381 1569 
Q 847 1681 609 1914 
Q 372 2147 372 2553 
Q 372 3047 722 3315 
Q 1072 3584 1716 3584 
Q 2034 3584 2315 3537 
Q 2597 3491 2834 3397 
z
" transform="scale(0.015625)"/>
       <path id="DejaVuSans-74" d="M 1172 4494 
L 1172 3500 
L 2356 3500 
L 2356 3053 
L 1172 3053 
L 1172 1153 
Q 1172 725 1289 603 
Q 1406 481 1766 481 
L 2356 481 
L 2356 0 
L 1766 0 
Q 1100 0 847 248 
Q 594 497 594 1153 
L 594 3053 
L 172 3053 
L 172 3500 
L 594 3500 
L 594 4494 
L 1172 4494 
z
" transform="scale(0.015625)"/>
       <path id="DejaVuSans-61" d="M 2194 1759 
Q 1497 1759 1228 1600 
Q 959 1441 959 1056 
Q 959 750 1161 570 
Q 1363 391 1709 391 
Q 2188 391 2477 730 
Q 2766 1069 2766 1631 
L 2766 1759 
L 2194 1759 
z
M 3341 1997 
L 3341 0 
L 2766 0 
L 2766 531 
Q 2569 213 2275 61 
Q 1981 -91 1556 -91 
Q 1019 -91 701 211 
Q 384 513 384 1019 
Q 384 1609 779 1909 
Q 1175 2209 1959 2209 
L 2766 2209 
L 2766 2266 
Q 2766 2663 2505 2880 
Q 2244 3097 1772 3097 
Q 1472 3097 1187 3025 
Q 903 2953 641 2809 
L 641 3341 
Q 956 3463 1253 3523 
Q 1550 3584 1831 3584 
Q 2591 3584 2966 3190 
Q 3341 2797 3341 1997 
z
" transform="scale(0.015625)"/>
       <path id="DejaVuSans-6e" d="M 3513 2113 
L 3513 0 
L 2938 0 
L 2938 2094 
Q 2938 2591 2744 2837 
Q 2550 3084 2163 3084 
Q 1697 3084 1428 2787 
Q 1159 2491 1159 1978 
L 1159 0 
L 581 0 
L 581 3500 
L 1159 3500 
L 1159 2956 
Q 1366 3272 1645 3428 
Q 1925 3584 2291 3584 
Q 2894 3584 3203 3211 
Q 3513 2838 3513 2113 
z
" transform="scale(0.015625)"/>
       <path id="DejaVuSans-7a" d="M 353 3500 
L 3084 3500 
L 3084 2975 
L 922 459 
L 3084 459 
L 3084 0 
L 275 0 
L 275 525 
L 2438 3041 
L 353 3041 
L 353 3500 
z
" transform="scale(0.015625)"/>
       <path id="DejaVuSans-20" transform="scale(0.015625)"/>
       <path id="DejaVuSans-65" d="M 3597 1894 
L 3597 1613 
L 953 1613 
Q 991 1019 1311 708 
Q 1631 397 2203 397 
Q 2534 397 2845 478 
Q 3156 559 3463 722 
L 3463 178 
Q 3153 47 2828 -22 
Q 2503 -91 2169 -91 
Q 1331 -91 842 396 
Q 353 884 353 1716 
Q 353 2575 817 3079 
Q 1281 3584 2069 3584 
Q 2775 3584 3186 3129 
Q 3597 2675 3597 1894 
z
M 3022 2063 
Q 3016 2534 2758 2815 
Q 2500 3097 2075 3097 
Q 1594 3097 1305 2825 
Q 1016 2553 972 2059 
L 3022 2063 
z
" transform="scale(0.015625)"/>
       <path id="DejaVuSans-72" d="M 2631 2963 
Q 2534 3019 2420 3045 
Q 2306 3072 2169 3072 
Q 1681 3072 1420 2755 
Q 1159 2438 1159 1844 
L 1159 0 
L 581 0 
L 581 3500 
L 1159 3500 
L 1159 2956 
Q 1341 3275 1631 3429 
Q 1922 3584 2338 3584 
Q 2397 3584 2469 3576 
Q 2541 3569 2628 3553 
L 2631 2963 
z
" transform="scale(0.015625)"/>
       <path id="DejaVuSans-6f" d="M 1959 3097 
Q 1497 3097 1228 2736 
Q 959 2375 959 1747 
Q 959 1119 1226 758 
Q 1494 397 1959 397 
Q 2419 397 2687 759 
Q 2956 1122 2956 1747 
Q 2956 2369 2687 2733 
Q 2419 3097 1959 3097 
z
M 1959 3584 
Q 2709 3584 3137 3096 
Q 3566 2609 3566 1747 
Q 3566 888 3137 398 
Q 2709 -91 1959 -91 
Q 1206 -91 779 398 
Q 353 888 353 1747 
Q 353 2609 779 3096 
Q 1206 3584 1959 3584 
z
" transform="scale(0.015625)"/>
       <path id="DejaVuSans-6d" d="M 3328 2828 
Q 3544 3216 3844 3400 
Q 4144 3584 4550 3584 
Q 5097 3584 5394 3201 
Q 5691 2819 5691 2113 
L 5691 0 
L 5113 0 
L 5113 2094 
Q 5113 2597 4934 2840 
Q 4756 3084 4391 3084 
Q 3944 3084 3684 2787 
Q 3425 2491 3425 1978 
L 3425 0 
L 2847 0 
L 2847 2094 
Q 2847 2600 2669 2842 
Q 2491 3084 2119 3084 
Q 1678 3084 1418 2786 
Q 1159 2488 1159 1978 
L 1159 0 
L 581 0 
L 581 3500 
L 1159 3500 
L 1159 2956 
Q 1356 3278 1631 3431 
Q 1906 3584 2284 3584 
Q 2666 3584 2933 3390 
Q 3200 3197 3328 2828 
z
" transform="scale(0.015625)"/>
       <path id="DejaVuSans-63" d="M 3122 3366 
L 3122 2828 
Q 2878 2963 2633 3030 
Q 2388 3097 2138 3097 
Q 1578 3097 1268 2742 
Q 959 2388 959 1747 
Q 959 1106 1268 751 
Q 1578 397 2138 397 
Q 2388 397 2633 464 
Q 2878 531 3122 666 
L 3122 134 
Q 2881 22 2623 -34 
Q 2366 -91 2075 -91 
Q 1284 -91 818 406 
Q 353 903 353 1747 
Q 353 2603 823 3093 
Q 1294 3584 2113 3584 
Q 2378 3584 2631 3529 
Q 2884 3475 3122 3366 
z
" transform="scale(0.015625)"/>
       <path id="DejaVuSans-28" d="M 1984 4856 
Q 1566 4138 1362 3434 
Q 1159 2731 1159 2009 
Q 1159 1288 1364 580 
Q 1569 -128 1984 -844 
L 1484 -844 
Q 1016 -109 783 600 
Q 550 1309 550 2009 
Q 550 2706 781 3412 
Q 1013 4119 1484 4856 
L 1984 4856 
z
" transform="scale(0.015625)"/>
       <path id="DejaVuSans-c5" d="M 2663 5081 
Q 2663 5278 2523 5417 
Q 2384 5556 2188 5556 
Q 1988 5556 1852 5420 
Q 1716 5284 1716 5081 
Q 1716 4884 1853 4746 
Q 1991 4609 2188 4609 
Q 2384 4609 2523 4746 
Q 2663 4884 2663 5081 
z
M 2188 4044 
L 1338 1722 
L 3041 1722 
L 2188 4044 
z
M 1716 4366 
Q 1525 4494 1428 4673 
Q 1331 4853 1331 5081 
Q 1331 5441 1579 5691 
Q 1828 5941 2188 5941 
Q 2544 5941 2795 5689 
Q 3047 5438 3047 5081 
Q 3047 4863 2948 4678 
Q 2850 4494 2663 4366 
L 4325 0 
L 3669 0 
L 3244 1197 
L 1141 1197 
L 716 0 
L 50 0 
L 1716 4366 
z
" transform="scale(0.015625)"/>
       <path id="DejaVuSans-29" d="M 513 4856 
L 1013 4856 
Q 1481 4119 1714 3412 
Q 1947 2706 1947 2009 
Q 1947 1309 1714 600 
Q 1481 -109 1013 -844 
L 513 -844 
Q 928 -128 1133 580 
Q 1338 1288 1338 2009 
Q 1338 2731 1133 3434 
Q 928 4138 513 4856 
z
" transform="scale(0.015625)"/>
      </defs>
      <use xlink:href="#DejaVuSans-64"/>
      <use xlink:href="#DejaVuSans-69" transform="translate(63.476562 0)"/>
      <use xlink:href="#DejaVuSans-73" transform="translate(91.259766 0)"/>
      <use xlink:href="#DejaVuSans-74" transform="translate(143.359375 0)"/>
      <use xlink:href="#DejaVuSans-61" transform="translate(182.568359 0)"/>
      <use xlink:href="#DejaVuSans-6e" transform="translate(243.847656 0)"/>
      <use xlink:href="#DejaVuSans-7a" transform="translate(307.226562 0)"/>
      <use xlink:href="#DejaVuSans-61" transform="translate(359.716797 0)"/>
      <use xlink:href="#DejaVuSans-20" transform="translate(420.996094 0)"/>
      <use xlink:href="#DejaVuSans-69" transform="translate(452.783203 0)"/>
      <use xlink:href="#DejaVuSans-6e" transform="translate(480.566406 0)"/>
      <use xlink:href="#DejaVuSans-74" transform="translate(543.945312 0)"/>
      <use xlink:href="#DejaVuSans-65" transform="translate(583.154297 0)"/>
      <use xlink:href="#DejaVuSans-72" transform="translate(644.677734 0)"/>
      <use xlink:href="#DejaVuSans-61" transform="translate(685.791016 0)"/>
      <use xlink:href="#DejaVuSans-74" transform="translate(747.070312 0)"/>
      <use xlink:href="#DejaVuSans-6f" transform="translate(786.279297 0)"/>
      <use xlink:href="#DejaVuSans-6d" transform="translate(847.460938 0)"/>
      <use xlink:href="#DejaVuSans-69" transform="translate(944.873047 0)"/>
      <use xlink:href="#DejaVuSans-63" transform="translate(972.65625 0)"/>
      <use xlink:href="#DejaVuSans-61" transform="translate(1027.636719 0)"/>
      <use xlink:href="#DejaVuSans-20" transform="translate(1088.916016 0)"/>
      <use xlink:href="#DejaVuSans-28" transform="translate(1120.703125 0)"/>
      <use xlink:href="#DejaVuSans-c5" transform="translate(1159.716797 0)"/>
      <use xlink:href="#DejaVuSans-29" transform="translate(1228.125 0)"/>
     </g>
    </g>
   </g>
   <g id="matplotlib.axis_2">
    <g id="ytick_1">
     <g id="line2d_13">
      <path d="M 119.489063 407.589656 
L 705.389063 407.589656 
" clip-path="url(#p9dbf3a75c5)" style="fill: none; stroke: #b0b0b0; stroke-opacity: 0.15; stroke-width: 0.8; stroke-linecap: square"/>
     </g>
     <g id="line2d_14">
      <defs>
       <path id="meb1a54fab2" d="M 0 0 
L -3.5 0 
" style="stroke: #000000; stroke-width: 0.8"/>
      </defs>
      <g>
       <use xlink:href="#meb1a54fab2" x="119.489063" y="407.589656" style="stroke: #000000; stroke-width: 0.8"/>
      </g>
     </g>
     <g id="text_8">
      <!-- 0 -->
      <g transform="translate(106.126563 411.388875) scale(0.1 -0.1)">
       <defs>
        <path id="DejaVuSans-30" d="M 2034 4250 
Q 1547 4250 1301 3770 
Q 1056 3291 1056 2328 
Q 1056 1369 1301 889 
Q 1547 409 2034 409 
Q 2525 409 2770 889 
Q 3016 1369 3016 2328 
Q 3016 3291 2770 3770 
Q 2525 4250 2034 4250 
z
M 2034 4750 
Q 2819 4750 3233 4129 
Q 3647 3509 3647 2328 
Q 3647 1150 3233 529 
Q 2819 -91 2034 -91 
Q 1250 -91 836 529 
Q 422 1150 422 2328 
Q 422 3509 836 4129 
Q 1250 4750 2034 4750 
z
" transform="scale(0.015625)"/>
       </defs>
       <use xlink:href="#DejaVuSans-30"/>
      </g>
     </g>
    </g>
    <g id="ytick_2">
     <g id="line2d_15">
      <path d="M 119.489063 339.045656 
L 705.389063 339.045656 
" clip-path="url(#p9dbf3a75c5)" style="fill: none; stroke: #b0b0b0; stroke-opacity: 0.15; stroke-width: 0.8; stroke-linecap: square"/>
     </g>
     <g id="line2d_16">
      <g>
       <use xlink:href="#meb1a54fab2" x="119.489063" y="339.045656" style="stroke: #000000; stroke-width: 0.8"/>
      </g>
     </g>
     <g id="text_9">
      <!-- 2 -->
      <g transform="translate(106.126563 342.844875) scale(0.1 -0.1)">
       <use xlink:href="#DejaVuSans-32"/>
      </g>
     </g>
    </g>
    <g id="ytick_3">
     <g id="line2d_17">
      <path d="M 119.489063 270.501656 
L 705.389063 270.501656 
" clip-path="url(#p9dbf3a75c5)" style="fill: none; stroke: #b0b0b0; stroke-opacity: 0.15; stroke-width: 0.8; stroke-linecap: square"/>
     </g>
     <g id="line2d_18">
      <g>
       <use xlink:href="#meb1a54fab2" x="119.489063" y="270.501656" style="stroke: #000000; stroke-width: 0.8"/>
      </g>
     </g>
     <g id="text_10">
      <!-- 4 -->
      <g transform="translate(106.126563 274.300875) scale(0.1 -0.1)">
       <use xlink:href="#DejaVuSans-34"/>
      </g>
     </g>
    </g>
    <g id="ytick_4">
     <g id="line2d_19">
      <path d="M 119.489063 201.957656 
L 705.389063 201.957656 
" clip-path="url(#p9dbf3a75c5)" style="fill: none; stroke: #b0b0b0; stroke-opacity: 0.15; stroke-width: 0.8; stroke-linecap: square"/>
     </g>
     <g id="line2d_20">
      <g>
       <use xlink:href="#meb1a54fab2" x="119.489063" y="201.957656" style="stroke: #000000; stroke-width: 0.8"/>
      </g>
     </g>
     <g id="text_11">
      <!-- 6 -->
      <g transform="translate(106.126563 205.756875) scale(0.1 -0.1)">
       <use xlink:href="#DejaVuSans-36"/>
      </g>
     </g>
    </g>
    <g id="ytick_5">
     <g id="line2d_21">
      <path d="M 119.489063 133.413656 
L 705.389063 133.413656 
" clip-path="url(#p9dbf3a75c5)" style="fill: none; stroke: #b0b0b0; stroke-opacity: 0.15; stroke-width: 0.8; stroke-linecap: square"/>
     </g>
     <g id="line2d_22">
      <g>
       <use xlink:href="#meb1a54fab2" x="119.489063" y="133.413656" style="stroke: #000000; stroke-width: 0.8"/>
      </g>
     </g>
     <g id="text_12">
      <!-- 8 -->
      <g transform="translate(106.126563 137.212875) scale(0.1 -0.1)">
       <defs>
        <path id="DejaVuSans-38" d="M 2034 2216 
Q 1584 2216 1326 1975 
Q 1069 1734 1069 1313 
Q 1069 891 1326 650 
Q 1584 409 2034 409 
Q 2484 409 2743 651 
Q 3003 894 3003 1313 
Q 3003 1734 2745 1975 
Q 2488 2216 2034 2216 
z
M 1403 2484 
Q 997 2584 770 2862 
Q 544 3141 544 3541 
Q 544 4100 942 4425 
Q 1341 4750 2034 4750 
Q 2731 4750 3128 4425 
Q 3525 4100 3525 3541 
Q 3525 3141 3298 2862 
Q 3072 2584 2669 2484 
Q 3125 2378 3379 2068 
Q 3634 1759 3634 1313 
Q 3634 634 3220 271 
Q 2806 -91 2034 -91 
Q 1263 -91 848 271 
Q 434 634 434 1313 
Q 434 1759 690 2068 
Q 947 2378 1403 2484 
z
M 1172 3481 
Q 1172 3119 1398 2916 
Q 1625 2713 2034 2713 
Q 2441 2713 2670 2916 
Q 2900 3119 2900 3481 
Q 2900 3844 2670 4047 
Q 2441 4250 2034 4250 
Q 1625 4250 1398 4047 
Q 1172 3844 1172 3481 
z
" transform="scale(0.015625)"/>
       </defs>
       <use xlink:href="#DejaVuSans-38"/>
      </g>
     </g>
    </g>
    <g id="ytick_6">
     <g id="line2d_23">
      <path d="M 119.489063 64.869656 
L 705.389063 64.869656 
" clip-path="url(#p9dbf3a75c5)" style="fill: none; stroke: #b0b0b0; stroke-opacity: 0.15; stroke-width: 0.8; stroke-linecap: square"/>
     </g>
     <g id="line2d_24">
      <g>
       <use xlink:href="#meb1a54fab2" x="119.489063" y="64.869656" style="stroke: #000000; stroke-width: 0.8"/>
      </g>
     </g>
     <g id="text_13">
      <!-- 10 -->
      <g transform="translate(99.764062 68.668875) scale(0.1 -0.1)">
       <defs>
        <path id="DejaVuSans-31" d="M 794 531 
L 1825 531 
L 1825 4091 
L 703 3866 
L 703 4441 
L 1819 4666 
L 2450 4666 
L 2450 531 
L 3481 531 
L 3481 0 
L 794 0 
L 794 531 
z
" transform="scale(0.015625)"/>
       </defs>
       <use xlink:href="#DejaVuSans-31"/>
       <use xlink:href="#DejaVuSans-30" transform="translate(63.623047 0)"/>
      </g>
     </g>
    </g>
    <g id="text_14">
     <!-- funzione di correlazione a coppie $g(r)$ -->
     <g transform="translate(93.664062 312.643656) rotate(-90) scale(0.1 -0.1)">
      <defs>
       <path id="DejaVuSans-66" d="M 2375 4863 
L 2375 4384 
L 1825 4384 
Q 1516 4384 1395 4259 
Q 1275 4134 1275 3809 
L 1275 3500 
L 2222 3500 
L 2222 3053 
L 1275 3053 
L 1275 0 
L 697 0 
L 697 3053 
L 147 3053 
L 147 3500 
L 697 3500 
L 697 3744 
Q 697 4328 969 4595 
Q 1241 4863 1831 4863 
L 2375 4863 
z
" transform="scale(0.015625)"/>
       <path id="DejaVuSans-75" d="M 544 1381 
L 544 3500 
L 1119 3500 
L 1119 1403 
Q 1119 906 1312 657 
Q 1506 409 1894 409 
Q 2359 409 2629 706 
Q 2900 1003 2900 1516 
L 2900 3500 
L 3475 3500 
L 3475 0 
L 2900 0 
L 2900 538 
Q 2691 219 2414 64 
Q 2138 -91 1772 -91 
Q 1169 -91 856 284 
Q 544 659 544 1381 
z
M 1991 3584 
L 1991 3584 
z
" transform="scale(0.015625)"/>
       <path id="DejaVuSans-6c" d="M 603 4863 
L 1178 4863 
L 1178 0 
L 603 0 
L 603 4863 
z
" transform="scale(0.015625)"/>
       <path id="DejaVuSans-70" d="M 1159 525 
L 1159 -1331 
L 581 -1331 
L 581 3500 
L 1159 3500 
L 1159 2969 
Q 1341 3281 1617 3432 
Q 1894 3584 2278 3584 
Q 2916 3584 3314 3078 
Q 3713 2572 3713 1747 
Q 3713 922 3314 415 
Q 2916 -91 2278 -91 
Q 1894 -91 1617 61 
Q 1341 213 1159 525 
z
M 3116 1747 
Q 3116 2381 2855 2742 
Q 2594 3103 2138 3103 
Q 1681 3103 1420 2742 
Q 1159 2381 1159 1747 
Q 1159 1113 1420 752 
Q 1681 391 2138 391 
Q 2594 391 2855 752 
Q 3116 1113 3116 1747 
z
" transform="scale(0.015625)"/>
       <path id="DejaVuSans-Oblique-67" d="M 3816 3500 
L 3219 434 
Q 3047 -456 2561 -893 
Q 2075 -1331 1253 -1331 
Q 950 -1331 690 -1286 
Q 431 -1241 206 -1147 
L 313 -588 
Q 525 -725 762 -790 
Q 1000 -856 1269 -856 
Q 1816 -856 2167 -557 
Q 2519 -259 2631 300 
L 2681 563 
Q 2441 288 2122 144 
Q 1803 0 1434 0 
Q 903 0 598 351 
Q 294 703 294 1319 
Q 294 1803 478 2267 
Q 663 2731 997 3091 
Q 1219 3328 1514 3456 
Q 1809 3584 2131 3584 
Q 2484 3584 2746 3420 
Q 3009 3256 3138 2956 
L 3238 3500 
L 3816 3500 
z
M 2950 2216 
Q 2950 2641 2750 2872 
Q 2550 3103 2181 3103 
Q 1953 3103 1747 3012 
Q 1541 2922 1394 2759 
Q 1156 2491 1023 2127 
Q 891 1763 891 1375 
Q 891 944 1092 712 
Q 1294 481 1672 481 
Q 2219 481 2584 976 
Q 2950 1472 2950 2216 
z
" transform="scale(0.015625)"/>
       <path id="DejaVuSans-Oblique-72" d="M 2853 2969 
Q 2766 3016 2653 3041 
Q 2541 3066 2413 3066 
Q 1953 3066 1609 2717 
Q 1266 2369 1153 1784 
L 800 0 
L 225 0 
L 909 3500 
L 1484 3500 
L 1375 2956 
Q 1603 3259 1920 3421 
Q 2238 3584 2597 3584 
Q 2691 3584 2781 3573 
Q 2872 3563 2963 3538 
L 2853 2969 
z
" transform="scale(0.015625)"/>
      </defs>
      <use xlink:href="#DejaVuSans-66" transform="translate(0 0.015625)"/>
      <use xlink:href="#DejaVuSans-75" transform="translate(35.205078 0.015625)"/>
      <use xlink:href="#DejaVuSans-6e" transform="translate(98.583984 0.015625)"/>
      <use xlink:href="#DejaVuSans-7a" transform="translate(161.962891 0.015625)"/>
      <use xlink:href="#DejaVuSans-69" transform="translate(214.453125 0.015625)"/>
      <use xlink:href="#DejaVuSans-6f" transform="translate(242.236328 0.015625)"/>
      <use xlink:href="#DejaVuSans-6e" transform="translate(303.417969 0.015625)"/>
      <use xlink:href="#DejaVuSans-65" transform="translate(366.796875 0.015625)"/>
      <use xlink:href="#DejaVuSans-20" transform="translate(428.320312 0.015625)"/>
      <use xlink:href="#DejaVuSans-64" transform="translate(460.107422 0.015625)"/>
      <use xlink:href="#DejaVuSans-69" transform="translate(523.583984 0.015625)"/>
      <use xlink:href="#DejaVuSans-20" transform="translate(551.367188 0.015625)"/>
      <use xlink:href="#DejaVuSans-63" transform="translate(583.154297 0.015625)"/>
      <use xlink:href="#DejaVuSans-6f" transform="translate(638.134766 0.015625)"/>
      <use xlink:href="#DejaVuSans-72" transform="translate(699.316406 0.015625)"/>
      <use xlink:href="#DejaVuSans-72" transform="translate(740.429688 0.015625)"/>
      <use xlink:href="#DejaVuSans-65" transform="translate(781.542969 0.015625)"/>
      <use xlink:href="#DejaVuSans-6c" transform="translate(843.066406 0.015625)"/>
      <use xlink:href="#DejaVuSans-61" transform="translate(870.849609 0.015625)"/>
      <use xlink:href="#DejaVuSans-7a" transform="translate(932.128906 0.015625)"/>
      <use xlink:href="#DejaVuSans-69" transform="translate(984.619141 0.015625)"/>
      <use xlink:href="#DejaVuSans-6f" transform="translate(1012.402344 0.015625)"/>
      <use xlink:href="#DejaVuSans-6e" transform="translate(1073.583984 0.015625)"/>
      <use xlink:href="#DejaVuSans-65" transform="translate(1136.962891 0.015625)"/>
      <use xlink:href="#DejaVuSans-20" transform="translate(1198.486328 0.015625)"/>
      <use xlink:href="#DejaVuSans-61" transform="translate(1230.273438 0.015625)"/>
      <use xlink:href="#DejaVuSans-20" transform="translate(1291.552734 0.015625)"/>
      <use xlink:href="#DejaVuSans-63" transform="translate(1323.339844 0.015625)"/>
      <use xlink:href="#DejaVuSans-6f" transform="translate(1378.320312 0.015625)"/>
      <use xlink:href="#DejaVuSans-70" transform="translate(1439.501953 0.015625)"/>
      <use xlink:href="#DejaVuSans-70" transform="translate(1502.978516 0.015625)"/>
      <use xlink:href="#DejaVuSans-69" transform="translate(1566.455078 0.015625)"/>
      <use xlink:href="#DejaVuSans-65" transform="translate(1594.238281 0.015625)"/>
      <use xlink:href="#DejaVuSans-20" transform="translate(1655.761719 0.015625)"/>
      <use xlink:href="#DejaVuSans-Oblique-67" transform="translate(1687.548828 0.015625)"/>
      <use xlink:href="#DejaVuSans-28" transform="translate(1751.025391 0.015625)"/>
      <use xlink:href="#DejaVuSans-Oblique-72" transform="translate(1790.039062 0.015625)"/>
      <use xlink:href="#DejaVuSans-29" transform="translate(1831.152344 0.015625)"/>
     </g>
    </g>
   </g>
   <g id="line2d_25">
    <path d="M 119.489063 404.417848 
L 122.686334 404.400803 
L 125.883605 404.16151 
L 129.347316 403.668743 
L 133.077466 402.903283 
L 137.606934 401.727069 
L 146.932309 398.977693 
L 151.994656 397.639331 
L 155.991245 396.808305 
L 159.454956 396.304202 
L 162.918667 396.030539 
L 166.115938 395.994525 
L 169.31321 396.166223 
L 172.776921 396.573565 
L 176.507071 397.238761 
L 181.036539 398.291676 
L 187.96396 400.174113 
L 194.092064 401.760466 
L 195.957139 402.066574 
L 197.022896 402.082153 
L 197.822214 401.933921 
L 198.621532 401.553293 
L 199.15441 401.106841 
L 199.687289 400.445455 
L 200.220168 399.501805 
L 200.753046 398.193001 
L 201.285925 396.419149 
L 201.818803 394.062617 
L 202.351682 390.988307 
L 203.151 384.69735 
L 203.950318 375.89272 
L 204.749635 364.002555 
L 205.548953 348.509217 
L 206.348271 329.041392 
L 207.414028 296.744677 
L 208.746225 247.453994 
L 211.943496 122.054352 
L 212.742814 99.646883 
L 213.275693 88.71719 
L 213.808571 81.471319 
L 214.075011 79.318678 
L 214.34145 78.175922 
L 214.607889 78.053587 
L 214.874329 78.952596 
L 215.140768 80.864243 
L 215.673646 87.643471 
L 216.206525 98.137936 
L 217.005843 119.975769 
L 218.0716 157.692973 
L 222.068189 310.867893 
L 223.133947 339.735909 
L 223.933264 356.652501 
L 224.732582 369.801557 
L 225.5319 379.655159 
L 226.331218 386.773782 
L 227.130536 391.726959 
L 227.929854 395.038326 
L 228.729172 397.154487 
L 229.52849 398.43359 
L 230.327807 399.147933 
L 231.127125 399.494866 
L 231.926443 399.611283 
L 233.25864 399.5255 
L 235.390154 399.104216 
L 242.584015 397.57027 
L 246.580604 396.975416 
L 250.310754 396.647686 
L 253.774465 396.5584 
L 257.238176 396.679401 
L 260.968326 397.033436 
L 264.964915 397.639067 
L 269.760822 398.602562 
L 278.553319 400.66358 
L 284.681423 401.972959 
L 288.944451 402.669794 
L 292.941041 403.099539 
L 296.671191 403.276708 
L 300.401341 403.227628 
L 304.131491 402.958595 
L 308.12808 402.450954 
L 312.923987 401.603595 
L 320.117848 400.062772 
L 328.111027 398.408376 
L 332.906934 397.653798 
L 337.169963 397.209125 
L 344.896702 396.497141 
L 346.228899 396.106536 
L 347.294656 395.608212 
L 348.360413 394.866594 
L 349.42617 393.788273 
L 350.225488 392.689964 
L 351.024806 391.280742 
L 351.824124 389.496788 
L 352.623442 387.268362 
L 353.42276 384.521263 
L 354.488517 379.919398 
L 355.554274 374.081214 
L 356.620031 366.845983 
L 357.685788 358.089465 
L 359.017985 344.910382 
L 360.350181 329.305623 
L 361.948817 307.818719 
L 365.146088 260.499486 
L 367.011163 234.974213 
L 368.076921 222.771694 
L 369.142678 213.069787 
L 369.941996 207.742574 
L 370.474874 205.213636 
L 371.007753 203.54512 
L 371.540631 202.760679 
L 371.807071 202.704135 
L 372.07351 202.872075 
L 372.339949 203.264066 
L 372.872828 204.714679 
L 373.405706 207.037448 
L 374.205024 212.08791 
L 375.004342 218.883259 
L 376.070099 230.315177 
L 377.402296 247.606706 
L 379.53381 279.228748 
L 382.464642 322.552222 
L 384.063278 342.949002 
L 385.395475 357.358766 
L 386.727671 369.251213 
L 387.793428 376.997356 
L 388.859185 383.289424 
L 389.924942 388.280759 
L 390.9907 392.146424 
L 392.056457 395.06683 
L 393.122214 397.215262 
L 394.187971 398.749404 
L 395.253728 399.806492 
L 396.319485 400.501457 
L 397.385243 400.927296 
L 398.717439 401.1905 
L 400.316075 401.245169 
L 402.447589 401.058606 
L 405.378421 400.545096 
L 408.309253 399.816394 
L 410.440768 399.091519 
L 412.305843 398.220321 
L 413.904479 397.192568 
L 415.236675 396.048271 
L 416.568872 394.549219 
L 417.634629 393.024775 
L 418.700386 391.146486 
L 419.766143 388.850099 
L 420.8319 386.069712 
L 421.897657 382.74109 
L 423.229854 377.721334 
L 424.56205 371.665472 
L 425.894247 364.527286 
L 427.492882 354.556729 
L 429.357957 341.216488 
L 432.02235 320.14885 
L 434.953183 297.383372 
L 436.551818 286.81122 
L 437.617575 281.006109 
L 438.683333 276.438377 
L 439.48265 273.927029 
L 440.281968 272.260325 
L 440.814847 271.637208 
L 441.347726 271.412445 
L 441.880604 271.588676 
L 442.413483 272.164782 
L 442.946361 273.135904 
L 443.745679 275.313629 
L 444.544997 278.316651 
L 445.610754 283.498983 
L 446.676511 289.860309 
L 448.008708 299.140702 
L 449.873783 313.774135 
L 454.403251 350.115295 
L 456.268326 362.942332 
L 457.866962 372.306689 
L 459.199158 378.885055 
L 460.531354 384.37202 
L 461.863551 388.841445 
L 462.929308 391.755328 
L 463.995065 394.14912 
L 465.060822 396.088711 
L 466.12658 397.639151 
L 467.192337 398.861997 
L 468.524533 400.014974 
L 469.85673 400.83923 
L 471.188926 401.413866 
L 472.787562 401.861621 
L 474.652637 402.151214 
L 477.05059 402.285902 
L 480.247862 402.21727 
L 484.244451 401.898252 
L 489.306798 401.26446 
L 495.96778 400.195572 
L 502.095884 399.009341 
L 505.293155 398.18063 
L 507.691109 397.322165 
L 509.556184 396.413727 
L 511.15482 395.391496 
L 512.753455 394.070503 
L 514.085652 392.684714 
L 515.417848 390.988734 
L 516.750045 388.935186 
L 518.082241 386.480728 
L 519.414438 383.590106 
L 521.013073 379.514905 
L 522.611709 374.77454 
L 524.476784 368.461427 
L 526.608299 360.420416 
L 532.469963 337.647717 
L 534.068599 332.566781 
L 535.400795 329.116269 
L 536.466552 326.974652 
L 537.26587 325.769961 
L 538.065188 324.93182 
L 538.864506 324.474547 
L 539.397384 324.385746 
L 539.930263 324.471175 
L 540.463142 324.730669 
L 541.262459 325.442953 
L 542.061777 326.533883 
L 542.861095 327.988027 
L 543.926852 330.455128 
L 544.99261 333.467569 
L 546.324806 337.883883 
L 548.189881 344.97571 
L 551.653592 359.376341 
L 554.317985 369.954939 
L 556.18306 376.426125 
L 557.781696 381.111636 
L 559.113892 384.307025 
L 560.179649 386.355022 
L 561.245406 387.922292 
L 562.044724 388.767615 
L 562.844042 389.319015 
L 563.64336 389.566757 
L 564.442678 389.501115 
L 565.241996 389.112383 
L 566.041314 388.39101 
L 566.840631 387.327866 
L 567.639949 385.914641 
L 568.705706 383.473974 
L 569.771464 380.387957 
L 570.837221 376.655048 
L 572.169417 371.097508 
L 573.501614 364.604965 
L 575.100249 355.73138 
L 577.231764 342.553764 
L 581.761232 314.109118 
L 583.359867 305.79517 
L 584.425625 301.23254 
L 585.491382 297.622533 
L 586.2907 295.610243 
L 587.090017 294.235008 
L 587.622896 293.684666 
L 588.155775 293.432739 
L 588.688653 293.480871 
L 589.221532 293.828159 
L 589.75441 294.471164 
L 590.287289 295.403961 
L 591.086607 297.327668 
L 591.885925 299.846519 
L 592.951682 304.046454 
L 594.283878 310.450588 
L 595.882514 319.409309 
L 598.813346 337.563722 
L 601.477739 353.568238 
L 603.076375 362.034622 
L 604.408571 368.154934 
L 605.740768 373.297003 
L 606.806525 376.654373 
L 607.872282 379.314332 
L 608.6716 380.844791 
L 609.470918 381.975785 
L 610.270236 382.709016 
L 610.803114 382.978804 
L 611.335993 383.075413 
L 611.868872 383.001138 
L 612.40175 382.758781 
L 613.201068 382.087572 
L 614.000386 381.0597 
L 614.799704 379.692472 
L 615.865461 377.37896 
L 617.197657 373.789603 
L 618.796293 368.672104 
L 621.460686 359.120987 
L 623.5922 351.741914 
L 624.924397 347.800066 
L 625.990154 345.231541 
L 626.789472 343.721887 
L 627.58879 342.613152 
L 628.388108 341.934887 
L 628.920986 341.731878 
L 629.453865 341.732115 
L 629.986743 341.93649 
L 630.519622 342.34369 
L 631.31894 343.326586 
L 632.118258 344.736955 
L 633.184015 347.228667 
L 634.249772 350.33024 
L 635.581968 354.886844 
L 637.713483 363.143446 
L 641.443633 377.686778 
L 643.042269 383.063781 
L 644.374465 386.923304 
L 645.706661 390.158705 
L 647.038858 392.753479 
L 648.104615 394.374111 
L 649.170372 395.603427 
L 650.236129 396.456865 
L 651.035447 396.859543 
L 651.834765 397.06506 
L 652.634083 397.07785 
L 653.433401 396.900912 
L 654.232719 396.535712 
L 655.298476 395.755666 
L 656.364233 394.637092 
L 657.42999 393.173521 
L 658.495747 391.357512 
L 659.827944 388.582895 
L 661.16014 385.245666 
L 662.758776 380.521088 
L 664.357412 375.083922 
L 666.488926 366.979314 
L 671.551273 347.182172 
L 673.149908 342.051036 
L 674.215666 339.241376 
L 675.281423 337.022489 
L 676.080741 335.788179 
L 676.880058 334.946924 
L 677.412937 334.611875 
L 677.945816 334.460473 
L 678.478694 334.493567 
L 679.011573 334.710454 
L 679.544451 335.108888 
L 680.343769 336.038313 
L 681.143087 337.348661 
L 682.208844 339.643344 
L 683.274601 342.492584 
L 684.606798 346.693913 
L 686.471873 353.410124 
L 692.333537 375.211729 
L 693.932173 380.166358 
L 695.530809 384.431834 
L 696.863005 387.441536 
L 698.195202 389.971295 
L 699.527398 392.056087 
L 700.859595 393.743625 
L 702.191791 395.088334 
L 703.523987 396.146308 
L 705.122623 397.112946 
L 705.389063 397.247485 
L 705.389063 397.247485 
" clip-path="url(#p9dbf3a75c5)" style="fill: none; stroke: #1f77b4; stroke-width: 1.9; stroke-linecap: square"/>
   </g>
   <g id="line2d_26">
    <path d="M 119.489063 407.586925 
L 132.811027 407.465634 
L 137.606934 407.210417 
L 141.070645 406.808007 
L 143.735038 406.289857 
L 146.132992 405.606865 
L 148.264506 404.783512 
L 150.39602 403.721449 
L 152.527535 402.395457 
L 154.659049 400.794747 
L 157.057002 398.678437 
L 159.721395 395.998883 
L 168.780331 386.552423 
L 170.645406 385.100363 
L 172.244042 384.124146 
L 173.842678 383.427406 
L 175.174874 383.071494 
L 176.507071 382.919868 
L 178.372146 382.985573 
L 180.50366 382.966726 
L 182.102296 382.765359 
L 183.700932 382.333374 
L 185.033128 381.737471 
L 186.365324 380.864034 
L 187.431082 379.91865 
L 188.496839 378.710341 
L 189.562596 377.194881 
L 190.628353 375.325209 
L 191.69411 373.052611 
L 192.759867 370.328285 
L 194.092064 366.216532 
L 195.42426 361.24438 
L 196.756457 355.348915 
L 198.088653 348.494888 
L 199.687289 339.009984 
L 201.552364 326.331094 
L 203.683878 310.137799 
L 209.811982 262.192242 
L 211.410618 252.101098 
L 212.476375 246.51859 
L 213.542132 242.020709 
L 214.34145 239.430336 
L 215.140768 237.554366 
L 215.673646 236.714603 
L 216.206525 236.210091 
L 216.739404 236.043846 
L 217.272282 236.216533 
L 217.805161 236.726462 
L 218.338039 237.56961 
L 219.137357 239.444697 
L 219.936675 242.024252 
L 221.002432 246.487342 
L 222.068189 252.006544 
L 223.400386 260.165746 
L 224.999022 271.374004 
L 227.663414 291.937426 
L 231.127125 318.446225 
L 232.9922 331.185156 
L 234.590836 340.812164 
L 236.189472 349.11136 
L 237.521668 354.993078 
L 238.853865 359.963795 
L 240.186061 364.082268 
L 241.518258 367.427648 
L 242.850454 370.091028 
L 244.18265 372.168146 
L 245.514847 373.753503 
L 246.847043 374.936007 
L 248.17924 375.796078 
L 249.511436 376.404045 
L 251.110072 376.884136 
L 252.975147 377.203703 
L 255.373101 377.382085 
L 259.36969 377.425383 
L 268.162187 377.49462 
L 274.29029 377.796076 
L 281.75059 378.402397 
L 294.539676 379.478777 
L 299.335584 379.624567 
L 303.065734 379.526123 
L 306.529444 379.209178 
L 309.460277 378.731699 
L 312.391109 378.028946 
L 315.055502 377.16937 
L 317.719895 376.078642 
L 320.384288 374.739915 
L 323.048681 373.140959 
L 325.713073 371.275423 
L 328.377466 369.144044 
L 331.308299 366.503332 
L 334.50557 363.297116 
L 337.969281 359.498154 
L 342.498749 354.168476 
L 352.623442 342.10875 
L 355.820713 338.688715 
L 358.751545 335.879565 
L 361.149499 333.864553 
L 363.547453 332.139091 
L 365.678967 330.86821 
L 367.810481 329.856891 
L 369.941996 329.111151 
L 371.807071 328.676967 
L 373.672146 328.44339 
L 375.80366 328.413996 
L 377.935174 328.624672 
L 380.066689 329.05744 
L 382.464642 329.782906 
L 385.129035 330.844487 
L 388.059867 332.263456 
L 391.790017 334.342518 
L 397.651682 337.919443 
L 405.111982 342.42566 
L 409.907889 345.059978 
L 414.437357 347.300301 
L 419.233264 349.42383 
L 424.82849 351.644937 
L 432.02235 354.243751 
L 441.614165 357.469876 
L 449.074465 359.765625 
L 454.403251 361.182094 
L 458.932719 362.157413 
L 462.929308 362.791436 
L 466.659458 363.157562 
L 470.123169 363.282407 
L 473.58688 363.189641 
L 477.05059 362.878005 
L 480.780741 362.307461 
L 484.77733 361.452267 
L 489.306798 360.234885 
L 495.434902 358.32497 
L 504.760277 355.415785 
L 509.023305 354.324219 
L 512.753455 353.589417 
L 516.217166 353.13313 
L 519.414438 352.928282 
L 522.611709 352.943181 
L 525.808981 353.180603 
L 529.006252 353.634529 
L 532.469963 354.353721 
L 536.200113 355.360798 
L 540.463142 356.748413 
L 546.058367 358.818949 
L 558.314574 363.424596 
L 563.110481 364.938744 
L 567.37351 366.046274 
L 571.370099 366.851603 
L 575.366689 367.420748 
L 579.363278 367.757123 
L 583.359867 367.876226 
L 587.889335 367.781072 
L 592.951682 367.443657 
L 599.612664 366.75854 
L 615.066143 365.08805 
L 620.661368 364.748078 
L 625.723715 364.650198 
L 630.786061 364.776957 
L 635.848408 365.136537 
L 640.910754 365.722488 
L 646.23954 366.562802 
L 652.101204 367.711656 
L 659.295065 369.361241 
L 670.751955 372.260647 
L 683.008162 375.295543 
L 691.001341 377.041744 
L 698.195202 378.382346 
L 704.856184 379.402825 
L 705.389063 379.474969 
L 705.389063 379.474969 
" clip-path="url(#p9dbf3a75c5)" style="fill: none; stroke: #ff7f0e; stroke-width: 2.1; stroke-linecap: square"/>
   </g>
   <g id="line2d_27">
    <path d="M 119.489063 373.317656 
L 705.389063 373.317656 
L 705.389063 373.317656 
" clip-path="url(#p9dbf3a75c5)" style="fill: none; stroke-dasharray: 4.07,1.76; stroke-dashoffset: 0; stroke: #2ca02c; stroke-width: 1.1"/>
   </g>
   <g id="line2d_28">
    <path d="M 214.499873 407.589656 
L 214.499873 30.597656 
" clip-path="url(#p9dbf3a75c5)" style="fill: none; stroke-dasharray: 0.65,1.0725; stroke-dashoffset: 0; stroke: #1f77b4; stroke-width: 0.65"/>
   </g>
   <g id="line2d_29">
    <path d="M 371.795549 407.589656 
L 371.795549 30.597656 
" clip-path="url(#p9dbf3a75c5)" style="fill: none; stroke-dasharray: 0.65,1.0725; stroke-dashoffset: 0; stroke: #1f77b4; stroke-width: 0.65"/>
   </g>
   <g id="line2d_30">
    <path d="M 441.470144 407.589656 
L 441.470144 30.597656 
" clip-path="url(#p9dbf3a75c5)" style="fill: none; stroke-dasharray: 0.65,1.0725; stroke-dashoffset: 0; stroke: #1f77b4; stroke-width: 0.65"/>
   </g>
   <g id="patch_3">
    <path d="M 119.489063 407.589656 
L 119.489063 30.597656 
" style="fill: none; stroke: #000000; stroke-width: 0.8; stroke-linejoin: miter; stroke-linecap: square"/>
   </g>
   <g id="patch_4">
    <path d="M 705.389063 407.589656 
L 705.389063 30.597656 
" style="fill: none; stroke: #000000; stroke-width: 0.8; stroke-linejoin: miter; stroke-linecap: square"/>
   </g>
   <g id="patch_5">
    <path d="M 119.489063 407.589656 
L 705.389063 407.589656 
" style="fill: none; stroke: #000000; stroke-width: 0.8; stroke-linejoin: miter; stroke-linecap: square"/>
   </g>
   <g id="patch_6">
    <path d="M 119.489063 30.597656 
L 705.389063 30.597656 
" style="fill: none; stroke: #000000; stroke-width: 0.8; stroke-linejoin: miter; stroke-linecap: square"/>
   </g>
   <g id="patch_7">
    <path d="M 250.091477 65.920843 
Q 233.240643 71.688568 217.236037 77.166645 
" style="fill: none; stroke: #000000; stroke-width: 0.8; stroke-linecap: round"/>
    <path d="M 221.136308 77.691898 
L 217.236037 77.166645 
L 219.996402 74.361581 
z
" style="fill: #1f77b4; stroke: #000000; stroke-width: 0.8; stroke-linecap: round"/>
   </g>
   <g id="text_15">
    <!-- 1° picco di coordinazione -->
    <g transform="translate(230.335008 50.778231) scale(0.088 -0.088)">
     <defs>
      <path id="DejaVuSans-b0" d="M 1600 4347 
Q 1350 4347 1178 4173 
Q 1006 4000 1006 3750 
Q 1006 3503 1178 3333 
Q 1350 3163 1600 3163 
Q 1850 3163 2022 3333 
Q 2194 3503 2194 3750 
Q 2194 3997 2020 4172 
Q 1847 4347 1600 4347 
z
M 1600 4750 
Q 1800 4750 1984 4673 
Q 2169 4597 2303 4453 
Q 2447 4313 2519 4134 
Q 2591 3956 2591 3750 
Q 2591 3338 2302 3052 
Q 2013 2766 1594 2766 
Q 1172 2766 890 3047 
Q 609 3328 609 3750 
Q 609 4169 896 4459 
Q 1184 4750 1600 4750 
z
" transform="scale(0.015625)"/>
     </defs>
     <use xlink:href="#DejaVuSans-31"/>
     <use xlink:href="#DejaVuSans-b0" transform="translate(63.623047 0)"/>
     <use xlink:href="#DejaVuSans-20" transform="translate(113.623047 0)"/>
     <use xlink:href="#DejaVuSans-70" transform="translate(145.410156 0)"/>
     <use xlink:href="#DejaVuSans-69" transform="translate(208.886719 0)"/>
     <use xlink:href="#DejaVuSans-63" transform="translate(236.669922 0)"/>
     <use xlink:href="#DejaVuSans-63" transform="translate(291.650391 0)"/>
     <use xlink:href="#DejaVuSans-6f" transform="translate(346.630859 0)"/>
     <use xlink:href="#DejaVuSans-20" transform="translate(407.8125 0)"/>
     <use xlink:href="#DejaVuSans-64" transform="translate(439.599609 0)"/>
     <use xlink:href="#DejaVuSans-69" transform="translate(503.076172 0)"/>
     <use xlink:href="#DejaVuSans-20" transform="translate(530.859375 0)"/>
     <use xlink:href="#DejaVuSans-63" transform="translate(562.646484 0)"/>
     <use xlink:href="#DejaVuSans-6f" transform="translate(617.626953 0)"/>
     <use xlink:href="#DejaVuSans-6f" transform="translate(678.808594 0)"/>
     <use xlink:href="#DejaVuSans-72" transform="translate(739.990234 0)"/>
     <use xlink:href="#DejaVuSans-64" transform="translate(779.353516 0)"/>
     <use xlink:href="#DejaVuSans-69" transform="translate(842.830078 0)"/>
     <use xlink:href="#DejaVuSans-6e" transform="translate(870.613281 0)"/>
     <use xlink:href="#DejaVuSans-61" transform="translate(933.992188 0)"/>
     <use xlink:href="#DejaVuSans-7a" transform="translate(995.271484 0)"/>
     <use xlink:href="#DejaVuSans-69" transform="translate(1047.761719 0)"/>
     <use xlink:href="#DejaVuSans-6f" transform="translate(1075.544922 0)"/>
     <use xlink:href="#DejaVuSans-6e" transform="translate(1136.726562 0)"/>
     <use xlink:href="#DejaVuSans-65" transform="translate(1200.105469 0)"/>
    </g>
    <!-- 2,35 Å -->
    <g transform="translate(230.335008 61.442456) scale(0.088 -0.088)">
     <defs>
      <path id="DejaVuSans-2c" d="M 750 794 
L 1409 794 
L 1409 256 
L 897 -744 
L 494 -744 
L 750 256 
L 750 794 
z
" transform="scale(0.015625)"/>
     </defs>
     <use xlink:href="#DejaVuSans-32"/>
     <use xlink:href="#DejaVuSans-2c" transform="translate(63.623047 0)"/>
     <use xlink:href="#DejaVuSans-33" transform="translate(95.410156 0)"/>
     <use xlink:href="#DejaVuSans-35" transform="translate(159.033203 0)"/>
     <use xlink:href="#DejaVuSans-20" transform="translate(222.65625 0)"/>
     <use xlink:href="#DejaVuSans-c5" transform="translate(254.443359 0)"/>
    </g>
   </g>
   <g id="patch_8">
    <path d="M 390.594744 186.526999 
Q 381.953586 193.964037 373.99035 200.817619 
" style="fill: none; stroke: #000000; stroke-width: 0.8; stroke-linecap: round"/>
    <path d="M 377.80639 199.855415 
L 373.99035 200.817619 
L 375.510211 197.187464 
z
" style="fill: #1f77b4; stroke: #000000; stroke-width: 0.8; stroke-linecap: round"/>
   </g>
   <g id="text_16">
    <!-- 2° picco -->
    <g transform="translate(387.630684 170.730231) scale(0.088 -0.088)">
     <use xlink:href="#DejaVuSans-32"/>
     <use xlink:href="#DejaVuSans-b0" transform="translate(63.623047 0)"/>
     <use xlink:href="#DejaVuSans-20" transform="translate(113.623047 0)"/>
     <use xlink:href="#DejaVuSans-70" transform="translate(145.410156 0)"/>
     <use xlink:href="#DejaVuSans-69" transform="translate(208.886719 0)"/>
     <use xlink:href="#DejaVuSans-63" transform="translate(236.669922 0)"/>
     <use xlink:href="#DejaVuSans-63" transform="translate(291.650391 0)"/>
     <use xlink:href="#DejaVuSans-6f" transform="translate(346.630859 0)"/>
    </g>
    <!-- 3,84 Å -->
    <g transform="translate(387.630684 181.394456) scale(0.088 -0.088)">
     <use xlink:href="#DejaVuSans-33"/>
     <use xlink:href="#DejaVuSans-2c" transform="translate(63.623047 0)"/>
     <use xlink:href="#DejaVuSans-38" transform="translate(95.410156 0)"/>
     <use xlink:href="#DejaVuSans-34" transform="translate(159.033203 0)"/>
     <use xlink:href="#DejaVuSans-20" transform="translate(222.65625 0)"/>
     <use xlink:href="#DejaVuSans-c5" transform="translate(254.443359 0)"/>
    </g>
   </g>
   <g id="patch_9">
    <path d="M 461.829343 251.734017 
Q 452.369224 260.885915 443.551947 269.415917 
" style="fill: none; stroke: #000000; stroke-width: 0.8; stroke-linecap: round"/>
    <path d="M 447.305565 268.233399 
L 443.551947 269.415917 
L 444.858104 265.703511 
z
" style="fill: #1f77b4; stroke: #000000; stroke-width: 0.8; stroke-linecap: round"/>
   </g>
   <g id="text_17">
    <!-- 3° picco -->
    <g transform="translate(457.305279 235.847031) scale(0.088 -0.088)">
     <use xlink:href="#DejaVuSans-33"/>
     <use xlink:href="#DejaVuSans-b0" transform="translate(63.623047 0)"/>
     <use xlink:href="#DejaVuSans-20" transform="translate(113.623047 0)"/>
     <use xlink:href="#DejaVuSans-70" transform="translate(145.410156 0)"/>
     <use xlink:href="#DejaVuSans-69" transform="translate(208.886719 0)"/>
     <use xlink:href="#DejaVuSans-63" transform="translate(236.669922 0)"/>
     <use xlink:href="#DejaVuSans-63" transform="translate(291.650391 0)"/>
     <use xlink:href="#DejaVuSans-6f" transform="translate(346.630859 0)"/>
    </g>
    <!-- 4,50 Å -->
    <g transform="translate(457.305279 246.511256) scale(0.088 -0.088)">
     <use xlink:href="#DejaVuSans-34"/>
     <use xlink:href="#DejaVuSans-2c" transform="translate(63.623047 0)"/>
     <use xlink:href="#DejaVuSans-35" transform="translate(95.410156 0)"/>
     <use xlink:href="#DejaVuSans-30" transform="translate(159.033203 0)"/>
     <use xlink:href="#DejaVuSans-20" transform="translate(222.65625 0)"/>
     <use xlink:href="#DejaVuSans-c5" transform="translate(254.443359 0)"/>
    </g>
   </g>
   <g id="text_18">
    <!-- Correlazione a coppie nel silicio cristallino e amorfo -->
    <g transform="translate(193.214062 18.597656) scale(0.15 -0.15)">
     <defs>
      <path id="DejaVuSans-Bold-43" d="M 4288 256 
Q 3956 84 3597 -3 
Q 3238 -91 2847 -91 
Q 1681 -91 1000 561 
Q 319 1213 319 2328 
Q 319 3447 1000 4098 
Q 1681 4750 2847 4750 
Q 3238 4750 3597 4662 
Q 3956 4575 4288 4403 
L 4288 3438 
Q 3953 3666 3628 3772 
Q 3303 3878 2944 3878 
Q 2300 3878 1931 3465 
Q 1563 3053 1563 2328 
Q 1563 1606 1931 1193 
Q 2300 781 2944 781 
Q 3303 781 3628 887 
Q 3953 994 4288 1222 
L 4288 256 
z
" transform="scale(0.015625)"/>
      <path id="DejaVuSans-Bold-6f" d="M 2203 2784 
Q 1831 2784 1636 2517 
Q 1441 2250 1441 1747 
Q 1441 1244 1636 976 
Q 1831 709 2203 709 
Q 2569 709 2762 976 
Q 2956 1244 2956 1747 
Q 2956 2250 2762 2517 
Q 2569 2784 2203 2784 
z
M 2203 3584 
Q 3106 3584 3614 3096 
Q 4122 2609 4122 1747 
Q 4122 884 3614 396 
Q 3106 -91 2203 -91 
Q 1297 -91 786 396 
Q 275 884 275 1747 
Q 275 2609 786 3096 
Q 1297 3584 2203 3584 
z
" transform="scale(0.015625)"/>
      <path id="DejaVuSans-Bold-72" d="M 3138 2547 
Q 2991 2616 2845 2648 
Q 2700 2681 2553 2681 
Q 2122 2681 1889 2404 
Q 1656 2128 1656 1613 
L 1656 0 
L 538 0 
L 538 3500 
L 1656 3500 
L 1656 2925 
Q 1872 3269 2151 3426 
Q 2431 3584 2822 3584 
Q 2878 3584 2943 3579 
Q 3009 3575 3134 3559 
L 3138 2547 
z
" transform="scale(0.015625)"/>
      <path id="DejaVuSans-Bold-65" d="M 4031 1759 
L 4031 1441 
L 1416 1441 
Q 1456 1047 1700 850 
Q 1944 653 2381 653 
Q 2734 653 3104 758 
Q 3475 863 3866 1075 
L 3866 213 
Q 3469 63 3072 -14 
Q 2675 -91 2278 -91 
Q 1328 -91 801 392 
Q 275 875 275 1747 
Q 275 2603 792 3093 
Q 1309 3584 2216 3584 
Q 3041 3584 3536 3087 
Q 4031 2591 4031 1759 
z
M 2881 2131 
Q 2881 2450 2695 2645 
Q 2509 2841 2209 2841 
Q 1884 2841 1681 2658 
Q 1478 2475 1428 2131 
L 2881 2131 
z
" transform="scale(0.015625)"/>
      <path id="DejaVuSans-Bold-6c" d="M 538 4863 
L 1656 4863 
L 1656 0 
L 538 0 
L 538 4863 
z
" transform="scale(0.015625)"/>
      <path id="DejaVuSans-Bold-61" d="M 2106 1575 
Q 1756 1575 1579 1456 
Q 1403 1338 1403 1106 
Q 1403 894 1545 773 
Q 1688 653 1941 653 
Q 2256 653 2472 879 
Q 2688 1106 2688 1447 
L 2688 1575 
L 2106 1575 
z
M 3816 1997 
L 3816 0 
L 2688 0 
L 2688 519 
Q 2463 200 2181 54 
Q 1900 -91 1497 -91 
Q 953 -91 614 226 
Q 275 544 275 1050 
Q 275 1666 698 1953 
Q 1122 2241 2028 2241 
L 2688 2241 
L 2688 2328 
Q 2688 2594 2478 2717 
Q 2269 2841 1825 2841 
Q 1466 2841 1156 2769 
Q 847 2697 581 2553 
L 581 3406 
Q 941 3494 1303 3539 
Q 1666 3584 2028 3584 
Q 2975 3584 3395 3211 
Q 3816 2838 3816 1997 
z
" transform="scale(0.015625)"/>
      <path id="DejaVuSans-Bold-7a" d="M 366 3500 
L 3419 3500 
L 3419 2719 
L 1575 800 
L 3419 800 
L 3419 0 
L 288 0 
L 288 781 
L 2131 2700 
L 366 2700 
L 366 3500 
z
" transform="scale(0.015625)"/>
      <path id="DejaVuSans-Bold-69" d="M 538 3500 
L 1656 3500 
L 1656 0 
L 538 0 
L 538 3500 
z
M 538 4863 
L 1656 4863 
L 1656 3950 
L 538 3950 
L 538 4863 
z
" transform="scale(0.015625)"/>
      <path id="DejaVuSans-Bold-6e" d="M 4056 2131 
L 4056 0 
L 2931 0 
L 2931 347 
L 2931 1631 
Q 2931 2084 2911 2256 
Q 2891 2428 2841 2509 
Q 2775 2619 2662 2680 
Q 2550 2741 2406 2741 
Q 2056 2741 1856 2470 
Q 1656 2200 1656 1722 
L 1656 0 
L 538 0 
L 538 3500 
L 1656 3500 
L 1656 2988 
Q 1909 3294 2193 3439 
Q 2478 3584 2822 3584 
Q 3428 3584 3742 3212 
Q 4056 2841 4056 2131 
z
" transform="scale(0.015625)"/>
      <path id="DejaVuSans-Bold-20" transform="scale(0.015625)"/>
      <path id="DejaVuSans-Bold-63" d="M 3366 3391 
L 3366 2478 
Q 3138 2634 2908 2709 
Q 2678 2784 2431 2784 
Q 1963 2784 1702 2511 
Q 1441 2238 1441 1747 
Q 1441 1256 1702 982 
Q 1963 709 2431 709 
Q 2694 709 2930 787 
Q 3166 866 3366 1019 
L 3366 103 
Q 3103 6 2833 -42 
Q 2563 -91 2291 -91 
Q 1344 -91 809 395 
Q 275 881 275 1747 
Q 275 2613 809 3098 
Q 1344 3584 2291 3584 
Q 2566 3584 2833 3536 
Q 3100 3488 3366 3391 
z
" transform="scale(0.015625)"/>
      <path id="DejaVuSans-Bold-70" d="M 1656 506 
L 1656 -1331 
L 538 -1331 
L 538 3500 
L 1656 3500 
L 1656 2988 
Q 1888 3294 2169 3439 
Q 2450 3584 2816 3584 
Q 3463 3584 3878 3070 
Q 4294 2556 4294 1747 
Q 4294 938 3878 423 
Q 3463 -91 2816 -91 
Q 2450 -91 2169 54 
Q 1888 200 1656 506 
z
M 2400 2772 
Q 2041 2772 1848 2508 
Q 1656 2244 1656 1747 
Q 1656 1250 1848 986 
Q 2041 722 2400 722 
Q 2759 722 2948 984 
Q 3138 1247 3138 1747 
Q 3138 2247 2948 2509 
Q 2759 2772 2400 2772 
z
" transform="scale(0.015625)"/>
      <path id="DejaVuSans-Bold-73" d="M 3272 3391 
L 3272 2541 
Q 2913 2691 2578 2766 
Q 2244 2841 1947 2841 
Q 1628 2841 1473 2761 
Q 1319 2681 1319 2516 
Q 1319 2381 1436 2309 
Q 1553 2238 1856 2203 
L 2053 2175 
Q 2913 2066 3209 1816 
Q 3506 1566 3506 1031 
Q 3506 472 3093 190 
Q 2681 -91 1863 -91 
Q 1516 -91 1145 -36 
Q 775 19 384 128 
L 384 978 
Q 719 816 1070 734 
Q 1422 653 1784 653 
Q 2113 653 2278 743 
Q 2444 834 2444 1013 
Q 2444 1163 2330 1236 
Q 2216 1309 1875 1350 
L 1678 1375 
Q 931 1469 631 1722 
Q 331 1975 331 2491 
Q 331 3047 712 3315 
Q 1094 3584 1881 3584 
Q 2191 3584 2531 3537 
Q 2872 3491 3272 3391 
z
" transform="scale(0.015625)"/>
      <path id="DejaVuSans-Bold-74" d="M 1759 4494 
L 1759 3500 
L 2913 3500 
L 2913 2700 
L 1759 2700 
L 1759 1216 
Q 1759 972 1856 886 
Q 1953 800 2241 800 
L 2816 800 
L 2816 0 
L 1856 0 
Q 1194 0 917 276 
Q 641 553 641 1216 
L 641 2700 
L 84 2700 
L 84 3500 
L 641 3500 
L 641 4494 
L 1759 4494 
z
" transform="scale(0.015625)"/>
      <path id="DejaVuSans-Bold-6d" d="M 3781 2919 
Q 3994 3244 4286 3414 
Q 4578 3584 4928 3584 
Q 5531 3584 5847 3212 
Q 6163 2841 6163 2131 
L 6163 0 
L 5038 0 
L 5038 1825 
Q 5041 1866 5042 1909 
Q 5044 1953 5044 2034 
Q 5044 2406 4934 2573 
Q 4825 2741 4581 2741 
Q 4263 2741 4089 2478 
Q 3916 2216 3909 1719 
L 3909 0 
L 2784 0 
L 2784 1825 
Q 2784 2406 2684 2573 
Q 2584 2741 2328 2741 
Q 2006 2741 1831 2477 
Q 1656 2213 1656 1722 
L 1656 0 
L 531 0 
L 531 3500 
L 1656 3500 
L 1656 2988 
Q 1863 3284 2130 3434 
Q 2397 3584 2719 3584 
Q 3081 3584 3359 3409 
Q 3638 3234 3781 2919 
z
" transform="scale(0.015625)"/>
      <path id="DejaVuSans-Bold-66" d="M 2841 4863 
L 2841 4128 
L 2222 4128 
Q 1984 4128 1890 4042 
Q 1797 3956 1797 3744 
L 1797 3500 
L 2753 3500 
L 2753 2700 
L 1797 2700 
L 1797 0 
L 678 0 
L 678 2700 
L 122 2700 
L 122 3500 
L 678 3500 
L 678 3744 
Q 678 4316 997 4589 
Q 1316 4863 1984 4863 
L 2841 4863 
z
" transform="scale(0.015625)"/>
     </defs>
     <use xlink:href="#DejaVuSans-Bold-43"/>
     <use xlink:href="#DejaVuSans-Bold-6f" transform="translate(73.388672 0)"/>
     <use xlink:href="#DejaVuSans-Bold-72" transform="translate(142.089844 0)"/>
     <use xlink:href="#DejaVuSans-Bold-72" transform="translate(191.40625 0)"/>
     <use xlink:href="#DejaVuSans-Bold-65" transform="translate(240.722656 0)"/>
     <use xlink:href="#DejaVuSans-Bold-6c" transform="translate(308.544922 0)"/>
     <use xlink:href="#DejaVuSans-Bold-61" transform="translate(342.822266 0)"/>
     <use xlink:href="#DejaVuSans-Bold-7a" transform="translate(410.302734 0)"/>
     <use xlink:href="#DejaVuSans-Bold-69" transform="translate(468.505859 0)"/>
     <use xlink:href="#DejaVuSans-Bold-6f" transform="translate(502.783203 0)"/>
     <use xlink:href="#DejaVuSans-Bold-6e" transform="translate(571.484375 0)"/>
     <use xlink:href="#DejaVuSans-Bold-65" transform="translate(642.675781 0)"/>
     <use xlink:href="#DejaVuSans-Bold-20" transform="translate(710.498047 0)"/>
     <use xlink:href="#DejaVuSans-Bold-61" transform="translate(745.3125 0)"/>
     <use xlink:href="#DejaVuSans-Bold-20" transform="translate(812.792969 0)"/>
     <use xlink:href="#DejaVuSans-Bold-63" transform="translate(847.607422 0)"/>
     <use xlink:href="#DejaVuSans-Bold-6f" transform="translate(906.884766 0)"/>
     <use xlink:href="#DejaVuSans-Bold-70" transform="translate(975.585938 0)"/>
     <use xlink:href="#DejaVuSans-Bold-70" transform="translate(1047.167969 0)"/>
     <use xlink:href="#DejaVuSans-Bold-69" transform="translate(1118.75 0)"/>
     <use xlink:href="#DejaVuSans-Bold-65" transform="translate(1153.027344 0)"/>
     <use xlink:href="#DejaVuSans-Bold-20" transform="translate(1220.849609 0)"/>
     <use xlink:href="#DejaVuSans-Bold-6e" transform="translate(1255.664062 0)"/>
     <use xlink:href="#DejaVuSans-Bold-65" transform="translate(1326.855469 0)"/>
     <use xlink:href="#DejaVuSans-Bold-6c" transform="translate(1394.677734 0)"/>
     <use xlink:href="#DejaVuSans-Bold-20" transform="translate(1428.955078 0)"/>
     <use xlink:href="#DejaVuSans-Bold-73" transform="translate(1463.769531 0)"/>
     <use xlink:href="#DejaVuSans-Bold-69" transform="translate(1523.291016 0)"/>
     <use xlink:href="#DejaVuSans-Bold-6c" transform="translate(1557.568359 0)"/>
     <use xlink:href="#DejaVuSans-Bold-69" transform="translate(1591.845703 0)"/>
     <use xlink:href="#DejaVuSans-Bold-63" transform="translate(1626.123047 0)"/>
     <use xlink:href="#DejaVuSans-Bold-69" transform="translate(1685.400391 0)"/>
     <use xlink:href="#DejaVuSans-Bold-6f" transform="translate(1719.677734 0)"/>
     <use xlink:href="#DejaVuSans-Bold-20" transform="translate(1788.378906 0)"/>
     <use xlink:href="#DejaVuSans-Bold-63" transform="translate(1823.193359 0)"/>
     <use xlink:href="#DejaVuSans-Bold-72" transform="translate(1882.470703 0)"/>
     <use xlink:href="#DejaVuSans-Bold-69" transform="translate(1931.787109 0)"/>
     <use xlink:href="#DejaVuSans-Bold-73" transform="translate(1966.064453 0)"/>
     <use xlink:href="#DejaVuSans-Bold-74" transform="translate(2025.585938 0)"/>
     <use xlink:href="#DejaVuSans-Bold-61" transform="translate(2073.388672 0)"/>
     <use xlink:href="#DejaVuSans-Bold-6c" transform="translate(2140.869141 0)"/>
     <use xlink:href="#DejaVuSans-Bold-6c" transform="translate(2175.146484 0)"/>
     <use xlink:href="#DejaVuSans-Bold-69" transform="translate(2209.423828 0)"/>
     <use xlink:href="#DejaVuSans-Bold-6e" transform="translate(2243.701172 0)"/>
     <use xlink:href="#DejaVuSans-Bold-6f" transform="translate(2314.892578 0)"/>
     <use xlink:href="#DejaVuSans-Bold-20" transform="translate(2383.59375 0)"/>
     <use xlink:href="#DejaVuSans-Bold-65" transform="translate(2418.408203 0)"/>
     <use xlink:href="#DejaVuSans-Bold-20" transform="translate(2486.230469 0)"/>
     <use xlink:href="#DejaVuSans-Bold-61" transform="translate(2521.044922 0)"/>
     <use xlink:href="#DejaVuSans-Bold-6d" transform="translate(2588.525391 0)"/>
     <use xlink:href="#DejaVuSans-Bold-6f" transform="translate(2692.724609 0)"/>
     <use xlink:href="#DejaVuSans-Bold-72" transform="translate(2761.425781 0)"/>
     <use xlink:href="#DejaVuSans-Bold-66" transform="translate(2810.742188 0)"/>
     <use xlink:href="#DejaVuSans-Bold-6f" transform="translate(2854.248047 0)"/>
    </g>
   </g>
   <g id="legend_1">
    <g id="line2d_31">
     <path d="M 555.821875 43.696094 
L 565.821875 43.696094 
L 575.821875 43.696094 
" style="fill: none; stroke: #1f77b4; stroke-width: 1.9; stroke-linecap: square"/>
    </g>
    <g id="text_19">
     <!-- c-Si, 300 K -->
     <g transform="translate(583.821875 47.196094) scale(0.1 -0.1)">
      <defs>
       <path id="DejaVuSans-2d" d="M 313 2009 
L 1997 2009 
L 1997 1497 
L 313 1497 
L 313 2009 
z
" transform="scale(0.015625)"/>
       <path id="DejaVuSans-53" d="M 3425 4513 
L 3425 3897 
Q 3066 4069 2747 4153 
Q 2428 4238 2131 4238 
Q 1616 4238 1336 4038 
Q 1056 3838 1056 3469 
Q 1056 3159 1242 3001 
Q 1428 2844 1947 2747 
L 2328 2669 
Q 3034 2534 3370 2195 
Q 3706 1856 3706 1288 
Q 3706 609 3251 259 
Q 2797 -91 1919 -91 
Q 1588 -91 1214 -16 
Q 841 59 441 206 
L 441 856 
Q 825 641 1194 531 
Q 1563 422 1919 422 
Q 2459 422 2753 634 
Q 3047 847 3047 1241 
Q 3047 1584 2836 1778 
Q 2625 1972 2144 2069 
L 1759 2144 
Q 1053 2284 737 2584 
Q 422 2884 422 3419 
Q 422 4038 858 4394 
Q 1294 4750 2059 4750 
Q 2388 4750 2728 4690 
Q 3069 4631 3425 4513 
z
" transform="scale(0.015625)"/>
       <path id="DejaVuSans-4b" d="M 628 4666 
L 1259 4666 
L 1259 2694 
L 3353 4666 
L 4166 4666 
L 1850 2491 
L 4331 0 
L 3500 0 
L 1259 2247 
L 1259 0 
L 628 0 
L 628 4666 
z
" transform="scale(0.015625)"/>
      </defs>
      <use xlink:href="#DejaVuSans-63"/>
      <use xlink:href="#DejaVuSans-2d" transform="translate(54.980469 0)"/>
      <use xlink:href="#DejaVuSans-53" transform="translate(91.064453 0)"/>
      <use xlink:href="#DejaVuSans-69" transform="translate(154.541016 0)"/>
      <use xlink:href="#DejaVuSans-2c" transform="translate(182.324219 0)"/>
      <use xlink:href="#DejaVuSans-20" transform="translate(214.111328 0)"/>
      <use xlink:href="#DejaVuSans-33" transform="translate(245.898438 0)"/>
      <use xlink:href="#DejaVuSans-30" transform="translate(309.521484 0)"/>
      <use xlink:href="#DejaVuSans-30" transform="translate(373.144531 0)"/>
      <use xlink:href="#DejaVuSans-20" transform="translate(436.767578 0)"/>
      <use xlink:href="#DejaVuSans-4b" transform="translate(468.554688 0)"/>
     </g>
    </g>
    <g id="line2d_32">
     <path d="M 555.821875 58.374219 
L 565.821875 58.374219 
L 575.821875 58.374219 
" style="fill: none; stroke: #ff7f0e; stroke-width: 2.1; stroke-linecap: square"/>
    </g>
    <g id="text_20">
     <!-- a-Si, 300 K -->
     <g transform="translate(583.821875 61.874219) scale(0.1 -0.1)">
      <use xlink:href="#DejaVuSans-61"/>
      <use xlink:href="#DejaVuSans-2d" transform="translate(61.279297 0)"/>
      <use xlink:href="#DejaVuSans-53" transform="translate(97.363281 0)"/>
      <use xlink:href="#DejaVuSans-69" transform="translate(160.839844 0)"/>
      <use xlink:href="#DejaVuSans-2c" transform="translate(188.623047 0)"/>
      <use xlink:href="#DejaVuSans-20" transform="translate(220.410156 0)"/>
      <use xlink:href="#DejaVuSans-33" transform="translate(252.197266 0)"/>
      <use xlink:href="#DejaVuSans-30" transform="translate(315.820312 0)"/>
      <use xlink:href="#DejaVuSans-30" transform="translate(379.443359 0)"/>
      <use xlink:href="#DejaVuSans-20" transform="translate(443.066406 0)"/>
      <use xlink:href="#DejaVuSans-4b" transform="translate(474.853516 0)"/>
     </g>
    </g>
    <g id="line2d_33">
     <path d="M 555.821875 73.052344 
L 565.821875 73.052344 
L 575.821875 73.052344 
" style="fill: none; stroke-dasharray: 4.07,1.76; stroke-dashoffset: 0; stroke: #2ca02c; stroke-width: 1.1"/>
    </g>
    <g id="text_21">
     <!-- distribuzione uniforme -->
     <g transform="translate(583.821875 76.552344) scale(0.1 -0.1)">
      <defs>
       <path id="DejaVuSans-62" d="M 3116 1747 
Q 3116 2381 2855 2742 
Q 2594 3103 2138 3103 
Q 1681 3103 1420 2742 
Q 1159 2381 1159 1747 
Q 1159 1113 1420 752 
Q 1681 391 2138 391 
Q 2594 391 2855 752 
Q 3116 1113 3116 1747 
z
M 1159 2969 
Q 1341 3281 1617 3432 
Q 1894 3584 2278 3584 
Q 2916 3584 3314 3078 
Q 3713 2572 3713 1747 
Q 3713 922 3314 415 
Q 2916 -91 2278 -91 
Q 1894 -91 1617 61 
Q 1341 213 1159 525 
L 1159 0 
L 581 0 
L 581 4863 
L 1159 4863 
L 1159 2969 
z
" transform="scale(0.015625)"/>
      </defs>
      <use xlink:href="#DejaVuSans-64"/>
      <use xlink:href="#DejaVuSans-69" transform="translate(63.476562 0)"/>
      <use xlink:href="#DejaVuSans-73" transform="translate(91.259766 0)"/>
      <use xlink:href="#DejaVuSans-74" transform="translate(143.359375 0)"/>
      <use xlink:href="#DejaVuSans-72" transform="translate(182.568359 0)"/>
      <use xlink:href="#DejaVuSans-69" transform="translate(223.681641 0)"/>
      <use xlink:href="#DejaVuSans-62" transform="translate(251.464844 0)"/>
      <use xlink:href="#DejaVuSans-75" transform="translate(314.941406 0)"/>
      <use xlink:href="#DejaVuSans-7a" transform="translate(378.320312 0)"/>
      <use xlink:href="#DejaVuSans-69" transform="translate(430.810547 0)"/>
      <use xlink:href="#DejaVuSans-6f" transform="translate(458.59375 0)"/>
      <use xlink:href="#DejaVuSans-6e" transform="translate(519.775391 0)"/>
      <use xlink:href="#DejaVuSans-65" transform="translate(583.154297 0)"/>
      <use xlink:href="#DejaVuSans-20" transform="translate(644.677734 0)"/>
      <use xlink:href="#DejaVuSans-75" transform="translate(676.464844 0)"/>
      <use xlink:href="#DejaVuSans-6e" transform="translate(739.84375 0)"/>
      <use xlink:href="#DejaVuSans-69" transform="translate(803.222656 0)"/>
      <use xlink:href="#DejaVuSans-66" transform="translate(831.005859 0)"/>
      <use xlink:href="#DejaVuSans-6f" transform="translate(866.210938 0)"/>
      <use xlink:href="#DejaVuSans-72" transform="translate(927.392578 0)"/>
      <use xlink:href="#DejaVuSans-6d" transform="translate(966.755859 0)"/>
      <use xlink:href="#DejaVuSans-65" transform="translate(1064.167969 0)"/>
     </g>
    </g>
   </g>
  </g>
  <g id="text_22">
   <!-- Ricostruzione qualitativa: il cristallo presenta gusci di coordinazione stretti e persistenti, mentre nell'amorfo i picchi oltre il primo sono allargati e sovrapposti. -->
   <g transform="translate(7.2 449.205656) scale(0.1 -0.1)">
    <defs>
     <path id="DejaVuSans-52" d="M 2841 2188 
Q 3044 2119 3236 1894 
Q 3428 1669 3622 1275 
L 4263 0 
L 3584 0 
L 2988 1197 
Q 2756 1666 2539 1819 
Q 2322 1972 1947 1972 
L 1259 1972 
L 1259 0 
L 628 0 
L 628 4666 
L 2053 4666 
Q 2853 4666 3247 4331 
Q 3641 3997 3641 3322 
Q 3641 2881 3436 2590 
Q 3231 2300 2841 2188 
z
M 1259 4147 
L 1259 2491 
L 2053 2491 
Q 2509 2491 2742 2702 
Q 2975 2913 2975 3322 
Q 2975 3731 2742 3939 
Q 2509 4147 2053 4147 
L 1259 4147 
z
" transform="scale(0.015625)"/>
     <path id="DejaVuSans-71" d="M 947 1747 
Q 947 1113 1208 752 
Q 1469 391 1925 391 
Q 2381 391 2643 752 
Q 2906 1113 2906 1747 
Q 2906 2381 2643 2742 
Q 2381 3103 1925 3103 
Q 1469 3103 1208 2742 
Q 947 2381 947 1747 
z
M 2906 525 
Q 2725 213 2448 61 
Q 2172 -91 1784 -91 
Q 1150 -91 751 415 
Q 353 922 353 1747 
Q 353 2572 751 3078 
Q 1150 3584 1784 3584 
Q 2172 3584 2448 3432 
Q 2725 3281 2906 2969 
L 2906 3500 
L 3481 3500 
L 3481 -1331 
L 2906 -1331 
L 2906 525 
z
" transform="scale(0.015625)"/>
     <path id="DejaVuSans-76" d="M 191 3500 
L 800 3500 
L 1894 563 
L 2988 3500 
L 3597 3500 
L 2284 0 
L 1503 0 
L 191 3500 
z
" transform="scale(0.015625)"/>
     <path id="DejaVuSans-3a" d="M 750 794 
L 1409 794 
L 1409 0 
L 750 0 
L 750 794 
z
M 750 3309 
L 1409 3309 
L 1409 2516 
L 750 2516 
L 750 3309 
z
" transform="scale(0.015625)"/>
     <path id="DejaVuSans-67" d="M 2906 1791 
Q 2906 2416 2648 2759 
Q 2391 3103 1925 3103 
Q 1463 3103 1205 2759 
Q 947 2416 947 1791 
Q 947 1169 1205 825 
Q 1463 481 1925 481 
Q 2391 481 2648 825 
Q 2906 1169 2906 1791 
z
M 3481 434 
Q 3481 -459 3084 -895 
Q 2688 -1331 1869 -1331 
Q 1566 -1331 1297 -1286 
Q 1028 -1241 775 -1147 
L 775 -588 
Q 1028 -725 1275 -790 
Q 1522 -856 1778 -856 
Q 2344 -856 2625 -561 
Q 2906 -266 2906 331 
L 2906 616 
Q 2728 306 2450 153 
Q 2172 0 1784 0 
Q 1141 0 747 490 
Q 353 981 353 1791 
Q 353 2603 747 3093 
Q 1141 3584 1784 3584 
Q 2172 3584 2450 3431 
Q 2728 3278 2906 2969 
L 2906 3500 
L 3481 3500 
L 3481 434 
z
" transform="scale(0.015625)"/>
     <path id="DejaVuSans-27" d="M 1147 4666 
L 1147 2931 
L 616 2931 
L 616 4666 
L 1147 4666 
z
" transform="scale(0.015625)"/>
     <path id="DejaVuSans-68" d="M 3513 2113 
L 3513 0 
L 2938 0 
L 2938 2094 
Q 2938 2591 2744 2837 
Q 2550 3084 2163 3084 
Q 1697 3084 1428 2787 
Q 1159 2491 1159 1978 
L 1159 0 
L 581 0 
L 581 4863 
L 1159 4863 
L 1159 2956 
Q 1366 3272 1645 3428 
Q 1925 3584 2291 3584 
Q 2894 3584 3203 3211 
Q 3513 2838 3513 2113 
z
" transform="scale(0.015625)"/>
     <path id="DejaVuSans-2e" d="M 684 794 
L 1344 794 
L 1344 0 
L 684 0 
L 684 794 
z
" transform="scale(0.015625)"/>
    </defs>
    <use xlink:href="#DejaVuSans-52"/>
    <use xlink:href="#DejaVuSans-69" transform="translate(69.482422 0)"/>
    <use xlink:href="#DejaVuSans-63" transform="translate(97.265625 0)"/>
    <use xlink:href="#DejaVuSans-6f" transform="translate(152.246094 0)"/>
    <use xlink:href="#DejaVuSans-73" transform="translate(213.427734 0)"/>
    <use xlink:href="#DejaVuSans-74" transform="translate(265.527344 0)"/>
    <use xlink:href="#DejaVuSans-72" transform="translate(304.736328 0)"/>
    <use xlink:href="#DejaVuSans-75" transform="translate(345.849609 0)"/>
    <use xlink:href="#DejaVuSans-7a" transform="translate(409.228516 0)"/>
    <use xlink:href="#DejaVuSans-69" transform="translate(461.71875 0)"/>
    <use xlink:href="#DejaVuSans-6f" transform="translate(489.501953 0)"/>
    <use xlink:href="#DejaVuSans-6e" transform="translate(550.683594 0)"/>
    <use xlink:href="#DejaVuSans-65" transform="translate(614.0625 0)"/>
    <use xlink:href="#DejaVuSans-20" transform="translate(675.585938 0)"/>
    <use xlink:href="#DejaVuSans-71" transform="translate(707.373047 0)"/>
    <use xlink:href="#DejaVuSans-75" transform="translate(770.849609 0)"/>
    <use xlink:href="#DejaVuSans-61" transform="translate(834.228516 0)"/>
    <use xlink:href="#DejaVuSans-6c" transform="translate(895.507812 0)"/>
    <use xlink:href="#DejaVuSans-69" transform="translate(923.291016 0)"/>
    <use xlink:href="#DejaVuSans-74" transform="translate(951.074219 0)"/>
    <use xlink:href="#DejaVuSans-61" transform="translate(990.283203 0)"/>
    <use xlink:href="#DejaVuSans-74" transform="translate(1051.5625 0)"/>
    <use xlink:href="#DejaVuSans-69" transform="translate(1090.771484 0)"/>
    <use xlink:href="#DejaVuSans-76" transform="translate(1118.554688 0)"/>
    <use xlink:href="#DejaVuSans-61" transform="translate(1177.734375 0)"/>
    <use xlink:href="#DejaVuSans-3a" transform="translate(1239.013672 0)"/>
    <use xlink:href="#DejaVuSans-20" transform="translate(1272.705078 0)"/>
    <use xlink:href="#DejaVuSans-69" transform="translate(1304.492188 0)"/>
    <use xlink:href="#DejaVuSans-6c" transform="translate(1332.275391 0)"/>
    <use xlink:href="#DejaVuSans-20" transform="translate(1360.058594 0)"/>
    <use xlink:href="#DejaVuSans-63" transform="translate(1391.845703 0)"/>
    <use xlink:href="#DejaVuSans-72" transform="translate(1446.826172 0)"/>
    <use xlink:href="#DejaVuSans-69" transform="translate(1487.939453 0)"/>
    <use xlink:href="#DejaVuSans-73" transform="translate(1515.722656 0)"/>
    <use xlink:href="#DejaVuSans-74" transform="translate(1567.822266 0)"/>
    <use xlink:href="#DejaVuSans-61" transform="translate(1607.03125 0)"/>
    <use xlink:href="#DejaVuSans-6c" transform="translate(1668.310547 0)"/>
    <use xlink:href="#DejaVuSans-6c" transform="translate(1696.09375 0)"/>
    <use xlink:href="#DejaVuSans-6f" transform="translate(1723.876953 0)"/>
    <use xlink:href="#DejaVuSans-20" transform="translate(1785.058594 0)"/>
    <use xlink:href="#DejaVuSans-70" transform="translate(1816.845703 0)"/>
    <use xlink:href="#DejaVuSans-72" transform="translate(1880.322266 0)"/>
    <use xlink:href="#DejaVuSans-65" transform="translate(1919.185547 0)"/>
    <use xlink:href="#DejaVuSans-73" transform="translate(1980.708984 0)"/>
    <use xlink:href="#DejaVuSans-65" transform="translate(2032.808594 0)"/>
    <use xlink:href="#DejaVuSans-6e" transform="translate(2094.332031 0)"/>
    <use xlink:href="#DejaVuSans-74" transform="translate(2157.710938 0)"/>
    <use xlink:href="#DejaVuSans-61" transform="translate(2196.919922 0)"/>
    <use xlink:href="#DejaVuSans-20" transform="translate(2258.199219 0)"/>
    <use xlink:href="#DejaVuSans-67" transform="translate(2289.986328 0)"/>
    <use xlink:href="#DejaVuSans-75" transform="translate(2353.462891 0)"/>
    <use xlink:href="#DejaVuSans-73" transform="translate(2416.841797 0)"/>
    <use xlink:href="#DejaVuSans-63" transform="translate(2468.941406 0)"/>
    <use xlink:href="#DejaVuSans-69" transform="translate(2523.921875 0)"/>
    <use xlink:href="#DejaVuSans-20" transform="translate(2551.705078 0)"/>
    <use xlink:href="#DejaVuSans-64" transform="translate(2583.492188 0)"/>
    <use xlink:href="#DejaVuSans-69" transform="translate(2646.96875 0)"/>
    <use xlink:href="#DejaVuSans-20" transform="translate(2674.751953 0)"/>
    <use xlink:href="#DejaVuSans-63" transform="translate(2706.539062 0)"/>
    <use xlink:href="#DejaVuSans-6f" transform="translate(2761.519531 0)"/>
    <use xlink:href="#DejaVuSans-6f" transform="translate(2822.701172 0)"/>
    <use xlink:href="#DejaVuSans-72" transform="translate(2883.882812 0)"/>
    <use xlink:href="#DejaVuSans-64" transform="translate(2923.246094 0)"/>
    <use xlink:href="#DejaVuSans-69" transform="translate(2986.722656 0)"/>
    <use xlink:href="#DejaVuSans-6e" transform="translate(3014.505859 0)"/>
    <use xlink:href="#DejaVuSans-61" transform="translate(3077.884766 0)"/>
    <use xlink:href="#DejaVuSans-7a" transform="translate(3139.164062 0)"/>
    <use xlink:href="#DejaVuSans-69" transform="translate(3191.654297 0)"/>
    <use xlink:href="#DejaVuSans-6f" transform="translate(3219.4375 0)"/>
    <use xlink:href="#DejaVuSans-6e" transform="translate(3280.619141 0)"/>
    <use xlink:href="#DejaVuSans-65" transform="translate(3343.998047 0)"/>
    <use xlink:href="#DejaVuSans-20" transform="translate(3405.521484 0)"/>
    <use xlink:href="#DejaVuSans-73" transform="translate(3437.308594 0)"/>
    <use xlink:href="#DejaVuSans-74" transform="translate(3489.408203 0)"/>
    <use xlink:href="#DejaVuSans-72" transform="translate(3528.617188 0)"/>
    <use xlink:href="#DejaVuSans-65" transform="translate(3567.480469 0)"/>
    <use xlink:href="#DejaVuSans-74" transform="translate(3629.003906 0)"/>
    <use xlink:href="#DejaVuSans-74" transform="translate(3668.212891 0)"/>
    <use xlink:href="#DejaVuSans-69" transform="translate(3707.421875 0)"/>
    <use xlink:href="#DejaVuSans-20" transform="translate(3735.205078 0)"/>
    <use xlink:href="#DejaVuSans-65" transform="translate(3766.992188 0)"/>
    <use xlink:href="#DejaVuSans-20" transform="translate(3828.515625 0)"/>
    <use xlink:href="#DejaVuSans-70" transform="translate(3860.302734 0)"/>
    <use xlink:href="#DejaVuSans-65" transform="translate(3923.779297 0)"/>
    <use xlink:href="#DejaVuSans-72" transform="translate(3985.302734 0)"/>
    <use xlink:href="#DejaVuSans-73" transform="translate(4026.416016 0)"/>
    <use xlink:href="#DejaVuSans-69" transform="translate(4078.515625 0)"/>
    <use xlink:href="#DejaVuSans-73" transform="translate(4106.298828 0)"/>
    <use xlink:href="#DejaVuSans-74" transform="translate(4158.398438 0)"/>
    <use xlink:href="#DejaVuSans-65" transform="translate(4197.607422 0)"/>
    <use xlink:href="#DejaVuSans-6e" transform="translate(4259.130859 0)"/>
    <use xlink:href="#DejaVuSans-74" transform="translate(4322.509766 0)"/>
    <use xlink:href="#DejaVuSans-69" transform="translate(4361.71875 0)"/>
    <use xlink:href="#DejaVuSans-2c" transform="translate(4389.501953 0)"/>
    <use xlink:href="#DejaVuSans-20" transform="translate(4421.289062 0)"/>
    <use xlink:href="#DejaVuSans-6d" transform="translate(4453.076172 0)"/>
    <use xlink:href="#DejaVuSans-65" transform="translate(4550.488281 0)"/>
    <use xlink:href="#DejaVuSans-6e" transform="translate(4612.011719 0)"/>
    <use xlink:href="#DejaVuSans-74" transform="translate(4675.390625 0)"/>
    <use xlink:href="#DejaVuSans-72" transform="translate(4714.599609 0)"/>
    <use xlink:href="#DejaVuSans-65" transform="translate(4753.462891 0)"/>
    <use xlink:href="#DejaVuSans-20" transform="translate(4814.986328 0)"/>
    <use xlink:href="#DejaVuSans-6e" transform="translate(4846.773438 0)"/>
    <use xlink:href="#DejaVuSans-65" transform="translate(4910.152344 0)"/>
    <use xlink:href="#DejaVuSans-6c" transform="translate(4971.675781 0)"/>
    <use xlink:href="#DejaVuSans-6c" transform="translate(4999.458984 0)"/>
    <use xlink:href="#DejaVuSans-27" transform="translate(5027.242188 0)"/>
    <use xlink:href="#DejaVuSans-61" transform="translate(5054.732422 0)"/>
    <use xlink:href="#DejaVuSans-6d" transform="translate(5116.011719 0)"/>
    <use xlink:href="#DejaVuSans-6f" transform="translate(5213.423828 0)"/>
    <use xlink:href="#DejaVuSans-72" transform="translate(5274.605469 0)"/>
    <use xlink:href="#DejaVuSans-66" transform="translate(5315.71875 0)"/>
    <use xlink:href="#DejaVuSans-6f" transform="translate(5350.923828 0)"/>
    <use xlink:href="#DejaVuSans-20" transform="translate(5412.105469 0)"/>
    <use xlink:href="#DejaVuSans-69" transform="translate(5443.892578 0)"/>
    <use xlink:href="#DejaVuSans-20" transform="translate(5471.675781 0)"/>
    <use xlink:href="#DejaVuSans-70" transform="translate(5503.462891 0)"/>
    <use xlink:href="#DejaVuSans-69" transform="translate(5566.939453 0)"/>
    <use xlink:href="#DejaVuSans-63" transform="translate(5594.722656 0)"/>
    <use xlink:href="#DejaVuSans-63" transform="translate(5649.703125 0)"/>
    <use xlink:href="#DejaVuSans-68" transform="translate(5704.683594 0)"/>
    <use xlink:href="#DejaVuSans-69" transform="translate(5768.0625 0)"/>
    <use xlink:href="#DejaVuSans-20" transform="translate(5795.845703 0)"/>
    <use xlink:href="#DejaVuSans-6f" transform="translate(5827.632812 0)"/>
    <use xlink:href="#DejaVuSans-6c" transform="translate(5888.814453 0)"/>
    <use xlink:href="#DejaVuSans-74" transform="translate(5916.597656 0)"/>
    <use xlink:href="#DejaVuSans-72" transform="translate(5955.806641 0)"/>
    <use xlink:href="#DejaVuSans-65" transform="translate(5994.669922 0)"/>
    <use xlink:href="#DejaVuSans-20" transform="translate(6056.193359 0)"/>
    <use xlink:href="#DejaVuSans-69" transform="translate(6087.980469 0)"/>
    <use xlink:href="#DejaVuSans-6c" transform="translate(6115.763672 0)"/>
    <use xlink:href="#DejaVuSans-20" transform="translate(6143.546875 0)"/>
    <use xlink:href="#DejaVuSans-70" transform="translate(6175.333984 0)"/>
    <use xlink:href="#DejaVuSans-72" transform="translate(6238.810547 0)"/>
    <use xlink:href="#DejaVuSans-69" transform="translate(6279.923828 0)"/>
    <use xlink:href="#DejaVuSans-6d" transform="translate(6307.707031 0)"/>
    <use xlink:href="#DejaVuSans-6f" transform="translate(6405.119141 0)"/>
    <use xlink:href="#DejaVuSans-20" transform="translate(6466.300781 0)"/>
    <use xlink:href="#DejaVuSans-73" transform="translate(6498.087891 0)"/>
    <use xlink:href="#DejaVuSans-6f" transform="translate(6550.1875 0)"/>
    <use xlink:href="#DejaVuSans-6e" transform="translate(6611.369141 0)"/>
    <use xlink:href="#DejaVuSans-6f" transform="translate(6674.748047 0)"/>
    <use xlink:href="#DejaVuSans-20" transform="translate(6735.929688 0)"/>
    <use xlink:href="#DejaVuSans-61" transform="translate(6767.716797 0)"/>
    <use xlink:href="#DejaVuSans-6c" transform="translate(6828.996094 0)"/>
    <use xlink:href="#DejaVuSans-6c" transform="translate(6856.779297 0)"/>
    <use xlink:href="#DejaVuSans-61" transform="translate(6884.5625 0)"/>
    <use xlink:href="#DejaVuSans-72" transform="translate(6945.841797 0)"/>
    <use xlink:href="#DejaVuSans-67" transform="translate(6985.205078 0)"/>
    <use xlink:href="#DejaVuSans-61" transform="translate(7048.681641 0)"/>
    <use xlink:href="#DejaVuSans-74" transform="translate(7109.960938 0)"/>
    <use xlink:href="#DejaVuSans-69" transform="translate(7149.169922 0)"/>
    <use xlink:href="#DejaVuSans-20" transform="translate(7176.953125 0)"/>
    <use xlink:href="#DejaVuSans-65" transform="translate(7208.740234 0)"/>
    <use xlink:href="#DejaVuSans-20" transform="translate(7270.263672 0)"/>
    <use xlink:href="#DejaVuSans-73" transform="translate(7302.050781 0)"/>
    <use xlink:href="#DejaVuSans-6f" transform="translate(7354.150391 0)"/>
    <use xlink:href="#DejaVuSans-76" transform="translate(7415.332031 0)"/>
    <use xlink:href="#DejaVuSans-72" transform="translate(7474.511719 0)"/>
    <use xlink:href="#DejaVuSans-61" transform="translate(7515.625 0)"/>
    <use xlink:href="#DejaVuSans-70" transform="translate(7576.904297 0)"/>
    <use xlink:href="#DejaVuSans-70" transform="translate(7640.380859 0)"/>
    <use xlink:href="#DejaVuSans-6f" transform="translate(7703.857422 0)"/>
    <use xlink:href="#DejaVuSans-73" transform="translate(7765.039062 0)"/>
    <use xlink:href="#DejaVuSans-74" transform="translate(7817.138672 0)"/>
    <use xlink:href="#DejaVuSans-69" transform="translate(7856.347656 0)"/>
    <use xlink:href="#DejaVuSans-2e" transform="translate(7884.130859 0)"/>
   </g>
  </g>
 </g>
 <defs>
  <clipPath id="p9dbf3a75c5">
   <rect x="119.489063" y="30.597656" width="585.9" height="376.992"/>
  </clipPath>
 </defs>
</svg>
