<?xml version="1.0" encoding="utf-8" standalone="no"?>
<!DOCTYPE svg PUBLIC "-//W3C//DTD SVG 1.1//EN"
  "http://www.w3.org/Graphics/SVG/1.1/DTD/svg11.dtd">
<svg xmlns:xlink="http://www.w3.org/1999/xlink" width="597.270938pt" height="377.815781pt" viewBox="0 0 597.270938 377.815781" xmlns="http://www.w3.org/2000/svg" version="1.1">
 <metadata>
  <rdf:RDF xmlns:dc="http://purl.org/dc/elements/1.1/" xmlns:cc="http://creativecommons.org/ns#" xmlns:rdf="http://www.w3.org/1999/02/22-rdf-syntax-ns#">
   <cc:Work>
    <dc:type rdf:resource="http://purl.org/dc/dcmitype/StillImage"/>
    <dc:date>2026-06-16T08:00:46.274265</dc:date>
    <dc:format>image/svg+xml</dc:format>
    <dc:creator>
     <cc:Agent>
      <dc:title>Matplotlib v3.10.8, https://matplotlib.org/</dc:title>
     </cc:Agent>
    </dc:creator>
   </cc:Work>
  </rdf:RDF>
 </metadata>
 <defs>
  <style type="text/css">*{stroke-linejoin: round; stroke-linecap: butt}</style>
 </defs>
 <g id="figure_1">
  <g id="patch_1">
   <path d="M 0 377.815781 
L 597.270938 377.815781 
L 597.270938 0 
L 0 0 
z
" style="fill: #ffffff"/>
  </g>
  <g id="axes_1">
   <g id="patch_2">
    <path d="M 52.160938 340.237656 
L 590.070938 340.237656 
L 590.070938 24.597656 
L 52.160938 24.597656 
z
" style="fill: #ffffff"/>
   </g>
   <g id="matplotlib.axis_1">
    <g id="xtick_1">
     <g id="line2d_1">
      <path d="M 66.699046 340.237656 
L 66.699046 24.597656 
" clip-path="url(#p70481dcd5c)" style="fill: none; stroke: #b0b0b0; stroke-opacity: 0.12; stroke-width: 0.8; stroke-linecap: square"/>
     </g>
     <g id="line2d_2">
      <defs>
       <path id="m63ee963c2d" d="M 0 0 
L 0 3.5 
" style="stroke: #000000; stroke-width: 0.8"/>
      </defs>
      <g>
       <use xlink:href="#m63ee963c2d" x="66.699046" y="340.237656" style="stroke: #000000; stroke-width: 0.8"/>
      </g>
     </g>
     <g id="text_1">
      <!-- 0 -->
      <g transform="translate(63.517796 354.836094) scale(0.1 -0.1)">
       <defs>
        <path id="DejaVuSans-30" d="M 2034 4250 
Q 1547 4250 1301 3770 
Q 1056 3291 1056 2328 
Q 1056 1369 1301 889 
Q 1547 409 2034 409 
Q 2525 409 2770 889 
Q 3016 1369 3016 2328 
Q 3016 3291 2770 3770 
Q 2525 4250 2034 4250 
z
M 2034 4750 
Q 2819 4750 3233 4129 
Q 3647 3509 3647 2328 
Q 3647 1150 3233 529 
Q 2819 -91 2034 -91 
Q 1250 -91 836 529 
Q 422 1150 422 2328 
Q 422 3509 836 4129 
Q 1250 4750 2034 4750 
z
" transform="scale(0.015625)"/>
       </defs>
       <use xlink:href="#DejaVuSans-30"/>
      </g>
     </g>
    </g>
    <g id="xtick_2">
     <g id="line2d_3">
      <path d="M 139.389586 340.237656 
L 139.389586 24.597656 
" clip-path="url(#p70481dcd5c)" style="fill: none; stroke: #b0b0b0; stroke-opacity: 0.12; stroke-width: 0.8; stroke-linecap: square"/>
     </g>
     <g id="line2d_4">
      <g>
       <use xlink:href="#m63ee963c2d" x="139.389586" y="340.237656" style="stroke: #000000; stroke-width: 0.8"/>
      </g>
     </g>
     <g id="text_2">
      <!-- 1 -->
      <g transform="translate(136.208336 354.836094) scale(0.1 -0.1)">
       <defs>
        <path id="DejaVuSans-31" d="M 794 531 
L 1825 531 
L 1825 4091 
L 703 3866 
L 703 4441 
L 1819 4666 
L 2450 4666 
L 2450 531 
L 3481 531 
L 3481 0 
L 794 0 
L 794 531 
z
" transform="scale(0.015625)"/>
       </defs>
       <use xlink:href="#DejaVuSans-31"/>
      </g>
     </g>
    </g>
    <g id="xtick_3">
     <g id="line2d_5">
      <path d="M 212.080127 340.237656 
L 212.080127 24.597656 
" clip-path="url(#p70481dcd5c)" style="fill: none; stroke: #b0b0b0; stroke-opacity: 0.12; stroke-width: 0.8; stroke-linecap: square"/>
     </g>
     <g id="line2d_6">
      <g>
       <use xlink:href="#m63ee963c2d" x="212.080127" y="340.237656" style="stroke: #000000; stroke-width: 0.8"/>
      </g>
     </g>
     <g id="text_3">
      <!-- 2 -->
      <g transform="translate(208.898877 354.836094) scale(0.1 -0.1)">
       <defs>
        <path id="DejaVuSans-32" d="M 1228 531 
L 3431 531 
L 3431 0 
L 469 0 
L 469 531 
Q 828 903 1448 1529 
Q 2069 2156 2228 2338 
Q 2531 2678 2651 2914 
Q 2772 3150 2772 3378 
Q 2772 3750 2511 3984 
Q 2250 4219 1831 4219 
Q 1534 4219 1204 4116 
Q 875 4013 500 3803 
L 500 4441 
Q 881 4594 1212 4672 
Q 1544 4750 1819 4750 
Q 2544 4750 2975 4387 
Q 3406 4025 3406 3419 
Q 3406 3131 3298 2873 
Q 3191 2616 2906 2266 
Q 2828 2175 2409 1742 
Q 1991 1309 1228 531 
z
" transform="scale(0.015625)"/>
       </defs>
       <use xlink:href="#DejaVuSans-32"/>
      </g>
     </g>
    </g>
    <g id="xtick_4">
     <g id="line2d_7">
      <path d="M 284.770667 340.237656 
L 284.770667 24.597656 
" clip-path="url(#p70481dcd5c)" style="fill: none; stroke: #b0b0b0; stroke-opacity: 0.12; stroke-width: 0.8; stroke-linecap: square"/>
     </g>
     <g id="line2d_8">
      <g>
       <use xlink:href="#m63ee963c2d" x="284.770667" y="340.237656" style="stroke: #000000; stroke-width: 0.8"/>
      </g>
     </g>
     <g id="text_4">
      <!-- 3 -->
      <g transform="translate(281.589417 354.836094) scale(0.1 -0.1)">
       <defs>
        <path id="DejaVuSans-33" d="M 2597 2516 
Q 3050 2419 3304 2112 
Q 3559 1806 3559 1356 
Q 3559 666 3084 287 
Q 2609 -91 1734 -91 
Q 1441 -91 1130 -33 
Q 819 25 488 141 
L 488 750 
Q 750 597 1062 519 
Q 1375 441 1716 441 
Q 2309 441 2620 675 
Q 2931 909 2931 1356 
Q 2931 1769 2642 2001 
Q 2353 2234 1838 2234 
L 1294 2234 
L 1294 2753 
L 1863 2753 
Q 2328 2753 2575 2939 
Q 2822 3125 2822 3475 
Q 2822 3834 2567 4026 
Q 2313 4219 1838 4219 
Q 1578 4219 1281 4162 
Q 984 4106 628 3988 
L 628 4550 
Q 988 4650 1302 4700 
Q 1616 4750 1894 4750 
Q 2613 4750 3031 4423 
Q 3450 4097 3450 3541 
Q 3450 3153 3228 2886 
Q 3006 2619 2597 2516 
z
" transform="scale(0.015625)"/>
       </defs>
       <use xlink:href="#DejaVuSans-33"/>
      </g>
     </g>
    </g>
    <g id="xtick_5">
     <g id="line2d_9">
      <path d="M 357.461208 340.237656 
L 357.461208 24.597656 
" clip-path="url(#p70481dcd5c)" style="fill: none; stroke: #b0b0b0; stroke-opacity: 0.12; stroke-width: 0.8; stroke-linecap: square"/>
     </g>
     <g id="line2d_10">
      <g>
       <use xlink:href="#m63ee963c2d" x="357.461208" y="340.237656" style="stroke: #000000; stroke-width: 0.8"/>
      </g>
     </g>
     <g id="text_5">
      <!-- 4 -->
      <g transform="translate(354.279958 354.836094) scale(0.1 -0.1)">
       <defs>
        <path id="DejaVuSans-34" d="M 2419 4116 
L 825 1625 
L 2419 1625 
L 2419 4116 
z
M 2253 4666 
L 3047 4666 
L 3047 1625 
L 3713 1625 
L 3713 1100 
L 3047 1100 
L 3047 0 
L 2419 0 
L 2419 1100 
L 313 1100 
L 313 1709 
L 2253 4666 
z
" transform="scale(0.015625)"/>
       </defs>
       <use xlink:href="#DejaVuSans-34"/>
      </g>
     </g>
    </g>
    <g id="xtick_6">
     <g id="line2d_11">
      <path d="M 430.151748 340.237656 
L 430.151748 24.597656 
" clip-path="url(#p70481dcd5c)" style="fill: none; stroke: #b0b0b0; stroke-opacity: 0.12; stroke-width: 0.8; stroke-linecap: square"/>
     </g>
     <g id="line2d_12">
      <g>
       <use xlink:href="#m63ee963c2d" x="430.151748" y="340.237656" style="stroke: #000000; stroke-width: 0.8"/>
      </g>
     </g>
     <g id="text_6">
      <!-- 5 -->
      <g transform="translate(426.970498 354.836094) scale(0.1 -0.1)">
       <defs>
        <path id="DejaVuSans-35" d="M 691 4666 
L 3169 4666 
L 3169 4134 
L 1269 4134 
L 1269 2991 
Q 1406 3038 1543 3061 
Q 1681 3084 1819 3084 
Q 2600 3084 3056 2656 
Q 3513 2228 3513 1497 
Q 3513 744 3044 326 
Q 2575 -91 1722 -91 
Q 1428 -91 1123 -41 
Q 819 9 494 109 
L 494 744 
Q 775 591 1075 516 
Q 1375 441 1709 441 
Q 2250 441 2565 725 
Q 2881 1009 2881 1497 
Q 2881 1984 2565 2268 
Q 2250 2553 1709 2553 
Q 1456 2553 1204 2497 
Q 953 2441 691 2322 
L 691 4666 
z
" transform="scale(0.015625)"/>
       </defs>
       <use xlink:href="#DejaVuSans-35"/>
      </g>
     </g>
    </g>
    <g id="xtick_7">
     <g id="line2d_13">
      <path d="M 502.842289 340.237656 
L 502.842289 24.597656 
" clip-path="url(#p70481dcd5c)" style="fill: none; stroke: #b0b0b0; stroke-opacity: 0.12; stroke-width: 0.8; stroke-linecap: square"/>
     </g>
     <g id="line2d_14">
      <g>
       <use xlink:href="#m63ee963c2d" x="502.842289" y="340.237656" style="stroke: #000000; stroke-width: 0.8"/>
      </g>
     </g>
     <g id="text_7">
      <!-- 6 -->
      <g transform="translate(499.661039 354.836094) scale(0.1 -0.1)">
       <defs>
        <path id="DejaVuSans-36" d="M 2113 2584 
Q 1688 2584 1439 2293 
Q 1191 2003 1191 1497 
Q 1191 994 1439 701 
Q 1688 409 2113 409 
Q 2538 409 2786 701 
Q 3034 994 3034 1497 
Q 3034 2003 2786 2293 
Q 2538 2584 2113 2584 
z
M 3366 4563 
L 3366 3988 
Q 3128 4100 2886 4159 
Q 2644 4219 2406 4219 
Q 1781 4219 1451 3797 
Q 1122 3375 1075 2522 
Q 1259 2794 1537 2939 
Q 1816 3084 2150 3084 
Q 2853 3084 3261 2657 
Q 3669 2231 3669 1497 
Q 3669 778 3244 343 
Q 2819 -91 2113 -91 
Q 1303 -91 875 529 
Q 447 1150 447 2328 
Q 447 3434 972 4092 
Q 1497 4750 2381 4750 
Q 2619 4750 2861 4703 
Q 3103 4656 3366 4563 
z
" transform="scale(0.015625)"/>
       </defs>
       <use xlink:href="#DejaVuSans-36"/>
      </g>
     </g>
    </g>
    <g id="xtick_8">
     <g id="line2d_15">
      <path d="M 575.532829 340.237656 
L 575.532829 24.597656 
" clip-path="url(#p70481dcd5c)" style="fill: none; stroke: #b0b0b0; stroke-opacity: 0.12; stroke-width: 0.8; stroke-linecap: square"/>
     </g>
     <g id="line2d_16">
      <g>
       <use xlink:href="#m63ee963c2d" x="575.532829" y="340.237656" style="stroke: #000000; stroke-width: 0.8"/>
      </g>
     </g>
     <g id="text_8">
      <!-- 7 -->
      <g transform="translate(572.351579 354.836094) scale(0.1 -0.1)">
       <defs>
        <path id="DejaVuSans-37" d="M 525 4666 
L 3525 4666 
L 3525 4397 
L 1831 0 
L 1172 0 
L 2766 4134 
L 525 4134 
L 525 4666 
z
" transform="scale(0.015625)"/>
       </defs>
       <use xlink:href="#DejaVuSans-37"/>
      </g>
     </g>
    </g>
    <g id="text_9">
     <!-- position along the chain, $r$ -->
     <g transform="translate(255.665937 368.515781) scale(0.1 -0.1)">
      <defs>
       <path id="DejaVuSans-70" d="M 1159 525 
L 1159 -1331 
L 581 -1331 
L 581 3500 
L 1159 3500 
L 1159 2969 
Q 1341 3281 1617 3432 
Q 1894 3584 2278 3584 
Q 2916 3584 3314 3078 
Q 3713 2572 3713 1747 
Q 3713 922 3314 415 
Q 2916 -91 2278 -91 
Q 1894 -91 1617 61 
Q 1341 213 1159 525 
z
M 3116 1747 
Q 3116 2381 2855 2742 
Q 2594 3103 2138 3103 
Q 1681 3103 1420 2742 
Q 1159 2381 1159 1747 
Q 1159 1113 1420 752 
Q 1681 391 2138 391 
Q 2594 391 2855 752 
Q 3116 1113 3116 1747 
z
" transform="scale(0.015625)"/>
       <path id="DejaVuSans-6f" d="M 1959 3097 
Q 1497 3097 1228 2736 
Q 959 2375 959 1747 
Q 959 1119 1226 758 
Q 1494 397 1959 397 
Q 2419 397 2687 759 
Q 2956 1122 2956 1747 
Q 2956 2369 2687 2733 
Q 2419 3097 1959 3097 
z
M 1959 3584 
Q 2709 3584 3137 3096 
Q 3566 2609 3566 1747 
Q 3566 888 3137 398 
Q 2709 -91 1959 -91 
Q 1206 -91 779 398 
Q 353 888 353 1747 
Q 353 2609 779 3096 
Q 1206 3584 1959 3584 
z
" transform="scale(0.015625)"/>
       <path id="DejaVuSans-73" d="M 2834 3397 
L 2834 2853 
Q 2591 2978 2328 3040 
Q 2066 3103 1784 3103 
Q 1356 3103 1142 2972 
Q 928 2841 928 2578 
Q 928 2378 1081 2264 
Q 1234 2150 1697 2047 
L 1894 2003 
Q 2506 1872 2764 1633 
Q 3022 1394 3022 966 
Q 3022 478 2636 193 
Q 2250 -91 1575 -91 
Q 1294 -91 989 -36 
Q 684 19 347 128 
L 347 722 
Q 666 556 975 473 
Q 1284 391 1588 391 
Q 1994 391 2212 530 
Q 2431 669 2431 922 
Q 2431 1156 2273 1281 
Q 2116 1406 1581 1522 
L 1381 1569 
Q 847 1681 609 1914 
Q 372 2147 372 2553 
Q 372 3047 722 3315 
Q 1072 3584 1716 3584 
Q 2034 3584 2315 3537 
Q 2597 3491 2834 3397 
z
" transform="scale(0.015625)"/>
       <path id="DejaVuSans-69" d="M 603 3500 
L 1178 3500 
L 1178 0 
L 603 0 
L 603 3500 
z
M 603 4863 
L 1178 4863 
L 1178 4134 
L 603 4134 
L 603 4863 
z
" transform="scale(0.015625)"/>
       <path id="DejaVuSans-74" d="M 1172 4494 
L 1172 3500 
L 2356 3500 
L 2356 3053 
L 1172 3053 
L 1172 1153 
Q 1172 725 1289 603 
Q 1406 481 1766 481 
L 2356 481 
L 2356 0 
L 1766 0 
Q 1100 0 847 248 
Q 594 497 594 1153 
L 594 3053 
L 172 3053 
L 172 3500 
L 594 3500 
L 594 4494 
L 1172 4494 
z
" transform="scale(0.015625)"/>
       <path id="DejaVuSans-6e" d="M 3513 2113 
L 3513 0 
L 2938 0 
L 2938 2094 
Q 2938 2591 2744 2837 
Q 2550 3084 2163 3084 
Q 1697 3084 1428 2787 
Q 1159 2491 1159 1978 
L 1159 0 
L 581 0 
L 581 3500 
L 1159 3500 
L 1159 2956 
Q 1366 3272 1645 3428 
Q 1925 3584 2291 3584 
Q 2894 3584 3203 3211 
Q 3513 2838 3513 2113 
z
" transform="scale(0.015625)"/>
       <path id="DejaVuSans-20" transform="scale(0.015625)"/>
       <path id="DejaVuSans-61" d="M 2194 1759 
Q 1497 1759 1228 1600 
Q 959 1441 959 1056 
Q 959 750 1161 570 
Q 1363 391 1709 391 
Q 2188 391 2477 730 
Q 2766 1069 2766 1631 
L 2766 1759 
L 2194 1759 
z
M 3341 1997 
L 3341 0 
L 2766 0 
L 2766 531 
Q 2569 213 2275 61 
Q 1981 -91 1556 -91 
Q 1019 -91 701 211 
Q 384 513 384 1019 
Q 384 1609 779 1909 
Q 1175 2209 1959 2209 
L 2766 2209 
L 2766 2266 
Q 2766 2663 2505 2880 
Q 2244 3097 1772 3097 
Q 1472 3097 1187 3025 
Q 903 2953 641 2809 
L 641 3341 
Q 956 3463 1253 3523 
Q 1550 3584 1831 3584 
Q 2591 3584 2966 3190 
Q 3341 2797 3341 1997 
z
" transform="scale(0.015625)"/>
       <path id="DejaVuSans-6c" d="M 603 4863 
L 1178 4863 
L 1178 0 
L 603 0 
L 603 4863 
z
" transform="scale(0.015625)"/>
       <path id="DejaVuSans-67" d="M 2906 1791 
Q 2906 2416 2648 2759 
Q 2391 3103 1925 3103 
Q 1463 3103 1205 2759 
Q 947 2416 947 1791 
Q 947 1169 1205 825 
Q 1463 481 1925 481 
Q 2391 481 2648 825 
Q 2906 1169 2906 1791 
z
M 3481 434 
Q 3481 -459 3084 -895 
Q 2688 -1331 1869 -1331 
Q 1566 -1331 1297 -1286 
Q 1028 -1241 775 -1147 
L 775 -588 
Q 1028 -725 1275 -790 
Q 1522 -856 1778 -856 
Q 2344 -856 2625 -561 
Q 2906 -266 2906 331 
L 2906 616 
Q 2728 306 2450 153 
Q 2172 0 1784 0 
Q 1141 0 747 490 
Q 353 981 353 1791 
Q 353 2603 747 3093 
Q 1141 3584 1784 3584 
Q 2172 3584 2450 3431 
Q 2728 3278 2906 2969 
L 2906 3500 
L 3481 3500 
L 3481 434 
z
" transform="scale(0.015625)"/>
       <path id="DejaVuSans-68" d="M 3513 2113 
L 3513 0 
L 2938 0 
L 2938 2094 
Q 2938 2591 2744 2837 
Q 2550 3084 2163 3084 
Q 1697 3084 1428 2787 
Q 1159 2491 1159 1978 
L 1159 0 
L 581 0 
L 581 4863 
L 1159 4863 
L 1159 2956 
Q 1366 3272 1645 3428 
Q 1925 3584 2291 3584 
Q 2894 3584 3203 3211 
Q 3513 2838 3513 2113 
z
" transform="scale(0.015625)"/>
       <path id="DejaVuSans-65" d="M 3597 1894 
L 3597 1613 
L 953 1613 
Q 991 1019 1311 708 
Q 1631 397 2203 397 
Q 2534 397 2845 478 
Q 3156 559 3463 722 
L 3463 178 
Q 3153 47 2828 -22 
Q 2503 -91 2169 -91 
Q 1331 -91 842 396 
Q 353 884 353 1716 
Q 353 2575 817 3079 
Q 1281 3584 2069 3584 
Q 2775 3584 3186 3129 
Q 3597 2675 3597 1894 
z
M 3022 2063 
Q 3016 2534 2758 2815 
Q 2500 3097 2075 3097 
Q 1594 3097 1305 2825 
Q 1016 2553 972 2059 
L 3022 2063 
z
" transform="scale(0.015625)"/>
       <path id="DejaVuSans-63" d="M 3122 3366 
L 3122 2828 
Q 2878 2963 2633 3030 
Q 2388 3097 2138 3097 
Q 1578 3097 1268 2742 
Q 959 2388 959 1747 
Q 959 1106 1268 751 
Q 1578 397 2138 397 
Q 2388 397 2633 464 
Q 2878 531 3122 666 
L 3122 134 
Q 2881 22 2623 -34 
Q 2366 -91 2075 -91 
Q 1284 -91 818 406 
Q 353 903 353 1747 
Q 353 2603 823 3093 
Q 1294 3584 2113 3584 
Q 2378 3584 2631 3529 
Q 2884 3475 3122 3366 
z
" transform="scale(0.015625)"/>
       <path id="DejaVuSans-2c" d="M 750 794 
L 1409 794 
L 1409 256 
L 897 -744 
L 494 -744 
L 750 256 
L 750 794 
z
" transform="scale(0.015625)"/>
       <path id="DejaVuSans-Oblique-72" d="M 2853 2969 
Q 2766 3016 2653 3041 
Q 2541 3066 2413 3066 
Q 1953 3066 1609 2717 
Q 1266 2369 1153 1784 
L 800 0 
L 225 0 
L 909 3500 
L 1484 3500 
L 1375 2956 
Q 1603 3259 1920 3421 
Q 2238 3584 2597 3584 
Q 2691 3584 2781 3573 
Q 2872 3563 2963 3538 
L 2853 2969 
z
" transform="scale(0.015625)"/>
      </defs>
      <use xlink:href="#DejaVuSans-70" transform="translate(0 0.015625)"/>
      <use xlink:href="#DejaVuSans-6f" transform="translate(63.476562 0.015625)"/>
      <use xlink:href="#DejaVuSans-73" transform="translate(124.658203 0.015625)"/>
      <use xlink:href="#DejaVuSans-69" transform="translate(176.757812 0.015625)"/>
      <use xlink:href="#DejaVuSans-74" transform="translate(204.541016 0.015625)"/>
      <use xlink:href="#DejaVuSans-69" transform="translate(243.75 0.015625)"/>
      <use xlink:href="#DejaVuSans-6f" transform="translate(271.533203 0.015625)"/>
      <use xlink:href="#DejaVuSans-6e" transform="translate(332.714844 0.015625)"/>
      <use xlink:href="#DejaVuSans-20" transform="translate(396.09375 0.015625)"/>
      <use xlink:href="#DejaVuSans-61" transform="translate(427.880859 0.015625)"/>
      <use xlink:href="#DejaVuSans-6c" transform="translate(489.160156 0.015625)"/>
      <use xlink:href="#DejaVuSans-6f" transform="translate(516.943359 0.015625)"/>
      <use xlink:href="#DejaVuSans-6e" transform="translate(578.125 0.015625)"/>
      <use xlink:href="#DejaVuSans-67" transform="translate(641.503906 0.015625)"/>
      <use xlink:href="#DejaVuSans-20" transform="translate(704.980469 0.015625)"/>
      <use xlink:href="#DejaVuSans-74" transform="translate(736.767578 0.015625)"/>
      <use xlink:href="#DejaVuSans-68" transform="translate(775.976562 0.015625)"/>
      <use xlink:href="#DejaVuSans-65" transform="translate(839.355469 0.015625)"/>
      <use xlink:href="#DejaVuSans-20" transform="translate(900.878906 0.015625)"/>
      <use xlink:href="#DejaVuSans-63" transform="translate(932.666016 0.015625)"/>
      <use xlink:href="#DejaVuSans-68" transform="translate(987.646484 0.015625)"/>
      <use xlink:href="#DejaVuSans-61" transform="translate(1051.025391 0.015625)"/>
      <use xlink:href="#DejaVuSans-69" transform="translate(1112.304688 0.015625)"/>
      <use xlink:href="#DejaVuSans-6e" transform="translate(1140.087891 0.015625)"/>
      <use xlink:href="#DejaVuSans-2c" transform="translate(1203.466797 0.015625)"/>
      <use xlink:href="#DejaVuSans-20" transform="translate(1235.253906 0.015625)"/>
      <use xlink:href="#DejaVuSans-Oblique-72" transform="translate(1267.041016 0.015625)"/>
     </g>
    </g>
   </g>
   <g id="matplotlib.axis_2">
    <g id="ytick_1">
     <g id="line2d_17">
      <defs>
       <path id="m75fd11868c" d="M 0 0 
L -3.5 0 
" style="stroke: #000000; stroke-width: 0.8"/>
      </defs>
      <g>
       <use xlink:href="#m75fd11868c" x="52.160938" y="302.143173" style="stroke: #000000; stroke-width: 0.8"/>
      </g>
     </g>
     <g id="text_10">
      <!-- −2.0 -->
      <g transform="translate(20.878125 305.942392) scale(0.1 -0.1)">
       <defs>
        <path id="DejaVuSans-2212" d="M 678 2272 
L 4684 2272 
L 4684 1741 
L 678 1741 
L 678 2272 
z
" transform="scale(0.015625)"/>
        <path id="DejaVuSans-2e" d="M 684 794 
L 1344 794 
L 1344 0 
L 684 0 
L 684 794 
z
" transform="scale(0.015625)"/>
       </defs>
       <use xlink:href="#DejaVuSans-2212"/>
       <use xlink:href="#DejaVuSans-32" transform="translate(83.789062 0)"/>
       <use xlink:href="#DejaVuSans-2e" transform="translate(147.412109 0)"/>
       <use xlink:href="#DejaVuSans-30" transform="translate(179.199219 0)"/>
      </g>
     </g>
    </g>
    <g id="ytick_2">
     <g id="line2d_18">
      <g>
       <use xlink:href="#m75fd11868c" x="52.160938" y="247.722484" style="stroke: #000000; stroke-width: 0.8"/>
      </g>
     </g>
     <g id="text_11">
      <!-- −1.5 -->
      <g transform="translate(20.878125 251.521703) scale(0.1 -0.1)">
       <use xlink:href="#DejaVuSans-2212"/>
       <use xlink:href="#DejaVuSans-31" transform="translate(83.789062 0)"/>
       <use xlink:href="#DejaVuSans-2e" transform="translate(147.412109 0)"/>
       <use xlink:href="#DejaVuSans-35" transform="translate(179.199219 0)"/>
      </g>
     </g>
    </g>
    <g id="ytick_3">
     <g id="line2d_19">
      <g>
       <use xlink:href="#m75fd11868c" x="52.160938" y="193.301794" style="stroke: #000000; stroke-width: 0.8"/>
      </g>
     </g>
     <g id="text_12">
      <!-- −1.0 -->
      <g transform="translate(20.878125 197.101013) scale(0.1 -0.1)">
       <use xlink:href="#DejaVuSans-2212"/>
       <use xlink:href="#DejaVuSans-31" transform="translate(83.789062 0)"/>
       <use xlink:href="#DejaVuSans-2e" transform="translate(147.412109 0)"/>
       <use xlink:href="#DejaVuSans-30" transform="translate(179.199219 0)"/>
      </g>
     </g>
    </g>
    <g id="ytick_4">
     <g id="line2d_20">
      <g>
       <use xlink:href="#m75fd11868c" x="52.160938" y="138.881105" style="stroke: #000000; stroke-width: 0.8"/>
      </g>
     </g>
     <g id="text_13">
      <!-- −0.5 -->
      <g transform="translate(20.878125 142.680323) scale(0.1 -0.1)">
       <use xlink:href="#DejaVuSans-2212"/>
       <use xlink:href="#DejaVuSans-30" transform="translate(83.789062 0)"/>
       <use xlink:href="#DejaVuSans-2e" transform="translate(147.412109 0)"/>
       <use xlink:href="#DejaVuSans-35" transform="translate(179.199219 0)"/>
      </g>
     </g>
    </g>
    <g id="ytick_5">
     <g id="line2d_21">
      <g>
       <use xlink:href="#m75fd11868c" x="52.160938" y="84.460415" style="stroke: #000000; stroke-width: 0.8"/>
      </g>
     </g>
     <g id="text_14">
      <!-- 0.0 -->
      <g transform="translate(29.257813 88.259634) scale(0.1 -0.1)">
       <use xlink:href="#DejaVuSans-30"/>
       <use xlink:href="#DejaVuSans-2e" transform="translate(63.623047 0)"/>
       <use xlink:href="#DejaVuSans-30" transform="translate(95.410156 0)"/>
      </g>
     </g>
    </g>
    <g id="ytick_6">
     <g id="line2d_22">
      <g>
       <use xlink:href="#m75fd11868c" x="52.160938" y="30.039725" style="stroke: #000000; stroke-width: 0.8"/>
      </g>
     </g>
     <g id="text_15">
      <!-- 0.5 -->
      <g transform="translate(29.257813 33.838944) scale(0.1 -0.1)">
       <use xlink:href="#DejaVuSans-30"/>
       <use xlink:href="#DejaVuSans-2e" transform="translate(63.623047 0)"/>
       <use xlink:href="#DejaVuSans-35" transform="translate(95.410156 0)"/>
      </g>
     </g>
    </g>
    <g id="text_16">
     <!-- potential energy (arbitrary units) -->
     <g transform="translate(14.798438 264.82) rotate(-90) scale(0.1 -0.1)">
      <defs>
       <path id="DejaVuSans-72" d="M 2631 2963 
Q 2534 3019 2420 3045 
Q 2306 3072 2169 3072 
Q 1681 3072 1420 2755 
Q 1159 2438 1159 1844 
L 1159 0 
L 581 0 
L 581 3500 
L 1159 3500 
L 1159 2956 
Q 1341 3275 1631 3429 
Q 1922 3584 2338 3584 
Q 2397 3584 2469 3576 
Q 2541 3569 2628 3553 
L 2631 2963 
z
" transform="scale(0.015625)"/>
       <path id="DejaVuSans-79" d="M 2059 -325 
Q 1816 -950 1584 -1140 
Q 1353 -1331 966 -1331 
L 506 -1331 
L 506 -850 
L 844 -850 
Q 1081 -850 1212 -737 
Q 1344 -625 1503 -206 
L 1606 56 
L 191 3500 
L 800 3500 
L 1894 763 
L 2988 3500 
L 3597 3500 
L 2059 -325 
z
" transform="scale(0.015625)"/>
       <path id="DejaVuSans-28" d="M 1984 4856 
Q 1566 4138 1362 3434 
Q 1159 2731 1159 2009 
Q 1159 1288 1364 580 
Q 1569 -128 1984 -844 
L 1484 -844 
Q 1016 -109 783 600 
Q 550 1309 550 2009 
Q 550 2706 781 3412 
Q 1013 4119 1484 4856 
L 1984 4856 
z
" transform="scale(0.015625)"/>
       <path id="DejaVuSans-62" d="M 3116 1747 
Q 3116 2381 2855 2742 
Q 2594 3103 2138 3103 
Q 1681 3103 1420 2742 
Q 1159 2381 1159 1747 
Q 1159 1113 1420 752 
Q 1681 391 2138 391 
Q 2594 391 2855 752 
Q 3116 1113 3116 1747 
z
M 1159 2969 
Q 1341 3281 1617 3432 
Q 1894 3584 2278 3584 
Q 2916 3584 3314 3078 
Q 3713 2572 3713 1747 
Q 3713 922 3314 415 
Q 2916 -91 2278 -91 
Q 1894 -91 1617 61 
Q 1341 213 1159 525 
L 1159 0 
L 581 0 
L 581 4863 
L 1159 4863 
L 1159 2969 
z
" transform="scale(0.015625)"/>
       <path id="DejaVuSans-75" d="M 544 1381 
L 544 3500 
L 1119 3500 
L 1119 1403 
Q 1119 906 1312 657 
Q 1506 409 1894 409 
Q 2359 409 2629 706 
Q 2900 1003 2900 1516 
L 2900 3500 
L 3475 3500 
L 3475 0 
L 2900 0 
L 2900 538 
Q 2691 219 2414 64 
Q 2138 -91 1772 -91 
Q 1169 -91 856 284 
Q 544 659 544 1381 
z
M 1991 3584 
L 1991 3584 
z
" transform="scale(0.015625)"/>
       <path id="DejaVuSans-29" d="M 513 4856 
L 1013 4856 
Q 1481 4119 1714 3412 
Q 1947 2706 1947 2009 
Q 1947 1309 1714 600 
Q 1481 -109 1013 -844 
L 513 -844 
Q 928 -128 1133 580 
Q 1338 1288 1338 2009 
Q 1338 2731 1133 3434 
Q 928 4138 513 4856 
z
" transform="scale(0.015625)"/>
      </defs>
      <use xlink:href="#DejaVuSans-70"/>
      <use xlink:href="#DejaVuSans-6f" transform="translate(63.476562 0)"/>
      <use xlink:href="#DejaVuSans-74" transform="translate(124.658203 0)"/>
      <use xlink:href="#DejaVuSans-65" transform="translate(163.867188 0)"/>
      <use xlink:href="#DejaVuSans-6e" transform="translate(225.390625 0)"/>
      <use xlink:href="#DejaVuSans-74" transform="translate(288.769531 0)"/>
      <use xlink:href="#DejaVuSans-69" transform="translate(327.978516 0)"/>
      <use xlink:href="#DejaVuSans-61" transform="translate(355.761719 0)"/>
      <use xlink:href="#DejaVuSans-6c" transform="translate(417.041016 0)"/>
      <use xlink:href="#DejaVuSans-20" transform="translate(444.824219 0)"/>
      <use xlink:href="#DejaVuSans-65" transform="translate(476.611328 0)"/>
      <use xlink:href="#DejaVuSans-6e" transform="translate(538.134766 0)"/>
      <use xlink:href="#DejaVuSans-65" transform="translate(601.513672 0)"/>
      <use xlink:href="#DejaVuSans-72" transform="translate(663.037109 0)"/>
      <use xlink:href="#DejaVuSans-67" transform="translate(702.400391 0)"/>
      <use xlink:href="#DejaVuSans-79" transform="translate(765.876953 0)"/>
      <use xlink:href="#DejaVuSans-20" transform="translate(825.056641 0)"/>
      <use xlink:href="#DejaVuSans-28" transform="translate(856.84375 0)"/>
      <use xlink:href="#DejaVuSans-61" transform="translate(895.857422 0)"/>
      <use xlink:href="#DejaVuSans-72" transform="translate(957.136719 0)"/>
      <use xlink:href="#DejaVuSans-62" transform="translate(998.25 0)"/>
      <use xlink:href="#DejaVuSans-69" transform="translate(1061.726562 0)"/>
      <use xlink:href="#DejaVuSans-74" transform="translate(1089.509766 0)"/>
      <use xlink:href="#DejaVuSans-72" transform="translate(1128.71875 0)"/>
      <use xlink:href="#DejaVuSans-61" transform="translate(1169.832031 0)"/>
      <use xlink:href="#DejaVuSans-72" transform="translate(1231.111328 0)"/>
      <use xlink:href="#DejaVuSans-79" transform="translate(1272.224609 0)"/>
      <use xlink:href="#DejaVuSans-20" transform="translate(1331.404297 0)"/>
      <use xlink:href="#DejaVuSans-75" transform="translate(1363.191406 0)"/>
      <use xlink:href="#DejaVuSans-6e" transform="translate(1426.570312 0)"/>
      <use xlink:href="#DejaVuSans-69" transform="translate(1489.949219 0)"/>
      <use xlink:href="#DejaVuSans-74" transform="translate(1517.732422 0)"/>
      <use xlink:href="#DejaVuSans-73" transform="translate(1556.941406 0)"/>
      <use xlink:href="#DejaVuSans-29" transform="translate(1609.041016 0)"/>
     </g>
    </g>
   </g>
   <g id="line2d_23">
    <path d="M 52.160938 253.879723 
L 53.655963 254.588514 
L 55.150988 255.054566 
L 56.646013 255.297536 
L 58.141038 255.3283 
L 59.636063 255.148271 
L 61.131088 254.7493 
L 62.626113 254.1142 
L 64.121138 253.217838 
L 65.616163 252.028765 
L 67.111188 250.511298 
L 68.606213 248.627966 
L 70.101238 246.342189 
L 71.596263 243.621093 
L 73.091288 240.43829 
L 74.586313 236.776534 
L 76.380343 231.743046 
L 78.174373 226.028274 
L 80.267408 218.564984 
L 82.659448 209.153001 
L 85.948503 195.214297 
L 90.732583 174.912032 
L 93.124623 165.795669 
L 94.918653 159.81051 
L 96.413678 155.532516 
L 97.609698 152.643675 
L 98.805718 150.274557 
L 100.001738 148.459612 
L 100.898753 147.478399 
L 101.795768 146.832191 
L 102.692783 146.526367 
L 103.290793 146.512964 
L 103.888803 146.652084 
L 104.785818 147.145463 
L 105.682833 147.976617 
L 106.579848 149.138639 
L 107.476863 150.621907 
L 108.672883 153.077842 
L 109.868903 156.047221 
L 111.363928 160.41544 
L 113.157958 166.491289 
L 115.250993 174.490085 
L 118.241043 186.998794 
L 124.221143 212.358336 
L 126.613183 221.483197 
L 128.706218 228.632725 
L 130.500248 234.050667 
L 132.294278 238.776577 
L 134.088308 242.807311 
L 135.583333 245.650927 
L 137.078358 248.051337 
L 138.573383 250.039934 
L 140.068408 251.652576 
L 141.563433 252.926764 
L 143.058458 253.898918 
L 144.553483 254.601854 
L 146.048508 255.062593 
L 147.543533 255.3006 
L 149.038558 255.326544 
L 150.533583 255.141612 
L 152.028608 254.737442 
L 153.523633 254.09665 
L 155.018658 253.193937 
L 156.513683 251.997731 
L 158.008708 250.472282 
L 159.503733 248.580106 
L 160.998759 246.284678 
L 162.493784 243.553241 
L 163.988809 240.35959 
L 165.483834 236.686715 
L 167.277864 231.639938 
L 169.071894 225.912482 
L 171.164929 218.435989 
L 173.556969 209.012257 
L 177.145029 193.770937 
L 181.630104 174.773905 
L 183.723139 166.747044 
L 185.517169 160.638678 
L 187.012194 156.237967 
L 188.507219 152.568213 
L 189.703239 150.214564 
L 190.899259 148.415965 
L 191.796274 147.447446 
L 192.693289 146.81419 
L 193.590304 146.521467 
L 194.188314 146.516828 
L 194.786324 146.664697 
L 195.683339 147.171103 
L 196.580354 148.015071 
L 197.477369 149.189586 
L 198.374384 150.684928 
L 199.570404 153.156139 
L 200.766424 156.139664 
L 202.261449 160.523692 
L 204.055479 166.615371 
L 206.148514 174.627845 
L 209.138564 187.146654 
L 215.118664 212.495509 
L 217.510704 221.607244 
L 219.603739 228.742789 
L 221.397769 234.147693 
L 223.191799 238.860234 
L 224.985829 242.877807 
L 226.480854 245.710937 
L 227.975879 248.101512 
L 229.470904 250.081058 
L 230.965929 251.685502 
L 232.460954 252.952353 
L 233.955979 253.917972 
L 235.451004 254.615067 
L 236.946029 255.070502 
L 238.441054 255.303553 
L 239.936079 255.324676 
L 241.431104 255.134837 
L 242.926129 254.72546 
L 244.421154 254.078962 
L 245.916179 253.169881 
L 247.411204 251.966524 
L 248.906229 250.433073 
L 250.401254 248.532033 
L 251.896279 246.226937 
L 253.391304 243.485145 
L 254.886329 240.280635 
L 256.381354 236.596639 
L 258.175384 231.53658 
L 259.969414 225.796456 
L 262.062449 218.306796 
L 264.454489 208.871378 
L 268.04255 193.622149 
L 272.527625 174.635954 
L 274.62066 166.622679 
L 276.41469 160.53007 
L 277.909715 156.145114 
L 279.40474 152.493181 
L 280.60076 150.15503 
L 281.79678 148.372798 
L 282.693795 147.416985 
L 283.59081 146.796688 
L 284.487825 146.517071 
L 285.085835 146.521195 
L 285.683845 146.677812 
L 286.58086 147.197238 
L 287.477875 148.054009 
L 288.37489 149.241004 
L 289.271905 150.748401 
L 290.467925 153.234859 
L 291.663945 156.232494 
L 293.15897 160.63228 
L 294.953 166.739721 
L 297.046035 174.765785 
L 300.036085 187.294564 
L 306.016185 212.632521 
L 308.408225 221.731078 
L 310.50126 228.85261 
L 312.29529 234.244465 
L 314.08932 238.943636 
L 315.88335 242.948056 
L 317.378375 245.770713 
L 318.8734 248.151469 
L 320.368425 250.121984 
L 321.86345 251.718251 
L 323.358475 252.977782 
L 324.8535 253.936885 
L 326.348525 254.628153 
L 327.84355 255.078294 
L 329.338575 255.306395 
L 330.8336 255.322697 
L 332.328625 255.127948 
L 333.82365 254.713353 
L 335.318675 254.061135 
L 336.8137 253.14567 
L 338.308725 251.935143 
L 339.80375 250.393669 
L 341.298775 248.483747 
L 342.7938 246.168965 
L 344.288825 243.416804 
L 345.78385 240.201427 
L 347.278875 236.506306 
L 349.072905 231.432972 
L 350.866935 225.680199 
L 352.95997 218.177408 
L 355.35201 208.730363 
L 358.94007 193.473352 
L 363.425145 174.498184 
L 365.51818 166.498581 
L 367.31221 160.421799 
L 368.807235 156.052648 
L 370.30226 152.418579 
L 371.49828 150.095954 
L 372.6943 148.330111 
L 373.591315 147.387016 
L 374.48833 146.779686 
L 375.385346 146.513177 
L 375.983356 146.526065 
L 376.581366 146.691428 
L 377.478381 147.223869 
L 378.375396 148.093431 
L 379.272411 149.292892 
L 380.169426 150.812326 
L 381.365446 153.314001 
L 382.561466 156.325711 
L 384.056491 160.741204 
L 385.850521 166.864336 
L 387.943556 174.903902 
L 390.933606 187.442525 
L 396.913706 212.769372 
L 399.305746 221.854697 
L 401.398781 228.962188 
L 403.192811 234.340981 
L 404.986841 239.026782 
L 406.780871 243.018058 
L 408.275896 245.830256 
L 409.770921 248.20121 
L 411.265946 250.162712 
L 412.760971 251.750822 
L 414.255996 253.003054 
L 415.751021 253.955656 
L 417.246046 254.641111 
L 418.741071 255.085969 
L 420.236096 255.309126 
L 421.731121 255.320608 
L 423.226146 255.120942 
L 424.721171 254.70112 
L 426.216196 254.04317 
L 427.711221 253.121303 
L 429.206246 251.903587 
L 430.701271 250.354071 
L 432.196296 248.435248 
L 433.691321 246.110762 
L 435.186346 243.348219 
L 436.681371 240.121966 
L 438.176396 236.415717 
L 439.970426 231.329113 
L 441.764456 225.563709 
L 443.857491 218.047823 
L 446.249531 208.589215 
L 449.837591 193.324546 
L 454.322666 174.360594 
L 456.415701 166.374751 
L 458.209731 160.313865 
L 459.704756 155.960571 
L 461.199781 152.344409 
L 462.395801 150.037337 
L 463.292816 148.67144 
L 464.189831 147.630652 
L 465.086846 146.923604 
L 465.983861 146.556179 
L 466.581871 146.501537 
L 467.179881 146.599462 
L 468.076896 147.031462 
L 468.973911 147.802186 
L 469.870926 148.905225 
L 470.767941 150.33144 
L 471.963961 152.715091 
L 473.159981 155.617431 
L 474.655006 159.910575 
L 476.449036 165.911001 
L 478.542071 173.844256 
L 481.233116 185.021444 
L 488.110232 214.089074 
L 490.502272 223.043272 
L 492.595307 230.013041 
L 494.389337 235.264503 
L 496.183367 239.820539 
L 497.678392 243.087814 
L 499.173417 245.889565 
L 500.668442 248.250735 
L 502.163467 250.203243 
L 503.658492 251.783216 
L 505.153517 253.028167 
L 506.648542 253.974287 
L 508.143567 254.653943 
L 509.638592 255.093528 
L 511.133617 255.311745 
L 512.628642 255.318407 
L 514.123667 255.113821 
L 515.618692 254.688763 
L 517.113717 254.025066 
L 518.608742 253.09678 
L 520.103767 251.871857 
L 521.598792 250.314278 
L 523.093817 248.386533 
L 524.588842 246.052327 
L 526.083867 243.279388 
L 527.578892 240.04225 
L 529.073917 236.324872 
L 530.867947 231.225005 
L 532.661977 225.446987 
L 534.755012 217.918044 
L 537.147052 208.447933 
L 540.735112 193.175734 
L 545.220187 174.223187 
L 547.313222 166.251191 
L 549.107252 160.20627 
L 550.602277 155.868883 
L 552.097302 152.270672 
L 553.293322 149.979182 
L 554.190337 148.625541 
L 555.087352 147.59739 
L 555.984367 146.903255 
L 556.881382 146.548912 
L 557.479392 146.503033 
L 558.077402 146.609714 
L 558.974417 147.054767 
L 559.871432 147.838351 
L 560.768447 148.953949 
L 561.665462 150.39232 
L 562.861482 152.791385 
L 564.057502 155.708035 
L 565.552527 160.017226 
L 567.346557 166.033807 
L 569.439592 173.981152 
L 572.130637 185.168472 
L 579.007752 214.224142 
L 581.399792 223.164559 
L 583.492827 230.119996 
L 585.286857 235.358285 
L 587.080887 239.900956 
L 588.575912 243.157323 
L 590.070937 245.948641 
L 590.070937 245.948641 
" clip-path="url(#p70481dcd5c)" style="fill: none; stroke: #1f77b4; stroke-width: 2.4; stroke-linecap: square"/>
   </g>
   <g id="line2d_24">
    <path d="M 52.160938 131.489828 
L 57.244023 133.272062 
L 61.729098 135.072292 
L 65.915168 136.984005 
L 69.802233 138.994875 
L 73.689298 141.267497 
L 77.277358 143.624301 
L 80.865418 146.243754 
L 84.752483 149.36253 
L 91.330593 155.011225 
L 94.619648 157.683703 
L 97.011688 159.363488 
L 99.104723 160.545301 
L 100.898753 161.287029 
L 102.393778 161.688731 
L 103.888803 161.883643 
L 105.383828 161.872624 
L 106.878853 161.666286 
L 108.672883 161.188185 
L 110.765918 160.369652 
L 113.456963 159.029248 
L 118.241043 156.313326 
L 122.726118 153.867476 
L 126.015173 152.310055 
L 129.304228 151.004438 
L 132.294278 150.045984 
L 135.284328 149.302613 
L 138.573383 148.724872 
L 141.862438 148.388328 
L 145.151493 148.284169 
L 148.440548 148.406849 
L 151.729603 148.754784 
L 155.018658 149.330562 
L 158.307713 150.140756 
L 161.596769 151.195243 
L 164.586819 152.375668 
L 167.576869 153.775631 
L 170.865924 155.573366 
L 174.154979 157.631395 
L 178.042044 160.342061 
L 185.816174 165.880363 
L 188.208214 167.250009 
L 190.002244 168.047814 
L 191.796274 168.598977 
L 193.291299 168.846483 
L 194.786324 168.891406 
L 196.281349 168.734643 
L 198.075379 168.29591 
L 199.869409 167.61654 
L 201.962444 166.581232 
L 204.653489 164.990731 
L 215.417669 158.326847 
L 218.706724 156.691599 
L 221.696774 155.440191 
L 224.686824 154.413955 
L 227.676874 153.606874 
L 230.666924 153.0106 
L 233.955979 152.588604 
L 237.245034 152.403684 
L 240.534089 152.451207 
L 243.823144 152.730677 
L 247.112199 153.245785 
L 250.401254 154.004058 
L 253.391304 154.913147 
L 256.381354 156.040374 
L 259.371404 157.392638 
L 262.660459 159.1411 
L 265.949514 161.146395 
L 270.135585 163.982043 
L 276.115685 168.055612 
L 278.507725 169.41412 
L 280.60076 170.336095 
L 282.39479 170.869098 
L 283.889815 171.104976 
L 285.38484 171.139682 
L 286.879865 170.972328 
L 288.673895 170.518048 
L 290.467925 169.817912 
L 292.56096 168.750029 
L 295.252005 167.103875 
L 306.9132 159.616726 
L 310.202255 157.945489 
L 313.192305 156.663905 
L 316.182355 155.607767 
L 319.172405 154.770193 
L 322.46146 154.091138 
L 325.750515 153.65592 
L 329.03957 153.457122 
L 332.328625 153.491171 
L 335.61768 153.758688 
L 338.906735 154.264427 
L 341.896785 154.937926 
L 344.886835 155.823361 
L 347.876885 156.929142 
L 350.866935 158.261314 
L 354.15599 159.986774 
L 357.445045 161.962871 
L 361.93012 164.940612 
L 367.013205 168.268198 
L 369.405245 169.56967 
L 371.49828 170.440392 
L 373.29231 170.92863 
L 374.787335 171.126821 
L 376.282361 171.123711 
L 377.777386 170.918635 
L 379.571416 170.419511 
L 381.365446 169.675259 
L 383.458481 168.557051 
L 386.149526 166.848056 
L 397.511716 159.274683 
L 400.800771 157.507231 
L 403.790821 156.137321 
L 406.780871 154.992812 
L 409.770921 154.067077 
L 413.059976 153.291258 
L 416.349031 152.759261 
L 419.638086 152.463315 
L 422.927141 152.39944 
L 426.216196 152.567836 
L 429.505251 152.972852 
L 432.495301 153.553098 
L 435.485351 154.343492 
L 438.475401 155.352431 
L 441.465451 156.586247 
L 444.455501 158.044855 
L 447.744556 159.892032 
L 451.930626 162.521908 
L 457.910726 166.285876 
L 460.302766 167.513249 
L 462.096796 168.220611 
L 463.890826 168.692737 
L 465.385851 168.880121 
L 466.880876 168.866854 
L 468.375901 168.650484 
L 470.169931 168.133919 
L 471.963961 167.365759 
L 474.056996 166.209557 
L 476.748041 164.434883 
L 482.130131 160.510931 
L 486.316202 157.587284 
L 489.605257 155.534271 
L 492.894312 153.741983 
L 496.183367 152.219661 
L 499.472422 150.961891 
L 502.761477 149.957688 
L 506.050532 149.195571 
L 509.339587 148.666244 
L 512.628642 148.363905 
L 515.917697 148.286805 
L 519.206752 148.437359 
L 522.495807 148.821852 
L 525.784862 149.449599 
L 528.774912 150.24026 
L 531.764962 151.247136 
L 535.054017 152.60528 
L 538.343072 154.209835 
L 542.529142 156.522975 
L 548.509242 159.838137 
L 550.901282 160.89311 
L 552.695312 161.47405 
L 554.489342 161.820838 
L 555.984367 161.902966 
L 557.479392 161.78186 
L 558.974417 161.45312 
L 560.469442 160.9223 
L 562.263472 160.039928 
L 564.356507 158.722911 
L 566.748547 156.933455 
L 570.336607 153.927567 
L 577.811732 147.596415 
L 581.698797 144.635495 
L 585.286857 142.174737 
L 588.874917 139.970497 
L 590.070937 139.289332 
L 590.070937 139.289332 
" clip-path="url(#p70481dcd5c)" style="fill: none; stroke-dasharray: 6.66,2.88; stroke-dashoffset: 0; stroke: #ff7f0e; stroke-width: 1.8"/>
   </g>
   <g id="line2d_25">
    <path d="M 52.160938 84.460415 
L 590.070938 84.460415 
" clip-path="url(#p70481dcd5c)" style="fill: none; stroke: #595959; stroke-width: 0.9; stroke-linecap: square"/>
   </g>
   <g id="patch_3">
    <path d="M 52.160938 340.237656 
L 52.160938 24.597656 
" style="fill: none; stroke: #000000; stroke-width: 0.8; stroke-linejoin: miter; stroke-linecap: square"/>
   </g>
   <g id="patch_4">
    <path d="M 590.070938 340.237656 
L 590.070938 24.597656 
" style="fill: none; stroke: #000000; stroke-width: 0.8; stroke-linejoin: miter; stroke-linecap: square"/>
   </g>
   <g id="patch_5">
    <path d="M 52.160938 340.237656 
L 590.070937 340.237656 
" style="fill: none; stroke: #000000; stroke-width: 0.8; stroke-linejoin: miter; stroke-linecap: square"/>
   </g>
   <g id="patch_6">
    <path d="M 52.160938 24.597656 
L 590.070937 24.597656 
" style="fill: none; stroke: #000000; stroke-width: 0.8; stroke-linejoin: miter; stroke-linecap: square"/>
   </g>
   <g id="text_17">
    <!-- The effective field is smoother than a simple sum of bare ionic wells. -->
    <g transform="translate(62.919138 330.768456) scale(0.095 -0.095)">
     <defs>
      <path id="DejaVuSans-54" d="M -19 4666 
L 3928 4666 
L 3928 4134 
L 2272 4134 
L 2272 0 
L 1638 0 
L 1638 4134 
L -19 4134 
L -19 4666 
z
" transform="scale(0.015625)"/>
      <path id="DejaVuSans-66" d="M 2375 4863 
L 2375 4384 
L 1825 4384 
Q 1516 4384 1395 4259 
Q 1275 4134 1275 3809 
L 1275 3500 
L 2222 3500 
L 2222 3053 
L 1275 3053 
L 1275 0 
L 697 0 
L 697 3053 
L 147 3053 
L 147 3500 
L 697 3500 
L 697 3744 
Q 697 4328 969 4595 
Q 1241 4863 1831 4863 
L 2375 4863 
z
" transform="scale(0.015625)"/>
      <path id="DejaVuSans-76" d="M 191 3500 
L 800 3500 
L 1894 563 
L 2988 3500 
L 3597 3500 
L 2284 0 
L 1503 0 
L 191 3500 
z
" transform="scale(0.015625)"/>
      <path id="DejaVuSans-64" d="M 2906 2969 
L 2906 4863 
L 3481 4863 
L 3481 0 
L 2906 0 
L 2906 525 
Q 2725 213 2448 61 
Q 2172 -91 1784 -91 
Q 1150 -91 751 415 
Q 353 922 353 1747 
Q 353 2572 751 3078 
Q 1150 3584 1784 3584 
Q 2172 3584 2448 3432 
Q 2725 3281 2906 2969 
z
M 947 1747 
Q 947 1113 1208 752 
Q 1469 391 1925 391 
Q 2381 391 2643 752 
Q 2906 1113 2906 1747 
Q 2906 2381 2643 2742 
Q 2381 3103 1925 3103 
Q 1469 3103 1208 2742 
Q 947 2381 947 1747 
z
" transform="scale(0.015625)"/>
      <path id="DejaVuSans-6d" d="M 3328 2828 
Q 3544 3216 3844 3400 
Q 4144 3584 4550 3584 
Q 5097 3584 5394 3201 
Q 5691 2819 5691 2113 
L 5691 0 
L 5113 0 
L 5113 2094 
Q 5113 2597 4934 2840 
Q 4756 3084 4391 3084 
Q 3944 3084 3684 2787 
Q 3425 2491 3425 1978 
L 3425 0 
L 2847 0 
L 2847 2094 
Q 2847 2600 2669 2842 
Q 2491 3084 2119 3084 
Q 1678 3084 1418 2786 
Q 1159 2488 1159 1978 
L 1159 0 
L 581 0 
L 581 3500 
L 1159 3500 
L 1159 2956 
Q 1356 3278 1631 3431 
Q 1906 3584 2284 3584 
Q 2666 3584 2933 3390 
Q 3200 3197 3328 2828 
z
" transform="scale(0.015625)"/>
      <path id="DejaVuSans-77" d="M 269 3500 
L 844 3500 
L 1563 769 
L 2278 3500 
L 2956 3500 
L 3675 769 
L 4391 3500 
L 4966 3500 
L 4050 0 
L 3372 0 
L 2619 2869 
L 1863 0 
L 1184 0 
L 269 3500 
z
" transform="scale(0.015625)"/>
     </defs>
     <use xlink:href="#DejaVuSans-54"/>
     <use xlink:href="#DejaVuSans-68" transform="translate(61.083984 0)"/>
     <use xlink:href="#DejaVuSans-65" transform="translate(124.462891 0)"/>
     <use xlink:href="#DejaVuSans-20" transform="translate(185.986328 0)"/>
     <use xlink:href="#DejaVuSans-65" transform="translate(217.773438 0)"/>
     <use xlink:href="#DejaVuSans-66" transform="translate(279.296875 0)"/>
     <use xlink:href="#DejaVuSans-66" transform="translate(314.501953 0)"/>
     <use xlink:href="#DejaVuSans-65" transform="translate(349.707031 0)"/>
     <use xlink:href="#DejaVuSans-63" transform="translate(411.230469 0)"/>
     <use xlink:href="#DejaVuSans-74" transform="translate(466.210938 0)"/>
     <use xlink:href="#DejaVuSans-69" transform="translate(505.419922 0)"/>
     <use xlink:href="#DejaVuSans-76" transform="translate(533.203125 0)"/>
     <use xlink:href="#DejaVuSans-65" transform="translate(592.382812 0)"/>
     <use xlink:href="#DejaVuSans-20" transform="translate(653.90625 0)"/>
     <use xlink:href="#DejaVuSans-66" transform="translate(685.693359 0)"/>
     <use xlink:href="#DejaVuSans-69" transform="translate(720.898438 0)"/>
     <use xlink:href="#DejaVuSans-65" transform="translate(748.681641 0)"/>
     <use xlink:href="#DejaVuSans-6c" transform="translate(810.205078 0)"/>
     <use xlink:href="#DejaVuSans-64" transform="translate(837.988281 0)"/>
     <use xlink:href="#DejaVuSans-20" transform="translate(901.464844 0)"/>
     <use xlink:href="#DejaVuSans-69" transform="translate(933.251953 0)"/>
     <use xlink:href="#DejaVuSans-73" transform="translate(961.035156 0)"/>
     <use xlink:href="#DejaVuSans-20" transform="translate(1013.134766 0)"/>
     <use xlink:href="#DejaVuSans-73" transform="translate(1044.921875 0)"/>
     <use xlink:href="#DejaVuSans-6d" transform="translate(1097.021484 0)"/>
     <use xlink:href="#DejaVuSans-6f" transform="translate(1194.433594 0)"/>
     <use xlink:href="#DejaVuSans-6f" transform="translate(1255.615234 0)"/>
     <use xlink:href="#DejaVuSans-74" transform="translate(1316.796875 0)"/>
     <use xlink:href="#DejaVuSans-68" transform="translate(1356.005859 0)"/>
     <use xlink:href="#DejaVuSans-65" transform="translate(1419.384766 0)"/>
     <use xlink:href="#DejaVuSans-72" transform="translate(1480.908203 0)"/>
     <use xlink:href="#DejaVuSans-20" transform="translate(1522.021484 0)"/>
     <use xlink:href="#DejaVuSans-74" transform="translate(1553.808594 0)"/>
     <use xlink:href="#DejaVuSans-68" transform="translate(1593.017578 0)"/>
     <use xlink:href="#DejaVuSans-61" transform="translate(1656.396484 0)"/>
     <use xlink:href="#DejaVuSans-6e" transform="translate(1717.675781 0)"/>
     <use xlink:href="#DejaVuSans-20" transform="translate(1781.054688 0)"/>
     <use xlink:href="#DejaVuSans-61" transform="translate(1812.841797 0)"/>
     <use xlink:href="#DejaVuSans-20" transform="translate(1874.121094 0)"/>
     <use xlink:href="#DejaVuSans-73" transform="translate(1905.908203 0)"/>
     <use xlink:href="#DejaVuSans-69" transform="translate(1958.007812 0)"/>
     <use xlink:href="#DejaVuSans-6d" transform="translate(1985.791016 0)"/>
     <use xlink:href="#DejaVuSans-70" transform="translate(2083.203125 0)"/>
     <use xlink:href="#DejaVuSans-6c" transform="translate(2146.679688 0)"/>
     <use xlink:href="#DejaVuSans-65" transform="translate(2174.462891 0)"/>
     <use xlink:href="#DejaVuSans-20" transform="translate(2235.986328 0)"/>
     <use xlink:href="#DejaVuSans-73" transform="translate(2267.773438 0)"/>
     <use xlink:href="#DejaVuSans-75" transform="translate(2319.873047 0)"/>
     <use xlink:href="#DejaVuSans-6d" transform="translate(2383.251953 0)"/>
     <use xlink:href="#DejaVuSans-20" transform="translate(2480.664062 0)"/>
     <use xlink:href="#DejaVuSans-6f" transform="translate(2512.451172 0)"/>
     <use xlink:href="#DejaVuSans-66" transform="translate(2573.632812 0)"/>
     <use xlink:href="#DejaVuSans-20" transform="translate(2608.837891 0)"/>
     <use xlink:href="#DejaVuSans-62" transform="translate(2640.625 0)"/>
     <use xlink:href="#DejaVuSans-61" transform="translate(2704.101562 0)"/>
     <use xlink:href="#DejaVuSans-72" transform="translate(2765.380859 0)"/>
     <use xlink:href="#DejaVuSans-65" transform="translate(2804.244141 0)"/>
     <use xlink:href="#DejaVuSans-20" transform="translate(2865.767578 0)"/>
     <use xlink:href="#DejaVuSans-69" transform="translate(2897.554688 0)"/>
     <use xlink:href="#DejaVuSans-6f" transform="translate(2925.337891 0)"/>
     <use xlink:href="#DejaVuSans-6e" transform="translate(2986.519531 0)"/>
     <use xlink:href="#DejaVuSans-69" transform="translate(3049.898438 0)"/>
     <use xlink:href="#DejaVuSans-63" transform="translate(3077.681641 0)"/>
     <use xlink:href="#DejaVuSans-20" transform="translate(3132.662109 0)"/>
     <use xlink:href="#DejaVuSans-77" transform="translate(3164.449219 0)"/>
     <use xlink:href="#DejaVuSans-65" transform="translate(3246.236328 0)"/>
     <use xlink:href="#DejaVuSans-6c" transform="translate(3307.759766 0)"/>
     <use xlink:href="#DejaVuSans-6c" transform="translate(3335.542969 0)"/>
     <use xlink:href="#DejaVuSans-73" transform="translate(3363.326172 0)"/>
     <use xlink:href="#DejaVuSans-2e" transform="translate(3415.425781 0)"/>
    </g>
   </g>
   <g id="text_18">
    <!-- Periodic potential in a one-dimensional crystal -->
    <g transform="translate(123.631562 18.597656) scale(0.15 -0.15)">
     <defs>
      <path id="DejaVuSans-Bold-50" d="M 588 4666 
L 2584 4666 
Q 3475 4666 3951 4270 
Q 4428 3875 4428 3144 
Q 4428 2409 3951 2014 
Q 3475 1619 2584 1619 
L 1791 1619 
L 1791 0 
L 588 0 
L 588 4666 
z
M 1791 3794 
L 1791 2491 
L 2456 2491 
Q 2806 2491 2997 2661 
Q 3188 2831 3188 3144 
Q 3188 3456 2997 3625 
Q 2806 3794 2456 3794 
L 1791 3794 
z
" transform="scale(0.015625)"/>
      <path id="DejaVuSans-Bold-65" d="M 4031 1759 
L 4031 1441 
L 1416 1441 
Q 1456 1047 1700 850 
Q 1944 653 2381 653 
Q 2734 653 3104 758 
Q 3475 863 3866 1075 
L 3866 213 
Q 3469 63 3072 -14 
Q 2675 -91 2278 -91 
Q 1328 -91 801 392 
Q 275 875 275 1747 
Q 275 2603 792 3093 
Q 1309 3584 2216 3584 
Q 3041 3584 3536 3087 
Q 4031 2591 4031 1759 
z
M 2881 2131 
Q 2881 2450 2695 2645 
Q 2509 2841 2209 2841 
Q 1884 2841 1681 2658 
Q 1478 2475 1428 2131 
L 2881 2131 
z
" transform="scale(0.015625)"/>
      <path id="DejaVuSans-Bold-72" d="M 3138 2547 
Q 2991 2616 2845 2648 
Q 2700 2681 2553 2681 
Q 2122 2681 1889 2404 
Q 1656 2128 1656 1613 
L 1656 0 
L 538 0 
L 538 3500 
L 1656 3500 
L 1656 2925 
Q 1872 3269 2151 3426 
Q 2431 3584 2822 3584 
Q 2878 3584 2943 3579 
Q 3009 3575 3134 3559 
L 3138 2547 
z
" transform="scale(0.015625)"/>
      <path id="DejaVuSans-Bold-69" d="M 538 3500 
L 1656 3500 
L 1656 0 
L 538 0 
L 538 3500 
z
M 538 4863 
L 1656 4863 
L 1656 3950 
L 538 3950 
L 538 4863 
z
" transform="scale(0.015625)"/>
      <path id="DejaVuSans-Bold-6f" d="M 2203 2784 
Q 1831 2784 1636 2517 
Q 1441 2250 1441 1747 
Q 1441 1244 1636 976 
Q 1831 709 2203 709 
Q 2569 709 2762 976 
Q 2956 1244 2956 1747 
Q 2956 2250 2762 2517 
Q 2569 2784 2203 2784 
z
M 2203 3584 
Q 3106 3584 3614 3096 
Q 4122 2609 4122 1747 
Q 4122 884 3614 396 
Q 3106 -91 2203 -91 
Q 1297 -91 786 396 
Q 275 884 275 1747 
Q 275 2609 786 3096 
Q 1297 3584 2203 3584 
z
" transform="scale(0.015625)"/>
      <path id="DejaVuSans-Bold-64" d="M 2919 2988 
L 2919 4863 
L 4044 4863 
L 4044 0 
L 2919 0 
L 2919 506 
Q 2688 197 2409 53 
Q 2131 -91 1766 -91 
Q 1119 -91 703 423 
Q 288 938 288 1747 
Q 288 2556 703 3070 
Q 1119 3584 1766 3584 
Q 2128 3584 2408 3439 
Q 2688 3294 2919 2988 
z
M 2181 722 
Q 2541 722 2730 984 
Q 2919 1247 2919 1747 
Q 2919 2247 2730 2509 
Q 2541 2772 2181 2772 
Q 1825 2772 1636 2509 
Q 1447 2247 1447 1747 
Q 1447 1247 1636 984 
Q 1825 722 2181 722 
z
" transform="scale(0.015625)"/>
      <path id="DejaVuSans-Bold-63" d="M 3366 3391 
L 3366 2478 
Q 3138 2634 2908 2709 
Q 2678 2784 2431 2784 
Q 1963 2784 1702 2511 
Q 1441 2238 1441 1747 
Q 1441 1256 1702 982 
Q 1963 709 2431 709 
Q 2694 709 2930 787 
Q 3166 866 3366 1019 
L 3366 103 
Q 3103 6 2833 -42 
Q 2563 -91 2291 -91 
Q 1344 -91 809 395 
Q 275 881 275 1747 
Q 275 2613 809 3098 
Q 1344 3584 2291 3584 
Q 2566 3584 2833 3536 
Q 3100 3488 3366 3391 
z
" transform="scale(0.015625)"/>
      <path id="DejaVuSans-Bold-20" transform="scale(0.015625)"/>
      <path id="DejaVuSans-Bold-70" d="M 1656 506 
L 1656 -1331 
L 538 -1331 
L 538 3500 
L 1656 3500 
L 1656 2988 
Q 1888 3294 2169 3439 
Q 2450 3584 2816 3584 
Q 3463 3584 3878 3070 
Q 4294 2556 4294 1747 
Q 4294 938 3878 423 
Q 3463 -91 2816 -91 
Q 2450 -91 2169 54 
Q 1888 200 1656 506 
z
M 2400 2772 
Q 2041 2772 1848 2508 
Q 1656 2244 1656 1747 
Q 1656 1250 1848 986 
Q 2041 722 2400 722 
Q 2759 722 2948 984 
Q 3138 1247 3138 1747 
Q 3138 2247 2948 2509 
Q 2759 2772 2400 2772 
z
" transform="scale(0.015625)"/>
      <path id="DejaVuSans-Bold-74" d="M 1759 4494 
L 1759 3500 
L 2913 3500 
L 2913 2700 
L 1759 2700 
L 1759 1216 
Q 1759 972 1856 886 
Q 1953 800 2241 800 
L 2816 800 
L 2816 0 
L 1856 0 
Q 1194 0 917 276 
Q 641 553 641 1216 
L 641 2700 
L 84 2700 
L 84 3500 
L 641 3500 
L 641 4494 
L 1759 4494 
z
" transform="scale(0.015625)"/>
      <path id="DejaVuSans-Bold-6e" d="M 4056 2131 
L 4056 0 
L 2931 0 
L 2931 347 
L 2931 1631 
Q 2931 2084 2911 2256 
Q 2891 2428 2841 2509 
Q 2775 2619 2662 2680 
Q 2550 2741 2406 2741 
Q 2056 2741 1856 2470 
Q 1656 2200 1656 1722 
L 1656 0 
L 538 0 
L 538 3500 
L 1656 3500 
L 1656 2988 
Q 1909 3294 2193 3439 
Q 2478 3584 2822 3584 
Q 3428 3584 3742 3212 
Q 4056 2841 4056 2131 
z
" transform="scale(0.015625)"/>
      <path id="DejaVuSans-Bold-61" d="M 2106 1575 
Q 1756 1575 1579 1456 
Q 1403 1338 1403 1106 
Q 1403 894 1545 773 
Q 1688 653 1941 653 
Q 2256 653 2472 879 
Q 2688 1106 2688 1447 
L 2688 1575 
L 2106 1575 
z
M 3816 1997 
L 3816 0 
L 2688 0 
L 2688 519 
Q 2463 200 2181 54 
Q 1900 -91 1497 -91 
Q 953 -91 614 226 
Q 275 544 275 1050 
Q 275 1666 698 1953 
Q 1122 2241 2028 2241 
L 2688 2241 
L 2688 2328 
Q 2688 2594 2478 2717 
Q 2269 2841 1825 2841 
Q 1466 2841 1156 2769 
Q 847 2697 581 2553 
L 581 3406 
Q 941 3494 1303 3539 
Q 1666 3584 2028 3584 
Q 2975 3584 3395 3211 
Q 3816 2838 3816 1997 
z
" transform="scale(0.015625)"/>
      <path id="DejaVuSans-Bold-6c" d="M 538 4863 
L 1656 4863 
L 1656 0 
L 538 0 
L 538 4863 
z
" transform="scale(0.015625)"/>
      <path id="DejaVuSans-Bold-2d" d="M 347 2297 
L 2309 2297 
L 2309 1388 
L 347 1388 
L 347 2297 
z
" transform="scale(0.015625)"/>
      <path id="DejaVuSans-Bold-6d" d="M 3781 2919 
Q 3994 3244 4286 3414 
Q 4578 3584 4928 3584 
Q 5531 3584 5847 3212 
Q 6163 2841 6163 2131 
L 6163 0 
L 5038 0 
L 5038 1825 
Q 5041 1866 5042 1909 
Q 5044 1953 5044 2034 
Q 5044 2406 4934 2573 
Q 4825 2741 4581 2741 
Q 4263 2741 4089 2478 
Q 3916 2216 3909 1719 
L 3909 0 
L 2784 0 
L 2784 1825 
Q 2784 2406 2684 2573 
Q 2584 2741 2328 2741 
Q 2006 2741 1831 2477 
Q 1656 2213 1656 1722 
L 1656 0 
L 531 0 
L 531 3500 
L 1656 3500 
L 1656 2988 
Q 1863 3284 2130 3434 
Q 2397 3584 2719 3584 
Q 3081 3584 3359 3409 
Q 3638 3234 3781 2919 
z
" transform="scale(0.015625)"/>
      <path id="DejaVuSans-Bold-73" d="M 3272 3391 
L 3272 2541 
Q 2913 2691 2578 2766 
Q 2244 2841 1947 2841 
Q 1628 2841 1473 2761 
Q 1319 2681 1319 2516 
Q 1319 2381 1436 2309 
Q 1553 2238 1856 2203 
L 2053 2175 
Q 2913 2066 3209 1816 
Q 3506 1566 3506 1031 
Q 3506 472 3093 190 
Q 2681 -91 1863 -91 
Q 1516 -91 1145 -36 
Q 775 19 384 128 
L 384 978 
Q 719 816 1070 734 
Q 1422 653 1784 653 
Q 2113 653 2278 743 
Q 2444 834 2444 1013 
Q 2444 1163 2330 1236 
Q 2216 1309 1875 1350 
L 1678 1375 
Q 931 1469 631 1722 
Q 331 1975 331 2491 
Q 331 3047 712 3315 
Q 1094 3584 1881 3584 
Q 2191 3584 2531 3537 
Q 2872 3491 3272 3391 
z
" transform="scale(0.015625)"/>
      <path id="DejaVuSans-Bold-79" d="M 78 3500 
L 1197 3500 
L 2138 1125 
L 2938 3500 
L 4056 3500 
L 2584 -331 
Q 2363 -916 2067 -1148 
Q 1772 -1381 1288 -1381 
L 641 -1381 
L 641 -647 
L 991 -647 
Q 1275 -647 1404 -556 
Q 1534 -466 1606 -231 
L 1638 -134 
L 78 3500 
z
" transform="scale(0.015625)"/>
     </defs>
     <use xlink:href="#DejaVuSans-Bold-50"/>
     <use xlink:href="#DejaVuSans-Bold-65" transform="translate(73.291016 0)"/>
     <use xlink:href="#DejaVuSans-Bold-72" transform="translate(141.113281 0)"/>
     <use xlink:href="#DejaVuSans-Bold-69" transform="translate(190.429688 0)"/>
     <use xlink:href="#DejaVuSans-Bold-6f" transform="translate(224.707031 0)"/>
     <use xlink:href="#DejaVuSans-Bold-64" transform="translate(293.408203 0)"/>
     <use xlink:href="#DejaVuSans-Bold-69" transform="translate(364.990234 0)"/>
     <use xlink:href="#DejaVuSans-Bold-63" transform="translate(399.267578 0)"/>
     <use xlink:href="#DejaVuSans-Bold-20" transform="translate(458.544922 0)"/>
     <use xlink:href="#DejaVuSans-Bold-70" transform="translate(493.359375 0)"/>
     <use xlink:href="#DejaVuSans-Bold-6f" transform="translate(564.941406 0)"/>
     <use xlink:href="#DejaVuSans-Bold-74" transform="translate(633.642578 0)"/>
     <use xlink:href="#DejaVuSans-Bold-65" transform="translate(681.445312 0)"/>
     <use xlink:href="#DejaVuSans-Bold-6e" transform="translate(749.267578 0)"/>
     <use xlink:href="#DejaVuSans-Bold-74" transform="translate(820.458984 0)"/>
     <use xlink:href="#DejaVuSans-Bold-69" transform="translate(868.261719 0)"/>
     <use xlink:href="#DejaVuSans-Bold-61" transform="translate(902.539062 0)"/>
     <use xlink:href="#DejaVuSans-Bold-6c" transform="translate(970.019531 0)"/>
     <use xlink:href="#DejaVuSans-Bold-20" transform="translate(1004.296875 0)"/>
     <use xlink:href="#DejaVuSans-Bold-69" transform="translate(1039.111328 0)"/>
     <use xlink:href="#DejaVuSans-Bold-6e" transform="translate(1073.388672 0)"/>
     <use xlink:href="#DejaVuSans-Bold-20" transform="translate(1144.580078 0)"/>
     <use xlink:href="#DejaVuSans-Bold-61" transform="translate(1179.394531 0)"/>
     <use xlink:href="#DejaVuSans-Bold-20" transform="translate(1246.875 0)"/>
     <use xlink:href="#DejaVuSans-Bold-6f" transform="translate(1281.689453 0)"/>
     <use xlink:href="#DejaVuSans-Bold-6e" transform="translate(1350.390625 0)"/>
     <use xlink:href="#DejaVuSans-Bold-65" transform="translate(1421.582031 0)"/>
     <use xlink:href="#DejaVuSans-Bold-2d" transform="translate(1489.404297 0)"/>
     <use xlink:href="#DejaVuSans-Bold-64" transform="translate(1530.908203 0)"/>
     <use xlink:href="#DejaVuSans-Bold-69" transform="translate(1602.490234 0)"/>
     <use xlink:href="#DejaVuSans-Bold-6d" transform="translate(1636.767578 0)"/>
     <use xlink:href="#DejaVuSans-Bold-65" transform="translate(1740.966797 0)"/>
     <use xlink:href="#DejaVuSans-Bold-6e" transform="translate(1808.789062 0)"/>
     <use xlink:href="#DejaVuSans-Bold-73" transform="translate(1879.980469 0)"/>
     <use xlink:href="#DejaVuSans-Bold-69" transform="translate(1939.501953 0)"/>
     <use xlink:href="#DejaVuSans-Bold-6f" transform="translate(1973.779297 0)"/>
     <use xlink:href="#DejaVuSans-Bold-6e" transform="translate(2042.480469 0)"/>
     <use xlink:href="#DejaVuSans-Bold-61" transform="translate(2113.671875 0)"/>
     <use xlink:href="#DejaVuSans-Bold-6c" transform="translate(2181.152344 0)"/>
     <use xlink:href="#DejaVuSans-Bold-20" transform="translate(2215.429688 0)"/>
     <use xlink:href="#DejaVuSans-Bold-63" transform="translate(2250.244141 0)"/>
     <use xlink:href="#DejaVuSans-Bold-72" transform="translate(2309.521484 0)"/>
     <use xlink:href="#DejaVuSans-Bold-79" transform="translate(2358.837891 0)"/>
     <use xlink:href="#DejaVuSans-Bold-73" transform="translate(2424.023438 0)"/>
     <use xlink:href="#DejaVuSans-Bold-74" transform="translate(2483.544922 0)"/>
     <use xlink:href="#DejaVuSans-Bold-61" transform="translate(2531.347656 0)"/>
     <use xlink:href="#DejaVuSans-Bold-6c" transform="translate(2598.828125 0)"/>
    </g>
   </g>
   <g id="PathCollection_1">
    <defs>
     <path id="m46a861ab94" d="M 0 3.937004 
C 1.044106 3.937004 2.045588 3.522176 2.783882 2.783882 
C 3.522176 2.045588 3.937004 1.044106 3.937004 0 
C 3.937004 -1.044106 3.522176 -2.045588 2.783882 -2.783882 
C 2.045588 -3.522176 1.044106 -3.937004 0 -3.937004 
C -1.044106 -3.937004 -2.045588 -3.522176 -2.783882 -2.783882 
C -3.522176 -2.045588 -3.937004 -1.044106 -3.937004 0 
C -3.937004 1.044106 -3.522176 2.045588 -2.783882 2.783882 
C -2.045588 3.522176 -1.044106 3.937004 0 3.937004 
z
" style="stroke: #2ca02c; stroke-width: 1.6"/>
    </defs>
    <g clip-path="url(#p70481dcd5c)">
     <use xlink:href="#m46a861ab94" x="103.044316" y="64.868967" style="fill: #ffffff; stroke: #2ca02c; stroke-width: 1.6"/>
     <use xlink:href="#m46a861ab94" x="193.907492" y="64.868967" style="fill: #ffffff; stroke: #2ca02c; stroke-width: 1.6"/>
     <use xlink:href="#m46a861ab94" x="284.770667" y="64.868967" style="fill: #ffffff; stroke: #2ca02c; stroke-width: 1.6"/>
     <use xlink:href="#m46a861ab94" x="375.633843" y="64.868967" style="fill: #ffffff; stroke: #2ca02c; stroke-width: 1.6"/>
     <use xlink:href="#m46a861ab94" x="466.497019" y="64.868967" style="fill: #ffffff; stroke: #2ca02c; stroke-width: 1.6"/>
     <use xlink:href="#m46a861ab94" x="557.360194" y="64.868967" style="fill: #ffffff; stroke: #2ca02c; stroke-width: 1.6"/>
    </g>
   </g>
   <g id="legend_1">
    <g id="line2d_26">
     <path d="M 404.64125 296.301719 
L 414.64125 296.301719 
L 424.64125 296.301719 
" style="fill: none; stroke: #1f77b4; stroke-width: 2.4; stroke-linecap: square"/>
    </g>
    <g id="text_19">
     <!-- effective crystal potential -->
     <g transform="translate(432.64125 299.801719) scale(0.1 -0.1)">
      <use xlink:href="#DejaVuSans-65"/>
      <use xlink:href="#DejaVuSans-66" transform="translate(61.523438 0)"/>
      <use xlink:href="#DejaVuSans-66" transform="translate(96.728516 0)"/>
      <use xlink:href="#DejaVuSans-65" transform="translate(131.933594 0)"/>
      <use xlink:href="#DejaVuSans-63" transform="translate(193.457031 0)"/>
      <use xlink:href="#DejaVuSans-74" transform="translate(248.4375 0)"/>
      <use xlink:href="#DejaVuSans-69" transform="translate(287.646484 0)"/>
      <use xlink:href="#DejaVuSans-76" transform="translate(315.429688 0)"/>
      <use xlink:href="#DejaVuSans-65" transform="translate(374.609375 0)"/>
      <use xlink:href="#DejaVuSans-20" transform="translate(436.132812 0)"/>
      <use xlink:href="#DejaVuSans-63" transform="translate(467.919922 0)"/>
      <use xlink:href="#DejaVuSans-72" transform="translate(522.900391 0)"/>
      <use xlink:href="#DejaVuSans-79" transform="translate(564.013672 0)"/>
      <use xlink:href="#DejaVuSans-73" transform="translate(623.193359 0)"/>
      <use xlink:href="#DejaVuSans-74" transform="translate(675.292969 0)"/>
      <use xlink:href="#DejaVuSans-61" transform="translate(714.501953 0)"/>
      <use xlink:href="#DejaVuSans-6c" transform="translate(775.78125 0)"/>
      <use xlink:href="#DejaVuSans-20" transform="translate(803.564453 0)"/>
      <use xlink:href="#DejaVuSans-70" transform="translate(835.351562 0)"/>
      <use xlink:href="#DejaVuSans-6f" transform="translate(898.828125 0)"/>
      <use xlink:href="#DejaVuSans-74" transform="translate(960.009766 0)"/>
      <use xlink:href="#DejaVuSans-65" transform="translate(999.21875 0)"/>
      <use xlink:href="#DejaVuSans-6e" transform="translate(1060.742188 0)"/>
      <use xlink:href="#DejaVuSans-74" transform="translate(1124.121094 0)"/>
      <use xlink:href="#DejaVuSans-69" transform="translate(1163.330078 0)"/>
      <use xlink:href="#DejaVuSans-61" transform="translate(1191.113281 0)"/>
      <use xlink:href="#DejaVuSans-6c" transform="translate(1252.392578 0)"/>
     </g>
    </g>
    <g id="line2d_27">
     <path d="M 404.64125 310.979844 
L 414.64125 310.979844 
L 424.64125 310.979844 
" style="fill: none; stroke-dasharray: 6.66,2.88; stroke-dashoffset: 0; stroke: #ff7f0e; stroke-width: 1.8"/>
    </g>
    <g id="text_20">
     <!-- sum of isolated-ion potentials -->
     <g transform="translate(432.64125 314.479844) scale(0.1 -0.1)">
      <defs>
       <path id="DejaVuSans-2d" d="M 313 2009 
L 1997 2009 
L 1997 1497 
L 313 1497 
L 313 2009 
z
" transform="scale(0.015625)"/>
      </defs>
      <use xlink:href="#DejaVuSans-73"/>
      <use xlink:href="#DejaVuSans-75" transform="translate(52.099609 0)"/>
      <use xlink:href="#DejaVuSans-6d" transform="translate(115.478516 0)"/>
      <use xlink:href="#DejaVuSans-20" transform="translate(212.890625 0)"/>
      <use xlink:href="#DejaVuSans-6f" transform="translate(244.677734 0)"/>
      <use xlink:href="#DejaVuSans-66" transform="translate(305.859375 0)"/>
      <use xlink:href="#DejaVuSans-20" transform="translate(341.064453 0)"/>
      <use xlink:href="#DejaVuSans-69" transform="translate(372.851562 0)"/>
      <use xlink:href="#DejaVuSans-73" transform="translate(400.634766 0)"/>
      <use xlink:href="#DejaVuSans-6f" transform="translate(452.734375 0)"/>
      <use xlink:href="#DejaVuSans-6c" transform="translate(513.916016 0)"/>
      <use xlink:href="#DejaVuSans-61" transform="translate(541.699219 0)"/>
      <use xlink:href="#DejaVuSans-74" transform="translate(602.978516 0)"/>
      <use xlink:href="#DejaVuSans-65" transform="translate(642.1875 0)"/>
      <use xlink:href="#DejaVuSans-64" transform="translate(703.710938 0)"/>
      <use xlink:href="#DejaVuSans-2d" transform="translate(767.1875 0)"/>
      <use xlink:href="#DejaVuSans-69" transform="translate(803.271484 0)"/>
      <use xlink:href="#DejaVuSans-6f" transform="translate(831.054688 0)"/>
      <use xlink:href="#DejaVuSans-6e" transform="translate(892.236328 0)"/>
      <use xlink:href="#DejaVuSans-20" transform="translate(955.615234 0)"/>
      <use xlink:href="#DejaVuSans-70" transform="translate(987.402344 0)"/>
      <use xlink:href="#DejaVuSans-6f" transform="translate(1050.878906 0)"/>
      <use xlink:href="#DejaVuSans-74" transform="translate(1112.060547 0)"/>
      <use xlink:href="#DejaVuSans-65" transform="translate(1151.269531 0)"/>
      <use xlink:href="#DejaVuSans-6e" transform="translate(1212.792969 0)"/>
      <use xlink:href="#DejaVuSans-74" transform="translate(1276.171875 0)"/>
      <use xlink:href="#DejaVuSans-69" transform="translate(1315.380859 0)"/>
      <use xlink:href="#DejaVuSans-61" transform="translate(1343.164062 0)"/>
      <use xlink:href="#DejaVuSans-6c" transform="translate(1404.443359 0)"/>
      <use xlink:href="#DejaVuSans-73" transform="translate(1432.226562 0)"/>
     </g>
    </g>
    <g id="PathCollection_2">
     <g>
      <use xlink:href="#m46a861ab94" x="414.64125" y="326.532969" style="fill: #ffffff; stroke: #2ca02c; stroke-width: 1.6"/>
     </g>
    </g>
    <g id="text_21">
     <!-- ion sites -->
     <g transform="translate(432.64125 329.157969) scale(0.1 -0.1)">
      <use xlink:href="#DejaVuSans-69"/>
      <use xlink:href="#DejaVuSans-6f" transform="translate(27.783203 0)"/>
      <use xlink:href="#DejaVuSans-6e" transform="translate(88.964844 0)"/>
      <use xlink:href="#DejaVuSans-20" transform="translate(152.34375 0)"/>
      <use xlink:href="#DejaVuSans-73" transform="translate(184.130859 0)"/>
      <use xlink:href="#DejaVuSans-69" transform="translate(236.230469 0)"/>
      <use xlink:href="#DejaVuSans-74" transform="translate(264.013672 0)"/>
      <use xlink:href="#DejaVuSans-65" transform="translate(303.222656 0)"/>
      <use xlink:href="#DejaVuSans-73" transform="translate(364.746094 0)"/>
     </g>
    </g>
   </g>
  </g>
 </g>
 <defs>
  <clipPath id="p70481dcd5c">
   <rect x="52.160938" y="24.597656" width="537.91" height="315.64"/>
  </clipPath>
 </defs>
</svg>
