<?xml version="1.0" encoding="utf-8" standalone="no"?>
<!DOCTYPE svg PUBLIC "-//W3C//DTD SVG 1.1//EN"
  "http://www.w3.org/Graphics/SVG/1.1/DTD/svg11.dtd">
<svg xmlns:xlink="http://www.w3.org/1999/xlink" width="717.48pt" height="513.171687pt" viewBox="0 0 717.48 513.171687" xmlns="http://www.w3.org/2000/svg" version="1.1">
 <metadata>
  <rdf:RDF xmlns:dc="http://purl.org/dc/elements/1.1/" xmlns:cc="http://creativecommons.org/ns#" xmlns:rdf="http://www.w3.org/1999/02/22-rdf-syntax-ns#">
   <cc:Work>
    <dc:type rdf:resource="http://purl.org/dc/dcmitype/StillImage"/>
    <dc:date>2026-06-16T08:51:23.743758</dc:date>
    <dc:format>image/svg+xml</dc:format>
    <dc:creator>
     <cc:Agent>
      <dc:title>Matplotlib v3.10.8, https://matplotlib.org/</dc:title>
     </cc:Agent>
    </dc:creator>
   </cc:Work>
  </rdf:RDF>
 </metadata>
 <defs>
  <style type="text/css">*{stroke-linejoin: round; stroke-linecap: butt}</style>
 </defs>
 <g id="figure_1">
  <g id="patch_1">
   <path d="M 0 513.171687 
L 717.48 513.171687 
L 717.48 0 
L 0 0 
z
" style="fill: #ffffff"/>
  </g>
  <g id="axes_1">
   <g id="patch_2">
    <path d="M 43.163171 166.125269 
C 45.785996 166.125269 48.30175 165.083209 50.156367 163.228592 
C 52.010984 161.373975 53.053043 158.858221 53.053043 156.235396 
C 53.053043 153.612572 52.010984 151.096818 50.156367 149.242201 
C 48.30175 147.387584 45.785996 146.345524 43.163171 146.345524 
C 40.540347 146.345524 38.024593 147.387584 36.169976 149.242201 
C 34.315359 151.096818 33.273299 153.612572 33.273299 156.235396 
C 33.273299 158.858221 34.315359 161.373975 36.169976 163.228592 
C 38.024593 165.083209 40.540347 166.125269 43.163171 166.125269 
L 43.163171 166.125269 
z
" clip-path="url(#p15ef450751)" style="fill: none; stroke: #000000; stroke-width: 1.3; stroke-linejoin: miter"/>
   </g>
   <g id="patch_3">
    <path d="M 110.594118 163.87757 
C 112.620846 163.87757 114.564837 163.072343 115.997951 161.639229 
C 117.431064 160.206116 118.236292 158.262125 118.236292 156.235396 
C 118.236292 154.208668 117.431064 152.264677 115.997951 150.831563 
C 114.564837 149.39845 112.620846 148.593223 110.594118 148.593223 
C 108.567389 148.593223 106.623398 149.39845 105.190285 150.831563 
C 103.757171 152.264677 102.951944 154.208668 102.951944 156.235396 
C 102.951944 158.262125 103.757171 160.206116 105.190285 161.639229 
C 106.623398 163.072343 108.567389 163.87757 110.594118 163.87757 
z
" clip-path="url(#p15ef450751)" style="fill: #1f77b4; opacity: 0.75"/>
   </g>
   <g id="patch_4">
    <path d="M 178.025064 166.125269 
C 180.647889 166.125269 183.163642 165.083209 185.01826 163.228592 
C 186.872877 161.373975 187.914936 158.858221 187.914936 156.235396 
C 187.914936 153.612572 186.872877 151.096818 185.01826 149.242201 
C 183.163642 147.387584 180.647889 146.345524 178.025064 146.345524 
C 175.402239 146.345524 172.886485 147.387584 171.031868 149.242201 
C 169.177251 151.096818 168.135192 153.612572 168.135192 156.235396 
C 168.135192 158.858221 169.177251 161.373975 171.031868 163.228592 
C 172.886485 165.083209 175.402239 166.125269 178.025064 166.125269 
L 178.025064 166.125269 
z
" clip-path="url(#p15ef450751)" style="fill: none; stroke: #000000; stroke-width: 1.3; stroke-linejoin: miter"/>
   </g>
   <g id="line2d_1">
    <path d="M 53.053043 156.235396 
L 102.502404 156.235396 
" clip-path="url(#p15ef450751)" style="fill: none; stroke: #1f77b4; stroke-width: 1.6; stroke-linecap: square"/>
   </g>
   <g id="line2d_2">
    <path d="M 118.685831 156.235396 
L 168.135192 156.235396 
" clip-path="url(#p15ef450751)" style="fill: none; stroke: #ff7f0e; stroke-width: 1.6; stroke-linecap: square"/>
   </g>
   <g id="text_1">
    <!-- O -->
    <g transform="translate(39.422484 158.663646) scale(0.088 -0.088)">
     <defs>
      <path id="DejaVuSans-Bold-4f" d="M 2719 3878 
Q 2169 3878 1866 3472 
Q 1563 3066 1563 2328 
Q 1563 1594 1866 1187 
Q 2169 781 2719 781 
Q 3272 781 3575 1187 
Q 3878 1594 3878 2328 
Q 3878 3066 3575 3472 
Q 3272 3878 2719 3878 
z
M 2719 4750 
Q 3844 4750 4481 4106 
Q 5119 3463 5119 2328 
Q 5119 1197 4481 553 
Q 3844 -91 2719 -91 
Q 1597 -91 958 553 
Q 319 1197 319 2328 
Q 319 3463 958 4106 
Q 1597 4750 2719 4750 
z
" transform="scale(0.015625)"/>
     </defs>
     <use xlink:href="#DejaVuSans-Bold-4f"/>
    </g>
   </g>
   <g id="text_2">
    <!-- C -->
    <g transform="translate(107.36493 158.663646) scale(0.088 -0.088)">
     <defs>
      <path id="DejaVuSans-Bold-43" d="M 4288 256 
Q 3956 84 3597 -3 
Q 3238 -91 2847 -91 
Q 1681 -91 1000 561 
Q 319 1213 319 2328 
Q 319 3447 1000 4098 
Q 1681 4750 2847 4750 
Q 3238 4750 3597 4662 
Q 3956 4575 4288 4403 
L 4288 3438 
Q 3953 3666 3628 3772 
Q 3303 3878 2944 3878 
Q 2300 3878 1931 3465 
Q 1563 3053 1563 2328 
Q 1563 1606 1931 1193 
Q 2300 781 2944 781 
Q 3303 781 3628 887 
Q 3953 994 4288 1222 
L 4288 256 
z
" transform="scale(0.015625)"/>
     </defs>
     <use xlink:href="#DejaVuSans-Bold-43"/>
    </g>
   </g>
   <g id="text_3">
    <!-- O -->
    <g transform="translate(174.284376 158.663646) scale(0.088 -0.088)">
     <use xlink:href="#DejaVuSans-Bold-4f"/>
    </g>
   </g>
   <g id="patch_5">
    <path d="M 41.162961 137.354731 
Q 31.926917 137.354731 24.088416 137.354731 
" style="fill: none; stroke: #000000; stroke-width: 1.25; stroke-linecap: round"/>
    <path d="M 29.288416 139.954731 
L 24.088416 137.354731 
L 29.288416 134.754731 
z
" style="fill: #1f77b4; stroke: #000000; stroke-width: 1.25; stroke-linecap: round"/>
   </g>
   <g id="patch_6">
    <path d="M 180.025274 137.354731 
Q 189.261318 137.354731 197.09982 137.354731 
" style="fill: none; stroke: #000000; stroke-width: 1.25; stroke-linecap: round"/>
    <path d="M 191.89982 134.754731 
L 197.09982 137.354731 
L 191.89982 139.954731 
z
" style="fill: #1f77b4; stroke: #000000; stroke-width: 1.25; stroke-linecap: round"/>
   </g>
   <g id="text_4">
    <!-- CO$_2$: stiramento simmetrico -->
    <g transform="translate(28.484118 55.832072) scale(0.105 -0.105)">
     <defs>
      <path id="DejaVuSans-32" d="M 1228 531 
L 3431 531 
L 3431 0 
L 469 0 
L 469 531 
Q 828 903 1448 1529 
Q 2069 2156 2228 2338 
Q 2531 2678 2651 2914 
Q 2772 3150 2772 3378 
Q 2772 3750 2511 3984 
Q 2250 4219 1831 4219 
Q 1534 4219 1204 4116 
Q 875 4013 500 3803 
L 500 4441 
Q 881 4594 1212 4672 
Q 1544 4750 1819 4750 
Q 2544 4750 2975 4387 
Q 3406 4025 3406 3419 
Q 3406 3131 3298 2873 
Q 3191 2616 2906 2266 
Q 2828 2175 2409 1742 
Q 1991 1309 1228 531 
z
" transform="scale(0.015625)"/>
      <path id="DejaVuSans-Bold-3a" d="M 716 3500 
L 1844 3500 
L 1844 2291 
L 716 2291 
L 716 3500 
z
M 716 1209 
L 1844 1209 
L 1844 0 
L 716 0 
L 716 1209 
z
" transform="scale(0.015625)"/>
      <path id="DejaVuSans-Bold-20" transform="scale(0.015625)"/>
      <path id="DejaVuSans-Bold-73" d="M 3272 3391 
L 3272 2541 
Q 2913 2691 2578 2766 
Q 2244 2841 1947 2841 
Q 1628 2841 1473 2761 
Q 1319 2681 1319 2516 
Q 1319 2381 1436 2309 
Q 1553 2238 1856 2203 
L 2053 2175 
Q 2913 2066 3209 1816 
Q 3506 1566 3506 1031 
Q 3506 472 3093 190 
Q 2681 -91 1863 -91 
Q 1516 -91 1145 -36 
Q 775 19 384 128 
L 384 978 
Q 719 816 1070 734 
Q 1422 653 1784 653 
Q 2113 653 2278 743 
Q 2444 834 2444 1013 
Q 2444 1163 2330 1236 
Q 2216 1309 1875 1350 
L 1678 1375 
Q 931 1469 631 1722 
Q 331 1975 331 2491 
Q 331 3047 712 3315 
Q 1094 3584 1881 3584 
Q 2191 3584 2531 3537 
Q 2872 3491 3272 3391 
z
" transform="scale(0.015625)"/>
      <path id="DejaVuSans-Bold-74" d="M 1759 4494 
L 1759 3500 
L 2913 3500 
L 2913 2700 
L 1759 2700 
L 1759 1216 
Q 1759 972 1856 886 
Q 1953 800 2241 800 
L 2816 800 
L 2816 0 
L 1856 0 
Q 1194 0 917 276 
Q 641 553 641 1216 
L 641 2700 
L 84 2700 
L 84 3500 
L 641 3500 
L 641 4494 
L 1759 4494 
z
" transform="scale(0.015625)"/>
      <path id="DejaVuSans-Bold-69" d="M 538 3500 
L 1656 3500 
L 1656 0 
L 538 0 
L 538 3500 
z
M 538 4863 
L 1656 4863 
L 1656 3950 
L 538 3950 
L 538 4863 
z
" transform="scale(0.015625)"/>
      <path id="DejaVuSans-Bold-72" d="M 3138 2547 
Q 2991 2616 2845 2648 
Q 2700 2681 2553 2681 
Q 2122 2681 1889 2404 
Q 1656 2128 1656 1613 
L 1656 0 
L 538 0 
L 538 3500 
L 1656 3500 
L 1656 2925 
Q 1872 3269 2151 3426 
Q 2431 3584 2822 3584 
Q 2878 3584 2943 3579 
Q 3009 3575 3134 3559 
L 3138 2547 
z
" transform="scale(0.015625)"/>
      <path id="DejaVuSans-Bold-61" d="M 2106 1575 
Q 1756 1575 1579 1456 
Q 1403 1338 1403 1106 
Q 1403 894 1545 773 
Q 1688 653 1941 653 
Q 2256 653 2472 879 
Q 2688 1106 2688 1447 
L 2688 1575 
L 2106 1575 
z
M 3816 1997 
L 3816 0 
L 2688 0 
L 2688 519 
Q 2463 200 2181 54 
Q 1900 -91 1497 -91 
Q 953 -91 614 226 
Q 275 544 275 1050 
Q 275 1666 698 1953 
Q 1122 2241 2028 2241 
L 2688 2241 
L 2688 2328 
Q 2688 2594 2478 2717 
Q 2269 2841 1825 2841 
Q 1466 2841 1156 2769 
Q 847 2697 581 2553 
L 581 3406 
Q 941 3494 1303 3539 
Q 1666 3584 2028 3584 
Q 2975 3584 3395 3211 
Q 3816 2838 3816 1997 
z
" transform="scale(0.015625)"/>
      <path id="DejaVuSans-Bold-6d" d="M 3781 2919 
Q 3994 3244 4286 3414 
Q 4578 3584 4928 3584 
Q 5531 3584 5847 3212 
Q 6163 2841 6163 2131 
L 6163 0 
L 5038 0 
L 5038 1825 
Q 5041 1866 5042 1909 
Q 5044 1953 5044 2034 
Q 5044 2406 4934 2573 
Q 4825 2741 4581 2741 
Q 4263 2741 4089 2478 
Q 3916 2216 3909 1719 
L 3909 0 
L 2784 0 
L 2784 1825 
Q 2784 2406 2684 2573 
Q 2584 2741 2328 2741 
Q 2006 2741 1831 2477 
Q 1656 2213 1656 1722 
L 1656 0 
L 531 0 
L 531 3500 
L 1656 3500 
L 1656 2988 
Q 1863 3284 2130 3434 
Q 2397 3584 2719 3584 
Q 3081 3584 3359 3409 
Q 3638 3234 3781 2919 
z
" transform="scale(0.015625)"/>
      <path id="DejaVuSans-Bold-65" d="M 4031 1759 
L 4031 1441 
L 1416 1441 
Q 1456 1047 1700 850 
Q 1944 653 2381 653 
Q 2734 653 3104 758 
Q 3475 863 3866 1075 
L 3866 213 
Q 3469 63 3072 -14 
Q 2675 -91 2278 -91 
Q 1328 -91 801 392 
Q 275 875 275 1747 
Q 275 2603 792 3093 
Q 1309 3584 2216 3584 
Q 3041 3584 3536 3087 
Q 4031 2591 4031 1759 
z
M 2881 2131 
Q 2881 2450 2695 2645 
Q 2509 2841 2209 2841 
Q 1884 2841 1681 2658 
Q 1478 2475 1428 2131 
L 2881 2131 
z
" transform="scale(0.015625)"/>
      <path id="DejaVuSans-Bold-6e" d="M 4056 2131 
L 4056 0 
L 2931 0 
L 2931 347 
L 2931 1631 
Q 2931 2084 2911 2256 
Q 2891 2428 2841 2509 
Q 2775 2619 2662 2680 
Q 2550 2741 2406 2741 
Q 2056 2741 1856 2470 
Q 1656 2200 1656 1722 
L 1656 0 
L 538 0 
L 538 3500 
L 1656 3500 
L 1656 2988 
Q 1909 3294 2193 3439 
Q 2478 3584 2822 3584 
Q 3428 3584 3742 3212 
Q 4056 2841 4056 2131 
z
" transform="scale(0.015625)"/>
      <path id="DejaVuSans-Bold-6f" d="M 2203 2784 
Q 1831 2784 1636 2517 
Q 1441 2250 1441 1747 
Q 1441 1244 1636 976 
Q 1831 709 2203 709 
Q 2569 709 2762 976 
Q 2956 1244 2956 1747 
Q 2956 2250 2762 2517 
Q 2569 2784 2203 2784 
z
M 2203 3584 
Q 3106 3584 3614 3096 
Q 4122 2609 4122 1747 
Q 4122 884 3614 396 
Q 3106 -91 2203 -91 
Q 1297 -91 786 396 
Q 275 884 275 1747 
Q 275 2609 786 3096 
Q 1297 3584 2203 3584 
z
" transform="scale(0.015625)"/>
      <path id="DejaVuSans-Bold-63" d="M 3366 3391 
L 3366 2478 
Q 3138 2634 2908 2709 
Q 2678 2784 2431 2784 
Q 1963 2784 1702 2511 
Q 1441 2238 1441 1747 
Q 1441 1256 1702 982 
Q 1963 709 2431 709 
Q 2694 709 2930 787 
Q 3166 866 3366 1019 
L 3366 103 
Q 3103 6 2833 -42 
Q 2563 -91 2291 -91 
Q 1344 -91 809 395 
Q 275 881 275 1747 
Q 275 2613 809 3098 
Q 1344 3584 2291 3584 
Q 2566 3584 2833 3536 
Q 3100 3488 3366 3391 
z
" transform="scale(0.015625)"/>
     </defs>
     <use xlink:href="#DejaVuSans-Bold-43" transform="translate(0 0.015625)"/>
     <use xlink:href="#DejaVuSans-Bold-4f" transform="translate(73.388672 0.015625)"/>
     <use xlink:href="#DejaVuSans-32" transform="translate(159.355469 -16.390625) scale(0.7)"/>
     <use xlink:href="#DejaVuSans-Bold-3a" transform="translate(206.625977 0.015625)"/>
     <use xlink:href="#DejaVuSans-Bold-20" transform="translate(246.616211 0.015625)"/>
     <use xlink:href="#DejaVuSans-Bold-73" transform="translate(281.430664 0.015625)"/>
     <use xlink:href="#DejaVuSans-Bold-74" transform="translate(340.952148 0.015625)"/>
     <use xlink:href="#DejaVuSans-Bold-69" transform="translate(388.754883 0.015625)"/>
     <use xlink:href="#DejaVuSans-Bold-72" transform="translate(423.032227 0.015625)"/>
     <use xlink:href="#DejaVuSans-Bold-61" transform="translate(472.348633 0.015625)"/>
     <use xlink:href="#DejaVuSans-Bold-6d" transform="translate(539.829102 0.015625)"/>
     <use xlink:href="#DejaVuSans-Bold-65" transform="translate(644.02832 0.015625)"/>
     <use xlink:href="#DejaVuSans-Bold-6e" transform="translate(711.850586 0.015625)"/>
     <use xlink:href="#DejaVuSans-Bold-74" transform="translate(783.041992 0.015625)"/>
     <use xlink:href="#DejaVuSans-Bold-6f" transform="translate(830.844727 0.015625)"/>
     <use xlink:href="#DejaVuSans-Bold-20" transform="translate(899.545898 0.015625)"/>
     <use xlink:href="#DejaVuSans-Bold-73" transform="translate(934.360352 0.015625)"/>
     <use xlink:href="#DejaVuSans-Bold-69" transform="translate(993.881836 0.015625)"/>
     <use xlink:href="#DejaVuSans-Bold-6d" transform="translate(1028.15918 0.015625)"/>
     <use xlink:href="#DejaVuSans-Bold-6d" transform="translate(1132.358398 0.015625)"/>
     <use xlink:href="#DejaVuSans-Bold-65" transform="translate(1236.557617 0.015625)"/>
     <use xlink:href="#DejaVuSans-Bold-74" transform="translate(1304.379883 0.015625)"/>
     <use xlink:href="#DejaVuSans-Bold-72" transform="translate(1352.182617 0.015625)"/>
     <use xlink:href="#DejaVuSans-Bold-69" transform="translate(1401.499023 0.015625)"/>
     <use xlink:href="#DejaVuSans-Bold-63" transform="translate(1435.776367 0.015625)"/>
     <use xlink:href="#DejaVuSans-Bold-6f" transform="translate(1495.053711 0.015625)"/>
    </g>
   </g>
  </g>
  <g id="axes_2">
   <g id="patch_7">
    <path d="M 291.309054 166.125269 
C 293.931878 166.125269 296.447632 165.083209 298.302249 163.228592 
C 300.156867 161.373975 301.198926 158.858221 301.198926 156.235396 
C 301.198926 153.612572 300.156867 151.096818 298.302249 149.242201 
C 296.447632 147.387584 293.931878 146.345524 291.309054 146.345524 
C 288.686229 146.345524 286.170475 147.387584 284.315858 149.242201 
C 282.461241 151.096818 281.419182 153.612572 281.419182 156.235396 
C 281.419182 158.858221 282.461241 161.373975 284.315858 163.228592 
C 286.170475 165.083209 288.686229 166.125269 291.309054 166.125269 
L 291.309054 166.125269 
z
" clip-path="url(#p29ec5ed6de)" style="fill: none; stroke: #000000; stroke-width: 1.3; stroke-linejoin: miter"/>
   </g>
   <g id="patch_8">
    <path d="M 358.74 163.87757 
C 360.766728 163.87757 362.71072 163.072343 364.143833 161.639229 
C 365.576946 160.206116 366.382174 158.262125 366.382174 156.235396 
C 366.382174 154.208668 365.576946 152.264677 364.143833 150.831563 
C 362.71072 149.39845 360.766728 148.593223 358.74 148.593223 
C 356.713272 148.593223 354.76928 149.39845 353.336167 150.831563 
C 351.903054 152.264677 351.097826 154.208668 351.097826 156.235396 
C 351.097826 158.262125 351.903054 160.206116 353.336167 161.639229 
C 354.76928 163.072343 356.713272 163.87757 358.74 163.87757 
z
" clip-path="url(#p29ec5ed6de)" style="fill: #1f77b4; opacity: 0.75"/>
   </g>
   <g id="patch_9">
    <path d="M 426.170946 166.125269 
C 428.793771 166.125269 431.309525 165.083209 433.164142 163.228592 
C 435.018759 161.373975 436.060818 158.858221 436.060818 156.235396 
C 436.060818 153.612572 435.018759 151.096818 433.164142 149.242201 
C 431.309525 147.387584 428.793771 146.345524 426.170946 146.345524 
C 423.548122 146.345524 421.032368 147.387584 419.177751 149.242201 
C 417.323133 151.096818 416.281074 153.612572 416.281074 156.235396 
C 416.281074 158.858221 417.323133 161.373975 419.177751 163.228592 
C 421.032368 165.083209 423.548122 166.125269 426.170946 166.125269 
L 426.170946 166.125269 
z
" clip-path="url(#p29ec5ed6de)" style="fill: none; stroke: #000000; stroke-width: 1.3; stroke-linejoin: miter"/>
   </g>
   <g id="line2d_3">
    <path d="M 301.198926 156.235396 
L 350.648286 156.235396 
" clip-path="url(#p29ec5ed6de)" style="fill: none; stroke: #1f77b4; stroke-width: 1.6; stroke-linecap: square"/>
   </g>
   <g id="line2d_4">
    <path d="M 366.831714 156.235396 
L 416.281074 156.235396 
" clip-path="url(#p29ec5ed6de)" style="fill: none; stroke: #ff7f0e; stroke-width: 1.6; stroke-linecap: square"/>
   </g>
   <g id="text_5">
    <!-- O -->
    <g transform="translate(287.568366 158.663646) scale(0.088 -0.088)">
     <use xlink:href="#DejaVuSans-Bold-4f"/>
    </g>
   </g>
   <g id="text_6">
    <!-- C -->
    <g transform="translate(355.510812 158.663646) scale(0.088 -0.088)">
     <use xlink:href="#DejaVuSans-Bold-43"/>
    </g>
   </g>
   <g id="text_7">
    <!-- O -->
    <g transform="translate(422.430259 158.663646) scale(0.088 -0.088)">
     <use xlink:href="#DejaVuSans-Bold-4f"/>
    </g>
   </g>
   <g id="patch_10">
    <path d="M 291.309054 173.967848 
Q 291.309054 185.453303 291.309054 195.541215 
" style="fill: none; stroke: #000000; stroke-width: 1.25; stroke-linecap: round"/>
    <path d="M 293.909054 190.341215 
L 291.309054 195.541215 
L 288.709054 190.341215 
z
" style="fill: #1f77b4; stroke: #000000; stroke-width: 1.25; stroke-linecap: round"/>
   </g>
   <g id="patch_11">
    <path d="M 426.170946 173.967848 
Q 426.170946 185.453303 426.170946 195.541215 
" style="fill: none; stroke: #000000; stroke-width: 1.25; stroke-linecap: round"/>
    <path d="M 428.770946 190.341215 
L 426.170946 195.541215 
L 423.570946 190.341215 
z
" style="fill: #1f77b4; stroke: #000000; stroke-width: 1.25; stroke-linecap: round"/>
   </g>
   <g id="patch_12">
    <path d="M 358.74 138.500201 
Q 358.74 124.768727 358.74 112.434795 
" style="fill: none; stroke: #000000; stroke-width: 1.25; stroke-linecap: round"/>
    <path d="M 356.14 117.634795 
L 358.74 112.434795 
L 361.34 117.634795 
z
" style="fill: #1f77b4; stroke: #000000; stroke-width: 1.25; stroke-linecap: round"/>
   </g>
   <g id="text_8">
    <!-- CO$_2$: piegamento -->
    <g transform="translate(308.655 55.832072) scale(0.105 -0.105)">
     <defs>
      <path id="DejaVuSans-Bold-70" d="M 1656 506 
L 1656 -1331 
L 538 -1331 
L 538 3500 
L 1656 3500 
L 1656 2988 
Q 1888 3294 2169 3439 
Q 2450 3584 2816 3584 
Q 3463 3584 3878 3070 
Q 4294 2556 4294 1747 
Q 4294 938 3878 423 
Q 3463 -91 2816 -91 
Q 2450 -91 2169 54 
Q 1888 200 1656 506 
z
M 2400 2772 
Q 2041 2772 1848 2508 
Q 1656 2244 1656 1747 
Q 1656 1250 1848 986 
Q 2041 722 2400 722 
Q 2759 722 2948 984 
Q 3138 1247 3138 1747 
Q 3138 2247 2948 2509 
Q 2759 2772 2400 2772 
z
" transform="scale(0.015625)"/>
      <path id="DejaVuSans-Bold-67" d="M 2919 594 
Q 2688 288 2409 144 
Q 2131 0 1766 0 
Q 1125 0 706 504 
Q 288 1009 288 1791 
Q 288 2575 706 3076 
Q 1125 3578 1766 3578 
Q 2131 3578 2409 3434 
Q 2688 3291 2919 2981 
L 2919 3500 
L 4044 3500 
L 4044 353 
Q 4044 -491 3511 -936 
Q 2978 -1381 1966 -1381 
Q 1638 -1381 1331 -1331 
Q 1025 -1281 716 -1178 
L 716 -306 
Q 1009 -475 1290 -558 
Q 1572 -641 1856 -641 
Q 2406 -641 2662 -400 
Q 2919 -159 2919 353 
L 2919 594 
z
M 2181 2772 
Q 1834 2772 1640 2515 
Q 1447 2259 1447 1791 
Q 1447 1309 1634 1061 
Q 1822 813 2181 813 
Q 2531 813 2725 1069 
Q 2919 1325 2919 1791 
Q 2919 2259 2725 2515 
Q 2531 2772 2181 2772 
z
" transform="scale(0.015625)"/>
     </defs>
     <use xlink:href="#DejaVuSans-Bold-43" transform="translate(0 0.015625)"/>
     <use xlink:href="#DejaVuSans-Bold-4f" transform="translate(73.388672 0.015625)"/>
     <use xlink:href="#DejaVuSans-32" transform="translate(159.355469 -16.390625) scale(0.7)"/>
     <use xlink:href="#DejaVuSans-Bold-3a" transform="translate(206.625977 0.015625)"/>
     <use xlink:href="#DejaVuSans-Bold-20" transform="translate(246.616211 0.015625)"/>
     <use xlink:href="#DejaVuSans-Bold-70" transform="translate(281.430664 0.015625)"/>
     <use xlink:href="#DejaVuSans-Bold-69" transform="translate(353.012695 0.015625)"/>
     <use xlink:href="#DejaVuSans-Bold-65" transform="translate(387.290039 0.015625)"/>
     <use xlink:href="#DejaVuSans-Bold-67" transform="translate(455.112305 0.015625)"/>
     <use xlink:href="#DejaVuSans-Bold-61" transform="translate(526.694336 0.015625)"/>
     <use xlink:href="#DejaVuSans-Bold-6d" transform="translate(594.174805 0.015625)"/>
     <use xlink:href="#DejaVuSans-Bold-65" transform="translate(698.374023 0.015625)"/>
     <use xlink:href="#DejaVuSans-Bold-6e" transform="translate(766.196289 0.015625)"/>
     <use xlink:href="#DejaVuSans-Bold-74" transform="translate(837.387695 0.015625)"/>
     <use xlink:href="#DejaVuSans-Bold-6f" transform="translate(885.19043 0.015625)"/>
    </g>
   </g>
  </g>
  <g id="axes_3">
   <g id="patch_13">
    <path d="M 539.454936 166.125269 
C 542.077761 166.125269 544.593515 165.083209 546.448132 163.228592 
C 548.302749 161.373975 549.344808 158.858221 549.344808 156.235396 
C 549.344808 153.612572 548.302749 151.096818 546.448132 149.242201 
C 544.593515 147.387584 542.077761 146.345524 539.454936 146.345524 
C 536.832111 146.345524 534.316358 147.387584 532.46174 149.242201 
C 530.607123 151.096818 529.565064 153.612572 529.565064 156.235396 
C 529.565064 158.858221 530.607123 161.373975 532.46174 163.228592 
C 534.316358 165.083209 536.832111 166.125269 539.454936 166.125269 
L 539.454936 166.125269 
z
" clip-path="url(#p1e3297fe2a)" style="fill: none; stroke: #000000; stroke-width: 1.3; stroke-linejoin: miter"/>
   </g>
   <g id="patch_14">
    <path d="M 606.885882 163.87757 
C 608.912611 163.87757 610.856602 163.072343 612.289715 161.639229 
C 613.722829 160.206116 614.528056 158.262125 614.528056 156.235396 
C 614.528056 154.208668 613.722829 152.264677 612.289715 150.831563 
C 610.856602 149.39845 608.912611 148.593223 606.885882 148.593223 
C 604.859154 148.593223 602.915163 149.39845 601.482049 150.831563 
C 600.048936 152.264677 599.243708 154.208668 599.243708 156.235396 
C 599.243708 158.262125 600.048936 160.206116 601.482049 161.639229 
C 602.915163 163.072343 604.859154 163.87757 606.885882 163.87757 
z
" clip-path="url(#p1e3297fe2a)" style="fill: #1f77b4; opacity: 0.75"/>
   </g>
   <g id="patch_15">
    <path d="M 674.316829 166.125269 
C 676.939653 166.125269 679.455407 165.083209 681.310024 163.228592 
C 683.164641 161.373975 684.206701 158.858221 684.206701 156.235396 
C 684.206701 153.612572 683.164641 151.096818 681.310024 149.242201 
C 679.455407 147.387584 676.939653 146.345524 674.316829 146.345524 
C 671.694004 146.345524 669.17825 147.387584 667.323633 149.242201 
C 665.469016 151.096818 664.426957 153.612572 664.426957 156.235396 
C 664.426957 158.858221 665.469016 161.373975 667.323633 163.228592 
C 669.17825 165.083209 671.694004 166.125269 674.316829 166.125269 
L 674.316829 166.125269 
z
" clip-path="url(#p1e3297fe2a)" style="fill: none; stroke: #000000; stroke-width: 1.3; stroke-linejoin: miter"/>
   </g>
   <g id="line2d_5">
    <path d="M 549.344808 156.235396 
L 598.794169 156.235396 
" clip-path="url(#p1e3297fe2a)" style="fill: none; stroke: #1f77b4; stroke-width: 1.6; stroke-linecap: square"/>
   </g>
   <g id="line2d_6">
    <path d="M 614.977596 156.235396 
L 664.426957 156.235396 
" clip-path="url(#p1e3297fe2a)" style="fill: none; stroke: #ff7f0e; stroke-width: 1.6; stroke-linecap: square"/>
   </g>
   <g id="text_9">
    <!-- O -->
    <g transform="translate(535.714249 158.663646) scale(0.088 -0.088)">
     <use xlink:href="#DejaVuSans-Bold-4f"/>
    </g>
   </g>
   <g id="text_10">
    <!-- C -->
    <g transform="translate(603.656695 158.663646) scale(0.088 -0.088)">
     <use xlink:href="#DejaVuSans-Bold-43"/>
    </g>
   </g>
   <g id="text_11">
    <!-- O -->
    <g transform="translate(670.576141 158.663646) scale(0.088 -0.088)">
     <use xlink:href="#DejaVuSans-Bold-4f"/>
    </g>
   </g>
   <g id="patch_16">
    <path d="M 541.455146 137.354731 
Q 550.69119 137.354731 558.529692 137.354731 
" style="fill: none; stroke: #000000; stroke-width: 1.25; stroke-linecap: round"/>
    <path d="M 553.329692 134.754731 
L 558.529692 137.354731 
L 553.329692 139.954731 
z
" style="fill: #1f77b4; stroke: #000000; stroke-width: 1.25; stroke-linecap: round"/>
   </g>
   <g id="patch_17">
    <path d="M 604.884849 137.354731 
Q 594.52301 137.354731 585.558714 137.354731 
" style="fill: none; stroke: #000000; stroke-width: 1.25; stroke-linecap: round"/>
    <path d="M 590.758714 139.954731 
L 585.558714 137.354731 
L 590.758714 134.754731 
z
" style="fill: #1f77b4; stroke: #000000; stroke-width: 1.25; stroke-linecap: round"/>
   </g>
   <g id="patch_18">
    <path d="M 676.317039 137.354731 
Q 685.553083 137.354731 693.391584 137.354731 
" style="fill: none; stroke: #000000; stroke-width: 1.25; stroke-linecap: round"/>
    <path d="M 688.191584 134.754731 
L 693.391584 137.354731 
L 688.191584 139.954731 
z
" style="fill: #1f77b4; stroke: #000000; stroke-width: 1.25; stroke-linecap: round"/>
   </g>
   <g id="text_12">
    <!-- CO$_2$: stiramento antisimmetrico -->
    <g transform="translate(513.173382 55.832072) scale(0.105 -0.105)">
     <use xlink:href="#DejaVuSans-Bold-43" transform="translate(0 0.015625)"/>
     <use xlink:href="#DejaVuSans-Bold-4f" transform="translate(73.388672 0.015625)"/>
     <use xlink:href="#DejaVuSans-32" transform="translate(159.355469 -16.390625) scale(0.7)"/>
     <use xlink:href="#DejaVuSans-Bold-3a" transform="translate(206.625977 0.015625)"/>
     <use xlink:href="#DejaVuSans-Bold-20" transform="translate(246.616211 0.015625)"/>
     <use xlink:href="#DejaVuSans-Bold-73" transform="translate(281.430664 0.015625)"/>
     <use xlink:href="#DejaVuSans-Bold-74" transform="translate(340.952148 0.015625)"/>
     <use xlink:href="#DejaVuSans-Bold-69" transform="translate(388.754883 0.015625)"/>
     <use xlink:href="#DejaVuSans-Bold-72" transform="translate(423.032227 0.015625)"/>
     <use xlink:href="#DejaVuSans-Bold-61" transform="translate(472.348633 0.015625)"/>
     <use xlink:href="#DejaVuSans-Bold-6d" transform="translate(539.829102 0.015625)"/>
     <use xlink:href="#DejaVuSans-Bold-65" transform="translate(644.02832 0.015625)"/>
     <use xlink:href="#DejaVuSans-Bold-6e" transform="translate(711.850586 0.015625)"/>
     <use xlink:href="#DejaVuSans-Bold-74" transform="translate(783.041992 0.015625)"/>
     <use xlink:href="#DejaVuSans-Bold-6f" transform="translate(830.844727 0.015625)"/>
     <use xlink:href="#DejaVuSans-Bold-20" transform="translate(899.545898 0.015625)"/>
     <use xlink:href="#DejaVuSans-Bold-61" transform="translate(934.360352 0.015625)"/>
     <use xlink:href="#DejaVuSans-Bold-6e" transform="translate(1001.84082 0.015625)"/>
     <use xlink:href="#DejaVuSans-Bold-74" transform="translate(1073.032227 0.015625)"/>
     <use xlink:href="#DejaVuSans-Bold-69" transform="translate(1120.834961 0.015625)"/>
     <use xlink:href="#DejaVuSans-Bold-73" transform="translate(1155.112305 0.015625)"/>
     <use xlink:href="#DejaVuSans-Bold-69" transform="translate(1214.633789 0.015625)"/>
     <use xlink:href="#DejaVuSans-Bold-6d" transform="translate(1248.911133 0.015625)"/>
     <use xlink:href="#DejaVuSans-Bold-6d" transform="translate(1353.110352 0.015625)"/>
     <use xlink:href="#DejaVuSans-Bold-65" transform="translate(1457.30957 0.015625)"/>
     <use xlink:href="#DejaVuSans-Bold-74" transform="translate(1525.131836 0.015625)"/>
     <use xlink:href="#DejaVuSans-Bold-72" transform="translate(1572.93457 0.015625)"/>
     <use xlink:href="#DejaVuSans-Bold-69" transform="translate(1622.250977 0.015625)"/>
     <use xlink:href="#DejaVuSans-Bold-63" transform="translate(1656.52832 0.015625)"/>
     <use xlink:href="#DejaVuSans-Bold-6f" transform="translate(1715.805664 0.015625)"/>
    </g>
   </g>
  </g>
  <g id="axes_4">
   <g id="patch_19">
    <path d="M 110.594118 355.859033 
C 112.740065 355.859033 114.798409 355.006439 116.315823 353.489025 
C 117.833237 351.971611 118.685831 349.913267 118.685831 347.76732 
C 118.685831 345.621372 117.833237 343.563028 116.315823 342.045614 
C 114.798409 340.5282 112.740065 339.675606 110.594118 339.675606 
C 108.44817 339.675606 106.389826 340.5282 104.872412 342.045614 
C 103.354998 343.563028 102.502404 345.621372 102.502404 347.76732 
C 102.502404 349.913267 103.354998 351.971611 104.872412 353.489025 
C 106.389826 355.006439 108.44817 355.859033 110.594118 355.859033 
z
" clip-path="url(#p284fe319ed)" style="fill: #1f77b4; opacity: 0.75"/>
   </g>
   <g id="patch_20">
    <path d="M 61.144757 416.097345 
C 63.767582 416.097345 66.283336 415.055286 68.137953 413.200669 
C 69.99257 411.346052 71.034629 408.830298 71.034629 406.207473 
C 71.034629 403.584648 69.99257 401.068895 68.137953 399.214278 
C 66.283336 397.35966 63.767582 396.317601 61.144757 396.317601 
C 58.521932 396.317601 56.006179 397.35966 54.151561 399.214278 
C 52.296944 401.068895 51.254885 403.584648 51.254885 406.207473 
C 51.254885 408.830298 52.296944 411.346052 54.151561 413.200669 
C 56.006179 415.055286 58.521932 416.097345 61.144757 416.097345 
L 61.144757 416.097345 
z
" clip-path="url(#p284fe319ed)" style="fill: none; stroke: #000000; stroke-width: 1.3; stroke-linejoin: miter"/>
   </g>
   <g id="patch_21">
    <path d="M 160.043478 416.097345 
C 162.666303 416.097345 165.182057 415.055286 167.036674 413.200669 
C 168.891291 411.346052 169.93335 408.830298 169.93335 406.207473 
C 169.93335 403.584648 168.891291 401.068895 167.036674 399.214278 
C 165.182057 397.35966 162.666303 396.317601 160.043478 396.317601 
C 157.420654 396.317601 154.9049 397.35966 153.050283 399.214278 
C 151.195665 401.068895 150.153606 403.584648 150.153606 406.207473 
C 150.153606 408.830298 151.195665 411.346052 153.050283 413.200669 
C 154.9049 415.055286 157.420654 416.097345 160.043478 416.097345 
L 160.043478 416.097345 
z
" clip-path="url(#p284fe319ed)" style="fill: none; stroke: #000000; stroke-width: 1.3; stroke-linejoin: miter"/>
   </g>
   <g id="line2d_7">
    <path d="M 110.594118 354.510414 
L 61.144757 398.11576 
" clip-path="url(#p284fe319ed)" style="fill: none; stroke: #1f77b4; stroke-width: 1.5; stroke-linecap: square"/>
   </g>
   <g id="line2d_8">
    <path d="M 110.594118 354.510414 
L 160.043478 398.11576 
" clip-path="url(#p284fe319ed)" style="fill: none; stroke: #ff7f0e; stroke-width: 1.5; stroke-linecap: square"/>
   </g>
   <g id="text_13">
    <!-- O -->
    <g transform="translate(106.85343 350.19557) scale(0.088 -0.088)">
     <use xlink:href="#DejaVuSans-Bold-4f"/>
    </g>
   </g>
   <g id="text_14">
    <!-- H -->
    <g transform="translate(57.462507 408.635723) scale(0.088 -0.088)">
     <defs>
      <path id="DejaVuSans-Bold-48" d="M 588 4666 
L 1791 4666 
L 1791 2888 
L 3566 2888 
L 3566 4666 
L 4769 4666 
L 4769 0 
L 3566 0 
L 3566 1978 
L 1791 1978 
L 1791 0 
L 588 0 
L 588 4666 
z
" transform="scale(0.015625)"/>
     </defs>
     <use xlink:href="#DejaVuSans-Bold-48"/>
    </g>
   </g>
   <g id="text_15">
    <!-- H -->
    <g transform="translate(156.361228 408.635723) scale(0.088 -0.088)">
     <use xlink:href="#DejaVuSans-Bold-48"/>
    </g>
   </g>
   <g id="patch_22">
    <path d="M 53.073677 414.444552 
Q 45.410622 423.065488 38.676044 430.641889 
" style="fill: none; stroke: #000000; stroke-width: 1.25; stroke-linecap: round"/>
    <path d="M 44.074 428.482706 
L 38.676044 430.641889 
L 40.187471 425.028014 
z
" style="fill: #1f77b4; stroke: #000000; stroke-width: 1.25; stroke-linecap: round"/>
   </g>
   <g id="patch_23">
    <path d="M 168.114559 414.444552 
Q 175.777613 423.065488 182.512192 430.641889 
" style="fill: none; stroke: #000000; stroke-width: 1.25; stroke-linecap: round"/>
    <path d="M 181.000764 425.028014 
L 182.512192 430.641889 
L 177.114235 428.482706 
z
" style="fill: #1f77b4; stroke: #000000; stroke-width: 1.25; stroke-linecap: round"/>
   </g>
   <g id="patch_24">
    <path d="M 110.594118 332.280097 
Q 110.594118 321.918258 110.594118 312.953962 
" style="fill: none; stroke: #000000; stroke-width: 1.25; stroke-linecap: round"/>
    <path d="M 107.994118 318.153962 
L 110.594118 312.953962 
L 113.194118 318.153962 
z
" style="fill: #1f77b4; stroke: #000000; stroke-width: 1.25; stroke-linecap: round"/>
   </g>
   <g id="text_16">
    <!-- H$_2$O: stiramento simmetrico -->
    <g transform="translate(27.906618 276.584072) scale(0.105 -0.105)">
     <use xlink:href="#DejaVuSans-Bold-48" transform="translate(0 0.015625)"/>
     <use xlink:href="#DejaVuSans-32" transform="translate(84.648438 -16.390625) scale(0.7)"/>
     <use xlink:href="#DejaVuSans-Bold-4f" transform="translate(131.918945 0.015625)"/>
     <use xlink:href="#DejaVuSans-Bold-3a" transform="translate(216.928711 0.015625)"/>
     <use xlink:href="#DejaVuSans-Bold-20" transform="translate(256.918945 0.015625)"/>
     <use xlink:href="#DejaVuSans-Bold-73" transform="translate(291.733398 0.015625)"/>
     <use xlink:href="#DejaVuSans-Bold-74" transform="translate(351.254883 0.015625)"/>
     <use xlink:href="#DejaVuSans-Bold-69" transform="translate(399.057617 0.015625)"/>
     <use xlink:href="#DejaVuSans-Bold-72" transform="translate(433.334961 0.015625)"/>
     <use xlink:href="#DejaVuSans-Bold-61" transform="translate(482.651367 0.015625)"/>
     <use xlink:href="#DejaVuSans-Bold-6d" transform="translate(550.131836 0.015625)"/>
     <use xlink:href="#DejaVuSans-Bold-65" transform="translate(654.331055 0.015625)"/>
     <use xlink:href="#DejaVuSans-Bold-6e" transform="translate(722.15332 0.015625)"/>
     <use xlink:href="#DejaVuSans-Bold-74" transform="translate(793.344727 0.015625)"/>
     <use xlink:href="#DejaVuSans-Bold-6f" transform="translate(841.147461 0.015625)"/>
     <use xlink:href="#DejaVuSans-Bold-20" transform="translate(909.848633 0.015625)"/>
     <use xlink:href="#DejaVuSans-Bold-73" transform="translate(944.663086 0.015625)"/>
     <use xlink:href="#DejaVuSans-Bold-69" transform="translate(1004.18457 0.015625)"/>
     <use xlink:href="#DejaVuSans-Bold-6d" transform="translate(1038.461914 0.015625)"/>
     <use xlink:href="#DejaVuSans-Bold-6d" transform="translate(1142.661133 0.015625)"/>
     <use xlink:href="#DejaVuSans-Bold-65" transform="translate(1246.860352 0.015625)"/>
     <use xlink:href="#DejaVuSans-Bold-74" transform="translate(1314.682617 0.015625)"/>
     <use xlink:href="#DejaVuSans-Bold-72" transform="translate(1362.485352 0.015625)"/>
     <use xlink:href="#DejaVuSans-Bold-69" transform="translate(1411.801758 0.015625)"/>
     <use xlink:href="#DejaVuSans-Bold-63" transform="translate(1446.079102 0.015625)"/>
     <use xlink:href="#DejaVuSans-Bold-6f" transform="translate(1505.356445 0.015625)"/>
    </g>
   </g>
  </g>
  <g id="axes_5">
   <g id="patch_25">
    <path d="M 358.74 355.859033 
C 360.885948 355.859033 362.944291 355.006439 364.461706 353.489025 
C 365.97912 351.971611 366.831714 349.913267 366.831714 347.76732 
C 366.831714 345.621372 365.97912 343.563028 364.461706 342.045614 
C 362.944291 340.5282 360.885948 339.675606 358.74 339.675606 
C 356.594052 339.675606 354.535709 340.5282 353.018294 342.045614 
C 351.50088 343.563028 350.648286 345.621372 350.648286 347.76732 
C 350.648286 349.913267 351.50088 351.971611 353.018294 353.489025 
C 354.535709 355.006439 356.594052 355.859033 358.74 355.859033 
z
" clip-path="url(#p63d8c67ff6)" style="fill: #1f77b4; opacity: 0.75"/>
   </g>
   <g id="patch_26">
    <path d="M 309.290639 416.097345 
C 311.913464 416.097345 314.429218 415.055286 316.283835 413.200669 
C 318.138452 411.346052 319.180512 408.830298 319.180512 406.207473 
C 319.180512 403.584648 318.138452 401.068895 316.283835 399.214278 
C 314.429218 397.35966 311.913464 396.317601 309.290639 396.317601 
C 306.667815 396.317601 304.152061 397.35966 302.297444 399.214278 
C 300.442827 401.068895 299.400767 403.584648 299.400767 406.207473 
C 299.400767 408.830298 300.442827 411.346052 302.297444 413.200669 
C 304.152061 415.055286 306.667815 416.097345 309.290639 416.097345 
L 309.290639 416.097345 
z
" clip-path="url(#p63d8c67ff6)" style="fill: none; stroke: #000000; stroke-width: 1.3; stroke-linejoin: miter"/>
   </g>
   <g id="patch_27">
    <path d="M 408.189361 416.097345 
C 410.812185 416.097345 413.327939 415.055286 415.182556 413.200669 
C 417.037173 411.346052 418.079233 408.830298 418.079233 406.207473 
C 418.079233 403.584648 417.037173 401.068895 415.182556 399.214278 
C 413.327939 397.35966 410.812185 396.317601 408.189361 396.317601 
C 405.566536 396.317601 403.050782 397.35966 401.196165 399.214278 
C 399.341548 401.068895 398.299488 403.584648 398.299488 406.207473 
C 398.299488 408.830298 399.341548 411.346052 401.196165 413.200669 
C 403.050782 415.055286 405.566536 416.097345 408.189361 416.097345 
L 408.189361 416.097345 
z
" clip-path="url(#p63d8c67ff6)" style="fill: none; stroke: #000000; stroke-width: 1.3; stroke-linejoin: miter"/>
   </g>
   <g id="line2d_9">
    <path d="M 358.74 354.510414 
L 309.290639 398.11576 
" clip-path="url(#p63d8c67ff6)" style="fill: none; stroke: #1f77b4; stroke-width: 1.5; stroke-linecap: square"/>
   </g>
   <g id="line2d_10">
    <path d="M 358.74 354.510414 
L 408.189361 398.11576 
" clip-path="url(#p63d8c67ff6)" style="fill: none; stroke: #ff7f0e; stroke-width: 1.5; stroke-linecap: square"/>
   </g>
   <g id="text_17">
    <!-- O -->
    <g transform="translate(354.999313 350.19557) scale(0.088 -0.088)">
     <use xlink:href="#DejaVuSans-Bold-4f"/>
    </g>
   </g>
   <g id="text_18">
    <!-- H -->
    <g transform="translate(305.608389 408.635723) scale(0.088 -0.088)">
     <use xlink:href="#DejaVuSans-Bold-48"/>
    </g>
   </g>
   <g id="text_19">
    <!-- H -->
    <g transform="translate(404.507111 408.635723) scale(0.088 -0.088)">
     <use xlink:href="#DejaVuSans-Bold-48"/>
    </g>
   </g>
   <g id="patch_28">
    <path d="M 304.078954 415.131757 
Q 312.212473 421.941215 319.274416 427.853539 
" style="fill: none; stroke: #000000; stroke-width: 1.25; stroke-linecap: round"/>
    <path d="M 316.956312 422.521899 
L 319.274416 427.853539 
L 313.618241 426.509039 
z
" style="fill: #1f77b4; stroke: #000000; stroke-width: 1.25; stroke-linecap: round"/>
   </g>
   <g id="patch_29">
    <path d="M 413.401046 415.131757 
Q 405.267527 421.941215 398.205584 427.853539 
" style="fill: none; stroke: #000000; stroke-width: 1.25; stroke-linecap: round"/>
    <path d="M 403.861759 426.509039 
L 398.205584 427.853539 
L 400.523688 422.521899 
z
" style="fill: #1f77b4; stroke: #000000; stroke-width: 1.25; stroke-linecap: round"/>
   </g>
   <g id="patch_30">
    <path d="M 358.74 332.28092 
Q 358.74 323.044876 358.74 315.206375 
" style="fill: none; stroke: #000000; stroke-width: 1.25; stroke-linecap: round"/>
    <path d="M 356.14 320.406375 
L 358.74 315.206375 
L 361.34 320.406375 
z
" style="fill: #1f77b4; stroke: #000000; stroke-width: 1.25; stroke-linecap: round"/>
   </g>
   <g id="text_20">
    <!-- H$_2$O: piegamento -->
    <g transform="translate(308.0775 276.584072) scale(0.105 -0.105)">
     <use xlink:href="#DejaVuSans-Bold-48" transform="translate(0 0.015625)"/>
     <use xlink:href="#DejaVuSans-32" transform="translate(84.648438 -16.390625) scale(0.7)"/>
     <use xlink:href="#DejaVuSans-Bold-4f" transform="translate(131.918945 0.015625)"/>
     <use xlink:href="#DejaVuSans-Bold-3a" transform="translate(216.928711 0.015625)"/>
     <use xlink:href="#DejaVuSans-Bold-20" transform="translate(256.918945 0.015625)"/>
     <use xlink:href="#DejaVuSans-Bold-70" transform="translate(291.733398 0.015625)"/>
     <use xlink:href="#DejaVuSans-Bold-69" transform="translate(363.31543 0.015625)"/>
     <use xlink:href="#DejaVuSans-Bold-65" transform="translate(397.592773 0.015625)"/>
     <use xlink:href="#DejaVuSans-Bold-67" transform="translate(465.415039 0.015625)"/>
     <use xlink:href="#DejaVuSans-Bold-61" transform="translate(536.99707 0.015625)"/>
     <use xlink:href="#DejaVuSans-Bold-6d" transform="translate(604.477539 0.015625)"/>
     <use xlink:href="#DejaVuSans-Bold-65" transform="translate(708.676758 0.015625)"/>
     <use xlink:href="#DejaVuSans-Bold-6e" transform="translate(776.499023 0.015625)"/>
     <use xlink:href="#DejaVuSans-Bold-74" transform="translate(847.69043 0.015625)"/>
     <use xlink:href="#DejaVuSans-Bold-6f" transform="translate(895.493164 0.015625)"/>
    </g>
   </g>
  </g>
  <g id="axes_6">
   <g id="patch_31">
    <path d="M 606.885882 355.859033 
C 609.03183 355.859033 611.090174 355.006439 612.607588 353.489025 
C 614.125002 351.971611 614.977596 349.913267 614.977596 347.76732 
C 614.977596 345.621372 614.125002 343.563028 612.607588 342.045614 
C 611.090174 340.5282 609.03183 339.675606 606.885882 339.675606 
C 604.739935 339.675606 602.681591 340.5282 601.164177 342.045614 
C 599.646763 343.563028 598.794169 345.621372 598.794169 347.76732 
C 598.794169 349.913267 599.646763 351.971611 601.164177 353.489025 
C 602.681591 355.006439 604.739935 355.859033 606.885882 355.859033 
z
" clip-path="url(#p2f3332f131)" style="fill: #1f77b4; opacity: 0.75"/>
   </g>
   <g id="patch_32">
    <path d="M 557.436522 416.097345 
C 560.059346 416.097345 562.5751 415.055286 564.429717 413.200669 
C 566.284335 411.346052 567.326394 408.830298 567.326394 406.207473 
C 567.326394 403.584648 566.284335 401.068895 564.429717 399.214278 
C 562.5751 397.35966 560.059346 396.317601 557.436522 396.317601 
C 554.813697 396.317601 552.297943 397.35966 550.443326 399.214278 
C 548.588709 401.068895 547.54665 403.584648 547.54665 406.207473 
C 547.54665 408.830298 548.588709 411.346052 550.443326 413.200669 
C 552.297943 415.055286 554.813697 416.097345 557.436522 416.097345 
L 557.436522 416.097345 
z
" clip-path="url(#p2f3332f131)" style="fill: none; stroke: #000000; stroke-width: 1.3; stroke-linejoin: miter"/>
   </g>
   <g id="patch_33">
    <path d="M 656.335243 416.097345 
C 658.958068 416.097345 661.473821 415.055286 663.328439 413.200669 
C 665.183056 411.346052 666.225115 408.830298 666.225115 406.207473 
C 666.225115 403.584648 665.183056 401.068895 663.328439 399.214278 
C 661.473821 397.35966 658.958068 396.317601 656.335243 396.317601 
C 653.712418 396.317601 651.196664 397.35966 649.342047 399.214278 
C 647.48743 401.068895 646.445371 403.584648 646.445371 406.207473 
C 646.445371 408.830298 647.48743 411.346052 649.342047 413.200669 
C 651.196664 415.055286 653.712418 416.097345 656.335243 416.097345 
L 656.335243 416.097345 
z
" clip-path="url(#p2f3332f131)" style="fill: none; stroke: #000000; stroke-width: 1.3; stroke-linejoin: miter"/>
   </g>
   <g id="line2d_11">
    <path d="M 606.885882 354.510414 
L 557.436522 398.11576 
" clip-path="url(#p2f3332f131)" style="fill: none; stroke: #1f77b4; stroke-width: 1.5; stroke-linecap: square"/>
   </g>
   <g id="line2d_12">
    <path d="M 606.885882 354.510414 
L 656.335243 398.11576 
" clip-path="url(#p2f3332f131)" style="fill: none; stroke: #ff7f0e; stroke-width: 1.5; stroke-linecap: square"/>
   </g>
   <g id="text_21">
    <!-- O -->
    <g transform="translate(603.145195 350.19557) scale(0.088 -0.088)">
     <use xlink:href="#DejaVuSans-Bold-4f"/>
    </g>
   </g>
   <g id="text_22">
    <!-- H -->
    <g transform="translate(553.754272 408.635723) scale(0.088 -0.088)">
     <use xlink:href="#DejaVuSans-Bold-48"/>
    </g>
   </g>
   <g id="text_23">
    <!-- H -->
    <g transform="translate(652.652993 408.635723) scale(0.088 -0.088)">
     <use xlink:href="#DejaVuSans-Bold-48"/>
    </g>
   </g>
   <g id="patch_34">
    <path d="M 549.330321 415.314986 
Q 541.701684 423.515771 535.024919 430.693293 
" style="fill: none; stroke: #000000; stroke-width: 1.25; stroke-linecap: round"/>
    <path d="M 540.470345 428.656792 
L 535.024919 430.693293 
L 536.662974 425.115052 
z
" style="fill: #1f77b4; stroke: #000000; stroke-width: 1.25; stroke-linecap: round"/>
   </g>
   <g id="patch_35">
    <path d="M 661.663155 412.434464 
Q 654.761095 405.532404 648.847246 399.618556 
" style="fill: none; stroke: #000000; stroke-width: 1.25; stroke-linecap: round"/>
    <path d="M 650.685724 405.133989 
L 648.847246 399.618556 
L 654.362679 401.457033 
z
" style="fill: #1f77b4; stroke: #000000; stroke-width: 1.25; stroke-linecap: round"/>
   </g>
   <g id="patch_36">
    <path d="M 608.850698 333.923891 
Q 619.245721 332.033887 628.265745 330.393883 
" style="fill: none; stroke: #000000; stroke-width: 1.25; stroke-linecap: round"/>
    <path d="M 622.68452 328.766025 
L 628.265745 330.393883 
L 623.614724 333.882149 
z
" style="fill: #1f77b4; stroke: #000000; stroke-width: 1.25; stroke-linecap: round"/>
   </g>
   <g id="text_24">
    <!-- H$_2$O: stiramento antisimmetrico -->
    <g transform="translate(512.648382 276.584072) scale(0.105 -0.105)">
     <use xlink:href="#DejaVuSans-Bold-48" transform="translate(0 0.015625)"/>
     <use xlink:href="#DejaVuSans-32" transform="translate(84.648438 -16.390625) scale(0.7)"/>
     <use xlink:href="#DejaVuSans-Bold-4f" transform="translate(131.918945 0.015625)"/>
     <use xlink:href="#DejaVuSans-Bold-3a" transform="translate(216.928711 0.015625)"/>
     <use xlink:href="#DejaVuSans-Bold-20" transform="translate(256.918945 0.015625)"/>
     <use xlink:href="#DejaVuSans-Bold-73" transform="translate(291.733398 0.015625)"/>
     <use xlink:href="#DejaVuSans-Bold-74" transform="translate(351.254883 0.015625)"/>
     <use xlink:href="#DejaVuSans-Bold-69" transform="translate(399.057617 0.015625)"/>
     <use xlink:href="#DejaVuSans-Bold-72" transform="translate(433.334961 0.015625)"/>
     <use xlink:href="#DejaVuSans-Bold-61" transform="translate(482.651367 0.015625)"/>
     <use xlink:href="#DejaVuSans-Bold-6d" transform="translate(550.131836 0.015625)"/>
     <use xlink:href="#DejaVuSans-Bold-65" transform="translate(654.331055 0.015625)"/>
     <use xlink:href="#DejaVuSans-Bold-6e" transform="translate(722.15332 0.015625)"/>
     <use xlink:href="#DejaVuSans-Bold-74" transform="translate(793.344727 0.015625)"/>
     <use xlink:href="#DejaVuSans-Bold-6f" transform="translate(841.147461 0.015625)"/>
     <use xlink:href="#DejaVuSans-Bold-20" transform="translate(909.848633 0.015625)"/>
     <use xlink:href="#DejaVuSans-Bold-61" transform="translate(944.663086 0.015625)"/>
     <use xlink:href="#DejaVuSans-Bold-6e" transform="translate(1012.143555 0.015625)"/>
     <use xlink:href="#DejaVuSans-Bold-74" transform="translate(1083.334961 0.015625)"/>
     <use xlink:href="#DejaVuSans-Bold-69" transform="translate(1131.137695 0.015625)"/>
     <use xlink:href="#DejaVuSans-Bold-73" transform="translate(1165.415039 0.015625)"/>
     <use xlink:href="#DejaVuSans-Bold-69" transform="translate(1224.936523 0.015625)"/>
     <use xlink:href="#DejaVuSans-Bold-6d" transform="translate(1259.213867 0.015625)"/>
     <use xlink:href="#DejaVuSans-Bold-6d" transform="translate(1363.413086 0.015625)"/>
     <use xlink:href="#DejaVuSans-Bold-65" transform="translate(1467.612305 0.015625)"/>
     <use xlink:href="#DejaVuSans-Bold-74" transform="translate(1535.43457 0.015625)"/>
     <use xlink:href="#DejaVuSans-Bold-72" transform="translate(1583.237305 0.015625)"/>
     <use xlink:href="#DejaVuSans-Bold-69" transform="translate(1632.553711 0.015625)"/>
     <use xlink:href="#DejaVuSans-Bold-63" transform="translate(1666.831055 0.015625)"/>
     <use xlink:href="#DejaVuSans-Bold-6f" transform="translate(1726.108398 0.015625)"/>
    </g>
   </g>
  </g>
  <g id="text_25">
   <!-- Alcuni modi normali di vibrazione in CO$_2$ e H$_2$O -->
   <g transform="translate(150.45 18.597656) scale(0.15 -0.15)">
    <defs>
     <path id="DejaVuSans-Bold-41" d="M 3419 850 
L 1538 850 
L 1241 0 
L 31 0 
L 1759 4666 
L 3194 4666 
L 4922 0 
L 3713 0 
L 3419 850 
z
M 1838 1716 
L 3116 1716 
L 2478 3572 
L 1838 1716 
z
" transform="scale(0.015625)"/>
     <path id="DejaVuSans-Bold-6c" d="M 538 4863 
L 1656 4863 
L 1656 0 
L 538 0 
L 538 4863 
z
" transform="scale(0.015625)"/>
     <path id="DejaVuSans-Bold-75" d="M 500 1363 
L 500 3500 
L 1625 3500 
L 1625 3150 
Q 1625 2866 1622 2436 
Q 1619 2006 1619 1863 
Q 1619 1441 1641 1255 
Q 1663 1069 1716 984 
Q 1784 875 1895 815 
Q 2006 756 2150 756 
Q 2500 756 2700 1025 
Q 2900 1294 2900 1772 
L 2900 3500 
L 4019 3500 
L 4019 0 
L 2900 0 
L 2900 506 
Q 2647 200 2364 54 
Q 2081 -91 1741 -91 
Q 1134 -91 817 281 
Q 500 653 500 1363 
z
" transform="scale(0.015625)"/>
     <path id="DejaVuSans-Bold-64" d="M 2919 2988 
L 2919 4863 
L 4044 4863 
L 4044 0 
L 2919 0 
L 2919 506 
Q 2688 197 2409 53 
Q 2131 -91 1766 -91 
Q 1119 -91 703 423 
Q 288 938 288 1747 
Q 288 2556 703 3070 
Q 1119 3584 1766 3584 
Q 2128 3584 2408 3439 
Q 2688 3294 2919 2988 
z
M 2181 722 
Q 2541 722 2730 984 
Q 2919 1247 2919 1747 
Q 2919 2247 2730 2509 
Q 2541 2772 2181 2772 
Q 1825 2772 1636 2509 
Q 1447 2247 1447 1747 
Q 1447 1247 1636 984 
Q 1825 722 2181 722 
z
" transform="scale(0.015625)"/>
     <path id="DejaVuSans-Bold-76" d="M 97 3500 
L 1216 3500 
L 2088 1081 
L 2956 3500 
L 4078 3500 
L 2700 0 
L 1472 0 
L 97 3500 
z
" transform="scale(0.015625)"/>
     <path id="DejaVuSans-Bold-62" d="M 2400 722 
Q 2759 722 2948 984 
Q 3138 1247 3138 1747 
Q 3138 2247 2948 2509 
Q 2759 2772 2400 2772 
Q 2041 2772 1848 2508 
Q 1656 2244 1656 1747 
Q 1656 1250 1848 986 
Q 2041 722 2400 722 
z
M 1656 2988 
Q 1888 3294 2169 3439 
Q 2450 3584 2816 3584 
Q 3463 3584 3878 3070 
Q 4294 2556 4294 1747 
Q 4294 938 3878 423 
Q 3463 -91 2816 -91 
Q 2450 -91 2169 54 
Q 1888 200 1656 506 
L 1656 0 
L 538 0 
L 538 4863 
L 1656 4863 
L 1656 2988 
z
" transform="scale(0.015625)"/>
     <path id="DejaVuSans-Bold-7a" d="M 366 3500 
L 3419 3500 
L 3419 2719 
L 1575 800 
L 3419 800 
L 3419 0 
L 288 0 
L 288 781 
L 2131 2700 
L 366 2700 
L 366 3500 
z
" transform="scale(0.015625)"/>
    </defs>
    <use xlink:href="#DejaVuSans-Bold-41" transform="translate(0 0.015625)"/>
    <use xlink:href="#DejaVuSans-Bold-6c" transform="translate(77.392578 0.015625)"/>
    <use xlink:href="#DejaVuSans-Bold-63" transform="translate(111.669922 0.015625)"/>
    <use xlink:href="#DejaVuSans-Bold-75" transform="translate(170.947266 0.015625)"/>
    <use xlink:href="#DejaVuSans-Bold-6e" transform="translate(242.138672 0.015625)"/>
    <use xlink:href="#DejaVuSans-Bold-69" transform="translate(313.330078 0.015625)"/>
    <use xlink:href="#DejaVuSans-Bold-20" transform="translate(347.607422 0.015625)"/>
    <use xlink:href="#DejaVuSans-Bold-6d" transform="translate(382.421875 0.015625)"/>
    <use xlink:href="#DejaVuSans-Bold-6f" transform="translate(486.621094 0.015625)"/>
    <use xlink:href="#DejaVuSans-Bold-64" transform="translate(555.322266 0.015625)"/>
    <use xlink:href="#DejaVuSans-Bold-69" transform="translate(626.904297 0.015625)"/>
    <use xlink:href="#DejaVuSans-Bold-20" transform="translate(661.181641 0.015625)"/>
    <use xlink:href="#DejaVuSans-Bold-6e" transform="translate(695.996094 0.015625)"/>
    <use xlink:href="#DejaVuSans-Bold-6f" transform="translate(767.1875 0.015625)"/>
    <use xlink:href="#DejaVuSans-Bold-72" transform="translate(835.888672 0.015625)"/>
    <use xlink:href="#DejaVuSans-Bold-6d" transform="translate(885.205078 0.015625)"/>
    <use xlink:href="#DejaVuSans-Bold-61" transform="translate(989.404297 0.015625)"/>
    <use xlink:href="#DejaVuSans-Bold-6c" transform="translate(1056.884766 0.015625)"/>
    <use xlink:href="#DejaVuSans-Bold-69" transform="translate(1091.162109 0.015625)"/>
    <use xlink:href="#DejaVuSans-Bold-20" transform="translate(1125.439453 0.015625)"/>
    <use xlink:href="#DejaVuSans-Bold-64" transform="translate(1160.253906 0.015625)"/>
    <use xlink:href="#DejaVuSans-Bold-69" transform="translate(1231.835938 0.015625)"/>
    <use xlink:href="#DejaVuSans-Bold-20" transform="translate(1266.113281 0.015625)"/>
    <use xlink:href="#DejaVuSans-Bold-76" transform="translate(1300.927734 0.015625)"/>
    <use xlink:href="#DejaVuSans-Bold-69" transform="translate(1366.113281 0.015625)"/>
    <use xlink:href="#DejaVuSans-Bold-62" transform="translate(1400.390625 0.015625)"/>
    <use xlink:href="#DejaVuSans-Bold-72" transform="translate(1471.972656 0.015625)"/>
    <use xlink:href="#DejaVuSans-Bold-61" transform="translate(1521.289062 0.015625)"/>
    <use xlink:href="#DejaVuSans-Bold-7a" transform="translate(1588.769531 0.015625)"/>
    <use xlink:href="#DejaVuSans-Bold-69" transform="translate(1646.972656 0.015625)"/>
    <use xlink:href="#DejaVuSans-Bold-6f" transform="translate(1681.25 0.015625)"/>
    <use xlink:href="#DejaVuSans-Bold-6e" transform="translate(1749.951172 0.015625)"/>
    <use xlink:href="#DejaVuSans-Bold-65" transform="translate(1821.142578 0.015625)"/>
    <use xlink:href="#DejaVuSans-Bold-20" transform="translate(1888.964844 0.015625)"/>
    <use xlink:href="#DejaVuSans-Bold-69" transform="translate(1923.779297 0.015625)"/>
    <use xlink:href="#DejaVuSans-Bold-6e" transform="translate(1958.056641 0.015625)"/>
    <use xlink:href="#DejaVuSans-Bold-20" transform="translate(2029.248047 0.015625)"/>
    <use xlink:href="#DejaVuSans-Bold-43" transform="translate(2064.0625 0.015625)"/>
    <use xlink:href="#DejaVuSans-Bold-4f" transform="translate(2137.451172 0.015625)"/>
    <use xlink:href="#DejaVuSans-32" transform="translate(2223.417969 -16.390625) scale(0.7)"/>
    <use xlink:href="#DejaVuSans-Bold-20" transform="translate(2270.688477 0.015625)"/>
    <use xlink:href="#DejaVuSans-Bold-65" transform="translate(2305.50293 0.015625)"/>
    <use xlink:href="#DejaVuSans-Bold-20" transform="translate(2373.325195 0.015625)"/>
    <use xlink:href="#DejaVuSans-Bold-48" transform="translate(2408.139648 0.015625)"/>
    <use xlink:href="#DejaVuSans-32" transform="translate(2492.788086 -16.390625) scale(0.7)"/>
    <use xlink:href="#DejaVuSans-Bold-4f" transform="translate(2540.058594 0.015625)"/>
   </g>
  </g>
  <g id="text_26">
   <!-- Le frecce indicano la direzione istantanea dello spostamento atomico. -->
   <g transform="translate(172.177344 503.892) scale(0.1 -0.1)">
    <defs>
     <path id="DejaVuSans-4c" d="M 628 4666 
L 1259 4666 
L 1259 531 
L 3531 531 
L 3531 0 
L 628 0 
L 628 4666 
z
" transform="scale(0.015625)"/>
     <path id="DejaVuSans-65" d="M 3597 1894 
L 3597 1613 
L 953 1613 
Q 991 1019 1311 708 
Q 1631 397 2203 397 
Q 2534 397 2845 478 
Q 3156 559 3463 722 
L 3463 178 
Q 3153 47 2828 -22 
Q 2503 -91 2169 -91 
Q 1331 -91 842 396 
Q 353 884 353 1716 
Q 353 2575 817 3079 
Q 1281 3584 2069 3584 
Q 2775 3584 3186 3129 
Q 3597 2675 3597 1894 
z
M 3022 2063 
Q 3016 2534 2758 2815 
Q 2500 3097 2075 3097 
Q 1594 3097 1305 2825 
Q 1016 2553 972 2059 
L 3022 2063 
z
" transform="scale(0.015625)"/>
     <path id="DejaVuSans-20" transform="scale(0.015625)"/>
     <path id="DejaVuSans-66" d="M 2375 4863 
L 2375 4384 
L 1825 4384 
Q 1516 4384 1395 4259 
Q 1275 4134 1275 3809 
L 1275 3500 
L 2222 3500 
L 2222 3053 
L 1275 3053 
L 1275 0 
L 697 0 
L 697 3053 
L 147 3053 
L 147 3500 
L 697 3500 
L 697 3744 
Q 697 4328 969 4595 
Q 1241 4863 1831 4863 
L 2375 4863 
z
" transform="scale(0.015625)"/>
     <path id="DejaVuSans-72" d="M 2631 2963 
Q 2534 3019 2420 3045 
Q 2306 3072 2169 3072 
Q 1681 3072 1420 2755 
Q 1159 2438 1159 1844 
L 1159 0 
L 581 0 
L 581 3500 
L 1159 3500 
L 1159 2956 
Q 1341 3275 1631 3429 
Q 1922 3584 2338 3584 
Q 2397 3584 2469 3576 
Q 2541 3569 2628 3553 
L 2631 2963 
z
" transform="scale(0.015625)"/>
     <path id="DejaVuSans-63" d="M 3122 3366 
L 3122 2828 
Q 2878 2963 2633 3030 
Q 2388 3097 2138 3097 
Q 1578 3097 1268 2742 
Q 959 2388 959 1747 
Q 959 1106 1268 751 
Q 1578 397 2138 397 
Q 2388 397 2633 464 
Q 2878 531 3122 666 
L 3122 134 
Q 2881 22 2623 -34 
Q 2366 -91 2075 -91 
Q 1284 -91 818 406 
Q 353 903 353 1747 
Q 353 2603 823 3093 
Q 1294 3584 2113 3584 
Q 2378 3584 2631 3529 
Q 2884 3475 3122 3366 
z
" transform="scale(0.015625)"/>
     <path id="DejaVuSans-69" d="M 603 3500 
L 1178 3500 
L 1178 0 
L 603 0 
L 603 3500 
z
M 603 4863 
L 1178 4863 
L 1178 4134 
L 603 4134 
L 603 4863 
z
" transform="scale(0.015625)"/>
     <path id="DejaVuSans-6e" d="M 3513 2113 
L 3513 0 
L 2938 0 
L 2938 2094 
Q 2938 2591 2744 2837 
Q 2550 3084 2163 3084 
Q 1697 3084 1428 2787 
Q 1159 2491 1159 1978 
L 1159 0 
L 581 0 
L 581 3500 
L 1159 3500 
L 1159 2956 
Q 1366 3272 1645 3428 
Q 1925 3584 2291 3584 
Q 2894 3584 3203 3211 
Q 3513 2838 3513 2113 
z
" transform="scale(0.015625)"/>
     <path id="DejaVuSans-64" d="M 2906 2969 
L 2906 4863 
L 3481 4863 
L 3481 0 
L 2906 0 
L 2906 525 
Q 2725 213 2448 61 
Q 2172 -91 1784 -91 
Q 1150 -91 751 415 
Q 353 922 353 1747 
Q 353 2572 751 3078 
Q 1150 3584 1784 3584 
Q 2172 3584 2448 3432 
Q 2725 3281 2906 2969 
z
M 947 1747 
Q 947 1113 1208 752 
Q 1469 391 1925 391 
Q 2381 391 2643 752 
Q 2906 1113 2906 1747 
Q 2906 2381 2643 2742 
Q 2381 3103 1925 3103 
Q 1469 3103 1208 2742 
Q 947 2381 947 1747 
z
" transform="scale(0.015625)"/>
     <path id="DejaVuSans-61" d="M 2194 1759 
Q 1497 1759 1228 1600 
Q 959 1441 959 1056 
Q 959 750 1161 570 
Q 1363 391 1709 391 
Q 2188 391 2477 730 
Q 2766 1069 2766 1631 
L 2766 1759 
L 2194 1759 
z
M 3341 1997 
L 3341 0 
L 2766 0 
L 2766 531 
Q 2569 213 2275 61 
Q 1981 -91 1556 -91 
Q 1019 -91 701 211 
Q 384 513 384 1019 
Q 384 1609 779 1909 
Q 1175 2209 1959 2209 
L 2766 2209 
L 2766 2266 
Q 2766 2663 2505 2880 
Q 2244 3097 1772 3097 
Q 1472 3097 1187 3025 
Q 903 2953 641 2809 
L 641 3341 
Q 956 3463 1253 3523 
Q 1550 3584 1831 3584 
Q 2591 3584 2966 3190 
Q 3341 2797 3341 1997 
z
" transform="scale(0.015625)"/>
     <path id="DejaVuSans-6f" d="M 1959 3097 
Q 1497 3097 1228 2736 
Q 959 2375 959 1747 
Q 959 1119 1226 758 
Q 1494 397 1959 397 
Q 2419 397 2687 759 
Q 2956 1122 2956 1747 
Q 2956 2369 2687 2733 
Q 2419 3097 1959 3097 
z
M 1959 3584 
Q 2709 3584 3137 3096 
Q 3566 2609 3566 1747 
Q 3566 888 3137 398 
Q 2709 -91 1959 -91 
Q 1206 -91 779 398 
Q 353 888 353 1747 
Q 353 2609 779 3096 
Q 1206 3584 1959 3584 
z
" transform="scale(0.015625)"/>
     <path id="DejaVuSans-6c" d="M 603 4863 
L 1178 4863 
L 1178 0 
L 603 0 
L 603 4863 
z
" transform="scale(0.015625)"/>
     <path id="DejaVuSans-7a" d="M 353 3500 
L 3084 3500 
L 3084 2975 
L 922 459 
L 3084 459 
L 3084 0 
L 275 0 
L 275 525 
L 2438 3041 
L 353 3041 
L 353 3500 
z
" transform="scale(0.015625)"/>
     <path id="DejaVuSans-73" d="M 2834 3397 
L 2834 2853 
Q 2591 2978 2328 3040 
Q 2066 3103 1784 3103 
Q 1356 3103 1142 2972 
Q 928 2841 928 2578 
Q 928 2378 1081 2264 
Q 1234 2150 1697 2047 
L 1894 2003 
Q 2506 1872 2764 1633 
Q 3022 1394 3022 966 
Q 3022 478 2636 193 
Q 2250 -91 1575 -91 
Q 1294 -91 989 -36 
Q 684 19 347 128 
L 347 722 
Q 666 556 975 473 
Q 1284 391 1588 391 
Q 1994 391 2212 530 
Q 2431 669 2431 922 
Q 2431 1156 2273 1281 
Q 2116 1406 1581 1522 
L 1381 1569 
Q 847 1681 609 1914 
Q 372 2147 372 2553 
Q 372 3047 722 3315 
Q 1072 3584 1716 3584 
Q 2034 3584 2315 3537 
Q 2597 3491 2834 3397 
z
" transform="scale(0.015625)"/>
     <path id="DejaVuSans-74" d="M 1172 4494 
L 1172 3500 
L 2356 3500 
L 2356 3053 
L 1172 3053 
L 1172 1153 
Q 1172 725 1289 603 
Q 1406 481 1766 481 
L 2356 481 
L 2356 0 
L 1766 0 
Q 1100 0 847 248 
Q 594 497 594 1153 
L 594 3053 
L 172 3053 
L 172 3500 
L 594 3500 
L 594 4494 
L 1172 4494 
z
" transform="scale(0.015625)"/>
     <path id="DejaVuSans-70" d="M 1159 525 
L 1159 -1331 
L 581 -1331 
L 581 3500 
L 1159 3500 
L 1159 2969 
Q 1341 3281 1617 3432 
Q 1894 3584 2278 3584 
Q 2916 3584 3314 3078 
Q 3713 2572 3713 1747 
Q 3713 922 3314 415 
Q 2916 -91 2278 -91 
Q 1894 -91 1617 61 
Q 1341 213 1159 525 
z
M 3116 1747 
Q 3116 2381 2855 2742 
Q 2594 3103 2138 3103 
Q 1681 3103 1420 2742 
Q 1159 2381 1159 1747 
Q 1159 1113 1420 752 
Q 1681 391 2138 391 
Q 2594 391 2855 752 
Q 3116 1113 3116 1747 
z
" transform="scale(0.015625)"/>
     <path id="DejaVuSans-6d" d="M 3328 2828 
Q 3544 3216 3844 3400 
Q 4144 3584 4550 3584 
Q 5097 3584 5394 3201 
Q 5691 2819 5691 2113 
L 5691 0 
L 5113 0 
L 5113 2094 
Q 5113 2597 4934 2840 
Q 4756 3084 4391 3084 
Q 3944 3084 3684 2787 
Q 3425 2491 3425 1978 
L 3425 0 
L 2847 0 
L 2847 2094 
Q 2847 2600 2669 2842 
Q 2491 3084 2119 3084 
Q 1678 3084 1418 2786 
Q 1159 2488 1159 1978 
L 1159 0 
L 581 0 
L 581 3500 
L 1159 3500 
L 1159 2956 
Q 1356 3278 1631 3431 
Q 1906 3584 2284 3584 
Q 2666 3584 2933 3390 
Q 3200 3197 3328 2828 
z
" transform="scale(0.015625)"/>
     <path id="DejaVuSans-2e" d="M 684 794 
L 1344 794 
L 1344 0 
L 684 0 
L 684 794 
z
" transform="scale(0.015625)"/>
    </defs>
    <use xlink:href="#DejaVuSans-4c"/>
    <use xlink:href="#DejaVuSans-65" transform="translate(53.962891 0)"/>
    <use xlink:href="#DejaVuSans-20" transform="translate(115.486328 0)"/>
    <use xlink:href="#DejaVuSans-66" transform="translate(147.273438 0)"/>
    <use xlink:href="#DejaVuSans-72" transform="translate(182.478516 0)"/>
    <use xlink:href="#DejaVuSans-65" transform="translate(221.341797 0)"/>
    <use xlink:href="#DejaVuSans-63" transform="translate(282.865234 0)"/>
    <use xlink:href="#DejaVuSans-63" transform="translate(337.845703 0)"/>
    <use xlink:href="#DejaVuSans-65" transform="translate(392.826172 0)"/>
    <use xlink:href="#DejaVuSans-20" transform="translate(454.349609 0)"/>
    <use xlink:href="#DejaVuSans-69" transform="translate(486.136719 0)"/>
    <use xlink:href="#DejaVuSans-6e" transform="translate(513.919922 0)"/>
    <use xlink:href="#DejaVuSans-64" transform="translate(577.298828 0)"/>
    <use xlink:href="#DejaVuSans-69" transform="translate(640.775391 0)"/>
    <use xlink:href="#DejaVuSans-63" transform="translate(668.558594 0)"/>
    <use xlink:href="#DejaVuSans-61" transform="translate(723.539062 0)"/>
    <use xlink:href="#DejaVuSans-6e" transform="translate(784.818359 0)"/>
    <use xlink:href="#DejaVuSans-6f" transform="translate(848.197266 0)"/>
    <use xlink:href="#DejaVuSans-20" transform="translate(909.378906 0)"/>
    <use xlink:href="#DejaVuSans-6c" transform="translate(941.166016 0)"/>
    <use xlink:href="#DejaVuSans-61" transform="translate(968.949219 0)"/>
    <use xlink:href="#DejaVuSans-20" transform="translate(1030.228516 0)"/>
    <use xlink:href="#DejaVuSans-64" transform="translate(1062.015625 0)"/>
    <use xlink:href="#DejaVuSans-69" transform="translate(1125.492188 0)"/>
    <use xlink:href="#DejaVuSans-72" transform="translate(1153.275391 0)"/>
    <use xlink:href="#DejaVuSans-65" transform="translate(1192.138672 0)"/>
    <use xlink:href="#DejaVuSans-7a" transform="translate(1253.662109 0)"/>
    <use xlink:href="#DejaVuSans-69" transform="translate(1306.152344 0)"/>
    <use xlink:href="#DejaVuSans-6f" transform="translate(1333.935547 0)"/>
    <use xlink:href="#DejaVuSans-6e" transform="translate(1395.117188 0)"/>
    <use xlink:href="#DejaVuSans-65" transform="translate(1458.496094 0)"/>
    <use xlink:href="#DejaVuSans-20" transform="translate(1520.019531 0)"/>
    <use xlink:href="#DejaVuSans-69" transform="translate(1551.806641 0)"/>
    <use xlink:href="#DejaVuSans-73" transform="translate(1579.589844 0)"/>
    <use xlink:href="#DejaVuSans-74" transform="translate(1631.689453 0)"/>
    <use xlink:href="#DejaVuSans-61" transform="translate(1670.898438 0)"/>
    <use xlink:href="#DejaVuSans-6e" transform="translate(1732.177734 0)"/>
    <use xlink:href="#DejaVuSans-74" transform="translate(1795.556641 0)"/>
    <use xlink:href="#DejaVuSans-61" transform="translate(1834.765625 0)"/>
    <use xlink:href="#DejaVuSans-6e" transform="translate(1896.044922 0)"/>
    <use xlink:href="#DejaVuSans-65" transform="translate(1959.423828 0)"/>
    <use xlink:href="#DejaVuSans-61" transform="translate(2020.947266 0)"/>
    <use xlink:href="#DejaVuSans-20" transform="translate(2082.226562 0)"/>
    <use xlink:href="#DejaVuSans-64" transform="translate(2114.013672 0)"/>
    <use xlink:href="#DejaVuSans-65" transform="translate(2177.490234 0)"/>
    <use xlink:href="#DejaVuSans-6c" transform="translate(2239.013672 0)"/>
    <use xlink:href="#DejaVuSans-6c" transform="translate(2266.796875 0)"/>
    <use xlink:href="#DejaVuSans-6f" transform="translate(2294.580078 0)"/>
    <use xlink:href="#DejaVuSans-20" transform="translate(2355.761719 0)"/>
    <use xlink:href="#DejaVuSans-73" transform="translate(2387.548828 0)"/>
    <use xlink:href="#DejaVuSans-70" transform="translate(2439.648438 0)"/>
    <use xlink:href="#DejaVuSans-6f" transform="translate(2503.125 0)"/>
    <use xlink:href="#DejaVuSans-73" transform="translate(2564.306641 0)"/>
    <use xlink:href="#DejaVuSans-74" transform="translate(2616.40625 0)"/>
    <use xlink:href="#DejaVuSans-61" transform="translate(2655.615234 0)"/>
    <use xlink:href="#DejaVuSans-6d" transform="translate(2716.894531 0)"/>
    <use xlink:href="#DejaVuSans-65" transform="translate(2814.306641 0)"/>
    <use xlink:href="#DejaVuSans-6e" transform="translate(2875.830078 0)"/>
    <use xlink:href="#DejaVuSans-74" transform="translate(2939.208984 0)"/>
    <use xlink:href="#DejaVuSans-6f" transform="translate(2978.417969 0)"/>
    <use xlink:href="#DejaVuSans-20" transform="translate(3039.599609 0)"/>
    <use xlink:href="#DejaVuSans-61" transform="translate(3071.386719 0)"/>
    <use xlink:href="#DejaVuSans-74" transform="translate(3132.666016 0)"/>
    <use xlink:href="#DejaVuSans-6f" transform="translate(3171.875 0)"/>
    <use xlink:href="#DejaVuSans-6d" transform="translate(3233.056641 0)"/>
    <use xlink:href="#DejaVuSans-69" transform="translate(3330.46875 0)"/>
    <use xlink:href="#DejaVuSans-63" transform="translate(3358.251953 0)"/>
    <use xlink:href="#DejaVuSans-6f" transform="translate(3413.232422 0)"/>
    <use xlink:href="#DejaVuSans-2e" transform="translate(3472.664062 0)"/>
   </g>
  </g>
 </g>
 <defs>
  <clipPath id="p15ef450751">
   <rect x="7.2" y="61.832072" width="206.788235" height="179.815857"/>
  </clipPath>
  <clipPath id="p29ec5ed6de">
   <rect x="255.345882" y="61.832072" width="206.788235" height="179.815857"/>
  </clipPath>
  <clipPath id="p1e3297fe2a">
   <rect x="503.491765" y="61.832072" width="206.788235" height="179.815857"/>
  </clipPath>
  <clipPath id="p284fe319ed">
   <rect x="7.2" y="282.584072" width="206.788235" height="179.815857"/>
  </clipPath>
  <clipPath id="p63d8c67ff6">
   <rect x="255.345882" y="282.584072" width="206.788235" height="179.815857"/>
  </clipPath>
  <clipPath id="p2f3332f131">
   <rect x="503.491765" y="282.584072" width="206.788235" height="179.815857"/>
  </clipPath>
 </defs>
</svg>
