<?xml version="1.0" encoding="utf-8" standalone="no"?>
<!DOCTYPE svg PUBLIC "-//W3C//DTD SVG 1.1//EN"
  "http://www.w3.org/Graphics/SVG/1.1/DTD/svg11.dtd">
<svg xmlns:xlink="http://www.w3.org/1999/xlink" width="653.038125pt" height="446.173344pt" viewBox="0 0 653.038125 446.173344" xmlns="http://www.w3.org/2000/svg" version="1.1">
 <metadata>
  <rdf:RDF xmlns:dc="http://purl.org/dc/elements/1.1/" xmlns:cc="http://creativecommons.org/ns#" xmlns:rdf="http://www.w3.org/1999/02/22-rdf-syntax-ns#">
   <cc:Work>
    <dc:type rdf:resource="http://purl.org/dc/dcmitype/StillImage"/>
    <dc:date>2026-06-16T10:27:05.659811</dc:date>
    <dc:format>image/svg+xml</dc:format>
    <dc:creator>
     <cc:Agent>
      <dc:title>Matplotlib v3.10.8, https://matplotlib.org/</dc:title>
     </cc:Agent>
    </dc:creator>
   </cc:Work>
  </rdf:RDF>
 </metadata>
 <defs>
  <style type="text/css">*{stroke-linejoin: round; stroke-linecap: butt}</style>
 </defs>
 <g id="figure_1">
  <g id="patch_1">
   <path d="M 0 446.173344 
L 653.038125 446.173344 
L 653.038125 0 
L 0 0 
z
" style="fill: #ffffff"/>
  </g>
  <g id="axes_1">
   <g id="patch_2">
    <path d="M 20.878125 396.501656 
L 645.838125 396.501656 
L 645.838125 30.597656 
L 20.878125 30.597656 
z
" style="fill: #ffffff"/>
   </g>
   <g id="matplotlib.axis_1">
    <g id="xtick_1">
     <g id="line2d_1">
      <path d="M 96.630852 396.501656 
L 96.630852 30.597656 
" clip-path="url(#p9ecc6d63ee)" style="fill: none; stroke: #b0b0b0; stroke-opacity: 0.14; stroke-width: 0.8; stroke-linecap: square"/>
     </g>
     <g id="line2d_2">
      <defs>
       <path id="mf631d4ef3b" d="M 0 0 
L 0 3.5 
" style="stroke: #000000; stroke-width: 0.8"/>
      </defs>
      <g>
       <use xlink:href="#mf631d4ef3b" x="96.630852" y="396.501656" style="stroke: #000000; stroke-width: 0.8"/>
      </g>
     </g>
     <g id="text_1">
      <!-- $2B$ -->
      <g transform="translate(89.980852 411.100094) scale(0.1 -0.1)">
       <defs>
        <path id="DejaVuSans-32" d="M 1228 531 
L 3431 531 
L 3431 0 
L 469 0 
L 469 531 
Q 828 903 1448 1529 
Q 2069 2156 2228 2338 
Q 2531 2678 2651 2914 
Q 2772 3150 2772 3378 
Q 2772 3750 2511 3984 
Q 2250 4219 1831 4219 
Q 1534 4219 1204 4116 
Q 875 4013 500 3803 
L 500 4441 
Q 881 4594 1212 4672 
Q 1544 4750 1819 4750 
Q 2544 4750 2975 4387 
Q 3406 4025 3406 3419 
Q 3406 3131 3298 2873 
Q 3191 2616 2906 2266 
Q 2828 2175 2409 1742 
Q 1991 1309 1228 531 
z
" transform="scale(0.015625)"/>
        <path id="DejaVuSans-Oblique-42" d="M 1081 4666 
L 2694 4666 
Q 3350 4666 3675 4422 
Q 4000 4178 4000 3688 
Q 4000 3238 3720 2911 
Q 3441 2584 2988 2516 
Q 3375 2428 3569 2181 
Q 3763 1934 3763 1522 
Q 3763 819 3242 409 
Q 2722 0 1819 0 
L 172 0 
L 1081 4666 
z
M 1234 2228 
L 903 519 
L 1919 519 
Q 2491 519 2800 781 
Q 3109 1044 3109 1522 
Q 3109 1891 2904 2059 
Q 2700 2228 2247 2228 
L 1234 2228 
z
M 1606 4147 
L 1331 2741 
L 2272 2741 
Q 2775 2741 3058 2959 
Q 3341 3178 3341 3566 
Q 3341 3869 3150 4008 
Q 2959 4147 2541 4147 
L 1606 4147 
z
" transform="scale(0.015625)"/>
       </defs>
       <use xlink:href="#DejaVuSans-32" transform="translate(0 0.78125)"/>
       <use xlink:href="#DejaVuSans-Oblique-42" transform="translate(63.623047 0.78125)"/>
      </g>
     </g>
    </g>
    <g id="xtick_2">
     <g id="line2d_3">
      <path d="M 191.321761 396.501656 
L 191.321761 30.597656 
" clip-path="url(#p9ecc6d63ee)" style="fill: none; stroke: #b0b0b0; stroke-opacity: 0.14; stroke-width: 0.8; stroke-linecap: square"/>
     </g>
     <g id="line2d_4">
      <g>
       <use xlink:href="#mf631d4ef3b" x="191.321761" y="396.501656" style="stroke: #000000; stroke-width: 0.8"/>
      </g>
     </g>
     <g id="text_2">
      <!-- $4B$ -->
      <g transform="translate(184.671761 411.100094) scale(0.1 -0.1)">
       <defs>
        <path id="DejaVuSans-34" d="M 2419 4116 
L 825 1625 
L 2419 1625 
L 2419 4116 
z
M 2253 4666 
L 3047 4666 
L 3047 1625 
L 3713 1625 
L 3713 1100 
L 3047 1100 
L 3047 0 
L 2419 0 
L 2419 1100 
L 313 1100 
L 313 1709 
L 2253 4666 
z
" transform="scale(0.015625)"/>
       </defs>
       <use xlink:href="#DejaVuSans-34" transform="translate(0 0.09375)"/>
       <use xlink:href="#DejaVuSans-Oblique-42" transform="translate(63.623047 0.09375)"/>
      </g>
     </g>
    </g>
    <g id="xtick_3">
     <g id="line2d_5">
      <path d="M 286.01267 396.501656 
L 286.01267 30.597656 
" clip-path="url(#p9ecc6d63ee)" style="fill: none; stroke: #b0b0b0; stroke-opacity: 0.14; stroke-width: 0.8; stroke-linecap: square"/>
     </g>
     <g id="line2d_6">
      <g>
       <use xlink:href="#mf631d4ef3b" x="286.01267" y="396.501656" style="stroke: #000000; stroke-width: 0.8"/>
      </g>
     </g>
     <g id="text_3">
      <!-- $6B$ -->
      <g transform="translate(279.36267 411.100094) scale(0.1 -0.1)">
       <defs>
        <path id="DejaVuSans-36" d="M 2113 2584 
Q 1688 2584 1439 2293 
Q 1191 2003 1191 1497 
Q 1191 994 1439 701 
Q 1688 409 2113 409 
Q 2538 409 2786 701 
Q 3034 994 3034 1497 
Q 3034 2003 2786 2293 
Q 2538 2584 2113 2584 
z
M 3366 4563 
L 3366 3988 
Q 3128 4100 2886 4159 
Q 2644 4219 2406 4219 
Q 1781 4219 1451 3797 
Q 1122 3375 1075 2522 
Q 1259 2794 1537 2939 
Q 1816 3084 2150 3084 
Q 2853 3084 3261 2657 
Q 3669 2231 3669 1497 
Q 3669 778 3244 343 
Q 2819 -91 2113 -91 
Q 1303 -91 875 529 
Q 447 1150 447 2328 
Q 447 3434 972 4092 
Q 1497 4750 2381 4750 
Q 2619 4750 2861 4703 
Q 3103 4656 3366 4563 
z
" transform="scale(0.015625)"/>
       </defs>
       <use xlink:href="#DejaVuSans-36" transform="translate(0 0.78125)"/>
       <use xlink:href="#DejaVuSans-Oblique-42" transform="translate(63.623047 0.78125)"/>
      </g>
     </g>
    </g>
    <g id="xtick_4">
     <g id="line2d_7">
      <path d="M 380.70358 396.501656 
L 380.70358 30.597656 
" clip-path="url(#p9ecc6d63ee)" style="fill: none; stroke: #b0b0b0; stroke-opacity: 0.14; stroke-width: 0.8; stroke-linecap: square"/>
     </g>
     <g id="line2d_8">
      <g>
       <use xlink:href="#mf631d4ef3b" x="380.70358" y="396.501656" style="stroke: #000000; stroke-width: 0.8"/>
      </g>
     </g>
     <g id="text_4">
      <!-- $8B$ -->
      <g transform="translate(374.05358 411.100094) scale(0.1 -0.1)">
       <defs>
        <path id="DejaVuSans-38" d="M 2034 2216 
Q 1584 2216 1326 1975 
Q 1069 1734 1069 1313 
Q 1069 891 1326 650 
Q 1584 409 2034 409 
Q 2484 409 2743 651 
Q 3003 894 3003 1313 
Q 3003 1734 2745 1975 
Q 2488 2216 2034 2216 
z
M 1403 2484 
Q 997 2584 770 2862 
Q 544 3141 544 3541 
Q 544 4100 942 4425 
Q 1341 4750 2034 4750 
Q 2731 4750 3128 4425 
Q 3525 4100 3525 3541 
Q 3525 3141 3298 2862 
Q 3072 2584 2669 2484 
Q 3125 2378 3379 2068 
Q 3634 1759 3634 1313 
Q 3634 634 3220 271 
Q 2806 -91 2034 -91 
Q 1263 -91 848 271 
Q 434 634 434 1313 
Q 434 1759 690 2068 
Q 947 2378 1403 2484 
z
M 1172 3481 
Q 1172 3119 1398 2916 
Q 1625 2713 2034 2713 
Q 2441 2713 2670 2916 
Q 2900 3119 2900 3481 
Q 2900 3844 2670 4047 
Q 2441 4250 2034 4250 
Q 1625 4250 1398 4047 
Q 1172 3844 1172 3481 
z
" transform="scale(0.015625)"/>
       </defs>
       <use xlink:href="#DejaVuSans-38" transform="translate(0 0.78125)"/>
       <use xlink:href="#DejaVuSans-Oblique-42" transform="translate(63.623047 0.78125)"/>
      </g>
     </g>
    </g>
    <g id="xtick_5">
     <g id="line2d_9">
      <path d="M 475.394489 396.501656 
L 475.394489 30.597656 
" clip-path="url(#p9ecc6d63ee)" style="fill: none; stroke: #b0b0b0; stroke-opacity: 0.14; stroke-width: 0.8; stroke-linecap: square"/>
     </g>
     <g id="line2d_10">
      <g>
       <use xlink:href="#mf631d4ef3b" x="475.394489" y="396.501656" style="stroke: #000000; stroke-width: 0.8"/>
      </g>
     </g>
     <g id="text_5">
      <!-- $10B$ -->
      <g transform="translate(465.594489 411.100094) scale(0.1 -0.1)">
       <defs>
        <path id="DejaVuSans-31" d="M 794 531 
L 1825 531 
L 1825 4091 
L 703 3866 
L 703 4441 
L 1819 4666 
L 2450 4666 
L 2450 531 
L 3481 531 
L 3481 0 
L 794 0 
L 794 531 
z
" transform="scale(0.015625)"/>
        <path id="DejaVuSans-30" d="M 2034 4250 
Q 1547 4250 1301 3770 
Q 1056 3291 1056 2328 
Q 1056 1369 1301 889 
Q 1547 409 2034 409 
Q 2525 409 2770 889 
Q 3016 1369 3016 2328 
Q 3016 3291 2770 3770 
Q 2525 4250 2034 4250 
z
M 2034 4750 
Q 2819 4750 3233 4129 
Q 3647 3509 3647 2328 
Q 3647 1150 3233 529 
Q 2819 -91 2034 -91 
Q 1250 -91 836 529 
Q 422 1150 422 2328 
Q 422 3509 836 4129 
Q 1250 4750 2034 4750 
z
" transform="scale(0.015625)"/>
       </defs>
       <use xlink:href="#DejaVuSans-31" transform="translate(0 0.78125)"/>
       <use xlink:href="#DejaVuSans-30" transform="translate(63.623047 0.78125)"/>
       <use xlink:href="#DejaVuSans-Oblique-42" transform="translate(127.246094 0.78125)"/>
      </g>
     </g>
    </g>
    <g id="xtick_6">
     <g id="line2d_11">
      <path d="M 570.085398 396.501656 
L 570.085398 30.597656 
" clip-path="url(#p9ecc6d63ee)" style="fill: none; stroke: #b0b0b0; stroke-opacity: 0.14; stroke-width: 0.8; stroke-linecap: square"/>
     </g>
     <g id="line2d_12">
      <g>
       <use xlink:href="#mf631d4ef3b" x="570.085398" y="396.501656" style="stroke: #000000; stroke-width: 0.8"/>
      </g>
     </g>
     <g id="text_6">
      <!-- $12B$ -->
      <g transform="translate(560.285398 411.100094) scale(0.1 -0.1)">
       <use xlink:href="#DejaVuSans-31" transform="translate(0 0.78125)"/>
       <use xlink:href="#DejaVuSans-32" transform="translate(63.623047 0.78125)"/>
       <use xlink:href="#DejaVuSans-Oblique-42" transform="translate(127.246094 0.78125)"/>
      </g>
     </g>
    </g>
    <g id="text_7">
     <!-- numero d'onda $\tilde{\nu}$, unità di $B$ -->
     <g transform="translate(263.858125 424.778219) scale(0.1 -0.1)">
      <defs>
       <path id="DejaVuSans-6e" d="M 3513 2113 
L 3513 0 
L 2938 0 
L 2938 2094 
Q 2938 2591 2744 2837 
Q 2550 3084 2163 3084 
Q 1697 3084 1428 2787 
Q 1159 2491 1159 1978 
L 1159 0 
L 581 0 
L 581 3500 
L 1159 3500 
L 1159 2956 
Q 1366 3272 1645 3428 
Q 1925 3584 2291 3584 
Q 2894 3584 3203 3211 
Q 3513 2838 3513 2113 
z
" transform="scale(0.015625)"/>
       <path id="DejaVuSans-75" d="M 544 1381 
L 544 3500 
L 1119 3500 
L 1119 1403 
Q 1119 906 1312 657 
Q 1506 409 1894 409 
Q 2359 409 2629 706 
Q 2900 1003 2900 1516 
L 2900 3500 
L 3475 3500 
L 3475 0 
L 2900 0 
L 2900 538 
Q 2691 219 2414 64 
Q 2138 -91 1772 -91 
Q 1169 -91 856 284 
Q 544 659 544 1381 
z
M 1991 3584 
L 1991 3584 
z
" transform="scale(0.015625)"/>
       <path id="DejaVuSans-6d" d="M 3328 2828 
Q 3544 3216 3844 3400 
Q 4144 3584 4550 3584 
Q 5097 3584 5394 3201 
Q 5691 2819 5691 2113 
L 5691 0 
L 5113 0 
L 5113 2094 
Q 5113 2597 4934 2840 
Q 4756 3084 4391 3084 
Q 3944 3084 3684 2787 
Q 3425 2491 3425 1978 
L 3425 0 
L 2847 0 
L 2847 2094 
Q 2847 2600 2669 2842 
Q 2491 3084 2119 3084 
Q 1678 3084 1418 2786 
Q 1159 2488 1159 1978 
L 1159 0 
L 581 0 
L 581 3500 
L 1159 3500 
L 1159 2956 
Q 1356 3278 1631 3431 
Q 1906 3584 2284 3584 
Q 2666 3584 2933 3390 
Q 3200 3197 3328 2828 
z
" transform="scale(0.015625)"/>
       <path id="DejaVuSans-65" d="M 3597 1894 
L 3597 1613 
L 953 1613 
Q 991 1019 1311 708 
Q 1631 397 2203 397 
Q 2534 397 2845 478 
Q 3156 559 3463 722 
L 3463 178 
Q 3153 47 2828 -22 
Q 2503 -91 2169 -91 
Q 1331 -91 842 396 
Q 353 884 353 1716 
Q 353 2575 817 3079 
Q 1281 3584 2069 3584 
Q 2775 3584 3186 3129 
Q 3597 2675 3597 1894 
z
M 3022 2063 
Q 3016 2534 2758 2815 
Q 2500 3097 2075 3097 
Q 1594 3097 1305 2825 
Q 1016 2553 972 2059 
L 3022 2063 
z
" transform="scale(0.015625)"/>
       <path id="DejaVuSans-72" d="M 2631 2963 
Q 2534 3019 2420 3045 
Q 2306 3072 2169 3072 
Q 1681 3072 1420 2755 
Q 1159 2438 1159 1844 
L 1159 0 
L 581 0 
L 581 3500 
L 1159 3500 
L 1159 2956 
Q 1341 3275 1631 3429 
Q 1922 3584 2338 3584 
Q 2397 3584 2469 3576 
Q 2541 3569 2628 3553 
L 2631 2963 
z
" transform="scale(0.015625)"/>
       <path id="DejaVuSans-6f" d="M 1959 3097 
Q 1497 3097 1228 2736 
Q 959 2375 959 1747 
Q 959 1119 1226 758 
Q 1494 397 1959 397 
Q 2419 397 2687 759 
Q 2956 1122 2956 1747 
Q 2956 2369 2687 2733 
Q 2419 3097 1959 3097 
z
M 1959 3584 
Q 2709 3584 3137 3096 
Q 3566 2609 3566 1747 
Q 3566 888 3137 398 
Q 2709 -91 1959 -91 
Q 1206 -91 779 398 
Q 353 888 353 1747 
Q 353 2609 779 3096 
Q 1206 3584 1959 3584 
z
" transform="scale(0.015625)"/>
       <path id="DejaVuSans-20" transform="scale(0.015625)"/>
       <path id="DejaVuSans-64" d="M 2906 2969 
L 2906 4863 
L 3481 4863 
L 3481 0 
L 2906 0 
L 2906 525 
Q 2725 213 2448 61 
Q 2172 -91 1784 -91 
Q 1150 -91 751 415 
Q 353 922 353 1747 
Q 353 2572 751 3078 
Q 1150 3584 1784 3584 
Q 2172 3584 2448 3432 
Q 2725 3281 2906 2969 
z
M 947 1747 
Q 947 1113 1208 752 
Q 1469 391 1925 391 
Q 2381 391 2643 752 
Q 2906 1113 2906 1747 
Q 2906 2381 2643 2742 
Q 2381 3103 1925 3103 
Q 1469 3103 1208 2742 
Q 947 2381 947 1747 
z
" transform="scale(0.015625)"/>
       <path id="DejaVuSans-27" d="M 1147 4666 
L 1147 2931 
L 616 2931 
L 616 4666 
L 1147 4666 
z
" transform="scale(0.015625)"/>
       <path id="DejaVuSans-61" d="M 2194 1759 
Q 1497 1759 1228 1600 
Q 959 1441 959 1056 
Q 959 750 1161 570 
Q 1363 391 1709 391 
Q 2188 391 2477 730 
Q 2766 1069 2766 1631 
L 2766 1759 
L 2194 1759 
z
M 3341 1997 
L 3341 0 
L 2766 0 
L 2766 531 
Q 2569 213 2275 61 
Q 1981 -91 1556 -91 
Q 1019 -91 701 211 
Q 384 513 384 1019 
Q 384 1609 779 1909 
Q 1175 2209 1959 2209 
L 2766 2209 
L 2766 2266 
Q 2766 2663 2505 2880 
Q 2244 3097 1772 3097 
Q 1472 3097 1187 3025 
Q 903 2953 641 2809 
L 641 3341 
Q 956 3463 1253 3523 
Q 1550 3584 1831 3584 
Q 2591 3584 2966 3190 
Q 3341 2797 3341 1997 
z
" transform="scale(0.015625)"/>
       <path id="DejaVuSans-303" d="M -1621 4281 
L -1799 4453 
Q -1867 4516 -1919 4545 
Q -1971 4575 -2011 4575 
Q -2130 4575 -2186 4461 
Q -2242 4347 -2249 4091 
L -2639 4091 
Q -2633 4513 -2473 4742 
Q -2314 4972 -2030 4972 
Q -1911 4972 -1811 4928 
Q -1711 4884 -1596 4781 
L -1417 4609 
Q -1349 4547 -1297 4517 
Q -1246 4488 -1205 4488 
Q -1086 4488 -1030 4602 
Q -974 4716 -967 4972 
L -577 4972 
Q -583 4550 -742 4320 
Q -902 4091 -1186 4091 
Q -1305 4091 -1405 4134 
Q -1505 4178 -1621 4281 
z
" transform="scale(0.015625)"/>
       <path id="DejaVuSans-Oblique-3bd" d="M 959 0 
L 572 3500 
L 1191 3500 
L 1522 563 
Q 1972 950 2391 1488 
Q 2706 1891 2788 2241 
Q 2825 2406 2809 2719 
Q 2794 3091 2544 3500 
L 3125 3500 
L 3125 3500 
Q 3288 3222 3353 2834 
Q 3416 2478 3369 2234 
Q 3250 1622 2719 1075 
Q 2025 363 1572 0 
L 959 0 
z
" transform="scale(0.015625)"/>
       <path id="DejaVuSans-2c" d="M 750 794 
L 1409 794 
L 1409 256 
L 897 -744 
L 494 -744 
L 750 256 
L 750 794 
z
" transform="scale(0.015625)"/>
       <path id="DejaVuSans-69" d="M 603 3500 
L 1178 3500 
L 1178 0 
L 603 0 
L 603 3500 
z
M 603 4863 
L 1178 4863 
L 1178 4134 
L 603 4134 
L 603 4863 
z
" transform="scale(0.015625)"/>
       <path id="DejaVuSans-74" d="M 1172 4494 
L 1172 3500 
L 2356 3500 
L 2356 3053 
L 1172 3053 
L 1172 1153 
Q 1172 725 1289 603 
Q 1406 481 1766 481 
L 2356 481 
L 2356 0 
L 1766 0 
Q 1100 0 847 248 
Q 594 497 594 1153 
L 594 3053 
L 172 3053 
L 172 3500 
L 594 3500 
L 594 4494 
L 1172 4494 
z
" transform="scale(0.015625)"/>
       <path id="DejaVuSans-e0" d="M 2194 1759 
Q 1497 1759 1228 1600 
Q 959 1441 959 1056 
Q 959 750 1161 570 
Q 1363 391 1709 391 
Q 2188 391 2477 730 
Q 2766 1069 2766 1631 
L 2766 1759 
L 2194 1759 
z
M 3341 1997 
L 3341 0 
L 2766 0 
L 2766 531 
Q 2569 213 2275 61 
Q 1981 -91 1556 -91 
Q 1019 -91 701 211 
Q 384 513 384 1019 
Q 384 1609 779 1909 
Q 1175 2209 1959 2209 
L 2766 2209 
L 2766 2266 
Q 2766 2663 2505 2880 
Q 2244 3097 1772 3097 
Q 1472 3097 1187 3025 
Q 903 2953 641 2809 
L 641 3341 
Q 956 3463 1253 3523 
Q 1550 3584 1831 3584 
Q 2591 3584 2966 3190 
Q 3341 2797 3341 1997 
z
M 1403 5119 
L 2284 3950 
L 1806 3950 
L 787 5119 
L 1403 5119 
z
" transform="scale(0.015625)"/>
      </defs>
      <use xlink:href="#DejaVuSans-6e" transform="translate(0 0.046875)"/>
      <use xlink:href="#DejaVuSans-75" transform="translate(63.378906 0.046875)"/>
      <use xlink:href="#DejaVuSans-6d" transform="translate(126.757812 0.046875)"/>
      <use xlink:href="#DejaVuSans-65" transform="translate(224.169922 0.046875)"/>
      <use xlink:href="#DejaVuSans-72" transform="translate(285.693359 0.046875)"/>
      <use xlink:href="#DejaVuSans-6f" transform="translate(326.806641 0.046875)"/>
      <use xlink:href="#DejaVuSans-20" transform="translate(387.988281 0.046875)"/>
      <use xlink:href="#DejaVuSans-64" transform="translate(419.775391 0.046875)"/>
      <use xlink:href="#DejaVuSans-27" transform="translate(483.251953 0.046875)"/>
      <use xlink:href="#DejaVuSans-6f" transform="translate(510.742188 0.046875)"/>
      <use xlink:href="#DejaVuSans-6e" transform="translate(571.923828 0.046875)"/>
      <use xlink:href="#DejaVuSans-64" transform="translate(635.302734 0.046875)"/>
      <use xlink:href="#DejaVuSans-61" transform="translate(698.779297 0.046875)"/>
      <use xlink:href="#DejaVuSans-20" transform="translate(760.058594 0.046875)"/>
      <use xlink:href="#DejaVuSans-303" transform="translate(852.044922 3.3125)"/>
      <use xlink:href="#DejaVuSans-Oblique-3bd" transform="translate(791.845703 0.046875)"/>
      <use xlink:href="#DejaVuSans-2c" transform="translate(847.705078 0.046875)"/>
      <use xlink:href="#DejaVuSans-20" transform="translate(879.492188 0.046875)"/>
      <use xlink:href="#DejaVuSans-75" transform="translate(911.279297 0.046875)"/>
      <use xlink:href="#DejaVuSans-6e" transform="translate(974.658203 0.046875)"/>
      <use xlink:href="#DejaVuSans-69" transform="translate(1038.037109 0.046875)"/>
      <use xlink:href="#DejaVuSans-74" transform="translate(1065.820312 0.046875)"/>
      <use xlink:href="#DejaVuSans-e0" transform="translate(1105.029297 0.046875)"/>
      <use xlink:href="#DejaVuSans-20" transform="translate(1166.308594 0.046875)"/>
      <use xlink:href="#DejaVuSans-64" transform="translate(1198.095703 0.046875)"/>
      <use xlink:href="#DejaVuSans-69" transform="translate(1261.572266 0.046875)"/>
      <use xlink:href="#DejaVuSans-20" transform="translate(1289.355469 0.046875)"/>
      <use xlink:href="#DejaVuSans-Oblique-42" transform="translate(1321.142578 0.046875)"/>
     </g>
    </g>
   </g>
   <g id="matplotlib.axis_2">
    <g id="text_8">
     <!-- intensità, unità arbitrarie -->
     <g transform="translate(14.798438 276.132469) rotate(-90) scale(0.1 -0.1)">
      <defs>
       <path id="DejaVuSans-73" d="M 2834 3397 
L 2834 2853 
Q 2591 2978 2328 3040 
Q 2066 3103 1784 3103 
Q 1356 3103 1142 2972 
Q 928 2841 928 2578 
Q 928 2378 1081 2264 
Q 1234 2150 1697 2047 
L 1894 2003 
Q 2506 1872 2764 1633 
Q 3022 1394 3022 966 
Q 3022 478 2636 193 
Q 2250 -91 1575 -91 
Q 1294 -91 989 -36 
Q 684 19 347 128 
L 347 722 
Q 666 556 975 473 
Q 1284 391 1588 391 
Q 1994 391 2212 530 
Q 2431 669 2431 922 
Q 2431 1156 2273 1281 
Q 2116 1406 1581 1522 
L 1381 1569 
Q 847 1681 609 1914 
Q 372 2147 372 2553 
Q 372 3047 722 3315 
Q 1072 3584 1716 3584 
Q 2034 3584 2315 3537 
Q 2597 3491 2834 3397 
z
" transform="scale(0.015625)"/>
       <path id="DejaVuSans-62" d="M 3116 1747 
Q 3116 2381 2855 2742 
Q 2594 3103 2138 3103 
Q 1681 3103 1420 2742 
Q 1159 2381 1159 1747 
Q 1159 1113 1420 752 
Q 1681 391 2138 391 
Q 2594 391 2855 752 
Q 3116 1113 3116 1747 
z
M 1159 2969 
Q 1341 3281 1617 3432 
Q 1894 3584 2278 3584 
Q 2916 3584 3314 3078 
Q 3713 2572 3713 1747 
Q 3713 922 3314 415 
Q 2916 -91 2278 -91 
Q 1894 -91 1617 61 
Q 1341 213 1159 525 
L 1159 0 
L 581 0 
L 581 4863 
L 1159 4863 
L 1159 2969 
z
" transform="scale(0.015625)"/>
      </defs>
      <use xlink:href="#DejaVuSans-69"/>
      <use xlink:href="#DejaVuSans-6e" transform="translate(27.783203 0)"/>
      <use xlink:href="#DejaVuSans-74" transform="translate(91.162109 0)"/>
      <use xlink:href="#DejaVuSans-65" transform="translate(130.371094 0)"/>
      <use xlink:href="#DejaVuSans-6e" transform="translate(191.894531 0)"/>
      <use xlink:href="#DejaVuSans-73" transform="translate(255.273438 0)"/>
      <use xlink:href="#DejaVuSans-69" transform="translate(307.373047 0)"/>
      <use xlink:href="#DejaVuSans-74" transform="translate(335.15625 0)"/>
      <use xlink:href="#DejaVuSans-e0" transform="translate(374.365234 0)"/>
      <use xlink:href="#DejaVuSans-2c" transform="translate(435.644531 0)"/>
      <use xlink:href="#DejaVuSans-20" transform="translate(467.431641 0)"/>
      <use xlink:href="#DejaVuSans-75" transform="translate(499.21875 0)"/>
      <use xlink:href="#DejaVuSans-6e" transform="translate(562.597656 0)"/>
      <use xlink:href="#DejaVuSans-69" transform="translate(625.976562 0)"/>
      <use xlink:href="#DejaVuSans-74" transform="translate(653.759766 0)"/>
      <use xlink:href="#DejaVuSans-e0" transform="translate(692.96875 0)"/>
      <use xlink:href="#DejaVuSans-20" transform="translate(754.248047 0)"/>
      <use xlink:href="#DejaVuSans-61" transform="translate(786.035156 0)"/>
      <use xlink:href="#DejaVuSans-72" transform="translate(847.314453 0)"/>
      <use xlink:href="#DejaVuSans-62" transform="translate(888.427734 0)"/>
      <use xlink:href="#DejaVuSans-69" transform="translate(951.904297 0)"/>
      <use xlink:href="#DejaVuSans-74" transform="translate(979.6875 0)"/>
      <use xlink:href="#DejaVuSans-72" transform="translate(1018.896484 0)"/>
      <use xlink:href="#DejaVuSans-61" transform="translate(1060.009766 0)"/>
      <use xlink:href="#DejaVuSans-72" transform="translate(1121.289062 0)"/>
      <use xlink:href="#DejaVuSans-69" transform="translate(1162.402344 0)"/>
      <use xlink:href="#DejaVuSans-65" transform="translate(1190.185547 0)"/>
     </g>
    </g>
   </g>
   <g id="line2d_13">
    <path d="M 96.630852 396.501656 
L 96.630852 30.597656 
" clip-path="url(#p9ecc6d63ee)" style="fill: none; stroke-dasharray: 2.405,1.04; stroke-dashoffset: 0; stroke: #1f77b4; stroke-width: 0.65"/>
   </g>
   <g id="line2d_14">
    <path d="M 191.321761 396.501656 
L 191.321761 30.597656 
" clip-path="url(#p9ecc6d63ee)" style="fill: none; stroke-dasharray: 2.405,1.04; stroke-dashoffset: 0; stroke: #1f77b4; stroke-width: 0.65"/>
   </g>
   <g id="line2d_15">
    <path d="M 286.01267 396.501656 
L 286.01267 30.597656 
" clip-path="url(#p9ecc6d63ee)" style="fill: none; stroke-dasharray: 2.405,1.04; stroke-dashoffset: 0; stroke: #1f77b4; stroke-width: 0.65"/>
   </g>
   <g id="line2d_16">
    <path d="M 380.70358 396.501656 
L 380.70358 30.597656 
" clip-path="url(#p9ecc6d63ee)" style="fill: none; stroke-dasharray: 2.405,1.04; stroke-dashoffset: 0; stroke: #1f77b4; stroke-width: 0.65"/>
   </g>
   <g id="line2d_17">
    <path d="M 475.394489 396.501656 
L 475.394489 30.597656 
" clip-path="url(#p9ecc6d63ee)" style="fill: none; stroke-dasharray: 2.405,1.04; stroke-dashoffset: 0; stroke: #1f77b4; stroke-width: 0.65"/>
   </g>
   <g id="line2d_18">
    <path d="M 570.085398 396.501656 
L 570.085398 30.597656 
" clip-path="url(#p9ecc6d63ee)" style="fill: none; stroke-dasharray: 2.405,1.04; stroke-dashoffset: 0; stroke: #1f77b4; stroke-width: 0.65"/>
   </g>
   <g id="line2d_19">
    <path d="M 20.878125 396.501656 
L 69.644512 396.391346 
L 72.145352 396.163038 
L 73.89594 395.80581 
L 75.396444 395.265222 
L 76.646864 394.564331 
L 77.647201 393.780785 
L 78.647537 392.746395 
L 79.647873 391.408358 
L 80.648209 389.712984 
L 81.648545 387.609698 
L 82.648881 385.056104 
L 83.899301 381.189508 
L 85.149722 376.567293 
L 86.650226 370.110276 
L 88.650898 360.407612 
L 91.651907 345.849647 
L 92.902327 340.809057 
L 93.902663 337.584974 
L 94.652915 335.744286 
L 95.403167 334.457666 
L 95.903335 333.926742 
L 96.403503 333.665805 
L 96.903671 333.678255 
L 97.403839 333.96393 
L 97.904007 334.519108 
L 98.654259 335.840527 
L 99.404512 337.713257 
L 100.404848 340.974351 
L 101.655268 346.049993 
L 103.405856 354.359934 
L 107.157117 372.561829 
L 108.657621 378.675201 
L 109.908041 382.97049 
L 111.158461 386.506898 
L 112.408881 389.317492 
L 113.409217 391.092375 
L 114.409554 392.499172 
L 115.40989 393.591297 
L 116.66031 394.5948 
L 117.91073 395.285873 
L 119.411234 395.818245 
L 121.161822 396.169551 
L 123.412579 396.380248 
L 127.413923 396.485339 
L 142.669049 396.501655 
L 162.175604 396.395643 
L 164.676444 396.144109 
L 166.176949 395.79794 
L 167.427369 395.300956 
L 168.427705 394.696377 
L 169.428041 393.834301 
L 170.428377 392.628686 
L 171.428713 390.975359 
L 172.429049 388.752558 
L 173.429386 385.823535 
L 174.429722 382.041755 
L 175.430058 377.259107 
L 176.430394 371.33725 
L 177.43073 364.16184 
L 178.68115 353.322284 
L 179.93157 340.399189 
L 181.432075 322.403228 
L 183.682831 292.005554 
L 186.183671 258.459039 
L 187.434091 244.194597 
L 188.434428 234.929821 
L 189.18468 229.534919 
L 189.934932 225.644043 
L 190.4351 223.942784 
L 190.935268 222.982691 
L 191.185352 222.784869 
L 191.435436 222.776263 
L 191.68552 222.956901 
L 192.185688 223.882934 
L 192.685856 225.550911 
L 193.186024 227.93922 
L 193.936276 232.802831 
L 194.686528 239.077855 
L 195.686864 249.334707 
L 196.937285 264.49819 
L 199.188041 295.166317 
L 201.688881 328.391426 
L 203.189386 345.572839 
L 204.439806 357.709864 
L 205.690226 367.748669 
L 206.940646 375.76241 
L 207.940982 380.842762 
L 208.941318 384.882997 
L 209.941654 388.029816 
L 210.941991 390.431131 
L 211.942327 392.226996 
L 212.942663 393.543618 
L 213.942999 394.490098 
L 214.943335 395.157381 
L 216.193755 395.709094 
L 217.694259 396.096085 
L 219.694932 396.345483 
L 222.946024 396.473113 
L 232.199133 396.501574 
L 256.207201 396.394773 
L 258.457957 396.172468 
L 259.958461 395.838164 
L 261.208881 395.346932 
L 262.209217 394.737761 
L 263.209554 393.853802 
L 264.20989 392.595567 
L 264.960142 391.332635 
L 265.710394 389.728135 
L 266.460646 387.712226 
L 267.460982 384.24997 
L 268.461318 379.719113 
L 269.461654 373.910083 
L 270.461991 366.616056 
L 271.462327 357.65047 
L 272.462663 346.868329 
L 273.713083 330.723008 
L 274.963503 311.668942 
L 276.464007 285.451868 
L 279.214932 232.186293 
L 281.215604 195.380158 
L 282.466024 176.240392 
L 283.46636 164.226919 
L 284.216612 157.539049 
L 284.966864 153.058263 
L 285.467033 151.363981 
L 285.717117 150.91424 
L 285.967201 150.731677 
L 286.217285 150.81689 
L 286.467369 151.169599 
L 286.967537 152.672034 
L 287.467705 155.21943 
L 288.217957 160.92422 
L 288.968209 168.739208 
L 289.968545 182.054573 
L 291.218965 202.427436 
L 292.969554 235.290542 
L 296.47073 301.731756 
L 297.971234 325.806615 
L 299.221654 342.760796 
L 300.472075 356.747078 
L 301.472411 365.872621 
L 302.472747 373.311361 
L 303.473083 379.24701 
L 304.473419 383.885339 
L 305.473755 387.436277 
L 306.474091 390.100387 
L 307.474428 392.059713 
L 308.474764 393.472604 
L 309.4751 394.47179 
L 310.475436 395.164893 
L 311.725856 395.727838 
L 313.22636 396.114291 
L 315.227033 396.356805 
L 318.478125 396.476415 
L 328.481486 396.501619 
L 350.738965 396.393959 
L 352.989722 396.167882 
L 354.490226 395.826116 
L 355.740646 395.321879 
L 356.740982 394.694485 
L 357.741318 393.781303 
L 358.741654 392.477469 
L 359.491907 391.165262 
L 360.242159 389.494243 
L 360.992411 387.389785 
L 361.992747 383.765232 
L 362.993083 379.006643 
L 363.993419 372.885576 
L 364.993755 365.173983 
L 365.994091 355.66264 
L 366.994428 344.183889 
L 368.244848 326.924482 
L 369.495268 306.458389 
L 370.995772 278.139502 
L 373.246528 230.769865 
L 375.747369 179.293288 
L 376.997789 157.79627 
L 377.998125 144.07751 
L 378.748377 136.268584 
L 379.498629 130.836771 
L 379.998797 128.616507 
L 380.498965 127.552726 
L 380.749049 127.459444 
L 380.999133 127.659294 
L 381.249217 128.151621 
L 381.749386 130.006336 
L 382.249554 132.999475 
L 382.999806 139.535328 
L 383.750058 148.355075 
L 384.750394 163.232218 
L 386.000814 185.811153 
L 388.001486 227.344089 
L 391.002495 289.728494 
L 392.502999 316.520463 
L 393.753419 335.490455 
L 395.003839 351.212092 
L 396.254259 363.786155 
L 397.254596 371.770862 
L 398.254932 378.129956 
L 399.255268 383.089845 
L 400.255604 386.879945 
L 401.25594 389.71831 
L 402.256276 391.802039 
L 403.256612 393.301967 
L 404.256949 394.360838 
L 405.257285 395.094058 
L 406.507705 395.688447 
L 408.008209 396.095539 
L 410.008881 396.350273 
L 413.00989 396.471428 
L 421.762831 396.501544 
L 445.520814 396.397066 
L 447.77157 396.178665 
L 449.272075 395.849492 
L 450.522495 395.364958 
L 451.522831 394.763232 
L 452.523167 393.888933 
L 453.523503 392.642807 
L 454.273755 391.390593 
L 455.024007 389.798109 
L 455.774259 387.795264 
L 456.774596 384.351281 
L 457.774932 379.83809 
L 458.775268 374.043556 
L 459.775604 366.757279 
L 460.77594 357.788058 
L 461.776276 346.985264 
L 463.026696 330.780379 
L 464.277117 311.61687 
L 465.777621 285.185356 
L 468.278461 236.21123 
L 470.529217 193.755696 
L 471.779638 174.131099 
L 472.779974 161.723608 
L 473.530226 154.748181 
L 474.280478 149.995348 
L 474.780646 148.132144 
L 475.03073 147.602502 
L 475.280814 147.34343 
L 475.530898 147.355773 
L 475.780982 147.639491 
L 476.28115 149.016463 
L 476.781318 151.456421 
L 477.281486 154.927759 
L 478.031738 161.967728 
L 478.781991 171.025084 
L 479.782327 185.799394 
L 481.032747 207.602901 
L 483.283503 251.618659 
L 485.784343 299.218299 
L 487.284848 323.802125 
L 488.535268 341.154831 
L 489.785688 355.498179 
L 490.786024 364.87282 
L 491.78636 372.525888 
L 492.786696 378.64136 
L 493.787033 383.426961 
L 494.787369 387.095736 
L 495.787705 389.852022 
L 496.788041 391.881879 
L 497.788377 393.347587 
L 498.788713 394.385498 
L 499.789049 395.106407 
L 501.03947 395.692781 
L 502.539974 396.096019 
L 504.540646 396.349611 
L 507.791738 396.475058 
L 517.545016 396.501609 
L 540.552747 396.400442 
L 543.053587 396.154495 
L 544.554091 395.811441 
L 545.804512 395.314032 
L 546.804848 394.703967 
L 547.805184 393.827559 
L 548.80552 392.592648 
L 549.805856 390.886231 
L 550.806192 388.574351 
L 551.806528 385.504124 
L 552.806864 381.508545 
L 553.807201 376.414658 
L 554.807537 370.055343 
L 555.807873 362.28465 
L 557.058293 350.429525 
L 558.308713 336.134398 
L 559.809217 315.960566 
L 561.80989 285.209124 
L 565.060982 234.288541 
L 566.311402 217.969244 
L 567.311738 207.484117 
L 568.061991 201.462879 
L 568.812243 197.214231 
L 569.312411 195.429212 
L 569.812579 194.510703 
L 570.062663 194.380576 
L 570.312747 194.470673 
L 570.562831 194.7807 
L 571.062999 196.05578 
L 571.563167 198.189228 
L 572.313419 202.9356 
L 573.063671 209.412531 
L 574.064007 220.419865 
L 575.314428 237.226878 
L 577.065016 264.28903 
L 580.316108 315.303545 
L 581.816612 335.569544 
L 583.067033 349.952333 
L 584.317453 361.895976 
L 585.567873 371.466618 
L 586.568209 377.554279 
L 587.568545 382.409523 
L 588.568881 386.201799 
L 589.569217 389.103689 
L 590.569554 391.279854 
L 591.56989 392.879599 
L 592.570226 394.03268 
L 593.570562 394.847771 
L 594.570898 395.412925 
L 595.821318 395.87173 
L 597.321822 396.186509 
L 599.572579 396.398047 
L 603.573923 396.490125 
L 623.080478 396.501656 
L 645.838125 396.501656 
L 645.838125 396.501656 
" clip-path="url(#p9ecc6d63ee)" style="fill: none; stroke: #1f77b4; stroke-width: 2.4; stroke-linecap: square"/>
   </g>
   <g id="patch_3">
    <path d="M 20.878125 396.501656 
L 20.878125 30.597656 
" style="fill: none; stroke: #000000; stroke-width: 0.8; stroke-linejoin: miter; stroke-linecap: square"/>
   </g>
   <g id="patch_4">
    <path d="M 645.838125 396.501656 
L 645.838125 30.597656 
" style="fill: none; stroke: #000000; stroke-width: 0.8; stroke-linejoin: miter; stroke-linecap: square"/>
   </g>
   <g id="patch_5">
    <path d="M 20.878125 396.501656 
L 645.838125 396.501656 
" style="fill: none; stroke: #000000; stroke-width: 0.8; stroke-linejoin: miter; stroke-linecap: square"/>
   </g>
   <g id="patch_6">
    <path d="M 20.878125 30.597656 
L 645.838125 30.597656 
" style="fill: none; stroke: #000000; stroke-width: 0.8; stroke-linejoin: miter; stroke-linecap: square"/>
   </g>
   <g id="text_9">
    <!-- $0\leftrightarrow1$ -->
    <g transform="translate(84.755852 306.732794) scale(0.095 -0.095)">
     <defs>
      <path id="DejaVuSans-2194" d="M 313 1866 
L 313 2147 
L 1541 3375 
L 1916 3000 
L 1188 2272 
L 4175 2272 
L 3447 3000 
L 3822 3375 
L 5050 2147 
L 5050 1866 
L 3822 638 
L 3447 1013 
L 4175 1741 
L 1188 1741 
L 1916 1013 
L 1541 638 
L 313 1866 
z
" transform="scale(0.015625)"/>
     </defs>
     <use xlink:href="#DejaVuSans-30" transform="translate(0 0.78125)"/>
     <use xlink:href="#DejaVuSans-2194" transform="translate(83.105469 0.78125)"/>
     <use xlink:href="#DejaVuSans-31" transform="translate(186.376953 0.78125)"/>
    </g>
   </g>
   <g id="text_10">
    <!-- $1\leftrightarrow2$ -->
    <g transform="translate(179.446761 195.851996) scale(0.095 -0.095)">
     <use xlink:href="#DejaVuSans-31" transform="translate(0 0.78125)"/>
     <use xlink:href="#DejaVuSans-2194" transform="translate(83.105469 0.78125)"/>
     <use xlink:href="#DejaVuSans-32" transform="translate(186.376953 0.78125)"/>
    </g>
   </g>
   <g id="text_11">
    <!-- $2\leftrightarrow3$ -->
    <g transform="translate(274.13767 123.822544) scale(0.095 -0.095)">
     <defs>
      <path id="DejaVuSans-33" d="M 2597 2516 
Q 3050 2419 3304 2112 
Q 3559 1806 3559 1356 
Q 3559 666 3084 287 
Q 2609 -91 1734 -91 
Q 1441 -91 1130 -33 
Q 819 25 488 141 
L 488 750 
Q 750 597 1062 519 
Q 1375 441 1716 441 
Q 2309 441 2620 675 
Q 2931 909 2931 1356 
Q 2931 1769 2642 2001 
Q 2353 2234 1838 2234 
L 1294 2234 
L 1294 2753 
L 1863 2753 
Q 2328 2753 2575 2939 
Q 2822 3125 2822 3475 
Q 2822 3834 2567 4026 
Q 2313 4219 1838 4219 
Q 1578 4219 1281 4162 
Q 984 4106 628 3988 
L 628 4550 
Q 988 4650 1302 4700 
Q 1616 4750 1894 4750 
Q 2613 4750 3031 4423 
Q 3450 4097 3450 3541 
Q 3450 3153 3228 2886 
Q 3006 2619 2597 2516 
z
" transform="scale(0.015625)"/>
     </defs>
     <use xlink:href="#DejaVuSans-32" transform="translate(0 0.78125)"/>
     <use xlink:href="#DejaVuSans-2194" transform="translate(83.105469 0.78125)"/>
     <use xlink:href="#DejaVuSans-33" transform="translate(186.376953 0.78125)"/>
    </g>
   </g>
   <g id="text_12">
    <!-- $3\leftrightarrow4$ -->
    <g transform="translate(368.82858 100.549892) scale(0.095 -0.095)">
     <use xlink:href="#DejaVuSans-33" transform="translate(0 0.78125)"/>
     <use xlink:href="#DejaVuSans-2194" transform="translate(83.105469 0.78125)"/>
     <use xlink:href="#DejaVuSans-34" transform="translate(186.376953 0.78125)"/>
    </g>
   </g>
   <g id="text_13">
    <!-- $4\leftrightarrow5$ -->
    <g transform="translate(463.519489 120.41067) scale(0.095 -0.095)">
     <defs>
      <path id="DejaVuSans-35" d="M 691 4666 
L 3169 4666 
L 3169 4134 
L 1269 4134 
L 1269 2991 
Q 1406 3038 1543 3061 
Q 1681 3084 1819 3084 
Q 2600 3084 3056 2656 
Q 3513 2228 3513 1497 
Q 3513 744 3044 326 
Q 2575 -91 1722 -91 
Q 1428 -91 1123 -41 
Q 819 9 494 109 
L 494 744 
Q 775 591 1075 516 
Q 1375 441 1709 441 
Q 2250 441 2565 725 
Q 2881 1009 2881 1497 
Q 2881 1984 2565 2268 
Q 2250 2553 1709 2553 
Q 1456 2553 1204 2497 
Q 953 2441 691 2322 
L 691 4666 
z
" transform="scale(0.015625)"/>
     </defs>
     <use xlink:href="#DejaVuSans-34" transform="translate(0 0.09375)"/>
     <use xlink:href="#DejaVuSans-2194" transform="translate(83.105469 0.09375)"/>
     <use xlink:href="#DejaVuSans-35" transform="translate(186.376953 0.09375)"/>
    </g>
   </g>
   <g id="text_14">
    <!-- $5\leftrightarrow6$ -->
    <g transform="translate(558.210398 167.47496) scale(0.095 -0.095)">
     <use xlink:href="#DejaVuSans-35" transform="translate(0 0.78125)"/>
     <use xlink:href="#DejaVuSans-2194" transform="translate(83.105469 0.78125)"/>
     <use xlink:href="#DejaVuSans-36" transform="translate(186.376953 0.78125)"/>
    </g>
   </g>
   <g id="patch_7">
    <path d="M 99.751474 79.026127 
Q 143.977683 79.026127 188.203891 79.026127 
" style="fill: none; stroke: #000000; stroke-linecap: round"/>
    <path d="M 103.751474 81.026127 
L 99.751474 79.026127 
L 103.751474 77.026127 
" style="fill: none; stroke: #000000; stroke-linecap: round"/>
    <path d="M 184.203891 77.026127 
L 188.203891 79.026127 
L 184.203891 81.026127 
" style="fill: none; stroke: #000000; stroke-linecap: round"/>
   </g>
   <g id="text_15">
    <!-- $2B$ -->
    <g transform="translate(137.658807 65.573774) scale(0.095 -0.095)">
     <use xlink:href="#DejaVuSans-32" transform="translate(0 0.78125)"/>
     <use xlink:href="#DejaVuSans-Oblique-42" transform="translate(63.623047 0.78125)"/>
    </g>
   </g>
   <g id="patch_8">
    <path d="M 194.442383 79.026127 
Q 238.668592 79.026127 282.8948 79.026127 
" style="fill: none; stroke: #000000; stroke-linecap: round"/>
    <path d="M 198.442383 81.026127 
L 194.442383 79.026127 
L 198.442383 77.026127 
" style="fill: none; stroke: #000000; stroke-linecap: round"/>
    <path d="M 278.8948 77.026127 
L 282.8948 79.026127 
L 278.8948 81.026127 
" style="fill: none; stroke: #000000; stroke-linecap: round"/>
   </g>
   <g id="text_16">
    <!-- $2B$ -->
    <g transform="translate(232.349716 65.573774) scale(0.095 -0.095)">
     <use xlink:href="#DejaVuSans-32" transform="translate(0 0.78125)"/>
     <use xlink:href="#DejaVuSans-Oblique-42" transform="translate(63.623047 0.78125)"/>
    </g>
   </g>
   <g id="patch_9">
    <path d="M 289.133292 79.026127 
Q 333.359501 79.026127 377.585709 79.026127 
" style="fill: none; stroke: #000000; stroke-linecap: round"/>
    <path d="M 293.133292 81.026127 
L 289.133292 79.026127 
L 293.133292 77.026127 
" style="fill: none; stroke: #000000; stroke-linecap: round"/>
    <path d="M 373.585709 77.026127 
L 377.585709 79.026127 
L 373.585709 81.026127 
" style="fill: none; stroke: #000000; stroke-linecap: round"/>
   </g>
   <g id="text_17">
    <!-- $2B$ -->
    <g transform="translate(327.040625 65.573774) scale(0.095 -0.095)">
     <use xlink:href="#DejaVuSans-32" transform="translate(0 0.78125)"/>
     <use xlink:href="#DejaVuSans-Oblique-42" transform="translate(63.623047 0.78125)"/>
    </g>
   </g>
   <g id="patch_10">
    <path d="M 383.824201 79.026127 
Q 428.05041 79.026127 472.276618 79.026127 
" style="fill: none; stroke: #000000; stroke-linecap: round"/>
    <path d="M 387.824201 81.026127 
L 383.824201 79.026127 
L 387.824201 77.026127 
" style="fill: none; stroke: #000000; stroke-linecap: round"/>
    <path d="M 468.276618 77.026127 
L 472.276618 79.026127 
L 468.276618 81.026127 
" style="fill: none; stroke: #000000; stroke-linecap: round"/>
   </g>
   <g id="text_18">
    <!-- $2B$ -->
    <g transform="translate(421.731534 65.573774) scale(0.095 -0.095)">
     <use xlink:href="#DejaVuSans-32" transform="translate(0 0.78125)"/>
     <use xlink:href="#DejaVuSans-Oblique-42" transform="translate(63.623047 0.78125)"/>
    </g>
   </g>
   <g id="patch_11">
    <path d="M 478.515111 79.026127 
Q 522.741319 79.026127 566.967527 79.026127 
" style="fill: none; stroke: #000000; stroke-linecap: round"/>
    <path d="M 482.515111 81.026127 
L 478.515111 79.026127 
L 482.515111 77.026127 
" style="fill: none; stroke: #000000; stroke-linecap: round"/>
    <path d="M 562.967527 77.026127 
L 566.967527 79.026127 
L 562.967527 81.026127 
" style="fill: none; stroke: #000000; stroke-linecap: round"/>
   </g>
   <g id="text_19">
    <!-- $2B$ -->
    <g transform="translate(516.422443 65.573774) scale(0.095 -0.095)">
     <use xlink:href="#DejaVuSans-32" transform="translate(0 0.78125)"/>
     <use xlink:href="#DejaVuSans-Oblique-42" transform="translate(63.623047 0.78125)"/>
    </g>
   </g>
   <g id="text_20">
    <!-- Spettro rotazionale schematico di una molecola biatomica polare -->
    <g transform="translate(57.484688 18.597656) scale(0.15 -0.15)">
     <defs>
      <path id="DejaVuSans-Bold-53" d="M 3834 4519 
L 3834 3531 
Q 3450 3703 3084 3790 
Q 2719 3878 2394 3878 
Q 1963 3878 1756 3759 
Q 1550 3641 1550 3391 
Q 1550 3203 1689 3098 
Q 1828 2994 2194 2919 
L 2706 2816 
Q 3484 2659 3812 2340 
Q 4141 2022 4141 1434 
Q 4141 663 3683 286 
Q 3225 -91 2284 -91 
Q 1841 -91 1394 -6 
Q 947 78 500 244 
L 500 1259 
Q 947 1022 1364 901 
Q 1781 781 2169 781 
Q 2563 781 2772 912 
Q 2981 1044 2981 1288 
Q 2981 1506 2839 1625 
Q 2697 1744 2272 1838 
L 1806 1941 
Q 1106 2091 782 2419 
Q 459 2747 459 3303 
Q 459 4000 909 4375 
Q 1359 4750 2203 4750 
Q 2588 4750 2994 4692 
Q 3400 4634 3834 4519 
z
" transform="scale(0.015625)"/>
      <path id="DejaVuSans-Bold-70" d="M 1656 506 
L 1656 -1331 
L 538 -1331 
L 538 3500 
L 1656 3500 
L 1656 2988 
Q 1888 3294 2169 3439 
Q 2450 3584 2816 3584 
Q 3463 3584 3878 3070 
Q 4294 2556 4294 1747 
Q 4294 938 3878 423 
Q 3463 -91 2816 -91 
Q 2450 -91 2169 54 
Q 1888 200 1656 506 
z
M 2400 2772 
Q 2041 2772 1848 2508 
Q 1656 2244 1656 1747 
Q 1656 1250 1848 986 
Q 2041 722 2400 722 
Q 2759 722 2948 984 
Q 3138 1247 3138 1747 
Q 3138 2247 2948 2509 
Q 2759 2772 2400 2772 
z
" transform="scale(0.015625)"/>
      <path id="DejaVuSans-Bold-65" d="M 4031 1759 
L 4031 1441 
L 1416 1441 
Q 1456 1047 1700 850 
Q 1944 653 2381 653 
Q 2734 653 3104 758 
Q 3475 863 3866 1075 
L 3866 213 
Q 3469 63 3072 -14 
Q 2675 -91 2278 -91 
Q 1328 -91 801 392 
Q 275 875 275 1747 
Q 275 2603 792 3093 
Q 1309 3584 2216 3584 
Q 3041 3584 3536 3087 
Q 4031 2591 4031 1759 
z
M 2881 2131 
Q 2881 2450 2695 2645 
Q 2509 2841 2209 2841 
Q 1884 2841 1681 2658 
Q 1478 2475 1428 2131 
L 2881 2131 
z
" transform="scale(0.015625)"/>
      <path id="DejaVuSans-Bold-74" d="M 1759 4494 
L 1759 3500 
L 2913 3500 
L 2913 2700 
L 1759 2700 
L 1759 1216 
Q 1759 972 1856 886 
Q 1953 800 2241 800 
L 2816 800 
L 2816 0 
L 1856 0 
Q 1194 0 917 276 
Q 641 553 641 1216 
L 641 2700 
L 84 2700 
L 84 3500 
L 641 3500 
L 641 4494 
L 1759 4494 
z
" transform="scale(0.015625)"/>
      <path id="DejaVuSans-Bold-72" d="M 3138 2547 
Q 2991 2616 2845 2648 
Q 2700 2681 2553 2681 
Q 2122 2681 1889 2404 
Q 1656 2128 1656 1613 
L 1656 0 
L 538 0 
L 538 3500 
L 1656 3500 
L 1656 2925 
Q 1872 3269 2151 3426 
Q 2431 3584 2822 3584 
Q 2878 3584 2943 3579 
Q 3009 3575 3134 3559 
L 3138 2547 
z
" transform="scale(0.015625)"/>
      <path id="DejaVuSans-Bold-6f" d="M 2203 2784 
Q 1831 2784 1636 2517 
Q 1441 2250 1441 1747 
Q 1441 1244 1636 976 
Q 1831 709 2203 709 
Q 2569 709 2762 976 
Q 2956 1244 2956 1747 
Q 2956 2250 2762 2517 
Q 2569 2784 2203 2784 
z
M 2203 3584 
Q 3106 3584 3614 3096 
Q 4122 2609 4122 1747 
Q 4122 884 3614 396 
Q 3106 -91 2203 -91 
Q 1297 -91 786 396 
Q 275 884 275 1747 
Q 275 2609 786 3096 
Q 1297 3584 2203 3584 
z
" transform="scale(0.015625)"/>
      <path id="DejaVuSans-Bold-20" transform="scale(0.015625)"/>
      <path id="DejaVuSans-Bold-61" d="M 2106 1575 
Q 1756 1575 1579 1456 
Q 1403 1338 1403 1106 
Q 1403 894 1545 773 
Q 1688 653 1941 653 
Q 2256 653 2472 879 
Q 2688 1106 2688 1447 
L 2688 1575 
L 2106 1575 
z
M 3816 1997 
L 3816 0 
L 2688 0 
L 2688 519 
Q 2463 200 2181 54 
Q 1900 -91 1497 -91 
Q 953 -91 614 226 
Q 275 544 275 1050 
Q 275 1666 698 1953 
Q 1122 2241 2028 2241 
L 2688 2241 
L 2688 2328 
Q 2688 2594 2478 2717 
Q 2269 2841 1825 2841 
Q 1466 2841 1156 2769 
Q 847 2697 581 2553 
L 581 3406 
Q 941 3494 1303 3539 
Q 1666 3584 2028 3584 
Q 2975 3584 3395 3211 
Q 3816 2838 3816 1997 
z
" transform="scale(0.015625)"/>
      <path id="DejaVuSans-Bold-7a" d="M 366 3500 
L 3419 3500 
L 3419 2719 
L 1575 800 
L 3419 800 
L 3419 0 
L 288 0 
L 288 781 
L 2131 2700 
L 366 2700 
L 366 3500 
z
" transform="scale(0.015625)"/>
      <path id="DejaVuSans-Bold-69" d="M 538 3500 
L 1656 3500 
L 1656 0 
L 538 0 
L 538 3500 
z
M 538 4863 
L 1656 4863 
L 1656 3950 
L 538 3950 
L 538 4863 
z
" transform="scale(0.015625)"/>
      <path id="DejaVuSans-Bold-6e" d="M 4056 2131 
L 4056 0 
L 2931 0 
L 2931 347 
L 2931 1631 
Q 2931 2084 2911 2256 
Q 2891 2428 2841 2509 
Q 2775 2619 2662 2680 
Q 2550 2741 2406 2741 
Q 2056 2741 1856 2470 
Q 1656 2200 1656 1722 
L 1656 0 
L 538 0 
L 538 3500 
L 1656 3500 
L 1656 2988 
Q 1909 3294 2193 3439 
Q 2478 3584 2822 3584 
Q 3428 3584 3742 3212 
Q 4056 2841 4056 2131 
z
" transform="scale(0.015625)"/>
      <path id="DejaVuSans-Bold-6c" d="M 538 4863 
L 1656 4863 
L 1656 0 
L 538 0 
L 538 4863 
z
" transform="scale(0.015625)"/>
      <path id="DejaVuSans-Bold-73" d="M 3272 3391 
L 3272 2541 
Q 2913 2691 2578 2766 
Q 2244 2841 1947 2841 
Q 1628 2841 1473 2761 
Q 1319 2681 1319 2516 
Q 1319 2381 1436 2309 
Q 1553 2238 1856 2203 
L 2053 2175 
Q 2913 2066 3209 1816 
Q 3506 1566 3506 1031 
Q 3506 472 3093 190 
Q 2681 -91 1863 -91 
Q 1516 -91 1145 -36 
Q 775 19 384 128 
L 384 978 
Q 719 816 1070 734 
Q 1422 653 1784 653 
Q 2113 653 2278 743 
Q 2444 834 2444 1013 
Q 2444 1163 2330 1236 
Q 2216 1309 1875 1350 
L 1678 1375 
Q 931 1469 631 1722 
Q 331 1975 331 2491 
Q 331 3047 712 3315 
Q 1094 3584 1881 3584 
Q 2191 3584 2531 3537 
Q 2872 3491 3272 3391 
z
" transform="scale(0.015625)"/>
      <path id="DejaVuSans-Bold-63" d="M 3366 3391 
L 3366 2478 
Q 3138 2634 2908 2709 
Q 2678 2784 2431 2784 
Q 1963 2784 1702 2511 
Q 1441 2238 1441 1747 
Q 1441 1256 1702 982 
Q 1963 709 2431 709 
Q 2694 709 2930 787 
Q 3166 866 3366 1019 
L 3366 103 
Q 3103 6 2833 -42 
Q 2563 -91 2291 -91 
Q 1344 -91 809 395 
Q 275 881 275 1747 
Q 275 2613 809 3098 
Q 1344 3584 2291 3584 
Q 2566 3584 2833 3536 
Q 3100 3488 3366 3391 
z
" transform="scale(0.015625)"/>
      <path id="DejaVuSans-Bold-68" d="M 4056 2131 
L 4056 0 
L 2931 0 
L 2931 347 
L 2931 1625 
Q 2931 2084 2911 2256 
Q 2891 2428 2841 2509 
Q 2775 2619 2662 2680 
Q 2550 2741 2406 2741 
Q 2056 2741 1856 2470 
Q 1656 2200 1656 1722 
L 1656 0 
L 538 0 
L 538 4863 
L 1656 4863 
L 1656 2988 
Q 1909 3294 2193 3439 
Q 2478 3584 2822 3584 
Q 3428 3584 3742 3212 
Q 4056 2841 4056 2131 
z
" transform="scale(0.015625)"/>
      <path id="DejaVuSans-Bold-6d" d="M 3781 2919 
Q 3994 3244 4286 3414 
Q 4578 3584 4928 3584 
Q 5531 3584 5847 3212 
Q 6163 2841 6163 2131 
L 6163 0 
L 5038 0 
L 5038 1825 
Q 5041 1866 5042 1909 
Q 5044 1953 5044 2034 
Q 5044 2406 4934 2573 
Q 4825 2741 4581 2741 
Q 4263 2741 4089 2478 
Q 3916 2216 3909 1719 
L 3909 0 
L 2784 0 
L 2784 1825 
Q 2784 2406 2684 2573 
Q 2584 2741 2328 2741 
Q 2006 2741 1831 2477 
Q 1656 2213 1656 1722 
L 1656 0 
L 531 0 
L 531 3500 
L 1656 3500 
L 1656 2988 
Q 1863 3284 2130 3434 
Q 2397 3584 2719 3584 
Q 3081 3584 3359 3409 
Q 3638 3234 3781 2919 
z
" transform="scale(0.015625)"/>
      <path id="DejaVuSans-Bold-64" d="M 2919 2988 
L 2919 4863 
L 4044 4863 
L 4044 0 
L 2919 0 
L 2919 506 
Q 2688 197 2409 53 
Q 2131 -91 1766 -91 
Q 1119 -91 703 423 
Q 288 938 288 1747 
Q 288 2556 703 3070 
Q 1119 3584 1766 3584 
Q 2128 3584 2408 3439 
Q 2688 3294 2919 2988 
z
M 2181 722 
Q 2541 722 2730 984 
Q 2919 1247 2919 1747 
Q 2919 2247 2730 2509 
Q 2541 2772 2181 2772 
Q 1825 2772 1636 2509 
Q 1447 2247 1447 1747 
Q 1447 1247 1636 984 
Q 1825 722 2181 722 
z
" transform="scale(0.015625)"/>
      <path id="DejaVuSans-Bold-75" d="M 500 1363 
L 500 3500 
L 1625 3500 
L 1625 3150 
Q 1625 2866 1622 2436 
Q 1619 2006 1619 1863 
Q 1619 1441 1641 1255 
Q 1663 1069 1716 984 
Q 1784 875 1895 815 
Q 2006 756 2150 756 
Q 2500 756 2700 1025 
Q 2900 1294 2900 1772 
L 2900 3500 
L 4019 3500 
L 4019 0 
L 2900 0 
L 2900 506 
Q 2647 200 2364 54 
Q 2081 -91 1741 -91 
Q 1134 -91 817 281 
Q 500 653 500 1363 
z
" transform="scale(0.015625)"/>
      <path id="DejaVuSans-Bold-62" d="M 2400 722 
Q 2759 722 2948 984 
Q 3138 1247 3138 1747 
Q 3138 2247 2948 2509 
Q 2759 2772 2400 2772 
Q 2041 2772 1848 2508 
Q 1656 2244 1656 1747 
Q 1656 1250 1848 986 
Q 2041 722 2400 722 
z
M 1656 2988 
Q 1888 3294 2169 3439 
Q 2450 3584 2816 3584 
Q 3463 3584 3878 3070 
Q 4294 2556 4294 1747 
Q 4294 938 3878 423 
Q 3463 -91 2816 -91 
Q 2450 -91 2169 54 
Q 1888 200 1656 506 
L 1656 0 
L 538 0 
L 538 4863 
L 1656 4863 
L 1656 2988 
z
" transform="scale(0.015625)"/>
     </defs>
     <use xlink:href="#DejaVuSans-Bold-53"/>
     <use xlink:href="#DejaVuSans-Bold-70" transform="translate(72.021484 0)"/>
     <use xlink:href="#DejaVuSans-Bold-65" transform="translate(143.603516 0)"/>
     <use xlink:href="#DejaVuSans-Bold-74" transform="translate(211.425781 0)"/>
     <use xlink:href="#DejaVuSans-Bold-74" transform="translate(259.228516 0)"/>
     <use xlink:href="#DejaVuSans-Bold-72" transform="translate(307.03125 0)"/>
     <use xlink:href="#DejaVuSans-Bold-6f" transform="translate(356.347656 0)"/>
     <use xlink:href="#DejaVuSans-Bold-20" transform="translate(425.048828 0)"/>
     <use xlink:href="#DejaVuSans-Bold-72" transform="translate(459.863281 0)"/>
     <use xlink:href="#DejaVuSans-Bold-6f" transform="translate(509.179688 0)"/>
     <use xlink:href="#DejaVuSans-Bold-74" transform="translate(577.880859 0)"/>
     <use xlink:href="#DejaVuSans-Bold-61" transform="translate(625.683594 0)"/>
     <use xlink:href="#DejaVuSans-Bold-7a" transform="translate(693.164062 0)"/>
     <use xlink:href="#DejaVuSans-Bold-69" transform="translate(751.367188 0)"/>
     <use xlink:href="#DejaVuSans-Bold-6f" transform="translate(785.644531 0)"/>
     <use xlink:href="#DejaVuSans-Bold-6e" transform="translate(854.345703 0)"/>
     <use xlink:href="#DejaVuSans-Bold-61" transform="translate(925.537109 0)"/>
     <use xlink:href="#DejaVuSans-Bold-6c" transform="translate(993.017578 0)"/>
     <use xlink:href="#DejaVuSans-Bold-65" transform="translate(1027.294922 0)"/>
     <use xlink:href="#DejaVuSans-Bold-20" transform="translate(1095.117188 0)"/>
     <use xlink:href="#DejaVuSans-Bold-73" transform="translate(1129.931641 0)"/>
     <use xlink:href="#DejaVuSans-Bold-63" transform="translate(1189.453125 0)"/>
     <use xlink:href="#DejaVuSans-Bold-68" transform="translate(1248.730469 0)"/>
     <use xlink:href="#DejaVuSans-Bold-65" transform="translate(1319.921875 0)"/>
     <use xlink:href="#DejaVuSans-Bold-6d" transform="translate(1387.744141 0)"/>
     <use xlink:href="#DejaVuSans-Bold-61" transform="translate(1491.943359 0)"/>
     <use xlink:href="#DejaVuSans-Bold-74" transform="translate(1559.423828 0)"/>
     <use xlink:href="#DejaVuSans-Bold-69" transform="translate(1607.226562 0)"/>
     <use xlink:href="#DejaVuSans-Bold-63" transform="translate(1641.503906 0)"/>
     <use xlink:href="#DejaVuSans-Bold-6f" transform="translate(1700.78125 0)"/>
     <use xlink:href="#DejaVuSans-Bold-20" transform="translate(1769.482422 0)"/>
     <use xlink:href="#DejaVuSans-Bold-64" transform="translate(1804.296875 0)"/>
     <use xlink:href="#DejaVuSans-Bold-69" transform="translate(1875.878906 0)"/>
     <use xlink:href="#DejaVuSans-Bold-20" transform="translate(1910.15625 0)"/>
     <use xlink:href="#DejaVuSans-Bold-75" transform="translate(1944.970703 0)"/>
     <use xlink:href="#DejaVuSans-Bold-6e" transform="translate(2016.162109 0)"/>
     <use xlink:href="#DejaVuSans-Bold-61" transform="translate(2087.353516 0)"/>
     <use xlink:href="#DejaVuSans-Bold-20" transform="translate(2154.833984 0)"/>
     <use xlink:href="#DejaVuSans-Bold-6d" transform="translate(2189.648438 0)"/>
     <use xlink:href="#DejaVuSans-Bold-6f" transform="translate(2293.847656 0)"/>
     <use xlink:href="#DejaVuSans-Bold-6c" transform="translate(2362.548828 0)"/>
     <use xlink:href="#DejaVuSans-Bold-65" transform="translate(2396.826172 0)"/>
     <use xlink:href="#DejaVuSans-Bold-63" transform="translate(2464.648438 0)"/>
     <use xlink:href="#DejaVuSans-Bold-6f" transform="translate(2523.925781 0)"/>
     <use xlink:href="#DejaVuSans-Bold-6c" transform="translate(2592.626953 0)"/>
     <use xlink:href="#DejaVuSans-Bold-61" transform="translate(2626.904297 0)"/>
     <use xlink:href="#DejaVuSans-Bold-20" transform="translate(2694.384766 0)"/>
     <use xlink:href="#DejaVuSans-Bold-62" transform="translate(2729.199219 0)"/>
     <use xlink:href="#DejaVuSans-Bold-69" transform="translate(2800.78125 0)"/>
     <use xlink:href="#DejaVuSans-Bold-61" transform="translate(2835.058594 0)"/>
     <use xlink:href="#DejaVuSans-Bold-74" transform="translate(2902.539062 0)"/>
     <use xlink:href="#DejaVuSans-Bold-6f" transform="translate(2950.341797 0)"/>
     <use xlink:href="#DejaVuSans-Bold-6d" transform="translate(3019.042969 0)"/>
     <use xlink:href="#DejaVuSans-Bold-69" transform="translate(3123.242188 0)"/>
     <use xlink:href="#DejaVuSans-Bold-63" transform="translate(3157.519531 0)"/>
     <use xlink:href="#DejaVuSans-Bold-61" transform="translate(3216.796875 0)"/>
     <use xlink:href="#DejaVuSans-Bold-20" transform="translate(3284.277344 0)"/>
     <use xlink:href="#DejaVuSans-Bold-70" transform="translate(3319.091797 0)"/>
     <use xlink:href="#DejaVuSans-Bold-6f" transform="translate(3390.673828 0)"/>
     <use xlink:href="#DejaVuSans-Bold-6c" transform="translate(3459.375 0)"/>
     <use xlink:href="#DejaVuSans-Bold-61" transform="translate(3493.652344 0)"/>
     <use xlink:href="#DejaVuSans-Bold-72" transform="translate(3561.132812 0)"/>
     <use xlink:href="#DejaVuSans-Bold-65" transform="translate(3610.449219 0)"/>
    </g>
   </g>
  </g>
  <g id="text_21">
   <!-- Le righe sono equidistanti di 2B; le intensità seguono la popolazione termica dello stato rotazionale inferiore. -->
   <g transform="translate(50.164063 436.893656) scale(0.1 -0.1)">
    <defs>
     <path id="DejaVuSans-4c" d="M 628 4666 
L 1259 4666 
L 1259 531 
L 3531 531 
L 3531 0 
L 628 0 
L 628 4666 
z
" transform="scale(0.015625)"/>
     <path id="DejaVuSans-67" d="M 2906 1791 
Q 2906 2416 2648 2759 
Q 2391 3103 1925 3103 
Q 1463 3103 1205 2759 
Q 947 2416 947 1791 
Q 947 1169 1205 825 
Q 1463 481 1925 481 
Q 2391 481 2648 825 
Q 2906 1169 2906 1791 
z
M 3481 434 
Q 3481 -459 3084 -895 
Q 2688 -1331 1869 -1331 
Q 1566 -1331 1297 -1286 
Q 1028 -1241 775 -1147 
L 775 -588 
Q 1028 -725 1275 -790 
Q 1522 -856 1778 -856 
Q 2344 -856 2625 -561 
Q 2906 -266 2906 331 
L 2906 616 
Q 2728 306 2450 153 
Q 2172 0 1784 0 
Q 1141 0 747 490 
Q 353 981 353 1791 
Q 353 2603 747 3093 
Q 1141 3584 1784 3584 
Q 2172 3584 2450 3431 
Q 2728 3278 2906 2969 
L 2906 3500 
L 3481 3500 
L 3481 434 
z
" transform="scale(0.015625)"/>
     <path id="DejaVuSans-68" d="M 3513 2113 
L 3513 0 
L 2938 0 
L 2938 2094 
Q 2938 2591 2744 2837 
Q 2550 3084 2163 3084 
Q 1697 3084 1428 2787 
Q 1159 2491 1159 1978 
L 1159 0 
L 581 0 
L 581 4863 
L 1159 4863 
L 1159 2956 
Q 1366 3272 1645 3428 
Q 1925 3584 2291 3584 
Q 2894 3584 3203 3211 
Q 3513 2838 3513 2113 
z
" transform="scale(0.015625)"/>
     <path id="DejaVuSans-71" d="M 947 1747 
Q 947 1113 1208 752 
Q 1469 391 1925 391 
Q 2381 391 2643 752 
Q 2906 1113 2906 1747 
Q 2906 2381 2643 2742 
Q 2381 3103 1925 3103 
Q 1469 3103 1208 2742 
Q 947 2381 947 1747 
z
M 2906 525 
Q 2725 213 2448 61 
Q 2172 -91 1784 -91 
Q 1150 -91 751 415 
Q 353 922 353 1747 
Q 353 2572 751 3078 
Q 1150 3584 1784 3584 
Q 2172 3584 2448 3432 
Q 2725 3281 2906 2969 
L 2906 3500 
L 3481 3500 
L 3481 -1331 
L 2906 -1331 
L 2906 525 
z
" transform="scale(0.015625)"/>
     <path id="DejaVuSans-42" d="M 1259 2228 
L 1259 519 
L 2272 519 
Q 2781 519 3026 730 
Q 3272 941 3272 1375 
Q 3272 1813 3026 2020 
Q 2781 2228 2272 2228 
L 1259 2228 
z
M 1259 4147 
L 1259 2741 
L 2194 2741 
Q 2656 2741 2882 2914 
Q 3109 3088 3109 3444 
Q 3109 3797 2882 3972 
Q 2656 4147 2194 4147 
L 1259 4147 
z
M 628 4666 
L 2241 4666 
Q 2963 4666 3353 4366 
Q 3744 4066 3744 3513 
Q 3744 3084 3544 2831 
Q 3344 2578 2956 2516 
Q 3422 2416 3680 2098 
Q 3938 1781 3938 1306 
Q 3938 681 3513 340 
Q 3088 0 2303 0 
L 628 0 
L 628 4666 
z
" transform="scale(0.015625)"/>
     <path id="DejaVuSans-3b" d="M 750 3309 
L 1409 3309 
L 1409 2516 
L 750 2516 
L 750 3309 
z
M 750 794 
L 1409 794 
L 1409 256 
L 897 -744 
L 494 -744 
L 750 256 
L 750 794 
z
" transform="scale(0.015625)"/>
     <path id="DejaVuSans-6c" d="M 603 4863 
L 1178 4863 
L 1178 0 
L 603 0 
L 603 4863 
z
" transform="scale(0.015625)"/>
     <path id="DejaVuSans-70" d="M 1159 525 
L 1159 -1331 
L 581 -1331 
L 581 3500 
L 1159 3500 
L 1159 2969 
Q 1341 3281 1617 3432 
Q 1894 3584 2278 3584 
Q 2916 3584 3314 3078 
Q 3713 2572 3713 1747 
Q 3713 922 3314 415 
Q 2916 -91 2278 -91 
Q 1894 -91 1617 61 
Q 1341 213 1159 525 
z
M 3116 1747 
Q 3116 2381 2855 2742 
Q 2594 3103 2138 3103 
Q 1681 3103 1420 2742 
Q 1159 2381 1159 1747 
Q 1159 1113 1420 752 
Q 1681 391 2138 391 
Q 2594 391 2855 752 
Q 3116 1113 3116 1747 
z
" transform="scale(0.015625)"/>
     <path id="DejaVuSans-7a" d="M 353 3500 
L 3084 3500 
L 3084 2975 
L 922 459 
L 3084 459 
L 3084 0 
L 275 0 
L 275 525 
L 2438 3041 
L 353 3041 
L 353 3500 
z
" transform="scale(0.015625)"/>
     <path id="DejaVuSans-63" d="M 3122 3366 
L 3122 2828 
Q 2878 2963 2633 3030 
Q 2388 3097 2138 3097 
Q 1578 3097 1268 2742 
Q 959 2388 959 1747 
Q 959 1106 1268 751 
Q 1578 397 2138 397 
Q 2388 397 2633 464 
Q 2878 531 3122 666 
L 3122 134 
Q 2881 22 2623 -34 
Q 2366 -91 2075 -91 
Q 1284 -91 818 406 
Q 353 903 353 1747 
Q 353 2603 823 3093 
Q 1294 3584 2113 3584 
Q 2378 3584 2631 3529 
Q 2884 3475 3122 3366 
z
" transform="scale(0.015625)"/>
     <path id="DejaVuSans-66" d="M 2375 4863 
L 2375 4384 
L 1825 4384 
Q 1516 4384 1395 4259 
Q 1275 4134 1275 3809 
L 1275 3500 
L 2222 3500 
L 2222 3053 
L 1275 3053 
L 1275 0 
L 697 0 
L 697 3053 
L 147 3053 
L 147 3500 
L 697 3500 
L 697 3744 
Q 697 4328 969 4595 
Q 1241 4863 1831 4863 
L 2375 4863 
z
" transform="scale(0.015625)"/>
     <path id="DejaVuSans-2e" d="M 684 794 
L 1344 794 
L 1344 0 
L 684 0 
L 684 794 
z
" transform="scale(0.015625)"/>
    </defs>
    <use xlink:href="#DejaVuSans-4c"/>
    <use xlink:href="#DejaVuSans-65" transform="translate(53.962891 0)"/>
    <use xlink:href="#DejaVuSans-20" transform="translate(115.486328 0)"/>
    <use xlink:href="#DejaVuSans-72" transform="translate(147.273438 0)"/>
    <use xlink:href="#DejaVuSans-69" transform="translate(188.386719 0)"/>
    <use xlink:href="#DejaVuSans-67" transform="translate(216.169922 0)"/>
    <use xlink:href="#DejaVuSans-68" transform="translate(279.646484 0)"/>
    <use xlink:href="#DejaVuSans-65" transform="translate(343.025391 0)"/>
    <use xlink:href="#DejaVuSans-20" transform="translate(404.548828 0)"/>
    <use xlink:href="#DejaVuSans-73" transform="translate(436.335938 0)"/>
    <use xlink:href="#DejaVuSans-6f" transform="translate(488.435547 0)"/>
    <use xlink:href="#DejaVuSans-6e" transform="translate(549.617188 0)"/>
    <use xlink:href="#DejaVuSans-6f" transform="translate(612.996094 0)"/>
    <use xlink:href="#DejaVuSans-20" transform="translate(674.177734 0)"/>
    <use xlink:href="#DejaVuSans-65" transform="translate(705.964844 0)"/>
    <use xlink:href="#DejaVuSans-71" transform="translate(767.488281 0)"/>
    <use xlink:href="#DejaVuSans-75" transform="translate(830.964844 0)"/>
    <use xlink:href="#DejaVuSans-69" transform="translate(894.34375 0)"/>
    <use xlink:href="#DejaVuSans-64" transform="translate(922.126953 0)"/>
    <use xlink:href="#DejaVuSans-69" transform="translate(985.603516 0)"/>
    <use xlink:href="#DejaVuSans-73" transform="translate(1013.386719 0)"/>
    <use xlink:href="#DejaVuSans-74" transform="translate(1065.486328 0)"/>
    <use xlink:href="#DejaVuSans-61" transform="translate(1104.695312 0)"/>
    <use xlink:href="#DejaVuSans-6e" transform="translate(1165.974609 0)"/>
    <use xlink:href="#DejaVuSans-74" transform="translate(1229.353516 0)"/>
    <use xlink:href="#DejaVuSans-69" transform="translate(1268.5625 0)"/>
    <use xlink:href="#DejaVuSans-20" transform="translate(1296.345703 0)"/>
    <use xlink:href="#DejaVuSans-64" transform="translate(1328.132812 0)"/>
    <use xlink:href="#DejaVuSans-69" transform="translate(1391.609375 0)"/>
    <use xlink:href="#DejaVuSans-20" transform="translate(1419.392578 0)"/>
    <use xlink:href="#DejaVuSans-32" transform="translate(1451.179688 0)"/>
    <use xlink:href="#DejaVuSans-42" transform="translate(1514.802734 0)"/>
    <use xlink:href="#DejaVuSans-3b" transform="translate(1583.40625 0)"/>
    <use xlink:href="#DejaVuSans-20" transform="translate(1617.097656 0)"/>
    <use xlink:href="#DejaVuSans-6c" transform="translate(1648.884766 0)"/>
    <use xlink:href="#DejaVuSans-65" transform="translate(1676.667969 0)"/>
    <use xlink:href="#DejaVuSans-20" transform="translate(1738.191406 0)"/>
    <use xlink:href="#DejaVuSans-69" transform="translate(1769.978516 0)"/>
    <use xlink:href="#DejaVuSans-6e" transform="translate(1797.761719 0)"/>
    <use xlink:href="#DejaVuSans-74" transform="translate(1861.140625 0)"/>
    <use xlink:href="#DejaVuSans-65" transform="translate(1900.349609 0)"/>
    <use xlink:href="#DejaVuSans-6e" transform="translate(1961.873047 0)"/>
    <use xlink:href="#DejaVuSans-73" transform="translate(2025.251953 0)"/>
    <use xlink:href="#DejaVuSans-69" transform="translate(2077.351562 0)"/>
    <use xlink:href="#DejaVuSans-74" transform="translate(2105.134766 0)"/>
    <use xlink:href="#DejaVuSans-e0" transform="translate(2144.34375 0)"/>
    <use xlink:href="#DejaVuSans-20" transform="translate(2205.623047 0)"/>
    <use xlink:href="#DejaVuSans-73" transform="translate(2237.410156 0)"/>
    <use xlink:href="#DejaVuSans-65" transform="translate(2289.509766 0)"/>
    <use xlink:href="#DejaVuSans-67" transform="translate(2351.033203 0)"/>
    <use xlink:href="#DejaVuSans-75" transform="translate(2414.509766 0)"/>
    <use xlink:href="#DejaVuSans-6f" transform="translate(2477.888672 0)"/>
    <use xlink:href="#DejaVuSans-6e" transform="translate(2539.070312 0)"/>
    <use xlink:href="#DejaVuSans-6f" transform="translate(2602.449219 0)"/>
    <use xlink:href="#DejaVuSans-20" transform="translate(2663.630859 0)"/>
    <use xlink:href="#DejaVuSans-6c" transform="translate(2695.417969 0)"/>
    <use xlink:href="#DejaVuSans-61" transform="translate(2723.201172 0)"/>
    <use xlink:href="#DejaVuSans-20" transform="translate(2784.480469 0)"/>
    <use xlink:href="#DejaVuSans-70" transform="translate(2816.267578 0)"/>
    <use xlink:href="#DejaVuSans-6f" transform="translate(2879.744141 0)"/>
    <use xlink:href="#DejaVuSans-70" transform="translate(2940.925781 0)"/>
    <use xlink:href="#DejaVuSans-6f" transform="translate(3004.402344 0)"/>
    <use xlink:href="#DejaVuSans-6c" transform="translate(3065.583984 0)"/>
    <use xlink:href="#DejaVuSans-61" transform="translate(3093.367188 0)"/>
    <use xlink:href="#DejaVuSans-7a" transform="translate(3154.646484 0)"/>
    <use xlink:href="#DejaVuSans-69" transform="translate(3207.136719 0)"/>
    <use xlink:href="#DejaVuSans-6f" transform="translate(3234.919922 0)"/>
    <use xlink:href="#DejaVuSans-6e" transform="translate(3296.101562 0)"/>
    <use xlink:href="#DejaVuSans-65" transform="translate(3359.480469 0)"/>
    <use xlink:href="#DejaVuSans-20" transform="translate(3421.003906 0)"/>
    <use xlink:href="#DejaVuSans-74" transform="translate(3452.791016 0)"/>
    <use xlink:href="#DejaVuSans-65" transform="translate(3492 0)"/>
    <use xlink:href="#DejaVuSans-72" transform="translate(3553.523438 0)"/>
    <use xlink:href="#DejaVuSans-6d" transform="translate(3592.886719 0)"/>
    <use xlink:href="#DejaVuSans-69" transform="translate(3690.298828 0)"/>
    <use xlink:href="#DejaVuSans-63" transform="translate(3718.082031 0)"/>
    <use xlink:href="#DejaVuSans-61" transform="translate(3773.0625 0)"/>
    <use xlink:href="#DejaVuSans-20" transform="translate(3834.341797 0)"/>
    <use xlink:href="#DejaVuSans-64" transform="translate(3866.128906 0)"/>
    <use xlink:href="#DejaVuSans-65" transform="translate(3929.605469 0)"/>
    <use xlink:href="#DejaVuSans-6c" transform="translate(3991.128906 0)"/>
    <use xlink:href="#DejaVuSans-6c" transform="translate(4018.912109 0)"/>
    <use xlink:href="#DejaVuSans-6f" transform="translate(4046.695312 0)"/>
    <use xlink:href="#DejaVuSans-20" transform="translate(4107.876953 0)"/>
    <use xlink:href="#DejaVuSans-73" transform="translate(4139.664062 0)"/>
    <use xlink:href="#DejaVuSans-74" transform="translate(4191.763672 0)"/>
    <use xlink:href="#DejaVuSans-61" transform="translate(4230.972656 0)"/>
    <use xlink:href="#DejaVuSans-74" transform="translate(4292.251953 0)"/>
    <use xlink:href="#DejaVuSans-6f" transform="translate(4331.460938 0)"/>
    <use xlink:href="#DejaVuSans-20" transform="translate(4392.642578 0)"/>
    <use xlink:href="#DejaVuSans-72" transform="translate(4424.429688 0)"/>
    <use xlink:href="#DejaVuSans-6f" transform="translate(4463.292969 0)"/>
    <use xlink:href="#DejaVuSans-74" transform="translate(4524.474609 0)"/>
    <use xlink:href="#DejaVuSans-61" transform="translate(4563.683594 0)"/>
    <use xlink:href="#DejaVuSans-7a" transform="translate(4624.962891 0)"/>
    <use xlink:href="#DejaVuSans-69" transform="translate(4677.453125 0)"/>
    <use xlink:href="#DejaVuSans-6f" transform="translate(4705.236328 0)"/>
    <use xlink:href="#DejaVuSans-6e" transform="translate(4766.417969 0)"/>
    <use xlink:href="#DejaVuSans-61" transform="translate(4829.796875 0)"/>
    <use xlink:href="#DejaVuSans-6c" transform="translate(4891.076172 0)"/>
    <use xlink:href="#DejaVuSans-65" transform="translate(4918.859375 0)"/>
    <use xlink:href="#DejaVuSans-20" transform="translate(4980.382812 0)"/>
    <use xlink:href="#DejaVuSans-69" transform="translate(5012.169922 0)"/>
    <use xlink:href="#DejaVuSans-6e" transform="translate(5039.953125 0)"/>
    <use xlink:href="#DejaVuSans-66" transform="translate(5103.332031 0)"/>
    <use xlink:href="#DejaVuSans-65" transform="translate(5138.537109 0)"/>
    <use xlink:href="#DejaVuSans-72" transform="translate(5200.060547 0)"/>
    <use xlink:href="#DejaVuSans-69" transform="translate(5241.173828 0)"/>
    <use xlink:href="#DejaVuSans-6f" transform="translate(5268.957031 0)"/>
    <use xlink:href="#DejaVuSans-72" transform="translate(5330.138672 0)"/>
    <use xlink:href="#DejaVuSans-65" transform="translate(5369.001953 0)"/>
    <use xlink:href="#DejaVuSans-2e" transform="translate(5430.525391 0)"/>
   </g>
  </g>
 </g>
 <defs>
  <clipPath id="p9ecc6d63ee">
   <rect x="20.878125" y="30.597656" width="624.96" height="365.904"/>
  </clipPath>
 </defs>
</svg>
