<?xml version="1.0" encoding="utf-8" standalone="no"?>
<!DOCTYPE svg PUBLIC "-//W3C//DTD SVG 1.1//EN"
  "http://www.w3.org/Graphics/SVG/1.1/DTD/svg11.dtd">
<svg xmlns:xlink="http://www.w3.org/1999/xlink" width="681.165625pt" height="420.333656pt" viewBox="0 0 681.165625 420.333656" xmlns="http://www.w3.org/2000/svg" version="1.1">
 <metadata>
  <rdf:RDF xmlns:dc="http://purl.org/dc/elements/1.1/" xmlns:cc="http://creativecommons.org/ns#" xmlns:rdf="http://www.w3.org/1999/02/22-rdf-syntax-ns#">
   <cc:Work>
    <dc:type rdf:resource="http://purl.org/dc/dcmitype/StillImage"/>
    <dc:date>2026-06-16T08:33:57.554840</dc:date>
    <dc:format>image/svg+xml</dc:format>
    <dc:creator>
     <cc:Agent>
      <dc:title>Matplotlib v3.10.8, https://matplotlib.org/</dc:title>
     </cc:Agent>
    </dc:creator>
   </cc:Work>
  </rdf:RDF>
 </metadata>
 <defs>
  <style type="text/css">*{stroke-linejoin: round; stroke-linecap: butt}</style>
 </defs>
 <g id="figure_1">
  <g id="patch_1">
   <path d="M 0 420.333656 
L 681.165625 420.333656 
L 681.165625 0 
L 0 0 
z
" style="fill: #ffffff"/>
  </g>
  <g id="axes_1">
   <g id="patch_2">
    <path d="M 159.232812 123.078887 
L 420.376812 123.078887 
L 420.376812 70.532733 
L 159.232812 70.532733 
z
" clip-path="url(#p09d740d80c)" style="fill: #1f77b4; opacity: 0.13"/>
   </g>
   <g id="line2d_1">
    <path d="M 106.036812 337.467195 
L 565.456812 337.467195 
" clip-path="url(#p09d740d80c)" style="fill: none; stroke: #1f77b4; stroke-width: 2; stroke-linecap: square"/>
   </g>
   <g id="line2d_2">
    <path d="M 352.672812 223.967502 
L 565.456812 223.967502 
" clip-path="url(#p09d740d80c)" style="fill: none; stroke: #ff7f0e; stroke-width: 2; stroke-linecap: square"/>
   </g>
   <g id="line2d_3">
    <path d="M 43.168812 322.754272 
L 44.295965 320.706127 
L 44.912527 319.945244 
L 45.585858 319.46634 
L 46.32436 319.311146 
L 47.128988 319.484415 
L 47.993145 319.953369 
L 49.37019 321.058191 
L 52.161623 323.453328 
L 53.025779 323.922283 
L 53.830408 324.095551 
L 54.568909 323.940357 
L 55.242241 323.461453 
L 55.858803 322.70057 
L 56.711138 321.199087 
L 58.113108 318.604281 
L 58.72967 317.843398 
L 59.403001 317.364494 
L 60.141503 317.2093 
L 60.946131 317.382568 
L 61.810288 317.851523 
L 63.187333 318.956345 
L 65.978765 321.351482 
L 66.842922 321.820436 
L 67.647551 321.993704 
L 68.386052 321.838511 
L 69.059383 321.359607 
L 69.675946 320.598724 
L 70.528281 319.097241 
L 71.930251 316.502435 
L 72.546813 315.741552 
L 73.220144 315.262648 
L 73.958646 315.107454 
L 74.763274 315.280722 
L 75.627431 315.749677 
L 77.004475 316.854499 
L 79.795908 319.249636 
L 80.660065 319.71859 
L 81.464694 319.891858 
L 82.203195 319.736665 
L 82.876526 319.257761 
L 83.493089 318.496878 
L 84.345424 316.995395 
L 85.747394 314.400589 
L 86.363956 313.639706 
L 87.037287 313.160801 
L 87.775789 313.005608 
L 88.580417 313.178876 
L 89.444574 313.647831 
L 90.821618 314.752653 
L 93.613051 317.14779 
L 94.477208 317.616744 
L 95.281836 317.790012 
L 96.020338 317.634819 
L 96.693669 317.155914 
L 97.310231 316.395032 
L 98.162567 314.893549 
L 99.564536 312.298742 
L 100.181099 311.53786 
L 100.85443 311.058955 
L 101.592931 310.903762 
L 102.39756 311.07703 
L 103.261717 311.545985 
L 104.638761 312.650807 
L 107.430194 315.045943 
L 108.294351 315.514898 
L 109.098979 315.688166 
L 109.837481 315.532973 
L 110.510812 315.054068 
L 111.127374 314.293185 
L 111.97971 312.791702 
L 113.381679 310.196896 
L 113.998242 309.436014 
L 114.671573 308.957109 
L 115.410074 308.801916 
L 116.214703 308.975184 
L 117.07886 309.444138 
L 118.455904 310.54896 
L 121.247337 312.944097 
L 122.111494 313.413052 
L 122.916122 313.58632 
L 123.654624 313.431126 
L 124.327955 312.952222 
L 124.944517 312.191339 
L 125.796852 310.689856 
L 127.198822 308.09505 
L 127.815384 307.334167 
L 128.488716 306.855263 
L 129.227217 306.70007 
L 130.031846 306.873338 
L 130.896002 307.342292 
L 132.273047 308.447114 
L 135.06448 310.842251 
L 135.928637 311.311206 
L 136.733265 311.484474 
L 137.471767 311.32928 
L 138.145098 310.850376 
L 138.76166 310.089493 
L 139.613995 308.58801 
L 139.888812 308.041349 
L 139.888812 308.041349 
" clip-path="url(#p09d740d80c)" style="fill: none; stroke: #2ca02c; stroke-linecap: square"/>
   </g>
   <g id="line2d_4">
    <path d="M 43.168812 311.194118 
L 43.968241 309.429839 
L 44.554515 308.518508 
L 45.212422 307.962993 
L 45.9552 307.829039 
L 46.783456 308.119672 
L 47.685084 308.77475 
L 49.122563 310.17976 
L 51.030976 312.012243 
L 51.91169 312.563441 
L 52.713956 312.724977 
L 53.429534 312.455915 
L 54.063077 311.779382 
L 54.631449 310.779129 
L 56.529724 306.826105 
L 57.172833 306.197084 
L 57.899257 305.981902 
L 58.712039 306.19567 
L 59.601373 306.789681 
L 61.030177 308.151601 
L 62.948559 310.033602 
L 63.842077 310.648401 
L 64.66006 310.888004 
L 65.391928 310.699859 
L 66.039913 310.095056 
L 66.618727 309.146672 
L 68.81245 304.749465 
L 69.48049 304.244278 
L 70.234187 304.164562 
L 71.072526 304.505275 
L 71.981898 305.198822 
L 73.910067 307.129438 
L 75.324773 308.421332 
L 76.196553 308.928152 
L 76.988174 309.036808 
L 77.692977 308.714232 
L 78.317223 307.991512 
L 78.879155 306.959272 
L 80.487243 303.476566 
L 81.102478 302.709094 
L 81.796607 302.333495 
L 82.577477 302.388749 
L 83.440028 302.84973 
L 84.367052 303.630952 
L 87.694906 306.778853 
L 88.543112 307.168576 
L 89.307712 307.143019 
L 89.98607 306.689082 
L 90.588378 305.857397 
L 91.398631 304.146885 
L 92.469247 301.817915 
L 93.071555 300.986231 
L 93.749913 300.532294 
L 94.514513 300.506737 
L 95.362719 300.89646 
L 96.279454 301.626576 
L 100.05827 305.102752 
L 100.881413 305.367982 
L 101.618732 305.206919 
L 102.271651 304.626622 
L 102.854146 303.696524 
L 103.912531 301.306799 
L 104.740402 299.6838 
L 105.364648 298.961081 
L 106.069451 298.638505 
L 106.861072 298.747161 
L 107.732852 299.25398 
L 109.147558 300.545875 
L 111.537993 302.860916 
L 112.414278 303.390114 
L 113.211237 303.525283 
L 113.921416 303.22941 
L 114.550276 302.529612 
L 115.115374 301.5131 
L 117.017712 297.580257 
L 117.665697 296.975453 
L 118.397565 296.787309 
L 119.215548 297.026911 
L 120.109066 297.64171 
L 121.540946 299.018908 
L 123.456252 300.885632 
L 124.345586 301.479643 
L 125.158368 301.693411 
L 125.884792 301.478228 
L 126.527901 300.849207 
L 127.103133 299.883029 
L 128.994548 295.895931 
L 129.628091 295.219398 
L 130.343669 294.950336 
L 131.145935 295.111872 
L 132.026649 295.663069 
L 133.44876 296.991741 
L 135.372541 298.900563 
L 136.274169 299.55564 
L 137.102425 299.846274 
L 137.845203 299.71232 
L 138.50311 299.156805 
L 139.089384 298.245474 
L 139.888812 296.481195 
L 139.888812 296.481195 
" clip-path="url(#p09d740d80c)" style="fill: none; stroke: #d62728; stroke-linecap: square"/>
   </g>
   <g id="line2d_5">
    <path d="M 43.168812 299.633964 
L 43.93365 297.697865 
L 44.518159 296.777772 
L 44.84562 296.492597 
L 45.19985 296.340394 
L 45.581763 296.325691 
L 45.990956 296.446491 
L 46.883174 297.054832 
L 48.347433 298.592858 
L 49.832175 300.232628 
L 50.757257 301.00421 
L 51.58979 301.316083 
L 51.96554 301.270767 
L 52.313697 301.088395 
L 52.933288 300.342556 
L 53.47245 299.197214 
L 54.741276 295.941065 
L 55.335374 295.068599 
L 55.668638 294.812253 
L 56.028988 294.690442 
L 56.417044 294.706255 
L 57.272217 295.130585 
L 58.213832 295.984287 
L 61.153659 299.116514 
L 62.025154 299.621921 
L 62.422356 299.683162 
L 62.791937 299.607206 
L 63.13408 299.394961 
L 63.743228 298.597249 
L 64.275646 297.418409 
L 65.549791 294.188678 
L 66.153837 293.365626 
L 66.493 293.138577 
L 66.859499 293.047313 
L 67.253664 293.093469 
L 68.119788 293.572194 
L 69.068991 294.463588 
L 72.001756 297.560738 
L 72.862437 298.012431 
L 73.253553 298.043441 
L 73.616975 297.936889 
L 73.953177 297.695137 
L 74.552206 296.847162 
L 75.326765 294.959356 
L 76.083762 292.984313 
L 76.654612 291.996371 
L 77.318716 291.471632 
L 77.691381 291.410995 
L 78.091606 291.487253 
L 78.9684 292.018978 
L 79.924716 292.945699 
L 82.389055 295.62783 
L 83.286248 296.260879 
L 83.69839 296.396329 
L 84.083378 296.396901 
L 84.440663 296.259871 
L 84.771013 295.989047 
L 85.36027 295.092537 
L 86.128141 293.171509 
L 86.890154 291.221379 
L 87.470011 290.278177 
L 87.794609 289.978785 
L 88.145796 289.811465 
L 88.524629 289.781464 
L 88.930852 289.887509 
L 89.81801 290.470716 
L 91.278517 291.990109 
L 93.239615 294.084288 
L 94.126773 294.667496 
L 94.532996 294.773541 
L 94.911829 294.74354 
L 95.263016 294.57622 
L 95.887942 293.856883 
L 96.43066 292.729205 
L 97.981153 288.960413 
L 98.616962 288.295134 
L 98.974247 288.158104 
L 99.359235 288.158676 
L 99.771377 288.294126 
L 100.66857 288.927175 
L 102.136378 290.482829 
L 103.618824 292.1112 
L 104.539506 292.860919 
L 105.366244 293.144009 
L 105.738909 293.083372 
L 106.084051 292.886023 
L 106.698381 292.114053 
L 107.234109 290.951653 
L 108.505419 287.707843 
L 109.104448 286.859867 
L 109.44065 286.618115 
L 109.804072 286.511564 
L 110.195188 286.542574 
L 111.055869 286.994267 
L 112.001337 287.867106 
L 114.937837 290.982811 
L 115.803961 291.461536 
L 116.198126 291.507692 
L 116.564625 291.416428 
L 116.903788 291.189379 
L 117.507834 290.366326 
L 118.037069 289.171673 
L 119.314397 285.957756 
L 119.923545 285.160043 
L 120.265688 284.947799 
L 120.635269 284.871842 
L 121.032471 284.933084 
L 121.903966 285.438491 
L 122.856787 286.347849 
L 125.785408 289.42442 
L 126.640581 289.84875 
L 127.028637 289.864563 
L 127.388987 289.742752 
L 127.722251 289.486406 
L 128.316349 288.613939 
L 129.087462 286.709012 
L 129.84686 284.745898 
L 130.422163 283.780075 
L 130.743928 283.466609 
L 131.092085 283.284238 
L 131.467835 283.238922 
L 131.871067 283.330117 
L 132.753083 283.887781 
L 133.712771 284.831252 
L 136.174451 287.500173 
L 137.066669 288.108513 
L 137.475862 288.229313 
L 137.857775 288.214611 
L 138.212005 288.062408 
L 138.842339 287.36993 
L 139.388734 286.260513 
L 139.888812 284.921041 
L 139.888812 284.921041 
" clip-path="url(#p09d740d80c)" style="fill: none; stroke: #9467bd; stroke-linecap: square"/>
   </g>
   <g id="line2d_6">
    <path d="M 43.168812 288.07381 
L 43.90094 285.97524 
L 44.489413 285.074833 
L 44.829758 284.853657 
L 45.204051 284.801105 
L 45.612241 284.916927 
L 46.520308 285.603986 
L 48.030562 287.370481 
L 49.53723 289.119162 
L 50.439685 289.778348 
L 50.844545 289.877627 
L 51.215412 289.808059 
L 51.552437 289.57039 
L 52.135345 288.642343 
L 52.864001 286.526527 
L 53.599829 284.446338 
L 54.19396 283.574034 
L 54.537645 283.369448 
L 54.915363 283.333909 
L 55.326863 283.466171 
L 56.240446 284.180633 
L 57.754058 285.963802 
L 59.256912 287.69354 
L 60.153664 288.324397 
L 60.555175 288.407042 
L 60.922618 288.320465 
L 61.256343 288.06641 
L 61.833784 287.111202 
L 62.559198 284.979286 
L 63.298953 282.9186 
L 63.898832 282.074846 
L 64.245874 281.886937 
L 64.627014 281.868398 
L 65.041802 282.016991 
L 65.960804 282.758367 
L 67.477541 284.557062 
L 68.976356 286.266738 
L 69.867316 286.868828 
L 70.265462 286.934756 
L 70.629484 286.831189 
L 70.959934 286.560863 
L 71.532006 285.57899 
L 72.254412 283.432127 
L 72.998317 281.392058 
L 73.60403 280.577284 
L 73.954445 280.406127 
L 74.339004 280.404568 
L 74.757055 280.569368 
L 75.681374 281.337157 
L 77.201003 283.150218 
L 78.695557 284.838725 
L 79.580641 285.411627 
L 79.975407 285.460768 
L 80.336014 285.340237 
L 80.663213 285.053766 
L 81.23002 284.045738 
L 81.94965 281.885092 
L 82.697928 279.86674 
L 83.309558 279.081358 
L 83.663359 278.927023 
L 84.05133 278.942408 
L 84.472618 279.123288 
L 85.40215 279.91697 
L 87.435356 282.369321 
L 88.414508 283.409474 
L 89.293634 283.952785 
L 89.685008 283.985074 
L 90.042207 283.847617 
L 90.366184 283.545137 
L 90.927831 282.511481 
L 92.691441 277.88956 
L 93.015418 277.58708 
L 93.372617 277.449623 
L 93.763991 277.481912 
L 94.188487 277.67873 
L 95.123125 278.497772 
L 98.585007 282.311409 
L 99.006295 282.492289 
L 99.394266 282.507675 
L 99.748067 282.353339 
L 100.06885 282.034995 
L 100.625446 280.976251 
L 102.394412 276.380931 
L 102.721611 276.09446 
L 103.082218 275.973929 
L 103.476984 276.02307 
L 103.90466 276.235676 
L 104.844292 277.079529 
L 107.85164 280.547145 
L 108.718621 281.03013 
L 109.10318 281.02857 
L 109.453595 280.857413 
L 109.771215 280.523358 
L 110.322872 279.440084 
L 111.798295 275.298413 
L 112.097691 274.873834 
L 112.428141 274.603508 
L 112.792163 274.499941 
L 113.190309 274.565869 
L 113.621131 274.794107 
L 114.565645 275.662207 
L 117.56981 279.114013 
L 118.430611 279.566299 
L 118.811751 279.547761 
L 119.158793 279.359851 
L 119.473283 279.010247 
L 120.020117 277.903013 
L 121.498948 273.778269 
L 121.801282 273.368287 
L 122.135007 273.114232 
L 122.50245 273.027655 
L 122.903961 273.1103 
L 123.800713 273.741157 
L 124.790666 274.83496 
L 126.817179 277.254064 
L 127.730762 277.968526 
L 128.142262 278.100789 
L 128.51998 278.065249 
L 128.863665 277.860663 
L 129.175059 277.495684 
L 129.717187 276.365074 
L 131.199874 272.259485 
L 131.505188 271.864307 
L 131.842213 271.626639 
L 132.21308 271.55707 
L 132.61794 271.65635 
L 133.520395 272.315535 
L 135.027063 274.064216 
L 136.537317 275.830711 
L 137.445384 276.51777 
L 137.853574 276.633592 
L 138.227867 276.58104 
L 138.568212 276.359864 
L 139.156685 275.459457 
L 139.655556 274.113984 
L 139.888812 273.360887 
L 139.888812 273.360887 
" clip-path="url(#p09d740d80c)" style="fill: none; stroke: #8c564b; stroke-linecap: square"/>
   </g>
   <g id="line2d_7">
    <path d="M 43.168812 276.513656 
L 43.870286 274.262823 
L 44.151401 273.747441 
L 44.4687 273.411791 
L 44.826157 273.275613 
L 45.224903 273.344526 
L 45.663148 273.609631 
L 46.637307 274.624985 
L 49.21305 277.860474 
L 49.671072 278.223819 
L 50.091769 278.401762 
L 50.471795 278.377686 
L 50.810683 278.149273 
L 51.110879 277.728672 
L 51.618305 276.425696 
L 52.78667 272.67054 
L 53.083567 272.233551 
L 53.418793 271.986951 
L 53.795054 271.944175 
L 54.21215 272.10423 
L 55.15381 272.958155 
L 58.218271 276.709461 
L 58.659919 276.99147 
L 59.062373 277.078802 
L 59.423581 276.961255 
L 59.744408 276.643129 
L 60.282409 275.492021 
L 61.709885 271.112192 
L 62.023689 270.759183 
L 62.377405 270.604421 
L 62.772428 270.654841 
L 63.207231 270.902851 
L 64.176291 271.892873 
L 66.755203 275.144106 
L 67.216359 275.523014 
L 67.640629 275.718708 
L 68.024415 275.713311 
L 68.366985 275.503187 
L 68.670524 275.099187 
L 69.18271 273.819856 
L 70.346867 270.043798 
L 70.640509 269.590645 
L 70.972097 269.325969 
L 71.344592 269.264485 
L 71.75806 269.406525 
L 72.209669 269.738011 
L 73.202863 270.847911 
L 75.28297 273.533229 
L 76.206789 274.298535 
L 76.612935 274.404202 
L 76.977901 274.305322 
L 77.302287 274.004872 
L 77.845832 272.881303 
L 79.268666 268.478417 
L 79.579011 268.108223 
L 79.928997 267.934935 
L 80.320284 267.966798 
L 80.751609 268.197535 
L 81.715438 269.161574 
L 84.297101 272.426472 
L 84.761338 272.820686 
L 85.189152 273.033981 
L 85.576693 273.047235 
L 85.922963 272.855489 
L 86.229885 272.468295 
L 86.74697 271.213295 
L 87.907332 267.418389 
L 88.197768 266.949306 
L 88.525741 266.666677 
L 88.89447 266.586488 
L 89.304288 266.710395 
L 89.752619 267.025604 
L 90.741266 268.112914 
L 92.823462 270.808608 
L 93.753337 271.603995 
L 94.163155 271.727901 
L 94.531884 271.647713 
L 94.859857 271.365084 
L 95.409066 270.269647 
L 96.82774 265.846094 
L 97.134662 265.458901 
L 97.480932 265.267154 
L 97.868473 265.280408 
L 98.296287 265.493703 
L 99.254757 266.431125 
L 102.306016 270.116854 
L 102.737341 270.347591 
L 103.128628 270.379454 
L 103.478614 270.206166 
L 103.788959 269.835973 
L 104.311078 268.605976 
L 105.468061 264.794288 
L 105.755338 264.309517 
L 106.079724 264.009068 
L 106.44469 263.910187 
L 106.850836 264.015855 
L 107.295846 264.314568 
L 108.279802 265.378582 
L 110.847956 268.576379 
L 111.299565 268.907865 
L 111.713033 269.049904 
L 112.085528 268.98842 
L 112.417116 268.723745 
L 112.710758 268.270592 
L 113.20909 266.922439 
L 114.117647 263.7885 
L 114.69064 262.811202 
L 115.03321 262.601078 
L 115.416996 262.595682 
L 115.841266 262.791375 
L 116.794254 263.701562 
L 119.850394 267.411538 
L 120.285197 267.659548 
L 120.68022 267.709968 
L 121.033936 267.555206 
L 121.34774 267.202198 
L 121.875025 265.99786 
L 123.029048 262.171468 
L 123.313217 261.67126 
L 123.634044 261.353134 
L 123.995252 261.235587 
L 124.397706 261.32292 
L 124.839354 261.604928 
L 125.81848 262.644952 
L 128.390636 265.862625 
L 128.845475 266.21016 
L 129.262571 266.370215 
L 129.638832 266.327439 
L 129.974058 266.080839 
L 130.270955 265.64385 
L 130.773762 264.317929 
L 131.680058 261.172755 
L 132.246942 260.165116 
L 132.58583 259.936703 
L 132.965856 259.912627 
L 133.386553 260.09057 
L 134.333936 260.97292 
L 137.394477 264.704759 
L 137.832722 264.969863 
L 138.231468 265.038776 
L 138.588925 264.902598 
L 138.906224 264.566949 
L 139.438804 263.388913 
L 139.888812 261.800733 
L 139.888812 261.800733 
" clip-path="url(#p09d740d80c)" style="fill: none; stroke: #e377c2; stroke-linecap: square"/>
   </g>
   <g id="line2d_8">
    <path d="M 497.752812 279.456241 
L 498.901129 277.144697 
L 499.666674 275.987782 
L 500.432218 275.346899 
L 500.81499 275.253244 
L 501.197762 275.3174 
L 501.580535 275.536957 
L 502.346079 276.403775 
L 503.111623 277.724735 
L 505.408257 282.290466 
L 506.173801 283.254629 
L 506.556573 283.530642 
L 506.939345 283.653673 
L 507.322118 283.619102 
L 507.70489 283.428228 
L 508.470434 282.611836 
L 509.235979 281.325959 
L 511.915384 276.169662 
L 512.680928 275.422175 
L 513.063701 275.269932 
L 513.446473 275.274872 
L 513.829245 275.43681 
L 514.594789 276.201694 
L 515.360334 277.450786 
L 518.039739 282.645291 
L 518.805284 283.44463 
L 519.188056 283.625885 
L 519.570828 283.650582 
L 519.9536 283.517794 
L 520.336372 283.232505 
L 521.101917 282.252601 
L 522.250233 280.065957 
L 523.781322 276.97713 
L 524.546867 275.876674 
L 525.312411 275.308782 
L 525.695183 275.254481 
L 526.077955 275.357944 
L 526.460728 275.615286 
L 527.226272 276.547543 
L 527.991816 277.912552 
L 530.28845 282.4377 
L 531.053994 283.337503 
L 531.436766 283.576022 
L 531.819538 283.659856 
L 532.202311 283.585856 
L 532.585083 283.356801 
L 533.350627 282.473426 
L 534.116172 281.141158 
L 536.412805 276.584568 
L 537.178349 275.636288 
L 537.561121 275.369591 
L 537.943894 275.256336 
L 538.326666 275.300775 
L 538.709438 275.50124 
L 539.474982 276.334564 
L 540.240527 277.632327 
L 542.919932 282.774369 
L 543.685477 283.504348 
L 544.068249 283.646874 
L 544.451021 283.632055 
L 544.833793 283.460445 
L 545.599338 282.678276 
L 546.364882 281.416737 
L 549.044287 276.234206 
L 549.809832 275.452036 
L 550.192604 275.280427 
L 550.575376 275.265607 
L 550.958148 275.408134 
L 551.340921 275.702655 
L 552.106465 276.698157 
L 553.254782 278.897019 
L 554.78587 281.976347 
L 555.551415 283.062278 
L 556.316959 283.611706 
L 556.699731 283.656146 
L 557.082504 283.54289 
L 557.465276 283.276193 
L 558.23082 282.327914 
L 558.996365 280.95239 
L 561.292998 276.439056 
L 562.058542 275.555681 
L 562.441314 275.326626 
L 562.824087 275.252626 
L 563.206859 275.33646 
L 563.589631 275.574979 
L 564.355175 276.474781 
L 565.12072 277.818161 
L 567.417353 282.364939 
L 568.182897 283.297196 
L 568.56567 283.554538 
L 568.948442 283.658001 
L 569.331214 283.603699 
L 569.713986 283.393673 
L 570.479531 282.543539 
L 571.245075 281.234082 
L 573.541708 276.659881 
L 574.307253 275.679976 
L 574.690025 275.394688 
L 575.072797 275.2619 
L 575.455569 275.286597 
L 575.838341 275.467852 
L 576.603886 276.267191 
L 577.36943 277.540993 
L 580.048836 282.710787 
L 580.81438 283.475672 
L 581.197152 283.63761 
L 581.579924 283.64255 
L 581.962697 283.490306 
L 582.728241 282.74282 
L 583.493785 281.50636 
L 586.173191 276.300645 
L 586.938735 275.484254 
L 587.321507 275.29338 
L 587.70428 275.258809 
L 588.087052 275.38184 
L 588.469824 275.657853 
L 589.235368 276.622016 
L 590.383685 278.796121 
L 591.914774 281.893992 
L 592.680318 283.00881 
L 593.445863 283.595082 
L 593.828635 283.659237 
L 594.211407 283.565582 
L 594.594179 283.317633 
L 595.359724 282.401536 
L 596.125268 281.047242 
L 596.890813 279.456241 
L 596.890813 279.456241 
" clip-path="url(#p09d740d80c)" style="fill: none; stroke: #7f7f7f; stroke-width: 1.5; stroke-linecap: square"/>
   </g>
   <g id="text_1">
    <!-- stato fondamentale -->
    <g transform="translate(575.128812 340.22657) scale(0.1 -0.1)">
     <defs>
      <path id="DejaVuSans-73" d="M 2834 3397 
L 2834 2853 
Q 2591 2978 2328 3040 
Q 2066 3103 1784 3103 
Q 1356 3103 1142 2972 
Q 928 2841 928 2578 
Q 928 2378 1081 2264 
Q 1234 2150 1697 2047 
L 1894 2003 
Q 2506 1872 2764 1633 
Q 3022 1394 3022 966 
Q 3022 478 2636 193 
Q 2250 -91 1575 -91 
Q 1294 -91 989 -36 
Q 684 19 347 128 
L 347 722 
Q 666 556 975 473 
Q 1284 391 1588 391 
Q 1994 391 2212 530 
Q 2431 669 2431 922 
Q 2431 1156 2273 1281 
Q 2116 1406 1581 1522 
L 1381 1569 
Q 847 1681 609 1914 
Q 372 2147 372 2553 
Q 372 3047 722 3315 
Q 1072 3584 1716 3584 
Q 2034 3584 2315 3537 
Q 2597 3491 2834 3397 
z
" transform="scale(0.015625)"/>
      <path id="DejaVuSans-74" d="M 1172 4494 
L 1172 3500 
L 2356 3500 
L 2356 3053 
L 1172 3053 
L 1172 1153 
Q 1172 725 1289 603 
Q 1406 481 1766 481 
L 2356 481 
L 2356 0 
L 1766 0 
Q 1100 0 847 248 
Q 594 497 594 1153 
L 594 3053 
L 172 3053 
L 172 3500 
L 594 3500 
L 594 4494 
L 1172 4494 
z
" transform="scale(0.015625)"/>
      <path id="DejaVuSans-61" d="M 2194 1759 
Q 1497 1759 1228 1600 
Q 959 1441 959 1056 
Q 959 750 1161 570 
Q 1363 391 1709 391 
Q 2188 391 2477 730 
Q 2766 1069 2766 1631 
L 2766 1759 
L 2194 1759 
z
M 3341 1997 
L 3341 0 
L 2766 0 
L 2766 531 
Q 2569 213 2275 61 
Q 1981 -91 1556 -91 
Q 1019 -91 701 211 
Q 384 513 384 1019 
Q 384 1609 779 1909 
Q 1175 2209 1959 2209 
L 2766 2209 
L 2766 2266 
Q 2766 2663 2505 2880 
Q 2244 3097 1772 3097 
Q 1472 3097 1187 3025 
Q 903 2953 641 2809 
L 641 3341 
Q 956 3463 1253 3523 
Q 1550 3584 1831 3584 
Q 2591 3584 2966 3190 
Q 3341 2797 3341 1997 
z
" transform="scale(0.015625)"/>
      <path id="DejaVuSans-6f" d="M 1959 3097 
Q 1497 3097 1228 2736 
Q 959 2375 959 1747 
Q 959 1119 1226 758 
Q 1494 397 1959 397 
Q 2419 397 2687 759 
Q 2956 1122 2956 1747 
Q 2956 2369 2687 2733 
Q 2419 3097 1959 3097 
z
M 1959 3584 
Q 2709 3584 3137 3096 
Q 3566 2609 3566 1747 
Q 3566 888 3137 398 
Q 2709 -91 1959 -91 
Q 1206 -91 779 398 
Q 353 888 353 1747 
Q 353 2609 779 3096 
Q 1206 3584 1959 3584 
z
" transform="scale(0.015625)"/>
      <path id="DejaVuSans-20" transform="scale(0.015625)"/>
      <path id="DejaVuSans-66" d="M 2375 4863 
L 2375 4384 
L 1825 4384 
Q 1516 4384 1395 4259 
Q 1275 4134 1275 3809 
L 1275 3500 
L 2222 3500 
L 2222 3053 
L 1275 3053 
L 1275 0 
L 697 0 
L 697 3053 
L 147 3053 
L 147 3500 
L 697 3500 
L 697 3744 
Q 697 4328 969 4595 
Q 1241 4863 1831 4863 
L 2375 4863 
z
" transform="scale(0.015625)"/>
      <path id="DejaVuSans-6e" d="M 3513 2113 
L 3513 0 
L 2938 0 
L 2938 2094 
Q 2938 2591 2744 2837 
Q 2550 3084 2163 3084 
Q 1697 3084 1428 2787 
Q 1159 2491 1159 1978 
L 1159 0 
L 581 0 
L 581 3500 
L 1159 3500 
L 1159 2956 
Q 1366 3272 1645 3428 
Q 1925 3584 2291 3584 
Q 2894 3584 3203 3211 
Q 3513 2838 3513 2113 
z
" transform="scale(0.015625)"/>
      <path id="DejaVuSans-64" d="M 2906 2969 
L 2906 4863 
L 3481 4863 
L 3481 0 
L 2906 0 
L 2906 525 
Q 2725 213 2448 61 
Q 2172 -91 1784 -91 
Q 1150 -91 751 415 
Q 353 922 353 1747 
Q 353 2572 751 3078 
Q 1150 3584 1784 3584 
Q 2172 3584 2448 3432 
Q 2725 3281 2906 2969 
z
M 947 1747 
Q 947 1113 1208 752 
Q 1469 391 1925 391 
Q 2381 391 2643 752 
Q 2906 1113 2906 1747 
Q 2906 2381 2643 2742 
Q 2381 3103 1925 3103 
Q 1469 3103 1208 2742 
Q 947 2381 947 1747 
z
" transform="scale(0.015625)"/>
      <path id="DejaVuSans-6d" d="M 3328 2828 
Q 3544 3216 3844 3400 
Q 4144 3584 4550 3584 
Q 5097 3584 5394 3201 
Q 5691 2819 5691 2113 
L 5691 0 
L 5113 0 
L 5113 2094 
Q 5113 2597 4934 2840 
Q 4756 3084 4391 3084 
Q 3944 3084 3684 2787 
Q 3425 2491 3425 1978 
L 3425 0 
L 2847 0 
L 2847 2094 
Q 2847 2600 2669 2842 
Q 2491 3084 2119 3084 
Q 1678 3084 1418 2786 
Q 1159 2488 1159 1978 
L 1159 0 
L 581 0 
L 581 3500 
L 1159 3500 
L 1159 2956 
Q 1356 3278 1631 3431 
Q 1906 3584 2284 3584 
Q 2666 3584 2933 3390 
Q 3200 3197 3328 2828 
z
" transform="scale(0.015625)"/>
      <path id="DejaVuSans-65" d="M 3597 1894 
L 3597 1613 
L 953 1613 
Q 991 1019 1311 708 
Q 1631 397 2203 397 
Q 2534 397 2845 478 
Q 3156 559 3463 722 
L 3463 178 
Q 3153 47 2828 -22 
Q 2503 -91 2169 -91 
Q 1331 -91 842 396 
Q 353 884 353 1716 
Q 353 2575 817 3079 
Q 1281 3584 2069 3584 
Q 2775 3584 3186 3129 
Q 3597 2675 3597 1894 
z
M 3022 2063 
Q 3016 2534 2758 2815 
Q 2500 3097 2075 3097 
Q 1594 3097 1305 2825 
Q 1016 2553 972 2059 
L 3022 2063 
z
" transform="scale(0.015625)"/>
      <path id="DejaVuSans-6c" d="M 603 4863 
L 1178 4863 
L 1178 0 
L 603 0 
L 603 4863 
z
" transform="scale(0.015625)"/>
     </defs>
     <use xlink:href="#DejaVuSans-73"/>
     <use xlink:href="#DejaVuSans-74" transform="translate(52.099609 0)"/>
     <use xlink:href="#DejaVuSans-61" transform="translate(91.308594 0)"/>
     <use xlink:href="#DejaVuSans-74" transform="translate(152.587891 0)"/>
     <use xlink:href="#DejaVuSans-6f" transform="translate(191.796875 0)"/>
     <use xlink:href="#DejaVuSans-20" transform="translate(252.978516 0)"/>
     <use xlink:href="#DejaVuSans-66" transform="translate(284.765625 0)"/>
     <use xlink:href="#DejaVuSans-6f" transform="translate(319.970703 0)"/>
     <use xlink:href="#DejaVuSans-6e" transform="translate(381.152344 0)"/>
     <use xlink:href="#DejaVuSans-64" transform="translate(444.53125 0)"/>
     <use xlink:href="#DejaVuSans-61" transform="translate(508.007812 0)"/>
     <use xlink:href="#DejaVuSans-6d" transform="translate(569.287109 0)"/>
     <use xlink:href="#DejaVuSans-65" transform="translate(666.699219 0)"/>
     <use xlink:href="#DejaVuSans-6e" transform="translate(728.222656 0)"/>
     <use xlink:href="#DejaVuSans-74" transform="translate(791.601562 0)"/>
     <use xlink:href="#DejaVuSans-61" transform="translate(830.810547 0)"/>
     <use xlink:href="#DejaVuSans-6c" transform="translate(892.089844 0)"/>
     <use xlink:href="#DejaVuSans-65" transform="translate(919.873047 0)"/>
    </g>
   </g>
   <g id="text_2">
    <!-- livello metastabile -->
    <g transform="translate(575.128812 226.726877) scale(0.1 -0.1)">
     <defs>
      <path id="DejaVuSans-69" d="M 603 3500 
L 1178 3500 
L 1178 0 
L 603 0 
L 603 3500 
z
M 603 4863 
L 1178 4863 
L 1178 4134 
L 603 4134 
L 603 4863 
z
" transform="scale(0.015625)"/>
      <path id="DejaVuSans-76" d="M 191 3500 
L 800 3500 
L 1894 563 
L 2988 3500 
L 3597 3500 
L 2284 0 
L 1503 0 
L 191 3500 
z
" transform="scale(0.015625)"/>
      <path id="DejaVuSans-62" d="M 3116 1747 
Q 3116 2381 2855 2742 
Q 2594 3103 2138 3103 
Q 1681 3103 1420 2742 
Q 1159 2381 1159 1747 
Q 1159 1113 1420 752 
Q 1681 391 2138 391 
Q 2594 391 2855 752 
Q 3116 1113 3116 1747 
z
M 1159 2969 
Q 1341 3281 1617 3432 
Q 1894 3584 2278 3584 
Q 2916 3584 3314 3078 
Q 3713 2572 3713 1747 
Q 3713 922 3314 415 
Q 2916 -91 2278 -91 
Q 1894 -91 1617 61 
Q 1341 213 1159 525 
L 1159 0 
L 581 0 
L 581 4863 
L 1159 4863 
L 1159 2969 
z
" transform="scale(0.015625)"/>
     </defs>
     <use xlink:href="#DejaVuSans-6c"/>
     <use xlink:href="#DejaVuSans-69" transform="translate(27.783203 0)"/>
     <use xlink:href="#DejaVuSans-76" transform="translate(55.566406 0)"/>
     <use xlink:href="#DejaVuSans-65" transform="translate(114.746094 0)"/>
     <use xlink:href="#DejaVuSans-6c" transform="translate(176.269531 0)"/>
     <use xlink:href="#DejaVuSans-6c" transform="translate(204.052734 0)"/>
     <use xlink:href="#DejaVuSans-6f" transform="translate(231.835938 0)"/>
     <use xlink:href="#DejaVuSans-20" transform="translate(293.017578 0)"/>
     <use xlink:href="#DejaVuSans-6d" transform="translate(324.804688 0)"/>
     <use xlink:href="#DejaVuSans-65" transform="translate(422.216797 0)"/>
     <use xlink:href="#DejaVuSans-74" transform="translate(483.740234 0)"/>
     <use xlink:href="#DejaVuSans-61" transform="translate(522.949219 0)"/>
     <use xlink:href="#DejaVuSans-73" transform="translate(584.228516 0)"/>
     <use xlink:href="#DejaVuSans-74" transform="translate(636.328125 0)"/>
     <use xlink:href="#DejaVuSans-61" transform="translate(675.537109 0)"/>
     <use xlink:href="#DejaVuSans-62" transform="translate(736.816406 0)"/>
     <use xlink:href="#DejaVuSans-69" transform="translate(800.292969 0)"/>
     <use xlink:href="#DejaVuSans-6c" transform="translate(828.076172 0)"/>
     <use xlink:href="#DejaVuSans-65" transform="translate(855.859375 0)"/>
    </g>
   </g>
   <g id="text_3">
    <!-- banda di pompaggio -->
    <g transform="translate(232.080594 57.921656) scale(0.1 -0.1)">
     <defs>
      <path id="DejaVuSans-Bold-62" d="M 2400 722 
Q 2759 722 2948 984 
Q 3138 1247 3138 1747 
Q 3138 2247 2948 2509 
Q 2759 2772 2400 2772 
Q 2041 2772 1848 2508 
Q 1656 2244 1656 1747 
Q 1656 1250 1848 986 
Q 2041 722 2400 722 
z
M 1656 2988 
Q 1888 3294 2169 3439 
Q 2450 3584 2816 3584 
Q 3463 3584 3878 3070 
Q 4294 2556 4294 1747 
Q 4294 938 3878 423 
Q 3463 -91 2816 -91 
Q 2450 -91 2169 54 
Q 1888 200 1656 506 
L 1656 0 
L 538 0 
L 538 4863 
L 1656 4863 
L 1656 2988 
z
" transform="scale(0.015625)"/>
      <path id="DejaVuSans-Bold-61" d="M 2106 1575 
Q 1756 1575 1579 1456 
Q 1403 1338 1403 1106 
Q 1403 894 1545 773 
Q 1688 653 1941 653 
Q 2256 653 2472 879 
Q 2688 1106 2688 1447 
L 2688 1575 
L 2106 1575 
z
M 3816 1997 
L 3816 0 
L 2688 0 
L 2688 519 
Q 2463 200 2181 54 
Q 1900 -91 1497 -91 
Q 953 -91 614 226 
Q 275 544 275 1050 
Q 275 1666 698 1953 
Q 1122 2241 2028 2241 
L 2688 2241 
L 2688 2328 
Q 2688 2594 2478 2717 
Q 2269 2841 1825 2841 
Q 1466 2841 1156 2769 
Q 847 2697 581 2553 
L 581 3406 
Q 941 3494 1303 3539 
Q 1666 3584 2028 3584 
Q 2975 3584 3395 3211 
Q 3816 2838 3816 1997 
z
" transform="scale(0.015625)"/>
      <path id="DejaVuSans-Bold-6e" d="M 4056 2131 
L 4056 0 
L 2931 0 
L 2931 347 
L 2931 1631 
Q 2931 2084 2911 2256 
Q 2891 2428 2841 2509 
Q 2775 2619 2662 2680 
Q 2550 2741 2406 2741 
Q 2056 2741 1856 2470 
Q 1656 2200 1656 1722 
L 1656 0 
L 538 0 
L 538 3500 
L 1656 3500 
L 1656 2988 
Q 1909 3294 2193 3439 
Q 2478 3584 2822 3584 
Q 3428 3584 3742 3212 
Q 4056 2841 4056 2131 
z
" transform="scale(0.015625)"/>
      <path id="DejaVuSans-Bold-64" d="M 2919 2988 
L 2919 4863 
L 4044 4863 
L 4044 0 
L 2919 0 
L 2919 506 
Q 2688 197 2409 53 
Q 2131 -91 1766 -91 
Q 1119 -91 703 423 
Q 288 938 288 1747 
Q 288 2556 703 3070 
Q 1119 3584 1766 3584 
Q 2128 3584 2408 3439 
Q 2688 3294 2919 2988 
z
M 2181 722 
Q 2541 722 2730 984 
Q 2919 1247 2919 1747 
Q 2919 2247 2730 2509 
Q 2541 2772 2181 2772 
Q 1825 2772 1636 2509 
Q 1447 2247 1447 1747 
Q 1447 1247 1636 984 
Q 1825 722 2181 722 
z
" transform="scale(0.015625)"/>
      <path id="DejaVuSans-Bold-20" transform="scale(0.015625)"/>
      <path id="DejaVuSans-Bold-69" d="M 538 3500 
L 1656 3500 
L 1656 0 
L 538 0 
L 538 3500 
z
M 538 4863 
L 1656 4863 
L 1656 3950 
L 538 3950 
L 538 4863 
z
" transform="scale(0.015625)"/>
      <path id="DejaVuSans-Bold-70" d="M 1656 506 
L 1656 -1331 
L 538 -1331 
L 538 3500 
L 1656 3500 
L 1656 2988 
Q 1888 3294 2169 3439 
Q 2450 3584 2816 3584 
Q 3463 3584 3878 3070 
Q 4294 2556 4294 1747 
Q 4294 938 3878 423 
Q 3463 -91 2816 -91 
Q 2450 -91 2169 54 
Q 1888 200 1656 506 
z
M 2400 2772 
Q 2041 2772 1848 2508 
Q 1656 2244 1656 1747 
Q 1656 1250 1848 986 
Q 2041 722 2400 722 
Q 2759 722 2948 984 
Q 3138 1247 3138 1747 
Q 3138 2247 2948 2509 
Q 2759 2772 2400 2772 
z
" transform="scale(0.015625)"/>
      <path id="DejaVuSans-Bold-6f" d="M 2203 2784 
Q 1831 2784 1636 2517 
Q 1441 2250 1441 1747 
Q 1441 1244 1636 976 
Q 1831 709 2203 709 
Q 2569 709 2762 976 
Q 2956 1244 2956 1747 
Q 2956 2250 2762 2517 
Q 2569 2784 2203 2784 
z
M 2203 3584 
Q 3106 3584 3614 3096 
Q 4122 2609 4122 1747 
Q 4122 884 3614 396 
Q 3106 -91 2203 -91 
Q 1297 -91 786 396 
Q 275 884 275 1747 
Q 275 2609 786 3096 
Q 1297 3584 2203 3584 
z
" transform="scale(0.015625)"/>
      <path id="DejaVuSans-Bold-6d" d="M 3781 2919 
Q 3994 3244 4286 3414 
Q 4578 3584 4928 3584 
Q 5531 3584 5847 3212 
Q 6163 2841 6163 2131 
L 6163 0 
L 5038 0 
L 5038 1825 
Q 5041 1866 5042 1909 
Q 5044 1953 5044 2034 
Q 5044 2406 4934 2573 
Q 4825 2741 4581 2741 
Q 4263 2741 4089 2478 
Q 3916 2216 3909 1719 
L 3909 0 
L 2784 0 
L 2784 1825 
Q 2784 2406 2684 2573 
Q 2584 2741 2328 2741 
Q 2006 2741 1831 2477 
Q 1656 2213 1656 1722 
L 1656 0 
L 531 0 
L 531 3500 
L 1656 3500 
L 1656 2988 
Q 1863 3284 2130 3434 
Q 2397 3584 2719 3584 
Q 3081 3584 3359 3409 
Q 3638 3234 3781 2919 
z
" transform="scale(0.015625)"/>
      <path id="DejaVuSans-Bold-67" d="M 2919 594 
Q 2688 288 2409 144 
Q 2131 0 1766 0 
Q 1125 0 706 504 
Q 288 1009 288 1791 
Q 288 2575 706 3076 
Q 1125 3578 1766 3578 
Q 2131 3578 2409 3434 
Q 2688 3291 2919 2981 
L 2919 3500 
L 4044 3500 
L 4044 353 
Q 4044 -491 3511 -936 
Q 2978 -1381 1966 -1381 
Q 1638 -1381 1331 -1331 
Q 1025 -1281 716 -1178 
L 716 -306 
Q 1009 -475 1290 -558 
Q 1572 -641 1856 -641 
Q 2406 -641 2662 -400 
Q 2919 -159 2919 353 
L 2919 594 
z
M 2181 2772 
Q 1834 2772 1640 2515 
Q 1447 2259 1447 1791 
Q 1447 1309 1634 1061 
Q 1822 813 2181 813 
Q 2531 813 2725 1069 
Q 2919 1325 2919 1791 
Q 2919 2259 2725 2515 
Q 2531 2772 2181 2772 
z
" transform="scale(0.015625)"/>
     </defs>
     <use xlink:href="#DejaVuSans-Bold-62"/>
     <use xlink:href="#DejaVuSans-Bold-61" transform="translate(71.582031 0)"/>
     <use xlink:href="#DejaVuSans-Bold-6e" transform="translate(139.0625 0)"/>
     <use xlink:href="#DejaVuSans-Bold-64" transform="translate(210.253906 0)"/>
     <use xlink:href="#DejaVuSans-Bold-61" transform="translate(281.835938 0)"/>
     <use xlink:href="#DejaVuSans-Bold-20" transform="translate(349.316406 0)"/>
     <use xlink:href="#DejaVuSans-Bold-64" transform="translate(384.130859 0)"/>
     <use xlink:href="#DejaVuSans-Bold-69" transform="translate(455.712891 0)"/>
     <use xlink:href="#DejaVuSans-Bold-20" transform="translate(489.990234 0)"/>
     <use xlink:href="#DejaVuSans-Bold-70" transform="translate(524.804688 0)"/>
     <use xlink:href="#DejaVuSans-Bold-6f" transform="translate(596.386719 0)"/>
     <use xlink:href="#DejaVuSans-Bold-6d" transform="translate(665.087891 0)"/>
     <use xlink:href="#DejaVuSans-Bold-70" transform="translate(769.287109 0)"/>
     <use xlink:href="#DejaVuSans-Bold-61" transform="translate(840.869141 0)"/>
     <use xlink:href="#DejaVuSans-Bold-67" transform="translate(908.349609 0)"/>
     <use xlink:href="#DejaVuSans-Bold-67" transform="translate(979.931641 0)"/>
     <use xlink:href="#DejaVuSans-Bold-69" transform="translate(1051.513672 0)"/>
     <use xlink:href="#DejaVuSans-Bold-6f" transform="translate(1085.791016 0)"/>
    </g>
   </g>
   <g id="text_4">
    <!-- radiazione di pompaggio -->
    <g transform="translate(33.360031 249.620856) scale(0.09 -0.09)">
     <defs>
      <path id="DejaVuSans-72" d="M 2631 2963 
Q 2534 3019 2420 3045 
Q 2306 3072 2169 3072 
Q 1681 3072 1420 2755 
Q 1159 2438 1159 1844 
L 1159 0 
L 581 0 
L 581 3500 
L 1159 3500 
L 1159 2956 
Q 1341 3275 1631 3429 
Q 1922 3584 2338 3584 
Q 2397 3584 2469 3576 
Q 2541 3569 2628 3553 
L 2631 2963 
z
" transform="scale(0.015625)"/>
      <path id="DejaVuSans-7a" d="M 353 3500 
L 3084 3500 
L 3084 2975 
L 922 459 
L 3084 459 
L 3084 0 
L 275 0 
L 275 525 
L 2438 3041 
L 353 3041 
L 353 3500 
z
" transform="scale(0.015625)"/>
      <path id="DejaVuSans-70" d="M 1159 525 
L 1159 -1331 
L 581 -1331 
L 581 3500 
L 1159 3500 
L 1159 2969 
Q 1341 3281 1617 3432 
Q 1894 3584 2278 3584 
Q 2916 3584 3314 3078 
Q 3713 2572 3713 1747 
Q 3713 922 3314 415 
Q 2916 -91 2278 -91 
Q 1894 -91 1617 61 
Q 1341 213 1159 525 
z
M 3116 1747 
Q 3116 2381 2855 2742 
Q 2594 3103 2138 3103 
Q 1681 3103 1420 2742 
Q 1159 2381 1159 1747 
Q 1159 1113 1420 752 
Q 1681 391 2138 391 
Q 2594 391 2855 752 
Q 3116 1113 3116 1747 
z
" transform="scale(0.015625)"/>
      <path id="DejaVuSans-67" d="M 2906 1791 
Q 2906 2416 2648 2759 
Q 2391 3103 1925 3103 
Q 1463 3103 1205 2759 
Q 947 2416 947 1791 
Q 947 1169 1205 825 
Q 1463 481 1925 481 
Q 2391 481 2648 825 
Q 2906 1169 2906 1791 
z
M 3481 434 
Q 3481 -459 3084 -895 
Q 2688 -1331 1869 -1331 
Q 1566 -1331 1297 -1286 
Q 1028 -1241 775 -1147 
L 775 -588 
Q 1028 -725 1275 -790 
Q 1522 -856 1778 -856 
Q 2344 -856 2625 -561 
Q 2906 -266 2906 331 
L 2906 616 
Q 2728 306 2450 153 
Q 2172 0 1784 0 
Q 1141 0 747 490 
Q 353 981 353 1791 
Q 353 2603 747 3093 
Q 1141 3584 1784 3584 
Q 2172 3584 2450 3431 
Q 2728 3278 2906 2969 
L 2906 3500 
L 3481 3500 
L 3481 434 
z
" transform="scale(0.015625)"/>
     </defs>
     <use xlink:href="#DejaVuSans-72"/>
     <use xlink:href="#DejaVuSans-61" transform="translate(41.113281 0)"/>
     <use xlink:href="#DejaVuSans-64" transform="translate(102.392578 0)"/>
     <use xlink:href="#DejaVuSans-69" transform="translate(165.869141 0)"/>
     <use xlink:href="#DejaVuSans-61" transform="translate(193.652344 0)"/>
     <use xlink:href="#DejaVuSans-7a" transform="translate(254.931641 0)"/>
     <use xlink:href="#DejaVuSans-69" transform="translate(307.421875 0)"/>
     <use xlink:href="#DejaVuSans-6f" transform="translate(335.205078 0)"/>
     <use xlink:href="#DejaVuSans-6e" transform="translate(396.386719 0)"/>
     <use xlink:href="#DejaVuSans-65" transform="translate(459.765625 0)"/>
     <use xlink:href="#DejaVuSans-20" transform="translate(521.289062 0)"/>
     <use xlink:href="#DejaVuSans-64" transform="translate(553.076172 0)"/>
     <use xlink:href="#DejaVuSans-69" transform="translate(616.552734 0)"/>
     <use xlink:href="#DejaVuSans-20" transform="translate(644.335938 0)"/>
     <use xlink:href="#DejaVuSans-70" transform="translate(676.123047 0)"/>
     <use xlink:href="#DejaVuSans-6f" transform="translate(739.599609 0)"/>
     <use xlink:href="#DejaVuSans-6d" transform="translate(800.78125 0)"/>
     <use xlink:href="#DejaVuSans-70" transform="translate(898.193359 0)"/>
     <use xlink:href="#DejaVuSans-61" transform="translate(961.669922 0)"/>
     <use xlink:href="#DejaVuSans-67" transform="translate(1022.949219 0)"/>
     <use xlink:href="#DejaVuSans-67" transform="translate(1086.425781 0)"/>
     <use xlink:href="#DejaVuSans-69" transform="translate(1149.902344 0)"/>
     <use xlink:href="#DejaVuSans-6f" transform="translate(1177.685547 0)"/>
    </g>
    <!-- non monocromatica -->
    <g transform="translate(44.117844 259.698887) scale(0.09 -0.09)">
     <defs>
      <path id="DejaVuSans-63" d="M 3122 3366 
L 3122 2828 
Q 2878 2963 2633 3030 
Q 2388 3097 2138 3097 
Q 1578 3097 1268 2742 
Q 959 2388 959 1747 
Q 959 1106 1268 751 
Q 1578 397 2138 397 
Q 2388 397 2633 464 
Q 2878 531 3122 666 
L 3122 134 
Q 2881 22 2623 -34 
Q 2366 -91 2075 -91 
Q 1284 -91 818 406 
Q 353 903 353 1747 
Q 353 2603 823 3093 
Q 1294 3584 2113 3584 
Q 2378 3584 2631 3529 
Q 2884 3475 3122 3366 
z
" transform="scale(0.015625)"/>
     </defs>
     <use xlink:href="#DejaVuSans-6e"/>
     <use xlink:href="#DejaVuSans-6f" transform="translate(63.378906 0)"/>
     <use xlink:href="#DejaVuSans-6e" transform="translate(124.560547 0)"/>
     <use xlink:href="#DejaVuSans-20" transform="translate(187.939453 0)"/>
     <use xlink:href="#DejaVuSans-6d" transform="translate(219.726562 0)"/>
     <use xlink:href="#DejaVuSans-6f" transform="translate(317.138672 0)"/>
     <use xlink:href="#DejaVuSans-6e" transform="translate(378.320312 0)"/>
     <use xlink:href="#DejaVuSans-6f" transform="translate(441.699219 0)"/>
     <use xlink:href="#DejaVuSans-63" transform="translate(502.880859 0)"/>
     <use xlink:href="#DejaVuSans-72" transform="translate(557.861328 0)"/>
     <use xlink:href="#DejaVuSans-6f" transform="translate(596.724609 0)"/>
     <use xlink:href="#DejaVuSans-6d" transform="translate(657.90625 0)"/>
     <use xlink:href="#DejaVuSans-61" transform="translate(755.318359 0)"/>
     <use xlink:href="#DejaVuSans-74" transform="translate(816.597656 0)"/>
     <use xlink:href="#DejaVuSans-69" transform="translate(855.806641 0)"/>
     <use xlink:href="#DejaVuSans-63" transform="translate(883.589844 0)"/>
     <use xlink:href="#DejaVuSans-61" transform="translate(938.570312 0)"/>
    </g>
   </g>
   <g id="patch_3">
    <path d="M 212.428812 332.104806 
Q 212.428812 230.27283 212.428812 129.558888 
" style="fill: none; stroke: #000000; stroke-linecap: round"/>
    <path d="M 209.828812 134.758888 
L 212.428812 129.558888 
L 215.028812 134.758888 
z
" style="fill: #1f77b4; stroke: #000000; stroke-linecap: round"/>
   </g>
   <g id="patch_4">
    <path d="M 238.543212 332.104806 
Q 238.543212 230.27283 238.543212 129.558888 
" style="fill: none; stroke: #000000; stroke-linecap: round"/>
    <path d="M 235.943212 134.758888 
L 238.543212 129.558888 
L 241.143212 134.758888 
z
" style="fill: #1f77b4; stroke: #000000; stroke-linecap: round"/>
   </g>
   <g id="patch_5">
    <path d="M 264.657613 332.104806 
Q 264.657613 230.27283 264.657613 129.558888 
" style="fill: none; stroke: #000000; stroke-linecap: round"/>
    <path d="M 262.057613 134.758888 
L 264.657613 129.558888 
L 267.257613 134.758888 
z
" style="fill: #1f77b4; stroke: #000000; stroke-linecap: round"/>
   </g>
   <g id="patch_6">
    <path d="M 290.772012 332.104806 
Q 290.772012 230.27283 290.772012 129.558888 
" style="fill: none; stroke: #000000; stroke-linecap: round"/>
    <path d="M 288.172012 134.758888 
L 290.772012 129.558888 
L 293.372012 134.758888 
z
" style="fill: #1f77b4; stroke: #000000; stroke-linecap: round"/>
   </g>
   <g id="patch_7">
    <path d="M 316.886413 332.104806 
Q 316.886413 230.27283 316.886413 129.558888 
" style="fill: none; stroke: #000000; stroke-linecap: round"/>
    <path d="M 314.286412 134.758888 
L 316.886413 129.558888 
L 319.486413 134.758888 
z
" style="fill: #1f77b4; stroke: #000000; stroke-linecap: round"/>
   </g>
   <g id="patch_8">
    <path d="M 343.000812 332.104806 
Q 343.000812 230.27283 343.000812 129.558888 
" style="fill: none; stroke: #000000; stroke-linecap: round"/>
    <path d="M 340.400812 134.758888 
L 343.000812 129.558888 
L 345.600813 134.758888 
z
" style="fill: #1f77b4; stroke: #000000; stroke-linecap: round"/>
   </g>
   <g id="text_5">
    <!-- assorbimento -->
    <g transform="translate(247.036766 173.954394) scale(0.09 -0.09)">
     <use xlink:href="#DejaVuSans-61"/>
     <use xlink:href="#DejaVuSans-73" transform="translate(61.279297 0)"/>
     <use xlink:href="#DejaVuSans-73" transform="translate(113.378906 0)"/>
     <use xlink:href="#DejaVuSans-6f" transform="translate(165.478516 0)"/>
     <use xlink:href="#DejaVuSans-72" transform="translate(226.660156 0)"/>
     <use xlink:href="#DejaVuSans-62" transform="translate(267.773438 0)"/>
     <use xlink:href="#DejaVuSans-69" transform="translate(331.25 0)"/>
     <use xlink:href="#DejaVuSans-6d" transform="translate(359.033203 0)"/>
     <use xlink:href="#DejaVuSans-65" transform="translate(456.445312 0)"/>
     <use xlink:href="#DejaVuSans-6e" transform="translate(517.96875 0)"/>
     <use xlink:href="#DejaVuSans-74" transform="translate(581.347656 0)"/>
     <use xlink:href="#DejaVuSans-6f" transform="translate(620.556641 0)"/>
    </g>
    <!-- di pompaggio -->
    <g transform="translate(246.852547 184.032425) scale(0.09 -0.09)">
     <use xlink:href="#DejaVuSans-64"/>
     <use xlink:href="#DejaVuSans-69" transform="translate(63.476562 0)"/>
     <use xlink:href="#DejaVuSans-20" transform="translate(91.259766 0)"/>
     <use xlink:href="#DejaVuSans-70" transform="translate(123.046875 0)"/>
     <use xlink:href="#DejaVuSans-6f" transform="translate(186.523438 0)"/>
     <use xlink:href="#DejaVuSans-6d" transform="translate(247.705078 0)"/>
     <use xlink:href="#DejaVuSans-70" transform="translate(345.117188 0)"/>
     <use xlink:href="#DejaVuSans-61" transform="translate(408.59375 0)"/>
     <use xlink:href="#DejaVuSans-67" transform="translate(469.873047 0)"/>
     <use xlink:href="#DejaVuSans-67" transform="translate(533.349609 0)"/>
     <use xlink:href="#DejaVuSans-69" transform="translate(596.826172 0)"/>
     <use xlink:href="#DejaVuSans-6f" transform="translate(624.609375 0)"/>
    </g>
   </g>
   <g id="patch_9">
    <path d="M 364.762812 125.075949 
Q 364.762812 171.838843 364.762812 217.483702 
" style="fill: none; stroke-dasharray: 3.7,1.6; stroke-dashoffset: 0; stroke: #000000; stroke-linecap: round"/>
    <path d="M 367.362812 212.283702 
L 364.762812 217.483702 
L 362.162812 212.283702 
z
" style="fill: #1f77b4; stroke-dasharray: 3.7,1.6; stroke-dashoffset: 0; stroke: #000000; stroke-linecap: round"/>
   </g>
   <g id="patch_10">
    <path d="M 384.106812 125.075949 
Q 384.106812 171.838843 384.106812 217.483702 
" style="fill: none; stroke-dasharray: 3.7,1.6; stroke-dashoffset: 0; stroke: #000000; stroke-linecap: round"/>
    <path d="M 386.706813 212.283702 
L 384.106812 217.483702 
L 381.506812 212.283702 
z
" style="fill: #1f77b4; stroke-dasharray: 3.7,1.6; stroke-dashoffset: 0; stroke: #000000; stroke-linecap: round"/>
   </g>
   <g id="patch_11">
    <path d="M 403.450812 125.075949 
Q 403.450812 171.838843 403.450812 217.483702 
" style="fill: none; stroke-dasharray: 3.7,1.6; stroke-dashoffset: 0; stroke: #000000; stroke-linecap: round"/>
    <path d="M 406.050813 212.283702 
L 403.450812 217.483702 
L 400.850812 212.283702 
z
" style="fill: #1f77b4; stroke-dasharray: 3.7,1.6; stroke-dashoffset: 0; stroke: #000000; stroke-linecap: round"/>
   </g>
   <g id="text_6">
    <!-- rilassamento -->
    <g transform="translate(393.719187 155.037779) scale(0.09 -0.09)">
     <use xlink:href="#DejaVuSans-72"/>
     <use xlink:href="#DejaVuSans-69" transform="translate(41.113281 0)"/>
     <use xlink:href="#DejaVuSans-6c" transform="translate(68.896484 0)"/>
     <use xlink:href="#DejaVuSans-61" transform="translate(96.679688 0)"/>
     <use xlink:href="#DejaVuSans-73" transform="translate(157.958984 0)"/>
     <use xlink:href="#DejaVuSans-73" transform="translate(210.058594 0)"/>
     <use xlink:href="#DejaVuSans-61" transform="translate(262.158203 0)"/>
     <use xlink:href="#DejaVuSans-6d" transform="translate(323.4375 0)"/>
     <use xlink:href="#DejaVuSans-65" transform="translate(420.849609 0)"/>
     <use xlink:href="#DejaVuSans-6e" transform="translate(482.373047 0)"/>
     <use xlink:href="#DejaVuSans-74" transform="translate(545.751953 0)"/>
     <use xlink:href="#DejaVuSans-6f" transform="translate(584.960938 0)"/>
    </g>
    <!-- non radiativo -->
    <g transform="translate(393.004109 165.11581) scale(0.09 -0.09)">
     <use xlink:href="#DejaVuSans-6e"/>
     <use xlink:href="#DejaVuSans-6f" transform="translate(63.378906 0)"/>
     <use xlink:href="#DejaVuSans-6e" transform="translate(124.560547 0)"/>
     <use xlink:href="#DejaVuSans-20" transform="translate(187.939453 0)"/>
     <use xlink:href="#DejaVuSans-72" transform="translate(219.726562 0)"/>
     <use xlink:href="#DejaVuSans-61" transform="translate(260.839844 0)"/>
     <use xlink:href="#DejaVuSans-64" transform="translate(322.119141 0)"/>
     <use xlink:href="#DejaVuSans-69" transform="translate(385.595703 0)"/>
     <use xlink:href="#DejaVuSans-61" transform="translate(413.378906 0)"/>
     <use xlink:href="#DejaVuSans-74" transform="translate(474.658203 0)"/>
     <use xlink:href="#DejaVuSans-69" transform="translate(513.867188 0)"/>
     <use xlink:href="#DejaVuSans-76" transform="translate(541.650391 0)"/>
     <use xlink:href="#DejaVuSans-6f" transform="translate(600.830078 0)"/>
    </g>
   </g>
   <g id="patch_12">
    <path d="M 473.572812 229.327903 
Q 473.572812 280.716847 473.572812 330.316936 
" style="fill: none; stroke: #000000; stroke-width: 1.6; stroke-linecap: round"/>
    <path d="M 476.172812 325.116936 
L 473.572812 330.316936 
L 470.972812 325.116936 
z
" style="fill: #1f77b4; stroke: #000000; stroke-width: 1.6; stroke-linecap: round"/>
   </g>
   <g id="patch_13">
    <path d="M 569.872496 279.456241 
Q 587.216643 279.456241 603.442756 279.456241 
" style="fill: none; stroke: #000000; stroke-linecap: round"/>
    <path d="M 598.242756 276.856241 
L 603.442756 279.456241 
L 598.242756 282.056241 
z
" style="fill: #1f77b4; stroke: #000000; stroke-linecap: round"/>
   </g>
   <g id="text_7">
    <!-- radiazione laser -->
    <g transform="translate(512.671437 250.881963) scale(0.09 -0.09)">
     <use xlink:href="#DejaVuSans-72"/>
     <use xlink:href="#DejaVuSans-61" transform="translate(41.113281 0)"/>
     <use xlink:href="#DejaVuSans-64" transform="translate(102.392578 0)"/>
     <use xlink:href="#DejaVuSans-69" transform="translate(165.869141 0)"/>
     <use xlink:href="#DejaVuSans-61" transform="translate(193.652344 0)"/>
     <use xlink:href="#DejaVuSans-7a" transform="translate(254.931641 0)"/>
     <use xlink:href="#DejaVuSans-69" transform="translate(307.421875 0)"/>
     <use xlink:href="#DejaVuSans-6f" transform="translate(335.205078 0)"/>
     <use xlink:href="#DejaVuSans-6e" transform="translate(396.386719 0)"/>
     <use xlink:href="#DejaVuSans-65" transform="translate(459.765625 0)"/>
     <use xlink:href="#DejaVuSans-20" transform="translate(521.289062 0)"/>
     <use xlink:href="#DejaVuSans-6c" transform="translate(553.076172 0)"/>
     <use xlink:href="#DejaVuSans-61" transform="translate(580.859375 0)"/>
     <use xlink:href="#DejaVuSans-73" transform="translate(642.138672 0)"/>
     <use xlink:href="#DejaVuSans-65" transform="translate(694.238281 0)"/>
     <use xlink:href="#DejaVuSans-72" transform="translate(755.761719 0)"/>
    </g>
    <!-- monocromatica -->
    <g transform="translate(513.425187 260.959995) scale(0.09 -0.09)">
     <use xlink:href="#DejaVuSans-6d"/>
     <use xlink:href="#DejaVuSans-6f" transform="translate(97.412109 0)"/>
     <use xlink:href="#DejaVuSans-6e" transform="translate(158.59375 0)"/>
     <use xlink:href="#DejaVuSans-6f" transform="translate(221.972656 0)"/>
     <use xlink:href="#DejaVuSans-63" transform="translate(283.154297 0)"/>
     <use xlink:href="#DejaVuSans-72" transform="translate(338.134766 0)"/>
     <use xlink:href="#DejaVuSans-6f" transform="translate(376.998047 0)"/>
     <use xlink:href="#DejaVuSans-6d" transform="translate(438.179688 0)"/>
     <use xlink:href="#DejaVuSans-61" transform="translate(535.591797 0)"/>
     <use xlink:href="#DejaVuSans-74" transform="translate(596.871094 0)"/>
     <use xlink:href="#DejaVuSans-69" transform="translate(636.080078 0)"/>
     <use xlink:href="#DejaVuSans-63" transform="translate(663.863281 0)"/>
     <use xlink:href="#DejaVuSans-61" transform="translate(718.84375 0)"/>
    </g>
   </g>
   <g id="patch_14">
    <path d="M 479.376013 334.350585 
Q 479.376013 280.716766 479.376013 227.082947 
" style="fill: none; stroke: #000000; stroke-linecap: round"/>
    <path d="M 481.376013 330.350585 
L 479.376013 334.350585 
L 477.376013 330.350585 
" style="fill: none; stroke: #000000; stroke-linecap: round"/>
    <path d="M 477.376013 231.082947 
L 479.376013 227.082947 
L 481.376013 231.082947 
" style="fill: none; stroke: #000000; stroke-linecap: round"/>
   </g>
   <g id="text_8">
    <!-- transizione -->
    <g transform="translate(413.528141 281.189541) scale(0.087 -0.087)">
     <use xlink:href="#DejaVuSans-74"/>
     <use xlink:href="#DejaVuSans-72" transform="translate(39.208984 0)"/>
     <use xlink:href="#DejaVuSans-61" transform="translate(80.322266 0)"/>
     <use xlink:href="#DejaVuSans-6e" transform="translate(141.601562 0)"/>
     <use xlink:href="#DejaVuSans-73" transform="translate(204.980469 0)"/>
     <use xlink:href="#DejaVuSans-69" transform="translate(257.080078 0)"/>
     <use xlink:href="#DejaVuSans-7a" transform="translate(284.863281 0)"/>
     <use xlink:href="#DejaVuSans-69" transform="translate(337.353516 0)"/>
     <use xlink:href="#DejaVuSans-6f" transform="translate(365.136719 0)"/>
     <use xlink:href="#DejaVuSans-6e" transform="translate(426.318359 0)"/>
     <use xlink:href="#DejaVuSans-65" transform="translate(489.697266 0)"/>
    </g>
    <!-- stimolata -->
    <g transform="translate(420.834781 290.931638) scale(0.087 -0.087)">
     <use xlink:href="#DejaVuSans-73"/>
     <use xlink:href="#DejaVuSans-74" transform="translate(52.099609 0)"/>
     <use xlink:href="#DejaVuSans-69" transform="translate(91.308594 0)"/>
     <use xlink:href="#DejaVuSans-6d" transform="translate(119.091797 0)"/>
     <use xlink:href="#DejaVuSans-6f" transform="translate(216.503906 0)"/>
     <use xlink:href="#DejaVuSans-6c" transform="translate(277.685547 0)"/>
     <use xlink:href="#DejaVuSans-61" transform="translate(305.46875 0)"/>
     <use xlink:href="#DejaVuSans-74" transform="translate(366.748047 0)"/>
     <use xlink:href="#DejaVuSans-61" transform="translate(405.957031 0)"/>
    </g>
   </g>
   <g id="text_9">
    <!-- Il pompaggio porta gli elettroni in una banda alta; il rilassamento rapido popola il livello metastabile da cui avviene l'emissione laser. -->
    <g transform="translate(7.2 390.013349) scale(0.1 -0.1)">
     <defs>
      <path id="DejaVuSans-49" d="M 628 4666 
L 1259 4666 
L 1259 0 
L 628 0 
L 628 4666 
z
" transform="scale(0.015625)"/>
      <path id="DejaVuSans-75" d="M 544 1381 
L 544 3500 
L 1119 3500 
L 1119 1403 
Q 1119 906 1312 657 
Q 1506 409 1894 409 
Q 2359 409 2629 706 
Q 2900 1003 2900 1516 
L 2900 3500 
L 3475 3500 
L 3475 0 
L 2900 0 
L 2900 538 
Q 2691 219 2414 64 
Q 2138 -91 1772 -91 
Q 1169 -91 856 284 
Q 544 659 544 1381 
z
M 1991 3584 
L 1991 3584 
z
" transform="scale(0.015625)"/>
      <path id="DejaVuSans-3b" d="M 750 3309 
L 1409 3309 
L 1409 2516 
L 750 2516 
L 750 3309 
z
M 750 794 
L 1409 794 
L 1409 256 
L 897 -744 
L 494 -744 
L 750 256 
L 750 794 
z
" transform="scale(0.015625)"/>
      <path id="DejaVuSans-27" d="M 1147 4666 
L 1147 2931 
L 616 2931 
L 616 4666 
L 1147 4666 
z
" transform="scale(0.015625)"/>
      <path id="DejaVuSans-2e" d="M 684 794 
L 1344 794 
L 1344 0 
L 684 0 
L 684 794 
z
" transform="scale(0.015625)"/>
     </defs>
     <use xlink:href="#DejaVuSans-49"/>
     <use xlink:href="#DejaVuSans-6c" transform="translate(29.492188 0)"/>
     <use xlink:href="#DejaVuSans-20" transform="translate(57.275391 0)"/>
     <use xlink:href="#DejaVuSans-70" transform="translate(89.0625 0)"/>
     <use xlink:href="#DejaVuSans-6f" transform="translate(152.539062 0)"/>
     <use xlink:href="#DejaVuSans-6d" transform="translate(213.720703 0)"/>
     <use xlink:href="#DejaVuSans-70" transform="translate(311.132812 0)"/>
     <use xlink:href="#DejaVuSans-61" transform="translate(374.609375 0)"/>
     <use xlink:href="#DejaVuSans-67" transform="translate(435.888672 0)"/>
     <use xlink:href="#DejaVuSans-67" transform="translate(499.365234 0)"/>
     <use xlink:href="#DejaVuSans-69" transform="translate(562.841797 0)"/>
     <use xlink:href="#DejaVuSans-6f" transform="translate(590.625 0)"/>
     <use xlink:href="#DejaVuSans-20" transform="translate(651.806641 0)"/>
     <use xlink:href="#DejaVuSans-70" transform="translate(683.59375 0)"/>
     <use xlink:href="#DejaVuSans-6f" transform="translate(747.070312 0)"/>
     <use xlink:href="#DejaVuSans-72" transform="translate(808.251953 0)"/>
     <use xlink:href="#DejaVuSans-74" transform="translate(849.365234 0)"/>
     <use xlink:href="#DejaVuSans-61" transform="translate(888.574219 0)"/>
     <use xlink:href="#DejaVuSans-20" transform="translate(949.853516 0)"/>
     <use xlink:href="#DejaVuSans-67" transform="translate(981.640625 0)"/>
     <use xlink:href="#DejaVuSans-6c" transform="translate(1045.117188 0)"/>
     <use xlink:href="#DejaVuSans-69" transform="translate(1072.900391 0)"/>
     <use xlink:href="#DejaVuSans-20" transform="translate(1100.683594 0)"/>
     <use xlink:href="#DejaVuSans-65" transform="translate(1132.470703 0)"/>
     <use xlink:href="#DejaVuSans-6c" transform="translate(1193.994141 0)"/>
     <use xlink:href="#DejaVuSans-65" transform="translate(1221.777344 0)"/>
     <use xlink:href="#DejaVuSans-74" transform="translate(1283.300781 0)"/>
     <use xlink:href="#DejaVuSans-74" transform="translate(1322.509766 0)"/>
     <use xlink:href="#DejaVuSans-72" transform="translate(1361.71875 0)"/>
     <use xlink:href="#DejaVuSans-6f" transform="translate(1400.582031 0)"/>
     <use xlink:href="#DejaVuSans-6e" transform="translate(1461.763672 0)"/>
     <use xlink:href="#DejaVuSans-69" transform="translate(1525.142578 0)"/>
     <use xlink:href="#DejaVuSans-20" transform="translate(1552.925781 0)"/>
     <use xlink:href="#DejaVuSans-69" transform="translate(1584.712891 0)"/>
     <use xlink:href="#DejaVuSans-6e" transform="translate(1612.496094 0)"/>
     <use xlink:href="#DejaVuSans-20" transform="translate(1675.875 0)"/>
     <use xlink:href="#DejaVuSans-75" transform="translate(1707.662109 0)"/>
     <use xlink:href="#DejaVuSans-6e" transform="translate(1771.041016 0)"/>
     <use xlink:href="#DejaVuSans-61" transform="translate(1834.419922 0)"/>
     <use xlink:href="#DejaVuSans-20" transform="translate(1895.699219 0)"/>
     <use xlink:href="#DejaVuSans-62" transform="translate(1927.486328 0)"/>
     <use xlink:href="#DejaVuSans-61" transform="translate(1990.962891 0)"/>
     <use xlink:href="#DejaVuSans-6e" transform="translate(2052.242188 0)"/>
     <use xlink:href="#DejaVuSans-64" transform="translate(2115.621094 0)"/>
     <use xlink:href="#DejaVuSans-61" transform="translate(2179.097656 0)"/>
     <use xlink:href="#DejaVuSans-20" transform="translate(2240.376953 0)"/>
     <use xlink:href="#DejaVuSans-61" transform="translate(2272.164062 0)"/>
     <use xlink:href="#DejaVuSans-6c" transform="translate(2333.443359 0)"/>
     <use xlink:href="#DejaVuSans-74" transform="translate(2361.226562 0)"/>
     <use xlink:href="#DejaVuSans-61" transform="translate(2400.435547 0)"/>
     <use xlink:href="#DejaVuSans-3b" transform="translate(2461.714844 0)"/>
     <use xlink:href="#DejaVuSans-20" transform="translate(2495.40625 0)"/>
     <use xlink:href="#DejaVuSans-69" transform="translate(2527.193359 0)"/>
     <use xlink:href="#DejaVuSans-6c" transform="translate(2554.976562 0)"/>
     <use xlink:href="#DejaVuSans-20" transform="translate(2582.759766 0)"/>
     <use xlink:href="#DejaVuSans-72" transform="translate(2614.546875 0)"/>
     <use xlink:href="#DejaVuSans-69" transform="translate(2655.660156 0)"/>
     <use xlink:href="#DejaVuSans-6c" transform="translate(2683.443359 0)"/>
     <use xlink:href="#DejaVuSans-61" transform="translate(2711.226562 0)"/>
     <use xlink:href="#DejaVuSans-73" transform="translate(2772.505859 0)"/>
     <use xlink:href="#DejaVuSans-73" transform="translate(2824.605469 0)"/>
     <use xlink:href="#DejaVuSans-61" transform="translate(2876.705078 0)"/>
     <use xlink:href="#DejaVuSans-6d" transform="translate(2937.984375 0)"/>
     <use xlink:href="#DejaVuSans-65" transform="translate(3035.396484 0)"/>
     <use xlink:href="#DejaVuSans-6e" transform="translate(3096.919922 0)"/>
     <use xlink:href="#DejaVuSans-74" transform="translate(3160.298828 0)"/>
     <use xlink:href="#DejaVuSans-6f" transform="translate(3199.507812 0)"/>
     <use xlink:href="#DejaVuSans-20" transform="translate(3260.689453 0)"/>
     <use xlink:href="#DejaVuSans-72" transform="translate(3292.476562 0)"/>
     <use xlink:href="#DejaVuSans-61" transform="translate(3333.589844 0)"/>
     <use xlink:href="#DejaVuSans-70" transform="translate(3394.869141 0)"/>
     <use xlink:href="#DejaVuSans-69" transform="translate(3458.345703 0)"/>
     <use xlink:href="#DejaVuSans-64" transform="translate(3486.128906 0)"/>
     <use xlink:href="#DejaVuSans-6f" transform="translate(3549.605469 0)"/>
     <use xlink:href="#DejaVuSans-20" transform="translate(3610.787109 0)"/>
     <use xlink:href="#DejaVuSans-70" transform="translate(3642.574219 0)"/>
     <use xlink:href="#DejaVuSans-6f" transform="translate(3706.050781 0)"/>
     <use xlink:href="#DejaVuSans-70" transform="translate(3767.232422 0)"/>
     <use xlink:href="#DejaVuSans-6f" transform="translate(3830.708984 0)"/>
     <use xlink:href="#DejaVuSans-6c" transform="translate(3891.890625 0)"/>
     <use xlink:href="#DejaVuSans-61" transform="translate(3919.673828 0)"/>
     <use xlink:href="#DejaVuSans-20" transform="translate(3980.953125 0)"/>
     <use xlink:href="#DejaVuSans-69" transform="translate(4012.740234 0)"/>
     <use xlink:href="#DejaVuSans-6c" transform="translate(4040.523438 0)"/>
     <use xlink:href="#DejaVuSans-20" transform="translate(4068.306641 0)"/>
     <use xlink:href="#DejaVuSans-6c" transform="translate(4100.09375 0)"/>
     <use xlink:href="#DejaVuSans-69" transform="translate(4127.876953 0)"/>
     <use xlink:href="#DejaVuSans-76" transform="translate(4155.660156 0)"/>
     <use xlink:href="#DejaVuSans-65" transform="translate(4214.839844 0)"/>
     <use xlink:href="#DejaVuSans-6c" transform="translate(4276.363281 0)"/>
     <use xlink:href="#DejaVuSans-6c" transform="translate(4304.146484 0)"/>
     <use xlink:href="#DejaVuSans-6f" transform="translate(4331.929688 0)"/>
     <use xlink:href="#DejaVuSans-20" transform="translate(4393.111328 0)"/>
     <use xlink:href="#DejaVuSans-6d" transform="translate(4424.898438 0)"/>
     <use xlink:href="#DejaVuSans-65" transform="translate(4522.310547 0)"/>
     <use xlink:href="#DejaVuSans-74" transform="translate(4583.833984 0)"/>
     <use xlink:href="#DejaVuSans-61" transform="translate(4623.042969 0)"/>
     <use xlink:href="#DejaVuSans-73" transform="translate(4684.322266 0)"/>
     <use xlink:href="#DejaVuSans-74" transform="translate(4736.421875 0)"/>
     <use xlink:href="#DejaVuSans-61" transform="translate(4775.630859 0)"/>
     <use xlink:href="#DejaVuSans-62" transform="translate(4836.910156 0)"/>
     <use xlink:href="#DejaVuSans-69" transform="translate(4900.386719 0)"/>
     <use xlink:href="#DejaVuSans-6c" transform="translate(4928.169922 0)"/>
     <use xlink:href="#DejaVuSans-65" transform="translate(4955.953125 0)"/>
     <use xlink:href="#DejaVuSans-20" transform="translate(5017.476562 0)"/>
     <use xlink:href="#DejaVuSans-64" transform="translate(5049.263672 0)"/>
     <use xlink:href="#DejaVuSans-61" transform="translate(5112.740234 0)"/>
     <use xlink:href="#DejaVuSans-20" transform="translate(5174.019531 0)"/>
     <use xlink:href="#DejaVuSans-63" transform="translate(5205.806641 0)"/>
     <use xlink:href="#DejaVuSans-75" transform="translate(5260.787109 0)"/>
     <use xlink:href="#DejaVuSans-69" transform="translate(5324.166016 0)"/>
     <use xlink:href="#DejaVuSans-20" transform="translate(5351.949219 0)"/>
     <use xlink:href="#DejaVuSans-61" transform="translate(5383.736328 0)"/>
     <use xlink:href="#DejaVuSans-76" transform="translate(5445.015625 0)"/>
     <use xlink:href="#DejaVuSans-76" transform="translate(5504.195312 0)"/>
     <use xlink:href="#DejaVuSans-69" transform="translate(5563.375 0)"/>
     <use xlink:href="#DejaVuSans-65" transform="translate(5591.158203 0)"/>
     <use xlink:href="#DejaVuSans-6e" transform="translate(5652.681641 0)"/>
     <use xlink:href="#DejaVuSans-65" transform="translate(5716.060547 0)"/>
     <use xlink:href="#DejaVuSans-20" transform="translate(5777.583984 0)"/>
     <use xlink:href="#DejaVuSans-6c" transform="translate(5809.371094 0)"/>
     <use xlink:href="#DejaVuSans-27" transform="translate(5837.154297 0)"/>
     <use xlink:href="#DejaVuSans-65" transform="translate(5864.644531 0)"/>
     <use xlink:href="#DejaVuSans-6d" transform="translate(5926.167969 0)"/>
     <use xlink:href="#DejaVuSans-69" transform="translate(6023.580078 0)"/>
     <use xlink:href="#DejaVuSans-73" transform="translate(6051.363281 0)"/>
     <use xlink:href="#DejaVuSans-73" transform="translate(6103.462891 0)"/>
     <use xlink:href="#DejaVuSans-69" transform="translate(6155.5625 0)"/>
     <use xlink:href="#DejaVuSans-6f" transform="translate(6183.345703 0)"/>
     <use xlink:href="#DejaVuSans-6e" transform="translate(6244.527344 0)"/>
     <use xlink:href="#DejaVuSans-65" transform="translate(6307.90625 0)"/>
     <use xlink:href="#DejaVuSans-20" transform="translate(6369.429688 0)"/>
     <use xlink:href="#DejaVuSans-6c" transform="translate(6401.216797 0)"/>
     <use xlink:href="#DejaVuSans-61" transform="translate(6429 0)"/>
     <use xlink:href="#DejaVuSans-73" transform="translate(6490.279297 0)"/>
     <use xlink:href="#DejaVuSans-65" transform="translate(6542.378906 0)"/>
     <use xlink:href="#DejaVuSans-72" transform="translate(6603.902344 0)"/>
     <use xlink:href="#DejaVuSans-2e" transform="translate(6635.890625 0)"/>
    </g>
   </g>
   <g id="text_10">
    <!-- Schema energetico di un laser a tre livelli -->
    <g transform="translate(159.135875 18.597656) scale(0.15 -0.15)">
     <defs>
      <path id="DejaVuSans-Bold-53" d="M 3834 4519 
L 3834 3531 
Q 3450 3703 3084 3790 
Q 2719 3878 2394 3878 
Q 1963 3878 1756 3759 
Q 1550 3641 1550 3391 
Q 1550 3203 1689 3098 
Q 1828 2994 2194 2919 
L 2706 2816 
Q 3484 2659 3812 2340 
Q 4141 2022 4141 1434 
Q 4141 663 3683 286 
Q 3225 -91 2284 -91 
Q 1841 -91 1394 -6 
Q 947 78 500 244 
L 500 1259 
Q 947 1022 1364 901 
Q 1781 781 2169 781 
Q 2563 781 2772 912 
Q 2981 1044 2981 1288 
Q 2981 1506 2839 1625 
Q 2697 1744 2272 1838 
L 1806 1941 
Q 1106 2091 782 2419 
Q 459 2747 459 3303 
Q 459 4000 909 4375 
Q 1359 4750 2203 4750 
Q 2588 4750 2994 4692 
Q 3400 4634 3834 4519 
z
" transform="scale(0.015625)"/>
      <path id="DejaVuSans-Bold-63" d="M 3366 3391 
L 3366 2478 
Q 3138 2634 2908 2709 
Q 2678 2784 2431 2784 
Q 1963 2784 1702 2511 
Q 1441 2238 1441 1747 
Q 1441 1256 1702 982 
Q 1963 709 2431 709 
Q 2694 709 2930 787 
Q 3166 866 3366 1019 
L 3366 103 
Q 3103 6 2833 -42 
Q 2563 -91 2291 -91 
Q 1344 -91 809 395 
Q 275 881 275 1747 
Q 275 2613 809 3098 
Q 1344 3584 2291 3584 
Q 2566 3584 2833 3536 
Q 3100 3488 3366 3391 
z
" transform="scale(0.015625)"/>
      <path id="DejaVuSans-Bold-68" d="M 4056 2131 
L 4056 0 
L 2931 0 
L 2931 347 
L 2931 1625 
Q 2931 2084 2911 2256 
Q 2891 2428 2841 2509 
Q 2775 2619 2662 2680 
Q 2550 2741 2406 2741 
Q 2056 2741 1856 2470 
Q 1656 2200 1656 1722 
L 1656 0 
L 538 0 
L 538 4863 
L 1656 4863 
L 1656 2988 
Q 1909 3294 2193 3439 
Q 2478 3584 2822 3584 
Q 3428 3584 3742 3212 
Q 4056 2841 4056 2131 
z
" transform="scale(0.015625)"/>
      <path id="DejaVuSans-Bold-65" d="M 4031 1759 
L 4031 1441 
L 1416 1441 
Q 1456 1047 1700 850 
Q 1944 653 2381 653 
Q 2734 653 3104 758 
Q 3475 863 3866 1075 
L 3866 213 
Q 3469 63 3072 -14 
Q 2675 -91 2278 -91 
Q 1328 -91 801 392 
Q 275 875 275 1747 
Q 275 2603 792 3093 
Q 1309 3584 2216 3584 
Q 3041 3584 3536 3087 
Q 4031 2591 4031 1759 
z
M 2881 2131 
Q 2881 2450 2695 2645 
Q 2509 2841 2209 2841 
Q 1884 2841 1681 2658 
Q 1478 2475 1428 2131 
L 2881 2131 
z
" transform="scale(0.015625)"/>
      <path id="DejaVuSans-Bold-72" d="M 3138 2547 
Q 2991 2616 2845 2648 
Q 2700 2681 2553 2681 
Q 2122 2681 1889 2404 
Q 1656 2128 1656 1613 
L 1656 0 
L 538 0 
L 538 3500 
L 1656 3500 
L 1656 2925 
Q 1872 3269 2151 3426 
Q 2431 3584 2822 3584 
Q 2878 3584 2943 3579 
Q 3009 3575 3134 3559 
L 3138 2547 
z
" transform="scale(0.015625)"/>
      <path id="DejaVuSans-Bold-74" d="M 1759 4494 
L 1759 3500 
L 2913 3500 
L 2913 2700 
L 1759 2700 
L 1759 1216 
Q 1759 972 1856 886 
Q 1953 800 2241 800 
L 2816 800 
L 2816 0 
L 1856 0 
Q 1194 0 917 276 
Q 641 553 641 1216 
L 641 2700 
L 84 2700 
L 84 3500 
L 641 3500 
L 641 4494 
L 1759 4494 
z
" transform="scale(0.015625)"/>
      <path id="DejaVuSans-Bold-75" d="M 500 1363 
L 500 3500 
L 1625 3500 
L 1625 3150 
Q 1625 2866 1622 2436 
Q 1619 2006 1619 1863 
Q 1619 1441 1641 1255 
Q 1663 1069 1716 984 
Q 1784 875 1895 815 
Q 2006 756 2150 756 
Q 2500 756 2700 1025 
Q 2900 1294 2900 1772 
L 2900 3500 
L 4019 3500 
L 4019 0 
L 2900 0 
L 2900 506 
Q 2647 200 2364 54 
Q 2081 -91 1741 -91 
Q 1134 -91 817 281 
Q 500 653 500 1363 
z
" transform="scale(0.015625)"/>
      <path id="DejaVuSans-Bold-6c" d="M 538 4863 
L 1656 4863 
L 1656 0 
L 538 0 
L 538 4863 
z
" transform="scale(0.015625)"/>
      <path id="DejaVuSans-Bold-73" d="M 3272 3391 
L 3272 2541 
Q 2913 2691 2578 2766 
Q 2244 2841 1947 2841 
Q 1628 2841 1473 2761 
Q 1319 2681 1319 2516 
Q 1319 2381 1436 2309 
Q 1553 2238 1856 2203 
L 2053 2175 
Q 2913 2066 3209 1816 
Q 3506 1566 3506 1031 
Q 3506 472 3093 190 
Q 2681 -91 1863 -91 
Q 1516 -91 1145 -36 
Q 775 19 384 128 
L 384 978 
Q 719 816 1070 734 
Q 1422 653 1784 653 
Q 2113 653 2278 743 
Q 2444 834 2444 1013 
Q 2444 1163 2330 1236 
Q 2216 1309 1875 1350 
L 1678 1375 
Q 931 1469 631 1722 
Q 331 1975 331 2491 
Q 331 3047 712 3315 
Q 1094 3584 1881 3584 
Q 2191 3584 2531 3537 
Q 2872 3491 3272 3391 
z
" transform="scale(0.015625)"/>
      <path id="DejaVuSans-Bold-76" d="M 97 3500 
L 1216 3500 
L 2088 1081 
L 2956 3500 
L 4078 3500 
L 2700 0 
L 1472 0 
L 97 3500 
z
" transform="scale(0.015625)"/>
     </defs>
     <use xlink:href="#DejaVuSans-Bold-53"/>
     <use xlink:href="#DejaVuSans-Bold-63" transform="translate(72.021484 0)"/>
     <use xlink:href="#DejaVuSans-Bold-68" transform="translate(131.298828 0)"/>
     <use xlink:href="#DejaVuSans-Bold-65" transform="translate(202.490234 0)"/>
     <use xlink:href="#DejaVuSans-Bold-6d" transform="translate(270.3125 0)"/>
     <use xlink:href="#DejaVuSans-Bold-61" transform="translate(374.511719 0)"/>
     <use xlink:href="#DejaVuSans-Bold-20" transform="translate(441.992188 0)"/>
     <use xlink:href="#DejaVuSans-Bold-65" transform="translate(476.806641 0)"/>
     <use xlink:href="#DejaVuSans-Bold-6e" transform="translate(544.628906 0)"/>
     <use xlink:href="#DejaVuSans-Bold-65" transform="translate(615.820312 0)"/>
     <use xlink:href="#DejaVuSans-Bold-72" transform="translate(683.642578 0)"/>
     <use xlink:href="#DejaVuSans-Bold-67" transform="translate(732.958984 0)"/>
     <use xlink:href="#DejaVuSans-Bold-65" transform="translate(804.541016 0)"/>
     <use xlink:href="#DejaVuSans-Bold-74" transform="translate(872.363281 0)"/>
     <use xlink:href="#DejaVuSans-Bold-69" transform="translate(920.166016 0)"/>
     <use xlink:href="#DejaVuSans-Bold-63" transform="translate(954.443359 0)"/>
     <use xlink:href="#DejaVuSans-Bold-6f" transform="translate(1013.720703 0)"/>
     <use xlink:href="#DejaVuSans-Bold-20" transform="translate(1082.421875 0)"/>
     <use xlink:href="#DejaVuSans-Bold-64" transform="translate(1117.236328 0)"/>
     <use xlink:href="#DejaVuSans-Bold-69" transform="translate(1188.818359 0)"/>
     <use xlink:href="#DejaVuSans-Bold-20" transform="translate(1223.095703 0)"/>
     <use xlink:href="#DejaVuSans-Bold-75" transform="translate(1257.910156 0)"/>
     <use xlink:href="#DejaVuSans-Bold-6e" transform="translate(1329.101562 0)"/>
     <use xlink:href="#DejaVuSans-Bold-20" transform="translate(1400.292969 0)"/>
     <use xlink:href="#DejaVuSans-Bold-6c" transform="translate(1435.107422 0)"/>
     <use xlink:href="#DejaVuSans-Bold-61" transform="translate(1469.384766 0)"/>
     <use xlink:href="#DejaVuSans-Bold-73" transform="translate(1536.865234 0)"/>
     <use xlink:href="#DejaVuSans-Bold-65" transform="translate(1596.386719 0)"/>
     <use xlink:href="#DejaVuSans-Bold-72" transform="translate(1664.208984 0)"/>
     <use xlink:href="#DejaVuSans-Bold-20" transform="translate(1713.525391 0)"/>
     <use xlink:href="#DejaVuSans-Bold-61" transform="translate(1748.339844 0)"/>
     <use xlink:href="#DejaVuSans-Bold-20" transform="translate(1815.820312 0)"/>
     <use xlink:href="#DejaVuSans-Bold-74" transform="translate(1850.634766 0)"/>
     <use xlink:href="#DejaVuSans-Bold-72" transform="translate(1898.4375 0)"/>
     <use xlink:href="#DejaVuSans-Bold-65" transform="translate(1947.753906 0)"/>
     <use xlink:href="#DejaVuSans-Bold-20" transform="translate(2015.576172 0)"/>
     <use xlink:href="#DejaVuSans-Bold-6c" transform="translate(2050.390625 0)"/>
     <use xlink:href="#DejaVuSans-Bold-69" transform="translate(2084.667969 0)"/>
     <use xlink:href="#DejaVuSans-Bold-76" transform="translate(2118.945312 0)"/>
     <use xlink:href="#DejaVuSans-Bold-65" transform="translate(2184.130859 0)"/>
     <use xlink:href="#DejaVuSans-Bold-6c" transform="translate(2251.953125 0)"/>
     <use xlink:href="#DejaVuSans-Bold-6c" transform="translate(2286.230469 0)"/>
     <use xlink:href="#DejaVuSans-Bold-69" transform="translate(2320.507812 0)"/>
    </g>
   </g>
  </g>
 </g>
 <defs>
  <clipPath id="p09d740d80c">
   <rect x="9.316812" y="30.597656" width="652.86" height="382.536"/>
  </clipPath>
 </defs>
</svg>
