<?xml version="1.0" encoding="utf-8" standalone="no"?>
<!DOCTYPE svg PUBLIC "-//W3C//DTD SVG 1.1//EN"
  "http://www.w3.org/Graphics/SVG/1.1/DTD/svg11.dtd">
<svg xmlns:xlink="http://www.w3.org/1999/xlink" width="686.518125pt" height="470.797344pt" viewBox="0 0 686.518125 470.797344" xmlns="http://www.w3.org/2000/svg" version="1.1">
 <metadata>
  <rdf:RDF xmlns:dc="http://purl.org/dc/elements/1.1/" xmlns:cc="http://creativecommons.org/ns#" xmlns:rdf="http://www.w3.org/1999/02/22-rdf-syntax-ns#">
   <cc:Work>
    <dc:type rdf:resource="http://purl.org/dc/dcmitype/StillImage"/>
    <dc:date>2026-06-16T12:24:03.831247</dc:date>
    <dc:format>image/svg+xml</dc:format>
    <dc:creator>
     <cc:Agent>
      <dc:title>Matplotlib v3.10.8, https://matplotlib.org/</dc:title>
     </cc:Agent>
    </dc:creator>
   </cc:Work>
  </rdf:RDF>
 </metadata>
 <defs>
  <style type="text/css">*{stroke-linejoin: round; stroke-linecap: butt}</style>
 </defs>
 <g id="figure_1">
  <g id="patch_1">
   <path d="M 0 470.797344 
L 686.518125 470.797344 
L 686.518125 0 
L 0 0 
z
" style="fill: #ffffff"/>
  </g>
  <g id="axes_1">
   <g id="patch_2">
    <path d="M 20.878125 418.677656 
L 679.318125 418.677656 
L 679.318125 30.597656 
L 20.878125 30.597656 
z
" style="fill: #ffffff"/>
   </g>
   <g id="patch_3">
    <path d="M 20.878125 418.677656 
L 175.613221 418.677656 
L 175.613221 30.597656 
L 20.878125 30.597656 
z
" clip-path="url(#p9f3ac72a81)" style="fill: #1f77b4; opacity: 0.08"/>
   </g>
   <g id="patch_4">
    <path d="M 175.613221 418.677656 
L 342.600435 418.677656 
L 342.600435 30.597656 
L 175.613221 30.597656 
z
" clip-path="url(#p9f3ac72a81)" style="fill: #1f77b4; opacity: 0.08"/>
   </g>
   <g id="patch_5">
    <path d="M 342.600435 418.677656 
L 485.083413 418.677656 
L 485.083413 30.597656 
L 342.600435 30.597656 
z
" clip-path="url(#p9f3ac72a81)" style="fill: #1f77b4; opacity: 0.08"/>
   </g>
   <g id="patch_6">
    <path d="M 485.083413 418.677656 
L 558.910816 418.677656 
L 558.910816 30.597656 
L 485.083413 30.597656 
z
" clip-path="url(#p9f3ac72a81)" style="fill: #1f77b4; opacity: 0.08"/>
   </g>
   <g id="patch_7">
    <path d="M 558.910816 418.677656 
L 679.318125 418.677656 
L 679.318125 30.597656 
L 558.910816 30.597656 
z
" clip-path="url(#p9f3ac72a81)" style="fill: #1f77b4; opacity: 0.08"/>
   </g>
   <g id="matplotlib.axis_1">
    <g id="xtick_1">
     <g id="line2d_1">
      <path d="M 20.878125 418.677656 
L 20.878125 30.597656 
" clip-path="url(#p9f3ac72a81)" style="fill: none; stroke: #b0b0b0; stroke-opacity: 0.14; stroke-width: 0.8; stroke-linecap: square"/>
     </g>
     <g id="line2d_2">
      <defs>
       <path id="m9dc50c4b0e" d="M 0 0 
L 0 3.5 
" style="stroke: #000000; stroke-width: 0.8"/>
      </defs>
      <g>
       <use xlink:href="#m9dc50c4b0e" x="20.878125" y="418.677656" style="stroke: #000000; stroke-width: 0.8"/>
      </g>
     </g>
     <g id="text_1">
      <!-- $\mathdefault{10^{-3}}$ -->
      <g transform="translate(9.128125 433.276094) scale(0.1 -0.1)">
       <defs>
        <path id="DejaVuSans-31" d="M 794 531 
L 1825 531 
L 1825 4091 
L 703 3866 
L 703 4441 
L 1819 4666 
L 2450 4666 
L 2450 531 
L 3481 531 
L 3481 0 
L 794 0 
L 794 531 
z
" transform="scale(0.015625)"/>
        <path id="DejaVuSans-30" d="M 2034 4250 
Q 1547 4250 1301 3770 
Q 1056 3291 1056 2328 
Q 1056 1369 1301 889 
Q 1547 409 2034 409 
Q 2525 409 2770 889 
Q 3016 1369 3016 2328 
Q 3016 3291 2770 3770 
Q 2525 4250 2034 4250 
z
M 2034 4750 
Q 2819 4750 3233 4129 
Q 3647 3509 3647 2328 
Q 3647 1150 3233 529 
Q 2819 -91 2034 -91 
Q 1250 -91 836 529 
Q 422 1150 422 2328 
Q 422 3509 836 4129 
Q 1250 4750 2034 4750 
z
" transform="scale(0.015625)"/>
        <path id="DejaVuSans-2212" d="M 678 2272 
L 4684 2272 
L 4684 1741 
L 678 1741 
L 678 2272 
z
" transform="scale(0.015625)"/>
        <path id="DejaVuSans-33" d="M 2597 2516 
Q 3050 2419 3304 2112 
Q 3559 1806 3559 1356 
Q 3559 666 3084 287 
Q 2609 -91 1734 -91 
Q 1441 -91 1130 -33 
Q 819 25 488 141 
L 488 750 
Q 750 597 1062 519 
Q 1375 441 1716 441 
Q 2309 441 2620 675 
Q 2931 909 2931 1356 
Q 2931 1769 2642 2001 
Q 2353 2234 1838 2234 
L 1294 2234 
L 1294 2753 
L 1863 2753 
Q 2328 2753 2575 2939 
Q 2822 3125 2822 3475 
Q 2822 3834 2567 4026 
Q 2313 4219 1838 4219 
Q 1578 4219 1281 4162 
Q 984 4106 628 3988 
L 628 4550 
Q 988 4650 1302 4700 
Q 1616 4750 1894 4750 
Q 2613 4750 3031 4423 
Q 3450 4097 3450 3541 
Q 3450 3153 3228 2886 
Q 3006 2619 2597 2516 
z
" transform="scale(0.015625)"/>
       </defs>
       <use xlink:href="#DejaVuSans-31" transform="translate(0 0.765625)"/>
       <use xlink:href="#DejaVuSans-30" transform="translate(63.623047 0.765625)"/>
       <use xlink:href="#DejaVuSans-2212" transform="translate(128.203125 39.046875) scale(0.7)"/>
       <use xlink:href="#DejaVuSans-33" transform="translate(186.855469 39.046875) scale(0.7)"/>
      </g>
     </g>
    </g>
    <g id="xtick_2">
     <g id="line2d_3">
      <path d="M 175.613221 418.677656 
L 175.613221 30.597656 
" clip-path="url(#p9f3ac72a81)" style="fill: none; stroke: #b0b0b0; stroke-opacity: 0.14; stroke-width: 0.8; stroke-linecap: square"/>
     </g>
     <g id="line2d_4">
      <g>
       <use xlink:href="#m9dc50c4b0e" x="175.613221" y="418.677656" style="stroke: #000000; stroke-width: 0.8"/>
      </g>
     </g>
     <g id="text_2">
      <!-- $\mathdefault{10^{-2}}$ -->
      <g transform="translate(163.863221 433.276094) scale(0.1 -0.1)">
       <defs>
        <path id="DejaVuSans-32" d="M 1228 531 
L 3431 531 
L 3431 0 
L 469 0 
L 469 531 
Q 828 903 1448 1529 
Q 2069 2156 2228 2338 
Q 2531 2678 2651 2914 
Q 2772 3150 2772 3378 
Q 2772 3750 2511 3984 
Q 2250 4219 1831 4219 
Q 1534 4219 1204 4116 
Q 875 4013 500 3803 
L 500 4441 
Q 881 4594 1212 4672 
Q 1544 4750 1819 4750 
Q 2544 4750 2975 4387 
Q 3406 4025 3406 3419 
Q 3406 3131 3298 2873 
Q 3191 2616 2906 2266 
Q 2828 2175 2409 1742 
Q 1991 1309 1228 531 
z
" transform="scale(0.015625)"/>
       </defs>
       <use xlink:href="#DejaVuSans-31" transform="translate(0 0.765625)"/>
       <use xlink:href="#DejaVuSans-30" transform="translate(63.623047 0.765625)"/>
       <use xlink:href="#DejaVuSans-2212" transform="translate(128.203125 39.046875) scale(0.7)"/>
       <use xlink:href="#DejaVuSans-32" transform="translate(186.855469 39.046875) scale(0.7)"/>
      </g>
     </g>
    </g>
    <g id="xtick_3">
     <g id="line2d_5">
      <path d="M 330.348317 418.677656 
L 330.348317 30.597656 
" clip-path="url(#p9f3ac72a81)" style="fill: none; stroke: #b0b0b0; stroke-opacity: 0.14; stroke-width: 0.8; stroke-linecap: square"/>
     </g>
     <g id="line2d_6">
      <g>
       <use xlink:href="#m9dc50c4b0e" x="330.348317" y="418.677656" style="stroke: #000000; stroke-width: 0.8"/>
      </g>
     </g>
     <g id="text_3">
      <!-- $\mathdefault{10^{-1}}$ -->
      <g transform="translate(318.598317 433.276094) scale(0.1 -0.1)">
       <use xlink:href="#DejaVuSans-31" transform="translate(0 0.684375)"/>
       <use xlink:href="#DejaVuSans-30" transform="translate(63.623047 0.684375)"/>
       <use xlink:href="#DejaVuSans-2212" transform="translate(128.203125 38.965625) scale(0.7)"/>
       <use xlink:href="#DejaVuSans-31" transform="translate(186.855469 38.965625) scale(0.7)"/>
      </g>
     </g>
    </g>
    <g id="xtick_4">
     <g id="line2d_7">
      <path d="M 485.083413 418.677656 
L 485.083413 30.597656 
" clip-path="url(#p9f3ac72a81)" style="fill: none; stroke: #b0b0b0; stroke-opacity: 0.14; stroke-width: 0.8; stroke-linecap: square"/>
     </g>
     <g id="line2d_8">
      <g>
       <use xlink:href="#m9dc50c4b0e" x="485.083413" y="418.677656" style="stroke: #000000; stroke-width: 0.8"/>
      </g>
     </g>
     <g id="text_4">
      <!-- $\mathdefault{10^{0}}$ -->
      <g transform="translate(476.283413 433.276094) scale(0.1 -0.1)">
       <use xlink:href="#DejaVuSans-31" transform="translate(0 0.765625)"/>
       <use xlink:href="#DejaVuSans-30" transform="translate(63.623047 0.765625)"/>
       <use xlink:href="#DejaVuSans-30" transform="translate(128.203125 39.046875) scale(0.7)"/>
      </g>
     </g>
    </g>
    <g id="xtick_5">
     <g id="line2d_9">
      <path d="M 639.818509 418.677656 
L 639.818509 30.597656 
" clip-path="url(#p9f3ac72a81)" style="fill: none; stroke: #b0b0b0; stroke-opacity: 0.14; stroke-width: 0.8; stroke-linecap: square"/>
     </g>
     <g id="line2d_10">
      <g>
       <use xlink:href="#m9dc50c4b0e" x="639.818509" y="418.677656" style="stroke: #000000; stroke-width: 0.8"/>
      </g>
     </g>
     <g id="text_5">
      <!-- $\mathdefault{10^{1}}$ -->
      <g transform="translate(631.018509 433.276094) scale(0.1 -0.1)">
       <use xlink:href="#DejaVuSans-31" transform="translate(0 0.684375)"/>
       <use xlink:href="#DejaVuSans-30" transform="translate(63.623047 0.684375)"/>
       <use xlink:href="#DejaVuSans-31" transform="translate(128.203125 38.965625) scale(0.7)"/>
      </g>
     </g>
    </g>
    <g id="xtick_6">
     <g id="line2d_11">
      <path d="M 67.45803 418.677656 
L 67.45803 30.597656 
" clip-path="url(#p9f3ac72a81)" style="fill: none; stroke: #b0b0b0; stroke-opacity: 0.14; stroke-width: 0.8; stroke-linecap: square"/>
     </g>
     <g id="line2d_12">
      <defs>
       <path id="m1db1822131" d="M 0 0 
L 0 2 
" style="stroke: #000000; stroke-width: 0.6"/>
      </defs>
      <g>
       <use xlink:href="#m1db1822131" x="67.45803" y="418.677656" style="stroke: #000000; stroke-width: 0.6"/>
      </g>
     </g>
    </g>
    <g id="xtick_7">
     <g id="line2d_13">
      <path d="M 94.705528 418.677656 
L 94.705528 30.597656 
" clip-path="url(#p9f3ac72a81)" style="fill: none; stroke: #b0b0b0; stroke-opacity: 0.14; stroke-width: 0.8; stroke-linecap: square"/>
     </g>
     <g id="line2d_14">
      <g>
       <use xlink:href="#m1db1822131" x="94.705528" y="418.677656" style="stroke: #000000; stroke-width: 0.6"/>
      </g>
     </g>
    </g>
    <g id="xtick_8">
     <g id="line2d_15">
      <path d="M 114.037936 418.677656 
L 114.037936 30.597656 
" clip-path="url(#p9f3ac72a81)" style="fill: none; stroke: #b0b0b0; stroke-opacity: 0.14; stroke-width: 0.8; stroke-linecap: square"/>
     </g>
     <g id="line2d_16">
      <g>
       <use xlink:href="#m1db1822131" x="114.037936" y="418.677656" style="stroke: #000000; stroke-width: 0.6"/>
      </g>
     </g>
    </g>
    <g id="xtick_9">
     <g id="line2d_17">
      <path d="M 129.033316 418.677656 
L 129.033316 30.597656 
" clip-path="url(#p9f3ac72a81)" style="fill: none; stroke: #b0b0b0; stroke-opacity: 0.14; stroke-width: 0.8; stroke-linecap: square"/>
     </g>
     <g id="line2d_18">
      <g>
       <use xlink:href="#m1db1822131" x="129.033316" y="418.677656" style="stroke: #000000; stroke-width: 0.6"/>
      </g>
     </g>
    </g>
    <g id="xtick_10">
     <g id="line2d_19">
      <path d="M 141.285434 418.677656 
L 141.285434 30.597656 
" clip-path="url(#p9f3ac72a81)" style="fill: none; stroke: #b0b0b0; stroke-opacity: 0.14; stroke-width: 0.8; stroke-linecap: square"/>
     </g>
     <g id="line2d_20">
      <g>
       <use xlink:href="#m1db1822131" x="141.285434" y="418.677656" style="stroke: #000000; stroke-width: 0.6"/>
      </g>
     </g>
    </g>
    <g id="xtick_11">
     <g id="line2d_21">
      <path d="M 151.644451 418.677656 
L 151.644451 30.597656 
" clip-path="url(#p9f3ac72a81)" style="fill: none; stroke: #b0b0b0; stroke-opacity: 0.14; stroke-width: 0.8; stroke-linecap: square"/>
     </g>
     <g id="line2d_22">
      <g>
       <use xlink:href="#m1db1822131" x="151.644451" y="418.677656" style="stroke: #000000; stroke-width: 0.6"/>
      </g>
     </g>
    </g>
    <g id="xtick_12">
     <g id="line2d_23">
      <path d="M 160.617841 418.677656 
L 160.617841 30.597656 
" clip-path="url(#p9f3ac72a81)" style="fill: none; stroke: #b0b0b0; stroke-opacity: 0.14; stroke-width: 0.8; stroke-linecap: square"/>
     </g>
     <g id="line2d_24">
      <g>
       <use xlink:href="#m1db1822131" x="160.617841" y="418.677656" style="stroke: #000000; stroke-width: 0.6"/>
      </g>
     </g>
    </g>
    <g id="xtick_13">
     <g id="line2d_25">
      <path d="M 168.532931 418.677656 
L 168.532931 30.597656 
" clip-path="url(#p9f3ac72a81)" style="fill: none; stroke: #b0b0b0; stroke-opacity: 0.14; stroke-width: 0.8; stroke-linecap: square"/>
     </g>
     <g id="line2d_26">
      <g>
       <use xlink:href="#m1db1822131" x="168.532931" y="418.677656" style="stroke: #000000; stroke-width: 0.6"/>
      </g>
     </g>
    </g>
    <g id="xtick_14">
     <g id="line2d_27">
      <path d="M 222.193126 418.677656 
L 222.193126 30.597656 
" clip-path="url(#p9f3ac72a81)" style="fill: none; stroke: #b0b0b0; stroke-opacity: 0.14; stroke-width: 0.8; stroke-linecap: square"/>
     </g>
     <g id="line2d_28">
      <g>
       <use xlink:href="#m1db1822131" x="222.193126" y="418.677656" style="stroke: #000000; stroke-width: 0.6"/>
      </g>
     </g>
    </g>
    <g id="xtick_15">
     <g id="line2d_29">
      <path d="M 249.440624 418.677656 
L 249.440624 30.597656 
" clip-path="url(#p9f3ac72a81)" style="fill: none; stroke: #b0b0b0; stroke-opacity: 0.14; stroke-width: 0.8; stroke-linecap: square"/>
     </g>
     <g id="line2d_30">
      <g>
       <use xlink:href="#m1db1822131" x="249.440624" y="418.677656" style="stroke: #000000; stroke-width: 0.6"/>
      </g>
     </g>
    </g>
    <g id="xtick_16">
     <g id="line2d_31">
      <path d="M 268.773032 418.677656 
L 268.773032 30.597656 
" clip-path="url(#p9f3ac72a81)" style="fill: none; stroke: #b0b0b0; stroke-opacity: 0.14; stroke-width: 0.8; stroke-linecap: square"/>
     </g>
     <g id="line2d_32">
      <g>
       <use xlink:href="#m1db1822131" x="268.773032" y="418.677656" style="stroke: #000000; stroke-width: 0.6"/>
      </g>
     </g>
    </g>
    <g id="xtick_17">
     <g id="line2d_33">
      <path d="M 283.768412 418.677656 
L 283.768412 30.597656 
" clip-path="url(#p9f3ac72a81)" style="fill: none; stroke: #b0b0b0; stroke-opacity: 0.14; stroke-width: 0.8; stroke-linecap: square"/>
     </g>
     <g id="line2d_34">
      <g>
       <use xlink:href="#m1db1822131" x="283.768412" y="418.677656" style="stroke: #000000; stroke-width: 0.6"/>
      </g>
     </g>
    </g>
    <g id="xtick_18">
     <g id="line2d_35">
      <path d="M 296.02053 418.677656 
L 296.02053 30.597656 
" clip-path="url(#p9f3ac72a81)" style="fill: none; stroke: #b0b0b0; stroke-opacity: 0.14; stroke-width: 0.8; stroke-linecap: square"/>
     </g>
     <g id="line2d_36">
      <g>
       <use xlink:href="#m1db1822131" x="296.02053" y="418.677656" style="stroke: #000000; stroke-width: 0.6"/>
      </g>
     </g>
    </g>
    <g id="xtick_19">
     <g id="line2d_37">
      <path d="M 306.379548 418.677656 
L 306.379548 30.597656 
" clip-path="url(#p9f3ac72a81)" style="fill: none; stroke: #b0b0b0; stroke-opacity: 0.14; stroke-width: 0.8; stroke-linecap: square"/>
     </g>
     <g id="line2d_38">
      <g>
       <use xlink:href="#m1db1822131" x="306.379548" y="418.677656" style="stroke: #000000; stroke-width: 0.6"/>
      </g>
     </g>
    </g>
    <g id="xtick_20">
     <g id="line2d_39">
      <path d="M 315.352937 418.677656 
L 315.352937 30.597656 
" clip-path="url(#p9f3ac72a81)" style="fill: none; stroke: #b0b0b0; stroke-opacity: 0.14; stroke-width: 0.8; stroke-linecap: square"/>
     </g>
     <g id="line2d_40">
      <g>
       <use xlink:href="#m1db1822131" x="315.352937" y="418.677656" style="stroke: #000000; stroke-width: 0.6"/>
      </g>
     </g>
    </g>
    <g id="xtick_21">
     <g id="line2d_41">
      <path d="M 323.268027 418.677656 
L 323.268027 30.597656 
" clip-path="url(#p9f3ac72a81)" style="fill: none; stroke: #b0b0b0; stroke-opacity: 0.14; stroke-width: 0.8; stroke-linecap: square"/>
     </g>
     <g id="line2d_42">
      <g>
       <use xlink:href="#m1db1822131" x="323.268027" y="418.677656" style="stroke: #000000; stroke-width: 0.6"/>
      </g>
     </g>
    </g>
    <g id="xtick_22">
     <g id="line2d_43">
      <path d="M 376.928223 418.677656 
L 376.928223 30.597656 
" clip-path="url(#p9f3ac72a81)" style="fill: none; stroke: #b0b0b0; stroke-opacity: 0.14; stroke-width: 0.8; stroke-linecap: square"/>
     </g>
     <g id="line2d_44">
      <g>
       <use xlink:href="#m1db1822131" x="376.928223" y="418.677656" style="stroke: #000000; stroke-width: 0.6"/>
      </g>
     </g>
    </g>
    <g id="xtick_23">
     <g id="line2d_45">
      <path d="M 404.17572 418.677656 
L 404.17572 30.597656 
" clip-path="url(#p9f3ac72a81)" style="fill: none; stroke: #b0b0b0; stroke-opacity: 0.14; stroke-width: 0.8; stroke-linecap: square"/>
     </g>
     <g id="line2d_46">
      <g>
       <use xlink:href="#m1db1822131" x="404.17572" y="418.677656" style="stroke: #000000; stroke-width: 0.6"/>
      </g>
     </g>
    </g>
    <g id="xtick_24">
     <g id="line2d_47">
      <path d="M 423.508128 418.677656 
L 423.508128 30.597656 
" clip-path="url(#p9f3ac72a81)" style="fill: none; stroke: #b0b0b0; stroke-opacity: 0.14; stroke-width: 0.8; stroke-linecap: square"/>
     </g>
     <g id="line2d_48">
      <g>
       <use xlink:href="#m1db1822131" x="423.508128" y="418.677656" style="stroke: #000000; stroke-width: 0.6"/>
      </g>
     </g>
    </g>
    <g id="xtick_25">
     <g id="line2d_49">
      <path d="M 438.503508 418.677656 
L 438.503508 30.597656 
" clip-path="url(#p9f3ac72a81)" style="fill: none; stroke: #b0b0b0; stroke-opacity: 0.14; stroke-width: 0.8; stroke-linecap: square"/>
     </g>
     <g id="line2d_50">
      <g>
       <use xlink:href="#m1db1822131" x="438.503508" y="418.677656" style="stroke: #000000; stroke-width: 0.6"/>
      </g>
     </g>
    </g>
    <g id="xtick_26">
     <g id="line2d_51">
      <path d="M 450.755626 418.677656 
L 450.755626 30.597656 
" clip-path="url(#p9f3ac72a81)" style="fill: none; stroke: #b0b0b0; stroke-opacity: 0.14; stroke-width: 0.8; stroke-linecap: square"/>
     </g>
     <g id="line2d_52">
      <g>
       <use xlink:href="#m1db1822131" x="450.755626" y="418.677656" style="stroke: #000000; stroke-width: 0.6"/>
      </g>
     </g>
    </g>
    <g id="xtick_27">
     <g id="line2d_53">
      <path d="M 461.114644 418.677656 
L 461.114644 30.597656 
" clip-path="url(#p9f3ac72a81)" style="fill: none; stroke: #b0b0b0; stroke-opacity: 0.14; stroke-width: 0.8; stroke-linecap: square"/>
     </g>
     <g id="line2d_54">
      <g>
       <use xlink:href="#m1db1822131" x="461.114644" y="418.677656" style="stroke: #000000; stroke-width: 0.6"/>
      </g>
     </g>
    </g>
    <g id="xtick_28">
     <g id="line2d_55">
      <path d="M 470.088033 418.677656 
L 470.088033 30.597656 
" clip-path="url(#p9f3ac72a81)" style="fill: none; stroke: #b0b0b0; stroke-opacity: 0.14; stroke-width: 0.8; stroke-linecap: square"/>
     </g>
     <g id="line2d_56">
      <g>
       <use xlink:href="#m1db1822131" x="470.088033" y="418.677656" style="stroke: #000000; stroke-width: 0.6"/>
      </g>
     </g>
    </g>
    <g id="xtick_29">
     <g id="line2d_57">
      <path d="M 478.003124 418.677656 
L 478.003124 30.597656 
" clip-path="url(#p9f3ac72a81)" style="fill: none; stroke: #b0b0b0; stroke-opacity: 0.14; stroke-width: 0.8; stroke-linecap: square"/>
     </g>
     <g id="line2d_58">
      <g>
       <use xlink:href="#m1db1822131" x="478.003124" y="418.677656" style="stroke: #000000; stroke-width: 0.6"/>
      </g>
     </g>
    </g>
    <g id="xtick_30">
     <g id="line2d_59">
      <path d="M 531.663319 418.677656 
L 531.663319 30.597656 
" clip-path="url(#p9f3ac72a81)" style="fill: none; stroke: #b0b0b0; stroke-opacity: 0.14; stroke-width: 0.8; stroke-linecap: square"/>
     </g>
     <g id="line2d_60">
      <g>
       <use xlink:href="#m1db1822131" x="531.663319" y="418.677656" style="stroke: #000000; stroke-width: 0.6"/>
      </g>
     </g>
    </g>
    <g id="xtick_31">
     <g id="line2d_61">
      <path d="M 558.910816 418.677656 
L 558.910816 30.597656 
" clip-path="url(#p9f3ac72a81)" style="fill: none; stroke: #b0b0b0; stroke-opacity: 0.14; stroke-width: 0.8; stroke-linecap: square"/>
     </g>
     <g id="line2d_62">
      <g>
       <use xlink:href="#m1db1822131" x="558.910816" y="418.677656" style="stroke: #000000; stroke-width: 0.6"/>
      </g>
     </g>
    </g>
    <g id="xtick_32">
     <g id="line2d_63">
      <path d="M 578.243224 418.677656 
L 578.243224 30.597656 
" clip-path="url(#p9f3ac72a81)" style="fill: none; stroke: #b0b0b0; stroke-opacity: 0.14; stroke-width: 0.8; stroke-linecap: square"/>
     </g>
     <g id="line2d_64">
      <g>
       <use xlink:href="#m1db1822131" x="578.243224" y="418.677656" style="stroke: #000000; stroke-width: 0.6"/>
      </g>
     </g>
    </g>
    <g id="xtick_33">
     <g id="line2d_65">
      <path d="M 593.238604 418.677656 
L 593.238604 30.597656 
" clip-path="url(#p9f3ac72a81)" style="fill: none; stroke: #b0b0b0; stroke-opacity: 0.14; stroke-width: 0.8; stroke-linecap: square"/>
     </g>
     <g id="line2d_66">
      <g>
       <use xlink:href="#m1db1822131" x="593.238604" y="418.677656" style="stroke: #000000; stroke-width: 0.6"/>
      </g>
     </g>
    </g>
    <g id="xtick_34">
     <g id="line2d_67">
      <path d="M 605.490722 418.677656 
L 605.490722 30.597656 
" clip-path="url(#p9f3ac72a81)" style="fill: none; stroke: #b0b0b0; stroke-opacity: 0.14; stroke-width: 0.8; stroke-linecap: square"/>
     </g>
     <g id="line2d_68">
      <g>
       <use xlink:href="#m1db1822131" x="605.490722" y="418.677656" style="stroke: #000000; stroke-width: 0.6"/>
      </g>
     </g>
    </g>
    <g id="xtick_35">
     <g id="line2d_69">
      <path d="M 615.84974 418.677656 
L 615.84974 30.597656 
" clip-path="url(#p9f3ac72a81)" style="fill: none; stroke: #b0b0b0; stroke-opacity: 0.14; stroke-width: 0.8; stroke-linecap: square"/>
     </g>
     <g id="line2d_70">
      <g>
       <use xlink:href="#m1db1822131" x="615.84974" y="418.677656" style="stroke: #000000; stroke-width: 0.6"/>
      </g>
     </g>
    </g>
    <g id="xtick_36">
     <g id="line2d_71">
      <path d="M 624.823129 418.677656 
L 624.823129 30.597656 
" clip-path="url(#p9f3ac72a81)" style="fill: none; stroke: #b0b0b0; stroke-opacity: 0.14; stroke-width: 0.8; stroke-linecap: square"/>
     </g>
     <g id="line2d_72">
      <g>
       <use xlink:href="#m1db1822131" x="624.823129" y="418.677656" style="stroke: #000000; stroke-width: 0.6"/>
      </g>
     </g>
    </g>
    <g id="xtick_37">
     <g id="line2d_73">
      <path d="M 632.73822 418.677656 
L 632.73822 30.597656 
" clip-path="url(#p9f3ac72a81)" style="fill: none; stroke: #b0b0b0; stroke-opacity: 0.14; stroke-width: 0.8; stroke-linecap: square"/>
     </g>
     <g id="line2d_74">
      <g>
       <use xlink:href="#m1db1822131" x="632.73822" y="418.677656" style="stroke: #000000; stroke-width: 0.6"/>
      </g>
     </g>
    </g>
    <g id="text_6">
     <!-- energia del fotone (eV) -->
     <g transform="translate(292.291094 446.954219) scale(0.1 -0.1)">
      <defs>
       <path id="DejaVuSans-65" d="M 3597 1894 
L 3597 1613 
L 953 1613 
Q 991 1019 1311 708 
Q 1631 397 2203 397 
Q 2534 397 2845 478 
Q 3156 559 3463 722 
L 3463 178 
Q 3153 47 2828 -22 
Q 2503 -91 2169 -91 
Q 1331 -91 842 396 
Q 353 884 353 1716 
Q 353 2575 817 3079 
Q 1281 3584 2069 3584 
Q 2775 3584 3186 3129 
Q 3597 2675 3597 1894 
z
M 3022 2063 
Q 3016 2534 2758 2815 
Q 2500 3097 2075 3097 
Q 1594 3097 1305 2825 
Q 1016 2553 972 2059 
L 3022 2063 
z
" transform="scale(0.015625)"/>
       <path id="DejaVuSans-6e" d="M 3513 2113 
L 3513 0 
L 2938 0 
L 2938 2094 
Q 2938 2591 2744 2837 
Q 2550 3084 2163 3084 
Q 1697 3084 1428 2787 
Q 1159 2491 1159 1978 
L 1159 0 
L 581 0 
L 581 3500 
L 1159 3500 
L 1159 2956 
Q 1366 3272 1645 3428 
Q 1925 3584 2291 3584 
Q 2894 3584 3203 3211 
Q 3513 2838 3513 2113 
z
" transform="scale(0.015625)"/>
       <path id="DejaVuSans-72" d="M 2631 2963 
Q 2534 3019 2420 3045 
Q 2306 3072 2169 3072 
Q 1681 3072 1420 2755 
Q 1159 2438 1159 1844 
L 1159 0 
L 581 0 
L 581 3500 
L 1159 3500 
L 1159 2956 
Q 1341 3275 1631 3429 
Q 1922 3584 2338 3584 
Q 2397 3584 2469 3576 
Q 2541 3569 2628 3553 
L 2631 2963 
z
" transform="scale(0.015625)"/>
       <path id="DejaVuSans-67" d="M 2906 1791 
Q 2906 2416 2648 2759 
Q 2391 3103 1925 3103 
Q 1463 3103 1205 2759 
Q 947 2416 947 1791 
Q 947 1169 1205 825 
Q 1463 481 1925 481 
Q 2391 481 2648 825 
Q 2906 1169 2906 1791 
z
M 3481 434 
Q 3481 -459 3084 -895 
Q 2688 -1331 1869 -1331 
Q 1566 -1331 1297 -1286 
Q 1028 -1241 775 -1147 
L 775 -588 
Q 1028 -725 1275 -790 
Q 1522 -856 1778 -856 
Q 2344 -856 2625 -561 
Q 2906 -266 2906 331 
L 2906 616 
Q 2728 306 2450 153 
Q 2172 0 1784 0 
Q 1141 0 747 490 
Q 353 981 353 1791 
Q 353 2603 747 3093 
Q 1141 3584 1784 3584 
Q 2172 3584 2450 3431 
Q 2728 3278 2906 2969 
L 2906 3500 
L 3481 3500 
L 3481 434 
z
" transform="scale(0.015625)"/>
       <path id="DejaVuSans-69" d="M 603 3500 
L 1178 3500 
L 1178 0 
L 603 0 
L 603 3500 
z
M 603 4863 
L 1178 4863 
L 1178 4134 
L 603 4134 
L 603 4863 
z
" transform="scale(0.015625)"/>
       <path id="DejaVuSans-61" d="M 2194 1759 
Q 1497 1759 1228 1600 
Q 959 1441 959 1056 
Q 959 750 1161 570 
Q 1363 391 1709 391 
Q 2188 391 2477 730 
Q 2766 1069 2766 1631 
L 2766 1759 
L 2194 1759 
z
M 3341 1997 
L 3341 0 
L 2766 0 
L 2766 531 
Q 2569 213 2275 61 
Q 1981 -91 1556 -91 
Q 1019 -91 701 211 
Q 384 513 384 1019 
Q 384 1609 779 1909 
Q 1175 2209 1959 2209 
L 2766 2209 
L 2766 2266 
Q 2766 2663 2505 2880 
Q 2244 3097 1772 3097 
Q 1472 3097 1187 3025 
Q 903 2953 641 2809 
L 641 3341 
Q 956 3463 1253 3523 
Q 1550 3584 1831 3584 
Q 2591 3584 2966 3190 
Q 3341 2797 3341 1997 
z
" transform="scale(0.015625)"/>
       <path id="DejaVuSans-20" transform="scale(0.015625)"/>
       <path id="DejaVuSans-64" d="M 2906 2969 
L 2906 4863 
L 3481 4863 
L 3481 0 
L 2906 0 
L 2906 525 
Q 2725 213 2448 61 
Q 2172 -91 1784 -91 
Q 1150 -91 751 415 
Q 353 922 353 1747 
Q 353 2572 751 3078 
Q 1150 3584 1784 3584 
Q 2172 3584 2448 3432 
Q 2725 3281 2906 2969 
z
M 947 1747 
Q 947 1113 1208 752 
Q 1469 391 1925 391 
Q 2381 391 2643 752 
Q 2906 1113 2906 1747 
Q 2906 2381 2643 2742 
Q 2381 3103 1925 3103 
Q 1469 3103 1208 2742 
Q 947 2381 947 1747 
z
" transform="scale(0.015625)"/>
       <path id="DejaVuSans-6c" d="M 603 4863 
L 1178 4863 
L 1178 0 
L 603 0 
L 603 4863 
z
" transform="scale(0.015625)"/>
       <path id="DejaVuSans-66" d="M 2375 4863 
L 2375 4384 
L 1825 4384 
Q 1516 4384 1395 4259 
Q 1275 4134 1275 3809 
L 1275 3500 
L 2222 3500 
L 2222 3053 
L 1275 3053 
L 1275 0 
L 697 0 
L 697 3053 
L 147 3053 
L 147 3500 
L 697 3500 
L 697 3744 
Q 697 4328 969 4595 
Q 1241 4863 1831 4863 
L 2375 4863 
z
" transform="scale(0.015625)"/>
       <path id="DejaVuSans-6f" d="M 1959 3097 
Q 1497 3097 1228 2736 
Q 959 2375 959 1747 
Q 959 1119 1226 758 
Q 1494 397 1959 397 
Q 2419 397 2687 759 
Q 2956 1122 2956 1747 
Q 2956 2369 2687 2733 
Q 2419 3097 1959 3097 
z
M 1959 3584 
Q 2709 3584 3137 3096 
Q 3566 2609 3566 1747 
Q 3566 888 3137 398 
Q 2709 -91 1959 -91 
Q 1206 -91 779 398 
Q 353 888 353 1747 
Q 353 2609 779 3096 
Q 1206 3584 1959 3584 
z
" transform="scale(0.015625)"/>
       <path id="DejaVuSans-74" d="M 1172 4494 
L 1172 3500 
L 2356 3500 
L 2356 3053 
L 1172 3053 
L 1172 1153 
Q 1172 725 1289 603 
Q 1406 481 1766 481 
L 2356 481 
L 2356 0 
L 1766 0 
Q 1100 0 847 248 
Q 594 497 594 1153 
L 594 3053 
L 172 3053 
L 172 3500 
L 594 3500 
L 594 4494 
L 1172 4494 
z
" transform="scale(0.015625)"/>
       <path id="DejaVuSans-28" d="M 1984 4856 
Q 1566 4138 1362 3434 
Q 1159 2731 1159 2009 
Q 1159 1288 1364 580 
Q 1569 -128 1984 -844 
L 1484 -844 
Q 1016 -109 783 600 
Q 550 1309 550 2009 
Q 550 2706 781 3412 
Q 1013 4119 1484 4856 
L 1984 4856 
z
" transform="scale(0.015625)"/>
       <path id="DejaVuSans-56" d="M 1831 0 
L 50 4666 
L 709 4666 
L 2188 738 
L 3669 4666 
L 4325 4666 
L 2547 0 
L 1831 0 
z
" transform="scale(0.015625)"/>
       <path id="DejaVuSans-29" d="M 513 4856 
L 1013 4856 
Q 1481 4119 1714 3412 
Q 1947 2706 1947 2009 
Q 1947 1309 1714 600 
Q 1481 -109 1013 -844 
L 513 -844 
Q 928 -128 1133 580 
Q 1338 1288 1338 2009 
Q 1338 2731 1133 3434 
Q 928 4138 513 4856 
z
" transform="scale(0.015625)"/>
      </defs>
      <use xlink:href="#DejaVuSans-65"/>
      <use xlink:href="#DejaVuSans-6e" transform="translate(61.523438 0)"/>
      <use xlink:href="#DejaVuSans-65" transform="translate(124.902344 0)"/>
      <use xlink:href="#DejaVuSans-72" transform="translate(186.425781 0)"/>
      <use xlink:href="#DejaVuSans-67" transform="translate(225.789062 0)"/>
      <use xlink:href="#DejaVuSans-69" transform="translate(289.265625 0)"/>
      <use xlink:href="#DejaVuSans-61" transform="translate(317.048828 0)"/>
      <use xlink:href="#DejaVuSans-20" transform="translate(378.328125 0)"/>
      <use xlink:href="#DejaVuSans-64" transform="translate(410.115234 0)"/>
      <use xlink:href="#DejaVuSans-65" transform="translate(473.591797 0)"/>
      <use xlink:href="#DejaVuSans-6c" transform="translate(535.115234 0)"/>
      <use xlink:href="#DejaVuSans-20" transform="translate(562.898438 0)"/>
      <use xlink:href="#DejaVuSans-66" transform="translate(594.685547 0)"/>
      <use xlink:href="#DejaVuSans-6f" transform="translate(629.890625 0)"/>
      <use xlink:href="#DejaVuSans-74" transform="translate(691.072266 0)"/>
      <use xlink:href="#DejaVuSans-6f" transform="translate(730.28125 0)"/>
      <use xlink:href="#DejaVuSans-6e" transform="translate(791.462891 0)"/>
      <use xlink:href="#DejaVuSans-65" transform="translate(854.841797 0)"/>
      <use xlink:href="#DejaVuSans-20" transform="translate(916.365234 0)"/>
      <use xlink:href="#DejaVuSans-28" transform="translate(948.152344 0)"/>
      <use xlink:href="#DejaVuSans-65" transform="translate(987.166016 0)"/>
      <use xlink:href="#DejaVuSans-56" transform="translate(1048.689453 0)"/>
      <use xlink:href="#DejaVuSans-29" transform="translate(1117.097656 0)"/>
     </g>
    </g>
   </g>
   <g id="matplotlib.axis_2">
    <g id="text_7">
     <!-- coefficiente di assorbimento, scala qualitativa -->
     <g transform="translate(14.798438 339.900937) rotate(-90) scale(0.1 -0.1)">
      <defs>
       <path id="DejaVuSans-63" d="M 3122 3366 
L 3122 2828 
Q 2878 2963 2633 3030 
Q 2388 3097 2138 3097 
Q 1578 3097 1268 2742 
Q 959 2388 959 1747 
Q 959 1106 1268 751 
Q 1578 397 2138 397 
Q 2388 397 2633 464 
Q 2878 531 3122 666 
L 3122 134 
Q 2881 22 2623 -34 
Q 2366 -91 2075 -91 
Q 1284 -91 818 406 
Q 353 903 353 1747 
Q 353 2603 823 3093 
Q 1294 3584 2113 3584 
Q 2378 3584 2631 3529 
Q 2884 3475 3122 3366 
z
" transform="scale(0.015625)"/>
       <path id="DejaVuSans-73" d="M 2834 3397 
L 2834 2853 
Q 2591 2978 2328 3040 
Q 2066 3103 1784 3103 
Q 1356 3103 1142 2972 
Q 928 2841 928 2578 
Q 928 2378 1081 2264 
Q 1234 2150 1697 2047 
L 1894 2003 
Q 2506 1872 2764 1633 
Q 3022 1394 3022 966 
Q 3022 478 2636 193 
Q 2250 -91 1575 -91 
Q 1294 -91 989 -36 
Q 684 19 347 128 
L 347 722 
Q 666 556 975 473 
Q 1284 391 1588 391 
Q 1994 391 2212 530 
Q 2431 669 2431 922 
Q 2431 1156 2273 1281 
Q 2116 1406 1581 1522 
L 1381 1569 
Q 847 1681 609 1914 
Q 372 2147 372 2553 
Q 372 3047 722 3315 
Q 1072 3584 1716 3584 
Q 2034 3584 2315 3537 
Q 2597 3491 2834 3397 
z
" transform="scale(0.015625)"/>
       <path id="DejaVuSans-62" d="M 3116 1747 
Q 3116 2381 2855 2742 
Q 2594 3103 2138 3103 
Q 1681 3103 1420 2742 
Q 1159 2381 1159 1747 
Q 1159 1113 1420 752 
Q 1681 391 2138 391 
Q 2594 391 2855 752 
Q 3116 1113 3116 1747 
z
M 1159 2969 
Q 1341 3281 1617 3432 
Q 1894 3584 2278 3584 
Q 2916 3584 3314 3078 
Q 3713 2572 3713 1747 
Q 3713 922 3314 415 
Q 2916 -91 2278 -91 
Q 1894 -91 1617 61 
Q 1341 213 1159 525 
L 1159 0 
L 581 0 
L 581 4863 
L 1159 4863 
L 1159 2969 
z
" transform="scale(0.015625)"/>
       <path id="DejaVuSans-6d" d="M 3328 2828 
Q 3544 3216 3844 3400 
Q 4144 3584 4550 3584 
Q 5097 3584 5394 3201 
Q 5691 2819 5691 2113 
L 5691 0 
L 5113 0 
L 5113 2094 
Q 5113 2597 4934 2840 
Q 4756 3084 4391 3084 
Q 3944 3084 3684 2787 
Q 3425 2491 3425 1978 
L 3425 0 
L 2847 0 
L 2847 2094 
Q 2847 2600 2669 2842 
Q 2491 3084 2119 3084 
Q 1678 3084 1418 2786 
Q 1159 2488 1159 1978 
L 1159 0 
L 581 0 
L 581 3500 
L 1159 3500 
L 1159 2956 
Q 1356 3278 1631 3431 
Q 1906 3584 2284 3584 
Q 2666 3584 2933 3390 
Q 3200 3197 3328 2828 
z
" transform="scale(0.015625)"/>
       <path id="DejaVuSans-2c" d="M 750 794 
L 1409 794 
L 1409 256 
L 897 -744 
L 494 -744 
L 750 256 
L 750 794 
z
" transform="scale(0.015625)"/>
       <path id="DejaVuSans-71" d="M 947 1747 
Q 947 1113 1208 752 
Q 1469 391 1925 391 
Q 2381 391 2643 752 
Q 2906 1113 2906 1747 
Q 2906 2381 2643 2742 
Q 2381 3103 1925 3103 
Q 1469 3103 1208 2742 
Q 947 2381 947 1747 
z
M 2906 525 
Q 2725 213 2448 61 
Q 2172 -91 1784 -91 
Q 1150 -91 751 415 
Q 353 922 353 1747 
Q 353 2572 751 3078 
Q 1150 3584 1784 3584 
Q 2172 3584 2448 3432 
Q 2725 3281 2906 2969 
L 2906 3500 
L 3481 3500 
L 3481 -1331 
L 2906 -1331 
L 2906 525 
z
" transform="scale(0.015625)"/>
       <path id="DejaVuSans-75" d="M 544 1381 
L 544 3500 
L 1119 3500 
L 1119 1403 
Q 1119 906 1312 657 
Q 1506 409 1894 409 
Q 2359 409 2629 706 
Q 2900 1003 2900 1516 
L 2900 3500 
L 3475 3500 
L 3475 0 
L 2900 0 
L 2900 538 
Q 2691 219 2414 64 
Q 2138 -91 1772 -91 
Q 1169 -91 856 284 
Q 544 659 544 1381 
z
M 1991 3584 
L 1991 3584 
z
" transform="scale(0.015625)"/>
       <path id="DejaVuSans-76" d="M 191 3500 
L 800 3500 
L 1894 563 
L 2988 3500 
L 3597 3500 
L 2284 0 
L 1503 0 
L 191 3500 
z
" transform="scale(0.015625)"/>
      </defs>
      <use xlink:href="#DejaVuSans-63"/>
      <use xlink:href="#DejaVuSans-6f" transform="translate(54.980469 0)"/>
      <use xlink:href="#DejaVuSans-65" transform="translate(116.162109 0)"/>
      <use xlink:href="#DejaVuSans-66" transform="translate(177.685547 0)"/>
      <use xlink:href="#DejaVuSans-66" transform="translate(212.890625 0)"/>
      <use xlink:href="#DejaVuSans-69" transform="translate(248.095703 0)"/>
      <use xlink:href="#DejaVuSans-63" transform="translate(275.878906 0)"/>
      <use xlink:href="#DejaVuSans-69" transform="translate(330.859375 0)"/>
      <use xlink:href="#DejaVuSans-65" transform="translate(358.642578 0)"/>
      <use xlink:href="#DejaVuSans-6e" transform="translate(420.166016 0)"/>
      <use xlink:href="#DejaVuSans-74" transform="translate(483.544922 0)"/>
      <use xlink:href="#DejaVuSans-65" transform="translate(522.753906 0)"/>
      <use xlink:href="#DejaVuSans-20" transform="translate(584.277344 0)"/>
      <use xlink:href="#DejaVuSans-64" transform="translate(616.064453 0)"/>
      <use xlink:href="#DejaVuSans-69" transform="translate(679.541016 0)"/>
      <use xlink:href="#DejaVuSans-20" transform="translate(707.324219 0)"/>
      <use xlink:href="#DejaVuSans-61" transform="translate(739.111328 0)"/>
      <use xlink:href="#DejaVuSans-73" transform="translate(800.390625 0)"/>
      <use xlink:href="#DejaVuSans-73" transform="translate(852.490234 0)"/>
      <use xlink:href="#DejaVuSans-6f" transform="translate(904.589844 0)"/>
      <use xlink:href="#DejaVuSans-72" transform="translate(965.771484 0)"/>
      <use xlink:href="#DejaVuSans-62" transform="translate(1006.884766 0)"/>
      <use xlink:href="#DejaVuSans-69" transform="translate(1070.361328 0)"/>
      <use xlink:href="#DejaVuSans-6d" transform="translate(1098.144531 0)"/>
      <use xlink:href="#DejaVuSans-65" transform="translate(1195.556641 0)"/>
      <use xlink:href="#DejaVuSans-6e" transform="translate(1257.080078 0)"/>
      <use xlink:href="#DejaVuSans-74" transform="translate(1320.458984 0)"/>
      <use xlink:href="#DejaVuSans-6f" transform="translate(1359.667969 0)"/>
      <use xlink:href="#DejaVuSans-2c" transform="translate(1420.849609 0)"/>
      <use xlink:href="#DejaVuSans-20" transform="translate(1452.636719 0)"/>
      <use xlink:href="#DejaVuSans-73" transform="translate(1484.423828 0)"/>
      <use xlink:href="#DejaVuSans-63" transform="translate(1536.523438 0)"/>
      <use xlink:href="#DejaVuSans-61" transform="translate(1591.503906 0)"/>
      <use xlink:href="#DejaVuSans-6c" transform="translate(1652.783203 0)"/>
      <use xlink:href="#DejaVuSans-61" transform="translate(1680.566406 0)"/>
      <use xlink:href="#DejaVuSans-20" transform="translate(1741.845703 0)"/>
      <use xlink:href="#DejaVuSans-71" transform="translate(1773.632812 0)"/>
      <use xlink:href="#DejaVuSans-75" transform="translate(1837.109375 0)"/>
      <use xlink:href="#DejaVuSans-61" transform="translate(1900.488281 0)"/>
      <use xlink:href="#DejaVuSans-6c" transform="translate(1961.767578 0)"/>
      <use xlink:href="#DejaVuSans-69" transform="translate(1989.550781 0)"/>
      <use xlink:href="#DejaVuSans-74" transform="translate(2017.333984 0)"/>
      <use xlink:href="#DejaVuSans-61" transform="translate(2056.542969 0)"/>
      <use xlink:href="#DejaVuSans-74" transform="translate(2117.822266 0)"/>
      <use xlink:href="#DejaVuSans-69" transform="translate(2157.03125 0)"/>
      <use xlink:href="#DejaVuSans-76" transform="translate(2184.814453 0)"/>
      <use xlink:href="#DejaVuSans-61" transform="translate(2243.994141 0)"/>
     </g>
    </g>
   </g>
   <g id="line2d_75">
    <path d="M 20.878125 385.261217 
L 209.582465 385.134818 
L 218.554145 384.945827 
L 223.638097 384.639377 
L 227.525826 384.190596 
L 230.516386 383.638881 
L 233.20789 382.921934 
L 235.600338 382.052368 
L 237.69373 381.065732 
L 239.787122 379.823238 
L 241.581458 378.51889 
L 243.375794 376.960448 
L 245.17013 375.115629 
L 246.964466 372.952278 
L 248.758802 370.439524 
L 250.553138 367.549139 
L 252.347474 364.257063 
L 254.14181 360.545049 
L 256.235202 355.669824 
L 258.328594 350.207939 
L 260.721042 343.273681 
L 263.412546 334.673439 
L 266.403106 324.319207 
L 271.786115 304.642929 
L 275.374787 291.88474 
L 277.767235 284.075691 
L 279.860627 277.957812 
L 281.654963 273.386399 
L 283.150243 270.128681 
L 284.645523 267.427442 
L 285.841747 265.696377 
L 287.037971 264.367126 
L 287.935139 263.642375 
L 288.832307 263.155795 
L 289.729475 262.910255 
L 290.626643 262.90719 
L 291.523811 263.146591 
L 292.420979 263.627004 
L 293.318147 264.345546 
L 294.514371 265.666416 
L 295.710595 267.38895 
L 296.906819 269.495204 
L 298.402099 272.634262 
L 299.897379 276.289105 
L 301.691715 281.275716 
L 303.785107 287.784552 
L 306.476611 296.962882 
L 310.962451 313.268512 
L 315.448291 329.362009 
L 318.438852 339.289754 
L 320.8313 346.541336 
L 323.223748 353.080283 
L 325.31714 358.179857 
L 327.410532 362.690246 
L 329.503924 366.622554 
L 331.29826 369.552454 
L 333.092596 372.099823 
L 334.886932 374.29227 
L 336.681268 376.160276 
L 338.475604 377.73581 
L 340.26994 379.051133 
L 342.363332 380.298844 
L 344.456724 381.282828 
L 346.849172 382.140231 
L 349.24162 382.767701 
L 352.23218 383.302601 
L 355.521796 383.654723 
L 359.409524 383.846497 
L 363.895365 383.845654 
L 368.082149 383.632863 
L 371.371765 383.257935 
L 374.063269 382.732182 
L 376.156661 382.119176 
L 377.950997 381.397696 
L 379.745333 380.440207 
L 381.240613 379.416773 
L 382.735893 378.14354 
L 384.231173 376.573344 
L 385.726453 374.654653 
L 387.221733 372.332515 
L 388.717013 369.549941 
L 390.212293 366.249758 
L 391.707573 362.376939 
L 393.202853 357.881377 
L 394.698133 352.721047 
L 396.492469 345.609222 
L 398.286805 337.473604 
L 400.081141 328.330649 
L 402.174533 316.47884 
L 404.566981 301.616788 
L 408.155653 277.703292 
L 412.342438 250.086379 
L 414.43583 237.675767 
L 416.230166 228.358883 
L 417.725446 221.778074 
L 418.92167 217.40859 
L 420.117894 213.912546 
L 421.015062 211.898364 
L 421.91223 210.425725 
L 422.510342 209.751309 
L 423.108454 209.325708 
L 423.706566 209.150178 
L 424.304678 209.224842 
L 424.90279 209.548688 
L 425.500902 210.119576 
L 426.099014 210.934251 
L 426.996182 212.603576 
L 427.89335 214.792326 
L 429.089574 218.476304 
L 430.285798 222.97052 
L 431.781078 229.601068 
L 433.575414 238.798673 
L 435.668806 250.797595 
L 439.257478 272.94934 
L 442.84615 294.767766 
L 445.238598 308.032071 
L 447.33199 318.372766 
L 449.126326 326.147487 
L 450.920662 332.855674 
L 452.415942 337.622578 
L 453.911222 341.655846 
L 455.406503 344.985158 
L 456.602727 347.169066 
L 457.798951 348.953433 
L 458.995175 350.365344 
L 460.191399 351.433173 
L 461.387623 352.185761 
L 462.583847 352.651713 
L 463.780071 352.858826 
L 464.976295 352.833638 
L 466.172519 352.60109 
L 467.667799 352.053839 
L 469.163079 351.259402 
L 470.957415 350.030038 
L 473.050807 348.281165 
L 475.443255 345.949994 
L 478.134759 342.996008 
L 481.424375 339.021341 
L 485.312103 333.935286 
L 489.797943 327.675842 
L 495.180951 319.750795 
L 501.162072 310.533785 
L 507.143192 300.92301 
L 512.5262 291.880165 
L 517.311096 283.427977 
L 521.796936 275.045402 
L 525.98372 266.739236 
L 530.170504 257.91493 
L 534.357288 248.563103 
L 539.142184 237.292686 
L 545.42236 221.856439 
L 554.394041 199.81819 
L 558.580825 190.145246 
L 562.169497 182.417059 
L 565.160057 176.46283 
L 568.150617 170.999418 
L 570.842121 166.522057 
L 573.533625 162.464263 
L 576.225129 158.815734 
L 578.916633 155.555621 
L 581.608137 152.655683 
L 584.299641 150.084059 
L 586.991145 147.80934 
L 589.682649 145.804556 
L 592.374154 144.050725 
L 595.065658 142.539615 
L 597.757162 141.27546 
L 600.14961 140.372702 
L 602.542058 139.698683 
L 604.63545 139.317435 
L 606.728842 139.152758 
L 608.822234 139.22753 
L 610.61657 139.500036 
L 612.410906 139.980236 
L 614.205242 140.681681 
L 615.999578 141.616399 
L 617.793914 142.79436 
L 619.58825 144.222986 
L 621.382586 145.906742 
L 623.475978 148.194968 
L 625.56937 150.827758 
L 627.662762 153.794224 
L 630.05521 157.570204 
L 632.746714 162.265672 
L 635.737274 167.959511 
L 639.325947 175.302969 
L 644.708955 186.910297 
L 651.886299 202.318286 
L 655.774027 210.115386 
L 659.063643 216.216532 
L 662.054203 221.291851 
L 664.745707 225.440264 
L 667.437211 229.174636 
L 669.829659 232.143251 
L 672.222107 234.786157 
L 674.614555 237.113528 
L 677.007003 239.140177 
L 678.502283 240.26218 
L 678.502283 240.26218 
" clip-path="url(#p9f3ac72a81)" style="fill: none; stroke: #1f77b4; stroke-width: 2.7; stroke-linecap: square"/>
   </g>
   <g id="patch_8">
    <path d="M 20.878125 418.677656 
L 20.878125 30.597656 
" style="fill: none; stroke: #000000; stroke-width: 0.8; stroke-linejoin: miter; stroke-linecap: square"/>
   </g>
   <g id="patch_9">
    <path d="M 679.318125 418.677656 
L 679.318125 30.597656 
" style="fill: none; stroke: #000000; stroke-width: 0.8; stroke-linejoin: miter; stroke-linecap: square"/>
   </g>
   <g id="patch_10">
    <path d="M 20.878125 418.677656 
L 679.318125 418.677656 
" style="fill: none; stroke: #000000; stroke-width: 0.8; stroke-linejoin: miter; stroke-linecap: square"/>
   </g>
   <g id="patch_11">
    <path d="M 20.878125 30.597656 
L 679.318125 30.597656 
" style="fill: none; stroke: #000000; stroke-width: 0.8; stroke-linejoin: miter; stroke-linecap: square"/>
   </g>
   <g id="text_8">
    <!-- onde radio -->
    <g transform="translate(75.725142 62.681006) scale(0.084 -0.084)">
     <use xlink:href="#DejaVuSans-6f"/>
     <use xlink:href="#DejaVuSans-6e" transform="translate(61.181641 0)"/>
     <use xlink:href="#DejaVuSans-64" transform="translate(124.560547 0)"/>
     <use xlink:href="#DejaVuSans-65" transform="translate(188.037109 0)"/>
     <use xlink:href="#DejaVuSans-20" transform="translate(249.560547 0)"/>
     <use xlink:href="#DejaVuSans-72" transform="translate(281.347656 0)"/>
     <use xlink:href="#DejaVuSans-61" transform="translate(322.460938 0)"/>
     <use xlink:href="#DejaVuSans-64" transform="translate(383.740234 0)"/>
     <use xlink:href="#DejaVuSans-69" transform="translate(447.216797 0)"/>
     <use xlink:href="#DejaVuSans-6f" transform="translate(475 0)"/>
    </g>
    <!-- e microonde -->
    <g transform="translate(72.075079 72.087169) scale(0.084 -0.084)">
     <use xlink:href="#DejaVuSans-65"/>
     <use xlink:href="#DejaVuSans-20" transform="translate(61.523438 0)"/>
     <use xlink:href="#DejaVuSans-6d" transform="translate(93.310547 0)"/>
     <use xlink:href="#DejaVuSans-69" transform="translate(190.722656 0)"/>
     <use xlink:href="#DejaVuSans-63" transform="translate(218.505859 0)"/>
     <use xlink:href="#DejaVuSans-72" transform="translate(273.486328 0)"/>
     <use xlink:href="#DejaVuSans-6f" transform="translate(312.349609 0)"/>
     <use xlink:href="#DejaVuSans-6f" transform="translate(373.53125 0)"/>
     <use xlink:href="#DejaVuSans-6e" transform="translate(434.712891 0)"/>
     <use xlink:href="#DejaVuSans-64" transform="translate(498.091797 0)"/>
     <use xlink:href="#DejaVuSans-65" transform="translate(561.568359 0)"/>
    </g>
   </g>
   <g id="text_9">
    <!-- infrarosso -->
    <g transform="translate(238.351609 62.681006) scale(0.084 -0.084)">
     <use xlink:href="#DejaVuSans-69"/>
     <use xlink:href="#DejaVuSans-6e" transform="translate(27.783203 0)"/>
     <use xlink:href="#DejaVuSans-66" transform="translate(91.162109 0)"/>
     <use xlink:href="#DejaVuSans-72" transform="translate(126.367188 0)"/>
     <use xlink:href="#DejaVuSans-61" transform="translate(167.480469 0)"/>
     <use xlink:href="#DejaVuSans-72" transform="translate(228.759766 0)"/>
     <use xlink:href="#DejaVuSans-6f" transform="translate(267.623047 0)"/>
     <use xlink:href="#DejaVuSans-73" transform="translate(328.804688 0)"/>
     <use xlink:href="#DejaVuSans-73" transform="translate(380.904297 0)"/>
     <use xlink:href="#DejaVuSans-6f" transform="translate(433.003906 0)"/>
    </g>
    <!-- reticolare -->
    <g transform="translate(239.240828 72.087169) scale(0.084 -0.084)">
     <use xlink:href="#DejaVuSans-72"/>
     <use xlink:href="#DejaVuSans-65" transform="translate(38.863281 0)"/>
     <use xlink:href="#DejaVuSans-74" transform="translate(100.386719 0)"/>
     <use xlink:href="#DejaVuSans-69" transform="translate(139.595703 0)"/>
     <use xlink:href="#DejaVuSans-63" transform="translate(167.378906 0)"/>
     <use xlink:href="#DejaVuSans-6f" transform="translate(222.359375 0)"/>
     <use xlink:href="#DejaVuSans-6c" transform="translate(283.541016 0)"/>
     <use xlink:href="#DejaVuSans-61" transform="translate(311.324219 0)"/>
     <use xlink:href="#DejaVuSans-72" transform="translate(372.603516 0)"/>
     <use xlink:href="#DejaVuSans-65" transform="translate(411.466797 0)"/>
    </g>
   </g>
   <g id="text_10">
    <!-- infrarosso -->
    <g transform="translate(393.086705 62.681006) scale(0.084 -0.084)">
     <use xlink:href="#DejaVuSans-69"/>
     <use xlink:href="#DejaVuSans-6e" transform="translate(27.783203 0)"/>
     <use xlink:href="#DejaVuSans-66" transform="translate(91.162109 0)"/>
     <use xlink:href="#DejaVuSans-72" transform="translate(126.367188 0)"/>
     <use xlink:href="#DejaVuSans-61" transform="translate(167.480469 0)"/>
     <use xlink:href="#DejaVuSans-72" transform="translate(228.759766 0)"/>
     <use xlink:href="#DejaVuSans-6f" transform="translate(267.623047 0)"/>
     <use xlink:href="#DejaVuSans-73" transform="translate(328.804688 0)"/>
     <use xlink:href="#DejaVuSans-73" transform="translate(380.904297 0)"/>
     <use xlink:href="#DejaVuSans-6f" transform="translate(433.003906 0)"/>
    </g>
    <!-- ed eccitazioni interne -->
    <g transform="translate(368.60333 72.087169) scale(0.084 -0.084)">
     <defs>
      <path id="DejaVuSans-7a" d="M 353 3500 
L 3084 3500 
L 3084 2975 
L 922 459 
L 3084 459 
L 3084 0 
L 275 0 
L 275 525 
L 2438 3041 
L 353 3041 
L 353 3500 
z
" transform="scale(0.015625)"/>
     </defs>
     <use xlink:href="#DejaVuSans-65"/>
     <use xlink:href="#DejaVuSans-64" transform="translate(61.523438 0)"/>
     <use xlink:href="#DejaVuSans-20" transform="translate(125 0)"/>
     <use xlink:href="#DejaVuSans-65" transform="translate(156.787109 0)"/>
     <use xlink:href="#DejaVuSans-63" transform="translate(218.310547 0)"/>
     <use xlink:href="#DejaVuSans-63" transform="translate(273.291016 0)"/>
     <use xlink:href="#DejaVuSans-69" transform="translate(328.271484 0)"/>
     <use xlink:href="#DejaVuSans-74" transform="translate(356.054688 0)"/>
     <use xlink:href="#DejaVuSans-61" transform="translate(395.263672 0)"/>
     <use xlink:href="#DejaVuSans-7a" transform="translate(456.542969 0)"/>
     <use xlink:href="#DejaVuSans-69" transform="translate(509.033203 0)"/>
     <use xlink:href="#DejaVuSans-6f" transform="translate(536.816406 0)"/>
     <use xlink:href="#DejaVuSans-6e" transform="translate(597.998047 0)"/>
     <use xlink:href="#DejaVuSans-69" transform="translate(661.376953 0)"/>
     <use xlink:href="#DejaVuSans-20" transform="translate(689.160156 0)"/>
     <use xlink:href="#DejaVuSans-69" transform="translate(720.947266 0)"/>
     <use xlink:href="#DejaVuSans-6e" transform="translate(748.730469 0)"/>
     <use xlink:href="#DejaVuSans-74" transform="translate(812.109375 0)"/>
     <use xlink:href="#DejaVuSans-65" transform="translate(851.318359 0)"/>
     <use xlink:href="#DejaVuSans-72" transform="translate(912.841797 0)"/>
     <use xlink:href="#DejaVuSans-6e" transform="translate(952.205078 0)"/>
     <use xlink:href="#DejaVuSans-65" transform="translate(1015.583984 0)"/>
    </g>
   </g>
   <g id="text_11">
    <!-- assorbimento -->
    <g transform="translate(493.364271 62.681006) scale(0.084 -0.084)">
     <use xlink:href="#DejaVuSans-61"/>
     <use xlink:href="#DejaVuSans-73" transform="translate(61.279297 0)"/>
     <use xlink:href="#DejaVuSans-73" transform="translate(113.378906 0)"/>
     <use xlink:href="#DejaVuSans-6f" transform="translate(165.478516 0)"/>
     <use xlink:href="#DejaVuSans-72" transform="translate(226.660156 0)"/>
     <use xlink:href="#DejaVuSans-62" transform="translate(267.773438 0)"/>
     <use xlink:href="#DejaVuSans-69" transform="translate(331.25 0)"/>
     <use xlink:href="#DejaVuSans-6d" transform="translate(359.033203 0)"/>
     <use xlink:href="#DejaVuSans-65" transform="translate(456.445312 0)"/>
     <use xlink:href="#DejaVuSans-6e" transform="translate(517.96875 0)"/>
     <use xlink:href="#DejaVuSans-74" transform="translate(581.347656 0)"/>
     <use xlink:href="#DejaVuSans-6f" transform="translate(620.556641 0)"/>
    </g>
    <!-- interbanda -->
    <g transform="translate(499.069052 72.087169) scale(0.084 -0.084)">
     <use xlink:href="#DejaVuSans-69"/>
     <use xlink:href="#DejaVuSans-6e" transform="translate(27.783203 0)"/>
     <use xlink:href="#DejaVuSans-74" transform="translate(91.162109 0)"/>
     <use xlink:href="#DejaVuSans-65" transform="translate(130.371094 0)"/>
     <use xlink:href="#DejaVuSans-72" transform="translate(191.894531 0)"/>
     <use xlink:href="#DejaVuSans-62" transform="translate(233.007812 0)"/>
     <use xlink:href="#DejaVuSans-61" transform="translate(296.484375 0)"/>
     <use xlink:href="#DejaVuSans-6e" transform="translate(357.763672 0)"/>
     <use xlink:href="#DejaVuSans-64" transform="translate(421.142578 0)"/>
     <use xlink:href="#DejaVuSans-61" transform="translate(484.619141 0)"/>
    </g>
   </g>
   <g id="text_12">
    <!-- ultravioletto -->
    <g transform="translate(593.502346 62.681006) scale(0.084 -0.084)">
     <use xlink:href="#DejaVuSans-75"/>
     <use xlink:href="#DejaVuSans-6c" transform="translate(63.378906 0)"/>
     <use xlink:href="#DejaVuSans-74" transform="translate(91.162109 0)"/>
     <use xlink:href="#DejaVuSans-72" transform="translate(130.371094 0)"/>
     <use xlink:href="#DejaVuSans-61" transform="translate(171.484375 0)"/>
     <use xlink:href="#DejaVuSans-76" transform="translate(232.763672 0)"/>
     <use xlink:href="#DejaVuSans-69" transform="translate(291.943359 0)"/>
     <use xlink:href="#DejaVuSans-6f" transform="translate(319.726562 0)"/>
     <use xlink:href="#DejaVuSans-6c" transform="translate(380.908203 0)"/>
     <use xlink:href="#DejaVuSans-65" transform="translate(408.691406 0)"/>
     <use xlink:href="#DejaVuSans-74" transform="translate(470.214844 0)"/>
     <use xlink:href="#DejaVuSans-74" transform="translate(509.423828 0)"/>
     <use xlink:href="#DejaVuSans-6f" transform="translate(548.632812 0)"/>
    </g>
   </g>
   <g id="patch_12">
    <path d="M 223.179121 202.85795 
Q 255.930996 232.202175 287.933442 260.874943 
" style="fill: none; stroke: #000000; stroke-width: 0.9; stroke-linecap: round"/>
    <path d="M 286.453335 257.132045 
L 287.933442 260.874943 
L 284.051059 259.813289 
z
" style="fill: #1f77b4; stroke: #000000; stroke-width: 0.9; stroke-linecap: round"/>
   </g>
   <g id="text_13">
    <!-- fononi ottici -->
    <g transform="translate(187.865339 197.651961) scale(0.09 -0.09)">
     <use xlink:href="#DejaVuSans-66"/>
     <use xlink:href="#DejaVuSans-6f" transform="translate(35.205078 0)"/>
     <use xlink:href="#DejaVuSans-6e" transform="translate(96.386719 0)"/>
     <use xlink:href="#DejaVuSans-6f" transform="translate(159.765625 0)"/>
     <use xlink:href="#DejaVuSans-6e" transform="translate(220.947266 0)"/>
     <use xlink:href="#DejaVuSans-69" transform="translate(284.326172 0)"/>
     <use xlink:href="#DejaVuSans-20" transform="translate(312.109375 0)"/>
     <use xlink:href="#DejaVuSans-6f" transform="translate(343.896484 0)"/>
     <use xlink:href="#DejaVuSans-74" transform="translate(405.078125 0)"/>
     <use xlink:href="#DejaVuSans-74" transform="translate(444.287109 0)"/>
     <use xlink:href="#DejaVuSans-69" transform="translate(483.496094 0)"/>
     <use xlink:href="#DejaVuSans-63" transform="translate(511.279297 0)"/>
     <use xlink:href="#DejaVuSans-69" transform="translate(566.259766 0)"/>
    </g>
   </g>
   <g id="patch_13">
    <path d="M 405.635422 131.509667 
Q 414.347602 169.374378 422.834158 206.258481 
" style="fill: none; stroke: #000000; stroke-width: 0.9; stroke-linecap: round"/>
    <path d="M 423.781102 202.346539 
L 422.834158 206.258481 
L 420.27277 203.15376 
z
" style="fill: #1f77b4; stroke: #000000; stroke-width: 0.9; stroke-linecap: round"/>
   </g>
   <g id="text_14">
    <!-- transizioni da impurità -->
    <g transform="translate(352.959453 125.690107) scale(0.09 -0.09)">
     <defs>
      <path id="DejaVuSans-70" d="M 1159 525 
L 1159 -1331 
L 581 -1331 
L 581 3500 
L 1159 3500 
L 1159 2969 
Q 1341 3281 1617 3432 
Q 1894 3584 2278 3584 
Q 2916 3584 3314 3078 
Q 3713 2572 3713 1747 
Q 3713 922 3314 415 
Q 2916 -91 2278 -91 
Q 1894 -91 1617 61 
Q 1341 213 1159 525 
z
M 3116 1747 
Q 3116 2381 2855 2742 
Q 2594 3103 2138 3103 
Q 1681 3103 1420 2742 
Q 1159 2381 1159 1747 
Q 1159 1113 1420 752 
Q 1681 391 2138 391 
Q 2594 391 2855 752 
Q 3116 1113 3116 1747 
z
" transform="scale(0.015625)"/>
      <path id="DejaVuSans-e0" d="M 2194 1759 
Q 1497 1759 1228 1600 
Q 959 1441 959 1056 
Q 959 750 1161 570 
Q 1363 391 1709 391 
Q 2188 391 2477 730 
Q 2766 1069 2766 1631 
L 2766 1759 
L 2194 1759 
z
M 3341 1997 
L 3341 0 
L 2766 0 
L 2766 531 
Q 2569 213 2275 61 
Q 1981 -91 1556 -91 
Q 1019 -91 701 211 
Q 384 513 384 1019 
Q 384 1609 779 1909 
Q 1175 2209 1959 2209 
L 2766 2209 
L 2766 2266 
Q 2766 2663 2505 2880 
Q 2244 3097 1772 3097 
Q 1472 3097 1187 3025 
Q 903 2953 641 2809 
L 641 3341 
Q 956 3463 1253 3523 
Q 1550 3584 1831 3584 
Q 2591 3584 2966 3190 
Q 3341 2797 3341 1997 
z
M 1403 5119 
L 2284 3950 
L 1806 3950 
L 787 5119 
L 1403 5119 
z
" transform="scale(0.015625)"/>
     </defs>
     <use xlink:href="#DejaVuSans-74"/>
     <use xlink:href="#DejaVuSans-72" transform="translate(39.208984 0)"/>
     <use xlink:href="#DejaVuSans-61" transform="translate(80.322266 0)"/>
     <use xlink:href="#DejaVuSans-6e" transform="translate(141.601562 0)"/>
     <use xlink:href="#DejaVuSans-73" transform="translate(204.980469 0)"/>
     <use xlink:href="#DejaVuSans-69" transform="translate(257.080078 0)"/>
     <use xlink:href="#DejaVuSans-7a" transform="translate(284.863281 0)"/>
     <use xlink:href="#DejaVuSans-69" transform="translate(337.353516 0)"/>
     <use xlink:href="#DejaVuSans-6f" transform="translate(365.136719 0)"/>
     <use xlink:href="#DejaVuSans-6e" transform="translate(426.318359 0)"/>
     <use xlink:href="#DejaVuSans-69" transform="translate(489.697266 0)"/>
     <use xlink:href="#DejaVuSans-20" transform="translate(517.480469 0)"/>
     <use xlink:href="#DejaVuSans-64" transform="translate(549.267578 0)"/>
     <use xlink:href="#DejaVuSans-61" transform="translate(612.744141 0)"/>
     <use xlink:href="#DejaVuSans-20" transform="translate(674.023438 0)"/>
     <use xlink:href="#DejaVuSans-69" transform="translate(705.810547 0)"/>
     <use xlink:href="#DejaVuSans-6d" transform="translate(733.59375 0)"/>
     <use xlink:href="#DejaVuSans-70" transform="translate(831.005859 0)"/>
     <use xlink:href="#DejaVuSans-75" transform="translate(894.482422 0)"/>
     <use xlink:href="#DejaVuSans-72" transform="translate(957.861328 0)"/>
     <use xlink:href="#DejaVuSans-69" transform="translate(998.974609 0)"/>
     <use xlink:href="#DejaVuSans-74" transform="translate(1026.757812 0)"/>
     <use xlink:href="#DejaVuSans-e0" transform="translate(1065.966797 0)"/>
    </g>
   </g>
   <g id="patch_14">
    <path d="M 546.990762 259.582311 
Q 521.385404 289.436234 496.435134 318.526376 
" style="fill: none; stroke: #000000; stroke-width: 0.9; stroke-linecap: round"/>
    <path d="M 500.145135 316.965642 
L 496.435134 318.526376 
L 497.412548 314.621935 
z
" style="fill: #1f77b4; stroke: #000000; stroke-width: 0.9; stroke-linecap: round"/>
   </g>
   <g id="text_15">
    <!-- soglia interbanda -->
    <g transform="translate(514.534407 254.193418) scale(0.09 -0.09)">
     <use xlink:href="#DejaVuSans-73"/>
     <use xlink:href="#DejaVuSans-6f" transform="translate(52.099609 0)"/>
     <use xlink:href="#DejaVuSans-67" transform="translate(113.28125 0)"/>
     <use xlink:href="#DejaVuSans-6c" transform="translate(176.757812 0)"/>
     <use xlink:href="#DejaVuSans-69" transform="translate(204.541016 0)"/>
     <use xlink:href="#DejaVuSans-61" transform="translate(232.324219 0)"/>
     <use xlink:href="#DejaVuSans-20" transform="translate(293.603516 0)"/>
     <use xlink:href="#DejaVuSans-69" transform="translate(325.390625 0)"/>
     <use xlink:href="#DejaVuSans-6e" transform="translate(353.173828 0)"/>
     <use xlink:href="#DejaVuSans-74" transform="translate(416.552734 0)"/>
     <use xlink:href="#DejaVuSans-65" transform="translate(455.761719 0)"/>
     <use xlink:href="#DejaVuSans-72" transform="translate(517.285156 0)"/>
     <use xlink:href="#DejaVuSans-62" transform="translate(558.398438 0)"/>
     <use xlink:href="#DejaVuSans-61" transform="translate(621.875 0)"/>
     <use xlink:href="#DejaVuSans-6e" transform="translate(683.154297 0)"/>
     <use xlink:href="#DejaVuSans-64" transform="translate(746.533203 0)"/>
     <use xlink:href="#DejaVuSans-61" transform="translate(810.009766 0)"/>
    </g>
   </g>
   <g id="text_16">
    <!-- Spettro schematico di assorbimento ottico di un semiconduttore -->
    <g transform="translate(76.479375 18.597656) scale(0.15 -0.15)">
     <defs>
      <path id="DejaVuSans-Bold-53" d="M 3834 4519 
L 3834 3531 
Q 3450 3703 3084 3790 
Q 2719 3878 2394 3878 
Q 1963 3878 1756 3759 
Q 1550 3641 1550 3391 
Q 1550 3203 1689 3098 
Q 1828 2994 2194 2919 
L 2706 2816 
Q 3484 2659 3812 2340 
Q 4141 2022 4141 1434 
Q 4141 663 3683 286 
Q 3225 -91 2284 -91 
Q 1841 -91 1394 -6 
Q 947 78 500 244 
L 500 1259 
Q 947 1022 1364 901 
Q 1781 781 2169 781 
Q 2563 781 2772 912 
Q 2981 1044 2981 1288 
Q 2981 1506 2839 1625 
Q 2697 1744 2272 1838 
L 1806 1941 
Q 1106 2091 782 2419 
Q 459 2747 459 3303 
Q 459 4000 909 4375 
Q 1359 4750 2203 4750 
Q 2588 4750 2994 4692 
Q 3400 4634 3834 4519 
z
" transform="scale(0.015625)"/>
      <path id="DejaVuSans-Bold-70" d="M 1656 506 
L 1656 -1331 
L 538 -1331 
L 538 3500 
L 1656 3500 
L 1656 2988 
Q 1888 3294 2169 3439 
Q 2450 3584 2816 3584 
Q 3463 3584 3878 3070 
Q 4294 2556 4294 1747 
Q 4294 938 3878 423 
Q 3463 -91 2816 -91 
Q 2450 -91 2169 54 
Q 1888 200 1656 506 
z
M 2400 2772 
Q 2041 2772 1848 2508 
Q 1656 2244 1656 1747 
Q 1656 1250 1848 986 
Q 2041 722 2400 722 
Q 2759 722 2948 984 
Q 3138 1247 3138 1747 
Q 3138 2247 2948 2509 
Q 2759 2772 2400 2772 
z
" transform="scale(0.015625)"/>
      <path id="DejaVuSans-Bold-65" d="M 4031 1759 
L 4031 1441 
L 1416 1441 
Q 1456 1047 1700 850 
Q 1944 653 2381 653 
Q 2734 653 3104 758 
Q 3475 863 3866 1075 
L 3866 213 
Q 3469 63 3072 -14 
Q 2675 -91 2278 -91 
Q 1328 -91 801 392 
Q 275 875 275 1747 
Q 275 2603 792 3093 
Q 1309 3584 2216 3584 
Q 3041 3584 3536 3087 
Q 4031 2591 4031 1759 
z
M 2881 2131 
Q 2881 2450 2695 2645 
Q 2509 2841 2209 2841 
Q 1884 2841 1681 2658 
Q 1478 2475 1428 2131 
L 2881 2131 
z
" transform="scale(0.015625)"/>
      <path id="DejaVuSans-Bold-74" d="M 1759 4494 
L 1759 3500 
L 2913 3500 
L 2913 2700 
L 1759 2700 
L 1759 1216 
Q 1759 972 1856 886 
Q 1953 800 2241 800 
L 2816 800 
L 2816 0 
L 1856 0 
Q 1194 0 917 276 
Q 641 553 641 1216 
L 641 2700 
L 84 2700 
L 84 3500 
L 641 3500 
L 641 4494 
L 1759 4494 
z
" transform="scale(0.015625)"/>
      <path id="DejaVuSans-Bold-72" d="M 3138 2547 
Q 2991 2616 2845 2648 
Q 2700 2681 2553 2681 
Q 2122 2681 1889 2404 
Q 1656 2128 1656 1613 
L 1656 0 
L 538 0 
L 538 3500 
L 1656 3500 
L 1656 2925 
Q 1872 3269 2151 3426 
Q 2431 3584 2822 3584 
Q 2878 3584 2943 3579 
Q 3009 3575 3134 3559 
L 3138 2547 
z
" transform="scale(0.015625)"/>
      <path id="DejaVuSans-Bold-6f" d="M 2203 2784 
Q 1831 2784 1636 2517 
Q 1441 2250 1441 1747 
Q 1441 1244 1636 976 
Q 1831 709 2203 709 
Q 2569 709 2762 976 
Q 2956 1244 2956 1747 
Q 2956 2250 2762 2517 
Q 2569 2784 2203 2784 
z
M 2203 3584 
Q 3106 3584 3614 3096 
Q 4122 2609 4122 1747 
Q 4122 884 3614 396 
Q 3106 -91 2203 -91 
Q 1297 -91 786 396 
Q 275 884 275 1747 
Q 275 2609 786 3096 
Q 1297 3584 2203 3584 
z
" transform="scale(0.015625)"/>
      <path id="DejaVuSans-Bold-20" transform="scale(0.015625)"/>
      <path id="DejaVuSans-Bold-73" d="M 3272 3391 
L 3272 2541 
Q 2913 2691 2578 2766 
Q 2244 2841 1947 2841 
Q 1628 2841 1473 2761 
Q 1319 2681 1319 2516 
Q 1319 2381 1436 2309 
Q 1553 2238 1856 2203 
L 2053 2175 
Q 2913 2066 3209 1816 
Q 3506 1566 3506 1031 
Q 3506 472 3093 190 
Q 2681 -91 1863 -91 
Q 1516 -91 1145 -36 
Q 775 19 384 128 
L 384 978 
Q 719 816 1070 734 
Q 1422 653 1784 653 
Q 2113 653 2278 743 
Q 2444 834 2444 1013 
Q 2444 1163 2330 1236 
Q 2216 1309 1875 1350 
L 1678 1375 
Q 931 1469 631 1722 
Q 331 1975 331 2491 
Q 331 3047 712 3315 
Q 1094 3584 1881 3584 
Q 2191 3584 2531 3537 
Q 2872 3491 3272 3391 
z
" transform="scale(0.015625)"/>
      <path id="DejaVuSans-Bold-63" d="M 3366 3391 
L 3366 2478 
Q 3138 2634 2908 2709 
Q 2678 2784 2431 2784 
Q 1963 2784 1702 2511 
Q 1441 2238 1441 1747 
Q 1441 1256 1702 982 
Q 1963 709 2431 709 
Q 2694 709 2930 787 
Q 3166 866 3366 1019 
L 3366 103 
Q 3103 6 2833 -42 
Q 2563 -91 2291 -91 
Q 1344 -91 809 395 
Q 275 881 275 1747 
Q 275 2613 809 3098 
Q 1344 3584 2291 3584 
Q 2566 3584 2833 3536 
Q 3100 3488 3366 3391 
z
" transform="scale(0.015625)"/>
      <path id="DejaVuSans-Bold-68" d="M 4056 2131 
L 4056 0 
L 2931 0 
L 2931 347 
L 2931 1625 
Q 2931 2084 2911 2256 
Q 2891 2428 2841 2509 
Q 2775 2619 2662 2680 
Q 2550 2741 2406 2741 
Q 2056 2741 1856 2470 
Q 1656 2200 1656 1722 
L 1656 0 
L 538 0 
L 538 4863 
L 1656 4863 
L 1656 2988 
Q 1909 3294 2193 3439 
Q 2478 3584 2822 3584 
Q 3428 3584 3742 3212 
Q 4056 2841 4056 2131 
z
" transform="scale(0.015625)"/>
      <path id="DejaVuSans-Bold-6d" d="M 3781 2919 
Q 3994 3244 4286 3414 
Q 4578 3584 4928 3584 
Q 5531 3584 5847 3212 
Q 6163 2841 6163 2131 
L 6163 0 
L 5038 0 
L 5038 1825 
Q 5041 1866 5042 1909 
Q 5044 1953 5044 2034 
Q 5044 2406 4934 2573 
Q 4825 2741 4581 2741 
Q 4263 2741 4089 2478 
Q 3916 2216 3909 1719 
L 3909 0 
L 2784 0 
L 2784 1825 
Q 2784 2406 2684 2573 
Q 2584 2741 2328 2741 
Q 2006 2741 1831 2477 
Q 1656 2213 1656 1722 
L 1656 0 
L 531 0 
L 531 3500 
L 1656 3500 
L 1656 2988 
Q 1863 3284 2130 3434 
Q 2397 3584 2719 3584 
Q 3081 3584 3359 3409 
Q 3638 3234 3781 2919 
z
" transform="scale(0.015625)"/>
      <path id="DejaVuSans-Bold-61" d="M 2106 1575 
Q 1756 1575 1579 1456 
Q 1403 1338 1403 1106 
Q 1403 894 1545 773 
Q 1688 653 1941 653 
Q 2256 653 2472 879 
Q 2688 1106 2688 1447 
L 2688 1575 
L 2106 1575 
z
M 3816 1997 
L 3816 0 
L 2688 0 
L 2688 519 
Q 2463 200 2181 54 
Q 1900 -91 1497 -91 
Q 953 -91 614 226 
Q 275 544 275 1050 
Q 275 1666 698 1953 
Q 1122 2241 2028 2241 
L 2688 2241 
L 2688 2328 
Q 2688 2594 2478 2717 
Q 2269 2841 1825 2841 
Q 1466 2841 1156 2769 
Q 847 2697 581 2553 
L 581 3406 
Q 941 3494 1303 3539 
Q 1666 3584 2028 3584 
Q 2975 3584 3395 3211 
Q 3816 2838 3816 1997 
z
" transform="scale(0.015625)"/>
      <path id="DejaVuSans-Bold-69" d="M 538 3500 
L 1656 3500 
L 1656 0 
L 538 0 
L 538 3500 
z
M 538 4863 
L 1656 4863 
L 1656 3950 
L 538 3950 
L 538 4863 
z
" transform="scale(0.015625)"/>
      <path id="DejaVuSans-Bold-64" d="M 2919 2988 
L 2919 4863 
L 4044 4863 
L 4044 0 
L 2919 0 
L 2919 506 
Q 2688 197 2409 53 
Q 2131 -91 1766 -91 
Q 1119 -91 703 423 
Q 288 938 288 1747 
Q 288 2556 703 3070 
Q 1119 3584 1766 3584 
Q 2128 3584 2408 3439 
Q 2688 3294 2919 2988 
z
M 2181 722 
Q 2541 722 2730 984 
Q 2919 1247 2919 1747 
Q 2919 2247 2730 2509 
Q 2541 2772 2181 2772 
Q 1825 2772 1636 2509 
Q 1447 2247 1447 1747 
Q 1447 1247 1636 984 
Q 1825 722 2181 722 
z
" transform="scale(0.015625)"/>
      <path id="DejaVuSans-Bold-62" d="M 2400 722 
Q 2759 722 2948 984 
Q 3138 1247 3138 1747 
Q 3138 2247 2948 2509 
Q 2759 2772 2400 2772 
Q 2041 2772 1848 2508 
Q 1656 2244 1656 1747 
Q 1656 1250 1848 986 
Q 2041 722 2400 722 
z
M 1656 2988 
Q 1888 3294 2169 3439 
Q 2450 3584 2816 3584 
Q 3463 3584 3878 3070 
Q 4294 2556 4294 1747 
Q 4294 938 3878 423 
Q 3463 -91 2816 -91 
Q 2450 -91 2169 54 
Q 1888 200 1656 506 
L 1656 0 
L 538 0 
L 538 4863 
L 1656 4863 
L 1656 2988 
z
" transform="scale(0.015625)"/>
      <path id="DejaVuSans-Bold-6e" d="M 4056 2131 
L 4056 0 
L 2931 0 
L 2931 347 
L 2931 1631 
Q 2931 2084 2911 2256 
Q 2891 2428 2841 2509 
Q 2775 2619 2662 2680 
Q 2550 2741 2406 2741 
Q 2056 2741 1856 2470 
Q 1656 2200 1656 1722 
L 1656 0 
L 538 0 
L 538 3500 
L 1656 3500 
L 1656 2988 
Q 1909 3294 2193 3439 
Q 2478 3584 2822 3584 
Q 3428 3584 3742 3212 
Q 4056 2841 4056 2131 
z
" transform="scale(0.015625)"/>
      <path id="DejaVuSans-Bold-75" d="M 500 1363 
L 500 3500 
L 1625 3500 
L 1625 3150 
Q 1625 2866 1622 2436 
Q 1619 2006 1619 1863 
Q 1619 1441 1641 1255 
Q 1663 1069 1716 984 
Q 1784 875 1895 815 
Q 2006 756 2150 756 
Q 2500 756 2700 1025 
Q 2900 1294 2900 1772 
L 2900 3500 
L 4019 3500 
L 4019 0 
L 2900 0 
L 2900 506 
Q 2647 200 2364 54 
Q 2081 -91 1741 -91 
Q 1134 -91 817 281 
Q 500 653 500 1363 
z
" transform="scale(0.015625)"/>
     </defs>
     <use xlink:href="#DejaVuSans-Bold-53"/>
     <use xlink:href="#DejaVuSans-Bold-70" transform="translate(72.021484 0)"/>
     <use xlink:href="#DejaVuSans-Bold-65" transform="translate(143.603516 0)"/>
     <use xlink:href="#DejaVuSans-Bold-74" transform="translate(211.425781 0)"/>
     <use xlink:href="#DejaVuSans-Bold-74" transform="translate(259.228516 0)"/>
     <use xlink:href="#DejaVuSans-Bold-72" transform="translate(307.03125 0)"/>
     <use xlink:href="#DejaVuSans-Bold-6f" transform="translate(356.347656 0)"/>
     <use xlink:href="#DejaVuSans-Bold-20" transform="translate(425.048828 0)"/>
     <use xlink:href="#DejaVuSans-Bold-73" transform="translate(459.863281 0)"/>
     <use xlink:href="#DejaVuSans-Bold-63" transform="translate(519.384766 0)"/>
     <use xlink:href="#DejaVuSans-Bold-68" transform="translate(578.662109 0)"/>
     <use xlink:href="#DejaVuSans-Bold-65" transform="translate(649.853516 0)"/>
     <use xlink:href="#DejaVuSans-Bold-6d" transform="translate(717.675781 0)"/>
     <use xlink:href="#DejaVuSans-Bold-61" transform="translate(821.875 0)"/>
     <use xlink:href="#DejaVuSans-Bold-74" transform="translate(889.355469 0)"/>
     <use xlink:href="#DejaVuSans-Bold-69" transform="translate(937.158203 0)"/>
     <use xlink:href="#DejaVuSans-Bold-63" transform="translate(971.435547 0)"/>
     <use xlink:href="#DejaVuSans-Bold-6f" transform="translate(1030.712891 0)"/>
     <use xlink:href="#DejaVuSans-Bold-20" transform="translate(1099.414062 0)"/>
     <use xlink:href="#DejaVuSans-Bold-64" transform="translate(1134.228516 0)"/>
     <use xlink:href="#DejaVuSans-Bold-69" transform="translate(1205.810547 0)"/>
     <use xlink:href="#DejaVuSans-Bold-20" transform="translate(1240.087891 0)"/>
     <use xlink:href="#DejaVuSans-Bold-61" transform="translate(1274.902344 0)"/>
     <use xlink:href="#DejaVuSans-Bold-73" transform="translate(1342.382812 0)"/>
     <use xlink:href="#DejaVuSans-Bold-73" transform="translate(1401.904297 0)"/>
     <use xlink:href="#DejaVuSans-Bold-6f" transform="translate(1461.425781 0)"/>
     <use xlink:href="#DejaVuSans-Bold-72" transform="translate(1530.126953 0)"/>
     <use xlink:href="#DejaVuSans-Bold-62" transform="translate(1579.443359 0)"/>
     <use xlink:href="#DejaVuSans-Bold-69" transform="translate(1651.025391 0)"/>
     <use xlink:href="#DejaVuSans-Bold-6d" transform="translate(1685.302734 0)"/>
     <use xlink:href="#DejaVuSans-Bold-65" transform="translate(1789.501953 0)"/>
     <use xlink:href="#DejaVuSans-Bold-6e" transform="translate(1857.324219 0)"/>
     <use xlink:href="#DejaVuSans-Bold-74" transform="translate(1928.515625 0)"/>
     <use xlink:href="#DejaVuSans-Bold-6f" transform="translate(1976.318359 0)"/>
     <use xlink:href="#DejaVuSans-Bold-20" transform="translate(2045.019531 0)"/>
     <use xlink:href="#DejaVuSans-Bold-6f" transform="translate(2079.833984 0)"/>
     <use xlink:href="#DejaVuSans-Bold-74" transform="translate(2148.535156 0)"/>
     <use xlink:href="#DejaVuSans-Bold-74" transform="translate(2196.337891 0)"/>
     <use xlink:href="#DejaVuSans-Bold-69" transform="translate(2244.140625 0)"/>
     <use xlink:href="#DejaVuSans-Bold-63" transform="translate(2278.417969 0)"/>
     <use xlink:href="#DejaVuSans-Bold-6f" transform="translate(2337.695312 0)"/>
     <use xlink:href="#DejaVuSans-Bold-20" transform="translate(2406.396484 0)"/>
     <use xlink:href="#DejaVuSans-Bold-64" transform="translate(2441.210938 0)"/>
     <use xlink:href="#DejaVuSans-Bold-69" transform="translate(2512.792969 0)"/>
     <use xlink:href="#DejaVuSans-Bold-20" transform="translate(2547.070312 0)"/>
     <use xlink:href="#DejaVuSans-Bold-75" transform="translate(2581.884766 0)"/>
     <use xlink:href="#DejaVuSans-Bold-6e" transform="translate(2653.076172 0)"/>
     <use xlink:href="#DejaVuSans-Bold-20" transform="translate(2724.267578 0)"/>
     <use xlink:href="#DejaVuSans-Bold-73" transform="translate(2759.082031 0)"/>
     <use xlink:href="#DejaVuSans-Bold-65" transform="translate(2818.603516 0)"/>
     <use xlink:href="#DejaVuSans-Bold-6d" transform="translate(2886.425781 0)"/>
     <use xlink:href="#DejaVuSans-Bold-69" transform="translate(2990.625 0)"/>
     <use xlink:href="#DejaVuSans-Bold-63" transform="translate(3024.902344 0)"/>
     <use xlink:href="#DejaVuSans-Bold-6f" transform="translate(3084.179688 0)"/>
     <use xlink:href="#DejaVuSans-Bold-6e" transform="translate(3152.880859 0)"/>
     <use xlink:href="#DejaVuSans-Bold-64" transform="translate(3224.072266 0)"/>
     <use xlink:href="#DejaVuSans-Bold-75" transform="translate(3295.654297 0)"/>
     <use xlink:href="#DejaVuSans-Bold-74" transform="translate(3366.845703 0)"/>
     <use xlink:href="#DejaVuSans-Bold-74" transform="translate(3414.648438 0)"/>
     <use xlink:href="#DejaVuSans-Bold-6f" transform="translate(3462.451172 0)"/>
     <use xlink:href="#DejaVuSans-Bold-72" transform="translate(3531.152344 0)"/>
     <use xlink:href="#DejaVuSans-Bold-65" transform="translate(3580.46875 0)"/>
    </g>
   </g>
  </g>
  <g id="text_17">
   <!-- I picchi indicano processi diversi: eccitazioni reticolari, impurità, transizioni tra bande e assorbimenti nell'ultravioletto. -->
   <g transform="translate(43.19375 461.517656) scale(0.1 -0.1)">
    <defs>
     <path id="DejaVuSans-49" d="M 628 4666 
L 1259 4666 
L 1259 0 
L 628 0 
L 628 4666 
z
" transform="scale(0.015625)"/>
     <path id="DejaVuSans-68" d="M 3513 2113 
L 3513 0 
L 2938 0 
L 2938 2094 
Q 2938 2591 2744 2837 
Q 2550 3084 2163 3084 
Q 1697 3084 1428 2787 
Q 1159 2491 1159 1978 
L 1159 0 
L 581 0 
L 581 4863 
L 1159 4863 
L 1159 2956 
Q 1366 3272 1645 3428 
Q 1925 3584 2291 3584 
Q 2894 3584 3203 3211 
Q 3513 2838 3513 2113 
z
" transform="scale(0.015625)"/>
     <path id="DejaVuSans-3a" d="M 750 794 
L 1409 794 
L 1409 0 
L 750 0 
L 750 794 
z
M 750 3309 
L 1409 3309 
L 1409 2516 
L 750 2516 
L 750 3309 
z
" transform="scale(0.015625)"/>
     <path id="DejaVuSans-27" d="M 1147 4666 
L 1147 2931 
L 616 2931 
L 616 4666 
L 1147 4666 
z
" transform="scale(0.015625)"/>
     <path id="DejaVuSans-2e" d="M 684 794 
L 1344 794 
L 1344 0 
L 684 0 
L 684 794 
z
" transform="scale(0.015625)"/>
    </defs>
    <use xlink:href="#DejaVuSans-49"/>
    <use xlink:href="#DejaVuSans-20" transform="translate(29.492188 0)"/>
    <use xlink:href="#DejaVuSans-70" transform="translate(61.279297 0)"/>
    <use xlink:href="#DejaVuSans-69" transform="translate(124.755859 0)"/>
    <use xlink:href="#DejaVuSans-63" transform="translate(152.539062 0)"/>
    <use xlink:href="#DejaVuSans-63" transform="translate(207.519531 0)"/>
    <use xlink:href="#DejaVuSans-68" transform="translate(262.5 0)"/>
    <use xlink:href="#DejaVuSans-69" transform="translate(325.878906 0)"/>
    <use xlink:href="#DejaVuSans-20" transform="translate(353.662109 0)"/>
    <use xlink:href="#DejaVuSans-69" transform="translate(385.449219 0)"/>
    <use xlink:href="#DejaVuSans-6e" transform="translate(413.232422 0)"/>
    <use xlink:href="#DejaVuSans-64" transform="translate(476.611328 0)"/>
    <use xlink:href="#DejaVuSans-69" transform="translate(540.087891 0)"/>
    <use xlink:href="#DejaVuSans-63" transform="translate(567.871094 0)"/>
    <use xlink:href="#DejaVuSans-61" transform="translate(622.851562 0)"/>
    <use xlink:href="#DejaVuSans-6e" transform="translate(684.130859 0)"/>
    <use xlink:href="#DejaVuSans-6f" transform="translate(747.509766 0)"/>
    <use xlink:href="#DejaVuSans-20" transform="translate(808.691406 0)"/>
    <use xlink:href="#DejaVuSans-70" transform="translate(840.478516 0)"/>
    <use xlink:href="#DejaVuSans-72" transform="translate(903.955078 0)"/>
    <use xlink:href="#DejaVuSans-6f" transform="translate(942.818359 0)"/>
    <use xlink:href="#DejaVuSans-63" transform="translate(1004 0)"/>
    <use xlink:href="#DejaVuSans-65" transform="translate(1058.980469 0)"/>
    <use xlink:href="#DejaVuSans-73" transform="translate(1120.503906 0)"/>
    <use xlink:href="#DejaVuSans-73" transform="translate(1172.603516 0)"/>
    <use xlink:href="#DejaVuSans-69" transform="translate(1224.703125 0)"/>
    <use xlink:href="#DejaVuSans-20" transform="translate(1252.486328 0)"/>
    <use xlink:href="#DejaVuSans-64" transform="translate(1284.273438 0)"/>
    <use xlink:href="#DejaVuSans-69" transform="translate(1347.75 0)"/>
    <use xlink:href="#DejaVuSans-76" transform="translate(1375.533203 0)"/>
    <use xlink:href="#DejaVuSans-65" transform="translate(1434.712891 0)"/>
    <use xlink:href="#DejaVuSans-72" transform="translate(1496.236328 0)"/>
    <use xlink:href="#DejaVuSans-73" transform="translate(1537.349609 0)"/>
    <use xlink:href="#DejaVuSans-69" transform="translate(1589.449219 0)"/>
    <use xlink:href="#DejaVuSans-3a" transform="translate(1617.232422 0)"/>
    <use xlink:href="#DejaVuSans-20" transform="translate(1650.923828 0)"/>
    <use xlink:href="#DejaVuSans-65" transform="translate(1682.710938 0)"/>
    <use xlink:href="#DejaVuSans-63" transform="translate(1744.234375 0)"/>
    <use xlink:href="#DejaVuSans-63" transform="translate(1799.214844 0)"/>
    <use xlink:href="#DejaVuSans-69" transform="translate(1854.195312 0)"/>
    <use xlink:href="#DejaVuSans-74" transform="translate(1881.978516 0)"/>
    <use xlink:href="#DejaVuSans-61" transform="translate(1921.1875 0)"/>
    <use xlink:href="#DejaVuSans-7a" transform="translate(1982.466797 0)"/>
    <use xlink:href="#DejaVuSans-69" transform="translate(2034.957031 0)"/>
    <use xlink:href="#DejaVuSans-6f" transform="translate(2062.740234 0)"/>
    <use xlink:href="#DejaVuSans-6e" transform="translate(2123.921875 0)"/>
    <use xlink:href="#DejaVuSans-69" transform="translate(2187.300781 0)"/>
    <use xlink:href="#DejaVuSans-20" transform="translate(2215.083984 0)"/>
    <use xlink:href="#DejaVuSans-72" transform="translate(2246.871094 0)"/>
    <use xlink:href="#DejaVuSans-65" transform="translate(2285.734375 0)"/>
    <use xlink:href="#DejaVuSans-74" transform="translate(2347.257812 0)"/>
    <use xlink:href="#DejaVuSans-69" transform="translate(2386.466797 0)"/>
    <use xlink:href="#DejaVuSans-63" transform="translate(2414.25 0)"/>
    <use xlink:href="#DejaVuSans-6f" transform="translate(2469.230469 0)"/>
    <use xlink:href="#DejaVuSans-6c" transform="translate(2530.412109 0)"/>
    <use xlink:href="#DejaVuSans-61" transform="translate(2558.195312 0)"/>
    <use xlink:href="#DejaVuSans-72" transform="translate(2619.474609 0)"/>
    <use xlink:href="#DejaVuSans-69" transform="translate(2660.587891 0)"/>
    <use xlink:href="#DejaVuSans-2c" transform="translate(2688.371094 0)"/>
    <use xlink:href="#DejaVuSans-20" transform="translate(2720.158203 0)"/>
    <use xlink:href="#DejaVuSans-69" transform="translate(2751.945312 0)"/>
    <use xlink:href="#DejaVuSans-6d" transform="translate(2779.728516 0)"/>
    <use xlink:href="#DejaVuSans-70" transform="translate(2877.140625 0)"/>
    <use xlink:href="#DejaVuSans-75" transform="translate(2940.617188 0)"/>
    <use xlink:href="#DejaVuSans-72" transform="translate(3003.996094 0)"/>
    <use xlink:href="#DejaVuSans-69" transform="translate(3045.109375 0)"/>
    <use xlink:href="#DejaVuSans-74" transform="translate(3072.892578 0)"/>
    <use xlink:href="#DejaVuSans-e0" transform="translate(3112.101562 0)"/>
    <use xlink:href="#DejaVuSans-2c" transform="translate(3173.380859 0)"/>
    <use xlink:href="#DejaVuSans-20" transform="translate(3205.167969 0)"/>
    <use xlink:href="#DejaVuSans-74" transform="translate(3236.955078 0)"/>
    <use xlink:href="#DejaVuSans-72" transform="translate(3276.164062 0)"/>
    <use xlink:href="#DejaVuSans-61" transform="translate(3317.277344 0)"/>
    <use xlink:href="#DejaVuSans-6e" transform="translate(3378.556641 0)"/>
    <use xlink:href="#DejaVuSans-73" transform="translate(3441.935547 0)"/>
    <use xlink:href="#DejaVuSans-69" transform="translate(3494.035156 0)"/>
    <use xlink:href="#DejaVuSans-7a" transform="translate(3521.818359 0)"/>
    <use xlink:href="#DejaVuSans-69" transform="translate(3574.308594 0)"/>
    <use xlink:href="#DejaVuSans-6f" transform="translate(3602.091797 0)"/>
    <use xlink:href="#DejaVuSans-6e" transform="translate(3663.273438 0)"/>
    <use xlink:href="#DejaVuSans-69" transform="translate(3726.652344 0)"/>
    <use xlink:href="#DejaVuSans-20" transform="translate(3754.435547 0)"/>
    <use xlink:href="#DejaVuSans-74" transform="translate(3786.222656 0)"/>
    <use xlink:href="#DejaVuSans-72" transform="translate(3825.431641 0)"/>
    <use xlink:href="#DejaVuSans-61" transform="translate(3866.544922 0)"/>
    <use xlink:href="#DejaVuSans-20" transform="translate(3927.824219 0)"/>
    <use xlink:href="#DejaVuSans-62" transform="translate(3959.611328 0)"/>
    <use xlink:href="#DejaVuSans-61" transform="translate(4023.087891 0)"/>
    <use xlink:href="#DejaVuSans-6e" transform="translate(4084.367188 0)"/>
    <use xlink:href="#DejaVuSans-64" transform="translate(4147.746094 0)"/>
    <use xlink:href="#DejaVuSans-65" transform="translate(4211.222656 0)"/>
    <use xlink:href="#DejaVuSans-20" transform="translate(4272.746094 0)"/>
    <use xlink:href="#DejaVuSans-65" transform="translate(4304.533203 0)"/>
    <use xlink:href="#DejaVuSans-20" transform="translate(4366.056641 0)"/>
    <use xlink:href="#DejaVuSans-61" transform="translate(4397.84375 0)"/>
    <use xlink:href="#DejaVuSans-73" transform="translate(4459.123047 0)"/>
    <use xlink:href="#DejaVuSans-73" transform="translate(4511.222656 0)"/>
    <use xlink:href="#DejaVuSans-6f" transform="translate(4563.322266 0)"/>
    <use xlink:href="#DejaVuSans-72" transform="translate(4624.503906 0)"/>
    <use xlink:href="#DejaVuSans-62" transform="translate(4665.617188 0)"/>
    <use xlink:href="#DejaVuSans-69" transform="translate(4729.09375 0)"/>
    <use xlink:href="#DejaVuSans-6d" transform="translate(4756.876953 0)"/>
    <use xlink:href="#DejaVuSans-65" transform="translate(4854.289062 0)"/>
    <use xlink:href="#DejaVuSans-6e" transform="translate(4915.8125 0)"/>
    <use xlink:href="#DejaVuSans-74" transform="translate(4979.191406 0)"/>
    <use xlink:href="#DejaVuSans-69" transform="translate(5018.400391 0)"/>
    <use xlink:href="#DejaVuSans-20" transform="translate(5046.183594 0)"/>
    <use xlink:href="#DejaVuSans-6e" transform="translate(5077.970703 0)"/>
    <use xlink:href="#DejaVuSans-65" transform="translate(5141.349609 0)"/>
    <use xlink:href="#DejaVuSans-6c" transform="translate(5202.873047 0)"/>
    <use xlink:href="#DejaVuSans-6c" transform="translate(5230.65625 0)"/>
    <use xlink:href="#DejaVuSans-27" transform="translate(5258.439453 0)"/>
    <use xlink:href="#DejaVuSans-75" transform="translate(5285.929688 0)"/>
    <use xlink:href="#DejaVuSans-6c" transform="translate(5349.308594 0)"/>
    <use xlink:href="#DejaVuSans-74" transform="translate(5377.091797 0)"/>
    <use xlink:href="#DejaVuSans-72" transform="translate(5416.300781 0)"/>
    <use xlink:href="#DejaVuSans-61" transform="translate(5457.414062 0)"/>
    <use xlink:href="#DejaVuSans-76" transform="translate(5518.693359 0)"/>
    <use xlink:href="#DejaVuSans-69" transform="translate(5577.873047 0)"/>
    <use xlink:href="#DejaVuSans-6f" transform="translate(5605.65625 0)"/>
    <use xlink:href="#DejaVuSans-6c" transform="translate(5666.837891 0)"/>
    <use xlink:href="#DejaVuSans-65" transform="translate(5694.621094 0)"/>
    <use xlink:href="#DejaVuSans-74" transform="translate(5756.144531 0)"/>
    <use xlink:href="#DejaVuSans-74" transform="translate(5795.353516 0)"/>
    <use xlink:href="#DejaVuSans-6f" transform="translate(5834.5625 0)"/>
    <use xlink:href="#DejaVuSans-2e" transform="translate(5893.994141 0)"/>
   </g>
  </g>
 </g>
 <defs>
  <clipPath id="p9f3ac72a81">
   <rect x="20.878125" y="30.597656" width="658.44" height="388.08"/>
  </clipPath>
 </defs>
</svg>
