<?xml version="1.0" encoding="utf-8" standalone="no"?>
<!DOCTYPE svg PUBLIC "-//W3C//DTD SVG 1.1//EN"
  "http://www.w3.org/Graphics/SVG/1.1/DTD/svg11.dtd">
<svg xmlns:xlink="http://www.w3.org/1999/xlink" width="552.598125pt" height="447.505344pt" viewBox="0 0 552.598125 447.505344" xmlns="http://www.w3.org/2000/svg" version="1.1">
 <metadata>
  <rdf:RDF xmlns:dc="http://purl.org/dc/elements/1.1/" xmlns:cc="http://creativecommons.org/ns#" xmlns:rdf="http://www.w3.org/1999/02/22-rdf-syntax-ns#">
   <cc:Work>
    <dc:type rdf:resource="http://purl.org/dc/dcmitype/StillImage"/>
    <dc:date>2026-06-16T08:29:33.714411</dc:date>
    <dc:format>image/svg+xml</dc:format>
    <dc:creator>
     <cc:Agent>
      <dc:title>Matplotlib v3.10.8, https://matplotlib.org/</dc:title>
     </cc:Agent>
    </dc:creator>
   </cc:Work>
  </rdf:RDF>
 </metadata>
 <defs>
  <style type="text/css">*{stroke-linejoin: round; stroke-linecap: butt}</style>
 </defs>
 <g id="figure_1">
  <g id="patch_1">
   <path d="M -0 447.505344 
L 552.598125 447.505344 
L 552.598125 0 
L -0 0 
z
" style="fill: #ffffff"/>
  </g>
  <g id="axes_1">
   <g id="patch_2">
    <path d="M 20.878125 402.045656 
L 545.398125 402.045656 
L 545.398125 30.597656 
L 20.878125 30.597656 
z
" style="fill: #ffffff"/>
   </g>
   <g id="FillBetweenPolyCollection_1">
    <path d="M 30.774729 -404.859089 
L 30.774729 424.745256 
L 31.766372 423.342014 
L 32.758016 421.944407 
L 33.74966 420.552436 
L 34.741303 419.1661 
L 35.732947 417.7854 
L 36.724591 416.410335 
L 37.716234 415.040905 
L 38.707878 413.677112 
L 39.699522 412.318953 
L 40.691165 410.966431 
L 41.682809 409.619543 
L 42.674453 408.278292 
L 43.666096 406.942675 
L 44.65774 405.612695 
L 45.649384 404.288349 
L 46.641027 402.96964 
L 47.632671 401.656566 
L 48.624315 400.349127 
L 49.615958 399.047324 
L 50.607602 397.751156 
L 51.599246 396.460624 
L 52.590889 395.175727 
L 53.582533 393.896466 
L 54.574177 392.622841 
L 55.56582 391.354851 
L 56.557464 390.092496 
L 57.549108 388.835777 
L 58.540751 387.584693 
L 59.532395 386.339245 
L 60.524039 385.099433 
L 61.515682 383.865256 
L 62.507326 382.636714 
L 63.49897 381.413808 
L 64.490613 380.196538 
L 65.482257 378.984903 
L 66.473901 377.778903 
L 67.465544 376.578539 
L 68.457188 375.383811 
L 69.448832 374.194718 
L 70.440475 373.011261 
L 71.432119 371.833439 
L 72.423763 370.661252 
L 73.415406 369.494701 
L 74.40705 368.333786 
L 75.398694 367.178506 
L 76.390337 366.028862 
L 77.381981 364.884853 
L 78.373625 363.74648 
L 79.365268 362.613742 
L 80.356912 361.48664 
L 81.348556 360.365173 
L 82.340199 359.249342 
L 83.331843 358.139146 
L 84.323487 357.034586 
L 85.31513 355.935661 
L 86.306774 354.842372 
L 87.298418 353.754718 
L 88.290061 352.6727 
L 89.281705 351.596317 
L 90.273349 350.52557 
L 91.264992 349.460458 
L 92.256636 348.400982 
L 93.24828 347.347141 
L 94.239923 346.298936 
L 95.231567 345.256366 
L 96.223211 344.219432 
L 97.214854 343.188134 
L 98.206498 342.162471 
L 99.198142 341.142443 
L 100.189785 340.128051 
L 101.181429 339.119294 
L 102.173073 338.116173 
L 103.164716 337.118688 
L 104.15636 336.126838 
L 105.148004 335.140623 
L 106.139647 334.160044 
L 107.131291 333.185101 
L 108.122935 332.215793 
L 109.114578 331.25212 
L 110.106222 330.294083 
L 111.097866 329.341682 
L 112.089509 328.394916 
L 113.081153 327.453786 
L 114.072797 326.518291 
L 115.06444 325.588431 
L 116.056084 324.664207 
L 117.047728 323.745619 
L 118.039371 322.832666 
L 119.031015 321.925349 
L 120.022659 321.023667 
L 121.014302 320.127621 
L 122.005946 319.23721 
L 122.99759 318.352435 
L 123.989233 317.473295 
L 124.980877 316.59979 
L 125.972521 315.731922 
L 126.964164 314.869688 
L 127.955808 314.013091 
L 128.947452 313.162128 
L 129.939095 312.316802 
L 130.930739 311.477111 
L 131.922383 310.643055 
L 132.914026 309.814635 
L 133.90567 308.99185 
L 134.897314 308.174701 
L 135.888957 307.363187 
L 136.880601 306.557309 
L 137.872245 305.757066 
L 138.863888 304.962459 
L 139.855532 304.173488 
L 140.847176 303.390152 
L 141.838819 302.612451 
L 142.830463 301.840386 
L 143.822107 301.073956 
L 144.81375 300.313162 
L 145.805394 299.558004 
L 146.797038 298.808481 
L 147.788681 298.064593 
L 148.780325 297.326341 
L 149.771969 296.593725 
L 150.763612 295.866744 
L 151.755256 295.145398 
L 152.7469 294.429688 
L 153.738543 293.719614 
L 154.730187 293.015175 
L 155.721831 292.316371 
L 156.713474 291.623204 
L 157.705118 290.935671 
L 158.696762 290.253774 
L 159.688405 289.577513 
L 160.680049 288.906887 
L 161.671693 288.241897 
L 162.663336 287.582542 
L 163.65498 286.928822 
L 164.646624 286.280739 
L 165.638267 285.63829 
L 166.629911 285.001477 
L 167.621555 284.3703 
L 168.613198 283.744758 
L 169.604842 283.124852 
L 170.596485 282.510581 
L 171.588129 281.901946 
L 172.579773 281.298946 
L 173.571416 280.701582 
L 174.56306 280.109854 
L 175.554704 279.52376 
L 176.546347 278.943303 
L 177.537991 278.36848 
L 178.529635 277.799294 
L 179.521278 277.235743 
L 180.512922 276.677827 
L 181.504566 276.125547 
L 182.496209 275.578902 
L 183.487853 275.037893 
L 184.479497 274.50252 
L 185.47114 273.972781 
L 186.462784 273.448679 
L 187.454428 272.930212 
L 188.446071 272.41738 
L 189.437715 271.910184 
L 190.429359 271.408624 
L 191.421002 270.912699 
L 192.412646 270.422409 
L 193.40429 269.937755 
L 194.395933 269.458737 
L 195.387577 268.985354 
L 196.379221 268.517606 
L 197.370864 268.055494 
L 198.362508 267.599018 
L 199.354152 267.148177 
L 200.345795 266.702972 
L 201.337439 266.263402 
L 202.329083 265.829467 
L 203.320726 265.401168 
L 204.31237 264.978505 
L 205.304014 264.561477 
L 206.295657 264.150085 
L 207.287301 263.744328 
L 208.278945 263.344207 
L 209.270588 262.949721 
L 210.262232 262.560871 
L 211.253876 262.177656 
L 212.245519 261.800077 
L 213.237163 261.428133 
L 214.228807 261.061825 
L 215.22045 260.701152 
L 216.212094 260.346115 
L 217.203738 259.996713 
L 218.195381 259.652947 
L 219.187025 259.314816 
L 220.178669 258.982321 
L 221.170312 258.655461 
L 222.161956 258.334237 
L 223.1536 258.018648 
L 224.145243 257.708695 
L 225.136887 257.404378 
L 226.128531 257.105696 
L 227.120174 256.812649 
L 228.111818 256.525238 
L 229.103462 256.243462 
L 230.095105 255.967322 
L 231.086749 255.696818 
L 232.078393 255.431949 
L 233.070036 255.172715 
L 234.06168 254.919117 
L 235.053324 254.671155 
L 236.044967 254.428828 
L 237.036611 254.192136 
L 238.028255 253.96108 
L 239.019898 253.73566 
L 240.011542 253.515875 
L 241.003186 253.301725 
L 241.994829 253.093211 
L 242.986473 252.890333 
L 243.978117 252.69309 
L 244.96976 252.501483 
L 245.961404 252.315511 
L 246.953048 252.135174 
L 247.944691 251.960474 
L 248.936335 251.791408 
L 249.927979 251.627978 
L 250.919622 251.470184 
L 251.911266 251.318025 
L 252.90291 251.171502 
L 253.894553 251.030614 
L 254.886197 250.895362 
L 255.877841 250.765745 
L 256.869484 250.641764 
L 257.861128 250.523418 
L 258.852772 250.410708 
L 259.844415 250.303633 
L 260.836059 250.202194 
L 261.827703 250.10639 
L 262.819346 250.016222 
L 263.81099 249.931689 
L 264.802634 249.852792 
L 265.794277 249.779531 
L 266.785921 249.711904 
L 267.777565 249.649914 
L 268.769208 249.593559 
L 269.760852 249.542839 
L 270.752496 249.497755 
L 271.744139 249.458306 
L 272.735783 249.424493 
L 273.727427 249.396316 
L 274.71907 249.373774 
L 275.710714 249.356867 
L 276.702358 249.345596 
L 277.694001 249.339961 
L 278.685645 249.339961 
L 279.677289 249.345596 
L 280.668932 249.356867 
L 281.660576 249.373774 
L 282.65222 249.396316 
L 283.643863 249.424493 
L 284.635507 249.458306 
L 285.627151 249.497755 
L 286.618794 249.542839 
L 287.610438 249.593559 
L 288.602082 249.649914 
L 289.593725 249.711904 
L 290.585369 249.779531 
L 291.577013 249.852792 
L 292.568656 249.931689 
L 293.5603 250.016222 
L 294.551944 250.10639 
L 295.543587 250.202194 
L 296.535231 250.303633 
L 297.526875 250.410708 
L 298.518518 250.523418 
L 299.510162 250.641764 
L 300.501806 250.765745 
L 301.493449 250.895362 
L 302.485093 251.030614 
L 303.476737 251.171502 
L 304.46838 251.318025 
L 305.460024 251.470184 
L 306.451668 251.627978 
L 307.443311 251.791408 
L 308.434955 251.960474 
L 309.426599 252.135174 
L 310.418242 252.315511 
L 311.409886 252.501483 
L 312.40153 252.69309 
L 313.393173 252.890333 
L 314.384817 253.093211 
L 315.376461 253.301725 
L 316.368104 253.515875 
L 317.359748 253.73566 
L 318.351392 253.96108 
L 319.343035 254.192136 
L 320.334679 254.428828 
L 321.326323 254.671155 
L 322.317966 254.919117 
L 323.30961 255.172715 
L 324.301254 255.431949 
L 325.292897 255.696818 
L 326.284541 255.967322 
L 327.276185 256.243462 
L 328.267828 256.525238 
L 329.259472 256.812649 
L 330.251116 257.105696 
L 331.242759 257.404378 
L 332.234403 257.708695 
L 333.226047 258.018648 
L 334.21769 258.334237 
L 335.209334 258.655461 
L 336.200977 258.982321 
L 337.192621 259.314816 
L 338.184265 259.652947 
L 339.175908 259.996713 
L 340.167552 260.346115 
L 341.159196 260.701152 
L 342.150839 261.061825 
L 343.142483 261.428133 
L 344.134127 261.800077 
L 345.12577 262.177656 
L 346.117414 262.560871 
L 347.109058 262.949721 
L 348.100701 263.344207 
L 349.092345 263.744328 
L 350.083989 264.150085 
L 351.075632 264.561477 
L 352.067276 264.978505 
L 353.05892 265.401168 
L 354.050563 265.829467 
L 355.042207 266.263402 
L 356.033851 266.702972 
L 357.025494 267.148177 
L 358.017138 267.599018 
L 359.008782 268.055494 
L 360.000425 268.517606 
L 360.992069 268.985354 
L 361.983713 269.458737 
L 362.975356 269.937755 
L 363.967 270.422409 
L 364.958644 270.912699 
L 365.950287 271.408624 
L 366.941931 271.910184 
L 367.933575 272.41738 
L 368.925218 272.930212 
L 369.916862 273.448679 
L 370.908506 273.972781 
L 371.900149 274.50252 
L 372.891793 275.037893 
L 373.883437 275.578902 
L 374.87508 276.125547 
L 375.866724 276.677827 
L 376.858368 277.235743 
L 377.850011 277.799294 
L 378.841655 278.36848 
L 379.833299 278.943303 
L 380.824942 279.52376 
L 381.816586 280.109854 
L 382.80823 280.701582 
L 383.799873 281.298946 
L 384.791517 281.901946 
L 385.783161 282.510581 
L 386.774804 283.124852 
L 387.766448 283.744758 
L 388.758092 284.3703 
L 389.749735 285.001477 
L 390.741379 285.63829 
L 391.733023 286.280739 
L 392.724666 286.928822 
L 393.71631 287.582542 
L 394.707954 288.241897 
L 395.699597 288.906887 
L 396.691241 289.577513 
L 397.682885 290.253774 
L 398.674528 290.935671 
L 399.666172 291.623204 
L 400.657816 292.316371 
L 401.649459 293.015175 
L 402.641103 293.719614 
L 403.632747 294.429688 
L 404.62439 295.145398 
L 405.616034 295.866744 
L 406.607678 296.593725 
L 407.599321 297.326341 
L 408.590965 298.064593 
L 409.582609 298.808481 
L 410.574252 299.558004 
L 411.565896 300.313162 
L 412.55754 301.073956 
L 413.549183 301.840386 
L 414.540827 302.612451 
L 415.532471 303.390152 
L 416.524114 304.173488 
L 417.515758 304.962459 
L 418.507402 305.757066 
L 419.499045 306.557309 
L 420.490689 307.363187 
L 421.482333 308.174701 
L 422.473976 308.99185 
L 423.46562 309.814635 
L 424.457264 310.643055 
L 425.448907 311.477111 
L 426.440551 312.316802 
L 427.432195 313.162128 
L 428.423838 314.013091 
L 429.415482 314.869688 
L 430.407126 315.731922 
L 431.398769 316.59979 
L 432.390413 317.473295 
L 433.382057 318.352435 
L 434.3737 319.23721 
L 435.365344 320.127621 
L 436.356988 321.023667 
L 437.348631 321.925349 
L 438.340275 322.832666 
L 439.331919 323.745619 
L 440.323562 324.664207 
L 441.315206 325.588431 
L 442.30685 326.518291 
L 443.298493 327.453786 
L 444.290137 328.394916 
L 445.281781 329.341682 
L 446.273424 330.294083 
L 447.265068 331.25212 
L 448.256712 332.215793 
L 449.248355 333.185101 
L 450.239999 334.160044 
L 451.231643 335.140623 
L 452.223286 336.126838 
L 453.21493 337.118688 
L 454.206574 338.116173 
L 455.198217 339.119294 
L 456.189861 340.128051 
L 457.181505 341.142443 
L 458.173148 342.162471 
L 459.164792 343.188134 
L 460.156436 344.219432 
L 461.148079 345.256366 
L 462.139723 346.298936 
L 463.131367 347.347141 
L 464.12301 348.400982 
L 465.114654 349.460458 
L 466.106298 350.52557 
L 467.097941 351.596317 
L 468.089585 352.6727 
L 469.081229 353.754718 
L 470.072872 354.842372 
L 471.064516 355.935661 
L 472.05616 357.034586 
L 473.047803 358.139146 
L 474.039447 359.249342 
L 475.031091 360.365173 
L 476.022734 361.48664 
L 477.014378 362.613742 
L 478.006022 363.74648 
L 478.997665 364.884853 
L 479.989309 366.028862 
L 480.980953 367.178506 
L 481.972596 368.333786 
L 482.96424 369.494701 
L 483.955884 370.661252 
L 484.947527 371.833439 
L 485.939171 373.011261 
L 486.930815 374.194718 
L 487.922458 375.383811 
L 488.914102 376.578539 
L 489.905746 377.778903 
L 490.897389 378.984903 
L 491.889033 380.196538 
L 492.880677 381.413808 
L 493.87232 382.636714 
L 494.863964 383.865256 
L 495.855608 385.099433 
L 496.847251 386.339245 
L 497.838895 387.584693 
L 498.830539 388.835777 
L 499.822182 390.092496 
L 500.813826 391.354851 
L 501.80547 392.622841 
L 502.797113 393.896466 
L 503.788757 395.175727 
L 504.7804 396.460624 
L 505.772044 397.751156 
L 506.763688 399.047324 
L 507.755331 400.349127 
L 508.746975 401.656566 
L 509.738619 402.96964 
L 510.730262 404.288349 
L 511.721906 405.612695 
L 512.71355 406.942675 
L 513.705193 408.278292 
L 514.696837 409.619543 
L 515.688481 410.966431 
L 516.680124 412.318953 
L 517.671768 413.677112 
L 518.663412 415.040905 
L 519.655055 416.410335 
L 520.646699 417.7854 
L 521.638343 419.1661 
L 522.629986 420.552436 
L 523.62163 421.944407 
L 524.613274 423.342014 
L 525.604917 424.745256 
L 525.604917 63.165391 
L 525.604917 63.165391 
L 524.613274 63.960884 
L 523.62163 64.749414 
L 522.629986 65.530984 
L 521.638343 66.305591 
L 520.646699 67.073237 
L 519.655055 67.833922 
L 518.663412 68.587645 
L 517.671768 69.334407 
L 516.680124 70.074207 
L 515.688481 70.807046 
L 514.696837 71.532923 
L 513.705193 72.251838 
L 512.71355 72.963792 
L 511.721906 73.668785 
L 510.730262 74.366816 
L 509.738619 75.057885 
L 508.746975 75.741993 
L 507.755331 76.41914 
L 506.763688 77.089325 
L 505.772044 77.752548 
L 504.7804 78.40881 
L 503.788757 79.058111 
L 502.797113 79.70045 
L 501.80547 80.335827 
L 500.813826 80.964243 
L 499.822182 81.585697 
L 498.830539 82.20019 
L 497.838895 82.807721 
L 496.847251 83.408291 
L 495.855608 84.0019 
L 494.863964 84.588546 
L 493.87232 85.168232 
L 492.880677 85.740955 
L 491.889033 86.306718 
L 490.897389 86.865519 
L 489.905746 87.417358 
L 488.914102 87.962235 
L 487.922458 88.500152 
L 486.930815 89.031106 
L 485.939171 89.5551 
L 484.947527 90.072131 
L 483.955884 90.582201 
L 482.96424 91.08531 
L 481.972596 91.581457 
L 480.980953 92.070643 
L 479.989309 92.552867 
L 478.997665 93.028129 
L 478.006022 93.49643 
L 477.014378 93.95777 
L 476.022734 94.412148 
L 475.031091 94.859565 
L 474.039447 95.30002 
L 473.047803 95.733513 
L 472.05616 96.160045 
L 471.064516 96.579615 
L 470.072872 96.992224 
L 469.081229 97.397872 
L 468.089585 97.796558 
L 467.097941 98.188282 
L 466.106298 98.573045 
L 465.114654 98.950846 
L 464.12301 99.321686 
L 463.131367 99.685565 
L 462.139723 100.042481 
L 461.148079 100.392437 
L 460.156436 100.735431 
L 459.164792 101.071463 
L 458.173148 101.400534 
L 457.181505 101.722643 
L 456.189861 102.037791 
L 455.198217 102.345977 
L 454.206574 102.647202 
L 453.21493 102.941465 
L 452.223286 103.228767 
L 451.231643 103.509107 
L 450.239999 103.782485 
L 449.248355 104.048902 
L 448.256712 104.308358 
L 447.265068 104.560852 
L 446.273424 104.806385 
L 445.281781 105.044956 
L 444.290137 105.276566 
L 443.298493 105.501214 
L 442.30685 105.7189 
L 441.315206 105.929625 
L 440.323562 106.133389 
L 439.331919 106.330191 
L 438.340275 106.520031 
L 437.348631 106.70291 
L 436.356988 106.878828 
L 435.365344 107.047784 
L 434.3737 107.209778 
L 433.382057 107.364811 
L 432.390413 107.512882 
L 431.398769 107.653992 
L 430.407126 107.788141 
L 429.415482 107.915327 
L 428.423838 108.035553 
L 427.432195 108.148817 
L 426.440551 108.255119 
L 425.448907 108.35446 
L 424.457264 108.446839 
L 423.46562 108.532257 
L 422.473976 108.610713 
L 421.482333 108.682208 
L 420.490689 108.746741 
L 419.499045 108.804313 
L 418.507402 108.854923 
L 417.515758 108.898572 
L 416.524114 108.935259 
L 415.532471 108.964985 
L 414.540827 108.987749 
L 413.549183 109.003551 
L 412.55754 109.012393 
L 411.565896 109.014272 
L 410.574252 109.00919 
L 409.582609 108.997147 
L 408.590965 108.978142 
L 407.599321 108.952175 
L 406.607678 108.919247 
L 405.616034 108.879358 
L 404.62439 108.832507 
L 403.632747 108.778694 
L 402.641103 108.71792 
L 401.649459 108.650185 
L 400.657816 108.575488 
L 399.666172 108.493829 
L 398.674528 108.405209 
L 397.682885 108.309628 
L 396.691241 108.207085 
L 395.699597 108.09758 
L 394.707954 107.981114 
L 393.71631 107.857686 
L 392.724666 107.727297 
L 391.733023 107.589946 
L 390.741379 107.445634 
L 389.749735 107.29436 
L 388.758092 107.136125 
L 387.766448 106.970928 
L 386.774804 106.79877 
L 385.783161 106.61965 
L 384.791517 106.433569 
L 383.799873 106.240526 
L 382.80823 106.040522 
L 381.816586 105.833556 
L 380.824942 105.619629 
L 379.833299 105.39874 
L 378.841655 105.17089 
L 377.850011 104.936078 
L 376.858368 104.694304 
L 375.866724 104.44557 
L 374.87508 104.189873 
L 373.883437 103.927215 
L 372.891793 103.657596 
L 371.900149 103.381015 
L 370.908506 103.097472 
L 369.916862 102.806968 
L 368.925218 102.509503 
L 367.933575 102.205076 
L 366.941931 101.893687 
L 365.950287 101.575337 
L 364.958644 101.250026 
L 363.967 100.917753 
L 362.975356 100.578518 
L 361.983713 100.232322 
L 360.992069 99.879164 
L 360.000425 99.519045 
L 359.008782 99.151965 
L 358.017138 98.777922 
L 357.025494 98.396919 
L 356.033851 98.008954 
L 355.042207 97.614027 
L 354.050563 97.212139 
L 353.05892 96.803289 
L 352.067276 96.387478 
L 351.075632 95.964705 
L 350.083989 95.534971 
L 349.092345 95.098275 
L 348.100701 94.654618 
L 347.109058 94.203999 
L 346.117414 93.746418 
L 345.12577 93.281877 
L 344.134127 92.810373 
L 343.142483 92.331908 
L 342.150839 91.846482 
L 341.159196 91.354094 
L 340.167552 90.854745 
L 339.175908 90.348434 
L 338.184265 89.835161 
L 337.192621 89.314927 
L 336.200977 88.787732 
L 335.209334 88.253575 
L 334.21769 87.712456 
L 333.226047 87.164376 
L 332.234403 86.609335 
L 331.242759 86.047332 
L 330.251116 85.478367 
L 329.259472 84.902441 
L 328.267828 84.319554 
L 327.276185 83.729704 
L 326.284541 83.132894 
L 325.292897 82.529122 
L 324.301254 81.918388 
L 323.30961 81.300693 
L 322.317966 80.676036 
L 321.326323 80.044418 
L 320.334679 79.405838 
L 319.343035 78.760297 
L 318.351392 78.107794 
L 317.359748 77.44833 
L 316.368104 76.781904 
L 315.376461 76.108517 
L 314.384817 75.428168 
L 313.393173 74.740858 
L 312.40153 74.046586 
L 311.409886 73.345353 
L 310.418242 72.637158 
L 309.426599 71.922002 
L 308.434955 71.199884 
L 307.443311 70.470804 
L 306.451668 69.734764 
L 305.460024 68.991761 
L 304.46838 68.241797 
L 303.476737 67.484872 
L 302.485093 66.720985 
L 301.493449 65.950136 
L 300.501806 65.172326 
L 299.510162 64.387555 
L 298.518518 63.595822 
L 297.526875 62.797127 
L 296.535231 61.991471 
L 295.543587 61.178854 
L 294.551944 60.359275 
L 293.5603 59.532734 
L 292.568656 58.699232 
L 291.577013 57.858768 
L 290.585369 57.011343 
L 289.593725 56.156957 
L 288.602082 55.295608 
L 287.610438 54.427299 
L 286.618794 53.552028 
L 285.627151 52.669795 
L 284.635507 51.780601 
L 283.643863 50.884445 
L 282.65222 49.981328 
L 281.660576 49.071249 
L 280.668932 48.154209 
L 279.677289 47.230207 
L 278.685645 46.299244 
L 277.694001 45.361319 
L 276.702358 44.416433 
L 275.710714 43.464585 
L 274.71907 42.505775 
L 273.727427 41.540004 
L 272.735783 40.567272 
L 271.744139 39.587578 
L 270.752496 38.600923 
L 269.760852 37.607306 
L 268.769208 36.606727 
L 267.777565 35.599187 
L 266.785921 34.584686 
L 265.794277 33.563223 
L 264.802634 32.534799 
L 263.81099 31.499413 
L 262.819346 30.457065 
L 261.827703 29.407756 
L 260.836059 28.351485 
L 259.844415 27.288253 
L 258.852772 26.21806 
L 257.861128 25.140905 
L 256.869484 24.056788 
L 255.877841 22.96571 
L 254.886197 21.86767 
L 253.894553 20.762669 
L 252.90291 19.650706 
L 251.911266 18.531782 
L 250.919622 17.405897 
L 249.927979 16.273049 
L 248.936335 15.133241 
L 247.944691 13.98647 
L 246.953048 12.832739 
L 245.961404 11.672045 
L 244.96976 10.504391 
L 243.978117 9.329774 
L 242.986473 8.148197 
L 241.994829 6.959657 
L 241.003186 5.764156 
L 240.011542 4.561694 
L 239.019898 3.35227 
L 238.028255 2.135885 
L 237.036611 0.912538 
L 236.044967 -0.31777 
L 235.053324 -1.55504 
L 234.06168 -2.799272 
L 233.070036 -4.050465 
L 232.078393 -5.308619 
L 231.086749 -6.573735 
L 230.095105 -7.845813 
L 229.103462 -9.124852 
L 228.111818 -10.410852 
L 227.120174 -11.703814 
L 226.128531 -13.003738 
L 225.136887 -14.310623 
L 224.145243 -15.624469 
L 223.1536 -16.945278 
L 222.161956 -18.273047 
L 221.170312 -19.607778 
L 220.178669 -20.949471 
L 219.187025 -22.298125 
L 218.195381 -23.653741 
L 217.203738 -25.016318 
L 216.212094 -26.385857 
L 215.22045 -27.762357 
L 214.228807 -29.145819 
L 213.237163 -30.536242 
L 212.245519 -31.933626 
L 211.253876 -33.337973 
L 210.262232 -34.749281 
L 209.270588 -36.16755 
L 208.278945 -37.592781 
L 207.287301 -39.024973 
L 206.295657 -40.464127 
L 205.304014 -41.910242 
L 204.31237 -43.363319 
L 203.320726 -44.823357 
L 202.329083 -46.290357 
L 201.337439 -47.764319 
L 200.345795 -49.245242 
L 199.354152 -50.733126 
L 198.362508 -52.227972 
L 197.370864 -53.729779 
L 196.379221 -55.238548 
L 195.387577 -56.754279 
L 194.395933 -58.276971 
L 193.40429 -59.806624 
L 192.412646 -61.343239 
L 191.421002 -62.886816 
L 190.429359 -64.437354 
L 189.437715 -65.994854 
L 188.446071 -67.559315 
L 187.454428 -69.130737 
L 186.462784 -70.709121 
L 185.47114 -72.294467 
L 184.479497 -73.886774 
L 183.487853 -75.486043 
L 182.496209 -77.092273 
L 181.504566 -78.705465 
L 180.512922 -80.325618 
L 179.521278 -81.952733 
L 178.529635 -83.586809 
L 177.537991 -85.227847 
L 176.546347 -86.875846 
L 175.554704 -88.530807 
L 174.56306 -90.192729 
L 173.571416 -91.861613 
L 172.579773 -93.537458 
L 171.588129 -95.220265 
L 170.596485 -96.910033 
L 169.604842 -98.606763 
L 168.613198 -100.310454 
L 167.621555 -102.021107 
L 166.629911 -103.738722 
L 165.638267 -105.463298 
L 164.646624 -107.194835 
L 163.65498 -108.933334 
L 162.663336 -110.678794 
L 161.671693 -112.431216 
L 160.680049 -114.1906 
L 159.688405 -115.956945 
L 158.696762 -117.730251 
L 157.705118 -119.510519 
L 156.713474 -121.297749 
L 155.721831 -123.09194 
L 154.730187 -124.893093 
L 153.738543 -126.701207 
L 152.7469 -128.516282 
L 151.755256 -130.338319 
L 150.763612 -132.167318 
L 149.771969 -134.003278 
L 148.780325 -135.8462 
L 147.788681 -137.696083 
L 146.797038 -139.552928 
L 145.805394 -141.416734 
L 144.81375 -143.287502 
L 143.822107 -145.165231 
L 142.830463 -147.049922 
L 141.838819 -148.941574 
L 140.847176 -150.840188 
L 139.855532 -152.745763 
L 138.863888 -154.6583 
L 137.872245 -156.577798 
L 136.880601 -158.504258 
L 135.888957 -160.437679 
L 134.897314 -162.378062 
L 133.90567 -164.325406 
L 132.914026 -166.279712 
L 131.922383 -168.24098 
L 130.930739 -170.209209 
L 129.939095 -172.184399 
L 128.947452 -174.166551 
L 127.955808 -176.155664 
L 126.964164 -178.151739 
L 125.972521 -180.154776 
L 124.980877 -182.164774 
L 123.989233 -184.181733 
L 122.99759 -186.205654 
L 122.005946 -188.236537 
L 121.014302 -190.274381 
L 120.022659 -192.319187 
L 119.031015 -194.370954 
L 118.039371 -196.429682 
L 117.047728 -198.495372 
L 116.056084 -200.568024 
L 115.06444 -202.647637 
L 114.072797 -204.734212 
L 113.081153 -206.827748 
L 112.089509 -208.928246 
L 111.097866 -211.035705 
L 110.106222 -213.150126 
L 109.114578 -215.271508 
L 108.122935 -217.399852 
L 107.131291 -219.535157 
L 106.139647 -221.677424 
L 105.148004 -223.826652 
L 104.15636 -225.982842 
L 103.164716 -228.145993 
L 102.173073 -230.316106 
L 101.181429 -232.49318 
L 100.189785 -234.677216 
L 99.198142 -236.868213 
L 98.206498 -239.066172 
L 97.214854 -241.271093 
L 96.223211 -243.482975 
L 95.231567 -245.701818 
L 94.239923 -247.927623 
L 93.24828 -250.160389 
L 92.256636 -252.400117 
L 91.264992 -254.646807 
L 90.273349 -256.900458 
L 89.281705 -259.16107 
L 88.290061 -261.428644 
L 87.298418 -263.70318 
L 86.306774 -265.984677 
L 85.31513 -268.273136 
L 84.323487 -270.568556 
L 83.331843 -272.870937 
L 82.340199 -275.18028 
L 81.348556 -277.496585 
L 80.356912 -279.819851 
L 79.365268 -282.150079 
L 78.373625 -284.487268 
L 77.381981 -286.831419 
L 76.390337 -289.182531 
L 75.398694 -291.540604 
L 74.40705 -293.90564 
L 73.415406 -296.277636 
L 72.423763 -298.656595 
L 71.432119 -301.042514 
L 70.440475 -303.435396 
L 69.448832 -305.835239 
L 68.457188 -308.242043 
L 67.465544 -310.655809 
L 66.473901 -313.076536 
L 65.482257 -315.504225 
L 64.490613 -317.938875 
L 63.49897 -320.380487 
L 62.507326 -322.82906 
L 61.515682 -325.284595 
L 60.524039 -327.747092 
L 59.532395 -330.21655 
L 58.540751 -332.692969 
L 57.549108 -335.17635 
L 56.557464 -337.666693 
L 55.56582 -340.163997 
L 54.574177 -342.668262 
L 53.582533 -345.179489 
L 52.590889 -347.697678 
L 51.599246 -350.222828 
L 50.607602 -352.754939 
L 49.615958 -355.294012 
L 48.624315 -357.840047 
L 47.632671 -360.393043 
L 46.641027 -362.953001 
L 45.649384 -365.51992 
L 44.65774 -368.0938 
L 43.666096 -370.674643 
L 42.674453 -373.262446 
L 41.682809 -375.857212 
L 40.691165 -378.458938 
L 39.699522 -381.067626 
L 38.707878 -383.683276 
L 37.716234 -386.305887 
L 36.724591 -388.93546 
L 35.732947 -391.571994 
L 34.741303 -394.21549 
L 33.74966 -396.865948 
L 32.758016 -399.523366 
L 31.766372 -402.187747 
L 30.774729 -404.859089 
z
" clip-path="url(#p6dd0a5203a)" style="fill: #1f77b4; fill-opacity: 0.07"/>
   </g>
   <g id="patch_3">
    <path d="M 278.189823 254.291896 
C 279.764589 254.291896 281.275069 253.770055 282.388596 252.841302 
C 283.502124 251.912548 284.127785 250.652712 284.127785 249.339256 
C 284.127785 248.025801 283.502124 246.765964 282.388596 245.837211 
C 281.275069 244.908458 279.764589 244.386616 278.189823 244.386616 
C 276.615057 244.386616 275.104577 244.908458 273.99105 245.837211 
C 272.877522 246.765964 272.251861 248.025801 272.251861 249.339256 
C 272.251861 250.652712 272.877522 251.912548 273.99105 252.841302 
C 275.104577 253.770055 276.615057 254.291896 278.189823 254.291896 
z
" clip-path="url(#p6dd0a5203a)" style="fill: #1f77b4; opacity: 0.8"/>
   </g>
   <g id="patch_4">
    <path d="M 411.793974 113.967096 
C 413.36874 113.967096 414.87922 113.445255 415.992747 112.516502 
C 417.106275 111.587748 417.731936 110.327912 417.731936 109.014456 
C 417.731936 107.701001 417.106275 106.441164 415.992747 105.512411 
C 414.87922 104.583658 413.36874 104.061816 411.793974 104.061816 
C 410.219208 104.061816 408.708728 104.583658 407.595201 105.512411 
C 406.481673 106.441164 405.856012 107.701001 405.856012 109.014456 
C 405.856012 110.327912 406.481673 111.587748 407.595201 112.516502 
C 408.708728 113.445255 410.219208 113.967096 411.793974 113.967096 
z
" clip-path="url(#p6dd0a5203a)" style="fill: #1f77b4; opacity: 0.8"/>
   </g>
   <g id="matplotlib.axis_1">
    <g id="text_1">
     <!-- vettore d'onda -->
     <g transform="translate(246.499063 413.644094) scale(0.1 -0.1)">
      <defs>
       <path id="DejaVuSans-76" d="M 191 3500 
L 800 3500 
L 1894 563 
L 2988 3500 
L 3597 3500 
L 2284 0 
L 1503 0 
L 191 3500 
z
" transform="scale(0.015625)"/>
       <path id="DejaVuSans-65" d="M 3597 1894 
L 3597 1613 
L 953 1613 
Q 991 1019 1311 708 
Q 1631 397 2203 397 
Q 2534 397 2845 478 
Q 3156 559 3463 722 
L 3463 178 
Q 3153 47 2828 -22 
Q 2503 -91 2169 -91 
Q 1331 -91 842 396 
Q 353 884 353 1716 
Q 353 2575 817 3079 
Q 1281 3584 2069 3584 
Q 2775 3584 3186 3129 
Q 3597 2675 3597 1894 
z
M 3022 2063 
Q 3016 2534 2758 2815 
Q 2500 3097 2075 3097 
Q 1594 3097 1305 2825 
Q 1016 2553 972 2059 
L 3022 2063 
z
" transform="scale(0.015625)"/>
       <path id="DejaVuSans-74" d="M 1172 4494 
L 1172 3500 
L 2356 3500 
L 2356 3053 
L 1172 3053 
L 1172 1153 
Q 1172 725 1289 603 
Q 1406 481 1766 481 
L 2356 481 
L 2356 0 
L 1766 0 
Q 1100 0 847 248 
Q 594 497 594 1153 
L 594 3053 
L 172 3053 
L 172 3500 
L 594 3500 
L 594 4494 
L 1172 4494 
z
" transform="scale(0.015625)"/>
       <path id="DejaVuSans-6f" d="M 1959 3097 
Q 1497 3097 1228 2736 
Q 959 2375 959 1747 
Q 959 1119 1226 758 
Q 1494 397 1959 397 
Q 2419 397 2687 759 
Q 2956 1122 2956 1747 
Q 2956 2369 2687 2733 
Q 2419 3097 1959 3097 
z
M 1959 3584 
Q 2709 3584 3137 3096 
Q 3566 2609 3566 1747 
Q 3566 888 3137 398 
Q 2709 -91 1959 -91 
Q 1206 -91 779 398 
Q 353 888 353 1747 
Q 353 2609 779 3096 
Q 1206 3584 1959 3584 
z
" transform="scale(0.015625)"/>
       <path id="DejaVuSans-72" d="M 2631 2963 
Q 2534 3019 2420 3045 
Q 2306 3072 2169 3072 
Q 1681 3072 1420 2755 
Q 1159 2438 1159 1844 
L 1159 0 
L 581 0 
L 581 3500 
L 1159 3500 
L 1159 2956 
Q 1341 3275 1631 3429 
Q 1922 3584 2338 3584 
Q 2397 3584 2469 3576 
Q 2541 3569 2628 3553 
L 2631 2963 
z
" transform="scale(0.015625)"/>
       <path id="DejaVuSans-20" transform="scale(0.015625)"/>
       <path id="DejaVuSans-64" d="M 2906 2969 
L 2906 4863 
L 3481 4863 
L 3481 0 
L 2906 0 
L 2906 525 
Q 2725 213 2448 61 
Q 2172 -91 1784 -91 
Q 1150 -91 751 415 
Q 353 922 353 1747 
Q 353 2572 751 3078 
Q 1150 3584 1784 3584 
Q 2172 3584 2448 3432 
Q 2725 3281 2906 2969 
z
M 947 1747 
Q 947 1113 1208 752 
Q 1469 391 1925 391 
Q 2381 391 2643 752 
Q 2906 1113 2906 1747 
Q 2906 2381 2643 2742 
Q 2381 3103 1925 3103 
Q 1469 3103 1208 2742 
Q 947 2381 947 1747 
z
" transform="scale(0.015625)"/>
       <path id="DejaVuSans-27" d="M 1147 4666 
L 1147 2931 
L 616 2931 
L 616 4666 
L 1147 4666 
z
" transform="scale(0.015625)"/>
       <path id="DejaVuSans-6e" d="M 3513 2113 
L 3513 0 
L 2938 0 
L 2938 2094 
Q 2938 2591 2744 2837 
Q 2550 3084 2163 3084 
Q 1697 3084 1428 2787 
Q 1159 2491 1159 1978 
L 1159 0 
L 581 0 
L 581 3500 
L 1159 3500 
L 1159 2956 
Q 1366 3272 1645 3428 
Q 1925 3584 2291 3584 
Q 2894 3584 3203 3211 
Q 3513 2838 3513 2113 
z
" transform="scale(0.015625)"/>
       <path id="DejaVuSans-61" d="M 2194 1759 
Q 1497 1759 1228 1600 
Q 959 1441 959 1056 
Q 959 750 1161 570 
Q 1363 391 1709 391 
Q 2188 391 2477 730 
Q 2766 1069 2766 1631 
L 2766 1759 
L 2194 1759 
z
M 3341 1997 
L 3341 0 
L 2766 0 
L 2766 531 
Q 2569 213 2275 61 
Q 1981 -91 1556 -91 
Q 1019 -91 701 211 
Q 384 513 384 1019 
Q 384 1609 779 1909 
Q 1175 2209 1959 2209 
L 2766 2209 
L 2766 2266 
Q 2766 2663 2505 2880 
Q 2244 3097 1772 3097 
Q 1472 3097 1187 3025 
Q 903 2953 641 2809 
L 641 3341 
Q 956 3463 1253 3523 
Q 1550 3584 1831 3584 
Q 2591 3584 2966 3190 
Q 3341 2797 3341 1997 
z
" transform="scale(0.015625)"/>
      </defs>
      <use xlink:href="#DejaVuSans-76"/>
      <use xlink:href="#DejaVuSans-65" transform="translate(59.179688 0)"/>
      <use xlink:href="#DejaVuSans-74" transform="translate(120.703125 0)"/>
      <use xlink:href="#DejaVuSans-74" transform="translate(159.912109 0)"/>
      <use xlink:href="#DejaVuSans-6f" transform="translate(199.121094 0)"/>
      <use xlink:href="#DejaVuSans-72" transform="translate(260.302734 0)"/>
      <use xlink:href="#DejaVuSans-65" transform="translate(299.166016 0)"/>
      <use xlink:href="#DejaVuSans-20" transform="translate(360.689453 0)"/>
      <use xlink:href="#DejaVuSans-64" transform="translate(392.476562 0)"/>
      <use xlink:href="#DejaVuSans-27" transform="translate(455.953125 0)"/>
      <use xlink:href="#DejaVuSans-6f" transform="translate(483.443359 0)"/>
      <use xlink:href="#DejaVuSans-6e" transform="translate(544.625 0)"/>
      <use xlink:href="#DejaVuSans-64" transform="translate(608.003906 0)"/>
      <use xlink:href="#DejaVuSans-61" transform="translate(671.480469 0)"/>
     </g>
    </g>
   </g>
   <g id="matplotlib.axis_2">
    <g id="text_2">
     <!-- energia -->
     <g transform="translate(14.798438 235.238844) rotate(-90) scale(0.1 -0.1)">
      <defs>
       <path id="DejaVuSans-67" d="M 2906 1791 
Q 2906 2416 2648 2759 
Q 2391 3103 1925 3103 
Q 1463 3103 1205 2759 
Q 947 2416 947 1791 
Q 947 1169 1205 825 
Q 1463 481 1925 481 
Q 2391 481 2648 825 
Q 2906 1169 2906 1791 
z
M 3481 434 
Q 3481 -459 3084 -895 
Q 2688 -1331 1869 -1331 
Q 1566 -1331 1297 -1286 
Q 1028 -1241 775 -1147 
L 775 -588 
Q 1028 -725 1275 -790 
Q 1522 -856 1778 -856 
Q 2344 -856 2625 -561 
Q 2906 -266 2906 331 
L 2906 616 
Q 2728 306 2450 153 
Q 2172 0 1784 0 
Q 1141 0 747 490 
Q 353 981 353 1791 
Q 353 2603 747 3093 
Q 1141 3584 1784 3584 
Q 2172 3584 2450 3431 
Q 2728 3278 2906 2969 
L 2906 3500 
L 3481 3500 
L 3481 434 
z
" transform="scale(0.015625)"/>
       <path id="DejaVuSans-69" d="M 603 3500 
L 1178 3500 
L 1178 0 
L 603 0 
L 603 3500 
z
M 603 4863 
L 1178 4863 
L 1178 4134 
L 603 4134 
L 603 4863 
z
" transform="scale(0.015625)"/>
      </defs>
      <use xlink:href="#DejaVuSans-65"/>
      <use xlink:href="#DejaVuSans-6e" transform="translate(61.523438 0)"/>
      <use xlink:href="#DejaVuSans-65" transform="translate(124.902344 0)"/>
      <use xlink:href="#DejaVuSans-72" transform="translate(186.425781 0)"/>
      <use xlink:href="#DejaVuSans-67" transform="translate(225.789062 0)"/>
      <use xlink:href="#DejaVuSans-69" transform="translate(289.265625 0)"/>
      <use xlink:href="#DejaVuSans-61" transform="translate(317.048828 0)"/>
     </g>
    </g>
   </g>
   <g id="line2d_1">
    <path d="M 30.774729 424.745256 
L 38.707878 413.677112 
L 46.641027 402.96964 
L 54.574177 392.622841 
L 62.507326 382.636714 
L 70.440475 373.011261 
L 78.373625 363.74648 
L 86.306774 354.842372 
L 94.239923 346.298936 
L 102.173073 338.116173 
L 109.114578 331.25212 
L 116.056084 324.664207 
L 122.99759 318.352435 
L 129.939095 312.316802 
L 136.880601 306.557309 
L 143.822107 301.073956 
L 150.763612 295.866744 
L 157.705118 290.935671 
L 164.646624 286.280739 
L 171.588129 281.901946 
L 178.529635 277.799294 
L 185.47114 273.972781 
L 192.412646 270.422409 
L 199.354152 267.148177 
L 206.295657 264.150085 
L 213.237163 261.428133 
L 220.178669 258.982321 
L 226.128531 257.105696 
L 232.078393 255.431949 
L 238.028255 253.96108 
L 243.978117 252.69309 
L 249.927979 251.627978 
L 255.877841 250.765745 
L 261.827703 250.10639 
L 267.777565 249.649914 
L 273.727427 249.396316 
L 279.677289 249.345596 
L 285.627151 249.497755 
L 291.577013 249.852792 
L 297.526875 250.410708 
L 303.476737 251.171502 
L 309.426599 252.135174 
L 315.376461 253.301725 
L 321.326323 254.671155 
L 327.276185 256.243462 
L 333.226047 258.018648 
L 339.175908 259.996713 
L 345.12577 262.177656 
L 352.067276 264.978505 
L 359.008782 268.055494 
L 365.950287 271.408624 
L 372.891793 275.037893 
L 379.833299 278.943303 
L 386.774804 283.124852 
L 393.71631 287.582542 
L 400.657816 292.316371 
L 407.599321 297.326341 
L 414.540827 302.612451 
L 421.482333 308.174701 
L 428.423838 314.013091 
L 435.365344 320.127621 
L 442.30685 326.518291 
L 449.248355 333.185101 
L 456.189861 340.128051 
L 464.12301 348.400982 
L 472.05616 357.034586 
L 479.989309 366.028862 
L 487.922458 375.383811 
L 495.855608 385.099433 
L 503.788757 395.175727 
L 511.721906 405.612695 
L 519.655055 416.410335 
L 525.604917 424.745256 
L 525.604917 424.745256 
" clip-path="url(#p6dd0a5203a)" style="fill: none; stroke: #1f77b4; stroke-width: 2; stroke-linecap: square"/>
   </g>
   <g id="line2d_2">
    <path d="M 235.498176 -1 
L 241.994829 6.959657 
L 248.936335 15.133241 
L 255.877841 22.96571 
L 262.819346 30.457065 
L 269.760852 37.607306 
L 276.702358 44.416433 
L 283.643863 50.884445 
L 290.585369 57.011343 
L 296.535231 61.991471 
L 302.485093 66.720985 
L 308.434955 71.199884 
L 314.384817 75.428168 
L 320.334679 79.405838 
L 326.284541 83.132894 
L 332.234403 86.609335 
L 338.184265 89.835161 
L 344.134127 92.810373 
L 350.083989 95.534971 
L 356.033851 98.008954 
L 361.983713 100.232322 
L 367.933575 102.205076 
L 373.883437 103.927215 
L 379.833299 105.39874 
L 385.783161 106.61965 
L 391.733023 107.589946 
L 397.682885 108.309628 
L 403.632747 108.778694 
L 409.582609 108.997147 
L 415.532471 108.964985 
L 421.482333 108.682208 
L 427.432195 108.148817 
L 433.382057 107.364811 
L 439.331919 106.330191 
L 445.281781 105.044956 
L 451.231643 103.509107 
L 457.181505 101.722643 
L 463.131367 99.685565 
L 469.081229 97.397872 
L 475.031091 94.859565 
L 480.980953 92.070643 
L 486.930815 89.031106 
L 492.880677 85.740955 
L 498.830539 82.20019 
L 504.7804 78.40881 
L 510.730262 74.366816 
L 516.680124 70.074207 
L 522.629986 65.530984 
L 525.604917 63.165391 
L 525.604917 63.165391 
" clip-path="url(#p6dd0a5203a)" style="fill: none; stroke: #ff7f0e; stroke-width: 2; stroke-linecap: square"/>
   </g>
   <g id="patch_5">
    <path d="M 20.878125 402.045656 
L 20.878125 30.597656 
" style="fill: none; stroke: #000000; stroke-width: 0.8; stroke-linejoin: miter; stroke-linecap: square"/>
   </g>
   <g id="patch_6">
    <path d="M 545.398125 402.045656 
L 545.398125 30.597656 
" style="fill: none; stroke: #000000; stroke-width: 0.8; stroke-linejoin: miter; stroke-linecap: square"/>
   </g>
   <g id="patch_7">
    <path d="M 20.878125 402.045656 
L 545.398125 402.045656 
" style="fill: none; stroke: #000000; stroke-width: 0.8; stroke-linejoin: miter; stroke-linecap: square"/>
   </g>
   <g id="patch_8">
    <path d="M 20.878125 30.597656 
L 545.398125 30.597656 
" style="fill: none; stroke: #000000; stroke-width: 0.8; stroke-linejoin: miter; stroke-linecap: square"/>
   </g>
   <g id="patch_9">
    <path d="M 278.189823 240.73617 
Q 278.189823 184.130021 278.189823 129.089119 
" style="fill: none; stroke: #000000; stroke-width: 1.4; stroke-linecap: round"/>
    <path d="M 275.589823 134.289119 
L 278.189823 129.089119 
L 280.789823 134.289119 
z
" style="fill: #1f77b4; stroke: #000000; stroke-width: 1.4; stroke-linecap: round"/>
   </g>
   <g id="text_3">
    <!-- fotone -->
    <g transform="translate(228.271554 186.750902) scale(0.095 -0.095)">
     <defs>
      <path id="DejaVuSans-66" d="M 2375 4863 
L 2375 4384 
L 1825 4384 
Q 1516 4384 1395 4259 
Q 1275 4134 1275 3809 
L 1275 3500 
L 2222 3500 
L 2222 3053 
L 1275 3053 
L 1275 0 
L 697 0 
L 697 3053 
L 147 3053 
L 147 3500 
L 697 3500 
L 697 3744 
Q 697 4328 969 4595 
Q 1241 4863 1831 4863 
L 2375 4863 
z
" transform="scale(0.015625)"/>
     </defs>
     <use xlink:href="#DejaVuSans-66"/>
     <use xlink:href="#DejaVuSans-6f" transform="translate(35.205078 0)"/>
     <use xlink:href="#DejaVuSans-74" transform="translate(96.386719 0)"/>
     <use xlink:href="#DejaVuSans-6f" transform="translate(135.595703 0)"/>
     <use xlink:href="#DejaVuSans-6e" transform="translate(196.777344 0)"/>
     <use xlink:href="#DejaVuSans-65" transform="translate(260.15625 0)"/>
    </g>
   </g>
   <g id="patch_10">
    <path d="M 280.172587 125.268833 
Q 342.517563 117.26888 403.310021 109.468142 
" style="fill: none; stroke: #000000; stroke-width: 1.4; stroke-linecap: round"/>
    <path d="M 397.821397 107.551111 
L 403.310021 109.468142 
L 398.483222 112.708823 
z
" style="fill: #1f77b4; stroke: #000000; stroke-width: 1.4; stroke-linecap: round"/>
   </g>
   <g id="text_4">
    <!-- fonone -->
    <g transform="translate(326.089427 101.730582) scale(0.095 -0.095)">
     <use xlink:href="#DejaVuSans-66"/>
     <use xlink:href="#DejaVuSans-6f" transform="translate(35.205078 0)"/>
     <use xlink:href="#DejaVuSans-6e" transform="translate(96.386719 0)"/>
     <use xlink:href="#DejaVuSans-6f" transform="translate(159.765625 0)"/>
     <use xlink:href="#DejaVuSans-6e" transform="translate(220.947266 0)"/>
     <use xlink:href="#DejaVuSans-65" transform="translate(284.326172 0)"/>
    </g>
   </g>
   <g id="patch_11">
    <path d="M 279.594444 245.439727 
Q 344.991213 179.177551 409.602626 113.711122 
" style="fill: none; stroke: #000000; stroke-linecap: round"/>
    <path d="M 404.099397 115.585813 
L 409.602626 113.711122 
L 407.800441 119.23852 
z
" style="fill: #1f77b4; stroke: #000000; stroke-linecap: round"/>
   </g>
   <g id="text_5">
    <!-- transizione totale -->
    <g transform="translate(348.050952 196.656182) scale(0.095 -0.095)">
     <defs>
      <path id="DejaVuSans-73" d="M 2834 3397 
L 2834 2853 
Q 2591 2978 2328 3040 
Q 2066 3103 1784 3103 
Q 1356 3103 1142 2972 
Q 928 2841 928 2578 
Q 928 2378 1081 2264 
Q 1234 2150 1697 2047 
L 1894 2003 
Q 2506 1872 2764 1633 
Q 3022 1394 3022 966 
Q 3022 478 2636 193 
Q 2250 -91 1575 -91 
Q 1294 -91 989 -36 
Q 684 19 347 128 
L 347 722 
Q 666 556 975 473 
Q 1284 391 1588 391 
Q 1994 391 2212 530 
Q 2431 669 2431 922 
Q 2431 1156 2273 1281 
Q 2116 1406 1581 1522 
L 1381 1569 
Q 847 1681 609 1914 
Q 372 2147 372 2553 
Q 372 3047 722 3315 
Q 1072 3584 1716 3584 
Q 2034 3584 2315 3537 
Q 2597 3491 2834 3397 
z
" transform="scale(0.015625)"/>
      <path id="DejaVuSans-7a" d="M 353 3500 
L 3084 3500 
L 3084 2975 
L 922 459 
L 3084 459 
L 3084 0 
L 275 0 
L 275 525 
L 2438 3041 
L 353 3041 
L 353 3500 
z
" transform="scale(0.015625)"/>
      <path id="DejaVuSans-6c" d="M 603 4863 
L 1178 4863 
L 1178 0 
L 603 0 
L 603 4863 
z
" transform="scale(0.015625)"/>
     </defs>
     <use xlink:href="#DejaVuSans-74"/>
     <use xlink:href="#DejaVuSans-72" transform="translate(39.208984 0)"/>
     <use xlink:href="#DejaVuSans-61" transform="translate(80.322266 0)"/>
     <use xlink:href="#DejaVuSans-6e" transform="translate(141.601562 0)"/>
     <use xlink:href="#DejaVuSans-73" transform="translate(204.980469 0)"/>
     <use xlink:href="#DejaVuSans-69" transform="translate(257.080078 0)"/>
     <use xlink:href="#DejaVuSans-7a" transform="translate(284.863281 0)"/>
     <use xlink:href="#DejaVuSans-69" transform="translate(337.353516 0)"/>
     <use xlink:href="#DejaVuSans-6f" transform="translate(365.136719 0)"/>
     <use xlink:href="#DejaVuSans-6e" transform="translate(426.318359 0)"/>
     <use xlink:href="#DejaVuSans-65" transform="translate(489.697266 0)"/>
     <use xlink:href="#DejaVuSans-20" transform="translate(551.220703 0)"/>
     <use xlink:href="#DejaVuSans-74" transform="translate(583.007812 0)"/>
     <use xlink:href="#DejaVuSans-6f" transform="translate(622.216797 0)"/>
     <use xlink:href="#DejaVuSans-74" transform="translate(683.398438 0)"/>
     <use xlink:href="#DejaVuSans-61" transform="translate(722.607422 0)"/>
     <use xlink:href="#DejaVuSans-6c" transform="translate(783.886719 0)"/>
     <use xlink:href="#DejaVuSans-65" transform="translate(811.669922 0)"/>
    </g>
   </g>
   <g id="patch_12">
    <path d="M 90.154351 246.109551 
Q 90.154351 179.17527 90.154351 112.240988 
" style="fill: none; stroke: #000000; stroke-width: 1.1; stroke-linecap: round"/>
    <path d="M 92.154351 242.109551 
L 90.154351 246.109551 
L 88.154351 242.109551 
" style="fill: none; stroke: #000000; stroke-width: 1.1; stroke-linecap: round"/>
    <path d="M 88.154351 116.240988 
L 90.154351 112.240988 
L 92.154351 116.240988 
" style="fill: none; stroke: #000000; stroke-width: 1.1; stroke-linecap: round"/>
   </g>
   <g id="text_6">
    <!-- energia del -->
    <g transform="translate(25.772321 176.678069) scale(0.088 -0.088)">
     <use xlink:href="#DejaVuSans-65"/>
     <use xlink:href="#DejaVuSans-6e" transform="translate(61.523438 0)"/>
     <use xlink:href="#DejaVuSans-65" transform="translate(124.902344 0)"/>
     <use xlink:href="#DejaVuSans-72" transform="translate(186.425781 0)"/>
     <use xlink:href="#DejaVuSans-67" transform="translate(225.789062 0)"/>
     <use xlink:href="#DejaVuSans-69" transform="translate(289.265625 0)"/>
     <use xlink:href="#DejaVuSans-61" transform="translate(317.048828 0)"/>
     <use xlink:href="#DejaVuSans-20" transform="translate(378.328125 0)"/>
     <use xlink:href="#DejaVuSans-64" transform="translate(410.115234 0)"/>
     <use xlink:href="#DejaVuSans-65" transform="translate(473.591797 0)"/>
     <use xlink:href="#DejaVuSans-6c" transform="translate(535.115234 0)"/>
    </g>
    <!-- fotone -->
    <g transform="translate(47.000946 186.532144) scale(0.088 -0.088)">
     <use xlink:href="#DejaVuSans-66"/>
     <use xlink:href="#DejaVuSans-6f" transform="translate(35.205078 0)"/>
     <use xlink:href="#DejaVuSans-74" transform="translate(96.386719 0)"/>
     <use xlink:href="#DejaVuSans-6f" transform="translate(135.595703 0)"/>
     <use xlink:href="#DejaVuSans-6e" transform="translate(196.777344 0)"/>
     <use xlink:href="#DejaVuSans-65" transform="translate(260.15625 0)"/>
    </g>
   </g>
   <g id="patch_13">
    <path d="M 281.421603 82.600376 
Q 344.994849 82.600376 408.568095 82.600376 
" style="fill: none; stroke: #000000; stroke-width: 1.1; stroke-linecap: round"/>
    <path d="M 285.421603 84.600376 
L 281.421603 82.600376 
L 285.421603 80.600376 
" style="fill: none; stroke: #000000; stroke-width: 1.1; stroke-linecap: round"/>
    <path d="M 404.568095 80.600376 
L 408.568095 82.600376 
L 404.568095 84.600376 
" style="fill: none; stroke: #000000; stroke-width: 1.1; stroke-linecap: round"/>
   </g>
   <g id="text_7">
    <!-- momento fornito dal fonone -->
    <g transform="translate(283.288774 69.393336) scale(0.088 -0.088)">
     <defs>
      <path id="DejaVuSans-6d" d="M 3328 2828 
Q 3544 3216 3844 3400 
Q 4144 3584 4550 3584 
Q 5097 3584 5394 3201 
Q 5691 2819 5691 2113 
L 5691 0 
L 5113 0 
L 5113 2094 
Q 5113 2597 4934 2840 
Q 4756 3084 4391 3084 
Q 3944 3084 3684 2787 
Q 3425 2491 3425 1978 
L 3425 0 
L 2847 0 
L 2847 2094 
Q 2847 2600 2669 2842 
Q 2491 3084 2119 3084 
Q 1678 3084 1418 2786 
Q 1159 2488 1159 1978 
L 1159 0 
L 581 0 
L 581 3500 
L 1159 3500 
L 1159 2956 
Q 1356 3278 1631 3431 
Q 1906 3584 2284 3584 
Q 2666 3584 2933 3390 
Q 3200 3197 3328 2828 
z
" transform="scale(0.015625)"/>
     </defs>
     <use xlink:href="#DejaVuSans-6d"/>
     <use xlink:href="#DejaVuSans-6f" transform="translate(97.412109 0)"/>
     <use xlink:href="#DejaVuSans-6d" transform="translate(158.59375 0)"/>
     <use xlink:href="#DejaVuSans-65" transform="translate(256.005859 0)"/>
     <use xlink:href="#DejaVuSans-6e" transform="translate(317.529297 0)"/>
     <use xlink:href="#DejaVuSans-74" transform="translate(380.908203 0)"/>
     <use xlink:href="#DejaVuSans-6f" transform="translate(420.117188 0)"/>
     <use xlink:href="#DejaVuSans-20" transform="translate(481.298828 0)"/>
     <use xlink:href="#DejaVuSans-66" transform="translate(513.085938 0)"/>
     <use xlink:href="#DejaVuSans-6f" transform="translate(548.291016 0)"/>
     <use xlink:href="#DejaVuSans-72" transform="translate(609.472656 0)"/>
     <use xlink:href="#DejaVuSans-6e" transform="translate(648.835938 0)"/>
     <use xlink:href="#DejaVuSans-69" transform="translate(712.214844 0)"/>
     <use xlink:href="#DejaVuSans-74" transform="translate(739.998047 0)"/>
     <use xlink:href="#DejaVuSans-6f" transform="translate(779.207031 0)"/>
     <use xlink:href="#DejaVuSans-20" transform="translate(840.388672 0)"/>
     <use xlink:href="#DejaVuSans-64" transform="translate(872.175781 0)"/>
     <use xlink:href="#DejaVuSans-61" transform="translate(935.652344 0)"/>
     <use xlink:href="#DejaVuSans-6c" transform="translate(996.931641 0)"/>
     <use xlink:href="#DejaVuSans-20" transform="translate(1024.714844 0)"/>
     <use xlink:href="#DejaVuSans-66" transform="translate(1056.501953 0)"/>
     <use xlink:href="#DejaVuSans-6f" transform="translate(1091.707031 0)"/>
     <use xlink:href="#DejaVuSans-6e" transform="translate(1152.888672 0)"/>
     <use xlink:href="#DejaVuSans-6f" transform="translate(1216.267578 0)"/>
     <use xlink:href="#DejaVuSans-6e" transform="translate(1277.449219 0)"/>
     <use xlink:href="#DejaVuSans-65" transform="translate(1340.828125 0)"/>
    </g>
   </g>
   <g id="text_8">
    <!-- banda di conduzione -->
    <g transform="translate(65.412842 52.884536) scale(0.1 -0.1)">
     <defs>
      <path id="DejaVuSans-62" d="M 3116 1747 
Q 3116 2381 2855 2742 
Q 2594 3103 2138 3103 
Q 1681 3103 1420 2742 
Q 1159 2381 1159 1747 
Q 1159 1113 1420 752 
Q 1681 391 2138 391 
Q 2594 391 2855 752 
Q 3116 1113 3116 1747 
z
M 1159 2969 
Q 1341 3281 1617 3432 
Q 1894 3584 2278 3584 
Q 2916 3584 3314 3078 
Q 3713 2572 3713 1747 
Q 3713 922 3314 415 
Q 2916 -91 2278 -91 
Q 1894 -91 1617 61 
Q 1341 213 1159 525 
L 1159 0 
L 581 0 
L 581 4863 
L 1159 4863 
L 1159 2969 
z
" transform="scale(0.015625)"/>
      <path id="DejaVuSans-63" d="M 3122 3366 
L 3122 2828 
Q 2878 2963 2633 3030 
Q 2388 3097 2138 3097 
Q 1578 3097 1268 2742 
Q 959 2388 959 1747 
Q 959 1106 1268 751 
Q 1578 397 2138 397 
Q 2388 397 2633 464 
Q 2878 531 3122 666 
L 3122 134 
Q 2881 22 2623 -34 
Q 2366 -91 2075 -91 
Q 1284 -91 818 406 
Q 353 903 353 1747 
Q 353 2603 823 3093 
Q 1294 3584 2113 3584 
Q 2378 3584 2631 3529 
Q 2884 3475 3122 3366 
z
" transform="scale(0.015625)"/>
      <path id="DejaVuSans-75" d="M 544 1381 
L 544 3500 
L 1119 3500 
L 1119 1403 
Q 1119 906 1312 657 
Q 1506 409 1894 409 
Q 2359 409 2629 706 
Q 2900 1003 2900 1516 
L 2900 3500 
L 3475 3500 
L 3475 0 
L 2900 0 
L 2900 538 
Q 2691 219 2414 64 
Q 2138 -91 1772 -91 
Q 1169 -91 856 284 
Q 544 659 544 1381 
z
M 1991 3584 
L 1991 3584 
z
" transform="scale(0.015625)"/>
     </defs>
     <use xlink:href="#DejaVuSans-62"/>
     <use xlink:href="#DejaVuSans-61" transform="translate(63.476562 0)"/>
     <use xlink:href="#DejaVuSans-6e" transform="translate(124.755859 0)"/>
     <use xlink:href="#DejaVuSans-64" transform="translate(188.134766 0)"/>
     <use xlink:href="#DejaVuSans-61" transform="translate(251.611328 0)"/>
     <use xlink:href="#DejaVuSans-20" transform="translate(312.890625 0)"/>
     <use xlink:href="#DejaVuSans-64" transform="translate(344.677734 0)"/>
     <use xlink:href="#DejaVuSans-69" transform="translate(408.154297 0)"/>
     <use xlink:href="#DejaVuSans-20" transform="translate(435.9375 0)"/>
     <use xlink:href="#DejaVuSans-63" transform="translate(467.724609 0)"/>
     <use xlink:href="#DejaVuSans-6f" transform="translate(522.705078 0)"/>
     <use xlink:href="#DejaVuSans-6e" transform="translate(583.886719 0)"/>
     <use xlink:href="#DejaVuSans-64" transform="translate(647.265625 0)"/>
     <use xlink:href="#DejaVuSans-75" transform="translate(710.742188 0)"/>
     <use xlink:href="#DejaVuSans-7a" transform="translate(774.121094 0)"/>
     <use xlink:href="#DejaVuSans-69" transform="translate(826.611328 0)"/>
     <use xlink:href="#DejaVuSans-6f" transform="translate(854.394531 0)"/>
     <use xlink:href="#DejaVuSans-6e" transform="translate(915.576172 0)"/>
     <use xlink:href="#DejaVuSans-65" transform="translate(978.955078 0)"/>
    </g>
   </g>
   <g id="text_9">
    <!-- banda di valenza -->
    <g transform="translate(65.412842 379.758776) scale(0.1 -0.1)">
     <use xlink:href="#DejaVuSans-62"/>
     <use xlink:href="#DejaVuSans-61" transform="translate(63.476562 0)"/>
     <use xlink:href="#DejaVuSans-6e" transform="translate(124.755859 0)"/>
     <use xlink:href="#DejaVuSans-64" transform="translate(188.134766 0)"/>
     <use xlink:href="#DejaVuSans-61" transform="translate(251.611328 0)"/>
     <use xlink:href="#DejaVuSans-20" transform="translate(312.890625 0)"/>
     <use xlink:href="#DejaVuSans-64" transform="translate(344.677734 0)"/>
     <use xlink:href="#DejaVuSans-69" transform="translate(408.154297 0)"/>
     <use xlink:href="#DejaVuSans-20" transform="translate(435.9375 0)"/>
     <use xlink:href="#DejaVuSans-76" transform="translate(467.724609 0)"/>
     <use xlink:href="#DejaVuSans-61" transform="translate(526.904297 0)"/>
     <use xlink:href="#DejaVuSans-6c" transform="translate(588.183594 0)"/>
     <use xlink:href="#DejaVuSans-65" transform="translate(615.966797 0)"/>
     <use xlink:href="#DejaVuSans-6e" transform="translate(677.490234 0)"/>
     <use xlink:href="#DejaVuSans-7a" transform="translate(740.869141 0)"/>
     <use xlink:href="#DejaVuSans-61" transform="translate(793.359375 0)"/>
    </g>
   </g>
   <g id="text_10">
    <!-- Transizione ottica indiretta assistita da fonone -->
    <g transform="translate(85.288125 18.597656) scale(0.15 -0.15)">
     <defs>
      <path id="DejaVuSans-Bold-54" d="M 31 4666 
L 4331 4666 
L 4331 3756 
L 2784 3756 
L 2784 0 
L 1581 0 
L 1581 3756 
L 31 3756 
L 31 4666 
z
" transform="scale(0.015625)"/>
      <path id="DejaVuSans-Bold-72" d="M 3138 2547 
Q 2991 2616 2845 2648 
Q 2700 2681 2553 2681 
Q 2122 2681 1889 2404 
Q 1656 2128 1656 1613 
L 1656 0 
L 538 0 
L 538 3500 
L 1656 3500 
L 1656 2925 
Q 1872 3269 2151 3426 
Q 2431 3584 2822 3584 
Q 2878 3584 2943 3579 
Q 3009 3575 3134 3559 
L 3138 2547 
z
" transform="scale(0.015625)"/>
      <path id="DejaVuSans-Bold-61" d="M 2106 1575 
Q 1756 1575 1579 1456 
Q 1403 1338 1403 1106 
Q 1403 894 1545 773 
Q 1688 653 1941 653 
Q 2256 653 2472 879 
Q 2688 1106 2688 1447 
L 2688 1575 
L 2106 1575 
z
M 3816 1997 
L 3816 0 
L 2688 0 
L 2688 519 
Q 2463 200 2181 54 
Q 1900 -91 1497 -91 
Q 953 -91 614 226 
Q 275 544 275 1050 
Q 275 1666 698 1953 
Q 1122 2241 2028 2241 
L 2688 2241 
L 2688 2328 
Q 2688 2594 2478 2717 
Q 2269 2841 1825 2841 
Q 1466 2841 1156 2769 
Q 847 2697 581 2553 
L 581 3406 
Q 941 3494 1303 3539 
Q 1666 3584 2028 3584 
Q 2975 3584 3395 3211 
Q 3816 2838 3816 1997 
z
" transform="scale(0.015625)"/>
      <path id="DejaVuSans-Bold-6e" d="M 4056 2131 
L 4056 0 
L 2931 0 
L 2931 347 
L 2931 1631 
Q 2931 2084 2911 2256 
Q 2891 2428 2841 2509 
Q 2775 2619 2662 2680 
Q 2550 2741 2406 2741 
Q 2056 2741 1856 2470 
Q 1656 2200 1656 1722 
L 1656 0 
L 538 0 
L 538 3500 
L 1656 3500 
L 1656 2988 
Q 1909 3294 2193 3439 
Q 2478 3584 2822 3584 
Q 3428 3584 3742 3212 
Q 4056 2841 4056 2131 
z
" transform="scale(0.015625)"/>
      <path id="DejaVuSans-Bold-73" d="M 3272 3391 
L 3272 2541 
Q 2913 2691 2578 2766 
Q 2244 2841 1947 2841 
Q 1628 2841 1473 2761 
Q 1319 2681 1319 2516 
Q 1319 2381 1436 2309 
Q 1553 2238 1856 2203 
L 2053 2175 
Q 2913 2066 3209 1816 
Q 3506 1566 3506 1031 
Q 3506 472 3093 190 
Q 2681 -91 1863 -91 
Q 1516 -91 1145 -36 
Q 775 19 384 128 
L 384 978 
Q 719 816 1070 734 
Q 1422 653 1784 653 
Q 2113 653 2278 743 
Q 2444 834 2444 1013 
Q 2444 1163 2330 1236 
Q 2216 1309 1875 1350 
L 1678 1375 
Q 931 1469 631 1722 
Q 331 1975 331 2491 
Q 331 3047 712 3315 
Q 1094 3584 1881 3584 
Q 2191 3584 2531 3537 
Q 2872 3491 3272 3391 
z
" transform="scale(0.015625)"/>
      <path id="DejaVuSans-Bold-69" d="M 538 3500 
L 1656 3500 
L 1656 0 
L 538 0 
L 538 3500 
z
M 538 4863 
L 1656 4863 
L 1656 3950 
L 538 3950 
L 538 4863 
z
" transform="scale(0.015625)"/>
      <path id="DejaVuSans-Bold-7a" d="M 366 3500 
L 3419 3500 
L 3419 2719 
L 1575 800 
L 3419 800 
L 3419 0 
L 288 0 
L 288 781 
L 2131 2700 
L 366 2700 
L 366 3500 
z
" transform="scale(0.015625)"/>
      <path id="DejaVuSans-Bold-6f" d="M 2203 2784 
Q 1831 2784 1636 2517 
Q 1441 2250 1441 1747 
Q 1441 1244 1636 976 
Q 1831 709 2203 709 
Q 2569 709 2762 976 
Q 2956 1244 2956 1747 
Q 2956 2250 2762 2517 
Q 2569 2784 2203 2784 
z
M 2203 3584 
Q 3106 3584 3614 3096 
Q 4122 2609 4122 1747 
Q 4122 884 3614 396 
Q 3106 -91 2203 -91 
Q 1297 -91 786 396 
Q 275 884 275 1747 
Q 275 2609 786 3096 
Q 1297 3584 2203 3584 
z
" transform="scale(0.015625)"/>
      <path id="DejaVuSans-Bold-65" d="M 4031 1759 
L 4031 1441 
L 1416 1441 
Q 1456 1047 1700 850 
Q 1944 653 2381 653 
Q 2734 653 3104 758 
Q 3475 863 3866 1075 
L 3866 213 
Q 3469 63 3072 -14 
Q 2675 -91 2278 -91 
Q 1328 -91 801 392 
Q 275 875 275 1747 
Q 275 2603 792 3093 
Q 1309 3584 2216 3584 
Q 3041 3584 3536 3087 
Q 4031 2591 4031 1759 
z
M 2881 2131 
Q 2881 2450 2695 2645 
Q 2509 2841 2209 2841 
Q 1884 2841 1681 2658 
Q 1478 2475 1428 2131 
L 2881 2131 
z
" transform="scale(0.015625)"/>
      <path id="DejaVuSans-Bold-20" transform="scale(0.015625)"/>
      <path id="DejaVuSans-Bold-74" d="M 1759 4494 
L 1759 3500 
L 2913 3500 
L 2913 2700 
L 1759 2700 
L 1759 1216 
Q 1759 972 1856 886 
Q 1953 800 2241 800 
L 2816 800 
L 2816 0 
L 1856 0 
Q 1194 0 917 276 
Q 641 553 641 1216 
L 641 2700 
L 84 2700 
L 84 3500 
L 641 3500 
L 641 4494 
L 1759 4494 
z
" transform="scale(0.015625)"/>
      <path id="DejaVuSans-Bold-63" d="M 3366 3391 
L 3366 2478 
Q 3138 2634 2908 2709 
Q 2678 2784 2431 2784 
Q 1963 2784 1702 2511 
Q 1441 2238 1441 1747 
Q 1441 1256 1702 982 
Q 1963 709 2431 709 
Q 2694 709 2930 787 
Q 3166 866 3366 1019 
L 3366 103 
Q 3103 6 2833 -42 
Q 2563 -91 2291 -91 
Q 1344 -91 809 395 
Q 275 881 275 1747 
Q 275 2613 809 3098 
Q 1344 3584 2291 3584 
Q 2566 3584 2833 3536 
Q 3100 3488 3366 3391 
z
" transform="scale(0.015625)"/>
      <path id="DejaVuSans-Bold-64" d="M 2919 2988 
L 2919 4863 
L 4044 4863 
L 4044 0 
L 2919 0 
L 2919 506 
Q 2688 197 2409 53 
Q 2131 -91 1766 -91 
Q 1119 -91 703 423 
Q 288 938 288 1747 
Q 288 2556 703 3070 
Q 1119 3584 1766 3584 
Q 2128 3584 2408 3439 
Q 2688 3294 2919 2988 
z
M 2181 722 
Q 2541 722 2730 984 
Q 2919 1247 2919 1747 
Q 2919 2247 2730 2509 
Q 2541 2772 2181 2772 
Q 1825 2772 1636 2509 
Q 1447 2247 1447 1747 
Q 1447 1247 1636 984 
Q 1825 722 2181 722 
z
" transform="scale(0.015625)"/>
      <path id="DejaVuSans-Bold-66" d="M 2841 4863 
L 2841 4128 
L 2222 4128 
Q 1984 4128 1890 4042 
Q 1797 3956 1797 3744 
L 1797 3500 
L 2753 3500 
L 2753 2700 
L 1797 2700 
L 1797 0 
L 678 0 
L 678 2700 
L 122 2700 
L 122 3500 
L 678 3500 
L 678 3744 
Q 678 4316 997 4589 
Q 1316 4863 1984 4863 
L 2841 4863 
z
" transform="scale(0.015625)"/>
     </defs>
     <use xlink:href="#DejaVuSans-Bold-54"/>
     <use xlink:href="#DejaVuSans-Bold-72" transform="translate(57.212891 0)"/>
     <use xlink:href="#DejaVuSans-Bold-61" transform="translate(106.529297 0)"/>
     <use xlink:href="#DejaVuSans-Bold-6e" transform="translate(174.009766 0)"/>
     <use xlink:href="#DejaVuSans-Bold-73" transform="translate(245.201172 0)"/>
     <use xlink:href="#DejaVuSans-Bold-69" transform="translate(304.722656 0)"/>
     <use xlink:href="#DejaVuSans-Bold-7a" transform="translate(339 0)"/>
     <use xlink:href="#DejaVuSans-Bold-69" transform="translate(397.203125 0)"/>
     <use xlink:href="#DejaVuSans-Bold-6f" transform="translate(431.480469 0)"/>
     <use xlink:href="#DejaVuSans-Bold-6e" transform="translate(500.181641 0)"/>
     <use xlink:href="#DejaVuSans-Bold-65" transform="translate(571.373047 0)"/>
     <use xlink:href="#DejaVuSans-Bold-20" transform="translate(639.195312 0)"/>
     <use xlink:href="#DejaVuSans-Bold-6f" transform="translate(674.009766 0)"/>
     <use xlink:href="#DejaVuSans-Bold-74" transform="translate(742.710938 0)"/>
     <use xlink:href="#DejaVuSans-Bold-74" transform="translate(790.513672 0)"/>
     <use xlink:href="#DejaVuSans-Bold-69" transform="translate(838.316406 0)"/>
     <use xlink:href="#DejaVuSans-Bold-63" transform="translate(872.59375 0)"/>
     <use xlink:href="#DejaVuSans-Bold-61" transform="translate(931.871094 0)"/>
     <use xlink:href="#DejaVuSans-Bold-20" transform="translate(999.351562 0)"/>
     <use xlink:href="#DejaVuSans-Bold-69" transform="translate(1034.166016 0)"/>
     <use xlink:href="#DejaVuSans-Bold-6e" transform="translate(1068.443359 0)"/>
     <use xlink:href="#DejaVuSans-Bold-64" transform="translate(1139.634766 0)"/>
     <use xlink:href="#DejaVuSans-Bold-69" transform="translate(1211.216797 0)"/>
     <use xlink:href="#DejaVuSans-Bold-72" transform="translate(1245.494141 0)"/>
     <use xlink:href="#DejaVuSans-Bold-65" transform="translate(1294.810547 0)"/>
     <use xlink:href="#DejaVuSans-Bold-74" transform="translate(1362.632812 0)"/>
     <use xlink:href="#DejaVuSans-Bold-74" transform="translate(1410.435547 0)"/>
     <use xlink:href="#DejaVuSans-Bold-61" transform="translate(1458.238281 0)"/>
     <use xlink:href="#DejaVuSans-Bold-20" transform="translate(1525.71875 0)"/>
     <use xlink:href="#DejaVuSans-Bold-61" transform="translate(1560.533203 0)"/>
     <use xlink:href="#DejaVuSans-Bold-73" transform="translate(1628.013672 0)"/>
     <use xlink:href="#DejaVuSans-Bold-73" transform="translate(1687.535156 0)"/>
     <use xlink:href="#DejaVuSans-Bold-69" transform="translate(1747.056641 0)"/>
     <use xlink:href="#DejaVuSans-Bold-73" transform="translate(1781.333984 0)"/>
     <use xlink:href="#DejaVuSans-Bold-74" transform="translate(1840.855469 0)"/>
     <use xlink:href="#DejaVuSans-Bold-69" transform="translate(1888.658203 0)"/>
     <use xlink:href="#DejaVuSans-Bold-74" transform="translate(1922.935547 0)"/>
     <use xlink:href="#DejaVuSans-Bold-61" transform="translate(1970.738281 0)"/>
     <use xlink:href="#DejaVuSans-Bold-20" transform="translate(2038.21875 0)"/>
     <use xlink:href="#DejaVuSans-Bold-64" transform="translate(2073.033203 0)"/>
     <use xlink:href="#DejaVuSans-Bold-61" transform="translate(2144.615234 0)"/>
     <use xlink:href="#DejaVuSans-Bold-20" transform="translate(2212.095703 0)"/>
     <use xlink:href="#DejaVuSans-Bold-66" transform="translate(2246.910156 0)"/>
     <use xlink:href="#DejaVuSans-Bold-6f" transform="translate(2290.416016 0)"/>
     <use xlink:href="#DejaVuSans-Bold-6e" transform="translate(2359.117188 0)"/>
     <use xlink:href="#DejaVuSans-Bold-6f" transform="translate(2430.308594 0)"/>
     <use xlink:href="#DejaVuSans-Bold-6e" transform="translate(2499.009766 0)"/>
     <use xlink:href="#DejaVuSans-Bold-65" transform="translate(2570.201172 0)"/>
    </g>
   </g>
  </g>
  <g id="text_11">
   <!-- Il fotone fornisce principalmente energia, mentre il fonone compensa la variazione di vettore d'onda. -->
   <g transform="translate(21.645313 438.225656) scale(0.1 -0.1)">
    <defs>
     <path id="DejaVuSans-49" d="M 628 4666 
L 1259 4666 
L 1259 0 
L 628 0 
L 628 4666 
z
" transform="scale(0.015625)"/>
     <path id="DejaVuSans-70" d="M 1159 525 
L 1159 -1331 
L 581 -1331 
L 581 3500 
L 1159 3500 
L 1159 2969 
Q 1341 3281 1617 3432 
Q 1894 3584 2278 3584 
Q 2916 3584 3314 3078 
Q 3713 2572 3713 1747 
Q 3713 922 3314 415 
Q 2916 -91 2278 -91 
Q 1894 -91 1617 61 
Q 1341 213 1159 525 
z
M 3116 1747 
Q 3116 2381 2855 2742 
Q 2594 3103 2138 3103 
Q 1681 3103 1420 2742 
Q 1159 2381 1159 1747 
Q 1159 1113 1420 752 
Q 1681 391 2138 391 
Q 2594 391 2855 752 
Q 3116 1113 3116 1747 
z
" transform="scale(0.015625)"/>
     <path id="DejaVuSans-2c" d="M 750 794 
L 1409 794 
L 1409 256 
L 897 -744 
L 494 -744 
L 750 256 
L 750 794 
z
" transform="scale(0.015625)"/>
     <path id="DejaVuSans-2e" d="M 684 794 
L 1344 794 
L 1344 0 
L 684 0 
L 684 794 
z
" transform="scale(0.015625)"/>
    </defs>
    <use xlink:href="#DejaVuSans-49"/>
    <use xlink:href="#DejaVuSans-6c" transform="translate(29.492188 0)"/>
    <use xlink:href="#DejaVuSans-20" transform="translate(57.275391 0)"/>
    <use xlink:href="#DejaVuSans-66" transform="translate(89.0625 0)"/>
    <use xlink:href="#DejaVuSans-6f" transform="translate(124.267578 0)"/>
    <use xlink:href="#DejaVuSans-74" transform="translate(185.449219 0)"/>
    <use xlink:href="#DejaVuSans-6f" transform="translate(224.658203 0)"/>
    <use xlink:href="#DejaVuSans-6e" transform="translate(285.839844 0)"/>
    <use xlink:href="#DejaVuSans-65" transform="translate(349.21875 0)"/>
    <use xlink:href="#DejaVuSans-20" transform="translate(410.742188 0)"/>
    <use xlink:href="#DejaVuSans-66" transform="translate(442.529297 0)"/>
    <use xlink:href="#DejaVuSans-6f" transform="translate(477.734375 0)"/>
    <use xlink:href="#DejaVuSans-72" transform="translate(538.916016 0)"/>
    <use xlink:href="#DejaVuSans-6e" transform="translate(578.279297 0)"/>
    <use xlink:href="#DejaVuSans-69" transform="translate(641.658203 0)"/>
    <use xlink:href="#DejaVuSans-73" transform="translate(669.441406 0)"/>
    <use xlink:href="#DejaVuSans-63" transform="translate(721.541016 0)"/>
    <use xlink:href="#DejaVuSans-65" transform="translate(776.521484 0)"/>
    <use xlink:href="#DejaVuSans-20" transform="translate(838.044922 0)"/>
    <use xlink:href="#DejaVuSans-70" transform="translate(869.832031 0)"/>
    <use xlink:href="#DejaVuSans-72" transform="translate(933.308594 0)"/>
    <use xlink:href="#DejaVuSans-69" transform="translate(974.421875 0)"/>
    <use xlink:href="#DejaVuSans-6e" transform="translate(1002.205078 0)"/>
    <use xlink:href="#DejaVuSans-63" transform="translate(1065.583984 0)"/>
    <use xlink:href="#DejaVuSans-69" transform="translate(1120.564453 0)"/>
    <use xlink:href="#DejaVuSans-70" transform="translate(1148.347656 0)"/>
    <use xlink:href="#DejaVuSans-61" transform="translate(1211.824219 0)"/>
    <use xlink:href="#DejaVuSans-6c" transform="translate(1273.103516 0)"/>
    <use xlink:href="#DejaVuSans-6d" transform="translate(1300.886719 0)"/>
    <use xlink:href="#DejaVuSans-65" transform="translate(1398.298828 0)"/>
    <use xlink:href="#DejaVuSans-6e" transform="translate(1459.822266 0)"/>
    <use xlink:href="#DejaVuSans-74" transform="translate(1523.201172 0)"/>
    <use xlink:href="#DejaVuSans-65" transform="translate(1562.410156 0)"/>
    <use xlink:href="#DejaVuSans-20" transform="translate(1623.933594 0)"/>
    <use xlink:href="#DejaVuSans-65" transform="translate(1655.720703 0)"/>
    <use xlink:href="#DejaVuSans-6e" transform="translate(1717.244141 0)"/>
    <use xlink:href="#DejaVuSans-65" transform="translate(1780.623047 0)"/>
    <use xlink:href="#DejaVuSans-72" transform="translate(1842.146484 0)"/>
    <use xlink:href="#DejaVuSans-67" transform="translate(1881.509766 0)"/>
    <use xlink:href="#DejaVuSans-69" transform="translate(1944.986328 0)"/>
    <use xlink:href="#DejaVuSans-61" transform="translate(1972.769531 0)"/>
    <use xlink:href="#DejaVuSans-2c" transform="translate(2034.048828 0)"/>
    <use xlink:href="#DejaVuSans-20" transform="translate(2065.835938 0)"/>
    <use xlink:href="#DejaVuSans-6d" transform="translate(2097.623047 0)"/>
    <use xlink:href="#DejaVuSans-65" transform="translate(2195.035156 0)"/>
    <use xlink:href="#DejaVuSans-6e" transform="translate(2256.558594 0)"/>
    <use xlink:href="#DejaVuSans-74" transform="translate(2319.9375 0)"/>
    <use xlink:href="#DejaVuSans-72" transform="translate(2359.146484 0)"/>
    <use xlink:href="#DejaVuSans-65" transform="translate(2398.009766 0)"/>
    <use xlink:href="#DejaVuSans-20" transform="translate(2459.533203 0)"/>
    <use xlink:href="#DejaVuSans-69" transform="translate(2491.320312 0)"/>
    <use xlink:href="#DejaVuSans-6c" transform="translate(2519.103516 0)"/>
    <use xlink:href="#DejaVuSans-20" transform="translate(2546.886719 0)"/>
    <use xlink:href="#DejaVuSans-66" transform="translate(2578.673828 0)"/>
    <use xlink:href="#DejaVuSans-6f" transform="translate(2613.878906 0)"/>
    <use xlink:href="#DejaVuSans-6e" transform="translate(2675.060547 0)"/>
    <use xlink:href="#DejaVuSans-6f" transform="translate(2738.439453 0)"/>
    <use xlink:href="#DejaVuSans-6e" transform="translate(2799.621094 0)"/>
    <use xlink:href="#DejaVuSans-65" transform="translate(2863 0)"/>
    <use xlink:href="#DejaVuSans-20" transform="translate(2924.523438 0)"/>
    <use xlink:href="#DejaVuSans-63" transform="translate(2956.310547 0)"/>
    <use xlink:href="#DejaVuSans-6f" transform="translate(3011.291016 0)"/>
    <use xlink:href="#DejaVuSans-6d" transform="translate(3072.472656 0)"/>
    <use xlink:href="#DejaVuSans-70" transform="translate(3169.884766 0)"/>
    <use xlink:href="#DejaVuSans-65" transform="translate(3233.361328 0)"/>
    <use xlink:href="#DejaVuSans-6e" transform="translate(3294.884766 0)"/>
    <use xlink:href="#DejaVuSans-73" transform="translate(3358.263672 0)"/>
    <use xlink:href="#DejaVuSans-61" transform="translate(3410.363281 0)"/>
    <use xlink:href="#DejaVuSans-20" transform="translate(3471.642578 0)"/>
    <use xlink:href="#DejaVuSans-6c" transform="translate(3503.429688 0)"/>
    <use xlink:href="#DejaVuSans-61" transform="translate(3531.212891 0)"/>
    <use xlink:href="#DejaVuSans-20" transform="translate(3592.492188 0)"/>
    <use xlink:href="#DejaVuSans-76" transform="translate(3624.279297 0)"/>
    <use xlink:href="#DejaVuSans-61" transform="translate(3683.458984 0)"/>
    <use xlink:href="#DejaVuSans-72" transform="translate(3744.738281 0)"/>
    <use xlink:href="#DejaVuSans-69" transform="translate(3785.851562 0)"/>
    <use xlink:href="#DejaVuSans-61" transform="translate(3813.634766 0)"/>
    <use xlink:href="#DejaVuSans-7a" transform="translate(3874.914062 0)"/>
    <use xlink:href="#DejaVuSans-69" transform="translate(3927.404297 0)"/>
    <use xlink:href="#DejaVuSans-6f" transform="translate(3955.1875 0)"/>
    <use xlink:href="#DejaVuSans-6e" transform="translate(4016.369141 0)"/>
    <use xlink:href="#DejaVuSans-65" transform="translate(4079.748047 0)"/>
    <use xlink:href="#DejaVuSans-20" transform="translate(4141.271484 0)"/>
    <use xlink:href="#DejaVuSans-64" transform="translate(4173.058594 0)"/>
    <use xlink:href="#DejaVuSans-69" transform="translate(4236.535156 0)"/>
    <use xlink:href="#DejaVuSans-20" transform="translate(4264.318359 0)"/>
    <use xlink:href="#DejaVuSans-76" transform="translate(4296.105469 0)"/>
    <use xlink:href="#DejaVuSans-65" transform="translate(4355.285156 0)"/>
    <use xlink:href="#DejaVuSans-74" transform="translate(4416.808594 0)"/>
    <use xlink:href="#DejaVuSans-74" transform="translate(4456.017578 0)"/>
    <use xlink:href="#DejaVuSans-6f" transform="translate(4495.226562 0)"/>
    <use xlink:href="#DejaVuSans-72" transform="translate(4556.408203 0)"/>
    <use xlink:href="#DejaVuSans-65" transform="translate(4595.271484 0)"/>
    <use xlink:href="#DejaVuSans-20" transform="translate(4656.794922 0)"/>
    <use xlink:href="#DejaVuSans-64" transform="translate(4688.582031 0)"/>
    <use xlink:href="#DejaVuSans-27" transform="translate(4752.058594 0)"/>
    <use xlink:href="#DejaVuSans-6f" transform="translate(4779.548828 0)"/>
    <use xlink:href="#DejaVuSans-6e" transform="translate(4840.730469 0)"/>
    <use xlink:href="#DejaVuSans-64" transform="translate(4904.109375 0)"/>
    <use xlink:href="#DejaVuSans-61" transform="translate(4967.585938 0)"/>
    <use xlink:href="#DejaVuSans-2e" transform="translate(5028.865234 0)"/>
   </g>
  </g>
 </g>
 <defs>
  <clipPath id="p6dd0a5203a">
   <rect x="20.878125" y="30.597656" width="524.52" height="371.448"/>
  </clipPath>
 </defs>
</svg>
