<?xml version="1.0" encoding="utf-8" standalone="no"?>
<!DOCTYPE svg PUBLIC "-//W3C//DTD SVG 1.1//EN"
  "http://www.w3.org/Graphics/SVG/1.1/DTD/svg11.dtd">
<svg xmlns:xlink="http://www.w3.org/1999/xlink" width="675.04pt" height="471.397344pt" viewBox="0 0 675.04 471.397344" xmlns="http://www.w3.org/2000/svg" version="1.1">
 <metadata>
  <rdf:RDF xmlns:dc="http://purl.org/dc/elements/1.1/" xmlns:cc="http://creativecommons.org/ns#" xmlns:rdf="http://www.w3.org/1999/02/22-rdf-syntax-ns#">
   <cc:Work>
    <dc:type rdf:resource="http://purl.org/dc/dcmitype/StillImage"/>
    <dc:date>2026-06-16T12:38:23.987417</dc:date>
    <dc:format>image/svg+xml</dc:format>
    <dc:creator>
     <cc:Agent>
      <dc:title>Matplotlib v3.10.8, https://matplotlib.org/</dc:title>
     </cc:Agent>
    </dc:creator>
   </cc:Work>
  </rdf:RDF>
 </metadata>
 <defs>
  <style type="text/css">*{stroke-linejoin: round; stroke-linecap: butt}</style>
 </defs>
 <g id="figure_1">
  <g id="patch_1">
   <path d="M 0 471.397344 
L 675.04 471.397344 
L 675.04 0 
L 0 0 
z
" style="fill: #ffffff"/>
  </g>
  <g id="axes_1">
   <g id="patch_2">
    <path d="M 54.15 419.277656 
L 656.79 419.277656 
L 656.79 31.197656 
L 54.15 31.197656 
z
" style="fill: #ffffff"/>
   </g>
   <g id="matplotlib.axis_1">
    <g id="xtick_1">
     <g id="line2d_1">
      <path d="M 54.15 419.277656 
L 54.15 31.197656 
" clip-path="url(#pa8d817cd59)" style="fill: none; stroke: #b0b0b0; stroke-opacity: 0.16; stroke-width: 0.8; stroke-linecap: square"/>
     </g>
     <g id="line2d_2">
      <defs>
       <path id="mde818e06b8" d="M 0 0 
L 0 3.5 
" style="stroke: #000000; stroke-width: 0.8"/>
      </defs>
      <g>
       <use xlink:href="#mde818e06b8" x="54.15" y="419.277656" style="stroke: #000000; stroke-width: 0.8"/>
      </g>
     </g>
     <g id="text_1">
      <!-- $\mathdefault{10^{14}}$ -->
      <g transform="translate(43.1 433.876094) scale(0.1 -0.1)">
       <defs>
        <path id="DejaVuSans-31" d="M 794 531 
L 1825 531 
L 1825 4091 
L 703 3866 
L 703 4441 
L 1819 4666 
L 2450 4666 
L 2450 531 
L 3481 531 
L 3481 0 
L 794 0 
L 794 531 
z
" transform="scale(0.015625)"/>
        <path id="DejaVuSans-30" d="M 2034 4250 
Q 1547 4250 1301 3770 
Q 1056 3291 1056 2328 
Q 1056 1369 1301 889 
Q 1547 409 2034 409 
Q 2525 409 2770 889 
Q 3016 1369 3016 2328 
Q 3016 3291 2770 3770 
Q 2525 4250 2034 4250 
z
M 2034 4750 
Q 2819 4750 3233 4129 
Q 3647 3509 3647 2328 
Q 3647 1150 3233 529 
Q 2819 -91 2034 -91 
Q 1250 -91 836 529 
Q 422 1150 422 2328 
Q 422 3509 836 4129 
Q 1250 4750 2034 4750 
z
" transform="scale(0.015625)"/>
        <path id="DejaVuSans-34" d="M 2419 4116 
L 825 1625 
L 2419 1625 
L 2419 4116 
z
M 2253 4666 
L 3047 4666 
L 3047 1625 
L 3713 1625 
L 3713 1100 
L 3047 1100 
L 3047 0 
L 2419 0 
L 2419 1100 
L 313 1100 
L 313 1709 
L 2253 4666 
z
" transform="scale(0.015625)"/>
       </defs>
       <use xlink:href="#DejaVuSans-31" transform="translate(0 0.684375)"/>
       <use xlink:href="#DejaVuSans-30" transform="translate(63.623047 0.684375)"/>
       <use xlink:href="#DejaVuSans-31" transform="translate(128.203125 38.965625) scale(0.7)"/>
       <use xlink:href="#DejaVuSans-34" transform="translate(172.739258 38.965625) scale(0.7)"/>
      </g>
     </g>
    </g>
    <g id="xtick_2">
     <g id="line2d_3">
      <path d="M 154.59 419.277656 
L 154.59 31.197656 
" clip-path="url(#pa8d817cd59)" style="fill: none; stroke: #b0b0b0; stroke-opacity: 0.16; stroke-width: 0.8; stroke-linecap: square"/>
     </g>
     <g id="line2d_4">
      <g>
       <use xlink:href="#mde818e06b8" x="154.59" y="419.277656" style="stroke: #000000; stroke-width: 0.8"/>
      </g>
     </g>
     <g id="text_2">
      <!-- $\mathdefault{10^{15}}$ -->
      <g transform="translate(143.54 433.876094) scale(0.1 -0.1)">
       <defs>
        <path id="DejaVuSans-35" d="M 691 4666 
L 3169 4666 
L 3169 4134 
L 1269 4134 
L 1269 2991 
Q 1406 3038 1543 3061 
Q 1681 3084 1819 3084 
Q 2600 3084 3056 2656 
Q 3513 2228 3513 1497 
Q 3513 744 3044 326 
Q 2575 -91 1722 -91 
Q 1428 -91 1123 -41 
Q 819 9 494 109 
L 494 744 
Q 775 591 1075 516 
Q 1375 441 1709 441 
Q 2250 441 2565 725 
Q 2881 1009 2881 1497 
Q 2881 1984 2565 2268 
Q 2250 2553 1709 2553 
Q 1456 2553 1204 2497 
Q 953 2441 691 2322 
L 691 4666 
z
" transform="scale(0.015625)"/>
       </defs>
       <use xlink:href="#DejaVuSans-31" transform="translate(0 0.684375)"/>
       <use xlink:href="#DejaVuSans-30" transform="translate(63.623047 0.684375)"/>
       <use xlink:href="#DejaVuSans-31" transform="translate(128.203125 38.965625) scale(0.7)"/>
       <use xlink:href="#DejaVuSans-35" transform="translate(172.739258 38.965625) scale(0.7)"/>
      </g>
     </g>
    </g>
    <g id="xtick_3">
     <g id="line2d_5">
      <path d="M 255.03 419.277656 
L 255.03 31.197656 
" clip-path="url(#pa8d817cd59)" style="fill: none; stroke: #b0b0b0; stroke-opacity: 0.16; stroke-width: 0.8; stroke-linecap: square"/>
     </g>
     <g id="line2d_6">
      <g>
       <use xlink:href="#mde818e06b8" x="255.03" y="419.277656" style="stroke: #000000; stroke-width: 0.8"/>
      </g>
     </g>
     <g id="text_3">
      <!-- $\mathdefault{10^{16}}$ -->
      <g transform="translate(243.98 433.876094) scale(0.1 -0.1)">
       <defs>
        <path id="DejaVuSans-36" d="M 2113 2584 
Q 1688 2584 1439 2293 
Q 1191 2003 1191 1497 
Q 1191 994 1439 701 
Q 1688 409 2113 409 
Q 2538 409 2786 701 
Q 3034 994 3034 1497 
Q 3034 2003 2786 2293 
Q 2538 2584 2113 2584 
z
M 3366 4563 
L 3366 3988 
Q 3128 4100 2886 4159 
Q 2644 4219 2406 4219 
Q 1781 4219 1451 3797 
Q 1122 3375 1075 2522 
Q 1259 2794 1537 2939 
Q 1816 3084 2150 3084 
Q 2853 3084 3261 2657 
Q 3669 2231 3669 1497 
Q 3669 778 3244 343 
Q 2819 -91 2113 -91 
Q 1303 -91 875 529 
Q 447 1150 447 2328 
Q 447 3434 972 4092 
Q 1497 4750 2381 4750 
Q 2619 4750 2861 4703 
Q 3103 4656 3366 4563 
z
" transform="scale(0.015625)"/>
       </defs>
       <use xlink:href="#DejaVuSans-31" transform="translate(0 0.765625)"/>
       <use xlink:href="#DejaVuSans-30" transform="translate(63.623047 0.765625)"/>
       <use xlink:href="#DejaVuSans-31" transform="translate(128.203125 39.046875) scale(0.7)"/>
       <use xlink:href="#DejaVuSans-36" transform="translate(172.739258 39.046875) scale(0.7)"/>
      </g>
     </g>
    </g>
    <g id="xtick_4">
     <g id="line2d_7">
      <path d="M 355.47 419.277656 
L 355.47 31.197656 
" clip-path="url(#pa8d817cd59)" style="fill: none; stroke: #b0b0b0; stroke-opacity: 0.16; stroke-width: 0.8; stroke-linecap: square"/>
     </g>
     <g id="line2d_8">
      <g>
       <use xlink:href="#mde818e06b8" x="355.47" y="419.277656" style="stroke: #000000; stroke-width: 0.8"/>
      </g>
     </g>
     <g id="text_4">
      <!-- $\mathdefault{10^{17}}$ -->
      <g transform="translate(344.42 433.876094) scale(0.1 -0.1)">
       <defs>
        <path id="DejaVuSans-37" d="M 525 4666 
L 3525 4666 
L 3525 4397 
L 1831 0 
L 1172 0 
L 2766 4134 
L 525 4134 
L 525 4666 
z
" transform="scale(0.015625)"/>
       </defs>
       <use xlink:href="#DejaVuSans-31" transform="translate(0 0.684375)"/>
       <use xlink:href="#DejaVuSans-30" transform="translate(63.623047 0.684375)"/>
       <use xlink:href="#DejaVuSans-31" transform="translate(128.203125 38.965625) scale(0.7)"/>
       <use xlink:href="#DejaVuSans-37" transform="translate(172.739258 38.965625) scale(0.7)"/>
      </g>
     </g>
    </g>
    <g id="xtick_5">
     <g id="line2d_9">
      <path d="M 455.91 419.277656 
L 455.91 31.197656 
" clip-path="url(#pa8d817cd59)" style="fill: none; stroke: #b0b0b0; stroke-opacity: 0.16; stroke-width: 0.8; stroke-linecap: square"/>
     </g>
     <g id="line2d_10">
      <g>
       <use xlink:href="#mde818e06b8" x="455.91" y="419.277656" style="stroke: #000000; stroke-width: 0.8"/>
      </g>
     </g>
     <g id="text_5">
      <!-- $\mathdefault{10^{18}}$ -->
      <g transform="translate(444.86 433.876094) scale(0.1 -0.1)">
       <defs>
        <path id="DejaVuSans-38" d="M 2034 2216 
Q 1584 2216 1326 1975 
Q 1069 1734 1069 1313 
Q 1069 891 1326 650 
Q 1584 409 2034 409 
Q 2484 409 2743 651 
Q 3003 894 3003 1313 
Q 3003 1734 2745 1975 
Q 2488 2216 2034 2216 
z
M 1403 2484 
Q 997 2584 770 2862 
Q 544 3141 544 3541 
Q 544 4100 942 4425 
Q 1341 4750 2034 4750 
Q 2731 4750 3128 4425 
Q 3525 4100 3525 3541 
Q 3525 3141 3298 2862 
Q 3072 2584 2669 2484 
Q 3125 2378 3379 2068 
Q 3634 1759 3634 1313 
Q 3634 634 3220 271 
Q 2806 -91 2034 -91 
Q 1263 -91 848 271 
Q 434 634 434 1313 
Q 434 1759 690 2068 
Q 947 2378 1403 2484 
z
M 1172 3481 
Q 1172 3119 1398 2916 
Q 1625 2713 2034 2713 
Q 2441 2713 2670 2916 
Q 2900 3119 2900 3481 
Q 2900 3844 2670 4047 
Q 2441 4250 2034 4250 
Q 1625 4250 1398 4047 
Q 1172 3844 1172 3481 
z
" transform="scale(0.015625)"/>
       </defs>
       <use xlink:href="#DejaVuSans-31" transform="translate(0 0.765625)"/>
       <use xlink:href="#DejaVuSans-30" transform="translate(63.623047 0.765625)"/>
       <use xlink:href="#DejaVuSans-31" transform="translate(128.203125 39.046875) scale(0.7)"/>
       <use xlink:href="#DejaVuSans-38" transform="translate(172.739258 39.046875) scale(0.7)"/>
      </g>
     </g>
    </g>
    <g id="xtick_6">
     <g id="line2d_11">
      <path d="M 556.35 419.277656 
L 556.35 31.197656 
" clip-path="url(#pa8d817cd59)" style="fill: none; stroke: #b0b0b0; stroke-opacity: 0.16; stroke-width: 0.8; stroke-linecap: square"/>
     </g>
     <g id="line2d_12">
      <g>
       <use xlink:href="#mde818e06b8" x="556.35" y="419.277656" style="stroke: #000000; stroke-width: 0.8"/>
      </g>
     </g>
     <g id="text_6">
      <!-- $\mathdefault{10^{19}}$ -->
      <g transform="translate(545.3 433.876094) scale(0.1 -0.1)">
       <defs>
        <path id="DejaVuSans-39" d="M 703 97 
L 703 672 
Q 941 559 1184 500 
Q 1428 441 1663 441 
Q 2288 441 2617 861 
Q 2947 1281 2994 2138 
Q 2813 1869 2534 1725 
Q 2256 1581 1919 1581 
Q 1219 1581 811 2004 
Q 403 2428 403 3163 
Q 403 3881 828 4315 
Q 1253 4750 1959 4750 
Q 2769 4750 3195 4129 
Q 3622 3509 3622 2328 
Q 3622 1225 3098 567 
Q 2575 -91 1691 -91 
Q 1453 -91 1209 -44 
Q 966 3 703 97 
z
M 1959 2075 
Q 2384 2075 2632 2365 
Q 2881 2656 2881 3163 
Q 2881 3666 2632 3958 
Q 2384 4250 1959 4250 
Q 1534 4250 1286 3958 
Q 1038 3666 1038 3163 
Q 1038 2656 1286 2365 
Q 1534 2075 1959 2075 
z
" transform="scale(0.015625)"/>
       </defs>
       <use xlink:href="#DejaVuSans-31" transform="translate(0 0.765625)"/>
       <use xlink:href="#DejaVuSans-30" transform="translate(63.623047 0.765625)"/>
       <use xlink:href="#DejaVuSans-31" transform="translate(128.203125 39.046875) scale(0.7)"/>
       <use xlink:href="#DejaVuSans-39" transform="translate(172.739258 39.046875) scale(0.7)"/>
      </g>
     </g>
    </g>
    <g id="xtick_7">
     <g id="line2d_13">
      <path d="M 656.79 419.277656 
L 656.79 31.197656 
" clip-path="url(#pa8d817cd59)" style="fill: none; stroke: #b0b0b0; stroke-opacity: 0.16; stroke-width: 0.8; stroke-linecap: square"/>
     </g>
     <g id="line2d_14">
      <g>
       <use xlink:href="#mde818e06b8" x="656.79" y="419.277656" style="stroke: #000000; stroke-width: 0.8"/>
      </g>
     </g>
     <g id="text_7">
      <!-- $\mathdefault{10^{20}}$ -->
      <g transform="translate(645.74 433.876094) scale(0.1 -0.1)">
       <defs>
        <path id="DejaVuSans-32" d="M 1228 531 
L 3431 531 
L 3431 0 
L 469 0 
L 469 531 
Q 828 903 1448 1529 
Q 2069 2156 2228 2338 
Q 2531 2678 2651 2914 
Q 2772 3150 2772 3378 
Q 2772 3750 2511 3984 
Q 2250 4219 1831 4219 
Q 1534 4219 1204 4116 
Q 875 4013 500 3803 
L 500 4441 
Q 881 4594 1212 4672 
Q 1544 4750 1819 4750 
Q 2544 4750 2975 4387 
Q 3406 4025 3406 3419 
Q 3406 3131 3298 2873 
Q 3191 2616 2906 2266 
Q 2828 2175 2409 1742 
Q 1991 1309 1228 531 
z
" transform="scale(0.015625)"/>
       </defs>
       <use xlink:href="#DejaVuSans-31" transform="translate(0 0.765625)"/>
       <use xlink:href="#DejaVuSans-30" transform="translate(63.623047 0.765625)"/>
       <use xlink:href="#DejaVuSans-32" transform="translate(128.203125 39.046875) scale(0.7)"/>
       <use xlink:href="#DejaVuSans-30" transform="translate(172.739258 39.046875) scale(0.7)"/>
      </g>
     </g>
    </g>
    <g id="xtick_8">
     <g id="line2d_15">
      <path d="M 84.385453 419.277656 
L 84.385453 31.197656 
" clip-path="url(#pa8d817cd59)" style="fill: none; stroke: #b0b0b0; stroke-opacity: 0.16; stroke-width: 0.8; stroke-linecap: square"/>
     </g>
     <g id="line2d_16">
      <defs>
       <path id="md8760c5e2e" d="M 0 0 
L 0 2 
" style="stroke: #000000; stroke-width: 0.6"/>
      </defs>
      <g>
       <use xlink:href="#md8760c5e2e" x="84.385453" y="419.277656" style="stroke: #000000; stroke-width: 0.6"/>
      </g>
     </g>
    </g>
    <g id="xtick_9">
     <g id="line2d_17">
      <path d="M 102.072059 419.277656 
L 102.072059 31.197656 
" clip-path="url(#pa8d817cd59)" style="fill: none; stroke: #b0b0b0; stroke-opacity: 0.16; stroke-width: 0.8; stroke-linecap: square"/>
     </g>
     <g id="line2d_18">
      <g>
       <use xlink:href="#md8760c5e2e" x="102.072059" y="419.277656" style="stroke: #000000; stroke-width: 0.6"/>
      </g>
     </g>
    </g>
    <g id="xtick_10">
     <g id="line2d_19">
      <path d="M 114.620906 419.277656 
L 114.620906 31.197656 
" clip-path="url(#pa8d817cd59)" style="fill: none; stroke: #b0b0b0; stroke-opacity: 0.16; stroke-width: 0.8; stroke-linecap: square"/>
     </g>
     <g id="line2d_20">
      <g>
       <use xlink:href="#md8760c5e2e" x="114.620906" y="419.277656" style="stroke: #000000; stroke-width: 0.6"/>
      </g>
     </g>
    </g>
    <g id="xtick_11">
     <g id="line2d_21">
      <path d="M 124.354547 419.277656 
L 124.354547 31.197656 
" clip-path="url(#pa8d817cd59)" style="fill: none; stroke: #b0b0b0; stroke-opacity: 0.16; stroke-width: 0.8; stroke-linecap: square"/>
     </g>
     <g id="line2d_22">
      <g>
       <use xlink:href="#md8760c5e2e" x="124.354547" y="419.277656" style="stroke: #000000; stroke-width: 0.6"/>
      </g>
     </g>
    </g>
    <g id="xtick_12">
     <g id="line2d_23">
      <path d="M 132.307512 419.277656 
L 132.307512 31.197656 
" clip-path="url(#pa8d817cd59)" style="fill: none; stroke: #b0b0b0; stroke-opacity: 0.16; stroke-width: 0.8; stroke-linecap: square"/>
     </g>
     <g id="line2d_24">
      <g>
       <use xlink:href="#md8760c5e2e" x="132.307512" y="419.277656" style="stroke: #000000; stroke-width: 0.6"/>
      </g>
     </g>
    </g>
    <g id="xtick_13">
     <g id="line2d_25">
      <path d="M 139.031647 419.277656 
L 139.031647 31.197656 
" clip-path="url(#pa8d817cd59)" style="fill: none; stroke: #b0b0b0; stroke-opacity: 0.16; stroke-width: 0.8; stroke-linecap: square"/>
     </g>
     <g id="line2d_26">
      <g>
       <use xlink:href="#md8760c5e2e" x="139.031647" y="419.277656" style="stroke: #000000; stroke-width: 0.6"/>
      </g>
     </g>
    </g>
    <g id="xtick_14">
     <g id="line2d_27">
      <path d="M 144.856358 419.277656 
L 144.856358 31.197656 
" clip-path="url(#pa8d817cd59)" style="fill: none; stroke: #b0b0b0; stroke-opacity: 0.16; stroke-width: 0.8; stroke-linecap: square"/>
     </g>
     <g id="line2d_28">
      <g>
       <use xlink:href="#md8760c5e2e" x="144.856358" y="419.277656" style="stroke: #000000; stroke-width: 0.6"/>
      </g>
     </g>
    </g>
    <g id="xtick_15">
     <g id="line2d_29">
      <path d="M 149.994118 419.277656 
L 149.994118 31.197656 
" clip-path="url(#pa8d817cd59)" style="fill: none; stroke: #b0b0b0; stroke-opacity: 0.16; stroke-width: 0.8; stroke-linecap: square"/>
     </g>
     <g id="line2d_30">
      <g>
       <use xlink:href="#md8760c5e2e" x="149.994118" y="419.277656" style="stroke: #000000; stroke-width: 0.6"/>
      </g>
     </g>
    </g>
    <g id="xtick_16">
     <g id="line2d_31">
      <path d="M 184.825453 419.277656 
L 184.825453 31.197656 
" clip-path="url(#pa8d817cd59)" style="fill: none; stroke: #b0b0b0; stroke-opacity: 0.16; stroke-width: 0.8; stroke-linecap: square"/>
     </g>
     <g id="line2d_32">
      <g>
       <use xlink:href="#md8760c5e2e" x="184.825453" y="419.277656" style="stroke: #000000; stroke-width: 0.6"/>
      </g>
     </g>
    </g>
    <g id="xtick_17">
     <g id="line2d_33">
      <path d="M 202.512059 419.277656 
L 202.512059 31.197656 
" clip-path="url(#pa8d817cd59)" style="fill: none; stroke: #b0b0b0; stroke-opacity: 0.16; stroke-width: 0.8; stroke-linecap: square"/>
     </g>
     <g id="line2d_34">
      <g>
       <use xlink:href="#md8760c5e2e" x="202.512059" y="419.277656" style="stroke: #000000; stroke-width: 0.6"/>
      </g>
     </g>
    </g>
    <g id="xtick_18">
     <g id="line2d_35">
      <path d="M 215.060906 419.277656 
L 215.060906 31.197656 
" clip-path="url(#pa8d817cd59)" style="fill: none; stroke: #b0b0b0; stroke-opacity: 0.16; stroke-width: 0.8; stroke-linecap: square"/>
     </g>
     <g id="line2d_36">
      <g>
       <use xlink:href="#md8760c5e2e" x="215.060906" y="419.277656" style="stroke: #000000; stroke-width: 0.6"/>
      </g>
     </g>
    </g>
    <g id="xtick_19">
     <g id="line2d_37">
      <path d="M 224.794547 419.277656 
L 224.794547 31.197656 
" clip-path="url(#pa8d817cd59)" style="fill: none; stroke: #b0b0b0; stroke-opacity: 0.16; stroke-width: 0.8; stroke-linecap: square"/>
     </g>
     <g id="line2d_38">
      <g>
       <use xlink:href="#md8760c5e2e" x="224.794547" y="419.277656" style="stroke: #000000; stroke-width: 0.6"/>
      </g>
     </g>
    </g>
    <g id="xtick_20">
     <g id="line2d_39">
      <path d="M 232.747512 419.277656 
L 232.747512 31.197656 
" clip-path="url(#pa8d817cd59)" style="fill: none; stroke: #b0b0b0; stroke-opacity: 0.16; stroke-width: 0.8; stroke-linecap: square"/>
     </g>
     <g id="line2d_40">
      <g>
       <use xlink:href="#md8760c5e2e" x="232.747512" y="419.277656" style="stroke: #000000; stroke-width: 0.6"/>
      </g>
     </g>
    </g>
    <g id="xtick_21">
     <g id="line2d_41">
      <path d="M 239.471647 419.277656 
L 239.471647 31.197656 
" clip-path="url(#pa8d817cd59)" style="fill: none; stroke: #b0b0b0; stroke-opacity: 0.16; stroke-width: 0.8; stroke-linecap: square"/>
     </g>
     <g id="line2d_42">
      <g>
       <use xlink:href="#md8760c5e2e" x="239.471647" y="419.277656" style="stroke: #000000; stroke-width: 0.6"/>
      </g>
     </g>
    </g>
    <g id="xtick_22">
     <g id="line2d_43">
      <path d="M 245.296358 419.277656 
L 245.296358 31.197656 
" clip-path="url(#pa8d817cd59)" style="fill: none; stroke: #b0b0b0; stroke-opacity: 0.16; stroke-width: 0.8; stroke-linecap: square"/>
     </g>
     <g id="line2d_44">
      <g>
       <use xlink:href="#md8760c5e2e" x="245.296358" y="419.277656" style="stroke: #000000; stroke-width: 0.6"/>
      </g>
     </g>
    </g>
    <g id="xtick_23">
     <g id="line2d_45">
      <path d="M 250.434118 419.277656 
L 250.434118 31.197656 
" clip-path="url(#pa8d817cd59)" style="fill: none; stroke: #b0b0b0; stroke-opacity: 0.16; stroke-width: 0.8; stroke-linecap: square"/>
     </g>
     <g id="line2d_46">
      <g>
       <use xlink:href="#md8760c5e2e" x="250.434118" y="419.277656" style="stroke: #000000; stroke-width: 0.6"/>
      </g>
     </g>
    </g>
    <g id="xtick_24">
     <g id="line2d_47">
      <path d="M 285.265453 419.277656 
L 285.265453 31.197656 
" clip-path="url(#pa8d817cd59)" style="fill: none; stroke: #b0b0b0; stroke-opacity: 0.16; stroke-width: 0.8; stroke-linecap: square"/>
     </g>
     <g id="line2d_48">
      <g>
       <use xlink:href="#md8760c5e2e" x="285.265453" y="419.277656" style="stroke: #000000; stroke-width: 0.6"/>
      </g>
     </g>
    </g>
    <g id="xtick_25">
     <g id="line2d_49">
      <path d="M 302.952059 419.277656 
L 302.952059 31.197656 
" clip-path="url(#pa8d817cd59)" style="fill: none; stroke: #b0b0b0; stroke-opacity: 0.16; stroke-width: 0.8; stroke-linecap: square"/>
     </g>
     <g id="line2d_50">
      <g>
       <use xlink:href="#md8760c5e2e" x="302.952059" y="419.277656" style="stroke: #000000; stroke-width: 0.6"/>
      </g>
     </g>
    </g>
    <g id="xtick_26">
     <g id="line2d_51">
      <path d="M 315.500906 419.277656 
L 315.500906 31.197656 
" clip-path="url(#pa8d817cd59)" style="fill: none; stroke: #b0b0b0; stroke-opacity: 0.16; stroke-width: 0.8; stroke-linecap: square"/>
     </g>
     <g id="line2d_52">
      <g>
       <use xlink:href="#md8760c5e2e" x="315.500906" y="419.277656" style="stroke: #000000; stroke-width: 0.6"/>
      </g>
     </g>
    </g>
    <g id="xtick_27">
     <g id="line2d_53">
      <path d="M 325.234547 419.277656 
L 325.234547 31.197656 
" clip-path="url(#pa8d817cd59)" style="fill: none; stroke: #b0b0b0; stroke-opacity: 0.16; stroke-width: 0.8; stroke-linecap: square"/>
     </g>
     <g id="line2d_54">
      <g>
       <use xlink:href="#md8760c5e2e" x="325.234547" y="419.277656" style="stroke: #000000; stroke-width: 0.6"/>
      </g>
     </g>
    </g>
    <g id="xtick_28">
     <g id="line2d_55">
      <path d="M 333.187512 419.277656 
L 333.187512 31.197656 
" clip-path="url(#pa8d817cd59)" style="fill: none; stroke: #b0b0b0; stroke-opacity: 0.16; stroke-width: 0.8; stroke-linecap: square"/>
     </g>
     <g id="line2d_56">
      <g>
       <use xlink:href="#md8760c5e2e" x="333.187512" y="419.277656" style="stroke: #000000; stroke-width: 0.6"/>
      </g>
     </g>
    </g>
    <g id="xtick_29">
     <g id="line2d_57">
      <path d="M 339.911647 419.277656 
L 339.911647 31.197656 
" clip-path="url(#pa8d817cd59)" style="fill: none; stroke: #b0b0b0; stroke-opacity: 0.16; stroke-width: 0.8; stroke-linecap: square"/>
     </g>
     <g id="line2d_58">
      <g>
       <use xlink:href="#md8760c5e2e" x="339.911647" y="419.277656" style="stroke: #000000; stroke-width: 0.6"/>
      </g>
     </g>
    </g>
    <g id="xtick_30">
     <g id="line2d_59">
      <path d="M 345.736358 419.277656 
L 345.736358 31.197656 
" clip-path="url(#pa8d817cd59)" style="fill: none; stroke: #b0b0b0; stroke-opacity: 0.16; stroke-width: 0.8; stroke-linecap: square"/>
     </g>
     <g id="line2d_60">
      <g>
       <use xlink:href="#md8760c5e2e" x="345.736358" y="419.277656" style="stroke: #000000; stroke-width: 0.6"/>
      </g>
     </g>
    </g>
    <g id="xtick_31">
     <g id="line2d_61">
      <path d="M 350.874118 419.277656 
L 350.874118 31.197656 
" clip-path="url(#pa8d817cd59)" style="fill: none; stroke: #b0b0b0; stroke-opacity: 0.16; stroke-width: 0.8; stroke-linecap: square"/>
     </g>
     <g id="line2d_62">
      <g>
       <use xlink:href="#md8760c5e2e" x="350.874118" y="419.277656" style="stroke: #000000; stroke-width: 0.6"/>
      </g>
     </g>
    </g>
    <g id="xtick_32">
     <g id="line2d_63">
      <path d="M 385.705453 419.277656 
L 385.705453 31.197656 
" clip-path="url(#pa8d817cd59)" style="fill: none; stroke: #b0b0b0; stroke-opacity: 0.16; stroke-width: 0.8; stroke-linecap: square"/>
     </g>
     <g id="line2d_64">
      <g>
       <use xlink:href="#md8760c5e2e" x="385.705453" y="419.277656" style="stroke: #000000; stroke-width: 0.6"/>
      </g>
     </g>
    </g>
    <g id="xtick_33">
     <g id="line2d_65">
      <path d="M 403.392059 419.277656 
L 403.392059 31.197656 
" clip-path="url(#pa8d817cd59)" style="fill: none; stroke: #b0b0b0; stroke-opacity: 0.16; stroke-width: 0.8; stroke-linecap: square"/>
     </g>
     <g id="line2d_66">
      <g>
       <use xlink:href="#md8760c5e2e" x="403.392059" y="419.277656" style="stroke: #000000; stroke-width: 0.6"/>
      </g>
     </g>
    </g>
    <g id="xtick_34">
     <g id="line2d_67">
      <path d="M 415.940906 419.277656 
L 415.940906 31.197656 
" clip-path="url(#pa8d817cd59)" style="fill: none; stroke: #b0b0b0; stroke-opacity: 0.16; stroke-width: 0.8; stroke-linecap: square"/>
     </g>
     <g id="line2d_68">
      <g>
       <use xlink:href="#md8760c5e2e" x="415.940906" y="419.277656" style="stroke: #000000; stroke-width: 0.6"/>
      </g>
     </g>
    </g>
    <g id="xtick_35">
     <g id="line2d_69">
      <path d="M 425.674547 419.277656 
L 425.674547 31.197656 
" clip-path="url(#pa8d817cd59)" style="fill: none; stroke: #b0b0b0; stroke-opacity: 0.16; stroke-width: 0.8; stroke-linecap: square"/>
     </g>
     <g id="line2d_70">
      <g>
       <use xlink:href="#md8760c5e2e" x="425.674547" y="419.277656" style="stroke: #000000; stroke-width: 0.6"/>
      </g>
     </g>
    </g>
    <g id="xtick_36">
     <g id="line2d_71">
      <path d="M 433.627512 419.277656 
L 433.627512 31.197656 
" clip-path="url(#pa8d817cd59)" style="fill: none; stroke: #b0b0b0; stroke-opacity: 0.16; stroke-width: 0.8; stroke-linecap: square"/>
     </g>
     <g id="line2d_72">
      <g>
       <use xlink:href="#md8760c5e2e" x="433.627512" y="419.277656" style="stroke: #000000; stroke-width: 0.6"/>
      </g>
     </g>
    </g>
    <g id="xtick_37">
     <g id="line2d_73">
      <path d="M 440.351647 419.277656 
L 440.351647 31.197656 
" clip-path="url(#pa8d817cd59)" style="fill: none; stroke: #b0b0b0; stroke-opacity: 0.16; stroke-width: 0.8; stroke-linecap: square"/>
     </g>
     <g id="line2d_74">
      <g>
       <use xlink:href="#md8760c5e2e" x="440.351647" y="419.277656" style="stroke: #000000; stroke-width: 0.6"/>
      </g>
     </g>
    </g>
    <g id="xtick_38">
     <g id="line2d_75">
      <path d="M 446.176358 419.277656 
L 446.176358 31.197656 
" clip-path="url(#pa8d817cd59)" style="fill: none; stroke: #b0b0b0; stroke-opacity: 0.16; stroke-width: 0.8; stroke-linecap: square"/>
     </g>
     <g id="line2d_76">
      <g>
       <use xlink:href="#md8760c5e2e" x="446.176358" y="419.277656" style="stroke: #000000; stroke-width: 0.6"/>
      </g>
     </g>
    </g>
    <g id="xtick_39">
     <g id="line2d_77">
      <path d="M 451.314118 419.277656 
L 451.314118 31.197656 
" clip-path="url(#pa8d817cd59)" style="fill: none; stroke: #b0b0b0; stroke-opacity: 0.16; stroke-width: 0.8; stroke-linecap: square"/>
     </g>
     <g id="line2d_78">
      <g>
       <use xlink:href="#md8760c5e2e" x="451.314118" y="419.277656" style="stroke: #000000; stroke-width: 0.6"/>
      </g>
     </g>
    </g>
    <g id="xtick_40">
     <g id="line2d_79">
      <path d="M 486.145453 419.277656 
L 486.145453 31.197656 
" clip-path="url(#pa8d817cd59)" style="fill: none; stroke: #b0b0b0; stroke-opacity: 0.16; stroke-width: 0.8; stroke-linecap: square"/>
     </g>
     <g id="line2d_80">
      <g>
       <use xlink:href="#md8760c5e2e" x="486.145453" y="419.277656" style="stroke: #000000; stroke-width: 0.6"/>
      </g>
     </g>
    </g>
    <g id="xtick_41">
     <g id="line2d_81">
      <path d="M 503.832059 419.277656 
L 503.832059 31.197656 
" clip-path="url(#pa8d817cd59)" style="fill: none; stroke: #b0b0b0; stroke-opacity: 0.16; stroke-width: 0.8; stroke-linecap: square"/>
     </g>
     <g id="line2d_82">
      <g>
       <use xlink:href="#md8760c5e2e" x="503.832059" y="419.277656" style="stroke: #000000; stroke-width: 0.6"/>
      </g>
     </g>
    </g>
    <g id="xtick_42">
     <g id="line2d_83">
      <path d="M 516.380906 419.277656 
L 516.380906 31.197656 
" clip-path="url(#pa8d817cd59)" style="fill: none; stroke: #b0b0b0; stroke-opacity: 0.16; stroke-width: 0.8; stroke-linecap: square"/>
     </g>
     <g id="line2d_84">
      <g>
       <use xlink:href="#md8760c5e2e" x="516.380906" y="419.277656" style="stroke: #000000; stroke-width: 0.6"/>
      </g>
     </g>
    </g>
    <g id="xtick_43">
     <g id="line2d_85">
      <path d="M 526.114547 419.277656 
L 526.114547 31.197656 
" clip-path="url(#pa8d817cd59)" style="fill: none; stroke: #b0b0b0; stroke-opacity: 0.16; stroke-width: 0.8; stroke-linecap: square"/>
     </g>
     <g id="line2d_86">
      <g>
       <use xlink:href="#md8760c5e2e" x="526.114547" y="419.277656" style="stroke: #000000; stroke-width: 0.6"/>
      </g>
     </g>
    </g>
    <g id="xtick_44">
     <g id="line2d_87">
      <path d="M 534.067512 419.277656 
L 534.067512 31.197656 
" clip-path="url(#pa8d817cd59)" style="fill: none; stroke: #b0b0b0; stroke-opacity: 0.16; stroke-width: 0.8; stroke-linecap: square"/>
     </g>
     <g id="line2d_88">
      <g>
       <use xlink:href="#md8760c5e2e" x="534.067512" y="419.277656" style="stroke: #000000; stroke-width: 0.6"/>
      </g>
     </g>
    </g>
    <g id="xtick_45">
     <g id="line2d_89">
      <path d="M 540.791647 419.277656 
L 540.791647 31.197656 
" clip-path="url(#pa8d817cd59)" style="fill: none; stroke: #b0b0b0; stroke-opacity: 0.16; stroke-width: 0.8; stroke-linecap: square"/>
     </g>
     <g id="line2d_90">
      <g>
       <use xlink:href="#md8760c5e2e" x="540.791647" y="419.277656" style="stroke: #000000; stroke-width: 0.6"/>
      </g>
     </g>
    </g>
    <g id="xtick_46">
     <g id="line2d_91">
      <path d="M 546.616358 419.277656 
L 546.616358 31.197656 
" clip-path="url(#pa8d817cd59)" style="fill: none; stroke: #b0b0b0; stroke-opacity: 0.16; stroke-width: 0.8; stroke-linecap: square"/>
     </g>
     <g id="line2d_92">
      <g>
       <use xlink:href="#md8760c5e2e" x="546.616358" y="419.277656" style="stroke: #000000; stroke-width: 0.6"/>
      </g>
     </g>
    </g>
    <g id="xtick_47">
     <g id="line2d_93">
      <path d="M 551.754118 419.277656 
L 551.754118 31.197656 
" clip-path="url(#pa8d817cd59)" style="fill: none; stroke: #b0b0b0; stroke-opacity: 0.16; stroke-width: 0.8; stroke-linecap: square"/>
     </g>
     <g id="line2d_94">
      <g>
       <use xlink:href="#md8760c5e2e" x="551.754118" y="419.277656" style="stroke: #000000; stroke-width: 0.6"/>
      </g>
     </g>
    </g>
    <g id="xtick_48">
     <g id="line2d_95">
      <path d="M 586.585453 419.277656 
L 586.585453 31.197656 
" clip-path="url(#pa8d817cd59)" style="fill: none; stroke: #b0b0b0; stroke-opacity: 0.16; stroke-width: 0.8; stroke-linecap: square"/>
     </g>
     <g id="line2d_96">
      <g>
       <use xlink:href="#md8760c5e2e" x="586.585453" y="419.277656" style="stroke: #000000; stroke-width: 0.6"/>
      </g>
     </g>
    </g>
    <g id="xtick_49">
     <g id="line2d_97">
      <path d="M 604.272059 419.277656 
L 604.272059 31.197656 
" clip-path="url(#pa8d817cd59)" style="fill: none; stroke: #b0b0b0; stroke-opacity: 0.16; stroke-width: 0.8; stroke-linecap: square"/>
     </g>
     <g id="line2d_98">
      <g>
       <use xlink:href="#md8760c5e2e" x="604.272059" y="419.277656" style="stroke: #000000; stroke-width: 0.6"/>
      </g>
     </g>
    </g>
    <g id="xtick_50">
     <g id="line2d_99">
      <path d="M 616.820906 419.277656 
L 616.820906 31.197656 
" clip-path="url(#pa8d817cd59)" style="fill: none; stroke: #b0b0b0; stroke-opacity: 0.16; stroke-width: 0.8; stroke-linecap: square"/>
     </g>
     <g id="line2d_100">
      <g>
       <use xlink:href="#md8760c5e2e" x="616.820906" y="419.277656" style="stroke: #000000; stroke-width: 0.6"/>
      </g>
     </g>
    </g>
    <g id="xtick_51">
     <g id="line2d_101">
      <path d="M 626.554547 419.277656 
L 626.554547 31.197656 
" clip-path="url(#pa8d817cd59)" style="fill: none; stroke: #b0b0b0; stroke-opacity: 0.16; stroke-width: 0.8; stroke-linecap: square"/>
     </g>
     <g id="line2d_102">
      <g>
       <use xlink:href="#md8760c5e2e" x="626.554547" y="419.277656" style="stroke: #000000; stroke-width: 0.6"/>
      </g>
     </g>
    </g>
    <g id="xtick_52">
     <g id="line2d_103">
      <path d="M 634.507512 419.277656 
L 634.507512 31.197656 
" clip-path="url(#pa8d817cd59)" style="fill: none; stroke: #b0b0b0; stroke-opacity: 0.16; stroke-width: 0.8; stroke-linecap: square"/>
     </g>
     <g id="line2d_104">
      <g>
       <use xlink:href="#md8760c5e2e" x="634.507512" y="419.277656" style="stroke: #000000; stroke-width: 0.6"/>
      </g>
     </g>
    </g>
    <g id="xtick_53">
     <g id="line2d_105">
      <path d="M 641.231647 419.277656 
L 641.231647 31.197656 
" clip-path="url(#pa8d817cd59)" style="fill: none; stroke: #b0b0b0; stroke-opacity: 0.16; stroke-width: 0.8; stroke-linecap: square"/>
     </g>
     <g id="line2d_106">
      <g>
       <use xlink:href="#md8760c5e2e" x="641.231647" y="419.277656" style="stroke: #000000; stroke-width: 0.6"/>
      </g>
     </g>
    </g>
    <g id="xtick_54">
     <g id="line2d_107">
      <path d="M 647.056358 419.277656 
L 647.056358 31.197656 
" clip-path="url(#pa8d817cd59)" style="fill: none; stroke: #b0b0b0; stroke-opacity: 0.16; stroke-width: 0.8; stroke-linecap: square"/>
     </g>
     <g id="line2d_108">
      <g>
       <use xlink:href="#md8760c5e2e" x="647.056358" y="419.277656" style="stroke: #000000; stroke-width: 0.6"/>
      </g>
     </g>
    </g>
    <g id="xtick_55">
     <g id="line2d_109">
      <path d="M 652.194118 419.277656 
L 652.194118 31.197656 
" clip-path="url(#pa8d817cd59)" style="fill: none; stroke: #b0b0b0; stroke-opacity: 0.16; stroke-width: 0.8; stroke-linecap: square"/>
     </g>
     <g id="line2d_110">
      <g>
       <use xlink:href="#md8760c5e2e" x="652.194118" y="419.277656" style="stroke: #000000; stroke-width: 0.6"/>
      </g>
     </g>
    </g>
    <g id="text_8">
     <!-- concentrazione di drogante (cm$^{-3}$) -->
     <g transform="translate(268.17 449.055781) scale(0.1 -0.1)">
      <defs>
       <path id="DejaVuSans-63" d="M 3122 3366 
L 3122 2828 
Q 2878 2963 2633 3030 
Q 2388 3097 2138 3097 
Q 1578 3097 1268 2742 
Q 959 2388 959 1747 
Q 959 1106 1268 751 
Q 1578 397 2138 397 
Q 2388 397 2633 464 
Q 2878 531 3122 666 
L 3122 134 
Q 2881 22 2623 -34 
Q 2366 -91 2075 -91 
Q 1284 -91 818 406 
Q 353 903 353 1747 
Q 353 2603 823 3093 
Q 1294 3584 2113 3584 
Q 2378 3584 2631 3529 
Q 2884 3475 3122 3366 
z
" transform="scale(0.015625)"/>
       <path id="DejaVuSans-6f" d="M 1959 3097 
Q 1497 3097 1228 2736 
Q 959 2375 959 1747 
Q 959 1119 1226 758 
Q 1494 397 1959 397 
Q 2419 397 2687 759 
Q 2956 1122 2956 1747 
Q 2956 2369 2687 2733 
Q 2419 3097 1959 3097 
z
M 1959 3584 
Q 2709 3584 3137 3096 
Q 3566 2609 3566 1747 
Q 3566 888 3137 398 
Q 2709 -91 1959 -91 
Q 1206 -91 779 398 
Q 353 888 353 1747 
Q 353 2609 779 3096 
Q 1206 3584 1959 3584 
z
" transform="scale(0.015625)"/>
       <path id="DejaVuSans-6e" d="M 3513 2113 
L 3513 0 
L 2938 0 
L 2938 2094 
Q 2938 2591 2744 2837 
Q 2550 3084 2163 3084 
Q 1697 3084 1428 2787 
Q 1159 2491 1159 1978 
L 1159 0 
L 581 0 
L 581 3500 
L 1159 3500 
L 1159 2956 
Q 1366 3272 1645 3428 
Q 1925 3584 2291 3584 
Q 2894 3584 3203 3211 
Q 3513 2838 3513 2113 
z
" transform="scale(0.015625)"/>
       <path id="DejaVuSans-65" d="M 3597 1894 
L 3597 1613 
L 953 1613 
Q 991 1019 1311 708 
Q 1631 397 2203 397 
Q 2534 397 2845 478 
Q 3156 559 3463 722 
L 3463 178 
Q 3153 47 2828 -22 
Q 2503 -91 2169 -91 
Q 1331 -91 842 396 
Q 353 884 353 1716 
Q 353 2575 817 3079 
Q 1281 3584 2069 3584 
Q 2775 3584 3186 3129 
Q 3597 2675 3597 1894 
z
M 3022 2063 
Q 3016 2534 2758 2815 
Q 2500 3097 2075 3097 
Q 1594 3097 1305 2825 
Q 1016 2553 972 2059 
L 3022 2063 
z
" transform="scale(0.015625)"/>
       <path id="DejaVuSans-74" d="M 1172 4494 
L 1172 3500 
L 2356 3500 
L 2356 3053 
L 1172 3053 
L 1172 1153 
Q 1172 725 1289 603 
Q 1406 481 1766 481 
L 2356 481 
L 2356 0 
L 1766 0 
Q 1100 0 847 248 
Q 594 497 594 1153 
L 594 3053 
L 172 3053 
L 172 3500 
L 594 3500 
L 594 4494 
L 1172 4494 
z
" transform="scale(0.015625)"/>
       <path id="DejaVuSans-72" d="M 2631 2963 
Q 2534 3019 2420 3045 
Q 2306 3072 2169 3072 
Q 1681 3072 1420 2755 
Q 1159 2438 1159 1844 
L 1159 0 
L 581 0 
L 581 3500 
L 1159 3500 
L 1159 2956 
Q 1341 3275 1631 3429 
Q 1922 3584 2338 3584 
Q 2397 3584 2469 3576 
Q 2541 3569 2628 3553 
L 2631 2963 
z
" transform="scale(0.015625)"/>
       <path id="DejaVuSans-61" d="M 2194 1759 
Q 1497 1759 1228 1600 
Q 959 1441 959 1056 
Q 959 750 1161 570 
Q 1363 391 1709 391 
Q 2188 391 2477 730 
Q 2766 1069 2766 1631 
L 2766 1759 
L 2194 1759 
z
M 3341 1997 
L 3341 0 
L 2766 0 
L 2766 531 
Q 2569 213 2275 61 
Q 1981 -91 1556 -91 
Q 1019 -91 701 211 
Q 384 513 384 1019 
Q 384 1609 779 1909 
Q 1175 2209 1959 2209 
L 2766 2209 
L 2766 2266 
Q 2766 2663 2505 2880 
Q 2244 3097 1772 3097 
Q 1472 3097 1187 3025 
Q 903 2953 641 2809 
L 641 3341 
Q 956 3463 1253 3523 
Q 1550 3584 1831 3584 
Q 2591 3584 2966 3190 
Q 3341 2797 3341 1997 
z
" transform="scale(0.015625)"/>
       <path id="DejaVuSans-7a" d="M 353 3500 
L 3084 3500 
L 3084 2975 
L 922 459 
L 3084 459 
L 3084 0 
L 275 0 
L 275 525 
L 2438 3041 
L 353 3041 
L 353 3500 
z
" transform="scale(0.015625)"/>
       <path id="DejaVuSans-69" d="M 603 3500 
L 1178 3500 
L 1178 0 
L 603 0 
L 603 3500 
z
M 603 4863 
L 1178 4863 
L 1178 4134 
L 603 4134 
L 603 4863 
z
" transform="scale(0.015625)"/>
       <path id="DejaVuSans-20" transform="scale(0.015625)"/>
       <path id="DejaVuSans-64" d="M 2906 2969 
L 2906 4863 
L 3481 4863 
L 3481 0 
L 2906 0 
L 2906 525 
Q 2725 213 2448 61 
Q 2172 -91 1784 -91 
Q 1150 -91 751 415 
Q 353 922 353 1747 
Q 353 2572 751 3078 
Q 1150 3584 1784 3584 
Q 2172 3584 2448 3432 
Q 2725 3281 2906 2969 
z
M 947 1747 
Q 947 1113 1208 752 
Q 1469 391 1925 391 
Q 2381 391 2643 752 
Q 2906 1113 2906 1747 
Q 2906 2381 2643 2742 
Q 2381 3103 1925 3103 
Q 1469 3103 1208 2742 
Q 947 2381 947 1747 
z
" transform="scale(0.015625)"/>
       <path id="DejaVuSans-67" d="M 2906 1791 
Q 2906 2416 2648 2759 
Q 2391 3103 1925 3103 
Q 1463 3103 1205 2759 
Q 947 2416 947 1791 
Q 947 1169 1205 825 
Q 1463 481 1925 481 
Q 2391 481 2648 825 
Q 2906 1169 2906 1791 
z
M 3481 434 
Q 3481 -459 3084 -895 
Q 2688 -1331 1869 -1331 
Q 1566 -1331 1297 -1286 
Q 1028 -1241 775 -1147 
L 775 -588 
Q 1028 -725 1275 -790 
Q 1522 -856 1778 -856 
Q 2344 -856 2625 -561 
Q 2906 -266 2906 331 
L 2906 616 
Q 2728 306 2450 153 
Q 2172 0 1784 0 
Q 1141 0 747 490 
Q 353 981 353 1791 
Q 353 2603 747 3093 
Q 1141 3584 1784 3584 
Q 2172 3584 2450 3431 
Q 2728 3278 2906 2969 
L 2906 3500 
L 3481 3500 
L 3481 434 
z
" transform="scale(0.015625)"/>
       <path id="DejaVuSans-28" d="M 1984 4856 
Q 1566 4138 1362 3434 
Q 1159 2731 1159 2009 
Q 1159 1288 1364 580 
Q 1569 -128 1984 -844 
L 1484 -844 
Q 1016 -109 783 600 
Q 550 1309 550 2009 
Q 550 2706 781 3412 
Q 1013 4119 1484 4856 
L 1984 4856 
z
" transform="scale(0.015625)"/>
       <path id="DejaVuSans-6d" d="M 3328 2828 
Q 3544 3216 3844 3400 
Q 4144 3584 4550 3584 
Q 5097 3584 5394 3201 
Q 5691 2819 5691 2113 
L 5691 0 
L 5113 0 
L 5113 2094 
Q 5113 2597 4934 2840 
Q 4756 3084 4391 3084 
Q 3944 3084 3684 2787 
Q 3425 2491 3425 1978 
L 3425 0 
L 2847 0 
L 2847 2094 
Q 2847 2600 2669 2842 
Q 2491 3084 2119 3084 
Q 1678 3084 1418 2786 
Q 1159 2488 1159 1978 
L 1159 0 
L 581 0 
L 581 3500 
L 1159 3500 
L 1159 2956 
Q 1356 3278 1631 3431 
Q 1906 3584 2284 3584 
Q 2666 3584 2933 3390 
Q 3200 3197 3328 2828 
z
" transform="scale(0.015625)"/>
       <path id="DejaVuSans-2212" d="M 678 2272 
L 4684 2272 
L 4684 1741 
L 678 1741 
L 678 2272 
z
" transform="scale(0.015625)"/>
       <path id="DejaVuSans-33" d="M 2597 2516 
Q 3050 2419 3304 2112 
Q 3559 1806 3559 1356 
Q 3559 666 3084 287 
Q 2609 -91 1734 -91 
Q 1441 -91 1130 -33 
Q 819 25 488 141 
L 488 750 
Q 750 597 1062 519 
Q 1375 441 1716 441 
Q 2309 441 2620 675 
Q 2931 909 2931 1356 
Q 2931 1769 2642 2001 
Q 2353 2234 1838 2234 
L 1294 2234 
L 1294 2753 
L 1863 2753 
Q 2328 2753 2575 2939 
Q 2822 3125 2822 3475 
Q 2822 3834 2567 4026 
Q 2313 4219 1838 4219 
Q 1578 4219 1281 4162 
Q 984 4106 628 3988 
L 628 4550 
Q 988 4650 1302 4700 
Q 1616 4750 1894 4750 
Q 2613 4750 3031 4423 
Q 3450 4097 3450 3541 
Q 3450 3153 3228 2886 
Q 3006 2619 2597 2516 
z
" transform="scale(0.015625)"/>
       <path id="DejaVuSans-29" d="M 513 4856 
L 1013 4856 
Q 1481 4119 1714 3412 
Q 1947 2706 1947 2009 
Q 1947 1309 1714 600 
Q 1481 -109 1013 -844 
L 513 -844 
Q 928 -128 1133 580 
Q 1338 1288 1338 2009 
Q 1338 2731 1133 3434 
Q 928 4138 513 4856 
z
" transform="scale(0.015625)"/>
      </defs>
      <use xlink:href="#DejaVuSans-63" transform="translate(0 0.765625)"/>
      <use xlink:href="#DejaVuSans-6f" transform="translate(54.980469 0.765625)"/>
      <use xlink:href="#DejaVuSans-6e" transform="translate(116.162109 0.765625)"/>
      <use xlink:href="#DejaVuSans-63" transform="translate(179.541016 0.765625)"/>
      <use xlink:href="#DejaVuSans-65" transform="translate(234.521484 0.765625)"/>
      <use xlink:href="#DejaVuSans-6e" transform="translate(296.044922 0.765625)"/>
      <use xlink:href="#DejaVuSans-74" transform="translate(359.423828 0.765625)"/>
      <use xlink:href="#DejaVuSans-72" transform="translate(398.632812 0.765625)"/>
      <use xlink:href="#DejaVuSans-61" transform="translate(439.746094 0.765625)"/>
      <use xlink:href="#DejaVuSans-7a" transform="translate(501.025391 0.765625)"/>
      <use xlink:href="#DejaVuSans-69" transform="translate(553.515625 0.765625)"/>
      <use xlink:href="#DejaVuSans-6f" transform="translate(581.298828 0.765625)"/>
      <use xlink:href="#DejaVuSans-6e" transform="translate(642.480469 0.765625)"/>
      <use xlink:href="#DejaVuSans-65" transform="translate(705.859375 0.765625)"/>
      <use xlink:href="#DejaVuSans-20" transform="translate(767.382812 0.765625)"/>
      <use xlink:href="#DejaVuSans-64" transform="translate(799.169922 0.765625)"/>
      <use xlink:href="#DejaVuSans-69" transform="translate(862.646484 0.765625)"/>
      <use xlink:href="#DejaVuSans-20" transform="translate(890.429688 0.765625)"/>
      <use xlink:href="#DejaVuSans-64" transform="translate(922.216797 0.765625)"/>
      <use xlink:href="#DejaVuSans-72" transform="translate(985.693359 0.765625)"/>
      <use xlink:href="#DejaVuSans-6f" transform="translate(1026.806641 0.765625)"/>
      <use xlink:href="#DejaVuSans-67" transform="translate(1087.988281 0.765625)"/>
      <use xlink:href="#DejaVuSans-61" transform="translate(1151.464844 0.765625)"/>
      <use xlink:href="#DejaVuSans-6e" transform="translate(1212.744141 0.765625)"/>
      <use xlink:href="#DejaVuSans-74" transform="translate(1276.123047 0.765625)"/>
      <use xlink:href="#DejaVuSans-65" transform="translate(1315.332031 0.765625)"/>
      <use xlink:href="#DejaVuSans-20" transform="translate(1376.855469 0.765625)"/>
      <use xlink:href="#DejaVuSans-28" transform="translate(1408.642578 0.765625)"/>
      <use xlink:href="#DejaVuSans-63" transform="translate(1447.65625 0.765625)"/>
      <use xlink:href="#DejaVuSans-6d" transform="translate(1502.636719 0.765625)"/>
      <use xlink:href="#DejaVuSans-2212" transform="translate(1601.005859 39.046875) scale(0.7)"/>
      <use xlink:href="#DejaVuSans-33" transform="translate(1659.658203 39.046875) scale(0.7)"/>
      <use xlink:href="#DejaVuSans-29" transform="translate(1706.928711 0.765625)"/>
     </g>
    </g>
   </g>
   <g id="matplotlib.axis_2">
    <g id="ytick_1">
     <g id="line2d_111">
      <path d="M 54.15 419.277656 
L 656.79 419.277656 
" clip-path="url(#pa8d817cd59)" style="fill: none; stroke: #b0b0b0; stroke-opacity: 0.16; stroke-width: 0.8; stroke-linecap: square"/>
     </g>
     <g id="line2d_112">
      <defs>
       <path id="ma66e15fe53" d="M 0 0 
L -3.5 0 
" style="stroke: #000000; stroke-width: 0.8"/>
      </defs>
      <g>
       <use xlink:href="#ma66e15fe53" x="54.15" y="419.277656" style="stroke: #000000; stroke-width: 0.8"/>
      </g>
     </g>
     <g id="text_9">
      <!-- 0 -->
      <g transform="translate(40.7875 423.076875) scale(0.1 -0.1)">
       <use xlink:href="#DejaVuSans-30"/>
      </g>
     </g>
    </g>
    <g id="ytick_2">
     <g id="line2d_113">
      <path d="M 54.15 370.767656 
L 656.79 370.767656 
" clip-path="url(#pa8d817cd59)" style="fill: none; stroke: #b0b0b0; stroke-opacity: 0.16; stroke-width: 0.8; stroke-linecap: square"/>
     </g>
     <g id="line2d_114">
      <g>
       <use xlink:href="#ma66e15fe53" x="54.15" y="370.767656" style="stroke: #000000; stroke-width: 0.8"/>
      </g>
     </g>
     <g id="text_10">
      <!-- 200 -->
      <g transform="translate(28.0625 374.566875) scale(0.1 -0.1)">
       <use xlink:href="#DejaVuSans-32"/>
       <use xlink:href="#DejaVuSans-30" transform="translate(63.623047 0)"/>
       <use xlink:href="#DejaVuSans-30" transform="translate(127.246094 0)"/>
      </g>
     </g>
    </g>
    <g id="ytick_3">
     <g id="line2d_115">
      <path d="M 54.15 322.257656 
L 656.79 322.257656 
" clip-path="url(#pa8d817cd59)" style="fill: none; stroke: #b0b0b0; stroke-opacity: 0.16; stroke-width: 0.8; stroke-linecap: square"/>
     </g>
     <g id="line2d_116">
      <g>
       <use xlink:href="#ma66e15fe53" x="54.15" y="322.257656" style="stroke: #000000; stroke-width: 0.8"/>
      </g>
     </g>
     <g id="text_11">
      <!-- 400 -->
      <g transform="translate(28.0625 326.056875) scale(0.1 -0.1)">
       <use xlink:href="#DejaVuSans-34"/>
       <use xlink:href="#DejaVuSans-30" transform="translate(63.623047 0)"/>
       <use xlink:href="#DejaVuSans-30" transform="translate(127.246094 0)"/>
      </g>
     </g>
    </g>
    <g id="ytick_4">
     <g id="line2d_117">
      <path d="M 54.15 273.747656 
L 656.79 273.747656 
" clip-path="url(#pa8d817cd59)" style="fill: none; stroke: #b0b0b0; stroke-opacity: 0.16; stroke-width: 0.8; stroke-linecap: square"/>
     </g>
     <g id="line2d_118">
      <g>
       <use xlink:href="#ma66e15fe53" x="54.15" y="273.747656" style="stroke: #000000; stroke-width: 0.8"/>
      </g>
     </g>
     <g id="text_12">
      <!-- 600 -->
      <g transform="translate(28.0625 277.546875) scale(0.1 -0.1)">
       <use xlink:href="#DejaVuSans-36"/>
       <use xlink:href="#DejaVuSans-30" transform="translate(63.623047 0)"/>
       <use xlink:href="#DejaVuSans-30" transform="translate(127.246094 0)"/>
      </g>
     </g>
    </g>
    <g id="ytick_5">
     <g id="line2d_119">
      <path d="M 54.15 225.237656 
L 656.79 225.237656 
" clip-path="url(#pa8d817cd59)" style="fill: none; stroke: #b0b0b0; stroke-opacity: 0.16; stroke-width: 0.8; stroke-linecap: square"/>
     </g>
     <g id="line2d_120">
      <g>
       <use xlink:href="#ma66e15fe53" x="54.15" y="225.237656" style="stroke: #000000; stroke-width: 0.8"/>
      </g>
     </g>
     <g id="text_13">
      <!-- 800 -->
      <g transform="translate(28.0625 229.036875) scale(0.1 -0.1)">
       <use xlink:href="#DejaVuSans-38"/>
       <use xlink:href="#DejaVuSans-30" transform="translate(63.623047 0)"/>
       <use xlink:href="#DejaVuSans-30" transform="translate(127.246094 0)"/>
      </g>
     </g>
    </g>
    <g id="ytick_6">
     <g id="line2d_121">
      <path d="M 54.15 176.727656 
L 656.79 176.727656 
" clip-path="url(#pa8d817cd59)" style="fill: none; stroke: #b0b0b0; stroke-opacity: 0.16; stroke-width: 0.8; stroke-linecap: square"/>
     </g>
     <g id="line2d_122">
      <g>
       <use xlink:href="#ma66e15fe53" x="54.15" y="176.727656" style="stroke: #000000; stroke-width: 0.8"/>
      </g>
     </g>
     <g id="text_14">
      <!-- 1000 -->
      <g transform="translate(21.7 180.526875) scale(0.1 -0.1)">
       <use xlink:href="#DejaVuSans-31"/>
       <use xlink:href="#DejaVuSans-30" transform="translate(63.623047 0)"/>
       <use xlink:href="#DejaVuSans-30" transform="translate(127.246094 0)"/>
       <use xlink:href="#DejaVuSans-30" transform="translate(190.869141 0)"/>
      </g>
     </g>
    </g>
    <g id="ytick_7">
     <g id="line2d_123">
      <path d="M 54.15 128.217656 
L 656.79 128.217656 
" clip-path="url(#pa8d817cd59)" style="fill: none; stroke: #b0b0b0; stroke-opacity: 0.16; stroke-width: 0.8; stroke-linecap: square"/>
     </g>
     <g id="line2d_124">
      <g>
       <use xlink:href="#ma66e15fe53" x="54.15" y="128.217656" style="stroke: #000000; stroke-width: 0.8"/>
      </g>
     </g>
     <g id="text_15">
      <!-- 1200 -->
      <g transform="translate(21.7 132.016875) scale(0.1 -0.1)">
       <use xlink:href="#DejaVuSans-31"/>
       <use xlink:href="#DejaVuSans-32" transform="translate(63.623047 0)"/>
       <use xlink:href="#DejaVuSans-30" transform="translate(127.246094 0)"/>
       <use xlink:href="#DejaVuSans-30" transform="translate(190.869141 0)"/>
      </g>
     </g>
    </g>
    <g id="ytick_8">
     <g id="line2d_125">
      <path d="M 54.15 79.707656 
L 656.79 79.707656 
" clip-path="url(#pa8d817cd59)" style="fill: none; stroke: #b0b0b0; stroke-opacity: 0.16; stroke-width: 0.8; stroke-linecap: square"/>
     </g>
     <g id="line2d_126">
      <g>
       <use xlink:href="#ma66e15fe53" x="54.15" y="79.707656" style="stroke: #000000; stroke-width: 0.8"/>
      </g>
     </g>
     <g id="text_16">
      <!-- 1400 -->
      <g transform="translate(21.7 83.506875) scale(0.1 -0.1)">
       <use xlink:href="#DejaVuSans-31"/>
       <use xlink:href="#DejaVuSans-34" transform="translate(63.623047 0)"/>
       <use xlink:href="#DejaVuSans-30" transform="translate(127.246094 0)"/>
       <use xlink:href="#DejaVuSans-30" transform="translate(190.869141 0)"/>
      </g>
     </g>
    </g>
    <g id="ytick_9">
     <g id="line2d_127">
      <path d="M 54.15 31.197656 
L 656.79 31.197656 
" clip-path="url(#pa8d817cd59)" style="fill: none; stroke: #b0b0b0; stroke-opacity: 0.16; stroke-width: 0.8; stroke-linecap: square"/>
     </g>
     <g id="line2d_128">
      <g>
       <use xlink:href="#ma66e15fe53" x="54.15" y="31.197656" style="stroke: #000000; stroke-width: 0.8"/>
      </g>
     </g>
     <g id="text_17">
      <!-- 1600 -->
      <g transform="translate(21.7 34.996875) scale(0.1 -0.1)">
       <use xlink:href="#DejaVuSans-31"/>
       <use xlink:href="#DejaVuSans-36" transform="translate(63.623047 0)"/>
       <use xlink:href="#DejaVuSans-30" transform="translate(127.246094 0)"/>
       <use xlink:href="#DejaVuSans-30" transform="translate(190.869141 0)"/>
      </g>
     </g>
    </g>
    <g id="text_18">
     <!-- mobilità (cm$^2$ V$^{-1}$ s$^{-1}$) -->
     <g transform="translate(15.620312 280.987656) rotate(-90) scale(0.1 -0.1)">
      <defs>
       <path id="DejaVuSans-62" d="M 3116 1747 
Q 3116 2381 2855 2742 
Q 2594 3103 2138 3103 
Q 1681 3103 1420 2742 
Q 1159 2381 1159 1747 
Q 1159 1113 1420 752 
Q 1681 391 2138 391 
Q 2594 391 2855 752 
Q 3116 1113 3116 1747 
z
M 1159 2969 
Q 1341 3281 1617 3432 
Q 1894 3584 2278 3584 
Q 2916 3584 3314 3078 
Q 3713 2572 3713 1747 
Q 3713 922 3314 415 
Q 2916 -91 2278 -91 
Q 1894 -91 1617 61 
Q 1341 213 1159 525 
L 1159 0 
L 581 0 
L 581 4863 
L 1159 4863 
L 1159 2969 
z
" transform="scale(0.015625)"/>
       <path id="DejaVuSans-6c" d="M 603 4863 
L 1178 4863 
L 1178 0 
L 603 0 
L 603 4863 
z
" transform="scale(0.015625)"/>
       <path id="DejaVuSans-e0" d="M 2194 1759 
Q 1497 1759 1228 1600 
Q 959 1441 959 1056 
Q 959 750 1161 570 
Q 1363 391 1709 391 
Q 2188 391 2477 730 
Q 2766 1069 2766 1631 
L 2766 1759 
L 2194 1759 
z
M 3341 1997 
L 3341 0 
L 2766 0 
L 2766 531 
Q 2569 213 2275 61 
Q 1981 -91 1556 -91 
Q 1019 -91 701 211 
Q 384 513 384 1019 
Q 384 1609 779 1909 
Q 1175 2209 1959 2209 
L 2766 2209 
L 2766 2266 
Q 2766 2663 2505 2880 
Q 2244 3097 1772 3097 
Q 1472 3097 1187 3025 
Q 903 2953 641 2809 
L 641 3341 
Q 956 3463 1253 3523 
Q 1550 3584 1831 3584 
Q 2591 3584 2966 3190 
Q 3341 2797 3341 1997 
z
M 1403 5119 
L 2284 3950 
L 1806 3950 
L 787 5119 
L 1403 5119 
z
" transform="scale(0.015625)"/>
       <path id="DejaVuSans-56" d="M 1831 0 
L 50 4666 
L 709 4666 
L 2188 738 
L 3669 4666 
L 4325 4666 
L 2547 0 
L 1831 0 
z
" transform="scale(0.015625)"/>
       <path id="DejaVuSans-73" d="M 2834 3397 
L 2834 2853 
Q 2591 2978 2328 3040 
Q 2066 3103 1784 3103 
Q 1356 3103 1142 2972 
Q 928 2841 928 2578 
Q 928 2378 1081 2264 
Q 1234 2150 1697 2047 
L 1894 2003 
Q 2506 1872 2764 1633 
Q 3022 1394 3022 966 
Q 3022 478 2636 193 
Q 2250 -91 1575 -91 
Q 1294 -91 989 -36 
Q 684 19 347 128 
L 347 722 
Q 666 556 975 473 
Q 1284 391 1588 391 
Q 1994 391 2212 530 
Q 2431 669 2431 922 
Q 2431 1156 2273 1281 
Q 2116 1406 1581 1522 
L 1381 1569 
Q 847 1681 609 1914 
Q 372 2147 372 2553 
Q 372 3047 722 3315 
Q 1072 3584 1716 3584 
Q 2034 3584 2315 3537 
Q 2597 3491 2834 3397 
z
" transform="scale(0.015625)"/>
      </defs>
      <use xlink:href="#DejaVuSans-6d" transform="translate(0 0.765625)"/>
      <use xlink:href="#DejaVuSans-6f" transform="translate(97.412109 0.765625)"/>
      <use xlink:href="#DejaVuSans-62" transform="translate(158.59375 0.765625)"/>
      <use xlink:href="#DejaVuSans-69" transform="translate(222.070312 0.765625)"/>
      <use xlink:href="#DejaVuSans-6c" transform="translate(249.853516 0.765625)"/>
      <use xlink:href="#DejaVuSans-69" transform="translate(277.636719 0.765625)"/>
      <use xlink:href="#DejaVuSans-74" transform="translate(305.419922 0.765625)"/>
      <use xlink:href="#DejaVuSans-e0" transform="translate(344.628906 0.765625)"/>
      <use xlink:href="#DejaVuSans-20" transform="translate(405.908203 0.765625)"/>
      <use xlink:href="#DejaVuSans-28" transform="translate(437.695312 0.765625)"/>
      <use xlink:href="#DejaVuSans-63" transform="translate(476.708984 0.765625)"/>
      <use xlink:href="#DejaVuSans-6d" transform="translate(531.689453 0.765625)"/>
      <use xlink:href="#DejaVuSans-32" transform="translate(630.058594 39.046875) scale(0.7)"/>
      <use xlink:href="#DejaVuSans-20" transform="translate(677.329102 0.765625)"/>
      <use xlink:href="#DejaVuSans-56" transform="translate(709.116211 0.765625)"/>
      <use xlink:href="#DejaVuSans-2212" transform="translate(778.481445 39.046875) scale(0.7)"/>
      <use xlink:href="#DejaVuSans-31" transform="translate(837.133789 39.046875) scale(0.7)"/>
      <use xlink:href="#DejaVuSans-20" transform="translate(884.404297 0.765625)"/>
      <use xlink:href="#DejaVuSans-73" transform="translate(916.191406 0.765625)"/>
      <use xlink:href="#DejaVuSans-2212" transform="translate(969.248047 39.046875) scale(0.7)"/>
      <use xlink:href="#DejaVuSans-31" transform="translate(1027.900391 39.046875) scale(0.7)"/>
      <use xlink:href="#DejaVuSans-29" transform="translate(1075.170898 0.765625)"/>
     </g>
    </g>
   </g>
   <g id="line2d_129">
    <path d="M 54.15 77.379818 
L 71.578966 78.21224 
L 86.996897 79.171859 
L 100.403793 80.223149 
L 112.47 81.382228 
L 123.865862 82.700323 
L 133.921034 84.076474 
L 143.305862 85.570616 
L 152.020345 87.165674 
L 160.734828 88.987588 
L 168.778966 90.895675 
L 176.152759 92.857291 
L 183.526552 95.043243 
L 190.900345 97.475217 
L 197.603793 99.918749 
L 204.307241 102.602196 
L 211.01069 105.543758 
L 217.043793 108.427068 
L 223.076897 111.547738 
L 229.11 114.918889 
L 235.143103 118.553152 
L 241.176207 122.462393 
L 247.20931 126.657411 
L 253.242414 131.147605 
L 259.275517 135.940612 
L 265.308621 141.041935 
L 271.341724 146.45456 
L 277.374828 152.17858 
L 283.407931 158.210842 
L 289.441034 164.544634 
L 296.144483 171.922883 
L 302.847931 179.640054 
L 310.221724 188.488638 
L 318.265862 198.521016 
L 326.980345 209.758581 
L 337.705862 223.969949 
L 373.904483 272.271115 
L 382.618966 283.337653 
L 389.992759 292.369937 
L 397.366552 301.046452 
L 404.07 308.591963 
L 410.773448 315.787354 
L 416.806552 321.949616 
L 422.839655 327.806054 
L 428.872759 333.35203 
L 434.905862 338.586288 
L 440.938966 343.510623 
L 446.972069 348.129508 
L 453.005172 352.449713 
L 459.038276 356.47993 
L 465.071379 360.2304 
L 471.104483 363.712574 
L 477.137586 366.938789 
L 483.17069 369.921988 
L 489.203793 372.675464 
L 495.907241 375.481784 
L 502.61069 378.039406 
L 509.314138 380.366331 
L 516.687931 382.68033 
L 524.061724 384.758609 
L 532.105862 386.781769 
L 540.15 388.575189 
L 548.864483 390.286326 
L 558.24931 391.890394 
L 568.304483 393.368808 
L 579.03 394.709272 
L 590.425862 395.905501 
L 603.162414 397.00931 
L 617.239655 397.993878 
L 632.657586 398.844425 
L 650.086552 399.581765 
L 656.79 399.814157 
L 656.79 399.814157 
" clip-path="url(#pa8d817cd59)" style="fill: none; stroke: #1f77b4; stroke-width: 2.6; stroke-linecap: square"/>
   </g>
   <g id="line2d_130">
    <path d="M 54.15 304.114969 
L 78.952759 304.720709 
L 99.733448 305.44163 
L 117.832759 306.285542 
L 133.921034 307.254394 
L 148.668621 308.368171 
L 162.075517 309.60736 
L 174.141724 310.939956 
L 185.537586 312.415866 
L 196.263103 314.022146 
L 206.318276 315.739538 
L 216.373448 317.679621 
L 225.758276 319.705363 
L 235.143103 321.949761 
L 244.527931 324.420562 
L 253.912759 327.121526 
L 263.297586 330.051467 
L 273.352759 333.436711 
L 283.407931 337.059831 
L 294.133448 341.157364 
L 306.87 346.276973 
L 323.628621 353.286099 
L 354.464483 366.225646 
L 367.201034 371.295871 
L 377.926552 375.339508 
L 387.981724 378.904382 
L 398.036897 382.22626 
L 407.421724 385.094408 
L 416.806552 387.732716 
L 426.191379 390.141433 
L 435.576207 392.325498 
L 445.631379 394.426176 
L 455.686552 396.293094 
L 466.412069 398.04552 
L 477.137586 399.572635 
L 488.533448 400.973319 
L 500.599655 402.235951 
L 514.006552 403.408346 
L 528.083793 404.417615 
L 544.172069 405.341107 
L 562.271379 406.144811 
L 582.381724 406.812006 
L 606.514138 407.381195 
L 635.338966 407.831262 
L 656.79 408.055564 
L 656.79 408.055564 
" clip-path="url(#pa8d817cd59)" style="fill: none; stroke-dasharray: 8.88,3.84; stroke-dashoffset: 0; stroke: #ff7f0e; stroke-width: 2.4"/>
   </g>
   <g id="patch_3">
    <path d="M 54.15 419.277656 
L 54.15 31.197656 
" style="fill: none; stroke: #000000; stroke-width: 0.8; stroke-linejoin: miter; stroke-linecap: square"/>
   </g>
   <g id="patch_4">
    <path d="M 656.79 419.277656 
L 656.79 31.197656 
" style="fill: none; stroke: #000000; stroke-width: 0.8; stroke-linejoin: miter; stroke-linecap: square"/>
   </g>
   <g id="patch_5">
    <path d="M 54.15 419.277656 
L 656.79 419.277656 
" style="fill: none; stroke: #000000; stroke-width: 0.8; stroke-linejoin: miter; stroke-linecap: square"/>
   </g>
   <g id="patch_6">
    <path d="M 54.15 31.197656 
L 656.79 31.197656 
" style="fill: none; stroke: #000000; stroke-width: 0.8; stroke-linejoin: miter; stroke-linecap: square"/>
   </g>
   <g id="text_19">
    <!-- Si, T = 300 K -->
    <g transform="translate(65.59447 86.984156) scale(0.105 -0.105)">
     <defs>
      <path id="DejaVuSans-Bold-53" d="M 3834 4519 
L 3834 3531 
Q 3450 3703 3084 3790 
Q 2719 3878 2394 3878 
Q 1963 3878 1756 3759 
Q 1550 3641 1550 3391 
Q 1550 3203 1689 3098 
Q 1828 2994 2194 2919 
L 2706 2816 
Q 3484 2659 3812 2340 
Q 4141 2022 4141 1434 
Q 4141 663 3683 286 
Q 3225 -91 2284 -91 
Q 1841 -91 1394 -6 
Q 947 78 500 244 
L 500 1259 
Q 947 1022 1364 901 
Q 1781 781 2169 781 
Q 2563 781 2772 912 
Q 2981 1044 2981 1288 
Q 2981 1506 2839 1625 
Q 2697 1744 2272 1838 
L 1806 1941 
Q 1106 2091 782 2419 
Q 459 2747 459 3303 
Q 459 4000 909 4375 
Q 1359 4750 2203 4750 
Q 2588 4750 2994 4692 
Q 3400 4634 3834 4519 
z
" transform="scale(0.015625)"/>
      <path id="DejaVuSans-Bold-69" d="M 538 3500 
L 1656 3500 
L 1656 0 
L 538 0 
L 538 3500 
z
M 538 4863 
L 1656 4863 
L 1656 3950 
L 538 3950 
L 538 4863 
z
" transform="scale(0.015625)"/>
      <path id="DejaVuSans-Bold-2c" d="M 653 1209 
L 1778 1209 
L 1778 256 
L 1006 -909 
L 341 -909 
L 653 256 
L 653 1209 
z
" transform="scale(0.015625)"/>
      <path id="DejaVuSans-Bold-20" transform="scale(0.015625)"/>
      <path id="DejaVuSans-Bold-54" d="M 31 4666 
L 4331 4666 
L 4331 3756 
L 2784 3756 
L 2784 0 
L 1581 0 
L 1581 3756 
L 31 3756 
L 31 4666 
z
" transform="scale(0.015625)"/>
      <path id="DejaVuSans-Bold-3d" d="M 678 3084 
L 4684 3084 
L 4684 2350 
L 678 2350 
L 678 3084 
z
M 678 1663 
L 4684 1663 
L 4684 922 
L 678 922 
L 678 1663 
z
" transform="scale(0.015625)"/>
      <path id="DejaVuSans-Bold-33" d="M 2981 2516 
Q 3453 2394 3698 2092 
Q 3944 1791 3944 1325 
Q 3944 631 3412 270 
Q 2881 -91 1863 -91 
Q 1503 -91 1142 -33 
Q 781 25 428 141 
L 428 1069 
Q 766 900 1098 814 
Q 1431 728 1753 728 
Q 2231 728 2486 893 
Q 2741 1059 2741 1369 
Q 2741 1688 2480 1852 
Q 2219 2016 1709 2016 
L 1228 2016 
L 1228 2791 
L 1734 2791 
Q 2188 2791 2409 2933 
Q 2631 3075 2631 3366 
Q 2631 3634 2415 3781 
Q 2200 3928 1806 3928 
Q 1516 3928 1219 3862 
Q 922 3797 628 3669 
L 628 4550 
Q 984 4650 1334 4700 
Q 1684 4750 2022 4750 
Q 2931 4750 3382 4451 
Q 3834 4153 3834 3553 
Q 3834 3144 3618 2883 
Q 3403 2622 2981 2516 
z
" transform="scale(0.015625)"/>
      <path id="DejaVuSans-Bold-30" d="M 2944 2338 
Q 2944 3213 2780 3570 
Q 2616 3928 2228 3928 
Q 1841 3928 1675 3570 
Q 1509 3213 1509 2338 
Q 1509 1453 1675 1090 
Q 1841 728 2228 728 
Q 2613 728 2778 1090 
Q 2944 1453 2944 2338 
z
M 4147 2328 
Q 4147 1169 3647 539 
Q 3147 -91 2228 -91 
Q 1306 -91 806 539 
Q 306 1169 306 2328 
Q 306 3491 806 4120 
Q 1306 4750 2228 4750 
Q 3147 4750 3647 4120 
Q 4147 3491 4147 2328 
z
" transform="scale(0.015625)"/>
      <path id="DejaVuSans-Bold-4b" d="M 588 4666 
L 1791 4666 
L 1791 2963 
L 3525 4666 
L 4922 4666 
L 2675 2456 
L 5153 0 
L 3647 0 
L 1791 1838 
L 1791 0 
L 588 0 
L 588 4666 
z
" transform="scale(0.015625)"/>
     </defs>
     <use xlink:href="#DejaVuSans-Bold-53"/>
     <use xlink:href="#DejaVuSans-Bold-69" transform="translate(72.021484 0)"/>
     <use xlink:href="#DejaVuSans-Bold-2c" transform="translate(106.298828 0)"/>
     <use xlink:href="#DejaVuSans-Bold-20" transform="translate(144.287109 0)"/>
     <use xlink:href="#DejaVuSans-Bold-54" transform="translate(179.101562 0)"/>
     <use xlink:href="#DejaVuSans-Bold-20" transform="translate(247.314453 0)"/>
     <use xlink:href="#DejaVuSans-Bold-3d" transform="translate(282.128906 0)"/>
     <use xlink:href="#DejaVuSans-Bold-20" transform="translate(365.917969 0)"/>
     <use xlink:href="#DejaVuSans-Bold-33" transform="translate(400.732422 0)"/>
     <use xlink:href="#DejaVuSans-Bold-30" transform="translate(470.3125 0)"/>
     <use xlink:href="#DejaVuSans-Bold-30" transform="translate(539.892578 0)"/>
     <use xlink:href="#DejaVuSans-Bold-20" transform="translate(609.472656 0)"/>
     <use xlink:href="#DejaVuSans-Bold-4b" transform="translate(644.287109 0)"/>
    </g>
   </g>
   <g id="patch_7">
    <path d="M 365.618031 225.808784 
Q 430.091652 299.884844 493.904659 373.2019 
" style="fill: none; stroke: #000000; stroke-width: 0.9; stroke-linecap: round"/>
    <path d="M 492.876569 369.218054 
L 493.904659 373.2019 
L 490.100728 371.634064 
z
" style="fill: #1f77b4; stroke: #000000; stroke-width: 0.9; stroke-linecap: round"/>
   </g>
   <g id="text_20">
    <!-- scattering da impurità ionizzate -->
    <g transform="translate(285.265453 220.386656) scale(0.092 -0.092)">
     <defs>
      <path id="DejaVuSans-70" d="M 1159 525 
L 1159 -1331 
L 581 -1331 
L 581 3500 
L 1159 3500 
L 1159 2969 
Q 1341 3281 1617 3432 
Q 1894 3584 2278 3584 
Q 2916 3584 3314 3078 
Q 3713 2572 3713 1747 
Q 3713 922 3314 415 
Q 2916 -91 2278 -91 
Q 1894 -91 1617 61 
Q 1341 213 1159 525 
z
M 3116 1747 
Q 3116 2381 2855 2742 
Q 2594 3103 2138 3103 
Q 1681 3103 1420 2742 
Q 1159 2381 1159 1747 
Q 1159 1113 1420 752 
Q 1681 391 2138 391 
Q 2594 391 2855 752 
Q 3116 1113 3116 1747 
z
" transform="scale(0.015625)"/>
      <path id="DejaVuSans-75" d="M 544 1381 
L 544 3500 
L 1119 3500 
L 1119 1403 
Q 1119 906 1312 657 
Q 1506 409 1894 409 
Q 2359 409 2629 706 
Q 2900 1003 2900 1516 
L 2900 3500 
L 3475 3500 
L 3475 0 
L 2900 0 
L 2900 538 
Q 2691 219 2414 64 
Q 2138 -91 1772 -91 
Q 1169 -91 856 284 
Q 544 659 544 1381 
z
M 1991 3584 
L 1991 3584 
z
" transform="scale(0.015625)"/>
     </defs>
     <use xlink:href="#DejaVuSans-73"/>
     <use xlink:href="#DejaVuSans-63" transform="translate(52.099609 0)"/>
     <use xlink:href="#DejaVuSans-61" transform="translate(107.080078 0)"/>
     <use xlink:href="#DejaVuSans-74" transform="translate(168.359375 0)"/>
     <use xlink:href="#DejaVuSans-74" transform="translate(207.568359 0)"/>
     <use xlink:href="#DejaVuSans-65" transform="translate(246.777344 0)"/>
     <use xlink:href="#DejaVuSans-72" transform="translate(308.300781 0)"/>
     <use xlink:href="#DejaVuSans-69" transform="translate(349.414062 0)"/>
     <use xlink:href="#DejaVuSans-6e" transform="translate(377.197266 0)"/>
     <use xlink:href="#DejaVuSans-67" transform="translate(440.576172 0)"/>
     <use xlink:href="#DejaVuSans-20" transform="translate(504.052734 0)"/>
     <use xlink:href="#DejaVuSans-64" transform="translate(535.839844 0)"/>
     <use xlink:href="#DejaVuSans-61" transform="translate(599.316406 0)"/>
     <use xlink:href="#DejaVuSans-20" transform="translate(660.595703 0)"/>
     <use xlink:href="#DejaVuSans-69" transform="translate(692.382812 0)"/>
     <use xlink:href="#DejaVuSans-6d" transform="translate(720.166016 0)"/>
     <use xlink:href="#DejaVuSans-70" transform="translate(817.578125 0)"/>
     <use xlink:href="#DejaVuSans-75" transform="translate(881.054688 0)"/>
     <use xlink:href="#DejaVuSans-72" transform="translate(944.433594 0)"/>
     <use xlink:href="#DejaVuSans-69" transform="translate(985.546875 0)"/>
     <use xlink:href="#DejaVuSans-74" transform="translate(1013.330078 0)"/>
     <use xlink:href="#DejaVuSans-e0" transform="translate(1052.539062 0)"/>
     <use xlink:href="#DejaVuSans-20" transform="translate(1113.818359 0)"/>
     <use xlink:href="#DejaVuSans-69" transform="translate(1145.605469 0)"/>
     <use xlink:href="#DejaVuSans-6f" transform="translate(1173.388672 0)"/>
     <use xlink:href="#DejaVuSans-6e" transform="translate(1234.570312 0)"/>
     <use xlink:href="#DejaVuSans-69" transform="translate(1297.949219 0)"/>
     <use xlink:href="#DejaVuSans-7a" transform="translate(1325.732422 0)"/>
     <use xlink:href="#DejaVuSans-7a" transform="translate(1378.222656 0)"/>
     <use xlink:href="#DejaVuSans-61" transform="translate(1430.712891 0)"/>
     <use xlink:href="#DejaVuSans-74" transform="translate(1491.992188 0)"/>
     <use xlink:href="#DejaVuSans-65" transform="translate(1531.201172 0)"/>
    </g>
   </g>
   <g id="text_21">
    <!-- Mobilità di elettroni e lacune nel silicio drogato -->
    <g transform="translate(154.571953 19.197656) scale(0.15 -0.15)">
     <defs>
      <path id="DejaVuSans-Bold-4d" d="M 588 4666 
L 2119 4666 
L 3181 2169 
L 4250 4666 
L 5778 4666 
L 5778 0 
L 4641 0 
L 4641 3413 
L 3566 897 
L 2803 897 
L 1728 3413 
L 1728 0 
L 588 0 
L 588 4666 
z
" transform="scale(0.015625)"/>
      <path id="DejaVuSans-Bold-6f" d="M 2203 2784 
Q 1831 2784 1636 2517 
Q 1441 2250 1441 1747 
Q 1441 1244 1636 976 
Q 1831 709 2203 709 
Q 2569 709 2762 976 
Q 2956 1244 2956 1747 
Q 2956 2250 2762 2517 
Q 2569 2784 2203 2784 
z
M 2203 3584 
Q 3106 3584 3614 3096 
Q 4122 2609 4122 1747 
Q 4122 884 3614 396 
Q 3106 -91 2203 -91 
Q 1297 -91 786 396 
Q 275 884 275 1747 
Q 275 2609 786 3096 
Q 1297 3584 2203 3584 
z
" transform="scale(0.015625)"/>
      <path id="DejaVuSans-Bold-62" d="M 2400 722 
Q 2759 722 2948 984 
Q 3138 1247 3138 1747 
Q 3138 2247 2948 2509 
Q 2759 2772 2400 2772 
Q 2041 2772 1848 2508 
Q 1656 2244 1656 1747 
Q 1656 1250 1848 986 
Q 2041 722 2400 722 
z
M 1656 2988 
Q 1888 3294 2169 3439 
Q 2450 3584 2816 3584 
Q 3463 3584 3878 3070 
Q 4294 2556 4294 1747 
Q 4294 938 3878 423 
Q 3463 -91 2816 -91 
Q 2450 -91 2169 54 
Q 1888 200 1656 506 
L 1656 0 
L 538 0 
L 538 4863 
L 1656 4863 
L 1656 2988 
z
" transform="scale(0.015625)"/>
      <path id="DejaVuSans-Bold-6c" d="M 538 4863 
L 1656 4863 
L 1656 0 
L 538 0 
L 538 4863 
z
" transform="scale(0.015625)"/>
      <path id="DejaVuSans-Bold-74" d="M 1759 4494 
L 1759 3500 
L 2913 3500 
L 2913 2700 
L 1759 2700 
L 1759 1216 
Q 1759 972 1856 886 
Q 1953 800 2241 800 
L 2816 800 
L 2816 0 
L 1856 0 
Q 1194 0 917 276 
Q 641 553 641 1216 
L 641 2700 
L 84 2700 
L 84 3500 
L 641 3500 
L 641 4494 
L 1759 4494 
z
" transform="scale(0.015625)"/>
      <path id="DejaVuSans-Bold-e0" d="M 2106 1575 
Q 1756 1575 1579 1456 
Q 1403 1338 1403 1106 
Q 1403 894 1545 773 
Q 1688 653 1941 653 
Q 2256 653 2472 879 
Q 2688 1106 2688 1447 
L 2688 1575 
L 2106 1575 
z
M 3816 1997 
L 3816 0 
L 2688 0 
L 2688 519 
Q 2463 200 2181 54 
Q 1900 -91 1497 -91 
Q 953 -91 614 226 
Q 275 544 275 1050 
Q 275 1666 698 1953 
Q 1122 2241 2028 2241 
L 2688 2241 
L 2688 2328 
Q 2688 2594 2478 2717 
Q 2269 2841 1825 2841 
Q 1466 2841 1156 2769 
Q 847 2697 581 2553 
L 581 3406 
Q 941 3494 1303 3539 
Q 1666 3584 2028 3584 
Q 2975 3584 3395 3211 
Q 3816 2838 3816 1997 
z
M 1762 5119 
L 2643 3944 
L 2031 3944 
L 878 5119 
L 1762 5119 
z
" transform="scale(0.015625)"/>
      <path id="DejaVuSans-Bold-64" d="M 2919 2988 
L 2919 4863 
L 4044 4863 
L 4044 0 
L 2919 0 
L 2919 506 
Q 2688 197 2409 53 
Q 2131 -91 1766 -91 
Q 1119 -91 703 423 
Q 288 938 288 1747 
Q 288 2556 703 3070 
Q 1119 3584 1766 3584 
Q 2128 3584 2408 3439 
Q 2688 3294 2919 2988 
z
M 2181 722 
Q 2541 722 2730 984 
Q 2919 1247 2919 1747 
Q 2919 2247 2730 2509 
Q 2541 2772 2181 2772 
Q 1825 2772 1636 2509 
Q 1447 2247 1447 1747 
Q 1447 1247 1636 984 
Q 1825 722 2181 722 
z
" transform="scale(0.015625)"/>
      <path id="DejaVuSans-Bold-65" d="M 4031 1759 
L 4031 1441 
L 1416 1441 
Q 1456 1047 1700 850 
Q 1944 653 2381 653 
Q 2734 653 3104 758 
Q 3475 863 3866 1075 
L 3866 213 
Q 3469 63 3072 -14 
Q 2675 -91 2278 -91 
Q 1328 -91 801 392 
Q 275 875 275 1747 
Q 275 2603 792 3093 
Q 1309 3584 2216 3584 
Q 3041 3584 3536 3087 
Q 4031 2591 4031 1759 
z
M 2881 2131 
Q 2881 2450 2695 2645 
Q 2509 2841 2209 2841 
Q 1884 2841 1681 2658 
Q 1478 2475 1428 2131 
L 2881 2131 
z
" transform="scale(0.015625)"/>
      <path id="DejaVuSans-Bold-72" d="M 3138 2547 
Q 2991 2616 2845 2648 
Q 2700 2681 2553 2681 
Q 2122 2681 1889 2404 
Q 1656 2128 1656 1613 
L 1656 0 
L 538 0 
L 538 3500 
L 1656 3500 
L 1656 2925 
Q 1872 3269 2151 3426 
Q 2431 3584 2822 3584 
Q 2878 3584 2943 3579 
Q 3009 3575 3134 3559 
L 3138 2547 
z
" transform="scale(0.015625)"/>
      <path id="DejaVuSans-Bold-6e" d="M 4056 2131 
L 4056 0 
L 2931 0 
L 2931 347 
L 2931 1631 
Q 2931 2084 2911 2256 
Q 2891 2428 2841 2509 
Q 2775 2619 2662 2680 
Q 2550 2741 2406 2741 
Q 2056 2741 1856 2470 
Q 1656 2200 1656 1722 
L 1656 0 
L 538 0 
L 538 3500 
L 1656 3500 
L 1656 2988 
Q 1909 3294 2193 3439 
Q 2478 3584 2822 3584 
Q 3428 3584 3742 3212 
Q 4056 2841 4056 2131 
z
" transform="scale(0.015625)"/>
      <path id="DejaVuSans-Bold-61" d="M 2106 1575 
Q 1756 1575 1579 1456 
Q 1403 1338 1403 1106 
Q 1403 894 1545 773 
Q 1688 653 1941 653 
Q 2256 653 2472 879 
Q 2688 1106 2688 1447 
L 2688 1575 
L 2106 1575 
z
M 3816 1997 
L 3816 0 
L 2688 0 
L 2688 519 
Q 2463 200 2181 54 
Q 1900 -91 1497 -91 
Q 953 -91 614 226 
Q 275 544 275 1050 
Q 275 1666 698 1953 
Q 1122 2241 2028 2241 
L 2688 2241 
L 2688 2328 
Q 2688 2594 2478 2717 
Q 2269 2841 1825 2841 
Q 1466 2841 1156 2769 
Q 847 2697 581 2553 
L 581 3406 
Q 941 3494 1303 3539 
Q 1666 3584 2028 3584 
Q 2975 3584 3395 3211 
Q 3816 2838 3816 1997 
z
" transform="scale(0.015625)"/>
      <path id="DejaVuSans-Bold-63" d="M 3366 3391 
L 3366 2478 
Q 3138 2634 2908 2709 
Q 2678 2784 2431 2784 
Q 1963 2784 1702 2511 
Q 1441 2238 1441 1747 
Q 1441 1256 1702 982 
Q 1963 709 2431 709 
Q 2694 709 2930 787 
Q 3166 866 3366 1019 
L 3366 103 
Q 3103 6 2833 -42 
Q 2563 -91 2291 -91 
Q 1344 -91 809 395 
Q 275 881 275 1747 
Q 275 2613 809 3098 
Q 1344 3584 2291 3584 
Q 2566 3584 2833 3536 
Q 3100 3488 3366 3391 
z
" transform="scale(0.015625)"/>
      <path id="DejaVuSans-Bold-75" d="M 500 1363 
L 500 3500 
L 1625 3500 
L 1625 3150 
Q 1625 2866 1622 2436 
Q 1619 2006 1619 1863 
Q 1619 1441 1641 1255 
Q 1663 1069 1716 984 
Q 1784 875 1895 815 
Q 2006 756 2150 756 
Q 2500 756 2700 1025 
Q 2900 1294 2900 1772 
L 2900 3500 
L 4019 3500 
L 4019 0 
L 2900 0 
L 2900 506 
Q 2647 200 2364 54 
Q 2081 -91 1741 -91 
Q 1134 -91 817 281 
Q 500 653 500 1363 
z
" transform="scale(0.015625)"/>
      <path id="DejaVuSans-Bold-73" d="M 3272 3391 
L 3272 2541 
Q 2913 2691 2578 2766 
Q 2244 2841 1947 2841 
Q 1628 2841 1473 2761 
Q 1319 2681 1319 2516 
Q 1319 2381 1436 2309 
Q 1553 2238 1856 2203 
L 2053 2175 
Q 2913 2066 3209 1816 
Q 3506 1566 3506 1031 
Q 3506 472 3093 190 
Q 2681 -91 1863 -91 
Q 1516 -91 1145 -36 
Q 775 19 384 128 
L 384 978 
Q 719 816 1070 734 
Q 1422 653 1784 653 
Q 2113 653 2278 743 
Q 2444 834 2444 1013 
Q 2444 1163 2330 1236 
Q 2216 1309 1875 1350 
L 1678 1375 
Q 931 1469 631 1722 
Q 331 1975 331 2491 
Q 331 3047 712 3315 
Q 1094 3584 1881 3584 
Q 2191 3584 2531 3537 
Q 2872 3491 3272 3391 
z
" transform="scale(0.015625)"/>
      <path id="DejaVuSans-Bold-67" d="M 2919 594 
Q 2688 288 2409 144 
Q 2131 0 1766 0 
Q 1125 0 706 504 
Q 288 1009 288 1791 
Q 288 2575 706 3076 
Q 1125 3578 1766 3578 
Q 2131 3578 2409 3434 
Q 2688 3291 2919 2981 
L 2919 3500 
L 4044 3500 
L 4044 353 
Q 4044 -491 3511 -936 
Q 2978 -1381 1966 -1381 
Q 1638 -1381 1331 -1331 
Q 1025 -1281 716 -1178 
L 716 -306 
Q 1009 -475 1290 -558 
Q 1572 -641 1856 -641 
Q 2406 -641 2662 -400 
Q 2919 -159 2919 353 
L 2919 594 
z
M 2181 2772 
Q 1834 2772 1640 2515 
Q 1447 2259 1447 1791 
Q 1447 1309 1634 1061 
Q 1822 813 2181 813 
Q 2531 813 2725 1069 
Q 2919 1325 2919 1791 
Q 2919 2259 2725 2515 
Q 2531 2772 2181 2772 
z
" transform="scale(0.015625)"/>
     </defs>
     <use xlink:href="#DejaVuSans-Bold-4d"/>
     <use xlink:href="#DejaVuSans-Bold-6f" transform="translate(99.511719 0)"/>
     <use xlink:href="#DejaVuSans-Bold-62" transform="translate(168.212891 0)"/>
     <use xlink:href="#DejaVuSans-Bold-69" transform="translate(239.794922 0)"/>
     <use xlink:href="#DejaVuSans-Bold-6c" transform="translate(274.072266 0)"/>
     <use xlink:href="#DejaVuSans-Bold-69" transform="translate(308.349609 0)"/>
     <use xlink:href="#DejaVuSans-Bold-74" transform="translate(342.626953 0)"/>
     <use xlink:href="#DejaVuSans-Bold-e0" transform="translate(390.429688 0)"/>
     <use xlink:href="#DejaVuSans-Bold-20" transform="translate(457.910156 0)"/>
     <use xlink:href="#DejaVuSans-Bold-64" transform="translate(492.724609 0)"/>
     <use xlink:href="#DejaVuSans-Bold-69" transform="translate(564.306641 0)"/>
     <use xlink:href="#DejaVuSans-Bold-20" transform="translate(598.583984 0)"/>
     <use xlink:href="#DejaVuSans-Bold-65" transform="translate(633.398438 0)"/>
     <use xlink:href="#DejaVuSans-Bold-6c" transform="translate(701.220703 0)"/>
     <use xlink:href="#DejaVuSans-Bold-65" transform="translate(735.498047 0)"/>
     <use xlink:href="#DejaVuSans-Bold-74" transform="translate(803.320312 0)"/>
     <use xlink:href="#DejaVuSans-Bold-74" transform="translate(851.123047 0)"/>
     <use xlink:href="#DejaVuSans-Bold-72" transform="translate(898.925781 0)"/>
     <use xlink:href="#DejaVuSans-Bold-6f" transform="translate(948.242188 0)"/>
     <use xlink:href="#DejaVuSans-Bold-6e" transform="translate(1016.943359 0)"/>
     <use xlink:href="#DejaVuSans-Bold-69" transform="translate(1088.134766 0)"/>
     <use xlink:href="#DejaVuSans-Bold-20" transform="translate(1122.412109 0)"/>
     <use xlink:href="#DejaVuSans-Bold-65" transform="translate(1157.226562 0)"/>
     <use xlink:href="#DejaVuSans-Bold-20" transform="translate(1225.048828 0)"/>
     <use xlink:href="#DejaVuSans-Bold-6c" transform="translate(1259.863281 0)"/>
     <use xlink:href="#DejaVuSans-Bold-61" transform="translate(1294.140625 0)"/>
     <use xlink:href="#DejaVuSans-Bold-63" transform="translate(1361.621094 0)"/>
     <use xlink:href="#DejaVuSans-Bold-75" transform="translate(1420.898438 0)"/>
     <use xlink:href="#DejaVuSans-Bold-6e" transform="translate(1492.089844 0)"/>
     <use xlink:href="#DejaVuSans-Bold-65" transform="translate(1563.28125 0)"/>
     <use xlink:href="#DejaVuSans-Bold-20" transform="translate(1631.103516 0)"/>
     <use xlink:href="#DejaVuSans-Bold-6e" transform="translate(1665.917969 0)"/>
     <use xlink:href="#DejaVuSans-Bold-65" transform="translate(1737.109375 0)"/>
     <use xlink:href="#DejaVuSans-Bold-6c" transform="translate(1804.931641 0)"/>
     <use xlink:href="#DejaVuSans-Bold-20" transform="translate(1839.208984 0)"/>
     <use xlink:href="#DejaVuSans-Bold-73" transform="translate(1874.023438 0)"/>
     <use xlink:href="#DejaVuSans-Bold-69" transform="translate(1933.544922 0)"/>
     <use xlink:href="#DejaVuSans-Bold-6c" transform="translate(1967.822266 0)"/>
     <use xlink:href="#DejaVuSans-Bold-69" transform="translate(2002.099609 0)"/>
     <use xlink:href="#DejaVuSans-Bold-63" transform="translate(2036.376953 0)"/>
     <use xlink:href="#DejaVuSans-Bold-69" transform="translate(2095.654297 0)"/>
     <use xlink:href="#DejaVuSans-Bold-6f" transform="translate(2129.931641 0)"/>
     <use xlink:href="#DejaVuSans-Bold-20" transform="translate(2198.632812 0)"/>
     <use xlink:href="#DejaVuSans-Bold-64" transform="translate(2233.447266 0)"/>
     <use xlink:href="#DejaVuSans-Bold-72" transform="translate(2305.029297 0)"/>
     <use xlink:href="#DejaVuSans-Bold-6f" transform="translate(2354.345703 0)"/>
     <use xlink:href="#DejaVuSans-Bold-67" transform="translate(2423.046875 0)"/>
     <use xlink:href="#DejaVuSans-Bold-61" transform="translate(2494.628906 0)"/>
     <use xlink:href="#DejaVuSans-Bold-74" transform="translate(2562.109375 0)"/>
     <use xlink:href="#DejaVuSans-Bold-6f" transform="translate(2609.912109 0)"/>
    </g>
   </g>
   <g id="legend_1">
    <g id="line2d_131">
     <path d="M 577.744688 44.296094 
L 587.744688 44.296094 
L 597.744688 44.296094 
" style="fill: none; stroke: #1f77b4; stroke-width: 2.6; stroke-linecap: square"/>
    </g>
    <g id="text_22">
     <!-- elettroni -->
     <g transform="translate(605.744688 47.796094) scale(0.1 -0.1)">
      <use xlink:href="#DejaVuSans-65"/>
      <use xlink:href="#DejaVuSans-6c" transform="translate(61.523438 0)"/>
      <use xlink:href="#DejaVuSans-65" transform="translate(89.306641 0)"/>
      <use xlink:href="#DejaVuSans-74" transform="translate(150.830078 0)"/>
      <use xlink:href="#DejaVuSans-74" transform="translate(190.039062 0)"/>
      <use xlink:href="#DejaVuSans-72" transform="translate(229.248047 0)"/>
      <use xlink:href="#DejaVuSans-6f" transform="translate(268.111328 0)"/>
      <use xlink:href="#DejaVuSans-6e" transform="translate(329.292969 0)"/>
      <use xlink:href="#DejaVuSans-69" transform="translate(392.671875 0)"/>
     </g>
    </g>
    <g id="line2d_132">
     <path d="M 577.744688 58.974219 
L 587.744688 58.974219 
L 597.744688 58.974219 
" style="fill: none; stroke-dasharray: 8.88,3.84; stroke-dashoffset: 0; stroke: #ff7f0e; stroke-width: 2.4"/>
    </g>
    <g id="text_23">
     <!-- lacune -->
     <g transform="translate(605.744688 62.474219) scale(0.1 -0.1)">
      <use xlink:href="#DejaVuSans-6c"/>
      <use xlink:href="#DejaVuSans-61" transform="translate(27.783203 0)"/>
      <use xlink:href="#DejaVuSans-63" transform="translate(89.0625 0)"/>
      <use xlink:href="#DejaVuSans-75" transform="translate(144.042969 0)"/>
      <use xlink:href="#DejaVuSans-6e" transform="translate(207.421875 0)"/>
      <use xlink:href="#DejaVuSans-65" transform="translate(270.800781 0)"/>
     </g>
    </g>
   </g>
  </g>
  <g id="text_24">
   <!-- Il modello di Caughey–Thomas riproduce la riduzione della mobilità con l'aumento della concentrazione di impurità ionizzate. -->
   <g transform="translate(32.157812 462.117656) scale(0.1 -0.1)">
    <defs>
     <path id="DejaVuSans-49" d="M 628 4666 
L 1259 4666 
L 1259 0 
L 628 0 
L 628 4666 
z
" transform="scale(0.015625)"/>
     <path id="DejaVuSans-43" d="M 4122 4306 
L 4122 3641 
Q 3803 3938 3442 4084 
Q 3081 4231 2675 4231 
Q 1875 4231 1450 3742 
Q 1025 3253 1025 2328 
Q 1025 1406 1450 917 
Q 1875 428 2675 428 
Q 3081 428 3442 575 
Q 3803 722 4122 1019 
L 4122 359 
Q 3791 134 3420 21 
Q 3050 -91 2638 -91 
Q 1578 -91 968 557 
Q 359 1206 359 2328 
Q 359 3453 968 4101 
Q 1578 4750 2638 4750 
Q 3056 4750 3426 4639 
Q 3797 4528 4122 4306 
z
" transform="scale(0.015625)"/>
     <path id="DejaVuSans-68" d="M 3513 2113 
L 3513 0 
L 2938 0 
L 2938 2094 
Q 2938 2591 2744 2837 
Q 2550 3084 2163 3084 
Q 1697 3084 1428 2787 
Q 1159 2491 1159 1978 
L 1159 0 
L 581 0 
L 581 4863 
L 1159 4863 
L 1159 2956 
Q 1366 3272 1645 3428 
Q 1925 3584 2291 3584 
Q 2894 3584 3203 3211 
Q 3513 2838 3513 2113 
z
" transform="scale(0.015625)"/>
     <path id="DejaVuSans-79" d="M 2059 -325 
Q 1816 -950 1584 -1140 
Q 1353 -1331 966 -1331 
L 506 -1331 
L 506 -850 
L 844 -850 
Q 1081 -850 1212 -737 
Q 1344 -625 1503 -206 
L 1606 56 
L 191 3500 
L 800 3500 
L 1894 763 
L 2988 3500 
L 3597 3500 
L 2059 -325 
z
" transform="scale(0.015625)"/>
     <path id="DejaVuSans-2013" d="M 313 1978 
L 2888 1978 
L 2888 1528 
L 313 1528 
L 313 1978 
z
" transform="scale(0.015625)"/>
     <path id="DejaVuSans-54" d="M -19 4666 
L 3928 4666 
L 3928 4134 
L 2272 4134 
L 2272 0 
L 1638 0 
L 1638 4134 
L -19 4134 
L -19 4666 
z
" transform="scale(0.015625)"/>
     <path id="DejaVuSans-27" d="M 1147 4666 
L 1147 2931 
L 616 2931 
L 616 4666 
L 1147 4666 
z
" transform="scale(0.015625)"/>
     <path id="DejaVuSans-2e" d="M 684 794 
L 1344 794 
L 1344 0 
L 684 0 
L 684 794 
z
" transform="scale(0.015625)"/>
    </defs>
    <use xlink:href="#DejaVuSans-49"/>
    <use xlink:href="#DejaVuSans-6c" transform="translate(29.492188 0)"/>
    <use xlink:href="#DejaVuSans-20" transform="translate(57.275391 0)"/>
    <use xlink:href="#DejaVuSans-6d" transform="translate(89.0625 0)"/>
    <use xlink:href="#DejaVuSans-6f" transform="translate(186.474609 0)"/>
    <use xlink:href="#DejaVuSans-64" transform="translate(247.65625 0)"/>
    <use xlink:href="#DejaVuSans-65" transform="translate(311.132812 0)"/>
    <use xlink:href="#DejaVuSans-6c" transform="translate(372.65625 0)"/>
    <use xlink:href="#DejaVuSans-6c" transform="translate(400.439453 0)"/>
    <use xlink:href="#DejaVuSans-6f" transform="translate(428.222656 0)"/>
    <use xlink:href="#DejaVuSans-20" transform="translate(489.404297 0)"/>
    <use xlink:href="#DejaVuSans-64" transform="translate(521.191406 0)"/>
    <use xlink:href="#DejaVuSans-69" transform="translate(584.667969 0)"/>
    <use xlink:href="#DejaVuSans-20" transform="translate(612.451172 0)"/>
    <use xlink:href="#DejaVuSans-43" transform="translate(644.238281 0)"/>
    <use xlink:href="#DejaVuSans-61" transform="translate(714.0625 0)"/>
    <use xlink:href="#DejaVuSans-75" transform="translate(775.341797 0)"/>
    <use xlink:href="#DejaVuSans-67" transform="translate(838.720703 0)"/>
    <use xlink:href="#DejaVuSans-68" transform="translate(902.197266 0)"/>
    <use xlink:href="#DejaVuSans-65" transform="translate(965.576172 0)"/>
    <use xlink:href="#DejaVuSans-79" transform="translate(1027.099609 0)"/>
    <use xlink:href="#DejaVuSans-2013" transform="translate(1086.279297 0)"/>
    <use xlink:href="#DejaVuSans-54" transform="translate(1136.279297 0)"/>
    <use xlink:href="#DejaVuSans-68" transform="translate(1197.363281 0)"/>
    <use xlink:href="#DejaVuSans-6f" transform="translate(1260.742188 0)"/>
    <use xlink:href="#DejaVuSans-6d" transform="translate(1321.923828 0)"/>
    <use xlink:href="#DejaVuSans-61" transform="translate(1419.335938 0)"/>
    <use xlink:href="#DejaVuSans-73" transform="translate(1480.615234 0)"/>
    <use xlink:href="#DejaVuSans-20" transform="translate(1532.714844 0)"/>
    <use xlink:href="#DejaVuSans-72" transform="translate(1564.501953 0)"/>
    <use xlink:href="#DejaVuSans-69" transform="translate(1605.615234 0)"/>
    <use xlink:href="#DejaVuSans-70" transform="translate(1633.398438 0)"/>
    <use xlink:href="#DejaVuSans-72" transform="translate(1696.875 0)"/>
    <use xlink:href="#DejaVuSans-6f" transform="translate(1735.738281 0)"/>
    <use xlink:href="#DejaVuSans-64" transform="translate(1796.919922 0)"/>
    <use xlink:href="#DejaVuSans-75" transform="translate(1860.396484 0)"/>
    <use xlink:href="#DejaVuSans-63" transform="translate(1923.775391 0)"/>
    <use xlink:href="#DejaVuSans-65" transform="translate(1978.755859 0)"/>
    <use xlink:href="#DejaVuSans-20" transform="translate(2040.279297 0)"/>
    <use xlink:href="#DejaVuSans-6c" transform="translate(2072.066406 0)"/>
    <use xlink:href="#DejaVuSans-61" transform="translate(2099.849609 0)"/>
    <use xlink:href="#DejaVuSans-20" transform="translate(2161.128906 0)"/>
    <use xlink:href="#DejaVuSans-72" transform="translate(2192.916016 0)"/>
    <use xlink:href="#DejaVuSans-69" transform="translate(2234.029297 0)"/>
    <use xlink:href="#DejaVuSans-64" transform="translate(2261.8125 0)"/>
    <use xlink:href="#DejaVuSans-75" transform="translate(2325.289062 0)"/>
    <use xlink:href="#DejaVuSans-7a" transform="translate(2388.667969 0)"/>
    <use xlink:href="#DejaVuSans-69" transform="translate(2441.158203 0)"/>
    <use xlink:href="#DejaVuSans-6f" transform="translate(2468.941406 0)"/>
    <use xlink:href="#DejaVuSans-6e" transform="translate(2530.123047 0)"/>
    <use xlink:href="#DejaVuSans-65" transform="translate(2593.501953 0)"/>
    <use xlink:href="#DejaVuSans-20" transform="translate(2655.025391 0)"/>
    <use xlink:href="#DejaVuSans-64" transform="translate(2686.8125 0)"/>
    <use xlink:href="#DejaVuSans-65" transform="translate(2750.289062 0)"/>
    <use xlink:href="#DejaVuSans-6c" transform="translate(2811.8125 0)"/>
    <use xlink:href="#DejaVuSans-6c" transform="translate(2839.595703 0)"/>
    <use xlink:href="#DejaVuSans-61" transform="translate(2867.378906 0)"/>
    <use xlink:href="#DejaVuSans-20" transform="translate(2928.658203 0)"/>
    <use xlink:href="#DejaVuSans-6d" transform="translate(2960.445312 0)"/>
    <use xlink:href="#DejaVuSans-6f" transform="translate(3057.857422 0)"/>
    <use xlink:href="#DejaVuSans-62" transform="translate(3119.039062 0)"/>
    <use xlink:href="#DejaVuSans-69" transform="translate(3182.515625 0)"/>
    <use xlink:href="#DejaVuSans-6c" transform="translate(3210.298828 0)"/>
    <use xlink:href="#DejaVuSans-69" transform="translate(3238.082031 0)"/>
    <use xlink:href="#DejaVuSans-74" transform="translate(3265.865234 0)"/>
    <use xlink:href="#DejaVuSans-e0" transform="translate(3305.074219 0)"/>
    <use xlink:href="#DejaVuSans-20" transform="translate(3366.353516 0)"/>
    <use xlink:href="#DejaVuSans-63" transform="translate(3398.140625 0)"/>
    <use xlink:href="#DejaVuSans-6f" transform="translate(3453.121094 0)"/>
    <use xlink:href="#DejaVuSans-6e" transform="translate(3514.302734 0)"/>
    <use xlink:href="#DejaVuSans-20" transform="translate(3577.681641 0)"/>
    <use xlink:href="#DejaVuSans-6c" transform="translate(3609.46875 0)"/>
    <use xlink:href="#DejaVuSans-27" transform="translate(3637.251953 0)"/>
    <use xlink:href="#DejaVuSans-61" transform="translate(3664.742188 0)"/>
    <use xlink:href="#DejaVuSans-75" transform="translate(3726.021484 0)"/>
    <use xlink:href="#DejaVuSans-6d" transform="translate(3789.400391 0)"/>
    <use xlink:href="#DejaVuSans-65" transform="translate(3886.8125 0)"/>
    <use xlink:href="#DejaVuSans-6e" transform="translate(3948.335938 0)"/>
    <use xlink:href="#DejaVuSans-74" transform="translate(4011.714844 0)"/>
    <use xlink:href="#DejaVuSans-6f" transform="translate(4050.923828 0)"/>
    <use xlink:href="#DejaVuSans-20" transform="translate(4112.105469 0)"/>
    <use xlink:href="#DejaVuSans-64" transform="translate(4143.892578 0)"/>
    <use xlink:href="#DejaVuSans-65" transform="translate(4207.369141 0)"/>
    <use xlink:href="#DejaVuSans-6c" transform="translate(4268.892578 0)"/>
    <use xlink:href="#DejaVuSans-6c" transform="translate(4296.675781 0)"/>
    <use xlink:href="#DejaVuSans-61" transform="translate(4324.458984 0)"/>
    <use xlink:href="#DejaVuSans-20" transform="translate(4385.738281 0)"/>
    <use xlink:href="#DejaVuSans-63" transform="translate(4417.525391 0)"/>
    <use xlink:href="#DejaVuSans-6f" transform="translate(4472.505859 0)"/>
    <use xlink:href="#DejaVuSans-6e" transform="translate(4533.6875 0)"/>
    <use xlink:href="#DejaVuSans-63" transform="translate(4597.066406 0)"/>
    <use xlink:href="#DejaVuSans-65" transform="translate(4652.046875 0)"/>
    <use xlink:href="#DejaVuSans-6e" transform="translate(4713.570312 0)"/>
    <use xlink:href="#DejaVuSans-74" transform="translate(4776.949219 0)"/>
    <use xlink:href="#DejaVuSans-72" transform="translate(4816.158203 0)"/>
    <use xlink:href="#DejaVuSans-61" transform="translate(4857.271484 0)"/>
    <use xlink:href="#DejaVuSans-7a" transform="translate(4918.550781 0)"/>
    <use xlink:href="#DejaVuSans-69" transform="translate(4971.041016 0)"/>
    <use xlink:href="#DejaVuSans-6f" transform="translate(4998.824219 0)"/>
    <use xlink:href="#DejaVuSans-6e" transform="translate(5060.005859 0)"/>
    <use xlink:href="#DejaVuSans-65" transform="translate(5123.384766 0)"/>
    <use xlink:href="#DejaVuSans-20" transform="translate(5184.908203 0)"/>
    <use xlink:href="#DejaVuSans-64" transform="translate(5216.695312 0)"/>
    <use xlink:href="#DejaVuSans-69" transform="translate(5280.171875 0)"/>
    <use xlink:href="#DejaVuSans-20" transform="translate(5307.955078 0)"/>
    <use xlink:href="#DejaVuSans-69" transform="translate(5339.742188 0)"/>
    <use xlink:href="#DejaVuSans-6d" transform="translate(5367.525391 0)"/>
    <use xlink:href="#DejaVuSans-70" transform="translate(5464.9375 0)"/>
    <use xlink:href="#DejaVuSans-75" transform="translate(5528.414062 0)"/>
    <use xlink:href="#DejaVuSans-72" transform="translate(5591.792969 0)"/>
    <use xlink:href="#DejaVuSans-69" transform="translate(5632.90625 0)"/>
    <use xlink:href="#DejaVuSans-74" transform="translate(5660.689453 0)"/>
    <use xlink:href="#DejaVuSans-e0" transform="translate(5699.898438 0)"/>
    <use xlink:href="#DejaVuSans-20" transform="translate(5761.177734 0)"/>
    <use xlink:href="#DejaVuSans-69" transform="translate(5792.964844 0)"/>
    <use xlink:href="#DejaVuSans-6f" transform="translate(5820.748047 0)"/>
    <use xlink:href="#DejaVuSans-6e" transform="translate(5881.929688 0)"/>
    <use xlink:href="#DejaVuSans-69" transform="translate(5945.308594 0)"/>
    <use xlink:href="#DejaVuSans-7a" transform="translate(5973.091797 0)"/>
    <use xlink:href="#DejaVuSans-7a" transform="translate(6025.582031 0)"/>
    <use xlink:href="#DejaVuSans-61" transform="translate(6078.072266 0)"/>
    <use xlink:href="#DejaVuSans-74" transform="translate(6139.351562 0)"/>
    <use xlink:href="#DejaVuSans-65" transform="translate(6178.560547 0)"/>
    <use xlink:href="#DejaVuSans-2e" transform="translate(6240.083984 0)"/>
   </g>
  </g>
 </g>
 <defs>
  <clipPath id="pa8d817cd59">
   <rect x="54.15" y="31.197656" width="602.64" height="388.08"/>
  </clipPath>
 </defs>
</svg>
