<?xml version="1.0" encoding="utf-8" standalone="no"?>
<!DOCTYPE svg PUBLIC "-//W3C//DTD SVG 1.1//EN"
  "http://www.w3.org/Graphics/SVG/1.1/DTD/svg11.dtd">
<svg xmlns:xlink="http://www.w3.org/1999/xlink" width="924.9pt" height="483.709344pt" viewBox="0 0 924.9 483.709344" xmlns="http://www.w3.org/2000/svg" version="1.1">
 <metadata>
  <rdf:RDF xmlns:dc="http://purl.org/dc/elements/1.1/" xmlns:cc="http://creativecommons.org/ns#" xmlns:rdf="http://www.w3.org/1999/02/22-rdf-syntax-ns#">
   <cc:Work>
    <dc:type rdf:resource="http://purl.org/dc/dcmitype/StillImage"/>
    <dc:date>2026-06-16T12:45:06.293924</dc:date>
    <dc:format>image/svg+xml</dc:format>
    <dc:creator>
     <cc:Agent>
      <dc:title>Matplotlib v3.10.8, https://matplotlib.org/</dc:title>
     </cc:Agent>
    </dc:creator>
   </cc:Work>
  </rdf:RDF>
 </metadata>
 <defs>
  <style type="text/css">*{stroke-linejoin: round; stroke-linecap: butt}</style>
 </defs>
 <g id="figure_1">
  <g id="patch_1">
   <path d="M 0 483.709344 
L 924.9 483.709344 
L 924.9 0 
L 0 0 
z
" style="fill: #ffffff"/>
  </g>
  <g id="axes_1">
   <g id="patch_2">
    <path d="M 170.85 430.365656 
L 773.49 430.365656 
L 773.49 31.197656 
L 170.85 31.197656 
z
" style="fill: #ffffff"/>
   </g>
   <g id="matplotlib.axis_1">
    <g id="xtick_1">
     <g id="line2d_1">
      <path d="M 170.85 430.365656 
L 170.85 31.197656 
" clip-path="url(#p70bf3a714e)" style="fill: none; stroke: #b0b0b0; stroke-opacity: 0.17; stroke-width: 0.8; stroke-linecap: square"/>
     </g>
     <g id="line2d_2">
      <defs>
       <path id="m82b9c32dd1" d="M 0 0 
L 0 3.5 
" style="stroke: #000000; stroke-width: 0.8"/>
      </defs>
      <g>
       <use xlink:href="#m82b9c32dd1" x="170.85" y="430.365656" style="stroke: #000000; stroke-width: 0.8"/>
      </g>
     </g>
     <g id="text_1">
      <!-- $\mathdefault{10^{2}}$ -->
      <g transform="translate(162.05 444.964094) scale(0.1 -0.1)">
       <defs>
        <path id="DejaVuSans-31" d="M 794 531 
L 1825 531 
L 1825 4091 
L 703 3866 
L 703 4441 
L 1819 4666 
L 2450 4666 
L 2450 531 
L 3481 531 
L 3481 0 
L 794 0 
L 794 531 
z
" transform="scale(0.015625)"/>
        <path id="DejaVuSans-30" d="M 2034 4250 
Q 1547 4250 1301 3770 
Q 1056 3291 1056 2328 
Q 1056 1369 1301 889 
Q 1547 409 2034 409 
Q 2525 409 2770 889 
Q 3016 1369 3016 2328 
Q 3016 3291 2770 3770 
Q 2525 4250 2034 4250 
z
M 2034 4750 
Q 2819 4750 3233 4129 
Q 3647 3509 3647 2328 
Q 3647 1150 3233 529 
Q 2819 -91 2034 -91 
Q 1250 -91 836 529 
Q 422 1150 422 2328 
Q 422 3509 836 4129 
Q 1250 4750 2034 4750 
z
" transform="scale(0.015625)"/>
        <path id="DejaVuSans-32" d="M 1228 531 
L 3431 531 
L 3431 0 
L 469 0 
L 469 531 
Q 828 903 1448 1529 
Q 2069 2156 2228 2338 
Q 2531 2678 2651 2914 
Q 2772 3150 2772 3378 
Q 2772 3750 2511 3984 
Q 2250 4219 1831 4219 
Q 1534 4219 1204 4116 
Q 875 4013 500 3803 
L 500 4441 
Q 881 4594 1212 4672 
Q 1544 4750 1819 4750 
Q 2544 4750 2975 4387 
Q 3406 4025 3406 3419 
Q 3406 3131 3298 2873 
Q 3191 2616 2906 2266 
Q 2828 2175 2409 1742 
Q 1991 1309 1228 531 
z
" transform="scale(0.015625)"/>
       </defs>
       <use xlink:href="#DejaVuSans-31" transform="translate(0 0.765625)"/>
       <use xlink:href="#DejaVuSans-30" transform="translate(63.623047 0.765625)"/>
       <use xlink:href="#DejaVuSans-32" transform="translate(128.203125 39.046875) scale(0.7)"/>
      </g>
     </g>
    </g>
    <g id="xtick_2">
     <g id="line2d_3">
      <path d="M 773.49 430.365656 
L 773.49 31.197656 
" clip-path="url(#p70bf3a714e)" style="fill: none; stroke: #b0b0b0; stroke-opacity: 0.17; stroke-width: 0.8; stroke-linecap: square"/>
     </g>
     <g id="line2d_4">
      <g>
       <use xlink:href="#m82b9c32dd1" x="773.49" y="430.365656" style="stroke: #000000; stroke-width: 0.8"/>
      </g>
     </g>
     <g id="text_2">
      <!-- $\mathdefault{10^{3}}$ -->
      <g transform="translate(764.69 444.964094) scale(0.1 -0.1)">
       <defs>
        <path id="DejaVuSans-33" d="M 2597 2516 
Q 3050 2419 3304 2112 
Q 3559 1806 3559 1356 
Q 3559 666 3084 287 
Q 2609 -91 1734 -91 
Q 1441 -91 1130 -33 
Q 819 25 488 141 
L 488 750 
Q 750 597 1062 519 
Q 1375 441 1716 441 
Q 2309 441 2620 675 
Q 2931 909 2931 1356 
Q 2931 1769 2642 2001 
Q 2353 2234 1838 2234 
L 1294 2234 
L 1294 2753 
L 1863 2753 
Q 2328 2753 2575 2939 
Q 2822 3125 2822 3475 
Q 2822 3834 2567 4026 
Q 2313 4219 1838 4219 
Q 1578 4219 1281 4162 
Q 984 4106 628 3988 
L 628 4550 
Q 988 4650 1302 4700 
Q 1616 4750 1894 4750 
Q 2613 4750 3031 4423 
Q 3450 4097 3450 3541 
Q 3450 3153 3228 2886 
Q 3006 2619 2597 2516 
z
" transform="scale(0.015625)"/>
       </defs>
       <use xlink:href="#DejaVuSans-31" transform="translate(0 0.765625)"/>
       <use xlink:href="#DejaVuSans-30" transform="translate(63.623047 0.765625)"/>
       <use xlink:href="#DejaVuSans-33" transform="translate(128.203125 39.046875) scale(0.7)"/>
      </g>
     </g>
    </g>
    <g id="xtick_3">
     <g id="line2d_5">
      <path d="M 352.262717 430.365656 
L 352.262717 31.197656 
" clip-path="url(#p70bf3a714e)" style="fill: none; stroke: #b0b0b0; stroke-opacity: 0.17; stroke-width: 0.8; stroke-linecap: square"/>
     </g>
     <g id="line2d_6">
      <defs>
       <path id="m34967a4c06" d="M 0 0 
L 0 2 
" style="stroke: #000000; stroke-width: 0.6"/>
      </defs>
      <g>
       <use xlink:href="#m34967a4c06" x="352.262717" y="430.365656" style="stroke: #000000; stroke-width: 0.6"/>
      </g>
     </g>
     <g id="text_3">
      <!-- $\mathdefault{2\times10^{2}}$ -->
      <g transform="translate(334.162717 443.364094) scale(0.1 -0.1)">
       <defs>
        <path id="DejaVuSans-d7" d="M 4488 3438 
L 3059 2003 
L 4488 575 
L 4116 197 
L 2681 1631 
L 1247 197 
L 878 575 
L 2303 2003 
L 878 3438 
L 1247 3816 
L 2681 2381 
L 4116 3816 
L 4488 3438 
z
" transform="scale(0.015625)"/>
       </defs>
       <use xlink:href="#DejaVuSans-32" transform="translate(0 0.765625)"/>
       <use xlink:href="#DejaVuSans-d7" transform="translate(83.105469 0.765625)"/>
       <use xlink:href="#DejaVuSans-31" transform="translate(186.376953 0.765625)"/>
       <use xlink:href="#DejaVuSans-30" transform="translate(250 0.765625)"/>
       <use xlink:href="#DejaVuSans-32" transform="translate(314.580078 39.046875) scale(0.7)"/>
      </g>
     </g>
    </g>
    <g id="xtick_4">
     <g id="line2d_7">
      <path d="M 458.382353 430.365656 
L 458.382353 31.197656 
" clip-path="url(#p70bf3a714e)" style="fill: none; stroke: #b0b0b0; stroke-opacity: 0.17; stroke-width: 0.8; stroke-linecap: square"/>
     </g>
     <g id="line2d_8">
      <g>
       <use xlink:href="#m34967a4c06" x="458.382353" y="430.365656" style="stroke: #000000; stroke-width: 0.6"/>
      </g>
     </g>
     <g id="text_4">
      <!-- $\mathdefault{3\times10^{2}}$ -->
      <g transform="translate(440.282353 443.364094) scale(0.1 -0.1)">
       <use xlink:href="#DejaVuSans-33" transform="translate(0 0.765625)"/>
       <use xlink:href="#DejaVuSans-d7" transform="translate(83.105469 0.765625)"/>
       <use xlink:href="#DejaVuSans-31" transform="translate(186.376953 0.765625)"/>
       <use xlink:href="#DejaVuSans-30" transform="translate(250 0.765625)"/>
       <use xlink:href="#DejaVuSans-32" transform="translate(314.580078 39.046875) scale(0.7)"/>
      </g>
     </g>
    </g>
    <g id="xtick_5">
     <g id="line2d_9">
      <path d="M 533.675433 430.365656 
L 533.675433 31.197656 
" clip-path="url(#p70bf3a714e)" style="fill: none; stroke: #b0b0b0; stroke-opacity: 0.17; stroke-width: 0.8; stroke-linecap: square"/>
     </g>
     <g id="line2d_10">
      <g>
       <use xlink:href="#m34967a4c06" x="533.675433" y="430.365656" style="stroke: #000000; stroke-width: 0.6"/>
      </g>
     </g>
     <g id="text_5">
      <!-- $\mathdefault{4\times10^{2}}$ -->
      <g transform="translate(515.575433 443.364094) scale(0.1 -0.1)">
       <defs>
        <path id="DejaVuSans-34" d="M 2419 4116 
L 825 1625 
L 2419 1625 
L 2419 4116 
z
M 2253 4666 
L 3047 4666 
L 3047 1625 
L 3713 1625 
L 3713 1100 
L 3047 1100 
L 3047 0 
L 2419 0 
L 2419 1100 
L 313 1100 
L 313 1709 
L 2253 4666 
z
" transform="scale(0.015625)"/>
       </defs>
       <use xlink:href="#DejaVuSans-34" transform="translate(0 0.765625)"/>
       <use xlink:href="#DejaVuSans-d7" transform="translate(83.105469 0.765625)"/>
       <use xlink:href="#DejaVuSans-31" transform="translate(186.376953 0.765625)"/>
       <use xlink:href="#DejaVuSans-30" transform="translate(250 0.765625)"/>
       <use xlink:href="#DejaVuSans-32" transform="translate(314.580078 39.046875) scale(0.7)"/>
      </g>
     </g>
    </g>
    <g id="xtick_6">
     <g id="line2d_11">
      <path d="M 592.077283 430.365656 
L 592.077283 31.197656 
" clip-path="url(#p70bf3a714e)" style="fill: none; stroke: #b0b0b0; stroke-opacity: 0.17; stroke-width: 0.8; stroke-linecap: square"/>
     </g>
     <g id="line2d_12">
      <g>
       <use xlink:href="#m34967a4c06" x="592.077283" y="430.365656" style="stroke: #000000; stroke-width: 0.6"/>
      </g>
     </g>
    </g>
    <g id="xtick_7">
     <g id="line2d_13">
      <path d="M 639.79507 430.365656 
L 639.79507 31.197656 
" clip-path="url(#p70bf3a714e)" style="fill: none; stroke: #b0b0b0; stroke-opacity: 0.17; stroke-width: 0.8; stroke-linecap: square"/>
     </g>
     <g id="line2d_14">
      <g>
       <use xlink:href="#m34967a4c06" x="639.79507" y="430.365656" style="stroke: #000000; stroke-width: 0.6"/>
      </g>
     </g>
     <g id="text_6">
      <!-- $\mathdefault{6\times10^{2}}$ -->
      <g transform="translate(621.69507 443.364094) scale(0.1 -0.1)">
       <defs>
        <path id="DejaVuSans-36" d="M 2113 2584 
Q 1688 2584 1439 2293 
Q 1191 2003 1191 1497 
Q 1191 994 1439 701 
Q 1688 409 2113 409 
Q 2538 409 2786 701 
Q 3034 994 3034 1497 
Q 3034 2003 2786 2293 
Q 2538 2584 2113 2584 
z
M 3366 4563 
L 3366 3988 
Q 3128 4100 2886 4159 
Q 2644 4219 2406 4219 
Q 1781 4219 1451 3797 
Q 1122 3375 1075 2522 
Q 1259 2794 1537 2939 
Q 1816 3084 2150 3084 
Q 2853 3084 3261 2657 
Q 3669 2231 3669 1497 
Q 3669 778 3244 343 
Q 2819 -91 2113 -91 
Q 1303 -91 875 529 
Q 447 1150 447 2328 
Q 447 3434 972 4092 
Q 1497 4750 2381 4750 
Q 2619 4750 2861 4703 
Q 3103 4656 3366 4563 
z
" transform="scale(0.015625)"/>
       </defs>
       <use xlink:href="#DejaVuSans-36" transform="translate(0 0.765625)"/>
       <use xlink:href="#DejaVuSans-d7" transform="translate(83.105469 0.765625)"/>
       <use xlink:href="#DejaVuSans-31" transform="translate(186.376953 0.765625)"/>
       <use xlink:href="#DejaVuSans-30" transform="translate(250 0.765625)"/>
       <use xlink:href="#DejaVuSans-32" transform="translate(314.580078 39.046875) scale(0.7)"/>
      </g>
     </g>
    </g>
    <g id="xtick_8">
     <g id="line2d_15">
      <path d="M 680.139883 430.365656 
L 680.139883 31.197656 
" clip-path="url(#p70bf3a714e)" style="fill: none; stroke: #b0b0b0; stroke-opacity: 0.17; stroke-width: 0.8; stroke-linecap: square"/>
     </g>
     <g id="line2d_16">
      <g>
       <use xlink:href="#m34967a4c06" x="680.139883" y="430.365656" style="stroke: #000000; stroke-width: 0.6"/>
      </g>
     </g>
    </g>
    <g id="xtick_9">
     <g id="line2d_17">
      <path d="M 715.08815 430.365656 
L 715.08815 31.197656 
" clip-path="url(#p70bf3a714e)" style="fill: none; stroke: #b0b0b0; stroke-opacity: 0.17; stroke-width: 0.8; stroke-linecap: square"/>
     </g>
     <g id="line2d_18">
      <g>
       <use xlink:href="#m34967a4c06" x="715.08815" y="430.365656" style="stroke: #000000; stroke-width: 0.6"/>
      </g>
     </g>
    </g>
    <g id="xtick_10">
     <g id="line2d_19">
      <path d="M 745.914706 430.365656 
L 745.914706 31.197656 
" clip-path="url(#p70bf3a714e)" style="fill: none; stroke: #b0b0b0; stroke-opacity: 0.17; stroke-width: 0.8; stroke-linecap: square"/>
     </g>
     <g id="line2d_20">
      <g>
       <use xlink:href="#m34967a4c06" x="745.914706" y="430.365656" style="stroke: #000000; stroke-width: 0.6"/>
      </g>
     </g>
    </g>
    <g id="text_7">
     <!-- temperatura (K) -->
     <g transform="translate(431.874687 458.642219) scale(0.1 -0.1)">
      <defs>
       <path id="DejaVuSans-74" d="M 1172 4494 
L 1172 3500 
L 2356 3500 
L 2356 3053 
L 1172 3053 
L 1172 1153 
Q 1172 725 1289 603 
Q 1406 481 1766 481 
L 2356 481 
L 2356 0 
L 1766 0 
Q 1100 0 847 248 
Q 594 497 594 1153 
L 594 3053 
L 172 3053 
L 172 3500 
L 594 3500 
L 594 4494 
L 1172 4494 
z
" transform="scale(0.015625)"/>
       <path id="DejaVuSans-65" d="M 3597 1894 
L 3597 1613 
L 953 1613 
Q 991 1019 1311 708 
Q 1631 397 2203 397 
Q 2534 397 2845 478 
Q 3156 559 3463 722 
L 3463 178 
Q 3153 47 2828 -22 
Q 2503 -91 2169 -91 
Q 1331 -91 842 396 
Q 353 884 353 1716 
Q 353 2575 817 3079 
Q 1281 3584 2069 3584 
Q 2775 3584 3186 3129 
Q 3597 2675 3597 1894 
z
M 3022 2063 
Q 3016 2534 2758 2815 
Q 2500 3097 2075 3097 
Q 1594 3097 1305 2825 
Q 1016 2553 972 2059 
L 3022 2063 
z
" transform="scale(0.015625)"/>
       <path id="DejaVuSans-6d" d="M 3328 2828 
Q 3544 3216 3844 3400 
Q 4144 3584 4550 3584 
Q 5097 3584 5394 3201 
Q 5691 2819 5691 2113 
L 5691 0 
L 5113 0 
L 5113 2094 
Q 5113 2597 4934 2840 
Q 4756 3084 4391 3084 
Q 3944 3084 3684 2787 
Q 3425 2491 3425 1978 
L 3425 0 
L 2847 0 
L 2847 2094 
Q 2847 2600 2669 2842 
Q 2491 3084 2119 3084 
Q 1678 3084 1418 2786 
Q 1159 2488 1159 1978 
L 1159 0 
L 581 0 
L 581 3500 
L 1159 3500 
L 1159 2956 
Q 1356 3278 1631 3431 
Q 1906 3584 2284 3584 
Q 2666 3584 2933 3390 
Q 3200 3197 3328 2828 
z
" transform="scale(0.015625)"/>
       <path id="DejaVuSans-70" d="M 1159 525 
L 1159 -1331 
L 581 -1331 
L 581 3500 
L 1159 3500 
L 1159 2969 
Q 1341 3281 1617 3432 
Q 1894 3584 2278 3584 
Q 2916 3584 3314 3078 
Q 3713 2572 3713 1747 
Q 3713 922 3314 415 
Q 2916 -91 2278 -91 
Q 1894 -91 1617 61 
Q 1341 213 1159 525 
z
M 3116 1747 
Q 3116 2381 2855 2742 
Q 2594 3103 2138 3103 
Q 1681 3103 1420 2742 
Q 1159 2381 1159 1747 
Q 1159 1113 1420 752 
Q 1681 391 2138 391 
Q 2594 391 2855 752 
Q 3116 1113 3116 1747 
z
" transform="scale(0.015625)"/>
       <path id="DejaVuSans-72" d="M 2631 2963 
Q 2534 3019 2420 3045 
Q 2306 3072 2169 3072 
Q 1681 3072 1420 2755 
Q 1159 2438 1159 1844 
L 1159 0 
L 581 0 
L 581 3500 
L 1159 3500 
L 1159 2956 
Q 1341 3275 1631 3429 
Q 1922 3584 2338 3584 
Q 2397 3584 2469 3576 
Q 2541 3569 2628 3553 
L 2631 2963 
z
" transform="scale(0.015625)"/>
       <path id="DejaVuSans-61" d="M 2194 1759 
Q 1497 1759 1228 1600 
Q 959 1441 959 1056 
Q 959 750 1161 570 
Q 1363 391 1709 391 
Q 2188 391 2477 730 
Q 2766 1069 2766 1631 
L 2766 1759 
L 2194 1759 
z
M 3341 1997 
L 3341 0 
L 2766 0 
L 2766 531 
Q 2569 213 2275 61 
Q 1981 -91 1556 -91 
Q 1019 -91 701 211 
Q 384 513 384 1019 
Q 384 1609 779 1909 
Q 1175 2209 1959 2209 
L 2766 2209 
L 2766 2266 
Q 2766 2663 2505 2880 
Q 2244 3097 1772 3097 
Q 1472 3097 1187 3025 
Q 903 2953 641 2809 
L 641 3341 
Q 956 3463 1253 3523 
Q 1550 3584 1831 3584 
Q 2591 3584 2966 3190 
Q 3341 2797 3341 1997 
z
" transform="scale(0.015625)"/>
       <path id="DejaVuSans-75" d="M 544 1381 
L 544 3500 
L 1119 3500 
L 1119 1403 
Q 1119 906 1312 657 
Q 1506 409 1894 409 
Q 2359 409 2629 706 
Q 2900 1003 2900 1516 
L 2900 3500 
L 3475 3500 
L 3475 0 
L 2900 0 
L 2900 538 
Q 2691 219 2414 64 
Q 2138 -91 1772 -91 
Q 1169 -91 856 284 
Q 544 659 544 1381 
z
M 1991 3584 
L 1991 3584 
z
" transform="scale(0.015625)"/>
       <path id="DejaVuSans-20" transform="scale(0.015625)"/>
       <path id="DejaVuSans-28" d="M 1984 4856 
Q 1566 4138 1362 3434 
Q 1159 2731 1159 2009 
Q 1159 1288 1364 580 
Q 1569 -128 1984 -844 
L 1484 -844 
Q 1016 -109 783 600 
Q 550 1309 550 2009 
Q 550 2706 781 3412 
Q 1013 4119 1484 4856 
L 1984 4856 
z
" transform="scale(0.015625)"/>
       <path id="DejaVuSans-4b" d="M 628 4666 
L 1259 4666 
L 1259 2694 
L 3353 4666 
L 4166 4666 
L 1850 2491 
L 4331 0 
L 3500 0 
L 1259 2247 
L 1259 0 
L 628 0 
L 628 4666 
z
" transform="scale(0.015625)"/>
       <path id="DejaVuSans-29" d="M 513 4856 
L 1013 4856 
Q 1481 4119 1714 3412 
Q 1947 2706 1947 2009 
Q 1947 1309 1714 600 
Q 1481 -109 1013 -844 
L 513 -844 
Q 928 -128 1133 580 
Q 1338 1288 1338 2009 
Q 1338 2731 1133 3434 
Q 928 4138 513 4856 
z
" transform="scale(0.015625)"/>
      </defs>
      <use xlink:href="#DejaVuSans-74"/>
      <use xlink:href="#DejaVuSans-65" transform="translate(39.208984 0)"/>
      <use xlink:href="#DejaVuSans-6d" transform="translate(100.732422 0)"/>
      <use xlink:href="#DejaVuSans-70" transform="translate(198.144531 0)"/>
      <use xlink:href="#DejaVuSans-65" transform="translate(261.621094 0)"/>
      <use xlink:href="#DejaVuSans-72" transform="translate(323.144531 0)"/>
      <use xlink:href="#DejaVuSans-61" transform="translate(364.257812 0)"/>
      <use xlink:href="#DejaVuSans-74" transform="translate(425.537109 0)"/>
      <use xlink:href="#DejaVuSans-75" transform="translate(464.746094 0)"/>
      <use xlink:href="#DejaVuSans-72" transform="translate(528.125 0)"/>
      <use xlink:href="#DejaVuSans-61" transform="translate(569.238281 0)"/>
      <use xlink:href="#DejaVuSans-20" transform="translate(630.517578 0)"/>
      <use xlink:href="#DejaVuSans-28" transform="translate(662.304688 0)"/>
      <use xlink:href="#DejaVuSans-4b" transform="translate(701.318359 0)"/>
      <use xlink:href="#DejaVuSans-29" transform="translate(766.894531 0)"/>
     </g>
    </g>
   </g>
   <g id="matplotlib.axis_2">
    <g id="ytick_1">
     <g id="line2d_21">
      <path d="M 170.85 380.255336 
L 773.49 380.255336 
" clip-path="url(#p70bf3a714e)" style="fill: none; stroke: #b0b0b0; stroke-opacity: 0.17; stroke-width: 0.8; stroke-linecap: square"/>
     </g>
     <g id="line2d_22">
      <defs>
       <path id="m3cc7e46833" d="M 0 0 
L -3.5 0 
" style="stroke: #000000; stroke-width: 0.8"/>
      </defs>
      <g>
       <use xlink:href="#m3cc7e46833" x="170.85" y="380.255336" style="stroke: #000000; stroke-width: 0.8"/>
      </g>
     </g>
     <g id="text_8">
      <!-- $\mathdefault{10^{2}}$ -->
      <g transform="translate(146.25 384.054555) scale(0.1 -0.1)">
       <use xlink:href="#DejaVuSans-31" transform="translate(0 0.765625)"/>
       <use xlink:href="#DejaVuSans-30" transform="translate(63.623047 0.765625)"/>
       <use xlink:href="#DejaVuSans-32" transform="translate(128.203125 39.046875) scale(0.7)"/>
      </g>
     </g>
    </g>
    <g id="ytick_2">
     <g id="line2d_23">
      <path d="M 170.85 213.792456 
L 773.49 213.792456 
" clip-path="url(#p70bf3a714e)" style="fill: none; stroke: #b0b0b0; stroke-opacity: 0.17; stroke-width: 0.8; stroke-linecap: square"/>
     </g>
     <g id="line2d_24">
      <g>
       <use xlink:href="#m3cc7e46833" x="170.85" y="213.792456" style="stroke: #000000; stroke-width: 0.8"/>
      </g>
     </g>
     <g id="text_9">
      <!-- $\mathdefault{10^{3}}$ -->
      <g transform="translate(146.25 217.591675) scale(0.1 -0.1)">
       <use xlink:href="#DejaVuSans-31" transform="translate(0 0.765625)"/>
       <use xlink:href="#DejaVuSans-30" transform="translate(63.623047 0.765625)"/>
       <use xlink:href="#DejaVuSans-33" transform="translate(128.203125 39.046875) scale(0.7)"/>
      </g>
     </g>
    </g>
    <g id="ytick_3">
     <g id="line2d_25">
      <path d="M 170.85 47.329576 
L 773.49 47.329576 
" clip-path="url(#p70bf3a714e)" style="fill: none; stroke: #b0b0b0; stroke-opacity: 0.17; stroke-width: 0.8; stroke-linecap: square"/>
     </g>
     <g id="line2d_26">
      <g>
       <use xlink:href="#m3cc7e46833" x="170.85" y="47.329576" style="stroke: #000000; stroke-width: 0.8"/>
      </g>
     </g>
     <g id="text_10">
      <!-- $\mathdefault{10^{4}}$ -->
      <g transform="translate(146.25 51.128795) scale(0.1 -0.1)">
       <use xlink:href="#DejaVuSans-31" transform="translate(0 0.684375)"/>
       <use xlink:href="#DejaVuSans-30" transform="translate(63.623047 0.684375)"/>
       <use xlink:href="#DejaVuSans-34" transform="translate(128.203125 38.965625) scale(0.7)"/>
      </g>
     </g>
    </g>
    <g id="ytick_4">
     <g id="line2d_27">
      <path d="M 170.85 430.365656 
L 773.49 430.365656 
" clip-path="url(#p70bf3a714e)" style="fill: none; stroke: #b0b0b0; stroke-opacity: 0.17; stroke-width: 0.8; stroke-linecap: square"/>
     </g>
     <g id="line2d_28">
      <defs>
       <path id="md2a6708f80" d="M 0 0 
L -2 0 
" style="stroke: #000000; stroke-width: 0.6"/>
      </defs>
      <g>
       <use xlink:href="#md2a6708f80" x="170.85" y="430.365656" style="stroke: #000000; stroke-width: 0.6"/>
      </g>
     </g>
    </g>
    <g id="ytick_5">
     <g id="line2d_29">
      <path d="M 170.85 417.184918 
L 773.49 417.184918 
" clip-path="url(#p70bf3a714e)" style="fill: none; stroke: #b0b0b0; stroke-opacity: 0.17; stroke-width: 0.8; stroke-linecap: square"/>
     </g>
     <g id="line2d_30">
      <g>
       <use xlink:href="#md2a6708f80" x="170.85" y="417.184918" style="stroke: #000000; stroke-width: 0.6"/>
      </g>
     </g>
    </g>
    <g id="ytick_6">
     <g id="line2d_31">
      <path d="M 170.85 406.040763 
L 773.49 406.040763 
" clip-path="url(#p70bf3a714e)" style="fill: none; stroke: #b0b0b0; stroke-opacity: 0.17; stroke-width: 0.8; stroke-linecap: square"/>
     </g>
     <g id="line2d_32">
      <g>
       <use xlink:href="#md2a6708f80" x="170.85" y="406.040763" style="stroke: #000000; stroke-width: 0.6"/>
      </g>
     </g>
    </g>
    <g id="ytick_7">
     <g id="line2d_33">
      <path d="M 170.85 396.387256 
L 773.49 396.387256 
" clip-path="url(#p70bf3a714e)" style="fill: none; stroke: #b0b0b0; stroke-opacity: 0.17; stroke-width: 0.8; stroke-linecap: square"/>
     </g>
     <g id="line2d_34">
      <g>
       <use xlink:href="#md2a6708f80" x="170.85" y="396.387256" style="stroke: #000000; stroke-width: 0.6"/>
      </g>
     </g>
    </g>
    <g id="ytick_8">
     <g id="line2d_35">
      <path d="M 170.85 387.87226 
L 773.49 387.87226 
" clip-path="url(#p70bf3a714e)" style="fill: none; stroke: #b0b0b0; stroke-opacity: 0.17; stroke-width: 0.8; stroke-linecap: square"/>
     </g>
     <g id="line2d_36">
      <g>
       <use xlink:href="#md2a6708f80" x="170.85" y="387.87226" style="stroke: #000000; stroke-width: 0.6"/>
      </g>
     </g>
    </g>
    <g id="ytick_9">
     <g id="line2d_37">
      <path d="M 170.85 330.145016 
L 773.49 330.145016 
" clip-path="url(#p70bf3a714e)" style="fill: none; stroke: #b0b0b0; stroke-opacity: 0.17; stroke-width: 0.8; stroke-linecap: square"/>
     </g>
     <g id="line2d_38">
      <g>
       <use xlink:href="#md2a6708f80" x="170.85" y="330.145016" style="stroke: #000000; stroke-width: 0.6"/>
      </g>
     </g>
    </g>
    <g id="ytick_10">
     <g id="line2d_39">
      <path d="M 170.85 300.832358 
L 773.49 300.832358 
" clip-path="url(#p70bf3a714e)" style="fill: none; stroke: #b0b0b0; stroke-opacity: 0.17; stroke-width: 0.8; stroke-linecap: square"/>
     </g>
     <g id="line2d_40">
      <g>
       <use xlink:href="#md2a6708f80" x="170.85" y="300.832358" style="stroke: #000000; stroke-width: 0.6"/>
      </g>
     </g>
    </g>
    <g id="ytick_11">
     <g id="line2d_41">
      <path d="M 170.85 280.034696 
L 773.49 280.034696 
" clip-path="url(#p70bf3a714e)" style="fill: none; stroke: #b0b0b0; stroke-opacity: 0.17; stroke-width: 0.8; stroke-linecap: square"/>
     </g>
     <g id="line2d_42">
      <g>
       <use xlink:href="#md2a6708f80" x="170.85" y="280.034696" style="stroke: #000000; stroke-width: 0.6"/>
      </g>
     </g>
    </g>
    <g id="ytick_12">
     <g id="line2d_43">
      <path d="M 170.85 263.902776 
L 773.49 263.902776 
" clip-path="url(#p70bf3a714e)" style="fill: none; stroke: #b0b0b0; stroke-opacity: 0.17; stroke-width: 0.8; stroke-linecap: square"/>
     </g>
     <g id="line2d_44">
      <g>
       <use xlink:href="#md2a6708f80" x="170.85" y="263.902776" style="stroke: #000000; stroke-width: 0.6"/>
      </g>
     </g>
    </g>
    <g id="ytick_13">
     <g id="line2d_45">
      <path d="M 170.85 250.722038 
L 773.49 250.722038 
" clip-path="url(#p70bf3a714e)" style="fill: none; stroke: #b0b0b0; stroke-opacity: 0.17; stroke-width: 0.8; stroke-linecap: square"/>
     </g>
     <g id="line2d_46">
      <g>
       <use xlink:href="#md2a6708f80" x="170.85" y="250.722038" style="stroke: #000000; stroke-width: 0.6"/>
      </g>
     </g>
    </g>
    <g id="ytick_14">
     <g id="line2d_47">
      <path d="M 170.85 239.577883 
L 773.49 239.577883 
" clip-path="url(#p70bf3a714e)" style="fill: none; stroke: #b0b0b0; stroke-opacity: 0.17; stroke-width: 0.8; stroke-linecap: square"/>
     </g>
     <g id="line2d_48">
      <g>
       <use xlink:href="#md2a6708f80" x="170.85" y="239.577883" style="stroke: #000000; stroke-width: 0.6"/>
      </g>
     </g>
    </g>
    <g id="ytick_15">
     <g id="line2d_49">
      <path d="M 170.85 229.924376 
L 773.49 229.924376 
" clip-path="url(#p70bf3a714e)" style="fill: none; stroke: #b0b0b0; stroke-opacity: 0.17; stroke-width: 0.8; stroke-linecap: square"/>
     </g>
     <g id="line2d_50">
      <g>
       <use xlink:href="#md2a6708f80" x="170.85" y="229.924376" style="stroke: #000000; stroke-width: 0.6"/>
      </g>
     </g>
    </g>
    <g id="ytick_16">
     <g id="line2d_51">
      <path d="M 170.85 221.40938 
L 773.49 221.40938 
" clip-path="url(#p70bf3a714e)" style="fill: none; stroke: #b0b0b0; stroke-opacity: 0.17; stroke-width: 0.8; stroke-linecap: square"/>
     </g>
     <g id="line2d_52">
      <g>
       <use xlink:href="#md2a6708f80" x="170.85" y="221.40938" style="stroke: #000000; stroke-width: 0.6"/>
      </g>
     </g>
    </g>
    <g id="ytick_17">
     <g id="line2d_53">
      <path d="M 170.85 163.682136 
L 773.49 163.682136 
" clip-path="url(#p70bf3a714e)" style="fill: none; stroke: #b0b0b0; stroke-opacity: 0.17; stroke-width: 0.8; stroke-linecap: square"/>
     </g>
     <g id="line2d_54">
      <g>
       <use xlink:href="#md2a6708f80" x="170.85" y="163.682136" style="stroke: #000000; stroke-width: 0.6"/>
      </g>
     </g>
    </g>
    <g id="ytick_18">
     <g id="line2d_55">
      <path d="M 170.85 134.369478 
L 773.49 134.369478 
" clip-path="url(#p70bf3a714e)" style="fill: none; stroke: #b0b0b0; stroke-opacity: 0.17; stroke-width: 0.8; stroke-linecap: square"/>
     </g>
     <g id="line2d_56">
      <g>
       <use xlink:href="#md2a6708f80" x="170.85" y="134.369478" style="stroke: #000000; stroke-width: 0.6"/>
      </g>
     </g>
    </g>
    <g id="ytick_19">
     <g id="line2d_57">
      <path d="M 170.85 113.571816 
L 773.49 113.571816 
" clip-path="url(#p70bf3a714e)" style="fill: none; stroke: #b0b0b0; stroke-opacity: 0.17; stroke-width: 0.8; stroke-linecap: square"/>
     </g>
     <g id="line2d_58">
      <g>
       <use xlink:href="#md2a6708f80" x="170.85" y="113.571816" style="stroke: #000000; stroke-width: 0.6"/>
      </g>
     </g>
    </g>
    <g id="ytick_20">
     <g id="line2d_59">
      <path d="M 170.85 97.439896 
L 773.49 97.439896 
" clip-path="url(#p70bf3a714e)" style="fill: none; stroke: #b0b0b0; stroke-opacity: 0.17; stroke-width: 0.8; stroke-linecap: square"/>
     </g>
     <g id="line2d_60">
      <g>
       <use xlink:href="#md2a6708f80" x="170.85" y="97.439896" style="stroke: #000000; stroke-width: 0.6"/>
      </g>
     </g>
    </g>
    <g id="ytick_21">
     <g id="line2d_61">
      <path d="M 170.85 84.259158 
L 773.49 84.259158 
" clip-path="url(#p70bf3a714e)" style="fill: none; stroke: #b0b0b0; stroke-opacity: 0.17; stroke-width: 0.8; stroke-linecap: square"/>
     </g>
     <g id="line2d_62">
      <g>
       <use xlink:href="#md2a6708f80" x="170.85" y="84.259158" style="stroke: #000000; stroke-width: 0.6"/>
      </g>
     </g>
    </g>
    <g id="ytick_22">
     <g id="line2d_63">
      <path d="M 170.85 73.115003 
L 773.49 73.115003 
" clip-path="url(#p70bf3a714e)" style="fill: none; stroke: #b0b0b0; stroke-opacity: 0.17; stroke-width: 0.8; stroke-linecap: square"/>
     </g>
     <g id="line2d_64">
      <g>
       <use xlink:href="#md2a6708f80" x="170.85" y="73.115003" style="stroke: #000000; stroke-width: 0.6"/>
      </g>
     </g>
    </g>
    <g id="ytick_23">
     <g id="line2d_65">
      <path d="M 170.85 63.461496 
L 773.49 63.461496 
" clip-path="url(#p70bf3a714e)" style="fill: none; stroke: #b0b0b0; stroke-opacity: 0.17; stroke-width: 0.8; stroke-linecap: square"/>
     </g>
     <g id="line2d_66">
      <g>
       <use xlink:href="#md2a6708f80" x="170.85" y="63.461496" style="stroke: #000000; stroke-width: 0.6"/>
      </g>
     </g>
    </g>
    <g id="ytick_24">
     <g id="line2d_67">
      <path d="M 170.85 54.9465 
L 773.49 54.9465 
" clip-path="url(#p70bf3a714e)" style="fill: none; stroke: #b0b0b0; stroke-opacity: 0.17; stroke-width: 0.8; stroke-linecap: square"/>
     </g>
     <g id="line2d_68">
      <g>
       <use xlink:href="#md2a6708f80" x="170.85" y="54.9465" style="stroke: #000000; stroke-width: 0.6"/>
      </g>
     </g>
    </g>
    <g id="text_11">
     <!-- mobilità elettronica (cm$^2$ V$^{-1}$ s$^{-1}$) -->
     <g transform="translate(140.170312 315.031656) rotate(-90) scale(0.1 -0.1)">
      <defs>
       <path id="DejaVuSans-6f" d="M 1959 3097 
Q 1497 3097 1228 2736 
Q 959 2375 959 1747 
Q 959 1119 1226 758 
Q 1494 397 1959 397 
Q 2419 397 2687 759 
Q 2956 1122 2956 1747 
Q 2956 2369 2687 2733 
Q 2419 3097 1959 3097 
z
M 1959 3584 
Q 2709 3584 3137 3096 
Q 3566 2609 3566 1747 
Q 3566 888 3137 398 
Q 2709 -91 1959 -91 
Q 1206 -91 779 398 
Q 353 888 353 1747 
Q 353 2609 779 3096 
Q 1206 3584 1959 3584 
z
" transform="scale(0.015625)"/>
       <path id="DejaVuSans-62" d="M 3116 1747 
Q 3116 2381 2855 2742 
Q 2594 3103 2138 3103 
Q 1681 3103 1420 2742 
Q 1159 2381 1159 1747 
Q 1159 1113 1420 752 
Q 1681 391 2138 391 
Q 2594 391 2855 752 
Q 3116 1113 3116 1747 
z
M 1159 2969 
Q 1341 3281 1617 3432 
Q 1894 3584 2278 3584 
Q 2916 3584 3314 3078 
Q 3713 2572 3713 1747 
Q 3713 922 3314 415 
Q 2916 -91 2278 -91 
Q 1894 -91 1617 61 
Q 1341 213 1159 525 
L 1159 0 
L 581 0 
L 581 4863 
L 1159 4863 
L 1159 2969 
z
" transform="scale(0.015625)"/>
       <path id="DejaVuSans-69" d="M 603 3500 
L 1178 3500 
L 1178 0 
L 603 0 
L 603 3500 
z
M 603 4863 
L 1178 4863 
L 1178 4134 
L 603 4134 
L 603 4863 
z
" transform="scale(0.015625)"/>
       <path id="DejaVuSans-6c" d="M 603 4863 
L 1178 4863 
L 1178 0 
L 603 0 
L 603 4863 
z
" transform="scale(0.015625)"/>
       <path id="DejaVuSans-e0" d="M 2194 1759 
Q 1497 1759 1228 1600 
Q 959 1441 959 1056 
Q 959 750 1161 570 
Q 1363 391 1709 391 
Q 2188 391 2477 730 
Q 2766 1069 2766 1631 
L 2766 1759 
L 2194 1759 
z
M 3341 1997 
L 3341 0 
L 2766 0 
L 2766 531 
Q 2569 213 2275 61 
Q 1981 -91 1556 -91 
Q 1019 -91 701 211 
Q 384 513 384 1019 
Q 384 1609 779 1909 
Q 1175 2209 1959 2209 
L 2766 2209 
L 2766 2266 
Q 2766 2663 2505 2880 
Q 2244 3097 1772 3097 
Q 1472 3097 1187 3025 
Q 903 2953 641 2809 
L 641 3341 
Q 956 3463 1253 3523 
Q 1550 3584 1831 3584 
Q 2591 3584 2966 3190 
Q 3341 2797 3341 1997 
z
M 1403 5119 
L 2284 3950 
L 1806 3950 
L 787 5119 
L 1403 5119 
z
" transform="scale(0.015625)"/>
       <path id="DejaVuSans-6e" d="M 3513 2113 
L 3513 0 
L 2938 0 
L 2938 2094 
Q 2938 2591 2744 2837 
Q 2550 3084 2163 3084 
Q 1697 3084 1428 2787 
Q 1159 2491 1159 1978 
L 1159 0 
L 581 0 
L 581 3500 
L 1159 3500 
L 1159 2956 
Q 1366 3272 1645 3428 
Q 1925 3584 2291 3584 
Q 2894 3584 3203 3211 
Q 3513 2838 3513 2113 
z
" transform="scale(0.015625)"/>
       <path id="DejaVuSans-63" d="M 3122 3366 
L 3122 2828 
Q 2878 2963 2633 3030 
Q 2388 3097 2138 3097 
Q 1578 3097 1268 2742 
Q 959 2388 959 1747 
Q 959 1106 1268 751 
Q 1578 397 2138 397 
Q 2388 397 2633 464 
Q 2878 531 3122 666 
L 3122 134 
Q 2881 22 2623 -34 
Q 2366 -91 2075 -91 
Q 1284 -91 818 406 
Q 353 903 353 1747 
Q 353 2603 823 3093 
Q 1294 3584 2113 3584 
Q 2378 3584 2631 3529 
Q 2884 3475 3122 3366 
z
" transform="scale(0.015625)"/>
       <path id="DejaVuSans-56" d="M 1831 0 
L 50 4666 
L 709 4666 
L 2188 738 
L 3669 4666 
L 4325 4666 
L 2547 0 
L 1831 0 
z
" transform="scale(0.015625)"/>
       <path id="DejaVuSans-2212" d="M 678 2272 
L 4684 2272 
L 4684 1741 
L 678 1741 
L 678 2272 
z
" transform="scale(0.015625)"/>
       <path id="DejaVuSans-73" d="M 2834 3397 
L 2834 2853 
Q 2591 2978 2328 3040 
Q 2066 3103 1784 3103 
Q 1356 3103 1142 2972 
Q 928 2841 928 2578 
Q 928 2378 1081 2264 
Q 1234 2150 1697 2047 
L 1894 2003 
Q 2506 1872 2764 1633 
Q 3022 1394 3022 966 
Q 3022 478 2636 193 
Q 2250 -91 1575 -91 
Q 1294 -91 989 -36 
Q 684 19 347 128 
L 347 722 
Q 666 556 975 473 
Q 1284 391 1588 391 
Q 1994 391 2212 530 
Q 2431 669 2431 922 
Q 2431 1156 2273 1281 
Q 2116 1406 1581 1522 
L 1381 1569 
Q 847 1681 609 1914 
Q 372 2147 372 2553 
Q 372 3047 722 3315 
Q 1072 3584 1716 3584 
Q 2034 3584 2315 3537 
Q 2597 3491 2834 3397 
z
" transform="scale(0.015625)"/>
      </defs>
      <use xlink:href="#DejaVuSans-6d" transform="translate(0 0.765625)"/>
      <use xlink:href="#DejaVuSans-6f" transform="translate(97.412109 0.765625)"/>
      <use xlink:href="#DejaVuSans-62" transform="translate(158.59375 0.765625)"/>
      <use xlink:href="#DejaVuSans-69" transform="translate(222.070312 0.765625)"/>
      <use xlink:href="#DejaVuSans-6c" transform="translate(249.853516 0.765625)"/>
      <use xlink:href="#DejaVuSans-69" transform="translate(277.636719 0.765625)"/>
      <use xlink:href="#DejaVuSans-74" transform="translate(305.419922 0.765625)"/>
      <use xlink:href="#DejaVuSans-e0" transform="translate(344.628906 0.765625)"/>
      <use xlink:href="#DejaVuSans-20" transform="translate(405.908203 0.765625)"/>
      <use xlink:href="#DejaVuSans-65" transform="translate(437.695312 0.765625)"/>
      <use xlink:href="#DejaVuSans-6c" transform="translate(499.21875 0.765625)"/>
      <use xlink:href="#DejaVuSans-65" transform="translate(527.001953 0.765625)"/>
      <use xlink:href="#DejaVuSans-74" transform="translate(588.525391 0.765625)"/>
      <use xlink:href="#DejaVuSans-74" transform="translate(627.734375 0.765625)"/>
      <use xlink:href="#DejaVuSans-72" transform="translate(666.943359 0.765625)"/>
      <use xlink:href="#DejaVuSans-6f" transform="translate(708.056641 0.765625)"/>
      <use xlink:href="#DejaVuSans-6e" transform="translate(769.238281 0.765625)"/>
      <use xlink:href="#DejaVuSans-69" transform="translate(832.617188 0.765625)"/>
      <use xlink:href="#DejaVuSans-63" transform="translate(860.400391 0.765625)"/>
      <use xlink:href="#DejaVuSans-61" transform="translate(915.380859 0.765625)"/>
      <use xlink:href="#DejaVuSans-20" transform="translate(976.660156 0.765625)"/>
      <use xlink:href="#DejaVuSans-28" transform="translate(1008.447266 0.765625)"/>
      <use xlink:href="#DejaVuSans-63" transform="translate(1047.460938 0.765625)"/>
      <use xlink:href="#DejaVuSans-6d" transform="translate(1102.441406 0.765625)"/>
      <use xlink:href="#DejaVuSans-32" transform="translate(1200.810547 39.046875) scale(0.7)"/>
      <use xlink:href="#DejaVuSans-20" transform="translate(1248.081055 0.765625)"/>
      <use xlink:href="#DejaVuSans-56" transform="translate(1279.868164 0.765625)"/>
      <use xlink:href="#DejaVuSans-2212" transform="translate(1349.233398 39.046875) scale(0.7)"/>
      <use xlink:href="#DejaVuSans-31" transform="translate(1407.885742 39.046875) scale(0.7)"/>
      <use xlink:href="#DejaVuSans-20" transform="translate(1455.15625 0.765625)"/>
      <use xlink:href="#DejaVuSans-73" transform="translate(1486.943359 0.765625)"/>
      <use xlink:href="#DejaVuSans-2212" transform="translate(1540 39.046875) scale(0.7)"/>
      <use xlink:href="#DejaVuSans-31" transform="translate(1598.652344 39.046875) scale(0.7)"/>
      <use xlink:href="#DejaVuSans-29" transform="translate(1645.922852 0.765625)"/>
     </g>
    </g>
   </g>
   <g id="line2d_69">
    <path d="M 170.85 52.62382 
L 181.409399 55.071579 
L 192.723041 57.935098 
L 204.036683 61.024658 
L 216.104568 64.543729 
L 228.926696 68.507135 
L 243.257309 73.175727 
L 258.342165 78.323958 
L 274.935507 84.220209 
L 293.791577 91.164303 
L 314.910375 99.187405 
L 339.046145 108.601212 
L 367.707372 120.028951 
L 402.402541 134.111975 
L 446.902866 152.427029 
L 508.750776 178.139126 
L 609.819312 220.426995 
L 773.49 289.100413 
L 773.49 289.100413 
" clip-path="url(#p70bf3a714e)" style="fill: none; stroke: #1f77b4; stroke-width: 2.4; stroke-linecap: square"/>
   </g>
   <g id="line2d_70">
    <path d="M 170.85 95.604802 
L 179.146671 96.053332 
L 187.443342 96.709965 
L 196.494255 97.655591 
L 205.545169 98.830731 
L 214.596083 100.224402 
L 224.401239 101.967225 
L 234.206395 103.937244 
L 244.765795 106.294691 
L 255.325194 108.877387 
L 266.638836 111.872347 
L 278.706721 115.301153 
L 291.528849 119.179918 
L 305.105219 123.519082 
L 320.190075 128.582146 
L 336.783417 134.400173 
L 354.885244 140.992596 
L 375.2498 148.655351 
L 398.631327 157.703504 
L 425.784068 168.461095 
L 458.216508 181.558509 
L 498.94562 198.25561 
L 554.005344 221.082222 
L 638.480538 256.369364 
L 773.49 312.982657 
L 773.49 312.982657 
" clip-path="url(#p70bf3a714e)" style="fill: none; stroke: #ff7f0e; stroke-width: 2.4; stroke-linecap: square"/>
   </g>
   <g id="line2d_71">
    <path d="M 170.85 178.627521 
L 179.900914 176.500027 
L 188.951827 174.612783 
L 197.248498 173.101313 
L 205.545169 171.804672 
L 213.84184 170.727338 
L 222.138511 169.872527 
L 230.435181 169.242123 
L 238.731852 168.836622 
L 247.028523 168.655129 
L 255.325194 168.695376 
L 263.621865 168.953777 
L 271.918536 169.425513 
L 280.215207 170.104648 
L 289.26612 171.0739 
L 298.317034 172.271597 
L 307.367947 173.686673 
L 317.173104 175.451315 
L 326.97826 177.441686 
L 337.53766 179.819392 
L 348.097059 182.420641 
L 359.410701 185.433635 
L 371.478586 188.879666 
L 384.300713 192.7746 
L 397.877084 197.128676 
L 412.96194 202.205914 
L 429.555282 208.036972 
L 447.657109 214.640996 
L 468.021665 222.3141 
L 491.403191 231.37132 
L 518.555932 242.136564 
L 550.988373 255.240215 
L 592.471727 272.253335 
L 648.285695 295.400411 
L 734.269374 331.325012 
L 773.49 347.758892 
L 773.49 347.758892 
" clip-path="url(#p70bf3a714e)" style="fill: none; stroke: #2ca02c; stroke-width: 2.4; stroke-linecap: square"/>
   </g>
   <g id="line2d_72">
    <path d="M 170.85 366.233736 
L 188.951827 357.310487 
L 205.545169 349.370083 
L 220.630025 342.39135 
L 234.206395 336.340801 
L 247.028523 330.857971 
L 259.096408 325.931218 
L 270.41005 321.542926 
L 280.969449 317.669776 
L 291.528849 314.031732 
L 301.334005 310.881435 
L 311.139161 307.966714 
L 320.190075 305.498455 
L 329.240989 303.255206 
L 338.291902 301.247414 
L 346.588573 299.621777 
L 354.885244 298.208053 
L 363.181915 297.011358 
L 371.478586 296.035605 
L 379.775257 295.283406 
L 388.071927 294.756015 
L 396.368598 294.45329 
L 404.665269 294.373702 
L 412.96194 294.514371 
L 421.258611 294.871133 
L 429.555282 295.438644 
L 438.606195 296.29055 
L 447.657109 297.376064 
L 456.708023 298.684559 
L 466.513179 300.340427 
L 476.318335 302.229222 
L 486.123492 304.33517 
L 496.682891 306.827708 
L 507.996533 309.734898 
L 520.064418 313.07975 
L 532.886546 316.879609 
L 546.462916 321.145897 
L 560.793529 325.884215 
L 576.632628 331.360644 
L 593.980213 337.599475 
L 613.590526 344.898657 
L 635.463567 353.283682 
L 661.107822 363.362518 
L 691.277534 375.467417 
L 728.989675 390.851199 
L 773.49 409.22667 
L 773.49 409.22667 
" clip-path="url(#p70bf3a714e)" style="fill: none; stroke: #d62728; stroke-width: 2.4; stroke-linecap: square"/>
   </g>
   <g id="line2d_73">
    <path d="M 175.512306 484.709344 
L 205.545169 468.777266 
L 231.189424 455.419255 
L 253.062466 444.272793 
L 271.918536 434.902876 
L 289.26612 426.528553 
L 305.105219 419.133715 
L 319.435832 412.689376 
L 332.25796 407.154146 
L 344.325845 402.17169 
L 355.639487 397.725217 
L 366.953129 393.519997 
L 377.512528 389.834094 
L 387.317685 386.635858 
L 397.122841 383.669897 
L 406.173755 381.151527 
L 415.224668 378.855636 
L 424.275582 376.792891 
L 433.326496 374.972906 
L 441.623166 373.524974 
L 449.919837 372.293332 
L 458.216508 371.282093 
L 466.513179 370.494081 
L 474.80985 369.930769 
L 483.106521 369.59224 
L 491.403191 369.477184 
L 499.699862 369.582933 
L 507.996533 369.905522 
L 516.293204 370.439788 
L 525.344118 371.256673 
L 534.395031 372.308638 
L 543.445945 373.585196 
L 552.496859 375.075003 
L 562.302015 376.915719 
L 572.107171 378.976955 
L 582.666571 381.425112 
L 593.980213 384.289018 
L 605.293855 387.378928 
L 617.36174 390.898334 
L 630.183867 394.862052 
L 644.514481 399.530947 
L 659.599337 404.679448 
L 676.192678 410.575947 
L 695.048748 417.52027 
L 716.167547 425.543573 
L 740.303317 434.957553 
L 768.964543 446.385439 
L 773.49 448.209074 
L 773.49 448.209074 
" clip-path="url(#p70bf3a714e)" style="fill: none; stroke: #9467bd; stroke-width: 2.4; stroke-linecap: square"/>
   </g>
   <g id="patch_3">
    <path d="M 170.85 430.365656 
L 170.85 31.197656 
" style="fill: none; stroke: #000000; stroke-width: 0.8; stroke-linejoin: miter; stroke-linecap: square"/>
   </g>
   <g id="patch_4">
    <path d="M 773.49 430.365656 
L 773.49 31.197656 
" style="fill: none; stroke: #000000; stroke-width: 0.8; stroke-linejoin: miter; stroke-linecap: square"/>
   </g>
   <g id="patch_5">
    <path d="M 170.85 430.365656 
L 773.49 430.365656 
" style="fill: none; stroke: #000000; stroke-width: 0.8; stroke-linejoin: miter; stroke-linecap: square"/>
   </g>
   <g id="patch_6">
    <path d="M 170.85 31.197656 
L 773.49 31.197656 
" style="fill: none; stroke: #000000; stroke-width: 0.8; stroke-linejoin: miter; stroke-linecap: square"/>
   </g>
   <g id="text_12">
    <g id="patch_7">
     <path d="M 690.204206 87.98552 
L 713.1228 87.98552 
L 713.1228 66.303957 
L 690.204206 66.303957 
z
" style="fill: #ffffff; stroke: #666666; stroke-linejoin: miter"/>
    </g>
    <!-- Si -->
    <g transform="translate(694.754206 80.731926) scale(0.13 -0.13)">
     <defs>
      <path id="DejaVuSans-Bold-53" d="M 3834 4519 
L 3834 3531 
Q 3450 3703 3084 3790 
Q 2719 3878 2394 3878 
Q 1963 3878 1756 3759 
Q 1550 3641 1550 3391 
Q 1550 3203 1689 3098 
Q 1828 2994 2194 2919 
L 2706 2816 
Q 3484 2659 3812 2340 
Q 4141 2022 4141 1434 
Q 4141 663 3683 286 
Q 3225 -91 2284 -91 
Q 1841 -91 1394 -6 
Q 947 78 500 244 
L 500 1259 
Q 947 1022 1364 901 
Q 1781 781 2169 781 
Q 2563 781 2772 912 
Q 2981 1044 2981 1288 
Q 2981 1506 2839 1625 
Q 2697 1744 2272 1838 
L 1806 1941 
Q 1106 2091 782 2419 
Q 459 2747 459 3303 
Q 459 4000 909 4375 
Q 1359 4750 2203 4750 
Q 2588 4750 2994 4692 
Q 3400 4634 3834 4519 
z
" transform="scale(0.015625)"/>
      <path id="DejaVuSans-Bold-69" d="M 538 3500 
L 1656 3500 
L 1656 0 
L 538 0 
L 538 3500 
z
M 538 4863 
L 1656 4863 
L 1656 3950 
L 538 3950 
L 538 4863 
z
" transform="scale(0.015625)"/>
     </defs>
     <use xlink:href="#DejaVuSans-Bold-53"/>
     <use xlink:href="#DejaVuSans-Bold-69" transform="translate(72.021484 0)"/>
    </g>
   </g>
   <g id="patch_8">
    <path d="M 486.417011 187.13682 
Q 546.043928 227.19982 604.835632 266.701645 
" style="fill: none; stroke: #000000; stroke-width: 0.9; stroke-linecap: round"/>
    <path d="M 602.807246 263.122028 
L 604.835632 266.701645 
L 600.754908 266.176583 
z
" style="fill: #1f77b4; stroke: #000000; stroke-width: 0.9; stroke-linecap: round"/>
   </g>
   <g id="text_13">
    <!-- scattering fononico -->
    <g transform="translate(430.807059 182.109294) scale(0.092 -0.092)">
     <defs>
      <path id="DejaVuSans-67" d="M 2906 1791 
Q 2906 2416 2648 2759 
Q 2391 3103 1925 3103 
Q 1463 3103 1205 2759 
Q 947 2416 947 1791 
Q 947 1169 1205 825 
Q 1463 481 1925 481 
Q 2391 481 2648 825 
Q 2906 1169 2906 1791 
z
M 3481 434 
Q 3481 -459 3084 -895 
Q 2688 -1331 1869 -1331 
Q 1566 -1331 1297 -1286 
Q 1028 -1241 775 -1147 
L 775 -588 
Q 1028 -725 1275 -790 
Q 1522 -856 1778 -856 
Q 2344 -856 2625 -561 
Q 2906 -266 2906 331 
L 2906 616 
Q 2728 306 2450 153 
Q 2172 0 1784 0 
Q 1141 0 747 490 
Q 353 981 353 1791 
Q 353 2603 747 3093 
Q 1141 3584 1784 3584 
Q 2172 3584 2450 3431 
Q 2728 3278 2906 2969 
L 2906 3500 
L 3481 3500 
L 3481 434 
z
" transform="scale(0.015625)"/>
      <path id="DejaVuSans-66" d="M 2375 4863 
L 2375 4384 
L 1825 4384 
Q 1516 4384 1395 4259 
Q 1275 4134 1275 3809 
L 1275 3500 
L 2222 3500 
L 2222 3053 
L 1275 3053 
L 1275 0 
L 697 0 
L 697 3053 
L 147 3053 
L 147 3500 
L 697 3500 
L 697 3744 
Q 697 4328 969 4595 
Q 1241 4863 1831 4863 
L 2375 4863 
z
" transform="scale(0.015625)"/>
     </defs>
     <use xlink:href="#DejaVuSans-73"/>
     <use xlink:href="#DejaVuSans-63" transform="translate(52.099609 0)"/>
     <use xlink:href="#DejaVuSans-61" transform="translate(107.080078 0)"/>
     <use xlink:href="#DejaVuSans-74" transform="translate(168.359375 0)"/>
     <use xlink:href="#DejaVuSans-74" transform="translate(207.568359 0)"/>
     <use xlink:href="#DejaVuSans-65" transform="translate(246.777344 0)"/>
     <use xlink:href="#DejaVuSans-72" transform="translate(308.300781 0)"/>
     <use xlink:href="#DejaVuSans-69" transform="translate(349.414062 0)"/>
     <use xlink:href="#DejaVuSans-6e" transform="translate(377.197266 0)"/>
     <use xlink:href="#DejaVuSans-67" transform="translate(440.576172 0)"/>
     <use xlink:href="#DejaVuSans-20" transform="translate(504.052734 0)"/>
     <use xlink:href="#DejaVuSans-66" transform="translate(535.839844 0)"/>
     <use xlink:href="#DejaVuSans-6f" transform="translate(571.044922 0)"/>
     <use xlink:href="#DejaVuSans-6e" transform="translate(632.226562 0)"/>
     <use xlink:href="#DejaVuSans-6f" transform="translate(695.605469 0)"/>
     <use xlink:href="#DejaVuSans-6e" transform="translate(756.787109 0)"/>
     <use xlink:href="#DejaVuSans-69" transform="translate(820.166016 0)"/>
     <use xlink:href="#DejaVuSans-63" transform="translate(847.949219 0)"/>
     <use xlink:href="#DejaVuSans-6f" transform="translate(902.929688 0)"/>
    </g>
   </g>
   <g id="patch_9">
    <path d="M 251.762323 324.14267 
Q 268.165044 353.182294 284.072892 381.345789 
" style="fill: none; stroke: #000000; stroke-width: 0.9; stroke-linecap: round"/>
    <path d="M 283.865135 377.236673 
L 284.072892 381.345789 
L 280.660945 379.046526 
z
" style="fill: #1f77b4; stroke: #000000; stroke-width: 0.9; stroke-linecap: round"/>
   </g>
   <g id="text_14">
    <!-- scattering da impurità -->
    <g transform="translate(195.794888 318.486311) scale(0.092 -0.092)">
     <defs>
      <path id="DejaVuSans-64" d="M 2906 2969 
L 2906 4863 
L 3481 4863 
L 3481 0 
L 2906 0 
L 2906 525 
Q 2725 213 2448 61 
Q 2172 -91 1784 -91 
Q 1150 -91 751 415 
Q 353 922 353 1747 
Q 353 2572 751 3078 
Q 1150 3584 1784 3584 
Q 2172 3584 2448 3432 
Q 2725 3281 2906 2969 
z
M 947 1747 
Q 947 1113 1208 752 
Q 1469 391 1925 391 
Q 2381 391 2643 752 
Q 2906 1113 2906 1747 
Q 2906 2381 2643 2742 
Q 2381 3103 1925 3103 
Q 1469 3103 1208 2742 
Q 947 2381 947 1747 
z
" transform="scale(0.015625)"/>
     </defs>
     <use xlink:href="#DejaVuSans-73"/>
     <use xlink:href="#DejaVuSans-63" transform="translate(52.099609 0)"/>
     <use xlink:href="#DejaVuSans-61" transform="translate(107.080078 0)"/>
     <use xlink:href="#DejaVuSans-74" transform="translate(168.359375 0)"/>
     <use xlink:href="#DejaVuSans-74" transform="translate(207.568359 0)"/>
     <use xlink:href="#DejaVuSans-65" transform="translate(246.777344 0)"/>
     <use xlink:href="#DejaVuSans-72" transform="translate(308.300781 0)"/>
     <use xlink:href="#DejaVuSans-69" transform="translate(349.414062 0)"/>
     <use xlink:href="#DejaVuSans-6e" transform="translate(377.197266 0)"/>
     <use xlink:href="#DejaVuSans-67" transform="translate(440.576172 0)"/>
     <use xlink:href="#DejaVuSans-20" transform="translate(504.052734 0)"/>
     <use xlink:href="#DejaVuSans-64" transform="translate(535.839844 0)"/>
     <use xlink:href="#DejaVuSans-61" transform="translate(599.316406 0)"/>
     <use xlink:href="#DejaVuSans-20" transform="translate(660.595703 0)"/>
     <use xlink:href="#DejaVuSans-69" transform="translate(692.382812 0)"/>
     <use xlink:href="#DejaVuSans-6d" transform="translate(720.166016 0)"/>
     <use xlink:href="#DejaVuSans-70" transform="translate(817.578125 0)"/>
     <use xlink:href="#DejaVuSans-75" transform="translate(881.054688 0)"/>
     <use xlink:href="#DejaVuSans-72" transform="translate(944.433594 0)"/>
     <use xlink:href="#DejaVuSans-69" transform="translate(985.546875 0)"/>
     <use xlink:href="#DejaVuSans-74" transform="translate(1013.330078 0)"/>
     <use xlink:href="#DejaVuSans-e0" transform="translate(1052.539062 0)"/>
    </g>
   </g>
   <g id="text_15">
    <!-- Mobilità elettronica in silicio n-drogato -->
    <g transform="translate(307.103203 19.197656) scale(0.15 -0.15)">
     <defs>
      <path id="DejaVuSans-Bold-4d" d="M 588 4666 
L 2119 4666 
L 3181 2169 
L 4250 4666 
L 5778 4666 
L 5778 0 
L 4641 0 
L 4641 3413 
L 3566 897 
L 2803 897 
L 1728 3413 
L 1728 0 
L 588 0 
L 588 4666 
z
" transform="scale(0.015625)"/>
      <path id="DejaVuSans-Bold-6f" d="M 2203 2784 
Q 1831 2784 1636 2517 
Q 1441 2250 1441 1747 
Q 1441 1244 1636 976 
Q 1831 709 2203 709 
Q 2569 709 2762 976 
Q 2956 1244 2956 1747 
Q 2956 2250 2762 2517 
Q 2569 2784 2203 2784 
z
M 2203 3584 
Q 3106 3584 3614 3096 
Q 4122 2609 4122 1747 
Q 4122 884 3614 396 
Q 3106 -91 2203 -91 
Q 1297 -91 786 396 
Q 275 884 275 1747 
Q 275 2609 786 3096 
Q 1297 3584 2203 3584 
z
" transform="scale(0.015625)"/>
      <path id="DejaVuSans-Bold-62" d="M 2400 722 
Q 2759 722 2948 984 
Q 3138 1247 3138 1747 
Q 3138 2247 2948 2509 
Q 2759 2772 2400 2772 
Q 2041 2772 1848 2508 
Q 1656 2244 1656 1747 
Q 1656 1250 1848 986 
Q 2041 722 2400 722 
z
M 1656 2988 
Q 1888 3294 2169 3439 
Q 2450 3584 2816 3584 
Q 3463 3584 3878 3070 
Q 4294 2556 4294 1747 
Q 4294 938 3878 423 
Q 3463 -91 2816 -91 
Q 2450 -91 2169 54 
Q 1888 200 1656 506 
L 1656 0 
L 538 0 
L 538 4863 
L 1656 4863 
L 1656 2988 
z
" transform="scale(0.015625)"/>
      <path id="DejaVuSans-Bold-6c" d="M 538 4863 
L 1656 4863 
L 1656 0 
L 538 0 
L 538 4863 
z
" transform="scale(0.015625)"/>
      <path id="DejaVuSans-Bold-74" d="M 1759 4494 
L 1759 3500 
L 2913 3500 
L 2913 2700 
L 1759 2700 
L 1759 1216 
Q 1759 972 1856 886 
Q 1953 800 2241 800 
L 2816 800 
L 2816 0 
L 1856 0 
Q 1194 0 917 276 
Q 641 553 641 1216 
L 641 2700 
L 84 2700 
L 84 3500 
L 641 3500 
L 641 4494 
L 1759 4494 
z
" transform="scale(0.015625)"/>
      <path id="DejaVuSans-Bold-e0" d="M 2106 1575 
Q 1756 1575 1579 1456 
Q 1403 1338 1403 1106 
Q 1403 894 1545 773 
Q 1688 653 1941 653 
Q 2256 653 2472 879 
Q 2688 1106 2688 1447 
L 2688 1575 
L 2106 1575 
z
M 3816 1997 
L 3816 0 
L 2688 0 
L 2688 519 
Q 2463 200 2181 54 
Q 1900 -91 1497 -91 
Q 953 -91 614 226 
Q 275 544 275 1050 
Q 275 1666 698 1953 
Q 1122 2241 2028 2241 
L 2688 2241 
L 2688 2328 
Q 2688 2594 2478 2717 
Q 2269 2841 1825 2841 
Q 1466 2841 1156 2769 
Q 847 2697 581 2553 
L 581 3406 
Q 941 3494 1303 3539 
Q 1666 3584 2028 3584 
Q 2975 3584 3395 3211 
Q 3816 2838 3816 1997 
z
M 1762 5119 
L 2643 3944 
L 2031 3944 
L 878 5119 
L 1762 5119 
z
" transform="scale(0.015625)"/>
      <path id="DejaVuSans-Bold-20" transform="scale(0.015625)"/>
      <path id="DejaVuSans-Bold-65" d="M 4031 1759 
L 4031 1441 
L 1416 1441 
Q 1456 1047 1700 850 
Q 1944 653 2381 653 
Q 2734 653 3104 758 
Q 3475 863 3866 1075 
L 3866 213 
Q 3469 63 3072 -14 
Q 2675 -91 2278 -91 
Q 1328 -91 801 392 
Q 275 875 275 1747 
Q 275 2603 792 3093 
Q 1309 3584 2216 3584 
Q 3041 3584 3536 3087 
Q 4031 2591 4031 1759 
z
M 2881 2131 
Q 2881 2450 2695 2645 
Q 2509 2841 2209 2841 
Q 1884 2841 1681 2658 
Q 1478 2475 1428 2131 
L 2881 2131 
z
" transform="scale(0.015625)"/>
      <path id="DejaVuSans-Bold-72" d="M 3138 2547 
Q 2991 2616 2845 2648 
Q 2700 2681 2553 2681 
Q 2122 2681 1889 2404 
Q 1656 2128 1656 1613 
L 1656 0 
L 538 0 
L 538 3500 
L 1656 3500 
L 1656 2925 
Q 1872 3269 2151 3426 
Q 2431 3584 2822 3584 
Q 2878 3584 2943 3579 
Q 3009 3575 3134 3559 
L 3138 2547 
z
" transform="scale(0.015625)"/>
      <path id="DejaVuSans-Bold-6e" d="M 4056 2131 
L 4056 0 
L 2931 0 
L 2931 347 
L 2931 1631 
Q 2931 2084 2911 2256 
Q 2891 2428 2841 2509 
Q 2775 2619 2662 2680 
Q 2550 2741 2406 2741 
Q 2056 2741 1856 2470 
Q 1656 2200 1656 1722 
L 1656 0 
L 538 0 
L 538 3500 
L 1656 3500 
L 1656 2988 
Q 1909 3294 2193 3439 
Q 2478 3584 2822 3584 
Q 3428 3584 3742 3212 
Q 4056 2841 4056 2131 
z
" transform="scale(0.015625)"/>
      <path id="DejaVuSans-Bold-63" d="M 3366 3391 
L 3366 2478 
Q 3138 2634 2908 2709 
Q 2678 2784 2431 2784 
Q 1963 2784 1702 2511 
Q 1441 2238 1441 1747 
Q 1441 1256 1702 982 
Q 1963 709 2431 709 
Q 2694 709 2930 787 
Q 3166 866 3366 1019 
L 3366 103 
Q 3103 6 2833 -42 
Q 2563 -91 2291 -91 
Q 1344 -91 809 395 
Q 275 881 275 1747 
Q 275 2613 809 3098 
Q 1344 3584 2291 3584 
Q 2566 3584 2833 3536 
Q 3100 3488 3366 3391 
z
" transform="scale(0.015625)"/>
      <path id="DejaVuSans-Bold-61" d="M 2106 1575 
Q 1756 1575 1579 1456 
Q 1403 1338 1403 1106 
Q 1403 894 1545 773 
Q 1688 653 1941 653 
Q 2256 653 2472 879 
Q 2688 1106 2688 1447 
L 2688 1575 
L 2106 1575 
z
M 3816 1997 
L 3816 0 
L 2688 0 
L 2688 519 
Q 2463 200 2181 54 
Q 1900 -91 1497 -91 
Q 953 -91 614 226 
Q 275 544 275 1050 
Q 275 1666 698 1953 
Q 1122 2241 2028 2241 
L 2688 2241 
L 2688 2328 
Q 2688 2594 2478 2717 
Q 2269 2841 1825 2841 
Q 1466 2841 1156 2769 
Q 847 2697 581 2553 
L 581 3406 
Q 941 3494 1303 3539 
Q 1666 3584 2028 3584 
Q 2975 3584 3395 3211 
Q 3816 2838 3816 1997 
z
" transform="scale(0.015625)"/>
      <path id="DejaVuSans-Bold-73" d="M 3272 3391 
L 3272 2541 
Q 2913 2691 2578 2766 
Q 2244 2841 1947 2841 
Q 1628 2841 1473 2761 
Q 1319 2681 1319 2516 
Q 1319 2381 1436 2309 
Q 1553 2238 1856 2203 
L 2053 2175 
Q 2913 2066 3209 1816 
Q 3506 1566 3506 1031 
Q 3506 472 3093 190 
Q 2681 -91 1863 -91 
Q 1516 -91 1145 -36 
Q 775 19 384 128 
L 384 978 
Q 719 816 1070 734 
Q 1422 653 1784 653 
Q 2113 653 2278 743 
Q 2444 834 2444 1013 
Q 2444 1163 2330 1236 
Q 2216 1309 1875 1350 
L 1678 1375 
Q 931 1469 631 1722 
Q 331 1975 331 2491 
Q 331 3047 712 3315 
Q 1094 3584 1881 3584 
Q 2191 3584 2531 3537 
Q 2872 3491 3272 3391 
z
" transform="scale(0.015625)"/>
      <path id="DejaVuSans-Bold-2d" d="M 347 2297 
L 2309 2297 
L 2309 1388 
L 347 1388 
L 347 2297 
z
" transform="scale(0.015625)"/>
      <path id="DejaVuSans-Bold-64" d="M 2919 2988 
L 2919 4863 
L 4044 4863 
L 4044 0 
L 2919 0 
L 2919 506 
Q 2688 197 2409 53 
Q 2131 -91 1766 -91 
Q 1119 -91 703 423 
Q 288 938 288 1747 
Q 288 2556 703 3070 
Q 1119 3584 1766 3584 
Q 2128 3584 2408 3439 
Q 2688 3294 2919 2988 
z
M 2181 722 
Q 2541 722 2730 984 
Q 2919 1247 2919 1747 
Q 2919 2247 2730 2509 
Q 2541 2772 2181 2772 
Q 1825 2772 1636 2509 
Q 1447 2247 1447 1747 
Q 1447 1247 1636 984 
Q 1825 722 2181 722 
z
" transform="scale(0.015625)"/>
      <path id="DejaVuSans-Bold-67" d="M 2919 594 
Q 2688 288 2409 144 
Q 2131 0 1766 0 
Q 1125 0 706 504 
Q 288 1009 288 1791 
Q 288 2575 706 3076 
Q 1125 3578 1766 3578 
Q 2131 3578 2409 3434 
Q 2688 3291 2919 2981 
L 2919 3500 
L 4044 3500 
L 4044 353 
Q 4044 -491 3511 -936 
Q 2978 -1381 1966 -1381 
Q 1638 -1381 1331 -1331 
Q 1025 -1281 716 -1178 
L 716 -306 
Q 1009 -475 1290 -558 
Q 1572 -641 1856 -641 
Q 2406 -641 2662 -400 
Q 2919 -159 2919 353 
L 2919 594 
z
M 2181 2772 
Q 1834 2772 1640 2515 
Q 1447 2259 1447 1791 
Q 1447 1309 1634 1061 
Q 1822 813 2181 813 
Q 2531 813 2725 1069 
Q 2919 1325 2919 1791 
Q 2919 2259 2725 2515 
Q 2531 2772 2181 2772 
z
" transform="scale(0.015625)"/>
     </defs>
     <use xlink:href="#DejaVuSans-Bold-4d"/>
     <use xlink:href="#DejaVuSans-Bold-6f" transform="translate(99.511719 0)"/>
     <use xlink:href="#DejaVuSans-Bold-62" transform="translate(168.212891 0)"/>
     <use xlink:href="#DejaVuSans-Bold-69" transform="translate(239.794922 0)"/>
     <use xlink:href="#DejaVuSans-Bold-6c" transform="translate(274.072266 0)"/>
     <use xlink:href="#DejaVuSans-Bold-69" transform="translate(308.349609 0)"/>
     <use xlink:href="#DejaVuSans-Bold-74" transform="translate(342.626953 0)"/>
     <use xlink:href="#DejaVuSans-Bold-e0" transform="translate(390.429688 0)"/>
     <use xlink:href="#DejaVuSans-Bold-20" transform="translate(457.910156 0)"/>
     <use xlink:href="#DejaVuSans-Bold-65" transform="translate(492.724609 0)"/>
     <use xlink:href="#DejaVuSans-Bold-6c" transform="translate(560.546875 0)"/>
     <use xlink:href="#DejaVuSans-Bold-65" transform="translate(594.824219 0)"/>
     <use xlink:href="#DejaVuSans-Bold-74" transform="translate(662.646484 0)"/>
     <use xlink:href="#DejaVuSans-Bold-74" transform="translate(710.449219 0)"/>
     <use xlink:href="#DejaVuSans-Bold-72" transform="translate(758.251953 0)"/>
     <use xlink:href="#DejaVuSans-Bold-6f" transform="translate(807.568359 0)"/>
     <use xlink:href="#DejaVuSans-Bold-6e" transform="translate(876.269531 0)"/>
     <use xlink:href="#DejaVuSans-Bold-69" transform="translate(947.460938 0)"/>
     <use xlink:href="#DejaVuSans-Bold-63" transform="translate(981.738281 0)"/>
     <use xlink:href="#DejaVuSans-Bold-61" transform="translate(1041.015625 0)"/>
     <use xlink:href="#DejaVuSans-Bold-20" transform="translate(1108.496094 0)"/>
     <use xlink:href="#DejaVuSans-Bold-69" transform="translate(1143.310547 0)"/>
     <use xlink:href="#DejaVuSans-Bold-6e" transform="translate(1177.587891 0)"/>
     <use xlink:href="#DejaVuSans-Bold-20" transform="translate(1248.779297 0)"/>
     <use xlink:href="#DejaVuSans-Bold-73" transform="translate(1283.59375 0)"/>
     <use xlink:href="#DejaVuSans-Bold-69" transform="translate(1343.115234 0)"/>
     <use xlink:href="#DejaVuSans-Bold-6c" transform="translate(1377.392578 0)"/>
     <use xlink:href="#DejaVuSans-Bold-69" transform="translate(1411.669922 0)"/>
     <use xlink:href="#DejaVuSans-Bold-63" transform="translate(1445.947266 0)"/>
     <use xlink:href="#DejaVuSans-Bold-69" transform="translate(1505.224609 0)"/>
     <use xlink:href="#DejaVuSans-Bold-6f" transform="translate(1539.501953 0)"/>
     <use xlink:href="#DejaVuSans-Bold-20" transform="translate(1608.203125 0)"/>
     <use xlink:href="#DejaVuSans-Bold-6e" transform="translate(1643.017578 0)"/>
     <use xlink:href="#DejaVuSans-Bold-2d" transform="translate(1714.208984 0)"/>
     <use xlink:href="#DejaVuSans-Bold-64" transform="translate(1755.712891 0)"/>
     <use xlink:href="#DejaVuSans-Bold-72" transform="translate(1827.294922 0)"/>
     <use xlink:href="#DejaVuSans-Bold-6f" transform="translate(1876.611328 0)"/>
     <use xlink:href="#DejaVuSans-Bold-67" transform="translate(1945.3125 0)"/>
     <use xlink:href="#DejaVuSans-Bold-61" transform="translate(2016.894531 0)"/>
     <use xlink:href="#DejaVuSans-Bold-74" transform="translate(2084.375 0)"/>
     <use xlink:href="#DejaVuSans-Bold-6f" transform="translate(2132.177734 0)"/>
    </g>
   </g>
   <g id="legend_1">
    <g id="text_16">
     <!-- concentrazione di donatori -->
     <g transform="translate(178.77 355.948594) scale(0.092 -0.092)">
      <defs>
       <path id="DejaVuSans-7a" d="M 353 3500 
L 3084 3500 
L 3084 2975 
L 922 459 
L 3084 459 
L 3084 0 
L 275 0 
L 275 525 
L 2438 3041 
L 353 3041 
L 353 3500 
z
" transform="scale(0.015625)"/>
      </defs>
      <use xlink:href="#DejaVuSans-63"/>
      <use xlink:href="#DejaVuSans-6f" transform="translate(54.980469 0)"/>
      <use xlink:href="#DejaVuSans-6e" transform="translate(116.162109 0)"/>
      <use xlink:href="#DejaVuSans-63" transform="translate(179.541016 0)"/>
      <use xlink:href="#DejaVuSans-65" transform="translate(234.521484 0)"/>
      <use xlink:href="#DejaVuSans-6e" transform="translate(296.044922 0)"/>
      <use xlink:href="#DejaVuSans-74" transform="translate(359.423828 0)"/>
      <use xlink:href="#DejaVuSans-72" transform="translate(398.632812 0)"/>
      <use xlink:href="#DejaVuSans-61" transform="translate(439.746094 0)"/>
      <use xlink:href="#DejaVuSans-7a" transform="translate(501.025391 0)"/>
      <use xlink:href="#DejaVuSans-69" transform="translate(553.515625 0)"/>
      <use xlink:href="#DejaVuSans-6f" transform="translate(581.298828 0)"/>
      <use xlink:href="#DejaVuSans-6e" transform="translate(642.480469 0)"/>
      <use xlink:href="#DejaVuSans-65" transform="translate(705.859375 0)"/>
      <use xlink:href="#DejaVuSans-20" transform="translate(767.382812 0)"/>
      <use xlink:href="#DejaVuSans-64" transform="translate(799.169922 0)"/>
      <use xlink:href="#DejaVuSans-69" transform="translate(862.646484 0)"/>
      <use xlink:href="#DejaVuSans-20" transform="translate(890.429688 0)"/>
      <use xlink:href="#DejaVuSans-64" transform="translate(922.216797 0)"/>
      <use xlink:href="#DejaVuSans-6f" transform="translate(985.693359 0)"/>
      <use xlink:href="#DejaVuSans-6e" transform="translate(1046.875 0)"/>
      <use xlink:href="#DejaVuSans-61" transform="translate(1110.253906 0)"/>
      <use xlink:href="#DejaVuSans-74" transform="translate(1171.533203 0)"/>
      <use xlink:href="#DejaVuSans-6f" transform="translate(1210.742188 0)"/>
      <use xlink:href="#DejaVuSans-72" transform="translate(1271.923828 0)"/>
      <use xlink:href="#DejaVuSans-69" transform="translate(1313.037109 0)"/>
     </g>
    </g>
    <g id="line2d_74">
     <path d="M 205.600094 365.868531 
L 214.400094 365.868531 
L 223.200094 365.868531 
" style="fill: none; stroke: #1f77b4; stroke-width: 2.4; stroke-linecap: square"/>
    </g>
    <g id="text_17">
     <!-- $10^{14}$ cm$^{-3}$ -->
     <g transform="translate(230.240094 368.948531) scale(0.088 -0.088)">
      <use xlink:href="#DejaVuSans-31" transform="translate(0 0.765625)"/>
      <use xlink:href="#DejaVuSans-30" transform="translate(63.623047 0.765625)"/>
      <use xlink:href="#DejaVuSans-31" transform="translate(128.203125 39.046875) scale(0.7)"/>
      <use xlink:href="#DejaVuSans-34" transform="translate(172.739258 39.046875) scale(0.7)"/>
      <use xlink:href="#DejaVuSans-20" transform="translate(220.009766 0.765625)"/>
      <use xlink:href="#DejaVuSans-63" transform="translate(251.796875 0.765625)"/>
      <use xlink:href="#DejaVuSans-6d" transform="translate(306.777344 0.765625)"/>
      <use xlink:href="#DejaVuSans-2212" transform="translate(405.146484 39.046875) scale(0.7)"/>
      <use xlink:href="#DejaVuSans-33" transform="translate(463.798828 39.046875) scale(0.7)"/>
     </g>
    </g>
    <g id="line2d_75">
     <path d="M 205.600094 378.785281 
L 214.400094 378.785281 
L 223.200094 378.785281 
" style="fill: none; stroke: #ff7f0e; stroke-width: 2.4; stroke-linecap: square"/>
    </g>
    <g id="text_18">
     <!-- $10^{16}$ cm$^{-3}$ -->
     <g transform="translate(230.240094 381.865281) scale(0.088 -0.088)">
      <use xlink:href="#DejaVuSans-31" transform="translate(0 0.765625)"/>
      <use xlink:href="#DejaVuSans-30" transform="translate(63.623047 0.765625)"/>
      <use xlink:href="#DejaVuSans-31" transform="translate(128.203125 39.046875) scale(0.7)"/>
      <use xlink:href="#DejaVuSans-36" transform="translate(172.739258 39.046875) scale(0.7)"/>
      <use xlink:href="#DejaVuSans-20" transform="translate(220.009766 0.765625)"/>
      <use xlink:href="#DejaVuSans-63" transform="translate(251.796875 0.765625)"/>
      <use xlink:href="#DejaVuSans-6d" transform="translate(306.777344 0.765625)"/>
      <use xlink:href="#DejaVuSans-2212" transform="translate(405.146484 39.046875) scale(0.7)"/>
      <use xlink:href="#DejaVuSans-33" transform="translate(463.798828 39.046875) scale(0.7)"/>
     </g>
    </g>
    <g id="line2d_76">
     <path d="M 205.600094 391.702031 
L 214.400094 391.702031 
L 223.200094 391.702031 
" style="fill: none; stroke: #2ca02c; stroke-width: 2.4; stroke-linecap: square"/>
    </g>
    <g id="text_19">
     <!-- $10^{17}$ cm$^{-3}$ -->
     <g transform="translate(230.240094 394.782031) scale(0.088 -0.088)">
      <defs>
       <path id="DejaVuSans-37" d="M 525 4666 
L 3525 4666 
L 3525 4397 
L 1831 0 
L 1172 0 
L 2766 4134 
L 525 4134 
L 525 4666 
z
" transform="scale(0.015625)"/>
      </defs>
      <use xlink:href="#DejaVuSans-31" transform="translate(0 0.765625)"/>
      <use xlink:href="#DejaVuSans-30" transform="translate(63.623047 0.765625)"/>
      <use xlink:href="#DejaVuSans-31" transform="translate(128.203125 39.046875) scale(0.7)"/>
      <use xlink:href="#DejaVuSans-37" transform="translate(172.739258 39.046875) scale(0.7)"/>
      <use xlink:href="#DejaVuSans-20" transform="translate(220.009766 0.765625)"/>
      <use xlink:href="#DejaVuSans-63" transform="translate(251.796875 0.765625)"/>
      <use xlink:href="#DejaVuSans-6d" transform="translate(306.777344 0.765625)"/>
      <use xlink:href="#DejaVuSans-2212" transform="translate(405.146484 39.046875) scale(0.7)"/>
      <use xlink:href="#DejaVuSans-33" transform="translate(463.798828 39.046875) scale(0.7)"/>
     </g>
    </g>
    <g id="line2d_77">
     <path d="M 205.600094 404.618781 
L 214.400094 404.618781 
L 223.200094 404.618781 
" style="fill: none; stroke: #d62728; stroke-width: 2.4; stroke-linecap: square"/>
    </g>
    <g id="text_20">
     <!-- $10^{18}$ cm$^{-3}$ -->
     <g transform="translate(230.240094 407.698781) scale(0.088 -0.088)">
      <defs>
       <path id="DejaVuSans-38" d="M 2034 2216 
Q 1584 2216 1326 1975 
Q 1069 1734 1069 1313 
Q 1069 891 1326 650 
Q 1584 409 2034 409 
Q 2484 409 2743 651 
Q 3003 894 3003 1313 
Q 3003 1734 2745 1975 
Q 2488 2216 2034 2216 
z
M 1403 2484 
Q 997 2584 770 2862 
Q 544 3141 544 3541 
Q 544 4100 942 4425 
Q 1341 4750 2034 4750 
Q 2731 4750 3128 4425 
Q 3525 4100 3525 3541 
Q 3525 3141 3298 2862 
Q 3072 2584 2669 2484 
Q 3125 2378 3379 2068 
Q 3634 1759 3634 1313 
Q 3634 634 3220 271 
Q 2806 -91 2034 -91 
Q 1263 -91 848 271 
Q 434 634 434 1313 
Q 434 1759 690 2068 
Q 947 2378 1403 2484 
z
M 1172 3481 
Q 1172 3119 1398 2916 
Q 1625 2713 2034 2713 
Q 2441 2713 2670 2916 
Q 2900 3119 2900 3481 
Q 2900 3844 2670 4047 
Q 2441 4250 2034 4250 
Q 1625 4250 1398 4047 
Q 1172 3844 1172 3481 
z
" transform="scale(0.015625)"/>
      </defs>
      <use xlink:href="#DejaVuSans-31" transform="translate(0 0.765625)"/>
      <use xlink:href="#DejaVuSans-30" transform="translate(63.623047 0.765625)"/>
      <use xlink:href="#DejaVuSans-31" transform="translate(128.203125 39.046875) scale(0.7)"/>
      <use xlink:href="#DejaVuSans-38" transform="translate(172.739258 39.046875) scale(0.7)"/>
      <use xlink:href="#DejaVuSans-20" transform="translate(220.009766 0.765625)"/>
      <use xlink:href="#DejaVuSans-63" transform="translate(251.796875 0.765625)"/>
      <use xlink:href="#DejaVuSans-6d" transform="translate(306.777344 0.765625)"/>
      <use xlink:href="#DejaVuSans-2212" transform="translate(405.146484 39.046875) scale(0.7)"/>
      <use xlink:href="#DejaVuSans-33" transform="translate(463.798828 39.046875) scale(0.7)"/>
     </g>
    </g>
    <g id="line2d_78">
     <path d="M 205.600094 417.535531 
L 214.400094 417.535531 
L 223.200094 417.535531 
" style="fill: none; stroke: #9467bd; stroke-width: 2.4; stroke-linecap: square"/>
    </g>
    <g id="text_21">
     <!-- $10^{19}$ cm$^{-3}$ -->
     <g transform="translate(230.240094 420.615531) scale(0.088 -0.088)">
      <defs>
       <path id="DejaVuSans-39" d="M 703 97 
L 703 672 
Q 941 559 1184 500 
Q 1428 441 1663 441 
Q 2288 441 2617 861 
Q 2947 1281 2994 2138 
Q 2813 1869 2534 1725 
Q 2256 1581 1919 1581 
Q 1219 1581 811 2004 
Q 403 2428 403 3163 
Q 403 3881 828 4315 
Q 1253 4750 1959 4750 
Q 2769 4750 3195 4129 
Q 3622 3509 3622 2328 
Q 3622 1225 3098 567 
Q 2575 -91 1691 -91 
Q 1453 -91 1209 -44 
Q 966 3 703 97 
z
M 1959 2075 
Q 2384 2075 2632 2365 
Q 2881 2656 2881 3163 
Q 2881 3666 2632 3958 
Q 2384 4250 1959 4250 
Q 1534 4250 1286 3958 
Q 1038 3666 1038 3163 
Q 1038 2656 1286 2365 
Q 1534 2075 1959 2075 
z
" transform="scale(0.015625)"/>
      </defs>
      <use xlink:href="#DejaVuSans-31" transform="translate(0 0.765625)"/>
      <use xlink:href="#DejaVuSans-30" transform="translate(63.623047 0.765625)"/>
      <use xlink:href="#DejaVuSans-31" transform="translate(128.203125 39.046875) scale(0.7)"/>
      <use xlink:href="#DejaVuSans-39" transform="translate(172.739258 39.046875) scale(0.7)"/>
      <use xlink:href="#DejaVuSans-20" transform="translate(220.009766 0.765625)"/>
      <use xlink:href="#DejaVuSans-63" transform="translate(251.796875 0.765625)"/>
      <use xlink:href="#DejaVuSans-6d" transform="translate(306.777344 0.765625)"/>
      <use xlink:href="#DejaVuSans-2212" transform="translate(405.146484 39.046875) scale(0.7)"/>
      <use xlink:href="#DejaVuSans-33" transform="translate(463.798828 39.046875) scale(0.7)"/>
     </g>
    </g>
   </g>
  </g>
  <g id="text_22">
   <!-- Curve sintetiche qualitative: a basso drogaggio domina la diminuzione fononica con T; ad alto drogaggio emerge un massimo dovuto alla competizione con lo scattering da impurità. -->
   <g transform="translate(7.2 474.429656) scale(0.1 -0.1)">
    <defs>
     <path id="DejaVuSans-43" d="M 4122 4306 
L 4122 3641 
Q 3803 3938 3442 4084 
Q 3081 4231 2675 4231 
Q 1875 4231 1450 3742 
Q 1025 3253 1025 2328 
Q 1025 1406 1450 917 
Q 1875 428 2675 428 
Q 3081 428 3442 575 
Q 3803 722 4122 1019 
L 4122 359 
Q 3791 134 3420 21 
Q 3050 -91 2638 -91 
Q 1578 -91 968 557 
Q 359 1206 359 2328 
Q 359 3453 968 4101 
Q 1578 4750 2638 4750 
Q 3056 4750 3426 4639 
Q 3797 4528 4122 4306 
z
" transform="scale(0.015625)"/>
     <path id="DejaVuSans-76" d="M 191 3500 
L 800 3500 
L 1894 563 
L 2988 3500 
L 3597 3500 
L 2284 0 
L 1503 0 
L 191 3500 
z
" transform="scale(0.015625)"/>
     <path id="DejaVuSans-68" d="M 3513 2113 
L 3513 0 
L 2938 0 
L 2938 2094 
Q 2938 2591 2744 2837 
Q 2550 3084 2163 3084 
Q 1697 3084 1428 2787 
Q 1159 2491 1159 1978 
L 1159 0 
L 581 0 
L 581 4863 
L 1159 4863 
L 1159 2956 
Q 1366 3272 1645 3428 
Q 1925 3584 2291 3584 
Q 2894 3584 3203 3211 
Q 3513 2838 3513 2113 
z
" transform="scale(0.015625)"/>
     <path id="DejaVuSans-71" d="M 947 1747 
Q 947 1113 1208 752 
Q 1469 391 1925 391 
Q 2381 391 2643 752 
Q 2906 1113 2906 1747 
Q 2906 2381 2643 2742 
Q 2381 3103 1925 3103 
Q 1469 3103 1208 2742 
Q 947 2381 947 1747 
z
M 2906 525 
Q 2725 213 2448 61 
Q 2172 -91 1784 -91 
Q 1150 -91 751 415 
Q 353 922 353 1747 
Q 353 2572 751 3078 
Q 1150 3584 1784 3584 
Q 2172 3584 2448 3432 
Q 2725 3281 2906 2969 
L 2906 3500 
L 3481 3500 
L 3481 -1331 
L 2906 -1331 
L 2906 525 
z
" transform="scale(0.015625)"/>
     <path id="DejaVuSans-3a" d="M 750 794 
L 1409 794 
L 1409 0 
L 750 0 
L 750 794 
z
M 750 3309 
L 1409 3309 
L 1409 2516 
L 750 2516 
L 750 3309 
z
" transform="scale(0.015625)"/>
     <path id="DejaVuSans-54" d="M -19 4666 
L 3928 4666 
L 3928 4134 
L 2272 4134 
L 2272 0 
L 1638 0 
L 1638 4134 
L -19 4134 
L -19 4666 
z
" transform="scale(0.015625)"/>
     <path id="DejaVuSans-3b" d="M 750 3309 
L 1409 3309 
L 1409 2516 
L 750 2516 
L 750 3309 
z
M 750 794 
L 1409 794 
L 1409 256 
L 897 -744 
L 494 -744 
L 750 256 
L 750 794 
z
" transform="scale(0.015625)"/>
     <path id="DejaVuSans-2e" d="M 684 794 
L 1344 794 
L 1344 0 
L 684 0 
L 684 794 
z
" transform="scale(0.015625)"/>
    </defs>
    <use xlink:href="#DejaVuSans-43"/>
    <use xlink:href="#DejaVuSans-75" transform="translate(69.824219 0)"/>
    <use xlink:href="#DejaVuSans-72" transform="translate(133.203125 0)"/>
    <use xlink:href="#DejaVuSans-76" transform="translate(174.316406 0)"/>
    <use xlink:href="#DejaVuSans-65" transform="translate(233.496094 0)"/>
    <use xlink:href="#DejaVuSans-20" transform="translate(295.019531 0)"/>
    <use xlink:href="#DejaVuSans-73" transform="translate(326.806641 0)"/>
    <use xlink:href="#DejaVuSans-69" transform="translate(378.90625 0)"/>
    <use xlink:href="#DejaVuSans-6e" transform="translate(406.689453 0)"/>
    <use xlink:href="#DejaVuSans-74" transform="translate(470.068359 0)"/>
    <use xlink:href="#DejaVuSans-65" transform="translate(509.277344 0)"/>
    <use xlink:href="#DejaVuSans-74" transform="translate(570.800781 0)"/>
    <use xlink:href="#DejaVuSans-69" transform="translate(610.009766 0)"/>
    <use xlink:href="#DejaVuSans-63" transform="translate(637.792969 0)"/>
    <use xlink:href="#DejaVuSans-68" transform="translate(692.773438 0)"/>
    <use xlink:href="#DejaVuSans-65" transform="translate(756.152344 0)"/>
    <use xlink:href="#DejaVuSans-20" transform="translate(817.675781 0)"/>
    <use xlink:href="#DejaVuSans-71" transform="translate(849.462891 0)"/>
    <use xlink:href="#DejaVuSans-75" transform="translate(912.939453 0)"/>
    <use xlink:href="#DejaVuSans-61" transform="translate(976.318359 0)"/>
    <use xlink:href="#DejaVuSans-6c" transform="translate(1037.597656 0)"/>
    <use xlink:href="#DejaVuSans-69" transform="translate(1065.380859 0)"/>
    <use xlink:href="#DejaVuSans-74" transform="translate(1093.164062 0)"/>
    <use xlink:href="#DejaVuSans-61" transform="translate(1132.373047 0)"/>
    <use xlink:href="#DejaVuSans-74" transform="translate(1193.652344 0)"/>
    <use xlink:href="#DejaVuSans-69" transform="translate(1232.861328 0)"/>
    <use xlink:href="#DejaVuSans-76" transform="translate(1260.644531 0)"/>
    <use xlink:href="#DejaVuSans-65" transform="translate(1319.824219 0)"/>
    <use xlink:href="#DejaVuSans-3a" transform="translate(1381.347656 0)"/>
    <use xlink:href="#DejaVuSans-20" transform="translate(1415.039062 0)"/>
    <use xlink:href="#DejaVuSans-61" transform="translate(1446.826172 0)"/>
    <use xlink:href="#DejaVuSans-20" transform="translate(1508.105469 0)"/>
    <use xlink:href="#DejaVuSans-62" transform="translate(1539.892578 0)"/>
    <use xlink:href="#DejaVuSans-61" transform="translate(1603.369141 0)"/>
    <use xlink:href="#DejaVuSans-73" transform="translate(1664.648438 0)"/>
    <use xlink:href="#DejaVuSans-73" transform="translate(1716.748047 0)"/>
    <use xlink:href="#DejaVuSans-6f" transform="translate(1768.847656 0)"/>
    <use xlink:href="#DejaVuSans-20" transform="translate(1830.029297 0)"/>
    <use xlink:href="#DejaVuSans-64" transform="translate(1861.816406 0)"/>
    <use xlink:href="#DejaVuSans-72" transform="translate(1925.292969 0)"/>
    <use xlink:href="#DejaVuSans-6f" transform="translate(1964.15625 0)"/>
    <use xlink:href="#DejaVuSans-67" transform="translate(2025.337891 0)"/>
    <use xlink:href="#DejaVuSans-61" transform="translate(2088.814453 0)"/>
    <use xlink:href="#DejaVuSans-67" transform="translate(2150.09375 0)"/>
    <use xlink:href="#DejaVuSans-67" transform="translate(2213.570312 0)"/>
    <use xlink:href="#DejaVuSans-69" transform="translate(2277.046875 0)"/>
    <use xlink:href="#DejaVuSans-6f" transform="translate(2304.830078 0)"/>
    <use xlink:href="#DejaVuSans-20" transform="translate(2366.011719 0)"/>
    <use xlink:href="#DejaVuSans-64" transform="translate(2397.798828 0)"/>
    <use xlink:href="#DejaVuSans-6f" transform="translate(2461.275391 0)"/>
    <use xlink:href="#DejaVuSans-6d" transform="translate(2522.457031 0)"/>
    <use xlink:href="#DejaVuSans-69" transform="translate(2619.869141 0)"/>
    <use xlink:href="#DejaVuSans-6e" transform="translate(2647.652344 0)"/>
    <use xlink:href="#DejaVuSans-61" transform="translate(2711.03125 0)"/>
    <use xlink:href="#DejaVuSans-20" transform="translate(2772.310547 0)"/>
    <use xlink:href="#DejaVuSans-6c" transform="translate(2804.097656 0)"/>
    <use xlink:href="#DejaVuSans-61" transform="translate(2831.880859 0)"/>
    <use xlink:href="#DejaVuSans-20" transform="translate(2893.160156 0)"/>
    <use xlink:href="#DejaVuSans-64" transform="translate(2924.947266 0)"/>
    <use xlink:href="#DejaVuSans-69" transform="translate(2988.423828 0)"/>
    <use xlink:href="#DejaVuSans-6d" transform="translate(3016.207031 0)"/>
    <use xlink:href="#DejaVuSans-69" transform="translate(3113.619141 0)"/>
    <use xlink:href="#DejaVuSans-6e" transform="translate(3141.402344 0)"/>
    <use xlink:href="#DejaVuSans-75" transform="translate(3204.78125 0)"/>
    <use xlink:href="#DejaVuSans-7a" transform="translate(3268.160156 0)"/>
    <use xlink:href="#DejaVuSans-69" transform="translate(3320.650391 0)"/>
    <use xlink:href="#DejaVuSans-6f" transform="translate(3348.433594 0)"/>
    <use xlink:href="#DejaVuSans-6e" transform="translate(3409.615234 0)"/>
    <use xlink:href="#DejaVuSans-65" transform="translate(3472.994141 0)"/>
    <use xlink:href="#DejaVuSans-20" transform="translate(3534.517578 0)"/>
    <use xlink:href="#DejaVuSans-66" transform="translate(3566.304688 0)"/>
    <use xlink:href="#DejaVuSans-6f" transform="translate(3601.509766 0)"/>
    <use xlink:href="#DejaVuSans-6e" transform="translate(3662.691406 0)"/>
    <use xlink:href="#DejaVuSans-6f" transform="translate(3726.070312 0)"/>
    <use xlink:href="#DejaVuSans-6e" transform="translate(3787.251953 0)"/>
    <use xlink:href="#DejaVuSans-69" transform="translate(3850.630859 0)"/>
    <use xlink:href="#DejaVuSans-63" transform="translate(3878.414062 0)"/>
    <use xlink:href="#DejaVuSans-61" transform="translate(3933.394531 0)"/>
    <use xlink:href="#DejaVuSans-20" transform="translate(3994.673828 0)"/>
    <use xlink:href="#DejaVuSans-63" transform="translate(4026.460938 0)"/>
    <use xlink:href="#DejaVuSans-6f" transform="translate(4081.441406 0)"/>
    <use xlink:href="#DejaVuSans-6e" transform="translate(4142.623047 0)"/>
    <use xlink:href="#DejaVuSans-20" transform="translate(4206.001953 0)"/>
    <use xlink:href="#DejaVuSans-54" transform="translate(4237.789062 0)"/>
    <use xlink:href="#DejaVuSans-3b" transform="translate(4298.873047 0)"/>
    <use xlink:href="#DejaVuSans-20" transform="translate(4332.564453 0)"/>
    <use xlink:href="#DejaVuSans-61" transform="translate(4364.351562 0)"/>
    <use xlink:href="#DejaVuSans-64" transform="translate(4425.630859 0)"/>
    <use xlink:href="#DejaVuSans-20" transform="translate(4489.107422 0)"/>
    <use xlink:href="#DejaVuSans-61" transform="translate(4520.894531 0)"/>
    <use xlink:href="#DejaVuSans-6c" transform="translate(4582.173828 0)"/>
    <use xlink:href="#DejaVuSans-74" transform="translate(4609.957031 0)"/>
    <use xlink:href="#DejaVuSans-6f" transform="translate(4649.166016 0)"/>
    <use xlink:href="#DejaVuSans-20" transform="translate(4710.347656 0)"/>
    <use xlink:href="#DejaVuSans-64" transform="translate(4742.134766 0)"/>
    <use xlink:href="#DejaVuSans-72" transform="translate(4805.611328 0)"/>
    <use xlink:href="#DejaVuSans-6f" transform="translate(4844.474609 0)"/>
    <use xlink:href="#DejaVuSans-67" transform="translate(4905.65625 0)"/>
    <use xlink:href="#DejaVuSans-61" transform="translate(4969.132812 0)"/>
    <use xlink:href="#DejaVuSans-67" transform="translate(5030.412109 0)"/>
    <use xlink:href="#DejaVuSans-67" transform="translate(5093.888672 0)"/>
    <use xlink:href="#DejaVuSans-69" transform="translate(5157.365234 0)"/>
    <use xlink:href="#DejaVuSans-6f" transform="translate(5185.148438 0)"/>
    <use xlink:href="#DejaVuSans-20" transform="translate(5246.330078 0)"/>
    <use xlink:href="#DejaVuSans-65" transform="translate(5278.117188 0)"/>
    <use xlink:href="#DejaVuSans-6d" transform="translate(5339.640625 0)"/>
    <use xlink:href="#DejaVuSans-65" transform="translate(5437.052734 0)"/>
    <use xlink:href="#DejaVuSans-72" transform="translate(5498.576172 0)"/>
    <use xlink:href="#DejaVuSans-67" transform="translate(5537.939453 0)"/>
    <use xlink:href="#DejaVuSans-65" transform="translate(5601.416016 0)"/>
    <use xlink:href="#DejaVuSans-20" transform="translate(5662.939453 0)"/>
    <use xlink:href="#DejaVuSans-75" transform="translate(5694.726562 0)"/>
    <use xlink:href="#DejaVuSans-6e" transform="translate(5758.105469 0)"/>
    <use xlink:href="#DejaVuSans-20" transform="translate(5821.484375 0)"/>
    <use xlink:href="#DejaVuSans-6d" transform="translate(5853.271484 0)"/>
    <use xlink:href="#DejaVuSans-61" transform="translate(5950.683594 0)"/>
    <use xlink:href="#DejaVuSans-73" transform="translate(6011.962891 0)"/>
    <use xlink:href="#DejaVuSans-73" transform="translate(6064.0625 0)"/>
    <use xlink:href="#DejaVuSans-69" transform="translate(6116.162109 0)"/>
    <use xlink:href="#DejaVuSans-6d" transform="translate(6143.945312 0)"/>
    <use xlink:href="#DejaVuSans-6f" transform="translate(6241.357422 0)"/>
    <use xlink:href="#DejaVuSans-20" transform="translate(6302.539062 0)"/>
    <use xlink:href="#DejaVuSans-64" transform="translate(6334.326172 0)"/>
    <use xlink:href="#DejaVuSans-6f" transform="translate(6397.802734 0)"/>
    <use xlink:href="#DejaVuSans-76" transform="translate(6458.984375 0)"/>
    <use xlink:href="#DejaVuSans-75" transform="translate(6518.164062 0)"/>
    <use xlink:href="#DejaVuSans-74" transform="translate(6581.542969 0)"/>
    <use xlink:href="#DejaVuSans-6f" transform="translate(6620.751953 0)"/>
    <use xlink:href="#DejaVuSans-20" transform="translate(6681.933594 0)"/>
    <use xlink:href="#DejaVuSans-61" transform="translate(6713.720703 0)"/>
    <use xlink:href="#DejaVuSans-6c" transform="translate(6775 0)"/>
    <use xlink:href="#DejaVuSans-6c" transform="translate(6802.783203 0)"/>
    <use xlink:href="#DejaVuSans-61" transform="translate(6830.566406 0)"/>
    <use xlink:href="#DejaVuSans-20" transform="translate(6891.845703 0)"/>
    <use xlink:href="#DejaVuSans-63" transform="translate(6923.632812 0)"/>
    <use xlink:href="#DejaVuSans-6f" transform="translate(6978.613281 0)"/>
    <use xlink:href="#DejaVuSans-6d" transform="translate(7039.794922 0)"/>
    <use xlink:href="#DejaVuSans-70" transform="translate(7137.207031 0)"/>
    <use xlink:href="#DejaVuSans-65" transform="translate(7200.683594 0)"/>
    <use xlink:href="#DejaVuSans-74" transform="translate(7262.207031 0)"/>
    <use xlink:href="#DejaVuSans-69" transform="translate(7301.416016 0)"/>
    <use xlink:href="#DejaVuSans-7a" transform="translate(7329.199219 0)"/>
    <use xlink:href="#DejaVuSans-69" transform="translate(7381.689453 0)"/>
    <use xlink:href="#DejaVuSans-6f" transform="translate(7409.472656 0)"/>
    <use xlink:href="#DejaVuSans-6e" transform="translate(7470.654297 0)"/>
    <use xlink:href="#DejaVuSans-65" transform="translate(7534.033203 0)"/>
    <use xlink:href="#DejaVuSans-20" transform="translate(7595.556641 0)"/>
    <use xlink:href="#DejaVuSans-63" transform="translate(7627.34375 0)"/>
    <use xlink:href="#DejaVuSans-6f" transform="translate(7682.324219 0)"/>
    <use xlink:href="#DejaVuSans-6e" transform="translate(7743.505859 0)"/>
    <use xlink:href="#DejaVuSans-20" transform="translate(7806.884766 0)"/>
    <use xlink:href="#DejaVuSans-6c" transform="translate(7838.671875 0)"/>
    <use xlink:href="#DejaVuSans-6f" transform="translate(7866.455078 0)"/>
    <use xlink:href="#DejaVuSans-20" transform="translate(7927.636719 0)"/>
    <use xlink:href="#DejaVuSans-73" transform="translate(7959.423828 0)"/>
    <use xlink:href="#DejaVuSans-63" transform="translate(8011.523438 0)"/>
    <use xlink:href="#DejaVuSans-61" transform="translate(8066.503906 0)"/>
    <use xlink:href="#DejaVuSans-74" transform="translate(8127.783203 0)"/>
    <use xlink:href="#DejaVuSans-74" transform="translate(8166.992188 0)"/>
    <use xlink:href="#DejaVuSans-65" transform="translate(8206.201172 0)"/>
    <use xlink:href="#DejaVuSans-72" transform="translate(8267.724609 0)"/>
    <use xlink:href="#DejaVuSans-69" transform="translate(8308.837891 0)"/>
    <use xlink:href="#DejaVuSans-6e" transform="translate(8336.621094 0)"/>
    <use xlink:href="#DejaVuSans-67" transform="translate(8400 0)"/>
    <use xlink:href="#DejaVuSans-20" transform="translate(8463.476562 0)"/>
    <use xlink:href="#DejaVuSans-64" transform="translate(8495.263672 0)"/>
    <use xlink:href="#DejaVuSans-61" transform="translate(8558.740234 0)"/>
    <use xlink:href="#DejaVuSans-20" transform="translate(8620.019531 0)"/>
    <use xlink:href="#DejaVuSans-69" transform="translate(8651.806641 0)"/>
    <use xlink:href="#DejaVuSans-6d" transform="translate(8679.589844 0)"/>
    <use xlink:href="#DejaVuSans-70" transform="translate(8777.001953 0)"/>
    <use xlink:href="#DejaVuSans-75" transform="translate(8840.478516 0)"/>
    <use xlink:href="#DejaVuSans-72" transform="translate(8903.857422 0)"/>
    <use xlink:href="#DejaVuSans-69" transform="translate(8944.970703 0)"/>
    <use xlink:href="#DejaVuSans-74" transform="translate(8972.753906 0)"/>
    <use xlink:href="#DejaVuSans-e0" transform="translate(9011.962891 0)"/>
    <use xlink:href="#DejaVuSans-2e" transform="translate(9073.242188 0)"/>
   </g>
  </g>
 </g>
 <defs>
  <clipPath id="p70bf3a714e">
   <rect x="170.85" y="31.197656" width="602.64" height="399.168"/>
  </clipPath>
 </defs>
</svg>
