<?xml version="1.0" encoding="utf-8" standalone="no"?>
<!DOCTYPE svg PUBLIC "-//W3C//DTD SVG 1.1//EN"
  "http://www.w3.org/Graphics/SVG/1.1/DTD/svg11.dtd">
<svg xmlns:xlink="http://www.w3.org/1999/xlink" width="552.598125pt" height="441.421344pt" viewBox="0 0 552.598125 441.421344" xmlns="http://www.w3.org/2000/svg" version="1.1">
 <metadata>
  <rdf:RDF xmlns:dc="http://purl.org/dc/elements/1.1/" xmlns:cc="http://creativecommons.org/ns#" xmlns:rdf="http://www.w3.org/1999/02/22-rdf-syntax-ns#">
   <cc:Work>
    <dc:type rdf:resource="http://purl.org/dc/dcmitype/StillImage"/>
    <dc:date>2026-06-16T08:29:32.905185</dc:date>
    <dc:format>image/svg+xml</dc:format>
    <dc:creator>
     <cc:Agent>
      <dc:title>Matplotlib v3.10.8, https://matplotlib.org/</dc:title>
     </cc:Agent>
    </dc:creator>
   </cc:Work>
  </rdf:RDF>
 </metadata>
 <defs>
  <style type="text/css">*{stroke-linejoin: round; stroke-linecap: butt}</style>
 </defs>
 <g id="figure_1">
  <g id="patch_1">
   <path d="M -0 441.421344 
L 552.598125 441.421344 
L 552.598125 0 
L -0 0 
z
" style="fill: #ffffff"/>
  </g>
  <g id="axes_1">
   <g id="patch_2">
    <path d="M 20.878125 396.501656 
L 545.398125 396.501656 
L 545.398125 30.597656 
L 20.878125 30.597656 
z
" style="fill: #ffffff"/>
   </g>
   <g id="FillBetweenPolyCollection_1">
    <path d="M 41.051971 -84.619557 
L 41.051971 411.682418 
L 42.022256 410.349239 
L 42.992542 409.021414 
L 43.962827 407.698944 
L 44.933112 406.381828 
L 45.903397 405.070066 
L 46.873682 403.763658 
L 47.843967 402.462604 
L 48.814253 401.166904 
L 49.784538 399.876559 
L 50.754823 398.591567 
L 51.725108 397.31193 
L 52.695393 396.037647 
L 53.665679 394.768718 
L 54.635964 393.505143 
L 55.606249 392.246922 
L 56.576534 390.994055 
L 57.546819 389.746543 
L 58.517104 388.504384 
L 59.48739 387.26758 
L 60.457675 386.03613 
L 61.42796 384.810034 
L 62.398245 383.589292 
L 63.36853 382.373904 
L 64.338816 381.163871 
L 65.309101 379.959191 
L 66.279386 378.759866 
L 67.249671 377.565894 
L 68.219956 376.377277 
L 69.190242 375.194014 
L 70.160527 374.016106 
L 71.130812 372.843551 
L 72.101097 371.67635 
L 73.071382 370.514504 
L 74.041667 369.358012 
L 75.011953 368.206873 
L 75.982238 367.061089 
L 76.952523 365.920659 
L 77.922808 364.785584 
L 78.893093 363.655862 
L 79.863379 362.531494 
L 80.833664 361.412481 
L 81.803949 360.298822 
L 82.774234 359.190517 
L 83.744519 358.087566 
L 84.714805 356.989969 
L 85.68509 355.897726 
L 86.655375 354.810837 
L 87.62566 353.729303 
L 88.595945 352.653123 
L 89.56623 351.582296 
L 90.536516 350.516824 
L 91.506801 349.456706 
L 92.477086 348.401943 
L 93.447371 347.352533 
L 94.417656 346.308477 
L 95.387942 345.269776 
L 96.358227 344.236429 
L 97.328512 343.208435 
L 98.298797 342.185796 
L 99.269082 341.168511 
L 100.239367 340.156581 
L 101.209653 339.150004 
L 102.179938 338.148782 
L 103.150223 337.152913 
L 104.120508 336.162399 
L 105.090793 335.177239 
L 106.061079 334.197433 
L 107.031364 333.222981 
L 108.001649 332.253883 
L 108.971934 331.29014 
L 109.942219 330.33175 
L 110.912505 329.378715 
L 111.88279 328.431034 
L 112.853075 327.488707 
L 113.82336 326.551734 
L 114.793645 325.620115 
L 115.76393 324.69385 
L 116.734216 323.77294 
L 117.704501 322.857383 
L 118.674786 321.947181 
L 119.645071 321.042333 
L 120.615356 320.142839 
L 121.585642 319.248699 
L 122.555927 318.359913 
L 123.526212 317.476482 
L 124.496497 316.598404 
L 125.466782 315.725681 
L 126.437068 314.858311 
L 127.407353 313.996296 
L 128.377638 313.139635 
L 129.347923 312.288329 
L 130.318208 311.442376 
L 131.288493 310.601777 
L 132.258779 309.766533 
L 133.229064 308.936643 
L 134.199349 308.112106 
L 135.169634 307.292924 
L 136.139919 306.479096 
L 137.110205 305.670623 
L 138.08049 304.867503 
L 139.050775 304.069737 
L 140.02106 303.277326 
L 140.991345 302.490269 
L 141.96163 301.708566 
L 142.931916 300.932217 
L 143.902201 300.161222 
L 144.872486 299.395581 
L 145.842771 298.635294 
L 146.813056 297.880362 
L 147.783342 297.130784 
L 148.753627 296.386559 
L 149.723912 295.647689 
L 150.694197 294.914173 
L 151.664482 294.186011 
L 152.634768 293.463204 
L 153.605053 292.74575 
L 154.575338 292.033651 
L 155.545623 291.326905 
L 156.515908 290.625514 
L 157.486193 289.929477 
L 158.456479 289.238794 
L 159.426764 288.553466 
L 160.397049 287.873491 
L 161.367334 287.19887 
L 162.337619 286.529604 
L 163.307905 285.865692 
L 164.27819 285.207134 
L 165.248475 284.55393 
L 166.21876 283.90608 
L 167.189045 283.263584 
L 168.15933 282.626442 
L 169.129616 281.994655 
L 170.099901 281.368222 
L 171.070186 280.747142 
L 172.040471 280.131417 
L 173.010756 279.521046 
L 173.981042 278.91603 
L 174.951327 278.316367 
L 175.921612 277.722058 
L 176.891897 277.133104 
L 177.862182 276.549504 
L 178.832468 275.971258 
L 179.802753 275.398366 
L 180.773038 274.830828 
L 181.743323 274.268644 
L 182.713608 273.711814 
L 183.683893 273.160339 
L 184.654179 272.614217 
L 185.624464 272.07345 
L 186.594749 271.538037 
L 187.565034 271.007978 
L 188.535319 270.483273 
L 189.505605 269.963923 
L 190.47589 269.449926 
L 191.446175 268.941283 
L 192.41646 268.437995 
L 193.386745 267.940061 
L 194.357031 267.447481 
L 195.327316 266.960255 
L 196.297601 266.478383 
L 197.267886 266.001866 
L 198.238171 265.530702 
L 199.208456 265.064893 
L 200.178742 264.604437 
L 201.149027 264.149336 
L 202.119312 263.699589 
L 203.089597 263.255196 
L 204.059882 262.816158 
L 205.030168 262.382473 
L 206.000453 261.954142 
L 206.970738 261.531166 
L 207.941023 261.113544 
L 208.911308 260.701276 
L 209.881593 260.294362 
L 210.851879 259.892802 
L 211.822164 259.496596 
L 212.792449 259.105745 
L 213.762734 258.720247 
L 214.733019 258.340104 
L 215.703305 257.965315 
L 216.67359 257.59588 
L 217.643875 257.231799 
L 218.61416 256.873072 
L 219.584445 256.519699 
L 220.554731 256.171681 
L 221.525016 255.829017 
L 222.495301 255.491706 
L 223.465586 255.15975 
L 224.435871 254.833148 
L 225.406156 254.5119 
L 226.376442 254.196007 
L 227.346727 253.885467 
L 228.317012 253.580281 
L 229.287297 253.28045 
L 230.257582 252.985973 
L 231.227868 252.69685 
L 232.198153 252.413081 
L 233.168438 252.134666 
L 234.138723 251.861605 
L 235.109008 251.593899 
L 236.079293 251.331546 
L 237.049579 251.074548 
L 238.019864 250.822904 
L 238.990149 250.576614 
L 239.960434 250.335678 
L 240.930719 250.100096 
L 241.901005 249.869869 
L 242.87129 249.644995 
L 243.841575 249.425476 
L 244.81186 249.211311 
L 245.782145 249.002499 
L 246.752431 248.799042 
L 247.722716 248.60094 
L 248.693001 248.408191 
L 249.663286 248.220796 
L 250.633571 248.038756 
L 251.603856 247.86207 
L 252.574142 247.690737 
L 253.544427 247.524759 
L 254.514712 247.364135 
L 255.484997 247.208866 
L 256.455282 247.05895 
L 257.425568 246.914388 
L 258.395853 246.775181 
L 259.366138 246.641328 
L 260.336423 246.512828 
L 261.306708 246.389683 
L 262.276994 246.271893 
L 263.247279 246.159456 
L 264.217564 246.052373 
L 265.187849 245.950645 
L 266.158134 245.85427 
L 267.128419 245.76325 
L 268.098705 245.677584 
L 269.06899 245.597272 
L 270.039275 245.522314 
L 271.00956 245.452711 
L 271.979845 245.388461 
L 272.950131 245.329566 
L 273.920416 245.276024 
L 274.890701 245.227837 
L 275.860986 245.185004 
L 276.831271 245.147525 
L 277.801556 245.1154 
L 278.771842 245.08863 
L 279.742127 245.067213 
L 280.712412 245.051151 
L 281.682697 245.040442 
L 282.652982 245.035088 
L 283.623268 245.035088 
L 284.593553 245.040442 
L 285.563838 245.051151 
L 286.534123 245.067213 
L 287.504408 245.08863 
L 288.474694 245.1154 
L 289.444979 245.147525 
L 290.415264 245.185004 
L 291.385549 245.227837 
L 292.355834 245.276024 
L 293.326119 245.329566 
L 294.296405 245.388461 
L 295.26669 245.452711 
L 296.236975 245.522314 
L 297.20726 245.597272 
L 298.177545 245.677584 
L 299.147831 245.76325 
L 300.118116 245.85427 
L 301.088401 245.950645 
L 302.058686 246.052373 
L 303.028971 246.159456 
L 303.999256 246.271893 
L 304.969542 246.389683 
L 305.939827 246.512828 
L 306.910112 246.641328 
L 307.880397 246.775181 
L 308.850682 246.914388 
L 309.820968 247.05895 
L 310.791253 247.208866 
L 311.761538 247.364135 
L 312.731823 247.524759 
L 313.702108 247.690737 
L 314.672394 247.86207 
L 315.642679 248.038756 
L 316.612964 248.220796 
L 317.583249 248.408191 
L 318.553534 248.60094 
L 319.523819 248.799042 
L 320.494105 249.002499 
L 321.46439 249.211311 
L 322.434675 249.425476 
L 323.40496 249.644995 
L 324.375245 249.869869 
L 325.345531 250.100096 
L 326.315816 250.335678 
L 327.286101 250.576614 
L 328.256386 250.822904 
L 329.226671 251.074548 
L 330.196957 251.331546 
L 331.167242 251.593899 
L 332.137527 251.861605 
L 333.107812 252.134666 
L 334.078097 252.413081 
L 335.048382 252.69685 
L 336.018668 252.985973 
L 336.988953 253.28045 
L 337.959238 253.580281 
L 338.929523 253.885467 
L 339.899808 254.196007 
L 340.870094 254.5119 
L 341.840379 254.833148 
L 342.810664 255.15975 
L 343.780949 255.491706 
L 344.751234 255.829017 
L 345.721519 256.171681 
L 346.691805 256.519699 
L 347.66209 256.873072 
L 348.632375 257.231799 
L 349.60266 257.59588 
L 350.572945 257.965315 
L 351.543231 258.340104 
L 352.513516 258.720247 
L 353.483801 259.105745 
L 354.454086 259.496596 
L 355.424371 259.892802 
L 356.394657 260.294362 
L 357.364942 260.701276 
L 358.335227 261.113544 
L 359.305512 261.531166 
L 360.275797 261.954142 
L 361.246082 262.382473 
L 362.216368 262.816158 
L 363.186653 263.255196 
L 364.156938 263.699589 
L 365.127223 264.149336 
L 366.097508 264.604437 
L 367.067794 265.064893 
L 368.038079 265.530702 
L 369.008364 266.001866 
L 369.978649 266.478383 
L 370.948934 266.960255 
L 371.919219 267.447481 
L 372.889505 267.940061 
L 373.85979 268.437995 
L 374.830075 268.941283 
L 375.80036 269.449926 
L 376.770645 269.963923 
L 377.740931 270.483273 
L 378.711216 271.007978 
L 379.681501 271.538037 
L 380.651786 272.07345 
L 381.622071 272.614217 
L 382.592357 273.160339 
L 383.562642 273.711814 
L 384.532927 274.268644 
L 385.503212 274.830828 
L 386.473497 275.398366 
L 387.443782 275.971258 
L 388.414068 276.549504 
L 389.384353 277.133104 
L 390.354638 277.722058 
L 391.324923 278.316367 
L 392.295208 278.91603 
L 393.265494 279.521046 
L 394.235779 280.131417 
L 395.206064 280.747142 
L 396.176349 281.368222 
L 397.146634 281.994655 
L 398.11692 282.626442 
L 399.087205 283.263584 
L 400.05749 283.90608 
L 401.027775 284.55393 
L 401.99806 285.207134 
L 402.968345 285.865692 
L 403.938631 286.529604 
L 404.908916 287.19887 
L 405.879201 287.873491 
L 406.849486 288.553466 
L 407.819771 289.238794 
L 408.790057 289.929477 
L 409.760342 290.625514 
L 410.730627 291.326905 
L 411.700912 292.033651 
L 412.671197 292.74575 
L 413.641482 293.463204 
L 414.611768 294.186011 
L 415.582053 294.914173 
L 416.552338 295.647689 
L 417.522623 296.386559 
L 418.492908 297.130784 
L 419.463194 297.880362 
L 420.433479 298.635294 
L 421.403764 299.395581 
L 422.374049 300.161222 
L 423.344334 300.932217 
L 424.31462 301.708566 
L 425.284905 302.490269 
L 426.25519 303.277326 
L 427.225475 304.069737 
L 428.19576 304.867503 
L 429.166045 305.670623 
L 430.136331 306.479096 
L 431.106616 307.292924 
L 432.076901 308.112106 
L 433.047186 308.936643 
L 434.017471 309.766533 
L 434.987757 310.601777 
L 435.958042 311.442376 
L 436.928327 312.288329 
L 437.898612 313.139635 
L 438.868897 313.996296 
L 439.839182 314.858311 
L 440.809468 315.725681 
L 441.779753 316.598404 
L 442.750038 317.476482 
L 443.720323 318.359913 
L 444.690608 319.248699 
L 445.660894 320.142839 
L 446.631179 321.042333 
L 447.601464 321.947181 
L 448.571749 322.857383 
L 449.542034 323.77294 
L 450.51232 324.69385 
L 451.482605 325.620115 
L 452.45289 326.551734 
L 453.423175 327.488707 
L 454.39346 328.431034 
L 455.363745 329.378715 
L 456.334031 330.33175 
L 457.304316 331.29014 
L 458.274601 332.253883 
L 459.244886 333.222981 
L 460.215171 334.197433 
L 461.185457 335.177239 
L 462.155742 336.162399 
L 463.126027 337.152913 
L 464.096312 338.148782 
L 465.066597 339.150004 
L 466.036883 340.156581 
L 467.007168 341.168511 
L 467.977453 342.185796 
L 468.947738 343.208435 
L 469.918023 344.236429 
L 470.888308 345.269776 
L 471.858594 346.308477 
L 472.828879 347.352533 
L 473.799164 348.401943 
L 474.769449 349.456706 
L 475.739734 350.516824 
L 476.71002 351.582296 
L 477.680305 352.653123 
L 478.65059 353.729303 
L 479.620875 354.810837 
L 480.59116 355.897726 
L 481.561445 356.989969 
L 482.531731 358.087566 
L 483.502016 359.190517 
L 484.472301 360.298822 
L 485.442586 361.412481 
L 486.412871 362.531494 
L 487.383157 363.655862 
L 488.353442 364.785584 
L 489.323727 365.920659 
L 490.294012 367.061089 
L 491.264297 368.206873 
L 492.234583 369.358012 
L 493.204868 370.514504 
L 494.175153 371.67635 
L 495.145438 372.843551 
L 496.115723 374.016106 
L 497.086008 375.194014 
L 498.056294 376.377277 
L 499.026579 377.565894 
L 499.996864 378.759866 
L 500.967149 379.959191 
L 501.937434 381.163871 
L 502.90772 382.373904 
L 503.878005 383.589292 
L 504.84829 384.810034 
L 505.818575 386.03613 
L 506.78886 387.26758 
L 507.759146 388.504384 
L 508.729431 389.746543 
L 509.699716 390.994055 
L 510.670001 392.246922 
L 511.640286 393.505143 
L 512.610571 394.768718 
L 513.580857 396.037647 
L 514.551142 397.31193 
L 515.521427 398.591567 
L 516.491712 399.876559 
L 517.461997 401.166904 
L 518.432283 402.462604 
L 519.402568 403.763658 
L 520.372853 405.070066 
L 521.343138 406.381828 
L 522.313423 407.698944 
L 523.283708 409.021414 
L 524.253994 410.349239 
L 525.224279 411.682418 
L 525.224279 -84.619557 
L 525.224279 -84.619557 
L 524.253994 -83.051111 
L 523.283708 -81.488965 
L 522.313423 -79.933117 
L 521.343138 -78.383569 
L 520.372853 -76.840319 
L 519.402568 -75.303369 
L 518.432283 -73.772717 
L 517.461997 -72.248365 
L 516.491712 -70.730311 
L 515.521427 -69.218556 
L 514.551142 -67.713101 
L 513.580857 -66.213944 
L 512.610571 -64.721086 
L 511.640286 -63.234527 
L 510.670001 -61.754268 
L 509.699716 -60.280307 
L 508.729431 -58.812645 
L 507.759146 -57.351282 
L 506.78886 -55.896218 
L 505.818575 -54.447454 
L 504.84829 -53.004988 
L 503.878005 -51.568821 
L 502.90772 -50.138953 
L 501.937434 -48.715384 
L 500.967149 -47.298114 
L 499.996864 -45.887143 
L 499.026579 -44.482471 
L 498.056294 -43.084098 
L 497.086008 -41.692024 
L 496.115723 -40.306249 
L 495.145438 -38.926772 
L 494.175153 -37.553595 
L 493.204868 -36.186717 
L 492.234583 -34.826138 
L 491.264297 -33.471858 
L 490.294012 -32.123876 
L 489.323727 -30.782194 
L 488.353442 -29.446811 
L 487.383157 -28.117727 
L 486.412871 -26.794941 
L 485.442586 -25.478455 
L 484.472301 -24.168268 
L 483.502016 -22.864379 
L 482.531731 -21.56679 
L 481.561445 -20.275499 
L 480.59116 -18.990508 
L 479.620875 -17.711815 
L 478.65059 -16.439422 
L 477.680305 -15.173327 
L 476.71002 -13.913532 
L 475.739734 -12.660035 
L 474.769449 -11.412838 
L 473.799164 -10.171939 
L 472.828879 -8.937339 
L 471.858594 -7.709039 
L 470.888308 -6.487037 
L 469.918023 -5.271334 
L 468.947738 -4.061931 
L 467.977453 -2.858826 
L 467.007168 -1.66202 
L 466.036883 -0.471513 
L 465.066597 0.712694 
L 464.096312 1.890603 
L 463.126027 3.062213 
L 462.155742 4.227524 
L 461.185457 5.386536 
L 460.215171 6.539249 
L 459.244886 7.685663 
L 458.274601 8.825778 
L 457.304316 9.959594 
L 456.334031 11.087111 
L 455.363745 12.208329 
L 454.39346 13.323248 
L 453.423175 14.431868 
L 452.45289 15.534189 
L 451.482605 16.630211 
L 450.51232 17.719934 
L 449.542034 18.803358 
L 448.571749 19.880484 
L 447.601464 20.95131 
L 446.631179 22.015837 
L 445.660894 23.074065 
L 444.690608 24.125995 
L 443.720323 25.171625 
L 442.750038 26.210956 
L 441.779753 27.243989 
L 440.809468 28.270722 
L 439.839182 29.291156 
L 438.868897 30.305292 
L 437.898612 31.313128 
L 436.928327 32.314666 
L 435.958042 33.309904 
L 434.987757 34.298844 
L 434.017471 35.281484 
L 433.047186 36.257826 
L 432.076901 37.227868 
L 431.106616 38.191612 
L 430.136331 39.149056 
L 429.166045 40.100202 
L 428.19576 41.045049 
L 427.225475 41.983596 
L 426.25519 42.915845 
L 425.284905 43.841795 
L 424.31462 44.761446 
L 423.344334 45.674797 
L 422.374049 46.58185 
L 421.403764 47.482604 
L 420.433479 48.377059 
L 419.463194 49.265215 
L 418.492908 50.147071 
L 417.522623 51.022629 
L 416.552338 51.891888 
L 415.582053 52.754848 
L 414.611768 53.611509 
L 413.641482 54.461871 
L 412.671197 55.305934 
L 411.700912 56.143698 
L 410.730627 56.975163 
L 409.760342 57.800329 
L 408.790057 58.619197 
L 407.819771 59.431765 
L 406.849486 60.238034 
L 405.879201 61.038004 
L 404.908916 61.831675 
L 403.938631 62.619047 
L 402.968345 63.400121 
L 401.99806 64.174895 
L 401.027775 64.94337 
L 400.05749 65.705546 
L 399.087205 66.461424 
L 398.11692 67.211002 
L 397.146634 67.954282 
L 396.176349 68.691262 
L 395.206064 69.421943 
L 394.235779 70.146326 
L 393.265494 70.864409 
L 392.295208 71.576194 
L 391.324923 72.281679 
L 390.354638 72.980866 
L 389.384353 73.673753 
L 388.414068 74.360342 
L 387.443782 75.040631 
L 386.473497 75.714622 
L 385.503212 76.382314 
L 384.532927 77.043706 
L 383.562642 77.6988 
L 382.592357 78.347595 
L 381.622071 78.99009 
L 380.651786 79.626287 
L 379.681501 80.256185 
L 378.711216 80.879784 
L 377.740931 81.497084 
L 376.770645 82.108084 
L 375.80036 82.712786 
L 374.830075 83.311189 
L 373.85979 83.903293 
L 372.889505 84.489098 
L 371.919219 85.068604 
L 370.948934 85.641811 
L 369.978649 86.208719 
L 369.008364 86.769328 
L 368.038079 87.323638 
L 367.067794 87.871649 
L 366.097508 88.413361 
L 365.127223 88.948774 
L 364.156938 89.477888 
L 363.186653 90.000704 
L 362.216368 90.51722 
L 361.246082 91.027437 
L 360.275797 91.531355 
L 359.305512 92.028974 
L 358.335227 92.520295 
L 357.364942 93.005316 
L 356.394657 93.484038 
L 355.424371 93.956462 
L 354.454086 94.422586 
L 353.483801 94.882411 
L 352.513516 95.335938 
L 351.543231 95.783165 
L 350.572945 96.224094 
L 349.60266 96.658723 
L 348.632375 97.087053 
L 347.66209 97.509085 
L 346.691805 97.924817 
L 345.721519 98.334251 
L 344.751234 98.737386 
L 343.780949 99.134221 
L 342.810664 99.524758 
L 341.840379 99.908995 
L 340.870094 100.286934 
L 339.899808 100.658574 
L 338.929523 101.023915 
L 337.959238 101.382956 
L 336.988953 101.735699 
L 336.018668 102.082143 
L 335.048382 102.422288 
L 334.078097 102.756133 
L 333.107812 103.08368 
L 332.137527 103.404928 
L 331.167242 103.719877 
L 330.196957 104.028527 
L 329.226671 104.330878 
L 328.256386 104.62693 
L 327.286101 104.916683 
L 326.315816 105.200137 
L 325.345531 105.477292 
L 324.375245 105.748148 
L 323.40496 106.012705 
L 322.434675 106.270963 
L 321.46439 106.522922 
L 320.494105 106.768582 
L 319.523819 107.007943 
L 318.553534 107.241006 
L 317.583249 107.467769 
L 316.612964 107.688233 
L 315.642679 107.902398 
L 314.672394 108.110264 
L 313.702108 108.311832 
L 312.731823 108.5071 
L 311.761538 108.696069 
L 310.791253 108.87874 
L 309.820968 109.055111 
L 308.850682 109.225184 
L 307.880397 109.388957 
L 306.910112 109.546431 
L 305.939827 109.697607 
L 304.969542 109.842483 
L 303.999256 109.981061 
L 303.028971 110.113339 
L 302.058686 110.239319 
L 301.088401 110.359 
L 300.118116 110.472381 
L 299.147831 110.579464 
L 298.177545 110.680247 
L 297.20726 110.774732 
L 296.236975 110.862918 
L 295.26669 110.944804 
L 294.296405 111.020392 
L 293.326119 111.089681 
L 292.355834 111.152671 
L 291.385549 111.209361 
L 290.415264 111.259753 
L 289.444979 111.303846 
L 288.474694 111.34164 
L 287.504408 111.373135 
L 286.534123 111.398331 
L 285.563838 111.417228 
L 284.593553 111.429826 
L 283.623268 111.436125 
L 282.652982 111.436125 
L 281.682697 111.429826 
L 280.712412 111.417228 
L 279.742127 111.398331 
L 278.771842 111.373135 
L 277.801556 111.34164 
L 276.831271 111.303846 
L 275.860986 111.259753 
L 274.890701 111.209361 
L 273.920416 111.152671 
L 272.950131 111.089681 
L 271.979845 111.020392 
L 271.00956 110.944804 
L 270.039275 110.862918 
L 269.06899 110.774732 
L 268.098705 110.680247 
L 267.128419 110.579464 
L 266.158134 110.472381 
L 265.187849 110.359 
L 264.217564 110.239319 
L 263.247279 110.113339 
L 262.276994 109.981061 
L 261.306708 109.842483 
L 260.336423 109.697607 
L 259.366138 109.546431 
L 258.395853 109.388957 
L 257.425568 109.225184 
L 256.455282 109.055111 
L 255.484997 108.87874 
L 254.514712 108.696069 
L 253.544427 108.5071 
L 252.574142 108.311832 
L 251.603856 108.110264 
L 250.633571 107.902398 
L 249.663286 107.688233 
L 248.693001 107.467769 
L 247.722716 107.241006 
L 246.752431 107.007943 
L 245.782145 106.768582 
L 244.81186 106.522922 
L 243.841575 106.270963 
L 242.87129 106.012705 
L 241.901005 105.748148 
L 240.930719 105.477292 
L 239.960434 105.200137 
L 238.990149 104.916683 
L 238.019864 104.62693 
L 237.049579 104.330878 
L 236.079293 104.028527 
L 235.109008 103.719877 
L 234.138723 103.404928 
L 233.168438 103.08368 
L 232.198153 102.756133 
L 231.227868 102.422288 
L 230.257582 102.082143 
L 229.287297 101.735699 
L 228.317012 101.382956 
L 227.346727 101.023915 
L 226.376442 100.658574 
L 225.406156 100.286934 
L 224.435871 99.908995 
L 223.465586 99.524758 
L 222.495301 99.134221 
L 221.525016 98.737386 
L 220.554731 98.334251 
L 219.584445 97.924817 
L 218.61416 97.509085 
L 217.643875 97.087053 
L 216.67359 96.658723 
L 215.703305 96.224094 
L 214.733019 95.783165 
L 213.762734 95.335938 
L 212.792449 94.882411 
L 211.822164 94.422586 
L 210.851879 93.956462 
L 209.881593 93.484038 
L 208.911308 93.005316 
L 207.941023 92.520295 
L 206.970738 92.028974 
L 206.000453 91.531355 
L 205.030168 91.027437 
L 204.059882 90.51722 
L 203.089597 90.000704 
L 202.119312 89.477888 
L 201.149027 88.948774 
L 200.178742 88.413361 
L 199.208456 87.871649 
L 198.238171 87.323638 
L 197.267886 86.769328 
L 196.297601 86.208719 
L 195.327316 85.641811 
L 194.357031 85.068604 
L 193.386745 84.489098 
L 192.41646 83.903293 
L 191.446175 83.311189 
L 190.47589 82.712786 
L 189.505605 82.108084 
L 188.535319 81.497084 
L 187.565034 80.879784 
L 186.594749 80.256185 
L 185.624464 79.626287 
L 184.654179 78.99009 
L 183.683893 78.347595 
L 182.713608 77.6988 
L 181.743323 77.043706 
L 180.773038 76.382314 
L 179.802753 75.714622 
L 178.832468 75.040631 
L 177.862182 74.360342 
L 176.891897 73.673753 
L 175.921612 72.980866 
L 174.951327 72.281679 
L 173.981042 71.576194 
L 173.010756 70.864409 
L 172.040471 70.146326 
L 171.070186 69.421943 
L 170.099901 68.691262 
L 169.129616 67.954282 
L 168.15933 67.211002 
L 167.189045 66.461424 
L 166.21876 65.705546 
L 165.248475 64.94337 
L 164.27819 64.174895 
L 163.307905 63.400121 
L 162.337619 62.619047 
L 161.367334 61.831675 
L 160.397049 61.038004 
L 159.426764 60.238034 
L 158.456479 59.431765 
L 157.486193 58.619197 
L 156.515908 57.800329 
L 155.545623 56.975163 
L 154.575338 56.143698 
L 153.605053 55.305934 
L 152.634768 54.461871 
L 151.664482 53.611509 
L 150.694197 52.754848 
L 149.723912 51.891888 
L 148.753627 51.022629 
L 147.783342 50.147071 
L 146.813056 49.265215 
L 145.842771 48.377059 
L 144.872486 47.482604 
L 143.902201 46.58185 
L 142.931916 45.674797 
L 141.96163 44.761446 
L 140.991345 43.841795 
L 140.02106 42.915845 
L 139.050775 41.983596 
L 138.08049 41.045049 
L 137.110205 40.100202 
L 136.139919 39.149056 
L 135.169634 38.191612 
L 134.199349 37.227868 
L 133.229064 36.257826 
L 132.258779 35.281484 
L 131.288493 34.298844 
L 130.318208 33.309904 
L 129.347923 32.314666 
L 128.377638 31.313128 
L 127.407353 30.305292 
L 126.437068 29.291156 
L 125.466782 28.270722 
L 124.496497 27.243989 
L 123.526212 26.210956 
L 122.555927 25.171625 
L 121.585642 24.125995 
L 120.615356 23.074065 
L 119.645071 22.015837 
L 118.674786 20.95131 
L 117.704501 19.880484 
L 116.734216 18.803358 
L 115.76393 17.719934 
L 114.793645 16.630211 
L 113.82336 15.534189 
L 112.853075 14.431868 
L 111.88279 13.323248 
L 110.912505 12.208329 
L 109.942219 11.087111 
L 108.971934 9.959594 
L 108.001649 8.825778 
L 107.031364 7.685663 
L 106.061079 6.539249 
L 105.090793 5.386536 
L 104.120508 4.227524 
L 103.150223 3.062213 
L 102.179938 1.890603 
L 101.209653 0.712694 
L 100.239367 -0.471513 
L 99.269082 -1.66202 
L 98.298797 -2.858826 
L 97.328512 -4.061931 
L 96.358227 -5.271334 
L 95.387942 -6.487037 
L 94.417656 -7.709039 
L 93.447371 -8.937339 
L 92.477086 -10.171939 
L 91.506801 -11.412838 
L 90.536516 -12.660035 
L 89.56623 -13.913532 
L 88.595945 -15.173327 
L 87.62566 -16.439422 
L 86.655375 -17.711815 
L 85.68509 -18.990508 
L 84.714805 -20.275499 
L 83.744519 -21.56679 
L 82.774234 -22.864379 
L 81.803949 -24.168268 
L 80.833664 -25.478455 
L 79.863379 -26.794941 
L 78.893093 -28.117727 
L 77.922808 -29.446811 
L 76.952523 -30.782194 
L 75.982238 -32.123876 
L 75.011953 -33.471858 
L 74.041667 -34.826138 
L 73.071382 -36.186717 
L 72.101097 -37.553595 
L 71.130812 -38.926772 
L 70.160527 -40.306249 
L 69.190242 -41.692024 
L 68.219956 -43.084098 
L 67.249671 -44.482471 
L 66.279386 -45.887143 
L 65.309101 -47.298114 
L 64.338816 -48.715384 
L 63.36853 -50.138953 
L 62.398245 -51.568821 
L 61.42796 -53.004988 
L 60.457675 -54.447454 
L 59.48739 -55.896218 
L 58.517104 -57.351282 
L 57.546819 -58.812645 
L 56.576534 -60.280307 
L 55.606249 -61.754268 
L 54.635964 -63.234527 
L 53.665679 -64.721086 
L 52.695393 -66.213944 
L 51.725108 -67.713101 
L 50.754823 -69.218556 
L 49.784538 -70.730311 
L 48.814253 -72.248365 
L 47.843967 -73.772717 
L 46.873682 -75.303369 
L 45.903397 -76.840319 
L 44.933112 -78.383569 
L 43.962827 -79.933117 
L 42.992542 -81.488965 
L 42.022256 -83.051111 
L 41.051971 -84.619557 
z
" clip-path="url(#p0bb3cb018e)" style="fill: #1f77b4; fill-opacity: 0.07"/>
   </g>
   <g id="patch_3">
    <path d="M 197.399279 271.043386 
C 199.004329 271.043386 200.543856 270.505424 201.678798 269.547979 
C 202.81374 268.590535 203.451433 267.29178 203.451433 265.937749 
C 203.451433 264.583718 202.81374 263.284962 201.678798 262.327518 
C 200.543856 261.370074 199.004329 260.832112 197.399279 260.832112 
C 195.794229 260.832112 194.254702 261.370074 193.11976 262.327518 
C 191.984818 263.284962 191.347125 264.583718 191.347125 265.937749 
C 191.347125 267.29178 191.984818 268.590535 193.11976 269.547979 
C 194.254702 270.505424 195.794229 271.043386 197.399279 271.043386 
z
" clip-path="url(#p0bb3cb018e)" style="fill: #1f77b4; opacity: 0.8"/>
   </g>
   <g id="patch_4">
    <path d="M 197.399279 91.950397 
C 199.004329 91.950397 200.543856 91.412435 201.678798 90.45499 
C 202.81374 89.497546 203.451433 88.19879 203.451433 86.84476 
C 203.451433 85.490729 202.81374 84.191973 201.678798 83.234529 
C 200.543856 82.277084 199.004329 81.739122 197.399279 81.739122 
C 195.794229 81.739122 194.254702 82.277084 193.11976 83.234529 
C 191.984818 84.191973 191.347125 85.490729 191.347125 86.84476 
C 191.347125 88.19879 191.984818 89.497546 193.11976 90.45499 
C 194.254702 91.412435 195.794229 91.950397 197.399279 91.950397 
z
" clip-path="url(#p0bb3cb018e)" style="fill: #1f77b4; opacity: 0.8"/>
   </g>
   <g id="patch_5">
    <path d="M 338.616202 258.891969 
C 340.221252 258.891969 341.760779 258.354007 342.895721 257.396563 
C 344.030663 256.439118 344.668356 255.140363 344.668356 253.786332 
C 344.668356 252.432301 344.030663 251.133546 342.895721 250.176101 
C 341.760779 249.218657 340.221252 248.680695 338.616202 248.680695 
C 337.011152 248.680695 335.471625 249.218657 334.336683 250.176101 
C 333.201741 251.133546 332.564048 252.432301 332.564048 253.786332 
C 332.564048 255.140363 333.201741 256.439118 334.336683 257.396563 
C 335.471625 258.354007 337.011152 258.891969 338.616202 258.891969 
z
" clip-path="url(#p0bb3cb018e)" style="fill: #1f77b4; opacity: 0.8"/>
   </g>
   <g id="patch_6">
    <path d="M 439.485433 34.76726 
C 441.090483 34.76726 442.63001 34.229298 443.764952 33.271853 
C 444.899893 32.314409 445.537587 31.015654 445.537587 29.661623 
C 445.537587 28.307592 444.899893 27.008836 443.764952 26.051392 
C 442.63001 25.093948 441.090483 24.555986 439.485433 24.555986 
C 437.880383 24.555986 436.340855 25.093948 435.205914 26.051392 
C 434.070972 27.008836 433.433279 28.307592 433.433279 29.661623 
C 433.433279 31.015654 434.070972 32.314409 435.205914 33.271853 
C 436.340855 34.229298 437.880383 34.76726 439.485433 34.76726 
z
" clip-path="url(#p0bb3cb018e)" style="fill: #1f77b4; opacity: 0.8"/>
   </g>
   <g id="matplotlib.axis_1">
    <g id="text_1">
     <!-- vettore d'onda -->
     <g transform="translate(246.499063 408.100094) scale(0.1 -0.1)">
      <defs>
       <path id="DejaVuSans-76" d="M 191 3500 
L 800 3500 
L 1894 563 
L 2988 3500 
L 3597 3500 
L 2284 0 
L 1503 0 
L 191 3500 
z
" transform="scale(0.015625)"/>
       <path id="DejaVuSans-65" d="M 3597 1894 
L 3597 1613 
L 953 1613 
Q 991 1019 1311 708 
Q 1631 397 2203 397 
Q 2534 397 2845 478 
Q 3156 559 3463 722 
L 3463 178 
Q 3153 47 2828 -22 
Q 2503 -91 2169 -91 
Q 1331 -91 842 396 
Q 353 884 353 1716 
Q 353 2575 817 3079 
Q 1281 3584 2069 3584 
Q 2775 3584 3186 3129 
Q 3597 2675 3597 1894 
z
M 3022 2063 
Q 3016 2534 2758 2815 
Q 2500 3097 2075 3097 
Q 1594 3097 1305 2825 
Q 1016 2553 972 2059 
L 3022 2063 
z
" transform="scale(0.015625)"/>
       <path id="DejaVuSans-74" d="M 1172 4494 
L 1172 3500 
L 2356 3500 
L 2356 3053 
L 1172 3053 
L 1172 1153 
Q 1172 725 1289 603 
Q 1406 481 1766 481 
L 2356 481 
L 2356 0 
L 1766 0 
Q 1100 0 847 248 
Q 594 497 594 1153 
L 594 3053 
L 172 3053 
L 172 3500 
L 594 3500 
L 594 4494 
L 1172 4494 
z
" transform="scale(0.015625)"/>
       <path id="DejaVuSans-6f" d="M 1959 3097 
Q 1497 3097 1228 2736 
Q 959 2375 959 1747 
Q 959 1119 1226 758 
Q 1494 397 1959 397 
Q 2419 397 2687 759 
Q 2956 1122 2956 1747 
Q 2956 2369 2687 2733 
Q 2419 3097 1959 3097 
z
M 1959 3584 
Q 2709 3584 3137 3096 
Q 3566 2609 3566 1747 
Q 3566 888 3137 398 
Q 2709 -91 1959 -91 
Q 1206 -91 779 398 
Q 353 888 353 1747 
Q 353 2609 779 3096 
Q 1206 3584 1959 3584 
z
" transform="scale(0.015625)"/>
       <path id="DejaVuSans-72" d="M 2631 2963 
Q 2534 3019 2420 3045 
Q 2306 3072 2169 3072 
Q 1681 3072 1420 2755 
Q 1159 2438 1159 1844 
L 1159 0 
L 581 0 
L 581 3500 
L 1159 3500 
L 1159 2956 
Q 1341 3275 1631 3429 
Q 1922 3584 2338 3584 
Q 2397 3584 2469 3576 
Q 2541 3569 2628 3553 
L 2631 2963 
z
" transform="scale(0.015625)"/>
       <path id="DejaVuSans-20" transform="scale(0.015625)"/>
       <path id="DejaVuSans-64" d="M 2906 2969 
L 2906 4863 
L 3481 4863 
L 3481 0 
L 2906 0 
L 2906 525 
Q 2725 213 2448 61 
Q 2172 -91 1784 -91 
Q 1150 -91 751 415 
Q 353 922 353 1747 
Q 353 2572 751 3078 
Q 1150 3584 1784 3584 
Q 2172 3584 2448 3432 
Q 2725 3281 2906 2969 
z
M 947 1747 
Q 947 1113 1208 752 
Q 1469 391 1925 391 
Q 2381 391 2643 752 
Q 2906 1113 2906 1747 
Q 2906 2381 2643 2742 
Q 2381 3103 1925 3103 
Q 1469 3103 1208 2742 
Q 947 2381 947 1747 
z
" transform="scale(0.015625)"/>
       <path id="DejaVuSans-27" d="M 1147 4666 
L 1147 2931 
L 616 2931 
L 616 4666 
L 1147 4666 
z
" transform="scale(0.015625)"/>
       <path id="DejaVuSans-6e" d="M 3513 2113 
L 3513 0 
L 2938 0 
L 2938 2094 
Q 2938 2591 2744 2837 
Q 2550 3084 2163 3084 
Q 1697 3084 1428 2787 
Q 1159 2491 1159 1978 
L 1159 0 
L 581 0 
L 581 3500 
L 1159 3500 
L 1159 2956 
Q 1366 3272 1645 3428 
Q 1925 3584 2291 3584 
Q 2894 3584 3203 3211 
Q 3513 2838 3513 2113 
z
" transform="scale(0.015625)"/>
       <path id="DejaVuSans-61" d="M 2194 1759 
Q 1497 1759 1228 1600 
Q 959 1441 959 1056 
Q 959 750 1161 570 
Q 1363 391 1709 391 
Q 2188 391 2477 730 
Q 2766 1069 2766 1631 
L 2766 1759 
L 2194 1759 
z
M 3341 1997 
L 3341 0 
L 2766 0 
L 2766 531 
Q 2569 213 2275 61 
Q 1981 -91 1556 -91 
Q 1019 -91 701 211 
Q 384 513 384 1019 
Q 384 1609 779 1909 
Q 1175 2209 1959 2209 
L 2766 2209 
L 2766 2266 
Q 2766 2663 2505 2880 
Q 2244 3097 1772 3097 
Q 1472 3097 1187 3025 
Q 903 2953 641 2809 
L 641 3341 
Q 956 3463 1253 3523 
Q 1550 3584 1831 3584 
Q 2591 3584 2966 3190 
Q 3341 2797 3341 1997 
z
" transform="scale(0.015625)"/>
      </defs>
      <use xlink:href="#DejaVuSans-76"/>
      <use xlink:href="#DejaVuSans-65" transform="translate(59.179688 0)"/>
      <use xlink:href="#DejaVuSans-74" transform="translate(120.703125 0)"/>
      <use xlink:href="#DejaVuSans-74" transform="translate(159.912109 0)"/>
      <use xlink:href="#DejaVuSans-6f" transform="translate(199.121094 0)"/>
      <use xlink:href="#DejaVuSans-72" transform="translate(260.302734 0)"/>
      <use xlink:href="#DejaVuSans-65" transform="translate(299.166016 0)"/>
      <use xlink:href="#DejaVuSans-20" transform="translate(360.689453 0)"/>
      <use xlink:href="#DejaVuSans-64" transform="translate(392.476562 0)"/>
      <use xlink:href="#DejaVuSans-27" transform="translate(455.953125 0)"/>
      <use xlink:href="#DejaVuSans-6f" transform="translate(483.443359 0)"/>
      <use xlink:href="#DejaVuSans-6e" transform="translate(544.625 0)"/>
      <use xlink:href="#DejaVuSans-64" transform="translate(608.003906 0)"/>
      <use xlink:href="#DejaVuSans-61" transform="translate(671.480469 0)"/>
     </g>
    </g>
   </g>
   <g id="matplotlib.axis_2">
    <g id="text_2">
     <!-- energia -->
     <g transform="translate(14.798438 232.466844) rotate(-90) scale(0.1 -0.1)">
      <defs>
       <path id="DejaVuSans-67" d="M 2906 1791 
Q 2906 2416 2648 2759 
Q 2391 3103 1925 3103 
Q 1463 3103 1205 2759 
Q 947 2416 947 1791 
Q 947 1169 1205 825 
Q 1463 481 1925 481 
Q 2391 481 2648 825 
Q 2906 1169 2906 1791 
z
M 3481 434 
Q 3481 -459 3084 -895 
Q 2688 -1331 1869 -1331 
Q 1566 -1331 1297 -1286 
Q 1028 -1241 775 -1147 
L 775 -588 
Q 1028 -725 1275 -790 
Q 1522 -856 1778 -856 
Q 2344 -856 2625 -561 
Q 2906 -266 2906 331 
L 2906 616 
Q 2728 306 2450 153 
Q 2172 0 1784 0 
Q 1141 0 747 490 
Q 353 981 353 1791 
Q 353 2603 747 3093 
Q 1141 3584 1784 3584 
Q 2172 3584 2450 3431 
Q 2728 3278 2906 2969 
L 2906 3500 
L 3481 3500 
L 3481 434 
z
" transform="scale(0.015625)"/>
       <path id="DejaVuSans-69" d="M 603 3500 
L 1178 3500 
L 1178 0 
L 603 0 
L 603 3500 
z
M 603 4863 
L 1178 4863 
L 1178 4134 
L 603 4134 
L 603 4863 
z
" transform="scale(0.015625)"/>
      </defs>
      <use xlink:href="#DejaVuSans-65"/>
      <use xlink:href="#DejaVuSans-6e" transform="translate(61.523438 0)"/>
      <use xlink:href="#DejaVuSans-65" transform="translate(124.902344 0)"/>
      <use xlink:href="#DejaVuSans-72" transform="translate(186.425781 0)"/>
      <use xlink:href="#DejaVuSans-67" transform="translate(225.789062 0)"/>
      <use xlink:href="#DejaVuSans-69" transform="translate(289.265625 0)"/>
      <use xlink:href="#DejaVuSans-61" transform="translate(317.048828 0)"/>
     </g>
    </g>
   </g>
   <g id="line2d_1">
    <path d="M 41.051971 411.682418 
L 48.814253 401.166904 
L 56.576534 390.994055 
L 64.338816 381.163871 
L 72.101097 371.67635 
L 79.863379 362.531494 
L 87.62566 353.729303 
L 95.387942 345.269776 
L 103.150223 337.152913 
L 110.912505 329.378715 
L 118.674786 321.947181 
L 126.437068 314.858311 
L 133.229064 308.936643 
L 140.02106 303.277326 
L 146.813056 297.880362 
L 153.605053 292.74575 
L 160.397049 287.873491 
L 167.189045 283.263584 
L 173.981042 278.91603 
L 180.773038 274.830828 
L 187.565034 271.007978 
L 194.357031 267.447481 
L 201.149027 264.149336 
L 207.941023 261.113544 
L 214.733019 258.340104 
L 221.525016 255.829017 
L 228.317012 253.580281 
L 235.109008 251.593899 
L 241.901005 249.869869 
L 248.693001 248.408191 
L 255.484997 247.208866 
L 261.306708 246.389683 
L 267.128419 245.76325 
L 272.950131 245.329566 
L 278.771842 245.08863 
L 284.593553 245.040442 
L 290.415264 245.185004 
L 296.236975 245.522314 
L 302.058686 246.052373 
L 307.880397 246.775181 
L 313.702108 247.690737 
L 320.494105 249.002499 
L 327.286101 250.576614 
L 334.078097 252.413081 
L 340.870094 254.5119 
L 347.66209 256.873072 
L 354.454086 259.496596 
L 361.246082 262.382473 
L 368.038079 265.530702 
L 374.830075 268.941283 
L 381.622071 272.614217 
L 388.414068 276.549504 
L 395.206064 280.747142 
L 401.99806 285.207134 
L 408.790057 289.929477 
L 415.582053 294.914173 
L 422.374049 300.161222 
L 429.166045 305.670623 
L 435.958042 311.442376 
L 442.750038 317.476482 
L 450.51232 324.69385 
L 458.274601 332.253883 
L 466.036883 340.156581 
L 473.799164 348.401943 
L 481.561445 356.989969 
L 489.323727 365.920659 
L 497.086008 375.194014 
L 504.84829 384.810034 
L 512.610571 394.768718 
L 520.372853 405.070066 
L 525.224279 411.682418 
L 525.224279 411.682418 
" clip-path="url(#p0bb3cb018e)" style="fill: none; stroke: #1f77b4; stroke-width: 2; stroke-linecap: square"/>
   </g>
   <g id="line2d_2">
    <path d="M 99.808641 -1 
L 106.061079 6.539249 
L 112.853075 14.431868 
L 119.645071 22.015837 
L 126.437068 29.291156 
L 133.229064 36.257826 
L 140.02106 42.915845 
L 146.813056 49.265215 
L 153.605053 55.305934 
L 160.397049 61.038004 
L 167.189045 66.461424 
L 173.981042 71.576194 
L 180.773038 76.382314 
L 187.565034 80.879784 
L 193.386745 84.489098 
L 199.208456 87.871649 
L 205.030168 91.027437 
L 210.851879 93.956462 
L 216.67359 96.658723 
L 222.495301 99.134221 
L 228.317012 101.382956 
L 234.138723 103.404928 
L 239.960434 105.200137 
L 245.782145 106.768582 
L 251.603856 108.110264 
L 257.425568 109.225184 
L 263.247279 110.113339 
L 269.06899 110.774732 
L 274.890701 111.209361 
L 280.712412 111.417228 
L 286.534123 111.398331 
L 292.355834 111.152671 
L 298.177545 110.680247 
L 303.999256 109.981061 
L 309.820968 109.055111 
L 315.642679 107.902398 
L 321.46439 106.522922 
L 327.286101 104.916683 
L 333.107812 103.08368 
L 338.929523 101.023915 
L 344.751234 98.737386 
L 350.572945 96.224094 
L 356.394657 93.484038 
L 362.216368 90.51722 
L 368.038079 87.323638 
L 373.85979 83.903293 
L 379.681501 80.256185 
L 386.473497 75.714622 
L 393.265494 70.864409 
L 400.05749 65.705546 
L 406.849486 60.238034 
L 413.641482 54.461871 
L 420.433479 48.377059 
L 427.225475 41.983596 
L 434.017471 35.281484 
L 440.809468 28.270722 
L 447.601464 20.95131 
L 454.39346 13.323248 
L 461.185457 5.386536 
L 466.467609 -1 
L 466.467609 -1 
" clip-path="url(#p0bb3cb018e)" style="fill: none; stroke: #ff7f0e; stroke-width: 2; stroke-linecap: square"/>
   </g>
   <g id="line2d_3">
    <path d="M 86.443125 217.804354 
L 87.036473 215.683631 
L 87.629822 213.773973 
L 88.22317 212.26544 
L 88.816519 211.308168 
L 89.409867 210.997431 
L 90.003215 211.364154 
L 90.596564 212.371839 
L 91.189912 213.920196 
L 91.783261 215.855125 
L 92.376609 217.984051 
L 92.969958 220.095093 
L 93.563306 221.978149 
L 94.156654 223.445806 
L 94.750003 224.351998 
L 95.343351 224.606533 
L 95.9367 224.184081 
L 96.530048 223.126684 
L 97.123396 221.539582 
L 97.716745 219.580731 
L 98.310093 217.445085 
L 98.903442 215.345195 
L 99.49679 213.490054 
L 100.090139 212.064294 
L 100.683487 211.209815 
L 101.276835 211.011659 
L 101.870184 211.489547 
L 102.463532 212.595917 
L 103.056881 214.220658 
L 103.650229 216.202068 
L 104.243577 218.342944 
L 104.836926 220.430218 
L 105.430274 222.256152 
L 106.023623 223.63902 
L 106.616971 224.441192 
L 107.21032 224.582831 
L 107.803668 224.04984 
L 108.397016 222.895267 
L 108.990365 221.234019 
L 109.583713 219.231433 
L 110.177062 217.086817 
L 110.77041 215.013614 
L 111.363758 213.21816 
L 111.957107 211.879148 
L 112.550455 211.129843 
L 113.143804 211.04482 
L 113.737152 211.632541 
L 114.330501 212.834513 
L 114.923849 214.531109 
L 115.517197 216.553476 
L 116.110546 218.700337 
L 116.703894 220.758025 
L 117.297243 222.521748 
L 117.890591 223.815971 
L 118.483939 224.511887 
L 119.077288 224.540235 
L 119.670636 223.898193 
L 120.263985 222.64966 
L 120.857333 220.918897 
L 121.450682 218.878158 
L 122.04403 216.730549 
L 122.637378 214.689811 
L 123.230727 212.959048 
L 123.824075 211.710515 
L 124.417424 211.068473 
L 125.010772 211.09682 
L 125.60412 211.792737 
L 126.197469 213.08696 
L 126.790817 214.850683 
L 127.384166 216.908371 
L 127.977514 219.055232 
L 128.570863 221.077599 
L 129.164211 222.774195 
L 129.757559 223.976167 
L 130.350908 224.563888 
L 130.944256 224.478865 
L 131.537605 223.72956 
L 132.130953 222.390548 
L 132.724301 220.595094 
L 133.31765 218.521891 
L 133.910998 216.377275 
L 134.504347 214.374689 
L 135.097695 212.713441 
L 135.691044 211.558868 
L 136.284392 211.025877 
L 136.87774 211.167516 
L 137.471089 211.969688 
L 138.064437 213.352556 
L 138.657786 215.17849 
L 139.251134 217.265763 
L 139.844482 219.40664 
L 140.437831 221.388049 
L 141.031179 223.012791 
L 141.624528 224.119161 
L 142.217876 224.597049 
L 142.811225 224.398893 
L 143.404573 223.544413 
L 143.997921 222.118654 
L 144.59127 220.263512 
L 145.184618 218.163623 
L 145.777967 216.027977 
L 146.371315 214.069126 
L 146.964663 212.482023 
L 147.558012 211.424627 
L 148.15136 211.002175 
L 148.744709 211.25671 
L 149.338057 212.162901 
L 149.931406 213.630559 
L 150.524754 215.513615 
L 151.118102 217.624657 
L 151.711451 219.753583 
L 152.304799 221.688512 
L 152.898148 223.236869 
L 153.491496 224.244554 
L 154.084844 224.611277 
L 154.678193 224.30054 
L 155.271541 223.343268 
L 155.86489 221.834735 
L 156.458238 219.925077 
L 157.051587 217.804354 
" clip-path="url(#p0bb3cb018e)" style="fill: none; stroke: #2ca02c; stroke-linecap: square"/>
   </g>
   <g id="line2d_4">
    <path d="M 459.659279 200.785563 
L 460.252627 198.66484 
L 460.845976 196.755182 
L 461.439324 195.246649 
L 462.032673 194.289378 
L 462.626021 193.97864 
L 463.219369 194.345363 
L 463.812718 195.353048 
L 464.406066 196.901405 
L 464.999415 198.836334 
L 465.592763 200.96526 
L 466.186111 203.076302 
L 466.77946 204.959358 
L 467.372808 206.427016 
L 467.966157 207.333207 
L 468.559505 207.587743 
L 469.152854 207.16529 
L 469.746202 206.107894 
L 470.33955 204.520792 
L 470.932899 202.56194 
L 471.526247 200.426294 
L 472.119596 198.326405 
L 472.712944 196.471263 
L 473.306292 195.045504 
L 473.899641 194.191025 
L 474.492989 193.992868 
L 475.086338 194.470756 
L 475.679686 195.577127 
L 476.273035 197.201868 
L 476.866383 199.183277 
L 477.459731 201.324154 
L 478.05308 203.411427 
L 478.646428 205.237361 
L 479.239777 206.620229 
L 479.833125 207.422401 
L 480.426473 207.56404 
L 481.019822 207.03105 
L 481.61317 205.876476 
L 482.206519 204.215228 
L 482.799867 202.212643 
L 483.393215 200.068027 
L 483.986564 197.994823 
L 484.579912 196.199369 
L 485.173261 194.860357 
L 485.766609 194.111052 
L 486.359958 194.026029 
L 486.953306 194.61375 
L 487.546654 195.815722 
L 488.140003 197.512319 
L 488.733351 199.534685 
L 489.3267 201.681546 
L 489.920048 203.739234 
L 490.513396 205.502957 
L 491.106745 206.797181 
L 491.700093 207.493097 
L 492.293442 207.521444 
L 492.88679 206.879402 
L 493.480139 205.630869 
L 494.073487 203.900106 
L 494.666835 201.859368 
L 495.260184 199.711759 
L 495.853532 197.67102 
L 496.446881 195.940257 
L 497.040229 194.691725 
L 497.633577 194.049682 
L 498.226926 194.07803 
L 498.820274 194.773946 
L 499.413623 196.068169 
L 500.006971 197.831893 
L 500.60032 199.88958 
L 501.193668 202.036441 
L 501.787016 204.058808 
L 502.380365 205.755404 
L 502.973713 206.957376 
L 503.567062 207.545097 
L 504.16041 207.460075 
L 504.753758 206.71077 
L 505.347107 205.371757 
L 505.940455 203.576303 
L 506.533804 201.5031 
L 507.127152 199.358484 
L 507.720501 197.355898 
L 508.313849 195.69465 
L 508.907197 194.540077 
L 509.500546 194.007087 
L 510.093894 194.148726 
L 510.687243 194.950897 
L 511.280591 196.333765 
L 511.873939 198.159699 
L 512.467288 200.246973 
L 513.060636 202.38785 
L 513.653985 204.369259 
L 514.247333 205.994 
L 514.840682 207.10037 
L 515.43403 207.578258 
L 516.027378 207.380102 
L 516.620727 206.525623 
L 517.214075 205.099863 
L 517.807424 203.244722 
L 518.400772 201.144832 
L 518.99412 199.009186 
L 519.587469 197.050335 
L 520.180817 195.463233 
L 520.774166 194.405836 
L 521.367514 193.983384 
L 521.960863 194.23792 
L 522.554211 195.144111 
L 523.147559 196.611769 
L 523.740908 198.494824 
L 524.334256 200.605866 
L 524.927605 202.734792 
L 525.520953 204.669721 
L 526.114301 206.218078 
L 526.70765 207.225764 
L 527.300998 207.592486 
L 527.894347 207.281749 
L 528.487695 206.324477 
L 529.081044 204.815944 
L 529.674392 202.906286 
L 530.26774 200.785563 
" clip-path="url(#p0bb3cb018e)" style="fill: none; stroke: #d62728; stroke-linecap: square"/>
   </g>
   <g id="patch_7">
    <path d="M 20.878125 396.501656 
L 20.878125 30.597656 
" style="fill: none; stroke: #000000; stroke-width: 0.8; stroke-linejoin: miter; stroke-linecap: square"/>
   </g>
   <g id="patch_8">
    <path d="M 545.398125 396.501656 
L 545.398125 30.597656 
" style="fill: none; stroke: #000000; stroke-width: 0.8; stroke-linejoin: miter; stroke-linecap: square"/>
   </g>
   <g id="patch_9">
    <path d="M 20.878125 396.501656 
L 545.398125 396.501656 
" style="fill: none; stroke: #000000; stroke-width: 0.8; stroke-linejoin: miter; stroke-linecap: square"/>
   </g>
   <g id="patch_10">
    <path d="M 20.878125 30.597656 
L 545.398125 30.597656 
" style="fill: none; stroke: #000000; stroke-width: 0.8; stroke-linejoin: miter; stroke-linecap: square"/>
   </g>
   <g id="patch_11">
    <path d="M 197.399279 257.127913 
Q 197.399279 176.390365 197.399279 97.218064 
" style="fill: none; stroke: #000000; stroke-width: 1.4; stroke-linecap: round"/>
    <path d="M 194.799279 102.418064 
L 197.399279 97.218064 
L 199.999279 102.418064 
z
" style="fill: #1f77b4; stroke: #000000; stroke-width: 1.4; stroke-linecap: round"/>
   </g>
   <g id="text_3">
    <!-- assorbimento consentito -->
    <g transform="translate(73.055998 179.01266) scale(0.095 -0.095)">
     <defs>
      <path id="DejaVuSans-73" d="M 2834 3397 
L 2834 2853 
Q 2591 2978 2328 3040 
Q 2066 3103 1784 3103 
Q 1356 3103 1142 2972 
Q 928 2841 928 2578 
Q 928 2378 1081 2264 
Q 1234 2150 1697 2047 
L 1894 2003 
Q 2506 1872 2764 1633 
Q 3022 1394 3022 966 
Q 3022 478 2636 193 
Q 2250 -91 1575 -91 
Q 1294 -91 989 -36 
Q 684 19 347 128 
L 347 722 
Q 666 556 975 473 
Q 1284 391 1588 391 
Q 1994 391 2212 530 
Q 2431 669 2431 922 
Q 2431 1156 2273 1281 
Q 2116 1406 1581 1522 
L 1381 1569 
Q 847 1681 609 1914 
Q 372 2147 372 2553 
Q 372 3047 722 3315 
Q 1072 3584 1716 3584 
Q 2034 3584 2315 3537 
Q 2597 3491 2834 3397 
z
" transform="scale(0.015625)"/>
      <path id="DejaVuSans-62" d="M 3116 1747 
Q 3116 2381 2855 2742 
Q 2594 3103 2138 3103 
Q 1681 3103 1420 2742 
Q 1159 2381 1159 1747 
Q 1159 1113 1420 752 
Q 1681 391 2138 391 
Q 2594 391 2855 752 
Q 3116 1113 3116 1747 
z
M 1159 2969 
Q 1341 3281 1617 3432 
Q 1894 3584 2278 3584 
Q 2916 3584 3314 3078 
Q 3713 2572 3713 1747 
Q 3713 922 3314 415 
Q 2916 -91 2278 -91 
Q 1894 -91 1617 61 
Q 1341 213 1159 525 
L 1159 0 
L 581 0 
L 581 4863 
L 1159 4863 
L 1159 2969 
z
" transform="scale(0.015625)"/>
      <path id="DejaVuSans-6d" d="M 3328 2828 
Q 3544 3216 3844 3400 
Q 4144 3584 4550 3584 
Q 5097 3584 5394 3201 
Q 5691 2819 5691 2113 
L 5691 0 
L 5113 0 
L 5113 2094 
Q 5113 2597 4934 2840 
Q 4756 3084 4391 3084 
Q 3944 3084 3684 2787 
Q 3425 2491 3425 1978 
L 3425 0 
L 2847 0 
L 2847 2094 
Q 2847 2600 2669 2842 
Q 2491 3084 2119 3084 
Q 1678 3084 1418 2786 
Q 1159 2488 1159 1978 
L 1159 0 
L 581 0 
L 581 3500 
L 1159 3500 
L 1159 2956 
Q 1356 3278 1631 3431 
Q 1906 3584 2284 3584 
Q 2666 3584 2933 3390 
Q 3200 3197 3328 2828 
z
" transform="scale(0.015625)"/>
      <path id="DejaVuSans-63" d="M 3122 3366 
L 3122 2828 
Q 2878 2963 2633 3030 
Q 2388 3097 2138 3097 
Q 1578 3097 1268 2742 
Q 959 2388 959 1747 
Q 959 1106 1268 751 
Q 1578 397 2138 397 
Q 2388 397 2633 464 
Q 2878 531 3122 666 
L 3122 134 
Q 2881 22 2623 -34 
Q 2366 -91 2075 -91 
Q 1284 -91 818 406 
Q 353 903 353 1747 
Q 353 2603 823 3093 
Q 1294 3584 2113 3584 
Q 2378 3584 2631 3529 
Q 2884 3475 3122 3366 
z
" transform="scale(0.015625)"/>
     </defs>
     <use xlink:href="#DejaVuSans-61"/>
     <use xlink:href="#DejaVuSans-73" transform="translate(61.279297 0)"/>
     <use xlink:href="#DejaVuSans-73" transform="translate(113.378906 0)"/>
     <use xlink:href="#DejaVuSans-6f" transform="translate(165.478516 0)"/>
     <use xlink:href="#DejaVuSans-72" transform="translate(226.660156 0)"/>
     <use xlink:href="#DejaVuSans-62" transform="translate(267.773438 0)"/>
     <use xlink:href="#DejaVuSans-69" transform="translate(331.25 0)"/>
     <use xlink:href="#DejaVuSans-6d" transform="translate(359.033203 0)"/>
     <use xlink:href="#DejaVuSans-65" transform="translate(456.445312 0)"/>
     <use xlink:href="#DejaVuSans-6e" transform="translate(517.96875 0)"/>
     <use xlink:href="#DejaVuSans-74" transform="translate(581.347656 0)"/>
     <use xlink:href="#DejaVuSans-6f" transform="translate(620.556641 0)"/>
     <use xlink:href="#DejaVuSans-20" transform="translate(681.738281 0)"/>
     <use xlink:href="#DejaVuSans-63" transform="translate(713.525391 0)"/>
     <use xlink:href="#DejaVuSans-6f" transform="translate(768.505859 0)"/>
     <use xlink:href="#DejaVuSans-6e" transform="translate(829.6875 0)"/>
     <use xlink:href="#DejaVuSans-73" transform="translate(893.066406 0)"/>
     <use xlink:href="#DejaVuSans-65" transform="translate(945.166016 0)"/>
     <use xlink:href="#DejaVuSans-6e" transform="translate(1006.689453 0)"/>
     <use xlink:href="#DejaVuSans-74" transform="translate(1070.068359 0)"/>
     <use xlink:href="#DejaVuSans-69" transform="translate(1109.277344 0)"/>
     <use xlink:href="#DejaVuSans-74" transform="translate(1137.060547 0)"/>
     <use xlink:href="#DejaVuSans-6f" transform="translate(1176.269531 0)"/>
    </g>
   </g>
   <g id="text_4">
    <!-- $\Delta k=0$ -->
    <g transform="translate(165.646894 161.074342) scale(0.095 -0.095)">
     <defs>
      <path id="DejaVuSans-394" d="M 2188 4044 
L 906 525 
L 3472 525 
L 2188 4044 
z
M 50 0 
L 1831 4666 
L 2547 4666 
L 4325 0 
L 50 0 
z
" transform="scale(0.015625)"/>
      <path id="DejaVuSans-Oblique-6b" d="M 1172 4863 
L 1747 4863 
L 1197 2028 
L 3169 3500 
L 3916 3500 
L 1716 1825 
L 3322 0 
L 2625 0 
L 1131 1709 
L 800 0 
L 225 0 
L 1172 4863 
z
" transform="scale(0.015625)"/>
      <path id="DejaVuSans-3d" d="M 678 2906 
L 4684 2906 
L 4684 2381 
L 678 2381 
L 678 2906 
z
M 678 1631 
L 4684 1631 
L 4684 1100 
L 678 1100 
L 678 1631 
z
" transform="scale(0.015625)"/>
      <path id="DejaVuSans-30" d="M 2034 4250 
Q 1547 4250 1301 3770 
Q 1056 3291 1056 2328 
Q 1056 1369 1301 889 
Q 1547 409 2034 409 
Q 2525 409 2770 889 
Q 3016 1369 3016 2328 
Q 3016 3291 2770 3770 
Q 2525 4250 2034 4250 
z
M 2034 4750 
Q 2819 4750 3233 4129 
Q 3647 3509 3647 2328 
Q 3647 1150 3233 529 
Q 2819 -91 2034 -91 
Q 1250 -91 836 529 
Q 422 1150 422 2328 
Q 422 3509 836 4129 
Q 1250 4750 2034 4750 
z
" transform="scale(0.015625)"/>
     </defs>
     <use xlink:href="#DejaVuSans-394" transform="translate(0 0.015625)"/>
     <use xlink:href="#DejaVuSans-Oblique-6b" transform="translate(68.408203 0.015625)"/>
     <use xlink:href="#DejaVuSans-3d" transform="translate(145.800781 0.015625)"/>
     <use xlink:href="#DejaVuSans-30" transform="translate(249.072266 0.015625)"/>
    </g>
   </g>
   <g id="patch_12">
    <path d="M 339.479661 245.176815 
Q 389.049935 141.725819 437.943834 39.686388 
" style="fill: none; stroke: #000000; stroke-width: 1.4; stroke-linecap: round"/>
    <path d="M 433.352088 43.252318 
L 437.943834 39.686388 
L 438.041531 45.499343 
z
" style="fill: #1f77b4; stroke: #000000; stroke-width: 1.4; stroke-linecap: round"/>
   </g>
   <g id="text_5">
    <!-- vietata -->
    <g transform="translate(417.842206 140.090686) scale(0.095 -0.095)">
     <use xlink:href="#DejaVuSans-76"/>
     <use xlink:href="#DejaVuSans-69" transform="translate(59.179688 0)"/>
     <use xlink:href="#DejaVuSans-65" transform="translate(86.962891 0)"/>
     <use xlink:href="#DejaVuSans-74" transform="translate(148.486328 0)"/>
     <use xlink:href="#DejaVuSans-61" transform="translate(187.695312 0)"/>
     <use xlink:href="#DejaVuSans-74" transform="translate(248.974609 0)"/>
     <use xlink:href="#DejaVuSans-61" transform="translate(288.183594 0)"/>
    </g>
   </g>
   <g id="text_6">
    <!-- $\Delta k\neq0$ -->
    <g transform="translate(404.181202 158.742768) scale(0.095 -0.095)">
     <defs>
      <path id="DejaVuSans-2260" d="M 678 2906 
L 3091 2906 
L 3891 3891 
L 4281 3572 
L 3738 2906 
L 4684 2906 
L 4684 2381 
L 3309 2381 
L 2700 1631 
L 4684 1631 
L 4684 1100 
L 2266 1100 
L 1459 122 
L 1069 441 
L 1613 1100 
L 678 1100 
L 678 1631 
L 2047 1631 
L 2656 2381 
L 678 2381 
L 678 2906 
z
" transform="scale(0.015625)"/>
     </defs>
     <use xlink:href="#DejaVuSans-394" transform="translate(0 0.015625)"/>
     <use xlink:href="#DejaVuSans-Oblique-6b" transform="translate(68.408203 0.015625)"/>
     <use xlink:href="#DejaVuSans-2260" transform="translate(145.800781 0.015625)"/>
     <use xlink:href="#DejaVuSans-30" transform="translate(249.072266 0.015625)"/>
    </g>
   </g>
   <g id="text_7">
    <!-- fotone incidente -->
    <g transform="translate(87.4537 236.525024) scale(0.084 -0.084)">
     <defs>
      <path id="DejaVuSans-66" d="M 2375 4863 
L 2375 4384 
L 1825 4384 
Q 1516 4384 1395 4259 
Q 1275 4134 1275 3809 
L 1275 3500 
L 2222 3500 
L 2222 3053 
L 1275 3053 
L 1275 0 
L 697 0 
L 697 3053 
L 147 3053 
L 147 3500 
L 697 3500 
L 697 3744 
Q 697 4328 969 4595 
Q 1241 4863 1831 4863 
L 2375 4863 
z
" transform="scale(0.015625)"/>
     </defs>
     <use xlink:href="#DejaVuSans-66"/>
     <use xlink:href="#DejaVuSans-6f" transform="translate(35.205078 0)"/>
     <use xlink:href="#DejaVuSans-74" transform="translate(96.386719 0)"/>
     <use xlink:href="#DejaVuSans-6f" transform="translate(135.595703 0)"/>
     <use xlink:href="#DejaVuSans-6e" transform="translate(196.777344 0)"/>
     <use xlink:href="#DejaVuSans-65" transform="translate(260.15625 0)"/>
     <use xlink:href="#DejaVuSans-20" transform="translate(321.679688 0)"/>
     <use xlink:href="#DejaVuSans-69" transform="translate(353.466797 0)"/>
     <use xlink:href="#DejaVuSans-6e" transform="translate(381.25 0)"/>
     <use xlink:href="#DejaVuSans-63" transform="translate(444.628906 0)"/>
     <use xlink:href="#DejaVuSans-69" transform="translate(499.609375 0)"/>
     <use xlink:href="#DejaVuSans-64" transform="translate(527.392578 0)"/>
     <use xlink:href="#DejaVuSans-65" transform="translate(590.869141 0)"/>
     <use xlink:href="#DejaVuSans-6e" transform="translate(652.392578 0)"/>
     <use xlink:href="#DejaVuSans-74" transform="translate(715.771484 0)"/>
     <use xlink:href="#DejaVuSans-65" transform="translate(754.980469 0)"/>
    </g>
   </g>
   <g id="text_8">
    <!-- fotone incidente -->
    <g transform="translate(460.669853 219.506233) scale(0.084 -0.084)">
     <use xlink:href="#DejaVuSans-66"/>
     <use xlink:href="#DejaVuSans-6f" transform="translate(35.205078 0)"/>
     <use xlink:href="#DejaVuSans-74" transform="translate(96.386719 0)"/>
     <use xlink:href="#DejaVuSans-6f" transform="translate(135.595703 0)"/>
     <use xlink:href="#DejaVuSans-6e" transform="translate(196.777344 0)"/>
     <use xlink:href="#DejaVuSans-65" transform="translate(260.15625 0)"/>
     <use xlink:href="#DejaVuSans-20" transform="translate(321.679688 0)"/>
     <use xlink:href="#DejaVuSans-69" transform="translate(353.466797 0)"/>
     <use xlink:href="#DejaVuSans-6e" transform="translate(381.25 0)"/>
     <use xlink:href="#DejaVuSans-63" transform="translate(444.628906 0)"/>
     <use xlink:href="#DejaVuSans-69" transform="translate(499.609375 0)"/>
     <use xlink:href="#DejaVuSans-64" transform="translate(527.392578 0)"/>
     <use xlink:href="#DejaVuSans-65" transform="translate(590.869141 0)"/>
     <use xlink:href="#DejaVuSans-6e" transform="translate(652.392578 0)"/>
     <use xlink:href="#DejaVuSans-74" transform="translate(715.771484 0)"/>
     <use xlink:href="#DejaVuSans-65" transform="translate(754.980469 0)"/>
    </g>
   </g>
   <g id="text_9">
    <!-- banda di conduzione -->
    <g transform="translate(71.31274 64.635238) scale(0.1 -0.1)">
     <defs>
      <path id="DejaVuSans-75" d="M 544 1381 
L 544 3500 
L 1119 3500 
L 1119 1403 
Q 1119 906 1312 657 
Q 1506 409 1894 409 
Q 2359 409 2629 706 
Q 2900 1003 2900 1516 
L 2900 3500 
L 3475 3500 
L 3475 0 
L 2900 0 
L 2900 538 
Q 2691 219 2414 64 
Q 2138 -91 1772 -91 
Q 1169 -91 856 284 
Q 544 659 544 1381 
z
M 1991 3584 
L 1991 3584 
z
" transform="scale(0.015625)"/>
      <path id="DejaVuSans-7a" d="M 353 3500 
L 3084 3500 
L 3084 2975 
L 922 459 
L 3084 459 
L 3084 0 
L 275 0 
L 275 525 
L 2438 3041 
L 353 3041 
L 353 3500 
z
" transform="scale(0.015625)"/>
     </defs>
     <use xlink:href="#DejaVuSans-62"/>
     <use xlink:href="#DejaVuSans-61" transform="translate(63.476562 0)"/>
     <use xlink:href="#DejaVuSans-6e" transform="translate(124.755859 0)"/>
     <use xlink:href="#DejaVuSans-64" transform="translate(188.134766 0)"/>
     <use xlink:href="#DejaVuSans-61" transform="translate(251.611328 0)"/>
     <use xlink:href="#DejaVuSans-20" transform="translate(312.890625 0)"/>
     <use xlink:href="#DejaVuSans-64" transform="translate(344.677734 0)"/>
     <use xlink:href="#DejaVuSans-69" transform="translate(408.154297 0)"/>
     <use xlink:href="#DejaVuSans-20" transform="translate(435.9375 0)"/>
     <use xlink:href="#DejaVuSans-63" transform="translate(467.724609 0)"/>
     <use xlink:href="#DejaVuSans-6f" transform="translate(522.705078 0)"/>
     <use xlink:href="#DejaVuSans-6e" transform="translate(583.886719 0)"/>
     <use xlink:href="#DejaVuSans-64" transform="translate(647.265625 0)"/>
     <use xlink:href="#DejaVuSans-75" transform="translate(710.742188 0)"/>
     <use xlink:href="#DejaVuSans-7a" transform="translate(774.121094 0)"/>
     <use xlink:href="#DejaVuSans-69" transform="translate(826.611328 0)"/>
     <use xlink:href="#DejaVuSans-6f" transform="translate(854.394531 0)"/>
     <use xlink:href="#DejaVuSans-6e" transform="translate(915.576172 0)"/>
     <use xlink:href="#DejaVuSans-65" transform="translate(978.955078 0)"/>
    </g>
   </g>
   <g id="text_10">
    <!-- banda di valenza -->
    <g transform="translate(71.31274 375.228168) scale(0.1 -0.1)">
     <defs>
      <path id="DejaVuSans-6c" d="M 603 4863 
L 1178 4863 
L 1178 0 
L 603 0 
L 603 4863 
z
" transform="scale(0.015625)"/>
     </defs>
     <use xlink:href="#DejaVuSans-62"/>
     <use xlink:href="#DejaVuSans-61" transform="translate(63.476562 0)"/>
     <use xlink:href="#DejaVuSans-6e" transform="translate(124.755859 0)"/>
     <use xlink:href="#DejaVuSans-64" transform="translate(188.134766 0)"/>
     <use xlink:href="#DejaVuSans-61" transform="translate(251.611328 0)"/>
     <use xlink:href="#DejaVuSans-20" transform="translate(312.890625 0)"/>
     <use xlink:href="#DejaVuSans-64" transform="translate(344.677734 0)"/>
     <use xlink:href="#DejaVuSans-69" transform="translate(408.154297 0)"/>
     <use xlink:href="#DejaVuSans-20" transform="translate(435.9375 0)"/>
     <use xlink:href="#DejaVuSans-76" transform="translate(467.724609 0)"/>
     <use xlink:href="#DejaVuSans-61" transform="translate(526.904297 0)"/>
     <use xlink:href="#DejaVuSans-6c" transform="translate(588.183594 0)"/>
     <use xlink:href="#DejaVuSans-65" transform="translate(615.966797 0)"/>
     <use xlink:href="#DejaVuSans-6e" transform="translate(677.490234 0)"/>
     <use xlink:href="#DejaVuSans-7a" transform="translate(740.869141 0)"/>
     <use xlink:href="#DejaVuSans-61" transform="translate(793.359375 0)"/>
    </g>
   </g>
   <g id="text_11">
    <!-- Transizioni ottiche in un semiconduttore a gap diretto -->
    <g transform="translate(54.486563 18.597656) scale(0.15 -0.15)">
     <defs>
      <path id="DejaVuSans-Bold-54" d="M 31 4666 
L 4331 4666 
L 4331 3756 
L 2784 3756 
L 2784 0 
L 1581 0 
L 1581 3756 
L 31 3756 
L 31 4666 
z
" transform="scale(0.015625)"/>
      <path id="DejaVuSans-Bold-72" d="M 3138 2547 
Q 2991 2616 2845 2648 
Q 2700 2681 2553 2681 
Q 2122 2681 1889 2404 
Q 1656 2128 1656 1613 
L 1656 0 
L 538 0 
L 538 3500 
L 1656 3500 
L 1656 2925 
Q 1872 3269 2151 3426 
Q 2431 3584 2822 3584 
Q 2878 3584 2943 3579 
Q 3009 3575 3134 3559 
L 3138 2547 
z
" transform="scale(0.015625)"/>
      <path id="DejaVuSans-Bold-61" d="M 2106 1575 
Q 1756 1575 1579 1456 
Q 1403 1338 1403 1106 
Q 1403 894 1545 773 
Q 1688 653 1941 653 
Q 2256 653 2472 879 
Q 2688 1106 2688 1447 
L 2688 1575 
L 2106 1575 
z
M 3816 1997 
L 3816 0 
L 2688 0 
L 2688 519 
Q 2463 200 2181 54 
Q 1900 -91 1497 -91 
Q 953 -91 614 226 
Q 275 544 275 1050 
Q 275 1666 698 1953 
Q 1122 2241 2028 2241 
L 2688 2241 
L 2688 2328 
Q 2688 2594 2478 2717 
Q 2269 2841 1825 2841 
Q 1466 2841 1156 2769 
Q 847 2697 581 2553 
L 581 3406 
Q 941 3494 1303 3539 
Q 1666 3584 2028 3584 
Q 2975 3584 3395 3211 
Q 3816 2838 3816 1997 
z
" transform="scale(0.015625)"/>
      <path id="DejaVuSans-Bold-6e" d="M 4056 2131 
L 4056 0 
L 2931 0 
L 2931 347 
L 2931 1631 
Q 2931 2084 2911 2256 
Q 2891 2428 2841 2509 
Q 2775 2619 2662 2680 
Q 2550 2741 2406 2741 
Q 2056 2741 1856 2470 
Q 1656 2200 1656 1722 
L 1656 0 
L 538 0 
L 538 3500 
L 1656 3500 
L 1656 2988 
Q 1909 3294 2193 3439 
Q 2478 3584 2822 3584 
Q 3428 3584 3742 3212 
Q 4056 2841 4056 2131 
z
" transform="scale(0.015625)"/>
      <path id="DejaVuSans-Bold-73" d="M 3272 3391 
L 3272 2541 
Q 2913 2691 2578 2766 
Q 2244 2841 1947 2841 
Q 1628 2841 1473 2761 
Q 1319 2681 1319 2516 
Q 1319 2381 1436 2309 
Q 1553 2238 1856 2203 
L 2053 2175 
Q 2913 2066 3209 1816 
Q 3506 1566 3506 1031 
Q 3506 472 3093 190 
Q 2681 -91 1863 -91 
Q 1516 -91 1145 -36 
Q 775 19 384 128 
L 384 978 
Q 719 816 1070 734 
Q 1422 653 1784 653 
Q 2113 653 2278 743 
Q 2444 834 2444 1013 
Q 2444 1163 2330 1236 
Q 2216 1309 1875 1350 
L 1678 1375 
Q 931 1469 631 1722 
Q 331 1975 331 2491 
Q 331 3047 712 3315 
Q 1094 3584 1881 3584 
Q 2191 3584 2531 3537 
Q 2872 3491 3272 3391 
z
" transform="scale(0.015625)"/>
      <path id="DejaVuSans-Bold-69" d="M 538 3500 
L 1656 3500 
L 1656 0 
L 538 0 
L 538 3500 
z
M 538 4863 
L 1656 4863 
L 1656 3950 
L 538 3950 
L 538 4863 
z
" transform="scale(0.015625)"/>
      <path id="DejaVuSans-Bold-7a" d="M 366 3500 
L 3419 3500 
L 3419 2719 
L 1575 800 
L 3419 800 
L 3419 0 
L 288 0 
L 288 781 
L 2131 2700 
L 366 2700 
L 366 3500 
z
" transform="scale(0.015625)"/>
      <path id="DejaVuSans-Bold-6f" d="M 2203 2784 
Q 1831 2784 1636 2517 
Q 1441 2250 1441 1747 
Q 1441 1244 1636 976 
Q 1831 709 2203 709 
Q 2569 709 2762 976 
Q 2956 1244 2956 1747 
Q 2956 2250 2762 2517 
Q 2569 2784 2203 2784 
z
M 2203 3584 
Q 3106 3584 3614 3096 
Q 4122 2609 4122 1747 
Q 4122 884 3614 396 
Q 3106 -91 2203 -91 
Q 1297 -91 786 396 
Q 275 884 275 1747 
Q 275 2609 786 3096 
Q 1297 3584 2203 3584 
z
" transform="scale(0.015625)"/>
      <path id="DejaVuSans-Bold-20" transform="scale(0.015625)"/>
      <path id="DejaVuSans-Bold-74" d="M 1759 4494 
L 1759 3500 
L 2913 3500 
L 2913 2700 
L 1759 2700 
L 1759 1216 
Q 1759 972 1856 886 
Q 1953 800 2241 800 
L 2816 800 
L 2816 0 
L 1856 0 
Q 1194 0 917 276 
Q 641 553 641 1216 
L 641 2700 
L 84 2700 
L 84 3500 
L 641 3500 
L 641 4494 
L 1759 4494 
z
" transform="scale(0.015625)"/>
      <path id="DejaVuSans-Bold-63" d="M 3366 3391 
L 3366 2478 
Q 3138 2634 2908 2709 
Q 2678 2784 2431 2784 
Q 1963 2784 1702 2511 
Q 1441 2238 1441 1747 
Q 1441 1256 1702 982 
Q 1963 709 2431 709 
Q 2694 709 2930 787 
Q 3166 866 3366 1019 
L 3366 103 
Q 3103 6 2833 -42 
Q 2563 -91 2291 -91 
Q 1344 -91 809 395 
Q 275 881 275 1747 
Q 275 2613 809 3098 
Q 1344 3584 2291 3584 
Q 2566 3584 2833 3536 
Q 3100 3488 3366 3391 
z
" transform="scale(0.015625)"/>
      <path id="DejaVuSans-Bold-68" d="M 4056 2131 
L 4056 0 
L 2931 0 
L 2931 347 
L 2931 1625 
Q 2931 2084 2911 2256 
Q 2891 2428 2841 2509 
Q 2775 2619 2662 2680 
Q 2550 2741 2406 2741 
Q 2056 2741 1856 2470 
Q 1656 2200 1656 1722 
L 1656 0 
L 538 0 
L 538 4863 
L 1656 4863 
L 1656 2988 
Q 1909 3294 2193 3439 
Q 2478 3584 2822 3584 
Q 3428 3584 3742 3212 
Q 4056 2841 4056 2131 
z
" transform="scale(0.015625)"/>
      <path id="DejaVuSans-Bold-65" d="M 4031 1759 
L 4031 1441 
L 1416 1441 
Q 1456 1047 1700 850 
Q 1944 653 2381 653 
Q 2734 653 3104 758 
Q 3475 863 3866 1075 
L 3866 213 
Q 3469 63 3072 -14 
Q 2675 -91 2278 -91 
Q 1328 -91 801 392 
Q 275 875 275 1747 
Q 275 2603 792 3093 
Q 1309 3584 2216 3584 
Q 3041 3584 3536 3087 
Q 4031 2591 4031 1759 
z
M 2881 2131 
Q 2881 2450 2695 2645 
Q 2509 2841 2209 2841 
Q 1884 2841 1681 2658 
Q 1478 2475 1428 2131 
L 2881 2131 
z
" transform="scale(0.015625)"/>
      <path id="DejaVuSans-Bold-75" d="M 500 1363 
L 500 3500 
L 1625 3500 
L 1625 3150 
Q 1625 2866 1622 2436 
Q 1619 2006 1619 1863 
Q 1619 1441 1641 1255 
Q 1663 1069 1716 984 
Q 1784 875 1895 815 
Q 2006 756 2150 756 
Q 2500 756 2700 1025 
Q 2900 1294 2900 1772 
L 2900 3500 
L 4019 3500 
L 4019 0 
L 2900 0 
L 2900 506 
Q 2647 200 2364 54 
Q 2081 -91 1741 -91 
Q 1134 -91 817 281 
Q 500 653 500 1363 
z
" transform="scale(0.015625)"/>
      <path id="DejaVuSans-Bold-6d" d="M 3781 2919 
Q 3994 3244 4286 3414 
Q 4578 3584 4928 3584 
Q 5531 3584 5847 3212 
Q 6163 2841 6163 2131 
L 6163 0 
L 5038 0 
L 5038 1825 
Q 5041 1866 5042 1909 
Q 5044 1953 5044 2034 
Q 5044 2406 4934 2573 
Q 4825 2741 4581 2741 
Q 4263 2741 4089 2478 
Q 3916 2216 3909 1719 
L 3909 0 
L 2784 0 
L 2784 1825 
Q 2784 2406 2684 2573 
Q 2584 2741 2328 2741 
Q 2006 2741 1831 2477 
Q 1656 2213 1656 1722 
L 1656 0 
L 531 0 
L 531 3500 
L 1656 3500 
L 1656 2988 
Q 1863 3284 2130 3434 
Q 2397 3584 2719 3584 
Q 3081 3584 3359 3409 
Q 3638 3234 3781 2919 
z
" transform="scale(0.015625)"/>
      <path id="DejaVuSans-Bold-64" d="M 2919 2988 
L 2919 4863 
L 4044 4863 
L 4044 0 
L 2919 0 
L 2919 506 
Q 2688 197 2409 53 
Q 2131 -91 1766 -91 
Q 1119 -91 703 423 
Q 288 938 288 1747 
Q 288 2556 703 3070 
Q 1119 3584 1766 3584 
Q 2128 3584 2408 3439 
Q 2688 3294 2919 2988 
z
M 2181 722 
Q 2541 722 2730 984 
Q 2919 1247 2919 1747 
Q 2919 2247 2730 2509 
Q 2541 2772 2181 2772 
Q 1825 2772 1636 2509 
Q 1447 2247 1447 1747 
Q 1447 1247 1636 984 
Q 1825 722 2181 722 
z
" transform="scale(0.015625)"/>
      <path id="DejaVuSans-Bold-67" d="M 2919 594 
Q 2688 288 2409 144 
Q 2131 0 1766 0 
Q 1125 0 706 504 
Q 288 1009 288 1791 
Q 288 2575 706 3076 
Q 1125 3578 1766 3578 
Q 2131 3578 2409 3434 
Q 2688 3291 2919 2981 
L 2919 3500 
L 4044 3500 
L 4044 353 
Q 4044 -491 3511 -936 
Q 2978 -1381 1966 -1381 
Q 1638 -1381 1331 -1331 
Q 1025 -1281 716 -1178 
L 716 -306 
Q 1009 -475 1290 -558 
Q 1572 -641 1856 -641 
Q 2406 -641 2662 -400 
Q 2919 -159 2919 353 
L 2919 594 
z
M 2181 2772 
Q 1834 2772 1640 2515 
Q 1447 2259 1447 1791 
Q 1447 1309 1634 1061 
Q 1822 813 2181 813 
Q 2531 813 2725 1069 
Q 2919 1325 2919 1791 
Q 2919 2259 2725 2515 
Q 2531 2772 2181 2772 
z
" transform="scale(0.015625)"/>
      <path id="DejaVuSans-Bold-70" d="M 1656 506 
L 1656 -1331 
L 538 -1331 
L 538 3500 
L 1656 3500 
L 1656 2988 
Q 1888 3294 2169 3439 
Q 2450 3584 2816 3584 
Q 3463 3584 3878 3070 
Q 4294 2556 4294 1747 
Q 4294 938 3878 423 
Q 3463 -91 2816 -91 
Q 2450 -91 2169 54 
Q 1888 200 1656 506 
z
M 2400 2772 
Q 2041 2772 1848 2508 
Q 1656 2244 1656 1747 
Q 1656 1250 1848 986 
Q 2041 722 2400 722 
Q 2759 722 2948 984 
Q 3138 1247 3138 1747 
Q 3138 2247 2948 2509 
Q 2759 2772 2400 2772 
z
" transform="scale(0.015625)"/>
     </defs>
     <use xlink:href="#DejaVuSans-Bold-54"/>
     <use xlink:href="#DejaVuSans-Bold-72" transform="translate(57.212891 0)"/>
     <use xlink:href="#DejaVuSans-Bold-61" transform="translate(106.529297 0)"/>
     <use xlink:href="#DejaVuSans-Bold-6e" transform="translate(174.009766 0)"/>
     <use xlink:href="#DejaVuSans-Bold-73" transform="translate(245.201172 0)"/>
     <use xlink:href="#DejaVuSans-Bold-69" transform="translate(304.722656 0)"/>
     <use xlink:href="#DejaVuSans-Bold-7a" transform="translate(339 0)"/>
     <use xlink:href="#DejaVuSans-Bold-69" transform="translate(397.203125 0)"/>
     <use xlink:href="#DejaVuSans-Bold-6f" transform="translate(431.480469 0)"/>
     <use xlink:href="#DejaVuSans-Bold-6e" transform="translate(500.181641 0)"/>
     <use xlink:href="#DejaVuSans-Bold-69" transform="translate(571.373047 0)"/>
     <use xlink:href="#DejaVuSans-Bold-20" transform="translate(605.650391 0)"/>
     <use xlink:href="#DejaVuSans-Bold-6f" transform="translate(640.464844 0)"/>
     <use xlink:href="#DejaVuSans-Bold-74" transform="translate(709.166016 0)"/>
     <use xlink:href="#DejaVuSans-Bold-74" transform="translate(756.96875 0)"/>
     <use xlink:href="#DejaVuSans-Bold-69" transform="translate(804.771484 0)"/>
     <use xlink:href="#DejaVuSans-Bold-63" transform="translate(839.048828 0)"/>
     <use xlink:href="#DejaVuSans-Bold-68" transform="translate(898.326172 0)"/>
     <use xlink:href="#DejaVuSans-Bold-65" transform="translate(969.517578 0)"/>
     <use xlink:href="#DejaVuSans-Bold-20" transform="translate(1037.339844 0)"/>
     <use xlink:href="#DejaVuSans-Bold-69" transform="translate(1072.154297 0)"/>
     <use xlink:href="#DejaVuSans-Bold-6e" transform="translate(1106.431641 0)"/>
     <use xlink:href="#DejaVuSans-Bold-20" transform="translate(1177.623047 0)"/>
     <use xlink:href="#DejaVuSans-Bold-75" transform="translate(1212.4375 0)"/>
     <use xlink:href="#DejaVuSans-Bold-6e" transform="translate(1283.628906 0)"/>
     <use xlink:href="#DejaVuSans-Bold-20" transform="translate(1354.820312 0)"/>
     <use xlink:href="#DejaVuSans-Bold-73" transform="translate(1389.634766 0)"/>
     <use xlink:href="#DejaVuSans-Bold-65" transform="translate(1449.15625 0)"/>
     <use xlink:href="#DejaVuSans-Bold-6d" transform="translate(1516.978516 0)"/>
     <use xlink:href="#DejaVuSans-Bold-69" transform="translate(1621.177734 0)"/>
     <use xlink:href="#DejaVuSans-Bold-63" transform="translate(1655.455078 0)"/>
     <use xlink:href="#DejaVuSans-Bold-6f" transform="translate(1714.732422 0)"/>
     <use xlink:href="#DejaVuSans-Bold-6e" transform="translate(1783.433594 0)"/>
     <use xlink:href="#DejaVuSans-Bold-64" transform="translate(1854.625 0)"/>
     <use xlink:href="#DejaVuSans-Bold-75" transform="translate(1926.207031 0)"/>
     <use xlink:href="#DejaVuSans-Bold-74" transform="translate(1997.398438 0)"/>
     <use xlink:href="#DejaVuSans-Bold-74" transform="translate(2045.201172 0)"/>
     <use xlink:href="#DejaVuSans-Bold-6f" transform="translate(2093.003906 0)"/>
     <use xlink:href="#DejaVuSans-Bold-72" transform="translate(2161.705078 0)"/>
     <use xlink:href="#DejaVuSans-Bold-65" transform="translate(2211.021484 0)"/>
     <use xlink:href="#DejaVuSans-Bold-20" transform="translate(2278.84375 0)"/>
     <use xlink:href="#DejaVuSans-Bold-61" transform="translate(2313.658203 0)"/>
     <use xlink:href="#DejaVuSans-Bold-20" transform="translate(2381.138672 0)"/>
     <use xlink:href="#DejaVuSans-Bold-67" transform="translate(2415.953125 0)"/>
     <use xlink:href="#DejaVuSans-Bold-61" transform="translate(2487.535156 0)"/>
     <use xlink:href="#DejaVuSans-Bold-70" transform="translate(2555.015625 0)"/>
     <use xlink:href="#DejaVuSans-Bold-20" transform="translate(2626.597656 0)"/>
     <use xlink:href="#DejaVuSans-Bold-64" transform="translate(2661.412109 0)"/>
     <use xlink:href="#DejaVuSans-Bold-69" transform="translate(2732.994141 0)"/>
     <use xlink:href="#DejaVuSans-Bold-72" transform="translate(2767.271484 0)"/>
     <use xlink:href="#DejaVuSans-Bold-65" transform="translate(2816.587891 0)"/>
     <use xlink:href="#DejaVuSans-Bold-74" transform="translate(2884.410156 0)"/>
     <use xlink:href="#DejaVuSans-Bold-74" transform="translate(2932.212891 0)"/>
     <use xlink:href="#DejaVuSans-Bold-6f" transform="translate(2980.015625 0)"/>
    </g>
   </g>
  </g>
  <g id="text_12">
   <!-- L'impulso del fotone è trascurabile: la transizione ottica deve essere quasi verticale nello spazio k. -->
   <g transform="translate(27.9125 432.141656) scale(0.1 -0.1)">
    <defs>
     <path id="DejaVuSans-4c" d="M 628 4666 
L 1259 4666 
L 1259 531 
L 3531 531 
L 3531 0 
L 628 0 
L 628 4666 
z
" transform="scale(0.015625)"/>
     <path id="DejaVuSans-70" d="M 1159 525 
L 1159 -1331 
L 581 -1331 
L 581 3500 
L 1159 3500 
L 1159 2969 
Q 1341 3281 1617 3432 
Q 1894 3584 2278 3584 
Q 2916 3584 3314 3078 
Q 3713 2572 3713 1747 
Q 3713 922 3314 415 
Q 2916 -91 2278 -91 
Q 1894 -91 1617 61 
Q 1341 213 1159 525 
z
M 3116 1747 
Q 3116 2381 2855 2742 
Q 2594 3103 2138 3103 
Q 1681 3103 1420 2742 
Q 1159 2381 1159 1747 
Q 1159 1113 1420 752 
Q 1681 391 2138 391 
Q 2594 391 2855 752 
Q 3116 1113 3116 1747 
z
" transform="scale(0.015625)"/>
     <path id="DejaVuSans-e8" d="M 3597 1894 
L 3597 1613 
L 953 1613 
Q 991 1019 1311 708 
Q 1631 397 2203 397 
Q 2534 397 2845 478 
Q 3156 559 3463 722 
L 3463 178 
Q 3153 47 2828 -22 
Q 2503 -91 2169 -91 
Q 1331 -91 842 396 
Q 353 884 353 1716 
Q 353 2575 817 3079 
Q 1281 3584 2069 3584 
Q 2775 3584 3186 3129 
Q 3597 2675 3597 1894 
z
M 3022 2063 
Q 3016 2534 2758 2815 
Q 2500 3097 2075 3097 
Q 1594 3097 1305 2825 
Q 1016 2553 972 2059 
L 3022 2063 
z
M 1579 5119 
L 2460 3950 
L 1982 3950 
L 963 5119 
L 1579 5119 
z
" transform="scale(0.015625)"/>
     <path id="DejaVuSans-3a" d="M 750 794 
L 1409 794 
L 1409 0 
L 750 0 
L 750 794 
z
M 750 3309 
L 1409 3309 
L 1409 2516 
L 750 2516 
L 750 3309 
z
" transform="scale(0.015625)"/>
     <path id="DejaVuSans-71" d="M 947 1747 
Q 947 1113 1208 752 
Q 1469 391 1925 391 
Q 2381 391 2643 752 
Q 2906 1113 2906 1747 
Q 2906 2381 2643 2742 
Q 2381 3103 1925 3103 
Q 1469 3103 1208 2742 
Q 947 2381 947 1747 
z
M 2906 525 
Q 2725 213 2448 61 
Q 2172 -91 1784 -91 
Q 1150 -91 751 415 
Q 353 922 353 1747 
Q 353 2572 751 3078 
Q 1150 3584 1784 3584 
Q 2172 3584 2448 3432 
Q 2725 3281 2906 2969 
L 2906 3500 
L 3481 3500 
L 3481 -1331 
L 2906 -1331 
L 2906 525 
z
" transform="scale(0.015625)"/>
     <path id="DejaVuSans-6b" d="M 581 4863 
L 1159 4863 
L 1159 1991 
L 2875 3500 
L 3609 3500 
L 1753 1863 
L 3688 0 
L 2938 0 
L 1159 1709 
L 1159 0 
L 581 0 
L 581 4863 
z
" transform="scale(0.015625)"/>
     <path id="DejaVuSans-2e" d="M 684 794 
L 1344 794 
L 1344 0 
L 684 0 
L 684 794 
z
" transform="scale(0.015625)"/>
    </defs>
    <use xlink:href="#DejaVuSans-4c"/>
    <use xlink:href="#DejaVuSans-27" transform="translate(55.712891 0)"/>
    <use xlink:href="#DejaVuSans-69" transform="translate(83.203125 0)"/>
    <use xlink:href="#DejaVuSans-6d" transform="translate(110.986328 0)"/>
    <use xlink:href="#DejaVuSans-70" transform="translate(208.398438 0)"/>
    <use xlink:href="#DejaVuSans-75" transform="translate(271.875 0)"/>
    <use xlink:href="#DejaVuSans-6c" transform="translate(335.253906 0)"/>
    <use xlink:href="#DejaVuSans-73" transform="translate(363.037109 0)"/>
    <use xlink:href="#DejaVuSans-6f" transform="translate(415.136719 0)"/>
    <use xlink:href="#DejaVuSans-20" transform="translate(476.318359 0)"/>
    <use xlink:href="#DejaVuSans-64" transform="translate(508.105469 0)"/>
    <use xlink:href="#DejaVuSans-65" transform="translate(571.582031 0)"/>
    <use xlink:href="#DejaVuSans-6c" transform="translate(633.105469 0)"/>
    <use xlink:href="#DejaVuSans-20" transform="translate(660.888672 0)"/>
    <use xlink:href="#DejaVuSans-66" transform="translate(692.675781 0)"/>
    <use xlink:href="#DejaVuSans-6f" transform="translate(727.880859 0)"/>
    <use xlink:href="#DejaVuSans-74" transform="translate(789.0625 0)"/>
    <use xlink:href="#DejaVuSans-6f" transform="translate(828.271484 0)"/>
    <use xlink:href="#DejaVuSans-6e" transform="translate(889.453125 0)"/>
    <use xlink:href="#DejaVuSans-65" transform="translate(952.832031 0)"/>
    <use xlink:href="#DejaVuSans-20" transform="translate(1014.355469 0)"/>
    <use xlink:href="#DejaVuSans-e8" transform="translate(1046.142578 0)"/>
    <use xlink:href="#DejaVuSans-20" transform="translate(1107.666016 0)"/>
    <use xlink:href="#DejaVuSans-74" transform="translate(1139.453125 0)"/>
    <use xlink:href="#DejaVuSans-72" transform="translate(1178.662109 0)"/>
    <use xlink:href="#DejaVuSans-61" transform="translate(1219.775391 0)"/>
    <use xlink:href="#DejaVuSans-73" transform="translate(1281.054688 0)"/>
    <use xlink:href="#DejaVuSans-63" transform="translate(1333.154297 0)"/>
    <use xlink:href="#DejaVuSans-75" transform="translate(1388.134766 0)"/>
    <use xlink:href="#DejaVuSans-72" transform="translate(1451.513672 0)"/>
    <use xlink:href="#DejaVuSans-61" transform="translate(1492.626953 0)"/>
    <use xlink:href="#DejaVuSans-62" transform="translate(1553.90625 0)"/>
    <use xlink:href="#DejaVuSans-69" transform="translate(1617.382812 0)"/>
    <use xlink:href="#DejaVuSans-6c" transform="translate(1645.166016 0)"/>
    <use xlink:href="#DejaVuSans-65" transform="translate(1672.949219 0)"/>
    <use xlink:href="#DejaVuSans-3a" transform="translate(1734.472656 0)"/>
    <use xlink:href="#DejaVuSans-20" transform="translate(1768.164062 0)"/>
    <use xlink:href="#DejaVuSans-6c" transform="translate(1799.951172 0)"/>
    <use xlink:href="#DejaVuSans-61" transform="translate(1827.734375 0)"/>
    <use xlink:href="#DejaVuSans-20" transform="translate(1889.013672 0)"/>
    <use xlink:href="#DejaVuSans-74" transform="translate(1920.800781 0)"/>
    <use xlink:href="#DejaVuSans-72" transform="translate(1960.009766 0)"/>
    <use xlink:href="#DejaVuSans-61" transform="translate(2001.123047 0)"/>
    <use xlink:href="#DejaVuSans-6e" transform="translate(2062.402344 0)"/>
    <use xlink:href="#DejaVuSans-73" transform="translate(2125.78125 0)"/>
    <use xlink:href="#DejaVuSans-69" transform="translate(2177.880859 0)"/>
    <use xlink:href="#DejaVuSans-7a" transform="translate(2205.664062 0)"/>
    <use xlink:href="#DejaVuSans-69" transform="translate(2258.154297 0)"/>
    <use xlink:href="#DejaVuSans-6f" transform="translate(2285.9375 0)"/>
    <use xlink:href="#DejaVuSans-6e" transform="translate(2347.119141 0)"/>
    <use xlink:href="#DejaVuSans-65" transform="translate(2410.498047 0)"/>
    <use xlink:href="#DejaVuSans-20" transform="translate(2472.021484 0)"/>
    <use xlink:href="#DejaVuSans-6f" transform="translate(2503.808594 0)"/>
    <use xlink:href="#DejaVuSans-74" transform="translate(2564.990234 0)"/>
    <use xlink:href="#DejaVuSans-74" transform="translate(2604.199219 0)"/>
    <use xlink:href="#DejaVuSans-69" transform="translate(2643.408203 0)"/>
    <use xlink:href="#DejaVuSans-63" transform="translate(2671.191406 0)"/>
    <use xlink:href="#DejaVuSans-61" transform="translate(2726.171875 0)"/>
    <use xlink:href="#DejaVuSans-20" transform="translate(2787.451172 0)"/>
    <use xlink:href="#DejaVuSans-64" transform="translate(2819.238281 0)"/>
    <use xlink:href="#DejaVuSans-65" transform="translate(2882.714844 0)"/>
    <use xlink:href="#DejaVuSans-76" transform="translate(2944.238281 0)"/>
    <use xlink:href="#DejaVuSans-65" transform="translate(3003.417969 0)"/>
    <use xlink:href="#DejaVuSans-20" transform="translate(3064.941406 0)"/>
    <use xlink:href="#DejaVuSans-65" transform="translate(3096.728516 0)"/>
    <use xlink:href="#DejaVuSans-73" transform="translate(3158.251953 0)"/>
    <use xlink:href="#DejaVuSans-73" transform="translate(3210.351562 0)"/>
    <use xlink:href="#DejaVuSans-65" transform="translate(3262.451172 0)"/>
    <use xlink:href="#DejaVuSans-72" transform="translate(3323.974609 0)"/>
    <use xlink:href="#DejaVuSans-65" transform="translate(3362.837891 0)"/>
    <use xlink:href="#DejaVuSans-20" transform="translate(3424.361328 0)"/>
    <use xlink:href="#DejaVuSans-71" transform="translate(3456.148438 0)"/>
    <use xlink:href="#DejaVuSans-75" transform="translate(3519.625 0)"/>
    <use xlink:href="#DejaVuSans-61" transform="translate(3583.003906 0)"/>
    <use xlink:href="#DejaVuSans-73" transform="translate(3644.283203 0)"/>
    <use xlink:href="#DejaVuSans-69" transform="translate(3696.382812 0)"/>
    <use xlink:href="#DejaVuSans-20" transform="translate(3724.166016 0)"/>
    <use xlink:href="#DejaVuSans-76" transform="translate(3755.953125 0)"/>
    <use xlink:href="#DejaVuSans-65" transform="translate(3815.132812 0)"/>
    <use xlink:href="#DejaVuSans-72" transform="translate(3876.65625 0)"/>
    <use xlink:href="#DejaVuSans-74" transform="translate(3917.769531 0)"/>
    <use xlink:href="#DejaVuSans-69" transform="translate(3956.978516 0)"/>
    <use xlink:href="#DejaVuSans-63" transform="translate(3984.761719 0)"/>
    <use xlink:href="#DejaVuSans-61" transform="translate(4039.742188 0)"/>
    <use xlink:href="#DejaVuSans-6c" transform="translate(4101.021484 0)"/>
    <use xlink:href="#DejaVuSans-65" transform="translate(4128.804688 0)"/>
    <use xlink:href="#DejaVuSans-20" transform="translate(4190.328125 0)"/>
    <use xlink:href="#DejaVuSans-6e" transform="translate(4222.115234 0)"/>
    <use xlink:href="#DejaVuSans-65" transform="translate(4285.494141 0)"/>
    <use xlink:href="#DejaVuSans-6c" transform="translate(4347.017578 0)"/>
    <use xlink:href="#DejaVuSans-6c" transform="translate(4374.800781 0)"/>
    <use xlink:href="#DejaVuSans-6f" transform="translate(4402.583984 0)"/>
    <use xlink:href="#DejaVuSans-20" transform="translate(4463.765625 0)"/>
    <use xlink:href="#DejaVuSans-73" transform="translate(4495.552734 0)"/>
    <use xlink:href="#DejaVuSans-70" transform="translate(4547.652344 0)"/>
    <use xlink:href="#DejaVuSans-61" transform="translate(4611.128906 0)"/>
    <use xlink:href="#DejaVuSans-7a" transform="translate(4672.408203 0)"/>
    <use xlink:href="#DejaVuSans-69" transform="translate(4724.898438 0)"/>
    <use xlink:href="#DejaVuSans-6f" transform="translate(4752.681641 0)"/>
    <use xlink:href="#DejaVuSans-20" transform="translate(4813.863281 0)"/>
    <use xlink:href="#DejaVuSans-6b" transform="translate(4845.650391 0)"/>
    <use xlink:href="#DejaVuSans-2e" transform="translate(4903.560547 0)"/>
   </g>
  </g>
 </g>
 <defs>
  <clipPath id="p0bb3cb018e">
   <rect x="20.878125" y="30.597656" width="524.52" height="365.904"/>
  </clipPath>
 </defs>
</svg>
