<?xml version="1.0" encoding="utf-8" standalone="no"?>
<!DOCTYPE svg PUBLIC "-//W3C//DTD SVG 1.1//EN"
  "http://www.w3.org/Graphics/SVG/1.1/DTD/svg11.dtd">
<svg xmlns:xlink="http://www.w3.org/1999/xlink" width="664.94pt" height="483.709344pt" viewBox="0 0 664.94 483.709344" xmlns="http://www.w3.org/2000/svg" version="1.1">
 <metadata>
  <rdf:RDF xmlns:dc="http://purl.org/dc/elements/1.1/" xmlns:cc="http://creativecommons.org/ns#" xmlns:rdf="http://www.w3.org/1999/02/22-rdf-syntax-ns#">
   <cc:Work>
    <dc:type rdf:resource="http://purl.org/dc/dcmitype/StillImage"/>
    <dc:date>2026-06-16T12:24:03.149666</dc:date>
    <dc:format>image/svg+xml</dc:format>
    <dc:creator>
     <cc:Agent>
      <dc:title>Matplotlib v3.10.8, https://matplotlib.org/</dc:title>
     </cc:Agent>
    </dc:creator>
   </cc:Work>
  </rdf:RDF>
 </metadata>
 <defs>
  <style type="text/css">*{stroke-linejoin: round; stroke-linecap: butt}</style>
 </defs>
 <g id="figure_1">
  <g id="patch_1">
   <path d="M 0 483.709344 
L 664.94 483.709344 
L 664.94 0 
L 0 0 
z
" style="fill: #ffffff"/>
  </g>
  <g id="axes_1">
   <g id="patch_2">
    <path d="M 46.3 430.365656 
L 648.94 430.365656 
L 648.94 31.197656 
L 46.3 31.197656 
z
" style="fill: #ffffff"/>
   </g>
   <g id="matplotlib.axis_1">
    <g id="xtick_1">
     <g id="line2d_1">
      <path d="M 303.533625 430.365656 
L 303.533625 31.197656 
" clip-path="url(#pbb9dc96c7c)" style="fill: none; stroke: #b0b0b0; stroke-opacity: 0.16; stroke-width: 0.8; stroke-linecap: square"/>
     </g>
     <g id="line2d_2">
      <defs>
       <path id="mf46f1d98f8" d="M 0 0 
L 0 3.5 
" style="stroke: #000000; stroke-width: 0.8"/>
      </defs>
      <g>
       <use xlink:href="#mf46f1d98f8" x="303.533625" y="430.365656" style="stroke: #000000; stroke-width: 0.8"/>
      </g>
     </g>
     <g id="text_1">
      <!-- $\mathdefault{10^{2}}$ -->
      <g transform="translate(294.733625 444.964094) scale(0.1 -0.1)">
       <defs>
        <path id="DejaVuSans-31" d="M 794 531 
L 1825 531 
L 1825 4091 
L 703 3866 
L 703 4441 
L 1819 4666 
L 2450 4666 
L 2450 531 
L 3481 531 
L 3481 0 
L 794 0 
L 794 531 
z
" transform="scale(0.015625)"/>
        <path id="DejaVuSans-30" d="M 2034 4250 
Q 1547 4250 1301 3770 
Q 1056 3291 1056 2328 
Q 1056 1369 1301 889 
Q 1547 409 2034 409 
Q 2525 409 2770 889 
Q 3016 1369 3016 2328 
Q 3016 3291 2770 3770 
Q 2525 4250 2034 4250 
z
M 2034 4750 
Q 2819 4750 3233 4129 
Q 3647 3509 3647 2328 
Q 3647 1150 3233 529 
Q 2819 -91 2034 -91 
Q 1250 -91 836 529 
Q 422 1150 422 2328 
Q 422 3509 836 4129 
Q 1250 4750 2034 4750 
z
" transform="scale(0.015625)"/>
        <path id="DejaVuSans-32" d="M 1228 531 
L 3431 531 
L 3431 0 
L 469 0 
L 469 531 
Q 828 903 1448 1529 
Q 2069 2156 2228 2338 
Q 2531 2678 2651 2914 
Q 2772 3150 2772 3378 
Q 2772 3750 2511 3984 
Q 2250 4219 1831 4219 
Q 1534 4219 1204 4116 
Q 875 4013 500 3803 
L 500 4441 
Q 881 4594 1212 4672 
Q 1544 4750 1819 4750 
Q 2544 4750 2975 4387 
Q 3406 4025 3406 3419 
Q 3406 3131 3298 2873 
Q 3191 2616 2906 2266 
Q 2828 2175 2409 1742 
Q 1991 1309 1228 531 
z
" transform="scale(0.015625)"/>
       </defs>
       <use xlink:href="#DejaVuSans-31" transform="translate(0 0.765625)"/>
       <use xlink:href="#DejaVuSans-30" transform="translate(63.623047 0.765625)"/>
       <use xlink:href="#DejaVuSans-32" transform="translate(128.203125 39.046875) scale(0.7)"/>
      </g>
     </g>
    </g>
    <g id="xtick_2">
     <g id="line2d_3">
      <path d="M 648.94 430.365656 
L 648.94 31.197656 
" clip-path="url(#pbb9dc96c7c)" style="fill: none; stroke: #b0b0b0; stroke-opacity: 0.16; stroke-width: 0.8; stroke-linecap: square"/>
     </g>
     <g id="line2d_4">
      <g>
       <use xlink:href="#mf46f1d98f8" x="648.94" y="430.365656" style="stroke: #000000; stroke-width: 0.8"/>
      </g>
     </g>
     <g id="text_2">
      <!-- $\mathdefault{10^{3}}$ -->
      <g transform="translate(640.14 444.964094) scale(0.1 -0.1)">
       <defs>
        <path id="DejaVuSans-33" d="M 2597 2516 
Q 3050 2419 3304 2112 
Q 3559 1806 3559 1356 
Q 3559 666 3084 287 
Q 2609 -91 1734 -91 
Q 1441 -91 1130 -33 
Q 819 25 488 141 
L 488 750 
Q 750 597 1062 519 
Q 1375 441 1716 441 
Q 2309 441 2620 675 
Q 2931 909 2931 1356 
Q 2931 1769 2642 2001 
Q 2353 2234 1838 2234 
L 1294 2234 
L 1294 2753 
L 1863 2753 
Q 2328 2753 2575 2939 
Q 2822 3125 2822 3475 
Q 2822 3834 2567 4026 
Q 2313 4219 1838 4219 
Q 1578 4219 1281 4162 
Q 984 4106 628 3988 
L 628 4550 
Q 988 4650 1302 4700 
Q 1616 4750 1894 4750 
Q 2613 4750 3031 4423 
Q 3450 4097 3450 3541 
Q 3450 3153 3228 2886 
Q 3006 2619 2597 2516 
z
" transform="scale(0.015625)"/>
       </defs>
       <use xlink:href="#DejaVuSans-31" transform="translate(0 0.765625)"/>
       <use xlink:href="#DejaVuSans-30" transform="translate(63.623047 0.765625)"/>
       <use xlink:href="#DejaVuSans-33" transform="translate(128.203125 39.046875) scale(0.7)"/>
      </g>
     </g>
    </g>
    <g id="xtick_3">
     <g id="line2d_5">
      <path d="M 62.104929 430.365656 
L 62.104929 31.197656 
" clip-path="url(#pbb9dc96c7c)" style="fill: none; stroke: #b0b0b0; stroke-opacity: 0.16; stroke-width: 0.8; stroke-linecap: square"/>
     </g>
     <g id="line2d_6">
      <defs>
       <path id="ma3195736a2" d="M 0 0 
L 0 2 
" style="stroke: #000000; stroke-width: 0.6"/>
      </defs>
      <g>
       <use xlink:href="#ma3195736a2" x="62.104929" y="430.365656" style="stroke: #000000; stroke-width: 0.6"/>
      </g>
     </g>
    </g>
    <g id="xtick_4">
     <g id="line2d_7">
      <path d="M 122.927972 430.365656 
L 122.927972 31.197656 
" clip-path="url(#pbb9dc96c7c)" style="fill: none; stroke: #b0b0b0; stroke-opacity: 0.16; stroke-width: 0.8; stroke-linecap: square"/>
     </g>
     <g id="line2d_8">
      <g>
       <use xlink:href="#ma3195736a2" x="122.927972" y="430.365656" style="stroke: #000000; stroke-width: 0.6"/>
      </g>
     </g>
    </g>
    <g id="xtick_5">
     <g id="line2d_9">
      <path d="M 166.082609 430.365656 
L 166.082609 31.197656 
" clip-path="url(#pbb9dc96c7c)" style="fill: none; stroke: #b0b0b0; stroke-opacity: 0.16; stroke-width: 0.8; stroke-linecap: square"/>
     </g>
     <g id="line2d_10">
      <g>
       <use xlink:href="#ma3195736a2" x="166.082609" y="430.365656" style="stroke: #000000; stroke-width: 0.6"/>
      </g>
     </g>
    </g>
    <g id="xtick_6">
     <g id="line2d_11">
      <path d="M 199.555945 430.365656 
L 199.555945 31.197656 
" clip-path="url(#pbb9dc96c7c)" style="fill: none; stroke: #b0b0b0; stroke-opacity: 0.16; stroke-width: 0.8; stroke-linecap: square"/>
     </g>
     <g id="line2d_12">
      <g>
       <use xlink:href="#ma3195736a2" x="199.555945" y="430.365656" style="stroke: #000000; stroke-width: 0.6"/>
      </g>
     </g>
    </g>
    <g id="xtick_7">
     <g id="line2d_13">
      <path d="M 226.905652 430.365656 
L 226.905652 31.197656 
" clip-path="url(#pbb9dc96c7c)" style="fill: none; stroke: #b0b0b0; stroke-opacity: 0.16; stroke-width: 0.8; stroke-linecap: square"/>
     </g>
     <g id="line2d_14">
      <g>
       <use xlink:href="#ma3195736a2" x="226.905652" y="430.365656" style="stroke: #000000; stroke-width: 0.6"/>
      </g>
     </g>
    </g>
    <g id="xtick_8">
     <g id="line2d_15">
      <path d="M 250.0295 430.365656 
L 250.0295 31.197656 
" clip-path="url(#pbb9dc96c7c)" style="fill: none; stroke: #b0b0b0; stroke-opacity: 0.16; stroke-width: 0.8; stroke-linecap: square"/>
     </g>
     <g id="line2d_16">
      <g>
       <use xlink:href="#ma3195736a2" x="250.0295" y="430.365656" style="stroke: #000000; stroke-width: 0.6"/>
      </g>
     </g>
    </g>
    <g id="xtick_9">
     <g id="line2d_17">
      <path d="M 270.060288 430.365656 
L 270.060288 31.197656 
" clip-path="url(#pbb9dc96c7c)" style="fill: none; stroke: #b0b0b0; stroke-opacity: 0.16; stroke-width: 0.8; stroke-linecap: square"/>
     </g>
     <g id="line2d_18">
      <g>
       <use xlink:href="#ma3195736a2" x="270.060288" y="430.365656" style="stroke: #000000; stroke-width: 0.6"/>
      </g>
     </g>
    </g>
    <g id="xtick_10">
     <g id="line2d_19">
      <path d="M 287.728696 430.365656 
L 287.728696 31.197656 
" clip-path="url(#pbb9dc96c7c)" style="fill: none; stroke: #b0b0b0; stroke-opacity: 0.16; stroke-width: 0.8; stroke-linecap: square"/>
     </g>
     <g id="line2d_20">
      <g>
       <use xlink:href="#ma3195736a2" x="287.728696" y="430.365656" style="stroke: #000000; stroke-width: 0.6"/>
      </g>
     </g>
    </g>
    <g id="xtick_11">
     <g id="line2d_21">
      <path d="M 407.511304 430.365656 
L 407.511304 31.197656 
" clip-path="url(#pbb9dc96c7c)" style="fill: none; stroke: #b0b0b0; stroke-opacity: 0.16; stroke-width: 0.8; stroke-linecap: square"/>
     </g>
     <g id="line2d_22">
      <g>
       <use xlink:href="#ma3195736a2" x="407.511304" y="430.365656" style="stroke: #000000; stroke-width: 0.6"/>
      </g>
     </g>
    </g>
    <g id="xtick_12">
     <g id="line2d_23">
      <path d="M 468.334348 430.365656 
L 468.334348 31.197656 
" clip-path="url(#pbb9dc96c7c)" style="fill: none; stroke: #b0b0b0; stroke-opacity: 0.16; stroke-width: 0.8; stroke-linecap: square"/>
     </g>
     <g id="line2d_24">
      <g>
       <use xlink:href="#ma3195736a2" x="468.334348" y="430.365656" style="stroke: #000000; stroke-width: 0.6"/>
      </g>
     </g>
    </g>
    <g id="xtick_13">
     <g id="line2d_25">
      <path d="M 511.488984 430.365656 
L 511.488984 31.197656 
" clip-path="url(#pbb9dc96c7c)" style="fill: none; stroke: #b0b0b0; stroke-opacity: 0.16; stroke-width: 0.8; stroke-linecap: square"/>
     </g>
     <g id="line2d_26">
      <g>
       <use xlink:href="#ma3195736a2" x="511.488984" y="430.365656" style="stroke: #000000; stroke-width: 0.6"/>
      </g>
     </g>
    </g>
    <g id="xtick_14">
     <g id="line2d_27">
      <path d="M 544.96232 430.365656 
L 544.96232 31.197656 
" clip-path="url(#pbb9dc96c7c)" style="fill: none; stroke: #b0b0b0; stroke-opacity: 0.16; stroke-width: 0.8; stroke-linecap: square"/>
     </g>
     <g id="line2d_28">
      <g>
       <use xlink:href="#ma3195736a2" x="544.96232" y="430.365656" style="stroke: #000000; stroke-width: 0.6"/>
      </g>
     </g>
    </g>
    <g id="xtick_15">
     <g id="line2d_29">
      <path d="M 572.312028 430.365656 
L 572.312028 31.197656 
" clip-path="url(#pbb9dc96c7c)" style="fill: none; stroke: #b0b0b0; stroke-opacity: 0.16; stroke-width: 0.8; stroke-linecap: square"/>
     </g>
     <g id="line2d_30">
      <g>
       <use xlink:href="#ma3195736a2" x="572.312028" y="430.365656" style="stroke: #000000; stroke-width: 0.6"/>
      </g>
     </g>
    </g>
    <g id="xtick_16">
     <g id="line2d_31">
      <path d="M 595.435875 430.365656 
L 595.435875 31.197656 
" clip-path="url(#pbb9dc96c7c)" style="fill: none; stroke: #b0b0b0; stroke-opacity: 0.16; stroke-width: 0.8; stroke-linecap: square"/>
     </g>
     <g id="line2d_32">
      <g>
       <use xlink:href="#ma3195736a2" x="595.435875" y="430.365656" style="stroke: #000000; stroke-width: 0.6"/>
      </g>
     </g>
    </g>
    <g id="xtick_17">
     <g id="line2d_33">
      <path d="M 615.466664 430.365656 
L 615.466664 31.197656 
" clip-path="url(#pbb9dc96c7c)" style="fill: none; stroke: #b0b0b0; stroke-opacity: 0.16; stroke-width: 0.8; stroke-linecap: square"/>
     </g>
     <g id="line2d_34">
      <g>
       <use xlink:href="#ma3195736a2" x="615.466664" y="430.365656" style="stroke: #000000; stroke-width: 0.6"/>
      </g>
     </g>
    </g>
    <g id="xtick_18">
     <g id="line2d_35">
      <path d="M 633.135071 430.365656 
L 633.135071 31.197656 
" clip-path="url(#pbb9dc96c7c)" style="fill: none; stroke: #b0b0b0; stroke-opacity: 0.16; stroke-width: 0.8; stroke-linecap: square"/>
     </g>
     <g id="line2d_36">
      <g>
       <use xlink:href="#ma3195736a2" x="633.135071" y="430.365656" style="stroke: #000000; stroke-width: 0.6"/>
      </g>
     </g>
    </g>
    <g id="text_3">
     <!-- temperatura (K) -->
     <g transform="translate(307.324687 458.642219) scale(0.1 -0.1)">
      <defs>
       <path id="DejaVuSans-74" d="M 1172 4494 
L 1172 3500 
L 2356 3500 
L 2356 3053 
L 1172 3053 
L 1172 1153 
Q 1172 725 1289 603 
Q 1406 481 1766 481 
L 2356 481 
L 2356 0 
L 1766 0 
Q 1100 0 847 248 
Q 594 497 594 1153 
L 594 3053 
L 172 3053 
L 172 3500 
L 594 3500 
L 594 4494 
L 1172 4494 
z
" transform="scale(0.015625)"/>
       <path id="DejaVuSans-65" d="M 3597 1894 
L 3597 1613 
L 953 1613 
Q 991 1019 1311 708 
Q 1631 397 2203 397 
Q 2534 397 2845 478 
Q 3156 559 3463 722 
L 3463 178 
Q 3153 47 2828 -22 
Q 2503 -91 2169 -91 
Q 1331 -91 842 396 
Q 353 884 353 1716 
Q 353 2575 817 3079 
Q 1281 3584 2069 3584 
Q 2775 3584 3186 3129 
Q 3597 2675 3597 1894 
z
M 3022 2063 
Q 3016 2534 2758 2815 
Q 2500 3097 2075 3097 
Q 1594 3097 1305 2825 
Q 1016 2553 972 2059 
L 3022 2063 
z
" transform="scale(0.015625)"/>
       <path id="DejaVuSans-6d" d="M 3328 2828 
Q 3544 3216 3844 3400 
Q 4144 3584 4550 3584 
Q 5097 3584 5394 3201 
Q 5691 2819 5691 2113 
L 5691 0 
L 5113 0 
L 5113 2094 
Q 5113 2597 4934 2840 
Q 4756 3084 4391 3084 
Q 3944 3084 3684 2787 
Q 3425 2491 3425 1978 
L 3425 0 
L 2847 0 
L 2847 2094 
Q 2847 2600 2669 2842 
Q 2491 3084 2119 3084 
Q 1678 3084 1418 2786 
Q 1159 2488 1159 1978 
L 1159 0 
L 581 0 
L 581 3500 
L 1159 3500 
L 1159 2956 
Q 1356 3278 1631 3431 
Q 1906 3584 2284 3584 
Q 2666 3584 2933 3390 
Q 3200 3197 3328 2828 
z
" transform="scale(0.015625)"/>
       <path id="DejaVuSans-70" d="M 1159 525 
L 1159 -1331 
L 581 -1331 
L 581 3500 
L 1159 3500 
L 1159 2969 
Q 1341 3281 1617 3432 
Q 1894 3584 2278 3584 
Q 2916 3584 3314 3078 
Q 3713 2572 3713 1747 
Q 3713 922 3314 415 
Q 2916 -91 2278 -91 
Q 1894 -91 1617 61 
Q 1341 213 1159 525 
z
M 3116 1747 
Q 3116 2381 2855 2742 
Q 2594 3103 2138 3103 
Q 1681 3103 1420 2742 
Q 1159 2381 1159 1747 
Q 1159 1113 1420 752 
Q 1681 391 2138 391 
Q 2594 391 2855 752 
Q 3116 1113 3116 1747 
z
" transform="scale(0.015625)"/>
       <path id="DejaVuSans-72" d="M 2631 2963 
Q 2534 3019 2420 3045 
Q 2306 3072 2169 3072 
Q 1681 3072 1420 2755 
Q 1159 2438 1159 1844 
L 1159 0 
L 581 0 
L 581 3500 
L 1159 3500 
L 1159 2956 
Q 1341 3275 1631 3429 
Q 1922 3584 2338 3584 
Q 2397 3584 2469 3576 
Q 2541 3569 2628 3553 
L 2631 2963 
z
" transform="scale(0.015625)"/>
       <path id="DejaVuSans-61" d="M 2194 1759 
Q 1497 1759 1228 1600 
Q 959 1441 959 1056 
Q 959 750 1161 570 
Q 1363 391 1709 391 
Q 2188 391 2477 730 
Q 2766 1069 2766 1631 
L 2766 1759 
L 2194 1759 
z
M 3341 1997 
L 3341 0 
L 2766 0 
L 2766 531 
Q 2569 213 2275 61 
Q 1981 -91 1556 -91 
Q 1019 -91 701 211 
Q 384 513 384 1019 
Q 384 1609 779 1909 
Q 1175 2209 1959 2209 
L 2766 2209 
L 2766 2266 
Q 2766 2663 2505 2880 
Q 2244 3097 1772 3097 
Q 1472 3097 1187 3025 
Q 903 2953 641 2809 
L 641 3341 
Q 956 3463 1253 3523 
Q 1550 3584 1831 3584 
Q 2591 3584 2966 3190 
Q 3341 2797 3341 1997 
z
" transform="scale(0.015625)"/>
       <path id="DejaVuSans-75" d="M 544 1381 
L 544 3500 
L 1119 3500 
L 1119 1403 
Q 1119 906 1312 657 
Q 1506 409 1894 409 
Q 2359 409 2629 706 
Q 2900 1003 2900 1516 
L 2900 3500 
L 3475 3500 
L 3475 0 
L 2900 0 
L 2900 538 
Q 2691 219 2414 64 
Q 2138 -91 1772 -91 
Q 1169 -91 856 284 
Q 544 659 544 1381 
z
M 1991 3584 
L 1991 3584 
z
" transform="scale(0.015625)"/>
       <path id="DejaVuSans-20" transform="scale(0.015625)"/>
       <path id="DejaVuSans-28" d="M 1984 4856 
Q 1566 4138 1362 3434 
Q 1159 2731 1159 2009 
Q 1159 1288 1364 580 
Q 1569 -128 1984 -844 
L 1484 -844 
Q 1016 -109 783 600 
Q 550 1309 550 2009 
Q 550 2706 781 3412 
Q 1013 4119 1484 4856 
L 1984 4856 
z
" transform="scale(0.015625)"/>
       <path id="DejaVuSans-4b" d="M 628 4666 
L 1259 4666 
L 1259 2694 
L 3353 4666 
L 4166 4666 
L 1850 2491 
L 4331 0 
L 3500 0 
L 1259 2247 
L 1259 0 
L 628 0 
L 628 4666 
z
" transform="scale(0.015625)"/>
       <path id="DejaVuSans-29" d="M 513 4856 
L 1013 4856 
Q 1481 4119 1714 3412 
Q 1947 2706 1947 2009 
Q 1947 1309 1714 600 
Q 1481 -109 1013 -844 
L 513 -844 
Q 928 -128 1133 580 
Q 1338 1288 1338 2009 
Q 1338 2731 1133 3434 
Q 928 4138 513 4856 
z
" transform="scale(0.015625)"/>
      </defs>
      <use xlink:href="#DejaVuSans-74"/>
      <use xlink:href="#DejaVuSans-65" transform="translate(39.208984 0)"/>
      <use xlink:href="#DejaVuSans-6d" transform="translate(100.732422 0)"/>
      <use xlink:href="#DejaVuSans-70" transform="translate(198.144531 0)"/>
      <use xlink:href="#DejaVuSans-65" transform="translate(261.621094 0)"/>
      <use xlink:href="#DejaVuSans-72" transform="translate(323.144531 0)"/>
      <use xlink:href="#DejaVuSans-61" transform="translate(364.257812 0)"/>
      <use xlink:href="#DejaVuSans-74" transform="translate(425.537109 0)"/>
      <use xlink:href="#DejaVuSans-75" transform="translate(464.746094 0)"/>
      <use xlink:href="#DejaVuSans-72" transform="translate(528.125 0)"/>
      <use xlink:href="#DejaVuSans-61" transform="translate(569.238281 0)"/>
      <use xlink:href="#DejaVuSans-20" transform="translate(630.517578 0)"/>
      <use xlink:href="#DejaVuSans-28" transform="translate(662.304688 0)"/>
      <use xlink:href="#DejaVuSans-4b" transform="translate(701.318359 0)"/>
      <use xlink:href="#DejaVuSans-29" transform="translate(766.894531 0)"/>
     </g>
    </g>
   </g>
   <g id="matplotlib.axis_2">
    <g id="ytick_1">
     <g id="line2d_37">
      <path d="M 46.3 391.072091 
L 648.94 391.072091 
" clip-path="url(#pbb9dc96c7c)" style="fill: none; stroke: #b0b0b0; stroke-opacity: 0.16; stroke-width: 0.8; stroke-linecap: square"/>
     </g>
     <g id="line2d_38">
      <defs>
       <path id="m724bbe0ea5" d="M 0 0 
L -3.5 0 
" style="stroke: #000000; stroke-width: 0.8"/>
      </defs>
      <g>
       <use xlink:href="#m724bbe0ea5" x="46.3" y="391.072091" style="stroke: #000000; stroke-width: 0.8"/>
      </g>
     </g>
     <g id="text_4">
      <!-- $\mathdefault{10^{3}}$ -->
      <g transform="translate(21.7 394.871309) scale(0.1 -0.1)">
       <use xlink:href="#DejaVuSans-31" transform="translate(0 0.765625)"/>
       <use xlink:href="#DejaVuSans-30" transform="translate(63.623047 0.765625)"/>
       <use xlink:href="#DejaVuSans-33" transform="translate(128.203125 39.046875) scale(0.7)"/>
      </g>
     </g>
    </g>
    <g id="ytick_2">
     <g id="line2d_39">
      <path d="M 46.3 277.764756 
L 648.94 277.764756 
" clip-path="url(#pbb9dc96c7c)" style="fill: none; stroke: #b0b0b0; stroke-opacity: 0.16; stroke-width: 0.8; stroke-linecap: square"/>
     </g>
     <g id="line2d_40">
      <g>
       <use xlink:href="#m724bbe0ea5" x="46.3" y="277.764756" style="stroke: #000000; stroke-width: 0.8"/>
      </g>
     </g>
     <g id="text_5">
      <!-- $\mathdefault{10^{4}}$ -->
      <g transform="translate(21.7 281.563975) scale(0.1 -0.1)">
       <defs>
        <path id="DejaVuSans-34" d="M 2419 4116 
L 825 1625 
L 2419 1625 
L 2419 4116 
z
M 2253 4666 
L 3047 4666 
L 3047 1625 
L 3713 1625 
L 3713 1100 
L 3047 1100 
L 3047 0 
L 2419 0 
L 2419 1100 
L 313 1100 
L 313 1709 
L 2253 4666 
z
" transform="scale(0.015625)"/>
       </defs>
       <use xlink:href="#DejaVuSans-31" transform="translate(0 0.684375)"/>
       <use xlink:href="#DejaVuSans-30" transform="translate(63.623047 0.684375)"/>
       <use xlink:href="#DejaVuSans-34" transform="translate(128.203125 38.965625) scale(0.7)"/>
      </g>
     </g>
    </g>
    <g id="ytick_3">
     <g id="line2d_41">
      <path d="M 46.3 164.457422 
L 648.94 164.457422 
" clip-path="url(#pbb9dc96c7c)" style="fill: none; stroke: #b0b0b0; stroke-opacity: 0.16; stroke-width: 0.8; stroke-linecap: square"/>
     </g>
     <g id="line2d_42">
      <g>
       <use xlink:href="#m724bbe0ea5" x="46.3" y="164.457422" style="stroke: #000000; stroke-width: 0.8"/>
      </g>
     </g>
     <g id="text_6">
      <!-- $\mathdefault{10^{5}}$ -->
      <g transform="translate(21.7 168.256641) scale(0.1 -0.1)">
       <defs>
        <path id="DejaVuSans-35" d="M 691 4666 
L 3169 4666 
L 3169 4134 
L 1269 4134 
L 1269 2991 
Q 1406 3038 1543 3061 
Q 1681 3084 1819 3084 
Q 2600 3084 3056 2656 
Q 3513 2228 3513 1497 
Q 3513 744 3044 326 
Q 2575 -91 1722 -91 
Q 1428 -91 1123 -41 
Q 819 9 494 109 
L 494 744 
Q 775 591 1075 516 
Q 1375 441 1709 441 
Q 2250 441 2565 725 
Q 2881 1009 2881 1497 
Q 2881 1984 2565 2268 
Q 2250 2553 1709 2553 
Q 1456 2553 1204 2497 
Q 953 2441 691 2322 
L 691 4666 
z
" transform="scale(0.015625)"/>
       </defs>
       <use xlink:href="#DejaVuSans-31" transform="translate(0 0.684375)"/>
       <use xlink:href="#DejaVuSans-30" transform="translate(63.623047 0.684375)"/>
       <use xlink:href="#DejaVuSans-35" transform="translate(128.203125 38.965625) scale(0.7)"/>
      </g>
     </g>
    </g>
    <g id="ytick_4">
     <g id="line2d_43">
      <path d="M 46.3 51.150087 
L 648.94 51.150087 
" clip-path="url(#pbb9dc96c7c)" style="fill: none; stroke: #b0b0b0; stroke-opacity: 0.16; stroke-width: 0.8; stroke-linecap: square"/>
     </g>
     <g id="line2d_44">
      <g>
       <use xlink:href="#m724bbe0ea5" x="46.3" y="51.150087" style="stroke: #000000; stroke-width: 0.8"/>
      </g>
     </g>
     <g id="text_7">
      <!-- $\mathdefault{10^{6}}$ -->
      <g transform="translate(21.7 54.949306) scale(0.1 -0.1)">
       <defs>
        <path id="DejaVuSans-36" d="M 2113 2584 
Q 1688 2584 1439 2293 
Q 1191 2003 1191 1497 
Q 1191 994 1439 701 
Q 1688 409 2113 409 
Q 2538 409 2786 701 
Q 3034 994 3034 1497 
Q 3034 2003 2786 2293 
Q 2538 2584 2113 2584 
z
M 3366 4563 
L 3366 3988 
Q 3128 4100 2886 4159 
Q 2644 4219 2406 4219 
Q 1781 4219 1451 3797 
Q 1122 3375 1075 2522 
Q 1259 2794 1537 2939 
Q 1816 3084 2150 3084 
Q 2853 3084 3261 2657 
Q 3669 2231 3669 1497 
Q 3669 778 3244 343 
Q 2819 -91 2113 -91 
Q 1303 -91 875 529 
Q 447 1150 447 2328 
Q 447 3434 972 4092 
Q 1497 4750 2381 4750 
Q 2619 4750 2861 4703 
Q 3103 4656 3366 4563 
z
" transform="scale(0.015625)"/>
       </defs>
       <use xlink:href="#DejaVuSans-31" transform="translate(0 0.765625)"/>
       <use xlink:href="#DejaVuSans-30" transform="translate(63.623047 0.765625)"/>
       <use xlink:href="#DejaVuSans-36" transform="translate(128.203125 39.046875) scale(0.7)"/>
      </g>
     </g>
    </g>
    <g id="ytick_5">
     <g id="line2d_45">
      <path d="M 46.3 425.180997 
L 648.94 425.180997 
" clip-path="url(#pbb9dc96c7c)" style="fill: none; stroke: #b0b0b0; stroke-opacity: 0.16; stroke-width: 0.8; stroke-linecap: square"/>
     </g>
     <g id="line2d_46">
      <defs>
       <path id="m2f5f117d91" d="M 0 0 
L -2 0 
" style="stroke: #000000; stroke-width: 0.6"/>
      </defs>
      <g>
       <use xlink:href="#m2f5f117d91" x="46.3" y="425.180997" style="stroke: #000000; stroke-width: 0.6"/>
      </g>
     </g>
    </g>
    <g id="ytick_6">
     <g id="line2d_47">
      <path d="M 46.3 416.209181 
L 648.94 416.209181 
" clip-path="url(#pbb9dc96c7c)" style="fill: none; stroke: #b0b0b0; stroke-opacity: 0.16; stroke-width: 0.8; stroke-linecap: square"/>
     </g>
     <g id="line2d_48">
      <g>
       <use xlink:href="#m2f5f117d91" x="46.3" y="416.209181" style="stroke: #000000; stroke-width: 0.6"/>
      </g>
     </g>
    </g>
    <g id="ytick_7">
     <g id="line2d_49">
      <path d="M 46.3 408.623619 
L 648.94 408.623619 
" clip-path="url(#pbb9dc96c7c)" style="fill: none; stroke: #b0b0b0; stroke-opacity: 0.16; stroke-width: 0.8; stroke-linecap: square"/>
     </g>
     <g id="line2d_50">
      <g>
       <use xlink:href="#m2f5f117d91" x="46.3" y="408.623619" style="stroke: #000000; stroke-width: 0.6"/>
      </g>
     </g>
    </g>
    <g id="ytick_8">
     <g id="line2d_51">
      <path d="M 46.3 402.052706 
L 648.94 402.052706 
" clip-path="url(#pbb9dc96c7c)" style="fill: none; stroke: #b0b0b0; stroke-opacity: 0.16; stroke-width: 0.8; stroke-linecap: square"/>
     </g>
     <g id="line2d_52">
      <g>
       <use xlink:href="#m2f5f117d91" x="46.3" y="402.052706" style="stroke: #000000; stroke-width: 0.6"/>
      </g>
     </g>
    </g>
    <g id="ytick_9">
     <g id="line2d_53">
      <path d="M 46.3 396.25675 
L 648.94 396.25675 
" clip-path="url(#pbb9dc96c7c)" style="fill: none; stroke: #b0b0b0; stroke-opacity: 0.16; stroke-width: 0.8; stroke-linecap: square"/>
     </g>
     <g id="line2d_54">
      <g>
       <use xlink:href="#m2f5f117d91" x="46.3" y="396.25675" style="stroke: #000000; stroke-width: 0.6"/>
      </g>
     </g>
    </g>
    <g id="ytick_10">
     <g id="line2d_55">
      <path d="M 46.3 356.963184 
L 648.94 356.963184 
" clip-path="url(#pbb9dc96c7c)" style="fill: none; stroke: #b0b0b0; stroke-opacity: 0.16; stroke-width: 0.8; stroke-linecap: square"/>
     </g>
     <g id="line2d_56">
      <g>
       <use xlink:href="#m2f5f117d91" x="46.3" y="356.963184" style="stroke: #000000; stroke-width: 0.6"/>
      </g>
     </g>
    </g>
    <g id="ytick_11">
     <g id="line2d_57">
      <path d="M 46.3 337.010753 
L 648.94 337.010753 
" clip-path="url(#pbb9dc96c7c)" style="fill: none; stroke: #b0b0b0; stroke-opacity: 0.16; stroke-width: 0.8; stroke-linecap: square"/>
     </g>
     <g id="line2d_58">
      <g>
       <use xlink:href="#m2f5f117d91" x="46.3" y="337.010753" style="stroke: #000000; stroke-width: 0.6"/>
      </g>
     </g>
    </g>
    <g id="ytick_12">
     <g id="line2d_59">
      <path d="M 46.3 322.854278 
L 648.94 322.854278 
" clip-path="url(#pbb9dc96c7c)" style="fill: none; stroke: #b0b0b0; stroke-opacity: 0.16; stroke-width: 0.8; stroke-linecap: square"/>
     </g>
     <g id="line2d_60">
      <g>
       <use xlink:href="#m2f5f117d91" x="46.3" y="322.854278" style="stroke: #000000; stroke-width: 0.6"/>
      </g>
     </g>
    </g>
    <g id="ytick_13">
     <g id="line2d_61">
      <path d="M 46.3 311.873663 
L 648.94 311.873663 
" clip-path="url(#pbb9dc96c7c)" style="fill: none; stroke: #b0b0b0; stroke-opacity: 0.16; stroke-width: 0.8; stroke-linecap: square"/>
     </g>
     <g id="line2d_62">
      <g>
       <use xlink:href="#m2f5f117d91" x="46.3" y="311.873663" style="stroke: #000000; stroke-width: 0.6"/>
      </g>
     </g>
    </g>
    <g id="ytick_14">
     <g id="line2d_63">
      <path d="M 46.3 302.901847 
L 648.94 302.901847 
" clip-path="url(#pbb9dc96c7c)" style="fill: none; stroke: #b0b0b0; stroke-opacity: 0.16; stroke-width: 0.8; stroke-linecap: square"/>
     </g>
     <g id="line2d_64">
      <g>
       <use xlink:href="#m2f5f117d91" x="46.3" y="302.901847" style="stroke: #000000; stroke-width: 0.6"/>
      </g>
     </g>
    </g>
    <g id="ytick_15">
     <g id="line2d_65">
      <path d="M 46.3 295.316284 
L 648.94 295.316284 
" clip-path="url(#pbb9dc96c7c)" style="fill: none; stroke: #b0b0b0; stroke-opacity: 0.16; stroke-width: 0.8; stroke-linecap: square"/>
     </g>
     <g id="line2d_66">
      <g>
       <use xlink:href="#m2f5f117d91" x="46.3" y="295.316284" style="stroke: #000000; stroke-width: 0.6"/>
      </g>
     </g>
    </g>
    <g id="ytick_16">
     <g id="line2d_67">
      <path d="M 46.3 288.745371 
L 648.94 288.745371 
" clip-path="url(#pbb9dc96c7c)" style="fill: none; stroke: #b0b0b0; stroke-opacity: 0.16; stroke-width: 0.8; stroke-linecap: square"/>
     </g>
     <g id="line2d_68">
      <g>
       <use xlink:href="#m2f5f117d91" x="46.3" y="288.745371" style="stroke: #000000; stroke-width: 0.6"/>
      </g>
     </g>
    </g>
    <g id="ytick_17">
     <g id="line2d_69">
      <path d="M 46.3 282.949415 
L 648.94 282.949415 
" clip-path="url(#pbb9dc96c7c)" style="fill: none; stroke: #b0b0b0; stroke-opacity: 0.16; stroke-width: 0.8; stroke-linecap: square"/>
     </g>
     <g id="line2d_70">
      <g>
       <use xlink:href="#m2f5f117d91" x="46.3" y="282.949415" style="stroke: #000000; stroke-width: 0.6"/>
      </g>
     </g>
    </g>
    <g id="ytick_18">
     <g id="line2d_71">
      <path d="M 46.3 243.65585 
L 648.94 243.65585 
" clip-path="url(#pbb9dc96c7c)" style="fill: none; stroke: #b0b0b0; stroke-opacity: 0.16; stroke-width: 0.8; stroke-linecap: square"/>
     </g>
     <g id="line2d_72">
      <g>
       <use xlink:href="#m2f5f117d91" x="46.3" y="243.65585" style="stroke: #000000; stroke-width: 0.6"/>
      </g>
     </g>
    </g>
    <g id="ytick_19">
     <g id="line2d_73">
      <path d="M 46.3 223.703419 
L 648.94 223.703419 
" clip-path="url(#pbb9dc96c7c)" style="fill: none; stroke: #b0b0b0; stroke-opacity: 0.16; stroke-width: 0.8; stroke-linecap: square"/>
     </g>
     <g id="line2d_74">
      <g>
       <use xlink:href="#m2f5f117d91" x="46.3" y="223.703419" style="stroke: #000000; stroke-width: 0.6"/>
      </g>
     </g>
    </g>
    <g id="ytick_20">
     <g id="line2d_75">
      <path d="M 46.3 209.546943 
L 648.94 209.546943 
" clip-path="url(#pbb9dc96c7c)" style="fill: none; stroke: #b0b0b0; stroke-opacity: 0.16; stroke-width: 0.8; stroke-linecap: square"/>
     </g>
     <g id="line2d_76">
      <g>
       <use xlink:href="#m2f5f117d91" x="46.3" y="209.546943" style="stroke: #000000; stroke-width: 0.6"/>
      </g>
     </g>
    </g>
    <g id="ytick_21">
     <g id="line2d_77">
      <path d="M 46.3 198.566328 
L 648.94 198.566328 
" clip-path="url(#pbb9dc96c7c)" style="fill: none; stroke: #b0b0b0; stroke-opacity: 0.16; stroke-width: 0.8; stroke-linecap: square"/>
     </g>
     <g id="line2d_78">
      <g>
       <use xlink:href="#m2f5f117d91" x="46.3" y="198.566328" style="stroke: #000000; stroke-width: 0.6"/>
      </g>
     </g>
    </g>
    <g id="ytick_22">
     <g id="line2d_79">
      <path d="M 46.3 189.594512 
L 648.94 189.594512 
" clip-path="url(#pbb9dc96c7c)" style="fill: none; stroke: #b0b0b0; stroke-opacity: 0.16; stroke-width: 0.8; stroke-linecap: square"/>
     </g>
     <g id="line2d_80">
      <g>
       <use xlink:href="#m2f5f117d91" x="46.3" y="189.594512" style="stroke: #000000; stroke-width: 0.6"/>
      </g>
     </g>
    </g>
    <g id="ytick_23">
     <g id="line2d_81">
      <path d="M 46.3 182.00895 
L 648.94 182.00895 
" clip-path="url(#pbb9dc96c7c)" style="fill: none; stroke: #b0b0b0; stroke-opacity: 0.16; stroke-width: 0.8; stroke-linecap: square"/>
     </g>
     <g id="line2d_82">
      <g>
       <use xlink:href="#m2f5f117d91" x="46.3" y="182.00895" style="stroke: #000000; stroke-width: 0.6"/>
      </g>
     </g>
    </g>
    <g id="ytick_24">
     <g id="line2d_83">
      <path d="M 46.3 175.438037 
L 648.94 175.438037 
" clip-path="url(#pbb9dc96c7c)" style="fill: none; stroke: #b0b0b0; stroke-opacity: 0.16; stroke-width: 0.8; stroke-linecap: square"/>
     </g>
     <g id="line2d_84">
      <g>
       <use xlink:href="#m2f5f117d91" x="46.3" y="175.438037" style="stroke: #000000; stroke-width: 0.6"/>
      </g>
     </g>
    </g>
    <g id="ytick_25">
     <g id="line2d_85">
      <path d="M 46.3 169.642081 
L 648.94 169.642081 
" clip-path="url(#pbb9dc96c7c)" style="fill: none; stroke: #b0b0b0; stroke-opacity: 0.16; stroke-width: 0.8; stroke-linecap: square"/>
     </g>
     <g id="line2d_86">
      <g>
       <use xlink:href="#m2f5f117d91" x="46.3" y="169.642081" style="stroke: #000000; stroke-width: 0.6"/>
      </g>
     </g>
    </g>
    <g id="ytick_26">
     <g id="line2d_87">
      <path d="M 46.3 130.348515 
L 648.94 130.348515 
" clip-path="url(#pbb9dc96c7c)" style="fill: none; stroke: #b0b0b0; stroke-opacity: 0.16; stroke-width: 0.8; stroke-linecap: square"/>
     </g>
     <g id="line2d_88">
      <g>
       <use xlink:href="#m2f5f117d91" x="46.3" y="130.348515" style="stroke: #000000; stroke-width: 0.6"/>
      </g>
     </g>
    </g>
    <g id="ytick_27">
     <g id="line2d_89">
      <path d="M 46.3 110.396084 
L 648.94 110.396084 
" clip-path="url(#pbb9dc96c7c)" style="fill: none; stroke: #b0b0b0; stroke-opacity: 0.16; stroke-width: 0.8; stroke-linecap: square"/>
     </g>
     <g id="line2d_90">
      <g>
       <use xlink:href="#m2f5f117d91" x="46.3" y="110.396084" style="stroke: #000000; stroke-width: 0.6"/>
      </g>
     </g>
    </g>
    <g id="ytick_28">
     <g id="line2d_91">
      <path d="M 46.3 96.239609 
L 648.94 96.239609 
" clip-path="url(#pbb9dc96c7c)" style="fill: none; stroke: #b0b0b0; stroke-opacity: 0.16; stroke-width: 0.8; stroke-linecap: square"/>
     </g>
     <g id="line2d_92">
      <g>
       <use xlink:href="#m2f5f117d91" x="46.3" y="96.239609" style="stroke: #000000; stroke-width: 0.6"/>
      </g>
     </g>
    </g>
    <g id="ytick_29">
     <g id="line2d_93">
      <path d="M 46.3 85.258994 
L 648.94 85.258994 
" clip-path="url(#pbb9dc96c7c)" style="fill: none; stroke: #b0b0b0; stroke-opacity: 0.16; stroke-width: 0.8; stroke-linecap: square"/>
     </g>
     <g id="line2d_94">
      <g>
       <use xlink:href="#m2f5f117d91" x="46.3" y="85.258994" style="stroke: #000000; stroke-width: 0.6"/>
      </g>
     </g>
    </g>
    <g id="ytick_30">
     <g id="line2d_95">
      <path d="M 46.3 76.287178 
L 648.94 76.287178 
" clip-path="url(#pbb9dc96c7c)" style="fill: none; stroke: #b0b0b0; stroke-opacity: 0.16; stroke-width: 0.8; stroke-linecap: square"/>
     </g>
     <g id="line2d_96">
      <g>
       <use xlink:href="#m2f5f117d91" x="46.3" y="76.287178" style="stroke: #000000; stroke-width: 0.6"/>
      </g>
     </g>
    </g>
    <g id="ytick_31">
     <g id="line2d_97">
      <path d="M 46.3 68.701616 
L 648.94 68.701616 
" clip-path="url(#pbb9dc96c7c)" style="fill: none; stroke: #b0b0b0; stroke-opacity: 0.16; stroke-width: 0.8; stroke-linecap: square"/>
     </g>
     <g id="line2d_98">
      <g>
       <use xlink:href="#m2f5f117d91" x="46.3" y="68.701616" style="stroke: #000000; stroke-width: 0.6"/>
      </g>
     </g>
    </g>
    <g id="ytick_32">
     <g id="line2d_99">
      <path d="M 46.3 62.130703 
L 648.94 62.130703 
" clip-path="url(#pbb9dc96c7c)" style="fill: none; stroke: #b0b0b0; stroke-opacity: 0.16; stroke-width: 0.8; stroke-linecap: square"/>
     </g>
     <g id="line2d_100">
      <g>
       <use xlink:href="#m2f5f117d91" x="46.3" y="62.130703" style="stroke: #000000; stroke-width: 0.6"/>
      </g>
     </g>
    </g>
    <g id="ytick_33">
     <g id="line2d_101">
      <path d="M 46.3 56.334747 
L 648.94 56.334747 
" clip-path="url(#pbb9dc96c7c)" style="fill: none; stroke: #b0b0b0; stroke-opacity: 0.16; stroke-width: 0.8; stroke-linecap: square"/>
     </g>
     <g id="line2d_102">
      <g>
       <use xlink:href="#m2f5f117d91" x="46.3" y="56.334747" style="stroke: #000000; stroke-width: 0.6"/>
      </g>
     </g>
    </g>
    <g id="text_8">
     <!-- mobilità elettronica (cm$^2$ V$^{-1}$ s$^{-1}$) -->
     <g transform="translate(15.620313 315.031656) rotate(-90) scale(0.1 -0.1)">
      <defs>
       <path id="DejaVuSans-6f" d="M 1959 3097 
Q 1497 3097 1228 2736 
Q 959 2375 959 1747 
Q 959 1119 1226 758 
Q 1494 397 1959 397 
Q 2419 397 2687 759 
Q 2956 1122 2956 1747 
Q 2956 2369 2687 2733 
Q 2419 3097 1959 3097 
z
M 1959 3584 
Q 2709 3584 3137 3096 
Q 3566 2609 3566 1747 
Q 3566 888 3137 398 
Q 2709 -91 1959 -91 
Q 1206 -91 779 398 
Q 353 888 353 1747 
Q 353 2609 779 3096 
Q 1206 3584 1959 3584 
z
" transform="scale(0.015625)"/>
       <path id="DejaVuSans-62" d="M 3116 1747 
Q 3116 2381 2855 2742 
Q 2594 3103 2138 3103 
Q 1681 3103 1420 2742 
Q 1159 2381 1159 1747 
Q 1159 1113 1420 752 
Q 1681 391 2138 391 
Q 2594 391 2855 752 
Q 3116 1113 3116 1747 
z
M 1159 2969 
Q 1341 3281 1617 3432 
Q 1894 3584 2278 3584 
Q 2916 3584 3314 3078 
Q 3713 2572 3713 1747 
Q 3713 922 3314 415 
Q 2916 -91 2278 -91 
Q 1894 -91 1617 61 
Q 1341 213 1159 525 
L 1159 0 
L 581 0 
L 581 4863 
L 1159 4863 
L 1159 2969 
z
" transform="scale(0.015625)"/>
       <path id="DejaVuSans-69" d="M 603 3500 
L 1178 3500 
L 1178 0 
L 603 0 
L 603 3500 
z
M 603 4863 
L 1178 4863 
L 1178 4134 
L 603 4134 
L 603 4863 
z
" transform="scale(0.015625)"/>
       <path id="DejaVuSans-6c" d="M 603 4863 
L 1178 4863 
L 1178 0 
L 603 0 
L 603 4863 
z
" transform="scale(0.015625)"/>
       <path id="DejaVuSans-e0" d="M 2194 1759 
Q 1497 1759 1228 1600 
Q 959 1441 959 1056 
Q 959 750 1161 570 
Q 1363 391 1709 391 
Q 2188 391 2477 730 
Q 2766 1069 2766 1631 
L 2766 1759 
L 2194 1759 
z
M 3341 1997 
L 3341 0 
L 2766 0 
L 2766 531 
Q 2569 213 2275 61 
Q 1981 -91 1556 -91 
Q 1019 -91 701 211 
Q 384 513 384 1019 
Q 384 1609 779 1909 
Q 1175 2209 1959 2209 
L 2766 2209 
L 2766 2266 
Q 2766 2663 2505 2880 
Q 2244 3097 1772 3097 
Q 1472 3097 1187 3025 
Q 903 2953 641 2809 
L 641 3341 
Q 956 3463 1253 3523 
Q 1550 3584 1831 3584 
Q 2591 3584 2966 3190 
Q 3341 2797 3341 1997 
z
M 1403 5119 
L 2284 3950 
L 1806 3950 
L 787 5119 
L 1403 5119 
z
" transform="scale(0.015625)"/>
       <path id="DejaVuSans-6e" d="M 3513 2113 
L 3513 0 
L 2938 0 
L 2938 2094 
Q 2938 2591 2744 2837 
Q 2550 3084 2163 3084 
Q 1697 3084 1428 2787 
Q 1159 2491 1159 1978 
L 1159 0 
L 581 0 
L 581 3500 
L 1159 3500 
L 1159 2956 
Q 1366 3272 1645 3428 
Q 1925 3584 2291 3584 
Q 2894 3584 3203 3211 
Q 3513 2838 3513 2113 
z
" transform="scale(0.015625)"/>
       <path id="DejaVuSans-63" d="M 3122 3366 
L 3122 2828 
Q 2878 2963 2633 3030 
Q 2388 3097 2138 3097 
Q 1578 3097 1268 2742 
Q 959 2388 959 1747 
Q 959 1106 1268 751 
Q 1578 397 2138 397 
Q 2388 397 2633 464 
Q 2878 531 3122 666 
L 3122 134 
Q 2881 22 2623 -34 
Q 2366 -91 2075 -91 
Q 1284 -91 818 406 
Q 353 903 353 1747 
Q 353 2603 823 3093 
Q 1294 3584 2113 3584 
Q 2378 3584 2631 3529 
Q 2884 3475 3122 3366 
z
" transform="scale(0.015625)"/>
       <path id="DejaVuSans-56" d="M 1831 0 
L 50 4666 
L 709 4666 
L 2188 738 
L 3669 4666 
L 4325 4666 
L 2547 0 
L 1831 0 
z
" transform="scale(0.015625)"/>
       <path id="DejaVuSans-2212" d="M 678 2272 
L 4684 2272 
L 4684 1741 
L 678 1741 
L 678 2272 
z
" transform="scale(0.015625)"/>
       <path id="DejaVuSans-73" d="M 2834 3397 
L 2834 2853 
Q 2591 2978 2328 3040 
Q 2066 3103 1784 3103 
Q 1356 3103 1142 2972 
Q 928 2841 928 2578 
Q 928 2378 1081 2264 
Q 1234 2150 1697 2047 
L 1894 2003 
Q 2506 1872 2764 1633 
Q 3022 1394 3022 966 
Q 3022 478 2636 193 
Q 2250 -91 1575 -91 
Q 1294 -91 989 -36 
Q 684 19 347 128 
L 347 722 
Q 666 556 975 473 
Q 1284 391 1588 391 
Q 1994 391 2212 530 
Q 2431 669 2431 922 
Q 2431 1156 2273 1281 
Q 2116 1406 1581 1522 
L 1381 1569 
Q 847 1681 609 1914 
Q 372 2147 372 2553 
Q 372 3047 722 3315 
Q 1072 3584 1716 3584 
Q 2034 3584 2315 3537 
Q 2597 3491 2834 3397 
z
" transform="scale(0.015625)"/>
      </defs>
      <use xlink:href="#DejaVuSans-6d" transform="translate(0 0.765625)"/>
      <use xlink:href="#DejaVuSans-6f" transform="translate(97.412109 0.765625)"/>
      <use xlink:href="#DejaVuSans-62" transform="translate(158.59375 0.765625)"/>
      <use xlink:href="#DejaVuSans-69" transform="translate(222.070312 0.765625)"/>
      <use xlink:href="#DejaVuSans-6c" transform="translate(249.853516 0.765625)"/>
      <use xlink:href="#DejaVuSans-69" transform="translate(277.636719 0.765625)"/>
      <use xlink:href="#DejaVuSans-74" transform="translate(305.419922 0.765625)"/>
      <use xlink:href="#DejaVuSans-e0" transform="translate(344.628906 0.765625)"/>
      <use xlink:href="#DejaVuSans-20" transform="translate(405.908203 0.765625)"/>
      <use xlink:href="#DejaVuSans-65" transform="translate(437.695312 0.765625)"/>
      <use xlink:href="#DejaVuSans-6c" transform="translate(499.21875 0.765625)"/>
      <use xlink:href="#DejaVuSans-65" transform="translate(527.001953 0.765625)"/>
      <use xlink:href="#DejaVuSans-74" transform="translate(588.525391 0.765625)"/>
      <use xlink:href="#DejaVuSans-74" transform="translate(627.734375 0.765625)"/>
      <use xlink:href="#DejaVuSans-72" transform="translate(666.943359 0.765625)"/>
      <use xlink:href="#DejaVuSans-6f" transform="translate(708.056641 0.765625)"/>
      <use xlink:href="#DejaVuSans-6e" transform="translate(769.238281 0.765625)"/>
      <use xlink:href="#DejaVuSans-69" transform="translate(832.617188 0.765625)"/>
      <use xlink:href="#DejaVuSans-63" transform="translate(860.400391 0.765625)"/>
      <use xlink:href="#DejaVuSans-61" transform="translate(915.380859 0.765625)"/>
      <use xlink:href="#DejaVuSans-20" transform="translate(976.660156 0.765625)"/>
      <use xlink:href="#DejaVuSans-28" transform="translate(1008.447266 0.765625)"/>
      <use xlink:href="#DejaVuSans-63" transform="translate(1047.460938 0.765625)"/>
      <use xlink:href="#DejaVuSans-6d" transform="translate(1102.441406 0.765625)"/>
      <use xlink:href="#DejaVuSans-32" transform="translate(1200.810547 39.046875) scale(0.7)"/>
      <use xlink:href="#DejaVuSans-20" transform="translate(1248.081055 0.765625)"/>
      <use xlink:href="#DejaVuSans-56" transform="translate(1279.868164 0.765625)"/>
      <use xlink:href="#DejaVuSans-2212" transform="translate(1349.233398 39.046875) scale(0.7)"/>
      <use xlink:href="#DejaVuSans-31" transform="translate(1407.885742 39.046875) scale(0.7)"/>
      <use xlink:href="#DejaVuSans-20" transform="translate(1455.15625 0.765625)"/>
      <use xlink:href="#DejaVuSans-73" transform="translate(1486.943359 0.765625)"/>
      <use xlink:href="#DejaVuSans-2212" transform="translate(1540 39.046875) scale(0.7)"/>
      <use xlink:href="#DejaVuSans-31" transform="translate(1598.652344 39.046875) scale(0.7)"/>
      <use xlink:href="#DejaVuSans-29" transform="translate(1645.922852 0.765625)"/>
     </g>
    </g>
   </g>
   <g id="line2d_103">
    <path d="M 46.3 240.452223 
L 536.995728 -1 
L 536.995728 -1 
" clip-path="url(#pbb9dc96c7c)" style="fill: none; stroke: #1f77b4; stroke-width: 1.9; stroke-linecap: square"/>
   </g>
   <g id="line2d_104">
    <path d="M 46.3 71.991697 
L 648.94 368.52733 
L 648.94 368.52733 
" clip-path="url(#pbb9dc96c7c)" style="fill: none; stroke: #ff7f0e; stroke-width: 1.9; stroke-linecap: square"/>
   </g>
   <g id="line2d_105">
    <path d="M 356.329839 -1 
L 360.121116 7.578773 
L 364.431845 17.854528 
L 368.742575 28.659306 
L 373.915451 42.287212 
L 379.088326 56.592371 
L 384.261202 71.522376 
L 390.296223 89.649183 
L 397.193391 111.148553 
L 406.676996 141.591428 
L 417.022747 174.685001 
L 422.195622 190.447472 
L 426.506352 202.779208 
L 429.954936 211.928026 
L 432.541373 218.28832 
L 435.127811 224.169354 
L 437.714249 229.538749 
L 440.300687 234.378243 
L 442.887124 238.685045 
L 445.473562 242.471678 
L 448.06 245.764335 
L 450.646438 248.600086 
L 453.232876 251.023442 
L 455.819313 253.082837 
L 458.405751 254.827471 
L 460.992189 256.304801 
L 463.578627 257.55877 
L 467.02721 258.950618 
L 470.475794 260.09423 
L 474.786524 261.270493 
L 479.959399 262.430901 
L 486.856567 263.725504 
L 497.202318 265.410733 
L 519.618112 268.775405 
L 648.94 287.868077 
L 648.94 287.868077 
" clip-path="url(#pbb9dc96c7c)" style="fill: none; stroke: #2ca02c; stroke-width: 1.9; stroke-linecap: square"/>
   </g>
   <g id="line2d_106">
    <path d="M 46.3 75.31612 
L 648.94 184.045852 
L 648.94 184.045852 
" clip-path="url(#pbb9dc96c7c)" style="fill: none; stroke: #d62728; stroke-width: 1.9; stroke-linecap: square"/>
   </g>
   <g id="line2d_107">
    <path d="M 46.3 243.715046 
L 62.680773 236.638624 
L 77.337253 230.555067 
L 90.269442 225.429258 
L 102.339485 220.892525 
L 112.685236 217.227041 
L 123.030987 213.798551 
L 132.514592 210.890696 
L 141.136052 208.463865 
L 149.757511 206.262955 
L 158.37897 204.306553 
L 166.138283 202.769484 
L 173.897597 201.456675 
L 181.65691 200.378647 
L 189.416223 199.544229 
L 196.313391 199.012604 
L 203.210558 198.682192 
L 210.107725 198.554795 
L 217.004893 198.630656 
L 223.90206 198.90846 
L 231.661373 199.458795 
L 239.420687 200.254926 
L 247.18 201.288656 
L 254.939313 202.550068 
L 262.698627 204.027873 
L 271.320086 205.908704 
L 279.941545 208.023771 
L 288.563004 210.354995 
L 298.046609 213.147703 
L 308.392361 216.441322 
L 318.738112 219.966646 
L 329.946009 224.020853 
L 342.016052 228.637108 
L 354.086094 233.503687 
L 365.293991 238.26429 
L 374.777597 242.518151 
L 383.399056 246.634459 
L 390.296223 250.172648 
L 396.331245 253.520987 
L 401.50412 256.642278 
L 405.81485 259.467188 
L 410.125579 262.53504 
L 414.436309 265.876836 
L 418.747039 269.506515 
L 423.057768 273.406604 
L 429.09279 279.193063 
L 437.714249 287.486192 
L 442.024979 291.31508 
L 445.473562 294.119386 
L 448.922146 296.665636 
L 452.37073 298.954717 
L 455.819313 301.006996 
L 460.130043 303.288933 
L 464.440773 305.323095 
L 469.613648 307.531869 
L 476.510815 310.233791 
L 488.580858 314.673404 
L 520.480258 326.326421 
L 541.17176 334.152535 
L 562.725408 342.543586 
L 585.141202 351.512397 
L 608.419142 361.067771 
L 632.559227 371.214849 
L 648.94 378.226591 
L 648.94 378.226591 
" clip-path="url(#pbb9dc96c7c)" style="fill: none; stroke: #9467bd; stroke-width: 2.7; stroke-linecap: square"/>
   </g>
   <g id="patch_3">
    <path d="M 46.3 430.365656 
L 46.3 31.197656 
" style="fill: none; stroke: #000000; stroke-width: 0.8; stroke-linejoin: miter; stroke-linecap: square"/>
   </g>
   <g id="patch_4">
    <path d="M 648.94 430.365656 
L 648.94 31.197656 
" style="fill: none; stroke: #000000; stroke-width: 0.8; stroke-linejoin: miter; stroke-linecap: square"/>
   </g>
   <g id="patch_5">
    <path d="M 46.3 430.365656 
L 648.94 430.365656 
" style="fill: none; stroke: #000000; stroke-width: 0.8; stroke-linejoin: miter; stroke-linecap: square"/>
   </g>
   <g id="patch_6">
    <path d="M 46.3 31.197656 
L 648.94 31.197656 
" style="fill: none; stroke: #000000; stroke-width: 0.8; stroke-linejoin: miter; stroke-linecap: square"/>
   </g>
   <g id="patch_7">
    <path d="M 325.936439 174.034991 
Q 269.430273 186.085699 213.908207 197.926534 
" style="fill: none; stroke: #000000; stroke-width: 0.9; stroke-linecap: round"/>
    <path d="M 218.020922 198.992168 
L 213.908207 197.926534 
L 217.228343 195.275743 
z
" style="fill: #1f77b4; stroke: #000000; stroke-width: 0.9; stroke-linecap: round"/>
   </g>
   <g id="text_9">
    <!-- massimo di mobilità -->
    <g transform="translate(310.852544 169.642081) scale(0.095 -0.095)">
     <defs>
      <path id="DejaVuSans-64" d="M 2906 2969 
L 2906 4863 
L 3481 4863 
L 3481 0 
L 2906 0 
L 2906 525 
Q 2725 213 2448 61 
Q 2172 -91 1784 -91 
Q 1150 -91 751 415 
Q 353 922 353 1747 
Q 353 2572 751 3078 
Q 1150 3584 1784 3584 
Q 2172 3584 2448 3432 
Q 2725 3281 2906 2969 
z
M 947 1747 
Q 947 1113 1208 752 
Q 1469 391 1925 391 
Q 2381 391 2643 752 
Q 2906 1113 2906 1747 
Q 2906 2381 2643 2742 
Q 2381 3103 1925 3103 
Q 1469 3103 1208 2742 
Q 947 2381 947 1747 
z
" transform="scale(0.015625)"/>
     </defs>
     <use xlink:href="#DejaVuSans-6d"/>
     <use xlink:href="#DejaVuSans-61" transform="translate(97.412109 0)"/>
     <use xlink:href="#DejaVuSans-73" transform="translate(158.691406 0)"/>
     <use xlink:href="#DejaVuSans-73" transform="translate(210.791016 0)"/>
     <use xlink:href="#DejaVuSans-69" transform="translate(262.890625 0)"/>
     <use xlink:href="#DejaVuSans-6d" transform="translate(290.673828 0)"/>
     <use xlink:href="#DejaVuSans-6f" transform="translate(388.085938 0)"/>
     <use xlink:href="#DejaVuSans-20" transform="translate(449.267578 0)"/>
     <use xlink:href="#DejaVuSans-64" transform="translate(481.054688 0)"/>
     <use xlink:href="#DejaVuSans-69" transform="translate(544.53125 0)"/>
     <use xlink:href="#DejaVuSans-20" transform="translate(572.314453 0)"/>
     <use xlink:href="#DejaVuSans-6d" transform="translate(604.101562 0)"/>
     <use xlink:href="#DejaVuSans-6f" transform="translate(701.513672 0)"/>
     <use xlink:href="#DejaVuSans-62" transform="translate(762.695312 0)"/>
     <use xlink:href="#DejaVuSans-69" transform="translate(826.171875 0)"/>
     <use xlink:href="#DejaVuSans-6c" transform="translate(853.955078 0)"/>
     <use xlink:href="#DejaVuSans-69" transform="translate(881.738281 0)"/>
     <use xlink:href="#DejaVuSans-74" transform="translate(909.521484 0)"/>
     <use xlink:href="#DejaVuSans-e0" transform="translate(948.730469 0)"/>
    </g>
   </g>
   <g id="text_10">
    <!-- Mobilità elettronica in GaAs drogato di tipo n -->
    <g transform="translate(156.078203 19.197656) scale(0.15 -0.15)">
     <defs>
      <path id="DejaVuSans-Bold-4d" d="M 588 4666 
L 2119 4666 
L 3181 2169 
L 4250 4666 
L 5778 4666 
L 5778 0 
L 4641 0 
L 4641 3413 
L 3566 897 
L 2803 897 
L 1728 3413 
L 1728 0 
L 588 0 
L 588 4666 
z
" transform="scale(0.015625)"/>
      <path id="DejaVuSans-Bold-6f" d="M 2203 2784 
Q 1831 2784 1636 2517 
Q 1441 2250 1441 1747 
Q 1441 1244 1636 976 
Q 1831 709 2203 709 
Q 2569 709 2762 976 
Q 2956 1244 2956 1747 
Q 2956 2250 2762 2517 
Q 2569 2784 2203 2784 
z
M 2203 3584 
Q 3106 3584 3614 3096 
Q 4122 2609 4122 1747 
Q 4122 884 3614 396 
Q 3106 -91 2203 -91 
Q 1297 -91 786 396 
Q 275 884 275 1747 
Q 275 2609 786 3096 
Q 1297 3584 2203 3584 
z
" transform="scale(0.015625)"/>
      <path id="DejaVuSans-Bold-62" d="M 2400 722 
Q 2759 722 2948 984 
Q 3138 1247 3138 1747 
Q 3138 2247 2948 2509 
Q 2759 2772 2400 2772 
Q 2041 2772 1848 2508 
Q 1656 2244 1656 1747 
Q 1656 1250 1848 986 
Q 2041 722 2400 722 
z
M 1656 2988 
Q 1888 3294 2169 3439 
Q 2450 3584 2816 3584 
Q 3463 3584 3878 3070 
Q 4294 2556 4294 1747 
Q 4294 938 3878 423 
Q 3463 -91 2816 -91 
Q 2450 -91 2169 54 
Q 1888 200 1656 506 
L 1656 0 
L 538 0 
L 538 4863 
L 1656 4863 
L 1656 2988 
z
" transform="scale(0.015625)"/>
      <path id="DejaVuSans-Bold-69" d="M 538 3500 
L 1656 3500 
L 1656 0 
L 538 0 
L 538 3500 
z
M 538 4863 
L 1656 4863 
L 1656 3950 
L 538 3950 
L 538 4863 
z
" transform="scale(0.015625)"/>
      <path id="DejaVuSans-Bold-6c" d="M 538 4863 
L 1656 4863 
L 1656 0 
L 538 0 
L 538 4863 
z
" transform="scale(0.015625)"/>
      <path id="DejaVuSans-Bold-74" d="M 1759 4494 
L 1759 3500 
L 2913 3500 
L 2913 2700 
L 1759 2700 
L 1759 1216 
Q 1759 972 1856 886 
Q 1953 800 2241 800 
L 2816 800 
L 2816 0 
L 1856 0 
Q 1194 0 917 276 
Q 641 553 641 1216 
L 641 2700 
L 84 2700 
L 84 3500 
L 641 3500 
L 641 4494 
L 1759 4494 
z
" transform="scale(0.015625)"/>
      <path id="DejaVuSans-Bold-e0" d="M 2106 1575 
Q 1756 1575 1579 1456 
Q 1403 1338 1403 1106 
Q 1403 894 1545 773 
Q 1688 653 1941 653 
Q 2256 653 2472 879 
Q 2688 1106 2688 1447 
L 2688 1575 
L 2106 1575 
z
M 3816 1997 
L 3816 0 
L 2688 0 
L 2688 519 
Q 2463 200 2181 54 
Q 1900 -91 1497 -91 
Q 953 -91 614 226 
Q 275 544 275 1050 
Q 275 1666 698 1953 
Q 1122 2241 2028 2241 
L 2688 2241 
L 2688 2328 
Q 2688 2594 2478 2717 
Q 2269 2841 1825 2841 
Q 1466 2841 1156 2769 
Q 847 2697 581 2553 
L 581 3406 
Q 941 3494 1303 3539 
Q 1666 3584 2028 3584 
Q 2975 3584 3395 3211 
Q 3816 2838 3816 1997 
z
M 1762 5119 
L 2643 3944 
L 2031 3944 
L 878 5119 
L 1762 5119 
z
" transform="scale(0.015625)"/>
      <path id="DejaVuSans-Bold-20" transform="scale(0.015625)"/>
      <path id="DejaVuSans-Bold-65" d="M 4031 1759 
L 4031 1441 
L 1416 1441 
Q 1456 1047 1700 850 
Q 1944 653 2381 653 
Q 2734 653 3104 758 
Q 3475 863 3866 1075 
L 3866 213 
Q 3469 63 3072 -14 
Q 2675 -91 2278 -91 
Q 1328 -91 801 392 
Q 275 875 275 1747 
Q 275 2603 792 3093 
Q 1309 3584 2216 3584 
Q 3041 3584 3536 3087 
Q 4031 2591 4031 1759 
z
M 2881 2131 
Q 2881 2450 2695 2645 
Q 2509 2841 2209 2841 
Q 1884 2841 1681 2658 
Q 1478 2475 1428 2131 
L 2881 2131 
z
" transform="scale(0.015625)"/>
      <path id="DejaVuSans-Bold-72" d="M 3138 2547 
Q 2991 2616 2845 2648 
Q 2700 2681 2553 2681 
Q 2122 2681 1889 2404 
Q 1656 2128 1656 1613 
L 1656 0 
L 538 0 
L 538 3500 
L 1656 3500 
L 1656 2925 
Q 1872 3269 2151 3426 
Q 2431 3584 2822 3584 
Q 2878 3584 2943 3579 
Q 3009 3575 3134 3559 
L 3138 2547 
z
" transform="scale(0.015625)"/>
      <path id="DejaVuSans-Bold-6e" d="M 4056 2131 
L 4056 0 
L 2931 0 
L 2931 347 
L 2931 1631 
Q 2931 2084 2911 2256 
Q 2891 2428 2841 2509 
Q 2775 2619 2662 2680 
Q 2550 2741 2406 2741 
Q 2056 2741 1856 2470 
Q 1656 2200 1656 1722 
L 1656 0 
L 538 0 
L 538 3500 
L 1656 3500 
L 1656 2988 
Q 1909 3294 2193 3439 
Q 2478 3584 2822 3584 
Q 3428 3584 3742 3212 
Q 4056 2841 4056 2131 
z
" transform="scale(0.015625)"/>
      <path id="DejaVuSans-Bold-63" d="M 3366 3391 
L 3366 2478 
Q 3138 2634 2908 2709 
Q 2678 2784 2431 2784 
Q 1963 2784 1702 2511 
Q 1441 2238 1441 1747 
Q 1441 1256 1702 982 
Q 1963 709 2431 709 
Q 2694 709 2930 787 
Q 3166 866 3366 1019 
L 3366 103 
Q 3103 6 2833 -42 
Q 2563 -91 2291 -91 
Q 1344 -91 809 395 
Q 275 881 275 1747 
Q 275 2613 809 3098 
Q 1344 3584 2291 3584 
Q 2566 3584 2833 3536 
Q 3100 3488 3366 3391 
z
" transform="scale(0.015625)"/>
      <path id="DejaVuSans-Bold-61" d="M 2106 1575 
Q 1756 1575 1579 1456 
Q 1403 1338 1403 1106 
Q 1403 894 1545 773 
Q 1688 653 1941 653 
Q 2256 653 2472 879 
Q 2688 1106 2688 1447 
L 2688 1575 
L 2106 1575 
z
M 3816 1997 
L 3816 0 
L 2688 0 
L 2688 519 
Q 2463 200 2181 54 
Q 1900 -91 1497 -91 
Q 953 -91 614 226 
Q 275 544 275 1050 
Q 275 1666 698 1953 
Q 1122 2241 2028 2241 
L 2688 2241 
L 2688 2328 
Q 2688 2594 2478 2717 
Q 2269 2841 1825 2841 
Q 1466 2841 1156 2769 
Q 847 2697 581 2553 
L 581 3406 
Q 941 3494 1303 3539 
Q 1666 3584 2028 3584 
Q 2975 3584 3395 3211 
Q 3816 2838 3816 1997 
z
" transform="scale(0.015625)"/>
      <path id="DejaVuSans-Bold-47" d="M 4781 347 
Q 4331 128 3847 18 
Q 3363 -91 2847 -91 
Q 1681 -91 1000 561 
Q 319 1213 319 2328 
Q 319 3456 1012 4103 
Q 1706 4750 2913 4750 
Q 3378 4750 3804 4662 
Q 4231 4575 4609 4403 
L 4609 3438 
Q 4219 3659 3833 3768 
Q 3447 3878 3059 3878 
Q 2341 3878 1952 3476 
Q 1563 3075 1563 2328 
Q 1563 1588 1938 1184 
Q 2313 781 3003 781 
Q 3191 781 3352 804 
Q 3513 828 3641 878 
L 3641 1784 
L 2906 1784 
L 2906 2591 
L 4781 2591 
L 4781 347 
z
" transform="scale(0.015625)"/>
      <path id="DejaVuSans-Bold-41" d="M 3419 850 
L 1538 850 
L 1241 0 
L 31 0 
L 1759 4666 
L 3194 4666 
L 4922 0 
L 3713 0 
L 3419 850 
z
M 1838 1716 
L 3116 1716 
L 2478 3572 
L 1838 1716 
z
" transform="scale(0.015625)"/>
      <path id="DejaVuSans-Bold-73" d="M 3272 3391 
L 3272 2541 
Q 2913 2691 2578 2766 
Q 2244 2841 1947 2841 
Q 1628 2841 1473 2761 
Q 1319 2681 1319 2516 
Q 1319 2381 1436 2309 
Q 1553 2238 1856 2203 
L 2053 2175 
Q 2913 2066 3209 1816 
Q 3506 1566 3506 1031 
Q 3506 472 3093 190 
Q 2681 -91 1863 -91 
Q 1516 -91 1145 -36 
Q 775 19 384 128 
L 384 978 
Q 719 816 1070 734 
Q 1422 653 1784 653 
Q 2113 653 2278 743 
Q 2444 834 2444 1013 
Q 2444 1163 2330 1236 
Q 2216 1309 1875 1350 
L 1678 1375 
Q 931 1469 631 1722 
Q 331 1975 331 2491 
Q 331 3047 712 3315 
Q 1094 3584 1881 3584 
Q 2191 3584 2531 3537 
Q 2872 3491 3272 3391 
z
" transform="scale(0.015625)"/>
      <path id="DejaVuSans-Bold-64" d="M 2919 2988 
L 2919 4863 
L 4044 4863 
L 4044 0 
L 2919 0 
L 2919 506 
Q 2688 197 2409 53 
Q 2131 -91 1766 -91 
Q 1119 -91 703 423 
Q 288 938 288 1747 
Q 288 2556 703 3070 
Q 1119 3584 1766 3584 
Q 2128 3584 2408 3439 
Q 2688 3294 2919 2988 
z
M 2181 722 
Q 2541 722 2730 984 
Q 2919 1247 2919 1747 
Q 2919 2247 2730 2509 
Q 2541 2772 2181 2772 
Q 1825 2772 1636 2509 
Q 1447 2247 1447 1747 
Q 1447 1247 1636 984 
Q 1825 722 2181 722 
z
" transform="scale(0.015625)"/>
      <path id="DejaVuSans-Bold-67" d="M 2919 594 
Q 2688 288 2409 144 
Q 2131 0 1766 0 
Q 1125 0 706 504 
Q 288 1009 288 1791 
Q 288 2575 706 3076 
Q 1125 3578 1766 3578 
Q 2131 3578 2409 3434 
Q 2688 3291 2919 2981 
L 2919 3500 
L 4044 3500 
L 4044 353 
Q 4044 -491 3511 -936 
Q 2978 -1381 1966 -1381 
Q 1638 -1381 1331 -1331 
Q 1025 -1281 716 -1178 
L 716 -306 
Q 1009 -475 1290 -558 
Q 1572 -641 1856 -641 
Q 2406 -641 2662 -400 
Q 2919 -159 2919 353 
L 2919 594 
z
M 2181 2772 
Q 1834 2772 1640 2515 
Q 1447 2259 1447 1791 
Q 1447 1309 1634 1061 
Q 1822 813 2181 813 
Q 2531 813 2725 1069 
Q 2919 1325 2919 1791 
Q 2919 2259 2725 2515 
Q 2531 2772 2181 2772 
z
" transform="scale(0.015625)"/>
      <path id="DejaVuSans-Bold-70" d="M 1656 506 
L 1656 -1331 
L 538 -1331 
L 538 3500 
L 1656 3500 
L 1656 2988 
Q 1888 3294 2169 3439 
Q 2450 3584 2816 3584 
Q 3463 3584 3878 3070 
Q 4294 2556 4294 1747 
Q 4294 938 3878 423 
Q 3463 -91 2816 -91 
Q 2450 -91 2169 54 
Q 1888 200 1656 506 
z
M 2400 2772 
Q 2041 2772 1848 2508 
Q 1656 2244 1656 1747 
Q 1656 1250 1848 986 
Q 2041 722 2400 722 
Q 2759 722 2948 984 
Q 3138 1247 3138 1747 
Q 3138 2247 2948 2509 
Q 2759 2772 2400 2772 
z
" transform="scale(0.015625)"/>
     </defs>
     <use xlink:href="#DejaVuSans-Bold-4d"/>
     <use xlink:href="#DejaVuSans-Bold-6f" transform="translate(99.511719 0)"/>
     <use xlink:href="#DejaVuSans-Bold-62" transform="translate(168.212891 0)"/>
     <use xlink:href="#DejaVuSans-Bold-69" transform="translate(239.794922 0)"/>
     <use xlink:href="#DejaVuSans-Bold-6c" transform="translate(274.072266 0)"/>
     <use xlink:href="#DejaVuSans-Bold-69" transform="translate(308.349609 0)"/>
     <use xlink:href="#DejaVuSans-Bold-74" transform="translate(342.626953 0)"/>
     <use xlink:href="#DejaVuSans-Bold-e0" transform="translate(390.429688 0)"/>
     <use xlink:href="#DejaVuSans-Bold-20" transform="translate(457.910156 0)"/>
     <use xlink:href="#DejaVuSans-Bold-65" transform="translate(492.724609 0)"/>
     <use xlink:href="#DejaVuSans-Bold-6c" transform="translate(560.546875 0)"/>
     <use xlink:href="#DejaVuSans-Bold-65" transform="translate(594.824219 0)"/>
     <use xlink:href="#DejaVuSans-Bold-74" transform="translate(662.646484 0)"/>
     <use xlink:href="#DejaVuSans-Bold-74" transform="translate(710.449219 0)"/>
     <use xlink:href="#DejaVuSans-Bold-72" transform="translate(758.251953 0)"/>
     <use xlink:href="#DejaVuSans-Bold-6f" transform="translate(807.568359 0)"/>
     <use xlink:href="#DejaVuSans-Bold-6e" transform="translate(876.269531 0)"/>
     <use xlink:href="#DejaVuSans-Bold-69" transform="translate(947.460938 0)"/>
     <use xlink:href="#DejaVuSans-Bold-63" transform="translate(981.738281 0)"/>
     <use xlink:href="#DejaVuSans-Bold-61" transform="translate(1041.015625 0)"/>
     <use xlink:href="#DejaVuSans-Bold-20" transform="translate(1108.496094 0)"/>
     <use xlink:href="#DejaVuSans-Bold-69" transform="translate(1143.310547 0)"/>
     <use xlink:href="#DejaVuSans-Bold-6e" transform="translate(1177.587891 0)"/>
     <use xlink:href="#DejaVuSans-Bold-20" transform="translate(1248.779297 0)"/>
     <use xlink:href="#DejaVuSans-Bold-47" transform="translate(1283.59375 0)"/>
     <use xlink:href="#DejaVuSans-Bold-61" transform="translate(1365.673828 0)"/>
     <use xlink:href="#DejaVuSans-Bold-41" transform="translate(1433.154297 0)"/>
     <use xlink:href="#DejaVuSans-Bold-73" transform="translate(1510.546875 0)"/>
     <use xlink:href="#DejaVuSans-Bold-20" transform="translate(1570.068359 0)"/>
     <use xlink:href="#DejaVuSans-Bold-64" transform="translate(1604.882812 0)"/>
     <use xlink:href="#DejaVuSans-Bold-72" transform="translate(1676.464844 0)"/>
     <use xlink:href="#DejaVuSans-Bold-6f" transform="translate(1725.78125 0)"/>
     <use xlink:href="#DejaVuSans-Bold-67" transform="translate(1794.482422 0)"/>
     <use xlink:href="#DejaVuSans-Bold-61" transform="translate(1866.064453 0)"/>
     <use xlink:href="#DejaVuSans-Bold-74" transform="translate(1933.544922 0)"/>
     <use xlink:href="#DejaVuSans-Bold-6f" transform="translate(1981.347656 0)"/>
     <use xlink:href="#DejaVuSans-Bold-20" transform="translate(2050.048828 0)"/>
     <use xlink:href="#DejaVuSans-Bold-64" transform="translate(2084.863281 0)"/>
     <use xlink:href="#DejaVuSans-Bold-69" transform="translate(2156.445312 0)"/>
     <use xlink:href="#DejaVuSans-Bold-20" transform="translate(2190.722656 0)"/>
     <use xlink:href="#DejaVuSans-Bold-74" transform="translate(2225.537109 0)"/>
     <use xlink:href="#DejaVuSans-Bold-69" transform="translate(2273.339844 0)"/>
     <use xlink:href="#DejaVuSans-Bold-70" transform="translate(2307.617188 0)"/>
     <use xlink:href="#DejaVuSans-Bold-6f" transform="translate(2379.199219 0)"/>
     <use xlink:href="#DejaVuSans-Bold-20" transform="translate(2447.900391 0)"/>
     <use xlink:href="#DejaVuSans-Bold-6e" transform="translate(2482.714844 0)"/>
    </g>
   </g>
   <g id="PathCollection_1">
    <defs>
     <path id="mcc811b5cbd" d="M 0 2.54951 
C 0.676138 2.54951 1.324674 2.280877 1.802776 1.802776 
C 2.280877 1.324674 2.54951 0.676138 2.54951 0 
C 2.54951 -0.676138 2.280877 -1.324674 1.802776 -1.802776 
C 1.324674 -2.280877 0.676138 -2.54951 0 -2.54951 
C -0.676138 -2.54951 -1.324674 -2.280877 -1.802776 -1.802776 
C -2.280877 -1.324674 -2.54951 -0.676138 -2.54951 0 
C -2.54951 0.676138 -2.280877 1.324674 -1.802776 1.802776 
C -1.324674 2.280877 -0.676138 2.54951 0 2.54951 
z
" style="stroke: #000000"/>
    </defs>
    <g clip-path="url(#pbb9dc96c7c)">
     <use xlink:href="#mcc811b5cbd" x="62.104929" y="237.817422" style="stroke: #000000"/>
     <use xlink:href="#mcc811b5cbd" x="76.032493" y="230.289311" style="stroke: #000000"/>
     <use xlink:href="#mcc811b5cbd" x="89.960058" y="223.211334" style="stroke: #000000"/>
     <use xlink:href="#mcc811b5cbd" x="103.887622" y="221.439617" style="stroke: #000000"/>
     <use xlink:href="#mcc811b5cbd" x="117.815187" y="213.1515" style="stroke: #000000"/>
     <use xlink:href="#mcc811b5cbd" x="131.742751" y="209.680439" style="stroke: #000000"/>
     <use xlink:href="#mcc811b5cbd" x="145.670316" y="203.750231" style="stroke: #000000"/>
     <use xlink:href="#mcc811b5cbd" x="159.59788" y="205.395151" style="stroke: #000000"/>
     <use xlink:href="#mcc811b5cbd" x="173.525444" y="201.138739" style="stroke: #000000"/>
     <use xlink:href="#mcc811b5cbd" x="187.453009" y="203.137741" style="stroke: #000000"/>
     <use xlink:href="#mcc811b5cbd" x="201.380573" y="205.548018" style="stroke: #000000"/>
     <use xlink:href="#mcc811b5cbd" x="215.308138" y="195.824948" style="stroke: #000000"/>
     <use xlink:href="#mcc811b5cbd" x="229.235702" y="199.066443" style="stroke: #000000"/>
     <use xlink:href="#mcc811b5cbd" x="243.163267" y="198.58365" style="stroke: #000000"/>
     <use xlink:href="#mcc811b5cbd" x="257.090831" y="201.004448" style="stroke: #000000"/>
     <use xlink:href="#mcc811b5cbd" x="271.018396" y="204.33582" style="stroke: #000000"/>
     <use xlink:href="#mcc811b5cbd" x="284.94596" y="211.170105" style="stroke: #000000"/>
     <use xlink:href="#mcc811b5cbd" x="298.873524" y="215.454646" style="stroke: #000000"/>
     <use xlink:href="#mcc811b5cbd" x="312.801089" y="220.273219" style="stroke: #000000"/>
     <use xlink:href="#mcc811b5cbd" x="326.728653" y="221.790331" style="stroke: #000000"/>
     <use xlink:href="#mcc811b5cbd" x="340.656218" y="229.142969" style="stroke: #000000"/>
     <use xlink:href="#mcc811b5cbd" x="354.583782" y="235.751772" style="stroke: #000000"/>
     <use xlink:href="#mcc811b5cbd" x="368.511347" y="240.905983" style="stroke: #000000"/>
     <use xlink:href="#mcc811b5cbd" x="382.438911" y="247.665031" style="stroke: #000000"/>
     <use xlink:href="#mcc811b5cbd" x="396.366476" y="249.660474" style="stroke: #000000"/>
     <use xlink:href="#mcc811b5cbd" x="410.29404" y="262.7285" style="stroke: #000000"/>
     <use xlink:href="#mcc811b5cbd" x="424.221604" y="276.903259" style="stroke: #000000"/>
     <use xlink:href="#mcc811b5cbd" x="438.149169" y="291.164215" style="stroke: #000000"/>
     <use xlink:href="#mcc811b5cbd" x="452.076733" y="298.950077" style="stroke: #000000"/>
     <use xlink:href="#mcc811b5cbd" x="466.004298" y="303.565848" style="stroke: #000000"/>
     <use xlink:href="#mcc811b5cbd" x="479.931862" y="313.000613" style="stroke: #000000"/>
     <use xlink:href="#mcc811b5cbd" x="493.859427" y="311.776342" style="stroke: #000000"/>
     <use xlink:href="#mcc811b5cbd" x="507.786991" y="319.594514" style="stroke: #000000"/>
     <use xlink:href="#mcc811b5cbd" x="521.714556" y="327.614262" style="stroke: #000000"/>
     <use xlink:href="#mcc811b5cbd" x="535.64212" y="332.793116" style="stroke: #000000"/>
     <use xlink:href="#mcc811b5cbd" x="549.569684" y="333.57328" style="stroke: #000000"/>
     <use xlink:href="#mcc811b5cbd" x="563.497249" y="347.979647" style="stroke: #000000"/>
     <use xlink:href="#mcc811b5cbd" x="577.424813" y="350.473871" style="stroke: #000000"/>
     <use xlink:href="#mcc811b5cbd" x="591.352378" y="359.785195" style="stroke: #000000"/>
     <use xlink:href="#mcc811b5cbd" x="605.279942" y="362.337167" style="stroke: #000000"/>
     <use xlink:href="#mcc811b5cbd" x="619.207507" y="367.21406" style="stroke: #000000"/>
     <use xlink:href="#mcc811b5cbd" x="633.135071" y="369.786907" style="stroke: #000000"/>
    </g>
   </g>
   <g id="legend_1">
    <g id="line2d_108">
     <path d="M 54.22 391.702031 
L 63.02 391.702031 
L 71.82 391.702031 
" style="fill: none; stroke: #1f77b4; stroke-width: 1.9; stroke-linecap: square"/>
    </g>
    <g id="text_11">
     <!-- impurezze ionizzate -->
     <g transform="translate(78.86 394.782031) scale(0.088 -0.088)">
      <defs>
       <path id="DejaVuSans-7a" d="M 353 3500 
L 3084 3500 
L 3084 2975 
L 922 459 
L 3084 459 
L 3084 0 
L 275 0 
L 275 525 
L 2438 3041 
L 353 3041 
L 353 3500 
z
" transform="scale(0.015625)"/>
      </defs>
      <use xlink:href="#DejaVuSans-69"/>
      <use xlink:href="#DejaVuSans-6d" transform="translate(27.783203 0)"/>
      <use xlink:href="#DejaVuSans-70" transform="translate(125.195312 0)"/>
      <use xlink:href="#DejaVuSans-75" transform="translate(188.671875 0)"/>
      <use xlink:href="#DejaVuSans-72" transform="translate(252.050781 0)"/>
      <use xlink:href="#DejaVuSans-65" transform="translate(290.914062 0)"/>
      <use xlink:href="#DejaVuSans-7a" transform="translate(352.4375 0)"/>
      <use xlink:href="#DejaVuSans-7a" transform="translate(404.927734 0)"/>
      <use xlink:href="#DejaVuSans-65" transform="translate(457.417969 0)"/>
      <use xlink:href="#DejaVuSans-20" transform="translate(518.941406 0)"/>
      <use xlink:href="#DejaVuSans-69" transform="translate(550.728516 0)"/>
      <use xlink:href="#DejaVuSans-6f" transform="translate(578.511719 0)"/>
      <use xlink:href="#DejaVuSans-6e" transform="translate(639.693359 0)"/>
      <use xlink:href="#DejaVuSans-69" transform="translate(703.072266 0)"/>
      <use xlink:href="#DejaVuSans-7a" transform="translate(730.855469 0)"/>
      <use xlink:href="#DejaVuSans-7a" transform="translate(783.345703 0)"/>
      <use xlink:href="#DejaVuSans-61" transform="translate(835.835938 0)"/>
      <use xlink:href="#DejaVuSans-74" transform="translate(897.115234 0)"/>
      <use xlink:href="#DejaVuSans-65" transform="translate(936.324219 0)"/>
     </g>
    </g>
    <g id="line2d_109">
     <path d="M 54.22 404.618781 
L 63.02 404.618781 
L 71.82 404.618781 
" style="fill: none; stroke: #ff7f0e; stroke-width: 1.9; stroke-linecap: square"/>
    </g>
    <g id="text_12">
     <!-- fononi acustici -->
     <g transform="translate(78.86 407.698781) scale(0.088 -0.088)">
      <defs>
       <path id="DejaVuSans-66" d="M 2375 4863 
L 2375 4384 
L 1825 4384 
Q 1516 4384 1395 4259 
Q 1275 4134 1275 3809 
L 1275 3500 
L 2222 3500 
L 2222 3053 
L 1275 3053 
L 1275 0 
L 697 0 
L 697 3053 
L 147 3053 
L 147 3500 
L 697 3500 
L 697 3744 
Q 697 4328 969 4595 
Q 1241 4863 1831 4863 
L 2375 4863 
z
" transform="scale(0.015625)"/>
      </defs>
      <use xlink:href="#DejaVuSans-66"/>
      <use xlink:href="#DejaVuSans-6f" transform="translate(35.205078 0)"/>
      <use xlink:href="#DejaVuSans-6e" transform="translate(96.386719 0)"/>
      <use xlink:href="#DejaVuSans-6f" transform="translate(159.765625 0)"/>
      <use xlink:href="#DejaVuSans-6e" transform="translate(220.947266 0)"/>
      <use xlink:href="#DejaVuSans-69" transform="translate(284.326172 0)"/>
      <use xlink:href="#DejaVuSans-20" transform="translate(312.109375 0)"/>
      <use xlink:href="#DejaVuSans-61" transform="translate(343.896484 0)"/>
      <use xlink:href="#DejaVuSans-63" transform="translate(405.175781 0)"/>
      <use xlink:href="#DejaVuSans-75" transform="translate(460.15625 0)"/>
      <use xlink:href="#DejaVuSans-73" transform="translate(523.535156 0)"/>
      <use xlink:href="#DejaVuSans-74" transform="translate(575.634766 0)"/>
      <use xlink:href="#DejaVuSans-69" transform="translate(614.84375 0)"/>
      <use xlink:href="#DejaVuSans-63" transform="translate(642.626953 0)"/>
      <use xlink:href="#DejaVuSans-69" transform="translate(697.607422 0)"/>
     </g>
    </g>
    <g id="line2d_110">
     <path d="M 54.22 417.535531 
L 63.02 417.535531 
L 71.82 417.535531 
" style="fill: none; stroke: #2ca02c; stroke-width: 1.9; stroke-linecap: square"/>
    </g>
    <g id="text_13">
     <!-- fononi ottici polari -->
     <g transform="translate(78.86 420.615531) scale(0.088 -0.088)">
      <use xlink:href="#DejaVuSans-66"/>
      <use xlink:href="#DejaVuSans-6f" transform="translate(35.205078 0)"/>
      <use xlink:href="#DejaVuSans-6e" transform="translate(96.386719 0)"/>
      <use xlink:href="#DejaVuSans-6f" transform="translate(159.765625 0)"/>
      <use xlink:href="#DejaVuSans-6e" transform="translate(220.947266 0)"/>
      <use xlink:href="#DejaVuSans-69" transform="translate(284.326172 0)"/>
      <use xlink:href="#DejaVuSans-20" transform="translate(312.109375 0)"/>
      <use xlink:href="#DejaVuSans-6f" transform="translate(343.896484 0)"/>
      <use xlink:href="#DejaVuSans-74" transform="translate(405.078125 0)"/>
      <use xlink:href="#DejaVuSans-74" transform="translate(444.287109 0)"/>
      <use xlink:href="#DejaVuSans-69" transform="translate(483.496094 0)"/>
      <use xlink:href="#DejaVuSans-63" transform="translate(511.279297 0)"/>
      <use xlink:href="#DejaVuSans-69" transform="translate(566.259766 0)"/>
      <use xlink:href="#DejaVuSans-20" transform="translate(594.042969 0)"/>
      <use xlink:href="#DejaVuSans-70" transform="translate(625.830078 0)"/>
      <use xlink:href="#DejaVuSans-6f" transform="translate(689.306641 0)"/>
      <use xlink:href="#DejaVuSans-6c" transform="translate(750.488281 0)"/>
      <use xlink:href="#DejaVuSans-61" transform="translate(778.271484 0)"/>
      <use xlink:href="#DejaVuSans-72" transform="translate(839.550781 0)"/>
      <use xlink:href="#DejaVuSans-69" transform="translate(880.664062 0)"/>
     </g>
    </g>
    <g id="line2d_111">
     <path d="M 184.268875 391.702031 
L 193.068875 391.702031 
L 201.868875 391.702031 
" style="fill: none; stroke: #d62728; stroke-width: 1.9; stroke-linecap: square"/>
    </g>
    <g id="text_14">
     <!-- scattering piezoelettrico -->
     <g transform="translate(208.908875 394.782031) scale(0.088 -0.088)">
      <defs>
       <path id="DejaVuSans-67" d="M 2906 1791 
Q 2906 2416 2648 2759 
Q 2391 3103 1925 3103 
Q 1463 3103 1205 2759 
Q 947 2416 947 1791 
Q 947 1169 1205 825 
Q 1463 481 1925 481 
Q 2391 481 2648 825 
Q 2906 1169 2906 1791 
z
M 3481 434 
Q 3481 -459 3084 -895 
Q 2688 -1331 1869 -1331 
Q 1566 -1331 1297 -1286 
Q 1028 -1241 775 -1147 
L 775 -588 
Q 1028 -725 1275 -790 
Q 1522 -856 1778 -856 
Q 2344 -856 2625 -561 
Q 2906 -266 2906 331 
L 2906 616 
Q 2728 306 2450 153 
Q 2172 0 1784 0 
Q 1141 0 747 490 
Q 353 981 353 1791 
Q 353 2603 747 3093 
Q 1141 3584 1784 3584 
Q 2172 3584 2450 3431 
Q 2728 3278 2906 2969 
L 2906 3500 
L 3481 3500 
L 3481 434 
z
" transform="scale(0.015625)"/>
      </defs>
      <use xlink:href="#DejaVuSans-73"/>
      <use xlink:href="#DejaVuSans-63" transform="translate(52.099609 0)"/>
      <use xlink:href="#DejaVuSans-61" transform="translate(107.080078 0)"/>
      <use xlink:href="#DejaVuSans-74" transform="translate(168.359375 0)"/>
      <use xlink:href="#DejaVuSans-74" transform="translate(207.568359 0)"/>
      <use xlink:href="#DejaVuSans-65" transform="translate(246.777344 0)"/>
      <use xlink:href="#DejaVuSans-72" transform="translate(308.300781 0)"/>
      <use xlink:href="#DejaVuSans-69" transform="translate(349.414062 0)"/>
      <use xlink:href="#DejaVuSans-6e" transform="translate(377.197266 0)"/>
      <use xlink:href="#DejaVuSans-67" transform="translate(440.576172 0)"/>
      <use xlink:href="#DejaVuSans-20" transform="translate(504.052734 0)"/>
      <use xlink:href="#DejaVuSans-70" transform="translate(535.839844 0)"/>
      <use xlink:href="#DejaVuSans-69" transform="translate(599.316406 0)"/>
      <use xlink:href="#DejaVuSans-65" transform="translate(627.099609 0)"/>
      <use xlink:href="#DejaVuSans-7a" transform="translate(688.623047 0)"/>
      <use xlink:href="#DejaVuSans-6f" transform="translate(741.113281 0)"/>
      <use xlink:href="#DejaVuSans-65" transform="translate(802.294922 0)"/>
      <use xlink:href="#DejaVuSans-6c" transform="translate(863.818359 0)"/>
      <use xlink:href="#DejaVuSans-65" transform="translate(891.601562 0)"/>
      <use xlink:href="#DejaVuSans-74" transform="translate(953.125 0)"/>
      <use xlink:href="#DejaVuSans-74" transform="translate(992.333984 0)"/>
      <use xlink:href="#DejaVuSans-72" transform="translate(1031.542969 0)"/>
      <use xlink:href="#DejaVuSans-69" transform="translate(1072.65625 0)"/>
      <use xlink:href="#DejaVuSans-63" transform="translate(1100.439453 0)"/>
      <use xlink:href="#DejaVuSans-6f" transform="translate(1155.419922 0)"/>
     </g>
    </g>
    <g id="line2d_112">
     <path d="M 184.268875 404.618781 
L 193.068875 404.618781 
L 201.868875 404.618781 
" style="fill: none; stroke: #9467bd; stroke-width: 2.7; stroke-linecap: square"/>
    </g>
    <g id="text_15">
     <!-- mobilità totale -->
     <g transform="translate(208.908875 407.698781) scale(0.088 -0.088)">
      <use xlink:href="#DejaVuSans-6d"/>
      <use xlink:href="#DejaVuSans-6f" transform="translate(97.412109 0)"/>
      <use xlink:href="#DejaVuSans-62" transform="translate(158.59375 0)"/>
      <use xlink:href="#DejaVuSans-69" transform="translate(222.070312 0)"/>
      <use xlink:href="#DejaVuSans-6c" transform="translate(249.853516 0)"/>
      <use xlink:href="#DejaVuSans-69" transform="translate(277.636719 0)"/>
      <use xlink:href="#DejaVuSans-74" transform="translate(305.419922 0)"/>
      <use xlink:href="#DejaVuSans-e0" transform="translate(344.628906 0)"/>
      <use xlink:href="#DejaVuSans-20" transform="translate(405.908203 0)"/>
      <use xlink:href="#DejaVuSans-74" transform="translate(437.695312 0)"/>
      <use xlink:href="#DejaVuSans-6f" transform="translate(476.904297 0)"/>
      <use xlink:href="#DejaVuSans-74" transform="translate(538.085938 0)"/>
      <use xlink:href="#DejaVuSans-61" transform="translate(577.294922 0)"/>
      <use xlink:href="#DejaVuSans-6c" transform="translate(638.574219 0)"/>
      <use xlink:href="#DejaVuSans-65" transform="translate(666.357422 0)"/>
     </g>
    </g>
    <g id="PathCollection_2">
     <g>
      <use xlink:href="#mcc811b5cbd" x="193.068875" y="418.305531" style="stroke: #000000"/>
     </g>
    </g>
    <g id="text_16">
     <!-- punti sintetici -->
     <g transform="translate(208.908875 420.615531) scale(0.088 -0.088)">
      <use xlink:href="#DejaVuSans-70"/>
      <use xlink:href="#DejaVuSans-75" transform="translate(63.476562 0)"/>
      <use xlink:href="#DejaVuSans-6e" transform="translate(126.855469 0)"/>
      <use xlink:href="#DejaVuSans-74" transform="translate(190.234375 0)"/>
      <use xlink:href="#DejaVuSans-69" transform="translate(229.443359 0)"/>
      <use xlink:href="#DejaVuSans-20" transform="translate(257.226562 0)"/>
      <use xlink:href="#DejaVuSans-73" transform="translate(289.013672 0)"/>
      <use xlink:href="#DejaVuSans-69" transform="translate(341.113281 0)"/>
      <use xlink:href="#DejaVuSans-6e" transform="translate(368.896484 0)"/>
      <use xlink:href="#DejaVuSans-74" transform="translate(432.275391 0)"/>
      <use xlink:href="#DejaVuSans-65" transform="translate(471.484375 0)"/>
      <use xlink:href="#DejaVuSans-74" transform="translate(533.007812 0)"/>
      <use xlink:href="#DejaVuSans-69" transform="translate(572.216797 0)"/>
      <use xlink:href="#DejaVuSans-63" transform="translate(600 0)"/>
      <use xlink:href="#DejaVuSans-69" transform="translate(654.980469 0)"/>
     </g>
    </g>
   </g>
  </g>
  <g id="text_17">
   <!-- La mobilità totale deriva dalla combinazione dei principali meccanismi di scattering secondo la regola di Matthiessen. -->
   <g transform="translate(42.946875 474.429656) scale(0.1 -0.1)">
    <defs>
     <path id="DejaVuSans-4c" d="M 628 4666 
L 1259 4666 
L 1259 531 
L 3531 531 
L 3531 0 
L 628 0 
L 628 4666 
z
" transform="scale(0.015625)"/>
     <path id="DejaVuSans-76" d="M 191 3500 
L 800 3500 
L 1894 563 
L 2988 3500 
L 3597 3500 
L 2284 0 
L 1503 0 
L 191 3500 
z
" transform="scale(0.015625)"/>
     <path id="DejaVuSans-4d" d="M 628 4666 
L 1569 4666 
L 2759 1491 
L 3956 4666 
L 4897 4666 
L 4897 0 
L 4281 0 
L 4281 4097 
L 3078 897 
L 2444 897 
L 1241 4097 
L 1241 0 
L 628 0 
L 628 4666 
z
" transform="scale(0.015625)"/>
     <path id="DejaVuSans-68" d="M 3513 2113 
L 3513 0 
L 2938 0 
L 2938 2094 
Q 2938 2591 2744 2837 
Q 2550 3084 2163 3084 
Q 1697 3084 1428 2787 
Q 1159 2491 1159 1978 
L 1159 0 
L 581 0 
L 581 4863 
L 1159 4863 
L 1159 2956 
Q 1366 3272 1645 3428 
Q 1925 3584 2291 3584 
Q 2894 3584 3203 3211 
Q 3513 2838 3513 2113 
z
" transform="scale(0.015625)"/>
     <path id="DejaVuSans-2e" d="M 684 794 
L 1344 794 
L 1344 0 
L 684 0 
L 684 794 
z
" transform="scale(0.015625)"/>
    </defs>
    <use xlink:href="#DejaVuSans-4c"/>
    <use xlink:href="#DejaVuSans-61" transform="translate(55.712891 0)"/>
    <use xlink:href="#DejaVuSans-20" transform="translate(116.992188 0)"/>
    <use xlink:href="#DejaVuSans-6d" transform="translate(148.779297 0)"/>
    <use xlink:href="#DejaVuSans-6f" transform="translate(246.191406 0)"/>
    <use xlink:href="#DejaVuSans-62" transform="translate(307.373047 0)"/>
    <use xlink:href="#DejaVuSans-69" transform="translate(370.849609 0)"/>
    <use xlink:href="#DejaVuSans-6c" transform="translate(398.632812 0)"/>
    <use xlink:href="#DejaVuSans-69" transform="translate(426.416016 0)"/>
    <use xlink:href="#DejaVuSans-74" transform="translate(454.199219 0)"/>
    <use xlink:href="#DejaVuSans-e0" transform="translate(493.408203 0)"/>
    <use xlink:href="#DejaVuSans-20" transform="translate(554.6875 0)"/>
    <use xlink:href="#DejaVuSans-74" transform="translate(586.474609 0)"/>
    <use xlink:href="#DejaVuSans-6f" transform="translate(625.683594 0)"/>
    <use xlink:href="#DejaVuSans-74" transform="translate(686.865234 0)"/>
    <use xlink:href="#DejaVuSans-61" transform="translate(726.074219 0)"/>
    <use xlink:href="#DejaVuSans-6c" transform="translate(787.353516 0)"/>
    <use xlink:href="#DejaVuSans-65" transform="translate(815.136719 0)"/>
    <use xlink:href="#DejaVuSans-20" transform="translate(876.660156 0)"/>
    <use xlink:href="#DejaVuSans-64" transform="translate(908.447266 0)"/>
    <use xlink:href="#DejaVuSans-65" transform="translate(971.923828 0)"/>
    <use xlink:href="#DejaVuSans-72" transform="translate(1033.447266 0)"/>
    <use xlink:href="#DejaVuSans-69" transform="translate(1074.560547 0)"/>
    <use xlink:href="#DejaVuSans-76" transform="translate(1102.34375 0)"/>
    <use xlink:href="#DejaVuSans-61" transform="translate(1161.523438 0)"/>
    <use xlink:href="#DejaVuSans-20" transform="translate(1222.802734 0)"/>
    <use xlink:href="#DejaVuSans-64" transform="translate(1254.589844 0)"/>
    <use xlink:href="#DejaVuSans-61" transform="translate(1318.066406 0)"/>
    <use xlink:href="#DejaVuSans-6c" transform="translate(1379.345703 0)"/>
    <use xlink:href="#DejaVuSans-6c" transform="translate(1407.128906 0)"/>
    <use xlink:href="#DejaVuSans-61" transform="translate(1434.912109 0)"/>
    <use xlink:href="#DejaVuSans-20" transform="translate(1496.191406 0)"/>
    <use xlink:href="#DejaVuSans-63" transform="translate(1527.978516 0)"/>
    <use xlink:href="#DejaVuSans-6f" transform="translate(1582.958984 0)"/>
    <use xlink:href="#DejaVuSans-6d" transform="translate(1644.140625 0)"/>
    <use xlink:href="#DejaVuSans-62" transform="translate(1741.552734 0)"/>
    <use xlink:href="#DejaVuSans-69" transform="translate(1805.029297 0)"/>
    <use xlink:href="#DejaVuSans-6e" transform="translate(1832.8125 0)"/>
    <use xlink:href="#DejaVuSans-61" transform="translate(1896.191406 0)"/>
    <use xlink:href="#DejaVuSans-7a" transform="translate(1957.470703 0)"/>
    <use xlink:href="#DejaVuSans-69" transform="translate(2009.960938 0)"/>
    <use xlink:href="#DejaVuSans-6f" transform="translate(2037.744141 0)"/>
    <use xlink:href="#DejaVuSans-6e" transform="translate(2098.925781 0)"/>
    <use xlink:href="#DejaVuSans-65" transform="translate(2162.304688 0)"/>
    <use xlink:href="#DejaVuSans-20" transform="translate(2223.828125 0)"/>
    <use xlink:href="#DejaVuSans-64" transform="translate(2255.615234 0)"/>
    <use xlink:href="#DejaVuSans-65" transform="translate(2319.091797 0)"/>
    <use xlink:href="#DejaVuSans-69" transform="translate(2380.615234 0)"/>
    <use xlink:href="#DejaVuSans-20" transform="translate(2408.398438 0)"/>
    <use xlink:href="#DejaVuSans-70" transform="translate(2440.185547 0)"/>
    <use xlink:href="#DejaVuSans-72" transform="translate(2503.662109 0)"/>
    <use xlink:href="#DejaVuSans-69" transform="translate(2544.775391 0)"/>
    <use xlink:href="#DejaVuSans-6e" transform="translate(2572.558594 0)"/>
    <use xlink:href="#DejaVuSans-63" transform="translate(2635.9375 0)"/>
    <use xlink:href="#DejaVuSans-69" transform="translate(2690.917969 0)"/>
    <use xlink:href="#DejaVuSans-70" transform="translate(2718.701172 0)"/>
    <use xlink:href="#DejaVuSans-61" transform="translate(2782.177734 0)"/>
    <use xlink:href="#DejaVuSans-6c" transform="translate(2843.457031 0)"/>
    <use xlink:href="#DejaVuSans-69" transform="translate(2871.240234 0)"/>
    <use xlink:href="#DejaVuSans-20" transform="translate(2899.023438 0)"/>
    <use xlink:href="#DejaVuSans-6d" transform="translate(2930.810547 0)"/>
    <use xlink:href="#DejaVuSans-65" transform="translate(3028.222656 0)"/>
    <use xlink:href="#DejaVuSans-63" transform="translate(3089.746094 0)"/>
    <use xlink:href="#DejaVuSans-63" transform="translate(3144.726562 0)"/>
    <use xlink:href="#DejaVuSans-61" transform="translate(3199.707031 0)"/>
    <use xlink:href="#DejaVuSans-6e" transform="translate(3260.986328 0)"/>
    <use xlink:href="#DejaVuSans-69" transform="translate(3324.365234 0)"/>
    <use xlink:href="#DejaVuSans-73" transform="translate(3352.148438 0)"/>
    <use xlink:href="#DejaVuSans-6d" transform="translate(3404.248047 0)"/>
    <use xlink:href="#DejaVuSans-69" transform="translate(3501.660156 0)"/>
    <use xlink:href="#DejaVuSans-20" transform="translate(3529.443359 0)"/>
    <use xlink:href="#DejaVuSans-64" transform="translate(3561.230469 0)"/>
    <use xlink:href="#DejaVuSans-69" transform="translate(3624.707031 0)"/>
    <use xlink:href="#DejaVuSans-20" transform="translate(3652.490234 0)"/>
    <use xlink:href="#DejaVuSans-73" transform="translate(3684.277344 0)"/>
    <use xlink:href="#DejaVuSans-63" transform="translate(3736.376953 0)"/>
    <use xlink:href="#DejaVuSans-61" transform="translate(3791.357422 0)"/>
    <use xlink:href="#DejaVuSans-74" transform="translate(3852.636719 0)"/>
    <use xlink:href="#DejaVuSans-74" transform="translate(3891.845703 0)"/>
    <use xlink:href="#DejaVuSans-65" transform="translate(3931.054688 0)"/>
    <use xlink:href="#DejaVuSans-72" transform="translate(3992.578125 0)"/>
    <use xlink:href="#DejaVuSans-69" transform="translate(4033.691406 0)"/>
    <use xlink:href="#DejaVuSans-6e" transform="translate(4061.474609 0)"/>
    <use xlink:href="#DejaVuSans-67" transform="translate(4124.853516 0)"/>
    <use xlink:href="#DejaVuSans-20" transform="translate(4188.330078 0)"/>
    <use xlink:href="#DejaVuSans-73" transform="translate(4220.117188 0)"/>
    <use xlink:href="#DejaVuSans-65" transform="translate(4272.216797 0)"/>
    <use xlink:href="#DejaVuSans-63" transform="translate(4333.740234 0)"/>
    <use xlink:href="#DejaVuSans-6f" transform="translate(4388.720703 0)"/>
    <use xlink:href="#DejaVuSans-6e" transform="translate(4449.902344 0)"/>
    <use xlink:href="#DejaVuSans-64" transform="translate(4513.28125 0)"/>
    <use xlink:href="#DejaVuSans-6f" transform="translate(4576.757812 0)"/>
    <use xlink:href="#DejaVuSans-20" transform="translate(4637.939453 0)"/>
    <use xlink:href="#DejaVuSans-6c" transform="translate(4669.726562 0)"/>
    <use xlink:href="#DejaVuSans-61" transform="translate(4697.509766 0)"/>
    <use xlink:href="#DejaVuSans-20" transform="translate(4758.789062 0)"/>
    <use xlink:href="#DejaVuSans-72" transform="translate(4790.576172 0)"/>
    <use xlink:href="#DejaVuSans-65" transform="translate(4829.439453 0)"/>
    <use xlink:href="#DejaVuSans-67" transform="translate(4890.962891 0)"/>
    <use xlink:href="#DejaVuSans-6f" transform="translate(4954.439453 0)"/>
    <use xlink:href="#DejaVuSans-6c" transform="translate(5015.621094 0)"/>
    <use xlink:href="#DejaVuSans-61" transform="translate(5043.404297 0)"/>
    <use xlink:href="#DejaVuSans-20" transform="translate(5104.683594 0)"/>
    <use xlink:href="#DejaVuSans-64" transform="translate(5136.470703 0)"/>
    <use xlink:href="#DejaVuSans-69" transform="translate(5199.947266 0)"/>
    <use xlink:href="#DejaVuSans-20" transform="translate(5227.730469 0)"/>
    <use xlink:href="#DejaVuSans-4d" transform="translate(5259.517578 0)"/>
    <use xlink:href="#DejaVuSans-61" transform="translate(5345.796875 0)"/>
    <use xlink:href="#DejaVuSans-74" transform="translate(5407.076172 0)"/>
    <use xlink:href="#DejaVuSans-74" transform="translate(5446.285156 0)"/>
    <use xlink:href="#DejaVuSans-68" transform="translate(5485.494141 0)"/>
    <use xlink:href="#DejaVuSans-69" transform="translate(5548.873047 0)"/>
    <use xlink:href="#DejaVuSans-65" transform="translate(5576.65625 0)"/>
    <use xlink:href="#DejaVuSans-73" transform="translate(5638.179688 0)"/>
    <use xlink:href="#DejaVuSans-73" transform="translate(5690.279297 0)"/>
    <use xlink:href="#DejaVuSans-65" transform="translate(5742.378906 0)"/>
    <use xlink:href="#DejaVuSans-6e" transform="translate(5803.902344 0)"/>
    <use xlink:href="#DejaVuSans-2e" transform="translate(5867.28125 0)"/>
   </g>
  </g>
 </g>
 <defs>
  <clipPath id="pbb9dc96c7c">
   <rect x="46.3" y="31.197656" width="602.64" height="399.168"/>
  </clipPath>
 </defs>
</svg>
