<?xml version="1.0" encoding="utf-8" standalone="no"?>
<!DOCTYPE svg PUBLIC "-//W3C//DTD SVG 1.1//EN"
  "http://www.w3.org/Graphics/SVG/1.1/DTD/svg11.dtd">
<svg xmlns:xlink="http://www.w3.org/1999/xlink" width="631.923125pt" height="459.505656pt" viewBox="0 0 631.923125 459.505656" xmlns="http://www.w3.org/2000/svg" version="1.1">
 <metadata>
  <rdf:RDF xmlns:dc="http://purl.org/dc/elements/1.1/" xmlns:cc="http://creativecommons.org/ns#" xmlns:rdf="http://www.w3.org/1999/02/22-rdf-syntax-ns#">
   <cc:Work>
    <dc:type rdf:resource="http://purl.org/dc/dcmitype/StillImage"/>
    <dc:date>2026-06-16T12:38:22.182763</dc:date>
    <dc:format>image/svg+xml</dc:format>
    <dc:creator>
     <cc:Agent>
      <dc:title>Matplotlib v3.10.8, https://matplotlib.org/</dc:title>
     </cc:Agent>
    </dc:creator>
   </cc:Work>
  </rdf:RDF>
 </metadata>
 <defs>
  <style type="text/css">*{stroke-linejoin: round; stroke-linecap: butt}</style>
 </defs>
 <g id="figure_1">
  <g id="patch_1">
   <path d="M 0 459.505656 
L 631.923125 459.505656 
L 631.923125 0 
L 0 0 
z
" style="fill: #ffffff"/>
  </g>
  <g id="axes_1">
   <g id="patch_2">
    <path d="M 44.403125 407.589656 
L 624.723125 407.589656 
L 624.723125 30.597656 
L 44.403125 30.597656 
z
" style="fill: #ffffff"/>
   </g>
   <g id="matplotlib.axis_1">
    <g id="xtick_1">
     <g id="line2d_1">
      <path d="M 100.563125 407.589656 
L 100.563125 30.597656 
" clip-path="url(#pad916781dd)" style="fill: none; stroke: #b0b0b0; stroke-opacity: 0.15; stroke-width: 0.8; stroke-linecap: square"/>
     </g>
     <g id="line2d_2">
      <defs>
       <path id="m16d20938a4" d="M 0 0 
L 0 3.5 
" style="stroke: #000000; stroke-width: 0.8"/>
      </defs>
      <g>
       <use xlink:href="#m16d20938a4" x="100.563125" y="407.589656" style="stroke: #000000; stroke-width: 0.8"/>
      </g>
     </g>
     <g id="text_1">
      <!-- 0.35 -->
      <g transform="translate(89.430313 422.188094) scale(0.1 -0.1)">
       <defs>
        <path id="DejaVuSans-30" d="M 2034 4250 
Q 1547 4250 1301 3770 
Q 1056 3291 1056 2328 
Q 1056 1369 1301 889 
Q 1547 409 2034 409 
Q 2525 409 2770 889 
Q 3016 1369 3016 2328 
Q 3016 3291 2770 3770 
Q 2525 4250 2034 4250 
z
M 2034 4750 
Q 2819 4750 3233 4129 
Q 3647 3509 3647 2328 
Q 3647 1150 3233 529 
Q 2819 -91 2034 -91 
Q 1250 -91 836 529 
Q 422 1150 422 2328 
Q 422 3509 836 4129 
Q 1250 4750 2034 4750 
z
" transform="scale(0.015625)"/>
        <path id="DejaVuSans-2e" d="M 684 794 
L 1344 794 
L 1344 0 
L 684 0 
L 684 794 
z
" transform="scale(0.015625)"/>
        <path id="DejaVuSans-33" d="M 2597 2516 
Q 3050 2419 3304 2112 
Q 3559 1806 3559 1356 
Q 3559 666 3084 287 
Q 2609 -91 1734 -91 
Q 1441 -91 1130 -33 
Q 819 25 488 141 
L 488 750 
Q 750 597 1062 519 
Q 1375 441 1716 441 
Q 2309 441 2620 675 
Q 2931 909 2931 1356 
Q 2931 1769 2642 2001 
Q 2353 2234 1838 2234 
L 1294 2234 
L 1294 2753 
L 1863 2753 
Q 2328 2753 2575 2939 
Q 2822 3125 2822 3475 
Q 2822 3834 2567 4026 
Q 2313 4219 1838 4219 
Q 1578 4219 1281 4162 
Q 984 4106 628 3988 
L 628 4550 
Q 988 4650 1302 4700 
Q 1616 4750 1894 4750 
Q 2613 4750 3031 4423 
Q 3450 4097 3450 3541 
Q 3450 3153 3228 2886 
Q 3006 2619 2597 2516 
z
" transform="scale(0.015625)"/>
        <path id="DejaVuSans-35" d="M 691 4666 
L 3169 4666 
L 3169 4134 
L 1269 4134 
L 1269 2991 
Q 1406 3038 1543 3061 
Q 1681 3084 1819 3084 
Q 2600 3084 3056 2656 
Q 3513 2228 3513 1497 
Q 3513 744 3044 326 
Q 2575 -91 1722 -91 
Q 1428 -91 1123 -41 
Q 819 9 494 109 
L 494 744 
Q 775 591 1075 516 
Q 1375 441 1709 441 
Q 2250 441 2565 725 
Q 2881 1009 2881 1497 
Q 2881 1984 2565 2268 
Q 2250 2553 1709 2553 
Q 1456 2553 1204 2497 
Q 953 2441 691 2322 
L 691 4666 
z
" transform="scale(0.015625)"/>
       </defs>
       <use xlink:href="#DejaVuSans-30"/>
       <use xlink:href="#DejaVuSans-2e" transform="translate(63.623047 0)"/>
       <use xlink:href="#DejaVuSans-33" transform="translate(95.410156 0)"/>
       <use xlink:href="#DejaVuSans-35" transform="translate(159.033203 0)"/>
      </g>
     </g>
    </g>
    <g id="xtick_2">
     <g id="line2d_3">
      <path d="M 194.163125 407.589656 
L 194.163125 30.597656 
" clip-path="url(#pad916781dd)" style="fill: none; stroke: #b0b0b0; stroke-opacity: 0.15; stroke-width: 0.8; stroke-linecap: square"/>
     </g>
     <g id="line2d_4">
      <g>
       <use xlink:href="#m16d20938a4" x="194.163125" y="407.589656" style="stroke: #000000; stroke-width: 0.8"/>
      </g>
     </g>
     <g id="text_2">
      <!-- 0.40 -->
      <g transform="translate(183.030313 422.188094) scale(0.1 -0.1)">
       <defs>
        <path id="DejaVuSans-34" d="M 2419 4116 
L 825 1625 
L 2419 1625 
L 2419 4116 
z
M 2253 4666 
L 3047 4666 
L 3047 1625 
L 3713 1625 
L 3713 1100 
L 3047 1100 
L 3047 0 
L 2419 0 
L 2419 1100 
L 313 1100 
L 313 1709 
L 2253 4666 
z
" transform="scale(0.015625)"/>
       </defs>
       <use xlink:href="#DejaVuSans-30"/>
       <use xlink:href="#DejaVuSans-2e" transform="translate(63.623047 0)"/>
       <use xlink:href="#DejaVuSans-34" transform="translate(95.410156 0)"/>
       <use xlink:href="#DejaVuSans-30" transform="translate(159.033203 0)"/>
      </g>
     </g>
    </g>
    <g id="xtick_3">
     <g id="line2d_5">
      <path d="M 287.763125 407.589656 
L 287.763125 30.597656 
" clip-path="url(#pad916781dd)" style="fill: none; stroke: #b0b0b0; stroke-opacity: 0.15; stroke-width: 0.8; stroke-linecap: square"/>
     </g>
     <g id="line2d_6">
      <g>
       <use xlink:href="#m16d20938a4" x="287.763125" y="407.589656" style="stroke: #000000; stroke-width: 0.8"/>
      </g>
     </g>
     <g id="text_3">
      <!-- 0.45 -->
      <g transform="translate(276.630313 422.188094) scale(0.1 -0.1)">
       <use xlink:href="#DejaVuSans-30"/>
       <use xlink:href="#DejaVuSans-2e" transform="translate(63.623047 0)"/>
       <use xlink:href="#DejaVuSans-34" transform="translate(95.410156 0)"/>
       <use xlink:href="#DejaVuSans-35" transform="translate(159.033203 0)"/>
      </g>
     </g>
    </g>
    <g id="xtick_4">
     <g id="line2d_7">
      <path d="M 381.363125 407.589656 
L 381.363125 30.597656 
" clip-path="url(#pad916781dd)" style="fill: none; stroke: #b0b0b0; stroke-opacity: 0.15; stroke-width: 0.8; stroke-linecap: square"/>
     </g>
     <g id="line2d_8">
      <g>
       <use xlink:href="#m16d20938a4" x="381.363125" y="407.589656" style="stroke: #000000; stroke-width: 0.8"/>
      </g>
     </g>
     <g id="text_4">
      <!-- 0.50 -->
      <g transform="translate(370.230312 422.188094) scale(0.1 -0.1)">
       <use xlink:href="#DejaVuSans-30"/>
       <use xlink:href="#DejaVuSans-2e" transform="translate(63.623047 0)"/>
       <use xlink:href="#DejaVuSans-35" transform="translate(95.410156 0)"/>
       <use xlink:href="#DejaVuSans-30" transform="translate(159.033203 0)"/>
      </g>
     </g>
    </g>
    <g id="xtick_5">
     <g id="line2d_9">
      <path d="M 474.963125 407.589656 
L 474.963125 30.597656 
" clip-path="url(#pad916781dd)" style="fill: none; stroke: #b0b0b0; stroke-opacity: 0.15; stroke-width: 0.8; stroke-linecap: square"/>
     </g>
     <g id="line2d_10">
      <g>
       <use xlink:href="#m16d20938a4" x="474.963125" y="407.589656" style="stroke: #000000; stroke-width: 0.8"/>
      </g>
     </g>
     <g id="text_5">
      <!-- 0.55 -->
      <g transform="translate(463.830312 422.188094) scale(0.1 -0.1)">
       <use xlink:href="#DejaVuSans-30"/>
       <use xlink:href="#DejaVuSans-2e" transform="translate(63.623047 0)"/>
       <use xlink:href="#DejaVuSans-35" transform="translate(95.410156 0)"/>
       <use xlink:href="#DejaVuSans-35" transform="translate(159.033203 0)"/>
      </g>
     </g>
    </g>
    <g id="xtick_6">
     <g id="line2d_11">
      <path d="M 568.563125 407.589656 
L 568.563125 30.597656 
" clip-path="url(#pad916781dd)" style="fill: none; stroke: #b0b0b0; stroke-opacity: 0.15; stroke-width: 0.8; stroke-linecap: square"/>
     </g>
     <g id="line2d_12">
      <g>
       <use xlink:href="#m16d20938a4" x="568.563125" y="407.589656" style="stroke: #000000; stroke-width: 0.8"/>
      </g>
     </g>
     <g id="text_6">
      <!-- 0.60 -->
      <g transform="translate(557.430313 422.188094) scale(0.1 -0.1)">
       <defs>
        <path id="DejaVuSans-36" d="M 2113 2584 
Q 1688 2584 1439 2293 
Q 1191 2003 1191 1497 
Q 1191 994 1439 701 
Q 1688 409 2113 409 
Q 2538 409 2786 701 
Q 3034 994 3034 1497 
Q 3034 2003 2786 2293 
Q 2538 2584 2113 2584 
z
M 3366 4563 
L 3366 3988 
Q 3128 4100 2886 4159 
Q 2644 4219 2406 4219 
Q 1781 4219 1451 3797 
Q 1122 3375 1075 2522 
Q 1259 2794 1537 2939 
Q 1816 3084 2150 3084 
Q 2853 3084 3261 2657 
Q 3669 2231 3669 1497 
Q 3669 778 3244 343 
Q 2819 -91 2113 -91 
Q 1303 -91 875 529 
Q 447 1150 447 2328 
Q 447 3434 972 4092 
Q 1497 4750 2381 4750 
Q 2619 4750 2861 4703 
Q 3103 4656 3366 4563 
z
" transform="scale(0.015625)"/>
       </defs>
       <use xlink:href="#DejaVuSans-30"/>
       <use xlink:href="#DejaVuSans-2e" transform="translate(63.623047 0)"/>
       <use xlink:href="#DejaVuSans-36" transform="translate(95.410156 0)"/>
       <use xlink:href="#DejaVuSans-30" transform="translate(159.033203 0)"/>
      </g>
     </g>
    </g>
    <g id="text_7">
     <!-- energia dei fotoni assorbiti (eV) -->
     <g transform="translate(255.55375 435.866219) scale(0.1 -0.1)">
      <defs>
       <path id="DejaVuSans-65" d="M 3597 1894 
L 3597 1613 
L 953 1613 
Q 991 1019 1311 708 
Q 1631 397 2203 397 
Q 2534 397 2845 478 
Q 3156 559 3463 722 
L 3463 178 
Q 3153 47 2828 -22 
Q 2503 -91 2169 -91 
Q 1331 -91 842 396 
Q 353 884 353 1716 
Q 353 2575 817 3079 
Q 1281 3584 2069 3584 
Q 2775 3584 3186 3129 
Q 3597 2675 3597 1894 
z
M 3022 2063 
Q 3016 2534 2758 2815 
Q 2500 3097 2075 3097 
Q 1594 3097 1305 2825 
Q 1016 2553 972 2059 
L 3022 2063 
z
" transform="scale(0.015625)"/>
       <path id="DejaVuSans-6e" d="M 3513 2113 
L 3513 0 
L 2938 0 
L 2938 2094 
Q 2938 2591 2744 2837 
Q 2550 3084 2163 3084 
Q 1697 3084 1428 2787 
Q 1159 2491 1159 1978 
L 1159 0 
L 581 0 
L 581 3500 
L 1159 3500 
L 1159 2956 
Q 1366 3272 1645 3428 
Q 1925 3584 2291 3584 
Q 2894 3584 3203 3211 
Q 3513 2838 3513 2113 
z
" transform="scale(0.015625)"/>
       <path id="DejaVuSans-72" d="M 2631 2963 
Q 2534 3019 2420 3045 
Q 2306 3072 2169 3072 
Q 1681 3072 1420 2755 
Q 1159 2438 1159 1844 
L 1159 0 
L 581 0 
L 581 3500 
L 1159 3500 
L 1159 2956 
Q 1341 3275 1631 3429 
Q 1922 3584 2338 3584 
Q 2397 3584 2469 3576 
Q 2541 3569 2628 3553 
L 2631 2963 
z
" transform="scale(0.015625)"/>
       <path id="DejaVuSans-67" d="M 2906 1791 
Q 2906 2416 2648 2759 
Q 2391 3103 1925 3103 
Q 1463 3103 1205 2759 
Q 947 2416 947 1791 
Q 947 1169 1205 825 
Q 1463 481 1925 481 
Q 2391 481 2648 825 
Q 2906 1169 2906 1791 
z
M 3481 434 
Q 3481 -459 3084 -895 
Q 2688 -1331 1869 -1331 
Q 1566 -1331 1297 -1286 
Q 1028 -1241 775 -1147 
L 775 -588 
Q 1028 -725 1275 -790 
Q 1522 -856 1778 -856 
Q 2344 -856 2625 -561 
Q 2906 -266 2906 331 
L 2906 616 
Q 2728 306 2450 153 
Q 2172 0 1784 0 
Q 1141 0 747 490 
Q 353 981 353 1791 
Q 353 2603 747 3093 
Q 1141 3584 1784 3584 
Q 2172 3584 2450 3431 
Q 2728 3278 2906 2969 
L 2906 3500 
L 3481 3500 
L 3481 434 
z
" transform="scale(0.015625)"/>
       <path id="DejaVuSans-69" d="M 603 3500 
L 1178 3500 
L 1178 0 
L 603 0 
L 603 3500 
z
M 603 4863 
L 1178 4863 
L 1178 4134 
L 603 4134 
L 603 4863 
z
" transform="scale(0.015625)"/>
       <path id="DejaVuSans-61" d="M 2194 1759 
Q 1497 1759 1228 1600 
Q 959 1441 959 1056 
Q 959 750 1161 570 
Q 1363 391 1709 391 
Q 2188 391 2477 730 
Q 2766 1069 2766 1631 
L 2766 1759 
L 2194 1759 
z
M 3341 1997 
L 3341 0 
L 2766 0 
L 2766 531 
Q 2569 213 2275 61 
Q 1981 -91 1556 -91 
Q 1019 -91 701 211 
Q 384 513 384 1019 
Q 384 1609 779 1909 
Q 1175 2209 1959 2209 
L 2766 2209 
L 2766 2266 
Q 2766 2663 2505 2880 
Q 2244 3097 1772 3097 
Q 1472 3097 1187 3025 
Q 903 2953 641 2809 
L 641 3341 
Q 956 3463 1253 3523 
Q 1550 3584 1831 3584 
Q 2591 3584 2966 3190 
Q 3341 2797 3341 1997 
z
" transform="scale(0.015625)"/>
       <path id="DejaVuSans-20" transform="scale(0.015625)"/>
       <path id="DejaVuSans-64" d="M 2906 2969 
L 2906 4863 
L 3481 4863 
L 3481 0 
L 2906 0 
L 2906 525 
Q 2725 213 2448 61 
Q 2172 -91 1784 -91 
Q 1150 -91 751 415 
Q 353 922 353 1747 
Q 353 2572 751 3078 
Q 1150 3584 1784 3584 
Q 2172 3584 2448 3432 
Q 2725 3281 2906 2969 
z
M 947 1747 
Q 947 1113 1208 752 
Q 1469 391 1925 391 
Q 2381 391 2643 752 
Q 2906 1113 2906 1747 
Q 2906 2381 2643 2742 
Q 2381 3103 1925 3103 
Q 1469 3103 1208 2742 
Q 947 2381 947 1747 
z
" transform="scale(0.015625)"/>
       <path id="DejaVuSans-66" d="M 2375 4863 
L 2375 4384 
L 1825 4384 
Q 1516 4384 1395 4259 
Q 1275 4134 1275 3809 
L 1275 3500 
L 2222 3500 
L 2222 3053 
L 1275 3053 
L 1275 0 
L 697 0 
L 697 3053 
L 147 3053 
L 147 3500 
L 697 3500 
L 697 3744 
Q 697 4328 969 4595 
Q 1241 4863 1831 4863 
L 2375 4863 
z
" transform="scale(0.015625)"/>
       <path id="DejaVuSans-6f" d="M 1959 3097 
Q 1497 3097 1228 2736 
Q 959 2375 959 1747 
Q 959 1119 1226 758 
Q 1494 397 1959 397 
Q 2419 397 2687 759 
Q 2956 1122 2956 1747 
Q 2956 2369 2687 2733 
Q 2419 3097 1959 3097 
z
M 1959 3584 
Q 2709 3584 3137 3096 
Q 3566 2609 3566 1747 
Q 3566 888 3137 398 
Q 2709 -91 1959 -91 
Q 1206 -91 779 398 
Q 353 888 353 1747 
Q 353 2609 779 3096 
Q 1206 3584 1959 3584 
z
" transform="scale(0.015625)"/>
       <path id="DejaVuSans-74" d="M 1172 4494 
L 1172 3500 
L 2356 3500 
L 2356 3053 
L 1172 3053 
L 1172 1153 
Q 1172 725 1289 603 
Q 1406 481 1766 481 
L 2356 481 
L 2356 0 
L 1766 0 
Q 1100 0 847 248 
Q 594 497 594 1153 
L 594 3053 
L 172 3053 
L 172 3500 
L 594 3500 
L 594 4494 
L 1172 4494 
z
" transform="scale(0.015625)"/>
       <path id="DejaVuSans-73" d="M 2834 3397 
L 2834 2853 
Q 2591 2978 2328 3040 
Q 2066 3103 1784 3103 
Q 1356 3103 1142 2972 
Q 928 2841 928 2578 
Q 928 2378 1081 2264 
Q 1234 2150 1697 2047 
L 1894 2003 
Q 2506 1872 2764 1633 
Q 3022 1394 3022 966 
Q 3022 478 2636 193 
Q 2250 -91 1575 -91 
Q 1294 -91 989 -36 
Q 684 19 347 128 
L 347 722 
Q 666 556 975 473 
Q 1284 391 1588 391 
Q 1994 391 2212 530 
Q 2431 669 2431 922 
Q 2431 1156 2273 1281 
Q 2116 1406 1581 1522 
L 1381 1569 
Q 847 1681 609 1914 
Q 372 2147 372 2553 
Q 372 3047 722 3315 
Q 1072 3584 1716 3584 
Q 2034 3584 2315 3537 
Q 2597 3491 2834 3397 
z
" transform="scale(0.015625)"/>
       <path id="DejaVuSans-62" d="M 3116 1747 
Q 3116 2381 2855 2742 
Q 2594 3103 2138 3103 
Q 1681 3103 1420 2742 
Q 1159 2381 1159 1747 
Q 1159 1113 1420 752 
Q 1681 391 2138 391 
Q 2594 391 2855 752 
Q 3116 1113 3116 1747 
z
M 1159 2969 
Q 1341 3281 1617 3432 
Q 1894 3584 2278 3584 
Q 2916 3584 3314 3078 
Q 3713 2572 3713 1747 
Q 3713 922 3314 415 
Q 2916 -91 2278 -91 
Q 1894 -91 1617 61 
Q 1341 213 1159 525 
L 1159 0 
L 581 0 
L 581 4863 
L 1159 4863 
L 1159 2969 
z
" transform="scale(0.015625)"/>
       <path id="DejaVuSans-28" d="M 1984 4856 
Q 1566 4138 1362 3434 
Q 1159 2731 1159 2009 
Q 1159 1288 1364 580 
Q 1569 -128 1984 -844 
L 1484 -844 
Q 1016 -109 783 600 
Q 550 1309 550 2009 
Q 550 2706 781 3412 
Q 1013 4119 1484 4856 
L 1984 4856 
z
" transform="scale(0.015625)"/>
       <path id="DejaVuSans-56" d="M 1831 0 
L 50 4666 
L 709 4666 
L 2188 738 
L 3669 4666 
L 4325 4666 
L 2547 0 
L 1831 0 
z
" transform="scale(0.015625)"/>
       <path id="DejaVuSans-29" d="M 513 4856 
L 1013 4856 
Q 1481 4119 1714 3412 
Q 1947 2706 1947 2009 
Q 1947 1309 1714 600 
Q 1481 -109 1013 -844 
L 513 -844 
Q 928 -128 1133 580 
Q 1338 1288 1338 2009 
Q 1338 2731 1133 3434 
Q 928 4138 513 4856 
z
" transform="scale(0.015625)"/>
      </defs>
      <use xlink:href="#DejaVuSans-65"/>
      <use xlink:href="#DejaVuSans-6e" transform="translate(61.523438 0)"/>
      <use xlink:href="#DejaVuSans-65" transform="translate(124.902344 0)"/>
      <use xlink:href="#DejaVuSans-72" transform="translate(186.425781 0)"/>
      <use xlink:href="#DejaVuSans-67" transform="translate(225.789062 0)"/>
      <use xlink:href="#DejaVuSans-69" transform="translate(289.265625 0)"/>
      <use xlink:href="#DejaVuSans-61" transform="translate(317.048828 0)"/>
      <use xlink:href="#DejaVuSans-20" transform="translate(378.328125 0)"/>
      <use xlink:href="#DejaVuSans-64" transform="translate(410.115234 0)"/>
      <use xlink:href="#DejaVuSans-65" transform="translate(473.591797 0)"/>
      <use xlink:href="#DejaVuSans-69" transform="translate(535.115234 0)"/>
      <use xlink:href="#DejaVuSans-20" transform="translate(562.898438 0)"/>
      <use xlink:href="#DejaVuSans-66" transform="translate(594.685547 0)"/>
      <use xlink:href="#DejaVuSans-6f" transform="translate(629.890625 0)"/>
      <use xlink:href="#DejaVuSans-74" transform="translate(691.072266 0)"/>
      <use xlink:href="#DejaVuSans-6f" transform="translate(730.28125 0)"/>
      <use xlink:href="#DejaVuSans-6e" transform="translate(791.462891 0)"/>
      <use xlink:href="#DejaVuSans-69" transform="translate(854.841797 0)"/>
      <use xlink:href="#DejaVuSans-20" transform="translate(882.625 0)"/>
      <use xlink:href="#DejaVuSans-61" transform="translate(914.412109 0)"/>
      <use xlink:href="#DejaVuSans-73" transform="translate(975.691406 0)"/>
      <use xlink:href="#DejaVuSans-73" transform="translate(1027.791016 0)"/>
      <use xlink:href="#DejaVuSans-6f" transform="translate(1079.890625 0)"/>
      <use xlink:href="#DejaVuSans-72" transform="translate(1141.072266 0)"/>
      <use xlink:href="#DejaVuSans-62" transform="translate(1182.185547 0)"/>
      <use xlink:href="#DejaVuSans-69" transform="translate(1245.662109 0)"/>
      <use xlink:href="#DejaVuSans-74" transform="translate(1273.445312 0)"/>
      <use xlink:href="#DejaVuSans-69" transform="translate(1312.654297 0)"/>
      <use xlink:href="#DejaVuSans-20" transform="translate(1340.4375 0)"/>
      <use xlink:href="#DejaVuSans-28" transform="translate(1372.224609 0)"/>
      <use xlink:href="#DejaVuSans-65" transform="translate(1411.238281 0)"/>
      <use xlink:href="#DejaVuSans-56" transform="translate(1472.761719 0)"/>
      <use xlink:href="#DejaVuSans-29" transform="translate(1541.169922 0)"/>
     </g>
    </g>
   </g>
   <g id="matplotlib.axis_2">
    <g id="ytick_1">
     <g id="line2d_13">
      <path d="M 44.403125 391.881656 
L 624.723125 391.881656 
" clip-path="url(#pad916781dd)" style="fill: none; stroke: #b0b0b0; stroke-opacity: 0.15; stroke-width: 0.8; stroke-linecap: square"/>
     </g>
     <g id="line2d_14">
      <defs>
       <path id="m0f4367e583" d="M 0 0 
L -3.5 0 
" style="stroke: #000000; stroke-width: 0.8"/>
      </defs>
      <g>
       <use xlink:href="#m0f4367e583" x="44.403125" y="391.881656" style="stroke: #000000; stroke-width: 0.8"/>
      </g>
     </g>
     <g id="text_8">
      <!-- 0.0 -->
      <g transform="translate(21.5 395.680875) scale(0.1 -0.1)">
       <use xlink:href="#DejaVuSans-30"/>
       <use xlink:href="#DejaVuSans-2e" transform="translate(63.623047 0)"/>
       <use xlink:href="#DejaVuSans-30" transform="translate(95.410156 0)"/>
      </g>
     </g>
    </g>
    <g id="ytick_2">
     <g id="line2d_15">
      <path d="M 44.403125 329.049656 
L 624.723125 329.049656 
" clip-path="url(#pad916781dd)" style="fill: none; stroke: #b0b0b0; stroke-opacity: 0.15; stroke-width: 0.8; stroke-linecap: square"/>
     </g>
     <g id="line2d_16">
      <g>
       <use xlink:href="#m0f4367e583" x="44.403125" y="329.049656" style="stroke: #000000; stroke-width: 0.8"/>
      </g>
     </g>
     <g id="text_9">
      <!-- 0.2 -->
      <g transform="translate(21.5 332.848875) scale(0.1 -0.1)">
       <defs>
        <path id="DejaVuSans-32" d="M 1228 531 
L 3431 531 
L 3431 0 
L 469 0 
L 469 531 
Q 828 903 1448 1529 
Q 2069 2156 2228 2338 
Q 2531 2678 2651 2914 
Q 2772 3150 2772 3378 
Q 2772 3750 2511 3984 
Q 2250 4219 1831 4219 
Q 1534 4219 1204 4116 
Q 875 4013 500 3803 
L 500 4441 
Q 881 4594 1212 4672 
Q 1544 4750 1819 4750 
Q 2544 4750 2975 4387 
Q 3406 4025 3406 3419 
Q 3406 3131 3298 2873 
Q 3191 2616 2906 2266 
Q 2828 2175 2409 1742 
Q 1991 1309 1228 531 
z
" transform="scale(0.015625)"/>
       </defs>
       <use xlink:href="#DejaVuSans-30"/>
       <use xlink:href="#DejaVuSans-2e" transform="translate(63.623047 0)"/>
       <use xlink:href="#DejaVuSans-32" transform="translate(95.410156 0)"/>
      </g>
     </g>
    </g>
    <g id="ytick_3">
     <g id="line2d_17">
      <path d="M 44.403125 266.217656 
L 624.723125 266.217656 
" clip-path="url(#pad916781dd)" style="fill: none; stroke: #b0b0b0; stroke-opacity: 0.15; stroke-width: 0.8; stroke-linecap: square"/>
     </g>
     <g id="line2d_18">
      <g>
       <use xlink:href="#m0f4367e583" x="44.403125" y="266.217656" style="stroke: #000000; stroke-width: 0.8"/>
      </g>
     </g>
     <g id="text_10">
      <!-- 0.4 -->
      <g transform="translate(21.5 270.016875) scale(0.1 -0.1)">
       <use xlink:href="#DejaVuSans-30"/>
       <use xlink:href="#DejaVuSans-2e" transform="translate(63.623047 0)"/>
       <use xlink:href="#DejaVuSans-34" transform="translate(95.410156 0)"/>
      </g>
     </g>
    </g>
    <g id="ytick_4">
     <g id="line2d_19">
      <path d="M 44.403125 203.385656 
L 624.723125 203.385656 
" clip-path="url(#pad916781dd)" style="fill: none; stroke: #b0b0b0; stroke-opacity: 0.15; stroke-width: 0.8; stroke-linecap: square"/>
     </g>
     <g id="line2d_20">
      <g>
       <use xlink:href="#m0f4367e583" x="44.403125" y="203.385656" style="stroke: #000000; stroke-width: 0.8"/>
      </g>
     </g>
     <g id="text_11">
      <!-- 0.6 -->
      <g transform="translate(21.5 207.184875) scale(0.1 -0.1)">
       <use xlink:href="#DejaVuSans-30"/>
       <use xlink:href="#DejaVuSans-2e" transform="translate(63.623047 0)"/>
       <use xlink:href="#DejaVuSans-36" transform="translate(95.410156 0)"/>
      </g>
     </g>
    </g>
    <g id="ytick_5">
     <g id="line2d_21">
      <path d="M 44.403125 140.553656 
L 624.723125 140.553656 
" clip-path="url(#pad916781dd)" style="fill: none; stroke: #b0b0b0; stroke-opacity: 0.15; stroke-width: 0.8; stroke-linecap: square"/>
     </g>
     <g id="line2d_22">
      <g>
       <use xlink:href="#m0f4367e583" x="44.403125" y="140.553656" style="stroke: #000000; stroke-width: 0.8"/>
      </g>
     </g>
     <g id="text_12">
      <!-- 0.8 -->
      <g transform="translate(21.5 144.352875) scale(0.1 -0.1)">
       <defs>
        <path id="DejaVuSans-38" d="M 2034 2216 
Q 1584 2216 1326 1975 
Q 1069 1734 1069 1313 
Q 1069 891 1326 650 
Q 1584 409 2034 409 
Q 2484 409 2743 651 
Q 3003 894 3003 1313 
Q 3003 1734 2745 1975 
Q 2488 2216 2034 2216 
z
M 1403 2484 
Q 997 2584 770 2862 
Q 544 3141 544 3541 
Q 544 4100 942 4425 
Q 1341 4750 2034 4750 
Q 2731 4750 3128 4425 
Q 3525 4100 3525 3541 
Q 3525 3141 3298 2862 
Q 3072 2584 2669 2484 
Q 3125 2378 3379 2068 
Q 3634 1759 3634 1313 
Q 3634 634 3220 271 
Q 2806 -91 2034 -91 
Q 1263 -91 848 271 
Q 434 634 434 1313 
Q 434 1759 690 2068 
Q 947 2378 1403 2484 
z
M 1172 3481 
Q 1172 3119 1398 2916 
Q 1625 2713 2034 2713 
Q 2441 2713 2670 2916 
Q 2900 3119 2900 3481 
Q 2900 3844 2670 4047 
Q 2441 4250 2034 4250 
Q 1625 4250 1398 4047 
Q 1172 3844 1172 3481 
z
" transform="scale(0.015625)"/>
       </defs>
       <use xlink:href="#DejaVuSans-30"/>
       <use xlink:href="#DejaVuSans-2e" transform="translate(63.623047 0)"/>
       <use xlink:href="#DejaVuSans-38" transform="translate(95.410156 0)"/>
      </g>
     </g>
    </g>
    <g id="ytick_6">
     <g id="line2d_23">
      <path d="M 44.403125 77.721656 
L 624.723125 77.721656 
" clip-path="url(#pad916781dd)" style="fill: none; stroke: #b0b0b0; stroke-opacity: 0.15; stroke-width: 0.8; stroke-linecap: square"/>
     </g>
     <g id="line2d_24">
      <g>
       <use xlink:href="#m0f4367e583" x="44.403125" y="77.721656" style="stroke: #000000; stroke-width: 0.8"/>
      </g>
     </g>
     <g id="text_13">
      <!-- 1.0 -->
      <g transform="translate(21.5 81.520875) scale(0.1 -0.1)">
       <defs>
        <path id="DejaVuSans-31" d="M 794 531 
L 1825 531 
L 1825 4091 
L 703 3866 
L 703 4441 
L 1819 4666 
L 2450 4666 
L 2450 531 
L 3481 531 
L 3481 0 
L 794 0 
L 794 531 
z
" transform="scale(0.015625)"/>
       </defs>
       <use xlink:href="#DejaVuSans-31"/>
       <use xlink:href="#DejaVuSans-2e" transform="translate(63.623047 0)"/>
       <use xlink:href="#DejaVuSans-30" transform="translate(95.410156 0)"/>
      </g>
     </g>
    </g>
    <g id="text_14">
     <!-- $\alpha^2$, unità arbitrarie -->
     <g transform="translate(15.420313 265.793656) rotate(-90) scale(0.1 -0.1)">
      <defs>
       <path id="DejaVuSans-Oblique-3b1" d="M 2619 1628 
L 2622 2350 
Q 2625 3088 2069 3091 
Q 1653 3094 1394 2747 
Q 1069 2319 959 1747 
Q 825 1059 994 731 
Q 1169 397 1547 397 
Q 1966 397 2319 1063 
L 2619 1628 
z
M 2166 3578 
Q 3141 3594 3128 2584 
Q 3128 2584 3616 3500 
L 4128 3500 
L 3119 1603 
L 3109 919 
Q 3109 766 3194 638 
Q 3291 488 3391 488 
L 3669 488 
L 3575 0 
L 3228 0 
Q 2934 0 2722 263 
Q 2622 394 2619 669 
Q 2416 334 2066 50 
Q 1900 -81 1453 -78 
Q 722 -72 456 397 
Q 184 884 353 1747 
Q 534 2675 1009 3097 
Q 1544 3569 2166 3578 
z
" transform="scale(0.015625)"/>
       <path id="DejaVuSans-2c" d="M 750 794 
L 1409 794 
L 1409 256 
L 897 -744 
L 494 -744 
L 750 256 
L 750 794 
z
" transform="scale(0.015625)"/>
       <path id="DejaVuSans-75" d="M 544 1381 
L 544 3500 
L 1119 3500 
L 1119 1403 
Q 1119 906 1312 657 
Q 1506 409 1894 409 
Q 2359 409 2629 706 
Q 2900 1003 2900 1516 
L 2900 3500 
L 3475 3500 
L 3475 0 
L 2900 0 
L 2900 538 
Q 2691 219 2414 64 
Q 2138 -91 1772 -91 
Q 1169 -91 856 284 
Q 544 659 544 1381 
z
M 1991 3584 
L 1991 3584 
z
" transform="scale(0.015625)"/>
       <path id="DejaVuSans-e0" d="M 2194 1759 
Q 1497 1759 1228 1600 
Q 959 1441 959 1056 
Q 959 750 1161 570 
Q 1363 391 1709 391 
Q 2188 391 2477 730 
Q 2766 1069 2766 1631 
L 2766 1759 
L 2194 1759 
z
M 3341 1997 
L 3341 0 
L 2766 0 
L 2766 531 
Q 2569 213 2275 61 
Q 1981 -91 1556 -91 
Q 1019 -91 701 211 
Q 384 513 384 1019 
Q 384 1609 779 1909 
Q 1175 2209 1959 2209 
L 2766 2209 
L 2766 2266 
Q 2766 2663 2505 2880 
Q 2244 3097 1772 3097 
Q 1472 3097 1187 3025 
Q 903 2953 641 2809 
L 641 3341 
Q 956 3463 1253 3523 
Q 1550 3584 1831 3584 
Q 2591 3584 2966 3190 
Q 3341 2797 3341 1997 
z
M 1403 5119 
L 2284 3950 
L 1806 3950 
L 787 5119 
L 1403 5119 
z
" transform="scale(0.015625)"/>
      </defs>
      <use xlink:href="#DejaVuSans-Oblique-3b1" transform="translate(0 0.765625)"/>
      <use xlink:href="#DejaVuSans-32" transform="translate(70.58974 39.046875) scale(0.7)"/>
      <use xlink:href="#DejaVuSans-2c" transform="translate(117.860247 0.765625)"/>
      <use xlink:href="#DejaVuSans-20" transform="translate(149.647357 0.765625)"/>
      <use xlink:href="#DejaVuSans-75" transform="translate(181.434466 0.765625)"/>
      <use xlink:href="#DejaVuSans-6e" transform="translate(244.813372 0.765625)"/>
      <use xlink:href="#DejaVuSans-69" transform="translate(308.192279 0.765625)"/>
      <use xlink:href="#DejaVuSans-74" transform="translate(335.975482 0.765625)"/>
      <use xlink:href="#DejaVuSans-e0" transform="translate(375.184466 0.765625)"/>
      <use xlink:href="#DejaVuSans-20" transform="translate(436.463763 0.765625)"/>
      <use xlink:href="#DejaVuSans-61" transform="translate(468.250872 0.765625)"/>
      <use xlink:href="#DejaVuSans-72" transform="translate(529.530169 0.765625)"/>
      <use xlink:href="#DejaVuSans-62" transform="translate(570.643451 0.765625)"/>
      <use xlink:href="#DejaVuSans-69" transform="translate(634.120013 0.765625)"/>
      <use xlink:href="#DejaVuSans-74" transform="translate(661.903216 0.765625)"/>
      <use xlink:href="#DejaVuSans-72" transform="translate(701.112201 0.765625)"/>
      <use xlink:href="#DejaVuSans-61" transform="translate(742.225482 0.765625)"/>
      <use xlink:href="#DejaVuSans-72" transform="translate(803.504779 0.765625)"/>
      <use xlink:href="#DejaVuSans-69" transform="translate(844.61806 0.765625)"/>
      <use xlink:href="#DejaVuSans-65" transform="translate(872.401263 0.765625)"/>
     </g>
    </g>
   </g>
   <g id="line2d_25">
    <path d="M 63.123125 417.642776 
L 606.003125 44.106536 
L 606.003125 44.106536 
" clip-path="url(#pad916781dd)" style="fill: none; stroke-dasharray: 8.14,3.52; stroke-dashoffset: 0; stroke: #1f77b4; stroke-width: 2.2"/>
   </g>
   <g id="line2d_26">
    <path d="M 100.563125 407.589656 
L 100.563125 30.597656 
" clip-path="url(#pad916781dd)" style="fill: none; stroke-dasharray: 1,1.65; stroke-dashoffset: 0; stroke: #1f77b4"/>
   </g>
   <g id="patch_3">
    <path d="M 44.403125 407.589656 
L 44.403125 30.597656 
" style="fill: none; stroke: #000000; stroke-width: 0.8; stroke-linejoin: miter; stroke-linecap: square"/>
   </g>
   <g id="patch_4">
    <path d="M 624.723125 407.589656 
L 624.723125 30.597656 
" style="fill: none; stroke: #000000; stroke-width: 0.8; stroke-linejoin: miter; stroke-linecap: square"/>
   </g>
   <g id="patch_5">
    <path d="M 44.403125 407.589656 
L 624.723125 407.589656 
" style="fill: none; stroke: #000000; stroke-width: 0.8; stroke-linejoin: miter; stroke-linecap: square"/>
   </g>
   <g id="patch_6">
    <path d="M 44.403125 30.597656 
L 624.723125 30.597656 
" style="fill: none; stroke: #000000; stroke-width: 0.8; stroke-linejoin: miter; stroke-linecap: square"/>
   </g>
   <g id="patch_7">
    <path d="M 201.658287 294.694442 
Q 151.831096 342.595507 102.729299 389.799219 
" style="fill: none; stroke: #000000; stroke-width: 0.9; stroke-linecap: round"/>
    <path d="M 106.998983 388.468882 
L 102.729299 389.799219 
L 104.22684 385.585269 
z
" style="fill: #1f77b4; stroke: #000000; stroke-width: 0.9; stroke-linecap: round"/>
   </g>
   <g id="text_15">
    <!-- $E_{\rm gap}=0.35$ eV -->
    <g transform="translate(175.443125 288.208856) scale(0.1 -0.1)">
     <defs>
      <path id="DejaVuSans-Oblique-45" d="M 1081 4666 
L 4031 4666 
L 3928 4134 
L 1606 4134 
L 1338 2753 
L 3566 2753 
L 3463 2222 
L 1234 2222 
L 909 531 
L 3284 531 
L 3181 0 
L 172 0 
L 1081 4666 
z
" transform="scale(0.015625)"/>
      <path id="DejaVuSans-70" d="M 1159 525 
L 1159 -1331 
L 581 -1331 
L 581 3500 
L 1159 3500 
L 1159 2969 
Q 1341 3281 1617 3432 
Q 1894 3584 2278 3584 
Q 2916 3584 3314 3078 
Q 3713 2572 3713 1747 
Q 3713 922 3314 415 
Q 2916 -91 2278 -91 
Q 1894 -91 1617 61 
Q 1341 213 1159 525 
z
M 3116 1747 
Q 3116 2381 2855 2742 
Q 2594 3103 2138 3103 
Q 1681 3103 1420 2742 
Q 1159 2381 1159 1747 
Q 1159 1113 1420 752 
Q 1681 391 2138 391 
Q 2594 391 2855 752 
Q 3116 1113 3116 1747 
z
" transform="scale(0.015625)"/>
      <path id="DejaVuSans-3d" d="M 678 2906 
L 4684 2906 
L 4684 2381 
L 678 2381 
L 678 2906 
z
M 678 1631 
L 4684 1631 
L 4684 1100 
L 678 1100 
L 678 1631 
z
" transform="scale(0.015625)"/>
     </defs>
     <use xlink:href="#DejaVuSans-Oblique-45" transform="translate(0 0.78125)"/>
     <use xlink:href="#DejaVuSans-67" transform="translate(63.183594 -15.625) scale(0.7)"/>
     <use xlink:href="#DejaVuSans-61" transform="translate(107.617188 -15.625) scale(0.7)"/>
     <use xlink:href="#DejaVuSans-70" transform="translate(150.512695 -15.625) scale(0.7)"/>
     <use xlink:href="#DejaVuSans-3d" transform="translate(217.163086 0.78125)"/>
     <use xlink:href="#DejaVuSans-30" transform="translate(320.43457 0.78125)"/>
     <use xlink:href="#DejaVuSans-2e" transform="translate(384.057617 0.78125)"/>
     <use xlink:href="#DejaVuSans-33" transform="translate(415.844727 0.78125)"/>
     <use xlink:href="#DejaVuSans-35" transform="translate(479.467773 0.78125)"/>
     <use xlink:href="#DejaVuSans-20" transform="translate(543.09082 0.78125)"/>
     <use xlink:href="#DejaVuSans-65" transform="translate(574.87793 0.78125)"/>
     <use xlink:href="#DejaVuSans-56" transform="translate(636.401367 0.78125)"/>
    </g>
   </g>
   <g id="text_16">
    <!-- InAs -->
    <g transform="translate(53.763125 99.712856) scale(0.12 -0.12)">
     <defs>
      <path id="DejaVuSans-Bold-49" d="M 588 4666 
L 1791 4666 
L 1791 0 
L 588 0 
L 588 4666 
z
" transform="scale(0.015625)"/>
      <path id="DejaVuSans-Bold-6e" d="M 4056 2131 
L 4056 0 
L 2931 0 
L 2931 347 
L 2931 1631 
Q 2931 2084 2911 2256 
Q 2891 2428 2841 2509 
Q 2775 2619 2662 2680 
Q 2550 2741 2406 2741 
Q 2056 2741 1856 2470 
Q 1656 2200 1656 1722 
L 1656 0 
L 538 0 
L 538 3500 
L 1656 3500 
L 1656 2988 
Q 1909 3294 2193 3439 
Q 2478 3584 2822 3584 
Q 3428 3584 3742 3212 
Q 4056 2841 4056 2131 
z
" transform="scale(0.015625)"/>
      <path id="DejaVuSans-Bold-41" d="M 3419 850 
L 1538 850 
L 1241 0 
L 31 0 
L 1759 4666 
L 3194 4666 
L 4922 0 
L 3713 0 
L 3419 850 
z
M 1838 1716 
L 3116 1716 
L 2478 3572 
L 1838 1716 
z
" transform="scale(0.015625)"/>
      <path id="DejaVuSans-Bold-73" d="M 3272 3391 
L 3272 2541 
Q 2913 2691 2578 2766 
Q 2244 2841 1947 2841 
Q 1628 2841 1473 2761 
Q 1319 2681 1319 2516 
Q 1319 2381 1436 2309 
Q 1553 2238 1856 2203 
L 2053 2175 
Q 2913 2066 3209 1816 
Q 3506 1566 3506 1031 
Q 3506 472 3093 190 
Q 2681 -91 1863 -91 
Q 1516 -91 1145 -36 
Q 775 19 384 128 
L 384 978 
Q 719 816 1070 734 
Q 1422 653 1784 653 
Q 2113 653 2278 743 
Q 2444 834 2444 1013 
Q 2444 1163 2330 1236 
Q 2216 1309 1875 1350 
L 1678 1375 
Q 931 1469 631 1722 
Q 331 1975 331 2491 
Q 331 3047 712 3315 
Q 1094 3584 1881 3584 
Q 2191 3584 2531 3537 
Q 2872 3491 3272 3391 
z
" transform="scale(0.015625)"/>
     </defs>
     <use xlink:href="#DejaVuSans-Bold-49"/>
     <use xlink:href="#DejaVuSans-Bold-6e" transform="translate(37.207031 0)"/>
     <use xlink:href="#DejaVuSans-Bold-41" transform="translate(108.398438 0)"/>
     <use xlink:href="#DejaVuSans-Bold-73" transform="translate(185.791016 0)"/>
    </g>
   </g>
   <g id="text_17">
    <!-- Stima del gap diretto di InAs tramite l'assorbimento ottico -->
    <g transform="translate(86.513516 18.597656) scale(0.15 -0.15)">
     <defs>
      <path id="DejaVuSans-Bold-53" d="M 3834 4519 
L 3834 3531 
Q 3450 3703 3084 3790 
Q 2719 3878 2394 3878 
Q 1963 3878 1756 3759 
Q 1550 3641 1550 3391 
Q 1550 3203 1689 3098 
Q 1828 2994 2194 2919 
L 2706 2816 
Q 3484 2659 3812 2340 
Q 4141 2022 4141 1434 
Q 4141 663 3683 286 
Q 3225 -91 2284 -91 
Q 1841 -91 1394 -6 
Q 947 78 500 244 
L 500 1259 
Q 947 1022 1364 901 
Q 1781 781 2169 781 
Q 2563 781 2772 912 
Q 2981 1044 2981 1288 
Q 2981 1506 2839 1625 
Q 2697 1744 2272 1838 
L 1806 1941 
Q 1106 2091 782 2419 
Q 459 2747 459 3303 
Q 459 4000 909 4375 
Q 1359 4750 2203 4750 
Q 2588 4750 2994 4692 
Q 3400 4634 3834 4519 
z
" transform="scale(0.015625)"/>
      <path id="DejaVuSans-Bold-74" d="M 1759 4494 
L 1759 3500 
L 2913 3500 
L 2913 2700 
L 1759 2700 
L 1759 1216 
Q 1759 972 1856 886 
Q 1953 800 2241 800 
L 2816 800 
L 2816 0 
L 1856 0 
Q 1194 0 917 276 
Q 641 553 641 1216 
L 641 2700 
L 84 2700 
L 84 3500 
L 641 3500 
L 641 4494 
L 1759 4494 
z
" transform="scale(0.015625)"/>
      <path id="DejaVuSans-Bold-69" d="M 538 3500 
L 1656 3500 
L 1656 0 
L 538 0 
L 538 3500 
z
M 538 4863 
L 1656 4863 
L 1656 3950 
L 538 3950 
L 538 4863 
z
" transform="scale(0.015625)"/>
      <path id="DejaVuSans-Bold-6d" d="M 3781 2919 
Q 3994 3244 4286 3414 
Q 4578 3584 4928 3584 
Q 5531 3584 5847 3212 
Q 6163 2841 6163 2131 
L 6163 0 
L 5038 0 
L 5038 1825 
Q 5041 1866 5042 1909 
Q 5044 1953 5044 2034 
Q 5044 2406 4934 2573 
Q 4825 2741 4581 2741 
Q 4263 2741 4089 2478 
Q 3916 2216 3909 1719 
L 3909 0 
L 2784 0 
L 2784 1825 
Q 2784 2406 2684 2573 
Q 2584 2741 2328 2741 
Q 2006 2741 1831 2477 
Q 1656 2213 1656 1722 
L 1656 0 
L 531 0 
L 531 3500 
L 1656 3500 
L 1656 2988 
Q 1863 3284 2130 3434 
Q 2397 3584 2719 3584 
Q 3081 3584 3359 3409 
Q 3638 3234 3781 2919 
z
" transform="scale(0.015625)"/>
      <path id="DejaVuSans-Bold-61" d="M 2106 1575 
Q 1756 1575 1579 1456 
Q 1403 1338 1403 1106 
Q 1403 894 1545 773 
Q 1688 653 1941 653 
Q 2256 653 2472 879 
Q 2688 1106 2688 1447 
L 2688 1575 
L 2106 1575 
z
M 3816 1997 
L 3816 0 
L 2688 0 
L 2688 519 
Q 2463 200 2181 54 
Q 1900 -91 1497 -91 
Q 953 -91 614 226 
Q 275 544 275 1050 
Q 275 1666 698 1953 
Q 1122 2241 2028 2241 
L 2688 2241 
L 2688 2328 
Q 2688 2594 2478 2717 
Q 2269 2841 1825 2841 
Q 1466 2841 1156 2769 
Q 847 2697 581 2553 
L 581 3406 
Q 941 3494 1303 3539 
Q 1666 3584 2028 3584 
Q 2975 3584 3395 3211 
Q 3816 2838 3816 1997 
z
" transform="scale(0.015625)"/>
      <path id="DejaVuSans-Bold-20" transform="scale(0.015625)"/>
      <path id="DejaVuSans-Bold-64" d="M 2919 2988 
L 2919 4863 
L 4044 4863 
L 4044 0 
L 2919 0 
L 2919 506 
Q 2688 197 2409 53 
Q 2131 -91 1766 -91 
Q 1119 -91 703 423 
Q 288 938 288 1747 
Q 288 2556 703 3070 
Q 1119 3584 1766 3584 
Q 2128 3584 2408 3439 
Q 2688 3294 2919 2988 
z
M 2181 722 
Q 2541 722 2730 984 
Q 2919 1247 2919 1747 
Q 2919 2247 2730 2509 
Q 2541 2772 2181 2772 
Q 1825 2772 1636 2509 
Q 1447 2247 1447 1747 
Q 1447 1247 1636 984 
Q 1825 722 2181 722 
z
" transform="scale(0.015625)"/>
      <path id="DejaVuSans-Bold-65" d="M 4031 1759 
L 4031 1441 
L 1416 1441 
Q 1456 1047 1700 850 
Q 1944 653 2381 653 
Q 2734 653 3104 758 
Q 3475 863 3866 1075 
L 3866 213 
Q 3469 63 3072 -14 
Q 2675 -91 2278 -91 
Q 1328 -91 801 392 
Q 275 875 275 1747 
Q 275 2603 792 3093 
Q 1309 3584 2216 3584 
Q 3041 3584 3536 3087 
Q 4031 2591 4031 1759 
z
M 2881 2131 
Q 2881 2450 2695 2645 
Q 2509 2841 2209 2841 
Q 1884 2841 1681 2658 
Q 1478 2475 1428 2131 
L 2881 2131 
z
" transform="scale(0.015625)"/>
      <path id="DejaVuSans-Bold-6c" d="M 538 4863 
L 1656 4863 
L 1656 0 
L 538 0 
L 538 4863 
z
" transform="scale(0.015625)"/>
      <path id="DejaVuSans-Bold-67" d="M 2919 594 
Q 2688 288 2409 144 
Q 2131 0 1766 0 
Q 1125 0 706 504 
Q 288 1009 288 1791 
Q 288 2575 706 3076 
Q 1125 3578 1766 3578 
Q 2131 3578 2409 3434 
Q 2688 3291 2919 2981 
L 2919 3500 
L 4044 3500 
L 4044 353 
Q 4044 -491 3511 -936 
Q 2978 -1381 1966 -1381 
Q 1638 -1381 1331 -1331 
Q 1025 -1281 716 -1178 
L 716 -306 
Q 1009 -475 1290 -558 
Q 1572 -641 1856 -641 
Q 2406 -641 2662 -400 
Q 2919 -159 2919 353 
L 2919 594 
z
M 2181 2772 
Q 1834 2772 1640 2515 
Q 1447 2259 1447 1791 
Q 1447 1309 1634 1061 
Q 1822 813 2181 813 
Q 2531 813 2725 1069 
Q 2919 1325 2919 1791 
Q 2919 2259 2725 2515 
Q 2531 2772 2181 2772 
z
" transform="scale(0.015625)"/>
      <path id="DejaVuSans-Bold-70" d="M 1656 506 
L 1656 -1331 
L 538 -1331 
L 538 3500 
L 1656 3500 
L 1656 2988 
Q 1888 3294 2169 3439 
Q 2450 3584 2816 3584 
Q 3463 3584 3878 3070 
Q 4294 2556 4294 1747 
Q 4294 938 3878 423 
Q 3463 -91 2816 -91 
Q 2450 -91 2169 54 
Q 1888 200 1656 506 
z
M 2400 2772 
Q 2041 2772 1848 2508 
Q 1656 2244 1656 1747 
Q 1656 1250 1848 986 
Q 2041 722 2400 722 
Q 2759 722 2948 984 
Q 3138 1247 3138 1747 
Q 3138 2247 2948 2509 
Q 2759 2772 2400 2772 
z
" transform="scale(0.015625)"/>
      <path id="DejaVuSans-Bold-72" d="M 3138 2547 
Q 2991 2616 2845 2648 
Q 2700 2681 2553 2681 
Q 2122 2681 1889 2404 
Q 1656 2128 1656 1613 
L 1656 0 
L 538 0 
L 538 3500 
L 1656 3500 
L 1656 2925 
Q 1872 3269 2151 3426 
Q 2431 3584 2822 3584 
Q 2878 3584 2943 3579 
Q 3009 3575 3134 3559 
L 3138 2547 
z
" transform="scale(0.015625)"/>
      <path id="DejaVuSans-Bold-6f" d="M 2203 2784 
Q 1831 2784 1636 2517 
Q 1441 2250 1441 1747 
Q 1441 1244 1636 976 
Q 1831 709 2203 709 
Q 2569 709 2762 976 
Q 2956 1244 2956 1747 
Q 2956 2250 2762 2517 
Q 2569 2784 2203 2784 
z
M 2203 3584 
Q 3106 3584 3614 3096 
Q 4122 2609 4122 1747 
Q 4122 884 3614 396 
Q 3106 -91 2203 -91 
Q 1297 -91 786 396 
Q 275 884 275 1747 
Q 275 2609 786 3096 
Q 1297 3584 2203 3584 
z
" transform="scale(0.015625)"/>
      <path id="DejaVuSans-Bold-27" d="M 1350 4666 
L 1350 2931 
L 609 2931 
L 609 4666 
L 1350 4666 
z
" transform="scale(0.015625)"/>
      <path id="DejaVuSans-Bold-62" d="M 2400 722 
Q 2759 722 2948 984 
Q 3138 1247 3138 1747 
Q 3138 2247 2948 2509 
Q 2759 2772 2400 2772 
Q 2041 2772 1848 2508 
Q 1656 2244 1656 1747 
Q 1656 1250 1848 986 
Q 2041 722 2400 722 
z
M 1656 2988 
Q 1888 3294 2169 3439 
Q 2450 3584 2816 3584 
Q 3463 3584 3878 3070 
Q 4294 2556 4294 1747 
Q 4294 938 3878 423 
Q 3463 -91 2816 -91 
Q 2450 -91 2169 54 
Q 1888 200 1656 506 
L 1656 0 
L 538 0 
L 538 4863 
L 1656 4863 
L 1656 2988 
z
" transform="scale(0.015625)"/>
      <path id="DejaVuSans-Bold-63" d="M 3366 3391 
L 3366 2478 
Q 3138 2634 2908 2709 
Q 2678 2784 2431 2784 
Q 1963 2784 1702 2511 
Q 1441 2238 1441 1747 
Q 1441 1256 1702 982 
Q 1963 709 2431 709 
Q 2694 709 2930 787 
Q 3166 866 3366 1019 
L 3366 103 
Q 3103 6 2833 -42 
Q 2563 -91 2291 -91 
Q 1344 -91 809 395 
Q 275 881 275 1747 
Q 275 2613 809 3098 
Q 1344 3584 2291 3584 
Q 2566 3584 2833 3536 
Q 3100 3488 3366 3391 
z
" transform="scale(0.015625)"/>
     </defs>
     <use xlink:href="#DejaVuSans-Bold-53"/>
     <use xlink:href="#DejaVuSans-Bold-74" transform="translate(72.021484 0)"/>
     <use xlink:href="#DejaVuSans-Bold-69" transform="translate(119.824219 0)"/>
     <use xlink:href="#DejaVuSans-Bold-6d" transform="translate(154.101562 0)"/>
     <use xlink:href="#DejaVuSans-Bold-61" transform="translate(258.300781 0)"/>
     <use xlink:href="#DejaVuSans-Bold-20" transform="translate(325.78125 0)"/>
     <use xlink:href="#DejaVuSans-Bold-64" transform="translate(360.595703 0)"/>
     <use xlink:href="#DejaVuSans-Bold-65" transform="translate(432.177734 0)"/>
     <use xlink:href="#DejaVuSans-Bold-6c" transform="translate(500 0)"/>
     <use xlink:href="#DejaVuSans-Bold-20" transform="translate(534.277344 0)"/>
     <use xlink:href="#DejaVuSans-Bold-67" transform="translate(569.091797 0)"/>
     <use xlink:href="#DejaVuSans-Bold-61" transform="translate(640.673828 0)"/>
     <use xlink:href="#DejaVuSans-Bold-70" transform="translate(708.154297 0)"/>
     <use xlink:href="#DejaVuSans-Bold-20" transform="translate(779.736328 0)"/>
     <use xlink:href="#DejaVuSans-Bold-64" transform="translate(814.550781 0)"/>
     <use xlink:href="#DejaVuSans-Bold-69" transform="translate(886.132812 0)"/>
     <use xlink:href="#DejaVuSans-Bold-72" transform="translate(920.410156 0)"/>
     <use xlink:href="#DejaVuSans-Bold-65" transform="translate(969.726562 0)"/>
     <use xlink:href="#DejaVuSans-Bold-74" transform="translate(1037.548828 0)"/>
     <use xlink:href="#DejaVuSans-Bold-74" transform="translate(1085.351562 0)"/>
     <use xlink:href="#DejaVuSans-Bold-6f" transform="translate(1133.154297 0)"/>
     <use xlink:href="#DejaVuSans-Bold-20" transform="translate(1201.855469 0)"/>
     <use xlink:href="#DejaVuSans-Bold-64" transform="translate(1236.669922 0)"/>
     <use xlink:href="#DejaVuSans-Bold-69" transform="translate(1308.251953 0)"/>
     <use xlink:href="#DejaVuSans-Bold-20" transform="translate(1342.529297 0)"/>
     <use xlink:href="#DejaVuSans-Bold-49" transform="translate(1377.34375 0)"/>
     <use xlink:href="#DejaVuSans-Bold-6e" transform="translate(1414.550781 0)"/>
     <use xlink:href="#DejaVuSans-Bold-41" transform="translate(1485.742188 0)"/>
     <use xlink:href="#DejaVuSans-Bold-73" transform="translate(1563.134766 0)"/>
     <use xlink:href="#DejaVuSans-Bold-20" transform="translate(1622.65625 0)"/>
     <use xlink:href="#DejaVuSans-Bold-74" transform="translate(1657.470703 0)"/>
     <use xlink:href="#DejaVuSans-Bold-72" transform="translate(1705.273438 0)"/>
     <use xlink:href="#DejaVuSans-Bold-61" transform="translate(1754.589844 0)"/>
     <use xlink:href="#DejaVuSans-Bold-6d" transform="translate(1822.070312 0)"/>
     <use xlink:href="#DejaVuSans-Bold-69" transform="translate(1926.269531 0)"/>
     <use xlink:href="#DejaVuSans-Bold-74" transform="translate(1960.546875 0)"/>
     <use xlink:href="#DejaVuSans-Bold-65" transform="translate(2008.349609 0)"/>
     <use xlink:href="#DejaVuSans-Bold-20" transform="translate(2076.171875 0)"/>
     <use xlink:href="#DejaVuSans-Bold-6c" transform="translate(2110.986328 0)"/>
     <use xlink:href="#DejaVuSans-Bold-27" transform="translate(2145.263672 0)"/>
     <use xlink:href="#DejaVuSans-Bold-61" transform="translate(2175.878906 0)"/>
     <use xlink:href="#DejaVuSans-Bold-73" transform="translate(2243.359375 0)"/>
     <use xlink:href="#DejaVuSans-Bold-73" transform="translate(2302.880859 0)"/>
     <use xlink:href="#DejaVuSans-Bold-6f" transform="translate(2362.402344 0)"/>
     <use xlink:href="#DejaVuSans-Bold-72" transform="translate(2431.103516 0)"/>
     <use xlink:href="#DejaVuSans-Bold-62" transform="translate(2480.419922 0)"/>
     <use xlink:href="#DejaVuSans-Bold-69" transform="translate(2552.001953 0)"/>
     <use xlink:href="#DejaVuSans-Bold-6d" transform="translate(2586.279297 0)"/>
     <use xlink:href="#DejaVuSans-Bold-65" transform="translate(2690.478516 0)"/>
     <use xlink:href="#DejaVuSans-Bold-6e" transform="translate(2758.300781 0)"/>
     <use xlink:href="#DejaVuSans-Bold-74" transform="translate(2829.492188 0)"/>
     <use xlink:href="#DejaVuSans-Bold-6f" transform="translate(2877.294922 0)"/>
     <use xlink:href="#DejaVuSans-Bold-20" transform="translate(2945.996094 0)"/>
     <use xlink:href="#DejaVuSans-Bold-6f" transform="translate(2980.810547 0)"/>
     <use xlink:href="#DejaVuSans-Bold-74" transform="translate(3049.511719 0)"/>
     <use xlink:href="#DejaVuSans-Bold-74" transform="translate(3097.314453 0)"/>
     <use xlink:href="#DejaVuSans-Bold-69" transform="translate(3145.117188 0)"/>
     <use xlink:href="#DejaVuSans-Bold-63" transform="translate(3179.394531 0)"/>
     <use xlink:href="#DejaVuSans-Bold-6f" transform="translate(3238.671875 0)"/>
    </g>
   </g>
   <g id="PathCollection_1">
    <defs>
     <path id="mc6c7a9470e" d="M 0 3.24037 
C 0.859356 3.24037 1.683631 2.898944 2.291288 2.291288 
C 2.898944 1.683631 3.24037 0.859356 3.24037 0 
C 3.24037 -0.859356 2.898944 -1.683631 2.291288 -2.291288 
C 1.683631 -2.898944 0.859356 -3.24037 0 -3.24037 
C -0.859356 -3.24037 -1.683631 -2.898944 -2.291288 -2.291288 
C -2.898944 -1.683631 -3.24037 -0.859356 -3.24037 0 
C -3.24037 0.859356 -2.898944 1.683631 -2.291288 2.291288 
C -1.683631 2.898944 -0.859356 3.24037 0 3.24037 
z
" style="stroke: #1f77b4"/>
    </defs>
    <g clip-path="url(#pad916781dd)">
     <use xlink:href="#mc6c7a9470e" x="100.563125" y="391.881656" style="fill: #1f77b4; stroke: #1f77b4"/>
     <use xlink:href="#mc6c7a9470e" x="128.643125" y="370.158237" style="fill: #1f77b4; stroke: #1f77b4"/>
     <use xlink:href="#mc6c7a9470e" x="194.163125" y="319.477605" style="fill: #1f77b4; stroke: #1f77b4"/>
     <use xlink:href="#mc6c7a9470e" x="287.763125" y="267.745891" style="fill: #1f77b4; stroke: #1f77b4"/>
     <use xlink:href="#mc6c7a9470e" x="381.363125" y="187.9376" style="fill: #1f77b4; stroke: #1f77b4"/>
     <use xlink:href="#mc6c7a9470e" x="474.963125" y="153.530275" style="fill: #1f77b4; stroke: #1f77b4"/>
     <use xlink:href="#mc6c7a9470e" x="568.563125" y="62.701042" style="fill: #1f77b4; stroke: #1f77b4"/>
    </g>
   </g>
   <g id="legend_1">
    <g id="PathCollection_2">
     <g>
      <use xlink:href="#mc6c7a9470e" x="486.799688" y="379.206844" style="fill: #1f77b4; stroke: #1f77b4"/>
     </g>
    </g>
    <g id="text_18">
     <!-- dati sintetici -->
     <g transform="translate(504.799688 381.831844) scale(0.1 -0.1)">
      <defs>
       <path id="DejaVuSans-63" d="M 3122 3366 
L 3122 2828 
Q 2878 2963 2633 3030 
Q 2388 3097 2138 3097 
Q 1578 3097 1268 2742 
Q 959 2388 959 1747 
Q 959 1106 1268 751 
Q 1578 397 2138 397 
Q 2388 397 2633 464 
Q 2878 531 3122 666 
L 3122 134 
Q 2881 22 2623 -34 
Q 2366 -91 2075 -91 
Q 1284 -91 818 406 
Q 353 903 353 1747 
Q 353 2603 823 3093 
Q 1294 3584 2113 3584 
Q 2378 3584 2631 3529 
Q 2884 3475 3122 3366 
z
" transform="scale(0.015625)"/>
      </defs>
      <use xlink:href="#DejaVuSans-64"/>
      <use xlink:href="#DejaVuSans-61" transform="translate(63.476562 0)"/>
      <use xlink:href="#DejaVuSans-74" transform="translate(124.755859 0)"/>
      <use xlink:href="#DejaVuSans-69" transform="translate(163.964844 0)"/>
      <use xlink:href="#DejaVuSans-20" transform="translate(191.748047 0)"/>
      <use xlink:href="#DejaVuSans-73" transform="translate(223.535156 0)"/>
      <use xlink:href="#DejaVuSans-69" transform="translate(275.634766 0)"/>
      <use xlink:href="#DejaVuSans-6e" transform="translate(303.417969 0)"/>
      <use xlink:href="#DejaVuSans-74" transform="translate(366.796875 0)"/>
      <use xlink:href="#DejaVuSans-65" transform="translate(406.005859 0)"/>
      <use xlink:href="#DejaVuSans-74" transform="translate(467.529297 0)"/>
      <use xlink:href="#DejaVuSans-69" transform="translate(506.738281 0)"/>
      <use xlink:href="#DejaVuSans-63" transform="translate(534.521484 0)"/>
      <use xlink:href="#DejaVuSans-69" transform="translate(589.501953 0)"/>
     </g>
    </g>
    <g id="line2d_27">
     <path d="M 476.799688 393.009969 
L 486.799688 393.009969 
L 496.799688 393.009969 
" style="fill: none; stroke-dasharray: 8.14,3.52; stroke-dashoffset: 0; stroke: #1f77b4; stroke-width: 2.2"/>
    </g>
    <g id="text_19">
     <!-- estrapolazione lineare -->
     <g transform="translate(504.799688 396.509969) scale(0.1 -0.1)">
      <defs>
       <path id="DejaVuSans-6c" d="M 603 4863 
L 1178 4863 
L 1178 0 
L 603 0 
L 603 4863 
z
" transform="scale(0.015625)"/>
       <path id="DejaVuSans-7a" d="M 353 3500 
L 3084 3500 
L 3084 2975 
L 922 459 
L 3084 459 
L 3084 0 
L 275 0 
L 275 525 
L 2438 3041 
L 353 3041 
L 353 3500 
z
" transform="scale(0.015625)"/>
      </defs>
      <use xlink:href="#DejaVuSans-65"/>
      <use xlink:href="#DejaVuSans-73" transform="translate(61.523438 0)"/>
      <use xlink:href="#DejaVuSans-74" transform="translate(113.623047 0)"/>
      <use xlink:href="#DejaVuSans-72" transform="translate(152.832031 0)"/>
      <use xlink:href="#DejaVuSans-61" transform="translate(193.945312 0)"/>
      <use xlink:href="#DejaVuSans-70" transform="translate(255.224609 0)"/>
      <use xlink:href="#DejaVuSans-6f" transform="translate(318.701172 0)"/>
      <use xlink:href="#DejaVuSans-6c" transform="translate(379.882812 0)"/>
      <use xlink:href="#DejaVuSans-61" transform="translate(407.666016 0)"/>
      <use xlink:href="#DejaVuSans-7a" transform="translate(468.945312 0)"/>
      <use xlink:href="#DejaVuSans-69" transform="translate(521.435547 0)"/>
      <use xlink:href="#DejaVuSans-6f" transform="translate(549.21875 0)"/>
      <use xlink:href="#DejaVuSans-6e" transform="translate(610.400391 0)"/>
      <use xlink:href="#DejaVuSans-65" transform="translate(673.779297 0)"/>
      <use xlink:href="#DejaVuSans-20" transform="translate(735.302734 0)"/>
      <use xlink:href="#DejaVuSans-6c" transform="translate(767.089844 0)"/>
      <use xlink:href="#DejaVuSans-69" transform="translate(794.873047 0)"/>
      <use xlink:href="#DejaVuSans-6e" transform="translate(822.65625 0)"/>
      <use xlink:href="#DejaVuSans-65" transform="translate(886.035156 0)"/>
      <use xlink:href="#DejaVuSans-61" transform="translate(947.558594 0)"/>
      <use xlink:href="#DejaVuSans-72" transform="translate(1008.837891 0)"/>
      <use xlink:href="#DejaVuSans-65" transform="translate(1047.701172 0)"/>
     </g>
    </g>
   </g>
  </g>
  <g id="text_20">
   <!-- Per una transizione diretta consentita, $\alpha^2$ cresce linearmente con $\hbar\omega-E_{\rm gap}$; l'intercetta fornisce il gap. -->
   <g transform="translate(67.203125 449.205656) scale(0.1 -0.1)">
    <defs>
     <path id="DejaVuSans-50" d="M 1259 4147 
L 1259 2394 
L 2053 2394 
Q 2494 2394 2734 2622 
Q 2975 2850 2975 3272 
Q 2975 3691 2734 3919 
Q 2494 4147 2053 4147 
L 1259 4147 
z
M 628 4666 
L 2053 4666 
Q 2838 4666 3239 4311 
Q 3641 3956 3641 3272 
Q 3641 2581 3239 2228 
Q 2838 1875 2053 1875 
L 1259 1875 
L 1259 0 
L 628 0 
L 628 4666 
z
" transform="scale(0.015625)"/>
     <path id="DejaVuSans-6d" d="M 3328 2828 
Q 3544 3216 3844 3400 
Q 4144 3584 4550 3584 
Q 5097 3584 5394 3201 
Q 5691 2819 5691 2113 
L 5691 0 
L 5113 0 
L 5113 2094 
Q 5113 2597 4934 2840 
Q 4756 3084 4391 3084 
Q 3944 3084 3684 2787 
Q 3425 2491 3425 1978 
L 3425 0 
L 2847 0 
L 2847 2094 
Q 2847 2600 2669 2842 
Q 2491 3084 2119 3084 
Q 1678 3084 1418 2786 
Q 1159 2488 1159 1978 
L 1159 0 
L 581 0 
L 581 3500 
L 1159 3500 
L 1159 2956 
Q 1356 3278 1631 3431 
Q 1906 3584 2284 3584 
Q 2666 3584 2933 3390 
Q 3200 3197 3328 2828 
z
" transform="scale(0.015625)"/>
     <path id="DejaVuSans-Oblique-127" d="M 3634 2113 
L 3225 0 
L 2650 0 
L 3056 2094 
Q 3094 2291 3094 2450 
Q 3094 2688 3006 2838 
Q 2863 3084 2475 3084 
Q 2009 3084 1681 2788 
Q 1356 2491 1256 1978 
L 872 0 
L 294 0 
L 1066 3969 
L 675 3969 
L 775 4481 
L 1166 4481 
L 1238 4863 
L 1816 4863 
L 1744 4481 
L 2844 4481 
L 2744 3969 
L 1644 3969 
L 1447 2956 
Q 1713 3272 2025 3428 
Q 2331 3584 2700 3584 
Q 3300 3584 3538 3213 
Q 3688 2975 3688 2606 
Q 3688 2381 3634 2113 
z
" transform="scale(0.015625)"/>
     <path id="DejaVuSans-Oblique-3c9" d="M 1369 -91 
Q 72 -91 434 1766 
Q 575 2500 1256 3500 
L 1875 3500 
Q 1231 2500 1088 1750 
Q 819 397 1519 397 
Q 2166 397 2478 2078 
L 3009 2078 
Q 2669 388 3316 397 
Q 4013 403 4275 1750 
Q 4419 2500 4169 3500 
L 4788 3500 
Q 5075 2500 4934 1766 
Q 4578 -94 3278 -91 
Q 2428 -88 2503 844 
Q 2194 -91 1369 -91 
z
" transform="scale(0.015625)"/>
     <path id="DejaVuSans-2212" d="M 678 2272 
L 4684 2272 
L 4684 1741 
L 678 1741 
L 678 2272 
z
" transform="scale(0.015625)"/>
     <path id="DejaVuSans-3b" d="M 750 3309 
L 1409 3309 
L 1409 2516 
L 750 2516 
L 750 3309 
z
M 750 794 
L 1409 794 
L 1409 256 
L 897 -744 
L 494 -744 
L 750 256 
L 750 794 
z
" transform="scale(0.015625)"/>
     <path id="DejaVuSans-27" d="M 1147 4666 
L 1147 2931 
L 616 2931 
L 616 4666 
L 1147 4666 
z
" transform="scale(0.015625)"/>
    </defs>
    <use xlink:href="#DejaVuSans-50" transform="translate(0 0.765625)"/>
    <use xlink:href="#DejaVuSans-65" transform="translate(60.302734 0.765625)"/>
    <use xlink:href="#DejaVuSans-72" transform="translate(121.826172 0.765625)"/>
    <use xlink:href="#DejaVuSans-20" transform="translate(162.939453 0.765625)"/>
    <use xlink:href="#DejaVuSans-75" transform="translate(194.726562 0.765625)"/>
    <use xlink:href="#DejaVuSans-6e" transform="translate(258.105469 0.765625)"/>
    <use xlink:href="#DejaVuSans-61" transform="translate(321.484375 0.765625)"/>
    <use xlink:href="#DejaVuSans-20" transform="translate(382.763672 0.765625)"/>
    <use xlink:href="#DejaVuSans-74" transform="translate(414.550781 0.765625)"/>
    <use xlink:href="#DejaVuSans-72" transform="translate(453.759766 0.765625)"/>
    <use xlink:href="#DejaVuSans-61" transform="translate(494.873047 0.765625)"/>
    <use xlink:href="#DejaVuSans-6e" transform="translate(556.152344 0.765625)"/>
    <use xlink:href="#DejaVuSans-73" transform="translate(619.53125 0.765625)"/>
    <use xlink:href="#DejaVuSans-69" transform="translate(671.630859 0.765625)"/>
    <use xlink:href="#DejaVuSans-7a" transform="translate(699.414062 0.765625)"/>
    <use xlink:href="#DejaVuSans-69" transform="translate(751.904297 0.765625)"/>
    <use xlink:href="#DejaVuSans-6f" transform="translate(779.6875 0.765625)"/>
    <use xlink:href="#DejaVuSans-6e" transform="translate(840.869141 0.765625)"/>
    <use xlink:href="#DejaVuSans-65" transform="translate(904.248047 0.765625)"/>
    <use xlink:href="#DejaVuSans-20" transform="translate(965.771484 0.765625)"/>
    <use xlink:href="#DejaVuSans-64" transform="translate(997.558594 0.765625)"/>
    <use xlink:href="#DejaVuSans-69" transform="translate(1061.035156 0.765625)"/>
    <use xlink:href="#DejaVuSans-72" transform="translate(1088.818359 0.765625)"/>
    <use xlink:href="#DejaVuSans-65" transform="translate(1129.931641 0.765625)"/>
    <use xlink:href="#DejaVuSans-74" transform="translate(1191.455078 0.765625)"/>
    <use xlink:href="#DejaVuSans-74" transform="translate(1230.664062 0.765625)"/>
    <use xlink:href="#DejaVuSans-61" transform="translate(1269.873047 0.765625)"/>
    <use xlink:href="#DejaVuSans-20" transform="translate(1331.152344 0.765625)"/>
    <use xlink:href="#DejaVuSans-63" transform="translate(1362.939453 0.765625)"/>
    <use xlink:href="#DejaVuSans-6f" transform="translate(1417.919922 0.765625)"/>
    <use xlink:href="#DejaVuSans-6e" transform="translate(1479.101562 0.765625)"/>
    <use xlink:href="#DejaVuSans-73" transform="translate(1542.480469 0.765625)"/>
    <use xlink:href="#DejaVuSans-65" transform="translate(1594.580078 0.765625)"/>
    <use xlink:href="#DejaVuSans-6e" transform="translate(1656.103516 0.765625)"/>
    <use xlink:href="#DejaVuSans-74" transform="translate(1719.482422 0.765625)"/>
    <use xlink:href="#DejaVuSans-69" transform="translate(1758.691406 0.765625)"/>
    <use xlink:href="#DejaVuSans-74" transform="translate(1786.474609 0.765625)"/>
    <use xlink:href="#DejaVuSans-61" transform="translate(1825.683594 0.765625)"/>
    <use xlink:href="#DejaVuSans-2c" transform="translate(1886.962891 0.765625)"/>
    <use xlink:href="#DejaVuSans-20" transform="translate(1918.75 0.765625)"/>
    <use xlink:href="#DejaVuSans-Oblique-3b1" transform="translate(1950.537109 0.765625)"/>
    <use xlink:href="#DejaVuSans-32" transform="translate(2021.126849 39.046875) scale(0.7)"/>
    <use xlink:href="#DejaVuSans-20" transform="translate(2068.397357 0.765625)"/>
    <use xlink:href="#DejaVuSans-63" transform="translate(2100.184466 0.765625)"/>
    <use xlink:href="#DejaVuSans-72" transform="translate(2155.164935 0.765625)"/>
    <use xlink:href="#DejaVuSans-65" transform="translate(2196.278216 0.765625)"/>
    <use xlink:href="#DejaVuSans-73" transform="translate(2257.801654 0.765625)"/>
    <use xlink:href="#DejaVuSans-63" transform="translate(2309.901263 0.765625)"/>
    <use xlink:href="#DejaVuSans-65" transform="translate(2364.881732 0.765625)"/>
    <use xlink:href="#DejaVuSans-20" transform="translate(2426.405169 0.765625)"/>
    <use xlink:href="#DejaVuSans-6c" transform="translate(2458.192279 0.765625)"/>
    <use xlink:href="#DejaVuSans-69" transform="translate(2485.975482 0.765625)"/>
    <use xlink:href="#DejaVuSans-6e" transform="translate(2513.758685 0.765625)"/>
    <use xlink:href="#DejaVuSans-65" transform="translate(2577.137591 0.765625)"/>
    <use xlink:href="#DejaVuSans-61" transform="translate(2638.661029 0.765625)"/>
    <use xlink:href="#DejaVuSans-72" transform="translate(2699.940326 0.765625)"/>
    <use xlink:href="#DejaVuSans-6d" transform="translate(2741.053607 0.765625)"/>
    <use xlink:href="#DejaVuSans-65" transform="translate(2838.465716 0.765625)"/>
    <use xlink:href="#DejaVuSans-6e" transform="translate(2899.989154 0.765625)"/>
    <use xlink:href="#DejaVuSans-74" transform="translate(2963.36806 0.765625)"/>
    <use xlink:href="#DejaVuSans-65" transform="translate(3002.577044 0.765625)"/>
    <use xlink:href="#DejaVuSans-20" transform="translate(3064.100482 0.765625)"/>
    <use xlink:href="#DejaVuSans-63" transform="translate(3095.887591 0.765625)"/>
    <use xlink:href="#DejaVuSans-6f" transform="translate(3150.86806 0.765625)"/>
    <use xlink:href="#DejaVuSans-6e" transform="translate(3212.049701 0.765625)"/>
    <use xlink:href="#DejaVuSans-20" transform="translate(3275.428607 0.765625)"/>
    <use xlink:href="#DejaVuSans-Oblique-127" transform="translate(3307.215716 0.765625)"/>
    <use xlink:href="#DejaVuSans-Oblique-3c9" transform="translate(3376.698138 0.765625)"/>
    <use xlink:href="#DejaVuSans-2212" transform="translate(3479.920794 0.765625)"/>
    <use xlink:href="#DejaVuSans-Oblique-45" transform="translate(3583.192279 0.765625)"/>
    <use xlink:href="#DejaVuSans-67" transform="translate(3646.375872 -15.640625) scale(0.7)"/>
    <use xlink:href="#DejaVuSans-61" transform="translate(3690.809466 -15.640625) scale(0.7)"/>
    <use xlink:href="#DejaVuSans-70" transform="translate(3733.704974 -15.640625) scale(0.7)"/>
    <use xlink:href="#DejaVuSans-3b" transform="translate(3780.872943 0.765625)"/>
    <use xlink:href="#DejaVuSans-20" transform="translate(3814.564349 0.765625)"/>
    <use xlink:href="#DejaVuSans-6c" transform="translate(3846.351458 0.765625)"/>
    <use xlink:href="#DejaVuSans-27" transform="translate(3874.134661 0.765625)"/>
    <use xlink:href="#DejaVuSans-69" transform="translate(3901.624896 0.765625)"/>
    <use xlink:href="#DejaVuSans-6e" transform="translate(3929.408099 0.765625)"/>
    <use xlink:href="#DejaVuSans-74" transform="translate(3992.787005 0.765625)"/>
    <use xlink:href="#DejaVuSans-65" transform="translate(4031.99599 0.765625)"/>
    <use xlink:href="#DejaVuSans-72" transform="translate(4093.519427 0.765625)"/>
    <use xlink:href="#DejaVuSans-63" transform="translate(4134.632708 0.765625)"/>
    <use xlink:href="#DejaVuSans-65" transform="translate(4189.613177 0.765625)"/>
    <use xlink:href="#DejaVuSans-74" transform="translate(4251.136615 0.765625)"/>
    <use xlink:href="#DejaVuSans-74" transform="translate(4290.345599 0.765625)"/>
    <use xlink:href="#DejaVuSans-61" transform="translate(4329.554583 0.765625)"/>
    <use xlink:href="#DejaVuSans-20" transform="translate(4390.83388 0.765625)"/>
    <use xlink:href="#DejaVuSans-66" transform="translate(4422.62099 0.765625)"/>
    <use xlink:href="#DejaVuSans-6f" transform="translate(4457.826068 0.765625)"/>
    <use xlink:href="#DejaVuSans-72" transform="translate(4519.007708 0.765625)"/>
    <use xlink:href="#DejaVuSans-6e" transform="translate(4560.12099 0.765625)"/>
    <use xlink:href="#DejaVuSans-69" transform="translate(4623.499896 0.765625)"/>
    <use xlink:href="#DejaVuSans-73" transform="translate(4651.283099 0.765625)"/>
    <use xlink:href="#DejaVuSans-63" transform="translate(4703.382708 0.765625)"/>
    <use xlink:href="#DejaVuSans-65" transform="translate(4758.363177 0.765625)"/>
    <use xlink:href="#DejaVuSans-20" transform="translate(4819.886615 0.765625)"/>
    <use xlink:href="#DejaVuSans-69" transform="translate(4851.673724 0.765625)"/>
    <use xlink:href="#DejaVuSans-6c" transform="translate(4879.456927 0.765625)"/>
    <use xlink:href="#DejaVuSans-20" transform="translate(4907.24013 0.765625)"/>
    <use xlink:href="#DejaVuSans-67" transform="translate(4939.02724 0.765625)"/>
    <use xlink:href="#DejaVuSans-61" transform="translate(5002.503802 0.765625)"/>
    <use xlink:href="#DejaVuSans-70" transform="translate(5063.783099 0.765625)"/>
    <use xlink:href="#DejaVuSans-2e" transform="translate(5127.259661 0.765625)"/>
   </g>
  </g>
 </g>
 <defs>
  <clipPath id="pad916781dd">
   <rect x="44.403125" y="30.597656" width="580.32" height="376.992"/>
  </clipPath>
 </defs>
</svg>
