<?xml version="1.0" encoding="utf-8" standalone="no"?>
<!DOCTYPE svg PUBLIC "-//W3C//DTD SVG 1.1//EN"
  "http://www.w3.org/Graphics/SVG/1.1/DTD/svg11.dtd">
<svg xmlns:xlink="http://www.w3.org/1999/xlink" width="519.599297pt" height="441.421344pt" viewBox="0 0 519.599297 441.421344" xmlns="http://www.w3.org/2000/svg" version="1.1">
 <metadata>
  <rdf:RDF xmlns:dc="http://purl.org/dc/elements/1.1/" xmlns:cc="http://creativecommons.org/ns#" xmlns:rdf="http://www.w3.org/1999/02/22-rdf-syntax-ns#">
   <cc:Work>
    <dc:type rdf:resource="http://purl.org/dc/dcmitype/StillImage"/>
    <dc:date>2026-06-16T08:29:32.054773</dc:date>
    <dc:format>image/svg+xml</dc:format>
    <dc:creator>
     <cc:Agent>
      <dc:title>Matplotlib v3.10.8, https://matplotlib.org/</dc:title>
     </cc:Agent>
    </dc:creator>
   </cc:Work>
  </rdf:RDF>
 </metadata>
 <defs>
  <style type="text/css">*{stroke-linejoin: round; stroke-linecap: butt}</style>
 </defs>
 <g id="figure_1">
  <g id="patch_1">
   <path d="M 0 441.421344 
L 519.599297 441.421344 
L 519.599297 0 
L 0 0 
z
" style="fill: #ffffff"/>
  </g>
  <g id="axes_1">
   <g id="patch_2">
    <path d="M 20.878125 396.501656 
L 511.918125 396.501656 
L 511.918125 30.597656 
L 20.878125 30.597656 
z
" style="fill: #ffffff"/>
   </g>
   <g id="FillBetweenPolyCollection_1">
    <path d="M 39.064792 -96.221344 
L 39.064792 413.549456 
L 39.975947 412.135742 
L 40.887103 410.727705 
L 41.798259 409.325346 
L 42.709414 407.928664 
L 43.62057 406.53766 
L 44.531726 405.152334 
L 45.442881 403.772685 
L 46.354037 402.398714 
L 47.265192 401.03042 
L 48.176348 399.667804 
L 49.087504 398.310865 
L 49.998659 396.959604 
L 50.909815 395.61402 
L 51.820971 394.274114 
L 52.732126 392.939886 
L 53.643282 391.611335 
L 54.554438 390.288462 
L 55.465593 388.971266 
L 56.376749 387.659748 
L 57.287905 386.353908 
L 58.19906 385.053745 
L 59.110216 383.759259 
L 60.021371 382.470451 
L 60.932527 381.187321 
L 61.843683 379.909868 
L 62.754838 378.638093 
L 63.665994 377.371996 
L 64.57715 376.111576 
L 65.488305 374.856833 
L 66.399461 373.607768 
L 67.310617 372.364381 
L 68.221772 371.126671 
L 69.132928 369.894639 
L 70.044084 368.668285 
L 70.955239 367.447608 
L 71.866395 366.232608 
L 72.777551 365.023286 
L 73.688706 363.819642 
L 74.599862 362.621675 
L 75.511017 361.429386 
L 76.422173 360.242774 
L 77.333329 359.06184 
L 78.244484 357.886584 
L 79.15564 356.717005 
L 80.066796 355.553104 
L 80.977951 354.39488 
L 81.889107 353.242334 
L 82.800263 352.095465 
L 83.711418 350.954274 
L 84.622574 349.81876 
L 85.53373 348.688924 
L 86.444885 347.564766 
L 87.356041 346.446285 
L 88.267196 345.333482 
L 89.178352 344.226356 
L 90.089508 343.124908 
L 91.000663 342.029138 
L 91.911819 340.939045 
L 92.822975 339.854629 
L 93.73413 338.775891 
L 94.645286 337.702831 
L 95.556442 336.635449 
L 96.467597 335.573743 
L 97.378753 334.517716 
L 98.289909 333.467366 
L 99.201064 332.422693 
L 100.11222 331.383699 
L 101.023376 330.350381 
L 101.934531 329.322741 
L 102.845687 328.300779 
L 103.756842 327.284495 
L 104.667998 326.273888 
L 105.579154 325.268958 
L 106.490309 324.269706 
L 107.401465 323.276132 
L 108.312621 322.288235 
L 109.223776 321.306016 
L 110.134932 320.329474 
L 111.046088 319.35861 
L 111.957243 318.393424 
L 112.868399 317.433915 
L 113.779555 316.480084 
L 114.69071 315.53193 
L 115.601866 314.589454 
L 116.513021 313.652655 
L 117.424177 312.721534 
L 118.335333 311.79609 
L 119.246488 310.876324 
L 120.157644 309.962236 
L 121.0688 309.053825 
L 121.979955 308.151092 
L 122.891111 307.254036 
L 123.802267 306.362658 
L 124.713422 305.476958 
L 125.624578 304.596935 
L 126.535734 303.722589 
L 127.446889 302.853922 
L 128.358045 301.990931 
L 129.2692 301.133619 
L 130.180356 300.281983 
L 131.091512 299.436026 
L 132.002667 298.595746 
L 132.913823 297.761143 
L 133.824979 296.932219 
L 134.736134 296.108971 
L 135.64729 295.291402 
L 136.558446 294.479509 
L 137.469601 293.673295 
L 138.380757 292.872758 
L 139.291913 292.077898 
L 140.203068 291.288716 
L 141.114224 290.505212 
L 142.02538 289.727385 
L 142.936535 288.955236 
L 143.847691 288.188765 
L 144.758846 287.42797 
L 145.670002 286.672854 
L 146.581158 285.923415 
L 147.492313 285.179654 
L 148.403469 284.44157 
L 149.314625 283.709164 
L 150.22578 282.982435 
L 151.136936 282.261384 
L 152.048092 281.54601 
L 152.959247 280.836315 
L 153.870403 280.132296 
L 154.781559 279.433955 
L 155.692714 278.741292 
L 156.60387 278.054306 
L 157.515025 277.372998 
L 158.426181 276.697368 
L 159.337337 276.027415 
L 160.248492 275.363139 
L 161.159648 274.704542 
L 162.070804 274.051621 
L 162.981959 273.404379 
L 163.893115 272.762813 
L 164.804271 272.126926 
L 165.715426 271.496716 
L 166.626582 270.872183 
L 167.537738 270.253329 
L 168.448893 269.640151 
L 169.360049 269.032652 
L 170.271204 268.430829 
L 171.18236 267.834685 
L 172.093516 267.244218 
L 173.004671 266.659428 
L 173.915827 266.080316 
L 174.826983 265.506882 
L 175.738138 264.939125 
L 176.649294 264.377046 
L 177.56045 263.820645 
L 178.471605 263.269921 
L 179.382761 262.724874 
L 180.293917 262.185505 
L 181.205072 261.651814 
L 182.116228 261.1238 
L 183.027384 260.601464 
L 183.938539 260.084805 
L 184.849695 259.573824 
L 185.76085 259.068521 
L 186.672006 258.568895 
L 187.583162 258.074946 
L 188.494317 257.586675 
L 189.405473 257.104082 
L 190.316629 256.627166 
L 191.227784 256.155928 
L 192.13894 255.690368 
L 193.050096 255.230485 
L 193.961251 254.776279 
L 194.872407 254.327752 
L 195.783563 253.884901 
L 196.694718 253.447729 
L 197.605874 253.016233 
L 198.517029 252.590416 
L 199.428185 252.170276 
L 200.339341 251.755813 
L 201.250496 251.347029 
L 202.161652 250.943921 
L 203.072808 250.546492 
L 203.983963 250.154739 
L 204.895119 249.768665 
L 205.806275 249.388268 
L 206.71743 249.013548 
L 207.628586 248.644506 
L 208.539742 248.281142 
L 209.450897 247.923455 
L 210.362053 247.571446 
L 211.273209 247.225115 
L 212.184364 246.884461 
L 213.09552 246.549484 
L 214.006675 246.220185 
L 214.917831 245.896564 
L 215.828987 245.57862 
L 216.740142 245.266354 
L 217.651298 244.959765 
L 218.562454 244.658854 
L 219.473609 244.363621 
L 220.384765 244.074065 
L 221.295921 243.790186 
L 222.207076 243.511985 
L 223.118232 243.239462 
L 224.029388 242.972616 
L 224.940543 242.711448 
L 225.851699 242.455958 
L 226.762854 242.206145 
L 227.67401 241.962009 
L 228.585166 241.723552 
L 229.496321 241.490771 
L 230.407477 241.263669 
L 231.318633 241.042244 
L 232.229788 240.826496 
L 233.140944 240.616426 
L 234.0521 240.412034 
L 234.963255 240.213319 
L 235.874411 240.020281 
L 236.785567 239.832922 
L 237.696722 239.651239 
L 238.607878 239.475235 
L 239.519033 239.304908 
L 240.430189 239.140258 
L 241.341345 238.981286 
L 242.2525 238.827992 
L 243.163656 238.680375 
L 244.074812 238.538436 
L 244.985967 238.402175 
L 245.897123 238.271591 
L 246.808279 238.146684 
L 247.719434 238.027455 
L 248.63059 237.913904 
L 249.541746 237.80603 
L 250.452901 237.703834 
L 251.364057 237.607315 
L 252.275213 237.516474 
L 253.186368 237.431311 
L 254.097524 237.351825 
L 255.008679 237.278016 
L 255.919835 237.209885 
L 256.830991 237.147432 
L 257.742146 237.090656 
L 258.653302 237.039558 
L 259.564458 236.994138 
L 260.475613 236.954395 
L 261.386769 236.920329 
L 262.297925 236.891942 
L 263.20908 236.869231 
L 264.120236 236.852199 
L 265.031392 236.840844 
L 265.942547 236.835166 
L 266.853703 236.835166 
L 267.764858 236.840844 
L 268.676014 236.852199 
L 269.58717 236.869231 
L 270.498325 236.891942 
L 271.409481 236.920329 
L 272.320637 236.954395 
L 273.231792 236.994138 
L 274.142948 237.039558 
L 275.054104 237.090656 
L 275.965259 237.147432 
L 276.876415 237.209885 
L 277.787571 237.278016 
L 278.698726 237.351825 
L 279.609882 237.431311 
L 280.521037 237.516474 
L 281.432193 237.607315 
L 282.343349 237.703834 
L 283.254504 237.80603 
L 284.16566 237.913904 
L 285.076816 238.027455 
L 285.987971 238.146684 
L 286.899127 238.271591 
L 287.810283 238.402175 
L 288.721438 238.538436 
L 289.632594 238.680375 
L 290.54375 238.827992 
L 291.454905 238.981286 
L 292.366061 239.140258 
L 293.277217 239.304908 
L 294.188372 239.475235 
L 295.099528 239.651239 
L 296.010683 239.832922 
L 296.921839 240.020281 
L 297.832995 240.213319 
L 298.74415 240.412034 
L 299.655306 240.616426 
L 300.566462 240.826496 
L 301.477617 241.042244 
L 302.388773 241.263669 
L 303.299929 241.490771 
L 304.211084 241.723552 
L 305.12224 241.962009 
L 306.033396 242.206145 
L 306.944551 242.455958 
L 307.855707 242.711448 
L 308.766862 242.972616 
L 309.678018 243.239462 
L 310.589174 243.511985 
L 311.500329 243.790186 
L 312.411485 244.074065 
L 313.322641 244.363621 
L 314.233796 244.658854 
L 315.144952 244.959765 
L 316.056108 245.266354 
L 316.967263 245.57862 
L 317.878419 245.896564 
L 318.789575 246.220185 
L 319.70073 246.549484 
L 320.611886 246.884461 
L 321.523041 247.225115 
L 322.434197 247.571446 
L 323.345353 247.923455 
L 324.256508 248.281142 
L 325.167664 248.644506 
L 326.07882 249.013548 
L 326.989975 249.388268 
L 327.901131 249.768665 
L 328.812287 250.154739 
L 329.723442 250.546492 
L 330.634598 250.943921 
L 331.545754 251.347029 
L 332.456909 251.755813 
L 333.368065 252.170276 
L 334.279221 252.590416 
L 335.190376 253.016233 
L 336.101532 253.447729 
L 337.012687 253.884901 
L 337.923843 254.327752 
L 338.834999 254.776279 
L 339.746154 255.230485 
L 340.65731 255.690368 
L 341.568466 256.155928 
L 342.479621 256.627166 
L 343.390777 257.104082 
L 344.301933 257.586675 
L 345.213088 258.074946 
L 346.124244 258.568895 
L 347.0354 259.068521 
L 347.946555 259.573824 
L 348.857711 260.084805 
L 349.768866 260.601464 
L 350.680022 261.1238 
L 351.591178 261.651814 
L 352.502333 262.185505 
L 353.413489 262.724874 
L 354.324645 263.269921 
L 355.2358 263.820645 
L 356.146956 264.377046 
L 357.058112 264.939125 
L 357.969267 265.506882 
L 358.880423 266.080316 
L 359.791579 266.659428 
L 360.702734 267.244218 
L 361.61389 267.834685 
L 362.525046 268.430829 
L 363.436201 269.032652 
L 364.347357 269.640151 
L 365.258512 270.253329 
L 366.169668 270.872183 
L 367.080824 271.496716 
L 367.991979 272.126926 
L 368.903135 272.762813 
L 369.814291 273.404379 
L 370.725446 274.051621 
L 371.636602 274.704542 
L 372.547758 275.363139 
L 373.458913 276.027415 
L 374.370069 276.697368 
L 375.281225 277.372998 
L 376.19238 278.054306 
L 377.103536 278.741292 
L 378.014691 279.433955 
L 378.925847 280.132296 
L 379.837003 280.836315 
L 380.748158 281.54601 
L 381.659314 282.261384 
L 382.57047 282.982435 
L 383.481625 283.709164 
L 384.392781 284.44157 
L 385.303937 285.179654 
L 386.215092 285.923415 
L 387.126248 286.672854 
L 388.037404 287.42797 
L 388.948559 288.188765 
L 389.859715 288.955236 
L 390.77087 289.727385 
L 391.682026 290.505212 
L 392.593182 291.288716 
L 393.504337 292.077898 
L 394.415493 292.872758 
L 395.326649 293.673295 
L 396.237804 294.479509 
L 397.14896 295.291402 
L 398.060116 296.108971 
L 398.971271 296.932219 
L 399.882427 297.761143 
L 400.793583 298.595746 
L 401.704738 299.436026 
L 402.615894 300.281983 
L 403.52705 301.133619 
L 404.438205 301.990931 
L 405.349361 302.853922 
L 406.260516 303.722589 
L 407.171672 304.596935 
L 408.082828 305.476958 
L 408.993983 306.362658 
L 409.905139 307.254036 
L 410.816295 308.151092 
L 411.72745 309.053825 
L 412.638606 309.962236 
L 413.549762 310.876324 
L 414.460917 311.79609 
L 415.372073 312.721534 
L 416.283229 313.652655 
L 417.194384 314.589454 
L 418.10554 315.53193 
L 419.016695 316.480084 
L 419.927851 317.433915 
L 420.839007 318.393424 
L 421.750162 319.35861 
L 422.661318 320.329474 
L 423.572474 321.306016 
L 424.483629 322.288235 
L 425.394785 323.276132 
L 426.305941 324.269706 
L 427.217096 325.268958 
L 428.128252 326.273888 
L 429.039408 327.284495 
L 429.950563 328.300779 
L 430.861719 329.322741 
L 431.772874 330.350381 
L 432.68403 331.383699 
L 433.595186 332.422693 
L 434.506341 333.467366 
L 435.417497 334.517716 
L 436.328653 335.573743 
L 437.239808 336.635449 
L 438.150964 337.702831 
L 439.06212 338.775891 
L 439.973275 339.854629 
L 440.884431 340.939045 
L 441.795587 342.029138 
L 442.706742 343.124908 
L 443.617898 344.226356 
L 444.529054 345.333482 
L 445.440209 346.446285 
L 446.351365 347.564766 
L 447.26252 348.688924 
L 448.173676 349.81876 
L 449.084832 350.954274 
L 449.995987 352.095465 
L 450.907143 353.242334 
L 451.818299 354.39488 
L 452.729454 355.553104 
L 453.64061 356.717005 
L 454.551766 357.886584 
L 455.462921 359.06184 
L 456.374077 360.242774 
L 457.285233 361.429386 
L 458.196388 362.621675 
L 459.107544 363.819642 
L 460.018699 365.023286 
L 460.929855 366.232608 
L 461.841011 367.447608 
L 462.752166 368.668285 
L 463.663322 369.894639 
L 464.574478 371.126671 
L 465.485633 372.364381 
L 466.396789 373.607768 
L 467.307945 374.856833 
L 468.2191 376.111576 
L 469.130256 377.371996 
L 470.041412 378.638093 
L 470.952567 379.909868 
L 471.863723 381.187321 
L 472.774879 382.470451 
L 473.686034 383.759259 
L 474.59719 385.053745 
L 475.508345 386.353908 
L 476.419501 387.659748 
L 477.330657 388.971266 
L 478.241812 390.288462 
L 479.152968 391.611335 
L 480.064124 392.939886 
L 480.975279 394.274114 
L 481.886435 395.61402 
L 482.797591 396.959604 
L 483.708746 398.310865 
L 484.619902 399.667804 
L 485.531058 401.03042 
L 486.442213 402.398714 
L 487.353369 403.772685 
L 488.264524 405.152334 
L 489.17568 406.53766 
L 490.086836 407.928664 
L 490.997991 409.325346 
L 491.909147 410.727705 
L 492.820303 412.135742 
L 493.731458 413.549456 
L 493.731458 -96.221344 
L 493.731458 -96.221344 
L 492.820303 -94.64131 
L 491.909147 -93.067622 
L 490.997991 -91.500279 
L 490.086836 -89.939282 
L 489.17568 -88.384631 
L 488.264524 -86.836325 
L 487.353369 -85.294364 
L 486.442213 -83.758749 
L 485.531058 -82.229479 
L 484.619902 -80.706555 
L 483.708746 -79.189977 
L 482.797591 -77.679744 
L 481.886435 -76.175857 
L 480.975279 -74.678315 
L 480.064124 -73.187118 
L 479.152968 -71.702267 
L 478.241812 -70.223762 
L 477.330657 -68.751602 
L 476.419501 -67.285788 
L 475.508345 -65.826319 
L 474.59719 -64.373196 
L 473.686034 -62.926418 
L 472.774879 -61.485985 
L 471.863723 -60.051899 
L 470.952567 -58.624157 
L 470.041412 -57.202762 
L 469.130256 -55.787711 
L 468.2191 -54.379007 
L 467.307945 -52.976648 
L 466.396789 -51.580634 
L 465.485633 -50.190966 
L 464.574478 -48.807643 
L 463.663322 -47.430666 
L 462.752166 -46.060034 
L 461.841011 -44.695748 
L 460.929855 -43.337808 
L 460.018699 -41.986213 
L 459.107544 -40.640963 
L 458.196388 -39.302059 
L 457.285233 -37.969501 
L 456.374077 -36.643288 
L 455.462921 -35.32342 
L 454.551766 -34.009898 
L 453.64061 -32.702722 
L 452.729454 -31.401891 
L 451.818299 -30.107405 
L 450.907143 -28.819266 
L 449.995987 -27.537471 
L 449.084832 -26.262022 
L 448.173676 -24.992919 
L 447.26252 -23.730161 
L 446.351365 -22.473749 
L 445.440209 -21.223682 
L 444.529054 -19.979961 
L 443.617898 -18.742585 
L 442.706742 -17.511555 
L 441.795587 -16.28687 
L 440.884431 -15.068531 
L 439.973275 -13.856537 
L 439.06212 -12.650889 
L 438.150964 -11.451586 
L 437.239808 -10.258629 
L 436.328653 -9.072018 
L 435.417497 -7.891751 
L 434.506341 -6.717831 
L 433.595186 -5.550256 
L 432.68403 -4.389026 
L 431.772874 -3.234142 
L 430.861719 -2.085604 
L 429.950563 -0.943411 
L 429.039408 0.192437 
L 428.128252 1.321939 
L 427.217096 2.445095 
L 426.305941 3.561906 
L 425.394785 4.672372 
L 424.483629 5.776491 
L 423.572474 6.874266 
L 422.661318 7.965695 
L 421.750162 9.050778 
L 420.839007 10.129516 
L 419.927851 11.201908 
L 419.016695 12.267955 
L 418.10554 13.327656 
L 417.194384 14.381012 
L 416.283229 15.428022 
L 415.372073 16.468687 
L 414.460917 17.503006 
L 413.549762 18.53098 
L 412.638606 19.552608 
L 411.72745 20.567891 
L 410.816295 21.576828 
L 409.905139 22.57942 
L 408.993983 23.575666 
L 408.082828 24.565566 
L 407.171672 25.549121 
L 406.260516 26.526331 
L 405.349361 27.497195 
L 404.438205 28.461714 
L 403.52705 29.419887 
L 402.615894 30.371714 
L 401.704738 31.317196 
L 400.793583 32.256333 
L 399.882427 33.189124 
L 398.971271 34.115569 
L 398.060116 35.035669 
L 397.14896 35.949423 
L 396.237804 36.856832 
L 395.326649 37.757896 
L 394.415493 38.652613 
L 393.504337 39.540986 
L 392.593182 40.423013 
L 391.682026 41.298694 
L 390.77087 42.16803 
L 389.859715 43.03102 
L 388.948559 43.887665 
L 388.037404 44.737964 
L 387.126248 45.581918 
L 386.215092 46.419526 
L 385.303937 47.250788 
L 384.392781 48.075706 
L 383.481625 48.894277 
L 382.57047 49.706503 
L 381.659314 50.512384 
L 380.748158 51.311919 
L 379.837003 52.105109 
L 378.925847 52.891953 
L 378.014691 53.672451 
L 377.103536 54.446604 
L 376.19238 55.214412 
L 375.281225 55.975874 
L 374.370069 56.73099 
L 373.458913 57.479761 
L 372.547758 58.222187 
L 371.636602 58.958267 
L 370.725446 59.688001 
L 369.814291 60.41139 
L 368.903135 61.128433 
L 367.991979 61.839131 
L 367.080824 62.543484 
L 366.169668 63.241491 
L 365.258512 63.933152 
L 364.347357 64.618468 
L 363.436201 65.297438 
L 362.525046 65.970063 
L 361.61389 66.636342 
L 360.702734 67.296276 
L 359.791579 67.949864 
L 358.880423 68.597107 
L 357.969267 69.238004 
L 357.058112 69.872555 
L 356.146956 70.500762 
L 355.2358 71.122622 
L 354.324645 71.738137 
L 353.413489 72.347307 
L 352.502333 72.950131 
L 351.591178 73.54661 
L 350.680022 74.136743 
L 349.768866 74.72053 
L 348.857711 75.297972 
L 347.946555 75.869069 
L 347.0354 76.43382 
L 346.124244 76.992225 
L 345.213088 77.544285 
L 344.301933 78.09 
L 343.390777 78.629368 
L 342.479621 79.162392 
L 341.568466 79.68907 
L 340.65731 80.209402 
L 339.746154 80.723389 
L 338.834999 81.23103 
L 337.923843 81.732326 
L 337.012687 82.227276 
L 336.101532 82.715881 
L 335.190376 83.198141 
L 334.279221 83.674054 
L 333.368065 84.143622 
L 332.456909 84.606845 
L 331.545754 85.063722 
L 330.634598 85.514254 
L 329.723442 85.95844 
L 328.812287 86.396281 
L 327.901131 86.827776 
L 326.989975 87.252926 
L 326.07882 87.67173 
L 325.167664 88.084188 
L 324.256508 88.490301 
L 323.345353 88.890069 
L 322.434197 89.283491 
L 321.523041 89.670568 
L 320.611886 90.051299 
L 319.70073 90.425684 
L 318.789575 90.793724 
L 317.878419 91.155418 
L 316.967263 91.510767 
L 316.056108 91.859771 
L 315.144952 92.202429 
L 314.233796 92.538741 
L 313.322641 92.868708 
L 312.411485 93.192329 
L 311.500329 93.509605 
L 310.589174 93.820535 
L 309.678018 94.12512 
L 308.766862 94.42336 
L 307.855707 94.715253 
L 306.944551 95.000802 
L 306.033396 95.280004 
L 305.12224 95.552861 
L 304.211084 95.819373 
L 303.299929 96.079539 
L 302.388773 96.33336 
L 301.477617 96.580835 
L 300.566462 96.821965 
L 299.655306 97.056749 
L 298.74415 97.285188 
L 297.832995 97.507281 
L 296.921839 97.723028 
L 296.010683 97.93243 
L 295.099528 98.135487 
L 294.188372 98.332198 
L 293.277217 98.522563 
L 292.366061 98.706583 
L 291.454905 98.884258 
L 290.54375 99.055587 
L 289.632594 99.22057 
L 288.721438 99.379208 
L 287.810283 99.5315 
L 286.899127 99.677447 
L 285.987971 99.817049 
L 285.076816 99.950305 
L 284.16566 100.077215 
L 283.254504 100.19778 
L 282.343349 100.311999 
L 281.432193 100.419873 
L 280.521037 100.521401 
L 279.609882 100.616584 
L 278.698726 100.705421 
L 277.787571 100.787913 
L 276.876415 100.864059 
L 275.965259 100.93386 
L 275.054104 100.997315 
L 274.142948 101.054424 
L 273.231792 101.105189 
L 272.320637 101.149607 
L 271.409481 101.18768 
L 270.498325 101.219408 
L 269.58717 101.24479 
L 268.676014 101.263827 
L 267.764858 101.276518 
L 266.853703 101.282863 
L 265.942547 101.282863 
L 265.031392 101.276518 
L 264.120236 101.263827 
L 263.20908 101.24479 
L 262.297925 101.219408 
L 261.386769 101.18768 
L 260.475613 101.149607 
L 259.564458 101.105189 
L 258.653302 101.054424 
L 257.742146 100.997315 
L 256.830991 100.93386 
L 255.919835 100.864059 
L 255.008679 100.787913 
L 254.097524 100.705421 
L 253.186368 100.616584 
L 252.275213 100.521401 
L 251.364057 100.419873 
L 250.452901 100.311999 
L 249.541746 100.19778 
L 248.63059 100.077215 
L 247.719434 99.950305 
L 246.808279 99.817049 
L 245.897123 99.677447 
L 244.985967 99.5315 
L 244.074812 99.379208 
L 243.163656 99.22057 
L 242.2525 99.055587 
L 241.341345 98.884258 
L 240.430189 98.706583 
L 239.519033 98.522563 
L 238.607878 98.332198 
L 237.696722 98.135487 
L 236.785567 97.93243 
L 235.874411 97.723028 
L 234.963255 97.507281 
L 234.0521 97.285188 
L 233.140944 97.056749 
L 232.229788 96.821965 
L 231.318633 96.580835 
L 230.407477 96.33336 
L 229.496321 96.079539 
L 228.585166 95.819373 
L 227.67401 95.552861 
L 226.762854 95.280004 
L 225.851699 95.000802 
L 224.940543 94.715253 
L 224.029388 94.42336 
L 223.118232 94.12512 
L 222.207076 93.820535 
L 221.295921 93.509605 
L 220.384765 93.192329 
L 219.473609 92.868708 
L 218.562454 92.538741 
L 217.651298 92.202429 
L 216.740142 91.859771 
L 215.828987 91.510767 
L 214.917831 91.155418 
L 214.006675 90.793724 
L 213.09552 90.425684 
L 212.184364 90.051299 
L 211.273209 89.670568 
L 210.362053 89.283491 
L 209.450897 88.890069 
L 208.539742 88.490301 
L 207.628586 88.084188 
L 206.71743 87.67173 
L 205.806275 87.252926 
L 204.895119 86.827776 
L 203.983963 86.396281 
L 203.072808 85.95844 
L 202.161652 85.514254 
L 201.250496 85.063722 
L 200.339341 84.606845 
L 199.428185 84.143622 
L 198.517029 83.674054 
L 197.605874 83.198141 
L 196.694718 82.715881 
L 195.783563 82.227276 
L 194.872407 81.732326 
L 193.961251 81.23103 
L 193.050096 80.723389 
L 192.13894 80.209402 
L 191.227784 79.68907 
L 190.316629 79.162392 
L 189.405473 78.629368 
L 188.494317 78.09 
L 187.583162 77.544285 
L 186.672006 76.992225 
L 185.76085 76.43382 
L 184.849695 75.869069 
L 183.938539 75.297972 
L 183.027384 74.72053 
L 182.116228 74.136743 
L 181.205072 73.54661 
L 180.293917 72.950131 
L 179.382761 72.347307 
L 178.471605 71.738137 
L 177.56045 71.122622 
L 176.649294 70.500762 
L 175.738138 69.872555 
L 174.826983 69.238004 
L 173.915827 68.597107 
L 173.004671 67.949864 
L 172.093516 67.296276 
L 171.18236 66.636342 
L 170.271204 65.970063 
L 169.360049 65.297438 
L 168.448893 64.618468 
L 167.537738 63.933152 
L 166.626582 63.241491 
L 165.715426 62.543484 
L 164.804271 61.839131 
L 163.893115 61.128433 
L 162.981959 60.41139 
L 162.070804 59.688001 
L 161.159648 58.958267 
L 160.248492 58.222187 
L 159.337337 57.479761 
L 158.426181 56.73099 
L 157.515025 55.975874 
L 156.60387 55.214412 
L 155.692714 54.446604 
L 154.781559 53.672451 
L 153.870403 52.891953 
L 152.959247 52.105109 
L 152.048092 51.311919 
L 151.136936 50.512384 
L 150.22578 49.706503 
L 149.314625 48.894277 
L 148.403469 48.075706 
L 147.492313 47.250788 
L 146.581158 46.419526 
L 145.670002 45.581918 
L 144.758846 44.737964 
L 143.847691 43.887665 
L 142.936535 43.03102 
L 142.02538 42.16803 
L 141.114224 41.298694 
L 140.203068 40.423013 
L 139.291913 39.540986 
L 138.380757 38.652613 
L 137.469601 37.757896 
L 136.558446 36.856832 
L 135.64729 35.949423 
L 134.736134 35.035669 
L 133.824979 34.115569 
L 132.913823 33.189124 
L 132.002667 32.256333 
L 131.091512 31.317196 
L 130.180356 30.371714 
L 129.2692 29.419887 
L 128.358045 28.461714 
L 127.446889 27.497195 
L 126.535734 26.526331 
L 125.624578 25.549121 
L 124.713422 24.565566 
L 123.802267 23.575666 
L 122.891111 22.57942 
L 121.979955 21.576828 
L 121.0688 20.567891 
L 120.157644 19.552608 
L 119.246488 18.53098 
L 118.335333 17.503006 
L 117.424177 16.468687 
L 116.513021 15.428022 
L 115.601866 14.381012 
L 114.69071 13.327656 
L 113.779555 12.267955 
L 112.868399 11.201908 
L 111.957243 10.129516 
L 111.046088 9.050778 
L 110.134932 7.965695 
L 109.223776 6.874266 
L 108.312621 5.776491 
L 107.401465 4.672372 
L 106.490309 3.561906 
L 105.579154 2.445095 
L 104.667998 1.321939 
L 103.756842 0.192437 
L 102.845687 -0.943411 
L 101.934531 -2.085604 
L 101.023376 -3.234142 
L 100.11222 -4.389026 
L 99.201064 -5.550256 
L 98.289909 -6.717831 
L 97.378753 -7.891751 
L 96.467597 -9.072018 
L 95.556442 -10.258629 
L 94.645286 -11.451586 
L 93.73413 -12.650889 
L 92.822975 -13.856537 
L 91.911819 -15.068531 
L 91.000663 -16.28687 
L 90.089508 -17.511555 
L 89.178352 -18.742585 
L 88.267196 -19.979961 
L 87.356041 -21.223682 
L 86.444885 -22.473749 
L 85.53373 -23.730161 
L 84.622574 -24.992919 
L 83.711418 -26.262022 
L 82.800263 -27.537471 
L 81.889107 -28.819266 
L 80.977951 -30.107405 
L 80.066796 -31.401891 
L 79.15564 -32.702722 
L 78.244484 -34.009898 
L 77.333329 -35.32342 
L 76.422173 -36.643288 
L 75.511017 -37.969501 
L 74.599862 -39.302059 
L 73.688706 -40.640963 
L 72.777551 -41.986213 
L 71.866395 -43.337808 
L 70.955239 -44.695748 
L 70.044084 -46.060034 
L 69.132928 -47.430666 
L 68.221772 -48.807643 
L 67.310617 -50.190966 
L 66.399461 -51.580634 
L 65.488305 -52.976648 
L 64.57715 -54.379007 
L 63.665994 -55.787711 
L 62.754838 -57.202762 
L 61.843683 -58.624157 
L 60.932527 -60.051899 
L 60.021371 -61.485985 
L 59.110216 -62.926418 
L 58.19906 -64.373196 
L 57.287905 -65.826319 
L 56.376749 -67.285788 
L 55.465593 -68.751602 
L 54.554438 -70.223762 
L 53.643282 -71.702267 
L 52.732126 -73.187118 
L 51.820971 -74.678315 
L 50.909815 -76.175857 
L 49.998659 -77.679744 
L 49.087504 -79.189977 
L 48.176348 -80.706555 
L 47.265192 -82.229479 
L 46.354037 -83.758749 
L 45.442881 -85.294364 
L 44.531726 -86.836325 
L 43.62057 -88.384631 
L 42.709414 -89.939282 
L 41.798259 -91.500279 
L 40.887103 -93.067622 
L 39.975947 -94.64131 
L 39.064792 -96.221344 
z
" clip-path="url(#pb93d932a41)" style="fill: #1f77b4; fill-opacity: 0.08"/>
   </g>
   <g id="patch_3">
    <path d="M 148.184792 289.607792 
C 149.63174 289.607792 151.019619 289.082057 152.042766 288.146372 
C 153.065913 287.210688 153.640792 285.94145 153.640792 284.618192 
C 153.640792 283.294935 153.065913 282.025697 152.042766 281.090012 
C 151.019619 280.154328 149.63174 279.628592 148.184792 279.628592 
C 146.737844 279.628592 145.349964 280.154328 144.326817 281.090012 
C 143.30367 282.025697 142.728792 283.294935 142.728792 284.618192 
C 142.728792 285.94145 143.30367 287.210688 144.326817 288.146372 
C 145.349964 289.082057 146.737844 289.607792 148.184792 289.607792 
z
" clip-path="url(#pb93d932a41)" style="fill: #1f77b4; opacity: 0.8"/>
   </g>
   <g id="patch_4">
    <path d="M 148.184792 215.179592 
C 149.752319 215.179592 151.255855 214.610045 152.364264 213.596387 
C 153.472673 212.582729 154.095458 211.207721 154.095458 209.774192 
C 154.095458 208.340663 153.472673 206.965655 152.364264 205.951997 
C 151.255855 204.938339 149.752319 204.368792 148.184792 204.368792 
C 146.617265 204.368792 145.113728 204.938339 144.005319 205.951997 
C 142.89691 206.965655 142.274125 208.340663 142.274125 209.774192 
C 142.274125 211.207721 142.89691 212.582729 144.005319 213.596387 
C 145.113728 214.610045 146.617265 215.179592 148.184792 215.179592 
L 148.184792 215.179592 
z
" clip-path="url(#pb93d932a41)" style="fill: none; stroke: #000000; stroke-width: 1.3; stroke-linejoin: miter"/>
   </g>
   <g id="patch_5">
    <path d="M 266.398125 241.824056 
C 267.845073 241.824056 269.232953 241.298321 270.2561 240.362636 
C 271.279246 239.426952 271.854125 238.157714 271.854125 236.834456 
C 271.854125 235.511199 271.279246 234.241961 270.2561 233.306276 
C 269.232953 232.370592 267.845073 231.844856 266.398125 231.844856 
C 264.951177 231.844856 263.563297 232.370592 262.54015 233.306276 
C 261.517004 234.241961 260.942125 235.511199 260.942125 236.834456 
C 260.942125 238.157714 261.517004 239.426952 262.54015 240.362636 
C 263.563297 241.298321 264.951177 241.824056 266.398125 241.824056 
z
" clip-path="url(#pb93d932a41)" style="fill: #1f77b4; opacity: 0.8"/>
   </g>
   <g id="patch_6">
    <path d="M 266.398125 167.395856 
C 267.965652 167.395856 269.469188 166.826309 270.577597 165.812651 
C 271.686007 164.798993 272.308792 163.423985 272.308792 161.990456 
C 272.308792 160.556927 271.686007 159.181919 270.577597 158.168261 
C 269.469188 157.154603 267.965652 156.585056 266.398125 156.585056 
C 264.830598 156.585056 263.327062 157.154603 262.218653 158.168261 
C 261.110243 159.181919 260.487458 160.556927 260.487458 161.990456 
C 260.487458 163.423985 261.110243 164.798993 262.218653 165.812651 
C 263.327062 166.826309 264.830598 167.395856 266.398125 167.395856 
L 266.398125 167.395856 
z
" clip-path="url(#pb93d932a41)" style="fill: none; stroke: #000000; stroke-width: 1.3; stroke-linejoin: miter"/>
   </g>
   <g id="patch_7">
    <path d="M 380.064792 286.002806 
C 381.51174 286.002806 382.899619 285.477071 383.922766 284.541386 
C 384.945913 283.605702 385.520792 282.336464 385.520792 281.013206 
C 385.520792 279.689949 384.945913 278.420711 383.922766 277.485026 
C 382.899619 276.549342 381.51174 276.023606 380.064792 276.023606 
C 378.617844 276.023606 377.229964 276.549342 376.206817 277.485026 
C 375.18367 278.420711 374.608792 279.689949 374.608792 281.013206 
C 374.608792 282.336464 375.18367 283.605702 376.206817 284.541386 
C 377.229964 285.477071 378.617844 286.002806 380.064792 286.002806 
z
" clip-path="url(#pb93d932a41)" style="fill: #1f77b4; opacity: 0.8"/>
   </g>
   <g id="patch_8">
    <path d="M 380.064792 211.574606 
C 381.632319 211.574606 383.135855 211.005059 384.244264 209.991401 
C 385.352673 208.977743 385.975458 207.602735 385.975458 206.169206 
C 385.975458 204.735677 385.352673 203.360669 384.244264 202.347011 
C 383.135855 201.333353 381.632319 200.763806 380.064792 200.763806 
C 378.497265 200.763806 376.993728 201.333353 375.885319 202.347011 
C 374.77691 203.360669 374.154125 204.735677 374.154125 206.169206 
C 374.154125 207.602735 374.77691 208.977743 375.885319 209.991401 
C 376.993728 211.005059 378.497265 211.574606 380.064792 211.574606 
L 380.064792 211.574606 
z
" clip-path="url(#pb93d932a41)" style="fill: none; stroke: #000000; stroke-width: 1.3; stroke-linejoin: miter"/>
   </g>
   <g id="matplotlib.axis_1">
    <g id="text_1">
     <!-- vettore d'onda -->
     <g transform="translate(229.759063 408.100094) scale(0.1 -0.1)">
      <defs>
       <path id="DejaVuSans-76" d="M 191 3500 
L 800 3500 
L 1894 563 
L 2988 3500 
L 3597 3500 
L 2284 0 
L 1503 0 
L 191 3500 
z
" transform="scale(0.015625)"/>
       <path id="DejaVuSans-65" d="M 3597 1894 
L 3597 1613 
L 953 1613 
Q 991 1019 1311 708 
Q 1631 397 2203 397 
Q 2534 397 2845 478 
Q 3156 559 3463 722 
L 3463 178 
Q 3153 47 2828 -22 
Q 2503 -91 2169 -91 
Q 1331 -91 842 396 
Q 353 884 353 1716 
Q 353 2575 817 3079 
Q 1281 3584 2069 3584 
Q 2775 3584 3186 3129 
Q 3597 2675 3597 1894 
z
M 3022 2063 
Q 3016 2534 2758 2815 
Q 2500 3097 2075 3097 
Q 1594 3097 1305 2825 
Q 1016 2553 972 2059 
L 3022 2063 
z
" transform="scale(0.015625)"/>
       <path id="DejaVuSans-74" d="M 1172 4494 
L 1172 3500 
L 2356 3500 
L 2356 3053 
L 1172 3053 
L 1172 1153 
Q 1172 725 1289 603 
Q 1406 481 1766 481 
L 2356 481 
L 2356 0 
L 1766 0 
Q 1100 0 847 248 
Q 594 497 594 1153 
L 594 3053 
L 172 3053 
L 172 3500 
L 594 3500 
L 594 4494 
L 1172 4494 
z
" transform="scale(0.015625)"/>
       <path id="DejaVuSans-6f" d="M 1959 3097 
Q 1497 3097 1228 2736 
Q 959 2375 959 1747 
Q 959 1119 1226 758 
Q 1494 397 1959 397 
Q 2419 397 2687 759 
Q 2956 1122 2956 1747 
Q 2956 2369 2687 2733 
Q 2419 3097 1959 3097 
z
M 1959 3584 
Q 2709 3584 3137 3096 
Q 3566 2609 3566 1747 
Q 3566 888 3137 398 
Q 2709 -91 1959 -91 
Q 1206 -91 779 398 
Q 353 888 353 1747 
Q 353 2609 779 3096 
Q 1206 3584 1959 3584 
z
" transform="scale(0.015625)"/>
       <path id="DejaVuSans-72" d="M 2631 2963 
Q 2534 3019 2420 3045 
Q 2306 3072 2169 3072 
Q 1681 3072 1420 2755 
Q 1159 2438 1159 1844 
L 1159 0 
L 581 0 
L 581 3500 
L 1159 3500 
L 1159 2956 
Q 1341 3275 1631 3429 
Q 1922 3584 2338 3584 
Q 2397 3584 2469 3576 
Q 2541 3569 2628 3553 
L 2631 2963 
z
" transform="scale(0.015625)"/>
       <path id="DejaVuSans-20" transform="scale(0.015625)"/>
       <path id="DejaVuSans-64" d="M 2906 2969 
L 2906 4863 
L 3481 4863 
L 3481 0 
L 2906 0 
L 2906 525 
Q 2725 213 2448 61 
Q 2172 -91 1784 -91 
Q 1150 -91 751 415 
Q 353 922 353 1747 
Q 353 2572 751 3078 
Q 1150 3584 1784 3584 
Q 2172 3584 2448 3432 
Q 2725 3281 2906 2969 
z
M 947 1747 
Q 947 1113 1208 752 
Q 1469 391 1925 391 
Q 2381 391 2643 752 
Q 2906 1113 2906 1747 
Q 2906 2381 2643 2742 
Q 2381 3103 1925 3103 
Q 1469 3103 1208 2742 
Q 947 2381 947 1747 
z
" transform="scale(0.015625)"/>
       <path id="DejaVuSans-27" d="M 1147 4666 
L 1147 2931 
L 616 2931 
L 616 4666 
L 1147 4666 
z
" transform="scale(0.015625)"/>
       <path id="DejaVuSans-6e" d="M 3513 2113 
L 3513 0 
L 2938 0 
L 2938 2094 
Q 2938 2591 2744 2837 
Q 2550 3084 2163 3084 
Q 1697 3084 1428 2787 
Q 1159 2491 1159 1978 
L 1159 0 
L 581 0 
L 581 3500 
L 1159 3500 
L 1159 2956 
Q 1366 3272 1645 3428 
Q 1925 3584 2291 3584 
Q 2894 3584 3203 3211 
Q 3513 2838 3513 2113 
z
" transform="scale(0.015625)"/>
       <path id="DejaVuSans-61" d="M 2194 1759 
Q 1497 1759 1228 1600 
Q 959 1441 959 1056 
Q 959 750 1161 570 
Q 1363 391 1709 391 
Q 2188 391 2477 730 
Q 2766 1069 2766 1631 
L 2766 1759 
L 2194 1759 
z
M 3341 1997 
L 3341 0 
L 2766 0 
L 2766 531 
Q 2569 213 2275 61 
Q 1981 -91 1556 -91 
Q 1019 -91 701 211 
Q 384 513 384 1019 
Q 384 1609 779 1909 
Q 1175 2209 1959 2209 
L 2766 2209 
L 2766 2266 
Q 2766 2663 2505 2880 
Q 2244 3097 1772 3097 
Q 1472 3097 1187 3025 
Q 903 2953 641 2809 
L 641 3341 
Q 956 3463 1253 3523 
Q 1550 3584 1831 3584 
Q 2591 3584 2966 3190 
Q 3341 2797 3341 1997 
z
" transform="scale(0.015625)"/>
      </defs>
      <use xlink:href="#DejaVuSans-76"/>
      <use xlink:href="#DejaVuSans-65" transform="translate(59.179688 0)"/>
      <use xlink:href="#DejaVuSans-74" transform="translate(120.703125 0)"/>
      <use xlink:href="#DejaVuSans-74" transform="translate(159.912109 0)"/>
      <use xlink:href="#DejaVuSans-6f" transform="translate(199.121094 0)"/>
      <use xlink:href="#DejaVuSans-72" transform="translate(260.302734 0)"/>
      <use xlink:href="#DejaVuSans-65" transform="translate(299.166016 0)"/>
      <use xlink:href="#DejaVuSans-20" transform="translate(360.689453 0)"/>
      <use xlink:href="#DejaVuSans-64" transform="translate(392.476562 0)"/>
      <use xlink:href="#DejaVuSans-27" transform="translate(455.953125 0)"/>
      <use xlink:href="#DejaVuSans-6f" transform="translate(483.443359 0)"/>
      <use xlink:href="#DejaVuSans-6e" transform="translate(544.625 0)"/>
      <use xlink:href="#DejaVuSans-64" transform="translate(608.003906 0)"/>
      <use xlink:href="#DejaVuSans-61" transform="translate(671.480469 0)"/>
     </g>
    </g>
   </g>
   <g id="matplotlib.axis_2">
    <g id="text_2">
     <!-- energia -->
     <g transform="translate(14.798438 232.466844) rotate(-90) scale(0.1 -0.1)">
      <defs>
       <path id="DejaVuSans-67" d="M 2906 1791 
Q 2906 2416 2648 2759 
Q 2391 3103 1925 3103 
Q 1463 3103 1205 2759 
Q 947 2416 947 1791 
Q 947 1169 1205 825 
Q 1463 481 1925 481 
Q 2391 481 2648 825 
Q 2906 1169 2906 1791 
z
M 3481 434 
Q 3481 -459 3084 -895 
Q 2688 -1331 1869 -1331 
Q 1566 -1331 1297 -1286 
Q 1028 -1241 775 -1147 
L 775 -588 
Q 1028 -725 1275 -790 
Q 1522 -856 1778 -856 
Q 2344 -856 2625 -561 
Q 2906 -266 2906 331 
L 2906 616 
Q 2728 306 2450 153 
Q 2172 0 1784 0 
Q 1141 0 747 490 
Q 353 981 353 1791 
Q 353 2603 747 3093 
Q 1141 3584 1784 3584 
Q 2172 3584 2450 3431 
Q 2728 3278 2906 2969 
L 2906 3500 
L 3481 3500 
L 3481 434 
z
" transform="scale(0.015625)"/>
       <path id="DejaVuSans-69" d="M 603 3500 
L 1178 3500 
L 1178 0 
L 603 0 
L 603 3500 
z
M 603 4863 
L 1178 4863 
L 1178 4134 
L 603 4134 
L 603 4863 
z
" transform="scale(0.015625)"/>
      </defs>
      <use xlink:href="#DejaVuSans-65"/>
      <use xlink:href="#DejaVuSans-6e" transform="translate(61.523438 0)"/>
      <use xlink:href="#DejaVuSans-65" transform="translate(124.902344 0)"/>
      <use xlink:href="#DejaVuSans-72" transform="translate(186.425781 0)"/>
      <use xlink:href="#DejaVuSans-67" transform="translate(225.789062 0)"/>
      <use xlink:href="#DejaVuSans-69" transform="translate(289.265625 0)"/>
      <use xlink:href="#DejaVuSans-61" transform="translate(317.048828 0)"/>
     </g>
    </g>
   </g>
   <g id="line2d_1">
    <path d="M 39.064792 413.549456 
L 47.265192 401.03042 
L 54.554438 390.288462 
L 61.843683 379.909868 
L 69.132928 369.894639 
L 76.422173 360.242774 
L 83.711418 350.954274 
L 91.000663 342.029138 
L 98.289909 333.467366 
L 105.579154 325.268958 
L 112.868399 317.433915 
L 120.157644 309.962236 
L 126.535734 303.722589 
L 132.913823 297.761143 
L 139.291913 292.077898 
L 145.670002 286.672854 
L 152.048092 281.54601 
L 158.426181 276.697368 
L 164.804271 272.126926 
L 171.18236 267.834685 
L 177.56045 263.820645 
L 183.938539 260.084805 
L 190.316629 256.627166 
L 196.694718 253.447729 
L 203.072808 250.546492 
L 209.450897 247.923455 
L 214.917831 245.896564 
L 220.384765 244.074065 
L 225.851699 242.455958 
L 231.318633 241.042244 
L 236.785567 239.832922 
L 242.2525 238.827992 
L 247.719434 238.027455 
L 253.186368 237.431311 
L 258.653302 237.039558 
L 264.120236 236.852199 
L 269.58717 236.869231 
L 275.054104 237.090656 
L 280.521037 237.516474 
L 285.987971 238.146684 
L 291.454905 238.981286 
L 296.921839 240.020281 
L 302.388773 241.263669 
L 307.855707 242.711448 
L 313.322641 244.363621 
L 318.789575 246.220185 
L 324.256508 248.281142 
L 330.634598 250.943921 
L 337.012687 253.884901 
L 343.390777 257.104082 
L 349.768866 260.601464 
L 356.146956 264.377046 
L 362.525046 268.430829 
L 368.903135 272.762813 
L 375.281225 277.372998 
L 381.659314 282.261384 
L 388.037404 287.42797 
L 394.415493 292.872758 
L 400.793583 298.595746 
L 407.171672 304.596935 
L 413.549762 310.876324 
L 419.927851 317.433915 
L 427.217096 325.268958 
L 434.506341 333.467366 
L 441.795587 342.029138 
L 449.084832 350.954274 
L 456.374077 360.242774 
L 463.663322 369.894639 
L 470.952567 379.909868 
L 478.241812 390.288462 
L 485.531058 401.03042 
L 492.820303 412.135742 
L 493.731458 413.549456 
L 493.731458 413.549456 
" clip-path="url(#pb93d932a41)" style="fill: none; stroke: #1f77b4; stroke-width: 2; stroke-linecap: square"/>
   </g>
   <g id="line2d_2">
    <path d="M 102.800544 -1 
L 109.223776 6.874266 
L 115.601866 14.381012 
L 121.979955 21.576828 
L 128.358045 28.461714 
L 134.736134 35.035669 
L 141.114224 41.298694 
L 147.492313 47.250788 
L 153.870403 52.891953 
L 160.248492 58.222187 
L 166.626582 63.241491 
L 173.004671 67.949864 
L 179.382761 72.347307 
L 184.849695 75.869069 
L 190.316629 79.162392 
L 195.783563 82.227276 
L 201.250496 85.063722 
L 206.71743 87.67173 
L 212.184364 90.051299 
L 217.651298 92.202429 
L 223.118232 94.12512 
L 228.585166 95.819373 
L 234.0521 97.285188 
L 239.519033 98.522563 
L 244.985967 99.5315 
L 250.452901 100.311999 
L 255.919835 100.864059 
L 261.386769 101.18768 
L 266.853703 101.282863 
L 272.320637 101.149607 
L 277.787571 100.787913 
L 283.254504 100.19778 
L 288.721438 99.379208 
L 294.188372 98.332198 
L 299.655306 97.056749 
L 305.12224 95.552861 
L 310.589174 93.820535 
L 316.056108 91.859771 
L 321.523041 89.670568 
L 326.989975 87.252926 
L 332.456909 84.606845 
L 337.923843 81.732326 
L 343.390777 78.629368 
L 348.857711 75.297972 
L 354.324645 71.738137 
L 360.702734 67.296276 
L 367.080824 62.543484 
L 373.458913 57.479761 
L 379.837003 52.105109 
L 386.215092 46.419526 
L 392.593182 40.423013 
L 398.971271 34.115569 
L 405.349361 27.497195 
L 411.72745 20.567891 
L 418.10554 13.327656 
L 424.483629 5.776491 
L 429.995706 -1 
L 429.995706 -1 
" clip-path="url(#pb93d932a41)" style="fill: none; stroke: #ff7f0e; stroke-width: 2; stroke-linecap: square"/>
   </g>
   <g id="patch_9">
    <path d="M 20.878125 396.501656 
L 20.878125 30.597656 
" style="fill: none; stroke: #000000; stroke-width: 0.8; stroke-linejoin: miter; stroke-linecap: square"/>
   </g>
   <g id="patch_10">
    <path d="M 511.918125 396.501656 
L 511.918125 30.597656 
" style="fill: none; stroke: #000000; stroke-width: 0.8; stroke-linejoin: miter; stroke-linecap: square"/>
   </g>
   <g id="patch_11">
    <path d="M 20.878125 396.501656 
L 511.918125 396.501656 
" style="fill: none; stroke: #000000; stroke-width: 0.8; stroke-linejoin: miter; stroke-linecap: square"/>
   </g>
   <g id="patch_12">
    <path d="M 20.878125 30.597656 
L 511.918125 30.597656 
" style="fill: none; stroke: #000000; stroke-width: 0.8; stroke-linejoin: miter; stroke-linecap: square"/>
   </g>
   <g id="patch_13">
    <path d="M 148.184792 275.963441 
Q 148.184792 247.196333 148.184792 219.770866 
" style="fill: none; stroke: #000000; stroke-width: 1.2; stroke-linecap: round"/>
    <path d="M 145.584792 224.970866 
L 148.184792 219.770866 
L 150.784792 224.970866 
z
" style="fill: #1f77b4; stroke: #000000; stroke-width: 1.2; stroke-linecap: round"/>
   </g>
   <g id="text_3">
    <!-- stato finale -->
    <g transform="translate(131.587076 190.276852) scale(0.085 -0.085)">
     <defs>
      <path id="DejaVuSans-73" d="M 2834 3397 
L 2834 2853 
Q 2591 2978 2328 3040 
Q 2066 3103 1784 3103 
Q 1356 3103 1142 2972 
Q 928 2841 928 2578 
Q 928 2378 1081 2264 
Q 1234 2150 1697 2047 
L 1894 2003 
Q 2506 1872 2764 1633 
Q 3022 1394 3022 966 
Q 3022 478 2636 193 
Q 2250 -91 1575 -91 
Q 1294 -91 989 -36 
Q 684 19 347 128 
L 347 722 
Q 666 556 975 473 
Q 1284 391 1588 391 
Q 1994 391 2212 530 
Q 2431 669 2431 922 
Q 2431 1156 2273 1281 
Q 2116 1406 1581 1522 
L 1381 1569 
Q 847 1681 609 1914 
Q 372 2147 372 2553 
Q 372 3047 722 3315 
Q 1072 3584 1716 3584 
Q 2034 3584 2315 3537 
Q 2597 3491 2834 3397 
z
" transform="scale(0.015625)"/>
      <path id="DejaVuSans-66" d="M 2375 4863 
L 2375 4384 
L 1825 4384 
Q 1516 4384 1395 4259 
Q 1275 4134 1275 3809 
L 1275 3500 
L 2222 3500 
L 2222 3053 
L 1275 3053 
L 1275 0 
L 697 0 
L 697 3053 
L 147 3053 
L 147 3500 
L 697 3500 
L 697 3744 
Q 697 4328 969 4595 
Q 1241 4863 1831 4863 
L 2375 4863 
z
" transform="scale(0.015625)"/>
      <path id="DejaVuSans-6c" d="M 603 4863 
L 1178 4863 
L 1178 0 
L 603 0 
L 603 4863 
z
" transform="scale(0.015625)"/>
     </defs>
     <use xlink:href="#DejaVuSans-73"/>
     <use xlink:href="#DejaVuSans-74" transform="translate(52.099609 0)"/>
     <use xlink:href="#DejaVuSans-61" transform="translate(91.308594 0)"/>
     <use xlink:href="#DejaVuSans-74" transform="translate(152.587891 0)"/>
     <use xlink:href="#DejaVuSans-6f" transform="translate(191.796875 0)"/>
     <use xlink:href="#DejaVuSans-20" transform="translate(252.978516 0)"/>
     <use xlink:href="#DejaVuSans-66" transform="translate(284.765625 0)"/>
     <use xlink:href="#DejaVuSans-69" transform="translate(319.970703 0)"/>
     <use xlink:href="#DejaVuSans-6e" transform="translate(347.753906 0)"/>
     <use xlink:href="#DejaVuSans-61" transform="translate(411.132812 0)"/>
     <use xlink:href="#DejaVuSans-6c" transform="translate(472.412109 0)"/>
     <use xlink:href="#DejaVuSans-65" transform="translate(500.195312 0)"/>
    </g>
    <!-- nel gap -->
    <g transform="translate(139.618911 199.794992) scale(0.085 -0.085)">
     <defs>
      <path id="DejaVuSans-70" d="M 1159 525 
L 1159 -1331 
L 581 -1331 
L 581 3500 
L 1159 3500 
L 1159 2969 
Q 1341 3281 1617 3432 
Q 1894 3584 2278 3584 
Q 2916 3584 3314 3078 
Q 3713 2572 3713 1747 
Q 3713 922 3314 415 
Q 2916 -91 2278 -91 
Q 1894 -91 1617 61 
Q 1341 213 1159 525 
z
M 3116 1747 
Q 3116 2381 2855 2742 
Q 2594 3103 2138 3103 
Q 1681 3103 1420 2742 
Q 1159 2381 1159 1747 
Q 1159 1113 1420 752 
Q 1681 391 2138 391 
Q 2594 391 2855 752 
Q 3116 1113 3116 1747 
z
" transform="scale(0.015625)"/>
     </defs>
     <use xlink:href="#DejaVuSans-6e"/>
     <use xlink:href="#DejaVuSans-65" transform="translate(63.378906 0)"/>
     <use xlink:href="#DejaVuSans-6c" transform="translate(124.902344 0)"/>
     <use xlink:href="#DejaVuSans-20" transform="translate(152.685547 0)"/>
     <use xlink:href="#DejaVuSans-67" transform="translate(184.472656 0)"/>
     <use xlink:href="#DejaVuSans-61" transform="translate(247.949219 0)"/>
     <use xlink:href="#DejaVuSans-70" transform="translate(309.228516 0)"/>
    </g>
   </g>
   <g id="patch_14">
    <path d="M 266.398125 228.179705 
Q 266.398125 199.412597 266.398125 171.98713 
" style="fill: none; stroke: #000000; stroke-width: 1.2; stroke-linecap: round"/>
    <path d="M 263.798125 177.18713 
L 266.398125 171.98713 
L 268.998125 177.18713 
z
" style="fill: #1f77b4; stroke: #000000; stroke-width: 1.2; stroke-linecap: round"/>
   </g>
   <g id="text_4">
    <!-- stato finale -->
    <g transform="translate(249.800409 142.493116) scale(0.085 -0.085)">
     <use xlink:href="#DejaVuSans-73"/>
     <use xlink:href="#DejaVuSans-74" transform="translate(52.099609 0)"/>
     <use xlink:href="#DejaVuSans-61" transform="translate(91.308594 0)"/>
     <use xlink:href="#DejaVuSans-74" transform="translate(152.587891 0)"/>
     <use xlink:href="#DejaVuSans-6f" transform="translate(191.796875 0)"/>
     <use xlink:href="#DejaVuSans-20" transform="translate(252.978516 0)"/>
     <use xlink:href="#DejaVuSans-66" transform="translate(284.765625 0)"/>
     <use xlink:href="#DejaVuSans-69" transform="translate(319.970703 0)"/>
     <use xlink:href="#DejaVuSans-6e" transform="translate(347.753906 0)"/>
     <use xlink:href="#DejaVuSans-61" transform="translate(411.132812 0)"/>
     <use xlink:href="#DejaVuSans-6c" transform="translate(472.412109 0)"/>
     <use xlink:href="#DejaVuSans-65" transform="translate(500.195312 0)"/>
    </g>
    <!-- nel gap -->
    <g transform="translate(257.832245 152.011256) scale(0.085 -0.085)">
     <use xlink:href="#DejaVuSans-6e"/>
     <use xlink:href="#DejaVuSans-65" transform="translate(63.378906 0)"/>
     <use xlink:href="#DejaVuSans-6c" transform="translate(124.902344 0)"/>
     <use xlink:href="#DejaVuSans-20" transform="translate(152.685547 0)"/>
     <use xlink:href="#DejaVuSans-67" transform="translate(184.472656 0)"/>
     <use xlink:href="#DejaVuSans-61" transform="translate(247.949219 0)"/>
     <use xlink:href="#DejaVuSans-70" transform="translate(309.228516 0)"/>
    </g>
   </g>
   <g id="patch_15">
    <path d="M 380.064792 272.358455 
Q 380.064792 243.591347 380.064792 216.16588 
" style="fill: none; stroke: #000000; stroke-width: 1.2; stroke-linecap: round"/>
    <path d="M 377.464792 221.36588 
L 380.064792 216.16588 
L 382.664792 221.36588 
z
" style="fill: #1f77b4; stroke: #000000; stroke-width: 1.2; stroke-linecap: round"/>
   </g>
   <g id="text_5">
    <!-- stato finale -->
    <g transform="translate(363.467076 186.671866) scale(0.085 -0.085)">
     <use xlink:href="#DejaVuSans-73"/>
     <use xlink:href="#DejaVuSans-74" transform="translate(52.099609 0)"/>
     <use xlink:href="#DejaVuSans-61" transform="translate(91.308594 0)"/>
     <use xlink:href="#DejaVuSans-74" transform="translate(152.587891 0)"/>
     <use xlink:href="#DejaVuSans-6f" transform="translate(191.796875 0)"/>
     <use xlink:href="#DejaVuSans-20" transform="translate(252.978516 0)"/>
     <use xlink:href="#DejaVuSans-66" transform="translate(284.765625 0)"/>
     <use xlink:href="#DejaVuSans-69" transform="translate(319.970703 0)"/>
     <use xlink:href="#DejaVuSans-6e" transform="translate(347.753906 0)"/>
     <use xlink:href="#DejaVuSans-61" transform="translate(411.132812 0)"/>
     <use xlink:href="#DejaVuSans-6c" transform="translate(472.412109 0)"/>
     <use xlink:href="#DejaVuSans-65" transform="translate(500.195312 0)"/>
    </g>
    <!-- nel gap -->
    <g transform="translate(371.498911 196.190006) scale(0.085 -0.085)">
     <use xlink:href="#DejaVuSans-6e"/>
     <use xlink:href="#DejaVuSans-65" transform="translate(63.378906 0)"/>
     <use xlink:href="#DejaVuSans-6c" transform="translate(124.902344 0)"/>
     <use xlink:href="#DejaVuSans-20" transform="translate(152.685547 0)"/>
     <use xlink:href="#DejaVuSans-67" transform="translate(184.472656 0)"/>
     <use xlink:href="#DejaVuSans-61" transform="translate(247.949219 0)"/>
     <use xlink:href="#DejaVuSans-70" transform="translate(309.228516 0)"/>
    </g>
   </g>
   <g id="patch_16">
    <path d="M 452.811458 233.494798 
Q 452.811458 169.060634 452.811458 104.626469 
" style="fill: none; stroke: #000000; stroke-width: 1.2; stroke-linecap: round"/>
    <path d="M 454.811458 229.494798 
L 452.811458 233.494798 
L 450.811458 229.494798 
" style="fill: none; stroke: #000000; stroke-width: 1.2; stroke-linecap: round"/>
    <path d="M 450.811458 108.626469 
L 452.811458 104.626469 
L 454.811458 108.626469 
" style="fill: none; stroke: #000000; stroke-width: 1.2; stroke-linecap: round"/>
   </g>
   <g id="text_6">
    <!-- $E_g$ -->
    <g transform="translate(466.451458 170.743256) scale(0.1 -0.1)">
     <defs>
      <path id="DejaVuSans-Oblique-45" d="M 1081 4666 
L 4031 4666 
L 3928 4134 
L 1606 4134 
L 1338 2753 
L 3566 2753 
L 3463 2222 
L 1234 2222 
L 909 531 
L 3284 531 
L 3181 0 
L 172 0 
L 1081 4666 
z
" transform="scale(0.015625)"/>
      <path id="DejaVuSans-Oblique-67" d="M 3816 3500 
L 3219 434 
Q 3047 -456 2561 -893 
Q 2075 -1331 1253 -1331 
Q 950 -1331 690 -1286 
Q 431 -1241 206 -1147 
L 313 -588 
Q 525 -725 762 -790 
Q 1000 -856 1269 -856 
Q 1816 -856 2167 -557 
Q 2519 -259 2631 300 
L 2681 563 
Q 2441 288 2122 144 
Q 1803 0 1434 0 
Q 903 0 598 351 
Q 294 703 294 1319 
Q 294 1803 478 2267 
Q 663 2731 997 3091 
Q 1219 3328 1514 3456 
Q 1809 3584 2131 3584 
Q 2484 3584 2746 3420 
Q 3009 3256 3138 2956 
L 3238 3500 
L 3816 3500 
z
M 2950 2216 
Q 2950 2641 2750 2872 
Q 2550 3103 2181 3103 
Q 1953 3103 1747 3012 
Q 1541 2922 1394 2759 
Q 1156 2491 1023 2127 
Q 891 1763 891 1375 
Q 891 944 1092 712 
Q 1294 481 1672 481 
Q 2219 481 2584 976 
Q 2950 1472 2950 2216 
z
" transform="scale(0.015625)"/>
     </defs>
     <use xlink:href="#DejaVuSans-Oblique-45" transform="translate(0 0.09375)"/>
     <use xlink:href="#DejaVuSans-Oblique-67" transform="translate(63.183594 -16.3125) scale(0.7)"/>
    </g>
   </g>
   <g id="text_7">
    <!-- banda di conduzione -->
    <g transform="translate(66.344792 62.198456) scale(0.1 -0.1)">
     <defs>
      <path id="DejaVuSans-62" d="M 3116 1747 
Q 3116 2381 2855 2742 
Q 2594 3103 2138 3103 
Q 1681 3103 1420 2742 
Q 1159 2381 1159 1747 
Q 1159 1113 1420 752 
Q 1681 391 2138 391 
Q 2594 391 2855 752 
Q 3116 1113 3116 1747 
z
M 1159 2969 
Q 1341 3281 1617 3432 
Q 1894 3584 2278 3584 
Q 2916 3584 3314 3078 
Q 3713 2572 3713 1747 
Q 3713 922 3314 415 
Q 2916 -91 2278 -91 
Q 1894 -91 1617 61 
Q 1341 213 1159 525 
L 1159 0 
L 581 0 
L 581 4863 
L 1159 4863 
L 1159 2969 
z
" transform="scale(0.015625)"/>
      <path id="DejaVuSans-63" d="M 3122 3366 
L 3122 2828 
Q 2878 2963 2633 3030 
Q 2388 3097 2138 3097 
Q 1578 3097 1268 2742 
Q 959 2388 959 1747 
Q 959 1106 1268 751 
Q 1578 397 2138 397 
Q 2388 397 2633 464 
Q 2878 531 3122 666 
L 3122 134 
Q 2881 22 2623 -34 
Q 2366 -91 2075 -91 
Q 1284 -91 818 406 
Q 353 903 353 1747 
Q 353 2603 823 3093 
Q 1294 3584 2113 3584 
Q 2378 3584 2631 3529 
Q 2884 3475 3122 3366 
z
" transform="scale(0.015625)"/>
      <path id="DejaVuSans-75" d="M 544 1381 
L 544 3500 
L 1119 3500 
L 1119 1403 
Q 1119 906 1312 657 
Q 1506 409 1894 409 
Q 2359 409 2629 706 
Q 2900 1003 2900 1516 
L 2900 3500 
L 3475 3500 
L 3475 0 
L 2900 0 
L 2900 538 
Q 2691 219 2414 64 
Q 2138 -91 1772 -91 
Q 1169 -91 856 284 
Q 544 659 544 1381 
z
M 1991 3584 
L 1991 3584 
z
" transform="scale(0.015625)"/>
      <path id="DejaVuSans-7a" d="M 353 3500 
L 3084 3500 
L 3084 2975 
L 922 459 
L 3084 459 
L 3084 0 
L 275 0 
L 275 525 
L 2438 3041 
L 353 3041 
L 353 3500 
z
" transform="scale(0.015625)"/>
     </defs>
     <use xlink:href="#DejaVuSans-62"/>
     <use xlink:href="#DejaVuSans-61" transform="translate(63.476562 0)"/>
     <use xlink:href="#DejaVuSans-6e" transform="translate(124.755859 0)"/>
     <use xlink:href="#DejaVuSans-64" transform="translate(188.134766 0)"/>
     <use xlink:href="#DejaVuSans-61" transform="translate(251.611328 0)"/>
     <use xlink:href="#DejaVuSans-20" transform="translate(312.890625 0)"/>
     <use xlink:href="#DejaVuSans-64" transform="translate(344.677734 0)"/>
     <use xlink:href="#DejaVuSans-69" transform="translate(408.154297 0)"/>
     <use xlink:href="#DejaVuSans-20" transform="translate(435.9375 0)"/>
     <use xlink:href="#DejaVuSans-63" transform="translate(467.724609 0)"/>
     <use xlink:href="#DejaVuSans-6f" transform="translate(522.705078 0)"/>
     <use xlink:href="#DejaVuSans-6e" transform="translate(583.886719 0)"/>
     <use xlink:href="#DejaVuSans-64" transform="translate(647.265625 0)"/>
     <use xlink:href="#DejaVuSans-75" transform="translate(710.742188 0)"/>
     <use xlink:href="#DejaVuSans-7a" transform="translate(774.121094 0)"/>
     <use xlink:href="#DejaVuSans-69" transform="translate(826.611328 0)"/>
     <use xlink:href="#DejaVuSans-6f" transform="translate(854.394531 0)"/>
     <use xlink:href="#DejaVuSans-6e" transform="translate(915.576172 0)"/>
     <use xlink:href="#DejaVuSans-65" transform="translate(978.955078 0)"/>
    </g>
   </g>
   <g id="text_8">
    <!-- banda di valenza -->
    <g transform="translate(66.344792 371.553656) scale(0.1 -0.1)">
     <use xlink:href="#DejaVuSans-62"/>
     <use xlink:href="#DejaVuSans-61" transform="translate(63.476562 0)"/>
     <use xlink:href="#DejaVuSans-6e" transform="translate(124.755859 0)"/>
     <use xlink:href="#DejaVuSans-64" transform="translate(188.134766 0)"/>
     <use xlink:href="#DejaVuSans-61" transform="translate(251.611328 0)"/>
     <use xlink:href="#DejaVuSans-20" transform="translate(312.890625 0)"/>
     <use xlink:href="#DejaVuSans-64" transform="translate(344.677734 0)"/>
     <use xlink:href="#DejaVuSans-69" transform="translate(408.154297 0)"/>
     <use xlink:href="#DejaVuSans-20" transform="translate(435.9375 0)"/>
     <use xlink:href="#DejaVuSans-76" transform="translate(467.724609 0)"/>
     <use xlink:href="#DejaVuSans-61" transform="translate(526.904297 0)"/>
     <use xlink:href="#DejaVuSans-6c" transform="translate(588.183594 0)"/>
     <use xlink:href="#DejaVuSans-65" transform="translate(615.966797 0)"/>
     <use xlink:href="#DejaVuSans-6e" transform="translate(677.490234 0)"/>
     <use xlink:href="#DejaVuSans-7a" transform="translate(740.869141 0)"/>
     <use xlink:href="#DejaVuSans-61" transform="translate(793.359375 0)"/>
    </g>
   </g>
   <g id="text_9">
    <!-- Transizioni dirette impossibili: lo stato finale cade nel gap -->
    <g transform="translate(20.396953 18.597656) scale(0.15 -0.15)">
     <defs>
      <path id="DejaVuSans-Bold-54" d="M 31 4666 
L 4331 4666 
L 4331 3756 
L 2784 3756 
L 2784 0 
L 1581 0 
L 1581 3756 
L 31 3756 
L 31 4666 
z
" transform="scale(0.015625)"/>
      <path id="DejaVuSans-Bold-72" d="M 3138 2547 
Q 2991 2616 2845 2648 
Q 2700 2681 2553 2681 
Q 2122 2681 1889 2404 
Q 1656 2128 1656 1613 
L 1656 0 
L 538 0 
L 538 3500 
L 1656 3500 
L 1656 2925 
Q 1872 3269 2151 3426 
Q 2431 3584 2822 3584 
Q 2878 3584 2943 3579 
Q 3009 3575 3134 3559 
L 3138 2547 
z
" transform="scale(0.015625)"/>
      <path id="DejaVuSans-Bold-61" d="M 2106 1575 
Q 1756 1575 1579 1456 
Q 1403 1338 1403 1106 
Q 1403 894 1545 773 
Q 1688 653 1941 653 
Q 2256 653 2472 879 
Q 2688 1106 2688 1447 
L 2688 1575 
L 2106 1575 
z
M 3816 1997 
L 3816 0 
L 2688 0 
L 2688 519 
Q 2463 200 2181 54 
Q 1900 -91 1497 -91 
Q 953 -91 614 226 
Q 275 544 275 1050 
Q 275 1666 698 1953 
Q 1122 2241 2028 2241 
L 2688 2241 
L 2688 2328 
Q 2688 2594 2478 2717 
Q 2269 2841 1825 2841 
Q 1466 2841 1156 2769 
Q 847 2697 581 2553 
L 581 3406 
Q 941 3494 1303 3539 
Q 1666 3584 2028 3584 
Q 2975 3584 3395 3211 
Q 3816 2838 3816 1997 
z
" transform="scale(0.015625)"/>
      <path id="DejaVuSans-Bold-6e" d="M 4056 2131 
L 4056 0 
L 2931 0 
L 2931 347 
L 2931 1631 
Q 2931 2084 2911 2256 
Q 2891 2428 2841 2509 
Q 2775 2619 2662 2680 
Q 2550 2741 2406 2741 
Q 2056 2741 1856 2470 
Q 1656 2200 1656 1722 
L 1656 0 
L 538 0 
L 538 3500 
L 1656 3500 
L 1656 2988 
Q 1909 3294 2193 3439 
Q 2478 3584 2822 3584 
Q 3428 3584 3742 3212 
Q 4056 2841 4056 2131 
z
" transform="scale(0.015625)"/>
      <path id="DejaVuSans-Bold-73" d="M 3272 3391 
L 3272 2541 
Q 2913 2691 2578 2766 
Q 2244 2841 1947 2841 
Q 1628 2841 1473 2761 
Q 1319 2681 1319 2516 
Q 1319 2381 1436 2309 
Q 1553 2238 1856 2203 
L 2053 2175 
Q 2913 2066 3209 1816 
Q 3506 1566 3506 1031 
Q 3506 472 3093 190 
Q 2681 -91 1863 -91 
Q 1516 -91 1145 -36 
Q 775 19 384 128 
L 384 978 
Q 719 816 1070 734 
Q 1422 653 1784 653 
Q 2113 653 2278 743 
Q 2444 834 2444 1013 
Q 2444 1163 2330 1236 
Q 2216 1309 1875 1350 
L 1678 1375 
Q 931 1469 631 1722 
Q 331 1975 331 2491 
Q 331 3047 712 3315 
Q 1094 3584 1881 3584 
Q 2191 3584 2531 3537 
Q 2872 3491 3272 3391 
z
" transform="scale(0.015625)"/>
      <path id="DejaVuSans-Bold-69" d="M 538 3500 
L 1656 3500 
L 1656 0 
L 538 0 
L 538 3500 
z
M 538 4863 
L 1656 4863 
L 1656 3950 
L 538 3950 
L 538 4863 
z
" transform="scale(0.015625)"/>
      <path id="DejaVuSans-Bold-7a" d="M 366 3500 
L 3419 3500 
L 3419 2719 
L 1575 800 
L 3419 800 
L 3419 0 
L 288 0 
L 288 781 
L 2131 2700 
L 366 2700 
L 366 3500 
z
" transform="scale(0.015625)"/>
      <path id="DejaVuSans-Bold-6f" d="M 2203 2784 
Q 1831 2784 1636 2517 
Q 1441 2250 1441 1747 
Q 1441 1244 1636 976 
Q 1831 709 2203 709 
Q 2569 709 2762 976 
Q 2956 1244 2956 1747 
Q 2956 2250 2762 2517 
Q 2569 2784 2203 2784 
z
M 2203 3584 
Q 3106 3584 3614 3096 
Q 4122 2609 4122 1747 
Q 4122 884 3614 396 
Q 3106 -91 2203 -91 
Q 1297 -91 786 396 
Q 275 884 275 1747 
Q 275 2609 786 3096 
Q 1297 3584 2203 3584 
z
" transform="scale(0.015625)"/>
      <path id="DejaVuSans-Bold-20" transform="scale(0.015625)"/>
      <path id="DejaVuSans-Bold-64" d="M 2919 2988 
L 2919 4863 
L 4044 4863 
L 4044 0 
L 2919 0 
L 2919 506 
Q 2688 197 2409 53 
Q 2131 -91 1766 -91 
Q 1119 -91 703 423 
Q 288 938 288 1747 
Q 288 2556 703 3070 
Q 1119 3584 1766 3584 
Q 2128 3584 2408 3439 
Q 2688 3294 2919 2988 
z
M 2181 722 
Q 2541 722 2730 984 
Q 2919 1247 2919 1747 
Q 2919 2247 2730 2509 
Q 2541 2772 2181 2772 
Q 1825 2772 1636 2509 
Q 1447 2247 1447 1747 
Q 1447 1247 1636 984 
Q 1825 722 2181 722 
z
" transform="scale(0.015625)"/>
      <path id="DejaVuSans-Bold-65" d="M 4031 1759 
L 4031 1441 
L 1416 1441 
Q 1456 1047 1700 850 
Q 1944 653 2381 653 
Q 2734 653 3104 758 
Q 3475 863 3866 1075 
L 3866 213 
Q 3469 63 3072 -14 
Q 2675 -91 2278 -91 
Q 1328 -91 801 392 
Q 275 875 275 1747 
Q 275 2603 792 3093 
Q 1309 3584 2216 3584 
Q 3041 3584 3536 3087 
Q 4031 2591 4031 1759 
z
M 2881 2131 
Q 2881 2450 2695 2645 
Q 2509 2841 2209 2841 
Q 1884 2841 1681 2658 
Q 1478 2475 1428 2131 
L 2881 2131 
z
" transform="scale(0.015625)"/>
      <path id="DejaVuSans-Bold-74" d="M 1759 4494 
L 1759 3500 
L 2913 3500 
L 2913 2700 
L 1759 2700 
L 1759 1216 
Q 1759 972 1856 886 
Q 1953 800 2241 800 
L 2816 800 
L 2816 0 
L 1856 0 
Q 1194 0 917 276 
Q 641 553 641 1216 
L 641 2700 
L 84 2700 
L 84 3500 
L 641 3500 
L 641 4494 
L 1759 4494 
z
" transform="scale(0.015625)"/>
      <path id="DejaVuSans-Bold-6d" d="M 3781 2919 
Q 3994 3244 4286 3414 
Q 4578 3584 4928 3584 
Q 5531 3584 5847 3212 
Q 6163 2841 6163 2131 
L 6163 0 
L 5038 0 
L 5038 1825 
Q 5041 1866 5042 1909 
Q 5044 1953 5044 2034 
Q 5044 2406 4934 2573 
Q 4825 2741 4581 2741 
Q 4263 2741 4089 2478 
Q 3916 2216 3909 1719 
L 3909 0 
L 2784 0 
L 2784 1825 
Q 2784 2406 2684 2573 
Q 2584 2741 2328 2741 
Q 2006 2741 1831 2477 
Q 1656 2213 1656 1722 
L 1656 0 
L 531 0 
L 531 3500 
L 1656 3500 
L 1656 2988 
Q 1863 3284 2130 3434 
Q 2397 3584 2719 3584 
Q 3081 3584 3359 3409 
Q 3638 3234 3781 2919 
z
" transform="scale(0.015625)"/>
      <path id="DejaVuSans-Bold-70" d="M 1656 506 
L 1656 -1331 
L 538 -1331 
L 538 3500 
L 1656 3500 
L 1656 2988 
Q 1888 3294 2169 3439 
Q 2450 3584 2816 3584 
Q 3463 3584 3878 3070 
Q 4294 2556 4294 1747 
Q 4294 938 3878 423 
Q 3463 -91 2816 -91 
Q 2450 -91 2169 54 
Q 1888 200 1656 506 
z
M 2400 2772 
Q 2041 2772 1848 2508 
Q 1656 2244 1656 1747 
Q 1656 1250 1848 986 
Q 2041 722 2400 722 
Q 2759 722 2948 984 
Q 3138 1247 3138 1747 
Q 3138 2247 2948 2509 
Q 2759 2772 2400 2772 
z
" transform="scale(0.015625)"/>
      <path id="DejaVuSans-Bold-62" d="M 2400 722 
Q 2759 722 2948 984 
Q 3138 1247 3138 1747 
Q 3138 2247 2948 2509 
Q 2759 2772 2400 2772 
Q 2041 2772 1848 2508 
Q 1656 2244 1656 1747 
Q 1656 1250 1848 986 
Q 2041 722 2400 722 
z
M 1656 2988 
Q 1888 3294 2169 3439 
Q 2450 3584 2816 3584 
Q 3463 3584 3878 3070 
Q 4294 2556 4294 1747 
Q 4294 938 3878 423 
Q 3463 -91 2816 -91 
Q 2450 -91 2169 54 
Q 1888 200 1656 506 
L 1656 0 
L 538 0 
L 538 4863 
L 1656 4863 
L 1656 2988 
z
" transform="scale(0.015625)"/>
      <path id="DejaVuSans-Bold-6c" d="M 538 4863 
L 1656 4863 
L 1656 0 
L 538 0 
L 538 4863 
z
" transform="scale(0.015625)"/>
      <path id="DejaVuSans-Bold-3a" d="M 716 3500 
L 1844 3500 
L 1844 2291 
L 716 2291 
L 716 3500 
z
M 716 1209 
L 1844 1209 
L 1844 0 
L 716 0 
L 716 1209 
z
" transform="scale(0.015625)"/>
      <path id="DejaVuSans-Bold-66" d="M 2841 4863 
L 2841 4128 
L 2222 4128 
Q 1984 4128 1890 4042 
Q 1797 3956 1797 3744 
L 1797 3500 
L 2753 3500 
L 2753 2700 
L 1797 2700 
L 1797 0 
L 678 0 
L 678 2700 
L 122 2700 
L 122 3500 
L 678 3500 
L 678 3744 
Q 678 4316 997 4589 
Q 1316 4863 1984 4863 
L 2841 4863 
z
" transform="scale(0.015625)"/>
      <path id="DejaVuSans-Bold-63" d="M 3366 3391 
L 3366 2478 
Q 3138 2634 2908 2709 
Q 2678 2784 2431 2784 
Q 1963 2784 1702 2511 
Q 1441 2238 1441 1747 
Q 1441 1256 1702 982 
Q 1963 709 2431 709 
Q 2694 709 2930 787 
Q 3166 866 3366 1019 
L 3366 103 
Q 3103 6 2833 -42 
Q 2563 -91 2291 -91 
Q 1344 -91 809 395 
Q 275 881 275 1747 
Q 275 2613 809 3098 
Q 1344 3584 2291 3584 
Q 2566 3584 2833 3536 
Q 3100 3488 3366 3391 
z
" transform="scale(0.015625)"/>
      <path id="DejaVuSans-Bold-67" d="M 2919 594 
Q 2688 288 2409 144 
Q 2131 0 1766 0 
Q 1125 0 706 504 
Q 288 1009 288 1791 
Q 288 2575 706 3076 
Q 1125 3578 1766 3578 
Q 2131 3578 2409 3434 
Q 2688 3291 2919 2981 
L 2919 3500 
L 4044 3500 
L 4044 353 
Q 4044 -491 3511 -936 
Q 2978 -1381 1966 -1381 
Q 1638 -1381 1331 -1331 
Q 1025 -1281 716 -1178 
L 716 -306 
Q 1009 -475 1290 -558 
Q 1572 -641 1856 -641 
Q 2406 -641 2662 -400 
Q 2919 -159 2919 353 
L 2919 594 
z
M 2181 2772 
Q 1834 2772 1640 2515 
Q 1447 2259 1447 1791 
Q 1447 1309 1634 1061 
Q 1822 813 2181 813 
Q 2531 813 2725 1069 
Q 2919 1325 2919 1791 
Q 2919 2259 2725 2515 
Q 2531 2772 2181 2772 
z
" transform="scale(0.015625)"/>
     </defs>
     <use xlink:href="#DejaVuSans-Bold-54"/>
     <use xlink:href="#DejaVuSans-Bold-72" transform="translate(57.212891 0)"/>
     <use xlink:href="#DejaVuSans-Bold-61" transform="translate(106.529297 0)"/>
     <use xlink:href="#DejaVuSans-Bold-6e" transform="translate(174.009766 0)"/>
     <use xlink:href="#DejaVuSans-Bold-73" transform="translate(245.201172 0)"/>
     <use xlink:href="#DejaVuSans-Bold-69" transform="translate(304.722656 0)"/>
     <use xlink:href="#DejaVuSans-Bold-7a" transform="translate(339 0)"/>
     <use xlink:href="#DejaVuSans-Bold-69" transform="translate(397.203125 0)"/>
     <use xlink:href="#DejaVuSans-Bold-6f" transform="translate(431.480469 0)"/>
     <use xlink:href="#DejaVuSans-Bold-6e" transform="translate(500.181641 0)"/>
     <use xlink:href="#DejaVuSans-Bold-69" transform="translate(571.373047 0)"/>
     <use xlink:href="#DejaVuSans-Bold-20" transform="translate(605.650391 0)"/>
     <use xlink:href="#DejaVuSans-Bold-64" transform="translate(640.464844 0)"/>
     <use xlink:href="#DejaVuSans-Bold-69" transform="translate(712.046875 0)"/>
     <use xlink:href="#DejaVuSans-Bold-72" transform="translate(746.324219 0)"/>
     <use xlink:href="#DejaVuSans-Bold-65" transform="translate(795.640625 0)"/>
     <use xlink:href="#DejaVuSans-Bold-74" transform="translate(863.462891 0)"/>
     <use xlink:href="#DejaVuSans-Bold-74" transform="translate(911.265625 0)"/>
     <use xlink:href="#DejaVuSans-Bold-65" transform="translate(959.068359 0)"/>
     <use xlink:href="#DejaVuSans-Bold-20" transform="translate(1026.890625 0)"/>
     <use xlink:href="#DejaVuSans-Bold-69" transform="translate(1061.705078 0)"/>
     <use xlink:href="#DejaVuSans-Bold-6d" transform="translate(1095.982422 0)"/>
     <use xlink:href="#DejaVuSans-Bold-70" transform="translate(1200.181641 0)"/>
     <use xlink:href="#DejaVuSans-Bold-6f" transform="translate(1271.763672 0)"/>
     <use xlink:href="#DejaVuSans-Bold-73" transform="translate(1340.464844 0)"/>
     <use xlink:href="#DejaVuSans-Bold-73" transform="translate(1399.986328 0)"/>
     <use xlink:href="#DejaVuSans-Bold-69" transform="translate(1459.507812 0)"/>
     <use xlink:href="#DejaVuSans-Bold-62" transform="translate(1493.785156 0)"/>
     <use xlink:href="#DejaVuSans-Bold-69" transform="translate(1565.367188 0)"/>
     <use xlink:href="#DejaVuSans-Bold-6c" transform="translate(1599.644531 0)"/>
     <use xlink:href="#DejaVuSans-Bold-69" transform="translate(1633.921875 0)"/>
     <use xlink:href="#DejaVuSans-Bold-3a" transform="translate(1668.199219 0)"/>
     <use xlink:href="#DejaVuSans-Bold-20" transform="translate(1708.189453 0)"/>
     <use xlink:href="#DejaVuSans-Bold-6c" transform="translate(1743.003906 0)"/>
     <use xlink:href="#DejaVuSans-Bold-6f" transform="translate(1777.28125 0)"/>
     <use xlink:href="#DejaVuSans-Bold-20" transform="translate(1845.982422 0)"/>
     <use xlink:href="#DejaVuSans-Bold-73" transform="translate(1880.796875 0)"/>
     <use xlink:href="#DejaVuSans-Bold-74" transform="translate(1940.318359 0)"/>
     <use xlink:href="#DejaVuSans-Bold-61" transform="translate(1988.121094 0)"/>
     <use xlink:href="#DejaVuSans-Bold-74" transform="translate(2055.601562 0)"/>
     <use xlink:href="#DejaVuSans-Bold-6f" transform="translate(2103.404297 0)"/>
     <use xlink:href="#DejaVuSans-Bold-20" transform="translate(2172.105469 0)"/>
     <use xlink:href="#DejaVuSans-Bold-66" transform="translate(2206.919922 0)"/>
     <use xlink:href="#DejaVuSans-Bold-69" transform="translate(2250.425781 0)"/>
     <use xlink:href="#DejaVuSans-Bold-6e" transform="translate(2284.703125 0)"/>
     <use xlink:href="#DejaVuSans-Bold-61" transform="translate(2355.894531 0)"/>
     <use xlink:href="#DejaVuSans-Bold-6c" transform="translate(2423.375 0)"/>
     <use xlink:href="#DejaVuSans-Bold-65" transform="translate(2457.652344 0)"/>
     <use xlink:href="#DejaVuSans-Bold-20" transform="translate(2525.474609 0)"/>
     <use xlink:href="#DejaVuSans-Bold-63" transform="translate(2560.289062 0)"/>
     <use xlink:href="#DejaVuSans-Bold-61" transform="translate(2619.566406 0)"/>
     <use xlink:href="#DejaVuSans-Bold-64" transform="translate(2687.046875 0)"/>
     <use xlink:href="#DejaVuSans-Bold-65" transform="translate(2758.628906 0)"/>
     <use xlink:href="#DejaVuSans-Bold-20" transform="translate(2826.451172 0)"/>
     <use xlink:href="#DejaVuSans-Bold-6e" transform="translate(2861.265625 0)"/>
     <use xlink:href="#DejaVuSans-Bold-65" transform="translate(2932.457031 0)"/>
     <use xlink:href="#DejaVuSans-Bold-6c" transform="translate(3000.279297 0)"/>
     <use xlink:href="#DejaVuSans-Bold-20" transform="translate(3034.556641 0)"/>
     <use xlink:href="#DejaVuSans-Bold-67" transform="translate(3069.371094 0)"/>
     <use xlink:href="#DejaVuSans-Bold-61" transform="translate(3140.953125 0)"/>
     <use xlink:href="#DejaVuSans-Bold-70" transform="translate(3208.433594 0)"/>
    </g>
   </g>
  </g>
  <g id="text_10">
   <!-- Un fotone con energia insufficiente non può portare l'elettrone in uno stato elettronico permesso. -->
   <g transform="translate(14.376563 432.141656) scale(0.1 -0.1)">
    <defs>
     <path id="DejaVuSans-55" d="M 556 4666 
L 1191 4666 
L 1191 1831 
Q 1191 1081 1462 751 
Q 1734 422 2344 422 
Q 2950 422 3222 751 
Q 3494 1081 3494 1831 
L 3494 4666 
L 4128 4666 
L 4128 1753 
Q 4128 841 3676 375 
Q 3225 -91 2344 -91 
Q 1459 -91 1007 375 
Q 556 841 556 1753 
L 556 4666 
z
" transform="scale(0.015625)"/>
     <path id="DejaVuSans-f2" d="M 1959 3097 
Q 1497 3097 1228 2736 
Q 959 2375 959 1747 
Q 959 1119 1226 758 
Q 1494 397 1959 397 
Q 2419 397 2687 759 
Q 2956 1122 2956 1747 
Q 2956 2369 2687 2733 
Q 2419 3097 1959 3097 
z
M 1959 3584 
Q 2709 3584 3137 3096 
Q 3566 2609 3566 1747 
Q 3566 888 3137 398 
Q 2709 -91 1959 -91 
Q 1206 -91 779 398 
Q 353 888 353 1747 
Q 353 2609 779 3096 
Q 1206 3584 1959 3584 
z
M 1507 5119 
L 2388 3950 
L 1910 3950 
L 891 5119 
L 1507 5119 
z
" transform="scale(0.015625)"/>
     <path id="DejaVuSans-6d" d="M 3328 2828 
Q 3544 3216 3844 3400 
Q 4144 3584 4550 3584 
Q 5097 3584 5394 3201 
Q 5691 2819 5691 2113 
L 5691 0 
L 5113 0 
L 5113 2094 
Q 5113 2597 4934 2840 
Q 4756 3084 4391 3084 
Q 3944 3084 3684 2787 
Q 3425 2491 3425 1978 
L 3425 0 
L 2847 0 
L 2847 2094 
Q 2847 2600 2669 2842 
Q 2491 3084 2119 3084 
Q 1678 3084 1418 2786 
Q 1159 2488 1159 1978 
L 1159 0 
L 581 0 
L 581 3500 
L 1159 3500 
L 1159 2956 
Q 1356 3278 1631 3431 
Q 1906 3584 2284 3584 
Q 2666 3584 2933 3390 
Q 3200 3197 3328 2828 
z
" transform="scale(0.015625)"/>
     <path id="DejaVuSans-2e" d="M 684 794 
L 1344 794 
L 1344 0 
L 684 0 
L 684 794 
z
" transform="scale(0.015625)"/>
    </defs>
    <use xlink:href="#DejaVuSans-55"/>
    <use xlink:href="#DejaVuSans-6e" transform="translate(73.193359 0)"/>
    <use xlink:href="#DejaVuSans-20" transform="translate(136.572266 0)"/>
    <use xlink:href="#DejaVuSans-66" transform="translate(168.359375 0)"/>
    <use xlink:href="#DejaVuSans-6f" transform="translate(203.564453 0)"/>
    <use xlink:href="#DejaVuSans-74" transform="translate(264.746094 0)"/>
    <use xlink:href="#DejaVuSans-6f" transform="translate(303.955078 0)"/>
    <use xlink:href="#DejaVuSans-6e" transform="translate(365.136719 0)"/>
    <use xlink:href="#DejaVuSans-65" transform="translate(428.515625 0)"/>
    <use xlink:href="#DejaVuSans-20" transform="translate(490.039062 0)"/>
    <use xlink:href="#DejaVuSans-63" transform="translate(521.826172 0)"/>
    <use xlink:href="#DejaVuSans-6f" transform="translate(576.806641 0)"/>
    <use xlink:href="#DejaVuSans-6e" transform="translate(637.988281 0)"/>
    <use xlink:href="#DejaVuSans-20" transform="translate(701.367188 0)"/>
    <use xlink:href="#DejaVuSans-65" transform="translate(733.154297 0)"/>
    <use xlink:href="#DejaVuSans-6e" transform="translate(794.677734 0)"/>
    <use xlink:href="#DejaVuSans-65" transform="translate(858.056641 0)"/>
    <use xlink:href="#DejaVuSans-72" transform="translate(919.580078 0)"/>
    <use xlink:href="#DejaVuSans-67" transform="translate(958.943359 0)"/>
    <use xlink:href="#DejaVuSans-69" transform="translate(1022.419922 0)"/>
    <use xlink:href="#DejaVuSans-61" transform="translate(1050.203125 0)"/>
    <use xlink:href="#DejaVuSans-20" transform="translate(1111.482422 0)"/>
    <use xlink:href="#DejaVuSans-69" transform="translate(1143.269531 0)"/>
    <use xlink:href="#DejaVuSans-6e" transform="translate(1171.052734 0)"/>
    <use xlink:href="#DejaVuSans-73" transform="translate(1234.431641 0)"/>
    <use xlink:href="#DejaVuSans-75" transform="translate(1286.53125 0)"/>
    <use xlink:href="#DejaVuSans-66" transform="translate(1349.910156 0)"/>
    <use xlink:href="#DejaVuSans-66" transform="translate(1385.115234 0)"/>
    <use xlink:href="#DejaVuSans-69" transform="translate(1420.320312 0)"/>
    <use xlink:href="#DejaVuSans-63" transform="translate(1448.103516 0)"/>
    <use xlink:href="#DejaVuSans-69" transform="translate(1503.083984 0)"/>
    <use xlink:href="#DejaVuSans-65" transform="translate(1530.867188 0)"/>
    <use xlink:href="#DejaVuSans-6e" transform="translate(1592.390625 0)"/>
    <use xlink:href="#DejaVuSans-74" transform="translate(1655.769531 0)"/>
    <use xlink:href="#DejaVuSans-65" transform="translate(1694.978516 0)"/>
    <use xlink:href="#DejaVuSans-20" transform="translate(1756.501953 0)"/>
    <use xlink:href="#DejaVuSans-6e" transform="translate(1788.289062 0)"/>
    <use xlink:href="#DejaVuSans-6f" transform="translate(1851.667969 0)"/>
    <use xlink:href="#DejaVuSans-6e" transform="translate(1912.849609 0)"/>
    <use xlink:href="#DejaVuSans-20" transform="translate(1976.228516 0)"/>
    <use xlink:href="#DejaVuSans-70" transform="translate(2008.015625 0)"/>
    <use xlink:href="#DejaVuSans-75" transform="translate(2071.492188 0)"/>
    <use xlink:href="#DejaVuSans-f2" transform="translate(2134.871094 0)"/>
    <use xlink:href="#DejaVuSans-20" transform="translate(2196.052734 0)"/>
    <use xlink:href="#DejaVuSans-70" transform="translate(2227.839844 0)"/>
    <use xlink:href="#DejaVuSans-6f" transform="translate(2291.316406 0)"/>
    <use xlink:href="#DejaVuSans-72" transform="translate(2352.498047 0)"/>
    <use xlink:href="#DejaVuSans-74" transform="translate(2393.611328 0)"/>
    <use xlink:href="#DejaVuSans-61" transform="translate(2432.820312 0)"/>
    <use xlink:href="#DejaVuSans-72" transform="translate(2494.099609 0)"/>
    <use xlink:href="#DejaVuSans-65" transform="translate(2532.962891 0)"/>
    <use xlink:href="#DejaVuSans-20" transform="translate(2594.486328 0)"/>
    <use xlink:href="#DejaVuSans-6c" transform="translate(2626.273438 0)"/>
    <use xlink:href="#DejaVuSans-27" transform="translate(2654.056641 0)"/>
    <use xlink:href="#DejaVuSans-65" transform="translate(2681.546875 0)"/>
    <use xlink:href="#DejaVuSans-6c" transform="translate(2743.070312 0)"/>
    <use xlink:href="#DejaVuSans-65" transform="translate(2770.853516 0)"/>
    <use xlink:href="#DejaVuSans-74" transform="translate(2832.376953 0)"/>
    <use xlink:href="#DejaVuSans-74" transform="translate(2871.585938 0)"/>
    <use xlink:href="#DejaVuSans-72" transform="translate(2910.794922 0)"/>
    <use xlink:href="#DejaVuSans-6f" transform="translate(2949.658203 0)"/>
    <use xlink:href="#DejaVuSans-6e" transform="translate(3010.839844 0)"/>
    <use xlink:href="#DejaVuSans-65" transform="translate(3074.21875 0)"/>
    <use xlink:href="#DejaVuSans-20" transform="translate(3135.742188 0)"/>
    <use xlink:href="#DejaVuSans-69" transform="translate(3167.529297 0)"/>
    <use xlink:href="#DejaVuSans-6e" transform="translate(3195.3125 0)"/>
    <use xlink:href="#DejaVuSans-20" transform="translate(3258.691406 0)"/>
    <use xlink:href="#DejaVuSans-75" transform="translate(3290.478516 0)"/>
    <use xlink:href="#DejaVuSans-6e" transform="translate(3353.857422 0)"/>
    <use xlink:href="#DejaVuSans-6f" transform="translate(3417.236328 0)"/>
    <use xlink:href="#DejaVuSans-20" transform="translate(3478.417969 0)"/>
    <use xlink:href="#DejaVuSans-73" transform="translate(3510.205078 0)"/>
    <use xlink:href="#DejaVuSans-74" transform="translate(3562.304688 0)"/>
    <use xlink:href="#DejaVuSans-61" transform="translate(3601.513672 0)"/>
    <use xlink:href="#DejaVuSans-74" transform="translate(3662.792969 0)"/>
    <use xlink:href="#DejaVuSans-6f" transform="translate(3702.001953 0)"/>
    <use xlink:href="#DejaVuSans-20" transform="translate(3763.183594 0)"/>
    <use xlink:href="#DejaVuSans-65" transform="translate(3794.970703 0)"/>
    <use xlink:href="#DejaVuSans-6c" transform="translate(3856.494141 0)"/>
    <use xlink:href="#DejaVuSans-65" transform="translate(3884.277344 0)"/>
    <use xlink:href="#DejaVuSans-74" transform="translate(3945.800781 0)"/>
    <use xlink:href="#DejaVuSans-74" transform="translate(3985.009766 0)"/>
    <use xlink:href="#DejaVuSans-72" transform="translate(4024.21875 0)"/>
    <use xlink:href="#DejaVuSans-6f" transform="translate(4063.082031 0)"/>
    <use xlink:href="#DejaVuSans-6e" transform="translate(4124.263672 0)"/>
    <use xlink:href="#DejaVuSans-69" transform="translate(4187.642578 0)"/>
    <use xlink:href="#DejaVuSans-63" transform="translate(4215.425781 0)"/>
    <use xlink:href="#DejaVuSans-6f" transform="translate(4270.40625 0)"/>
    <use xlink:href="#DejaVuSans-20" transform="translate(4331.587891 0)"/>
    <use xlink:href="#DejaVuSans-70" transform="translate(4363.375 0)"/>
    <use xlink:href="#DejaVuSans-65" transform="translate(4426.851562 0)"/>
    <use xlink:href="#DejaVuSans-72" transform="translate(4488.375 0)"/>
    <use xlink:href="#DejaVuSans-6d" transform="translate(4527.738281 0)"/>
    <use xlink:href="#DejaVuSans-65" transform="translate(4625.150391 0)"/>
    <use xlink:href="#DejaVuSans-73" transform="translate(4686.673828 0)"/>
    <use xlink:href="#DejaVuSans-73" transform="translate(4738.773438 0)"/>
    <use xlink:href="#DejaVuSans-6f" transform="translate(4790.873047 0)"/>
    <use xlink:href="#DejaVuSans-2e" transform="translate(4850.304688 0)"/>
   </g>
  </g>
 </g>
 <defs>
  <clipPath id="pb93d932a41">
   <rect x="20.878125" y="30.597656" width="491.04" height="365.904"/>
  </clipPath>
 </defs>
</svg>
