<?xml version="1.0" encoding="utf-8" standalone="no"?>
<!DOCTYPE svg PUBLIC "-//W3C//DTD SVG 1.1//EN"
  "http://www.w3.org/Graphics/SVG/1.1/DTD/svg11.dtd">
<svg xmlns:xlink="http://www.w3.org/1999/xlink" width="773.28pt" height="484.047687pt" viewBox="0 0 773.28 484.047687" xmlns="http://www.w3.org/2000/svg" version="1.1">
 <metadata>
  <rdf:RDF xmlns:dc="http://purl.org/dc/elements/1.1/" xmlns:cc="http://creativecommons.org/ns#" xmlns:rdf="http://www.w3.org/1999/02/22-rdf-syntax-ns#">
   <cc:Work>
    <dc:type rdf:resource="http://purl.org/dc/dcmitype/StillImage"/>
    <dc:date>2026-06-16T12:05:01.553535</dc:date>
    <dc:format>image/svg+xml</dc:format>
    <dc:creator>
     <cc:Agent>
      <dc:title>Matplotlib v3.10.8, https://matplotlib.org/</dc:title>
     </cc:Agent>
    </dc:creator>
   </cc:Work>
  </rdf:RDF>
 </metadata>
 <defs>
  <style type="text/css">*{stroke-linejoin: round; stroke-linecap: butt}</style>
 </defs>
 <g id="figure_1">
  <g id="patch_1">
   <path d="M 0 484.047687 
L 773.28 484.047687 
L 773.28 0 
L 0 0 
z
" style="fill: #ffffff"/>
  </g>
  <g id="axes_1">
   <g id="PathCollection_1">
    <defs>
     <path id="mdcdec8634b" d="M 0 3.316625 
C 0.879579 3.316625 1.723251 2.967164 2.345208 2.345208 
C 2.967164 1.723251 3.316625 0.879579 3.316625 0 
C 3.316625 -0.879579 2.967164 -1.723251 2.345208 -2.345208 
C 1.723251 -2.967164 0.879579 -3.316625 0 -3.316625 
C -0.879579 -3.316625 -1.723251 -2.967164 -2.345208 -2.345208 
C -2.967164 -1.723251 -3.316625 -0.879579 -3.316625 0 
C -3.316625 0.879579 -2.967164 1.723251 -2.345208 2.345208 
C -1.723251 2.967164 -0.879579 3.316625 0 3.316625 
z
" style="stroke: #1f77b4; stroke-opacity: 0.7"/>
    </defs>
    <g clip-path="url(#pef3f5c3ff6)">
     <use xlink:href="#mdcdec8634b" x="38.156643" y="350.793063" style="fill: #1f77b4; fill-opacity: 0.7; stroke: #1f77b4; stroke-opacity: 0.7"/>
     <use xlink:href="#mdcdec8634b" x="82.38042" y="350.793063" style="fill: #1f77b4; fill-opacity: 0.7; stroke: #1f77b4; stroke-opacity: 0.7"/>
     <use xlink:href="#mdcdec8634b" x="126.604196" y="350.793063" style="fill: #1f77b4; fill-opacity: 0.7; stroke: #1f77b4; stroke-opacity: 0.7"/>
     <use xlink:href="#mdcdec8634b" x="170.827972" y="350.793063" style="fill: #1f77b4; fill-opacity: 0.7; stroke: #1f77b4; stroke-opacity: 0.7"/>
     <use xlink:href="#mdcdec8634b" x="215.051748" y="350.793063" style="fill: #1f77b4; fill-opacity: 0.7; stroke: #1f77b4; stroke-opacity: 0.7"/>
     <use xlink:href="#mdcdec8634b" x="259.275524" y="350.793063" style="fill: #1f77b4; fill-opacity: 0.7; stroke: #1f77b4; stroke-opacity: 0.7"/>
     <use xlink:href="#mdcdec8634b" x="303.499301" y="350.793063" style="fill: #1f77b4; fill-opacity: 0.7; stroke: #1f77b4; stroke-opacity: 0.7"/>
     <use xlink:href="#mdcdec8634b" x="59.384056" y="312.760615" style="fill: #1f77b4; fill-opacity: 0.7; stroke: #1f77b4; stroke-opacity: 0.7"/>
     <use xlink:href="#mdcdec8634b" x="103.607832" y="312.760615" style="fill: #1f77b4; fill-opacity: 0.7; stroke: #1f77b4; stroke-opacity: 0.7"/>
     <use xlink:href="#mdcdec8634b" x="147.831608" y="312.760615" style="fill: #1f77b4; fill-opacity: 0.7; stroke: #1f77b4; stroke-opacity: 0.7"/>
     <use xlink:href="#mdcdec8634b" x="192.055385" y="312.760615" style="fill: #1f77b4; fill-opacity: 0.7; stroke: #1f77b4; stroke-opacity: 0.7"/>
     <use xlink:href="#mdcdec8634b" x="236.279161" y="312.760615" style="fill: #1f77b4; fill-opacity: 0.7; stroke: #1f77b4; stroke-opacity: 0.7"/>
     <use xlink:href="#mdcdec8634b" x="280.502937" y="312.760615" style="fill: #1f77b4; fill-opacity: 0.7; stroke: #1f77b4; stroke-opacity: 0.7"/>
     <use xlink:href="#mdcdec8634b" x="324.726713" y="312.760615" style="fill: #1f77b4; fill-opacity: 0.7; stroke: #1f77b4; stroke-opacity: 0.7"/>
     <use xlink:href="#mdcdec8634b" x="38.156643" y="274.728168" style="fill: #1f77b4; fill-opacity: 0.7; stroke: #1f77b4; stroke-opacity: 0.7"/>
     <use xlink:href="#mdcdec8634b" x="82.38042" y="274.728168" style="fill: #1f77b4; fill-opacity: 0.7; stroke: #1f77b4; stroke-opacity: 0.7"/>
     <use xlink:href="#mdcdec8634b" x="126.604196" y="274.728168" style="fill: #1f77b4; fill-opacity: 0.7; stroke: #1f77b4; stroke-opacity: 0.7"/>
     <use xlink:href="#mdcdec8634b" x="170.827972" y="274.728168" style="fill: #1f77b4; fill-opacity: 0.7; stroke: #1f77b4; stroke-opacity: 0.7"/>
     <use xlink:href="#mdcdec8634b" x="215.051748" y="274.728168" style="fill: #1f77b4; fill-opacity: 0.7; stroke: #1f77b4; stroke-opacity: 0.7"/>
     <use xlink:href="#mdcdec8634b" x="259.275524" y="274.728168" style="fill: #1f77b4; fill-opacity: 0.7; stroke: #1f77b4; stroke-opacity: 0.7"/>
     <use xlink:href="#mdcdec8634b" x="303.499301" y="274.728168" style="fill: #1f77b4; fill-opacity: 0.7; stroke: #1f77b4; stroke-opacity: 0.7"/>
     <use xlink:href="#mdcdec8634b" x="59.384056" y="236.69572" style="fill: #1f77b4; fill-opacity: 0.7; stroke: #1f77b4; stroke-opacity: 0.7"/>
     <use xlink:href="#mdcdec8634b" x="103.607832" y="236.69572" style="fill: #1f77b4; fill-opacity: 0.7; stroke: #1f77b4; stroke-opacity: 0.7"/>
     <use xlink:href="#mdcdec8634b" x="147.831608" y="236.69572" style="fill: #1f77b4; fill-opacity: 0.7; stroke: #1f77b4; stroke-opacity: 0.7"/>
     <use xlink:href="#mdcdec8634b" x="192.055385" y="236.69572" style="fill: #1f77b4; fill-opacity: 0.7; stroke: #1f77b4; stroke-opacity: 0.7"/>
     <use xlink:href="#mdcdec8634b" x="236.279161" y="236.69572" style="fill: #1f77b4; fill-opacity: 0.7; stroke: #1f77b4; stroke-opacity: 0.7"/>
     <use xlink:href="#mdcdec8634b" x="280.502937" y="236.69572" style="fill: #1f77b4; fill-opacity: 0.7; stroke: #1f77b4; stroke-opacity: 0.7"/>
     <use xlink:href="#mdcdec8634b" x="324.726713" y="236.69572" style="fill: #1f77b4; fill-opacity: 0.7; stroke: #1f77b4; stroke-opacity: 0.7"/>
     <use xlink:href="#mdcdec8634b" x="38.156643" y="198.663273" style="fill: #1f77b4; fill-opacity: 0.7; stroke: #1f77b4; stroke-opacity: 0.7"/>
     <use xlink:href="#mdcdec8634b" x="82.38042" y="198.663273" style="fill: #1f77b4; fill-opacity: 0.7; stroke: #1f77b4; stroke-opacity: 0.7"/>
     <use xlink:href="#mdcdec8634b" x="126.604196" y="198.663273" style="fill: #1f77b4; fill-opacity: 0.7; stroke: #1f77b4; stroke-opacity: 0.7"/>
     <use xlink:href="#mdcdec8634b" x="170.827972" y="198.663273" style="fill: #1f77b4; fill-opacity: 0.7; stroke: #1f77b4; stroke-opacity: 0.7"/>
     <use xlink:href="#mdcdec8634b" x="215.051748" y="198.663273" style="fill: #1f77b4; fill-opacity: 0.7; stroke: #1f77b4; stroke-opacity: 0.7"/>
     <use xlink:href="#mdcdec8634b" x="259.275524" y="198.663273" style="fill: #1f77b4; fill-opacity: 0.7; stroke: #1f77b4; stroke-opacity: 0.7"/>
     <use xlink:href="#mdcdec8634b" x="303.499301" y="198.663273" style="fill: #1f77b4; fill-opacity: 0.7; stroke: #1f77b4; stroke-opacity: 0.7"/>
     <use xlink:href="#mdcdec8634b" x="59.384056" y="160.630825" style="fill: #1f77b4; fill-opacity: 0.7; stroke: #1f77b4; stroke-opacity: 0.7"/>
     <use xlink:href="#mdcdec8634b" x="103.607832" y="160.630825" style="fill: #1f77b4; fill-opacity: 0.7; stroke: #1f77b4; stroke-opacity: 0.7"/>
     <use xlink:href="#mdcdec8634b" x="147.831608" y="160.630825" style="fill: #1f77b4; fill-opacity: 0.7; stroke: #1f77b4; stroke-opacity: 0.7"/>
     <use xlink:href="#mdcdec8634b" x="192.055385" y="160.630825" style="fill: #1f77b4; fill-opacity: 0.7; stroke: #1f77b4; stroke-opacity: 0.7"/>
     <use xlink:href="#mdcdec8634b" x="236.279161" y="160.630825" style="fill: #1f77b4; fill-opacity: 0.7; stroke: #1f77b4; stroke-opacity: 0.7"/>
     <use xlink:href="#mdcdec8634b" x="280.502937" y="160.630825" style="fill: #1f77b4; fill-opacity: 0.7; stroke: #1f77b4; stroke-opacity: 0.7"/>
     <use xlink:href="#mdcdec8634b" x="324.726713" y="160.630825" style="fill: #1f77b4; fill-opacity: 0.7; stroke: #1f77b4; stroke-opacity: 0.7"/>
    </g>
   </g>
   <g id="patch_2">
    <path d="M 153.138462 326.469986 
C 172.490128 326.469986 191.051805 318.781488 204.735499 305.097793 
C 218.419194 291.414099 226.107692 272.852421 226.107692 253.500755 
C 226.107692 234.149089 218.419194 215.587412 204.735499 201.903717 
C 191.051805 188.220023 172.490128 180.531524 153.138462 180.531524 
C 133.786795 180.531524 115.225118 188.220023 101.541424 201.903717 
C 87.857729 215.587412 80.169231 234.149089 80.169231 253.500755 
C 80.169231 272.852421 87.857729 291.414099 101.541424 305.097793 
C 115.225118 318.781488 133.786795 326.469986 153.138462 326.469986 
z
" clip-path="url(#pef3f5c3ff6)" style="fill: #1f77b4; opacity: 0.14; stroke-dasharray: 4.44,1.92; stroke-dashoffset: 0"/>
   </g>
   <g id="PathCollection_2">
    <defs>
     <path id="mfbe80bb713" d="M 0 4.1833 
C 1.109424 4.1833 2.173559 3.742521 2.95804 2.95804 
C 3.742521 2.173559 4.1833 1.109424 4.1833 0 
C 4.1833 -1.109424 3.742521 -2.173559 2.95804 -2.95804 
C 2.173559 -3.742521 1.109424 -4.1833 0 -4.1833 
C -1.109424 -4.1833 -2.173559 -3.742521 -2.95804 -2.95804 
C -3.742521 -2.173559 -4.1833 -1.109424 -4.1833 0 
C -4.1833 1.109424 -3.742521 2.173559 -2.95804 2.95804 
C -2.173559 3.742521 -1.109424 4.1833 0 4.1833 
z
" style="stroke: #ff7f0e"/>
    </defs>
    <g clip-path="url(#pef3f5c3ff6)">
     <use xlink:href="#mfbe80bb713" x="102.281119" y="208.392503" style="fill: #ff7f0e; stroke: #ff7f0e"/>
    </g>
   </g>
   <g id="PathCollection_3">
    <defs>
     <path id="mfc0b806386" d="M 0 4.1833 
C 1.109424 4.1833 2.173559 3.742521 2.95804 2.95804 
C 3.742521 2.173559 4.1833 1.109424 4.1833 0 
C 4.1833 -1.109424 3.742521 -2.173559 2.95804 -2.95804 
C 2.173559 -3.742521 1.109424 -4.1833 0 -4.1833 
C -1.109424 -4.1833 -2.173559 -3.742521 -2.95804 -2.95804 
C -3.742521 -2.173559 -4.1833 -1.109424 -4.1833 0 
C -4.1833 1.109424 -3.742521 2.173559 -2.95804 2.95804 
C -2.173559 3.742521 -1.109424 4.1833 0 4.1833 
z
" style="stroke: #000000; stroke-width: 1.1"/>
    </defs>
    <g clip-path="url(#pef3f5c3ff6)">
     <use xlink:href="#mfc0b806386" x="202.669091" y="302.146909" style="fill: #ffffff; stroke: #000000; stroke-width: 1.1"/>
    </g>
   </g>
   <g id="patch_3">
    <path d="M 84.550553 185.11252 
Q 92.810893 195.95823 100.461556 206.003444 
" style="fill: none; stroke: #000000; stroke-width: 0.9; stroke-linecap: round"/>
    <path d="M 99.712284 202.048878 
L 100.461556 206.003444 
L 96.84834 204.230122 
z
" style="fill: #1f77b4; stroke: #000000; stroke-width: 0.9; stroke-linecap: round"/>
   </g>
   <g id="text_1">
    <!-- elettrone -->
    <g transform="translate(58.057343 179.647049) scale(0.09 -0.09)">
     <defs>
      <path id="DejaVuSans-65" d="M 3597 1894 
L 3597 1613 
L 953 1613 
Q 991 1019 1311 708 
Q 1631 397 2203 397 
Q 2534 397 2845 478 
Q 3156 559 3463 722 
L 3463 178 
Q 3153 47 2828 -22 
Q 2503 -91 2169 -91 
Q 1331 -91 842 396 
Q 353 884 353 1716 
Q 353 2575 817 3079 
Q 1281 3584 2069 3584 
Q 2775 3584 3186 3129 
Q 3597 2675 3597 1894 
z
M 3022 2063 
Q 3016 2534 2758 2815 
Q 2500 3097 2075 3097 
Q 1594 3097 1305 2825 
Q 1016 2553 972 2059 
L 3022 2063 
z
" transform="scale(0.015625)"/>
      <path id="DejaVuSans-6c" d="M 603 4863 
L 1178 4863 
L 1178 0 
L 603 0 
L 603 4863 
z
" transform="scale(0.015625)"/>
      <path id="DejaVuSans-74" d="M 1172 4494 
L 1172 3500 
L 2356 3500 
L 2356 3053 
L 1172 3053 
L 1172 1153 
Q 1172 725 1289 603 
Q 1406 481 1766 481 
L 2356 481 
L 2356 0 
L 1766 0 
Q 1100 0 847 248 
Q 594 497 594 1153 
L 594 3053 
L 172 3053 
L 172 3500 
L 594 3500 
L 594 4494 
L 1172 4494 
z
" transform="scale(0.015625)"/>
      <path id="DejaVuSans-72" d="M 2631 2963 
Q 2534 3019 2420 3045 
Q 2306 3072 2169 3072 
Q 1681 3072 1420 2755 
Q 1159 2438 1159 1844 
L 1159 0 
L 581 0 
L 581 3500 
L 1159 3500 
L 1159 2956 
Q 1341 3275 1631 3429 
Q 1922 3584 2338 3584 
Q 2397 3584 2469 3576 
Q 2541 3569 2628 3553 
L 2631 2963 
z
" transform="scale(0.015625)"/>
      <path id="DejaVuSans-6f" d="M 1959 3097 
Q 1497 3097 1228 2736 
Q 959 2375 959 1747 
Q 959 1119 1226 758 
Q 1494 397 1959 397 
Q 2419 397 2687 759 
Q 2956 1122 2956 1747 
Q 2956 2369 2687 2733 
Q 2419 3097 1959 3097 
z
M 1959 3584 
Q 2709 3584 3137 3096 
Q 3566 2609 3566 1747 
Q 3566 888 3137 398 
Q 2709 -91 1959 -91 
Q 1206 -91 779 398 
Q 353 888 353 1747 
Q 353 2609 779 3096 
Q 1206 3584 1959 3584 
z
" transform="scale(0.015625)"/>
      <path id="DejaVuSans-6e" d="M 3513 2113 
L 3513 0 
L 2938 0 
L 2938 2094 
Q 2938 2591 2744 2837 
Q 2550 3084 2163 3084 
Q 1697 3084 1428 2787 
Q 1159 2491 1159 1978 
L 1159 0 
L 581 0 
L 581 3500 
L 1159 3500 
L 1159 2956 
Q 1366 3272 1645 3428 
Q 1925 3584 2291 3584 
Q 2894 3584 3203 3211 
Q 3513 2838 3513 2113 
z
" transform="scale(0.015625)"/>
     </defs>
     <use xlink:href="#DejaVuSans-65"/>
     <use xlink:href="#DejaVuSans-6c" transform="translate(61.523438 0)"/>
     <use xlink:href="#DejaVuSans-65" transform="translate(89.306641 0)"/>
     <use xlink:href="#DejaVuSans-74" transform="translate(150.830078 0)"/>
     <use xlink:href="#DejaVuSans-74" transform="translate(190.039062 0)"/>
     <use xlink:href="#DejaVuSans-72" transform="translate(229.248047 0)"/>
     <use xlink:href="#DejaVuSans-6f" transform="translate(268.111328 0)"/>
     <use xlink:href="#DejaVuSans-6e" transform="translate(329.292969 0)"/>
     <use xlink:href="#DejaVuSans-65" transform="translate(392.671875 0)"/>
    </g>
   </g>
   <g id="patch_4">
    <path d="M 225.68331 316.57175 
Q 215.02322 309.890224 205.21573 303.74309 
" style="fill: none; stroke: #000000; stroke-width: 0.9; stroke-linecap: round"/>
    <path d="M 207.310133 307.180164 
L 205.21573 303.74309 
L 209.222031 304.129812 
z
" style="fill: #1f77b4; stroke: #000000; stroke-width: 0.9; stroke-linecap: round"/>
   </g>
   <g id="text_2">
    <!-- lacuna -->
    <g transform="translate(222.56979 326.469986) scale(0.09 -0.09)">
     <defs>
      <path id="DejaVuSans-61" d="M 2194 1759 
Q 1497 1759 1228 1600 
Q 959 1441 959 1056 
Q 959 750 1161 570 
Q 1363 391 1709 391 
Q 2188 391 2477 730 
Q 2766 1069 2766 1631 
L 2766 1759 
L 2194 1759 
z
M 3341 1997 
L 3341 0 
L 2766 0 
L 2766 531 
Q 2569 213 2275 61 
Q 1981 -91 1556 -91 
Q 1019 -91 701 211 
Q 384 513 384 1019 
Q 384 1609 779 1909 
Q 1175 2209 1959 2209 
L 2766 2209 
L 2766 2266 
Q 2766 2663 2505 2880 
Q 2244 3097 1772 3097 
Q 1472 3097 1187 3025 
Q 903 2953 641 2809 
L 641 3341 
Q 956 3463 1253 3523 
Q 1550 3584 1831 3584 
Q 2591 3584 2966 3190 
Q 3341 2797 3341 1997 
z
" transform="scale(0.015625)"/>
      <path id="DejaVuSans-63" d="M 3122 3366 
L 3122 2828 
Q 2878 2963 2633 3030 
Q 2388 3097 2138 3097 
Q 1578 3097 1268 2742 
Q 959 2388 959 1747 
Q 959 1106 1268 751 
Q 1578 397 2138 397 
Q 2388 397 2633 464 
Q 2878 531 3122 666 
L 3122 134 
Q 2881 22 2623 -34 
Q 2366 -91 2075 -91 
Q 1284 -91 818 406 
Q 353 903 353 1747 
Q 353 2603 823 3093 
Q 1294 3584 2113 3584 
Q 2378 3584 2631 3529 
Q 2884 3475 3122 3366 
z
" transform="scale(0.015625)"/>
      <path id="DejaVuSans-75" d="M 544 1381 
L 544 3500 
L 1119 3500 
L 1119 1403 
Q 1119 906 1312 657 
Q 1506 409 1894 409 
Q 2359 409 2629 706 
Q 2900 1003 2900 1516 
L 2900 3500 
L 3475 3500 
L 3475 0 
L 2900 0 
L 2900 538 
Q 2691 219 2414 64 
Q 2138 -91 1772 -91 
Q 1169 -91 856 284 
Q 544 659 544 1381 
z
M 1991 3584 
L 1991 3584 
z
" transform="scale(0.015625)"/>
     </defs>
     <use xlink:href="#DejaVuSans-6c"/>
     <use xlink:href="#DejaVuSans-61" transform="translate(27.783203 0)"/>
     <use xlink:href="#DejaVuSans-63" transform="translate(89.0625 0)"/>
     <use xlink:href="#DejaVuSans-75" transform="translate(144.042969 0)"/>
     <use xlink:href="#DejaVuSans-6e" transform="translate(207.421875 0)"/>
     <use xlink:href="#DejaVuSans-61" transform="translate(270.800781 0)"/>
    </g>
   </g>
   <g id="text_3">
    <!-- eccitone di Wannier -->
    <g transform="translate(112.495227 97.139916) scale(0.12 -0.12)">
     <defs>
      <path id="DejaVuSans-Bold-65" d="M 4031 1759 
L 4031 1441 
L 1416 1441 
Q 1456 1047 1700 850 
Q 1944 653 2381 653 
Q 2734 653 3104 758 
Q 3475 863 3866 1075 
L 3866 213 
Q 3469 63 3072 -14 
Q 2675 -91 2278 -91 
Q 1328 -91 801 392 
Q 275 875 275 1747 
Q 275 2603 792 3093 
Q 1309 3584 2216 3584 
Q 3041 3584 3536 3087 
Q 4031 2591 4031 1759 
z
M 2881 2131 
Q 2881 2450 2695 2645 
Q 2509 2841 2209 2841 
Q 1884 2841 1681 2658 
Q 1478 2475 1428 2131 
L 2881 2131 
z
" transform="scale(0.015625)"/>
      <path id="DejaVuSans-Bold-63" d="M 3366 3391 
L 3366 2478 
Q 3138 2634 2908 2709 
Q 2678 2784 2431 2784 
Q 1963 2784 1702 2511 
Q 1441 2238 1441 1747 
Q 1441 1256 1702 982 
Q 1963 709 2431 709 
Q 2694 709 2930 787 
Q 3166 866 3366 1019 
L 3366 103 
Q 3103 6 2833 -42 
Q 2563 -91 2291 -91 
Q 1344 -91 809 395 
Q 275 881 275 1747 
Q 275 2613 809 3098 
Q 1344 3584 2291 3584 
Q 2566 3584 2833 3536 
Q 3100 3488 3366 3391 
z
" transform="scale(0.015625)"/>
      <path id="DejaVuSans-Bold-69" d="M 538 3500 
L 1656 3500 
L 1656 0 
L 538 0 
L 538 3500 
z
M 538 4863 
L 1656 4863 
L 1656 3950 
L 538 3950 
L 538 4863 
z
" transform="scale(0.015625)"/>
      <path id="DejaVuSans-Bold-74" d="M 1759 4494 
L 1759 3500 
L 2913 3500 
L 2913 2700 
L 1759 2700 
L 1759 1216 
Q 1759 972 1856 886 
Q 1953 800 2241 800 
L 2816 800 
L 2816 0 
L 1856 0 
Q 1194 0 917 276 
Q 641 553 641 1216 
L 641 2700 
L 84 2700 
L 84 3500 
L 641 3500 
L 641 4494 
L 1759 4494 
z
" transform="scale(0.015625)"/>
      <path id="DejaVuSans-Bold-6f" d="M 2203 2784 
Q 1831 2784 1636 2517 
Q 1441 2250 1441 1747 
Q 1441 1244 1636 976 
Q 1831 709 2203 709 
Q 2569 709 2762 976 
Q 2956 1244 2956 1747 
Q 2956 2250 2762 2517 
Q 2569 2784 2203 2784 
z
M 2203 3584 
Q 3106 3584 3614 3096 
Q 4122 2609 4122 1747 
Q 4122 884 3614 396 
Q 3106 -91 2203 -91 
Q 1297 -91 786 396 
Q 275 884 275 1747 
Q 275 2609 786 3096 
Q 1297 3584 2203 3584 
z
" transform="scale(0.015625)"/>
      <path id="DejaVuSans-Bold-6e" d="M 4056 2131 
L 4056 0 
L 2931 0 
L 2931 347 
L 2931 1631 
Q 2931 2084 2911 2256 
Q 2891 2428 2841 2509 
Q 2775 2619 2662 2680 
Q 2550 2741 2406 2741 
Q 2056 2741 1856 2470 
Q 1656 2200 1656 1722 
L 1656 0 
L 538 0 
L 538 3500 
L 1656 3500 
L 1656 2988 
Q 1909 3294 2193 3439 
Q 2478 3584 2822 3584 
Q 3428 3584 3742 3212 
Q 4056 2841 4056 2131 
z
" transform="scale(0.015625)"/>
      <path id="DejaVuSans-Bold-20" transform="scale(0.015625)"/>
      <path id="DejaVuSans-Bold-64" d="M 2919 2988 
L 2919 4863 
L 4044 4863 
L 4044 0 
L 2919 0 
L 2919 506 
Q 2688 197 2409 53 
Q 2131 -91 1766 -91 
Q 1119 -91 703 423 
Q 288 938 288 1747 
Q 288 2556 703 3070 
Q 1119 3584 1766 3584 
Q 2128 3584 2408 3439 
Q 2688 3294 2919 2988 
z
M 2181 722 
Q 2541 722 2730 984 
Q 2919 1247 2919 1747 
Q 2919 2247 2730 2509 
Q 2541 2772 2181 2772 
Q 1825 2772 1636 2509 
Q 1447 2247 1447 1747 
Q 1447 1247 1636 984 
Q 1825 722 2181 722 
z
" transform="scale(0.015625)"/>
      <path id="DejaVuSans-Bold-57" d="M 191 4666 
L 1344 4666 
L 2150 1275 
L 2950 4666 
L 4109 4666 
L 4909 1275 
L 5716 4666 
L 6859 4666 
L 5759 0 
L 4372 0 
L 3525 3547 
L 2688 0 
L 1300 0 
L 191 4666 
z
" transform="scale(0.015625)"/>
      <path id="DejaVuSans-Bold-61" d="M 2106 1575 
Q 1756 1575 1579 1456 
Q 1403 1338 1403 1106 
Q 1403 894 1545 773 
Q 1688 653 1941 653 
Q 2256 653 2472 879 
Q 2688 1106 2688 1447 
L 2688 1575 
L 2106 1575 
z
M 3816 1997 
L 3816 0 
L 2688 0 
L 2688 519 
Q 2463 200 2181 54 
Q 1900 -91 1497 -91 
Q 953 -91 614 226 
Q 275 544 275 1050 
Q 275 1666 698 1953 
Q 1122 2241 2028 2241 
L 2688 2241 
L 2688 2328 
Q 2688 2594 2478 2717 
Q 2269 2841 1825 2841 
Q 1466 2841 1156 2769 
Q 847 2697 581 2553 
L 581 3406 
Q 941 3494 1303 3539 
Q 1666 3584 2028 3584 
Q 2975 3584 3395 3211 
Q 3816 2838 3816 1997 
z
" transform="scale(0.015625)"/>
      <path id="DejaVuSans-Bold-72" d="M 3138 2547 
Q 2991 2616 2845 2648 
Q 2700 2681 2553 2681 
Q 2122 2681 1889 2404 
Q 1656 2128 1656 1613 
L 1656 0 
L 538 0 
L 538 3500 
L 1656 3500 
L 1656 2925 
Q 1872 3269 2151 3426 
Q 2431 3584 2822 3584 
Q 2878 3584 2943 3579 
Q 3009 3575 3134 3559 
L 3138 2547 
z
" transform="scale(0.015625)"/>
     </defs>
     <use xlink:href="#DejaVuSans-Bold-65"/>
     <use xlink:href="#DejaVuSans-Bold-63" transform="translate(67.822266 0)"/>
     <use xlink:href="#DejaVuSans-Bold-63" transform="translate(127.099609 0)"/>
     <use xlink:href="#DejaVuSans-Bold-69" transform="translate(186.376953 0)"/>
     <use xlink:href="#DejaVuSans-Bold-74" transform="translate(220.654297 0)"/>
     <use xlink:href="#DejaVuSans-Bold-6f" transform="translate(268.457031 0)"/>
     <use xlink:href="#DejaVuSans-Bold-6e" transform="translate(337.158203 0)"/>
     <use xlink:href="#DejaVuSans-Bold-65" transform="translate(408.349609 0)"/>
     <use xlink:href="#DejaVuSans-Bold-20" transform="translate(476.171875 0)"/>
     <use xlink:href="#DejaVuSans-Bold-64" transform="translate(510.986328 0)"/>
     <use xlink:href="#DejaVuSans-Bold-69" transform="translate(582.568359 0)"/>
     <use xlink:href="#DejaVuSans-Bold-20" transform="translate(616.845703 0)"/>
     <use xlink:href="#DejaVuSans-Bold-57" transform="translate(651.660156 0)"/>
     <use xlink:href="#DejaVuSans-Bold-61" transform="translate(758.337891 0)"/>
     <use xlink:href="#DejaVuSans-Bold-6e" transform="translate(825.818359 0)"/>
     <use xlink:href="#DejaVuSans-Bold-6e" transform="translate(897.009766 0)"/>
     <use xlink:href="#DejaVuSans-Bold-69" transform="translate(968.201172 0)"/>
     <use xlink:href="#DejaVuSans-Bold-65" transform="translate(1002.478516 0)"/>
     <use xlink:href="#DejaVuSans-Bold-72" transform="translate(1070.300781 0)"/>
    </g>
   </g>
  </g>
  <g id="axes_2">
   <g id="PathCollection_4">
    <g clip-path="url(#pc14d14205c)">
     <use xlink:href="#mdcdec8634b" x="452.091189" y="350.793063" style="fill: #1f77b4; fill-opacity: 0.7; stroke: #1f77b4; stroke-opacity: 0.7"/>
     <use xlink:href="#mdcdec8634b" x="496.314965" y="350.793063" style="fill: #1f77b4; fill-opacity: 0.7; stroke: #1f77b4; stroke-opacity: 0.7"/>
     <use xlink:href="#mdcdec8634b" x="540.538741" y="350.793063" style="fill: #1f77b4; fill-opacity: 0.7; stroke: #1f77b4; stroke-opacity: 0.7"/>
     <use xlink:href="#mdcdec8634b" x="584.762517" y="350.793063" style="fill: #1f77b4; fill-opacity: 0.7; stroke: #1f77b4; stroke-opacity: 0.7"/>
     <use xlink:href="#mdcdec8634b" x="628.986294" y="350.793063" style="fill: #1f77b4; fill-opacity: 0.7; stroke: #1f77b4; stroke-opacity: 0.7"/>
     <use xlink:href="#mdcdec8634b" x="673.21007" y="350.793063" style="fill: #1f77b4; fill-opacity: 0.7; stroke: #1f77b4; stroke-opacity: 0.7"/>
     <use xlink:href="#mdcdec8634b" x="717.433846" y="350.793063" style="fill: #1f77b4; fill-opacity: 0.7; stroke: #1f77b4; stroke-opacity: 0.7"/>
     <use xlink:href="#mdcdec8634b" x="473.318601" y="312.760615" style="fill: #1f77b4; fill-opacity: 0.7; stroke: #1f77b4; stroke-opacity: 0.7"/>
     <use xlink:href="#mdcdec8634b" x="517.542378" y="312.760615" style="fill: #1f77b4; fill-opacity: 0.7; stroke: #1f77b4; stroke-opacity: 0.7"/>
     <use xlink:href="#mdcdec8634b" x="561.766154" y="312.760615" style="fill: #1f77b4; fill-opacity: 0.7; stroke: #1f77b4; stroke-opacity: 0.7"/>
     <use xlink:href="#mdcdec8634b" x="605.98993" y="312.760615" style="fill: #1f77b4; fill-opacity: 0.7; stroke: #1f77b4; stroke-opacity: 0.7"/>
     <use xlink:href="#mdcdec8634b" x="650.213706" y="312.760615" style="fill: #1f77b4; fill-opacity: 0.7; stroke: #1f77b4; stroke-opacity: 0.7"/>
     <use xlink:href="#mdcdec8634b" x="694.437483" y="312.760615" style="fill: #1f77b4; fill-opacity: 0.7; stroke: #1f77b4; stroke-opacity: 0.7"/>
     <use xlink:href="#mdcdec8634b" x="738.661259" y="312.760615" style="fill: #1f77b4; fill-opacity: 0.7; stroke: #1f77b4; stroke-opacity: 0.7"/>
     <use xlink:href="#mdcdec8634b" x="452.091189" y="274.728168" style="fill: #1f77b4; fill-opacity: 0.7; stroke: #1f77b4; stroke-opacity: 0.7"/>
     <use xlink:href="#mdcdec8634b" x="496.314965" y="274.728168" style="fill: #1f77b4; fill-opacity: 0.7; stroke: #1f77b4; stroke-opacity: 0.7"/>
     <use xlink:href="#mdcdec8634b" x="540.538741" y="274.728168" style="fill: #1f77b4; fill-opacity: 0.7; stroke: #1f77b4; stroke-opacity: 0.7"/>
     <use xlink:href="#mdcdec8634b" x="584.762517" y="274.728168" style="fill: #1f77b4; fill-opacity: 0.7; stroke: #1f77b4; stroke-opacity: 0.7"/>
     <use xlink:href="#mdcdec8634b" x="628.986294" y="274.728168" style="fill: #1f77b4; fill-opacity: 0.7; stroke: #1f77b4; stroke-opacity: 0.7"/>
     <use xlink:href="#mdcdec8634b" x="673.21007" y="274.728168" style="fill: #1f77b4; fill-opacity: 0.7; stroke: #1f77b4; stroke-opacity: 0.7"/>
     <use xlink:href="#mdcdec8634b" x="717.433846" y="274.728168" style="fill: #1f77b4; fill-opacity: 0.7; stroke: #1f77b4; stroke-opacity: 0.7"/>
     <use xlink:href="#mdcdec8634b" x="473.318601" y="236.69572" style="fill: #1f77b4; fill-opacity: 0.7; stroke: #1f77b4; stroke-opacity: 0.7"/>
     <use xlink:href="#mdcdec8634b" x="517.542378" y="236.69572" style="fill: #1f77b4; fill-opacity: 0.7; stroke: #1f77b4; stroke-opacity: 0.7"/>
     <use xlink:href="#mdcdec8634b" x="561.766154" y="236.69572" style="fill: #1f77b4; fill-opacity: 0.7; stroke: #1f77b4; stroke-opacity: 0.7"/>
     <use xlink:href="#mdcdec8634b" x="605.98993" y="236.69572" style="fill: #1f77b4; fill-opacity: 0.7; stroke: #1f77b4; stroke-opacity: 0.7"/>
     <use xlink:href="#mdcdec8634b" x="650.213706" y="236.69572" style="fill: #1f77b4; fill-opacity: 0.7; stroke: #1f77b4; stroke-opacity: 0.7"/>
     <use xlink:href="#mdcdec8634b" x="694.437483" y="236.69572" style="fill: #1f77b4; fill-opacity: 0.7; stroke: #1f77b4; stroke-opacity: 0.7"/>
     <use xlink:href="#mdcdec8634b" x="738.661259" y="236.69572" style="fill: #1f77b4; fill-opacity: 0.7; stroke: #1f77b4; stroke-opacity: 0.7"/>
     <use xlink:href="#mdcdec8634b" x="452.091189" y="198.663273" style="fill: #1f77b4; fill-opacity: 0.7; stroke: #1f77b4; stroke-opacity: 0.7"/>
     <use xlink:href="#mdcdec8634b" x="496.314965" y="198.663273" style="fill: #1f77b4; fill-opacity: 0.7; stroke: #1f77b4; stroke-opacity: 0.7"/>
     <use xlink:href="#mdcdec8634b" x="540.538741" y="198.663273" style="fill: #1f77b4; fill-opacity: 0.7; stroke: #1f77b4; stroke-opacity: 0.7"/>
     <use xlink:href="#mdcdec8634b" x="584.762517" y="198.663273" style="fill: #1f77b4; fill-opacity: 0.7; stroke: #1f77b4; stroke-opacity: 0.7"/>
     <use xlink:href="#mdcdec8634b" x="628.986294" y="198.663273" style="fill: #1f77b4; fill-opacity: 0.7; stroke: #1f77b4; stroke-opacity: 0.7"/>
     <use xlink:href="#mdcdec8634b" x="673.21007" y="198.663273" style="fill: #1f77b4; fill-opacity: 0.7; stroke: #1f77b4; stroke-opacity: 0.7"/>
     <use xlink:href="#mdcdec8634b" x="717.433846" y="198.663273" style="fill: #1f77b4; fill-opacity: 0.7; stroke: #1f77b4; stroke-opacity: 0.7"/>
     <use xlink:href="#mdcdec8634b" x="473.318601" y="160.630825" style="fill: #1f77b4; fill-opacity: 0.7; stroke: #1f77b4; stroke-opacity: 0.7"/>
     <use xlink:href="#mdcdec8634b" x="517.542378" y="160.630825" style="fill: #1f77b4; fill-opacity: 0.7; stroke: #1f77b4; stroke-opacity: 0.7"/>
     <use xlink:href="#mdcdec8634b" x="561.766154" y="160.630825" style="fill: #1f77b4; fill-opacity: 0.7; stroke: #1f77b4; stroke-opacity: 0.7"/>
     <use xlink:href="#mdcdec8634b" x="605.98993" y="160.630825" style="fill: #1f77b4; fill-opacity: 0.7; stroke: #1f77b4; stroke-opacity: 0.7"/>
     <use xlink:href="#mdcdec8634b" x="650.213706" y="160.630825" style="fill: #1f77b4; fill-opacity: 0.7; stroke: #1f77b4; stroke-opacity: 0.7"/>
     <use xlink:href="#mdcdec8634b" x="694.437483" y="160.630825" style="fill: #1f77b4; fill-opacity: 0.7; stroke: #1f77b4; stroke-opacity: 0.7"/>
     <use xlink:href="#mdcdec8634b" x="738.661259" y="160.630825" style="fill: #1f77b4; fill-opacity: 0.7; stroke: #1f77b4; stroke-opacity: 0.7"/>
    </g>
   </g>
   <g id="patch_5">
    <path d="M 593.607273 261.018797 
C 600.057828 261.018797 606.245054 258.455964 610.806285 253.894733 
C 615.367517 249.333501 617.93035 243.146276 617.93035 236.69572 
C 617.93035 230.245165 615.367517 224.057939 610.806285 219.496708 
C 606.245054 214.935476 600.057828 212.372643 593.607273 212.372643 
C 587.156717 212.372643 580.969492 214.935476 576.40826 219.496708 
C 571.847029 224.057939 569.284196 230.245165 569.284196 236.69572 
C 569.284196 243.146276 571.847029 249.333501 576.40826 253.894733 
C 580.969492 258.455964 587.156717 261.018797 593.607273 261.018797 
z
" clip-path="url(#pc14d14205c)" style="fill: #1f77b4; opacity: 0.16; stroke-dasharray: 4.07,1.76; stroke-dashoffset: 0"/>
   </g>
   <g id="PathCollection_5">
    <defs>
     <path id="m469e317a20" d="M 0 4.242641 
C 1.125161 4.242641 2.204391 3.795609 3 3 
C 3.795609 2.204391 4.242641 1.125161 4.242641 0 
C 4.242641 -1.125161 3.795609 -2.204391 3 -3 
C 2.204391 -3.795609 1.125161 -4.242641 0 -4.242641 
C -1.125161 -4.242641 -2.204391 -3.795609 -3 -3 
C -3.795609 -2.204391 -4.242641 -1.125161 -4.242641 0 
C -4.242641 1.125161 -3.795609 2.204391 -3 3 
C -2.204391 3.795609 -1.125161 4.242641 0 4.242641 
z
" style="stroke: #ff7f0e"/>
    </defs>
    <g clip-path="url(#pc14d14205c)">
     <use xlink:href="#m469e317a20" x="603.336503" y="226.524252" style="fill: #ff7f0e; stroke: #ff7f0e"/>
    </g>
   </g>
   <g id="PathCollection_6">
    <defs>
     <path id="m2116c57476" d="M 0 4.242641 
C 1.125161 4.242641 2.204391 3.795609 3 3 
C 3.795609 2.204391 4.242641 1.125161 4.242641 0 
C 4.242641 -1.125161 3.795609 -2.204391 3 -3 
C 2.204391 -3.795609 1.125161 -4.242641 0 -4.242641 
C -1.125161 -4.242641 -2.204391 -3.795609 -3 -3 
C -3.795609 -2.204391 -4.242641 -1.125161 -4.242641 0 
C -4.242641 1.125161 -3.795609 2.204391 -3 3 
C -2.204391 3.795609 -1.125161 4.242641 0 4.242641 
z
" style="stroke: #000000; stroke-width: 1.1"/>
    </defs>
    <g clip-path="url(#pc14d14205c)">
     <use xlink:href="#m2116c57476" x="583.878042" y="246.424951" style="fill: #ffffff; stroke: #000000; stroke-width: 1.1"/>
    </g>
   </g>
   <g id="patch_6">
    <path d="M 634.105753 207.140083 
Q 619.568109 216.298582 605.881834 224.920732 
" style="fill: none; stroke: #000000; stroke-width: 0.9; stroke-linecap: round"/>
    <path d="M 609.887235 224.524803 
L 605.881834 224.920732 
L 607.968332 221.478854 
z
" style="fill: #1f77b4; stroke: #000000; stroke-width: 0.9; stroke-linecap: round"/>
   </g>
   <g id="text_4">
    <!-- elettrone -->
    <g transform="translate(625.448392 202.201175) scale(0.09 -0.09)">
     <use xlink:href="#DejaVuSans-65"/>
     <use xlink:href="#DejaVuSans-6c" transform="translate(61.523438 0)"/>
     <use xlink:href="#DejaVuSans-65" transform="translate(89.306641 0)"/>
     <use xlink:href="#DejaVuSans-74" transform="translate(150.830078 0)"/>
     <use xlink:href="#DejaVuSans-74" transform="translate(190.039062 0)"/>
     <use xlink:href="#DejaVuSans-72" transform="translate(229.248047 0)"/>
     <use xlink:href="#DejaVuSans-6f" transform="translate(268.111328 0)"/>
     <use xlink:href="#DejaVuSans-6e" transform="translate(329.292969 0)"/>
     <use xlink:href="#DejaVuSans-65" transform="translate(392.671875 0)"/>
    </g>
   </g>
   <g id="patch_7">
    <path d="M 568.368758 256.404209 
Q 575.280916 251.956666 581.346877 248.053598 
" style="fill: none; stroke: #000000; stroke-width: 0.9; stroke-linecap: round"/>
    <path d="M 577.345449 248.487847 
L 581.346877 248.053598 
L 579.29342 251.51529 
z
" style="fill: #1f77b4; stroke: #000000; stroke-width: 0.9; stroke-linecap: round"/>
   </g>
   <g id="text_5">
    <!-- lacuna -->
    <g transform="translate(541.865455 266.32565) scale(0.09 -0.09)">
     <use xlink:href="#DejaVuSans-6c"/>
     <use xlink:href="#DejaVuSans-61" transform="translate(27.783203 0)"/>
     <use xlink:href="#DejaVuSans-63" transform="translate(89.0625 0)"/>
     <use xlink:href="#DejaVuSans-75" transform="translate(144.042969 0)"/>
     <use xlink:href="#DejaVuSans-6e" transform="translate(207.421875 0)"/>
     <use xlink:href="#DejaVuSans-61" transform="translate(270.800781 0)"/>
    </g>
   </g>
   <g id="text_6">
    <!-- eccitone di Frenkel -->
    <g transform="translate(529.53196 97.139916) scale(0.12 -0.12)">
     <defs>
      <path id="DejaVuSans-Bold-46" d="M 588 4666 
L 3834 4666 
L 3834 3756 
L 1791 3756 
L 1791 2888 
L 3713 2888 
L 3713 1978 
L 1791 1978 
L 1791 0 
L 588 0 
L 588 4666 
z
" transform="scale(0.015625)"/>
      <path id="DejaVuSans-Bold-6b" d="M 538 4863 
L 1656 4863 
L 1656 2216 
L 2944 3500 
L 4244 3500 
L 2534 1894 
L 4378 0 
L 3022 0 
L 1656 1459 
L 1656 0 
L 538 0 
L 538 4863 
z
" transform="scale(0.015625)"/>
      <path id="DejaVuSans-Bold-6c" d="M 538 4863 
L 1656 4863 
L 1656 0 
L 538 0 
L 538 4863 
z
" transform="scale(0.015625)"/>
     </defs>
     <use xlink:href="#DejaVuSans-Bold-65"/>
     <use xlink:href="#DejaVuSans-Bold-63" transform="translate(67.822266 0)"/>
     <use xlink:href="#DejaVuSans-Bold-63" transform="translate(127.099609 0)"/>
     <use xlink:href="#DejaVuSans-Bold-69" transform="translate(186.376953 0)"/>
     <use xlink:href="#DejaVuSans-Bold-74" transform="translate(220.654297 0)"/>
     <use xlink:href="#DejaVuSans-Bold-6f" transform="translate(268.457031 0)"/>
     <use xlink:href="#DejaVuSans-Bold-6e" transform="translate(337.158203 0)"/>
     <use xlink:href="#DejaVuSans-Bold-65" transform="translate(408.349609 0)"/>
     <use xlink:href="#DejaVuSans-Bold-20" transform="translate(476.171875 0)"/>
     <use xlink:href="#DejaVuSans-Bold-64" transform="translate(510.986328 0)"/>
     <use xlink:href="#DejaVuSans-Bold-69" transform="translate(582.568359 0)"/>
     <use xlink:href="#DejaVuSans-Bold-20" transform="translate(616.845703 0)"/>
     <use xlink:href="#DejaVuSans-Bold-46" transform="translate(651.660156 0)"/>
     <use xlink:href="#DejaVuSans-Bold-72" transform="translate(713.595703 0)"/>
     <use xlink:href="#DejaVuSans-Bold-65" transform="translate(762.912109 0)"/>
     <use xlink:href="#DejaVuSans-Bold-6e" transform="translate(830.734375 0)"/>
     <use xlink:href="#DejaVuSans-Bold-6b" transform="translate(901.925781 0)"/>
     <use xlink:href="#DejaVuSans-Bold-65" transform="translate(965.804688 0)"/>
     <use xlink:href="#DejaVuSans-Bold-6c" transform="translate(1033.626953 0)"/>
    </g>
   </g>
  </g>
  <g id="text_7">
   <!-- Confronto tra eccitone di Wannier ed eccitone di Frenkel -->
   <g transform="translate(134.903906 18.597656) scale(0.15 -0.15)">
    <defs>
     <path id="DejaVuSans-Bold-43" d="M 4288 256 
Q 3956 84 3597 -3 
Q 3238 -91 2847 -91 
Q 1681 -91 1000 561 
Q 319 1213 319 2328 
Q 319 3447 1000 4098 
Q 1681 4750 2847 4750 
Q 3238 4750 3597 4662 
Q 3956 4575 4288 4403 
L 4288 3438 
Q 3953 3666 3628 3772 
Q 3303 3878 2944 3878 
Q 2300 3878 1931 3465 
Q 1563 3053 1563 2328 
Q 1563 1606 1931 1193 
Q 2300 781 2944 781 
Q 3303 781 3628 887 
Q 3953 994 4288 1222 
L 4288 256 
z
" transform="scale(0.015625)"/>
     <path id="DejaVuSans-Bold-66" d="M 2841 4863 
L 2841 4128 
L 2222 4128 
Q 1984 4128 1890 4042 
Q 1797 3956 1797 3744 
L 1797 3500 
L 2753 3500 
L 2753 2700 
L 1797 2700 
L 1797 0 
L 678 0 
L 678 2700 
L 122 2700 
L 122 3500 
L 678 3500 
L 678 3744 
Q 678 4316 997 4589 
Q 1316 4863 1984 4863 
L 2841 4863 
z
" transform="scale(0.015625)"/>
    </defs>
    <use xlink:href="#DejaVuSans-Bold-43"/>
    <use xlink:href="#DejaVuSans-Bold-6f" transform="translate(73.388672 0)"/>
    <use xlink:href="#DejaVuSans-Bold-6e" transform="translate(142.089844 0)"/>
    <use xlink:href="#DejaVuSans-Bold-66" transform="translate(213.28125 0)"/>
    <use xlink:href="#DejaVuSans-Bold-72" transform="translate(256.787109 0)"/>
    <use xlink:href="#DejaVuSans-Bold-6f" transform="translate(306.103516 0)"/>
    <use xlink:href="#DejaVuSans-Bold-6e" transform="translate(374.804688 0)"/>
    <use xlink:href="#DejaVuSans-Bold-74" transform="translate(445.996094 0)"/>
    <use xlink:href="#DejaVuSans-Bold-6f" transform="translate(493.798828 0)"/>
    <use xlink:href="#DejaVuSans-Bold-20" transform="translate(562.5 0)"/>
    <use xlink:href="#DejaVuSans-Bold-74" transform="translate(597.314453 0)"/>
    <use xlink:href="#DejaVuSans-Bold-72" transform="translate(645.117188 0)"/>
    <use xlink:href="#DejaVuSans-Bold-61" transform="translate(694.433594 0)"/>
    <use xlink:href="#DejaVuSans-Bold-20" transform="translate(761.914062 0)"/>
    <use xlink:href="#DejaVuSans-Bold-65" transform="translate(796.728516 0)"/>
    <use xlink:href="#DejaVuSans-Bold-63" transform="translate(864.550781 0)"/>
    <use xlink:href="#DejaVuSans-Bold-63" transform="translate(923.828125 0)"/>
    <use xlink:href="#DejaVuSans-Bold-69" transform="translate(983.105469 0)"/>
    <use xlink:href="#DejaVuSans-Bold-74" transform="translate(1017.382812 0)"/>
    <use xlink:href="#DejaVuSans-Bold-6f" transform="translate(1065.185547 0)"/>
    <use xlink:href="#DejaVuSans-Bold-6e" transform="translate(1133.886719 0)"/>
    <use xlink:href="#DejaVuSans-Bold-65" transform="translate(1205.078125 0)"/>
    <use xlink:href="#DejaVuSans-Bold-20" transform="translate(1272.900391 0)"/>
    <use xlink:href="#DejaVuSans-Bold-64" transform="translate(1307.714844 0)"/>
    <use xlink:href="#DejaVuSans-Bold-69" transform="translate(1379.296875 0)"/>
    <use xlink:href="#DejaVuSans-Bold-20" transform="translate(1413.574219 0)"/>
    <use xlink:href="#DejaVuSans-Bold-57" transform="translate(1448.388672 0)"/>
    <use xlink:href="#DejaVuSans-Bold-61" transform="translate(1555.066406 0)"/>
    <use xlink:href="#DejaVuSans-Bold-6e" transform="translate(1622.546875 0)"/>
    <use xlink:href="#DejaVuSans-Bold-6e" transform="translate(1693.738281 0)"/>
    <use xlink:href="#DejaVuSans-Bold-69" transform="translate(1764.929688 0)"/>
    <use xlink:href="#DejaVuSans-Bold-65" transform="translate(1799.207031 0)"/>
    <use xlink:href="#DejaVuSans-Bold-72" transform="translate(1867.029297 0)"/>
    <use xlink:href="#DejaVuSans-Bold-20" transform="translate(1916.345703 0)"/>
    <use xlink:href="#DejaVuSans-Bold-65" transform="translate(1951.160156 0)"/>
    <use xlink:href="#DejaVuSans-Bold-64" transform="translate(2018.982422 0)"/>
    <use xlink:href="#DejaVuSans-Bold-20" transform="translate(2090.564453 0)"/>
    <use xlink:href="#DejaVuSans-Bold-65" transform="translate(2125.378906 0)"/>
    <use xlink:href="#DejaVuSans-Bold-63" transform="translate(2193.201172 0)"/>
    <use xlink:href="#DejaVuSans-Bold-63" transform="translate(2252.478516 0)"/>
    <use xlink:href="#DejaVuSans-Bold-69" transform="translate(2311.755859 0)"/>
    <use xlink:href="#DejaVuSans-Bold-74" transform="translate(2346.033203 0)"/>
    <use xlink:href="#DejaVuSans-Bold-6f" transform="translate(2393.835938 0)"/>
    <use xlink:href="#DejaVuSans-Bold-6e" transform="translate(2462.537109 0)"/>
    <use xlink:href="#DejaVuSans-Bold-65" transform="translate(2533.728516 0)"/>
    <use xlink:href="#DejaVuSans-Bold-20" transform="translate(2601.550781 0)"/>
    <use xlink:href="#DejaVuSans-Bold-64" transform="translate(2636.365234 0)"/>
    <use xlink:href="#DejaVuSans-Bold-69" transform="translate(2707.947266 0)"/>
    <use xlink:href="#DejaVuSans-Bold-20" transform="translate(2742.224609 0)"/>
    <use xlink:href="#DejaVuSans-Bold-46" transform="translate(2777.039062 0)"/>
    <use xlink:href="#DejaVuSans-Bold-72" transform="translate(2838.974609 0)"/>
    <use xlink:href="#DejaVuSans-Bold-65" transform="translate(2888.291016 0)"/>
    <use xlink:href="#DejaVuSans-Bold-6e" transform="translate(2956.113281 0)"/>
    <use xlink:href="#DejaVuSans-Bold-6b" transform="translate(3027.304688 0)"/>
    <use xlink:href="#DejaVuSans-Bold-65" transform="translate(3091.183594 0)"/>
    <use xlink:href="#DejaVuSans-Bold-6c" transform="translate(3159.005859 0)"/>
   </g>
  </g>
  <g id="text_8">
   <!-- Nel primo caso la coppia elettrone–lacuna è estesa su molte celle; nel secondo è fortemente localizzata attorno a un singolo sito atomico. -->
   <g transform="translate(28.767187 474.768) scale(0.1 -0.1)">
    <defs>
     <path id="DejaVuSans-4e" d="M 628 4666 
L 1478 4666 
L 3547 763 
L 3547 4666 
L 4159 4666 
L 4159 0 
L 3309 0 
L 1241 3903 
L 1241 0 
L 628 0 
L 628 4666 
z
" transform="scale(0.015625)"/>
     <path id="DejaVuSans-20" transform="scale(0.015625)"/>
     <path id="DejaVuSans-70" d="M 1159 525 
L 1159 -1331 
L 581 -1331 
L 581 3500 
L 1159 3500 
L 1159 2969 
Q 1341 3281 1617 3432 
Q 1894 3584 2278 3584 
Q 2916 3584 3314 3078 
Q 3713 2572 3713 1747 
Q 3713 922 3314 415 
Q 2916 -91 2278 -91 
Q 1894 -91 1617 61 
Q 1341 213 1159 525 
z
M 3116 1747 
Q 3116 2381 2855 2742 
Q 2594 3103 2138 3103 
Q 1681 3103 1420 2742 
Q 1159 2381 1159 1747 
Q 1159 1113 1420 752 
Q 1681 391 2138 391 
Q 2594 391 2855 752 
Q 3116 1113 3116 1747 
z
" transform="scale(0.015625)"/>
     <path id="DejaVuSans-69" d="M 603 3500 
L 1178 3500 
L 1178 0 
L 603 0 
L 603 3500 
z
M 603 4863 
L 1178 4863 
L 1178 4134 
L 603 4134 
L 603 4863 
z
" transform="scale(0.015625)"/>
     <path id="DejaVuSans-6d" d="M 3328 2828 
Q 3544 3216 3844 3400 
Q 4144 3584 4550 3584 
Q 5097 3584 5394 3201 
Q 5691 2819 5691 2113 
L 5691 0 
L 5113 0 
L 5113 2094 
Q 5113 2597 4934 2840 
Q 4756 3084 4391 3084 
Q 3944 3084 3684 2787 
Q 3425 2491 3425 1978 
L 3425 0 
L 2847 0 
L 2847 2094 
Q 2847 2600 2669 2842 
Q 2491 3084 2119 3084 
Q 1678 3084 1418 2786 
Q 1159 2488 1159 1978 
L 1159 0 
L 581 0 
L 581 3500 
L 1159 3500 
L 1159 2956 
Q 1356 3278 1631 3431 
Q 1906 3584 2284 3584 
Q 2666 3584 2933 3390 
Q 3200 3197 3328 2828 
z
" transform="scale(0.015625)"/>
     <path id="DejaVuSans-73" d="M 2834 3397 
L 2834 2853 
Q 2591 2978 2328 3040 
Q 2066 3103 1784 3103 
Q 1356 3103 1142 2972 
Q 928 2841 928 2578 
Q 928 2378 1081 2264 
Q 1234 2150 1697 2047 
L 1894 2003 
Q 2506 1872 2764 1633 
Q 3022 1394 3022 966 
Q 3022 478 2636 193 
Q 2250 -91 1575 -91 
Q 1294 -91 989 -36 
Q 684 19 347 128 
L 347 722 
Q 666 556 975 473 
Q 1284 391 1588 391 
Q 1994 391 2212 530 
Q 2431 669 2431 922 
Q 2431 1156 2273 1281 
Q 2116 1406 1581 1522 
L 1381 1569 
Q 847 1681 609 1914 
Q 372 2147 372 2553 
Q 372 3047 722 3315 
Q 1072 3584 1716 3584 
Q 2034 3584 2315 3537 
Q 2597 3491 2834 3397 
z
" transform="scale(0.015625)"/>
     <path id="DejaVuSans-2013" d="M 313 1978 
L 2888 1978 
L 2888 1528 
L 313 1528 
L 313 1978 
z
" transform="scale(0.015625)"/>
     <path id="DejaVuSans-e8" d="M 3597 1894 
L 3597 1613 
L 953 1613 
Q 991 1019 1311 708 
Q 1631 397 2203 397 
Q 2534 397 2845 478 
Q 3156 559 3463 722 
L 3463 178 
Q 3153 47 2828 -22 
Q 2503 -91 2169 -91 
Q 1331 -91 842 396 
Q 353 884 353 1716 
Q 353 2575 817 3079 
Q 1281 3584 2069 3584 
Q 2775 3584 3186 3129 
Q 3597 2675 3597 1894 
z
M 3022 2063 
Q 3016 2534 2758 2815 
Q 2500 3097 2075 3097 
Q 1594 3097 1305 2825 
Q 1016 2553 972 2059 
L 3022 2063 
z
M 1579 5119 
L 2460 3950 
L 1982 3950 
L 963 5119 
L 1579 5119 
z
" transform="scale(0.015625)"/>
     <path id="DejaVuSans-3b" d="M 750 3309 
L 1409 3309 
L 1409 2516 
L 750 2516 
L 750 3309 
z
M 750 794 
L 1409 794 
L 1409 256 
L 897 -744 
L 494 -744 
L 750 256 
L 750 794 
z
" transform="scale(0.015625)"/>
     <path id="DejaVuSans-64" d="M 2906 2969 
L 2906 4863 
L 3481 4863 
L 3481 0 
L 2906 0 
L 2906 525 
Q 2725 213 2448 61 
Q 2172 -91 1784 -91 
Q 1150 -91 751 415 
Q 353 922 353 1747 
Q 353 2572 751 3078 
Q 1150 3584 1784 3584 
Q 2172 3584 2448 3432 
Q 2725 3281 2906 2969 
z
M 947 1747 
Q 947 1113 1208 752 
Q 1469 391 1925 391 
Q 2381 391 2643 752 
Q 2906 1113 2906 1747 
Q 2906 2381 2643 2742 
Q 2381 3103 1925 3103 
Q 1469 3103 1208 2742 
Q 947 2381 947 1747 
z
" transform="scale(0.015625)"/>
     <path id="DejaVuSans-66" d="M 2375 4863 
L 2375 4384 
L 1825 4384 
Q 1516 4384 1395 4259 
Q 1275 4134 1275 3809 
L 1275 3500 
L 2222 3500 
L 2222 3053 
L 1275 3053 
L 1275 0 
L 697 0 
L 697 3053 
L 147 3053 
L 147 3500 
L 697 3500 
L 697 3744 
Q 697 4328 969 4595 
Q 1241 4863 1831 4863 
L 2375 4863 
z
" transform="scale(0.015625)"/>
     <path id="DejaVuSans-7a" d="M 353 3500 
L 3084 3500 
L 3084 2975 
L 922 459 
L 3084 459 
L 3084 0 
L 275 0 
L 275 525 
L 2438 3041 
L 353 3041 
L 353 3500 
z
" transform="scale(0.015625)"/>
     <path id="DejaVuSans-67" d="M 2906 1791 
Q 2906 2416 2648 2759 
Q 2391 3103 1925 3103 
Q 1463 3103 1205 2759 
Q 947 2416 947 1791 
Q 947 1169 1205 825 
Q 1463 481 1925 481 
Q 2391 481 2648 825 
Q 2906 1169 2906 1791 
z
M 3481 434 
Q 3481 -459 3084 -895 
Q 2688 -1331 1869 -1331 
Q 1566 -1331 1297 -1286 
Q 1028 -1241 775 -1147 
L 775 -588 
Q 1028 -725 1275 -790 
Q 1522 -856 1778 -856 
Q 2344 -856 2625 -561 
Q 2906 -266 2906 331 
L 2906 616 
Q 2728 306 2450 153 
Q 2172 0 1784 0 
Q 1141 0 747 490 
Q 353 981 353 1791 
Q 353 2603 747 3093 
Q 1141 3584 1784 3584 
Q 2172 3584 2450 3431 
Q 2728 3278 2906 2969 
L 2906 3500 
L 3481 3500 
L 3481 434 
z
" transform="scale(0.015625)"/>
     <path id="DejaVuSans-2e" d="M 684 794 
L 1344 794 
L 1344 0 
L 684 0 
L 684 794 
z
" transform="scale(0.015625)"/>
    </defs>
    <use xlink:href="#DejaVuSans-4e"/>
    <use xlink:href="#DejaVuSans-65" transform="translate(74.804688 0)"/>
    <use xlink:href="#DejaVuSans-6c" transform="translate(136.328125 0)"/>
    <use xlink:href="#DejaVuSans-20" transform="translate(164.111328 0)"/>
    <use xlink:href="#DejaVuSans-70" transform="translate(195.898438 0)"/>
    <use xlink:href="#DejaVuSans-72" transform="translate(259.375 0)"/>
    <use xlink:href="#DejaVuSans-69" transform="translate(300.488281 0)"/>
    <use xlink:href="#DejaVuSans-6d" transform="translate(328.271484 0)"/>
    <use xlink:href="#DejaVuSans-6f" transform="translate(425.683594 0)"/>
    <use xlink:href="#DejaVuSans-20" transform="translate(486.865234 0)"/>
    <use xlink:href="#DejaVuSans-63" transform="translate(518.652344 0)"/>
    <use xlink:href="#DejaVuSans-61" transform="translate(573.632812 0)"/>
    <use xlink:href="#DejaVuSans-73" transform="translate(634.912109 0)"/>
    <use xlink:href="#DejaVuSans-6f" transform="translate(687.011719 0)"/>
    <use xlink:href="#DejaVuSans-20" transform="translate(748.193359 0)"/>
    <use xlink:href="#DejaVuSans-6c" transform="translate(779.980469 0)"/>
    <use xlink:href="#DejaVuSans-61" transform="translate(807.763672 0)"/>
    <use xlink:href="#DejaVuSans-20" transform="translate(869.042969 0)"/>
    <use xlink:href="#DejaVuSans-63" transform="translate(900.830078 0)"/>
    <use xlink:href="#DejaVuSans-6f" transform="translate(955.810547 0)"/>
    <use xlink:href="#DejaVuSans-70" transform="translate(1016.992188 0)"/>
    <use xlink:href="#DejaVuSans-70" transform="translate(1080.46875 0)"/>
    <use xlink:href="#DejaVuSans-69" transform="translate(1143.945312 0)"/>
    <use xlink:href="#DejaVuSans-61" transform="translate(1171.728516 0)"/>
    <use xlink:href="#DejaVuSans-20" transform="translate(1233.007812 0)"/>
    <use xlink:href="#DejaVuSans-65" transform="translate(1264.794922 0)"/>
    <use xlink:href="#DejaVuSans-6c" transform="translate(1326.318359 0)"/>
    <use xlink:href="#DejaVuSans-65" transform="translate(1354.101562 0)"/>
    <use xlink:href="#DejaVuSans-74" transform="translate(1415.625 0)"/>
    <use xlink:href="#DejaVuSans-74" transform="translate(1454.833984 0)"/>
    <use xlink:href="#DejaVuSans-72" transform="translate(1494.042969 0)"/>
    <use xlink:href="#DejaVuSans-6f" transform="translate(1532.90625 0)"/>
    <use xlink:href="#DejaVuSans-6e" transform="translate(1594.087891 0)"/>
    <use xlink:href="#DejaVuSans-65" transform="translate(1657.466797 0)"/>
    <use xlink:href="#DejaVuSans-2013" transform="translate(1718.990234 0)"/>
    <use xlink:href="#DejaVuSans-6c" transform="translate(1768.990234 0)"/>
    <use xlink:href="#DejaVuSans-61" transform="translate(1796.773438 0)"/>
    <use xlink:href="#DejaVuSans-63" transform="translate(1858.052734 0)"/>
    <use xlink:href="#DejaVuSans-75" transform="translate(1913.033203 0)"/>
    <use xlink:href="#DejaVuSans-6e" transform="translate(1976.412109 0)"/>
    <use xlink:href="#DejaVuSans-61" transform="translate(2039.791016 0)"/>
    <use xlink:href="#DejaVuSans-20" transform="translate(2101.070312 0)"/>
    <use xlink:href="#DejaVuSans-e8" transform="translate(2132.857422 0)"/>
    <use xlink:href="#DejaVuSans-20" transform="translate(2194.380859 0)"/>
    <use xlink:href="#DejaVuSans-65" transform="translate(2226.167969 0)"/>
    <use xlink:href="#DejaVuSans-73" transform="translate(2287.691406 0)"/>
    <use xlink:href="#DejaVuSans-74" transform="translate(2339.791016 0)"/>
    <use xlink:href="#DejaVuSans-65" transform="translate(2379 0)"/>
    <use xlink:href="#DejaVuSans-73" transform="translate(2440.523438 0)"/>
    <use xlink:href="#DejaVuSans-61" transform="translate(2492.623047 0)"/>
    <use xlink:href="#DejaVuSans-20" transform="translate(2553.902344 0)"/>
    <use xlink:href="#DejaVuSans-73" transform="translate(2585.689453 0)"/>
    <use xlink:href="#DejaVuSans-75" transform="translate(2637.789062 0)"/>
    <use xlink:href="#DejaVuSans-20" transform="translate(2701.167969 0)"/>
    <use xlink:href="#DejaVuSans-6d" transform="translate(2732.955078 0)"/>
    <use xlink:href="#DejaVuSans-6f" transform="translate(2830.367188 0)"/>
    <use xlink:href="#DejaVuSans-6c" transform="translate(2891.548828 0)"/>
    <use xlink:href="#DejaVuSans-74" transform="translate(2919.332031 0)"/>
    <use xlink:href="#DejaVuSans-65" transform="translate(2958.541016 0)"/>
    <use xlink:href="#DejaVuSans-20" transform="translate(3020.064453 0)"/>
    <use xlink:href="#DejaVuSans-63" transform="translate(3051.851562 0)"/>
    <use xlink:href="#DejaVuSans-65" transform="translate(3106.832031 0)"/>
    <use xlink:href="#DejaVuSans-6c" transform="translate(3168.355469 0)"/>
    <use xlink:href="#DejaVuSans-6c" transform="translate(3196.138672 0)"/>
    <use xlink:href="#DejaVuSans-65" transform="translate(3223.921875 0)"/>
    <use xlink:href="#DejaVuSans-3b" transform="translate(3285.445312 0)"/>
    <use xlink:href="#DejaVuSans-20" transform="translate(3319.136719 0)"/>
    <use xlink:href="#DejaVuSans-6e" transform="translate(3350.923828 0)"/>
    <use xlink:href="#DejaVuSans-65" transform="translate(3414.302734 0)"/>
    <use xlink:href="#DejaVuSans-6c" transform="translate(3475.826172 0)"/>
    <use xlink:href="#DejaVuSans-20" transform="translate(3503.609375 0)"/>
    <use xlink:href="#DejaVuSans-73" transform="translate(3535.396484 0)"/>
    <use xlink:href="#DejaVuSans-65" transform="translate(3587.496094 0)"/>
    <use xlink:href="#DejaVuSans-63" transform="translate(3649.019531 0)"/>
    <use xlink:href="#DejaVuSans-6f" transform="translate(3704 0)"/>
    <use xlink:href="#DejaVuSans-6e" transform="translate(3765.181641 0)"/>
    <use xlink:href="#DejaVuSans-64" transform="translate(3828.560547 0)"/>
    <use xlink:href="#DejaVuSans-6f" transform="translate(3892.037109 0)"/>
    <use xlink:href="#DejaVuSans-20" transform="translate(3953.21875 0)"/>
    <use xlink:href="#DejaVuSans-e8" transform="translate(3985.005859 0)"/>
    <use xlink:href="#DejaVuSans-20" transform="translate(4046.529297 0)"/>
    <use xlink:href="#DejaVuSans-66" transform="translate(4078.316406 0)"/>
    <use xlink:href="#DejaVuSans-6f" transform="translate(4113.521484 0)"/>
    <use xlink:href="#DejaVuSans-72" transform="translate(4174.703125 0)"/>
    <use xlink:href="#DejaVuSans-74" transform="translate(4215.816406 0)"/>
    <use xlink:href="#DejaVuSans-65" transform="translate(4255.025391 0)"/>
    <use xlink:href="#DejaVuSans-6d" transform="translate(4316.548828 0)"/>
    <use xlink:href="#DejaVuSans-65" transform="translate(4413.960938 0)"/>
    <use xlink:href="#DejaVuSans-6e" transform="translate(4475.484375 0)"/>
    <use xlink:href="#DejaVuSans-74" transform="translate(4538.863281 0)"/>
    <use xlink:href="#DejaVuSans-65" transform="translate(4578.072266 0)"/>
    <use xlink:href="#DejaVuSans-20" transform="translate(4639.595703 0)"/>
    <use xlink:href="#DejaVuSans-6c" transform="translate(4671.382812 0)"/>
    <use xlink:href="#DejaVuSans-6f" transform="translate(4699.166016 0)"/>
    <use xlink:href="#DejaVuSans-63" transform="translate(4760.347656 0)"/>
    <use xlink:href="#DejaVuSans-61" transform="translate(4815.328125 0)"/>
    <use xlink:href="#DejaVuSans-6c" transform="translate(4876.607422 0)"/>
    <use xlink:href="#DejaVuSans-69" transform="translate(4904.390625 0)"/>
    <use xlink:href="#DejaVuSans-7a" transform="translate(4932.173828 0)"/>
    <use xlink:href="#DejaVuSans-7a" transform="translate(4984.664062 0)"/>
    <use xlink:href="#DejaVuSans-61" transform="translate(5037.154297 0)"/>
    <use xlink:href="#DejaVuSans-74" transform="translate(5098.433594 0)"/>
    <use xlink:href="#DejaVuSans-61" transform="translate(5137.642578 0)"/>
    <use xlink:href="#DejaVuSans-20" transform="translate(5198.921875 0)"/>
    <use xlink:href="#DejaVuSans-61" transform="translate(5230.708984 0)"/>
    <use xlink:href="#DejaVuSans-74" transform="translate(5291.988281 0)"/>
    <use xlink:href="#DejaVuSans-74" transform="translate(5331.197266 0)"/>
    <use xlink:href="#DejaVuSans-6f" transform="translate(5370.40625 0)"/>
    <use xlink:href="#DejaVuSans-72" transform="translate(5431.587891 0)"/>
    <use xlink:href="#DejaVuSans-6e" transform="translate(5470.951172 0)"/>
    <use xlink:href="#DejaVuSans-6f" transform="translate(5534.330078 0)"/>
    <use xlink:href="#DejaVuSans-20" transform="translate(5595.511719 0)"/>
    <use xlink:href="#DejaVuSans-61" transform="translate(5627.298828 0)"/>
    <use xlink:href="#DejaVuSans-20" transform="translate(5688.578125 0)"/>
    <use xlink:href="#DejaVuSans-75" transform="translate(5720.365234 0)"/>
    <use xlink:href="#DejaVuSans-6e" transform="translate(5783.744141 0)"/>
    <use xlink:href="#DejaVuSans-20" transform="translate(5847.123047 0)"/>
    <use xlink:href="#DejaVuSans-73" transform="translate(5878.910156 0)"/>
    <use xlink:href="#DejaVuSans-69" transform="translate(5931.009766 0)"/>
    <use xlink:href="#DejaVuSans-6e" transform="translate(5958.792969 0)"/>
    <use xlink:href="#DejaVuSans-67" transform="translate(6022.171875 0)"/>
    <use xlink:href="#DejaVuSans-6f" transform="translate(6085.648438 0)"/>
    <use xlink:href="#DejaVuSans-6c" transform="translate(6146.830078 0)"/>
    <use xlink:href="#DejaVuSans-6f" transform="translate(6174.613281 0)"/>
    <use xlink:href="#DejaVuSans-20" transform="translate(6235.794922 0)"/>
    <use xlink:href="#DejaVuSans-73" transform="translate(6267.582031 0)"/>
    <use xlink:href="#DejaVuSans-69" transform="translate(6319.681641 0)"/>
    <use xlink:href="#DejaVuSans-74" transform="translate(6347.464844 0)"/>
    <use xlink:href="#DejaVuSans-6f" transform="translate(6386.673828 0)"/>
    <use xlink:href="#DejaVuSans-20" transform="translate(6447.855469 0)"/>
    <use xlink:href="#DejaVuSans-61" transform="translate(6479.642578 0)"/>
    <use xlink:href="#DejaVuSans-74" transform="translate(6540.921875 0)"/>
    <use xlink:href="#DejaVuSans-6f" transform="translate(6580.130859 0)"/>
    <use xlink:href="#DejaVuSans-6d" transform="translate(6641.3125 0)"/>
    <use xlink:href="#DejaVuSans-69" transform="translate(6738.724609 0)"/>
    <use xlink:href="#DejaVuSans-63" transform="translate(6766.507812 0)"/>
    <use xlink:href="#DejaVuSans-6f" transform="translate(6821.488281 0)"/>
    <use xlink:href="#DejaVuSans-2e" transform="translate(6880.919922 0)"/>
   </g>
  </g>
 </g>
 <defs>
  <clipPath id="pef3f5c3ff6">
   <rect x="7.2" y="103.139916" width="344.945455" height="283.032168"/>
  </clipPath>
  <clipPath id="pc14d14205c">
   <rect x="421.134545" y="103.139916" width="344.945455" height="283.032168"/>
  </clipPath>
 </defs>
</svg>
