<?xml version="1.0" encoding="utf-8" standalone="no"?>
<!DOCTYPE svg PUBLIC "-//W3C//DTD SVG 1.1//EN"
  "http://www.w3.org/Graphics/SVG/1.1/DTD/svg11.dtd">
<svg xmlns:xlink="http://www.w3.org/1999/xlink" width="705.04375pt" height="458.485344pt" viewBox="0 0 705.04375 458.485344" xmlns="http://www.w3.org/2000/svg" version="1.1">
 <metadata>
  <rdf:RDF xmlns:dc="http://purl.org/dc/elements/1.1/" xmlns:cc="http://creativecommons.org/ns#" xmlns:rdf="http://www.w3.org/1999/02/22-rdf-syntax-ns#">
   <cc:Work>
    <dc:type rdf:resource="http://purl.org/dc/dcmitype/StillImage"/>
    <dc:date>2026-06-16T12:38:23.203104</dc:date>
    <dc:format>image/svg+xml</dc:format>
    <dc:creator>
     <cc:Agent>
      <dc:title>Matplotlib v3.10.8, https://matplotlib.org/</dc:title>
     </cc:Agent>
    </dc:creator>
   </cc:Work>
  </rdf:RDF>
 </metadata>
 <defs>
  <style type="text/css">*{stroke-linejoin: round; stroke-linecap: butt}</style>
 </defs>
 <g id="figure_1">
  <g id="patch_1">
   <path d="M 0 458.485344 
L 705.04375 458.485344 
L 705.04375 0 
L 0 0 
z
" style="fill: #ffffff"/>
  </g>
  <g id="axes_1">
   <g id="patch_2">
    <path d="M 55.521875 407.589656 
L 669.321875 407.589656 
L 669.321875 30.597656 
L 55.521875 30.597656 
z
" style="fill: #ffffff"/>
   </g>
   <g id="patch_3">
    <path d="M -104.599864 407.589656 
L 269.017527 407.589656 
L 269.017527 30.597656 
L -104.599864 30.597656 
z
" clip-path="url(#p8d2b61e974)" style="fill: #1f77b4; opacity: 0.1"/>
   </g>
   <g id="matplotlib.axis_1">
    <g id="xtick_1">
     <g id="line2d_1">
      <path d="M 108.895788 407.589656 
L 108.895788 30.597656 
" clip-path="url(#p8d2b61e974)" style="fill: none; stroke: #b0b0b0; stroke-opacity: 0.13; stroke-width: 0.8; stroke-linecap: square"/>
     </g>
     <g id="line2d_2">
      <defs>
       <path id="m3dc7101ea1" d="M 0 0 
L 0 3.5 
" style="stroke: #000000; stroke-width: 0.8"/>
      </defs>
      <g>
       <use xlink:href="#m3dc7101ea1" x="108.895788" y="407.589656" style="stroke: #000000; stroke-width: 0.8"/>
      </g>
     </g>
     <g id="text_1">
      <!-- 0.4 -->
      <g transform="translate(100.944226 422.188094) scale(0.1 -0.1)">
       <defs>
        <path id="DejaVuSans-30" d="M 2034 4250 
Q 1547 4250 1301 3770 
Q 1056 3291 1056 2328 
Q 1056 1369 1301 889 
Q 1547 409 2034 409 
Q 2525 409 2770 889 
Q 3016 1369 3016 2328 
Q 3016 3291 2770 3770 
Q 2525 4250 2034 4250 
z
M 2034 4750 
Q 2819 4750 3233 4129 
Q 3647 3509 3647 2328 
Q 3647 1150 3233 529 
Q 2819 -91 2034 -91 
Q 1250 -91 836 529 
Q 422 1150 422 2328 
Q 422 3509 836 4129 
Q 1250 4750 2034 4750 
z
" transform="scale(0.015625)"/>
        <path id="DejaVuSans-2e" d="M 684 794 
L 1344 794 
L 1344 0 
L 684 0 
L 684 794 
z
" transform="scale(0.015625)"/>
        <path id="DejaVuSans-34" d="M 2419 4116 
L 825 1625 
L 2419 1625 
L 2419 4116 
z
M 2253 4666 
L 3047 4666 
L 3047 1625 
L 3713 1625 
L 3713 1100 
L 3047 1100 
L 3047 0 
L 2419 0 
L 2419 1100 
L 313 1100 
L 313 1709 
L 2253 4666 
z
" transform="scale(0.015625)"/>
       </defs>
       <use xlink:href="#DejaVuSans-30"/>
       <use xlink:href="#DejaVuSans-2e" transform="translate(63.623047 0)"/>
       <use xlink:href="#DejaVuSans-34" transform="translate(95.410156 0)"/>
      </g>
     </g>
    </g>
    <g id="xtick_2">
     <g id="line2d_3">
      <path d="M 215.643614 407.589656 
L 215.643614 30.597656 
" clip-path="url(#p8d2b61e974)" style="fill: none; stroke: #b0b0b0; stroke-opacity: 0.13; stroke-width: 0.8; stroke-linecap: square"/>
     </g>
     <g id="line2d_4">
      <g>
       <use xlink:href="#m3dc7101ea1" x="215.643614" y="407.589656" style="stroke: #000000; stroke-width: 0.8"/>
      </g>
     </g>
     <g id="text_2">
      <!-- 0.6 -->
      <g transform="translate(207.692052 422.188094) scale(0.1 -0.1)">
       <defs>
        <path id="DejaVuSans-36" d="M 2113 2584 
Q 1688 2584 1439 2293 
Q 1191 2003 1191 1497 
Q 1191 994 1439 701 
Q 1688 409 2113 409 
Q 2538 409 2786 701 
Q 3034 994 3034 1497 
Q 3034 2003 2786 2293 
Q 2538 2584 2113 2584 
z
M 3366 4563 
L 3366 3988 
Q 3128 4100 2886 4159 
Q 2644 4219 2406 4219 
Q 1781 4219 1451 3797 
Q 1122 3375 1075 2522 
Q 1259 2794 1537 2939 
Q 1816 3084 2150 3084 
Q 2853 3084 3261 2657 
Q 3669 2231 3669 1497 
Q 3669 778 3244 343 
Q 2819 -91 2113 -91 
Q 1303 -91 875 529 
Q 447 1150 447 2328 
Q 447 3434 972 4092 
Q 1497 4750 2381 4750 
Q 2619 4750 2861 4703 
Q 3103 4656 3366 4563 
z
" transform="scale(0.015625)"/>
       </defs>
       <use xlink:href="#DejaVuSans-30"/>
       <use xlink:href="#DejaVuSans-2e" transform="translate(63.623047 0)"/>
       <use xlink:href="#DejaVuSans-36" transform="translate(95.410156 0)"/>
      </g>
     </g>
    </g>
    <g id="xtick_3">
     <g id="line2d_5">
      <path d="M 322.39144 407.589656 
L 322.39144 30.597656 
" clip-path="url(#p8d2b61e974)" style="fill: none; stroke: #b0b0b0; stroke-opacity: 0.13; stroke-width: 0.8; stroke-linecap: square"/>
     </g>
     <g id="line2d_6">
      <g>
       <use xlink:href="#m3dc7101ea1" x="322.39144" y="407.589656" style="stroke: #000000; stroke-width: 0.8"/>
      </g>
     </g>
     <g id="text_3">
      <!-- 0.8 -->
      <g transform="translate(314.439878 422.188094) scale(0.1 -0.1)">
       <defs>
        <path id="DejaVuSans-38" d="M 2034 2216 
Q 1584 2216 1326 1975 
Q 1069 1734 1069 1313 
Q 1069 891 1326 650 
Q 1584 409 2034 409 
Q 2484 409 2743 651 
Q 3003 894 3003 1313 
Q 3003 1734 2745 1975 
Q 2488 2216 2034 2216 
z
M 1403 2484 
Q 997 2584 770 2862 
Q 544 3141 544 3541 
Q 544 4100 942 4425 
Q 1341 4750 2034 4750 
Q 2731 4750 3128 4425 
Q 3525 4100 3525 3541 
Q 3525 3141 3298 2862 
Q 3072 2584 2669 2484 
Q 3125 2378 3379 2068 
Q 3634 1759 3634 1313 
Q 3634 634 3220 271 
Q 2806 -91 2034 -91 
Q 1263 -91 848 271 
Q 434 634 434 1313 
Q 434 1759 690 2068 
Q 947 2378 1403 2484 
z
M 1172 3481 
Q 1172 3119 1398 2916 
Q 1625 2713 2034 2713 
Q 2441 2713 2670 2916 
Q 2900 3119 2900 3481 
Q 2900 3844 2670 4047 
Q 2441 4250 2034 4250 
Q 1625 4250 1398 4047 
Q 1172 3844 1172 3481 
z
" transform="scale(0.015625)"/>
       </defs>
       <use xlink:href="#DejaVuSans-30"/>
       <use xlink:href="#DejaVuSans-2e" transform="translate(63.623047 0)"/>
       <use xlink:href="#DejaVuSans-38" transform="translate(95.410156 0)"/>
      </g>
     </g>
    </g>
    <g id="xtick_4">
     <g id="line2d_7">
      <path d="M 429.139266 407.589656 
L 429.139266 30.597656 
" clip-path="url(#p8d2b61e974)" style="fill: none; stroke: #b0b0b0; stroke-opacity: 0.13; stroke-width: 0.8; stroke-linecap: square"/>
     </g>
     <g id="line2d_8">
      <g>
       <use xlink:href="#m3dc7101ea1" x="429.139266" y="407.589656" style="stroke: #000000; stroke-width: 0.8"/>
      </g>
     </g>
     <g id="text_4">
      <!-- 1.0 -->
      <g transform="translate(421.187704 422.188094) scale(0.1 -0.1)">
       <defs>
        <path id="DejaVuSans-31" d="M 794 531 
L 1825 531 
L 1825 4091 
L 703 3866 
L 703 4441 
L 1819 4666 
L 2450 4666 
L 2450 531 
L 3481 531 
L 3481 0 
L 794 0 
L 794 531 
z
" transform="scale(0.015625)"/>
       </defs>
       <use xlink:href="#DejaVuSans-31"/>
       <use xlink:href="#DejaVuSans-2e" transform="translate(63.623047 0)"/>
       <use xlink:href="#DejaVuSans-30" transform="translate(95.410156 0)"/>
      </g>
     </g>
    </g>
    <g id="xtick_5">
     <g id="line2d_9">
      <path d="M 535.887092 407.589656 
L 535.887092 30.597656 
" clip-path="url(#p8d2b61e974)" style="fill: none; stroke: #b0b0b0; stroke-opacity: 0.13; stroke-width: 0.8; stroke-linecap: square"/>
     </g>
     <g id="line2d_10">
      <g>
       <use xlink:href="#m3dc7101ea1" x="535.887092" y="407.589656" style="stroke: #000000; stroke-width: 0.8"/>
      </g>
     </g>
     <g id="text_5">
      <!-- 1.2 -->
      <g transform="translate(527.93553 422.188094) scale(0.1 -0.1)">
       <defs>
        <path id="DejaVuSans-32" d="M 1228 531 
L 3431 531 
L 3431 0 
L 469 0 
L 469 531 
Q 828 903 1448 1529 
Q 2069 2156 2228 2338 
Q 2531 2678 2651 2914 
Q 2772 3150 2772 3378 
Q 2772 3750 2511 3984 
Q 2250 4219 1831 4219 
Q 1534 4219 1204 4116 
Q 875 4013 500 3803 
L 500 4441 
Q 881 4594 1212 4672 
Q 1544 4750 1819 4750 
Q 2544 4750 2975 4387 
Q 3406 4025 3406 3419 
Q 3406 3131 3298 2873 
Q 3191 2616 2906 2266 
Q 2828 2175 2409 1742 
Q 1991 1309 1228 531 
z
" transform="scale(0.015625)"/>
       </defs>
       <use xlink:href="#DejaVuSans-31"/>
       <use xlink:href="#DejaVuSans-2e" transform="translate(63.623047 0)"/>
       <use xlink:href="#DejaVuSans-32" transform="translate(95.410156 0)"/>
      </g>
     </g>
    </g>
    <g id="xtick_6">
     <g id="line2d_11">
      <path d="M 642.634918 407.589656 
L 642.634918 30.597656 
" clip-path="url(#p8d2b61e974)" style="fill: none; stroke: #b0b0b0; stroke-opacity: 0.13; stroke-width: 0.8; stroke-linecap: square"/>
     </g>
     <g id="line2d_12">
      <g>
       <use xlink:href="#m3dc7101ea1" x="642.634918" y="407.589656" style="stroke: #000000; stroke-width: 0.8"/>
      </g>
     </g>
     <g id="text_6">
      <!-- 1.4 -->
      <g transform="translate(634.683356 422.188094) scale(0.1 -0.1)">
       <use xlink:href="#DejaVuSans-31"/>
       <use xlink:href="#DejaVuSans-2e" transform="translate(63.623047 0)"/>
       <use xlink:href="#DejaVuSans-34" transform="translate(95.410156 0)"/>
      </g>
     </g>
    </g>
    <g id="text_7">
     <!-- energia dei fotoni assorbiti, unità arbitrarie -->
     <g transform="translate(254.598438 436.266219) scale(0.1 -0.1)">
      <defs>
       <path id="DejaVuSans-65" d="M 3597 1894 
L 3597 1613 
L 953 1613 
Q 991 1019 1311 708 
Q 1631 397 2203 397 
Q 2534 397 2845 478 
Q 3156 559 3463 722 
L 3463 178 
Q 3153 47 2828 -22 
Q 2503 -91 2169 -91 
Q 1331 -91 842 396 
Q 353 884 353 1716 
Q 353 2575 817 3079 
Q 1281 3584 2069 3584 
Q 2775 3584 3186 3129 
Q 3597 2675 3597 1894 
z
M 3022 2063 
Q 3016 2534 2758 2815 
Q 2500 3097 2075 3097 
Q 1594 3097 1305 2825 
Q 1016 2553 972 2059 
L 3022 2063 
z
" transform="scale(0.015625)"/>
       <path id="DejaVuSans-6e" d="M 3513 2113 
L 3513 0 
L 2938 0 
L 2938 2094 
Q 2938 2591 2744 2837 
Q 2550 3084 2163 3084 
Q 1697 3084 1428 2787 
Q 1159 2491 1159 1978 
L 1159 0 
L 581 0 
L 581 3500 
L 1159 3500 
L 1159 2956 
Q 1366 3272 1645 3428 
Q 1925 3584 2291 3584 
Q 2894 3584 3203 3211 
Q 3513 2838 3513 2113 
z
" transform="scale(0.015625)"/>
       <path id="DejaVuSans-72" d="M 2631 2963 
Q 2534 3019 2420 3045 
Q 2306 3072 2169 3072 
Q 1681 3072 1420 2755 
Q 1159 2438 1159 1844 
L 1159 0 
L 581 0 
L 581 3500 
L 1159 3500 
L 1159 2956 
Q 1341 3275 1631 3429 
Q 1922 3584 2338 3584 
Q 2397 3584 2469 3576 
Q 2541 3569 2628 3553 
L 2631 2963 
z
" transform="scale(0.015625)"/>
       <path id="DejaVuSans-67" d="M 2906 1791 
Q 2906 2416 2648 2759 
Q 2391 3103 1925 3103 
Q 1463 3103 1205 2759 
Q 947 2416 947 1791 
Q 947 1169 1205 825 
Q 1463 481 1925 481 
Q 2391 481 2648 825 
Q 2906 1169 2906 1791 
z
M 3481 434 
Q 3481 -459 3084 -895 
Q 2688 -1331 1869 -1331 
Q 1566 -1331 1297 -1286 
Q 1028 -1241 775 -1147 
L 775 -588 
Q 1028 -725 1275 -790 
Q 1522 -856 1778 -856 
Q 2344 -856 2625 -561 
Q 2906 -266 2906 331 
L 2906 616 
Q 2728 306 2450 153 
Q 2172 0 1784 0 
Q 1141 0 747 490 
Q 353 981 353 1791 
Q 353 2603 747 3093 
Q 1141 3584 1784 3584 
Q 2172 3584 2450 3431 
Q 2728 3278 2906 2969 
L 2906 3500 
L 3481 3500 
L 3481 434 
z
" transform="scale(0.015625)"/>
       <path id="DejaVuSans-69" d="M 603 3500 
L 1178 3500 
L 1178 0 
L 603 0 
L 603 3500 
z
M 603 4863 
L 1178 4863 
L 1178 4134 
L 603 4134 
L 603 4863 
z
" transform="scale(0.015625)"/>
       <path id="DejaVuSans-61" d="M 2194 1759 
Q 1497 1759 1228 1600 
Q 959 1441 959 1056 
Q 959 750 1161 570 
Q 1363 391 1709 391 
Q 2188 391 2477 730 
Q 2766 1069 2766 1631 
L 2766 1759 
L 2194 1759 
z
M 3341 1997 
L 3341 0 
L 2766 0 
L 2766 531 
Q 2569 213 2275 61 
Q 1981 -91 1556 -91 
Q 1019 -91 701 211 
Q 384 513 384 1019 
Q 384 1609 779 1909 
Q 1175 2209 1959 2209 
L 2766 2209 
L 2766 2266 
Q 2766 2663 2505 2880 
Q 2244 3097 1772 3097 
Q 1472 3097 1187 3025 
Q 903 2953 641 2809 
L 641 3341 
Q 956 3463 1253 3523 
Q 1550 3584 1831 3584 
Q 2591 3584 2966 3190 
Q 3341 2797 3341 1997 
z
" transform="scale(0.015625)"/>
       <path id="DejaVuSans-20" transform="scale(0.015625)"/>
       <path id="DejaVuSans-64" d="M 2906 2969 
L 2906 4863 
L 3481 4863 
L 3481 0 
L 2906 0 
L 2906 525 
Q 2725 213 2448 61 
Q 2172 -91 1784 -91 
Q 1150 -91 751 415 
Q 353 922 353 1747 
Q 353 2572 751 3078 
Q 1150 3584 1784 3584 
Q 2172 3584 2448 3432 
Q 2725 3281 2906 2969 
z
M 947 1747 
Q 947 1113 1208 752 
Q 1469 391 1925 391 
Q 2381 391 2643 752 
Q 2906 1113 2906 1747 
Q 2906 2381 2643 2742 
Q 2381 3103 1925 3103 
Q 1469 3103 1208 2742 
Q 947 2381 947 1747 
z
" transform="scale(0.015625)"/>
       <path id="DejaVuSans-66" d="M 2375 4863 
L 2375 4384 
L 1825 4384 
Q 1516 4384 1395 4259 
Q 1275 4134 1275 3809 
L 1275 3500 
L 2222 3500 
L 2222 3053 
L 1275 3053 
L 1275 0 
L 697 0 
L 697 3053 
L 147 3053 
L 147 3500 
L 697 3500 
L 697 3744 
Q 697 4328 969 4595 
Q 1241 4863 1831 4863 
L 2375 4863 
z
" transform="scale(0.015625)"/>
       <path id="DejaVuSans-6f" d="M 1959 3097 
Q 1497 3097 1228 2736 
Q 959 2375 959 1747 
Q 959 1119 1226 758 
Q 1494 397 1959 397 
Q 2419 397 2687 759 
Q 2956 1122 2956 1747 
Q 2956 2369 2687 2733 
Q 2419 3097 1959 3097 
z
M 1959 3584 
Q 2709 3584 3137 3096 
Q 3566 2609 3566 1747 
Q 3566 888 3137 398 
Q 2709 -91 1959 -91 
Q 1206 -91 779 398 
Q 353 888 353 1747 
Q 353 2609 779 3096 
Q 1206 3584 1959 3584 
z
" transform="scale(0.015625)"/>
       <path id="DejaVuSans-74" d="M 1172 4494 
L 1172 3500 
L 2356 3500 
L 2356 3053 
L 1172 3053 
L 1172 1153 
Q 1172 725 1289 603 
Q 1406 481 1766 481 
L 2356 481 
L 2356 0 
L 1766 0 
Q 1100 0 847 248 
Q 594 497 594 1153 
L 594 3053 
L 172 3053 
L 172 3500 
L 594 3500 
L 594 4494 
L 1172 4494 
z
" transform="scale(0.015625)"/>
       <path id="DejaVuSans-73" d="M 2834 3397 
L 2834 2853 
Q 2591 2978 2328 3040 
Q 2066 3103 1784 3103 
Q 1356 3103 1142 2972 
Q 928 2841 928 2578 
Q 928 2378 1081 2264 
Q 1234 2150 1697 2047 
L 1894 2003 
Q 2506 1872 2764 1633 
Q 3022 1394 3022 966 
Q 3022 478 2636 193 
Q 2250 -91 1575 -91 
Q 1294 -91 989 -36 
Q 684 19 347 128 
L 347 722 
Q 666 556 975 473 
Q 1284 391 1588 391 
Q 1994 391 2212 530 
Q 2431 669 2431 922 
Q 2431 1156 2273 1281 
Q 2116 1406 1581 1522 
L 1381 1569 
Q 847 1681 609 1914 
Q 372 2147 372 2553 
Q 372 3047 722 3315 
Q 1072 3584 1716 3584 
Q 2034 3584 2315 3537 
Q 2597 3491 2834 3397 
z
" transform="scale(0.015625)"/>
       <path id="DejaVuSans-62" d="M 3116 1747 
Q 3116 2381 2855 2742 
Q 2594 3103 2138 3103 
Q 1681 3103 1420 2742 
Q 1159 2381 1159 1747 
Q 1159 1113 1420 752 
Q 1681 391 2138 391 
Q 2594 391 2855 752 
Q 3116 1113 3116 1747 
z
M 1159 2969 
Q 1341 3281 1617 3432 
Q 1894 3584 2278 3584 
Q 2916 3584 3314 3078 
Q 3713 2572 3713 1747 
Q 3713 922 3314 415 
Q 2916 -91 2278 -91 
Q 1894 -91 1617 61 
Q 1341 213 1159 525 
L 1159 0 
L 581 0 
L 581 4863 
L 1159 4863 
L 1159 2969 
z
" transform="scale(0.015625)"/>
       <path id="DejaVuSans-2c" d="M 750 794 
L 1409 794 
L 1409 256 
L 897 -744 
L 494 -744 
L 750 256 
L 750 794 
z
" transform="scale(0.015625)"/>
       <path id="DejaVuSans-75" d="M 544 1381 
L 544 3500 
L 1119 3500 
L 1119 1403 
Q 1119 906 1312 657 
Q 1506 409 1894 409 
Q 2359 409 2629 706 
Q 2900 1003 2900 1516 
L 2900 3500 
L 3475 3500 
L 3475 0 
L 2900 0 
L 2900 538 
Q 2691 219 2414 64 
Q 2138 -91 1772 -91 
Q 1169 -91 856 284 
Q 544 659 544 1381 
z
M 1991 3584 
L 1991 3584 
z
" transform="scale(0.015625)"/>
       <path id="DejaVuSans-e0" d="M 2194 1759 
Q 1497 1759 1228 1600 
Q 959 1441 959 1056 
Q 959 750 1161 570 
Q 1363 391 1709 391 
Q 2188 391 2477 730 
Q 2766 1069 2766 1631 
L 2766 1759 
L 2194 1759 
z
M 3341 1997 
L 3341 0 
L 2766 0 
L 2766 531 
Q 2569 213 2275 61 
Q 1981 -91 1556 -91 
Q 1019 -91 701 211 
Q 384 513 384 1019 
Q 384 1609 779 1909 
Q 1175 2209 1959 2209 
L 2766 2209 
L 2766 2266 
Q 2766 2663 2505 2880 
Q 2244 3097 1772 3097 
Q 1472 3097 1187 3025 
Q 903 2953 641 2809 
L 641 3341 
Q 956 3463 1253 3523 
Q 1550 3584 1831 3584 
Q 2591 3584 2966 3190 
Q 3341 2797 3341 1997 
z
M 1403 5119 
L 2284 3950 
L 1806 3950 
L 787 5119 
L 1403 5119 
z
" transform="scale(0.015625)"/>
      </defs>
      <use xlink:href="#DejaVuSans-65"/>
      <use xlink:href="#DejaVuSans-6e" transform="translate(61.523438 0)"/>
      <use xlink:href="#DejaVuSans-65" transform="translate(124.902344 0)"/>
      <use xlink:href="#DejaVuSans-72" transform="translate(186.425781 0)"/>
      <use xlink:href="#DejaVuSans-67" transform="translate(225.789062 0)"/>
      <use xlink:href="#DejaVuSans-69" transform="translate(289.265625 0)"/>
      <use xlink:href="#DejaVuSans-61" transform="translate(317.048828 0)"/>
      <use xlink:href="#DejaVuSans-20" transform="translate(378.328125 0)"/>
      <use xlink:href="#DejaVuSans-64" transform="translate(410.115234 0)"/>
      <use xlink:href="#DejaVuSans-65" transform="translate(473.591797 0)"/>
      <use xlink:href="#DejaVuSans-69" transform="translate(535.115234 0)"/>
      <use xlink:href="#DejaVuSans-20" transform="translate(562.898438 0)"/>
      <use xlink:href="#DejaVuSans-66" transform="translate(594.685547 0)"/>
      <use xlink:href="#DejaVuSans-6f" transform="translate(629.890625 0)"/>
      <use xlink:href="#DejaVuSans-74" transform="translate(691.072266 0)"/>
      <use xlink:href="#DejaVuSans-6f" transform="translate(730.28125 0)"/>
      <use xlink:href="#DejaVuSans-6e" transform="translate(791.462891 0)"/>
      <use xlink:href="#DejaVuSans-69" transform="translate(854.841797 0)"/>
      <use xlink:href="#DejaVuSans-20" transform="translate(882.625 0)"/>
      <use xlink:href="#DejaVuSans-61" transform="translate(914.412109 0)"/>
      <use xlink:href="#DejaVuSans-73" transform="translate(975.691406 0)"/>
      <use xlink:href="#DejaVuSans-73" transform="translate(1027.791016 0)"/>
      <use xlink:href="#DejaVuSans-6f" transform="translate(1079.890625 0)"/>
      <use xlink:href="#DejaVuSans-72" transform="translate(1141.072266 0)"/>
      <use xlink:href="#DejaVuSans-62" transform="translate(1182.185547 0)"/>
      <use xlink:href="#DejaVuSans-69" transform="translate(1245.662109 0)"/>
      <use xlink:href="#DejaVuSans-74" transform="translate(1273.445312 0)"/>
      <use xlink:href="#DejaVuSans-69" transform="translate(1312.654297 0)"/>
      <use xlink:href="#DejaVuSans-2c" transform="translate(1340.4375 0)"/>
      <use xlink:href="#DejaVuSans-20" transform="translate(1372.224609 0)"/>
      <use xlink:href="#DejaVuSans-75" transform="translate(1404.011719 0)"/>
      <use xlink:href="#DejaVuSans-6e" transform="translate(1467.390625 0)"/>
      <use xlink:href="#DejaVuSans-69" transform="translate(1530.769531 0)"/>
      <use xlink:href="#DejaVuSans-74" transform="translate(1558.552734 0)"/>
      <use xlink:href="#DejaVuSans-e0" transform="translate(1597.761719 0)"/>
      <use xlink:href="#DejaVuSans-20" transform="translate(1659.041016 0)"/>
      <use xlink:href="#DejaVuSans-61" transform="translate(1690.828125 0)"/>
      <use xlink:href="#DejaVuSans-72" transform="translate(1752.107422 0)"/>
      <use xlink:href="#DejaVuSans-62" transform="translate(1793.220703 0)"/>
      <use xlink:href="#DejaVuSans-69" transform="translate(1856.697266 0)"/>
      <use xlink:href="#DejaVuSans-74" transform="translate(1884.480469 0)"/>
      <use xlink:href="#DejaVuSans-72" transform="translate(1923.689453 0)"/>
      <use xlink:href="#DejaVuSans-61" transform="translate(1964.802734 0)"/>
      <use xlink:href="#DejaVuSans-72" transform="translate(2026.082031 0)"/>
      <use xlink:href="#DejaVuSans-69" transform="translate(2067.195312 0)"/>
      <use xlink:href="#DejaVuSans-65" transform="translate(2094.978516 0)"/>
     </g>
    </g>
   </g>
   <g id="matplotlib.axis_2">
    <g id="text_8">
     <!-- coefficiente di assorbimento, unità arbitrarie -->
     <g transform="translate(49.442188 330.938187) rotate(-90) scale(0.1 -0.1)">
      <defs>
       <path id="DejaVuSans-63" d="M 3122 3366 
L 3122 2828 
Q 2878 2963 2633 3030 
Q 2388 3097 2138 3097 
Q 1578 3097 1268 2742 
Q 959 2388 959 1747 
Q 959 1106 1268 751 
Q 1578 397 2138 397 
Q 2388 397 2633 464 
Q 2878 531 3122 666 
L 3122 134 
Q 2881 22 2623 -34 
Q 2366 -91 2075 -91 
Q 1284 -91 818 406 
Q 353 903 353 1747 
Q 353 2603 823 3093 
Q 1294 3584 2113 3584 
Q 2378 3584 2631 3529 
Q 2884 3475 3122 3366 
z
" transform="scale(0.015625)"/>
       <path id="DejaVuSans-6d" d="M 3328 2828 
Q 3544 3216 3844 3400 
Q 4144 3584 4550 3584 
Q 5097 3584 5394 3201 
Q 5691 2819 5691 2113 
L 5691 0 
L 5113 0 
L 5113 2094 
Q 5113 2597 4934 2840 
Q 4756 3084 4391 3084 
Q 3944 3084 3684 2787 
Q 3425 2491 3425 1978 
L 3425 0 
L 2847 0 
L 2847 2094 
Q 2847 2600 2669 2842 
Q 2491 3084 2119 3084 
Q 1678 3084 1418 2786 
Q 1159 2488 1159 1978 
L 1159 0 
L 581 0 
L 581 3500 
L 1159 3500 
L 1159 2956 
Q 1356 3278 1631 3431 
Q 1906 3584 2284 3584 
Q 2666 3584 2933 3390 
Q 3200 3197 3328 2828 
z
" transform="scale(0.015625)"/>
      </defs>
      <use xlink:href="#DejaVuSans-63"/>
      <use xlink:href="#DejaVuSans-6f" transform="translate(54.980469 0)"/>
      <use xlink:href="#DejaVuSans-65" transform="translate(116.162109 0)"/>
      <use xlink:href="#DejaVuSans-66" transform="translate(177.685547 0)"/>
      <use xlink:href="#DejaVuSans-66" transform="translate(212.890625 0)"/>
      <use xlink:href="#DejaVuSans-69" transform="translate(248.095703 0)"/>
      <use xlink:href="#DejaVuSans-63" transform="translate(275.878906 0)"/>
      <use xlink:href="#DejaVuSans-69" transform="translate(330.859375 0)"/>
      <use xlink:href="#DejaVuSans-65" transform="translate(358.642578 0)"/>
      <use xlink:href="#DejaVuSans-6e" transform="translate(420.166016 0)"/>
      <use xlink:href="#DejaVuSans-74" transform="translate(483.544922 0)"/>
      <use xlink:href="#DejaVuSans-65" transform="translate(522.753906 0)"/>
      <use xlink:href="#DejaVuSans-20" transform="translate(584.277344 0)"/>
      <use xlink:href="#DejaVuSans-64" transform="translate(616.064453 0)"/>
      <use xlink:href="#DejaVuSans-69" transform="translate(679.541016 0)"/>
      <use xlink:href="#DejaVuSans-20" transform="translate(707.324219 0)"/>
      <use xlink:href="#DejaVuSans-61" transform="translate(739.111328 0)"/>
      <use xlink:href="#DejaVuSans-73" transform="translate(800.390625 0)"/>
      <use xlink:href="#DejaVuSans-73" transform="translate(852.490234 0)"/>
      <use xlink:href="#DejaVuSans-6f" transform="translate(904.589844 0)"/>
      <use xlink:href="#DejaVuSans-72" transform="translate(965.771484 0)"/>
      <use xlink:href="#DejaVuSans-62" transform="translate(1006.884766 0)"/>
      <use xlink:href="#DejaVuSans-69" transform="translate(1070.361328 0)"/>
      <use xlink:href="#DejaVuSans-6d" transform="translate(1098.144531 0)"/>
      <use xlink:href="#DejaVuSans-65" transform="translate(1195.556641 0)"/>
      <use xlink:href="#DejaVuSans-6e" transform="translate(1257.080078 0)"/>
      <use xlink:href="#DejaVuSans-74" transform="translate(1320.458984 0)"/>
      <use xlink:href="#DejaVuSans-6f" transform="translate(1359.667969 0)"/>
      <use xlink:href="#DejaVuSans-2c" transform="translate(1420.849609 0)"/>
      <use xlink:href="#DejaVuSans-20" transform="translate(1452.636719 0)"/>
      <use xlink:href="#DejaVuSans-75" transform="translate(1484.423828 0)"/>
      <use xlink:href="#DejaVuSans-6e" transform="translate(1547.802734 0)"/>
      <use xlink:href="#DejaVuSans-69" transform="translate(1611.181641 0)"/>
      <use xlink:href="#DejaVuSans-74" transform="translate(1638.964844 0)"/>
      <use xlink:href="#DejaVuSans-e0" transform="translate(1678.173828 0)"/>
      <use xlink:href="#DejaVuSans-20" transform="translate(1739.453125 0)"/>
      <use xlink:href="#DejaVuSans-61" transform="translate(1771.240234 0)"/>
      <use xlink:href="#DejaVuSans-72" transform="translate(1832.519531 0)"/>
      <use xlink:href="#DejaVuSans-62" transform="translate(1873.632812 0)"/>
      <use xlink:href="#DejaVuSans-69" transform="translate(1937.109375 0)"/>
      <use xlink:href="#DejaVuSans-74" transform="translate(1964.892578 0)"/>
      <use xlink:href="#DejaVuSans-72" transform="translate(2004.101562 0)"/>
      <use xlink:href="#DejaVuSans-61" transform="translate(2045.214844 0)"/>
      <use xlink:href="#DejaVuSans-72" transform="translate(2106.494141 0)"/>
      <use xlink:href="#DejaVuSans-69" transform="translate(2147.607422 0)"/>
      <use xlink:href="#DejaVuSans-65" transform="translate(2175.390625 0)"/>
     </g>
    </g>
   </g>
   <g id="line2d_13">
    <path d="M 55.432869 407.589656 
L 268.809847 407.589656 
L 269.269711 401.240902 
L 269.729575 396.921615 
L 270.649303 391.440107 
L 271.569032 387.395381 
L 272.948624 382.523543 
L 274.328217 378.45529 
L 276.167673 373.78414 
L 278.00713 369.684319 
L 280.306451 365.112407 
L 283.065636 360.204857 
L 285.824821 355.759919 
L 289.04387 351.013825 
L 292.722784 346.0362 
L 296.401697 341.432031 
L 300.540475 336.608426 
L 305.139116 331.607163 
L 310.197622 326.461093 
L 315.715993 321.196087 
L 321.234363 316.234011 
L 327.212597 311.146101 
L 333.650695 305.951252 
L 340.548658 300.66505 
L 347.906485 295.300395 
L 355.724176 289.868013 
L 364.001731 284.376862 
L 373.199014 278.549348 
L 382.856162 272.701147 
L 392.973174 266.834837 
L 403.55005 260.952592 
L 415.046654 254.815512 
L 427.003123 248.684182 
L 439.87932 242.335423 
L 453.215381 236.007391 
L 467.471171 229.491406 
L 482.646688 222.807351 
L 498.28207 216.164698 
L 514.837181 209.37379 
L 532.312019 202.449349 
L 550.706586 195.404449 
L 570.020882 188.250695 
L 590.254905 180.998398 
L 611.408658 173.656723 
L 633.482138 166.233825 
L 656.475347 158.736972 
L 669.351544 154.635767 
L 669.351544 154.635767 
" clip-path="url(#p8d2b61e974)" style="fill: none; stroke: #1f77b4; stroke-width: 2.5; stroke-linecap: square"/>
   </g>
   <g id="line2d_14">
    <path d="M 55.432869 407.589656 
L 194.771714 407.505446 
L 195.691443 407.333474 
L 196.611171 406.872007 
L 197.071035 406.425099 
L 197.530899 405.738452 
L 197.990764 404.707004 
L 198.450628 403.19247 
L 198.910492 401.019101 
L 199.370356 397.971895 
L 199.83022 393.798823 
L 200.290084 388.218673 
L 200.749949 380.935958 
L 201.669677 360.154207 
L 202.589405 329.85277 
L 203.509134 290.281061 
L 205.808455 178.836111 
L 206.268319 161.830694 
L 206.728183 148.949748 
L 207.188047 140.949009 
L 207.647911 138.311072 
L 208.107775 141.197202 
L 208.56764 149.431015 
L 209.027504 162.516323 
L 209.947232 199.979416 
L 212.706417 330.64502 
L 213.626145 360.725008 
L 214.545874 381.305688 
L 215.465602 394.01543 
L 215.925466 398.131769 
L 216.385331 401.134335 
L 216.845195 403.273609 
L 217.305059 404.76283 
L 217.764923 405.775993 
L 218.224787 406.449777 
L 218.684651 406.887868 
L 219.60438 407.339602 
L 220.983972 407.544093 
L 224.203022 407.58924 
L 241.217996 407.508506 
L 242.137724 407.351723 
L 243.057453 406.947264 
L 243.517317 406.56627 
L 243.977181 405.992587 
L 244.437045 405.14818 
L 244.896909 403.933491 
L 245.356774 402.226212 
L 245.816638 399.882283 
L 246.276502 396.740058 
L 246.736366 392.628483 
L 247.19623 387.379842 
L 248.115959 372.924745 
L 249.035687 352.837851 
L 250.41528 314.476114 
L 251.794872 276.026423 
L 252.7146 258.074608 
L 253.174465 252.983246 
L 253.634329 250.886345 
L 254.094193 251.844041 
L 254.554057 255.698621 
L 255.013921 262.078868 
L 255.93365 280.033922 
L 257.313242 308.52847 
L 257.773106 315.478517 
L 258.232971 320.262891 
L 258.692835 322.64504 
L 259.152699 322.616434 
L 259.612563 320.382812 
L 260.072427 316.325842 
L 260.992156 304.810361 
L 261.911884 292.512771 
L 262.371748 287.405534 
L 262.831612 283.637942 
L 263.291476 281.656905 
L 263.751341 281.867032 
L 264.211205 284.590291 
L 264.671069 290.002446 
L 265.130933 298.064863 
L 266.050662 320.68706 
L 267.890118 371.682369 
L 268.809847 389.360089 
L 269.729575 391.864193 
L 270.189439 392.646309 
L 270.649303 392.801628 
L 271.109167 392.457708 
L 272.028896 390.905774 
L 275.707809 383.390841 
L 277.547266 380.266564 
L 279.846587 376.803377 
L 282.605772 373.103602 
L 285.364957 369.763991 
L 288.584006 366.207018 
L 292.26292 362.484076 
L 296.401697 358.633014 
L 301.000339 354.681801 
L 306.058845 350.651284 
L 311.577215 346.557172 
L 317.555449 342.411447 
L 323.993548 338.223364 
L 330.89151 334.000153 
L 338.249337 329.747532 
L 346.526892 325.225373 
L 355.264312 320.70696 
L 364.921459 315.971818 
L 375.038471 311.26052 
L 386.075211 306.370713 
L 398.03168 301.327038 
L 410.448013 296.331118 
L 423.784074 291.203753 
L 438.039863 285.961567 
L 453.215381 280.61878 
L 469.310627 275.18757 
L 486.325602 269.678384 
L 504.720169 263.960021 
L 524.034464 258.191119 
L 544.728352 252.24771 
L 566.341968 246.27377 
L 589.335177 240.152335 
L 613.707978 233.898998 
L 639.000508 227.639301 
L 665.67263 221.265846 
L 669.351544 220.403778 
L 669.351544 220.403778 
" clip-path="url(#p8d2b61e974)" style="fill: none; stroke: #ff7f0e; stroke-width: 2.1; stroke-linecap: square"/>
   </g>
   <g id="line2d_15">
    <path d="M 55.432869 407.589656 
L 268.809847 407.589656 
L 269.269711 402.891578 
L 269.729575 399.695306 
L 270.649303 395.63899 
L 271.569032 392.645892 
L 272.948624 389.040733 
L 274.328217 386.030226 
L 276.167673 382.573574 
L 278.466994 378.831205 
L 280.766315 375.522654 
L 283.5255 371.955605 
L 286.744549 368.200223 
L 289.963599 364.772963 
L 293.642512 361.16488 
L 297.78129 357.414968 
L 302.379931 353.552747 
L 307.438437 349.600651 
L 312.956807 345.575862 
L 318.935042 341.491658 
L 325.37314 337.358402 
L 332.271103 333.18427 
L 340.088794 328.720197 
L 348.366349 324.253767 
L 357.563632 319.556441 
L 367.22078 314.880043 
L 377.797656 310.015092 
L 388.834396 305.184737 
L 400.790865 300.196747 
L 413.667062 295.072084 
L 427.462987 289.828589 
L 442.178641 284.481446 
L 457.814023 279.043588 
L 474.369133 273.526054 
L 491.843972 267.938287 
L 510.238539 262.288389 
L 530.012698 256.450125 
L 550.706586 250.572603 
L 572.780067 244.536601 
L 596.23314 238.359077 
L 620.605941 232.169654 
L 646.358335 225.85878 
L 669.351544 220.403778 
L 669.351544 220.403778 
" clip-path="url(#p8d2b61e974)" style="fill: none; stroke-dasharray: 6.66,2.88; stroke-dashoffset: 0; stroke: #2ca02c; stroke-width: 1.8"/>
   </g>
   <g id="LineCollection_1">
    <path d="M 207.637527 407.589656 
L 207.637527 138.370638 
" clip-path="url(#p8d2b61e974)" style="fill: none; stroke: #1f77b4"/>
   </g>
   <g id="LineCollection_2">
    <path d="M 253.672527 407.589656 
L 253.672527 250.965896 
" clip-path="url(#p8d2b61e974)" style="fill: none; stroke: #1f77b4"/>
   </g>
   <g id="LineCollection_3">
    <path d="M 262.197527 407.589656 
L 262.197527 289.340426 
" clip-path="url(#p8d2b61e974)" style="fill: none; stroke: #1f77b4"/>
   </g>
   <g id="LineCollection_4">
    <path d="M 265.181277 407.589656 
L 265.181277 299.204944 
" clip-path="url(#p8d2b61e974)" style="fill: none; stroke: #1f77b4"/>
   </g>
   <g id="line2d_16">
    <path d="M 269.017527 407.589656 
L 269.017527 30.597656 
" clip-path="url(#p8d2b61e974)" style="fill: none; stroke-dasharray: 1,1.65; stroke-dashoffset: 0; stroke: #1f77b4"/>
   </g>
   <g id="patch_4">
    <path d="M 55.521875 407.589656 
L 55.521875 30.597656 
" style="fill: none; stroke: #000000; stroke-width: 0.8; stroke-linejoin: miter; stroke-linecap: square"/>
   </g>
   <g id="patch_5">
    <path d="M 669.321875 407.589656 
L 669.321875 30.597656 
" style="fill: none; stroke: #000000; stroke-width: 0.8; stroke-linejoin: miter; stroke-linecap: square"/>
   </g>
   <g id="patch_6">
    <path d="M 55.521875 407.589656 
L 669.321875 407.589656 
" style="fill: none; stroke: #000000; stroke-width: 0.8; stroke-linejoin: miter; stroke-linecap: square"/>
   </g>
   <g id="patch_7">
    <path d="M 55.521875 30.597656 
L 669.321875 30.597656 
" style="fill: none; stroke: #000000; stroke-width: 0.8; stroke-linejoin: miter; stroke-linecap: square"/>
   </g>
   <g id="text_9">
    <!-- n=1 -->
    <g transform="translate(198.151668 119.521038) scale(0.09 -0.09)">
     <defs>
      <path id="DejaVuSans-3d" d="M 678 2906 
L 4684 2906 
L 4684 2381 
L 678 2381 
L 678 2906 
z
M 678 1631 
L 4684 1631 
L 4684 1100 
L 678 1100 
L 678 1631 
z
" transform="scale(0.015625)"/>
     </defs>
     <use xlink:href="#DejaVuSans-6e"/>
     <use xlink:href="#DejaVuSans-3d" transform="translate(63.378906 0)"/>
     <use xlink:href="#DejaVuSans-31" transform="translate(147.167969 0)"/>
    </g>
   </g>
   <g id="text_10">
    <!-- n=2 -->
    <g transform="translate(244.186668 232.116296) scale(0.09 -0.09)">
     <use xlink:href="#DejaVuSans-6e"/>
     <use xlink:href="#DejaVuSans-3d" transform="translate(63.378906 0)"/>
     <use xlink:href="#DejaVuSans-32" transform="translate(147.167969 0)"/>
    </g>
   </g>
   <g id="text_11">
    <!-- n=3 -->
    <g transform="translate(252.711668 270.490826) scale(0.09 -0.09)">
     <defs>
      <path id="DejaVuSans-33" d="M 2597 2516 
Q 3050 2419 3304 2112 
Q 3559 1806 3559 1356 
Q 3559 666 3084 287 
Q 2609 -91 1734 -91 
Q 1441 -91 1130 -33 
Q 819 25 488 141 
L 488 750 
Q 750 597 1062 519 
Q 1375 441 1716 441 
Q 2309 441 2620 675 
Q 2931 909 2931 1356 
Q 2931 1769 2642 2001 
Q 2353 2234 1838 2234 
L 1294 2234 
L 1294 2753 
L 1863 2753 
Q 2328 2753 2575 2939 
Q 2822 3125 2822 3475 
Q 2822 3834 2567 4026 
Q 2313 4219 1838 4219 
Q 1578 4219 1281 4162 
Q 984 4106 628 3988 
L 628 4550 
Q 988 4650 1302 4700 
Q 1616 4750 1894 4750 
Q 2613 4750 3031 4423 
Q 3450 4097 3450 3541 
Q 3450 3153 3228 2886 
Q 3006 2619 2597 2516 
z
" transform="scale(0.015625)"/>
     </defs>
     <use xlink:href="#DejaVuSans-6e"/>
     <use xlink:href="#DejaVuSans-3d" transform="translate(63.378906 0)"/>
     <use xlink:href="#DejaVuSans-33" transform="translate(147.167969 0)"/>
    </g>
   </g>
   <g id="text_12">
    <!-- n=4 -->
    <g transform="translate(255.695418 280.355344) scale(0.09 -0.09)">
     <use xlink:href="#DejaVuSans-6e"/>
     <use xlink:href="#DejaVuSans-3d" transform="translate(63.378906 0)"/>
     <use xlink:href="#DejaVuSans-34" transform="translate(147.167969 0)"/>
    </g>
   </g>
   <g id="text_13">
    <!-- $E_{\rm gap}$ -->
    <g transform="translate(282.361005 380.661656) scale(0.1 -0.1)">
     <defs>
      <path id="DejaVuSans-Oblique-45" d="M 1081 4666 
L 4031 4666 
L 3928 4134 
L 1606 4134 
L 1338 2753 
L 3566 2753 
L 3463 2222 
L 1234 2222 
L 909 531 
L 3284 531 
L 3181 0 
L 172 0 
L 1081 4666 
z
" transform="scale(0.015625)"/>
      <path id="DejaVuSans-70" d="M 1159 525 
L 1159 -1331 
L 581 -1331 
L 581 3500 
L 1159 3500 
L 1159 2969 
Q 1341 3281 1617 3432 
Q 1894 3584 2278 3584 
Q 2916 3584 3314 3078 
Q 3713 2572 3713 1747 
Q 3713 922 3314 415 
Q 2916 -91 2278 -91 
Q 1894 -91 1617 61 
Q 1341 213 1159 525 
z
M 3116 1747 
Q 3116 2381 2855 2742 
Q 2594 3103 2138 3103 
Q 1681 3103 1420 2742 
Q 1159 2381 1159 1747 
Q 1159 1113 1420 752 
Q 1681 391 2138 391 
Q 2594 391 2855 752 
Q 3116 1113 3116 1747 
z
" transform="scale(0.015625)"/>
     </defs>
     <use xlink:href="#DejaVuSans-Oblique-45" transform="translate(0 0.09375)"/>
     <use xlink:href="#DejaVuSans-67" transform="translate(63.183594 -16.3125) scale(0.7)"/>
     <use xlink:href="#DejaVuSans-61" transform="translate(107.617188 -16.3125) scale(0.7)"/>
     <use xlink:href="#DejaVuSans-70" transform="translate(150.512695 -16.3125) scale(0.7)"/>
    </g>
   </g>
   <g id="text_14">
    <!-- regione del gap -->
    <g transform="translate(11.288281 79.068056) scale(0.1 -0.1)">
     <defs>
      <path id="DejaVuSans-Bold-72" d="M 3138 2547 
Q 2991 2616 2845 2648 
Q 2700 2681 2553 2681 
Q 2122 2681 1889 2404 
Q 1656 2128 1656 1613 
L 1656 0 
L 538 0 
L 538 3500 
L 1656 3500 
L 1656 2925 
Q 1872 3269 2151 3426 
Q 2431 3584 2822 3584 
Q 2878 3584 2943 3579 
Q 3009 3575 3134 3559 
L 3138 2547 
z
" transform="scale(0.015625)"/>
      <path id="DejaVuSans-Bold-65" d="M 4031 1759 
L 4031 1441 
L 1416 1441 
Q 1456 1047 1700 850 
Q 1944 653 2381 653 
Q 2734 653 3104 758 
Q 3475 863 3866 1075 
L 3866 213 
Q 3469 63 3072 -14 
Q 2675 -91 2278 -91 
Q 1328 -91 801 392 
Q 275 875 275 1747 
Q 275 2603 792 3093 
Q 1309 3584 2216 3584 
Q 3041 3584 3536 3087 
Q 4031 2591 4031 1759 
z
M 2881 2131 
Q 2881 2450 2695 2645 
Q 2509 2841 2209 2841 
Q 1884 2841 1681 2658 
Q 1478 2475 1428 2131 
L 2881 2131 
z
" transform="scale(0.015625)"/>
      <path id="DejaVuSans-Bold-67" d="M 2919 594 
Q 2688 288 2409 144 
Q 2131 0 1766 0 
Q 1125 0 706 504 
Q 288 1009 288 1791 
Q 288 2575 706 3076 
Q 1125 3578 1766 3578 
Q 2131 3578 2409 3434 
Q 2688 3291 2919 2981 
L 2919 3500 
L 4044 3500 
L 4044 353 
Q 4044 -491 3511 -936 
Q 2978 -1381 1966 -1381 
Q 1638 -1381 1331 -1331 
Q 1025 -1281 716 -1178 
L 716 -306 
Q 1009 -475 1290 -558 
Q 1572 -641 1856 -641 
Q 2406 -641 2662 -400 
Q 2919 -159 2919 353 
L 2919 594 
z
M 2181 2772 
Q 1834 2772 1640 2515 
Q 1447 2259 1447 1791 
Q 1447 1309 1634 1061 
Q 1822 813 2181 813 
Q 2531 813 2725 1069 
Q 2919 1325 2919 1791 
Q 2919 2259 2725 2515 
Q 2531 2772 2181 2772 
z
" transform="scale(0.015625)"/>
      <path id="DejaVuSans-Bold-69" d="M 538 3500 
L 1656 3500 
L 1656 0 
L 538 0 
L 538 3500 
z
M 538 4863 
L 1656 4863 
L 1656 3950 
L 538 3950 
L 538 4863 
z
" transform="scale(0.015625)"/>
      <path id="DejaVuSans-Bold-6f" d="M 2203 2784 
Q 1831 2784 1636 2517 
Q 1441 2250 1441 1747 
Q 1441 1244 1636 976 
Q 1831 709 2203 709 
Q 2569 709 2762 976 
Q 2956 1244 2956 1747 
Q 2956 2250 2762 2517 
Q 2569 2784 2203 2784 
z
M 2203 3584 
Q 3106 3584 3614 3096 
Q 4122 2609 4122 1747 
Q 4122 884 3614 396 
Q 3106 -91 2203 -91 
Q 1297 -91 786 396 
Q 275 884 275 1747 
Q 275 2609 786 3096 
Q 1297 3584 2203 3584 
z
" transform="scale(0.015625)"/>
      <path id="DejaVuSans-Bold-6e" d="M 4056 2131 
L 4056 0 
L 2931 0 
L 2931 347 
L 2931 1631 
Q 2931 2084 2911 2256 
Q 2891 2428 2841 2509 
Q 2775 2619 2662 2680 
Q 2550 2741 2406 2741 
Q 2056 2741 1856 2470 
Q 1656 2200 1656 1722 
L 1656 0 
L 538 0 
L 538 3500 
L 1656 3500 
L 1656 2988 
Q 1909 3294 2193 3439 
Q 2478 3584 2822 3584 
Q 3428 3584 3742 3212 
Q 4056 2841 4056 2131 
z
" transform="scale(0.015625)"/>
      <path id="DejaVuSans-Bold-20" transform="scale(0.015625)"/>
      <path id="DejaVuSans-Bold-64" d="M 2919 2988 
L 2919 4863 
L 4044 4863 
L 4044 0 
L 2919 0 
L 2919 506 
Q 2688 197 2409 53 
Q 2131 -91 1766 -91 
Q 1119 -91 703 423 
Q 288 938 288 1747 
Q 288 2556 703 3070 
Q 1119 3584 1766 3584 
Q 2128 3584 2408 3439 
Q 2688 3294 2919 2988 
z
M 2181 722 
Q 2541 722 2730 984 
Q 2919 1247 2919 1747 
Q 2919 2247 2730 2509 
Q 2541 2772 2181 2772 
Q 1825 2772 1636 2509 
Q 1447 2247 1447 1747 
Q 1447 1247 1636 984 
Q 1825 722 2181 722 
z
" transform="scale(0.015625)"/>
      <path id="DejaVuSans-Bold-6c" d="M 538 4863 
L 1656 4863 
L 1656 0 
L 538 0 
L 538 4863 
z
" transform="scale(0.015625)"/>
      <path id="DejaVuSans-Bold-61" d="M 2106 1575 
Q 1756 1575 1579 1456 
Q 1403 1338 1403 1106 
Q 1403 894 1545 773 
Q 1688 653 1941 653 
Q 2256 653 2472 879 
Q 2688 1106 2688 1447 
L 2688 1575 
L 2106 1575 
z
M 3816 1997 
L 3816 0 
L 2688 0 
L 2688 519 
Q 2463 200 2181 54 
Q 1900 -91 1497 -91 
Q 953 -91 614 226 
Q 275 544 275 1050 
Q 275 1666 698 1953 
Q 1122 2241 2028 2241 
L 2688 2241 
L 2688 2328 
Q 2688 2594 2478 2717 
Q 2269 2841 1825 2841 
Q 1466 2841 1156 2769 
Q 847 2697 581 2553 
L 581 3406 
Q 941 3494 1303 3539 
Q 1666 3584 2028 3584 
Q 2975 3584 3395 3211 
Q 3816 2838 3816 1997 
z
" transform="scale(0.015625)"/>
      <path id="DejaVuSans-Bold-70" d="M 1656 506 
L 1656 -1331 
L 538 -1331 
L 538 3500 
L 1656 3500 
L 1656 2988 
Q 1888 3294 2169 3439 
Q 2450 3584 2816 3584 
Q 3463 3584 3878 3070 
Q 4294 2556 4294 1747 
Q 4294 938 3878 423 
Q 3463 -91 2816 -91 
Q 2450 -91 2169 54 
Q 1888 200 1656 506 
z
M 2400 2772 
Q 2041 2772 1848 2508 
Q 1656 2244 1656 1747 
Q 1656 1250 1848 986 
Q 2041 722 2400 722 
Q 2759 722 2948 984 
Q 3138 1247 3138 1747 
Q 3138 2247 2948 2509 
Q 2759 2772 2400 2772 
z
" transform="scale(0.015625)"/>
     </defs>
     <use xlink:href="#DejaVuSans-Bold-72"/>
     <use xlink:href="#DejaVuSans-Bold-65" transform="translate(49.316406 0)"/>
     <use xlink:href="#DejaVuSans-Bold-67" transform="translate(117.138672 0)"/>
     <use xlink:href="#DejaVuSans-Bold-69" transform="translate(188.720703 0)"/>
     <use xlink:href="#DejaVuSans-Bold-6f" transform="translate(222.998047 0)"/>
     <use xlink:href="#DejaVuSans-Bold-6e" transform="translate(291.699219 0)"/>
     <use xlink:href="#DejaVuSans-Bold-65" transform="translate(362.890625 0)"/>
     <use xlink:href="#DejaVuSans-Bold-20" transform="translate(430.712891 0)"/>
     <use xlink:href="#DejaVuSans-Bold-64" transform="translate(465.527344 0)"/>
     <use xlink:href="#DejaVuSans-Bold-65" transform="translate(537.109375 0)"/>
     <use xlink:href="#DejaVuSans-Bold-6c" transform="translate(604.931641 0)"/>
     <use xlink:href="#DejaVuSans-Bold-20" transform="translate(639.208984 0)"/>
     <use xlink:href="#DejaVuSans-Bold-67" transform="translate(674.023438 0)"/>
     <use xlink:href="#DejaVuSans-Bold-61" transform="translate(745.605469 0)"/>
     <use xlink:href="#DejaVuSans-Bold-70" transform="translate(813.085938 0)"/>
    </g>
   </g>
   <g id="text_15">
    <!-- Assorbimento eccitonico vicino alla soglia di un semiconduttore diretto -->
    <g transform="translate(60.458984 18.597656) scale(0.15 -0.15)">
     <defs>
      <path id="DejaVuSans-Bold-41" d="M 3419 850 
L 1538 850 
L 1241 0 
L 31 0 
L 1759 4666 
L 3194 4666 
L 4922 0 
L 3713 0 
L 3419 850 
z
M 1838 1716 
L 3116 1716 
L 2478 3572 
L 1838 1716 
z
" transform="scale(0.015625)"/>
      <path id="DejaVuSans-Bold-73" d="M 3272 3391 
L 3272 2541 
Q 2913 2691 2578 2766 
Q 2244 2841 1947 2841 
Q 1628 2841 1473 2761 
Q 1319 2681 1319 2516 
Q 1319 2381 1436 2309 
Q 1553 2238 1856 2203 
L 2053 2175 
Q 2913 2066 3209 1816 
Q 3506 1566 3506 1031 
Q 3506 472 3093 190 
Q 2681 -91 1863 -91 
Q 1516 -91 1145 -36 
Q 775 19 384 128 
L 384 978 
Q 719 816 1070 734 
Q 1422 653 1784 653 
Q 2113 653 2278 743 
Q 2444 834 2444 1013 
Q 2444 1163 2330 1236 
Q 2216 1309 1875 1350 
L 1678 1375 
Q 931 1469 631 1722 
Q 331 1975 331 2491 
Q 331 3047 712 3315 
Q 1094 3584 1881 3584 
Q 2191 3584 2531 3537 
Q 2872 3491 3272 3391 
z
" transform="scale(0.015625)"/>
      <path id="DejaVuSans-Bold-62" d="M 2400 722 
Q 2759 722 2948 984 
Q 3138 1247 3138 1747 
Q 3138 2247 2948 2509 
Q 2759 2772 2400 2772 
Q 2041 2772 1848 2508 
Q 1656 2244 1656 1747 
Q 1656 1250 1848 986 
Q 2041 722 2400 722 
z
M 1656 2988 
Q 1888 3294 2169 3439 
Q 2450 3584 2816 3584 
Q 3463 3584 3878 3070 
Q 4294 2556 4294 1747 
Q 4294 938 3878 423 
Q 3463 -91 2816 -91 
Q 2450 -91 2169 54 
Q 1888 200 1656 506 
L 1656 0 
L 538 0 
L 538 4863 
L 1656 4863 
L 1656 2988 
z
" transform="scale(0.015625)"/>
      <path id="DejaVuSans-Bold-6d" d="M 3781 2919 
Q 3994 3244 4286 3414 
Q 4578 3584 4928 3584 
Q 5531 3584 5847 3212 
Q 6163 2841 6163 2131 
L 6163 0 
L 5038 0 
L 5038 1825 
Q 5041 1866 5042 1909 
Q 5044 1953 5044 2034 
Q 5044 2406 4934 2573 
Q 4825 2741 4581 2741 
Q 4263 2741 4089 2478 
Q 3916 2216 3909 1719 
L 3909 0 
L 2784 0 
L 2784 1825 
Q 2784 2406 2684 2573 
Q 2584 2741 2328 2741 
Q 2006 2741 1831 2477 
Q 1656 2213 1656 1722 
L 1656 0 
L 531 0 
L 531 3500 
L 1656 3500 
L 1656 2988 
Q 1863 3284 2130 3434 
Q 2397 3584 2719 3584 
Q 3081 3584 3359 3409 
Q 3638 3234 3781 2919 
z
" transform="scale(0.015625)"/>
      <path id="DejaVuSans-Bold-74" d="M 1759 4494 
L 1759 3500 
L 2913 3500 
L 2913 2700 
L 1759 2700 
L 1759 1216 
Q 1759 972 1856 886 
Q 1953 800 2241 800 
L 2816 800 
L 2816 0 
L 1856 0 
Q 1194 0 917 276 
Q 641 553 641 1216 
L 641 2700 
L 84 2700 
L 84 3500 
L 641 3500 
L 641 4494 
L 1759 4494 
z
" transform="scale(0.015625)"/>
      <path id="DejaVuSans-Bold-63" d="M 3366 3391 
L 3366 2478 
Q 3138 2634 2908 2709 
Q 2678 2784 2431 2784 
Q 1963 2784 1702 2511 
Q 1441 2238 1441 1747 
Q 1441 1256 1702 982 
Q 1963 709 2431 709 
Q 2694 709 2930 787 
Q 3166 866 3366 1019 
L 3366 103 
Q 3103 6 2833 -42 
Q 2563 -91 2291 -91 
Q 1344 -91 809 395 
Q 275 881 275 1747 
Q 275 2613 809 3098 
Q 1344 3584 2291 3584 
Q 2566 3584 2833 3536 
Q 3100 3488 3366 3391 
z
" transform="scale(0.015625)"/>
      <path id="DejaVuSans-Bold-76" d="M 97 3500 
L 1216 3500 
L 2088 1081 
L 2956 3500 
L 4078 3500 
L 2700 0 
L 1472 0 
L 97 3500 
z
" transform="scale(0.015625)"/>
      <path id="DejaVuSans-Bold-75" d="M 500 1363 
L 500 3500 
L 1625 3500 
L 1625 3150 
Q 1625 2866 1622 2436 
Q 1619 2006 1619 1863 
Q 1619 1441 1641 1255 
Q 1663 1069 1716 984 
Q 1784 875 1895 815 
Q 2006 756 2150 756 
Q 2500 756 2700 1025 
Q 2900 1294 2900 1772 
L 2900 3500 
L 4019 3500 
L 4019 0 
L 2900 0 
L 2900 506 
Q 2647 200 2364 54 
Q 2081 -91 1741 -91 
Q 1134 -91 817 281 
Q 500 653 500 1363 
z
" transform="scale(0.015625)"/>
     </defs>
     <use xlink:href="#DejaVuSans-Bold-41"/>
     <use xlink:href="#DejaVuSans-Bold-73" transform="translate(77.392578 0)"/>
     <use xlink:href="#DejaVuSans-Bold-73" transform="translate(136.914062 0)"/>
     <use xlink:href="#DejaVuSans-Bold-6f" transform="translate(196.435547 0)"/>
     <use xlink:href="#DejaVuSans-Bold-72" transform="translate(265.136719 0)"/>
     <use xlink:href="#DejaVuSans-Bold-62" transform="translate(314.453125 0)"/>
     <use xlink:href="#DejaVuSans-Bold-69" transform="translate(386.035156 0)"/>
     <use xlink:href="#DejaVuSans-Bold-6d" transform="translate(420.3125 0)"/>
     <use xlink:href="#DejaVuSans-Bold-65" transform="translate(524.511719 0)"/>
     <use xlink:href="#DejaVuSans-Bold-6e" transform="translate(592.333984 0)"/>
     <use xlink:href="#DejaVuSans-Bold-74" transform="translate(663.525391 0)"/>
     <use xlink:href="#DejaVuSans-Bold-6f" transform="translate(711.328125 0)"/>
     <use xlink:href="#DejaVuSans-Bold-20" transform="translate(780.029297 0)"/>
     <use xlink:href="#DejaVuSans-Bold-65" transform="translate(814.84375 0)"/>
     <use xlink:href="#DejaVuSans-Bold-63" transform="translate(882.666016 0)"/>
     <use xlink:href="#DejaVuSans-Bold-63" transform="translate(941.943359 0)"/>
     <use xlink:href="#DejaVuSans-Bold-69" transform="translate(1001.220703 0)"/>
     <use xlink:href="#DejaVuSans-Bold-74" transform="translate(1035.498047 0)"/>
     <use xlink:href="#DejaVuSans-Bold-6f" transform="translate(1083.300781 0)"/>
     <use xlink:href="#DejaVuSans-Bold-6e" transform="translate(1152.001953 0)"/>
     <use xlink:href="#DejaVuSans-Bold-69" transform="translate(1223.193359 0)"/>
     <use xlink:href="#DejaVuSans-Bold-63" transform="translate(1257.470703 0)"/>
     <use xlink:href="#DejaVuSans-Bold-6f" transform="translate(1316.748047 0)"/>
     <use xlink:href="#DejaVuSans-Bold-20" transform="translate(1385.449219 0)"/>
     <use xlink:href="#DejaVuSans-Bold-76" transform="translate(1420.263672 0)"/>
     <use xlink:href="#DejaVuSans-Bold-69" transform="translate(1485.449219 0)"/>
     <use xlink:href="#DejaVuSans-Bold-63" transform="translate(1519.726562 0)"/>
     <use xlink:href="#DejaVuSans-Bold-69" transform="translate(1579.003906 0)"/>
     <use xlink:href="#DejaVuSans-Bold-6e" transform="translate(1613.28125 0)"/>
     <use xlink:href="#DejaVuSans-Bold-6f" transform="translate(1684.472656 0)"/>
     <use xlink:href="#DejaVuSans-Bold-20" transform="translate(1753.173828 0)"/>
     <use xlink:href="#DejaVuSans-Bold-61" transform="translate(1787.988281 0)"/>
     <use xlink:href="#DejaVuSans-Bold-6c" transform="translate(1855.46875 0)"/>
     <use xlink:href="#DejaVuSans-Bold-6c" transform="translate(1889.746094 0)"/>
     <use xlink:href="#DejaVuSans-Bold-61" transform="translate(1924.023438 0)"/>
     <use xlink:href="#DejaVuSans-Bold-20" transform="translate(1991.503906 0)"/>
     <use xlink:href="#DejaVuSans-Bold-73" transform="translate(2026.318359 0)"/>
     <use xlink:href="#DejaVuSans-Bold-6f" transform="translate(2085.839844 0)"/>
     <use xlink:href="#DejaVuSans-Bold-67" transform="translate(2154.541016 0)"/>
     <use xlink:href="#DejaVuSans-Bold-6c" transform="translate(2226.123047 0)"/>
     <use xlink:href="#DejaVuSans-Bold-69" transform="translate(2260.400391 0)"/>
     <use xlink:href="#DejaVuSans-Bold-61" transform="translate(2294.677734 0)"/>
     <use xlink:href="#DejaVuSans-Bold-20" transform="translate(2362.158203 0)"/>
     <use xlink:href="#DejaVuSans-Bold-64" transform="translate(2396.972656 0)"/>
     <use xlink:href="#DejaVuSans-Bold-69" transform="translate(2468.554688 0)"/>
     <use xlink:href="#DejaVuSans-Bold-20" transform="translate(2502.832031 0)"/>
     <use xlink:href="#DejaVuSans-Bold-75" transform="translate(2537.646484 0)"/>
     <use xlink:href="#DejaVuSans-Bold-6e" transform="translate(2608.837891 0)"/>
     <use xlink:href="#DejaVuSans-Bold-20" transform="translate(2680.029297 0)"/>
     <use xlink:href="#DejaVuSans-Bold-73" transform="translate(2714.84375 0)"/>
     <use xlink:href="#DejaVuSans-Bold-65" transform="translate(2774.365234 0)"/>
     <use xlink:href="#DejaVuSans-Bold-6d" transform="translate(2842.1875 0)"/>
     <use xlink:href="#DejaVuSans-Bold-69" transform="translate(2946.386719 0)"/>
     <use xlink:href="#DejaVuSans-Bold-63" transform="translate(2980.664062 0)"/>
     <use xlink:href="#DejaVuSans-Bold-6f" transform="translate(3039.941406 0)"/>
     <use xlink:href="#DejaVuSans-Bold-6e" transform="translate(3108.642578 0)"/>
     <use xlink:href="#DejaVuSans-Bold-64" transform="translate(3179.833984 0)"/>
     <use xlink:href="#DejaVuSans-Bold-75" transform="translate(3251.416016 0)"/>
     <use xlink:href="#DejaVuSans-Bold-74" transform="translate(3322.607422 0)"/>
     <use xlink:href="#DejaVuSans-Bold-74" transform="translate(3370.410156 0)"/>
     <use xlink:href="#DejaVuSans-Bold-6f" transform="translate(3418.212891 0)"/>
     <use xlink:href="#DejaVuSans-Bold-72" transform="translate(3486.914062 0)"/>
     <use xlink:href="#DejaVuSans-Bold-65" transform="translate(3536.230469 0)"/>
     <use xlink:href="#DejaVuSans-Bold-20" transform="translate(3604.052734 0)"/>
     <use xlink:href="#DejaVuSans-Bold-64" transform="translate(3638.867188 0)"/>
     <use xlink:href="#DejaVuSans-Bold-69" transform="translate(3710.449219 0)"/>
     <use xlink:href="#DejaVuSans-Bold-72" transform="translate(3744.726562 0)"/>
     <use xlink:href="#DejaVuSans-Bold-65" transform="translate(3794.042969 0)"/>
     <use xlink:href="#DejaVuSans-Bold-74" transform="translate(3861.865234 0)"/>
     <use xlink:href="#DejaVuSans-Bold-74" transform="translate(3909.667969 0)"/>
     <use xlink:href="#DejaVuSans-Bold-6f" transform="translate(3957.470703 0)"/>
    </g>
   </g>
   <g id="legend_1">
    <g id="line2d_17">
     <path d="M 520.98275 42.124281 
L 529.78275 42.124281 
L 538.58275 42.124281 
" style="fill: none; stroke: #1f77b4; stroke-width: 2.5; stroke-linecap: square"/>
    </g>
    <g id="text_16">
     <!-- assorbimento interbanda -->
     <g transform="translate(545.62275 45.204281) scale(0.088 -0.088)">
      <use xlink:href="#DejaVuSans-61"/>
      <use xlink:href="#DejaVuSans-73" transform="translate(61.279297 0)"/>
      <use xlink:href="#DejaVuSans-73" transform="translate(113.378906 0)"/>
      <use xlink:href="#DejaVuSans-6f" transform="translate(165.478516 0)"/>
      <use xlink:href="#DejaVuSans-72" transform="translate(226.660156 0)"/>
      <use xlink:href="#DejaVuSans-62" transform="translate(267.773438 0)"/>
      <use xlink:href="#DejaVuSans-69" transform="translate(331.25 0)"/>
      <use xlink:href="#DejaVuSans-6d" transform="translate(359.033203 0)"/>
      <use xlink:href="#DejaVuSans-65" transform="translate(456.445312 0)"/>
      <use xlink:href="#DejaVuSans-6e" transform="translate(517.96875 0)"/>
      <use xlink:href="#DejaVuSans-74" transform="translate(581.347656 0)"/>
      <use xlink:href="#DejaVuSans-6f" transform="translate(620.556641 0)"/>
      <use xlink:href="#DejaVuSans-20" transform="translate(681.738281 0)"/>
      <use xlink:href="#DejaVuSans-69" transform="translate(713.525391 0)"/>
      <use xlink:href="#DejaVuSans-6e" transform="translate(741.308594 0)"/>
      <use xlink:href="#DejaVuSans-74" transform="translate(804.6875 0)"/>
      <use xlink:href="#DejaVuSans-65" transform="translate(843.896484 0)"/>
      <use xlink:href="#DejaVuSans-72" transform="translate(905.419922 0)"/>
      <use xlink:href="#DejaVuSans-62" transform="translate(946.533203 0)"/>
      <use xlink:href="#DejaVuSans-61" transform="translate(1010.009766 0)"/>
      <use xlink:href="#DejaVuSans-6e" transform="translate(1071.289062 0)"/>
      <use xlink:href="#DejaVuSans-64" transform="translate(1134.667969 0)"/>
      <use xlink:href="#DejaVuSans-61" transform="translate(1198.144531 0)"/>
     </g>
    </g>
    <g id="line2d_18">
     <path d="M 520.98275 55.041031 
L 529.78275 55.041031 
L 538.58275 55.041031 
" style="fill: none; stroke: #ff7f0e; stroke-width: 2.1; stroke-linecap: square"/>
    </g>
    <g id="text_17">
     <!-- assorbimento con eccitoni -->
     <g transform="translate(545.62275 58.121031) scale(0.088 -0.088)">
      <use xlink:href="#DejaVuSans-61"/>
      <use xlink:href="#DejaVuSans-73" transform="translate(61.279297 0)"/>
      <use xlink:href="#DejaVuSans-73" transform="translate(113.378906 0)"/>
      <use xlink:href="#DejaVuSans-6f" transform="translate(165.478516 0)"/>
      <use xlink:href="#DejaVuSans-72" transform="translate(226.660156 0)"/>
      <use xlink:href="#DejaVuSans-62" transform="translate(267.773438 0)"/>
      <use xlink:href="#DejaVuSans-69" transform="translate(331.25 0)"/>
      <use xlink:href="#DejaVuSans-6d" transform="translate(359.033203 0)"/>
      <use xlink:href="#DejaVuSans-65" transform="translate(456.445312 0)"/>
      <use xlink:href="#DejaVuSans-6e" transform="translate(517.96875 0)"/>
      <use xlink:href="#DejaVuSans-74" transform="translate(581.347656 0)"/>
      <use xlink:href="#DejaVuSans-6f" transform="translate(620.556641 0)"/>
      <use xlink:href="#DejaVuSans-20" transform="translate(681.738281 0)"/>
      <use xlink:href="#DejaVuSans-63" transform="translate(713.525391 0)"/>
      <use xlink:href="#DejaVuSans-6f" transform="translate(768.505859 0)"/>
      <use xlink:href="#DejaVuSans-6e" transform="translate(829.6875 0)"/>
      <use xlink:href="#DejaVuSans-20" transform="translate(893.066406 0)"/>
      <use xlink:href="#DejaVuSans-65" transform="translate(924.853516 0)"/>
      <use xlink:href="#DejaVuSans-63" transform="translate(986.376953 0)"/>
      <use xlink:href="#DejaVuSans-63" transform="translate(1041.357422 0)"/>
      <use xlink:href="#DejaVuSans-69" transform="translate(1096.337891 0)"/>
      <use xlink:href="#DejaVuSans-74" transform="translate(1124.121094 0)"/>
      <use xlink:href="#DejaVuSans-6f" transform="translate(1163.330078 0)"/>
      <use xlink:href="#DejaVuSans-6e" transform="translate(1224.511719 0)"/>
      <use xlink:href="#DejaVuSans-69" transform="translate(1287.890625 0)"/>
     </g>
    </g>
    <g id="line2d_19">
     <path d="M 520.98275 67.957781 
L 529.78275 67.957781 
L 538.58275 67.957781 
" style="fill: none; stroke-dasharray: 6.66,2.88; stroke-dashoffset: 0; stroke: #2ca02c; stroke-width: 1.8"/>
    </g>
    <g id="text_18">
     <!-- continuo residuo -->
     <g transform="translate(545.62275 71.037781) scale(0.088 -0.088)">
      <use xlink:href="#DejaVuSans-63"/>
      <use xlink:href="#DejaVuSans-6f" transform="translate(54.980469 0)"/>
      <use xlink:href="#DejaVuSans-6e" transform="translate(116.162109 0)"/>
      <use xlink:href="#DejaVuSans-74" transform="translate(179.541016 0)"/>
      <use xlink:href="#DejaVuSans-69" transform="translate(218.75 0)"/>
      <use xlink:href="#DejaVuSans-6e" transform="translate(246.533203 0)"/>
      <use xlink:href="#DejaVuSans-75" transform="translate(309.912109 0)"/>
      <use xlink:href="#DejaVuSans-6f" transform="translate(373.291016 0)"/>
      <use xlink:href="#DejaVuSans-20" transform="translate(434.472656 0)"/>
      <use xlink:href="#DejaVuSans-72" transform="translate(466.259766 0)"/>
      <use xlink:href="#DejaVuSans-65" transform="translate(505.123047 0)"/>
      <use xlink:href="#DejaVuSans-73" transform="translate(566.646484 0)"/>
      <use xlink:href="#DejaVuSans-69" transform="translate(618.746094 0)"/>
      <use xlink:href="#DejaVuSans-64" transform="translate(646.529297 0)"/>
      <use xlink:href="#DejaVuSans-75" transform="translate(710.005859 0)"/>
      <use xlink:href="#DejaVuSans-6f" transform="translate(773.384766 0)"/>
     </g>
    </g>
   </g>
  </g>
  <g id="text_19">
   <!-- Gli stati legati della coppia elettrone–lacuna producono una serie discreta di righe sotto il gap, che converge verso il continuo interbanda. -->
   <g transform="translate(7.2 449.205656) scale(0.1 -0.1)">
    <defs>
     <path id="DejaVuSans-47" d="M 3809 666 
L 3809 1919 
L 2778 1919 
L 2778 2438 
L 4434 2438 
L 4434 434 
Q 4069 175 3628 42 
Q 3188 -91 2688 -91 
Q 1594 -91 976 548 
Q 359 1188 359 2328 
Q 359 3472 976 4111 
Q 1594 4750 2688 4750 
Q 3144 4750 3555 4637 
Q 3966 4525 4313 4306 
L 4313 3634 
Q 3963 3931 3569 4081 
Q 3175 4231 2741 4231 
Q 1884 4231 1454 3753 
Q 1025 3275 1025 2328 
Q 1025 1384 1454 906 
Q 1884 428 2741 428 
Q 3075 428 3337 486 
Q 3600 544 3809 666 
z
" transform="scale(0.015625)"/>
     <path id="DejaVuSans-6c" d="M 603 4863 
L 1178 4863 
L 1178 0 
L 603 0 
L 603 4863 
z
" transform="scale(0.015625)"/>
     <path id="DejaVuSans-2013" d="M 313 1978 
L 2888 1978 
L 2888 1528 
L 313 1528 
L 313 1978 
z
" transform="scale(0.015625)"/>
     <path id="DejaVuSans-68" d="M 3513 2113 
L 3513 0 
L 2938 0 
L 2938 2094 
Q 2938 2591 2744 2837 
Q 2550 3084 2163 3084 
Q 1697 3084 1428 2787 
Q 1159 2491 1159 1978 
L 1159 0 
L 581 0 
L 581 4863 
L 1159 4863 
L 1159 2956 
Q 1366 3272 1645 3428 
Q 1925 3584 2291 3584 
Q 2894 3584 3203 3211 
Q 3513 2838 3513 2113 
z
" transform="scale(0.015625)"/>
     <path id="DejaVuSans-76" d="M 191 3500 
L 800 3500 
L 1894 563 
L 2988 3500 
L 3597 3500 
L 2284 0 
L 1503 0 
L 191 3500 
z
" transform="scale(0.015625)"/>
    </defs>
    <use xlink:href="#DejaVuSans-47"/>
    <use xlink:href="#DejaVuSans-6c" transform="translate(77.490234 0)"/>
    <use xlink:href="#DejaVuSans-69" transform="translate(105.273438 0)"/>
    <use xlink:href="#DejaVuSans-20" transform="translate(133.056641 0)"/>
    <use xlink:href="#DejaVuSans-73" transform="translate(164.84375 0)"/>
    <use xlink:href="#DejaVuSans-74" transform="translate(216.943359 0)"/>
    <use xlink:href="#DejaVuSans-61" transform="translate(256.152344 0)"/>
    <use xlink:href="#DejaVuSans-74" transform="translate(317.431641 0)"/>
    <use xlink:href="#DejaVuSans-69" transform="translate(356.640625 0)"/>
    <use xlink:href="#DejaVuSans-20" transform="translate(384.423828 0)"/>
    <use xlink:href="#DejaVuSans-6c" transform="translate(416.210938 0)"/>
    <use xlink:href="#DejaVuSans-65" transform="translate(443.994141 0)"/>
    <use xlink:href="#DejaVuSans-67" transform="translate(505.517578 0)"/>
    <use xlink:href="#DejaVuSans-61" transform="translate(568.994141 0)"/>
    <use xlink:href="#DejaVuSans-74" transform="translate(630.273438 0)"/>
    <use xlink:href="#DejaVuSans-69" transform="translate(669.482422 0)"/>
    <use xlink:href="#DejaVuSans-20" transform="translate(697.265625 0)"/>
    <use xlink:href="#DejaVuSans-64" transform="translate(729.052734 0)"/>
    <use xlink:href="#DejaVuSans-65" transform="translate(792.529297 0)"/>
    <use xlink:href="#DejaVuSans-6c" transform="translate(854.052734 0)"/>
    <use xlink:href="#DejaVuSans-6c" transform="translate(881.835938 0)"/>
    <use xlink:href="#DejaVuSans-61" transform="translate(909.619141 0)"/>
    <use xlink:href="#DejaVuSans-20" transform="translate(970.898438 0)"/>
    <use xlink:href="#DejaVuSans-63" transform="translate(1002.685547 0)"/>
    <use xlink:href="#DejaVuSans-6f" transform="translate(1057.666016 0)"/>
    <use xlink:href="#DejaVuSans-70" transform="translate(1118.847656 0)"/>
    <use xlink:href="#DejaVuSans-70" transform="translate(1182.324219 0)"/>
    <use xlink:href="#DejaVuSans-69" transform="translate(1245.800781 0)"/>
    <use xlink:href="#DejaVuSans-61" transform="translate(1273.583984 0)"/>
    <use xlink:href="#DejaVuSans-20" transform="translate(1334.863281 0)"/>
    <use xlink:href="#DejaVuSans-65" transform="translate(1366.650391 0)"/>
    <use xlink:href="#DejaVuSans-6c" transform="translate(1428.173828 0)"/>
    <use xlink:href="#DejaVuSans-65" transform="translate(1455.957031 0)"/>
    <use xlink:href="#DejaVuSans-74" transform="translate(1517.480469 0)"/>
    <use xlink:href="#DejaVuSans-74" transform="translate(1556.689453 0)"/>
    <use xlink:href="#DejaVuSans-72" transform="translate(1595.898438 0)"/>
    <use xlink:href="#DejaVuSans-6f" transform="translate(1634.761719 0)"/>
    <use xlink:href="#DejaVuSans-6e" transform="translate(1695.943359 0)"/>
    <use xlink:href="#DejaVuSans-65" transform="translate(1759.322266 0)"/>
    <use xlink:href="#DejaVuSans-2013" transform="translate(1820.845703 0)"/>
    <use xlink:href="#DejaVuSans-6c" transform="translate(1870.845703 0)"/>
    <use xlink:href="#DejaVuSans-61" transform="translate(1898.628906 0)"/>
    <use xlink:href="#DejaVuSans-63" transform="translate(1959.908203 0)"/>
    <use xlink:href="#DejaVuSans-75" transform="translate(2014.888672 0)"/>
    <use xlink:href="#DejaVuSans-6e" transform="translate(2078.267578 0)"/>
    <use xlink:href="#DejaVuSans-61" transform="translate(2141.646484 0)"/>
    <use xlink:href="#DejaVuSans-20" transform="translate(2202.925781 0)"/>
    <use xlink:href="#DejaVuSans-70" transform="translate(2234.712891 0)"/>
    <use xlink:href="#DejaVuSans-72" transform="translate(2298.189453 0)"/>
    <use xlink:href="#DejaVuSans-6f" transform="translate(2337.052734 0)"/>
    <use xlink:href="#DejaVuSans-64" transform="translate(2398.234375 0)"/>
    <use xlink:href="#DejaVuSans-75" transform="translate(2461.710938 0)"/>
    <use xlink:href="#DejaVuSans-63" transform="translate(2525.089844 0)"/>
    <use xlink:href="#DejaVuSans-6f" transform="translate(2580.070312 0)"/>
    <use xlink:href="#DejaVuSans-6e" transform="translate(2641.251953 0)"/>
    <use xlink:href="#DejaVuSans-6f" transform="translate(2704.630859 0)"/>
    <use xlink:href="#DejaVuSans-20" transform="translate(2765.8125 0)"/>
    <use xlink:href="#DejaVuSans-75" transform="translate(2797.599609 0)"/>
    <use xlink:href="#DejaVuSans-6e" transform="translate(2860.978516 0)"/>
    <use xlink:href="#DejaVuSans-61" transform="translate(2924.357422 0)"/>
    <use xlink:href="#DejaVuSans-20" transform="translate(2985.636719 0)"/>
    <use xlink:href="#DejaVuSans-73" transform="translate(3017.423828 0)"/>
    <use xlink:href="#DejaVuSans-65" transform="translate(3069.523438 0)"/>
    <use xlink:href="#DejaVuSans-72" transform="translate(3131.046875 0)"/>
    <use xlink:href="#DejaVuSans-69" transform="translate(3172.160156 0)"/>
    <use xlink:href="#DejaVuSans-65" transform="translate(3199.943359 0)"/>
    <use xlink:href="#DejaVuSans-20" transform="translate(3261.466797 0)"/>
    <use xlink:href="#DejaVuSans-64" transform="translate(3293.253906 0)"/>
    <use xlink:href="#DejaVuSans-69" transform="translate(3356.730469 0)"/>
    <use xlink:href="#DejaVuSans-73" transform="translate(3384.513672 0)"/>
    <use xlink:href="#DejaVuSans-63" transform="translate(3436.613281 0)"/>
    <use xlink:href="#DejaVuSans-72" transform="translate(3491.59375 0)"/>
    <use xlink:href="#DejaVuSans-65" transform="translate(3530.457031 0)"/>
    <use xlink:href="#DejaVuSans-74" transform="translate(3591.980469 0)"/>
    <use xlink:href="#DejaVuSans-61" transform="translate(3631.189453 0)"/>
    <use xlink:href="#DejaVuSans-20" transform="translate(3692.46875 0)"/>
    <use xlink:href="#DejaVuSans-64" transform="translate(3724.255859 0)"/>
    <use xlink:href="#DejaVuSans-69" transform="translate(3787.732422 0)"/>
    <use xlink:href="#DejaVuSans-20" transform="translate(3815.515625 0)"/>
    <use xlink:href="#DejaVuSans-72" transform="translate(3847.302734 0)"/>
    <use xlink:href="#DejaVuSans-69" transform="translate(3888.416016 0)"/>
    <use xlink:href="#DejaVuSans-67" transform="translate(3916.199219 0)"/>
    <use xlink:href="#DejaVuSans-68" transform="translate(3979.675781 0)"/>
    <use xlink:href="#DejaVuSans-65" transform="translate(4043.054688 0)"/>
    <use xlink:href="#DejaVuSans-20" transform="translate(4104.578125 0)"/>
    <use xlink:href="#DejaVuSans-73" transform="translate(4136.365234 0)"/>
    <use xlink:href="#DejaVuSans-6f" transform="translate(4188.464844 0)"/>
    <use xlink:href="#DejaVuSans-74" transform="translate(4249.646484 0)"/>
    <use xlink:href="#DejaVuSans-74" transform="translate(4288.855469 0)"/>
    <use xlink:href="#DejaVuSans-6f" transform="translate(4328.064453 0)"/>
    <use xlink:href="#DejaVuSans-20" transform="translate(4389.246094 0)"/>
    <use xlink:href="#DejaVuSans-69" transform="translate(4421.033203 0)"/>
    <use xlink:href="#DejaVuSans-6c" transform="translate(4448.816406 0)"/>
    <use xlink:href="#DejaVuSans-20" transform="translate(4476.599609 0)"/>
    <use xlink:href="#DejaVuSans-67" transform="translate(4508.386719 0)"/>
    <use xlink:href="#DejaVuSans-61" transform="translate(4571.863281 0)"/>
    <use xlink:href="#DejaVuSans-70" transform="translate(4633.142578 0)"/>
    <use xlink:href="#DejaVuSans-2c" transform="translate(4696.619141 0)"/>
    <use xlink:href="#DejaVuSans-20" transform="translate(4728.40625 0)"/>
    <use xlink:href="#DejaVuSans-63" transform="translate(4760.193359 0)"/>
    <use xlink:href="#DejaVuSans-68" transform="translate(4815.173828 0)"/>
    <use xlink:href="#DejaVuSans-65" transform="translate(4878.552734 0)"/>
    <use xlink:href="#DejaVuSans-20" transform="translate(4940.076172 0)"/>
    <use xlink:href="#DejaVuSans-63" transform="translate(4971.863281 0)"/>
    <use xlink:href="#DejaVuSans-6f" transform="translate(5026.84375 0)"/>
    <use xlink:href="#DejaVuSans-6e" transform="translate(5088.025391 0)"/>
    <use xlink:href="#DejaVuSans-76" transform="translate(5151.404297 0)"/>
    <use xlink:href="#DejaVuSans-65" transform="translate(5210.583984 0)"/>
    <use xlink:href="#DejaVuSans-72" transform="translate(5272.107422 0)"/>
    <use xlink:href="#DejaVuSans-67" transform="translate(5311.470703 0)"/>
    <use xlink:href="#DejaVuSans-65" transform="translate(5374.947266 0)"/>
    <use xlink:href="#DejaVuSans-20" transform="translate(5436.470703 0)"/>
    <use xlink:href="#DejaVuSans-76" transform="translate(5468.257812 0)"/>
    <use xlink:href="#DejaVuSans-65" transform="translate(5527.4375 0)"/>
    <use xlink:href="#DejaVuSans-72" transform="translate(5588.960938 0)"/>
    <use xlink:href="#DejaVuSans-73" transform="translate(5630.074219 0)"/>
    <use xlink:href="#DejaVuSans-6f" transform="translate(5682.173828 0)"/>
    <use xlink:href="#DejaVuSans-20" transform="translate(5743.355469 0)"/>
    <use xlink:href="#DejaVuSans-69" transform="translate(5775.142578 0)"/>
    <use xlink:href="#DejaVuSans-6c" transform="translate(5802.925781 0)"/>
    <use xlink:href="#DejaVuSans-20" transform="translate(5830.708984 0)"/>
    <use xlink:href="#DejaVuSans-63" transform="translate(5862.496094 0)"/>
    <use xlink:href="#DejaVuSans-6f" transform="translate(5917.476562 0)"/>
    <use xlink:href="#DejaVuSans-6e" transform="translate(5978.658203 0)"/>
    <use xlink:href="#DejaVuSans-74" transform="translate(6042.037109 0)"/>
    <use xlink:href="#DejaVuSans-69" transform="translate(6081.246094 0)"/>
    <use xlink:href="#DejaVuSans-6e" transform="translate(6109.029297 0)"/>
    <use xlink:href="#DejaVuSans-75" transform="translate(6172.408203 0)"/>
    <use xlink:href="#DejaVuSans-6f" transform="translate(6235.787109 0)"/>
    <use xlink:href="#DejaVuSans-20" transform="translate(6296.96875 0)"/>
    <use xlink:href="#DejaVuSans-69" transform="translate(6328.755859 0)"/>
    <use xlink:href="#DejaVuSans-6e" transform="translate(6356.539062 0)"/>
    <use xlink:href="#DejaVuSans-74" transform="translate(6419.917969 0)"/>
    <use xlink:href="#DejaVuSans-65" transform="translate(6459.126953 0)"/>
    <use xlink:href="#DejaVuSans-72" transform="translate(6520.650391 0)"/>
    <use xlink:href="#DejaVuSans-62" transform="translate(6561.763672 0)"/>
    <use xlink:href="#DejaVuSans-61" transform="translate(6625.240234 0)"/>
    <use xlink:href="#DejaVuSans-6e" transform="translate(6686.519531 0)"/>
    <use xlink:href="#DejaVuSans-64" transform="translate(6749.898438 0)"/>
    <use xlink:href="#DejaVuSans-61" transform="translate(6813.375 0)"/>
    <use xlink:href="#DejaVuSans-2e" transform="translate(6874.654297 0)"/>
   </g>
  </g>
 </g>
 <defs>
  <clipPath id="p8d2b61e974">
   <rect x="55.521875" y="30.597656" width="613.8" height="376.992"/>
  </clipPath>
 </defs>
</svg>
