<?xml version="1.0" encoding="utf-8" standalone="no"?>
<!DOCTYPE svg PUBLIC "-//W3C//DTD SVG 1.1//EN"
  "http://www.w3.org/Graphics/SVG/1.1/DTD/svg11.dtd">
<svg xmlns:xlink="http://www.w3.org/1999/xlink" width="719.145313pt" height="458.485344pt" viewBox="0 0 719.145313 458.485344" xmlns="http://www.w3.org/2000/svg" version="1.1">
 <metadata>
  <rdf:RDF xmlns:dc="http://purl.org/dc/elements/1.1/" xmlns:cc="http://creativecommons.org/ns#" xmlns:rdf="http://www.w3.org/1999/02/22-rdf-syntax-ns#">
   <cc:Work>
    <dc:type rdf:resource="http://purl.org/dc/dcmitype/StillImage"/>
    <dc:date>2026-06-16T09:40:12.970846</dc:date>
    <dc:format>image/svg+xml</dc:format>
    <dc:creator>
     <cc:Agent>
      <dc:title>Matplotlib v3.10.8, https://matplotlib.org/</dc:title>
     </cc:Agent>
    </dc:creator>
   </cc:Work>
  </rdf:RDF>
 </metadata>
 <defs>
  <style type="text/css">*{stroke-linejoin: round; stroke-linecap: butt}</style>
 </defs>
 <g id="figure_1">
  <g id="patch_1">
   <path d="M 0 458.485344 
L 719.145313 458.485344 
L 719.145313 0 
L 0 0 
z
" style="fill: #ffffff"/>
  </g>
  <g id="axes_1">
   <g id="patch_2">
    <path d="M 84.172656 407.589656 
L 653.332656 407.589656 
L 653.332656 30.597656 
L 84.172656 30.597656 
z
" style="fill: #ffffff"/>
   </g>
   <g id="matplotlib.axis_1">
    <g id="xtick_1">
     <g id="line2d_1">
      <path d="M 84.172656 407.589656 
L 84.172656 30.597656 
" clip-path="url(#pdf4f916baf)" style="fill: none; stroke: #b0b0b0; stroke-opacity: 0.18; stroke-width: 0.8; stroke-linecap: square"/>
     </g>
     <g id="line2d_2">
      <defs>
       <path id="m3dc3bd737f" d="M 0 0 
L 0 3.5 
" style="stroke: #000000; stroke-width: 0.8"/>
      </defs>
      <g>
       <use xlink:href="#m3dc3bd737f" x="84.172656" y="407.589656" style="stroke: #000000; stroke-width: 0.8"/>
      </g>
     </g>
     <g id="text_1">
      <!-- 0 -->
      <g transform="translate(80.991406 422.188094) scale(0.1 -0.1)">
       <defs>
        <path id="DejaVuSans-30" d="M 2034 4250 
Q 1547 4250 1301 3770 
Q 1056 3291 1056 2328 
Q 1056 1369 1301 889 
Q 1547 409 2034 409 
Q 2525 409 2770 889 
Q 3016 1369 3016 2328 
Q 3016 3291 2770 3770 
Q 2525 4250 2034 4250 
z
M 2034 4750 
Q 2819 4750 3233 4129 
Q 3647 3509 3647 2328 
Q 3647 1150 3233 529 
Q 2819 -91 2034 -91 
Q 1250 -91 836 529 
Q 422 1150 422 2328 
Q 422 3509 836 4129 
Q 1250 4750 2034 4750 
z
" transform="scale(0.015625)"/>
       </defs>
       <use xlink:href="#DejaVuSans-30"/>
      </g>
     </g>
    </g>
    <g id="xtick_2">
     <g id="line2d_3">
      <path d="M 165.481228 407.589656 
L 165.481228 30.597656 
" clip-path="url(#pdf4f916baf)" style="fill: none; stroke: #b0b0b0; stroke-opacity: 0.18; stroke-width: 0.8; stroke-linecap: square"/>
     </g>
     <g id="line2d_4">
      <g>
       <use xlink:href="#m3dc3bd737f" x="165.481228" y="407.589656" style="stroke: #000000; stroke-width: 0.8"/>
      </g>
     </g>
     <g id="text_2">
      <!-- 100 -->
      <g transform="translate(155.937478 422.188094) scale(0.1 -0.1)">
       <defs>
        <path id="DejaVuSans-31" d="M 794 531 
L 1825 531 
L 1825 4091 
L 703 3866 
L 703 4441 
L 1819 4666 
L 2450 4666 
L 2450 531 
L 3481 531 
L 3481 0 
L 794 0 
L 794 531 
z
" transform="scale(0.015625)"/>
       </defs>
       <use xlink:href="#DejaVuSans-31"/>
       <use xlink:href="#DejaVuSans-30" transform="translate(63.623047 0)"/>
       <use xlink:href="#DejaVuSans-30" transform="translate(127.246094 0)"/>
      </g>
     </g>
    </g>
    <g id="xtick_3">
     <g id="line2d_5">
      <path d="M 246.789799 407.589656 
L 246.789799 30.597656 
" clip-path="url(#pdf4f916baf)" style="fill: none; stroke: #b0b0b0; stroke-opacity: 0.18; stroke-width: 0.8; stroke-linecap: square"/>
     </g>
     <g id="line2d_6">
      <g>
       <use xlink:href="#m3dc3bd737f" x="246.789799" y="407.589656" style="stroke: #000000; stroke-width: 0.8"/>
      </g>
     </g>
     <g id="text_3">
      <!-- 200 -->
      <g transform="translate(237.246049 422.188094) scale(0.1 -0.1)">
       <defs>
        <path id="DejaVuSans-32" d="M 1228 531 
L 3431 531 
L 3431 0 
L 469 0 
L 469 531 
Q 828 903 1448 1529 
Q 2069 2156 2228 2338 
Q 2531 2678 2651 2914 
Q 2772 3150 2772 3378 
Q 2772 3750 2511 3984 
Q 2250 4219 1831 4219 
Q 1534 4219 1204 4116 
Q 875 4013 500 3803 
L 500 4441 
Q 881 4594 1212 4672 
Q 1544 4750 1819 4750 
Q 2544 4750 2975 4387 
Q 3406 4025 3406 3419 
Q 3406 3131 3298 2873 
Q 3191 2616 2906 2266 
Q 2828 2175 2409 1742 
Q 1991 1309 1228 531 
z
" transform="scale(0.015625)"/>
       </defs>
       <use xlink:href="#DejaVuSans-32"/>
       <use xlink:href="#DejaVuSans-30" transform="translate(63.623047 0)"/>
       <use xlink:href="#DejaVuSans-30" transform="translate(127.246094 0)"/>
      </g>
     </g>
    </g>
    <g id="xtick_4">
     <g id="line2d_7">
      <path d="M 328.098371 407.589656 
L 328.098371 30.597656 
" clip-path="url(#pdf4f916baf)" style="fill: none; stroke: #b0b0b0; stroke-opacity: 0.18; stroke-width: 0.8; stroke-linecap: square"/>
     </g>
     <g id="line2d_8">
      <g>
       <use xlink:href="#m3dc3bd737f" x="328.098371" y="407.589656" style="stroke: #000000; stroke-width: 0.8"/>
      </g>
     </g>
     <g id="text_4">
      <!-- 300 -->
      <g transform="translate(318.554621 422.188094) scale(0.1 -0.1)">
       <defs>
        <path id="DejaVuSans-33" d="M 2597 2516 
Q 3050 2419 3304 2112 
Q 3559 1806 3559 1356 
Q 3559 666 3084 287 
Q 2609 -91 1734 -91 
Q 1441 -91 1130 -33 
Q 819 25 488 141 
L 488 750 
Q 750 597 1062 519 
Q 1375 441 1716 441 
Q 2309 441 2620 675 
Q 2931 909 2931 1356 
Q 2931 1769 2642 2001 
Q 2353 2234 1838 2234 
L 1294 2234 
L 1294 2753 
L 1863 2753 
Q 2328 2753 2575 2939 
Q 2822 3125 2822 3475 
Q 2822 3834 2567 4026 
Q 2313 4219 1838 4219 
Q 1578 4219 1281 4162 
Q 984 4106 628 3988 
L 628 4550 
Q 988 4650 1302 4700 
Q 1616 4750 1894 4750 
Q 2613 4750 3031 4423 
Q 3450 4097 3450 3541 
Q 3450 3153 3228 2886 
Q 3006 2619 2597 2516 
z
" transform="scale(0.015625)"/>
       </defs>
       <use xlink:href="#DejaVuSans-33"/>
       <use xlink:href="#DejaVuSans-30" transform="translate(63.623047 0)"/>
       <use xlink:href="#DejaVuSans-30" transform="translate(127.246094 0)"/>
      </g>
     </g>
    </g>
    <g id="xtick_5">
     <g id="line2d_9">
      <path d="M 409.406942 407.589656 
L 409.406942 30.597656 
" clip-path="url(#pdf4f916baf)" style="fill: none; stroke: #b0b0b0; stroke-opacity: 0.18; stroke-width: 0.8; stroke-linecap: square"/>
     </g>
     <g id="line2d_10">
      <g>
       <use xlink:href="#m3dc3bd737f" x="409.406942" y="407.589656" style="stroke: #000000; stroke-width: 0.8"/>
      </g>
     </g>
     <g id="text_5">
      <!-- 400 -->
      <g transform="translate(399.863192 422.188094) scale(0.1 -0.1)">
       <defs>
        <path id="DejaVuSans-34" d="M 2419 4116 
L 825 1625 
L 2419 1625 
L 2419 4116 
z
M 2253 4666 
L 3047 4666 
L 3047 1625 
L 3713 1625 
L 3713 1100 
L 3047 1100 
L 3047 0 
L 2419 0 
L 2419 1100 
L 313 1100 
L 313 1709 
L 2253 4666 
z
" transform="scale(0.015625)"/>
       </defs>
       <use xlink:href="#DejaVuSans-34"/>
       <use xlink:href="#DejaVuSans-30" transform="translate(63.623047 0)"/>
       <use xlink:href="#DejaVuSans-30" transform="translate(127.246094 0)"/>
      </g>
     </g>
    </g>
    <g id="xtick_6">
     <g id="line2d_11">
      <path d="M 490.715513 407.589656 
L 490.715513 30.597656 
" clip-path="url(#pdf4f916baf)" style="fill: none; stroke: #b0b0b0; stroke-opacity: 0.18; stroke-width: 0.8; stroke-linecap: square"/>
     </g>
     <g id="line2d_12">
      <g>
       <use xlink:href="#m3dc3bd737f" x="490.715513" y="407.589656" style="stroke: #000000; stroke-width: 0.8"/>
      </g>
     </g>
     <g id="text_6">
      <!-- 500 -->
      <g transform="translate(481.171763 422.188094) scale(0.1 -0.1)">
       <defs>
        <path id="DejaVuSans-35" d="M 691 4666 
L 3169 4666 
L 3169 4134 
L 1269 4134 
L 1269 2991 
Q 1406 3038 1543 3061 
Q 1681 3084 1819 3084 
Q 2600 3084 3056 2656 
Q 3513 2228 3513 1497 
Q 3513 744 3044 326 
Q 2575 -91 1722 -91 
Q 1428 -91 1123 -41 
Q 819 9 494 109 
L 494 744 
Q 775 591 1075 516 
Q 1375 441 1709 441 
Q 2250 441 2565 725 
Q 2881 1009 2881 1497 
Q 2881 1984 2565 2268 
Q 2250 2553 1709 2553 
Q 1456 2553 1204 2497 
Q 953 2441 691 2322 
L 691 4666 
z
" transform="scale(0.015625)"/>
       </defs>
       <use xlink:href="#DejaVuSans-35"/>
       <use xlink:href="#DejaVuSans-30" transform="translate(63.623047 0)"/>
       <use xlink:href="#DejaVuSans-30" transform="translate(127.246094 0)"/>
      </g>
     </g>
    </g>
    <g id="xtick_7">
     <g id="line2d_13">
      <path d="M 572.024085 407.589656 
L 572.024085 30.597656 
" clip-path="url(#pdf4f916baf)" style="fill: none; stroke: #b0b0b0; stroke-opacity: 0.18; stroke-width: 0.8; stroke-linecap: square"/>
     </g>
     <g id="line2d_14">
      <g>
       <use xlink:href="#m3dc3bd737f" x="572.024085" y="407.589656" style="stroke: #000000; stroke-width: 0.8"/>
      </g>
     </g>
     <g id="text_7">
      <!-- 600 -->
      <g transform="translate(562.480335 422.188094) scale(0.1 -0.1)">
       <defs>
        <path id="DejaVuSans-36" d="M 2113 2584 
Q 1688 2584 1439 2293 
Q 1191 2003 1191 1497 
Q 1191 994 1439 701 
Q 1688 409 2113 409 
Q 2538 409 2786 701 
Q 3034 994 3034 1497 
Q 3034 2003 2786 2293 
Q 2538 2584 2113 2584 
z
M 3366 4563 
L 3366 3988 
Q 3128 4100 2886 4159 
Q 2644 4219 2406 4219 
Q 1781 4219 1451 3797 
Q 1122 3375 1075 2522 
Q 1259 2794 1537 2939 
Q 1816 3084 2150 3084 
Q 2853 3084 3261 2657 
Q 3669 2231 3669 1497 
Q 3669 778 3244 343 
Q 2819 -91 2113 -91 
Q 1303 -91 875 529 
Q 447 1150 447 2328 
Q 447 3434 972 4092 
Q 1497 4750 2381 4750 
Q 2619 4750 2861 4703 
Q 3103 4656 3366 4563 
z
" transform="scale(0.015625)"/>
       </defs>
       <use xlink:href="#DejaVuSans-36"/>
       <use xlink:href="#DejaVuSans-30" transform="translate(63.623047 0)"/>
       <use xlink:href="#DejaVuSans-30" transform="translate(127.246094 0)"/>
      </g>
     </g>
    </g>
    <g id="xtick_8">
     <g id="line2d_15">
      <path d="M 653.332656 407.589656 
L 653.332656 30.597656 
" clip-path="url(#pdf4f916baf)" style="fill: none; stroke: #b0b0b0; stroke-opacity: 0.18; stroke-width: 0.8; stroke-linecap: square"/>
     </g>
     <g id="line2d_16">
      <g>
       <use xlink:href="#m3dc3bd737f" x="653.332656" y="407.589656" style="stroke: #000000; stroke-width: 0.8"/>
      </g>
     </g>
     <g id="text_8">
      <!-- 700 -->
      <g transform="translate(643.788906 422.188094) scale(0.1 -0.1)">
       <defs>
        <path id="DejaVuSans-37" d="M 525 4666 
L 3525 4666 
L 3525 4397 
L 1831 0 
L 1172 0 
L 2766 4134 
L 525 4134 
L 525 4666 
z
" transform="scale(0.015625)"/>
       </defs>
       <use xlink:href="#DejaVuSans-37"/>
       <use xlink:href="#DejaVuSans-30" transform="translate(63.623047 0)"/>
       <use xlink:href="#DejaVuSans-30" transform="translate(127.246094 0)"/>
      </g>
     </g>
    </g>
    <g id="text_9">
     <!-- temperatura (K) -->
     <g transform="translate(328.457344 435.866219) scale(0.1 -0.1)">
      <defs>
       <path id="DejaVuSans-74" d="M 1172 4494 
L 1172 3500 
L 2356 3500 
L 2356 3053 
L 1172 3053 
L 1172 1153 
Q 1172 725 1289 603 
Q 1406 481 1766 481 
L 2356 481 
L 2356 0 
L 1766 0 
Q 1100 0 847 248 
Q 594 497 594 1153 
L 594 3053 
L 172 3053 
L 172 3500 
L 594 3500 
L 594 4494 
L 1172 4494 
z
" transform="scale(0.015625)"/>
       <path id="DejaVuSans-65" d="M 3597 1894 
L 3597 1613 
L 953 1613 
Q 991 1019 1311 708 
Q 1631 397 2203 397 
Q 2534 397 2845 478 
Q 3156 559 3463 722 
L 3463 178 
Q 3153 47 2828 -22 
Q 2503 -91 2169 -91 
Q 1331 -91 842 396 
Q 353 884 353 1716 
Q 353 2575 817 3079 
Q 1281 3584 2069 3584 
Q 2775 3584 3186 3129 
Q 3597 2675 3597 1894 
z
M 3022 2063 
Q 3016 2534 2758 2815 
Q 2500 3097 2075 3097 
Q 1594 3097 1305 2825 
Q 1016 2553 972 2059 
L 3022 2063 
z
" transform="scale(0.015625)"/>
       <path id="DejaVuSans-6d" d="M 3328 2828 
Q 3544 3216 3844 3400 
Q 4144 3584 4550 3584 
Q 5097 3584 5394 3201 
Q 5691 2819 5691 2113 
L 5691 0 
L 5113 0 
L 5113 2094 
Q 5113 2597 4934 2840 
Q 4756 3084 4391 3084 
Q 3944 3084 3684 2787 
Q 3425 2491 3425 1978 
L 3425 0 
L 2847 0 
L 2847 2094 
Q 2847 2600 2669 2842 
Q 2491 3084 2119 3084 
Q 1678 3084 1418 2786 
Q 1159 2488 1159 1978 
L 1159 0 
L 581 0 
L 581 3500 
L 1159 3500 
L 1159 2956 
Q 1356 3278 1631 3431 
Q 1906 3584 2284 3584 
Q 2666 3584 2933 3390 
Q 3200 3197 3328 2828 
z
" transform="scale(0.015625)"/>
       <path id="DejaVuSans-70" d="M 1159 525 
L 1159 -1331 
L 581 -1331 
L 581 3500 
L 1159 3500 
L 1159 2969 
Q 1341 3281 1617 3432 
Q 1894 3584 2278 3584 
Q 2916 3584 3314 3078 
Q 3713 2572 3713 1747 
Q 3713 922 3314 415 
Q 2916 -91 2278 -91 
Q 1894 -91 1617 61 
Q 1341 213 1159 525 
z
M 3116 1747 
Q 3116 2381 2855 2742 
Q 2594 3103 2138 3103 
Q 1681 3103 1420 2742 
Q 1159 2381 1159 1747 
Q 1159 1113 1420 752 
Q 1681 391 2138 391 
Q 2594 391 2855 752 
Q 3116 1113 3116 1747 
z
" transform="scale(0.015625)"/>
       <path id="DejaVuSans-72" d="M 2631 2963 
Q 2534 3019 2420 3045 
Q 2306 3072 2169 3072 
Q 1681 3072 1420 2755 
Q 1159 2438 1159 1844 
L 1159 0 
L 581 0 
L 581 3500 
L 1159 3500 
L 1159 2956 
Q 1341 3275 1631 3429 
Q 1922 3584 2338 3584 
Q 2397 3584 2469 3576 
Q 2541 3569 2628 3553 
L 2631 2963 
z
" transform="scale(0.015625)"/>
       <path id="DejaVuSans-61" d="M 2194 1759 
Q 1497 1759 1228 1600 
Q 959 1441 959 1056 
Q 959 750 1161 570 
Q 1363 391 1709 391 
Q 2188 391 2477 730 
Q 2766 1069 2766 1631 
L 2766 1759 
L 2194 1759 
z
M 3341 1997 
L 3341 0 
L 2766 0 
L 2766 531 
Q 2569 213 2275 61 
Q 1981 -91 1556 -91 
Q 1019 -91 701 211 
Q 384 513 384 1019 
Q 384 1609 779 1909 
Q 1175 2209 1959 2209 
L 2766 2209 
L 2766 2266 
Q 2766 2663 2505 2880 
Q 2244 3097 1772 3097 
Q 1472 3097 1187 3025 
Q 903 2953 641 2809 
L 641 3341 
Q 956 3463 1253 3523 
Q 1550 3584 1831 3584 
Q 2591 3584 2966 3190 
Q 3341 2797 3341 1997 
z
" transform="scale(0.015625)"/>
       <path id="DejaVuSans-75" d="M 544 1381 
L 544 3500 
L 1119 3500 
L 1119 1403 
Q 1119 906 1312 657 
Q 1506 409 1894 409 
Q 2359 409 2629 706 
Q 2900 1003 2900 1516 
L 2900 3500 
L 3475 3500 
L 3475 0 
L 2900 0 
L 2900 538 
Q 2691 219 2414 64 
Q 2138 -91 1772 -91 
Q 1169 -91 856 284 
Q 544 659 544 1381 
z
M 1991 3584 
L 1991 3584 
z
" transform="scale(0.015625)"/>
       <path id="DejaVuSans-20" transform="scale(0.015625)"/>
       <path id="DejaVuSans-28" d="M 1984 4856 
Q 1566 4138 1362 3434 
Q 1159 2731 1159 2009 
Q 1159 1288 1364 580 
Q 1569 -128 1984 -844 
L 1484 -844 
Q 1016 -109 783 600 
Q 550 1309 550 2009 
Q 550 2706 781 3412 
Q 1013 4119 1484 4856 
L 1984 4856 
z
" transform="scale(0.015625)"/>
       <path id="DejaVuSans-4b" d="M 628 4666 
L 1259 4666 
L 1259 2694 
L 3353 4666 
L 4166 4666 
L 1850 2491 
L 4331 0 
L 3500 0 
L 1259 2247 
L 1259 0 
L 628 0 
L 628 4666 
z
" transform="scale(0.015625)"/>
       <path id="DejaVuSans-29" d="M 513 4856 
L 1013 4856 
Q 1481 4119 1714 3412 
Q 1947 2706 1947 2009 
Q 1947 1309 1714 600 
Q 1481 -109 1013 -844 
L 513 -844 
Q 928 -128 1133 580 
Q 1338 1288 1338 2009 
Q 1338 2731 1133 3434 
Q 928 4138 513 4856 
z
" transform="scale(0.015625)"/>
      </defs>
      <use xlink:href="#DejaVuSans-74"/>
      <use xlink:href="#DejaVuSans-65" transform="translate(39.208984 0)"/>
      <use xlink:href="#DejaVuSans-6d" transform="translate(100.732422 0)"/>
      <use xlink:href="#DejaVuSans-70" transform="translate(198.144531 0)"/>
      <use xlink:href="#DejaVuSans-65" transform="translate(261.621094 0)"/>
      <use xlink:href="#DejaVuSans-72" transform="translate(323.144531 0)"/>
      <use xlink:href="#DejaVuSans-61" transform="translate(364.257812 0)"/>
      <use xlink:href="#DejaVuSans-74" transform="translate(425.537109 0)"/>
      <use xlink:href="#DejaVuSans-75" transform="translate(464.746094 0)"/>
      <use xlink:href="#DejaVuSans-72" transform="translate(528.125 0)"/>
      <use xlink:href="#DejaVuSans-61" transform="translate(569.238281 0)"/>
      <use xlink:href="#DejaVuSans-20" transform="translate(630.517578 0)"/>
      <use xlink:href="#DejaVuSans-28" transform="translate(662.304688 0)"/>
      <use xlink:href="#DejaVuSans-4b" transform="translate(701.318359 0)"/>
      <use xlink:href="#DejaVuSans-29" transform="translate(766.894531 0)"/>
     </g>
    </g>
   </g>
   <g id="matplotlib.axis_2">
    <g id="ytick_1">
     <g id="line2d_17">
      <path d="M 84.172656 398.613656 
L 653.332656 398.613656 
" clip-path="url(#pdf4f916baf)" style="fill: none; stroke: #b0b0b0; stroke-opacity: 0.18; stroke-width: 0.8; stroke-linecap: square"/>
     </g>
     <g id="line2d_18">
      <defs>
       <path id="m1b346362dd" d="M 0 0 
L -3.5 0 
" style="stroke: #000000; stroke-width: 0.8"/>
      </defs>
      <g>
       <use xlink:href="#m1b346362dd" x="84.172656" y="398.613656" style="stroke: #000000; stroke-width: 0.8"/>
      </g>
     </g>
     <g id="text_10">
      <!-- −0.6 -->
      <g transform="translate(52.889844 402.412875) scale(0.1 -0.1)">
       <defs>
        <path id="DejaVuSans-2212" d="M 678 2272 
L 4684 2272 
L 4684 1741 
L 678 1741 
L 678 2272 
z
" transform="scale(0.015625)"/>
        <path id="DejaVuSans-2e" d="M 684 794 
L 1344 794 
L 1344 0 
L 684 0 
L 684 794 
z
" transform="scale(0.015625)"/>
       </defs>
       <use xlink:href="#DejaVuSans-2212"/>
       <use xlink:href="#DejaVuSans-30" transform="translate(83.789062 0)"/>
       <use xlink:href="#DejaVuSans-2e" transform="translate(147.412109 0)"/>
       <use xlink:href="#DejaVuSans-36" transform="translate(179.199219 0)"/>
      </g>
     </g>
    </g>
    <g id="ytick_2">
     <g id="line2d_19">
      <path d="M 84.172656 338.773656 
L 653.332656 338.773656 
" clip-path="url(#pdf4f916baf)" style="fill: none; stroke: #b0b0b0; stroke-opacity: 0.18; stroke-width: 0.8; stroke-linecap: square"/>
     </g>
     <g id="line2d_20">
      <g>
       <use xlink:href="#m1b346362dd" x="84.172656" y="338.773656" style="stroke: #000000; stroke-width: 0.8"/>
      </g>
     </g>
     <g id="text_11">
      <!-- −0.4 -->
      <g transform="translate(52.889844 342.572875) scale(0.1 -0.1)">
       <use xlink:href="#DejaVuSans-2212"/>
       <use xlink:href="#DejaVuSans-30" transform="translate(83.789062 0)"/>
       <use xlink:href="#DejaVuSans-2e" transform="translate(147.412109 0)"/>
       <use xlink:href="#DejaVuSans-34" transform="translate(179.199219 0)"/>
      </g>
     </g>
    </g>
    <g id="ytick_3">
     <g id="line2d_21">
      <path d="M 84.172656 278.933656 
L 653.332656 278.933656 
" clip-path="url(#pdf4f916baf)" style="fill: none; stroke: #b0b0b0; stroke-opacity: 0.18; stroke-width: 0.8; stroke-linecap: square"/>
     </g>
     <g id="line2d_22">
      <g>
       <use xlink:href="#m1b346362dd" x="84.172656" y="278.933656" style="stroke: #000000; stroke-width: 0.8"/>
      </g>
     </g>
     <g id="text_12">
      <!-- −0.2 -->
      <g transform="translate(52.889844 282.732875) scale(0.1 -0.1)">
       <use xlink:href="#DejaVuSans-2212"/>
       <use xlink:href="#DejaVuSans-30" transform="translate(83.789062 0)"/>
       <use xlink:href="#DejaVuSans-2e" transform="translate(147.412109 0)"/>
       <use xlink:href="#DejaVuSans-32" transform="translate(179.199219 0)"/>
      </g>
     </g>
    </g>
    <g id="ytick_4">
     <g id="line2d_23">
      <path d="M 84.172656 219.093656 
L 653.332656 219.093656 
" clip-path="url(#pdf4f916baf)" style="fill: none; stroke: #b0b0b0; stroke-opacity: 0.18; stroke-width: 0.8; stroke-linecap: square"/>
     </g>
     <g id="line2d_24">
      <g>
       <use xlink:href="#m1b346362dd" x="84.172656" y="219.093656" style="stroke: #000000; stroke-width: 0.8"/>
      </g>
     </g>
     <g id="text_13">
      <!-- 0.0 -->
      <g transform="translate(61.269531 222.892875) scale(0.1 -0.1)">
       <use xlink:href="#DejaVuSans-30"/>
       <use xlink:href="#DejaVuSans-2e" transform="translate(63.623047 0)"/>
       <use xlink:href="#DejaVuSans-30" transform="translate(95.410156 0)"/>
      </g>
     </g>
    </g>
    <g id="ytick_5">
     <g id="line2d_25">
      <path d="M 84.172656 159.253656 
L 653.332656 159.253656 
" clip-path="url(#pdf4f916baf)" style="fill: none; stroke: #b0b0b0; stroke-opacity: 0.18; stroke-width: 0.8; stroke-linecap: square"/>
     </g>
     <g id="line2d_26">
      <g>
       <use xlink:href="#m1b346362dd" x="84.172656" y="159.253656" style="stroke: #000000; stroke-width: 0.8"/>
      </g>
     </g>
     <g id="text_14">
      <!-- 0.2 -->
      <g transform="translate(61.269531 163.052875) scale(0.1 -0.1)">
       <use xlink:href="#DejaVuSans-30"/>
       <use xlink:href="#DejaVuSans-2e" transform="translate(63.623047 0)"/>
       <use xlink:href="#DejaVuSans-32" transform="translate(95.410156 0)"/>
      </g>
     </g>
    </g>
    <g id="ytick_6">
     <g id="line2d_27">
      <path d="M 84.172656 99.413656 
L 653.332656 99.413656 
" clip-path="url(#pdf4f916baf)" style="fill: none; stroke: #b0b0b0; stroke-opacity: 0.18; stroke-width: 0.8; stroke-linecap: square"/>
     </g>
     <g id="line2d_28">
      <g>
       <use xlink:href="#m1b346362dd" x="84.172656" y="99.413656" style="stroke: #000000; stroke-width: 0.8"/>
      </g>
     </g>
     <g id="text_15">
      <!-- 0.4 -->
      <g transform="translate(61.269531 103.212875) scale(0.1 -0.1)">
       <use xlink:href="#DejaVuSans-30"/>
       <use xlink:href="#DejaVuSans-2e" transform="translate(63.623047 0)"/>
       <use xlink:href="#DejaVuSans-34" transform="translate(95.410156 0)"/>
      </g>
     </g>
    </g>
    <g id="ytick_7">
     <g id="line2d_29">
      <path d="M 84.172656 39.573656 
L 653.332656 39.573656 
" clip-path="url(#pdf4f916baf)" style="fill: none; stroke: #b0b0b0; stroke-opacity: 0.18; stroke-width: 0.8; stroke-linecap: square"/>
     </g>
     <g id="line2d_30">
      <g>
       <use xlink:href="#m1b346362dd" x="84.172656" y="39.573656" style="stroke: #000000; stroke-width: 0.8"/>
      </g>
     </g>
     <g id="text_16">
      <!-- 0.6 -->
      <g transform="translate(61.269531 43.372875) scale(0.1 -0.1)">
       <use xlink:href="#DejaVuSans-30"/>
       <use xlink:href="#DejaVuSans-2e" transform="translate(63.623047 0)"/>
       <use xlink:href="#DejaVuSans-36" transform="translate(95.410156 0)"/>
      </g>
     </g>
    </g>
    <g id="text_17">
     <!-- $\mu_c-E_{\rm gap}/2$ (eV) -->
     <g transform="translate(45.789844 257.043656) rotate(-90) scale(0.1 -0.1)">
      <defs>
       <path id="DejaVuSans-Oblique-3bc" d="M -84 -1331 
L 856 3500 
L 1434 3500 
L 1009 1322 
Q 997 1256 987 1175 
Q 978 1094 978 1013 
Q 978 722 1161 565 
Q 1344 409 1684 409 
Q 2147 409 2431 671 
Q 2716 934 2816 1459 
L 3213 3500 
L 3788 3500 
L 3266 809 
Q 3253 750 3248 706 
Q 3244 663 3244 628 
Q 3244 531 3283 486 
Q 3322 441 3406 441 
Q 3438 441 3492 456 
Q 3547 472 3647 513 
L 3559 50 
Q 3422 -19 3297 -55 
Q 3172 -91 3053 -91 
Q 2847 -91 2730 40 
Q 2613 172 2613 403 
Q 2438 153 2195 31 
Q 1953 -91 1625 -91 
Q 1334 -91 1117 43 
Q 900 178 831 397 
L 494 -1331 
L -84 -1331 
z
" transform="scale(0.015625)"/>
       <path id="DejaVuSans-Oblique-63" d="M 3431 3366 
L 3316 2797 
Q 3109 2947 2876 3022 
Q 2644 3097 2394 3097 
Q 2119 3097 1870 3000 
Q 1622 2903 1453 2725 
Q 1184 2453 1037 2087 
Q 891 1722 891 1331 
Q 891 859 1127 628 
Q 1363 397 1844 397 
Q 2081 397 2348 469 
Q 2616 541 2906 684 
L 2797 116 
Q 2547 13 2283 -39 
Q 2019 -91 1741 -91 
Q 1044 -91 669 257 
Q 294 606 294 1253 
Q 294 1797 489 2255 
Q 684 2713 1069 3078 
Q 1331 3328 1684 3456 
Q 2038 3584 2456 3584 
Q 2700 3584 2940 3529 
Q 3181 3475 3431 3366 
z
" transform="scale(0.015625)"/>
       <path id="DejaVuSans-Oblique-45" d="M 1081 4666 
L 4031 4666 
L 3928 4134 
L 1606 4134 
L 1338 2753 
L 3566 2753 
L 3463 2222 
L 1234 2222 
L 909 531 
L 3284 531 
L 3181 0 
L 172 0 
L 1081 4666 
z
" transform="scale(0.015625)"/>
       <path id="DejaVuSans-67" d="M 2906 1791 
Q 2906 2416 2648 2759 
Q 2391 3103 1925 3103 
Q 1463 3103 1205 2759 
Q 947 2416 947 1791 
Q 947 1169 1205 825 
Q 1463 481 1925 481 
Q 2391 481 2648 825 
Q 2906 1169 2906 1791 
z
M 3481 434 
Q 3481 -459 3084 -895 
Q 2688 -1331 1869 -1331 
Q 1566 -1331 1297 -1286 
Q 1028 -1241 775 -1147 
L 775 -588 
Q 1028 -725 1275 -790 
Q 1522 -856 1778 -856 
Q 2344 -856 2625 -561 
Q 2906 -266 2906 331 
L 2906 616 
Q 2728 306 2450 153 
Q 2172 0 1784 0 
Q 1141 0 747 490 
Q 353 981 353 1791 
Q 353 2603 747 3093 
Q 1141 3584 1784 3584 
Q 2172 3584 2450 3431 
Q 2728 3278 2906 2969 
L 2906 3500 
L 3481 3500 
L 3481 434 
z
" transform="scale(0.015625)"/>
       <path id="DejaVuSans-2f" d="M 1625 4666 
L 2156 4666 
L 531 -594 
L 0 -594 
L 1625 4666 
z
" transform="scale(0.015625)"/>
       <path id="DejaVuSans-56" d="M 1831 0 
L 50 4666 
L 709 4666 
L 2188 738 
L 3669 4666 
L 4325 4666 
L 2547 0 
L 1831 0 
z
" transform="scale(0.015625)"/>
      </defs>
      <use xlink:href="#DejaVuSans-Oblique-3bc" transform="translate(0 0.125)"/>
      <use xlink:href="#DejaVuSans-Oblique-63" transform="translate(63.623047 -16.28125) scale(0.7)"/>
      <use xlink:href="#DejaVuSans-2212" transform="translate(124.326172 0.125)"/>
      <use xlink:href="#DejaVuSans-Oblique-45" transform="translate(227.597656 0.125)"/>
      <use xlink:href="#DejaVuSans-67" transform="translate(290.78125 -16.28125) scale(0.7)"/>
      <use xlink:href="#DejaVuSans-61" transform="translate(335.214844 -16.28125) scale(0.7)"/>
      <use xlink:href="#DejaVuSans-70" transform="translate(378.110352 -16.28125) scale(0.7)"/>
      <use xlink:href="#DejaVuSans-2f" transform="translate(425.27832 0.125)"/>
      <use xlink:href="#DejaVuSans-32" transform="translate(455.344727 0.125)"/>
      <use xlink:href="#DejaVuSans-20" transform="translate(518.967773 0.125)"/>
      <use xlink:href="#DejaVuSans-28" transform="translate(550.754883 0.125)"/>
      <use xlink:href="#DejaVuSans-65" transform="translate(589.768555 0.125)"/>
      <use xlink:href="#DejaVuSans-56" transform="translate(651.291992 0.125)"/>
      <use xlink:href="#DejaVuSans-29" transform="translate(719.700195 0.125)"/>
     </g>
    </g>
   </g>
   <g id="line2d_31">
    <path d="M 88.238085 45.687322 
L 94.705548 46.124042 
L 101.981443 46.833375 
L 110.874205 47.94001 
L 120.575399 49.392849 
L 131.085027 51.209606 
L 142.403087 53.407176 
L 154.52958 55.999863 
L 167.464505 58.998272 
L 181.207864 62.408494 
L 196.568089 66.449489 
L 213.545179 71.146312 
L 232.947567 76.745492 
L 256.39212 83.747357 
L 289.537868 93.898683 
L 355.02093 113.988989 
L 383.31608 122.408024 
L 408.377499 129.634553 
L 431.013619 135.938289 
L 452.841306 141.791779 
L 473.860561 147.203167 
L 494.879815 152.381735 
L 515.090637 157.133916 
L 535.301458 161.658627 
L 555.51228 165.953559 
L 575.723101 170.018449 
L 595.933923 173.854831 
L 616.144745 177.465795 
L 636.355566 180.855768 
L 653.332656 183.536599 
L 653.332656 183.536599 
" clip-path="url(#pdf4f916baf)" style="fill: none; stroke-dasharray: 2,3.3; stroke-dashoffset: 0; stroke: #1f77b4; stroke-width: 2"/>
   </g>
   <g id="line2d_32">
    <path d="M 88.238085 392.49999 
L 94.705548 392.063271 
L 101.981443 391.353937 
L 110.874205 390.247302 
L 120.575399 388.794464 
L 131.085027 386.977707 
L 142.403087 384.780136 
L 154.52958 382.187449 
L 167.464505 379.18904 
L 181.207864 375.778818 
L 196.568089 371.737823 
L 213.545179 367.041 
L 232.947567 361.441821 
L 256.39212 354.439955 
L 289.537868 344.288629 
L 355.02093 324.198324 
L 383.31608 315.779288 
L 408.377499 308.552759 
L 431.013619 302.249023 
L 452.841306 296.395534 
L 473.860561 290.984146 
L 494.879815 285.805578 
L 515.090637 281.053397 
L 535.301458 276.528685 
L 555.51228 272.233753 
L 575.723101 268.168863 
L 595.933923 264.332482 
L 616.144745 260.721518 
L 636.355566 257.331545 
L 653.332656 254.650714 
L 653.332656 254.650714 
" clip-path="url(#pdf4f916baf)" style="fill: none; stroke: #ff7f0e; stroke-width: 2; stroke-linecap: square"/>
   </g>
   <g id="line2d_33">
    <path d="M 88.238085 54.687488 
L 93.897115 55.12732 
L 101.173011 55.941257 
L 109.257339 57.097032 
L 118.150101 58.617171 
L 127.851295 60.524971 
L 138.360922 62.841459 
L 149.678982 65.583753 
L 161.805475 68.763896 
L 174.740401 72.387947 
L 189.292193 76.700509 
L 205.46085 81.724623 
L 224.863239 87.993126 
L 249.924657 96.336766 
L 331.576377 123.697938 
L 355.02093 131.220935 
L 376.040184 137.73803 
L 396.251006 143.769934 
L 415.653394 149.323155 
L 434.24735 154.412786 
L 452.841306 159.265672 
L 470.626829 163.680422 
L 488.412352 167.870188 
L 506.197875 171.834285 
L 523.983398 175.573903 
L 541.768921 179.091854 
L 560.362877 182.537284 
L 578.956833 185.751222 
L 597.550789 188.740998 
L 616.953177 191.630714 
L 636.355566 194.295568 
L 653.332656 196.451369 
L 653.332656 196.451369 
" clip-path="url(#pdf4f916baf)" style="fill: none; stroke-dasharray: 2,3.3; stroke-dashoffset: 0; stroke: #2ca02c; stroke-width: 2"/>
   </g>
   <g id="line2d_34">
    <path d="M 88.238085 383.499825 
L 93.897115 383.059993 
L 101.173011 382.246056 
L 109.257339 381.090281 
L 118.150101 379.570141 
L 127.851295 377.662342 
L 138.360922 375.345853 
L 149.678982 372.603559 
L 161.805475 369.423416 
L 174.740401 365.799366 
L 189.292193 361.486803 
L 205.46085 356.462689 
L 224.863239 350.194187 
L 249.924657 341.850546 
L 331.576377 314.489375 
L 355.02093 306.966378 
L 376.040184 300.449282 
L 396.251006 294.417379 
L 415.653394 288.864158 
L 434.24735 283.774527 
L 452.841306 278.921641 
L 470.626829 274.506891 
L 488.412352 270.317125 
L 506.197875 266.353028 
L 523.983398 262.61341 
L 541.768921 259.095458 
L 560.362877 255.650028 
L 578.956833 252.436091 
L 597.550789 249.446315 
L 616.953177 246.556598 
L 636.355566 243.891744 
L 653.332656 241.735943 
L 653.332656 241.735943 
" clip-path="url(#pdf4f916baf)" style="fill: none; stroke: #d62728; stroke-width: 2; stroke-linecap: square"/>
   </g>
   <g id="line2d_35">
    <path d="M 88.238085 60.710281 
L 93.088682 61.167391 
L 98.747712 61.906166 
L 105.215175 62.962737 
L 112.491071 64.374506 
L 120.575399 66.17682 
L 129.468161 68.401193 
L 139.169355 71.073921 
L 149.678982 74.214861 
L 160.997043 77.836304 
L 173.931968 82.222843 
L 188.48376 87.405334 
L 205.46085 93.692494 
L 228.905403 102.632462 
L 287.112569 124.934469 
L 308.131824 132.696187 
L 326.725779 139.331653 
L 344.511302 145.439066 
L 361.488393 151.026257 
L 377.65705 156.111397 
L 393.825707 160.955732 
L 409.185932 165.328604 
L 424.546156 169.474876 
L 439.90638 173.39368 
L 455.266605 177.086142 
L 470.626829 180.555113 
L 485.987054 183.804916 
L 502.155711 186.995117 
L 518.324368 189.956355 
L 534.493025 192.697339 
L 551.470115 195.348709 
L 568.447206 197.779357 
L 586.232729 200.102196 
L 604.826684 202.30122 
L 624.229073 204.363235 
L 644.439895 206.278069 
L 653.332656 207.050408 
L 653.332656 207.050408 
" clip-path="url(#pdf4f916baf)" style="fill: none; stroke-dasharray: 2,3.3; stroke-dashoffset: 0; stroke: #9467bd; stroke-width: 2"/>
   </g>
   <g id="line2d_36">
    <path d="M 88.238085 377.477031 
L 93.088682 377.019922 
L 98.747712 376.281146 
L 105.215175 375.224576 
L 112.491071 373.812807 
L 120.575399 372.010492 
L 129.468161 369.78612 
L 139.169355 367.113391 
L 149.678982 363.972452 
L 160.997043 360.351008 
L 173.931968 355.96447 
L 188.48376 350.781978 
L 205.46085 344.494819 
L 228.905403 335.55485 
L 287.112569 313.252843 
L 308.131824 305.491126 
L 326.725779 298.85566 
L 344.511302 292.748247 
L 361.488393 287.161055 
L 377.65705 282.075915 
L 393.825707 277.231581 
L 409.185932 272.858708 
L 424.546156 268.712437 
L 439.90638 264.793633 
L 455.266605 261.10117 
L 470.626829 257.632199 
L 485.987054 254.382396 
L 502.155711 251.192195 
L 518.324368 248.230958 
L 534.493025 245.489974 
L 551.470115 242.838603 
L 568.447206 240.407956 
L 586.232729 238.085117 
L 604.826684 235.886092 
L 624.229073 233.824078 
L 644.439895 231.909243 
L 653.332656 231.136905 
L 653.332656 231.136905 
" clip-path="url(#pdf4f916baf)" style="fill: none; stroke: #8c564b; stroke-width: 2; stroke-linecap: square"/>
   </g>
   <g id="line2d_37">
    <path d="M 88.238085 66.755732 
L 93.088682 67.358208 
L 98.747712 68.330556 
L 104.406742 69.530612 
L 110.874205 71.132567 
L 118.150101 73.183083 
L 125.425997 75.457443 
L 133.510325 78.207954 
L 142.403087 81.4632 
L 152.104281 85.242022 
L 163.422341 89.891429 
L 176.357267 95.44564 
L 193.334357 102.995284 
L 227.288537 118.422166 
L 250.73309 128.931316 
L 268.518613 136.658703 
L 283.878838 143.097403 
L 298.430629 148.960687 
L 312.173988 154.264631 
L 325.917347 159.326167 
L 338.852272 163.858954 
L 351.787198 168.161929 
L 364.722124 172.232221 
L 377.65705 176.069385 
L 390.591976 179.675084 
L 403.526901 183.052794 
L 416.461827 186.207519 
L 430.205186 189.322135 
L 443.948545 192.200939 
L 457.691903 194.853778 
L 472.243695 197.428186 
L 486.795486 199.774438 
L 502.155711 202.01863 
L 517.515935 204.040135 
L 533.684592 205.945316 
L 550.661683 207.719954 
L 568.447206 209.353434 
L 587.041161 210.838859 
L 607.251983 212.224222 
L 628.271237 213.442642 
L 650.907358 214.535668 
L 653.332656 214.64071 
L 653.332656 214.64071 
" clip-path="url(#pdf4f916baf)" style="fill: none; stroke-dasharray: 2,3.3; stroke-dashoffset: 0; stroke: #e377c2; stroke-width: 2"/>
   </g>
   <g id="line2d_38">
    <path d="M 88.238085 371.431581 
L 93.088682 370.829105 
L 98.747712 369.856756 
L 104.406742 368.656701 
L 110.874205 367.054746 
L 118.150101 365.00423 
L 125.425997 362.729869 
L 133.510325 359.979359 
L 142.403087 356.724112 
L 152.104281 352.945291 
L 163.422341 348.295883 
L 176.357267 342.741673 
L 193.334357 335.192029 
L 227.288537 319.765146 
L 250.73309 309.255996 
L 268.518613 301.52861 
L 283.878838 295.089909 
L 298.430629 289.226625 
L 312.173988 283.922681 
L 325.917347 278.861145 
L 338.852272 274.328358 
L 351.787198 270.025384 
L 364.722124 265.955092 
L 377.65705 262.117928 
L 390.591976 258.512228 
L 403.526901 255.134519 
L 416.461827 251.979794 
L 430.205186 248.865178 
L 443.948545 245.986374 
L 457.691903 243.333535 
L 472.243695 240.759127 
L 486.795486 238.412874 
L 502.155711 236.168682 
L 517.515935 234.147177 
L 533.684592 232.241996 
L 550.661683 230.467358 
L 568.447206 228.833878 
L 587.041161 227.348453 
L 607.251983 225.963091 
L 628.271237 224.74467 
L 650.907358 223.651645 
L 653.332656 223.546602 
L 653.332656 223.546602 
" clip-path="url(#pdf4f916baf)" style="fill: none; stroke: #7f7f7f; stroke-width: 2; stroke-linecap: square"/>
   </g>
   <g id="line2d_39">
    <path d="M 84.172656 219.093656 
L 653.332656 219.093656 
" clip-path="url(#pdf4f916baf)" style="fill: none; stroke: #1f77b4; stroke-width: 0.8; stroke-linecap: square"/>
   </g>
   <g id="patch_3">
    <path d="M 84.172656 407.589656 
L 84.172656 30.597656 
" style="fill: none; stroke: #000000; stroke-width: 0.8; stroke-linejoin: miter; stroke-linecap: square"/>
   </g>
   <g id="patch_4">
    <path d="M 653.332656 407.589656 
L 653.332656 30.597656 
" style="fill: none; stroke: #000000; stroke-width: 0.8; stroke-linejoin: miter; stroke-linecap: square"/>
   </g>
   <g id="patch_5">
    <path d="M 84.172656 407.589656 
L 653.332656 407.589656 
" style="fill: none; stroke: #000000; stroke-width: 0.8; stroke-linejoin: miter; stroke-linecap: square"/>
   </g>
   <g id="patch_6">
    <path d="M 84.172656 30.597656 
L 653.332656 30.597656 
" style="fill: none; stroke: #000000; stroke-width: 0.8; stroke-linejoin: miter; stroke-linecap: square"/>
   </g>
   <g id="text_18">
    <!-- drogaggio n -->
    <g transform="translate(506.977228 111.381656) scale(0.11 -0.11)">
     <defs>
      <path id="DejaVuSans-Bold-64" d="M 2919 2988 
L 2919 4863 
L 4044 4863 
L 4044 0 
L 2919 0 
L 2919 506 
Q 2688 197 2409 53 
Q 2131 -91 1766 -91 
Q 1119 -91 703 423 
Q 288 938 288 1747 
Q 288 2556 703 3070 
Q 1119 3584 1766 3584 
Q 2128 3584 2408 3439 
Q 2688 3294 2919 2988 
z
M 2181 722 
Q 2541 722 2730 984 
Q 2919 1247 2919 1747 
Q 2919 2247 2730 2509 
Q 2541 2772 2181 2772 
Q 1825 2772 1636 2509 
Q 1447 2247 1447 1747 
Q 1447 1247 1636 984 
Q 1825 722 2181 722 
z
" transform="scale(0.015625)"/>
      <path id="DejaVuSans-Bold-72" d="M 3138 2547 
Q 2991 2616 2845 2648 
Q 2700 2681 2553 2681 
Q 2122 2681 1889 2404 
Q 1656 2128 1656 1613 
L 1656 0 
L 538 0 
L 538 3500 
L 1656 3500 
L 1656 2925 
Q 1872 3269 2151 3426 
Q 2431 3584 2822 3584 
Q 2878 3584 2943 3579 
Q 3009 3575 3134 3559 
L 3138 2547 
z
" transform="scale(0.015625)"/>
      <path id="DejaVuSans-Bold-6f" d="M 2203 2784 
Q 1831 2784 1636 2517 
Q 1441 2250 1441 1747 
Q 1441 1244 1636 976 
Q 1831 709 2203 709 
Q 2569 709 2762 976 
Q 2956 1244 2956 1747 
Q 2956 2250 2762 2517 
Q 2569 2784 2203 2784 
z
M 2203 3584 
Q 3106 3584 3614 3096 
Q 4122 2609 4122 1747 
Q 4122 884 3614 396 
Q 3106 -91 2203 -91 
Q 1297 -91 786 396 
Q 275 884 275 1747 
Q 275 2609 786 3096 
Q 1297 3584 2203 3584 
z
" transform="scale(0.015625)"/>
      <path id="DejaVuSans-Bold-67" d="M 2919 594 
Q 2688 288 2409 144 
Q 2131 0 1766 0 
Q 1125 0 706 504 
Q 288 1009 288 1791 
Q 288 2575 706 3076 
Q 1125 3578 1766 3578 
Q 2131 3578 2409 3434 
Q 2688 3291 2919 2981 
L 2919 3500 
L 4044 3500 
L 4044 353 
Q 4044 -491 3511 -936 
Q 2978 -1381 1966 -1381 
Q 1638 -1381 1331 -1331 
Q 1025 -1281 716 -1178 
L 716 -306 
Q 1009 -475 1290 -558 
Q 1572 -641 1856 -641 
Q 2406 -641 2662 -400 
Q 2919 -159 2919 353 
L 2919 594 
z
M 2181 2772 
Q 1834 2772 1640 2515 
Q 1447 2259 1447 1791 
Q 1447 1309 1634 1061 
Q 1822 813 2181 813 
Q 2531 813 2725 1069 
Q 2919 1325 2919 1791 
Q 2919 2259 2725 2515 
Q 2531 2772 2181 2772 
z
" transform="scale(0.015625)"/>
      <path id="DejaVuSans-Bold-61" d="M 2106 1575 
Q 1756 1575 1579 1456 
Q 1403 1338 1403 1106 
Q 1403 894 1545 773 
Q 1688 653 1941 653 
Q 2256 653 2472 879 
Q 2688 1106 2688 1447 
L 2688 1575 
L 2106 1575 
z
M 3816 1997 
L 3816 0 
L 2688 0 
L 2688 519 
Q 2463 200 2181 54 
Q 1900 -91 1497 -91 
Q 953 -91 614 226 
Q 275 544 275 1050 
Q 275 1666 698 1953 
Q 1122 2241 2028 2241 
L 2688 2241 
L 2688 2328 
Q 2688 2594 2478 2717 
Q 2269 2841 1825 2841 
Q 1466 2841 1156 2769 
Q 847 2697 581 2553 
L 581 3406 
Q 941 3494 1303 3539 
Q 1666 3584 2028 3584 
Q 2975 3584 3395 3211 
Q 3816 2838 3816 1997 
z
" transform="scale(0.015625)"/>
      <path id="DejaVuSans-Bold-69" d="M 538 3500 
L 1656 3500 
L 1656 0 
L 538 0 
L 538 3500 
z
M 538 4863 
L 1656 4863 
L 1656 3950 
L 538 3950 
L 538 4863 
z
" transform="scale(0.015625)"/>
      <path id="DejaVuSans-Bold-20" transform="scale(0.015625)"/>
      <path id="DejaVuSans-Bold-6e" d="M 4056 2131 
L 4056 0 
L 2931 0 
L 2931 347 
L 2931 1631 
Q 2931 2084 2911 2256 
Q 2891 2428 2841 2509 
Q 2775 2619 2662 2680 
Q 2550 2741 2406 2741 
Q 2056 2741 1856 2470 
Q 1656 2200 1656 1722 
L 1656 0 
L 538 0 
L 538 3500 
L 1656 3500 
L 1656 2988 
Q 1909 3294 2193 3439 
Q 2478 3584 2822 3584 
Q 3428 3584 3742 3212 
Q 4056 2841 4056 2131 
z
" transform="scale(0.015625)"/>
     </defs>
     <use xlink:href="#DejaVuSans-Bold-64"/>
     <use xlink:href="#DejaVuSans-Bold-72" transform="translate(71.582031 0)"/>
     <use xlink:href="#DejaVuSans-Bold-6f" transform="translate(120.898438 0)"/>
     <use xlink:href="#DejaVuSans-Bold-67" transform="translate(189.599609 0)"/>
     <use xlink:href="#DejaVuSans-Bold-61" transform="translate(261.181641 0)"/>
     <use xlink:href="#DejaVuSans-Bold-67" transform="translate(328.662109 0)"/>
     <use xlink:href="#DejaVuSans-Bold-67" transform="translate(400.244141 0)"/>
     <use xlink:href="#DejaVuSans-Bold-69" transform="translate(471.826172 0)"/>
     <use xlink:href="#DejaVuSans-Bold-6f" transform="translate(506.103516 0)"/>
     <use xlink:href="#DejaVuSans-Bold-20" transform="translate(574.804688 0)"/>
     <use xlink:href="#DejaVuSans-Bold-6e" transform="translate(609.619141 0)"/>
    </g>
   </g>
   <g id="text_19">
    <!-- drogaggio p -->
    <g transform="translate(506.977228 338.773656) scale(0.11 -0.11)">
     <defs>
      <path id="DejaVuSans-Bold-70" d="M 1656 506 
L 1656 -1331 
L 538 -1331 
L 538 3500 
L 1656 3500 
L 1656 2988 
Q 1888 3294 2169 3439 
Q 2450 3584 2816 3584 
Q 3463 3584 3878 3070 
Q 4294 2556 4294 1747 
Q 4294 938 3878 423 
Q 3463 -91 2816 -91 
Q 2450 -91 2169 54 
Q 1888 200 1656 506 
z
M 2400 2772 
Q 2041 2772 1848 2508 
Q 1656 2244 1656 1747 
Q 1656 1250 1848 986 
Q 2041 722 2400 722 
Q 2759 722 2948 984 
Q 3138 1247 3138 1747 
Q 3138 2247 2948 2509 
Q 2759 2772 2400 2772 
z
" transform="scale(0.015625)"/>
     </defs>
     <use xlink:href="#DejaVuSans-Bold-64"/>
     <use xlink:href="#DejaVuSans-Bold-72" transform="translate(71.582031 0)"/>
     <use xlink:href="#DejaVuSans-Bold-6f" transform="translate(120.898438 0)"/>
     <use xlink:href="#DejaVuSans-Bold-67" transform="translate(189.599609 0)"/>
     <use xlink:href="#DejaVuSans-Bold-61" transform="translate(261.181641 0)"/>
     <use xlink:href="#DejaVuSans-Bold-67" transform="translate(328.662109 0)"/>
     <use xlink:href="#DejaVuSans-Bold-67" transform="translate(400.244141 0)"/>
     <use xlink:href="#DejaVuSans-Bold-69" transform="translate(471.826172 0)"/>
     <use xlink:href="#DejaVuSans-Bold-6f" transform="translate(506.103516 0)"/>
     <use xlink:href="#DejaVuSans-Bold-20" transform="translate(574.804688 0)"/>
     <use xlink:href="#DejaVuSans-Bold-70" transform="translate(609.619141 0)"/>
    </g>
   </g>
   <g id="text_20">
    <!-- livello intrinseco $\mu_i=E_{\rm gap}/2$ -->
    <g transform="translate(97.182028 207.172656) scale(0.095 -0.095)">
     <defs>
      <path id="DejaVuSans-6c" d="M 603 4863 
L 1178 4863 
L 1178 0 
L 603 0 
L 603 4863 
z
" transform="scale(0.015625)"/>
      <path id="DejaVuSans-69" d="M 603 3500 
L 1178 3500 
L 1178 0 
L 603 0 
L 603 3500 
z
M 603 4863 
L 1178 4863 
L 1178 4134 
L 603 4134 
L 603 4863 
z
" transform="scale(0.015625)"/>
      <path id="DejaVuSans-76" d="M 191 3500 
L 800 3500 
L 1894 563 
L 2988 3500 
L 3597 3500 
L 2284 0 
L 1503 0 
L 191 3500 
z
" transform="scale(0.015625)"/>
      <path id="DejaVuSans-6f" d="M 1959 3097 
Q 1497 3097 1228 2736 
Q 959 2375 959 1747 
Q 959 1119 1226 758 
Q 1494 397 1959 397 
Q 2419 397 2687 759 
Q 2956 1122 2956 1747 
Q 2956 2369 2687 2733 
Q 2419 3097 1959 3097 
z
M 1959 3584 
Q 2709 3584 3137 3096 
Q 3566 2609 3566 1747 
Q 3566 888 3137 398 
Q 2709 -91 1959 -91 
Q 1206 -91 779 398 
Q 353 888 353 1747 
Q 353 2609 779 3096 
Q 1206 3584 1959 3584 
z
" transform="scale(0.015625)"/>
      <path id="DejaVuSans-6e" d="M 3513 2113 
L 3513 0 
L 2938 0 
L 2938 2094 
Q 2938 2591 2744 2837 
Q 2550 3084 2163 3084 
Q 1697 3084 1428 2787 
Q 1159 2491 1159 1978 
L 1159 0 
L 581 0 
L 581 3500 
L 1159 3500 
L 1159 2956 
Q 1366 3272 1645 3428 
Q 1925 3584 2291 3584 
Q 2894 3584 3203 3211 
Q 3513 2838 3513 2113 
z
" transform="scale(0.015625)"/>
      <path id="DejaVuSans-73" d="M 2834 3397 
L 2834 2853 
Q 2591 2978 2328 3040 
Q 2066 3103 1784 3103 
Q 1356 3103 1142 2972 
Q 928 2841 928 2578 
Q 928 2378 1081 2264 
Q 1234 2150 1697 2047 
L 1894 2003 
Q 2506 1872 2764 1633 
Q 3022 1394 3022 966 
Q 3022 478 2636 193 
Q 2250 -91 1575 -91 
Q 1294 -91 989 -36 
Q 684 19 347 128 
L 347 722 
Q 666 556 975 473 
Q 1284 391 1588 391 
Q 1994 391 2212 530 
Q 2431 669 2431 922 
Q 2431 1156 2273 1281 
Q 2116 1406 1581 1522 
L 1381 1569 
Q 847 1681 609 1914 
Q 372 2147 372 2553 
Q 372 3047 722 3315 
Q 1072 3584 1716 3584 
Q 2034 3584 2315 3537 
Q 2597 3491 2834 3397 
z
" transform="scale(0.015625)"/>
      <path id="DejaVuSans-63" d="M 3122 3366 
L 3122 2828 
Q 2878 2963 2633 3030 
Q 2388 3097 2138 3097 
Q 1578 3097 1268 2742 
Q 959 2388 959 1747 
Q 959 1106 1268 751 
Q 1578 397 2138 397 
Q 2388 397 2633 464 
Q 2878 531 3122 666 
L 3122 134 
Q 2881 22 2623 -34 
Q 2366 -91 2075 -91 
Q 1284 -91 818 406 
Q 353 903 353 1747 
Q 353 2603 823 3093 
Q 1294 3584 2113 3584 
Q 2378 3584 2631 3529 
Q 2884 3475 3122 3366 
z
" transform="scale(0.015625)"/>
      <path id="DejaVuSans-Oblique-69" d="M 1172 4863 
L 1747 4863 
L 1606 4134 
L 1031 4134 
L 1172 4863 
z
M 909 3500 
L 1484 3500 
L 800 0 
L 225 0 
L 909 3500 
z
" transform="scale(0.015625)"/>
      <path id="DejaVuSans-3d" d="M 678 2906 
L 4684 2906 
L 4684 2381 
L 678 2381 
L 678 2906 
z
M 678 1631 
L 4684 1631 
L 4684 1100 
L 678 1100 
L 678 1631 
z
" transform="scale(0.015625)"/>
     </defs>
     <use xlink:href="#DejaVuSans-6c" transform="translate(0 0.015625)"/>
     <use xlink:href="#DejaVuSans-69" transform="translate(27.783203 0.015625)"/>
     <use xlink:href="#DejaVuSans-76" transform="translate(55.566406 0.015625)"/>
     <use xlink:href="#DejaVuSans-65" transform="translate(114.746094 0.015625)"/>
     <use xlink:href="#DejaVuSans-6c" transform="translate(176.269531 0.015625)"/>
     <use xlink:href="#DejaVuSans-6c" transform="translate(204.052734 0.015625)"/>
     <use xlink:href="#DejaVuSans-6f" transform="translate(231.835938 0.015625)"/>
     <use xlink:href="#DejaVuSans-20" transform="translate(293.017578 0.015625)"/>
     <use xlink:href="#DejaVuSans-69" transform="translate(324.804688 0.015625)"/>
     <use xlink:href="#DejaVuSans-6e" transform="translate(352.587891 0.015625)"/>
     <use xlink:href="#DejaVuSans-74" transform="translate(415.966797 0.015625)"/>
     <use xlink:href="#DejaVuSans-72" transform="translate(455.175781 0.015625)"/>
     <use xlink:href="#DejaVuSans-69" transform="translate(496.289062 0.015625)"/>
     <use xlink:href="#DejaVuSans-6e" transform="translate(524.072266 0.015625)"/>
     <use xlink:href="#DejaVuSans-73" transform="translate(587.451172 0.015625)"/>
     <use xlink:href="#DejaVuSans-65" transform="translate(639.550781 0.015625)"/>
     <use xlink:href="#DejaVuSans-63" transform="translate(701.074219 0.015625)"/>
     <use xlink:href="#DejaVuSans-6f" transform="translate(756.054688 0.015625)"/>
     <use xlink:href="#DejaVuSans-20" transform="translate(817.236328 0.015625)"/>
     <use xlink:href="#DejaVuSans-Oblique-3bc" transform="translate(849.023438 0.015625)"/>
     <use xlink:href="#DejaVuSans-Oblique-69" transform="translate(912.646484 -16.390625) scale(0.7)"/>
     <use xlink:href="#DejaVuSans-3d" transform="translate(954.311523 0.015625)"/>
     <use xlink:href="#DejaVuSans-Oblique-45" transform="translate(1057.583008 0.015625)"/>
     <use xlink:href="#DejaVuSans-67" transform="translate(1120.766602 -16.390625) scale(0.7)"/>
     <use xlink:href="#DejaVuSans-61" transform="translate(1165.200195 -16.390625) scale(0.7)"/>
     <use xlink:href="#DejaVuSans-70" transform="translate(1208.095703 -16.390625) scale(0.7)"/>
     <use xlink:href="#DejaVuSans-2f" transform="translate(1255.263672 0.015625)"/>
     <use xlink:href="#DejaVuSans-32" transform="translate(1285.330078 0.015625)"/>
    </g>
   </g>
   <g id="text_21">
    <!-- Potenziale chimico del silicio drogato in funzione della temperatura -->
    <g transform="translate(82.035859 18.597656) scale(0.15 -0.15)">
     <defs>
      <path id="DejaVuSans-Bold-50" d="M 588 4666 
L 2584 4666 
Q 3475 4666 3951 4270 
Q 4428 3875 4428 3144 
Q 4428 2409 3951 2014 
Q 3475 1619 2584 1619 
L 1791 1619 
L 1791 0 
L 588 0 
L 588 4666 
z
M 1791 3794 
L 1791 2491 
L 2456 2491 
Q 2806 2491 2997 2661 
Q 3188 2831 3188 3144 
Q 3188 3456 2997 3625 
Q 2806 3794 2456 3794 
L 1791 3794 
z
" transform="scale(0.015625)"/>
      <path id="DejaVuSans-Bold-74" d="M 1759 4494 
L 1759 3500 
L 2913 3500 
L 2913 2700 
L 1759 2700 
L 1759 1216 
Q 1759 972 1856 886 
Q 1953 800 2241 800 
L 2816 800 
L 2816 0 
L 1856 0 
Q 1194 0 917 276 
Q 641 553 641 1216 
L 641 2700 
L 84 2700 
L 84 3500 
L 641 3500 
L 641 4494 
L 1759 4494 
z
" transform="scale(0.015625)"/>
      <path id="DejaVuSans-Bold-65" d="M 4031 1759 
L 4031 1441 
L 1416 1441 
Q 1456 1047 1700 850 
Q 1944 653 2381 653 
Q 2734 653 3104 758 
Q 3475 863 3866 1075 
L 3866 213 
Q 3469 63 3072 -14 
Q 2675 -91 2278 -91 
Q 1328 -91 801 392 
Q 275 875 275 1747 
Q 275 2603 792 3093 
Q 1309 3584 2216 3584 
Q 3041 3584 3536 3087 
Q 4031 2591 4031 1759 
z
M 2881 2131 
Q 2881 2450 2695 2645 
Q 2509 2841 2209 2841 
Q 1884 2841 1681 2658 
Q 1478 2475 1428 2131 
L 2881 2131 
z
" transform="scale(0.015625)"/>
      <path id="DejaVuSans-Bold-7a" d="M 366 3500 
L 3419 3500 
L 3419 2719 
L 1575 800 
L 3419 800 
L 3419 0 
L 288 0 
L 288 781 
L 2131 2700 
L 366 2700 
L 366 3500 
z
" transform="scale(0.015625)"/>
      <path id="DejaVuSans-Bold-6c" d="M 538 4863 
L 1656 4863 
L 1656 0 
L 538 0 
L 538 4863 
z
" transform="scale(0.015625)"/>
      <path id="DejaVuSans-Bold-63" d="M 3366 3391 
L 3366 2478 
Q 3138 2634 2908 2709 
Q 2678 2784 2431 2784 
Q 1963 2784 1702 2511 
Q 1441 2238 1441 1747 
Q 1441 1256 1702 982 
Q 1963 709 2431 709 
Q 2694 709 2930 787 
Q 3166 866 3366 1019 
L 3366 103 
Q 3103 6 2833 -42 
Q 2563 -91 2291 -91 
Q 1344 -91 809 395 
Q 275 881 275 1747 
Q 275 2613 809 3098 
Q 1344 3584 2291 3584 
Q 2566 3584 2833 3536 
Q 3100 3488 3366 3391 
z
" transform="scale(0.015625)"/>
      <path id="DejaVuSans-Bold-68" d="M 4056 2131 
L 4056 0 
L 2931 0 
L 2931 347 
L 2931 1625 
Q 2931 2084 2911 2256 
Q 2891 2428 2841 2509 
Q 2775 2619 2662 2680 
Q 2550 2741 2406 2741 
Q 2056 2741 1856 2470 
Q 1656 2200 1656 1722 
L 1656 0 
L 538 0 
L 538 4863 
L 1656 4863 
L 1656 2988 
Q 1909 3294 2193 3439 
Q 2478 3584 2822 3584 
Q 3428 3584 3742 3212 
Q 4056 2841 4056 2131 
z
" transform="scale(0.015625)"/>
      <path id="DejaVuSans-Bold-6d" d="M 3781 2919 
Q 3994 3244 4286 3414 
Q 4578 3584 4928 3584 
Q 5531 3584 5847 3212 
Q 6163 2841 6163 2131 
L 6163 0 
L 5038 0 
L 5038 1825 
Q 5041 1866 5042 1909 
Q 5044 1953 5044 2034 
Q 5044 2406 4934 2573 
Q 4825 2741 4581 2741 
Q 4263 2741 4089 2478 
Q 3916 2216 3909 1719 
L 3909 0 
L 2784 0 
L 2784 1825 
Q 2784 2406 2684 2573 
Q 2584 2741 2328 2741 
Q 2006 2741 1831 2477 
Q 1656 2213 1656 1722 
L 1656 0 
L 531 0 
L 531 3500 
L 1656 3500 
L 1656 2988 
Q 1863 3284 2130 3434 
Q 2397 3584 2719 3584 
Q 3081 3584 3359 3409 
Q 3638 3234 3781 2919 
z
" transform="scale(0.015625)"/>
      <path id="DejaVuSans-Bold-73" d="M 3272 3391 
L 3272 2541 
Q 2913 2691 2578 2766 
Q 2244 2841 1947 2841 
Q 1628 2841 1473 2761 
Q 1319 2681 1319 2516 
Q 1319 2381 1436 2309 
Q 1553 2238 1856 2203 
L 2053 2175 
Q 2913 2066 3209 1816 
Q 3506 1566 3506 1031 
Q 3506 472 3093 190 
Q 2681 -91 1863 -91 
Q 1516 -91 1145 -36 
Q 775 19 384 128 
L 384 978 
Q 719 816 1070 734 
Q 1422 653 1784 653 
Q 2113 653 2278 743 
Q 2444 834 2444 1013 
Q 2444 1163 2330 1236 
Q 2216 1309 1875 1350 
L 1678 1375 
Q 931 1469 631 1722 
Q 331 1975 331 2491 
Q 331 3047 712 3315 
Q 1094 3584 1881 3584 
Q 2191 3584 2531 3537 
Q 2872 3491 3272 3391 
z
" transform="scale(0.015625)"/>
      <path id="DejaVuSans-Bold-66" d="M 2841 4863 
L 2841 4128 
L 2222 4128 
Q 1984 4128 1890 4042 
Q 1797 3956 1797 3744 
L 1797 3500 
L 2753 3500 
L 2753 2700 
L 1797 2700 
L 1797 0 
L 678 0 
L 678 2700 
L 122 2700 
L 122 3500 
L 678 3500 
L 678 3744 
Q 678 4316 997 4589 
Q 1316 4863 1984 4863 
L 2841 4863 
z
" transform="scale(0.015625)"/>
      <path id="DejaVuSans-Bold-75" d="M 500 1363 
L 500 3500 
L 1625 3500 
L 1625 3150 
Q 1625 2866 1622 2436 
Q 1619 2006 1619 1863 
Q 1619 1441 1641 1255 
Q 1663 1069 1716 984 
Q 1784 875 1895 815 
Q 2006 756 2150 756 
Q 2500 756 2700 1025 
Q 2900 1294 2900 1772 
L 2900 3500 
L 4019 3500 
L 4019 0 
L 2900 0 
L 2900 506 
Q 2647 200 2364 54 
Q 2081 -91 1741 -91 
Q 1134 -91 817 281 
Q 500 653 500 1363 
z
" transform="scale(0.015625)"/>
     </defs>
     <use xlink:href="#DejaVuSans-Bold-50"/>
     <use xlink:href="#DejaVuSans-Bold-6f" transform="translate(73.291016 0)"/>
     <use xlink:href="#DejaVuSans-Bold-74" transform="translate(141.992188 0)"/>
     <use xlink:href="#DejaVuSans-Bold-65" transform="translate(189.794922 0)"/>
     <use xlink:href="#DejaVuSans-Bold-6e" transform="translate(257.617188 0)"/>
     <use xlink:href="#DejaVuSans-Bold-7a" transform="translate(328.808594 0)"/>
     <use xlink:href="#DejaVuSans-Bold-69" transform="translate(387.011719 0)"/>
     <use xlink:href="#DejaVuSans-Bold-61" transform="translate(421.289062 0)"/>
     <use xlink:href="#DejaVuSans-Bold-6c" transform="translate(488.769531 0)"/>
     <use xlink:href="#DejaVuSans-Bold-65" transform="translate(523.046875 0)"/>
     <use xlink:href="#DejaVuSans-Bold-20" transform="translate(590.869141 0)"/>
     <use xlink:href="#DejaVuSans-Bold-63" transform="translate(625.683594 0)"/>
     <use xlink:href="#DejaVuSans-Bold-68" transform="translate(684.960938 0)"/>
     <use xlink:href="#DejaVuSans-Bold-69" transform="translate(756.152344 0)"/>
     <use xlink:href="#DejaVuSans-Bold-6d" transform="translate(790.429688 0)"/>
     <use xlink:href="#DejaVuSans-Bold-69" transform="translate(894.628906 0)"/>
     <use xlink:href="#DejaVuSans-Bold-63" transform="translate(928.90625 0)"/>
     <use xlink:href="#DejaVuSans-Bold-6f" transform="translate(988.183594 0)"/>
     <use xlink:href="#DejaVuSans-Bold-20" transform="translate(1056.884766 0)"/>
     <use xlink:href="#DejaVuSans-Bold-64" transform="translate(1091.699219 0)"/>
     <use xlink:href="#DejaVuSans-Bold-65" transform="translate(1163.28125 0)"/>
     <use xlink:href="#DejaVuSans-Bold-6c" transform="translate(1231.103516 0)"/>
     <use xlink:href="#DejaVuSans-Bold-20" transform="translate(1265.380859 0)"/>
     <use xlink:href="#DejaVuSans-Bold-73" transform="translate(1300.195312 0)"/>
     <use xlink:href="#DejaVuSans-Bold-69" transform="translate(1359.716797 0)"/>
     <use xlink:href="#DejaVuSans-Bold-6c" transform="translate(1393.994141 0)"/>
     <use xlink:href="#DejaVuSans-Bold-69" transform="translate(1428.271484 0)"/>
     <use xlink:href="#DejaVuSans-Bold-63" transform="translate(1462.548828 0)"/>
     <use xlink:href="#DejaVuSans-Bold-69" transform="translate(1521.826172 0)"/>
     <use xlink:href="#DejaVuSans-Bold-6f" transform="translate(1556.103516 0)"/>
     <use xlink:href="#DejaVuSans-Bold-20" transform="translate(1624.804688 0)"/>
     <use xlink:href="#DejaVuSans-Bold-64" transform="translate(1659.619141 0)"/>
     <use xlink:href="#DejaVuSans-Bold-72" transform="translate(1731.201172 0)"/>
     <use xlink:href="#DejaVuSans-Bold-6f" transform="translate(1780.517578 0)"/>
     <use xlink:href="#DejaVuSans-Bold-67" transform="translate(1849.21875 0)"/>
     <use xlink:href="#DejaVuSans-Bold-61" transform="translate(1920.800781 0)"/>
     <use xlink:href="#DejaVuSans-Bold-74" transform="translate(1988.28125 0)"/>
     <use xlink:href="#DejaVuSans-Bold-6f" transform="translate(2036.083984 0)"/>
     <use xlink:href="#DejaVuSans-Bold-20" transform="translate(2104.785156 0)"/>
     <use xlink:href="#DejaVuSans-Bold-69" transform="translate(2139.599609 0)"/>
     <use xlink:href="#DejaVuSans-Bold-6e" transform="translate(2173.876953 0)"/>
     <use xlink:href="#DejaVuSans-Bold-20" transform="translate(2245.068359 0)"/>
     <use xlink:href="#DejaVuSans-Bold-66" transform="translate(2279.882812 0)"/>
     <use xlink:href="#DejaVuSans-Bold-75" transform="translate(2323.388672 0)"/>
     <use xlink:href="#DejaVuSans-Bold-6e" transform="translate(2394.580078 0)"/>
     <use xlink:href="#DejaVuSans-Bold-7a" transform="translate(2465.771484 0)"/>
     <use xlink:href="#DejaVuSans-Bold-69" transform="translate(2523.974609 0)"/>
     <use xlink:href="#DejaVuSans-Bold-6f" transform="translate(2558.251953 0)"/>
     <use xlink:href="#DejaVuSans-Bold-6e" transform="translate(2626.953125 0)"/>
     <use xlink:href="#DejaVuSans-Bold-65" transform="translate(2698.144531 0)"/>
     <use xlink:href="#DejaVuSans-Bold-20" transform="translate(2765.966797 0)"/>
     <use xlink:href="#DejaVuSans-Bold-64" transform="translate(2800.78125 0)"/>
     <use xlink:href="#DejaVuSans-Bold-65" transform="translate(2872.363281 0)"/>
     <use xlink:href="#DejaVuSans-Bold-6c" transform="translate(2940.185547 0)"/>
     <use xlink:href="#DejaVuSans-Bold-6c" transform="translate(2974.462891 0)"/>
     <use xlink:href="#DejaVuSans-Bold-61" transform="translate(3008.740234 0)"/>
     <use xlink:href="#DejaVuSans-Bold-20" transform="translate(3076.220703 0)"/>
     <use xlink:href="#DejaVuSans-Bold-74" transform="translate(3111.035156 0)"/>
     <use xlink:href="#DejaVuSans-Bold-65" transform="translate(3158.837891 0)"/>
     <use xlink:href="#DejaVuSans-Bold-6d" transform="translate(3226.660156 0)"/>
     <use xlink:href="#DejaVuSans-Bold-70" transform="translate(3330.859375 0)"/>
     <use xlink:href="#DejaVuSans-Bold-65" transform="translate(3402.441406 0)"/>
     <use xlink:href="#DejaVuSans-Bold-72" transform="translate(3470.263672 0)"/>
     <use xlink:href="#DejaVuSans-Bold-61" transform="translate(3519.580078 0)"/>
     <use xlink:href="#DejaVuSans-Bold-74" transform="translate(3587.060547 0)"/>
     <use xlink:href="#DejaVuSans-Bold-75" transform="translate(3634.863281 0)"/>
     <use xlink:href="#DejaVuSans-Bold-72" transform="translate(3706.054688 0)"/>
     <use xlink:href="#DejaVuSans-Bold-61" transform="translate(3755.371094 0)"/>
    </g>
   </g>
   <g id="legend_1">
    <g id="text_22">
     <!-- concentrazione di droganti -->
     <g transform="translate(92.002656 193.665031) scale(0.1 -0.1)">
      <defs>
       <path id="DejaVuSans-7a" d="M 353 3500 
L 3084 3500 
L 3084 2975 
L 922 459 
L 3084 459 
L 3084 0 
L 275 0 
L 275 525 
L 2438 3041 
L 353 3041 
L 353 3500 
z
" transform="scale(0.015625)"/>
       <path id="DejaVuSans-64" d="M 2906 2969 
L 2906 4863 
L 3481 4863 
L 3481 0 
L 2906 0 
L 2906 525 
Q 2725 213 2448 61 
Q 2172 -91 1784 -91 
Q 1150 -91 751 415 
Q 353 922 353 1747 
Q 353 2572 751 3078 
Q 1150 3584 1784 3584 
Q 2172 3584 2448 3432 
Q 2725 3281 2906 2969 
z
M 947 1747 
Q 947 1113 1208 752 
Q 1469 391 1925 391 
Q 2381 391 2643 752 
Q 2906 1113 2906 1747 
Q 2906 2381 2643 2742 
Q 2381 3103 1925 3103 
Q 1469 3103 1208 2742 
Q 947 2381 947 1747 
z
" transform="scale(0.015625)"/>
      </defs>
      <use xlink:href="#DejaVuSans-63"/>
      <use xlink:href="#DejaVuSans-6f" transform="translate(54.980469 0)"/>
      <use xlink:href="#DejaVuSans-6e" transform="translate(116.162109 0)"/>
      <use xlink:href="#DejaVuSans-63" transform="translate(179.541016 0)"/>
      <use xlink:href="#DejaVuSans-65" transform="translate(234.521484 0)"/>
      <use xlink:href="#DejaVuSans-6e" transform="translate(296.044922 0)"/>
      <use xlink:href="#DejaVuSans-74" transform="translate(359.423828 0)"/>
      <use xlink:href="#DejaVuSans-72" transform="translate(398.632812 0)"/>
      <use xlink:href="#DejaVuSans-61" transform="translate(439.746094 0)"/>
      <use xlink:href="#DejaVuSans-7a" transform="translate(501.025391 0)"/>
      <use xlink:href="#DejaVuSans-69" transform="translate(553.515625 0)"/>
      <use xlink:href="#DejaVuSans-6f" transform="translate(581.298828 0)"/>
      <use xlink:href="#DejaVuSans-6e" transform="translate(642.480469 0)"/>
      <use xlink:href="#DejaVuSans-65" transform="translate(705.859375 0)"/>
      <use xlink:href="#DejaVuSans-20" transform="translate(767.382812 0)"/>
      <use xlink:href="#DejaVuSans-64" transform="translate(799.169922 0)"/>
      <use xlink:href="#DejaVuSans-69" transform="translate(862.646484 0)"/>
      <use xlink:href="#DejaVuSans-20" transform="translate(890.429688 0)"/>
      <use xlink:href="#DejaVuSans-64" transform="translate(922.216797 0)"/>
      <use xlink:href="#DejaVuSans-72" transform="translate(985.693359 0)"/>
      <use xlink:href="#DejaVuSans-6f" transform="translate(1024.556641 0)"/>
      <use xlink:href="#DejaVuSans-67" transform="translate(1085.738281 0)"/>
      <use xlink:href="#DejaVuSans-61" transform="translate(1149.214844 0)"/>
      <use xlink:href="#DejaVuSans-6e" transform="translate(1210.494141 0)"/>
      <use xlink:href="#DejaVuSans-74" transform="translate(1273.873047 0)"/>
      <use xlink:href="#DejaVuSans-69" transform="translate(1313.082031 0)"/>
     </g>
    </g>
    <g id="line2d_40">
     <path d="M 104.758406 204.966719 
L 113.458406 204.966719 
L 122.158406 204.966719 
" style="fill: none; stroke-dasharray: 2,3.3; stroke-dashoffset: 0; stroke: #1f77b4; stroke-width: 2"/>
    </g>
    <g id="text_23">
     <!-- $n,p=1e+18\ \mathrm{cm}^{-3}$ -->
     <g transform="translate(129.118406 208.011719) scale(0.087 -0.087)">
      <defs>
       <path id="DejaVuSans-Oblique-6e" d="M 3566 2113 
L 3156 0 
L 2578 0 
L 2988 2091 
Q 3016 2238 3031 2350 
Q 3047 2463 3047 2528 
Q 3047 2791 2881 2937 
Q 2716 3084 2419 3084 
Q 1956 3084 1622 2776 
Q 1288 2469 1184 1941 
L 800 0 
L 225 0 
L 903 3500 
L 1478 3500 
L 1363 2950 
Q 1603 3253 1940 3418 
Q 2278 3584 2650 3584 
Q 3113 3584 3367 3334 
Q 3622 3084 3622 2631 
Q 3622 2519 3608 2391 
Q 3594 2263 3566 2113 
z
" transform="scale(0.015625)"/>
       <path id="DejaVuSans-2c" d="M 750 794 
L 1409 794 
L 1409 256 
L 897 -744 
L 494 -744 
L 750 256 
L 750 794 
z
" transform="scale(0.015625)"/>
       <path id="DejaVuSans-Oblique-70" d="M 3175 2156 
Q 3175 2616 2975 2859 
Q 2775 3103 2400 3103 
Q 2144 3103 1911 2972 
Q 1678 2841 1497 2591 
Q 1319 2344 1212 1994 
Q 1106 1644 1106 1300 
Q 1106 863 1306 627 
Q 1506 391 1875 391 
Q 2147 391 2380 519 
Q 2613 647 2778 891 
Q 2956 1147 3065 1494 
Q 3175 1841 3175 2156 
z
M 1394 2969 
Q 1625 3272 1939 3428 
Q 2253 3584 2638 3584 
Q 3175 3584 3472 3232 
Q 3769 2881 3769 2247 
Q 3769 1728 3584 1258 
Q 3400 788 3053 416 
Q 2822 169 2531 39 
Q 2241 -91 1919 -91 
Q 1547 -91 1294 64 
Q 1041 219 916 525 
L 556 -1331 
L -19 -1331 
L 922 3500 
L 1497 3500 
L 1394 2969 
z
" transform="scale(0.015625)"/>
       <path id="DejaVuSans-Oblique-65" d="M 3078 2063 
Q 3088 2113 3092 2166 
Q 3097 2219 3097 2272 
Q 3097 2653 2873 2875 
Q 2650 3097 2266 3097 
Q 1838 3097 1509 2826 
Q 1181 2556 1013 2059 
L 3078 2063 
z
M 3578 1613 
L 903 1613 
Q 884 1494 878 1425 
Q 872 1356 872 1306 
Q 872 872 1139 634 
Q 1406 397 1894 397 
Q 2269 397 2603 481 
Q 2938 566 3225 728 
L 3116 159 
Q 2806 34 2476 -28 
Q 2147 -91 1806 -91 
Q 1078 -91 686 257 
Q 294 606 294 1247 
Q 294 1794 489 2264 
Q 684 2734 1063 3103 
Q 1306 3334 1642 3459 
Q 1978 3584 2356 3584 
Q 2950 3584 3301 3228 
Q 3653 2872 3653 2272 
Q 3653 2128 3634 1964 
Q 3616 1800 3578 1613 
z
" transform="scale(0.015625)"/>
       <path id="DejaVuSans-2b" d="M 2944 4013 
L 2944 2272 
L 4684 2272 
L 4684 1741 
L 2944 1741 
L 2944 0 
L 2419 0 
L 2419 1741 
L 678 1741 
L 678 2272 
L 2419 2272 
L 2419 4013 
L 2944 4013 
z
" transform="scale(0.015625)"/>
       <path id="DejaVuSans-38" d="M 2034 2216 
Q 1584 2216 1326 1975 
Q 1069 1734 1069 1313 
Q 1069 891 1326 650 
Q 1584 409 2034 409 
Q 2484 409 2743 651 
Q 3003 894 3003 1313 
Q 3003 1734 2745 1975 
Q 2488 2216 2034 2216 
z
M 1403 2484 
Q 997 2584 770 2862 
Q 544 3141 544 3541 
Q 544 4100 942 4425 
Q 1341 4750 2034 4750 
Q 2731 4750 3128 4425 
Q 3525 4100 3525 3541 
Q 3525 3141 3298 2862 
Q 3072 2584 2669 2484 
Q 3125 2378 3379 2068 
Q 3634 1759 3634 1313 
Q 3634 634 3220 271 
Q 2806 -91 2034 -91 
Q 1263 -91 848 271 
Q 434 634 434 1313 
Q 434 1759 690 2068 
Q 947 2378 1403 2484 
z
M 1172 3481 
Q 1172 3119 1398 2916 
Q 1625 2713 2034 2713 
Q 2441 2713 2670 2916 
Q 2900 3119 2900 3481 
Q 2900 3844 2670 4047 
Q 2441 4250 2034 4250 
Q 1625 4250 1398 4047 
Q 1172 3844 1172 3481 
z
" transform="scale(0.015625)"/>
      </defs>
      <use xlink:href="#DejaVuSans-Oblique-6e" transform="translate(0 0.765625)"/>
      <use xlink:href="#DejaVuSans-2c" transform="translate(63.378906 0.765625)"/>
      <use xlink:href="#DejaVuSans-Oblique-70" transform="translate(114.648438 0.765625)"/>
      <use xlink:href="#DejaVuSans-3d" transform="translate(197.607422 0.765625)"/>
      <use xlink:href="#DejaVuSans-31" transform="translate(300.878906 0.765625)"/>
      <use xlink:href="#DejaVuSans-Oblique-65" transform="translate(364.501953 0.765625)"/>
      <use xlink:href="#DejaVuSans-2b" transform="translate(445.507812 0.765625)"/>
      <use xlink:href="#DejaVuSans-31" transform="translate(548.779297 0.765625)"/>
      <use xlink:href="#DejaVuSans-38" transform="translate(612.402344 0.765625)"/>
      <use xlink:href="#DejaVuSans-63" transform="translate(708.495769 0.765625)"/>
      <use xlink:href="#DejaVuSans-6d" transform="translate(763.476238 0.765625)"/>
      <use xlink:href="#DejaVuSans-2212" transform="translate(861.845378 39.046875) scale(0.7)"/>
      <use xlink:href="#DejaVuSans-33" transform="translate(920.497722 39.046875) scale(0.7)"/>
     </g>
    </g>
    <g id="line2d_41">
     <path d="M 104.758406 219.060719 
L 113.458406 219.060719 
L 122.158406 219.060719 
" style="fill: none; stroke-dasharray: 2,3.3; stroke-dashoffset: 0; stroke: #2ca02c; stroke-width: 2"/>
    </g>
    <g id="text_24">
     <!-- $n,p=1e+16\ \mathrm{cm}^{-3}$ -->
     <g transform="translate(129.118406 222.105719) scale(0.087 -0.087)">
      <use xlink:href="#DejaVuSans-Oblique-6e" transform="translate(0 0.765625)"/>
      <use xlink:href="#DejaVuSans-2c" transform="translate(63.378906 0.765625)"/>
      <use xlink:href="#DejaVuSans-Oblique-70" transform="translate(114.648438 0.765625)"/>
      <use xlink:href="#DejaVuSans-3d" transform="translate(197.607422 0.765625)"/>
      <use xlink:href="#DejaVuSans-31" transform="translate(300.878906 0.765625)"/>
      <use xlink:href="#DejaVuSans-Oblique-65" transform="translate(364.501953 0.765625)"/>
      <use xlink:href="#DejaVuSans-2b" transform="translate(445.507812 0.765625)"/>
      <use xlink:href="#DejaVuSans-31" transform="translate(548.779297 0.765625)"/>
      <use xlink:href="#DejaVuSans-36" transform="translate(612.402344 0.765625)"/>
      <use xlink:href="#DejaVuSans-63" transform="translate(708.495769 0.765625)"/>
      <use xlink:href="#DejaVuSans-6d" transform="translate(763.476238 0.765625)"/>
      <use xlink:href="#DejaVuSans-2212" transform="translate(861.845378 39.046875) scale(0.7)"/>
      <use xlink:href="#DejaVuSans-33" transform="translate(920.497722 39.046875) scale(0.7)"/>
     </g>
    </g>
    <g id="line2d_42">
     <path d="M 104.758406 233.154719 
L 113.458406 233.154719 
L 122.158406 233.154719 
" style="fill: none; stroke-dasharray: 2,3.3; stroke-dashoffset: 0; stroke: #9467bd; stroke-width: 2"/>
    </g>
    <g id="text_25">
     <!-- $n,p=1e+15\ \mathrm{cm}^{-3}$ -->
     <g transform="translate(129.118406 236.199719) scale(0.087 -0.087)">
      <use xlink:href="#DejaVuSans-Oblique-6e" transform="translate(0 0.765625)"/>
      <use xlink:href="#DejaVuSans-2c" transform="translate(63.378906 0.765625)"/>
      <use xlink:href="#DejaVuSans-Oblique-70" transform="translate(114.648438 0.765625)"/>
      <use xlink:href="#DejaVuSans-3d" transform="translate(197.607422 0.765625)"/>
      <use xlink:href="#DejaVuSans-31" transform="translate(300.878906 0.765625)"/>
      <use xlink:href="#DejaVuSans-Oblique-65" transform="translate(364.501953 0.765625)"/>
      <use xlink:href="#DejaVuSans-2b" transform="translate(445.507812 0.765625)"/>
      <use xlink:href="#DejaVuSans-31" transform="translate(548.779297 0.765625)"/>
      <use xlink:href="#DejaVuSans-35" transform="translate(612.402344 0.765625)"/>
      <use xlink:href="#DejaVuSans-63" transform="translate(708.495769 0.765625)"/>
      <use xlink:href="#DejaVuSans-6d" transform="translate(763.476238 0.765625)"/>
      <use xlink:href="#DejaVuSans-2212" transform="translate(861.845378 39.046875) scale(0.7)"/>
      <use xlink:href="#DejaVuSans-33" transform="translate(920.497722 39.046875) scale(0.7)"/>
     </g>
    </g>
    <g id="line2d_43">
     <path d="M 104.758406 247.248719 
L 113.458406 247.248719 
L 122.158406 247.248719 
" style="fill: none; stroke-dasharray: 2,3.3; stroke-dashoffset: 0; stroke: #e377c2; stroke-width: 2"/>
    </g>
    <g id="text_26">
     <!-- $n,p=1e+14\ \mathrm{cm}^{-3}$ -->
     <g transform="translate(129.118406 250.293719) scale(0.087 -0.087)">
      <use xlink:href="#DejaVuSans-Oblique-6e" transform="translate(0 0.765625)"/>
      <use xlink:href="#DejaVuSans-2c" transform="translate(63.378906 0.765625)"/>
      <use xlink:href="#DejaVuSans-Oblique-70" transform="translate(114.648438 0.765625)"/>
      <use xlink:href="#DejaVuSans-3d" transform="translate(197.607422 0.765625)"/>
      <use xlink:href="#DejaVuSans-31" transform="translate(300.878906 0.765625)"/>
      <use xlink:href="#DejaVuSans-Oblique-65" transform="translate(364.501953 0.765625)"/>
      <use xlink:href="#DejaVuSans-2b" transform="translate(445.507812 0.765625)"/>
      <use xlink:href="#DejaVuSans-31" transform="translate(548.779297 0.765625)"/>
      <use xlink:href="#DejaVuSans-34" transform="translate(612.402344 0.765625)"/>
      <use xlink:href="#DejaVuSans-63" transform="translate(708.495769 0.765625)"/>
      <use xlink:href="#DejaVuSans-6d" transform="translate(763.476238 0.765625)"/>
      <use xlink:href="#DejaVuSans-2212" transform="translate(861.845378 39.046875) scale(0.7)"/>
      <use xlink:href="#DejaVuSans-33" transform="translate(920.497722 39.046875) scale(0.7)"/>
     </g>
    </g>
   </g>
  </g>
  <g id="text_27">
   <!-- Le curve puntinate descrivono il drogaggio n; le curve continue il drogaggio p. A temperatura elevata il potenziale tende al livello intrinseco. -->
   <g transform="translate(7.2 449.205656) scale(0.1 -0.1)">
    <defs>
     <path id="DejaVuSans-4c" d="M 628 4666 
L 1259 4666 
L 1259 531 
L 3531 531 
L 3531 0 
L 628 0 
L 628 4666 
z
" transform="scale(0.015625)"/>
     <path id="DejaVuSans-3b" d="M 750 3309 
L 1409 3309 
L 1409 2516 
L 750 2516 
L 750 3309 
z
M 750 794 
L 1409 794 
L 1409 256 
L 897 -744 
L 494 -744 
L 750 256 
L 750 794 
z
" transform="scale(0.015625)"/>
     <path id="DejaVuSans-41" d="M 2188 4044 
L 1331 1722 
L 3047 1722 
L 2188 4044 
z
M 1831 4666 
L 2547 4666 
L 4325 0 
L 3669 0 
L 3244 1197 
L 1141 1197 
L 716 0 
L 50 0 
L 1831 4666 
z
" transform="scale(0.015625)"/>
    </defs>
    <use xlink:href="#DejaVuSans-4c"/>
    <use xlink:href="#DejaVuSans-65" transform="translate(53.962891 0)"/>
    <use xlink:href="#DejaVuSans-20" transform="translate(115.486328 0)"/>
    <use xlink:href="#DejaVuSans-63" transform="translate(147.273438 0)"/>
    <use xlink:href="#DejaVuSans-75" transform="translate(202.253906 0)"/>
    <use xlink:href="#DejaVuSans-72" transform="translate(265.632812 0)"/>
    <use xlink:href="#DejaVuSans-76" transform="translate(306.746094 0)"/>
    <use xlink:href="#DejaVuSans-65" transform="translate(365.925781 0)"/>
    <use xlink:href="#DejaVuSans-20" transform="translate(427.449219 0)"/>
    <use xlink:href="#DejaVuSans-70" transform="translate(459.236328 0)"/>
    <use xlink:href="#DejaVuSans-75" transform="translate(522.712891 0)"/>
    <use xlink:href="#DejaVuSans-6e" transform="translate(586.091797 0)"/>
    <use xlink:href="#DejaVuSans-74" transform="translate(649.470703 0)"/>
    <use xlink:href="#DejaVuSans-69" transform="translate(688.679688 0)"/>
    <use xlink:href="#DejaVuSans-6e" transform="translate(716.462891 0)"/>
    <use xlink:href="#DejaVuSans-61" transform="translate(779.841797 0)"/>
    <use xlink:href="#DejaVuSans-74" transform="translate(841.121094 0)"/>
    <use xlink:href="#DejaVuSans-65" transform="translate(880.330078 0)"/>
    <use xlink:href="#DejaVuSans-20" transform="translate(941.853516 0)"/>
    <use xlink:href="#DejaVuSans-64" transform="translate(973.640625 0)"/>
    <use xlink:href="#DejaVuSans-65" transform="translate(1037.117188 0)"/>
    <use xlink:href="#DejaVuSans-73" transform="translate(1098.640625 0)"/>
    <use xlink:href="#DejaVuSans-63" transform="translate(1150.740234 0)"/>
    <use xlink:href="#DejaVuSans-72" transform="translate(1205.720703 0)"/>
    <use xlink:href="#DejaVuSans-69" transform="translate(1246.833984 0)"/>
    <use xlink:href="#DejaVuSans-76" transform="translate(1274.617188 0)"/>
    <use xlink:href="#DejaVuSans-6f" transform="translate(1333.796875 0)"/>
    <use xlink:href="#DejaVuSans-6e" transform="translate(1394.978516 0)"/>
    <use xlink:href="#DejaVuSans-6f" transform="translate(1458.357422 0)"/>
    <use xlink:href="#DejaVuSans-20" transform="translate(1519.539062 0)"/>
    <use xlink:href="#DejaVuSans-69" transform="translate(1551.326172 0)"/>
    <use xlink:href="#DejaVuSans-6c" transform="translate(1579.109375 0)"/>
    <use xlink:href="#DejaVuSans-20" transform="translate(1606.892578 0)"/>
    <use xlink:href="#DejaVuSans-64" transform="translate(1638.679688 0)"/>
    <use xlink:href="#DejaVuSans-72" transform="translate(1702.15625 0)"/>
    <use xlink:href="#DejaVuSans-6f" transform="translate(1741.019531 0)"/>
    <use xlink:href="#DejaVuSans-67" transform="translate(1802.201172 0)"/>
    <use xlink:href="#DejaVuSans-61" transform="translate(1865.677734 0)"/>
    <use xlink:href="#DejaVuSans-67" transform="translate(1926.957031 0)"/>
    <use xlink:href="#DejaVuSans-67" transform="translate(1990.433594 0)"/>
    <use xlink:href="#DejaVuSans-69" transform="translate(2053.910156 0)"/>
    <use xlink:href="#DejaVuSans-6f" transform="translate(2081.693359 0)"/>
    <use xlink:href="#DejaVuSans-20" transform="translate(2142.875 0)"/>
    <use xlink:href="#DejaVuSans-6e" transform="translate(2174.662109 0)"/>
    <use xlink:href="#DejaVuSans-3b" transform="translate(2238.041016 0)"/>
    <use xlink:href="#DejaVuSans-20" transform="translate(2271.732422 0)"/>
    <use xlink:href="#DejaVuSans-6c" transform="translate(2303.519531 0)"/>
    <use xlink:href="#DejaVuSans-65" transform="translate(2331.302734 0)"/>
    <use xlink:href="#DejaVuSans-20" transform="translate(2392.826172 0)"/>
    <use xlink:href="#DejaVuSans-63" transform="translate(2424.613281 0)"/>
    <use xlink:href="#DejaVuSans-75" transform="translate(2479.59375 0)"/>
    <use xlink:href="#DejaVuSans-72" transform="translate(2542.972656 0)"/>
    <use xlink:href="#DejaVuSans-76" transform="translate(2584.085938 0)"/>
    <use xlink:href="#DejaVuSans-65" transform="translate(2643.265625 0)"/>
    <use xlink:href="#DejaVuSans-20" transform="translate(2704.789062 0)"/>
    <use xlink:href="#DejaVuSans-63" transform="translate(2736.576172 0)"/>
    <use xlink:href="#DejaVuSans-6f" transform="translate(2791.556641 0)"/>
    <use xlink:href="#DejaVuSans-6e" transform="translate(2852.738281 0)"/>
    <use xlink:href="#DejaVuSans-74" transform="translate(2916.117188 0)"/>
    <use xlink:href="#DejaVuSans-69" transform="translate(2955.326172 0)"/>
    <use xlink:href="#DejaVuSans-6e" transform="translate(2983.109375 0)"/>
    <use xlink:href="#DejaVuSans-75" transform="translate(3046.488281 0)"/>
    <use xlink:href="#DejaVuSans-65" transform="translate(3109.867188 0)"/>
    <use xlink:href="#DejaVuSans-20" transform="translate(3171.390625 0)"/>
    <use xlink:href="#DejaVuSans-69" transform="translate(3203.177734 0)"/>
    <use xlink:href="#DejaVuSans-6c" transform="translate(3230.960938 0)"/>
    <use xlink:href="#DejaVuSans-20" transform="translate(3258.744141 0)"/>
    <use xlink:href="#DejaVuSans-64" transform="translate(3290.53125 0)"/>
    <use xlink:href="#DejaVuSans-72" transform="translate(3354.007812 0)"/>
    <use xlink:href="#DejaVuSans-6f" transform="translate(3392.871094 0)"/>
    <use xlink:href="#DejaVuSans-67" transform="translate(3454.052734 0)"/>
    <use xlink:href="#DejaVuSans-61" transform="translate(3517.529297 0)"/>
    <use xlink:href="#DejaVuSans-67" transform="translate(3578.808594 0)"/>
    <use xlink:href="#DejaVuSans-67" transform="translate(3642.285156 0)"/>
    <use xlink:href="#DejaVuSans-69" transform="translate(3705.761719 0)"/>
    <use xlink:href="#DejaVuSans-6f" transform="translate(3733.544922 0)"/>
    <use xlink:href="#DejaVuSans-20" transform="translate(3794.726562 0)"/>
    <use xlink:href="#DejaVuSans-70" transform="translate(3826.513672 0)"/>
    <use xlink:href="#DejaVuSans-2e" transform="translate(3889.990234 0)"/>
    <use xlink:href="#DejaVuSans-20" transform="translate(3921.777344 0)"/>
    <use xlink:href="#DejaVuSans-41" transform="translate(3953.564453 0)"/>
    <use xlink:href="#DejaVuSans-20" transform="translate(4021.972656 0)"/>
    <use xlink:href="#DejaVuSans-74" transform="translate(4053.759766 0)"/>
    <use xlink:href="#DejaVuSans-65" transform="translate(4092.96875 0)"/>
    <use xlink:href="#DejaVuSans-6d" transform="translate(4154.492188 0)"/>
    <use xlink:href="#DejaVuSans-70" transform="translate(4251.904297 0)"/>
    <use xlink:href="#DejaVuSans-65" transform="translate(4315.380859 0)"/>
    <use xlink:href="#DejaVuSans-72" transform="translate(4376.904297 0)"/>
    <use xlink:href="#DejaVuSans-61" transform="translate(4418.017578 0)"/>
    <use xlink:href="#DejaVuSans-74" transform="translate(4479.296875 0)"/>
    <use xlink:href="#DejaVuSans-75" transform="translate(4518.505859 0)"/>
    <use xlink:href="#DejaVuSans-72" transform="translate(4581.884766 0)"/>
    <use xlink:href="#DejaVuSans-61" transform="translate(4622.998047 0)"/>
    <use xlink:href="#DejaVuSans-20" transform="translate(4684.277344 0)"/>
    <use xlink:href="#DejaVuSans-65" transform="translate(4716.064453 0)"/>
    <use xlink:href="#DejaVuSans-6c" transform="translate(4777.587891 0)"/>
    <use xlink:href="#DejaVuSans-65" transform="translate(4805.371094 0)"/>
    <use xlink:href="#DejaVuSans-76" transform="translate(4866.894531 0)"/>
    <use xlink:href="#DejaVuSans-61" transform="translate(4926.074219 0)"/>
    <use xlink:href="#DejaVuSans-74" transform="translate(4987.353516 0)"/>
    <use xlink:href="#DejaVuSans-61" transform="translate(5026.5625 0)"/>
    <use xlink:href="#DejaVuSans-20" transform="translate(5087.841797 0)"/>
    <use xlink:href="#DejaVuSans-69" transform="translate(5119.628906 0)"/>
    <use xlink:href="#DejaVuSans-6c" transform="translate(5147.412109 0)"/>
    <use xlink:href="#DejaVuSans-20" transform="translate(5175.195312 0)"/>
    <use xlink:href="#DejaVuSans-70" transform="translate(5206.982422 0)"/>
    <use xlink:href="#DejaVuSans-6f" transform="translate(5270.458984 0)"/>
    <use xlink:href="#DejaVuSans-74" transform="translate(5331.640625 0)"/>
    <use xlink:href="#DejaVuSans-65" transform="translate(5370.849609 0)"/>
    <use xlink:href="#DejaVuSans-6e" transform="translate(5432.373047 0)"/>
    <use xlink:href="#DejaVuSans-7a" transform="translate(5495.751953 0)"/>
    <use xlink:href="#DejaVuSans-69" transform="translate(5548.242188 0)"/>
    <use xlink:href="#DejaVuSans-61" transform="translate(5576.025391 0)"/>
    <use xlink:href="#DejaVuSans-6c" transform="translate(5637.304688 0)"/>
    <use xlink:href="#DejaVuSans-65" transform="translate(5665.087891 0)"/>
    <use xlink:href="#DejaVuSans-20" transform="translate(5726.611328 0)"/>
    <use xlink:href="#DejaVuSans-74" transform="translate(5758.398438 0)"/>
    <use xlink:href="#DejaVuSans-65" transform="translate(5797.607422 0)"/>
    <use xlink:href="#DejaVuSans-6e" transform="translate(5859.130859 0)"/>
    <use xlink:href="#DejaVuSans-64" transform="translate(5922.509766 0)"/>
    <use xlink:href="#DejaVuSans-65" transform="translate(5985.986328 0)"/>
    <use xlink:href="#DejaVuSans-20" transform="translate(6047.509766 0)"/>
    <use xlink:href="#DejaVuSans-61" transform="translate(6079.296875 0)"/>
    <use xlink:href="#DejaVuSans-6c" transform="translate(6140.576172 0)"/>
    <use xlink:href="#DejaVuSans-20" transform="translate(6168.359375 0)"/>
    <use xlink:href="#DejaVuSans-6c" transform="translate(6200.146484 0)"/>
    <use xlink:href="#DejaVuSans-69" transform="translate(6227.929688 0)"/>
    <use xlink:href="#DejaVuSans-76" transform="translate(6255.712891 0)"/>
    <use xlink:href="#DejaVuSans-65" transform="translate(6314.892578 0)"/>
    <use xlink:href="#DejaVuSans-6c" transform="translate(6376.416016 0)"/>
    <use xlink:href="#DejaVuSans-6c" transform="translate(6404.199219 0)"/>
    <use xlink:href="#DejaVuSans-6f" transform="translate(6431.982422 0)"/>
    <use xlink:href="#DejaVuSans-20" transform="translate(6493.164062 0)"/>
    <use xlink:href="#DejaVuSans-69" transform="translate(6524.951172 0)"/>
    <use xlink:href="#DejaVuSans-6e" transform="translate(6552.734375 0)"/>
    <use xlink:href="#DejaVuSans-74" transform="translate(6616.113281 0)"/>
    <use xlink:href="#DejaVuSans-72" transform="translate(6655.322266 0)"/>
    <use xlink:href="#DejaVuSans-69" transform="translate(6696.435547 0)"/>
    <use xlink:href="#DejaVuSans-6e" transform="translate(6724.21875 0)"/>
    <use xlink:href="#DejaVuSans-73" transform="translate(6787.597656 0)"/>
    <use xlink:href="#DejaVuSans-65" transform="translate(6839.697266 0)"/>
    <use xlink:href="#DejaVuSans-63" transform="translate(6901.220703 0)"/>
    <use xlink:href="#DejaVuSans-6f" transform="translate(6956.201172 0)"/>
    <use xlink:href="#DejaVuSans-2e" transform="translate(7015.632812 0)"/>
   </g>
  </g>
 </g>
 <defs>
  <clipPath id="pdf4f916baf">
   <rect x="84.172656" y="30.597656" width="569.16" height="376.992"/>
  </clipPath>
 </defs>
</svg>
