<?xml version="1.0" encoding="utf-8" standalone="no"?>
<!DOCTYPE svg PUBLIC "-//W3C//DTD SVG 1.1//EN"
  "http://www.w3.org/Graphics/SVG/1.1/DTD/svg11.dtd">
<svg xmlns:xlink="http://www.w3.org/1999/xlink" width="709.154375pt" height="422.28541pt" viewBox="0 0 709.154375 422.28541" xmlns="http://www.w3.org/2000/svg" version="1.1">
 <metadata>
  <rdf:RDF xmlns:dc="http://purl.org/dc/elements/1.1/" xmlns:cc="http://creativecommons.org/ns#" xmlns:rdf="http://www.w3.org/1999/02/22-rdf-syntax-ns#">
   <cc:Work>
    <dc:type rdf:resource="http://purl.org/dc/dcmitype/StillImage"/>
    <dc:date>2026-06-16T12:05:01.050247</dc:date>
    <dc:format>image/svg+xml</dc:format>
    <dc:creator>
     <cc:Agent>
      <dc:title>Matplotlib v3.10.8, https://matplotlib.org/</dc:title>
     </cc:Agent>
    </dc:creator>
   </cc:Work>
  </rdf:RDF>
 </metadata>
 <defs>
  <style type="text/css">*{stroke-linejoin: round; stroke-linecap: butt}</style>
 </defs>
 <g id="figure_1">
  <g id="patch_1">
   <path d="M 0 422.28541 
L 709.154375 422.28541 
L 709.154375 0 
L 0 0 
z
" style="fill: #ffffff"/>
  </g>
  <g id="axes_1">
   <g id="patch_2">
    <path d="M 215.894871 290.78245 
L 633.33421 290.78245 
L 633.33421 124.950384 
L 215.894871 124.950384 
L 215.894871 290.78245 
z
" clip-path="url(#pd7ff953e83)" style="fill: none; stroke: #000000; stroke-width: 1.5; stroke-linejoin: miter"/>
   </g>
   <g id="line2d_1">
    <path d="M 32.907763 265.049888 
L 35.703909 260.792677 
L 37.4515 258.51941 
L 38.849573 257.068272 
L 39.898128 256.244533 
L 40.946682 255.674616 
L 41.995237 255.374947 
L 43.043792 255.354166 
L 44.092346 255.61287 
L 45.140901 256.143604 
L 46.189455 256.931067 
L 47.587528 258.340156 
L 48.985601 260.092447 
L 51.08271 263.164634 
L 55.626447 270.059876 
L 57.02452 271.803772 
L 58.422593 273.202208 
L 59.471147 273.980524 
L 60.519702 274.501408 
L 61.568257 274.749845 
L 62.616811 274.718674 
L 63.665366 274.408793 
L 64.713921 273.829134 
L 65.762475 272.996408 
L 67.160548 271.5349 
L 68.558621 269.741685 
L 70.65573 266.634055 
L 74.849949 260.25126 
L 76.59754 258.079289 
L 77.995613 256.73494 
L 79.044167 256.002818 
L 80.092722 255.531484 
L 81.141276 255.334525 
L 82.189831 255.417618 
L 83.238386 255.778368 
L 84.28694 256.406377 
L 85.335495 257.283541 
L 86.733568 258.796019 
L 88.481159 261.125765 
L 90.927786 264.866291 
L 94.07345 269.634112 
L 95.821041 271.847657 
L 97.219114 273.235385 
L 98.267669 274.004522 
L 99.316223 274.515536 
L 100.364778 274.753695 
L 101.413333 274.712136 
L 102.461887 274.392055 
L 103.510442 273.802679 
L 104.558996 272.960998 
L 105.957069 271.489178 
L 107.355142 269.68799 
L 109.452251 266.573639 
L 113.64647 260.198129 
L 115.394061 258.036768 
L 116.792134 256.703399 
L 117.840688 255.980604 
L 118.889243 255.519237 
L 119.937798 255.332599 
L 120.986352 255.426068 
L 122.034907 255.796951 
L 123.083462 256.434556 
L 124.132016 257.320505 
L 125.530089 258.842999 
L 127.27768 261.181837 
L 129.724308 264.927486 
L 132.869971 269.68799 
L 134.617563 271.891273 
L 136.015635 273.268237 
L 137.06419 274.028166 
L 138.112745 274.529289 
L 139.161299 274.757161 
L 140.209854 274.705215 
L 141.258409 274.374947 
L 142.306963 273.775877 
L 143.355518 272.925274 
L 144.753591 271.443201 
L 146.151663 269.634112 
L 148.248773 266.513163 
L 152.442991 260.145191 
L 153.841064 258.384575 
L 155.239137 256.964889 
L 156.287692 256.168309 
L 157.336246 255.627747 
L 158.384801 255.358785 
L 159.433355 255.369176 
L 160.48191 255.65862 
L 161.530465 256.218775 
L 162.579019 257.033493 
L 163.977092 258.474204 
L 165.375165 260.25126 
L 167.472274 263.345081 
L 171.666493 269.741685 
L 173.414084 271.934618 
L 174.812157 273.300764 
L 175.860711 274.051453 
L 176.909266 274.542666 
L 177.957821 274.760243 
L 179.006375 274.697911 
L 180.05493 274.357469 
L 181.103484 273.748728 
L 182.152039 272.889238 
L 183.550112 271.39697 
L 185.297703 269.085685 
L 187.74433 265.355849 
L 190.889994 260.573964 
L 192.637585 258.340156 
L 194.035658 256.931067 
L 195.084213 256.143604 
L 196.132767 255.61287 
L 197.181322 255.354166 
L 198.229877 255.374947 
L 199.278431 255.674616 
L 200.326986 256.244533 
L 201.375541 257.068272 
L 202.773613 258.51941 
L 204.171686 260.304581 
L 206.268796 263.405368 
L 207.31735 265.049888 
L 207.31735 265.049888 
" clip-path="url(#pd7ff953e83)" style="fill: none; stroke: #1f77b4; stroke-width: 1.2; stroke-linecap: square"/>
   </g>
   <g id="line2d_2">
    <path d="M 32.907763 236.458152 
L 35.703909 232.200942 
L 37.4515 229.927674 
L 38.849573 228.476536 
L 39.898128 227.652798 
L 40.946682 227.08288 
L 41.995237 226.783212 
L 43.043792 226.76243 
L 44.092346 227.021135 
L 45.140901 227.551868 
L 46.189455 228.339332 
L 47.587528 229.748421 
L 48.985601 231.500711 
L 51.08271 234.572898 
L 55.626447 241.468141 
L 57.02452 243.212036 
L 58.422593 244.610473 
L 59.471147 245.388788 
L 60.519702 245.909672 
L 61.568257 246.158109 
L 62.616811 246.126938 
L 63.665366 245.817057 
L 64.713921 245.237399 
L 65.762475 244.404673 
L 67.160548 242.943165 
L 68.558621 241.14995 
L 70.65573 238.042319 
L 74.849949 231.659524 
L 76.59754 229.487553 
L 77.995613 228.143205 
L 79.044167 227.411083 
L 80.092722 226.939749 
L 81.141276 226.742789 
L 82.189831 226.825883 
L 83.238386 227.186633 
L 84.28694 227.814641 
L 85.335495 228.691805 
L 86.733568 230.204284 
L 88.481159 232.534029 
L 90.927786 236.274556 
L 94.07345 241.042376 
L 95.821041 243.255922 
L 97.219114 244.643649 
L 98.267669 245.412787 
L 99.316223 245.9238 
L 100.364778 246.16196 
L 101.413333 246.1204 
L 102.461887 245.800319 
L 103.510442 245.210943 
L 104.558996 244.369262 
L 105.957069 242.897443 
L 107.355142 241.096255 
L 109.452251 237.981904 
L 113.64647 231.606394 
L 115.394061 229.445032 
L 116.792134 228.111663 
L 117.840688 227.388868 
L 118.889243 226.927502 
L 119.937798 226.740863 
L 120.986352 226.834332 
L 122.034907 227.205215 
L 123.083462 227.842821 
L 124.132016 228.728769 
L 125.530089 230.251264 
L 127.27768 232.590101 
L 129.724308 236.33575 
L 132.869971 241.096255 
L 134.617563 243.299538 
L 136.015635 244.676502 
L 137.06419 245.43643 
L 138.112745 245.937553 
L 139.161299 246.165426 
L 140.209854 246.113479 
L 141.258409 245.783211 
L 142.306963 245.184141 
L 143.355518 244.333538 
L 144.753591 242.851465 
L 146.151663 241.042376 
L 148.248773 237.921428 
L 152.442991 231.553455 
L 153.841064 229.79284 
L 155.239137 228.373153 
L 156.287692 227.576573 
L 157.336246 227.036011 
L 158.384801 226.767049 
L 159.433355 226.77744 
L 160.48191 227.066885 
L 161.530465 227.627039 
L 162.579019 228.441757 
L 163.977092 229.882468 
L 165.375165 231.659524 
L 167.472274 234.753345 
L 171.666493 241.14995 
L 173.414084 243.342882 
L 174.812157 244.709028 
L 175.860711 245.459718 
L 176.909266 245.950931 
L 177.957821 246.168507 
L 179.006375 246.106176 
L 180.05493 245.765733 
L 181.103484 245.156993 
L 182.152039 244.297502 
L 183.550112 242.805235 
L 185.297703 240.49395 
L 187.74433 236.764114 
L 190.889994 231.982229 
L 192.637585 229.748421 
L 194.035658 228.339332 
L 195.084213 227.551868 
L 196.132767 227.021135 
L 197.181322 226.76243 
L 198.229877 226.783212 
L 199.278431 227.08288 
L 200.326986 227.652798 
L 201.375541 228.476536 
L 202.773613 229.927674 
L 204.171686 231.712845 
L 206.268796 234.813633 
L 207.31735 236.458152 
L 207.31735 236.458152 
" clip-path="url(#pd7ff953e83)" style="fill: none; stroke: #ff7f0e; stroke-width: 1.2; stroke-linecap: square"/>
   </g>
   <g id="line2d_3">
    <path d="M 32.907763 207.866417 
L 35.703909 203.609206 
L 37.4515 201.335939 
L 38.849573 199.884801 
L 39.898128 199.061062 
L 40.946682 198.491145 
L 41.995237 198.191476 
L 43.043792 198.170694 
L 44.092346 198.429399 
L 45.140901 198.960133 
L 46.189455 199.747596 
L 47.587528 201.156685 
L 48.985601 202.908976 
L 51.08271 205.981163 
L 55.626447 212.876405 
L 57.02452 214.620301 
L 58.422593 216.018737 
L 59.471147 216.797053 
L 60.519702 217.317937 
L 61.568257 217.566374 
L 62.616811 217.535203 
L 63.665366 217.225322 
L 64.713921 216.645663 
L 65.762475 215.812937 
L 67.160548 214.351429 
L 68.558621 212.558214 
L 70.65573 209.450583 
L 74.849949 203.067789 
L 76.59754 200.895818 
L 77.995613 199.551469 
L 79.044167 198.819347 
L 80.092722 198.348013 
L 81.141276 198.151054 
L 82.189831 198.234147 
L 83.238386 198.594897 
L 84.28694 199.222906 
L 85.335495 200.10007 
L 86.733568 201.612548 
L 88.481159 203.942294 
L 90.927786 207.68282 
L 94.07345 212.450641 
L 95.821041 214.664186 
L 97.219114 216.051914 
L 98.267669 216.821051 
L 99.316223 217.332065 
L 100.364778 217.570224 
L 101.413333 217.528665 
L 102.461887 217.208584 
L 103.510442 216.619208 
L 104.558996 215.777527 
L 105.957069 214.305707 
L 107.355142 212.504519 
L 109.452251 209.390168 
L 113.64647 203.014658 
L 115.394061 200.853297 
L 116.792134 199.519928 
L 117.840688 198.797133 
L 118.889243 198.335766 
L 119.937798 198.149128 
L 120.986352 198.242597 
L 122.034907 198.61348 
L 123.083462 199.251085 
L 124.132016 200.137034 
L 125.530089 201.659528 
L 127.27768 203.998366 
L 129.724308 207.744015 
L 132.869971 212.504519 
L 134.617563 214.707802 
L 136.015635 216.084766 
L 137.06419 216.844695 
L 138.112745 217.345818 
L 139.161299 217.57369 
L 140.209854 217.521744 
L 141.258409 217.191475 
L 142.306963 216.592406 
L 143.355518 215.741803 
L 144.753591 214.25973 
L 146.151663 212.450641 
L 148.248773 209.329692 
L 152.442991 202.96172 
L 153.841064 201.201104 
L 155.239137 199.781418 
L 156.287692 198.984838 
L 157.336246 198.444276 
L 158.384801 198.175314 
L 159.433355 198.185705 
L 160.48191 198.475149 
L 161.530465 199.035304 
L 162.579019 199.850021 
L 163.977092 201.290733 
L 165.375165 203.067789 
L 167.472274 206.16161 
L 171.666493 212.558214 
L 173.414084 214.751147 
L 174.812157 216.117293 
L 175.860711 216.867982 
L 176.909266 217.359195 
L 177.957821 217.576772 
L 179.006375 217.51444 
L 180.05493 217.173998 
L 181.103484 216.565257 
L 182.152039 215.705767 
L 183.550112 214.213499 
L 185.297703 211.902214 
L 187.74433 208.172378 
L 190.889994 203.390493 
L 192.637585 201.156685 
L 194.035658 199.747596 
L 195.084213 198.960133 
L 196.132767 198.429399 
L 197.181322 198.170694 
L 198.229877 198.191476 
L 199.278431 198.491145 
L 200.326986 199.061062 
L 201.375541 199.884801 
L 202.773613 201.335939 
L 204.171686 203.12111 
L 206.268796 206.221897 
L 207.31735 207.866417 
L 207.31735 207.866417 
" clip-path="url(#pd7ff953e83)" style="fill: none; stroke: #2ca02c; stroke-width: 1.2; stroke-linecap: square"/>
   </g>
   <g id="line2d_4">
    <path d="M 32.907763 179.274681 
L 35.703909 175.017471 
L 37.4515 172.744203 
L 38.849573 171.293065 
L 39.898128 170.469327 
L 40.946682 169.899409 
L 41.995237 169.59974 
L 43.043792 169.578959 
L 44.092346 169.837664 
L 45.140901 170.368397 
L 46.189455 171.155861 
L 47.587528 172.56495 
L 48.985601 174.31724 
L 51.08271 177.389427 
L 55.626447 184.28467 
L 57.02452 186.028565 
L 58.422593 187.427001 
L 59.471147 188.205317 
L 60.519702 188.726201 
L 61.568257 188.974638 
L 62.616811 188.943467 
L 63.665366 188.633586 
L 64.713921 188.053928 
L 65.762475 187.221202 
L 67.160548 185.759694 
L 68.558621 183.966479 
L 70.65573 180.858848 
L 74.849949 174.476053 
L 76.59754 172.304082 
L 77.995613 170.959734 
L 79.044167 170.227612 
L 80.092722 169.756277 
L 81.141276 169.559318 
L 82.189831 169.642411 
L 83.238386 170.003162 
L 84.28694 170.63117 
L 85.335495 171.508334 
L 86.733568 173.020813 
L 88.481159 175.350558 
L 90.927786 179.091085 
L 94.07345 183.858905 
L 95.821041 186.072451 
L 97.219114 187.460178 
L 98.267669 188.229316 
L 99.316223 188.740329 
L 100.364778 188.978489 
L 101.413333 188.936929 
L 102.461887 188.616848 
L 103.510442 188.027472 
L 104.558996 187.185791 
L 105.957069 185.713972 
L 107.355142 183.912784 
L 109.452251 180.798433 
L 113.64647 174.422922 
L 115.394061 172.261561 
L 116.792134 170.928192 
L 117.840688 170.205397 
L 118.889243 169.744031 
L 119.937798 169.557392 
L 120.986352 169.650861 
L 122.034907 170.021744 
L 123.083462 170.65935 
L 124.132016 171.545298 
L 125.530089 173.067793 
L 127.27768 175.40663 
L 129.724308 179.152279 
L 132.869971 183.912784 
L 134.617563 186.116066 
L 136.015635 187.493031 
L 137.06419 188.252959 
L 138.112745 188.754082 
L 139.161299 188.981955 
L 140.209854 188.930008 
L 141.258409 188.59974 
L 142.306963 188.00067 
L 143.355518 187.150067 
L 144.753591 185.667994 
L 146.151663 183.858905 
L 148.248773 180.737957 
L 152.442991 174.369984 
L 153.841064 172.609369 
L 155.239137 171.189682 
L 156.287692 170.393102 
L 157.336246 169.85254 
L 158.384801 169.583578 
L 159.433355 169.593969 
L 160.48191 169.883414 
L 161.530465 170.443568 
L 162.579019 171.258286 
L 163.977092 172.698997 
L 165.375165 174.476053 
L 167.472274 177.569874 
L 171.666493 183.966479 
L 173.414084 186.159411 
L 174.812157 187.525557 
L 175.860711 188.276247 
L 176.909266 188.76746 
L 177.957821 188.985036 
L 179.006375 188.922705 
L 180.05493 188.582262 
L 181.103484 187.973522 
L 182.152039 187.114031 
L 183.550112 185.621764 
L 185.297703 183.310479 
L 187.74433 179.580643 
L 190.889994 174.798758 
L 192.637585 172.56495 
L 194.035658 171.155861 
L 195.084213 170.368397 
L 196.132767 169.837664 
L 197.181322 169.578959 
L 198.229877 169.59974 
L 199.278431 169.899409 
L 200.326986 170.469327 
L 201.375541 171.293065 
L 202.773613 172.744203 
L 204.171686 174.529374 
L 206.268796 177.630162 
L 207.31735 179.274681 
L 207.31735 179.274681 
" clip-path="url(#pd7ff953e83)" style="fill: none; stroke: #d62728; stroke-width: 1.2; stroke-linecap: square"/>
   </g>
   <g id="line2d_5">
    <path d="M 32.907763 150.682946 
L 35.703909 146.425735 
L 37.4515 144.152468 
L 38.849573 142.70133 
L 39.898128 141.877591 
L 40.946682 141.307674 
L 41.995237 141.008005 
L 43.043792 140.987223 
L 44.092346 141.245928 
L 45.140901 141.776662 
L 46.189455 142.564125 
L 47.587528 143.973214 
L 48.985601 145.725504 
L 51.08271 148.797692 
L 55.626447 155.692934 
L 57.02452 157.43683 
L 58.422593 158.835266 
L 59.471147 159.613582 
L 60.519702 160.134466 
L 61.568257 160.382903 
L 62.616811 160.351731 
L 63.665366 160.04185 
L 64.713921 159.462192 
L 65.762475 158.629466 
L 67.160548 157.167958 
L 68.558621 155.374743 
L 70.65573 152.267112 
L 74.849949 145.884318 
L 76.59754 143.712346 
L 77.995613 142.367998 
L 79.044167 141.635876 
L 80.092722 141.164542 
L 81.141276 140.967583 
L 82.189831 141.050676 
L 83.238386 141.411426 
L 84.28694 142.039435 
L 85.335495 142.916599 
L 86.733568 144.429077 
L 88.481159 146.758823 
L 90.927786 150.499349 
L 94.07345 155.267169 
L 95.821041 157.480715 
L 97.219114 158.868443 
L 98.267669 159.63758 
L 99.316223 160.148594 
L 100.364778 160.386753 
L 101.413333 160.345194 
L 102.461887 160.025113 
L 103.510442 159.435737 
L 104.558996 158.594056 
L 105.957069 157.122236 
L 107.355142 155.321048 
L 109.452251 152.206697 
L 113.64647 145.831187 
L 115.394061 143.669826 
L 116.792134 142.336457 
L 117.840688 141.613662 
L 118.889243 141.152295 
L 119.937798 140.965656 
L 120.986352 141.059126 
L 122.034907 141.430009 
L 123.083462 142.067614 
L 124.132016 142.953563 
L 125.530089 144.476057 
L 127.27768 146.814895 
L 129.724308 150.560544 
L 132.869971 155.321048 
L 134.617563 157.524331 
L 136.015635 158.901295 
L 137.06419 159.661224 
L 138.112745 160.162347 
L 139.161299 160.390219 
L 140.209854 160.338273 
L 141.258409 160.008004 
L 142.306963 159.408934 
L 143.355518 158.558332 
L 144.753591 157.076259 
L 146.151663 155.267169 
L 148.248773 152.146221 
L 152.442991 145.778249 
L 153.841064 144.017633 
L 155.239137 142.597947 
L 156.287692 141.801367 
L 157.336246 141.260805 
L 158.384801 140.991843 
L 159.433355 141.002234 
L 160.48191 141.291678 
L 161.530465 141.851833 
L 162.579019 142.66655 
L 163.977092 144.107262 
L 165.375165 145.884318 
L 167.472274 148.978139 
L 171.666493 155.374743 
L 173.414084 157.567676 
L 174.812157 158.933822 
L 175.860711 159.684511 
L 176.909266 160.175724 
L 177.957821 160.393301 
L 179.006375 160.330969 
L 180.05493 159.990527 
L 181.103484 159.381786 
L 182.152039 158.522295 
L 183.550112 157.030028 
L 185.297703 154.718743 
L 187.74433 150.988907 
L 190.889994 146.207022 
L 192.637585 143.973214 
L 194.035658 142.564125 
L 195.084213 141.776662 
L 196.132767 141.245928 
L 197.181322 140.987223 
L 198.229877 141.008005 
L 199.278431 141.307674 
L 200.326986 141.877591 
L 201.375541 142.70133 
L 202.773613 144.152468 
L 204.171686 145.937639 
L 206.268796 149.038426 
L 207.31735 150.682946 
L 207.31735 150.682946 
" clip-path="url(#pd7ff953e83)" style="fill: none; stroke: #9467bd; stroke-width: 1.2; stroke-linecap: square"/>
   </g>
   <g id="line2d_6">
    <path d="M 222.756887 163.523566 
L 228.180727 169.661968 
L 233.604567 175.471799 
L 239.028407 180.970647 
L 244.452247 186.175158 
L 250.418471 191.578939 
L 256.384695 196.665412 
L 262.350919 201.45321 
L 268.317143 205.959871 
L 274.283367 210.201902 
L 280.791975 214.545998 
L 287.300583 218.612578 
L 293.809191 222.419371 
L 300.317799 225.982971 
L 307.368791 229.587098 
L 314.419783 232.942471 
L 322.013159 236.297423 
L 329.606535 239.403683 
L 337.199911 242.279686 
L 345.33567 245.124968 
L 354.013814 247.911979 
L 362.691958 250.464163 
L 371.912486 252.940658 
L 381.675398 255.322262 
L 391.43831 257.479332 
L 401.743606 259.536009 
L 412.591286 261.480807 
L 424.523734 263.386885 
L 436.998566 265.1477 
L 450.015782 266.762346 
L 464.117766 268.286977 
L 479.304518 269.702447 
L 495.576037 270.995574 
L 513.474709 272.191979 
L 533.000533 273.271804 
L 554.695893 274.245646 
L 579.103173 275.113273 
L 601.883301 275.750506 
L 601.883301 275.750506 
" clip-path="url(#pd7ff953e83)" style="fill: none; stroke: #8c564b; stroke-width: 2.8; stroke-linecap: square"/>
   </g>
   <g id="line2d_7">
    <path d="M 338.839334 289.295679 
L 338.839334 103.563765 
" clip-path="url(#pd7ff953e83)" style="fill: none; stroke: #1f77b4; stroke-linecap: square"/>
   </g>
   <g id="line2d_8">
    <path d="M 371.433912 289.295679 
L 371.433912 103.563765 
" clip-path="url(#pd7ff953e83)" style="fill: none; stroke: #1f77b4; stroke-linecap: square"/>
   </g>
   <g id="patch_3">
    <path d="M 192.164289 265.049888 
Q 201.59999 265.049888 209.917657 265.049888 
" style="fill: none; stroke: #000000; stroke-linecap: round"/>
    <path d="M 205.917657 263.049888 
L 209.917657 265.049888 
L 205.917657 267.049888 
z
" style="fill: #1f77b4; stroke: #000000; stroke-linecap: round"/>
   </g>
   <g id="patch_4">
    <path d="M 192.164289 236.458152 
Q 201.59999 236.458152 209.917657 236.458152 
" style="fill: none; stroke: #000000; stroke-linecap: round"/>
    <path d="M 205.917657 234.458152 
L 209.917657 236.458152 
L 205.917657 238.458152 
z
" style="fill: #1f77b4; stroke: #000000; stroke-linecap: round"/>
   </g>
   <g id="patch_5">
    <path d="M 192.164289 207.866417 
Q 201.59999 207.866417 209.917657 207.866417 
" style="fill: none; stroke: #000000; stroke-linecap: round"/>
    <path d="M 205.917657 205.866417 
L 209.917657 207.866417 
L 205.917657 209.866417 
z
" style="fill: #1f77b4; stroke: #000000; stroke-linecap: round"/>
   </g>
   <g id="patch_6">
    <path d="M 192.164289 179.274681 
Q 201.59999 179.274681 209.917657 179.274681 
" style="fill: none; stroke: #000000; stroke-linecap: round"/>
    <path d="M 205.917657 177.274681 
L 209.917657 179.274681 
L 205.917657 181.274681 
z
" style="fill: #1f77b4; stroke: #000000; stroke-linecap: round"/>
   </g>
   <g id="patch_7">
    <path d="M 192.164289 150.682946 
Q 201.59999 150.682946 209.917657 150.682946 
" style="fill: none; stroke: #000000; stroke-linecap: round"/>
    <path d="M 205.917657 148.682946 
L 209.917657 150.682946 
L 205.917657 152.682946 
z
" style="fill: #1f77b4; stroke: #000000; stroke-linecap: round"/>
   </g>
   <g id="text_1">
    <!-- radiazione monocromatica incidente -->
    <g transform="translate(10.126366 104.936169) scale(0.1 -0.1)">
     <defs>
      <path id="DejaVuSans-72" d="M 2631 2963 
Q 2534 3019 2420 3045 
Q 2306 3072 2169 3072 
Q 1681 3072 1420 2755 
Q 1159 2438 1159 1844 
L 1159 0 
L 581 0 
L 581 3500 
L 1159 3500 
L 1159 2956 
Q 1341 3275 1631 3429 
Q 1922 3584 2338 3584 
Q 2397 3584 2469 3576 
Q 2541 3569 2628 3553 
L 2631 2963 
z
" transform="scale(0.015625)"/>
      <path id="DejaVuSans-61" d="M 2194 1759 
Q 1497 1759 1228 1600 
Q 959 1441 959 1056 
Q 959 750 1161 570 
Q 1363 391 1709 391 
Q 2188 391 2477 730 
Q 2766 1069 2766 1631 
L 2766 1759 
L 2194 1759 
z
M 3341 1997 
L 3341 0 
L 2766 0 
L 2766 531 
Q 2569 213 2275 61 
Q 1981 -91 1556 -91 
Q 1019 -91 701 211 
Q 384 513 384 1019 
Q 384 1609 779 1909 
Q 1175 2209 1959 2209 
L 2766 2209 
L 2766 2266 
Q 2766 2663 2505 2880 
Q 2244 3097 1772 3097 
Q 1472 3097 1187 3025 
Q 903 2953 641 2809 
L 641 3341 
Q 956 3463 1253 3523 
Q 1550 3584 1831 3584 
Q 2591 3584 2966 3190 
Q 3341 2797 3341 1997 
z
" transform="scale(0.015625)"/>
      <path id="DejaVuSans-64" d="M 2906 2969 
L 2906 4863 
L 3481 4863 
L 3481 0 
L 2906 0 
L 2906 525 
Q 2725 213 2448 61 
Q 2172 -91 1784 -91 
Q 1150 -91 751 415 
Q 353 922 353 1747 
Q 353 2572 751 3078 
Q 1150 3584 1784 3584 
Q 2172 3584 2448 3432 
Q 2725 3281 2906 2969 
z
M 947 1747 
Q 947 1113 1208 752 
Q 1469 391 1925 391 
Q 2381 391 2643 752 
Q 2906 1113 2906 1747 
Q 2906 2381 2643 2742 
Q 2381 3103 1925 3103 
Q 1469 3103 1208 2742 
Q 947 2381 947 1747 
z
" transform="scale(0.015625)"/>
      <path id="DejaVuSans-69" d="M 603 3500 
L 1178 3500 
L 1178 0 
L 603 0 
L 603 3500 
z
M 603 4863 
L 1178 4863 
L 1178 4134 
L 603 4134 
L 603 4863 
z
" transform="scale(0.015625)"/>
      <path id="DejaVuSans-7a" d="M 353 3500 
L 3084 3500 
L 3084 2975 
L 922 459 
L 3084 459 
L 3084 0 
L 275 0 
L 275 525 
L 2438 3041 
L 353 3041 
L 353 3500 
z
" transform="scale(0.015625)"/>
      <path id="DejaVuSans-6f" d="M 1959 3097 
Q 1497 3097 1228 2736 
Q 959 2375 959 1747 
Q 959 1119 1226 758 
Q 1494 397 1959 397 
Q 2419 397 2687 759 
Q 2956 1122 2956 1747 
Q 2956 2369 2687 2733 
Q 2419 3097 1959 3097 
z
M 1959 3584 
Q 2709 3584 3137 3096 
Q 3566 2609 3566 1747 
Q 3566 888 3137 398 
Q 2709 -91 1959 -91 
Q 1206 -91 779 398 
Q 353 888 353 1747 
Q 353 2609 779 3096 
Q 1206 3584 1959 3584 
z
" transform="scale(0.015625)"/>
      <path id="DejaVuSans-6e" d="M 3513 2113 
L 3513 0 
L 2938 0 
L 2938 2094 
Q 2938 2591 2744 2837 
Q 2550 3084 2163 3084 
Q 1697 3084 1428 2787 
Q 1159 2491 1159 1978 
L 1159 0 
L 581 0 
L 581 3500 
L 1159 3500 
L 1159 2956 
Q 1366 3272 1645 3428 
Q 1925 3584 2291 3584 
Q 2894 3584 3203 3211 
Q 3513 2838 3513 2113 
z
" transform="scale(0.015625)"/>
      <path id="DejaVuSans-65" d="M 3597 1894 
L 3597 1613 
L 953 1613 
Q 991 1019 1311 708 
Q 1631 397 2203 397 
Q 2534 397 2845 478 
Q 3156 559 3463 722 
L 3463 178 
Q 3153 47 2828 -22 
Q 2503 -91 2169 -91 
Q 1331 -91 842 396 
Q 353 884 353 1716 
Q 353 2575 817 3079 
Q 1281 3584 2069 3584 
Q 2775 3584 3186 3129 
Q 3597 2675 3597 1894 
z
M 3022 2063 
Q 3016 2534 2758 2815 
Q 2500 3097 2075 3097 
Q 1594 3097 1305 2825 
Q 1016 2553 972 2059 
L 3022 2063 
z
" transform="scale(0.015625)"/>
      <path id="DejaVuSans-20" transform="scale(0.015625)"/>
      <path id="DejaVuSans-6d" d="M 3328 2828 
Q 3544 3216 3844 3400 
Q 4144 3584 4550 3584 
Q 5097 3584 5394 3201 
Q 5691 2819 5691 2113 
L 5691 0 
L 5113 0 
L 5113 2094 
Q 5113 2597 4934 2840 
Q 4756 3084 4391 3084 
Q 3944 3084 3684 2787 
Q 3425 2491 3425 1978 
L 3425 0 
L 2847 0 
L 2847 2094 
Q 2847 2600 2669 2842 
Q 2491 3084 2119 3084 
Q 1678 3084 1418 2786 
Q 1159 2488 1159 1978 
L 1159 0 
L 581 0 
L 581 3500 
L 1159 3500 
L 1159 2956 
Q 1356 3278 1631 3431 
Q 1906 3584 2284 3584 
Q 2666 3584 2933 3390 
Q 3200 3197 3328 2828 
z
" transform="scale(0.015625)"/>
      <path id="DejaVuSans-63" d="M 3122 3366 
L 3122 2828 
Q 2878 2963 2633 3030 
Q 2388 3097 2138 3097 
Q 1578 3097 1268 2742 
Q 959 2388 959 1747 
Q 959 1106 1268 751 
Q 1578 397 2138 397 
Q 2388 397 2633 464 
Q 2878 531 3122 666 
L 3122 134 
Q 2881 22 2623 -34 
Q 2366 -91 2075 -91 
Q 1284 -91 818 406 
Q 353 903 353 1747 
Q 353 2603 823 3093 
Q 1294 3584 2113 3584 
Q 2378 3584 2631 3529 
Q 2884 3475 3122 3366 
z
" transform="scale(0.015625)"/>
      <path id="DejaVuSans-74" d="M 1172 4494 
L 1172 3500 
L 2356 3500 
L 2356 3053 
L 1172 3053 
L 1172 1153 
Q 1172 725 1289 603 
Q 1406 481 1766 481 
L 2356 481 
L 2356 0 
L 1766 0 
Q 1100 0 847 248 
Q 594 497 594 1153 
L 594 3053 
L 172 3053 
L 172 3500 
L 594 3500 
L 594 4494 
L 1172 4494 
z
" transform="scale(0.015625)"/>
     </defs>
     <use xlink:href="#DejaVuSans-72"/>
     <use xlink:href="#DejaVuSans-61" transform="translate(41.113281 0)"/>
     <use xlink:href="#DejaVuSans-64" transform="translate(102.392578 0)"/>
     <use xlink:href="#DejaVuSans-69" transform="translate(165.869141 0)"/>
     <use xlink:href="#DejaVuSans-61" transform="translate(193.652344 0)"/>
     <use xlink:href="#DejaVuSans-7a" transform="translate(254.931641 0)"/>
     <use xlink:href="#DejaVuSans-69" transform="translate(307.421875 0)"/>
     <use xlink:href="#DejaVuSans-6f" transform="translate(335.205078 0)"/>
     <use xlink:href="#DejaVuSans-6e" transform="translate(396.386719 0)"/>
     <use xlink:href="#DejaVuSans-65" transform="translate(459.765625 0)"/>
     <use xlink:href="#DejaVuSans-20" transform="translate(521.289062 0)"/>
     <use xlink:href="#DejaVuSans-6d" transform="translate(553.076172 0)"/>
     <use xlink:href="#DejaVuSans-6f" transform="translate(650.488281 0)"/>
     <use xlink:href="#DejaVuSans-6e" transform="translate(711.669922 0)"/>
     <use xlink:href="#DejaVuSans-6f" transform="translate(775.048828 0)"/>
     <use xlink:href="#DejaVuSans-63" transform="translate(836.230469 0)"/>
     <use xlink:href="#DejaVuSans-72" transform="translate(891.210938 0)"/>
     <use xlink:href="#DejaVuSans-6f" transform="translate(930.074219 0)"/>
     <use xlink:href="#DejaVuSans-6d" transform="translate(991.255859 0)"/>
     <use xlink:href="#DejaVuSans-61" transform="translate(1088.667969 0)"/>
     <use xlink:href="#DejaVuSans-74" transform="translate(1149.947266 0)"/>
     <use xlink:href="#DejaVuSans-69" transform="translate(1189.15625 0)"/>
     <use xlink:href="#DejaVuSans-63" transform="translate(1216.939453 0)"/>
     <use xlink:href="#DejaVuSans-61" transform="translate(1271.919922 0)"/>
     <use xlink:href="#DejaVuSans-20" transform="translate(1333.199219 0)"/>
     <use xlink:href="#DejaVuSans-69" transform="translate(1364.986328 0)"/>
     <use xlink:href="#DejaVuSans-6e" transform="translate(1392.769531 0)"/>
     <use xlink:href="#DejaVuSans-63" transform="translate(1456.148438 0)"/>
     <use xlink:href="#DejaVuSans-69" transform="translate(1511.128906 0)"/>
     <use xlink:href="#DejaVuSans-64" transform="translate(1538.912109 0)"/>
     <use xlink:href="#DejaVuSans-65" transform="translate(1602.388672 0)"/>
     <use xlink:href="#DejaVuSans-6e" transform="translate(1663.912109 0)"/>
     <use xlink:href="#DejaVuSans-74" transform="translate(1727.291016 0)"/>
     <use xlink:href="#DejaVuSans-65" transform="translate(1766.5 0)"/>
    </g>
   </g>
   <g id="text_2">
    <!-- $I(z)=I_0e^{-\alpha z}$ -->
    <g transform="translate(247.34578 152.39845) scale(0.12 -0.12)">
     <defs>
      <path id="DejaVuSans-Oblique-49" d="M 1081 4666 
L 1716 4666 
L 806 0 
L 172 0 
L 1081 4666 
z
" transform="scale(0.015625)"/>
      <path id="DejaVuSans-28" d="M 1984 4856 
Q 1566 4138 1362 3434 
Q 1159 2731 1159 2009 
Q 1159 1288 1364 580 
Q 1569 -128 1984 -844 
L 1484 -844 
Q 1016 -109 783 600 
Q 550 1309 550 2009 
Q 550 2706 781 3412 
Q 1013 4119 1484 4856 
L 1984 4856 
z
" transform="scale(0.015625)"/>
      <path id="DejaVuSans-Oblique-7a" d="M 744 3500 
L 3475 3500 
L 3372 2975 
L 738 459 
L 2913 459 
L 2822 0 
L -19 0 
L 84 525 
L 2719 3041 
L 653 3041 
L 744 3500 
z
" transform="scale(0.015625)"/>
      <path id="DejaVuSans-29" d="M 513 4856 
L 1013 4856 
Q 1481 4119 1714 3412 
Q 1947 2706 1947 2009 
Q 1947 1309 1714 600 
Q 1481 -109 1013 -844 
L 513 -844 
Q 928 -128 1133 580 
Q 1338 1288 1338 2009 
Q 1338 2731 1133 3434 
Q 928 4138 513 4856 
z
" transform="scale(0.015625)"/>
      <path id="DejaVuSans-3d" d="M 678 2906 
L 4684 2906 
L 4684 2381 
L 678 2381 
L 678 2906 
z
M 678 1631 
L 4684 1631 
L 4684 1100 
L 678 1100 
L 678 1631 
z
" transform="scale(0.015625)"/>
      <path id="DejaVuSans-30" d="M 2034 4250 
Q 1547 4250 1301 3770 
Q 1056 3291 1056 2328 
Q 1056 1369 1301 889 
Q 1547 409 2034 409 
Q 2525 409 2770 889 
Q 3016 1369 3016 2328 
Q 3016 3291 2770 3770 
Q 2525 4250 2034 4250 
z
M 2034 4750 
Q 2819 4750 3233 4129 
Q 3647 3509 3647 2328 
Q 3647 1150 3233 529 
Q 2819 -91 2034 -91 
Q 1250 -91 836 529 
Q 422 1150 422 2328 
Q 422 3509 836 4129 
Q 1250 4750 2034 4750 
z
" transform="scale(0.015625)"/>
      <path id="DejaVuSans-Oblique-65" d="M 3078 2063 
Q 3088 2113 3092 2166 
Q 3097 2219 3097 2272 
Q 3097 2653 2873 2875 
Q 2650 3097 2266 3097 
Q 1838 3097 1509 2826 
Q 1181 2556 1013 2059 
L 3078 2063 
z
M 3578 1613 
L 903 1613 
Q 884 1494 878 1425 
Q 872 1356 872 1306 
Q 872 872 1139 634 
Q 1406 397 1894 397 
Q 2269 397 2603 481 
Q 2938 566 3225 728 
L 3116 159 
Q 2806 34 2476 -28 
Q 2147 -91 1806 -91 
Q 1078 -91 686 257 
Q 294 606 294 1247 
Q 294 1794 489 2264 
Q 684 2734 1063 3103 
Q 1306 3334 1642 3459 
Q 1978 3584 2356 3584 
Q 2950 3584 3301 3228 
Q 3653 2872 3653 2272 
Q 3653 2128 3634 1964 
Q 3616 1800 3578 1613 
z
" transform="scale(0.015625)"/>
      <path id="DejaVuSans-2212" d="M 678 2272 
L 4684 2272 
L 4684 1741 
L 678 1741 
L 678 2272 
z
" transform="scale(0.015625)"/>
      <path id="DejaVuSans-Oblique-3b1" d="M 2619 1628 
L 2622 2350 
Q 2625 3088 2069 3091 
Q 1653 3094 1394 2747 
Q 1069 2319 959 1747 
Q 825 1059 994 731 
Q 1169 397 1547 397 
Q 1966 397 2319 1063 
L 2619 1628 
z
M 2166 3578 
Q 3141 3594 3128 2584 
Q 3128 2584 3616 3500 
L 4128 3500 
L 3119 1603 
L 3109 919 
Q 3109 766 3194 638 
Q 3291 488 3391 488 
L 3669 488 
L 3575 0 
L 3228 0 
Q 2934 0 2722 263 
Q 2622 394 2619 669 
Q 2416 334 2066 50 
Q 1900 -81 1453 -78 
Q 722 -72 456 397 
Q 184 884 353 1747 
Q 534 2675 1009 3097 
Q 1544 3569 2166 3578 
z
" transform="scale(0.015625)"/>
     </defs>
     <use xlink:href="#DejaVuSans-Oblique-49" transform="translate(0 0.409375)"/>
     <use xlink:href="#DejaVuSans-28" transform="translate(29.492188 0.409375)"/>
     <use xlink:href="#DejaVuSans-Oblique-7a" transform="translate(68.505859 0.409375)"/>
     <use xlink:href="#DejaVuSans-29" transform="translate(120.996094 0.409375)"/>
     <use xlink:href="#DejaVuSans-3d" transform="translate(179.492188 0.409375)"/>
     <use xlink:href="#DejaVuSans-Oblique-49" transform="translate(282.763672 0.409375)"/>
     <use xlink:href="#DejaVuSans-30" transform="translate(312.255859 -15.996875) scale(0.7)"/>
     <use xlink:href="#DejaVuSans-Oblique-65" transform="translate(359.526367 0.409375)"/>
     <use xlink:href="#DejaVuSans-2212" transform="translate(425.699701 38.690625) scale(0.7)"/>
     <use xlink:href="#DejaVuSans-Oblique-3b1" transform="translate(484.352044 38.690625) scale(0.7)"/>
     <use xlink:href="#DejaVuSans-Oblique-7a" transform="translate(530.494622 38.690625) scale(0.7)"/>
    </g>
   </g>
   <g id="patch_8">
    <path d="M 341.958719 99.217822 
Q 355.138313 99.217822 368.317907 99.217822 
" style="fill: none; stroke: #000000; stroke-linecap: round"/>
    <path d="M 345.958719 101.217822 
L 341.958719 99.217822 
L 345.958719 97.217822 
" style="fill: none; stroke: #000000; stroke-linecap: round"/>
    <path d="M 364.317907 97.217822 
L 368.317907 99.217822 
L 364.317907 101.217822 
" style="fill: none; stroke: #000000; stroke-linecap: round"/>
   </g>
   <g id="text_3">
    <!-- $dz$ -->
    <g transform="translate(349.336623 87.781127) scale(0.1 -0.1)">
     <defs>
      <path id="DejaVuSans-Oblique-64" d="M 2675 525 
Q 2444 222 2128 65 
Q 1813 -91 1428 -91 
Q 903 -91 598 267 
Q 294 625 294 1247 
Q 294 1766 478 2236 
Q 663 2706 1013 3078 
Q 1244 3325 1534 3454 
Q 1825 3584 2144 3584 
Q 2481 3584 2739 3421 
Q 2997 3259 3138 2956 
L 3513 4863 
L 4091 4863 
L 3144 0 
L 2566 0 
L 2675 525 
z
M 891 1350 
Q 891 897 1095 644 
Q 1300 391 1663 391 
Q 1931 391 2161 520 
Q 2391 650 2566 903 
Q 2750 1166 2856 1509 
Q 2963 1853 2963 2188 
Q 2963 2622 2758 2865 
Q 2553 3109 2194 3109 
Q 1922 3109 1687 2981 
Q 1453 2853 1288 2613 
Q 1106 2353 998 2009 
Q 891 1666 891 1350 
z
" transform="scale(0.015625)"/>
     </defs>
     <use xlink:href="#DejaVuSans-Oblique-64" transform="translate(0 0.015625)"/>
     <use xlink:href="#DejaVuSans-Oblique-7a" transform="translate(63.476562 0.015625)"/>
    </g>
   </g>
   <g id="patch_9">
    <path d="M 219.012703 70.626086 
Q 277.368603 70.626086 335.724502 70.626086 
" style="fill: none; stroke: #000000; stroke-linecap: round"/>
    <path d="M 223.012703 72.626086 
L 219.012703 70.626086 
L 223.012703 68.626086 
" style="fill: none; stroke: #000000; stroke-linecap: round"/>
    <path d="M 331.724502 68.626086 
L 335.724502 70.626086 
L 331.724502 72.626086 
" style="fill: none; stroke: #000000; stroke-linecap: round"/>
   </g>
   <g id="text_4">
    <!-- $z$ -->
    <g transform="translate(274.717102 60.333061) scale(0.1 -0.1)">
     <use xlink:href="#DejaVuSans-Oblique-7a" transform="translate(0 0.3125)"/>
    </g>
   </g>
   <g id="text_5">
    <!-- semiconduttore -->
    <g transform="translate(375.708368 326.808036) scale(0.11 -0.11)">
     <defs>
      <path id="DejaVuSans-Bold-73" d="M 3272 3391 
L 3272 2541 
Q 2913 2691 2578 2766 
Q 2244 2841 1947 2841 
Q 1628 2841 1473 2761 
Q 1319 2681 1319 2516 
Q 1319 2381 1436 2309 
Q 1553 2238 1856 2203 
L 2053 2175 
Q 2913 2066 3209 1816 
Q 3506 1566 3506 1031 
Q 3506 472 3093 190 
Q 2681 -91 1863 -91 
Q 1516 -91 1145 -36 
Q 775 19 384 128 
L 384 978 
Q 719 816 1070 734 
Q 1422 653 1784 653 
Q 2113 653 2278 743 
Q 2444 834 2444 1013 
Q 2444 1163 2330 1236 
Q 2216 1309 1875 1350 
L 1678 1375 
Q 931 1469 631 1722 
Q 331 1975 331 2491 
Q 331 3047 712 3315 
Q 1094 3584 1881 3584 
Q 2191 3584 2531 3537 
Q 2872 3491 3272 3391 
z
" transform="scale(0.015625)"/>
      <path id="DejaVuSans-Bold-65" d="M 4031 1759 
L 4031 1441 
L 1416 1441 
Q 1456 1047 1700 850 
Q 1944 653 2381 653 
Q 2734 653 3104 758 
Q 3475 863 3866 1075 
L 3866 213 
Q 3469 63 3072 -14 
Q 2675 -91 2278 -91 
Q 1328 -91 801 392 
Q 275 875 275 1747 
Q 275 2603 792 3093 
Q 1309 3584 2216 3584 
Q 3041 3584 3536 3087 
Q 4031 2591 4031 1759 
z
M 2881 2131 
Q 2881 2450 2695 2645 
Q 2509 2841 2209 2841 
Q 1884 2841 1681 2658 
Q 1478 2475 1428 2131 
L 2881 2131 
z
" transform="scale(0.015625)"/>
      <path id="DejaVuSans-Bold-6d" d="M 3781 2919 
Q 3994 3244 4286 3414 
Q 4578 3584 4928 3584 
Q 5531 3584 5847 3212 
Q 6163 2841 6163 2131 
L 6163 0 
L 5038 0 
L 5038 1825 
Q 5041 1866 5042 1909 
Q 5044 1953 5044 2034 
Q 5044 2406 4934 2573 
Q 4825 2741 4581 2741 
Q 4263 2741 4089 2478 
Q 3916 2216 3909 1719 
L 3909 0 
L 2784 0 
L 2784 1825 
Q 2784 2406 2684 2573 
Q 2584 2741 2328 2741 
Q 2006 2741 1831 2477 
Q 1656 2213 1656 1722 
L 1656 0 
L 531 0 
L 531 3500 
L 1656 3500 
L 1656 2988 
Q 1863 3284 2130 3434 
Q 2397 3584 2719 3584 
Q 3081 3584 3359 3409 
Q 3638 3234 3781 2919 
z
" transform="scale(0.015625)"/>
      <path id="DejaVuSans-Bold-69" d="M 538 3500 
L 1656 3500 
L 1656 0 
L 538 0 
L 538 3500 
z
M 538 4863 
L 1656 4863 
L 1656 3950 
L 538 3950 
L 538 4863 
z
" transform="scale(0.015625)"/>
      <path id="DejaVuSans-Bold-63" d="M 3366 3391 
L 3366 2478 
Q 3138 2634 2908 2709 
Q 2678 2784 2431 2784 
Q 1963 2784 1702 2511 
Q 1441 2238 1441 1747 
Q 1441 1256 1702 982 
Q 1963 709 2431 709 
Q 2694 709 2930 787 
Q 3166 866 3366 1019 
L 3366 103 
Q 3103 6 2833 -42 
Q 2563 -91 2291 -91 
Q 1344 -91 809 395 
Q 275 881 275 1747 
Q 275 2613 809 3098 
Q 1344 3584 2291 3584 
Q 2566 3584 2833 3536 
Q 3100 3488 3366 3391 
z
" transform="scale(0.015625)"/>
      <path id="DejaVuSans-Bold-6f" d="M 2203 2784 
Q 1831 2784 1636 2517 
Q 1441 2250 1441 1747 
Q 1441 1244 1636 976 
Q 1831 709 2203 709 
Q 2569 709 2762 976 
Q 2956 1244 2956 1747 
Q 2956 2250 2762 2517 
Q 2569 2784 2203 2784 
z
M 2203 3584 
Q 3106 3584 3614 3096 
Q 4122 2609 4122 1747 
Q 4122 884 3614 396 
Q 3106 -91 2203 -91 
Q 1297 -91 786 396 
Q 275 884 275 1747 
Q 275 2609 786 3096 
Q 1297 3584 2203 3584 
z
" transform="scale(0.015625)"/>
      <path id="DejaVuSans-Bold-6e" d="M 4056 2131 
L 4056 0 
L 2931 0 
L 2931 347 
L 2931 1631 
Q 2931 2084 2911 2256 
Q 2891 2428 2841 2509 
Q 2775 2619 2662 2680 
Q 2550 2741 2406 2741 
Q 2056 2741 1856 2470 
Q 1656 2200 1656 1722 
L 1656 0 
L 538 0 
L 538 3500 
L 1656 3500 
L 1656 2988 
Q 1909 3294 2193 3439 
Q 2478 3584 2822 3584 
Q 3428 3584 3742 3212 
Q 4056 2841 4056 2131 
z
" transform="scale(0.015625)"/>
      <path id="DejaVuSans-Bold-64" d="M 2919 2988 
L 2919 4863 
L 4044 4863 
L 4044 0 
L 2919 0 
L 2919 506 
Q 2688 197 2409 53 
Q 2131 -91 1766 -91 
Q 1119 -91 703 423 
Q 288 938 288 1747 
Q 288 2556 703 3070 
Q 1119 3584 1766 3584 
Q 2128 3584 2408 3439 
Q 2688 3294 2919 2988 
z
M 2181 722 
Q 2541 722 2730 984 
Q 2919 1247 2919 1747 
Q 2919 2247 2730 2509 
Q 2541 2772 2181 2772 
Q 1825 2772 1636 2509 
Q 1447 2247 1447 1747 
Q 1447 1247 1636 984 
Q 1825 722 2181 722 
z
" transform="scale(0.015625)"/>
      <path id="DejaVuSans-Bold-75" d="M 500 1363 
L 500 3500 
L 1625 3500 
L 1625 3150 
Q 1625 2866 1622 2436 
Q 1619 2006 1619 1863 
Q 1619 1441 1641 1255 
Q 1663 1069 1716 984 
Q 1784 875 1895 815 
Q 2006 756 2150 756 
Q 2500 756 2700 1025 
Q 2900 1294 2900 1772 
L 2900 3500 
L 4019 3500 
L 4019 0 
L 2900 0 
L 2900 506 
Q 2647 200 2364 54 
Q 2081 -91 1741 -91 
Q 1134 -91 817 281 
Q 500 653 500 1363 
z
" transform="scale(0.015625)"/>
      <path id="DejaVuSans-Bold-74" d="M 1759 4494 
L 1759 3500 
L 2913 3500 
L 2913 2700 
L 1759 2700 
L 1759 1216 
Q 1759 972 1856 886 
Q 1953 800 2241 800 
L 2816 800 
L 2816 0 
L 1856 0 
Q 1194 0 917 276 
Q 641 553 641 1216 
L 641 2700 
L 84 2700 
L 84 3500 
L 641 3500 
L 641 4494 
L 1759 4494 
z
" transform="scale(0.015625)"/>
      <path id="DejaVuSans-Bold-72" d="M 3138 2547 
Q 2991 2616 2845 2648 
Q 2700 2681 2553 2681 
Q 2122 2681 1889 2404 
Q 1656 2128 1656 1613 
L 1656 0 
L 538 0 
L 538 3500 
L 1656 3500 
L 1656 2925 
Q 1872 3269 2151 3426 
Q 2431 3584 2822 3584 
Q 2878 3584 2943 3579 
Q 3009 3575 3134 3559 
L 3138 2547 
z
" transform="scale(0.015625)"/>
     </defs>
     <use xlink:href="#DejaVuSans-Bold-73"/>
     <use xlink:href="#DejaVuSans-Bold-65" transform="translate(59.521484 0)"/>
     <use xlink:href="#DejaVuSans-Bold-6d" transform="translate(127.34375 0)"/>
     <use xlink:href="#DejaVuSans-Bold-69" transform="translate(231.542969 0)"/>
     <use xlink:href="#DejaVuSans-Bold-63" transform="translate(265.820312 0)"/>
     <use xlink:href="#DejaVuSans-Bold-6f" transform="translate(325.097656 0)"/>
     <use xlink:href="#DejaVuSans-Bold-6e" transform="translate(393.798828 0)"/>
     <use xlink:href="#DejaVuSans-Bold-64" transform="translate(464.990234 0)"/>
     <use xlink:href="#DejaVuSans-Bold-75" transform="translate(536.572266 0)"/>
     <use xlink:href="#DejaVuSans-Bold-74" transform="translate(607.763672 0)"/>
     <use xlink:href="#DejaVuSans-Bold-74" transform="translate(655.566406 0)"/>
     <use xlink:href="#DejaVuSans-Bold-6f" transform="translate(703.369141 0)"/>
     <use xlink:href="#DejaVuSans-Bold-72" transform="translate(772.070312 0)"/>
     <use xlink:href="#DejaVuSans-Bold-65" transform="translate(821.386719 0)"/>
    </g>
   </g>
   <g id="text_6">
    <!-- profondità crescente -->
    <g transform="translate(545.699374 326.808036) scale(0.092 -0.092)">
     <defs>
      <path id="DejaVuSans-70" d="M 1159 525 
L 1159 -1331 
L 581 -1331 
L 581 3500 
L 1159 3500 
L 1159 2969 
Q 1341 3281 1617 3432 
Q 1894 3584 2278 3584 
Q 2916 3584 3314 3078 
Q 3713 2572 3713 1747 
Q 3713 922 3314 415 
Q 2916 -91 2278 -91 
Q 1894 -91 1617 61 
Q 1341 213 1159 525 
z
M 3116 1747 
Q 3116 2381 2855 2742 
Q 2594 3103 2138 3103 
Q 1681 3103 1420 2742 
Q 1159 2381 1159 1747 
Q 1159 1113 1420 752 
Q 1681 391 2138 391 
Q 2594 391 2855 752 
Q 3116 1113 3116 1747 
z
" transform="scale(0.015625)"/>
      <path id="DejaVuSans-66" d="M 2375 4863 
L 2375 4384 
L 1825 4384 
Q 1516 4384 1395 4259 
Q 1275 4134 1275 3809 
L 1275 3500 
L 2222 3500 
L 2222 3053 
L 1275 3053 
L 1275 0 
L 697 0 
L 697 3053 
L 147 3053 
L 147 3500 
L 697 3500 
L 697 3744 
Q 697 4328 969 4595 
Q 1241 4863 1831 4863 
L 2375 4863 
z
" transform="scale(0.015625)"/>
      <path id="DejaVuSans-e0" d="M 2194 1759 
Q 1497 1759 1228 1600 
Q 959 1441 959 1056 
Q 959 750 1161 570 
Q 1363 391 1709 391 
Q 2188 391 2477 730 
Q 2766 1069 2766 1631 
L 2766 1759 
L 2194 1759 
z
M 3341 1997 
L 3341 0 
L 2766 0 
L 2766 531 
Q 2569 213 2275 61 
Q 1981 -91 1556 -91 
Q 1019 -91 701 211 
Q 384 513 384 1019 
Q 384 1609 779 1909 
Q 1175 2209 1959 2209 
L 2766 2209 
L 2766 2266 
Q 2766 2663 2505 2880 
Q 2244 3097 1772 3097 
Q 1472 3097 1187 3025 
Q 903 2953 641 2809 
L 641 3341 
Q 956 3463 1253 3523 
Q 1550 3584 1831 3584 
Q 2591 3584 2966 3190 
Q 3341 2797 3341 1997 
z
M 1403 5119 
L 2284 3950 
L 1806 3950 
L 787 5119 
L 1403 5119 
z
" transform="scale(0.015625)"/>
      <path id="DejaVuSans-73" d="M 2834 3397 
L 2834 2853 
Q 2591 2978 2328 3040 
Q 2066 3103 1784 3103 
Q 1356 3103 1142 2972 
Q 928 2841 928 2578 
Q 928 2378 1081 2264 
Q 1234 2150 1697 2047 
L 1894 2003 
Q 2506 1872 2764 1633 
Q 3022 1394 3022 966 
Q 3022 478 2636 193 
Q 2250 -91 1575 -91 
Q 1294 -91 989 -36 
Q 684 19 347 128 
L 347 722 
Q 666 556 975 473 
Q 1284 391 1588 391 
Q 1994 391 2212 530 
Q 2431 669 2431 922 
Q 2431 1156 2273 1281 
Q 2116 1406 1581 1522 
L 1381 1569 
Q 847 1681 609 1914 
Q 372 2147 372 2553 
Q 372 3047 722 3315 
Q 1072 3584 1716 3584 
Q 2034 3584 2315 3537 
Q 2597 3491 2834 3397 
z
" transform="scale(0.015625)"/>
     </defs>
     <use xlink:href="#DejaVuSans-70"/>
     <use xlink:href="#DejaVuSans-72" transform="translate(63.476562 0)"/>
     <use xlink:href="#DejaVuSans-6f" transform="translate(102.339844 0)"/>
     <use xlink:href="#DejaVuSans-66" transform="translate(163.521484 0)"/>
     <use xlink:href="#DejaVuSans-6f" transform="translate(198.726562 0)"/>
     <use xlink:href="#DejaVuSans-6e" transform="translate(259.908203 0)"/>
     <use xlink:href="#DejaVuSans-64" transform="translate(323.287109 0)"/>
     <use xlink:href="#DejaVuSans-69" transform="translate(386.763672 0)"/>
     <use xlink:href="#DejaVuSans-74" transform="translate(414.546875 0)"/>
     <use xlink:href="#DejaVuSans-e0" transform="translate(453.755859 0)"/>
     <use xlink:href="#DejaVuSans-20" transform="translate(515.035156 0)"/>
     <use xlink:href="#DejaVuSans-63" transform="translate(546.822266 0)"/>
     <use xlink:href="#DejaVuSans-72" transform="translate(601.802734 0)"/>
     <use xlink:href="#DejaVuSans-65" transform="translate(640.666016 0)"/>
     <use xlink:href="#DejaVuSans-73" transform="translate(702.189453 0)"/>
     <use xlink:href="#DejaVuSans-63" transform="translate(754.289062 0)"/>
     <use xlink:href="#DejaVuSans-65" transform="translate(809.269531 0)"/>
     <use xlink:href="#DejaVuSans-6e" transform="translate(870.792969 0)"/>
     <use xlink:href="#DejaVuSans-74" transform="translate(934.171875 0)"/>
     <use xlink:href="#DejaVuSans-65" transform="translate(973.380859 0)"/>
    </g>
   </g>
   <g id="text_7">
    <!-- Assorbimento ottico a incidenza normale in un semiconduttore -->
    <g transform="translate(89.511172 18.597656) scale(0.15 -0.15)">
     <defs>
      <path id="DejaVuSans-Bold-41" d="M 3419 850 
L 1538 850 
L 1241 0 
L 31 0 
L 1759 4666 
L 3194 4666 
L 4922 0 
L 3713 0 
L 3419 850 
z
M 1838 1716 
L 3116 1716 
L 2478 3572 
L 1838 1716 
z
" transform="scale(0.015625)"/>
      <path id="DejaVuSans-Bold-62" d="M 2400 722 
Q 2759 722 2948 984 
Q 3138 1247 3138 1747 
Q 3138 2247 2948 2509 
Q 2759 2772 2400 2772 
Q 2041 2772 1848 2508 
Q 1656 2244 1656 1747 
Q 1656 1250 1848 986 
Q 2041 722 2400 722 
z
M 1656 2988 
Q 1888 3294 2169 3439 
Q 2450 3584 2816 3584 
Q 3463 3584 3878 3070 
Q 4294 2556 4294 1747 
Q 4294 938 3878 423 
Q 3463 -91 2816 -91 
Q 2450 -91 2169 54 
Q 1888 200 1656 506 
L 1656 0 
L 538 0 
L 538 4863 
L 1656 4863 
L 1656 2988 
z
" transform="scale(0.015625)"/>
      <path id="DejaVuSans-Bold-20" transform="scale(0.015625)"/>
      <path id="DejaVuSans-Bold-61" d="M 2106 1575 
Q 1756 1575 1579 1456 
Q 1403 1338 1403 1106 
Q 1403 894 1545 773 
Q 1688 653 1941 653 
Q 2256 653 2472 879 
Q 2688 1106 2688 1447 
L 2688 1575 
L 2106 1575 
z
M 3816 1997 
L 3816 0 
L 2688 0 
L 2688 519 
Q 2463 200 2181 54 
Q 1900 -91 1497 -91 
Q 953 -91 614 226 
Q 275 544 275 1050 
Q 275 1666 698 1953 
Q 1122 2241 2028 2241 
L 2688 2241 
L 2688 2328 
Q 2688 2594 2478 2717 
Q 2269 2841 1825 2841 
Q 1466 2841 1156 2769 
Q 847 2697 581 2553 
L 581 3406 
Q 941 3494 1303 3539 
Q 1666 3584 2028 3584 
Q 2975 3584 3395 3211 
Q 3816 2838 3816 1997 
z
" transform="scale(0.015625)"/>
      <path id="DejaVuSans-Bold-7a" d="M 366 3500 
L 3419 3500 
L 3419 2719 
L 1575 800 
L 3419 800 
L 3419 0 
L 288 0 
L 288 781 
L 2131 2700 
L 366 2700 
L 366 3500 
z
" transform="scale(0.015625)"/>
      <path id="DejaVuSans-Bold-6c" d="M 538 4863 
L 1656 4863 
L 1656 0 
L 538 0 
L 538 4863 
z
" transform="scale(0.015625)"/>
     </defs>
     <use xlink:href="#DejaVuSans-Bold-41"/>
     <use xlink:href="#DejaVuSans-Bold-73" transform="translate(77.392578 0)"/>
     <use xlink:href="#DejaVuSans-Bold-73" transform="translate(136.914062 0)"/>
     <use xlink:href="#DejaVuSans-Bold-6f" transform="translate(196.435547 0)"/>
     <use xlink:href="#DejaVuSans-Bold-72" transform="translate(265.136719 0)"/>
     <use xlink:href="#DejaVuSans-Bold-62" transform="translate(314.453125 0)"/>
     <use xlink:href="#DejaVuSans-Bold-69" transform="translate(386.035156 0)"/>
     <use xlink:href="#DejaVuSans-Bold-6d" transform="translate(420.3125 0)"/>
     <use xlink:href="#DejaVuSans-Bold-65" transform="translate(524.511719 0)"/>
     <use xlink:href="#DejaVuSans-Bold-6e" transform="translate(592.333984 0)"/>
     <use xlink:href="#DejaVuSans-Bold-74" transform="translate(663.525391 0)"/>
     <use xlink:href="#DejaVuSans-Bold-6f" transform="translate(711.328125 0)"/>
     <use xlink:href="#DejaVuSans-Bold-20" transform="translate(780.029297 0)"/>
     <use xlink:href="#DejaVuSans-Bold-6f" transform="translate(814.84375 0)"/>
     <use xlink:href="#DejaVuSans-Bold-74" transform="translate(883.544922 0)"/>
     <use xlink:href="#DejaVuSans-Bold-74" transform="translate(931.347656 0)"/>
     <use xlink:href="#DejaVuSans-Bold-69" transform="translate(979.150391 0)"/>
     <use xlink:href="#DejaVuSans-Bold-63" transform="translate(1013.427734 0)"/>
     <use xlink:href="#DejaVuSans-Bold-6f" transform="translate(1072.705078 0)"/>
     <use xlink:href="#DejaVuSans-Bold-20" transform="translate(1141.40625 0)"/>
     <use xlink:href="#DejaVuSans-Bold-61" transform="translate(1176.220703 0)"/>
     <use xlink:href="#DejaVuSans-Bold-20" transform="translate(1243.701172 0)"/>
     <use xlink:href="#DejaVuSans-Bold-69" transform="translate(1278.515625 0)"/>
     <use xlink:href="#DejaVuSans-Bold-6e" transform="translate(1312.792969 0)"/>
     <use xlink:href="#DejaVuSans-Bold-63" transform="translate(1383.984375 0)"/>
     <use xlink:href="#DejaVuSans-Bold-69" transform="translate(1443.261719 0)"/>
     <use xlink:href="#DejaVuSans-Bold-64" transform="translate(1477.539062 0)"/>
     <use xlink:href="#DejaVuSans-Bold-65" transform="translate(1549.121094 0)"/>
     <use xlink:href="#DejaVuSans-Bold-6e" transform="translate(1616.943359 0)"/>
     <use xlink:href="#DejaVuSans-Bold-7a" transform="translate(1688.134766 0)"/>
     <use xlink:href="#DejaVuSans-Bold-61" transform="translate(1746.337891 0)"/>
     <use xlink:href="#DejaVuSans-Bold-20" transform="translate(1813.818359 0)"/>
     <use xlink:href="#DejaVuSans-Bold-6e" transform="translate(1848.632812 0)"/>
     <use xlink:href="#DejaVuSans-Bold-6f" transform="translate(1919.824219 0)"/>
     <use xlink:href="#DejaVuSans-Bold-72" transform="translate(1988.525391 0)"/>
     <use xlink:href="#DejaVuSans-Bold-6d" transform="translate(2037.841797 0)"/>
     <use xlink:href="#DejaVuSans-Bold-61" transform="translate(2142.041016 0)"/>
     <use xlink:href="#DejaVuSans-Bold-6c" transform="translate(2209.521484 0)"/>
     <use xlink:href="#DejaVuSans-Bold-65" transform="translate(2243.798828 0)"/>
     <use xlink:href="#DejaVuSans-Bold-20" transform="translate(2311.621094 0)"/>
     <use xlink:href="#DejaVuSans-Bold-69" transform="translate(2346.435547 0)"/>
     <use xlink:href="#DejaVuSans-Bold-6e" transform="translate(2380.712891 0)"/>
     <use xlink:href="#DejaVuSans-Bold-20" transform="translate(2451.904297 0)"/>
     <use xlink:href="#DejaVuSans-Bold-75" transform="translate(2486.71875 0)"/>
     <use xlink:href="#DejaVuSans-Bold-6e" transform="translate(2557.910156 0)"/>
     <use xlink:href="#DejaVuSans-Bold-20" transform="translate(2629.101562 0)"/>
     <use xlink:href="#DejaVuSans-Bold-73" transform="translate(2663.916016 0)"/>
     <use xlink:href="#DejaVuSans-Bold-65" transform="translate(2723.4375 0)"/>
     <use xlink:href="#DejaVuSans-Bold-6d" transform="translate(2791.259766 0)"/>
     <use xlink:href="#DejaVuSans-Bold-69" transform="translate(2895.458984 0)"/>
     <use xlink:href="#DejaVuSans-Bold-63" transform="translate(2929.736328 0)"/>
     <use xlink:href="#DejaVuSans-Bold-6f" transform="translate(2989.013672 0)"/>
     <use xlink:href="#DejaVuSans-Bold-6e" transform="translate(3057.714844 0)"/>
     <use xlink:href="#DejaVuSans-Bold-64" transform="translate(3128.90625 0)"/>
     <use xlink:href="#DejaVuSans-Bold-75" transform="translate(3200.488281 0)"/>
     <use xlink:href="#DejaVuSans-Bold-74" transform="translate(3271.679688 0)"/>
     <use xlink:href="#DejaVuSans-Bold-74" transform="translate(3319.482422 0)"/>
     <use xlink:href="#DejaVuSans-Bold-6f" transform="translate(3367.285156 0)"/>
     <use xlink:href="#DejaVuSans-Bold-72" transform="translate(3435.986328 0)"/>
     <use xlink:href="#DejaVuSans-Bold-65" transform="translate(3485.302734 0)"/>
    </g>
   </g>
  </g>
  <g id="text_8">
   <!-- In uno strato infinitesimo dz la perdita di intensità è proporzionale all'intensità locale; l'integrazione produce la legge di Beer–Lambert. -->
   <g transform="translate(7.2 413.005722) scale(0.1 -0.1)">
    <defs>
     <path id="DejaVuSans-49" d="M 628 4666 
L 1259 4666 
L 1259 0 
L 628 0 
L 628 4666 
z
" transform="scale(0.015625)"/>
     <path id="DejaVuSans-75" d="M 544 1381 
L 544 3500 
L 1119 3500 
L 1119 1403 
Q 1119 906 1312 657 
Q 1506 409 1894 409 
Q 2359 409 2629 706 
Q 2900 1003 2900 1516 
L 2900 3500 
L 3475 3500 
L 3475 0 
L 2900 0 
L 2900 538 
Q 2691 219 2414 64 
Q 2138 -91 1772 -91 
Q 1169 -91 856 284 
Q 544 659 544 1381 
z
M 1991 3584 
L 1991 3584 
z
" transform="scale(0.015625)"/>
     <path id="DejaVuSans-6c" d="M 603 4863 
L 1178 4863 
L 1178 0 
L 603 0 
L 603 4863 
z
" transform="scale(0.015625)"/>
     <path id="DejaVuSans-e8" d="M 3597 1894 
L 3597 1613 
L 953 1613 
Q 991 1019 1311 708 
Q 1631 397 2203 397 
Q 2534 397 2845 478 
Q 3156 559 3463 722 
L 3463 178 
Q 3153 47 2828 -22 
Q 2503 -91 2169 -91 
Q 1331 -91 842 396 
Q 353 884 353 1716 
Q 353 2575 817 3079 
Q 1281 3584 2069 3584 
Q 2775 3584 3186 3129 
Q 3597 2675 3597 1894 
z
M 3022 2063 
Q 3016 2534 2758 2815 
Q 2500 3097 2075 3097 
Q 1594 3097 1305 2825 
Q 1016 2553 972 2059 
L 3022 2063 
z
M 1579 5119 
L 2460 3950 
L 1982 3950 
L 963 5119 
L 1579 5119 
z
" transform="scale(0.015625)"/>
     <path id="DejaVuSans-27" d="M 1147 4666 
L 1147 2931 
L 616 2931 
L 616 4666 
L 1147 4666 
z
" transform="scale(0.015625)"/>
     <path id="DejaVuSans-3b" d="M 750 3309 
L 1409 3309 
L 1409 2516 
L 750 2516 
L 750 3309 
z
M 750 794 
L 1409 794 
L 1409 256 
L 897 -744 
L 494 -744 
L 750 256 
L 750 794 
z
" transform="scale(0.015625)"/>
     <path id="DejaVuSans-67" d="M 2906 1791 
Q 2906 2416 2648 2759 
Q 2391 3103 1925 3103 
Q 1463 3103 1205 2759 
Q 947 2416 947 1791 
Q 947 1169 1205 825 
Q 1463 481 1925 481 
Q 2391 481 2648 825 
Q 2906 1169 2906 1791 
z
M 3481 434 
Q 3481 -459 3084 -895 
Q 2688 -1331 1869 -1331 
Q 1566 -1331 1297 -1286 
Q 1028 -1241 775 -1147 
L 775 -588 
Q 1028 -725 1275 -790 
Q 1522 -856 1778 -856 
Q 2344 -856 2625 -561 
Q 2906 -266 2906 331 
L 2906 616 
Q 2728 306 2450 153 
Q 2172 0 1784 0 
Q 1141 0 747 490 
Q 353 981 353 1791 
Q 353 2603 747 3093 
Q 1141 3584 1784 3584 
Q 2172 3584 2450 3431 
Q 2728 3278 2906 2969 
L 2906 3500 
L 3481 3500 
L 3481 434 
z
" transform="scale(0.015625)"/>
     <path id="DejaVuSans-42" d="M 1259 2228 
L 1259 519 
L 2272 519 
Q 2781 519 3026 730 
Q 3272 941 3272 1375 
Q 3272 1813 3026 2020 
Q 2781 2228 2272 2228 
L 1259 2228 
z
M 1259 4147 
L 1259 2741 
L 2194 2741 
Q 2656 2741 2882 2914 
Q 3109 3088 3109 3444 
Q 3109 3797 2882 3972 
Q 2656 4147 2194 4147 
L 1259 4147 
z
M 628 4666 
L 2241 4666 
Q 2963 4666 3353 4366 
Q 3744 4066 3744 3513 
Q 3744 3084 3544 2831 
Q 3344 2578 2956 2516 
Q 3422 2416 3680 2098 
Q 3938 1781 3938 1306 
Q 3938 681 3513 340 
Q 3088 0 2303 0 
L 628 0 
L 628 4666 
z
" transform="scale(0.015625)"/>
     <path id="DejaVuSans-2013" d="M 313 1978 
L 2888 1978 
L 2888 1528 
L 313 1528 
L 313 1978 
z
" transform="scale(0.015625)"/>
     <path id="DejaVuSans-4c" d="M 628 4666 
L 1259 4666 
L 1259 531 
L 3531 531 
L 3531 0 
L 628 0 
L 628 4666 
z
" transform="scale(0.015625)"/>
     <path id="DejaVuSans-62" d="M 3116 1747 
Q 3116 2381 2855 2742 
Q 2594 3103 2138 3103 
Q 1681 3103 1420 2742 
Q 1159 2381 1159 1747 
Q 1159 1113 1420 752 
Q 1681 391 2138 391 
Q 2594 391 2855 752 
Q 3116 1113 3116 1747 
z
M 1159 2969 
Q 1341 3281 1617 3432 
Q 1894 3584 2278 3584 
Q 2916 3584 3314 3078 
Q 3713 2572 3713 1747 
Q 3713 922 3314 415 
Q 2916 -91 2278 -91 
Q 1894 -91 1617 61 
Q 1341 213 1159 525 
L 1159 0 
L 581 0 
L 581 4863 
L 1159 4863 
L 1159 2969 
z
" transform="scale(0.015625)"/>
     <path id="DejaVuSans-2e" d="M 684 794 
L 1344 794 
L 1344 0 
L 684 0 
L 684 794 
z
" transform="scale(0.015625)"/>
    </defs>
    <use xlink:href="#DejaVuSans-49"/>
    <use xlink:href="#DejaVuSans-6e" transform="translate(29.492188 0)"/>
    <use xlink:href="#DejaVuSans-20" transform="translate(92.871094 0)"/>
    <use xlink:href="#DejaVuSans-75" transform="translate(124.658203 0)"/>
    <use xlink:href="#DejaVuSans-6e" transform="translate(188.037109 0)"/>
    <use xlink:href="#DejaVuSans-6f" transform="translate(251.416016 0)"/>
    <use xlink:href="#DejaVuSans-20" transform="translate(312.597656 0)"/>
    <use xlink:href="#DejaVuSans-73" transform="translate(344.384766 0)"/>
    <use xlink:href="#DejaVuSans-74" transform="translate(396.484375 0)"/>
    <use xlink:href="#DejaVuSans-72" transform="translate(435.693359 0)"/>
    <use xlink:href="#DejaVuSans-61" transform="translate(476.806641 0)"/>
    <use xlink:href="#DejaVuSans-74" transform="translate(538.085938 0)"/>
    <use xlink:href="#DejaVuSans-6f" transform="translate(577.294922 0)"/>
    <use xlink:href="#DejaVuSans-20" transform="translate(638.476562 0)"/>
    <use xlink:href="#DejaVuSans-69" transform="translate(670.263672 0)"/>
    <use xlink:href="#DejaVuSans-6e" transform="translate(698.046875 0)"/>
    <use xlink:href="#DejaVuSans-66" transform="translate(761.425781 0)"/>
    <use xlink:href="#DejaVuSans-69" transform="translate(796.630859 0)"/>
    <use xlink:href="#DejaVuSans-6e" transform="translate(824.414062 0)"/>
    <use xlink:href="#DejaVuSans-69" transform="translate(887.792969 0)"/>
    <use xlink:href="#DejaVuSans-74" transform="translate(915.576172 0)"/>
    <use xlink:href="#DejaVuSans-65" transform="translate(954.785156 0)"/>
    <use xlink:href="#DejaVuSans-73" transform="translate(1016.308594 0)"/>
    <use xlink:href="#DejaVuSans-69" transform="translate(1068.408203 0)"/>
    <use xlink:href="#DejaVuSans-6d" transform="translate(1096.191406 0)"/>
    <use xlink:href="#DejaVuSans-6f" transform="translate(1193.603516 0)"/>
    <use xlink:href="#DejaVuSans-20" transform="translate(1254.785156 0)"/>
    <use xlink:href="#DejaVuSans-64" transform="translate(1286.572266 0)"/>
    <use xlink:href="#DejaVuSans-7a" transform="translate(1350.048828 0)"/>
    <use xlink:href="#DejaVuSans-20" transform="translate(1402.539062 0)"/>
    <use xlink:href="#DejaVuSans-6c" transform="translate(1434.326172 0)"/>
    <use xlink:href="#DejaVuSans-61" transform="translate(1462.109375 0)"/>
    <use xlink:href="#DejaVuSans-20" transform="translate(1523.388672 0)"/>
    <use xlink:href="#DejaVuSans-70" transform="translate(1555.175781 0)"/>
    <use xlink:href="#DejaVuSans-65" transform="translate(1618.652344 0)"/>
    <use xlink:href="#DejaVuSans-72" transform="translate(1680.175781 0)"/>
    <use xlink:href="#DejaVuSans-64" transform="translate(1719.539062 0)"/>
    <use xlink:href="#DejaVuSans-69" transform="translate(1783.015625 0)"/>
    <use xlink:href="#DejaVuSans-74" transform="translate(1810.798828 0)"/>
    <use xlink:href="#DejaVuSans-61" transform="translate(1850.007812 0)"/>
    <use xlink:href="#DejaVuSans-20" transform="translate(1911.287109 0)"/>
    <use xlink:href="#DejaVuSans-64" transform="translate(1943.074219 0)"/>
    <use xlink:href="#DejaVuSans-69" transform="translate(2006.550781 0)"/>
    <use xlink:href="#DejaVuSans-20" transform="translate(2034.333984 0)"/>
    <use xlink:href="#DejaVuSans-69" transform="translate(2066.121094 0)"/>
    <use xlink:href="#DejaVuSans-6e" transform="translate(2093.904297 0)"/>
    <use xlink:href="#DejaVuSans-74" transform="translate(2157.283203 0)"/>
    <use xlink:href="#DejaVuSans-65" transform="translate(2196.492188 0)"/>
    <use xlink:href="#DejaVuSans-6e" transform="translate(2258.015625 0)"/>
    <use xlink:href="#DejaVuSans-73" transform="translate(2321.394531 0)"/>
    <use xlink:href="#DejaVuSans-69" transform="translate(2373.494141 0)"/>
    <use xlink:href="#DejaVuSans-74" transform="translate(2401.277344 0)"/>
    <use xlink:href="#DejaVuSans-e0" transform="translate(2440.486328 0)"/>
    <use xlink:href="#DejaVuSans-20" transform="translate(2501.765625 0)"/>
    <use xlink:href="#DejaVuSans-e8" transform="translate(2533.552734 0)"/>
    <use xlink:href="#DejaVuSans-20" transform="translate(2595.076172 0)"/>
    <use xlink:href="#DejaVuSans-70" transform="translate(2626.863281 0)"/>
    <use xlink:href="#DejaVuSans-72" transform="translate(2690.339844 0)"/>
    <use xlink:href="#DejaVuSans-6f" transform="translate(2729.203125 0)"/>
    <use xlink:href="#DejaVuSans-70" transform="translate(2790.384766 0)"/>
    <use xlink:href="#DejaVuSans-6f" transform="translate(2853.861328 0)"/>
    <use xlink:href="#DejaVuSans-72" transform="translate(2915.042969 0)"/>
    <use xlink:href="#DejaVuSans-7a" transform="translate(2956.15625 0)"/>
    <use xlink:href="#DejaVuSans-69" transform="translate(3008.646484 0)"/>
    <use xlink:href="#DejaVuSans-6f" transform="translate(3036.429688 0)"/>
    <use xlink:href="#DejaVuSans-6e" transform="translate(3097.611328 0)"/>
    <use xlink:href="#DejaVuSans-61" transform="translate(3160.990234 0)"/>
    <use xlink:href="#DejaVuSans-6c" transform="translate(3222.269531 0)"/>
    <use xlink:href="#DejaVuSans-65" transform="translate(3250.052734 0)"/>
    <use xlink:href="#DejaVuSans-20" transform="translate(3311.576172 0)"/>
    <use xlink:href="#DejaVuSans-61" transform="translate(3343.363281 0)"/>
    <use xlink:href="#DejaVuSans-6c" transform="translate(3404.642578 0)"/>
    <use xlink:href="#DejaVuSans-6c" transform="translate(3432.425781 0)"/>
    <use xlink:href="#DejaVuSans-27" transform="translate(3460.208984 0)"/>
    <use xlink:href="#DejaVuSans-69" transform="translate(3487.699219 0)"/>
    <use xlink:href="#DejaVuSans-6e" transform="translate(3515.482422 0)"/>
    <use xlink:href="#DejaVuSans-74" transform="translate(3578.861328 0)"/>
    <use xlink:href="#DejaVuSans-65" transform="translate(3618.070312 0)"/>
    <use xlink:href="#DejaVuSans-6e" transform="translate(3679.59375 0)"/>
    <use xlink:href="#DejaVuSans-73" transform="translate(3742.972656 0)"/>
    <use xlink:href="#DejaVuSans-69" transform="translate(3795.072266 0)"/>
    <use xlink:href="#DejaVuSans-74" transform="translate(3822.855469 0)"/>
    <use xlink:href="#DejaVuSans-e0" transform="translate(3862.064453 0)"/>
    <use xlink:href="#DejaVuSans-20" transform="translate(3923.34375 0)"/>
    <use xlink:href="#DejaVuSans-6c" transform="translate(3955.130859 0)"/>
    <use xlink:href="#DejaVuSans-6f" transform="translate(3982.914062 0)"/>
    <use xlink:href="#DejaVuSans-63" transform="translate(4044.095703 0)"/>
    <use xlink:href="#DejaVuSans-61" transform="translate(4099.076172 0)"/>
    <use xlink:href="#DejaVuSans-6c" transform="translate(4160.355469 0)"/>
    <use xlink:href="#DejaVuSans-65" transform="translate(4188.138672 0)"/>
    <use xlink:href="#DejaVuSans-3b" transform="translate(4249.662109 0)"/>
    <use xlink:href="#DejaVuSans-20" transform="translate(4283.353516 0)"/>
    <use xlink:href="#DejaVuSans-6c" transform="translate(4315.140625 0)"/>
    <use xlink:href="#DejaVuSans-27" transform="translate(4342.923828 0)"/>
    <use xlink:href="#DejaVuSans-69" transform="translate(4370.414062 0)"/>
    <use xlink:href="#DejaVuSans-6e" transform="translate(4398.197266 0)"/>
    <use xlink:href="#DejaVuSans-74" transform="translate(4461.576172 0)"/>
    <use xlink:href="#DejaVuSans-65" transform="translate(4500.785156 0)"/>
    <use xlink:href="#DejaVuSans-67" transform="translate(4562.308594 0)"/>
    <use xlink:href="#DejaVuSans-72" transform="translate(4625.785156 0)"/>
    <use xlink:href="#DejaVuSans-61" transform="translate(4666.898438 0)"/>
    <use xlink:href="#DejaVuSans-7a" transform="translate(4728.177734 0)"/>
    <use xlink:href="#DejaVuSans-69" transform="translate(4780.667969 0)"/>
    <use xlink:href="#DejaVuSans-6f" transform="translate(4808.451172 0)"/>
    <use xlink:href="#DejaVuSans-6e" transform="translate(4869.632812 0)"/>
    <use xlink:href="#DejaVuSans-65" transform="translate(4933.011719 0)"/>
    <use xlink:href="#DejaVuSans-20" transform="translate(4994.535156 0)"/>
    <use xlink:href="#DejaVuSans-70" transform="translate(5026.322266 0)"/>
    <use xlink:href="#DejaVuSans-72" transform="translate(5089.798828 0)"/>
    <use xlink:href="#DejaVuSans-6f" transform="translate(5128.662109 0)"/>
    <use xlink:href="#DejaVuSans-64" transform="translate(5189.84375 0)"/>
    <use xlink:href="#DejaVuSans-75" transform="translate(5253.320312 0)"/>
    <use xlink:href="#DejaVuSans-63" transform="translate(5316.699219 0)"/>
    <use xlink:href="#DejaVuSans-65" transform="translate(5371.679688 0)"/>
    <use xlink:href="#DejaVuSans-20" transform="translate(5433.203125 0)"/>
    <use xlink:href="#DejaVuSans-6c" transform="translate(5464.990234 0)"/>
    <use xlink:href="#DejaVuSans-61" transform="translate(5492.773438 0)"/>
    <use xlink:href="#DejaVuSans-20" transform="translate(5554.052734 0)"/>
    <use xlink:href="#DejaVuSans-6c" transform="translate(5585.839844 0)"/>
    <use xlink:href="#DejaVuSans-65" transform="translate(5613.623047 0)"/>
    <use xlink:href="#DejaVuSans-67" transform="translate(5675.146484 0)"/>
    <use xlink:href="#DejaVuSans-67" transform="translate(5738.623047 0)"/>
    <use xlink:href="#DejaVuSans-65" transform="translate(5802.099609 0)"/>
    <use xlink:href="#DejaVuSans-20" transform="translate(5863.623047 0)"/>
    <use xlink:href="#DejaVuSans-64" transform="translate(5895.410156 0)"/>
    <use xlink:href="#DejaVuSans-69" transform="translate(5958.886719 0)"/>
    <use xlink:href="#DejaVuSans-20" transform="translate(5986.669922 0)"/>
    <use xlink:href="#DejaVuSans-42" transform="translate(6018.457031 0)"/>
    <use xlink:href="#DejaVuSans-65" transform="translate(6087.060547 0)"/>
    <use xlink:href="#DejaVuSans-65" transform="translate(6148.583984 0)"/>
    <use xlink:href="#DejaVuSans-72" transform="translate(6210.107422 0)"/>
    <use xlink:href="#DejaVuSans-2013" transform="translate(6251.220703 0)"/>
    <use xlink:href="#DejaVuSans-4c" transform="translate(6301.220703 0)"/>
    <use xlink:href="#DejaVuSans-61" transform="translate(6356.933594 0)"/>
    <use xlink:href="#DejaVuSans-6d" transform="translate(6418.212891 0)"/>
    <use xlink:href="#DejaVuSans-62" transform="translate(6515.625 0)"/>
    <use xlink:href="#DejaVuSans-65" transform="translate(6579.101562 0)"/>
    <use xlink:href="#DejaVuSans-72" transform="translate(6640.625 0)"/>
    <use xlink:href="#DejaVuSans-74" transform="translate(6681.738281 0)"/>
    <use xlink:href="#DejaVuSans-2e" transform="translate(6720.947266 0)"/>
   </g>
  </g>
 </g>
 <defs>
  <clipPath id="pd7ff953e83">
   <rect x="10.034375" y="30.597656" width="691.92" height="331.664132"/>
  </clipPath>
 </defs>
</svg>
