<?xml version="1.0" encoding="utf-8" standalone="no"?>
<!DOCTYPE svg PUBLIC "-//W3C//DTD SVG 1.1//EN"
  "http://www.w3.org/Graphics/SVG/1.1/DTD/svg11.dtd">
<svg xmlns:xlink="http://www.w3.org/1999/xlink" width="908.4pt" height="470.797344pt" viewBox="0 0 908.4 470.797344" xmlns="http://www.w3.org/2000/svg" version="1.1">
 <metadata>
  <rdf:RDF xmlns:dc="http://purl.org/dc/elements/1.1/" xmlns:cc="http://creativecommons.org/ns#" xmlns:rdf="http://www.w3.org/1999/02/22-rdf-syntax-ns#">
   <cc:Work>
    <dc:type rdf:resource="http://purl.org/dc/dcmitype/StillImage"/>
    <dc:date>2026-06-16T12:05:02.043033</dc:date>
    <dc:format>image/svg+xml</dc:format>
    <dc:creator>
     <cc:Agent>
      <dc:title>Matplotlib v3.10.8, https://matplotlib.org/</dc:title>
     </cc:Agent>
    </dc:creator>
   </cc:Work>
  </rdf:RDF>
 </metadata>
 <defs>
  <style type="text/css">*{stroke-linejoin: round; stroke-linecap: butt}</style>
 </defs>
 <g id="figure_1">
  <g id="patch_1">
   <path d="M 0 470.797344 
L 908.4 470.797344 
L 908.4 0 
L 0 0 
z
" style="fill: #ffffff"/>
  </g>
  <g id="axes_1">
   <g id="patch_2">
    <path d="M 168 418.677656 
L 759.48 418.677656 
L 759.48 30.597656 
L 168 30.597656 
z
" style="fill: #ffffff"/>
   </g>
   <g id="matplotlib.axis_1">
    <g id="xtick_1">
     <g id="line2d_1">
      <path d="M 168 418.677656 
L 168 30.597656 
" clip-path="url(#p6376f72a49)" style="fill: none; stroke: #b0b0b0; stroke-opacity: 0.14; stroke-width: 0.8; stroke-linecap: square"/>
     </g>
     <g id="line2d_2">
      <defs>
       <path id="m5cbaae3f70" d="M 0 0 
L 0 3.5 
" style="stroke: #000000; stroke-width: 0.8"/>
      </defs>
      <g>
       <use xlink:href="#m5cbaae3f70" x="168" y="418.677656" style="stroke: #000000; stroke-width: 0.8"/>
      </g>
     </g>
     <g id="text_1">
      <!-- 0.0 -->
      <g transform="translate(160.048438 433.276094) scale(0.1 -0.1)">
       <defs>
        <path id="DejaVuSans-30" d="M 2034 4250 
Q 1547 4250 1301 3770 
Q 1056 3291 1056 2328 
Q 1056 1369 1301 889 
Q 1547 409 2034 409 
Q 2525 409 2770 889 
Q 3016 1369 3016 2328 
Q 3016 3291 2770 3770 
Q 2525 4250 2034 4250 
z
M 2034 4750 
Q 2819 4750 3233 4129 
Q 3647 3509 3647 2328 
Q 3647 1150 3233 529 
Q 2819 -91 2034 -91 
Q 1250 -91 836 529 
Q 422 1150 422 2328 
Q 422 3509 836 4129 
Q 1250 4750 2034 4750 
z
" transform="scale(0.015625)"/>
        <path id="DejaVuSans-2e" d="M 684 794 
L 1344 794 
L 1344 0 
L 684 0 
L 684 794 
z
" transform="scale(0.015625)"/>
       </defs>
       <use xlink:href="#DejaVuSans-30"/>
       <use xlink:href="#DejaVuSans-2e" transform="translate(63.623047 0)"/>
       <use xlink:href="#DejaVuSans-30" transform="translate(95.410156 0)"/>
      </g>
     </g>
    </g>
    <g id="xtick_2">
     <g id="line2d_3">
      <path d="M 286.296 418.677656 
L 286.296 30.597656 
" clip-path="url(#p6376f72a49)" style="fill: none; stroke: #b0b0b0; stroke-opacity: 0.14; stroke-width: 0.8; stroke-linecap: square"/>
     </g>
     <g id="line2d_4">
      <g>
       <use xlink:href="#m5cbaae3f70" x="286.296" y="418.677656" style="stroke: #000000; stroke-width: 0.8"/>
      </g>
     </g>
     <g id="text_2">
      <!-- 0.2 -->
      <g transform="translate(278.344437 433.276094) scale(0.1 -0.1)">
       <defs>
        <path id="DejaVuSans-32" d="M 1228 531 
L 3431 531 
L 3431 0 
L 469 0 
L 469 531 
Q 828 903 1448 1529 
Q 2069 2156 2228 2338 
Q 2531 2678 2651 2914 
Q 2772 3150 2772 3378 
Q 2772 3750 2511 3984 
Q 2250 4219 1831 4219 
Q 1534 4219 1204 4116 
Q 875 4013 500 3803 
L 500 4441 
Q 881 4594 1212 4672 
Q 1544 4750 1819 4750 
Q 2544 4750 2975 4387 
Q 3406 4025 3406 3419 
Q 3406 3131 3298 2873 
Q 3191 2616 2906 2266 
Q 2828 2175 2409 1742 
Q 1991 1309 1228 531 
z
" transform="scale(0.015625)"/>
       </defs>
       <use xlink:href="#DejaVuSans-30"/>
       <use xlink:href="#DejaVuSans-2e" transform="translate(63.623047 0)"/>
       <use xlink:href="#DejaVuSans-32" transform="translate(95.410156 0)"/>
      </g>
     </g>
    </g>
    <g id="xtick_3">
     <g id="line2d_5">
      <path d="M 404.592 418.677656 
L 404.592 30.597656 
" clip-path="url(#p6376f72a49)" style="fill: none; stroke: #b0b0b0; stroke-opacity: 0.14; stroke-width: 0.8; stroke-linecap: square"/>
     </g>
     <g id="line2d_6">
      <g>
       <use xlink:href="#m5cbaae3f70" x="404.592" y="418.677656" style="stroke: #000000; stroke-width: 0.8"/>
      </g>
     </g>
     <g id="text_3">
      <!-- 0.4 -->
      <g transform="translate(396.640437 433.276094) scale(0.1 -0.1)">
       <defs>
        <path id="DejaVuSans-34" d="M 2419 4116 
L 825 1625 
L 2419 1625 
L 2419 4116 
z
M 2253 4666 
L 3047 4666 
L 3047 1625 
L 3713 1625 
L 3713 1100 
L 3047 1100 
L 3047 0 
L 2419 0 
L 2419 1100 
L 313 1100 
L 313 1709 
L 2253 4666 
z
" transform="scale(0.015625)"/>
       </defs>
       <use xlink:href="#DejaVuSans-30"/>
       <use xlink:href="#DejaVuSans-2e" transform="translate(63.623047 0)"/>
       <use xlink:href="#DejaVuSans-34" transform="translate(95.410156 0)"/>
      </g>
     </g>
    </g>
    <g id="xtick_4">
     <g id="line2d_7">
      <path d="M 522.888 418.677656 
L 522.888 30.597656 
" clip-path="url(#p6376f72a49)" style="fill: none; stroke: #b0b0b0; stroke-opacity: 0.14; stroke-width: 0.8; stroke-linecap: square"/>
     </g>
     <g id="line2d_8">
      <g>
       <use xlink:href="#m5cbaae3f70" x="522.888" y="418.677656" style="stroke: #000000; stroke-width: 0.8"/>
      </g>
     </g>
     <g id="text_4">
      <!-- 0.6 -->
      <g transform="translate(514.936438 433.276094) scale(0.1 -0.1)">
       <defs>
        <path id="DejaVuSans-36" d="M 2113 2584 
Q 1688 2584 1439 2293 
Q 1191 2003 1191 1497 
Q 1191 994 1439 701 
Q 1688 409 2113 409 
Q 2538 409 2786 701 
Q 3034 994 3034 1497 
Q 3034 2003 2786 2293 
Q 2538 2584 2113 2584 
z
M 3366 4563 
L 3366 3988 
Q 3128 4100 2886 4159 
Q 2644 4219 2406 4219 
Q 1781 4219 1451 3797 
Q 1122 3375 1075 2522 
Q 1259 2794 1537 2939 
Q 1816 3084 2150 3084 
Q 2853 3084 3261 2657 
Q 3669 2231 3669 1497 
Q 3669 778 3244 343 
Q 2819 -91 2113 -91 
Q 1303 -91 875 529 
Q 447 1150 447 2328 
Q 447 3434 972 4092 
Q 1497 4750 2381 4750 
Q 2619 4750 2861 4703 
Q 3103 4656 3366 4563 
z
" transform="scale(0.015625)"/>
       </defs>
       <use xlink:href="#DejaVuSans-30"/>
       <use xlink:href="#DejaVuSans-2e" transform="translate(63.623047 0)"/>
       <use xlink:href="#DejaVuSans-36" transform="translate(95.410156 0)"/>
      </g>
     </g>
    </g>
    <g id="xtick_5">
     <g id="line2d_9">
      <path d="M 641.184 418.677656 
L 641.184 30.597656 
" clip-path="url(#p6376f72a49)" style="fill: none; stroke: #b0b0b0; stroke-opacity: 0.14; stroke-width: 0.8; stroke-linecap: square"/>
     </g>
     <g id="line2d_10">
      <g>
       <use xlink:href="#m5cbaae3f70" x="641.184" y="418.677656" style="stroke: #000000; stroke-width: 0.8"/>
      </g>
     </g>
     <g id="text_5">
      <!-- 0.8 -->
      <g transform="translate(633.232437 433.276094) scale(0.1 -0.1)">
       <defs>
        <path id="DejaVuSans-38" d="M 2034 2216 
Q 1584 2216 1326 1975 
Q 1069 1734 1069 1313 
Q 1069 891 1326 650 
Q 1584 409 2034 409 
Q 2484 409 2743 651 
Q 3003 894 3003 1313 
Q 3003 1734 2745 1975 
Q 2488 2216 2034 2216 
z
M 1403 2484 
Q 997 2584 770 2862 
Q 544 3141 544 3541 
Q 544 4100 942 4425 
Q 1341 4750 2034 4750 
Q 2731 4750 3128 4425 
Q 3525 4100 3525 3541 
Q 3525 3141 3298 2862 
Q 3072 2584 2669 2484 
Q 3125 2378 3379 2068 
Q 3634 1759 3634 1313 
Q 3634 634 3220 271 
Q 2806 -91 2034 -91 
Q 1263 -91 848 271 
Q 434 634 434 1313 
Q 434 1759 690 2068 
Q 947 2378 1403 2484 
z
M 1172 3481 
Q 1172 3119 1398 2916 
Q 1625 2713 2034 2713 
Q 2441 2713 2670 2916 
Q 2900 3119 2900 3481 
Q 2900 3844 2670 4047 
Q 2441 4250 2034 4250 
Q 1625 4250 1398 4047 
Q 1172 3844 1172 3481 
z
" transform="scale(0.015625)"/>
       </defs>
       <use xlink:href="#DejaVuSans-30"/>
       <use xlink:href="#DejaVuSans-2e" transform="translate(63.623047 0)"/>
       <use xlink:href="#DejaVuSans-38" transform="translate(95.410156 0)"/>
      </g>
     </g>
    </g>
    <g id="xtick_6">
     <g id="line2d_11">
      <path d="M 759.48 418.677656 
L 759.48 30.597656 
" clip-path="url(#p6376f72a49)" style="fill: none; stroke: #b0b0b0; stroke-opacity: 0.14; stroke-width: 0.8; stroke-linecap: square"/>
     </g>
     <g id="line2d_12">
      <g>
       <use xlink:href="#m5cbaae3f70" x="759.48" y="418.677656" style="stroke: #000000; stroke-width: 0.8"/>
      </g>
     </g>
     <g id="text_6">
      <!-- 1.0 -->
      <g transform="translate(751.528437 433.276094) scale(0.1 -0.1)">
       <defs>
        <path id="DejaVuSans-31" d="M 794 531 
L 1825 531 
L 1825 4091 
L 703 3866 
L 703 4441 
L 1819 4666 
L 2450 4666 
L 2450 531 
L 3481 531 
L 3481 0 
L 794 0 
L 794 531 
z
" transform="scale(0.015625)"/>
       </defs>
       <use xlink:href="#DejaVuSans-31"/>
       <use xlink:href="#DejaVuSans-2e" transform="translate(63.623047 0)"/>
       <use xlink:href="#DejaVuSans-30" transform="translate(95.410156 0)"/>
      </g>
     </g>
    </g>
    <g id="text_7">
     <!-- inverso della temperatura $1/T$ -->
     <g transform="translate(389.09 446.955781) scale(0.1 -0.1)">
      <defs>
       <path id="DejaVuSans-69" d="M 603 3500 
L 1178 3500 
L 1178 0 
L 603 0 
L 603 3500 
z
M 603 4863 
L 1178 4863 
L 1178 4134 
L 603 4134 
L 603 4863 
z
" transform="scale(0.015625)"/>
       <path id="DejaVuSans-6e" d="M 3513 2113 
L 3513 0 
L 2938 0 
L 2938 2094 
Q 2938 2591 2744 2837 
Q 2550 3084 2163 3084 
Q 1697 3084 1428 2787 
Q 1159 2491 1159 1978 
L 1159 0 
L 581 0 
L 581 3500 
L 1159 3500 
L 1159 2956 
Q 1366 3272 1645 3428 
Q 1925 3584 2291 3584 
Q 2894 3584 3203 3211 
Q 3513 2838 3513 2113 
z
" transform="scale(0.015625)"/>
       <path id="DejaVuSans-76" d="M 191 3500 
L 800 3500 
L 1894 563 
L 2988 3500 
L 3597 3500 
L 2284 0 
L 1503 0 
L 191 3500 
z
" transform="scale(0.015625)"/>
       <path id="DejaVuSans-65" d="M 3597 1894 
L 3597 1613 
L 953 1613 
Q 991 1019 1311 708 
Q 1631 397 2203 397 
Q 2534 397 2845 478 
Q 3156 559 3463 722 
L 3463 178 
Q 3153 47 2828 -22 
Q 2503 -91 2169 -91 
Q 1331 -91 842 396 
Q 353 884 353 1716 
Q 353 2575 817 3079 
Q 1281 3584 2069 3584 
Q 2775 3584 3186 3129 
Q 3597 2675 3597 1894 
z
M 3022 2063 
Q 3016 2534 2758 2815 
Q 2500 3097 2075 3097 
Q 1594 3097 1305 2825 
Q 1016 2553 972 2059 
L 3022 2063 
z
" transform="scale(0.015625)"/>
       <path id="DejaVuSans-72" d="M 2631 2963 
Q 2534 3019 2420 3045 
Q 2306 3072 2169 3072 
Q 1681 3072 1420 2755 
Q 1159 2438 1159 1844 
L 1159 0 
L 581 0 
L 581 3500 
L 1159 3500 
L 1159 2956 
Q 1341 3275 1631 3429 
Q 1922 3584 2338 3584 
Q 2397 3584 2469 3576 
Q 2541 3569 2628 3553 
L 2631 2963 
z
" transform="scale(0.015625)"/>
       <path id="DejaVuSans-73" d="M 2834 3397 
L 2834 2853 
Q 2591 2978 2328 3040 
Q 2066 3103 1784 3103 
Q 1356 3103 1142 2972 
Q 928 2841 928 2578 
Q 928 2378 1081 2264 
Q 1234 2150 1697 2047 
L 1894 2003 
Q 2506 1872 2764 1633 
Q 3022 1394 3022 966 
Q 3022 478 2636 193 
Q 2250 -91 1575 -91 
Q 1294 -91 989 -36 
Q 684 19 347 128 
L 347 722 
Q 666 556 975 473 
Q 1284 391 1588 391 
Q 1994 391 2212 530 
Q 2431 669 2431 922 
Q 2431 1156 2273 1281 
Q 2116 1406 1581 1522 
L 1381 1569 
Q 847 1681 609 1914 
Q 372 2147 372 2553 
Q 372 3047 722 3315 
Q 1072 3584 1716 3584 
Q 2034 3584 2315 3537 
Q 2597 3491 2834 3397 
z
" transform="scale(0.015625)"/>
       <path id="DejaVuSans-6f" d="M 1959 3097 
Q 1497 3097 1228 2736 
Q 959 2375 959 1747 
Q 959 1119 1226 758 
Q 1494 397 1959 397 
Q 2419 397 2687 759 
Q 2956 1122 2956 1747 
Q 2956 2369 2687 2733 
Q 2419 3097 1959 3097 
z
M 1959 3584 
Q 2709 3584 3137 3096 
Q 3566 2609 3566 1747 
Q 3566 888 3137 398 
Q 2709 -91 1959 -91 
Q 1206 -91 779 398 
Q 353 888 353 1747 
Q 353 2609 779 3096 
Q 1206 3584 1959 3584 
z
" transform="scale(0.015625)"/>
       <path id="DejaVuSans-20" transform="scale(0.015625)"/>
       <path id="DejaVuSans-64" d="M 2906 2969 
L 2906 4863 
L 3481 4863 
L 3481 0 
L 2906 0 
L 2906 525 
Q 2725 213 2448 61 
Q 2172 -91 1784 -91 
Q 1150 -91 751 415 
Q 353 922 353 1747 
Q 353 2572 751 3078 
Q 1150 3584 1784 3584 
Q 2172 3584 2448 3432 
Q 2725 3281 2906 2969 
z
M 947 1747 
Q 947 1113 1208 752 
Q 1469 391 1925 391 
Q 2381 391 2643 752 
Q 2906 1113 2906 1747 
Q 2906 2381 2643 2742 
Q 2381 3103 1925 3103 
Q 1469 3103 1208 2742 
Q 947 2381 947 1747 
z
" transform="scale(0.015625)"/>
       <path id="DejaVuSans-6c" d="M 603 4863 
L 1178 4863 
L 1178 0 
L 603 0 
L 603 4863 
z
" transform="scale(0.015625)"/>
       <path id="DejaVuSans-61" d="M 2194 1759 
Q 1497 1759 1228 1600 
Q 959 1441 959 1056 
Q 959 750 1161 570 
Q 1363 391 1709 391 
Q 2188 391 2477 730 
Q 2766 1069 2766 1631 
L 2766 1759 
L 2194 1759 
z
M 3341 1997 
L 3341 0 
L 2766 0 
L 2766 531 
Q 2569 213 2275 61 
Q 1981 -91 1556 -91 
Q 1019 -91 701 211 
Q 384 513 384 1019 
Q 384 1609 779 1909 
Q 1175 2209 1959 2209 
L 2766 2209 
L 2766 2266 
Q 2766 2663 2505 2880 
Q 2244 3097 1772 3097 
Q 1472 3097 1187 3025 
Q 903 2953 641 2809 
L 641 3341 
Q 956 3463 1253 3523 
Q 1550 3584 1831 3584 
Q 2591 3584 2966 3190 
Q 3341 2797 3341 1997 
z
" transform="scale(0.015625)"/>
       <path id="DejaVuSans-74" d="M 1172 4494 
L 1172 3500 
L 2356 3500 
L 2356 3053 
L 1172 3053 
L 1172 1153 
Q 1172 725 1289 603 
Q 1406 481 1766 481 
L 2356 481 
L 2356 0 
L 1766 0 
Q 1100 0 847 248 
Q 594 497 594 1153 
L 594 3053 
L 172 3053 
L 172 3500 
L 594 3500 
L 594 4494 
L 1172 4494 
z
" transform="scale(0.015625)"/>
       <path id="DejaVuSans-6d" d="M 3328 2828 
Q 3544 3216 3844 3400 
Q 4144 3584 4550 3584 
Q 5097 3584 5394 3201 
Q 5691 2819 5691 2113 
L 5691 0 
L 5113 0 
L 5113 2094 
Q 5113 2597 4934 2840 
Q 4756 3084 4391 3084 
Q 3944 3084 3684 2787 
Q 3425 2491 3425 1978 
L 3425 0 
L 2847 0 
L 2847 2094 
Q 2847 2600 2669 2842 
Q 2491 3084 2119 3084 
Q 1678 3084 1418 2786 
Q 1159 2488 1159 1978 
L 1159 0 
L 581 0 
L 581 3500 
L 1159 3500 
L 1159 2956 
Q 1356 3278 1631 3431 
Q 1906 3584 2284 3584 
Q 2666 3584 2933 3390 
Q 3200 3197 3328 2828 
z
" transform="scale(0.015625)"/>
       <path id="DejaVuSans-70" d="M 1159 525 
L 1159 -1331 
L 581 -1331 
L 581 3500 
L 1159 3500 
L 1159 2969 
Q 1341 3281 1617 3432 
Q 1894 3584 2278 3584 
Q 2916 3584 3314 3078 
Q 3713 2572 3713 1747 
Q 3713 922 3314 415 
Q 2916 -91 2278 -91 
Q 1894 -91 1617 61 
Q 1341 213 1159 525 
z
M 3116 1747 
Q 3116 2381 2855 2742 
Q 2594 3103 2138 3103 
Q 1681 3103 1420 2742 
Q 1159 2381 1159 1747 
Q 1159 1113 1420 752 
Q 1681 391 2138 391 
Q 2594 391 2855 752 
Q 3116 1113 3116 1747 
z
" transform="scale(0.015625)"/>
       <path id="DejaVuSans-75" d="M 544 1381 
L 544 3500 
L 1119 3500 
L 1119 1403 
Q 1119 906 1312 657 
Q 1506 409 1894 409 
Q 2359 409 2629 706 
Q 2900 1003 2900 1516 
L 2900 3500 
L 3475 3500 
L 3475 0 
L 2900 0 
L 2900 538 
Q 2691 219 2414 64 
Q 2138 -91 1772 -91 
Q 1169 -91 856 284 
Q 544 659 544 1381 
z
M 1991 3584 
L 1991 3584 
z
" transform="scale(0.015625)"/>
       <path id="DejaVuSans-2f" d="M 1625 4666 
L 2156 4666 
L 531 -594 
L 0 -594 
L 1625 4666 
z
" transform="scale(0.015625)"/>
       <path id="DejaVuSans-Oblique-54" d="M 378 4666 
L 4325 4666 
L 4225 4134 
L 2559 4134 
L 1759 0 
L 1125 0 
L 1925 4134 
L 275 4134 
L 378 4666 
z
" transform="scale(0.015625)"/>
      </defs>
      <use xlink:href="#DejaVuSans-69" transform="translate(0 0.015625)"/>
      <use xlink:href="#DejaVuSans-6e" transform="translate(27.783203 0.015625)"/>
      <use xlink:href="#DejaVuSans-76" transform="translate(91.162109 0.015625)"/>
      <use xlink:href="#DejaVuSans-65" transform="translate(150.341797 0.015625)"/>
      <use xlink:href="#DejaVuSans-72" transform="translate(211.865234 0.015625)"/>
      <use xlink:href="#DejaVuSans-73" transform="translate(252.978516 0.015625)"/>
      <use xlink:href="#DejaVuSans-6f" transform="translate(305.078125 0.015625)"/>
      <use xlink:href="#DejaVuSans-20" transform="translate(366.259766 0.015625)"/>
      <use xlink:href="#DejaVuSans-64" transform="translate(398.046875 0.015625)"/>
      <use xlink:href="#DejaVuSans-65" transform="translate(461.523438 0.015625)"/>
      <use xlink:href="#DejaVuSans-6c" transform="translate(523.046875 0.015625)"/>
      <use xlink:href="#DejaVuSans-6c" transform="translate(550.830078 0.015625)"/>
      <use xlink:href="#DejaVuSans-61" transform="translate(578.613281 0.015625)"/>
      <use xlink:href="#DejaVuSans-20" transform="translate(639.892578 0.015625)"/>
      <use xlink:href="#DejaVuSans-74" transform="translate(671.679688 0.015625)"/>
      <use xlink:href="#DejaVuSans-65" transform="translate(710.888672 0.015625)"/>
      <use xlink:href="#DejaVuSans-6d" transform="translate(772.412109 0.015625)"/>
      <use xlink:href="#DejaVuSans-70" transform="translate(869.824219 0.015625)"/>
      <use xlink:href="#DejaVuSans-65" transform="translate(933.300781 0.015625)"/>
      <use xlink:href="#DejaVuSans-72" transform="translate(994.824219 0.015625)"/>
      <use xlink:href="#DejaVuSans-61" transform="translate(1035.9375 0.015625)"/>
      <use xlink:href="#DejaVuSans-74" transform="translate(1097.216797 0.015625)"/>
      <use xlink:href="#DejaVuSans-75" transform="translate(1136.425781 0.015625)"/>
      <use xlink:href="#DejaVuSans-72" transform="translate(1199.804688 0.015625)"/>
      <use xlink:href="#DejaVuSans-61" transform="translate(1240.917969 0.015625)"/>
      <use xlink:href="#DejaVuSans-20" transform="translate(1302.197266 0.015625)"/>
      <use xlink:href="#DejaVuSans-31" transform="translate(1333.984375 0.015625)"/>
      <use xlink:href="#DejaVuSans-2f" transform="translate(1397.607422 0.015625)"/>
      <use xlink:href="#DejaVuSans-Oblique-54" transform="translate(1431.298828 0.015625)"/>
     </g>
    </g>
   </g>
   <g id="matplotlib.axis_2">
    <g id="text_8">
     <!-- grandezze normalizzate, scala qualitativa -->
     <g transform="translate(161.920312 328.743125) rotate(-90) scale(0.1 -0.1)">
      <defs>
       <path id="DejaVuSans-67" d="M 2906 1791 
Q 2906 2416 2648 2759 
Q 2391 3103 1925 3103 
Q 1463 3103 1205 2759 
Q 947 2416 947 1791 
Q 947 1169 1205 825 
Q 1463 481 1925 481 
Q 2391 481 2648 825 
Q 2906 1169 2906 1791 
z
M 3481 434 
Q 3481 -459 3084 -895 
Q 2688 -1331 1869 -1331 
Q 1566 -1331 1297 -1286 
Q 1028 -1241 775 -1147 
L 775 -588 
Q 1028 -725 1275 -790 
Q 1522 -856 1778 -856 
Q 2344 -856 2625 -561 
Q 2906 -266 2906 331 
L 2906 616 
Q 2728 306 2450 153 
Q 2172 0 1784 0 
Q 1141 0 747 490 
Q 353 981 353 1791 
Q 353 2603 747 3093 
Q 1141 3584 1784 3584 
Q 2172 3584 2450 3431 
Q 2728 3278 2906 2969 
L 2906 3500 
L 3481 3500 
L 3481 434 
z
" transform="scale(0.015625)"/>
       <path id="DejaVuSans-7a" d="M 353 3500 
L 3084 3500 
L 3084 2975 
L 922 459 
L 3084 459 
L 3084 0 
L 275 0 
L 275 525 
L 2438 3041 
L 353 3041 
L 353 3500 
z
" transform="scale(0.015625)"/>
       <path id="DejaVuSans-2c" d="M 750 794 
L 1409 794 
L 1409 256 
L 897 -744 
L 494 -744 
L 750 256 
L 750 794 
z
" transform="scale(0.015625)"/>
       <path id="DejaVuSans-63" d="M 3122 3366 
L 3122 2828 
Q 2878 2963 2633 3030 
Q 2388 3097 2138 3097 
Q 1578 3097 1268 2742 
Q 959 2388 959 1747 
Q 959 1106 1268 751 
Q 1578 397 2138 397 
Q 2388 397 2633 464 
Q 2878 531 3122 666 
L 3122 134 
Q 2881 22 2623 -34 
Q 2366 -91 2075 -91 
Q 1284 -91 818 406 
Q 353 903 353 1747 
Q 353 2603 823 3093 
Q 1294 3584 2113 3584 
Q 2378 3584 2631 3529 
Q 2884 3475 3122 3366 
z
" transform="scale(0.015625)"/>
       <path id="DejaVuSans-71" d="M 947 1747 
Q 947 1113 1208 752 
Q 1469 391 1925 391 
Q 2381 391 2643 752 
Q 2906 1113 2906 1747 
Q 2906 2381 2643 2742 
Q 2381 3103 1925 3103 
Q 1469 3103 1208 2742 
Q 947 2381 947 1747 
z
M 2906 525 
Q 2725 213 2448 61 
Q 2172 -91 1784 -91 
Q 1150 -91 751 415 
Q 353 922 353 1747 
Q 353 2572 751 3078 
Q 1150 3584 1784 3584 
Q 2172 3584 2448 3432 
Q 2725 3281 2906 2969 
L 2906 3500 
L 3481 3500 
L 3481 -1331 
L 2906 -1331 
L 2906 525 
z
" transform="scale(0.015625)"/>
      </defs>
      <use xlink:href="#DejaVuSans-67"/>
      <use xlink:href="#DejaVuSans-72" transform="translate(63.476562 0)"/>
      <use xlink:href="#DejaVuSans-61" transform="translate(104.589844 0)"/>
      <use xlink:href="#DejaVuSans-6e" transform="translate(165.869141 0)"/>
      <use xlink:href="#DejaVuSans-64" transform="translate(229.248047 0)"/>
      <use xlink:href="#DejaVuSans-65" transform="translate(292.724609 0)"/>
      <use xlink:href="#DejaVuSans-7a" transform="translate(354.248047 0)"/>
      <use xlink:href="#DejaVuSans-7a" transform="translate(406.738281 0)"/>
      <use xlink:href="#DejaVuSans-65" transform="translate(459.228516 0)"/>
      <use xlink:href="#DejaVuSans-20" transform="translate(520.751953 0)"/>
      <use xlink:href="#DejaVuSans-6e" transform="translate(552.539062 0)"/>
      <use xlink:href="#DejaVuSans-6f" transform="translate(615.917969 0)"/>
      <use xlink:href="#DejaVuSans-72" transform="translate(677.099609 0)"/>
      <use xlink:href="#DejaVuSans-6d" transform="translate(716.462891 0)"/>
      <use xlink:href="#DejaVuSans-61" transform="translate(813.875 0)"/>
      <use xlink:href="#DejaVuSans-6c" transform="translate(875.154297 0)"/>
      <use xlink:href="#DejaVuSans-69" transform="translate(902.9375 0)"/>
      <use xlink:href="#DejaVuSans-7a" transform="translate(930.720703 0)"/>
      <use xlink:href="#DejaVuSans-7a" transform="translate(983.210938 0)"/>
      <use xlink:href="#DejaVuSans-61" transform="translate(1035.701172 0)"/>
      <use xlink:href="#DejaVuSans-74" transform="translate(1096.980469 0)"/>
      <use xlink:href="#DejaVuSans-65" transform="translate(1136.189453 0)"/>
      <use xlink:href="#DejaVuSans-2c" transform="translate(1197.712891 0)"/>
      <use xlink:href="#DejaVuSans-20" transform="translate(1229.5 0)"/>
      <use xlink:href="#DejaVuSans-73" transform="translate(1261.287109 0)"/>
      <use xlink:href="#DejaVuSans-63" transform="translate(1313.386719 0)"/>
      <use xlink:href="#DejaVuSans-61" transform="translate(1368.367188 0)"/>
      <use xlink:href="#DejaVuSans-6c" transform="translate(1429.646484 0)"/>
      <use xlink:href="#DejaVuSans-61" transform="translate(1457.429688 0)"/>
      <use xlink:href="#DejaVuSans-20" transform="translate(1518.708984 0)"/>
      <use xlink:href="#DejaVuSans-71" transform="translate(1550.496094 0)"/>
      <use xlink:href="#DejaVuSans-75" transform="translate(1613.972656 0)"/>
      <use xlink:href="#DejaVuSans-61" transform="translate(1677.351562 0)"/>
      <use xlink:href="#DejaVuSans-6c" transform="translate(1738.630859 0)"/>
      <use xlink:href="#DejaVuSans-69" transform="translate(1766.414062 0)"/>
      <use xlink:href="#DejaVuSans-74" transform="translate(1794.197266 0)"/>
      <use xlink:href="#DejaVuSans-61" transform="translate(1833.40625 0)"/>
      <use xlink:href="#DejaVuSans-74" transform="translate(1894.685547 0)"/>
      <use xlink:href="#DejaVuSans-69" transform="translate(1933.894531 0)"/>
      <use xlink:href="#DejaVuSans-76" transform="translate(1961.677734 0)"/>
      <use xlink:href="#DejaVuSans-61" transform="translate(2020.857422 0)"/>
     </g>
    </g>
   </g>
   <g id="line2d_13">
    <path d="M 168 94.683295 
L 177.211034 90.903316 
L 183.132414 88.683457 
L 188.395862 86.950896 
L 192.343448 85.857541 
L 196.291034 84.989985 
L 199.58069 84.474959 
L 202.870345 84.181789 
L 206.16 84.14322 
L 208.791724 84.318659 
L 211.423448 84.696984 
L 214.055172 85.29645 
L 216.686897 86.135282 
L 219.318621 87.231384 
L 221.950345 88.602003 
L 224.582069 90.263364 
L 227.213793 92.230253 
L 229.845517 94.515593 
L 232.477241 97.129984 
L 235.108966 100.081259 
L 237.74069 103.374045 
L 240.372414 107.009357 
L 243.004138 110.984253 
L 246.293793 116.419062 
L 249.583448 122.349199 
L 252.873103 128.740022 
L 256.82069 136.952744 
L 260.768276 145.666787 
L 266.031724 157.867899 
L 275.242759 179.967904 
L 282.48 197.085772 
L 287.743448 208.940078 
L 291.691034 217.345944 
L 295.638621 225.254393 
L 299.586207 232.61184 
L 302.875862 238.295929 
L 306.165517 243.560599 
L 309.455172 248.401334 
L 312.744828 252.81996 
L 316.034483 256.823706 
L 319.324138 260.424253 
L 322.613793 263.636841 
L 325.903448 266.479426 
L 329.193103 268.971935 
L 332.482759 271.135604 
L 335.772414 272.992427 
L 339.062069 274.564684 
L 342.351724 275.874569 
L 345.641379 276.943889 
L 348.931034 277.793836 
L 352.22069 278.444821 
L 356.168276 278.990773 
L 360.115862 279.310106 
L 364.721379 279.435772 
L 369.326897 279.336859 
L 374.590345 278.999455 
L 380.511724 278.396911 
L 387.748966 277.432844 
L 398.275862 275.781929 
L 417.355862 272.760461 
L 426.566897 271.550412 
L 434.462069 270.733908 
L 441.69931 270.200315 
L 448.936552 269.896332 
L 455.515862 269.833986 
L 462.095172 269.98521 
L 468.674483 270.356185 
L 475.253793 270.950236 
L 481.833103 271.768127 
L 488.412414 272.808355 
L 494.991724 274.067437 
L 501.571034 275.540212 
L 508.808276 277.399257 
L 516.045517 279.498854 
L 523.282759 281.828004 
L 531.177931 284.617502 
L 539.073103 287.652958 
L 546.968276 290.922502 
L 554.863448 294.417685 
L 563.416552 298.454868 
L 571.311724 302.416557 
L 579.206897 306.615779 
L 587.102069 311.073166 
L 594.33931 315.410697 
L 601.576552 320.016709 
L 608.155862 324.460405 
L 614.735172 329.166057 
L 621.314483 334.141202 
L 628.551724 339.91364 
L 636.446897 346.514495 
L 650.921379 359.005426 
L 659.474483 366.21059 
L 665.395862 370.930293 
L 670.65931 374.859866 
L 675.264828 378.054168 
L 679.870345 380.997994 
L 684.475862 383.679793 
L 689.081379 386.097274 
L 693.686897 388.256186 
L 698.292414 390.168658 
L 702.897931 391.851389 
L 708.161379 393.518323 
L 713.424828 394.941888 
L 719.346207 396.291224 
L 725.267586 397.413774 
L 731.846897 398.440725 
L 739.084138 399.353535 
L 747.637241 400.203377 
L 757.506207 400.952256 
L 759.48 401.078398 
L 759.48 401.078398 
" clip-path="url(#p6376f72a49)" style="fill: none; stroke: #1f77b4; stroke-width: 2.6; stroke-linecap: square"/>
   </g>
   <g id="line2d_14">
    <path d="M 168 359.487354 
L 175.237241 357.009238 
L 182.474483 354.283779 
L 189.053793 351.580141 
L 195.633103 348.65153 
L 202.212414 345.489265 
L 208.791724 342.085621 
L 215.371034 338.434009 
L 221.950345 334.529163 
L 228.529655 330.367335 
L 235.108966 325.946475 
L 241.688276 321.266417 
L 248.267586 316.329054 
L 255.504828 310.605748 
L 262.742069 304.584927 
L 269.97931 298.279059 
L 277.874483 291.094098 
L 285.769655 283.615926 
L 294.322759 275.221208 
L 304.191724 265.218259 
L 316.034483 252.885775 
L 354.194483 212.859345 
L 362.747586 204.332722 
L 370.642759 196.771324 
L 377.88 190.16221 
L 384.45931 184.46723 
L 390.38069 179.629909 
L 396.302069 175.093709 
L 401.565517 171.335252 
L 406.828966 167.852338 
L 412.092414 164.661081 
L 416.697931 162.11975 
L 421.303448 159.82236 
L 425.908966 157.777283 
L 430.514483 155.992023 
L 435.12 154.47317 
L 439.067586 153.38763 
L 443.015172 152.504942 
L 446.962759 151.82753 
L 450.910345 151.357256 
L 454.857931 151.095416 
L 458.805517 151.042733 
L 462.753103 151.199351 
L 466.70069 151.564839 
L 470.648276 152.13819 
L 474.595862 152.917823 
L 478.543448 153.901598 
L 482.491034 155.086818 
L 487.096552 156.71983 
L 491.702069 158.616557 
L 496.307586 160.770016 
L 500.913103 163.172327 
L 505.518621 165.814764 
L 510.782069 169.116474 
L 516.045517 172.703971 
L 521.308966 176.560729 
L 527.230345 181.199562 
L 533.151724 186.130671 
L 539.731034 191.919055 
L 546.968276 198.61736 
L 554.863448 206.259521 
L 563.416552 214.854012 
L 573.943448 225.754323 
L 591.707586 244.531181 
L 608.155862 261.808807 
L 619.34069 273.23223 
L 628.551724 282.330473 
L 637.104828 290.469441 
L 645 297.680436 
L 652.237241 304.01197 
L 659.474483 310.059805 
L 666.711724 315.811124 
L 673.948966 321.256798 
L 680.528276 325.937373 
L 687.107586 330.358752 
L 693.686897 334.521097 
L 700.266207 338.426453 
L 706.845517 342.078567 
L 713.424828 345.482701 
L 720.004138 348.645442 
L 726.583448 351.574512 
L 733.162759 354.27859 
L 740.4 357.004511 
L 747.637241 359.483064 
L 754.874483 361.7283 
L 759.48 363.04221 
L 759.48 363.04221 
" clip-path="url(#p6376f72a49)" style="fill: none; stroke-dasharray: 8.14,3.52; stroke-dashoffset: 0; stroke: #ff7f0e; stroke-width: 2.2"/>
   </g>
   <g id="line2d_15">
    <path d="M 168 105.009931 
L 172.605517 106.364084 
L 177.211034 107.952598 
L 181.158621 109.52839 
L 185.106207 111.328808 
L 189.053793 113.381696 
L 193.001379 115.717046 
L 196.291034 117.901887 
L 199.58069 120.324239 
L 202.870345 123.00382 
L 206.16 125.960496 
L 209.449655 129.213877 
L 212.73931 132.782823 
L 216.028966 136.684849 
L 219.318621 140.935449 
L 222.608276 145.547331 
L 225.897931 150.529601 
L 229.187586 155.886911 
L 232.477241 161.618624 
L 236.424828 168.98099 
L 240.372414 176.848052 
L 244.32 185.180372 
L 248.925517 195.415564 
L 254.188966 207.651504 
L 262.084138 226.64219 
L 272.611034 251.91185 
L 277.874483 263.998488 
L 282.48 274.059832 
L 286.427586 282.217909 
L 290.375172 289.893662 
L 294.322759 297.053537 
L 297.612414 302.611977 
L 300.902069 307.79501 
L 304.191724 312.604554 
L 307.481379 317.047434 
L 310.771034 321.134532 
L 314.06069 324.879947 
L 317.350345 328.300202 
L 320.64 331.413514 
L 323.929655 334.23916 
L 327.21931 336.796924 
L 330.508966 339.106651 
L 334.456552 341.578377 
L 338.404138 343.75362 
L 342.351724 345.663252 
L 346.29931 347.336099 
L 350.904828 349.023842 
L 355.510345 350.463692 
L 360.773793 351.849229 
L 366.037241 352.999856 
L 371.958621 354.060831 
L 378.537931 355.002971 
L 385.775172 355.810451 
L 394.328276 356.527098 
L 404.197241 357.118163 
L 416.04 357.59543 
L 431.172414 357.969054 
L 451.568276 358.236641 
L 485.78069 358.432118 
L 535.783448 358.740272 
L 554.863448 359.081802 
L 568.68 359.544393 
L 579.206897 360.10368 
L 588.417931 360.810395 
L 596.313103 361.634547 
L 603.550345 362.615602 
L 610.129655 363.733766 
L 616.051034 364.952819 
L 621.972414 366.394968 
L 627.893793 368.074051 
L 633.815172 369.993064 
L 639.736552 372.140337 
L 646.315862 374.757966 
L 654.868966 378.417176 
L 672.633103 386.099279 
L 679.212414 388.679954 
L 685.133793 390.786727 
L 691.055172 392.661823 
L 696.976552 394.296524 
L 702.897931 395.696128 
L 708.81931 396.876023 
L 715.398621 397.955681 
L 722.635862 398.900869 
L 730.531034 399.693314 
L 739.084138 400.330422 
L 749.611034 400.8796 
L 759.48 401.226959 
L 759.48 401.226959 
" clip-path="url(#p6376f72a49)" style="fill: none; stroke-dasharray: 14.08,3.52,2.2,3.52; stroke-dashoffset: 0; stroke: #2ca02c; stroke-width: 2.2"/>
   </g>
   <g id="line2d_16">
    <path d="M 309.9552 418.677656 
L 309.9552 30.597656 
" clip-path="url(#p6376f72a49)" style="fill: none; stroke-dasharray: 1,1.65; stroke-dashoffset: 0; stroke: #1f77b4"/>
   </g>
   <g id="line2d_17">
    <path d="M 558.3768 418.677656 
L 558.3768 30.597656 
" clip-path="url(#p6376f72a49)" style="fill: none; stroke-dasharray: 1,1.65; stroke-dashoffset: 0; stroke: #1f77b4"/>
   </g>
   <g id="patch_3">
    <path d="M 168 418.677656 
L 168 30.597656 
" style="fill: none; stroke: #000000; stroke-width: 0.8; stroke-linejoin: miter; stroke-linecap: square"/>
   </g>
   <g id="patch_4">
    <path d="M 759.48 418.677656 
L 759.48 30.597656 
" style="fill: none; stroke: #000000; stroke-width: 0.8; stroke-linejoin: miter; stroke-linecap: square"/>
   </g>
   <g id="patch_5">
    <path d="M 168 418.677656 
L 759.48 418.677656 
" style="fill: none; stroke: #000000; stroke-width: 0.8; stroke-linejoin: miter; stroke-linecap: square"/>
   </g>
   <g id="patch_6">
    <path d="M 168 30.597656 
L 759.48 30.597656 
" style="fill: none; stroke: #000000; stroke-width: 0.8; stroke-linejoin: miter; stroke-linecap: square"/>
   </g>
   <g id="text_9">
    <!-- regione -->
    <g transform="translate(221.034475 60.105941) scale(0.095 -0.095)">
     <use xlink:href="#DejaVuSans-72"/>
     <use xlink:href="#DejaVuSans-65" transform="translate(38.863281 0)"/>
     <use xlink:href="#DejaVuSans-67" transform="translate(100.386719 0)"/>
     <use xlink:href="#DejaVuSans-69" transform="translate(163.863281 0)"/>
     <use xlink:href="#DejaVuSans-6f" transform="translate(191.646484 0)"/>
     <use xlink:href="#DejaVuSans-6e" transform="translate(252.828125 0)"/>
     <use xlink:href="#DejaVuSans-65" transform="translate(316.207031 0)"/>
    </g>
    <!-- intrinseca -->
    <g transform="translate(215.583108 70.743863) scale(0.095 -0.095)">
     <use xlink:href="#DejaVuSans-69"/>
     <use xlink:href="#DejaVuSans-6e" transform="translate(27.783203 0)"/>
     <use xlink:href="#DejaVuSans-74" transform="translate(91.162109 0)"/>
     <use xlink:href="#DejaVuSans-72" transform="translate(130.371094 0)"/>
     <use xlink:href="#DejaVuSans-69" transform="translate(171.484375 0)"/>
     <use xlink:href="#DejaVuSans-6e" transform="translate(199.267578 0)"/>
     <use xlink:href="#DejaVuSans-73" transform="translate(262.646484 0)"/>
     <use xlink:href="#DejaVuSans-65" transform="translate(314.746094 0)"/>
     <use xlink:href="#DejaVuSans-63" transform="translate(376.269531 0)"/>
     <use xlink:href="#DejaVuSans-61" transform="translate(431.25 0)"/>
    </g>
   </g>
   <g id="text_10">
    <!-- regione -->
    <g transform="translate(416.222875 60.105941) scale(0.095 -0.095)">
     <use xlink:href="#DejaVuSans-72"/>
     <use xlink:href="#DejaVuSans-65" transform="translate(38.863281 0)"/>
     <use xlink:href="#DejaVuSans-67" transform="translate(100.386719 0)"/>
     <use xlink:href="#DejaVuSans-69" transform="translate(163.863281 0)"/>
     <use xlink:href="#DejaVuSans-6f" transform="translate(191.646484 0)"/>
     <use xlink:href="#DejaVuSans-6e" transform="translate(252.828125 0)"/>
     <use xlink:href="#DejaVuSans-65" transform="translate(316.207031 0)"/>
    </g>
    <!-- estrinseca -->
    <g transform="translate(409.704242 70.743863) scale(0.095 -0.095)">
     <use xlink:href="#DejaVuSans-65"/>
     <use xlink:href="#DejaVuSans-73" transform="translate(61.523438 0)"/>
     <use xlink:href="#DejaVuSans-74" transform="translate(113.623047 0)"/>
     <use xlink:href="#DejaVuSans-72" transform="translate(152.832031 0)"/>
     <use xlink:href="#DejaVuSans-69" transform="translate(193.945312 0)"/>
     <use xlink:href="#DejaVuSans-6e" transform="translate(221.728516 0)"/>
     <use xlink:href="#DejaVuSans-73" transform="translate(285.107422 0)"/>
     <use xlink:href="#DejaVuSans-65" transform="translate(337.207031 0)"/>
     <use xlink:href="#DejaVuSans-63" transform="translate(398.730469 0)"/>
     <use xlink:href="#DejaVuSans-61" transform="translate(453.710938 0)"/>
    </g>
   </g>
   <g id="text_11">
    <!-- regione di -->
    <g transform="translate(635.140548 60.105941) scale(0.095 -0.095)">
     <use xlink:href="#DejaVuSans-72"/>
     <use xlink:href="#DejaVuSans-65" transform="translate(38.863281 0)"/>
     <use xlink:href="#DejaVuSans-67" transform="translate(100.386719 0)"/>
     <use xlink:href="#DejaVuSans-69" transform="translate(163.863281 0)"/>
     <use xlink:href="#DejaVuSans-6f" transform="translate(191.646484 0)"/>
     <use xlink:href="#DejaVuSans-6e" transform="translate(252.828125 0)"/>
     <use xlink:href="#DejaVuSans-65" transform="translate(316.207031 0)"/>
     <use xlink:href="#DejaVuSans-20" transform="translate(377.730469 0)"/>
     <use xlink:href="#DejaVuSans-64" transform="translate(409.517578 0)"/>
     <use xlink:href="#DejaVuSans-69" transform="translate(472.994141 0)"/>
    </g>
    <!-- freeze-out -->
    <g transform="translate(634.56758 70.743863) scale(0.095 -0.095)">
     <defs>
      <path id="DejaVuSans-66" d="M 2375 4863 
L 2375 4384 
L 1825 4384 
Q 1516 4384 1395 4259 
Q 1275 4134 1275 3809 
L 1275 3500 
L 2222 3500 
L 2222 3053 
L 1275 3053 
L 1275 0 
L 697 0 
L 697 3053 
L 147 3053 
L 147 3500 
L 697 3500 
L 697 3744 
Q 697 4328 969 4595 
Q 1241 4863 1831 4863 
L 2375 4863 
z
" transform="scale(0.015625)"/>
      <path id="DejaVuSans-2d" d="M 313 2009 
L 1997 2009 
L 1997 1497 
L 313 1497 
L 313 2009 
z
" transform="scale(0.015625)"/>
     </defs>
     <use xlink:href="#DejaVuSans-66"/>
     <use xlink:href="#DejaVuSans-72" transform="translate(35.205078 0)"/>
     <use xlink:href="#DejaVuSans-65" transform="translate(74.068359 0)"/>
     <use xlink:href="#DejaVuSans-65" transform="translate(135.591797 0)"/>
     <use xlink:href="#DejaVuSans-7a" transform="translate(197.115234 0)"/>
     <use xlink:href="#DejaVuSans-65" transform="translate(249.605469 0)"/>
     <use xlink:href="#DejaVuSans-2d" transform="translate(311.128906 0)"/>
     <use xlink:href="#DejaVuSans-6f" transform="translate(349.087891 0)"/>
     <use xlink:href="#DejaVuSans-75" transform="translate(410.269531 0)"/>
     <use xlink:href="#DejaVuSans-74" transform="translate(473.648438 0)"/>
    </g>
   </g>
   <g id="text_12">
    <!-- Regimi di trasporto in un semiconduttore di tipo n -->
    <g transform="translate(250.725938 18.597656) scale(0.15 -0.15)">
     <defs>
      <path id="DejaVuSans-Bold-52" d="M 2297 2597 
Q 2675 2597 2839 2737 
Q 3003 2878 3003 3200 
Q 3003 3519 2839 3656 
Q 2675 3794 2297 3794 
L 1791 3794 
L 1791 2597 
L 2297 2597 
z
M 1791 1766 
L 1791 0 
L 588 0 
L 588 4666 
L 2425 4666 
Q 3347 4666 3776 4356 
Q 4206 4047 4206 3378 
Q 4206 2916 3982 2619 
Q 3759 2322 3309 2181 
Q 3556 2125 3751 1926 
Q 3947 1728 4147 1325 
L 4800 0 
L 3519 0 
L 2950 1159 
Q 2778 1509 2601 1637 
Q 2425 1766 2131 1766 
L 1791 1766 
z
" transform="scale(0.015625)"/>
      <path id="DejaVuSans-Bold-65" d="M 4031 1759 
L 4031 1441 
L 1416 1441 
Q 1456 1047 1700 850 
Q 1944 653 2381 653 
Q 2734 653 3104 758 
Q 3475 863 3866 1075 
L 3866 213 
Q 3469 63 3072 -14 
Q 2675 -91 2278 -91 
Q 1328 -91 801 392 
Q 275 875 275 1747 
Q 275 2603 792 3093 
Q 1309 3584 2216 3584 
Q 3041 3584 3536 3087 
Q 4031 2591 4031 1759 
z
M 2881 2131 
Q 2881 2450 2695 2645 
Q 2509 2841 2209 2841 
Q 1884 2841 1681 2658 
Q 1478 2475 1428 2131 
L 2881 2131 
z
" transform="scale(0.015625)"/>
      <path id="DejaVuSans-Bold-67" d="M 2919 594 
Q 2688 288 2409 144 
Q 2131 0 1766 0 
Q 1125 0 706 504 
Q 288 1009 288 1791 
Q 288 2575 706 3076 
Q 1125 3578 1766 3578 
Q 2131 3578 2409 3434 
Q 2688 3291 2919 2981 
L 2919 3500 
L 4044 3500 
L 4044 353 
Q 4044 -491 3511 -936 
Q 2978 -1381 1966 -1381 
Q 1638 -1381 1331 -1331 
Q 1025 -1281 716 -1178 
L 716 -306 
Q 1009 -475 1290 -558 
Q 1572 -641 1856 -641 
Q 2406 -641 2662 -400 
Q 2919 -159 2919 353 
L 2919 594 
z
M 2181 2772 
Q 1834 2772 1640 2515 
Q 1447 2259 1447 1791 
Q 1447 1309 1634 1061 
Q 1822 813 2181 813 
Q 2531 813 2725 1069 
Q 2919 1325 2919 1791 
Q 2919 2259 2725 2515 
Q 2531 2772 2181 2772 
z
" transform="scale(0.015625)"/>
      <path id="DejaVuSans-Bold-69" d="M 538 3500 
L 1656 3500 
L 1656 0 
L 538 0 
L 538 3500 
z
M 538 4863 
L 1656 4863 
L 1656 3950 
L 538 3950 
L 538 4863 
z
" transform="scale(0.015625)"/>
      <path id="DejaVuSans-Bold-6d" d="M 3781 2919 
Q 3994 3244 4286 3414 
Q 4578 3584 4928 3584 
Q 5531 3584 5847 3212 
Q 6163 2841 6163 2131 
L 6163 0 
L 5038 0 
L 5038 1825 
Q 5041 1866 5042 1909 
Q 5044 1953 5044 2034 
Q 5044 2406 4934 2573 
Q 4825 2741 4581 2741 
Q 4263 2741 4089 2478 
Q 3916 2216 3909 1719 
L 3909 0 
L 2784 0 
L 2784 1825 
Q 2784 2406 2684 2573 
Q 2584 2741 2328 2741 
Q 2006 2741 1831 2477 
Q 1656 2213 1656 1722 
L 1656 0 
L 531 0 
L 531 3500 
L 1656 3500 
L 1656 2988 
Q 1863 3284 2130 3434 
Q 2397 3584 2719 3584 
Q 3081 3584 3359 3409 
Q 3638 3234 3781 2919 
z
" transform="scale(0.015625)"/>
      <path id="DejaVuSans-Bold-20" transform="scale(0.015625)"/>
      <path id="DejaVuSans-Bold-64" d="M 2919 2988 
L 2919 4863 
L 4044 4863 
L 4044 0 
L 2919 0 
L 2919 506 
Q 2688 197 2409 53 
Q 2131 -91 1766 -91 
Q 1119 -91 703 423 
Q 288 938 288 1747 
Q 288 2556 703 3070 
Q 1119 3584 1766 3584 
Q 2128 3584 2408 3439 
Q 2688 3294 2919 2988 
z
M 2181 722 
Q 2541 722 2730 984 
Q 2919 1247 2919 1747 
Q 2919 2247 2730 2509 
Q 2541 2772 2181 2772 
Q 1825 2772 1636 2509 
Q 1447 2247 1447 1747 
Q 1447 1247 1636 984 
Q 1825 722 2181 722 
z
" transform="scale(0.015625)"/>
      <path id="DejaVuSans-Bold-74" d="M 1759 4494 
L 1759 3500 
L 2913 3500 
L 2913 2700 
L 1759 2700 
L 1759 1216 
Q 1759 972 1856 886 
Q 1953 800 2241 800 
L 2816 800 
L 2816 0 
L 1856 0 
Q 1194 0 917 276 
Q 641 553 641 1216 
L 641 2700 
L 84 2700 
L 84 3500 
L 641 3500 
L 641 4494 
L 1759 4494 
z
" transform="scale(0.015625)"/>
      <path id="DejaVuSans-Bold-72" d="M 3138 2547 
Q 2991 2616 2845 2648 
Q 2700 2681 2553 2681 
Q 2122 2681 1889 2404 
Q 1656 2128 1656 1613 
L 1656 0 
L 538 0 
L 538 3500 
L 1656 3500 
L 1656 2925 
Q 1872 3269 2151 3426 
Q 2431 3584 2822 3584 
Q 2878 3584 2943 3579 
Q 3009 3575 3134 3559 
L 3138 2547 
z
" transform="scale(0.015625)"/>
      <path id="DejaVuSans-Bold-61" d="M 2106 1575 
Q 1756 1575 1579 1456 
Q 1403 1338 1403 1106 
Q 1403 894 1545 773 
Q 1688 653 1941 653 
Q 2256 653 2472 879 
Q 2688 1106 2688 1447 
L 2688 1575 
L 2106 1575 
z
M 3816 1997 
L 3816 0 
L 2688 0 
L 2688 519 
Q 2463 200 2181 54 
Q 1900 -91 1497 -91 
Q 953 -91 614 226 
Q 275 544 275 1050 
Q 275 1666 698 1953 
Q 1122 2241 2028 2241 
L 2688 2241 
L 2688 2328 
Q 2688 2594 2478 2717 
Q 2269 2841 1825 2841 
Q 1466 2841 1156 2769 
Q 847 2697 581 2553 
L 581 3406 
Q 941 3494 1303 3539 
Q 1666 3584 2028 3584 
Q 2975 3584 3395 3211 
Q 3816 2838 3816 1997 
z
" transform="scale(0.015625)"/>
      <path id="DejaVuSans-Bold-73" d="M 3272 3391 
L 3272 2541 
Q 2913 2691 2578 2766 
Q 2244 2841 1947 2841 
Q 1628 2841 1473 2761 
Q 1319 2681 1319 2516 
Q 1319 2381 1436 2309 
Q 1553 2238 1856 2203 
L 2053 2175 
Q 2913 2066 3209 1816 
Q 3506 1566 3506 1031 
Q 3506 472 3093 190 
Q 2681 -91 1863 -91 
Q 1516 -91 1145 -36 
Q 775 19 384 128 
L 384 978 
Q 719 816 1070 734 
Q 1422 653 1784 653 
Q 2113 653 2278 743 
Q 2444 834 2444 1013 
Q 2444 1163 2330 1236 
Q 2216 1309 1875 1350 
L 1678 1375 
Q 931 1469 631 1722 
Q 331 1975 331 2491 
Q 331 3047 712 3315 
Q 1094 3584 1881 3584 
Q 2191 3584 2531 3537 
Q 2872 3491 3272 3391 
z
" transform="scale(0.015625)"/>
      <path id="DejaVuSans-Bold-70" d="M 1656 506 
L 1656 -1331 
L 538 -1331 
L 538 3500 
L 1656 3500 
L 1656 2988 
Q 1888 3294 2169 3439 
Q 2450 3584 2816 3584 
Q 3463 3584 3878 3070 
Q 4294 2556 4294 1747 
Q 4294 938 3878 423 
Q 3463 -91 2816 -91 
Q 2450 -91 2169 54 
Q 1888 200 1656 506 
z
M 2400 2772 
Q 2041 2772 1848 2508 
Q 1656 2244 1656 1747 
Q 1656 1250 1848 986 
Q 2041 722 2400 722 
Q 2759 722 2948 984 
Q 3138 1247 3138 1747 
Q 3138 2247 2948 2509 
Q 2759 2772 2400 2772 
z
" transform="scale(0.015625)"/>
      <path id="DejaVuSans-Bold-6f" d="M 2203 2784 
Q 1831 2784 1636 2517 
Q 1441 2250 1441 1747 
Q 1441 1244 1636 976 
Q 1831 709 2203 709 
Q 2569 709 2762 976 
Q 2956 1244 2956 1747 
Q 2956 2250 2762 2517 
Q 2569 2784 2203 2784 
z
M 2203 3584 
Q 3106 3584 3614 3096 
Q 4122 2609 4122 1747 
Q 4122 884 3614 396 
Q 3106 -91 2203 -91 
Q 1297 -91 786 396 
Q 275 884 275 1747 
Q 275 2609 786 3096 
Q 1297 3584 2203 3584 
z
" transform="scale(0.015625)"/>
      <path id="DejaVuSans-Bold-6e" d="M 4056 2131 
L 4056 0 
L 2931 0 
L 2931 347 
L 2931 1631 
Q 2931 2084 2911 2256 
Q 2891 2428 2841 2509 
Q 2775 2619 2662 2680 
Q 2550 2741 2406 2741 
Q 2056 2741 1856 2470 
Q 1656 2200 1656 1722 
L 1656 0 
L 538 0 
L 538 3500 
L 1656 3500 
L 1656 2988 
Q 1909 3294 2193 3439 
Q 2478 3584 2822 3584 
Q 3428 3584 3742 3212 
Q 4056 2841 4056 2131 
z
" transform="scale(0.015625)"/>
      <path id="DejaVuSans-Bold-75" d="M 500 1363 
L 500 3500 
L 1625 3500 
L 1625 3150 
Q 1625 2866 1622 2436 
Q 1619 2006 1619 1863 
Q 1619 1441 1641 1255 
Q 1663 1069 1716 984 
Q 1784 875 1895 815 
Q 2006 756 2150 756 
Q 2500 756 2700 1025 
Q 2900 1294 2900 1772 
L 2900 3500 
L 4019 3500 
L 4019 0 
L 2900 0 
L 2900 506 
Q 2647 200 2364 54 
Q 2081 -91 1741 -91 
Q 1134 -91 817 281 
Q 500 653 500 1363 
z
" transform="scale(0.015625)"/>
      <path id="DejaVuSans-Bold-63" d="M 3366 3391 
L 3366 2478 
Q 3138 2634 2908 2709 
Q 2678 2784 2431 2784 
Q 1963 2784 1702 2511 
Q 1441 2238 1441 1747 
Q 1441 1256 1702 982 
Q 1963 709 2431 709 
Q 2694 709 2930 787 
Q 3166 866 3366 1019 
L 3366 103 
Q 3103 6 2833 -42 
Q 2563 -91 2291 -91 
Q 1344 -91 809 395 
Q 275 881 275 1747 
Q 275 2613 809 3098 
Q 1344 3584 2291 3584 
Q 2566 3584 2833 3536 
Q 3100 3488 3366 3391 
z
" transform="scale(0.015625)"/>
     </defs>
     <use xlink:href="#DejaVuSans-Bold-52"/>
     <use xlink:href="#DejaVuSans-Bold-65" transform="translate(77.001953 0)"/>
     <use xlink:href="#DejaVuSans-Bold-67" transform="translate(144.824219 0)"/>
     <use xlink:href="#DejaVuSans-Bold-69" transform="translate(216.40625 0)"/>
     <use xlink:href="#DejaVuSans-Bold-6d" transform="translate(250.683594 0)"/>
     <use xlink:href="#DejaVuSans-Bold-69" transform="translate(354.882812 0)"/>
     <use xlink:href="#DejaVuSans-Bold-20" transform="translate(389.160156 0)"/>
     <use xlink:href="#DejaVuSans-Bold-64" transform="translate(423.974609 0)"/>
     <use xlink:href="#DejaVuSans-Bold-69" transform="translate(495.556641 0)"/>
     <use xlink:href="#DejaVuSans-Bold-20" transform="translate(529.833984 0)"/>
     <use xlink:href="#DejaVuSans-Bold-74" transform="translate(564.648438 0)"/>
     <use xlink:href="#DejaVuSans-Bold-72" transform="translate(612.451172 0)"/>
     <use xlink:href="#DejaVuSans-Bold-61" transform="translate(661.767578 0)"/>
     <use xlink:href="#DejaVuSans-Bold-73" transform="translate(729.248047 0)"/>
     <use xlink:href="#DejaVuSans-Bold-70" transform="translate(788.769531 0)"/>
     <use xlink:href="#DejaVuSans-Bold-6f" transform="translate(860.351562 0)"/>
     <use xlink:href="#DejaVuSans-Bold-72" transform="translate(929.052734 0)"/>
     <use xlink:href="#DejaVuSans-Bold-74" transform="translate(978.369141 0)"/>
     <use xlink:href="#DejaVuSans-Bold-6f" transform="translate(1026.171875 0)"/>
     <use xlink:href="#DejaVuSans-Bold-20" transform="translate(1094.873047 0)"/>
     <use xlink:href="#DejaVuSans-Bold-69" transform="translate(1129.6875 0)"/>
     <use xlink:href="#DejaVuSans-Bold-6e" transform="translate(1163.964844 0)"/>
     <use xlink:href="#DejaVuSans-Bold-20" transform="translate(1235.15625 0)"/>
     <use xlink:href="#DejaVuSans-Bold-75" transform="translate(1269.970703 0)"/>
     <use xlink:href="#DejaVuSans-Bold-6e" transform="translate(1341.162109 0)"/>
     <use xlink:href="#DejaVuSans-Bold-20" transform="translate(1412.353516 0)"/>
     <use xlink:href="#DejaVuSans-Bold-73" transform="translate(1447.167969 0)"/>
     <use xlink:href="#DejaVuSans-Bold-65" transform="translate(1506.689453 0)"/>
     <use xlink:href="#DejaVuSans-Bold-6d" transform="translate(1574.511719 0)"/>
     <use xlink:href="#DejaVuSans-Bold-69" transform="translate(1678.710938 0)"/>
     <use xlink:href="#DejaVuSans-Bold-63" transform="translate(1712.988281 0)"/>
     <use xlink:href="#DejaVuSans-Bold-6f" transform="translate(1772.265625 0)"/>
     <use xlink:href="#DejaVuSans-Bold-6e" transform="translate(1840.966797 0)"/>
     <use xlink:href="#DejaVuSans-Bold-64" transform="translate(1912.158203 0)"/>
     <use xlink:href="#DejaVuSans-Bold-75" transform="translate(1983.740234 0)"/>
     <use xlink:href="#DejaVuSans-Bold-74" transform="translate(2054.931641 0)"/>
     <use xlink:href="#DejaVuSans-Bold-74" transform="translate(2102.734375 0)"/>
     <use xlink:href="#DejaVuSans-Bold-6f" transform="translate(2150.537109 0)"/>
     <use xlink:href="#DejaVuSans-Bold-72" transform="translate(2219.238281 0)"/>
     <use xlink:href="#DejaVuSans-Bold-65" transform="translate(2268.554688 0)"/>
     <use xlink:href="#DejaVuSans-Bold-20" transform="translate(2336.376953 0)"/>
     <use xlink:href="#DejaVuSans-Bold-64" transform="translate(2371.191406 0)"/>
     <use xlink:href="#DejaVuSans-Bold-69" transform="translate(2442.773438 0)"/>
     <use xlink:href="#DejaVuSans-Bold-20" transform="translate(2477.050781 0)"/>
     <use xlink:href="#DejaVuSans-Bold-74" transform="translate(2511.865234 0)"/>
     <use xlink:href="#DejaVuSans-Bold-69" transform="translate(2559.667969 0)"/>
     <use xlink:href="#DejaVuSans-Bold-70" transform="translate(2593.945312 0)"/>
     <use xlink:href="#DejaVuSans-Bold-6f" transform="translate(2665.527344 0)"/>
     <use xlink:href="#DejaVuSans-Bold-20" transform="translate(2734.228516 0)"/>
     <use xlink:href="#DejaVuSans-Bold-6e" transform="translate(2769.042969 0)"/>
    </g>
   </g>
   <g id="legend_1">
    <g id="line2d_18">
     <path d="M 580.550313 209.218906 
L 590.550313 209.218906 
L 600.550313 209.218906 
" style="fill: none; stroke: #1f77b4; stroke-width: 2.6; stroke-linecap: square"/>
    </g>
    <g id="text_13">
     <!-- conducibilità -->
     <g transform="translate(608.550313 212.718906) scale(0.1 -0.1)">
      <defs>
       <path id="DejaVuSans-62" d="M 3116 1747 
Q 3116 2381 2855 2742 
Q 2594 3103 2138 3103 
Q 1681 3103 1420 2742 
Q 1159 2381 1159 1747 
Q 1159 1113 1420 752 
Q 1681 391 2138 391 
Q 2594 391 2855 752 
Q 3116 1113 3116 1747 
z
M 1159 2969 
Q 1341 3281 1617 3432 
Q 1894 3584 2278 3584 
Q 2916 3584 3314 3078 
Q 3713 2572 3713 1747 
Q 3713 922 3314 415 
Q 2916 -91 2278 -91 
Q 1894 -91 1617 61 
Q 1341 213 1159 525 
L 1159 0 
L 581 0 
L 581 4863 
L 1159 4863 
L 1159 2969 
z
" transform="scale(0.015625)"/>
       <path id="DejaVuSans-e0" d="M 2194 1759 
Q 1497 1759 1228 1600 
Q 959 1441 959 1056 
Q 959 750 1161 570 
Q 1363 391 1709 391 
Q 2188 391 2477 730 
Q 2766 1069 2766 1631 
L 2766 1759 
L 2194 1759 
z
M 3341 1997 
L 3341 0 
L 2766 0 
L 2766 531 
Q 2569 213 2275 61 
Q 1981 -91 1556 -91 
Q 1019 -91 701 211 
Q 384 513 384 1019 
Q 384 1609 779 1909 
Q 1175 2209 1959 2209 
L 2766 2209 
L 2766 2266 
Q 2766 2663 2505 2880 
Q 2244 3097 1772 3097 
Q 1472 3097 1187 3025 
Q 903 2953 641 2809 
L 641 3341 
Q 956 3463 1253 3523 
Q 1550 3584 1831 3584 
Q 2591 3584 2966 3190 
Q 3341 2797 3341 1997 
z
M 1403 5119 
L 2284 3950 
L 1806 3950 
L 787 5119 
L 1403 5119 
z
" transform="scale(0.015625)"/>
      </defs>
      <use xlink:href="#DejaVuSans-63"/>
      <use xlink:href="#DejaVuSans-6f" transform="translate(54.980469 0)"/>
      <use xlink:href="#DejaVuSans-6e" transform="translate(116.162109 0)"/>
      <use xlink:href="#DejaVuSans-64" transform="translate(179.541016 0)"/>
      <use xlink:href="#DejaVuSans-75" transform="translate(243.017578 0)"/>
      <use xlink:href="#DejaVuSans-63" transform="translate(306.396484 0)"/>
      <use xlink:href="#DejaVuSans-69" transform="translate(361.376953 0)"/>
      <use xlink:href="#DejaVuSans-62" transform="translate(389.160156 0)"/>
      <use xlink:href="#DejaVuSans-69" transform="translate(452.636719 0)"/>
      <use xlink:href="#DejaVuSans-6c" transform="translate(480.419922 0)"/>
      <use xlink:href="#DejaVuSans-69" transform="translate(508.203125 0)"/>
      <use xlink:href="#DejaVuSans-74" transform="translate(535.986328 0)"/>
      <use xlink:href="#DejaVuSans-e0" transform="translate(575.195312 0)"/>
     </g>
    </g>
    <g id="line2d_19">
     <path d="M 580.550313 223.897031 
L 590.550313 223.897031 
L 600.550313 223.897031 
" style="fill: none; stroke-dasharray: 8.14,3.52; stroke-dashoffset: 0; stroke: #ff7f0e; stroke-width: 2.2"/>
    </g>
    <g id="text_14">
     <!-- mobilità elettronica -->
     <g transform="translate(608.550313 227.397031) scale(0.1 -0.1)">
      <use xlink:href="#DejaVuSans-6d"/>
      <use xlink:href="#DejaVuSans-6f" transform="translate(97.412109 0)"/>
      <use xlink:href="#DejaVuSans-62" transform="translate(158.59375 0)"/>
      <use xlink:href="#DejaVuSans-69" transform="translate(222.070312 0)"/>
      <use xlink:href="#DejaVuSans-6c" transform="translate(249.853516 0)"/>
      <use xlink:href="#DejaVuSans-69" transform="translate(277.636719 0)"/>
      <use xlink:href="#DejaVuSans-74" transform="translate(305.419922 0)"/>
      <use xlink:href="#DejaVuSans-e0" transform="translate(344.628906 0)"/>
      <use xlink:href="#DejaVuSans-20" transform="translate(405.908203 0)"/>
      <use xlink:href="#DejaVuSans-65" transform="translate(437.695312 0)"/>
      <use xlink:href="#DejaVuSans-6c" transform="translate(499.21875 0)"/>
      <use xlink:href="#DejaVuSans-65" transform="translate(527.001953 0)"/>
      <use xlink:href="#DejaVuSans-74" transform="translate(588.525391 0)"/>
      <use xlink:href="#DejaVuSans-74" transform="translate(627.734375 0)"/>
      <use xlink:href="#DejaVuSans-72" transform="translate(666.943359 0)"/>
      <use xlink:href="#DejaVuSans-6f" transform="translate(705.806641 0)"/>
      <use xlink:href="#DejaVuSans-6e" transform="translate(766.988281 0)"/>
      <use xlink:href="#DejaVuSans-69" transform="translate(830.367188 0)"/>
      <use xlink:href="#DejaVuSans-63" transform="translate(858.150391 0)"/>
      <use xlink:href="#DejaVuSans-61" transform="translate(913.130859 0)"/>
     </g>
    </g>
    <g id="line2d_20">
     <path d="M 580.550313 238.575156 
L 590.550313 238.575156 
L 600.550313 238.575156 
" style="fill: none; stroke-dasharray: 14.08,3.52,2.2,3.52; stroke-dashoffset: 0; stroke: #2ca02c; stroke-width: 2.2"/>
    </g>
    <g id="text_15">
     <!-- concentrazione dei portatori -->
     <g transform="translate(608.550313 242.075156) scale(0.1 -0.1)">
      <use xlink:href="#DejaVuSans-63"/>
      <use xlink:href="#DejaVuSans-6f" transform="translate(54.980469 0)"/>
      <use xlink:href="#DejaVuSans-6e" transform="translate(116.162109 0)"/>
      <use xlink:href="#DejaVuSans-63" transform="translate(179.541016 0)"/>
      <use xlink:href="#DejaVuSans-65" transform="translate(234.521484 0)"/>
      <use xlink:href="#DejaVuSans-6e" transform="translate(296.044922 0)"/>
      <use xlink:href="#DejaVuSans-74" transform="translate(359.423828 0)"/>
      <use xlink:href="#DejaVuSans-72" transform="translate(398.632812 0)"/>
      <use xlink:href="#DejaVuSans-61" transform="translate(439.746094 0)"/>
      <use xlink:href="#DejaVuSans-7a" transform="translate(501.025391 0)"/>
      <use xlink:href="#DejaVuSans-69" transform="translate(553.515625 0)"/>
      <use xlink:href="#DejaVuSans-6f" transform="translate(581.298828 0)"/>
      <use xlink:href="#DejaVuSans-6e" transform="translate(642.480469 0)"/>
      <use xlink:href="#DejaVuSans-65" transform="translate(705.859375 0)"/>
      <use xlink:href="#DejaVuSans-20" transform="translate(767.382812 0)"/>
      <use xlink:href="#DejaVuSans-64" transform="translate(799.169922 0)"/>
      <use xlink:href="#DejaVuSans-65" transform="translate(862.646484 0)"/>
      <use xlink:href="#DejaVuSans-69" transform="translate(924.169922 0)"/>
      <use xlink:href="#DejaVuSans-20" transform="translate(951.953125 0)"/>
      <use xlink:href="#DejaVuSans-70" transform="translate(983.740234 0)"/>
      <use xlink:href="#DejaVuSans-6f" transform="translate(1047.216797 0)"/>
      <use xlink:href="#DejaVuSans-72" transform="translate(1108.398438 0)"/>
      <use xlink:href="#DejaVuSans-74" transform="translate(1149.511719 0)"/>
      <use xlink:href="#DejaVuSans-61" transform="translate(1188.720703 0)"/>
      <use xlink:href="#DejaVuSans-74" transform="translate(1250 0)"/>
      <use xlink:href="#DejaVuSans-6f" transform="translate(1289.208984 0)"/>
      <use xlink:href="#DejaVuSans-72" transform="translate(1350.390625 0)"/>
      <use xlink:href="#DejaVuSans-69" transform="translate(1391.503906 0)"/>
     </g>
    </g>
   </g>
  </g>
  <g id="text_16">
   <!-- All'aumentare di 1/T si passa dal regime intrinseco a quello estrinseco e infine al congelamento dei donatori; la conducibilità riflette sia la densità dei portatori sia la loro mobilità. -->
   <g transform="translate(7.2 461.517656) scale(0.1 -0.1)">
    <defs>
     <path id="DejaVuSans-41" d="M 2188 4044 
L 1331 1722 
L 3047 1722 
L 2188 4044 
z
M 1831 4666 
L 2547 4666 
L 4325 0 
L 3669 0 
L 3244 1197 
L 1141 1197 
L 716 0 
L 50 0 
L 1831 4666 
z
" transform="scale(0.015625)"/>
     <path id="DejaVuSans-27" d="M 1147 4666 
L 1147 2931 
L 616 2931 
L 616 4666 
L 1147 4666 
z
" transform="scale(0.015625)"/>
     <path id="DejaVuSans-54" d="M -19 4666 
L 3928 4666 
L 3928 4134 
L 2272 4134 
L 2272 0 
L 1638 0 
L 1638 4134 
L -19 4134 
L -19 4666 
z
" transform="scale(0.015625)"/>
     <path id="DejaVuSans-3b" d="M 750 3309 
L 1409 3309 
L 1409 2516 
L 750 2516 
L 750 3309 
z
M 750 794 
L 1409 794 
L 1409 256 
L 897 -744 
L 494 -744 
L 750 256 
L 750 794 
z
" transform="scale(0.015625)"/>
    </defs>
    <use xlink:href="#DejaVuSans-41"/>
    <use xlink:href="#DejaVuSans-6c" transform="translate(68.408203 0)"/>
    <use xlink:href="#DejaVuSans-6c" transform="translate(96.191406 0)"/>
    <use xlink:href="#DejaVuSans-27" transform="translate(123.974609 0)"/>
    <use xlink:href="#DejaVuSans-61" transform="translate(151.464844 0)"/>
    <use xlink:href="#DejaVuSans-75" transform="translate(212.744141 0)"/>
    <use xlink:href="#DejaVuSans-6d" transform="translate(276.123047 0)"/>
    <use xlink:href="#DejaVuSans-65" transform="translate(373.535156 0)"/>
    <use xlink:href="#DejaVuSans-6e" transform="translate(435.058594 0)"/>
    <use xlink:href="#DejaVuSans-74" transform="translate(498.4375 0)"/>
    <use xlink:href="#DejaVuSans-61" transform="translate(537.646484 0)"/>
    <use xlink:href="#DejaVuSans-72" transform="translate(598.925781 0)"/>
    <use xlink:href="#DejaVuSans-65" transform="translate(637.789062 0)"/>
    <use xlink:href="#DejaVuSans-20" transform="translate(699.3125 0)"/>
    <use xlink:href="#DejaVuSans-64" transform="translate(731.099609 0)"/>
    <use xlink:href="#DejaVuSans-69" transform="translate(794.576172 0)"/>
    <use xlink:href="#DejaVuSans-20" transform="translate(822.359375 0)"/>
    <use xlink:href="#DejaVuSans-31" transform="translate(854.146484 0)"/>
    <use xlink:href="#DejaVuSans-2f" transform="translate(917.769531 0)"/>
    <use xlink:href="#DejaVuSans-54" transform="translate(951.460938 0)"/>
    <use xlink:href="#DejaVuSans-20" transform="translate(1012.544922 0)"/>
    <use xlink:href="#DejaVuSans-73" transform="translate(1044.332031 0)"/>
    <use xlink:href="#DejaVuSans-69" transform="translate(1096.431641 0)"/>
    <use xlink:href="#DejaVuSans-20" transform="translate(1124.214844 0)"/>
    <use xlink:href="#DejaVuSans-70" transform="translate(1156.001953 0)"/>
    <use xlink:href="#DejaVuSans-61" transform="translate(1219.478516 0)"/>
    <use xlink:href="#DejaVuSans-73" transform="translate(1280.757812 0)"/>
    <use xlink:href="#DejaVuSans-73" transform="translate(1332.857422 0)"/>
    <use xlink:href="#DejaVuSans-61" transform="translate(1384.957031 0)"/>
    <use xlink:href="#DejaVuSans-20" transform="translate(1446.236328 0)"/>
    <use xlink:href="#DejaVuSans-64" transform="translate(1478.023438 0)"/>
    <use xlink:href="#DejaVuSans-61" transform="translate(1541.5 0)"/>
    <use xlink:href="#DejaVuSans-6c" transform="translate(1602.779297 0)"/>
    <use xlink:href="#DejaVuSans-20" transform="translate(1630.5625 0)"/>
    <use xlink:href="#DejaVuSans-72" transform="translate(1662.349609 0)"/>
    <use xlink:href="#DejaVuSans-65" transform="translate(1701.212891 0)"/>
    <use xlink:href="#DejaVuSans-67" transform="translate(1762.736328 0)"/>
    <use xlink:href="#DejaVuSans-69" transform="translate(1826.212891 0)"/>
    <use xlink:href="#DejaVuSans-6d" transform="translate(1853.996094 0)"/>
    <use xlink:href="#DejaVuSans-65" transform="translate(1951.408203 0)"/>
    <use xlink:href="#DejaVuSans-20" transform="translate(2012.931641 0)"/>
    <use xlink:href="#DejaVuSans-69" transform="translate(2044.71875 0)"/>
    <use xlink:href="#DejaVuSans-6e" transform="translate(2072.501953 0)"/>
    <use xlink:href="#DejaVuSans-74" transform="translate(2135.880859 0)"/>
    <use xlink:href="#DejaVuSans-72" transform="translate(2175.089844 0)"/>
    <use xlink:href="#DejaVuSans-69" transform="translate(2216.203125 0)"/>
    <use xlink:href="#DejaVuSans-6e" transform="translate(2243.986328 0)"/>
    <use xlink:href="#DejaVuSans-73" transform="translate(2307.365234 0)"/>
    <use xlink:href="#DejaVuSans-65" transform="translate(2359.464844 0)"/>
    <use xlink:href="#DejaVuSans-63" transform="translate(2420.988281 0)"/>
    <use xlink:href="#DejaVuSans-6f" transform="translate(2475.96875 0)"/>
    <use xlink:href="#DejaVuSans-20" transform="translate(2537.150391 0)"/>
    <use xlink:href="#DejaVuSans-61" transform="translate(2568.9375 0)"/>
    <use xlink:href="#DejaVuSans-20" transform="translate(2630.216797 0)"/>
    <use xlink:href="#DejaVuSans-71" transform="translate(2662.003906 0)"/>
    <use xlink:href="#DejaVuSans-75" transform="translate(2725.480469 0)"/>
    <use xlink:href="#DejaVuSans-65" transform="translate(2788.859375 0)"/>
    <use xlink:href="#DejaVuSans-6c" transform="translate(2850.382812 0)"/>
    <use xlink:href="#DejaVuSans-6c" transform="translate(2878.166016 0)"/>
    <use xlink:href="#DejaVuSans-6f" transform="translate(2905.949219 0)"/>
    <use xlink:href="#DejaVuSans-20" transform="translate(2967.130859 0)"/>
    <use xlink:href="#DejaVuSans-65" transform="translate(2998.917969 0)"/>
    <use xlink:href="#DejaVuSans-73" transform="translate(3060.441406 0)"/>
    <use xlink:href="#DejaVuSans-74" transform="translate(3112.541016 0)"/>
    <use xlink:href="#DejaVuSans-72" transform="translate(3151.75 0)"/>
    <use xlink:href="#DejaVuSans-69" transform="translate(3192.863281 0)"/>
    <use xlink:href="#DejaVuSans-6e" transform="translate(3220.646484 0)"/>
    <use xlink:href="#DejaVuSans-73" transform="translate(3284.025391 0)"/>
    <use xlink:href="#DejaVuSans-65" transform="translate(3336.125 0)"/>
    <use xlink:href="#DejaVuSans-63" transform="translate(3397.648438 0)"/>
    <use xlink:href="#DejaVuSans-6f" transform="translate(3452.628906 0)"/>
    <use xlink:href="#DejaVuSans-20" transform="translate(3513.810547 0)"/>
    <use xlink:href="#DejaVuSans-65" transform="translate(3545.597656 0)"/>
    <use xlink:href="#DejaVuSans-20" transform="translate(3607.121094 0)"/>
    <use xlink:href="#DejaVuSans-69" transform="translate(3638.908203 0)"/>
    <use xlink:href="#DejaVuSans-6e" transform="translate(3666.691406 0)"/>
    <use xlink:href="#DejaVuSans-66" transform="translate(3730.070312 0)"/>
    <use xlink:href="#DejaVuSans-69" transform="translate(3765.275391 0)"/>
    <use xlink:href="#DejaVuSans-6e" transform="translate(3793.058594 0)"/>
    <use xlink:href="#DejaVuSans-65" transform="translate(3856.4375 0)"/>
    <use xlink:href="#DejaVuSans-20" transform="translate(3917.960938 0)"/>
    <use xlink:href="#DejaVuSans-61" transform="translate(3949.748047 0)"/>
    <use xlink:href="#DejaVuSans-6c" transform="translate(4011.027344 0)"/>
    <use xlink:href="#DejaVuSans-20" transform="translate(4038.810547 0)"/>
    <use xlink:href="#DejaVuSans-63" transform="translate(4070.597656 0)"/>
    <use xlink:href="#DejaVuSans-6f" transform="translate(4125.578125 0)"/>
    <use xlink:href="#DejaVuSans-6e" transform="translate(4186.759766 0)"/>
    <use xlink:href="#DejaVuSans-67" transform="translate(4250.138672 0)"/>
    <use xlink:href="#DejaVuSans-65" transform="translate(4313.615234 0)"/>
    <use xlink:href="#DejaVuSans-6c" transform="translate(4375.138672 0)"/>
    <use xlink:href="#DejaVuSans-61" transform="translate(4402.921875 0)"/>
    <use xlink:href="#DejaVuSans-6d" transform="translate(4464.201172 0)"/>
    <use xlink:href="#DejaVuSans-65" transform="translate(4561.613281 0)"/>
    <use xlink:href="#DejaVuSans-6e" transform="translate(4623.136719 0)"/>
    <use xlink:href="#DejaVuSans-74" transform="translate(4686.515625 0)"/>
    <use xlink:href="#DejaVuSans-6f" transform="translate(4725.724609 0)"/>
    <use xlink:href="#DejaVuSans-20" transform="translate(4786.90625 0)"/>
    <use xlink:href="#DejaVuSans-64" transform="translate(4818.693359 0)"/>
    <use xlink:href="#DejaVuSans-65" transform="translate(4882.169922 0)"/>
    <use xlink:href="#DejaVuSans-69" transform="translate(4943.693359 0)"/>
    <use xlink:href="#DejaVuSans-20" transform="translate(4971.476562 0)"/>
    <use xlink:href="#DejaVuSans-64" transform="translate(5003.263672 0)"/>
    <use xlink:href="#DejaVuSans-6f" transform="translate(5066.740234 0)"/>
    <use xlink:href="#DejaVuSans-6e" transform="translate(5127.921875 0)"/>
    <use xlink:href="#DejaVuSans-61" transform="translate(5191.300781 0)"/>
    <use xlink:href="#DejaVuSans-74" transform="translate(5252.580078 0)"/>
    <use xlink:href="#DejaVuSans-6f" transform="translate(5291.789062 0)"/>
    <use xlink:href="#DejaVuSans-72" transform="translate(5352.970703 0)"/>
    <use xlink:href="#DejaVuSans-69" transform="translate(5394.083984 0)"/>
    <use xlink:href="#DejaVuSans-3b" transform="translate(5421.867188 0)"/>
    <use xlink:href="#DejaVuSans-20" transform="translate(5455.558594 0)"/>
    <use xlink:href="#DejaVuSans-6c" transform="translate(5487.345703 0)"/>
    <use xlink:href="#DejaVuSans-61" transform="translate(5515.128906 0)"/>
    <use xlink:href="#DejaVuSans-20" transform="translate(5576.408203 0)"/>
    <use xlink:href="#DejaVuSans-63" transform="translate(5608.195312 0)"/>
    <use xlink:href="#DejaVuSans-6f" transform="translate(5663.175781 0)"/>
    <use xlink:href="#DejaVuSans-6e" transform="translate(5724.357422 0)"/>
    <use xlink:href="#DejaVuSans-64" transform="translate(5787.736328 0)"/>
    <use xlink:href="#DejaVuSans-75" transform="translate(5851.212891 0)"/>
    <use xlink:href="#DejaVuSans-63" transform="translate(5914.591797 0)"/>
    <use xlink:href="#DejaVuSans-69" transform="translate(5969.572266 0)"/>
    <use xlink:href="#DejaVuSans-62" transform="translate(5997.355469 0)"/>
    <use xlink:href="#DejaVuSans-69" transform="translate(6060.832031 0)"/>
    <use xlink:href="#DejaVuSans-6c" transform="translate(6088.615234 0)"/>
    <use xlink:href="#DejaVuSans-69" transform="translate(6116.398438 0)"/>
    <use xlink:href="#DejaVuSans-74" transform="translate(6144.181641 0)"/>
    <use xlink:href="#DejaVuSans-e0" transform="translate(6183.390625 0)"/>
    <use xlink:href="#DejaVuSans-20" transform="translate(6244.669922 0)"/>
    <use xlink:href="#DejaVuSans-72" transform="translate(6276.457031 0)"/>
    <use xlink:href="#DejaVuSans-69" transform="translate(6317.570312 0)"/>
    <use xlink:href="#DejaVuSans-66" transform="translate(6345.353516 0)"/>
    <use xlink:href="#DejaVuSans-6c" transform="translate(6380.558594 0)"/>
    <use xlink:href="#DejaVuSans-65" transform="translate(6408.341797 0)"/>
    <use xlink:href="#DejaVuSans-74" transform="translate(6469.865234 0)"/>
    <use xlink:href="#DejaVuSans-74" transform="translate(6509.074219 0)"/>
    <use xlink:href="#DejaVuSans-65" transform="translate(6548.283203 0)"/>
    <use xlink:href="#DejaVuSans-20" transform="translate(6609.806641 0)"/>
    <use xlink:href="#DejaVuSans-73" transform="translate(6641.59375 0)"/>
    <use xlink:href="#DejaVuSans-69" transform="translate(6693.693359 0)"/>
    <use xlink:href="#DejaVuSans-61" transform="translate(6721.476562 0)"/>
    <use xlink:href="#DejaVuSans-20" transform="translate(6782.755859 0)"/>
    <use xlink:href="#DejaVuSans-6c" transform="translate(6814.542969 0)"/>
    <use xlink:href="#DejaVuSans-61" transform="translate(6842.326172 0)"/>
    <use xlink:href="#DejaVuSans-20" transform="translate(6903.605469 0)"/>
    <use xlink:href="#DejaVuSans-64" transform="translate(6935.392578 0)"/>
    <use xlink:href="#DejaVuSans-65" transform="translate(6998.869141 0)"/>
    <use xlink:href="#DejaVuSans-6e" transform="translate(7060.392578 0)"/>
    <use xlink:href="#DejaVuSans-73" transform="translate(7123.771484 0)"/>
    <use xlink:href="#DejaVuSans-69" transform="translate(7175.871094 0)"/>
    <use xlink:href="#DejaVuSans-74" transform="translate(7203.654297 0)"/>
    <use xlink:href="#DejaVuSans-e0" transform="translate(7242.863281 0)"/>
    <use xlink:href="#DejaVuSans-20" transform="translate(7304.142578 0)"/>
    <use xlink:href="#DejaVuSans-64" transform="translate(7335.929688 0)"/>
    <use xlink:href="#DejaVuSans-65" transform="translate(7399.40625 0)"/>
    <use xlink:href="#DejaVuSans-69" transform="translate(7460.929688 0)"/>
    <use xlink:href="#DejaVuSans-20" transform="translate(7488.712891 0)"/>
    <use xlink:href="#DejaVuSans-70" transform="translate(7520.5 0)"/>
    <use xlink:href="#DejaVuSans-6f" transform="translate(7583.976562 0)"/>
    <use xlink:href="#DejaVuSans-72" transform="translate(7645.158203 0)"/>
    <use xlink:href="#DejaVuSans-74" transform="translate(7686.271484 0)"/>
    <use xlink:href="#DejaVuSans-61" transform="translate(7725.480469 0)"/>
    <use xlink:href="#DejaVuSans-74" transform="translate(7786.759766 0)"/>
    <use xlink:href="#DejaVuSans-6f" transform="translate(7825.96875 0)"/>
    <use xlink:href="#DejaVuSans-72" transform="translate(7887.150391 0)"/>
    <use xlink:href="#DejaVuSans-69" transform="translate(7928.263672 0)"/>
    <use xlink:href="#DejaVuSans-20" transform="translate(7956.046875 0)"/>
    <use xlink:href="#DejaVuSans-73" transform="translate(7987.833984 0)"/>
    <use xlink:href="#DejaVuSans-69" transform="translate(8039.933594 0)"/>
    <use xlink:href="#DejaVuSans-61" transform="translate(8067.716797 0)"/>
    <use xlink:href="#DejaVuSans-20" transform="translate(8128.996094 0)"/>
    <use xlink:href="#DejaVuSans-6c" transform="translate(8160.783203 0)"/>
    <use xlink:href="#DejaVuSans-61" transform="translate(8188.566406 0)"/>
    <use xlink:href="#DejaVuSans-20" transform="translate(8249.845703 0)"/>
    <use xlink:href="#DejaVuSans-6c" transform="translate(8281.632812 0)"/>
    <use xlink:href="#DejaVuSans-6f" transform="translate(8309.416016 0)"/>
    <use xlink:href="#DejaVuSans-72" transform="translate(8370.597656 0)"/>
    <use xlink:href="#DejaVuSans-6f" transform="translate(8409.460938 0)"/>
    <use xlink:href="#DejaVuSans-20" transform="translate(8470.642578 0)"/>
    <use xlink:href="#DejaVuSans-6d" transform="translate(8502.429688 0)"/>
    <use xlink:href="#DejaVuSans-6f" transform="translate(8599.841797 0)"/>
    <use xlink:href="#DejaVuSans-62" transform="translate(8661.023438 0)"/>
    <use xlink:href="#DejaVuSans-69" transform="translate(8724.5 0)"/>
    <use xlink:href="#DejaVuSans-6c" transform="translate(8752.283203 0)"/>
    <use xlink:href="#DejaVuSans-69" transform="translate(8780.066406 0)"/>
    <use xlink:href="#DejaVuSans-74" transform="translate(8807.849609 0)"/>
    <use xlink:href="#DejaVuSans-e0" transform="translate(8847.058594 0)"/>
    <use xlink:href="#DejaVuSans-2e" transform="translate(8908.337891 0)"/>
   </g>
  </g>
 </g>
 <defs>
  <clipPath id="p6376f72a49">
   <rect x="168" y="30.597656" width="591.48" height="388.08"/>
  </clipPath>
 </defs>
</svg>
