<?xml version="1.0" encoding="utf-8" standalone="no"?>
<!DOCTYPE svg PUBLIC "-//W3C//DTD SVG 1.1//EN"
  "http://www.w3.org/Graphics/SVG/1.1/DTD/svg11.dtd">
<svg xmlns:xlink="http://www.w3.org/1999/xlink" width="834.470312pt" height="483.709344pt" viewBox="0 0 834.470312 483.709344" xmlns="http://www.w3.org/2000/svg" version="1.1">
 <metadata>
  <rdf:RDF xmlns:dc="http://purl.org/dc/elements/1.1/" xmlns:cc="http://creativecommons.org/ns#" xmlns:rdf="http://www.w3.org/1999/02/22-rdf-syntax-ns#">
   <cc:Work>
    <dc:type rdf:resource="http://purl.org/dc/dcmitype/StillImage"/>
    <dc:date>2026-06-16T12:45:07.503058</dc:date>
    <dc:format>image/svg+xml</dc:format>
    <dc:creator>
     <cc:Agent>
      <dc:title>Matplotlib v3.10.8, https://matplotlib.org/</dc:title>
     </cc:Agent>
    </dc:creator>
   </cc:Work>
  </rdf:RDF>
 </metadata>
 <defs>
  <style type="text/css">*{stroke-linejoin: round; stroke-linecap: butt}</style>
 </defs>
 <g id="figure_1">
  <g id="patch_1">
   <path d="M 0 483.709344 
L 834.470312 483.709344 
L 834.470312 0 
L 0 0 
z
" style="fill: #ffffff"/>
  </g>
  <g id="axes_1">
   <g id="patch_2">
    <path d="M 125.635156 430.365656 
L 728.275156 430.365656 
L 728.275156 31.197656 
L 125.635156 31.197656 
z
" style="fill: #ffffff"/>
   </g>
   <g id="matplotlib.axis_1">
    <g id="xtick_1">
     <g id="line2d_1">
      <path d="M 125.635156 430.365656 
L 125.635156 31.197656 
" clip-path="url(#p88642bd688)" style="fill: none; stroke: #b0b0b0; stroke-opacity: 0.17; stroke-width: 0.8; stroke-linecap: square"/>
     </g>
     <g id="line2d_2">
      <defs>
       <path id="mc53febf61a" d="M 0 0 
L 0 3.5 
" style="stroke: #000000; stroke-width: 0.8"/>
      </defs>
      <g>
       <use xlink:href="#mc53febf61a" x="125.635156" y="430.365656" style="stroke: #000000; stroke-width: 0.8"/>
      </g>
     </g>
     <g id="text_1">
      <!-- $\mathdefault{10^{2}}$ -->
      <g transform="translate(116.835156 444.964094) scale(0.1 -0.1)">
       <defs>
        <path id="DejaVuSans-31" d="M 794 531 
L 1825 531 
L 1825 4091 
L 703 3866 
L 703 4441 
L 1819 4666 
L 2450 4666 
L 2450 531 
L 3481 531 
L 3481 0 
L 794 0 
L 794 531 
z
" transform="scale(0.015625)"/>
        <path id="DejaVuSans-30" d="M 2034 4250 
Q 1547 4250 1301 3770 
Q 1056 3291 1056 2328 
Q 1056 1369 1301 889 
Q 1547 409 2034 409 
Q 2525 409 2770 889 
Q 3016 1369 3016 2328 
Q 3016 3291 2770 3770 
Q 2525 4250 2034 4250 
z
M 2034 4750 
Q 2819 4750 3233 4129 
Q 3647 3509 3647 2328 
Q 3647 1150 3233 529 
Q 2819 -91 2034 -91 
Q 1250 -91 836 529 
Q 422 1150 422 2328 
Q 422 3509 836 4129 
Q 1250 4750 2034 4750 
z
" transform="scale(0.015625)"/>
        <path id="DejaVuSans-32" d="M 1228 531 
L 3431 531 
L 3431 0 
L 469 0 
L 469 531 
Q 828 903 1448 1529 
Q 2069 2156 2228 2338 
Q 2531 2678 2651 2914 
Q 2772 3150 2772 3378 
Q 2772 3750 2511 3984 
Q 2250 4219 1831 4219 
Q 1534 4219 1204 4116 
Q 875 4013 500 3803 
L 500 4441 
Q 881 4594 1212 4672 
Q 1544 4750 1819 4750 
Q 2544 4750 2975 4387 
Q 3406 4025 3406 3419 
Q 3406 3131 3298 2873 
Q 3191 2616 2906 2266 
Q 2828 2175 2409 1742 
Q 1991 1309 1228 531 
z
" transform="scale(0.015625)"/>
       </defs>
       <use xlink:href="#DejaVuSans-31" transform="translate(0 0.765625)"/>
       <use xlink:href="#DejaVuSans-30" transform="translate(63.623047 0.765625)"/>
       <use xlink:href="#DejaVuSans-32" transform="translate(128.203125 39.046875) scale(0.7)"/>
      </g>
     </g>
    </g>
    <g id="xtick_2">
     <g id="line2d_3">
      <path d="M 321.349521 430.365656 
L 321.349521 31.197656 
" clip-path="url(#p88642bd688)" style="fill: none; stroke: #b0b0b0; stroke-opacity: 0.17; stroke-width: 0.8; stroke-linecap: square"/>
     </g>
     <g id="line2d_4">
      <g>
       <use xlink:href="#mc53febf61a" x="321.349521" y="430.365656" style="stroke: #000000; stroke-width: 0.8"/>
      </g>
     </g>
     <g id="text_2">
      <!-- $\mathdefault{10^{3}}$ -->
      <g transform="translate(312.549521 444.964094) scale(0.1 -0.1)">
       <defs>
        <path id="DejaVuSans-33" d="M 2597 2516 
Q 3050 2419 3304 2112 
Q 3559 1806 3559 1356 
Q 3559 666 3084 287 
Q 2609 -91 1734 -91 
Q 1441 -91 1130 -33 
Q 819 25 488 141 
L 488 750 
Q 750 597 1062 519 
Q 1375 441 1716 441 
Q 2309 441 2620 675 
Q 2931 909 2931 1356 
Q 2931 1769 2642 2001 
Q 2353 2234 1838 2234 
L 1294 2234 
L 1294 2753 
L 1863 2753 
Q 2328 2753 2575 2939 
Q 2822 3125 2822 3475 
Q 2822 3834 2567 4026 
Q 2313 4219 1838 4219 
Q 1578 4219 1281 4162 
Q 984 4106 628 3988 
L 628 4550 
Q 988 4650 1302 4700 
Q 1616 4750 1894 4750 
Q 2613 4750 3031 4423 
Q 3450 4097 3450 3541 
Q 3450 3153 3228 2886 
Q 3006 2619 2597 2516 
z
" transform="scale(0.015625)"/>
       </defs>
       <use xlink:href="#DejaVuSans-31" transform="translate(0 0.765625)"/>
       <use xlink:href="#DejaVuSans-30" transform="translate(63.623047 0.765625)"/>
       <use xlink:href="#DejaVuSans-33" transform="translate(128.203125 39.046875) scale(0.7)"/>
      </g>
     </g>
    </g>
    <g id="xtick_3">
     <g id="line2d_5">
      <path d="M 517.063885 430.365656 
L 517.063885 31.197656 
" clip-path="url(#p88642bd688)" style="fill: none; stroke: #b0b0b0; stroke-opacity: 0.17; stroke-width: 0.8; stroke-linecap: square"/>
     </g>
     <g id="line2d_6">
      <g>
       <use xlink:href="#mc53febf61a" x="517.063885" y="430.365656" style="stroke: #000000; stroke-width: 0.8"/>
      </g>
     </g>
     <g id="text_3">
      <!-- $\mathdefault{10^{4}}$ -->
      <g transform="translate(508.263885 444.964094) scale(0.1 -0.1)">
       <defs>
        <path id="DejaVuSans-34" d="M 2419 4116 
L 825 1625 
L 2419 1625 
L 2419 4116 
z
M 2253 4666 
L 3047 4666 
L 3047 1625 
L 3713 1625 
L 3713 1100 
L 3047 1100 
L 3047 0 
L 2419 0 
L 2419 1100 
L 313 1100 
L 313 1709 
L 2253 4666 
z
" transform="scale(0.015625)"/>
       </defs>
       <use xlink:href="#DejaVuSans-31" transform="translate(0 0.684375)"/>
       <use xlink:href="#DejaVuSans-30" transform="translate(63.623047 0.684375)"/>
       <use xlink:href="#DejaVuSans-34" transform="translate(128.203125 38.965625) scale(0.7)"/>
      </g>
     </g>
    </g>
    <g id="xtick_4">
     <g id="line2d_7">
      <path d="M 712.778249 430.365656 
L 712.778249 31.197656 
" clip-path="url(#p88642bd688)" style="fill: none; stroke: #b0b0b0; stroke-opacity: 0.17; stroke-width: 0.8; stroke-linecap: square"/>
     </g>
     <g id="line2d_8">
      <g>
       <use xlink:href="#mc53febf61a" x="712.778249" y="430.365656" style="stroke: #000000; stroke-width: 0.8"/>
      </g>
     </g>
     <g id="text_4">
      <!-- $\mathdefault{10^{5}}$ -->
      <g transform="translate(703.978249 444.964094) scale(0.1 -0.1)">
       <defs>
        <path id="DejaVuSans-35" d="M 691 4666 
L 3169 4666 
L 3169 4134 
L 1269 4134 
L 1269 2991 
Q 1406 3038 1543 3061 
Q 1681 3084 1819 3084 
Q 2600 3084 3056 2656 
Q 3513 2228 3513 1497 
Q 3513 744 3044 326 
Q 2575 -91 1722 -91 
Q 1428 -91 1123 -41 
Q 819 9 494 109 
L 494 744 
Q 775 591 1075 516 
Q 1375 441 1709 441 
Q 2250 441 2565 725 
Q 2881 1009 2881 1497 
Q 2881 1984 2565 2268 
Q 2250 2553 1709 2553 
Q 1456 2553 1204 2497 
Q 953 2441 691 2322 
L 691 4666 
z
" transform="scale(0.015625)"/>
       </defs>
       <use xlink:href="#DejaVuSans-31" transform="translate(0 0.684375)"/>
       <use xlink:href="#DejaVuSans-30" transform="translate(63.623047 0.684375)"/>
       <use xlink:href="#DejaVuSans-35" transform="translate(128.203125 38.965625) scale(0.7)"/>
      </g>
     </g>
    </g>
    <g id="xtick_5">
     <g id="line2d_9">
      <path d="M 184.55105 430.365656 
L 184.55105 31.197656 
" clip-path="url(#p88642bd688)" style="fill: none; stroke: #b0b0b0; stroke-opacity: 0.17; stroke-width: 0.8; stroke-linecap: square"/>
     </g>
     <g id="line2d_10">
      <defs>
       <path id="m10e9765f5a" d="M 0 0 
L 0 2 
" style="stroke: #000000; stroke-width: 0.6"/>
      </defs>
      <g>
       <use xlink:href="#m10e9765f5a" x="184.55105" y="430.365656" style="stroke: #000000; stroke-width: 0.6"/>
      </g>
     </g>
    </g>
    <g id="xtick_6">
     <g id="line2d_11">
      <path d="M 219.014639 430.365656 
L 219.014639 31.197656 
" clip-path="url(#p88642bd688)" style="fill: none; stroke: #b0b0b0; stroke-opacity: 0.17; stroke-width: 0.8; stroke-linecap: square"/>
     </g>
     <g id="line2d_12">
      <g>
       <use xlink:href="#m10e9765f5a" x="219.014639" y="430.365656" style="stroke: #000000; stroke-width: 0.6"/>
      </g>
     </g>
    </g>
    <g id="xtick_7">
     <g id="line2d_13">
      <path d="M 243.466945 430.365656 
L 243.466945 31.197656 
" clip-path="url(#p88642bd688)" style="fill: none; stroke: #b0b0b0; stroke-opacity: 0.17; stroke-width: 0.8; stroke-linecap: square"/>
     </g>
     <g id="line2d_14">
      <g>
       <use xlink:href="#m10e9765f5a" x="243.466945" y="430.365656" style="stroke: #000000; stroke-width: 0.6"/>
      </g>
     </g>
    </g>
    <g id="xtick_8">
     <g id="line2d_15">
      <path d="M 262.433626 430.365656 
L 262.433626 31.197656 
" clip-path="url(#p88642bd688)" style="fill: none; stroke: #b0b0b0; stroke-opacity: 0.17; stroke-width: 0.8; stroke-linecap: square"/>
     </g>
     <g id="line2d_16">
      <g>
       <use xlink:href="#m10e9765f5a" x="262.433626" y="430.365656" style="stroke: #000000; stroke-width: 0.6"/>
      </g>
     </g>
    </g>
    <g id="xtick_9">
     <g id="line2d_17">
      <path d="M 277.930534 430.365656 
L 277.930534 31.197656 
" clip-path="url(#p88642bd688)" style="fill: none; stroke: #b0b0b0; stroke-opacity: 0.17; stroke-width: 0.8; stroke-linecap: square"/>
     </g>
     <g id="line2d_18">
      <g>
       <use xlink:href="#m10e9765f5a" x="277.930534" y="430.365656" style="stroke: #000000; stroke-width: 0.6"/>
      </g>
     </g>
    </g>
    <g id="xtick_10">
     <g id="line2d_19">
      <path d="M 291.032982 430.365656 
L 291.032982 31.197656 
" clip-path="url(#p88642bd688)" style="fill: none; stroke: #b0b0b0; stroke-opacity: 0.17; stroke-width: 0.8; stroke-linecap: square"/>
     </g>
     <g id="line2d_20">
      <g>
       <use xlink:href="#m10e9765f5a" x="291.032982" y="430.365656" style="stroke: #000000; stroke-width: 0.6"/>
      </g>
     </g>
    </g>
    <g id="xtick_11">
     <g id="line2d_21">
      <path d="M 302.382839 430.365656 
L 302.382839 31.197656 
" clip-path="url(#p88642bd688)" style="fill: none; stroke: #b0b0b0; stroke-opacity: 0.17; stroke-width: 0.8; stroke-linecap: square"/>
     </g>
     <g id="line2d_22">
      <g>
       <use xlink:href="#m10e9765f5a" x="302.382839" y="430.365656" style="stroke: #000000; stroke-width: 0.6"/>
      </g>
     </g>
    </g>
    <g id="xtick_12">
     <g id="line2d_23">
      <path d="M 312.394122 430.365656 
L 312.394122 31.197656 
" clip-path="url(#p88642bd688)" style="fill: none; stroke: #b0b0b0; stroke-opacity: 0.17; stroke-width: 0.8; stroke-linecap: square"/>
     </g>
     <g id="line2d_24">
      <g>
       <use xlink:href="#m10e9765f5a" x="312.394122" y="430.365656" style="stroke: #000000; stroke-width: 0.6"/>
      </g>
     </g>
    </g>
    <g id="xtick_13">
     <g id="line2d_25">
      <path d="M 380.265415 430.365656 
L 380.265415 31.197656 
" clip-path="url(#p88642bd688)" style="fill: none; stroke: #b0b0b0; stroke-opacity: 0.17; stroke-width: 0.8; stroke-linecap: square"/>
     </g>
     <g id="line2d_26">
      <g>
       <use xlink:href="#m10e9765f5a" x="380.265415" y="430.365656" style="stroke: #000000; stroke-width: 0.6"/>
      </g>
     </g>
    </g>
    <g id="xtick_14">
     <g id="line2d_27">
      <path d="M 414.729004 430.365656 
L 414.729004 31.197656 
" clip-path="url(#p88642bd688)" style="fill: none; stroke: #b0b0b0; stroke-opacity: 0.17; stroke-width: 0.8; stroke-linecap: square"/>
     </g>
     <g id="line2d_28">
      <g>
       <use xlink:href="#m10e9765f5a" x="414.729004" y="430.365656" style="stroke: #000000; stroke-width: 0.6"/>
      </g>
     </g>
    </g>
    <g id="xtick_15">
     <g id="line2d_29">
      <path d="M 439.181309 430.365656 
L 439.181309 31.197656 
" clip-path="url(#p88642bd688)" style="fill: none; stroke: #b0b0b0; stroke-opacity: 0.17; stroke-width: 0.8; stroke-linecap: square"/>
     </g>
     <g id="line2d_30">
      <g>
       <use xlink:href="#m10e9765f5a" x="439.181309" y="430.365656" style="stroke: #000000; stroke-width: 0.6"/>
      </g>
     </g>
    </g>
    <g id="xtick_16">
     <g id="line2d_31">
      <path d="M 458.147991 430.365656 
L 458.147991 31.197656 
" clip-path="url(#p88642bd688)" style="fill: none; stroke: #b0b0b0; stroke-opacity: 0.17; stroke-width: 0.8; stroke-linecap: square"/>
     </g>
     <g id="line2d_32">
      <g>
       <use xlink:href="#m10e9765f5a" x="458.147991" y="430.365656" style="stroke: #000000; stroke-width: 0.6"/>
      </g>
     </g>
    </g>
    <g id="xtick_17">
     <g id="line2d_33">
      <path d="M 473.644898 430.365656 
L 473.644898 31.197656 
" clip-path="url(#p88642bd688)" style="fill: none; stroke: #b0b0b0; stroke-opacity: 0.17; stroke-width: 0.8; stroke-linecap: square"/>
     </g>
     <g id="line2d_34">
      <g>
       <use xlink:href="#m10e9765f5a" x="473.644898" y="430.365656" style="stroke: #000000; stroke-width: 0.6"/>
      </g>
     </g>
    </g>
    <g id="xtick_18">
     <g id="line2d_35">
      <path d="M 486.747346 430.365656 
L 486.747346 31.197656 
" clip-path="url(#p88642bd688)" style="fill: none; stroke: #b0b0b0; stroke-opacity: 0.17; stroke-width: 0.8; stroke-linecap: square"/>
     </g>
     <g id="line2d_36">
      <g>
       <use xlink:href="#m10e9765f5a" x="486.747346" y="430.365656" style="stroke: #000000; stroke-width: 0.6"/>
      </g>
     </g>
    </g>
    <g id="xtick_19">
     <g id="line2d_37">
      <path d="M 498.097203 430.365656 
L 498.097203 31.197656 
" clip-path="url(#p88642bd688)" style="fill: none; stroke: #b0b0b0; stroke-opacity: 0.17; stroke-width: 0.8; stroke-linecap: square"/>
     </g>
     <g id="line2d_38">
      <g>
       <use xlink:href="#m10e9765f5a" x="498.097203" y="430.365656" style="stroke: #000000; stroke-width: 0.6"/>
      </g>
     </g>
    </g>
    <g id="xtick_20">
     <g id="line2d_39">
      <path d="M 508.108487 430.365656 
L 508.108487 31.197656 
" clip-path="url(#p88642bd688)" style="fill: none; stroke: #b0b0b0; stroke-opacity: 0.17; stroke-width: 0.8; stroke-linecap: square"/>
     </g>
     <g id="line2d_40">
      <g>
       <use xlink:href="#m10e9765f5a" x="508.108487" y="430.365656" style="stroke: #000000; stroke-width: 0.6"/>
      </g>
     </g>
    </g>
    <g id="xtick_21">
     <g id="line2d_41">
      <path d="M 575.979779 430.365656 
L 575.979779 31.197656 
" clip-path="url(#p88642bd688)" style="fill: none; stroke: #b0b0b0; stroke-opacity: 0.17; stroke-width: 0.8; stroke-linecap: square"/>
     </g>
     <g id="line2d_42">
      <g>
       <use xlink:href="#m10e9765f5a" x="575.979779" y="430.365656" style="stroke: #000000; stroke-width: 0.6"/>
      </g>
     </g>
    </g>
    <g id="xtick_22">
     <g id="line2d_43">
      <path d="M 610.443368 430.365656 
L 610.443368 31.197656 
" clip-path="url(#p88642bd688)" style="fill: none; stroke: #b0b0b0; stroke-opacity: 0.17; stroke-width: 0.8; stroke-linecap: square"/>
     </g>
     <g id="line2d_44">
      <g>
       <use xlink:href="#m10e9765f5a" x="610.443368" y="430.365656" style="stroke: #000000; stroke-width: 0.6"/>
      </g>
     </g>
    </g>
    <g id="xtick_23">
     <g id="line2d_45">
      <path d="M 634.895673 430.365656 
L 634.895673 31.197656 
" clip-path="url(#p88642bd688)" style="fill: none; stroke: #b0b0b0; stroke-opacity: 0.17; stroke-width: 0.8; stroke-linecap: square"/>
     </g>
     <g id="line2d_46">
      <g>
       <use xlink:href="#m10e9765f5a" x="634.895673" y="430.365656" style="stroke: #000000; stroke-width: 0.6"/>
      </g>
     </g>
    </g>
    <g id="xtick_24">
     <g id="line2d_47">
      <path d="M 653.862355 430.365656 
L 653.862355 31.197656 
" clip-path="url(#p88642bd688)" style="fill: none; stroke: #b0b0b0; stroke-opacity: 0.17; stroke-width: 0.8; stroke-linecap: square"/>
     </g>
     <g id="line2d_48">
      <g>
       <use xlink:href="#m10e9765f5a" x="653.862355" y="430.365656" style="stroke: #000000; stroke-width: 0.6"/>
      </g>
     </g>
    </g>
    <g id="xtick_25">
     <g id="line2d_49">
      <path d="M 669.359262 430.365656 
L 669.359262 31.197656 
" clip-path="url(#p88642bd688)" style="fill: none; stroke: #b0b0b0; stroke-opacity: 0.17; stroke-width: 0.8; stroke-linecap: square"/>
     </g>
     <g id="line2d_50">
      <g>
       <use xlink:href="#m10e9765f5a" x="669.359262" y="430.365656" style="stroke: #000000; stroke-width: 0.6"/>
      </g>
     </g>
    </g>
    <g id="xtick_26">
     <g id="line2d_51">
      <path d="M 682.46171 430.365656 
L 682.46171 31.197656 
" clip-path="url(#p88642bd688)" style="fill: none; stroke: #b0b0b0; stroke-opacity: 0.17; stroke-width: 0.8; stroke-linecap: square"/>
     </g>
     <g id="line2d_52">
      <g>
       <use xlink:href="#m10e9765f5a" x="682.46171" y="430.365656" style="stroke: #000000; stroke-width: 0.6"/>
      </g>
     </g>
    </g>
    <g id="xtick_27">
     <g id="line2d_53">
      <path d="M 693.811567 430.365656 
L 693.811567 31.197656 
" clip-path="url(#p88642bd688)" style="fill: none; stroke: #b0b0b0; stroke-opacity: 0.17; stroke-width: 0.8; stroke-linecap: square"/>
     </g>
     <g id="line2d_54">
      <g>
       <use xlink:href="#m10e9765f5a" x="693.811567" y="430.365656" style="stroke: #000000; stroke-width: 0.6"/>
      </g>
     </g>
    </g>
    <g id="xtick_28">
     <g id="line2d_55">
      <path d="M 703.822851 430.365656 
L 703.822851 31.197656 
" clip-path="url(#p88642bd688)" style="fill: none; stroke: #b0b0b0; stroke-opacity: 0.17; stroke-width: 0.8; stroke-linecap: square"/>
     </g>
     <g id="line2d_56">
      <g>
       <use xlink:href="#m10e9765f5a" x="703.822851" y="430.365656" style="stroke: #000000; stroke-width: 0.6"/>
      </g>
     </g>
    </g>
    <g id="text_5">
     <!-- campo elettrico (V/cm) -->
     <g transform="translate(369.518437 458.642219) scale(0.1 -0.1)">
      <defs>
       <path id="DejaVuSans-63" d="M 3122 3366 
L 3122 2828 
Q 2878 2963 2633 3030 
Q 2388 3097 2138 3097 
Q 1578 3097 1268 2742 
Q 959 2388 959 1747 
Q 959 1106 1268 751 
Q 1578 397 2138 397 
Q 2388 397 2633 464 
Q 2878 531 3122 666 
L 3122 134 
Q 2881 22 2623 -34 
Q 2366 -91 2075 -91 
Q 1284 -91 818 406 
Q 353 903 353 1747 
Q 353 2603 823 3093 
Q 1294 3584 2113 3584 
Q 2378 3584 2631 3529 
Q 2884 3475 3122 3366 
z
" transform="scale(0.015625)"/>
       <path id="DejaVuSans-61" d="M 2194 1759 
Q 1497 1759 1228 1600 
Q 959 1441 959 1056 
Q 959 750 1161 570 
Q 1363 391 1709 391 
Q 2188 391 2477 730 
Q 2766 1069 2766 1631 
L 2766 1759 
L 2194 1759 
z
M 3341 1997 
L 3341 0 
L 2766 0 
L 2766 531 
Q 2569 213 2275 61 
Q 1981 -91 1556 -91 
Q 1019 -91 701 211 
Q 384 513 384 1019 
Q 384 1609 779 1909 
Q 1175 2209 1959 2209 
L 2766 2209 
L 2766 2266 
Q 2766 2663 2505 2880 
Q 2244 3097 1772 3097 
Q 1472 3097 1187 3025 
Q 903 2953 641 2809 
L 641 3341 
Q 956 3463 1253 3523 
Q 1550 3584 1831 3584 
Q 2591 3584 2966 3190 
Q 3341 2797 3341 1997 
z
" transform="scale(0.015625)"/>
       <path id="DejaVuSans-6d" d="M 3328 2828 
Q 3544 3216 3844 3400 
Q 4144 3584 4550 3584 
Q 5097 3584 5394 3201 
Q 5691 2819 5691 2113 
L 5691 0 
L 5113 0 
L 5113 2094 
Q 5113 2597 4934 2840 
Q 4756 3084 4391 3084 
Q 3944 3084 3684 2787 
Q 3425 2491 3425 1978 
L 3425 0 
L 2847 0 
L 2847 2094 
Q 2847 2600 2669 2842 
Q 2491 3084 2119 3084 
Q 1678 3084 1418 2786 
Q 1159 2488 1159 1978 
L 1159 0 
L 581 0 
L 581 3500 
L 1159 3500 
L 1159 2956 
Q 1356 3278 1631 3431 
Q 1906 3584 2284 3584 
Q 2666 3584 2933 3390 
Q 3200 3197 3328 2828 
z
" transform="scale(0.015625)"/>
       <path id="DejaVuSans-70" d="M 1159 525 
L 1159 -1331 
L 581 -1331 
L 581 3500 
L 1159 3500 
L 1159 2969 
Q 1341 3281 1617 3432 
Q 1894 3584 2278 3584 
Q 2916 3584 3314 3078 
Q 3713 2572 3713 1747 
Q 3713 922 3314 415 
Q 2916 -91 2278 -91 
Q 1894 -91 1617 61 
Q 1341 213 1159 525 
z
M 3116 1747 
Q 3116 2381 2855 2742 
Q 2594 3103 2138 3103 
Q 1681 3103 1420 2742 
Q 1159 2381 1159 1747 
Q 1159 1113 1420 752 
Q 1681 391 2138 391 
Q 2594 391 2855 752 
Q 3116 1113 3116 1747 
z
" transform="scale(0.015625)"/>
       <path id="DejaVuSans-6f" d="M 1959 3097 
Q 1497 3097 1228 2736 
Q 959 2375 959 1747 
Q 959 1119 1226 758 
Q 1494 397 1959 397 
Q 2419 397 2687 759 
Q 2956 1122 2956 1747 
Q 2956 2369 2687 2733 
Q 2419 3097 1959 3097 
z
M 1959 3584 
Q 2709 3584 3137 3096 
Q 3566 2609 3566 1747 
Q 3566 888 3137 398 
Q 2709 -91 1959 -91 
Q 1206 -91 779 398 
Q 353 888 353 1747 
Q 353 2609 779 3096 
Q 1206 3584 1959 3584 
z
" transform="scale(0.015625)"/>
       <path id="DejaVuSans-20" transform="scale(0.015625)"/>
       <path id="DejaVuSans-65" d="M 3597 1894 
L 3597 1613 
L 953 1613 
Q 991 1019 1311 708 
Q 1631 397 2203 397 
Q 2534 397 2845 478 
Q 3156 559 3463 722 
L 3463 178 
Q 3153 47 2828 -22 
Q 2503 -91 2169 -91 
Q 1331 -91 842 396 
Q 353 884 353 1716 
Q 353 2575 817 3079 
Q 1281 3584 2069 3584 
Q 2775 3584 3186 3129 
Q 3597 2675 3597 1894 
z
M 3022 2063 
Q 3016 2534 2758 2815 
Q 2500 3097 2075 3097 
Q 1594 3097 1305 2825 
Q 1016 2553 972 2059 
L 3022 2063 
z
" transform="scale(0.015625)"/>
       <path id="DejaVuSans-6c" d="M 603 4863 
L 1178 4863 
L 1178 0 
L 603 0 
L 603 4863 
z
" transform="scale(0.015625)"/>
       <path id="DejaVuSans-74" d="M 1172 4494 
L 1172 3500 
L 2356 3500 
L 2356 3053 
L 1172 3053 
L 1172 1153 
Q 1172 725 1289 603 
Q 1406 481 1766 481 
L 2356 481 
L 2356 0 
L 1766 0 
Q 1100 0 847 248 
Q 594 497 594 1153 
L 594 3053 
L 172 3053 
L 172 3500 
L 594 3500 
L 594 4494 
L 1172 4494 
z
" transform="scale(0.015625)"/>
       <path id="DejaVuSans-72" d="M 2631 2963 
Q 2534 3019 2420 3045 
Q 2306 3072 2169 3072 
Q 1681 3072 1420 2755 
Q 1159 2438 1159 1844 
L 1159 0 
L 581 0 
L 581 3500 
L 1159 3500 
L 1159 2956 
Q 1341 3275 1631 3429 
Q 1922 3584 2338 3584 
Q 2397 3584 2469 3576 
Q 2541 3569 2628 3553 
L 2631 2963 
z
" transform="scale(0.015625)"/>
       <path id="DejaVuSans-69" d="M 603 3500 
L 1178 3500 
L 1178 0 
L 603 0 
L 603 3500 
z
M 603 4863 
L 1178 4863 
L 1178 4134 
L 603 4134 
L 603 4863 
z
" transform="scale(0.015625)"/>
       <path id="DejaVuSans-28" d="M 1984 4856 
Q 1566 4138 1362 3434 
Q 1159 2731 1159 2009 
Q 1159 1288 1364 580 
Q 1569 -128 1984 -844 
L 1484 -844 
Q 1016 -109 783 600 
Q 550 1309 550 2009 
Q 550 2706 781 3412 
Q 1013 4119 1484 4856 
L 1984 4856 
z
" transform="scale(0.015625)"/>
       <path id="DejaVuSans-56" d="M 1831 0 
L 50 4666 
L 709 4666 
L 2188 738 
L 3669 4666 
L 4325 4666 
L 2547 0 
L 1831 0 
z
" transform="scale(0.015625)"/>
       <path id="DejaVuSans-2f" d="M 1625 4666 
L 2156 4666 
L 531 -594 
L 0 -594 
L 1625 4666 
z
" transform="scale(0.015625)"/>
       <path id="DejaVuSans-29" d="M 513 4856 
L 1013 4856 
Q 1481 4119 1714 3412 
Q 1947 2706 1947 2009 
Q 1947 1309 1714 600 
Q 1481 -109 1013 -844 
L 513 -844 
Q 928 -128 1133 580 
Q 1338 1288 1338 2009 
Q 1338 2731 1133 3434 
Q 928 4138 513 4856 
z
" transform="scale(0.015625)"/>
      </defs>
      <use xlink:href="#DejaVuSans-63"/>
      <use xlink:href="#DejaVuSans-61" transform="translate(54.980469 0)"/>
      <use xlink:href="#DejaVuSans-6d" transform="translate(116.259766 0)"/>
      <use xlink:href="#DejaVuSans-70" transform="translate(213.671875 0)"/>
      <use xlink:href="#DejaVuSans-6f" transform="translate(277.148438 0)"/>
      <use xlink:href="#DejaVuSans-20" transform="translate(338.330078 0)"/>
      <use xlink:href="#DejaVuSans-65" transform="translate(370.117188 0)"/>
      <use xlink:href="#DejaVuSans-6c" transform="translate(431.640625 0)"/>
      <use xlink:href="#DejaVuSans-65" transform="translate(459.423828 0)"/>
      <use xlink:href="#DejaVuSans-74" transform="translate(520.947266 0)"/>
      <use xlink:href="#DejaVuSans-74" transform="translate(560.15625 0)"/>
      <use xlink:href="#DejaVuSans-72" transform="translate(599.365234 0)"/>
      <use xlink:href="#DejaVuSans-69" transform="translate(640.478516 0)"/>
      <use xlink:href="#DejaVuSans-63" transform="translate(668.261719 0)"/>
      <use xlink:href="#DejaVuSans-6f" transform="translate(723.242188 0)"/>
      <use xlink:href="#DejaVuSans-20" transform="translate(784.423828 0)"/>
      <use xlink:href="#DejaVuSans-28" transform="translate(816.210938 0)"/>
      <use xlink:href="#DejaVuSans-56" transform="translate(855.224609 0)"/>
      <use xlink:href="#DejaVuSans-2f" transform="translate(923.632812 0)"/>
      <use xlink:href="#DejaVuSans-63" transform="translate(957.324219 0)"/>
      <use xlink:href="#DejaVuSans-6d" transform="translate(1012.304688 0)"/>
      <use xlink:href="#DejaVuSans-29" transform="translate(1109.716797 0)"/>
     </g>
    </g>
   </g>
   <g id="matplotlib.axis_2">
    <g id="ytick_1">
     <g id="line2d_57">
      <path d="M 125.635156 414.631995 
L 728.275156 414.631995 
" clip-path="url(#p88642bd688)" style="fill: none; stroke: #b0b0b0; stroke-opacity: 0.17; stroke-width: 0.8; stroke-linecap: square"/>
     </g>
     <g id="line2d_58">
      <defs>
       <path id="m530ba76bd6" d="M 0 0 
L -3.5 0 
" style="stroke: #000000; stroke-width: 0.8"/>
      </defs>
      <g>
       <use xlink:href="#m530ba76bd6" x="125.635156" y="414.631995" style="stroke: #000000; stroke-width: 0.8"/>
      </g>
     </g>
     <g id="text_6">
      <!-- $\mathdefault{10^{5}}$ -->
      <g transform="translate(101.035156 418.431213) scale(0.1 -0.1)">
       <use xlink:href="#DejaVuSans-31" transform="translate(0 0.684375)"/>
       <use xlink:href="#DejaVuSans-30" transform="translate(63.623047 0.684375)"/>
       <use xlink:href="#DejaVuSans-35" transform="translate(128.203125 38.965625) scale(0.7)"/>
      </g>
     </g>
    </g>
    <g id="ytick_2">
     <g id="line2d_59">
      <path d="M 125.635156 252.278682 
L 728.275156 252.278682 
" clip-path="url(#p88642bd688)" style="fill: none; stroke: #b0b0b0; stroke-opacity: 0.17; stroke-width: 0.8; stroke-linecap: square"/>
     </g>
     <g id="line2d_60">
      <g>
       <use xlink:href="#m530ba76bd6" x="125.635156" y="252.278682" style="stroke: #000000; stroke-width: 0.8"/>
      </g>
     </g>
     <g id="text_7">
      <!-- $\mathdefault{10^{6}}$ -->
      <g transform="translate(101.035156 256.0779) scale(0.1 -0.1)">
       <defs>
        <path id="DejaVuSans-36" d="M 2113 2584 
Q 1688 2584 1439 2293 
Q 1191 2003 1191 1497 
Q 1191 994 1439 701 
Q 1688 409 2113 409 
Q 2538 409 2786 701 
Q 3034 994 3034 1497 
Q 3034 2003 2786 2293 
Q 2538 2584 2113 2584 
z
M 3366 4563 
L 3366 3988 
Q 3128 4100 2886 4159 
Q 2644 4219 2406 4219 
Q 1781 4219 1451 3797 
Q 1122 3375 1075 2522 
Q 1259 2794 1537 2939 
Q 1816 3084 2150 3084 
Q 2853 3084 3261 2657 
Q 3669 2231 3669 1497 
Q 3669 778 3244 343 
Q 2819 -91 2113 -91 
Q 1303 -91 875 529 
Q 447 1150 447 2328 
Q 447 3434 972 4092 
Q 1497 4750 2381 4750 
Q 2619 4750 2861 4703 
Q 3103 4656 3366 4563 
z
" transform="scale(0.015625)"/>
       </defs>
       <use xlink:href="#DejaVuSans-31" transform="translate(0 0.765625)"/>
       <use xlink:href="#DejaVuSans-30" transform="translate(63.623047 0.765625)"/>
       <use xlink:href="#DejaVuSans-36" transform="translate(128.203125 39.046875) scale(0.7)"/>
      </g>
     </g>
    </g>
    <g id="ytick_3">
     <g id="line2d_61">
      <path d="M 125.635156 89.925369 
L 728.275156 89.925369 
" clip-path="url(#p88642bd688)" style="fill: none; stroke: #b0b0b0; stroke-opacity: 0.17; stroke-width: 0.8; stroke-linecap: square"/>
     </g>
     <g id="line2d_62">
      <g>
       <use xlink:href="#m530ba76bd6" x="125.635156" y="89.925369" style="stroke: #000000; stroke-width: 0.8"/>
      </g>
     </g>
     <g id="text_8">
      <!-- $\mathdefault{10^{7}}$ -->
      <g transform="translate(101.035156 93.724588) scale(0.1 -0.1)">
       <defs>
        <path id="DejaVuSans-37" d="M 525 4666 
L 3525 4666 
L 3525 4397 
L 1831 0 
L 1172 0 
L 2766 4134 
L 525 4134 
L 525 4666 
z
" transform="scale(0.015625)"/>
       </defs>
       <use xlink:href="#DejaVuSans-31" transform="translate(0 0.684375)"/>
       <use xlink:href="#DejaVuSans-30" transform="translate(63.623047 0.684375)"/>
       <use xlink:href="#DejaVuSans-37" transform="translate(128.203125 38.965625) scale(0.7)"/>
      </g>
     </g>
    </g>
    <g id="ytick_4">
     <g id="line2d_63">
      <path d="M 125.635156 430.365656 
L 728.275156 430.365656 
" clip-path="url(#p88642bd688)" style="fill: none; stroke: #b0b0b0; stroke-opacity: 0.17; stroke-width: 0.8; stroke-linecap: square"/>
     </g>
     <g id="line2d_64">
      <defs>
       <path id="m17f9e5ff45" d="M 0 0 
L -2 0 
" style="stroke: #000000; stroke-width: 0.6"/>
      </defs>
      <g>
       <use xlink:href="#m17f9e5ff45" x="125.635156" y="430.365656" style="stroke: #000000; stroke-width: 0.6"/>
      </g>
     </g>
    </g>
    <g id="ytick_5">
     <g id="line2d_65">
      <path d="M 125.635156 422.060875 
L 728.275156 422.060875 
" clip-path="url(#p88642bd688)" style="fill: none; stroke: #b0b0b0; stroke-opacity: 0.17; stroke-width: 0.8; stroke-linecap: square"/>
     </g>
     <g id="line2d_66">
      <g>
       <use xlink:href="#m17f9e5ff45" x="125.635156" y="422.060875" style="stroke: #000000; stroke-width: 0.6"/>
      </g>
     </g>
    </g>
    <g id="ytick_6">
     <g id="line2d_67">
      <path d="M 125.635156 365.758778 
L 728.275156 365.758778 
" clip-path="url(#p88642bd688)" style="fill: none; stroke: #b0b0b0; stroke-opacity: 0.17; stroke-width: 0.8; stroke-linecap: square"/>
     </g>
     <g id="line2d_68">
      <g>
       <use xlink:href="#m17f9e5ff45" x="125.635156" y="365.758778" style="stroke: #000000; stroke-width: 0.6"/>
      </g>
     </g>
    </g>
    <g id="ytick_7">
     <g id="line2d_69">
      <path d="M 125.635156 337.169778 
L 728.275156 337.169778 
" clip-path="url(#p88642bd688)" style="fill: none; stroke: #b0b0b0; stroke-opacity: 0.17; stroke-width: 0.8; stroke-linecap: square"/>
     </g>
     <g id="line2d_70">
      <g>
       <use xlink:href="#m17f9e5ff45" x="125.635156" y="337.169778" style="stroke: #000000; stroke-width: 0.6"/>
      </g>
     </g>
    </g>
    <g id="ytick_8">
     <g id="line2d_71">
      <path d="M 125.635156 316.88556 
L 728.275156 316.88556 
" clip-path="url(#p88642bd688)" style="fill: none; stroke: #b0b0b0; stroke-opacity: 0.17; stroke-width: 0.8; stroke-linecap: square"/>
     </g>
     <g id="line2d_72">
      <g>
       <use xlink:href="#m17f9e5ff45" x="125.635156" y="316.88556" style="stroke: #000000; stroke-width: 0.6"/>
      </g>
     </g>
    </g>
    <g id="ytick_9">
     <g id="line2d_73">
      <path d="M 125.635156 301.151899 
L 728.275156 301.151899 
" clip-path="url(#p88642bd688)" style="fill: none; stroke: #b0b0b0; stroke-opacity: 0.17; stroke-width: 0.8; stroke-linecap: square"/>
     </g>
     <g id="line2d_74">
      <g>
       <use xlink:href="#m17f9e5ff45" x="125.635156" y="301.151899" style="stroke: #000000; stroke-width: 0.6"/>
      </g>
     </g>
    </g>
    <g id="ytick_10">
     <g id="line2d_75">
      <path d="M 125.635156 288.296561 
L 728.275156 288.296561 
" clip-path="url(#p88642bd688)" style="fill: none; stroke: #b0b0b0; stroke-opacity: 0.17; stroke-width: 0.8; stroke-linecap: square"/>
     </g>
     <g id="line2d_76">
      <g>
       <use xlink:href="#m17f9e5ff45" x="125.635156" y="288.296561" style="stroke: #000000; stroke-width: 0.6"/>
      </g>
     </g>
    </g>
    <g id="ytick_11">
     <g id="line2d_77">
      <path d="M 125.635156 277.427528 
L 728.275156 277.427528 
" clip-path="url(#p88642bd688)" style="fill: none; stroke: #b0b0b0; stroke-opacity: 0.17; stroke-width: 0.8; stroke-linecap: square"/>
     </g>
     <g id="line2d_78">
      <g>
       <use xlink:href="#m17f9e5ff45" x="125.635156" y="277.427528" style="stroke: #000000; stroke-width: 0.6"/>
      </g>
     </g>
    </g>
    <g id="ytick_12">
     <g id="line2d_79">
      <path d="M 125.635156 268.012343 
L 728.275156 268.012343 
" clip-path="url(#p88642bd688)" style="fill: none; stroke: #b0b0b0; stroke-opacity: 0.17; stroke-width: 0.8; stroke-linecap: square"/>
     </g>
     <g id="line2d_80">
      <g>
       <use xlink:href="#m17f9e5ff45" x="125.635156" y="268.012343" style="stroke: #000000; stroke-width: 0.6"/>
      </g>
     </g>
    </g>
    <g id="ytick_13">
     <g id="line2d_81">
      <path d="M 125.635156 259.707562 
L 728.275156 259.707562 
" clip-path="url(#p88642bd688)" style="fill: none; stroke: #b0b0b0; stroke-opacity: 0.17; stroke-width: 0.8; stroke-linecap: square"/>
     </g>
     <g id="line2d_82">
      <g>
       <use xlink:href="#m17f9e5ff45" x="125.635156" y="259.707562" style="stroke: #000000; stroke-width: 0.6"/>
      </g>
     </g>
    </g>
    <g id="ytick_14">
     <g id="line2d_83">
      <path d="M 125.635156 203.405465 
L 728.275156 203.405465 
" clip-path="url(#p88642bd688)" style="fill: none; stroke: #b0b0b0; stroke-opacity: 0.17; stroke-width: 0.8; stroke-linecap: square"/>
     </g>
     <g id="line2d_84">
      <g>
       <use xlink:href="#m17f9e5ff45" x="125.635156" y="203.405465" style="stroke: #000000; stroke-width: 0.6"/>
      </g>
     </g>
    </g>
    <g id="ytick_15">
     <g id="line2d_85">
      <path d="M 125.635156 174.816465 
L 728.275156 174.816465 
" clip-path="url(#p88642bd688)" style="fill: none; stroke: #b0b0b0; stroke-opacity: 0.17; stroke-width: 0.8; stroke-linecap: square"/>
     </g>
     <g id="line2d_86">
      <g>
       <use xlink:href="#m17f9e5ff45" x="125.635156" y="174.816465" style="stroke: #000000; stroke-width: 0.6"/>
      </g>
     </g>
    </g>
    <g id="ytick_16">
     <g id="line2d_87">
      <path d="M 125.635156 154.532248 
L 728.275156 154.532248 
" clip-path="url(#p88642bd688)" style="fill: none; stroke: #b0b0b0; stroke-opacity: 0.17; stroke-width: 0.8; stroke-linecap: square"/>
     </g>
     <g id="line2d_88">
      <g>
       <use xlink:href="#m17f9e5ff45" x="125.635156" y="154.532248" style="stroke: #000000; stroke-width: 0.6"/>
      </g>
     </g>
    </g>
    <g id="ytick_17">
     <g id="line2d_89">
      <path d="M 125.635156 138.798586 
L 728.275156 138.798586 
" clip-path="url(#p88642bd688)" style="fill: none; stroke: #b0b0b0; stroke-opacity: 0.17; stroke-width: 0.8; stroke-linecap: square"/>
     </g>
     <g id="line2d_90">
      <g>
       <use xlink:href="#m17f9e5ff45" x="125.635156" y="138.798586" style="stroke: #000000; stroke-width: 0.6"/>
      </g>
     </g>
    </g>
    <g id="ytick_18">
     <g id="line2d_91">
      <path d="M 125.635156 125.943248 
L 728.275156 125.943248 
" clip-path="url(#p88642bd688)" style="fill: none; stroke: #b0b0b0; stroke-opacity: 0.17; stroke-width: 0.8; stroke-linecap: square"/>
     </g>
     <g id="line2d_92">
      <g>
       <use xlink:href="#m17f9e5ff45" x="125.635156" y="125.943248" style="stroke: #000000; stroke-width: 0.6"/>
      </g>
     </g>
    </g>
    <g id="ytick_19">
     <g id="line2d_93">
      <path d="M 125.635156 115.074215 
L 728.275156 115.074215 
" clip-path="url(#p88642bd688)" style="fill: none; stroke: #b0b0b0; stroke-opacity: 0.17; stroke-width: 0.8; stroke-linecap: square"/>
     </g>
     <g id="line2d_94">
      <g>
       <use xlink:href="#m17f9e5ff45" x="125.635156" y="115.074215" style="stroke: #000000; stroke-width: 0.6"/>
      </g>
     </g>
    </g>
    <g id="ytick_20">
     <g id="line2d_95">
      <path d="M 125.635156 105.65903 
L 728.275156 105.65903 
" clip-path="url(#p88642bd688)" style="fill: none; stroke: #b0b0b0; stroke-opacity: 0.17; stroke-width: 0.8; stroke-linecap: square"/>
     </g>
     <g id="line2d_96">
      <g>
       <use xlink:href="#m17f9e5ff45" x="125.635156" y="105.65903" style="stroke: #000000; stroke-width: 0.6"/>
      </g>
     </g>
    </g>
    <g id="ytick_21">
     <g id="line2d_97">
      <path d="M 125.635156 97.354249 
L 728.275156 97.354249 
" clip-path="url(#p88642bd688)" style="fill: none; stroke: #b0b0b0; stroke-opacity: 0.17; stroke-width: 0.8; stroke-linecap: square"/>
     </g>
     <g id="line2d_98">
      <g>
       <use xlink:href="#m17f9e5ff45" x="125.635156" y="97.354249" style="stroke: #000000; stroke-width: 0.6"/>
      </g>
     </g>
    </g>
    <g id="ytick_22">
     <g id="line2d_99">
      <path d="M 125.635156 41.052152 
L 728.275156 41.052152 
" clip-path="url(#p88642bd688)" style="fill: none; stroke: #b0b0b0; stroke-opacity: 0.17; stroke-width: 0.8; stroke-linecap: square"/>
     </g>
     <g id="line2d_100">
      <g>
       <use xlink:href="#m17f9e5ff45" x="125.635156" y="41.052152" style="stroke: #000000; stroke-width: 0.6"/>
      </g>
     </g>
    </g>
    <g id="text_9">
     <!-- velocità di deriva (cm/s) -->
     <g transform="translate(94.955469 291.287906) rotate(-90) scale(0.1 -0.1)">
      <defs>
       <path id="DejaVuSans-76" d="M 191 3500 
L 800 3500 
L 1894 563 
L 2988 3500 
L 3597 3500 
L 2284 0 
L 1503 0 
L 191 3500 
z
" transform="scale(0.015625)"/>
       <path id="DejaVuSans-e0" d="M 2194 1759 
Q 1497 1759 1228 1600 
Q 959 1441 959 1056 
Q 959 750 1161 570 
Q 1363 391 1709 391 
Q 2188 391 2477 730 
Q 2766 1069 2766 1631 
L 2766 1759 
L 2194 1759 
z
M 3341 1997 
L 3341 0 
L 2766 0 
L 2766 531 
Q 2569 213 2275 61 
Q 1981 -91 1556 -91 
Q 1019 -91 701 211 
Q 384 513 384 1019 
Q 384 1609 779 1909 
Q 1175 2209 1959 2209 
L 2766 2209 
L 2766 2266 
Q 2766 2663 2505 2880 
Q 2244 3097 1772 3097 
Q 1472 3097 1187 3025 
Q 903 2953 641 2809 
L 641 3341 
Q 956 3463 1253 3523 
Q 1550 3584 1831 3584 
Q 2591 3584 2966 3190 
Q 3341 2797 3341 1997 
z
M 1403 5119 
L 2284 3950 
L 1806 3950 
L 787 5119 
L 1403 5119 
z
" transform="scale(0.015625)"/>
       <path id="DejaVuSans-64" d="M 2906 2969 
L 2906 4863 
L 3481 4863 
L 3481 0 
L 2906 0 
L 2906 525 
Q 2725 213 2448 61 
Q 2172 -91 1784 -91 
Q 1150 -91 751 415 
Q 353 922 353 1747 
Q 353 2572 751 3078 
Q 1150 3584 1784 3584 
Q 2172 3584 2448 3432 
Q 2725 3281 2906 2969 
z
M 947 1747 
Q 947 1113 1208 752 
Q 1469 391 1925 391 
Q 2381 391 2643 752 
Q 2906 1113 2906 1747 
Q 2906 2381 2643 2742 
Q 2381 3103 1925 3103 
Q 1469 3103 1208 2742 
Q 947 2381 947 1747 
z
" transform="scale(0.015625)"/>
       <path id="DejaVuSans-73" d="M 2834 3397 
L 2834 2853 
Q 2591 2978 2328 3040 
Q 2066 3103 1784 3103 
Q 1356 3103 1142 2972 
Q 928 2841 928 2578 
Q 928 2378 1081 2264 
Q 1234 2150 1697 2047 
L 1894 2003 
Q 2506 1872 2764 1633 
Q 3022 1394 3022 966 
Q 3022 478 2636 193 
Q 2250 -91 1575 -91 
Q 1294 -91 989 -36 
Q 684 19 347 128 
L 347 722 
Q 666 556 975 473 
Q 1284 391 1588 391 
Q 1994 391 2212 530 
Q 2431 669 2431 922 
Q 2431 1156 2273 1281 
Q 2116 1406 1581 1522 
L 1381 1569 
Q 847 1681 609 1914 
Q 372 2147 372 2553 
Q 372 3047 722 3315 
Q 1072 3584 1716 3584 
Q 2034 3584 2315 3537 
Q 2597 3491 2834 3397 
z
" transform="scale(0.015625)"/>
      </defs>
      <use xlink:href="#DejaVuSans-76"/>
      <use xlink:href="#DejaVuSans-65" transform="translate(59.179688 0)"/>
      <use xlink:href="#DejaVuSans-6c" transform="translate(120.703125 0)"/>
      <use xlink:href="#DejaVuSans-6f" transform="translate(148.486328 0)"/>
      <use xlink:href="#DejaVuSans-63" transform="translate(209.667969 0)"/>
      <use xlink:href="#DejaVuSans-69" transform="translate(264.648438 0)"/>
      <use xlink:href="#DejaVuSans-74" transform="translate(292.431641 0)"/>
      <use xlink:href="#DejaVuSans-e0" transform="translate(331.640625 0)"/>
      <use xlink:href="#DejaVuSans-20" transform="translate(392.919922 0)"/>
      <use xlink:href="#DejaVuSans-64" transform="translate(424.707031 0)"/>
      <use xlink:href="#DejaVuSans-69" transform="translate(488.183594 0)"/>
      <use xlink:href="#DejaVuSans-20" transform="translate(515.966797 0)"/>
      <use xlink:href="#DejaVuSans-64" transform="translate(547.753906 0)"/>
      <use xlink:href="#DejaVuSans-65" transform="translate(611.230469 0)"/>
      <use xlink:href="#DejaVuSans-72" transform="translate(672.753906 0)"/>
      <use xlink:href="#DejaVuSans-69" transform="translate(713.867188 0)"/>
      <use xlink:href="#DejaVuSans-76" transform="translate(741.650391 0)"/>
      <use xlink:href="#DejaVuSans-61" transform="translate(800.830078 0)"/>
      <use xlink:href="#DejaVuSans-20" transform="translate(862.109375 0)"/>
      <use xlink:href="#DejaVuSans-28" transform="translate(893.896484 0)"/>
      <use xlink:href="#DejaVuSans-63" transform="translate(932.910156 0)"/>
      <use xlink:href="#DejaVuSans-6d" transform="translate(987.890625 0)"/>
      <use xlink:href="#DejaVuSans-2f" transform="translate(1085.302734 0)"/>
      <use xlink:href="#DejaVuSans-73" transform="translate(1118.994141 0)"/>
      <use xlink:href="#DejaVuSans-29" transform="translate(1171.09375 0)"/>
     </g>
    </g>
   </g>
   <g id="line2d_101">
    <path d="M 125.635156 393.566377 
L 205.270656 327.777498 
L 250.487423 290.691121 
L 282.881525 264.393206 
L 308.526855 243.851866 
L 329.448046 227.369 
L 347.669728 213.292069 
L 363.191902 201.568157 
L 377.364321 191.132319 
L 390.186987 181.956703 
L 402.334775 173.538196 
L 413.132809 166.31173 
L 423.930842 159.356961 
L 434.053999 153.109453 
L 443.502279 147.537386 
L 452.950559 142.233349 
L 461.723961 137.561899 
L 470.497364 133.145676 
L 479.270766 128.992947 
L 487.369292 125.39843 
L 495.467817 122.035468 
L 503.566342 118.904099 
L 511.664868 116.002168 
L 519.763393 113.325413 
L 527.861919 110.867616 
L 536.635321 108.442834 
L 545.408724 106.253635 
L 554.182126 104.286415 
L 563.630406 102.39922 
L 573.078686 100.733162 
L 583.201842 99.171309 
L 593.999876 97.733702 
L 605.472787 96.43421 
L 617.620575 95.280386 
L 631.118118 94.226142 
L 645.965414 93.296326 
L 662.837342 92.47489 
L 681.733902 91.785571 
L 704.004846 91.205238 
L 730.999931 90.736825 
L 732.349685 90.718503 
L 732.349685 90.718503 
" clip-path="url(#p88642bd688)" style="fill: none; stroke: #1f77b4; stroke-width: 2.4; stroke-linecap: square"/>
   </g>
   <g id="line2d_102">
    <path d="M 125.635156 466.445849 
L 228.216478 381.593815 
L 282.206648 337.205519 
L 319.999766 306.410546 
L 349.019482 283.042164 
L 372.640181 264.296132 
L 392.886495 248.504139 
L 410.4333 235.089921 
L 425.955474 223.489077 
L 440.127893 213.16175 
L 453.625436 203.604359 
L 465.773224 195.271072 
L 477.246135 187.665415 
L 488.044169 180.768416 
L 498.167325 174.554375 
L 508.290482 168.603637 
L 517.738762 163.302903 
L 527.187042 158.260035 
L 535.960444 153.817965 
L 544.733847 149.614857 
L 553.507249 145.655801 
L 562.280652 141.943732 
L 571.054054 138.479327 
L 579.827457 135.260975 
L 588.600859 132.284841 
L 597.374262 129.545001 
L 606.147664 127.033649 
L 614.921067 124.741358 
L 624.369347 122.505368 
L 633.817626 120.496233 
L 643.940783 118.577567 
L 654.06394 116.881578 
L 664.861974 115.295567 
L 676.334885 113.83683 
L 688.482673 112.517016 
L 701.305338 111.342107 
L 715.477757 110.266272 
L 730.999931 109.312281 
L 732.349685 109.238984 
L 732.349685 109.238984 
" clip-path="url(#p88642bd688)" style="fill: none; stroke-dasharray: 2.4,3.96; stroke-dashoffset: 0; stroke: #ff7f0e; stroke-width: 2.4"/>
   </g>
   <g id="line2d_103">
    <path d="M 125.635156 319.377147 
L 157.354381 293.610464 
L 182.324834 273.603239 
L 202.571148 257.656411 
L 220.117953 244.115834 
L 234.965249 232.92539 
L 248.462792 223.018717 
L 260.61058 214.364784 
L 272.083491 206.459569 
L 282.881525 199.292348 
L 293.004682 192.843618 
L 302.452961 187.085578 
L 311.226364 181.983285 
L 319.999766 177.132454 
L 328.773169 172.546807 
L 336.871694 168.559038 
L 344.97022 164.813414 
L 353.068745 161.314075 
L 361.16727 158.062542 
L 369.265796 155.057648 
L 377.364321 152.295594 
L 385.462847 149.770106 
L 393.561372 147.472691 
L 401.659898 145.392973 
L 410.4333 143.371806 
L 419.206703 141.575628 
L 428.654982 139.872849 
L 438.778139 138.29019 
L 448.901296 136.931052 
L 459.69933 135.698208 
L 471.847118 134.542662 
L 484.669783 133.547809 
L 498.842203 132.669821 
L 515.039253 131.894493 
L 533.260936 131.246517 
L 554.857003 130.704313 
L 581.177211 130.271452 
L 615.595944 129.941139 
L 664.187097 129.717454 
L 732.349685 129.60541 
L 732.349685 129.60541 
" clip-path="url(#p88642bd688)" style="fill: none; stroke: #2ca02c; stroke-width: 2.4; stroke-linecap: square"/>
   </g>
   <g id="line2d_104">
    <path d="M 125.635156 369.753353 
L 170.851923 332.679903 
L 203.246025 306.399364 
L 228.216478 286.415532 
L 249.137669 269.948504 
L 266.684474 256.405074 
L 282.206648 244.689005 
L 296.379067 234.261929 
L 309.201732 225.095732 
L 321.349521 216.687576 
L 332.147554 209.47154 
L 342.945588 202.528381 
L 353.068745 196.292815 
L 362.517025 190.73277 
L 371.965304 185.441527 
L 380.738707 180.782558 
L 389.512109 176.379284 
L 398.285512 172.239851 
L 406.384037 168.657792 
L 414.482563 165.307347 
L 422.581088 162.188433 
L 430.679614 159.298781 
L 438.778139 156.634016 
L 446.876664 154.187824 
L 455.650067 151.775076 
L 464.42347 149.597268 
L 473.196872 147.640728 
L 482.645152 145.764189 
L 492.093431 144.107887 
L 502.216588 142.555488 
L 513.014622 141.126852 
L 524.487533 139.835699 
L 536.635321 138.689468 
L 550.132864 137.64232 
L 564.98016 136.71889 
L 581.852088 135.903198 
L 600.748647 135.218773 
L 623.019592 134.642614 
L 650.014677 134.177607 
L 684.43341 133.821543 
L 731.674808 133.573388 
L 732.349685 133.571089 
L 732.349685 133.571089 
" clip-path="url(#p88642bd688)" style="fill: none; stroke-dasharray: 2.4,3.96; stroke-dashoffset: 0; stroke: #d62728; stroke-width: 2.4"/>
   </g>
   <g id="patch_3">
    <path d="M 125.635156 430.365656 
L 125.635156 31.197656 
" style="fill: none; stroke: #000000; stroke-width: 0.8; stroke-linejoin: miter; stroke-linecap: square"/>
   </g>
   <g id="patch_4">
    <path d="M 728.275156 430.365656 
L 728.275156 31.197656 
" style="fill: none; stroke: #000000; stroke-width: 0.8; stroke-linejoin: miter; stroke-linecap: square"/>
   </g>
   <g id="patch_5">
    <path d="M 125.635156 430.365656 
L 728.275156 430.365656 
" style="fill: none; stroke: #000000; stroke-width: 0.8; stroke-linejoin: miter; stroke-linecap: square"/>
   </g>
   <g id="patch_6">
    <path d="M 125.635156 31.197656 
L 728.275156 31.197656 
" style="fill: none; stroke: #000000; stroke-width: 0.8; stroke-linejoin: miter; stroke-linecap: square"/>
   </g>
   <g id="text_10">
    <!-- germanio -->
    <g transform="translate(170.73732 151.092095) scale(0.115 -0.115)">
     <defs>
      <path id="DejaVuSans-Bold-67" d="M 2919 594 
Q 2688 288 2409 144 
Q 2131 0 1766 0 
Q 1125 0 706 504 
Q 288 1009 288 1791 
Q 288 2575 706 3076 
Q 1125 3578 1766 3578 
Q 2131 3578 2409 3434 
Q 2688 3291 2919 2981 
L 2919 3500 
L 4044 3500 
L 4044 353 
Q 4044 -491 3511 -936 
Q 2978 -1381 1966 -1381 
Q 1638 -1381 1331 -1331 
Q 1025 -1281 716 -1178 
L 716 -306 
Q 1009 -475 1290 -558 
Q 1572 -641 1856 -641 
Q 2406 -641 2662 -400 
Q 2919 -159 2919 353 
L 2919 594 
z
M 2181 2772 
Q 1834 2772 1640 2515 
Q 1447 2259 1447 1791 
Q 1447 1309 1634 1061 
Q 1822 813 2181 813 
Q 2531 813 2725 1069 
Q 2919 1325 2919 1791 
Q 2919 2259 2725 2515 
Q 2531 2772 2181 2772 
z
" transform="scale(0.015625)"/>
      <path id="DejaVuSans-Bold-65" d="M 4031 1759 
L 4031 1441 
L 1416 1441 
Q 1456 1047 1700 850 
Q 1944 653 2381 653 
Q 2734 653 3104 758 
Q 3475 863 3866 1075 
L 3866 213 
Q 3469 63 3072 -14 
Q 2675 -91 2278 -91 
Q 1328 -91 801 392 
Q 275 875 275 1747 
Q 275 2603 792 3093 
Q 1309 3584 2216 3584 
Q 3041 3584 3536 3087 
Q 4031 2591 4031 1759 
z
M 2881 2131 
Q 2881 2450 2695 2645 
Q 2509 2841 2209 2841 
Q 1884 2841 1681 2658 
Q 1478 2475 1428 2131 
L 2881 2131 
z
" transform="scale(0.015625)"/>
      <path id="DejaVuSans-Bold-72" d="M 3138 2547 
Q 2991 2616 2845 2648 
Q 2700 2681 2553 2681 
Q 2122 2681 1889 2404 
Q 1656 2128 1656 1613 
L 1656 0 
L 538 0 
L 538 3500 
L 1656 3500 
L 1656 2925 
Q 1872 3269 2151 3426 
Q 2431 3584 2822 3584 
Q 2878 3584 2943 3579 
Q 3009 3575 3134 3559 
L 3138 2547 
z
" transform="scale(0.015625)"/>
      <path id="DejaVuSans-Bold-6d" d="M 3781 2919 
Q 3994 3244 4286 3414 
Q 4578 3584 4928 3584 
Q 5531 3584 5847 3212 
Q 6163 2841 6163 2131 
L 6163 0 
L 5038 0 
L 5038 1825 
Q 5041 1866 5042 1909 
Q 5044 1953 5044 2034 
Q 5044 2406 4934 2573 
Q 4825 2741 4581 2741 
Q 4263 2741 4089 2478 
Q 3916 2216 3909 1719 
L 3909 0 
L 2784 0 
L 2784 1825 
Q 2784 2406 2684 2573 
Q 2584 2741 2328 2741 
Q 2006 2741 1831 2477 
Q 1656 2213 1656 1722 
L 1656 0 
L 531 0 
L 531 3500 
L 1656 3500 
L 1656 2988 
Q 1863 3284 2130 3434 
Q 2397 3584 2719 3584 
Q 3081 3584 3359 3409 
Q 3638 3234 3781 2919 
z
" transform="scale(0.015625)"/>
      <path id="DejaVuSans-Bold-61" d="M 2106 1575 
Q 1756 1575 1579 1456 
Q 1403 1338 1403 1106 
Q 1403 894 1545 773 
Q 1688 653 1941 653 
Q 2256 653 2472 879 
Q 2688 1106 2688 1447 
L 2688 1575 
L 2106 1575 
z
M 3816 1997 
L 3816 0 
L 2688 0 
L 2688 519 
Q 2463 200 2181 54 
Q 1900 -91 1497 -91 
Q 953 -91 614 226 
Q 275 544 275 1050 
Q 275 1666 698 1953 
Q 1122 2241 2028 2241 
L 2688 2241 
L 2688 2328 
Q 2688 2594 2478 2717 
Q 2269 2841 1825 2841 
Q 1466 2841 1156 2769 
Q 847 2697 581 2553 
L 581 3406 
Q 941 3494 1303 3539 
Q 1666 3584 2028 3584 
Q 2975 3584 3395 3211 
Q 3816 2838 3816 1997 
z
" transform="scale(0.015625)"/>
      <path id="DejaVuSans-Bold-6e" d="M 4056 2131 
L 4056 0 
L 2931 0 
L 2931 347 
L 2931 1631 
Q 2931 2084 2911 2256 
Q 2891 2428 2841 2509 
Q 2775 2619 2662 2680 
Q 2550 2741 2406 2741 
Q 2056 2741 1856 2470 
Q 1656 2200 1656 1722 
L 1656 0 
L 538 0 
L 538 3500 
L 1656 3500 
L 1656 2988 
Q 1909 3294 2193 3439 
Q 2478 3584 2822 3584 
Q 3428 3584 3742 3212 
Q 4056 2841 4056 2131 
z
" transform="scale(0.015625)"/>
      <path id="DejaVuSans-Bold-69" d="M 538 3500 
L 1656 3500 
L 1656 0 
L 538 0 
L 538 3500 
z
M 538 4863 
L 1656 4863 
L 1656 3950 
L 538 3950 
L 538 4863 
z
" transform="scale(0.015625)"/>
      <path id="DejaVuSans-Bold-6f" d="M 2203 2784 
Q 1831 2784 1636 2517 
Q 1441 2250 1441 1747 
Q 1441 1244 1636 976 
Q 1831 709 2203 709 
Q 2569 709 2762 976 
Q 2956 1244 2956 1747 
Q 2956 2250 2762 2517 
Q 2569 2784 2203 2784 
z
M 2203 3584 
Q 3106 3584 3614 3096 
Q 4122 2609 4122 1747 
Q 4122 884 3614 396 
Q 3106 -91 2203 -91 
Q 1297 -91 786 396 
Q 275 884 275 1747 
Q 275 2609 786 3096 
Q 1297 3584 2203 3584 
z
" transform="scale(0.015625)"/>
     </defs>
     <use xlink:href="#DejaVuSans-Bold-67"/>
     <use xlink:href="#DejaVuSans-Bold-65" transform="translate(71.582031 0)"/>
     <use xlink:href="#DejaVuSans-Bold-72" transform="translate(139.404297 0)"/>
     <use xlink:href="#DejaVuSans-Bold-6d" transform="translate(188.720703 0)"/>
     <use xlink:href="#DejaVuSans-Bold-61" transform="translate(292.919922 0)"/>
     <use xlink:href="#DejaVuSans-Bold-6e" transform="translate(360.400391 0)"/>
     <use xlink:href="#DejaVuSans-Bold-69" transform="translate(431.591797 0)"/>
     <use xlink:href="#DejaVuSans-Bold-6f" transform="translate(465.869141 0)"/>
    </g>
   </g>
   <g id="text_11">
    <!-- silicio -->
    <g transform="translate(439.181309 268.012343) scale(0.115 -0.115)">
     <defs>
      <path id="DejaVuSans-Bold-73" d="M 3272 3391 
L 3272 2541 
Q 2913 2691 2578 2766 
Q 2244 2841 1947 2841 
Q 1628 2841 1473 2761 
Q 1319 2681 1319 2516 
Q 1319 2381 1436 2309 
Q 1553 2238 1856 2203 
L 2053 2175 
Q 2913 2066 3209 1816 
Q 3506 1566 3506 1031 
Q 3506 472 3093 190 
Q 2681 -91 1863 -91 
Q 1516 -91 1145 -36 
Q 775 19 384 128 
L 384 978 
Q 719 816 1070 734 
Q 1422 653 1784 653 
Q 2113 653 2278 743 
Q 2444 834 2444 1013 
Q 2444 1163 2330 1236 
Q 2216 1309 1875 1350 
L 1678 1375 
Q 931 1469 631 1722 
Q 331 1975 331 2491 
Q 331 3047 712 3315 
Q 1094 3584 1881 3584 
Q 2191 3584 2531 3537 
Q 2872 3491 3272 3391 
z
" transform="scale(0.015625)"/>
      <path id="DejaVuSans-Bold-6c" d="M 538 4863 
L 1656 4863 
L 1656 0 
L 538 0 
L 538 4863 
z
" transform="scale(0.015625)"/>
      <path id="DejaVuSans-Bold-63" d="M 3366 3391 
L 3366 2478 
Q 3138 2634 2908 2709 
Q 2678 2784 2431 2784 
Q 1963 2784 1702 2511 
Q 1441 2238 1441 1747 
Q 1441 1256 1702 982 
Q 1963 709 2431 709 
Q 2694 709 2930 787 
Q 3166 866 3366 1019 
L 3366 103 
Q 3103 6 2833 -42 
Q 2563 -91 2291 -91 
Q 1344 -91 809 395 
Q 275 881 275 1747 
Q 275 2613 809 3098 
Q 1344 3584 2291 3584 
Q 2566 3584 2833 3536 
Q 3100 3488 3366 3391 
z
" transform="scale(0.015625)"/>
     </defs>
     <use xlink:href="#DejaVuSans-Bold-73"/>
     <use xlink:href="#DejaVuSans-Bold-69" transform="translate(59.521484 0)"/>
     <use xlink:href="#DejaVuSans-Bold-6c" transform="translate(93.798828 0)"/>
     <use xlink:href="#DejaVuSans-Bold-69" transform="translate(128.076172 0)"/>
     <use xlink:href="#DejaVuSans-Bold-63" transform="translate(162.353516 0)"/>
     <use xlink:href="#DejaVuSans-Bold-69" transform="translate(221.630859 0)"/>
     <use xlink:href="#DejaVuSans-Bold-6f" transform="translate(255.908203 0)"/>
    </g>
   </g>
   <g id="patch_7">
    <path d="M 557.307634 53.489727 
Q 593.084835 76.889703 628.019929 99.738901 
" style="fill: none; stroke: #000000; stroke-width: 0.9; stroke-linecap: round"/>
    <path d="M 625.94732 96.184708 
L 628.019929 99.738901 
L 623.933009 99.264472 
z
" style="fill: #1f77b4; stroke: #000000; stroke-width: 0.9; stroke-linecap: round"/>
   </g>
   <g id="text_12">
    <!-- saturazione della velocità -->
    <g transform="translate(486.747346 48.481032) scale(0.092 -0.092)">
     <defs>
      <path id="DejaVuSans-75" d="M 544 1381 
L 544 3500 
L 1119 3500 
L 1119 1403 
Q 1119 906 1312 657 
Q 1506 409 1894 409 
Q 2359 409 2629 706 
Q 2900 1003 2900 1516 
L 2900 3500 
L 3475 3500 
L 3475 0 
L 2900 0 
L 2900 538 
Q 2691 219 2414 64 
Q 2138 -91 1772 -91 
Q 1169 -91 856 284 
Q 544 659 544 1381 
z
M 1991 3584 
L 1991 3584 
z
" transform="scale(0.015625)"/>
      <path id="DejaVuSans-7a" d="M 353 3500 
L 3084 3500 
L 3084 2975 
L 922 459 
L 3084 459 
L 3084 0 
L 275 0 
L 275 525 
L 2438 3041 
L 353 3041 
L 353 3500 
z
" transform="scale(0.015625)"/>
      <path id="DejaVuSans-6e" d="M 3513 2113 
L 3513 0 
L 2938 0 
L 2938 2094 
Q 2938 2591 2744 2837 
Q 2550 3084 2163 3084 
Q 1697 3084 1428 2787 
Q 1159 2491 1159 1978 
L 1159 0 
L 581 0 
L 581 3500 
L 1159 3500 
L 1159 2956 
Q 1366 3272 1645 3428 
Q 1925 3584 2291 3584 
Q 2894 3584 3203 3211 
Q 3513 2838 3513 2113 
z
" transform="scale(0.015625)"/>
     </defs>
     <use xlink:href="#DejaVuSans-73"/>
     <use xlink:href="#DejaVuSans-61" transform="translate(52.099609 0)"/>
     <use xlink:href="#DejaVuSans-74" transform="translate(113.378906 0)"/>
     <use xlink:href="#DejaVuSans-75" transform="translate(152.587891 0)"/>
     <use xlink:href="#DejaVuSans-72" transform="translate(215.966797 0)"/>
     <use xlink:href="#DejaVuSans-61" transform="translate(257.080078 0)"/>
     <use xlink:href="#DejaVuSans-7a" transform="translate(318.359375 0)"/>
     <use xlink:href="#DejaVuSans-69" transform="translate(370.849609 0)"/>
     <use xlink:href="#DejaVuSans-6f" transform="translate(398.632812 0)"/>
     <use xlink:href="#DejaVuSans-6e" transform="translate(459.814453 0)"/>
     <use xlink:href="#DejaVuSans-65" transform="translate(523.193359 0)"/>
     <use xlink:href="#DejaVuSans-20" transform="translate(584.716797 0)"/>
     <use xlink:href="#DejaVuSans-64" transform="translate(616.503906 0)"/>
     <use xlink:href="#DejaVuSans-65" transform="translate(679.980469 0)"/>
     <use xlink:href="#DejaVuSans-6c" transform="translate(741.503906 0)"/>
     <use xlink:href="#DejaVuSans-6c" transform="translate(769.287109 0)"/>
     <use xlink:href="#DejaVuSans-61" transform="translate(797.070312 0)"/>
     <use xlink:href="#DejaVuSans-20" transform="translate(858.349609 0)"/>
     <use xlink:href="#DejaVuSans-76" transform="translate(890.136719 0)"/>
     <use xlink:href="#DejaVuSans-65" transform="translate(949.316406 0)"/>
     <use xlink:href="#DejaVuSans-6c" transform="translate(1010.839844 0)"/>
     <use xlink:href="#DejaVuSans-6f" transform="translate(1038.623047 0)"/>
     <use xlink:href="#DejaVuSans-63" transform="translate(1099.804688 0)"/>
     <use xlink:href="#DejaVuSans-69" transform="translate(1154.785156 0)"/>
     <use xlink:href="#DejaVuSans-74" transform="translate(1182.568359 0)"/>
     <use xlink:href="#DejaVuSans-e0" transform="translate(1221.777344 0)"/>
    </g>
   </g>
   <g id="text_13">
    <!-- Velocità di deriva di elettroni e lacune in silicio e germanio -->
    <g transform="translate(177.380937 19.197656) scale(0.15 -0.15)">
     <defs>
      <path id="DejaVuSans-Bold-56" d="M 31 4666 
L 1241 4666 
L 2478 1222 
L 3713 4666 
L 4922 4666 
L 3194 0 
L 1759 0 
L 31 4666 
z
" transform="scale(0.015625)"/>
      <path id="DejaVuSans-Bold-74" d="M 1759 4494 
L 1759 3500 
L 2913 3500 
L 2913 2700 
L 1759 2700 
L 1759 1216 
Q 1759 972 1856 886 
Q 1953 800 2241 800 
L 2816 800 
L 2816 0 
L 1856 0 
Q 1194 0 917 276 
Q 641 553 641 1216 
L 641 2700 
L 84 2700 
L 84 3500 
L 641 3500 
L 641 4494 
L 1759 4494 
z
" transform="scale(0.015625)"/>
      <path id="DejaVuSans-Bold-e0" d="M 2106 1575 
Q 1756 1575 1579 1456 
Q 1403 1338 1403 1106 
Q 1403 894 1545 773 
Q 1688 653 1941 653 
Q 2256 653 2472 879 
Q 2688 1106 2688 1447 
L 2688 1575 
L 2106 1575 
z
M 3816 1997 
L 3816 0 
L 2688 0 
L 2688 519 
Q 2463 200 2181 54 
Q 1900 -91 1497 -91 
Q 953 -91 614 226 
Q 275 544 275 1050 
Q 275 1666 698 1953 
Q 1122 2241 2028 2241 
L 2688 2241 
L 2688 2328 
Q 2688 2594 2478 2717 
Q 2269 2841 1825 2841 
Q 1466 2841 1156 2769 
Q 847 2697 581 2553 
L 581 3406 
Q 941 3494 1303 3539 
Q 1666 3584 2028 3584 
Q 2975 3584 3395 3211 
Q 3816 2838 3816 1997 
z
M 1762 5119 
L 2643 3944 
L 2031 3944 
L 878 5119 
L 1762 5119 
z
" transform="scale(0.015625)"/>
      <path id="DejaVuSans-Bold-20" transform="scale(0.015625)"/>
      <path id="DejaVuSans-Bold-64" d="M 2919 2988 
L 2919 4863 
L 4044 4863 
L 4044 0 
L 2919 0 
L 2919 506 
Q 2688 197 2409 53 
Q 2131 -91 1766 -91 
Q 1119 -91 703 423 
Q 288 938 288 1747 
Q 288 2556 703 3070 
Q 1119 3584 1766 3584 
Q 2128 3584 2408 3439 
Q 2688 3294 2919 2988 
z
M 2181 722 
Q 2541 722 2730 984 
Q 2919 1247 2919 1747 
Q 2919 2247 2730 2509 
Q 2541 2772 2181 2772 
Q 1825 2772 1636 2509 
Q 1447 2247 1447 1747 
Q 1447 1247 1636 984 
Q 1825 722 2181 722 
z
" transform="scale(0.015625)"/>
      <path id="DejaVuSans-Bold-76" d="M 97 3500 
L 1216 3500 
L 2088 1081 
L 2956 3500 
L 4078 3500 
L 2700 0 
L 1472 0 
L 97 3500 
z
" transform="scale(0.015625)"/>
      <path id="DejaVuSans-Bold-75" d="M 500 1363 
L 500 3500 
L 1625 3500 
L 1625 3150 
Q 1625 2866 1622 2436 
Q 1619 2006 1619 1863 
Q 1619 1441 1641 1255 
Q 1663 1069 1716 984 
Q 1784 875 1895 815 
Q 2006 756 2150 756 
Q 2500 756 2700 1025 
Q 2900 1294 2900 1772 
L 2900 3500 
L 4019 3500 
L 4019 0 
L 2900 0 
L 2900 506 
Q 2647 200 2364 54 
Q 2081 -91 1741 -91 
Q 1134 -91 817 281 
Q 500 653 500 1363 
z
" transform="scale(0.015625)"/>
     </defs>
     <use xlink:href="#DejaVuSans-Bold-56"/>
     <use xlink:href="#DejaVuSans-Bold-65" transform="translate(71.892578 0)"/>
     <use xlink:href="#DejaVuSans-Bold-6c" transform="translate(139.714844 0)"/>
     <use xlink:href="#DejaVuSans-Bold-6f" transform="translate(173.992188 0)"/>
     <use xlink:href="#DejaVuSans-Bold-63" transform="translate(242.693359 0)"/>
     <use xlink:href="#DejaVuSans-Bold-69" transform="translate(301.970703 0)"/>
     <use xlink:href="#DejaVuSans-Bold-74" transform="translate(336.248047 0)"/>
     <use xlink:href="#DejaVuSans-Bold-e0" transform="translate(384.050781 0)"/>
     <use xlink:href="#DejaVuSans-Bold-20" transform="translate(451.53125 0)"/>
     <use xlink:href="#DejaVuSans-Bold-64" transform="translate(486.345703 0)"/>
     <use xlink:href="#DejaVuSans-Bold-69" transform="translate(557.927734 0)"/>
     <use xlink:href="#DejaVuSans-Bold-20" transform="translate(592.205078 0)"/>
     <use xlink:href="#DejaVuSans-Bold-64" transform="translate(627.019531 0)"/>
     <use xlink:href="#DejaVuSans-Bold-65" transform="translate(698.601562 0)"/>
     <use xlink:href="#DejaVuSans-Bold-72" transform="translate(766.423828 0)"/>
     <use xlink:href="#DejaVuSans-Bold-69" transform="translate(815.740234 0)"/>
     <use xlink:href="#DejaVuSans-Bold-76" transform="translate(850.017578 0)"/>
     <use xlink:href="#DejaVuSans-Bold-61" transform="translate(915.203125 0)"/>
     <use xlink:href="#DejaVuSans-Bold-20" transform="translate(982.683594 0)"/>
     <use xlink:href="#DejaVuSans-Bold-64" transform="translate(1017.498047 0)"/>
     <use xlink:href="#DejaVuSans-Bold-69" transform="translate(1089.080078 0)"/>
     <use xlink:href="#DejaVuSans-Bold-20" transform="translate(1123.357422 0)"/>
     <use xlink:href="#DejaVuSans-Bold-65" transform="translate(1158.171875 0)"/>
     <use xlink:href="#DejaVuSans-Bold-6c" transform="translate(1225.994141 0)"/>
     <use xlink:href="#DejaVuSans-Bold-65" transform="translate(1260.271484 0)"/>
     <use xlink:href="#DejaVuSans-Bold-74" transform="translate(1328.09375 0)"/>
     <use xlink:href="#DejaVuSans-Bold-74" transform="translate(1375.896484 0)"/>
     <use xlink:href="#DejaVuSans-Bold-72" transform="translate(1423.699219 0)"/>
     <use xlink:href="#DejaVuSans-Bold-6f" transform="translate(1473.015625 0)"/>
     <use xlink:href="#DejaVuSans-Bold-6e" transform="translate(1541.716797 0)"/>
     <use xlink:href="#DejaVuSans-Bold-69" transform="translate(1612.908203 0)"/>
     <use xlink:href="#DejaVuSans-Bold-20" transform="translate(1647.185547 0)"/>
     <use xlink:href="#DejaVuSans-Bold-65" transform="translate(1682 0)"/>
     <use xlink:href="#DejaVuSans-Bold-20" transform="translate(1749.822266 0)"/>
     <use xlink:href="#DejaVuSans-Bold-6c" transform="translate(1784.636719 0)"/>
     <use xlink:href="#DejaVuSans-Bold-61" transform="translate(1818.914062 0)"/>
     <use xlink:href="#DejaVuSans-Bold-63" transform="translate(1886.394531 0)"/>
     <use xlink:href="#DejaVuSans-Bold-75" transform="translate(1945.671875 0)"/>
     <use xlink:href="#DejaVuSans-Bold-6e" transform="translate(2016.863281 0)"/>
     <use xlink:href="#DejaVuSans-Bold-65" transform="translate(2088.054688 0)"/>
     <use xlink:href="#DejaVuSans-Bold-20" transform="translate(2155.876953 0)"/>
     <use xlink:href="#DejaVuSans-Bold-69" transform="translate(2190.691406 0)"/>
     <use xlink:href="#DejaVuSans-Bold-6e" transform="translate(2224.96875 0)"/>
     <use xlink:href="#DejaVuSans-Bold-20" transform="translate(2296.160156 0)"/>
     <use xlink:href="#DejaVuSans-Bold-73" transform="translate(2330.974609 0)"/>
     <use xlink:href="#DejaVuSans-Bold-69" transform="translate(2390.496094 0)"/>
     <use xlink:href="#DejaVuSans-Bold-6c" transform="translate(2424.773438 0)"/>
     <use xlink:href="#DejaVuSans-Bold-69" transform="translate(2459.050781 0)"/>
     <use xlink:href="#DejaVuSans-Bold-63" transform="translate(2493.328125 0)"/>
     <use xlink:href="#DejaVuSans-Bold-69" transform="translate(2552.605469 0)"/>
     <use xlink:href="#DejaVuSans-Bold-6f" transform="translate(2586.882812 0)"/>
     <use xlink:href="#DejaVuSans-Bold-20" transform="translate(2655.583984 0)"/>
     <use xlink:href="#DejaVuSans-Bold-65" transform="translate(2690.398438 0)"/>
     <use xlink:href="#DejaVuSans-Bold-20" transform="translate(2758.220703 0)"/>
     <use xlink:href="#DejaVuSans-Bold-67" transform="translate(2793.035156 0)"/>
     <use xlink:href="#DejaVuSans-Bold-65" transform="translate(2864.617188 0)"/>
     <use xlink:href="#DejaVuSans-Bold-72" transform="translate(2932.439453 0)"/>
     <use xlink:href="#DejaVuSans-Bold-6d" transform="translate(2981.755859 0)"/>
     <use xlink:href="#DejaVuSans-Bold-61" transform="translate(3085.955078 0)"/>
     <use xlink:href="#DejaVuSans-Bold-6e" transform="translate(3153.435547 0)"/>
     <use xlink:href="#DejaVuSans-Bold-69" transform="translate(3224.626953 0)"/>
     <use xlink:href="#DejaVuSans-Bold-6f" transform="translate(3258.904297 0)"/>
    </g>
   </g>
   <g id="legend_1">
    <g id="line2d_105">
     <path d="M 548.023656 404.618781 
L 556.823656 404.618781 
L 565.623656 404.618781 
" style="fill: none; stroke: #1f77b4; stroke-width: 2.4; stroke-linecap: square"/>
    </g>
    <g id="text_14">
     <!-- Si, elettroni -->
     <g transform="translate(572.663656 407.698781) scale(0.088 -0.088)">
      <defs>
       <path id="DejaVuSans-53" d="M 3425 4513 
L 3425 3897 
Q 3066 4069 2747 4153 
Q 2428 4238 2131 4238 
Q 1616 4238 1336 4038 
Q 1056 3838 1056 3469 
Q 1056 3159 1242 3001 
Q 1428 2844 1947 2747 
L 2328 2669 
Q 3034 2534 3370 2195 
Q 3706 1856 3706 1288 
Q 3706 609 3251 259 
Q 2797 -91 1919 -91 
Q 1588 -91 1214 -16 
Q 841 59 441 206 
L 441 856 
Q 825 641 1194 531 
Q 1563 422 1919 422 
Q 2459 422 2753 634 
Q 3047 847 3047 1241 
Q 3047 1584 2836 1778 
Q 2625 1972 2144 2069 
L 1759 2144 
Q 1053 2284 737 2584 
Q 422 2884 422 3419 
Q 422 4038 858 4394 
Q 1294 4750 2059 4750 
Q 2388 4750 2728 4690 
Q 3069 4631 3425 4513 
z
" transform="scale(0.015625)"/>
       <path id="DejaVuSans-2c" d="M 750 794 
L 1409 794 
L 1409 256 
L 897 -744 
L 494 -744 
L 750 256 
L 750 794 
z
" transform="scale(0.015625)"/>
      </defs>
      <use xlink:href="#DejaVuSans-53"/>
      <use xlink:href="#DejaVuSans-69" transform="translate(63.476562 0)"/>
      <use xlink:href="#DejaVuSans-2c" transform="translate(91.259766 0)"/>
      <use xlink:href="#DejaVuSans-20" transform="translate(123.046875 0)"/>
      <use xlink:href="#DejaVuSans-65" transform="translate(154.833984 0)"/>
      <use xlink:href="#DejaVuSans-6c" transform="translate(216.357422 0)"/>
      <use xlink:href="#DejaVuSans-65" transform="translate(244.140625 0)"/>
      <use xlink:href="#DejaVuSans-74" transform="translate(305.664062 0)"/>
      <use xlink:href="#DejaVuSans-74" transform="translate(344.873047 0)"/>
      <use xlink:href="#DejaVuSans-72" transform="translate(384.082031 0)"/>
      <use xlink:href="#DejaVuSans-6f" transform="translate(422.945312 0)"/>
      <use xlink:href="#DejaVuSans-6e" transform="translate(484.126953 0)"/>
      <use xlink:href="#DejaVuSans-69" transform="translate(547.505859 0)"/>
     </g>
    </g>
    <g id="line2d_106">
     <path d="M 548.023656 417.535531 
L 556.823656 417.535531 
L 565.623656 417.535531 
" style="fill: none; stroke-dasharray: 2.4,3.96; stroke-dashoffset: 0; stroke: #ff7f0e; stroke-width: 2.4"/>
    </g>
    <g id="text_15">
     <!-- Si, lacune -->
     <g transform="translate(572.663656 420.615531) scale(0.088 -0.088)">
      <use xlink:href="#DejaVuSans-53"/>
      <use xlink:href="#DejaVuSans-69" transform="translate(63.476562 0)"/>
      <use xlink:href="#DejaVuSans-2c" transform="translate(91.259766 0)"/>
      <use xlink:href="#DejaVuSans-20" transform="translate(123.046875 0)"/>
      <use xlink:href="#DejaVuSans-6c" transform="translate(154.833984 0)"/>
      <use xlink:href="#DejaVuSans-61" transform="translate(182.617188 0)"/>
      <use xlink:href="#DejaVuSans-63" transform="translate(243.896484 0)"/>
      <use xlink:href="#DejaVuSans-75" transform="translate(298.876953 0)"/>
      <use xlink:href="#DejaVuSans-6e" transform="translate(362.255859 0)"/>
      <use xlink:href="#DejaVuSans-65" transform="translate(425.634766 0)"/>
     </g>
    </g>
    <g id="line2d_107">
     <path d="M 640.888406 404.618781 
L 649.688406 404.618781 
L 658.488406 404.618781 
" style="fill: none; stroke: #2ca02c; stroke-width: 2.4; stroke-linecap: square"/>
    </g>
    <g id="text_16">
     <!-- Ge, elettroni -->
     <g transform="translate(665.528406 407.698781) scale(0.088 -0.088)">
      <defs>
       <path id="DejaVuSans-47" d="M 3809 666 
L 3809 1919 
L 2778 1919 
L 2778 2438 
L 4434 2438 
L 4434 434 
Q 4069 175 3628 42 
Q 3188 -91 2688 -91 
Q 1594 -91 976 548 
Q 359 1188 359 2328 
Q 359 3472 976 4111 
Q 1594 4750 2688 4750 
Q 3144 4750 3555 4637 
Q 3966 4525 4313 4306 
L 4313 3634 
Q 3963 3931 3569 4081 
Q 3175 4231 2741 4231 
Q 1884 4231 1454 3753 
Q 1025 3275 1025 2328 
Q 1025 1384 1454 906 
Q 1884 428 2741 428 
Q 3075 428 3337 486 
Q 3600 544 3809 666 
z
" transform="scale(0.015625)"/>
      </defs>
      <use xlink:href="#DejaVuSans-47"/>
      <use xlink:href="#DejaVuSans-65" transform="translate(77.490234 0)"/>
      <use xlink:href="#DejaVuSans-2c" transform="translate(139.013672 0)"/>
      <use xlink:href="#DejaVuSans-20" transform="translate(170.800781 0)"/>
      <use xlink:href="#DejaVuSans-65" transform="translate(202.587891 0)"/>
      <use xlink:href="#DejaVuSans-6c" transform="translate(264.111328 0)"/>
      <use xlink:href="#DejaVuSans-65" transform="translate(291.894531 0)"/>
      <use xlink:href="#DejaVuSans-74" transform="translate(353.417969 0)"/>
      <use xlink:href="#DejaVuSans-74" transform="translate(392.626953 0)"/>
      <use xlink:href="#DejaVuSans-72" transform="translate(431.835938 0)"/>
      <use xlink:href="#DejaVuSans-6f" transform="translate(470.699219 0)"/>
      <use xlink:href="#DejaVuSans-6e" transform="translate(531.880859 0)"/>
      <use xlink:href="#DejaVuSans-69" transform="translate(595.259766 0)"/>
     </g>
    </g>
    <g id="line2d_108">
     <path d="M 640.888406 417.535531 
L 649.688406 417.535531 
L 658.488406 417.535531 
" style="fill: none; stroke-dasharray: 2.4,3.96; stroke-dashoffset: 0; stroke: #d62728; stroke-width: 2.4"/>
    </g>
    <g id="text_17">
     <!-- Ge, lacune -->
     <g transform="translate(665.528406 420.615531) scale(0.088 -0.088)">
      <use xlink:href="#DejaVuSans-47"/>
      <use xlink:href="#DejaVuSans-65" transform="translate(77.490234 0)"/>
      <use xlink:href="#DejaVuSans-2c" transform="translate(139.013672 0)"/>
      <use xlink:href="#DejaVuSans-20" transform="translate(170.800781 0)"/>
      <use xlink:href="#DejaVuSans-6c" transform="translate(202.587891 0)"/>
      <use xlink:href="#DejaVuSans-61" transform="translate(230.371094 0)"/>
      <use xlink:href="#DejaVuSans-63" transform="translate(291.650391 0)"/>
      <use xlink:href="#DejaVuSans-75" transform="translate(346.630859 0)"/>
      <use xlink:href="#DejaVuSans-6e" transform="translate(410.009766 0)"/>
      <use xlink:href="#DejaVuSans-65" transform="translate(473.388672 0)"/>
     </g>
    </g>
   </g>
  </g>
  <g id="text_18">
   <!-- Le curve seguono un modello sintetico a mobilità di basso campo e velocità di saturazione; le linee continue rappresentano gli elettroni, quelle puntinate le lacune. -->
   <g transform="translate(7.2 474.429656) scale(0.1 -0.1)">
    <defs>
     <path id="DejaVuSans-4c" d="M 628 4666 
L 1259 4666 
L 1259 531 
L 3531 531 
L 3531 0 
L 628 0 
L 628 4666 
z
" transform="scale(0.015625)"/>
     <path id="DejaVuSans-67" d="M 2906 1791 
Q 2906 2416 2648 2759 
Q 2391 3103 1925 3103 
Q 1463 3103 1205 2759 
Q 947 2416 947 1791 
Q 947 1169 1205 825 
Q 1463 481 1925 481 
Q 2391 481 2648 825 
Q 2906 1169 2906 1791 
z
M 3481 434 
Q 3481 -459 3084 -895 
Q 2688 -1331 1869 -1331 
Q 1566 -1331 1297 -1286 
Q 1028 -1241 775 -1147 
L 775 -588 
Q 1028 -725 1275 -790 
Q 1522 -856 1778 -856 
Q 2344 -856 2625 -561 
Q 2906 -266 2906 331 
L 2906 616 
Q 2728 306 2450 153 
Q 2172 0 1784 0 
Q 1141 0 747 490 
Q 353 981 353 1791 
Q 353 2603 747 3093 
Q 1141 3584 1784 3584 
Q 2172 3584 2450 3431 
Q 2728 3278 2906 2969 
L 2906 3500 
L 3481 3500 
L 3481 434 
z
" transform="scale(0.015625)"/>
     <path id="DejaVuSans-62" d="M 3116 1747 
Q 3116 2381 2855 2742 
Q 2594 3103 2138 3103 
Q 1681 3103 1420 2742 
Q 1159 2381 1159 1747 
Q 1159 1113 1420 752 
Q 1681 391 2138 391 
Q 2594 391 2855 752 
Q 3116 1113 3116 1747 
z
M 1159 2969 
Q 1341 3281 1617 3432 
Q 1894 3584 2278 3584 
Q 2916 3584 3314 3078 
Q 3713 2572 3713 1747 
Q 3713 922 3314 415 
Q 2916 -91 2278 -91 
Q 1894 -91 1617 61 
Q 1341 213 1159 525 
L 1159 0 
L 581 0 
L 581 4863 
L 1159 4863 
L 1159 2969 
z
" transform="scale(0.015625)"/>
     <path id="DejaVuSans-3b" d="M 750 3309 
L 1409 3309 
L 1409 2516 
L 750 2516 
L 750 3309 
z
M 750 794 
L 1409 794 
L 1409 256 
L 897 -744 
L 494 -744 
L 750 256 
L 750 794 
z
" transform="scale(0.015625)"/>
     <path id="DejaVuSans-71" d="M 947 1747 
Q 947 1113 1208 752 
Q 1469 391 1925 391 
Q 2381 391 2643 752 
Q 2906 1113 2906 1747 
Q 2906 2381 2643 2742 
Q 2381 3103 1925 3103 
Q 1469 3103 1208 2742 
Q 947 2381 947 1747 
z
M 2906 525 
Q 2725 213 2448 61 
Q 2172 -91 1784 -91 
Q 1150 -91 751 415 
Q 353 922 353 1747 
Q 353 2572 751 3078 
Q 1150 3584 1784 3584 
Q 2172 3584 2448 3432 
Q 2725 3281 2906 2969 
L 2906 3500 
L 3481 3500 
L 3481 -1331 
L 2906 -1331 
L 2906 525 
z
" transform="scale(0.015625)"/>
     <path id="DejaVuSans-2e" d="M 684 794 
L 1344 794 
L 1344 0 
L 684 0 
L 684 794 
z
" transform="scale(0.015625)"/>
    </defs>
    <use xlink:href="#DejaVuSans-4c"/>
    <use xlink:href="#DejaVuSans-65" transform="translate(53.962891 0)"/>
    <use xlink:href="#DejaVuSans-20" transform="translate(115.486328 0)"/>
    <use xlink:href="#DejaVuSans-63" transform="translate(147.273438 0)"/>
    <use xlink:href="#DejaVuSans-75" transform="translate(202.253906 0)"/>
    <use xlink:href="#DejaVuSans-72" transform="translate(265.632812 0)"/>
    <use xlink:href="#DejaVuSans-76" transform="translate(306.746094 0)"/>
    <use xlink:href="#DejaVuSans-65" transform="translate(365.925781 0)"/>
    <use xlink:href="#DejaVuSans-20" transform="translate(427.449219 0)"/>
    <use xlink:href="#DejaVuSans-73" transform="translate(459.236328 0)"/>
    <use xlink:href="#DejaVuSans-65" transform="translate(511.335938 0)"/>
    <use xlink:href="#DejaVuSans-67" transform="translate(572.859375 0)"/>
    <use xlink:href="#DejaVuSans-75" transform="translate(636.335938 0)"/>
    <use xlink:href="#DejaVuSans-6f" transform="translate(699.714844 0)"/>
    <use xlink:href="#DejaVuSans-6e" transform="translate(760.896484 0)"/>
    <use xlink:href="#DejaVuSans-6f" transform="translate(824.275391 0)"/>
    <use xlink:href="#DejaVuSans-20" transform="translate(885.457031 0)"/>
    <use xlink:href="#DejaVuSans-75" transform="translate(917.244141 0)"/>
    <use xlink:href="#DejaVuSans-6e" transform="translate(980.623047 0)"/>
    <use xlink:href="#DejaVuSans-20" transform="translate(1044.001953 0)"/>
    <use xlink:href="#DejaVuSans-6d" transform="translate(1075.789062 0)"/>
    <use xlink:href="#DejaVuSans-6f" transform="translate(1173.201172 0)"/>
    <use xlink:href="#DejaVuSans-64" transform="translate(1234.382812 0)"/>
    <use xlink:href="#DejaVuSans-65" transform="translate(1297.859375 0)"/>
    <use xlink:href="#DejaVuSans-6c" transform="translate(1359.382812 0)"/>
    <use xlink:href="#DejaVuSans-6c" transform="translate(1387.166016 0)"/>
    <use xlink:href="#DejaVuSans-6f" transform="translate(1414.949219 0)"/>
    <use xlink:href="#DejaVuSans-20" transform="translate(1476.130859 0)"/>
    <use xlink:href="#DejaVuSans-73" transform="translate(1507.917969 0)"/>
    <use xlink:href="#DejaVuSans-69" transform="translate(1560.017578 0)"/>
    <use xlink:href="#DejaVuSans-6e" transform="translate(1587.800781 0)"/>
    <use xlink:href="#DejaVuSans-74" transform="translate(1651.179688 0)"/>
    <use xlink:href="#DejaVuSans-65" transform="translate(1690.388672 0)"/>
    <use xlink:href="#DejaVuSans-74" transform="translate(1751.912109 0)"/>
    <use xlink:href="#DejaVuSans-69" transform="translate(1791.121094 0)"/>
    <use xlink:href="#DejaVuSans-63" transform="translate(1818.904297 0)"/>
    <use xlink:href="#DejaVuSans-6f" transform="translate(1873.884766 0)"/>
    <use xlink:href="#DejaVuSans-20" transform="translate(1935.066406 0)"/>
    <use xlink:href="#DejaVuSans-61" transform="translate(1966.853516 0)"/>
    <use xlink:href="#DejaVuSans-20" transform="translate(2028.132812 0)"/>
    <use xlink:href="#DejaVuSans-6d" transform="translate(2059.919922 0)"/>
    <use xlink:href="#DejaVuSans-6f" transform="translate(2157.332031 0)"/>
    <use xlink:href="#DejaVuSans-62" transform="translate(2218.513672 0)"/>
    <use xlink:href="#DejaVuSans-69" transform="translate(2281.990234 0)"/>
    <use xlink:href="#DejaVuSans-6c" transform="translate(2309.773438 0)"/>
    <use xlink:href="#DejaVuSans-69" transform="translate(2337.556641 0)"/>
    <use xlink:href="#DejaVuSans-74" transform="translate(2365.339844 0)"/>
    <use xlink:href="#DejaVuSans-e0" transform="translate(2404.548828 0)"/>
    <use xlink:href="#DejaVuSans-20" transform="translate(2465.828125 0)"/>
    <use xlink:href="#DejaVuSans-64" transform="translate(2497.615234 0)"/>
    <use xlink:href="#DejaVuSans-69" transform="translate(2561.091797 0)"/>
    <use xlink:href="#DejaVuSans-20" transform="translate(2588.875 0)"/>
    <use xlink:href="#DejaVuSans-62" transform="translate(2620.662109 0)"/>
    <use xlink:href="#DejaVuSans-61" transform="translate(2684.138672 0)"/>
    <use xlink:href="#DejaVuSans-73" transform="translate(2745.417969 0)"/>
    <use xlink:href="#DejaVuSans-73" transform="translate(2797.517578 0)"/>
    <use xlink:href="#DejaVuSans-6f" transform="translate(2849.617188 0)"/>
    <use xlink:href="#DejaVuSans-20" transform="translate(2910.798828 0)"/>
    <use xlink:href="#DejaVuSans-63" transform="translate(2942.585938 0)"/>
    <use xlink:href="#DejaVuSans-61" transform="translate(2997.566406 0)"/>
    <use xlink:href="#DejaVuSans-6d" transform="translate(3058.845703 0)"/>
    <use xlink:href="#DejaVuSans-70" transform="translate(3156.257812 0)"/>
    <use xlink:href="#DejaVuSans-6f" transform="translate(3219.734375 0)"/>
    <use xlink:href="#DejaVuSans-20" transform="translate(3280.916016 0)"/>
    <use xlink:href="#DejaVuSans-65" transform="translate(3312.703125 0)"/>
    <use xlink:href="#DejaVuSans-20" transform="translate(3374.226562 0)"/>
    <use xlink:href="#DejaVuSans-76" transform="translate(3406.013672 0)"/>
    <use xlink:href="#DejaVuSans-65" transform="translate(3465.193359 0)"/>
    <use xlink:href="#DejaVuSans-6c" transform="translate(3526.716797 0)"/>
    <use xlink:href="#DejaVuSans-6f" transform="translate(3554.5 0)"/>
    <use xlink:href="#DejaVuSans-63" transform="translate(3615.681641 0)"/>
    <use xlink:href="#DejaVuSans-69" transform="translate(3670.662109 0)"/>
    <use xlink:href="#DejaVuSans-74" transform="translate(3698.445312 0)"/>
    <use xlink:href="#DejaVuSans-e0" transform="translate(3737.654297 0)"/>
    <use xlink:href="#DejaVuSans-20" transform="translate(3798.933594 0)"/>
    <use xlink:href="#DejaVuSans-64" transform="translate(3830.720703 0)"/>
    <use xlink:href="#DejaVuSans-69" transform="translate(3894.197266 0)"/>
    <use xlink:href="#DejaVuSans-20" transform="translate(3921.980469 0)"/>
    <use xlink:href="#DejaVuSans-73" transform="translate(3953.767578 0)"/>
    <use xlink:href="#DejaVuSans-61" transform="translate(4005.867188 0)"/>
    <use xlink:href="#DejaVuSans-74" transform="translate(4067.146484 0)"/>
    <use xlink:href="#DejaVuSans-75" transform="translate(4106.355469 0)"/>
    <use xlink:href="#DejaVuSans-72" transform="translate(4169.734375 0)"/>
    <use xlink:href="#DejaVuSans-61" transform="translate(4210.847656 0)"/>
    <use xlink:href="#DejaVuSans-7a" transform="translate(4272.126953 0)"/>
    <use xlink:href="#DejaVuSans-69" transform="translate(4324.617188 0)"/>
    <use xlink:href="#DejaVuSans-6f" transform="translate(4352.400391 0)"/>
    <use xlink:href="#DejaVuSans-6e" transform="translate(4413.582031 0)"/>
    <use xlink:href="#DejaVuSans-65" transform="translate(4476.960938 0)"/>
    <use xlink:href="#DejaVuSans-3b" transform="translate(4538.484375 0)"/>
    <use xlink:href="#DejaVuSans-20" transform="translate(4572.175781 0)"/>
    <use xlink:href="#DejaVuSans-6c" transform="translate(4603.962891 0)"/>
    <use xlink:href="#DejaVuSans-65" transform="translate(4631.746094 0)"/>
    <use xlink:href="#DejaVuSans-20" transform="translate(4693.269531 0)"/>
    <use xlink:href="#DejaVuSans-6c" transform="translate(4725.056641 0)"/>
    <use xlink:href="#DejaVuSans-69" transform="translate(4752.839844 0)"/>
    <use xlink:href="#DejaVuSans-6e" transform="translate(4780.623047 0)"/>
    <use xlink:href="#DejaVuSans-65" transform="translate(4844.001953 0)"/>
    <use xlink:href="#DejaVuSans-65" transform="translate(4905.525391 0)"/>
    <use xlink:href="#DejaVuSans-20" transform="translate(4967.048828 0)"/>
    <use xlink:href="#DejaVuSans-63" transform="translate(4998.835938 0)"/>
    <use xlink:href="#DejaVuSans-6f" transform="translate(5053.816406 0)"/>
    <use xlink:href="#DejaVuSans-6e" transform="translate(5114.998047 0)"/>
    <use xlink:href="#DejaVuSans-74" transform="translate(5178.376953 0)"/>
    <use xlink:href="#DejaVuSans-69" transform="translate(5217.585938 0)"/>
    <use xlink:href="#DejaVuSans-6e" transform="translate(5245.369141 0)"/>
    <use xlink:href="#DejaVuSans-75" transform="translate(5308.748047 0)"/>
    <use xlink:href="#DejaVuSans-65" transform="translate(5372.126953 0)"/>
    <use xlink:href="#DejaVuSans-20" transform="translate(5433.650391 0)"/>
    <use xlink:href="#DejaVuSans-72" transform="translate(5465.4375 0)"/>
    <use xlink:href="#DejaVuSans-61" transform="translate(5506.550781 0)"/>
    <use xlink:href="#DejaVuSans-70" transform="translate(5567.830078 0)"/>
    <use xlink:href="#DejaVuSans-70" transform="translate(5631.306641 0)"/>
    <use xlink:href="#DejaVuSans-72" transform="translate(5694.783203 0)"/>
    <use xlink:href="#DejaVuSans-65" transform="translate(5733.646484 0)"/>
    <use xlink:href="#DejaVuSans-73" transform="translate(5795.169922 0)"/>
    <use xlink:href="#DejaVuSans-65" transform="translate(5847.269531 0)"/>
    <use xlink:href="#DejaVuSans-6e" transform="translate(5908.792969 0)"/>
    <use xlink:href="#DejaVuSans-74" transform="translate(5972.171875 0)"/>
    <use xlink:href="#DejaVuSans-61" transform="translate(6011.380859 0)"/>
    <use xlink:href="#DejaVuSans-6e" transform="translate(6072.660156 0)"/>
    <use xlink:href="#DejaVuSans-6f" transform="translate(6136.039062 0)"/>
    <use xlink:href="#DejaVuSans-20" transform="translate(6197.220703 0)"/>
    <use xlink:href="#DejaVuSans-67" transform="translate(6229.007812 0)"/>
    <use xlink:href="#DejaVuSans-6c" transform="translate(6292.484375 0)"/>
    <use xlink:href="#DejaVuSans-69" transform="translate(6320.267578 0)"/>
    <use xlink:href="#DejaVuSans-20" transform="translate(6348.050781 0)"/>
    <use xlink:href="#DejaVuSans-65" transform="translate(6379.837891 0)"/>
    <use xlink:href="#DejaVuSans-6c" transform="translate(6441.361328 0)"/>
    <use xlink:href="#DejaVuSans-65" transform="translate(6469.144531 0)"/>
    <use xlink:href="#DejaVuSans-74" transform="translate(6530.667969 0)"/>
    <use xlink:href="#DejaVuSans-74" transform="translate(6569.876953 0)"/>
    <use xlink:href="#DejaVuSans-72" transform="translate(6609.085938 0)"/>
    <use xlink:href="#DejaVuSans-6f" transform="translate(6647.949219 0)"/>
    <use xlink:href="#DejaVuSans-6e" transform="translate(6709.130859 0)"/>
    <use xlink:href="#DejaVuSans-69" transform="translate(6772.509766 0)"/>
    <use xlink:href="#DejaVuSans-2c" transform="translate(6800.292969 0)"/>
    <use xlink:href="#DejaVuSans-20" transform="translate(6832.080078 0)"/>
    <use xlink:href="#DejaVuSans-71" transform="translate(6863.867188 0)"/>
    <use xlink:href="#DejaVuSans-75" transform="translate(6927.34375 0)"/>
    <use xlink:href="#DejaVuSans-65" transform="translate(6990.722656 0)"/>
    <use xlink:href="#DejaVuSans-6c" transform="translate(7052.246094 0)"/>
    <use xlink:href="#DejaVuSans-6c" transform="translate(7080.029297 0)"/>
    <use xlink:href="#DejaVuSans-65" transform="translate(7107.8125 0)"/>
    <use xlink:href="#DejaVuSans-20" transform="translate(7169.335938 0)"/>
    <use xlink:href="#DejaVuSans-70" transform="translate(7201.123047 0)"/>
    <use xlink:href="#DejaVuSans-75" transform="translate(7264.599609 0)"/>
    <use xlink:href="#DejaVuSans-6e" transform="translate(7327.978516 0)"/>
    <use xlink:href="#DejaVuSans-74" transform="translate(7391.357422 0)"/>
    <use xlink:href="#DejaVuSans-69" transform="translate(7430.566406 0)"/>
    <use xlink:href="#DejaVuSans-6e" transform="translate(7458.349609 0)"/>
    <use xlink:href="#DejaVuSans-61" transform="translate(7521.728516 0)"/>
    <use xlink:href="#DejaVuSans-74" transform="translate(7583.007812 0)"/>
    <use xlink:href="#DejaVuSans-65" transform="translate(7622.216797 0)"/>
    <use xlink:href="#DejaVuSans-20" transform="translate(7683.740234 0)"/>
    <use xlink:href="#DejaVuSans-6c" transform="translate(7715.527344 0)"/>
    <use xlink:href="#DejaVuSans-65" transform="translate(7743.310547 0)"/>
    <use xlink:href="#DejaVuSans-20" transform="translate(7804.833984 0)"/>
    <use xlink:href="#DejaVuSans-6c" transform="translate(7836.621094 0)"/>
    <use xlink:href="#DejaVuSans-61" transform="translate(7864.404297 0)"/>
    <use xlink:href="#DejaVuSans-63" transform="translate(7925.683594 0)"/>
    <use xlink:href="#DejaVuSans-75" transform="translate(7980.664062 0)"/>
    <use xlink:href="#DejaVuSans-6e" transform="translate(8044.042969 0)"/>
    <use xlink:href="#DejaVuSans-65" transform="translate(8107.421875 0)"/>
    <use xlink:href="#DejaVuSans-2e" transform="translate(8168.945312 0)"/>
   </g>
  </g>
 </g>
 <defs>
  <clipPath id="p88642bd688">
   <rect x="125.635156" y="31.197656" width="602.64" height="399.168"/>
  </clipPath>
 </defs>
</svg>
