<?xml version="1.0" encoding="utf-8" standalone="no"?>
<!DOCTYPE svg PUBLIC "-//W3C//DTD SVG 1.1//EN"
  "http://www.w3.org/Graphics/SVG/1.1/DTD/svg11.dtd">
<svg xmlns:xlink="http://www.w3.org/1999/xlink" width="695.16pt" height="497.799687pt" viewBox="0 0 695.16 497.799687" xmlns="http://www.w3.org/2000/svg" version="1.1">
 <metadata>
  <rdf:RDF xmlns:dc="http://purl.org/dc/elements/1.1/" xmlns:cc="http://creativecommons.org/ns#" xmlns:rdf="http://www.w3.org/1999/02/22-rdf-syntax-ns#">
   <cc:Work>
    <dc:type rdf:resource="http://purl.org/dc/dcmitype/StillImage"/>
    <dc:date>2026-06-16T09:40:08.418988</dc:date>
    <dc:format>image/svg+xml</dc:format>
    <dc:creator>
     <cc:Agent>
      <dc:title>Matplotlib v3.10.8, https://matplotlib.org/</dc:title>
     </cc:Agent>
    </dc:creator>
   </cc:Work>
  </rdf:RDF>
 </metadata>
 <defs>
  <style type="text/css">*{stroke-linejoin: round; stroke-linecap: butt}</style>
 </defs>
 <g id="figure_1">
  <g id="patch_1">
   <path d="M 0 497.799687 
L 695.16 497.799687 
L 695.16 0 
L 0 0 
z
" style="fill: #ffffff"/>
  </g>
  <g id="axes_1">
   <g id="patch_2">
    <path d="M 27.380632 93.047276 
C 28.272627 93.047276 29.128207 92.542553 29.758943 91.644267 
C 30.389678 90.745981 30.744071 89.527472 30.744071 88.257103 
C 30.744071 86.986735 30.389678 85.768226 29.758943 84.86994 
C 29.128207 83.971654 28.272627 83.466931 27.380632 83.466931 
C 26.488638 83.466931 25.633057 83.971654 25.002322 84.86994 
C 24.371587 85.768226 24.017194 86.986735 24.017194 88.257103 
C 24.017194 89.527472 24.371587 90.745981 25.002322 91.644267 
C 25.633057 92.542553 26.488638 93.047276 27.380632 93.047276 
L 27.380632 93.047276 
z
" clip-path="url(#p610ab7b19d)" style="fill: none; stroke: #000000; stroke-width: 1.1; stroke-linejoin: miter"/>
   </g>
   <g id="patch_3">
    <path d="M 72.226482 93.047276 
C 73.118477 93.047276 73.974057 92.542553 74.604793 91.644267 
C 75.235528 90.745981 75.589921 89.527472 75.589921 88.257103 
C 75.589921 86.986735 75.235528 85.768226 74.604793 84.86994 
C 73.974057 83.971654 73.118477 83.466931 72.226482 83.466931 
C 71.334488 83.466931 70.478907 83.971654 69.848172 84.86994 
C 69.217437 85.768226 68.863043 86.986735 68.863043 88.257103 
C 68.863043 89.527472 69.217437 90.745981 69.848172 91.644267 
C 70.478907 92.542553 71.334488 93.047276 72.226482 93.047276 
L 72.226482 93.047276 
z
" clip-path="url(#p610ab7b19d)" style="fill: none; stroke: #000000; stroke-width: 1.1; stroke-linejoin: miter"/>
   </g>
   <g id="patch_4">
    <path d="M 117.072332 93.047276 
C 117.964326 93.047276 118.819907 92.542553 119.450642 91.644267 
C 120.081378 90.745981 120.435771 89.527472 120.435771 88.257103 
C 120.435771 86.986735 120.081378 85.768226 119.450642 84.86994 
C 118.819907 83.971654 117.964326 83.466931 117.072332 83.466931 
C 116.180338 83.466931 115.324757 83.971654 114.694022 84.86994 
C 114.063286 85.768226 113.708893 86.986735 113.708893 88.257103 
C 113.708893 89.527472 114.063286 90.745981 114.694022 91.644267 
C 115.324757 92.542553 116.180338 93.047276 117.072332 93.047276 
L 117.072332 93.047276 
z
" clip-path="url(#p610ab7b19d)" style="fill: none; stroke: #000000; stroke-width: 1.1; stroke-linejoin: miter"/>
   </g>
   <g id="patch_5">
    <path d="M 161.918182 93.047276 
C 162.810176 93.047276 163.665757 92.542553 164.296492 91.644267 
C 164.927227 90.745981 165.281621 89.527472 165.281621 88.257103 
C 165.281621 86.986735 164.927227 85.768226 164.296492 84.86994 
C 163.665757 83.971654 162.810176 83.466931 161.918182 83.466931 
C 161.026187 83.466931 160.170607 83.971654 159.539871 84.86994 
C 158.909136 85.768226 158.554743 86.986735 158.554743 88.257103 
C 158.554743 89.527472 158.909136 90.745981 159.539871 91.644267 
C 160.170607 92.542553 161.026187 93.047276 161.918182 93.047276 
L 161.918182 93.047276 
z
" clip-path="url(#p610ab7b19d)" style="fill: none; stroke: #000000; stroke-width: 1.1; stroke-linejoin: miter"/>
   </g>
   <g id="patch_6">
    <path d="M 206.764032 93.047276 
C 207.656026 93.047276 208.511607 92.542553 209.142342 91.644267 
C 209.773077 90.745981 210.12747 89.527472 210.12747 88.257103 
C 210.12747 86.986735 209.773077 85.768226 209.142342 84.86994 
C 208.511607 83.971654 207.656026 83.466931 206.764032 83.466931 
C 205.872037 83.466931 205.016457 83.971654 204.385721 84.86994 
C 203.754986 85.768226 203.400593 86.986735 203.400593 88.257103 
C 203.400593 89.527472 203.754986 90.745981 204.385721 91.644267 
C 205.016457 92.542553 205.872037 93.047276 206.764032 93.047276 
L 206.764032 93.047276 
z
" clip-path="url(#p610ab7b19d)" style="fill: none; stroke: #000000; stroke-width: 1.1; stroke-linejoin: miter"/>
   </g>
   <g id="patch_7">
    <path d="M 251.609881 93.047276 
C 252.501876 93.047276 253.357456 92.542553 253.988192 91.644267 
C 254.618927 90.745981 254.97332 89.527472 254.97332 88.257103 
C 254.97332 86.986735 254.618927 85.768226 253.988192 84.86994 
C 253.357456 83.971654 252.501876 83.466931 251.609881 83.466931 
C 250.717887 83.466931 249.862306 83.971654 249.231571 84.86994 
C 248.600836 85.768226 248.246443 86.986735 248.246443 88.257103 
C 248.246443 89.527472 248.600836 90.745981 249.231571 91.644267 
C 249.862306 92.542553 250.717887 93.047276 251.609881 93.047276 
L 251.609881 93.047276 
z
" clip-path="url(#p610ab7b19d)" style="fill: none; stroke: #000000; stroke-width: 1.1; stroke-linejoin: miter"/>
   </g>
   <g id="patch_8">
    <path d="M 296.455731 93.047276 
C 297.347726 93.047276 298.203306 92.542553 298.834042 91.644267 
C 299.464777 90.745981 299.81917 89.527472 299.81917 88.257103 
C 299.81917 86.986735 299.464777 85.768226 298.834042 84.86994 
C 298.203306 83.971654 297.347726 83.466931 296.455731 83.466931 
C 295.563737 83.466931 294.708156 83.971654 294.077421 84.86994 
C 293.446686 85.768226 293.092292 86.986735 293.092292 88.257103 
C 293.092292 89.527472 293.446686 90.745981 294.077421 91.644267 
C 294.708156 92.542553 295.563737 93.047276 296.455731 93.047276 
L 296.455731 93.047276 
z
" clip-path="url(#p610ab7b19d)" style="fill: none; stroke: #000000; stroke-width: 1.1; stroke-linejoin: miter"/>
   </g>
   <g id="matplotlib.axis_1"/>
   <g id="matplotlib.axis_2"/>
   <g id="line2d_1">
    <path d="M 7.174768 111.888621 
L 19.972488 111.888621 
L 19.972488 170.648069 
L 20.053231 170.648069 
L 34.748405 170.648069 
L 34.748405 111.888621 
L 34.829148 111.888621 
L 64.865438 111.888621 
L 64.865438 170.648069 
L 64.946181 170.648069 
L 79.641355 170.648069 
L 79.641355 111.888621 
L 79.722098 111.888621 
L 109.677645 111.888621 
L 109.677645 170.648069 
L 109.758388 170.648069 
L 124.453562 170.648069 
L 124.453562 111.888621 
L 124.534305 111.888621 
L 154.489852 111.888621 
L 154.489852 170.648069 
L 154.570595 170.648069 
L 169.346512 170.648069 
L 169.346512 111.888621 
L 169.427254 111.888621 
L 199.382802 111.888621 
L 199.382802 170.648069 
L 199.463544 170.648069 
L 214.158719 170.648069 
L 214.158719 111.888621 
L 214.239461 111.888621 
L 244.195009 111.888621 
L 244.195009 170.648069 
L 244.275751 170.648069 
L 258.970926 170.648069 
L 258.970926 111.888621 
L 259.051668 111.888621 
L 289.087958 111.888621 
L 289.087958 170.648069 
L 289.168701 170.648069 
L 303.863875 170.648069 
L 303.863875 111.888621 
L 303.944618 111.888621 
L 316.661596 111.888621 
L 316.661596 111.888621 
" clip-path="url(#p610ab7b19d)" style="fill: none; stroke: #1f77b4; stroke-width: 1.8; stroke-linecap: square"/>
   </g>
   <g id="text_1">
    <!-- Si -->
    <g transform="translate(23.273679 77.328058) scale(0.09 -0.09)">
     <defs>
      <path id="DejaVuSans-53" d="M 3425 4513 
L 3425 3897 
Q 3066 4069 2747 4153 
Q 2428 4238 2131 4238 
Q 1616 4238 1336 4038 
Q 1056 3838 1056 3469 
Q 1056 3159 1242 3001 
Q 1428 2844 1947 2747 
L 2328 2669 
Q 3034 2534 3370 2195 
Q 3706 1856 3706 1288 
Q 3706 609 3251 259 
Q 2797 -91 1919 -91 
Q 1588 -91 1214 -16 
Q 841 59 441 206 
L 441 856 
Q 825 641 1194 531 
Q 1563 422 1919 422 
Q 2459 422 2753 634 
Q 3047 847 3047 1241 
Q 3047 1584 2836 1778 
Q 2625 1972 2144 2069 
L 1759 2144 
Q 1053 2284 737 2584 
Q 422 2884 422 3419 
Q 422 4038 858 4394 
Q 1294 4750 2059 4750 
Q 2388 4750 2728 4690 
Q 3069 4631 3425 4513 
z
" transform="scale(0.015625)"/>
      <path id="DejaVuSans-69" d="M 603 3500 
L 1178 3500 
L 1178 0 
L 603 0 
L 603 3500 
z
M 603 4863 
L 1178 4863 
L 1178 4134 
L 603 4134 
L 603 4863 
z
" transform="scale(0.015625)"/>
     </defs>
     <use xlink:href="#DejaVuSans-53"/>
     <use xlink:href="#DejaVuSans-69" transform="translate(63.476562 0)"/>
    </g>
   </g>
   <g id="text_2">
    <!-- Si -->
    <g transform="translate(68.119529 77.328058) scale(0.09 -0.09)">
     <use xlink:href="#DejaVuSans-53"/>
     <use xlink:href="#DejaVuSans-69" transform="translate(63.476562 0)"/>
    </g>
   </g>
   <g id="text_3">
    <!-- Si -->
    <g transform="translate(112.965379 77.328058) scale(0.09 -0.09)">
     <use xlink:href="#DejaVuSans-53"/>
     <use xlink:href="#DejaVuSans-69" transform="translate(63.476562 0)"/>
    </g>
   </g>
   <g id="text_4">
    <!-- Si -->
    <g transform="translate(157.811229 77.328058) scale(0.09 -0.09)">
     <use xlink:href="#DejaVuSans-53"/>
     <use xlink:href="#DejaVuSans-69" transform="translate(63.476562 0)"/>
    </g>
   </g>
   <g id="text_5">
    <!-- Si -->
    <g transform="translate(202.657078 77.328058) scale(0.09 -0.09)">
     <use xlink:href="#DejaVuSans-53"/>
     <use xlink:href="#DejaVuSans-69" transform="translate(63.476562 0)"/>
    </g>
   </g>
   <g id="text_6">
    <!-- Si -->
    <g transform="translate(247.502928 77.328058) scale(0.09 -0.09)">
     <use xlink:href="#DejaVuSans-53"/>
     <use xlink:href="#DejaVuSans-69" transform="translate(63.476562 0)"/>
    </g>
   </g>
   <g id="text_7">
    <!-- Si -->
    <g transform="translate(292.348778 77.328058) scale(0.09 -0.09)">
     <use xlink:href="#DejaVuSans-53"/>
     <use xlink:href="#DejaVuSans-69" transform="translate(63.476562 0)"/>
    </g>
   </g>
   <g id="text_8">
    <!-- cristallo non drogato -->
    <g transform="translate(96.974354 51.6) scale(0.11 -0.11)">
     <defs>
      <path id="DejaVuSans-Bold-63" d="M 3366 3391 
L 3366 2478 
Q 3138 2634 2908 2709 
Q 2678 2784 2431 2784 
Q 1963 2784 1702 2511 
Q 1441 2238 1441 1747 
Q 1441 1256 1702 982 
Q 1963 709 2431 709 
Q 2694 709 2930 787 
Q 3166 866 3366 1019 
L 3366 103 
Q 3103 6 2833 -42 
Q 2563 -91 2291 -91 
Q 1344 -91 809 395 
Q 275 881 275 1747 
Q 275 2613 809 3098 
Q 1344 3584 2291 3584 
Q 2566 3584 2833 3536 
Q 3100 3488 3366 3391 
z
" transform="scale(0.015625)"/>
      <path id="DejaVuSans-Bold-72" d="M 3138 2547 
Q 2991 2616 2845 2648 
Q 2700 2681 2553 2681 
Q 2122 2681 1889 2404 
Q 1656 2128 1656 1613 
L 1656 0 
L 538 0 
L 538 3500 
L 1656 3500 
L 1656 2925 
Q 1872 3269 2151 3426 
Q 2431 3584 2822 3584 
Q 2878 3584 2943 3579 
Q 3009 3575 3134 3559 
L 3138 2547 
z
" transform="scale(0.015625)"/>
      <path id="DejaVuSans-Bold-69" d="M 538 3500 
L 1656 3500 
L 1656 0 
L 538 0 
L 538 3500 
z
M 538 4863 
L 1656 4863 
L 1656 3950 
L 538 3950 
L 538 4863 
z
" transform="scale(0.015625)"/>
      <path id="DejaVuSans-Bold-73" d="M 3272 3391 
L 3272 2541 
Q 2913 2691 2578 2766 
Q 2244 2841 1947 2841 
Q 1628 2841 1473 2761 
Q 1319 2681 1319 2516 
Q 1319 2381 1436 2309 
Q 1553 2238 1856 2203 
L 2053 2175 
Q 2913 2066 3209 1816 
Q 3506 1566 3506 1031 
Q 3506 472 3093 190 
Q 2681 -91 1863 -91 
Q 1516 -91 1145 -36 
Q 775 19 384 128 
L 384 978 
Q 719 816 1070 734 
Q 1422 653 1784 653 
Q 2113 653 2278 743 
Q 2444 834 2444 1013 
Q 2444 1163 2330 1236 
Q 2216 1309 1875 1350 
L 1678 1375 
Q 931 1469 631 1722 
Q 331 1975 331 2491 
Q 331 3047 712 3315 
Q 1094 3584 1881 3584 
Q 2191 3584 2531 3537 
Q 2872 3491 3272 3391 
z
" transform="scale(0.015625)"/>
      <path id="DejaVuSans-Bold-74" d="M 1759 4494 
L 1759 3500 
L 2913 3500 
L 2913 2700 
L 1759 2700 
L 1759 1216 
Q 1759 972 1856 886 
Q 1953 800 2241 800 
L 2816 800 
L 2816 0 
L 1856 0 
Q 1194 0 917 276 
Q 641 553 641 1216 
L 641 2700 
L 84 2700 
L 84 3500 
L 641 3500 
L 641 4494 
L 1759 4494 
z
" transform="scale(0.015625)"/>
      <path id="DejaVuSans-Bold-61" d="M 2106 1575 
Q 1756 1575 1579 1456 
Q 1403 1338 1403 1106 
Q 1403 894 1545 773 
Q 1688 653 1941 653 
Q 2256 653 2472 879 
Q 2688 1106 2688 1447 
L 2688 1575 
L 2106 1575 
z
M 3816 1997 
L 3816 0 
L 2688 0 
L 2688 519 
Q 2463 200 2181 54 
Q 1900 -91 1497 -91 
Q 953 -91 614 226 
Q 275 544 275 1050 
Q 275 1666 698 1953 
Q 1122 2241 2028 2241 
L 2688 2241 
L 2688 2328 
Q 2688 2594 2478 2717 
Q 2269 2841 1825 2841 
Q 1466 2841 1156 2769 
Q 847 2697 581 2553 
L 581 3406 
Q 941 3494 1303 3539 
Q 1666 3584 2028 3584 
Q 2975 3584 3395 3211 
Q 3816 2838 3816 1997 
z
" transform="scale(0.015625)"/>
      <path id="DejaVuSans-Bold-6c" d="M 538 4863 
L 1656 4863 
L 1656 0 
L 538 0 
L 538 4863 
z
" transform="scale(0.015625)"/>
      <path id="DejaVuSans-Bold-6f" d="M 2203 2784 
Q 1831 2784 1636 2517 
Q 1441 2250 1441 1747 
Q 1441 1244 1636 976 
Q 1831 709 2203 709 
Q 2569 709 2762 976 
Q 2956 1244 2956 1747 
Q 2956 2250 2762 2517 
Q 2569 2784 2203 2784 
z
M 2203 3584 
Q 3106 3584 3614 3096 
Q 4122 2609 4122 1747 
Q 4122 884 3614 396 
Q 3106 -91 2203 -91 
Q 1297 -91 786 396 
Q 275 884 275 1747 
Q 275 2609 786 3096 
Q 1297 3584 2203 3584 
z
" transform="scale(0.015625)"/>
      <path id="DejaVuSans-Bold-20" transform="scale(0.015625)"/>
      <path id="DejaVuSans-Bold-6e" d="M 4056 2131 
L 4056 0 
L 2931 0 
L 2931 347 
L 2931 1631 
Q 2931 2084 2911 2256 
Q 2891 2428 2841 2509 
Q 2775 2619 2662 2680 
Q 2550 2741 2406 2741 
Q 2056 2741 1856 2470 
Q 1656 2200 1656 1722 
L 1656 0 
L 538 0 
L 538 3500 
L 1656 3500 
L 1656 2988 
Q 1909 3294 2193 3439 
Q 2478 3584 2822 3584 
Q 3428 3584 3742 3212 
Q 4056 2841 4056 2131 
z
" transform="scale(0.015625)"/>
      <path id="DejaVuSans-Bold-64" d="M 2919 2988 
L 2919 4863 
L 4044 4863 
L 4044 0 
L 2919 0 
L 2919 506 
Q 2688 197 2409 53 
Q 2131 -91 1766 -91 
Q 1119 -91 703 423 
Q 288 938 288 1747 
Q 288 2556 703 3070 
Q 1119 3584 1766 3584 
Q 2128 3584 2408 3439 
Q 2688 3294 2919 2988 
z
M 2181 722 
Q 2541 722 2730 984 
Q 2919 1247 2919 1747 
Q 2919 2247 2730 2509 
Q 2541 2772 2181 2772 
Q 1825 2772 1636 2509 
Q 1447 2247 1447 1747 
Q 1447 1247 1636 984 
Q 1825 722 2181 722 
z
" transform="scale(0.015625)"/>
      <path id="DejaVuSans-Bold-67" d="M 2919 594 
Q 2688 288 2409 144 
Q 2131 0 1766 0 
Q 1125 0 706 504 
Q 288 1009 288 1791 
Q 288 2575 706 3076 
Q 1125 3578 1766 3578 
Q 2131 3578 2409 3434 
Q 2688 3291 2919 2981 
L 2919 3500 
L 4044 3500 
L 4044 353 
Q 4044 -491 3511 -936 
Q 2978 -1381 1966 -1381 
Q 1638 -1381 1331 -1331 
Q 1025 -1281 716 -1178 
L 716 -306 
Q 1009 -475 1290 -558 
Q 1572 -641 1856 -641 
Q 2406 -641 2662 -400 
Q 2919 -159 2919 353 
L 2919 594 
z
M 2181 2772 
Q 1834 2772 1640 2515 
Q 1447 2259 1447 1791 
Q 1447 1309 1634 1061 
Q 1822 813 2181 813 
Q 2531 813 2725 1069 
Q 2919 1325 2919 1791 
Q 2919 2259 2725 2515 
Q 2531 2772 2181 2772 
z
" transform="scale(0.015625)"/>
     </defs>
     <use xlink:href="#DejaVuSans-Bold-63"/>
     <use xlink:href="#DejaVuSans-Bold-72" transform="translate(59.277344 0)"/>
     <use xlink:href="#DejaVuSans-Bold-69" transform="translate(108.59375 0)"/>
     <use xlink:href="#DejaVuSans-Bold-73" transform="translate(142.871094 0)"/>
     <use xlink:href="#DejaVuSans-Bold-74" transform="translate(202.392578 0)"/>
     <use xlink:href="#DejaVuSans-Bold-61" transform="translate(250.195312 0)"/>
     <use xlink:href="#DejaVuSans-Bold-6c" transform="translate(317.675781 0)"/>
     <use xlink:href="#DejaVuSans-Bold-6c" transform="translate(351.953125 0)"/>
     <use xlink:href="#DejaVuSans-Bold-6f" transform="translate(386.230469 0)"/>
     <use xlink:href="#DejaVuSans-Bold-20" transform="translate(454.931641 0)"/>
     <use xlink:href="#DejaVuSans-Bold-6e" transform="translate(489.746094 0)"/>
     <use xlink:href="#DejaVuSans-Bold-6f" transform="translate(560.9375 0)"/>
     <use xlink:href="#DejaVuSans-Bold-6e" transform="translate(629.638672 0)"/>
     <use xlink:href="#DejaVuSans-Bold-20" transform="translate(700.830078 0)"/>
     <use xlink:href="#DejaVuSans-Bold-64" transform="translate(735.644531 0)"/>
     <use xlink:href="#DejaVuSans-Bold-72" transform="translate(807.226562 0)"/>
     <use xlink:href="#DejaVuSans-Bold-6f" transform="translate(856.542969 0)"/>
     <use xlink:href="#DejaVuSans-Bold-67" transform="translate(925.244141 0)"/>
     <use xlink:href="#DejaVuSans-Bold-61" transform="translate(996.826172 0)"/>
     <use xlink:href="#DejaVuSans-Bold-74" transform="translate(1064.306641 0)"/>
     <use xlink:href="#DejaVuSans-Bold-6f" transform="translate(1112.109375 0)"/>
    </g>
   </g>
  </g>
  <g id="axes_2">
   <g id="patch_9">
    <path d="M 398.704269 93.047276 
C 399.596263 93.047276 400.451844 92.542553 401.082579 91.644267 
C 401.713314 90.745981 402.067708 89.527472 402.067708 88.257103 
C 402.067708 86.986735 401.713314 85.768226 401.082579 84.86994 
C 400.451844 83.971654 399.596263 83.466931 398.704269 83.466931 
C 397.812274 83.466931 396.956694 83.971654 396.325958 84.86994 
C 395.695223 85.768226 395.34083 86.986735 395.34083 88.257103 
C 395.34083 89.527472 395.695223 90.745981 396.325958 91.644267 
C 396.956694 92.542553 397.812274 93.047276 398.704269 93.047276 
L 398.704269 93.047276 
z
" clip-path="url(#p9cfef70bbd)" style="fill: none; stroke: #000000; stroke-width: 1.1; stroke-linejoin: miter"/>
   </g>
   <g id="patch_10">
    <path d="M 443.550119 93.047276 
C 444.442113 93.047276 445.297694 92.542553 445.928429 91.644267 
C 446.559164 90.745981 446.913557 89.527472 446.913557 88.257103 
C 446.913557 86.986735 446.559164 85.768226 445.928429 84.86994 
C 445.297694 83.971654 444.442113 83.466931 443.550119 83.466931 
C 442.658124 83.466931 441.802544 83.971654 441.171808 84.86994 
C 440.541073 85.768226 440.18668 86.986735 440.18668 88.257103 
C 440.18668 89.527472 440.541073 90.745981 441.171808 91.644267 
C 441.802544 92.542553 442.658124 93.047276 443.550119 93.047276 
L 443.550119 93.047276 
z
" clip-path="url(#p9cfef70bbd)" style="fill: none; stroke: #000000; stroke-width: 1.1; stroke-linejoin: miter"/>
   </g>
   <g id="patch_11">
    <path d="M 488.395968 93.047276 
C 489.287963 93.047276 490.143543 92.542553 490.774279 91.644267 
C 491.405014 90.745981 491.759407 89.527472 491.759407 88.257103 
C 491.759407 86.986735 491.405014 85.768226 490.774279 84.86994 
C 490.143543 83.971654 489.287963 83.466931 488.395968 83.466931 
C 487.503974 83.466931 486.648393 83.971654 486.017658 84.86994 
C 485.386923 85.768226 485.03253 86.986735 485.03253 88.257103 
C 485.03253 89.527472 485.386923 90.745981 486.017658 91.644267 
C 486.648393 92.542553 487.503974 93.047276 488.395968 93.047276 
L 488.395968 93.047276 
z
" clip-path="url(#p9cfef70bbd)" style="fill: none; stroke: #000000; stroke-width: 1.1; stroke-linejoin: miter"/>
   </g>
   <g id="patch_12">
    <path d="M 533.241818 93.047276 
C 534.133813 93.047276 534.989393 92.542553 535.620129 91.644267 
C 536.250864 90.745981 536.605257 89.527472 536.605257 88.257103 
C 536.605257 86.986735 536.250864 85.768226 535.620129 84.86994 
C 534.989393 83.971654 534.133813 83.466931 533.241818 83.466931 
C 532.349824 83.466931 531.494243 83.971654 530.863508 84.86994 
C 530.232773 85.768226 529.878379 86.986735 529.878379 88.257103 
C 529.878379 89.527472 530.232773 90.745981 530.863508 91.644267 
C 531.494243 92.542553 532.349824 93.047276 533.241818 93.047276 
L 533.241818 93.047276 
z
" clip-path="url(#p9cfef70bbd)" style="fill: none; stroke: #000000; stroke-width: 1.1; stroke-linejoin: miter"/>
   </g>
   <g id="patch_13">
    <path d="M 578.087668 93.047276 
C 578.979662 93.047276 579.835243 92.542553 580.465978 91.644267 
C 581.096714 90.745981 581.451107 89.527472 581.451107 88.257103 
C 581.451107 86.986735 581.096714 85.768226 580.465978 84.86994 
C 579.835243 83.971654 578.979662 83.466931 578.087668 83.466931 
C 577.195674 83.466931 576.340093 83.971654 575.709358 84.86994 
C 575.078622 85.768226 574.724229 86.986735 574.724229 88.257103 
C 574.724229 89.527472 575.078622 90.745981 575.709358 91.644267 
C 576.340093 92.542553 577.195674 93.047276 578.087668 93.047276 
L 578.087668 93.047276 
z
" clip-path="url(#p9cfef70bbd)" style="fill: none; stroke: #000000; stroke-width: 1.1; stroke-linejoin: miter"/>
   </g>
   <g id="patch_14">
    <path d="M 622.933518 93.047276 
C 623.825512 93.047276 624.681093 92.542553 625.311828 91.644267 
C 625.942563 90.745981 626.296957 89.527472 626.296957 88.257103 
C 626.296957 86.986735 625.942563 85.768226 625.311828 84.86994 
C 624.681093 83.971654 623.825512 83.466931 622.933518 83.466931 
C 622.041523 83.466931 621.185943 83.971654 620.555207 84.86994 
C 619.924472 85.768226 619.570079 86.986735 619.570079 88.257103 
C 619.570079 89.527472 619.924472 90.745981 620.555207 91.644267 
C 621.185943 92.542553 622.041523 93.047276 622.933518 93.047276 
L 622.933518 93.047276 
z
" clip-path="url(#p9cfef70bbd)" style="fill: none; stroke: #000000; stroke-width: 1.1; stroke-linejoin: miter"/>
   </g>
   <g id="patch_15">
    <path d="M 667.779368 93.047276 
C 668.671362 93.047276 669.526943 92.542553 670.157678 91.644267 
C 670.788413 90.745981 671.142806 89.527472 671.142806 88.257103 
C 671.142806 86.986735 670.788413 85.768226 670.157678 84.86994 
C 669.526943 83.971654 668.671362 83.466931 667.779368 83.466931 
C 666.887373 83.466931 666.031793 83.971654 665.401057 84.86994 
C 664.770322 85.768226 664.415929 86.986735 664.415929 88.257103 
C 664.415929 89.527472 664.770322 90.745981 665.401057 91.644267 
C 666.031793 92.542553 666.887373 93.047276 667.779368 93.047276 
L 667.779368 93.047276 
z
" clip-path="url(#p9cfef70bbd)" style="fill: none; stroke: #000000; stroke-width: 1.1; stroke-linejoin: miter"/>
   </g>
   <g id="matplotlib.axis_3"/>
   <g id="matplotlib.axis_4"/>
   <g id="line2d_2">
    <path d="M 378.498404 111.888621 
L 391.296125 111.888621 
L 391.296125 170.648069 
L 391.376867 170.648069 
L 406.072042 170.648069 
L 406.072042 111.888621 
L 406.152784 111.888621 
L 436.189074 111.888621 
L 436.189074 170.648069 
L 436.269817 170.648069 
L 450.964991 170.648069 
L 450.964991 111.888621 
L 451.045734 111.888621 
L 481.001281 111.888621 
L 481.001281 170.648069 
L 481.082024 170.648069 
L 495.777198 170.648069 
L 495.777198 111.888621 
L 495.857941 111.888621 
L 523.79492 111.888621 
L 523.79492 156.596897 
L 523.875663 156.596897 
L 525.813488 156.596897 
L 525.813488 215.356345 
L 525.894231 215.356345 
L 540.670148 215.356345 
L 540.670148 156.596897 
L 540.750891 156.596897 
L 542.688716 156.596897 
L 542.688716 111.888621 
L 542.769459 111.888621 
L 570.706438 111.888621 
L 570.706438 170.648069 
L 570.787181 170.648069 
L 585.482355 170.648069 
L 585.482355 111.888621 
L 585.563098 111.888621 
L 615.518645 111.888621 
L 615.518645 170.648069 
L 615.599388 170.648069 
L 630.294562 170.648069 
L 630.294562 111.888621 
L 630.375305 111.888621 
L 660.411595 111.888621 
L 660.411595 170.648069 
L 660.492338 170.648069 
L 675.187512 170.648069 
L 675.187512 111.888621 
L 675.268254 111.888621 
L 687.985232 111.888621 
L 687.985232 111.888621 
" clip-path="url(#p9cfef70bbd)" style="fill: none; stroke: #1f77b4; stroke-width: 1.8; stroke-linecap: square"/>
   </g>
   <g id="text_9">
    <!-- Si -->
    <g transform="translate(394.597316 77.328058) scale(0.09 -0.09)">
     <use xlink:href="#DejaVuSans-53"/>
     <use xlink:href="#DejaVuSans-69" transform="translate(63.476562 0)"/>
    </g>
   </g>
   <g id="text_10">
    <!-- Si -->
    <g transform="translate(439.443165 77.328058) scale(0.09 -0.09)">
     <use xlink:href="#DejaVuSans-53"/>
     <use xlink:href="#DejaVuSans-69" transform="translate(63.476562 0)"/>
    </g>
   </g>
   <g id="text_11">
    <!-- Si -->
    <g transform="translate(484.289015 77.328058) scale(0.09 -0.09)">
     <use xlink:href="#DejaVuSans-53"/>
     <use xlink:href="#DejaVuSans-69" transform="translate(63.476562 0)"/>
    </g>
   </g>
   <g id="text_12">
    <!-- As -->
    <g transform="translate(527.819318 77.328058) scale(0.09 -0.09)">
     <defs>
      <path id="DejaVuSans-41" d="M 2188 4044 
L 1331 1722 
L 3047 1722 
L 2188 4044 
z
M 1831 4666 
L 2547 4666 
L 4325 0 
L 3669 0 
L 3244 1197 
L 1141 1197 
L 716 0 
L 50 0 
L 1831 4666 
z
" transform="scale(0.015625)"/>
      <path id="DejaVuSans-73" d="M 2834 3397 
L 2834 2853 
Q 2591 2978 2328 3040 
Q 2066 3103 1784 3103 
Q 1356 3103 1142 2972 
Q 928 2841 928 2578 
Q 928 2378 1081 2264 
Q 1234 2150 1697 2047 
L 1894 2003 
Q 2506 1872 2764 1633 
Q 3022 1394 3022 966 
Q 3022 478 2636 193 
Q 2250 -91 1575 -91 
Q 1294 -91 989 -36 
Q 684 19 347 128 
L 347 722 
Q 666 556 975 473 
Q 1284 391 1588 391 
Q 1994 391 2212 530 
Q 2431 669 2431 922 
Q 2431 1156 2273 1281 
Q 2116 1406 1581 1522 
L 1381 1569 
Q 847 1681 609 1914 
Q 372 2147 372 2553 
Q 372 3047 722 3315 
Q 1072 3584 1716 3584 
Q 2034 3584 2315 3537 
Q 2597 3491 2834 3397 
z
" transform="scale(0.015625)"/>
     </defs>
     <use xlink:href="#DejaVuSans-41"/>
     <use xlink:href="#DejaVuSans-73" transform="translate(68.408203 0)"/>
    </g>
   </g>
   <g id="text_13">
    <!-- Si -->
    <g transform="translate(573.980715 77.328058) scale(0.09 -0.09)">
     <use xlink:href="#DejaVuSans-53"/>
     <use xlink:href="#DejaVuSans-69" transform="translate(63.476562 0)"/>
    </g>
   </g>
   <g id="text_14">
    <!-- Si -->
    <g transform="translate(618.826565 77.328058) scale(0.09 -0.09)">
     <use xlink:href="#DejaVuSans-53"/>
     <use xlink:href="#DejaVuSans-69" transform="translate(63.476562 0)"/>
    </g>
   </g>
   <g id="text_15">
    <!-- Si -->
    <g transform="translate(663.672414 77.328058) scale(0.09 -0.09)">
     <use xlink:href="#DejaVuSans-53"/>
     <use xlink:href="#DejaVuSans-69" transform="translate(63.476562 0)"/>
    </g>
   </g>
   <g id="text_16">
    <!-- cristallo drogato -->
    <g transform="translate(481.821974 51.6) scale(0.11 -0.11)">
     <use xlink:href="#DejaVuSans-Bold-63"/>
     <use xlink:href="#DejaVuSans-Bold-72" transform="translate(59.277344 0)"/>
     <use xlink:href="#DejaVuSans-Bold-69" transform="translate(108.59375 0)"/>
     <use xlink:href="#DejaVuSans-Bold-73" transform="translate(142.871094 0)"/>
     <use xlink:href="#DejaVuSans-Bold-74" transform="translate(202.392578 0)"/>
     <use xlink:href="#DejaVuSans-Bold-61" transform="translate(250.195312 0)"/>
     <use xlink:href="#DejaVuSans-Bold-6c" transform="translate(317.675781 0)"/>
     <use xlink:href="#DejaVuSans-Bold-6c" transform="translate(351.953125 0)"/>
     <use xlink:href="#DejaVuSans-Bold-6f" transform="translate(386.230469 0)"/>
     <use xlink:href="#DejaVuSans-Bold-20" transform="translate(454.931641 0)"/>
     <use xlink:href="#DejaVuSans-Bold-64" transform="translate(489.746094 0)"/>
     <use xlink:href="#DejaVuSans-Bold-72" transform="translate(561.328125 0)"/>
     <use xlink:href="#DejaVuSans-Bold-6f" transform="translate(610.644531 0)"/>
     <use xlink:href="#DejaVuSans-Bold-67" transform="translate(679.345703 0)"/>
     <use xlink:href="#DejaVuSans-Bold-61" transform="translate(750.927734 0)"/>
     <use xlink:href="#DejaVuSans-Bold-74" transform="translate(818.408203 0)"/>
     <use xlink:href="#DejaVuSans-Bold-6f" transform="translate(866.210938 0)"/>
    </g>
   </g>
  </g>
  <g id="axes_3">
   <g id="matplotlib.axis_5"/>
   <g id="matplotlib.axis_6"/>
   <g id="line2d_3">
    <path d="M 7.174768 316.50375 
L 19.972488 316.50375 
L 19.972488 380.74275 
L 20.053231 380.74275 
L 34.748405 380.74275 
L 34.748405 316.50375 
L 34.829148 316.50375 
L 64.865438 316.50375 
L 64.865438 380.74275 
L 64.946181 380.74275 
L 79.641355 380.74275 
L 79.641355 316.50375 
L 79.722098 316.50375 
L 109.677645 316.50375 
L 109.677645 380.74275 
L 109.758388 380.74275 
L 124.453562 380.74275 
L 124.453562 316.50375 
L 124.534305 316.50375 
L 154.489852 316.50375 
L 154.489852 380.74275 
L 154.570595 380.74275 
L 169.346512 380.74275 
L 169.346512 316.50375 
L 169.427254 316.50375 
L 199.382802 316.50375 
L 199.382802 380.74275 
L 199.463544 380.74275 
L 214.158719 380.74275 
L 214.158719 316.50375 
L 214.239461 316.50375 
L 244.195009 316.50375 
L 244.195009 380.74275 
L 244.275751 380.74275 
L 258.970926 380.74275 
L 258.970926 316.50375 
L 259.051668 316.50375 
L 289.087958 316.50375 
L 289.087958 380.74275 
L 289.168701 380.74275 
L 303.863875 380.74275 
L 303.863875 316.50375 
L 303.944618 316.50375 
L 316.661596 316.50375 
L 316.661596 316.50375 
" clip-path="url(#pef92c139af)" style="fill: none; stroke: #1f77b4; stroke-width: 1.8; stroke-linecap: square"/>
   </g>
   <g id="text_17">
    <!-- potenziale periodico del silicio -->
    <g transform="translate(82.658768 272.1) scale(0.105 -0.105)">
     <defs>
      <path id="DejaVuSans-70" d="M 1159 525 
L 1159 -1331 
L 581 -1331 
L 581 3500 
L 1159 3500 
L 1159 2969 
Q 1341 3281 1617 3432 
Q 1894 3584 2278 3584 
Q 2916 3584 3314 3078 
Q 3713 2572 3713 1747 
Q 3713 922 3314 415 
Q 2916 -91 2278 -91 
Q 1894 -91 1617 61 
Q 1341 213 1159 525 
z
M 3116 1747 
Q 3116 2381 2855 2742 
Q 2594 3103 2138 3103 
Q 1681 3103 1420 2742 
Q 1159 2381 1159 1747 
Q 1159 1113 1420 752 
Q 1681 391 2138 391 
Q 2594 391 2855 752 
Q 3116 1113 3116 1747 
z
" transform="scale(0.015625)"/>
      <path id="DejaVuSans-6f" d="M 1959 3097 
Q 1497 3097 1228 2736 
Q 959 2375 959 1747 
Q 959 1119 1226 758 
Q 1494 397 1959 397 
Q 2419 397 2687 759 
Q 2956 1122 2956 1747 
Q 2956 2369 2687 2733 
Q 2419 3097 1959 3097 
z
M 1959 3584 
Q 2709 3584 3137 3096 
Q 3566 2609 3566 1747 
Q 3566 888 3137 398 
Q 2709 -91 1959 -91 
Q 1206 -91 779 398 
Q 353 888 353 1747 
Q 353 2609 779 3096 
Q 1206 3584 1959 3584 
z
" transform="scale(0.015625)"/>
      <path id="DejaVuSans-74" d="M 1172 4494 
L 1172 3500 
L 2356 3500 
L 2356 3053 
L 1172 3053 
L 1172 1153 
Q 1172 725 1289 603 
Q 1406 481 1766 481 
L 2356 481 
L 2356 0 
L 1766 0 
Q 1100 0 847 248 
Q 594 497 594 1153 
L 594 3053 
L 172 3053 
L 172 3500 
L 594 3500 
L 594 4494 
L 1172 4494 
z
" transform="scale(0.015625)"/>
      <path id="DejaVuSans-65" d="M 3597 1894 
L 3597 1613 
L 953 1613 
Q 991 1019 1311 708 
Q 1631 397 2203 397 
Q 2534 397 2845 478 
Q 3156 559 3463 722 
L 3463 178 
Q 3153 47 2828 -22 
Q 2503 -91 2169 -91 
Q 1331 -91 842 396 
Q 353 884 353 1716 
Q 353 2575 817 3079 
Q 1281 3584 2069 3584 
Q 2775 3584 3186 3129 
Q 3597 2675 3597 1894 
z
M 3022 2063 
Q 3016 2534 2758 2815 
Q 2500 3097 2075 3097 
Q 1594 3097 1305 2825 
Q 1016 2553 972 2059 
L 3022 2063 
z
" transform="scale(0.015625)"/>
      <path id="DejaVuSans-6e" d="M 3513 2113 
L 3513 0 
L 2938 0 
L 2938 2094 
Q 2938 2591 2744 2837 
Q 2550 3084 2163 3084 
Q 1697 3084 1428 2787 
Q 1159 2491 1159 1978 
L 1159 0 
L 581 0 
L 581 3500 
L 1159 3500 
L 1159 2956 
Q 1366 3272 1645 3428 
Q 1925 3584 2291 3584 
Q 2894 3584 3203 3211 
Q 3513 2838 3513 2113 
z
" transform="scale(0.015625)"/>
      <path id="DejaVuSans-7a" d="M 353 3500 
L 3084 3500 
L 3084 2975 
L 922 459 
L 3084 459 
L 3084 0 
L 275 0 
L 275 525 
L 2438 3041 
L 353 3041 
L 353 3500 
z
" transform="scale(0.015625)"/>
      <path id="DejaVuSans-61" d="M 2194 1759 
Q 1497 1759 1228 1600 
Q 959 1441 959 1056 
Q 959 750 1161 570 
Q 1363 391 1709 391 
Q 2188 391 2477 730 
Q 2766 1069 2766 1631 
L 2766 1759 
L 2194 1759 
z
M 3341 1997 
L 3341 0 
L 2766 0 
L 2766 531 
Q 2569 213 2275 61 
Q 1981 -91 1556 -91 
Q 1019 -91 701 211 
Q 384 513 384 1019 
Q 384 1609 779 1909 
Q 1175 2209 1959 2209 
L 2766 2209 
L 2766 2266 
Q 2766 2663 2505 2880 
Q 2244 3097 1772 3097 
Q 1472 3097 1187 3025 
Q 903 2953 641 2809 
L 641 3341 
Q 956 3463 1253 3523 
Q 1550 3584 1831 3584 
Q 2591 3584 2966 3190 
Q 3341 2797 3341 1997 
z
" transform="scale(0.015625)"/>
      <path id="DejaVuSans-6c" d="M 603 4863 
L 1178 4863 
L 1178 0 
L 603 0 
L 603 4863 
z
" transform="scale(0.015625)"/>
      <path id="DejaVuSans-20" transform="scale(0.015625)"/>
      <path id="DejaVuSans-72" d="M 2631 2963 
Q 2534 3019 2420 3045 
Q 2306 3072 2169 3072 
Q 1681 3072 1420 2755 
Q 1159 2438 1159 1844 
L 1159 0 
L 581 0 
L 581 3500 
L 1159 3500 
L 1159 2956 
Q 1341 3275 1631 3429 
Q 1922 3584 2338 3584 
Q 2397 3584 2469 3576 
Q 2541 3569 2628 3553 
L 2631 2963 
z
" transform="scale(0.015625)"/>
      <path id="DejaVuSans-64" d="M 2906 2969 
L 2906 4863 
L 3481 4863 
L 3481 0 
L 2906 0 
L 2906 525 
Q 2725 213 2448 61 
Q 2172 -91 1784 -91 
Q 1150 -91 751 415 
Q 353 922 353 1747 
Q 353 2572 751 3078 
Q 1150 3584 1784 3584 
Q 2172 3584 2448 3432 
Q 2725 3281 2906 2969 
z
M 947 1747 
Q 947 1113 1208 752 
Q 1469 391 1925 391 
Q 2381 391 2643 752 
Q 2906 1113 2906 1747 
Q 2906 2381 2643 2742 
Q 2381 3103 1925 3103 
Q 1469 3103 1208 2742 
Q 947 2381 947 1747 
z
" transform="scale(0.015625)"/>
      <path id="DejaVuSans-63" d="M 3122 3366 
L 3122 2828 
Q 2878 2963 2633 3030 
Q 2388 3097 2138 3097 
Q 1578 3097 1268 2742 
Q 959 2388 959 1747 
Q 959 1106 1268 751 
Q 1578 397 2138 397 
Q 2388 397 2633 464 
Q 2878 531 3122 666 
L 3122 134 
Q 2881 22 2623 -34 
Q 2366 -91 2075 -91 
Q 1284 -91 818 406 
Q 353 903 353 1747 
Q 353 2603 823 3093 
Q 1294 3584 2113 3584 
Q 2378 3584 2631 3529 
Q 2884 3475 3122 3366 
z
" transform="scale(0.015625)"/>
     </defs>
     <use xlink:href="#DejaVuSans-70"/>
     <use xlink:href="#DejaVuSans-6f" transform="translate(63.476562 0)"/>
     <use xlink:href="#DejaVuSans-74" transform="translate(124.658203 0)"/>
     <use xlink:href="#DejaVuSans-65" transform="translate(163.867188 0)"/>
     <use xlink:href="#DejaVuSans-6e" transform="translate(225.390625 0)"/>
     <use xlink:href="#DejaVuSans-7a" transform="translate(288.769531 0)"/>
     <use xlink:href="#DejaVuSans-69" transform="translate(341.259766 0)"/>
     <use xlink:href="#DejaVuSans-61" transform="translate(369.042969 0)"/>
     <use xlink:href="#DejaVuSans-6c" transform="translate(430.322266 0)"/>
     <use xlink:href="#DejaVuSans-65" transform="translate(458.105469 0)"/>
     <use xlink:href="#DejaVuSans-20" transform="translate(519.628906 0)"/>
     <use xlink:href="#DejaVuSans-70" transform="translate(551.416016 0)"/>
     <use xlink:href="#DejaVuSans-65" transform="translate(614.892578 0)"/>
     <use xlink:href="#DejaVuSans-72" transform="translate(676.416016 0)"/>
     <use xlink:href="#DejaVuSans-69" transform="translate(717.529297 0)"/>
     <use xlink:href="#DejaVuSans-6f" transform="translate(745.3125 0)"/>
     <use xlink:href="#DejaVuSans-64" transform="translate(806.494141 0)"/>
     <use xlink:href="#DejaVuSans-69" transform="translate(869.970703 0)"/>
     <use xlink:href="#DejaVuSans-63" transform="translate(897.753906 0)"/>
     <use xlink:href="#DejaVuSans-6f" transform="translate(952.734375 0)"/>
     <use xlink:href="#DejaVuSans-20" transform="translate(1013.916016 0)"/>
     <use xlink:href="#DejaVuSans-64" transform="translate(1045.703125 0)"/>
     <use xlink:href="#DejaVuSans-65" transform="translate(1109.179688 0)"/>
     <use xlink:href="#DejaVuSans-6c" transform="translate(1170.703125 0)"/>
     <use xlink:href="#DejaVuSans-20" transform="translate(1198.486328 0)"/>
     <use xlink:href="#DejaVuSans-73" transform="translate(1230.273438 0)"/>
     <use xlink:href="#DejaVuSans-69" transform="translate(1282.373047 0)"/>
     <use xlink:href="#DejaVuSans-6c" transform="translate(1310.15625 0)"/>
     <use xlink:href="#DejaVuSans-69" transform="translate(1337.939453 0)"/>
     <use xlink:href="#DejaVuSans-63" transform="translate(1365.722656 0)"/>
     <use xlink:href="#DejaVuSans-69" transform="translate(1420.703125 0)"/>
     <use xlink:href="#DejaVuSans-6f" transform="translate(1448.486328 0)"/>
    </g>
   </g>
  </g>
  <g id="axes_4">
   <g id="matplotlib.axis_7"/>
   <g id="matplotlib.axis_8"/>
   <g id="line2d_4">
    <path d="M 378.498404 326.61 
L 523.79492 326.61 
L 523.79492 388.35 
L 523.875663 388.35 
L 542.688716 388.35 
L 542.688716 326.61 
L 542.769459 326.61 
L 687.985232 326.61 
L 687.985232 326.61 
" clip-path="url(#pee25bcc826)" style="fill: none; stroke: #1f77b4; stroke-width: 1.8; stroke-linecap: square"/>
   </g>
   <g id="text_18">
    <!-- perturbazione del donatore -->
    <g transform="translate(461.45299 272.1) scale(0.105 -0.105)">
     <defs>
      <path id="DejaVuSans-75" d="M 544 1381 
L 544 3500 
L 1119 3500 
L 1119 1403 
Q 1119 906 1312 657 
Q 1506 409 1894 409 
Q 2359 409 2629 706 
Q 2900 1003 2900 1516 
L 2900 3500 
L 3475 3500 
L 3475 0 
L 2900 0 
L 2900 538 
Q 2691 219 2414 64 
Q 2138 -91 1772 -91 
Q 1169 -91 856 284 
Q 544 659 544 1381 
z
M 1991 3584 
L 1991 3584 
z
" transform="scale(0.015625)"/>
      <path id="DejaVuSans-62" d="M 3116 1747 
Q 3116 2381 2855 2742 
Q 2594 3103 2138 3103 
Q 1681 3103 1420 2742 
Q 1159 2381 1159 1747 
Q 1159 1113 1420 752 
Q 1681 391 2138 391 
Q 2594 391 2855 752 
Q 3116 1113 3116 1747 
z
M 1159 2969 
Q 1341 3281 1617 3432 
Q 1894 3584 2278 3584 
Q 2916 3584 3314 3078 
Q 3713 2572 3713 1747 
Q 3713 922 3314 415 
Q 2916 -91 2278 -91 
Q 1894 -91 1617 61 
Q 1341 213 1159 525 
L 1159 0 
L 581 0 
L 581 4863 
L 1159 4863 
L 1159 2969 
z
" transform="scale(0.015625)"/>
     </defs>
     <use xlink:href="#DejaVuSans-70"/>
     <use xlink:href="#DejaVuSans-65" transform="translate(63.476562 0)"/>
     <use xlink:href="#DejaVuSans-72" transform="translate(125 0)"/>
     <use xlink:href="#DejaVuSans-74" transform="translate(166.113281 0)"/>
     <use xlink:href="#DejaVuSans-75" transform="translate(205.322266 0)"/>
     <use xlink:href="#DejaVuSans-72" transform="translate(268.701172 0)"/>
     <use xlink:href="#DejaVuSans-62" transform="translate(309.814453 0)"/>
     <use xlink:href="#DejaVuSans-61" transform="translate(373.291016 0)"/>
     <use xlink:href="#DejaVuSans-7a" transform="translate(434.570312 0)"/>
     <use xlink:href="#DejaVuSans-69" transform="translate(487.060547 0)"/>
     <use xlink:href="#DejaVuSans-6f" transform="translate(514.84375 0)"/>
     <use xlink:href="#DejaVuSans-6e" transform="translate(576.025391 0)"/>
     <use xlink:href="#DejaVuSans-65" transform="translate(639.404297 0)"/>
     <use xlink:href="#DejaVuSans-20" transform="translate(700.927734 0)"/>
     <use xlink:href="#DejaVuSans-64" transform="translate(732.714844 0)"/>
     <use xlink:href="#DejaVuSans-65" transform="translate(796.191406 0)"/>
     <use xlink:href="#DejaVuSans-6c" transform="translate(857.714844 0)"/>
     <use xlink:href="#DejaVuSans-20" transform="translate(885.498047 0)"/>
     <use xlink:href="#DejaVuSans-64" transform="translate(917.285156 0)"/>
     <use xlink:href="#DejaVuSans-6f" transform="translate(980.761719 0)"/>
     <use xlink:href="#DejaVuSans-6e" transform="translate(1041.943359 0)"/>
     <use xlink:href="#DejaVuSans-61" transform="translate(1105.322266 0)"/>
     <use xlink:href="#DejaVuSans-74" transform="translate(1166.601562 0)"/>
     <use xlink:href="#DejaVuSans-6f" transform="translate(1205.810547 0)"/>
     <use xlink:href="#DejaVuSans-72" transform="translate(1266.992188 0)"/>
     <use xlink:href="#DejaVuSans-65" transform="translate(1305.855469 0)"/>
    </g>
   </g>
  </g>
  <g id="text_19">
   <!-- = -->
   <g transform="translate(328.220313 163.91875) scale(0.2 -0.2)">
    <defs>
     <path id="DejaVuSans-3d" d="M 678 2906 
L 4684 2906 
L 4684 2381 
L 678 2381 
L 678 2906 
z
M 678 1631 
L 4684 1631 
L 4684 1100 
L 678 1100 
L 678 1631 
z
" transform="scale(0.015625)"/>
    </defs>
    <use xlink:href="#DejaVuSans-3d"/>
   </g>
  </g>
  <g id="text_20">
   <!-- + -->
   <g transform="translate(328.220313 368.03875) scale(0.2 -0.2)">
    <defs>
     <path id="DejaVuSans-2b" d="M 2944 4013 
L 2944 2272 
L 4684 2272 
L 4684 1741 
L 2944 1741 
L 2944 0 
L 2419 0 
L 2419 1741 
L 678 1741 
L 678 2272 
L 2419 2272 
L 2419 4013 
L 2944 4013 
z
" transform="scale(0.015625)"/>
    </defs>
    <use xlink:href="#DejaVuSans-2b"/>
   </g>
  </g>
  <g id="text_21">
   <!-- Effetto del drogaggio n sul potenziale cristallino del silicio -->
   <g transform="translate(89.213672 18.597656) scale(0.15 -0.15)">
    <defs>
     <path id="DejaVuSans-Bold-45" d="M 588 4666 
L 3834 4666 
L 3834 3756 
L 1791 3756 
L 1791 2888 
L 3713 2888 
L 3713 1978 
L 1791 1978 
L 1791 909 
L 3903 909 
L 3903 0 
L 588 0 
L 588 4666 
z
" transform="scale(0.015625)"/>
     <path id="DejaVuSans-Bold-66" d="M 2841 4863 
L 2841 4128 
L 2222 4128 
Q 1984 4128 1890 4042 
Q 1797 3956 1797 3744 
L 1797 3500 
L 2753 3500 
L 2753 2700 
L 1797 2700 
L 1797 0 
L 678 0 
L 678 2700 
L 122 2700 
L 122 3500 
L 678 3500 
L 678 3744 
Q 678 4316 997 4589 
Q 1316 4863 1984 4863 
L 2841 4863 
z
" transform="scale(0.015625)"/>
     <path id="DejaVuSans-Bold-65" d="M 4031 1759 
L 4031 1441 
L 1416 1441 
Q 1456 1047 1700 850 
Q 1944 653 2381 653 
Q 2734 653 3104 758 
Q 3475 863 3866 1075 
L 3866 213 
Q 3469 63 3072 -14 
Q 2675 -91 2278 -91 
Q 1328 -91 801 392 
Q 275 875 275 1747 
Q 275 2603 792 3093 
Q 1309 3584 2216 3584 
Q 3041 3584 3536 3087 
Q 4031 2591 4031 1759 
z
M 2881 2131 
Q 2881 2450 2695 2645 
Q 2509 2841 2209 2841 
Q 1884 2841 1681 2658 
Q 1478 2475 1428 2131 
L 2881 2131 
z
" transform="scale(0.015625)"/>
     <path id="DejaVuSans-Bold-75" d="M 500 1363 
L 500 3500 
L 1625 3500 
L 1625 3150 
Q 1625 2866 1622 2436 
Q 1619 2006 1619 1863 
Q 1619 1441 1641 1255 
Q 1663 1069 1716 984 
Q 1784 875 1895 815 
Q 2006 756 2150 756 
Q 2500 756 2700 1025 
Q 2900 1294 2900 1772 
L 2900 3500 
L 4019 3500 
L 4019 0 
L 2900 0 
L 2900 506 
Q 2647 200 2364 54 
Q 2081 -91 1741 -91 
Q 1134 -91 817 281 
Q 500 653 500 1363 
z
" transform="scale(0.015625)"/>
     <path id="DejaVuSans-Bold-70" d="M 1656 506 
L 1656 -1331 
L 538 -1331 
L 538 3500 
L 1656 3500 
L 1656 2988 
Q 1888 3294 2169 3439 
Q 2450 3584 2816 3584 
Q 3463 3584 3878 3070 
Q 4294 2556 4294 1747 
Q 4294 938 3878 423 
Q 3463 -91 2816 -91 
Q 2450 -91 2169 54 
Q 1888 200 1656 506 
z
M 2400 2772 
Q 2041 2772 1848 2508 
Q 1656 2244 1656 1747 
Q 1656 1250 1848 986 
Q 2041 722 2400 722 
Q 2759 722 2948 984 
Q 3138 1247 3138 1747 
Q 3138 2247 2948 2509 
Q 2759 2772 2400 2772 
z
" transform="scale(0.015625)"/>
     <path id="DejaVuSans-Bold-7a" d="M 366 3500 
L 3419 3500 
L 3419 2719 
L 1575 800 
L 3419 800 
L 3419 0 
L 288 0 
L 288 781 
L 2131 2700 
L 366 2700 
L 366 3500 
z
" transform="scale(0.015625)"/>
    </defs>
    <use xlink:href="#DejaVuSans-Bold-45"/>
    <use xlink:href="#DejaVuSans-Bold-66" transform="translate(68.310547 0)"/>
    <use xlink:href="#DejaVuSans-Bold-66" transform="translate(111.816406 0)"/>
    <use xlink:href="#DejaVuSans-Bold-65" transform="translate(155.322266 0)"/>
    <use xlink:href="#DejaVuSans-Bold-74" transform="translate(223.144531 0)"/>
    <use xlink:href="#DejaVuSans-Bold-74" transform="translate(270.947266 0)"/>
    <use xlink:href="#DejaVuSans-Bold-6f" transform="translate(318.75 0)"/>
    <use xlink:href="#DejaVuSans-Bold-20" transform="translate(387.451172 0)"/>
    <use xlink:href="#DejaVuSans-Bold-64" transform="translate(422.265625 0)"/>
    <use xlink:href="#DejaVuSans-Bold-65" transform="translate(493.847656 0)"/>
    <use xlink:href="#DejaVuSans-Bold-6c" transform="translate(561.669922 0)"/>
    <use xlink:href="#DejaVuSans-Bold-20" transform="translate(595.947266 0)"/>
    <use xlink:href="#DejaVuSans-Bold-64" transform="translate(630.761719 0)"/>
    <use xlink:href="#DejaVuSans-Bold-72" transform="translate(702.34375 0)"/>
    <use xlink:href="#DejaVuSans-Bold-6f" transform="translate(751.660156 0)"/>
    <use xlink:href="#DejaVuSans-Bold-67" transform="translate(820.361328 0)"/>
    <use xlink:href="#DejaVuSans-Bold-61" transform="translate(891.943359 0)"/>
    <use xlink:href="#DejaVuSans-Bold-67" transform="translate(959.423828 0)"/>
    <use xlink:href="#DejaVuSans-Bold-67" transform="translate(1031.005859 0)"/>
    <use xlink:href="#DejaVuSans-Bold-69" transform="translate(1102.587891 0)"/>
    <use xlink:href="#DejaVuSans-Bold-6f" transform="translate(1136.865234 0)"/>
    <use xlink:href="#DejaVuSans-Bold-20" transform="translate(1205.566406 0)"/>
    <use xlink:href="#DejaVuSans-Bold-6e" transform="translate(1240.380859 0)"/>
    <use xlink:href="#DejaVuSans-Bold-20" transform="translate(1311.572266 0)"/>
    <use xlink:href="#DejaVuSans-Bold-73" transform="translate(1346.386719 0)"/>
    <use xlink:href="#DejaVuSans-Bold-75" transform="translate(1405.908203 0)"/>
    <use xlink:href="#DejaVuSans-Bold-6c" transform="translate(1477.099609 0)"/>
    <use xlink:href="#DejaVuSans-Bold-20" transform="translate(1511.376953 0)"/>
    <use xlink:href="#DejaVuSans-Bold-70" transform="translate(1546.191406 0)"/>
    <use xlink:href="#DejaVuSans-Bold-6f" transform="translate(1617.773438 0)"/>
    <use xlink:href="#DejaVuSans-Bold-74" transform="translate(1686.474609 0)"/>
    <use xlink:href="#DejaVuSans-Bold-65" transform="translate(1734.277344 0)"/>
    <use xlink:href="#DejaVuSans-Bold-6e" transform="translate(1802.099609 0)"/>
    <use xlink:href="#DejaVuSans-Bold-7a" transform="translate(1873.291016 0)"/>
    <use xlink:href="#DejaVuSans-Bold-69" transform="translate(1931.494141 0)"/>
    <use xlink:href="#DejaVuSans-Bold-61" transform="translate(1965.771484 0)"/>
    <use xlink:href="#DejaVuSans-Bold-6c" transform="translate(2033.251953 0)"/>
    <use xlink:href="#DejaVuSans-Bold-65" transform="translate(2067.529297 0)"/>
    <use xlink:href="#DejaVuSans-Bold-20" transform="translate(2135.351562 0)"/>
    <use xlink:href="#DejaVuSans-Bold-63" transform="translate(2170.166016 0)"/>
    <use xlink:href="#DejaVuSans-Bold-72" transform="translate(2229.443359 0)"/>
    <use xlink:href="#DejaVuSans-Bold-69" transform="translate(2278.759766 0)"/>
    <use xlink:href="#DejaVuSans-Bold-73" transform="translate(2313.037109 0)"/>
    <use xlink:href="#DejaVuSans-Bold-74" transform="translate(2372.558594 0)"/>
    <use xlink:href="#DejaVuSans-Bold-61" transform="translate(2420.361328 0)"/>
    <use xlink:href="#DejaVuSans-Bold-6c" transform="translate(2487.841797 0)"/>
    <use xlink:href="#DejaVuSans-Bold-6c" transform="translate(2522.119141 0)"/>
    <use xlink:href="#DejaVuSans-Bold-69" transform="translate(2556.396484 0)"/>
    <use xlink:href="#DejaVuSans-Bold-6e" transform="translate(2590.673828 0)"/>
    <use xlink:href="#DejaVuSans-Bold-6f" transform="translate(2661.865234 0)"/>
    <use xlink:href="#DejaVuSans-Bold-20" transform="translate(2730.566406 0)"/>
    <use xlink:href="#DejaVuSans-Bold-64" transform="translate(2765.380859 0)"/>
    <use xlink:href="#DejaVuSans-Bold-65" transform="translate(2836.962891 0)"/>
    <use xlink:href="#DejaVuSans-Bold-6c" transform="translate(2904.785156 0)"/>
    <use xlink:href="#DejaVuSans-Bold-20" transform="translate(2939.0625 0)"/>
    <use xlink:href="#DejaVuSans-Bold-73" transform="translate(2973.876953 0)"/>
    <use xlink:href="#DejaVuSans-Bold-69" transform="translate(3033.398438 0)"/>
    <use xlink:href="#DejaVuSans-Bold-6c" transform="translate(3067.675781 0)"/>
    <use xlink:href="#DejaVuSans-Bold-69" transform="translate(3101.953125 0)"/>
    <use xlink:href="#DejaVuSans-Bold-63" transform="translate(3136.230469 0)"/>
    <use xlink:href="#DejaVuSans-Bold-69" transform="translate(3195.507812 0)"/>
    <use xlink:href="#DejaVuSans-Bold-6f" transform="translate(3229.785156 0)"/>
   </g>
  </g>
  <g id="text_22">
   <!-- L'atomo donatore produce una perturbazione attrattiva locale che rende più profonda una delle buche del potenziale periodico. -->
   <g transform="translate(16.875 488.52) scale(0.1 -0.1)">
    <defs>
     <path id="DejaVuSans-4c" d="M 628 4666 
L 1259 4666 
L 1259 531 
L 3531 531 
L 3531 0 
L 628 0 
L 628 4666 
z
" transform="scale(0.015625)"/>
     <path id="DejaVuSans-27" d="M 1147 4666 
L 1147 2931 
L 616 2931 
L 616 4666 
L 1147 4666 
z
" transform="scale(0.015625)"/>
     <path id="DejaVuSans-6d" d="M 3328 2828 
Q 3544 3216 3844 3400 
Q 4144 3584 4550 3584 
Q 5097 3584 5394 3201 
Q 5691 2819 5691 2113 
L 5691 0 
L 5113 0 
L 5113 2094 
Q 5113 2597 4934 2840 
Q 4756 3084 4391 3084 
Q 3944 3084 3684 2787 
Q 3425 2491 3425 1978 
L 3425 0 
L 2847 0 
L 2847 2094 
Q 2847 2600 2669 2842 
Q 2491 3084 2119 3084 
Q 1678 3084 1418 2786 
Q 1159 2488 1159 1978 
L 1159 0 
L 581 0 
L 581 3500 
L 1159 3500 
L 1159 2956 
Q 1356 3278 1631 3431 
Q 1906 3584 2284 3584 
Q 2666 3584 2933 3390 
Q 3200 3197 3328 2828 
z
" transform="scale(0.015625)"/>
     <path id="DejaVuSans-76" d="M 191 3500 
L 800 3500 
L 1894 563 
L 2988 3500 
L 3597 3500 
L 2284 0 
L 1503 0 
L 191 3500 
z
" transform="scale(0.015625)"/>
     <path id="DejaVuSans-68" d="M 3513 2113 
L 3513 0 
L 2938 0 
L 2938 2094 
Q 2938 2591 2744 2837 
Q 2550 3084 2163 3084 
Q 1697 3084 1428 2787 
Q 1159 2491 1159 1978 
L 1159 0 
L 581 0 
L 581 4863 
L 1159 4863 
L 1159 2956 
Q 1366 3272 1645 3428 
Q 1925 3584 2291 3584 
Q 2894 3584 3203 3211 
Q 3513 2838 3513 2113 
z
" transform="scale(0.015625)"/>
     <path id="DejaVuSans-f9" d="M 544 1381 
L 544 3500 
L 1119 3500 
L 1119 1403 
Q 1119 906 1312 657 
Q 1506 409 1894 409 
Q 2359 409 2629 706 
Q 2900 1003 2900 1516 
L 2900 3500 
L 3475 3500 
L 3475 0 
L 2900 0 
L 2900 538 
Q 2691 219 2414 64 
Q 2138 -91 1772 -91 
Q 1169 -91 856 284 
Q 544 659 544 1381 
z
M 1991 3584 
L 1991 3584 
z
M 1531 5119 
L 2412 3950 
L 1934 3950 
L 915 5119 
L 1531 5119 
z
" transform="scale(0.015625)"/>
     <path id="DejaVuSans-66" d="M 2375 4863 
L 2375 4384 
L 1825 4384 
Q 1516 4384 1395 4259 
Q 1275 4134 1275 3809 
L 1275 3500 
L 2222 3500 
L 2222 3053 
L 1275 3053 
L 1275 0 
L 697 0 
L 697 3053 
L 147 3053 
L 147 3500 
L 697 3500 
L 697 3744 
Q 697 4328 969 4595 
Q 1241 4863 1831 4863 
L 2375 4863 
z
" transform="scale(0.015625)"/>
     <path id="DejaVuSans-2e" d="M 684 794 
L 1344 794 
L 1344 0 
L 684 0 
L 684 794 
z
" transform="scale(0.015625)"/>
    </defs>
    <use xlink:href="#DejaVuSans-4c"/>
    <use xlink:href="#DejaVuSans-27" transform="translate(55.712891 0)"/>
    <use xlink:href="#DejaVuSans-61" transform="translate(83.203125 0)"/>
    <use xlink:href="#DejaVuSans-74" transform="translate(144.482422 0)"/>
    <use xlink:href="#DejaVuSans-6f" transform="translate(183.691406 0)"/>
    <use xlink:href="#DejaVuSans-6d" transform="translate(244.873047 0)"/>
    <use xlink:href="#DejaVuSans-6f" transform="translate(342.285156 0)"/>
    <use xlink:href="#DejaVuSans-20" transform="translate(403.466797 0)"/>
    <use xlink:href="#DejaVuSans-64" transform="translate(435.253906 0)"/>
    <use xlink:href="#DejaVuSans-6f" transform="translate(498.730469 0)"/>
    <use xlink:href="#DejaVuSans-6e" transform="translate(559.912109 0)"/>
    <use xlink:href="#DejaVuSans-61" transform="translate(623.291016 0)"/>
    <use xlink:href="#DejaVuSans-74" transform="translate(684.570312 0)"/>
    <use xlink:href="#DejaVuSans-6f" transform="translate(723.779297 0)"/>
    <use xlink:href="#DejaVuSans-72" transform="translate(784.960938 0)"/>
    <use xlink:href="#DejaVuSans-65" transform="translate(823.824219 0)"/>
    <use xlink:href="#DejaVuSans-20" transform="translate(885.347656 0)"/>
    <use xlink:href="#DejaVuSans-70" transform="translate(917.134766 0)"/>
    <use xlink:href="#DejaVuSans-72" transform="translate(980.611328 0)"/>
    <use xlink:href="#DejaVuSans-6f" transform="translate(1019.474609 0)"/>
    <use xlink:href="#DejaVuSans-64" transform="translate(1080.65625 0)"/>
    <use xlink:href="#DejaVuSans-75" transform="translate(1144.132812 0)"/>
    <use xlink:href="#DejaVuSans-63" transform="translate(1207.511719 0)"/>
    <use xlink:href="#DejaVuSans-65" transform="translate(1262.492188 0)"/>
    <use xlink:href="#DejaVuSans-20" transform="translate(1324.015625 0)"/>
    <use xlink:href="#DejaVuSans-75" transform="translate(1355.802734 0)"/>
    <use xlink:href="#DejaVuSans-6e" transform="translate(1419.181641 0)"/>
    <use xlink:href="#DejaVuSans-61" transform="translate(1482.560547 0)"/>
    <use xlink:href="#DejaVuSans-20" transform="translate(1543.839844 0)"/>
    <use xlink:href="#DejaVuSans-70" transform="translate(1575.626953 0)"/>
    <use xlink:href="#DejaVuSans-65" transform="translate(1639.103516 0)"/>
    <use xlink:href="#DejaVuSans-72" transform="translate(1700.626953 0)"/>
    <use xlink:href="#DejaVuSans-74" transform="translate(1741.740234 0)"/>
    <use xlink:href="#DejaVuSans-75" transform="translate(1780.949219 0)"/>
    <use xlink:href="#DejaVuSans-72" transform="translate(1844.328125 0)"/>
    <use xlink:href="#DejaVuSans-62" transform="translate(1885.441406 0)"/>
    <use xlink:href="#DejaVuSans-61" transform="translate(1948.917969 0)"/>
    <use xlink:href="#DejaVuSans-7a" transform="translate(2010.197266 0)"/>
    <use xlink:href="#DejaVuSans-69" transform="translate(2062.6875 0)"/>
    <use xlink:href="#DejaVuSans-6f" transform="translate(2090.470703 0)"/>
    <use xlink:href="#DejaVuSans-6e" transform="translate(2151.652344 0)"/>
    <use xlink:href="#DejaVuSans-65" transform="translate(2215.03125 0)"/>
    <use xlink:href="#DejaVuSans-20" transform="translate(2276.554688 0)"/>
    <use xlink:href="#DejaVuSans-61" transform="translate(2308.341797 0)"/>
    <use xlink:href="#DejaVuSans-74" transform="translate(2369.621094 0)"/>
    <use xlink:href="#DejaVuSans-74" transform="translate(2408.830078 0)"/>
    <use xlink:href="#DejaVuSans-72" transform="translate(2448.039062 0)"/>
    <use xlink:href="#DejaVuSans-61" transform="translate(2489.152344 0)"/>
    <use xlink:href="#DejaVuSans-74" transform="translate(2550.431641 0)"/>
    <use xlink:href="#DejaVuSans-74" transform="translate(2589.640625 0)"/>
    <use xlink:href="#DejaVuSans-69" transform="translate(2628.849609 0)"/>
    <use xlink:href="#DejaVuSans-76" transform="translate(2656.632812 0)"/>
    <use xlink:href="#DejaVuSans-61" transform="translate(2715.8125 0)"/>
    <use xlink:href="#DejaVuSans-20" transform="translate(2777.091797 0)"/>
    <use xlink:href="#DejaVuSans-6c" transform="translate(2808.878906 0)"/>
    <use xlink:href="#DejaVuSans-6f" transform="translate(2836.662109 0)"/>
    <use xlink:href="#DejaVuSans-63" transform="translate(2897.84375 0)"/>
    <use xlink:href="#DejaVuSans-61" transform="translate(2952.824219 0)"/>
    <use xlink:href="#DejaVuSans-6c" transform="translate(3014.103516 0)"/>
    <use xlink:href="#DejaVuSans-65" transform="translate(3041.886719 0)"/>
    <use xlink:href="#DejaVuSans-20" transform="translate(3103.410156 0)"/>
    <use xlink:href="#DejaVuSans-63" transform="translate(3135.197266 0)"/>
    <use xlink:href="#DejaVuSans-68" transform="translate(3190.177734 0)"/>
    <use xlink:href="#DejaVuSans-65" transform="translate(3253.556641 0)"/>
    <use xlink:href="#DejaVuSans-20" transform="translate(3315.080078 0)"/>
    <use xlink:href="#DejaVuSans-72" transform="translate(3346.867188 0)"/>
    <use xlink:href="#DejaVuSans-65" transform="translate(3385.730469 0)"/>
    <use xlink:href="#DejaVuSans-6e" transform="translate(3447.253906 0)"/>
    <use xlink:href="#DejaVuSans-64" transform="translate(3510.632812 0)"/>
    <use xlink:href="#DejaVuSans-65" transform="translate(3574.109375 0)"/>
    <use xlink:href="#DejaVuSans-20" transform="translate(3635.632812 0)"/>
    <use xlink:href="#DejaVuSans-70" transform="translate(3667.419922 0)"/>
    <use xlink:href="#DejaVuSans-69" transform="translate(3730.896484 0)"/>
    <use xlink:href="#DejaVuSans-f9" transform="translate(3758.679688 0)"/>
    <use xlink:href="#DejaVuSans-20" transform="translate(3822.058594 0)"/>
    <use xlink:href="#DejaVuSans-70" transform="translate(3853.845703 0)"/>
    <use xlink:href="#DejaVuSans-72" transform="translate(3917.322266 0)"/>
    <use xlink:href="#DejaVuSans-6f" transform="translate(3956.185547 0)"/>
    <use xlink:href="#DejaVuSans-66" transform="translate(4017.367188 0)"/>
    <use xlink:href="#DejaVuSans-6f" transform="translate(4052.572266 0)"/>
    <use xlink:href="#DejaVuSans-6e" transform="translate(4113.753906 0)"/>
    <use xlink:href="#DejaVuSans-64" transform="translate(4177.132812 0)"/>
    <use xlink:href="#DejaVuSans-61" transform="translate(4240.609375 0)"/>
    <use xlink:href="#DejaVuSans-20" transform="translate(4301.888672 0)"/>
    <use xlink:href="#DejaVuSans-75" transform="translate(4333.675781 0)"/>
    <use xlink:href="#DejaVuSans-6e" transform="translate(4397.054688 0)"/>
    <use xlink:href="#DejaVuSans-61" transform="translate(4460.433594 0)"/>
    <use xlink:href="#DejaVuSans-20" transform="translate(4521.712891 0)"/>
    <use xlink:href="#DejaVuSans-64" transform="translate(4553.5 0)"/>
    <use xlink:href="#DejaVuSans-65" transform="translate(4616.976562 0)"/>
    <use xlink:href="#DejaVuSans-6c" transform="translate(4678.5 0)"/>
    <use xlink:href="#DejaVuSans-6c" transform="translate(4706.283203 0)"/>
    <use xlink:href="#DejaVuSans-65" transform="translate(4734.066406 0)"/>
    <use xlink:href="#DejaVuSans-20" transform="translate(4795.589844 0)"/>
    <use xlink:href="#DejaVuSans-62" transform="translate(4827.376953 0)"/>
    <use xlink:href="#DejaVuSans-75" transform="translate(4890.853516 0)"/>
    <use xlink:href="#DejaVuSans-63" transform="translate(4954.232422 0)"/>
    <use xlink:href="#DejaVuSans-68" transform="translate(5009.212891 0)"/>
    <use xlink:href="#DejaVuSans-65" transform="translate(5072.591797 0)"/>
    <use xlink:href="#DejaVuSans-20" transform="translate(5134.115234 0)"/>
    <use xlink:href="#DejaVuSans-64" transform="translate(5165.902344 0)"/>
    <use xlink:href="#DejaVuSans-65" transform="translate(5229.378906 0)"/>
    <use xlink:href="#DejaVuSans-6c" transform="translate(5290.902344 0)"/>
    <use xlink:href="#DejaVuSans-20" transform="translate(5318.685547 0)"/>
    <use xlink:href="#DejaVuSans-70" transform="translate(5350.472656 0)"/>
    <use xlink:href="#DejaVuSans-6f" transform="translate(5413.949219 0)"/>
    <use xlink:href="#DejaVuSans-74" transform="translate(5475.130859 0)"/>
    <use xlink:href="#DejaVuSans-65" transform="translate(5514.339844 0)"/>
    <use xlink:href="#DejaVuSans-6e" transform="translate(5575.863281 0)"/>
    <use xlink:href="#DejaVuSans-7a" transform="translate(5639.242188 0)"/>
    <use xlink:href="#DejaVuSans-69" transform="translate(5691.732422 0)"/>
    <use xlink:href="#DejaVuSans-61" transform="translate(5719.515625 0)"/>
    <use xlink:href="#DejaVuSans-6c" transform="translate(5780.794922 0)"/>
    <use xlink:href="#DejaVuSans-65" transform="translate(5808.578125 0)"/>
    <use xlink:href="#DejaVuSans-20" transform="translate(5870.101562 0)"/>
    <use xlink:href="#DejaVuSans-70" transform="translate(5901.888672 0)"/>
    <use xlink:href="#DejaVuSans-65" transform="translate(5965.365234 0)"/>
    <use xlink:href="#DejaVuSans-72" transform="translate(6026.888672 0)"/>
    <use xlink:href="#DejaVuSans-69" transform="translate(6068.001953 0)"/>
    <use xlink:href="#DejaVuSans-6f" transform="translate(6095.785156 0)"/>
    <use xlink:href="#DejaVuSans-64" transform="translate(6156.966797 0)"/>
    <use xlink:href="#DejaVuSans-69" transform="translate(6220.443359 0)"/>
    <use xlink:href="#DejaVuSans-63" transform="translate(6248.226562 0)"/>
    <use xlink:href="#DejaVuSans-6f" transform="translate(6303.207031 0)"/>
    <use xlink:href="#DejaVuSans-2e" transform="translate(6362.638672 0)"/>
   </g>
  </g>
 </g>
 <defs>
  <clipPath id="p610ab7b19d">
   <rect x="7.2" y="57.6" width="309.436364" height="185.22"/>
  </clipPath>
  <clipPath id="p9cfef70bbd">
   <rect x="378.523636" y="57.6" width="309.436364" height="185.22"/>
  </clipPath>
  <clipPath id="pef92c139af">
   <rect x="7.2" y="278.1" width="309.436364" height="167.58"/>
  </clipPath>
  <clipPath id="pee25bcc826">
   <rect x="378.523636" y="278.1" width="309.436364" height="167.58"/>
  </clipPath>
 </defs>
</svg>
