<?xml version="1.0" encoding="utf-8" standalone="no"?>
<!DOCTYPE svg PUBLIC "-//W3C//DTD SVG 1.1//EN"
  "http://www.w3.org/Graphics/SVG/1.1/DTD/svg11.dtd">
<svg xmlns:xlink="http://www.w3.org/1999/xlink" width="714.349219pt" height="624.735687pt" viewBox="0 0 714.349219 624.735687" xmlns="http://www.w3.org/2000/svg" version="1.1">
 <metadata>
  <rdf:RDF xmlns:dc="http://purl.org/dc/elements/1.1/" xmlns:cc="http://creativecommons.org/ns#" xmlns:rdf="http://www.w3.org/1999/02/22-rdf-syntax-ns#">
   <cc:Work>
    <dc:type rdf:resource="http://purl.org/dc/dcmitype/StillImage"/>
    <dc:date>2026-06-16T09:31:05.394262</dc:date>
    <dc:format>image/svg+xml</dc:format>
    <dc:creator>
     <cc:Agent>
      <dc:title>Matplotlib v3.10.8, https://matplotlib.org/</dc:title>
     </cc:Agent>
    </dc:creator>
   </cc:Work>
  </rdf:RDF>
 </metadata>
 <defs>
  <style type="text/css">*{stroke-linejoin: round; stroke-linecap: butt}</style>
 </defs>
 <g id="figure_1">
  <g id="patch_1">
   <path d="M 0 624.735687 
L 714.349219 624.735687 
L 714.349219 0 
L 0 0 
z
" style="fill: #ffffff"/>
  </g>
  <g id="axes_1">
   <g id="patch_2">
    <path d="M 203.992175 141.13447 
C 206.242351 141.13447 208.40067 140.240465 209.991785 138.64935 
C 211.5829 137.058234 212.476905 134.899916 212.476905 132.649739 
C 212.476905 130.399562 211.5829 128.241244 209.991785 126.650129 
C 208.40067 125.059013 206.242351 124.165009 203.992175 124.165009 
C 201.741998 124.165009 199.583679 125.059013 197.992564 126.650129 
C 196.401449 128.241244 195.507444 130.399562 195.507444 132.649739 
C 195.507444 134.899916 196.401449 137.058234 197.992564 138.64935 
C 199.583679 140.240465 201.741998 141.13447 203.992175 141.13447 
L 203.992175 141.13447 
z
" clip-path="url(#pf383e32ca0)" style="fill: none; stroke: #000000; stroke-width: 1.4; stroke-linejoin: miter"/>
   </g>
   <g id="patch_3">
    <path d="M 267.627653 141.13447 
C 269.87783 141.13447 272.036148 140.240465 273.627263 138.64935 
C 275.218379 137.058234 276.112383 134.899916 276.112383 132.649739 
C 276.112383 130.399562 275.218379 128.241244 273.627263 126.650129 
C 272.036148 125.059013 269.87783 124.165009 267.627653 124.165009 
C 265.377476 124.165009 263.219158 125.059013 261.628042 126.650129 
C 260.036927 128.241244 259.142922 130.399562 259.142922 132.649739 
C 259.142922 134.899916 260.036927 137.058234 261.628042 138.64935 
C 263.219158 140.240465 265.377476 141.13447 267.627653 141.13447 
L 267.627653 141.13447 
z
" clip-path="url(#pf383e32ca0)" style="fill: none; stroke: #000000; stroke-width: 1.4; stroke-linejoin: miter"/>
   </g>
   <g id="patch_4">
    <path d="M 331.263131 141.13447 
C 333.513308 141.13447 335.671626 140.240465 337.262742 138.64935 
C 338.853857 137.058234 339.747862 134.899916 339.747862 132.649739 
C 339.747862 130.399562 338.853857 128.241244 337.262742 126.650129 
C 335.671626 125.059013 333.513308 124.165009 331.263131 124.165009 
C 329.012954 124.165009 326.854636 125.059013 325.263521 126.650129 
C 323.672405 128.241244 322.778401 130.399562 322.778401 132.649739 
C 322.778401 134.899916 323.672405 137.058234 325.263521 138.64935 
C 326.854636 140.240465 329.012954 141.13447 331.263131 141.13447 
L 331.263131 141.13447 
z
" clip-path="url(#pf383e32ca0)" style="fill: none; stroke: #000000; stroke-width: 1.4; stroke-linejoin: miter"/>
   </g>
   <g id="patch_5">
    <path d="M 394.898609 141.13447 
C 397.148786 141.13447 399.307105 140.240465 400.89822 138.64935 
C 402.489335 137.058234 403.38334 134.899916 403.38334 132.649739 
C 403.38334 130.399562 402.489335 128.241244 400.89822 126.650129 
C 399.307105 125.059013 397.148786 124.165009 394.898609 124.165009 
C 392.648433 124.165009 390.490114 125.059013 388.898999 126.650129 
C 387.307884 128.241244 386.413879 130.399562 386.413879 132.649739 
C 386.413879 134.899916 387.307884 137.058234 388.898999 138.64935 
C 390.490114 140.240465 392.648433 141.13447 394.898609 141.13447 
L 394.898609 141.13447 
z
" clip-path="url(#pf383e32ca0)" style="fill: none; stroke: #000000; stroke-width: 1.4; stroke-linejoin: miter"/>
   </g>
   <g id="patch_6">
    <path d="M 458.534088 141.13447 
C 460.784264 141.13447 462.942583 140.240465 464.533698 138.64935 
C 466.124813 137.058234 467.018818 134.899916 467.018818 132.649739 
C 467.018818 130.399562 466.124813 128.241244 464.533698 126.650129 
C 462.942583 125.059013 460.784264 124.165009 458.534088 124.165009 
C 456.283911 124.165009 454.125592 125.059013 452.534477 126.650129 
C 450.943362 128.241244 450.049357 130.399562 450.049357 132.649739 
C 450.049357 134.899916 450.943362 137.058234 452.534477 138.64935 
C 454.125592 140.240465 456.283911 141.13447 458.534088 141.13447 
L 458.534088 141.13447 
z
" clip-path="url(#pf383e32ca0)" style="fill: none; stroke: #000000; stroke-width: 1.4; stroke-linejoin: miter"/>
   </g>
   <g id="patch_7">
    <path d="M 522.169566 141.13447 
C 524.419743 141.13447 526.578061 140.240465 528.169176 138.64935 
C 529.760292 137.058234 530.654296 134.899916 530.654296 132.649739 
C 530.654296 130.399562 529.760292 128.241244 528.169176 126.650129 
C 526.578061 125.059013 524.419743 124.165009 522.169566 124.165009 
C 519.919389 124.165009 517.761071 125.059013 516.169955 126.650129 
C 514.57884 128.241244 513.684835 130.399562 513.684835 132.649739 
C 513.684835 134.899916 514.57884 137.058234 516.169955 138.64935 
C 517.761071 140.240465 519.919389 141.13447 522.169566 141.13447 
L 522.169566 141.13447 
z
" clip-path="url(#pf383e32ca0)" style="fill: none; stroke: #000000; stroke-width: 1.4; stroke-linejoin: miter"/>
   </g>
   <g id="patch_8">
    <path d="M 311.465427 155.275687 
L 375.100905 155.275687 
L 375.100905 110.023791 
L 311.465427 110.023791 
L 311.465427 155.275687 
z
" clip-path="url(#pf383e32ca0)" style="fill: none; stroke-dasharray: 3.33,1.44; stroke-dashoffset: 0; stroke: #000000; stroke-width: 0.9; stroke-linejoin: miter"/>
   </g>
   <g id="line2d_1">
    <path d="M 180.423479 132.649739 
L 545.738262 132.649739 
" clip-path="url(#pf383e32ca0)" style="fill: none; stroke: #1f77b4; stroke-width: 0.8; stroke-linecap: square"/>
   </g>
   <g id="line2d_2">
    <path d="M 203.992175 149.6192 
L 203.992175 115.680278 
" clip-path="url(#pf383e32ca0)" style="fill: none; stroke-dasharray: 0.7,1.155; stroke-dashoffset: 0; stroke: #ff7f0e; stroke-width: 0.7"/>
   </g>
   <g id="line2d_3">
    <path d="M 267.627653 149.6192 
L 267.627653 115.680278 
" clip-path="url(#pf383e32ca0)" style="fill: none; stroke-dasharray: 0.7,1.155; stroke-dashoffset: 0; stroke: #2ca02c; stroke-width: 0.7"/>
   </g>
   <g id="line2d_4">
    <path d="M 331.263131 149.6192 
L 331.263131 115.680278 
" clip-path="url(#pf383e32ca0)" style="fill: none; stroke-dasharray: 0.7,1.155; stroke-dashoffset: 0; stroke: #d62728; stroke-width: 0.7"/>
   </g>
   <g id="line2d_5">
    <path d="M 394.898609 149.6192 
L 394.898609 115.680278 
" clip-path="url(#pf383e32ca0)" style="fill: none; stroke-dasharray: 0.7,1.155; stroke-dashoffset: 0; stroke: #9467bd; stroke-width: 0.7"/>
   </g>
   <g id="line2d_6">
    <path d="M 458.534088 149.6192 
L 458.534088 115.680278 
" clip-path="url(#pf383e32ca0)" style="fill: none; stroke-dasharray: 0.7,1.155; stroke-dashoffset: 0; stroke: #8c564b; stroke-width: 0.7"/>
   </g>
   <g id="line2d_7">
    <path d="M 522.169566 149.6192 
L 522.169566 115.680278 
" clip-path="url(#pf383e32ca0)" style="fill: none; stroke-dasharray: 0.7,1.155; stroke-dashoffset: 0; stroke: #e377c2; stroke-width: 0.7"/>
   </g>
   <g id="patch_9">
    <path d="M 197.509287 112.852035 
Q 212.00572 112.852035 225.048709 112.852035 
" style="fill: none; stroke: #000000; stroke-width: 1.3; stroke-linecap: round"/>
    <path d="M 220.248709 110.452035 
L 225.048709 112.852035 
L 220.248709 115.252035 
z
" style="fill: #1f77b4; stroke: #000000; stroke-width: 1.3; stroke-linecap: round"/>
   </g>
   <g id="patch_10">
    <path d="M 261.144765 112.852035 
Q 275.641198 112.852035 288.684187 112.852035 
" style="fill: none; stroke: #000000; stroke-width: 1.3; stroke-linecap: round"/>
    <path d="M 283.884187 110.452035 
L 288.684187 112.852035 
L 283.884187 115.252035 
z
" style="fill: #1f77b4; stroke: #000000; stroke-width: 1.3; stroke-linecap: round"/>
   </g>
   <g id="patch_11">
    <path d="M 324.780244 112.852035 
Q 339.276677 112.852035 352.319665 112.852035 
" style="fill: none; stroke: #000000; stroke-width: 1.3; stroke-linecap: round"/>
    <path d="M 347.519665 110.452035 
L 352.319665 112.852035 
L 347.519665 115.252035 
z
" style="fill: #1f77b4; stroke: #000000; stroke-width: 1.3; stroke-linecap: round"/>
   </g>
   <g id="patch_12">
    <path d="M 388.415722 112.852035 
Q 402.912155 112.852035 415.955144 112.852035 
" style="fill: none; stroke: #000000; stroke-width: 1.3; stroke-linecap: round"/>
    <path d="M 411.155144 110.452035 
L 415.955144 112.852035 
L 411.155144 115.252035 
z
" style="fill: #1f77b4; stroke: #000000; stroke-width: 1.3; stroke-linecap: round"/>
   </g>
   <g id="patch_13">
    <path d="M 452.0512 112.852035 
Q 466.547633 112.852035 479.590622 112.852035 
" style="fill: none; stroke: #000000; stroke-width: 1.3; stroke-linecap: round"/>
    <path d="M 474.790622 110.452035 
L 479.590622 112.852035 
L 474.790622 115.252035 
z
" style="fill: #1f77b4; stroke: #000000; stroke-width: 1.3; stroke-linecap: round"/>
   </g>
   <g id="patch_14">
    <path d="M 515.686679 112.852035 
Q 530.183111 112.852035 543.2261 112.852035 
" style="fill: none; stroke: #000000; stroke-width: 1.3; stroke-linecap: round"/>
    <path d="M 538.4261 110.452035 
L 543.2261 112.852035 
L 538.4261 115.252035 
z
" style="fill: #1f77b4; stroke: #000000; stroke-width: 1.3; stroke-linecap: round"/>
   </g>
   <g id="text_1">
    <!-- centro zona — oscillazione longitudinale -->
    <g transform="translate(174.766992 92.139667) scale(0.105 -0.105)">
     <defs>
      <path id="DejaVuSans-Bold-63" d="M 3366 3391 
L 3366 2478 
Q 3138 2634 2908 2709 
Q 2678 2784 2431 2784 
Q 1963 2784 1702 2511 
Q 1441 2238 1441 1747 
Q 1441 1256 1702 982 
Q 1963 709 2431 709 
Q 2694 709 2930 787 
Q 3166 866 3366 1019 
L 3366 103 
Q 3103 6 2833 -42 
Q 2563 -91 2291 -91 
Q 1344 -91 809 395 
Q 275 881 275 1747 
Q 275 2613 809 3098 
Q 1344 3584 2291 3584 
Q 2566 3584 2833 3536 
Q 3100 3488 3366 3391 
z
" transform="scale(0.015625)"/>
      <path id="DejaVuSans-Bold-65" d="M 4031 1759 
L 4031 1441 
L 1416 1441 
Q 1456 1047 1700 850 
Q 1944 653 2381 653 
Q 2734 653 3104 758 
Q 3475 863 3866 1075 
L 3866 213 
Q 3469 63 3072 -14 
Q 2675 -91 2278 -91 
Q 1328 -91 801 392 
Q 275 875 275 1747 
Q 275 2603 792 3093 
Q 1309 3584 2216 3584 
Q 3041 3584 3536 3087 
Q 4031 2591 4031 1759 
z
M 2881 2131 
Q 2881 2450 2695 2645 
Q 2509 2841 2209 2841 
Q 1884 2841 1681 2658 
Q 1478 2475 1428 2131 
L 2881 2131 
z
" transform="scale(0.015625)"/>
      <path id="DejaVuSans-Bold-6e" d="M 4056 2131 
L 4056 0 
L 2931 0 
L 2931 347 
L 2931 1631 
Q 2931 2084 2911 2256 
Q 2891 2428 2841 2509 
Q 2775 2619 2662 2680 
Q 2550 2741 2406 2741 
Q 2056 2741 1856 2470 
Q 1656 2200 1656 1722 
L 1656 0 
L 538 0 
L 538 3500 
L 1656 3500 
L 1656 2988 
Q 1909 3294 2193 3439 
Q 2478 3584 2822 3584 
Q 3428 3584 3742 3212 
Q 4056 2841 4056 2131 
z
" transform="scale(0.015625)"/>
      <path id="DejaVuSans-Bold-74" d="M 1759 4494 
L 1759 3500 
L 2913 3500 
L 2913 2700 
L 1759 2700 
L 1759 1216 
Q 1759 972 1856 886 
Q 1953 800 2241 800 
L 2816 800 
L 2816 0 
L 1856 0 
Q 1194 0 917 276 
Q 641 553 641 1216 
L 641 2700 
L 84 2700 
L 84 3500 
L 641 3500 
L 641 4494 
L 1759 4494 
z
" transform="scale(0.015625)"/>
      <path id="DejaVuSans-Bold-72" d="M 3138 2547 
Q 2991 2616 2845 2648 
Q 2700 2681 2553 2681 
Q 2122 2681 1889 2404 
Q 1656 2128 1656 1613 
L 1656 0 
L 538 0 
L 538 3500 
L 1656 3500 
L 1656 2925 
Q 1872 3269 2151 3426 
Q 2431 3584 2822 3584 
Q 2878 3584 2943 3579 
Q 3009 3575 3134 3559 
L 3138 2547 
z
" transform="scale(0.015625)"/>
      <path id="DejaVuSans-Bold-6f" d="M 2203 2784 
Q 1831 2784 1636 2517 
Q 1441 2250 1441 1747 
Q 1441 1244 1636 976 
Q 1831 709 2203 709 
Q 2569 709 2762 976 
Q 2956 1244 2956 1747 
Q 2956 2250 2762 2517 
Q 2569 2784 2203 2784 
z
M 2203 3584 
Q 3106 3584 3614 3096 
Q 4122 2609 4122 1747 
Q 4122 884 3614 396 
Q 3106 -91 2203 -91 
Q 1297 -91 786 396 
Q 275 884 275 1747 
Q 275 2609 786 3096 
Q 1297 3584 2203 3584 
z
" transform="scale(0.015625)"/>
      <path id="DejaVuSans-Bold-20" transform="scale(0.015625)"/>
      <path id="DejaVuSans-Bold-7a" d="M 366 3500 
L 3419 3500 
L 3419 2719 
L 1575 800 
L 3419 800 
L 3419 0 
L 288 0 
L 288 781 
L 2131 2700 
L 366 2700 
L 366 3500 
z
" transform="scale(0.015625)"/>
      <path id="DejaVuSans-Bold-61" d="M 2106 1575 
Q 1756 1575 1579 1456 
Q 1403 1338 1403 1106 
Q 1403 894 1545 773 
Q 1688 653 1941 653 
Q 2256 653 2472 879 
Q 2688 1106 2688 1447 
L 2688 1575 
L 2106 1575 
z
M 3816 1997 
L 3816 0 
L 2688 0 
L 2688 519 
Q 2463 200 2181 54 
Q 1900 -91 1497 -91 
Q 953 -91 614 226 
Q 275 544 275 1050 
Q 275 1666 698 1953 
Q 1122 2241 2028 2241 
L 2688 2241 
L 2688 2328 
Q 2688 2594 2478 2717 
Q 2269 2841 1825 2841 
Q 1466 2841 1156 2769 
Q 847 2697 581 2553 
L 581 3406 
Q 941 3494 1303 3539 
Q 1666 3584 2028 3584 
Q 2975 3584 3395 3211 
Q 3816 2838 3816 1997 
z
" transform="scale(0.015625)"/>
      <path id="DejaVuSans-Bold-2014" d="M 344 2156 
L 6056 2156 
L 6056 1350 
L 344 1350 
L 344 2156 
z
" transform="scale(0.015625)"/>
      <path id="DejaVuSans-Bold-73" d="M 3272 3391 
L 3272 2541 
Q 2913 2691 2578 2766 
Q 2244 2841 1947 2841 
Q 1628 2841 1473 2761 
Q 1319 2681 1319 2516 
Q 1319 2381 1436 2309 
Q 1553 2238 1856 2203 
L 2053 2175 
Q 2913 2066 3209 1816 
Q 3506 1566 3506 1031 
Q 3506 472 3093 190 
Q 2681 -91 1863 -91 
Q 1516 -91 1145 -36 
Q 775 19 384 128 
L 384 978 
Q 719 816 1070 734 
Q 1422 653 1784 653 
Q 2113 653 2278 743 
Q 2444 834 2444 1013 
Q 2444 1163 2330 1236 
Q 2216 1309 1875 1350 
L 1678 1375 
Q 931 1469 631 1722 
Q 331 1975 331 2491 
Q 331 3047 712 3315 
Q 1094 3584 1881 3584 
Q 2191 3584 2531 3537 
Q 2872 3491 3272 3391 
z
" transform="scale(0.015625)"/>
      <path id="DejaVuSans-Bold-69" d="M 538 3500 
L 1656 3500 
L 1656 0 
L 538 0 
L 538 3500 
z
M 538 4863 
L 1656 4863 
L 1656 3950 
L 538 3950 
L 538 4863 
z
" transform="scale(0.015625)"/>
      <path id="DejaVuSans-Bold-6c" d="M 538 4863 
L 1656 4863 
L 1656 0 
L 538 0 
L 538 4863 
z
" transform="scale(0.015625)"/>
      <path id="DejaVuSans-Bold-67" d="M 2919 594 
Q 2688 288 2409 144 
Q 2131 0 1766 0 
Q 1125 0 706 504 
Q 288 1009 288 1791 
Q 288 2575 706 3076 
Q 1125 3578 1766 3578 
Q 2131 3578 2409 3434 
Q 2688 3291 2919 2981 
L 2919 3500 
L 4044 3500 
L 4044 353 
Q 4044 -491 3511 -936 
Q 2978 -1381 1966 -1381 
Q 1638 -1381 1331 -1331 
Q 1025 -1281 716 -1178 
L 716 -306 
Q 1009 -475 1290 -558 
Q 1572 -641 1856 -641 
Q 2406 -641 2662 -400 
Q 2919 -159 2919 353 
L 2919 594 
z
M 2181 2772 
Q 1834 2772 1640 2515 
Q 1447 2259 1447 1791 
Q 1447 1309 1634 1061 
Q 1822 813 2181 813 
Q 2531 813 2725 1069 
Q 2919 1325 2919 1791 
Q 2919 2259 2725 2515 
Q 2531 2772 2181 2772 
z
" transform="scale(0.015625)"/>
      <path id="DejaVuSans-Bold-75" d="M 500 1363 
L 500 3500 
L 1625 3500 
L 1625 3150 
Q 1625 2866 1622 2436 
Q 1619 2006 1619 1863 
Q 1619 1441 1641 1255 
Q 1663 1069 1716 984 
Q 1784 875 1895 815 
Q 2006 756 2150 756 
Q 2500 756 2700 1025 
Q 2900 1294 2900 1772 
L 2900 3500 
L 4019 3500 
L 4019 0 
L 2900 0 
L 2900 506 
Q 2647 200 2364 54 
Q 2081 -91 1741 -91 
Q 1134 -91 817 281 
Q 500 653 500 1363 
z
" transform="scale(0.015625)"/>
      <path id="DejaVuSans-Bold-64" d="M 2919 2988 
L 2919 4863 
L 4044 4863 
L 4044 0 
L 2919 0 
L 2919 506 
Q 2688 197 2409 53 
Q 2131 -91 1766 -91 
Q 1119 -91 703 423 
Q 288 938 288 1747 
Q 288 2556 703 3070 
Q 1119 3584 1766 3584 
Q 2128 3584 2408 3439 
Q 2688 3294 2919 2988 
z
M 2181 722 
Q 2541 722 2730 984 
Q 2919 1247 2919 1747 
Q 2919 2247 2730 2509 
Q 2541 2772 2181 2772 
Q 1825 2772 1636 2509 
Q 1447 2247 1447 1747 
Q 1447 1247 1636 984 
Q 1825 722 2181 722 
z
" transform="scale(0.015625)"/>
     </defs>
     <use xlink:href="#DejaVuSans-Bold-63"/>
     <use xlink:href="#DejaVuSans-Bold-65" transform="translate(59.277344 0)"/>
     <use xlink:href="#DejaVuSans-Bold-6e" transform="translate(127.099609 0)"/>
     <use xlink:href="#DejaVuSans-Bold-74" transform="translate(198.291016 0)"/>
     <use xlink:href="#DejaVuSans-Bold-72" transform="translate(246.09375 0)"/>
     <use xlink:href="#DejaVuSans-Bold-6f" transform="translate(295.410156 0)"/>
     <use xlink:href="#DejaVuSans-Bold-20" transform="translate(364.111328 0)"/>
     <use xlink:href="#DejaVuSans-Bold-7a" transform="translate(398.925781 0)"/>
     <use xlink:href="#DejaVuSans-Bold-6f" transform="translate(457.128906 0)"/>
     <use xlink:href="#DejaVuSans-Bold-6e" transform="translate(525.830078 0)"/>
     <use xlink:href="#DejaVuSans-Bold-61" transform="translate(597.021484 0)"/>
     <use xlink:href="#DejaVuSans-Bold-20" transform="translate(664.501953 0)"/>
     <use xlink:href="#DejaVuSans-Bold-2014" transform="translate(699.316406 0)"/>
     <use xlink:href="#DejaVuSans-Bold-20" transform="translate(799.316406 0)"/>
     <use xlink:href="#DejaVuSans-Bold-6f" transform="translate(834.130859 0)"/>
     <use xlink:href="#DejaVuSans-Bold-73" transform="translate(902.832031 0)"/>
     <use xlink:href="#DejaVuSans-Bold-63" transform="translate(962.353516 0)"/>
     <use xlink:href="#DejaVuSans-Bold-69" transform="translate(1021.630859 0)"/>
     <use xlink:href="#DejaVuSans-Bold-6c" transform="translate(1055.908203 0)"/>
     <use xlink:href="#DejaVuSans-Bold-6c" transform="translate(1090.185547 0)"/>
     <use xlink:href="#DejaVuSans-Bold-61" transform="translate(1124.462891 0)"/>
     <use xlink:href="#DejaVuSans-Bold-7a" transform="translate(1191.943359 0)"/>
     <use xlink:href="#DejaVuSans-Bold-69" transform="translate(1250.146484 0)"/>
     <use xlink:href="#DejaVuSans-Bold-6f" transform="translate(1284.423828 0)"/>
     <use xlink:href="#DejaVuSans-Bold-6e" transform="translate(1353.125 0)"/>
     <use xlink:href="#DejaVuSans-Bold-65" transform="translate(1424.316406 0)"/>
     <use xlink:href="#DejaVuSans-Bold-20" transform="translate(1492.138672 0)"/>
     <use xlink:href="#DejaVuSans-Bold-6c" transform="translate(1526.953125 0)"/>
     <use xlink:href="#DejaVuSans-Bold-6f" transform="translate(1561.230469 0)"/>
     <use xlink:href="#DejaVuSans-Bold-6e" transform="translate(1629.931641 0)"/>
     <use xlink:href="#DejaVuSans-Bold-67" transform="translate(1701.123047 0)"/>
     <use xlink:href="#DejaVuSans-Bold-69" transform="translate(1772.705078 0)"/>
     <use xlink:href="#DejaVuSans-Bold-74" transform="translate(1806.982422 0)"/>
     <use xlink:href="#DejaVuSans-Bold-75" transform="translate(1854.785156 0)"/>
     <use xlink:href="#DejaVuSans-Bold-64" transform="translate(1925.976562 0)"/>
     <use xlink:href="#DejaVuSans-Bold-69" transform="translate(1997.558594 0)"/>
     <use xlink:href="#DejaVuSans-Bold-6e" transform="translate(2031.835938 0)"/>
     <use xlink:href="#DejaVuSans-Bold-61" transform="translate(2103.027344 0)"/>
     <use xlink:href="#DejaVuSans-Bold-6c" transform="translate(2170.507812 0)"/>
     <use xlink:href="#DejaVuSans-Bold-65" transform="translate(2204.785156 0)"/>
    </g>
   </g>
   <g id="text_2">
    <!-- cella elementare -->
    <g transform="translate(306.123916 168.474157) scale(0.088 -0.088)">
     <defs>
      <path id="DejaVuSans-63" d="M 3122 3366 
L 3122 2828 
Q 2878 2963 2633 3030 
Q 2388 3097 2138 3097 
Q 1578 3097 1268 2742 
Q 959 2388 959 1747 
Q 959 1106 1268 751 
Q 1578 397 2138 397 
Q 2388 397 2633 464 
Q 2878 531 3122 666 
L 3122 134 
Q 2881 22 2623 -34 
Q 2366 -91 2075 -91 
Q 1284 -91 818 406 
Q 353 903 353 1747 
Q 353 2603 823 3093 
Q 1294 3584 2113 3584 
Q 2378 3584 2631 3529 
Q 2884 3475 3122 3366 
z
" transform="scale(0.015625)"/>
      <path id="DejaVuSans-65" d="M 3597 1894 
L 3597 1613 
L 953 1613 
Q 991 1019 1311 708 
Q 1631 397 2203 397 
Q 2534 397 2845 478 
Q 3156 559 3463 722 
L 3463 178 
Q 3153 47 2828 -22 
Q 2503 -91 2169 -91 
Q 1331 -91 842 396 
Q 353 884 353 1716 
Q 353 2575 817 3079 
Q 1281 3584 2069 3584 
Q 2775 3584 3186 3129 
Q 3597 2675 3597 1894 
z
M 3022 2063 
Q 3016 2534 2758 2815 
Q 2500 3097 2075 3097 
Q 1594 3097 1305 2825 
Q 1016 2553 972 2059 
L 3022 2063 
z
" transform="scale(0.015625)"/>
      <path id="DejaVuSans-6c" d="M 603 4863 
L 1178 4863 
L 1178 0 
L 603 0 
L 603 4863 
z
" transform="scale(0.015625)"/>
      <path id="DejaVuSans-61" d="M 2194 1759 
Q 1497 1759 1228 1600 
Q 959 1441 959 1056 
Q 959 750 1161 570 
Q 1363 391 1709 391 
Q 2188 391 2477 730 
Q 2766 1069 2766 1631 
L 2766 1759 
L 2194 1759 
z
M 3341 1997 
L 3341 0 
L 2766 0 
L 2766 531 
Q 2569 213 2275 61 
Q 1981 -91 1556 -91 
Q 1019 -91 701 211 
Q 384 513 384 1019 
Q 384 1609 779 1909 
Q 1175 2209 1959 2209 
L 2766 2209 
L 2766 2266 
Q 2766 2663 2505 2880 
Q 2244 3097 1772 3097 
Q 1472 3097 1187 3025 
Q 903 2953 641 2809 
L 641 3341 
Q 956 3463 1253 3523 
Q 1550 3584 1831 3584 
Q 2591 3584 2966 3190 
Q 3341 2797 3341 1997 
z
" transform="scale(0.015625)"/>
      <path id="DejaVuSans-20" transform="scale(0.015625)"/>
      <path id="DejaVuSans-6d" d="M 3328 2828 
Q 3544 3216 3844 3400 
Q 4144 3584 4550 3584 
Q 5097 3584 5394 3201 
Q 5691 2819 5691 2113 
L 5691 0 
L 5113 0 
L 5113 2094 
Q 5113 2597 4934 2840 
Q 4756 3084 4391 3084 
Q 3944 3084 3684 2787 
Q 3425 2491 3425 1978 
L 3425 0 
L 2847 0 
L 2847 2094 
Q 2847 2600 2669 2842 
Q 2491 3084 2119 3084 
Q 1678 3084 1418 2786 
Q 1159 2488 1159 1978 
L 1159 0 
L 581 0 
L 581 3500 
L 1159 3500 
L 1159 2956 
Q 1356 3278 1631 3431 
Q 1906 3584 2284 3584 
Q 2666 3584 2933 3390 
Q 3200 3197 3328 2828 
z
" transform="scale(0.015625)"/>
      <path id="DejaVuSans-6e" d="M 3513 2113 
L 3513 0 
L 2938 0 
L 2938 2094 
Q 2938 2591 2744 2837 
Q 2550 3084 2163 3084 
Q 1697 3084 1428 2787 
Q 1159 2491 1159 1978 
L 1159 0 
L 581 0 
L 581 3500 
L 1159 3500 
L 1159 2956 
Q 1366 3272 1645 3428 
Q 1925 3584 2291 3584 
Q 2894 3584 3203 3211 
Q 3513 2838 3513 2113 
z
" transform="scale(0.015625)"/>
      <path id="DejaVuSans-74" d="M 1172 4494 
L 1172 3500 
L 2356 3500 
L 2356 3053 
L 1172 3053 
L 1172 1153 
Q 1172 725 1289 603 
Q 1406 481 1766 481 
L 2356 481 
L 2356 0 
L 1766 0 
Q 1100 0 847 248 
Q 594 497 594 1153 
L 594 3053 
L 172 3053 
L 172 3500 
L 594 3500 
L 594 4494 
L 1172 4494 
z
" transform="scale(0.015625)"/>
      <path id="DejaVuSans-72" d="M 2631 2963 
Q 2534 3019 2420 3045 
Q 2306 3072 2169 3072 
Q 1681 3072 1420 2755 
Q 1159 2438 1159 1844 
L 1159 0 
L 581 0 
L 581 3500 
L 1159 3500 
L 1159 2956 
Q 1341 3275 1631 3429 
Q 1922 3584 2338 3584 
Q 2397 3584 2469 3576 
Q 2541 3569 2628 3553 
L 2631 2963 
z
" transform="scale(0.015625)"/>
     </defs>
     <use xlink:href="#DejaVuSans-63"/>
     <use xlink:href="#DejaVuSans-65" transform="translate(54.980469 0)"/>
     <use xlink:href="#DejaVuSans-6c" transform="translate(116.503906 0)"/>
     <use xlink:href="#DejaVuSans-6c" transform="translate(144.287109 0)"/>
     <use xlink:href="#DejaVuSans-61" transform="translate(172.070312 0)"/>
     <use xlink:href="#DejaVuSans-20" transform="translate(233.349609 0)"/>
     <use xlink:href="#DejaVuSans-65" transform="translate(265.136719 0)"/>
     <use xlink:href="#DejaVuSans-6c" transform="translate(326.660156 0)"/>
     <use xlink:href="#DejaVuSans-65" transform="translate(354.443359 0)"/>
     <use xlink:href="#DejaVuSans-6d" transform="translate(415.966797 0)"/>
     <use xlink:href="#DejaVuSans-65" transform="translate(513.378906 0)"/>
     <use xlink:href="#DejaVuSans-6e" transform="translate(574.902344 0)"/>
     <use xlink:href="#DejaVuSans-74" transform="translate(638.28125 0)"/>
     <use xlink:href="#DejaVuSans-61" transform="translate(677.490234 0)"/>
     <use xlink:href="#DejaVuSans-72" transform="translate(738.769531 0)"/>
     <use xlink:href="#DejaVuSans-65" transform="translate(777.632812 0)"/>
    </g>
   </g>
  </g>
  <g id="axes_2">
   <g id="patch_15">
    <path d="M 203.992175 268.405426 
C 206.242351 268.405426 208.40067 267.511421 209.991785 265.920306 
C 211.5829 264.329191 212.476905 262.170872 212.476905 259.920696 
C 212.476905 257.670519 211.5829 255.512201 209.991785 253.921085 
C 208.40067 252.32997 206.242351 251.435965 203.992175 251.435965 
C 201.741998 251.435965 199.583679 252.32997 197.992564 253.921085 
C 196.401449 255.512201 195.507444 257.670519 195.507444 259.920696 
C 195.507444 262.170872 196.401449 264.329191 197.992564 265.920306 
C 199.583679 267.511421 201.741998 268.405426 203.992175 268.405426 
L 203.992175 268.405426 
z
" clip-path="url(#pe08cd3e55b)" style="fill: none; stroke: #000000; stroke-width: 1.4; stroke-linejoin: miter"/>
   </g>
   <g id="patch_16">
    <path d="M 267.627653 268.405426 
C 269.87783 268.405426 272.036148 267.511421 273.627263 265.920306 
C 275.218379 264.329191 276.112383 262.170872 276.112383 259.920696 
C 276.112383 257.670519 275.218379 255.512201 273.627263 253.921085 
C 272.036148 252.32997 269.87783 251.435965 267.627653 251.435965 
C 265.377476 251.435965 263.219158 252.32997 261.628042 253.921085 
C 260.036927 255.512201 259.142922 257.670519 259.142922 259.920696 
C 259.142922 262.170872 260.036927 264.329191 261.628042 265.920306 
C 263.219158 267.511421 265.377476 268.405426 267.627653 268.405426 
L 267.627653 268.405426 
z
" clip-path="url(#pe08cd3e55b)" style="fill: none; stroke: #000000; stroke-width: 1.4; stroke-linejoin: miter"/>
   </g>
   <g id="patch_17">
    <path d="M 331.263131 268.405426 
C 333.513308 268.405426 335.671626 267.511421 337.262742 265.920306 
C 338.853857 264.329191 339.747862 262.170872 339.747862 259.920696 
C 339.747862 257.670519 338.853857 255.512201 337.262742 253.921085 
C 335.671626 252.32997 333.513308 251.435965 331.263131 251.435965 
C 329.012954 251.435965 326.854636 252.32997 325.263521 253.921085 
C 323.672405 255.512201 322.778401 257.670519 322.778401 259.920696 
C 322.778401 262.170872 323.672405 264.329191 325.263521 265.920306 
C 326.854636 267.511421 329.012954 268.405426 331.263131 268.405426 
L 331.263131 268.405426 
z
" clip-path="url(#pe08cd3e55b)" style="fill: none; stroke: #000000; stroke-width: 1.4; stroke-linejoin: miter"/>
   </g>
   <g id="patch_18">
    <path d="M 394.898609 268.405426 
C 397.148786 268.405426 399.307105 267.511421 400.89822 265.920306 
C 402.489335 264.329191 403.38334 262.170872 403.38334 259.920696 
C 403.38334 257.670519 402.489335 255.512201 400.89822 253.921085 
C 399.307105 252.32997 397.148786 251.435965 394.898609 251.435965 
C 392.648433 251.435965 390.490114 252.32997 388.898999 253.921085 
C 387.307884 255.512201 386.413879 257.670519 386.413879 259.920696 
C 386.413879 262.170872 387.307884 264.329191 388.898999 265.920306 
C 390.490114 267.511421 392.648433 268.405426 394.898609 268.405426 
L 394.898609 268.405426 
z
" clip-path="url(#pe08cd3e55b)" style="fill: none; stroke: #000000; stroke-width: 1.4; stroke-linejoin: miter"/>
   </g>
   <g id="patch_19">
    <path d="M 458.534088 268.405426 
C 460.784264 268.405426 462.942583 267.511421 464.533698 265.920306 
C 466.124813 264.329191 467.018818 262.170872 467.018818 259.920696 
C 467.018818 257.670519 466.124813 255.512201 464.533698 253.921085 
C 462.942583 252.32997 460.784264 251.435965 458.534088 251.435965 
C 456.283911 251.435965 454.125592 252.32997 452.534477 253.921085 
C 450.943362 255.512201 450.049357 257.670519 450.049357 259.920696 
C 450.049357 262.170872 450.943362 264.329191 452.534477 265.920306 
C 454.125592 267.511421 456.283911 268.405426 458.534088 268.405426 
L 458.534088 268.405426 
z
" clip-path="url(#pe08cd3e55b)" style="fill: none; stroke: #000000; stroke-width: 1.4; stroke-linejoin: miter"/>
   </g>
   <g id="patch_20">
    <path d="M 522.169566 268.405426 
C 524.419743 268.405426 526.578061 267.511421 528.169176 265.920306 
C 529.760292 264.329191 530.654296 262.170872 530.654296 259.920696 
C 530.654296 257.670519 529.760292 255.512201 528.169176 253.921085 
C 526.578061 252.32997 524.419743 251.435965 522.169566 251.435965 
C 519.919389 251.435965 517.761071 252.32997 516.169955 253.921085 
C 514.57884 255.512201 513.684835 257.670519 513.684835 259.920696 
C 513.684835 262.170872 514.57884 264.329191 516.169955 265.920306 
C 517.761071 267.511421 519.919389 268.405426 522.169566 268.405426 
L 522.169566 268.405426 
z
" clip-path="url(#pe08cd3e55b)" style="fill: none; stroke: #000000; stroke-width: 1.4; stroke-linejoin: miter"/>
   </g>
   <g id="line2d_8">
    <path d="M 180.423479 259.920696 
L 545.738262 259.920696 
" clip-path="url(#pe08cd3e55b)" style="fill: none; stroke: #1f77b4; stroke-width: 0.8; stroke-linecap: square"/>
   </g>
   <g id="line2d_9">
    <path d="M 203.992175 276.890157 
L 203.992175 242.951235 
" clip-path="url(#pe08cd3e55b)" style="fill: none; stroke-dasharray: 0.7,1.155; stroke-dashoffset: 0; stroke: #ff7f0e; stroke-width: 0.7"/>
   </g>
   <g id="line2d_10">
    <path d="M 267.627653 276.890157 
L 267.627653 242.951235 
" clip-path="url(#pe08cd3e55b)" style="fill: none; stroke-dasharray: 0.7,1.155; stroke-dashoffset: 0; stroke: #2ca02c; stroke-width: 0.7"/>
   </g>
   <g id="line2d_11">
    <path d="M 331.263131 276.890157 
L 331.263131 242.951235 
" clip-path="url(#pe08cd3e55b)" style="fill: none; stroke-dasharray: 0.7,1.155; stroke-dashoffset: 0; stroke: #d62728; stroke-width: 0.7"/>
   </g>
   <g id="line2d_12">
    <path d="M 394.898609 276.890157 
L 394.898609 242.951235 
" clip-path="url(#pe08cd3e55b)" style="fill: none; stroke-dasharray: 0.7,1.155; stroke-dashoffset: 0; stroke: #9467bd; stroke-width: 0.7"/>
   </g>
   <g id="line2d_13">
    <path d="M 458.534088 276.890157 
L 458.534088 242.951235 
" clip-path="url(#pe08cd3e55b)" style="fill: none; stroke-dasharray: 0.7,1.155; stroke-dashoffset: 0; stroke: #8c564b; stroke-width: 0.7"/>
   </g>
   <g id="line2d_14">
    <path d="M 522.169566 276.890157 
L 522.169566 242.951235 
" clip-path="url(#pe08cd3e55b)" style="fill: none; stroke-dasharray: 0.7,1.155; stroke-dashoffset: 0; stroke: #e377c2; stroke-width: 0.7"/>
   </g>
   <g id="patch_21">
    <path d="M 205.993903 240.122991 
Q 216.249947 240.122991 225.052547 240.122991 
" style="fill: none; stroke: #000000; stroke-width: 1.3; stroke-linecap: round"/>
    <path d="M 220.252547 237.722991 
L 225.052547 240.122991 
L 220.252547 242.522991 
z
" style="fill: #1f77b4; stroke: #000000; stroke-width: 1.3; stroke-linecap: round"/>
   </g>
   <g id="patch_22">
    <path d="M 265.625925 240.122991 
Q 255.369881 240.122991 246.567281 240.122991 
" style="fill: none; stroke: #000000; stroke-width: 1.3; stroke-linecap: round"/>
    <path d="M 251.367281 242.522991 
L 246.567281 240.122991 
L 251.367281 237.722991 
z
" style="fill: #1f77b4; stroke: #000000; stroke-width: 1.3; stroke-linecap: round"/>
   </g>
   <g id="patch_23">
    <path d="M 333.264859 240.122991 
Q 343.520903 240.122991 352.323503 240.122991 
" style="fill: none; stroke: #000000; stroke-width: 1.3; stroke-linecap: round"/>
    <path d="M 347.523503 237.722991 
L 352.323503 240.122991 
L 347.523503 242.522991 
z
" style="fill: #1f77b4; stroke: #000000; stroke-width: 1.3; stroke-linecap: round"/>
   </g>
   <g id="patch_24">
    <path d="M 392.896881 240.122991 
Q 382.640837 240.122991 373.838237 240.122991 
" style="fill: none; stroke: #000000; stroke-width: 1.3; stroke-linecap: round"/>
    <path d="M 378.638237 242.522991 
L 373.838237 240.122991 
L 378.638237 237.722991 
z
" style="fill: #1f77b4; stroke: #000000; stroke-width: 1.3; stroke-linecap: round"/>
   </g>
   <g id="patch_25">
    <path d="M 460.535816 240.122991 
Q 470.79186 240.122991 479.59446 240.122991 
" style="fill: none; stroke: #000000; stroke-width: 1.3; stroke-linecap: round"/>
    <path d="M 474.79446 237.722991 
L 479.59446 240.122991 
L 474.79446 242.522991 
z
" style="fill: #1f77b4; stroke: #000000; stroke-width: 1.3; stroke-linecap: round"/>
   </g>
   <g id="patch_26">
    <path d="M 520.167838 240.122991 
Q 509.911794 240.122991 501.109194 240.122991 
" style="fill: none; stroke: #000000; stroke-width: 1.3; stroke-linecap: round"/>
    <path d="M 505.909194 242.522991 
L 501.109194 240.122991 
L 505.909194 237.722991 
z
" style="fill: #1f77b4; stroke: #000000; stroke-width: 1.3; stroke-linecap: round"/>
   </g>
   <g id="text_3">
    <!-- bordo zona — oscillazione longitudinale -->
    <g transform="translate(174.766992 219.410624) scale(0.105 -0.105)">
     <defs>
      <path id="DejaVuSans-Bold-62" d="M 2400 722 
Q 2759 722 2948 984 
Q 3138 1247 3138 1747 
Q 3138 2247 2948 2509 
Q 2759 2772 2400 2772 
Q 2041 2772 1848 2508 
Q 1656 2244 1656 1747 
Q 1656 1250 1848 986 
Q 2041 722 2400 722 
z
M 1656 2988 
Q 1888 3294 2169 3439 
Q 2450 3584 2816 3584 
Q 3463 3584 3878 3070 
Q 4294 2556 4294 1747 
Q 4294 938 3878 423 
Q 3463 -91 2816 -91 
Q 2450 -91 2169 54 
Q 1888 200 1656 506 
L 1656 0 
L 538 0 
L 538 4863 
L 1656 4863 
L 1656 2988 
z
" transform="scale(0.015625)"/>
     </defs>
     <use xlink:href="#DejaVuSans-Bold-62"/>
     <use xlink:href="#DejaVuSans-Bold-6f" transform="translate(71.582031 0)"/>
     <use xlink:href="#DejaVuSans-Bold-72" transform="translate(140.283203 0)"/>
     <use xlink:href="#DejaVuSans-Bold-64" transform="translate(189.599609 0)"/>
     <use xlink:href="#DejaVuSans-Bold-6f" transform="translate(261.181641 0)"/>
     <use xlink:href="#DejaVuSans-Bold-20" transform="translate(329.882812 0)"/>
     <use xlink:href="#DejaVuSans-Bold-7a" transform="translate(364.697266 0)"/>
     <use xlink:href="#DejaVuSans-Bold-6f" transform="translate(422.900391 0)"/>
     <use xlink:href="#DejaVuSans-Bold-6e" transform="translate(491.601562 0)"/>
     <use xlink:href="#DejaVuSans-Bold-61" transform="translate(562.792969 0)"/>
     <use xlink:href="#DejaVuSans-Bold-20" transform="translate(630.273438 0)"/>
     <use xlink:href="#DejaVuSans-Bold-2014" transform="translate(665.087891 0)"/>
     <use xlink:href="#DejaVuSans-Bold-20" transform="translate(765.087891 0)"/>
     <use xlink:href="#DejaVuSans-Bold-6f" transform="translate(799.902344 0)"/>
     <use xlink:href="#DejaVuSans-Bold-73" transform="translate(868.603516 0)"/>
     <use xlink:href="#DejaVuSans-Bold-63" transform="translate(928.125 0)"/>
     <use xlink:href="#DejaVuSans-Bold-69" transform="translate(987.402344 0)"/>
     <use xlink:href="#DejaVuSans-Bold-6c" transform="translate(1021.679688 0)"/>
     <use xlink:href="#DejaVuSans-Bold-6c" transform="translate(1055.957031 0)"/>
     <use xlink:href="#DejaVuSans-Bold-61" transform="translate(1090.234375 0)"/>
     <use xlink:href="#DejaVuSans-Bold-7a" transform="translate(1157.714844 0)"/>
     <use xlink:href="#DejaVuSans-Bold-69" transform="translate(1215.917969 0)"/>
     <use xlink:href="#DejaVuSans-Bold-6f" transform="translate(1250.195312 0)"/>
     <use xlink:href="#DejaVuSans-Bold-6e" transform="translate(1318.896484 0)"/>
     <use xlink:href="#DejaVuSans-Bold-65" transform="translate(1390.087891 0)"/>
     <use xlink:href="#DejaVuSans-Bold-20" transform="translate(1457.910156 0)"/>
     <use xlink:href="#DejaVuSans-Bold-6c" transform="translate(1492.724609 0)"/>
     <use xlink:href="#DejaVuSans-Bold-6f" transform="translate(1527.001953 0)"/>
     <use xlink:href="#DejaVuSans-Bold-6e" transform="translate(1595.703125 0)"/>
     <use xlink:href="#DejaVuSans-Bold-67" transform="translate(1666.894531 0)"/>
     <use xlink:href="#DejaVuSans-Bold-69" transform="translate(1738.476562 0)"/>
     <use xlink:href="#DejaVuSans-Bold-74" transform="translate(1772.753906 0)"/>
     <use xlink:href="#DejaVuSans-Bold-75" transform="translate(1820.556641 0)"/>
     <use xlink:href="#DejaVuSans-Bold-64" transform="translate(1891.748047 0)"/>
     <use xlink:href="#DejaVuSans-Bold-69" transform="translate(1963.330078 0)"/>
     <use xlink:href="#DejaVuSans-Bold-6e" transform="translate(1997.607422 0)"/>
     <use xlink:href="#DejaVuSans-Bold-61" transform="translate(2068.798828 0)"/>
     <use xlink:href="#DejaVuSans-Bold-6c" transform="translate(2136.279297 0)"/>
     <use xlink:href="#DejaVuSans-Bold-65" transform="translate(2170.556641 0)"/>
    </g>
   </g>
  </g>
  <g id="axes_3">
   <g id="patch_27">
    <path d="M 203.992175 395.676383 
C 206.242351 395.676383 208.40067 394.782378 209.991785 393.191263 
C 211.5829 391.600147 212.476905 389.441829 212.476905 387.191652 
C 212.476905 384.941475 211.5829 382.783157 209.991785 381.192042 
C 208.40067 379.600926 206.242351 378.706922 203.992175 378.706922 
C 201.741998 378.706922 199.583679 379.600926 197.992564 381.192042 
C 196.401449 382.783157 195.507444 384.941475 195.507444 387.191652 
C 195.507444 389.441829 196.401449 391.600147 197.992564 393.191263 
C 199.583679 394.782378 201.741998 395.676383 203.992175 395.676383 
L 203.992175 395.676383 
z
" clip-path="url(#pf6c3428042)" style="fill: none; stroke: #000000; stroke-width: 1.4; stroke-linejoin: miter"/>
   </g>
   <g id="patch_28">
    <path d="M 267.627653 395.676383 
C 269.87783 395.676383 272.036148 394.782378 273.627263 393.191263 
C 275.218379 391.600147 276.112383 389.441829 276.112383 387.191652 
C 276.112383 384.941475 275.218379 382.783157 273.627263 381.192042 
C 272.036148 379.600926 269.87783 378.706922 267.627653 378.706922 
C 265.377476 378.706922 263.219158 379.600926 261.628042 381.192042 
C 260.036927 382.783157 259.142922 384.941475 259.142922 387.191652 
C 259.142922 389.441829 260.036927 391.600147 261.628042 393.191263 
C 263.219158 394.782378 265.377476 395.676383 267.627653 395.676383 
L 267.627653 395.676383 
z
" clip-path="url(#pf6c3428042)" style="fill: none; stroke: #000000; stroke-width: 1.4; stroke-linejoin: miter"/>
   </g>
   <g id="patch_29">
    <path d="M 331.263131 395.676383 
C 333.513308 395.676383 335.671626 394.782378 337.262742 393.191263 
C 338.853857 391.600147 339.747862 389.441829 339.747862 387.191652 
C 339.747862 384.941475 338.853857 382.783157 337.262742 381.192042 
C 335.671626 379.600926 333.513308 378.706922 331.263131 378.706922 
C 329.012954 378.706922 326.854636 379.600926 325.263521 381.192042 
C 323.672405 382.783157 322.778401 384.941475 322.778401 387.191652 
C 322.778401 389.441829 323.672405 391.600147 325.263521 393.191263 
C 326.854636 394.782378 329.012954 395.676383 331.263131 395.676383 
L 331.263131 395.676383 
z
" clip-path="url(#pf6c3428042)" style="fill: none; stroke: #000000; stroke-width: 1.4; stroke-linejoin: miter"/>
   </g>
   <g id="patch_30">
    <path d="M 394.898609 395.676383 
C 397.148786 395.676383 399.307105 394.782378 400.89822 393.191263 
C 402.489335 391.600147 403.38334 389.441829 403.38334 387.191652 
C 403.38334 384.941475 402.489335 382.783157 400.89822 381.192042 
C 399.307105 379.600926 397.148786 378.706922 394.898609 378.706922 
C 392.648433 378.706922 390.490114 379.600926 388.898999 381.192042 
C 387.307884 382.783157 386.413879 384.941475 386.413879 387.191652 
C 386.413879 389.441829 387.307884 391.600147 388.898999 393.191263 
C 390.490114 394.782378 392.648433 395.676383 394.898609 395.676383 
L 394.898609 395.676383 
z
" clip-path="url(#pf6c3428042)" style="fill: none; stroke: #000000; stroke-width: 1.4; stroke-linejoin: miter"/>
   </g>
   <g id="patch_31">
    <path d="M 458.534088 395.676383 
C 460.784264 395.676383 462.942583 394.782378 464.533698 393.191263 
C 466.124813 391.600147 467.018818 389.441829 467.018818 387.191652 
C 467.018818 384.941475 466.124813 382.783157 464.533698 381.192042 
C 462.942583 379.600926 460.784264 378.706922 458.534088 378.706922 
C 456.283911 378.706922 454.125592 379.600926 452.534477 381.192042 
C 450.943362 382.783157 450.049357 384.941475 450.049357 387.191652 
C 450.049357 389.441829 450.943362 391.600147 452.534477 393.191263 
C 454.125592 394.782378 456.283911 395.676383 458.534088 395.676383 
L 458.534088 395.676383 
z
" clip-path="url(#pf6c3428042)" style="fill: none; stroke: #000000; stroke-width: 1.4; stroke-linejoin: miter"/>
   </g>
   <g id="patch_32">
    <path d="M 522.169566 395.676383 
C 524.419743 395.676383 526.578061 394.782378 528.169176 393.191263 
C 529.760292 391.600147 530.654296 389.441829 530.654296 387.191652 
C 530.654296 384.941475 529.760292 382.783157 528.169176 381.192042 
C 526.578061 379.600926 524.419743 378.706922 522.169566 378.706922 
C 519.919389 378.706922 517.761071 379.600926 516.169955 381.192042 
C 514.57884 382.783157 513.684835 384.941475 513.684835 387.191652 
C 513.684835 389.441829 514.57884 391.600147 516.169955 393.191263 
C 517.761071 394.782378 519.919389 395.676383 522.169566 395.676383 
L 522.169566 395.676383 
z
" clip-path="url(#pf6c3428042)" style="fill: none; stroke: #000000; stroke-width: 1.4; stroke-linejoin: miter"/>
   </g>
   <g id="line2d_15">
    <path d="M 180.423479 387.191652 
L 545.738262 387.191652 
" clip-path="url(#pf6c3428042)" style="fill: none; stroke: #1f77b4; stroke-width: 0.8; stroke-linecap: square"/>
   </g>
   <g id="line2d_16">
    <path d="M 203.992175 404.161113 
L 203.992175 370.222191 
" clip-path="url(#pf6c3428042)" style="fill: none; stroke-dasharray: 0.7,1.155; stroke-dashoffset: 0; stroke: #ff7f0e; stroke-width: 0.7"/>
   </g>
   <g id="line2d_17">
    <path d="M 267.627653 404.161113 
L 267.627653 370.222191 
" clip-path="url(#pf6c3428042)" style="fill: none; stroke-dasharray: 0.7,1.155; stroke-dashoffset: 0; stroke: #2ca02c; stroke-width: 0.7"/>
   </g>
   <g id="line2d_18">
    <path d="M 331.263131 404.161113 
L 331.263131 370.222191 
" clip-path="url(#pf6c3428042)" style="fill: none; stroke-dasharray: 0.7,1.155; stroke-dashoffset: 0; stroke: #d62728; stroke-width: 0.7"/>
   </g>
   <g id="line2d_19">
    <path d="M 394.898609 404.161113 
L 394.898609 370.222191 
" clip-path="url(#pf6c3428042)" style="fill: none; stroke-dasharray: 0.7,1.155; stroke-dashoffset: 0; stroke: #9467bd; stroke-width: 0.7"/>
   </g>
   <g id="line2d_20">
    <path d="M 458.534088 404.161113 
L 458.534088 370.222191 
" clip-path="url(#pf6c3428042)" style="fill: none; stroke-dasharray: 0.7,1.155; stroke-dashoffset: 0; stroke: #8c564b; stroke-width: 0.7"/>
   </g>
   <g id="line2d_21">
    <path d="M 522.169566 404.161113 
L 522.169566 370.222191 
" clip-path="url(#pf6c3428042)" style="fill: none; stroke-dasharray: 0.7,1.155; stroke-dashoffset: 0; stroke: #e377c2; stroke-width: 0.7"/>
   </g>
   <g id="patch_33">
    <path d="M 203.992175 377.181344 
Q 203.992175 366.21747 203.992175 356.707041 
" style="fill: none; stroke: #000000; stroke-width: 1.3; stroke-linecap: round"/>
    <path d="M 201.592175 361.507041 
L 203.992175 356.707041 
L 206.392175 361.507041 
z
" style="fill: #1f77b4; stroke: #000000; stroke-width: 1.3; stroke-linecap: round"/>
   </g>
   <g id="patch_34">
    <path d="M 267.627653 377.181344 
Q 267.627653 366.21747 267.627653 356.707041 
" style="fill: none; stroke: #000000; stroke-width: 1.3; stroke-linecap: round"/>
    <path d="M 265.227653 361.507041 
L 267.627653 356.707041 
L 270.027653 361.507041 
z
" style="fill: #1f77b4; stroke: #000000; stroke-width: 1.3; stroke-linecap: round"/>
   </g>
   <g id="patch_35">
    <path d="M 331.263131 377.181344 
Q 331.263131 366.21747 331.263131 356.707041 
" style="fill: none; stroke: #000000; stroke-width: 1.3; stroke-linecap: round"/>
    <path d="M 328.863131 361.507041 
L 331.263131 356.707041 
L 333.663131 361.507041 
z
" style="fill: #1f77b4; stroke: #000000; stroke-width: 1.3; stroke-linecap: round"/>
   </g>
   <g id="patch_36">
    <path d="M 394.898609 377.181344 
Q 394.898609 366.21747 394.898609 356.707041 
" style="fill: none; stroke: #000000; stroke-width: 1.3; stroke-linecap: round"/>
    <path d="M 392.498609 361.507041 
L 394.898609 356.707041 
L 397.298609 361.507041 
z
" style="fill: #1f77b4; stroke: #000000; stroke-width: 1.3; stroke-linecap: round"/>
   </g>
   <g id="patch_37">
    <path d="M 458.534088 377.181344 
Q 458.534088 366.21747 458.534088 356.707041 
" style="fill: none; stroke: #000000; stroke-width: 1.3; stroke-linecap: round"/>
    <path d="M 456.134088 361.507041 
L 458.534088 356.707041 
L 460.934088 361.507041 
z
" style="fill: #1f77b4; stroke: #000000; stroke-width: 1.3; stroke-linecap: round"/>
   </g>
   <g id="patch_38">
    <path d="M 522.169566 377.181344 
Q 522.169566 366.21747 522.169566 356.707041 
" style="fill: none; stroke: #000000; stroke-width: 1.3; stroke-linecap: round"/>
    <path d="M 519.769566 361.507041 
L 522.169566 356.707041 
L 524.569566 361.507041 
z
" style="fill: #1f77b4; stroke: #000000; stroke-width: 1.3; stroke-linecap: round"/>
   </g>
   <g id="text_4">
    <!-- centro zona — oscillazione trasversa -->
    <g transform="translate(174.766992 346.722596) scale(0.105 -0.105)">
     <defs>
      <path id="DejaVuSans-Bold-76" d="M 97 3500 
L 1216 3500 
L 2088 1081 
L 2956 3500 
L 4078 3500 
L 2700 0 
L 1472 0 
L 97 3500 
z
" transform="scale(0.015625)"/>
     </defs>
     <use xlink:href="#DejaVuSans-Bold-63"/>
     <use xlink:href="#DejaVuSans-Bold-65" transform="translate(59.277344 0)"/>
     <use xlink:href="#DejaVuSans-Bold-6e" transform="translate(127.099609 0)"/>
     <use xlink:href="#DejaVuSans-Bold-74" transform="translate(198.291016 0)"/>
     <use xlink:href="#DejaVuSans-Bold-72" transform="translate(246.09375 0)"/>
     <use xlink:href="#DejaVuSans-Bold-6f" transform="translate(295.410156 0)"/>
     <use xlink:href="#DejaVuSans-Bold-20" transform="translate(364.111328 0)"/>
     <use xlink:href="#DejaVuSans-Bold-7a" transform="translate(398.925781 0)"/>
     <use xlink:href="#DejaVuSans-Bold-6f" transform="translate(457.128906 0)"/>
     <use xlink:href="#DejaVuSans-Bold-6e" transform="translate(525.830078 0)"/>
     <use xlink:href="#DejaVuSans-Bold-61" transform="translate(597.021484 0)"/>
     <use xlink:href="#DejaVuSans-Bold-20" transform="translate(664.501953 0)"/>
     <use xlink:href="#DejaVuSans-Bold-2014" transform="translate(699.316406 0)"/>
     <use xlink:href="#DejaVuSans-Bold-20" transform="translate(799.316406 0)"/>
     <use xlink:href="#DejaVuSans-Bold-6f" transform="translate(834.130859 0)"/>
     <use xlink:href="#DejaVuSans-Bold-73" transform="translate(902.832031 0)"/>
     <use xlink:href="#DejaVuSans-Bold-63" transform="translate(962.353516 0)"/>
     <use xlink:href="#DejaVuSans-Bold-69" transform="translate(1021.630859 0)"/>
     <use xlink:href="#DejaVuSans-Bold-6c" transform="translate(1055.908203 0)"/>
     <use xlink:href="#DejaVuSans-Bold-6c" transform="translate(1090.185547 0)"/>
     <use xlink:href="#DejaVuSans-Bold-61" transform="translate(1124.462891 0)"/>
     <use xlink:href="#DejaVuSans-Bold-7a" transform="translate(1191.943359 0)"/>
     <use xlink:href="#DejaVuSans-Bold-69" transform="translate(1250.146484 0)"/>
     <use xlink:href="#DejaVuSans-Bold-6f" transform="translate(1284.423828 0)"/>
     <use xlink:href="#DejaVuSans-Bold-6e" transform="translate(1353.125 0)"/>
     <use xlink:href="#DejaVuSans-Bold-65" transform="translate(1424.316406 0)"/>
     <use xlink:href="#DejaVuSans-Bold-20" transform="translate(1492.138672 0)"/>
     <use xlink:href="#DejaVuSans-Bold-74" transform="translate(1526.953125 0)"/>
     <use xlink:href="#DejaVuSans-Bold-72" transform="translate(1574.755859 0)"/>
     <use xlink:href="#DejaVuSans-Bold-61" transform="translate(1624.072266 0)"/>
     <use xlink:href="#DejaVuSans-Bold-73" transform="translate(1691.552734 0)"/>
     <use xlink:href="#DejaVuSans-Bold-76" transform="translate(1751.074219 0)"/>
     <use xlink:href="#DejaVuSans-Bold-65" transform="translate(1816.259766 0)"/>
     <use xlink:href="#DejaVuSans-Bold-72" transform="translate(1884.082031 0)"/>
     <use xlink:href="#DejaVuSans-Bold-73" transform="translate(1933.398438 0)"/>
     <use xlink:href="#DejaVuSans-Bold-61" transform="translate(1992.919922 0)"/>
    </g>
   </g>
  </g>
  <g id="axes_4">
   <g id="patch_39">
    <path d="M 203.992175 522.947339 
C 206.242351 522.947339 208.40067 522.053334 209.991785 520.462219 
C 211.5829 518.871104 212.476905 516.712786 212.476905 514.462609 
C 212.476905 512.212432 211.5829 510.054114 209.991785 508.462998 
C 208.40067 506.871883 206.242351 505.977878 203.992175 505.977878 
C 201.741998 505.977878 199.583679 506.871883 197.992564 508.462998 
C 196.401449 510.054114 195.507444 512.212432 195.507444 514.462609 
C 195.507444 516.712786 196.401449 518.871104 197.992564 520.462219 
C 199.583679 522.053334 201.741998 522.947339 203.992175 522.947339 
L 203.992175 522.947339 
z
" clip-path="url(#paa8a832993)" style="fill: none; stroke: #000000; stroke-width: 1.4; stroke-linejoin: miter"/>
   </g>
   <g id="patch_40">
    <path d="M 267.627653 522.947339 
C 269.87783 522.947339 272.036148 522.053334 273.627263 520.462219 
C 275.218379 518.871104 276.112383 516.712786 276.112383 514.462609 
C 276.112383 512.212432 275.218379 510.054114 273.627263 508.462998 
C 272.036148 506.871883 269.87783 505.977878 267.627653 505.977878 
C 265.377476 505.977878 263.219158 506.871883 261.628042 508.462998 
C 260.036927 510.054114 259.142922 512.212432 259.142922 514.462609 
C 259.142922 516.712786 260.036927 518.871104 261.628042 520.462219 
C 263.219158 522.053334 265.377476 522.947339 267.627653 522.947339 
L 267.627653 522.947339 
z
" clip-path="url(#paa8a832993)" style="fill: none; stroke: #000000; stroke-width: 1.4; stroke-linejoin: miter"/>
   </g>
   <g id="patch_41">
    <path d="M 331.263131 522.947339 
C 333.513308 522.947339 335.671626 522.053334 337.262742 520.462219 
C 338.853857 518.871104 339.747862 516.712786 339.747862 514.462609 
C 339.747862 512.212432 338.853857 510.054114 337.262742 508.462998 
C 335.671626 506.871883 333.513308 505.977878 331.263131 505.977878 
C 329.012954 505.977878 326.854636 506.871883 325.263521 508.462998 
C 323.672405 510.054114 322.778401 512.212432 322.778401 514.462609 
C 322.778401 516.712786 323.672405 518.871104 325.263521 520.462219 
C 326.854636 522.053334 329.012954 522.947339 331.263131 522.947339 
L 331.263131 522.947339 
z
" clip-path="url(#paa8a832993)" style="fill: none; stroke: #000000; stroke-width: 1.4; stroke-linejoin: miter"/>
   </g>
   <g id="patch_42">
    <path d="M 394.898609 522.947339 
C 397.148786 522.947339 399.307105 522.053334 400.89822 520.462219 
C 402.489335 518.871104 403.38334 516.712786 403.38334 514.462609 
C 403.38334 512.212432 402.489335 510.054114 400.89822 508.462998 
C 399.307105 506.871883 397.148786 505.977878 394.898609 505.977878 
C 392.648433 505.977878 390.490114 506.871883 388.898999 508.462998 
C 387.307884 510.054114 386.413879 512.212432 386.413879 514.462609 
C 386.413879 516.712786 387.307884 518.871104 388.898999 520.462219 
C 390.490114 522.053334 392.648433 522.947339 394.898609 522.947339 
L 394.898609 522.947339 
z
" clip-path="url(#paa8a832993)" style="fill: none; stroke: #000000; stroke-width: 1.4; stroke-linejoin: miter"/>
   </g>
   <g id="patch_43">
    <path d="M 458.534088 522.947339 
C 460.784264 522.947339 462.942583 522.053334 464.533698 520.462219 
C 466.124813 518.871104 467.018818 516.712786 467.018818 514.462609 
C 467.018818 512.212432 466.124813 510.054114 464.533698 508.462998 
C 462.942583 506.871883 460.784264 505.977878 458.534088 505.977878 
C 456.283911 505.977878 454.125592 506.871883 452.534477 508.462998 
C 450.943362 510.054114 450.049357 512.212432 450.049357 514.462609 
C 450.049357 516.712786 450.943362 518.871104 452.534477 520.462219 
C 454.125592 522.053334 456.283911 522.947339 458.534088 522.947339 
L 458.534088 522.947339 
z
" clip-path="url(#paa8a832993)" style="fill: none; stroke: #000000; stroke-width: 1.4; stroke-linejoin: miter"/>
   </g>
   <g id="patch_44">
    <path d="M 522.169566 522.947339 
C 524.419743 522.947339 526.578061 522.053334 528.169176 520.462219 
C 529.760292 518.871104 530.654296 516.712786 530.654296 514.462609 
C 530.654296 512.212432 529.760292 510.054114 528.169176 508.462998 
C 526.578061 506.871883 524.419743 505.977878 522.169566 505.977878 
C 519.919389 505.977878 517.761071 506.871883 516.169955 508.462998 
C 514.57884 510.054114 513.684835 512.212432 513.684835 514.462609 
C 513.684835 516.712786 514.57884 518.871104 516.169955 520.462219 
C 517.761071 522.053334 519.919389 522.947339 522.169566 522.947339 
L 522.169566 522.947339 
z
" clip-path="url(#paa8a832993)" style="fill: none; stroke: #000000; stroke-width: 1.4; stroke-linejoin: miter"/>
   </g>
   <g id="line2d_22">
    <path d="M 180.423479 514.462609 
L 545.738262 514.462609 
" clip-path="url(#paa8a832993)" style="fill: none; stroke: #1f77b4; stroke-width: 0.8; stroke-linecap: square"/>
   </g>
   <g id="line2d_23">
    <path d="M 203.992175 531.43207 
L 203.992175 497.493148 
" clip-path="url(#paa8a832993)" style="fill: none; stroke-dasharray: 0.7,1.155; stroke-dashoffset: 0; stroke: #ff7f0e; stroke-width: 0.7"/>
   </g>
   <g id="line2d_24">
    <path d="M 267.627653 531.43207 
L 267.627653 497.493148 
" clip-path="url(#paa8a832993)" style="fill: none; stroke-dasharray: 0.7,1.155; stroke-dashoffset: 0; stroke: #2ca02c; stroke-width: 0.7"/>
   </g>
   <g id="line2d_25">
    <path d="M 331.263131 531.43207 
L 331.263131 497.493148 
" clip-path="url(#paa8a832993)" style="fill: none; stroke-dasharray: 0.7,1.155; stroke-dashoffset: 0; stroke: #d62728; stroke-width: 0.7"/>
   </g>
   <g id="line2d_26">
    <path d="M 394.898609 531.43207 
L 394.898609 497.493148 
" clip-path="url(#paa8a832993)" style="fill: none; stroke-dasharray: 0.7,1.155; stroke-dashoffset: 0; stroke: #9467bd; stroke-width: 0.7"/>
   </g>
   <g id="line2d_27">
    <path d="M 458.534088 531.43207 
L 458.534088 497.493148 
" clip-path="url(#paa8a832993)" style="fill: none; stroke-dasharray: 0.7,1.155; stroke-dashoffset: 0; stroke: #8c564b; stroke-width: 0.7"/>
   </g>
   <g id="line2d_28">
    <path d="M 522.169566 531.43207 
L 522.169566 497.493148 
" clip-path="url(#paa8a832993)" style="fill: none; stroke-dasharray: 0.7,1.155; stroke-dashoffset: 0; stroke: #e377c2; stroke-width: 0.7"/>
   </g>
   <g id="patch_45">
    <path d="M 203.992175 512.461226 
Q 203.992175 499.847953 203.992175 488.688124 
" style="fill: none; stroke: #000000; stroke-width: 1.3; stroke-linecap: round"/>
    <path d="M 201.592175 493.488124 
L 203.992175 488.688124 
L 206.392175 493.488124 
z
" style="fill: #1f77b4; stroke: #000000; stroke-width: 1.3; stroke-linecap: round"/>
   </g>
   <g id="patch_46">
    <path d="M 267.627653 516.463991 
Q 267.627653 529.077264 267.627653 540.237093 
" style="fill: none; stroke: #000000; stroke-width: 1.3; stroke-linecap: round"/>
    <path d="M 270.027653 535.437093 
L 267.627653 540.237093 
L 265.227653 535.437093 
z
" style="fill: #1f77b4; stroke: #000000; stroke-width: 1.3; stroke-linecap: round"/>
   </g>
   <g id="patch_47">
    <path d="M 331.263131 512.461226 
Q 331.263131 499.847953 331.263131 488.688124 
" style="fill: none; stroke: #000000; stroke-width: 1.3; stroke-linecap: round"/>
    <path d="M 328.863131 493.488124 
L 331.263131 488.688124 
L 333.663131 493.488124 
z
" style="fill: #1f77b4; stroke: #000000; stroke-width: 1.3; stroke-linecap: round"/>
   </g>
   <g id="patch_48">
    <path d="M 394.898609 516.463991 
Q 394.898609 529.077264 394.898609 540.237093 
" style="fill: none; stroke: #000000; stroke-width: 1.3; stroke-linecap: round"/>
    <path d="M 397.298609 535.437093 
L 394.898609 540.237093 
L 392.498609 535.437093 
z
" style="fill: #1f77b4; stroke: #000000; stroke-width: 1.3; stroke-linecap: round"/>
   </g>
   <g id="patch_49">
    <path d="M 458.534088 512.461226 
Q 458.534088 499.847953 458.534088 488.688124 
" style="fill: none; stroke: #000000; stroke-width: 1.3; stroke-linecap: round"/>
    <path d="M 456.134088 493.488124 
L 458.534088 488.688124 
L 460.934088 493.488124 
z
" style="fill: #1f77b4; stroke: #000000; stroke-width: 1.3; stroke-linecap: round"/>
   </g>
   <g id="patch_50">
    <path d="M 522.169566 516.463991 
Q 522.169566 529.077264 522.169566 540.237093 
" style="fill: none; stroke: #000000; stroke-width: 1.3; stroke-linecap: round"/>
    <path d="M 524.569566 535.437093 
L 522.169566 540.237093 
L 519.769566 535.437093 
z
" style="fill: #1f77b4; stroke: #000000; stroke-width: 1.3; stroke-linecap: round"/>
   </g>
   <g id="text_5">
    <!-- bordo zona — oscillazione trasversa -->
    <g transform="translate(174.766992 473.993552) scale(0.105 -0.105)">
     <use xlink:href="#DejaVuSans-Bold-62"/>
     <use xlink:href="#DejaVuSans-Bold-6f" transform="translate(71.582031 0)"/>
     <use xlink:href="#DejaVuSans-Bold-72" transform="translate(140.283203 0)"/>
     <use xlink:href="#DejaVuSans-Bold-64" transform="translate(189.599609 0)"/>
     <use xlink:href="#DejaVuSans-Bold-6f" transform="translate(261.181641 0)"/>
     <use xlink:href="#DejaVuSans-Bold-20" transform="translate(329.882812 0)"/>
     <use xlink:href="#DejaVuSans-Bold-7a" transform="translate(364.697266 0)"/>
     <use xlink:href="#DejaVuSans-Bold-6f" transform="translate(422.900391 0)"/>
     <use xlink:href="#DejaVuSans-Bold-6e" transform="translate(491.601562 0)"/>
     <use xlink:href="#DejaVuSans-Bold-61" transform="translate(562.792969 0)"/>
     <use xlink:href="#DejaVuSans-Bold-20" transform="translate(630.273438 0)"/>
     <use xlink:href="#DejaVuSans-Bold-2014" transform="translate(665.087891 0)"/>
     <use xlink:href="#DejaVuSans-Bold-20" transform="translate(765.087891 0)"/>
     <use xlink:href="#DejaVuSans-Bold-6f" transform="translate(799.902344 0)"/>
     <use xlink:href="#DejaVuSans-Bold-73" transform="translate(868.603516 0)"/>
     <use xlink:href="#DejaVuSans-Bold-63" transform="translate(928.125 0)"/>
     <use xlink:href="#DejaVuSans-Bold-69" transform="translate(987.402344 0)"/>
     <use xlink:href="#DejaVuSans-Bold-6c" transform="translate(1021.679688 0)"/>
     <use xlink:href="#DejaVuSans-Bold-6c" transform="translate(1055.957031 0)"/>
     <use xlink:href="#DejaVuSans-Bold-61" transform="translate(1090.234375 0)"/>
     <use xlink:href="#DejaVuSans-Bold-7a" transform="translate(1157.714844 0)"/>
     <use xlink:href="#DejaVuSans-Bold-69" transform="translate(1215.917969 0)"/>
     <use xlink:href="#DejaVuSans-Bold-6f" transform="translate(1250.195312 0)"/>
     <use xlink:href="#DejaVuSans-Bold-6e" transform="translate(1318.896484 0)"/>
     <use xlink:href="#DejaVuSans-Bold-65" transform="translate(1390.087891 0)"/>
     <use xlink:href="#DejaVuSans-Bold-20" transform="translate(1457.910156 0)"/>
     <use xlink:href="#DejaVuSans-Bold-74" transform="translate(1492.724609 0)"/>
     <use xlink:href="#DejaVuSans-Bold-72" transform="translate(1540.527344 0)"/>
     <use xlink:href="#DejaVuSans-Bold-61" transform="translate(1589.84375 0)"/>
     <use xlink:href="#DejaVuSans-Bold-73" transform="translate(1657.324219 0)"/>
     <use xlink:href="#DejaVuSans-Bold-76" transform="translate(1716.845703 0)"/>
     <use xlink:href="#DejaVuSans-Bold-65" transform="translate(1782.03125 0)"/>
     <use xlink:href="#DejaVuSans-Bold-72" transform="translate(1849.853516 0)"/>
     <use xlink:href="#DejaVuSans-Bold-73" transform="translate(1899.169922 0)"/>
     <use xlink:href="#DejaVuSans-Bold-61" transform="translate(1958.691406 0)"/>
    </g>
   </g>
  </g>
  <g id="text_6">
   <!-- Schemi di spostamento al centro e al bordo della zona in una catena monoatomica -->
   <g transform="translate(7.2 18.597656) scale(0.15 -0.15)">
    <defs>
     <path id="DejaVuSans-Bold-53" d="M 3834 4519 
L 3834 3531 
Q 3450 3703 3084 3790 
Q 2719 3878 2394 3878 
Q 1963 3878 1756 3759 
Q 1550 3641 1550 3391 
Q 1550 3203 1689 3098 
Q 1828 2994 2194 2919 
L 2706 2816 
Q 3484 2659 3812 2340 
Q 4141 2022 4141 1434 
Q 4141 663 3683 286 
Q 3225 -91 2284 -91 
Q 1841 -91 1394 -6 
Q 947 78 500 244 
L 500 1259 
Q 947 1022 1364 901 
Q 1781 781 2169 781 
Q 2563 781 2772 912 
Q 2981 1044 2981 1288 
Q 2981 1506 2839 1625 
Q 2697 1744 2272 1838 
L 1806 1941 
Q 1106 2091 782 2419 
Q 459 2747 459 3303 
Q 459 4000 909 4375 
Q 1359 4750 2203 4750 
Q 2588 4750 2994 4692 
Q 3400 4634 3834 4519 
z
" transform="scale(0.015625)"/>
     <path id="DejaVuSans-Bold-68" d="M 4056 2131 
L 4056 0 
L 2931 0 
L 2931 347 
L 2931 1625 
Q 2931 2084 2911 2256 
Q 2891 2428 2841 2509 
Q 2775 2619 2662 2680 
Q 2550 2741 2406 2741 
Q 2056 2741 1856 2470 
Q 1656 2200 1656 1722 
L 1656 0 
L 538 0 
L 538 4863 
L 1656 4863 
L 1656 2988 
Q 1909 3294 2193 3439 
Q 2478 3584 2822 3584 
Q 3428 3584 3742 3212 
Q 4056 2841 4056 2131 
z
" transform="scale(0.015625)"/>
     <path id="DejaVuSans-Bold-6d" d="M 3781 2919 
Q 3994 3244 4286 3414 
Q 4578 3584 4928 3584 
Q 5531 3584 5847 3212 
Q 6163 2841 6163 2131 
L 6163 0 
L 5038 0 
L 5038 1825 
Q 5041 1866 5042 1909 
Q 5044 1953 5044 2034 
Q 5044 2406 4934 2573 
Q 4825 2741 4581 2741 
Q 4263 2741 4089 2478 
Q 3916 2216 3909 1719 
L 3909 0 
L 2784 0 
L 2784 1825 
Q 2784 2406 2684 2573 
Q 2584 2741 2328 2741 
Q 2006 2741 1831 2477 
Q 1656 2213 1656 1722 
L 1656 0 
L 531 0 
L 531 3500 
L 1656 3500 
L 1656 2988 
Q 1863 3284 2130 3434 
Q 2397 3584 2719 3584 
Q 3081 3584 3359 3409 
Q 3638 3234 3781 2919 
z
" transform="scale(0.015625)"/>
     <path id="DejaVuSans-Bold-70" d="M 1656 506 
L 1656 -1331 
L 538 -1331 
L 538 3500 
L 1656 3500 
L 1656 2988 
Q 1888 3294 2169 3439 
Q 2450 3584 2816 3584 
Q 3463 3584 3878 3070 
Q 4294 2556 4294 1747 
Q 4294 938 3878 423 
Q 3463 -91 2816 -91 
Q 2450 -91 2169 54 
Q 1888 200 1656 506 
z
M 2400 2772 
Q 2041 2772 1848 2508 
Q 1656 2244 1656 1747 
Q 1656 1250 1848 986 
Q 2041 722 2400 722 
Q 2759 722 2948 984 
Q 3138 1247 3138 1747 
Q 3138 2247 2948 2509 
Q 2759 2772 2400 2772 
z
" transform="scale(0.015625)"/>
    </defs>
    <use xlink:href="#DejaVuSans-Bold-53"/>
    <use xlink:href="#DejaVuSans-Bold-63" transform="translate(72.021484 0)"/>
    <use xlink:href="#DejaVuSans-Bold-68" transform="translate(131.298828 0)"/>
    <use xlink:href="#DejaVuSans-Bold-65" transform="translate(202.490234 0)"/>
    <use xlink:href="#DejaVuSans-Bold-6d" transform="translate(270.3125 0)"/>
    <use xlink:href="#DejaVuSans-Bold-69" transform="translate(374.511719 0)"/>
    <use xlink:href="#DejaVuSans-Bold-20" transform="translate(408.789062 0)"/>
    <use xlink:href="#DejaVuSans-Bold-64" transform="translate(443.603516 0)"/>
    <use xlink:href="#DejaVuSans-Bold-69" transform="translate(515.185547 0)"/>
    <use xlink:href="#DejaVuSans-Bold-20" transform="translate(549.462891 0)"/>
    <use xlink:href="#DejaVuSans-Bold-73" transform="translate(584.277344 0)"/>
    <use xlink:href="#DejaVuSans-Bold-70" transform="translate(643.798828 0)"/>
    <use xlink:href="#DejaVuSans-Bold-6f" transform="translate(715.380859 0)"/>
    <use xlink:href="#DejaVuSans-Bold-73" transform="translate(784.082031 0)"/>
    <use xlink:href="#DejaVuSans-Bold-74" transform="translate(843.603516 0)"/>
    <use xlink:href="#DejaVuSans-Bold-61" transform="translate(891.40625 0)"/>
    <use xlink:href="#DejaVuSans-Bold-6d" transform="translate(958.886719 0)"/>
    <use xlink:href="#DejaVuSans-Bold-65" transform="translate(1063.085938 0)"/>
    <use xlink:href="#DejaVuSans-Bold-6e" transform="translate(1130.908203 0)"/>
    <use xlink:href="#DejaVuSans-Bold-74" transform="translate(1202.099609 0)"/>
    <use xlink:href="#DejaVuSans-Bold-6f" transform="translate(1249.902344 0)"/>
    <use xlink:href="#DejaVuSans-Bold-20" transform="translate(1318.603516 0)"/>
    <use xlink:href="#DejaVuSans-Bold-61" transform="translate(1353.417969 0)"/>
    <use xlink:href="#DejaVuSans-Bold-6c" transform="translate(1420.898438 0)"/>
    <use xlink:href="#DejaVuSans-Bold-20" transform="translate(1455.175781 0)"/>
    <use xlink:href="#DejaVuSans-Bold-63" transform="translate(1489.990234 0)"/>
    <use xlink:href="#DejaVuSans-Bold-65" transform="translate(1549.267578 0)"/>
    <use xlink:href="#DejaVuSans-Bold-6e" transform="translate(1617.089844 0)"/>
    <use xlink:href="#DejaVuSans-Bold-74" transform="translate(1688.28125 0)"/>
    <use xlink:href="#DejaVuSans-Bold-72" transform="translate(1736.083984 0)"/>
    <use xlink:href="#DejaVuSans-Bold-6f" transform="translate(1785.400391 0)"/>
    <use xlink:href="#DejaVuSans-Bold-20" transform="translate(1854.101562 0)"/>
    <use xlink:href="#DejaVuSans-Bold-65" transform="translate(1888.916016 0)"/>
    <use xlink:href="#DejaVuSans-Bold-20" transform="translate(1956.738281 0)"/>
    <use xlink:href="#DejaVuSans-Bold-61" transform="translate(1991.552734 0)"/>
    <use xlink:href="#DejaVuSans-Bold-6c" transform="translate(2059.033203 0)"/>
    <use xlink:href="#DejaVuSans-Bold-20" transform="translate(2093.310547 0)"/>
    <use xlink:href="#DejaVuSans-Bold-62" transform="translate(2128.125 0)"/>
    <use xlink:href="#DejaVuSans-Bold-6f" transform="translate(2199.707031 0)"/>
    <use xlink:href="#DejaVuSans-Bold-72" transform="translate(2268.408203 0)"/>
    <use xlink:href="#DejaVuSans-Bold-64" transform="translate(2317.724609 0)"/>
    <use xlink:href="#DejaVuSans-Bold-6f" transform="translate(2389.306641 0)"/>
    <use xlink:href="#DejaVuSans-Bold-20" transform="translate(2458.007812 0)"/>
    <use xlink:href="#DejaVuSans-Bold-64" transform="translate(2492.822266 0)"/>
    <use xlink:href="#DejaVuSans-Bold-65" transform="translate(2564.404297 0)"/>
    <use xlink:href="#DejaVuSans-Bold-6c" transform="translate(2632.226562 0)"/>
    <use xlink:href="#DejaVuSans-Bold-6c" transform="translate(2666.503906 0)"/>
    <use xlink:href="#DejaVuSans-Bold-61" transform="translate(2700.78125 0)"/>
    <use xlink:href="#DejaVuSans-Bold-20" transform="translate(2768.261719 0)"/>
    <use xlink:href="#DejaVuSans-Bold-7a" transform="translate(2803.076172 0)"/>
    <use xlink:href="#DejaVuSans-Bold-6f" transform="translate(2861.279297 0)"/>
    <use xlink:href="#DejaVuSans-Bold-6e" transform="translate(2929.980469 0)"/>
    <use xlink:href="#DejaVuSans-Bold-61" transform="translate(3001.171875 0)"/>
    <use xlink:href="#DejaVuSans-Bold-20" transform="translate(3068.652344 0)"/>
    <use xlink:href="#DejaVuSans-Bold-69" transform="translate(3103.466797 0)"/>
    <use xlink:href="#DejaVuSans-Bold-6e" transform="translate(3137.744141 0)"/>
    <use xlink:href="#DejaVuSans-Bold-20" transform="translate(3208.935547 0)"/>
    <use xlink:href="#DejaVuSans-Bold-75" transform="translate(3243.75 0)"/>
    <use xlink:href="#DejaVuSans-Bold-6e" transform="translate(3314.941406 0)"/>
    <use xlink:href="#DejaVuSans-Bold-61" transform="translate(3386.132812 0)"/>
    <use xlink:href="#DejaVuSans-Bold-20" transform="translate(3453.613281 0)"/>
    <use xlink:href="#DejaVuSans-Bold-63" transform="translate(3488.427734 0)"/>
    <use xlink:href="#DejaVuSans-Bold-61" transform="translate(3547.705078 0)"/>
    <use xlink:href="#DejaVuSans-Bold-74" transform="translate(3615.185547 0)"/>
    <use xlink:href="#DejaVuSans-Bold-65" transform="translate(3662.988281 0)"/>
    <use xlink:href="#DejaVuSans-Bold-6e" transform="translate(3730.810547 0)"/>
    <use xlink:href="#DejaVuSans-Bold-61" transform="translate(3802.001953 0)"/>
    <use xlink:href="#DejaVuSans-Bold-20" transform="translate(3869.482422 0)"/>
    <use xlink:href="#DejaVuSans-Bold-6d" transform="translate(3904.296875 0)"/>
    <use xlink:href="#DejaVuSans-Bold-6f" transform="translate(4008.496094 0)"/>
    <use xlink:href="#DejaVuSans-Bold-6e" transform="translate(4077.197266 0)"/>
    <use xlink:href="#DejaVuSans-Bold-6f" transform="translate(4148.388672 0)"/>
    <use xlink:href="#DejaVuSans-Bold-61" transform="translate(4217.089844 0)"/>
    <use xlink:href="#DejaVuSans-Bold-74" transform="translate(4284.570312 0)"/>
    <use xlink:href="#DejaVuSans-Bold-6f" transform="translate(4332.373047 0)"/>
    <use xlink:href="#DejaVuSans-Bold-6d" transform="translate(4401.074219 0)"/>
    <use xlink:href="#DejaVuSans-Bold-69" transform="translate(4505.273438 0)"/>
    <use xlink:href="#DejaVuSans-Bold-63" transform="translate(4539.550781 0)"/>
    <use xlink:href="#DejaVuSans-Bold-61" transform="translate(4598.828125 0)"/>
   </g>
  </g>
  <g id="text_7">
   <!-- Al centro della zona gli ioni oscillano in fase; al bordo della zona gli spostamenti di siti adiacenti cambiano segno. -->
   <g transform="translate(72.780078 615.456) scale(0.1 -0.1)">
    <defs>
     <path id="DejaVuSans-41" d="M 2188 4044 
L 1331 1722 
L 3047 1722 
L 2188 4044 
z
M 1831 4666 
L 2547 4666 
L 4325 0 
L 3669 0 
L 3244 1197 
L 1141 1197 
L 716 0 
L 50 0 
L 1831 4666 
z
" transform="scale(0.015625)"/>
     <path id="DejaVuSans-6f" d="M 1959 3097 
Q 1497 3097 1228 2736 
Q 959 2375 959 1747 
Q 959 1119 1226 758 
Q 1494 397 1959 397 
Q 2419 397 2687 759 
Q 2956 1122 2956 1747 
Q 2956 2369 2687 2733 
Q 2419 3097 1959 3097 
z
M 1959 3584 
Q 2709 3584 3137 3096 
Q 3566 2609 3566 1747 
Q 3566 888 3137 398 
Q 2709 -91 1959 -91 
Q 1206 -91 779 398 
Q 353 888 353 1747 
Q 353 2609 779 3096 
Q 1206 3584 1959 3584 
z
" transform="scale(0.015625)"/>
     <path id="DejaVuSans-64" d="M 2906 2969 
L 2906 4863 
L 3481 4863 
L 3481 0 
L 2906 0 
L 2906 525 
Q 2725 213 2448 61 
Q 2172 -91 1784 -91 
Q 1150 -91 751 415 
Q 353 922 353 1747 
Q 353 2572 751 3078 
Q 1150 3584 1784 3584 
Q 2172 3584 2448 3432 
Q 2725 3281 2906 2969 
z
M 947 1747 
Q 947 1113 1208 752 
Q 1469 391 1925 391 
Q 2381 391 2643 752 
Q 2906 1113 2906 1747 
Q 2906 2381 2643 2742 
Q 2381 3103 1925 3103 
Q 1469 3103 1208 2742 
Q 947 2381 947 1747 
z
" transform="scale(0.015625)"/>
     <path id="DejaVuSans-7a" d="M 353 3500 
L 3084 3500 
L 3084 2975 
L 922 459 
L 3084 459 
L 3084 0 
L 275 0 
L 275 525 
L 2438 3041 
L 353 3041 
L 353 3500 
z
" transform="scale(0.015625)"/>
     <path id="DejaVuSans-67" d="M 2906 1791 
Q 2906 2416 2648 2759 
Q 2391 3103 1925 3103 
Q 1463 3103 1205 2759 
Q 947 2416 947 1791 
Q 947 1169 1205 825 
Q 1463 481 1925 481 
Q 2391 481 2648 825 
Q 2906 1169 2906 1791 
z
M 3481 434 
Q 3481 -459 3084 -895 
Q 2688 -1331 1869 -1331 
Q 1566 -1331 1297 -1286 
Q 1028 -1241 775 -1147 
L 775 -588 
Q 1028 -725 1275 -790 
Q 1522 -856 1778 -856 
Q 2344 -856 2625 -561 
Q 2906 -266 2906 331 
L 2906 616 
Q 2728 306 2450 153 
Q 2172 0 1784 0 
Q 1141 0 747 490 
Q 353 981 353 1791 
Q 353 2603 747 3093 
Q 1141 3584 1784 3584 
Q 2172 3584 2450 3431 
Q 2728 3278 2906 2969 
L 2906 3500 
L 3481 3500 
L 3481 434 
z
" transform="scale(0.015625)"/>
     <path id="DejaVuSans-69" d="M 603 3500 
L 1178 3500 
L 1178 0 
L 603 0 
L 603 3500 
z
M 603 4863 
L 1178 4863 
L 1178 4134 
L 603 4134 
L 603 4863 
z
" transform="scale(0.015625)"/>
     <path id="DejaVuSans-73" d="M 2834 3397 
L 2834 2853 
Q 2591 2978 2328 3040 
Q 2066 3103 1784 3103 
Q 1356 3103 1142 2972 
Q 928 2841 928 2578 
Q 928 2378 1081 2264 
Q 1234 2150 1697 2047 
L 1894 2003 
Q 2506 1872 2764 1633 
Q 3022 1394 3022 966 
Q 3022 478 2636 193 
Q 2250 -91 1575 -91 
Q 1294 -91 989 -36 
Q 684 19 347 128 
L 347 722 
Q 666 556 975 473 
Q 1284 391 1588 391 
Q 1994 391 2212 530 
Q 2431 669 2431 922 
Q 2431 1156 2273 1281 
Q 2116 1406 1581 1522 
L 1381 1569 
Q 847 1681 609 1914 
Q 372 2147 372 2553 
Q 372 3047 722 3315 
Q 1072 3584 1716 3584 
Q 2034 3584 2315 3537 
Q 2597 3491 2834 3397 
z
" transform="scale(0.015625)"/>
     <path id="DejaVuSans-66" d="M 2375 4863 
L 2375 4384 
L 1825 4384 
Q 1516 4384 1395 4259 
Q 1275 4134 1275 3809 
L 1275 3500 
L 2222 3500 
L 2222 3053 
L 1275 3053 
L 1275 0 
L 697 0 
L 697 3053 
L 147 3053 
L 147 3500 
L 697 3500 
L 697 3744 
Q 697 4328 969 4595 
Q 1241 4863 1831 4863 
L 2375 4863 
z
" transform="scale(0.015625)"/>
     <path id="DejaVuSans-3b" d="M 750 3309 
L 1409 3309 
L 1409 2516 
L 750 2516 
L 750 3309 
z
M 750 794 
L 1409 794 
L 1409 256 
L 897 -744 
L 494 -744 
L 750 256 
L 750 794 
z
" transform="scale(0.015625)"/>
     <path id="DejaVuSans-62" d="M 3116 1747 
Q 3116 2381 2855 2742 
Q 2594 3103 2138 3103 
Q 1681 3103 1420 2742 
Q 1159 2381 1159 1747 
Q 1159 1113 1420 752 
Q 1681 391 2138 391 
Q 2594 391 2855 752 
Q 3116 1113 3116 1747 
z
M 1159 2969 
Q 1341 3281 1617 3432 
Q 1894 3584 2278 3584 
Q 2916 3584 3314 3078 
Q 3713 2572 3713 1747 
Q 3713 922 3314 415 
Q 2916 -91 2278 -91 
Q 1894 -91 1617 61 
Q 1341 213 1159 525 
L 1159 0 
L 581 0 
L 581 4863 
L 1159 4863 
L 1159 2969 
z
" transform="scale(0.015625)"/>
     <path id="DejaVuSans-70" d="M 1159 525 
L 1159 -1331 
L 581 -1331 
L 581 3500 
L 1159 3500 
L 1159 2969 
Q 1341 3281 1617 3432 
Q 1894 3584 2278 3584 
Q 2916 3584 3314 3078 
Q 3713 2572 3713 1747 
Q 3713 922 3314 415 
Q 2916 -91 2278 -91 
Q 1894 -91 1617 61 
Q 1341 213 1159 525 
z
M 3116 1747 
Q 3116 2381 2855 2742 
Q 2594 3103 2138 3103 
Q 1681 3103 1420 2742 
Q 1159 2381 1159 1747 
Q 1159 1113 1420 752 
Q 1681 391 2138 391 
Q 2594 391 2855 752 
Q 3116 1113 3116 1747 
z
" transform="scale(0.015625)"/>
     <path id="DejaVuSans-2e" d="M 684 794 
L 1344 794 
L 1344 0 
L 684 0 
L 684 794 
z
" transform="scale(0.015625)"/>
    </defs>
    <use xlink:href="#DejaVuSans-41"/>
    <use xlink:href="#DejaVuSans-6c" transform="translate(68.408203 0)"/>
    <use xlink:href="#DejaVuSans-20" transform="translate(96.191406 0)"/>
    <use xlink:href="#DejaVuSans-63" transform="translate(127.978516 0)"/>
    <use xlink:href="#DejaVuSans-65" transform="translate(182.958984 0)"/>
    <use xlink:href="#DejaVuSans-6e" transform="translate(244.482422 0)"/>
    <use xlink:href="#DejaVuSans-74" transform="translate(307.861328 0)"/>
    <use xlink:href="#DejaVuSans-72" transform="translate(347.070312 0)"/>
    <use xlink:href="#DejaVuSans-6f" transform="translate(385.933594 0)"/>
    <use xlink:href="#DejaVuSans-20" transform="translate(447.115234 0)"/>
    <use xlink:href="#DejaVuSans-64" transform="translate(478.902344 0)"/>
    <use xlink:href="#DejaVuSans-65" transform="translate(542.378906 0)"/>
    <use xlink:href="#DejaVuSans-6c" transform="translate(603.902344 0)"/>
    <use xlink:href="#DejaVuSans-6c" transform="translate(631.685547 0)"/>
    <use xlink:href="#DejaVuSans-61" transform="translate(659.46875 0)"/>
    <use xlink:href="#DejaVuSans-20" transform="translate(720.748047 0)"/>
    <use xlink:href="#DejaVuSans-7a" transform="translate(752.535156 0)"/>
    <use xlink:href="#DejaVuSans-6f" transform="translate(805.025391 0)"/>
    <use xlink:href="#DejaVuSans-6e" transform="translate(866.207031 0)"/>
    <use xlink:href="#DejaVuSans-61" transform="translate(929.585938 0)"/>
    <use xlink:href="#DejaVuSans-20" transform="translate(990.865234 0)"/>
    <use xlink:href="#DejaVuSans-67" transform="translate(1022.652344 0)"/>
    <use xlink:href="#DejaVuSans-6c" transform="translate(1086.128906 0)"/>
    <use xlink:href="#DejaVuSans-69" transform="translate(1113.912109 0)"/>
    <use xlink:href="#DejaVuSans-20" transform="translate(1141.695312 0)"/>
    <use xlink:href="#DejaVuSans-69" transform="translate(1173.482422 0)"/>
    <use xlink:href="#DejaVuSans-6f" transform="translate(1201.265625 0)"/>
    <use xlink:href="#DejaVuSans-6e" transform="translate(1262.447266 0)"/>
    <use xlink:href="#DejaVuSans-69" transform="translate(1325.826172 0)"/>
    <use xlink:href="#DejaVuSans-20" transform="translate(1353.609375 0)"/>
    <use xlink:href="#DejaVuSans-6f" transform="translate(1385.396484 0)"/>
    <use xlink:href="#DejaVuSans-73" transform="translate(1446.578125 0)"/>
    <use xlink:href="#DejaVuSans-63" transform="translate(1498.677734 0)"/>
    <use xlink:href="#DejaVuSans-69" transform="translate(1553.658203 0)"/>
    <use xlink:href="#DejaVuSans-6c" transform="translate(1581.441406 0)"/>
    <use xlink:href="#DejaVuSans-6c" transform="translate(1609.224609 0)"/>
    <use xlink:href="#DejaVuSans-61" transform="translate(1637.007812 0)"/>
    <use xlink:href="#DejaVuSans-6e" transform="translate(1698.287109 0)"/>
    <use xlink:href="#DejaVuSans-6f" transform="translate(1761.666016 0)"/>
    <use xlink:href="#DejaVuSans-20" transform="translate(1822.847656 0)"/>
    <use xlink:href="#DejaVuSans-69" transform="translate(1854.634766 0)"/>
    <use xlink:href="#DejaVuSans-6e" transform="translate(1882.417969 0)"/>
    <use xlink:href="#DejaVuSans-20" transform="translate(1945.796875 0)"/>
    <use xlink:href="#DejaVuSans-66" transform="translate(1977.583984 0)"/>
    <use xlink:href="#DejaVuSans-61" transform="translate(2012.789062 0)"/>
    <use xlink:href="#DejaVuSans-73" transform="translate(2074.068359 0)"/>
    <use xlink:href="#DejaVuSans-65" transform="translate(2126.167969 0)"/>
    <use xlink:href="#DejaVuSans-3b" transform="translate(2187.691406 0)"/>
    <use xlink:href="#DejaVuSans-20" transform="translate(2221.382812 0)"/>
    <use xlink:href="#DejaVuSans-61" transform="translate(2253.169922 0)"/>
    <use xlink:href="#DejaVuSans-6c" transform="translate(2314.449219 0)"/>
    <use xlink:href="#DejaVuSans-20" transform="translate(2342.232422 0)"/>
    <use xlink:href="#DejaVuSans-62" transform="translate(2374.019531 0)"/>
    <use xlink:href="#DejaVuSans-6f" transform="translate(2437.496094 0)"/>
    <use xlink:href="#DejaVuSans-72" transform="translate(2498.677734 0)"/>
    <use xlink:href="#DejaVuSans-64" transform="translate(2538.041016 0)"/>
    <use xlink:href="#DejaVuSans-6f" transform="translate(2601.517578 0)"/>
    <use xlink:href="#DejaVuSans-20" transform="translate(2662.699219 0)"/>
    <use xlink:href="#DejaVuSans-64" transform="translate(2694.486328 0)"/>
    <use xlink:href="#DejaVuSans-65" transform="translate(2757.962891 0)"/>
    <use xlink:href="#DejaVuSans-6c" transform="translate(2819.486328 0)"/>
    <use xlink:href="#DejaVuSans-6c" transform="translate(2847.269531 0)"/>
    <use xlink:href="#DejaVuSans-61" transform="translate(2875.052734 0)"/>
    <use xlink:href="#DejaVuSans-20" transform="translate(2936.332031 0)"/>
    <use xlink:href="#DejaVuSans-7a" transform="translate(2968.119141 0)"/>
    <use xlink:href="#DejaVuSans-6f" transform="translate(3020.609375 0)"/>
    <use xlink:href="#DejaVuSans-6e" transform="translate(3081.791016 0)"/>
    <use xlink:href="#DejaVuSans-61" transform="translate(3145.169922 0)"/>
    <use xlink:href="#DejaVuSans-20" transform="translate(3206.449219 0)"/>
    <use xlink:href="#DejaVuSans-67" transform="translate(3238.236328 0)"/>
    <use xlink:href="#DejaVuSans-6c" transform="translate(3301.712891 0)"/>
    <use xlink:href="#DejaVuSans-69" transform="translate(3329.496094 0)"/>
    <use xlink:href="#DejaVuSans-20" transform="translate(3357.279297 0)"/>
    <use xlink:href="#DejaVuSans-73" transform="translate(3389.066406 0)"/>
    <use xlink:href="#DejaVuSans-70" transform="translate(3441.166016 0)"/>
    <use xlink:href="#DejaVuSans-6f" transform="translate(3504.642578 0)"/>
    <use xlink:href="#DejaVuSans-73" transform="translate(3565.824219 0)"/>
    <use xlink:href="#DejaVuSans-74" transform="translate(3617.923828 0)"/>
    <use xlink:href="#DejaVuSans-61" transform="translate(3657.132812 0)"/>
    <use xlink:href="#DejaVuSans-6d" transform="translate(3718.412109 0)"/>
    <use xlink:href="#DejaVuSans-65" transform="translate(3815.824219 0)"/>
    <use xlink:href="#DejaVuSans-6e" transform="translate(3877.347656 0)"/>
    <use xlink:href="#DejaVuSans-74" transform="translate(3940.726562 0)"/>
    <use xlink:href="#DejaVuSans-69" transform="translate(3979.935547 0)"/>
    <use xlink:href="#DejaVuSans-20" transform="translate(4007.71875 0)"/>
    <use xlink:href="#DejaVuSans-64" transform="translate(4039.505859 0)"/>
    <use xlink:href="#DejaVuSans-69" transform="translate(4102.982422 0)"/>
    <use xlink:href="#DejaVuSans-20" transform="translate(4130.765625 0)"/>
    <use xlink:href="#DejaVuSans-73" transform="translate(4162.552734 0)"/>
    <use xlink:href="#DejaVuSans-69" transform="translate(4214.652344 0)"/>
    <use xlink:href="#DejaVuSans-74" transform="translate(4242.435547 0)"/>
    <use xlink:href="#DejaVuSans-69" transform="translate(4281.644531 0)"/>
    <use xlink:href="#DejaVuSans-20" transform="translate(4309.427734 0)"/>
    <use xlink:href="#DejaVuSans-61" transform="translate(4341.214844 0)"/>
    <use xlink:href="#DejaVuSans-64" transform="translate(4402.494141 0)"/>
    <use xlink:href="#DejaVuSans-69" transform="translate(4465.970703 0)"/>
    <use xlink:href="#DejaVuSans-61" transform="translate(4493.753906 0)"/>
    <use xlink:href="#DejaVuSans-63" transform="translate(4555.033203 0)"/>
    <use xlink:href="#DejaVuSans-65" transform="translate(4610.013672 0)"/>
    <use xlink:href="#DejaVuSans-6e" transform="translate(4671.537109 0)"/>
    <use xlink:href="#DejaVuSans-74" transform="translate(4734.916016 0)"/>
    <use xlink:href="#DejaVuSans-69" transform="translate(4774.125 0)"/>
    <use xlink:href="#DejaVuSans-20" transform="translate(4801.908203 0)"/>
    <use xlink:href="#DejaVuSans-63" transform="translate(4833.695312 0)"/>
    <use xlink:href="#DejaVuSans-61" transform="translate(4888.675781 0)"/>
    <use xlink:href="#DejaVuSans-6d" transform="translate(4949.955078 0)"/>
    <use xlink:href="#DejaVuSans-62" transform="translate(5047.367188 0)"/>
    <use xlink:href="#DejaVuSans-69" transform="translate(5110.84375 0)"/>
    <use xlink:href="#DejaVuSans-61" transform="translate(5138.626953 0)"/>
    <use xlink:href="#DejaVuSans-6e" transform="translate(5199.90625 0)"/>
    <use xlink:href="#DejaVuSans-6f" transform="translate(5263.285156 0)"/>
    <use xlink:href="#DejaVuSans-20" transform="translate(5324.466797 0)"/>
    <use xlink:href="#DejaVuSans-73" transform="translate(5356.253906 0)"/>
    <use xlink:href="#DejaVuSans-65" transform="translate(5408.353516 0)"/>
    <use xlink:href="#DejaVuSans-67" transform="translate(5469.876953 0)"/>
    <use xlink:href="#DejaVuSans-6e" transform="translate(5533.353516 0)"/>
    <use xlink:href="#DejaVuSans-6f" transform="translate(5596.732422 0)"/>
    <use xlink:href="#DejaVuSans-2e" transform="translate(5656.164062 0)"/>
   </g>
  </g>
 </g>
 <defs>
  <clipPath id="pf383e32ca0">
   <rect x="166.282262" y="73.728" width="403.024696" height="106.05913"/>
  </clipPath>
  <clipPath id="pe08cd3e55b">
   <rect x="166.282262" y="200.998957" width="403.024696" height="106.05913"/>
  </clipPath>
  <clipPath id="pf6c3428042">
   <rect x="166.282262" y="328.269913" width="403.024696" height="106.05913"/>
  </clipPath>
  <clipPath id="paa8a832993">
   <rect x="166.282262" y="455.54087" width="403.024696" height="106.05913"/>
  </clipPath>
 </defs>
</svg>
