<?xml version="1.0" encoding="utf-8" standalone="no"?>
<!DOCTYPE svg PUBLIC "-//W3C//DTD SVG 1.1//EN"
  "http://www.w3.org/Graphics/SVG/1.1/DTD/svg11.dtd">
<svg xmlns:xlink="http://www.w3.org/1999/xlink" width="656.305297pt" height="387.069656pt" viewBox="0 0 656.305297 387.069656" xmlns="http://www.w3.org/2000/svg" version="1.1">
 <metadata>
  <rdf:RDF xmlns:dc="http://purl.org/dc/elements/1.1/" xmlns:cc="http://creativecommons.org/ns#" xmlns:rdf="http://www.w3.org/1999/02/22-rdf-syntax-ns#">
   <cc:Work>
    <dc:type rdf:resource="http://purl.org/dc/dcmitype/StillImage"/>
    <dc:date>2026-06-16T08:18:21.647233</dc:date>
    <dc:format>image/svg+xml</dc:format>
    <dc:creator>
     <cc:Agent>
      <dc:title>Matplotlib v3.10.8, https://matplotlib.org/</dc:title>
     </cc:Agent>
    </dc:creator>
   </cc:Work>
  </rdf:RDF>
 </metadata>
 <defs>
  <style type="text/css">*{stroke-linejoin: round; stroke-linecap: butt}</style>
 </defs>
 <g id="figure_1">
  <g id="patch_1">
   <path d="M 0 387.069656 
L 656.305297 387.069656 
L 656.305297 -0 
L 0 -0 
z
" style="fill: #ffffff"/>
  </g>
  <g id="axes_1">
   <g id="patch_2">
    <path d="M 73.278486 132.547321 
C 75.281254 132.547321 77.202264 131.751613 78.618435 130.335442 
C 80.034605 128.919271 80.830314 126.998262 80.830314 124.995494 
C 80.830314 122.992726 80.034605 121.071717 78.618435 119.655546 
C 77.202264 118.239375 75.281254 117.443667 73.278486 117.443667 
C 71.275719 117.443667 69.354709 118.239375 67.938538 119.655546 
C 66.522368 121.071717 65.726659 122.992726 65.726659 124.995494 
C 65.726659 126.998262 66.522368 128.919271 67.938538 130.335442 
C 69.354709 131.751613 71.275719 132.547321 73.278486 132.547321 
L 73.278486 132.547321 
z
" clip-path="url(#p27e435c5b9)" style="fill: none; stroke: #000000; stroke-width: 1.4; stroke-linejoin: miter"/>
   </g>
   <g id="patch_3">
    <path d="M 113.397568 132.547321 
C 115.400336 132.547321 117.321345 131.751613 118.737516 130.335442 
C 120.153686 128.919271 120.949395 126.998262 120.949395 124.995494 
C 120.949395 122.992726 120.153686 121.071717 118.737516 119.655546 
C 117.321345 118.239375 115.400336 117.443667 113.397568 117.443667 
C 111.3948 117.443667 109.47379 118.239375 108.057619 119.655546 
C 106.641449 121.071717 105.845741 122.992726 105.845741 124.995494 
C 105.845741 126.998262 106.641449 128.919271 108.057619 130.335442 
C 109.47379 131.751613 111.3948 132.547321 113.397568 132.547321 
L 113.397568 132.547321 
z
" clip-path="url(#p27e435c5b9)" style="fill: none; stroke: #000000; stroke-width: 1.4; stroke-linejoin: miter"/>
   </g>
   <g id="patch_4">
    <path d="M 153.516649 132.547321 
C 155.519417 132.547321 157.440426 131.751613 158.856597 130.335442 
C 160.272768 128.919271 161.068476 126.998262 161.068476 124.995494 
C 161.068476 122.992726 160.272768 121.071717 158.856597 119.655546 
C 157.440426 118.239375 155.519417 117.443667 153.516649 117.443667 
C 151.513881 117.443667 149.592871 118.239375 148.176701 119.655546 
C 146.76053 121.071717 145.964822 122.992726 145.964822 124.995494 
C 145.964822 126.998262 146.76053 128.919271 148.176701 130.335442 
C 149.592871 131.751613 151.513881 132.547321 153.516649 132.547321 
L 153.516649 132.547321 
z
" clip-path="url(#p27e435c5b9)" style="fill: none; stroke: #000000; stroke-width: 1.4; stroke-linejoin: miter"/>
   </g>
   <g id="patch_5">
    <path d="M 193.63573 132.547321 
C 195.638498 132.547321 197.559507 131.751613 198.975678 130.335442 
C 200.391849 128.919271 201.187557 126.998262 201.187557 124.995494 
C 201.187557 122.992726 200.391849 121.071717 198.975678 119.655546 
C 197.559507 118.239375 195.638498 117.443667 193.63573 117.443667 
C 191.632962 117.443667 189.711952 118.239375 188.295782 119.655546 
C 186.879611 121.071717 186.083903 122.992726 186.083903 124.995494 
C 186.083903 126.998262 186.879611 128.919271 188.295782 130.335442 
C 189.711952 131.751613 191.632962 132.547321 193.63573 132.547321 
L 193.63573 132.547321 
z
" clip-path="url(#p27e435c5b9)" style="fill: none; stroke: #000000; stroke-width: 1.4; stroke-linejoin: miter"/>
   </g>
   <g id="patch_6">
    <path d="M 233.754811 132.547321 
C 235.757579 132.547321 237.678588 131.751613 239.094759 130.335442 
C 240.51093 128.919271 241.306638 126.998262 241.306638 124.995494 
C 241.306638 122.992726 240.51093 121.071717 239.094759 119.655546 
C 237.678588 118.239375 235.757579 117.443667 233.754811 117.443667 
C 231.752043 117.443667 229.831033 118.239375 228.414863 119.655546 
C 226.998692 121.071717 226.202984 122.992726 226.202984 124.995494 
C 226.202984 126.998262 226.998692 128.919271 228.414863 130.335442 
C 229.831033 131.751613 231.752043 132.547321 233.754811 132.547321 
L 233.754811 132.547321 
z
" clip-path="url(#p27e435c5b9)" style="fill: none; stroke: #000000; stroke-width: 1.4; stroke-linejoin: miter"/>
   </g>
   <g id="patch_7">
    <path d="M 273.873892 132.547321 
C 275.87666 132.547321 277.797669 131.751613 279.21384 130.335442 
C 280.630011 128.919271 281.425719 126.998262 281.425719 124.995494 
C 281.425719 122.992726 280.630011 121.071717 279.21384 119.655546 
C 277.797669 118.239375 275.87666 117.443667 273.873892 117.443667 
C 271.871124 117.443667 269.950115 118.239375 268.533944 119.655546 
C 267.117773 121.071717 266.322065 122.992726 266.322065 124.995494 
C 266.322065 126.998262 267.117773 128.919271 268.533944 130.335442 
C 269.950115 131.751613 271.871124 132.547321 273.873892 132.547321 
L 273.873892 132.547321 
z
" clip-path="url(#p27e435c5b9)" style="fill: none; stroke: #000000; stroke-width: 1.4; stroke-linejoin: miter"/>
   </g>
   <g id="patch_8">
    <path d="M 313.992973 132.547321 
C 315.995741 132.547321 317.91675 131.751613 319.332921 130.335442 
C 320.749092 128.919271 321.5448 126.998262 321.5448 124.995494 
C 321.5448 122.992726 320.749092 121.071717 319.332921 119.655546 
C 317.91675 118.239375 315.995741 117.443667 313.992973 117.443667 
C 311.990205 117.443667 310.069196 118.239375 308.653025 119.655546 
C 307.236854 121.071717 306.441146 122.992726 306.441146 124.995494 
C 306.441146 126.998262 307.236854 128.919271 308.653025 130.335442 
C 310.069196 131.751613 311.990205 132.547321 313.992973 132.547321 
L 313.992973 132.547321 
z
" clip-path="url(#p27e435c5b9)" style="fill: none; stroke: #000000; stroke-width: 1.4; stroke-linejoin: miter"/>
   </g>
   <g id="patch_9">
    <path d="M 133.693103 147.650975 
L 173.812184 147.650975 
L 173.812184 102.340013 
L 133.693103 102.340013 
z
" clip-path="url(#p27e435c5b9)" style="fill: #1f77b4; opacity: 0.1"/>
   </g>
   <g id="patch_10">
    <path d="M 577.209097 180.857258 
C 578.961519 180.857258 580.642402 180.161013 581.881552 178.921864 
C 583.120701 177.682714 583.816946 176.001831 583.816946 174.249409 
C 583.816946 172.496987 583.120701 170.816104 581.881552 169.576955 
C 580.642402 168.337805 578.961519 167.641561 577.209097 167.641561 
C 575.456675 167.641561 573.775792 168.337805 572.536642 169.576955 
C 571.297493 170.816104 570.601248 172.496987 570.601248 174.249409 
C 570.601248 176.001831 571.297493 177.682714 572.536642 178.921864 
C 573.775792 180.161013 575.456675 180.857258 577.209097 180.857258 
L 577.209097 180.857258 
z
" clip-path="url(#p27e435c5b9)" style="fill: none; stroke: #000000; stroke-width: 1.3; stroke-linejoin: miter"/>
   </g>
   <g id="patch_11">
    <path d="M 550.944742 135.36606 
C 552.697164 135.36606 554.378047 134.669816 555.617196 133.430666 
C 556.856346 132.191517 557.55259 130.510634 557.55259 128.758212 
C 557.55259 127.00579 556.856346 125.324907 555.617196 124.085757 
C 554.378047 122.846608 552.697164 122.150363 550.944742 122.150363 
C 549.19232 122.150363 547.511437 122.846608 546.272287 124.085757 
C 545.033138 125.324907 544.336893 127.00579 544.336893 128.758212 
C 544.336893 130.510634 545.033138 132.191517 546.272287 133.430666 
C 547.511437 134.669816 549.19232 135.36606 550.944742 135.36606 
L 550.944742 135.36606 
z
" clip-path="url(#p27e435c5b9)" style="fill: none; stroke: #000000; stroke-width: 1.3; stroke-linejoin: miter"/>
   </g>
   <g id="patch_12">
    <path d="M 505.453544 109.101705 
C 507.205966 109.101705 508.886849 108.405461 510.125999 107.166311 
C 511.365148 105.927162 512.061393 104.246279 512.061393 102.493857 
C 512.061393 100.741435 511.365148 99.060551 510.125999 97.821402 
C 508.886849 96.582253 507.205966 95.886008 505.453544 95.886008 
C 503.701122 95.886008 502.020239 96.582253 500.78109 97.821402 
C 499.54194 99.060551 498.845696 100.741435 498.845696 102.493857 
C 498.845696 104.246279 499.54194 105.927162 500.78109 107.166311 
C 502.020239 108.405461 503.701122 109.101705 505.453544 109.101705 
L 505.453544 109.101705 
z
" clip-path="url(#p27e435c5b9)" style="fill: none; stroke: #000000; stroke-width: 1.3; stroke-linejoin: miter"/>
   </g>
   <g id="patch_13">
    <path d="M 452.924834 109.101705 
C 454.677256 109.101705 456.358139 108.405461 457.597289 107.166311 
C 458.836438 105.927162 459.532683 104.246279 459.532683 102.493857 
C 459.532683 100.741435 458.836438 99.060551 457.597289 97.821402 
C 456.358139 96.582253 454.677256 95.886008 452.924834 95.886008 
C 451.172412 95.886008 449.491529 96.582253 448.252379 97.821402 
C 447.01323 99.060551 446.316985 100.741435 446.316985 102.493857 
C 446.316985 104.246279 447.01323 105.927162 448.252379 107.166311 
C 449.491529 108.405461 451.172412 109.101705 452.924834 109.101705 
L 452.924834 109.101705 
z
" clip-path="url(#p27e435c5b9)" style="fill: none; stroke: #000000; stroke-width: 1.3; stroke-linejoin: miter"/>
   </g>
   <g id="patch_14">
    <path d="M 407.433637 135.36606 
C 409.186059 135.36606 410.866942 134.669816 412.106091 133.430666 
C 413.345241 132.191517 414.041485 130.510634 414.041485 128.758212 
C 414.041485 127.00579 413.345241 125.324907 412.106091 124.085757 
C 410.866942 122.846608 409.186059 122.150363 407.433637 122.150363 
C 405.681215 122.150363 404.000331 122.846608 402.761182 124.085757 
C 401.522033 125.324907 400.825788 127.00579 400.825788 128.758212 
C 400.825788 130.510634 401.522033 132.191517 402.761182 133.430666 
C 404.000331 134.669816 405.681215 135.36606 407.433637 135.36606 
L 407.433637 135.36606 
z
" clip-path="url(#p27e435c5b9)" style="fill: none; stroke: #000000; stroke-width: 1.3; stroke-linejoin: miter"/>
   </g>
   <g id="patch_15">
    <path d="M 381.169281 180.857258 
C 382.921703 180.857258 384.602587 180.161013 385.841736 178.921864 
C 387.080885 177.682714 387.77713 176.001831 387.77713 174.249409 
C 387.77713 172.496987 387.080885 170.816104 385.841736 169.576955 
C 384.602587 168.337805 382.921703 167.641561 381.169281 167.641561 
C 379.41686 167.641561 377.735976 168.337805 376.496827 169.576955 
C 375.257677 170.816104 374.561433 172.496987 374.561433 174.249409 
C 374.561433 176.001831 375.257677 177.682714 376.496827 178.921864 
C 377.735976 180.161013 379.41686 180.857258 381.169281 180.857258 
L 381.169281 180.857258 
z
" clip-path="url(#p27e435c5b9)" style="fill: none; stroke: #000000; stroke-width: 1.3; stroke-linejoin: miter"/>
   </g>
   <g id="patch_16">
    <path d="M 381.169281 233.385968 
C 382.921703 233.385968 384.602587 232.689724 385.841736 231.450574 
C 387.080885 230.211425 387.77713 228.530541 387.77713 226.778119 
C 387.77713 225.025698 387.080885 223.344814 385.841736 222.105665 
C 384.602587 220.866515 382.921703 220.170271 381.169281 220.170271 
C 379.41686 220.170271 377.735976 220.866515 376.496827 222.105665 
C 375.257677 223.344814 374.561433 225.025698 374.561433 226.778119 
C 374.561433 228.530541 375.257677 230.211425 376.496827 231.450574 
C 377.735976 232.689724 379.41686 233.385968 381.169281 233.385968 
L 381.169281 233.385968 
z
" clip-path="url(#p27e435c5b9)" style="fill: none; stroke: #000000; stroke-width: 1.3; stroke-linejoin: miter"/>
   </g>
   <g id="patch_17">
    <path d="M 407.433637 278.877166 
C 409.186059 278.877166 410.866942 278.180921 412.106091 276.941772 
C 413.345241 275.702622 414.041485 274.021739 414.041485 272.269317 
C 414.041485 270.516895 413.345241 268.836012 412.106091 267.596862 
C 410.866942 266.357713 409.186059 265.661468 407.433637 265.661468 
C 405.681215 265.661468 404.000331 266.357713 402.761182 267.596862 
C 401.522033 268.836012 400.825788 270.516895 400.825788 272.269317 
C 400.825788 274.021739 401.522033 275.702622 402.761182 276.941772 
C 404.000331 278.180921 405.681215 278.877166 407.433637 278.877166 
L 407.433637 278.877166 
z
" clip-path="url(#p27e435c5b9)" style="fill: none; stroke: #000000; stroke-width: 1.3; stroke-linejoin: miter"/>
   </g>
   <g id="patch_18">
    <path d="M 452.924834 305.141521 
C 454.677256 305.141521 456.358139 304.445276 457.597289 303.206127 
C 458.836438 301.966977 459.532683 300.286094 459.532683 298.533672 
C 459.532683 296.78125 458.836438 295.100367 457.597289 293.861217 
C 456.358139 292.622068 454.677256 291.925823 452.924834 291.925823 
C 451.172412 291.925823 449.491529 292.622068 448.252379 293.861217 
C 447.01323 295.100367 446.316985 296.78125 446.316985 298.533672 
C 446.316985 300.286094 447.01323 301.966977 448.252379 303.206127 
C 449.491529 304.445276 451.172412 305.141521 452.924834 305.141521 
L 452.924834 305.141521 
z
" clip-path="url(#p27e435c5b9)" style="fill: none; stroke: #000000; stroke-width: 1.3; stroke-linejoin: miter"/>
   </g>
   <g id="patch_19">
    <path d="M 505.453544 305.141521 
C 507.205966 305.141521 508.886849 304.445276 510.125999 303.206127 
C 511.365148 301.966977 512.061393 300.286094 512.061393 298.533672 
C 512.061393 296.78125 511.365148 295.100367 510.125999 293.861217 
C 508.886849 292.622068 507.205966 291.925823 505.453544 291.925823 
C 503.701122 291.925823 502.020239 292.622068 500.78109 293.861217 
C 499.54194 295.100367 498.845696 296.78125 498.845696 298.533672 
C 498.845696 300.286094 499.54194 301.966977 500.78109 303.206127 
C 502.020239 304.445276 503.701122 305.141521 505.453544 305.141521 
L 505.453544 305.141521 
z
" clip-path="url(#p27e435c5b9)" style="fill: none; stroke: #000000; stroke-width: 1.3; stroke-linejoin: miter"/>
   </g>
   <g id="patch_20">
    <path d="M 550.944742 278.877166 
C 552.697164 278.877166 554.378047 278.180921 555.617196 276.941772 
C 556.856346 275.702622 557.55259 274.021739 557.55259 272.269317 
C 557.55259 270.516895 556.856346 268.836012 555.617196 267.596862 
C 554.378047 266.357713 552.697164 265.661468 550.944742 265.661468 
C 549.19232 265.661468 547.511437 266.357713 546.272287 267.596862 
C 545.033138 268.836012 544.336893 270.516895 544.336893 272.269317 
C 544.336893 274.021739 545.033138 275.702622 546.272287 276.941772 
C 547.511437 278.180921 549.19232 278.877166 550.944742 278.877166 
L 550.944742 278.877166 
z
" clip-path="url(#p27e435c5b9)" style="fill: none; stroke: #000000; stroke-width: 1.3; stroke-linejoin: miter"/>
   </g>
   <g id="patch_21">
    <path d="M 577.209097 233.385968 
C 578.961519 233.385968 580.642402 232.689724 581.881552 231.450574 
C 583.120701 230.211425 583.816946 228.530541 583.816946 226.778119 
C 583.816946 225.025698 583.120701 223.344814 581.881552 222.105665 
C 580.642402 220.866515 578.961519 220.170271 577.209097 220.170271 
C 575.456675 220.170271 573.775792 220.866515 572.536642 222.105665 
C 571.297493 223.344814 570.601248 225.025698 570.601248 226.778119 
C 570.601248 228.530541 571.297493 230.211425 572.536642 231.450574 
C 573.775792 232.689724 575.456675 233.385968 577.209097 233.385968 
L 577.209097 233.385968 
z
" clip-path="url(#p27e435c5b9)" style="fill: none; stroke: #000000; stroke-width: 1.3; stroke-linejoin: miter"/>
   </g>
   <g id="line2d_1">
    <path d="M 78.942357 124.995494 
L 81.821491 121.455575 
L 84.700625 128.535413 
L 87.579759 121.455575 
L 90.458893 128.535413 
L 93.338027 121.455575 
L 96.217161 128.535413 
L 99.096295 121.455575 
L 101.975429 128.535413 
L 104.854563 121.455575 
L 107.733697 124.995494 
" clip-path="url(#p27e435c5b9)" style="fill: none; stroke: #1f77b4; stroke-width: 1.3; stroke-linecap: square"/>
   </g>
   <g id="line2d_2">
    <path d="M 119.061438 124.995494 
L 121.940572 121.455575 
L 124.819706 128.535413 
L 127.69884 121.455575 
L 130.577974 128.535413 
L 133.457108 121.455575 
L 136.336242 128.535413 
L 139.215376 121.455575 
L 142.09451 128.535413 
L 144.973644 121.455575 
L 147.852778 124.995494 
" clip-path="url(#p27e435c5b9)" style="fill: none; stroke: #ff7f0e; stroke-width: 1.3; stroke-linecap: square"/>
   </g>
   <g id="line2d_3">
    <path d="M 159.180519 124.995494 
L 162.059653 121.455575 
L 164.938787 128.535413 
L 167.817921 121.455575 
L 170.697055 128.535413 
L 173.576189 121.455575 
L 176.455323 128.535413 
L 179.334457 121.455575 
L 182.213591 128.535413 
L 185.092725 121.455575 
L 187.971859 124.995494 
" clip-path="url(#p27e435c5b9)" style="fill: none; stroke: #2ca02c; stroke-width: 1.3; stroke-linecap: square"/>
   </g>
   <g id="line2d_4">
    <path d="M 199.2996 124.995494 
L 202.178734 121.455575 
L 205.057868 128.535413 
L 207.937002 121.455575 
L 210.816136 128.535413 
L 213.69527 121.455575 
L 216.574404 128.535413 
L 219.453538 121.455575 
L 222.332672 128.535413 
L 225.211806 121.455575 
L 228.090941 124.995494 
" clip-path="url(#p27e435c5b9)" style="fill: none; stroke: #d62728; stroke-width: 1.3; stroke-linecap: square"/>
   </g>
   <g id="line2d_5">
    <path d="M 239.418681 124.995494 
L 242.297815 121.455575 
L 245.176949 128.535413 
L 248.056083 121.455575 
L 250.935217 128.535413 
L 253.814351 121.455575 
L 256.693485 128.535413 
L 259.572619 121.455575 
L 262.451754 128.535413 
L 265.330888 121.455575 
L 268.210022 124.995494 
" clip-path="url(#p27e435c5b9)" style="fill: none; stroke: #9467bd; stroke-width: 1.3; stroke-linecap: square"/>
   </g>
   <g id="line2d_6">
    <path d="M 279.537762 124.995494 
L 282.416896 121.455575 
L 285.29603 128.535413 
L 288.175164 121.455575 
L 291.054298 128.535413 
L 293.933432 121.455575 
L 296.812566 128.535413 
L 299.691701 121.455575 
L 302.570835 128.535413 
L 305.449969 121.455575 
L 308.329103 124.995494 
" clip-path="url(#p27e435c5b9)" style="fill: none; stroke: #8c564b; stroke-width: 1.3; stroke-linecap: square"/>
   </g>
   <g id="line2d_7">
    <path d="M 73.278486 144.81904 
L 73.278486 105.171948 
" clip-path="url(#p27e435c5b9)" style="fill: none; stroke: #e377c2; stroke-width: 0.65; stroke-linecap: square"/>
   </g>
   <g id="line2d_8">
    <path d="M 113.397568 144.81904 
L 113.397568 105.171948 
" clip-path="url(#p27e435c5b9)" style="fill: none; stroke: #7f7f7f; stroke-width: 0.65; stroke-linecap: square"/>
   </g>
   <g id="line2d_9">
    <path d="M 153.516649 144.81904 
L 153.516649 105.171948 
" clip-path="url(#p27e435c5b9)" style="fill: none; stroke: #bcbd22; stroke-width: 0.65; stroke-linecap: square"/>
   </g>
   <g id="line2d_10">
    <path d="M 193.63573 144.81904 
L 193.63573 105.171948 
" clip-path="url(#p27e435c5b9)" style="fill: none; stroke: #17becf; stroke-width: 0.65; stroke-linecap: square"/>
   </g>
   <g id="line2d_11">
    <path d="M 233.754811 144.81904 
L 233.754811 105.171948 
" clip-path="url(#p27e435c5b9)" style="fill: none; stroke: #1f77b4; stroke-width: 0.65; stroke-linecap: square"/>
   </g>
   <g id="line2d_12">
    <path d="M 273.873892 144.81904 
L 273.873892 105.171948 
" clip-path="url(#p27e435c5b9)" style="fill: none; stroke: #ff7f0e; stroke-width: 0.65; stroke-linecap: square"/>
   </g>
   <g id="line2d_13">
    <path d="M 313.992973 144.81904 
L 313.992973 105.171948 
" clip-path="url(#p27e435c5b9)" style="fill: none; stroke: #2ca02c; stroke-width: 0.65; stroke-linecap: square"/>
   </g>
   <g id="line2d_14">
    <path d="M 573.433183 167.709335 
L 568.232835 165.309916 
L 571.616334 157.954611 
L 563.554703 157.207154 
L 566.938202 149.851848 
L 558.876571 149.104391 
L 562.26007 141.749086 
L 554.198439 141.001629 
L 554.720655 135.298286 
" clip-path="url(#p27e435c5b9)" style="fill: none; stroke: #d62728; stroke-width: 1.2; stroke-linecap: square"/>
   </g>
   <g id="line2d_15">
    <path d="M 544.404668 124.982298 
L 538.701324 125.504515 
L 537.953868 117.442884 
L 530.598562 120.826383 
L 529.851105 112.764752 
L 522.4958 116.148251 
L 521.748343 108.08662 
L 514.393037 111.470119 
L 511.993618 106.26977 
" clip-path="url(#p27e435c5b9)" style="fill: none; stroke: #9467bd; stroke-width: 1.2; stroke-linecap: square"/>
   </g>
   <g id="line2d_16">
    <path d="M 497.901717 102.493857 
L 493.223585 105.797781 
L 488.545453 99.189932 
L 483.867321 105.797781 
L 479.189189 99.189932 
L 474.511057 105.797781 
L 469.832925 99.189932 
L 465.154793 105.797781 
L 460.476661 102.493857 
" clip-path="url(#p27e435c5b9)" style="fill: none; stroke: #8c564b; stroke-width: 1.2; stroke-linecap: square"/>
   </g>
   <g id="line2d_17">
    <path d="M 446.38476 106.26977 
L 443.985341 111.470119 
L 436.630036 108.08662 
L 435.882579 116.148251 
L 428.527273 112.764752 
L 427.779816 120.826383 
L 420.424511 117.442884 
L 419.677054 125.504515 
L 413.973711 124.982298 
" clip-path="url(#p27e435c5b9)" style="fill: none; stroke: #e377c2; stroke-width: 1.2; stroke-linecap: square"/>
   </g>
   <g id="line2d_18">
    <path d="M 403.657723 135.298286 
L 404.179939 141.001629 
L 396.118309 141.749086 
L 399.501807 149.104391 
L 391.440177 149.851848 
L 394.823675 157.207154 
L 386.762045 157.954611 
L 390.145543 165.309916 
L 384.945195 167.709335 
" clip-path="url(#p27e435c5b9)" style="fill: none; stroke: #7f7f7f; stroke-width: 1.2; stroke-linecap: square"/>
   </g>
   <g id="line2d_19">
    <path d="M 381.169281 181.801236 
L 384.473206 186.479368 
L 377.865357 191.1575 
L 384.473206 195.835632 
L 377.865357 200.513764 
L 384.473206 205.191896 
L 377.865357 209.870028 
L 384.473206 214.54816 
L 381.169281 219.226292 
" clip-path="url(#p27e435c5b9)" style="fill: none; stroke: #bcbd22; stroke-width: 1.2; stroke-linecap: square"/>
   </g>
   <g id="line2d_20">
    <path d="M 384.945195 233.318194 
L 390.145543 235.717613 
L 386.762045 243.072918 
L 394.823675 243.820375 
L 391.440177 251.17568 
L 399.501807 251.923137 
L 396.118309 259.278443 
L 404.179939 260.0259 
L 403.657723 265.729243 
" clip-path="url(#p27e435c5b9)" style="fill: none; stroke: #17becf; stroke-width: 1.2; stroke-linecap: square"/>
   </g>
   <g id="line2d_21">
    <path d="M 413.973711 276.04523 
L 419.677054 275.523014 
L 420.424511 283.584645 
L 427.779816 280.201146 
L 428.527273 288.262777 
L 435.882579 284.879278 
L 436.630036 292.940909 
L 443.985341 289.55741 
L 446.38476 294.757759 
" clip-path="url(#p27e435c5b9)" style="fill: none; stroke: #1f77b4; stroke-width: 1.2; stroke-linecap: square"/>
   </g>
   <g id="line2d_22">
    <path d="M 460.476661 298.533672 
L 465.154793 295.229748 
L 469.832925 301.837596 
L 474.511057 295.229748 
L 479.189189 301.837596 
L 483.867321 295.229748 
L 488.545453 301.837596 
L 493.223585 295.229748 
L 497.901717 298.533672 
" clip-path="url(#p27e435c5b9)" style="fill: none; stroke: #ff7f0e; stroke-width: 1.2; stroke-linecap: square"/>
   </g>
   <g id="line2d_23">
    <path d="M 511.993618 294.757759 
L 514.393037 289.55741 
L 521.748343 292.940909 
L 522.4958 284.879278 
L 529.851105 288.262777 
L 530.598562 280.201146 
L 537.953868 283.584645 
L 538.701324 275.523014 
L 544.404668 276.04523 
" clip-path="url(#p27e435c5b9)" style="fill: none; stroke: #2ca02c; stroke-width: 1.2; stroke-linecap: square"/>
   </g>
   <g id="line2d_24">
    <path d="M 554.720655 265.729243 
L 554.198439 260.0259 
L 562.26007 259.278443 
L 558.876571 251.923137 
L 566.938202 251.17568 
L 563.554703 243.820375 
L 571.616334 243.072918 
L 568.232835 235.717613 
L 573.433183 233.318194 
" clip-path="url(#p27e435c5b9)" style="fill: none; stroke: #d62728; stroke-width: 1.2; stroke-linecap: square"/>
   </g>
   <g id="line2d_25">
    <path d="M 577.209097 219.226292 
L 573.905173 214.54816 
L 580.513021 209.870028 
L 573.905173 205.191896 
L 580.513021 200.513764 
L 573.905173 195.835632 
L 580.513021 191.1575 
L 573.905173 186.479368 
L 577.209097 181.801236 
" clip-path="url(#p27e435c5b9)" style="fill: none; stroke: #9467bd; stroke-width: 1.2; stroke-linecap: square"/>
   </g>
   <g id="text_1">
    <!-- $R_l$ -->
    <g transform="translate(149.376649 154.258824) scale(0.09 -0.09)">
     <defs>
      <path id="DejaVuSans-Oblique-52" d="M 1613 4147 
L 1294 2491 
L 2106 2491 
Q 2584 2491 2879 2755 
Q 3175 3019 3175 3444 
Q 3175 3784 2976 3965 
Q 2778 4147 2406 4147 
L 1613 4147 
z
M 2772 2241 
Q 2972 2194 3105 2009 
Q 3238 1825 3413 1275 
L 3809 0 
L 3144 0 
L 2778 1197 
Q 2638 1659 2453 1815 
Q 2269 1972 1888 1972 
L 1191 1972 
L 806 0 
L 172 0 
L 1081 4666 
L 2503 4666 
Q 3150 4666 3495 4373 
Q 3841 4081 3841 3531 
Q 3841 3044 3547 2687 
Q 3253 2331 2772 2241 
z
" transform="scale(0.015625)"/>
      <path id="DejaVuSans-Oblique-6c" d="M 1172 4863 
L 1747 4863 
L 800 0 
L 225 0 
L 1172 4863 
z
" transform="scale(0.015625)"/>
     </defs>
     <use xlink:href="#DejaVuSans-Oblique-52" transform="translate(0 0.09375)"/>
     <use xlink:href="#DejaVuSans-Oblique-6c" transform="translate(69.482422 -16.3125) scale(0.7)"/>
    </g>
   </g>
   <g id="text_2">
    <!-- $R_{l+1}$ -->
    <g transform="translate(183.60073 154.258824) scale(0.09 -0.09)">
     <defs>
      <path id="DejaVuSans-2b" d="M 2944 4013 
L 2944 2272 
L 4684 2272 
L 4684 1741 
L 2944 1741 
L 2944 0 
L 2419 0 
L 2419 1741 
L 678 1741 
L 678 2272 
L 2419 2272 
L 2419 4013 
L 2944 4013 
z
" transform="scale(0.015625)"/>
      <path id="DejaVuSans-31" d="M 794 531 
L 1825 531 
L 1825 4091 
L 703 3866 
L 703 4441 
L 1819 4666 
L 2450 4666 
L 2450 531 
L 3481 531 
L 3481 0 
L 794 0 
L 794 531 
z
" transform="scale(0.015625)"/>
     </defs>
     <use xlink:href="#DejaVuSans-Oblique-52" transform="translate(0 0.09375)"/>
     <use xlink:href="#DejaVuSans-Oblique-6c" transform="translate(69.482422 -16.3125) scale(0.7)"/>
     <use xlink:href="#DejaVuSans-2b" transform="translate(102.568359 -16.3125) scale(0.7)"/>
     <use xlink:href="#DejaVuSans-31" transform="translate(174.858398 -16.3125) scale(0.7)"/>
    </g>
   </g>
   <g id="patch_22">
    <path d="M 156.749502 91.012272 
Q 173.579663 91.012272 190.409824 91.012272 
" style="fill: none; stroke: #000000; stroke-width: 1.1; stroke-linecap: round"/>
    <path d="M 160.749502 93.012272 
L 156.749502 91.012272 
L 160.749502 89.012272 
" style="fill: none; stroke: #000000; stroke-width: 1.1; stroke-linecap: round"/>
    <path d="M 186.409824 89.012272 
L 190.409824 91.012272 
L 186.409824 93.012272 
" style="fill: none; stroke: #000000; stroke-width: 1.1; stroke-linecap: round"/>
   </g>
   <g id="text_3">
    <!-- a -->
    <g transform="translate(170.512127 83.460445) scale(0.1 -0.1)">
     <defs>
      <path id="DejaVuSans-61" d="M 2194 1759 
Q 1497 1759 1228 1600 
Q 959 1441 959 1056 
Q 959 750 1161 570 
Q 1363 391 1709 391 
Q 2188 391 2477 730 
Q 2766 1069 2766 1631 
L 2766 1759 
L 2194 1759 
z
M 3341 1997 
L 3341 0 
L 2766 0 
L 2766 531 
Q 2569 213 2275 61 
Q 1981 -91 1556 -91 
Q 1019 -91 701 211 
Q 384 513 384 1019 
Q 384 1609 779 1909 
Q 1175 2209 1959 2209 
L 2766 2209 
L 2766 2266 
Q 2766 2663 2505 2880 
Q 2244 3097 1772 3097 
Q 1472 3097 1187 3025 
Q 903 2953 641 2809 
L 641 3341 
Q 956 3463 1253 3523 
Q 1550 3584 1831 3584 
Q 2591 3584 2966 3190 
Q 3341 2797 3341 1997 
z
" transform="scale(0.015625)"/>
     </defs>
     <use xlink:href="#DejaVuSans-61"/>
    </g>
   </g>
   <g id="text_4">
    <!-- cella elementare -->
    <g transform="translate(135.813455 109.419851) scale(0.09 -0.09)">
     <defs>
      <path id="DejaVuSans-63" d="M 3122 3366 
L 3122 2828 
Q 2878 2963 2633 3030 
Q 2388 3097 2138 3097 
Q 1578 3097 1268 2742 
Q 959 2388 959 1747 
Q 959 1106 1268 751 
Q 1578 397 2138 397 
Q 2388 397 2633 464 
Q 2878 531 3122 666 
L 3122 134 
Q 2881 22 2623 -34 
Q 2366 -91 2075 -91 
Q 1284 -91 818 406 
Q 353 903 353 1747 
Q 353 2603 823 3093 
Q 1294 3584 2113 3584 
Q 2378 3584 2631 3529 
Q 2884 3475 3122 3366 
z
" transform="scale(0.015625)"/>
      <path id="DejaVuSans-65" d="M 3597 1894 
L 3597 1613 
L 953 1613 
Q 991 1019 1311 708 
Q 1631 397 2203 397 
Q 2534 397 2845 478 
Q 3156 559 3463 722 
L 3463 178 
Q 3153 47 2828 -22 
Q 2503 -91 2169 -91 
Q 1331 -91 842 396 
Q 353 884 353 1716 
Q 353 2575 817 3079 
Q 1281 3584 2069 3584 
Q 2775 3584 3186 3129 
Q 3597 2675 3597 1894 
z
M 3022 2063 
Q 3016 2534 2758 2815 
Q 2500 3097 2075 3097 
Q 1594 3097 1305 2825 
Q 1016 2553 972 2059 
L 3022 2063 
z
" transform="scale(0.015625)"/>
      <path id="DejaVuSans-6c" d="M 603 4863 
L 1178 4863 
L 1178 0 
L 603 0 
L 603 4863 
z
" transform="scale(0.015625)"/>
      <path id="DejaVuSans-20" transform="scale(0.015625)"/>
      <path id="DejaVuSans-6d" d="M 3328 2828 
Q 3544 3216 3844 3400 
Q 4144 3584 4550 3584 
Q 5097 3584 5394 3201 
Q 5691 2819 5691 2113 
L 5691 0 
L 5113 0 
L 5113 2094 
Q 5113 2597 4934 2840 
Q 4756 3084 4391 3084 
Q 3944 3084 3684 2787 
Q 3425 2491 3425 1978 
L 3425 0 
L 2847 0 
L 2847 2094 
Q 2847 2600 2669 2842 
Q 2491 3084 2119 3084 
Q 1678 3084 1418 2786 
Q 1159 2488 1159 1978 
L 1159 0 
L 581 0 
L 581 3500 
L 1159 3500 
L 1159 2956 
Q 1356 3278 1631 3431 
Q 1906 3584 2284 3584 
Q 2666 3584 2933 3390 
Q 3200 3197 3328 2828 
z
" transform="scale(0.015625)"/>
      <path id="DejaVuSans-6e" d="M 3513 2113 
L 3513 0 
L 2938 0 
L 2938 2094 
Q 2938 2591 2744 2837 
Q 2550 3084 2163 3084 
Q 1697 3084 1428 2787 
Q 1159 2491 1159 1978 
L 1159 0 
L 581 0 
L 581 3500 
L 1159 3500 
L 1159 2956 
Q 1366 3272 1645 3428 
Q 1925 3584 2291 3584 
Q 2894 3584 3203 3211 
Q 3513 2838 3513 2113 
z
" transform="scale(0.015625)"/>
      <path id="DejaVuSans-74" d="M 1172 4494 
L 1172 3500 
L 2356 3500 
L 2356 3053 
L 1172 3053 
L 1172 1153 
Q 1172 725 1289 603 
Q 1406 481 1766 481 
L 2356 481 
L 2356 0 
L 1766 0 
Q 1100 0 847 248 
Q 594 497 594 1153 
L 594 3053 
L 172 3053 
L 172 3500 
L 594 3500 
L 594 4494 
L 1172 4494 
z
" transform="scale(0.015625)"/>
      <path id="DejaVuSans-72" d="M 2631 2963 
Q 2534 3019 2420 3045 
Q 2306 3072 2169 3072 
Q 1681 3072 1420 2755 
Q 1159 2438 1159 1844 
L 1159 0 
L 581 0 
L 581 3500 
L 1159 3500 
L 1159 2956 
Q 1341 3275 1631 3429 
Q 1922 3584 2338 3584 
Q 2397 3584 2469 3576 
Q 2541 3569 2628 3553 
L 2631 2963 
z
" transform="scale(0.015625)"/>
     </defs>
     <use xlink:href="#DejaVuSans-63"/>
     <use xlink:href="#DejaVuSans-65" transform="translate(54.980469 0)"/>
     <use xlink:href="#DejaVuSans-6c" transform="translate(116.503906 0)"/>
     <use xlink:href="#DejaVuSans-6c" transform="translate(144.287109 0)"/>
     <use xlink:href="#DejaVuSans-61" transform="translate(172.070312 0)"/>
     <use xlink:href="#DejaVuSans-20" transform="translate(233.349609 0)"/>
     <use xlink:href="#DejaVuSans-65" transform="translate(265.136719 0)"/>
     <use xlink:href="#DejaVuSans-6c" transform="translate(326.660156 0)"/>
     <use xlink:href="#DejaVuSans-65" transform="translate(354.443359 0)"/>
     <use xlink:href="#DejaVuSans-6d" transform="translate(415.966797 0)"/>
     <use xlink:href="#DejaVuSans-65" transform="translate(513.378906 0)"/>
     <use xlink:href="#DejaVuSans-6e" transform="translate(574.902344 0)"/>
     <use xlink:href="#DejaVuSans-74" transform="translate(638.28125 0)"/>
     <use xlink:href="#DejaVuSans-61" transform="translate(677.490234 0)"/>
     <use xlink:href="#DejaVuSans-72" transform="translate(738.769531 0)"/>
     <use xlink:href="#DejaVuSans-65" transform="translate(777.632812 0)"/>
    </g>
   </g>
   <g id="text_5">
    <!-- catena lineare monoatomica -->
    <g transform="translate(98.285189 58.917008) scale(0.11 -0.11)">
     <defs>
      <path id="DejaVuSans-Bold-63" d="M 3366 3391 
L 3366 2478 
Q 3138 2634 2908 2709 
Q 2678 2784 2431 2784 
Q 1963 2784 1702 2511 
Q 1441 2238 1441 1747 
Q 1441 1256 1702 982 
Q 1963 709 2431 709 
Q 2694 709 2930 787 
Q 3166 866 3366 1019 
L 3366 103 
Q 3103 6 2833 -42 
Q 2563 -91 2291 -91 
Q 1344 -91 809 395 
Q 275 881 275 1747 
Q 275 2613 809 3098 
Q 1344 3584 2291 3584 
Q 2566 3584 2833 3536 
Q 3100 3488 3366 3391 
z
" transform="scale(0.015625)"/>
      <path id="DejaVuSans-Bold-61" d="M 2106 1575 
Q 1756 1575 1579 1456 
Q 1403 1338 1403 1106 
Q 1403 894 1545 773 
Q 1688 653 1941 653 
Q 2256 653 2472 879 
Q 2688 1106 2688 1447 
L 2688 1575 
L 2106 1575 
z
M 3816 1997 
L 3816 0 
L 2688 0 
L 2688 519 
Q 2463 200 2181 54 
Q 1900 -91 1497 -91 
Q 953 -91 614 226 
Q 275 544 275 1050 
Q 275 1666 698 1953 
Q 1122 2241 2028 2241 
L 2688 2241 
L 2688 2328 
Q 2688 2594 2478 2717 
Q 2269 2841 1825 2841 
Q 1466 2841 1156 2769 
Q 847 2697 581 2553 
L 581 3406 
Q 941 3494 1303 3539 
Q 1666 3584 2028 3584 
Q 2975 3584 3395 3211 
Q 3816 2838 3816 1997 
z
" transform="scale(0.015625)"/>
      <path id="DejaVuSans-Bold-74" d="M 1759 4494 
L 1759 3500 
L 2913 3500 
L 2913 2700 
L 1759 2700 
L 1759 1216 
Q 1759 972 1856 886 
Q 1953 800 2241 800 
L 2816 800 
L 2816 0 
L 1856 0 
Q 1194 0 917 276 
Q 641 553 641 1216 
L 641 2700 
L 84 2700 
L 84 3500 
L 641 3500 
L 641 4494 
L 1759 4494 
z
" transform="scale(0.015625)"/>
      <path id="DejaVuSans-Bold-65" d="M 4031 1759 
L 4031 1441 
L 1416 1441 
Q 1456 1047 1700 850 
Q 1944 653 2381 653 
Q 2734 653 3104 758 
Q 3475 863 3866 1075 
L 3866 213 
Q 3469 63 3072 -14 
Q 2675 -91 2278 -91 
Q 1328 -91 801 392 
Q 275 875 275 1747 
Q 275 2603 792 3093 
Q 1309 3584 2216 3584 
Q 3041 3584 3536 3087 
Q 4031 2591 4031 1759 
z
M 2881 2131 
Q 2881 2450 2695 2645 
Q 2509 2841 2209 2841 
Q 1884 2841 1681 2658 
Q 1478 2475 1428 2131 
L 2881 2131 
z
" transform="scale(0.015625)"/>
      <path id="DejaVuSans-Bold-6e" d="M 4056 2131 
L 4056 0 
L 2931 0 
L 2931 347 
L 2931 1631 
Q 2931 2084 2911 2256 
Q 2891 2428 2841 2509 
Q 2775 2619 2662 2680 
Q 2550 2741 2406 2741 
Q 2056 2741 1856 2470 
Q 1656 2200 1656 1722 
L 1656 0 
L 538 0 
L 538 3500 
L 1656 3500 
L 1656 2988 
Q 1909 3294 2193 3439 
Q 2478 3584 2822 3584 
Q 3428 3584 3742 3212 
Q 4056 2841 4056 2131 
z
" transform="scale(0.015625)"/>
      <path id="DejaVuSans-Bold-20" transform="scale(0.015625)"/>
      <path id="DejaVuSans-Bold-6c" d="M 538 4863 
L 1656 4863 
L 1656 0 
L 538 0 
L 538 4863 
z
" transform="scale(0.015625)"/>
      <path id="DejaVuSans-Bold-69" d="M 538 3500 
L 1656 3500 
L 1656 0 
L 538 0 
L 538 3500 
z
M 538 4863 
L 1656 4863 
L 1656 3950 
L 538 3950 
L 538 4863 
z
" transform="scale(0.015625)"/>
      <path id="DejaVuSans-Bold-72" d="M 3138 2547 
Q 2991 2616 2845 2648 
Q 2700 2681 2553 2681 
Q 2122 2681 1889 2404 
Q 1656 2128 1656 1613 
L 1656 0 
L 538 0 
L 538 3500 
L 1656 3500 
L 1656 2925 
Q 1872 3269 2151 3426 
Q 2431 3584 2822 3584 
Q 2878 3584 2943 3579 
Q 3009 3575 3134 3559 
L 3138 2547 
z
" transform="scale(0.015625)"/>
      <path id="DejaVuSans-Bold-6d" d="M 3781 2919 
Q 3994 3244 4286 3414 
Q 4578 3584 4928 3584 
Q 5531 3584 5847 3212 
Q 6163 2841 6163 2131 
L 6163 0 
L 5038 0 
L 5038 1825 
Q 5041 1866 5042 1909 
Q 5044 1953 5044 2034 
Q 5044 2406 4934 2573 
Q 4825 2741 4581 2741 
Q 4263 2741 4089 2478 
Q 3916 2216 3909 1719 
L 3909 0 
L 2784 0 
L 2784 1825 
Q 2784 2406 2684 2573 
Q 2584 2741 2328 2741 
Q 2006 2741 1831 2477 
Q 1656 2213 1656 1722 
L 1656 0 
L 531 0 
L 531 3500 
L 1656 3500 
L 1656 2988 
Q 1863 3284 2130 3434 
Q 2397 3584 2719 3584 
Q 3081 3584 3359 3409 
Q 3638 3234 3781 2919 
z
" transform="scale(0.015625)"/>
      <path id="DejaVuSans-Bold-6f" d="M 2203 2784 
Q 1831 2784 1636 2517 
Q 1441 2250 1441 1747 
Q 1441 1244 1636 976 
Q 1831 709 2203 709 
Q 2569 709 2762 976 
Q 2956 1244 2956 1747 
Q 2956 2250 2762 2517 
Q 2569 2784 2203 2784 
z
M 2203 3584 
Q 3106 3584 3614 3096 
Q 4122 2609 4122 1747 
Q 4122 884 3614 396 
Q 3106 -91 2203 -91 
Q 1297 -91 786 396 
Q 275 884 275 1747 
Q 275 2609 786 3096 
Q 1297 3584 2203 3584 
z
" transform="scale(0.015625)"/>
     </defs>
     <use xlink:href="#DejaVuSans-Bold-63"/>
     <use xlink:href="#DejaVuSans-Bold-61" transform="translate(59.277344 0)"/>
     <use xlink:href="#DejaVuSans-Bold-74" transform="translate(126.757812 0)"/>
     <use xlink:href="#DejaVuSans-Bold-65" transform="translate(174.560547 0)"/>
     <use xlink:href="#DejaVuSans-Bold-6e" transform="translate(242.382812 0)"/>
     <use xlink:href="#DejaVuSans-Bold-61" transform="translate(313.574219 0)"/>
     <use xlink:href="#DejaVuSans-Bold-20" transform="translate(381.054688 0)"/>
     <use xlink:href="#DejaVuSans-Bold-6c" transform="translate(415.869141 0)"/>
     <use xlink:href="#DejaVuSans-Bold-69" transform="translate(450.146484 0)"/>
     <use xlink:href="#DejaVuSans-Bold-6e" transform="translate(484.423828 0)"/>
     <use xlink:href="#DejaVuSans-Bold-65" transform="translate(555.615234 0)"/>
     <use xlink:href="#DejaVuSans-Bold-61" transform="translate(623.4375 0)"/>
     <use xlink:href="#DejaVuSans-Bold-72" transform="translate(690.917969 0)"/>
     <use xlink:href="#DejaVuSans-Bold-65" transform="translate(740.234375 0)"/>
     <use xlink:href="#DejaVuSans-Bold-20" transform="translate(808.056641 0)"/>
     <use xlink:href="#DejaVuSans-Bold-6d" transform="translate(842.871094 0)"/>
     <use xlink:href="#DejaVuSans-Bold-6f" transform="translate(947.070312 0)"/>
     <use xlink:href="#DejaVuSans-Bold-6e" transform="translate(1015.771484 0)"/>
     <use xlink:href="#DejaVuSans-Bold-6f" transform="translate(1086.962891 0)"/>
     <use xlink:href="#DejaVuSans-Bold-61" transform="translate(1155.664062 0)"/>
     <use xlink:href="#DejaVuSans-Bold-74" transform="translate(1223.144531 0)"/>
     <use xlink:href="#DejaVuSans-Bold-6f" transform="translate(1270.947266 0)"/>
     <use xlink:href="#DejaVuSans-Bold-6d" transform="translate(1339.648438 0)"/>
     <use xlink:href="#DejaVuSans-Bold-69" transform="translate(1443.847656 0)"/>
     <use xlink:href="#DejaVuSans-Bold-63" transform="translate(1478.125 0)"/>
     <use xlink:href="#DejaVuSans-Bold-61" transform="translate(1537.402344 0)"/>
    </g>
   </g>
   <g id="text_6">
    <!-- $u_0=u_N$ -->
    <g transform="translate(577.74992 172.441445) scale(0.085 -0.085)">
     <defs>
      <path id="DejaVuSans-Oblique-75" d="M 428 1388 
L 838 3500 
L 1416 3500 
L 1006 1409 
Q 975 1256 961 1147 
Q 947 1038 947 966 
Q 947 700 1109 554 
Q 1272 409 1569 409 
Q 2031 409 2368 721 
Q 2706 1034 2809 1563 
L 3194 3500 
L 3769 3500 
L 3091 0 
L 2516 0 
L 2631 550 
Q 2388 244 2052 76 
Q 1716 -91 1338 -91 
Q 878 -91 622 161 
Q 366 413 366 863 
Q 366 956 381 1097 
Q 397 1238 428 1388 
z
" transform="scale(0.015625)"/>
      <path id="DejaVuSans-30" d="M 2034 4250 
Q 1547 4250 1301 3770 
Q 1056 3291 1056 2328 
Q 1056 1369 1301 889 
Q 1547 409 2034 409 
Q 2525 409 2770 889 
Q 3016 1369 3016 2328 
Q 3016 3291 2770 3770 
Q 2525 4250 2034 4250 
z
M 2034 4750 
Q 2819 4750 3233 4129 
Q 3647 3509 3647 2328 
Q 3647 1150 3233 529 
Q 2819 -91 2034 -91 
Q 1250 -91 836 529 
Q 422 1150 422 2328 
Q 422 3509 836 4129 
Q 1250 4750 2034 4750 
z
" transform="scale(0.015625)"/>
      <path id="DejaVuSans-3d" d="M 678 2906 
L 4684 2906 
L 4684 2381 
L 678 2381 
L 678 2906 
z
M 678 1631 
L 4684 1631 
L 4684 1100 
L 678 1100 
L 678 1631 
z
" transform="scale(0.015625)"/>
      <path id="DejaVuSans-Oblique-4e" d="M 1081 4666 
L 1931 4666 
L 3219 666 
L 4000 4666 
L 4616 4666 
L 3706 0 
L 2853 0 
L 1569 4025 
L 788 0 
L 172 0 
L 1081 4666 
z
" transform="scale(0.015625)"/>
     </defs>
     <use xlink:href="#DejaVuSans-Oblique-75" transform="translate(0 0.3125)"/>
     <use xlink:href="#DejaVuSans-30" transform="translate(63.378906 -16.09375) scale(0.7)"/>
     <use xlink:href="#DejaVuSans-3d" transform="translate(130.131836 0.3125)"/>
     <use xlink:href="#DejaVuSans-Oblique-75" transform="translate(233.40332 0.3125)"/>
     <use xlink:href="#DejaVuSans-Oblique-4e" transform="translate(296.782227 -16.09375) scale(0.7)"/>
    </g>
   </g>
   <g id="text_7">
    <!-- $u_1$ -->
    <g transform="translate(557.574632 119.756291) scale(0.085 -0.085)">
     <use xlink:href="#DejaVuSans-Oblique-75" transform="translate(0 0.3125)"/>
     <use xlink:href="#DejaVuSans-31" transform="translate(63.378906 -16.09375) scale(0.7)"/>
    </g>
   </g>
   <g id="text_8">
    <!-- $u_2$ -->
    <g transform="translate(504.889477 89.338503) scale(0.085 -0.085)">
     <defs>
      <path id="DejaVuSans-32" d="M 1228 531 
L 3431 531 
L 3431 0 
L 469 0 
L 469 531 
Q 828 903 1448 1529 
Q 2069 2156 2228 2338 
Q 2531 2678 2651 2914 
Q 2772 3150 2772 3378 
Q 2772 3750 2511 3984 
Q 2250 4219 1831 4219 
Q 1534 4219 1204 4116 
Q 875 4013 500 3803 
L 500 4441 
Q 881 4594 1212 4672 
Q 1544 4750 1819 4750 
Q 2544 4750 2975 4387 
Q 3406 4025 3406 3419 
Q 3406 3131 3298 2873 
Q 3191 2616 2906 2266 
Q 2828 2175 2409 1742 
Q 1991 1309 1228 531 
z
" transform="scale(0.015625)"/>
     </defs>
     <use xlink:href="#DejaVuSans-Oblique-75" transform="translate(0 0.3125)"/>
     <use xlink:href="#DejaVuSans-32" transform="translate(63.378906 -16.09375) scale(0.7)"/>
    </g>
   </g>
   <g id="text_9">
    <!-- $u_{N-2}$ -->
    <g transform="translate(551.709632 285.962175) scale(0.085 -0.085)">
     <defs>
      <path id="DejaVuSans-2212" d="M 678 2272 
L 4684 2272 
L 4684 1741 
L 678 1741 
L 678 2272 
z
" transform="scale(0.015625)"/>
     </defs>
     <use xlink:href="#DejaVuSans-Oblique-75" transform="translate(0 0.3125)"/>
     <use xlink:href="#DejaVuSans-Oblique-4e" transform="translate(63.378906 -16.09375) scale(0.7)"/>
     <use xlink:href="#DejaVuSans-2212" transform="translate(129.379883 -16.09375) scale(0.7)"/>
     <use xlink:href="#DejaVuSans-32" transform="translate(201.669922 -16.09375) scale(0.7)"/>
    </g>
   </g>
   <g id="text_10">
    <!-- $u_{N-1}$ -->
    <g transform="translate(582.12742 233.277021) scale(0.085 -0.085)">
     <use xlink:href="#DejaVuSans-Oblique-75" transform="translate(0 0.3125)"/>
     <use xlink:href="#DejaVuSans-Oblique-4e" transform="translate(63.378906 -16.09375) scale(0.7)"/>
     <use xlink:href="#DejaVuSans-2212" transform="translate(129.379883 -16.09375) scale(0.7)"/>
     <use xlink:href="#DejaVuSans-31" transform="translate(201.669922 -16.09375) scale(0.7)"/>
    </g>
   </g>
   <g id="text_11">
    <!-- condizione periodica di Born–von Karman -->
    <g transform="translate(350.911142 70.716737) scale(0.11 -0.11)">
     <defs>
      <path id="DejaVuSans-Bold-64" d="M 2919 2988 
L 2919 4863 
L 4044 4863 
L 4044 0 
L 2919 0 
L 2919 506 
Q 2688 197 2409 53 
Q 2131 -91 1766 -91 
Q 1119 -91 703 423 
Q 288 938 288 1747 
Q 288 2556 703 3070 
Q 1119 3584 1766 3584 
Q 2128 3584 2408 3439 
Q 2688 3294 2919 2988 
z
M 2181 722 
Q 2541 722 2730 984 
Q 2919 1247 2919 1747 
Q 2919 2247 2730 2509 
Q 2541 2772 2181 2772 
Q 1825 2772 1636 2509 
Q 1447 2247 1447 1747 
Q 1447 1247 1636 984 
Q 1825 722 2181 722 
z
" transform="scale(0.015625)"/>
      <path id="DejaVuSans-Bold-7a" d="M 366 3500 
L 3419 3500 
L 3419 2719 
L 1575 800 
L 3419 800 
L 3419 0 
L 288 0 
L 288 781 
L 2131 2700 
L 366 2700 
L 366 3500 
z
" transform="scale(0.015625)"/>
      <path id="DejaVuSans-Bold-70" d="M 1656 506 
L 1656 -1331 
L 538 -1331 
L 538 3500 
L 1656 3500 
L 1656 2988 
Q 1888 3294 2169 3439 
Q 2450 3584 2816 3584 
Q 3463 3584 3878 3070 
Q 4294 2556 4294 1747 
Q 4294 938 3878 423 
Q 3463 -91 2816 -91 
Q 2450 -91 2169 54 
Q 1888 200 1656 506 
z
M 2400 2772 
Q 2041 2772 1848 2508 
Q 1656 2244 1656 1747 
Q 1656 1250 1848 986 
Q 2041 722 2400 722 
Q 2759 722 2948 984 
Q 3138 1247 3138 1747 
Q 3138 2247 2948 2509 
Q 2759 2772 2400 2772 
z
" transform="scale(0.015625)"/>
      <path id="DejaVuSans-Bold-42" d="M 2456 2859 
Q 2741 2859 2887 2984 
Q 3034 3109 3034 3353 
Q 3034 3594 2887 3720 
Q 2741 3847 2456 3847 
L 1791 3847 
L 1791 2859 
L 2456 2859 
z
M 2497 819 
Q 2859 819 3042 972 
Q 3225 1125 3225 1434 
Q 3225 1738 3044 1889 
Q 2863 2041 2497 2041 
L 1791 2041 
L 1791 819 
L 2497 819 
z
M 3616 2497 
Q 4003 2384 4215 2081 
Q 4428 1778 4428 1338 
Q 4428 663 3972 331 
Q 3516 0 2584 0 
L 588 0 
L 588 4666 
L 2394 4666 
Q 3366 4666 3802 4372 
Q 4238 4078 4238 3431 
Q 4238 3091 4078 2852 
Q 3919 2613 3616 2497 
z
" transform="scale(0.015625)"/>
      <path id="DejaVuSans-Bold-2013" d="M 344 2156 
L 2856 2156 
L 2856 1350 
L 344 1350 
L 344 2156 
z
" transform="scale(0.015625)"/>
      <path id="DejaVuSans-Bold-76" d="M 97 3500 
L 1216 3500 
L 2088 1081 
L 2956 3500 
L 4078 3500 
L 2700 0 
L 1472 0 
L 97 3500 
z
" transform="scale(0.015625)"/>
      <path id="DejaVuSans-Bold-4b" d="M 588 4666 
L 1791 4666 
L 1791 2963 
L 3525 4666 
L 4922 4666 
L 2675 2456 
L 5153 0 
L 3647 0 
L 1791 1838 
L 1791 0 
L 588 0 
L 588 4666 
z
" transform="scale(0.015625)"/>
     </defs>
     <use xlink:href="#DejaVuSans-Bold-63"/>
     <use xlink:href="#DejaVuSans-Bold-6f" transform="translate(59.277344 0)"/>
     <use xlink:href="#DejaVuSans-Bold-6e" transform="translate(127.978516 0)"/>
     <use xlink:href="#DejaVuSans-Bold-64" transform="translate(199.169922 0)"/>
     <use xlink:href="#DejaVuSans-Bold-69" transform="translate(270.751953 0)"/>
     <use xlink:href="#DejaVuSans-Bold-7a" transform="translate(305.029297 0)"/>
     <use xlink:href="#DejaVuSans-Bold-69" transform="translate(363.232422 0)"/>
     <use xlink:href="#DejaVuSans-Bold-6f" transform="translate(397.509766 0)"/>
     <use xlink:href="#DejaVuSans-Bold-6e" transform="translate(466.210938 0)"/>
     <use xlink:href="#DejaVuSans-Bold-65" transform="translate(537.402344 0)"/>
     <use xlink:href="#DejaVuSans-Bold-20" transform="translate(605.224609 0)"/>
     <use xlink:href="#DejaVuSans-Bold-70" transform="translate(640.039062 0)"/>
     <use xlink:href="#DejaVuSans-Bold-65" transform="translate(711.621094 0)"/>
     <use xlink:href="#DejaVuSans-Bold-72" transform="translate(779.443359 0)"/>
     <use xlink:href="#DejaVuSans-Bold-69" transform="translate(828.759766 0)"/>
     <use xlink:href="#DejaVuSans-Bold-6f" transform="translate(863.037109 0)"/>
     <use xlink:href="#DejaVuSans-Bold-64" transform="translate(931.738281 0)"/>
     <use xlink:href="#DejaVuSans-Bold-69" transform="translate(1003.320312 0)"/>
     <use xlink:href="#DejaVuSans-Bold-63" transform="translate(1037.597656 0)"/>
     <use xlink:href="#DejaVuSans-Bold-61" transform="translate(1096.875 0)"/>
     <use xlink:href="#DejaVuSans-Bold-20" transform="translate(1164.355469 0)"/>
     <use xlink:href="#DejaVuSans-Bold-64" transform="translate(1199.169922 0)"/>
     <use xlink:href="#DejaVuSans-Bold-69" transform="translate(1270.751953 0)"/>
     <use xlink:href="#DejaVuSans-Bold-20" transform="translate(1305.029297 0)"/>
     <use xlink:href="#DejaVuSans-Bold-42" transform="translate(1339.84375 0)"/>
     <use xlink:href="#DejaVuSans-Bold-6f" transform="translate(1416.064453 0)"/>
     <use xlink:href="#DejaVuSans-Bold-72" transform="translate(1484.765625 0)"/>
     <use xlink:href="#DejaVuSans-Bold-6e" transform="translate(1534.082031 0)"/>
     <use xlink:href="#DejaVuSans-Bold-2013" transform="translate(1605.273438 0)"/>
     <use xlink:href="#DejaVuSans-Bold-76" transform="translate(1655.273438 0)"/>
     <use xlink:href="#DejaVuSans-Bold-6f" transform="translate(1720.458984 0)"/>
     <use xlink:href="#DejaVuSans-Bold-6e" transform="translate(1789.160156 0)"/>
     <use xlink:href="#DejaVuSans-Bold-20" transform="translate(1860.351562 0)"/>
     <use xlink:href="#DejaVuSans-Bold-4b" transform="translate(1895.166016 0)"/>
     <use xlink:href="#DejaVuSans-Bold-61" transform="translate(1972.65625 0)"/>
     <use xlink:href="#DejaVuSans-Bold-72" transform="translate(2040.136719 0)"/>
     <use xlink:href="#DejaVuSans-Bold-6d" transform="translate(2089.453125 0)"/>
     <use xlink:href="#DejaVuSans-Bold-61" transform="translate(2193.652344 0)"/>
     <use xlink:href="#DejaVuSans-Bold-6e" transform="translate(2261.132812 0)"/>
    </g>
   </g>
   <g id="text_12">
    <!-- primo e ultimo sito -->
    <g transform="translate(436.67122 192.795679) scale(0.09 -0.09)">
     <defs>
      <path id="DejaVuSans-70" d="M 1159 525 
L 1159 -1331 
L 581 -1331 
L 581 3500 
L 1159 3500 
L 1159 2969 
Q 1341 3281 1617 3432 
Q 1894 3584 2278 3584 
Q 2916 3584 3314 3078 
Q 3713 2572 3713 1747 
Q 3713 922 3314 415 
Q 2916 -91 2278 -91 
Q 1894 -91 1617 61 
Q 1341 213 1159 525 
z
M 3116 1747 
Q 3116 2381 2855 2742 
Q 2594 3103 2138 3103 
Q 1681 3103 1420 2742 
Q 1159 2381 1159 1747 
Q 1159 1113 1420 752 
Q 1681 391 2138 391 
Q 2594 391 2855 752 
Q 3116 1113 3116 1747 
z
" transform="scale(0.015625)"/>
      <path id="DejaVuSans-69" d="M 603 3500 
L 1178 3500 
L 1178 0 
L 603 0 
L 603 3500 
z
M 603 4863 
L 1178 4863 
L 1178 4134 
L 603 4134 
L 603 4863 
z
" transform="scale(0.015625)"/>
      <path id="DejaVuSans-6f" d="M 1959 3097 
Q 1497 3097 1228 2736 
Q 959 2375 959 1747 
Q 959 1119 1226 758 
Q 1494 397 1959 397 
Q 2419 397 2687 759 
Q 2956 1122 2956 1747 
Q 2956 2369 2687 2733 
Q 2419 3097 1959 3097 
z
M 1959 3584 
Q 2709 3584 3137 3096 
Q 3566 2609 3566 1747 
Q 3566 888 3137 398 
Q 2709 -91 1959 -91 
Q 1206 -91 779 398 
Q 353 888 353 1747 
Q 353 2609 779 3096 
Q 1206 3584 1959 3584 
z
" transform="scale(0.015625)"/>
      <path id="DejaVuSans-75" d="M 544 1381 
L 544 3500 
L 1119 3500 
L 1119 1403 
Q 1119 906 1312 657 
Q 1506 409 1894 409 
Q 2359 409 2629 706 
Q 2900 1003 2900 1516 
L 2900 3500 
L 3475 3500 
L 3475 0 
L 2900 0 
L 2900 538 
Q 2691 219 2414 64 
Q 2138 -91 1772 -91 
Q 1169 -91 856 284 
Q 544 659 544 1381 
z
M 1991 3584 
L 1991 3584 
z
" transform="scale(0.015625)"/>
      <path id="DejaVuSans-73" d="M 2834 3397 
L 2834 2853 
Q 2591 2978 2328 3040 
Q 2066 3103 1784 3103 
Q 1356 3103 1142 2972 
Q 928 2841 928 2578 
Q 928 2378 1081 2264 
Q 1234 2150 1697 2047 
L 1894 2003 
Q 2506 1872 2764 1633 
Q 3022 1394 3022 966 
Q 3022 478 2636 193 
Q 2250 -91 1575 -91 
Q 1294 -91 989 -36 
Q 684 19 347 128 
L 347 722 
Q 666 556 975 473 
Q 1284 391 1588 391 
Q 1994 391 2212 530 
Q 2431 669 2431 922 
Q 2431 1156 2273 1281 
Q 2116 1406 1581 1522 
L 1381 1569 
Q 847 1681 609 1914 
Q 372 2147 372 2553 
Q 372 3047 722 3315 
Q 1072 3584 1716 3584 
Q 2034 3584 2315 3537 
Q 2597 3491 2834 3397 
z
" transform="scale(0.015625)"/>
     </defs>
     <use xlink:href="#DejaVuSans-70"/>
     <use xlink:href="#DejaVuSans-72" transform="translate(63.476562 0)"/>
     <use xlink:href="#DejaVuSans-69" transform="translate(104.589844 0)"/>
     <use xlink:href="#DejaVuSans-6d" transform="translate(132.373047 0)"/>
     <use xlink:href="#DejaVuSans-6f" transform="translate(229.785156 0)"/>
     <use xlink:href="#DejaVuSans-20" transform="translate(290.966797 0)"/>
     <use xlink:href="#DejaVuSans-65" transform="translate(322.753906 0)"/>
     <use xlink:href="#DejaVuSans-20" transform="translate(384.277344 0)"/>
     <use xlink:href="#DejaVuSans-75" transform="translate(416.064453 0)"/>
     <use xlink:href="#DejaVuSans-6c" transform="translate(479.443359 0)"/>
     <use xlink:href="#DejaVuSans-74" transform="translate(507.226562 0)"/>
     <use xlink:href="#DejaVuSans-69" transform="translate(546.435547 0)"/>
     <use xlink:href="#DejaVuSans-6d" transform="translate(574.21875 0)"/>
     <use xlink:href="#DejaVuSans-6f" transform="translate(671.630859 0)"/>
     <use xlink:href="#DejaVuSans-20" transform="translate(732.8125 0)"/>
     <use xlink:href="#DejaVuSans-73" transform="translate(764.599609 0)"/>
     <use xlink:href="#DejaVuSans-69" transform="translate(816.699219 0)"/>
     <use xlink:href="#DejaVuSans-74" transform="translate(844.482422 0)"/>
     <use xlink:href="#DejaVuSans-6f" transform="translate(883.691406 0)"/>
    </g>
    <!-- identificati -->
    <g transform="translate(455.366611 202.87371) scale(0.09 -0.09)">
     <defs>
      <path id="DejaVuSans-64" d="M 2906 2969 
L 2906 4863 
L 3481 4863 
L 3481 0 
L 2906 0 
L 2906 525 
Q 2725 213 2448 61 
Q 2172 -91 1784 -91 
Q 1150 -91 751 415 
Q 353 922 353 1747 
Q 353 2572 751 3078 
Q 1150 3584 1784 3584 
Q 2172 3584 2448 3432 
Q 2725 3281 2906 2969 
z
M 947 1747 
Q 947 1113 1208 752 
Q 1469 391 1925 391 
Q 2381 391 2643 752 
Q 2906 1113 2906 1747 
Q 2906 2381 2643 2742 
Q 2381 3103 1925 3103 
Q 1469 3103 1208 2742 
Q 947 2381 947 1747 
z
" transform="scale(0.015625)"/>
      <path id="DejaVuSans-66" d="M 2375 4863 
L 2375 4384 
L 1825 4384 
Q 1516 4384 1395 4259 
Q 1275 4134 1275 3809 
L 1275 3500 
L 2222 3500 
L 2222 3053 
L 1275 3053 
L 1275 0 
L 697 0 
L 697 3053 
L 147 3053 
L 147 3500 
L 697 3500 
L 697 3744 
Q 697 4328 969 4595 
Q 1241 4863 1831 4863 
L 2375 4863 
z
" transform="scale(0.015625)"/>
     </defs>
     <use xlink:href="#DejaVuSans-69"/>
     <use xlink:href="#DejaVuSans-64" transform="translate(27.783203 0)"/>
     <use xlink:href="#DejaVuSans-65" transform="translate(91.259766 0)"/>
     <use xlink:href="#DejaVuSans-6e" transform="translate(152.783203 0)"/>
     <use xlink:href="#DejaVuSans-74" transform="translate(216.162109 0)"/>
     <use xlink:href="#DejaVuSans-69" transform="translate(255.371094 0)"/>
     <use xlink:href="#DejaVuSans-66" transform="translate(283.154297 0)"/>
     <use xlink:href="#DejaVuSans-69" transform="translate(318.359375 0)"/>
     <use xlink:href="#DejaVuSans-63" transform="translate(346.142578 0)"/>
     <use xlink:href="#DejaVuSans-61" transform="translate(401.123047 0)"/>
     <use xlink:href="#DejaVuSans-74" transform="translate(462.402344 0)"/>
     <use xlink:href="#DejaVuSans-69" transform="translate(501.611328 0)"/>
    </g>
   </g>
   <g id="text_13">
    <!-- La chiusura ad anello elimina le superfici senza modificare la periodicità locale della catena. -->
    <g transform="translate(97.27218 358.630143) scale(0.1 -0.1)">
     <defs>
      <path id="DejaVuSans-4c" d="M 628 4666 
L 1259 4666 
L 1259 531 
L 3531 531 
L 3531 0 
L 628 0 
L 628 4666 
z
" transform="scale(0.015625)"/>
      <path id="DejaVuSans-68" d="M 3513 2113 
L 3513 0 
L 2938 0 
L 2938 2094 
Q 2938 2591 2744 2837 
Q 2550 3084 2163 3084 
Q 1697 3084 1428 2787 
Q 1159 2491 1159 1978 
L 1159 0 
L 581 0 
L 581 4863 
L 1159 4863 
L 1159 2956 
Q 1366 3272 1645 3428 
Q 1925 3584 2291 3584 
Q 2894 3584 3203 3211 
Q 3513 2838 3513 2113 
z
" transform="scale(0.015625)"/>
      <path id="DejaVuSans-7a" d="M 353 3500 
L 3084 3500 
L 3084 2975 
L 922 459 
L 3084 459 
L 3084 0 
L 275 0 
L 275 525 
L 2438 3041 
L 353 3041 
L 353 3500 
z
" transform="scale(0.015625)"/>
      <path id="DejaVuSans-e0" d="M 2194 1759 
Q 1497 1759 1228 1600 
Q 959 1441 959 1056 
Q 959 750 1161 570 
Q 1363 391 1709 391 
Q 2188 391 2477 730 
Q 2766 1069 2766 1631 
L 2766 1759 
L 2194 1759 
z
M 3341 1997 
L 3341 0 
L 2766 0 
L 2766 531 
Q 2569 213 2275 61 
Q 1981 -91 1556 -91 
Q 1019 -91 701 211 
Q 384 513 384 1019 
Q 384 1609 779 1909 
Q 1175 2209 1959 2209 
L 2766 2209 
L 2766 2266 
Q 2766 2663 2505 2880 
Q 2244 3097 1772 3097 
Q 1472 3097 1187 3025 
Q 903 2953 641 2809 
L 641 3341 
Q 956 3463 1253 3523 
Q 1550 3584 1831 3584 
Q 2591 3584 2966 3190 
Q 3341 2797 3341 1997 
z
M 1403 5119 
L 2284 3950 
L 1806 3950 
L 787 5119 
L 1403 5119 
z
" transform="scale(0.015625)"/>
      <path id="DejaVuSans-2e" d="M 684 794 
L 1344 794 
L 1344 0 
L 684 0 
L 684 794 
z
" transform="scale(0.015625)"/>
     </defs>
     <use xlink:href="#DejaVuSans-4c"/>
     <use xlink:href="#DejaVuSans-61" transform="translate(55.712891 0)"/>
     <use xlink:href="#DejaVuSans-20" transform="translate(116.992188 0)"/>
     <use xlink:href="#DejaVuSans-63" transform="translate(148.779297 0)"/>
     <use xlink:href="#DejaVuSans-68" transform="translate(203.759766 0)"/>
     <use xlink:href="#DejaVuSans-69" transform="translate(267.138672 0)"/>
     <use xlink:href="#DejaVuSans-75" transform="translate(294.921875 0)"/>
     <use xlink:href="#DejaVuSans-73" transform="translate(358.300781 0)"/>
     <use xlink:href="#DejaVuSans-75" transform="translate(410.400391 0)"/>
     <use xlink:href="#DejaVuSans-72" transform="translate(473.779297 0)"/>
     <use xlink:href="#DejaVuSans-61" transform="translate(514.892578 0)"/>
     <use xlink:href="#DejaVuSans-20" transform="translate(576.171875 0)"/>
     <use xlink:href="#DejaVuSans-61" transform="translate(607.958984 0)"/>
     <use xlink:href="#DejaVuSans-64" transform="translate(669.238281 0)"/>
     <use xlink:href="#DejaVuSans-20" transform="translate(732.714844 0)"/>
     <use xlink:href="#DejaVuSans-61" transform="translate(764.501953 0)"/>
     <use xlink:href="#DejaVuSans-6e" transform="translate(825.78125 0)"/>
     <use xlink:href="#DejaVuSans-65" transform="translate(889.160156 0)"/>
     <use xlink:href="#DejaVuSans-6c" transform="translate(950.683594 0)"/>
     <use xlink:href="#DejaVuSans-6c" transform="translate(978.466797 0)"/>
     <use xlink:href="#DejaVuSans-6f" transform="translate(1006.25 0)"/>
     <use xlink:href="#DejaVuSans-20" transform="translate(1067.431641 0)"/>
     <use xlink:href="#DejaVuSans-65" transform="translate(1099.21875 0)"/>
     <use xlink:href="#DejaVuSans-6c" transform="translate(1160.742188 0)"/>
     <use xlink:href="#DejaVuSans-69" transform="translate(1188.525391 0)"/>
     <use xlink:href="#DejaVuSans-6d" transform="translate(1216.308594 0)"/>
     <use xlink:href="#DejaVuSans-69" transform="translate(1313.720703 0)"/>
     <use xlink:href="#DejaVuSans-6e" transform="translate(1341.503906 0)"/>
     <use xlink:href="#DejaVuSans-61" transform="translate(1404.882812 0)"/>
     <use xlink:href="#DejaVuSans-20" transform="translate(1466.162109 0)"/>
     <use xlink:href="#DejaVuSans-6c" transform="translate(1497.949219 0)"/>
     <use xlink:href="#DejaVuSans-65" transform="translate(1525.732422 0)"/>
     <use xlink:href="#DejaVuSans-20" transform="translate(1587.255859 0)"/>
     <use xlink:href="#DejaVuSans-73" transform="translate(1619.042969 0)"/>
     <use xlink:href="#DejaVuSans-75" transform="translate(1671.142578 0)"/>
     <use xlink:href="#DejaVuSans-70" transform="translate(1734.521484 0)"/>
     <use xlink:href="#DejaVuSans-65" transform="translate(1797.998047 0)"/>
     <use xlink:href="#DejaVuSans-72" transform="translate(1859.521484 0)"/>
     <use xlink:href="#DejaVuSans-66" transform="translate(1900.634766 0)"/>
     <use xlink:href="#DejaVuSans-69" transform="translate(1935.839844 0)"/>
     <use xlink:href="#DejaVuSans-63" transform="translate(1963.623047 0)"/>
     <use xlink:href="#DejaVuSans-69" transform="translate(2018.603516 0)"/>
     <use xlink:href="#DejaVuSans-20" transform="translate(2046.386719 0)"/>
     <use xlink:href="#DejaVuSans-73" transform="translate(2078.173828 0)"/>
     <use xlink:href="#DejaVuSans-65" transform="translate(2130.273438 0)"/>
     <use xlink:href="#DejaVuSans-6e" transform="translate(2191.796875 0)"/>
     <use xlink:href="#DejaVuSans-7a" transform="translate(2255.175781 0)"/>
     <use xlink:href="#DejaVuSans-61" transform="translate(2307.666016 0)"/>
     <use xlink:href="#DejaVuSans-20" transform="translate(2368.945312 0)"/>
     <use xlink:href="#DejaVuSans-6d" transform="translate(2400.732422 0)"/>
     <use xlink:href="#DejaVuSans-6f" transform="translate(2498.144531 0)"/>
     <use xlink:href="#DejaVuSans-64" transform="translate(2559.326172 0)"/>
     <use xlink:href="#DejaVuSans-69" transform="translate(2622.802734 0)"/>
     <use xlink:href="#DejaVuSans-66" transform="translate(2650.585938 0)"/>
     <use xlink:href="#DejaVuSans-69" transform="translate(2685.791016 0)"/>
     <use xlink:href="#DejaVuSans-63" transform="translate(2713.574219 0)"/>
     <use xlink:href="#DejaVuSans-61" transform="translate(2768.554688 0)"/>
     <use xlink:href="#DejaVuSans-72" transform="translate(2829.833984 0)"/>
     <use xlink:href="#DejaVuSans-65" transform="translate(2868.697266 0)"/>
     <use xlink:href="#DejaVuSans-20" transform="translate(2930.220703 0)"/>
     <use xlink:href="#DejaVuSans-6c" transform="translate(2962.007812 0)"/>
     <use xlink:href="#DejaVuSans-61" transform="translate(2989.791016 0)"/>
     <use xlink:href="#DejaVuSans-20" transform="translate(3051.070312 0)"/>
     <use xlink:href="#DejaVuSans-70" transform="translate(3082.857422 0)"/>
     <use xlink:href="#DejaVuSans-65" transform="translate(3146.333984 0)"/>
     <use xlink:href="#DejaVuSans-72" transform="translate(3207.857422 0)"/>
     <use xlink:href="#DejaVuSans-69" transform="translate(3248.970703 0)"/>
     <use xlink:href="#DejaVuSans-6f" transform="translate(3276.753906 0)"/>
     <use xlink:href="#DejaVuSans-64" transform="translate(3337.935547 0)"/>
     <use xlink:href="#DejaVuSans-69" transform="translate(3401.412109 0)"/>
     <use xlink:href="#DejaVuSans-63" transform="translate(3429.195312 0)"/>
     <use xlink:href="#DejaVuSans-69" transform="translate(3484.175781 0)"/>
     <use xlink:href="#DejaVuSans-74" transform="translate(3511.958984 0)"/>
     <use xlink:href="#DejaVuSans-e0" transform="translate(3551.167969 0)"/>
     <use xlink:href="#DejaVuSans-20" transform="translate(3612.447266 0)"/>
     <use xlink:href="#DejaVuSans-6c" transform="translate(3644.234375 0)"/>
     <use xlink:href="#DejaVuSans-6f" transform="translate(3672.017578 0)"/>
     <use xlink:href="#DejaVuSans-63" transform="translate(3733.199219 0)"/>
     <use xlink:href="#DejaVuSans-61" transform="translate(3788.179688 0)"/>
     <use xlink:href="#DejaVuSans-6c" transform="translate(3849.458984 0)"/>
     <use xlink:href="#DejaVuSans-65" transform="translate(3877.242188 0)"/>
     <use xlink:href="#DejaVuSans-20" transform="translate(3938.765625 0)"/>
     <use xlink:href="#DejaVuSans-64" transform="translate(3970.552734 0)"/>
     <use xlink:href="#DejaVuSans-65" transform="translate(4034.029297 0)"/>
     <use xlink:href="#DejaVuSans-6c" transform="translate(4095.552734 0)"/>
     <use xlink:href="#DejaVuSans-6c" transform="translate(4123.335938 0)"/>
     <use xlink:href="#DejaVuSans-61" transform="translate(4151.119141 0)"/>
     <use xlink:href="#DejaVuSans-20" transform="translate(4212.398438 0)"/>
     <use xlink:href="#DejaVuSans-63" transform="translate(4244.185547 0)"/>
     <use xlink:href="#DejaVuSans-61" transform="translate(4299.166016 0)"/>
     <use xlink:href="#DejaVuSans-74" transform="translate(4360.445312 0)"/>
     <use xlink:href="#DejaVuSans-65" transform="translate(4399.654297 0)"/>
     <use xlink:href="#DejaVuSans-6e" transform="translate(4461.177734 0)"/>
     <use xlink:href="#DejaVuSans-61" transform="translate(4524.556641 0)"/>
     <use xlink:href="#DejaVuSans-2e" transform="translate(4585.835938 0)"/>
    </g>
   </g>
   <g id="text_14">
    <!-- Catena armonica monoatomica: forma lineare e chiusura periodica -->
    <g transform="translate(45.866711 18.597656) scale(0.15 -0.15)">
     <defs>
      <path id="DejaVuSans-Bold-43" d="M 4288 256 
Q 3956 84 3597 -3 
Q 3238 -91 2847 -91 
Q 1681 -91 1000 561 
Q 319 1213 319 2328 
Q 319 3447 1000 4098 
Q 1681 4750 2847 4750 
Q 3238 4750 3597 4662 
Q 3956 4575 4288 4403 
L 4288 3438 
Q 3953 3666 3628 3772 
Q 3303 3878 2944 3878 
Q 2300 3878 1931 3465 
Q 1563 3053 1563 2328 
Q 1563 1606 1931 1193 
Q 2300 781 2944 781 
Q 3303 781 3628 887 
Q 3953 994 4288 1222 
L 4288 256 
z
" transform="scale(0.015625)"/>
      <path id="DejaVuSans-Bold-3a" d="M 716 3500 
L 1844 3500 
L 1844 2291 
L 716 2291 
L 716 3500 
z
M 716 1209 
L 1844 1209 
L 1844 0 
L 716 0 
L 716 1209 
z
" transform="scale(0.015625)"/>
      <path id="DejaVuSans-Bold-66" d="M 2841 4863 
L 2841 4128 
L 2222 4128 
Q 1984 4128 1890 4042 
Q 1797 3956 1797 3744 
L 1797 3500 
L 2753 3500 
L 2753 2700 
L 1797 2700 
L 1797 0 
L 678 0 
L 678 2700 
L 122 2700 
L 122 3500 
L 678 3500 
L 678 3744 
Q 678 4316 997 4589 
Q 1316 4863 1984 4863 
L 2841 4863 
z
" transform="scale(0.015625)"/>
      <path id="DejaVuSans-Bold-68" d="M 4056 2131 
L 4056 0 
L 2931 0 
L 2931 347 
L 2931 1625 
Q 2931 2084 2911 2256 
Q 2891 2428 2841 2509 
Q 2775 2619 2662 2680 
Q 2550 2741 2406 2741 
Q 2056 2741 1856 2470 
Q 1656 2200 1656 1722 
L 1656 0 
L 538 0 
L 538 4863 
L 1656 4863 
L 1656 2988 
Q 1909 3294 2193 3439 
Q 2478 3584 2822 3584 
Q 3428 3584 3742 3212 
Q 4056 2841 4056 2131 
z
" transform="scale(0.015625)"/>
      <path id="DejaVuSans-Bold-75" d="M 500 1363 
L 500 3500 
L 1625 3500 
L 1625 3150 
Q 1625 2866 1622 2436 
Q 1619 2006 1619 1863 
Q 1619 1441 1641 1255 
Q 1663 1069 1716 984 
Q 1784 875 1895 815 
Q 2006 756 2150 756 
Q 2500 756 2700 1025 
Q 2900 1294 2900 1772 
L 2900 3500 
L 4019 3500 
L 4019 0 
L 2900 0 
L 2900 506 
Q 2647 200 2364 54 
Q 2081 -91 1741 -91 
Q 1134 -91 817 281 
Q 500 653 500 1363 
z
" transform="scale(0.015625)"/>
      <path id="DejaVuSans-Bold-73" d="M 3272 3391 
L 3272 2541 
Q 2913 2691 2578 2766 
Q 2244 2841 1947 2841 
Q 1628 2841 1473 2761 
Q 1319 2681 1319 2516 
Q 1319 2381 1436 2309 
Q 1553 2238 1856 2203 
L 2053 2175 
Q 2913 2066 3209 1816 
Q 3506 1566 3506 1031 
Q 3506 472 3093 190 
Q 2681 -91 1863 -91 
Q 1516 -91 1145 -36 
Q 775 19 384 128 
L 384 978 
Q 719 816 1070 734 
Q 1422 653 1784 653 
Q 2113 653 2278 743 
Q 2444 834 2444 1013 
Q 2444 1163 2330 1236 
Q 2216 1309 1875 1350 
L 1678 1375 
Q 931 1469 631 1722 
Q 331 1975 331 2491 
Q 331 3047 712 3315 
Q 1094 3584 1881 3584 
Q 2191 3584 2531 3537 
Q 2872 3491 3272 3391 
z
" transform="scale(0.015625)"/>
     </defs>
     <use xlink:href="#DejaVuSans-Bold-43"/>
     <use xlink:href="#DejaVuSans-Bold-61" transform="translate(73.388672 0)"/>
     <use xlink:href="#DejaVuSans-Bold-74" transform="translate(140.869141 0)"/>
     <use xlink:href="#DejaVuSans-Bold-65" transform="translate(188.671875 0)"/>
     <use xlink:href="#DejaVuSans-Bold-6e" transform="translate(256.494141 0)"/>
     <use xlink:href="#DejaVuSans-Bold-61" transform="translate(327.685547 0)"/>
     <use xlink:href="#DejaVuSans-Bold-20" transform="translate(395.166016 0)"/>
     <use xlink:href="#DejaVuSans-Bold-61" transform="translate(429.980469 0)"/>
     <use xlink:href="#DejaVuSans-Bold-72" transform="translate(497.460938 0)"/>
     <use xlink:href="#DejaVuSans-Bold-6d" transform="translate(546.777344 0)"/>
     <use xlink:href="#DejaVuSans-Bold-6f" transform="translate(650.976562 0)"/>
     <use xlink:href="#DejaVuSans-Bold-6e" transform="translate(719.677734 0)"/>
     <use xlink:href="#DejaVuSans-Bold-69" transform="translate(790.869141 0)"/>
     <use xlink:href="#DejaVuSans-Bold-63" transform="translate(825.146484 0)"/>
     <use xlink:href="#DejaVuSans-Bold-61" transform="translate(884.423828 0)"/>
     <use xlink:href="#DejaVuSans-Bold-20" transform="translate(951.904297 0)"/>
     <use xlink:href="#DejaVuSans-Bold-6d" transform="translate(986.71875 0)"/>
     <use xlink:href="#DejaVuSans-Bold-6f" transform="translate(1090.917969 0)"/>
     <use xlink:href="#DejaVuSans-Bold-6e" transform="translate(1159.619141 0)"/>
     <use xlink:href="#DejaVuSans-Bold-6f" transform="translate(1230.810547 0)"/>
     <use xlink:href="#DejaVuSans-Bold-61" transform="translate(1299.511719 0)"/>
     <use xlink:href="#DejaVuSans-Bold-74" transform="translate(1366.992188 0)"/>
     <use xlink:href="#DejaVuSans-Bold-6f" transform="translate(1414.794922 0)"/>
     <use xlink:href="#DejaVuSans-Bold-6d" transform="translate(1483.496094 0)"/>
     <use xlink:href="#DejaVuSans-Bold-69" transform="translate(1587.695312 0)"/>
     <use xlink:href="#DejaVuSans-Bold-63" transform="translate(1621.972656 0)"/>
     <use xlink:href="#DejaVuSans-Bold-61" transform="translate(1681.25 0)"/>
     <use xlink:href="#DejaVuSans-Bold-3a" transform="translate(1748.730469 0)"/>
     <use xlink:href="#DejaVuSans-Bold-20" transform="translate(1788.720703 0)"/>
     <use xlink:href="#DejaVuSans-Bold-66" transform="translate(1823.535156 0)"/>
     <use xlink:href="#DejaVuSans-Bold-6f" transform="translate(1867.041016 0)"/>
     <use xlink:href="#DejaVuSans-Bold-72" transform="translate(1935.742188 0)"/>
     <use xlink:href="#DejaVuSans-Bold-6d" transform="translate(1985.058594 0)"/>
     <use xlink:href="#DejaVuSans-Bold-61" transform="translate(2089.257812 0)"/>
     <use xlink:href="#DejaVuSans-Bold-20" transform="translate(2156.738281 0)"/>
     <use xlink:href="#DejaVuSans-Bold-6c" transform="translate(2191.552734 0)"/>
     <use xlink:href="#DejaVuSans-Bold-69" transform="translate(2225.830078 0)"/>
     <use xlink:href="#DejaVuSans-Bold-6e" transform="translate(2260.107422 0)"/>
     <use xlink:href="#DejaVuSans-Bold-65" transform="translate(2331.298828 0)"/>
     <use xlink:href="#DejaVuSans-Bold-61" transform="translate(2399.121094 0)"/>
     <use xlink:href="#DejaVuSans-Bold-72" transform="translate(2466.601562 0)"/>
     <use xlink:href="#DejaVuSans-Bold-65" transform="translate(2515.917969 0)"/>
     <use xlink:href="#DejaVuSans-Bold-20" transform="translate(2583.740234 0)"/>
     <use xlink:href="#DejaVuSans-Bold-65" transform="translate(2618.554688 0)"/>
     <use xlink:href="#DejaVuSans-Bold-20" transform="translate(2686.376953 0)"/>
     <use xlink:href="#DejaVuSans-Bold-63" transform="translate(2721.191406 0)"/>
     <use xlink:href="#DejaVuSans-Bold-68" transform="translate(2780.46875 0)"/>
     <use xlink:href="#DejaVuSans-Bold-69" transform="translate(2851.660156 0)"/>
     <use xlink:href="#DejaVuSans-Bold-75" transform="translate(2885.9375 0)"/>
     <use xlink:href="#DejaVuSans-Bold-73" transform="translate(2957.128906 0)"/>
     <use xlink:href="#DejaVuSans-Bold-75" transform="translate(3016.650391 0)"/>
     <use xlink:href="#DejaVuSans-Bold-72" transform="translate(3087.841797 0)"/>
     <use xlink:href="#DejaVuSans-Bold-61" transform="translate(3137.158203 0)"/>
     <use xlink:href="#DejaVuSans-Bold-20" transform="translate(3204.638672 0)"/>
     <use xlink:href="#DejaVuSans-Bold-70" transform="translate(3239.453125 0)"/>
     <use xlink:href="#DejaVuSans-Bold-65" transform="translate(3311.035156 0)"/>
     <use xlink:href="#DejaVuSans-Bold-72" transform="translate(3378.857422 0)"/>
     <use xlink:href="#DejaVuSans-Bold-69" transform="translate(3428.173828 0)"/>
     <use xlink:href="#DejaVuSans-Bold-6f" transform="translate(3462.451172 0)"/>
     <use xlink:href="#DejaVuSans-Bold-64" transform="translate(3531.152344 0)"/>
     <use xlink:href="#DejaVuSans-Bold-69" transform="translate(3602.734375 0)"/>
     <use xlink:href="#DejaVuSans-Bold-63" transform="translate(3637.011719 0)"/>
     <use xlink:href="#DejaVuSans-Bold-61" transform="translate(3696.289062 0)"/>
    </g>
   </g>
  </g>
 </g>
 <defs>
  <clipPath id="p27e435c5b9">
   <rect x="7.2" y="30.597656" width="641.905297" height="349.272"/>
  </clipPath>
 </defs>
</svg>
