<?xml version="1.0" encoding="utf-8" standalone="no"?>
<!DOCTYPE svg PUBLIC "-//W3C//DTD SVG 1.1//EN"
  "http://www.w3.org/Graphics/SVG/1.1/DTD/svg11.dtd">
<svg xmlns:xlink="http://www.w3.org/1999/xlink" width="556.36875pt" height="409.245656pt" viewBox="0 0 556.36875 409.245656" xmlns="http://www.w3.org/2000/svg" version="1.1">
 <metadata>
  <rdf:RDF xmlns:dc="http://purl.org/dc/elements/1.1/" xmlns:cc="http://creativecommons.org/ns#" xmlns:rdf="http://www.w3.org/1999/02/22-rdf-syntax-ns#">
   <cc:Work>
    <dc:type rdf:resource="http://purl.org/dc/dcmitype/StillImage"/>
    <dc:date>2026-06-16T09:33:58.792195</dc:date>
    <dc:format>image/svg+xml</dc:format>
    <dc:creator>
     <cc:Agent>
      <dc:title>Matplotlib v3.10.8, https://matplotlib.org/</dc:title>
     </cc:Agent>
    </dc:creator>
   </cc:Work>
  </rdf:RDF>
 </metadata>
 <defs>
  <style type="text/css">*{stroke-linejoin: round; stroke-linecap: butt}</style>
 </defs>
 <g id="figure_1">
  <g id="patch_1">
   <path d="M 0 409.245656 
L 556.36875 409.245656 
L 556.36875 0 
L 0 0 
z
" style="fill: #ffffff"/>
  </g>
  <g id="axes_1">
   <g id="line2d_1">
    <path d="M 395.478236 224.169149 
L 395.401625 221.853576 
L 395.172158 219.543392 
L 394.79094 217.243937 
L 394.259797 214.960461 
L 393.187708 211.576343 
L 391.795567 208.25608 
L 390.098012 205.014888 
L 388.112608 201.866472 
L 385.859491 198.822772 
L 383.36096 195.893759 
L 380.641029 193.087267 
L 377.724945 190.40888 
L 374.638691 187.861871 
L 371.40847 185.447185 
L 366.922261 182.430819 
L 362.285173 179.637934 
L 357.55187 177.053151 
L 351.573134 174.082835 
L 344.407421 170.834499 
L 335.009966 166.880131 
L 309.055696 156.137268 
L 295.143027 150.329261 
L 287.738463 147.46215 
L 281.257518 145.18057 
L 275.849563 143.476008 
L 270.238597 141.921752 
L 264.430242 140.559356 
L 258.439808 139.430515 
L 253.842138 138.761492 
L 249.169814 138.262561 
L 244.439473 137.948448 
L 239.670203 137.832296 
L 234.883221 137.925386 
L 230.101498 138.236884 
L 225.349344 138.773643 
L 220.651955 139.540046 
L 216.034937 140.537902 
L 211.523813 141.766398 
L 207.143535 143.222102 
L 202.917995 144.899024 
L 198.869561 146.788726 
L 195.018646 148.880487 
L 191.383312 151.161512 
L 187.978923 153.617181 
L 184.817864 156.231343 
L 181.909312 158.986624 
L 179.259088 161.864777 
L 176.869568 164.847029 
L 174.739685 167.914445 
L 172.864992 171.048287 
L 171.237807 174.230369 
L 169.847422 177.443385 
L 168.680389 180.671217 
L 167.720851 183.899218 
L 166.950936 187.114446 
L 166.185554 191.362757 
L 165.67359 195.54852 
L 165.313223 200.672691 
L 165.164232 206.650346 
L 165.227918 216.2407 
L 165.267322 228.353395 
L 165.208897 244.653419 
L 165.425585 249.699952 
L 165.780576 253.829492 
L 166.351188 258.032439 
L 167.187678 262.293453 
L 168.018709 265.514263 
L 169.045517 268.743735 
L 170.28535 271.968333 
L 171.753302 275.172893 
L 173.461945 278.340868 
L 175.421004 281.454624 
L 177.637103 284.49575 
L 180.113575 287.445406 
L 182.850344 290.284669 
L 185.843879 292.994902 
L 189.08723 295.55811 
L 192.570129 297.95729 
L 196.279171 300.176766 
L 200.198056 302.202498 
L 204.307898 304.022356 
L 208.587588 305.626358 
L 213.014198 307.006868 
L 217.56343 308.158736 
L 222.210089 309.079402 
L 226.928567 309.768927 
L 231.693343 310.229987 
L 236.479463 310.467803 
L 241.263015 310.490018 
L 246.021568 310.306529 
L 250.734576 309.929265 
L 255.383736 309.371931 
L 259.953284 308.649711 
L 265.900165 307.458623 
L 271.660227 306.044331 
L 277.220595 304.448643 
L 283.886179 302.261653 
L 290.248982 299.931334 
L 298.71471 296.552531 
L 314.659746 289.831587 
L 329.263068 283.804189 
L 343.22059 278.017872 
L 350.37558 274.818638 
L 356.359353 271.901153 
L 361.108855 269.365344 
L 365.774909 266.626152 
L 370.304235 263.666769 
L 373.576656 261.296006 
L 376.713807 258.793113 
L 379.689523 256.158271 
L 382.477691 253.393974 
L 385.052761 250.505039 
L 387.390254 247.498563 
L 389.467249 244.383819 
L 391.26284 241.172112 
L 392.758564 237.876585 
L 393.938769 234.511979 
L 394.79094 231.094362 
L 395.172158 228.794907 
L 395.401625 226.484722 
L 395.478236 224.169149 
L 395.478236 224.169149 
" clip-path="url(#pc8aef4fb8d)" style="fill: none; stroke: #1f77b4; stroke-width: 2; stroke-linecap: square"/>
   </g>
   <g id="line2d_2">
    <path d="M 418.697498 224.169149 
L 418.473754 221.435148 
L 418.085339 218.711772 
L 417.534404 216.004435 
L 416.823796 213.318397 
L 415.957033 210.658719 
L 414.938273 208.030228 
L 413.135698 204.155842 
L 411.02033 200.375819 
L 408.612984 196.702382 
L 405.936515 193.14576 
L 403.015354 189.714043 
L 399.875036 186.413076 
L 396.541693 183.246418 
L 393.041554 180.215347 
L 389.400446 177.318912 
L 384.36927 173.660849 
L 379.186885 170.223866 
L 373.902565 166.99007 
L 367.21683 163.199589 
L 360.499538 159.642582 
L 351.114214 154.955826 
L 339.111231 149.237248 
L 324.344929 142.445334 
L 313.262198 137.583565 
L 304.597942 134.029863 
L 297.074207 131.188451 
L 290.828332 129.036554 
L 284.367796 127.031342 
L 277.689336 125.212267 
L 270.798783 123.620647 
L 265.500561 122.601312 
L 260.101506 121.750637 
L 254.614606 121.085138 
L 249.055666 120.62026 
L 243.443091 120.37005 
L 237.797611 120.346852 
L 232.141945 120.561042 
L 226.500419 121.020798 
L 220.898539 121.731912 
L 215.362538 122.697661 
L 209.918899 123.918716 
L 204.593865 125.393116 
L 199.41296 127.116288 
L 194.400509 129.081125 
L 189.579193 131.278117 
L 184.969626 133.695521 
L 180.589987 136.319592 
L 176.455691 139.134837 
L 172.579129 142.124313 
L 168.969465 145.269952 
L 165.632505 148.552896 
L 162.570646 151.953858 
L 159.782882 155.453478 
L 157.264905 159.032676 
L 155.009255 162.672995 
L 153.005561 166.356924 
L 151.240824 170.068197 
L 149.699771 173.79205 
L 148.365254 177.515451 
L 146.874894 182.460353 
L 145.672015 187.364239 
L 144.709067 192.213177 
L 143.772221 198.186771 
L 142.930522 205.228721 
L 142.100305 214.451643 
L 141.316567 225.888313 
L 140.891468 235.144903 
L 140.790394 242.235641 
L 140.941722 248.2689 
L 141.277575 253.180348 
L 141.856032 258.161864 
L 142.478812 261.936996 
L 143.286596 265.737322 
L 144.299442 269.553151 
L 145.536248 273.372787 
L 147.014293 277.182672 
L 148.748808 280.967585 
L 150.752594 284.710874 
L 153.035686 288.39473 
L 155.605081 292.000491 
L 158.464526 295.508972 
L 161.61438 298.900811 
L 165.051545 302.15682 
L 168.769475 305.258348 
L 172.758255 308.187626 
L 177.004754 310.928104 
L 181.492849 313.464765 
L 186.203702 315.784407 
L 191.116109 317.875893 
L 196.206885 319.730358 
L 201.451294 321.341369 
L 206.823511 322.705038 
L 212.297101 323.820079 
L 217.845505 324.687816 
L 223.442528 325.312131 
L 229.062812 325.699365 
L 234.682284 325.858167 
L 240.278569 325.79929 
L 245.831362 325.535354 
L 251.322747 325.080564 
L 256.737458 324.450399 
L 263.816755 323.365837 
L 270.716795 322.039119 
L 277.425909 320.510941 
L 283.941741 318.820823 
L 291.825126 316.536296 
L 300.942166 313.624532 
L 311.205324 310.095507 
L 325.456796 304.935556 
L 341.018008 299.06307 
L 351.005601 295.07667 
L 359.619256 291.385567 
L 366.791796 288.044303 
L 372.484646 285.159307 
L 378.093956 282.059411 
L 383.571485 278.724307 
L 387.560532 276.059256 
L 391.420061 273.249001 
L 395.124232 270.291414 
L 398.646648 267.186587 
L 401.960847 263.93691 
L 405.040803 260.547093 
L 407.861433 257.024142 
L 410.399079 253.377275 
L 412.631975 249.617797 
L 413.941557 247.055366 
L 415.101889 244.453062 
L 416.108445 241.815525 
L 416.95732 239.147658 
L 417.645265 236.454592 
L 418.169713 233.741638 
L 418.528809 231.01425 
L 418.721419 228.277975 
L 418.747142 225.538412 
L 418.697498 224.169149 
L 418.697498 224.169149 
" clip-path="url(#pc8aef4fb8d)" style="fill: none; stroke: #ff7f0e; stroke-width: 2; stroke-linecap: square"/>
   </g>
   <g id="line2d_3">
    <path d="M 362.773446 178.325096 
L 309.569281 156.390613 
" clip-path="url(#pc8aef4fb8d)" style="fill: none; stroke: #2ca02c; stroke-width: 4; stroke-linecap: round"/>
   </g>
   <g id="text_1">
    <!-- $\mathrm{d}S_{\omega_s}$ -->
    <g transform="translate(350.820017 190.900333) scale(0.1 -0.1)">
     <defs>
      <path id="DejaVuSans-64" d="M 2906 2969 
L 2906 4863 
L 3481 4863 
L 3481 0 
L 2906 0 
L 2906 525 
Q 2725 213 2448 61 
Q 2172 -91 1784 -91 
Q 1150 -91 751 415 
Q 353 922 353 1747 
Q 353 2572 751 3078 
Q 1150 3584 1784 3584 
Q 2172 3584 2448 3432 
Q 2725 3281 2906 2969 
z
M 947 1747 
Q 947 1113 1208 752 
Q 1469 391 1925 391 
Q 2381 391 2643 752 
Q 2906 1113 2906 1747 
Q 2906 2381 2643 2742 
Q 2381 3103 1925 3103 
Q 1469 3103 1208 2742 
Q 947 2381 947 1747 
z
" transform="scale(0.015625)"/>
      <path id="DejaVuSans-Oblique-53" d="M 3859 4513 
L 3738 3897 
Q 3422 4066 3111 4152 
Q 2800 4238 2509 4238 
Q 1944 4238 1609 3991 
Q 1275 3744 1275 3334 
Q 1275 3109 1398 2989 
Q 1522 2869 2034 2731 
L 2413 2638 
Q 3053 2472 3303 2217 
Q 3553 1963 3553 1503 
Q 3553 797 2998 353 
Q 2444 -91 1538 -91 
Q 1166 -91 791 -17 
Q 416 56 38 206 
L 166 856 
Q 513 641 861 531 
Q 1209 422 1556 422 
Q 2147 422 2503 684 
Q 2859 947 2859 1369 
Q 2859 1650 2717 1795 
Q 2575 1941 2106 2059 
L 1728 2156 
Q 1081 2325 845 2545 
Q 609 2766 609 3163 
Q 609 3859 1145 4304 
Q 1681 4750 2541 4750 
Q 2875 4750 3203 4690 
Q 3531 4631 3859 4513 
z
" transform="scale(0.015625)"/>
      <path id="DejaVuSans-Oblique-3c9" d="M 1369 -91 
Q 72 -91 434 1766 
Q 575 2500 1256 3500 
L 1875 3500 
Q 1231 2500 1088 1750 
Q 819 397 1519 397 
Q 2166 397 2478 2078 
L 3009 2078 
Q 2669 388 3316 397 
Q 4013 403 4275 1750 
Q 4419 2500 4169 3500 
L 4788 3500 
Q 5075 2500 4934 1766 
Q 4578 -94 3278 -91 
Q 2428 -88 2503 844 
Q 2194 -91 1369 -91 
z
" transform="scale(0.015625)"/>
      <path id="DejaVuSans-Oblique-73" d="M 3200 3397 
L 3091 2853 
Q 2863 2978 2609 3040 
Q 2356 3103 2088 3103 
Q 1634 3103 1373 2948 
Q 1113 2794 1113 2528 
Q 1113 2219 1719 2053 
Q 1766 2041 1788 2034 
L 1972 1978 
Q 2547 1819 2739 1644 
Q 2931 1469 2931 1166 
Q 2931 609 2489 259 
Q 2047 -91 1331 -91 
Q 1053 -91 747 -37 
Q 441 16 72 128 
L 184 722 
Q 500 559 806 475 
Q 1113 391 1394 391 
Q 1816 391 2080 572 
Q 2344 753 2344 1031 
Q 2344 1331 1650 1516 
L 1591 1531 
L 1394 1581 
Q 956 1697 753 1886 
Q 550 2075 550 2369 
Q 550 2928 970 3256 
Q 1391 3584 2113 3584 
Q 2397 3584 2667 3537 
Q 2938 3491 3200 3397 
z
" transform="scale(0.015625)"/>
     </defs>
     <use xlink:href="#DejaVuSans-64" transform="translate(0 0.015625)"/>
     <use xlink:href="#DejaVuSans-Oblique-53" transform="translate(63.476562 0.015625)"/>
     <use xlink:href="#DejaVuSans-Oblique-3c9" transform="translate(126.953125 -16.390625) scale(0.7)"/>
     <use xlink:href="#DejaVuSans-Oblique-73" transform="translate(185.571289 -27.875) scale(0.49)"/>
    </g>
   </g>
   <g id="patch_2">
    <path d="M 338.911687 165.083484 
Q 343.63989 161.159246 348.368093 157.235008 
" style="fill: none; stroke: #000000; stroke-width: 1.4; stroke-linecap: round"/>
    <path d="M 343.266973 164.067861 
L 338.911687 165.083484 
L 340.712361 160.989882 
" style="fill: none; stroke: #000000; stroke-width: 1.4; stroke-linecap: round"/>
    <path d="M 344.012808 158.25063 
L 348.368093 157.235008 
L 346.56742 161.328609 
" style="fill: none; stroke: #000000; stroke-width: 1.4; stroke-linecap: round"/>
   </g>
   <g id="text_2">
    <!-- $\mathrm{d}q_\perp(\mathbf{q})$ -->
    <g transform="translate(359.337775 155.925178) scale(0.095 -0.095)">
     <defs>
      <path id="DejaVuSans-Oblique-71" d="M 2669 525 
Q 2438 222 2123 65 
Q 1809 -91 1428 -91 
Q 897 -91 595 267 
Q 294 625 294 1253 
Q 294 1759 480 2231 
Q 666 2703 1013 3078 
Q 1238 3322 1530 3453 
Q 1822 3584 2144 3584 
Q 2531 3584 2781 3431 
Q 3031 3278 3144 2969 
L 3244 3494 
L 3822 3494 
L 2888 -1319 
L 2309 -1319 
L 2669 525 
z
M 891 1338 
Q 891 875 1084 633 
Q 1278 391 1644 391 
Q 2188 391 2572 911 
Q 2956 1431 2956 2175 
Q 2956 2625 2757 2864 
Q 2559 3103 2188 3103 
Q 1916 3103 1684 2976 
Q 1453 2850 1281 2606 
Q 1100 2350 995 2006 
Q 891 1663 891 1338 
z
" transform="scale(0.015625)"/>
      <path id="STIXGeneral-Regular-27c2" d="M 4102 0 
L 333 0 
L 333 422 
L 2010 422 
L 2010 4237 
L 2432 4237 
L 2432 422 
L 4102 422 
L 4102 0 
z
" transform="scale(0.015625)"/>
      <path id="DejaVuSans-28" d="M 1984 4856 
Q 1566 4138 1362 3434 
Q 1159 2731 1159 2009 
Q 1159 1288 1364 580 
Q 1569 -128 1984 -844 
L 1484 -844 
Q 1016 -109 783 600 
Q 550 1309 550 2009 
Q 550 2706 781 3412 
Q 1013 4119 1484 4856 
L 1984 4856 
z
" transform="scale(0.015625)"/>
      <path id="DejaVuSans-Bold-71" d="M 2181 2772 
Q 1825 2772 1636 2509 
Q 1447 2247 1447 1747 
Q 1447 1247 1636 984 
Q 1825 722 2181 722 
Q 2541 722 2730 984 
Q 2919 1247 2919 1747 
Q 2919 2247 2730 2509 
Q 2541 2772 2181 2772 
z
M 2919 506 
Q 2688 197 2409 53 
Q 2131 -91 1766 -91 
Q 1119 -91 703 423 
Q 288 938 288 1747 
Q 288 2556 703 3067 
Q 1119 3578 1766 3578 
Q 2131 3578 2409 3434 
Q 2688 3291 2919 2981 
L 2919 3500 
L 4044 3500 
L 4044 -1331 
L 2919 -1331 
L 2919 506 
z
" transform="scale(0.015625)"/>
      <path id="DejaVuSans-29" d="M 513 4856 
L 1013 4856 
Q 1481 4119 1714 3412 
Q 1947 2706 1947 2009 
Q 1947 1309 1714 600 
Q 1481 -109 1013 -844 
L 513 -844 
Q 928 -128 1133 580 
Q 1338 1288 1338 2009 
Q 1338 2731 1133 3434 
Q 928 4138 513 4856 
z
" transform="scale(0.015625)"/>
     </defs>
     <use xlink:href="#DejaVuSans-64" transform="translate(0 0.015625)"/>
     <use xlink:href="#DejaVuSans-Oblique-71" transform="translate(63.476562 0.015625)"/>
     <use xlink:href="#STIXGeneral-Regular-27c2" transform="translate(140.59082 -16.390625) scale(0.7)"/>
     <use xlink:href="#DejaVuSans-28" transform="translate(205.472882 0.015625)"/>
     <use xlink:href="#DejaVuSans-Bold-71" transform="translate(244.486554 0.015625)"/>
     <use xlink:href="#DejaVuSans-29" transform="translate(316.068585 0.015625)"/>
    </g>
   </g>
   <g id="patch_3">
    <path d="M 335.408444 169.208386 
Q 325.702278 192.751612 316.635319 214.74438 
" style="fill: none; stroke: #000000; stroke-width: 1.5; stroke-linecap: round"/>
    <path d="M 321.02103 210.927898 
L 316.635319 214.74438 
L 316.213559 208.945922 
z
" style="fill: #1f77b4; stroke: #000000; stroke-width: 1.5; stroke-linecap: round"/>
   </g>
   <g id="text_3">
    <!-- $\mathrm{d}\mathbf{q}$ -->
    <g transform="translate(325.697226 218.143648) scale(0.1 -0.1)">
     <use xlink:href="#DejaVuSans-64" transform="translate(0 0.015625)"/>
     <use xlink:href="#DejaVuSans-Bold-71" transform="translate(63.476562 0.015625)"/>
    </g>
   </g>
   <g id="text_4">
    <!-- $\mathrm{d}\omega=|\nabla_{\mathbf{q}}\omega_s(\mathbf{q})|\,\mathrm{d}q_\perp(\mathbf{q})$ -->
    <g transform="translate(81.997051 369.609352) scale(0.12 -0.12)">
     <defs>
      <path id="DejaVuSans-3d" d="M 678 2906 
L 4684 2906 
L 4684 2381 
L 678 2381 
L 678 2906 
z
M 678 1631 
L 4684 1631 
L 4684 1100 
L 678 1100 
L 678 1631 
z
" transform="scale(0.015625)"/>
      <path id="DejaVuSans-7c" d="M 1344 4891 
L 1344 -1509 
L 813 -1509 
L 813 4891 
L 1344 4891 
z
" transform="scale(0.015625)"/>
      <path id="DejaVuSans-2207" d="M 2138 659 
L 3444 4047 
L 831 4047 
L 2138 659 
z
M 1791 0 
L -19 4603 
L 4300 4603 
L 2491 0 
L 1791 0 
z
" transform="scale(0.015625)"/>
     </defs>
     <use xlink:href="#DejaVuSans-64" transform="translate(0 0.578125)"/>
     <use xlink:href="#DejaVuSans-Oblique-3c9" transform="translate(63.476562 0.578125)"/>
     <use xlink:href="#DejaVuSans-3d" transform="translate(166.699219 0.578125)"/>
     <use xlink:href="#DejaVuSans-7c" transform="translate(269.970703 0.578125)"/>
     <use xlink:href="#DejaVuSans-2207" transform="translate(303.662109 0.578125)"/>
     <use xlink:href="#DejaVuSans-Bold-71" transform="translate(371.513672 -15.828125) scale(0.7)"/>
     <use xlink:href="#DejaVuSans-Oblique-3c9" transform="translate(424.355469 0.578125)"/>
     <use xlink:href="#DejaVuSans-Oblique-73" transform="translate(508.095703 -15.828125) scale(0.7)"/>
     <use xlink:href="#DejaVuSans-28" transform="translate(547.299805 0.578125)"/>
     <use xlink:href="#DejaVuSans-Bold-71" transform="translate(586.313477 0.578125)"/>
     <use xlink:href="#DejaVuSans-29" transform="translate(657.895508 0.578125)"/>
     <use xlink:href="#DejaVuSans-7c" transform="translate(696.90918 0.578125)"/>
     <use xlink:href="#DejaVuSans-64" transform="translate(746.836262 0.578125)"/>
     <use xlink:href="#DejaVuSans-Oblique-71" transform="translate(810.312825 0.578125)"/>
     <use xlink:href="#STIXGeneral-Regular-27c2" transform="translate(887.427083 -15.828125) scale(0.7)"/>
     <use xlink:href="#DejaVuSans-28" transform="translate(952.309144 0.578125)"/>
     <use xlink:href="#DejaVuSans-Bold-71" transform="translate(991.322816 0.578125)"/>
     <use xlink:href="#DejaVuSans-29" transform="translate(1062.904847 0.578125)"/>
    </g>
   </g>
   <g id="text_5">
    <!-- La distanza normale tra le superfici converte l'intervallo di frequenza in uno spessore nello spazio reciproco. -->
    <g transform="translate(7.2 383.734839) scale(0.1 -0.1)">
     <defs>
      <path id="DejaVuSans-4c" d="M 628 4666 
L 1259 4666 
L 1259 531 
L 3531 531 
L 3531 0 
L 628 0 
L 628 4666 
z
" transform="scale(0.015625)"/>
      <path id="DejaVuSans-61" d="M 2194 1759 
Q 1497 1759 1228 1600 
Q 959 1441 959 1056 
Q 959 750 1161 570 
Q 1363 391 1709 391 
Q 2188 391 2477 730 
Q 2766 1069 2766 1631 
L 2766 1759 
L 2194 1759 
z
M 3341 1997 
L 3341 0 
L 2766 0 
L 2766 531 
Q 2569 213 2275 61 
Q 1981 -91 1556 -91 
Q 1019 -91 701 211 
Q 384 513 384 1019 
Q 384 1609 779 1909 
Q 1175 2209 1959 2209 
L 2766 2209 
L 2766 2266 
Q 2766 2663 2505 2880 
Q 2244 3097 1772 3097 
Q 1472 3097 1187 3025 
Q 903 2953 641 2809 
L 641 3341 
Q 956 3463 1253 3523 
Q 1550 3584 1831 3584 
Q 2591 3584 2966 3190 
Q 3341 2797 3341 1997 
z
" transform="scale(0.015625)"/>
      <path id="DejaVuSans-20" transform="scale(0.015625)"/>
      <path id="DejaVuSans-69" d="M 603 3500 
L 1178 3500 
L 1178 0 
L 603 0 
L 603 3500 
z
M 603 4863 
L 1178 4863 
L 1178 4134 
L 603 4134 
L 603 4863 
z
" transform="scale(0.015625)"/>
      <path id="DejaVuSans-73" d="M 2834 3397 
L 2834 2853 
Q 2591 2978 2328 3040 
Q 2066 3103 1784 3103 
Q 1356 3103 1142 2972 
Q 928 2841 928 2578 
Q 928 2378 1081 2264 
Q 1234 2150 1697 2047 
L 1894 2003 
Q 2506 1872 2764 1633 
Q 3022 1394 3022 966 
Q 3022 478 2636 193 
Q 2250 -91 1575 -91 
Q 1294 -91 989 -36 
Q 684 19 347 128 
L 347 722 
Q 666 556 975 473 
Q 1284 391 1588 391 
Q 1994 391 2212 530 
Q 2431 669 2431 922 
Q 2431 1156 2273 1281 
Q 2116 1406 1581 1522 
L 1381 1569 
Q 847 1681 609 1914 
Q 372 2147 372 2553 
Q 372 3047 722 3315 
Q 1072 3584 1716 3584 
Q 2034 3584 2315 3537 
Q 2597 3491 2834 3397 
z
" transform="scale(0.015625)"/>
      <path id="DejaVuSans-74" d="M 1172 4494 
L 1172 3500 
L 2356 3500 
L 2356 3053 
L 1172 3053 
L 1172 1153 
Q 1172 725 1289 603 
Q 1406 481 1766 481 
L 2356 481 
L 2356 0 
L 1766 0 
Q 1100 0 847 248 
Q 594 497 594 1153 
L 594 3053 
L 172 3053 
L 172 3500 
L 594 3500 
L 594 4494 
L 1172 4494 
z
" transform="scale(0.015625)"/>
      <path id="DejaVuSans-6e" d="M 3513 2113 
L 3513 0 
L 2938 0 
L 2938 2094 
Q 2938 2591 2744 2837 
Q 2550 3084 2163 3084 
Q 1697 3084 1428 2787 
Q 1159 2491 1159 1978 
L 1159 0 
L 581 0 
L 581 3500 
L 1159 3500 
L 1159 2956 
Q 1366 3272 1645 3428 
Q 1925 3584 2291 3584 
Q 2894 3584 3203 3211 
Q 3513 2838 3513 2113 
z
" transform="scale(0.015625)"/>
      <path id="DejaVuSans-7a" d="M 353 3500 
L 3084 3500 
L 3084 2975 
L 922 459 
L 3084 459 
L 3084 0 
L 275 0 
L 275 525 
L 2438 3041 
L 353 3041 
L 353 3500 
z
" transform="scale(0.015625)"/>
      <path id="DejaVuSans-6f" d="M 1959 3097 
Q 1497 3097 1228 2736 
Q 959 2375 959 1747 
Q 959 1119 1226 758 
Q 1494 397 1959 397 
Q 2419 397 2687 759 
Q 2956 1122 2956 1747 
Q 2956 2369 2687 2733 
Q 2419 3097 1959 3097 
z
M 1959 3584 
Q 2709 3584 3137 3096 
Q 3566 2609 3566 1747 
Q 3566 888 3137 398 
Q 2709 -91 1959 -91 
Q 1206 -91 779 398 
Q 353 888 353 1747 
Q 353 2609 779 3096 
Q 1206 3584 1959 3584 
z
" transform="scale(0.015625)"/>
      <path id="DejaVuSans-72" d="M 2631 2963 
Q 2534 3019 2420 3045 
Q 2306 3072 2169 3072 
Q 1681 3072 1420 2755 
Q 1159 2438 1159 1844 
L 1159 0 
L 581 0 
L 581 3500 
L 1159 3500 
L 1159 2956 
Q 1341 3275 1631 3429 
Q 1922 3584 2338 3584 
Q 2397 3584 2469 3576 
Q 2541 3569 2628 3553 
L 2631 2963 
z
" transform="scale(0.015625)"/>
      <path id="DejaVuSans-6d" d="M 3328 2828 
Q 3544 3216 3844 3400 
Q 4144 3584 4550 3584 
Q 5097 3584 5394 3201 
Q 5691 2819 5691 2113 
L 5691 0 
L 5113 0 
L 5113 2094 
Q 5113 2597 4934 2840 
Q 4756 3084 4391 3084 
Q 3944 3084 3684 2787 
Q 3425 2491 3425 1978 
L 3425 0 
L 2847 0 
L 2847 2094 
Q 2847 2600 2669 2842 
Q 2491 3084 2119 3084 
Q 1678 3084 1418 2786 
Q 1159 2488 1159 1978 
L 1159 0 
L 581 0 
L 581 3500 
L 1159 3500 
L 1159 2956 
Q 1356 3278 1631 3431 
Q 1906 3584 2284 3584 
Q 2666 3584 2933 3390 
Q 3200 3197 3328 2828 
z
" transform="scale(0.015625)"/>
      <path id="DejaVuSans-6c" d="M 603 4863 
L 1178 4863 
L 1178 0 
L 603 0 
L 603 4863 
z
" transform="scale(0.015625)"/>
      <path id="DejaVuSans-65" d="M 3597 1894 
L 3597 1613 
L 953 1613 
Q 991 1019 1311 708 
Q 1631 397 2203 397 
Q 2534 397 2845 478 
Q 3156 559 3463 722 
L 3463 178 
Q 3153 47 2828 -22 
Q 2503 -91 2169 -91 
Q 1331 -91 842 396 
Q 353 884 353 1716 
Q 353 2575 817 3079 
Q 1281 3584 2069 3584 
Q 2775 3584 3186 3129 
Q 3597 2675 3597 1894 
z
M 3022 2063 
Q 3016 2534 2758 2815 
Q 2500 3097 2075 3097 
Q 1594 3097 1305 2825 
Q 1016 2553 972 2059 
L 3022 2063 
z
" transform="scale(0.015625)"/>
      <path id="DejaVuSans-75" d="M 544 1381 
L 544 3500 
L 1119 3500 
L 1119 1403 
Q 1119 906 1312 657 
Q 1506 409 1894 409 
Q 2359 409 2629 706 
Q 2900 1003 2900 1516 
L 2900 3500 
L 3475 3500 
L 3475 0 
L 2900 0 
L 2900 538 
Q 2691 219 2414 64 
Q 2138 -91 1772 -91 
Q 1169 -91 856 284 
Q 544 659 544 1381 
z
M 1991 3584 
L 1991 3584 
z
" transform="scale(0.015625)"/>
      <path id="DejaVuSans-70" d="M 1159 525 
L 1159 -1331 
L 581 -1331 
L 581 3500 
L 1159 3500 
L 1159 2969 
Q 1341 3281 1617 3432 
Q 1894 3584 2278 3584 
Q 2916 3584 3314 3078 
Q 3713 2572 3713 1747 
Q 3713 922 3314 415 
Q 2916 -91 2278 -91 
Q 1894 -91 1617 61 
Q 1341 213 1159 525 
z
M 3116 1747 
Q 3116 2381 2855 2742 
Q 2594 3103 2138 3103 
Q 1681 3103 1420 2742 
Q 1159 2381 1159 1747 
Q 1159 1113 1420 752 
Q 1681 391 2138 391 
Q 2594 391 2855 752 
Q 3116 1113 3116 1747 
z
" transform="scale(0.015625)"/>
      <path id="DejaVuSans-66" d="M 2375 4863 
L 2375 4384 
L 1825 4384 
Q 1516 4384 1395 4259 
Q 1275 4134 1275 3809 
L 1275 3500 
L 2222 3500 
L 2222 3053 
L 1275 3053 
L 1275 0 
L 697 0 
L 697 3053 
L 147 3053 
L 147 3500 
L 697 3500 
L 697 3744 
Q 697 4328 969 4595 
Q 1241 4863 1831 4863 
L 2375 4863 
z
" transform="scale(0.015625)"/>
      <path id="DejaVuSans-63" d="M 3122 3366 
L 3122 2828 
Q 2878 2963 2633 3030 
Q 2388 3097 2138 3097 
Q 1578 3097 1268 2742 
Q 959 2388 959 1747 
Q 959 1106 1268 751 
Q 1578 397 2138 397 
Q 2388 397 2633 464 
Q 2878 531 3122 666 
L 3122 134 
Q 2881 22 2623 -34 
Q 2366 -91 2075 -91 
Q 1284 -91 818 406 
Q 353 903 353 1747 
Q 353 2603 823 3093 
Q 1294 3584 2113 3584 
Q 2378 3584 2631 3529 
Q 2884 3475 3122 3366 
z
" transform="scale(0.015625)"/>
      <path id="DejaVuSans-76" d="M 191 3500 
L 800 3500 
L 1894 563 
L 2988 3500 
L 3597 3500 
L 2284 0 
L 1503 0 
L 191 3500 
z
" transform="scale(0.015625)"/>
      <path id="DejaVuSans-27" d="M 1147 4666 
L 1147 2931 
L 616 2931 
L 616 4666 
L 1147 4666 
z
" transform="scale(0.015625)"/>
      <path id="DejaVuSans-71" d="M 947 1747 
Q 947 1113 1208 752 
Q 1469 391 1925 391 
Q 2381 391 2643 752 
Q 2906 1113 2906 1747 
Q 2906 2381 2643 2742 
Q 2381 3103 1925 3103 
Q 1469 3103 1208 2742 
Q 947 2381 947 1747 
z
M 2906 525 
Q 2725 213 2448 61 
Q 2172 -91 1784 -91 
Q 1150 -91 751 415 
Q 353 922 353 1747 
Q 353 2572 751 3078 
Q 1150 3584 1784 3584 
Q 2172 3584 2448 3432 
Q 2725 3281 2906 2969 
L 2906 3500 
L 3481 3500 
L 3481 -1331 
L 2906 -1331 
L 2906 525 
z
" transform="scale(0.015625)"/>
      <path id="DejaVuSans-2e" d="M 684 794 
L 1344 794 
L 1344 0 
L 684 0 
L 684 794 
z
" transform="scale(0.015625)"/>
     </defs>
     <use xlink:href="#DejaVuSans-4c"/>
     <use xlink:href="#DejaVuSans-61" transform="translate(55.712891 0)"/>
     <use xlink:href="#DejaVuSans-20" transform="translate(116.992188 0)"/>
     <use xlink:href="#DejaVuSans-64" transform="translate(148.779297 0)"/>
     <use xlink:href="#DejaVuSans-69" transform="translate(212.255859 0)"/>
     <use xlink:href="#DejaVuSans-73" transform="translate(240.039062 0)"/>
     <use xlink:href="#DejaVuSans-74" transform="translate(292.138672 0)"/>
     <use xlink:href="#DejaVuSans-61" transform="translate(331.347656 0)"/>
     <use xlink:href="#DejaVuSans-6e" transform="translate(392.626953 0)"/>
     <use xlink:href="#DejaVuSans-7a" transform="translate(456.005859 0)"/>
     <use xlink:href="#DejaVuSans-61" transform="translate(508.496094 0)"/>
     <use xlink:href="#DejaVuSans-20" transform="translate(569.775391 0)"/>
     <use xlink:href="#DejaVuSans-6e" transform="translate(601.5625 0)"/>
     <use xlink:href="#DejaVuSans-6f" transform="translate(664.941406 0)"/>
     <use xlink:href="#DejaVuSans-72" transform="translate(726.123047 0)"/>
     <use xlink:href="#DejaVuSans-6d" transform="translate(765.486328 0)"/>
     <use xlink:href="#DejaVuSans-61" transform="translate(862.898438 0)"/>
     <use xlink:href="#DejaVuSans-6c" transform="translate(924.177734 0)"/>
     <use xlink:href="#DejaVuSans-65" transform="translate(951.960938 0)"/>
     <use xlink:href="#DejaVuSans-20" transform="translate(1013.484375 0)"/>
     <use xlink:href="#DejaVuSans-74" transform="translate(1045.271484 0)"/>
     <use xlink:href="#DejaVuSans-72" transform="translate(1084.480469 0)"/>
     <use xlink:href="#DejaVuSans-61" transform="translate(1125.59375 0)"/>
     <use xlink:href="#DejaVuSans-20" transform="translate(1186.873047 0)"/>
     <use xlink:href="#DejaVuSans-6c" transform="translate(1218.660156 0)"/>
     <use xlink:href="#DejaVuSans-65" transform="translate(1246.443359 0)"/>
     <use xlink:href="#DejaVuSans-20" transform="translate(1307.966797 0)"/>
     <use xlink:href="#DejaVuSans-73" transform="translate(1339.753906 0)"/>
     <use xlink:href="#DejaVuSans-75" transform="translate(1391.853516 0)"/>
     <use xlink:href="#DejaVuSans-70" transform="translate(1455.232422 0)"/>
     <use xlink:href="#DejaVuSans-65" transform="translate(1518.708984 0)"/>
     <use xlink:href="#DejaVuSans-72" transform="translate(1580.232422 0)"/>
     <use xlink:href="#DejaVuSans-66" transform="translate(1621.345703 0)"/>
     <use xlink:href="#DejaVuSans-69" transform="translate(1656.550781 0)"/>
     <use xlink:href="#DejaVuSans-63" transform="translate(1684.333984 0)"/>
     <use xlink:href="#DejaVuSans-69" transform="translate(1739.314453 0)"/>
     <use xlink:href="#DejaVuSans-20" transform="translate(1767.097656 0)"/>
     <use xlink:href="#DejaVuSans-63" transform="translate(1798.884766 0)"/>
     <use xlink:href="#DejaVuSans-6f" transform="translate(1853.865234 0)"/>
     <use xlink:href="#DejaVuSans-6e" transform="translate(1915.046875 0)"/>
     <use xlink:href="#DejaVuSans-76" transform="translate(1978.425781 0)"/>
     <use xlink:href="#DejaVuSans-65" transform="translate(2037.605469 0)"/>
     <use xlink:href="#DejaVuSans-72" transform="translate(2099.128906 0)"/>
     <use xlink:href="#DejaVuSans-74" transform="translate(2140.242188 0)"/>
     <use xlink:href="#DejaVuSans-65" transform="translate(2179.451172 0)"/>
     <use xlink:href="#DejaVuSans-20" transform="translate(2240.974609 0)"/>
     <use xlink:href="#DejaVuSans-6c" transform="translate(2272.761719 0)"/>
     <use xlink:href="#DejaVuSans-27" transform="translate(2300.544922 0)"/>
     <use xlink:href="#DejaVuSans-69" transform="translate(2328.035156 0)"/>
     <use xlink:href="#DejaVuSans-6e" transform="translate(2355.818359 0)"/>
     <use xlink:href="#DejaVuSans-74" transform="translate(2419.197266 0)"/>
     <use xlink:href="#DejaVuSans-65" transform="translate(2458.40625 0)"/>
     <use xlink:href="#DejaVuSans-72" transform="translate(2519.929688 0)"/>
     <use xlink:href="#DejaVuSans-76" transform="translate(2561.042969 0)"/>
     <use xlink:href="#DejaVuSans-61" transform="translate(2620.222656 0)"/>
     <use xlink:href="#DejaVuSans-6c" transform="translate(2681.501953 0)"/>
     <use xlink:href="#DejaVuSans-6c" transform="translate(2709.285156 0)"/>
     <use xlink:href="#DejaVuSans-6f" transform="translate(2737.068359 0)"/>
     <use xlink:href="#DejaVuSans-20" transform="translate(2798.25 0)"/>
     <use xlink:href="#DejaVuSans-64" transform="translate(2830.037109 0)"/>
     <use xlink:href="#DejaVuSans-69" transform="translate(2893.513672 0)"/>
     <use xlink:href="#DejaVuSans-20" transform="translate(2921.296875 0)"/>
     <use xlink:href="#DejaVuSans-66" transform="translate(2953.083984 0)"/>
     <use xlink:href="#DejaVuSans-72" transform="translate(2988.289062 0)"/>
     <use xlink:href="#DejaVuSans-65" transform="translate(3027.152344 0)"/>
     <use xlink:href="#DejaVuSans-71" transform="translate(3088.675781 0)"/>
     <use xlink:href="#DejaVuSans-75" transform="translate(3152.152344 0)"/>
     <use xlink:href="#DejaVuSans-65" transform="translate(3215.53125 0)"/>
     <use xlink:href="#DejaVuSans-6e" transform="translate(3277.054688 0)"/>
     <use xlink:href="#DejaVuSans-7a" transform="translate(3340.433594 0)"/>
     <use xlink:href="#DejaVuSans-61" transform="translate(3392.923828 0)"/>
     <use xlink:href="#DejaVuSans-20" transform="translate(3454.203125 0)"/>
     <use xlink:href="#DejaVuSans-69" transform="translate(3485.990234 0)"/>
     <use xlink:href="#DejaVuSans-6e" transform="translate(3513.773438 0)"/>
     <use xlink:href="#DejaVuSans-20" transform="translate(3577.152344 0)"/>
     <use xlink:href="#DejaVuSans-75" transform="translate(3608.939453 0)"/>
     <use xlink:href="#DejaVuSans-6e" transform="translate(3672.318359 0)"/>
     <use xlink:href="#DejaVuSans-6f" transform="translate(3735.697266 0)"/>
     <use xlink:href="#DejaVuSans-20" transform="translate(3796.878906 0)"/>
     <use xlink:href="#DejaVuSans-73" transform="translate(3828.666016 0)"/>
     <use xlink:href="#DejaVuSans-70" transform="translate(3880.765625 0)"/>
     <use xlink:href="#DejaVuSans-65" transform="translate(3944.242188 0)"/>
     <use xlink:href="#DejaVuSans-73" transform="translate(4005.765625 0)"/>
     <use xlink:href="#DejaVuSans-73" transform="translate(4057.865234 0)"/>
     <use xlink:href="#DejaVuSans-6f" transform="translate(4109.964844 0)"/>
     <use xlink:href="#DejaVuSans-72" transform="translate(4171.146484 0)"/>
     <use xlink:href="#DejaVuSans-65" transform="translate(4210.009766 0)"/>
     <use xlink:href="#DejaVuSans-20" transform="translate(4271.533203 0)"/>
     <use xlink:href="#DejaVuSans-6e" transform="translate(4303.320312 0)"/>
     <use xlink:href="#DejaVuSans-65" transform="translate(4366.699219 0)"/>
     <use xlink:href="#DejaVuSans-6c" transform="translate(4428.222656 0)"/>
     <use xlink:href="#DejaVuSans-6c" transform="translate(4456.005859 0)"/>
     <use xlink:href="#DejaVuSans-6f" transform="translate(4483.789062 0)"/>
     <use xlink:href="#DejaVuSans-20" transform="translate(4544.970703 0)"/>
     <use xlink:href="#DejaVuSans-73" transform="translate(4576.757812 0)"/>
     <use xlink:href="#DejaVuSans-70" transform="translate(4628.857422 0)"/>
     <use xlink:href="#DejaVuSans-61" transform="translate(4692.333984 0)"/>
     <use xlink:href="#DejaVuSans-7a" transform="translate(4753.613281 0)"/>
     <use xlink:href="#DejaVuSans-69" transform="translate(4806.103516 0)"/>
     <use xlink:href="#DejaVuSans-6f" transform="translate(4833.886719 0)"/>
     <use xlink:href="#DejaVuSans-20" transform="translate(4895.068359 0)"/>
     <use xlink:href="#DejaVuSans-72" transform="translate(4926.855469 0)"/>
     <use xlink:href="#DejaVuSans-65" transform="translate(4965.71875 0)"/>
     <use xlink:href="#DejaVuSans-63" transform="translate(5027.242188 0)"/>
     <use xlink:href="#DejaVuSans-69" transform="translate(5082.222656 0)"/>
     <use xlink:href="#DejaVuSans-70" transform="translate(5110.005859 0)"/>
     <use xlink:href="#DejaVuSans-72" transform="translate(5173.482422 0)"/>
     <use xlink:href="#DejaVuSans-6f" transform="translate(5212.345703 0)"/>
     <use xlink:href="#DejaVuSans-63" transform="translate(5273.527344 0)"/>
     <use xlink:href="#DejaVuSans-6f" transform="translate(5328.507812 0)"/>
     <use xlink:href="#DejaVuSans-2e" transform="translate(5387.939453 0)"/>
    </g>
   </g>
   <g id="text_6">
    <!-- Elemento di volume tra due superfici a frequenza costante -->
    <g transform="translate(37.254524 18.597656) scale(0.15 -0.15)">
     <defs>
      <path id="DejaVuSans-Bold-45" d="M 588 4666 
L 3834 4666 
L 3834 3756 
L 1791 3756 
L 1791 2888 
L 3713 2888 
L 3713 1978 
L 1791 1978 
L 1791 909 
L 3903 909 
L 3903 0 
L 588 0 
L 588 4666 
z
" transform="scale(0.015625)"/>
      <path id="DejaVuSans-Bold-6c" d="M 538 4863 
L 1656 4863 
L 1656 0 
L 538 0 
L 538 4863 
z
" transform="scale(0.015625)"/>
      <path id="DejaVuSans-Bold-65" d="M 4031 1759 
L 4031 1441 
L 1416 1441 
Q 1456 1047 1700 850 
Q 1944 653 2381 653 
Q 2734 653 3104 758 
Q 3475 863 3866 1075 
L 3866 213 
Q 3469 63 3072 -14 
Q 2675 -91 2278 -91 
Q 1328 -91 801 392 
Q 275 875 275 1747 
Q 275 2603 792 3093 
Q 1309 3584 2216 3584 
Q 3041 3584 3536 3087 
Q 4031 2591 4031 1759 
z
M 2881 2131 
Q 2881 2450 2695 2645 
Q 2509 2841 2209 2841 
Q 1884 2841 1681 2658 
Q 1478 2475 1428 2131 
L 2881 2131 
z
" transform="scale(0.015625)"/>
      <path id="DejaVuSans-Bold-6d" d="M 3781 2919 
Q 3994 3244 4286 3414 
Q 4578 3584 4928 3584 
Q 5531 3584 5847 3212 
Q 6163 2841 6163 2131 
L 6163 0 
L 5038 0 
L 5038 1825 
Q 5041 1866 5042 1909 
Q 5044 1953 5044 2034 
Q 5044 2406 4934 2573 
Q 4825 2741 4581 2741 
Q 4263 2741 4089 2478 
Q 3916 2216 3909 1719 
L 3909 0 
L 2784 0 
L 2784 1825 
Q 2784 2406 2684 2573 
Q 2584 2741 2328 2741 
Q 2006 2741 1831 2477 
Q 1656 2213 1656 1722 
L 1656 0 
L 531 0 
L 531 3500 
L 1656 3500 
L 1656 2988 
Q 1863 3284 2130 3434 
Q 2397 3584 2719 3584 
Q 3081 3584 3359 3409 
Q 3638 3234 3781 2919 
z
" transform="scale(0.015625)"/>
      <path id="DejaVuSans-Bold-6e" d="M 4056 2131 
L 4056 0 
L 2931 0 
L 2931 347 
L 2931 1631 
Q 2931 2084 2911 2256 
Q 2891 2428 2841 2509 
Q 2775 2619 2662 2680 
Q 2550 2741 2406 2741 
Q 2056 2741 1856 2470 
Q 1656 2200 1656 1722 
L 1656 0 
L 538 0 
L 538 3500 
L 1656 3500 
L 1656 2988 
Q 1909 3294 2193 3439 
Q 2478 3584 2822 3584 
Q 3428 3584 3742 3212 
Q 4056 2841 4056 2131 
z
" transform="scale(0.015625)"/>
      <path id="DejaVuSans-Bold-74" d="M 1759 4494 
L 1759 3500 
L 2913 3500 
L 2913 2700 
L 1759 2700 
L 1759 1216 
Q 1759 972 1856 886 
Q 1953 800 2241 800 
L 2816 800 
L 2816 0 
L 1856 0 
Q 1194 0 917 276 
Q 641 553 641 1216 
L 641 2700 
L 84 2700 
L 84 3500 
L 641 3500 
L 641 4494 
L 1759 4494 
z
" transform="scale(0.015625)"/>
      <path id="DejaVuSans-Bold-6f" d="M 2203 2784 
Q 1831 2784 1636 2517 
Q 1441 2250 1441 1747 
Q 1441 1244 1636 976 
Q 1831 709 2203 709 
Q 2569 709 2762 976 
Q 2956 1244 2956 1747 
Q 2956 2250 2762 2517 
Q 2569 2784 2203 2784 
z
M 2203 3584 
Q 3106 3584 3614 3096 
Q 4122 2609 4122 1747 
Q 4122 884 3614 396 
Q 3106 -91 2203 -91 
Q 1297 -91 786 396 
Q 275 884 275 1747 
Q 275 2609 786 3096 
Q 1297 3584 2203 3584 
z
" transform="scale(0.015625)"/>
      <path id="DejaVuSans-Bold-20" transform="scale(0.015625)"/>
      <path id="DejaVuSans-Bold-64" d="M 2919 2988 
L 2919 4863 
L 4044 4863 
L 4044 0 
L 2919 0 
L 2919 506 
Q 2688 197 2409 53 
Q 2131 -91 1766 -91 
Q 1119 -91 703 423 
Q 288 938 288 1747 
Q 288 2556 703 3070 
Q 1119 3584 1766 3584 
Q 2128 3584 2408 3439 
Q 2688 3294 2919 2988 
z
M 2181 722 
Q 2541 722 2730 984 
Q 2919 1247 2919 1747 
Q 2919 2247 2730 2509 
Q 2541 2772 2181 2772 
Q 1825 2772 1636 2509 
Q 1447 2247 1447 1747 
Q 1447 1247 1636 984 
Q 1825 722 2181 722 
z
" transform="scale(0.015625)"/>
      <path id="DejaVuSans-Bold-69" d="M 538 3500 
L 1656 3500 
L 1656 0 
L 538 0 
L 538 3500 
z
M 538 4863 
L 1656 4863 
L 1656 3950 
L 538 3950 
L 538 4863 
z
" transform="scale(0.015625)"/>
      <path id="DejaVuSans-Bold-76" d="M 97 3500 
L 1216 3500 
L 2088 1081 
L 2956 3500 
L 4078 3500 
L 2700 0 
L 1472 0 
L 97 3500 
z
" transform="scale(0.015625)"/>
      <path id="DejaVuSans-Bold-75" d="M 500 1363 
L 500 3500 
L 1625 3500 
L 1625 3150 
Q 1625 2866 1622 2436 
Q 1619 2006 1619 1863 
Q 1619 1441 1641 1255 
Q 1663 1069 1716 984 
Q 1784 875 1895 815 
Q 2006 756 2150 756 
Q 2500 756 2700 1025 
Q 2900 1294 2900 1772 
L 2900 3500 
L 4019 3500 
L 4019 0 
L 2900 0 
L 2900 506 
Q 2647 200 2364 54 
Q 2081 -91 1741 -91 
Q 1134 -91 817 281 
Q 500 653 500 1363 
z
" transform="scale(0.015625)"/>
      <path id="DejaVuSans-Bold-72" d="M 3138 2547 
Q 2991 2616 2845 2648 
Q 2700 2681 2553 2681 
Q 2122 2681 1889 2404 
Q 1656 2128 1656 1613 
L 1656 0 
L 538 0 
L 538 3500 
L 1656 3500 
L 1656 2925 
Q 1872 3269 2151 3426 
Q 2431 3584 2822 3584 
Q 2878 3584 2943 3579 
Q 3009 3575 3134 3559 
L 3138 2547 
z
" transform="scale(0.015625)"/>
      <path id="DejaVuSans-Bold-61" d="M 2106 1575 
Q 1756 1575 1579 1456 
Q 1403 1338 1403 1106 
Q 1403 894 1545 773 
Q 1688 653 1941 653 
Q 2256 653 2472 879 
Q 2688 1106 2688 1447 
L 2688 1575 
L 2106 1575 
z
M 3816 1997 
L 3816 0 
L 2688 0 
L 2688 519 
Q 2463 200 2181 54 
Q 1900 -91 1497 -91 
Q 953 -91 614 226 
Q 275 544 275 1050 
Q 275 1666 698 1953 
Q 1122 2241 2028 2241 
L 2688 2241 
L 2688 2328 
Q 2688 2594 2478 2717 
Q 2269 2841 1825 2841 
Q 1466 2841 1156 2769 
Q 847 2697 581 2553 
L 581 3406 
Q 941 3494 1303 3539 
Q 1666 3584 2028 3584 
Q 2975 3584 3395 3211 
Q 3816 2838 3816 1997 
z
" transform="scale(0.015625)"/>
      <path id="DejaVuSans-Bold-73" d="M 3272 3391 
L 3272 2541 
Q 2913 2691 2578 2766 
Q 2244 2841 1947 2841 
Q 1628 2841 1473 2761 
Q 1319 2681 1319 2516 
Q 1319 2381 1436 2309 
Q 1553 2238 1856 2203 
L 2053 2175 
Q 2913 2066 3209 1816 
Q 3506 1566 3506 1031 
Q 3506 472 3093 190 
Q 2681 -91 1863 -91 
Q 1516 -91 1145 -36 
Q 775 19 384 128 
L 384 978 
Q 719 816 1070 734 
Q 1422 653 1784 653 
Q 2113 653 2278 743 
Q 2444 834 2444 1013 
Q 2444 1163 2330 1236 
Q 2216 1309 1875 1350 
L 1678 1375 
Q 931 1469 631 1722 
Q 331 1975 331 2491 
Q 331 3047 712 3315 
Q 1094 3584 1881 3584 
Q 2191 3584 2531 3537 
Q 2872 3491 3272 3391 
z
" transform="scale(0.015625)"/>
      <path id="DejaVuSans-Bold-70" d="M 1656 506 
L 1656 -1331 
L 538 -1331 
L 538 3500 
L 1656 3500 
L 1656 2988 
Q 1888 3294 2169 3439 
Q 2450 3584 2816 3584 
Q 3463 3584 3878 3070 
Q 4294 2556 4294 1747 
Q 4294 938 3878 423 
Q 3463 -91 2816 -91 
Q 2450 -91 2169 54 
Q 1888 200 1656 506 
z
M 2400 2772 
Q 2041 2772 1848 2508 
Q 1656 2244 1656 1747 
Q 1656 1250 1848 986 
Q 2041 722 2400 722 
Q 2759 722 2948 984 
Q 3138 1247 3138 1747 
Q 3138 2247 2948 2509 
Q 2759 2772 2400 2772 
z
" transform="scale(0.015625)"/>
      <path id="DejaVuSans-Bold-66" d="M 2841 4863 
L 2841 4128 
L 2222 4128 
Q 1984 4128 1890 4042 
Q 1797 3956 1797 3744 
L 1797 3500 
L 2753 3500 
L 2753 2700 
L 1797 2700 
L 1797 0 
L 678 0 
L 678 2700 
L 122 2700 
L 122 3500 
L 678 3500 
L 678 3744 
Q 678 4316 997 4589 
Q 1316 4863 1984 4863 
L 2841 4863 
z
" transform="scale(0.015625)"/>
      <path id="DejaVuSans-Bold-63" d="M 3366 3391 
L 3366 2478 
Q 3138 2634 2908 2709 
Q 2678 2784 2431 2784 
Q 1963 2784 1702 2511 
Q 1441 2238 1441 1747 
Q 1441 1256 1702 982 
Q 1963 709 2431 709 
Q 2694 709 2930 787 
Q 3166 866 3366 1019 
L 3366 103 
Q 3103 6 2833 -42 
Q 2563 -91 2291 -91 
Q 1344 -91 809 395 
Q 275 881 275 1747 
Q 275 2613 809 3098 
Q 1344 3584 2291 3584 
Q 2566 3584 2833 3536 
Q 3100 3488 3366 3391 
z
" transform="scale(0.015625)"/>
      <path id="DejaVuSans-Bold-7a" d="M 366 3500 
L 3419 3500 
L 3419 2719 
L 1575 800 
L 3419 800 
L 3419 0 
L 288 0 
L 288 781 
L 2131 2700 
L 366 2700 
L 366 3500 
z
" transform="scale(0.015625)"/>
     </defs>
     <use xlink:href="#DejaVuSans-Bold-45"/>
     <use xlink:href="#DejaVuSans-Bold-6c" transform="translate(68.310547 0)"/>
     <use xlink:href="#DejaVuSans-Bold-65" transform="translate(102.587891 0)"/>
     <use xlink:href="#DejaVuSans-Bold-6d" transform="translate(170.410156 0)"/>
     <use xlink:href="#DejaVuSans-Bold-65" transform="translate(274.609375 0)"/>
     <use xlink:href="#DejaVuSans-Bold-6e" transform="translate(342.431641 0)"/>
     <use xlink:href="#DejaVuSans-Bold-74" transform="translate(413.623047 0)"/>
     <use xlink:href="#DejaVuSans-Bold-6f" transform="translate(461.425781 0)"/>
     <use xlink:href="#DejaVuSans-Bold-20" transform="translate(530.126953 0)"/>
     <use xlink:href="#DejaVuSans-Bold-64" transform="translate(564.941406 0)"/>
     <use xlink:href="#DejaVuSans-Bold-69" transform="translate(636.523438 0)"/>
     <use xlink:href="#DejaVuSans-Bold-20" transform="translate(670.800781 0)"/>
     <use xlink:href="#DejaVuSans-Bold-76" transform="translate(705.615234 0)"/>
     <use xlink:href="#DejaVuSans-Bold-6f" transform="translate(770.800781 0)"/>
     <use xlink:href="#DejaVuSans-Bold-6c" transform="translate(839.501953 0)"/>
     <use xlink:href="#DejaVuSans-Bold-75" transform="translate(873.779297 0)"/>
     <use xlink:href="#DejaVuSans-Bold-6d" transform="translate(944.970703 0)"/>
     <use xlink:href="#DejaVuSans-Bold-65" transform="translate(1049.169922 0)"/>
     <use xlink:href="#DejaVuSans-Bold-20" transform="translate(1116.992188 0)"/>
     <use xlink:href="#DejaVuSans-Bold-74" transform="translate(1151.806641 0)"/>
     <use xlink:href="#DejaVuSans-Bold-72" transform="translate(1199.609375 0)"/>
     <use xlink:href="#DejaVuSans-Bold-61" transform="translate(1248.925781 0)"/>
     <use xlink:href="#DejaVuSans-Bold-20" transform="translate(1316.40625 0)"/>
     <use xlink:href="#DejaVuSans-Bold-64" transform="translate(1351.220703 0)"/>
     <use xlink:href="#DejaVuSans-Bold-75" transform="translate(1422.802734 0)"/>
     <use xlink:href="#DejaVuSans-Bold-65" transform="translate(1493.994141 0)"/>
     <use xlink:href="#DejaVuSans-Bold-20" transform="translate(1561.816406 0)"/>
     <use xlink:href="#DejaVuSans-Bold-73" transform="translate(1596.630859 0)"/>
     <use xlink:href="#DejaVuSans-Bold-75" transform="translate(1656.152344 0)"/>
     <use xlink:href="#DejaVuSans-Bold-70" transform="translate(1727.34375 0)"/>
     <use xlink:href="#DejaVuSans-Bold-65" transform="translate(1798.925781 0)"/>
     <use xlink:href="#DejaVuSans-Bold-72" transform="translate(1866.748047 0)"/>
     <use xlink:href="#DejaVuSans-Bold-66" transform="translate(1916.064453 0)"/>
     <use xlink:href="#DejaVuSans-Bold-69" transform="translate(1959.570312 0)"/>
     <use xlink:href="#DejaVuSans-Bold-63" transform="translate(1993.847656 0)"/>
     <use xlink:href="#DejaVuSans-Bold-69" transform="translate(2053.125 0)"/>
     <use xlink:href="#DejaVuSans-Bold-20" transform="translate(2087.402344 0)"/>
     <use xlink:href="#DejaVuSans-Bold-61" transform="translate(2122.216797 0)"/>
     <use xlink:href="#DejaVuSans-Bold-20" transform="translate(2189.697266 0)"/>
     <use xlink:href="#DejaVuSans-Bold-66" transform="translate(2224.511719 0)"/>
     <use xlink:href="#DejaVuSans-Bold-72" transform="translate(2268.017578 0)"/>
     <use xlink:href="#DejaVuSans-Bold-65" transform="translate(2317.333984 0)"/>
     <use xlink:href="#DejaVuSans-Bold-71" transform="translate(2385.15625 0)"/>
     <use xlink:href="#DejaVuSans-Bold-75" transform="translate(2456.738281 0)"/>
     <use xlink:href="#DejaVuSans-Bold-65" transform="translate(2527.929688 0)"/>
     <use xlink:href="#DejaVuSans-Bold-6e" transform="translate(2595.751953 0)"/>
     <use xlink:href="#DejaVuSans-Bold-7a" transform="translate(2666.943359 0)"/>
     <use xlink:href="#DejaVuSans-Bold-61" transform="translate(2725.146484 0)"/>
     <use xlink:href="#DejaVuSans-Bold-20" transform="translate(2792.626953 0)"/>
     <use xlink:href="#DejaVuSans-Bold-63" transform="translate(2827.441406 0)"/>
     <use xlink:href="#DejaVuSans-Bold-6f" transform="translate(2886.71875 0)"/>
     <use xlink:href="#DejaVuSans-Bold-73" transform="translate(2955.419922 0)"/>
     <use xlink:href="#DejaVuSans-Bold-74" transform="translate(3014.941406 0)"/>
     <use xlink:href="#DejaVuSans-Bold-61" transform="translate(3062.744141 0)"/>
     <use xlink:href="#DejaVuSans-Bold-6e" transform="translate(3130.224609 0)"/>
     <use xlink:href="#DejaVuSans-Bold-74" transform="translate(3201.416016 0)"/>
     <use xlink:href="#DejaVuSans-Bold-65" transform="translate(3249.21875 0)"/>
    </g>
   </g>
   <g id="legend_1">
    <g id="line2d_4">
     <path d="M 41.296262 43.697656 
L 51.296262 43.697656 
L 61.296262 43.697656 
" style="fill: none; stroke: #1f77b4; stroke-width: 2; stroke-linecap: square"/>
    </g>
    <g id="text_7">
     <!-- $\omega_s(\mathbf{q})=\omega$ -->
     <g transform="translate(69.296262 47.197656) scale(0.1 -0.1)">
      <use xlink:href="#DejaVuSans-Oblique-3c9" transform="translate(0 0.125)"/>
      <use xlink:href="#DejaVuSans-Oblique-73" transform="translate(83.740234 -16.28125) scale(0.7)"/>
      <use xlink:href="#DejaVuSans-28" transform="translate(122.944336 0.125)"/>
      <use xlink:href="#DejaVuSans-Bold-71" transform="translate(161.958008 0.125)"/>
      <use xlink:href="#DejaVuSans-29" transform="translate(233.540039 0.125)"/>
      <use xlink:href="#DejaVuSans-3d" transform="translate(292.036133 0.125)"/>
      <use xlink:href="#DejaVuSans-Oblique-3c9" transform="translate(395.307617 0.125)"/>
     </g>
    </g>
    <g id="line2d_5">
     <path d="M 41.296262 58.397656 
L 51.296262 58.397656 
L 61.296262 58.397656 
" style="fill: none; stroke: #ff7f0e; stroke-width: 2; stroke-linecap: square"/>
    </g>
    <g id="text_8">
     <!-- $\omega_s(\mathbf{q})+\mathrm{d}\omega$ -->
     <g transform="translate(69.296262 61.897656) scale(0.1 -0.1)">
      <defs>
       <path id="DejaVuSans-2b" d="M 2944 4013 
L 2944 2272 
L 4684 2272 
L 4684 1741 
L 2944 1741 
L 2944 0 
L 2419 0 
L 2419 1741 
L 678 1741 
L 678 2272 
L 2419 2272 
L 2419 4013 
L 2944 4013 
z
" transform="scale(0.015625)"/>
      </defs>
      <use xlink:href="#DejaVuSans-Oblique-3c9" transform="translate(0 0.015625)"/>
      <use xlink:href="#DejaVuSans-Oblique-73" transform="translate(83.740234 -16.390625) scale(0.7)"/>
      <use xlink:href="#DejaVuSans-28" transform="translate(122.944336 0.015625)"/>
      <use xlink:href="#DejaVuSans-Bold-71" transform="translate(161.958008 0.015625)"/>
      <use xlink:href="#DejaVuSans-29" transform="translate(233.540039 0.015625)"/>
      <use xlink:href="#DejaVuSans-2b" transform="translate(292.036133 0.015625)"/>
      <use xlink:href="#DejaVuSans-64" transform="translate(395.307617 0.015625)"/>
      <use xlink:href="#DejaVuSans-Oblique-3c9" transform="translate(458.78418 0.015625)"/>
     </g>
    </g>
   </g>
  </g>
 </g>
 <defs>
  <clipPath id="pc8aef4fb8d">
   <rect x="32.296262" y="30.597656" width="507.471211" height="371.448"/>
  </clipPath>
 </defs>
</svg>
