<?xml version="1.0" encoding="utf-8" standalone="no"?>
<!DOCTYPE svg PUBLIC "-//W3C//DTD SVG 1.1//EN"
  "http://www.w3.org/Graphics/SVG/1.1/DTD/svg11.dtd">
<svg xmlns:xlink="http://www.w3.org/1999/xlink" width="650.765625pt" height="587.7168pt" viewBox="0 0 650.765625 587.7168" xmlns="http://www.w3.org/2000/svg" version="1.1">
 <metadata>
  <rdf:RDF xmlns:dc="http://purl.org/dc/elements/1.1/" xmlns:cc="http://creativecommons.org/ns#" xmlns:rdf="http://www.w3.org/1999/02/22-rdf-syntax-ns#">
   <cc:Work>
    <dc:type rdf:resource="http://purl.org/dc/dcmitype/StillImage"/>
    <dc:date>2026-06-16T10:45:41.447957</dc:date>
    <dc:format>image/svg+xml</dc:format>
    <dc:creator>
     <cc:Agent>
      <dc:title>Matplotlib v3.10.8, https://matplotlib.org/</dc:title>
     </cc:Agent>
    </dc:creator>
   </cc:Work>
  </rdf:RDF>
 </metadata>
 <defs>
  <style type="text/css">*{stroke-linejoin: round; stroke-linecap: butt}</style>
 </defs>
 <g id="figure_1">
  <g id="patch_1">
   <path d="M 0 587.7168 
L 650.765625 587.7168 
L 650.765625 0 
L 0 0 
z
" style="fill: #ffffff"/>
  </g>
  <g id="axes_1">
   <g id="patch_2">
    <path d="M 53.765625 275.832 
L 634.085625 275.832 
L 634.085625 69.192 
L 53.765625 69.192 
z
" style="fill: #ffffff"/>
   </g>
   <g id="patch_3">
    <path d="M 227.861625 275.832 
L 459.989625 275.832 
L 459.989625 69.192 
L 227.861625 69.192 
z
" clip-path="url(#p30ba5418ca)" style="fill: #1f77b4; opacity: 0.08"/>
   </g>
   <g id="matplotlib.axis_1">
    <g id="xtick_1">
     <g id="line2d_1">
      <path d="M 111.797625 275.832 
L 111.797625 69.192 
" clip-path="url(#p30ba5418ca)" style="fill: none; stroke: #b0b0b0; stroke-opacity: 0.14; stroke-width: 0.8; stroke-linecap: square"/>
     </g>
     <g id="line2d_2">
      <defs>
       <path id="m0834707faa" d="M 0 0 
L 0 3.5 
" style="stroke: #000000; stroke-width: 0.8"/>
      </defs>
      <g>
       <use xlink:href="#m0834707faa" x="111.797625" y="275.832" style="stroke: #000000; stroke-width: 0.8"/>
      </g>
     </g>
     <g id="text_1">
      <!-- $-2\pi/a$ -->
      <g transform="translate(96.647625 290.430438) scale(0.1 -0.1)">
       <defs>
        <path id="DejaVuSans-2212" d="M 678 2272 
L 4684 2272 
L 4684 1741 
L 678 1741 
L 678 2272 
z
" transform="scale(0.015625)"/>
        <path id="DejaVuSans-32" d="M 1228 531 
L 3431 531 
L 3431 0 
L 469 0 
L 469 531 
Q 828 903 1448 1529 
Q 2069 2156 2228 2338 
Q 2531 2678 2651 2914 
Q 2772 3150 2772 3378 
Q 2772 3750 2511 3984 
Q 2250 4219 1831 4219 
Q 1534 4219 1204 4116 
Q 875 4013 500 3803 
L 500 4441 
Q 881 4594 1212 4672 
Q 1544 4750 1819 4750 
Q 2544 4750 2975 4387 
Q 3406 4025 3406 3419 
Q 3406 3131 3298 2873 
Q 3191 2616 2906 2266 
Q 2828 2175 2409 1742 
Q 1991 1309 1228 531 
z
" transform="scale(0.015625)"/>
        <path id="DejaVuSans-Oblique-3c0" d="M 584 3500 
L 3938 3500 
L 3825 2925 
L 3384 2925 
L 2966 775 
Q 2922 550 2981 450 
Q 3038 353 3209 353 
Q 3256 353 3325 363 
Q 3397 369 3419 372 
L 3338 -44 
Q 3222 -84 3103 -103 
Q 2981 -122 2866 -122 
Q 2491 -122 2388 81 
Q 2284 288 2391 838 
L 2797 2925 
L 1506 2925 
L 938 0 
L 350 0 
L 919 2925 
L 472 2925 
L 584 3500 
z
" transform="scale(0.015625)"/>
        <path id="DejaVuSans-2f" d="M 1625 4666 
L 2156 4666 
L 531 -594 
L 0 -594 
L 1625 4666 
z
" transform="scale(0.015625)"/>
        <path id="DejaVuSans-Oblique-61" d="M 3438 1997 
L 3047 0 
L 2472 0 
L 2578 531 
Q 2325 219 2001 64 
Q 1678 -91 1281 -91 
Q 834 -91 548 182 
Q 263 456 263 884 
Q 263 1497 752 1853 
Q 1241 2209 2100 2209 
L 2900 2209 
L 2931 2363 
Q 2938 2388 2941 2417 
Q 2944 2447 2944 2509 
Q 2944 2788 2717 2942 
Q 2491 3097 2081 3097 
Q 1800 3097 1504 3025 
Q 1209 2953 897 2809 
L 997 3341 
Q 1322 3463 1633 3523 
Q 1944 3584 2234 3584 
Q 2853 3584 3176 3315 
Q 3500 3047 3500 2534 
Q 3500 2431 3484 2292 
Q 3469 2153 3438 1997 
z
M 2816 1759 
L 2241 1759 
Q 1534 1759 1195 1570 
Q 856 1381 856 984 
Q 856 709 1029 553 
Q 1203 397 1509 397 
Q 1978 397 2328 733 
Q 2678 1069 2791 1631 
L 2816 1759 
z
" transform="scale(0.015625)"/>
       </defs>
       <use xlink:href="#DejaVuSans-2212" transform="translate(0 0.78125)"/>
       <use xlink:href="#DejaVuSans-32" transform="translate(83.789062 0.78125)"/>
       <use xlink:href="#DejaVuSans-Oblique-3c0" transform="translate(147.412109 0.78125)"/>
       <use xlink:href="#DejaVuSans-2f" transform="translate(207.617188 0.78125)"/>
       <use xlink:href="#DejaVuSans-Oblique-61" transform="translate(241.308594 0.78125)"/>
      </g>
     </g>
    </g>
    <g id="xtick_2">
     <g id="line2d_3">
      <path d="M 227.861625 275.832 
L 227.861625 69.192 
" clip-path="url(#p30ba5418ca)" style="fill: none; stroke: #b0b0b0; stroke-opacity: 0.14; stroke-width: 0.8; stroke-linecap: square"/>
     </g>
     <g id="line2d_4">
      <g>
       <use xlink:href="#m0834707faa" x="227.861625" y="275.832" style="stroke: #000000; stroke-width: 0.8"/>
      </g>
     </g>
     <g id="text_2">
      <!-- $-\pi/a$ -->
      <g transform="translate(215.911625 290.430438) scale(0.1 -0.1)">
       <use xlink:href="#DejaVuSans-2212" transform="translate(0 0.09375)"/>
       <use xlink:href="#DejaVuSans-Oblique-3c0" transform="translate(83.789062 0.09375)"/>
       <use xlink:href="#DejaVuSans-2f" transform="translate(143.994141 0.09375)"/>
       <use xlink:href="#DejaVuSans-Oblique-61" transform="translate(177.685547 0.09375)"/>
      </g>
     </g>
    </g>
    <g id="xtick_3">
     <g id="line2d_5">
      <path d="M 343.925625 275.832 
L 343.925625 69.192 
" clip-path="url(#p30ba5418ca)" style="fill: none; stroke: #b0b0b0; stroke-opacity: 0.14; stroke-width: 0.8; stroke-linecap: square"/>
     </g>
     <g id="line2d_6">
      <g>
       <use xlink:href="#m0834707faa" x="343.925625" y="275.832" style="stroke: #000000; stroke-width: 0.8"/>
      </g>
     </g>
     <g id="text_3">
      <!-- $0$ -->
      <g transform="translate(340.725625 290.430438) scale(0.1 -0.1)">
       <defs>
        <path id="DejaVuSans-30" d="M 2034 4250 
Q 1547 4250 1301 3770 
Q 1056 3291 1056 2328 
Q 1056 1369 1301 889 
Q 1547 409 2034 409 
Q 2525 409 2770 889 
Q 3016 1369 3016 2328 
Q 3016 3291 2770 3770 
Q 2525 4250 2034 4250 
z
M 2034 4750 
Q 2819 4750 3233 4129 
Q 3647 3509 3647 2328 
Q 3647 1150 3233 529 
Q 2819 -91 2034 -91 
Q 1250 -91 836 529 
Q 422 1150 422 2328 
Q 422 3509 836 4129 
Q 1250 4750 2034 4750 
z
" transform="scale(0.015625)"/>
       </defs>
       <use xlink:href="#DejaVuSans-30" transform="translate(0 0.78125)"/>
      </g>
     </g>
    </g>
    <g id="xtick_4">
     <g id="line2d_7">
      <path d="M 459.989625 275.832 
L 459.989625 69.192 
" clip-path="url(#p30ba5418ca)" style="fill: none; stroke: #b0b0b0; stroke-opacity: 0.14; stroke-width: 0.8; stroke-linecap: square"/>
     </g>
     <g id="line2d_8">
      <g>
       <use xlink:href="#m0834707faa" x="459.989625" y="275.832" style="stroke: #000000; stroke-width: 0.8"/>
      </g>
     </g>
     <g id="text_4">
      <!-- $+\pi/a$ -->
      <g transform="translate(448.039625 290.430438) scale(0.1 -0.1)">
       <defs>
        <path id="DejaVuSans-2b" d="M 2944 4013 
L 2944 2272 
L 4684 2272 
L 4684 1741 
L 2944 1741 
L 2944 0 
L 2419 0 
L 2419 1741 
L 678 1741 
L 678 2272 
L 2419 2272 
L 2419 4013 
L 2944 4013 
z
" transform="scale(0.015625)"/>
       </defs>
       <use xlink:href="#DejaVuSans-2b" transform="translate(0 0.09375)"/>
       <use xlink:href="#DejaVuSans-Oblique-3c0" transform="translate(83.789062 0.09375)"/>
       <use xlink:href="#DejaVuSans-2f" transform="translate(143.994141 0.09375)"/>
       <use xlink:href="#DejaVuSans-Oblique-61" transform="translate(177.685547 0.09375)"/>
      </g>
     </g>
    </g>
    <g id="xtick_5">
     <g id="line2d_9">
      <path d="M 576.053625 275.832 
L 576.053625 69.192 
" clip-path="url(#p30ba5418ca)" style="fill: none; stroke: #b0b0b0; stroke-opacity: 0.14; stroke-width: 0.8; stroke-linecap: square"/>
     </g>
     <g id="line2d_10">
      <g>
       <use xlink:href="#m0834707faa" x="576.053625" y="275.832" style="stroke: #000000; stroke-width: 0.8"/>
      </g>
     </g>
     <g id="text_5">
      <!-- $+2\pi/a$ -->
      <g transform="translate(560.903625 290.430438) scale(0.1 -0.1)">
       <use xlink:href="#DejaVuSans-2b" transform="translate(0 0.78125)"/>
       <use xlink:href="#DejaVuSans-32" transform="translate(83.789062 0.78125)"/>
       <use xlink:href="#DejaVuSans-Oblique-3c0" transform="translate(147.412109 0.78125)"/>
       <use xlink:href="#DejaVuSans-2f" transform="translate(207.617188 0.78125)"/>
       <use xlink:href="#DejaVuSans-Oblique-61" transform="translate(241.308594 0.78125)"/>
      </g>
     </g>
    </g>
   </g>
   <g id="matplotlib.axis_2">
    <g id="ytick_1">
     <g id="line2d_11">
      <path d="M 53.765625 275.832 
L 634.085625 275.832 
" clip-path="url(#p30ba5418ca)" style="fill: none; stroke: #b0b0b0; stroke-opacity: 0.14; stroke-width: 0.8; stroke-linecap: square"/>
     </g>
     <g id="line2d_12">
      <defs>
       <path id="m0019ae293d" d="M 0 0 
L -3.5 0 
" style="stroke: #000000; stroke-width: 0.8"/>
      </defs>
      <g>
       <use xlink:href="#m0019ae293d" x="53.765625" y="275.832" style="stroke: #000000; stroke-width: 0.8"/>
      </g>
     </g>
     <g id="text_6">
      <!-- 0.00 -->
      <g transform="translate(24.5 279.631219) scale(0.1 -0.1)">
       <defs>
        <path id="DejaVuSans-2e" d="M 684 794 
L 1344 794 
L 1344 0 
L 684 0 
L 684 794 
z
" transform="scale(0.015625)"/>
       </defs>
       <use xlink:href="#DejaVuSans-30"/>
       <use xlink:href="#DejaVuSans-2e" transform="translate(63.623047 0)"/>
       <use xlink:href="#DejaVuSans-30" transform="translate(95.410156 0)"/>
       <use xlink:href="#DejaVuSans-30" transform="translate(159.033203 0)"/>
      </g>
     </g>
    </g>
    <g id="ytick_2">
     <g id="line2d_13">
      <path d="M 53.765625 252.872 
L 634.085625 252.872 
" clip-path="url(#p30ba5418ca)" style="fill: none; stroke: #b0b0b0; stroke-opacity: 0.14; stroke-width: 0.8; stroke-linecap: square"/>
     </g>
     <g id="line2d_14">
      <g>
       <use xlink:href="#m0019ae293d" x="53.765625" y="252.872" style="stroke: #000000; stroke-width: 0.8"/>
      </g>
     </g>
     <g id="text_7">
      <!-- 0.25 -->
      <g transform="translate(24.5 256.671219) scale(0.1 -0.1)">
       <defs>
        <path id="DejaVuSans-35" d="M 691 4666 
L 3169 4666 
L 3169 4134 
L 1269 4134 
L 1269 2991 
Q 1406 3038 1543 3061 
Q 1681 3084 1819 3084 
Q 2600 3084 3056 2656 
Q 3513 2228 3513 1497 
Q 3513 744 3044 326 
Q 2575 -91 1722 -91 
Q 1428 -91 1123 -41 
Q 819 9 494 109 
L 494 744 
Q 775 591 1075 516 
Q 1375 441 1709 441 
Q 2250 441 2565 725 
Q 2881 1009 2881 1497 
Q 2881 1984 2565 2268 
Q 2250 2553 1709 2553 
Q 1456 2553 1204 2497 
Q 953 2441 691 2322 
L 691 4666 
z
" transform="scale(0.015625)"/>
       </defs>
       <use xlink:href="#DejaVuSans-30"/>
       <use xlink:href="#DejaVuSans-2e" transform="translate(63.623047 0)"/>
       <use xlink:href="#DejaVuSans-32" transform="translate(95.410156 0)"/>
       <use xlink:href="#DejaVuSans-35" transform="translate(159.033203 0)"/>
      </g>
     </g>
    </g>
    <g id="ytick_3">
     <g id="line2d_15">
      <path d="M 53.765625 229.912 
L 634.085625 229.912 
" clip-path="url(#p30ba5418ca)" style="fill: none; stroke: #b0b0b0; stroke-opacity: 0.14; stroke-width: 0.8; stroke-linecap: square"/>
     </g>
     <g id="line2d_16">
      <g>
       <use xlink:href="#m0019ae293d" x="53.765625" y="229.912" style="stroke: #000000; stroke-width: 0.8"/>
      </g>
     </g>
     <g id="text_8">
      <!-- 0.50 -->
      <g transform="translate(24.5 233.711219) scale(0.1 -0.1)">
       <use xlink:href="#DejaVuSans-30"/>
       <use xlink:href="#DejaVuSans-2e" transform="translate(63.623047 0)"/>
       <use xlink:href="#DejaVuSans-35" transform="translate(95.410156 0)"/>
       <use xlink:href="#DejaVuSans-30" transform="translate(159.033203 0)"/>
      </g>
     </g>
    </g>
    <g id="ytick_4">
     <g id="line2d_17">
      <path d="M 53.765625 206.952 
L 634.085625 206.952 
" clip-path="url(#p30ba5418ca)" style="fill: none; stroke: #b0b0b0; stroke-opacity: 0.14; stroke-width: 0.8; stroke-linecap: square"/>
     </g>
     <g id="line2d_18">
      <g>
       <use xlink:href="#m0019ae293d" x="53.765625" y="206.952" style="stroke: #000000; stroke-width: 0.8"/>
      </g>
     </g>
     <g id="text_9">
      <!-- 0.75 -->
      <g transform="translate(24.5 210.751219) scale(0.1 -0.1)">
       <defs>
        <path id="DejaVuSans-37" d="M 525 4666 
L 3525 4666 
L 3525 4397 
L 1831 0 
L 1172 0 
L 2766 4134 
L 525 4134 
L 525 4666 
z
" transform="scale(0.015625)"/>
       </defs>
       <use xlink:href="#DejaVuSans-30"/>
       <use xlink:href="#DejaVuSans-2e" transform="translate(63.623047 0)"/>
       <use xlink:href="#DejaVuSans-37" transform="translate(95.410156 0)"/>
       <use xlink:href="#DejaVuSans-35" transform="translate(159.033203 0)"/>
      </g>
     </g>
    </g>
    <g id="ytick_5">
     <g id="line2d_19">
      <path d="M 53.765625 183.992 
L 634.085625 183.992 
" clip-path="url(#p30ba5418ca)" style="fill: none; stroke: #b0b0b0; stroke-opacity: 0.14; stroke-width: 0.8; stroke-linecap: square"/>
     </g>
     <g id="line2d_20">
      <g>
       <use xlink:href="#m0019ae293d" x="53.765625" y="183.992" style="stroke: #000000; stroke-width: 0.8"/>
      </g>
     </g>
     <g id="text_10">
      <!-- 1.00 -->
      <g transform="translate(24.5 187.791219) scale(0.1 -0.1)">
       <defs>
        <path id="DejaVuSans-31" d="M 794 531 
L 1825 531 
L 1825 4091 
L 703 3866 
L 703 4441 
L 1819 4666 
L 2450 4666 
L 2450 531 
L 3481 531 
L 3481 0 
L 794 0 
L 794 531 
z
" transform="scale(0.015625)"/>
       </defs>
       <use xlink:href="#DejaVuSans-31"/>
       <use xlink:href="#DejaVuSans-2e" transform="translate(63.623047 0)"/>
       <use xlink:href="#DejaVuSans-30" transform="translate(95.410156 0)"/>
       <use xlink:href="#DejaVuSans-30" transform="translate(159.033203 0)"/>
      </g>
     </g>
    </g>
    <g id="ytick_6">
     <g id="line2d_21">
      <path d="M 53.765625 161.032 
L 634.085625 161.032 
" clip-path="url(#p30ba5418ca)" style="fill: none; stroke: #b0b0b0; stroke-opacity: 0.14; stroke-width: 0.8; stroke-linecap: square"/>
     </g>
     <g id="line2d_22">
      <g>
       <use xlink:href="#m0019ae293d" x="53.765625" y="161.032" style="stroke: #000000; stroke-width: 0.8"/>
      </g>
     </g>
     <g id="text_11">
      <!-- 1.25 -->
      <g transform="translate(24.5 164.831219) scale(0.1 -0.1)">
       <use xlink:href="#DejaVuSans-31"/>
       <use xlink:href="#DejaVuSans-2e" transform="translate(63.623047 0)"/>
       <use xlink:href="#DejaVuSans-32" transform="translate(95.410156 0)"/>
       <use xlink:href="#DejaVuSans-35" transform="translate(159.033203 0)"/>
      </g>
     </g>
    </g>
    <g id="ytick_7">
     <g id="line2d_23">
      <path d="M 53.765625 138.072 
L 634.085625 138.072 
" clip-path="url(#p30ba5418ca)" style="fill: none; stroke: #b0b0b0; stroke-opacity: 0.14; stroke-width: 0.8; stroke-linecap: square"/>
     </g>
     <g id="line2d_24">
      <g>
       <use xlink:href="#m0019ae293d" x="53.765625" y="138.072" style="stroke: #000000; stroke-width: 0.8"/>
      </g>
     </g>
     <g id="text_12">
      <!-- 1.50 -->
      <g transform="translate(24.5 141.871219) scale(0.1 -0.1)">
       <use xlink:href="#DejaVuSans-31"/>
       <use xlink:href="#DejaVuSans-2e" transform="translate(63.623047 0)"/>
       <use xlink:href="#DejaVuSans-35" transform="translate(95.410156 0)"/>
       <use xlink:href="#DejaVuSans-30" transform="translate(159.033203 0)"/>
      </g>
     </g>
    </g>
    <g id="ytick_8">
     <g id="line2d_25">
      <path d="M 53.765625 115.112 
L 634.085625 115.112 
" clip-path="url(#p30ba5418ca)" style="fill: none; stroke: #b0b0b0; stroke-opacity: 0.14; stroke-width: 0.8; stroke-linecap: square"/>
     </g>
     <g id="line2d_26">
      <g>
       <use xlink:href="#m0019ae293d" x="53.765625" y="115.112" style="stroke: #000000; stroke-width: 0.8"/>
      </g>
     </g>
     <g id="text_13">
      <!-- 1.75 -->
      <g transform="translate(24.5 118.911219) scale(0.1 -0.1)">
       <use xlink:href="#DejaVuSans-31"/>
       <use xlink:href="#DejaVuSans-2e" transform="translate(63.623047 0)"/>
       <use xlink:href="#DejaVuSans-37" transform="translate(95.410156 0)"/>
       <use xlink:href="#DejaVuSans-35" transform="translate(159.033203 0)"/>
      </g>
     </g>
    </g>
    <g id="ytick_9">
     <g id="line2d_27">
      <path d="M 53.765625 92.152 
L 634.085625 92.152 
" clip-path="url(#p30ba5418ca)" style="fill: none; stroke: #b0b0b0; stroke-opacity: 0.14; stroke-width: 0.8; stroke-linecap: square"/>
     </g>
     <g id="line2d_28">
      <g>
       <use xlink:href="#m0019ae293d" x="53.765625" y="92.152" style="stroke: #000000; stroke-width: 0.8"/>
      </g>
     </g>
     <g id="text_14">
      <!-- 2.00 -->
      <g transform="translate(24.5 95.951219) scale(0.1 -0.1)">
       <use xlink:href="#DejaVuSans-32"/>
       <use xlink:href="#DejaVuSans-2e" transform="translate(63.623047 0)"/>
       <use xlink:href="#DejaVuSans-30" transform="translate(95.410156 0)"/>
       <use xlink:href="#DejaVuSans-30" transform="translate(159.033203 0)"/>
      </g>
     </g>
    </g>
    <g id="ytick_10">
     <g id="line2d_29">
      <path d="M 53.765625 69.192 
L 634.085625 69.192 
" clip-path="url(#p30ba5418ca)" style="fill: none; stroke: #b0b0b0; stroke-opacity: 0.14; stroke-width: 0.8; stroke-linecap: square"/>
     </g>
     <g id="line2d_30">
      <g>
       <use xlink:href="#m0019ae293d" x="53.765625" y="69.192" style="stroke: #000000; stroke-width: 0.8"/>
      </g>
     </g>
     <g id="text_15">
      <!-- 2.25 -->
      <g transform="translate(24.5 72.991219) scale(0.1 -0.1)">
       <use xlink:href="#DejaVuSans-32"/>
       <use xlink:href="#DejaVuSans-2e" transform="translate(63.623047 0)"/>
       <use xlink:href="#DejaVuSans-32" transform="translate(95.410156 0)"/>
       <use xlink:href="#DejaVuSans-35" transform="translate(159.033203 0)"/>
      </g>
     </g>
    </g>
    <g id="text_16">
     <!-- $\omega(q)/\sqrt{C/M}$ -->
     <g transform="translate(18.4 199.512) rotate(-90) scale(0.1 -0.1)">
      <defs>
       <path id="DejaVuSans-Oblique-3c9" d="M 1369 -91 
Q 72 -91 434 1766 
Q 575 2500 1256 3500 
L 1875 3500 
Q 1231 2500 1088 1750 
Q 819 397 1519 397 
Q 2166 397 2478 2078 
L 3009 2078 
Q 2669 388 3316 397 
Q 4013 403 4275 1750 
Q 4419 2500 4169 3500 
L 4788 3500 
Q 5075 2500 4934 1766 
Q 4578 -94 3278 -91 
Q 2428 -88 2503 844 
Q 2194 -91 1369 -91 
z
" transform="scale(0.015625)"/>
       <path id="DejaVuSans-28" d="M 1984 4856 
Q 1566 4138 1362 3434 
Q 1159 2731 1159 2009 
Q 1159 1288 1364 580 
Q 1569 -128 1984 -844 
L 1484 -844 
Q 1016 -109 783 600 
Q 550 1309 550 2009 
Q 550 2706 781 3412 
Q 1013 4119 1484 4856 
L 1984 4856 
z
" transform="scale(0.015625)"/>
       <path id="DejaVuSans-Oblique-71" d="M 2669 525 
Q 2438 222 2123 65 
Q 1809 -91 1428 -91 
Q 897 -91 595 267 
Q 294 625 294 1253 
Q 294 1759 480 2231 
Q 666 2703 1013 3078 
Q 1238 3322 1530 3453 
Q 1822 3584 2144 3584 
Q 2531 3584 2781 3431 
Q 3031 3278 3144 2969 
L 3244 3494 
L 3822 3494 
L 2888 -1319 
L 2309 -1319 
L 2669 525 
z
M 891 1338 
Q 891 875 1084 633 
Q 1278 391 1644 391 
Q 2188 391 2572 911 
Q 2956 1431 2956 2175 
Q 2956 2625 2757 2864 
Q 2559 3103 2188 3103 
Q 1916 3103 1684 2976 
Q 1453 2850 1281 2606 
Q 1100 2350 995 2006 
Q 891 1663 891 1338 
z
" transform="scale(0.015625)"/>
       <path id="DejaVuSans-29" d="M 513 4856 
L 1013 4856 
Q 1481 4119 1714 3412 
Q 1947 2706 1947 2009 
Q 1947 1309 1714 600 
Q 1481 -109 1013 -844 
L 513 -844 
Q 928 -128 1133 580 
Q 1338 1288 1338 2009 
Q 1338 2731 1133 3434 
Q 928 4138 513 4856 
z
" transform="scale(0.015625)"/>
       <path id="STIXSizeOneSym-Regular-221a" d="M 6970 9933 
L 3373 -1888 
L 3104 -1888 
L 1626 2918 
Q 1555 3149 1465 3251 
Q 1376 3354 1229 3354 
Q 1011 3354 794 3181 
L 717 3309 
L 1766 4115 
L 1926 4115 
L 3379 -602 
L 3405 -602 
L 6605 9933 
L 6970 9933 
z
" transform="scale(0.015625)"/>
       <path id="DejaVuSans-Oblique-43" d="M 4447 4306 
L 4319 3641 
Q 4019 3944 3683 4091 
Q 3347 4238 2956 4238 
Q 2422 4238 2017 3981 
Q 1613 3725 1319 3200 
Q 1131 2863 1032 2486 
Q 934 2109 934 1728 
Q 934 1091 1264 756 
Q 1594 422 2222 422 
Q 2656 422 3056 561 
Q 3456 700 3834 978 
L 3688 231 
Q 3316 72 2936 -9 
Q 2556 -91 2175 -91 
Q 1278 -91 773 396 
Q 269 884 269 1753 
Q 269 2309 461 2846 
Q 653 3384 1013 3828 
Q 1394 4300 1883 4525 
Q 2372 4750 3022 4750 
Q 3422 4750 3780 4639 
Q 4138 4528 4447 4306 
z
" transform="scale(0.015625)"/>
       <path id="DejaVuSans-Oblique-4d" d="M 1081 4666 
L 2028 4666 
L 2572 1522 
L 4378 4666 
L 5350 4666 
L 4441 0 
L 3828 0 
L 4622 4091 
L 2791 897 
L 2175 897 
L 1581 4103 
L 788 0 
L 172 0 
L 1081 4666 
z
" transform="scale(0.015625)"/>
      </defs>
      <use xlink:href="#DejaVuSans-Oblique-3c9" transform="translate(0 0.765625)"/>
      <use xlink:href="#DejaVuSans-28" transform="translate(83.740234 0.765625)"/>
      <use xlink:href="#DejaVuSans-Oblique-71" transform="translate(122.753906 0.765625)"/>
      <use xlink:href="#DejaVuSans-29" transform="translate(186.230469 0.765625)"/>
      <use xlink:href="#DejaVuSans-2f" transform="translate(225.244141 0.765625)"/>
      <use xlink:href="#STIXSizeOneSym-Regular-221a" transform="translate(258.935547 9.78125) scale(0.621267)"/>
      <use xlink:href="#DejaVuSans-Oblique-43" transform="translate(337.101669 0.53125)"/>
      <use xlink:href="#DejaVuSans-2f" transform="translate(406.925888 0.53125)"/>
      <use xlink:href="#DejaVuSans-Oblique-4d" transform="translate(440.617294 0.53125)"/>
      <path d="M 324.601669 99.5 
L 324.601669 105.75 
L 539.396591 105.75 
L 539.396591 99.5 
L 324.601669 99.5 
z
"/>
     </g>
    </g>
   </g>
   <g id="line2d_31">
    <path d="M 53.765625 145.950626 
L 58.281734 154.126621 
L 62.797843 162.75713 
L 67.636531 172.471826 
L 72.797798 183.321502 
L 78.604224 196.063994 
L 85.055808 210.796234 
L 92.152551 227.569576 
L 100.86219 248.746698 
L 111.829883 275.75181 
L 127.313685 237.543432 
L 135.700745 217.442182 
L 142.797487 201.010302 
L 148.926492 187.368784 
L 154.410339 175.676159 
L 159.571606 165.173952 
L 164.410294 155.817369 
L 168.926403 147.547973 
L 173.119933 140.297592 
L 177.313463 133.483664 
L 181.184413 127.600269 
L 185.055364 122.123618 
L 188.603735 117.473524 
L 192.152106 113.188571 
L 195.377898 109.618347 
L 198.603691 106.364872 
L 201.829483 103.434347 
L 204.732696 101.077623 
L 207.635908 98.990658 
L 210.539121 97.176673 
L 213.442334 95.638468 
L 216.022968 94.504622 
L 218.603602 93.591942 
L 221.184235 92.901539 
L 223.764869 92.434258 
L 226.345503 92.190666 
L 228.926136 92.171062 
L 231.50677 92.375469 
L 234.087404 92.803639 
L 236.668037 93.455048 
L 239.248671 94.328903 
L 241.829305 95.424137 
L 244.409939 96.739414 
L 247.313151 98.480114 
L 250.216364 100.494583 
L 253.119577 102.779709 
L 256.02279 105.331966 
L 259.248582 108.476303 
L 262.474374 111.939565 
L 265.700166 115.715153 
L 269.248538 120.220431 
L 272.796909 125.084516 
L 276.66786 130.786808 
L 280.53881 136.887102 
L 284.73234 143.925446 
L 288.92587 151.38856 
L 293.441979 159.873203 
L 298.280667 169.443579 
L 303.441934 180.153638 
L 308.925781 192.043155 
L 315.054786 205.874229 
L 321.828949 221.716913 
L 329.893429 241.158621 
L 341.183702 269.017408 
L 343.764335 275.43105 
L 344.086915 275.43105 
L 359.570717 237.229777 
L 367.957776 217.13815 
L 375.054519 200.717475 
L 381.183524 187.08781 
L 386.66737 175.407432 
L 391.828638 164.918104 
L 396.667326 155.57473 
L 401.183435 147.318602 
L 405.376965 140.081309 
L 409.570494 133.281165 
L 413.441445 127.411074 
L 417.312395 121.948247 
L 420.860767 117.311247 
L 424.409138 113.039764 
L 427.63493 109.482083 
L 430.860722 106.241411 
L 434.086514 103.323924 
L 436.989727 100.979116 
L 439.89294 98.904218 
L 442.796153 97.102433 
L 445.699366 95.576543 
L 448.28 94.453725 
L 450.860633 93.552134 
L 453.441267 92.87287 
L 456.021901 92.416762 
L 458.602534 92.184365 
L 461.183168 92.175963 
L 463.763802 92.391567 
L 466.344435 92.830913 
L 468.925069 93.493466 
L 471.505703 94.378417 
L 474.086337 95.484687 
L 476.66697 96.810927 
L 479.570183 98.563855 
L 482.473396 100.590421 
L 485.376609 102.887498 
L 488.279822 105.451539 
L 491.505614 108.608752 
L 494.731406 112.084638 
L 497.957198 115.872573 
L 501.505569 120.391086 
L 505.053941 125.268012 
L 508.924891 130.983829 
L 512.795842 137.097107 
L 516.989372 144.148866 
L 521.182901 151.624675 
L 525.69901 160.122139 
L 530.537698 169.705219 
L 535.698966 180.427591 
L 541.182812 192.328726 
L 547.311817 206.17092 
L 554.085981 222.023519 
L 562.150461 241.473667 
L 573.440733 269.337958 
L 576.021367 275.75181 
L 576.666526 274.308406 
L 591.827748 236.916239 
L 600.214808 216.834296 
L 606.988971 201.156802 
L 613.117976 187.509372 
L 618.601823 175.810637 
L 623.76309 165.302002 
L 628.601778 155.938826 
L 633.117887 147.662806 
L 634.085625 145.950626 
L 634.085625 145.950626 
" clip-path="url(#p30ba5418ca)" style="fill: none; stroke: #1f77b4; stroke-width: 2; stroke-linecap: square"/>
   </g>
   <g id="line2d_32">
    <path d="M 111.797625 275.832 
L 111.797625 69.192 
" clip-path="url(#p30ba5418ca)" style="fill: none; stroke-dasharray: 0.75,1.2375; stroke-dashoffset: 0; stroke: #1f77b4; stroke-width: 0.75"/>
   </g>
   <g id="line2d_33">
    <path d="M 227.861625 275.832 
L 227.861625 69.192 
" clip-path="url(#p30ba5418ca)" style="fill: none; stroke-dasharray: 0.75,1.2375; stroke-dashoffset: 0; stroke: #1f77b4; stroke-width: 0.75"/>
   </g>
   <g id="line2d_34">
    <path d="M 343.925625 275.832 
L 343.925625 69.192 
" clip-path="url(#p30ba5418ca)" style="fill: none; stroke-dasharray: 0.75,1.2375; stroke-dashoffset: 0; stroke: #1f77b4; stroke-width: 0.75"/>
   </g>
   <g id="line2d_35">
    <path d="M 459.989625 275.832 
L 459.989625 69.192 
" clip-path="url(#p30ba5418ca)" style="fill: none; stroke-dasharray: 0.75,1.2375; stroke-dashoffset: 0; stroke: #1f77b4; stroke-width: 0.75"/>
   </g>
   <g id="line2d_36">
    <path d="M 576.053625 275.832 
L 576.053625 69.192 
" clip-path="url(#p30ba5418ca)" style="fill: none; stroke-dasharray: 0.75,1.2375; stroke-dashoffset: 0; stroke: #1f77b4; stroke-width: 0.75"/>
   </g>
   <g id="patch_4">
    <path d="M 53.765625 275.832 
L 53.765625 69.192 
" style="fill: none; stroke: #000000; stroke-width: 0.8; stroke-linejoin: miter; stroke-linecap: square"/>
   </g>
   <g id="patch_5">
    <path d="M 634.085625 275.832 
L 634.085625 69.192 
" style="fill: none; stroke: #000000; stroke-width: 0.8; stroke-linejoin: miter; stroke-linecap: square"/>
   </g>
   <g id="patch_6">
    <path d="M 53.765625 275.832 
L 634.085625 275.832 
" style="fill: none; stroke: #000000; stroke-width: 0.8; stroke-linejoin: miter; stroke-linecap: square"/>
   </g>
   <g id="patch_7">
    <path d="M 53.765625 69.192 
L 634.085625 69.192 
" style="fill: none; stroke: #000000; stroke-width: 0.8; stroke-linejoin: miter; stroke-linecap: square"/>
   </g>
   <g id="text_17">
    <!-- prima zona di Brillouin -->
    <g transform="translate(290.498516 81.1312) scale(0.095 -0.095)">
     <defs>
      <path id="DejaVuSans-70" d="M 1159 525 
L 1159 -1331 
L 581 -1331 
L 581 3500 
L 1159 3500 
L 1159 2969 
Q 1341 3281 1617 3432 
Q 1894 3584 2278 3584 
Q 2916 3584 3314 3078 
Q 3713 2572 3713 1747 
Q 3713 922 3314 415 
Q 2916 -91 2278 -91 
Q 1894 -91 1617 61 
Q 1341 213 1159 525 
z
M 3116 1747 
Q 3116 2381 2855 2742 
Q 2594 3103 2138 3103 
Q 1681 3103 1420 2742 
Q 1159 2381 1159 1747 
Q 1159 1113 1420 752 
Q 1681 391 2138 391 
Q 2594 391 2855 752 
Q 3116 1113 3116 1747 
z
" transform="scale(0.015625)"/>
      <path id="DejaVuSans-72" d="M 2631 2963 
Q 2534 3019 2420 3045 
Q 2306 3072 2169 3072 
Q 1681 3072 1420 2755 
Q 1159 2438 1159 1844 
L 1159 0 
L 581 0 
L 581 3500 
L 1159 3500 
L 1159 2956 
Q 1341 3275 1631 3429 
Q 1922 3584 2338 3584 
Q 2397 3584 2469 3576 
Q 2541 3569 2628 3553 
L 2631 2963 
z
" transform="scale(0.015625)"/>
      <path id="DejaVuSans-69" d="M 603 3500 
L 1178 3500 
L 1178 0 
L 603 0 
L 603 3500 
z
M 603 4863 
L 1178 4863 
L 1178 4134 
L 603 4134 
L 603 4863 
z
" transform="scale(0.015625)"/>
      <path id="DejaVuSans-6d" d="M 3328 2828 
Q 3544 3216 3844 3400 
Q 4144 3584 4550 3584 
Q 5097 3584 5394 3201 
Q 5691 2819 5691 2113 
L 5691 0 
L 5113 0 
L 5113 2094 
Q 5113 2597 4934 2840 
Q 4756 3084 4391 3084 
Q 3944 3084 3684 2787 
Q 3425 2491 3425 1978 
L 3425 0 
L 2847 0 
L 2847 2094 
Q 2847 2600 2669 2842 
Q 2491 3084 2119 3084 
Q 1678 3084 1418 2786 
Q 1159 2488 1159 1978 
L 1159 0 
L 581 0 
L 581 3500 
L 1159 3500 
L 1159 2956 
Q 1356 3278 1631 3431 
Q 1906 3584 2284 3584 
Q 2666 3584 2933 3390 
Q 3200 3197 3328 2828 
z
" transform="scale(0.015625)"/>
      <path id="DejaVuSans-61" d="M 2194 1759 
Q 1497 1759 1228 1600 
Q 959 1441 959 1056 
Q 959 750 1161 570 
Q 1363 391 1709 391 
Q 2188 391 2477 730 
Q 2766 1069 2766 1631 
L 2766 1759 
L 2194 1759 
z
M 3341 1997 
L 3341 0 
L 2766 0 
L 2766 531 
Q 2569 213 2275 61 
Q 1981 -91 1556 -91 
Q 1019 -91 701 211 
Q 384 513 384 1019 
Q 384 1609 779 1909 
Q 1175 2209 1959 2209 
L 2766 2209 
L 2766 2266 
Q 2766 2663 2505 2880 
Q 2244 3097 1772 3097 
Q 1472 3097 1187 3025 
Q 903 2953 641 2809 
L 641 3341 
Q 956 3463 1253 3523 
Q 1550 3584 1831 3584 
Q 2591 3584 2966 3190 
Q 3341 2797 3341 1997 
z
" transform="scale(0.015625)"/>
      <path id="DejaVuSans-20" transform="scale(0.015625)"/>
      <path id="DejaVuSans-7a" d="M 353 3500 
L 3084 3500 
L 3084 2975 
L 922 459 
L 3084 459 
L 3084 0 
L 275 0 
L 275 525 
L 2438 3041 
L 353 3041 
L 353 3500 
z
" transform="scale(0.015625)"/>
      <path id="DejaVuSans-6f" d="M 1959 3097 
Q 1497 3097 1228 2736 
Q 959 2375 959 1747 
Q 959 1119 1226 758 
Q 1494 397 1959 397 
Q 2419 397 2687 759 
Q 2956 1122 2956 1747 
Q 2956 2369 2687 2733 
Q 2419 3097 1959 3097 
z
M 1959 3584 
Q 2709 3584 3137 3096 
Q 3566 2609 3566 1747 
Q 3566 888 3137 398 
Q 2709 -91 1959 -91 
Q 1206 -91 779 398 
Q 353 888 353 1747 
Q 353 2609 779 3096 
Q 1206 3584 1959 3584 
z
" transform="scale(0.015625)"/>
      <path id="DejaVuSans-6e" d="M 3513 2113 
L 3513 0 
L 2938 0 
L 2938 2094 
Q 2938 2591 2744 2837 
Q 2550 3084 2163 3084 
Q 1697 3084 1428 2787 
Q 1159 2491 1159 1978 
L 1159 0 
L 581 0 
L 581 3500 
L 1159 3500 
L 1159 2956 
Q 1366 3272 1645 3428 
Q 1925 3584 2291 3584 
Q 2894 3584 3203 3211 
Q 3513 2838 3513 2113 
z
" transform="scale(0.015625)"/>
      <path id="DejaVuSans-64" d="M 2906 2969 
L 2906 4863 
L 3481 4863 
L 3481 0 
L 2906 0 
L 2906 525 
Q 2725 213 2448 61 
Q 2172 -91 1784 -91 
Q 1150 -91 751 415 
Q 353 922 353 1747 
Q 353 2572 751 3078 
Q 1150 3584 1784 3584 
Q 2172 3584 2448 3432 
Q 2725 3281 2906 2969 
z
M 947 1747 
Q 947 1113 1208 752 
Q 1469 391 1925 391 
Q 2381 391 2643 752 
Q 2906 1113 2906 1747 
Q 2906 2381 2643 2742 
Q 2381 3103 1925 3103 
Q 1469 3103 1208 2742 
Q 947 2381 947 1747 
z
" transform="scale(0.015625)"/>
      <path id="DejaVuSans-42" d="M 1259 2228 
L 1259 519 
L 2272 519 
Q 2781 519 3026 730 
Q 3272 941 3272 1375 
Q 3272 1813 3026 2020 
Q 2781 2228 2272 2228 
L 1259 2228 
z
M 1259 4147 
L 1259 2741 
L 2194 2741 
Q 2656 2741 2882 2914 
Q 3109 3088 3109 3444 
Q 3109 3797 2882 3972 
Q 2656 4147 2194 4147 
L 1259 4147 
z
M 628 4666 
L 2241 4666 
Q 2963 4666 3353 4366 
Q 3744 4066 3744 3513 
Q 3744 3084 3544 2831 
Q 3344 2578 2956 2516 
Q 3422 2416 3680 2098 
Q 3938 1781 3938 1306 
Q 3938 681 3513 340 
Q 3088 0 2303 0 
L 628 0 
L 628 4666 
z
" transform="scale(0.015625)"/>
      <path id="DejaVuSans-6c" d="M 603 4863 
L 1178 4863 
L 1178 0 
L 603 0 
L 603 4863 
z
" transform="scale(0.015625)"/>
      <path id="DejaVuSans-75" d="M 544 1381 
L 544 3500 
L 1119 3500 
L 1119 1403 
Q 1119 906 1312 657 
Q 1506 409 1894 409 
Q 2359 409 2629 706 
Q 2900 1003 2900 1516 
L 2900 3500 
L 3475 3500 
L 3475 0 
L 2900 0 
L 2900 538 
Q 2691 219 2414 64 
Q 2138 -91 1772 -91 
Q 1169 -91 856 284 
Q 544 659 544 1381 
z
M 1991 3584 
L 1991 3584 
z
" transform="scale(0.015625)"/>
     </defs>
     <use xlink:href="#DejaVuSans-70"/>
     <use xlink:href="#DejaVuSans-72" transform="translate(63.476562 0)"/>
     <use xlink:href="#DejaVuSans-69" transform="translate(104.589844 0)"/>
     <use xlink:href="#DejaVuSans-6d" transform="translate(132.373047 0)"/>
     <use xlink:href="#DejaVuSans-61" transform="translate(229.785156 0)"/>
     <use xlink:href="#DejaVuSans-20" transform="translate(291.064453 0)"/>
     <use xlink:href="#DejaVuSans-7a" transform="translate(322.851562 0)"/>
     <use xlink:href="#DejaVuSans-6f" transform="translate(375.341797 0)"/>
     <use xlink:href="#DejaVuSans-6e" transform="translate(436.523438 0)"/>
     <use xlink:href="#DejaVuSans-61" transform="translate(499.902344 0)"/>
     <use xlink:href="#DejaVuSans-20" transform="translate(561.181641 0)"/>
     <use xlink:href="#DejaVuSans-64" transform="translate(592.96875 0)"/>
     <use xlink:href="#DejaVuSans-69" transform="translate(656.445312 0)"/>
     <use xlink:href="#DejaVuSans-20" transform="translate(684.228516 0)"/>
     <use xlink:href="#DejaVuSans-42" transform="translate(716.015625 0)"/>
     <use xlink:href="#DejaVuSans-72" transform="translate(784.619141 0)"/>
     <use xlink:href="#DejaVuSans-69" transform="translate(825.732422 0)"/>
     <use xlink:href="#DejaVuSans-6c" transform="translate(853.515625 0)"/>
     <use xlink:href="#DejaVuSans-6c" transform="translate(881.298828 0)"/>
     <use xlink:href="#DejaVuSans-6f" transform="translate(909.082031 0)"/>
     <use xlink:href="#DejaVuSans-75" transform="translate(970.263672 0)"/>
     <use xlink:href="#DejaVuSans-69" transform="translate(1033.642578 0)"/>
     <use xlink:href="#DejaVuSans-6e" transform="translate(1061.425781 0)"/>
    </g>
   </g>
   <g id="text_18">
    <!-- schema a zone estese -->
    <g transform="translate(272.760391 63.192) scale(0.115 -0.115)">
     <defs>
      <path id="DejaVuSans-Bold-73" d="M 3272 3391 
L 3272 2541 
Q 2913 2691 2578 2766 
Q 2244 2841 1947 2841 
Q 1628 2841 1473 2761 
Q 1319 2681 1319 2516 
Q 1319 2381 1436 2309 
Q 1553 2238 1856 2203 
L 2053 2175 
Q 2913 2066 3209 1816 
Q 3506 1566 3506 1031 
Q 3506 472 3093 190 
Q 2681 -91 1863 -91 
Q 1516 -91 1145 -36 
Q 775 19 384 128 
L 384 978 
Q 719 816 1070 734 
Q 1422 653 1784 653 
Q 2113 653 2278 743 
Q 2444 834 2444 1013 
Q 2444 1163 2330 1236 
Q 2216 1309 1875 1350 
L 1678 1375 
Q 931 1469 631 1722 
Q 331 1975 331 2491 
Q 331 3047 712 3315 
Q 1094 3584 1881 3584 
Q 2191 3584 2531 3537 
Q 2872 3491 3272 3391 
z
" transform="scale(0.015625)"/>
      <path id="DejaVuSans-Bold-63" d="M 3366 3391 
L 3366 2478 
Q 3138 2634 2908 2709 
Q 2678 2784 2431 2784 
Q 1963 2784 1702 2511 
Q 1441 2238 1441 1747 
Q 1441 1256 1702 982 
Q 1963 709 2431 709 
Q 2694 709 2930 787 
Q 3166 866 3366 1019 
L 3366 103 
Q 3103 6 2833 -42 
Q 2563 -91 2291 -91 
Q 1344 -91 809 395 
Q 275 881 275 1747 
Q 275 2613 809 3098 
Q 1344 3584 2291 3584 
Q 2566 3584 2833 3536 
Q 3100 3488 3366 3391 
z
" transform="scale(0.015625)"/>
      <path id="DejaVuSans-Bold-68" d="M 4056 2131 
L 4056 0 
L 2931 0 
L 2931 347 
L 2931 1625 
Q 2931 2084 2911 2256 
Q 2891 2428 2841 2509 
Q 2775 2619 2662 2680 
Q 2550 2741 2406 2741 
Q 2056 2741 1856 2470 
Q 1656 2200 1656 1722 
L 1656 0 
L 538 0 
L 538 4863 
L 1656 4863 
L 1656 2988 
Q 1909 3294 2193 3439 
Q 2478 3584 2822 3584 
Q 3428 3584 3742 3212 
Q 4056 2841 4056 2131 
z
" transform="scale(0.015625)"/>
      <path id="DejaVuSans-Bold-65" d="M 4031 1759 
L 4031 1441 
L 1416 1441 
Q 1456 1047 1700 850 
Q 1944 653 2381 653 
Q 2734 653 3104 758 
Q 3475 863 3866 1075 
L 3866 213 
Q 3469 63 3072 -14 
Q 2675 -91 2278 -91 
Q 1328 -91 801 392 
Q 275 875 275 1747 
Q 275 2603 792 3093 
Q 1309 3584 2216 3584 
Q 3041 3584 3536 3087 
Q 4031 2591 4031 1759 
z
M 2881 2131 
Q 2881 2450 2695 2645 
Q 2509 2841 2209 2841 
Q 1884 2841 1681 2658 
Q 1478 2475 1428 2131 
L 2881 2131 
z
" transform="scale(0.015625)"/>
      <path id="DejaVuSans-Bold-6d" d="M 3781 2919 
Q 3994 3244 4286 3414 
Q 4578 3584 4928 3584 
Q 5531 3584 5847 3212 
Q 6163 2841 6163 2131 
L 6163 0 
L 5038 0 
L 5038 1825 
Q 5041 1866 5042 1909 
Q 5044 1953 5044 2034 
Q 5044 2406 4934 2573 
Q 4825 2741 4581 2741 
Q 4263 2741 4089 2478 
Q 3916 2216 3909 1719 
L 3909 0 
L 2784 0 
L 2784 1825 
Q 2784 2406 2684 2573 
Q 2584 2741 2328 2741 
Q 2006 2741 1831 2477 
Q 1656 2213 1656 1722 
L 1656 0 
L 531 0 
L 531 3500 
L 1656 3500 
L 1656 2988 
Q 1863 3284 2130 3434 
Q 2397 3584 2719 3584 
Q 3081 3584 3359 3409 
Q 3638 3234 3781 2919 
z
" transform="scale(0.015625)"/>
      <path id="DejaVuSans-Bold-61" d="M 2106 1575 
Q 1756 1575 1579 1456 
Q 1403 1338 1403 1106 
Q 1403 894 1545 773 
Q 1688 653 1941 653 
Q 2256 653 2472 879 
Q 2688 1106 2688 1447 
L 2688 1575 
L 2106 1575 
z
M 3816 1997 
L 3816 0 
L 2688 0 
L 2688 519 
Q 2463 200 2181 54 
Q 1900 -91 1497 -91 
Q 953 -91 614 226 
Q 275 544 275 1050 
Q 275 1666 698 1953 
Q 1122 2241 2028 2241 
L 2688 2241 
L 2688 2328 
Q 2688 2594 2478 2717 
Q 2269 2841 1825 2841 
Q 1466 2841 1156 2769 
Q 847 2697 581 2553 
L 581 3406 
Q 941 3494 1303 3539 
Q 1666 3584 2028 3584 
Q 2975 3584 3395 3211 
Q 3816 2838 3816 1997 
z
" transform="scale(0.015625)"/>
      <path id="DejaVuSans-Bold-20" transform="scale(0.015625)"/>
      <path id="DejaVuSans-Bold-7a" d="M 366 3500 
L 3419 3500 
L 3419 2719 
L 1575 800 
L 3419 800 
L 3419 0 
L 288 0 
L 288 781 
L 2131 2700 
L 366 2700 
L 366 3500 
z
" transform="scale(0.015625)"/>
      <path id="DejaVuSans-Bold-6f" d="M 2203 2784 
Q 1831 2784 1636 2517 
Q 1441 2250 1441 1747 
Q 1441 1244 1636 976 
Q 1831 709 2203 709 
Q 2569 709 2762 976 
Q 2956 1244 2956 1747 
Q 2956 2250 2762 2517 
Q 2569 2784 2203 2784 
z
M 2203 3584 
Q 3106 3584 3614 3096 
Q 4122 2609 4122 1747 
Q 4122 884 3614 396 
Q 3106 -91 2203 -91 
Q 1297 -91 786 396 
Q 275 884 275 1747 
Q 275 2609 786 3096 
Q 1297 3584 2203 3584 
z
" transform="scale(0.015625)"/>
      <path id="DejaVuSans-Bold-6e" d="M 4056 2131 
L 4056 0 
L 2931 0 
L 2931 347 
L 2931 1631 
Q 2931 2084 2911 2256 
Q 2891 2428 2841 2509 
Q 2775 2619 2662 2680 
Q 2550 2741 2406 2741 
Q 2056 2741 1856 2470 
Q 1656 2200 1656 1722 
L 1656 0 
L 538 0 
L 538 3500 
L 1656 3500 
L 1656 2988 
Q 1909 3294 2193 3439 
Q 2478 3584 2822 3584 
Q 3428 3584 3742 3212 
Q 4056 2841 4056 2131 
z
" transform="scale(0.015625)"/>
      <path id="DejaVuSans-Bold-74" d="M 1759 4494 
L 1759 3500 
L 2913 3500 
L 2913 2700 
L 1759 2700 
L 1759 1216 
Q 1759 972 1856 886 
Q 1953 800 2241 800 
L 2816 800 
L 2816 0 
L 1856 0 
Q 1194 0 917 276 
Q 641 553 641 1216 
L 641 2700 
L 84 2700 
L 84 3500 
L 641 3500 
L 641 4494 
L 1759 4494 
z
" transform="scale(0.015625)"/>
     </defs>
     <use xlink:href="#DejaVuSans-Bold-73"/>
     <use xlink:href="#DejaVuSans-Bold-63" transform="translate(59.521484 0)"/>
     <use xlink:href="#DejaVuSans-Bold-68" transform="translate(118.798828 0)"/>
     <use xlink:href="#DejaVuSans-Bold-65" transform="translate(189.990234 0)"/>
     <use xlink:href="#DejaVuSans-Bold-6d" transform="translate(257.8125 0)"/>
     <use xlink:href="#DejaVuSans-Bold-61" transform="translate(362.011719 0)"/>
     <use xlink:href="#DejaVuSans-Bold-20" transform="translate(429.492188 0)"/>
     <use xlink:href="#DejaVuSans-Bold-61" transform="translate(464.306641 0)"/>
     <use xlink:href="#DejaVuSans-Bold-20" transform="translate(531.787109 0)"/>
     <use xlink:href="#DejaVuSans-Bold-7a" transform="translate(566.601562 0)"/>
     <use xlink:href="#DejaVuSans-Bold-6f" transform="translate(624.804688 0)"/>
     <use xlink:href="#DejaVuSans-Bold-6e" transform="translate(693.505859 0)"/>
     <use xlink:href="#DejaVuSans-Bold-65" transform="translate(764.697266 0)"/>
     <use xlink:href="#DejaVuSans-Bold-20" transform="translate(832.519531 0)"/>
     <use xlink:href="#DejaVuSans-Bold-65" transform="translate(867.333984 0)"/>
     <use xlink:href="#DejaVuSans-Bold-73" transform="translate(935.15625 0)"/>
     <use xlink:href="#DejaVuSans-Bold-74" transform="translate(994.677734 0)"/>
     <use xlink:href="#DejaVuSans-Bold-65" transform="translate(1042.480469 0)"/>
     <use xlink:href="#DejaVuSans-Bold-73" transform="translate(1110.302734 0)"/>
     <use xlink:href="#DejaVuSans-Bold-65" transform="translate(1169.824219 0)"/>
    </g>
   </g>
  </g>
  <g id="axes_2">
   <g id="patch_8">
    <path d="M 53.765625 523.8 
L 634.085625 523.8 
L 634.085625 317.16 
L 53.765625 317.16 
z
" style="fill: #ffffff"/>
   </g>
   <g id="matplotlib.axis_3">
    <g id="xtick_6">
     <g id="line2d_37">
      <path d="M 91.612582 523.8 
L 91.612582 317.16 
" clip-path="url(#p1aaa8781f0)" style="fill: none; stroke: #b0b0b0; stroke-opacity: 0.14; stroke-width: 0.8; stroke-linecap: square"/>
     </g>
     <g id="line2d_38">
      <g>
       <use xlink:href="#m0834707faa" x="91.612582" y="523.8" style="stroke: #000000; stroke-width: 0.8"/>
      </g>
     </g>
     <g id="text_19">
      <!-- $-\pi/a$ -->
      <g transform="translate(79.662582 538.398438) scale(0.1 -0.1)">
       <use xlink:href="#DejaVuSans-2212" transform="translate(0 0.09375)"/>
       <use xlink:href="#DejaVuSans-Oblique-3c0" transform="translate(83.789062 0.09375)"/>
       <use xlink:href="#DejaVuSans-2f" transform="translate(143.994141 0.09375)"/>
       <use xlink:href="#DejaVuSans-Oblique-61" transform="translate(177.685547 0.09375)"/>
      </g>
     </g>
    </g>
    <g id="xtick_7">
     <g id="line2d_39">
      <path d="M 343.925625 523.8 
L 343.925625 317.16 
" clip-path="url(#p1aaa8781f0)" style="fill: none; stroke: #b0b0b0; stroke-opacity: 0.14; stroke-width: 0.8; stroke-linecap: square"/>
     </g>
     <g id="line2d_40">
      <g>
       <use xlink:href="#m0834707faa" x="343.925625" y="523.8" style="stroke: #000000; stroke-width: 0.8"/>
      </g>
     </g>
     <g id="text_20">
      <!-- $0$ -->
      <g transform="translate(340.725625 538.398438) scale(0.1 -0.1)">
       <use xlink:href="#DejaVuSans-30" transform="translate(0 0.78125)"/>
      </g>
     </g>
    </g>
    <g id="xtick_8">
     <g id="line2d_41">
      <path d="M 596.238668 523.8 
L 596.238668 317.16 
" clip-path="url(#p1aaa8781f0)" style="fill: none; stroke: #b0b0b0; stroke-opacity: 0.14; stroke-width: 0.8; stroke-linecap: square"/>
     </g>
     <g id="line2d_42">
      <g>
       <use xlink:href="#m0834707faa" x="596.238668" y="523.8" style="stroke: #000000; stroke-width: 0.8"/>
      </g>
     </g>
     <g id="text_21">
      <!-- $+\pi/a$ -->
      <g transform="translate(584.288668 538.398438) scale(0.1 -0.1)">
       <use xlink:href="#DejaVuSans-2b" transform="translate(0 0.09375)"/>
       <use xlink:href="#DejaVuSans-Oblique-3c0" transform="translate(83.789062 0.09375)"/>
       <use xlink:href="#DejaVuSans-2f" transform="translate(143.994141 0.09375)"/>
       <use xlink:href="#DejaVuSans-Oblique-61" transform="translate(177.685547 0.09375)"/>
      </g>
     </g>
    </g>
    <g id="text_22">
     <!-- vettore d'onda $q$ -->
     <g transform="translate(302.375625 552.078125) scale(0.1 -0.1)">
      <defs>
       <path id="DejaVuSans-76" d="M 191 3500 
L 800 3500 
L 1894 563 
L 2988 3500 
L 3597 3500 
L 2284 0 
L 1503 0 
L 191 3500 
z
" transform="scale(0.015625)"/>
       <path id="DejaVuSans-65" d="M 3597 1894 
L 3597 1613 
L 953 1613 
Q 991 1019 1311 708 
Q 1631 397 2203 397 
Q 2534 397 2845 478 
Q 3156 559 3463 722 
L 3463 178 
Q 3153 47 2828 -22 
Q 2503 -91 2169 -91 
Q 1331 -91 842 396 
Q 353 884 353 1716 
Q 353 2575 817 3079 
Q 1281 3584 2069 3584 
Q 2775 3584 3186 3129 
Q 3597 2675 3597 1894 
z
M 3022 2063 
Q 3016 2534 2758 2815 
Q 2500 3097 2075 3097 
Q 1594 3097 1305 2825 
Q 1016 2553 972 2059 
L 3022 2063 
z
" transform="scale(0.015625)"/>
       <path id="DejaVuSans-74" d="M 1172 4494 
L 1172 3500 
L 2356 3500 
L 2356 3053 
L 1172 3053 
L 1172 1153 
Q 1172 725 1289 603 
Q 1406 481 1766 481 
L 2356 481 
L 2356 0 
L 1766 0 
Q 1100 0 847 248 
Q 594 497 594 1153 
L 594 3053 
L 172 3053 
L 172 3500 
L 594 3500 
L 594 4494 
L 1172 4494 
z
" transform="scale(0.015625)"/>
       <path id="DejaVuSans-27" d="M 1147 4666 
L 1147 2931 
L 616 2931 
L 616 4666 
L 1147 4666 
z
" transform="scale(0.015625)"/>
      </defs>
      <use xlink:href="#DejaVuSans-76" transform="translate(0 0.015625)"/>
      <use xlink:href="#DejaVuSans-65" transform="translate(59.179688 0.015625)"/>
      <use xlink:href="#DejaVuSans-74" transform="translate(120.703125 0.015625)"/>
      <use xlink:href="#DejaVuSans-74" transform="translate(159.912109 0.015625)"/>
      <use xlink:href="#DejaVuSans-6f" transform="translate(199.121094 0.015625)"/>
      <use xlink:href="#DejaVuSans-72" transform="translate(260.302734 0.015625)"/>
      <use xlink:href="#DejaVuSans-65" transform="translate(301.416016 0.015625)"/>
      <use xlink:href="#DejaVuSans-20" transform="translate(362.939453 0.015625)"/>
      <use xlink:href="#DejaVuSans-64" transform="translate(394.726562 0.015625)"/>
      <use xlink:href="#DejaVuSans-27" transform="translate(458.203125 0.015625)"/>
      <use xlink:href="#DejaVuSans-6f" transform="translate(485.693359 0.015625)"/>
      <use xlink:href="#DejaVuSans-6e" transform="translate(546.875 0.015625)"/>
      <use xlink:href="#DejaVuSans-64" transform="translate(610.253906 0.015625)"/>
      <use xlink:href="#DejaVuSans-61" transform="translate(673.730469 0.015625)"/>
      <use xlink:href="#DejaVuSans-20" transform="translate(735.009766 0.015625)"/>
      <use xlink:href="#DejaVuSans-Oblique-71" transform="translate(766.796875 0.015625)"/>
     </g>
    </g>
   </g>
   <g id="matplotlib.axis_4">
    <g id="ytick_11">
     <g id="line2d_43">
      <path d="M 53.765625 523.8 
L 634.085625 523.8 
" clip-path="url(#p1aaa8781f0)" style="fill: none; stroke: #b0b0b0; stroke-opacity: 0.14; stroke-width: 0.8; stroke-linecap: square"/>
     </g>
     <g id="line2d_44">
      <g>
       <use xlink:href="#m0019ae293d" x="53.765625" y="523.8" style="stroke: #000000; stroke-width: 0.8"/>
      </g>
     </g>
     <g id="text_23">
      <!-- 0.00 -->
      <g transform="translate(24.5 527.599219) scale(0.1 -0.1)">
       <use xlink:href="#DejaVuSans-30"/>
       <use xlink:href="#DejaVuSans-2e" transform="translate(63.623047 0)"/>
       <use xlink:href="#DejaVuSans-30" transform="translate(95.410156 0)"/>
       <use xlink:href="#DejaVuSans-30" transform="translate(159.033203 0)"/>
      </g>
     </g>
    </g>
    <g id="ytick_12">
     <g id="line2d_45">
      <path d="M 53.765625 500.84 
L 634.085625 500.84 
" clip-path="url(#p1aaa8781f0)" style="fill: none; stroke: #b0b0b0; stroke-opacity: 0.14; stroke-width: 0.8; stroke-linecap: square"/>
     </g>
     <g id="line2d_46">
      <g>
       <use xlink:href="#m0019ae293d" x="53.765625" y="500.84" style="stroke: #000000; stroke-width: 0.8"/>
      </g>
     </g>
     <g id="text_24">
      <!-- 0.25 -->
      <g transform="translate(24.5 504.639219) scale(0.1 -0.1)">
       <use xlink:href="#DejaVuSans-30"/>
       <use xlink:href="#DejaVuSans-2e" transform="translate(63.623047 0)"/>
       <use xlink:href="#DejaVuSans-32" transform="translate(95.410156 0)"/>
       <use xlink:href="#DejaVuSans-35" transform="translate(159.033203 0)"/>
      </g>
     </g>
    </g>
    <g id="ytick_13">
     <g id="line2d_47">
      <path d="M 53.765625 477.88 
L 634.085625 477.88 
" clip-path="url(#p1aaa8781f0)" style="fill: none; stroke: #b0b0b0; stroke-opacity: 0.14; stroke-width: 0.8; stroke-linecap: square"/>
     </g>
     <g id="line2d_48">
      <g>
       <use xlink:href="#m0019ae293d" x="53.765625" y="477.88" style="stroke: #000000; stroke-width: 0.8"/>
      </g>
     </g>
     <g id="text_25">
      <!-- 0.50 -->
      <g transform="translate(24.5 481.679219) scale(0.1 -0.1)">
       <use xlink:href="#DejaVuSans-30"/>
       <use xlink:href="#DejaVuSans-2e" transform="translate(63.623047 0)"/>
       <use xlink:href="#DejaVuSans-35" transform="translate(95.410156 0)"/>
       <use xlink:href="#DejaVuSans-30" transform="translate(159.033203 0)"/>
      </g>
     </g>
    </g>
    <g id="ytick_14">
     <g id="line2d_49">
      <path d="M 53.765625 454.92 
L 634.085625 454.92 
" clip-path="url(#p1aaa8781f0)" style="fill: none; stroke: #b0b0b0; stroke-opacity: 0.14; stroke-width: 0.8; stroke-linecap: square"/>
     </g>
     <g id="line2d_50">
      <g>
       <use xlink:href="#m0019ae293d" x="53.765625" y="454.92" style="stroke: #000000; stroke-width: 0.8"/>
      </g>
     </g>
     <g id="text_26">
      <!-- 0.75 -->
      <g transform="translate(24.5 458.719219) scale(0.1 -0.1)">
       <use xlink:href="#DejaVuSans-30"/>
       <use xlink:href="#DejaVuSans-2e" transform="translate(63.623047 0)"/>
       <use xlink:href="#DejaVuSans-37" transform="translate(95.410156 0)"/>
       <use xlink:href="#DejaVuSans-35" transform="translate(159.033203 0)"/>
      </g>
     </g>
    </g>
    <g id="ytick_15">
     <g id="line2d_51">
      <path d="M 53.765625 431.96 
L 634.085625 431.96 
" clip-path="url(#p1aaa8781f0)" style="fill: none; stroke: #b0b0b0; stroke-opacity: 0.14; stroke-width: 0.8; stroke-linecap: square"/>
     </g>
     <g id="line2d_52">
      <g>
       <use xlink:href="#m0019ae293d" x="53.765625" y="431.96" style="stroke: #000000; stroke-width: 0.8"/>
      </g>
     </g>
     <g id="text_27">
      <!-- 1.00 -->
      <g transform="translate(24.5 435.759219) scale(0.1 -0.1)">
       <use xlink:href="#DejaVuSans-31"/>
       <use xlink:href="#DejaVuSans-2e" transform="translate(63.623047 0)"/>
       <use xlink:href="#DejaVuSans-30" transform="translate(95.410156 0)"/>
       <use xlink:href="#DejaVuSans-30" transform="translate(159.033203 0)"/>
      </g>
     </g>
    </g>
    <g id="ytick_16">
     <g id="line2d_53">
      <path d="M 53.765625 409 
L 634.085625 409 
" clip-path="url(#p1aaa8781f0)" style="fill: none; stroke: #b0b0b0; stroke-opacity: 0.14; stroke-width: 0.8; stroke-linecap: square"/>
     </g>
     <g id="line2d_54">
      <g>
       <use xlink:href="#m0019ae293d" x="53.765625" y="409" style="stroke: #000000; stroke-width: 0.8"/>
      </g>
     </g>
     <g id="text_28">
      <!-- 1.25 -->
      <g transform="translate(24.5 412.799219) scale(0.1 -0.1)">
       <use xlink:href="#DejaVuSans-31"/>
       <use xlink:href="#DejaVuSans-2e" transform="translate(63.623047 0)"/>
       <use xlink:href="#DejaVuSans-32" transform="translate(95.410156 0)"/>
       <use xlink:href="#DejaVuSans-35" transform="translate(159.033203 0)"/>
      </g>
     </g>
    </g>
    <g id="ytick_17">
     <g id="line2d_55">
      <path d="M 53.765625 386.04 
L 634.085625 386.04 
" clip-path="url(#p1aaa8781f0)" style="fill: none; stroke: #b0b0b0; stroke-opacity: 0.14; stroke-width: 0.8; stroke-linecap: square"/>
     </g>
     <g id="line2d_56">
      <g>
       <use xlink:href="#m0019ae293d" x="53.765625" y="386.04" style="stroke: #000000; stroke-width: 0.8"/>
      </g>
     </g>
     <g id="text_29">
      <!-- 1.50 -->
      <g transform="translate(24.5 389.839219) scale(0.1 -0.1)">
       <use xlink:href="#DejaVuSans-31"/>
       <use xlink:href="#DejaVuSans-2e" transform="translate(63.623047 0)"/>
       <use xlink:href="#DejaVuSans-35" transform="translate(95.410156 0)"/>
       <use xlink:href="#DejaVuSans-30" transform="translate(159.033203 0)"/>
      </g>
     </g>
    </g>
    <g id="ytick_18">
     <g id="line2d_57">
      <path d="M 53.765625 363.08 
L 634.085625 363.08 
" clip-path="url(#p1aaa8781f0)" style="fill: none; stroke: #b0b0b0; stroke-opacity: 0.14; stroke-width: 0.8; stroke-linecap: square"/>
     </g>
     <g id="line2d_58">
      <g>
       <use xlink:href="#m0019ae293d" x="53.765625" y="363.08" style="stroke: #000000; stroke-width: 0.8"/>
      </g>
     </g>
     <g id="text_30">
      <!-- 1.75 -->
      <g transform="translate(24.5 366.879219) scale(0.1 -0.1)">
       <use xlink:href="#DejaVuSans-31"/>
       <use xlink:href="#DejaVuSans-2e" transform="translate(63.623047 0)"/>
       <use xlink:href="#DejaVuSans-37" transform="translate(95.410156 0)"/>
       <use xlink:href="#DejaVuSans-35" transform="translate(159.033203 0)"/>
      </g>
     </g>
    </g>
    <g id="ytick_19">
     <g id="line2d_59">
      <path d="M 53.765625 340.12 
L 634.085625 340.12 
" clip-path="url(#p1aaa8781f0)" style="fill: none; stroke: #b0b0b0; stroke-opacity: 0.14; stroke-width: 0.8; stroke-linecap: square"/>
     </g>
     <g id="line2d_60">
      <g>
       <use xlink:href="#m0019ae293d" x="53.765625" y="340.12" style="stroke: #000000; stroke-width: 0.8"/>
      </g>
     </g>
     <g id="text_31">
      <!-- 2.00 -->
      <g transform="translate(24.5 343.919219) scale(0.1 -0.1)">
       <use xlink:href="#DejaVuSans-32"/>
       <use xlink:href="#DejaVuSans-2e" transform="translate(63.623047 0)"/>
       <use xlink:href="#DejaVuSans-30" transform="translate(95.410156 0)"/>
       <use xlink:href="#DejaVuSans-30" transform="translate(159.033203 0)"/>
      </g>
     </g>
    </g>
    <g id="ytick_20">
     <g id="line2d_61">
      <path d="M 53.765625 317.16 
L 634.085625 317.16 
" clip-path="url(#p1aaa8781f0)" style="fill: none; stroke: #b0b0b0; stroke-opacity: 0.14; stroke-width: 0.8; stroke-linecap: square"/>
     </g>
     <g id="line2d_62">
      <g>
       <use xlink:href="#m0019ae293d" x="53.765625" y="317.16" style="stroke: #000000; stroke-width: 0.8"/>
      </g>
     </g>
     <g id="text_32">
      <!-- 2.25 -->
      <g transform="translate(24.5 320.959219) scale(0.1 -0.1)">
       <use xlink:href="#DejaVuSans-32"/>
       <use xlink:href="#DejaVuSans-2e" transform="translate(63.623047 0)"/>
       <use xlink:href="#DejaVuSans-32" transform="translate(95.410156 0)"/>
       <use xlink:href="#DejaVuSans-35" transform="translate(159.033203 0)"/>
      </g>
     </g>
    </g>
    <g id="text_33">
     <!-- $\omega(q)/\sqrt{C/M}$ -->
     <g transform="translate(18.4 447.48) rotate(-90) scale(0.1 -0.1)">
      <use xlink:href="#DejaVuSans-Oblique-3c9" transform="translate(0 0.765625)"/>
      <use xlink:href="#DejaVuSans-28" transform="translate(83.740234 0.765625)"/>
      <use xlink:href="#DejaVuSans-Oblique-71" transform="translate(122.753906 0.765625)"/>
      <use xlink:href="#DejaVuSans-29" transform="translate(186.230469 0.765625)"/>
      <use xlink:href="#DejaVuSans-2f" transform="translate(225.244141 0.765625)"/>
      <use xlink:href="#STIXSizeOneSym-Regular-221a" transform="translate(258.935547 9.78125) scale(0.621267)"/>
      <use xlink:href="#DejaVuSans-Oblique-43" transform="translate(337.101669 0.53125)"/>
      <use xlink:href="#DejaVuSans-2f" transform="translate(406.925888 0.53125)"/>
      <use xlink:href="#DejaVuSans-Oblique-4d" transform="translate(440.617294 0.53125)"/>
      <path d="M 324.601669 99.5 
L 324.601669 105.75 
L 539.396591 105.75 
L 539.396591 99.5 
L 324.601669 99.5 
z
"/>
     </g>
    </g>
   </g>
   <g id="line2d_63">
    <path d="M 91.612582 340.12 
L 97.225775 340.232142 
L 102.838968 340.568431 
L 108.452162 341.128456 
L 114.065355 341.911534 
L 119.678549 342.916708 
L 125.291742 344.14275 
L 130.904935 345.588165 
L 136.518129 347.251187 
L 142.131322 349.129785 
L 148.305835 351.442488 
L 154.480348 354.00984 
L 160.65486 356.828048 
L 166.829373 359.892949 
L 173.003886 363.200014 
L 179.178399 366.744357 
L 185.914231 370.875365 
L 192.650063 375.275252 
L 199.385895 379.936282 
L 206.683046 385.270908 
L 213.980198 390.89138 
L 221.277349 396.786102 
L 229.13582 403.427005 
L 236.994291 410.355965 
L 245.414081 418.080655 
L 254.39519 426.639891 
L 263.3763 435.502791 
L 272.918728 445.221351 
L 283.583796 456.409727 
L 295.371502 469.119286 
L 308.281847 483.37447 
L 323.998788 501.071757 
L 343.644965 523.479061 
L 344.206285 523.479061 
L 372.272252 491.553182 
L 387.427874 474.660395 
L 399.776899 461.212363 
L 411.003286 449.305682 
L 421.107034 438.899042 
L 430.649463 429.378211 
L 439.630573 420.72116 
L 448.050363 412.897267 
L 456.470153 405.378027 
L 464.328624 398.653169 
L 472.187094 392.227793 
L 479.484246 386.542982 
L 486.781397 381.141392 
L 493.517229 376.41634 
L 500.253061 371.950423 
L 506.988893 367.751496 
L 513.724725 363.82694 
L 519.899238 360.476359 
L 526.073751 357.367082 
L 532.248264 354.5037 
L 538.422776 351.890444 
L 544.597289 349.531176 
L 550.771802 347.429382 
L 556.384995 345.744707 
L 561.998189 344.277447 
L 567.611382 343.029395 
L 573.224576 342.002075 
L 578.837769 341.19674 
L 584.450962 340.614374 
L 590.064156 340.255689 
L 595.677349 340.121122 
L 596.238668 340.12 
L 596.238668 340.12 
" clip-path="url(#p1aaa8781f0)" style="fill: none; stroke: #1f77b4; stroke-width: 2.3; stroke-linecap: square"/>
   </g>
   <g id="line2d_64">
    <path d="M 91.612582 523.8 
L 91.612582 317.16 
" clip-path="url(#p1aaa8781f0)" style="fill: none; stroke-dasharray: 0.75,1.2375; stroke-dashoffset: 0; stroke: #1f77b4; stroke-width: 0.75"/>
   </g>
   <g id="line2d_65">
    <path d="M 596.238668 523.8 
L 596.238668 317.16 
" clip-path="url(#p1aaa8781f0)" style="fill: none; stroke-dasharray: 0.75,1.2375; stroke-dashoffset: 0; stroke: #1f77b4; stroke-width: 0.75"/>
   </g>
   <g id="line2d_66">
    <path d="M 53.765625 340.12 
L 634.085625 340.12 
" clip-path="url(#p1aaa8781f0)" style="fill: none; stroke-dasharray: 3.145,1.36; stroke-dashoffset: 0; stroke: #1f77b4; stroke-width: 0.85"/>
   </g>
   <g id="patch_9">
    <path d="M 53.765625 523.8 
L 53.765625 317.16 
" style="fill: none; stroke: #000000; stroke-width: 0.8; stroke-linejoin: miter; stroke-linecap: square"/>
   </g>
   <g id="patch_10">
    <path d="M 634.085625 523.8 
L 634.085625 317.16 
" style="fill: none; stroke: #000000; stroke-width: 0.8; stroke-linejoin: miter; stroke-linecap: square"/>
   </g>
   <g id="patch_11">
    <path d="M 53.765625 523.8 
L 634.085625 523.8 
" style="fill: none; stroke: #000000; stroke-width: 0.8; stroke-linejoin: miter; stroke-linecap: square"/>
   </g>
   <g id="patch_12">
    <path d="M 53.765625 317.16 
L 634.085625 317.16 
" style="fill: none; stroke: #000000; stroke-width: 0.8; stroke-linejoin: miter; stroke-linecap: square"/>
   </g>
   <g id="text_34">
    <!-- $2\sqrt{C/M}$ -->
    <g transform="translate(558.417408 335.528) scale(0.095 -0.095)">
     <use xlink:href="#DejaVuSans-32" transform="translate(0 0.765625)"/>
     <use xlink:href="#STIXSizeOneSym-Regular-221a" transform="translate(63.623047 9.78125) scale(0.621267)"/>
     <use xlink:href="#DejaVuSans-Oblique-43" transform="translate(141.789169 0.53125)"/>
     <use xlink:href="#DejaVuSans-2f" transform="translate(211.613388 0.53125)"/>
     <use xlink:href="#DejaVuSans-Oblique-4d" transform="translate(245.304794 0.53125)"/>
     <path d="M 129.289169 99.5 
L 129.289169 105.75 
L 344.084091 105.75 
L 344.084091 99.5 
L 129.289169 99.5 
z
"/>
    </g>
   </g>
   <g id="text_35">
    <!-- schema a zona ridotta -->
    <g transform="translate(162.260234 360.3248) scale(0.092 -0.092)">
     <defs>
      <path id="DejaVuSans-73" d="M 2834 3397 
L 2834 2853 
Q 2591 2978 2328 3040 
Q 2066 3103 1784 3103 
Q 1356 3103 1142 2972 
Q 928 2841 928 2578 
Q 928 2378 1081 2264 
Q 1234 2150 1697 2047 
L 1894 2003 
Q 2506 1872 2764 1633 
Q 3022 1394 3022 966 
Q 3022 478 2636 193 
Q 2250 -91 1575 -91 
Q 1294 -91 989 -36 
Q 684 19 347 128 
L 347 722 
Q 666 556 975 473 
Q 1284 391 1588 391 
Q 1994 391 2212 530 
Q 2431 669 2431 922 
Q 2431 1156 2273 1281 
Q 2116 1406 1581 1522 
L 1381 1569 
Q 847 1681 609 1914 
Q 372 2147 372 2553 
Q 372 3047 722 3315 
Q 1072 3584 1716 3584 
Q 2034 3584 2315 3537 
Q 2597 3491 2834 3397 
z
" transform="scale(0.015625)"/>
      <path id="DejaVuSans-63" d="M 3122 3366 
L 3122 2828 
Q 2878 2963 2633 3030 
Q 2388 3097 2138 3097 
Q 1578 3097 1268 2742 
Q 959 2388 959 1747 
Q 959 1106 1268 751 
Q 1578 397 2138 397 
Q 2388 397 2633 464 
Q 2878 531 3122 666 
L 3122 134 
Q 2881 22 2623 -34 
Q 2366 -91 2075 -91 
Q 1284 -91 818 406 
Q 353 903 353 1747 
Q 353 2603 823 3093 
Q 1294 3584 2113 3584 
Q 2378 3584 2631 3529 
Q 2884 3475 3122 3366 
z
" transform="scale(0.015625)"/>
      <path id="DejaVuSans-68" d="M 3513 2113 
L 3513 0 
L 2938 0 
L 2938 2094 
Q 2938 2591 2744 2837 
Q 2550 3084 2163 3084 
Q 1697 3084 1428 2787 
Q 1159 2491 1159 1978 
L 1159 0 
L 581 0 
L 581 4863 
L 1159 4863 
L 1159 2956 
Q 1366 3272 1645 3428 
Q 1925 3584 2291 3584 
Q 2894 3584 3203 3211 
Q 3513 2838 3513 2113 
z
" transform="scale(0.015625)"/>
     </defs>
     <use xlink:href="#DejaVuSans-73"/>
     <use xlink:href="#DejaVuSans-63" transform="translate(52.099609 0)"/>
     <use xlink:href="#DejaVuSans-68" transform="translate(107.080078 0)"/>
     <use xlink:href="#DejaVuSans-65" transform="translate(170.458984 0)"/>
     <use xlink:href="#DejaVuSans-6d" transform="translate(231.982422 0)"/>
     <use xlink:href="#DejaVuSans-61" transform="translate(329.394531 0)"/>
     <use xlink:href="#DejaVuSans-20" transform="translate(390.673828 0)"/>
     <use xlink:href="#DejaVuSans-61" transform="translate(422.460938 0)"/>
     <use xlink:href="#DejaVuSans-20" transform="translate(483.740234 0)"/>
     <use xlink:href="#DejaVuSans-7a" transform="translate(515.527344 0)"/>
     <use xlink:href="#DejaVuSans-6f" transform="translate(568.017578 0)"/>
     <use xlink:href="#DejaVuSans-6e" transform="translate(629.199219 0)"/>
     <use xlink:href="#DejaVuSans-61" transform="translate(692.578125 0)"/>
     <use xlink:href="#DejaVuSans-20" transform="translate(753.857422 0)"/>
     <use xlink:href="#DejaVuSans-72" transform="translate(785.644531 0)"/>
     <use xlink:href="#DejaVuSans-69" transform="translate(826.757812 0)"/>
     <use xlink:href="#DejaVuSans-64" transform="translate(854.541016 0)"/>
     <use xlink:href="#DejaVuSans-6f" transform="translate(918.017578 0)"/>
     <use xlink:href="#DejaVuSans-74" transform="translate(979.199219 0)"/>
     <use xlink:href="#DejaVuSans-74" transform="translate(1018.408203 0)"/>
     <use xlink:href="#DejaVuSans-61" transform="translate(1057.617188 0)"/>
    </g>
   </g>
   <g id="text_36">
    <!-- prima zona di Brillouin -->
    <g transform="translate(270.528672 311.16) scale(0.115 -0.115)">
     <defs>
      <path id="DejaVuSans-Bold-70" d="M 1656 506 
L 1656 -1331 
L 538 -1331 
L 538 3500 
L 1656 3500 
L 1656 2988 
Q 1888 3294 2169 3439 
Q 2450 3584 2816 3584 
Q 3463 3584 3878 3070 
Q 4294 2556 4294 1747 
Q 4294 938 3878 423 
Q 3463 -91 2816 -91 
Q 2450 -91 2169 54 
Q 1888 200 1656 506 
z
M 2400 2772 
Q 2041 2772 1848 2508 
Q 1656 2244 1656 1747 
Q 1656 1250 1848 986 
Q 2041 722 2400 722 
Q 2759 722 2948 984 
Q 3138 1247 3138 1747 
Q 3138 2247 2948 2509 
Q 2759 2772 2400 2772 
z
" transform="scale(0.015625)"/>
      <path id="DejaVuSans-Bold-72" d="M 3138 2547 
Q 2991 2616 2845 2648 
Q 2700 2681 2553 2681 
Q 2122 2681 1889 2404 
Q 1656 2128 1656 1613 
L 1656 0 
L 538 0 
L 538 3500 
L 1656 3500 
L 1656 2925 
Q 1872 3269 2151 3426 
Q 2431 3584 2822 3584 
Q 2878 3584 2943 3579 
Q 3009 3575 3134 3559 
L 3138 2547 
z
" transform="scale(0.015625)"/>
      <path id="DejaVuSans-Bold-69" d="M 538 3500 
L 1656 3500 
L 1656 0 
L 538 0 
L 538 3500 
z
M 538 4863 
L 1656 4863 
L 1656 3950 
L 538 3950 
L 538 4863 
z
" transform="scale(0.015625)"/>
      <path id="DejaVuSans-Bold-64" d="M 2919 2988 
L 2919 4863 
L 4044 4863 
L 4044 0 
L 2919 0 
L 2919 506 
Q 2688 197 2409 53 
Q 2131 -91 1766 -91 
Q 1119 -91 703 423 
Q 288 938 288 1747 
Q 288 2556 703 3070 
Q 1119 3584 1766 3584 
Q 2128 3584 2408 3439 
Q 2688 3294 2919 2988 
z
M 2181 722 
Q 2541 722 2730 984 
Q 2919 1247 2919 1747 
Q 2919 2247 2730 2509 
Q 2541 2772 2181 2772 
Q 1825 2772 1636 2509 
Q 1447 2247 1447 1747 
Q 1447 1247 1636 984 
Q 1825 722 2181 722 
z
" transform="scale(0.015625)"/>
      <path id="DejaVuSans-Bold-42" d="M 2456 2859 
Q 2741 2859 2887 2984 
Q 3034 3109 3034 3353 
Q 3034 3594 2887 3720 
Q 2741 3847 2456 3847 
L 1791 3847 
L 1791 2859 
L 2456 2859 
z
M 2497 819 
Q 2859 819 3042 972 
Q 3225 1125 3225 1434 
Q 3225 1738 3044 1889 
Q 2863 2041 2497 2041 
L 1791 2041 
L 1791 819 
L 2497 819 
z
M 3616 2497 
Q 4003 2384 4215 2081 
Q 4428 1778 4428 1338 
Q 4428 663 3972 331 
Q 3516 0 2584 0 
L 588 0 
L 588 4666 
L 2394 4666 
Q 3366 4666 3802 4372 
Q 4238 4078 4238 3431 
Q 4238 3091 4078 2852 
Q 3919 2613 3616 2497 
z
" transform="scale(0.015625)"/>
      <path id="DejaVuSans-Bold-6c" d="M 538 4863 
L 1656 4863 
L 1656 0 
L 538 0 
L 538 4863 
z
" transform="scale(0.015625)"/>
      <path id="DejaVuSans-Bold-75" d="M 500 1363 
L 500 3500 
L 1625 3500 
L 1625 3150 
Q 1625 2866 1622 2436 
Q 1619 2006 1619 1863 
Q 1619 1441 1641 1255 
Q 1663 1069 1716 984 
Q 1784 875 1895 815 
Q 2006 756 2150 756 
Q 2500 756 2700 1025 
Q 2900 1294 2900 1772 
L 2900 3500 
L 4019 3500 
L 4019 0 
L 2900 0 
L 2900 506 
Q 2647 200 2364 54 
Q 2081 -91 1741 -91 
Q 1134 -91 817 281 
Q 500 653 500 1363 
z
" transform="scale(0.015625)"/>
     </defs>
     <use xlink:href="#DejaVuSans-Bold-70"/>
     <use xlink:href="#DejaVuSans-Bold-72" transform="translate(71.582031 0)"/>
     <use xlink:href="#DejaVuSans-Bold-69" transform="translate(120.898438 0)"/>
     <use xlink:href="#DejaVuSans-Bold-6d" transform="translate(155.175781 0)"/>
     <use xlink:href="#DejaVuSans-Bold-61" transform="translate(259.375 0)"/>
     <use xlink:href="#DejaVuSans-Bold-20" transform="translate(326.855469 0)"/>
     <use xlink:href="#DejaVuSans-Bold-7a" transform="translate(361.669922 0)"/>
     <use xlink:href="#DejaVuSans-Bold-6f" transform="translate(419.873047 0)"/>
     <use xlink:href="#DejaVuSans-Bold-6e" transform="translate(488.574219 0)"/>
     <use xlink:href="#DejaVuSans-Bold-61" transform="translate(559.765625 0)"/>
     <use xlink:href="#DejaVuSans-Bold-20" transform="translate(627.246094 0)"/>
     <use xlink:href="#DejaVuSans-Bold-64" transform="translate(662.060547 0)"/>
     <use xlink:href="#DejaVuSans-Bold-69" transform="translate(733.642578 0)"/>
     <use xlink:href="#DejaVuSans-Bold-20" transform="translate(767.919922 0)"/>
     <use xlink:href="#DejaVuSans-Bold-42" transform="translate(802.734375 0)"/>
     <use xlink:href="#DejaVuSans-Bold-72" transform="translate(878.955078 0)"/>
     <use xlink:href="#DejaVuSans-Bold-69" transform="translate(928.271484 0)"/>
     <use xlink:href="#DejaVuSans-Bold-6c" transform="translate(962.548828 0)"/>
     <use xlink:href="#DejaVuSans-Bold-6c" transform="translate(996.826172 0)"/>
     <use xlink:href="#DejaVuSans-Bold-6f" transform="translate(1031.103516 0)"/>
     <use xlink:href="#DejaVuSans-Bold-75" transform="translate(1099.804688 0)"/>
     <use xlink:href="#DejaVuSans-Bold-69" transform="translate(1170.996094 0)"/>
     <use xlink:href="#DejaVuSans-Bold-6e" transform="translate(1205.273438 0)"/>
    </g>
   </g>
  </g>
  <g id="text_37">
   <!-- Dispersione longitudinale di una catena monoatomica -->
   <g transform="translate(106.147266 18.597656) scale(0.15 -0.15)">
    <defs>
     <path id="DejaVuSans-Bold-44" d="M 1791 3756 
L 1791 909 
L 2222 909 
Q 2959 909 3348 1275 
Q 3738 1641 3738 2338 
Q 3738 3031 3350 3393 
Q 2963 3756 2222 3756 
L 1791 3756 
z
M 588 4666 
L 1856 4666 
Q 2919 4666 3439 4514 
Q 3959 4363 4331 4000 
Q 4659 3684 4818 3271 
Q 4978 2859 4978 2338 
Q 4978 1809 4818 1395 
Q 4659 981 4331 666 
Q 3956 303 3431 151 
Q 2906 0 1856 0 
L 588 0 
L 588 4666 
z
" transform="scale(0.015625)"/>
     <path id="DejaVuSans-Bold-67" d="M 2919 594 
Q 2688 288 2409 144 
Q 2131 0 1766 0 
Q 1125 0 706 504 
Q 288 1009 288 1791 
Q 288 2575 706 3076 
Q 1125 3578 1766 3578 
Q 2131 3578 2409 3434 
Q 2688 3291 2919 2981 
L 2919 3500 
L 4044 3500 
L 4044 353 
Q 4044 -491 3511 -936 
Q 2978 -1381 1966 -1381 
Q 1638 -1381 1331 -1331 
Q 1025 -1281 716 -1178 
L 716 -306 
Q 1009 -475 1290 -558 
Q 1572 -641 1856 -641 
Q 2406 -641 2662 -400 
Q 2919 -159 2919 353 
L 2919 594 
z
M 2181 2772 
Q 1834 2772 1640 2515 
Q 1447 2259 1447 1791 
Q 1447 1309 1634 1061 
Q 1822 813 2181 813 
Q 2531 813 2725 1069 
Q 2919 1325 2919 1791 
Q 2919 2259 2725 2515 
Q 2531 2772 2181 2772 
z
" transform="scale(0.015625)"/>
    </defs>
    <use xlink:href="#DejaVuSans-Bold-44"/>
    <use xlink:href="#DejaVuSans-Bold-69" transform="translate(83.007812 0)"/>
    <use xlink:href="#DejaVuSans-Bold-73" transform="translate(117.285156 0)"/>
    <use xlink:href="#DejaVuSans-Bold-70" transform="translate(176.806641 0)"/>
    <use xlink:href="#DejaVuSans-Bold-65" transform="translate(248.388672 0)"/>
    <use xlink:href="#DejaVuSans-Bold-72" transform="translate(316.210938 0)"/>
    <use xlink:href="#DejaVuSans-Bold-73" transform="translate(365.527344 0)"/>
    <use xlink:href="#DejaVuSans-Bold-69" transform="translate(425.048828 0)"/>
    <use xlink:href="#DejaVuSans-Bold-6f" transform="translate(459.326172 0)"/>
    <use xlink:href="#DejaVuSans-Bold-6e" transform="translate(528.027344 0)"/>
    <use xlink:href="#DejaVuSans-Bold-65" transform="translate(599.21875 0)"/>
    <use xlink:href="#DejaVuSans-Bold-20" transform="translate(667.041016 0)"/>
    <use xlink:href="#DejaVuSans-Bold-6c" transform="translate(701.855469 0)"/>
    <use xlink:href="#DejaVuSans-Bold-6f" transform="translate(736.132812 0)"/>
    <use xlink:href="#DejaVuSans-Bold-6e" transform="translate(804.833984 0)"/>
    <use xlink:href="#DejaVuSans-Bold-67" transform="translate(876.025391 0)"/>
    <use xlink:href="#DejaVuSans-Bold-69" transform="translate(947.607422 0)"/>
    <use xlink:href="#DejaVuSans-Bold-74" transform="translate(981.884766 0)"/>
    <use xlink:href="#DejaVuSans-Bold-75" transform="translate(1029.6875 0)"/>
    <use xlink:href="#DejaVuSans-Bold-64" transform="translate(1100.878906 0)"/>
    <use xlink:href="#DejaVuSans-Bold-69" transform="translate(1172.460938 0)"/>
    <use xlink:href="#DejaVuSans-Bold-6e" transform="translate(1206.738281 0)"/>
    <use xlink:href="#DejaVuSans-Bold-61" transform="translate(1277.929688 0)"/>
    <use xlink:href="#DejaVuSans-Bold-6c" transform="translate(1345.410156 0)"/>
    <use xlink:href="#DejaVuSans-Bold-65" transform="translate(1379.6875 0)"/>
    <use xlink:href="#DejaVuSans-Bold-20" transform="translate(1447.509766 0)"/>
    <use xlink:href="#DejaVuSans-Bold-64" transform="translate(1482.324219 0)"/>
    <use xlink:href="#DejaVuSans-Bold-69" transform="translate(1553.90625 0)"/>
    <use xlink:href="#DejaVuSans-Bold-20" transform="translate(1588.183594 0)"/>
    <use xlink:href="#DejaVuSans-Bold-75" transform="translate(1622.998047 0)"/>
    <use xlink:href="#DejaVuSans-Bold-6e" transform="translate(1694.189453 0)"/>
    <use xlink:href="#DejaVuSans-Bold-61" transform="translate(1765.380859 0)"/>
    <use xlink:href="#DejaVuSans-Bold-20" transform="translate(1832.861328 0)"/>
    <use xlink:href="#DejaVuSans-Bold-63" transform="translate(1867.675781 0)"/>
    <use xlink:href="#DejaVuSans-Bold-61" transform="translate(1926.953125 0)"/>
    <use xlink:href="#DejaVuSans-Bold-74" transform="translate(1994.433594 0)"/>
    <use xlink:href="#DejaVuSans-Bold-65" transform="translate(2042.236328 0)"/>
    <use xlink:href="#DejaVuSans-Bold-6e" transform="translate(2110.058594 0)"/>
    <use xlink:href="#DejaVuSans-Bold-61" transform="translate(2181.25 0)"/>
    <use xlink:href="#DejaVuSans-Bold-20" transform="translate(2248.730469 0)"/>
    <use xlink:href="#DejaVuSans-Bold-6d" transform="translate(2283.544922 0)"/>
    <use xlink:href="#DejaVuSans-Bold-6f" transform="translate(2387.744141 0)"/>
    <use xlink:href="#DejaVuSans-Bold-6e" transform="translate(2456.445312 0)"/>
    <use xlink:href="#DejaVuSans-Bold-6f" transform="translate(2527.636719 0)"/>
    <use xlink:href="#DejaVuSans-Bold-61" transform="translate(2596.337891 0)"/>
    <use xlink:href="#DejaVuSans-Bold-74" transform="translate(2663.818359 0)"/>
    <use xlink:href="#DejaVuSans-Bold-6f" transform="translate(2711.621094 0)"/>
    <use xlink:href="#DejaVuSans-Bold-6d" transform="translate(2780.322266 0)"/>
    <use xlink:href="#DejaVuSans-Bold-69" transform="translate(2884.521484 0)"/>
    <use xlink:href="#DejaVuSans-Bold-63" transform="translate(2918.798828 0)"/>
    <use xlink:href="#DejaVuSans-Bold-61" transform="translate(2978.076172 0)"/>
   </g>
  </g>
  <g id="text_38">
   <!-- La relazione $\omega(q)=2\sqrt{C/M}\,|\sin(qa/2)|$ è periodica nello spazio reciproco e può essere ripiegata nella prima zona di Brillouin. -->
   <g transform="translate(25.565625 578.1168) scale(0.1 -0.1)">
    <defs>
     <path id="DejaVuSans-4c" d="M 628 4666 
L 1259 4666 
L 1259 531 
L 3531 531 
L 3531 0 
L 628 0 
L 628 4666 
z
" transform="scale(0.015625)"/>
     <path id="DejaVuSans-3d" d="M 678 2906 
L 4684 2906 
L 4684 2381 
L 678 2381 
L 678 2906 
z
M 678 1631 
L 4684 1631 
L 4684 1100 
L 678 1100 
L 678 1631 
z
" transform="scale(0.015625)"/>
     <path id="DejaVuSans-7c" d="M 1344 4891 
L 1344 -1509 
L 813 -1509 
L 813 4891 
L 1344 4891 
z
" transform="scale(0.015625)"/>
     <path id="DejaVuSans-e8" d="M 3597 1894 
L 3597 1613 
L 953 1613 
Q 991 1019 1311 708 
Q 1631 397 2203 397 
Q 2534 397 2845 478 
Q 3156 559 3463 722 
L 3463 178 
Q 3153 47 2828 -22 
Q 2503 -91 2169 -91 
Q 1331 -91 842 396 
Q 353 884 353 1716 
Q 353 2575 817 3079 
Q 1281 3584 2069 3584 
Q 2775 3584 3186 3129 
Q 3597 2675 3597 1894 
z
M 3022 2063 
Q 3016 2534 2758 2815 
Q 2500 3097 2075 3097 
Q 1594 3097 1305 2825 
Q 1016 2553 972 2059 
L 3022 2063 
z
M 1579 5119 
L 2460 3950 
L 1982 3950 
L 963 5119 
L 1579 5119 
z
" transform="scale(0.015625)"/>
     <path id="DejaVuSans-f2" d="M 1959 3097 
Q 1497 3097 1228 2736 
Q 959 2375 959 1747 
Q 959 1119 1226 758 
Q 1494 397 1959 397 
Q 2419 397 2687 759 
Q 2956 1122 2956 1747 
Q 2956 2369 2687 2733 
Q 2419 3097 1959 3097 
z
M 1959 3584 
Q 2709 3584 3137 3096 
Q 3566 2609 3566 1747 
Q 3566 888 3137 398 
Q 2709 -91 1959 -91 
Q 1206 -91 779 398 
Q 353 888 353 1747 
Q 353 2609 779 3096 
Q 1206 3584 1959 3584 
z
M 1507 5119 
L 2388 3950 
L 1910 3950 
L 891 5119 
L 1507 5119 
z
" transform="scale(0.015625)"/>
     <path id="DejaVuSans-67" d="M 2906 1791 
Q 2906 2416 2648 2759 
Q 2391 3103 1925 3103 
Q 1463 3103 1205 2759 
Q 947 2416 947 1791 
Q 947 1169 1205 825 
Q 1463 481 1925 481 
Q 2391 481 2648 825 
Q 2906 1169 2906 1791 
z
M 3481 434 
Q 3481 -459 3084 -895 
Q 2688 -1331 1869 -1331 
Q 1566 -1331 1297 -1286 
Q 1028 -1241 775 -1147 
L 775 -588 
Q 1028 -725 1275 -790 
Q 1522 -856 1778 -856 
Q 2344 -856 2625 -561 
Q 2906 -266 2906 331 
L 2906 616 
Q 2728 306 2450 153 
Q 2172 0 1784 0 
Q 1141 0 747 490 
Q 353 981 353 1791 
Q 353 2603 747 3093 
Q 1141 3584 1784 3584 
Q 2172 3584 2450 3431 
Q 2728 3278 2906 2969 
L 2906 3500 
L 3481 3500 
L 3481 434 
z
" transform="scale(0.015625)"/>
    </defs>
    <use xlink:href="#DejaVuSans-4c" transform="translate(0 0.765625)"/>
    <use xlink:href="#DejaVuSans-61" transform="translate(55.712891 0.765625)"/>
    <use xlink:href="#DejaVuSans-20" transform="translate(116.992188 0.765625)"/>
    <use xlink:href="#DejaVuSans-72" transform="translate(148.779297 0.765625)"/>
    <use xlink:href="#DejaVuSans-65" transform="translate(189.892578 0.765625)"/>
    <use xlink:href="#DejaVuSans-6c" transform="translate(251.416016 0.765625)"/>
    <use xlink:href="#DejaVuSans-61" transform="translate(279.199219 0.765625)"/>
    <use xlink:href="#DejaVuSans-7a" transform="translate(340.478516 0.765625)"/>
    <use xlink:href="#DejaVuSans-69" transform="translate(392.96875 0.765625)"/>
    <use xlink:href="#DejaVuSans-6f" transform="translate(420.751953 0.765625)"/>
    <use xlink:href="#DejaVuSans-6e" transform="translate(481.933594 0.765625)"/>
    <use xlink:href="#DejaVuSans-65" transform="translate(545.3125 0.765625)"/>
    <use xlink:href="#DejaVuSans-20" transform="translate(606.835938 0.765625)"/>
    <use xlink:href="#DejaVuSans-Oblique-3c9" transform="translate(638.623047 0.765625)"/>
    <use xlink:href="#DejaVuSans-28" transform="translate(722.363281 0.765625)"/>
    <use xlink:href="#DejaVuSans-Oblique-71" transform="translate(761.376953 0.765625)"/>
    <use xlink:href="#DejaVuSans-29" transform="translate(824.853516 0.765625)"/>
    <use xlink:href="#DejaVuSans-3d" transform="translate(883.349609 0.765625)"/>
    <use xlink:href="#DejaVuSans-32" transform="translate(986.621094 0.765625)"/>
    <use xlink:href="#STIXSizeOneSym-Regular-221a" transform="translate(1050.244141 9.78125) scale(0.621267)"/>
    <use xlink:href="#DejaVuSans-Oblique-43" transform="translate(1128.410263 0.53125)"/>
    <use xlink:href="#DejaVuSans-2f" transform="translate(1198.234482 0.53125)"/>
    <use xlink:href="#DejaVuSans-Oblique-4d" transform="translate(1231.925888 0.53125)"/>
    <use xlink:href="#DejaVuSans-7c" transform="translate(1346.940861 0.765625)"/>
    <use xlink:href="#DejaVuSans-73" transform="translate(1380.632267 0.765625)"/>
    <use xlink:href="#DejaVuSans-69" transform="translate(1432.731877 0.765625)"/>
    <use xlink:href="#DejaVuSans-6e" transform="translate(1460.51508 0.765625)"/>
    <use xlink:href="#DejaVuSans-28" transform="translate(1523.893986 0.765625)"/>
    <use xlink:href="#DejaVuSans-Oblique-71" transform="translate(1562.907658 0.765625)"/>
    <use xlink:href="#DejaVuSans-Oblique-61" transform="translate(1626.384221 0.765625)"/>
    <use xlink:href="#DejaVuSans-2f" transform="translate(1687.663517 0.765625)"/>
    <use xlink:href="#DejaVuSans-32" transform="translate(1717.729924 0.765625)"/>
    <use xlink:href="#DejaVuSans-29" transform="translate(1781.352971 0.765625)"/>
    <use xlink:href="#DejaVuSans-7c" transform="translate(1820.366642 0.765625)"/>
    <use xlink:href="#DejaVuSans-20" transform="translate(1854.058049 0.765625)"/>
    <use xlink:href="#DejaVuSans-e8" transform="translate(1885.845158 0.765625)"/>
    <use xlink:href="#DejaVuSans-20" transform="translate(1947.368596 0.765625)"/>
    <use xlink:href="#DejaVuSans-70" transform="translate(1979.155705 0.765625)"/>
    <use xlink:href="#DejaVuSans-65" transform="translate(2042.632267 0.765625)"/>
    <use xlink:href="#DejaVuSans-72" transform="translate(2104.155705 0.765625)"/>
    <use xlink:href="#DejaVuSans-69" transform="translate(2145.268986 0.765625)"/>
    <use xlink:href="#DejaVuSans-6f" transform="translate(2173.052189 0.765625)"/>
    <use xlink:href="#DejaVuSans-64" transform="translate(2234.23383 0.765625)"/>
    <use xlink:href="#DejaVuSans-69" transform="translate(2297.710392 0.765625)"/>
    <use xlink:href="#DejaVuSans-63" transform="translate(2325.493596 0.765625)"/>
    <use xlink:href="#DejaVuSans-61" transform="translate(2380.474064 0.765625)"/>
    <use xlink:href="#DejaVuSans-20" transform="translate(2441.753361 0.765625)"/>
    <use xlink:href="#DejaVuSans-6e" transform="translate(2473.540471 0.765625)"/>
    <use xlink:href="#DejaVuSans-65" transform="translate(2536.919377 0.765625)"/>
    <use xlink:href="#DejaVuSans-6c" transform="translate(2598.442814 0.765625)"/>
    <use xlink:href="#DejaVuSans-6c" transform="translate(2626.226017 0.765625)"/>
    <use xlink:href="#DejaVuSans-6f" transform="translate(2654.009221 0.765625)"/>
    <use xlink:href="#DejaVuSans-20" transform="translate(2715.190861 0.765625)"/>
    <use xlink:href="#DejaVuSans-73" transform="translate(2746.977971 0.765625)"/>
    <use xlink:href="#DejaVuSans-70" transform="translate(2799.07758 0.765625)"/>
    <use xlink:href="#DejaVuSans-61" transform="translate(2862.554142 0.765625)"/>
    <use xlink:href="#DejaVuSans-7a" transform="translate(2923.833439 0.765625)"/>
    <use xlink:href="#DejaVuSans-69" transform="translate(2976.323674 0.765625)"/>
    <use xlink:href="#DejaVuSans-6f" transform="translate(3004.106877 0.765625)"/>
    <use xlink:href="#DejaVuSans-20" transform="translate(3065.288517 0.765625)"/>
    <use xlink:href="#DejaVuSans-72" transform="translate(3097.075627 0.765625)"/>
    <use xlink:href="#DejaVuSans-65" transform="translate(3138.188908 0.765625)"/>
    <use xlink:href="#DejaVuSans-63" transform="translate(3199.712346 0.765625)"/>
    <use xlink:href="#DejaVuSans-69" transform="translate(3254.692814 0.765625)"/>
    <use xlink:href="#DejaVuSans-70" transform="translate(3282.476017 0.765625)"/>
    <use xlink:href="#DejaVuSans-72" transform="translate(3345.95258 0.765625)"/>
    <use xlink:href="#DejaVuSans-6f" transform="translate(3387.065861 0.765625)"/>
    <use xlink:href="#DejaVuSans-63" transform="translate(3448.247502 0.765625)"/>
    <use xlink:href="#DejaVuSans-6f" transform="translate(3503.227971 0.765625)"/>
    <use xlink:href="#DejaVuSans-20" transform="translate(3564.409611 0.765625)"/>
    <use xlink:href="#DejaVuSans-65" transform="translate(3596.196721 0.765625)"/>
    <use xlink:href="#DejaVuSans-20" transform="translate(3657.720158 0.765625)"/>
    <use xlink:href="#DejaVuSans-70" transform="translate(3689.507267 0.765625)"/>
    <use xlink:href="#DejaVuSans-75" transform="translate(3752.98383 0.765625)"/>
    <use xlink:href="#DejaVuSans-f2" transform="translate(3816.362736 0.765625)"/>
    <use xlink:href="#DejaVuSans-20" transform="translate(3877.544377 0.765625)"/>
    <use xlink:href="#DejaVuSans-65" transform="translate(3909.331486 0.765625)"/>
    <use xlink:href="#DejaVuSans-73" transform="translate(3970.854924 0.765625)"/>
    <use xlink:href="#DejaVuSans-73" transform="translate(4022.954533 0.765625)"/>
    <use xlink:href="#DejaVuSans-65" transform="translate(4075.054142 0.765625)"/>
    <use xlink:href="#DejaVuSans-72" transform="translate(4136.57758 0.765625)"/>
    <use xlink:href="#DejaVuSans-65" transform="translate(4177.690861 0.765625)"/>
    <use xlink:href="#DejaVuSans-20" transform="translate(4239.214299 0.765625)"/>
    <use xlink:href="#DejaVuSans-72" transform="translate(4271.001408 0.765625)"/>
    <use xlink:href="#DejaVuSans-69" transform="translate(4312.114689 0.765625)"/>
    <use xlink:href="#DejaVuSans-70" transform="translate(4339.897892 0.765625)"/>
    <use xlink:href="#DejaVuSans-69" transform="translate(4403.374455 0.765625)"/>
    <use xlink:href="#DejaVuSans-65" transform="translate(4431.157658 0.765625)"/>
    <use xlink:href="#DejaVuSans-67" transform="translate(4492.681096 0.765625)"/>
    <use xlink:href="#DejaVuSans-61" transform="translate(4556.157658 0.765625)"/>
    <use xlink:href="#DejaVuSans-74" transform="translate(4617.436955 0.765625)"/>
    <use xlink:href="#DejaVuSans-61" transform="translate(4656.645939 0.765625)"/>
    <use xlink:href="#DejaVuSans-20" transform="translate(4717.925236 0.765625)"/>
    <use xlink:href="#DejaVuSans-6e" transform="translate(4749.712346 0.765625)"/>
    <use xlink:href="#DejaVuSans-65" transform="translate(4813.091252 0.765625)"/>
    <use xlink:href="#DejaVuSans-6c" transform="translate(4874.614689 0.765625)"/>
    <use xlink:href="#DejaVuSans-6c" transform="translate(4902.397892 0.765625)"/>
    <use xlink:href="#DejaVuSans-61" transform="translate(4930.181096 0.765625)"/>
    <use xlink:href="#DejaVuSans-20" transform="translate(4991.460392 0.765625)"/>
    <use xlink:href="#DejaVuSans-70" transform="translate(5023.247502 0.765625)"/>
    <use xlink:href="#DejaVuSans-72" transform="translate(5086.724064 0.765625)"/>
    <use xlink:href="#DejaVuSans-69" transform="translate(5127.837346 0.765625)"/>
    <use xlink:href="#DejaVuSans-6d" transform="translate(5155.620549 0.765625)"/>
    <use xlink:href="#DejaVuSans-61" transform="translate(5253.032658 0.765625)"/>
    <use xlink:href="#DejaVuSans-20" transform="translate(5314.311955 0.765625)"/>
    <use xlink:href="#DejaVuSans-7a" transform="translate(5346.099064 0.765625)"/>
    <use xlink:href="#DejaVuSans-6f" transform="translate(5398.589299 0.765625)"/>
    <use xlink:href="#DejaVuSans-6e" transform="translate(5459.770939 0.765625)"/>
    <use xlink:href="#DejaVuSans-61" transform="translate(5523.149846 0.765625)"/>
    <use xlink:href="#DejaVuSans-20" transform="translate(5584.429142 0.765625)"/>
    <use xlink:href="#DejaVuSans-64" transform="translate(5616.216252 0.765625)"/>
    <use xlink:href="#DejaVuSans-69" transform="translate(5679.692814 0.765625)"/>
    <use xlink:href="#DejaVuSans-20" transform="translate(5707.476017 0.765625)"/>
    <use xlink:href="#DejaVuSans-42" transform="translate(5739.263127 0.765625)"/>
    <use xlink:href="#DejaVuSans-72" transform="translate(5807.866642 0.765625)"/>
    <use xlink:href="#DejaVuSans-69" transform="translate(5848.979924 0.765625)"/>
    <use xlink:href="#DejaVuSans-6c" transform="translate(5876.763127 0.765625)"/>
    <use xlink:href="#DejaVuSans-6c" transform="translate(5904.54633 0.765625)"/>
    <use xlink:href="#DejaVuSans-6f" transform="translate(5932.329533 0.765625)"/>
    <use xlink:href="#DejaVuSans-75" transform="translate(5993.511174 0.765625)"/>
    <use xlink:href="#DejaVuSans-69" transform="translate(6056.89008 0.765625)"/>
    <use xlink:href="#DejaVuSans-6e" transform="translate(6084.673283 0.765625)"/>
    <use xlink:href="#DejaVuSans-2e" transform="translate(6148.052189 0.765625)"/>
    <path d="M 1115.910263 99.5 
L 1115.910263 105.75 
L 1330.705185 105.75 
L 1330.705185 99.5 
L 1115.910263 99.5 
z
"/>
   </g>
  </g>
 </g>
 <defs>
  <clipPath id="p30ba5418ca">
   <rect x="53.765625" y="69.192" width="580.32" height="206.64"/>
  </clipPath>
  <clipPath id="p1aaa8781f0">
   <rect x="53.765625" y="317.16" width="580.32" height="206.64"/>
  </clipPath>
 </defs>
</svg>
