<?xml version="1.0" encoding="utf-8" standalone="no"?>
<!DOCTYPE svg PUBLIC "-//W3C//DTD SVG 1.1//EN"
  "http://www.w3.org/Graphics/SVG/1.1/DTD/svg11.dtd">
<svg xmlns:xlink="http://www.w3.org/1999/xlink" width="656.1pt" height="610.911687pt" viewBox="0 0 656.1 610.911687" xmlns="http://www.w3.org/2000/svg" version="1.1">
 <metadata>
  <rdf:RDF xmlns:dc="http://purl.org/dc/elements/1.1/" xmlns:cc="http://creativecommons.org/ns#" xmlns:rdf="http://www.w3.org/1999/02/22-rdf-syntax-ns#">
   <cc:Work>
    <dc:type rdf:resource="http://purl.org/dc/dcmitype/StillImage"/>
    <dc:date>2026-06-16T08:22:19.926877</dc:date>
    <dc:format>image/svg+xml</dc:format>
    <dc:creator>
     <cc:Agent>
      <dc:title>Matplotlib v3.10.8, https://matplotlib.org/</dc:title>
     </cc:Agent>
    </dc:creator>
   </cc:Work>
  </rdf:RDF>
 </metadata>
 <defs>
  <style type="text/css">*{stroke-linejoin: round; stroke-linecap: butt}</style>
 </defs>
 <g id="figure_1">
  <g id="patch_1">
   <path d="M 0 610.911687 
L 656.1 610.911687 
L 656.1 0 
L 0 0 
z
" style="fill: #ffffff"/>
  </g>
  <g id="axes_1">
   <g id="patch_2">
    <path d="M 47.463529 139.587652 
C 50.533458 139.587652 53.478064 138.445903 55.648831 136.413861 
C 57.819599 134.38182 59.039294 131.625393 59.039294 128.751652 
C 59.039294 125.877911 57.819599 123.121485 55.648831 121.089443 
C 53.478064 119.057401 50.533458 117.915652 47.463529 117.915652 
C 44.393601 117.915652 41.448995 119.057401 39.278228 121.089443 
C 37.10746 123.121485 35.887765 125.877911 35.887765 128.751652 
C 35.887765 131.625393 37.10746 134.38182 39.278228 136.413861 
C 41.448995 138.445903 44.393601 139.587652 47.463529 139.587652 
L 47.463529 139.587652 
z
" clip-path="url(#p1fbac6d8db)" style="fill: none; stroke: #000000; stroke-width: 1.5; stroke-linejoin: miter"/>
   </g>
   <g id="patch_3">
    <path d="M 85.210588 136.289739 
C 87.346191 136.289739 89.394612 135.495479 90.904711 134.081885 
C 92.41481 132.66829 93.263294 130.750776 93.263294 128.751652 
C 93.263294 126.752528 92.41481 124.835014 90.904711 123.42142 
C 89.394612 122.007826 87.346191 121.213565 85.210588 121.213565 
C 83.074986 121.213565 81.026564 122.007826 79.516465 123.42142 
C 78.006366 124.835014 77.157882 126.752528 77.157882 128.751652 
C 77.157882 130.750776 78.006366 132.66829 79.516465 134.081885 
C 81.026564 135.495479 83.074986 136.289739 85.210588 136.289739 
z
" clip-path="url(#p1fbac6d8db)" style="fill: #1f77b4; opacity: 0.45"/>
   </g>
   <g id="patch_4">
    <path d="M 148.122353 139.587652 
C 151.192282 139.587652 154.136887 138.445903 156.307655 136.413861 
C 158.478422 134.38182 159.698118 131.625393 159.698118 128.751652 
C 159.698118 125.877911 158.478422 123.121485 156.307655 121.089443 
C 154.136887 119.057401 151.192282 117.915652 148.122353 117.915652 
C 145.052424 117.915652 142.107819 119.057401 139.937051 121.089443 
C 137.766284 123.121485 136.546588 125.877911 136.546588 128.751652 
C 136.546588 131.625393 137.766284 134.38182 139.937051 136.413861 
C 142.107819 138.445903 145.052424 139.587652 148.122353 139.587652 
L 148.122353 139.587652 
z
" clip-path="url(#p1fbac6d8db)" style="fill: none; stroke: #000000; stroke-width: 1.5; stroke-linejoin: miter"/>
   </g>
   <g id="patch_5">
    <path d="M 185.869412 136.289739 
C 188.005014 136.289739 190.053436 135.495479 191.563535 134.081885 
C 193.073634 132.66829 193.922118 130.750776 193.922118 128.751652 
C 193.922118 126.752528 193.073634 124.835014 191.563535 123.42142 
C 190.053436 122.007826 188.005014 121.213565 185.869412 121.213565 
C 183.733809 121.213565 181.685388 122.007826 180.175289 123.42142 
C 178.66519 124.835014 177.816706 126.752528 177.816706 128.751652 
C 177.816706 130.750776 178.66519 132.66829 180.175289 134.081885 
C 181.685388 135.495479 183.733809 136.289739 185.869412 136.289739 
z
" clip-path="url(#p1fbac6d8db)" style="fill: #1f77b4; opacity: 0.45"/>
   </g>
   <g id="patch_6">
    <path d="M 248.781176 139.587652 
C 251.851105 139.587652 254.795711 138.445903 256.966478 136.413861 
C 259.137246 134.38182 260.356941 131.625393 260.356941 128.751652 
C 260.356941 125.877911 259.137246 123.121485 256.966478 121.089443 
C 254.795711 119.057401 251.851105 117.915652 248.781176 117.915652 
C 245.711248 117.915652 242.766642 119.057401 240.595875 121.089443 
C 238.425107 123.121485 237.205412 125.877911 237.205412 128.751652 
C 237.205412 131.625393 238.425107 134.38182 240.595875 136.413861 
C 242.766642 138.445903 245.711248 139.587652 248.781176 139.587652 
L 248.781176 139.587652 
z
" clip-path="url(#p1fbac6d8db)" style="fill: none; stroke: #000000; stroke-width: 1.5; stroke-linejoin: miter"/>
   </g>
   <g id="patch_7">
    <path d="M 286.528235 136.289739 
C 288.663838 136.289739 290.712259 135.495479 292.222358 134.081885 
C 293.732457 132.66829 294.580941 130.750776 294.580941 128.751652 
C 294.580941 126.752528 293.732457 124.835014 292.222358 123.42142 
C 290.712259 122.007826 288.663838 121.213565 286.528235 121.213565 
C 284.392633 121.213565 282.344211 122.007826 280.834112 123.42142 
C 279.324013 124.835014 278.475529 126.752528 278.475529 128.751652 
C 278.475529 130.750776 279.324013 132.66829 280.834112 134.081885 
C 282.344211 135.495479 284.392633 136.289739 286.528235 136.289739 
z
" clip-path="url(#p1fbac6d8db)" style="fill: #1f77b4; opacity: 0.45"/>
   </g>
   <g id="patch_8">
    <path d="M 349.44 139.587652 
C 352.509929 139.587652 355.454534 138.445903 357.625302 136.413861 
C 359.796069 134.38182 361.015765 131.625393 361.015765 128.751652 
C 361.015765 125.877911 359.796069 123.121485 357.625302 121.089443 
C 355.454534 119.057401 352.509929 117.915652 349.44 117.915652 
C 346.370071 117.915652 343.425466 119.057401 341.254698 121.089443 
C 339.083931 123.121485 337.864235 125.877911 337.864235 128.751652 
C 337.864235 131.625393 339.083931 134.38182 341.254698 136.413861 
C 343.425466 138.445903 346.370071 139.587652 349.44 139.587652 
L 349.44 139.587652 
z
" clip-path="url(#p1fbac6d8db)" style="fill: none; stroke: #000000; stroke-width: 1.5; stroke-linejoin: miter"/>
   </g>
   <g id="patch_9">
    <path d="M 387.187059 136.289739 
C 389.322661 136.289739 391.371083 135.495479 392.881182 134.081885 
C 394.391281 132.66829 395.239765 130.750776 395.239765 128.751652 
C 395.239765 126.752528 394.391281 124.835014 392.881182 123.42142 
C 391.371083 122.007826 389.322661 121.213565 387.187059 121.213565 
C 385.051456 121.213565 383.003035 122.007826 381.492936 123.42142 
C 379.982837 124.835014 379.134353 126.752528 379.134353 128.751652 
C 379.134353 130.750776 379.982837 132.66829 381.492936 134.081885 
C 383.003035 135.495479 385.051456 136.289739 387.187059 136.289739 
z
" clip-path="url(#p1fbac6d8db)" style="fill: #1f77b4; opacity: 0.45"/>
   </g>
   <g id="patch_10">
    <path d="M 450.098824 139.587652 
C 453.168752 139.587652 456.113358 138.445903 458.284125 136.413861 
C 460.454893 134.38182 461.674588 131.625393 461.674588 128.751652 
C 461.674588 125.877911 460.454893 123.121485 458.284125 121.089443 
C 456.113358 119.057401 453.168752 117.915652 450.098824 117.915652 
C 447.028895 117.915652 444.084289 119.057401 441.913522 121.089443 
C 439.742754 123.121485 438.523059 125.877911 438.523059 128.751652 
C 438.523059 131.625393 439.742754 134.38182 441.913522 136.413861 
C 444.084289 138.445903 447.028895 139.587652 450.098824 139.587652 
L 450.098824 139.587652 
z
" clip-path="url(#p1fbac6d8db)" style="fill: none; stroke: #000000; stroke-width: 1.5; stroke-linejoin: miter"/>
   </g>
   <g id="patch_11">
    <path d="M 487.845882 136.289739 
C 489.981485 136.289739 492.029906 135.495479 493.540005 134.081885 
C 495.050104 132.66829 495.898588 130.750776 495.898588 128.751652 
C 495.898588 126.752528 495.050104 124.835014 493.540005 123.42142 
C 492.029906 122.007826 489.981485 121.213565 487.845882 121.213565 
C 485.71028 121.213565 483.661858 122.007826 482.151759 123.42142 
C 480.64166 124.835014 479.793176 126.752528 479.793176 128.751652 
C 479.793176 130.750776 480.64166 132.66829 482.151759 134.081885 
C 483.661858 135.495479 485.71028 136.289739 487.845882 136.289739 
z
" clip-path="url(#p1fbac6d8db)" style="fill: #1f77b4; opacity: 0.45"/>
   </g>
   <g id="patch_12">
    <path d="M 550.757647 139.587652 
C 553.827576 139.587652 556.772181 138.445903 558.942949 136.413861 
C 561.113716 134.38182 562.333412 131.625393 562.333412 128.751652 
C 562.333412 125.877911 561.113716 123.121485 558.942949 121.089443 
C 556.772181 119.057401 553.827576 117.915652 550.757647 117.915652 
C 547.687718 117.915652 544.743113 119.057401 542.572345 121.089443 
C 540.401578 123.121485 539.181882 125.877911 539.181882 128.751652 
C 539.181882 131.625393 540.401578 134.38182 542.572345 136.413861 
C 544.743113 138.445903 547.687718 139.587652 550.757647 139.587652 
L 550.757647 139.587652 
z
" clip-path="url(#p1fbac6d8db)" style="fill: none; stroke: #000000; stroke-width: 1.5; stroke-linejoin: miter"/>
   </g>
   <g id="patch_13">
    <path d="M 588.504706 136.289739 
C 590.640308 136.289739 592.68873 135.495479 594.198829 134.081885 
C 595.708928 132.66829 596.557412 130.750776 596.557412 128.751652 
C 596.557412 126.752528 595.708928 124.835014 594.198829 123.42142 
C 592.68873 122.007826 590.640308 121.213565 588.504706 121.213565 
C 586.369103 121.213565 584.320682 122.007826 582.810583 123.42142 
C 581.300484 124.835014 580.452 126.752528 580.452 128.751652 
C 580.452 130.750776 581.300484 132.66829 582.810583 134.081885 
C 584.320682 135.495479 586.369103 136.289739 588.504706 136.289739 
z
" clip-path="url(#p1fbac6d8db)" style="fill: #1f77b4; opacity: 0.45"/>
   </g>
   <g id="line2d_1">
    <path d="M 7.2 128.751652 
L 648.9 128.751652 
" clip-path="url(#p1fbac6d8db)" style="fill: none; stroke: #1f77b4; stroke-width: 0.8; stroke-linecap: square"/>
   </g>
   <g id="line2d_2">
    <path d="M 115.408235 161.730783 
L 115.408235 95.772522 
" clip-path="url(#p1fbac6d8db)" style="fill: none; stroke-dasharray: 2.59,1.12; stroke-dashoffset: 0; stroke: #1f77b4; stroke-width: 0.7"/>
   </g>
   <g id="line2d_3">
    <path d="M 216.067059 161.730783 
L 216.067059 95.772522 
" clip-path="url(#p1fbac6d8db)" style="fill: none; stroke-dasharray: 2.59,1.12; stroke-dashoffset: 0; stroke: #ff7f0e; stroke-width: 0.7"/>
   </g>
   <g id="line2d_4">
    <path d="M 316.725882 161.730783 
L 316.725882 95.772522 
" clip-path="url(#p1fbac6d8db)" style="fill: none; stroke-dasharray: 2.59,1.12; stroke-dashoffset: 0; stroke: #2ca02c; stroke-width: 0.7"/>
   </g>
   <g id="line2d_5">
    <path d="M 417.384706 161.730783 
L 417.384706 95.772522 
" clip-path="url(#p1fbac6d8db)" style="fill: none; stroke-dasharray: 2.59,1.12; stroke-dashoffset: 0; stroke: #d62728; stroke-width: 0.7"/>
   </g>
   <g id="line2d_6">
    <path d="M 518.043529 161.730783 
L 518.043529 95.772522 
" clip-path="url(#p1fbac6d8db)" style="fill: none; stroke-dasharray: 2.59,1.12; stroke-dashoffset: 0; stroke: #9467bd; stroke-width: 0.7"/>
   </g>
   <g id="line2d_7">
    <path d="M 618.702353 161.730783 
L 618.702353 95.772522 
" clip-path="url(#p1fbac6d8db)" style="fill: none; stroke-dasharray: 2.59,1.12; stroke-dashoffset: 0; stroke: #8c564b; stroke-width: 0.7"/>
   </g>
   <g id="patch_14">
    <path d="M 49.460548 111.319826 
Q 61.304042 111.319826 71.582289 111.319826 
" style="fill: none; stroke: #000000; stroke-width: 1.4; stroke-linecap: round"/>
    <path d="M 66.382289 108.719826 
L 71.582289 111.319826 
L 66.382289 113.919826 
z
" style="fill: #1f77b4; stroke: #000000; stroke-width: 1.4; stroke-linecap: round"/>
   </g>
   <g id="patch_15">
    <path d="M 87.207607 111.319826 
Q 99.051101 111.319826 109.329348 111.319826 
" style="fill: none; stroke: #000000; stroke-width: 1.4; stroke-linecap: round"/>
    <path d="M 104.129348 108.719826 
L 109.329348 111.319826 
L 104.129348 113.919826 
z
" style="fill: #1f77b4; stroke: #000000; stroke-width: 1.4; stroke-linecap: round"/>
   </g>
   <g id="patch_16">
    <path d="M 150.119371 111.319826 
Q 161.962866 111.319826 172.241113 111.319826 
" style="fill: none; stroke: #000000; stroke-width: 1.4; stroke-linecap: round"/>
    <path d="M 167.041113 108.719826 
L 172.241113 111.319826 
L 167.041113 113.919826 
z
" style="fill: #1f77b4; stroke: #000000; stroke-width: 1.4; stroke-linecap: round"/>
   </g>
   <g id="patch_17">
    <path d="M 187.86643 111.319826 
Q 199.709925 111.319826 209.988172 111.319826 
" style="fill: none; stroke: #000000; stroke-width: 1.4; stroke-linecap: round"/>
    <path d="M 204.788172 108.719826 
L 209.988172 111.319826 
L 204.788172 113.919826 
z
" style="fill: #1f77b4; stroke: #000000; stroke-width: 1.4; stroke-linecap: round"/>
   </g>
   <g id="patch_18">
    <path d="M 250.778195 111.319826 
Q 262.621689 111.319826 272.899936 111.319826 
" style="fill: none; stroke: #000000; stroke-width: 1.4; stroke-linecap: round"/>
    <path d="M 267.699936 108.719826 
L 272.899936 111.319826 
L 267.699936 113.919826 
z
" style="fill: #1f77b4; stroke: #000000; stroke-width: 1.4; stroke-linecap: round"/>
   </g>
   <g id="patch_19">
    <path d="M 288.525254 111.319826 
Q 300.368748 111.319826 310.646995 111.319826 
" style="fill: none; stroke: #000000; stroke-width: 1.4; stroke-linecap: round"/>
    <path d="M 305.446995 108.719826 
L 310.646995 111.319826 
L 305.446995 113.919826 
z
" style="fill: #1f77b4; stroke: #000000; stroke-width: 1.4; stroke-linecap: round"/>
   </g>
   <g id="patch_20">
    <path d="M 351.437018 111.319826 
Q 363.280513 111.319826 373.55876 111.319826 
" style="fill: none; stroke: #000000; stroke-width: 1.4; stroke-linecap: round"/>
    <path d="M 368.35876 108.719826 
L 373.55876 111.319826 
L 368.35876 113.919826 
z
" style="fill: #1f77b4; stroke: #000000; stroke-width: 1.4; stroke-linecap: round"/>
   </g>
   <g id="patch_21">
    <path d="M 389.184077 111.319826 
Q 401.027572 111.319826 411.305819 111.319826 
" style="fill: none; stroke: #000000; stroke-width: 1.4; stroke-linecap: round"/>
    <path d="M 406.105819 108.719826 
L 411.305819 111.319826 
L 406.105819 113.919826 
z
" style="fill: #1f77b4; stroke: #000000; stroke-width: 1.4; stroke-linecap: round"/>
   </g>
   <g id="patch_22">
    <path d="M 452.095842 111.319826 
Q 463.939336 111.319826 474.217583 111.319826 
" style="fill: none; stroke: #000000; stroke-width: 1.4; stroke-linecap: round"/>
    <path d="M 469.017583 108.719826 
L 474.217583 111.319826 
L 469.017583 113.919826 
z
" style="fill: #1f77b4; stroke: #000000; stroke-width: 1.4; stroke-linecap: round"/>
   </g>
   <g id="patch_23">
    <path d="M 489.842901 111.319826 
Q 501.686395 111.319826 511.964642 111.319826 
" style="fill: none; stroke: #000000; stroke-width: 1.4; stroke-linecap: round"/>
    <path d="M 506.764642 108.719826 
L 511.964642 111.319826 
L 506.764642 113.919826 
z
" style="fill: #1f77b4; stroke: #000000; stroke-width: 1.4; stroke-linecap: round"/>
   </g>
   <g id="patch_24">
    <path d="M 552.754666 111.319826 
Q 564.59816 111.319826 574.876407 111.319826 
" style="fill: none; stroke: #000000; stroke-width: 1.4; stroke-linecap: round"/>
    <path d="M 569.676407 108.719826 
L 574.876407 111.319826 
L 569.676407 113.919826 
z
" style="fill: #1f77b4; stroke: #000000; stroke-width: 1.4; stroke-linecap: round"/>
   </g>
   <g id="patch_25">
    <path d="M 590.501724 111.319826 
Q 602.345219 111.319826 612.623466 111.319826 
" style="fill: none; stroke: #000000; stroke-width: 1.4; stroke-linecap: round"/>
    <path d="M 607.423466 108.719826 
L 612.623466 111.319826 
L 607.423466 113.919826 
z
" style="fill: #1f77b4; stroke: #000000; stroke-width: 1.4; stroke-linecap: round"/>
   </g>
   <g id="text_1">
    <!-- centro zona — modo acustico longitudinale -->
    <g transform="translate(19.782353 91.697909) scale(0.11 -0.11)">
     <defs>
      <path id="DejaVuSans-Bold-63" d="M 3366 3391 
L 3366 2478 
Q 3138 2634 2908 2709 
Q 2678 2784 2431 2784 
Q 1963 2784 1702 2511 
Q 1441 2238 1441 1747 
Q 1441 1256 1702 982 
Q 1963 709 2431 709 
Q 2694 709 2930 787 
Q 3166 866 3366 1019 
L 3366 103 
Q 3103 6 2833 -42 
Q 2563 -91 2291 -91 
Q 1344 -91 809 395 
Q 275 881 275 1747 
Q 275 2613 809 3098 
Q 1344 3584 2291 3584 
Q 2566 3584 2833 3536 
Q 3100 3488 3366 3391 
z
" transform="scale(0.015625)"/>
      <path id="DejaVuSans-Bold-65" d="M 4031 1759 
L 4031 1441 
L 1416 1441 
Q 1456 1047 1700 850 
Q 1944 653 2381 653 
Q 2734 653 3104 758 
Q 3475 863 3866 1075 
L 3866 213 
Q 3469 63 3072 -14 
Q 2675 -91 2278 -91 
Q 1328 -91 801 392 
Q 275 875 275 1747 
Q 275 2603 792 3093 
Q 1309 3584 2216 3584 
Q 3041 3584 3536 3087 
Q 4031 2591 4031 1759 
z
M 2881 2131 
Q 2881 2450 2695 2645 
Q 2509 2841 2209 2841 
Q 1884 2841 1681 2658 
Q 1478 2475 1428 2131 
L 2881 2131 
z
" transform="scale(0.015625)"/>
      <path id="DejaVuSans-Bold-6e" d="M 4056 2131 
L 4056 0 
L 2931 0 
L 2931 347 
L 2931 1631 
Q 2931 2084 2911 2256 
Q 2891 2428 2841 2509 
Q 2775 2619 2662 2680 
Q 2550 2741 2406 2741 
Q 2056 2741 1856 2470 
Q 1656 2200 1656 1722 
L 1656 0 
L 538 0 
L 538 3500 
L 1656 3500 
L 1656 2988 
Q 1909 3294 2193 3439 
Q 2478 3584 2822 3584 
Q 3428 3584 3742 3212 
Q 4056 2841 4056 2131 
z
" transform="scale(0.015625)"/>
      <path id="DejaVuSans-Bold-74" d="M 1759 4494 
L 1759 3500 
L 2913 3500 
L 2913 2700 
L 1759 2700 
L 1759 1216 
Q 1759 972 1856 886 
Q 1953 800 2241 800 
L 2816 800 
L 2816 0 
L 1856 0 
Q 1194 0 917 276 
Q 641 553 641 1216 
L 641 2700 
L 84 2700 
L 84 3500 
L 641 3500 
L 641 4494 
L 1759 4494 
z
" transform="scale(0.015625)"/>
      <path id="DejaVuSans-Bold-72" d="M 3138 2547 
Q 2991 2616 2845 2648 
Q 2700 2681 2553 2681 
Q 2122 2681 1889 2404 
Q 1656 2128 1656 1613 
L 1656 0 
L 538 0 
L 538 3500 
L 1656 3500 
L 1656 2925 
Q 1872 3269 2151 3426 
Q 2431 3584 2822 3584 
Q 2878 3584 2943 3579 
Q 3009 3575 3134 3559 
L 3138 2547 
z
" transform="scale(0.015625)"/>
      <path id="DejaVuSans-Bold-6f" d="M 2203 2784 
Q 1831 2784 1636 2517 
Q 1441 2250 1441 1747 
Q 1441 1244 1636 976 
Q 1831 709 2203 709 
Q 2569 709 2762 976 
Q 2956 1244 2956 1747 
Q 2956 2250 2762 2517 
Q 2569 2784 2203 2784 
z
M 2203 3584 
Q 3106 3584 3614 3096 
Q 4122 2609 4122 1747 
Q 4122 884 3614 396 
Q 3106 -91 2203 -91 
Q 1297 -91 786 396 
Q 275 884 275 1747 
Q 275 2609 786 3096 
Q 1297 3584 2203 3584 
z
" transform="scale(0.015625)"/>
      <path id="DejaVuSans-Bold-20" transform="scale(0.015625)"/>
      <path id="DejaVuSans-Bold-7a" d="M 366 3500 
L 3419 3500 
L 3419 2719 
L 1575 800 
L 3419 800 
L 3419 0 
L 288 0 
L 288 781 
L 2131 2700 
L 366 2700 
L 366 3500 
z
" transform="scale(0.015625)"/>
      <path id="DejaVuSans-Bold-61" d="M 2106 1575 
Q 1756 1575 1579 1456 
Q 1403 1338 1403 1106 
Q 1403 894 1545 773 
Q 1688 653 1941 653 
Q 2256 653 2472 879 
Q 2688 1106 2688 1447 
L 2688 1575 
L 2106 1575 
z
M 3816 1997 
L 3816 0 
L 2688 0 
L 2688 519 
Q 2463 200 2181 54 
Q 1900 -91 1497 -91 
Q 953 -91 614 226 
Q 275 544 275 1050 
Q 275 1666 698 1953 
Q 1122 2241 2028 2241 
L 2688 2241 
L 2688 2328 
Q 2688 2594 2478 2717 
Q 2269 2841 1825 2841 
Q 1466 2841 1156 2769 
Q 847 2697 581 2553 
L 581 3406 
Q 941 3494 1303 3539 
Q 1666 3584 2028 3584 
Q 2975 3584 3395 3211 
Q 3816 2838 3816 1997 
z
" transform="scale(0.015625)"/>
      <path id="DejaVuSans-Bold-2014" d="M 344 2156 
L 6056 2156 
L 6056 1350 
L 344 1350 
L 344 2156 
z
" transform="scale(0.015625)"/>
      <path id="DejaVuSans-Bold-6d" d="M 3781 2919 
Q 3994 3244 4286 3414 
Q 4578 3584 4928 3584 
Q 5531 3584 5847 3212 
Q 6163 2841 6163 2131 
L 6163 0 
L 5038 0 
L 5038 1825 
Q 5041 1866 5042 1909 
Q 5044 1953 5044 2034 
Q 5044 2406 4934 2573 
Q 4825 2741 4581 2741 
Q 4263 2741 4089 2478 
Q 3916 2216 3909 1719 
L 3909 0 
L 2784 0 
L 2784 1825 
Q 2784 2406 2684 2573 
Q 2584 2741 2328 2741 
Q 2006 2741 1831 2477 
Q 1656 2213 1656 1722 
L 1656 0 
L 531 0 
L 531 3500 
L 1656 3500 
L 1656 2988 
Q 1863 3284 2130 3434 
Q 2397 3584 2719 3584 
Q 3081 3584 3359 3409 
Q 3638 3234 3781 2919 
z
" transform="scale(0.015625)"/>
      <path id="DejaVuSans-Bold-64" d="M 2919 2988 
L 2919 4863 
L 4044 4863 
L 4044 0 
L 2919 0 
L 2919 506 
Q 2688 197 2409 53 
Q 2131 -91 1766 -91 
Q 1119 -91 703 423 
Q 288 938 288 1747 
Q 288 2556 703 3070 
Q 1119 3584 1766 3584 
Q 2128 3584 2408 3439 
Q 2688 3294 2919 2988 
z
M 2181 722 
Q 2541 722 2730 984 
Q 2919 1247 2919 1747 
Q 2919 2247 2730 2509 
Q 2541 2772 2181 2772 
Q 1825 2772 1636 2509 
Q 1447 2247 1447 1747 
Q 1447 1247 1636 984 
Q 1825 722 2181 722 
z
" transform="scale(0.015625)"/>
      <path id="DejaVuSans-Bold-75" d="M 500 1363 
L 500 3500 
L 1625 3500 
L 1625 3150 
Q 1625 2866 1622 2436 
Q 1619 2006 1619 1863 
Q 1619 1441 1641 1255 
Q 1663 1069 1716 984 
Q 1784 875 1895 815 
Q 2006 756 2150 756 
Q 2500 756 2700 1025 
Q 2900 1294 2900 1772 
L 2900 3500 
L 4019 3500 
L 4019 0 
L 2900 0 
L 2900 506 
Q 2647 200 2364 54 
Q 2081 -91 1741 -91 
Q 1134 -91 817 281 
Q 500 653 500 1363 
z
" transform="scale(0.015625)"/>
      <path id="DejaVuSans-Bold-73" d="M 3272 3391 
L 3272 2541 
Q 2913 2691 2578 2766 
Q 2244 2841 1947 2841 
Q 1628 2841 1473 2761 
Q 1319 2681 1319 2516 
Q 1319 2381 1436 2309 
Q 1553 2238 1856 2203 
L 2053 2175 
Q 2913 2066 3209 1816 
Q 3506 1566 3506 1031 
Q 3506 472 3093 190 
Q 2681 -91 1863 -91 
Q 1516 -91 1145 -36 
Q 775 19 384 128 
L 384 978 
Q 719 816 1070 734 
Q 1422 653 1784 653 
Q 2113 653 2278 743 
Q 2444 834 2444 1013 
Q 2444 1163 2330 1236 
Q 2216 1309 1875 1350 
L 1678 1375 
Q 931 1469 631 1722 
Q 331 1975 331 2491 
Q 331 3047 712 3315 
Q 1094 3584 1881 3584 
Q 2191 3584 2531 3537 
Q 2872 3491 3272 3391 
z
" transform="scale(0.015625)"/>
      <path id="DejaVuSans-Bold-69" d="M 538 3500 
L 1656 3500 
L 1656 0 
L 538 0 
L 538 3500 
z
M 538 4863 
L 1656 4863 
L 1656 3950 
L 538 3950 
L 538 4863 
z
" transform="scale(0.015625)"/>
      <path id="DejaVuSans-Bold-6c" d="M 538 4863 
L 1656 4863 
L 1656 0 
L 538 0 
L 538 4863 
z
" transform="scale(0.015625)"/>
      <path id="DejaVuSans-Bold-67" d="M 2919 594 
Q 2688 288 2409 144 
Q 2131 0 1766 0 
Q 1125 0 706 504 
Q 288 1009 288 1791 
Q 288 2575 706 3076 
Q 1125 3578 1766 3578 
Q 2131 3578 2409 3434 
Q 2688 3291 2919 2981 
L 2919 3500 
L 4044 3500 
L 4044 353 
Q 4044 -491 3511 -936 
Q 2978 -1381 1966 -1381 
Q 1638 -1381 1331 -1331 
Q 1025 -1281 716 -1178 
L 716 -306 
Q 1009 -475 1290 -558 
Q 1572 -641 1856 -641 
Q 2406 -641 2662 -400 
Q 2919 -159 2919 353 
L 2919 594 
z
M 2181 2772 
Q 1834 2772 1640 2515 
Q 1447 2259 1447 1791 
Q 1447 1309 1634 1061 
Q 1822 813 2181 813 
Q 2531 813 2725 1069 
Q 2919 1325 2919 1791 
Q 2919 2259 2725 2515 
Q 2531 2772 2181 2772 
z
" transform="scale(0.015625)"/>
     </defs>
     <use xlink:href="#DejaVuSans-Bold-63"/>
     <use xlink:href="#DejaVuSans-Bold-65" transform="translate(59.277344 0)"/>
     <use xlink:href="#DejaVuSans-Bold-6e" transform="translate(127.099609 0)"/>
     <use xlink:href="#DejaVuSans-Bold-74" transform="translate(198.291016 0)"/>
     <use xlink:href="#DejaVuSans-Bold-72" transform="translate(246.09375 0)"/>
     <use xlink:href="#DejaVuSans-Bold-6f" transform="translate(295.410156 0)"/>
     <use xlink:href="#DejaVuSans-Bold-20" transform="translate(364.111328 0)"/>
     <use xlink:href="#DejaVuSans-Bold-7a" transform="translate(398.925781 0)"/>
     <use xlink:href="#DejaVuSans-Bold-6f" transform="translate(457.128906 0)"/>
     <use xlink:href="#DejaVuSans-Bold-6e" transform="translate(525.830078 0)"/>
     <use xlink:href="#DejaVuSans-Bold-61" transform="translate(597.021484 0)"/>
     <use xlink:href="#DejaVuSans-Bold-20" transform="translate(664.501953 0)"/>
     <use xlink:href="#DejaVuSans-Bold-2014" transform="translate(699.316406 0)"/>
     <use xlink:href="#DejaVuSans-Bold-20" transform="translate(799.316406 0)"/>
     <use xlink:href="#DejaVuSans-Bold-6d" transform="translate(834.130859 0)"/>
     <use xlink:href="#DejaVuSans-Bold-6f" transform="translate(938.330078 0)"/>
     <use xlink:href="#DejaVuSans-Bold-64" transform="translate(1007.03125 0)"/>
     <use xlink:href="#DejaVuSans-Bold-6f" transform="translate(1078.613281 0)"/>
     <use xlink:href="#DejaVuSans-Bold-20" transform="translate(1147.314453 0)"/>
     <use xlink:href="#DejaVuSans-Bold-61" transform="translate(1182.128906 0)"/>
     <use xlink:href="#DejaVuSans-Bold-63" transform="translate(1249.609375 0)"/>
     <use xlink:href="#DejaVuSans-Bold-75" transform="translate(1308.886719 0)"/>
     <use xlink:href="#DejaVuSans-Bold-73" transform="translate(1380.078125 0)"/>
     <use xlink:href="#DejaVuSans-Bold-74" transform="translate(1439.599609 0)"/>
     <use xlink:href="#DejaVuSans-Bold-69" transform="translate(1487.402344 0)"/>
     <use xlink:href="#DejaVuSans-Bold-63" transform="translate(1521.679688 0)"/>
     <use xlink:href="#DejaVuSans-Bold-6f" transform="translate(1580.957031 0)"/>
     <use xlink:href="#DejaVuSans-Bold-20" transform="translate(1649.658203 0)"/>
     <use xlink:href="#DejaVuSans-Bold-6c" transform="translate(1684.472656 0)"/>
     <use xlink:href="#DejaVuSans-Bold-6f" transform="translate(1718.75 0)"/>
     <use xlink:href="#DejaVuSans-Bold-6e" transform="translate(1787.451172 0)"/>
     <use xlink:href="#DejaVuSans-Bold-67" transform="translate(1858.642578 0)"/>
     <use xlink:href="#DejaVuSans-Bold-69" transform="translate(1930.224609 0)"/>
     <use xlink:href="#DejaVuSans-Bold-74" transform="translate(1964.501953 0)"/>
     <use xlink:href="#DejaVuSans-Bold-75" transform="translate(2012.304688 0)"/>
     <use xlink:href="#DejaVuSans-Bold-64" transform="translate(2083.496094 0)"/>
     <use xlink:href="#DejaVuSans-Bold-69" transform="translate(2155.078125 0)"/>
     <use xlink:href="#DejaVuSans-Bold-6e" transform="translate(2189.355469 0)"/>
     <use xlink:href="#DejaVuSans-Bold-61" transform="translate(2260.546875 0)"/>
     <use xlink:href="#DejaVuSans-Bold-6c" transform="translate(2328.027344 0)"/>
     <use xlink:href="#DejaVuSans-Bold-65" transform="translate(2362.304688 0)"/>
    </g>
   </g>
  </g>
  <g id="axes_2">
   <g id="patch_26">
    <path d="M 47.463529 263.966087 
C 50.533458 263.966087 53.478064 262.824338 55.648831 260.792296 
C 57.819599 258.760254 59.039294 256.003828 59.039294 253.130087 
C 59.039294 250.256346 57.819599 247.499919 55.648831 245.467878 
C 53.478064 243.435836 50.533458 242.294087 47.463529 242.294087 
C 44.393601 242.294087 41.448995 243.435836 39.278228 245.467878 
C 37.10746 247.499919 35.887765 250.256346 35.887765 253.130087 
C 35.887765 256.003828 37.10746 258.760254 39.278228 260.792296 
C 41.448995 262.824338 44.393601 263.966087 47.463529 263.966087 
L 47.463529 263.966087 
z
" clip-path="url(#paa07a544b6)" style="fill: none; stroke: #000000; stroke-width: 1.5; stroke-linejoin: miter"/>
   </g>
   <g id="patch_27">
    <path d="M 85.210588 260.668174 
C 87.346191 260.668174 89.394612 259.873914 90.904711 258.460319 
C 92.41481 257.046725 93.263294 255.129211 93.263294 253.130087 
C 93.263294 251.130963 92.41481 249.213449 90.904711 247.799855 
C 89.394612 246.38626 87.346191 245.592 85.210588 245.592 
C 83.074986 245.592 81.026564 246.38626 79.516465 247.799855 
C 78.006366 249.213449 77.157882 251.130963 77.157882 253.130087 
C 77.157882 255.129211 78.006366 257.046725 79.516465 258.460319 
C 81.026564 259.873914 83.074986 260.668174 85.210588 260.668174 
z
" clip-path="url(#paa07a544b6)" style="fill: #1f77b4; opacity: 0.45"/>
   </g>
   <g id="patch_28">
    <path d="M 148.122353 263.966087 
C 151.192282 263.966087 154.136887 262.824338 156.307655 260.792296 
C 158.478422 258.760254 159.698118 256.003828 159.698118 253.130087 
C 159.698118 250.256346 158.478422 247.499919 156.307655 245.467878 
C 154.136887 243.435836 151.192282 242.294087 148.122353 242.294087 
C 145.052424 242.294087 142.107819 243.435836 139.937051 245.467878 
C 137.766284 247.499919 136.546588 250.256346 136.546588 253.130087 
C 136.546588 256.003828 137.766284 258.760254 139.937051 260.792296 
C 142.107819 262.824338 145.052424 263.966087 148.122353 263.966087 
L 148.122353 263.966087 
z
" clip-path="url(#paa07a544b6)" style="fill: none; stroke: #000000; stroke-width: 1.5; stroke-linejoin: miter"/>
   </g>
   <g id="patch_29">
    <path d="M 185.869412 260.668174 
C 188.005014 260.668174 190.053436 259.873914 191.563535 258.460319 
C 193.073634 257.046725 193.922118 255.129211 193.922118 253.130087 
C 193.922118 251.130963 193.073634 249.213449 191.563535 247.799855 
C 190.053436 246.38626 188.005014 245.592 185.869412 245.592 
C 183.733809 245.592 181.685388 246.38626 180.175289 247.799855 
C 178.66519 249.213449 177.816706 251.130963 177.816706 253.130087 
C 177.816706 255.129211 178.66519 257.046725 180.175289 258.460319 
C 181.685388 259.873914 183.733809 260.668174 185.869412 260.668174 
z
" clip-path="url(#paa07a544b6)" style="fill: #1f77b4; opacity: 0.45"/>
   </g>
   <g id="patch_30">
    <path d="M 248.781176 263.966087 
C 251.851105 263.966087 254.795711 262.824338 256.966478 260.792296 
C 259.137246 258.760254 260.356941 256.003828 260.356941 253.130087 
C 260.356941 250.256346 259.137246 247.499919 256.966478 245.467878 
C 254.795711 243.435836 251.851105 242.294087 248.781176 242.294087 
C 245.711248 242.294087 242.766642 243.435836 240.595875 245.467878 
C 238.425107 247.499919 237.205412 250.256346 237.205412 253.130087 
C 237.205412 256.003828 238.425107 258.760254 240.595875 260.792296 
C 242.766642 262.824338 245.711248 263.966087 248.781176 263.966087 
L 248.781176 263.966087 
z
" clip-path="url(#paa07a544b6)" style="fill: none; stroke: #000000; stroke-width: 1.5; stroke-linejoin: miter"/>
   </g>
   <g id="patch_31">
    <path d="M 286.528235 260.668174 
C 288.663838 260.668174 290.712259 259.873914 292.222358 258.460319 
C 293.732457 257.046725 294.580941 255.129211 294.580941 253.130087 
C 294.580941 251.130963 293.732457 249.213449 292.222358 247.799855 
C 290.712259 246.38626 288.663838 245.592 286.528235 245.592 
C 284.392633 245.592 282.344211 246.38626 280.834112 247.799855 
C 279.324013 249.213449 278.475529 251.130963 278.475529 253.130087 
C 278.475529 255.129211 279.324013 257.046725 280.834112 258.460319 
C 282.344211 259.873914 284.392633 260.668174 286.528235 260.668174 
z
" clip-path="url(#paa07a544b6)" style="fill: #1f77b4; opacity: 0.45"/>
   </g>
   <g id="patch_32">
    <path d="M 349.44 263.966087 
C 352.509929 263.966087 355.454534 262.824338 357.625302 260.792296 
C 359.796069 258.760254 361.015765 256.003828 361.015765 253.130087 
C 361.015765 250.256346 359.796069 247.499919 357.625302 245.467878 
C 355.454534 243.435836 352.509929 242.294087 349.44 242.294087 
C 346.370071 242.294087 343.425466 243.435836 341.254698 245.467878 
C 339.083931 247.499919 337.864235 250.256346 337.864235 253.130087 
C 337.864235 256.003828 339.083931 258.760254 341.254698 260.792296 
C 343.425466 262.824338 346.370071 263.966087 349.44 263.966087 
L 349.44 263.966087 
z
" clip-path="url(#paa07a544b6)" style="fill: none; stroke: #000000; stroke-width: 1.5; stroke-linejoin: miter"/>
   </g>
   <g id="patch_33">
    <path d="M 387.187059 260.668174 
C 389.322661 260.668174 391.371083 259.873914 392.881182 258.460319 
C 394.391281 257.046725 395.239765 255.129211 395.239765 253.130087 
C 395.239765 251.130963 394.391281 249.213449 392.881182 247.799855 
C 391.371083 246.38626 389.322661 245.592 387.187059 245.592 
C 385.051456 245.592 383.003035 246.38626 381.492936 247.799855 
C 379.982837 249.213449 379.134353 251.130963 379.134353 253.130087 
C 379.134353 255.129211 379.982837 257.046725 381.492936 258.460319 
C 383.003035 259.873914 385.051456 260.668174 387.187059 260.668174 
z
" clip-path="url(#paa07a544b6)" style="fill: #1f77b4; opacity: 0.45"/>
   </g>
   <g id="patch_34">
    <path d="M 450.098824 263.966087 
C 453.168752 263.966087 456.113358 262.824338 458.284125 260.792296 
C 460.454893 258.760254 461.674588 256.003828 461.674588 253.130087 
C 461.674588 250.256346 460.454893 247.499919 458.284125 245.467878 
C 456.113358 243.435836 453.168752 242.294087 450.098824 242.294087 
C 447.028895 242.294087 444.084289 243.435836 441.913522 245.467878 
C 439.742754 247.499919 438.523059 250.256346 438.523059 253.130087 
C 438.523059 256.003828 439.742754 258.760254 441.913522 260.792296 
C 444.084289 262.824338 447.028895 263.966087 450.098824 263.966087 
L 450.098824 263.966087 
z
" clip-path="url(#paa07a544b6)" style="fill: none; stroke: #000000; stroke-width: 1.5; stroke-linejoin: miter"/>
   </g>
   <g id="patch_35">
    <path d="M 487.845882 260.668174 
C 489.981485 260.668174 492.029906 259.873914 493.540005 258.460319 
C 495.050104 257.046725 495.898588 255.129211 495.898588 253.130087 
C 495.898588 251.130963 495.050104 249.213449 493.540005 247.799855 
C 492.029906 246.38626 489.981485 245.592 487.845882 245.592 
C 485.71028 245.592 483.661858 246.38626 482.151759 247.799855 
C 480.64166 249.213449 479.793176 251.130963 479.793176 253.130087 
C 479.793176 255.129211 480.64166 257.046725 482.151759 258.460319 
C 483.661858 259.873914 485.71028 260.668174 487.845882 260.668174 
z
" clip-path="url(#paa07a544b6)" style="fill: #1f77b4; opacity: 0.45"/>
   </g>
   <g id="patch_36">
    <path d="M 550.757647 263.966087 
C 553.827576 263.966087 556.772181 262.824338 558.942949 260.792296 
C 561.113716 258.760254 562.333412 256.003828 562.333412 253.130087 
C 562.333412 250.256346 561.113716 247.499919 558.942949 245.467878 
C 556.772181 243.435836 553.827576 242.294087 550.757647 242.294087 
C 547.687718 242.294087 544.743113 243.435836 542.572345 245.467878 
C 540.401578 247.499919 539.181882 250.256346 539.181882 253.130087 
C 539.181882 256.003828 540.401578 258.760254 542.572345 260.792296 
C 544.743113 262.824338 547.687718 263.966087 550.757647 263.966087 
L 550.757647 263.966087 
z
" clip-path="url(#paa07a544b6)" style="fill: none; stroke: #000000; stroke-width: 1.5; stroke-linejoin: miter"/>
   </g>
   <g id="patch_37">
    <path d="M 588.504706 260.668174 
C 590.640308 260.668174 592.68873 259.873914 594.198829 258.460319 
C 595.708928 257.046725 596.557412 255.129211 596.557412 253.130087 
C 596.557412 251.130963 595.708928 249.213449 594.198829 247.799855 
C 592.68873 246.38626 590.640308 245.592 588.504706 245.592 
C 586.369103 245.592 584.320682 246.38626 582.810583 247.799855 
C 581.300484 249.213449 580.452 251.130963 580.452 253.130087 
C 580.452 255.129211 581.300484 257.046725 582.810583 258.460319 
C 584.320682 259.873914 586.369103 260.668174 588.504706 260.668174 
z
" clip-path="url(#paa07a544b6)" style="fill: #1f77b4; opacity: 0.45"/>
   </g>
   <g id="line2d_8">
    <path d="M 7.2 253.130087 
L 648.9 253.130087 
" clip-path="url(#paa07a544b6)" style="fill: none; stroke: #1f77b4; stroke-width: 0.8; stroke-linecap: square"/>
   </g>
   <g id="line2d_9">
    <path d="M 115.408235 286.109217 
L 115.408235 220.150957 
" clip-path="url(#paa07a544b6)" style="fill: none; stroke-dasharray: 2.59,1.12; stroke-dashoffset: 0; stroke: #1f77b4; stroke-width: 0.7"/>
   </g>
   <g id="line2d_10">
    <path d="M 216.067059 286.109217 
L 216.067059 220.150957 
" clip-path="url(#paa07a544b6)" style="fill: none; stroke-dasharray: 2.59,1.12; stroke-dashoffset: 0; stroke: #ff7f0e; stroke-width: 0.7"/>
   </g>
   <g id="line2d_11">
    <path d="M 316.725882 286.109217 
L 316.725882 220.150957 
" clip-path="url(#paa07a544b6)" style="fill: none; stroke-dasharray: 2.59,1.12; stroke-dashoffset: 0; stroke: #2ca02c; stroke-width: 0.7"/>
   </g>
   <g id="line2d_12">
    <path d="M 417.384706 286.109217 
L 417.384706 220.150957 
" clip-path="url(#paa07a544b6)" style="fill: none; stroke-dasharray: 2.59,1.12; stroke-dashoffset: 0; stroke: #d62728; stroke-width: 0.7"/>
   </g>
   <g id="line2d_13">
    <path d="M 518.043529 286.109217 
L 518.043529 220.150957 
" clip-path="url(#paa07a544b6)" style="fill: none; stroke-dasharray: 2.59,1.12; stroke-dashoffset: 0; stroke: #9467bd; stroke-width: 0.7"/>
   </g>
   <g id="line2d_14">
    <path d="M 618.702353 286.109217 
L 618.702353 220.150957 
" clip-path="url(#paa07a544b6)" style="fill: none; stroke-dasharray: 2.59,1.12; stroke-dashoffset: 0; stroke: #8c564b; stroke-width: 0.7"/>
   </g>
   <g id="patch_38">
    <path d="M 45.463746 235.698261 
Q 34.880894 235.698261 25.86329 235.698261 
" style="fill: none; stroke: #000000; stroke-width: 1.4; stroke-linecap: round"/>
    <path d="M 31.06329 238.298261 
L 25.86329 235.698261 
L 31.06329 233.098261 
z
" style="fill: #1f77b4; stroke: #000000; stroke-width: 1.4; stroke-linecap: round"/>
   </g>
   <g id="patch_39">
    <path d="M 87.210371 235.698261 
Q 97.793223 235.698261 106.810828 235.698261 
" style="fill: none; stroke: #000000; stroke-width: 1.4; stroke-linecap: round"/>
    <path d="M 101.610828 233.098261 
L 106.810828 235.698261 
L 101.610828 238.298261 
z
" style="fill: #1f77b4; stroke: #000000; stroke-width: 1.4; stroke-linecap: round"/>
   </g>
   <g id="patch_40">
    <path d="M 146.12257 235.698261 
Q 135.539718 235.698261 126.522113 235.698261 
" style="fill: none; stroke: #000000; stroke-width: 1.4; stroke-linecap: round"/>
    <path d="M 131.722113 238.298261 
L 126.522113 235.698261 
L 131.722113 233.098261 
z
" style="fill: #1f77b4; stroke: #000000; stroke-width: 1.4; stroke-linecap: round"/>
   </g>
   <g id="patch_41">
    <path d="M 187.869195 235.698261 
Q 198.452047 235.698261 207.469651 235.698261 
" style="fill: none; stroke: #000000; stroke-width: 1.4; stroke-linecap: round"/>
    <path d="M 202.269651 233.098261 
L 207.469651 235.698261 
L 202.269651 238.298261 
z
" style="fill: #1f77b4; stroke: #000000; stroke-width: 1.4; stroke-linecap: round"/>
   </g>
   <g id="patch_42">
    <path d="M 246.781393 235.698261 
Q 236.198541 235.698261 227.180937 235.698261 
" style="fill: none; stroke: #000000; stroke-width: 1.4; stroke-linecap: round"/>
    <path d="M 232.380937 238.298261 
L 227.180937 235.698261 
L 232.380937 233.098261 
z
" style="fill: #1f77b4; stroke: #000000; stroke-width: 1.4; stroke-linecap: round"/>
   </g>
   <g id="patch_43">
    <path d="M 288.528018 235.698261 
Q 299.11087 235.698261 308.128475 235.698261 
" style="fill: none; stroke: #000000; stroke-width: 1.4; stroke-linecap: round"/>
    <path d="M 302.928475 233.098261 
L 308.128475 235.698261 
L 302.928475 238.298261 
z
" style="fill: #1f77b4; stroke: #000000; stroke-width: 1.4; stroke-linecap: round"/>
   </g>
   <g id="patch_44">
    <path d="M 347.440217 235.698261 
Q 336.857365 235.698261 327.83976 235.698261 
" style="fill: none; stroke: #000000; stroke-width: 1.4; stroke-linecap: round"/>
    <path d="M 333.03976 238.298261 
L 327.83976 235.698261 
L 333.03976 233.098261 
z
" style="fill: #1f77b4; stroke: #000000; stroke-width: 1.4; stroke-linecap: round"/>
   </g>
   <g id="patch_45">
    <path d="M 389.186842 235.698261 
Q 399.769694 235.698261 408.787298 235.698261 
" style="fill: none; stroke: #000000; stroke-width: 1.4; stroke-linecap: round"/>
    <path d="M 403.587298 233.098261 
L 408.787298 235.698261 
L 403.587298 238.298261 
z
" style="fill: #1f77b4; stroke: #000000; stroke-width: 1.4; stroke-linecap: round"/>
   </g>
   <g id="patch_46">
    <path d="M 448.09904 235.698261 
Q 437.516188 235.698261 428.498584 235.698261 
" style="fill: none; stroke: #000000; stroke-width: 1.4; stroke-linecap: round"/>
    <path d="M 433.698584 238.298261 
L 428.498584 235.698261 
L 433.698584 233.098261 
z
" style="fill: #1f77b4; stroke: #000000; stroke-width: 1.4; stroke-linecap: round"/>
   </g>
   <g id="patch_47">
    <path d="M 489.845665 235.698261 
Q 500.428517 235.698261 509.446122 235.698261 
" style="fill: none; stroke: #000000; stroke-width: 1.4; stroke-linecap: round"/>
    <path d="M 504.246122 233.098261 
L 509.446122 235.698261 
L 504.246122 238.298261 
z
" style="fill: #1f77b4; stroke: #000000; stroke-width: 1.4; stroke-linecap: round"/>
   </g>
   <g id="patch_48">
    <path d="M 548.757864 235.698261 
Q 538.175012 235.698261 529.157408 235.698261 
" style="fill: none; stroke: #000000; stroke-width: 1.4; stroke-linecap: round"/>
    <path d="M 534.357408 238.298261 
L 529.157408 235.698261 
L 534.357408 233.098261 
z
" style="fill: #1f77b4; stroke: #000000; stroke-width: 1.4; stroke-linecap: round"/>
   </g>
   <g id="patch_49">
    <path d="M 590.504489 235.698261 
Q 601.087341 235.698261 610.104945 235.698261 
" style="fill: none; stroke: #000000; stroke-width: 1.4; stroke-linecap: round"/>
    <path d="M 604.904945 233.098261 
L 610.104945 235.698261 
L 604.904945 238.298261 
z
" style="fill: #1f77b4; stroke: #000000; stroke-width: 1.4; stroke-linecap: round"/>
   </g>
   <g id="text_2">
    <!-- centro zona — modo ottico longitudinale -->
    <g transform="translate(19.782353 216.076344) scale(0.11 -0.11)">
     <use xlink:href="#DejaVuSans-Bold-63"/>
     <use xlink:href="#DejaVuSans-Bold-65" transform="translate(59.277344 0)"/>
     <use xlink:href="#DejaVuSans-Bold-6e" transform="translate(127.099609 0)"/>
     <use xlink:href="#DejaVuSans-Bold-74" transform="translate(198.291016 0)"/>
     <use xlink:href="#DejaVuSans-Bold-72" transform="translate(246.09375 0)"/>
     <use xlink:href="#DejaVuSans-Bold-6f" transform="translate(295.410156 0)"/>
     <use xlink:href="#DejaVuSans-Bold-20" transform="translate(364.111328 0)"/>
     <use xlink:href="#DejaVuSans-Bold-7a" transform="translate(398.925781 0)"/>
     <use xlink:href="#DejaVuSans-Bold-6f" transform="translate(457.128906 0)"/>
     <use xlink:href="#DejaVuSans-Bold-6e" transform="translate(525.830078 0)"/>
     <use xlink:href="#DejaVuSans-Bold-61" transform="translate(597.021484 0)"/>
     <use xlink:href="#DejaVuSans-Bold-20" transform="translate(664.501953 0)"/>
     <use xlink:href="#DejaVuSans-Bold-2014" transform="translate(699.316406 0)"/>
     <use xlink:href="#DejaVuSans-Bold-20" transform="translate(799.316406 0)"/>
     <use xlink:href="#DejaVuSans-Bold-6d" transform="translate(834.130859 0)"/>
     <use xlink:href="#DejaVuSans-Bold-6f" transform="translate(938.330078 0)"/>
     <use xlink:href="#DejaVuSans-Bold-64" transform="translate(1007.03125 0)"/>
     <use xlink:href="#DejaVuSans-Bold-6f" transform="translate(1078.613281 0)"/>
     <use xlink:href="#DejaVuSans-Bold-20" transform="translate(1147.314453 0)"/>
     <use xlink:href="#DejaVuSans-Bold-6f" transform="translate(1182.128906 0)"/>
     <use xlink:href="#DejaVuSans-Bold-74" transform="translate(1250.830078 0)"/>
     <use xlink:href="#DejaVuSans-Bold-74" transform="translate(1298.632812 0)"/>
     <use xlink:href="#DejaVuSans-Bold-69" transform="translate(1346.435547 0)"/>
     <use xlink:href="#DejaVuSans-Bold-63" transform="translate(1380.712891 0)"/>
     <use xlink:href="#DejaVuSans-Bold-6f" transform="translate(1439.990234 0)"/>
     <use xlink:href="#DejaVuSans-Bold-20" transform="translate(1508.691406 0)"/>
     <use xlink:href="#DejaVuSans-Bold-6c" transform="translate(1543.505859 0)"/>
     <use xlink:href="#DejaVuSans-Bold-6f" transform="translate(1577.783203 0)"/>
     <use xlink:href="#DejaVuSans-Bold-6e" transform="translate(1646.484375 0)"/>
     <use xlink:href="#DejaVuSans-Bold-67" transform="translate(1717.675781 0)"/>
     <use xlink:href="#DejaVuSans-Bold-69" transform="translate(1789.257812 0)"/>
     <use xlink:href="#DejaVuSans-Bold-74" transform="translate(1823.535156 0)"/>
     <use xlink:href="#DejaVuSans-Bold-75" transform="translate(1871.337891 0)"/>
     <use xlink:href="#DejaVuSans-Bold-64" transform="translate(1942.529297 0)"/>
     <use xlink:href="#DejaVuSans-Bold-69" transform="translate(2014.111328 0)"/>
     <use xlink:href="#DejaVuSans-Bold-6e" transform="translate(2048.388672 0)"/>
     <use xlink:href="#DejaVuSans-Bold-61" transform="translate(2119.580078 0)"/>
     <use xlink:href="#DejaVuSans-Bold-6c" transform="translate(2187.060547 0)"/>
     <use xlink:href="#DejaVuSans-Bold-65" transform="translate(2221.337891 0)"/>
    </g>
   </g>
  </g>
  <g id="axes_3">
   <g id="patch_50">
    <path d="M 47.463529 388.344522 
C 50.533458 388.344522 53.478064 387.202772 55.648831 385.170731 
C 57.819599 383.138689 59.039294 380.382263 59.039294 377.508522 
C 59.039294 374.634781 57.819599 371.878354 55.648831 369.846313 
C 53.478064 367.814271 50.533458 366.672522 47.463529 366.672522 
C 44.393601 366.672522 41.448995 367.814271 39.278228 369.846313 
C 37.10746 371.878354 35.887765 374.634781 35.887765 377.508522 
C 35.887765 380.382263 37.10746 383.138689 39.278228 385.170731 
C 41.448995 387.202772 44.393601 388.344522 47.463529 388.344522 
L 47.463529 388.344522 
z
" clip-path="url(#p28df7fd983)" style="fill: none; stroke: #000000; stroke-width: 1.5; stroke-linejoin: miter"/>
   </g>
   <g id="patch_51">
    <path d="M 85.210588 385.046609 
C 87.346191 385.046609 89.394612 384.252348 90.904711 382.838754 
C 92.41481 381.42516 93.263294 379.507646 93.263294 377.508522 
C 93.263294 375.509398 92.41481 373.591883 90.904711 372.178289 
C 89.394612 370.764695 87.346191 369.970435 85.210588 369.970435 
C 83.074986 369.970435 81.026564 370.764695 79.516465 372.178289 
C 78.006366 373.591883 77.157882 375.509398 77.157882 377.508522 
C 77.157882 379.507646 78.006366 381.42516 79.516465 382.838754 
C 81.026564 384.252348 83.074986 385.046609 85.210588 385.046609 
z
" clip-path="url(#p28df7fd983)" style="fill: #1f77b4; opacity: 0.45"/>
   </g>
   <g id="patch_52">
    <path d="M 148.122353 388.344522 
C 151.192282 388.344522 154.136887 387.202772 156.307655 385.170731 
C 158.478422 383.138689 159.698118 380.382263 159.698118 377.508522 
C 159.698118 374.634781 158.478422 371.878354 156.307655 369.846313 
C 154.136887 367.814271 151.192282 366.672522 148.122353 366.672522 
C 145.052424 366.672522 142.107819 367.814271 139.937051 369.846313 
C 137.766284 371.878354 136.546588 374.634781 136.546588 377.508522 
C 136.546588 380.382263 137.766284 383.138689 139.937051 385.170731 
C 142.107819 387.202772 145.052424 388.344522 148.122353 388.344522 
L 148.122353 388.344522 
z
" clip-path="url(#p28df7fd983)" style="fill: none; stroke: #000000; stroke-width: 1.5; stroke-linejoin: miter"/>
   </g>
   <g id="patch_53">
    <path d="M 185.869412 385.046609 
C 188.005014 385.046609 190.053436 384.252348 191.563535 382.838754 
C 193.073634 381.42516 193.922118 379.507646 193.922118 377.508522 
C 193.922118 375.509398 193.073634 373.591883 191.563535 372.178289 
C 190.053436 370.764695 188.005014 369.970435 185.869412 369.970435 
C 183.733809 369.970435 181.685388 370.764695 180.175289 372.178289 
C 178.66519 373.591883 177.816706 375.509398 177.816706 377.508522 
C 177.816706 379.507646 178.66519 381.42516 180.175289 382.838754 
C 181.685388 384.252348 183.733809 385.046609 185.869412 385.046609 
z
" clip-path="url(#p28df7fd983)" style="fill: #1f77b4; opacity: 0.45"/>
   </g>
   <g id="patch_54">
    <path d="M 248.781176 388.344522 
C 251.851105 388.344522 254.795711 387.202772 256.966478 385.170731 
C 259.137246 383.138689 260.356941 380.382263 260.356941 377.508522 
C 260.356941 374.634781 259.137246 371.878354 256.966478 369.846313 
C 254.795711 367.814271 251.851105 366.672522 248.781176 366.672522 
C 245.711248 366.672522 242.766642 367.814271 240.595875 369.846313 
C 238.425107 371.878354 237.205412 374.634781 237.205412 377.508522 
C 237.205412 380.382263 238.425107 383.138689 240.595875 385.170731 
C 242.766642 387.202772 245.711248 388.344522 248.781176 388.344522 
L 248.781176 388.344522 
z
" clip-path="url(#p28df7fd983)" style="fill: none; stroke: #000000; stroke-width: 1.5; stroke-linejoin: miter"/>
   </g>
   <g id="patch_55">
    <path d="M 286.528235 385.046609 
C 288.663838 385.046609 290.712259 384.252348 292.222358 382.838754 
C 293.732457 381.42516 294.580941 379.507646 294.580941 377.508522 
C 294.580941 375.509398 293.732457 373.591883 292.222358 372.178289 
C 290.712259 370.764695 288.663838 369.970435 286.528235 369.970435 
C 284.392633 369.970435 282.344211 370.764695 280.834112 372.178289 
C 279.324013 373.591883 278.475529 375.509398 278.475529 377.508522 
C 278.475529 379.507646 279.324013 381.42516 280.834112 382.838754 
C 282.344211 384.252348 284.392633 385.046609 286.528235 385.046609 
z
" clip-path="url(#p28df7fd983)" style="fill: #1f77b4; opacity: 0.45"/>
   </g>
   <g id="patch_56">
    <path d="M 349.44 388.344522 
C 352.509929 388.344522 355.454534 387.202772 357.625302 385.170731 
C 359.796069 383.138689 361.015765 380.382263 361.015765 377.508522 
C 361.015765 374.634781 359.796069 371.878354 357.625302 369.846313 
C 355.454534 367.814271 352.509929 366.672522 349.44 366.672522 
C 346.370071 366.672522 343.425466 367.814271 341.254698 369.846313 
C 339.083931 371.878354 337.864235 374.634781 337.864235 377.508522 
C 337.864235 380.382263 339.083931 383.138689 341.254698 385.170731 
C 343.425466 387.202772 346.370071 388.344522 349.44 388.344522 
L 349.44 388.344522 
z
" clip-path="url(#p28df7fd983)" style="fill: none; stroke: #000000; stroke-width: 1.5; stroke-linejoin: miter"/>
   </g>
   <g id="patch_57">
    <path d="M 387.187059 385.046609 
C 389.322661 385.046609 391.371083 384.252348 392.881182 382.838754 
C 394.391281 381.42516 395.239765 379.507646 395.239765 377.508522 
C 395.239765 375.509398 394.391281 373.591883 392.881182 372.178289 
C 391.371083 370.764695 389.322661 369.970435 387.187059 369.970435 
C 385.051456 369.970435 383.003035 370.764695 381.492936 372.178289 
C 379.982837 373.591883 379.134353 375.509398 379.134353 377.508522 
C 379.134353 379.507646 379.982837 381.42516 381.492936 382.838754 
C 383.003035 384.252348 385.051456 385.046609 387.187059 385.046609 
z
" clip-path="url(#p28df7fd983)" style="fill: #1f77b4; opacity: 0.45"/>
   </g>
   <g id="patch_58">
    <path d="M 450.098824 388.344522 
C 453.168752 388.344522 456.113358 387.202772 458.284125 385.170731 
C 460.454893 383.138689 461.674588 380.382263 461.674588 377.508522 
C 461.674588 374.634781 460.454893 371.878354 458.284125 369.846313 
C 456.113358 367.814271 453.168752 366.672522 450.098824 366.672522 
C 447.028895 366.672522 444.084289 367.814271 441.913522 369.846313 
C 439.742754 371.878354 438.523059 374.634781 438.523059 377.508522 
C 438.523059 380.382263 439.742754 383.138689 441.913522 385.170731 
C 444.084289 387.202772 447.028895 388.344522 450.098824 388.344522 
L 450.098824 388.344522 
z
" clip-path="url(#p28df7fd983)" style="fill: none; stroke: #000000; stroke-width: 1.5; stroke-linejoin: miter"/>
   </g>
   <g id="patch_59">
    <path d="M 487.845882 385.046609 
C 489.981485 385.046609 492.029906 384.252348 493.540005 382.838754 
C 495.050104 381.42516 495.898588 379.507646 495.898588 377.508522 
C 495.898588 375.509398 495.050104 373.591883 493.540005 372.178289 
C 492.029906 370.764695 489.981485 369.970435 487.845882 369.970435 
C 485.71028 369.970435 483.661858 370.764695 482.151759 372.178289 
C 480.64166 373.591883 479.793176 375.509398 479.793176 377.508522 
C 479.793176 379.507646 480.64166 381.42516 482.151759 382.838754 
C 483.661858 384.252348 485.71028 385.046609 487.845882 385.046609 
z
" clip-path="url(#p28df7fd983)" style="fill: #1f77b4; opacity: 0.45"/>
   </g>
   <g id="patch_60">
    <path d="M 550.757647 388.344522 
C 553.827576 388.344522 556.772181 387.202772 558.942949 385.170731 
C 561.113716 383.138689 562.333412 380.382263 562.333412 377.508522 
C 562.333412 374.634781 561.113716 371.878354 558.942949 369.846313 
C 556.772181 367.814271 553.827576 366.672522 550.757647 366.672522 
C 547.687718 366.672522 544.743113 367.814271 542.572345 369.846313 
C 540.401578 371.878354 539.181882 374.634781 539.181882 377.508522 
C 539.181882 380.382263 540.401578 383.138689 542.572345 385.170731 
C 544.743113 387.202772 547.687718 388.344522 550.757647 388.344522 
L 550.757647 388.344522 
z
" clip-path="url(#p28df7fd983)" style="fill: none; stroke: #000000; stroke-width: 1.5; stroke-linejoin: miter"/>
   </g>
   <g id="patch_61">
    <path d="M 588.504706 385.046609 
C 590.640308 385.046609 592.68873 384.252348 594.198829 382.838754 
C 595.708928 381.42516 596.557412 379.507646 596.557412 377.508522 
C 596.557412 375.509398 595.708928 373.591883 594.198829 372.178289 
C 592.68873 370.764695 590.640308 369.970435 588.504706 369.970435 
C 586.369103 369.970435 584.320682 370.764695 582.810583 372.178289 
C 581.300484 373.591883 580.452 375.509398 580.452 377.508522 
C 580.452 379.507646 581.300484 381.42516 582.810583 382.838754 
C 584.320682 384.252348 586.369103 385.046609 588.504706 385.046609 
z
" clip-path="url(#p28df7fd983)" style="fill: #1f77b4; opacity: 0.45"/>
   </g>
   <g id="line2d_15">
    <path d="M 7.2 377.508522 
L 648.9 377.508522 
" clip-path="url(#p28df7fd983)" style="fill: none; stroke: #1f77b4; stroke-width: 0.8; stroke-linecap: square"/>
   </g>
   <g id="line2d_16">
    <path d="M 115.408235 410.487652 
L 115.408235 344.529391 
" clip-path="url(#p28df7fd983)" style="fill: none; stroke-dasharray: 2.59,1.12; stroke-dashoffset: 0; stroke: #1f77b4; stroke-width: 0.7"/>
   </g>
   <g id="line2d_17">
    <path d="M 216.067059 410.487652 
L 216.067059 344.529391 
" clip-path="url(#p28df7fd983)" style="fill: none; stroke-dasharray: 2.59,1.12; stroke-dashoffset: 0; stroke: #ff7f0e; stroke-width: 0.7"/>
   </g>
   <g id="line2d_18">
    <path d="M 316.725882 410.487652 
L 316.725882 344.529391 
" clip-path="url(#p28df7fd983)" style="fill: none; stroke-dasharray: 2.59,1.12; stroke-dashoffset: 0; stroke: #2ca02c; stroke-width: 0.7"/>
   </g>
   <g id="line2d_19">
    <path d="M 417.384706 410.487652 
L 417.384706 344.529391 
" clip-path="url(#p28df7fd983)" style="fill: none; stroke-dasharray: 2.59,1.12; stroke-dashoffset: 0; stroke: #d62728; stroke-width: 0.7"/>
   </g>
   <g id="line2d_20">
    <path d="M 518.043529 410.487652 
L 518.043529 344.529391 
" clip-path="url(#p28df7fd983)" style="fill: none; stroke-dasharray: 2.59,1.12; stroke-dashoffset: 0; stroke: #9467bd; stroke-width: 0.7"/>
   </g>
   <g id="line2d_21">
    <path d="M 618.702353 410.487652 
L 618.702353 344.529391 
" clip-path="url(#p28df7fd983)" style="fill: none; stroke-dasharray: 2.59,1.12; stroke-dashoffset: 0; stroke: #8c564b; stroke-width: 0.7"/>
   </g>
   <g id="patch_62">
    <path d="M 49.465893 360.076696 
Q 59.544435 360.076696 68.05773 360.076696 
" style="fill: none; stroke: #000000; stroke-width: 1.4; stroke-linecap: round"/>
    <path d="M 62.85773 357.476696 
L 68.05773 360.076696 
L 62.85773 362.676696 
z
" style="fill: #1f77b4; stroke: #000000; stroke-width: 1.4; stroke-linecap: round"/>
   </g>
   <g id="patch_63">
    <path d="M 87.213689 360.076696 
Q 94.77357 360.076696 100.768204 360.076696 
" style="fill: none; stroke: #000000; stroke-width: 1.4; stroke-linecap: round"/>
    <path d="M 95.568204 357.476696 
L 100.768204 360.076696 
L 95.568204 362.676696 
z
" style="fill: #1f77b4; stroke: #000000; stroke-width: 1.4; stroke-linecap: round"/>
   </g>
   <g id="patch_64">
    <path d="M 146.119989 360.076696 
Q 136.041447 360.076696 127.528153 360.076696 
" style="fill: none; stroke: #000000; stroke-width: 1.4; stroke-linecap: round"/>
    <path d="M 132.728153 362.676696 
L 127.528153 360.076696 
L 132.728153 357.476696 
z
" style="fill: #1f77b4; stroke: #000000; stroke-width: 1.4; stroke-linecap: round"/>
   </g>
   <g id="patch_65">
    <path d="M 183.866311 360.076696 
Q 176.30643 360.076696 170.311796 360.076696 
" style="fill: none; stroke: #000000; stroke-width: 1.4; stroke-linecap: round"/>
    <path d="M 175.511796 362.676696 
L 170.311796 360.076696 
L 175.511796 357.476696 
z
" style="fill: #1f77b4; stroke: #000000; stroke-width: 1.4; stroke-linecap: round"/>
   </g>
   <g id="patch_66">
    <path d="M 250.78354 360.076696 
Q 260.862082 360.076696 269.375377 360.076696 
" style="fill: none; stroke: #000000; stroke-width: 1.4; stroke-linecap: round"/>
    <path d="M 264.175377 357.476696 
L 269.375377 360.076696 
L 264.175377 362.676696 
z
" style="fill: #1f77b4; stroke: #000000; stroke-width: 1.4; stroke-linecap: round"/>
   </g>
   <g id="patch_67">
    <path d="M 288.531336 360.076696 
Q 296.091217 360.076696 302.085851 360.076696 
" style="fill: none; stroke: #000000; stroke-width: 1.4; stroke-linecap: round"/>
    <path d="M 296.885851 357.476696 
L 302.085851 360.076696 
L 296.885851 362.676696 
z
" style="fill: #1f77b4; stroke: #000000; stroke-width: 1.4; stroke-linecap: round"/>
   </g>
   <g id="patch_68">
    <path d="M 347.437636 360.076696 
Q 337.359094 360.076696 328.8458 360.076696 
" style="fill: none; stroke: #000000; stroke-width: 1.4; stroke-linecap: round"/>
    <path d="M 334.0458 362.676696 
L 328.8458 360.076696 
L 334.0458 357.476696 
z
" style="fill: #1f77b4; stroke: #000000; stroke-width: 1.4; stroke-linecap: round"/>
   </g>
   <g id="patch_69">
    <path d="M 385.183958 360.076696 
Q 377.624077 360.076696 371.629443 360.076696 
" style="fill: none; stroke: #000000; stroke-width: 1.4; stroke-linecap: round"/>
    <path d="M 376.829443 362.676696 
L 371.629443 360.076696 
L 376.829443 357.476696 
z
" style="fill: #1f77b4; stroke: #000000; stroke-width: 1.4; stroke-linecap: round"/>
   </g>
   <g id="patch_70">
    <path d="M 452.101187 360.076696 
Q 462.179729 360.076696 470.693024 360.076696 
" style="fill: none; stroke: #000000; stroke-width: 1.4; stroke-linecap: round"/>
    <path d="M 465.493024 357.476696 
L 470.693024 360.076696 
L 465.493024 362.676696 
z
" style="fill: #1f77b4; stroke: #000000; stroke-width: 1.4; stroke-linecap: round"/>
   </g>
   <g id="patch_71">
    <path d="M 489.848983 360.076696 
Q 497.408864 360.076696 503.403498 360.076696 
" style="fill: none; stroke: #000000; stroke-width: 1.4; stroke-linecap: round"/>
    <path d="M 498.203498 357.476696 
L 503.403498 360.076696 
L 498.203498 362.676696 
z
" style="fill: #1f77b4; stroke: #000000; stroke-width: 1.4; stroke-linecap: round"/>
   </g>
   <g id="patch_72">
    <path d="M 548.755284 360.076696 
Q 538.676741 360.076696 530.163447 360.076696 
" style="fill: none; stroke: #000000; stroke-width: 1.4; stroke-linecap: round"/>
    <path d="M 535.363447 362.676696 
L 530.163447 360.076696 
L 535.363447 357.476696 
z
" style="fill: #1f77b4; stroke: #000000; stroke-width: 1.4; stroke-linecap: round"/>
   </g>
   <g id="patch_73">
    <path d="M 586.501605 360.076696 
Q 578.941724 360.076696 572.94709 360.076696 
" style="fill: none; stroke: #000000; stroke-width: 1.4; stroke-linecap: round"/>
    <path d="M 578.14709 362.676696 
L 572.94709 360.076696 
L 578.14709 357.476696 
z
" style="fill: #1f77b4; stroke: #000000; stroke-width: 1.4; stroke-linecap: round"/>
   </g>
   <g id="text_3">
    <!-- bordo zona — modo acustico longitudinale -->
    <g transform="translate(19.782353 340.454779) scale(0.11 -0.11)">
     <defs>
      <path id="DejaVuSans-Bold-62" d="M 2400 722 
Q 2759 722 2948 984 
Q 3138 1247 3138 1747 
Q 3138 2247 2948 2509 
Q 2759 2772 2400 2772 
Q 2041 2772 1848 2508 
Q 1656 2244 1656 1747 
Q 1656 1250 1848 986 
Q 2041 722 2400 722 
z
M 1656 2988 
Q 1888 3294 2169 3439 
Q 2450 3584 2816 3584 
Q 3463 3584 3878 3070 
Q 4294 2556 4294 1747 
Q 4294 938 3878 423 
Q 3463 -91 2816 -91 
Q 2450 -91 2169 54 
Q 1888 200 1656 506 
L 1656 0 
L 538 0 
L 538 4863 
L 1656 4863 
L 1656 2988 
z
" transform="scale(0.015625)"/>
     </defs>
     <use xlink:href="#DejaVuSans-Bold-62"/>
     <use xlink:href="#DejaVuSans-Bold-6f" transform="translate(71.582031 0)"/>
     <use xlink:href="#DejaVuSans-Bold-72" transform="translate(140.283203 0)"/>
     <use xlink:href="#DejaVuSans-Bold-64" transform="translate(189.599609 0)"/>
     <use xlink:href="#DejaVuSans-Bold-6f" transform="translate(261.181641 0)"/>
     <use xlink:href="#DejaVuSans-Bold-20" transform="translate(329.882812 0)"/>
     <use xlink:href="#DejaVuSans-Bold-7a" transform="translate(364.697266 0)"/>
     <use xlink:href="#DejaVuSans-Bold-6f" transform="translate(422.900391 0)"/>
     <use xlink:href="#DejaVuSans-Bold-6e" transform="translate(491.601562 0)"/>
     <use xlink:href="#DejaVuSans-Bold-61" transform="translate(562.792969 0)"/>
     <use xlink:href="#DejaVuSans-Bold-20" transform="translate(630.273438 0)"/>
     <use xlink:href="#DejaVuSans-Bold-2014" transform="translate(665.087891 0)"/>
     <use xlink:href="#DejaVuSans-Bold-20" transform="translate(765.087891 0)"/>
     <use xlink:href="#DejaVuSans-Bold-6d" transform="translate(799.902344 0)"/>
     <use xlink:href="#DejaVuSans-Bold-6f" transform="translate(904.101562 0)"/>
     <use xlink:href="#DejaVuSans-Bold-64" transform="translate(972.802734 0)"/>
     <use xlink:href="#DejaVuSans-Bold-6f" transform="translate(1044.384766 0)"/>
     <use xlink:href="#DejaVuSans-Bold-20" transform="translate(1113.085938 0)"/>
     <use xlink:href="#DejaVuSans-Bold-61" transform="translate(1147.900391 0)"/>
     <use xlink:href="#DejaVuSans-Bold-63" transform="translate(1215.380859 0)"/>
     <use xlink:href="#DejaVuSans-Bold-75" transform="translate(1274.658203 0)"/>
     <use xlink:href="#DejaVuSans-Bold-73" transform="translate(1345.849609 0)"/>
     <use xlink:href="#DejaVuSans-Bold-74" transform="translate(1405.371094 0)"/>
     <use xlink:href="#DejaVuSans-Bold-69" transform="translate(1453.173828 0)"/>
     <use xlink:href="#DejaVuSans-Bold-63" transform="translate(1487.451172 0)"/>
     <use xlink:href="#DejaVuSans-Bold-6f" transform="translate(1546.728516 0)"/>
     <use xlink:href="#DejaVuSans-Bold-20" transform="translate(1615.429688 0)"/>
     <use xlink:href="#DejaVuSans-Bold-6c" transform="translate(1650.244141 0)"/>
     <use xlink:href="#DejaVuSans-Bold-6f" transform="translate(1684.521484 0)"/>
     <use xlink:href="#DejaVuSans-Bold-6e" transform="translate(1753.222656 0)"/>
     <use xlink:href="#DejaVuSans-Bold-67" transform="translate(1824.414062 0)"/>
     <use xlink:href="#DejaVuSans-Bold-69" transform="translate(1895.996094 0)"/>
     <use xlink:href="#DejaVuSans-Bold-74" transform="translate(1930.273438 0)"/>
     <use xlink:href="#DejaVuSans-Bold-75" transform="translate(1978.076172 0)"/>
     <use xlink:href="#DejaVuSans-Bold-64" transform="translate(2049.267578 0)"/>
     <use xlink:href="#DejaVuSans-Bold-69" transform="translate(2120.849609 0)"/>
     <use xlink:href="#DejaVuSans-Bold-6e" transform="translate(2155.126953 0)"/>
     <use xlink:href="#DejaVuSans-Bold-61" transform="translate(2226.318359 0)"/>
     <use xlink:href="#DejaVuSans-Bold-6c" transform="translate(2293.798828 0)"/>
     <use xlink:href="#DejaVuSans-Bold-65" transform="translate(2328.076172 0)"/>
    </g>
   </g>
  </g>
  <g id="axes_4">
   <g id="patch_74">
    <path d="M 47.463529 512.722957 
C 50.533458 512.722957 53.478064 511.581207 55.648831 509.549166 
C 57.819599 507.517124 59.039294 504.760697 59.039294 501.886957 
C 59.039294 499.013216 57.819599 496.256789 55.648831 494.224747 
C 53.478064 492.192706 50.533458 491.050957 47.463529 491.050957 
C 44.393601 491.050957 41.448995 492.192706 39.278228 494.224747 
C 37.10746 496.256789 35.887765 499.013216 35.887765 501.886957 
C 35.887765 504.760697 37.10746 507.517124 39.278228 509.549166 
C 41.448995 511.581207 44.393601 512.722957 47.463529 512.722957 
L 47.463529 512.722957 
z
" clip-path="url(#p3c84755317)" style="fill: none; stroke: #000000; stroke-width: 1.5; stroke-linejoin: miter"/>
   </g>
   <g id="patch_75">
    <path d="M 85.210588 509.425043 
C 87.346191 509.425043 89.394612 508.630783 90.904711 507.217189 
C 92.41481 505.803595 93.263294 503.886081 93.263294 501.886957 
C 93.263294 499.887832 92.41481 497.970318 90.904711 496.556724 
C 89.394612 495.14313 87.346191 494.34887 85.210588 494.34887 
C 83.074986 494.34887 81.026564 495.14313 79.516465 496.556724 
C 78.006366 497.970318 77.157882 499.887832 77.157882 501.886957 
C 77.157882 503.886081 78.006366 505.803595 79.516465 507.217189 
C 81.026564 508.630783 83.074986 509.425043 85.210588 509.425043 
z
" clip-path="url(#p3c84755317)" style="fill: #1f77b4; opacity: 0.45"/>
   </g>
   <g id="patch_76">
    <path d="M 148.122353 512.722957 
C 151.192282 512.722957 154.136887 511.581207 156.307655 509.549166 
C 158.478422 507.517124 159.698118 504.760697 159.698118 501.886957 
C 159.698118 499.013216 158.478422 496.256789 156.307655 494.224747 
C 154.136887 492.192706 151.192282 491.050957 148.122353 491.050957 
C 145.052424 491.050957 142.107819 492.192706 139.937051 494.224747 
C 137.766284 496.256789 136.546588 499.013216 136.546588 501.886957 
C 136.546588 504.760697 137.766284 507.517124 139.937051 509.549166 
C 142.107819 511.581207 145.052424 512.722957 148.122353 512.722957 
L 148.122353 512.722957 
z
" clip-path="url(#p3c84755317)" style="fill: none; stroke: #000000; stroke-width: 1.5; stroke-linejoin: miter"/>
   </g>
   <g id="patch_77">
    <path d="M 185.869412 509.425043 
C 188.005014 509.425043 190.053436 508.630783 191.563535 507.217189 
C 193.073634 505.803595 193.922118 503.886081 193.922118 501.886957 
C 193.922118 499.887832 193.073634 497.970318 191.563535 496.556724 
C 190.053436 495.14313 188.005014 494.34887 185.869412 494.34887 
C 183.733809 494.34887 181.685388 495.14313 180.175289 496.556724 
C 178.66519 497.970318 177.816706 499.887832 177.816706 501.886957 
C 177.816706 503.886081 178.66519 505.803595 180.175289 507.217189 
C 181.685388 508.630783 183.733809 509.425043 185.869412 509.425043 
z
" clip-path="url(#p3c84755317)" style="fill: #1f77b4; opacity: 0.45"/>
   </g>
   <g id="patch_78">
    <path d="M 248.781176 512.722957 
C 251.851105 512.722957 254.795711 511.581207 256.966478 509.549166 
C 259.137246 507.517124 260.356941 504.760697 260.356941 501.886957 
C 260.356941 499.013216 259.137246 496.256789 256.966478 494.224747 
C 254.795711 492.192706 251.851105 491.050957 248.781176 491.050957 
C 245.711248 491.050957 242.766642 492.192706 240.595875 494.224747 
C 238.425107 496.256789 237.205412 499.013216 237.205412 501.886957 
C 237.205412 504.760697 238.425107 507.517124 240.595875 509.549166 
C 242.766642 511.581207 245.711248 512.722957 248.781176 512.722957 
L 248.781176 512.722957 
z
" clip-path="url(#p3c84755317)" style="fill: none; stroke: #000000; stroke-width: 1.5; stroke-linejoin: miter"/>
   </g>
   <g id="patch_79">
    <path d="M 286.528235 509.425043 
C 288.663838 509.425043 290.712259 508.630783 292.222358 507.217189 
C 293.732457 505.803595 294.580941 503.886081 294.580941 501.886957 
C 294.580941 499.887832 293.732457 497.970318 292.222358 496.556724 
C 290.712259 495.14313 288.663838 494.34887 286.528235 494.34887 
C 284.392633 494.34887 282.344211 495.14313 280.834112 496.556724 
C 279.324013 497.970318 278.475529 499.887832 278.475529 501.886957 
C 278.475529 503.886081 279.324013 505.803595 280.834112 507.217189 
C 282.344211 508.630783 284.392633 509.425043 286.528235 509.425043 
z
" clip-path="url(#p3c84755317)" style="fill: #1f77b4; opacity: 0.45"/>
   </g>
   <g id="patch_80">
    <path d="M 349.44 512.722957 
C 352.509929 512.722957 355.454534 511.581207 357.625302 509.549166 
C 359.796069 507.517124 361.015765 504.760697 361.015765 501.886957 
C 361.015765 499.013216 359.796069 496.256789 357.625302 494.224747 
C 355.454534 492.192706 352.509929 491.050957 349.44 491.050957 
C 346.370071 491.050957 343.425466 492.192706 341.254698 494.224747 
C 339.083931 496.256789 337.864235 499.013216 337.864235 501.886957 
C 337.864235 504.760697 339.083931 507.517124 341.254698 509.549166 
C 343.425466 511.581207 346.370071 512.722957 349.44 512.722957 
L 349.44 512.722957 
z
" clip-path="url(#p3c84755317)" style="fill: none; stroke: #000000; stroke-width: 1.5; stroke-linejoin: miter"/>
   </g>
   <g id="patch_81">
    <path d="M 387.187059 509.425043 
C 389.322661 509.425043 391.371083 508.630783 392.881182 507.217189 
C 394.391281 505.803595 395.239765 503.886081 395.239765 501.886957 
C 395.239765 499.887832 394.391281 497.970318 392.881182 496.556724 
C 391.371083 495.14313 389.322661 494.34887 387.187059 494.34887 
C 385.051456 494.34887 383.003035 495.14313 381.492936 496.556724 
C 379.982837 497.970318 379.134353 499.887832 379.134353 501.886957 
C 379.134353 503.886081 379.982837 505.803595 381.492936 507.217189 
C 383.003035 508.630783 385.051456 509.425043 387.187059 509.425043 
z
" clip-path="url(#p3c84755317)" style="fill: #1f77b4; opacity: 0.45"/>
   </g>
   <g id="patch_82">
    <path d="M 450.098824 512.722957 
C 453.168752 512.722957 456.113358 511.581207 458.284125 509.549166 
C 460.454893 507.517124 461.674588 504.760697 461.674588 501.886957 
C 461.674588 499.013216 460.454893 496.256789 458.284125 494.224747 
C 456.113358 492.192706 453.168752 491.050957 450.098824 491.050957 
C 447.028895 491.050957 444.084289 492.192706 441.913522 494.224747 
C 439.742754 496.256789 438.523059 499.013216 438.523059 501.886957 
C 438.523059 504.760697 439.742754 507.517124 441.913522 509.549166 
C 444.084289 511.581207 447.028895 512.722957 450.098824 512.722957 
L 450.098824 512.722957 
z
" clip-path="url(#p3c84755317)" style="fill: none; stroke: #000000; stroke-width: 1.5; stroke-linejoin: miter"/>
   </g>
   <g id="patch_83">
    <path d="M 487.845882 509.425043 
C 489.981485 509.425043 492.029906 508.630783 493.540005 507.217189 
C 495.050104 505.803595 495.898588 503.886081 495.898588 501.886957 
C 495.898588 499.887832 495.050104 497.970318 493.540005 496.556724 
C 492.029906 495.14313 489.981485 494.34887 487.845882 494.34887 
C 485.71028 494.34887 483.661858 495.14313 482.151759 496.556724 
C 480.64166 497.970318 479.793176 499.887832 479.793176 501.886957 
C 479.793176 503.886081 480.64166 505.803595 482.151759 507.217189 
C 483.661858 508.630783 485.71028 509.425043 487.845882 509.425043 
z
" clip-path="url(#p3c84755317)" style="fill: #1f77b4; opacity: 0.45"/>
   </g>
   <g id="patch_84">
    <path d="M 550.757647 512.722957 
C 553.827576 512.722957 556.772181 511.581207 558.942949 509.549166 
C 561.113716 507.517124 562.333412 504.760697 562.333412 501.886957 
C 562.333412 499.013216 561.113716 496.256789 558.942949 494.224747 
C 556.772181 492.192706 553.827576 491.050957 550.757647 491.050957 
C 547.687718 491.050957 544.743113 492.192706 542.572345 494.224747 
C 540.401578 496.256789 539.181882 499.013216 539.181882 501.886957 
C 539.181882 504.760697 540.401578 507.517124 542.572345 509.549166 
C 544.743113 511.581207 547.687718 512.722957 550.757647 512.722957 
L 550.757647 512.722957 
z
" clip-path="url(#p3c84755317)" style="fill: none; stroke: #000000; stroke-width: 1.5; stroke-linejoin: miter"/>
   </g>
   <g id="patch_85">
    <path d="M 588.504706 509.425043 
C 590.640308 509.425043 592.68873 508.630783 594.198829 507.217189 
C 595.708928 505.803595 596.557412 503.886081 596.557412 501.886957 
C 596.557412 499.887832 595.708928 497.970318 594.198829 496.556724 
C 592.68873 495.14313 590.640308 494.34887 588.504706 494.34887 
C 586.369103 494.34887 584.320682 495.14313 582.810583 496.556724 
C 581.300484 497.970318 580.452 499.887832 580.452 501.886957 
C 580.452 503.886081 581.300484 505.803595 582.810583 507.217189 
C 584.320682 508.630783 586.369103 509.425043 588.504706 509.425043 
z
" clip-path="url(#p3c84755317)" style="fill: #1f77b4; opacity: 0.45"/>
   </g>
   <g id="line2d_22">
    <path d="M 7.2 501.886957 
L 648.9 501.886957 
" clip-path="url(#p3c84755317)" style="fill: none; stroke: #1f77b4; stroke-width: 0.8; stroke-linecap: square"/>
   </g>
   <g id="line2d_23">
    <path d="M 115.408235 534.866087 
L 115.408235 468.907826 
" clip-path="url(#p3c84755317)" style="fill: none; stroke-dasharray: 2.59,1.12; stroke-dashoffset: 0; stroke: #1f77b4; stroke-width: 0.7"/>
   </g>
   <g id="line2d_24">
    <path d="M 216.067059 534.866087 
L 216.067059 468.907826 
" clip-path="url(#p3c84755317)" style="fill: none; stroke-dasharray: 2.59,1.12; stroke-dashoffset: 0; stroke: #ff7f0e; stroke-width: 0.7"/>
   </g>
   <g id="line2d_25">
    <path d="M 316.725882 534.866087 
L 316.725882 468.907826 
" clip-path="url(#p3c84755317)" style="fill: none; stroke-dasharray: 2.59,1.12; stroke-dashoffset: 0; stroke: #2ca02c; stroke-width: 0.7"/>
   </g>
   <g id="line2d_26">
    <path d="M 417.384706 534.866087 
L 417.384706 468.907826 
" clip-path="url(#p3c84755317)" style="fill: none; stroke-dasharray: 2.59,1.12; stroke-dashoffset: 0; stroke: #d62728; stroke-width: 0.7"/>
   </g>
   <g id="line2d_27">
    <path d="M 518.043529 534.866087 
L 518.043529 468.907826 
" clip-path="url(#p3c84755317)" style="fill: none; stroke-dasharray: 2.59,1.12; stroke-dashoffset: 0; stroke: #9467bd; stroke-width: 0.7"/>
   </g>
   <g id="line2d_28">
    <path d="M 618.702353 534.866087 
L 618.702353 468.907826 
" clip-path="url(#p3c84755317)" style="fill: none; stroke-dasharray: 2.59,1.12; stroke-dashoffset: 0; stroke: #8c564b; stroke-width: 0.7"/>
   </g>
   <g id="patch_86">
    <path d="M 45.464668 484.45513 
Q 36.139429 484.45513 28.379437 484.45513 
" style="fill: none; stroke: #000000; stroke-width: 1.4; stroke-linecap: round"/>
    <path d="M 33.579437 487.05513 
L 28.379437 484.45513 
L 33.579437 481.85513 
z
" style="fill: #1f77b4; stroke: #000000; stroke-width: 1.4; stroke-linecap: round"/>
   </g>
   <g id="patch_87">
    <path d="M 87.20945 484.45513 
Q 96.534689 484.45513 104.29468 484.45513 
" style="fill: none; stroke: #000000; stroke-width: 1.4; stroke-linecap: round"/>
    <path d="M 99.09468 481.85513 
L 104.29468 484.45513 
L 99.09468 487.05513 
z
" style="fill: #1f77b4; stroke: #000000; stroke-width: 1.4; stroke-linecap: round"/>
   </g>
   <g id="patch_88">
    <path d="M 150.121215 484.45513 
Q 159.446454 484.45513 167.206445 484.45513 
" style="fill: none; stroke: #000000; stroke-width: 1.4; stroke-linecap: round"/>
    <path d="M 162.006445 481.85513 
L 167.206445 484.45513 
L 162.006445 487.05513 
z
" style="fill: #1f77b4; stroke: #000000; stroke-width: 1.4; stroke-linecap: round"/>
   </g>
   <g id="patch_89">
    <path d="M 183.87055 484.45513 
Q 174.545311 484.45513 166.78532 484.45513 
" style="fill: none; stroke: #000000; stroke-width: 1.4; stroke-linecap: round"/>
    <path d="M 171.98532 487.05513 
L 166.78532 484.45513 
L 171.98532 481.85513 
z
" style="fill: #1f77b4; stroke: #000000; stroke-width: 1.4; stroke-linecap: round"/>
   </g>
   <g id="patch_90">
    <path d="M 246.782315 484.45513 
Q 237.457076 484.45513 229.697084 484.45513 
" style="fill: none; stroke: #000000; stroke-width: 1.4; stroke-linecap: round"/>
    <path d="M 234.897084 487.05513 
L 229.697084 484.45513 
L 234.897084 481.85513 
z
" style="fill: #1f77b4; stroke: #000000; stroke-width: 1.4; stroke-linecap: round"/>
   </g>
   <g id="patch_91">
    <path d="M 288.527097 484.45513 
Q 297.852336 484.45513 305.612327 484.45513 
" style="fill: none; stroke: #000000; stroke-width: 1.4; stroke-linecap: round"/>
    <path d="M 300.412327 481.85513 
L 305.612327 484.45513 
L 300.412327 487.05513 
z
" style="fill: #1f77b4; stroke: #000000; stroke-width: 1.4; stroke-linecap: round"/>
   </g>
   <g id="patch_92">
    <path d="M 351.438862 484.45513 
Q 360.764101 484.45513 368.524092 484.45513 
" style="fill: none; stroke: #000000; stroke-width: 1.4; stroke-linecap: round"/>
    <path d="M 363.324092 481.85513 
L 368.524092 484.45513 
L 363.324092 487.05513 
z
" style="fill: #1f77b4; stroke: #000000; stroke-width: 1.4; stroke-linecap: round"/>
   </g>
   <g id="patch_93">
    <path d="M 385.188197 484.45513 
Q 375.862958 484.45513 368.102967 484.45513 
" style="fill: none; stroke: #000000; stroke-width: 1.4; stroke-linecap: round"/>
    <path d="M 373.302967 487.05513 
L 368.102967 484.45513 
L 373.302967 481.85513 
z
" style="fill: #1f77b4; stroke: #000000; stroke-width: 1.4; stroke-linecap: round"/>
   </g>
   <g id="patch_94">
    <path d="M 448.099962 484.45513 
Q 438.774723 484.45513 431.014731 484.45513 
" style="fill: none; stroke: #000000; stroke-width: 1.4; stroke-linecap: round"/>
    <path d="M 436.214731 487.05513 
L 431.014731 484.45513 
L 436.214731 481.85513 
z
" style="fill: #1f77b4; stroke: #000000; stroke-width: 1.4; stroke-linecap: round"/>
   </g>
   <g id="patch_95">
    <path d="M 489.844744 484.45513 
Q 499.169983 484.45513 506.929974 484.45513 
" style="fill: none; stroke: #000000; stroke-width: 1.4; stroke-linecap: round"/>
    <path d="M 501.729974 481.85513 
L 506.929974 484.45513 
L 501.729974 487.05513 
z
" style="fill: #1f77b4; stroke: #000000; stroke-width: 1.4; stroke-linecap: round"/>
   </g>
   <g id="patch_96">
    <path d="M 552.756509 484.45513 
Q 562.081748 484.45513 569.841739 484.45513 
" style="fill: none; stroke: #000000; stroke-width: 1.4; stroke-linecap: round"/>
    <path d="M 564.641739 481.85513 
L 569.841739 484.45513 
L 564.641739 487.05513 
z
" style="fill: #1f77b4; stroke: #000000; stroke-width: 1.4; stroke-linecap: round"/>
   </g>
   <g id="patch_97">
    <path d="M 586.505844 484.45513 
Q 577.180605 484.45513 569.420614 484.45513 
" style="fill: none; stroke: #000000; stroke-width: 1.4; stroke-linecap: round"/>
    <path d="M 574.620614 487.05513 
L 569.420614 484.45513 
L 574.620614 481.85513 
z
" style="fill: #1f77b4; stroke: #000000; stroke-width: 1.4; stroke-linecap: round"/>
   </g>
   <g id="text_4">
    <!-- bordo zona — modo ottico longitudinale -->
    <g transform="translate(19.782353 464.833213) scale(0.11 -0.11)">
     <use xlink:href="#DejaVuSans-Bold-62"/>
     <use xlink:href="#DejaVuSans-Bold-6f" transform="translate(71.582031 0)"/>
     <use xlink:href="#DejaVuSans-Bold-72" transform="translate(140.283203 0)"/>
     <use xlink:href="#DejaVuSans-Bold-64" transform="translate(189.599609 0)"/>
     <use xlink:href="#DejaVuSans-Bold-6f" transform="translate(261.181641 0)"/>
     <use xlink:href="#DejaVuSans-Bold-20" transform="translate(329.882812 0)"/>
     <use xlink:href="#DejaVuSans-Bold-7a" transform="translate(364.697266 0)"/>
     <use xlink:href="#DejaVuSans-Bold-6f" transform="translate(422.900391 0)"/>
     <use xlink:href="#DejaVuSans-Bold-6e" transform="translate(491.601562 0)"/>
     <use xlink:href="#DejaVuSans-Bold-61" transform="translate(562.792969 0)"/>
     <use xlink:href="#DejaVuSans-Bold-20" transform="translate(630.273438 0)"/>
     <use xlink:href="#DejaVuSans-Bold-2014" transform="translate(665.087891 0)"/>
     <use xlink:href="#DejaVuSans-Bold-20" transform="translate(765.087891 0)"/>
     <use xlink:href="#DejaVuSans-Bold-6d" transform="translate(799.902344 0)"/>
     <use xlink:href="#DejaVuSans-Bold-6f" transform="translate(904.101562 0)"/>
     <use xlink:href="#DejaVuSans-Bold-64" transform="translate(972.802734 0)"/>
     <use xlink:href="#DejaVuSans-Bold-6f" transform="translate(1044.384766 0)"/>
     <use xlink:href="#DejaVuSans-Bold-20" transform="translate(1113.085938 0)"/>
     <use xlink:href="#DejaVuSans-Bold-6f" transform="translate(1147.900391 0)"/>
     <use xlink:href="#DejaVuSans-Bold-74" transform="translate(1216.601562 0)"/>
     <use xlink:href="#DejaVuSans-Bold-74" transform="translate(1264.404297 0)"/>
     <use xlink:href="#DejaVuSans-Bold-69" transform="translate(1312.207031 0)"/>
     <use xlink:href="#DejaVuSans-Bold-63" transform="translate(1346.484375 0)"/>
     <use xlink:href="#DejaVuSans-Bold-6f" transform="translate(1405.761719 0)"/>
     <use xlink:href="#DejaVuSans-Bold-20" transform="translate(1474.462891 0)"/>
     <use xlink:href="#DejaVuSans-Bold-6c" transform="translate(1509.277344 0)"/>
     <use xlink:href="#DejaVuSans-Bold-6f" transform="translate(1543.554688 0)"/>
     <use xlink:href="#DejaVuSans-Bold-6e" transform="translate(1612.255859 0)"/>
     <use xlink:href="#DejaVuSans-Bold-67" transform="translate(1683.447266 0)"/>
     <use xlink:href="#DejaVuSans-Bold-69" transform="translate(1755.029297 0)"/>
     <use xlink:href="#DejaVuSans-Bold-74" transform="translate(1789.306641 0)"/>
     <use xlink:href="#DejaVuSans-Bold-75" transform="translate(1837.109375 0)"/>
     <use xlink:href="#DejaVuSans-Bold-64" transform="translate(1908.300781 0)"/>
     <use xlink:href="#DejaVuSans-Bold-69" transform="translate(1979.882812 0)"/>
     <use xlink:href="#DejaVuSans-Bold-6e" transform="translate(2014.160156 0)"/>
     <use xlink:href="#DejaVuSans-Bold-61" transform="translate(2085.351562 0)"/>
     <use xlink:href="#DejaVuSans-Bold-6c" transform="translate(2152.832031 0)"/>
     <use xlink:href="#DejaVuSans-Bold-65" transform="translate(2187.109375 0)"/>
    </g>
   </g>
  </g>
  <g id="text_5">
   <!-- Modi longitudinali di una catena biatomica -->
   <g transform="translate(136.790625 18.597656) scale(0.15 -0.15)">
    <defs>
     <path id="DejaVuSans-Bold-4d" d="M 588 4666 
L 2119 4666 
L 3181 2169 
L 4250 4666 
L 5778 4666 
L 5778 0 
L 4641 0 
L 4641 3413 
L 3566 897 
L 2803 897 
L 1728 3413 
L 1728 0 
L 588 0 
L 588 4666 
z
" transform="scale(0.015625)"/>
    </defs>
    <use xlink:href="#DejaVuSans-Bold-4d"/>
    <use xlink:href="#DejaVuSans-Bold-6f" transform="translate(99.511719 0)"/>
    <use xlink:href="#DejaVuSans-Bold-64" transform="translate(168.212891 0)"/>
    <use xlink:href="#DejaVuSans-Bold-69" transform="translate(239.794922 0)"/>
    <use xlink:href="#DejaVuSans-Bold-20" transform="translate(274.072266 0)"/>
    <use xlink:href="#DejaVuSans-Bold-6c" transform="translate(308.886719 0)"/>
    <use xlink:href="#DejaVuSans-Bold-6f" transform="translate(343.164062 0)"/>
    <use xlink:href="#DejaVuSans-Bold-6e" transform="translate(411.865234 0)"/>
    <use xlink:href="#DejaVuSans-Bold-67" transform="translate(483.056641 0)"/>
    <use xlink:href="#DejaVuSans-Bold-69" transform="translate(554.638672 0)"/>
    <use xlink:href="#DejaVuSans-Bold-74" transform="translate(588.916016 0)"/>
    <use xlink:href="#DejaVuSans-Bold-75" transform="translate(636.71875 0)"/>
    <use xlink:href="#DejaVuSans-Bold-64" transform="translate(707.910156 0)"/>
    <use xlink:href="#DejaVuSans-Bold-69" transform="translate(779.492188 0)"/>
    <use xlink:href="#DejaVuSans-Bold-6e" transform="translate(813.769531 0)"/>
    <use xlink:href="#DejaVuSans-Bold-61" transform="translate(884.960938 0)"/>
    <use xlink:href="#DejaVuSans-Bold-6c" transform="translate(952.441406 0)"/>
    <use xlink:href="#DejaVuSans-Bold-69" transform="translate(986.71875 0)"/>
    <use xlink:href="#DejaVuSans-Bold-20" transform="translate(1020.996094 0)"/>
    <use xlink:href="#DejaVuSans-Bold-64" transform="translate(1055.810547 0)"/>
    <use xlink:href="#DejaVuSans-Bold-69" transform="translate(1127.392578 0)"/>
    <use xlink:href="#DejaVuSans-Bold-20" transform="translate(1161.669922 0)"/>
    <use xlink:href="#DejaVuSans-Bold-75" transform="translate(1196.484375 0)"/>
    <use xlink:href="#DejaVuSans-Bold-6e" transform="translate(1267.675781 0)"/>
    <use xlink:href="#DejaVuSans-Bold-61" transform="translate(1338.867188 0)"/>
    <use xlink:href="#DejaVuSans-Bold-20" transform="translate(1406.347656 0)"/>
    <use xlink:href="#DejaVuSans-Bold-63" transform="translate(1441.162109 0)"/>
    <use xlink:href="#DejaVuSans-Bold-61" transform="translate(1500.439453 0)"/>
    <use xlink:href="#DejaVuSans-Bold-74" transform="translate(1567.919922 0)"/>
    <use xlink:href="#DejaVuSans-Bold-65" transform="translate(1615.722656 0)"/>
    <use xlink:href="#DejaVuSans-Bold-6e" transform="translate(1683.544922 0)"/>
    <use xlink:href="#DejaVuSans-Bold-61" transform="translate(1754.736328 0)"/>
    <use xlink:href="#DejaVuSans-Bold-20" transform="translate(1822.216797 0)"/>
    <use xlink:href="#DejaVuSans-Bold-62" transform="translate(1857.03125 0)"/>
    <use xlink:href="#DejaVuSans-Bold-69" transform="translate(1928.613281 0)"/>
    <use xlink:href="#DejaVuSans-Bold-61" transform="translate(1962.890625 0)"/>
    <use xlink:href="#DejaVuSans-Bold-74" transform="translate(2030.371094 0)"/>
    <use xlink:href="#DejaVuSans-Bold-6f" transform="translate(2078.173828 0)"/>
    <use xlink:href="#DejaVuSans-Bold-6d" transform="translate(2146.875 0)"/>
    <use xlink:href="#DejaVuSans-Bold-69" transform="translate(2251.074219 0)"/>
    <use xlink:href="#DejaVuSans-Bold-63" transform="translate(2285.351562 0)"/>
    <use xlink:href="#DejaVuSans-Bold-61" transform="translate(2344.628906 0)"/>
   </g>
  </g>
  <g id="text_6">
   <!-- Le frecce indicano soltanto direzione e verso dello spostamento, non l'ampiezza reale. -->
   <g transform="translate(101.464844 601.632) scale(0.1 -0.1)">
    <defs>
     <path id="DejaVuSans-4c" d="M 628 4666 
L 1259 4666 
L 1259 531 
L 3531 531 
L 3531 0 
L 628 0 
L 628 4666 
z
" transform="scale(0.015625)"/>
     <path id="DejaVuSans-65" d="M 3597 1894 
L 3597 1613 
L 953 1613 
Q 991 1019 1311 708 
Q 1631 397 2203 397 
Q 2534 397 2845 478 
Q 3156 559 3463 722 
L 3463 178 
Q 3153 47 2828 -22 
Q 2503 -91 2169 -91 
Q 1331 -91 842 396 
Q 353 884 353 1716 
Q 353 2575 817 3079 
Q 1281 3584 2069 3584 
Q 2775 3584 3186 3129 
Q 3597 2675 3597 1894 
z
M 3022 2063 
Q 3016 2534 2758 2815 
Q 2500 3097 2075 3097 
Q 1594 3097 1305 2825 
Q 1016 2553 972 2059 
L 3022 2063 
z
" transform="scale(0.015625)"/>
     <path id="DejaVuSans-20" transform="scale(0.015625)"/>
     <path id="DejaVuSans-66" d="M 2375 4863 
L 2375 4384 
L 1825 4384 
Q 1516 4384 1395 4259 
Q 1275 4134 1275 3809 
L 1275 3500 
L 2222 3500 
L 2222 3053 
L 1275 3053 
L 1275 0 
L 697 0 
L 697 3053 
L 147 3053 
L 147 3500 
L 697 3500 
L 697 3744 
Q 697 4328 969 4595 
Q 1241 4863 1831 4863 
L 2375 4863 
z
" transform="scale(0.015625)"/>
     <path id="DejaVuSans-72" d="M 2631 2963 
Q 2534 3019 2420 3045 
Q 2306 3072 2169 3072 
Q 1681 3072 1420 2755 
Q 1159 2438 1159 1844 
L 1159 0 
L 581 0 
L 581 3500 
L 1159 3500 
L 1159 2956 
Q 1341 3275 1631 3429 
Q 1922 3584 2338 3584 
Q 2397 3584 2469 3576 
Q 2541 3569 2628 3553 
L 2631 2963 
z
" transform="scale(0.015625)"/>
     <path id="DejaVuSans-63" d="M 3122 3366 
L 3122 2828 
Q 2878 2963 2633 3030 
Q 2388 3097 2138 3097 
Q 1578 3097 1268 2742 
Q 959 2388 959 1747 
Q 959 1106 1268 751 
Q 1578 397 2138 397 
Q 2388 397 2633 464 
Q 2878 531 3122 666 
L 3122 134 
Q 2881 22 2623 -34 
Q 2366 -91 2075 -91 
Q 1284 -91 818 406 
Q 353 903 353 1747 
Q 353 2603 823 3093 
Q 1294 3584 2113 3584 
Q 2378 3584 2631 3529 
Q 2884 3475 3122 3366 
z
" transform="scale(0.015625)"/>
     <path id="DejaVuSans-69" d="M 603 3500 
L 1178 3500 
L 1178 0 
L 603 0 
L 603 3500 
z
M 603 4863 
L 1178 4863 
L 1178 4134 
L 603 4134 
L 603 4863 
z
" transform="scale(0.015625)"/>
     <path id="DejaVuSans-6e" d="M 3513 2113 
L 3513 0 
L 2938 0 
L 2938 2094 
Q 2938 2591 2744 2837 
Q 2550 3084 2163 3084 
Q 1697 3084 1428 2787 
Q 1159 2491 1159 1978 
L 1159 0 
L 581 0 
L 581 3500 
L 1159 3500 
L 1159 2956 
Q 1366 3272 1645 3428 
Q 1925 3584 2291 3584 
Q 2894 3584 3203 3211 
Q 3513 2838 3513 2113 
z
" transform="scale(0.015625)"/>
     <path id="DejaVuSans-64" d="M 2906 2969 
L 2906 4863 
L 3481 4863 
L 3481 0 
L 2906 0 
L 2906 525 
Q 2725 213 2448 61 
Q 2172 -91 1784 -91 
Q 1150 -91 751 415 
Q 353 922 353 1747 
Q 353 2572 751 3078 
Q 1150 3584 1784 3584 
Q 2172 3584 2448 3432 
Q 2725 3281 2906 2969 
z
M 947 1747 
Q 947 1113 1208 752 
Q 1469 391 1925 391 
Q 2381 391 2643 752 
Q 2906 1113 2906 1747 
Q 2906 2381 2643 2742 
Q 2381 3103 1925 3103 
Q 1469 3103 1208 2742 
Q 947 2381 947 1747 
z
" transform="scale(0.015625)"/>
     <path id="DejaVuSans-61" d="M 2194 1759 
Q 1497 1759 1228 1600 
Q 959 1441 959 1056 
Q 959 750 1161 570 
Q 1363 391 1709 391 
Q 2188 391 2477 730 
Q 2766 1069 2766 1631 
L 2766 1759 
L 2194 1759 
z
M 3341 1997 
L 3341 0 
L 2766 0 
L 2766 531 
Q 2569 213 2275 61 
Q 1981 -91 1556 -91 
Q 1019 -91 701 211 
Q 384 513 384 1019 
Q 384 1609 779 1909 
Q 1175 2209 1959 2209 
L 2766 2209 
L 2766 2266 
Q 2766 2663 2505 2880 
Q 2244 3097 1772 3097 
Q 1472 3097 1187 3025 
Q 903 2953 641 2809 
L 641 3341 
Q 956 3463 1253 3523 
Q 1550 3584 1831 3584 
Q 2591 3584 2966 3190 
Q 3341 2797 3341 1997 
z
" transform="scale(0.015625)"/>
     <path id="DejaVuSans-6f" d="M 1959 3097 
Q 1497 3097 1228 2736 
Q 959 2375 959 1747 
Q 959 1119 1226 758 
Q 1494 397 1959 397 
Q 2419 397 2687 759 
Q 2956 1122 2956 1747 
Q 2956 2369 2687 2733 
Q 2419 3097 1959 3097 
z
M 1959 3584 
Q 2709 3584 3137 3096 
Q 3566 2609 3566 1747 
Q 3566 888 3137 398 
Q 2709 -91 1959 -91 
Q 1206 -91 779 398 
Q 353 888 353 1747 
Q 353 2609 779 3096 
Q 1206 3584 1959 3584 
z
" transform="scale(0.015625)"/>
     <path id="DejaVuSans-73" d="M 2834 3397 
L 2834 2853 
Q 2591 2978 2328 3040 
Q 2066 3103 1784 3103 
Q 1356 3103 1142 2972 
Q 928 2841 928 2578 
Q 928 2378 1081 2264 
Q 1234 2150 1697 2047 
L 1894 2003 
Q 2506 1872 2764 1633 
Q 3022 1394 3022 966 
Q 3022 478 2636 193 
Q 2250 -91 1575 -91 
Q 1294 -91 989 -36 
Q 684 19 347 128 
L 347 722 
Q 666 556 975 473 
Q 1284 391 1588 391 
Q 1994 391 2212 530 
Q 2431 669 2431 922 
Q 2431 1156 2273 1281 
Q 2116 1406 1581 1522 
L 1381 1569 
Q 847 1681 609 1914 
Q 372 2147 372 2553 
Q 372 3047 722 3315 
Q 1072 3584 1716 3584 
Q 2034 3584 2315 3537 
Q 2597 3491 2834 3397 
z
" transform="scale(0.015625)"/>
     <path id="DejaVuSans-6c" d="M 603 4863 
L 1178 4863 
L 1178 0 
L 603 0 
L 603 4863 
z
" transform="scale(0.015625)"/>
     <path id="DejaVuSans-74" d="M 1172 4494 
L 1172 3500 
L 2356 3500 
L 2356 3053 
L 1172 3053 
L 1172 1153 
Q 1172 725 1289 603 
Q 1406 481 1766 481 
L 2356 481 
L 2356 0 
L 1766 0 
Q 1100 0 847 248 
Q 594 497 594 1153 
L 594 3053 
L 172 3053 
L 172 3500 
L 594 3500 
L 594 4494 
L 1172 4494 
z
" transform="scale(0.015625)"/>
     <path id="DejaVuSans-7a" d="M 353 3500 
L 3084 3500 
L 3084 2975 
L 922 459 
L 3084 459 
L 3084 0 
L 275 0 
L 275 525 
L 2438 3041 
L 353 3041 
L 353 3500 
z
" transform="scale(0.015625)"/>
     <path id="DejaVuSans-76" d="M 191 3500 
L 800 3500 
L 1894 563 
L 2988 3500 
L 3597 3500 
L 2284 0 
L 1503 0 
L 191 3500 
z
" transform="scale(0.015625)"/>
     <path id="DejaVuSans-70" d="M 1159 525 
L 1159 -1331 
L 581 -1331 
L 581 3500 
L 1159 3500 
L 1159 2969 
Q 1341 3281 1617 3432 
Q 1894 3584 2278 3584 
Q 2916 3584 3314 3078 
Q 3713 2572 3713 1747 
Q 3713 922 3314 415 
Q 2916 -91 2278 -91 
Q 1894 -91 1617 61 
Q 1341 213 1159 525 
z
M 3116 1747 
Q 3116 2381 2855 2742 
Q 2594 3103 2138 3103 
Q 1681 3103 1420 2742 
Q 1159 2381 1159 1747 
Q 1159 1113 1420 752 
Q 1681 391 2138 391 
Q 2594 391 2855 752 
Q 3116 1113 3116 1747 
z
" transform="scale(0.015625)"/>
     <path id="DejaVuSans-6d" d="M 3328 2828 
Q 3544 3216 3844 3400 
Q 4144 3584 4550 3584 
Q 5097 3584 5394 3201 
Q 5691 2819 5691 2113 
L 5691 0 
L 5113 0 
L 5113 2094 
Q 5113 2597 4934 2840 
Q 4756 3084 4391 3084 
Q 3944 3084 3684 2787 
Q 3425 2491 3425 1978 
L 3425 0 
L 2847 0 
L 2847 2094 
Q 2847 2600 2669 2842 
Q 2491 3084 2119 3084 
Q 1678 3084 1418 2786 
Q 1159 2488 1159 1978 
L 1159 0 
L 581 0 
L 581 3500 
L 1159 3500 
L 1159 2956 
Q 1356 3278 1631 3431 
Q 1906 3584 2284 3584 
Q 2666 3584 2933 3390 
Q 3200 3197 3328 2828 
z
" transform="scale(0.015625)"/>
     <path id="DejaVuSans-2c" d="M 750 794 
L 1409 794 
L 1409 256 
L 897 -744 
L 494 -744 
L 750 256 
L 750 794 
z
" transform="scale(0.015625)"/>
     <path id="DejaVuSans-27" d="M 1147 4666 
L 1147 2931 
L 616 2931 
L 616 4666 
L 1147 4666 
z
" transform="scale(0.015625)"/>
     <path id="DejaVuSans-2e" d="M 684 794 
L 1344 794 
L 1344 0 
L 684 0 
L 684 794 
z
" transform="scale(0.015625)"/>
    </defs>
    <use xlink:href="#DejaVuSans-4c"/>
    <use xlink:href="#DejaVuSans-65" transform="translate(53.962891 0)"/>
    <use xlink:href="#DejaVuSans-20" transform="translate(115.486328 0)"/>
    <use xlink:href="#DejaVuSans-66" transform="translate(147.273438 0)"/>
    <use xlink:href="#DejaVuSans-72" transform="translate(182.478516 0)"/>
    <use xlink:href="#DejaVuSans-65" transform="translate(221.341797 0)"/>
    <use xlink:href="#DejaVuSans-63" transform="translate(282.865234 0)"/>
    <use xlink:href="#DejaVuSans-63" transform="translate(337.845703 0)"/>
    <use xlink:href="#DejaVuSans-65" transform="translate(392.826172 0)"/>
    <use xlink:href="#DejaVuSans-20" transform="translate(454.349609 0)"/>
    <use xlink:href="#DejaVuSans-69" transform="translate(486.136719 0)"/>
    <use xlink:href="#DejaVuSans-6e" transform="translate(513.919922 0)"/>
    <use xlink:href="#DejaVuSans-64" transform="translate(577.298828 0)"/>
    <use xlink:href="#DejaVuSans-69" transform="translate(640.775391 0)"/>
    <use xlink:href="#DejaVuSans-63" transform="translate(668.558594 0)"/>
    <use xlink:href="#DejaVuSans-61" transform="translate(723.539062 0)"/>
    <use xlink:href="#DejaVuSans-6e" transform="translate(784.818359 0)"/>
    <use xlink:href="#DejaVuSans-6f" transform="translate(848.197266 0)"/>
    <use xlink:href="#DejaVuSans-20" transform="translate(909.378906 0)"/>
    <use xlink:href="#DejaVuSans-73" transform="translate(941.166016 0)"/>
    <use xlink:href="#DejaVuSans-6f" transform="translate(993.265625 0)"/>
    <use xlink:href="#DejaVuSans-6c" transform="translate(1054.447266 0)"/>
    <use xlink:href="#DejaVuSans-74" transform="translate(1082.230469 0)"/>
    <use xlink:href="#DejaVuSans-61" transform="translate(1121.439453 0)"/>
    <use xlink:href="#DejaVuSans-6e" transform="translate(1182.71875 0)"/>
    <use xlink:href="#DejaVuSans-74" transform="translate(1246.097656 0)"/>
    <use xlink:href="#DejaVuSans-6f" transform="translate(1285.306641 0)"/>
    <use xlink:href="#DejaVuSans-20" transform="translate(1346.488281 0)"/>
    <use xlink:href="#DejaVuSans-64" transform="translate(1378.275391 0)"/>
    <use xlink:href="#DejaVuSans-69" transform="translate(1441.751953 0)"/>
    <use xlink:href="#DejaVuSans-72" transform="translate(1469.535156 0)"/>
    <use xlink:href="#DejaVuSans-65" transform="translate(1508.398438 0)"/>
    <use xlink:href="#DejaVuSans-7a" transform="translate(1569.921875 0)"/>
    <use xlink:href="#DejaVuSans-69" transform="translate(1622.412109 0)"/>
    <use xlink:href="#DejaVuSans-6f" transform="translate(1650.195312 0)"/>
    <use xlink:href="#DejaVuSans-6e" transform="translate(1711.376953 0)"/>
    <use xlink:href="#DejaVuSans-65" transform="translate(1774.755859 0)"/>
    <use xlink:href="#DejaVuSans-20" transform="translate(1836.279297 0)"/>
    <use xlink:href="#DejaVuSans-65" transform="translate(1868.066406 0)"/>
    <use xlink:href="#DejaVuSans-20" transform="translate(1929.589844 0)"/>
    <use xlink:href="#DejaVuSans-76" transform="translate(1961.376953 0)"/>
    <use xlink:href="#DejaVuSans-65" transform="translate(2020.556641 0)"/>
    <use xlink:href="#DejaVuSans-72" transform="translate(2082.080078 0)"/>
    <use xlink:href="#DejaVuSans-73" transform="translate(2123.193359 0)"/>
    <use xlink:href="#DejaVuSans-6f" transform="translate(2175.292969 0)"/>
    <use xlink:href="#DejaVuSans-20" transform="translate(2236.474609 0)"/>
    <use xlink:href="#DejaVuSans-64" transform="translate(2268.261719 0)"/>
    <use xlink:href="#DejaVuSans-65" transform="translate(2331.738281 0)"/>
    <use xlink:href="#DejaVuSans-6c" transform="translate(2393.261719 0)"/>
    <use xlink:href="#DejaVuSans-6c" transform="translate(2421.044922 0)"/>
    <use xlink:href="#DejaVuSans-6f" transform="translate(2448.828125 0)"/>
    <use xlink:href="#DejaVuSans-20" transform="translate(2510.009766 0)"/>
    <use xlink:href="#DejaVuSans-73" transform="translate(2541.796875 0)"/>
    <use xlink:href="#DejaVuSans-70" transform="translate(2593.896484 0)"/>
    <use xlink:href="#DejaVuSans-6f" transform="translate(2657.373047 0)"/>
    <use xlink:href="#DejaVuSans-73" transform="translate(2718.554688 0)"/>
    <use xlink:href="#DejaVuSans-74" transform="translate(2770.654297 0)"/>
    <use xlink:href="#DejaVuSans-61" transform="translate(2809.863281 0)"/>
    <use xlink:href="#DejaVuSans-6d" transform="translate(2871.142578 0)"/>
    <use xlink:href="#DejaVuSans-65" transform="translate(2968.554688 0)"/>
    <use xlink:href="#DejaVuSans-6e" transform="translate(3030.078125 0)"/>
    <use xlink:href="#DejaVuSans-74" transform="translate(3093.457031 0)"/>
    <use xlink:href="#DejaVuSans-6f" transform="translate(3132.666016 0)"/>
    <use xlink:href="#DejaVuSans-2c" transform="translate(3193.847656 0)"/>
    <use xlink:href="#DejaVuSans-20" transform="translate(3225.634766 0)"/>
    <use xlink:href="#DejaVuSans-6e" transform="translate(3257.421875 0)"/>
    <use xlink:href="#DejaVuSans-6f" transform="translate(3320.800781 0)"/>
    <use xlink:href="#DejaVuSans-6e" transform="translate(3381.982422 0)"/>
    <use xlink:href="#DejaVuSans-20" transform="translate(3445.361328 0)"/>
    <use xlink:href="#DejaVuSans-6c" transform="translate(3477.148438 0)"/>
    <use xlink:href="#DejaVuSans-27" transform="translate(3504.931641 0)"/>
    <use xlink:href="#DejaVuSans-61" transform="translate(3532.421875 0)"/>
    <use xlink:href="#DejaVuSans-6d" transform="translate(3593.701172 0)"/>
    <use xlink:href="#DejaVuSans-70" transform="translate(3691.113281 0)"/>
    <use xlink:href="#DejaVuSans-69" transform="translate(3754.589844 0)"/>
    <use xlink:href="#DejaVuSans-65" transform="translate(3782.373047 0)"/>
    <use xlink:href="#DejaVuSans-7a" transform="translate(3843.896484 0)"/>
    <use xlink:href="#DejaVuSans-7a" transform="translate(3896.386719 0)"/>
    <use xlink:href="#DejaVuSans-61" transform="translate(3948.876953 0)"/>
    <use xlink:href="#DejaVuSans-20" transform="translate(4010.15625 0)"/>
    <use xlink:href="#DejaVuSans-72" transform="translate(4041.943359 0)"/>
    <use xlink:href="#DejaVuSans-65" transform="translate(4080.806641 0)"/>
    <use xlink:href="#DejaVuSans-61" transform="translate(4142.330078 0)"/>
    <use xlink:href="#DejaVuSans-6c" transform="translate(4203.609375 0)"/>
    <use xlink:href="#DejaVuSans-65" transform="translate(4231.392578 0)"/>
    <use xlink:href="#DejaVuSans-2e" transform="translate(4292.916016 0)"/>
   </g>
  </g>
 </g>
 <defs>
  <clipPath id="p1fbac6d8db">
   <rect x="7.2" y="72.216" width="641.7" height="103.648696"/>
  </clipPath>
  <clipPath id="paa07a544b6">
   <rect x="7.2" y="196.594435" width="641.7" height="103.648696"/>
  </clipPath>
  <clipPath id="p28df7fd983">
   <rect x="7.2" y="320.97287" width="641.7" height="103.648696"/>
  </clipPath>
  <clipPath id="p3c84755317">
   <rect x="7.2" y="445.351304" width="641.7" height="103.648696"/>
  </clipPath>
 </defs>
</svg>
