<?xml version="1.0" encoding="utf-8" standalone="no"?>
<!DOCTYPE svg PUBLIC "-//W3C//DTD SVG 1.1//EN"
  "http://www.w3.org/Graphics/SVG/1.1/DTD/svg11.dtd">
<svg xmlns:xlink="http://www.w3.org/1999/xlink" width="646.082812pt" height="470.797344pt" viewBox="0 0 646.082812 470.797344" xmlns="http://www.w3.org/2000/svg" version="1.1">
 <metadata>
  <rdf:RDF xmlns:dc="http://purl.org/dc/elements/1.1/" xmlns:cc="http://creativecommons.org/ns#" xmlns:rdf="http://www.w3.org/1999/02/22-rdf-syntax-ns#">
   <cc:Work>
    <dc:type rdf:resource="http://purl.org/dc/dcmitype/StillImage"/>
    <dc:date>2026-06-16T10:45:43.072400</dc:date>
    <dc:format>image/svg+xml</dc:format>
    <dc:creator>
     <cc:Agent>
      <dc:title>Matplotlib v3.10.8, https://matplotlib.org/</dc:title>
     </cc:Agent>
    </dc:creator>
   </cc:Work>
  </rdf:RDF>
 </metadata>
 <defs>
  <style type="text/css">*{stroke-linejoin: round; stroke-linecap: butt}</style>
 </defs>
 <g id="figure_1">
  <g id="patch_1">
   <path d="M 0 470.797344 
L 646.082812 470.797344 
L 646.082812 0 
L 0 0 
z
" style="fill: #ffffff"/>
  </g>
  <g id="axes_1">
   <g id="patch_2">
    <path d="M 53.765625 418.677656 
L 611.765625 418.677656 
L 611.765625 30.597656 
L 53.765625 30.597656 
z
" style="fill: #ffffff"/>
   </g>
   <g id="matplotlib.axis_1">
    <g id="xtick_1">
     <g id="line2d_1">
      <path d="M 90.156929 418.677656 
L 90.156929 30.597656 
" clip-path="url(#p53dbc8819a)" style="fill: none; stroke: #b0b0b0; stroke-opacity: 0.15; stroke-width: 0.8; stroke-linecap: square"/>
     </g>
     <g id="line2d_2">
      <defs>
       <path id="m18c740a16c" d="M 0 0 
L 0 3.5 
" style="stroke: #000000; stroke-width: 0.8"/>
      </defs>
      <g>
       <use xlink:href="#m18c740a16c" x="90.156929" y="418.677656" style="stroke: #000000; stroke-width: 0.8"/>
      </g>
     </g>
     <g id="text_1">
      <!-- $-\pi/a$ -->
      <g transform="translate(78.206929 433.276094) scale(0.1 -0.1)">
       <defs>
        <path id="DejaVuSans-2212" d="M 678 2272 
L 4684 2272 
L 4684 1741 
L 678 1741 
L 678 2272 
z
" transform="scale(0.015625)"/>
        <path id="DejaVuSans-Oblique-3c0" d="M 584 3500 
L 3938 3500 
L 3825 2925 
L 3384 2925 
L 2966 775 
Q 2922 550 2981 450 
Q 3038 353 3209 353 
Q 3256 353 3325 363 
Q 3397 369 3419 372 
L 3338 -44 
Q 3222 -84 3103 -103 
Q 2981 -122 2866 -122 
Q 2491 -122 2388 81 
Q 2284 288 2391 838 
L 2797 2925 
L 1506 2925 
L 938 0 
L 350 0 
L 919 2925 
L 472 2925 
L 584 3500 
z
" transform="scale(0.015625)"/>
        <path id="DejaVuSans-2f" d="M 1625 4666 
L 2156 4666 
L 531 -594 
L 0 -594 
L 1625 4666 
z
" transform="scale(0.015625)"/>
        <path id="DejaVuSans-Oblique-61" d="M 3438 1997 
L 3047 0 
L 2472 0 
L 2578 531 
Q 2325 219 2001 64 
Q 1678 -91 1281 -91 
Q 834 -91 548 182 
Q 263 456 263 884 
Q 263 1497 752 1853 
Q 1241 2209 2100 2209 
L 2900 2209 
L 2931 2363 
Q 2938 2388 2941 2417 
Q 2944 2447 2944 2509 
Q 2944 2788 2717 2942 
Q 2491 3097 2081 3097 
Q 1800 3097 1504 3025 
Q 1209 2953 897 2809 
L 997 3341 
Q 1322 3463 1633 3523 
Q 1944 3584 2234 3584 
Q 2853 3584 3176 3315 
Q 3500 3047 3500 2534 
Q 3500 2431 3484 2292 
Q 3469 2153 3438 1997 
z
M 2816 1759 
L 2241 1759 
Q 1534 1759 1195 1570 
Q 856 1381 856 984 
Q 856 709 1029 553 
Q 1203 397 1509 397 
Q 1978 397 2328 733 
Q 2678 1069 2791 1631 
L 2816 1759 
z
" transform="scale(0.015625)"/>
       </defs>
       <use xlink:href="#DejaVuSans-2212" transform="translate(0 0.09375)"/>
       <use xlink:href="#DejaVuSans-Oblique-3c0" transform="translate(83.789062 0.09375)"/>
       <use xlink:href="#DejaVuSans-2f" transform="translate(143.994141 0.09375)"/>
       <use xlink:href="#DejaVuSans-Oblique-61" transform="translate(177.685547 0.09375)"/>
      </g>
     </g>
    </g>
    <g id="xtick_2">
     <g id="line2d_3">
      <path d="M 332.765625 418.677656 
L 332.765625 30.597656 
" clip-path="url(#p53dbc8819a)" style="fill: none; stroke: #b0b0b0; stroke-opacity: 0.15; stroke-width: 0.8; stroke-linecap: square"/>
     </g>
     <g id="line2d_4">
      <g>
       <use xlink:href="#m18c740a16c" x="332.765625" y="418.677656" style="stroke: #000000; stroke-width: 0.8"/>
      </g>
     </g>
     <g id="text_2">
      <!-- $0$ -->
      <g transform="translate(329.565625 433.276094) scale(0.1 -0.1)">
       <defs>
        <path id="DejaVuSans-30" d="M 2034 4250 
Q 1547 4250 1301 3770 
Q 1056 3291 1056 2328 
Q 1056 1369 1301 889 
Q 1547 409 2034 409 
Q 2525 409 2770 889 
Q 3016 1369 3016 2328 
Q 3016 3291 2770 3770 
Q 2525 4250 2034 4250 
z
M 2034 4750 
Q 2819 4750 3233 4129 
Q 3647 3509 3647 2328 
Q 3647 1150 3233 529 
Q 2819 -91 2034 -91 
Q 1250 -91 836 529 
Q 422 1150 422 2328 
Q 422 3509 836 4129 
Q 1250 4750 2034 4750 
z
" transform="scale(0.015625)"/>
       </defs>
       <use xlink:href="#DejaVuSans-30" transform="translate(0 0.78125)"/>
      </g>
     </g>
    </g>
    <g id="xtick_3">
     <g id="line2d_5">
      <path d="M 575.374321 418.677656 
L 575.374321 30.597656 
" clip-path="url(#p53dbc8819a)" style="fill: none; stroke: #b0b0b0; stroke-opacity: 0.15; stroke-width: 0.8; stroke-linecap: square"/>
     </g>
     <g id="line2d_6">
      <g>
       <use xlink:href="#m18c740a16c" x="575.374321" y="418.677656" style="stroke: #000000; stroke-width: 0.8"/>
      </g>
     </g>
     <g id="text_3">
      <!-- $+\pi/a$ -->
      <g transform="translate(563.424321 433.276094) scale(0.1 -0.1)">
       <defs>
        <path id="DejaVuSans-2b" d="M 2944 4013 
L 2944 2272 
L 4684 2272 
L 4684 1741 
L 2944 1741 
L 2944 0 
L 2419 0 
L 2419 1741 
L 678 1741 
L 678 2272 
L 2419 2272 
L 2419 4013 
L 2944 4013 
z
" transform="scale(0.015625)"/>
       </defs>
       <use xlink:href="#DejaVuSans-2b" transform="translate(0 0.09375)"/>
       <use xlink:href="#DejaVuSans-Oblique-3c0" transform="translate(83.789062 0.09375)"/>
       <use xlink:href="#DejaVuSans-2f" transform="translate(143.994141 0.09375)"/>
       <use xlink:href="#DejaVuSans-Oblique-61" transform="translate(177.685547 0.09375)"/>
      </g>
     </g>
    </g>
    <g id="text_4">
     <!-- vettore d'onda $q$ -->
     <g transform="translate(291.215625 446.955781) scale(0.1 -0.1)">
      <defs>
       <path id="DejaVuSans-76" d="M 191 3500 
L 800 3500 
L 1894 563 
L 2988 3500 
L 3597 3500 
L 2284 0 
L 1503 0 
L 191 3500 
z
" transform="scale(0.015625)"/>
       <path id="DejaVuSans-65" d="M 3597 1894 
L 3597 1613 
L 953 1613 
Q 991 1019 1311 708 
Q 1631 397 2203 397 
Q 2534 397 2845 478 
Q 3156 559 3463 722 
L 3463 178 
Q 3153 47 2828 -22 
Q 2503 -91 2169 -91 
Q 1331 -91 842 396 
Q 353 884 353 1716 
Q 353 2575 817 3079 
Q 1281 3584 2069 3584 
Q 2775 3584 3186 3129 
Q 3597 2675 3597 1894 
z
M 3022 2063 
Q 3016 2534 2758 2815 
Q 2500 3097 2075 3097 
Q 1594 3097 1305 2825 
Q 1016 2553 972 2059 
L 3022 2063 
z
" transform="scale(0.015625)"/>
       <path id="DejaVuSans-74" d="M 1172 4494 
L 1172 3500 
L 2356 3500 
L 2356 3053 
L 1172 3053 
L 1172 1153 
Q 1172 725 1289 603 
Q 1406 481 1766 481 
L 2356 481 
L 2356 0 
L 1766 0 
Q 1100 0 847 248 
Q 594 497 594 1153 
L 594 3053 
L 172 3053 
L 172 3500 
L 594 3500 
L 594 4494 
L 1172 4494 
z
" transform="scale(0.015625)"/>
       <path id="DejaVuSans-6f" d="M 1959 3097 
Q 1497 3097 1228 2736 
Q 959 2375 959 1747 
Q 959 1119 1226 758 
Q 1494 397 1959 397 
Q 2419 397 2687 759 
Q 2956 1122 2956 1747 
Q 2956 2369 2687 2733 
Q 2419 3097 1959 3097 
z
M 1959 3584 
Q 2709 3584 3137 3096 
Q 3566 2609 3566 1747 
Q 3566 888 3137 398 
Q 2709 -91 1959 -91 
Q 1206 -91 779 398 
Q 353 888 353 1747 
Q 353 2609 779 3096 
Q 1206 3584 1959 3584 
z
" transform="scale(0.015625)"/>
       <path id="DejaVuSans-72" d="M 2631 2963 
Q 2534 3019 2420 3045 
Q 2306 3072 2169 3072 
Q 1681 3072 1420 2755 
Q 1159 2438 1159 1844 
L 1159 0 
L 581 0 
L 581 3500 
L 1159 3500 
L 1159 2956 
Q 1341 3275 1631 3429 
Q 1922 3584 2338 3584 
Q 2397 3584 2469 3576 
Q 2541 3569 2628 3553 
L 2631 2963 
z
" transform="scale(0.015625)"/>
       <path id="DejaVuSans-20" transform="scale(0.015625)"/>
       <path id="DejaVuSans-64" d="M 2906 2969 
L 2906 4863 
L 3481 4863 
L 3481 0 
L 2906 0 
L 2906 525 
Q 2725 213 2448 61 
Q 2172 -91 1784 -91 
Q 1150 -91 751 415 
Q 353 922 353 1747 
Q 353 2572 751 3078 
Q 1150 3584 1784 3584 
Q 2172 3584 2448 3432 
Q 2725 3281 2906 2969 
z
M 947 1747 
Q 947 1113 1208 752 
Q 1469 391 1925 391 
Q 2381 391 2643 752 
Q 2906 1113 2906 1747 
Q 2906 2381 2643 2742 
Q 2381 3103 1925 3103 
Q 1469 3103 1208 2742 
Q 947 2381 947 1747 
z
" transform="scale(0.015625)"/>
       <path id="DejaVuSans-27" d="M 1147 4666 
L 1147 2931 
L 616 2931 
L 616 4666 
L 1147 4666 
z
" transform="scale(0.015625)"/>
       <path id="DejaVuSans-6e" d="M 3513 2113 
L 3513 0 
L 2938 0 
L 2938 2094 
Q 2938 2591 2744 2837 
Q 2550 3084 2163 3084 
Q 1697 3084 1428 2787 
Q 1159 2491 1159 1978 
L 1159 0 
L 581 0 
L 581 3500 
L 1159 3500 
L 1159 2956 
Q 1366 3272 1645 3428 
Q 1925 3584 2291 3584 
Q 2894 3584 3203 3211 
Q 3513 2838 3513 2113 
z
" transform="scale(0.015625)"/>
       <path id="DejaVuSans-61" d="M 2194 1759 
Q 1497 1759 1228 1600 
Q 959 1441 959 1056 
Q 959 750 1161 570 
Q 1363 391 1709 391 
Q 2188 391 2477 730 
Q 2766 1069 2766 1631 
L 2766 1759 
L 2194 1759 
z
M 3341 1997 
L 3341 0 
L 2766 0 
L 2766 531 
Q 2569 213 2275 61 
Q 1981 -91 1556 -91 
Q 1019 -91 701 211 
Q 384 513 384 1019 
Q 384 1609 779 1909 
Q 1175 2209 1959 2209 
L 2766 2209 
L 2766 2266 
Q 2766 2663 2505 2880 
Q 2244 3097 1772 3097 
Q 1472 3097 1187 3025 
Q 903 2953 641 2809 
L 641 3341 
Q 956 3463 1253 3523 
Q 1550 3584 1831 3584 
Q 2591 3584 2966 3190 
Q 3341 2797 3341 1997 
z
" transform="scale(0.015625)"/>
       <path id="DejaVuSans-Oblique-71" d="M 2669 525 
Q 2438 222 2123 65 
Q 1809 -91 1428 -91 
Q 897 -91 595 267 
Q 294 625 294 1253 
Q 294 1759 480 2231 
Q 666 2703 1013 3078 
Q 1238 3322 1530 3453 
Q 1822 3584 2144 3584 
Q 2531 3584 2781 3431 
Q 3031 3278 3144 2969 
L 3244 3494 
L 3822 3494 
L 2888 -1319 
L 2309 -1319 
L 2669 525 
z
M 891 1338 
Q 891 875 1084 633 
Q 1278 391 1644 391 
Q 2188 391 2572 911 
Q 2956 1431 2956 2175 
Q 2956 2625 2757 2864 
Q 2559 3103 2188 3103 
Q 1916 3103 1684 2976 
Q 1453 2850 1281 2606 
Q 1100 2350 995 2006 
Q 891 1663 891 1338 
z
" transform="scale(0.015625)"/>
      </defs>
      <use xlink:href="#DejaVuSans-76" transform="translate(0 0.015625)"/>
      <use xlink:href="#DejaVuSans-65" transform="translate(59.179688 0.015625)"/>
      <use xlink:href="#DejaVuSans-74" transform="translate(120.703125 0.015625)"/>
      <use xlink:href="#DejaVuSans-74" transform="translate(159.912109 0.015625)"/>
      <use xlink:href="#DejaVuSans-6f" transform="translate(199.121094 0.015625)"/>
      <use xlink:href="#DejaVuSans-72" transform="translate(260.302734 0.015625)"/>
      <use xlink:href="#DejaVuSans-65" transform="translate(301.416016 0.015625)"/>
      <use xlink:href="#DejaVuSans-20" transform="translate(362.939453 0.015625)"/>
      <use xlink:href="#DejaVuSans-64" transform="translate(394.726562 0.015625)"/>
      <use xlink:href="#DejaVuSans-27" transform="translate(458.203125 0.015625)"/>
      <use xlink:href="#DejaVuSans-6f" transform="translate(485.693359 0.015625)"/>
      <use xlink:href="#DejaVuSans-6e" transform="translate(546.875 0.015625)"/>
      <use xlink:href="#DejaVuSans-64" transform="translate(610.253906 0.015625)"/>
      <use xlink:href="#DejaVuSans-61" transform="translate(673.730469 0.015625)"/>
      <use xlink:href="#DejaVuSans-20" transform="translate(735.009766 0.015625)"/>
      <use xlink:href="#DejaVuSans-Oblique-71" transform="translate(766.796875 0.015625)"/>
     </g>
    </g>
   </g>
   <g id="matplotlib.axis_2">
    <g id="ytick_1">
     <g id="line2d_7">
      <path d="M 53.765625 418.677656 
L 611.765625 418.677656 
" clip-path="url(#p53dbc8819a)" style="fill: none; stroke: #b0b0b0; stroke-opacity: 0.15; stroke-width: 0.8; stroke-linecap: square"/>
     </g>
     <g id="line2d_8">
      <defs>
       <path id="m128d2b56f3" d="M 0 0 
L -3.5 0 
" style="stroke: #000000; stroke-width: 0.8"/>
      </defs>
      <g>
       <use xlink:href="#m128d2b56f3" x="53.765625" y="418.677656" style="stroke: #000000; stroke-width: 0.8"/>
      </g>
     </g>
     <g id="text_5">
      <!-- 0.00 -->
      <g transform="translate(24.5 422.476875) scale(0.1 -0.1)">
       <defs>
        <path id="DejaVuSans-2e" d="M 684 794 
L 1344 794 
L 1344 0 
L 684 0 
L 684 794 
z
" transform="scale(0.015625)"/>
       </defs>
       <use xlink:href="#DejaVuSans-30"/>
       <use xlink:href="#DejaVuSans-2e" transform="translate(63.623047 0)"/>
       <use xlink:href="#DejaVuSans-30" transform="translate(95.410156 0)"/>
       <use xlink:href="#DejaVuSans-30" transform="translate(159.033203 0)"/>
      </g>
     </g>
    </g>
    <g id="ytick_2">
     <g id="line2d_9">
      <path d="M 53.765625 368.259783 
L 611.765625 368.259783 
" clip-path="url(#p53dbc8819a)" style="fill: none; stroke: #b0b0b0; stroke-opacity: 0.15; stroke-width: 0.8; stroke-linecap: square"/>
     </g>
     <g id="line2d_10">
      <g>
       <use xlink:href="#m128d2b56f3" x="53.765625" y="368.259783" style="stroke: #000000; stroke-width: 0.8"/>
      </g>
     </g>
     <g id="text_6">
      <!-- 0.25 -->
      <g transform="translate(24.5 372.059002) scale(0.1 -0.1)">
       <defs>
        <path id="DejaVuSans-32" d="M 1228 531 
L 3431 531 
L 3431 0 
L 469 0 
L 469 531 
Q 828 903 1448 1529 
Q 2069 2156 2228 2338 
Q 2531 2678 2651 2914 
Q 2772 3150 2772 3378 
Q 2772 3750 2511 3984 
Q 2250 4219 1831 4219 
Q 1534 4219 1204 4116 
Q 875 4013 500 3803 
L 500 4441 
Q 881 4594 1212 4672 
Q 1544 4750 1819 4750 
Q 2544 4750 2975 4387 
Q 3406 4025 3406 3419 
Q 3406 3131 3298 2873 
Q 3191 2616 2906 2266 
Q 2828 2175 2409 1742 
Q 1991 1309 1228 531 
z
" transform="scale(0.015625)"/>
        <path id="DejaVuSans-35" d="M 691 4666 
L 3169 4666 
L 3169 4134 
L 1269 4134 
L 1269 2991 
Q 1406 3038 1543 3061 
Q 1681 3084 1819 3084 
Q 2600 3084 3056 2656 
Q 3513 2228 3513 1497 
Q 3513 744 3044 326 
Q 2575 -91 1722 -91 
Q 1428 -91 1123 -41 
Q 819 9 494 109 
L 494 744 
Q 775 591 1075 516 
Q 1375 441 1709 441 
Q 2250 441 2565 725 
Q 2881 1009 2881 1497 
Q 2881 1984 2565 2268 
Q 2250 2553 1709 2553 
Q 1456 2553 1204 2497 
Q 953 2441 691 2322 
L 691 4666 
z
" transform="scale(0.015625)"/>
       </defs>
       <use xlink:href="#DejaVuSans-30"/>
       <use xlink:href="#DejaVuSans-2e" transform="translate(63.623047 0)"/>
       <use xlink:href="#DejaVuSans-32" transform="translate(95.410156 0)"/>
       <use xlink:href="#DejaVuSans-35" transform="translate(159.033203 0)"/>
      </g>
     </g>
    </g>
    <g id="ytick_3">
     <g id="line2d_11">
      <path d="M 53.765625 317.841909 
L 611.765625 317.841909 
" clip-path="url(#p53dbc8819a)" style="fill: none; stroke: #b0b0b0; stroke-opacity: 0.15; stroke-width: 0.8; stroke-linecap: square"/>
     </g>
     <g id="line2d_12">
      <g>
       <use xlink:href="#m128d2b56f3" x="53.765625" y="317.841909" style="stroke: #000000; stroke-width: 0.8"/>
      </g>
     </g>
     <g id="text_7">
      <!-- 0.50 -->
      <g transform="translate(24.5 321.641128) scale(0.1 -0.1)">
       <use xlink:href="#DejaVuSans-30"/>
       <use xlink:href="#DejaVuSans-2e" transform="translate(63.623047 0)"/>
       <use xlink:href="#DejaVuSans-35" transform="translate(95.410156 0)"/>
       <use xlink:href="#DejaVuSans-30" transform="translate(159.033203 0)"/>
      </g>
     </g>
    </g>
    <g id="ytick_4">
     <g id="line2d_13">
      <path d="M 53.765625 267.424036 
L 611.765625 267.424036 
" clip-path="url(#p53dbc8819a)" style="fill: none; stroke: #b0b0b0; stroke-opacity: 0.15; stroke-width: 0.8; stroke-linecap: square"/>
     </g>
     <g id="line2d_14">
      <g>
       <use xlink:href="#m128d2b56f3" x="53.765625" y="267.424036" style="stroke: #000000; stroke-width: 0.8"/>
      </g>
     </g>
     <g id="text_8">
      <!-- 0.75 -->
      <g transform="translate(24.5 271.223255) scale(0.1 -0.1)">
       <defs>
        <path id="DejaVuSans-37" d="M 525 4666 
L 3525 4666 
L 3525 4397 
L 1831 0 
L 1172 0 
L 2766 4134 
L 525 4134 
L 525 4666 
z
" transform="scale(0.015625)"/>
       </defs>
       <use xlink:href="#DejaVuSans-30"/>
       <use xlink:href="#DejaVuSans-2e" transform="translate(63.623047 0)"/>
       <use xlink:href="#DejaVuSans-37" transform="translate(95.410156 0)"/>
       <use xlink:href="#DejaVuSans-35" transform="translate(159.033203 0)"/>
      </g>
     </g>
    </g>
    <g id="ytick_5">
     <g id="line2d_15">
      <path d="M 53.765625 217.006162 
L 611.765625 217.006162 
" clip-path="url(#p53dbc8819a)" style="fill: none; stroke: #b0b0b0; stroke-opacity: 0.15; stroke-width: 0.8; stroke-linecap: square"/>
     </g>
     <g id="line2d_16">
      <g>
       <use xlink:href="#m128d2b56f3" x="53.765625" y="217.006162" style="stroke: #000000; stroke-width: 0.8"/>
      </g>
     </g>
     <g id="text_9">
      <!-- 1.00 -->
      <g transform="translate(24.5 220.805381) scale(0.1 -0.1)">
       <defs>
        <path id="DejaVuSans-31" d="M 794 531 
L 1825 531 
L 1825 4091 
L 703 3866 
L 703 4441 
L 1819 4666 
L 2450 4666 
L 2450 531 
L 3481 531 
L 3481 0 
L 794 0 
L 794 531 
z
" transform="scale(0.015625)"/>
       </defs>
       <use xlink:href="#DejaVuSans-31"/>
       <use xlink:href="#DejaVuSans-2e" transform="translate(63.623047 0)"/>
       <use xlink:href="#DejaVuSans-30" transform="translate(95.410156 0)"/>
       <use xlink:href="#DejaVuSans-30" transform="translate(159.033203 0)"/>
      </g>
     </g>
    </g>
    <g id="ytick_6">
     <g id="line2d_17">
      <path d="M 53.765625 166.588289 
L 611.765625 166.588289 
" clip-path="url(#p53dbc8819a)" style="fill: none; stroke: #b0b0b0; stroke-opacity: 0.15; stroke-width: 0.8; stroke-linecap: square"/>
     </g>
     <g id="line2d_18">
      <g>
       <use xlink:href="#m128d2b56f3" x="53.765625" y="166.588289" style="stroke: #000000; stroke-width: 0.8"/>
      </g>
     </g>
     <g id="text_10">
      <!-- 1.25 -->
      <g transform="translate(24.5 170.387508) scale(0.1 -0.1)">
       <use xlink:href="#DejaVuSans-31"/>
       <use xlink:href="#DejaVuSans-2e" transform="translate(63.623047 0)"/>
       <use xlink:href="#DejaVuSans-32" transform="translate(95.410156 0)"/>
       <use xlink:href="#DejaVuSans-35" transform="translate(159.033203 0)"/>
      </g>
     </g>
    </g>
    <g id="ytick_7">
     <g id="line2d_19">
      <path d="M 53.765625 116.170416 
L 611.765625 116.170416 
" clip-path="url(#p53dbc8819a)" style="fill: none; stroke: #b0b0b0; stroke-opacity: 0.15; stroke-width: 0.8; stroke-linecap: square"/>
     </g>
     <g id="line2d_20">
      <g>
       <use xlink:href="#m128d2b56f3" x="53.765625" y="116.170416" style="stroke: #000000; stroke-width: 0.8"/>
      </g>
     </g>
     <g id="text_11">
      <!-- 1.50 -->
      <g transform="translate(24.5 119.969634) scale(0.1 -0.1)">
       <use xlink:href="#DejaVuSans-31"/>
       <use xlink:href="#DejaVuSans-2e" transform="translate(63.623047 0)"/>
       <use xlink:href="#DejaVuSans-35" transform="translate(95.410156 0)"/>
       <use xlink:href="#DejaVuSans-30" transform="translate(159.033203 0)"/>
      </g>
     </g>
    </g>
    <g id="ytick_8">
     <g id="line2d_21">
      <path d="M 53.765625 65.752542 
L 611.765625 65.752542 
" clip-path="url(#p53dbc8819a)" style="fill: none; stroke: #b0b0b0; stroke-opacity: 0.15; stroke-width: 0.8; stroke-linecap: square"/>
     </g>
     <g id="line2d_22">
      <g>
       <use xlink:href="#m128d2b56f3" x="53.765625" y="65.752542" style="stroke: #000000; stroke-width: 0.8"/>
      </g>
     </g>
     <g id="text_12">
      <!-- 1.75 -->
      <g transform="translate(24.5 69.551761) scale(0.1 -0.1)">
       <use xlink:href="#DejaVuSans-31"/>
       <use xlink:href="#DejaVuSans-2e" transform="translate(63.623047 0)"/>
       <use xlink:href="#DejaVuSans-37" transform="translate(95.410156 0)"/>
       <use xlink:href="#DejaVuSans-35" transform="translate(159.033203 0)"/>
      </g>
     </g>
    </g>
    <g id="text_13">
     <!-- frequenza ridotta $\omega/\sqrt{C/M_1}$ -->
     <g transform="translate(18.4 292.137656) rotate(-90) scale(0.1 -0.1)">
      <defs>
       <path id="DejaVuSans-66" d="M 2375 4863 
L 2375 4384 
L 1825 4384 
Q 1516 4384 1395 4259 
Q 1275 4134 1275 3809 
L 1275 3500 
L 2222 3500 
L 2222 3053 
L 1275 3053 
L 1275 0 
L 697 0 
L 697 3053 
L 147 3053 
L 147 3500 
L 697 3500 
L 697 3744 
Q 697 4328 969 4595 
Q 1241 4863 1831 4863 
L 2375 4863 
z
" transform="scale(0.015625)"/>
       <path id="DejaVuSans-71" d="M 947 1747 
Q 947 1113 1208 752 
Q 1469 391 1925 391 
Q 2381 391 2643 752 
Q 2906 1113 2906 1747 
Q 2906 2381 2643 2742 
Q 2381 3103 1925 3103 
Q 1469 3103 1208 2742 
Q 947 2381 947 1747 
z
M 2906 525 
Q 2725 213 2448 61 
Q 2172 -91 1784 -91 
Q 1150 -91 751 415 
Q 353 922 353 1747 
Q 353 2572 751 3078 
Q 1150 3584 1784 3584 
Q 2172 3584 2448 3432 
Q 2725 3281 2906 2969 
L 2906 3500 
L 3481 3500 
L 3481 -1331 
L 2906 -1331 
L 2906 525 
z
" transform="scale(0.015625)"/>
       <path id="DejaVuSans-75" d="M 544 1381 
L 544 3500 
L 1119 3500 
L 1119 1403 
Q 1119 906 1312 657 
Q 1506 409 1894 409 
Q 2359 409 2629 706 
Q 2900 1003 2900 1516 
L 2900 3500 
L 3475 3500 
L 3475 0 
L 2900 0 
L 2900 538 
Q 2691 219 2414 64 
Q 2138 -91 1772 -91 
Q 1169 -91 856 284 
Q 544 659 544 1381 
z
M 1991 3584 
L 1991 3584 
z
" transform="scale(0.015625)"/>
       <path id="DejaVuSans-7a" d="M 353 3500 
L 3084 3500 
L 3084 2975 
L 922 459 
L 3084 459 
L 3084 0 
L 275 0 
L 275 525 
L 2438 3041 
L 353 3041 
L 353 3500 
z
" transform="scale(0.015625)"/>
       <path id="DejaVuSans-69" d="M 603 3500 
L 1178 3500 
L 1178 0 
L 603 0 
L 603 3500 
z
M 603 4863 
L 1178 4863 
L 1178 4134 
L 603 4134 
L 603 4863 
z
" transform="scale(0.015625)"/>
       <path id="DejaVuSans-Oblique-3c9" d="M 1369 -91 
Q 72 -91 434 1766 
Q 575 2500 1256 3500 
L 1875 3500 
Q 1231 2500 1088 1750 
Q 819 397 1519 397 
Q 2166 397 2478 2078 
L 3009 2078 
Q 2669 388 3316 397 
Q 4013 403 4275 1750 
Q 4419 2500 4169 3500 
L 4788 3500 
Q 5075 2500 4934 1766 
Q 4578 -94 3278 -91 
Q 2428 -88 2503 844 
Q 2194 -91 1369 -91 
z
" transform="scale(0.015625)"/>
       <path id="STIXSizeOneSym-Regular-221a" d="M 6970 9933 
L 3373 -1888 
L 3104 -1888 
L 1626 2918 
Q 1555 3149 1465 3251 
Q 1376 3354 1229 3354 
Q 1011 3354 794 3181 
L 717 3309 
L 1766 4115 
L 1926 4115 
L 3379 -602 
L 3405 -602 
L 6605 9933 
L 6970 9933 
z
" transform="scale(0.015625)"/>
       <path id="DejaVuSans-Oblique-43" d="M 4447 4306 
L 4319 3641 
Q 4019 3944 3683 4091 
Q 3347 4238 2956 4238 
Q 2422 4238 2017 3981 
Q 1613 3725 1319 3200 
Q 1131 2863 1032 2486 
Q 934 2109 934 1728 
Q 934 1091 1264 756 
Q 1594 422 2222 422 
Q 2656 422 3056 561 
Q 3456 700 3834 978 
L 3688 231 
Q 3316 72 2936 -9 
Q 2556 -91 2175 -91 
Q 1278 -91 773 396 
Q 269 884 269 1753 
Q 269 2309 461 2846 
Q 653 3384 1013 3828 
Q 1394 4300 1883 4525 
Q 2372 4750 3022 4750 
Q 3422 4750 3780 4639 
Q 4138 4528 4447 4306 
z
" transform="scale(0.015625)"/>
       <path id="DejaVuSans-Oblique-4d" d="M 1081 4666 
L 2028 4666 
L 2572 1522 
L 4378 4666 
L 5350 4666 
L 4441 0 
L 3828 0 
L 4622 4091 
L 2791 897 
L 2175 897 
L 1581 4103 
L 788 0 
L 172 0 
L 1081 4666 
z
" transform="scale(0.015625)"/>
      </defs>
      <use xlink:href="#DejaVuSans-66" transform="translate(0 0.5)"/>
      <use xlink:href="#DejaVuSans-72" transform="translate(35.205078 0.5)"/>
      <use xlink:href="#DejaVuSans-65" transform="translate(76.318359 0.5)"/>
      <use xlink:href="#DejaVuSans-71" transform="translate(137.841797 0.5)"/>
      <use xlink:href="#DejaVuSans-75" transform="translate(201.318359 0.5)"/>
      <use xlink:href="#DejaVuSans-65" transform="translate(264.697266 0.5)"/>
      <use xlink:href="#DejaVuSans-6e" transform="translate(326.220703 0.5)"/>
      <use xlink:href="#DejaVuSans-7a" transform="translate(389.599609 0.5)"/>
      <use xlink:href="#DejaVuSans-61" transform="translate(442.089844 0.5)"/>
      <use xlink:href="#DejaVuSans-20" transform="translate(503.369141 0.5)"/>
      <use xlink:href="#DejaVuSans-72" transform="translate(535.15625 0.5)"/>
      <use xlink:href="#DejaVuSans-69" transform="translate(576.269531 0.5)"/>
      <use xlink:href="#DejaVuSans-64" transform="translate(604.052734 0.5)"/>
      <use xlink:href="#DejaVuSans-6f" transform="translate(667.529297 0.5)"/>
      <use xlink:href="#DejaVuSans-74" transform="translate(728.710938 0.5)"/>
      <use xlink:href="#DejaVuSans-74" transform="translate(767.919922 0.5)"/>
      <use xlink:href="#DejaVuSans-61" transform="translate(807.128906 0.5)"/>
      <use xlink:href="#DejaVuSans-20" transform="translate(868.408203 0.5)"/>
      <use xlink:href="#DejaVuSans-Oblique-3c9" transform="translate(900.195312 0.5)"/>
      <use xlink:href="#DejaVuSans-2f" transform="translate(983.935547 0.5)"/>
      <use xlink:href="#STIXSizeOneSym-Regular-221a" transform="translate(1017.626953 3.5625) scale(0.659843)"/>
      <use xlink:href="#DejaVuSans-Oblique-43" transform="translate(1099.888962 0.53125)"/>
      <use xlink:href="#DejaVuSans-2f" transform="translate(1169.713181 0.53125)"/>
      <use xlink:href="#DejaVuSans-Oblique-4d" transform="translate(1203.404587 0.53125)"/>
      <use xlink:href="#DejaVuSans-31" transform="translate(1289.683884 -15.875) scale(0.7)"/>
      <path d="M 1087.388962 99.5 
L 1087.388962 105.75 
L 1349.454391 105.75 
L 1349.454391 99.5 
L 1087.388962 99.5 
z
"/>
     </g>
    </g>
   </g>
   <g id="line2d_23">
    <path d="M 90.156929 133.471095 
L 95.499663 133.357553 
L 100.842397 133.019522 
L 106.185131 132.464576 
L 112.013569 131.62594 
L 117.842006 130.563677 
L 124.156146 129.187987 
L 130.955989 127.481203 
L 138.727239 125.296047 
L 147.955598 122.454024 
L 159.612472 118.611184 
L 184.38333 110.123445 
L 200.411532 104.775269 
L 213.039812 100.790832 
L 224.210983 97.491953 
L 234.896451 94.568249 
L 245.096216 92.011304 
L 254.810278 89.804258 
L 264.52434 87.831942 
L 273.752699 86.184583 
L 282.981058 84.764755 
L 292.209417 83.578026 
L 300.952072 82.672804 
L 309.694728 81.983694 
L 318.437384 81.512855 
L 327.180039 81.261733 
L 335.922695 81.231089 
L 344.665351 81.421015 
L 353.408007 81.830936 
L 362.150662 82.459601 
L 370.893318 83.305051 
L 379.635974 84.364585 
L 388.864332 85.711347 
L 398.092691 87.28753 
L 407.32105 89.086705 
L 417.035112 91.212834 
L 426.749174 93.566211 
L 436.948939 96.266974 
L 447.634407 99.328071 
L 459.291281 102.90605 
L 472.405265 107.173975 
L 489.890576 113.120911 
L 513.690028 121.19761 
L 524.375496 124.570799 
L 532.632448 126.956238 
L 539.917995 128.84059 
L 546.717838 130.366516 
L 553.031978 131.545652 
L 558.860415 132.403753 
L 564.203149 132.977885 
L 569.545884 133.336019 
L 574.888618 133.470154 
L 575.374321 133.471095 
L 575.374321 133.471095 
" clip-path="url(#p53dbc8819a)" style="fill: none; stroke: #1f77b4; stroke-width: 2.3; stroke-linecap: square"/>
   </g>
   <g id="line2d_24">
    <path d="M 90.156929 238.297189 
L 94.528257 238.417499 
L 98.899585 238.777254 
L 103.270913 239.37298 
L 107.642241 240.1991 
L 112.013569 241.248211 
L 116.384896 242.511437 
L 121.241927 244.153986 
L 126.098958 246.03385 
L 131.441692 248.357632 
L 136.784426 250.929879 
L 142.612864 253.996192 
L 148.441301 257.310489 
L 154.755441 261.154772 
L 161.555284 265.560949 
L 168.840831 270.556098 
L 176.61208 276.162559 
L 184.869033 282.398245 
L 193.611688 289.277029 
L 203.32575 297.21261 
L 213.525515 305.834179 
L 224.696686 315.571109 
L 236.839264 326.45386 
L 250.43895 338.954162 
L 265.495746 353.108827 
L 282.495355 369.401708 
L 303.380588 389.741255 
L 332.522773 418.43795 
L 333.008477 418.43795 
L 371.379021 380.719217 
L 391.778551 360.98665 
L 408.292456 345.309752 
L 422.863549 331.774186 
L 435.977533 319.889537 
L 448.12011 309.188281 
L 458.805578 300.055547 
L 469.005343 291.627171 
L 478.233702 284.282012 
L 486.976357 277.605213 
L 495.23331 271.58643 
L 502.518856 266.538287 
L 509.3187 262.076695 
L 516.118543 257.885374 
L 522.432683 254.263235 
L 528.26112 251.175352 
L 533.603855 248.581507 
L 538.946589 246.234304 
L 543.80362 244.331542 
L 548.66065 242.664587 
L 553.517681 241.248211 
L 557.889009 240.1991 
L 562.260337 239.37298 
L 566.631665 238.777254 
L 571.002993 238.417499 
L 575.374321 238.297189 
L 575.374321 238.297189 
" clip-path="url(#p53dbc8819a)" style="fill: none; stroke: #ff7f0e; stroke-width: 2.3; stroke-linecap: square"/>
   </g>
   <g id="line2d_25">
    <path d="M 90.156929 418.677656 
L 90.156929 30.597656 
" clip-path="url(#p53dbc8819a)" style="fill: none; stroke-dasharray: 0.8,1.32; stroke-dashoffset: 0; stroke: #1f77b4; stroke-width: 0.8"/>
   </g>
   <g id="line2d_26">
    <path d="M 575.374321 418.677656 
L 575.374321 30.597656 
" clip-path="url(#p53dbc8819a)" style="fill: none; stroke-dasharray: 0.8,1.32; stroke-dashoffset: 0; stroke: #1f77b4; stroke-width: 0.8"/>
   </g>
   <g id="line2d_27">
    <path d="M 53.765625 81.216787 
L 611.765625 81.216787 
" clip-path="url(#p53dbc8819a)" style="fill: none; stroke-dasharray: 2.775,1.2; stroke-dashoffset: 0; stroke: #1f77b4; stroke-width: 0.75"/>
   </g>
   <g id="line2d_28">
    <path d="M 53.765625 133.471095 
L 611.765625 133.471095 
" clip-path="url(#p53dbc8819a)" style="fill: none; stroke-dasharray: 2.775,1.2; stroke-dashoffset: 0; stroke: #1f77b4; stroke-width: 0.75"/>
   </g>
   <g id="line2d_29">
    <path d="M 53.765625 238.297189 
L 611.765625 238.297189 
" clip-path="url(#p53dbc8819a)" style="fill: none; stroke-dasharray: 2.775,1.2; stroke-dashoffset: 0; stroke: #1f77b4; stroke-width: 0.75"/>
   </g>
   <g id="patch_3">
    <path d="M 53.765625 418.677656 
L 53.765625 30.597656 
" style="fill: none; stroke: #000000; stroke-width: 0.8; stroke-linejoin: miter; stroke-linecap: square"/>
   </g>
   <g id="patch_4">
    <path d="M 611.765625 418.677656 
L 611.765625 30.597656 
" style="fill: none; stroke: #000000; stroke-width: 0.8; stroke-linejoin: miter; stroke-linecap: square"/>
   </g>
   <g id="patch_5">
    <path d="M 53.765625 418.677656 
L 611.765625 418.677656 
" style="fill: none; stroke: #000000; stroke-width: 0.8; stroke-linejoin: miter; stroke-linecap: square"/>
   </g>
   <g id="patch_6">
    <path d="M 53.765625 30.597656 
L 611.765625 30.597656 
" style="fill: none; stroke: #000000; stroke-width: 0.8; stroke-linejoin: miter; stroke-linecap: square"/>
   </g>
   <g id="text_14">
    <!-- $\omega_+^{\rm max}$ -->
    <g transform="translate(587.504755 83.516787) scale(0.092 -0.092)">
     <defs>
      <path id="DejaVuSans-6d" d="M 3328 2828 
Q 3544 3216 3844 3400 
Q 4144 3584 4550 3584 
Q 5097 3584 5394 3201 
Q 5691 2819 5691 2113 
L 5691 0 
L 5113 0 
L 5113 2094 
Q 5113 2597 4934 2840 
Q 4756 3084 4391 3084 
Q 3944 3084 3684 2787 
Q 3425 2491 3425 1978 
L 3425 0 
L 2847 0 
L 2847 2094 
Q 2847 2600 2669 2842 
Q 2491 3084 2119 3084 
Q 1678 3084 1418 2786 
Q 1159 2488 1159 1978 
L 1159 0 
L 581 0 
L 581 3500 
L 1159 3500 
L 1159 2956 
Q 1356 3278 1631 3431 
Q 1906 3584 2284 3584 
Q 2666 3584 2933 3390 
Q 3200 3197 3328 2828 
z
" transform="scale(0.015625)"/>
      <path id="DejaVuSans-78" d="M 3513 3500 
L 2247 1797 
L 3578 0 
L 2900 0 
L 1881 1375 
L 863 0 
L 184 0 
L 1544 1831 
L 300 3500 
L 978 3500 
L 1906 2253 
L 2834 3500 
L 3513 3500 
z
" transform="scale(0.015625)"/>
     </defs>
     <use xlink:href="#DejaVuSans-Oblique-3c9" transform="translate(0 0.51875)"/>
     <use xlink:href="#DejaVuSans-6d" transform="translate(88.20638 38.8) scale(0.7)"/>
     <use xlink:href="#DejaVuSans-61" transform="translate(156.394857 38.8) scale(0.7)"/>
     <use xlink:href="#DejaVuSans-78" transform="translate(199.290365 38.8) scale(0.7)"/>
     <use xlink:href="#DejaVuSans-2b" transform="translate(97.37793 -26.825) scale(0.7)"/>
    </g>
   </g>
   <g id="text_15">
    <!-- $\omega_+^{\rm min}$ -->
    <g transform="translate(587.504755 136.415095) scale(0.092 -0.092)">
     <use xlink:href="#DejaVuSans-Oblique-3c9" transform="translate(0 0.529687)"/>
     <use xlink:href="#DejaVuSans-6d" transform="translate(88.20638 38.810938) scale(0.7)"/>
     <use xlink:href="#DejaVuSans-69" transform="translate(156.394857 38.810938) scale(0.7)"/>
     <use xlink:href="#DejaVuSans-6e" transform="translate(175.843099 38.810938) scale(0.7)"/>
     <use xlink:href="#DejaVuSans-2b" transform="translate(97.37793 -26.814063) scale(0.7)"/>
    </g>
   </g>
   <g id="text_16">
    <!-- $\omega_-^{\rm max}$ -->
    <g transform="translate(587.504755 240.597189) scale(0.092 -0.092)">
     <use xlink:href="#DejaVuSans-Oblique-3c9" transform="translate(0 0.51875)"/>
     <use xlink:href="#DejaVuSans-6d" transform="translate(88.20638 38.8) scale(0.7)"/>
     <use xlink:href="#DejaVuSans-61" transform="translate(156.394857 38.8) scale(0.7)"/>
     <use xlink:href="#DejaVuSans-78" transform="translate(199.290365 38.8) scale(0.7)"/>
     <use xlink:href="#DejaVuSans-2212" transform="translate(97.37793 -26.825) scale(0.7)"/>
    </g>
   </g>
   <g id="text_17">
    <!-- $\omega_+(q)$ -->
    <g transform="translate(357.026495 65.083067) scale(0.1 -0.1)">
     <defs>
      <path id="DejaVuSans-28" d="M 1984 4856 
Q 1566 4138 1362 3434 
Q 1159 2731 1159 2009 
Q 1159 1288 1364 580 
Q 1569 -128 1984 -844 
L 1484 -844 
Q 1016 -109 783 600 
Q 550 1309 550 2009 
Q 550 2706 781 3412 
Q 1013 4119 1484 4856 
L 1984 4856 
z
" transform="scale(0.015625)"/>
      <path id="DejaVuSans-29" d="M 513 4856 
L 1013 4856 
Q 1481 4119 1714 3412 
Q 1947 2706 1947 2009 
Q 1947 1309 1714 600 
Q 1481 -109 1013 -844 
L 513 -844 
Q 928 -128 1133 580 
Q 1338 1288 1338 2009 
Q 1338 2731 1133 3434 
Q 928 4138 513 4856 
z
" transform="scale(0.015625)"/>
     </defs>
     <use xlink:href="#DejaVuSans-Oblique-3c9" transform="translate(0 0.125)"/>
     <use xlink:href="#DejaVuSans-2b" transform="translate(97.37793 -16.28125) scale(0.7)"/>
     <use xlink:href="#DejaVuSans-28" transform="translate(172.402344 0.125)"/>
     <use xlink:href="#DejaVuSans-Oblique-71" transform="translate(211.416016 0.125)"/>
     <use xlink:href="#DejaVuSans-29" transform="translate(274.892578 0.125)"/>
    </g>
   </g>
   <g id="text_18">
    <!-- $\omega_-(q)$ -->
    <g transform="translate(369.156929 394.23737) scale(0.1 -0.1)">
     <use xlink:href="#DejaVuSans-Oblique-3c9" transform="translate(0 0.125)"/>
     <use xlink:href="#DejaVuSans-2212" transform="translate(97.37793 -16.28125) scale(0.7)"/>
     <use xlink:href="#DejaVuSans-28" transform="translate(172.402344 0.125)"/>
     <use xlink:href="#DejaVuSans-Oblique-71" transform="translate(211.416016 0.125)"/>
     <use xlink:href="#DejaVuSans-29" transform="translate(274.892578 0.125)"/>
    </g>
   </g>
   <g id="text_19">
    <!-- Dispersione longitudinale di una catena biatomica -->
    <g transform="translate(119.867578 18.597656) scale(0.15 -0.15)">
     <defs>
      <path id="DejaVuSans-Bold-44" d="M 1791 3756 
L 1791 909 
L 2222 909 
Q 2959 909 3348 1275 
Q 3738 1641 3738 2338 
Q 3738 3031 3350 3393 
Q 2963 3756 2222 3756 
L 1791 3756 
z
M 588 4666 
L 1856 4666 
Q 2919 4666 3439 4514 
Q 3959 4363 4331 4000 
Q 4659 3684 4818 3271 
Q 4978 2859 4978 2338 
Q 4978 1809 4818 1395 
Q 4659 981 4331 666 
Q 3956 303 3431 151 
Q 2906 0 1856 0 
L 588 0 
L 588 4666 
z
" transform="scale(0.015625)"/>
      <path id="DejaVuSans-Bold-69" d="M 538 3500 
L 1656 3500 
L 1656 0 
L 538 0 
L 538 3500 
z
M 538 4863 
L 1656 4863 
L 1656 3950 
L 538 3950 
L 538 4863 
z
" transform="scale(0.015625)"/>
      <path id="DejaVuSans-Bold-73" d="M 3272 3391 
L 3272 2541 
Q 2913 2691 2578 2766 
Q 2244 2841 1947 2841 
Q 1628 2841 1473 2761 
Q 1319 2681 1319 2516 
Q 1319 2381 1436 2309 
Q 1553 2238 1856 2203 
L 2053 2175 
Q 2913 2066 3209 1816 
Q 3506 1566 3506 1031 
Q 3506 472 3093 190 
Q 2681 -91 1863 -91 
Q 1516 -91 1145 -36 
Q 775 19 384 128 
L 384 978 
Q 719 816 1070 734 
Q 1422 653 1784 653 
Q 2113 653 2278 743 
Q 2444 834 2444 1013 
Q 2444 1163 2330 1236 
Q 2216 1309 1875 1350 
L 1678 1375 
Q 931 1469 631 1722 
Q 331 1975 331 2491 
Q 331 3047 712 3315 
Q 1094 3584 1881 3584 
Q 2191 3584 2531 3537 
Q 2872 3491 3272 3391 
z
" transform="scale(0.015625)"/>
      <path id="DejaVuSans-Bold-70" d="M 1656 506 
L 1656 -1331 
L 538 -1331 
L 538 3500 
L 1656 3500 
L 1656 2988 
Q 1888 3294 2169 3439 
Q 2450 3584 2816 3584 
Q 3463 3584 3878 3070 
Q 4294 2556 4294 1747 
Q 4294 938 3878 423 
Q 3463 -91 2816 -91 
Q 2450 -91 2169 54 
Q 1888 200 1656 506 
z
M 2400 2772 
Q 2041 2772 1848 2508 
Q 1656 2244 1656 1747 
Q 1656 1250 1848 986 
Q 2041 722 2400 722 
Q 2759 722 2948 984 
Q 3138 1247 3138 1747 
Q 3138 2247 2948 2509 
Q 2759 2772 2400 2772 
z
" transform="scale(0.015625)"/>
      <path id="DejaVuSans-Bold-65" d="M 4031 1759 
L 4031 1441 
L 1416 1441 
Q 1456 1047 1700 850 
Q 1944 653 2381 653 
Q 2734 653 3104 758 
Q 3475 863 3866 1075 
L 3866 213 
Q 3469 63 3072 -14 
Q 2675 -91 2278 -91 
Q 1328 -91 801 392 
Q 275 875 275 1747 
Q 275 2603 792 3093 
Q 1309 3584 2216 3584 
Q 3041 3584 3536 3087 
Q 4031 2591 4031 1759 
z
M 2881 2131 
Q 2881 2450 2695 2645 
Q 2509 2841 2209 2841 
Q 1884 2841 1681 2658 
Q 1478 2475 1428 2131 
L 2881 2131 
z
" transform="scale(0.015625)"/>
      <path id="DejaVuSans-Bold-72" d="M 3138 2547 
Q 2991 2616 2845 2648 
Q 2700 2681 2553 2681 
Q 2122 2681 1889 2404 
Q 1656 2128 1656 1613 
L 1656 0 
L 538 0 
L 538 3500 
L 1656 3500 
L 1656 2925 
Q 1872 3269 2151 3426 
Q 2431 3584 2822 3584 
Q 2878 3584 2943 3579 
Q 3009 3575 3134 3559 
L 3138 2547 
z
" transform="scale(0.015625)"/>
      <path id="DejaVuSans-Bold-6f" d="M 2203 2784 
Q 1831 2784 1636 2517 
Q 1441 2250 1441 1747 
Q 1441 1244 1636 976 
Q 1831 709 2203 709 
Q 2569 709 2762 976 
Q 2956 1244 2956 1747 
Q 2956 2250 2762 2517 
Q 2569 2784 2203 2784 
z
M 2203 3584 
Q 3106 3584 3614 3096 
Q 4122 2609 4122 1747 
Q 4122 884 3614 396 
Q 3106 -91 2203 -91 
Q 1297 -91 786 396 
Q 275 884 275 1747 
Q 275 2609 786 3096 
Q 1297 3584 2203 3584 
z
" transform="scale(0.015625)"/>
      <path id="DejaVuSans-Bold-6e" d="M 4056 2131 
L 4056 0 
L 2931 0 
L 2931 347 
L 2931 1631 
Q 2931 2084 2911 2256 
Q 2891 2428 2841 2509 
Q 2775 2619 2662 2680 
Q 2550 2741 2406 2741 
Q 2056 2741 1856 2470 
Q 1656 2200 1656 1722 
L 1656 0 
L 538 0 
L 538 3500 
L 1656 3500 
L 1656 2988 
Q 1909 3294 2193 3439 
Q 2478 3584 2822 3584 
Q 3428 3584 3742 3212 
Q 4056 2841 4056 2131 
z
" transform="scale(0.015625)"/>
      <path id="DejaVuSans-Bold-20" transform="scale(0.015625)"/>
      <path id="DejaVuSans-Bold-6c" d="M 538 4863 
L 1656 4863 
L 1656 0 
L 538 0 
L 538 4863 
z
" transform="scale(0.015625)"/>
      <path id="DejaVuSans-Bold-67" d="M 2919 594 
Q 2688 288 2409 144 
Q 2131 0 1766 0 
Q 1125 0 706 504 
Q 288 1009 288 1791 
Q 288 2575 706 3076 
Q 1125 3578 1766 3578 
Q 2131 3578 2409 3434 
Q 2688 3291 2919 2981 
L 2919 3500 
L 4044 3500 
L 4044 353 
Q 4044 -491 3511 -936 
Q 2978 -1381 1966 -1381 
Q 1638 -1381 1331 -1331 
Q 1025 -1281 716 -1178 
L 716 -306 
Q 1009 -475 1290 -558 
Q 1572 -641 1856 -641 
Q 2406 -641 2662 -400 
Q 2919 -159 2919 353 
L 2919 594 
z
M 2181 2772 
Q 1834 2772 1640 2515 
Q 1447 2259 1447 1791 
Q 1447 1309 1634 1061 
Q 1822 813 2181 813 
Q 2531 813 2725 1069 
Q 2919 1325 2919 1791 
Q 2919 2259 2725 2515 
Q 2531 2772 2181 2772 
z
" transform="scale(0.015625)"/>
      <path id="DejaVuSans-Bold-74" d="M 1759 4494 
L 1759 3500 
L 2913 3500 
L 2913 2700 
L 1759 2700 
L 1759 1216 
Q 1759 972 1856 886 
Q 1953 800 2241 800 
L 2816 800 
L 2816 0 
L 1856 0 
Q 1194 0 917 276 
Q 641 553 641 1216 
L 641 2700 
L 84 2700 
L 84 3500 
L 641 3500 
L 641 4494 
L 1759 4494 
z
" transform="scale(0.015625)"/>
      <path id="DejaVuSans-Bold-75" d="M 500 1363 
L 500 3500 
L 1625 3500 
L 1625 3150 
Q 1625 2866 1622 2436 
Q 1619 2006 1619 1863 
Q 1619 1441 1641 1255 
Q 1663 1069 1716 984 
Q 1784 875 1895 815 
Q 2006 756 2150 756 
Q 2500 756 2700 1025 
Q 2900 1294 2900 1772 
L 2900 3500 
L 4019 3500 
L 4019 0 
L 2900 0 
L 2900 506 
Q 2647 200 2364 54 
Q 2081 -91 1741 -91 
Q 1134 -91 817 281 
Q 500 653 500 1363 
z
" transform="scale(0.015625)"/>
      <path id="DejaVuSans-Bold-64" d="M 2919 2988 
L 2919 4863 
L 4044 4863 
L 4044 0 
L 2919 0 
L 2919 506 
Q 2688 197 2409 53 
Q 2131 -91 1766 -91 
Q 1119 -91 703 423 
Q 288 938 288 1747 
Q 288 2556 703 3070 
Q 1119 3584 1766 3584 
Q 2128 3584 2408 3439 
Q 2688 3294 2919 2988 
z
M 2181 722 
Q 2541 722 2730 984 
Q 2919 1247 2919 1747 
Q 2919 2247 2730 2509 
Q 2541 2772 2181 2772 
Q 1825 2772 1636 2509 
Q 1447 2247 1447 1747 
Q 1447 1247 1636 984 
Q 1825 722 2181 722 
z
" transform="scale(0.015625)"/>
      <path id="DejaVuSans-Bold-61" d="M 2106 1575 
Q 1756 1575 1579 1456 
Q 1403 1338 1403 1106 
Q 1403 894 1545 773 
Q 1688 653 1941 653 
Q 2256 653 2472 879 
Q 2688 1106 2688 1447 
L 2688 1575 
L 2106 1575 
z
M 3816 1997 
L 3816 0 
L 2688 0 
L 2688 519 
Q 2463 200 2181 54 
Q 1900 -91 1497 -91 
Q 953 -91 614 226 
Q 275 544 275 1050 
Q 275 1666 698 1953 
Q 1122 2241 2028 2241 
L 2688 2241 
L 2688 2328 
Q 2688 2594 2478 2717 
Q 2269 2841 1825 2841 
Q 1466 2841 1156 2769 
Q 847 2697 581 2553 
L 581 3406 
Q 941 3494 1303 3539 
Q 1666 3584 2028 3584 
Q 2975 3584 3395 3211 
Q 3816 2838 3816 1997 
z
" transform="scale(0.015625)"/>
      <path id="DejaVuSans-Bold-63" d="M 3366 3391 
L 3366 2478 
Q 3138 2634 2908 2709 
Q 2678 2784 2431 2784 
Q 1963 2784 1702 2511 
Q 1441 2238 1441 1747 
Q 1441 1256 1702 982 
Q 1963 709 2431 709 
Q 2694 709 2930 787 
Q 3166 866 3366 1019 
L 3366 103 
Q 3103 6 2833 -42 
Q 2563 -91 2291 -91 
Q 1344 -91 809 395 
Q 275 881 275 1747 
Q 275 2613 809 3098 
Q 1344 3584 2291 3584 
Q 2566 3584 2833 3536 
Q 3100 3488 3366 3391 
z
" transform="scale(0.015625)"/>
      <path id="DejaVuSans-Bold-62" d="M 2400 722 
Q 2759 722 2948 984 
Q 3138 1247 3138 1747 
Q 3138 2247 2948 2509 
Q 2759 2772 2400 2772 
Q 2041 2772 1848 2508 
Q 1656 2244 1656 1747 
Q 1656 1250 1848 986 
Q 2041 722 2400 722 
z
M 1656 2988 
Q 1888 3294 2169 3439 
Q 2450 3584 2816 3584 
Q 3463 3584 3878 3070 
Q 4294 2556 4294 1747 
Q 4294 938 3878 423 
Q 3463 -91 2816 -91 
Q 2450 -91 2169 54 
Q 1888 200 1656 506 
L 1656 0 
L 538 0 
L 538 4863 
L 1656 4863 
L 1656 2988 
z
" transform="scale(0.015625)"/>
      <path id="DejaVuSans-Bold-6d" d="M 3781 2919 
Q 3994 3244 4286 3414 
Q 4578 3584 4928 3584 
Q 5531 3584 5847 3212 
Q 6163 2841 6163 2131 
L 6163 0 
L 5038 0 
L 5038 1825 
Q 5041 1866 5042 1909 
Q 5044 1953 5044 2034 
Q 5044 2406 4934 2573 
Q 4825 2741 4581 2741 
Q 4263 2741 4089 2478 
Q 3916 2216 3909 1719 
L 3909 0 
L 2784 0 
L 2784 1825 
Q 2784 2406 2684 2573 
Q 2584 2741 2328 2741 
Q 2006 2741 1831 2477 
Q 1656 2213 1656 1722 
L 1656 0 
L 531 0 
L 531 3500 
L 1656 3500 
L 1656 2988 
Q 1863 3284 2130 3434 
Q 2397 3584 2719 3584 
Q 3081 3584 3359 3409 
Q 3638 3234 3781 2919 
z
" transform="scale(0.015625)"/>
     </defs>
     <use xlink:href="#DejaVuSans-Bold-44"/>
     <use xlink:href="#DejaVuSans-Bold-69" transform="translate(83.007812 0)"/>
     <use xlink:href="#DejaVuSans-Bold-73" transform="translate(117.285156 0)"/>
     <use xlink:href="#DejaVuSans-Bold-70" transform="translate(176.806641 0)"/>
     <use xlink:href="#DejaVuSans-Bold-65" transform="translate(248.388672 0)"/>
     <use xlink:href="#DejaVuSans-Bold-72" transform="translate(316.210938 0)"/>
     <use xlink:href="#DejaVuSans-Bold-73" transform="translate(365.527344 0)"/>
     <use xlink:href="#DejaVuSans-Bold-69" transform="translate(425.048828 0)"/>
     <use xlink:href="#DejaVuSans-Bold-6f" transform="translate(459.326172 0)"/>
     <use xlink:href="#DejaVuSans-Bold-6e" transform="translate(528.027344 0)"/>
     <use xlink:href="#DejaVuSans-Bold-65" transform="translate(599.21875 0)"/>
     <use xlink:href="#DejaVuSans-Bold-20" transform="translate(667.041016 0)"/>
     <use xlink:href="#DejaVuSans-Bold-6c" transform="translate(701.855469 0)"/>
     <use xlink:href="#DejaVuSans-Bold-6f" transform="translate(736.132812 0)"/>
     <use xlink:href="#DejaVuSans-Bold-6e" transform="translate(804.833984 0)"/>
     <use xlink:href="#DejaVuSans-Bold-67" transform="translate(876.025391 0)"/>
     <use xlink:href="#DejaVuSans-Bold-69" transform="translate(947.607422 0)"/>
     <use xlink:href="#DejaVuSans-Bold-74" transform="translate(981.884766 0)"/>
     <use xlink:href="#DejaVuSans-Bold-75" transform="translate(1029.6875 0)"/>
     <use xlink:href="#DejaVuSans-Bold-64" transform="translate(1100.878906 0)"/>
     <use xlink:href="#DejaVuSans-Bold-69" transform="translate(1172.460938 0)"/>
     <use xlink:href="#DejaVuSans-Bold-6e" transform="translate(1206.738281 0)"/>
     <use xlink:href="#DejaVuSans-Bold-61" transform="translate(1277.929688 0)"/>
     <use xlink:href="#DejaVuSans-Bold-6c" transform="translate(1345.410156 0)"/>
     <use xlink:href="#DejaVuSans-Bold-65" transform="translate(1379.6875 0)"/>
     <use xlink:href="#DejaVuSans-Bold-20" transform="translate(1447.509766 0)"/>
     <use xlink:href="#DejaVuSans-Bold-64" transform="translate(1482.324219 0)"/>
     <use xlink:href="#DejaVuSans-Bold-69" transform="translate(1553.90625 0)"/>
     <use xlink:href="#DejaVuSans-Bold-20" transform="translate(1588.183594 0)"/>
     <use xlink:href="#DejaVuSans-Bold-75" transform="translate(1622.998047 0)"/>
     <use xlink:href="#DejaVuSans-Bold-6e" transform="translate(1694.189453 0)"/>
     <use xlink:href="#DejaVuSans-Bold-61" transform="translate(1765.380859 0)"/>
     <use xlink:href="#DejaVuSans-Bold-20" transform="translate(1832.861328 0)"/>
     <use xlink:href="#DejaVuSans-Bold-63" transform="translate(1867.675781 0)"/>
     <use xlink:href="#DejaVuSans-Bold-61" transform="translate(1926.953125 0)"/>
     <use xlink:href="#DejaVuSans-Bold-74" transform="translate(1994.433594 0)"/>
     <use xlink:href="#DejaVuSans-Bold-65" transform="translate(2042.236328 0)"/>
     <use xlink:href="#DejaVuSans-Bold-6e" transform="translate(2110.058594 0)"/>
     <use xlink:href="#DejaVuSans-Bold-61" transform="translate(2181.25 0)"/>
     <use xlink:href="#DejaVuSans-Bold-20" transform="translate(2248.730469 0)"/>
     <use xlink:href="#DejaVuSans-Bold-62" transform="translate(2283.544922 0)"/>
     <use xlink:href="#DejaVuSans-Bold-69" transform="translate(2355.126953 0)"/>
     <use xlink:href="#DejaVuSans-Bold-61" transform="translate(2389.404297 0)"/>
     <use xlink:href="#DejaVuSans-Bold-74" transform="translate(2456.884766 0)"/>
     <use xlink:href="#DejaVuSans-Bold-6f" transform="translate(2504.6875 0)"/>
     <use xlink:href="#DejaVuSans-Bold-6d" transform="translate(2573.388672 0)"/>
     <use xlink:href="#DejaVuSans-Bold-69" transform="translate(2677.587891 0)"/>
     <use xlink:href="#DejaVuSans-Bold-63" transform="translate(2711.865234 0)"/>
     <use xlink:href="#DejaVuSans-Bold-61" transform="translate(2771.142578 0)"/>
    </g>
   </g>
   <g id="legend_1">
    <g id="line2d_30">
     <path d="M 62.765625 216.557969 
L 72.765625 216.557969 
L 82.765625 216.557969 
" style="fill: none; stroke: #1f77b4; stroke-width: 2.3; stroke-linecap: square"/>
    </g>
    <g id="text_20">
     <!-- ramo ottico -->
     <g transform="translate(90.765625 220.057969) scale(0.1 -0.1)">
      <defs>
       <path id="DejaVuSans-63" d="M 3122 3366 
L 3122 2828 
Q 2878 2963 2633 3030 
Q 2388 3097 2138 3097 
Q 1578 3097 1268 2742 
Q 959 2388 959 1747 
Q 959 1106 1268 751 
Q 1578 397 2138 397 
Q 2388 397 2633 464 
Q 2878 531 3122 666 
L 3122 134 
Q 2881 22 2623 -34 
Q 2366 -91 2075 -91 
Q 1284 -91 818 406 
Q 353 903 353 1747 
Q 353 2603 823 3093 
Q 1294 3584 2113 3584 
Q 2378 3584 2631 3529 
Q 2884 3475 3122 3366 
z
" transform="scale(0.015625)"/>
      </defs>
      <use xlink:href="#DejaVuSans-72"/>
      <use xlink:href="#DejaVuSans-61" transform="translate(41.113281 0)"/>
      <use xlink:href="#DejaVuSans-6d" transform="translate(102.392578 0)"/>
      <use xlink:href="#DejaVuSans-6f" transform="translate(199.804688 0)"/>
      <use xlink:href="#DejaVuSans-20" transform="translate(260.986328 0)"/>
      <use xlink:href="#DejaVuSans-6f" transform="translate(292.773438 0)"/>
      <use xlink:href="#DejaVuSans-74" transform="translate(353.955078 0)"/>
      <use xlink:href="#DejaVuSans-74" transform="translate(393.164062 0)"/>
      <use xlink:href="#DejaVuSans-69" transform="translate(432.373047 0)"/>
      <use xlink:href="#DejaVuSans-63" transform="translate(460.15625 0)"/>
      <use xlink:href="#DejaVuSans-6f" transform="translate(515.136719 0)"/>
     </g>
    </g>
    <g id="line2d_31">
     <path d="M 62.765625 231.236094 
L 72.765625 231.236094 
L 82.765625 231.236094 
" style="fill: none; stroke: #ff7f0e; stroke-width: 2.3; stroke-linecap: square"/>
    </g>
    <g id="text_21">
     <!-- ramo acustico -->
     <g transform="translate(90.765625 234.736094) scale(0.1 -0.1)">
      <defs>
       <path id="DejaVuSans-73" d="M 2834 3397 
L 2834 2853 
Q 2591 2978 2328 3040 
Q 2066 3103 1784 3103 
Q 1356 3103 1142 2972 
Q 928 2841 928 2578 
Q 928 2378 1081 2264 
Q 1234 2150 1697 2047 
L 1894 2003 
Q 2506 1872 2764 1633 
Q 3022 1394 3022 966 
Q 3022 478 2636 193 
Q 2250 -91 1575 -91 
Q 1294 -91 989 -36 
Q 684 19 347 128 
L 347 722 
Q 666 556 975 473 
Q 1284 391 1588 391 
Q 1994 391 2212 530 
Q 2431 669 2431 922 
Q 2431 1156 2273 1281 
Q 2116 1406 1581 1522 
L 1381 1569 
Q 847 1681 609 1914 
Q 372 2147 372 2553 
Q 372 3047 722 3315 
Q 1072 3584 1716 3584 
Q 2034 3584 2315 3537 
Q 2597 3491 2834 3397 
z
" transform="scale(0.015625)"/>
      </defs>
      <use xlink:href="#DejaVuSans-72"/>
      <use xlink:href="#DejaVuSans-61" transform="translate(41.113281 0)"/>
      <use xlink:href="#DejaVuSans-6d" transform="translate(102.392578 0)"/>
      <use xlink:href="#DejaVuSans-6f" transform="translate(199.804688 0)"/>
      <use xlink:href="#DejaVuSans-20" transform="translate(260.986328 0)"/>
      <use xlink:href="#DejaVuSans-61" transform="translate(292.773438 0)"/>
      <use xlink:href="#DejaVuSans-63" transform="translate(354.052734 0)"/>
      <use xlink:href="#DejaVuSans-75" transform="translate(409.033203 0)"/>
      <use xlink:href="#DejaVuSans-73" transform="translate(472.412109 0)"/>
      <use xlink:href="#DejaVuSans-74" transform="translate(524.511719 0)"/>
      <use xlink:href="#DejaVuSans-69" transform="translate(563.720703 0)"/>
      <use xlink:href="#DejaVuSans-63" transform="translate(591.503906 0)"/>
      <use xlink:href="#DejaVuSans-6f" transform="translate(646.484375 0)"/>
     </g>
    </g>
   </g>
  </g>
  <g id="text_22">
   <!-- La presenza di due masse nella cella elementare genera un ramo acustico e uno ottico separati da un intervallo di frequenze. -->
   <g transform="translate(8.648438 461.517656) scale(0.1 -0.1)">
    <defs>
     <path id="DejaVuSans-4c" d="M 628 4666 
L 1259 4666 
L 1259 531 
L 3531 531 
L 3531 0 
L 628 0 
L 628 4666 
z
" transform="scale(0.015625)"/>
     <path id="DejaVuSans-70" d="M 1159 525 
L 1159 -1331 
L 581 -1331 
L 581 3500 
L 1159 3500 
L 1159 2969 
Q 1341 3281 1617 3432 
Q 1894 3584 2278 3584 
Q 2916 3584 3314 3078 
Q 3713 2572 3713 1747 
Q 3713 922 3314 415 
Q 2916 -91 2278 -91 
Q 1894 -91 1617 61 
Q 1341 213 1159 525 
z
M 3116 1747 
Q 3116 2381 2855 2742 
Q 2594 3103 2138 3103 
Q 1681 3103 1420 2742 
Q 1159 2381 1159 1747 
Q 1159 1113 1420 752 
Q 1681 391 2138 391 
Q 2594 391 2855 752 
Q 3116 1113 3116 1747 
z
" transform="scale(0.015625)"/>
     <path id="DejaVuSans-6c" d="M 603 4863 
L 1178 4863 
L 1178 0 
L 603 0 
L 603 4863 
z
" transform="scale(0.015625)"/>
     <path id="DejaVuSans-67" d="M 2906 1791 
Q 2906 2416 2648 2759 
Q 2391 3103 1925 3103 
Q 1463 3103 1205 2759 
Q 947 2416 947 1791 
Q 947 1169 1205 825 
Q 1463 481 1925 481 
Q 2391 481 2648 825 
Q 2906 1169 2906 1791 
z
M 3481 434 
Q 3481 -459 3084 -895 
Q 2688 -1331 1869 -1331 
Q 1566 -1331 1297 -1286 
Q 1028 -1241 775 -1147 
L 775 -588 
Q 1028 -725 1275 -790 
Q 1522 -856 1778 -856 
Q 2344 -856 2625 -561 
Q 2906 -266 2906 331 
L 2906 616 
Q 2728 306 2450 153 
Q 2172 0 1784 0 
Q 1141 0 747 490 
Q 353 981 353 1791 
Q 353 2603 747 3093 
Q 1141 3584 1784 3584 
Q 2172 3584 2450 3431 
Q 2728 3278 2906 2969 
L 2906 3500 
L 3481 3500 
L 3481 434 
z
" transform="scale(0.015625)"/>
    </defs>
    <use xlink:href="#DejaVuSans-4c"/>
    <use xlink:href="#DejaVuSans-61" transform="translate(55.712891 0)"/>
    <use xlink:href="#DejaVuSans-20" transform="translate(116.992188 0)"/>
    <use xlink:href="#DejaVuSans-70" transform="translate(148.779297 0)"/>
    <use xlink:href="#DejaVuSans-72" transform="translate(212.255859 0)"/>
    <use xlink:href="#DejaVuSans-65" transform="translate(251.119141 0)"/>
    <use xlink:href="#DejaVuSans-73" transform="translate(312.642578 0)"/>
    <use xlink:href="#DejaVuSans-65" transform="translate(364.742188 0)"/>
    <use xlink:href="#DejaVuSans-6e" transform="translate(426.265625 0)"/>
    <use xlink:href="#DejaVuSans-7a" transform="translate(489.644531 0)"/>
    <use xlink:href="#DejaVuSans-61" transform="translate(542.134766 0)"/>
    <use xlink:href="#DejaVuSans-20" transform="translate(603.414062 0)"/>
    <use xlink:href="#DejaVuSans-64" transform="translate(635.201172 0)"/>
    <use xlink:href="#DejaVuSans-69" transform="translate(698.677734 0)"/>
    <use xlink:href="#DejaVuSans-20" transform="translate(726.460938 0)"/>
    <use xlink:href="#DejaVuSans-64" transform="translate(758.248047 0)"/>
    <use xlink:href="#DejaVuSans-75" transform="translate(821.724609 0)"/>
    <use xlink:href="#DejaVuSans-65" transform="translate(885.103516 0)"/>
    <use xlink:href="#DejaVuSans-20" transform="translate(946.626953 0)"/>
    <use xlink:href="#DejaVuSans-6d" transform="translate(978.414062 0)"/>
    <use xlink:href="#DejaVuSans-61" transform="translate(1075.826172 0)"/>
    <use xlink:href="#DejaVuSans-73" transform="translate(1137.105469 0)"/>
    <use xlink:href="#DejaVuSans-73" transform="translate(1189.205078 0)"/>
    <use xlink:href="#DejaVuSans-65" transform="translate(1241.304688 0)"/>
    <use xlink:href="#DejaVuSans-20" transform="translate(1302.828125 0)"/>
    <use xlink:href="#DejaVuSans-6e" transform="translate(1334.615234 0)"/>
    <use xlink:href="#DejaVuSans-65" transform="translate(1397.994141 0)"/>
    <use xlink:href="#DejaVuSans-6c" transform="translate(1459.517578 0)"/>
    <use xlink:href="#DejaVuSans-6c" transform="translate(1487.300781 0)"/>
    <use xlink:href="#DejaVuSans-61" transform="translate(1515.083984 0)"/>
    <use xlink:href="#DejaVuSans-20" transform="translate(1576.363281 0)"/>
    <use xlink:href="#DejaVuSans-63" transform="translate(1608.150391 0)"/>
    <use xlink:href="#DejaVuSans-65" transform="translate(1663.130859 0)"/>
    <use xlink:href="#DejaVuSans-6c" transform="translate(1724.654297 0)"/>
    <use xlink:href="#DejaVuSans-6c" transform="translate(1752.4375 0)"/>
    <use xlink:href="#DejaVuSans-61" transform="translate(1780.220703 0)"/>
    <use xlink:href="#DejaVuSans-20" transform="translate(1841.5 0)"/>
    <use xlink:href="#DejaVuSans-65" transform="translate(1873.287109 0)"/>
    <use xlink:href="#DejaVuSans-6c" transform="translate(1934.810547 0)"/>
    <use xlink:href="#DejaVuSans-65" transform="translate(1962.59375 0)"/>
    <use xlink:href="#DejaVuSans-6d" transform="translate(2024.117188 0)"/>
    <use xlink:href="#DejaVuSans-65" transform="translate(2121.529297 0)"/>
    <use xlink:href="#DejaVuSans-6e" transform="translate(2183.052734 0)"/>
    <use xlink:href="#DejaVuSans-74" transform="translate(2246.431641 0)"/>
    <use xlink:href="#DejaVuSans-61" transform="translate(2285.640625 0)"/>
    <use xlink:href="#DejaVuSans-72" transform="translate(2346.919922 0)"/>
    <use xlink:href="#DejaVuSans-65" transform="translate(2385.783203 0)"/>
    <use xlink:href="#DejaVuSans-20" transform="translate(2447.306641 0)"/>
    <use xlink:href="#DejaVuSans-67" transform="translate(2479.09375 0)"/>
    <use xlink:href="#DejaVuSans-65" transform="translate(2542.570312 0)"/>
    <use xlink:href="#DejaVuSans-6e" transform="translate(2604.09375 0)"/>
    <use xlink:href="#DejaVuSans-65" transform="translate(2667.472656 0)"/>
    <use xlink:href="#DejaVuSans-72" transform="translate(2728.996094 0)"/>
    <use xlink:href="#DejaVuSans-61" transform="translate(2770.109375 0)"/>
    <use xlink:href="#DejaVuSans-20" transform="translate(2831.388672 0)"/>
    <use xlink:href="#DejaVuSans-75" transform="translate(2863.175781 0)"/>
    <use xlink:href="#DejaVuSans-6e" transform="translate(2926.554688 0)"/>
    <use xlink:href="#DejaVuSans-20" transform="translate(2989.933594 0)"/>
    <use xlink:href="#DejaVuSans-72" transform="translate(3021.720703 0)"/>
    <use xlink:href="#DejaVuSans-61" transform="translate(3062.833984 0)"/>
    <use xlink:href="#DejaVuSans-6d" transform="translate(3124.113281 0)"/>
    <use xlink:href="#DejaVuSans-6f" transform="translate(3221.525391 0)"/>
    <use xlink:href="#DejaVuSans-20" transform="translate(3282.707031 0)"/>
    <use xlink:href="#DejaVuSans-61" transform="translate(3314.494141 0)"/>
    <use xlink:href="#DejaVuSans-63" transform="translate(3375.773438 0)"/>
    <use xlink:href="#DejaVuSans-75" transform="translate(3430.753906 0)"/>
    <use xlink:href="#DejaVuSans-73" transform="translate(3494.132812 0)"/>
    <use xlink:href="#DejaVuSans-74" transform="translate(3546.232422 0)"/>
    <use xlink:href="#DejaVuSans-69" transform="translate(3585.441406 0)"/>
    <use xlink:href="#DejaVuSans-63" transform="translate(3613.224609 0)"/>
    <use xlink:href="#DejaVuSans-6f" transform="translate(3668.205078 0)"/>
    <use xlink:href="#DejaVuSans-20" transform="translate(3729.386719 0)"/>
    <use xlink:href="#DejaVuSans-65" transform="translate(3761.173828 0)"/>
    <use xlink:href="#DejaVuSans-20" transform="translate(3822.697266 0)"/>
    <use xlink:href="#DejaVuSans-75" transform="translate(3854.484375 0)"/>
    <use xlink:href="#DejaVuSans-6e" transform="translate(3917.863281 0)"/>
    <use xlink:href="#DejaVuSans-6f" transform="translate(3981.242188 0)"/>
    <use xlink:href="#DejaVuSans-20" transform="translate(4042.423828 0)"/>
    <use xlink:href="#DejaVuSans-6f" transform="translate(4074.210938 0)"/>
    <use xlink:href="#DejaVuSans-74" transform="translate(4135.392578 0)"/>
    <use xlink:href="#DejaVuSans-74" transform="translate(4174.601562 0)"/>
    <use xlink:href="#DejaVuSans-69" transform="translate(4213.810547 0)"/>
    <use xlink:href="#DejaVuSans-63" transform="translate(4241.59375 0)"/>
    <use xlink:href="#DejaVuSans-6f" transform="translate(4296.574219 0)"/>
    <use xlink:href="#DejaVuSans-20" transform="translate(4357.755859 0)"/>
    <use xlink:href="#DejaVuSans-73" transform="translate(4389.542969 0)"/>
    <use xlink:href="#DejaVuSans-65" transform="translate(4441.642578 0)"/>
    <use xlink:href="#DejaVuSans-70" transform="translate(4503.166016 0)"/>
    <use xlink:href="#DejaVuSans-61" transform="translate(4566.642578 0)"/>
    <use xlink:href="#DejaVuSans-72" transform="translate(4627.921875 0)"/>
    <use xlink:href="#DejaVuSans-61" transform="translate(4669.035156 0)"/>
    <use xlink:href="#DejaVuSans-74" transform="translate(4730.314453 0)"/>
    <use xlink:href="#DejaVuSans-69" transform="translate(4769.523438 0)"/>
    <use xlink:href="#DejaVuSans-20" transform="translate(4797.306641 0)"/>
    <use xlink:href="#DejaVuSans-64" transform="translate(4829.09375 0)"/>
    <use xlink:href="#DejaVuSans-61" transform="translate(4892.570312 0)"/>
    <use xlink:href="#DejaVuSans-20" transform="translate(4953.849609 0)"/>
    <use xlink:href="#DejaVuSans-75" transform="translate(4985.636719 0)"/>
    <use xlink:href="#DejaVuSans-6e" transform="translate(5049.015625 0)"/>
    <use xlink:href="#DejaVuSans-20" transform="translate(5112.394531 0)"/>
    <use xlink:href="#DejaVuSans-69" transform="translate(5144.181641 0)"/>
    <use xlink:href="#DejaVuSans-6e" transform="translate(5171.964844 0)"/>
    <use xlink:href="#DejaVuSans-74" transform="translate(5235.34375 0)"/>
    <use xlink:href="#DejaVuSans-65" transform="translate(5274.552734 0)"/>
    <use xlink:href="#DejaVuSans-72" transform="translate(5336.076172 0)"/>
    <use xlink:href="#DejaVuSans-76" transform="translate(5377.189453 0)"/>
    <use xlink:href="#DejaVuSans-61" transform="translate(5436.369141 0)"/>
    <use xlink:href="#DejaVuSans-6c" transform="translate(5497.648438 0)"/>
    <use xlink:href="#DejaVuSans-6c" transform="translate(5525.431641 0)"/>
    <use xlink:href="#DejaVuSans-6f" transform="translate(5553.214844 0)"/>
    <use xlink:href="#DejaVuSans-20" transform="translate(5614.396484 0)"/>
    <use xlink:href="#DejaVuSans-64" transform="translate(5646.183594 0)"/>
    <use xlink:href="#DejaVuSans-69" transform="translate(5709.660156 0)"/>
    <use xlink:href="#DejaVuSans-20" transform="translate(5737.443359 0)"/>
    <use xlink:href="#DejaVuSans-66" transform="translate(5769.230469 0)"/>
    <use xlink:href="#DejaVuSans-72" transform="translate(5804.435547 0)"/>
    <use xlink:href="#DejaVuSans-65" transform="translate(5843.298828 0)"/>
    <use xlink:href="#DejaVuSans-71" transform="translate(5904.822266 0)"/>
    <use xlink:href="#DejaVuSans-75" transform="translate(5968.298828 0)"/>
    <use xlink:href="#DejaVuSans-65" transform="translate(6031.677734 0)"/>
    <use xlink:href="#DejaVuSans-6e" transform="translate(6093.201172 0)"/>
    <use xlink:href="#DejaVuSans-7a" transform="translate(6156.580078 0)"/>
    <use xlink:href="#DejaVuSans-65" transform="translate(6209.070312 0)"/>
    <use xlink:href="#DejaVuSans-2e" transform="translate(6270.59375 0)"/>
   </g>
  </g>
 </g>
 <defs>
  <clipPath id="p53dbc8819a">
   <rect x="53.765625" y="30.597656" width="558" height="388.08"/>
  </clipPath>
 </defs>
</svg>
