<?xml version="1.0" encoding="utf-8" standalone="no"?>
<!DOCTYPE svg PUBLIC "-//W3C//DTD SVG 1.1//EN"
  "http://www.w3.org/Graphics/SVG/1.1/DTD/svg11.dtd">
<svg xmlns:xlink="http://www.w3.org/1999/xlink" width="434.826562pt" height="386.946062pt" viewBox="0 0 434.826562 386.946062" xmlns="http://www.w3.org/2000/svg" version="1.1">
 <metadata>
  <rdf:RDF xmlns:dc="http://purl.org/dc/elements/1.1/" xmlns:cc="http://creativecommons.org/ns#" xmlns:rdf="http://www.w3.org/1999/02/22-rdf-syntax-ns#">
   <cc:Work>
    <dc:type rdf:resource="http://purl.org/dc/dcmitype/StillImage"/>
    <dc:date>2026-06-16T10:53:51.391852</dc:date>
    <dc:format>image/svg+xml</dc:format>
    <dc:creator>
     <cc:Agent>
      <dc:title>Matplotlib v3.10.8, https://matplotlib.org/</dc:title>
     </cc:Agent>
    </dc:creator>
   </cc:Work>
  </rdf:RDF>
 </metadata>
 <defs>
  <style type="text/css">*{stroke-linejoin: round; stroke-linecap: butt}</style>
 </defs>
 <g id="figure_1">
  <g id="patch_1">
   <path d="M 0 386.946062 
L 434.826562 386.946062 
L 434.826562 0 
L 0 0 
z
" style="fill: #ffffff"/>
  </g>
  <g id="axes_1">
   <g id="patch_2">
    <path d="M 34.240625 349.389812 
L 424.840625 349.389812 
L 424.840625 27.837812 
L 34.240625 27.837812 
z
" style="fill: #ffffff"/>
   </g>
   <g id="matplotlib.axis_1">
    <g id="xtick_1">
     <g id="line2d_1">
      <defs>
       <path id="mc80ef07ed3" d="M 0 0 
L 0 3.5 
" style="stroke: #000000; stroke-width: 0.8"/>
      </defs>
      <g>
       <use xlink:href="#mc80ef07ed3" x="34.240625" y="349.389812" style="stroke: #000000; stroke-width: 0.8"/>
      </g>
     </g>
     <g id="text_1">
      <!-- $\Gamma$ -->
      <g transform="translate(31.440625 363.98825) scale(0.1 -0.1)">
       <defs>
        <path id="DejaVuSans-393" d="M 628 0 
L 628 4666 
L 3531 4666 
L 3531 4134 
L 1259 4134 
L 1259 0 
L 628 0 
z
" transform="scale(0.015625)"/>
       </defs>
       <use xlink:href="#DejaVuSans-393" transform="translate(0 0.09375)"/>
      </g>
     </g>
    </g>
    <g id="xtick_2">
     <g id="line2d_2">
      <g>
       <use xlink:href="#mc80ef07ed3" x="90.040625" y="349.389812" style="stroke: #000000; stroke-width: 0.8"/>
      </g>
     </g>
     <g id="text_2">
      <!-- $\Delta$ -->
      <g transform="translate(86.590625 363.98825) scale(0.1 -0.1)">
       <defs>
        <path id="DejaVuSans-394" d="M 2188 4044 
L 906 525 
L 3472 525 
L 2188 4044 
z
M 50 0 
L 1831 4666 
L 2547 4666 
L 4325 0 
L 50 0 
z
" transform="scale(0.015625)"/>
       </defs>
       <use xlink:href="#DejaVuSans-394" transform="translate(0 0.09375)"/>
      </g>
     </g>
    </g>
    <g id="xtick_3">
     <g id="line2d_3">
      <g>
       <use xlink:href="#mc80ef07ed3" x="145.840625" y="349.389812" style="stroke: #000000; stroke-width: 0.8"/>
      </g>
     </g>
     <g id="text_3">
      <!-- X -->
      <g transform="translate(142.415625 363.98825) scale(0.1 -0.1)">
       <defs>
        <path id="DejaVuSans-58" d="M 403 4666 
L 1081 4666 
L 2241 2931 
L 3406 4666 
L 4084 4666 
L 2584 2425 
L 4184 0 
L 3506 0 
L 2194 1984 
L 872 0 
L 191 0 
L 1856 2491 
L 403 4666 
z
" transform="scale(0.015625)"/>
       </defs>
       <use xlink:href="#DejaVuSans-58"/>
      </g>
     </g>
    </g>
    <g id="xtick_4">
     <g id="line2d_4">
      <g>
       <use xlink:href="#mc80ef07ed3" x="201.640625" y="349.389812" style="stroke: #000000; stroke-width: 0.8"/>
      </g>
     </g>
     <g id="text_4">
      <!-- K -->
      <g transform="translate(198.361719 363.98825) scale(0.1 -0.1)">
       <defs>
        <path id="DejaVuSans-4b" d="M 628 4666 
L 1259 4666 
L 1259 2694 
L 3353 4666 
L 4166 4666 
L 1850 2491 
L 4331 0 
L 3500 0 
L 1259 2247 
L 1259 0 
L 628 0 
L 628 4666 
z
" transform="scale(0.015625)"/>
       </defs>
       <use xlink:href="#DejaVuSans-4b"/>
      </g>
     </g>
    </g>
    <g id="xtick_5">
     <g id="line2d_5">
      <g>
       <use xlink:href="#mc80ef07ed3" x="257.440625" y="349.389812" style="stroke: #000000; stroke-width: 0.8"/>
      </g>
     </g>
     <g id="text_5">
      <!-- $\Sigma$ -->
      <g transform="translate(254.240625 363.98825) scale(0.1 -0.1)">
       <defs>
        <path id="DejaVuSans-3a3" d="M 1353 531 
L 3634 531 
L 3634 0 
L 628 0 
L 628 531 
L 2125 2481 
L 628 4134 
L 628 4666 
L 3578 4666 
L 3578 4134 
L 1353 4134 
L 2850 2494 
L 1353 531 
z
" transform="scale(0.015625)"/>
       </defs>
       <use xlink:href="#DejaVuSans-3a3" transform="translate(0 0.09375)"/>
      </g>
     </g>
    </g>
    <g id="xtick_6">
     <g id="line2d_6">
      <g>
       <use xlink:href="#mc80ef07ed3" x="313.240625" y="349.389812" style="stroke: #000000; stroke-width: 0.8"/>
      </g>
     </g>
     <g id="text_6">
      <!-- $\Gamma$ -->
      <g transform="translate(310.440625 363.98825) scale(0.1 -0.1)">
       <use xlink:href="#DejaVuSans-393" transform="translate(0 0.09375)"/>
      </g>
     </g>
    </g>
    <g id="xtick_7">
     <g id="line2d_7">
      <g>
       <use xlink:href="#mc80ef07ed3" x="369.040625" y="349.389812" style="stroke: #000000; stroke-width: 0.8"/>
      </g>
     </g>
     <g id="text_7">
      <!-- $\Lambda$ -->
      <g transform="translate(365.590625 363.98825) scale(0.1 -0.1)">
       <defs>
        <path id="DejaVuSans-39b" d="M 716 0 
L 50 0 
L 1831 4666 
L 2547 4666 
L 4325 0 
L 3669 0 
L 2188 4044 
L 716 0 
z
" transform="scale(0.015625)"/>
       </defs>
       <use xlink:href="#DejaVuSans-39b" transform="translate(0 0.09375)"/>
      </g>
     </g>
    </g>
    <g id="xtick_8">
     <g id="line2d_8">
      <g>
       <use xlink:href="#mc80ef07ed3" x="424.840625" y="349.389812" style="stroke: #000000; stroke-width: 0.8"/>
      </g>
     </g>
     <g id="text_8">
      <!-- L -->
      <g transform="translate(422.054687 363.98825) scale(0.1 -0.1)">
       <defs>
        <path id="DejaVuSans-4c" d="M 628 4666 
L 1259 4666 
L 1259 531 
L 3531 531 
L 3531 0 
L 628 0 
L 628 4666 
z
" transform="scale(0.015625)"/>
       </defs>
       <use xlink:href="#DejaVuSans-4c"/>
      </g>
     </g>
    </g>
    <g id="text_9">
     <!-- direzione nello spazio reciproco -->
     <g transform="translate(150.73125 377.666375) scale(0.1 -0.1)">
      <defs>
       <path id="DejaVuSans-64" d="M 2906 2969 
L 2906 4863 
L 3481 4863 
L 3481 0 
L 2906 0 
L 2906 525 
Q 2725 213 2448 61 
Q 2172 -91 1784 -91 
Q 1150 -91 751 415 
Q 353 922 353 1747 
Q 353 2572 751 3078 
Q 1150 3584 1784 3584 
Q 2172 3584 2448 3432 
Q 2725 3281 2906 2969 
z
M 947 1747 
Q 947 1113 1208 752 
Q 1469 391 1925 391 
Q 2381 391 2643 752 
Q 2906 1113 2906 1747 
Q 2906 2381 2643 2742 
Q 2381 3103 1925 3103 
Q 1469 3103 1208 2742 
Q 947 2381 947 1747 
z
" transform="scale(0.015625)"/>
       <path id="DejaVuSans-69" d="M 603 3500 
L 1178 3500 
L 1178 0 
L 603 0 
L 603 3500 
z
M 603 4863 
L 1178 4863 
L 1178 4134 
L 603 4134 
L 603 4863 
z
" transform="scale(0.015625)"/>
       <path id="DejaVuSans-72" d="M 2631 2963 
Q 2534 3019 2420 3045 
Q 2306 3072 2169 3072 
Q 1681 3072 1420 2755 
Q 1159 2438 1159 1844 
L 1159 0 
L 581 0 
L 581 3500 
L 1159 3500 
L 1159 2956 
Q 1341 3275 1631 3429 
Q 1922 3584 2338 3584 
Q 2397 3584 2469 3576 
Q 2541 3569 2628 3553 
L 2631 2963 
z
" transform="scale(0.015625)"/>
       <path id="DejaVuSans-65" d="M 3597 1894 
L 3597 1613 
L 953 1613 
Q 991 1019 1311 708 
Q 1631 397 2203 397 
Q 2534 397 2845 478 
Q 3156 559 3463 722 
L 3463 178 
Q 3153 47 2828 -22 
Q 2503 -91 2169 -91 
Q 1331 -91 842 396 
Q 353 884 353 1716 
Q 353 2575 817 3079 
Q 1281 3584 2069 3584 
Q 2775 3584 3186 3129 
Q 3597 2675 3597 1894 
z
M 3022 2063 
Q 3016 2534 2758 2815 
Q 2500 3097 2075 3097 
Q 1594 3097 1305 2825 
Q 1016 2553 972 2059 
L 3022 2063 
z
" transform="scale(0.015625)"/>
       <path id="DejaVuSans-7a" d="M 353 3500 
L 3084 3500 
L 3084 2975 
L 922 459 
L 3084 459 
L 3084 0 
L 275 0 
L 275 525 
L 2438 3041 
L 353 3041 
L 353 3500 
z
" transform="scale(0.015625)"/>
       <path id="DejaVuSans-6f" d="M 1959 3097 
Q 1497 3097 1228 2736 
Q 959 2375 959 1747 
Q 959 1119 1226 758 
Q 1494 397 1959 397 
Q 2419 397 2687 759 
Q 2956 1122 2956 1747 
Q 2956 2369 2687 2733 
Q 2419 3097 1959 3097 
z
M 1959 3584 
Q 2709 3584 3137 3096 
Q 3566 2609 3566 1747 
Q 3566 888 3137 398 
Q 2709 -91 1959 -91 
Q 1206 -91 779 398 
Q 353 888 353 1747 
Q 353 2609 779 3096 
Q 1206 3584 1959 3584 
z
" transform="scale(0.015625)"/>
       <path id="DejaVuSans-6e" d="M 3513 2113 
L 3513 0 
L 2938 0 
L 2938 2094 
Q 2938 2591 2744 2837 
Q 2550 3084 2163 3084 
Q 1697 3084 1428 2787 
Q 1159 2491 1159 1978 
L 1159 0 
L 581 0 
L 581 3500 
L 1159 3500 
L 1159 2956 
Q 1366 3272 1645 3428 
Q 1925 3584 2291 3584 
Q 2894 3584 3203 3211 
Q 3513 2838 3513 2113 
z
" transform="scale(0.015625)"/>
       <path id="DejaVuSans-20" transform="scale(0.015625)"/>
       <path id="DejaVuSans-6c" d="M 603 4863 
L 1178 4863 
L 1178 0 
L 603 0 
L 603 4863 
z
" transform="scale(0.015625)"/>
       <path id="DejaVuSans-73" d="M 2834 3397 
L 2834 2853 
Q 2591 2978 2328 3040 
Q 2066 3103 1784 3103 
Q 1356 3103 1142 2972 
Q 928 2841 928 2578 
Q 928 2378 1081 2264 
Q 1234 2150 1697 2047 
L 1894 2003 
Q 2506 1872 2764 1633 
Q 3022 1394 3022 966 
Q 3022 478 2636 193 
Q 2250 -91 1575 -91 
Q 1294 -91 989 -36 
Q 684 19 347 128 
L 347 722 
Q 666 556 975 473 
Q 1284 391 1588 391 
Q 1994 391 2212 530 
Q 2431 669 2431 922 
Q 2431 1156 2273 1281 
Q 2116 1406 1581 1522 
L 1381 1569 
Q 847 1681 609 1914 
Q 372 2147 372 2553 
Q 372 3047 722 3315 
Q 1072 3584 1716 3584 
Q 2034 3584 2315 3537 
Q 2597 3491 2834 3397 
z
" transform="scale(0.015625)"/>
       <path id="DejaVuSans-70" d="M 1159 525 
L 1159 -1331 
L 581 -1331 
L 581 3500 
L 1159 3500 
L 1159 2969 
Q 1341 3281 1617 3432 
Q 1894 3584 2278 3584 
Q 2916 3584 3314 3078 
Q 3713 2572 3713 1747 
Q 3713 922 3314 415 
Q 2916 -91 2278 -91 
Q 1894 -91 1617 61 
Q 1341 213 1159 525 
z
M 3116 1747 
Q 3116 2381 2855 2742 
Q 2594 3103 2138 3103 
Q 1681 3103 1420 2742 
Q 1159 2381 1159 1747 
Q 1159 1113 1420 752 
Q 1681 391 2138 391 
Q 2594 391 2855 752 
Q 3116 1113 3116 1747 
z
" transform="scale(0.015625)"/>
       <path id="DejaVuSans-61" d="M 2194 1759 
Q 1497 1759 1228 1600 
Q 959 1441 959 1056 
Q 959 750 1161 570 
Q 1363 391 1709 391 
Q 2188 391 2477 730 
Q 2766 1069 2766 1631 
L 2766 1759 
L 2194 1759 
z
M 3341 1997 
L 3341 0 
L 2766 0 
L 2766 531 
Q 2569 213 2275 61 
Q 1981 -91 1556 -91 
Q 1019 -91 701 211 
Q 384 513 384 1019 
Q 384 1609 779 1909 
Q 1175 2209 1959 2209 
L 2766 2209 
L 2766 2266 
Q 2766 2663 2505 2880 
Q 2244 3097 1772 3097 
Q 1472 3097 1187 3025 
Q 903 2953 641 2809 
L 641 3341 
Q 956 3463 1253 3523 
Q 1550 3584 1831 3584 
Q 2591 3584 2966 3190 
Q 3341 2797 3341 1997 
z
" transform="scale(0.015625)"/>
       <path id="DejaVuSans-63" d="M 3122 3366 
L 3122 2828 
Q 2878 2963 2633 3030 
Q 2388 3097 2138 3097 
Q 1578 3097 1268 2742 
Q 959 2388 959 1747 
Q 959 1106 1268 751 
Q 1578 397 2138 397 
Q 2388 397 2633 464 
Q 2878 531 3122 666 
L 3122 134 
Q 2881 22 2623 -34 
Q 2366 -91 2075 -91 
Q 1284 -91 818 406 
Q 353 903 353 1747 
Q 353 2603 823 3093 
Q 1294 3584 2113 3584 
Q 2378 3584 2631 3529 
Q 2884 3475 3122 3366 
z
" transform="scale(0.015625)"/>
      </defs>
      <use xlink:href="#DejaVuSans-64"/>
      <use xlink:href="#DejaVuSans-69" transform="translate(63.476562 0)"/>
      <use xlink:href="#DejaVuSans-72" transform="translate(91.259766 0)"/>
      <use xlink:href="#DejaVuSans-65" transform="translate(130.123047 0)"/>
      <use xlink:href="#DejaVuSans-7a" transform="translate(191.646484 0)"/>
      <use xlink:href="#DejaVuSans-69" transform="translate(244.136719 0)"/>
      <use xlink:href="#DejaVuSans-6f" transform="translate(271.919922 0)"/>
      <use xlink:href="#DejaVuSans-6e" transform="translate(333.101562 0)"/>
      <use xlink:href="#DejaVuSans-65" transform="translate(396.480469 0)"/>
      <use xlink:href="#DejaVuSans-20" transform="translate(458.003906 0)"/>
      <use xlink:href="#DejaVuSans-6e" transform="translate(489.791016 0)"/>
      <use xlink:href="#DejaVuSans-65" transform="translate(553.169922 0)"/>
      <use xlink:href="#DejaVuSans-6c" transform="translate(614.693359 0)"/>
      <use xlink:href="#DejaVuSans-6c" transform="translate(642.476562 0)"/>
      <use xlink:href="#DejaVuSans-6f" transform="translate(670.259766 0)"/>
      <use xlink:href="#DejaVuSans-20" transform="translate(731.441406 0)"/>
      <use xlink:href="#DejaVuSans-73" transform="translate(763.228516 0)"/>
      <use xlink:href="#DejaVuSans-70" transform="translate(815.328125 0)"/>
      <use xlink:href="#DejaVuSans-61" transform="translate(878.804688 0)"/>
      <use xlink:href="#DejaVuSans-7a" transform="translate(940.083984 0)"/>
      <use xlink:href="#DejaVuSans-69" transform="translate(992.574219 0)"/>
      <use xlink:href="#DejaVuSans-6f" transform="translate(1020.357422 0)"/>
      <use xlink:href="#DejaVuSans-20" transform="translate(1081.539062 0)"/>
      <use xlink:href="#DejaVuSans-72" transform="translate(1113.326172 0)"/>
      <use xlink:href="#DejaVuSans-65" transform="translate(1152.189453 0)"/>
      <use xlink:href="#DejaVuSans-63" transform="translate(1213.712891 0)"/>
      <use xlink:href="#DejaVuSans-69" transform="translate(1268.693359 0)"/>
      <use xlink:href="#DejaVuSans-70" transform="translate(1296.476562 0)"/>
      <use xlink:href="#DejaVuSans-72" transform="translate(1359.953125 0)"/>
      <use xlink:href="#DejaVuSans-6f" transform="translate(1398.816406 0)"/>
      <use xlink:href="#DejaVuSans-63" transform="translate(1459.998047 0)"/>
      <use xlink:href="#DejaVuSans-6f" transform="translate(1514.978516 0)"/>
     </g>
    </g>
   </g>
   <g id="matplotlib.axis_2">
    <g id="ytick_1">
     <g id="line2d_9">
      <path d="M 34.240625 349.389812 
L 424.840625 349.389812 
" clip-path="url(#p47898cd930)" style="fill: none; stroke: #b0b0b0; stroke-opacity: 0.14; stroke-width: 0.8; stroke-linecap: square"/>
     </g>
     <g id="line2d_10">
      <defs>
       <path id="m562a6e724e" d="M 0 0 
L -3.5 0 
" style="stroke: #000000; stroke-width: 0.8"/>
      </defs>
      <g>
       <use xlink:href="#m562a6e724e" x="34.240625" y="349.389812" style="stroke: #000000; stroke-width: 0.8"/>
      </g>
     </g>
     <g id="text_10">
      <!-- 0 -->
      <g transform="translate(20.878125 353.189031) scale(0.1 -0.1)">
       <defs>
        <path id="DejaVuSans-30" d="M 2034 4250 
Q 1547 4250 1301 3770 
Q 1056 3291 1056 2328 
Q 1056 1369 1301 889 
Q 1547 409 2034 409 
Q 2525 409 2770 889 
Q 3016 1369 3016 2328 
Q 3016 3291 2770 3770 
Q 2525 4250 2034 4250 
z
M 2034 4750 
Q 2819 4750 3233 4129 
Q 3647 3509 3647 2328 
Q 3647 1150 3233 529 
Q 2819 -91 2034 -91 
Q 1250 -91 836 529 
Q 422 1150 422 2328 
Q 422 3509 836 4129 
Q 1250 4750 2034 4750 
z
" transform="scale(0.015625)"/>
       </defs>
       <use xlink:href="#DejaVuSans-30"/>
      </g>
     </g>
    </g>
    <g id="ytick_2">
     <g id="line2d_11">
      <path d="M 34.240625 295.797812 
L 424.840625 295.797812 
" clip-path="url(#p47898cd930)" style="fill: none; stroke: #b0b0b0; stroke-opacity: 0.14; stroke-width: 0.8; stroke-linecap: square"/>
     </g>
     <g id="line2d_12">
      <g>
       <use xlink:href="#m562a6e724e" x="34.240625" y="295.797812" style="stroke: #000000; stroke-width: 0.8"/>
      </g>
     </g>
     <g id="text_11">
      <!-- 1 -->
      <g transform="translate(20.878125 299.597031) scale(0.1 -0.1)">
       <defs>
        <path id="DejaVuSans-31" d="M 794 531 
L 1825 531 
L 1825 4091 
L 703 3866 
L 703 4441 
L 1819 4666 
L 2450 4666 
L 2450 531 
L 3481 531 
L 3481 0 
L 794 0 
L 794 531 
z
" transform="scale(0.015625)"/>
       </defs>
       <use xlink:href="#DejaVuSans-31"/>
      </g>
     </g>
    </g>
    <g id="ytick_3">
     <g id="line2d_13">
      <path d="M 34.240625 242.205812 
L 424.840625 242.205812 
" clip-path="url(#p47898cd930)" style="fill: none; stroke: #b0b0b0; stroke-opacity: 0.14; stroke-width: 0.8; stroke-linecap: square"/>
     </g>
     <g id="line2d_14">
      <g>
       <use xlink:href="#m562a6e724e" x="34.240625" y="242.205812" style="stroke: #000000; stroke-width: 0.8"/>
      </g>
     </g>
     <g id="text_12">
      <!-- 2 -->
      <g transform="translate(20.878125 246.005031) scale(0.1 -0.1)">
       <defs>
        <path id="DejaVuSans-32" d="M 1228 531 
L 3431 531 
L 3431 0 
L 469 0 
L 469 531 
Q 828 903 1448 1529 
Q 2069 2156 2228 2338 
Q 2531 2678 2651 2914 
Q 2772 3150 2772 3378 
Q 2772 3750 2511 3984 
Q 2250 4219 1831 4219 
Q 1534 4219 1204 4116 
Q 875 4013 500 3803 
L 500 4441 
Q 881 4594 1212 4672 
Q 1544 4750 1819 4750 
Q 2544 4750 2975 4387 
Q 3406 4025 3406 3419 
Q 3406 3131 3298 2873 
Q 3191 2616 2906 2266 
Q 2828 2175 2409 1742 
Q 1991 1309 1228 531 
z
" transform="scale(0.015625)"/>
       </defs>
       <use xlink:href="#DejaVuSans-32"/>
      </g>
     </g>
    </g>
    <g id="ytick_4">
     <g id="line2d_15">
      <path d="M 34.240625 188.613812 
L 424.840625 188.613812 
" clip-path="url(#p47898cd930)" style="fill: none; stroke: #b0b0b0; stroke-opacity: 0.14; stroke-width: 0.8; stroke-linecap: square"/>
     </g>
     <g id="line2d_16">
      <g>
       <use xlink:href="#m562a6e724e" x="34.240625" y="188.613812" style="stroke: #000000; stroke-width: 0.8"/>
      </g>
     </g>
     <g id="text_13">
      <!-- 3 -->
      <g transform="translate(20.878125 192.413031) scale(0.1 -0.1)">
       <defs>
        <path id="DejaVuSans-33" d="M 2597 2516 
Q 3050 2419 3304 2112 
Q 3559 1806 3559 1356 
Q 3559 666 3084 287 
Q 2609 -91 1734 -91 
Q 1441 -91 1130 -33 
Q 819 25 488 141 
L 488 750 
Q 750 597 1062 519 
Q 1375 441 1716 441 
Q 2309 441 2620 675 
Q 2931 909 2931 1356 
Q 2931 1769 2642 2001 
Q 2353 2234 1838 2234 
L 1294 2234 
L 1294 2753 
L 1863 2753 
Q 2328 2753 2575 2939 
Q 2822 3125 2822 3475 
Q 2822 3834 2567 4026 
Q 2313 4219 1838 4219 
Q 1578 4219 1281 4162 
Q 984 4106 628 3988 
L 628 4550 
Q 988 4650 1302 4700 
Q 1616 4750 1894 4750 
Q 2613 4750 3031 4423 
Q 3450 4097 3450 3541 
Q 3450 3153 3228 2886 
Q 3006 2619 2597 2516 
z
" transform="scale(0.015625)"/>
       </defs>
       <use xlink:href="#DejaVuSans-33"/>
      </g>
     </g>
    </g>
    <g id="ytick_5">
     <g id="line2d_17">
      <path d="M 34.240625 135.021812 
L 424.840625 135.021812 
" clip-path="url(#p47898cd930)" style="fill: none; stroke: #b0b0b0; stroke-opacity: 0.14; stroke-width: 0.8; stroke-linecap: square"/>
     </g>
     <g id="line2d_18">
      <g>
       <use xlink:href="#m562a6e724e" x="34.240625" y="135.021812" style="stroke: #000000; stroke-width: 0.8"/>
      </g>
     </g>
     <g id="text_14">
      <!-- 4 -->
      <g transform="translate(20.878125 138.821031) scale(0.1 -0.1)">
       <defs>
        <path id="DejaVuSans-34" d="M 2419 4116 
L 825 1625 
L 2419 1625 
L 2419 4116 
z
M 2253 4666 
L 3047 4666 
L 3047 1625 
L 3713 1625 
L 3713 1100 
L 3047 1100 
L 3047 0 
L 2419 0 
L 2419 1100 
L 313 1100 
L 313 1709 
L 2253 4666 
z
" transform="scale(0.015625)"/>
       </defs>
       <use xlink:href="#DejaVuSans-34"/>
      </g>
     </g>
    </g>
    <g id="ytick_6">
     <g id="line2d_19">
      <path d="M 34.240625 81.429812 
L 424.840625 81.429812 
" clip-path="url(#p47898cd930)" style="fill: none; stroke: #b0b0b0; stroke-opacity: 0.14; stroke-width: 0.8; stroke-linecap: square"/>
     </g>
     <g id="line2d_20">
      <g>
       <use xlink:href="#m562a6e724e" x="34.240625" y="81.429812" style="stroke: #000000; stroke-width: 0.8"/>
      </g>
     </g>
     <g id="text_15">
      <!-- 5 -->
      <g transform="translate(20.878125 85.229031) scale(0.1 -0.1)">
       <defs>
        <path id="DejaVuSans-35" d="M 691 4666 
L 3169 4666 
L 3169 4134 
L 1269 4134 
L 1269 2991 
Q 1406 3038 1543 3061 
Q 1681 3084 1819 3084 
Q 2600 3084 3056 2656 
Q 3513 2228 3513 1497 
Q 3513 744 3044 326 
Q 2575 -91 1722 -91 
Q 1428 -91 1123 -41 
Q 819 9 494 109 
L 494 744 
Q 775 591 1075 516 
Q 1375 441 1709 441 
Q 2250 441 2565 725 
Q 2881 1009 2881 1497 
Q 2881 1984 2565 2268 
Q 2250 2553 1709 2553 
Q 1456 2553 1204 2497 
Q 953 2441 691 2322 
L 691 4666 
z
" transform="scale(0.015625)"/>
       </defs>
       <use xlink:href="#DejaVuSans-35"/>
      </g>
     </g>
    </g>
    <g id="ytick_7">
     <g id="line2d_21">
      <path d="M 34.240625 27.837812 
L 424.840625 27.837812 
" clip-path="url(#p47898cd930)" style="fill: none; stroke: #b0b0b0; stroke-opacity: 0.14; stroke-width: 0.8; stroke-linecap: square"/>
     </g>
     <g id="line2d_22">
      <g>
       <use xlink:href="#m562a6e724e" x="34.240625" y="27.837812" style="stroke: #000000; stroke-width: 0.8"/>
      </g>
     </g>
     <g id="text_16">
      <!-- 6 -->
      <g transform="translate(20.878125 31.637031) scale(0.1 -0.1)">
       <defs>
        <path id="DejaVuSans-36" d="M 2113 2584 
Q 1688 2584 1439 2293 
Q 1191 2003 1191 1497 
Q 1191 994 1439 701 
Q 1688 409 2113 409 
Q 2538 409 2786 701 
Q 3034 994 3034 1497 
Q 3034 2003 2786 2293 
Q 2538 2584 2113 2584 
z
M 3366 4563 
L 3366 3988 
Q 3128 4100 2886 4159 
Q 2644 4219 2406 4219 
Q 1781 4219 1451 3797 
Q 1122 3375 1075 2522 
Q 1259 2794 1537 2939 
Q 1816 3084 2150 3084 
Q 2853 3084 3261 2657 
Q 3669 2231 3669 1497 
Q 3669 778 3244 343 
Q 2819 -91 2113 -91 
Q 1303 -91 875 529 
Q 447 1150 447 2328 
Q 447 3434 972 4092 
Q 1497 4750 2381 4750 
Q 2619 4750 2861 4703 
Q 3103 4656 3366 4563 
z
" transform="scale(0.015625)"/>
       </defs>
       <use xlink:href="#DejaVuSans-36"/>
      </g>
     </g>
    </g>
    <g id="text_17">
     <!-- frequenza (THz) -->
     <g transform="translate(14.798437 228.598969) rotate(-90) scale(0.1 -0.1)">
      <defs>
       <path id="DejaVuSans-66" d="M 2375 4863 
L 2375 4384 
L 1825 4384 
Q 1516 4384 1395 4259 
Q 1275 4134 1275 3809 
L 1275 3500 
L 2222 3500 
L 2222 3053 
L 1275 3053 
L 1275 0 
L 697 0 
L 697 3053 
L 147 3053 
L 147 3500 
L 697 3500 
L 697 3744 
Q 697 4328 969 4595 
Q 1241 4863 1831 4863 
L 2375 4863 
z
" transform="scale(0.015625)"/>
       <path id="DejaVuSans-71" d="M 947 1747 
Q 947 1113 1208 752 
Q 1469 391 1925 391 
Q 2381 391 2643 752 
Q 2906 1113 2906 1747 
Q 2906 2381 2643 2742 
Q 2381 3103 1925 3103 
Q 1469 3103 1208 2742 
Q 947 2381 947 1747 
z
M 2906 525 
Q 2725 213 2448 61 
Q 2172 -91 1784 -91 
Q 1150 -91 751 415 
Q 353 922 353 1747 
Q 353 2572 751 3078 
Q 1150 3584 1784 3584 
Q 2172 3584 2448 3432 
Q 2725 3281 2906 2969 
L 2906 3500 
L 3481 3500 
L 3481 -1331 
L 2906 -1331 
L 2906 525 
z
" transform="scale(0.015625)"/>
       <path id="DejaVuSans-75" d="M 544 1381 
L 544 3500 
L 1119 3500 
L 1119 1403 
Q 1119 906 1312 657 
Q 1506 409 1894 409 
Q 2359 409 2629 706 
Q 2900 1003 2900 1516 
L 2900 3500 
L 3475 3500 
L 3475 0 
L 2900 0 
L 2900 538 
Q 2691 219 2414 64 
Q 2138 -91 1772 -91 
Q 1169 -91 856 284 
Q 544 659 544 1381 
z
M 1991 3584 
L 1991 3584 
z
" transform="scale(0.015625)"/>
       <path id="DejaVuSans-28" d="M 1984 4856 
Q 1566 4138 1362 3434 
Q 1159 2731 1159 2009 
Q 1159 1288 1364 580 
Q 1569 -128 1984 -844 
L 1484 -844 
Q 1016 -109 783 600 
Q 550 1309 550 2009 
Q 550 2706 781 3412 
Q 1013 4119 1484 4856 
L 1984 4856 
z
" transform="scale(0.015625)"/>
       <path id="DejaVuSans-54" d="M -19 4666 
L 3928 4666 
L 3928 4134 
L 2272 4134 
L 2272 0 
L 1638 0 
L 1638 4134 
L -19 4134 
L -19 4666 
z
" transform="scale(0.015625)"/>
       <path id="DejaVuSans-48" d="M 628 4666 
L 1259 4666 
L 1259 2753 
L 3553 2753 
L 3553 4666 
L 4184 4666 
L 4184 0 
L 3553 0 
L 3553 2222 
L 1259 2222 
L 1259 0 
L 628 0 
L 628 4666 
z
" transform="scale(0.015625)"/>
       <path id="DejaVuSans-29" d="M 513 4856 
L 1013 4856 
Q 1481 4119 1714 3412 
Q 1947 2706 1947 2009 
Q 1947 1309 1714 600 
Q 1481 -109 1013 -844 
L 513 -844 
Q 928 -128 1133 580 
Q 1338 1288 1338 2009 
Q 1338 2731 1133 3434 
Q 928 4138 513 4856 
z
" transform="scale(0.015625)"/>
      </defs>
      <use xlink:href="#DejaVuSans-66"/>
      <use xlink:href="#DejaVuSans-72" transform="translate(35.205078 0)"/>
      <use xlink:href="#DejaVuSans-65" transform="translate(74.068359 0)"/>
      <use xlink:href="#DejaVuSans-71" transform="translate(135.591797 0)"/>
      <use xlink:href="#DejaVuSans-75" transform="translate(199.068359 0)"/>
      <use xlink:href="#DejaVuSans-65" transform="translate(262.447266 0)"/>
      <use xlink:href="#DejaVuSans-6e" transform="translate(323.970703 0)"/>
      <use xlink:href="#DejaVuSans-7a" transform="translate(387.349609 0)"/>
      <use xlink:href="#DejaVuSans-61" transform="translate(439.839844 0)"/>
      <use xlink:href="#DejaVuSans-20" transform="translate(501.119141 0)"/>
      <use xlink:href="#DejaVuSans-28" transform="translate(532.90625 0)"/>
      <use xlink:href="#DejaVuSans-54" transform="translate(571.919922 0)"/>
      <use xlink:href="#DejaVuSans-48" transform="translate(633.003906 0)"/>
      <use xlink:href="#DejaVuSans-7a" transform="translate(708.199219 0)"/>
      <use xlink:href="#DejaVuSans-29" transform="translate(760.689453 0)"/>
     </g>
    </g>
   </g>
   <g id="line2d_23">
    <path d="M 34.240625 349.389812 
L 41.220611 334.893058 
L 47.642198 322.041094 
L 53.784585 310.236043 
L 59.647773 299.458547 
L 64.952562 290.156845 
L 69.978152 281.768129 
L 74.724542 274.248388 
L 79.470932 267.14313 
L 83.938123 260.854711 
L 88.126115 255.327732 
L 101.527687 238.100147 
L 110.462069 226.507144 
L 115.487659 220.355138 
L 119.67565 215.585736 
L 123.305243 211.795265 
L 126.376436 208.886093 
L 129.168431 206.512794 
L 131.960425 204.427704 
L 134.47322 202.821321 
L 136.986015 201.492668 
L 139.21961 200.561755 
L 141.453205 199.881585 
L 143.407601 199.503705 
L 145.361997 199.338948 
L 148.712391 199.374066 
L 153.458781 199.618251 
L 158.484371 200.09534 
L 163.78916 200.817312 
L 169.652348 201.843509 
L 176.073935 203.199597 
L 183.33312 204.96496 
L 192.267501 207.375344 
L 204.552276 210.930128 
L 209.577866 212.641404 
L 214.324256 214.486452 
L 219.070646 216.558461 
L 223.817037 218.861999 
L 228.563427 221.40163 
L 233.309817 224.181924 
L 238.056208 227.207445 
L 243.081797 230.683305 
L 248.107387 234.444633 
L 253.132977 238.49685 
L 257.879367 242.608462 
L 259.275364 244.067215 
L 260.950561 246.157315 
L 262.625757 248.592599 
L 264.580153 251.834325 
L 266.813749 256.015311 
L 269.326544 261.25017 
L 272.118538 267.620433 
L 275.468931 275.86512 
L 279.936122 287.525194 
L 290.266501 314.776428 
L 293.616894 322.911323 
L 296.408888 329.159125 
L 298.921683 334.259699 
L 301.155278 338.302178 
L 303.109674 341.40793 
L 304.784871 343.715687 
L 306.460067 345.668123 
L 307.856065 347.004415 
L 309.252062 348.059875 
L 310.648059 348.819008 
L 311.764857 349.20255 
L 312.881654 349.378596 
L 314.277651 349.325748 
L 315.673649 349.042005 
L 317.069646 348.540352 
L 318.465643 347.830335 
L 320.140839 346.716719 
L 321.816036 345.333307 
L 323.770432 343.400347 
L 325.724828 341.148821 
L 327.958423 338.219178 
L 330.471218 334.515575 
L 333.263213 329.959406 
L 336.334406 324.499615 
L 339.963999 317.577081 
L 344.989589 307.449715 
L 355.878366 285.32756 
L 359.507959 278.501325 
L 362.579153 273.150954 
L 365.371147 268.716482 
L 367.883942 265.140501 
L 370.675936 261.602321 
L 378.49352 252.060647 
L 385.752705 243.54049 
L 392.732691 235.68807 
L 399.433477 228.490795 
L 405.575864 222.209112 
L 411.439052 216.513568 
L 417.30224 211.129183 
L 422.886229 206.306287 
L 424.840625 204.691412 
L 424.840625 204.691412 
" clip-path="url(#p47898cd930)" style="fill: none; stroke: #1f77b4; stroke-width: 1.75; stroke-linecap: square"/>
   </g>
   <g id="line2d_24">
    <path d="M 34.240625 349.389812 
L 42.616608 342.898214 
L 49.875793 337.542277 
L 56.576579 332.862511 
L 62.998166 328.649868 
L 68.861354 325.063349 
L 74.445343 321.900895 
L 79.750132 319.144686 
L 84.775721 316.77298 
L 89.801311 314.649669 
L 95.3853 312.551184 
L 101.527687 310.476244 
L 108.507673 308.356624 
L 116.883656 306.053393 
L 131.402026 302.343618 
L 143.128402 299.245569 
L 157.088373 295.23661 
L 206.506672 280.886159 
L 212.64906 278.72566 
L 222.979438 274.799405 
L 231.634621 271.609307 
L 237.218609 269.780086 
L 241.965 268.452551 
L 246.152991 267.504924 
L 250.061783 266.847323 
L 253.691376 266.462504 
L 257.041769 266.32385 
L 258.437766 266.400843 
L 259.554564 266.670838 
L 260.950561 267.266878 
L 262.346558 268.135622 
L 263.742555 269.261461 
L 265.417752 270.929859 
L 267.092948 272.919026 
L 269.047344 275.609156 
L 271.28094 279.118312 
L 273.793734 283.543963 
L 276.585729 288.947999 
L 279.936122 295.938704 
L 284.961711 307.009951 
L 291.662498 321.731155 
L 295.012891 328.588928 
L 297.804885 333.837057 
L 300.31768 338.087312 
L 302.551275 341.412661 
L 304.505671 343.92042 
L 306.180868 345.737269 
L 307.856065 347.218577 
L 309.252062 348.177226 
L 310.648059 348.868522 
L 312.044056 349.276857 
L 313.160854 349.389304 
L 315.394449 349.281508 
L 317.628045 348.950146 
L 319.86164 348.410728 
L 322.374435 347.574059 
L 325.166429 346.384332 
L 327.958423 344.949429 
L 331.029617 343.123184 
L 334.38001 340.879711 
L 338.288802 337.997459 
L 343.314392 333.997598 
L 360.066358 320.398986 
L 363.97515 317.637312 
L 367.325543 315.526398 
L 370.955135 313.519236 
L 382.123112 307.62322 
L 392.732691 302.269436 
L 402.78387 297.43976 
L 412.55585 292.98808 
L 422.048631 288.909966 
L 424.840625 287.759012 
L 424.840625 287.759012 
" clip-path="url(#p47898cd930)" style="fill: none; stroke: #ff7f0e; stroke-width: 1.75; stroke-linecap: square"/>
   </g>
   <g id="line2d_25">
    <path d="M 34.240625 349.389812 
L 50.713391 342.544819 
L 67.465357 335.342933 
L 84.775721 327.657899 
L 93.151704 323.770881 
L 97.339696 321.50914 
L 102.365285 318.525519 
L 110.182869 313.577499 
L 118.838052 308.161235 
L 123.863641 305.286122 
L 128.051633 303.153559 
L 131.681225 301.558165 
L 135.031619 300.336269 
L 138.102812 299.459866 
L 140.894807 298.889876 
L 143.686801 298.557737 
L 146.199596 298.478297 
L 150.387587 298.613955 
L 154.854778 298.991651 
L 159.601168 299.620324 
L 164.905957 300.552424 
L 171.048345 301.864056 
L 179.145128 303.83501 
L 196.455493 308.11587 
L 202.87708 309.430917 
L 212.64906 311.154107 
L 240.289803 315.882216 
L 247.828188 317.477436 
L 254.528974 319.120452 
L 258.996165 320.395798 
L 261.788159 321.464509 
L 264.580153 322.767963 
L 267.930546 324.596217 
L 271.560139 326.840361 
L 276.02733 329.875608 
L 283.565714 335.329142 
L 290.266501 340.082163 
L 294.454492 342.798515 
L 298.084085 344.89196 
L 301.155278 346.418481 
L 303.947273 347.572788 
L 306.460067 348.393799 
L 308.972862 348.983844 
L 311.206458 349.295284 
L 313.440053 349.388866 
L 315.673649 349.251984 
L 317.907244 348.893786 
L 320.420039 348.24514 
L 322.932834 347.357148 
L 325.724828 346.116018 
L 328.516822 344.635632 
L 331.588016 342.766193 
L 335.217609 340.283656 
L 339.4056 337.132223 
L 344.989589 332.617776 
L 358.111962 321.87662 
L 362.299953 318.785727 
L 365.929546 316.373576 
L 369.000739 314.576687 
L 380.168716 308.636422 
L 390.778295 303.236532 
L 401.108674 298.227529 
L 410.880654 293.733409 
L 420.373434 289.611295 
L 424.840625 287.759012 
L 424.840625 287.759012 
" clip-path="url(#p47898cd930)" style="fill: none; stroke: #2ca02c; stroke-width: 1.75; stroke-linecap: square"/>
   </g>
   <g id="line2d_26">
    <path d="M 34.240625 65.352212 
L 40.103813 66.591032 
L 46.2462 68.118059 
L 52.667787 69.94464 
L 59.368574 72.077948 
L 66.627759 74.622334 
L 74.445343 77.598161 
L 83.100525 81.130999 
L 91.476508 84.764595 
L 94.547701 86.340407 
L 97.898095 88.299271 
L 101.806887 90.846502 
L 106.553277 94.227266 
L 112.974864 99.102952 
L 123.863641 107.392351 
L 128.610032 110.710743 
L 132.518824 113.186454 
L 135.869217 115.069524 
L 138.940411 116.564109 
L 142.011604 117.803987 
L 144.803599 118.682997 
L 148.712391 119.610773 
L 159.321969 121.940439 
L 167.977151 123.621981 
L 175.515536 124.869462 
L 182.495521 125.803579 
L 188.917108 126.444053 
L 195.059496 126.834204 
L 200.922684 126.981189 
L 204.552276 126.88616 
L 207.902669 126.546305 
L 211.253062 125.98056 
L 214.882655 125.135223 
L 218.791447 123.982045 
L 222.979438 122.501199 
L 227.446629 120.683626 
L 232.472219 118.401213 
L 238.614606 115.361944 
L 248.665786 110.092676 
L 261.50896 103.184197 
L 264.300954 101.228607 
L 267.651347 98.585807 
L 271.28094 95.432971 
L 276.02733 90.995937 
L 290.824899 76.900271 
L 294.454492 73.849814 
L 297.525686 71.527382 
L 300.31768 69.668776 
L 302.830475 68.235488 
L 305.34327 67.058843 
L 307.576865 66.251613 
L 309.810461 65.690036 
L 311.764857 65.416028 
L 313.719253 65.354719 
L 317.069646 65.508281 
L 320.420039 65.885538 
L 324.049631 66.523397 
L 327.958423 67.448333 
L 332.146415 68.677882 
L 336.892805 70.321269 
L 342.197594 72.404706 
L 348.898381 75.288826 
L 368.72154 83.98283 
L 377.655922 87.643536 
L 386.311104 91.439291 
L 395.245486 95.598537 
L 404.738266 100.266705 
L 414.789446 105.466222 
L 424.840625 110.905412 
L 424.840625 110.905412 
" clip-path="url(#p47898cd930)" style="fill: none; stroke: #d62728; stroke-width: 1.75; stroke-linecap: square"/>
   </g>
   <g id="line2d_27">
    <path d="M 34.240625 126.983012 
L 102.086086 126.872844 
L 116.325257 126.513049 
L 136.427616 125.759475 
L 158.76357 124.738921 
L 173.840339 123.762775 
L 195.338695 122.123303 
L 209.019467 120.927978 
L 218.791447 119.765374 
L 238.893806 117.321709 
L 246.43219 116.670179 
L 252.853777 116.339926 
L 258.437766 116.274758 
L 261.788159 116.449669 
L 265.417752 116.859147 
L 269.605743 117.570807 
L 274.352133 118.621418 
L 280.215321 120.163675 
L 298.084085 125.040233 
L 302.830475 126.003037 
L 306.739267 126.580411 
L 310.368859 126.900766 
L 313.719253 126.98266 
L 322.932834 126.854344 
L 334.938409 126.442773 
L 361.462355 125.456162 
L 370.675936 125.378684 
L 380.168716 125.528734 
L 390.219896 125.910345 
L 401.108674 126.55018 
L 413.114249 127.486689 
L 424.840625 128.590772 
L 424.840625 128.590772 
" clip-path="url(#p47898cd930)" style="fill: none; stroke: #9467bd; stroke-width: 1.75; stroke-linecap: square"/>
   </g>
   <g id="line2d_28">
    <path d="M 34.240625 126.983012 
L 43.454206 127.887376 
L 52.946987 128.59757 
L 63.277366 129.142419 
L 74.166143 129.492294 
L 86.171719 129.653327 
L 94.547701 129.583217 
L 100.410889 129.273409 
L 107.390875 128.676859 
L 117.721254 127.544215 
L 130.843627 126.137861 
L 137.823613 125.615324 
L 143.686801 125.393922 
L 148.712391 125.413492 
L 154.01718 125.669174 
L 159.880368 126.189444 
L 166.581154 127.021429 
L 175.236336 128.343004 
L 197.013892 131.783982 
L 204.831476 132.700726 
L 217.953849 134.335458 
L 233.309817 136.204535 
L 241.965 137.030155 
L 249.224185 137.499051 
L 255.645772 137.691201 
L 260.112962 137.630017 
L 263.742555 137.322155 
L 267.651347 136.756059 
L 272.118538 135.866675 
L 277.423327 134.562183 
L 285.240911 132.370943 
L 295.012891 129.666998 
L 300.31768 128.4414 
L 304.505671 127.688741 
L 308.414463 127.209683 
L 312.044056 126.997587 
L 317.069646 126.999044 
L 328.237623 127.201053 
L 343.872791 127.72977 
L 369.279939 128.596286 
L 410.601454 129.437428 
L 424.840625 129.662612 
L 424.840625 129.662612 
" clip-path="url(#p47898cd930)" style="fill: none; stroke: #8c564b; stroke-width: 1.75; stroke-linecap: square"/>
   </g>
   <g id="line2d_29">
    <path d="M 34.240625 349.389812 
L 34.240625 27.837812 
" clip-path="url(#p47898cd930)" style="fill: none; stroke: #1f77b4; stroke-opacity: 0.4; stroke-width: 0.55; stroke-linecap: square"/>
   </g>
   <g id="line2d_30">
    <path d="M 90.040625 349.389812 
L 90.040625 27.837812 
" clip-path="url(#p47898cd930)" style="fill: none; stroke: #1f77b4; stroke-opacity: 0.4; stroke-width: 0.55; stroke-linecap: square"/>
   </g>
   <g id="line2d_31">
    <path d="M 145.840625 349.389812 
L 145.840625 27.837812 
" clip-path="url(#p47898cd930)" style="fill: none; stroke: #1f77b4; stroke-opacity: 0.4; stroke-width: 0.55; stroke-linecap: square"/>
   </g>
   <g id="line2d_32">
    <path d="M 201.640625 349.389812 
L 201.640625 27.837812 
" clip-path="url(#p47898cd930)" style="fill: none; stroke: #1f77b4; stroke-opacity: 0.4; stroke-width: 0.55; stroke-linecap: square"/>
   </g>
   <g id="line2d_33">
    <path d="M 257.440625 349.389812 
L 257.440625 27.837812 
" clip-path="url(#p47898cd930)" style="fill: none; stroke: #1f77b4; stroke-opacity: 0.4; stroke-width: 0.55; stroke-linecap: square"/>
   </g>
   <g id="line2d_34">
    <path d="M 313.240625 349.389812 
L 313.240625 27.837812 
" clip-path="url(#p47898cd930)" style="fill: none; stroke: #1f77b4; stroke-opacity: 0.4; stroke-width: 0.55; stroke-linecap: square"/>
   </g>
   <g id="line2d_35">
    <path d="M 369.040625 349.389812 
L 369.040625 27.837812 
" clip-path="url(#p47898cd930)" style="fill: none; stroke: #1f77b4; stroke-opacity: 0.4; stroke-width: 0.55; stroke-linecap: square"/>
   </g>
   <g id="line2d_36">
    <path d="M 424.840625 349.389812 
L 424.840625 27.837812 
" clip-path="url(#p47898cd930)" style="fill: none; stroke: #1f77b4; stroke-opacity: 0.4; stroke-width: 0.55; stroke-linecap: square"/>
   </g>
   <g id="patch_3">
    <path d="M 34.240625 349.389812 
L 34.240625 27.837812 
" style="fill: none; stroke: #000000; stroke-width: 0.8; stroke-linejoin: miter; stroke-linecap: square"/>
   </g>
   <g id="patch_4">
    <path d="M 424.840625 349.389812 
L 424.840625 27.837812 
" style="fill: none; stroke: #000000; stroke-width: 0.8; stroke-linejoin: miter; stroke-linecap: square"/>
   </g>
   <g id="patch_5">
    <path d="M 34.240625 349.389812 
L 424.840625 349.389812 
" style="fill: none; stroke: #000000; stroke-width: 0.8; stroke-linejoin: miter; stroke-linecap: square"/>
   </g>
   <g id="patch_6">
    <path d="M 34.240625 27.837812 
L 424.840625 27.837812 
" style="fill: none; stroke: #000000; stroke-width: 0.8; stroke-linejoin: miter; stroke-linecap: square"/>
   </g>
   <g id="text_18">
    <!-- bromuro di potassio -->
    <g transform="translate(150.01625 17.837812) scale(0.14 -0.14)">
     <defs>
      <path id="DejaVuSans-Bold-62" d="M 2400 722 
Q 2759 722 2948 984 
Q 3138 1247 3138 1747 
Q 3138 2247 2948 2509 
Q 2759 2772 2400 2772 
Q 2041 2772 1848 2508 
Q 1656 2244 1656 1747 
Q 1656 1250 1848 986 
Q 2041 722 2400 722 
z
M 1656 2988 
Q 1888 3294 2169 3439 
Q 2450 3584 2816 3584 
Q 3463 3584 3878 3070 
Q 4294 2556 4294 1747 
Q 4294 938 3878 423 
Q 3463 -91 2816 -91 
Q 2450 -91 2169 54 
Q 1888 200 1656 506 
L 1656 0 
L 538 0 
L 538 4863 
L 1656 4863 
L 1656 2988 
z
" transform="scale(0.015625)"/>
      <path id="DejaVuSans-Bold-72" d="M 3138 2547 
Q 2991 2616 2845 2648 
Q 2700 2681 2553 2681 
Q 2122 2681 1889 2404 
Q 1656 2128 1656 1613 
L 1656 0 
L 538 0 
L 538 3500 
L 1656 3500 
L 1656 2925 
Q 1872 3269 2151 3426 
Q 2431 3584 2822 3584 
Q 2878 3584 2943 3579 
Q 3009 3575 3134 3559 
L 3138 2547 
z
" transform="scale(0.015625)"/>
      <path id="DejaVuSans-Bold-6f" d="M 2203 2784 
Q 1831 2784 1636 2517 
Q 1441 2250 1441 1747 
Q 1441 1244 1636 976 
Q 1831 709 2203 709 
Q 2569 709 2762 976 
Q 2956 1244 2956 1747 
Q 2956 2250 2762 2517 
Q 2569 2784 2203 2784 
z
M 2203 3584 
Q 3106 3584 3614 3096 
Q 4122 2609 4122 1747 
Q 4122 884 3614 396 
Q 3106 -91 2203 -91 
Q 1297 -91 786 396 
Q 275 884 275 1747 
Q 275 2609 786 3096 
Q 1297 3584 2203 3584 
z
" transform="scale(0.015625)"/>
      <path id="DejaVuSans-Bold-6d" d="M 3781 2919 
Q 3994 3244 4286 3414 
Q 4578 3584 4928 3584 
Q 5531 3584 5847 3212 
Q 6163 2841 6163 2131 
L 6163 0 
L 5038 0 
L 5038 1825 
Q 5041 1866 5042 1909 
Q 5044 1953 5044 2034 
Q 5044 2406 4934 2573 
Q 4825 2741 4581 2741 
Q 4263 2741 4089 2478 
Q 3916 2216 3909 1719 
L 3909 0 
L 2784 0 
L 2784 1825 
Q 2784 2406 2684 2573 
Q 2584 2741 2328 2741 
Q 2006 2741 1831 2477 
Q 1656 2213 1656 1722 
L 1656 0 
L 531 0 
L 531 3500 
L 1656 3500 
L 1656 2988 
Q 1863 3284 2130 3434 
Q 2397 3584 2719 3584 
Q 3081 3584 3359 3409 
Q 3638 3234 3781 2919 
z
" transform="scale(0.015625)"/>
      <path id="DejaVuSans-Bold-75" d="M 500 1363 
L 500 3500 
L 1625 3500 
L 1625 3150 
Q 1625 2866 1622 2436 
Q 1619 2006 1619 1863 
Q 1619 1441 1641 1255 
Q 1663 1069 1716 984 
Q 1784 875 1895 815 
Q 2006 756 2150 756 
Q 2500 756 2700 1025 
Q 2900 1294 2900 1772 
L 2900 3500 
L 4019 3500 
L 4019 0 
L 2900 0 
L 2900 506 
Q 2647 200 2364 54 
Q 2081 -91 1741 -91 
Q 1134 -91 817 281 
Q 500 653 500 1363 
z
" transform="scale(0.015625)"/>
      <path id="DejaVuSans-Bold-20" transform="scale(0.015625)"/>
      <path id="DejaVuSans-Bold-64" d="M 2919 2988 
L 2919 4863 
L 4044 4863 
L 4044 0 
L 2919 0 
L 2919 506 
Q 2688 197 2409 53 
Q 2131 -91 1766 -91 
Q 1119 -91 703 423 
Q 288 938 288 1747 
Q 288 2556 703 3070 
Q 1119 3584 1766 3584 
Q 2128 3584 2408 3439 
Q 2688 3294 2919 2988 
z
M 2181 722 
Q 2541 722 2730 984 
Q 2919 1247 2919 1747 
Q 2919 2247 2730 2509 
Q 2541 2772 2181 2772 
Q 1825 2772 1636 2509 
Q 1447 2247 1447 1747 
Q 1447 1247 1636 984 
Q 1825 722 2181 722 
z
" transform="scale(0.015625)"/>
      <path id="DejaVuSans-Bold-69" d="M 538 3500 
L 1656 3500 
L 1656 0 
L 538 0 
L 538 3500 
z
M 538 4863 
L 1656 4863 
L 1656 3950 
L 538 3950 
L 538 4863 
z
" transform="scale(0.015625)"/>
      <path id="DejaVuSans-Bold-70" d="M 1656 506 
L 1656 -1331 
L 538 -1331 
L 538 3500 
L 1656 3500 
L 1656 2988 
Q 1888 3294 2169 3439 
Q 2450 3584 2816 3584 
Q 3463 3584 3878 3070 
Q 4294 2556 4294 1747 
Q 4294 938 3878 423 
Q 3463 -91 2816 -91 
Q 2450 -91 2169 54 
Q 1888 200 1656 506 
z
M 2400 2772 
Q 2041 2772 1848 2508 
Q 1656 2244 1656 1747 
Q 1656 1250 1848 986 
Q 2041 722 2400 722 
Q 2759 722 2948 984 
Q 3138 1247 3138 1747 
Q 3138 2247 2948 2509 
Q 2759 2772 2400 2772 
z
" transform="scale(0.015625)"/>
      <path id="DejaVuSans-Bold-74" d="M 1759 4494 
L 1759 3500 
L 2913 3500 
L 2913 2700 
L 1759 2700 
L 1759 1216 
Q 1759 972 1856 886 
Q 1953 800 2241 800 
L 2816 800 
L 2816 0 
L 1856 0 
Q 1194 0 917 276 
Q 641 553 641 1216 
L 641 2700 
L 84 2700 
L 84 3500 
L 641 3500 
L 641 4494 
L 1759 4494 
z
" transform="scale(0.015625)"/>
      <path id="DejaVuSans-Bold-61" d="M 2106 1575 
Q 1756 1575 1579 1456 
Q 1403 1338 1403 1106 
Q 1403 894 1545 773 
Q 1688 653 1941 653 
Q 2256 653 2472 879 
Q 2688 1106 2688 1447 
L 2688 1575 
L 2106 1575 
z
M 3816 1997 
L 3816 0 
L 2688 0 
L 2688 519 
Q 2463 200 2181 54 
Q 1900 -91 1497 -91 
Q 953 -91 614 226 
Q 275 544 275 1050 
Q 275 1666 698 1953 
Q 1122 2241 2028 2241 
L 2688 2241 
L 2688 2328 
Q 2688 2594 2478 2717 
Q 2269 2841 1825 2841 
Q 1466 2841 1156 2769 
Q 847 2697 581 2553 
L 581 3406 
Q 941 3494 1303 3539 
Q 1666 3584 2028 3584 
Q 2975 3584 3395 3211 
Q 3816 2838 3816 1997 
z
" transform="scale(0.015625)"/>
      <path id="DejaVuSans-Bold-73" d="M 3272 3391 
L 3272 2541 
Q 2913 2691 2578 2766 
Q 2244 2841 1947 2841 
Q 1628 2841 1473 2761 
Q 1319 2681 1319 2516 
Q 1319 2381 1436 2309 
Q 1553 2238 1856 2203 
L 2053 2175 
Q 2913 2066 3209 1816 
Q 3506 1566 3506 1031 
Q 3506 472 3093 190 
Q 2681 -91 1863 -91 
Q 1516 -91 1145 -36 
Q 775 19 384 128 
L 384 978 
Q 719 816 1070 734 
Q 1422 653 1784 653 
Q 2113 653 2278 743 
Q 2444 834 2444 1013 
Q 2444 1163 2330 1236 
Q 2216 1309 1875 1350 
L 1678 1375 
Q 931 1469 631 1722 
Q 331 1975 331 2491 
Q 331 3047 712 3315 
Q 1094 3584 1881 3584 
Q 2191 3584 2531 3537 
Q 2872 3491 3272 3391 
z
" transform="scale(0.015625)"/>
     </defs>
     <use xlink:href="#DejaVuSans-Bold-62"/>
     <use xlink:href="#DejaVuSans-Bold-72" transform="translate(71.582031 0)"/>
     <use xlink:href="#DejaVuSans-Bold-6f" transform="translate(120.898438 0)"/>
     <use xlink:href="#DejaVuSans-Bold-6d" transform="translate(189.599609 0)"/>
     <use xlink:href="#DejaVuSans-Bold-75" transform="translate(293.798828 0)"/>
     <use xlink:href="#DejaVuSans-Bold-72" transform="translate(364.990234 0)"/>
     <use xlink:href="#DejaVuSans-Bold-6f" transform="translate(414.306641 0)"/>
     <use xlink:href="#DejaVuSans-Bold-20" transform="translate(483.007812 0)"/>
     <use xlink:href="#DejaVuSans-Bold-64" transform="translate(517.822266 0)"/>
     <use xlink:href="#DejaVuSans-Bold-69" transform="translate(589.404297 0)"/>
     <use xlink:href="#DejaVuSans-Bold-20" transform="translate(623.681641 0)"/>
     <use xlink:href="#DejaVuSans-Bold-70" transform="translate(658.496094 0)"/>
     <use xlink:href="#DejaVuSans-Bold-6f" transform="translate(730.078125 0)"/>
     <use xlink:href="#DejaVuSans-Bold-74" transform="translate(798.779297 0)"/>
     <use xlink:href="#DejaVuSans-Bold-61" transform="translate(846.582031 0)"/>
     <use xlink:href="#DejaVuSans-Bold-73" transform="translate(914.0625 0)"/>
     <use xlink:href="#DejaVuSans-Bold-73" transform="translate(973.583984 0)"/>
     <use xlink:href="#DejaVuSans-Bold-69" transform="translate(1033.105469 0)"/>
     <use xlink:href="#DejaVuSans-Bold-6f" transform="translate(1067.382812 0)"/>
    </g>
   </g>
   <g id="legend_1">
    <g id="line2d_37">
     <path d="M 184.460625 38.316562 
L 192.460625 38.316562 
L 200.460625 38.316562 
" style="fill: none; stroke: #1f77b4; stroke-width: 1.75; stroke-linecap: square"/>
    </g>
    <g id="text_19">
     <!-- LA -->
     <g transform="translate(206.860625 41.116562) scale(0.08 -0.08)">
      <defs>
       <path id="DejaVuSans-41" d="M 2188 4044 
L 1331 1722 
L 3047 1722 
L 2188 4044 
z
M 1831 4666 
L 2547 4666 
L 4325 0 
L 3669 0 
L 3244 1197 
L 1141 1197 
L 716 0 
L 50 0 
L 1831 4666 
z
" transform="scale(0.015625)"/>
      </defs>
      <use xlink:href="#DejaVuSans-4c"/>
      <use xlink:href="#DejaVuSans-41" transform="translate(57.962891 0)"/>
     </g>
    </g>
    <g id="line2d_38">
     <path d="M 184.460625 50.059062 
L 192.460625 50.059062 
L 200.460625 50.059062 
" style="fill: none; stroke: #ff7f0e; stroke-width: 1.75; stroke-linecap: square"/>
    </g>
    <g id="text_20">
     <!-- TA$_1$ -->
     <g transform="translate(206.860625 52.859062) scale(0.08 -0.08)">
      <use xlink:href="#DejaVuSans-54" transform="translate(0 0.09375)"/>
      <use xlink:href="#DejaVuSans-41" transform="translate(61.083984 0.09375)"/>
      <use xlink:href="#DejaVuSans-31" transform="translate(130.449219 -16.3125) scale(0.7)"/>
     </g>
    </g>
    <g id="line2d_39">
     <path d="M 184.460625 61.801562 
L 192.460625 61.801562 
L 200.460625 61.801562 
" style="fill: none; stroke: #2ca02c; stroke-width: 1.75; stroke-linecap: square"/>
    </g>
    <g id="text_21">
     <!-- TA$_2$ -->
     <g transform="translate(206.860625 64.601562) scale(0.08 -0.08)">
      <use xlink:href="#DejaVuSans-54" transform="translate(0 0.09375)"/>
      <use xlink:href="#DejaVuSans-41" transform="translate(61.083984 0.09375)"/>
      <use xlink:href="#DejaVuSans-32" transform="translate(130.449219 -16.3125) scale(0.7)"/>
     </g>
    </g>
    <g id="line2d_40">
     <path d="M 237.100625 38.316562 
L 245.100625 38.316562 
L 253.100625 38.316562 
" style="fill: none; stroke: #d62728; stroke-width: 1.75; stroke-linecap: square"/>
    </g>
    <g id="text_22">
     <!-- LO -->
     <g transform="translate(259.500625 41.116562) scale(0.08 -0.08)">
      <defs>
       <path id="DejaVuSans-4f" d="M 2522 4238 
Q 1834 4238 1429 3725 
Q 1025 3213 1025 2328 
Q 1025 1447 1429 934 
Q 1834 422 2522 422 
Q 3209 422 3611 934 
Q 4013 1447 4013 2328 
Q 4013 3213 3611 3725 
Q 3209 4238 2522 4238 
z
M 2522 4750 
Q 3503 4750 4090 4092 
Q 4678 3434 4678 2328 
Q 4678 1225 4090 567 
Q 3503 -91 2522 -91 
Q 1538 -91 948 565 
Q 359 1222 359 2328 
Q 359 3434 948 4092 
Q 1538 4750 2522 4750 
z
" transform="scale(0.015625)"/>
      </defs>
      <use xlink:href="#DejaVuSans-4c"/>
      <use xlink:href="#DejaVuSans-4f" transform="translate(52.087891 0)"/>
     </g>
    </g>
    <g id="line2d_41">
     <path d="M 237.100625 50.059062 
L 245.100625 50.059062 
L 253.100625 50.059062 
" style="fill: none; stroke: #9467bd; stroke-width: 1.75; stroke-linecap: square"/>
    </g>
    <g id="text_23">
     <!-- TO$_1$ -->
     <g transform="translate(259.500625 52.859062) scale(0.08 -0.08)">
      <use xlink:href="#DejaVuSans-54" transform="translate(0 0.78125)"/>
      <use xlink:href="#DejaVuSans-4f" transform="translate(61.083984 0.78125)"/>
      <use xlink:href="#DejaVuSans-31" transform="translate(140.751953 -15.625) scale(0.7)"/>
     </g>
    </g>
    <g id="line2d_42">
     <path d="M 237.100625 61.801562 
L 245.100625 61.801562 
L 253.100625 61.801562 
" style="fill: none; stroke: #8c564b; stroke-width: 1.75; stroke-linecap: square"/>
    </g>
    <g id="text_24">
     <!-- TO$_2$ -->
     <g transform="translate(259.500625 64.601562) scale(0.08 -0.08)">
      <use xlink:href="#DejaVuSans-54" transform="translate(0 0.78125)"/>
      <use xlink:href="#DejaVuSans-4f" transform="translate(61.083984 0.78125)"/>
      <use xlink:href="#DejaVuSans-32" transform="translate(140.751953 -15.625) scale(0.7)"/>
     </g>
    </g>
   </g>
  </g>
 </g>
 <defs>
  <clipPath id="p47898cd930">
   <rect x="34.240625" y="27.837812" width="390.6" height="321.552"/>
  </clipPath>
 </defs>
</svg>
