<?xml version="1.0" encoding="utf-8" standalone="no"?>
<!DOCTYPE svg PUBLIC "-//W3C//DTD SVG 1.1//EN"
  "http://www.w3.org/Graphics/SVG/1.1/DTD/svg11.dtd">
<svg xmlns:xlink="http://www.w3.org/1999/xlink" width="716.756719pt" height="438.327688pt" viewBox="0 0 716.756719 438.327688" xmlns="http://www.w3.org/2000/svg" version="1.1">
 <metadata>
  <rdf:RDF xmlns:dc="http://purl.org/dc/elements/1.1/" xmlns:cc="http://creativecommons.org/ns#" xmlns:rdf="http://www.w3.org/1999/02/22-rdf-syntax-ns#">
   <cc:Work>
    <dc:type rdf:resource="http://purl.org/dc/dcmitype/StillImage"/>
    <dc:date>2026-06-16T09:43:28.355471</dc:date>
    <dc:format>image/svg+xml</dc:format>
    <dc:creator>
     <cc:Agent>
      <dc:title>Matplotlib v3.10.8, https://matplotlib.org/</dc:title>
     </cc:Agent>
    </dc:creator>
   </cc:Work>
  </rdf:RDF>
 </metadata>
 <defs>
  <style type="text/css">*{stroke-linejoin: round; stroke-linecap: butt}</style>
 </defs>
 <g id="figure_1">
  <g id="patch_1">
   <path d="M 0 438.327688 
L 716.756719 438.327688 
L 716.756719 0 
L 0 0 
z
" style="fill: #ffffff"/>
  </g>
  <g id="patch_2">
   <path d="M 17.636719 380.958545 
L 332.14581 380.958545 
L 332.14581 66.449455 
L 17.636719 66.449455 
z
" style="fill: #ffffff"/>
  </g>
  <g id="axes_1">
   <g id="Path3DCollection_1">
    <defs>
     <path id="C0_0_5f79f80498" d="M 0 3.708099 
C 0.983399 3.708099 1.926654 3.317391 2.622022 2.622022 
C 3.317391 1.926654 3.708099 0.983399 3.708099 -0 
C 3.708099 -0.983399 3.317391 -1.926654 2.622022 -2.622022 
C 1.926654 -3.317391 0.983399 -3.708099 0 -3.708099 
C -0.983399 -3.708099 -1.926654 -3.317391 -2.622022 -2.622022 
C -3.317391 -1.926654 -3.708099 -0.983399 -3.708099 0 
C -3.708099 0.983399 -3.317391 1.926654 -2.622022 2.622022 
C -1.926654 3.317391 -0.983399 3.708099 0 3.708099 
z
"/>
    </defs>
    <g clip-path="url(#p12a40a1dac)">
     <use xlink:href="#C0_0_5f79f80498" x="173.144021" y="104.171045" style="fill: #1f77b4; fill-opacity: 0.3; stroke: #1f77b4; stroke-opacity: 0.3"/>
    </g>
    <g clip-path="url(#p12a40a1dac)">
     <use xlink:href="#C0_0_5f79f80498" x="234.112319" y="198.573067" style="fill: #1f77b4; fill-opacity: 0.393596; stroke: #1f77b4; stroke-opacity: 0.393596"/>
    </g>
    <g clip-path="url(#p12a40a1dac)">
     <use xlink:href="#C0_0_5f79f80498" x="117.8841" y="200.589308" style="fill: #1f77b4; fill-opacity: 0.41669; stroke: #1f77b4; stroke-opacity: 0.41669"/>
    </g>
    <g clip-path="url(#p12a40a1dac)">
     <use xlink:href="#C0_0_5f79f80498" x="176.070614" y="160.426729" style="fill: #1f77b4; fill-opacity: 0.462379; stroke: #1f77b4; stroke-opacity: 0.462379"/>
    </g>
    <g clip-path="url(#p12a40a1dac)">
     <use xlink:href="#C0_0_5f79f80498" x="296.794057" y="295.628143" style="fill: #1f77b4; fill-opacity: 0.489823; stroke: #1f77b4; stroke-opacity: 0.489823"/>
    </g>
    <g clip-path="url(#p12a40a1dac)">
     <use xlink:href="#C0_0_5f79f80498" x="179.141387" y="298.004726" style="fill: #1f77b4; fill-opacity: 0.513571; stroke: #1f77b4; stroke-opacity: 0.513571"/>
    </g>
    <g clip-path="url(#p12a40a1dac)">
     <use xlink:href="#C0_0_5f79f80498" x="60.681251" y="300.397619" style="fill: #1f77b4; fill-opacity: 0.537482; stroke: #1f77b4; stroke-opacity: 0.537482"/>
    </g>
    <g clip-path="url(#p12a40a1dac)">
     <use xlink:href="#C0_0_5f79f80498" x="238.566973" y="257.928996" style="fill: #1f77b4; fill-opacity: 0.560562; stroke: #1f77b4; stroke-opacity: 0.560562"/>
    </g>
    <g clip-path="url(#p12a40a1dac)">
     <use xlink:href="#C0_0_5f79f80498" x="119.510498" y="260.199629" style="fill: #1f77b4; fill-opacity: 0.584797; stroke: #1f77b4; stroke-opacity: 0.584797"/>
    </g>
    <g clip-path="url(#p12a40a1dac)">
     <use xlink:href="#C0_0_5f79f80498" x="300.874539" y="136.273686" style="fill: #1f77b4; fill-opacity: 0.730665; stroke: #1f77b4; stroke-opacity: 0.730665"/>
    </g>
    <g clip-path="url(#p12a40a1dac)">
     <use xlink:href="#C0_0_5f79f80498" x="56.543582" y="140.077882" style="fill: #1f77b4; fill-opacity: 0.781699; stroke: #1f77b4; stroke-opacity: 0.781699"/>
    </g>
    <g clip-path="url(#p12a40a1dac)">
     <use xlink:href="#C0_0_5f79f80498" x="120.191854" y="241.845966" style="fill: #1f77b4; fill-opacity: 0.889227; stroke: #1f77b4; stroke-opacity: 0.889227"/>
    </g>
    <g clip-path="url(#p12a40a1dac)">
     <use xlink:href="#C0_0_5f79f80498" x="185.760301" y="346.684244" style="fill: #1f77b4; stroke: #1f77b4"/>
    </g>
   </g>
   <g id="text_1">
    <!-- lega Si$_x$Ge$_{1-x}$ -->
    <g transform="translate(129.711264 59.449455) scale(0.12 -0.12)">
     <defs>
      <path id="DejaVuSans-Bold-6c" d="M 538 4863 
L 1656 4863 
L 1656 0 
L 538 0 
L 538 4863 
z
" transform="scale(0.015625)"/>
      <path id="DejaVuSans-Bold-65" d="M 4031 1759 
L 4031 1441 
L 1416 1441 
Q 1456 1047 1700 850 
Q 1944 653 2381 653 
Q 2734 653 3104 758 
Q 3475 863 3866 1075 
L 3866 213 
Q 3469 63 3072 -14 
Q 2675 -91 2278 -91 
Q 1328 -91 801 392 
Q 275 875 275 1747 
Q 275 2603 792 3093 
Q 1309 3584 2216 3584 
Q 3041 3584 3536 3087 
Q 4031 2591 4031 1759 
z
M 2881 2131 
Q 2881 2450 2695 2645 
Q 2509 2841 2209 2841 
Q 1884 2841 1681 2658 
Q 1478 2475 1428 2131 
L 2881 2131 
z
" transform="scale(0.015625)"/>
      <path id="DejaVuSans-Bold-67" d="M 2919 594 
Q 2688 288 2409 144 
Q 2131 0 1766 0 
Q 1125 0 706 504 
Q 288 1009 288 1791 
Q 288 2575 706 3076 
Q 1125 3578 1766 3578 
Q 2131 3578 2409 3434 
Q 2688 3291 2919 2981 
L 2919 3500 
L 4044 3500 
L 4044 353 
Q 4044 -491 3511 -936 
Q 2978 -1381 1966 -1381 
Q 1638 -1381 1331 -1331 
Q 1025 -1281 716 -1178 
L 716 -306 
Q 1009 -475 1290 -558 
Q 1572 -641 1856 -641 
Q 2406 -641 2662 -400 
Q 2919 -159 2919 353 
L 2919 594 
z
M 2181 2772 
Q 1834 2772 1640 2515 
Q 1447 2259 1447 1791 
Q 1447 1309 1634 1061 
Q 1822 813 2181 813 
Q 2531 813 2725 1069 
Q 2919 1325 2919 1791 
Q 2919 2259 2725 2515 
Q 2531 2772 2181 2772 
z
" transform="scale(0.015625)"/>
      <path id="DejaVuSans-Bold-61" d="M 2106 1575 
Q 1756 1575 1579 1456 
Q 1403 1338 1403 1106 
Q 1403 894 1545 773 
Q 1688 653 1941 653 
Q 2256 653 2472 879 
Q 2688 1106 2688 1447 
L 2688 1575 
L 2106 1575 
z
M 3816 1997 
L 3816 0 
L 2688 0 
L 2688 519 
Q 2463 200 2181 54 
Q 1900 -91 1497 -91 
Q 953 -91 614 226 
Q 275 544 275 1050 
Q 275 1666 698 1953 
Q 1122 2241 2028 2241 
L 2688 2241 
L 2688 2328 
Q 2688 2594 2478 2717 
Q 2269 2841 1825 2841 
Q 1466 2841 1156 2769 
Q 847 2697 581 2553 
L 581 3406 
Q 941 3494 1303 3539 
Q 1666 3584 2028 3584 
Q 2975 3584 3395 3211 
Q 3816 2838 3816 1997 
z
" transform="scale(0.015625)"/>
      <path id="DejaVuSans-Bold-20" transform="scale(0.015625)"/>
      <path id="DejaVuSans-Bold-53" d="M 3834 4519 
L 3834 3531 
Q 3450 3703 3084 3790 
Q 2719 3878 2394 3878 
Q 1963 3878 1756 3759 
Q 1550 3641 1550 3391 
Q 1550 3203 1689 3098 
Q 1828 2994 2194 2919 
L 2706 2816 
Q 3484 2659 3812 2340 
Q 4141 2022 4141 1434 
Q 4141 663 3683 286 
Q 3225 -91 2284 -91 
Q 1841 -91 1394 -6 
Q 947 78 500 244 
L 500 1259 
Q 947 1022 1364 901 
Q 1781 781 2169 781 
Q 2563 781 2772 912 
Q 2981 1044 2981 1288 
Q 2981 1506 2839 1625 
Q 2697 1744 2272 1838 
L 1806 1941 
Q 1106 2091 782 2419 
Q 459 2747 459 3303 
Q 459 4000 909 4375 
Q 1359 4750 2203 4750 
Q 2588 4750 2994 4692 
Q 3400 4634 3834 4519 
z
" transform="scale(0.015625)"/>
      <path id="DejaVuSans-Bold-69" d="M 538 3500 
L 1656 3500 
L 1656 0 
L 538 0 
L 538 3500 
z
M 538 4863 
L 1656 4863 
L 1656 3950 
L 538 3950 
L 538 4863 
z
" transform="scale(0.015625)"/>
      <path id="DejaVuSans-Oblique-78" d="M 3841 3500 
L 2234 1784 
L 3219 0 
L 2559 0 
L 1819 1388 
L 531 0 
L -166 0 
L 1556 1844 
L 641 3500 
L 1300 3500 
L 1972 2234 
L 3144 3500 
L 3841 3500 
z
" transform="scale(0.015625)"/>
      <path id="DejaVuSans-Bold-47" d="M 4781 347 
Q 4331 128 3847 18 
Q 3363 -91 2847 -91 
Q 1681 -91 1000 561 
Q 319 1213 319 2328 
Q 319 3456 1012 4103 
Q 1706 4750 2913 4750 
Q 3378 4750 3804 4662 
Q 4231 4575 4609 4403 
L 4609 3438 
Q 4219 3659 3833 3768 
Q 3447 3878 3059 3878 
Q 2341 3878 1952 3476 
Q 1563 3075 1563 2328 
Q 1563 1588 1938 1184 
Q 2313 781 3003 781 
Q 3191 781 3352 804 
Q 3513 828 3641 878 
L 3641 1784 
L 2906 1784 
L 2906 2591 
L 4781 2591 
L 4781 347 
z
" transform="scale(0.015625)"/>
      <path id="DejaVuSans-31" d="M 794 531 
L 1825 531 
L 1825 4091 
L 703 3866 
L 703 4441 
L 1819 4666 
L 2450 4666 
L 2450 531 
L 3481 531 
L 3481 0 
L 794 0 
L 794 531 
z
" transform="scale(0.015625)"/>
      <path id="DejaVuSans-2212" d="M 678 2272 
L 4684 2272 
L 4684 1741 
L 678 1741 
L 678 2272 
z
" transform="scale(0.015625)"/>
     </defs>
     <use xlink:href="#DejaVuSans-Bold-6c" transform="translate(0 0.015625)"/>
     <use xlink:href="#DejaVuSans-Bold-65" transform="translate(34.277344 0.015625)"/>
     <use xlink:href="#DejaVuSans-Bold-67" transform="translate(102.099609 0.015625)"/>
     <use xlink:href="#DejaVuSans-Bold-61" transform="translate(173.681641 0.015625)"/>
     <use xlink:href="#DejaVuSans-Bold-20" transform="translate(241.162109 0.015625)"/>
     <use xlink:href="#DejaVuSans-Bold-53" transform="translate(275.976562 0.015625)"/>
     <use xlink:href="#DejaVuSans-Bold-69" transform="translate(347.998047 0.015625)"/>
     <use xlink:href="#DejaVuSans-Oblique-78" transform="translate(383.232422 -16.390625) scale(0.7)"/>
     <use xlink:href="#DejaVuSans-Bold-47" transform="translate(427.392578 0.015625)"/>
     <use xlink:href="#DejaVuSans-Bold-65" transform="translate(509.472656 0.015625)"/>
     <use xlink:href="#DejaVuSans-31" transform="translate(578.251953 -16.390625) scale(0.7)"/>
     <use xlink:href="#DejaVuSans-2212" transform="translate(636.425781 -16.390625) scale(0.7)"/>
     <use xlink:href="#DejaVuSans-Oblique-78" transform="translate(708.71582 -16.390625) scale(0.7)"/>
    </g>
   </g>
   <g id="Line3DCollection_1">
    <path d="M 60.681251 300.397619 
L 185.760301 346.684244 
" clip-path="url(#p12a40a1dac)" style="fill: none; stroke: #737373; stroke-width: 0.8"/>
    <path d="M 60.681251 300.397619 
L 173.333382 255.289127 
" clip-path="url(#p12a40a1dac)" style="fill: none; stroke: #737373; stroke-width: 0.8"/>
    <path d="M 60.681251 300.397619 
L 56.543582 140.077882 
" clip-path="url(#p12a40a1dac)" style="fill: none; stroke: #737373; stroke-width: 0.8"/>
    <path d="M 56.543582 140.077882 
L 186.007356 177.091013 
" clip-path="url(#p12a40a1dac)" style="fill: none; stroke: #737373; stroke-width: 0.8"/>
    <path d="M 56.543582 140.077882 
L 173.144021 104.171045 
" clip-path="url(#p12a40a1dac)" style="fill: none; stroke: #737373; stroke-width: 0.8"/>
    <path d="M 173.333382 255.289127 
L 296.794057 295.628143 
" clip-path="url(#p12a40a1dac)" style="fill: none; stroke: #737373; stroke-width: 0.8"/>
    <path d="M 173.333382 255.289127 
L 173.144021 104.171045 
" clip-path="url(#p12a40a1dac)" style="fill: none; stroke: #737373; stroke-width: 0.8"/>
    <path d="M 173.144021 104.171045 
L 300.874539 136.273686 
" clip-path="url(#p12a40a1dac)" style="fill: none; stroke: #737373; stroke-width: 0.8"/>
    <path d="M 185.760301 346.684244 
L 296.794057 295.628143 
" clip-path="url(#p12a40a1dac)" style="fill: none; stroke: #737373; stroke-width: 0.8"/>
    <path d="M 185.760301 346.684244 
L 186.007356 177.091013 
" clip-path="url(#p12a40a1dac)" style="fill: none; stroke: #737373; stroke-width: 0.8"/>
    <path d="M 186.007356 177.091013 
L 300.874539 136.273686 
" clip-path="url(#p12a40a1dac)" style="fill: none; stroke: #737373; stroke-width: 0.8"/>
    <path d="M 296.794057 295.628143 
L 300.874539 136.273686 
" clip-path="url(#p12a40a1dac)" style="fill: none; stroke: #737373; stroke-width: 0.8"/>
   </g>
   <g id="Line3DCollection_2">
    <path d="M 60.681251 300.397619 
L 119.510498 260.199629 
" clip-path="url(#p12a40a1dac)" style="fill: none; stroke: #b8b8b8; stroke-width: 0.8"/>
    <path d="M 56.543582 140.077882 
L 119.510498 260.199629 
" clip-path="url(#p12a40a1dac)" style="fill: none; stroke: #b8b8b8; stroke-width: 0.8"/>
    <path d="M 56.543582 140.077882 
L 176.070614 160.426729 
" clip-path="url(#p12a40a1dac)" style="fill: none; stroke: #b8b8b8; stroke-width: 0.8"/>
    <path d="M 173.333382 255.289127 
L 119.510498 260.199629 
" clip-path="url(#p12a40a1dac)" style="fill: none; stroke: #b8b8b8; stroke-width: 0.8"/>
    <path d="M 173.333382 255.289127 
L 176.070614 160.426729 
" clip-path="url(#p12a40a1dac)" style="fill: none; stroke: #b8b8b8; stroke-width: 0.8"/>
    <path d="M 173.144021 104.171045 
L 176.070614 160.426729 
" clip-path="url(#p12a40a1dac)" style="fill: none; stroke: #b8b8b8; stroke-width: 0.8"/>
    <path d="M 185.760301 346.684244 
L 119.510498 260.199629 
" clip-path="url(#p12a40a1dac)" style="fill: none; stroke: #b8b8b8; stroke-width: 0.8"/>
    <path d="M 185.760301 346.684244 
L 182.424846 199.195014 
" clip-path="url(#p12a40a1dac)" style="fill: none; stroke: #b8b8b8; stroke-width: 0.8"/>
    <path d="M 186.007356 177.091013 
L 182.424846 199.195014 
" clip-path="url(#p12a40a1dac)" style="fill: none; stroke: #b8b8b8; stroke-width: 0.8"/>
    <path d="M 296.794057 295.628143 
L 238.566973 257.928996 
" clip-path="url(#p12a40a1dac)" style="fill: none; stroke: #b8b8b8; stroke-width: 0.8"/>
    <path d="M 300.874539 136.273686 
L 176.070614 160.426729 
" clip-path="url(#p12a40a1dac)" style="fill: none; stroke: #b8b8b8; stroke-width: 0.8"/>
    <path d="M 300.874539 136.273686 
L 182.424846 199.195014 
" clip-path="url(#p12a40a1dac)" style="fill: none; stroke: #b8b8b8; stroke-width: 0.8"/>
    <path d="M 117.8841 200.589308 
L 119.510498 260.199629 
" clip-path="url(#p12a40a1dac)" style="fill: none; stroke: #b8b8b8; stroke-width: 0.8"/>
    <path d="M 117.8841 200.589308 
L 176.070614 160.426729 
" clip-path="url(#p12a40a1dac)" style="fill: none; stroke: #b8b8b8; stroke-width: 0.8"/>
    <path d="M 244.376356 239.543398 
L 238.566973 257.928996 
" clip-path="url(#p12a40a1dac)" style="fill: none; stroke: #b8b8b8; stroke-width: 0.8"/>
    <path d="M 244.376356 239.543398 
L 182.424846 199.195014 
" clip-path="url(#p12a40a1dac)" style="fill: none; stroke: #b8b8b8; stroke-width: 0.8"/>
    <path d="M 120.191854 241.845966 
L 119.510498 260.199629 
" clip-path="url(#p12a40a1dac)" style="fill: none; stroke: #b8b8b8; stroke-width: 0.8"/>
    <path d="M 120.191854 241.845966 
L 182.424846 199.195014 
" clip-path="url(#p12a40a1dac)" style="fill: none; stroke: #b8b8b8; stroke-width: 0.8"/>
    <path d="M 234.112319 198.573067 
L 176.070614 160.426729 
" clip-path="url(#p12a40a1dac)" style="fill: none; stroke: #b8b8b8; stroke-width: 0.8"/>
    <path d="M 234.112319 198.573067 
L 238.566973 257.928996 
" clip-path="url(#p12a40a1dac)" style="fill: none; stroke: #b8b8b8; stroke-width: 0.8"/>
    <path d="M 179.141387 298.004726 
L 119.510498 260.199629 
" clip-path="url(#p12a40a1dac)" style="fill: none; stroke: #b8b8b8; stroke-width: 0.8"/>
    <path d="M 179.141387 298.004726 
L 238.566973 257.928996 
" clip-path="url(#p12a40a1dac)" style="fill: none; stroke: #b8b8b8; stroke-width: 0.8"/>
    <path d="M 179.141387 138.169052 
L 176.070614 160.426729 
" clip-path="url(#p12a40a1dac)" style="fill: none; stroke: #b8b8b8; stroke-width: 0.8"/>
    <path d="M 179.141387 138.169052 
L 182.424846 199.195014 
" clip-path="url(#p12a40a1dac)" style="fill: none; stroke: #b8b8b8; stroke-width: 0.8"/>
   </g>
   <g id="legend_1">
    <g id="Path3DCollection_2">
     <defs>
      <path id="m37278b4db6" d="M 0 3.708099 
C 0.983399 3.708099 1.926654 3.317391 2.622022 2.622022 
C 3.317391 1.926654 3.708099 0.983399 3.708099 0 
C 3.708099 -0.983399 3.317391 -1.926654 2.622022 -2.622022 
C 1.926654 -3.317391 0.983399 -3.708099 0 -3.708099 
C -0.983399 -3.708099 -1.926654 -3.317391 -2.622022 -2.622022 
C -3.317391 -1.926654 -3.708099 -0.983399 -3.708099 0 
C -3.708099 0.983399 -3.317391 1.926654 -2.622022 2.622022 
C -1.926654 3.317391 -0.983399 3.708099 0 3.708099 
z
" style="stroke: #1f77b4"/>
     </defs>
     <g>
      <use xlink:href="#m37278b4db6" x="36.636719" y="80.422892" style="fill: #1f77b4; stroke: #1f77b4"/>
     </g>
    </g>
    <g id="text_2">
     <!-- Si -->
     <g transform="translate(54.636719 83.047892) scale(0.1 -0.1)">
      <defs>
       <path id="DejaVuSans-53" d="M 3425 4513 
L 3425 3897 
Q 3066 4069 2747 4153 
Q 2428 4238 2131 4238 
Q 1616 4238 1336 4038 
Q 1056 3838 1056 3469 
Q 1056 3159 1242 3001 
Q 1428 2844 1947 2747 
L 2328 2669 
Q 3034 2534 3370 2195 
Q 3706 1856 3706 1288 
Q 3706 609 3251 259 
Q 2797 -91 1919 -91 
Q 1588 -91 1214 -16 
Q 841 59 441 206 
L 441 856 
Q 825 641 1194 531 
Q 1563 422 1919 422 
Q 2459 422 2753 634 
Q 3047 847 3047 1241 
Q 3047 1584 2836 1778 
Q 2625 1972 2144 2069 
L 1759 2144 
Q 1053 2284 737 2584 
Q 422 2884 422 3419 
Q 422 4038 858 4394 
Q 1294 4750 2059 4750 
Q 2388 4750 2728 4690 
Q 3069 4631 3425 4513 
z
" transform="scale(0.015625)"/>
       <path id="DejaVuSans-69" d="M 603 3500 
L 1178 3500 
L 1178 0 
L 603 0 
L 603 3500 
z
M 603 4863 
L 1178 4863 
L 1178 4134 
L 603 4134 
L 603 4863 
z
" transform="scale(0.015625)"/>
      </defs>
      <use xlink:href="#DejaVuSans-53"/>
      <use xlink:href="#DejaVuSans-69" transform="translate(63.476562 0)"/>
     </g>
    </g>
    <g id="Path3DCollection_3">
     <defs>
      <path id="m3638dcbd28" d="M 0 4.1833 
C 1.109424 4.1833 2.173559 3.742521 2.95804 2.95804 
C 3.742521 2.173559 4.1833 1.109424 4.1833 0 
C 4.1833 -1.109424 3.742521 -2.173559 2.95804 -2.95804 
C 2.173559 -3.742521 1.109424 -4.1833 0 -4.1833 
C -1.109424 -4.1833 -2.173559 -3.742521 -2.95804 -2.95804 
C -3.742521 -2.173559 -4.1833 -1.109424 -4.1833 0 
C -4.1833 1.109424 -3.742521 2.173559 -2.95804 2.95804 
C -2.173559 3.742521 -1.109424 4.1833 0 4.1833 
z
" style="stroke: #ff7f0e"/>
     </defs>
     <g>
      <use xlink:href="#m3638dcbd28" x="36.636719" y="95.101017" style="fill: #ff7f0e; stroke: #ff7f0e"/>
     </g>
    </g>
    <g id="text_3">
     <!-- Ge -->
     <g transform="translate(54.636719 97.726017) scale(0.1 -0.1)">
      <defs>
       <path id="DejaVuSans-47" d="M 3809 666 
L 3809 1919 
L 2778 1919 
L 2778 2438 
L 4434 2438 
L 4434 434 
Q 4069 175 3628 42 
Q 3188 -91 2688 -91 
Q 1594 -91 976 548 
Q 359 1188 359 2328 
Q 359 3472 976 4111 
Q 1594 4750 2688 4750 
Q 3144 4750 3555 4637 
Q 3966 4525 4313 4306 
L 4313 3634 
Q 3963 3931 3569 4081 
Q 3175 4231 2741 4231 
Q 1884 4231 1454 3753 
Q 1025 3275 1025 2328 
Q 1025 1384 1454 906 
Q 1884 428 2741 428 
Q 3075 428 3337 486 
Q 3600 544 3809 666 
z
" transform="scale(0.015625)"/>
       <path id="DejaVuSans-65" d="M 3597 1894 
L 3597 1613 
L 953 1613 
Q 991 1019 1311 708 
Q 1631 397 2203 397 
Q 2534 397 2845 478 
Q 3156 559 3463 722 
L 3463 178 
Q 3153 47 2828 -22 
Q 2503 -91 2169 -91 
Q 1331 -91 842 396 
Q 353 884 353 1716 
Q 353 2575 817 3079 
Q 1281 3584 2069 3584 
Q 2775 3584 3186 3129 
Q 3597 2675 3597 1894 
z
M 3022 2063 
Q 3016 2534 2758 2815 
Q 2500 3097 2075 3097 
Q 1594 3097 1305 2825 
Q 1016 2553 972 2059 
L 3022 2063 
z
" transform="scale(0.015625)"/>
      </defs>
      <use xlink:href="#DejaVuSans-47"/>
      <use xlink:href="#DejaVuSans-65" transform="translate(77.490234 0)"/>
     </g>
    </g>
   </g>
   <g id="Path3DCollection_4">
    <defs>
     <path id="C1_0_25dc6d758e" d="M 0 4.1833 
C 1.109424 4.1833 2.173559 3.742521 2.95804 2.95804 
C 3.742521 2.173559 4.1833 1.109424 4.1833 -0 
C 4.1833 -1.109424 3.742521 -2.173559 2.95804 -2.95804 
C 2.173559 -3.742521 1.109424 -4.1833 0 -4.1833 
C -1.109424 -4.1833 -2.173559 -3.742521 -2.95804 -2.95804 
C -3.742521 -2.173559 -4.1833 -1.109424 -4.1833 0 
C -4.1833 1.109424 -3.742521 2.173559 -2.95804 2.95804 
C -2.173559 3.742521 -1.109424 4.1833 0 4.1833 
z
"/>
    </defs>
    <g clip-path="url(#p12a40a1dac)">
     <use xlink:href="#C1_0_25dc6d758e" x="173.333382" y="255.289127" style="fill: #ff7f0e; fill-opacity: 0.3; stroke: #ff7f0e; stroke-opacity: 0.3"/>
    </g>
    <g clip-path="url(#p12a40a1dac)">
     <use xlink:href="#C1_0_25dc6d758e" x="179.141387" y="138.169052" style="fill: #ff7f0e; fill-opacity: 0.693242; stroke: #ff7f0e; stroke-opacity: 0.693242"/>
    </g>
    <g clip-path="url(#p12a40a1dac)">
     <use xlink:href="#C1_0_25dc6d758e" x="244.376356" y="239.543398" style="fill: #ff7f0e; fill-opacity: 0.755965; stroke: #ff7f0e; stroke-opacity: 0.755965"/>
    </g>
    <g clip-path="url(#p12a40a1dac)">
     <use xlink:href="#C1_0_25dc6d758e" x="182.424846" y="199.195014" style="fill: #ff7f0e; fill-opacity: 0.802133; stroke: #ff7f0e; stroke-opacity: 0.802133"/>
    </g>
    <g clip-path="url(#p12a40a1dac)">
     <use xlink:href="#C1_0_25dc6d758e" x="186.007356" y="177.091013" style="fill: #ff7f0e; stroke: #ff7f0e"/>
    </g>
   </g>
  </g>
  <g id="patch_3">
   <path d="M 395.047628 380.958545 
L 709.556719 380.958545 
L 709.556719 66.449455 
L 395.047628 66.449455 
z
" style="fill: #ffffff"/>
  </g>
  <g id="axes_2">
   <g id="Path3DCollection_5">
    <defs>
     <path id="C2_0_4aa8d71321" d="M 0 4.1833 
C 1.109424 4.1833 2.173559 3.742521 2.95804 2.95804 
C 3.742521 2.173559 4.1833 1.109424 4.1833 -0 
C 4.1833 -1.109424 3.742521 -2.173559 2.95804 -2.95804 
C 2.173559 -3.742521 1.109424 -4.1833 0 -4.1833 
C -1.109424 -4.1833 -2.173559 -3.742521 -2.95804 -2.95804 
C -3.742521 -2.173559 -4.1833 -1.109424 -4.1833 0 
C -4.1833 1.109424 -3.742521 2.173559 -2.95804 2.95804 
C -2.173559 3.742521 -1.109424 4.1833 0 4.1833 
z
"/>
    </defs>
    <g clip-path="url(#pe343e97de5)">
     <use xlink:href="#C2_0_4aa8d71321" x="553.481523" y="160.426729" style="fill: #2ca02c; fill-opacity: 0.3; stroke: #2ca02c; stroke-opacity: 0.3"/>
    </g>
    <g clip-path="url(#pe343e97de5)">
     <use xlink:href="#C2_0_4aa8d71321" x="615.977882" y="257.928996" style="fill: #2ca02c; fill-opacity: 0.443464; stroke: #2ca02c; stroke-opacity: 0.443464"/>
    </g>
    <g clip-path="url(#pe343e97de5)">
     <use xlink:href="#C2_0_4aa8d71321" x="496.921407" y="260.199629" style="fill: #2ca02c; fill-opacity: 0.478877; stroke: #2ca02c; stroke-opacity: 0.478877"/>
    </g>
    <g clip-path="url(#pe343e97de5)">
     <use xlink:href="#C2_0_4aa8d71321" x="559.835755" y="199.195014" style="fill: #2ca02c; stroke: #2ca02c"/>
    </g>
   </g>
   <g id="text_4">
    <!-- lega Al$_x$Ga$_{1-x}$As -->
    <g transform="translate(498.602173 59.449455) scale(0.12 -0.12)">
     <defs>
      <path id="DejaVuSans-Bold-41" d="M 3419 850 
L 1538 850 
L 1241 0 
L 31 0 
L 1759 4666 
L 3194 4666 
L 4922 0 
L 3713 0 
L 3419 850 
z
M 1838 1716 
L 3116 1716 
L 2478 3572 
L 1838 1716 
z
" transform="scale(0.015625)"/>
      <path id="DejaVuSans-Bold-73" d="M 3272 3391 
L 3272 2541 
Q 2913 2691 2578 2766 
Q 2244 2841 1947 2841 
Q 1628 2841 1473 2761 
Q 1319 2681 1319 2516 
Q 1319 2381 1436 2309 
Q 1553 2238 1856 2203 
L 2053 2175 
Q 2913 2066 3209 1816 
Q 3506 1566 3506 1031 
Q 3506 472 3093 190 
Q 2681 -91 1863 -91 
Q 1516 -91 1145 -36 
Q 775 19 384 128 
L 384 978 
Q 719 816 1070 734 
Q 1422 653 1784 653 
Q 2113 653 2278 743 
Q 2444 834 2444 1013 
Q 2444 1163 2330 1236 
Q 2216 1309 1875 1350 
L 1678 1375 
Q 931 1469 631 1722 
Q 331 1975 331 2491 
Q 331 3047 712 3315 
Q 1094 3584 1881 3584 
Q 2191 3584 2531 3537 
Q 2872 3491 3272 3391 
z
" transform="scale(0.015625)"/>
     </defs>
     <use xlink:href="#DejaVuSans-Bold-6c" transform="translate(0 0.015625)"/>
     <use xlink:href="#DejaVuSans-Bold-65" transform="translate(34.277344 0.015625)"/>
     <use xlink:href="#DejaVuSans-Bold-67" transform="translate(102.099609 0.015625)"/>
     <use xlink:href="#DejaVuSans-Bold-61" transform="translate(173.681641 0.015625)"/>
     <use xlink:href="#DejaVuSans-Bold-20" transform="translate(241.162109 0.015625)"/>
     <use xlink:href="#DejaVuSans-Bold-41" transform="translate(275.976562 0.015625)"/>
     <use xlink:href="#DejaVuSans-Bold-6c" transform="translate(353.369141 0.015625)"/>
     <use xlink:href="#DejaVuSans-Oblique-78" transform="translate(388.603516 -16.390625) scale(0.7)"/>
     <use xlink:href="#DejaVuSans-Bold-47" transform="translate(432.763672 0.015625)"/>
     <use xlink:href="#DejaVuSans-Bold-61" transform="translate(514.84375 0.015625)"/>
     <use xlink:href="#DejaVuSans-31" transform="translate(583.28125 -16.390625) scale(0.7)"/>
     <use xlink:href="#DejaVuSans-2212" transform="translate(641.455078 -16.390625) scale(0.7)"/>
     <use xlink:href="#DejaVuSans-Oblique-78" transform="translate(713.745117 -16.390625) scale(0.7)"/>
     <use xlink:href="#DejaVuSans-Bold-41" transform="translate(757.905273 0.015625)"/>
     <use xlink:href="#DejaVuSans-Bold-73" transform="translate(835.297852 0.015625)"/>
    </g>
   </g>
   <g id="Path3DCollection_6">
    <defs>
     <path id="C3_0_5c34de801a" d="M 0 3.872983 
C 1.027127 3.872983 2.012324 3.464901 2.738613 2.738613 
C 3.464901 2.012324 3.872983 1.027127 3.872983 -0 
C 3.872983 -1.027127 3.464901 -2.012324 2.738613 -2.738613 
C 2.012324 -3.464901 1.027127 -3.872983 0 -3.872983 
C -1.027127 -3.872983 -2.012324 -3.464901 -2.738613 -2.738613 
C -3.464901 -2.012324 -3.872983 -1.027127 -3.872983 0 
C -3.872983 1.027127 -3.464901 2.012324 -2.738613 2.738613 
C -2.012324 3.464901 -1.027127 3.872983 0 3.872983 
z
"/>
    </defs>
    <g clip-path="url(#pe343e97de5)">
     <use xlink:href="#C3_0_5c34de801a" x="678.285448" y="136.273686" style="fill: #1f77b4; fill-opacity: 0.3; stroke: #1f77b4; stroke-opacity: 0.3"/>
    </g>
    <g clip-path="url(#pe343e97de5)">
     <use xlink:href="#C3_0_5c34de801a" x="433.954491" y="140.077882" style="fill: #1f77b4; fill-opacity: 0.432637; stroke: #1f77b4; stroke-opacity: 0.432637"/>
    </g>
    <g clip-path="url(#pe343e97de5)">
     <use xlink:href="#C3_0_5c34de801a" x="497.602764" y="241.845966" style="fill: #1f77b4; fill-opacity: 0.712103; stroke: #1f77b4; stroke-opacity: 0.712103"/>
    </g>
    <g clip-path="url(#pe343e97de5)">
     <use xlink:href="#C3_0_5c34de801a" x="563.17121" y="346.684244" style="fill: #1f77b4; stroke: #1f77b4"/>
    </g>
   </g>
   <g id="Line3DCollection_3">
    <path d="M 438.09216 300.397619 
L 563.17121 346.684244 
" clip-path="url(#pe343e97de5)" style="fill: none; stroke: #737373; stroke-width: 0.8"/>
    <path d="M 438.09216 300.397619 
L 550.744292 255.289127 
" clip-path="url(#pe343e97de5)" style="fill: none; stroke: #737373; stroke-width: 0.8"/>
    <path d="M 438.09216 300.397619 
L 433.954491 140.077882 
" clip-path="url(#pe343e97de5)" style="fill: none; stroke: #737373; stroke-width: 0.8"/>
    <path d="M 433.954491 140.077882 
L 563.418265 177.091013 
" clip-path="url(#pe343e97de5)" style="fill: none; stroke: #737373; stroke-width: 0.8"/>
    <path d="M 433.954491 140.077882 
L 550.55493 104.171045 
" clip-path="url(#pe343e97de5)" style="fill: none; stroke: #737373; stroke-width: 0.8"/>
    <path d="M 550.744292 255.289127 
L 674.204966 295.628143 
" clip-path="url(#pe343e97de5)" style="fill: none; stroke: #737373; stroke-width: 0.8"/>
    <path d="M 550.744292 255.289127 
L 550.55493 104.171045 
" clip-path="url(#pe343e97de5)" style="fill: none; stroke: #737373; stroke-width: 0.8"/>
    <path d="M 550.55493 104.171045 
L 678.285448 136.273686 
" clip-path="url(#pe343e97de5)" style="fill: none; stroke: #737373; stroke-width: 0.8"/>
    <path d="M 563.17121 346.684244 
L 674.204966 295.628143 
" clip-path="url(#pe343e97de5)" style="fill: none; stroke: #737373; stroke-width: 0.8"/>
    <path d="M 563.17121 346.684244 
L 563.418265 177.091013 
" clip-path="url(#pe343e97de5)" style="fill: none; stroke: #737373; stroke-width: 0.8"/>
    <path d="M 563.418265 177.091013 
L 678.285448 136.273686 
" clip-path="url(#pe343e97de5)" style="fill: none; stroke: #737373; stroke-width: 0.8"/>
    <path d="M 674.204966 295.628143 
L 678.285448 136.273686 
" clip-path="url(#pe343e97de5)" style="fill: none; stroke: #737373; stroke-width: 0.8"/>
   </g>
   <g id="legend_2">
    <g id="Path3DCollection_7">
     <defs>
      <path id="m98b3853ea6" d="M 0 3.872983 
C 1.027127 3.872983 2.012324 3.464901 2.738613 2.738613 
C 3.464901 2.012324 3.872983 1.027127 3.872983 0 
C 3.872983 -1.027127 3.464901 -2.012324 2.738613 -2.738613 
C 2.012324 -3.464901 1.027127 -3.872983 0 -3.872983 
C -1.027127 -3.872983 -2.012324 -3.464901 -2.738613 -2.738613 
C -3.464901 -2.012324 -3.872983 -1.027127 -3.872983 0 
C -3.872983 1.027127 -3.464901 2.012324 -2.738613 2.738613 
C -2.012324 3.464901 -1.027127 3.872983 0 3.872983 
z
" style="stroke: #1f77b4"/>
     </defs>
     <g>
      <use xlink:href="#m98b3853ea6" x="414.047628" y="80.422892" style="fill: #1f77b4; stroke: #1f77b4"/>
     </g>
    </g>
    <g id="text_5">
     <!-- Al -->
     <g transform="translate(432.047628 83.047892) scale(0.1 -0.1)">
      <defs>
       <path id="DejaVuSans-41" d="M 2188 4044 
L 1331 1722 
L 3047 1722 
L 2188 4044 
z
M 1831 4666 
L 2547 4666 
L 4325 0 
L 3669 0 
L 3244 1197 
L 1141 1197 
L 716 0 
L 50 0 
L 1831 4666 
z
" transform="scale(0.015625)"/>
       <path id="DejaVuSans-6c" d="M 603 4863 
L 1178 4863 
L 1178 0 
L 603 0 
L 603 4863 
z
" transform="scale(0.015625)"/>
      </defs>
      <use xlink:href="#DejaVuSans-41"/>
      <use xlink:href="#DejaVuSans-6c" transform="translate(68.408203 0)"/>
     </g>
    </g>
    <g id="Path3DCollection_8">
     <defs>
      <path id="m28ea5dfd1d" d="M 0 3.708099 
C 0.983399 3.708099 1.926654 3.317391 2.622022 2.622022 
C 3.317391 1.926654 3.708099 0.983399 3.708099 0 
C 3.708099 -0.983399 3.317391 -1.926654 2.622022 -2.622022 
C 1.926654 -3.317391 0.983399 -3.708099 0 -3.708099 
C -0.983399 -3.708099 -1.926654 -3.317391 -2.622022 -2.622022 
C -3.317391 -1.926654 -3.708099 -0.983399 -3.708099 0 
C -3.708099 0.983399 -3.317391 1.926654 -2.622022 2.622022 
C -1.926654 3.317391 -0.983399 3.708099 0 3.708099 
z
" style="stroke: #ff7f0e"/>
     </defs>
     <g>
      <use xlink:href="#m28ea5dfd1d" x="414.047628" y="95.101017" style="fill: #ff7f0e; stroke: #ff7f0e"/>
     </g>
    </g>
    <g id="text_6">
     <!-- Ga -->
     <g transform="translate(432.047628 97.726017) scale(0.1 -0.1)">
      <defs>
       <path id="DejaVuSans-61" d="M 2194 1759 
Q 1497 1759 1228 1600 
Q 959 1441 959 1056 
Q 959 750 1161 570 
Q 1363 391 1709 391 
Q 2188 391 2477 730 
Q 2766 1069 2766 1631 
L 2766 1759 
L 2194 1759 
z
M 3341 1997 
L 3341 0 
L 2766 0 
L 2766 531 
Q 2569 213 2275 61 
Q 1981 -91 1556 -91 
Q 1019 -91 701 211 
Q 384 513 384 1019 
Q 384 1609 779 1909 
Q 1175 2209 1959 2209 
L 2766 2209 
L 2766 2266 
Q 2766 2663 2505 2880 
Q 2244 3097 1772 3097 
Q 1472 3097 1187 3025 
Q 903 2953 641 2809 
L 641 3341 
Q 956 3463 1253 3523 
Q 1550 3584 1831 3584 
Q 2591 3584 2966 3190 
Q 3341 2797 3341 1997 
z
" transform="scale(0.015625)"/>
      </defs>
      <use xlink:href="#DejaVuSans-47"/>
      <use xlink:href="#DejaVuSans-61" transform="translate(77.490234 0)"/>
     </g>
    </g>
    <g id="Path3DCollection_9">
     <defs>
      <path id="mb3922d2ce6" d="M 0 4.1833 
C 1.109424 4.1833 2.173559 3.742521 2.95804 2.95804 
C 3.742521 2.173559 4.1833 1.109424 4.1833 0 
C 4.1833 -1.109424 3.742521 -2.173559 2.95804 -2.95804 
C 2.173559 -3.742521 1.109424 -4.1833 0 -4.1833 
C -1.109424 -4.1833 -2.173559 -3.742521 -2.95804 -2.95804 
C -3.742521 -2.173559 -4.1833 -1.109424 -4.1833 0 
C -4.1833 1.109424 -3.742521 2.173559 -2.95804 2.95804 
C -2.173559 3.742521 -1.109424 4.1833 0 4.1833 
z
" style="stroke: #2ca02c"/>
     </defs>
     <g>
      <use xlink:href="#mb3922d2ce6" x="414.047628" y="109.779142" style="fill: #2ca02c; stroke: #2ca02c"/>
     </g>
    </g>
    <g id="text_7">
     <!-- As -->
     <g transform="translate(432.047628 112.404142) scale(0.1 -0.1)">
      <defs>
       <path id="DejaVuSans-73" d="M 2834 3397 
L 2834 2853 
Q 2591 2978 2328 3040 
Q 2066 3103 1784 3103 
Q 1356 3103 1142 2972 
Q 928 2841 928 2578 
Q 928 2378 1081 2264 
Q 1234 2150 1697 2047 
L 1894 2003 
Q 2506 1872 2764 1633 
Q 3022 1394 3022 966 
Q 3022 478 2636 193 
Q 2250 -91 1575 -91 
Q 1294 -91 989 -36 
Q 684 19 347 128 
L 347 722 
Q 666 556 975 473 
Q 1284 391 1588 391 
Q 1994 391 2212 530 
Q 2431 669 2431 922 
Q 2431 1156 2273 1281 
Q 2116 1406 1581 1522 
L 1381 1569 
Q 847 1681 609 1914 
Q 372 2147 372 2553 
Q 372 3047 722 3315 
Q 1072 3584 1716 3584 
Q 2034 3584 2315 3537 
Q 2597 3491 2834 3397 
z
" transform="scale(0.015625)"/>
      </defs>
      <use xlink:href="#DejaVuSans-41"/>
      <use xlink:href="#DejaVuSans-73" transform="translate(68.408203 0)"/>
     </g>
    </g>
   </g>
   <g id="Line3DCollection_4">
    <path d="M 438.09216 300.397619 
L 496.921407 260.199629 
" clip-path="url(#pe343e97de5)" style="fill: none; stroke: #b8b8b8; stroke-width: 0.8"/>
    <path d="M 433.954491 140.077882 
L 496.921407 260.199629 
" clip-path="url(#pe343e97de5)" style="fill: none; stroke: #b8b8b8; stroke-width: 0.8"/>
    <path d="M 433.954491 140.077882 
L 553.481523 160.426729 
" clip-path="url(#pe343e97de5)" style="fill: none; stroke: #b8b8b8; stroke-width: 0.8"/>
    <path d="M 550.744292 255.289127 
L 496.921407 260.199629 
" clip-path="url(#pe343e97de5)" style="fill: none; stroke: #b8b8b8; stroke-width: 0.8"/>
    <path d="M 550.744292 255.289127 
L 553.481523 160.426729 
" clip-path="url(#pe343e97de5)" style="fill: none; stroke: #b8b8b8; stroke-width: 0.8"/>
    <path d="M 550.55493 104.171045 
L 553.481523 160.426729 
" clip-path="url(#pe343e97de5)" style="fill: none; stroke: #b8b8b8; stroke-width: 0.8"/>
    <path d="M 563.17121 346.684244 
L 496.921407 260.199629 
" clip-path="url(#pe343e97de5)" style="fill: none; stroke: #b8b8b8; stroke-width: 0.8"/>
    <path d="M 563.17121 346.684244 
L 559.835755 199.195014 
" clip-path="url(#pe343e97de5)" style="fill: none; stroke: #b8b8b8; stroke-width: 0.8"/>
    <path d="M 563.418265 177.091013 
L 559.835755 199.195014 
" clip-path="url(#pe343e97de5)" style="fill: none; stroke: #b8b8b8; stroke-width: 0.8"/>
    <path d="M 674.204966 295.628143 
L 615.977882 257.928996 
" clip-path="url(#pe343e97de5)" style="fill: none; stroke: #b8b8b8; stroke-width: 0.8"/>
    <path d="M 678.285448 136.273686 
L 553.481523 160.426729 
" clip-path="url(#pe343e97de5)" style="fill: none; stroke: #b8b8b8; stroke-width: 0.8"/>
    <path d="M 678.285448 136.273686 
L 559.835755 199.195014 
" clip-path="url(#pe343e97de5)" style="fill: none; stroke: #b8b8b8; stroke-width: 0.8"/>
    <path d="M 495.295009 200.589308 
L 496.921407 260.199629 
" clip-path="url(#pe343e97de5)" style="fill: none; stroke: #b8b8b8; stroke-width: 0.8"/>
    <path d="M 495.295009 200.589308 
L 553.481523 160.426729 
" clip-path="url(#pe343e97de5)" style="fill: none; stroke: #b8b8b8; stroke-width: 0.8"/>
    <path d="M 621.787265 239.543398 
L 615.977882 257.928996 
" clip-path="url(#pe343e97de5)" style="fill: none; stroke: #b8b8b8; stroke-width: 0.8"/>
    <path d="M 621.787265 239.543398 
L 559.835755 199.195014 
" clip-path="url(#pe343e97de5)" style="fill: none; stroke: #b8b8b8; stroke-width: 0.8"/>
    <path d="M 497.602764 241.845966 
L 496.921407 260.199629 
" clip-path="url(#pe343e97de5)" style="fill: none; stroke: #b8b8b8; stroke-width: 0.8"/>
    <path d="M 497.602764 241.845966 
L 559.835755 199.195014 
" clip-path="url(#pe343e97de5)" style="fill: none; stroke: #b8b8b8; stroke-width: 0.8"/>
    <path d="M 611.523228 198.573067 
L 553.481523 160.426729 
" clip-path="url(#pe343e97de5)" style="fill: none; stroke: #b8b8b8; stroke-width: 0.8"/>
    <path d="M 611.523228 198.573067 
L 615.977882 257.928996 
" clip-path="url(#pe343e97de5)" style="fill: none; stroke: #b8b8b8; stroke-width: 0.8"/>
    <path d="M 556.552296 298.004726 
L 496.921407 260.199629 
" clip-path="url(#pe343e97de5)" style="fill: none; stroke: #b8b8b8; stroke-width: 0.8"/>
    <path d="M 556.552296 298.004726 
L 615.977882 257.928996 
" clip-path="url(#pe343e97de5)" style="fill: none; stroke: #b8b8b8; stroke-width: 0.8"/>
    <path d="M 556.552296 138.169052 
L 553.481523 160.426729 
" clip-path="url(#pe343e97de5)" style="fill: none; stroke: #b8b8b8; stroke-width: 0.8"/>
    <path d="M 556.552296 138.169052 
L 559.835755 199.195014 
" clip-path="url(#pe343e97de5)" style="fill: none; stroke: #b8b8b8; stroke-width: 0.8"/>
   </g>
   <g id="Path3DCollection_10">
    <defs>
     <path id="C4_0_e3bfe35d73" d="M 0 3.708099 
C 0.983399 3.708099 1.926654 3.317391 2.622022 2.622022 
C 3.317391 1.926654 3.708099 0.983399 3.708099 -0 
C 3.708099 -0.983399 3.317391 -1.926654 2.622022 -2.622022 
C 1.926654 -3.317391 0.983399 -3.708099 0 -3.708099 
C -0.983399 -3.708099 -1.926654 -3.317391 -2.622022 -2.622022 
C -3.317391 -1.926654 -3.708099 -0.983399 -3.708099 0 
C -3.708099 0.983399 -3.317391 1.926654 -2.622022 2.622022 
C -1.926654 3.317391 -0.983399 3.708099 0 3.708099 
z
"/>
    </defs>
    <g clip-path="url(#pe343e97de5)">
     <use xlink:href="#C4_0_e3bfe35d73" x="550.744292" y="255.289127" style="fill: #ff7f0e; fill-opacity: 0.3; stroke: #ff7f0e; stroke-opacity: 0.3"/>
    </g>
    <g clip-path="url(#pe343e97de5)">
     <use xlink:href="#C4_0_e3bfe35d73" x="550.55493" y="104.171045" style="fill: #ff7f0e; fill-opacity: 0.425291; stroke: #ff7f0e; stroke-opacity: 0.425291"/>
    </g>
    <g clip-path="url(#pe343e97de5)">
     <use xlink:href="#C4_0_e3bfe35d73" x="611.523228" y="198.573067" style="fill: #ff7f0e; fill-opacity: 0.480278; stroke: #ff7f0e; stroke-opacity: 0.480278"/>
    </g>
    <g clip-path="url(#pe343e97de5)">
     <use xlink:href="#C4_0_e3bfe35d73" x="495.295009" y="200.589308" style="fill: #ff7f0e; fill-opacity: 0.493845; stroke: #ff7f0e; stroke-opacity: 0.493845"/>
    </g>
    <g clip-path="url(#pe343e97de5)">
     <use xlink:href="#C4_0_e3bfe35d73" x="674.204966" y="295.628143" style="fill: #ff7f0e; fill-opacity: 0.536811; stroke: #ff7f0e; stroke-opacity: 0.536811"/>
    </g>
    <g clip-path="url(#pe343e97de5)">
     <use xlink:href="#C4_0_e3bfe35d73" x="556.552296" y="298.004726" style="fill: #ff7f0e; fill-opacity: 0.550763; stroke: #ff7f0e; stroke-opacity: 0.550763"/>
    </g>
    <g clip-path="url(#pe343e97de5)">
     <use xlink:href="#C4_0_e3bfe35d73" x="438.09216" y="300.397619" style="fill: #ff7f0e; fill-opacity: 0.56481; stroke: #ff7f0e; stroke-opacity: 0.56481"/>
    </g>
    <g clip-path="url(#pe343e97de5)">
     <use xlink:href="#C4_0_e3bfe35d73" x="556.552296" y="138.169052" style="fill: #ff7f0e; fill-opacity: 0.693242; stroke: #ff7f0e; stroke-opacity: 0.693242"/>
    </g>
    <g clip-path="url(#pe343e97de5)">
     <use xlink:href="#C4_0_e3bfe35d73" x="621.787265" y="239.543398" style="fill: #ff7f0e; fill-opacity: 0.755965; stroke: #ff7f0e; stroke-opacity: 0.755965"/>
    </g>
    <g clip-path="url(#pe343e97de5)">
     <use xlink:href="#C4_0_e3bfe35d73" x="563.418265" y="177.091013" style="fill: #ff7f0e; stroke: #ff7f0e"/>
    </g>
   </g>
  </g>
  <g id="text_8">
   <!-- Sostituzione casuale di specie atomiche in reticoli di tipo diamante e zincoblenda -->
   <g transform="translate(7.2 18.597656) scale(0.15 -0.15)">
    <defs>
     <path id="DejaVuSans-Bold-6f" d="M 2203 2784 
Q 1831 2784 1636 2517 
Q 1441 2250 1441 1747 
Q 1441 1244 1636 976 
Q 1831 709 2203 709 
Q 2569 709 2762 976 
Q 2956 1244 2956 1747 
Q 2956 2250 2762 2517 
Q 2569 2784 2203 2784 
z
M 2203 3584 
Q 3106 3584 3614 3096 
Q 4122 2609 4122 1747 
Q 4122 884 3614 396 
Q 3106 -91 2203 -91 
Q 1297 -91 786 396 
Q 275 884 275 1747 
Q 275 2609 786 3096 
Q 1297 3584 2203 3584 
z
" transform="scale(0.015625)"/>
     <path id="DejaVuSans-Bold-74" d="M 1759 4494 
L 1759 3500 
L 2913 3500 
L 2913 2700 
L 1759 2700 
L 1759 1216 
Q 1759 972 1856 886 
Q 1953 800 2241 800 
L 2816 800 
L 2816 0 
L 1856 0 
Q 1194 0 917 276 
Q 641 553 641 1216 
L 641 2700 
L 84 2700 
L 84 3500 
L 641 3500 
L 641 4494 
L 1759 4494 
z
" transform="scale(0.015625)"/>
     <path id="DejaVuSans-Bold-75" d="M 500 1363 
L 500 3500 
L 1625 3500 
L 1625 3150 
Q 1625 2866 1622 2436 
Q 1619 2006 1619 1863 
Q 1619 1441 1641 1255 
Q 1663 1069 1716 984 
Q 1784 875 1895 815 
Q 2006 756 2150 756 
Q 2500 756 2700 1025 
Q 2900 1294 2900 1772 
L 2900 3500 
L 4019 3500 
L 4019 0 
L 2900 0 
L 2900 506 
Q 2647 200 2364 54 
Q 2081 -91 1741 -91 
Q 1134 -91 817 281 
Q 500 653 500 1363 
z
" transform="scale(0.015625)"/>
     <path id="DejaVuSans-Bold-7a" d="M 366 3500 
L 3419 3500 
L 3419 2719 
L 1575 800 
L 3419 800 
L 3419 0 
L 288 0 
L 288 781 
L 2131 2700 
L 366 2700 
L 366 3500 
z
" transform="scale(0.015625)"/>
     <path id="DejaVuSans-Bold-6e" d="M 4056 2131 
L 4056 0 
L 2931 0 
L 2931 347 
L 2931 1631 
Q 2931 2084 2911 2256 
Q 2891 2428 2841 2509 
Q 2775 2619 2662 2680 
Q 2550 2741 2406 2741 
Q 2056 2741 1856 2470 
Q 1656 2200 1656 1722 
L 1656 0 
L 538 0 
L 538 3500 
L 1656 3500 
L 1656 2988 
Q 1909 3294 2193 3439 
Q 2478 3584 2822 3584 
Q 3428 3584 3742 3212 
Q 4056 2841 4056 2131 
z
" transform="scale(0.015625)"/>
     <path id="DejaVuSans-Bold-63" d="M 3366 3391 
L 3366 2478 
Q 3138 2634 2908 2709 
Q 2678 2784 2431 2784 
Q 1963 2784 1702 2511 
Q 1441 2238 1441 1747 
Q 1441 1256 1702 982 
Q 1963 709 2431 709 
Q 2694 709 2930 787 
Q 3166 866 3366 1019 
L 3366 103 
Q 3103 6 2833 -42 
Q 2563 -91 2291 -91 
Q 1344 -91 809 395 
Q 275 881 275 1747 
Q 275 2613 809 3098 
Q 1344 3584 2291 3584 
Q 2566 3584 2833 3536 
Q 3100 3488 3366 3391 
z
" transform="scale(0.015625)"/>
     <path id="DejaVuSans-Bold-64" d="M 2919 2988 
L 2919 4863 
L 4044 4863 
L 4044 0 
L 2919 0 
L 2919 506 
Q 2688 197 2409 53 
Q 2131 -91 1766 -91 
Q 1119 -91 703 423 
Q 288 938 288 1747 
Q 288 2556 703 3070 
Q 1119 3584 1766 3584 
Q 2128 3584 2408 3439 
Q 2688 3294 2919 2988 
z
M 2181 722 
Q 2541 722 2730 984 
Q 2919 1247 2919 1747 
Q 2919 2247 2730 2509 
Q 2541 2772 2181 2772 
Q 1825 2772 1636 2509 
Q 1447 2247 1447 1747 
Q 1447 1247 1636 984 
Q 1825 722 2181 722 
z
" transform="scale(0.015625)"/>
     <path id="DejaVuSans-Bold-70" d="M 1656 506 
L 1656 -1331 
L 538 -1331 
L 538 3500 
L 1656 3500 
L 1656 2988 
Q 1888 3294 2169 3439 
Q 2450 3584 2816 3584 
Q 3463 3584 3878 3070 
Q 4294 2556 4294 1747 
Q 4294 938 3878 423 
Q 3463 -91 2816 -91 
Q 2450 -91 2169 54 
Q 1888 200 1656 506 
z
M 2400 2772 
Q 2041 2772 1848 2508 
Q 1656 2244 1656 1747 
Q 1656 1250 1848 986 
Q 2041 722 2400 722 
Q 2759 722 2948 984 
Q 3138 1247 3138 1747 
Q 3138 2247 2948 2509 
Q 2759 2772 2400 2772 
z
" transform="scale(0.015625)"/>
     <path id="DejaVuSans-Bold-6d" d="M 3781 2919 
Q 3994 3244 4286 3414 
Q 4578 3584 4928 3584 
Q 5531 3584 5847 3212 
Q 6163 2841 6163 2131 
L 6163 0 
L 5038 0 
L 5038 1825 
Q 5041 1866 5042 1909 
Q 5044 1953 5044 2034 
Q 5044 2406 4934 2573 
Q 4825 2741 4581 2741 
Q 4263 2741 4089 2478 
Q 3916 2216 3909 1719 
L 3909 0 
L 2784 0 
L 2784 1825 
Q 2784 2406 2684 2573 
Q 2584 2741 2328 2741 
Q 2006 2741 1831 2477 
Q 1656 2213 1656 1722 
L 1656 0 
L 531 0 
L 531 3500 
L 1656 3500 
L 1656 2988 
Q 1863 3284 2130 3434 
Q 2397 3584 2719 3584 
Q 3081 3584 3359 3409 
Q 3638 3234 3781 2919 
z
" transform="scale(0.015625)"/>
     <path id="DejaVuSans-Bold-68" d="M 4056 2131 
L 4056 0 
L 2931 0 
L 2931 347 
L 2931 1625 
Q 2931 2084 2911 2256 
Q 2891 2428 2841 2509 
Q 2775 2619 2662 2680 
Q 2550 2741 2406 2741 
Q 2056 2741 1856 2470 
Q 1656 2200 1656 1722 
L 1656 0 
L 538 0 
L 538 4863 
L 1656 4863 
L 1656 2988 
Q 1909 3294 2193 3439 
Q 2478 3584 2822 3584 
Q 3428 3584 3742 3212 
Q 4056 2841 4056 2131 
z
" transform="scale(0.015625)"/>
     <path id="DejaVuSans-Bold-72" d="M 3138 2547 
Q 2991 2616 2845 2648 
Q 2700 2681 2553 2681 
Q 2122 2681 1889 2404 
Q 1656 2128 1656 1613 
L 1656 0 
L 538 0 
L 538 3500 
L 1656 3500 
L 1656 2925 
Q 1872 3269 2151 3426 
Q 2431 3584 2822 3584 
Q 2878 3584 2943 3579 
Q 3009 3575 3134 3559 
L 3138 2547 
z
" transform="scale(0.015625)"/>
     <path id="DejaVuSans-Bold-62" d="M 2400 722 
Q 2759 722 2948 984 
Q 3138 1247 3138 1747 
Q 3138 2247 2948 2509 
Q 2759 2772 2400 2772 
Q 2041 2772 1848 2508 
Q 1656 2244 1656 1747 
Q 1656 1250 1848 986 
Q 2041 722 2400 722 
z
M 1656 2988 
Q 1888 3294 2169 3439 
Q 2450 3584 2816 3584 
Q 3463 3584 3878 3070 
Q 4294 2556 4294 1747 
Q 4294 938 3878 423 
Q 3463 -91 2816 -91 
Q 2450 -91 2169 54 
Q 1888 200 1656 506 
L 1656 0 
L 538 0 
L 538 4863 
L 1656 4863 
L 1656 2988 
z
" transform="scale(0.015625)"/>
    </defs>
    <use xlink:href="#DejaVuSans-Bold-53"/>
    <use xlink:href="#DejaVuSans-Bold-6f" transform="translate(72.021484 0)"/>
    <use xlink:href="#DejaVuSans-Bold-73" transform="translate(140.722656 0)"/>
    <use xlink:href="#DejaVuSans-Bold-74" transform="translate(200.244141 0)"/>
    <use xlink:href="#DejaVuSans-Bold-69" transform="translate(248.046875 0)"/>
    <use xlink:href="#DejaVuSans-Bold-74" transform="translate(282.324219 0)"/>
    <use xlink:href="#DejaVuSans-Bold-75" transform="translate(330.126953 0)"/>
    <use xlink:href="#DejaVuSans-Bold-7a" transform="translate(401.318359 0)"/>
    <use xlink:href="#DejaVuSans-Bold-69" transform="translate(459.521484 0)"/>
    <use xlink:href="#DejaVuSans-Bold-6f" transform="translate(493.798828 0)"/>
    <use xlink:href="#DejaVuSans-Bold-6e" transform="translate(562.5 0)"/>
    <use xlink:href="#DejaVuSans-Bold-65" transform="translate(633.691406 0)"/>
    <use xlink:href="#DejaVuSans-Bold-20" transform="translate(701.513672 0)"/>
    <use xlink:href="#DejaVuSans-Bold-63" transform="translate(736.328125 0)"/>
    <use xlink:href="#DejaVuSans-Bold-61" transform="translate(795.605469 0)"/>
    <use xlink:href="#DejaVuSans-Bold-73" transform="translate(863.085938 0)"/>
    <use xlink:href="#DejaVuSans-Bold-75" transform="translate(922.607422 0)"/>
    <use xlink:href="#DejaVuSans-Bold-61" transform="translate(993.798828 0)"/>
    <use xlink:href="#DejaVuSans-Bold-6c" transform="translate(1061.279297 0)"/>
    <use xlink:href="#DejaVuSans-Bold-65" transform="translate(1095.556641 0)"/>
    <use xlink:href="#DejaVuSans-Bold-20" transform="translate(1163.378906 0)"/>
    <use xlink:href="#DejaVuSans-Bold-64" transform="translate(1198.193359 0)"/>
    <use xlink:href="#DejaVuSans-Bold-69" transform="translate(1269.775391 0)"/>
    <use xlink:href="#DejaVuSans-Bold-20" transform="translate(1304.052734 0)"/>
    <use xlink:href="#DejaVuSans-Bold-73" transform="translate(1338.867188 0)"/>
    <use xlink:href="#DejaVuSans-Bold-70" transform="translate(1398.388672 0)"/>
    <use xlink:href="#DejaVuSans-Bold-65" transform="translate(1469.970703 0)"/>
    <use xlink:href="#DejaVuSans-Bold-63" transform="translate(1537.792969 0)"/>
    <use xlink:href="#DejaVuSans-Bold-69" transform="translate(1597.070312 0)"/>
    <use xlink:href="#DejaVuSans-Bold-65" transform="translate(1631.347656 0)"/>
    <use xlink:href="#DejaVuSans-Bold-20" transform="translate(1699.169922 0)"/>
    <use xlink:href="#DejaVuSans-Bold-61" transform="translate(1733.984375 0)"/>
    <use xlink:href="#DejaVuSans-Bold-74" transform="translate(1801.464844 0)"/>
    <use xlink:href="#DejaVuSans-Bold-6f" transform="translate(1849.267578 0)"/>
    <use xlink:href="#DejaVuSans-Bold-6d" transform="translate(1917.96875 0)"/>
    <use xlink:href="#DejaVuSans-Bold-69" transform="translate(2022.167969 0)"/>
    <use xlink:href="#DejaVuSans-Bold-63" transform="translate(2056.445312 0)"/>
    <use xlink:href="#DejaVuSans-Bold-68" transform="translate(2115.722656 0)"/>
    <use xlink:href="#DejaVuSans-Bold-65" transform="translate(2186.914062 0)"/>
    <use xlink:href="#DejaVuSans-Bold-20" transform="translate(2254.736328 0)"/>
    <use xlink:href="#DejaVuSans-Bold-69" transform="translate(2289.550781 0)"/>
    <use xlink:href="#DejaVuSans-Bold-6e" transform="translate(2323.828125 0)"/>
    <use xlink:href="#DejaVuSans-Bold-20" transform="translate(2395.019531 0)"/>
    <use xlink:href="#DejaVuSans-Bold-72" transform="translate(2429.833984 0)"/>
    <use xlink:href="#DejaVuSans-Bold-65" transform="translate(2479.150391 0)"/>
    <use xlink:href="#DejaVuSans-Bold-74" transform="translate(2546.972656 0)"/>
    <use xlink:href="#DejaVuSans-Bold-69" transform="translate(2594.775391 0)"/>
    <use xlink:href="#DejaVuSans-Bold-63" transform="translate(2629.052734 0)"/>
    <use xlink:href="#DejaVuSans-Bold-6f" transform="translate(2688.330078 0)"/>
    <use xlink:href="#DejaVuSans-Bold-6c" transform="translate(2757.03125 0)"/>
    <use xlink:href="#DejaVuSans-Bold-69" transform="translate(2791.308594 0)"/>
    <use xlink:href="#DejaVuSans-Bold-20" transform="translate(2825.585938 0)"/>
    <use xlink:href="#DejaVuSans-Bold-64" transform="translate(2860.400391 0)"/>
    <use xlink:href="#DejaVuSans-Bold-69" transform="translate(2931.982422 0)"/>
    <use xlink:href="#DejaVuSans-Bold-20" transform="translate(2966.259766 0)"/>
    <use xlink:href="#DejaVuSans-Bold-74" transform="translate(3001.074219 0)"/>
    <use xlink:href="#DejaVuSans-Bold-69" transform="translate(3048.876953 0)"/>
    <use xlink:href="#DejaVuSans-Bold-70" transform="translate(3083.154297 0)"/>
    <use xlink:href="#DejaVuSans-Bold-6f" transform="translate(3154.736328 0)"/>
    <use xlink:href="#DejaVuSans-Bold-20" transform="translate(3223.4375 0)"/>
    <use xlink:href="#DejaVuSans-Bold-64" transform="translate(3258.251953 0)"/>
    <use xlink:href="#DejaVuSans-Bold-69" transform="translate(3329.833984 0)"/>
    <use xlink:href="#DejaVuSans-Bold-61" transform="translate(3364.111328 0)"/>
    <use xlink:href="#DejaVuSans-Bold-6d" transform="translate(3431.591797 0)"/>
    <use xlink:href="#DejaVuSans-Bold-61" transform="translate(3535.791016 0)"/>
    <use xlink:href="#DejaVuSans-Bold-6e" transform="translate(3603.271484 0)"/>
    <use xlink:href="#DejaVuSans-Bold-74" transform="translate(3674.462891 0)"/>
    <use xlink:href="#DejaVuSans-Bold-65" transform="translate(3722.265625 0)"/>
    <use xlink:href="#DejaVuSans-Bold-20" transform="translate(3790.087891 0)"/>
    <use xlink:href="#DejaVuSans-Bold-65" transform="translate(3824.902344 0)"/>
    <use xlink:href="#DejaVuSans-Bold-20" transform="translate(3892.724609 0)"/>
    <use xlink:href="#DejaVuSans-Bold-7a" transform="translate(3927.539062 0)"/>
    <use xlink:href="#DejaVuSans-Bold-69" transform="translate(3985.742188 0)"/>
    <use xlink:href="#DejaVuSans-Bold-6e" transform="translate(4020.019531 0)"/>
    <use xlink:href="#DejaVuSans-Bold-63" transform="translate(4091.210938 0)"/>
    <use xlink:href="#DejaVuSans-Bold-6f" transform="translate(4150.488281 0)"/>
    <use xlink:href="#DejaVuSans-Bold-62" transform="translate(4219.189453 0)"/>
    <use xlink:href="#DejaVuSans-Bold-6c" transform="translate(4290.771484 0)"/>
    <use xlink:href="#DejaVuSans-Bold-65" transform="translate(4325.048828 0)"/>
    <use xlink:href="#DejaVuSans-Bold-6e" transform="translate(4392.871094 0)"/>
    <use xlink:href="#DejaVuSans-Bold-64" transform="translate(4464.0625 0)"/>
    <use xlink:href="#DejaVuSans-Bold-61" transform="translate(4535.644531 0)"/>
   </g>
  </g>
  <g id="text_9">
   <!-- Nella lega Si–Ge entrambe le specie condividono lo stesso sottoreticolo; in AlGaAs l'arsenico resta sul sottoreticolo anionico. -->
   <g transform="translate(41.098437 429.048) scale(0.1 -0.1)">
    <defs>
     <path id="DejaVuSans-4e" d="M 628 4666 
L 1478 4666 
L 3547 763 
L 3547 4666 
L 4159 4666 
L 4159 0 
L 3309 0 
L 1241 3903 
L 1241 0 
L 628 0 
L 628 4666 
z
" transform="scale(0.015625)"/>
     <path id="DejaVuSans-20" transform="scale(0.015625)"/>
     <path id="DejaVuSans-67" d="M 2906 1791 
Q 2906 2416 2648 2759 
Q 2391 3103 1925 3103 
Q 1463 3103 1205 2759 
Q 947 2416 947 1791 
Q 947 1169 1205 825 
Q 1463 481 1925 481 
Q 2391 481 2648 825 
Q 2906 1169 2906 1791 
z
M 3481 434 
Q 3481 -459 3084 -895 
Q 2688 -1331 1869 -1331 
Q 1566 -1331 1297 -1286 
Q 1028 -1241 775 -1147 
L 775 -588 
Q 1028 -725 1275 -790 
Q 1522 -856 1778 -856 
Q 2344 -856 2625 -561 
Q 2906 -266 2906 331 
L 2906 616 
Q 2728 306 2450 153 
Q 2172 0 1784 0 
Q 1141 0 747 490 
Q 353 981 353 1791 
Q 353 2603 747 3093 
Q 1141 3584 1784 3584 
Q 2172 3584 2450 3431 
Q 2728 3278 2906 2969 
L 2906 3500 
L 3481 3500 
L 3481 434 
z
" transform="scale(0.015625)"/>
     <path id="DejaVuSans-2013" d="M 313 1978 
L 2888 1978 
L 2888 1528 
L 313 1528 
L 313 1978 
z
" transform="scale(0.015625)"/>
     <path id="DejaVuSans-6e" d="M 3513 2113 
L 3513 0 
L 2938 0 
L 2938 2094 
Q 2938 2591 2744 2837 
Q 2550 3084 2163 3084 
Q 1697 3084 1428 2787 
Q 1159 2491 1159 1978 
L 1159 0 
L 581 0 
L 581 3500 
L 1159 3500 
L 1159 2956 
Q 1366 3272 1645 3428 
Q 1925 3584 2291 3584 
Q 2894 3584 3203 3211 
Q 3513 2838 3513 2113 
z
" transform="scale(0.015625)"/>
     <path id="DejaVuSans-74" d="M 1172 4494 
L 1172 3500 
L 2356 3500 
L 2356 3053 
L 1172 3053 
L 1172 1153 
Q 1172 725 1289 603 
Q 1406 481 1766 481 
L 2356 481 
L 2356 0 
L 1766 0 
Q 1100 0 847 248 
Q 594 497 594 1153 
L 594 3053 
L 172 3053 
L 172 3500 
L 594 3500 
L 594 4494 
L 1172 4494 
z
" transform="scale(0.015625)"/>
     <path id="DejaVuSans-72" d="M 2631 2963 
Q 2534 3019 2420 3045 
Q 2306 3072 2169 3072 
Q 1681 3072 1420 2755 
Q 1159 2438 1159 1844 
L 1159 0 
L 581 0 
L 581 3500 
L 1159 3500 
L 1159 2956 
Q 1341 3275 1631 3429 
Q 1922 3584 2338 3584 
Q 2397 3584 2469 3576 
Q 2541 3569 2628 3553 
L 2631 2963 
z
" transform="scale(0.015625)"/>
     <path id="DejaVuSans-6d" d="M 3328 2828 
Q 3544 3216 3844 3400 
Q 4144 3584 4550 3584 
Q 5097 3584 5394 3201 
Q 5691 2819 5691 2113 
L 5691 0 
L 5113 0 
L 5113 2094 
Q 5113 2597 4934 2840 
Q 4756 3084 4391 3084 
Q 3944 3084 3684 2787 
Q 3425 2491 3425 1978 
L 3425 0 
L 2847 0 
L 2847 2094 
Q 2847 2600 2669 2842 
Q 2491 3084 2119 3084 
Q 1678 3084 1418 2786 
Q 1159 2488 1159 1978 
L 1159 0 
L 581 0 
L 581 3500 
L 1159 3500 
L 1159 2956 
Q 1356 3278 1631 3431 
Q 1906 3584 2284 3584 
Q 2666 3584 2933 3390 
Q 3200 3197 3328 2828 
z
" transform="scale(0.015625)"/>
     <path id="DejaVuSans-62" d="M 3116 1747 
Q 3116 2381 2855 2742 
Q 2594 3103 2138 3103 
Q 1681 3103 1420 2742 
Q 1159 2381 1159 1747 
Q 1159 1113 1420 752 
Q 1681 391 2138 391 
Q 2594 391 2855 752 
Q 3116 1113 3116 1747 
z
M 1159 2969 
Q 1341 3281 1617 3432 
Q 1894 3584 2278 3584 
Q 2916 3584 3314 3078 
Q 3713 2572 3713 1747 
Q 3713 922 3314 415 
Q 2916 -91 2278 -91 
Q 1894 -91 1617 61 
Q 1341 213 1159 525 
L 1159 0 
L 581 0 
L 581 4863 
L 1159 4863 
L 1159 2969 
z
" transform="scale(0.015625)"/>
     <path id="DejaVuSans-70" d="M 1159 525 
L 1159 -1331 
L 581 -1331 
L 581 3500 
L 1159 3500 
L 1159 2969 
Q 1341 3281 1617 3432 
Q 1894 3584 2278 3584 
Q 2916 3584 3314 3078 
Q 3713 2572 3713 1747 
Q 3713 922 3314 415 
Q 2916 -91 2278 -91 
Q 1894 -91 1617 61 
Q 1341 213 1159 525 
z
M 3116 1747 
Q 3116 2381 2855 2742 
Q 2594 3103 2138 3103 
Q 1681 3103 1420 2742 
Q 1159 2381 1159 1747 
Q 1159 1113 1420 752 
Q 1681 391 2138 391 
Q 2594 391 2855 752 
Q 3116 1113 3116 1747 
z
" transform="scale(0.015625)"/>
     <path id="DejaVuSans-63" d="M 3122 3366 
L 3122 2828 
Q 2878 2963 2633 3030 
Q 2388 3097 2138 3097 
Q 1578 3097 1268 2742 
Q 959 2388 959 1747 
Q 959 1106 1268 751 
Q 1578 397 2138 397 
Q 2388 397 2633 464 
Q 2878 531 3122 666 
L 3122 134 
Q 2881 22 2623 -34 
Q 2366 -91 2075 -91 
Q 1284 -91 818 406 
Q 353 903 353 1747 
Q 353 2603 823 3093 
Q 1294 3584 2113 3584 
Q 2378 3584 2631 3529 
Q 2884 3475 3122 3366 
z
" transform="scale(0.015625)"/>
     <path id="DejaVuSans-6f" d="M 1959 3097 
Q 1497 3097 1228 2736 
Q 959 2375 959 1747 
Q 959 1119 1226 758 
Q 1494 397 1959 397 
Q 2419 397 2687 759 
Q 2956 1122 2956 1747 
Q 2956 2369 2687 2733 
Q 2419 3097 1959 3097 
z
M 1959 3584 
Q 2709 3584 3137 3096 
Q 3566 2609 3566 1747 
Q 3566 888 3137 398 
Q 2709 -91 1959 -91 
Q 1206 -91 779 398 
Q 353 888 353 1747 
Q 353 2609 779 3096 
Q 1206 3584 1959 3584 
z
" transform="scale(0.015625)"/>
     <path id="DejaVuSans-64" d="M 2906 2969 
L 2906 4863 
L 3481 4863 
L 3481 0 
L 2906 0 
L 2906 525 
Q 2725 213 2448 61 
Q 2172 -91 1784 -91 
Q 1150 -91 751 415 
Q 353 922 353 1747 
Q 353 2572 751 3078 
Q 1150 3584 1784 3584 
Q 2172 3584 2448 3432 
Q 2725 3281 2906 2969 
z
M 947 1747 
Q 947 1113 1208 752 
Q 1469 391 1925 391 
Q 2381 391 2643 752 
Q 2906 1113 2906 1747 
Q 2906 2381 2643 2742 
Q 2381 3103 1925 3103 
Q 1469 3103 1208 2742 
Q 947 2381 947 1747 
z
" transform="scale(0.015625)"/>
     <path id="DejaVuSans-76" d="M 191 3500 
L 800 3500 
L 1894 563 
L 2988 3500 
L 3597 3500 
L 2284 0 
L 1503 0 
L 191 3500 
z
" transform="scale(0.015625)"/>
     <path id="DejaVuSans-3b" d="M 750 3309 
L 1409 3309 
L 1409 2516 
L 750 2516 
L 750 3309 
z
M 750 794 
L 1409 794 
L 1409 256 
L 897 -744 
L 494 -744 
L 750 256 
L 750 794 
z
" transform="scale(0.015625)"/>
     <path id="DejaVuSans-27" d="M 1147 4666 
L 1147 2931 
L 616 2931 
L 616 4666 
L 1147 4666 
z
" transform="scale(0.015625)"/>
     <path id="DejaVuSans-75" d="M 544 1381 
L 544 3500 
L 1119 3500 
L 1119 1403 
Q 1119 906 1312 657 
Q 1506 409 1894 409 
Q 2359 409 2629 706 
Q 2900 1003 2900 1516 
L 2900 3500 
L 3475 3500 
L 3475 0 
L 2900 0 
L 2900 538 
Q 2691 219 2414 64 
Q 2138 -91 1772 -91 
Q 1169 -91 856 284 
Q 544 659 544 1381 
z
M 1991 3584 
L 1991 3584 
z
" transform="scale(0.015625)"/>
     <path id="DejaVuSans-2e" d="M 684 794 
L 1344 794 
L 1344 0 
L 684 0 
L 684 794 
z
" transform="scale(0.015625)"/>
    </defs>
    <use xlink:href="#DejaVuSans-4e"/>
    <use xlink:href="#DejaVuSans-65" transform="translate(74.804688 0)"/>
    <use xlink:href="#DejaVuSans-6c" transform="translate(136.328125 0)"/>
    <use xlink:href="#DejaVuSans-6c" transform="translate(164.111328 0)"/>
    <use xlink:href="#DejaVuSans-61" transform="translate(191.894531 0)"/>
    <use xlink:href="#DejaVuSans-20" transform="translate(253.173828 0)"/>
    <use xlink:href="#DejaVuSans-6c" transform="translate(284.960938 0)"/>
    <use xlink:href="#DejaVuSans-65" transform="translate(312.744141 0)"/>
    <use xlink:href="#DejaVuSans-67" transform="translate(374.267578 0)"/>
    <use xlink:href="#DejaVuSans-61" transform="translate(437.744141 0)"/>
    <use xlink:href="#DejaVuSans-20" transform="translate(499.023438 0)"/>
    <use xlink:href="#DejaVuSans-53" transform="translate(530.810547 0)"/>
    <use xlink:href="#DejaVuSans-69" transform="translate(594.287109 0)"/>
    <use xlink:href="#DejaVuSans-2013" transform="translate(622.070312 0)"/>
    <use xlink:href="#DejaVuSans-47" transform="translate(672.070312 0)"/>
    <use xlink:href="#DejaVuSans-65" transform="translate(749.560547 0)"/>
    <use xlink:href="#DejaVuSans-20" transform="translate(811.083984 0)"/>
    <use xlink:href="#DejaVuSans-65" transform="translate(842.871094 0)"/>
    <use xlink:href="#DejaVuSans-6e" transform="translate(904.394531 0)"/>
    <use xlink:href="#DejaVuSans-74" transform="translate(967.773438 0)"/>
    <use xlink:href="#DejaVuSans-72" transform="translate(1006.982422 0)"/>
    <use xlink:href="#DejaVuSans-61" transform="translate(1048.095703 0)"/>
    <use xlink:href="#DejaVuSans-6d" transform="translate(1109.375 0)"/>
    <use xlink:href="#DejaVuSans-62" transform="translate(1206.787109 0)"/>
    <use xlink:href="#DejaVuSans-65" transform="translate(1270.263672 0)"/>
    <use xlink:href="#DejaVuSans-20" transform="translate(1331.787109 0)"/>
    <use xlink:href="#DejaVuSans-6c" transform="translate(1363.574219 0)"/>
    <use xlink:href="#DejaVuSans-65" transform="translate(1391.357422 0)"/>
    <use xlink:href="#DejaVuSans-20" transform="translate(1452.880859 0)"/>
    <use xlink:href="#DejaVuSans-73" transform="translate(1484.667969 0)"/>
    <use xlink:href="#DejaVuSans-70" transform="translate(1536.767578 0)"/>
    <use xlink:href="#DejaVuSans-65" transform="translate(1600.244141 0)"/>
    <use xlink:href="#DejaVuSans-63" transform="translate(1661.767578 0)"/>
    <use xlink:href="#DejaVuSans-69" transform="translate(1716.748047 0)"/>
    <use xlink:href="#DejaVuSans-65" transform="translate(1744.53125 0)"/>
    <use xlink:href="#DejaVuSans-20" transform="translate(1806.054688 0)"/>
    <use xlink:href="#DejaVuSans-63" transform="translate(1837.841797 0)"/>
    <use xlink:href="#DejaVuSans-6f" transform="translate(1892.822266 0)"/>
    <use xlink:href="#DejaVuSans-6e" transform="translate(1954.003906 0)"/>
    <use xlink:href="#DejaVuSans-64" transform="translate(2017.382812 0)"/>
    <use xlink:href="#DejaVuSans-69" transform="translate(2080.859375 0)"/>
    <use xlink:href="#DejaVuSans-76" transform="translate(2108.642578 0)"/>
    <use xlink:href="#DejaVuSans-69" transform="translate(2167.822266 0)"/>
    <use xlink:href="#DejaVuSans-64" transform="translate(2195.605469 0)"/>
    <use xlink:href="#DejaVuSans-6f" transform="translate(2259.082031 0)"/>
    <use xlink:href="#DejaVuSans-6e" transform="translate(2320.263672 0)"/>
    <use xlink:href="#DejaVuSans-6f" transform="translate(2383.642578 0)"/>
    <use xlink:href="#DejaVuSans-20" transform="translate(2444.824219 0)"/>
    <use xlink:href="#DejaVuSans-6c" transform="translate(2476.611328 0)"/>
    <use xlink:href="#DejaVuSans-6f" transform="translate(2504.394531 0)"/>
    <use xlink:href="#DejaVuSans-20" transform="translate(2565.576172 0)"/>
    <use xlink:href="#DejaVuSans-73" transform="translate(2597.363281 0)"/>
    <use xlink:href="#DejaVuSans-74" transform="translate(2649.462891 0)"/>
    <use xlink:href="#DejaVuSans-65" transform="translate(2688.671875 0)"/>
    <use xlink:href="#DejaVuSans-73" transform="translate(2750.195312 0)"/>
    <use xlink:href="#DejaVuSans-73" transform="translate(2802.294922 0)"/>
    <use xlink:href="#DejaVuSans-6f" transform="translate(2854.394531 0)"/>
    <use xlink:href="#DejaVuSans-20" transform="translate(2915.576172 0)"/>
    <use xlink:href="#DejaVuSans-73" transform="translate(2947.363281 0)"/>
    <use xlink:href="#DejaVuSans-6f" transform="translate(2999.462891 0)"/>
    <use xlink:href="#DejaVuSans-74" transform="translate(3060.644531 0)"/>
    <use xlink:href="#DejaVuSans-74" transform="translate(3099.853516 0)"/>
    <use xlink:href="#DejaVuSans-6f" transform="translate(3139.0625 0)"/>
    <use xlink:href="#DejaVuSans-72" transform="translate(3200.244141 0)"/>
    <use xlink:href="#DejaVuSans-65" transform="translate(3239.107422 0)"/>
    <use xlink:href="#DejaVuSans-74" transform="translate(3300.630859 0)"/>
    <use xlink:href="#DejaVuSans-69" transform="translate(3339.839844 0)"/>
    <use xlink:href="#DejaVuSans-63" transform="translate(3367.623047 0)"/>
    <use xlink:href="#DejaVuSans-6f" transform="translate(3422.603516 0)"/>
    <use xlink:href="#DejaVuSans-6c" transform="translate(3483.785156 0)"/>
    <use xlink:href="#DejaVuSans-6f" transform="translate(3511.568359 0)"/>
    <use xlink:href="#DejaVuSans-3b" transform="translate(3572.75 0)"/>
    <use xlink:href="#DejaVuSans-20" transform="translate(3606.441406 0)"/>
    <use xlink:href="#DejaVuSans-69" transform="translate(3638.228516 0)"/>
    <use xlink:href="#DejaVuSans-6e" transform="translate(3666.011719 0)"/>
    <use xlink:href="#DejaVuSans-20" transform="translate(3729.390625 0)"/>
    <use xlink:href="#DejaVuSans-41" transform="translate(3761.177734 0)"/>
    <use xlink:href="#DejaVuSans-6c" transform="translate(3829.585938 0)"/>
    <use xlink:href="#DejaVuSans-47" transform="translate(3857.369141 0)"/>
    <use xlink:href="#DejaVuSans-61" transform="translate(3934.859375 0)"/>
    <use xlink:href="#DejaVuSans-41" transform="translate(3996.138672 0)"/>
    <use xlink:href="#DejaVuSans-73" transform="translate(4064.546875 0)"/>
    <use xlink:href="#DejaVuSans-20" transform="translate(4116.646484 0)"/>
    <use xlink:href="#DejaVuSans-6c" transform="translate(4148.433594 0)"/>
    <use xlink:href="#DejaVuSans-27" transform="translate(4176.216797 0)"/>
    <use xlink:href="#DejaVuSans-61" transform="translate(4203.707031 0)"/>
    <use xlink:href="#DejaVuSans-72" transform="translate(4264.986328 0)"/>
    <use xlink:href="#DejaVuSans-73" transform="translate(4306.099609 0)"/>
    <use xlink:href="#DejaVuSans-65" transform="translate(4358.199219 0)"/>
    <use xlink:href="#DejaVuSans-6e" transform="translate(4419.722656 0)"/>
    <use xlink:href="#DejaVuSans-69" transform="translate(4483.101562 0)"/>
    <use xlink:href="#DejaVuSans-63" transform="translate(4510.884766 0)"/>
    <use xlink:href="#DejaVuSans-6f" transform="translate(4565.865234 0)"/>
    <use xlink:href="#DejaVuSans-20" transform="translate(4627.046875 0)"/>
    <use xlink:href="#DejaVuSans-72" transform="translate(4658.833984 0)"/>
    <use xlink:href="#DejaVuSans-65" transform="translate(4697.697266 0)"/>
    <use xlink:href="#DejaVuSans-73" transform="translate(4759.220703 0)"/>
    <use xlink:href="#DejaVuSans-74" transform="translate(4811.320312 0)"/>
    <use xlink:href="#DejaVuSans-61" transform="translate(4850.529297 0)"/>
    <use xlink:href="#DejaVuSans-20" transform="translate(4911.808594 0)"/>
    <use xlink:href="#DejaVuSans-73" transform="translate(4943.595703 0)"/>
    <use xlink:href="#DejaVuSans-75" transform="translate(4995.695312 0)"/>
    <use xlink:href="#DejaVuSans-6c" transform="translate(5059.074219 0)"/>
    <use xlink:href="#DejaVuSans-20" transform="translate(5086.857422 0)"/>
    <use xlink:href="#DejaVuSans-73" transform="translate(5118.644531 0)"/>
    <use xlink:href="#DejaVuSans-6f" transform="translate(5170.744141 0)"/>
    <use xlink:href="#DejaVuSans-74" transform="translate(5231.925781 0)"/>
    <use xlink:href="#DejaVuSans-74" transform="translate(5271.134766 0)"/>
    <use xlink:href="#DejaVuSans-6f" transform="translate(5310.34375 0)"/>
    <use xlink:href="#DejaVuSans-72" transform="translate(5371.525391 0)"/>
    <use xlink:href="#DejaVuSans-65" transform="translate(5410.388672 0)"/>
    <use xlink:href="#DejaVuSans-74" transform="translate(5471.912109 0)"/>
    <use xlink:href="#DejaVuSans-69" transform="translate(5511.121094 0)"/>
    <use xlink:href="#DejaVuSans-63" transform="translate(5538.904297 0)"/>
    <use xlink:href="#DejaVuSans-6f" transform="translate(5593.884766 0)"/>
    <use xlink:href="#DejaVuSans-6c" transform="translate(5655.066406 0)"/>
    <use xlink:href="#DejaVuSans-6f" transform="translate(5682.849609 0)"/>
    <use xlink:href="#DejaVuSans-20" transform="translate(5744.03125 0)"/>
    <use xlink:href="#DejaVuSans-61" transform="translate(5775.818359 0)"/>
    <use xlink:href="#DejaVuSans-6e" transform="translate(5837.097656 0)"/>
    <use xlink:href="#DejaVuSans-69" transform="translate(5900.476562 0)"/>
    <use xlink:href="#DejaVuSans-6f" transform="translate(5928.259766 0)"/>
    <use xlink:href="#DejaVuSans-6e" transform="translate(5989.441406 0)"/>
    <use xlink:href="#DejaVuSans-69" transform="translate(6052.820312 0)"/>
    <use xlink:href="#DejaVuSans-63" transform="translate(6080.603516 0)"/>
    <use xlink:href="#DejaVuSans-6f" transform="translate(6135.583984 0)"/>
    <use xlink:href="#DejaVuSans-2e" transform="translate(6195.015625 0)"/>
   </g>
  </g>
 </g>
 <defs>
  <clipPath id="p12a40a1dac">
   <rect x="17.636719" y="66.449455" width="314.509091" height="314.509091"/>
  </clipPath>
  <clipPath id="pe343e97de5">
   <rect x="395.047628" y="66.449455" width="314.509091" height="314.509091"/>
  </clipPath>
 </defs>
</svg>
