<?xml version="1.0" encoding="utf-8" standalone="no"?>
<!DOCTYPE svg PUBLIC "-//W3C//DTD SVG 1.1//EN"
  "http://www.w3.org/Graphics/SVG/1.1/DTD/svg11.dtd">
<svg xmlns:xlink="http://www.w3.org/1999/xlink" width="438.857812pt" height="418.32pt" viewBox="0 0 438.857812 418.32" xmlns="http://www.w3.org/2000/svg" version="1.1">
 <metadata>
  <rdf:RDF xmlns:dc="http://purl.org/dc/elements/1.1/" xmlns:cc="http://creativecommons.org/ns#" xmlns:rdf="http://www.w3.org/1999/02/22-rdf-syntax-ns#">
   <cc:Work>
    <dc:type rdf:resource="http://purl.org/dc/dcmitype/StillImage"/>
    <dc:date>2026-06-16T08:11:22.469842</dc:date>
    <dc:format>image/svg+xml</dc:format>
    <dc:creator>
     <cc:Agent>
      <dc:title>Matplotlib v3.10.8, https://matplotlib.org/</dc:title>
     </cc:Agent>
    </dc:creator>
   </cc:Work>
  </rdf:RDF>
 </metadata>
 <defs>
  <style type="text/css">*{stroke-linejoin: round; stroke-linecap: butt}</style>
 </defs>
 <g id="figure_1">
  <g id="patch_1">
   <path d="M 0 418.32 
L 438.857812 418.32 
L 438.857812 0 
L 0 0 
z
" style="fill: #ffffff"/>
  </g>
  <g id="axes_1">
   <g id="line2d_1">
    <path d="M 194.167706 258.66 
L 311.766985 385.678459 
" clip-path="url(#p778d48706d)" style="fill: none; stroke: #2e2e2e; stroke-width: 1.7; stroke-linecap: square"/>
   </g>
   <g id="line2d_2">
    <path d="M 194.167706 258.66 
L 334.317069 152.078858 
" clip-path="url(#p778d48706d)" style="fill: none; stroke: #2e2e2e; stroke-width: 1.7; stroke-linecap: square"/>
   </g>
   <g id="line2d_3">
    <path d="M 194.167706 258.66 
L 194.167706 335.978856 
" clip-path="url(#p778d48706d)" style="fill: none; stroke: #2e2e2e; stroke-width: 1.7; stroke-linecap: square"/>
   </g>
   <g id="line2d_4">
    <path d="M 194.167706 335.978856 
L 271.328605 419.32 
" clip-path="url(#p778d48706d)" style="fill: none; stroke: #2e2e2e; stroke-width: 1.7; stroke-linecap: square"/>
   </g>
   <g id="line2d_5">
    <path d="M 194.167706 335.978856 
L 334.317069 229.397714 
" clip-path="url(#p778d48706d)" style="fill: none; stroke: #2e2e2e; stroke-width: 1.7; stroke-linecap: square"/>
   </g>
   <g id="line2d_6">
    <path d="M 334.317069 152.078858 
L 439.857812 266.072946 
" clip-path="url(#p778d48706d)" style="fill: none; stroke: #2e2e2e; stroke-width: 1.7; stroke-linecap: square"/>
   </g>
   <g id="line2d_7">
    <path d="M 334.317069 152.078858 
L 334.317069 229.397714 
" clip-path="url(#p778d48706d)" style="fill: none; stroke: #2e2e2e; stroke-width: 1.7; stroke-linecap: square"/>
   </g>
   <g id="line2d_8">
    <path d="M 334.317069 229.397714 
L 439.857812 343.391802 
" clip-path="url(#p778d48706d)" style="fill: none; stroke: #2e2e2e; stroke-width: 1.7; stroke-linecap: square"/>
   </g>
   <g id="line2d_9">
    <path d="M 311.766985 385.678459 
L 439.857812 288.267622 
" clip-path="url(#p778d48706d)" style="fill: none; stroke: #2e2e2e; stroke-width: 1.7; stroke-linecap: square"/>
   </g>
   <g id="line2d_10">
    <path d="M 311.766985 385.678459 
L 311.766985 419.32 
" clip-path="url(#p778d48706d)" style="fill: none; stroke: #2e2e2e; stroke-width: 1.7; stroke-linecap: square"/>
   </g>
   <g id="line2d_11">
    <path d="M 369.200672 419.32 
L 439.857812 365.586479 
" clip-path="url(#p778d48706d)" style="fill: none; stroke: #2e2e2e; stroke-width: 1.7; stroke-linecap: square"/>
   </g>
   <g id="line2d_12">
    <path clip-path="url(#p778d48706d)" style="fill: none; stroke: #2e2e2e; stroke-width: 1.7; stroke-linecap: square"/>
   </g>
   <g id="line2d_13">
    <path d="M 194.167706 258.66 
L 264.242388 244.028857 
" clip-path="url(#p778d48706d)" style="fill: none; stroke: #1f77b4; stroke-width: 2; stroke-linecap: square"/>
   </g>
   <g id="line2d_14">
    <path d="M 194.167706 258.66 
L 252.967346 360.828658 
" clip-path="url(#p778d48706d)" style="fill: none; stroke: #ff7f0e; stroke-width: 2; stroke-linecap: square"/>
   </g>
   <g id="line2d_15">
    <path d="M 194.167706 258.66 
L 323.042027 268.878658 
" clip-path="url(#p778d48706d)" style="fill: none; stroke: #2ca02c; stroke-width: 2; stroke-linecap: square"/>
   </g>
   <g id="line2d_16">
    <path d="M 323.042027 268.878658 
L 393.116709 254.247516 
" clip-path="url(#p778d48706d)" style="fill: none; stroke: #d62728; stroke-width: 2; stroke-linecap: square"/>
   </g>
   <g id="line2d_17">
    <path d="M 323.042027 268.878658 
L 381.841666 371.047316 
" clip-path="url(#p778d48706d)" style="fill: none; stroke: #9467bd; stroke-width: 2; stroke-linecap: square"/>
   </g>
   <g id="line2d_18">
    <path d="M 252.967346 360.828658 
L 323.042027 346.197515 
" clip-path="url(#p778d48706d)" style="fill: none; stroke: #8c564b; stroke-width: 2; stroke-linecap: square"/>
   </g>
   <g id="line2d_19">
    <path d="M 252.967346 360.828658 
L 381.841666 371.047316 
" clip-path="url(#p778d48706d)" style="fill: none; stroke: #e377c2; stroke-width: 2; stroke-linecap: square"/>
   </g>
   <g id="line2d_20">
    <path d="M 381.841666 371.047316 
L 439.857812 358.933918 
" clip-path="url(#p778d48706d)" style="fill: none; stroke: #7f7f7f; stroke-width: 2; stroke-linecap: square"/>
   </g>
   <g id="line2d_21">
    <path d="M 264.242388 244.028857 
L 323.042027 346.197515 
" clip-path="url(#p778d48706d)" style="fill: none; stroke: #bcbd22; stroke-width: 2; stroke-linecap: square"/>
   </g>
   <g id="line2d_22">
    <path d="M 264.242388 244.028857 
L 393.116709 254.247516 
" clip-path="url(#p778d48706d)" style="fill: none; stroke: #17becf; stroke-width: 2; stroke-linecap: square"/>
   </g>
   <g id="line2d_23">
    <path d="M 393.116709 254.247516 
L 439.857812 335.463589 
" clip-path="url(#p778d48706d)" style="fill: none; stroke: #1f77b4; stroke-width: 2; stroke-linecap: square"/>
   </g>
   <g id="line2d_24">
    <path d="M 323.042027 346.197515 
L 439.857812 355.460032 
" clip-path="url(#p778d48706d)" style="fill: none; stroke: #ff7f0e; stroke-width: 2; stroke-linecap: square"/>
   </g>
   <g id="patch_2">
    <path d="M 196.122304 258.251893 
Q 229.203203 251.344814 259.87635 244.940458 
" style="fill: none; stroke: #000000; stroke-width: 2.2; stroke-linecap: round"/>
    <path d="M 253.822283 243.344126 
L 259.87635 244.940458 
L 254.966844 248.825912 
z
" style="fill: #1f77b4; stroke: #000000; stroke-width: 2.2; stroke-linecap: round"/>
   </g>
   <g id="text_1">
    <!-- $\mathbf{a}_1$ -->
    <g transform="translate(229.503447 261.421884) scale(0.1 -0.1)">
     <defs>
      <path id="DejaVuSans-Bold-61" d="M 2106 1575 
Q 1756 1575 1579 1456 
Q 1403 1338 1403 1106 
Q 1403 894 1545 773 
Q 1688 653 1941 653 
Q 2256 653 2472 879 
Q 2688 1106 2688 1447 
L 2688 1575 
L 2106 1575 
z
M 3816 1997 
L 3816 0 
L 2688 0 
L 2688 519 
Q 2463 200 2181 54 
Q 1900 -91 1497 -91 
Q 953 -91 614 226 
Q 275 544 275 1050 
Q 275 1666 698 1953 
Q 1122 2241 2028 2241 
L 2688 2241 
L 2688 2328 
Q 2688 2594 2478 2717 
Q 2269 2841 1825 2841 
Q 1466 2841 1156 2769 
Q 847 2697 581 2553 
L 581 3406 
Q 941 3494 1303 3539 
Q 1666 3584 2028 3584 
Q 2975 3584 3395 3211 
Q 3816 2838 3816 1997 
z
" transform="scale(0.015625)"/>
      <path id="DejaVuSans-31" d="M 794 531 
L 1825 531 
L 1825 4091 
L 703 3866 
L 703 4441 
L 1819 4666 
L 2450 4666 
L 2450 531 
L 3481 531 
L 3481 0 
L 794 0 
L 794 531 
z
" transform="scale(0.015625)"/>
     </defs>
     <use xlink:href="#DejaVuSans-Bold-61"/>
     <use xlink:href="#DejaVuSans-31" transform="translate(68.4375 -16.40625) scale(0.7)"/>
    </g>
   </g>
   <g id="patch_3">
    <path d="M 195.163611 260.390457 
Q 223.56714 309.743658 250.743766 356.965026 
" style="fill: none; stroke: #000000; stroke-width: 2.2; stroke-linecap: round"/>
    <path d="M 250.377245 350.714773 
L 250.743766 356.965026 
L 245.523651 353.508091 
z
" style="fill: #1f77b4; stroke: #000000; stroke-width: 2.2; stroke-linecap: round"/>
   </g>
   <g id="text_2">
    <!-- $\mathbf{a}_2$ -->
    <g transform="translate(211.669126 306.405304) scale(0.1 -0.1)">
     <defs>
      <path id="DejaVuSans-32" d="M 1228 531 
L 3431 531 
L 3431 0 
L 469 0 
L 469 531 
Q 828 903 1448 1529 
Q 2069 2156 2228 2338 
Q 2531 2678 2651 2914 
Q 2772 3150 2772 3378 
Q 2772 3750 2511 3984 
Q 2250 4219 1831 4219 
Q 1534 4219 1204 4116 
Q 875 4013 500 3803 
L 500 4441 
Q 881 4594 1212 4672 
Q 1544 4750 1819 4750 
Q 2544 4750 2975 4387 
Q 3406 4025 3406 3419 
Q 3406 3131 3298 2873 
Q 3191 2616 2906 2266 
Q 2828 2175 2409 1742 
Q 1991 1309 1228 531 
z
" transform="scale(0.015625)"/>
     </defs>
     <use xlink:href="#DejaVuSans-Bold-61"/>
     <use xlink:href="#DejaVuSans-32" transform="translate(68.4375 -16.40625) scale(0.7)"/>
    </g>
   </g>
   <g id="patch_4">
    <path d="M 196.161703 258.818107 
Q 258.604804 263.769324 318.595927 268.52612 
" style="fill: none; stroke: #000000; stroke-width: 2.2; stroke-linecap: round"/>
    <path d="M 313.23477 265.292237 
L 318.595927 268.52612 
L 312.792126 270.874715 
z
" style="fill: #1f77b4; stroke: #000000; stroke-width: 2.2; stroke-linecap: round"/>
   </g>
   <g id="text_3">
    <!-- $\mathbf{a}_3$ -->
    <g transform="translate(257.683587 260.430304) scale(0.1 -0.1)">
     <defs>
      <path id="DejaVuSans-33" d="M 2597 2516 
Q 3050 2419 3304 2112 
Q 3559 1806 3559 1356 
Q 3559 666 3084 287 
Q 2609 -91 1734 -91 
Q 1441 -91 1130 -33 
Q 819 25 488 141 
L 488 750 
Q 750 597 1062 519 
Q 1375 441 1716 441 
Q 2309 441 2620 675 
Q 2931 909 2931 1356 
Q 2931 1769 2642 2001 
Q 2353 2234 1838 2234 
L 1294 2234 
L 1294 2753 
L 1863 2753 
Q 2328 2753 2575 2939 
Q 2822 3125 2822 3475 
Q 2822 3834 2567 4026 
Q 2313 4219 1838 4219 
Q 1578 4219 1281 4162 
Q 984 4106 628 3988 
L 628 4550 
Q 988 4650 1302 4700 
Q 1616 4750 1894 4750 
Q 2613 4750 3031 4423 
Q 3450 4097 3450 3541 
Q 3450 3153 3228 2886 
Q 3006 2619 2597 2516 
z
" transform="scale(0.015625)"/>
     </defs>
     <use xlink:href="#DejaVuSans-Bold-61"/>
     <use xlink:href="#DejaVuSans-33" transform="translate(68.4375 -16.40625) scale(0.7)"/>
    </g>
   </g>
   <g id="text_4">
    <!-- cella cubica convenzionale -->
    <g transform="translate(81.347306 90.954) scale(0.115 -0.115)">
     <defs>
      <path id="DejaVuSans-Bold-63" d="M 3366 3391 
L 3366 2478 
Q 3138 2634 2908 2709 
Q 2678 2784 2431 2784 
Q 1963 2784 1702 2511 
Q 1441 2238 1441 1747 
Q 1441 1256 1702 982 
Q 1963 709 2431 709 
Q 2694 709 2930 787 
Q 3166 866 3366 1019 
L 3366 103 
Q 3103 6 2833 -42 
Q 2563 -91 2291 -91 
Q 1344 -91 809 395 
Q 275 881 275 1747 
Q 275 2613 809 3098 
Q 1344 3584 2291 3584 
Q 2566 3584 2833 3536 
Q 3100 3488 3366 3391 
z
" transform="scale(0.015625)"/>
      <path id="DejaVuSans-Bold-65" d="M 4031 1759 
L 4031 1441 
L 1416 1441 
Q 1456 1047 1700 850 
Q 1944 653 2381 653 
Q 2734 653 3104 758 
Q 3475 863 3866 1075 
L 3866 213 
Q 3469 63 3072 -14 
Q 2675 -91 2278 -91 
Q 1328 -91 801 392 
Q 275 875 275 1747 
Q 275 2603 792 3093 
Q 1309 3584 2216 3584 
Q 3041 3584 3536 3087 
Q 4031 2591 4031 1759 
z
M 2881 2131 
Q 2881 2450 2695 2645 
Q 2509 2841 2209 2841 
Q 1884 2841 1681 2658 
Q 1478 2475 1428 2131 
L 2881 2131 
z
" transform="scale(0.015625)"/>
      <path id="DejaVuSans-Bold-6c" d="M 538 4863 
L 1656 4863 
L 1656 0 
L 538 0 
L 538 4863 
z
" transform="scale(0.015625)"/>
      <path id="DejaVuSans-Bold-20" transform="scale(0.015625)"/>
      <path id="DejaVuSans-Bold-75" d="M 500 1363 
L 500 3500 
L 1625 3500 
L 1625 3150 
Q 1625 2866 1622 2436 
Q 1619 2006 1619 1863 
Q 1619 1441 1641 1255 
Q 1663 1069 1716 984 
Q 1784 875 1895 815 
Q 2006 756 2150 756 
Q 2500 756 2700 1025 
Q 2900 1294 2900 1772 
L 2900 3500 
L 4019 3500 
L 4019 0 
L 2900 0 
L 2900 506 
Q 2647 200 2364 54 
Q 2081 -91 1741 -91 
Q 1134 -91 817 281 
Q 500 653 500 1363 
z
" transform="scale(0.015625)"/>
      <path id="DejaVuSans-Bold-62" d="M 2400 722 
Q 2759 722 2948 984 
Q 3138 1247 3138 1747 
Q 3138 2247 2948 2509 
Q 2759 2772 2400 2772 
Q 2041 2772 1848 2508 
Q 1656 2244 1656 1747 
Q 1656 1250 1848 986 
Q 2041 722 2400 722 
z
M 1656 2988 
Q 1888 3294 2169 3439 
Q 2450 3584 2816 3584 
Q 3463 3584 3878 3070 
Q 4294 2556 4294 1747 
Q 4294 938 3878 423 
Q 3463 -91 2816 -91 
Q 2450 -91 2169 54 
Q 1888 200 1656 506 
L 1656 0 
L 538 0 
L 538 4863 
L 1656 4863 
L 1656 2988 
z
" transform="scale(0.015625)"/>
      <path id="DejaVuSans-Bold-69" d="M 538 3500 
L 1656 3500 
L 1656 0 
L 538 0 
L 538 3500 
z
M 538 4863 
L 1656 4863 
L 1656 3950 
L 538 3950 
L 538 4863 
z
" transform="scale(0.015625)"/>
      <path id="DejaVuSans-Bold-6f" d="M 2203 2784 
Q 1831 2784 1636 2517 
Q 1441 2250 1441 1747 
Q 1441 1244 1636 976 
Q 1831 709 2203 709 
Q 2569 709 2762 976 
Q 2956 1244 2956 1747 
Q 2956 2250 2762 2517 
Q 2569 2784 2203 2784 
z
M 2203 3584 
Q 3106 3584 3614 3096 
Q 4122 2609 4122 1747 
Q 4122 884 3614 396 
Q 3106 -91 2203 -91 
Q 1297 -91 786 396 
Q 275 884 275 1747 
Q 275 2609 786 3096 
Q 1297 3584 2203 3584 
z
" transform="scale(0.015625)"/>
      <path id="DejaVuSans-Bold-6e" d="M 4056 2131 
L 4056 0 
L 2931 0 
L 2931 347 
L 2931 1631 
Q 2931 2084 2911 2256 
Q 2891 2428 2841 2509 
Q 2775 2619 2662 2680 
Q 2550 2741 2406 2741 
Q 2056 2741 1856 2470 
Q 1656 2200 1656 1722 
L 1656 0 
L 538 0 
L 538 3500 
L 1656 3500 
L 1656 2988 
Q 1909 3294 2193 3439 
Q 2478 3584 2822 3584 
Q 3428 3584 3742 3212 
Q 4056 2841 4056 2131 
z
" transform="scale(0.015625)"/>
      <path id="DejaVuSans-Bold-76" d="M 97 3500 
L 1216 3500 
L 2088 1081 
L 2956 3500 
L 4078 3500 
L 2700 0 
L 1472 0 
L 97 3500 
z
" transform="scale(0.015625)"/>
      <path id="DejaVuSans-Bold-7a" d="M 366 3500 
L 3419 3500 
L 3419 2719 
L 1575 800 
L 3419 800 
L 3419 0 
L 288 0 
L 288 781 
L 2131 2700 
L 366 2700 
L 366 3500 
z
" transform="scale(0.015625)"/>
     </defs>
     <use xlink:href="#DejaVuSans-Bold-63"/>
     <use xlink:href="#DejaVuSans-Bold-65" transform="translate(59.277344 0)"/>
     <use xlink:href="#DejaVuSans-Bold-6c" transform="translate(127.099609 0)"/>
     <use xlink:href="#DejaVuSans-Bold-6c" transform="translate(161.376953 0)"/>
     <use xlink:href="#DejaVuSans-Bold-61" transform="translate(195.654297 0)"/>
     <use xlink:href="#DejaVuSans-Bold-20" transform="translate(263.134766 0)"/>
     <use xlink:href="#DejaVuSans-Bold-63" transform="translate(297.949219 0)"/>
     <use xlink:href="#DejaVuSans-Bold-75" transform="translate(357.226562 0)"/>
     <use xlink:href="#DejaVuSans-Bold-62" transform="translate(428.417969 0)"/>
     <use xlink:href="#DejaVuSans-Bold-69" transform="translate(500 0)"/>
     <use xlink:href="#DejaVuSans-Bold-63" transform="translate(534.277344 0)"/>
     <use xlink:href="#DejaVuSans-Bold-61" transform="translate(593.554688 0)"/>
     <use xlink:href="#DejaVuSans-Bold-20" transform="translate(661.035156 0)"/>
     <use xlink:href="#DejaVuSans-Bold-63" transform="translate(695.849609 0)"/>
     <use xlink:href="#DejaVuSans-Bold-6f" transform="translate(755.126953 0)"/>
     <use xlink:href="#DejaVuSans-Bold-6e" transform="translate(823.828125 0)"/>
     <use xlink:href="#DejaVuSans-Bold-76" transform="translate(895.019531 0)"/>
     <use xlink:href="#DejaVuSans-Bold-65" transform="translate(960.205078 0)"/>
     <use xlink:href="#DejaVuSans-Bold-6e" transform="translate(1028.027344 0)"/>
     <use xlink:href="#DejaVuSans-Bold-7a" transform="translate(1099.21875 0)"/>
     <use xlink:href="#DejaVuSans-Bold-69" transform="translate(1157.421875 0)"/>
     <use xlink:href="#DejaVuSans-Bold-6f" transform="translate(1191.699219 0)"/>
     <use xlink:href="#DejaVuSans-Bold-6e" transform="translate(1260.400391 0)"/>
     <use xlink:href="#DejaVuSans-Bold-61" transform="translate(1331.591797 0)"/>
     <use xlink:href="#DejaVuSans-Bold-6c" transform="translate(1399.072266 0)"/>
     <use xlink:href="#DejaVuSans-Bold-65" transform="translate(1433.349609 0)"/>
    </g>
   </g>
   <g id="text_5">
    <!-- cella primitiva -->
    <g transform="translate(206.364506 292.2012) scale(0.105 -0.105)">
     <defs>
      <path id="DejaVuSans-Bold-70" d="M 1656 506 
L 1656 -1331 
L 538 -1331 
L 538 3500 
L 1656 3500 
L 1656 2988 
Q 1888 3294 2169 3439 
Q 2450 3584 2816 3584 
Q 3463 3584 3878 3070 
Q 4294 2556 4294 1747 
Q 4294 938 3878 423 
Q 3463 -91 2816 -91 
Q 2450 -91 2169 54 
Q 1888 200 1656 506 
z
M 2400 2772 
Q 2041 2772 1848 2508 
Q 1656 2244 1656 1747 
Q 1656 1250 1848 986 
Q 2041 722 2400 722 
Q 2759 722 2948 984 
Q 3138 1247 3138 1747 
Q 3138 2247 2948 2509 
Q 2759 2772 2400 2772 
z
" transform="scale(0.015625)"/>
      <path id="DejaVuSans-Bold-72" d="M 3138 2547 
Q 2991 2616 2845 2648 
Q 2700 2681 2553 2681 
Q 2122 2681 1889 2404 
Q 1656 2128 1656 1613 
L 1656 0 
L 538 0 
L 538 3500 
L 1656 3500 
L 1656 2925 
Q 1872 3269 2151 3426 
Q 2431 3584 2822 3584 
Q 2878 3584 2943 3579 
Q 3009 3575 3134 3559 
L 3138 2547 
z
" transform="scale(0.015625)"/>
      <path id="DejaVuSans-Bold-6d" d="M 3781 2919 
Q 3994 3244 4286 3414 
Q 4578 3584 4928 3584 
Q 5531 3584 5847 3212 
Q 6163 2841 6163 2131 
L 6163 0 
L 5038 0 
L 5038 1825 
Q 5041 1866 5042 1909 
Q 5044 1953 5044 2034 
Q 5044 2406 4934 2573 
Q 4825 2741 4581 2741 
Q 4263 2741 4089 2478 
Q 3916 2216 3909 1719 
L 3909 0 
L 2784 0 
L 2784 1825 
Q 2784 2406 2684 2573 
Q 2584 2741 2328 2741 
Q 2006 2741 1831 2477 
Q 1656 2213 1656 1722 
L 1656 0 
L 531 0 
L 531 3500 
L 1656 3500 
L 1656 2988 
Q 1863 3284 2130 3434 
Q 2397 3584 2719 3584 
Q 3081 3584 3359 3409 
Q 3638 3234 3781 2919 
z
" transform="scale(0.015625)"/>
      <path id="DejaVuSans-Bold-74" d="M 1759 4494 
L 1759 3500 
L 2913 3500 
L 2913 2700 
L 1759 2700 
L 1759 1216 
Q 1759 972 1856 886 
Q 1953 800 2241 800 
L 2816 800 
L 2816 0 
L 1856 0 
Q 1194 0 917 276 
Q 641 553 641 1216 
L 641 2700 
L 84 2700 
L 84 3500 
L 641 3500 
L 641 4494 
L 1759 4494 
z
" transform="scale(0.015625)"/>
     </defs>
     <use xlink:href="#DejaVuSans-Bold-63"/>
     <use xlink:href="#DejaVuSans-Bold-65" transform="translate(59.277344 0)"/>
     <use xlink:href="#DejaVuSans-Bold-6c" transform="translate(127.099609 0)"/>
     <use xlink:href="#DejaVuSans-Bold-6c" transform="translate(161.376953 0)"/>
     <use xlink:href="#DejaVuSans-Bold-61" transform="translate(195.654297 0)"/>
     <use xlink:href="#DejaVuSans-Bold-20" transform="translate(263.134766 0)"/>
     <use xlink:href="#DejaVuSans-Bold-70" transform="translate(297.949219 0)"/>
     <use xlink:href="#DejaVuSans-Bold-72" transform="translate(369.53125 0)"/>
     <use xlink:href="#DejaVuSans-Bold-69" transform="translate(418.847656 0)"/>
     <use xlink:href="#DejaVuSans-Bold-6d" transform="translate(453.125 0)"/>
     <use xlink:href="#DejaVuSans-Bold-69" transform="translate(557.324219 0)"/>
     <use xlink:href="#DejaVuSans-Bold-74" transform="translate(591.601562 0)"/>
     <use xlink:href="#DejaVuSans-Bold-69" transform="translate(639.404297 0)"/>
     <use xlink:href="#DejaVuSans-Bold-76" transform="translate(673.681641 0)"/>
     <use xlink:href="#DejaVuSans-Bold-61" transform="translate(738.867188 0)"/>
    </g>
   </g>
   <g id="text_6">
    <!-- La cella primitiva è generata da tre vettori -->
    <g transform="translate(127.799391 364.972611) scale(0.094 -0.094)">
     <defs>
      <path id="DejaVuSans-4c" d="M 628 4666 
L 1259 4666 
L 1259 531 
L 3531 531 
L 3531 0 
L 628 0 
L 628 4666 
z
" transform="scale(0.015625)"/>
      <path id="DejaVuSans-61" d="M 2194 1759 
Q 1497 1759 1228 1600 
Q 959 1441 959 1056 
Q 959 750 1161 570 
Q 1363 391 1709 391 
Q 2188 391 2477 730 
Q 2766 1069 2766 1631 
L 2766 1759 
L 2194 1759 
z
M 3341 1997 
L 3341 0 
L 2766 0 
L 2766 531 
Q 2569 213 2275 61 
Q 1981 -91 1556 -91 
Q 1019 -91 701 211 
Q 384 513 384 1019 
Q 384 1609 779 1909 
Q 1175 2209 1959 2209 
L 2766 2209 
L 2766 2266 
Q 2766 2663 2505 2880 
Q 2244 3097 1772 3097 
Q 1472 3097 1187 3025 
Q 903 2953 641 2809 
L 641 3341 
Q 956 3463 1253 3523 
Q 1550 3584 1831 3584 
Q 2591 3584 2966 3190 
Q 3341 2797 3341 1997 
z
" transform="scale(0.015625)"/>
      <path id="DejaVuSans-20" transform="scale(0.015625)"/>
      <path id="DejaVuSans-63" d="M 3122 3366 
L 3122 2828 
Q 2878 2963 2633 3030 
Q 2388 3097 2138 3097 
Q 1578 3097 1268 2742 
Q 959 2388 959 1747 
Q 959 1106 1268 751 
Q 1578 397 2138 397 
Q 2388 397 2633 464 
Q 2878 531 3122 666 
L 3122 134 
Q 2881 22 2623 -34 
Q 2366 -91 2075 -91 
Q 1284 -91 818 406 
Q 353 903 353 1747 
Q 353 2603 823 3093 
Q 1294 3584 2113 3584 
Q 2378 3584 2631 3529 
Q 2884 3475 3122 3366 
z
" transform="scale(0.015625)"/>
      <path id="DejaVuSans-65" d="M 3597 1894 
L 3597 1613 
L 953 1613 
Q 991 1019 1311 708 
Q 1631 397 2203 397 
Q 2534 397 2845 478 
Q 3156 559 3463 722 
L 3463 178 
Q 3153 47 2828 -22 
Q 2503 -91 2169 -91 
Q 1331 -91 842 396 
Q 353 884 353 1716 
Q 353 2575 817 3079 
Q 1281 3584 2069 3584 
Q 2775 3584 3186 3129 
Q 3597 2675 3597 1894 
z
M 3022 2063 
Q 3016 2534 2758 2815 
Q 2500 3097 2075 3097 
Q 1594 3097 1305 2825 
Q 1016 2553 972 2059 
L 3022 2063 
z
" transform="scale(0.015625)"/>
      <path id="DejaVuSans-6c" d="M 603 4863 
L 1178 4863 
L 1178 0 
L 603 0 
L 603 4863 
z
" transform="scale(0.015625)"/>
      <path id="DejaVuSans-70" d="M 1159 525 
L 1159 -1331 
L 581 -1331 
L 581 3500 
L 1159 3500 
L 1159 2969 
Q 1341 3281 1617 3432 
Q 1894 3584 2278 3584 
Q 2916 3584 3314 3078 
Q 3713 2572 3713 1747 
Q 3713 922 3314 415 
Q 2916 -91 2278 -91 
Q 1894 -91 1617 61 
Q 1341 213 1159 525 
z
M 3116 1747 
Q 3116 2381 2855 2742 
Q 2594 3103 2138 3103 
Q 1681 3103 1420 2742 
Q 1159 2381 1159 1747 
Q 1159 1113 1420 752 
Q 1681 391 2138 391 
Q 2594 391 2855 752 
Q 3116 1113 3116 1747 
z
" transform="scale(0.015625)"/>
      <path id="DejaVuSans-72" d="M 2631 2963 
Q 2534 3019 2420 3045 
Q 2306 3072 2169 3072 
Q 1681 3072 1420 2755 
Q 1159 2438 1159 1844 
L 1159 0 
L 581 0 
L 581 3500 
L 1159 3500 
L 1159 2956 
Q 1341 3275 1631 3429 
Q 1922 3584 2338 3584 
Q 2397 3584 2469 3576 
Q 2541 3569 2628 3553 
L 2631 2963 
z
" transform="scale(0.015625)"/>
      <path id="DejaVuSans-69" d="M 603 3500 
L 1178 3500 
L 1178 0 
L 603 0 
L 603 3500 
z
M 603 4863 
L 1178 4863 
L 1178 4134 
L 603 4134 
L 603 4863 
z
" transform="scale(0.015625)"/>
      <path id="DejaVuSans-6d" d="M 3328 2828 
Q 3544 3216 3844 3400 
Q 4144 3584 4550 3584 
Q 5097 3584 5394 3201 
Q 5691 2819 5691 2113 
L 5691 0 
L 5113 0 
L 5113 2094 
Q 5113 2597 4934 2840 
Q 4756 3084 4391 3084 
Q 3944 3084 3684 2787 
Q 3425 2491 3425 1978 
L 3425 0 
L 2847 0 
L 2847 2094 
Q 2847 2600 2669 2842 
Q 2491 3084 2119 3084 
Q 1678 3084 1418 2786 
Q 1159 2488 1159 1978 
L 1159 0 
L 581 0 
L 581 3500 
L 1159 3500 
L 1159 2956 
Q 1356 3278 1631 3431 
Q 1906 3584 2284 3584 
Q 2666 3584 2933 3390 
Q 3200 3197 3328 2828 
z
" transform="scale(0.015625)"/>
      <path id="DejaVuSans-74" d="M 1172 4494 
L 1172 3500 
L 2356 3500 
L 2356 3053 
L 1172 3053 
L 1172 1153 
Q 1172 725 1289 603 
Q 1406 481 1766 481 
L 2356 481 
L 2356 0 
L 1766 0 
Q 1100 0 847 248 
Q 594 497 594 1153 
L 594 3053 
L 172 3053 
L 172 3500 
L 594 3500 
L 594 4494 
L 1172 4494 
z
" transform="scale(0.015625)"/>
      <path id="DejaVuSans-76" d="M 191 3500 
L 800 3500 
L 1894 563 
L 2988 3500 
L 3597 3500 
L 2284 0 
L 1503 0 
L 191 3500 
z
" transform="scale(0.015625)"/>
      <path id="DejaVuSans-e8" d="M 3597 1894 
L 3597 1613 
L 953 1613 
Q 991 1019 1311 708 
Q 1631 397 2203 397 
Q 2534 397 2845 478 
Q 3156 559 3463 722 
L 3463 178 
Q 3153 47 2828 -22 
Q 2503 -91 2169 -91 
Q 1331 -91 842 396 
Q 353 884 353 1716 
Q 353 2575 817 3079 
Q 1281 3584 2069 3584 
Q 2775 3584 3186 3129 
Q 3597 2675 3597 1894 
z
M 3022 2063 
Q 3016 2534 2758 2815 
Q 2500 3097 2075 3097 
Q 1594 3097 1305 2825 
Q 1016 2553 972 2059 
L 3022 2063 
z
M 1579 5119 
L 2460 3950 
L 1982 3950 
L 963 5119 
L 1579 5119 
z
" transform="scale(0.015625)"/>
      <path id="DejaVuSans-67" d="M 2906 1791 
Q 2906 2416 2648 2759 
Q 2391 3103 1925 3103 
Q 1463 3103 1205 2759 
Q 947 2416 947 1791 
Q 947 1169 1205 825 
Q 1463 481 1925 481 
Q 2391 481 2648 825 
Q 2906 1169 2906 1791 
z
M 3481 434 
Q 3481 -459 3084 -895 
Q 2688 -1331 1869 -1331 
Q 1566 -1331 1297 -1286 
Q 1028 -1241 775 -1147 
L 775 -588 
Q 1028 -725 1275 -790 
Q 1522 -856 1778 -856 
Q 2344 -856 2625 -561 
Q 2906 -266 2906 331 
L 2906 616 
Q 2728 306 2450 153 
Q 2172 0 1784 0 
Q 1141 0 747 490 
Q 353 981 353 1791 
Q 353 2603 747 3093 
Q 1141 3584 1784 3584 
Q 2172 3584 2450 3431 
Q 2728 3278 2906 2969 
L 2906 3500 
L 3481 3500 
L 3481 434 
z
" transform="scale(0.015625)"/>
      <path id="DejaVuSans-6e" d="M 3513 2113 
L 3513 0 
L 2938 0 
L 2938 2094 
Q 2938 2591 2744 2837 
Q 2550 3084 2163 3084 
Q 1697 3084 1428 2787 
Q 1159 2491 1159 1978 
L 1159 0 
L 581 0 
L 581 3500 
L 1159 3500 
L 1159 2956 
Q 1366 3272 1645 3428 
Q 1925 3584 2291 3584 
Q 2894 3584 3203 3211 
Q 3513 2838 3513 2113 
z
" transform="scale(0.015625)"/>
      <path id="DejaVuSans-64" d="M 2906 2969 
L 2906 4863 
L 3481 4863 
L 3481 0 
L 2906 0 
L 2906 525 
Q 2725 213 2448 61 
Q 2172 -91 1784 -91 
Q 1150 -91 751 415 
Q 353 922 353 1747 
Q 353 2572 751 3078 
Q 1150 3584 1784 3584 
Q 2172 3584 2448 3432 
Q 2725 3281 2906 2969 
z
M 947 1747 
Q 947 1113 1208 752 
Q 1469 391 1925 391 
Q 2381 391 2643 752 
Q 2906 1113 2906 1747 
Q 2906 2381 2643 2742 
Q 2381 3103 1925 3103 
Q 1469 3103 1208 2742 
Q 947 2381 947 1747 
z
" transform="scale(0.015625)"/>
      <path id="DejaVuSans-6f" d="M 1959 3097 
Q 1497 3097 1228 2736 
Q 959 2375 959 1747 
Q 959 1119 1226 758 
Q 1494 397 1959 397 
Q 2419 397 2687 759 
Q 2956 1122 2956 1747 
Q 2956 2369 2687 2733 
Q 2419 3097 1959 3097 
z
M 1959 3584 
Q 2709 3584 3137 3096 
Q 3566 2609 3566 1747 
Q 3566 888 3137 398 
Q 2709 -91 1959 -91 
Q 1206 -91 779 398 
Q 353 888 353 1747 
Q 353 2609 779 3096 
Q 1206 3584 1959 3584 
z
" transform="scale(0.015625)"/>
     </defs>
     <use xlink:href="#DejaVuSans-4c"/>
     <use xlink:href="#DejaVuSans-61" transform="translate(55.712891 0)"/>
     <use xlink:href="#DejaVuSans-20" transform="translate(116.992188 0)"/>
     <use xlink:href="#DejaVuSans-63" transform="translate(148.779297 0)"/>
     <use xlink:href="#DejaVuSans-65" transform="translate(203.759766 0)"/>
     <use xlink:href="#DejaVuSans-6c" transform="translate(265.283203 0)"/>
     <use xlink:href="#DejaVuSans-6c" transform="translate(293.066406 0)"/>
     <use xlink:href="#DejaVuSans-61" transform="translate(320.849609 0)"/>
     <use xlink:href="#DejaVuSans-20" transform="translate(382.128906 0)"/>
     <use xlink:href="#DejaVuSans-70" transform="translate(413.916016 0)"/>
     <use xlink:href="#DejaVuSans-72" transform="translate(477.392578 0)"/>
     <use xlink:href="#DejaVuSans-69" transform="translate(518.505859 0)"/>
     <use xlink:href="#DejaVuSans-6d" transform="translate(546.289062 0)"/>
     <use xlink:href="#DejaVuSans-69" transform="translate(643.701172 0)"/>
     <use xlink:href="#DejaVuSans-74" transform="translate(671.484375 0)"/>
     <use xlink:href="#DejaVuSans-69" transform="translate(710.693359 0)"/>
     <use xlink:href="#DejaVuSans-76" transform="translate(738.476562 0)"/>
     <use xlink:href="#DejaVuSans-61" transform="translate(797.65625 0)"/>
     <use xlink:href="#DejaVuSans-20" transform="translate(858.935547 0)"/>
     <use xlink:href="#DejaVuSans-e8" transform="translate(890.722656 0)"/>
     <use xlink:href="#DejaVuSans-20" transform="translate(952.246094 0)"/>
     <use xlink:href="#DejaVuSans-67" transform="translate(984.033203 0)"/>
     <use xlink:href="#DejaVuSans-65" transform="translate(1047.509766 0)"/>
     <use xlink:href="#DejaVuSans-6e" transform="translate(1109.033203 0)"/>
     <use xlink:href="#DejaVuSans-65" transform="translate(1172.412109 0)"/>
     <use xlink:href="#DejaVuSans-72" transform="translate(1233.935547 0)"/>
     <use xlink:href="#DejaVuSans-61" transform="translate(1275.048828 0)"/>
     <use xlink:href="#DejaVuSans-74" transform="translate(1336.328125 0)"/>
     <use xlink:href="#DejaVuSans-61" transform="translate(1375.537109 0)"/>
     <use xlink:href="#DejaVuSans-20" transform="translate(1436.816406 0)"/>
     <use xlink:href="#DejaVuSans-64" transform="translate(1468.603516 0)"/>
     <use xlink:href="#DejaVuSans-61" transform="translate(1532.080078 0)"/>
     <use xlink:href="#DejaVuSans-20" transform="translate(1593.359375 0)"/>
     <use xlink:href="#DejaVuSans-74" transform="translate(1625.146484 0)"/>
     <use xlink:href="#DejaVuSans-72" transform="translate(1664.355469 0)"/>
     <use xlink:href="#DejaVuSans-65" transform="translate(1703.21875 0)"/>
     <use xlink:href="#DejaVuSans-20" transform="translate(1764.742188 0)"/>
     <use xlink:href="#DejaVuSans-76" transform="translate(1796.529297 0)"/>
     <use xlink:href="#DejaVuSans-65" transform="translate(1855.708984 0)"/>
     <use xlink:href="#DejaVuSans-74" transform="translate(1917.232422 0)"/>
     <use xlink:href="#DejaVuSans-74" transform="translate(1956.441406 0)"/>
     <use xlink:href="#DejaVuSans-6f" transform="translate(1995.650391 0)"/>
     <use xlink:href="#DejaVuSans-72" transform="translate(2056.832031 0)"/>
     <use xlink:href="#DejaVuSans-69" transform="translate(2097.945312 0)"/>
    </g>
    <!-- diretti verso i centri di facce adiacenti. -->
    <g transform="translate(136.945297 375.498555) scale(0.094 -0.094)">
     <defs>
      <path id="DejaVuSans-73" d="M 2834 3397 
L 2834 2853 
Q 2591 2978 2328 3040 
Q 2066 3103 1784 3103 
Q 1356 3103 1142 2972 
Q 928 2841 928 2578 
Q 928 2378 1081 2264 
Q 1234 2150 1697 2047 
L 1894 2003 
Q 2506 1872 2764 1633 
Q 3022 1394 3022 966 
Q 3022 478 2636 193 
Q 2250 -91 1575 -91 
Q 1294 -91 989 -36 
Q 684 19 347 128 
L 347 722 
Q 666 556 975 473 
Q 1284 391 1588 391 
Q 1994 391 2212 530 
Q 2431 669 2431 922 
Q 2431 1156 2273 1281 
Q 2116 1406 1581 1522 
L 1381 1569 
Q 847 1681 609 1914 
Q 372 2147 372 2553 
Q 372 3047 722 3315 
Q 1072 3584 1716 3584 
Q 2034 3584 2315 3537 
Q 2597 3491 2834 3397 
z
" transform="scale(0.015625)"/>
      <path id="DejaVuSans-66" d="M 2375 4863 
L 2375 4384 
L 1825 4384 
Q 1516 4384 1395 4259 
Q 1275 4134 1275 3809 
L 1275 3500 
L 2222 3500 
L 2222 3053 
L 1275 3053 
L 1275 0 
L 697 0 
L 697 3053 
L 147 3053 
L 147 3500 
L 697 3500 
L 697 3744 
Q 697 4328 969 4595 
Q 1241 4863 1831 4863 
L 2375 4863 
z
" transform="scale(0.015625)"/>
      <path id="DejaVuSans-2e" d="M 684 794 
L 1344 794 
L 1344 0 
L 684 0 
L 684 794 
z
" transform="scale(0.015625)"/>
     </defs>
     <use xlink:href="#DejaVuSans-64"/>
     <use xlink:href="#DejaVuSans-69" transform="translate(63.476562 0)"/>
     <use xlink:href="#DejaVuSans-72" transform="translate(91.259766 0)"/>
     <use xlink:href="#DejaVuSans-65" transform="translate(130.123047 0)"/>
     <use xlink:href="#DejaVuSans-74" transform="translate(191.646484 0)"/>
     <use xlink:href="#DejaVuSans-74" transform="translate(230.855469 0)"/>
     <use xlink:href="#DejaVuSans-69" transform="translate(270.064453 0)"/>
     <use xlink:href="#DejaVuSans-20" transform="translate(297.847656 0)"/>
     <use xlink:href="#DejaVuSans-76" transform="translate(329.634766 0)"/>
     <use xlink:href="#DejaVuSans-65" transform="translate(388.814453 0)"/>
     <use xlink:href="#DejaVuSans-72" transform="translate(450.337891 0)"/>
     <use xlink:href="#DejaVuSans-73" transform="translate(491.451172 0)"/>
     <use xlink:href="#DejaVuSans-6f" transform="translate(543.550781 0)"/>
     <use xlink:href="#DejaVuSans-20" transform="translate(604.732422 0)"/>
     <use xlink:href="#DejaVuSans-69" transform="translate(636.519531 0)"/>
     <use xlink:href="#DejaVuSans-20" transform="translate(664.302734 0)"/>
     <use xlink:href="#DejaVuSans-63" transform="translate(696.089844 0)"/>
     <use xlink:href="#DejaVuSans-65" transform="translate(751.070312 0)"/>
     <use xlink:href="#DejaVuSans-6e" transform="translate(812.59375 0)"/>
     <use xlink:href="#DejaVuSans-74" transform="translate(875.972656 0)"/>
     <use xlink:href="#DejaVuSans-72" transform="translate(915.181641 0)"/>
     <use xlink:href="#DejaVuSans-69" transform="translate(956.294922 0)"/>
     <use xlink:href="#DejaVuSans-20" transform="translate(984.078125 0)"/>
     <use xlink:href="#DejaVuSans-64" transform="translate(1015.865234 0)"/>
     <use xlink:href="#DejaVuSans-69" transform="translate(1079.341797 0)"/>
     <use xlink:href="#DejaVuSans-20" transform="translate(1107.125 0)"/>
     <use xlink:href="#DejaVuSans-66" transform="translate(1138.912109 0)"/>
     <use xlink:href="#DejaVuSans-61" transform="translate(1174.117188 0)"/>
     <use xlink:href="#DejaVuSans-63" transform="translate(1235.396484 0)"/>
     <use xlink:href="#DejaVuSans-63" transform="translate(1290.376953 0)"/>
     <use xlink:href="#DejaVuSans-65" transform="translate(1345.357422 0)"/>
     <use xlink:href="#DejaVuSans-20" transform="translate(1406.880859 0)"/>
     <use xlink:href="#DejaVuSans-61" transform="translate(1438.667969 0)"/>
     <use xlink:href="#DejaVuSans-64" transform="translate(1499.947266 0)"/>
     <use xlink:href="#DejaVuSans-69" transform="translate(1563.423828 0)"/>
     <use xlink:href="#DejaVuSans-61" transform="translate(1591.207031 0)"/>
     <use xlink:href="#DejaVuSans-63" transform="translate(1652.486328 0)"/>
     <use xlink:href="#DejaVuSans-65" transform="translate(1707.466797 0)"/>
     <use xlink:href="#DejaVuSans-6e" transform="translate(1768.990234 0)"/>
     <use xlink:href="#DejaVuSans-74" transform="translate(1832.369141 0)"/>
     <use xlink:href="#DejaVuSans-69" transform="translate(1871.578125 0)"/>
     <use xlink:href="#DejaVuSans-2e" transform="translate(1899.361328 0)"/>
    </g>
   </g>
   <g id="PathCollection_1">
    <defs>
     <path id="ma1aea352d4" d="M 0 2.915476 
C 0.773193 2.915476 1.514823 2.608283 2.061553 2.061553 
C 2.608283 1.514823 2.915476 0.773193 2.915476 0 
C 2.915476 -0.773193 2.608283 -1.514823 2.061553 -2.061553 
C 1.514823 -2.608283 0.773193 -2.915476 0 -2.915476 
C -0.773193 -2.915476 -1.514823 -2.608283 -2.061553 -2.061553 
C -2.608283 -1.514823 -2.915476 -0.773193 -2.915476 0 
C -2.915476 0.773193 -2.608283 1.514823 -2.061553 2.061553 
C -1.514823 2.608283 -0.773193 2.915476 0 2.915476 
z
" style="stroke: #1f77b4"/>
    </defs>
    <g clip-path="url(#p778d48706d)">
     <use xlink:href="#ma1aea352d4" x="194.167706" y="258.66" style="fill: #1f77b4; stroke: #1f77b4"/>
     <use xlink:href="#ma1aea352d4" x="194.167706" y="335.978856" style="fill: #1f77b4; stroke: #1f77b4"/>
     <use xlink:href="#ma1aea352d4" x="334.317069" y="152.078858" style="fill: #1f77b4; stroke: #1f77b4"/>
     <use xlink:href="#ma1aea352d4" x="334.317069" y="229.397714" style="fill: #1f77b4; stroke: #1f77b4"/>
     <use xlink:href="#ma1aea352d4" x="311.766985" y="385.678459" style="fill: #1f77b4; stroke: #1f77b4"/>
     <use xlink:href="#ma1aea352d4" x="311.766985" y="462.997315" style="fill: #1f77b4; stroke: #1f77b4"/>
     <use xlink:href="#ma1aea352d4" x="451.916348" y="279.097317" style="fill: #1f77b4; stroke: #1f77b4"/>
     <use xlink:href="#ma1aea352d4" x="451.916348" y="356.416173" style="fill: #1f77b4; stroke: #1f77b4"/>
     <use xlink:href="#ma1aea352d4" x="323.042027" y="268.878658" style="fill: #1f77b4; stroke: #1f77b4"/>
     <use xlink:href="#ma1aea352d4" x="323.042027" y="346.197515" style="fill: #1f77b4; stroke: #1f77b4"/>
     <use xlink:href="#ma1aea352d4" x="252.967346" y="360.828658" style="fill: #1f77b4; stroke: #1f77b4"/>
     <use xlink:href="#ma1aea352d4" x="393.116709" y="254.247516" style="fill: #1f77b4; stroke: #1f77b4"/>
     <use xlink:href="#ma1aea352d4" x="264.242388" y="244.028857" style="fill: #1f77b4; stroke: #1f77b4"/>
     <use xlink:href="#ma1aea352d4" x="381.841666" y="371.047316" style="fill: #1f77b4; stroke: #1f77b4"/>
    </g>
   </g>
  </g>
  <g id="text_7">
   <!-- Reticolo FCC: cella convenzionale e cella primitiva -->
   <g transform="translate(7.2 18.597656) scale(0.15 -0.15)">
    <defs>
     <path id="DejaVuSans-Bold-52" d="M 2297 2597 
Q 2675 2597 2839 2737 
Q 3003 2878 3003 3200 
Q 3003 3519 2839 3656 
Q 2675 3794 2297 3794 
L 1791 3794 
L 1791 2597 
L 2297 2597 
z
M 1791 1766 
L 1791 0 
L 588 0 
L 588 4666 
L 2425 4666 
Q 3347 4666 3776 4356 
Q 4206 4047 4206 3378 
Q 4206 2916 3982 2619 
Q 3759 2322 3309 2181 
Q 3556 2125 3751 1926 
Q 3947 1728 4147 1325 
L 4800 0 
L 3519 0 
L 2950 1159 
Q 2778 1509 2601 1637 
Q 2425 1766 2131 1766 
L 1791 1766 
z
" transform="scale(0.015625)"/>
     <path id="DejaVuSans-Bold-46" d="M 588 4666 
L 3834 4666 
L 3834 3756 
L 1791 3756 
L 1791 2888 
L 3713 2888 
L 3713 1978 
L 1791 1978 
L 1791 0 
L 588 0 
L 588 4666 
z
" transform="scale(0.015625)"/>
     <path id="DejaVuSans-Bold-43" d="M 4288 256 
Q 3956 84 3597 -3 
Q 3238 -91 2847 -91 
Q 1681 -91 1000 561 
Q 319 1213 319 2328 
Q 319 3447 1000 4098 
Q 1681 4750 2847 4750 
Q 3238 4750 3597 4662 
Q 3956 4575 4288 4403 
L 4288 3438 
Q 3953 3666 3628 3772 
Q 3303 3878 2944 3878 
Q 2300 3878 1931 3465 
Q 1563 3053 1563 2328 
Q 1563 1606 1931 1193 
Q 2300 781 2944 781 
Q 3303 781 3628 887 
Q 3953 994 4288 1222 
L 4288 256 
z
" transform="scale(0.015625)"/>
     <path id="DejaVuSans-Bold-3a" d="M 716 3500 
L 1844 3500 
L 1844 2291 
L 716 2291 
L 716 3500 
z
M 716 1209 
L 1844 1209 
L 1844 0 
L 716 0 
L 716 1209 
z
" transform="scale(0.015625)"/>
    </defs>
    <use xlink:href="#DejaVuSans-Bold-52"/>
    <use xlink:href="#DejaVuSans-Bold-65" transform="translate(77.001953 0)"/>
    <use xlink:href="#DejaVuSans-Bold-74" transform="translate(144.824219 0)"/>
    <use xlink:href="#DejaVuSans-Bold-69" transform="translate(192.626953 0)"/>
    <use xlink:href="#DejaVuSans-Bold-63" transform="translate(226.904297 0)"/>
    <use xlink:href="#DejaVuSans-Bold-6f" transform="translate(286.181641 0)"/>
    <use xlink:href="#DejaVuSans-Bold-6c" transform="translate(354.882812 0)"/>
    <use xlink:href="#DejaVuSans-Bold-6f" transform="translate(389.160156 0)"/>
    <use xlink:href="#DejaVuSans-Bold-20" transform="translate(457.861328 0)"/>
    <use xlink:href="#DejaVuSans-Bold-46" transform="translate(492.675781 0)"/>
    <use xlink:href="#DejaVuSans-Bold-43" transform="translate(560.986328 0)"/>
    <use xlink:href="#DejaVuSans-Bold-43" transform="translate(634.375 0)"/>
    <use xlink:href="#DejaVuSans-Bold-3a" transform="translate(707.763672 0)"/>
    <use xlink:href="#DejaVuSans-Bold-20" transform="translate(747.753906 0)"/>
    <use xlink:href="#DejaVuSans-Bold-63" transform="translate(782.568359 0)"/>
    <use xlink:href="#DejaVuSans-Bold-65" transform="translate(841.845703 0)"/>
    <use xlink:href="#DejaVuSans-Bold-6c" transform="translate(909.667969 0)"/>
    <use xlink:href="#DejaVuSans-Bold-6c" transform="translate(943.945312 0)"/>
    <use xlink:href="#DejaVuSans-Bold-61" transform="translate(978.222656 0)"/>
    <use xlink:href="#DejaVuSans-Bold-20" transform="translate(1045.703125 0)"/>
    <use xlink:href="#DejaVuSans-Bold-63" transform="translate(1080.517578 0)"/>
    <use xlink:href="#DejaVuSans-Bold-6f" transform="translate(1139.794922 0)"/>
    <use xlink:href="#DejaVuSans-Bold-6e" transform="translate(1208.496094 0)"/>
    <use xlink:href="#DejaVuSans-Bold-76" transform="translate(1279.6875 0)"/>
    <use xlink:href="#DejaVuSans-Bold-65" transform="translate(1344.873047 0)"/>
    <use xlink:href="#DejaVuSans-Bold-6e" transform="translate(1412.695312 0)"/>
    <use xlink:href="#DejaVuSans-Bold-7a" transform="translate(1483.886719 0)"/>
    <use xlink:href="#DejaVuSans-Bold-69" transform="translate(1542.089844 0)"/>
    <use xlink:href="#DejaVuSans-Bold-6f" transform="translate(1576.367188 0)"/>
    <use xlink:href="#DejaVuSans-Bold-6e" transform="translate(1645.068359 0)"/>
    <use xlink:href="#DejaVuSans-Bold-61" transform="translate(1716.259766 0)"/>
    <use xlink:href="#DejaVuSans-Bold-6c" transform="translate(1783.740234 0)"/>
    <use xlink:href="#DejaVuSans-Bold-65" transform="translate(1818.017578 0)"/>
    <use xlink:href="#DejaVuSans-Bold-20" transform="translate(1885.839844 0)"/>
    <use xlink:href="#DejaVuSans-Bold-65" transform="translate(1920.654297 0)"/>
    <use xlink:href="#DejaVuSans-Bold-20" transform="translate(1988.476562 0)"/>
    <use xlink:href="#DejaVuSans-Bold-63" transform="translate(2023.291016 0)"/>
    <use xlink:href="#DejaVuSans-Bold-65" transform="translate(2082.568359 0)"/>
    <use xlink:href="#DejaVuSans-Bold-6c" transform="translate(2150.390625 0)"/>
    <use xlink:href="#DejaVuSans-Bold-6c" transform="translate(2184.667969 0)"/>
    <use xlink:href="#DejaVuSans-Bold-61" transform="translate(2218.945312 0)"/>
    <use xlink:href="#DejaVuSans-Bold-20" transform="translate(2286.425781 0)"/>
    <use xlink:href="#DejaVuSans-Bold-70" transform="translate(2321.240234 0)"/>
    <use xlink:href="#DejaVuSans-Bold-72" transform="translate(2392.822266 0)"/>
    <use xlink:href="#DejaVuSans-Bold-69" transform="translate(2442.138672 0)"/>
    <use xlink:href="#DejaVuSans-Bold-6d" transform="translate(2476.416016 0)"/>
    <use xlink:href="#DejaVuSans-Bold-69" transform="translate(2580.615234 0)"/>
    <use xlink:href="#DejaVuSans-Bold-74" transform="translate(2614.892578 0)"/>
    <use xlink:href="#DejaVuSans-Bold-69" transform="translate(2662.695312 0)"/>
    <use xlink:href="#DejaVuSans-Bold-76" transform="translate(2696.972656 0)"/>
    <use xlink:href="#DejaVuSans-Bold-61" transform="translate(2762.158203 0)"/>
   </g>
  </g>
 </g>
 <defs>
  <clipPath id="p778d48706d">
   <rect x="53.904506" y="45.216" width="347.6088" height="365.904"/>
  </clipPath>
 </defs>
</svg>
