<?xml version="1.0" encoding="utf-8" standalone="no"?>
<!DOCTYPE svg PUBLIC "-//W3C//DTD SVG 1.1//EN"
  "http://www.w3.org/Graphics/SVG/1.1/DTD/svg11.dtd">
<svg xmlns:xlink="http://www.w3.org/1999/xlink" width="717.48pt" height="342.408886pt" viewBox="0 0 717.48 342.408886" xmlns="http://www.w3.org/2000/svg" version="1.1">
 <metadata>
  <rdf:RDF xmlns:dc="http://purl.org/dc/elements/1.1/" xmlns:cc="http://creativecommons.org/ns#" xmlns:rdf="http://www.w3.org/1999/02/22-rdf-syntax-ns#">
   <cc:Work>
    <dc:type rdf:resource="http://purl.org/dc/dcmitype/StillImage"/>
    <dc:date>2026-06-16T08:11:23.496223</dc:date>
    <dc:format>image/svg+xml</dc:format>
    <dc:creator>
     <cc:Agent>
      <dc:title>Matplotlib v3.10.8, https://matplotlib.org/</dc:title>
     </cc:Agent>
    </dc:creator>
   </cc:Work>
  </rdf:RDF>
 </metadata>
 <defs>
  <style type="text/css">*{stroke-linejoin: round; stroke-linecap: butt}</style>
 </defs>
 <g id="figure_1">
  <g id="patch_1">
   <path d="M 0 342.408886 
L 717.48 342.408886 
L 717.48 0 
L 0 0 
z
" style="fill: #ffffff"/>
  </g>
  <g id="axes_1">
   <g id="line2d_1">
    <path d="M 127.043182 227.350023 
L 171.209177 275.053518 
" clip-path="url(#p0b244b5e96)" style="fill: none; stroke: #2e2e2e; stroke-width: 1.45; stroke-linecap: square"/>
   </g>
   <g id="line2d_2">
    <path d="M 127.043182 227.350023 
L 179.678165 187.322037 
" clip-path="url(#p0b244b5e96)" style="fill: none; stroke: #2e2e2e; stroke-width: 1.45; stroke-linecap: square"/>
   </g>
   <g id="line2d_3">
    <path d="M 127.043182 227.350023 
L 127.043182 256.388162 
" clip-path="url(#p0b244b5e96)" style="fill: none; stroke: #2e2e2e; stroke-width: 1.45; stroke-linecap: square"/>
   </g>
   <g id="line2d_4">
    <path d="M 127.043182 256.388162 
L 171.209177 304.091657 
" clip-path="url(#p0b244b5e96)" style="fill: none; stroke: #2e2e2e; stroke-width: 1.45; stroke-linecap: square"/>
   </g>
   <g id="line2d_5">
    <path d="M 127.043182 256.388162 
L 179.678165 216.360177 
" clip-path="url(#p0b244b5e96)" style="fill: none; stroke: #2e2e2e; stroke-width: 1.45; stroke-linecap: square"/>
   </g>
   <g id="line2d_6">
    <path d="M 179.678165 187.322037 
L 223.84416 235.025533 
" clip-path="url(#p0b244b5e96)" style="fill: none; stroke: #2e2e2e; stroke-width: 1.45; stroke-linecap: square"/>
   </g>
   <g id="line2d_7">
    <path d="M 179.678165 187.322037 
L 179.678165 216.360177 
" clip-path="url(#p0b244b5e96)" style="fill: none; stroke: #2e2e2e; stroke-width: 1.45; stroke-linecap: square"/>
   </g>
   <g id="line2d_8">
    <path d="M 179.678165 216.360177 
L 223.84416 264.063672 
" clip-path="url(#p0b244b5e96)" style="fill: none; stroke: #2e2e2e; stroke-width: 1.45; stroke-linecap: square"/>
   </g>
   <g id="line2d_9">
    <path d="M 171.209177 275.053518 
L 223.84416 235.025533 
" clip-path="url(#p0b244b5e96)" style="fill: none; stroke: #2e2e2e; stroke-width: 1.45; stroke-linecap: square"/>
   </g>
   <g id="line2d_10">
    <path d="M 171.209177 275.053518 
L 171.209177 304.091657 
" clip-path="url(#p0b244b5e96)" style="fill: none; stroke: #2e2e2e; stroke-width: 1.45; stroke-linecap: square"/>
   </g>
   <g id="line2d_11">
    <path d="M 171.209177 304.091657 
L 223.84416 264.063672 
" clip-path="url(#p0b244b5e96)" style="fill: none; stroke: #2e2e2e; stroke-width: 1.45; stroke-linecap: square"/>
   </g>
   <g id="line2d_12">
    <path d="M 223.84416 235.025533 
L 223.84416 264.063672 
" clip-path="url(#p0b244b5e96)" style="fill: none; stroke: #2e2e2e; stroke-width: 1.45; stroke-linecap: square"/>
   </g>
   <g id="line2d_13">
    <path d="M 358.74 227.350023 
L 402.905995 275.053518 
" clip-path="url(#p0b244b5e96)" style="fill: none; stroke: #2e2e2e; stroke-width: 1.45; stroke-linecap: square"/>
   </g>
   <g id="line2d_14">
    <path d="M 358.74 227.350023 
L 411.374983 187.322037 
" clip-path="url(#p0b244b5e96)" style="fill: none; stroke: #2e2e2e; stroke-width: 1.45; stroke-linecap: square"/>
   </g>
   <g id="line2d_15">
    <path d="M 358.74 227.350023 
L 358.74 256.388162 
" clip-path="url(#p0b244b5e96)" style="fill: none; stroke: #2e2e2e; stroke-width: 1.45; stroke-linecap: square"/>
   </g>
   <g id="line2d_16">
    <path d="M 358.74 256.388162 
L 402.905995 304.091657 
" clip-path="url(#p0b244b5e96)" style="fill: none; stroke: #2e2e2e; stroke-width: 1.45; stroke-linecap: square"/>
   </g>
   <g id="line2d_17">
    <path d="M 358.74 256.388162 
L 411.374983 216.360177 
" clip-path="url(#p0b244b5e96)" style="fill: none; stroke: #2e2e2e; stroke-width: 1.45; stroke-linecap: square"/>
   </g>
   <g id="line2d_18">
    <path d="M 411.374983 187.322037 
L 455.540978 235.025533 
" clip-path="url(#p0b244b5e96)" style="fill: none; stroke: #2e2e2e; stroke-width: 1.45; stroke-linecap: square"/>
   </g>
   <g id="line2d_19">
    <path d="M 411.374983 187.322037 
L 411.374983 216.360177 
" clip-path="url(#p0b244b5e96)" style="fill: none; stroke: #2e2e2e; stroke-width: 1.45; stroke-linecap: square"/>
   </g>
   <g id="line2d_20">
    <path d="M 411.374983 216.360177 
L 455.540978 264.063672 
" clip-path="url(#p0b244b5e96)" style="fill: none; stroke: #2e2e2e; stroke-width: 1.45; stroke-linecap: square"/>
   </g>
   <g id="line2d_21">
    <path d="M 402.905995 275.053518 
L 455.540978 235.025533 
" clip-path="url(#p0b244b5e96)" style="fill: none; stroke: #2e2e2e; stroke-width: 1.45; stroke-linecap: square"/>
   </g>
   <g id="line2d_22">
    <path d="M 402.905995 275.053518 
L 402.905995 304.091657 
" clip-path="url(#p0b244b5e96)" style="fill: none; stroke: #2e2e2e; stroke-width: 1.45; stroke-linecap: square"/>
   </g>
   <g id="line2d_23">
    <path d="M 402.905995 304.091657 
L 455.540978 264.063672 
" clip-path="url(#p0b244b5e96)" style="fill: none; stroke: #2e2e2e; stroke-width: 1.45; stroke-linecap: square"/>
   </g>
   <g id="line2d_24">
    <path d="M 455.540978 235.025533 
L 455.540978 264.063672 
" clip-path="url(#p0b244b5e96)" style="fill: none; stroke: #2e2e2e; stroke-width: 1.45; stroke-linecap: square"/>
   </g>
   <g id="line2d_25">
    <path d="M 590.436818 227.350023 
L 634.602813 275.053518 
" clip-path="url(#p0b244b5e96)" style="fill: none; stroke: #2e2e2e; stroke-width: 1.45; stroke-linecap: square"/>
   </g>
   <g id="line2d_26">
    <path d="M 590.436818 227.350023 
L 643.071802 187.322037 
" clip-path="url(#p0b244b5e96)" style="fill: none; stroke: #2e2e2e; stroke-width: 1.45; stroke-linecap: square"/>
   </g>
   <g id="line2d_27">
    <path d="M 590.436818 227.350023 
L 590.436818 256.388162 
" clip-path="url(#p0b244b5e96)" style="fill: none; stroke: #2e2e2e; stroke-width: 1.45; stroke-linecap: square"/>
   </g>
   <g id="line2d_28">
    <path d="M 590.436818 256.388162 
L 634.602813 304.091657 
" clip-path="url(#p0b244b5e96)" style="fill: none; stroke: #2e2e2e; stroke-width: 1.45; stroke-linecap: square"/>
   </g>
   <g id="line2d_29">
    <path d="M 590.436818 256.388162 
L 643.071802 216.360177 
" clip-path="url(#p0b244b5e96)" style="fill: none; stroke: #2e2e2e; stroke-width: 1.45; stroke-linecap: square"/>
   </g>
   <g id="line2d_30">
    <path d="M 643.071802 187.322037 
L 687.237797 235.025533 
" clip-path="url(#p0b244b5e96)" style="fill: none; stroke: #2e2e2e; stroke-width: 1.45; stroke-linecap: square"/>
   </g>
   <g id="line2d_31">
    <path d="M 643.071802 187.322037 
L 643.071802 216.360177 
" clip-path="url(#p0b244b5e96)" style="fill: none; stroke: #2e2e2e; stroke-width: 1.45; stroke-linecap: square"/>
   </g>
   <g id="line2d_32">
    <path d="M 643.071802 216.360177 
L 687.237797 264.063672 
" clip-path="url(#p0b244b5e96)" style="fill: none; stroke: #2e2e2e; stroke-width: 1.45; stroke-linecap: square"/>
   </g>
   <g id="line2d_33">
    <path d="M 634.602813 275.053518 
L 687.237797 235.025533 
" clip-path="url(#p0b244b5e96)" style="fill: none; stroke: #2e2e2e; stroke-width: 1.45; stroke-linecap: square"/>
   </g>
   <g id="line2d_34">
    <path d="M 634.602813 275.053518 
L 634.602813 304.091657 
" clip-path="url(#p0b244b5e96)" style="fill: none; stroke: #2e2e2e; stroke-width: 1.45; stroke-linecap: square"/>
   </g>
   <g id="line2d_35">
    <path d="M 634.602813 304.091657 
L 687.237797 264.063672 
" clip-path="url(#p0b244b5e96)" style="fill: none; stroke: #2e2e2e; stroke-width: 1.45; stroke-linecap: square"/>
   </g>
   <g id="line2d_36">
    <path d="M 687.237797 235.025533 
L 687.237797 264.063672 
" clip-path="url(#p0b244b5e96)" style="fill: none; stroke: #2e2e2e; stroke-width: 1.45; stroke-linecap: square"/>
   </g>
   <g id="patch_2">
    <path d="M 128.404499 228.820376 
Q 149.126258 251.201856 168.176974 271.778449 
" style="fill: none; stroke: #000000; stroke-width: 2.2; stroke-linecap: round"/>
    <path d="M 166.427084 265.76697 
L 168.176974 271.778449 
L 162.317857 269.571474 
z
" style="fill: #1f77b4; stroke: #000000; stroke-width: 2.2; stroke-linecap: round"/>
   </g>
   <g id="text_1">
    <!-- $\mathbf{a}_1$ -->
    <g transform="translate(146.521998 257.156964) scale(0.1 -0.1)">
     <defs>
      <path id="DejaVuSans-Bold-61" d="M 2106 1575 
Q 1756 1575 1579 1456 
Q 1403 1338 1403 1106 
Q 1403 894 1545 773 
Q 1688 653 1941 653 
Q 2256 653 2472 879 
Q 2688 1106 2688 1447 
L 2688 1575 
L 2106 1575 
z
M 3816 1997 
L 3816 0 
L 2688 0 
L 2688 519 
Q 2463 200 2181 54 
Q 1900 -91 1497 -91 
Q 953 -91 614 226 
Q 275 544 275 1050 
Q 275 1666 698 1953 
Q 1122 2241 2028 2241 
L 2688 2241 
L 2688 2328 
Q 2688 2594 2478 2717 
Q 2269 2841 1825 2841 
Q 1466 2841 1156 2769 
Q 847 2697 581 2553 
L 581 3406 
Q 941 3494 1303 3539 
Q 1666 3584 2028 3584 
Q 2975 3584 3395 3211 
Q 3816 2838 3816 1997 
z
" transform="scale(0.015625)"/>
      <path id="DejaVuSans-31" d="M 794 531 
L 1825 531 
L 1825 4091 
L 703 3866 
L 703 4441 
L 1819 4666 
L 2450 4666 
L 2450 531 
L 3481 531 
L 3481 0 
L 794 0 
L 794 531 
z
" transform="scale(0.015625)"/>
     </defs>
     <use xlink:href="#DejaVuSans-Bold-61"/>
     <use xlink:href="#DejaVuSans-31" transform="translate(68.4375 -16.40625) scale(0.7)"/>
    </g>
   </g>
   <g id="patch_3">
    <path d="M 128.633411 226.140681 
Q 153.359772 207.336716 176.128287 190.021658 
" style="fill: none; stroke: #000000; stroke-width: 2.2; stroke-linecap: round"/>
    <path d="M 169.975901 191.182751 
L 176.128287 190.021658 
L 173.36573 195.640223 
z
" style="fill: #1f77b4; stroke: #000000; stroke-width: 2.2; stroke-linecap: round"/>
   </g>
   <g id="text_2">
    <!-- $\mathbf{a}_2$ -->
    <g transform="translate(144.364855 206.100632) scale(0.1 -0.1)">
     <defs>
      <path id="DejaVuSans-32" d="M 1228 531 
L 3431 531 
L 3431 0 
L 469 0 
L 469 531 
Q 828 903 1448 1529 
Q 2069 2156 2228 2338 
Q 2531 2678 2651 2914 
Q 2772 3150 2772 3378 
Q 2772 3750 2511 3984 
Q 2250 4219 1831 4219 
Q 1534 4219 1204 4116 
Q 875 4013 500 3803 
L 500 4441 
Q 881 4594 1212 4672 
Q 1544 4750 1819 4750 
Q 2544 4750 2975 4387 
Q 3406 4025 3406 3419 
Q 3406 3131 3298 2873 
Q 3191 2616 2906 2266 
Q 2828 2175 2409 1742 
Q 1991 1309 1228 531 
z
" transform="scale(0.015625)"/>
     </defs>
     <use xlink:href="#DejaVuSans-Bold-61"/>
     <use xlink:href="#DejaVuSans-32" transform="translate(68.4375 -16.40625) scale(0.7)"/>
    </g>
   </g>
   <g id="patch_4">
    <path d="M 127.043182 229.352775 
Q 127.043182 241.868852 127.043182 251.925255 
" style="fill: none; stroke: #000000; stroke-width: 2.2; stroke-linecap: round"/>
    <path d="M 129.843182 246.325255 
L 127.043182 251.925255 
L 124.243182 246.325255 
z
" style="fill: #1f77b4; stroke: #000000; stroke-width: 2.2; stroke-linecap: round"/>
   </g>
   <g id="text_3">
    <!-- $\mathbf{a}_3$ -->
    <g transform="translate(124.439 241.432649) scale(0.1 -0.1)">
     <defs>
      <path id="DejaVuSans-33" d="M 2597 2516 
Q 3050 2419 3304 2112 
Q 3559 1806 3559 1356 
Q 3559 666 3084 287 
Q 2609 -91 1734 -91 
Q 1441 -91 1130 -33 
Q 819 25 488 141 
L 488 750 
Q 750 597 1062 519 
Q 1375 441 1716 441 
Q 2309 441 2620 675 
Q 2931 909 2931 1356 
Q 2931 1769 2642 2001 
Q 2353 2234 1838 2234 
L 1294 2234 
L 1294 2753 
L 1863 2753 
Q 2328 2753 2575 2939 
Q 2822 3125 2822 3475 
Q 2822 3834 2567 4026 
Q 2313 4219 1838 4219 
Q 1578 4219 1281 4162 
Q 984 4106 628 3988 
L 628 4550 
Q 988 4650 1302 4700 
Q 1616 4750 1894 4750 
Q 2613 4750 3031 4423 
Q 3450 4097 3450 3541 
Q 3450 3153 3228 2886 
Q 3006 2619 2597 2516 
z
" transform="scale(0.015625)"/>
     </defs>
     <use xlink:href="#DejaVuSans-Bold-61"/>
     <use xlink:href="#DejaVuSans-33" transform="translate(68.4375 -16.40625) scale(0.7)"/>
    </g>
   </g>
   <g id="text_4">
    <!-- cubico semplice (SC) -->
    <g transform="translate(65.641971 125.483318) scale(0.105 -0.105)">
     <defs>
      <path id="DejaVuSans-Bold-63" d="M 3366 3391 
L 3366 2478 
Q 3138 2634 2908 2709 
Q 2678 2784 2431 2784 
Q 1963 2784 1702 2511 
Q 1441 2238 1441 1747 
Q 1441 1256 1702 982 
Q 1963 709 2431 709 
Q 2694 709 2930 787 
Q 3166 866 3366 1019 
L 3366 103 
Q 3103 6 2833 -42 
Q 2563 -91 2291 -91 
Q 1344 -91 809 395 
Q 275 881 275 1747 
Q 275 2613 809 3098 
Q 1344 3584 2291 3584 
Q 2566 3584 2833 3536 
Q 3100 3488 3366 3391 
z
" transform="scale(0.015625)"/>
      <path id="DejaVuSans-Bold-75" d="M 500 1363 
L 500 3500 
L 1625 3500 
L 1625 3150 
Q 1625 2866 1622 2436 
Q 1619 2006 1619 1863 
Q 1619 1441 1641 1255 
Q 1663 1069 1716 984 
Q 1784 875 1895 815 
Q 2006 756 2150 756 
Q 2500 756 2700 1025 
Q 2900 1294 2900 1772 
L 2900 3500 
L 4019 3500 
L 4019 0 
L 2900 0 
L 2900 506 
Q 2647 200 2364 54 
Q 2081 -91 1741 -91 
Q 1134 -91 817 281 
Q 500 653 500 1363 
z
" transform="scale(0.015625)"/>
      <path id="DejaVuSans-Bold-62" d="M 2400 722 
Q 2759 722 2948 984 
Q 3138 1247 3138 1747 
Q 3138 2247 2948 2509 
Q 2759 2772 2400 2772 
Q 2041 2772 1848 2508 
Q 1656 2244 1656 1747 
Q 1656 1250 1848 986 
Q 2041 722 2400 722 
z
M 1656 2988 
Q 1888 3294 2169 3439 
Q 2450 3584 2816 3584 
Q 3463 3584 3878 3070 
Q 4294 2556 4294 1747 
Q 4294 938 3878 423 
Q 3463 -91 2816 -91 
Q 2450 -91 2169 54 
Q 1888 200 1656 506 
L 1656 0 
L 538 0 
L 538 4863 
L 1656 4863 
L 1656 2988 
z
" transform="scale(0.015625)"/>
      <path id="DejaVuSans-Bold-69" d="M 538 3500 
L 1656 3500 
L 1656 0 
L 538 0 
L 538 3500 
z
M 538 4863 
L 1656 4863 
L 1656 3950 
L 538 3950 
L 538 4863 
z
" transform="scale(0.015625)"/>
      <path id="DejaVuSans-Bold-6f" d="M 2203 2784 
Q 1831 2784 1636 2517 
Q 1441 2250 1441 1747 
Q 1441 1244 1636 976 
Q 1831 709 2203 709 
Q 2569 709 2762 976 
Q 2956 1244 2956 1747 
Q 2956 2250 2762 2517 
Q 2569 2784 2203 2784 
z
M 2203 3584 
Q 3106 3584 3614 3096 
Q 4122 2609 4122 1747 
Q 4122 884 3614 396 
Q 3106 -91 2203 -91 
Q 1297 -91 786 396 
Q 275 884 275 1747 
Q 275 2609 786 3096 
Q 1297 3584 2203 3584 
z
" transform="scale(0.015625)"/>
      <path id="DejaVuSans-Bold-20" transform="scale(0.015625)"/>
      <path id="DejaVuSans-Bold-73" d="M 3272 3391 
L 3272 2541 
Q 2913 2691 2578 2766 
Q 2244 2841 1947 2841 
Q 1628 2841 1473 2761 
Q 1319 2681 1319 2516 
Q 1319 2381 1436 2309 
Q 1553 2238 1856 2203 
L 2053 2175 
Q 2913 2066 3209 1816 
Q 3506 1566 3506 1031 
Q 3506 472 3093 190 
Q 2681 -91 1863 -91 
Q 1516 -91 1145 -36 
Q 775 19 384 128 
L 384 978 
Q 719 816 1070 734 
Q 1422 653 1784 653 
Q 2113 653 2278 743 
Q 2444 834 2444 1013 
Q 2444 1163 2330 1236 
Q 2216 1309 1875 1350 
L 1678 1375 
Q 931 1469 631 1722 
Q 331 1975 331 2491 
Q 331 3047 712 3315 
Q 1094 3584 1881 3584 
Q 2191 3584 2531 3537 
Q 2872 3491 3272 3391 
z
" transform="scale(0.015625)"/>
      <path id="DejaVuSans-Bold-65" d="M 4031 1759 
L 4031 1441 
L 1416 1441 
Q 1456 1047 1700 850 
Q 1944 653 2381 653 
Q 2734 653 3104 758 
Q 3475 863 3866 1075 
L 3866 213 
Q 3469 63 3072 -14 
Q 2675 -91 2278 -91 
Q 1328 -91 801 392 
Q 275 875 275 1747 
Q 275 2603 792 3093 
Q 1309 3584 2216 3584 
Q 3041 3584 3536 3087 
Q 4031 2591 4031 1759 
z
M 2881 2131 
Q 2881 2450 2695 2645 
Q 2509 2841 2209 2841 
Q 1884 2841 1681 2658 
Q 1478 2475 1428 2131 
L 2881 2131 
z
" transform="scale(0.015625)"/>
      <path id="DejaVuSans-Bold-6d" d="M 3781 2919 
Q 3994 3244 4286 3414 
Q 4578 3584 4928 3584 
Q 5531 3584 5847 3212 
Q 6163 2841 6163 2131 
L 6163 0 
L 5038 0 
L 5038 1825 
Q 5041 1866 5042 1909 
Q 5044 1953 5044 2034 
Q 5044 2406 4934 2573 
Q 4825 2741 4581 2741 
Q 4263 2741 4089 2478 
Q 3916 2216 3909 1719 
L 3909 0 
L 2784 0 
L 2784 1825 
Q 2784 2406 2684 2573 
Q 2584 2741 2328 2741 
Q 2006 2741 1831 2477 
Q 1656 2213 1656 1722 
L 1656 0 
L 531 0 
L 531 3500 
L 1656 3500 
L 1656 2988 
Q 1863 3284 2130 3434 
Q 2397 3584 2719 3584 
Q 3081 3584 3359 3409 
Q 3638 3234 3781 2919 
z
" transform="scale(0.015625)"/>
      <path id="DejaVuSans-Bold-70" d="M 1656 506 
L 1656 -1331 
L 538 -1331 
L 538 3500 
L 1656 3500 
L 1656 2988 
Q 1888 3294 2169 3439 
Q 2450 3584 2816 3584 
Q 3463 3584 3878 3070 
Q 4294 2556 4294 1747 
Q 4294 938 3878 423 
Q 3463 -91 2816 -91 
Q 2450 -91 2169 54 
Q 1888 200 1656 506 
z
M 2400 2772 
Q 2041 2772 1848 2508 
Q 1656 2244 1656 1747 
Q 1656 1250 1848 986 
Q 2041 722 2400 722 
Q 2759 722 2948 984 
Q 3138 1247 3138 1747 
Q 3138 2247 2948 2509 
Q 2759 2772 2400 2772 
z
" transform="scale(0.015625)"/>
      <path id="DejaVuSans-Bold-6c" d="M 538 4863 
L 1656 4863 
L 1656 0 
L 538 0 
L 538 4863 
z
" transform="scale(0.015625)"/>
      <path id="DejaVuSans-Bold-28" d="M 2413 -844 
L 1484 -844 
Q 1006 -72 778 623 
Q 550 1319 550 2003 
Q 550 2688 779 3389 
Q 1009 4091 1484 4856 
L 2413 4856 
Q 2013 4116 1813 3408 
Q 1613 2700 1613 2009 
Q 1613 1319 1811 609 
Q 2009 -100 2413 -844 
z
" transform="scale(0.015625)"/>
      <path id="DejaVuSans-Bold-53" d="M 3834 4519 
L 3834 3531 
Q 3450 3703 3084 3790 
Q 2719 3878 2394 3878 
Q 1963 3878 1756 3759 
Q 1550 3641 1550 3391 
Q 1550 3203 1689 3098 
Q 1828 2994 2194 2919 
L 2706 2816 
Q 3484 2659 3812 2340 
Q 4141 2022 4141 1434 
Q 4141 663 3683 286 
Q 3225 -91 2284 -91 
Q 1841 -91 1394 -6 
Q 947 78 500 244 
L 500 1259 
Q 947 1022 1364 901 
Q 1781 781 2169 781 
Q 2563 781 2772 912 
Q 2981 1044 2981 1288 
Q 2981 1506 2839 1625 
Q 2697 1744 2272 1838 
L 1806 1941 
Q 1106 2091 782 2419 
Q 459 2747 459 3303 
Q 459 4000 909 4375 
Q 1359 4750 2203 4750 
Q 2588 4750 2994 4692 
Q 3400 4634 3834 4519 
z
" transform="scale(0.015625)"/>
      <path id="DejaVuSans-Bold-43" d="M 4288 256 
Q 3956 84 3597 -3 
Q 3238 -91 2847 -91 
Q 1681 -91 1000 561 
Q 319 1213 319 2328 
Q 319 3447 1000 4098 
Q 1681 4750 2847 4750 
Q 3238 4750 3597 4662 
Q 3956 4575 4288 4403 
L 4288 3438 
Q 3953 3666 3628 3772 
Q 3303 3878 2944 3878 
Q 2300 3878 1931 3465 
Q 1563 3053 1563 2328 
Q 1563 1606 1931 1193 
Q 2300 781 2944 781 
Q 3303 781 3628 887 
Q 3953 994 4288 1222 
L 4288 256 
z
" transform="scale(0.015625)"/>
      <path id="DejaVuSans-Bold-29" d="M 513 -844 
Q 913 -100 1113 609 
Q 1313 1319 1313 2009 
Q 1313 2700 1113 3408 
Q 913 4116 513 4856 
L 1441 4856 
Q 1916 4091 2145 3389 
Q 2375 2688 2375 2003 
Q 2375 1319 2147 623 
Q 1919 -72 1441 -844 
L 513 -844 
z
" transform="scale(0.015625)"/>
     </defs>
     <use xlink:href="#DejaVuSans-Bold-63"/>
     <use xlink:href="#DejaVuSans-Bold-75" transform="translate(59.277344 0)"/>
     <use xlink:href="#DejaVuSans-Bold-62" transform="translate(130.46875 0)"/>
     <use xlink:href="#DejaVuSans-Bold-69" transform="translate(202.050781 0)"/>
     <use xlink:href="#DejaVuSans-Bold-63" transform="translate(236.328125 0)"/>
     <use xlink:href="#DejaVuSans-Bold-6f" transform="translate(295.605469 0)"/>
     <use xlink:href="#DejaVuSans-Bold-20" transform="translate(364.306641 0)"/>
     <use xlink:href="#DejaVuSans-Bold-73" transform="translate(399.121094 0)"/>
     <use xlink:href="#DejaVuSans-Bold-65" transform="translate(458.642578 0)"/>
     <use xlink:href="#DejaVuSans-Bold-6d" transform="translate(526.464844 0)"/>
     <use xlink:href="#DejaVuSans-Bold-70" transform="translate(630.664062 0)"/>
     <use xlink:href="#DejaVuSans-Bold-6c" transform="translate(702.246094 0)"/>
     <use xlink:href="#DejaVuSans-Bold-69" transform="translate(736.523438 0)"/>
     <use xlink:href="#DejaVuSans-Bold-63" transform="translate(770.800781 0)"/>
     <use xlink:href="#DejaVuSans-Bold-65" transform="translate(830.078125 0)"/>
     <use xlink:href="#DejaVuSans-Bold-20" transform="translate(897.900391 0)"/>
     <use xlink:href="#DejaVuSans-Bold-28" transform="translate(932.714844 0)"/>
     <use xlink:href="#DejaVuSans-Bold-53" transform="translate(978.417969 0)"/>
     <use xlink:href="#DejaVuSans-Bold-43" transform="translate(1050.439453 0)"/>
     <use xlink:href="#DejaVuSans-Bold-29" transform="translate(1123.828125 0)"/>
    </g>
   </g>
   <g id="patch_5">
    <path d="M 409.09317 245.275918 
Q 431.340434 240.366256 451.185817 235.986656 
" style="fill: none; stroke: #000000; stroke-width: 2.2; stroke-linecap: round"/>
    <path d="M 445.113994 234.45925 
L 451.185817 235.986656 
L 446.320799 239.927671 
z
" style="fill: #1f77b4; stroke: #000000; stroke-width: 2.2; stroke-linecap: round"/>
   </g>
   <g id="text_5">
    <!-- $\mathbf{a}_1$ -->
    <g transform="translate(428.736552 246.321383) scale(0.1 -0.1)">
     <use xlink:href="#DejaVuSans-Bold-61"/>
     <use xlink:href="#DejaVuSans-31" transform="translate(68.4375 -16.40625) scale(0.7)"/>
    </g>
   </g>
   <g id="patch_6">
    <path d="M 407.426338 243.725804 
Q 409.257744 231.033458 410.737876 220.775574 
" style="fill: none; stroke: #000000; stroke-width: 2.2; stroke-linecap: round"/>
    <path d="M 407.166824 225.918295 
L 410.737876 220.775574 
L 412.709422 226.718048 
z
" style="fill: #1f77b4; stroke: #000000; stroke-width: 2.2; stroke-linecap: round"/>
   </g>
   <g id="text_6">
    <!-- $\mathbf{a}_2$ -->
    <g transform="translate(400.261918 229.798114) scale(0.1 -0.1)">
     <use xlink:href="#DejaVuSans-Bold-61"/>
     <use xlink:href="#DejaVuSans-32" transform="translate(68.4375 -16.40625) scale(0.7)"/>
    </g>
   </g>
   <g id="patch_7">
    <path d="M 406.996014 247.698858 
Q 405.023274 274.898815 403.22846 299.645541 
" style="fill: none; stroke: #000000; stroke-width: 2.2; stroke-linecap: round"/>
    <path d="M 406.426214 294.262756 
L 403.22846 299.645541 
L 400.840884 293.857667 
z
" style="fill: #1f77b4; stroke: #000000; stroke-width: 2.2; stroke-linecap: round"/>
   </g>
   <g id="text_7">
    <!-- $\mathbf{a}_3$ -->
    <g transform="translate(402.41906 274.462809) scale(0.1 -0.1)">
     <use xlink:href="#DejaVuSans-Bold-61"/>
     <use xlink:href="#DejaVuSans-33" transform="translate(68.4375 -16.40625) scale(0.7)"/>
    </g>
   </g>
   <g id="text_8">
    <!-- cubico a corpo centrato (BCC) -->
    <g transform="translate(270.412852 125.483318) scale(0.105 -0.105)">
     <defs>
      <path id="DejaVuSans-Bold-72" d="M 3138 2547 
Q 2991 2616 2845 2648 
Q 2700 2681 2553 2681 
Q 2122 2681 1889 2404 
Q 1656 2128 1656 1613 
L 1656 0 
L 538 0 
L 538 3500 
L 1656 3500 
L 1656 2925 
Q 1872 3269 2151 3426 
Q 2431 3584 2822 3584 
Q 2878 3584 2943 3579 
Q 3009 3575 3134 3559 
L 3138 2547 
z
" transform="scale(0.015625)"/>
      <path id="DejaVuSans-Bold-6e" d="M 4056 2131 
L 4056 0 
L 2931 0 
L 2931 347 
L 2931 1631 
Q 2931 2084 2911 2256 
Q 2891 2428 2841 2509 
Q 2775 2619 2662 2680 
Q 2550 2741 2406 2741 
Q 2056 2741 1856 2470 
Q 1656 2200 1656 1722 
L 1656 0 
L 538 0 
L 538 3500 
L 1656 3500 
L 1656 2988 
Q 1909 3294 2193 3439 
Q 2478 3584 2822 3584 
Q 3428 3584 3742 3212 
Q 4056 2841 4056 2131 
z
" transform="scale(0.015625)"/>
      <path id="DejaVuSans-Bold-74" d="M 1759 4494 
L 1759 3500 
L 2913 3500 
L 2913 2700 
L 1759 2700 
L 1759 1216 
Q 1759 972 1856 886 
Q 1953 800 2241 800 
L 2816 800 
L 2816 0 
L 1856 0 
Q 1194 0 917 276 
Q 641 553 641 1216 
L 641 2700 
L 84 2700 
L 84 3500 
L 641 3500 
L 641 4494 
L 1759 4494 
z
" transform="scale(0.015625)"/>
      <path id="DejaVuSans-Bold-42" d="M 2456 2859 
Q 2741 2859 2887 2984 
Q 3034 3109 3034 3353 
Q 3034 3594 2887 3720 
Q 2741 3847 2456 3847 
L 1791 3847 
L 1791 2859 
L 2456 2859 
z
M 2497 819 
Q 2859 819 3042 972 
Q 3225 1125 3225 1434 
Q 3225 1738 3044 1889 
Q 2863 2041 2497 2041 
L 1791 2041 
L 1791 819 
L 2497 819 
z
M 3616 2497 
Q 4003 2384 4215 2081 
Q 4428 1778 4428 1338 
Q 4428 663 3972 331 
Q 3516 0 2584 0 
L 588 0 
L 588 4666 
L 2394 4666 
Q 3366 4666 3802 4372 
Q 4238 4078 4238 3431 
Q 4238 3091 4078 2852 
Q 3919 2613 3616 2497 
z
" transform="scale(0.015625)"/>
     </defs>
     <use xlink:href="#DejaVuSans-Bold-63"/>
     <use xlink:href="#DejaVuSans-Bold-75" transform="translate(59.277344 0)"/>
     <use xlink:href="#DejaVuSans-Bold-62" transform="translate(130.46875 0)"/>
     <use xlink:href="#DejaVuSans-Bold-69" transform="translate(202.050781 0)"/>
     <use xlink:href="#DejaVuSans-Bold-63" transform="translate(236.328125 0)"/>
     <use xlink:href="#DejaVuSans-Bold-6f" transform="translate(295.605469 0)"/>
     <use xlink:href="#DejaVuSans-Bold-20" transform="translate(364.306641 0)"/>
     <use xlink:href="#DejaVuSans-Bold-61" transform="translate(399.121094 0)"/>
     <use xlink:href="#DejaVuSans-Bold-20" transform="translate(466.601562 0)"/>
     <use xlink:href="#DejaVuSans-Bold-63" transform="translate(501.416016 0)"/>
     <use xlink:href="#DejaVuSans-Bold-6f" transform="translate(560.693359 0)"/>
     <use xlink:href="#DejaVuSans-Bold-72" transform="translate(629.394531 0)"/>
     <use xlink:href="#DejaVuSans-Bold-70" transform="translate(678.710938 0)"/>
     <use xlink:href="#DejaVuSans-Bold-6f" transform="translate(750.292969 0)"/>
     <use xlink:href="#DejaVuSans-Bold-20" transform="translate(818.994141 0)"/>
     <use xlink:href="#DejaVuSans-Bold-63" transform="translate(853.808594 0)"/>
     <use xlink:href="#DejaVuSans-Bold-65" transform="translate(913.085938 0)"/>
     <use xlink:href="#DejaVuSans-Bold-6e" transform="translate(980.908203 0)"/>
     <use xlink:href="#DejaVuSans-Bold-74" transform="translate(1052.099609 0)"/>
     <use xlink:href="#DejaVuSans-Bold-72" transform="translate(1099.902344 0)"/>
     <use xlink:href="#DejaVuSans-Bold-61" transform="translate(1149.21875 0)"/>
     <use xlink:href="#DejaVuSans-Bold-74" transform="translate(1216.699219 0)"/>
     <use xlink:href="#DejaVuSans-Bold-6f" transform="translate(1264.501953 0)"/>
     <use xlink:href="#DejaVuSans-Bold-20" transform="translate(1333.203125 0)"/>
     <use xlink:href="#DejaVuSans-Bold-28" transform="translate(1368.017578 0)"/>
     <use xlink:href="#DejaVuSans-Bold-42" transform="translate(1413.720703 0)"/>
     <use xlink:href="#DejaVuSans-Bold-43" transform="translate(1489.941406 0)"/>
     <use xlink:href="#DejaVuSans-Bold-43" transform="translate(1563.330078 0)"/>
     <use xlink:href="#DejaVuSans-Bold-29" transform="translate(1636.71875 0)"/>
    </g>
   </g>
   <g id="patch_8">
    <path d="M 592.393282 226.941526 
Q 603.593943 224.6029 612.386851 222.766997 
" style="fill: none; stroke: #000000; stroke-width: 2.2; stroke-linecap: round"/>
    <path d="M 606.332784 221.170666 
L 612.386851 222.766997 
L 607.477346 226.652452 
z
" style="fill: #1f77b4; stroke: #000000; stroke-width: 2.2; stroke-linecap: round"/>
   </g>
   <g id="text_9">
    <!-- $\mathbf{a}_1$ -->
    <g transform="translate(600.991382 230.557754) scale(0.1 -0.1)">
     <use xlink:href="#DejaVuSans-Bold-61"/>
     <use xlink:href="#DejaVuSans-31" transform="translate(68.4375 -16.40625) scale(0.7)"/>
    </g>
   </g>
   <g id="patch_9">
    <path d="M 591.435567 229.085422 
Q 601.479025 246.536662 610.295581 261.85607 
" style="fill: none; stroke: #000000; stroke-width: 2.2; stroke-linecap: round"/>
    <path d="M 609.92906 255.605817 
L 610.295581 261.85607 
L 605.075466 258.399135 
z
" style="fill: #1f77b4; stroke: #000000; stroke-width: 2.2; stroke-linecap: round"/>
   </g>
   <g id="text_10">
    <!-- $\mathbf{a}_2$ -->
    <g transform="translate(592.482499 245.300034) scale(0.1 -0.1)">
     <use xlink:href="#DejaVuSans-Bold-61"/>
     <use xlink:href="#DejaVuSans-32" transform="translate(68.4375 -16.40625) scale(0.7)"/>
    </g>
   </g>
   <g id="patch_10">
    <path d="M 592.430857 227.508133 
Q 614.638485 229.269013 634.394134 230.835471 
" style="fill: none; stroke: #000000; stroke-width: 2.2; stroke-linecap: round"/>
    <path d="M 629.032977 227.601588 
L 634.394134 230.835471 
L 628.590333 233.184066 
z
" style="fill: #1f77b4; stroke: #000000; stroke-width: 2.2; stroke-linecap: round"/>
   </g>
   <g id="text_11">
    <!-- $\mathbf{a}_3$ -->
    <g transform="translate(612.032881 228.832457) scale(0.1 -0.1)">
     <use xlink:href="#DejaVuSans-Bold-61"/>
     <use xlink:href="#DejaVuSans-33" transform="translate(68.4375 -16.40625) scale(0.7)"/>
    </g>
   </g>
   <g id="text_12">
    <!-- cubico a facce centrate (FCC) -->
    <g transform="translate(503.631349 125.483318) scale(0.105 -0.105)">
     <defs>
      <path id="DejaVuSans-Bold-66" d="M 2841 4863 
L 2841 4128 
L 2222 4128 
Q 1984 4128 1890 4042 
Q 1797 3956 1797 3744 
L 1797 3500 
L 2753 3500 
L 2753 2700 
L 1797 2700 
L 1797 0 
L 678 0 
L 678 2700 
L 122 2700 
L 122 3500 
L 678 3500 
L 678 3744 
Q 678 4316 997 4589 
Q 1316 4863 1984 4863 
L 2841 4863 
z
" transform="scale(0.015625)"/>
      <path id="DejaVuSans-Bold-46" d="M 588 4666 
L 3834 4666 
L 3834 3756 
L 1791 3756 
L 1791 2888 
L 3713 2888 
L 3713 1978 
L 1791 1978 
L 1791 0 
L 588 0 
L 588 4666 
z
" transform="scale(0.015625)"/>
     </defs>
     <use xlink:href="#DejaVuSans-Bold-63"/>
     <use xlink:href="#DejaVuSans-Bold-75" transform="translate(59.277344 0)"/>
     <use xlink:href="#DejaVuSans-Bold-62" transform="translate(130.46875 0)"/>
     <use xlink:href="#DejaVuSans-Bold-69" transform="translate(202.050781 0)"/>
     <use xlink:href="#DejaVuSans-Bold-63" transform="translate(236.328125 0)"/>
     <use xlink:href="#DejaVuSans-Bold-6f" transform="translate(295.605469 0)"/>
     <use xlink:href="#DejaVuSans-Bold-20" transform="translate(364.306641 0)"/>
     <use xlink:href="#DejaVuSans-Bold-61" transform="translate(399.121094 0)"/>
     <use xlink:href="#DejaVuSans-Bold-20" transform="translate(466.601562 0)"/>
     <use xlink:href="#DejaVuSans-Bold-66" transform="translate(501.416016 0)"/>
     <use xlink:href="#DejaVuSans-Bold-61" transform="translate(544.921875 0)"/>
     <use xlink:href="#DejaVuSans-Bold-63" transform="translate(612.402344 0)"/>
     <use xlink:href="#DejaVuSans-Bold-63" transform="translate(671.679688 0)"/>
     <use xlink:href="#DejaVuSans-Bold-65" transform="translate(730.957031 0)"/>
     <use xlink:href="#DejaVuSans-Bold-20" transform="translate(798.779297 0)"/>
     <use xlink:href="#DejaVuSans-Bold-63" transform="translate(833.59375 0)"/>
     <use xlink:href="#DejaVuSans-Bold-65" transform="translate(892.871094 0)"/>
     <use xlink:href="#DejaVuSans-Bold-6e" transform="translate(960.693359 0)"/>
     <use xlink:href="#DejaVuSans-Bold-74" transform="translate(1031.884766 0)"/>
     <use xlink:href="#DejaVuSans-Bold-72" transform="translate(1079.6875 0)"/>
     <use xlink:href="#DejaVuSans-Bold-61" transform="translate(1129.003906 0)"/>
     <use xlink:href="#DejaVuSans-Bold-74" transform="translate(1196.484375 0)"/>
     <use xlink:href="#DejaVuSans-Bold-65" transform="translate(1244.287109 0)"/>
     <use xlink:href="#DejaVuSans-Bold-20" transform="translate(1312.109375 0)"/>
     <use xlink:href="#DejaVuSans-Bold-28" transform="translate(1346.923828 0)"/>
     <use xlink:href="#DejaVuSans-Bold-46" transform="translate(1392.626953 0)"/>
     <use xlink:href="#DejaVuSans-Bold-43" transform="translate(1460.9375 0)"/>
     <use xlink:href="#DejaVuSans-Bold-43" transform="translate(1534.326172 0)"/>
     <use xlink:href="#DejaVuSans-Bold-29" transform="translate(1607.714844 0)"/>
    </g>
   </g>
   <g id="text_13">
    <!-- Le frecce mostrano una possibile base primitiva; la cella cubica è usata solo come riferimento geometrico. -->
    <g transform="translate(105.109297 305.248091) scale(0.095 -0.095)">
     <defs>
      <path id="DejaVuSans-4c" d="M 628 4666 
L 1259 4666 
L 1259 531 
L 3531 531 
L 3531 0 
L 628 0 
L 628 4666 
z
" transform="scale(0.015625)"/>
      <path id="DejaVuSans-65" d="M 3597 1894 
L 3597 1613 
L 953 1613 
Q 991 1019 1311 708 
Q 1631 397 2203 397 
Q 2534 397 2845 478 
Q 3156 559 3463 722 
L 3463 178 
Q 3153 47 2828 -22 
Q 2503 -91 2169 -91 
Q 1331 -91 842 396 
Q 353 884 353 1716 
Q 353 2575 817 3079 
Q 1281 3584 2069 3584 
Q 2775 3584 3186 3129 
Q 3597 2675 3597 1894 
z
M 3022 2063 
Q 3016 2534 2758 2815 
Q 2500 3097 2075 3097 
Q 1594 3097 1305 2825 
Q 1016 2553 972 2059 
L 3022 2063 
z
" transform="scale(0.015625)"/>
      <path id="DejaVuSans-20" transform="scale(0.015625)"/>
      <path id="DejaVuSans-66" d="M 2375 4863 
L 2375 4384 
L 1825 4384 
Q 1516 4384 1395 4259 
Q 1275 4134 1275 3809 
L 1275 3500 
L 2222 3500 
L 2222 3053 
L 1275 3053 
L 1275 0 
L 697 0 
L 697 3053 
L 147 3053 
L 147 3500 
L 697 3500 
L 697 3744 
Q 697 4328 969 4595 
Q 1241 4863 1831 4863 
L 2375 4863 
z
" transform="scale(0.015625)"/>
      <path id="DejaVuSans-72" d="M 2631 2963 
Q 2534 3019 2420 3045 
Q 2306 3072 2169 3072 
Q 1681 3072 1420 2755 
Q 1159 2438 1159 1844 
L 1159 0 
L 581 0 
L 581 3500 
L 1159 3500 
L 1159 2956 
Q 1341 3275 1631 3429 
Q 1922 3584 2338 3584 
Q 2397 3584 2469 3576 
Q 2541 3569 2628 3553 
L 2631 2963 
z
" transform="scale(0.015625)"/>
      <path id="DejaVuSans-63" d="M 3122 3366 
L 3122 2828 
Q 2878 2963 2633 3030 
Q 2388 3097 2138 3097 
Q 1578 3097 1268 2742 
Q 959 2388 959 1747 
Q 959 1106 1268 751 
Q 1578 397 2138 397 
Q 2388 397 2633 464 
Q 2878 531 3122 666 
L 3122 134 
Q 2881 22 2623 -34 
Q 2366 -91 2075 -91 
Q 1284 -91 818 406 
Q 353 903 353 1747 
Q 353 2603 823 3093 
Q 1294 3584 2113 3584 
Q 2378 3584 2631 3529 
Q 2884 3475 3122 3366 
z
" transform="scale(0.015625)"/>
      <path id="DejaVuSans-6d" d="M 3328 2828 
Q 3544 3216 3844 3400 
Q 4144 3584 4550 3584 
Q 5097 3584 5394 3201 
Q 5691 2819 5691 2113 
L 5691 0 
L 5113 0 
L 5113 2094 
Q 5113 2597 4934 2840 
Q 4756 3084 4391 3084 
Q 3944 3084 3684 2787 
Q 3425 2491 3425 1978 
L 3425 0 
L 2847 0 
L 2847 2094 
Q 2847 2600 2669 2842 
Q 2491 3084 2119 3084 
Q 1678 3084 1418 2786 
Q 1159 2488 1159 1978 
L 1159 0 
L 581 0 
L 581 3500 
L 1159 3500 
L 1159 2956 
Q 1356 3278 1631 3431 
Q 1906 3584 2284 3584 
Q 2666 3584 2933 3390 
Q 3200 3197 3328 2828 
z
" transform="scale(0.015625)"/>
      <path id="DejaVuSans-6f" d="M 1959 3097 
Q 1497 3097 1228 2736 
Q 959 2375 959 1747 
Q 959 1119 1226 758 
Q 1494 397 1959 397 
Q 2419 397 2687 759 
Q 2956 1122 2956 1747 
Q 2956 2369 2687 2733 
Q 2419 3097 1959 3097 
z
M 1959 3584 
Q 2709 3584 3137 3096 
Q 3566 2609 3566 1747 
Q 3566 888 3137 398 
Q 2709 -91 1959 -91 
Q 1206 -91 779 398 
Q 353 888 353 1747 
Q 353 2609 779 3096 
Q 1206 3584 1959 3584 
z
" transform="scale(0.015625)"/>
      <path id="DejaVuSans-73" d="M 2834 3397 
L 2834 2853 
Q 2591 2978 2328 3040 
Q 2066 3103 1784 3103 
Q 1356 3103 1142 2972 
Q 928 2841 928 2578 
Q 928 2378 1081 2264 
Q 1234 2150 1697 2047 
L 1894 2003 
Q 2506 1872 2764 1633 
Q 3022 1394 3022 966 
Q 3022 478 2636 193 
Q 2250 -91 1575 -91 
Q 1294 -91 989 -36 
Q 684 19 347 128 
L 347 722 
Q 666 556 975 473 
Q 1284 391 1588 391 
Q 1994 391 2212 530 
Q 2431 669 2431 922 
Q 2431 1156 2273 1281 
Q 2116 1406 1581 1522 
L 1381 1569 
Q 847 1681 609 1914 
Q 372 2147 372 2553 
Q 372 3047 722 3315 
Q 1072 3584 1716 3584 
Q 2034 3584 2315 3537 
Q 2597 3491 2834 3397 
z
" transform="scale(0.015625)"/>
      <path id="DejaVuSans-74" d="M 1172 4494 
L 1172 3500 
L 2356 3500 
L 2356 3053 
L 1172 3053 
L 1172 1153 
Q 1172 725 1289 603 
Q 1406 481 1766 481 
L 2356 481 
L 2356 0 
L 1766 0 
Q 1100 0 847 248 
Q 594 497 594 1153 
L 594 3053 
L 172 3053 
L 172 3500 
L 594 3500 
L 594 4494 
L 1172 4494 
z
" transform="scale(0.015625)"/>
      <path id="DejaVuSans-61" d="M 2194 1759 
Q 1497 1759 1228 1600 
Q 959 1441 959 1056 
Q 959 750 1161 570 
Q 1363 391 1709 391 
Q 2188 391 2477 730 
Q 2766 1069 2766 1631 
L 2766 1759 
L 2194 1759 
z
M 3341 1997 
L 3341 0 
L 2766 0 
L 2766 531 
Q 2569 213 2275 61 
Q 1981 -91 1556 -91 
Q 1019 -91 701 211 
Q 384 513 384 1019 
Q 384 1609 779 1909 
Q 1175 2209 1959 2209 
L 2766 2209 
L 2766 2266 
Q 2766 2663 2505 2880 
Q 2244 3097 1772 3097 
Q 1472 3097 1187 3025 
Q 903 2953 641 2809 
L 641 3341 
Q 956 3463 1253 3523 
Q 1550 3584 1831 3584 
Q 2591 3584 2966 3190 
Q 3341 2797 3341 1997 
z
" transform="scale(0.015625)"/>
      <path id="DejaVuSans-6e" d="M 3513 2113 
L 3513 0 
L 2938 0 
L 2938 2094 
Q 2938 2591 2744 2837 
Q 2550 3084 2163 3084 
Q 1697 3084 1428 2787 
Q 1159 2491 1159 1978 
L 1159 0 
L 581 0 
L 581 3500 
L 1159 3500 
L 1159 2956 
Q 1366 3272 1645 3428 
Q 1925 3584 2291 3584 
Q 2894 3584 3203 3211 
Q 3513 2838 3513 2113 
z
" transform="scale(0.015625)"/>
      <path id="DejaVuSans-75" d="M 544 1381 
L 544 3500 
L 1119 3500 
L 1119 1403 
Q 1119 906 1312 657 
Q 1506 409 1894 409 
Q 2359 409 2629 706 
Q 2900 1003 2900 1516 
L 2900 3500 
L 3475 3500 
L 3475 0 
L 2900 0 
L 2900 538 
Q 2691 219 2414 64 
Q 2138 -91 1772 -91 
Q 1169 -91 856 284 
Q 544 659 544 1381 
z
M 1991 3584 
L 1991 3584 
z
" transform="scale(0.015625)"/>
      <path id="DejaVuSans-70" d="M 1159 525 
L 1159 -1331 
L 581 -1331 
L 581 3500 
L 1159 3500 
L 1159 2969 
Q 1341 3281 1617 3432 
Q 1894 3584 2278 3584 
Q 2916 3584 3314 3078 
Q 3713 2572 3713 1747 
Q 3713 922 3314 415 
Q 2916 -91 2278 -91 
Q 1894 -91 1617 61 
Q 1341 213 1159 525 
z
M 3116 1747 
Q 3116 2381 2855 2742 
Q 2594 3103 2138 3103 
Q 1681 3103 1420 2742 
Q 1159 2381 1159 1747 
Q 1159 1113 1420 752 
Q 1681 391 2138 391 
Q 2594 391 2855 752 
Q 3116 1113 3116 1747 
z
" transform="scale(0.015625)"/>
      <path id="DejaVuSans-69" d="M 603 3500 
L 1178 3500 
L 1178 0 
L 603 0 
L 603 3500 
z
M 603 4863 
L 1178 4863 
L 1178 4134 
L 603 4134 
L 603 4863 
z
" transform="scale(0.015625)"/>
      <path id="DejaVuSans-62" d="M 3116 1747 
Q 3116 2381 2855 2742 
Q 2594 3103 2138 3103 
Q 1681 3103 1420 2742 
Q 1159 2381 1159 1747 
Q 1159 1113 1420 752 
Q 1681 391 2138 391 
Q 2594 391 2855 752 
Q 3116 1113 3116 1747 
z
M 1159 2969 
Q 1341 3281 1617 3432 
Q 1894 3584 2278 3584 
Q 2916 3584 3314 3078 
Q 3713 2572 3713 1747 
Q 3713 922 3314 415 
Q 2916 -91 2278 -91 
Q 1894 -91 1617 61 
Q 1341 213 1159 525 
L 1159 0 
L 581 0 
L 581 4863 
L 1159 4863 
L 1159 2969 
z
" transform="scale(0.015625)"/>
      <path id="DejaVuSans-6c" d="M 603 4863 
L 1178 4863 
L 1178 0 
L 603 0 
L 603 4863 
z
" transform="scale(0.015625)"/>
      <path id="DejaVuSans-76" d="M 191 3500 
L 800 3500 
L 1894 563 
L 2988 3500 
L 3597 3500 
L 2284 0 
L 1503 0 
L 191 3500 
z
" transform="scale(0.015625)"/>
      <path id="DejaVuSans-3b" d="M 750 3309 
L 1409 3309 
L 1409 2516 
L 750 2516 
L 750 3309 
z
M 750 794 
L 1409 794 
L 1409 256 
L 897 -744 
L 494 -744 
L 750 256 
L 750 794 
z
" transform="scale(0.015625)"/>
      <path id="DejaVuSans-e8" d="M 3597 1894 
L 3597 1613 
L 953 1613 
Q 991 1019 1311 708 
Q 1631 397 2203 397 
Q 2534 397 2845 478 
Q 3156 559 3463 722 
L 3463 178 
Q 3153 47 2828 -22 
Q 2503 -91 2169 -91 
Q 1331 -91 842 396 
Q 353 884 353 1716 
Q 353 2575 817 3079 
Q 1281 3584 2069 3584 
Q 2775 3584 3186 3129 
Q 3597 2675 3597 1894 
z
M 3022 2063 
Q 3016 2534 2758 2815 
Q 2500 3097 2075 3097 
Q 1594 3097 1305 2825 
Q 1016 2553 972 2059 
L 3022 2063 
z
M 1579 5119 
L 2460 3950 
L 1982 3950 
L 963 5119 
L 1579 5119 
z
" transform="scale(0.015625)"/>
      <path id="DejaVuSans-67" d="M 2906 1791 
Q 2906 2416 2648 2759 
Q 2391 3103 1925 3103 
Q 1463 3103 1205 2759 
Q 947 2416 947 1791 
Q 947 1169 1205 825 
Q 1463 481 1925 481 
Q 2391 481 2648 825 
Q 2906 1169 2906 1791 
z
M 3481 434 
Q 3481 -459 3084 -895 
Q 2688 -1331 1869 -1331 
Q 1566 -1331 1297 -1286 
Q 1028 -1241 775 -1147 
L 775 -588 
Q 1028 -725 1275 -790 
Q 1522 -856 1778 -856 
Q 2344 -856 2625 -561 
Q 2906 -266 2906 331 
L 2906 616 
Q 2728 306 2450 153 
Q 2172 0 1784 0 
Q 1141 0 747 490 
Q 353 981 353 1791 
Q 353 2603 747 3093 
Q 1141 3584 1784 3584 
Q 2172 3584 2450 3431 
Q 2728 3278 2906 2969 
L 2906 3500 
L 3481 3500 
L 3481 434 
z
" transform="scale(0.015625)"/>
      <path id="DejaVuSans-2e" d="M 684 794 
L 1344 794 
L 1344 0 
L 684 0 
L 684 794 
z
" transform="scale(0.015625)"/>
     </defs>
     <use xlink:href="#DejaVuSans-4c"/>
     <use xlink:href="#DejaVuSans-65" transform="translate(53.962891 0)"/>
     <use xlink:href="#DejaVuSans-20" transform="translate(115.486328 0)"/>
     <use xlink:href="#DejaVuSans-66" transform="translate(147.273438 0)"/>
     <use xlink:href="#DejaVuSans-72" transform="translate(182.478516 0)"/>
     <use xlink:href="#DejaVuSans-65" transform="translate(221.341797 0)"/>
     <use xlink:href="#DejaVuSans-63" transform="translate(282.865234 0)"/>
     <use xlink:href="#DejaVuSans-63" transform="translate(337.845703 0)"/>
     <use xlink:href="#DejaVuSans-65" transform="translate(392.826172 0)"/>
     <use xlink:href="#DejaVuSans-20" transform="translate(454.349609 0)"/>
     <use xlink:href="#DejaVuSans-6d" transform="translate(486.136719 0)"/>
     <use xlink:href="#DejaVuSans-6f" transform="translate(583.548828 0)"/>
     <use xlink:href="#DejaVuSans-73" transform="translate(644.730469 0)"/>
     <use xlink:href="#DejaVuSans-74" transform="translate(696.830078 0)"/>
     <use xlink:href="#DejaVuSans-72" transform="translate(736.039062 0)"/>
     <use xlink:href="#DejaVuSans-61" transform="translate(777.152344 0)"/>
     <use xlink:href="#DejaVuSans-6e" transform="translate(838.431641 0)"/>
     <use xlink:href="#DejaVuSans-6f" transform="translate(901.810547 0)"/>
     <use xlink:href="#DejaVuSans-20" transform="translate(962.992188 0)"/>
     <use xlink:href="#DejaVuSans-75" transform="translate(994.779297 0)"/>
     <use xlink:href="#DejaVuSans-6e" transform="translate(1058.158203 0)"/>
     <use xlink:href="#DejaVuSans-61" transform="translate(1121.537109 0)"/>
     <use xlink:href="#DejaVuSans-20" transform="translate(1182.816406 0)"/>
     <use xlink:href="#DejaVuSans-70" transform="translate(1214.603516 0)"/>
     <use xlink:href="#DejaVuSans-6f" transform="translate(1278.080078 0)"/>
     <use xlink:href="#DejaVuSans-73" transform="translate(1339.261719 0)"/>
     <use xlink:href="#DejaVuSans-73" transform="translate(1391.361328 0)"/>
     <use xlink:href="#DejaVuSans-69" transform="translate(1443.460938 0)"/>
     <use xlink:href="#DejaVuSans-62" transform="translate(1471.244141 0)"/>
     <use xlink:href="#DejaVuSans-69" transform="translate(1534.720703 0)"/>
     <use xlink:href="#DejaVuSans-6c" transform="translate(1562.503906 0)"/>
     <use xlink:href="#DejaVuSans-65" transform="translate(1590.287109 0)"/>
     <use xlink:href="#DejaVuSans-20" transform="translate(1651.810547 0)"/>
     <use xlink:href="#DejaVuSans-62" transform="translate(1683.597656 0)"/>
     <use xlink:href="#DejaVuSans-61" transform="translate(1747.074219 0)"/>
     <use xlink:href="#DejaVuSans-73" transform="translate(1808.353516 0)"/>
     <use xlink:href="#DejaVuSans-65" transform="translate(1860.453125 0)"/>
     <use xlink:href="#DejaVuSans-20" transform="translate(1921.976562 0)"/>
     <use xlink:href="#DejaVuSans-70" transform="translate(1953.763672 0)"/>
     <use xlink:href="#DejaVuSans-72" transform="translate(2017.240234 0)"/>
     <use xlink:href="#DejaVuSans-69" transform="translate(2058.353516 0)"/>
     <use xlink:href="#DejaVuSans-6d" transform="translate(2086.136719 0)"/>
     <use xlink:href="#DejaVuSans-69" transform="translate(2183.548828 0)"/>
     <use xlink:href="#DejaVuSans-74" transform="translate(2211.332031 0)"/>
     <use xlink:href="#DejaVuSans-69" transform="translate(2250.541016 0)"/>
     <use xlink:href="#DejaVuSans-76" transform="translate(2278.324219 0)"/>
     <use xlink:href="#DejaVuSans-61" transform="translate(2337.503906 0)"/>
     <use xlink:href="#DejaVuSans-3b" transform="translate(2398.783203 0)"/>
     <use xlink:href="#DejaVuSans-20" transform="translate(2432.474609 0)"/>
     <use xlink:href="#DejaVuSans-6c" transform="translate(2464.261719 0)"/>
     <use xlink:href="#DejaVuSans-61" transform="translate(2492.044922 0)"/>
     <use xlink:href="#DejaVuSans-20" transform="translate(2553.324219 0)"/>
     <use xlink:href="#DejaVuSans-63" transform="translate(2585.111328 0)"/>
     <use xlink:href="#DejaVuSans-65" transform="translate(2640.091797 0)"/>
     <use xlink:href="#DejaVuSans-6c" transform="translate(2701.615234 0)"/>
     <use xlink:href="#DejaVuSans-6c" transform="translate(2729.398438 0)"/>
     <use xlink:href="#DejaVuSans-61" transform="translate(2757.181641 0)"/>
     <use xlink:href="#DejaVuSans-20" transform="translate(2818.460938 0)"/>
     <use xlink:href="#DejaVuSans-63" transform="translate(2850.248047 0)"/>
     <use xlink:href="#DejaVuSans-75" transform="translate(2905.228516 0)"/>
     <use xlink:href="#DejaVuSans-62" transform="translate(2968.607422 0)"/>
     <use xlink:href="#DejaVuSans-69" transform="translate(3032.083984 0)"/>
     <use xlink:href="#DejaVuSans-63" transform="translate(3059.867188 0)"/>
     <use xlink:href="#DejaVuSans-61" transform="translate(3114.847656 0)"/>
     <use xlink:href="#DejaVuSans-20" transform="translate(3176.126953 0)"/>
     <use xlink:href="#DejaVuSans-e8" transform="translate(3207.914062 0)"/>
     <use xlink:href="#DejaVuSans-20" transform="translate(3269.4375 0)"/>
     <use xlink:href="#DejaVuSans-75" transform="translate(3301.224609 0)"/>
     <use xlink:href="#DejaVuSans-73" transform="translate(3364.603516 0)"/>
     <use xlink:href="#DejaVuSans-61" transform="translate(3416.703125 0)"/>
     <use xlink:href="#DejaVuSans-74" transform="translate(3477.982422 0)"/>
     <use xlink:href="#DejaVuSans-61" transform="translate(3517.191406 0)"/>
     <use xlink:href="#DejaVuSans-20" transform="translate(3578.470703 0)"/>
     <use xlink:href="#DejaVuSans-73" transform="translate(3610.257812 0)"/>
     <use xlink:href="#DejaVuSans-6f" transform="translate(3662.357422 0)"/>
     <use xlink:href="#DejaVuSans-6c" transform="translate(3723.539062 0)"/>
     <use xlink:href="#DejaVuSans-6f" transform="translate(3751.322266 0)"/>
     <use xlink:href="#DejaVuSans-20" transform="translate(3812.503906 0)"/>
     <use xlink:href="#DejaVuSans-63" transform="translate(3844.291016 0)"/>
     <use xlink:href="#DejaVuSans-6f" transform="translate(3899.271484 0)"/>
     <use xlink:href="#DejaVuSans-6d" transform="translate(3960.453125 0)"/>
     <use xlink:href="#DejaVuSans-65" transform="translate(4057.865234 0)"/>
     <use xlink:href="#DejaVuSans-20" transform="translate(4119.388672 0)"/>
     <use xlink:href="#DejaVuSans-72" transform="translate(4151.175781 0)"/>
     <use xlink:href="#DejaVuSans-69" transform="translate(4192.289062 0)"/>
     <use xlink:href="#DejaVuSans-66" transform="translate(4220.072266 0)"/>
     <use xlink:href="#DejaVuSans-65" transform="translate(4255.277344 0)"/>
     <use xlink:href="#DejaVuSans-72" transform="translate(4316.800781 0)"/>
     <use xlink:href="#DejaVuSans-69" transform="translate(4357.914062 0)"/>
     <use xlink:href="#DejaVuSans-6d" transform="translate(4385.697266 0)"/>
     <use xlink:href="#DejaVuSans-65" transform="translate(4483.109375 0)"/>
     <use xlink:href="#DejaVuSans-6e" transform="translate(4544.632812 0)"/>
     <use xlink:href="#DejaVuSans-74" transform="translate(4608.011719 0)"/>
     <use xlink:href="#DejaVuSans-6f" transform="translate(4647.220703 0)"/>
     <use xlink:href="#DejaVuSans-20" transform="translate(4708.402344 0)"/>
     <use xlink:href="#DejaVuSans-67" transform="translate(4740.189453 0)"/>
     <use xlink:href="#DejaVuSans-65" transform="translate(4803.666016 0)"/>
     <use xlink:href="#DejaVuSans-6f" transform="translate(4865.189453 0)"/>
     <use xlink:href="#DejaVuSans-6d" transform="translate(4926.371094 0)"/>
     <use xlink:href="#DejaVuSans-65" transform="translate(5023.783203 0)"/>
     <use xlink:href="#DejaVuSans-74" transform="translate(5085.306641 0)"/>
     <use xlink:href="#DejaVuSans-72" transform="translate(5124.515625 0)"/>
     <use xlink:href="#DejaVuSans-69" transform="translate(5165.628906 0)"/>
     <use xlink:href="#DejaVuSans-63" transform="translate(5193.412109 0)"/>
     <use xlink:href="#DejaVuSans-6f" transform="translate(5248.392578 0)"/>
     <use xlink:href="#DejaVuSans-2e" transform="translate(5307.824219 0)"/>
    </g>
   </g>
   <g id="PathCollection_1">
    <defs>
     <path id="m596bb889c6" d="M 0 2.54951 
C 0.676138 2.54951 1.324674 2.280877 1.802776 1.802776 
C 2.280877 1.324674 2.54951 0.676138 2.54951 0 
C 2.54951 -0.676138 2.280877 -1.324674 1.802776 -1.802776 
C 1.324674 -2.280877 0.676138 -2.54951 0 -2.54951 
C -0.676138 -2.54951 -1.324674 -2.280877 -1.802776 -1.802776 
C -2.280877 -1.324674 -2.54951 -0.676138 -2.54951 0 
C -2.54951 0.676138 -2.280877 1.324674 -1.802776 1.802776 
C -1.324674 2.280877 -0.676138 2.54951 0 2.54951 
z
" style="stroke: #1f77b4"/>
    </defs>
    <g clip-path="url(#p0b244b5e96)">
     <use xlink:href="#m596bb889c6" x="127.043182" y="227.350023" style="fill: #1f77b4; stroke: #1f77b4"/>
     <use xlink:href="#m596bb889c6" x="127.043182" y="256.388162" style="fill: #1f77b4; stroke: #1f77b4"/>
     <use xlink:href="#m596bb889c6" x="179.678165" y="187.322037" style="fill: #1f77b4; stroke: #1f77b4"/>
     <use xlink:href="#m596bb889c6" x="179.678165" y="216.360177" style="fill: #1f77b4; stroke: #1f77b4"/>
     <use xlink:href="#m596bb889c6" x="171.209177" y="275.053518" style="fill: #1f77b4; stroke: #1f77b4"/>
     <use xlink:href="#m596bb889c6" x="171.209177" y="304.091657" style="fill: #1f77b4; stroke: #1f77b4"/>
     <use xlink:href="#m596bb889c6" x="223.84416" y="235.025533" style="fill: #1f77b4; stroke: #1f77b4"/>
     <use xlink:href="#m596bb889c6" x="223.84416" y="264.063672" style="fill: #1f77b4; stroke: #1f77b4"/>
    </g>
   </g>
   <g id="PathCollection_2">
    <defs>
     <path id="mb5283b0c7e" d="M 0 2.54951 
C 0.676138 2.54951 1.324674 2.280877 1.802776 1.802776 
C 2.280877 1.324674 2.54951 0.676138 2.54951 0 
C 2.54951 -0.676138 2.280877 -1.324674 1.802776 -1.802776 
C 1.324674 -2.280877 0.676138 -2.54951 0 -2.54951 
C -0.676138 -2.54951 -1.324674 -2.280877 -1.802776 -1.802776 
C -2.280877 -1.324674 -2.54951 -0.676138 -2.54951 0 
C -2.54951 0.676138 -2.280877 1.324674 -1.802776 1.802776 
C -1.324674 2.280877 -0.676138 2.54951 0 2.54951 
z
" style="stroke: #ff7f0e"/>
    </defs>
    <g clip-path="url(#p0b244b5e96)">
     <use xlink:href="#mb5283b0c7e" x="358.74" y="227.350023" style="fill: #ff7f0e; stroke: #ff7f0e"/>
     <use xlink:href="#mb5283b0c7e" x="358.74" y="256.388162" style="fill: #ff7f0e; stroke: #ff7f0e"/>
     <use xlink:href="#mb5283b0c7e" x="411.374983" y="187.322037" style="fill: #ff7f0e; stroke: #ff7f0e"/>
     <use xlink:href="#mb5283b0c7e" x="411.374983" y="216.360177" style="fill: #ff7f0e; stroke: #ff7f0e"/>
     <use xlink:href="#mb5283b0c7e" x="402.905995" y="275.053518" style="fill: #ff7f0e; stroke: #ff7f0e"/>
     <use xlink:href="#mb5283b0c7e" x="402.905995" y="304.091657" style="fill: #ff7f0e; stroke: #ff7f0e"/>
     <use xlink:href="#mb5283b0c7e" x="455.540978" y="235.025533" style="fill: #ff7f0e; stroke: #ff7f0e"/>
     <use xlink:href="#mb5283b0c7e" x="455.540978" y="264.063672" style="fill: #ff7f0e; stroke: #ff7f0e"/>
    </g>
   </g>
   <g id="PathCollection_3">
    <defs>
     <path id="m663f000ed2" d="M 0 2.54951 
C 0.676138 2.54951 1.324674 2.280877 1.802776 1.802776 
C 2.280877 1.324674 2.54951 0.676138 2.54951 0 
C 2.54951 -0.676138 2.280877 -1.324674 1.802776 -1.802776 
C 1.324674 -2.280877 0.676138 -2.54951 0 -2.54951 
C -0.676138 -2.54951 -1.324674 -2.280877 -1.802776 -1.802776 
C -2.280877 -1.324674 -2.54951 -0.676138 -2.54951 0 
C -2.54951 0.676138 -2.280877 1.324674 -1.802776 1.802776 
C -1.324674 2.280877 -0.676138 2.54951 0 2.54951 
z
" style="stroke: #d62728"/>
    </defs>
    <g clip-path="url(#p0b244b5e96)">
     <use xlink:href="#m663f000ed2" x="590.436818" y="227.350023" style="fill: #d62728; stroke: #d62728"/>
     <use xlink:href="#m663f000ed2" x="590.436818" y="256.388162" style="fill: #d62728; stroke: #d62728"/>
     <use xlink:href="#m663f000ed2" x="643.071802" y="187.322037" style="fill: #d62728; stroke: #d62728"/>
     <use xlink:href="#m663f000ed2" x="643.071802" y="216.360177" style="fill: #d62728; stroke: #d62728"/>
     <use xlink:href="#m663f000ed2" x="634.602813" y="275.053518" style="fill: #d62728; stroke: #d62728"/>
     <use xlink:href="#m663f000ed2" x="634.602813" y="304.091657" style="fill: #d62728; stroke: #d62728"/>
     <use xlink:href="#m663f000ed2" x="687.237797" y="235.025533" style="fill: #d62728; stroke: #d62728"/>
     <use xlink:href="#m663f000ed2" x="687.237797" y="264.063672" style="fill: #d62728; stroke: #d62728"/>
    </g>
   </g>
   <g id="PathCollection_4">
    <defs>
     <path id="mb52e470fdd" d="M 0 2.645751 
C 0.701661 2.645751 1.374679 2.366978 1.870829 1.870829 
C 2.366978 1.374679 2.645751 0.701661 2.645751 0 
C 2.645751 -0.701661 2.366978 -1.374679 1.870829 -1.870829 
C 1.374679 -2.366978 0.701661 -2.645751 0 -2.645751 
C -0.701661 -2.645751 -1.374679 -2.366978 -1.870829 -1.870829 
C -2.366978 -1.374679 -2.645751 -0.701661 -2.645751 0 
C -2.645751 0.701661 -2.366978 1.374679 -1.870829 1.870829 
C -1.374679 2.366978 -0.701661 2.645751 0 2.645751 
z
" style="stroke: #9467bd"/>
    </defs>
    <g clip-path="url(#p0b244b5e96)">
     <use xlink:href="#mb52e470fdd" x="638.837307" y="231.187778" style="fill: #9467bd; stroke: #9467bd"/>
     <use xlink:href="#mb52e470fdd" x="638.837307" y="260.225917" style="fill: #9467bd; stroke: #9467bd"/>
     <use xlink:href="#mb52e470fdd" x="612.519816" y="265.72084" style="fill: #9467bd; stroke: #9467bd"/>
     <use xlink:href="#mb52e470fdd" x="665.154799" y="225.692855" style="fill: #9467bd; stroke: #9467bd"/>
     <use xlink:href="#mb52e470fdd" x="616.75431" y="221.8551" style="fill: #9467bd; stroke: #9467bd"/>
     <use xlink:href="#mb52e470fdd" x="660.920305" y="269.558595" style="fill: #9467bd; stroke: #9467bd"/>
    </g>
   </g>
   <g id="PathCollection_5">
    <defs>
     <path id="m13d227c1d1" d="M 0 3.082207 
C 0.817411 3.082207 1.601453 2.757446 2.179449 2.179449 
C 2.757446 1.601453 3.082207 0.817411 3.082207 0 
C 3.082207 -0.817411 2.757446 -1.601453 2.179449 -2.179449 
C 1.601453 -2.757446 0.817411 -3.082207 0 -3.082207 
C -0.817411 -3.082207 -1.601453 -2.757446 -2.179449 -2.179449 
C -2.757446 -1.601453 -3.082207 -0.817411 -3.082207 0 
C -3.082207 0.817411 -2.757446 1.601453 -2.179449 2.179449 
C -1.601453 2.757446 -0.817411 3.082207 0 3.082207 
z
" style="stroke: #2ca02c"/>
    </defs>
    <g clip-path="url(#p0b244b5e96)">
     <use xlink:href="#m13d227c1d1" x="407.140489" y="245.706847" style="fill: #2ca02c; stroke: #2ca02c"/>
    </g>
   </g>
  </g>
  <g id="text_14">
   <!-- Vettori primitivi nei tre reticoli cubici principali -->
   <g transform="translate(147.665625 18.597656) scale(0.15 -0.15)">
    <defs>
     <path id="DejaVuSans-Bold-56" d="M 31 4666 
L 1241 4666 
L 2478 1222 
L 3713 4666 
L 4922 4666 
L 3194 0 
L 1759 0 
L 31 4666 
z
" transform="scale(0.015625)"/>
     <path id="DejaVuSans-Bold-76" d="M 97 3500 
L 1216 3500 
L 2088 1081 
L 2956 3500 
L 4078 3500 
L 2700 0 
L 1472 0 
L 97 3500 
z
" transform="scale(0.015625)"/>
    </defs>
    <use xlink:href="#DejaVuSans-Bold-56"/>
    <use xlink:href="#DejaVuSans-Bold-65" transform="translate(71.892578 0)"/>
    <use xlink:href="#DejaVuSans-Bold-74" transform="translate(139.714844 0)"/>
    <use xlink:href="#DejaVuSans-Bold-74" transform="translate(187.517578 0)"/>
    <use xlink:href="#DejaVuSans-Bold-6f" transform="translate(235.320312 0)"/>
    <use xlink:href="#DejaVuSans-Bold-72" transform="translate(304.021484 0)"/>
    <use xlink:href="#DejaVuSans-Bold-69" transform="translate(353.337891 0)"/>
    <use xlink:href="#DejaVuSans-Bold-20" transform="translate(387.615234 0)"/>
    <use xlink:href="#DejaVuSans-Bold-70" transform="translate(422.429688 0)"/>
    <use xlink:href="#DejaVuSans-Bold-72" transform="translate(494.011719 0)"/>
    <use xlink:href="#DejaVuSans-Bold-69" transform="translate(543.328125 0)"/>
    <use xlink:href="#DejaVuSans-Bold-6d" transform="translate(577.605469 0)"/>
    <use xlink:href="#DejaVuSans-Bold-69" transform="translate(681.804688 0)"/>
    <use xlink:href="#DejaVuSans-Bold-74" transform="translate(716.082031 0)"/>
    <use xlink:href="#DejaVuSans-Bold-69" transform="translate(763.884766 0)"/>
    <use xlink:href="#DejaVuSans-Bold-76" transform="translate(798.162109 0)"/>
    <use xlink:href="#DejaVuSans-Bold-69" transform="translate(863.347656 0)"/>
    <use xlink:href="#DejaVuSans-Bold-20" transform="translate(897.625 0)"/>
    <use xlink:href="#DejaVuSans-Bold-6e" transform="translate(932.439453 0)"/>
    <use xlink:href="#DejaVuSans-Bold-65" transform="translate(1003.630859 0)"/>
    <use xlink:href="#DejaVuSans-Bold-69" transform="translate(1071.453125 0)"/>
    <use xlink:href="#DejaVuSans-Bold-20" transform="translate(1105.730469 0)"/>
    <use xlink:href="#DejaVuSans-Bold-74" transform="translate(1140.544922 0)"/>
    <use xlink:href="#DejaVuSans-Bold-72" transform="translate(1188.347656 0)"/>
    <use xlink:href="#DejaVuSans-Bold-65" transform="translate(1237.664062 0)"/>
    <use xlink:href="#DejaVuSans-Bold-20" transform="translate(1305.486328 0)"/>
    <use xlink:href="#DejaVuSans-Bold-72" transform="translate(1340.300781 0)"/>
    <use xlink:href="#DejaVuSans-Bold-65" transform="translate(1389.617188 0)"/>
    <use xlink:href="#DejaVuSans-Bold-74" transform="translate(1457.439453 0)"/>
    <use xlink:href="#DejaVuSans-Bold-69" transform="translate(1505.242188 0)"/>
    <use xlink:href="#DejaVuSans-Bold-63" transform="translate(1539.519531 0)"/>
    <use xlink:href="#DejaVuSans-Bold-6f" transform="translate(1598.796875 0)"/>
    <use xlink:href="#DejaVuSans-Bold-6c" transform="translate(1667.498047 0)"/>
    <use xlink:href="#DejaVuSans-Bold-69" transform="translate(1701.775391 0)"/>
    <use xlink:href="#DejaVuSans-Bold-20" transform="translate(1736.052734 0)"/>
    <use xlink:href="#DejaVuSans-Bold-63" transform="translate(1770.867188 0)"/>
    <use xlink:href="#DejaVuSans-Bold-75" transform="translate(1830.144531 0)"/>
    <use xlink:href="#DejaVuSans-Bold-62" transform="translate(1901.335938 0)"/>
    <use xlink:href="#DejaVuSans-Bold-69" transform="translate(1972.917969 0)"/>
    <use xlink:href="#DejaVuSans-Bold-63" transform="translate(2007.195312 0)"/>
    <use xlink:href="#DejaVuSans-Bold-69" transform="translate(2066.472656 0)"/>
    <use xlink:href="#DejaVuSans-Bold-20" transform="translate(2100.75 0)"/>
    <use xlink:href="#DejaVuSans-Bold-70" transform="translate(2135.564453 0)"/>
    <use xlink:href="#DejaVuSans-Bold-72" transform="translate(2207.146484 0)"/>
    <use xlink:href="#DejaVuSans-Bold-69" transform="translate(2256.462891 0)"/>
    <use xlink:href="#DejaVuSans-Bold-6e" transform="translate(2290.740234 0)"/>
    <use xlink:href="#DejaVuSans-Bold-63" transform="translate(2361.931641 0)"/>
    <use xlink:href="#DejaVuSans-Bold-69" transform="translate(2421.208984 0)"/>
    <use xlink:href="#DejaVuSans-Bold-70" transform="translate(2455.486328 0)"/>
    <use xlink:href="#DejaVuSans-Bold-61" transform="translate(2527.068359 0)"/>
    <use xlink:href="#DejaVuSans-Bold-6c" transform="translate(2594.548828 0)"/>
    <use xlink:href="#DejaVuSans-Bold-69" transform="translate(2628.826172 0)"/>
   </g>
  </g>
 </g>
 <defs>
  <clipPath id="p0b244b5e96">
   <rect x="7.2" y="67.559114" width="703.08" height="267.649773"/>
  </clipPath>
 </defs>
</svg>
