<?xml version="1.0" encoding="utf-8" standalone="no"?>
<!DOCTYPE svg PUBLIC "-//W3C//DTD SVG 1.1//EN"
  "http://www.w3.org/Graphics/SVG/1.1/DTD/svg11.dtd">
<svg xmlns:xlink="http://www.w3.org/1999/xlink" width="391.69375pt" height="369.216pt" viewBox="0 0 391.69375 369.216" xmlns="http://www.w3.org/2000/svg" version="1.1">
 <metadata>
  <rdf:RDF xmlns:dc="http://purl.org/dc/elements/1.1/" xmlns:cc="http://creativecommons.org/ns#" xmlns:rdf="http://www.w3.org/1999/02/22-rdf-syntax-ns#">
   <cc:Work>
    <dc:type rdf:resource="http://purl.org/dc/dcmitype/StillImage"/>
    <dc:date>2026-06-16T08:00:50.130791</dc:date>
    <dc:format>image/svg+xml</dc:format>
    <dc:creator>
     <cc:Agent>
      <dc:title>Matplotlib v3.10.8, https://matplotlib.org/</dc:title>
     </cc:Agent>
    </dc:creator>
   </cc:Work>
  </rdf:RDF>
 </metadata>
 <defs>
  <style type="text/css">*{stroke-linejoin: round; stroke-linecap: butt}</style>
 </defs>
 <g id="figure_1">
  <g id="patch_1">
   <path d="M 0 369.216 
L 391.69375 369.216 
L 391.69375 0 
L 0 0 
z
" style="fill: #ffffff"/>
  </g>
  <g id="axes_1">
   <g id="patch_2">
    <path d="M 12.641228 362.016 
L 367.457228 362.016 
L 367.457228 7.2 
L 12.641228 7.2 
z
" style="fill: #ffffff"/>
   </g>
   <g id="matplotlib.axis_1"/>
   <g id="matplotlib.axis_2"/>
   <g id="line2d_1">
    <path d="M 96.127346 227.510588 
L 235.270875 134.748235 
" clip-path="url(#p47864a074e)" style="fill: none; stroke-dasharray: 4.81,2.08; stroke-dashoffset: 0; stroke: #737373; stroke-width: 1.3"/>
   </g>
   <g id="PathCollection_1">
    <defs>
     <path id="m3ac02b88fb" d="M 0 2.236068 
C 0.593012 2.236068 1.161816 2.000462 1.581139 1.581139 
C 2.000462 1.161816 2.236068 0.593012 2.236068 0 
C 2.236068 -0.593012 2.000462 -1.161816 1.581139 -1.581139 
C 1.161816 -2.000462 0.593012 -2.236068 0 -2.236068 
C -0.593012 -2.236068 -1.161816 -2.000462 -1.581139 -1.581139 
C -2.000462 -1.161816 -2.236068 -0.593012 -2.236068 0 
C -2.236068 0.593012 -2.000462 1.161816 -1.581139 1.581139 
C -1.161816 2.000462 -0.593012 2.236068 0 2.236068 
z
" style="stroke: #262626"/>
    </defs>
    <g clip-path="url(#p47864a074e)">
     <use xlink:href="#m3ac02b88fb" x="33.512757" y="324.911059" style="fill: #262626; stroke: #262626"/>
     <use xlink:href="#m3ac02b88fb" x="79.893934" y="324.911059" style="fill: #262626; stroke: #262626"/>
     <use xlink:href="#m3ac02b88fb" x="126.27511" y="324.911059" style="fill: #262626; stroke: #262626"/>
     <use xlink:href="#m3ac02b88fb" x="172.656287" y="324.911059" style="fill: #262626; stroke: #262626"/>
     <use xlink:href="#m3ac02b88fb" x="219.037463" y="324.911059" style="fill: #262626; stroke: #262626"/>
     <use xlink:href="#m3ac02b88fb" x="265.41864" y="324.911059" style="fill: #262626; stroke: #262626"/>
     <use xlink:href="#m3ac02b88fb" x="311.799816" y="324.911059" style="fill: #262626; stroke: #262626"/>
     <use xlink:href="#m3ac02b88fb" x="33.512757" y="278.529882" style="fill: #262626; stroke: #262626"/>
     <use xlink:href="#m3ac02b88fb" x="79.893934" y="278.529882" style="fill: #262626; stroke: #262626"/>
     <use xlink:href="#m3ac02b88fb" x="126.27511" y="278.529882" style="fill: #262626; stroke: #262626"/>
     <use xlink:href="#m3ac02b88fb" x="172.656287" y="278.529882" style="fill: #262626; stroke: #262626"/>
     <use xlink:href="#m3ac02b88fb" x="219.037463" y="278.529882" style="fill: #262626; stroke: #262626"/>
     <use xlink:href="#m3ac02b88fb" x="265.41864" y="278.529882" style="fill: #262626; stroke: #262626"/>
     <use xlink:href="#m3ac02b88fb" x="311.799816" y="278.529882" style="fill: #262626; stroke: #262626"/>
     <use xlink:href="#m3ac02b88fb" x="33.512757" y="232.148706" style="fill: #262626; stroke: #262626"/>
     <use xlink:href="#m3ac02b88fb" x="79.893934" y="232.148706" style="fill: #262626; stroke: #262626"/>
     <use xlink:href="#m3ac02b88fb" x="126.27511" y="232.148706" style="fill: #262626; stroke: #262626"/>
     <use xlink:href="#m3ac02b88fb" x="172.656287" y="232.148706" style="fill: #262626; stroke: #262626"/>
     <use xlink:href="#m3ac02b88fb" x="219.037463" y="232.148706" style="fill: #262626; stroke: #262626"/>
     <use xlink:href="#m3ac02b88fb" x="265.41864" y="232.148706" style="fill: #262626; stroke: #262626"/>
     <use xlink:href="#m3ac02b88fb" x="311.799816" y="232.148706" style="fill: #262626; stroke: #262626"/>
     <use xlink:href="#m3ac02b88fb" x="33.512757" y="185.767529" style="fill: #262626; stroke: #262626"/>
     <use xlink:href="#m3ac02b88fb" x="79.893934" y="185.767529" style="fill: #262626; stroke: #262626"/>
     <use xlink:href="#m3ac02b88fb" x="126.27511" y="185.767529" style="fill: #262626; stroke: #262626"/>
     <use xlink:href="#m3ac02b88fb" x="172.656287" y="185.767529" style="fill: #262626; stroke: #262626"/>
     <use xlink:href="#m3ac02b88fb" x="219.037463" y="185.767529" style="fill: #262626; stroke: #262626"/>
     <use xlink:href="#m3ac02b88fb" x="265.41864" y="185.767529" style="fill: #262626; stroke: #262626"/>
     <use xlink:href="#m3ac02b88fb" x="311.799816" y="185.767529" style="fill: #262626; stroke: #262626"/>
     <use xlink:href="#m3ac02b88fb" x="33.512757" y="139.386353" style="fill: #262626; stroke: #262626"/>
     <use xlink:href="#m3ac02b88fb" x="79.893934" y="139.386353" style="fill: #262626; stroke: #262626"/>
     <use xlink:href="#m3ac02b88fb" x="126.27511" y="139.386353" style="fill: #262626; stroke: #262626"/>
     <use xlink:href="#m3ac02b88fb" x="172.656287" y="139.386353" style="fill: #262626; stroke: #262626"/>
     <use xlink:href="#m3ac02b88fb" x="219.037463" y="139.386353" style="fill: #262626; stroke: #262626"/>
     <use xlink:href="#m3ac02b88fb" x="265.41864" y="139.386353" style="fill: #262626; stroke: #262626"/>
     <use xlink:href="#m3ac02b88fb" x="311.799816" y="139.386353" style="fill: #262626; stroke: #262626"/>
     <use xlink:href="#m3ac02b88fb" x="33.512757" y="93.005176" style="fill: #262626; stroke: #262626"/>
     <use xlink:href="#m3ac02b88fb" x="79.893934" y="93.005176" style="fill: #262626; stroke: #262626"/>
     <use xlink:href="#m3ac02b88fb" x="126.27511" y="93.005176" style="fill: #262626; stroke: #262626"/>
     <use xlink:href="#m3ac02b88fb" x="172.656287" y="93.005176" style="fill: #262626; stroke: #262626"/>
     <use xlink:href="#m3ac02b88fb" x="219.037463" y="93.005176" style="fill: #262626; stroke: #262626"/>
     <use xlink:href="#m3ac02b88fb" x="265.41864" y="93.005176" style="fill: #262626; stroke: #262626"/>
     <use xlink:href="#m3ac02b88fb" x="311.799816" y="93.005176" style="fill: #262626; stroke: #262626"/>
    </g>
   </g>
   <g id="patch_3">
    <path d="M 35.509237 324.911059 
Q 195.843166 324.911059 354.835455 324.911059 
" style="fill: none; stroke: #000000; stroke-width: 1.2; stroke-linecap: round"/>
    <path d="M 350.835455 322.911059 
L 354.835455 324.911059 
L 350.835455 326.911059 
z
" style="fill: #1f77b4; stroke: #000000; stroke-width: 1.2; stroke-linecap: round"/>
   </g>
   <g id="patch_4">
    <path d="M 33.512757 322.912244 
Q 33.512757 183.449983 33.512757 45.329364 
" style="fill: none; stroke: #000000; stroke-width: 1.2; stroke-linecap: round"/>
    <path d="M 31.512757 49.329364 
L 33.512757 45.329364 
L 35.512757 49.329364 
z
" style="fill: #1f77b4; stroke: #000000; stroke-width: 1.2; stroke-linecap: round"/>
   </g>
   <g id="patch_5">
    <path d="M 34.592385 323.231638 
Q 64.81997 276.210951 93.838384 231.071196 
" style="fill: none; stroke: #1f77b4; stroke-width: 2; stroke-linecap: round"/>
    <path d="M 89.992996 233.354395 
L 93.838384 231.071196 
L 93.35771 235.517425 
z
" style="fill: #1f77b4; stroke: #1f77b4; stroke-width: 2; stroke-linecap: round"/>
   </g>
   <g id="patch_6">
    <path d="M 35.175193 323.802768 
Q 103.083964 278.530254 169.132214 234.498088 
" style="fill: none; stroke: #ff7f0e; stroke-width: 2; stroke-linecap: round"/>
    <path d="M 164.694613 235.052788 
L 169.132214 234.498088 
L 166.913414 238.380989 
z
" style="fill: #ff7f0e; stroke: #ff7f0e; stroke-width: 2; stroke-linecap: round"/>
   </g>
   <g id="patch_7">
    <path d="M 34.968928 323.538576 
Q 134.390958 229.830456 232.023062 137.809392 
" style="fill: none; stroke: #2ca02c; stroke-width: 2.2; stroke-linecap: round"/>
    <path d="M 227.740455 139.09752 
L 232.023062 137.809392 
L 230.484 142.008355 
z
" style="fill: #2ca02c; stroke: #2ca02c; stroke-width: 2.2; stroke-linecap: round"/>
   </g>
   <g id="text_1">
    <!-- $\mathbf{r}$ -->
    <g style="fill: #1f77b4" transform="translate(91.489228 217.306729) scale(0.14 -0.14)">
     <defs>
      <path id="DejaVuSans-Bold-72" d="M 3138 2547 
Q 2991 2616 2845 2648 
Q 2700 2681 2553 2681 
Q 2122 2681 1889 2404 
Q 1656 2128 1656 1613 
L 1656 0 
L 538 0 
L 538 3500 
L 1656 3500 
L 1656 2925 
Q 1872 3269 2151 3426 
Q 2431 3584 2822 3584 
Q 2878 3584 2943 3579 
Q 3009 3575 3134 3559 
L 3138 2547 
z
" transform="scale(0.015625)"/>
     </defs>
     <use xlink:href="#DejaVuSans-Bold-72"/>
    </g>
   </g>
   <g id="text_2">
    <!-- $\mathbf{R}_{\ell}=3\mathbf{a}_1+2\mathbf{a}_2$ -->
    <g style="fill: #ff7f0e" transform="translate(177.294404 248.382118) scale(0.13 -0.13)">
     <defs>
      <path id="DejaVuSans-Bold-52" d="M 2297 2597 
Q 2675 2597 2839 2737 
Q 3003 2878 3003 3200 
Q 3003 3519 2839 3656 
Q 2675 3794 2297 3794 
L 1791 3794 
L 1791 2597 
L 2297 2597 
z
M 1791 1766 
L 1791 0 
L 588 0 
L 588 4666 
L 2425 4666 
Q 3347 4666 3776 4356 
Q 4206 4047 4206 3378 
Q 4206 2916 3982 2619 
Q 3759 2322 3309 2181 
Q 3556 2125 3751 1926 
Q 3947 1728 4147 1325 
L 4800 0 
L 3519 0 
L 2950 1159 
Q 2778 1509 2601 1637 
Q 2425 1766 2131 1766 
L 1791 1766 
z
" transform="scale(0.015625)"/>
      <path id="DejaVuSans-Oblique-2113" d="M 950 838 
Q 1078 213 1350 213 
Q 1531 213 1766 572 
L 2181 572 
Q 1994 253 1775 88 
Q 1538 -91 1319 -91 
Q 831 -91 634 344 
L 400 0 
L -88 0 
Q 250 459 500 888 
Q 469 1131 469 1397 
Q 469 1872 566 2347 
Q 931 4131 1256 4497 
Q 1481 4750 1866 4750 
Q 2256 4750 2256 4209 
Q 2253 3966 2197 3675 
Q 1972 2484 950 838 
z
M 947 1656 
Q 1531 2744 1709 3613 
Q 1803 4072 1803 4191 
Q 1803 4406 1725 4406 
Q 1384 4134 1081 2516 
Q 997 2063 947 1656 
z
" transform="scale(0.015625)"/>
      <path id="DejaVuSans-3d" d="M 678 2906 
L 4684 2906 
L 4684 2381 
L 678 2381 
L 678 2906 
z
M 678 1631 
L 4684 1631 
L 4684 1100 
L 678 1100 
L 678 1631 
z
" transform="scale(0.015625)"/>
      <path id="DejaVuSans-33" d="M 2597 2516 
Q 3050 2419 3304 2112 
Q 3559 1806 3559 1356 
Q 3559 666 3084 287 
Q 2609 -91 1734 -91 
Q 1441 -91 1130 -33 
Q 819 25 488 141 
L 488 750 
Q 750 597 1062 519 
Q 1375 441 1716 441 
Q 2309 441 2620 675 
Q 2931 909 2931 1356 
Q 2931 1769 2642 2001 
Q 2353 2234 1838 2234 
L 1294 2234 
L 1294 2753 
L 1863 2753 
Q 2328 2753 2575 2939 
Q 2822 3125 2822 3475 
Q 2822 3834 2567 4026 
Q 2313 4219 1838 4219 
Q 1578 4219 1281 4162 
Q 984 4106 628 3988 
L 628 4550 
Q 988 4650 1302 4700 
Q 1616 4750 1894 4750 
Q 2613 4750 3031 4423 
Q 3450 4097 3450 3541 
Q 3450 3153 3228 2886 
Q 3006 2619 2597 2516 
z
" transform="scale(0.015625)"/>
      <path id="DejaVuSans-Bold-61" d="M 2106 1575 
Q 1756 1575 1579 1456 
Q 1403 1338 1403 1106 
Q 1403 894 1545 773 
Q 1688 653 1941 653 
Q 2256 653 2472 879 
Q 2688 1106 2688 1447 
L 2688 1575 
L 2106 1575 
z
M 3816 1997 
L 3816 0 
L 2688 0 
L 2688 519 
Q 2463 200 2181 54 
Q 1900 -91 1497 -91 
Q 953 -91 614 226 
Q 275 544 275 1050 
Q 275 1666 698 1953 
Q 1122 2241 2028 2241 
L 2688 2241 
L 2688 2328 
Q 2688 2594 2478 2717 
Q 2269 2841 1825 2841 
Q 1466 2841 1156 2769 
Q 847 2697 581 2553 
L 581 3406 
Q 941 3494 1303 3539 
Q 1666 3584 2028 3584 
Q 2975 3584 3395 3211 
Q 3816 2838 3816 1997 
z
" transform="scale(0.015625)"/>
      <path id="DejaVuSans-31" d="M 794 531 
L 1825 531 
L 1825 4091 
L 703 3866 
L 703 4441 
L 1819 4666 
L 2450 4666 
L 2450 531 
L 3481 531 
L 3481 0 
L 794 0 
L 794 531 
z
" transform="scale(0.015625)"/>
      <path id="DejaVuSans-2b" d="M 2944 4013 
L 2944 2272 
L 4684 2272 
L 4684 1741 
L 2944 1741 
L 2944 0 
L 2419 0 
L 2419 1741 
L 678 1741 
L 678 2272 
L 2419 2272 
L 2419 4013 
L 2944 4013 
z
" transform="scale(0.015625)"/>
      <path id="DejaVuSans-32" d="M 1228 531 
L 3431 531 
L 3431 0 
L 469 0 
L 469 531 
Q 828 903 1448 1529 
Q 2069 2156 2228 2338 
Q 2531 2678 2651 2914 
Q 2772 3150 2772 3378 
Q 2772 3750 2511 3984 
Q 2250 4219 1831 4219 
Q 1534 4219 1204 4116 
Q 875 4013 500 3803 
L 500 4441 
Q 881 4594 1212 4672 
Q 1544 4750 1819 4750 
Q 2544 4750 2975 4387 
Q 3406 4025 3406 3419 
Q 3406 3131 3298 2873 
Q 3191 2616 2906 2266 
Q 2828 2175 2409 1742 
Q 1991 1309 1228 531 
z
" transform="scale(0.015625)"/>
     </defs>
     <use xlink:href="#DejaVuSans-Bold-52" transform="translate(0 0.78125)"/>
     <use xlink:href="#DejaVuSans-Oblique-2113" transform="translate(77.958984 -15.625) scale(0.7)"/>
     <use xlink:href="#DejaVuSans-3d" transform="translate(129.091797 0.78125)"/>
     <use xlink:href="#DejaVuSans-33" transform="translate(232.363281 0.78125)"/>
     <use xlink:href="#DejaVuSans-Bold-61" transform="translate(295.986328 0.78125)"/>
     <use xlink:href="#DejaVuSans-31" transform="translate(364.423828 -15.625) scale(0.7)"/>
     <use xlink:href="#DejaVuSans-2b" transform="translate(431.176758 0.78125)"/>
     <use xlink:href="#DejaVuSans-32" transform="translate(534.448242 0.78125)"/>
     <use xlink:href="#DejaVuSans-Bold-61" transform="translate(598.071289 0.78125)"/>
     <use xlink:href="#DejaVuSans-32" transform="translate(666.508789 -15.625) scale(0.7)"/>
    </g>
   </g>
   <g id="text_3">
    <!-- $\mathbf{r}'=\mathbf{r}+\mathbf{R}_{\ell}$ -->
    <g style="fill: #2ca02c" transform="translate(240.836616 127.791059) scale(0.13 -0.13)">
     <defs>
      <path id="Cmsy10-30" d="M 225 347 
Q 184 359 184 409 
L 966 3316 
Q 1003 3434 1093 3506 
Q 1184 3578 1300 3578 
Q 1450 3578 1564 3479 
Q 1678 3381 1678 3231 
Q 1678 3166 1644 3084 
L 488 319 
Q 466 275 428 275 
Q 394 275 320 306 
Q 247 338 225 347 
z
" transform="scale(0.015625)"/>
     </defs>
     <use xlink:href="#DejaVuSans-Bold-72" transform="translate(0 0.584375)"/>
     <use xlink:href="#Cmsy10-30" transform="translate(50.273438 38.865625) scale(0.7)"/>
     <use xlink:href="#DejaVuSans-3d" transform="translate(91.733398 0.584375)"/>
     <use xlink:href="#DejaVuSans-Bold-72" transform="translate(195.004883 0.584375)"/>
     <use xlink:href="#DejaVuSans-2b" transform="translate(263.803711 0.584375)"/>
     <use xlink:href="#DejaVuSans-Bold-52" transform="translate(367.075195 0.584375)"/>
     <use xlink:href="#DejaVuSans-Oblique-2113" transform="translate(445.03418 -15.821875) scale(0.7)"/>
    </g>
   </g>
   <g id="patch_8">
    <path d="M 283.65207 287.806118 
Q 302.521767 287.806118 319.379002 287.806118 
" style="fill: none; stroke: #d62728; stroke-width: 1.8; stroke-linecap: round"/>
    <path d="M 315.379002 285.806118 
L 319.379002 287.806118 
L 315.379002 289.806118 
z
" style="fill: #d62728; stroke: #d62728; stroke-width: 1.8; stroke-linecap: round"/>
   </g>
   <g id="patch_9">
    <path d="M 281.652051 285.806099 
Q 281.652051 266.936403 281.652051 250.079167 
" style="fill: none; stroke: #9467bd; stroke-width: 1.8; stroke-linecap: round"/>
    <path d="M 279.652051 254.079167 
L 281.652051 250.079167 
L 283.652051 254.079167 
z
" style="fill: #9467bd; stroke: #9467bd; stroke-width: 1.8; stroke-linecap: round"/>
   </g>
   <g id="text_4">
    <!-- $\mathbf{a}_1$ -->
    <g style="fill: #d62728" transform="translate(324.322734 299.401412) scale(0.12 -0.12)">
     <use xlink:href="#DejaVuSans-Bold-61"/>
     <use xlink:href="#DejaVuSans-31" transform="translate(68.4375 -16.40625) scale(0.7)"/>
    </g>
   </g>
   <g id="text_5">
    <!-- $\mathbf{a}_2$ -->
    <g style="fill: #9467bd" transform="translate(265.41864 245.135435) scale(0.12 -0.12)">
     <use xlink:href="#DejaVuSans-Bold-61"/>
     <use xlink:href="#DejaVuSans-32" transform="translate(68.4375 -16.40625) scale(0.7)"/>
    </g>
   </g>
   <g id="text_6">
    <!-- Translational invariance of a square lattice -->
    <g transform="translate(14.561328 21.114353) scale(0.15 -0.15)">
     <defs>
      <path id="DejaVuSans-Bold-54" d="M 31 4666 
L 4331 4666 
L 4331 3756 
L 2784 3756 
L 2784 0 
L 1581 0 
L 1581 3756 
L 31 3756 
L 31 4666 
z
" transform="scale(0.015625)"/>
      <path id="DejaVuSans-Bold-6e" d="M 4056 2131 
L 4056 0 
L 2931 0 
L 2931 347 
L 2931 1631 
Q 2931 2084 2911 2256 
Q 2891 2428 2841 2509 
Q 2775 2619 2662 2680 
Q 2550 2741 2406 2741 
Q 2056 2741 1856 2470 
Q 1656 2200 1656 1722 
L 1656 0 
L 538 0 
L 538 3500 
L 1656 3500 
L 1656 2988 
Q 1909 3294 2193 3439 
Q 2478 3584 2822 3584 
Q 3428 3584 3742 3212 
Q 4056 2841 4056 2131 
z
" transform="scale(0.015625)"/>
      <path id="DejaVuSans-Bold-73" d="M 3272 3391 
L 3272 2541 
Q 2913 2691 2578 2766 
Q 2244 2841 1947 2841 
Q 1628 2841 1473 2761 
Q 1319 2681 1319 2516 
Q 1319 2381 1436 2309 
Q 1553 2238 1856 2203 
L 2053 2175 
Q 2913 2066 3209 1816 
Q 3506 1566 3506 1031 
Q 3506 472 3093 190 
Q 2681 -91 1863 -91 
Q 1516 -91 1145 -36 
Q 775 19 384 128 
L 384 978 
Q 719 816 1070 734 
Q 1422 653 1784 653 
Q 2113 653 2278 743 
Q 2444 834 2444 1013 
Q 2444 1163 2330 1236 
Q 2216 1309 1875 1350 
L 1678 1375 
Q 931 1469 631 1722 
Q 331 1975 331 2491 
Q 331 3047 712 3315 
Q 1094 3584 1881 3584 
Q 2191 3584 2531 3537 
Q 2872 3491 3272 3391 
z
" transform="scale(0.015625)"/>
      <path id="DejaVuSans-Bold-6c" d="M 538 4863 
L 1656 4863 
L 1656 0 
L 538 0 
L 538 4863 
z
" transform="scale(0.015625)"/>
      <path id="DejaVuSans-Bold-74" d="M 1759 4494 
L 1759 3500 
L 2913 3500 
L 2913 2700 
L 1759 2700 
L 1759 1216 
Q 1759 972 1856 886 
Q 1953 800 2241 800 
L 2816 800 
L 2816 0 
L 1856 0 
Q 1194 0 917 276 
Q 641 553 641 1216 
L 641 2700 
L 84 2700 
L 84 3500 
L 641 3500 
L 641 4494 
L 1759 4494 
z
" transform="scale(0.015625)"/>
      <path id="DejaVuSans-Bold-69" d="M 538 3500 
L 1656 3500 
L 1656 0 
L 538 0 
L 538 3500 
z
M 538 4863 
L 1656 4863 
L 1656 3950 
L 538 3950 
L 538 4863 
z
" transform="scale(0.015625)"/>
      <path id="DejaVuSans-Bold-6f" d="M 2203 2784 
Q 1831 2784 1636 2517 
Q 1441 2250 1441 1747 
Q 1441 1244 1636 976 
Q 1831 709 2203 709 
Q 2569 709 2762 976 
Q 2956 1244 2956 1747 
Q 2956 2250 2762 2517 
Q 2569 2784 2203 2784 
z
M 2203 3584 
Q 3106 3584 3614 3096 
Q 4122 2609 4122 1747 
Q 4122 884 3614 396 
Q 3106 -91 2203 -91 
Q 1297 -91 786 396 
Q 275 884 275 1747 
Q 275 2609 786 3096 
Q 1297 3584 2203 3584 
z
" transform="scale(0.015625)"/>
      <path id="DejaVuSans-Bold-20" transform="scale(0.015625)"/>
      <path id="DejaVuSans-Bold-76" d="M 97 3500 
L 1216 3500 
L 2088 1081 
L 2956 3500 
L 4078 3500 
L 2700 0 
L 1472 0 
L 97 3500 
z
" transform="scale(0.015625)"/>
      <path id="DejaVuSans-Bold-63" d="M 3366 3391 
L 3366 2478 
Q 3138 2634 2908 2709 
Q 2678 2784 2431 2784 
Q 1963 2784 1702 2511 
Q 1441 2238 1441 1747 
Q 1441 1256 1702 982 
Q 1963 709 2431 709 
Q 2694 709 2930 787 
Q 3166 866 3366 1019 
L 3366 103 
Q 3103 6 2833 -42 
Q 2563 -91 2291 -91 
Q 1344 -91 809 395 
Q 275 881 275 1747 
Q 275 2613 809 3098 
Q 1344 3584 2291 3584 
Q 2566 3584 2833 3536 
Q 3100 3488 3366 3391 
z
" transform="scale(0.015625)"/>
      <path id="DejaVuSans-Bold-65" d="M 4031 1759 
L 4031 1441 
L 1416 1441 
Q 1456 1047 1700 850 
Q 1944 653 2381 653 
Q 2734 653 3104 758 
Q 3475 863 3866 1075 
L 3866 213 
Q 3469 63 3072 -14 
Q 2675 -91 2278 -91 
Q 1328 -91 801 392 
Q 275 875 275 1747 
Q 275 2603 792 3093 
Q 1309 3584 2216 3584 
Q 3041 3584 3536 3087 
Q 4031 2591 4031 1759 
z
M 2881 2131 
Q 2881 2450 2695 2645 
Q 2509 2841 2209 2841 
Q 1884 2841 1681 2658 
Q 1478 2475 1428 2131 
L 2881 2131 
z
" transform="scale(0.015625)"/>
      <path id="DejaVuSans-Bold-66" d="M 2841 4863 
L 2841 4128 
L 2222 4128 
Q 1984 4128 1890 4042 
Q 1797 3956 1797 3744 
L 1797 3500 
L 2753 3500 
L 2753 2700 
L 1797 2700 
L 1797 0 
L 678 0 
L 678 2700 
L 122 2700 
L 122 3500 
L 678 3500 
L 678 3744 
Q 678 4316 997 4589 
Q 1316 4863 1984 4863 
L 2841 4863 
z
" transform="scale(0.015625)"/>
      <path id="DejaVuSans-Bold-71" d="M 2181 2772 
Q 1825 2772 1636 2509 
Q 1447 2247 1447 1747 
Q 1447 1247 1636 984 
Q 1825 722 2181 722 
Q 2541 722 2730 984 
Q 2919 1247 2919 1747 
Q 2919 2247 2730 2509 
Q 2541 2772 2181 2772 
z
M 2919 506 
Q 2688 197 2409 53 
Q 2131 -91 1766 -91 
Q 1119 -91 703 423 
Q 288 938 288 1747 
Q 288 2556 703 3067 
Q 1119 3578 1766 3578 
Q 2131 3578 2409 3434 
Q 2688 3291 2919 2981 
L 2919 3500 
L 4044 3500 
L 4044 -1331 
L 2919 -1331 
L 2919 506 
z
" transform="scale(0.015625)"/>
      <path id="DejaVuSans-Bold-75" d="M 500 1363 
L 500 3500 
L 1625 3500 
L 1625 3150 
Q 1625 2866 1622 2436 
Q 1619 2006 1619 1863 
Q 1619 1441 1641 1255 
Q 1663 1069 1716 984 
Q 1784 875 1895 815 
Q 2006 756 2150 756 
Q 2500 756 2700 1025 
Q 2900 1294 2900 1772 
L 2900 3500 
L 4019 3500 
L 4019 0 
L 2900 0 
L 2900 506 
Q 2647 200 2364 54 
Q 2081 -91 1741 -91 
Q 1134 -91 817 281 
Q 500 653 500 1363 
z
" transform="scale(0.015625)"/>
     </defs>
     <use xlink:href="#DejaVuSans-Bold-54"/>
     <use xlink:href="#DejaVuSans-Bold-72" transform="translate(57.212891 0)"/>
     <use xlink:href="#DejaVuSans-Bold-61" transform="translate(106.529297 0)"/>
     <use xlink:href="#DejaVuSans-Bold-6e" transform="translate(174.009766 0)"/>
     <use xlink:href="#DejaVuSans-Bold-73" transform="translate(245.201172 0)"/>
     <use xlink:href="#DejaVuSans-Bold-6c" transform="translate(304.722656 0)"/>
     <use xlink:href="#DejaVuSans-Bold-61" transform="translate(339 0)"/>
     <use xlink:href="#DejaVuSans-Bold-74" transform="translate(406.480469 0)"/>
     <use xlink:href="#DejaVuSans-Bold-69" transform="translate(454.283203 0)"/>
     <use xlink:href="#DejaVuSans-Bold-6f" transform="translate(488.560547 0)"/>
     <use xlink:href="#DejaVuSans-Bold-6e" transform="translate(557.261719 0)"/>
     <use xlink:href="#DejaVuSans-Bold-61" transform="translate(628.453125 0)"/>
     <use xlink:href="#DejaVuSans-Bold-6c" transform="translate(695.933594 0)"/>
     <use xlink:href="#DejaVuSans-Bold-20" transform="translate(730.210938 0)"/>
     <use xlink:href="#DejaVuSans-Bold-69" transform="translate(765.025391 0)"/>
     <use xlink:href="#DejaVuSans-Bold-6e" transform="translate(799.302734 0)"/>
     <use xlink:href="#DejaVuSans-Bold-76" transform="translate(870.494141 0)"/>
     <use xlink:href="#DejaVuSans-Bold-61" transform="translate(935.679688 0)"/>
     <use xlink:href="#DejaVuSans-Bold-72" transform="translate(1003.160156 0)"/>
     <use xlink:href="#DejaVuSans-Bold-69" transform="translate(1052.476562 0)"/>
     <use xlink:href="#DejaVuSans-Bold-61" transform="translate(1086.753906 0)"/>
     <use xlink:href="#DejaVuSans-Bold-6e" transform="translate(1154.234375 0)"/>
     <use xlink:href="#DejaVuSans-Bold-63" transform="translate(1225.425781 0)"/>
     <use xlink:href="#DejaVuSans-Bold-65" transform="translate(1284.703125 0)"/>
     <use xlink:href="#DejaVuSans-Bold-20" transform="translate(1352.525391 0)"/>
     <use xlink:href="#DejaVuSans-Bold-6f" transform="translate(1387.339844 0)"/>
     <use xlink:href="#DejaVuSans-Bold-66" transform="translate(1456.041016 0)"/>
     <use xlink:href="#DejaVuSans-Bold-20" transform="translate(1499.546875 0)"/>
     <use xlink:href="#DejaVuSans-Bold-61" transform="translate(1534.361328 0)"/>
     <use xlink:href="#DejaVuSans-Bold-20" transform="translate(1601.841797 0)"/>
     <use xlink:href="#DejaVuSans-Bold-73" transform="translate(1636.65625 0)"/>
     <use xlink:href="#DejaVuSans-Bold-71" transform="translate(1696.177734 0)"/>
     <use xlink:href="#DejaVuSans-Bold-75" transform="translate(1767.759766 0)"/>
     <use xlink:href="#DejaVuSans-Bold-61" transform="translate(1838.951172 0)"/>
     <use xlink:href="#DejaVuSans-Bold-72" transform="translate(1906.431641 0)"/>
     <use xlink:href="#DejaVuSans-Bold-65" transform="translate(1955.748047 0)"/>
     <use xlink:href="#DejaVuSans-Bold-20" transform="translate(2023.570312 0)"/>
     <use xlink:href="#DejaVuSans-Bold-6c" transform="translate(2058.384766 0)"/>
     <use xlink:href="#DejaVuSans-Bold-61" transform="translate(2092.662109 0)"/>
     <use xlink:href="#DejaVuSans-Bold-74" transform="translate(2160.142578 0)"/>
     <use xlink:href="#DejaVuSans-Bold-74" transform="translate(2207.945312 0)"/>
     <use xlink:href="#DejaVuSans-Bold-69" transform="translate(2255.748047 0)"/>
     <use xlink:href="#DejaVuSans-Bold-63" transform="translate(2290.025391 0)"/>
     <use xlink:href="#DejaVuSans-Bold-65" transform="translate(2349.302734 0)"/>
    </g>
   </g>
   <g id="text_7">
    <!-- Positions separated by a lattice vector have equivalent local environments. -->
    <g transform="translate(7.2 355.058824) scale(0.1 -0.1)">
     <defs>
      <path id="DejaVuSans-50" d="M 1259 4147 
L 1259 2394 
L 2053 2394 
Q 2494 2394 2734 2622 
Q 2975 2850 2975 3272 
Q 2975 3691 2734 3919 
Q 2494 4147 2053 4147 
L 1259 4147 
z
M 628 4666 
L 2053 4666 
Q 2838 4666 3239 4311 
Q 3641 3956 3641 3272 
Q 3641 2581 3239 2228 
Q 2838 1875 2053 1875 
L 1259 1875 
L 1259 0 
L 628 0 
L 628 4666 
z
" transform="scale(0.015625)"/>
      <path id="DejaVuSans-6f" d="M 1959 3097 
Q 1497 3097 1228 2736 
Q 959 2375 959 1747 
Q 959 1119 1226 758 
Q 1494 397 1959 397 
Q 2419 397 2687 759 
Q 2956 1122 2956 1747 
Q 2956 2369 2687 2733 
Q 2419 3097 1959 3097 
z
M 1959 3584 
Q 2709 3584 3137 3096 
Q 3566 2609 3566 1747 
Q 3566 888 3137 398 
Q 2709 -91 1959 -91 
Q 1206 -91 779 398 
Q 353 888 353 1747 
Q 353 2609 779 3096 
Q 1206 3584 1959 3584 
z
" transform="scale(0.015625)"/>
      <path id="DejaVuSans-73" d="M 2834 3397 
L 2834 2853 
Q 2591 2978 2328 3040 
Q 2066 3103 1784 3103 
Q 1356 3103 1142 2972 
Q 928 2841 928 2578 
Q 928 2378 1081 2264 
Q 1234 2150 1697 2047 
L 1894 2003 
Q 2506 1872 2764 1633 
Q 3022 1394 3022 966 
Q 3022 478 2636 193 
Q 2250 -91 1575 -91 
Q 1294 -91 989 -36 
Q 684 19 347 128 
L 347 722 
Q 666 556 975 473 
Q 1284 391 1588 391 
Q 1994 391 2212 530 
Q 2431 669 2431 922 
Q 2431 1156 2273 1281 
Q 2116 1406 1581 1522 
L 1381 1569 
Q 847 1681 609 1914 
Q 372 2147 372 2553 
Q 372 3047 722 3315 
Q 1072 3584 1716 3584 
Q 2034 3584 2315 3537 
Q 2597 3491 2834 3397 
z
" transform="scale(0.015625)"/>
      <path id="DejaVuSans-69" d="M 603 3500 
L 1178 3500 
L 1178 0 
L 603 0 
L 603 3500 
z
M 603 4863 
L 1178 4863 
L 1178 4134 
L 603 4134 
L 603 4863 
z
" transform="scale(0.015625)"/>
      <path id="DejaVuSans-74" d="M 1172 4494 
L 1172 3500 
L 2356 3500 
L 2356 3053 
L 1172 3053 
L 1172 1153 
Q 1172 725 1289 603 
Q 1406 481 1766 481 
L 2356 481 
L 2356 0 
L 1766 0 
Q 1100 0 847 248 
Q 594 497 594 1153 
L 594 3053 
L 172 3053 
L 172 3500 
L 594 3500 
L 594 4494 
L 1172 4494 
z
" transform="scale(0.015625)"/>
      <path id="DejaVuSans-6e" d="M 3513 2113 
L 3513 0 
L 2938 0 
L 2938 2094 
Q 2938 2591 2744 2837 
Q 2550 3084 2163 3084 
Q 1697 3084 1428 2787 
Q 1159 2491 1159 1978 
L 1159 0 
L 581 0 
L 581 3500 
L 1159 3500 
L 1159 2956 
Q 1366 3272 1645 3428 
Q 1925 3584 2291 3584 
Q 2894 3584 3203 3211 
Q 3513 2838 3513 2113 
z
" transform="scale(0.015625)"/>
      <path id="DejaVuSans-20" transform="scale(0.015625)"/>
      <path id="DejaVuSans-65" d="M 3597 1894 
L 3597 1613 
L 953 1613 
Q 991 1019 1311 708 
Q 1631 397 2203 397 
Q 2534 397 2845 478 
Q 3156 559 3463 722 
L 3463 178 
Q 3153 47 2828 -22 
Q 2503 -91 2169 -91 
Q 1331 -91 842 396 
Q 353 884 353 1716 
Q 353 2575 817 3079 
Q 1281 3584 2069 3584 
Q 2775 3584 3186 3129 
Q 3597 2675 3597 1894 
z
M 3022 2063 
Q 3016 2534 2758 2815 
Q 2500 3097 2075 3097 
Q 1594 3097 1305 2825 
Q 1016 2553 972 2059 
L 3022 2063 
z
" transform="scale(0.015625)"/>
      <path id="DejaVuSans-70" d="M 1159 525 
L 1159 -1331 
L 581 -1331 
L 581 3500 
L 1159 3500 
L 1159 2969 
Q 1341 3281 1617 3432 
Q 1894 3584 2278 3584 
Q 2916 3584 3314 3078 
Q 3713 2572 3713 1747 
Q 3713 922 3314 415 
Q 2916 -91 2278 -91 
Q 1894 -91 1617 61 
Q 1341 213 1159 525 
z
M 3116 1747 
Q 3116 2381 2855 2742 
Q 2594 3103 2138 3103 
Q 1681 3103 1420 2742 
Q 1159 2381 1159 1747 
Q 1159 1113 1420 752 
Q 1681 391 2138 391 
Q 2594 391 2855 752 
Q 3116 1113 3116 1747 
z
" transform="scale(0.015625)"/>
      <path id="DejaVuSans-61" d="M 2194 1759 
Q 1497 1759 1228 1600 
Q 959 1441 959 1056 
Q 959 750 1161 570 
Q 1363 391 1709 391 
Q 2188 391 2477 730 
Q 2766 1069 2766 1631 
L 2766 1759 
L 2194 1759 
z
M 3341 1997 
L 3341 0 
L 2766 0 
L 2766 531 
Q 2569 213 2275 61 
Q 1981 -91 1556 -91 
Q 1019 -91 701 211 
Q 384 513 384 1019 
Q 384 1609 779 1909 
Q 1175 2209 1959 2209 
L 2766 2209 
L 2766 2266 
Q 2766 2663 2505 2880 
Q 2244 3097 1772 3097 
Q 1472 3097 1187 3025 
Q 903 2953 641 2809 
L 641 3341 
Q 956 3463 1253 3523 
Q 1550 3584 1831 3584 
Q 2591 3584 2966 3190 
Q 3341 2797 3341 1997 
z
" transform="scale(0.015625)"/>
      <path id="DejaVuSans-72" d="M 2631 2963 
Q 2534 3019 2420 3045 
Q 2306 3072 2169 3072 
Q 1681 3072 1420 2755 
Q 1159 2438 1159 1844 
L 1159 0 
L 581 0 
L 581 3500 
L 1159 3500 
L 1159 2956 
Q 1341 3275 1631 3429 
Q 1922 3584 2338 3584 
Q 2397 3584 2469 3576 
Q 2541 3569 2628 3553 
L 2631 2963 
z
" transform="scale(0.015625)"/>
      <path id="DejaVuSans-64" d="M 2906 2969 
L 2906 4863 
L 3481 4863 
L 3481 0 
L 2906 0 
L 2906 525 
Q 2725 213 2448 61 
Q 2172 -91 1784 -91 
Q 1150 -91 751 415 
Q 353 922 353 1747 
Q 353 2572 751 3078 
Q 1150 3584 1784 3584 
Q 2172 3584 2448 3432 
Q 2725 3281 2906 2969 
z
M 947 1747 
Q 947 1113 1208 752 
Q 1469 391 1925 391 
Q 2381 391 2643 752 
Q 2906 1113 2906 1747 
Q 2906 2381 2643 2742 
Q 2381 3103 1925 3103 
Q 1469 3103 1208 2742 
Q 947 2381 947 1747 
z
" transform="scale(0.015625)"/>
      <path id="DejaVuSans-62" d="M 3116 1747 
Q 3116 2381 2855 2742 
Q 2594 3103 2138 3103 
Q 1681 3103 1420 2742 
Q 1159 2381 1159 1747 
Q 1159 1113 1420 752 
Q 1681 391 2138 391 
Q 2594 391 2855 752 
Q 3116 1113 3116 1747 
z
M 1159 2969 
Q 1341 3281 1617 3432 
Q 1894 3584 2278 3584 
Q 2916 3584 3314 3078 
Q 3713 2572 3713 1747 
Q 3713 922 3314 415 
Q 2916 -91 2278 -91 
Q 1894 -91 1617 61 
Q 1341 213 1159 525 
L 1159 0 
L 581 0 
L 581 4863 
L 1159 4863 
L 1159 2969 
z
" transform="scale(0.015625)"/>
      <path id="DejaVuSans-79" d="M 2059 -325 
Q 1816 -950 1584 -1140 
Q 1353 -1331 966 -1331 
L 506 -1331 
L 506 -850 
L 844 -850 
Q 1081 -850 1212 -737 
Q 1344 -625 1503 -206 
L 1606 56 
L 191 3500 
L 800 3500 
L 1894 763 
L 2988 3500 
L 3597 3500 
L 2059 -325 
z
" transform="scale(0.015625)"/>
      <path id="DejaVuSans-6c" d="M 603 4863 
L 1178 4863 
L 1178 0 
L 603 0 
L 603 4863 
z
" transform="scale(0.015625)"/>
      <path id="DejaVuSans-63" d="M 3122 3366 
L 3122 2828 
Q 2878 2963 2633 3030 
Q 2388 3097 2138 3097 
Q 1578 3097 1268 2742 
Q 959 2388 959 1747 
Q 959 1106 1268 751 
Q 1578 397 2138 397 
Q 2388 397 2633 464 
Q 2878 531 3122 666 
L 3122 134 
Q 2881 22 2623 -34 
Q 2366 -91 2075 -91 
Q 1284 -91 818 406 
Q 353 903 353 1747 
Q 353 2603 823 3093 
Q 1294 3584 2113 3584 
Q 2378 3584 2631 3529 
Q 2884 3475 3122 3366 
z
" transform="scale(0.015625)"/>
      <path id="DejaVuSans-76" d="M 191 3500 
L 800 3500 
L 1894 563 
L 2988 3500 
L 3597 3500 
L 2284 0 
L 1503 0 
L 191 3500 
z
" transform="scale(0.015625)"/>
      <path id="DejaVuSans-68" d="M 3513 2113 
L 3513 0 
L 2938 0 
L 2938 2094 
Q 2938 2591 2744 2837 
Q 2550 3084 2163 3084 
Q 1697 3084 1428 2787 
Q 1159 2491 1159 1978 
L 1159 0 
L 581 0 
L 581 4863 
L 1159 4863 
L 1159 2956 
Q 1366 3272 1645 3428 
Q 1925 3584 2291 3584 
Q 2894 3584 3203 3211 
Q 3513 2838 3513 2113 
z
" transform="scale(0.015625)"/>
      <path id="DejaVuSans-71" d="M 947 1747 
Q 947 1113 1208 752 
Q 1469 391 1925 391 
Q 2381 391 2643 752 
Q 2906 1113 2906 1747 
Q 2906 2381 2643 2742 
Q 2381 3103 1925 3103 
Q 1469 3103 1208 2742 
Q 947 2381 947 1747 
z
M 2906 525 
Q 2725 213 2448 61 
Q 2172 -91 1784 -91 
Q 1150 -91 751 415 
Q 353 922 353 1747 
Q 353 2572 751 3078 
Q 1150 3584 1784 3584 
Q 2172 3584 2448 3432 
Q 2725 3281 2906 2969 
L 2906 3500 
L 3481 3500 
L 3481 -1331 
L 2906 -1331 
L 2906 525 
z
" transform="scale(0.015625)"/>
      <path id="DejaVuSans-75" d="M 544 1381 
L 544 3500 
L 1119 3500 
L 1119 1403 
Q 1119 906 1312 657 
Q 1506 409 1894 409 
Q 2359 409 2629 706 
Q 2900 1003 2900 1516 
L 2900 3500 
L 3475 3500 
L 3475 0 
L 2900 0 
L 2900 538 
Q 2691 219 2414 64 
Q 2138 -91 1772 -91 
Q 1169 -91 856 284 
Q 544 659 544 1381 
z
M 1991 3584 
L 1991 3584 
z
" transform="scale(0.015625)"/>
      <path id="DejaVuSans-6d" d="M 3328 2828 
Q 3544 3216 3844 3400 
Q 4144 3584 4550 3584 
Q 5097 3584 5394 3201 
Q 5691 2819 5691 2113 
L 5691 0 
L 5113 0 
L 5113 2094 
Q 5113 2597 4934 2840 
Q 4756 3084 4391 3084 
Q 3944 3084 3684 2787 
Q 3425 2491 3425 1978 
L 3425 0 
L 2847 0 
L 2847 2094 
Q 2847 2600 2669 2842 
Q 2491 3084 2119 3084 
Q 1678 3084 1418 2786 
Q 1159 2488 1159 1978 
L 1159 0 
L 581 0 
L 581 3500 
L 1159 3500 
L 1159 2956 
Q 1356 3278 1631 3431 
Q 1906 3584 2284 3584 
Q 2666 3584 2933 3390 
Q 3200 3197 3328 2828 
z
" transform="scale(0.015625)"/>
      <path id="DejaVuSans-2e" d="M 684 794 
L 1344 794 
L 1344 0 
L 684 0 
L 684 794 
z
" transform="scale(0.015625)"/>
     </defs>
     <use xlink:href="#DejaVuSans-50"/>
     <use xlink:href="#DejaVuSans-6f" transform="translate(56.677734 0)"/>
     <use xlink:href="#DejaVuSans-73" transform="translate(117.859375 0)"/>
     <use xlink:href="#DejaVuSans-69" transform="translate(169.958984 0)"/>
     <use xlink:href="#DejaVuSans-74" transform="translate(197.742188 0)"/>
     <use xlink:href="#DejaVuSans-69" transform="translate(236.951172 0)"/>
     <use xlink:href="#DejaVuSans-6f" transform="translate(264.734375 0)"/>
     <use xlink:href="#DejaVuSans-6e" transform="translate(325.916016 0)"/>
     <use xlink:href="#DejaVuSans-73" transform="translate(389.294922 0)"/>
     <use xlink:href="#DejaVuSans-20" transform="translate(441.394531 0)"/>
     <use xlink:href="#DejaVuSans-73" transform="translate(473.181641 0)"/>
     <use xlink:href="#DejaVuSans-65" transform="translate(525.28125 0)"/>
     <use xlink:href="#DejaVuSans-70" transform="translate(586.804688 0)"/>
     <use xlink:href="#DejaVuSans-61" transform="translate(650.28125 0)"/>
     <use xlink:href="#DejaVuSans-72" transform="translate(711.560547 0)"/>
     <use xlink:href="#DejaVuSans-61" transform="translate(752.673828 0)"/>
     <use xlink:href="#DejaVuSans-74" transform="translate(813.953125 0)"/>
     <use xlink:href="#DejaVuSans-65" transform="translate(853.162109 0)"/>
     <use xlink:href="#DejaVuSans-64" transform="translate(914.685547 0)"/>
     <use xlink:href="#DejaVuSans-20" transform="translate(978.162109 0)"/>
     <use xlink:href="#DejaVuSans-62" transform="translate(1009.949219 0)"/>
     <use xlink:href="#DejaVuSans-79" transform="translate(1073.425781 0)"/>
     <use xlink:href="#DejaVuSans-20" transform="translate(1132.605469 0)"/>
     <use xlink:href="#DejaVuSans-61" transform="translate(1164.392578 0)"/>
     <use xlink:href="#DejaVuSans-20" transform="translate(1225.671875 0)"/>
     <use xlink:href="#DejaVuSans-6c" transform="translate(1257.458984 0)"/>
     <use xlink:href="#DejaVuSans-61" transform="translate(1285.242188 0)"/>
     <use xlink:href="#DejaVuSans-74" transform="translate(1346.521484 0)"/>
     <use xlink:href="#DejaVuSans-74" transform="translate(1385.730469 0)"/>
     <use xlink:href="#DejaVuSans-69" transform="translate(1424.939453 0)"/>
     <use xlink:href="#DejaVuSans-63" transform="translate(1452.722656 0)"/>
     <use xlink:href="#DejaVuSans-65" transform="translate(1507.703125 0)"/>
     <use xlink:href="#DejaVuSans-20" transform="translate(1569.226562 0)"/>
     <use xlink:href="#DejaVuSans-76" transform="translate(1601.013672 0)"/>
     <use xlink:href="#DejaVuSans-65" transform="translate(1660.193359 0)"/>
     <use xlink:href="#DejaVuSans-63" transform="translate(1721.716797 0)"/>
     <use xlink:href="#DejaVuSans-74" transform="translate(1776.697266 0)"/>
     <use xlink:href="#DejaVuSans-6f" transform="translate(1815.90625 0)"/>
     <use xlink:href="#DejaVuSans-72" transform="translate(1877.087891 0)"/>
     <use xlink:href="#DejaVuSans-20" transform="translate(1918.201172 0)"/>
     <use xlink:href="#DejaVuSans-68" transform="translate(1949.988281 0)"/>
     <use xlink:href="#DejaVuSans-61" transform="translate(2013.367188 0)"/>
     <use xlink:href="#DejaVuSans-76" transform="translate(2074.646484 0)"/>
     <use xlink:href="#DejaVuSans-65" transform="translate(2133.826172 0)"/>
     <use xlink:href="#DejaVuSans-20" transform="translate(2195.349609 0)"/>
     <use xlink:href="#DejaVuSans-65" transform="translate(2227.136719 0)"/>
     <use xlink:href="#DejaVuSans-71" transform="translate(2288.660156 0)"/>
     <use xlink:href="#DejaVuSans-75" transform="translate(2352.136719 0)"/>
     <use xlink:href="#DejaVuSans-69" transform="translate(2415.515625 0)"/>
     <use xlink:href="#DejaVuSans-76" transform="translate(2443.298828 0)"/>
     <use xlink:href="#DejaVuSans-61" transform="translate(2502.478516 0)"/>
     <use xlink:href="#DejaVuSans-6c" transform="translate(2563.757812 0)"/>
     <use xlink:href="#DejaVuSans-65" transform="translate(2591.541016 0)"/>
     <use xlink:href="#DejaVuSans-6e" transform="translate(2653.064453 0)"/>
     <use xlink:href="#DejaVuSans-74" transform="translate(2716.443359 0)"/>
     <use xlink:href="#DejaVuSans-20" transform="translate(2755.652344 0)"/>
     <use xlink:href="#DejaVuSans-6c" transform="translate(2787.439453 0)"/>
     <use xlink:href="#DejaVuSans-6f" transform="translate(2815.222656 0)"/>
     <use xlink:href="#DejaVuSans-63" transform="translate(2876.404297 0)"/>
     <use xlink:href="#DejaVuSans-61" transform="translate(2931.384766 0)"/>
     <use xlink:href="#DejaVuSans-6c" transform="translate(2992.664062 0)"/>
     <use xlink:href="#DejaVuSans-20" transform="translate(3020.447266 0)"/>
     <use xlink:href="#DejaVuSans-65" transform="translate(3052.234375 0)"/>
     <use xlink:href="#DejaVuSans-6e" transform="translate(3113.757812 0)"/>
     <use xlink:href="#DejaVuSans-76" transform="translate(3177.136719 0)"/>
     <use xlink:href="#DejaVuSans-69" transform="translate(3236.316406 0)"/>
     <use xlink:href="#DejaVuSans-72" transform="translate(3264.099609 0)"/>
     <use xlink:href="#DejaVuSans-6f" transform="translate(3302.962891 0)"/>
     <use xlink:href="#DejaVuSans-6e" transform="translate(3364.144531 0)"/>
     <use xlink:href="#DejaVuSans-6d" transform="translate(3427.523438 0)"/>
     <use xlink:href="#DejaVuSans-65" transform="translate(3524.935547 0)"/>
     <use xlink:href="#DejaVuSans-6e" transform="translate(3586.458984 0)"/>
     <use xlink:href="#DejaVuSans-74" transform="translate(3649.837891 0)"/>
     <use xlink:href="#DejaVuSans-73" transform="translate(3689.046875 0)"/>
     <use xlink:href="#DejaVuSans-2e" transform="translate(3741.146484 0)"/>
    </g>
   </g>
  </g>
 </g>
 <defs>
  <clipPath id="p47864a074e">
   <rect x="12.641228" y="7.2" width="354.816" height="354.816"/>
  </clipPath>
 </defs>
</svg>
