<?xml version="1.0" encoding="utf-8" standalone="no"?>
<!DOCTYPE svg PUBLIC "-//W3C//DTD SVG 1.1//EN"
  "http://www.w3.org/Graphics/SVG/1.1/DTD/svg11.dtd">
<svg xmlns:xlink="http://www.w3.org/1999/xlink" width="704.240382pt" height="312.048pt" viewBox="0 0 704.240382 312.048" xmlns="http://www.w3.org/2000/svg" version="1.1">
 <metadata>
  <rdf:RDF xmlns:dc="http://purl.org/dc/elements/1.1/" xmlns:cc="http://creativecommons.org/ns#" xmlns:rdf="http://www.w3.org/1999/02/22-rdf-syntax-ns#">
   <cc:Work>
    <dc:type rdf:resource="http://purl.org/dc/dcmitype/StillImage"/>
    <dc:date>2026-06-16T08:00:48.677553</dc:date>
    <dc:format>image/svg+xml</dc:format>
    <dc:creator>
     <cc:Agent>
      <dc:title>Matplotlib v3.10.8, https://matplotlib.org/</dc:title>
     </cc:Agent>
    </dc:creator>
   </cc:Work>
  </rdf:RDF>
 </metadata>
 <defs>
  <style type="text/css">*{stroke-linejoin: round; stroke-linecap: butt}</style>
 </defs>
 <g id="figure_1">
  <g id="patch_1">
   <path d="M -0 312.048 
L 704.240382 312.048 
L 704.240382 0 
L -0 0 
z
" style="fill: #ffffff"/>
  </g>
  <g id="axes_1">
   <g id="patch_2">
    <path d="M 7.2 302.395853 
L 251.152941 302.395853 
L 251.152941 58.442912 
L 7.2 58.442912 
z
" style="fill: #ffffff"/>
   </g>
   <g id="matplotlib.axis_1"/>
   <g id="matplotlib.axis_2"/>
   <g id="line2d_1">
    <path d="M 31.595294 278.000559 
L 226.757647 278.000559 
" clip-path="url(#pcfe79ff83e)" style="fill: none; stroke: #999999; stroke-width: 0.7; stroke-linecap: square"/>
   </g>
   <g id="line2d_2">
    <path d="M 31.595294 278.000559 
L 31.595294 82.838206 
" clip-path="url(#pcfe79ff83e)" style="fill: none; stroke: #999999; stroke-width: 0.7; stroke-linecap: square"/>
   </g>
   <g id="line2d_3">
    <path d="M 31.595294 229.209971 
L 226.757647 229.209971 
" clip-path="url(#pcfe79ff83e)" style="fill: none; stroke: #999999; stroke-width: 0.7; stroke-linecap: square"/>
   </g>
   <g id="line2d_4">
    <path d="M 80.385882 278.000559 
L 80.385882 82.838206 
" clip-path="url(#pcfe79ff83e)" style="fill: none; stroke: #999999; stroke-width: 0.7; stroke-linecap: square"/>
   </g>
   <g id="line2d_5">
    <path d="M 31.595294 180.419382 
L 226.757647 180.419382 
" clip-path="url(#pcfe79ff83e)" style="fill: none; stroke: #999999; stroke-width: 0.7; stroke-linecap: square"/>
   </g>
   <g id="line2d_6">
    <path d="M 129.176471 278.000559 
L 129.176471 82.838206 
" clip-path="url(#pcfe79ff83e)" style="fill: none; stroke: #999999; stroke-width: 0.7; stroke-linecap: square"/>
   </g>
   <g id="line2d_7">
    <path d="M 31.595294 131.628794 
L 226.757647 131.628794 
" clip-path="url(#pcfe79ff83e)" style="fill: none; stroke: #999999; stroke-width: 0.7; stroke-linecap: square"/>
   </g>
   <g id="line2d_8">
    <path d="M 177.967059 278.000559 
L 177.967059 82.838206 
" clip-path="url(#pcfe79ff83e)" style="fill: none; stroke: #999999; stroke-width: 0.7; stroke-linecap: square"/>
   </g>
   <g id="line2d_9">
    <path d="M 31.595294 82.838206 
L 226.757647 82.838206 
" clip-path="url(#pcfe79ff83e)" style="fill: none; stroke: #999999; stroke-width: 0.7; stroke-linecap: square"/>
   </g>
   <g id="line2d_10">
    <path d="M 226.757647 278.000559 
L 226.757647 82.838206 
" clip-path="url(#pcfe79ff83e)" style="fill: none; stroke: #999999; stroke-width: 0.7; stroke-linecap: square"/>
   </g>
   <g id="text_1">
    <!-- square lattice -->
    <g transform="translate(78.446002 52.442912) scale(0.13 -0.13)">
     <defs>
      <path id="DejaVuSans-Bold-73" d="M 3272 3391 
L 3272 2541 
Q 2913 2691 2578 2766 
Q 2244 2841 1947 2841 
Q 1628 2841 1473 2761 
Q 1319 2681 1319 2516 
Q 1319 2381 1436 2309 
Q 1553 2238 1856 2203 
L 2053 2175 
Q 2913 2066 3209 1816 
Q 3506 1566 3506 1031 
Q 3506 472 3093 190 
Q 2681 -91 1863 -91 
Q 1516 -91 1145 -36 
Q 775 19 384 128 
L 384 978 
Q 719 816 1070 734 
Q 1422 653 1784 653 
Q 2113 653 2278 743 
Q 2444 834 2444 1013 
Q 2444 1163 2330 1236 
Q 2216 1309 1875 1350 
L 1678 1375 
Q 931 1469 631 1722 
Q 331 1975 331 2491 
Q 331 3047 712 3315 
Q 1094 3584 1881 3584 
Q 2191 3584 2531 3537 
Q 2872 3491 3272 3391 
z
" transform="scale(0.015625)"/>
      <path id="DejaVuSans-Bold-71" d="M 2181 2772 
Q 1825 2772 1636 2509 
Q 1447 2247 1447 1747 
Q 1447 1247 1636 984 
Q 1825 722 2181 722 
Q 2541 722 2730 984 
Q 2919 1247 2919 1747 
Q 2919 2247 2730 2509 
Q 2541 2772 2181 2772 
z
M 2919 506 
Q 2688 197 2409 53 
Q 2131 -91 1766 -91 
Q 1119 -91 703 423 
Q 288 938 288 1747 
Q 288 2556 703 3067 
Q 1119 3578 1766 3578 
Q 2131 3578 2409 3434 
Q 2688 3291 2919 2981 
L 2919 3500 
L 4044 3500 
L 4044 -1331 
L 2919 -1331 
L 2919 506 
z
" transform="scale(0.015625)"/>
      <path id="DejaVuSans-Bold-75" d="M 500 1363 
L 500 3500 
L 1625 3500 
L 1625 3150 
Q 1625 2866 1622 2436 
Q 1619 2006 1619 1863 
Q 1619 1441 1641 1255 
Q 1663 1069 1716 984 
Q 1784 875 1895 815 
Q 2006 756 2150 756 
Q 2500 756 2700 1025 
Q 2900 1294 2900 1772 
L 2900 3500 
L 4019 3500 
L 4019 0 
L 2900 0 
L 2900 506 
Q 2647 200 2364 54 
Q 2081 -91 1741 -91 
Q 1134 -91 817 281 
Q 500 653 500 1363 
z
" transform="scale(0.015625)"/>
      <path id="DejaVuSans-Bold-61" d="M 2106 1575 
Q 1756 1575 1579 1456 
Q 1403 1338 1403 1106 
Q 1403 894 1545 773 
Q 1688 653 1941 653 
Q 2256 653 2472 879 
Q 2688 1106 2688 1447 
L 2688 1575 
L 2106 1575 
z
M 3816 1997 
L 3816 0 
L 2688 0 
L 2688 519 
Q 2463 200 2181 54 
Q 1900 -91 1497 -91 
Q 953 -91 614 226 
Q 275 544 275 1050 
Q 275 1666 698 1953 
Q 1122 2241 2028 2241 
L 2688 2241 
L 2688 2328 
Q 2688 2594 2478 2717 
Q 2269 2841 1825 2841 
Q 1466 2841 1156 2769 
Q 847 2697 581 2553 
L 581 3406 
Q 941 3494 1303 3539 
Q 1666 3584 2028 3584 
Q 2975 3584 3395 3211 
Q 3816 2838 3816 1997 
z
" transform="scale(0.015625)"/>
      <path id="DejaVuSans-Bold-72" d="M 3138 2547 
Q 2991 2616 2845 2648 
Q 2700 2681 2553 2681 
Q 2122 2681 1889 2404 
Q 1656 2128 1656 1613 
L 1656 0 
L 538 0 
L 538 3500 
L 1656 3500 
L 1656 2925 
Q 1872 3269 2151 3426 
Q 2431 3584 2822 3584 
Q 2878 3584 2943 3579 
Q 3009 3575 3134 3559 
L 3138 2547 
z
" transform="scale(0.015625)"/>
      <path id="DejaVuSans-Bold-65" d="M 4031 1759 
L 4031 1441 
L 1416 1441 
Q 1456 1047 1700 850 
Q 1944 653 2381 653 
Q 2734 653 3104 758 
Q 3475 863 3866 1075 
L 3866 213 
Q 3469 63 3072 -14 
Q 2675 -91 2278 -91 
Q 1328 -91 801 392 
Q 275 875 275 1747 
Q 275 2603 792 3093 
Q 1309 3584 2216 3584 
Q 3041 3584 3536 3087 
Q 4031 2591 4031 1759 
z
M 2881 2131 
Q 2881 2450 2695 2645 
Q 2509 2841 2209 2841 
Q 1884 2841 1681 2658 
Q 1478 2475 1428 2131 
L 2881 2131 
z
" transform="scale(0.015625)"/>
      <path id="DejaVuSans-Bold-20" transform="scale(0.015625)"/>
      <path id="DejaVuSans-Bold-6c" d="M 538 4863 
L 1656 4863 
L 1656 0 
L 538 0 
L 538 4863 
z
" transform="scale(0.015625)"/>
      <path id="DejaVuSans-Bold-74" d="M 1759 4494 
L 1759 3500 
L 2913 3500 
L 2913 2700 
L 1759 2700 
L 1759 1216 
Q 1759 972 1856 886 
Q 1953 800 2241 800 
L 2816 800 
L 2816 0 
L 1856 0 
Q 1194 0 917 276 
Q 641 553 641 1216 
L 641 2700 
L 84 2700 
L 84 3500 
L 641 3500 
L 641 4494 
L 1759 4494 
z
" transform="scale(0.015625)"/>
      <path id="DejaVuSans-Bold-69" d="M 538 3500 
L 1656 3500 
L 1656 0 
L 538 0 
L 538 3500 
z
M 538 4863 
L 1656 4863 
L 1656 3950 
L 538 3950 
L 538 4863 
z
" transform="scale(0.015625)"/>
      <path id="DejaVuSans-Bold-63" d="M 3366 3391 
L 3366 2478 
Q 3138 2634 2908 2709 
Q 2678 2784 2431 2784 
Q 1963 2784 1702 2511 
Q 1441 2238 1441 1747 
Q 1441 1256 1702 982 
Q 1963 709 2431 709 
Q 2694 709 2930 787 
Q 3166 866 3366 1019 
L 3366 103 
Q 3103 6 2833 -42 
Q 2563 -91 2291 -91 
Q 1344 -91 809 395 
Q 275 881 275 1747 
Q 275 2613 809 3098 
Q 1344 3584 2291 3584 
Q 2566 3584 2833 3536 
Q 3100 3488 3366 3391 
z
" transform="scale(0.015625)"/>
     </defs>
     <use xlink:href="#DejaVuSans-Bold-73"/>
     <use xlink:href="#DejaVuSans-Bold-71" transform="translate(59.521484 0)"/>
     <use xlink:href="#DejaVuSans-Bold-75" transform="translate(131.103516 0)"/>
     <use xlink:href="#DejaVuSans-Bold-61" transform="translate(202.294922 0)"/>
     <use xlink:href="#DejaVuSans-Bold-72" transform="translate(269.775391 0)"/>
     <use xlink:href="#DejaVuSans-Bold-65" transform="translate(319.091797 0)"/>
     <use xlink:href="#DejaVuSans-Bold-20" transform="translate(386.914062 0)"/>
     <use xlink:href="#DejaVuSans-Bold-6c" transform="translate(421.728516 0)"/>
     <use xlink:href="#DejaVuSans-Bold-61" transform="translate(456.005859 0)"/>
     <use xlink:href="#DejaVuSans-Bold-74" transform="translate(523.486328 0)"/>
     <use xlink:href="#DejaVuSans-Bold-74" transform="translate(571.289062 0)"/>
     <use xlink:href="#DejaVuSans-Bold-69" transform="translate(619.091797 0)"/>
     <use xlink:href="#DejaVuSans-Bold-63" transform="translate(653.369141 0)"/>
     <use xlink:href="#DejaVuSans-Bold-65" transform="translate(712.646484 0)"/>
    </g>
   </g>
   <g id="PathCollection_1">
    <defs>
     <path id="mc78b6fb7ea" d="M 0 2.12132 
C 0.562581 2.12132 1.102195 1.897805 1.5 1.5 
C 1.897805 1.102195 2.12132 0.562581 2.12132 0 
C 2.12132 -0.562581 1.897805 -1.102195 1.5 -1.5 
C 1.102195 -1.897805 0.562581 -2.12132 0 -2.12132 
C -0.562581 -2.12132 -1.102195 -1.897805 -1.5 -1.5 
C -1.897805 -1.102195 -2.12132 -0.562581 -2.12132 0 
C -2.12132 0.562581 -1.897805 1.102195 -1.5 1.5 
C -1.102195 1.897805 -0.562581 2.12132 0 2.12132 
z
" style="stroke: #262626"/>
    </defs>
    <g clip-path="url(#pcfe79ff83e)">
     <use xlink:href="#mc78b6fb7ea" x="31.595294" y="278.000559" style="fill: #262626; stroke: #262626"/>
     <use xlink:href="#mc78b6fb7ea" x="80.385882" y="278.000559" style="fill: #262626; stroke: #262626"/>
     <use xlink:href="#mc78b6fb7ea" x="129.176471" y="278.000559" style="fill: #262626; stroke: #262626"/>
     <use xlink:href="#mc78b6fb7ea" x="177.967059" y="278.000559" style="fill: #262626; stroke: #262626"/>
     <use xlink:href="#mc78b6fb7ea" x="226.757647" y="278.000559" style="fill: #262626; stroke: #262626"/>
     <use xlink:href="#mc78b6fb7ea" x="31.595294" y="229.209971" style="fill: #262626; stroke: #262626"/>
     <use xlink:href="#mc78b6fb7ea" x="80.385882" y="229.209971" style="fill: #262626; stroke: #262626"/>
     <use xlink:href="#mc78b6fb7ea" x="129.176471" y="229.209971" style="fill: #262626; stroke: #262626"/>
     <use xlink:href="#mc78b6fb7ea" x="177.967059" y="229.209971" style="fill: #262626; stroke: #262626"/>
     <use xlink:href="#mc78b6fb7ea" x="226.757647" y="229.209971" style="fill: #262626; stroke: #262626"/>
     <use xlink:href="#mc78b6fb7ea" x="31.595294" y="180.419382" style="fill: #262626; stroke: #262626"/>
     <use xlink:href="#mc78b6fb7ea" x="80.385882" y="180.419382" style="fill: #262626; stroke: #262626"/>
     <use xlink:href="#mc78b6fb7ea" x="129.176471" y="180.419382" style="fill: #262626; stroke: #262626"/>
     <use xlink:href="#mc78b6fb7ea" x="177.967059" y="180.419382" style="fill: #262626; stroke: #262626"/>
     <use xlink:href="#mc78b6fb7ea" x="226.757647" y="180.419382" style="fill: #262626; stroke: #262626"/>
     <use xlink:href="#mc78b6fb7ea" x="31.595294" y="131.628794" style="fill: #262626; stroke: #262626"/>
     <use xlink:href="#mc78b6fb7ea" x="80.385882" y="131.628794" style="fill: #262626; stroke: #262626"/>
     <use xlink:href="#mc78b6fb7ea" x="129.176471" y="131.628794" style="fill: #262626; stroke: #262626"/>
     <use xlink:href="#mc78b6fb7ea" x="177.967059" y="131.628794" style="fill: #262626; stroke: #262626"/>
     <use xlink:href="#mc78b6fb7ea" x="226.757647" y="131.628794" style="fill: #262626; stroke: #262626"/>
     <use xlink:href="#mc78b6fb7ea" x="31.595294" y="82.838206" style="fill: #262626; stroke: #262626"/>
     <use xlink:href="#mc78b6fb7ea" x="80.385882" y="82.838206" style="fill: #262626; stroke: #262626"/>
     <use xlink:href="#mc78b6fb7ea" x="129.176471" y="82.838206" style="fill: #262626; stroke: #262626"/>
     <use xlink:href="#mc78b6fb7ea" x="177.967059" y="82.838206" style="fill: #262626; stroke: #262626"/>
     <use xlink:href="#mc78b6fb7ea" x="226.757647" y="82.838206" style="fill: #262626; stroke: #262626"/>
    </g>
   </g>
  </g>
  <g id="axes_2">
   <g id="patch_3">
    <path d="M 261.952941 256.654676 
L 414.423529 256.654676 
L 414.423529 104.184088 
L 261.952941 104.184088 
z
" style="fill: #ffffff"/>
   </g>
   <g id="patch_4">
    <path d="M 285.776471 228.066441 
L 390.6 228.066441 
L 390.6 128.007618 
L 285.776471 128.007618 
L 285.776471 228.066441 
z
" clip-path="url(#p2a5029c44d)" style="fill: none; stroke-dasharray: 3.7,1.6; stroke-dashoffset: 0; stroke: #8c8c8c; stroke-linejoin: miter"/>
   </g>
   <g id="matplotlib.axis_3"/>
   <g id="matplotlib.axis_4"/>
   <g id="text_2">
    <!-- three-site basis -->
    <g transform="translate(280.854173 98.184088) scale(0.13 -0.13)">
     <defs>
      <path id="DejaVuSans-Bold-68" d="M 4056 2131 
L 4056 0 
L 2931 0 
L 2931 347 
L 2931 1625 
Q 2931 2084 2911 2256 
Q 2891 2428 2841 2509 
Q 2775 2619 2662 2680 
Q 2550 2741 2406 2741 
Q 2056 2741 1856 2470 
Q 1656 2200 1656 1722 
L 1656 0 
L 538 0 
L 538 4863 
L 1656 4863 
L 1656 2988 
Q 1909 3294 2193 3439 
Q 2478 3584 2822 3584 
Q 3428 3584 3742 3212 
Q 4056 2841 4056 2131 
z
" transform="scale(0.015625)"/>
      <path id="DejaVuSans-Bold-2d" d="M 347 2297 
L 2309 2297 
L 2309 1388 
L 347 1388 
L 347 2297 
z
" transform="scale(0.015625)"/>
      <path id="DejaVuSans-Bold-62" d="M 2400 722 
Q 2759 722 2948 984 
Q 3138 1247 3138 1747 
Q 3138 2247 2948 2509 
Q 2759 2772 2400 2772 
Q 2041 2772 1848 2508 
Q 1656 2244 1656 1747 
Q 1656 1250 1848 986 
Q 2041 722 2400 722 
z
M 1656 2988 
Q 1888 3294 2169 3439 
Q 2450 3584 2816 3584 
Q 3463 3584 3878 3070 
Q 4294 2556 4294 1747 
Q 4294 938 3878 423 
Q 3463 -91 2816 -91 
Q 2450 -91 2169 54 
Q 1888 200 1656 506 
L 1656 0 
L 538 0 
L 538 4863 
L 1656 4863 
L 1656 2988 
z
" transform="scale(0.015625)"/>
     </defs>
     <use xlink:href="#DejaVuSans-Bold-74"/>
     <use xlink:href="#DejaVuSans-Bold-68" transform="translate(47.802734 0)"/>
     <use xlink:href="#DejaVuSans-Bold-72" transform="translate(118.994141 0)"/>
     <use xlink:href="#DejaVuSans-Bold-65" transform="translate(168.310547 0)"/>
     <use xlink:href="#DejaVuSans-Bold-65" transform="translate(236.132812 0)"/>
     <use xlink:href="#DejaVuSans-Bold-2d" transform="translate(303.955078 0)"/>
     <use xlink:href="#DejaVuSans-Bold-73" transform="translate(345.458984 0)"/>
     <use xlink:href="#DejaVuSans-Bold-69" transform="translate(404.980469 0)"/>
     <use xlink:href="#DejaVuSans-Bold-74" transform="translate(439.257812 0)"/>
     <use xlink:href="#DejaVuSans-Bold-65" transform="translate(487.060547 0)"/>
     <use xlink:href="#DejaVuSans-Bold-20" transform="translate(554.882812 0)"/>
     <use xlink:href="#DejaVuSans-Bold-62" transform="translate(589.697266 0)"/>
     <use xlink:href="#DejaVuSans-Bold-61" transform="translate(661.279297 0)"/>
     <use xlink:href="#DejaVuSans-Bold-73" transform="translate(728.759766 0)"/>
     <use xlink:href="#DejaVuSans-Bold-69" transform="translate(788.28125 0)"/>
     <use xlink:href="#DejaVuSans-Bold-73" transform="translate(822.558594 0)"/>
    </g>
   </g>
   <g id="PathCollection_2">
    <path d="M 319.129412 198.956141 
C 320.254573 198.956141 321.333802 198.509109 322.129412 197.7135 
C 322.925021 196.917891 323.372052 195.838661 323.372052 194.7135 
C 323.372052 193.588339 322.925021 192.509109 322.129412 191.7135 
C 321.333802 190.917891 320.254573 190.470859 319.129412 190.470859 
C 318.00425 190.470859 316.925021 190.917891 316.129412 191.7135 
C 315.333802 192.509109 314.886771 193.588339 314.886771 194.7135 
C 314.886771 195.838661 315.333802 196.917891 316.129412 197.7135 
C 316.925021 198.509109 318.00425 198.956141 319.129412 198.956141 
z
" clip-path="url(#p2a5029c44d)" style="fill: #ffffff; stroke: #1f77b4; stroke-width: 1.8"/>
    <path d="M 362.011765 198.956141 
C 363.136926 198.956141 364.216155 198.509109 365.011765 197.7135 
C 365.807374 196.917891 366.254405 195.838661 366.254405 194.7135 
C 366.254405 193.588339 365.807374 192.509109 365.011765 191.7135 
C 364.216155 190.917891 363.136926 190.470859 362.011765 190.470859 
C 360.886603 190.470859 359.807374 190.917891 359.011765 191.7135 
C 358.216155 192.509109 357.769124 193.588339 357.769124 194.7135 
C 357.769124 195.838661 358.216155 196.917891 359.011765 197.7135 
C 359.807374 198.509109 360.886603 198.956141 362.011765 198.956141 
z
" clip-path="url(#p2a5029c44d)" style="fill: #ffffff; stroke: #ff7f0e; stroke-width: 1.8"/>
    <path d="M 336.282353 158.932611 
C 337.407514 158.932611 338.486744 158.48558 339.282353 157.689971 
C 340.077962 156.894361 340.524994 155.815132 340.524994 154.689971 
C 340.524994 153.564809 340.077962 152.48558 339.282353 151.689971 
C 338.486744 150.894361 337.407514 150.44733 336.282353 150.44733 
C 335.157191 150.44733 334.077962 150.894361 333.282353 151.689971 
C 332.486744 152.48558 332.039712 153.564809 332.039712 154.689971 
C 332.039712 155.815132 332.486744 156.894361 333.282353 157.689971 
C 334.077962 158.48558 335.157191 158.932611 336.282353 158.932611 
z
" clip-path="url(#p2a5029c44d)" style="fill: #ffffff; stroke: #2ca02c; stroke-width: 1.8"/>
   </g>
  </g>
  <g id="axes_3">
   <g id="patch_5">
    <path d="M 448.183147 304.848 
L 697.040382 304.848 
L 697.040382 55.990765 
L 448.183147 55.990765 
z
" style="fill: #ffffff"/>
   </g>
   <g id="matplotlib.axis_5"/>
   <g id="matplotlib.axis_6"/>
   <g id="PathCollection_3">
    <defs>
     <path id="m4dd2fea319" d="M 0 1.732051 
C 0.459345 1.732051 0.899939 1.549551 1.224745 1.224745 
C 1.549551 0.899939 1.732051 0.459345 1.732051 0 
C 1.732051 -0.459345 1.549551 -0.899939 1.224745 -1.224745 
C 0.899939 -1.549551 0.459345 -1.732051 0 -1.732051 
C -0.459345 -1.732051 -0.899939 -1.549551 -1.224745 -1.224745 
C -1.549551 -0.899939 -1.732051 -0.459345 -1.732051 0 
C -1.732051 0.459345 -1.549551 0.899939 -1.224745 1.224745 
C -0.899939 1.549551 -0.459345 1.732051 0 1.732051 
z
" style="stroke: #404040"/>
    </defs>
    <g clip-path="url(#p383d79c233)">
     <use xlink:href="#m4dd2fea319" x="467.326011" y="285.705136" style="fill: #404040; stroke: #404040"/>
    </g>
   </g>
   <g id="PathCollection_4">
    <g clip-path="url(#p383d79c233)">
     <use xlink:href="#m4dd2fea319" x="467.326011" y="220.619397" style="fill: #404040; stroke: #404040"/>
    </g>
   </g>
   <g id="PathCollection_5">
    <g clip-path="url(#p383d79c233)">
     <use xlink:href="#m4dd2fea319" x="467.326011" y="155.533659" style="fill: #404040; stroke: #404040"/>
    </g>
   </g>
   <g id="PathCollection_6">
    <g clip-path="url(#p383d79c233)">
     <use xlink:href="#m4dd2fea319" x="467.326011" y="90.44792" style="fill: #404040; stroke: #404040"/>
    </g>
   </g>
   <g id="PathCollection_7">
    <g clip-path="url(#p383d79c233)">
     <use xlink:href="#m4dd2fea319" x="532.41175" y="285.705136" style="fill: #404040; stroke: #404040"/>
    </g>
   </g>
   <g id="PathCollection_8">
    <g clip-path="url(#p383d79c233)">
     <use xlink:href="#m4dd2fea319" x="532.41175" y="220.619397" style="fill: #404040; stroke: #404040"/>
    </g>
   </g>
   <g id="PathCollection_9">
    <g clip-path="url(#p383d79c233)">
     <use xlink:href="#m4dd2fea319" x="532.41175" y="155.533659" style="fill: #404040; stroke: #404040"/>
    </g>
   </g>
   <g id="PathCollection_10">
    <g clip-path="url(#p383d79c233)">
     <use xlink:href="#m4dd2fea319" x="532.41175" y="90.44792" style="fill: #404040; stroke: #404040"/>
    </g>
   </g>
   <g id="PathCollection_11">
    <g clip-path="url(#p383d79c233)">
     <use xlink:href="#m4dd2fea319" x="597.497488" y="285.705136" style="fill: #404040; stroke: #404040"/>
    </g>
   </g>
   <g id="PathCollection_12">
    <g clip-path="url(#p383d79c233)">
     <use xlink:href="#m4dd2fea319" x="597.497488" y="220.619397" style="fill: #404040; stroke: #404040"/>
    </g>
   </g>
   <g id="PathCollection_13">
    <g clip-path="url(#p383d79c233)">
     <use xlink:href="#m4dd2fea319" x="597.497488" y="155.533659" style="fill: #404040; stroke: #404040"/>
    </g>
   </g>
   <g id="PathCollection_14">
    <g clip-path="url(#p383d79c233)">
     <use xlink:href="#m4dd2fea319" x="597.497488" y="90.44792" style="fill: #404040; stroke: #404040"/>
    </g>
   </g>
   <g id="PathCollection_15">
    <g clip-path="url(#p383d79c233)">
     <use xlink:href="#m4dd2fea319" x="662.583227" y="285.705136" style="fill: #404040; stroke: #404040"/>
    </g>
   </g>
   <g id="PathCollection_16">
    <g clip-path="url(#p383d79c233)">
     <use xlink:href="#m4dd2fea319" x="662.583227" y="220.619397" style="fill: #404040; stroke: #404040"/>
    </g>
   </g>
   <g id="PathCollection_17">
    <g clip-path="url(#p383d79c233)">
     <use xlink:href="#m4dd2fea319" x="662.583227" y="155.533659" style="fill: #404040; stroke: #404040"/>
    </g>
   </g>
   <g id="PathCollection_18">
    <g clip-path="url(#p383d79c233)">
     <use xlink:href="#m4dd2fea319" x="662.583227" y="90.44792" style="fill: #404040; stroke: #404040"/>
    </g>
   </g>
   <g id="line2d_11">
    <path d="M 467.326011 285.705136 
L 662.583227 285.705136 
" clip-path="url(#p383d79c233)" style="fill: none; stroke: #bfbfbf; stroke-width: 0.5; stroke-linecap: square"/>
   </g>
   <g id="line2d_12">
    <path d="M 467.326011 285.705136 
L 467.326011 90.44792 
" clip-path="url(#p383d79c233)" style="fill: none; stroke: #bfbfbf; stroke-width: 0.5; stroke-linecap: square"/>
   </g>
   <g id="line2d_13">
    <path d="M 467.326011 220.619397 
L 662.583227 220.619397 
" clip-path="url(#p383d79c233)" style="fill: none; stroke: #bfbfbf; stroke-width: 0.5; stroke-linecap: square"/>
   </g>
   <g id="line2d_14">
    <path d="M 532.41175 285.705136 
L 532.41175 90.44792 
" clip-path="url(#p383d79c233)" style="fill: none; stroke: #bfbfbf; stroke-width: 0.5; stroke-linecap: square"/>
   </g>
   <g id="line2d_15">
    <path d="M 467.326011 155.533659 
L 662.583227 155.533659 
" clip-path="url(#p383d79c233)" style="fill: none; stroke: #bfbfbf; stroke-width: 0.5; stroke-linecap: square"/>
   </g>
   <g id="line2d_16">
    <path d="M 597.497488 285.705136 
L 597.497488 90.44792 
" clip-path="url(#p383d79c233)" style="fill: none; stroke: #bfbfbf; stroke-width: 0.5; stroke-linecap: square"/>
   </g>
   <g id="line2d_17">
    <path d="M 467.326011 90.44792 
L 662.583227 90.44792 
" clip-path="url(#p383d79c233)" style="fill: none; stroke: #bfbfbf; stroke-width: 0.5; stroke-linecap: square"/>
   </g>
   <g id="line2d_18">
    <path d="M 662.583227 285.705136 
L 662.583227 90.44792 
" clip-path="url(#p383d79c233)" style="fill: none; stroke: #bfbfbf; stroke-width: 0.5; stroke-linecap: square"/>
   </g>
   <g id="text_3">
    <!-- decorated crystal -->
    <g transform="translate(508.322702 49.990765) scale(0.13 -0.13)">
     <defs>
      <path id="DejaVuSans-Bold-64" d="M 2919 2988 
L 2919 4863 
L 4044 4863 
L 4044 0 
L 2919 0 
L 2919 506 
Q 2688 197 2409 53 
Q 2131 -91 1766 -91 
Q 1119 -91 703 423 
Q 288 938 288 1747 
Q 288 2556 703 3070 
Q 1119 3584 1766 3584 
Q 2128 3584 2408 3439 
Q 2688 3294 2919 2988 
z
M 2181 722 
Q 2541 722 2730 984 
Q 2919 1247 2919 1747 
Q 2919 2247 2730 2509 
Q 2541 2772 2181 2772 
Q 1825 2772 1636 2509 
Q 1447 2247 1447 1747 
Q 1447 1247 1636 984 
Q 1825 722 2181 722 
z
" transform="scale(0.015625)"/>
      <path id="DejaVuSans-Bold-6f" d="M 2203 2784 
Q 1831 2784 1636 2517 
Q 1441 2250 1441 1747 
Q 1441 1244 1636 976 
Q 1831 709 2203 709 
Q 2569 709 2762 976 
Q 2956 1244 2956 1747 
Q 2956 2250 2762 2517 
Q 2569 2784 2203 2784 
z
M 2203 3584 
Q 3106 3584 3614 3096 
Q 4122 2609 4122 1747 
Q 4122 884 3614 396 
Q 3106 -91 2203 -91 
Q 1297 -91 786 396 
Q 275 884 275 1747 
Q 275 2609 786 3096 
Q 1297 3584 2203 3584 
z
" transform="scale(0.015625)"/>
      <path id="DejaVuSans-Bold-79" d="M 78 3500 
L 1197 3500 
L 2138 1125 
L 2938 3500 
L 4056 3500 
L 2584 -331 
Q 2363 -916 2067 -1148 
Q 1772 -1381 1288 -1381 
L 641 -1381 
L 641 -647 
L 991 -647 
Q 1275 -647 1404 -556 
Q 1534 -466 1606 -231 
L 1638 -134 
L 78 3500 
z
" transform="scale(0.015625)"/>
     </defs>
     <use xlink:href="#DejaVuSans-Bold-64"/>
     <use xlink:href="#DejaVuSans-Bold-65" transform="translate(71.582031 0)"/>
     <use xlink:href="#DejaVuSans-Bold-63" transform="translate(139.404297 0)"/>
     <use xlink:href="#DejaVuSans-Bold-6f" transform="translate(198.681641 0)"/>
     <use xlink:href="#DejaVuSans-Bold-72" transform="translate(267.382812 0)"/>
     <use xlink:href="#DejaVuSans-Bold-61" transform="translate(316.699219 0)"/>
     <use xlink:href="#DejaVuSans-Bold-74" transform="translate(384.179688 0)"/>
     <use xlink:href="#DejaVuSans-Bold-65" transform="translate(431.982422 0)"/>
     <use xlink:href="#DejaVuSans-Bold-64" transform="translate(499.804688 0)"/>
     <use xlink:href="#DejaVuSans-Bold-20" transform="translate(571.386719 0)"/>
     <use xlink:href="#DejaVuSans-Bold-63" transform="translate(606.201172 0)"/>
     <use xlink:href="#DejaVuSans-Bold-72" transform="translate(665.478516 0)"/>
     <use xlink:href="#DejaVuSans-Bold-79" transform="translate(714.794922 0)"/>
     <use xlink:href="#DejaVuSans-Bold-73" transform="translate(779.980469 0)"/>
     <use xlink:href="#DejaVuSans-Bold-74" transform="translate(839.501953 0)"/>
     <use xlink:href="#DejaVuSans-Bold-61" transform="translate(887.304688 0)"/>
     <use xlink:href="#DejaVuSans-Bold-6c" transform="translate(954.785156 0)"/>
    </g>
   </g>
   <g id="PathCollection_19">
    <defs>
     <path id="mba9e4ff0b0" d="M 0 3.605551 
C 0.956203 3.605551 1.873372 3.225648 2.54951 2.54951 
C 3.225648 1.873372 3.605551 0.956203 3.605551 0 
C 3.605551 -0.956203 3.225648 -1.873372 2.54951 -2.54951 
C 1.873372 -3.225648 0.956203 -3.605551 0 -3.605551 
C -0.956203 -3.605551 -1.873372 -3.225648 -2.54951 -2.54951 
C -3.225648 -1.873372 -3.605551 -0.956203 -3.605551 0 
C -3.605551 0.956203 -3.225648 1.873372 -2.54951 2.54951 
C -1.873372 3.225648 -0.956203 3.605551 0 3.605551 
z
" style="stroke: #1f77b4; stroke-width: 1.4"/>
    </defs>
    <g clip-path="url(#p383d79c233)">
     <use xlink:href="#mba9e4ff0b0" x="467.326011" y="285.705136" style="fill: #ffffff; stroke: #1f77b4; stroke-width: 1.4"/>
    </g>
   </g>
   <g id="PathCollection_20">
    <defs>
     <path id="md216c19b72" d="M 0 3.605551 
C 0.956203 3.605551 1.873372 3.225648 2.54951 2.54951 
C 3.225648 1.873372 3.605551 0.956203 3.605551 0 
C 3.605551 -0.956203 3.225648 -1.873372 2.54951 -2.54951 
C 1.873372 -3.225648 0.956203 -3.605551 0 -3.605551 
C -0.956203 -3.605551 -1.873372 -3.225648 -2.54951 -2.54951 
C -3.225648 -1.873372 -3.605551 -0.956203 -3.605551 0 
C -3.605551 0.956203 -3.225648 1.873372 -2.54951 2.54951 
C -1.873372 3.225648 -0.956203 3.605551 0 3.605551 
z
" style="stroke: #ff7f0e; stroke-width: 1.4"/>
    </defs>
    <g clip-path="url(#p383d79c233)">
     <use xlink:href="#md216c19b72" x="486.277447" y="285.705136" style="fill: #ffffff; stroke: #ff7f0e; stroke-width: 1.4"/>
    </g>
   </g>
   <g id="PathCollection_21">
    <defs>
     <path id="m1d8154ff73" d="M 0 3.605551 
C 0.956203 3.605551 1.873372 3.225648 2.54951 2.54951 
C 3.225648 1.873372 3.605551 0.956203 3.605551 0 
C 3.605551 -0.956203 3.225648 -1.873372 2.54951 -2.54951 
C 1.873372 -3.225648 0.956203 -3.605551 0 -3.605551 
C -0.956203 -3.605551 -1.873372 -3.225648 -2.54951 -2.54951 
C -3.225648 -1.873372 -3.605551 -0.956203 -3.605551 0 
C -3.605551 0.956203 -3.225648 1.873372 -2.54951 2.54951 
C -1.873372 3.225648 -0.956203 3.605551 0 3.605551 
z
" style="stroke: #2ca02c; stroke-width: 1.4"/>
    </defs>
    <g clip-path="url(#p383d79c233)">
     <use xlink:href="#m1d8154ff73" x="474.906586" y="268.017129" style="fill: #ffffff; stroke: #2ca02c; stroke-width: 1.4"/>
    </g>
   </g>
   <g id="PathCollection_22">
    <g clip-path="url(#p383d79c233)">
     <use xlink:href="#mba9e4ff0b0" x="467.326011" y="220.619397" style="fill: #ffffff; stroke: #1f77b4; stroke-width: 1.4"/>
    </g>
   </g>
   <g id="PathCollection_23">
    <g clip-path="url(#p383d79c233)">
     <use xlink:href="#md216c19b72" x="486.277447" y="220.619397" style="fill: #ffffff; stroke: #ff7f0e; stroke-width: 1.4"/>
    </g>
   </g>
   <g id="PathCollection_24">
    <g clip-path="url(#p383d79c233)">
     <use xlink:href="#m1d8154ff73" x="474.906586" y="202.931391" style="fill: #ffffff; stroke: #2ca02c; stroke-width: 1.4"/>
    </g>
   </g>
   <g id="PathCollection_25">
    <g clip-path="url(#p383d79c233)">
     <use xlink:href="#mba9e4ff0b0" x="467.326011" y="155.533659" style="fill: #ffffff; stroke: #1f77b4; stroke-width: 1.4"/>
    </g>
   </g>
   <g id="PathCollection_26">
    <g clip-path="url(#p383d79c233)">
     <use xlink:href="#md216c19b72" x="486.277447" y="155.533659" style="fill: #ffffff; stroke: #ff7f0e; stroke-width: 1.4"/>
    </g>
   </g>
   <g id="PathCollection_27">
    <g clip-path="url(#p383d79c233)">
     <use xlink:href="#m1d8154ff73" x="474.906586" y="137.845652" style="fill: #ffffff; stroke: #2ca02c; stroke-width: 1.4"/>
    </g>
   </g>
   <g id="PathCollection_28">
    <g clip-path="url(#p383d79c233)">
     <use xlink:href="#mba9e4ff0b0" x="467.326011" y="90.44792" style="fill: #ffffff; stroke: #1f77b4; stroke-width: 1.4"/>
    </g>
   </g>
   <g id="PathCollection_29">
    <g clip-path="url(#p383d79c233)">
     <use xlink:href="#md216c19b72" x="486.277447" y="90.44792" style="fill: #ffffff; stroke: #ff7f0e; stroke-width: 1.4"/>
    </g>
   </g>
   <g id="PathCollection_30">
    <g clip-path="url(#p383d79c233)">
     <use xlink:href="#m1d8154ff73" x="474.906586" y="72.759914" style="fill: #ffffff; stroke: #2ca02c; stroke-width: 1.4"/>
    </g>
   </g>
   <g id="PathCollection_31">
    <g clip-path="url(#p383d79c233)">
     <use xlink:href="#mba9e4ff0b0" x="532.41175" y="285.705136" style="fill: #ffffff; stroke: #1f77b4; stroke-width: 1.4"/>
    </g>
   </g>
   <g id="PathCollection_32">
    <g clip-path="url(#p383d79c233)">
     <use xlink:href="#md216c19b72" x="551.363185" y="285.705136" style="fill: #ffffff; stroke: #ff7f0e; stroke-width: 1.4"/>
    </g>
   </g>
   <g id="PathCollection_33">
    <g clip-path="url(#p383d79c233)">
     <use xlink:href="#m1d8154ff73" x="539.992324" y="268.017129" style="fill: #ffffff; stroke: #2ca02c; stroke-width: 1.4"/>
    </g>
   </g>
   <g id="PathCollection_34">
    <g clip-path="url(#p383d79c233)">
     <use xlink:href="#mba9e4ff0b0" x="532.41175" y="220.619397" style="fill: #ffffff; stroke: #1f77b4; stroke-width: 1.4"/>
    </g>
   </g>
   <g id="PathCollection_35">
    <g clip-path="url(#p383d79c233)">
     <use xlink:href="#md216c19b72" x="551.363185" y="220.619397" style="fill: #ffffff; stroke: #ff7f0e; stroke-width: 1.4"/>
    </g>
   </g>
   <g id="PathCollection_36">
    <g clip-path="url(#p383d79c233)">
     <use xlink:href="#m1d8154ff73" x="539.992324" y="202.931391" style="fill: #ffffff; stroke: #2ca02c; stroke-width: 1.4"/>
    </g>
   </g>
   <g id="PathCollection_37">
    <g clip-path="url(#p383d79c233)">
     <use xlink:href="#mba9e4ff0b0" x="532.41175" y="155.533659" style="fill: #ffffff; stroke: #1f77b4; stroke-width: 1.4"/>
    </g>
   </g>
   <g id="PathCollection_38">
    <g clip-path="url(#p383d79c233)">
     <use xlink:href="#md216c19b72" x="551.363185" y="155.533659" style="fill: #ffffff; stroke: #ff7f0e; stroke-width: 1.4"/>
    </g>
   </g>
   <g id="PathCollection_39">
    <g clip-path="url(#p383d79c233)">
     <use xlink:href="#m1d8154ff73" x="539.992324" y="137.845652" style="fill: #ffffff; stroke: #2ca02c; stroke-width: 1.4"/>
    </g>
   </g>
   <g id="PathCollection_40">
    <g clip-path="url(#p383d79c233)">
     <use xlink:href="#mba9e4ff0b0" x="532.41175" y="90.44792" style="fill: #ffffff; stroke: #1f77b4; stroke-width: 1.4"/>
    </g>
   </g>
   <g id="PathCollection_41">
    <g clip-path="url(#p383d79c233)">
     <use xlink:href="#md216c19b72" x="551.363185" y="90.44792" style="fill: #ffffff; stroke: #ff7f0e; stroke-width: 1.4"/>
    </g>
   </g>
   <g id="PathCollection_42">
    <g clip-path="url(#p383d79c233)">
     <use xlink:href="#m1d8154ff73" x="539.992324" y="72.759914" style="fill: #ffffff; stroke: #2ca02c; stroke-width: 1.4"/>
    </g>
   </g>
   <g id="PathCollection_43">
    <g clip-path="url(#p383d79c233)">
     <use xlink:href="#mba9e4ff0b0" x="597.497488" y="285.705136" style="fill: #ffffff; stroke: #1f77b4; stroke-width: 1.4"/>
    </g>
   </g>
   <g id="PathCollection_44">
    <g clip-path="url(#p383d79c233)">
     <use xlink:href="#md216c19b72" x="616.448924" y="285.705136" style="fill: #ffffff; stroke: #ff7f0e; stroke-width: 1.4"/>
    </g>
   </g>
   <g id="PathCollection_45">
    <g clip-path="url(#p383d79c233)">
     <use xlink:href="#m1d8154ff73" x="605.078062" y="268.017129" style="fill: #ffffff; stroke: #2ca02c; stroke-width: 1.4"/>
    </g>
   </g>
   <g id="PathCollection_46">
    <g clip-path="url(#p383d79c233)">
     <use xlink:href="#mba9e4ff0b0" x="597.497488" y="220.619397" style="fill: #ffffff; stroke: #1f77b4; stroke-width: 1.4"/>
    </g>
   </g>
   <g id="PathCollection_47">
    <g clip-path="url(#p383d79c233)">
     <use xlink:href="#md216c19b72" x="616.448924" y="220.619397" style="fill: #ffffff; stroke: #ff7f0e; stroke-width: 1.4"/>
    </g>
   </g>
   <g id="PathCollection_48">
    <g clip-path="url(#p383d79c233)">
     <use xlink:href="#m1d8154ff73" x="605.078062" y="202.931391" style="fill: #ffffff; stroke: #2ca02c; stroke-width: 1.4"/>
    </g>
   </g>
   <g id="PathCollection_49">
    <g clip-path="url(#p383d79c233)">
     <use xlink:href="#mba9e4ff0b0" x="597.497488" y="155.533659" style="fill: #ffffff; stroke: #1f77b4; stroke-width: 1.4"/>
    </g>
   </g>
   <g id="PathCollection_50">
    <g clip-path="url(#p383d79c233)">
     <use xlink:href="#md216c19b72" x="616.448924" y="155.533659" style="fill: #ffffff; stroke: #ff7f0e; stroke-width: 1.4"/>
    </g>
   </g>
   <g id="PathCollection_51">
    <g clip-path="url(#p383d79c233)">
     <use xlink:href="#m1d8154ff73" x="605.078062" y="137.845652" style="fill: #ffffff; stroke: #2ca02c; stroke-width: 1.4"/>
    </g>
   </g>
   <g id="PathCollection_52">
    <g clip-path="url(#p383d79c233)">
     <use xlink:href="#mba9e4ff0b0" x="597.497488" y="90.44792" style="fill: #ffffff; stroke: #1f77b4; stroke-width: 1.4"/>
    </g>
   </g>
   <g id="PathCollection_53">
    <g clip-path="url(#p383d79c233)">
     <use xlink:href="#md216c19b72" x="616.448924" y="90.44792" style="fill: #ffffff; stroke: #ff7f0e; stroke-width: 1.4"/>
    </g>
   </g>
   <g id="PathCollection_54">
    <g clip-path="url(#p383d79c233)">
     <use xlink:href="#m1d8154ff73" x="605.078062" y="72.759914" style="fill: #ffffff; stroke: #2ca02c; stroke-width: 1.4"/>
    </g>
   </g>
   <g id="PathCollection_55">
    <g clip-path="url(#p383d79c233)">
     <use xlink:href="#mba9e4ff0b0" x="662.583227" y="285.705136" style="fill: #ffffff; stroke: #1f77b4; stroke-width: 1.4"/>
    </g>
   </g>
   <g id="PathCollection_56">
    <g clip-path="url(#p383d79c233)">
     <use xlink:href="#md216c19b72" x="681.534662" y="285.705136" style="fill: #ffffff; stroke: #ff7f0e; stroke-width: 1.4"/>
    </g>
   </g>
   <g id="PathCollection_57">
    <g clip-path="url(#p383d79c233)">
     <use xlink:href="#m1d8154ff73" x="670.163801" y="268.017129" style="fill: #ffffff; stroke: #2ca02c; stroke-width: 1.4"/>
    </g>
   </g>
   <g id="PathCollection_58">
    <g clip-path="url(#p383d79c233)">
     <use xlink:href="#mba9e4ff0b0" x="662.583227" y="220.619397" style="fill: #ffffff; stroke: #1f77b4; stroke-width: 1.4"/>
    </g>
   </g>
   <g id="PathCollection_59">
    <g clip-path="url(#p383d79c233)">
     <use xlink:href="#md216c19b72" x="681.534662" y="220.619397" style="fill: #ffffff; stroke: #ff7f0e; stroke-width: 1.4"/>
    </g>
   </g>
   <g id="PathCollection_60">
    <g clip-path="url(#p383d79c233)">
     <use xlink:href="#m1d8154ff73" x="670.163801" y="202.931391" style="fill: #ffffff; stroke: #2ca02c; stroke-width: 1.4"/>
    </g>
   </g>
   <g id="PathCollection_61">
    <g clip-path="url(#p383d79c233)">
     <use xlink:href="#mba9e4ff0b0" x="662.583227" y="155.533659" style="fill: #ffffff; stroke: #1f77b4; stroke-width: 1.4"/>
    </g>
   </g>
   <g id="PathCollection_62">
    <g clip-path="url(#p383d79c233)">
     <use xlink:href="#md216c19b72" x="681.534662" y="155.533659" style="fill: #ffffff; stroke: #ff7f0e; stroke-width: 1.4"/>
    </g>
   </g>
   <g id="PathCollection_63">
    <g clip-path="url(#p383d79c233)">
     <use xlink:href="#m1d8154ff73" x="670.163801" y="137.845652" style="fill: #ffffff; stroke: #2ca02c; stroke-width: 1.4"/>
    </g>
   </g>
   <g id="PathCollection_64">
    <g clip-path="url(#p383d79c233)">
     <use xlink:href="#mba9e4ff0b0" x="662.583227" y="90.44792" style="fill: #ffffff; stroke: #1f77b4; stroke-width: 1.4"/>
    </g>
   </g>
   <g id="PathCollection_65">
    <g clip-path="url(#p383d79c233)">
     <use xlink:href="#md216c19b72" x="681.534662" y="90.44792" style="fill: #ffffff; stroke: #ff7f0e; stroke-width: 1.4"/>
    </g>
   </g>
   <g id="PathCollection_66">
    <g clip-path="url(#p383d79c233)">
     <use xlink:href="#m1d8154ff73" x="670.163801" y="72.759914" style="fill: #ffffff; stroke: #2ca02c; stroke-width: 1.4"/>
    </g>
   </g>
  </g>
  <g id="text_4">
   <!-- + -->
   <g transform="translate(249.259575 171.0705) scale(0.24 -0.24)">
    <defs>
     <path id="DejaVuSans-2b" d="M 2944 4013 
L 2944 2272 
L 4684 2272 
L 4684 1741 
L 2944 1741 
L 2944 0 
L 2419 0 
L 2419 1741 
L 678 1741 
L 678 2272 
L 2419 2272 
L 2419 4013 
L 2944 4013 
z
" transform="scale(0.015625)"/>
    </defs>
    <use xlink:href="#DejaVuSans-2b"/>
   </g>
  </g>
  <g id="text_5">
   <!-- = -->
   <g transform="translate(445.344375 171.0705) scale(0.24 -0.24)">
    <defs>
     <path id="DejaVuSans-3d" d="M 678 2906 
L 4684 2906 
L 4684 2381 
L 678 2381 
L 678 2906 
z
M 678 1631 
L 4684 1631 
L 4684 1100 
L 678 1100 
L 678 1631 
z
" transform="scale(0.015625)"/>
    </defs>
    <use xlink:href="#DejaVuSans-3d"/>
   </g>
  </g>
  <g id="text_6">
   <!-- A crystal is generated by placing the same basis at every lattice point -->
   <g transform="translate(66.465234 18.597656) scale(0.15 -0.15)">
    <defs>
     <path id="DejaVuSans-Bold-41" d="M 3419 850 
L 1538 850 
L 1241 0 
L 31 0 
L 1759 4666 
L 3194 4666 
L 4922 0 
L 3713 0 
L 3419 850 
z
M 1838 1716 
L 3116 1716 
L 2478 3572 
L 1838 1716 
z
" transform="scale(0.015625)"/>
     <path id="DejaVuSans-Bold-67" d="M 2919 594 
Q 2688 288 2409 144 
Q 2131 0 1766 0 
Q 1125 0 706 504 
Q 288 1009 288 1791 
Q 288 2575 706 3076 
Q 1125 3578 1766 3578 
Q 2131 3578 2409 3434 
Q 2688 3291 2919 2981 
L 2919 3500 
L 4044 3500 
L 4044 353 
Q 4044 -491 3511 -936 
Q 2978 -1381 1966 -1381 
Q 1638 -1381 1331 -1331 
Q 1025 -1281 716 -1178 
L 716 -306 
Q 1009 -475 1290 -558 
Q 1572 -641 1856 -641 
Q 2406 -641 2662 -400 
Q 2919 -159 2919 353 
L 2919 594 
z
M 2181 2772 
Q 1834 2772 1640 2515 
Q 1447 2259 1447 1791 
Q 1447 1309 1634 1061 
Q 1822 813 2181 813 
Q 2531 813 2725 1069 
Q 2919 1325 2919 1791 
Q 2919 2259 2725 2515 
Q 2531 2772 2181 2772 
z
" transform="scale(0.015625)"/>
     <path id="DejaVuSans-Bold-6e" d="M 4056 2131 
L 4056 0 
L 2931 0 
L 2931 347 
L 2931 1631 
Q 2931 2084 2911 2256 
Q 2891 2428 2841 2509 
Q 2775 2619 2662 2680 
Q 2550 2741 2406 2741 
Q 2056 2741 1856 2470 
Q 1656 2200 1656 1722 
L 1656 0 
L 538 0 
L 538 3500 
L 1656 3500 
L 1656 2988 
Q 1909 3294 2193 3439 
Q 2478 3584 2822 3584 
Q 3428 3584 3742 3212 
Q 4056 2841 4056 2131 
z
" transform="scale(0.015625)"/>
     <path id="DejaVuSans-Bold-70" d="M 1656 506 
L 1656 -1331 
L 538 -1331 
L 538 3500 
L 1656 3500 
L 1656 2988 
Q 1888 3294 2169 3439 
Q 2450 3584 2816 3584 
Q 3463 3584 3878 3070 
Q 4294 2556 4294 1747 
Q 4294 938 3878 423 
Q 3463 -91 2816 -91 
Q 2450 -91 2169 54 
Q 1888 200 1656 506 
z
M 2400 2772 
Q 2041 2772 1848 2508 
Q 1656 2244 1656 1747 
Q 1656 1250 1848 986 
Q 2041 722 2400 722 
Q 2759 722 2948 984 
Q 3138 1247 3138 1747 
Q 3138 2247 2948 2509 
Q 2759 2772 2400 2772 
z
" transform="scale(0.015625)"/>
     <path id="DejaVuSans-Bold-6d" d="M 3781 2919 
Q 3994 3244 4286 3414 
Q 4578 3584 4928 3584 
Q 5531 3584 5847 3212 
Q 6163 2841 6163 2131 
L 6163 0 
L 5038 0 
L 5038 1825 
Q 5041 1866 5042 1909 
Q 5044 1953 5044 2034 
Q 5044 2406 4934 2573 
Q 4825 2741 4581 2741 
Q 4263 2741 4089 2478 
Q 3916 2216 3909 1719 
L 3909 0 
L 2784 0 
L 2784 1825 
Q 2784 2406 2684 2573 
Q 2584 2741 2328 2741 
Q 2006 2741 1831 2477 
Q 1656 2213 1656 1722 
L 1656 0 
L 531 0 
L 531 3500 
L 1656 3500 
L 1656 2988 
Q 1863 3284 2130 3434 
Q 2397 3584 2719 3584 
Q 3081 3584 3359 3409 
Q 3638 3234 3781 2919 
z
" transform="scale(0.015625)"/>
     <path id="DejaVuSans-Bold-76" d="M 97 3500 
L 1216 3500 
L 2088 1081 
L 2956 3500 
L 4078 3500 
L 2700 0 
L 1472 0 
L 97 3500 
z
" transform="scale(0.015625)"/>
    </defs>
    <use xlink:href="#DejaVuSans-Bold-41"/>
    <use xlink:href="#DejaVuSans-Bold-20" transform="translate(77.392578 0)"/>
    <use xlink:href="#DejaVuSans-Bold-63" transform="translate(112.207031 0)"/>
    <use xlink:href="#DejaVuSans-Bold-72" transform="translate(171.484375 0)"/>
    <use xlink:href="#DejaVuSans-Bold-79" transform="translate(220.800781 0)"/>
    <use xlink:href="#DejaVuSans-Bold-73" transform="translate(285.986328 0)"/>
    <use xlink:href="#DejaVuSans-Bold-74" transform="translate(345.507812 0)"/>
    <use xlink:href="#DejaVuSans-Bold-61" transform="translate(393.310547 0)"/>
    <use xlink:href="#DejaVuSans-Bold-6c" transform="translate(460.791016 0)"/>
    <use xlink:href="#DejaVuSans-Bold-20" transform="translate(495.068359 0)"/>
    <use xlink:href="#DejaVuSans-Bold-69" transform="translate(529.882812 0)"/>
    <use xlink:href="#DejaVuSans-Bold-73" transform="translate(564.160156 0)"/>
    <use xlink:href="#DejaVuSans-Bold-20" transform="translate(623.681641 0)"/>
    <use xlink:href="#DejaVuSans-Bold-67" transform="translate(658.496094 0)"/>
    <use xlink:href="#DejaVuSans-Bold-65" transform="translate(730.078125 0)"/>
    <use xlink:href="#DejaVuSans-Bold-6e" transform="translate(797.900391 0)"/>
    <use xlink:href="#DejaVuSans-Bold-65" transform="translate(869.091797 0)"/>
    <use xlink:href="#DejaVuSans-Bold-72" transform="translate(936.914062 0)"/>
    <use xlink:href="#DejaVuSans-Bold-61" transform="translate(986.230469 0)"/>
    <use xlink:href="#DejaVuSans-Bold-74" transform="translate(1053.710938 0)"/>
    <use xlink:href="#DejaVuSans-Bold-65" transform="translate(1101.513672 0)"/>
    <use xlink:href="#DejaVuSans-Bold-64" transform="translate(1169.335938 0)"/>
    <use xlink:href="#DejaVuSans-Bold-20" transform="translate(1240.917969 0)"/>
    <use xlink:href="#DejaVuSans-Bold-62" transform="translate(1275.732422 0)"/>
    <use xlink:href="#DejaVuSans-Bold-79" transform="translate(1347.314453 0)"/>
    <use xlink:href="#DejaVuSans-Bold-20" transform="translate(1412.5 0)"/>
    <use xlink:href="#DejaVuSans-Bold-70" transform="translate(1447.314453 0)"/>
    <use xlink:href="#DejaVuSans-Bold-6c" transform="translate(1518.896484 0)"/>
    <use xlink:href="#DejaVuSans-Bold-61" transform="translate(1553.173828 0)"/>
    <use xlink:href="#DejaVuSans-Bold-63" transform="translate(1620.654297 0)"/>
    <use xlink:href="#DejaVuSans-Bold-69" transform="translate(1679.931641 0)"/>
    <use xlink:href="#DejaVuSans-Bold-6e" transform="translate(1714.208984 0)"/>
    <use xlink:href="#DejaVuSans-Bold-67" transform="translate(1785.400391 0)"/>
    <use xlink:href="#DejaVuSans-Bold-20" transform="translate(1856.982422 0)"/>
    <use xlink:href="#DejaVuSans-Bold-74" transform="translate(1891.796875 0)"/>
    <use xlink:href="#DejaVuSans-Bold-68" transform="translate(1939.599609 0)"/>
    <use xlink:href="#DejaVuSans-Bold-65" transform="translate(2010.791016 0)"/>
    <use xlink:href="#DejaVuSans-Bold-20" transform="translate(2078.613281 0)"/>
    <use xlink:href="#DejaVuSans-Bold-73" transform="translate(2113.427734 0)"/>
    <use xlink:href="#DejaVuSans-Bold-61" transform="translate(2172.949219 0)"/>
    <use xlink:href="#DejaVuSans-Bold-6d" transform="translate(2240.429688 0)"/>
    <use xlink:href="#DejaVuSans-Bold-65" transform="translate(2344.628906 0)"/>
    <use xlink:href="#DejaVuSans-Bold-20" transform="translate(2412.451172 0)"/>
    <use xlink:href="#DejaVuSans-Bold-62" transform="translate(2447.265625 0)"/>
    <use xlink:href="#DejaVuSans-Bold-61" transform="translate(2518.847656 0)"/>
    <use xlink:href="#DejaVuSans-Bold-73" transform="translate(2586.328125 0)"/>
    <use xlink:href="#DejaVuSans-Bold-69" transform="translate(2645.849609 0)"/>
    <use xlink:href="#DejaVuSans-Bold-73" transform="translate(2680.126953 0)"/>
    <use xlink:href="#DejaVuSans-Bold-20" transform="translate(2739.648438 0)"/>
    <use xlink:href="#DejaVuSans-Bold-61" transform="translate(2774.462891 0)"/>
    <use xlink:href="#DejaVuSans-Bold-74" transform="translate(2841.943359 0)"/>
    <use xlink:href="#DejaVuSans-Bold-20" transform="translate(2889.746094 0)"/>
    <use xlink:href="#DejaVuSans-Bold-65" transform="translate(2924.560547 0)"/>
    <use xlink:href="#DejaVuSans-Bold-76" transform="translate(2992.382812 0)"/>
    <use xlink:href="#DejaVuSans-Bold-65" transform="translate(3057.568359 0)"/>
    <use xlink:href="#DejaVuSans-Bold-72" transform="translate(3125.390625 0)"/>
    <use xlink:href="#DejaVuSans-Bold-79" transform="translate(3174.707031 0)"/>
    <use xlink:href="#DejaVuSans-Bold-20" transform="translate(3239.892578 0)"/>
    <use xlink:href="#DejaVuSans-Bold-6c" transform="translate(3274.707031 0)"/>
    <use xlink:href="#DejaVuSans-Bold-61" transform="translate(3308.984375 0)"/>
    <use xlink:href="#DejaVuSans-Bold-74" transform="translate(3376.464844 0)"/>
    <use xlink:href="#DejaVuSans-Bold-74" transform="translate(3424.267578 0)"/>
    <use xlink:href="#DejaVuSans-Bold-69" transform="translate(3472.070312 0)"/>
    <use xlink:href="#DejaVuSans-Bold-63" transform="translate(3506.347656 0)"/>
    <use xlink:href="#DejaVuSans-Bold-65" transform="translate(3565.625 0)"/>
    <use xlink:href="#DejaVuSans-Bold-20" transform="translate(3633.447266 0)"/>
    <use xlink:href="#DejaVuSans-Bold-70" transform="translate(3668.261719 0)"/>
    <use xlink:href="#DejaVuSans-Bold-6f" transform="translate(3739.84375 0)"/>
    <use xlink:href="#DejaVuSans-Bold-69" transform="translate(3808.544922 0)"/>
    <use xlink:href="#DejaVuSans-Bold-6e" transform="translate(3842.822266 0)"/>
    <use xlink:href="#DejaVuSans-Bold-74" transform="translate(3914.013672 0)"/>
   </g>
  </g>
 </g>
 <defs>
  <clipPath id="pcfe79ff83e">
   <rect x="7.2" y="58.442912" width="243.952941" height="243.952941"/>
  </clipPath>
  <clipPath id="p2a5029c44d">
   <rect x="261.952941" y="104.184088" width="152.470588" height="152.470588"/>
  </clipPath>
  <clipPath id="p383d79c233">
   <rect x="448.183147" y="55.990765" width="248.857235" height="248.857235"/>
  </clipPath>
 </defs>
</svg>
