<?xml version="1.0" encoding="utf-8" standalone="no"?>
<!DOCTYPE svg PUBLIC "-//W3C//DTD SVG 1.1//EN"
  "http://www.w3.org/Graphics/SVG/1.1/DTD/svg11.dtd">
<svg xmlns:xlink="http://www.w3.org/1999/xlink" width="806.76pt" height="504.675687pt" viewBox="0 0 806.76 504.675687" xmlns="http://www.w3.org/2000/svg" version="1.1">
 <metadata>
  <rdf:RDF xmlns:dc="http://purl.org/dc/elements/1.1/" xmlns:cc="http://creativecommons.org/ns#" xmlns:rdf="http://www.w3.org/1999/02/22-rdf-syntax-ns#">
   <cc:Work>
    <dc:type rdf:resource="http://purl.org/dc/dcmitype/StillImage"/>
    <dc:date>2026-06-16T10:41:33.089050</dc:date>
    <dc:format>image/svg+xml</dc:format>
    <dc:creator>
     <cc:Agent>
      <dc:title>Matplotlib v3.10.8, https://matplotlib.org/</dc:title>
     </cc:Agent>
    </dc:creator>
   </cc:Work>
  </rdf:RDF>
 </metadata>
 <defs>
  <style type="text/css">*{stroke-linejoin: round; stroke-linecap: butt}</style>
 </defs>
 <g id="figure_1">
  <g id="patch_1">
   <path d="M 0 504.675687 
L 806.76 504.675687 
L 806.76 0 
L 0 0 
z
" style="fill: #ffffff"/>
  </g>
  <g id="axes_1">
   <g id="patch_2">
    <path d="M 129.130398 318.910977 
L 198.536932 294.524898 
L 198.536932 215.739102 
L 129.130398 240.125182 
z
" clip-path="url(#pd0fe9a4824)" style="fill: #1f77b4; opacity: 0.16"/>
   </g>
   <g id="patch_3">
    <path d="M 162.895739 269.763648 
C 163.791206 269.763648 164.650118 269.407875 165.283309 268.774684 
C 165.9165 268.141493 166.272273 267.282581 166.272273 266.387114 
C 166.272273 265.491646 165.9165 264.632734 165.283309 263.999543 
C 164.650118 263.366352 163.791206 263.01058 162.895739 263.01058 
C 162.000271 263.01058 161.141359 263.366352 160.508168 263.999543 
C 159.874977 264.632734 159.519205 265.491646 159.519205 266.387114 
C 159.519205 267.282581 159.874977 268.141493 160.508168 268.774684 
C 161.141359 269.407875 162.000271 269.763648 162.895739 269.763648 
z
" clip-path="url(#pd0fe9a4824)" style="fill: #1f77b4"/>
   </g>
   <g id="patch_4">
    <path d="M 182.520195 272.763486 
C 183.460649 269.869069 183.749211 266.802116 183.365141 263.783077 
C 182.981071 260.764038 181.933796 257.867025 180.298594 255.300272 
C 178.663392 252.733519 176.480404 250.560035 173.906541 248.936049 
C 171.332677 247.312062 168.431122 246.277438 165.410436 245.906544 
" clip-path="url(#pd0fe9a4824)" style="fill: none; stroke: #000000; stroke-width: 0.85; stroke-linejoin: miter"/>
   </g>
   <g id="patch_5">
    <path d="M 196.197847 277.207625 
C 197.793768 272.295886 198.283449 267.091359 197.631694 261.968142 
C 196.979938 256.844925 195.202745 251.928781 192.427857 247.573079 
C 189.652969 243.217378 185.948504 239.529041 181.580736 236.773185 
C 177.212968 234.017329 172.289117 232.261603 167.163104 231.632208 
" clip-path="url(#pd0fe9a4824)" style="fill: none; stroke: #000000; stroke-width: 0.85; stroke-linejoin: miter"/>
   </g>
   <g id="patch_6">
    <path d="M 209.875499 281.651763 
C 212.126887 274.722703 212.817688 267.380603 211.898247 260.153207 
C 210.978806 252.925811 208.471694 245.990537 204.55712 239.845887 
C 200.642546 233.701236 195.416604 228.498047 189.254931 224.610322 
C 183.093259 220.722596 176.147111 218.245768 168.915773 217.357872 
" clip-path="url(#pd0fe9a4824)" style="fill: none; stroke: #000000; stroke-width: 0.85; stroke-linejoin: miter"/>
   </g>
   <g id="patch_7">
    <path d="M 223.553151 286.095901 
C 226.460006 277.14952 227.351926 267.669847 226.1648 258.338272 
C 224.977674 249.006698 221.740643 240.052294 216.686382 232.118694 
C 211.632122 224.185095 204.884704 217.467054 196.929127 212.447458 
C 188.973549 207.427863 180.005106 204.229934 170.668441 203.083535 
" clip-path="url(#pd0fe9a4824)" style="fill: none; stroke: #000000; stroke-width: 0.85; stroke-linejoin: miter"/>
   </g>
   <g id="patch_8">
    <path d="M 237.230802 290.54004 
C 240.793125 279.576337 241.886164 267.95909 240.431353 256.523338 
C 238.976541 245.087585 235.009592 234.11405 228.815645 224.391501 
C 222.621699 214.668953 214.352804 206.43606 204.603322 200.284595 
C 194.85384 194.13313 183.863101 190.214099 172.421109 188.809199 
" clip-path="url(#pd0fe9a4824)" style="fill: none; stroke: #000000; stroke-width: 0.85; stroke-linejoin: miter"/>
   </g>
   <g id="patch_9">
    <path d="M 250.908454 294.984178 
C 255.126244 282.003155 256.420403 268.248334 254.697906 254.708403 
C 252.975409 241.168472 248.278541 228.175806 240.944908 216.664309 
C 233.611276 205.152812 223.820904 195.405066 212.277517 188.121731 
C 200.734131 180.838397 187.721095 176.198264 174.173777 174.534863 
" clip-path="url(#pd0fe9a4824)" style="fill: none; stroke: #000000; stroke-width: 0.85; stroke-linejoin: miter"/>
   </g>
   <g id="patch_10">
    <path d="M 264.586106 299.428317 
C 269.459363 284.429972 270.954641 268.537578 268.964459 252.893468 
C 266.974277 237.249358 261.54749 222.237562 253.074171 208.937116 
C 244.600852 195.63667 233.289004 184.374072 219.951713 175.958868 
C 206.614422 167.543664 191.57909 162.182429 175.926445 160.260526 
" clip-path="url(#pd0fe9a4824)" style="fill: none; stroke: #000000; stroke-width: 0.85; stroke-linejoin: miter"/>
   </g>
   <g id="patch_11">
    <path d="M 279.19858 213.86325 
L 350.508237 242.674222 
L 357.254221 225.977326 
L 285.944563 197.166355 
z
" clip-path="url(#pd0fe9a4824)" style="fill: #1f77b4; opacity: 0.24"/>
   </g>
   <g id="line2d_1">
    <path d="M 25.958523 221.366659 
L 159.144034 260.421903 
" clip-path="url(#pd0fe9a4824)" style="fill: none; stroke: #1f77b4; stroke-width: 0.85; stroke-linecap: square"/>
   </g>
   <g id="line2d_2">
    <path d="M 25.958523 211.049472 
L 159.144034 258.152122 
" clip-path="url(#pd0fe9a4824)" style="fill: none; stroke: #ff7f0e; stroke-width: 0.85; stroke-linecap: square"/>
   </g>
   <g id="line2d_3">
    <path d="M 25.958523 200.732284 
L 159.144034 255.882341 
" clip-path="url(#pd0fe9a4824)" style="fill: none; stroke: #2ca02c; stroke-width: 0.85; stroke-linecap: square"/>
   </g>
   <g id="line2d_4">
    <path d="M 25.958523 190.415097 
L 159.144034 253.61256 
" clip-path="url(#pd0fe9a4824)" style="fill: none; stroke: #d62728; stroke-width: 0.85; stroke-linecap: square"/>
   </g>
   <g id="line2d_5">
    <path d="M 25.958523 180.097909 
L 159.144034 251.342778 
" clip-path="url(#pd0fe9a4824)" style="fill: none; stroke: #9467bd; stroke-width: 0.85; stroke-linecap: square"/>
   </g>
   <g id="text_1">
    <!-- centro diffusore -->
    <g transform="translate(127.065339 279.51808) scale(0.086 -0.086)">
     <defs>
      <path id="DejaVuSans-63" d="M 3122 3366 
L 3122 2828 
Q 2878 2963 2633 3030 
Q 2388 3097 2138 3097 
Q 1578 3097 1268 2742 
Q 959 2388 959 1747 
Q 959 1106 1268 751 
Q 1578 397 2138 397 
Q 2388 397 2633 464 
Q 2878 531 3122 666 
L 3122 134 
Q 2881 22 2623 -34 
Q 2366 -91 2075 -91 
Q 1284 -91 818 406 
Q 353 903 353 1747 
Q 353 2603 823 3093 
Q 1294 3584 2113 3584 
Q 2378 3584 2631 3529 
Q 2884 3475 3122 3366 
z
" transform="scale(0.015625)"/>
      <path id="DejaVuSans-65" d="M 3597 1894 
L 3597 1613 
L 953 1613 
Q 991 1019 1311 708 
Q 1631 397 2203 397 
Q 2534 397 2845 478 
Q 3156 559 3463 722 
L 3463 178 
Q 3153 47 2828 -22 
Q 2503 -91 2169 -91 
Q 1331 -91 842 396 
Q 353 884 353 1716 
Q 353 2575 817 3079 
Q 1281 3584 2069 3584 
Q 2775 3584 3186 3129 
Q 3597 2675 3597 1894 
z
M 3022 2063 
Q 3016 2534 2758 2815 
Q 2500 3097 2075 3097 
Q 1594 3097 1305 2825 
Q 1016 2553 972 2059 
L 3022 2063 
z
" transform="scale(0.015625)"/>
      <path id="DejaVuSans-6e" d="M 3513 2113 
L 3513 0 
L 2938 0 
L 2938 2094 
Q 2938 2591 2744 2837 
Q 2550 3084 2163 3084 
Q 1697 3084 1428 2787 
Q 1159 2491 1159 1978 
L 1159 0 
L 581 0 
L 581 3500 
L 1159 3500 
L 1159 2956 
Q 1366 3272 1645 3428 
Q 1925 3584 2291 3584 
Q 2894 3584 3203 3211 
Q 3513 2838 3513 2113 
z
" transform="scale(0.015625)"/>
      <path id="DejaVuSans-74" d="M 1172 4494 
L 1172 3500 
L 2356 3500 
L 2356 3053 
L 1172 3053 
L 1172 1153 
Q 1172 725 1289 603 
Q 1406 481 1766 481 
L 2356 481 
L 2356 0 
L 1766 0 
Q 1100 0 847 248 
Q 594 497 594 1153 
L 594 3053 
L 172 3053 
L 172 3500 
L 594 3500 
L 594 4494 
L 1172 4494 
z
" transform="scale(0.015625)"/>
      <path id="DejaVuSans-72" d="M 2631 2963 
Q 2534 3019 2420 3045 
Q 2306 3072 2169 3072 
Q 1681 3072 1420 2755 
Q 1159 2438 1159 1844 
L 1159 0 
L 581 0 
L 581 3500 
L 1159 3500 
L 1159 2956 
Q 1341 3275 1631 3429 
Q 1922 3584 2338 3584 
Q 2397 3584 2469 3576 
Q 2541 3569 2628 3553 
L 2631 2963 
z
" transform="scale(0.015625)"/>
      <path id="DejaVuSans-6f" d="M 1959 3097 
Q 1497 3097 1228 2736 
Q 959 2375 959 1747 
Q 959 1119 1226 758 
Q 1494 397 1959 397 
Q 2419 397 2687 759 
Q 2956 1122 2956 1747 
Q 2956 2369 2687 2733 
Q 2419 3097 1959 3097 
z
M 1959 3584 
Q 2709 3584 3137 3096 
Q 3566 2609 3566 1747 
Q 3566 888 3137 398 
Q 2709 -91 1959 -91 
Q 1206 -91 779 398 
Q 353 888 353 1747 
Q 353 2609 779 3096 
Q 1206 3584 1959 3584 
z
" transform="scale(0.015625)"/>
      <path id="DejaVuSans-20" transform="scale(0.015625)"/>
      <path id="DejaVuSans-64" d="M 2906 2969 
L 2906 4863 
L 3481 4863 
L 3481 0 
L 2906 0 
L 2906 525 
Q 2725 213 2448 61 
Q 2172 -91 1784 -91 
Q 1150 -91 751 415 
Q 353 922 353 1747 
Q 353 2572 751 3078 
Q 1150 3584 1784 3584 
Q 2172 3584 2448 3432 
Q 2725 3281 2906 2969 
z
M 947 1747 
Q 947 1113 1208 752 
Q 1469 391 1925 391 
Q 2381 391 2643 752 
Q 2906 1113 2906 1747 
Q 2906 2381 2643 2742 
Q 2381 3103 1925 3103 
Q 1469 3103 1208 2742 
Q 947 2381 947 1747 
z
" transform="scale(0.015625)"/>
      <path id="DejaVuSans-69" d="M 603 3500 
L 1178 3500 
L 1178 0 
L 603 0 
L 603 3500 
z
M 603 4863 
L 1178 4863 
L 1178 4134 
L 603 4134 
L 603 4863 
z
" transform="scale(0.015625)"/>
      <path id="DejaVuSans-66" d="M 2375 4863 
L 2375 4384 
L 1825 4384 
Q 1516 4384 1395 4259 
Q 1275 4134 1275 3809 
L 1275 3500 
L 2222 3500 
L 2222 3053 
L 1275 3053 
L 1275 0 
L 697 0 
L 697 3053 
L 147 3053 
L 147 3500 
L 697 3500 
L 697 3744 
Q 697 4328 969 4595 
Q 1241 4863 1831 4863 
L 2375 4863 
z
" transform="scale(0.015625)"/>
      <path id="DejaVuSans-75" d="M 544 1381 
L 544 3500 
L 1119 3500 
L 1119 1403 
Q 1119 906 1312 657 
Q 1506 409 1894 409 
Q 2359 409 2629 706 
Q 2900 1003 2900 1516 
L 2900 3500 
L 3475 3500 
L 3475 0 
L 2900 0 
L 2900 538 
Q 2691 219 2414 64 
Q 2138 -91 1772 -91 
Q 1169 -91 856 284 
Q 544 659 544 1381 
z
M 1991 3584 
L 1991 3584 
z
" transform="scale(0.015625)"/>
      <path id="DejaVuSans-73" d="M 2834 3397 
L 2834 2853 
Q 2591 2978 2328 3040 
Q 2066 3103 1784 3103 
Q 1356 3103 1142 2972 
Q 928 2841 928 2578 
Q 928 2378 1081 2264 
Q 1234 2150 1697 2047 
L 1894 2003 
Q 2506 1872 2764 1633 
Q 3022 1394 3022 966 
Q 3022 478 2636 193 
Q 2250 -91 1575 -91 
Q 1294 -91 989 -36 
Q 684 19 347 128 
L 347 722 
Q 666 556 975 473 
Q 1284 391 1588 391 
Q 1994 391 2212 530 
Q 2431 669 2431 922 
Q 2431 1156 2273 1281 
Q 2116 1406 1581 1522 
L 1381 1569 
Q 847 1681 609 1914 
Q 372 2147 372 2553 
Q 372 3047 722 3315 
Q 1072 3584 1716 3584 
Q 2034 3584 2315 3537 
Q 2597 3491 2834 3397 
z
" transform="scale(0.015625)"/>
     </defs>
     <use xlink:href="#DejaVuSans-63"/>
     <use xlink:href="#DejaVuSans-65" transform="translate(54.980469 0)"/>
     <use xlink:href="#DejaVuSans-6e" transform="translate(116.503906 0)"/>
     <use xlink:href="#DejaVuSans-74" transform="translate(179.882812 0)"/>
     <use xlink:href="#DejaVuSans-72" transform="translate(219.091797 0)"/>
     <use xlink:href="#DejaVuSans-6f" transform="translate(257.955078 0)"/>
     <use xlink:href="#DejaVuSans-20" transform="translate(319.136719 0)"/>
     <use xlink:href="#DejaVuSans-64" transform="translate(350.923828 0)"/>
     <use xlink:href="#DejaVuSans-69" transform="translate(414.400391 0)"/>
     <use xlink:href="#DejaVuSans-66" transform="translate(442.183594 0)"/>
     <use xlink:href="#DejaVuSans-66" transform="translate(477.388672 0)"/>
     <use xlink:href="#DejaVuSans-75" transform="translate(512.59375 0)"/>
     <use xlink:href="#DejaVuSans-73" transform="translate(575.972656 0)"/>
     <use xlink:href="#DejaVuSans-6f" transform="translate(628.072266 0)"/>
     <use xlink:href="#DejaVuSans-72" transform="translate(689.253906 0)"/>
     <use xlink:href="#DejaVuSans-65" transform="translate(728.117188 0)"/>
    </g>
   </g>
   <g id="patch_12">
    <path d="M 44.598774 184.053388 
Q 62.5378 193.791717 79.39598 202.9433 
" style="fill: none; stroke: #000000; stroke-width: 1.1; stroke-linecap: round"/>
    <path d="M 76.322504 198.544011 
L 79.39598 202.9433 
L 74.032463 202.762507 
z
" style="fill: #1f77b4; stroke: #000000; stroke-width: 1.1; stroke-linecap: round"/>
   </g>
   <g id="text_2">
    <!-- onda incidente -->
    <g transform="translate(29.050611 185.770295) scale(0.09 -0.09)">
     <defs>
      <path id="DejaVuSans-61" d="M 2194 1759 
Q 1497 1759 1228 1600 
Q 959 1441 959 1056 
Q 959 750 1161 570 
Q 1363 391 1709 391 
Q 2188 391 2477 730 
Q 2766 1069 2766 1631 
L 2766 1759 
L 2194 1759 
z
M 3341 1997 
L 3341 0 
L 2766 0 
L 2766 531 
Q 2569 213 2275 61 
Q 1981 -91 1556 -91 
Q 1019 -91 701 211 
Q 384 513 384 1019 
Q 384 1609 779 1909 
Q 1175 2209 1959 2209 
L 2766 2209 
L 2766 2266 
Q 2766 2663 2505 2880 
Q 2244 3097 1772 3097 
Q 1472 3097 1187 3025 
Q 903 2953 641 2809 
L 641 3341 
Q 956 3463 1253 3523 
Q 1550 3584 1831 3584 
Q 2591 3584 2966 3190 
Q 3341 2797 3341 1997 
z
" transform="scale(0.015625)"/>
     </defs>
     <use xlink:href="#DejaVuSans-6f"/>
     <use xlink:href="#DejaVuSans-6e" transform="translate(61.181641 0)"/>
     <use xlink:href="#DejaVuSans-64" transform="translate(124.560547 0)"/>
     <use xlink:href="#DejaVuSans-61" transform="translate(188.037109 0)"/>
     <use xlink:href="#DejaVuSans-20" transform="translate(249.316406 0)"/>
     <use xlink:href="#DejaVuSans-69" transform="translate(281.103516 0)"/>
     <use xlink:href="#DejaVuSans-6e" transform="translate(308.886719 0)"/>
     <use xlink:href="#DejaVuSans-63" transform="translate(372.265625 0)"/>
     <use xlink:href="#DejaVuSans-69" transform="translate(427.246094 0)"/>
     <use xlink:href="#DejaVuSans-64" transform="translate(455.029297 0)"/>
     <use xlink:href="#DejaVuSans-65" transform="translate(518.505859 0)"/>
     <use xlink:href="#DejaVuSans-6e" transform="translate(580.029297 0)"/>
     <use xlink:href="#DejaVuSans-74" transform="translate(643.408203 0)"/>
     <use xlink:href="#DejaVuSans-65" transform="translate(682.617188 0)"/>
    </g>
   </g>
   <g id="text_3">
    <!-- rivelatore -->
    <g transform="translate(295.546566 175.595864) scale(0.093 -0.093)">
     <defs>
      <path id="DejaVuSans-76" d="M 191 3500 
L 800 3500 
L 1894 563 
L 2988 3500 
L 3597 3500 
L 2284 0 
L 1503 0 
L 191 3500 
z
" transform="scale(0.015625)"/>
      <path id="DejaVuSans-6c" d="M 603 4863 
L 1178 4863 
L 1178 0 
L 603 0 
L 603 4863 
z
" transform="scale(0.015625)"/>
     </defs>
     <use xlink:href="#DejaVuSans-72"/>
     <use xlink:href="#DejaVuSans-69" transform="translate(41.113281 0)"/>
     <use xlink:href="#DejaVuSans-76" transform="translate(68.896484 0)"/>
     <use xlink:href="#DejaVuSans-65" transform="translate(128.076172 0)"/>
     <use xlink:href="#DejaVuSans-6c" transform="translate(189.599609 0)"/>
     <use xlink:href="#DejaVuSans-61" transform="translate(217.382812 0)"/>
     <use xlink:href="#DejaVuSans-74" transform="translate(278.662109 0)"/>
     <use xlink:href="#DejaVuSans-6f" transform="translate(317.871094 0)"/>
     <use xlink:href="#DejaVuSans-72" transform="translate(379.052734 0)"/>
     <use xlink:href="#DejaVuSans-65" transform="translate(417.916016 0)"/>
    </g>
   </g>
   <g id="patch_13">
    <path d="M 164.775942 265.695863 
Q 226.677067 242.938096 287.528829 220.566124 
" style="fill: none; stroke: #000000; stroke-linecap: round"/>
    <path d="M 282.195495 219.969851 
L 287.528829 220.566124 
L 283.85181 224.475028 
z
" style="fill: #1f77b4; stroke: #000000; stroke-linecap: round"/>
   </g>
   <g id="text_4">
    <!-- $\theta$ -->
    <g transform="translate(223.884716 234.167284) scale(0.09 -0.09)">
     <defs>
      <path id="DejaVuSans-Oblique-3b8" d="M 2913 2219 
L 925 2219 
Q 791 1284 928 888 
Q 1100 400 1566 400 
Q 2034 400 2391 891 
Q 2703 1322 2913 2219 
z
M 3009 2750 
Q 3094 3638 2984 3950 
Q 2813 4444 2353 4444 
Q 1875 4444 1525 3956 
Q 1250 3563 1034 2750 
L 3009 2750 
z
M 2444 4913 
Q 3194 4913 3494 4250 
Q 3794 3591 3566 2422 
Q 3341 1256 2781 594 
Q 2225 -72 1475 -72 
Q 722 -72 425 594 
Q 128 1256 353 2422 
Q 581 3591 1134 4250 
Q 1691 4913 2444 4913 
z
" transform="scale(0.015625)"/>
     </defs>
     <use xlink:href="#DejaVuSans-Oblique-3b8" transform="translate(0 0.234375)"/>
    </g>
   </g>
   <g id="text_5">
    <!-- onde diffuse -->
    <g transform="translate(230.42642 258.883705) scale(0.09 -0.09)">
     <use xlink:href="#DejaVuSans-6f"/>
     <use xlink:href="#DejaVuSans-6e" transform="translate(61.181641 0)"/>
     <use xlink:href="#DejaVuSans-64" transform="translate(124.560547 0)"/>
     <use xlink:href="#DejaVuSans-65" transform="translate(188.037109 0)"/>
     <use xlink:href="#DejaVuSans-20" transform="translate(249.560547 0)"/>
     <use xlink:href="#DejaVuSans-64" transform="translate(281.347656 0)"/>
     <use xlink:href="#DejaVuSans-69" transform="translate(344.824219 0)"/>
     <use xlink:href="#DejaVuSans-66" transform="translate(372.607422 0)"/>
     <use xlink:href="#DejaVuSans-66" transform="translate(407.8125 0)"/>
     <use xlink:href="#DejaVuSans-75" transform="translate(443.017578 0)"/>
     <use xlink:href="#DejaVuSans-73" transform="translate(506.396484 0)"/>
     <use xlink:href="#DejaVuSans-65" transform="translate(558.496094 0)"/>
    </g>
   </g>
   <g id="text_6">
    <!-- diffusione da un singolo centro atomico -->
    <g transform="translate(58.259006 110.318932) scale(0.115 -0.115)">
     <defs>
      <path id="DejaVuSans-Bold-64" d="M 2919 2988 
L 2919 4863 
L 4044 4863 
L 4044 0 
L 2919 0 
L 2919 506 
Q 2688 197 2409 53 
Q 2131 -91 1766 -91 
Q 1119 -91 703 423 
Q 288 938 288 1747 
Q 288 2556 703 3070 
Q 1119 3584 1766 3584 
Q 2128 3584 2408 3439 
Q 2688 3294 2919 2988 
z
M 2181 722 
Q 2541 722 2730 984 
Q 2919 1247 2919 1747 
Q 2919 2247 2730 2509 
Q 2541 2772 2181 2772 
Q 1825 2772 1636 2509 
Q 1447 2247 1447 1747 
Q 1447 1247 1636 984 
Q 1825 722 2181 722 
z
" transform="scale(0.015625)"/>
      <path id="DejaVuSans-Bold-69" d="M 538 3500 
L 1656 3500 
L 1656 0 
L 538 0 
L 538 3500 
z
M 538 4863 
L 1656 4863 
L 1656 3950 
L 538 3950 
L 538 4863 
z
" transform="scale(0.015625)"/>
      <path id="DejaVuSans-Bold-66" d="M 2841 4863 
L 2841 4128 
L 2222 4128 
Q 1984 4128 1890 4042 
Q 1797 3956 1797 3744 
L 1797 3500 
L 2753 3500 
L 2753 2700 
L 1797 2700 
L 1797 0 
L 678 0 
L 678 2700 
L 122 2700 
L 122 3500 
L 678 3500 
L 678 3744 
Q 678 4316 997 4589 
Q 1316 4863 1984 4863 
L 2841 4863 
z
" transform="scale(0.015625)"/>
      <path id="DejaVuSans-Bold-75" d="M 500 1363 
L 500 3500 
L 1625 3500 
L 1625 3150 
Q 1625 2866 1622 2436 
Q 1619 2006 1619 1863 
Q 1619 1441 1641 1255 
Q 1663 1069 1716 984 
Q 1784 875 1895 815 
Q 2006 756 2150 756 
Q 2500 756 2700 1025 
Q 2900 1294 2900 1772 
L 2900 3500 
L 4019 3500 
L 4019 0 
L 2900 0 
L 2900 506 
Q 2647 200 2364 54 
Q 2081 -91 1741 -91 
Q 1134 -91 817 281 
Q 500 653 500 1363 
z
" transform="scale(0.015625)"/>
      <path id="DejaVuSans-Bold-73" d="M 3272 3391 
L 3272 2541 
Q 2913 2691 2578 2766 
Q 2244 2841 1947 2841 
Q 1628 2841 1473 2761 
Q 1319 2681 1319 2516 
Q 1319 2381 1436 2309 
Q 1553 2238 1856 2203 
L 2053 2175 
Q 2913 2066 3209 1816 
Q 3506 1566 3506 1031 
Q 3506 472 3093 190 
Q 2681 -91 1863 -91 
Q 1516 -91 1145 -36 
Q 775 19 384 128 
L 384 978 
Q 719 816 1070 734 
Q 1422 653 1784 653 
Q 2113 653 2278 743 
Q 2444 834 2444 1013 
Q 2444 1163 2330 1236 
Q 2216 1309 1875 1350 
L 1678 1375 
Q 931 1469 631 1722 
Q 331 1975 331 2491 
Q 331 3047 712 3315 
Q 1094 3584 1881 3584 
Q 2191 3584 2531 3537 
Q 2872 3491 3272 3391 
z
" transform="scale(0.015625)"/>
      <path id="DejaVuSans-Bold-6f" d="M 2203 2784 
Q 1831 2784 1636 2517 
Q 1441 2250 1441 1747 
Q 1441 1244 1636 976 
Q 1831 709 2203 709 
Q 2569 709 2762 976 
Q 2956 1244 2956 1747 
Q 2956 2250 2762 2517 
Q 2569 2784 2203 2784 
z
M 2203 3584 
Q 3106 3584 3614 3096 
Q 4122 2609 4122 1747 
Q 4122 884 3614 396 
Q 3106 -91 2203 -91 
Q 1297 -91 786 396 
Q 275 884 275 1747 
Q 275 2609 786 3096 
Q 1297 3584 2203 3584 
z
" transform="scale(0.015625)"/>
      <path id="DejaVuSans-Bold-6e" d="M 4056 2131 
L 4056 0 
L 2931 0 
L 2931 347 
L 2931 1631 
Q 2931 2084 2911 2256 
Q 2891 2428 2841 2509 
Q 2775 2619 2662 2680 
Q 2550 2741 2406 2741 
Q 2056 2741 1856 2470 
Q 1656 2200 1656 1722 
L 1656 0 
L 538 0 
L 538 3500 
L 1656 3500 
L 1656 2988 
Q 1909 3294 2193 3439 
Q 2478 3584 2822 3584 
Q 3428 3584 3742 3212 
Q 4056 2841 4056 2131 
z
" transform="scale(0.015625)"/>
      <path id="DejaVuSans-Bold-65" d="M 4031 1759 
L 4031 1441 
L 1416 1441 
Q 1456 1047 1700 850 
Q 1944 653 2381 653 
Q 2734 653 3104 758 
Q 3475 863 3866 1075 
L 3866 213 
Q 3469 63 3072 -14 
Q 2675 -91 2278 -91 
Q 1328 -91 801 392 
Q 275 875 275 1747 
Q 275 2603 792 3093 
Q 1309 3584 2216 3584 
Q 3041 3584 3536 3087 
Q 4031 2591 4031 1759 
z
M 2881 2131 
Q 2881 2450 2695 2645 
Q 2509 2841 2209 2841 
Q 1884 2841 1681 2658 
Q 1478 2475 1428 2131 
L 2881 2131 
z
" transform="scale(0.015625)"/>
      <path id="DejaVuSans-Bold-20" transform="scale(0.015625)"/>
      <path id="DejaVuSans-Bold-61" d="M 2106 1575 
Q 1756 1575 1579 1456 
Q 1403 1338 1403 1106 
Q 1403 894 1545 773 
Q 1688 653 1941 653 
Q 2256 653 2472 879 
Q 2688 1106 2688 1447 
L 2688 1575 
L 2106 1575 
z
M 3816 1997 
L 3816 0 
L 2688 0 
L 2688 519 
Q 2463 200 2181 54 
Q 1900 -91 1497 -91 
Q 953 -91 614 226 
Q 275 544 275 1050 
Q 275 1666 698 1953 
Q 1122 2241 2028 2241 
L 2688 2241 
L 2688 2328 
Q 2688 2594 2478 2717 
Q 2269 2841 1825 2841 
Q 1466 2841 1156 2769 
Q 847 2697 581 2553 
L 581 3406 
Q 941 3494 1303 3539 
Q 1666 3584 2028 3584 
Q 2975 3584 3395 3211 
Q 3816 2838 3816 1997 
z
" transform="scale(0.015625)"/>
      <path id="DejaVuSans-Bold-67" d="M 2919 594 
Q 2688 288 2409 144 
Q 2131 0 1766 0 
Q 1125 0 706 504 
Q 288 1009 288 1791 
Q 288 2575 706 3076 
Q 1125 3578 1766 3578 
Q 2131 3578 2409 3434 
Q 2688 3291 2919 2981 
L 2919 3500 
L 4044 3500 
L 4044 353 
Q 4044 -491 3511 -936 
Q 2978 -1381 1966 -1381 
Q 1638 -1381 1331 -1331 
Q 1025 -1281 716 -1178 
L 716 -306 
Q 1009 -475 1290 -558 
Q 1572 -641 1856 -641 
Q 2406 -641 2662 -400 
Q 2919 -159 2919 353 
L 2919 594 
z
M 2181 2772 
Q 1834 2772 1640 2515 
Q 1447 2259 1447 1791 
Q 1447 1309 1634 1061 
Q 1822 813 2181 813 
Q 2531 813 2725 1069 
Q 2919 1325 2919 1791 
Q 2919 2259 2725 2515 
Q 2531 2772 2181 2772 
z
" transform="scale(0.015625)"/>
      <path id="DejaVuSans-Bold-6c" d="M 538 4863 
L 1656 4863 
L 1656 0 
L 538 0 
L 538 4863 
z
" transform="scale(0.015625)"/>
      <path id="DejaVuSans-Bold-63" d="M 3366 3391 
L 3366 2478 
Q 3138 2634 2908 2709 
Q 2678 2784 2431 2784 
Q 1963 2784 1702 2511 
Q 1441 2238 1441 1747 
Q 1441 1256 1702 982 
Q 1963 709 2431 709 
Q 2694 709 2930 787 
Q 3166 866 3366 1019 
L 3366 103 
Q 3103 6 2833 -42 
Q 2563 -91 2291 -91 
Q 1344 -91 809 395 
Q 275 881 275 1747 
Q 275 2613 809 3098 
Q 1344 3584 2291 3584 
Q 2566 3584 2833 3536 
Q 3100 3488 3366 3391 
z
" transform="scale(0.015625)"/>
      <path id="DejaVuSans-Bold-74" d="M 1759 4494 
L 1759 3500 
L 2913 3500 
L 2913 2700 
L 1759 2700 
L 1759 1216 
Q 1759 972 1856 886 
Q 1953 800 2241 800 
L 2816 800 
L 2816 0 
L 1856 0 
Q 1194 0 917 276 
Q 641 553 641 1216 
L 641 2700 
L 84 2700 
L 84 3500 
L 641 3500 
L 641 4494 
L 1759 4494 
z
" transform="scale(0.015625)"/>
      <path id="DejaVuSans-Bold-72" d="M 3138 2547 
Q 2991 2616 2845 2648 
Q 2700 2681 2553 2681 
Q 2122 2681 1889 2404 
Q 1656 2128 1656 1613 
L 1656 0 
L 538 0 
L 538 3500 
L 1656 3500 
L 1656 2925 
Q 1872 3269 2151 3426 
Q 2431 3584 2822 3584 
Q 2878 3584 2943 3579 
Q 3009 3575 3134 3559 
L 3138 2547 
z
" transform="scale(0.015625)"/>
      <path id="DejaVuSans-Bold-6d" d="M 3781 2919 
Q 3994 3244 4286 3414 
Q 4578 3584 4928 3584 
Q 5531 3584 5847 3212 
Q 6163 2841 6163 2131 
L 6163 0 
L 5038 0 
L 5038 1825 
Q 5041 1866 5042 1909 
Q 5044 1953 5044 2034 
Q 5044 2406 4934 2573 
Q 4825 2741 4581 2741 
Q 4263 2741 4089 2478 
Q 3916 2216 3909 1719 
L 3909 0 
L 2784 0 
L 2784 1825 
Q 2784 2406 2684 2573 
Q 2584 2741 2328 2741 
Q 2006 2741 1831 2477 
Q 1656 2213 1656 1722 
L 1656 0 
L 531 0 
L 531 3500 
L 1656 3500 
L 1656 2988 
Q 1863 3284 2130 3434 
Q 2397 3584 2719 3584 
Q 3081 3584 3359 3409 
Q 3638 3234 3781 2919 
z
" transform="scale(0.015625)"/>
     </defs>
     <use xlink:href="#DejaVuSans-Bold-64"/>
     <use xlink:href="#DejaVuSans-Bold-69" transform="translate(71.582031 0)"/>
     <use xlink:href="#DejaVuSans-Bold-66" transform="translate(105.859375 0)"/>
     <use xlink:href="#DejaVuSans-Bold-66" transform="translate(149.365234 0)"/>
     <use xlink:href="#DejaVuSans-Bold-75" transform="translate(192.871094 0)"/>
     <use xlink:href="#DejaVuSans-Bold-73" transform="translate(264.0625 0)"/>
     <use xlink:href="#DejaVuSans-Bold-69" transform="translate(323.583984 0)"/>
     <use xlink:href="#DejaVuSans-Bold-6f" transform="translate(357.861328 0)"/>
     <use xlink:href="#DejaVuSans-Bold-6e" transform="translate(426.5625 0)"/>
     <use xlink:href="#DejaVuSans-Bold-65" transform="translate(497.753906 0)"/>
     <use xlink:href="#DejaVuSans-Bold-20" transform="translate(565.576172 0)"/>
     <use xlink:href="#DejaVuSans-Bold-64" transform="translate(600.390625 0)"/>
     <use xlink:href="#DejaVuSans-Bold-61" transform="translate(671.972656 0)"/>
     <use xlink:href="#DejaVuSans-Bold-20" transform="translate(739.453125 0)"/>
     <use xlink:href="#DejaVuSans-Bold-75" transform="translate(774.267578 0)"/>
     <use xlink:href="#DejaVuSans-Bold-6e" transform="translate(845.458984 0)"/>
     <use xlink:href="#DejaVuSans-Bold-20" transform="translate(916.650391 0)"/>
     <use xlink:href="#DejaVuSans-Bold-73" transform="translate(951.464844 0)"/>
     <use xlink:href="#DejaVuSans-Bold-69" transform="translate(1010.986328 0)"/>
     <use xlink:href="#DejaVuSans-Bold-6e" transform="translate(1045.263672 0)"/>
     <use xlink:href="#DejaVuSans-Bold-67" transform="translate(1116.455078 0)"/>
     <use xlink:href="#DejaVuSans-Bold-6f" transform="translate(1188.037109 0)"/>
     <use xlink:href="#DejaVuSans-Bold-6c" transform="translate(1256.738281 0)"/>
     <use xlink:href="#DejaVuSans-Bold-6f" transform="translate(1291.015625 0)"/>
     <use xlink:href="#DejaVuSans-Bold-20" transform="translate(1359.716797 0)"/>
     <use xlink:href="#DejaVuSans-Bold-63" transform="translate(1394.53125 0)"/>
     <use xlink:href="#DejaVuSans-Bold-65" transform="translate(1453.808594 0)"/>
     <use xlink:href="#DejaVuSans-Bold-6e" transform="translate(1521.630859 0)"/>
     <use xlink:href="#DejaVuSans-Bold-74" transform="translate(1592.822266 0)"/>
     <use xlink:href="#DejaVuSans-Bold-72" transform="translate(1640.625 0)"/>
     <use xlink:href="#DejaVuSans-Bold-6f" transform="translate(1689.941406 0)"/>
     <use xlink:href="#DejaVuSans-Bold-20" transform="translate(1758.642578 0)"/>
     <use xlink:href="#DejaVuSans-Bold-61" transform="translate(1793.457031 0)"/>
     <use xlink:href="#DejaVuSans-Bold-74" transform="translate(1860.9375 0)"/>
     <use xlink:href="#DejaVuSans-Bold-6f" transform="translate(1908.740234 0)"/>
     <use xlink:href="#DejaVuSans-Bold-6d" transform="translate(1977.441406 0)"/>
     <use xlink:href="#DejaVuSans-Bold-69" transform="translate(2081.640625 0)"/>
     <use xlink:href="#DejaVuSans-Bold-63" transform="translate(2115.917969 0)"/>
     <use xlink:href="#DejaVuSans-Bold-6f" transform="translate(2175.195312 0)"/>
    </g>
   </g>
  </g>
  <g id="axes_2">
   <g id="patch_14">
    <path d="M 461.224463 331.530347 
L 541.260826 293.331174 
L 541.260826 209.656793 
L 461.224463 247.855967 
z
" clip-path="url(#p6cf9d1338a)" style="fill: #1f77b4; opacity: 0.12"/>
   </g>
   <g id="PathCollection_1">
    <defs>
     <path id="mf673d2052a" d="M 0 2 
C 0.530406 2 1.03916 1.789267 1.414214 1.414214 
C 1.789267 1.03916 2 0.530406 2 0 
C 2 -0.530406 1.789267 -1.03916 1.414214 -1.414214 
C 1.03916 -1.789267 0.530406 -2 0 -2 
C -0.530406 -2 -1.03916 -1.789267 -1.414214 -1.414214 
C -1.789267 -1.03916 -2 -0.530406 -2 0 
C -2 0.530406 -1.789267 1.03916 -1.414214 1.414214 
C -1.03916 1.789267 -0.530406 2 0 2 
z
" style="stroke: #1f77b4"/>
    </defs>
    <g clip-path="url(#p6cf9d1338a)">
     <use xlink:href="#mf673d2052a" x="470.319504" y="320.616298" style="fill: #1f77b4; stroke: #1f77b4"/>
     <use xlink:href="#mf673d2052a" x="477.595537" y="304.245223" style="fill: #1f77b4; stroke: #1f77b4"/>
     <use xlink:href="#mf673d2052a" x="484.87157" y="287.874149" style="fill: #1f77b4; stroke: #1f77b4"/>
     <use xlink:href="#mf673d2052a" x="492.147603" y="271.503074" style="fill: #1f77b4; stroke: #1f77b4"/>
     <use xlink:href="#mf673d2052a" x="499.423636" y="255.132" style="fill: #1f77b4; stroke: #1f77b4"/>
     <use xlink:href="#mf673d2052a" x="485.599174" y="320.616298" style="fill: #1f77b4; stroke: #1f77b4"/>
     <use xlink:href="#mf673d2052a" x="492.875207" y="304.245223" style="fill: #1f77b4; stroke: #1f77b4"/>
     <use xlink:href="#mf673d2052a" x="500.15124" y="287.874149" style="fill: #1f77b4; stroke: #1f77b4"/>
     <use xlink:href="#mf673d2052a" x="507.427273" y="271.503074" style="fill: #1f77b4; stroke: #1f77b4"/>
     <use xlink:href="#mf673d2052a" x="514.703306" y="255.132" style="fill: #1f77b4; stroke: #1f77b4"/>
     <use xlink:href="#mf673d2052a" x="500.878843" y="320.616298" style="fill: #1f77b4; stroke: #1f77b4"/>
     <use xlink:href="#mf673d2052a" x="508.154876" y="304.245223" style="fill: #1f77b4; stroke: #1f77b4"/>
     <use xlink:href="#mf673d2052a" x="515.430909" y="287.874149" style="fill: #1f77b4; stroke: #1f77b4"/>
     <use xlink:href="#mf673d2052a" x="522.706942" y="271.503074" style="fill: #1f77b4; stroke: #1f77b4"/>
     <use xlink:href="#mf673d2052a" x="529.982975" y="255.132" style="fill: #1f77b4; stroke: #1f77b4"/>
     <use xlink:href="#mf673d2052a" x="516.158512" y="320.616298" style="fill: #1f77b4; stroke: #1f77b4"/>
     <use xlink:href="#mf673d2052a" x="523.434545" y="304.245223" style="fill: #1f77b4; stroke: #1f77b4"/>
     <use xlink:href="#mf673d2052a" x="530.710579" y="287.874149" style="fill: #1f77b4; stroke: #1f77b4"/>
     <use xlink:href="#mf673d2052a" x="537.986612" y="271.503074" style="fill: #1f77b4; stroke: #1f77b4"/>
     <use xlink:href="#mf673d2052a" x="545.262645" y="255.132" style="fill: #1f77b4; stroke: #1f77b4"/>
     <use xlink:href="#mf673d2052a" x="531.438182" y="320.616298" style="fill: #1f77b4; stroke: #1f77b4"/>
     <use xlink:href="#mf673d2052a" x="538.714215" y="304.245223" style="fill: #1f77b4; stroke: #1f77b4"/>
     <use xlink:href="#mf673d2052a" x="545.990248" y="287.874149" style="fill: #1f77b4; stroke: #1f77b4"/>
     <use xlink:href="#mf673d2052a" x="553.266281" y="271.503074" style="fill: #1f77b4; stroke: #1f77b4"/>
     <use xlink:href="#mf673d2052a" x="560.542314" y="255.132" style="fill: #1f77b4; stroke: #1f77b4"/>
    </g>
   </g>
   <g id="patch_15">
    <path d="M 739.532727 355.177455 
L 753.35719 355.177455 
L 753.35719 175.095636 
L 739.532727 175.095636 
z
" clip-path="url(#p6cf9d1338a)" style="fill: #1f77b4; opacity: 0.18"/>
   </g>
   <g id="PathCollection_2">
    <defs>
     <path id="m0acf1e0aab" d="M 0 2.236068 
C 0.593012 2.236068 1.161816 2.000462 1.581139 1.581139 
C 2.000462 1.161816 2.236068 0.593012 2.236068 0 
C 2.236068 -0.593012 2.000462 -1.161816 1.581139 -1.581139 
C 1.161816 -2.000462 0.593012 -2.236068 0 -2.236068 
C -0.593012 -2.236068 -1.161816 -2.000462 -1.581139 -1.581139 
C -2.000462 -1.161816 -2.236068 -0.593012 -2.236068 0 
C -2.236068 0.593012 -2.000462 1.161816 -1.581139 1.581139 
C -1.161816 2.000462 -0.593012 2.236068 0 2.236068 
z
" style="stroke: #ff7f0e"/>
    </defs>
    <g clip-path="url(#p6cf9d1338a)">
     <use xlink:href="#m0acf1e0aab" x="746.444959" y="333.349355" style="fill: #ff7f0e; stroke: #ff7f0e"/>
    </g>
   </g>
   <g id="PathCollection_3">
    <defs>
     <path id="m379bb1b850" d="M 0 3.082207 
C 0.817411 3.082207 1.601453 2.757446 2.179449 2.179449 
C 2.757446 1.601453 3.082207 0.817411 3.082207 0 
C 3.082207 -0.817411 2.757446 -1.601453 2.179449 -2.179449 
C 1.601453 -2.757446 0.817411 -3.082207 0 -3.082207 
C -0.817411 -3.082207 -1.601453 -2.757446 -2.179449 -2.179449 
C -2.757446 -1.601453 -3.082207 -0.817411 -3.082207 0 
C -3.082207 0.817411 -2.757446 1.601453 -2.179449 2.179449 
C -1.601453 2.757446 -0.817411 3.082207 0 3.082207 
z
" style="stroke: #2ca02c"/>
    </defs>
    <g clip-path="url(#p6cf9d1338a)">
     <use xlink:href="#m379bb1b850" x="746.444959" y="299.515802" style="fill: #2ca02c; stroke: #2ca02c"/>
    </g>
   </g>
   <g id="PathCollection_4">
    <defs>
     <path id="m2d81100a97" d="M 0 4.1833 
C 1.109424 4.1833 2.173559 3.742521 2.95804 2.95804 
C 3.742521 2.173559 4.1833 1.109424 4.1833 0 
C 4.1833 -1.109424 3.742521 -2.173559 2.95804 -2.95804 
C 2.173559 -3.742521 1.109424 -4.1833 0 -4.1833 
C -1.109424 -4.1833 -2.173559 -3.742521 -2.95804 -2.95804 
C -3.742521 -2.173559 -4.1833 -1.109424 -4.1833 0 
C -4.1833 1.109424 -3.742521 2.173559 -2.95804 2.95804 
C -2.173559 3.742521 -1.109424 4.1833 0 4.1833 
z
" style="stroke: #d62728"/>
    </defs>
    <g clip-path="url(#p6cf9d1338a)">
     <use xlink:href="#m2d81100a97" x="746.444959" y="273.322083" style="fill: #d62728; stroke: #d62728"/>
    </g>
   </g>
   <g id="PathCollection_5">
    <defs>
     <path id="m023895cd37" d="M 0 3.082207 
C 0.817411 3.082207 1.601453 2.757446 2.179449 2.179449 
C 2.757446 1.601453 3.082207 0.817411 3.082207 0 
C 3.082207 -0.817411 2.757446 -1.601453 2.179449 -2.179449 
C 1.601453 -2.757446 0.817411 -3.082207 0 -3.082207 
C -0.817411 -3.082207 -1.601453 -2.757446 -2.179449 -2.179449 
C -2.757446 -1.601453 -3.082207 -0.817411 -3.082207 0 
C -3.082207 0.817411 -2.757446 1.601453 -2.179449 2.179449 
C -1.601453 2.757446 -0.817411 3.082207 0 3.082207 
z
" style="stroke: #9467bd"/>
    </defs>
    <g clip-path="url(#p6cf9d1338a)">
     <use xlink:href="#m023895cd37" x="746.444959" y="247.128364" style="fill: #9467bd; stroke: #9467bd"/>
    </g>
   </g>
   <g id="PathCollection_6">
    <defs>
     <path id="md2a87cfd26" d="M 0 2.236068 
C 0.593012 2.236068 1.161816 2.000462 1.581139 1.581139 
C 2.000462 1.161816 2.236068 0.593012 2.236068 0 
C 2.236068 -0.593012 2.000462 -1.161816 1.581139 -1.581139 
C 1.161816 -2.000462 0.593012 -2.236068 0 -2.236068 
C -0.593012 -2.236068 -1.161816 -2.000462 -1.581139 -1.581139 
C -2.000462 -1.161816 -2.236068 -0.593012 -2.236068 0 
C -2.236068 0.593012 -2.000462 1.161816 -1.581139 1.581139 
C -1.161816 2.000462 -0.593012 2.236068 0 2.236068 
z
" style="stroke: #8c564b"/>
    </defs>
    <g clip-path="url(#p6cf9d1338a)">
     <use xlink:href="#md2a87cfd26" x="746.444959" y="213.29481" style="fill: #8c564b; stroke: #8c564b"/>
    </g>
   </g>
   <g id="line2d_6">
    <path d="M 443.03438 193.285719 
L 466.681488 215.113818 
" clip-path="url(#p6cf9d1338a)" style="fill: none; stroke: #1f77b4; stroke-width: 0.8; stroke-linecap: square"/>
   </g>
   <g id="line2d_7">
    <path d="M 443.03438 186.009686 
L 466.681488 207.837785 
" clip-path="url(#p6cf9d1338a)" style="fill: none; stroke: #ff7f0e; stroke-width: 0.8; stroke-linecap: square"/>
   </g>
   <g id="line2d_8">
    <path d="M 443.03438 178.733653 
L 466.681488 200.561752 
" clip-path="url(#p6cf9d1338a)" style="fill: none; stroke: #2ca02c; stroke-width: 0.8; stroke-linecap: square"/>
   </g>
   <g id="line2d_9">
    <path d="M 443.03438 171.45762 
L 466.681488 193.285719 
" clip-path="url(#p6cf9d1338a)" style="fill: none; stroke: #d62728; stroke-width: 0.8; stroke-linecap: square"/>
   </g>
   <g id="line2d_10">
    <path d="M 470.319504 320.616298 
L 739.532727 235.791812 
" clip-path="url(#p6cf9d1338a)" style="fill: none; stroke-dasharray: 0.45,0.7425; stroke-dashoffset: 0; stroke: #9467bd; stroke-opacity: 0.38; stroke-width: 0.45"/>
   </g>
   <g id="line2d_11">
    <path d="M 492.147603 271.503074 
L 739.532727 260.513484 
" clip-path="url(#p6cf9d1338a)" style="fill: none; stroke-dasharray: 0.45,0.7425; stroke-dashoffset: 0; stroke: #8c564b; stroke-opacity: 0.38; stroke-width: 0.45"/>
   </g>
   <g id="line2d_12">
    <path d="M 492.875207 304.245223 
L 739.532727 256.420799 
" clip-path="url(#p6cf9d1338a)" style="fill: none; stroke-dasharray: 0.45,0.7425; stroke-dashoffset: 0; stroke: #e377c2; stroke-opacity: 0.38; stroke-width: 0.45"/>
   </g>
   <g id="line2d_13">
    <path d="M 514.703306 255.132 
L 739.532727 241.51607 
" clip-path="url(#p6cf9d1338a)" style="fill: none; stroke-dasharray: 0.45,0.7425; stroke-dashoffset: 0; stroke: #7f7f7f; stroke-opacity: 0.38; stroke-width: 0.45"/>
   </g>
   <g id="line2d_14">
    <path d="M 515.430909 287.874149 
L 739.532727 253.057475 
" clip-path="url(#p6cf9d1338a)" style="fill: none; stroke-dasharray: 0.45,0.7425; stroke-dashoffset: 0; stroke: #bcbd22; stroke-opacity: 0.38; stroke-width: 0.45"/>
   </g>
   <g id="line2d_15">
    <path d="M 516.158512 320.616298 
L 739.532727 260.314623 
" clip-path="url(#p6cf9d1338a)" style="fill: none; stroke-dasharray: 0.45,0.7425; stroke-dashoffset: 0; stroke: #17becf; stroke-opacity: 0.38; stroke-width: 0.45"/>
   </g>
   <g id="line2d_16">
    <path d="M 537.986612 271.503074 
L 739.532727 235.123381 
" clip-path="url(#p6cf9d1338a)" style="fill: none; stroke-dasharray: 0.45,0.7425; stroke-dashoffset: 0; stroke: #1f77b4; stroke-opacity: 0.38; stroke-width: 0.45"/>
   </g>
   <g id="line2d_17">
    <path d="M 538.714215 304.245223 
L 739.532727 240.455692 
" clip-path="url(#p6cf9d1338a)" style="fill: none; stroke-dasharray: 0.45,0.7425; stroke-dashoffset: 0; stroke: #ff7f0e; stroke-opacity: 0.38; stroke-width: 0.45"/>
   </g>
   <g id="line2d_18">
    <path d="M 560.542314 255.132 
L 739.532727 252.856555 
" clip-path="url(#p6cf9d1338a)" style="fill: none; stroke-dasharray: 0.45,0.7425; stroke-dashoffset: 0; stroke: #2ca02c; stroke-opacity: 0.38; stroke-width: 0.45"/>
   </g>
   <g id="patch_16">
    <path d="M 453.458994 173.6776 
Q 461.041801 182.188915 467.880885 189.865438 
" style="fill: none; stroke: #000000; stroke-linecap: round"/>
    <path d="M 466.47988 184.684976 
L 467.880885 189.865438 
L 462.895913 187.877965 
z
" style="fill: #1f77b4; stroke: #000000; stroke-linecap: round"/>
   </g>
   <g id="text_7">
    <!-- fascio X -->
    <g transform="translate(443.365999 176.66957) scale(0.09 -0.09)">
     <defs>
      <path id="DejaVuSans-58" d="M 403 4666 
L 1081 4666 
L 2241 2931 
L 3406 4666 
L 4084 4666 
L 2584 2425 
L 4184 0 
L 3506 0 
L 2194 1984 
L 872 0 
L 191 0 
L 1856 2491 
L 403 4666 
z
" transform="scale(0.015625)"/>
     </defs>
     <use xlink:href="#DejaVuSans-66"/>
     <use xlink:href="#DejaVuSans-61" transform="translate(35.205078 0)"/>
     <use xlink:href="#DejaVuSans-73" transform="translate(96.484375 0)"/>
     <use xlink:href="#DejaVuSans-63" transform="translate(148.583984 0)"/>
     <use xlink:href="#DejaVuSans-69" transform="translate(203.564453 0)"/>
     <use xlink:href="#DejaVuSans-6f" transform="translate(231.347656 0)"/>
     <use xlink:href="#DejaVuSans-20" transform="translate(292.529297 0)"/>
     <use xlink:href="#DejaVuSans-58" transform="translate(324.316406 0)"/>
    </g>
   </g>
   <g id="text_8">
    <!-- diffrattogramma -->
    <g transform="translate(708.417198 163.453983) scale(0.093 -0.093)">
     <defs>
      <path id="DejaVuSans-67" d="M 2906 1791 
Q 2906 2416 2648 2759 
Q 2391 3103 1925 3103 
Q 1463 3103 1205 2759 
Q 947 2416 947 1791 
Q 947 1169 1205 825 
Q 1463 481 1925 481 
Q 2391 481 2648 825 
Q 2906 1169 2906 1791 
z
M 3481 434 
Q 3481 -459 3084 -895 
Q 2688 -1331 1869 -1331 
Q 1566 -1331 1297 -1286 
Q 1028 -1241 775 -1147 
L 775 -588 
Q 1028 -725 1275 -790 
Q 1522 -856 1778 -856 
Q 2344 -856 2625 -561 
Q 2906 -266 2906 331 
L 2906 616 
Q 2728 306 2450 153 
Q 2172 0 1784 0 
Q 1141 0 747 490 
Q 353 981 353 1791 
Q 353 2603 747 3093 
Q 1141 3584 1784 3584 
Q 2172 3584 2450 3431 
Q 2728 3278 2906 2969 
L 2906 3500 
L 3481 3500 
L 3481 434 
z
" transform="scale(0.015625)"/>
      <path id="DejaVuSans-6d" d="M 3328 2828 
Q 3544 3216 3844 3400 
Q 4144 3584 4550 3584 
Q 5097 3584 5394 3201 
Q 5691 2819 5691 2113 
L 5691 0 
L 5113 0 
L 5113 2094 
Q 5113 2597 4934 2840 
Q 4756 3084 4391 3084 
Q 3944 3084 3684 2787 
Q 3425 2491 3425 1978 
L 3425 0 
L 2847 0 
L 2847 2094 
Q 2847 2600 2669 2842 
Q 2491 3084 2119 3084 
Q 1678 3084 1418 2786 
Q 1159 2488 1159 1978 
L 1159 0 
L 581 0 
L 581 3500 
L 1159 3500 
L 1159 2956 
Q 1356 3278 1631 3431 
Q 1906 3584 2284 3584 
Q 2666 3584 2933 3390 
Q 3200 3197 3328 2828 
z
" transform="scale(0.015625)"/>
     </defs>
     <use xlink:href="#DejaVuSans-64"/>
     <use xlink:href="#DejaVuSans-69" transform="translate(63.476562 0)"/>
     <use xlink:href="#DejaVuSans-66" transform="translate(91.259766 0)"/>
     <use xlink:href="#DejaVuSans-66" transform="translate(126.464844 0)"/>
     <use xlink:href="#DejaVuSans-72" transform="translate(161.669922 0)"/>
     <use xlink:href="#DejaVuSans-61" transform="translate(202.783203 0)"/>
     <use xlink:href="#DejaVuSans-74" transform="translate(264.0625 0)"/>
     <use xlink:href="#DejaVuSans-74" transform="translate(303.271484 0)"/>
     <use xlink:href="#DejaVuSans-6f" transform="translate(342.480469 0)"/>
     <use xlink:href="#DejaVuSans-67" transform="translate(403.662109 0)"/>
     <use xlink:href="#DejaVuSans-72" transform="translate(467.138672 0)"/>
     <use xlink:href="#DejaVuSans-61" transform="translate(508.251953 0)"/>
     <use xlink:href="#DejaVuSans-6d" transform="translate(569.53125 0)"/>
     <use xlink:href="#DejaVuSans-6d" transform="translate(666.943359 0)"/>
     <use xlink:href="#DejaVuSans-61" transform="translate(764.355469 0)"/>
    </g>
   </g>
   <g id="text_9">
    <!-- campione cristallino -->
    <g transform="translate(452.281894 355.177455) scale(0.09 -0.09)">
     <defs>
      <path id="DejaVuSans-70" d="M 1159 525 
L 1159 -1331 
L 581 -1331 
L 581 3500 
L 1159 3500 
L 1159 2969 
Q 1341 3281 1617 3432 
Q 1894 3584 2278 3584 
Q 2916 3584 3314 3078 
Q 3713 2572 3713 1747 
Q 3713 922 3314 415 
Q 2916 -91 2278 -91 
Q 1894 -91 1617 61 
Q 1341 213 1159 525 
z
M 3116 1747 
Q 3116 2381 2855 2742 
Q 2594 3103 2138 3103 
Q 1681 3103 1420 2742 
Q 1159 2381 1159 1747 
Q 1159 1113 1420 752 
Q 1681 391 2138 391 
Q 2594 391 2855 752 
Q 3116 1113 3116 1747 
z
" transform="scale(0.015625)"/>
     </defs>
     <use xlink:href="#DejaVuSans-63"/>
     <use xlink:href="#DejaVuSans-61" transform="translate(54.980469 0)"/>
     <use xlink:href="#DejaVuSans-6d" transform="translate(116.259766 0)"/>
     <use xlink:href="#DejaVuSans-70" transform="translate(213.671875 0)"/>
     <use xlink:href="#DejaVuSans-69" transform="translate(277.148438 0)"/>
     <use xlink:href="#DejaVuSans-6f" transform="translate(304.931641 0)"/>
     <use xlink:href="#DejaVuSans-6e" transform="translate(366.113281 0)"/>
     <use xlink:href="#DejaVuSans-65" transform="translate(429.492188 0)"/>
     <use xlink:href="#DejaVuSans-20" transform="translate(491.015625 0)"/>
     <use xlink:href="#DejaVuSans-63" transform="translate(522.802734 0)"/>
     <use xlink:href="#DejaVuSans-72" transform="translate(577.783203 0)"/>
     <use xlink:href="#DejaVuSans-69" transform="translate(618.896484 0)"/>
     <use xlink:href="#DejaVuSans-73" transform="translate(646.679688 0)"/>
     <use xlink:href="#DejaVuSans-74" transform="translate(698.779297 0)"/>
     <use xlink:href="#DejaVuSans-61" transform="translate(737.988281 0)"/>
     <use xlink:href="#DejaVuSans-6c" transform="translate(799.267578 0)"/>
     <use xlink:href="#DejaVuSans-6c" transform="translate(827.050781 0)"/>
     <use xlink:href="#DejaVuSans-69" transform="translate(854.833984 0)"/>
     <use xlink:href="#DejaVuSans-6e" transform="translate(882.617188 0)"/>
     <use xlink:href="#DejaVuSans-6f" transform="translate(945.996094 0)"/>
    </g>
   </g>
   <g id="text_10">
    <!-- interferenza collettiva e massimi di Bragg -->
    <g transform="translate(483.19869 114.525388) scale(0.115 -0.115)">
     <defs>
      <path id="DejaVuSans-Bold-7a" d="M 366 3500 
L 3419 3500 
L 3419 2719 
L 1575 800 
L 3419 800 
L 3419 0 
L 288 0 
L 288 781 
L 2131 2700 
L 366 2700 
L 366 3500 
z
" transform="scale(0.015625)"/>
      <path id="DejaVuSans-Bold-76" d="M 97 3500 
L 1216 3500 
L 2088 1081 
L 2956 3500 
L 4078 3500 
L 2700 0 
L 1472 0 
L 97 3500 
z
" transform="scale(0.015625)"/>
      <path id="DejaVuSans-Bold-42" d="M 2456 2859 
Q 2741 2859 2887 2984 
Q 3034 3109 3034 3353 
Q 3034 3594 2887 3720 
Q 2741 3847 2456 3847 
L 1791 3847 
L 1791 2859 
L 2456 2859 
z
M 2497 819 
Q 2859 819 3042 972 
Q 3225 1125 3225 1434 
Q 3225 1738 3044 1889 
Q 2863 2041 2497 2041 
L 1791 2041 
L 1791 819 
L 2497 819 
z
M 3616 2497 
Q 4003 2384 4215 2081 
Q 4428 1778 4428 1338 
Q 4428 663 3972 331 
Q 3516 0 2584 0 
L 588 0 
L 588 4666 
L 2394 4666 
Q 3366 4666 3802 4372 
Q 4238 4078 4238 3431 
Q 4238 3091 4078 2852 
Q 3919 2613 3616 2497 
z
" transform="scale(0.015625)"/>
     </defs>
     <use xlink:href="#DejaVuSans-Bold-69"/>
     <use xlink:href="#DejaVuSans-Bold-6e" transform="translate(34.277344 0)"/>
     <use xlink:href="#DejaVuSans-Bold-74" transform="translate(105.46875 0)"/>
     <use xlink:href="#DejaVuSans-Bold-65" transform="translate(153.271484 0)"/>
     <use xlink:href="#DejaVuSans-Bold-72" transform="translate(221.09375 0)"/>
     <use xlink:href="#DejaVuSans-Bold-66" transform="translate(270.410156 0)"/>
     <use xlink:href="#DejaVuSans-Bold-65" transform="translate(313.916016 0)"/>
     <use xlink:href="#DejaVuSans-Bold-72" transform="translate(381.738281 0)"/>
     <use xlink:href="#DejaVuSans-Bold-65" transform="translate(431.054688 0)"/>
     <use xlink:href="#DejaVuSans-Bold-6e" transform="translate(498.876953 0)"/>
     <use xlink:href="#DejaVuSans-Bold-7a" transform="translate(570.068359 0)"/>
     <use xlink:href="#DejaVuSans-Bold-61" transform="translate(628.271484 0)"/>
     <use xlink:href="#DejaVuSans-Bold-20" transform="translate(695.751953 0)"/>
     <use xlink:href="#DejaVuSans-Bold-63" transform="translate(730.566406 0)"/>
     <use xlink:href="#DejaVuSans-Bold-6f" transform="translate(789.84375 0)"/>
     <use xlink:href="#DejaVuSans-Bold-6c" transform="translate(858.544922 0)"/>
     <use xlink:href="#DejaVuSans-Bold-6c" transform="translate(892.822266 0)"/>
     <use xlink:href="#DejaVuSans-Bold-65" transform="translate(927.099609 0)"/>
     <use xlink:href="#DejaVuSans-Bold-74" transform="translate(994.921875 0)"/>
     <use xlink:href="#DejaVuSans-Bold-74" transform="translate(1042.724609 0)"/>
     <use xlink:href="#DejaVuSans-Bold-69" transform="translate(1090.527344 0)"/>
     <use xlink:href="#DejaVuSans-Bold-76" transform="translate(1124.804688 0)"/>
     <use xlink:href="#DejaVuSans-Bold-61" transform="translate(1189.990234 0)"/>
     <use xlink:href="#DejaVuSans-Bold-20" transform="translate(1257.470703 0)"/>
     <use xlink:href="#DejaVuSans-Bold-65" transform="translate(1292.285156 0)"/>
     <use xlink:href="#DejaVuSans-Bold-20" transform="translate(1360.107422 0)"/>
     <use xlink:href="#DejaVuSans-Bold-6d" transform="translate(1394.921875 0)"/>
     <use xlink:href="#DejaVuSans-Bold-61" transform="translate(1499.121094 0)"/>
     <use xlink:href="#DejaVuSans-Bold-73" transform="translate(1566.601562 0)"/>
     <use xlink:href="#DejaVuSans-Bold-73" transform="translate(1626.123047 0)"/>
     <use xlink:href="#DejaVuSans-Bold-69" transform="translate(1685.644531 0)"/>
     <use xlink:href="#DejaVuSans-Bold-6d" transform="translate(1719.921875 0)"/>
     <use xlink:href="#DejaVuSans-Bold-69" transform="translate(1824.121094 0)"/>
     <use xlink:href="#DejaVuSans-Bold-20" transform="translate(1858.398438 0)"/>
     <use xlink:href="#DejaVuSans-Bold-64" transform="translate(1893.212891 0)"/>
     <use xlink:href="#DejaVuSans-Bold-69" transform="translate(1964.794922 0)"/>
     <use xlink:href="#DejaVuSans-Bold-20" transform="translate(1999.072266 0)"/>
     <use xlink:href="#DejaVuSans-Bold-42" transform="translate(2033.886719 0)"/>
     <use xlink:href="#DejaVuSans-Bold-72" transform="translate(2110.107422 0)"/>
     <use xlink:href="#DejaVuSans-Bold-61" transform="translate(2159.423828 0)"/>
     <use xlink:href="#DejaVuSans-Bold-67" transform="translate(2226.904297 0)"/>
     <use xlink:href="#DejaVuSans-Bold-67" transform="translate(2298.486328 0)"/>
    </g>
   </g>
  </g>
  <g id="text_11">
   <!-- Schema concettuale della diffrazione di raggi X da un cristallo -->
   <g transform="translate(126.836719 18.597656) scale(0.15 -0.15)">
    <defs>
     <path id="DejaVuSans-Bold-53" d="M 3834 4519 
L 3834 3531 
Q 3450 3703 3084 3790 
Q 2719 3878 2394 3878 
Q 1963 3878 1756 3759 
Q 1550 3641 1550 3391 
Q 1550 3203 1689 3098 
Q 1828 2994 2194 2919 
L 2706 2816 
Q 3484 2659 3812 2340 
Q 4141 2022 4141 1434 
Q 4141 663 3683 286 
Q 3225 -91 2284 -91 
Q 1841 -91 1394 -6 
Q 947 78 500 244 
L 500 1259 
Q 947 1022 1364 901 
Q 1781 781 2169 781 
Q 2563 781 2772 912 
Q 2981 1044 2981 1288 
Q 2981 1506 2839 1625 
Q 2697 1744 2272 1838 
L 1806 1941 
Q 1106 2091 782 2419 
Q 459 2747 459 3303 
Q 459 4000 909 4375 
Q 1359 4750 2203 4750 
Q 2588 4750 2994 4692 
Q 3400 4634 3834 4519 
z
" transform="scale(0.015625)"/>
     <path id="DejaVuSans-Bold-68" d="M 4056 2131 
L 4056 0 
L 2931 0 
L 2931 347 
L 2931 1625 
Q 2931 2084 2911 2256 
Q 2891 2428 2841 2509 
Q 2775 2619 2662 2680 
Q 2550 2741 2406 2741 
Q 2056 2741 1856 2470 
Q 1656 2200 1656 1722 
L 1656 0 
L 538 0 
L 538 4863 
L 1656 4863 
L 1656 2988 
Q 1909 3294 2193 3439 
Q 2478 3584 2822 3584 
Q 3428 3584 3742 3212 
Q 4056 2841 4056 2131 
z
" transform="scale(0.015625)"/>
     <path id="DejaVuSans-Bold-58" d="M 3188 2381 
L 4806 0 
L 3553 0 
L 2463 1594 
L 1381 0 
L 122 0 
L 1741 2381 
L 184 4666 
L 1441 4666 
L 2463 3163 
L 3481 4666 
L 4744 4666 
L 3188 2381 
z
" transform="scale(0.015625)"/>
    </defs>
    <use xlink:href="#DejaVuSans-Bold-53"/>
    <use xlink:href="#DejaVuSans-Bold-63" transform="translate(72.021484 0)"/>
    <use xlink:href="#DejaVuSans-Bold-68" transform="translate(131.298828 0)"/>
    <use xlink:href="#DejaVuSans-Bold-65" transform="translate(202.490234 0)"/>
    <use xlink:href="#DejaVuSans-Bold-6d" transform="translate(270.3125 0)"/>
    <use xlink:href="#DejaVuSans-Bold-61" transform="translate(374.511719 0)"/>
    <use xlink:href="#DejaVuSans-Bold-20" transform="translate(441.992188 0)"/>
    <use xlink:href="#DejaVuSans-Bold-63" transform="translate(476.806641 0)"/>
    <use xlink:href="#DejaVuSans-Bold-6f" transform="translate(536.083984 0)"/>
    <use xlink:href="#DejaVuSans-Bold-6e" transform="translate(604.785156 0)"/>
    <use xlink:href="#DejaVuSans-Bold-63" transform="translate(675.976562 0)"/>
    <use xlink:href="#DejaVuSans-Bold-65" transform="translate(735.253906 0)"/>
    <use xlink:href="#DejaVuSans-Bold-74" transform="translate(803.076172 0)"/>
    <use xlink:href="#DejaVuSans-Bold-74" transform="translate(850.878906 0)"/>
    <use xlink:href="#DejaVuSans-Bold-75" transform="translate(898.681641 0)"/>
    <use xlink:href="#DejaVuSans-Bold-61" transform="translate(969.873047 0)"/>
    <use xlink:href="#DejaVuSans-Bold-6c" transform="translate(1037.353516 0)"/>
    <use xlink:href="#DejaVuSans-Bold-65" transform="translate(1071.630859 0)"/>
    <use xlink:href="#DejaVuSans-Bold-20" transform="translate(1139.453125 0)"/>
    <use xlink:href="#DejaVuSans-Bold-64" transform="translate(1174.267578 0)"/>
    <use xlink:href="#DejaVuSans-Bold-65" transform="translate(1245.849609 0)"/>
    <use xlink:href="#DejaVuSans-Bold-6c" transform="translate(1313.671875 0)"/>
    <use xlink:href="#DejaVuSans-Bold-6c" transform="translate(1347.949219 0)"/>
    <use xlink:href="#DejaVuSans-Bold-61" transform="translate(1382.226562 0)"/>
    <use xlink:href="#DejaVuSans-Bold-20" transform="translate(1449.707031 0)"/>
    <use xlink:href="#DejaVuSans-Bold-64" transform="translate(1484.521484 0)"/>
    <use xlink:href="#DejaVuSans-Bold-69" transform="translate(1556.103516 0)"/>
    <use xlink:href="#DejaVuSans-Bold-66" transform="translate(1590.380859 0)"/>
    <use xlink:href="#DejaVuSans-Bold-66" transform="translate(1633.886719 0)"/>
    <use xlink:href="#DejaVuSans-Bold-72" transform="translate(1677.392578 0)"/>
    <use xlink:href="#DejaVuSans-Bold-61" transform="translate(1726.708984 0)"/>
    <use xlink:href="#DejaVuSans-Bold-7a" transform="translate(1794.189453 0)"/>
    <use xlink:href="#DejaVuSans-Bold-69" transform="translate(1852.392578 0)"/>
    <use xlink:href="#DejaVuSans-Bold-6f" transform="translate(1886.669922 0)"/>
    <use xlink:href="#DejaVuSans-Bold-6e" transform="translate(1955.371094 0)"/>
    <use xlink:href="#DejaVuSans-Bold-65" transform="translate(2026.5625 0)"/>
    <use xlink:href="#DejaVuSans-Bold-20" transform="translate(2094.384766 0)"/>
    <use xlink:href="#DejaVuSans-Bold-64" transform="translate(2129.199219 0)"/>
    <use xlink:href="#DejaVuSans-Bold-69" transform="translate(2200.78125 0)"/>
    <use xlink:href="#DejaVuSans-Bold-20" transform="translate(2235.058594 0)"/>
    <use xlink:href="#DejaVuSans-Bold-72" transform="translate(2269.873047 0)"/>
    <use xlink:href="#DejaVuSans-Bold-61" transform="translate(2319.189453 0)"/>
    <use xlink:href="#DejaVuSans-Bold-67" transform="translate(2386.669922 0)"/>
    <use xlink:href="#DejaVuSans-Bold-67" transform="translate(2458.251953 0)"/>
    <use xlink:href="#DejaVuSans-Bold-69" transform="translate(2529.833984 0)"/>
    <use xlink:href="#DejaVuSans-Bold-20" transform="translate(2564.111328 0)"/>
    <use xlink:href="#DejaVuSans-Bold-58" transform="translate(2598.925781 0)"/>
    <use xlink:href="#DejaVuSans-Bold-20" transform="translate(2676.025391 0)"/>
    <use xlink:href="#DejaVuSans-Bold-64" transform="translate(2710.839844 0)"/>
    <use xlink:href="#DejaVuSans-Bold-61" transform="translate(2782.421875 0)"/>
    <use xlink:href="#DejaVuSans-Bold-20" transform="translate(2849.902344 0)"/>
    <use xlink:href="#DejaVuSans-Bold-75" transform="translate(2884.716797 0)"/>
    <use xlink:href="#DejaVuSans-Bold-6e" transform="translate(2955.908203 0)"/>
    <use xlink:href="#DejaVuSans-Bold-20" transform="translate(3027.099609 0)"/>
    <use xlink:href="#DejaVuSans-Bold-63" transform="translate(3061.914062 0)"/>
    <use xlink:href="#DejaVuSans-Bold-72" transform="translate(3121.191406 0)"/>
    <use xlink:href="#DejaVuSans-Bold-69" transform="translate(3170.507812 0)"/>
    <use xlink:href="#DejaVuSans-Bold-73" transform="translate(3204.785156 0)"/>
    <use xlink:href="#DejaVuSans-Bold-74" transform="translate(3264.306641 0)"/>
    <use xlink:href="#DejaVuSans-Bold-61" transform="translate(3312.109375 0)"/>
    <use xlink:href="#DejaVuSans-Bold-6c" transform="translate(3379.589844 0)"/>
    <use xlink:href="#DejaVuSans-Bold-6c" transform="translate(3413.867188 0)"/>
    <use xlink:href="#DejaVuSans-Bold-6f" transform="translate(3448.144531 0)"/>
   </g>
  </g>
  <g id="text_12">
   <!-- Le onde diffuse da molti atomi interferiscono: soltanto alcune direzioni soddisfano la condizione di fase e producono massimi sul rivelatore. -->
   <g transform="translate(41.030469 495.396) scale(0.1 -0.1)">
    <defs>
     <path id="DejaVuSans-4c" d="M 628 4666 
L 1259 4666 
L 1259 531 
L 3531 531 
L 3531 0 
L 628 0 
L 628 4666 
z
" transform="scale(0.015625)"/>
     <path id="DejaVuSans-3a" d="M 750 794 
L 1409 794 
L 1409 0 
L 750 0 
L 750 794 
z
M 750 3309 
L 1409 3309 
L 1409 2516 
L 750 2516 
L 750 3309 
z
" transform="scale(0.015625)"/>
     <path id="DejaVuSans-7a" d="M 353 3500 
L 3084 3500 
L 3084 2975 
L 922 459 
L 3084 459 
L 3084 0 
L 275 0 
L 275 525 
L 2438 3041 
L 353 3041 
L 353 3500 
z
" transform="scale(0.015625)"/>
     <path id="DejaVuSans-2e" d="M 684 794 
L 1344 794 
L 1344 0 
L 684 0 
L 684 794 
z
" transform="scale(0.015625)"/>
    </defs>
    <use xlink:href="#DejaVuSans-4c"/>
    <use xlink:href="#DejaVuSans-65" transform="translate(53.962891 0)"/>
    <use xlink:href="#DejaVuSans-20" transform="translate(115.486328 0)"/>
    <use xlink:href="#DejaVuSans-6f" transform="translate(147.273438 0)"/>
    <use xlink:href="#DejaVuSans-6e" transform="translate(208.455078 0)"/>
    <use xlink:href="#DejaVuSans-64" transform="translate(271.833984 0)"/>
    <use xlink:href="#DejaVuSans-65" transform="translate(335.310547 0)"/>
    <use xlink:href="#DejaVuSans-20" transform="translate(396.833984 0)"/>
    <use xlink:href="#DejaVuSans-64" transform="translate(428.621094 0)"/>
    <use xlink:href="#DejaVuSans-69" transform="translate(492.097656 0)"/>
    <use xlink:href="#DejaVuSans-66" transform="translate(519.880859 0)"/>
    <use xlink:href="#DejaVuSans-66" transform="translate(555.085938 0)"/>
    <use xlink:href="#DejaVuSans-75" transform="translate(590.291016 0)"/>
    <use xlink:href="#DejaVuSans-73" transform="translate(653.669922 0)"/>
    <use xlink:href="#DejaVuSans-65" transform="translate(705.769531 0)"/>
    <use xlink:href="#DejaVuSans-20" transform="translate(767.292969 0)"/>
    <use xlink:href="#DejaVuSans-64" transform="translate(799.080078 0)"/>
    <use xlink:href="#DejaVuSans-61" transform="translate(862.556641 0)"/>
    <use xlink:href="#DejaVuSans-20" transform="translate(923.835938 0)"/>
    <use xlink:href="#DejaVuSans-6d" transform="translate(955.623047 0)"/>
    <use xlink:href="#DejaVuSans-6f" transform="translate(1053.035156 0)"/>
    <use xlink:href="#DejaVuSans-6c" transform="translate(1114.216797 0)"/>
    <use xlink:href="#DejaVuSans-74" transform="translate(1142 0)"/>
    <use xlink:href="#DejaVuSans-69" transform="translate(1181.208984 0)"/>
    <use xlink:href="#DejaVuSans-20" transform="translate(1208.992188 0)"/>
    <use xlink:href="#DejaVuSans-61" transform="translate(1240.779297 0)"/>
    <use xlink:href="#DejaVuSans-74" transform="translate(1302.058594 0)"/>
    <use xlink:href="#DejaVuSans-6f" transform="translate(1341.267578 0)"/>
    <use xlink:href="#DejaVuSans-6d" transform="translate(1402.449219 0)"/>
    <use xlink:href="#DejaVuSans-69" transform="translate(1499.861328 0)"/>
    <use xlink:href="#DejaVuSans-20" transform="translate(1527.644531 0)"/>
    <use xlink:href="#DejaVuSans-69" transform="translate(1559.431641 0)"/>
    <use xlink:href="#DejaVuSans-6e" transform="translate(1587.214844 0)"/>
    <use xlink:href="#DejaVuSans-74" transform="translate(1650.59375 0)"/>
    <use xlink:href="#DejaVuSans-65" transform="translate(1689.802734 0)"/>
    <use xlink:href="#DejaVuSans-72" transform="translate(1751.326172 0)"/>
    <use xlink:href="#DejaVuSans-66" transform="translate(1792.439453 0)"/>
    <use xlink:href="#DejaVuSans-65" transform="translate(1827.644531 0)"/>
    <use xlink:href="#DejaVuSans-72" transform="translate(1889.167969 0)"/>
    <use xlink:href="#DejaVuSans-69" transform="translate(1930.28125 0)"/>
    <use xlink:href="#DejaVuSans-73" transform="translate(1958.064453 0)"/>
    <use xlink:href="#DejaVuSans-63" transform="translate(2010.164062 0)"/>
    <use xlink:href="#DejaVuSans-6f" transform="translate(2065.144531 0)"/>
    <use xlink:href="#DejaVuSans-6e" transform="translate(2126.326172 0)"/>
    <use xlink:href="#DejaVuSans-6f" transform="translate(2189.705078 0)"/>
    <use xlink:href="#DejaVuSans-3a" transform="translate(2250.886719 0)"/>
    <use xlink:href="#DejaVuSans-20" transform="translate(2284.578125 0)"/>
    <use xlink:href="#DejaVuSans-73" transform="translate(2316.365234 0)"/>
    <use xlink:href="#DejaVuSans-6f" transform="translate(2368.464844 0)"/>
    <use xlink:href="#DejaVuSans-6c" transform="translate(2429.646484 0)"/>
    <use xlink:href="#DejaVuSans-74" transform="translate(2457.429688 0)"/>
    <use xlink:href="#DejaVuSans-61" transform="translate(2496.638672 0)"/>
    <use xlink:href="#DejaVuSans-6e" transform="translate(2557.917969 0)"/>
    <use xlink:href="#DejaVuSans-74" transform="translate(2621.296875 0)"/>
    <use xlink:href="#DejaVuSans-6f" transform="translate(2660.505859 0)"/>
    <use xlink:href="#DejaVuSans-20" transform="translate(2721.6875 0)"/>
    <use xlink:href="#DejaVuSans-61" transform="translate(2753.474609 0)"/>
    <use xlink:href="#DejaVuSans-6c" transform="translate(2814.753906 0)"/>
    <use xlink:href="#DejaVuSans-63" transform="translate(2842.537109 0)"/>
    <use xlink:href="#DejaVuSans-75" transform="translate(2897.517578 0)"/>
    <use xlink:href="#DejaVuSans-6e" transform="translate(2960.896484 0)"/>
    <use xlink:href="#DejaVuSans-65" transform="translate(3024.275391 0)"/>
    <use xlink:href="#DejaVuSans-20" transform="translate(3085.798828 0)"/>
    <use xlink:href="#DejaVuSans-64" transform="translate(3117.585938 0)"/>
    <use xlink:href="#DejaVuSans-69" transform="translate(3181.0625 0)"/>
    <use xlink:href="#DejaVuSans-72" transform="translate(3208.845703 0)"/>
    <use xlink:href="#DejaVuSans-65" transform="translate(3247.708984 0)"/>
    <use xlink:href="#DejaVuSans-7a" transform="translate(3309.232422 0)"/>
    <use xlink:href="#DejaVuSans-69" transform="translate(3361.722656 0)"/>
    <use xlink:href="#DejaVuSans-6f" transform="translate(3389.505859 0)"/>
    <use xlink:href="#DejaVuSans-6e" transform="translate(3450.6875 0)"/>
    <use xlink:href="#DejaVuSans-69" transform="translate(3514.066406 0)"/>
    <use xlink:href="#DejaVuSans-20" transform="translate(3541.849609 0)"/>
    <use xlink:href="#DejaVuSans-73" transform="translate(3573.636719 0)"/>
    <use xlink:href="#DejaVuSans-6f" transform="translate(3625.736328 0)"/>
    <use xlink:href="#DejaVuSans-64" transform="translate(3686.917969 0)"/>
    <use xlink:href="#DejaVuSans-64" transform="translate(3750.394531 0)"/>
    <use xlink:href="#DejaVuSans-69" transform="translate(3813.871094 0)"/>
    <use xlink:href="#DejaVuSans-73" transform="translate(3841.654297 0)"/>
    <use xlink:href="#DejaVuSans-66" transform="translate(3893.753906 0)"/>
    <use xlink:href="#DejaVuSans-61" transform="translate(3928.958984 0)"/>
    <use xlink:href="#DejaVuSans-6e" transform="translate(3990.238281 0)"/>
    <use xlink:href="#DejaVuSans-6f" transform="translate(4053.617188 0)"/>
    <use xlink:href="#DejaVuSans-20" transform="translate(4114.798828 0)"/>
    <use xlink:href="#DejaVuSans-6c" transform="translate(4146.585938 0)"/>
    <use xlink:href="#DejaVuSans-61" transform="translate(4174.369141 0)"/>
    <use xlink:href="#DejaVuSans-20" transform="translate(4235.648438 0)"/>
    <use xlink:href="#DejaVuSans-63" transform="translate(4267.435547 0)"/>
    <use xlink:href="#DejaVuSans-6f" transform="translate(4322.416016 0)"/>
    <use xlink:href="#DejaVuSans-6e" transform="translate(4383.597656 0)"/>
    <use xlink:href="#DejaVuSans-64" transform="translate(4446.976562 0)"/>
    <use xlink:href="#DejaVuSans-69" transform="translate(4510.453125 0)"/>
    <use xlink:href="#DejaVuSans-7a" transform="translate(4538.236328 0)"/>
    <use xlink:href="#DejaVuSans-69" transform="translate(4590.726562 0)"/>
    <use xlink:href="#DejaVuSans-6f" transform="translate(4618.509766 0)"/>
    <use xlink:href="#DejaVuSans-6e" transform="translate(4679.691406 0)"/>
    <use xlink:href="#DejaVuSans-65" transform="translate(4743.070312 0)"/>
    <use xlink:href="#DejaVuSans-20" transform="translate(4804.59375 0)"/>
    <use xlink:href="#DejaVuSans-64" transform="translate(4836.380859 0)"/>
    <use xlink:href="#DejaVuSans-69" transform="translate(4899.857422 0)"/>
    <use xlink:href="#DejaVuSans-20" transform="translate(4927.640625 0)"/>
    <use xlink:href="#DejaVuSans-66" transform="translate(4959.427734 0)"/>
    <use xlink:href="#DejaVuSans-61" transform="translate(4994.632812 0)"/>
    <use xlink:href="#DejaVuSans-73" transform="translate(5055.912109 0)"/>
    <use xlink:href="#DejaVuSans-65" transform="translate(5108.011719 0)"/>
    <use xlink:href="#DejaVuSans-20" transform="translate(5169.535156 0)"/>
    <use xlink:href="#DejaVuSans-65" transform="translate(5201.322266 0)"/>
    <use xlink:href="#DejaVuSans-20" transform="translate(5262.845703 0)"/>
    <use xlink:href="#DejaVuSans-70" transform="translate(5294.632812 0)"/>
    <use xlink:href="#DejaVuSans-72" transform="translate(5358.109375 0)"/>
    <use xlink:href="#DejaVuSans-6f" transform="translate(5396.972656 0)"/>
    <use xlink:href="#DejaVuSans-64" transform="translate(5458.154297 0)"/>
    <use xlink:href="#DejaVuSans-75" transform="translate(5521.630859 0)"/>
    <use xlink:href="#DejaVuSans-63" transform="translate(5585.009766 0)"/>
    <use xlink:href="#DejaVuSans-6f" transform="translate(5639.990234 0)"/>
    <use xlink:href="#DejaVuSans-6e" transform="translate(5701.171875 0)"/>
    <use xlink:href="#DejaVuSans-6f" transform="translate(5764.550781 0)"/>
    <use xlink:href="#DejaVuSans-20" transform="translate(5825.732422 0)"/>
    <use xlink:href="#DejaVuSans-6d" transform="translate(5857.519531 0)"/>
    <use xlink:href="#DejaVuSans-61" transform="translate(5954.931641 0)"/>
    <use xlink:href="#DejaVuSans-73" transform="translate(6016.210938 0)"/>
    <use xlink:href="#DejaVuSans-73" transform="translate(6068.310547 0)"/>
    <use xlink:href="#DejaVuSans-69" transform="translate(6120.410156 0)"/>
    <use xlink:href="#DejaVuSans-6d" transform="translate(6148.193359 0)"/>
    <use xlink:href="#DejaVuSans-69" transform="translate(6245.605469 0)"/>
    <use xlink:href="#DejaVuSans-20" transform="translate(6273.388672 0)"/>
    <use xlink:href="#DejaVuSans-73" transform="translate(6305.175781 0)"/>
    <use xlink:href="#DejaVuSans-75" transform="translate(6357.275391 0)"/>
    <use xlink:href="#DejaVuSans-6c" transform="translate(6420.654297 0)"/>
    <use xlink:href="#DejaVuSans-20" transform="translate(6448.4375 0)"/>
    <use xlink:href="#DejaVuSans-72" transform="translate(6480.224609 0)"/>
    <use xlink:href="#DejaVuSans-69" transform="translate(6521.337891 0)"/>
    <use xlink:href="#DejaVuSans-76" transform="translate(6549.121094 0)"/>
    <use xlink:href="#DejaVuSans-65" transform="translate(6608.300781 0)"/>
    <use xlink:href="#DejaVuSans-6c" transform="translate(6669.824219 0)"/>
    <use xlink:href="#DejaVuSans-61" transform="translate(6697.607422 0)"/>
    <use xlink:href="#DejaVuSans-74" transform="translate(6758.886719 0)"/>
    <use xlink:href="#DejaVuSans-6f" transform="translate(6798.095703 0)"/>
    <use xlink:href="#DejaVuSans-72" transform="translate(6859.277344 0)"/>
    <use xlink:href="#DejaVuSans-65" transform="translate(6898.140625 0)"/>
    <use xlink:href="#DejaVuSans-2e" transform="translate(6959.664062 0)"/>
   </g>
  </g>
 </g>
 <defs>
  <clipPath id="pd0fe9a4824">
   <rect x="7.2" y="116.318932" width="360.163636" height="277.626136"/>
  </clipPath>
  <clipPath id="p6cf9d1338a">
   <rect x="439.396364" y="120.525388" width="360.163636" height="269.213223"/>
  </clipPath>
 </defs>
</svg>
