<?xml version="1.0" encoding="utf-8" standalone="no"?>
<!DOCTYPE svg PUBLIC "-//W3C//DTD SVG 1.1//EN"
  "http://www.w3.org/Graphics/SVG/1.1/DTD/svg11.dtd">
<svg xmlns:xlink="http://www.w3.org/1999/xlink" width="781.24375pt" height="1021.498887pt" viewBox="0 0 781.24375 1021.498887" xmlns="http://www.w3.org/2000/svg" version="1.1">
 <metadata>
  <rdf:RDF xmlns:dc="http://purl.org/dc/elements/1.1/" xmlns:cc="http://creativecommons.org/ns#" xmlns:rdf="http://www.w3.org/1999/02/22-rdf-syntax-ns#">
   <cc:Work>
    <dc:type rdf:resource="http://purl.org/dc/dcmitype/StillImage"/>
    <dc:date>2026-06-16T10:41:31.726278</dc:date>
    <dc:format>image/svg+xml</dc:format>
    <dc:creator>
     <cc:Agent>
      <dc:title>Matplotlib v3.10.8, https://matplotlib.org/</dc:title>
     </cc:Agent>
    </dc:creator>
   </cc:Work>
  </rdf:RDF>
 </metadata>
 <defs>
  <style type="text/css">*{stroke-linejoin: round; stroke-linecap: butt}</style>
 </defs>
 <g id="figure_1">
  <g id="patch_1">
   <path d="M 0 1021.498887 
L 781.24375 1021.498887 
L 781.24375 0 
L 0 0 
z
" style="fill: #ffffff"/>
  </g>
  <g id="patch_2">
   <path d="M 111.755986 295.91687 
L 282.896855 295.91687 
L 282.896855 124.776 
L 111.755986 124.776 
z
" style="fill: #ffffff"/>
  </g>
  <g id="axes_1">
   <g id="Line3DCollection_1">
    <path d="M 138.490102 249.420098 
L 201.910675 273.530174 
" clip-path="url(#p2f1fea6b97)" style="fill: none; stroke: #737373; stroke-width: 0.75"/>
    <path d="M 138.490102 249.420098 
L 197.632742 226.583133 
" clip-path="url(#p2f1fea6b97)" style="fill: none; stroke: #737373; stroke-width: 0.75"/>
    <path d="M 138.490102 249.420098 
L 136.469181 166.788514 
" clip-path="url(#p2f1fea6b97)" style="fill: none; stroke: #737373; stroke-width: 0.75"/>
    <path d="M 136.469181 166.788514 
L 201.990703 186.293111 
" clip-path="url(#p2f1fea6b97)" style="fill: none; stroke: #737373; stroke-width: 0.75"/>
    <path d="M 136.469181 166.788514 
L 197.570562 148.389503 
" clip-path="url(#p2f1fea6b97)" style="fill: none; stroke: #737373; stroke-width: 0.75"/>
    <path d="M 197.632742 226.583133 
L 260.524038 247.786961 
" clip-path="url(#p2f1fea6b97)" style="fill: none; stroke: #737373; stroke-width: 0.75"/>
    <path d="M 197.632742 226.583133 
L 197.570562 148.389503 
" clip-path="url(#p2f1fea6b97)" style="fill: none; stroke: #737373; stroke-width: 0.75"/>
    <path d="M 197.570562 148.389503 
L 262.527253 165.470309 
" clip-path="url(#p2f1fea6b97)" style="fill: none; stroke: #737373; stroke-width: 0.75"/>
    <path d="M 201.910675 273.530174 
L 260.524038 247.786961 
" clip-path="url(#p2f1fea6b97)" style="fill: none; stroke: #737373; stroke-width: 0.75"/>
    <path d="M 201.910675 273.530174 
L 201.990703 186.293111 
" clip-path="url(#p2f1fea6b97)" style="fill: none; stroke: #737373; stroke-width: 0.75"/>
    <path d="M 201.990703 186.293111 
L 262.527253 165.470309 
" clip-path="url(#p2f1fea6b97)" style="fill: none; stroke: #737373; stroke-width: 0.75"/>
    <path d="M 260.524038 247.786961 
L 262.527253 165.470309 
" clip-path="url(#p2f1fea6b97)" style="fill: none; stroke: #737373; stroke-width: 0.75"/>
   </g>
   <g id="text_1">
    <!-- bcc monoatomico -->
    <g transform="translate(145.445756 122.592328) scale(0.105 -0.105)">
     <defs>
      <path id="DejaVuSans-Bold-62" d="M 2400 722 
Q 2759 722 2948 984 
Q 3138 1247 3138 1747 
Q 3138 2247 2948 2509 
Q 2759 2772 2400 2772 
Q 2041 2772 1848 2508 
Q 1656 2244 1656 1747 
Q 1656 1250 1848 986 
Q 2041 722 2400 722 
z
M 1656 2988 
Q 1888 3294 2169 3439 
Q 2450 3584 2816 3584 
Q 3463 3584 3878 3070 
Q 4294 2556 4294 1747 
Q 4294 938 3878 423 
Q 3463 -91 2816 -91 
Q 2450 -91 2169 54 
Q 1888 200 1656 506 
L 1656 0 
L 538 0 
L 538 4863 
L 1656 4863 
L 1656 2988 
z
" transform="scale(0.015625)"/>
      <path id="DejaVuSans-Bold-63" d="M 3366 3391 
L 3366 2478 
Q 3138 2634 2908 2709 
Q 2678 2784 2431 2784 
Q 1963 2784 1702 2511 
Q 1441 2238 1441 1747 
Q 1441 1256 1702 982 
Q 1963 709 2431 709 
Q 2694 709 2930 787 
Q 3166 866 3366 1019 
L 3366 103 
Q 3103 6 2833 -42 
Q 2563 -91 2291 -91 
Q 1344 -91 809 395 
Q 275 881 275 1747 
Q 275 2613 809 3098 
Q 1344 3584 2291 3584 
Q 2566 3584 2833 3536 
Q 3100 3488 3366 3391 
z
" transform="scale(0.015625)"/>
      <path id="DejaVuSans-Bold-20" transform="scale(0.015625)"/>
      <path id="DejaVuSans-Bold-6d" d="M 3781 2919 
Q 3994 3244 4286 3414 
Q 4578 3584 4928 3584 
Q 5531 3584 5847 3212 
Q 6163 2841 6163 2131 
L 6163 0 
L 5038 0 
L 5038 1825 
Q 5041 1866 5042 1909 
Q 5044 1953 5044 2034 
Q 5044 2406 4934 2573 
Q 4825 2741 4581 2741 
Q 4263 2741 4089 2478 
Q 3916 2216 3909 1719 
L 3909 0 
L 2784 0 
L 2784 1825 
Q 2784 2406 2684 2573 
Q 2584 2741 2328 2741 
Q 2006 2741 1831 2477 
Q 1656 2213 1656 1722 
L 1656 0 
L 531 0 
L 531 3500 
L 1656 3500 
L 1656 2988 
Q 1863 3284 2130 3434 
Q 2397 3584 2719 3584 
Q 3081 3584 3359 3409 
Q 3638 3234 3781 2919 
z
" transform="scale(0.015625)"/>
      <path id="DejaVuSans-Bold-6f" d="M 2203 2784 
Q 1831 2784 1636 2517 
Q 1441 2250 1441 1747 
Q 1441 1244 1636 976 
Q 1831 709 2203 709 
Q 2569 709 2762 976 
Q 2956 1244 2956 1747 
Q 2956 2250 2762 2517 
Q 2569 2784 2203 2784 
z
M 2203 3584 
Q 3106 3584 3614 3096 
Q 4122 2609 4122 1747 
Q 4122 884 3614 396 
Q 3106 -91 2203 -91 
Q 1297 -91 786 396 
Q 275 884 275 1747 
Q 275 2609 786 3096 
Q 1297 3584 2203 3584 
z
" transform="scale(0.015625)"/>
      <path id="DejaVuSans-Bold-6e" d="M 4056 2131 
L 4056 0 
L 2931 0 
L 2931 347 
L 2931 1631 
Q 2931 2084 2911 2256 
Q 2891 2428 2841 2509 
Q 2775 2619 2662 2680 
Q 2550 2741 2406 2741 
Q 2056 2741 1856 2470 
Q 1656 2200 1656 1722 
L 1656 0 
L 538 0 
L 538 3500 
L 1656 3500 
L 1656 2988 
Q 1909 3294 2193 3439 
Q 2478 3584 2822 3584 
Q 3428 3584 3742 3212 
Q 4056 2841 4056 2131 
z
" transform="scale(0.015625)"/>
      <path id="DejaVuSans-Bold-61" d="M 2106 1575 
Q 1756 1575 1579 1456 
Q 1403 1338 1403 1106 
Q 1403 894 1545 773 
Q 1688 653 1941 653 
Q 2256 653 2472 879 
Q 2688 1106 2688 1447 
L 2688 1575 
L 2106 1575 
z
M 3816 1997 
L 3816 0 
L 2688 0 
L 2688 519 
Q 2463 200 2181 54 
Q 1900 -91 1497 -91 
Q 953 -91 614 226 
Q 275 544 275 1050 
Q 275 1666 698 1953 
Q 1122 2241 2028 2241 
L 2688 2241 
L 2688 2328 
Q 2688 2594 2478 2717 
Q 2269 2841 1825 2841 
Q 1466 2841 1156 2769 
Q 847 2697 581 2553 
L 581 3406 
Q 941 3494 1303 3539 
Q 1666 3584 2028 3584 
Q 2975 3584 3395 3211 
Q 3816 2838 3816 1997 
z
" transform="scale(0.015625)"/>
      <path id="DejaVuSans-Bold-74" d="M 1759 4494 
L 1759 3500 
L 2913 3500 
L 2913 2700 
L 1759 2700 
L 1759 1216 
Q 1759 972 1856 886 
Q 1953 800 2241 800 
L 2816 800 
L 2816 0 
L 1856 0 
Q 1194 0 917 276 
Q 641 553 641 1216 
L 641 2700 
L 84 2700 
L 84 3500 
L 641 3500 
L 641 4494 
L 1759 4494 
z
" transform="scale(0.015625)"/>
      <path id="DejaVuSans-Bold-69" d="M 538 3500 
L 1656 3500 
L 1656 0 
L 538 0 
L 538 3500 
z
M 538 4863 
L 1656 4863 
L 1656 3950 
L 538 3950 
L 538 4863 
z
" transform="scale(0.015625)"/>
     </defs>
     <use xlink:href="#DejaVuSans-Bold-62"/>
     <use xlink:href="#DejaVuSans-Bold-63" transform="translate(71.582031 0)"/>
     <use xlink:href="#DejaVuSans-Bold-63" transform="translate(130.859375 0)"/>
     <use xlink:href="#DejaVuSans-Bold-20" transform="translate(190.136719 0)"/>
     <use xlink:href="#DejaVuSans-Bold-6d" transform="translate(224.951172 0)"/>
     <use xlink:href="#DejaVuSans-Bold-6f" transform="translate(329.150391 0)"/>
     <use xlink:href="#DejaVuSans-Bold-6e" transform="translate(397.851562 0)"/>
     <use xlink:href="#DejaVuSans-Bold-6f" transform="translate(469.042969 0)"/>
     <use xlink:href="#DejaVuSans-Bold-61" transform="translate(537.744141 0)"/>
     <use xlink:href="#DejaVuSans-Bold-74" transform="translate(605.224609 0)"/>
     <use xlink:href="#DejaVuSans-Bold-6f" transform="translate(653.027344 0)"/>
     <use xlink:href="#DejaVuSans-Bold-6d" transform="translate(721.728516 0)"/>
     <use xlink:href="#DejaVuSans-Bold-69" transform="translate(825.927734 0)"/>
     <use xlink:href="#DejaVuSans-Bold-63" transform="translate(860.205078 0)"/>
     <use xlink:href="#DejaVuSans-Bold-6f" transform="translate(919.482422 0)"/>
    </g>
   </g>
   <g id="Path3DCollection_1">
    <defs>
     <path id="m498416da44" d="M 0 3.24037 
C 0.859356 3.24037 1.683631 2.898944 2.291288 2.291288 
C 2.898944 1.683631 3.24037 0.859356 3.24037 0 
C 3.24037 -0.859356 2.898944 -1.683631 2.291288 -2.291288 
C 1.683631 -2.898944 0.859356 -3.24037 0 -3.24037 
C -0.859356 -3.24037 -1.683631 -2.898944 -2.291288 -2.291288 
C -2.898944 -1.683631 -3.24037 -0.859356 -3.24037 0 
C -3.24037 0.859356 -2.898944 1.683631 -2.291288 2.291288 
C -1.683631 2.898944 -0.859356 3.24037 0 3.24037 
z
" style="stroke: #1f77b4"/>
    </defs>
    <g clip-path="url(#p2f1fea6b97)">
     <use xlink:href="#m498416da44" x="197.632742" y="226.583133" style="fill: #1f77b4; stroke: #1f77b4"/>
     <use xlink:href="#m498416da44" x="197.570562" y="148.389503" style="fill: #1f77b4; stroke: #1f77b4"/>
     <use xlink:href="#m498416da44" x="260.524038" y="247.786961" style="fill: #1f77b4; stroke: #1f77b4"/>
     <use xlink:href="#m498416da44" x="138.490102" y="249.420098" style="fill: #1f77b4; stroke: #1f77b4"/>
     <use xlink:href="#m498416da44" x="199.639135" y="208.03372" style="fill: #1f77b4; stroke: #1f77b4"/>
     <use xlink:href="#m498416da44" x="262.527253" y="165.470309" style="fill: #1f77b4; stroke: #1f77b4"/>
     <use xlink:href="#m498416da44" x="136.469181" y="166.788514" style="fill: #1f77b4; stroke: #1f77b4"/>
     <use xlink:href="#m498416da44" x="201.910675" y="273.530174" style="fill: #1f77b4; stroke: #1f77b4"/>
     <use xlink:href="#m498416da44" x="201.990703" y="186.293111" style="fill: #1f77b4; stroke: #1f77b4"/>
    </g>
   </g>
   <g id="Line3DCollection_2">
    <path d="M 138.490102 249.420098 
L 199.639135 208.03372 
" clip-path="url(#p2f1fea6b97)" style="fill: none; stroke: #8c8c8c; stroke-opacity: 0.45; stroke-width: 0.7"/>
    <path d="M 136.469181 166.788514 
L 199.639135 208.03372 
" clip-path="url(#p2f1fea6b97)" style="fill: none; stroke: #8c8c8c; stroke-opacity: 0.45; stroke-width: 0.7"/>
    <path d="M 197.632742 226.583133 
L 199.639135 208.03372 
" clip-path="url(#p2f1fea6b97)" style="fill: none; stroke: #8c8c8c; stroke-opacity: 0.45; stroke-width: 0.7"/>
    <path d="M 197.570562 148.389503 
L 199.639135 208.03372 
" clip-path="url(#p2f1fea6b97)" style="fill: none; stroke: #8c8c8c; stroke-opacity: 0.45; stroke-width: 0.7"/>
    <path d="M 201.910675 273.530174 
L 199.639135 208.03372 
" clip-path="url(#p2f1fea6b97)" style="fill: none; stroke: #8c8c8c; stroke-opacity: 0.45; stroke-width: 0.7"/>
    <path d="M 201.990703 186.293111 
L 199.639135 208.03372 
" clip-path="url(#p2f1fea6b97)" style="fill: none; stroke: #8c8c8c; stroke-opacity: 0.45; stroke-width: 0.7"/>
    <path d="M 260.524038 247.786961 
L 199.639135 208.03372 
" clip-path="url(#p2f1fea6b97)" style="fill: none; stroke: #8c8c8c; stroke-opacity: 0.45; stroke-width: 0.7"/>
    <path d="M 262.527253 165.470309 
L 199.639135 208.03372 
" clip-path="url(#p2f1fea6b97)" style="fill: none; stroke: #8c8c8c; stroke-opacity: 0.45; stroke-width: 0.7"/>
   </g>
  </g>
  <g id="patch_3">
   <path d="M 522.646895 295.91687 
L 693.787764 295.91687 
L 693.787764 124.776 
L 522.646895 124.776 
z
" style="fill: #ffffff"/>
  </g>
  <g id="axes_2">
   <g id="Line3DCollection_3">
    <path d="M 549.381012 249.420098 
L 612.801584 273.530174 
" clip-path="url(#p5398efd47d)" style="fill: none; stroke: #737373; stroke-width: 0.75"/>
    <path d="M 549.381012 249.420098 
L 608.523651 226.583133 
" clip-path="url(#p5398efd47d)" style="fill: none; stroke: #737373; stroke-width: 0.75"/>
    <path d="M 549.381012 249.420098 
L 547.36009 166.788514 
" clip-path="url(#p5398efd47d)" style="fill: none; stroke: #737373; stroke-width: 0.75"/>
    <path d="M 547.36009 166.788514 
L 612.881612 186.293111 
" clip-path="url(#p5398efd47d)" style="fill: none; stroke: #737373; stroke-width: 0.75"/>
    <path d="M 547.36009 166.788514 
L 608.461471 148.389503 
" clip-path="url(#p5398efd47d)" style="fill: none; stroke: #737373; stroke-width: 0.75"/>
    <path d="M 608.523651 226.583133 
L 671.414947 247.786961 
" clip-path="url(#p5398efd47d)" style="fill: none; stroke: #737373; stroke-width: 0.75"/>
    <path d="M 608.523651 226.583133 
L 608.461471 148.389503 
" clip-path="url(#p5398efd47d)" style="fill: none; stroke: #737373; stroke-width: 0.75"/>
    <path d="M 608.461471 148.389503 
L 673.418162 165.470309 
" clip-path="url(#p5398efd47d)" style="fill: none; stroke: #737373; stroke-width: 0.75"/>
    <path d="M 612.801584 273.530174 
L 671.414947 247.786961 
" clip-path="url(#p5398efd47d)" style="fill: none; stroke: #737373; stroke-width: 0.75"/>
    <path d="M 612.801584 273.530174 
L 612.881612 186.293111 
" clip-path="url(#p5398efd47d)" style="fill: none; stroke: #737373; stroke-width: 0.75"/>
    <path d="M 612.881612 186.293111 
L 673.418162 165.470309 
" clip-path="url(#p5398efd47d)" style="fill: none; stroke: #737373; stroke-width: 0.75"/>
    <path d="M 671.414947 247.786961 
L 673.418162 165.470309 
" clip-path="url(#p5398efd47d)" style="fill: none; stroke: #737373; stroke-width: 0.75"/>
   </g>
   <g id="text_2">
    <!-- fcc monoatomico -->
    <g transform="translate(557.810767 122.592328) scale(0.105 -0.105)">
     <defs>
      <path id="DejaVuSans-Bold-66" d="M 2841 4863 
L 2841 4128 
L 2222 4128 
Q 1984 4128 1890 4042 
Q 1797 3956 1797 3744 
L 1797 3500 
L 2753 3500 
L 2753 2700 
L 1797 2700 
L 1797 0 
L 678 0 
L 678 2700 
L 122 2700 
L 122 3500 
L 678 3500 
L 678 3744 
Q 678 4316 997 4589 
Q 1316 4863 1984 4863 
L 2841 4863 
z
" transform="scale(0.015625)"/>
     </defs>
     <use xlink:href="#DejaVuSans-Bold-66"/>
     <use xlink:href="#DejaVuSans-Bold-63" transform="translate(43.505859 0)"/>
     <use xlink:href="#DejaVuSans-Bold-63" transform="translate(102.783203 0)"/>
     <use xlink:href="#DejaVuSans-Bold-20" transform="translate(162.060547 0)"/>
     <use xlink:href="#DejaVuSans-Bold-6d" transform="translate(196.875 0)"/>
     <use xlink:href="#DejaVuSans-Bold-6f" transform="translate(301.074219 0)"/>
     <use xlink:href="#DejaVuSans-Bold-6e" transform="translate(369.775391 0)"/>
     <use xlink:href="#DejaVuSans-Bold-6f" transform="translate(440.966797 0)"/>
     <use xlink:href="#DejaVuSans-Bold-61" transform="translate(509.667969 0)"/>
     <use xlink:href="#DejaVuSans-Bold-74" transform="translate(577.148438 0)"/>
     <use xlink:href="#DejaVuSans-Bold-6f" transform="translate(624.951172 0)"/>
     <use xlink:href="#DejaVuSans-Bold-6d" transform="translate(693.652344 0)"/>
     <use xlink:href="#DejaVuSans-Bold-69" transform="translate(797.851562 0)"/>
     <use xlink:href="#DejaVuSans-Bold-63" transform="translate(832.128906 0)"/>
     <use xlink:href="#DejaVuSans-Bold-6f" transform="translate(891.40625 0)"/>
    </g>
   </g>
   <g id="Path3DCollection_2">
    <g clip-path="url(#p5398efd47d)">
     <use xlink:href="#m498416da44" x="608.523651" y="226.583133" style="fill: #1f77b4; stroke: #1f77b4"/>
     <use xlink:href="#m498416da44" x="608.461471" y="148.389503" style="fill: #1f77b4; stroke: #1f77b4"/>
     <use xlink:href="#m498416da44" x="639.506177" y="197.406095" style="fill: #1f77b4; stroke: #1f77b4"/>
     <use xlink:href="#m498416da44" x="579.390617" y="198.102144" style="fill: #1f77b4; stroke: #1f77b4"/>
     <use xlink:href="#m498416da44" x="671.414947" y="247.786961" style="fill: #1f77b4; stroke: #1f77b4"/>
     <use xlink:href="#m498416da44" x="610.530044" y="248.601762" style="fill: #1f77b4; stroke: #1f77b4"/>
     <use xlink:href="#m498416da44" x="549.381012" y="249.420098" style="fill: #1f77b4; stroke: #1f77b4"/>
     <use xlink:href="#m498416da44" x="673.418162" y="165.470309" style="fill: #1f77b4; stroke: #1f77b4"/>
     <use xlink:href="#m498416da44" x="610.530044" y="166.127938" style="fill: #1f77b4; stroke: #1f77b4"/>
     <use xlink:href="#m498416da44" x="547.36009" y="166.788514" style="fill: #1f77b4; stroke: #1f77b4"/>
     <use xlink:href="#m498416da44" x="643.621643" y="218.58792" style="fill: #1f77b4; stroke: #1f77b4"/>
     <use xlink:href="#m498416da44" x="579.601469" y="219.377446" style="fill: #1f77b4; stroke: #1f77b4"/>
     <use xlink:href="#m498416da44" x="612.801584" y="273.530174" style="fill: #1f77b4; stroke: #1f77b4"/>
     <use xlink:href="#m498416da44" x="612.881612" y="186.293111" style="fill: #1f77b4; stroke: #1f77b4"/>
    </g>
   </g>
   <g id="Line3DCollection_4">
    <path d="M 549.381012 249.420098 
L 579.390617 198.102144 
" clip-path="url(#p5398efd47d)" style="fill: none; stroke: #8c8c8c; stroke-opacity: 0.45; stroke-width: 0.55"/>
    <path d="M 549.381012 249.420098 
L 579.601469 219.377446 
" clip-path="url(#p5398efd47d)" style="fill: none; stroke: #8c8c8c; stroke-opacity: 0.45; stroke-width: 0.55"/>
    <path d="M 549.381012 249.420098 
L 610.530044 248.601762 
" clip-path="url(#p5398efd47d)" style="fill: none; stroke: #8c8c8c; stroke-opacity: 0.45; stroke-width: 0.55"/>
    <path d="M 547.36009 166.788514 
L 579.390617 198.102144 
" clip-path="url(#p5398efd47d)" style="fill: none; stroke: #8c8c8c; stroke-opacity: 0.45; stroke-width: 0.55"/>
    <path d="M 547.36009 166.788514 
L 579.601469 219.377446 
" clip-path="url(#p5398efd47d)" style="fill: none; stroke: #8c8c8c; stroke-opacity: 0.45; stroke-width: 0.55"/>
    <path d="M 547.36009 166.788514 
L 610.530044 166.127938 
" clip-path="url(#p5398efd47d)" style="fill: none; stroke: #8c8c8c; stroke-opacity: 0.45; stroke-width: 0.55"/>
    <path d="M 608.523651 226.583133 
L 579.390617 198.102144 
" clip-path="url(#p5398efd47d)" style="fill: none; stroke: #8c8c8c; stroke-opacity: 0.45; stroke-width: 0.55"/>
    <path d="M 608.523651 226.583133 
L 639.506177 197.406095 
" clip-path="url(#p5398efd47d)" style="fill: none; stroke: #8c8c8c; stroke-opacity: 0.45; stroke-width: 0.55"/>
    <path d="M 608.523651 226.583133 
L 610.530044 248.601762 
" clip-path="url(#p5398efd47d)" style="fill: none; stroke: #8c8c8c; stroke-opacity: 0.45; stroke-width: 0.55"/>
    <path d="M 608.461471 148.389503 
L 579.390617 198.102144 
" clip-path="url(#p5398efd47d)" style="fill: none; stroke: #8c8c8c; stroke-opacity: 0.45; stroke-width: 0.55"/>
    <path d="M 608.461471 148.389503 
L 639.506177 197.406095 
" clip-path="url(#p5398efd47d)" style="fill: none; stroke: #8c8c8c; stroke-opacity: 0.45; stroke-width: 0.55"/>
    <path d="M 608.461471 148.389503 
L 610.530044 166.127938 
" clip-path="url(#p5398efd47d)" style="fill: none; stroke: #8c8c8c; stroke-opacity: 0.45; stroke-width: 0.55"/>
    <path d="M 612.801584 273.530174 
L 643.621643 218.58792 
" clip-path="url(#p5398efd47d)" style="fill: none; stroke: #8c8c8c; stroke-opacity: 0.45; stroke-width: 0.55"/>
    <path d="M 612.801584 273.530174 
L 579.601469 219.377446 
" clip-path="url(#p5398efd47d)" style="fill: none; stroke: #8c8c8c; stroke-opacity: 0.45; stroke-width: 0.55"/>
    <path d="M 612.801584 273.530174 
L 610.530044 248.601762 
" clip-path="url(#p5398efd47d)" style="fill: none; stroke: #8c8c8c; stroke-opacity: 0.45; stroke-width: 0.55"/>
    <path d="M 612.881612 186.293111 
L 643.621643 218.58792 
" clip-path="url(#p5398efd47d)" style="fill: none; stroke: #8c8c8c; stroke-opacity: 0.45; stroke-width: 0.55"/>
    <path d="M 612.881612 186.293111 
L 579.601469 219.377446 
" clip-path="url(#p5398efd47d)" style="fill: none; stroke: #8c8c8c; stroke-opacity: 0.45; stroke-width: 0.55"/>
    <path d="M 612.881612 186.293111 
L 610.530044 166.127938 
" clip-path="url(#p5398efd47d)" style="fill: none; stroke: #8c8c8c; stroke-opacity: 0.45; stroke-width: 0.55"/>
    <path d="M 671.414947 247.786961 
L 643.621643 218.58792 
" clip-path="url(#p5398efd47d)" style="fill: none; stroke: #8c8c8c; stroke-opacity: 0.45; stroke-width: 0.55"/>
    <path d="M 671.414947 247.786961 
L 639.506177 197.406095 
" clip-path="url(#p5398efd47d)" style="fill: none; stroke: #8c8c8c; stroke-opacity: 0.45; stroke-width: 0.55"/>
    <path d="M 671.414947 247.786961 
L 610.530044 248.601762 
" clip-path="url(#p5398efd47d)" style="fill: none; stroke: #8c8c8c; stroke-opacity: 0.45; stroke-width: 0.55"/>
    <path d="M 673.418162 165.470309 
L 643.621643 218.58792 
" clip-path="url(#p5398efd47d)" style="fill: none; stroke: #8c8c8c; stroke-opacity: 0.45; stroke-width: 0.55"/>
    <path d="M 673.418162 165.470309 
L 639.506177 197.406095 
" clip-path="url(#p5398efd47d)" style="fill: none; stroke: #8c8c8c; stroke-opacity: 0.45; stroke-width: 0.55"/>
    <path d="M 673.418162 165.470309 
L 610.530044 166.127938 
" clip-path="url(#p5398efd47d)" style="fill: none; stroke: #8c8c8c; stroke-opacity: 0.45; stroke-width: 0.55"/>
    <path d="M 579.390617 198.102144 
L 579.601469 219.377446 
" clip-path="url(#p5398efd47d)" style="fill: none; stroke: #8c8c8c; stroke-opacity: 0.45; stroke-width: 0.55"/>
    <path d="M 579.390617 198.102144 
L 639.506177 197.406095 
" clip-path="url(#p5398efd47d)" style="fill: none; stroke: #8c8c8c; stroke-opacity: 0.45; stroke-width: 0.55"/>
    <path d="M 579.390617 198.102144 
L 610.530044 248.601762 
" clip-path="url(#p5398efd47d)" style="fill: none; stroke: #8c8c8c; stroke-opacity: 0.45; stroke-width: 0.55"/>
    <path d="M 579.390617 198.102144 
L 610.530044 166.127938 
" clip-path="url(#p5398efd47d)" style="fill: none; stroke: #8c8c8c; stroke-opacity: 0.45; stroke-width: 0.55"/>
    <path d="M 643.621643 218.58792 
L 579.601469 219.377446 
" clip-path="url(#p5398efd47d)" style="fill: none; stroke: #8c8c8c; stroke-opacity: 0.45; stroke-width: 0.55"/>
    <path d="M 643.621643 218.58792 
L 639.506177 197.406095 
" clip-path="url(#p5398efd47d)" style="fill: none; stroke: #8c8c8c; stroke-opacity: 0.45; stroke-width: 0.55"/>
    <path d="M 643.621643 218.58792 
L 610.530044 248.601762 
" clip-path="url(#p5398efd47d)" style="fill: none; stroke: #8c8c8c; stroke-opacity: 0.45; stroke-width: 0.55"/>
    <path d="M 643.621643 218.58792 
L 610.530044 166.127938 
" clip-path="url(#p5398efd47d)" style="fill: none; stroke: #8c8c8c; stroke-opacity: 0.45; stroke-width: 0.55"/>
    <path d="M 579.601469 219.377446 
L 610.530044 248.601762 
" clip-path="url(#p5398efd47d)" style="fill: none; stroke: #8c8c8c; stroke-opacity: 0.45; stroke-width: 0.55"/>
    <path d="M 579.601469 219.377446 
L 610.530044 166.127938 
" clip-path="url(#p5398efd47d)" style="fill: none; stroke: #8c8c8c; stroke-opacity: 0.45; stroke-width: 0.55"/>
    <path d="M 639.506177 197.406095 
L 610.530044 248.601762 
" clip-path="url(#p5398efd47d)" style="fill: none; stroke: #8c8c8c; stroke-opacity: 0.45; stroke-width: 0.55"/>
    <path d="M 639.506177 197.406095 
L 610.530044 166.127938 
" clip-path="url(#p5398efd47d)" style="fill: none; stroke: #8c8c8c; stroke-opacity: 0.45; stroke-width: 0.55"/>
   </g>
  </g>
  <g id="patch_4">
   <path d="M 111.755986 501.285913 
L 282.896855 501.285913 
L 282.896855 330.145043 
L 111.755986 330.145043 
z
" style="fill: #ffffff"/>
  </g>
  <g id="axes_3">
   <g id="Path3DCollection_3">
    <defs>
     <path id="m41d50f15b0" d="M -2.915476 2.915476 
L 2.915476 2.915476 
L 2.915476 -2.915476 
L -2.915476 -2.915476 
z
" style="stroke: #ff7f0e"/>
    </defs>
    <g clip-path="url(#pf84abb2ed9)">
     <use xlink:href="#m41d50f15b0" x="197.602126" y="393.451943" style="fill: #ff7f0e; stroke: #ff7f0e"/>
     <use xlink:href="#m41d50f15b0" x="228.167144" y="442.246864" style="fill: #ff7f0e; stroke: #ff7f0e"/>
     <use xlink:href="#m41d50f15b0" x="168.9823" y="443.015077" style="fill: #ff7f0e; stroke: #ff7f0e"/>
     <use xlink:href="#m41d50f15b0" x="229.077695" y="362.043563" style="fill: #ff7f0e; stroke: #ff7f0e"/>
     <use xlink:href="#m41d50f15b0" x="168.001679" y="362.662407" style="fill: #ff7f0e; stroke: #ff7f0e"/>
     <use xlink:href="#m41d50f15b0" x="261.509435" y="412.663809" style="fill: #ff7f0e; stroke: #ff7f0e"/>
     <use xlink:href="#m41d50f15b0" x="137.496068" y="414.144976" style="fill: #ff7f0e; stroke: #ff7f0e"/>
     <use xlink:href="#m41d50f15b0" x="232.186266" y="465.602063" style="fill: #ff7f0e; stroke: #ff7f0e"/>
     <use xlink:href="#m41d50f15b0" x="169.220577" y="466.471693" style="fill: #ff7f0e; stroke: #ff7f0e"/>
     <use xlink:href="#m41d50f15b0" x="233.293729" y="380.89483" style="fill: #ff7f0e; stroke: #ff7f0e"/>
     <use xlink:href="#m41d50f15b0" x="168.183148" y="381.598244" style="fill: #ff7f0e; stroke: #ff7f0e"/>
     <use xlink:href="#m41d50f15b0" x="201.949996" y="436.035744" style="fill: #ff7f0e; stroke: #ff7f0e"/>
    </g>
   </g>
   <g id="text_3">
    <!-- cloruro di sodio -->
    <g transform="translate(151.17646 327.961372) scale(0.105 -0.105)">
     <defs>
      <path id="DejaVuSans-Bold-6c" d="M 538 4863 
L 1656 4863 
L 1656 0 
L 538 0 
L 538 4863 
z
" transform="scale(0.015625)"/>
      <path id="DejaVuSans-Bold-72" d="M 3138 2547 
Q 2991 2616 2845 2648 
Q 2700 2681 2553 2681 
Q 2122 2681 1889 2404 
Q 1656 2128 1656 1613 
L 1656 0 
L 538 0 
L 538 3500 
L 1656 3500 
L 1656 2925 
Q 1872 3269 2151 3426 
Q 2431 3584 2822 3584 
Q 2878 3584 2943 3579 
Q 3009 3575 3134 3559 
L 3138 2547 
z
" transform="scale(0.015625)"/>
      <path id="DejaVuSans-Bold-75" d="M 500 1363 
L 500 3500 
L 1625 3500 
L 1625 3150 
Q 1625 2866 1622 2436 
Q 1619 2006 1619 1863 
Q 1619 1441 1641 1255 
Q 1663 1069 1716 984 
Q 1784 875 1895 815 
Q 2006 756 2150 756 
Q 2500 756 2700 1025 
Q 2900 1294 2900 1772 
L 2900 3500 
L 4019 3500 
L 4019 0 
L 2900 0 
L 2900 506 
Q 2647 200 2364 54 
Q 2081 -91 1741 -91 
Q 1134 -91 817 281 
Q 500 653 500 1363 
z
" transform="scale(0.015625)"/>
      <path id="DejaVuSans-Bold-64" d="M 2919 2988 
L 2919 4863 
L 4044 4863 
L 4044 0 
L 2919 0 
L 2919 506 
Q 2688 197 2409 53 
Q 2131 -91 1766 -91 
Q 1119 -91 703 423 
Q 288 938 288 1747 
Q 288 2556 703 3070 
Q 1119 3584 1766 3584 
Q 2128 3584 2408 3439 
Q 2688 3294 2919 2988 
z
M 2181 722 
Q 2541 722 2730 984 
Q 2919 1247 2919 1747 
Q 2919 2247 2730 2509 
Q 2541 2772 2181 2772 
Q 1825 2772 1636 2509 
Q 1447 2247 1447 1747 
Q 1447 1247 1636 984 
Q 1825 722 2181 722 
z
" transform="scale(0.015625)"/>
      <path id="DejaVuSans-Bold-73" d="M 3272 3391 
L 3272 2541 
Q 2913 2691 2578 2766 
Q 2244 2841 1947 2841 
Q 1628 2841 1473 2761 
Q 1319 2681 1319 2516 
Q 1319 2381 1436 2309 
Q 1553 2238 1856 2203 
L 2053 2175 
Q 2913 2066 3209 1816 
Q 3506 1566 3506 1031 
Q 3506 472 3093 190 
Q 2681 -91 1863 -91 
Q 1516 -91 1145 -36 
Q 775 19 384 128 
L 384 978 
Q 719 816 1070 734 
Q 1422 653 1784 653 
Q 2113 653 2278 743 
Q 2444 834 2444 1013 
Q 2444 1163 2330 1236 
Q 2216 1309 1875 1350 
L 1678 1375 
Q 931 1469 631 1722 
Q 331 1975 331 2491 
Q 331 3047 712 3315 
Q 1094 3584 1881 3584 
Q 2191 3584 2531 3537 
Q 2872 3491 3272 3391 
z
" transform="scale(0.015625)"/>
     </defs>
     <use xlink:href="#DejaVuSans-Bold-63"/>
     <use xlink:href="#DejaVuSans-Bold-6c" transform="translate(59.277344 0)"/>
     <use xlink:href="#DejaVuSans-Bold-6f" transform="translate(93.554688 0)"/>
     <use xlink:href="#DejaVuSans-Bold-72" transform="translate(162.255859 0)"/>
     <use xlink:href="#DejaVuSans-Bold-75" transform="translate(211.572266 0)"/>
     <use xlink:href="#DejaVuSans-Bold-72" transform="translate(282.763672 0)"/>
     <use xlink:href="#DejaVuSans-Bold-6f" transform="translate(332.080078 0)"/>
     <use xlink:href="#DejaVuSans-Bold-20" transform="translate(400.78125 0)"/>
     <use xlink:href="#DejaVuSans-Bold-64" transform="translate(435.595703 0)"/>
     <use xlink:href="#DejaVuSans-Bold-69" transform="translate(507.177734 0)"/>
     <use xlink:href="#DejaVuSans-Bold-20" transform="translate(541.455078 0)"/>
     <use xlink:href="#DejaVuSans-Bold-73" transform="translate(576.269531 0)"/>
     <use xlink:href="#DejaVuSans-Bold-6f" transform="translate(635.791016 0)"/>
     <use xlink:href="#DejaVuSans-Bold-64" transform="translate(704.492188 0)"/>
     <use xlink:href="#DejaVuSans-Bold-69" transform="translate(776.074219 0)"/>
     <use xlink:href="#DejaVuSans-Bold-6f" transform="translate(810.351562 0)"/>
    </g>
   </g>
   <g id="Line3DCollection_5">
    <path d="M 138.490102 454.789141 
L 201.910675 478.899218 
" clip-path="url(#pf84abb2ed9)" style="fill: none; stroke: #737373; stroke-width: 0.75"/>
    <path d="M 138.490102 454.789141 
L 197.632742 431.952177 
" clip-path="url(#pf84abb2ed9)" style="fill: none; stroke: #737373; stroke-width: 0.75"/>
    <path d="M 138.490102 454.789141 
L 136.469181 372.157557 
" clip-path="url(#pf84abb2ed9)" style="fill: none; stroke: #737373; stroke-width: 0.75"/>
    <path d="M 136.469181 372.157557 
L 201.990703 391.662154 
" clip-path="url(#pf84abb2ed9)" style="fill: none; stroke: #737373; stroke-width: 0.75"/>
    <path d="M 136.469181 372.157557 
L 197.570562 353.758546 
" clip-path="url(#pf84abb2ed9)" style="fill: none; stroke: #737373; stroke-width: 0.75"/>
    <path d="M 197.632742 431.952177 
L 260.524038 453.156005 
" clip-path="url(#pf84abb2ed9)" style="fill: none; stroke: #737373; stroke-width: 0.75"/>
    <path d="M 197.632742 431.952177 
L 197.570562 353.758546 
" clip-path="url(#pf84abb2ed9)" style="fill: none; stroke: #737373; stroke-width: 0.75"/>
    <path d="M 197.570562 353.758546 
L 262.527253 370.839353 
" clip-path="url(#pf84abb2ed9)" style="fill: none; stroke: #737373; stroke-width: 0.75"/>
    <path d="M 201.910675 478.899218 
L 260.524038 453.156005 
" clip-path="url(#pf84abb2ed9)" style="fill: none; stroke: #737373; stroke-width: 0.75"/>
    <path d="M 201.910675 478.899218 
L 201.990703 391.662154 
" clip-path="url(#pf84abb2ed9)" style="fill: none; stroke: #737373; stroke-width: 0.75"/>
    <path d="M 201.990703 391.662154 
L 262.527253 370.839353 
" clip-path="url(#pf84abb2ed9)" style="fill: none; stroke: #737373; stroke-width: 0.75"/>
    <path d="M 260.524038 453.156005 
L 262.527253 370.839353 
" clip-path="url(#pf84abb2ed9)" style="fill: none; stroke: #737373; stroke-width: 0.75"/>
   </g>
   <g id="Path3DCollection_4">
    <g clip-path="url(#pf84abb2ed9)">
     <use xlink:href="#m498416da44" x="197.632742" y="431.952177" style="fill: #1f77b4; stroke: #1f77b4"/>
     <use xlink:href="#m498416da44" x="197.570562" y="353.758546" style="fill: #1f77b4; stroke: #1f77b4"/>
     <use xlink:href="#m498416da44" x="260.524038" y="453.156005" style="fill: #1f77b4; stroke: #1f77b4"/>
     <use xlink:href="#m498416da44" x="138.490102" y="454.789141" style="fill: #1f77b4; stroke: #1f77b4"/>
     <use xlink:href="#m498416da44" x="262.527253" y="370.839353" style="fill: #1f77b4; stroke: #1f77b4"/>
     <use xlink:href="#m498416da44" x="136.469181" y="372.157557" style="fill: #1f77b4; stroke: #1f77b4"/>
     <use xlink:href="#m498416da44" x="201.910675" y="478.899218" style="fill: #1f77b4; stroke: #1f77b4"/>
     <use xlink:href="#m498416da44" x="201.990703" y="391.662154" style="fill: #1f77b4; stroke: #1f77b4"/>
    </g>
   </g>
  </g>
  <g id="patch_5">
   <path d="M 522.646895 501.285913 
L 693.787764 501.285913 
L 693.787764 330.145043 
L 522.646895 330.145043 
z
" style="fill: #ffffff"/>
  </g>
  <g id="axes_4">
   <g id="Path3DCollection_5">
    <defs>
     <path id="md311802cb0" d="M -4 4 
L 4 4 
L 4 -4 
L -4 -4 
z
" style="stroke: #ff7f0e"/>
    </defs>
    <g clip-path="url(#p365adf50ce)">
     <use xlink:href="#md311802cb0" x="610.530044" y="413.402764" style="fill: #ff7f0e; stroke: #ff7f0e"/>
    </g>
   </g>
   <g id="text_4">
    <!-- cloruro di cesio -->
    <g transform="translate(562.758892 327.961372) scale(0.105 -0.105)">
     <defs>
      <path id="DejaVuSans-Bold-65" d="M 4031 1759 
L 4031 1441 
L 1416 1441 
Q 1456 1047 1700 850 
Q 1944 653 2381 653 
Q 2734 653 3104 758 
Q 3475 863 3866 1075 
L 3866 213 
Q 3469 63 3072 -14 
Q 2675 -91 2278 -91 
Q 1328 -91 801 392 
Q 275 875 275 1747 
Q 275 2603 792 3093 
Q 1309 3584 2216 3584 
Q 3041 3584 3536 3087 
Q 4031 2591 4031 1759 
z
M 2881 2131 
Q 2881 2450 2695 2645 
Q 2509 2841 2209 2841 
Q 1884 2841 1681 2658 
Q 1478 2475 1428 2131 
L 2881 2131 
z
" transform="scale(0.015625)"/>
     </defs>
     <use xlink:href="#DejaVuSans-Bold-63"/>
     <use xlink:href="#DejaVuSans-Bold-6c" transform="translate(59.277344 0)"/>
     <use xlink:href="#DejaVuSans-Bold-6f" transform="translate(93.554688 0)"/>
     <use xlink:href="#DejaVuSans-Bold-72" transform="translate(162.255859 0)"/>
     <use xlink:href="#DejaVuSans-Bold-75" transform="translate(211.572266 0)"/>
     <use xlink:href="#DejaVuSans-Bold-72" transform="translate(282.763672 0)"/>
     <use xlink:href="#DejaVuSans-Bold-6f" transform="translate(332.080078 0)"/>
     <use xlink:href="#DejaVuSans-Bold-20" transform="translate(400.78125 0)"/>
     <use xlink:href="#DejaVuSans-Bold-64" transform="translate(435.595703 0)"/>
     <use xlink:href="#DejaVuSans-Bold-69" transform="translate(507.177734 0)"/>
     <use xlink:href="#DejaVuSans-Bold-20" transform="translate(541.455078 0)"/>
     <use xlink:href="#DejaVuSans-Bold-63" transform="translate(576.269531 0)"/>
     <use xlink:href="#DejaVuSans-Bold-65" transform="translate(635.546875 0)"/>
     <use xlink:href="#DejaVuSans-Bold-73" transform="translate(703.369141 0)"/>
     <use xlink:href="#DejaVuSans-Bold-69" transform="translate(762.890625 0)"/>
     <use xlink:href="#DejaVuSans-Bold-6f" transform="translate(797.167969 0)"/>
    </g>
   </g>
   <g id="Line3DCollection_6">
    <path d="M 549.381012 454.789141 
L 612.801584 478.899218 
" clip-path="url(#p365adf50ce)" style="fill: none; stroke: #737373; stroke-width: 0.75"/>
    <path d="M 549.381012 454.789141 
L 608.523651 431.952177 
" clip-path="url(#p365adf50ce)" style="fill: none; stroke: #737373; stroke-width: 0.75"/>
    <path d="M 549.381012 454.789141 
L 547.36009 372.157557 
" clip-path="url(#p365adf50ce)" style="fill: none; stroke: #737373; stroke-width: 0.75"/>
    <path d="M 547.36009 372.157557 
L 612.881612 391.662154 
" clip-path="url(#p365adf50ce)" style="fill: none; stroke: #737373; stroke-width: 0.75"/>
    <path d="M 547.36009 372.157557 
L 608.461471 353.758546 
" clip-path="url(#p365adf50ce)" style="fill: none; stroke: #737373; stroke-width: 0.75"/>
    <path d="M 608.523651 431.952177 
L 671.414947 453.156005 
" clip-path="url(#p365adf50ce)" style="fill: none; stroke: #737373; stroke-width: 0.75"/>
    <path d="M 608.523651 431.952177 
L 608.461471 353.758546 
" clip-path="url(#p365adf50ce)" style="fill: none; stroke: #737373; stroke-width: 0.75"/>
    <path d="M 608.461471 353.758546 
L 673.418162 370.839353 
" clip-path="url(#p365adf50ce)" style="fill: none; stroke: #737373; stroke-width: 0.75"/>
    <path d="M 612.801584 478.899218 
L 671.414947 453.156005 
" clip-path="url(#p365adf50ce)" style="fill: none; stroke: #737373; stroke-width: 0.75"/>
    <path d="M 612.801584 478.899218 
L 612.881612 391.662154 
" clip-path="url(#p365adf50ce)" style="fill: none; stroke: #737373; stroke-width: 0.75"/>
    <path d="M 612.881612 391.662154 
L 673.418162 370.839353 
" clip-path="url(#p365adf50ce)" style="fill: none; stroke: #737373; stroke-width: 0.75"/>
    <path d="M 671.414947 453.156005 
L 673.418162 370.839353 
" clip-path="url(#p365adf50ce)" style="fill: none; stroke: #737373; stroke-width: 0.75"/>
   </g>
   <g id="Path3DCollection_6">
    <g clip-path="url(#p365adf50ce)">
     <use xlink:href="#m498416da44" x="608.523651" y="431.952177" style="fill: #1f77b4; stroke: #1f77b4"/>
     <use xlink:href="#m498416da44" x="608.461471" y="353.758546" style="fill: #1f77b4; stroke: #1f77b4"/>
     <use xlink:href="#m498416da44" x="671.414947" y="453.156005" style="fill: #1f77b4; stroke: #1f77b4"/>
     <use xlink:href="#m498416da44" x="549.381012" y="454.789141" style="fill: #1f77b4; stroke: #1f77b4"/>
     <use xlink:href="#m498416da44" x="673.418162" y="370.839353" style="fill: #1f77b4; stroke: #1f77b4"/>
     <use xlink:href="#m498416da44" x="547.36009" y="372.157557" style="fill: #1f77b4; stroke: #1f77b4"/>
     <use xlink:href="#m498416da44" x="612.801584" y="478.899218" style="fill: #1f77b4; stroke: #1f77b4"/>
     <use xlink:href="#m498416da44" x="612.881612" y="391.662154" style="fill: #1f77b4; stroke: #1f77b4"/>
    </g>
   </g>
   <g id="Line3DCollection_7">
    <path d="M 549.381012 454.789141 
L 610.530044 413.402764 
" clip-path="url(#p365adf50ce)" style="fill: none; stroke: #8c8c8c; stroke-opacity: 0.45; stroke-width: 0.7"/>
    <path d="M 547.36009 372.157557 
L 610.530044 413.402764 
" clip-path="url(#p365adf50ce)" style="fill: none; stroke: #8c8c8c; stroke-opacity: 0.45; stroke-width: 0.7"/>
    <path d="M 608.523651 431.952177 
L 610.530044 413.402764 
" clip-path="url(#p365adf50ce)" style="fill: none; stroke: #8c8c8c; stroke-opacity: 0.45; stroke-width: 0.7"/>
    <path d="M 608.461471 353.758546 
L 610.530044 413.402764 
" clip-path="url(#p365adf50ce)" style="fill: none; stroke: #8c8c8c; stroke-opacity: 0.45; stroke-width: 0.7"/>
    <path d="M 612.801584 478.899218 
L 610.530044 413.402764 
" clip-path="url(#p365adf50ce)" style="fill: none; stroke: #8c8c8c; stroke-opacity: 0.45; stroke-width: 0.7"/>
    <path d="M 612.881612 391.662154 
L 610.530044 413.402764 
" clip-path="url(#p365adf50ce)" style="fill: none; stroke: #8c8c8c; stroke-opacity: 0.45; stroke-width: 0.7"/>
    <path d="M 671.414947 453.156005 
L 610.530044 413.402764 
" clip-path="url(#p365adf50ce)" style="fill: none; stroke: #8c8c8c; stroke-opacity: 0.45; stroke-width: 0.7"/>
    <path d="M 673.418162 370.839353 
L 610.530044 413.402764 
" clip-path="url(#p365adf50ce)" style="fill: none; stroke: #8c8c8c; stroke-opacity: 0.45; stroke-width: 0.7"/>
   </g>
  </g>
  <g id="patch_6">
   <path d="M 111.755986 706.654957 
L 282.896855 706.654957 
L 282.896855 535.514087 
L 111.755986 535.514087 
z
" style="fill: #ffffff"/>
  </g>
  <g id="axes_5">
   <g id="Line3DCollection_8">
    <path d="M 138.490102 660.158185 
L 201.910675 684.268261 
" clip-path="url(#p12cc55f9a4)" style="fill: none; stroke: #737373; stroke-width: 0.75"/>
    <path d="M 138.490102 660.158185 
L 197.632742 637.32122 
" clip-path="url(#p12cc55f9a4)" style="fill: none; stroke: #737373; stroke-width: 0.75"/>
    <path d="M 138.490102 660.158185 
L 136.469181 577.526601 
" clip-path="url(#p12cc55f9a4)" style="fill: none; stroke: #737373; stroke-width: 0.75"/>
    <path d="M 136.469181 577.526601 
L 201.990703 597.031198 
" clip-path="url(#p12cc55f9a4)" style="fill: none; stroke: #737373; stroke-width: 0.75"/>
    <path d="M 136.469181 577.526601 
L 197.570562 559.12759 
" clip-path="url(#p12cc55f9a4)" style="fill: none; stroke: #737373; stroke-width: 0.75"/>
    <path d="M 197.632742 637.32122 
L 260.524038 658.525048 
" clip-path="url(#p12cc55f9a4)" style="fill: none; stroke: #737373; stroke-width: 0.75"/>
    <path d="M 197.632742 637.32122 
L 197.570562 559.12759 
" clip-path="url(#p12cc55f9a4)" style="fill: none; stroke: #737373; stroke-width: 0.75"/>
    <path d="M 197.570562 559.12759 
L 262.527253 576.208396 
" clip-path="url(#p12cc55f9a4)" style="fill: none; stroke: #737373; stroke-width: 0.75"/>
    <path d="M 201.910675 684.268261 
L 260.524038 658.525048 
" clip-path="url(#p12cc55f9a4)" style="fill: none; stroke: #737373; stroke-width: 0.75"/>
    <path d="M 201.910675 684.268261 
L 201.990703 597.031198 
" clip-path="url(#p12cc55f9a4)" style="fill: none; stroke: #737373; stroke-width: 0.75"/>
    <path d="M 201.990703 597.031198 
L 262.527253 576.208396 
" clip-path="url(#p12cc55f9a4)" style="fill: none; stroke: #737373; stroke-width: 0.75"/>
    <path d="M 260.524038 658.525048 
L 262.527253 576.208396 
" clip-path="url(#p12cc55f9a4)" style="fill: none; stroke: #737373; stroke-width: 0.75"/>
   </g>
   <g id="text_5">
    <!-- diamante -->
    <g transform="translate(169.404624 533.330415) scale(0.105 -0.105)">
     <use xlink:href="#DejaVuSans-Bold-64"/>
     <use xlink:href="#DejaVuSans-Bold-69" transform="translate(71.582031 0)"/>
     <use xlink:href="#DejaVuSans-Bold-61" transform="translate(105.859375 0)"/>
     <use xlink:href="#DejaVuSans-Bold-6d" transform="translate(173.339844 0)"/>
     <use xlink:href="#DejaVuSans-Bold-61" transform="translate(277.539062 0)"/>
     <use xlink:href="#DejaVuSans-Bold-6e" transform="translate(345.019531 0)"/>
     <use xlink:href="#DejaVuSans-Bold-74" transform="translate(416.210938 0)"/>
     <use xlink:href="#DejaVuSans-Bold-65" transform="translate(464.013672 0)"/>
    </g>
   </g>
   <g id="Path3DCollection_7">
    <g clip-path="url(#p12cc55f9a4)">
     <use xlink:href="#m498416da44" x="197.632742" y="637.32122" style="fill: #1f77b4; stroke: #1f77b4"/>
     <use xlink:href="#m498416da44" x="197.570562" y="559.12759" style="fill: #1f77b4; stroke: #1f77b4"/>
     <use xlink:href="#m498416da44" x="228.615268" y="608.144182" style="fill: #1f77b4; stroke: #1f77b4"/>
     <use xlink:href="#m498416da44" x="168.499708" y="608.840231" style="fill: #1f77b4; stroke: #1f77b4"/>
     <use xlink:href="#m498416da44" x="198.581217" y="588.268312" style="fill: #1f77b4; stroke: #1f77b4"/>
     <use xlink:href="#m498416da44" x="260.524038" y="658.525048" style="fill: #1f77b4; stroke: #1f77b4"/>
     <use xlink:href="#m498416da44" x="199.639135" y="659.339849" style="fill: #1f77b4; stroke: #1f77b4"/>
     <use xlink:href="#m498416da44" x="138.490102" y="660.158185" style="fill: #1f77b4; stroke: #1f77b4"/>
     <use xlink:href="#m498416da44" x="230.359398" y="638.829818" style="fill: #1f77b4; stroke: #1f77b4"/>
     <use xlink:href="#m498416da44" x="168.851773" y="639.609052" style="fill: #1f77b4; stroke: #1f77b4"/>
     <use xlink:href="#m498416da44" x="262.527253" y="576.208396" style="fill: #1f77b4; stroke: #1f77b4"/>
     <use xlink:href="#m498416da44" x="199.639135" y="576.866025" style="fill: #1f77b4; stroke: #1f77b4"/>
     <use xlink:href="#m498416da44" x="136.469181" y="577.526601" style="fill: #1f77b4; stroke: #1f77b4"/>
     <use xlink:href="#m498416da44" x="232.730734" y="629.326007" style="fill: #1f77b4; stroke: #1f77b4"/>
     <use xlink:href="#m498416da44" x="168.71056" y="630.115533" style="fill: #1f77b4; stroke: #1f77b4"/>
     <use xlink:href="#m498416da44" x="200.766434" y="608.349749" style="fill: #1f77b4; stroke: #1f77b4"/>
     <use xlink:href="#m498416da44" x="201.910675" y="684.268261" style="fill: #1f77b4; stroke: #1f77b4"/>
     <use xlink:href="#m498416da44" x="201.990703" y="597.031198" style="fill: #1f77b4; stroke: #1f77b4"/>
    </g>
   </g>
   <g id="Line3DCollection_9">
    <path d="M 138.490102 660.158185 
L 168.851773 639.609052 
" clip-path="url(#p12cc55f9a4)" style="fill: none; stroke: #8c8c8c; stroke-opacity: 0.45; stroke-width: 0.85"/>
    <path d="M 197.570562 559.12759 
L 198.581217 588.268312 
" clip-path="url(#p12cc55f9a4)" style="fill: none; stroke: #8c8c8c; stroke-opacity: 0.45; stroke-width: 0.85"/>
    <path d="M 201.990703 597.031198 
L 200.766434 608.349749 
" clip-path="url(#p12cc55f9a4)" style="fill: none; stroke: #8c8c8c; stroke-opacity: 0.45; stroke-width: 0.85"/>
    <path d="M 260.524038 658.525048 
L 230.359398 638.829818 
" clip-path="url(#p12cc55f9a4)" style="fill: none; stroke: #8c8c8c; stroke-opacity: 0.45; stroke-width: 0.85"/>
    <path d="M 168.499708 608.840231 
L 168.851773 639.609052 
" clip-path="url(#p12cc55f9a4)" style="fill: none; stroke: #8c8c8c; stroke-opacity: 0.45; stroke-width: 0.85"/>
    <path d="M 168.499708 608.840231 
L 198.581217 588.268312 
" clip-path="url(#p12cc55f9a4)" style="fill: none; stroke: #8c8c8c; stroke-opacity: 0.45; stroke-width: 0.85"/>
    <path d="M 232.730734 629.326007 
L 200.766434 608.349749 
" clip-path="url(#p12cc55f9a4)" style="fill: none; stroke: #8c8c8c; stroke-opacity: 0.45; stroke-width: 0.85"/>
    <path d="M 232.730734 629.326007 
L 230.359398 638.829818 
" clip-path="url(#p12cc55f9a4)" style="fill: none; stroke: #8c8c8c; stroke-opacity: 0.45; stroke-width: 0.85"/>
    <path d="M 168.71056 630.115533 
L 168.851773 639.609052 
" clip-path="url(#p12cc55f9a4)" style="fill: none; stroke: #8c8c8c; stroke-opacity: 0.45; stroke-width: 0.85"/>
    <path d="M 168.71056 630.115533 
L 200.766434 608.349749 
" clip-path="url(#p12cc55f9a4)" style="fill: none; stroke: #8c8c8c; stroke-opacity: 0.45; stroke-width: 0.85"/>
    <path d="M 228.615268 608.144182 
L 198.581217 588.268312 
" clip-path="url(#p12cc55f9a4)" style="fill: none; stroke: #8c8c8c; stroke-opacity: 0.45; stroke-width: 0.85"/>
    <path d="M 228.615268 608.144182 
L 230.359398 638.829818 
" clip-path="url(#p12cc55f9a4)" style="fill: none; stroke: #8c8c8c; stroke-opacity: 0.45; stroke-width: 0.85"/>
    <path d="M 199.639135 659.339849 
L 168.851773 639.609052 
" clip-path="url(#p12cc55f9a4)" style="fill: none; stroke: #8c8c8c; stroke-opacity: 0.45; stroke-width: 0.85"/>
    <path d="M 199.639135 659.339849 
L 230.359398 638.829818 
" clip-path="url(#p12cc55f9a4)" style="fill: none; stroke: #8c8c8c; stroke-opacity: 0.45; stroke-width: 0.85"/>
    <path d="M 199.639135 576.866025 
L 198.581217 588.268312 
" clip-path="url(#p12cc55f9a4)" style="fill: none; stroke: #8c8c8c; stroke-opacity: 0.45; stroke-width: 0.85"/>
    <path d="M 199.639135 576.866025 
L 200.766434 608.349749 
" clip-path="url(#p12cc55f9a4)" style="fill: none; stroke: #8c8c8c; stroke-opacity: 0.45; stroke-width: 0.85"/>
   </g>
  </g>
  <g id="patch_7">
   <path d="M 522.646895 706.654957 
L 693.787764 706.654957 
L 693.787764 535.514087 
L 522.646895 535.514087 
z
" style="fill: #ffffff"/>
  </g>
  <g id="axes_6">
   <g id="Path3DCollection_8">
    <defs>
     <path id="m6545c4865b" d="M -3.24037 3.24037 
L 3.24037 3.24037 
L 3.24037 -3.24037 
L -3.24037 -3.24037 
z
" style="stroke: #ff7f0e"/>
    </defs>
    <g clip-path="url(#p0ce0bcd065)">
     <use xlink:href="#m6545c4865b" x="609.472126" y="588.268312" style="fill: #ff7f0e; stroke: #ff7f0e"/>
     <use xlink:href="#m6545c4865b" x="641.250307" y="638.829818" style="fill: #ff7f0e; stroke: #ff7f0e"/>
     <use xlink:href="#m6545c4865b" x="579.742682" y="639.609052" style="fill: #ff7f0e; stroke: #ff7f0e"/>
     <use xlink:href="#m6545c4865b" x="611.657344" y="608.349749" style="fill: #ff7f0e; stroke: #ff7f0e"/>
    </g>
   </g>
   <g id="text_6">
    <!-- zincoblenda -->
    <g transform="translate(572.748658 533.330415) scale(0.105 -0.105)">
     <defs>
      <path id="DejaVuSans-Bold-7a" d="M 366 3500 
L 3419 3500 
L 3419 2719 
L 1575 800 
L 3419 800 
L 3419 0 
L 288 0 
L 288 781 
L 2131 2700 
L 366 2700 
L 366 3500 
z
" transform="scale(0.015625)"/>
     </defs>
     <use xlink:href="#DejaVuSans-Bold-7a"/>
     <use xlink:href="#DejaVuSans-Bold-69" transform="translate(58.203125 0)"/>
     <use xlink:href="#DejaVuSans-Bold-6e" transform="translate(92.480469 0)"/>
     <use xlink:href="#DejaVuSans-Bold-63" transform="translate(163.671875 0)"/>
     <use xlink:href="#DejaVuSans-Bold-6f" transform="translate(222.949219 0)"/>
     <use xlink:href="#DejaVuSans-Bold-62" transform="translate(291.650391 0)"/>
     <use xlink:href="#DejaVuSans-Bold-6c" transform="translate(363.232422 0)"/>
     <use xlink:href="#DejaVuSans-Bold-65" transform="translate(397.509766 0)"/>
     <use xlink:href="#DejaVuSans-Bold-6e" transform="translate(465.332031 0)"/>
     <use xlink:href="#DejaVuSans-Bold-64" transform="translate(536.523438 0)"/>
     <use xlink:href="#DejaVuSans-Bold-61" transform="translate(608.105469 0)"/>
    </g>
   </g>
   <g id="Line3DCollection_10">
    <path d="M 549.381012 660.158185 
L 612.801584 684.268261 
" clip-path="url(#p0ce0bcd065)" style="fill: none; stroke: #737373; stroke-width: 0.75"/>
    <path d="M 549.381012 660.158185 
L 608.523651 637.32122 
" clip-path="url(#p0ce0bcd065)" style="fill: none; stroke: #737373; stroke-width: 0.75"/>
    <path d="M 549.381012 660.158185 
L 547.36009 577.526601 
" clip-path="url(#p0ce0bcd065)" style="fill: none; stroke: #737373; stroke-width: 0.75"/>
    <path d="M 547.36009 577.526601 
L 612.881612 597.031198 
" clip-path="url(#p0ce0bcd065)" style="fill: none; stroke: #737373; stroke-width: 0.75"/>
    <path d="M 547.36009 577.526601 
L 608.461471 559.12759 
" clip-path="url(#p0ce0bcd065)" style="fill: none; stroke: #737373; stroke-width: 0.75"/>
    <path d="M 608.523651 637.32122 
L 671.414947 658.525048 
" clip-path="url(#p0ce0bcd065)" style="fill: none; stroke: #737373; stroke-width: 0.75"/>
    <path d="M 608.523651 637.32122 
L 608.461471 559.12759 
" clip-path="url(#p0ce0bcd065)" style="fill: none; stroke: #737373; stroke-width: 0.75"/>
    <path d="M 608.461471 559.12759 
L 673.418162 576.208396 
" clip-path="url(#p0ce0bcd065)" style="fill: none; stroke: #737373; stroke-width: 0.75"/>
    <path d="M 612.801584 684.268261 
L 671.414947 658.525048 
" clip-path="url(#p0ce0bcd065)" style="fill: none; stroke: #737373; stroke-width: 0.75"/>
    <path d="M 612.801584 684.268261 
L 612.881612 597.031198 
" clip-path="url(#p0ce0bcd065)" style="fill: none; stroke: #737373; stroke-width: 0.75"/>
    <path d="M 612.881612 597.031198 
L 673.418162 576.208396 
" clip-path="url(#p0ce0bcd065)" style="fill: none; stroke: #737373; stroke-width: 0.75"/>
    <path d="M 671.414947 658.525048 
L 673.418162 576.208396 
" clip-path="url(#p0ce0bcd065)" style="fill: none; stroke: #737373; stroke-width: 0.75"/>
   </g>
   <g id="Path3DCollection_9">
    <g clip-path="url(#p0ce0bcd065)">
     <use xlink:href="#m498416da44" x="608.523651" y="637.32122" style="fill: #1f77b4; stroke: #1f77b4"/>
     <use xlink:href="#m498416da44" x="608.461471" y="559.12759" style="fill: #1f77b4; stroke: #1f77b4"/>
     <use xlink:href="#m498416da44" x="639.506177" y="608.144182" style="fill: #1f77b4; stroke: #1f77b4"/>
     <use xlink:href="#m498416da44" x="579.390617" y="608.840231" style="fill: #1f77b4; stroke: #1f77b4"/>
     <use xlink:href="#m498416da44" x="671.414947" y="658.525048" style="fill: #1f77b4; stroke: #1f77b4"/>
     <use xlink:href="#m498416da44" x="610.530044" y="659.339849" style="fill: #1f77b4; stroke: #1f77b4"/>
     <use xlink:href="#m498416da44" x="549.381012" y="660.158185" style="fill: #1f77b4; stroke: #1f77b4"/>
     <use xlink:href="#m498416da44" x="673.418162" y="576.208396" style="fill: #1f77b4; stroke: #1f77b4"/>
     <use xlink:href="#m498416da44" x="610.530044" y="576.866025" style="fill: #1f77b4; stroke: #1f77b4"/>
     <use xlink:href="#m498416da44" x="547.36009" y="577.526601" style="fill: #1f77b4; stroke: #1f77b4"/>
     <use xlink:href="#m498416da44" x="643.621643" y="629.326007" style="fill: #1f77b4; stroke: #1f77b4"/>
     <use xlink:href="#m498416da44" x="579.601469" y="630.115533" style="fill: #1f77b4; stroke: #1f77b4"/>
     <use xlink:href="#m498416da44" x="612.801584" y="684.268261" style="fill: #1f77b4; stroke: #1f77b4"/>
     <use xlink:href="#m498416da44" x="612.881612" y="597.031198" style="fill: #1f77b4; stroke: #1f77b4"/>
    </g>
   </g>
   <g id="Line3DCollection_11">
    <path d="M 549.381012 660.158185 
L 579.742682 639.609052 
" clip-path="url(#p0ce0bcd065)" style="fill: none; stroke: #8c8c8c; stroke-opacity: 0.45; stroke-width: 0.85"/>
    <path d="M 608.461471 559.12759 
L 609.472126 588.268312 
" clip-path="url(#p0ce0bcd065)" style="fill: none; stroke: #8c8c8c; stroke-opacity: 0.45; stroke-width: 0.85"/>
    <path d="M 612.881612 597.031198 
L 611.657344 608.349749 
" clip-path="url(#p0ce0bcd065)" style="fill: none; stroke: #8c8c8c; stroke-opacity: 0.45; stroke-width: 0.85"/>
    <path d="M 671.414947 658.525048 
L 641.250307 638.829818 
" clip-path="url(#p0ce0bcd065)" style="fill: none; stroke: #8c8c8c; stroke-opacity: 0.45; stroke-width: 0.85"/>
    <path d="M 579.390617 608.840231 
L 579.742682 639.609052 
" clip-path="url(#p0ce0bcd065)" style="fill: none; stroke: #8c8c8c; stroke-opacity: 0.45; stroke-width: 0.85"/>
    <path d="M 579.390617 608.840231 
L 609.472126 588.268312 
" clip-path="url(#p0ce0bcd065)" style="fill: none; stroke: #8c8c8c; stroke-opacity: 0.45; stroke-width: 0.85"/>
    <path d="M 643.621643 629.326007 
L 611.657344 608.349749 
" clip-path="url(#p0ce0bcd065)" style="fill: none; stroke: #8c8c8c; stroke-opacity: 0.45; stroke-width: 0.85"/>
    <path d="M 643.621643 629.326007 
L 641.250307 638.829818 
" clip-path="url(#p0ce0bcd065)" style="fill: none; stroke: #8c8c8c; stroke-opacity: 0.45; stroke-width: 0.85"/>
    <path d="M 579.601469 630.115533 
L 579.742682 639.609052 
" clip-path="url(#p0ce0bcd065)" style="fill: none; stroke: #8c8c8c; stroke-opacity: 0.45; stroke-width: 0.85"/>
    <path d="M 579.601469 630.115533 
L 611.657344 608.349749 
" clip-path="url(#p0ce0bcd065)" style="fill: none; stroke: #8c8c8c; stroke-opacity: 0.45; stroke-width: 0.85"/>
    <path d="M 639.506177 608.144182 
L 609.472126 588.268312 
" clip-path="url(#p0ce0bcd065)" style="fill: none; stroke: #8c8c8c; stroke-opacity: 0.45; stroke-width: 0.85"/>
    <path d="M 639.506177 608.144182 
L 641.250307 638.829818 
" clip-path="url(#p0ce0bcd065)" style="fill: none; stroke: #8c8c8c; stroke-opacity: 0.45; stroke-width: 0.85"/>
    <path d="M 610.530044 659.339849 
L 579.742682 639.609052 
" clip-path="url(#p0ce0bcd065)" style="fill: none; stroke: #8c8c8c; stroke-opacity: 0.45; stroke-width: 0.85"/>
    <path d="M 610.530044 659.339849 
L 641.250307 638.829818 
" clip-path="url(#p0ce0bcd065)" style="fill: none; stroke: #8c8c8c; stroke-opacity: 0.45; stroke-width: 0.85"/>
    <path d="M 610.530044 576.866025 
L 609.472126 588.268312 
" clip-path="url(#p0ce0bcd065)" style="fill: none; stroke: #8c8c8c; stroke-opacity: 0.45; stroke-width: 0.85"/>
    <path d="M 610.530044 576.866025 
L 611.657344 608.349749 
" clip-path="url(#p0ce0bcd065)" style="fill: none; stroke: #8c8c8c; stroke-opacity: 0.45; stroke-width: 0.85"/>
   </g>
  </g>
  <g id="patch_8">
   <path d="M 317.20144 912.024 
L 488.34231 912.024 
L 488.34231 740.88313 
L 317.20144 740.88313 
z
" style="fill: #ffffff"/>
  </g>
  <g id="axes_7">
   <g id="Path3DCollection_10">
    <g clip-path="url(#pe7392a00a8)">
     <use xlink:href="#m498416da44" x="409.83588" y="835.394206" style="fill: #1f77b4; stroke: #1f77b4"/>
     <use xlink:href="#m498416da44" x="367.627238" y="843.263082" style="fill: #1f77b4; stroke: #1f77b4"/>
     <use xlink:href="#m498416da44" x="447.734646" y="846.860633" style="fill: #1f77b4; stroke: #1f77b4"/>
     <use xlink:href="#m498416da44" x="409.975419" y="774.703542" style="fill: #1f77b4; stroke: #1f77b4"/>
     <use xlink:href="#m498416da44" x="383.919542" y="817.886337" style="fill: #1f77b4; stroke: #1f77b4"/>
     <use xlink:href="#m498416da44" x="366.506102" y="781.645501" style="fill: #1f77b4; stroke: #1f77b4"/>
     <use xlink:href="#m498416da44" x="429.096565" y="819.792502" style="fill: #1f77b4; stroke: #1f77b4"/>
     <use xlink:href="#m498416da44" x="449.022182" y="784.821805" style="fill: #1f77b4; stroke: #1f77b4"/>
     <use xlink:href="#m498416da44" x="405.084589" y="824.140851" style="fill: #1f77b4; stroke: #1f77b4"/>
     <use xlink:href="#m498416da44" x="360.772645" y="863.794898" style="fill: #1f77b4; stroke: #1f77b4"/>
     <use xlink:href="#m498416da44" x="444.669626" y="867.744944" style="fill: #1f77b4; stroke: #1f77b4"/>
     <use xlink:href="#m498416da44" x="399.8675" y="876.876049" style="fill: #1f77b4; stroke: #1f77b4"/>
     <use xlink:href="#m498416da44" x="359.381178" y="799.794539" style="fill: #1f77b4; stroke: #1f77b4"/>
     <use xlink:href="#m498416da44" x="445.923879" y="803.292117" style="fill: #1f77b4; stroke: #1f77b4"/>
     <use xlink:href="#m498416da44" x="399.698775" y="811.384639" style="fill: #1f77b4; stroke: #1f77b4"/>
    </g>
   </g>
   <g id="text_7">
    <!-- struttura esagonale compatta -->
    <g transform="translate(313.98207 738.617427) scale(0.105 -0.105)">
     <defs>
      <path id="DejaVuSans-Bold-67" d="M 2919 594 
Q 2688 288 2409 144 
Q 2131 0 1766 0 
Q 1125 0 706 504 
Q 288 1009 288 1791 
Q 288 2575 706 3076 
Q 1125 3578 1766 3578 
Q 2131 3578 2409 3434 
Q 2688 3291 2919 2981 
L 2919 3500 
L 4044 3500 
L 4044 353 
Q 4044 -491 3511 -936 
Q 2978 -1381 1966 -1381 
Q 1638 -1381 1331 -1331 
Q 1025 -1281 716 -1178 
L 716 -306 
Q 1009 -475 1290 -558 
Q 1572 -641 1856 -641 
Q 2406 -641 2662 -400 
Q 2919 -159 2919 353 
L 2919 594 
z
M 2181 2772 
Q 1834 2772 1640 2515 
Q 1447 2259 1447 1791 
Q 1447 1309 1634 1061 
Q 1822 813 2181 813 
Q 2531 813 2725 1069 
Q 2919 1325 2919 1791 
Q 2919 2259 2725 2515 
Q 2531 2772 2181 2772 
z
" transform="scale(0.015625)"/>
      <path id="DejaVuSans-Bold-70" d="M 1656 506 
L 1656 -1331 
L 538 -1331 
L 538 3500 
L 1656 3500 
L 1656 2988 
Q 1888 3294 2169 3439 
Q 2450 3584 2816 3584 
Q 3463 3584 3878 3070 
Q 4294 2556 4294 1747 
Q 4294 938 3878 423 
Q 3463 -91 2816 -91 
Q 2450 -91 2169 54 
Q 1888 200 1656 506 
z
M 2400 2772 
Q 2041 2772 1848 2508 
Q 1656 2244 1656 1747 
Q 1656 1250 1848 986 
Q 2041 722 2400 722 
Q 2759 722 2948 984 
Q 3138 1247 3138 1747 
Q 3138 2247 2948 2509 
Q 2759 2772 2400 2772 
z
" transform="scale(0.015625)"/>
     </defs>
     <use xlink:href="#DejaVuSans-Bold-73"/>
     <use xlink:href="#DejaVuSans-Bold-74" transform="translate(59.521484 0)"/>
     <use xlink:href="#DejaVuSans-Bold-72" transform="translate(107.324219 0)"/>
     <use xlink:href="#DejaVuSans-Bold-75" transform="translate(156.640625 0)"/>
     <use xlink:href="#DejaVuSans-Bold-74" transform="translate(227.832031 0)"/>
     <use xlink:href="#DejaVuSans-Bold-74" transform="translate(275.634766 0)"/>
     <use xlink:href="#DejaVuSans-Bold-75" transform="translate(323.4375 0)"/>
     <use xlink:href="#DejaVuSans-Bold-72" transform="translate(394.628906 0)"/>
     <use xlink:href="#DejaVuSans-Bold-61" transform="translate(443.945312 0)"/>
     <use xlink:href="#DejaVuSans-Bold-20" transform="translate(511.425781 0)"/>
     <use xlink:href="#DejaVuSans-Bold-65" transform="translate(546.240234 0)"/>
     <use xlink:href="#DejaVuSans-Bold-73" transform="translate(614.0625 0)"/>
     <use xlink:href="#DejaVuSans-Bold-61" transform="translate(673.583984 0)"/>
     <use xlink:href="#DejaVuSans-Bold-67" transform="translate(741.064453 0)"/>
     <use xlink:href="#DejaVuSans-Bold-6f" transform="translate(812.646484 0)"/>
     <use xlink:href="#DejaVuSans-Bold-6e" transform="translate(881.347656 0)"/>
     <use xlink:href="#DejaVuSans-Bold-61" transform="translate(952.539062 0)"/>
     <use xlink:href="#DejaVuSans-Bold-6c" transform="translate(1020.019531 0)"/>
     <use xlink:href="#DejaVuSans-Bold-65" transform="translate(1054.296875 0)"/>
     <use xlink:href="#DejaVuSans-Bold-20" transform="translate(1122.119141 0)"/>
     <use xlink:href="#DejaVuSans-Bold-63" transform="translate(1156.933594 0)"/>
     <use xlink:href="#DejaVuSans-Bold-6f" transform="translate(1216.210938 0)"/>
     <use xlink:href="#DejaVuSans-Bold-6d" transform="translate(1284.912109 0)"/>
     <use xlink:href="#DejaVuSans-Bold-70" transform="translate(1389.111328 0)"/>
     <use xlink:href="#DejaVuSans-Bold-61" transform="translate(1460.693359 0)"/>
     <use xlink:href="#DejaVuSans-Bold-74" transform="translate(1528.173828 0)"/>
     <use xlink:href="#DejaVuSans-Bold-74" transform="translate(1575.976562 0)"/>
     <use xlink:href="#DejaVuSans-Bold-61" transform="translate(1623.779297 0)"/>
    </g>
   </g>
   <g id="Line3DCollection_12">
    <path d="M 444.669626 867.744944 
L 447.734646 846.860633 
" clip-path="url(#pe7392a00a8)" style="fill: none; stroke: #737373; stroke-width: 0.75"/>
    <path d="M 447.734646 846.860633 
L 409.83588 835.394206 
" clip-path="url(#pe7392a00a8)" style="fill: none; stroke: #737373; stroke-width: 0.75"/>
    <path d="M 409.83588 835.394206 
L 367.627238 843.263082 
" clip-path="url(#pe7392a00a8)" style="fill: none; stroke: #737373; stroke-width: 0.75"/>
    <path d="M 367.627238 843.263082 
L 360.772645 863.794898 
" clip-path="url(#pe7392a00a8)" style="fill: none; stroke: #737373; stroke-width: 0.75"/>
    <path d="M 360.772645 863.794898 
L 399.8675 876.876049 
" clip-path="url(#pe7392a00a8)" style="fill: none; stroke: #737373; stroke-width: 0.75"/>
    <path d="M 399.8675 876.876049 
L 444.669626 867.744944 
" clip-path="url(#pe7392a00a8)" style="fill: none; stroke: #737373; stroke-width: 0.75"/>
    <path d="M 445.923879 803.292117 
L 449.022182 784.821805 
" clip-path="url(#pe7392a00a8)" style="fill: none; stroke: #737373; stroke-width: 0.75"/>
    <path d="M 449.022182 784.821805 
L 409.975419 774.703542 
" clip-path="url(#pe7392a00a8)" style="fill: none; stroke: #737373; stroke-width: 0.75"/>
    <path d="M 409.975419 774.703542 
L 366.506102 781.645501 
" clip-path="url(#pe7392a00a8)" style="fill: none; stroke: #737373; stroke-width: 0.75"/>
    <path d="M 366.506102 781.645501 
L 359.381178 799.794539 
" clip-path="url(#pe7392a00a8)" style="fill: none; stroke: #737373; stroke-width: 0.75"/>
    <path d="M 359.381178 799.794539 
L 399.698775 811.384639 
" clip-path="url(#pe7392a00a8)" style="fill: none; stroke: #737373; stroke-width: 0.75"/>
    <path d="M 399.698775 811.384639 
L 445.923879 803.292117 
" clip-path="url(#pe7392a00a8)" style="fill: none; stroke: #737373; stroke-width: 0.75"/>
    <path d="M 444.669626 867.744944 
L 445.923879 803.292117 
" clip-path="url(#pe7392a00a8)" style="fill: none; stroke: #737373; stroke-width: 0.75"/>
    <path d="M 447.734646 846.860633 
L 449.022182 784.821805 
" clip-path="url(#pe7392a00a8)" style="fill: none; stroke: #737373; stroke-width: 0.75"/>
    <path d="M 409.83588 835.394206 
L 409.975419 774.703542 
" clip-path="url(#pe7392a00a8)" style="fill: none; stroke: #737373; stroke-width: 0.75"/>
    <path d="M 367.627238 843.263082 
L 366.506102 781.645501 
" clip-path="url(#pe7392a00a8)" style="fill: none; stroke: #737373; stroke-width: 0.75"/>
    <path d="M 360.772645 863.794898 
L 359.381178 799.794539 
" clip-path="url(#pe7392a00a8)" style="fill: none; stroke: #737373; stroke-width: 0.75"/>
    <path d="M 399.8675 876.876049 
L 399.698775 811.384639 
" clip-path="url(#pe7392a00a8)" style="fill: none; stroke: #737373; stroke-width: 0.75"/>
   </g>
  </g>
  <g id="text_8">
   <!-- Sette strutture cristalline fondamentali -->
   <g transform="translate(223.485547 18.597656) scale(0.15 -0.15)">
    <defs>
     <path id="DejaVuSans-Bold-53" d="M 3834 4519 
L 3834 3531 
Q 3450 3703 3084 3790 
Q 2719 3878 2394 3878 
Q 1963 3878 1756 3759 
Q 1550 3641 1550 3391 
Q 1550 3203 1689 3098 
Q 1828 2994 2194 2919 
L 2706 2816 
Q 3484 2659 3812 2340 
Q 4141 2022 4141 1434 
Q 4141 663 3683 286 
Q 3225 -91 2284 -91 
Q 1841 -91 1394 -6 
Q 947 78 500 244 
L 500 1259 
Q 947 1022 1364 901 
Q 1781 781 2169 781 
Q 2563 781 2772 912 
Q 2981 1044 2981 1288 
Q 2981 1506 2839 1625 
Q 2697 1744 2272 1838 
L 1806 1941 
Q 1106 2091 782 2419 
Q 459 2747 459 3303 
Q 459 4000 909 4375 
Q 1359 4750 2203 4750 
Q 2588 4750 2994 4692 
Q 3400 4634 3834 4519 
z
" transform="scale(0.015625)"/>
    </defs>
    <use xlink:href="#DejaVuSans-Bold-53"/>
    <use xlink:href="#DejaVuSans-Bold-65" transform="translate(72.021484 0)"/>
    <use xlink:href="#DejaVuSans-Bold-74" transform="translate(139.84375 0)"/>
    <use xlink:href="#DejaVuSans-Bold-74" transform="translate(187.646484 0)"/>
    <use xlink:href="#DejaVuSans-Bold-65" transform="translate(235.449219 0)"/>
    <use xlink:href="#DejaVuSans-Bold-20" transform="translate(303.271484 0)"/>
    <use xlink:href="#DejaVuSans-Bold-73" transform="translate(338.085938 0)"/>
    <use xlink:href="#DejaVuSans-Bold-74" transform="translate(397.607422 0)"/>
    <use xlink:href="#DejaVuSans-Bold-72" transform="translate(445.410156 0)"/>
    <use xlink:href="#DejaVuSans-Bold-75" transform="translate(494.726562 0)"/>
    <use xlink:href="#DejaVuSans-Bold-74" transform="translate(565.917969 0)"/>
    <use xlink:href="#DejaVuSans-Bold-74" transform="translate(613.720703 0)"/>
    <use xlink:href="#DejaVuSans-Bold-75" transform="translate(661.523438 0)"/>
    <use xlink:href="#DejaVuSans-Bold-72" transform="translate(732.714844 0)"/>
    <use xlink:href="#DejaVuSans-Bold-65" transform="translate(782.03125 0)"/>
    <use xlink:href="#DejaVuSans-Bold-20" transform="translate(849.853516 0)"/>
    <use xlink:href="#DejaVuSans-Bold-63" transform="translate(884.667969 0)"/>
    <use xlink:href="#DejaVuSans-Bold-72" transform="translate(943.945312 0)"/>
    <use xlink:href="#DejaVuSans-Bold-69" transform="translate(993.261719 0)"/>
    <use xlink:href="#DejaVuSans-Bold-73" transform="translate(1027.539062 0)"/>
    <use xlink:href="#DejaVuSans-Bold-74" transform="translate(1087.060547 0)"/>
    <use xlink:href="#DejaVuSans-Bold-61" transform="translate(1134.863281 0)"/>
    <use xlink:href="#DejaVuSans-Bold-6c" transform="translate(1202.34375 0)"/>
    <use xlink:href="#DejaVuSans-Bold-6c" transform="translate(1236.621094 0)"/>
    <use xlink:href="#DejaVuSans-Bold-69" transform="translate(1270.898438 0)"/>
    <use xlink:href="#DejaVuSans-Bold-6e" transform="translate(1305.175781 0)"/>
    <use xlink:href="#DejaVuSans-Bold-65" transform="translate(1376.367188 0)"/>
    <use xlink:href="#DejaVuSans-Bold-20" transform="translate(1444.189453 0)"/>
    <use xlink:href="#DejaVuSans-Bold-66" transform="translate(1479.003906 0)"/>
    <use xlink:href="#DejaVuSans-Bold-6f" transform="translate(1522.509766 0)"/>
    <use xlink:href="#DejaVuSans-Bold-6e" transform="translate(1591.210938 0)"/>
    <use xlink:href="#DejaVuSans-Bold-64" transform="translate(1662.402344 0)"/>
    <use xlink:href="#DejaVuSans-Bold-61" transform="translate(1733.984375 0)"/>
    <use xlink:href="#DejaVuSans-Bold-6d" transform="translate(1801.464844 0)"/>
    <use xlink:href="#DejaVuSans-Bold-65" transform="translate(1905.664062 0)"/>
    <use xlink:href="#DejaVuSans-Bold-6e" transform="translate(1973.486328 0)"/>
    <use xlink:href="#DejaVuSans-Bold-74" transform="translate(2044.677734 0)"/>
    <use xlink:href="#DejaVuSans-Bold-61" transform="translate(2092.480469 0)"/>
    <use xlink:href="#DejaVuSans-Bold-6c" transform="translate(2159.960938 0)"/>
    <use xlink:href="#DejaVuSans-Bold-69" transform="translate(2194.238281 0)"/>
   </g>
  </g>
  <g id="text_9">
   <!-- I punti mostrano le posizioni atomiche nella cella convenzionale; i segmenti servono da guida geometrica e non rappresentano necessariamente legami. -->
   <g transform="translate(7.2 1012.2192) scale(0.1 -0.1)">
    <defs>
     <path id="DejaVuSans-49" d="M 628 4666 
L 1259 4666 
L 1259 0 
L 628 0 
L 628 4666 
z
" transform="scale(0.015625)"/>
     <path id="DejaVuSans-20" transform="scale(0.015625)"/>
     <path id="DejaVuSans-70" d="M 1159 525 
L 1159 -1331 
L 581 -1331 
L 581 3500 
L 1159 3500 
L 1159 2969 
Q 1341 3281 1617 3432 
Q 1894 3584 2278 3584 
Q 2916 3584 3314 3078 
Q 3713 2572 3713 1747 
Q 3713 922 3314 415 
Q 2916 -91 2278 -91 
Q 1894 -91 1617 61 
Q 1341 213 1159 525 
z
M 3116 1747 
Q 3116 2381 2855 2742 
Q 2594 3103 2138 3103 
Q 1681 3103 1420 2742 
Q 1159 2381 1159 1747 
Q 1159 1113 1420 752 
Q 1681 391 2138 391 
Q 2594 391 2855 752 
Q 3116 1113 3116 1747 
z
" transform="scale(0.015625)"/>
     <path id="DejaVuSans-75" d="M 544 1381 
L 544 3500 
L 1119 3500 
L 1119 1403 
Q 1119 906 1312 657 
Q 1506 409 1894 409 
Q 2359 409 2629 706 
Q 2900 1003 2900 1516 
L 2900 3500 
L 3475 3500 
L 3475 0 
L 2900 0 
L 2900 538 
Q 2691 219 2414 64 
Q 2138 -91 1772 -91 
Q 1169 -91 856 284 
Q 544 659 544 1381 
z
M 1991 3584 
L 1991 3584 
z
" transform="scale(0.015625)"/>
     <path id="DejaVuSans-6e" d="M 3513 2113 
L 3513 0 
L 2938 0 
L 2938 2094 
Q 2938 2591 2744 2837 
Q 2550 3084 2163 3084 
Q 1697 3084 1428 2787 
Q 1159 2491 1159 1978 
L 1159 0 
L 581 0 
L 581 3500 
L 1159 3500 
L 1159 2956 
Q 1366 3272 1645 3428 
Q 1925 3584 2291 3584 
Q 2894 3584 3203 3211 
Q 3513 2838 3513 2113 
z
" transform="scale(0.015625)"/>
     <path id="DejaVuSans-74" d="M 1172 4494 
L 1172 3500 
L 2356 3500 
L 2356 3053 
L 1172 3053 
L 1172 1153 
Q 1172 725 1289 603 
Q 1406 481 1766 481 
L 2356 481 
L 2356 0 
L 1766 0 
Q 1100 0 847 248 
Q 594 497 594 1153 
L 594 3053 
L 172 3053 
L 172 3500 
L 594 3500 
L 594 4494 
L 1172 4494 
z
" transform="scale(0.015625)"/>
     <path id="DejaVuSans-69" d="M 603 3500 
L 1178 3500 
L 1178 0 
L 603 0 
L 603 3500 
z
M 603 4863 
L 1178 4863 
L 1178 4134 
L 603 4134 
L 603 4863 
z
" transform="scale(0.015625)"/>
     <path id="DejaVuSans-6d" d="M 3328 2828 
Q 3544 3216 3844 3400 
Q 4144 3584 4550 3584 
Q 5097 3584 5394 3201 
Q 5691 2819 5691 2113 
L 5691 0 
L 5113 0 
L 5113 2094 
Q 5113 2597 4934 2840 
Q 4756 3084 4391 3084 
Q 3944 3084 3684 2787 
Q 3425 2491 3425 1978 
L 3425 0 
L 2847 0 
L 2847 2094 
Q 2847 2600 2669 2842 
Q 2491 3084 2119 3084 
Q 1678 3084 1418 2786 
Q 1159 2488 1159 1978 
L 1159 0 
L 581 0 
L 581 3500 
L 1159 3500 
L 1159 2956 
Q 1356 3278 1631 3431 
Q 1906 3584 2284 3584 
Q 2666 3584 2933 3390 
Q 3200 3197 3328 2828 
z
" transform="scale(0.015625)"/>
     <path id="DejaVuSans-6f" d="M 1959 3097 
Q 1497 3097 1228 2736 
Q 959 2375 959 1747 
Q 959 1119 1226 758 
Q 1494 397 1959 397 
Q 2419 397 2687 759 
Q 2956 1122 2956 1747 
Q 2956 2369 2687 2733 
Q 2419 3097 1959 3097 
z
M 1959 3584 
Q 2709 3584 3137 3096 
Q 3566 2609 3566 1747 
Q 3566 888 3137 398 
Q 2709 -91 1959 -91 
Q 1206 -91 779 398 
Q 353 888 353 1747 
Q 353 2609 779 3096 
Q 1206 3584 1959 3584 
z
" transform="scale(0.015625)"/>
     <path id="DejaVuSans-73" d="M 2834 3397 
L 2834 2853 
Q 2591 2978 2328 3040 
Q 2066 3103 1784 3103 
Q 1356 3103 1142 2972 
Q 928 2841 928 2578 
Q 928 2378 1081 2264 
Q 1234 2150 1697 2047 
L 1894 2003 
Q 2506 1872 2764 1633 
Q 3022 1394 3022 966 
Q 3022 478 2636 193 
Q 2250 -91 1575 -91 
Q 1294 -91 989 -36 
Q 684 19 347 128 
L 347 722 
Q 666 556 975 473 
Q 1284 391 1588 391 
Q 1994 391 2212 530 
Q 2431 669 2431 922 
Q 2431 1156 2273 1281 
Q 2116 1406 1581 1522 
L 1381 1569 
Q 847 1681 609 1914 
Q 372 2147 372 2553 
Q 372 3047 722 3315 
Q 1072 3584 1716 3584 
Q 2034 3584 2315 3537 
Q 2597 3491 2834 3397 
z
" transform="scale(0.015625)"/>
     <path id="DejaVuSans-72" d="M 2631 2963 
Q 2534 3019 2420 3045 
Q 2306 3072 2169 3072 
Q 1681 3072 1420 2755 
Q 1159 2438 1159 1844 
L 1159 0 
L 581 0 
L 581 3500 
L 1159 3500 
L 1159 2956 
Q 1341 3275 1631 3429 
Q 1922 3584 2338 3584 
Q 2397 3584 2469 3576 
Q 2541 3569 2628 3553 
L 2631 2963 
z
" transform="scale(0.015625)"/>
     <path id="DejaVuSans-61" d="M 2194 1759 
Q 1497 1759 1228 1600 
Q 959 1441 959 1056 
Q 959 750 1161 570 
Q 1363 391 1709 391 
Q 2188 391 2477 730 
Q 2766 1069 2766 1631 
L 2766 1759 
L 2194 1759 
z
M 3341 1997 
L 3341 0 
L 2766 0 
L 2766 531 
Q 2569 213 2275 61 
Q 1981 -91 1556 -91 
Q 1019 -91 701 211 
Q 384 513 384 1019 
Q 384 1609 779 1909 
Q 1175 2209 1959 2209 
L 2766 2209 
L 2766 2266 
Q 2766 2663 2505 2880 
Q 2244 3097 1772 3097 
Q 1472 3097 1187 3025 
Q 903 2953 641 2809 
L 641 3341 
Q 956 3463 1253 3523 
Q 1550 3584 1831 3584 
Q 2591 3584 2966 3190 
Q 3341 2797 3341 1997 
z
" transform="scale(0.015625)"/>
     <path id="DejaVuSans-6c" d="M 603 4863 
L 1178 4863 
L 1178 0 
L 603 0 
L 603 4863 
z
" transform="scale(0.015625)"/>
     <path id="DejaVuSans-65" d="M 3597 1894 
L 3597 1613 
L 953 1613 
Q 991 1019 1311 708 
Q 1631 397 2203 397 
Q 2534 397 2845 478 
Q 3156 559 3463 722 
L 3463 178 
Q 3153 47 2828 -22 
Q 2503 -91 2169 -91 
Q 1331 -91 842 396 
Q 353 884 353 1716 
Q 353 2575 817 3079 
Q 1281 3584 2069 3584 
Q 2775 3584 3186 3129 
Q 3597 2675 3597 1894 
z
M 3022 2063 
Q 3016 2534 2758 2815 
Q 2500 3097 2075 3097 
Q 1594 3097 1305 2825 
Q 1016 2553 972 2059 
L 3022 2063 
z
" transform="scale(0.015625)"/>
     <path id="DejaVuSans-7a" d="M 353 3500 
L 3084 3500 
L 3084 2975 
L 922 459 
L 3084 459 
L 3084 0 
L 275 0 
L 275 525 
L 2438 3041 
L 353 3041 
L 353 3500 
z
" transform="scale(0.015625)"/>
     <path id="DejaVuSans-63" d="M 3122 3366 
L 3122 2828 
Q 2878 2963 2633 3030 
Q 2388 3097 2138 3097 
Q 1578 3097 1268 2742 
Q 959 2388 959 1747 
Q 959 1106 1268 751 
Q 1578 397 2138 397 
Q 2388 397 2633 464 
Q 2878 531 3122 666 
L 3122 134 
Q 2881 22 2623 -34 
Q 2366 -91 2075 -91 
Q 1284 -91 818 406 
Q 353 903 353 1747 
Q 353 2603 823 3093 
Q 1294 3584 2113 3584 
Q 2378 3584 2631 3529 
Q 2884 3475 3122 3366 
z
" transform="scale(0.015625)"/>
     <path id="DejaVuSans-68" d="M 3513 2113 
L 3513 0 
L 2938 0 
L 2938 2094 
Q 2938 2591 2744 2837 
Q 2550 3084 2163 3084 
Q 1697 3084 1428 2787 
Q 1159 2491 1159 1978 
L 1159 0 
L 581 0 
L 581 4863 
L 1159 4863 
L 1159 2956 
Q 1366 3272 1645 3428 
Q 1925 3584 2291 3584 
Q 2894 3584 3203 3211 
Q 3513 2838 3513 2113 
z
" transform="scale(0.015625)"/>
     <path id="DejaVuSans-76" d="M 191 3500 
L 800 3500 
L 1894 563 
L 2988 3500 
L 3597 3500 
L 2284 0 
L 1503 0 
L 191 3500 
z
" transform="scale(0.015625)"/>
     <path id="DejaVuSans-3b" d="M 750 3309 
L 1409 3309 
L 1409 2516 
L 750 2516 
L 750 3309 
z
M 750 794 
L 1409 794 
L 1409 256 
L 897 -744 
L 494 -744 
L 750 256 
L 750 794 
z
" transform="scale(0.015625)"/>
     <path id="DejaVuSans-67" d="M 2906 1791 
Q 2906 2416 2648 2759 
Q 2391 3103 1925 3103 
Q 1463 3103 1205 2759 
Q 947 2416 947 1791 
Q 947 1169 1205 825 
Q 1463 481 1925 481 
Q 2391 481 2648 825 
Q 2906 1169 2906 1791 
z
M 3481 434 
Q 3481 -459 3084 -895 
Q 2688 -1331 1869 -1331 
Q 1566 -1331 1297 -1286 
Q 1028 -1241 775 -1147 
L 775 -588 
Q 1028 -725 1275 -790 
Q 1522 -856 1778 -856 
Q 2344 -856 2625 -561 
Q 2906 -266 2906 331 
L 2906 616 
Q 2728 306 2450 153 
Q 2172 0 1784 0 
Q 1141 0 747 490 
Q 353 981 353 1791 
Q 353 2603 747 3093 
Q 1141 3584 1784 3584 
Q 2172 3584 2450 3431 
Q 2728 3278 2906 2969 
L 2906 3500 
L 3481 3500 
L 3481 434 
z
" transform="scale(0.015625)"/>
     <path id="DejaVuSans-64" d="M 2906 2969 
L 2906 4863 
L 3481 4863 
L 3481 0 
L 2906 0 
L 2906 525 
Q 2725 213 2448 61 
Q 2172 -91 1784 -91 
Q 1150 -91 751 415 
Q 353 922 353 1747 
Q 353 2572 751 3078 
Q 1150 3584 1784 3584 
Q 2172 3584 2448 3432 
Q 2725 3281 2906 2969 
z
M 947 1747 
Q 947 1113 1208 752 
Q 1469 391 1925 391 
Q 2381 391 2643 752 
Q 2906 1113 2906 1747 
Q 2906 2381 2643 2742 
Q 2381 3103 1925 3103 
Q 1469 3103 1208 2742 
Q 947 2381 947 1747 
z
" transform="scale(0.015625)"/>
     <path id="DejaVuSans-2e" d="M 684 794 
L 1344 794 
L 1344 0 
L 684 0 
L 684 794 
z
" transform="scale(0.015625)"/>
    </defs>
    <use xlink:href="#DejaVuSans-49"/>
    <use xlink:href="#DejaVuSans-20" transform="translate(29.492188 0)"/>
    <use xlink:href="#DejaVuSans-70" transform="translate(61.279297 0)"/>
    <use xlink:href="#DejaVuSans-75" transform="translate(124.755859 0)"/>
    <use xlink:href="#DejaVuSans-6e" transform="translate(188.134766 0)"/>
    <use xlink:href="#DejaVuSans-74" transform="translate(251.513672 0)"/>
    <use xlink:href="#DejaVuSans-69" transform="translate(290.722656 0)"/>
    <use xlink:href="#DejaVuSans-20" transform="translate(318.505859 0)"/>
    <use xlink:href="#DejaVuSans-6d" transform="translate(350.292969 0)"/>
    <use xlink:href="#DejaVuSans-6f" transform="translate(447.705078 0)"/>
    <use xlink:href="#DejaVuSans-73" transform="translate(508.886719 0)"/>
    <use xlink:href="#DejaVuSans-74" transform="translate(560.986328 0)"/>
    <use xlink:href="#DejaVuSans-72" transform="translate(600.195312 0)"/>
    <use xlink:href="#DejaVuSans-61" transform="translate(641.308594 0)"/>
    <use xlink:href="#DejaVuSans-6e" transform="translate(702.587891 0)"/>
    <use xlink:href="#DejaVuSans-6f" transform="translate(765.966797 0)"/>
    <use xlink:href="#DejaVuSans-20" transform="translate(827.148438 0)"/>
    <use xlink:href="#DejaVuSans-6c" transform="translate(858.935547 0)"/>
    <use xlink:href="#DejaVuSans-65" transform="translate(886.71875 0)"/>
    <use xlink:href="#DejaVuSans-20" transform="translate(948.242188 0)"/>
    <use xlink:href="#DejaVuSans-70" transform="translate(980.029297 0)"/>
    <use xlink:href="#DejaVuSans-6f" transform="translate(1043.505859 0)"/>
    <use xlink:href="#DejaVuSans-73" transform="translate(1104.6875 0)"/>
    <use xlink:href="#DejaVuSans-69" transform="translate(1156.787109 0)"/>
    <use xlink:href="#DejaVuSans-7a" transform="translate(1184.570312 0)"/>
    <use xlink:href="#DejaVuSans-69" transform="translate(1237.060547 0)"/>
    <use xlink:href="#DejaVuSans-6f" transform="translate(1264.84375 0)"/>
    <use xlink:href="#DejaVuSans-6e" transform="translate(1326.025391 0)"/>
    <use xlink:href="#DejaVuSans-69" transform="translate(1389.404297 0)"/>
    <use xlink:href="#DejaVuSans-20" transform="translate(1417.1875 0)"/>
    <use xlink:href="#DejaVuSans-61" transform="translate(1448.974609 0)"/>
    <use xlink:href="#DejaVuSans-74" transform="translate(1510.253906 0)"/>
    <use xlink:href="#DejaVuSans-6f" transform="translate(1549.462891 0)"/>
    <use xlink:href="#DejaVuSans-6d" transform="translate(1610.644531 0)"/>
    <use xlink:href="#DejaVuSans-69" transform="translate(1708.056641 0)"/>
    <use xlink:href="#DejaVuSans-63" transform="translate(1735.839844 0)"/>
    <use xlink:href="#DejaVuSans-68" transform="translate(1790.820312 0)"/>
    <use xlink:href="#DejaVuSans-65" transform="translate(1854.199219 0)"/>
    <use xlink:href="#DejaVuSans-20" transform="translate(1915.722656 0)"/>
    <use xlink:href="#DejaVuSans-6e" transform="translate(1947.509766 0)"/>
    <use xlink:href="#DejaVuSans-65" transform="translate(2010.888672 0)"/>
    <use xlink:href="#DejaVuSans-6c" transform="translate(2072.412109 0)"/>
    <use xlink:href="#DejaVuSans-6c" transform="translate(2100.195312 0)"/>
    <use xlink:href="#DejaVuSans-61" transform="translate(2127.978516 0)"/>
    <use xlink:href="#DejaVuSans-20" transform="translate(2189.257812 0)"/>
    <use xlink:href="#DejaVuSans-63" transform="translate(2221.044922 0)"/>
    <use xlink:href="#DejaVuSans-65" transform="translate(2276.025391 0)"/>
    <use xlink:href="#DejaVuSans-6c" transform="translate(2337.548828 0)"/>
    <use xlink:href="#DejaVuSans-6c" transform="translate(2365.332031 0)"/>
    <use xlink:href="#DejaVuSans-61" transform="translate(2393.115234 0)"/>
    <use xlink:href="#DejaVuSans-20" transform="translate(2454.394531 0)"/>
    <use xlink:href="#DejaVuSans-63" transform="translate(2486.181641 0)"/>
    <use xlink:href="#DejaVuSans-6f" transform="translate(2541.162109 0)"/>
    <use xlink:href="#DejaVuSans-6e" transform="translate(2602.34375 0)"/>
    <use xlink:href="#DejaVuSans-76" transform="translate(2665.722656 0)"/>
    <use xlink:href="#DejaVuSans-65" transform="translate(2724.902344 0)"/>
    <use xlink:href="#DejaVuSans-6e" transform="translate(2786.425781 0)"/>
    <use xlink:href="#DejaVuSans-7a" transform="translate(2849.804688 0)"/>
    <use xlink:href="#DejaVuSans-69" transform="translate(2902.294922 0)"/>
    <use xlink:href="#DejaVuSans-6f" transform="translate(2930.078125 0)"/>
    <use xlink:href="#DejaVuSans-6e" transform="translate(2991.259766 0)"/>
    <use xlink:href="#DejaVuSans-61" transform="translate(3054.638672 0)"/>
    <use xlink:href="#DejaVuSans-6c" transform="translate(3115.917969 0)"/>
    <use xlink:href="#DejaVuSans-65" transform="translate(3143.701172 0)"/>
    <use xlink:href="#DejaVuSans-3b" transform="translate(3205.224609 0)"/>
    <use xlink:href="#DejaVuSans-20" transform="translate(3238.916016 0)"/>
    <use xlink:href="#DejaVuSans-69" transform="translate(3270.703125 0)"/>
    <use xlink:href="#DejaVuSans-20" transform="translate(3298.486328 0)"/>
    <use xlink:href="#DejaVuSans-73" transform="translate(3330.273438 0)"/>
    <use xlink:href="#DejaVuSans-65" transform="translate(3382.373047 0)"/>
    <use xlink:href="#DejaVuSans-67" transform="translate(3443.896484 0)"/>
    <use xlink:href="#DejaVuSans-6d" transform="translate(3507.373047 0)"/>
    <use xlink:href="#DejaVuSans-65" transform="translate(3604.785156 0)"/>
    <use xlink:href="#DejaVuSans-6e" transform="translate(3666.308594 0)"/>
    <use xlink:href="#DejaVuSans-74" transform="translate(3729.6875 0)"/>
    <use xlink:href="#DejaVuSans-69" transform="translate(3768.896484 0)"/>
    <use xlink:href="#DejaVuSans-20" transform="translate(3796.679688 0)"/>
    <use xlink:href="#DejaVuSans-73" transform="translate(3828.466797 0)"/>
    <use xlink:href="#DejaVuSans-65" transform="translate(3880.566406 0)"/>
    <use xlink:href="#DejaVuSans-72" transform="translate(3942.089844 0)"/>
    <use xlink:href="#DejaVuSans-76" transform="translate(3983.203125 0)"/>
    <use xlink:href="#DejaVuSans-6f" transform="translate(4042.382812 0)"/>
    <use xlink:href="#DejaVuSans-6e" transform="translate(4103.564453 0)"/>
    <use xlink:href="#DejaVuSans-6f" transform="translate(4166.943359 0)"/>
    <use xlink:href="#DejaVuSans-20" transform="translate(4228.125 0)"/>
    <use xlink:href="#DejaVuSans-64" transform="translate(4259.912109 0)"/>
    <use xlink:href="#DejaVuSans-61" transform="translate(4323.388672 0)"/>
    <use xlink:href="#DejaVuSans-20" transform="translate(4384.667969 0)"/>
    <use xlink:href="#DejaVuSans-67" transform="translate(4416.455078 0)"/>
    <use xlink:href="#DejaVuSans-75" transform="translate(4479.931641 0)"/>
    <use xlink:href="#DejaVuSans-69" transform="translate(4543.310547 0)"/>
    <use xlink:href="#DejaVuSans-64" transform="translate(4571.09375 0)"/>
    <use xlink:href="#DejaVuSans-61" transform="translate(4634.570312 0)"/>
    <use xlink:href="#DejaVuSans-20" transform="translate(4695.849609 0)"/>
    <use xlink:href="#DejaVuSans-67" transform="translate(4727.636719 0)"/>
    <use xlink:href="#DejaVuSans-65" transform="translate(4791.113281 0)"/>
    <use xlink:href="#DejaVuSans-6f" transform="translate(4852.636719 0)"/>
    <use xlink:href="#DejaVuSans-6d" transform="translate(4913.818359 0)"/>
    <use xlink:href="#DejaVuSans-65" transform="translate(5011.230469 0)"/>
    <use xlink:href="#DejaVuSans-74" transform="translate(5072.753906 0)"/>
    <use xlink:href="#DejaVuSans-72" transform="translate(5111.962891 0)"/>
    <use xlink:href="#DejaVuSans-69" transform="translate(5153.076172 0)"/>
    <use xlink:href="#DejaVuSans-63" transform="translate(5180.859375 0)"/>
    <use xlink:href="#DejaVuSans-61" transform="translate(5235.839844 0)"/>
    <use xlink:href="#DejaVuSans-20" transform="translate(5297.119141 0)"/>
    <use xlink:href="#DejaVuSans-65" transform="translate(5328.90625 0)"/>
    <use xlink:href="#DejaVuSans-20" transform="translate(5390.429688 0)"/>
    <use xlink:href="#DejaVuSans-6e" transform="translate(5422.216797 0)"/>
    <use xlink:href="#DejaVuSans-6f" transform="translate(5485.595703 0)"/>
    <use xlink:href="#DejaVuSans-6e" transform="translate(5546.777344 0)"/>
    <use xlink:href="#DejaVuSans-20" transform="translate(5610.15625 0)"/>
    <use xlink:href="#DejaVuSans-72" transform="translate(5641.943359 0)"/>
    <use xlink:href="#DejaVuSans-61" transform="translate(5683.056641 0)"/>
    <use xlink:href="#DejaVuSans-70" transform="translate(5744.335938 0)"/>
    <use xlink:href="#DejaVuSans-70" transform="translate(5807.8125 0)"/>
    <use xlink:href="#DejaVuSans-72" transform="translate(5871.289062 0)"/>
    <use xlink:href="#DejaVuSans-65" transform="translate(5910.152344 0)"/>
    <use xlink:href="#DejaVuSans-73" transform="translate(5971.675781 0)"/>
    <use xlink:href="#DejaVuSans-65" transform="translate(6023.775391 0)"/>
    <use xlink:href="#DejaVuSans-6e" transform="translate(6085.298828 0)"/>
    <use xlink:href="#DejaVuSans-74" transform="translate(6148.677734 0)"/>
    <use xlink:href="#DejaVuSans-61" transform="translate(6187.886719 0)"/>
    <use xlink:href="#DejaVuSans-6e" transform="translate(6249.166016 0)"/>
    <use xlink:href="#DejaVuSans-6f" transform="translate(6312.544922 0)"/>
    <use xlink:href="#DejaVuSans-20" transform="translate(6373.726562 0)"/>
    <use xlink:href="#DejaVuSans-6e" transform="translate(6405.513672 0)"/>
    <use xlink:href="#DejaVuSans-65" transform="translate(6468.892578 0)"/>
    <use xlink:href="#DejaVuSans-63" transform="translate(6530.416016 0)"/>
    <use xlink:href="#DejaVuSans-65" transform="translate(6585.396484 0)"/>
    <use xlink:href="#DejaVuSans-73" transform="translate(6646.919922 0)"/>
    <use xlink:href="#DejaVuSans-73" transform="translate(6699.019531 0)"/>
    <use xlink:href="#DejaVuSans-61" transform="translate(6751.119141 0)"/>
    <use xlink:href="#DejaVuSans-72" transform="translate(6812.398438 0)"/>
    <use xlink:href="#DejaVuSans-69" transform="translate(6853.511719 0)"/>
    <use xlink:href="#DejaVuSans-61" transform="translate(6881.294922 0)"/>
    <use xlink:href="#DejaVuSans-6d" transform="translate(6942.574219 0)"/>
    <use xlink:href="#DejaVuSans-65" transform="translate(7039.986328 0)"/>
    <use xlink:href="#DejaVuSans-6e" transform="translate(7101.509766 0)"/>
    <use xlink:href="#DejaVuSans-74" transform="translate(7164.888672 0)"/>
    <use xlink:href="#DejaVuSans-65" transform="translate(7204.097656 0)"/>
    <use xlink:href="#DejaVuSans-20" transform="translate(7265.621094 0)"/>
    <use xlink:href="#DejaVuSans-6c" transform="translate(7297.408203 0)"/>
    <use xlink:href="#DejaVuSans-65" transform="translate(7325.191406 0)"/>
    <use xlink:href="#DejaVuSans-67" transform="translate(7386.714844 0)"/>
    <use xlink:href="#DejaVuSans-61" transform="translate(7450.191406 0)"/>
    <use xlink:href="#DejaVuSans-6d" transform="translate(7511.470703 0)"/>
    <use xlink:href="#DejaVuSans-69" transform="translate(7608.882812 0)"/>
    <use xlink:href="#DejaVuSans-2e" transform="translate(7636.666016 0)"/>
   </g>
  </g>
 </g>
 <defs>
  <clipPath id="p2f1fea6b97">
   <rect x="111.755986" y="124.776" width="171.14087" height="171.14087"/>
  </clipPath>
  <clipPath id="p5398efd47d">
   <rect x="522.646895" y="124.776" width="171.14087" height="171.14087"/>
  </clipPath>
  <clipPath id="pf84abb2ed9">
   <rect x="111.755986" y="330.145043" width="171.14087" height="171.14087"/>
  </clipPath>
  <clipPath id="p365adf50ce">
   <rect x="522.646895" y="330.145043" width="171.14087" height="171.14087"/>
  </clipPath>
  <clipPath id="p12cc55f9a4">
   <rect x="111.755986" y="535.514087" width="171.14087" height="171.14087"/>
  </clipPath>
  <clipPath id="p0ce0bcd065">
   <rect x="522.646895" y="535.514087" width="171.14087" height="171.14087"/>
  </clipPath>
  <clipPath id="pe7392a00a8">
   <rect x="317.20144" y="740.88313" width="171.14087" height="171.14087"/>
  </clipPath>
 </defs>
</svg>
