<?xml version="1.0" encoding="utf-8" standalone="no"?>
<!DOCTYPE svg PUBLIC "-//W3C//DTD SVG 1.1//EN"
  "http://www.w3.org/Graphics/SVG/1.1/DTD/svg11.dtd">
<svg xmlns:xlink="http://www.w3.org/1999/xlink" width="712.845933pt" height="712.84pt" viewBox="0 0 712.845933 712.84" xmlns="http://www.w3.org/2000/svg" version="1.1">
 <metadata>
  <rdf:RDF xmlns:dc="http://purl.org/dc/elements/1.1/" xmlns:cc="http://creativecommons.org/ns#" xmlns:rdf="http://www.w3.org/1999/02/22-rdf-syntax-ns#">
   <cc:Work>
    <dc:type rdf:resource="http://purl.org/dc/dcmitype/StillImage"/>
    <dc:date>2026-06-16T10:41:42.092032</dc:date>
    <dc:format>image/svg+xml</dc:format>
    <dc:creator>
     <cc:Agent>
      <dc:title>Matplotlib v3.10.8, https://matplotlib.org/</dc:title>
     </cc:Agent>
    </dc:creator>
   </cc:Work>
  </rdf:RDF>
 </metadata>
 <defs>
  <style type="text/css">*{stroke-linejoin: round; stroke-linecap: butt}</style>
 </defs>
 <g id="figure_1">
  <g id="patch_1">
   <path d="M 0 712.84 
L 712.845933 712.84 
L 712.845933 0 
L 0 0 
z
" style="fill: #ffffff"/>
  </g>
  <g id="axes_1">
   <g id="patch_2">
    <path d="M 60.154386 257.153216 
L 218.65731 257.153216 
L 248.376608 227.433918 
L 89.873684 227.433918 
z
" clip-path="url(#p4c8c17e77a)" style="fill: #1f77b4; opacity: 0.1"/>
   </g>
   <g id="patch_3">
    <path d="M 89.873684 227.433918 
L 248.376608 227.433918 
L 248.376608 156.107602 
L 89.873684 156.107602 
z
" clip-path="url(#p4c8c17e77a)" style="fill: #1f77b4; opacity: 0.08"/>
   </g>
   <g id="patch_4">
    <path d="M 125.536842 227.433918 
L 151.293567 227.433918 
L 151.293567 132.332164 
L 125.536842 132.332164 
z
" clip-path="url(#p4c8c17e77a)" style="fill: #1f77b4; opacity: 0.22"/>
   </g>
   <g id="line2d_1">
    <path d="M 138.613333 263.097076 
L 138.613333 128.369591 
" clip-path="url(#p4c8c17e77a)" style="fill: none; stroke-dasharray: 2.96,1.28; stroke-dashoffset: 0; stroke: #1f77b4; stroke-width: 0.8"/>
   </g>
   <g id="patch_5">
    <path d="M 56.210375 276.173567 
Q 116.62208 276.173567 175.580341 276.173567 
" style="fill: none; stroke: #000000; stroke-width: 1.3; stroke-linecap: round"/>
    <path d="M 170.780341 273.773567 
L 175.580341 276.173567 
L 170.780341 278.573567 
z
" style="fill: #1f77b4; stroke: #000000; stroke-width: 1.3; stroke-linecap: round"/>
   </g>
   <g id="text_1">
    <!-- $\mathbf{B}_d$ -->
    <g transform="translate(110.996053 286.582151) scale(0.09 -0.09)">
     <defs>
      <path id="DejaVuSans-Bold-42" d="M 2456 2859 
Q 2741 2859 2887 2984 
Q 3034 3109 3034 3353 
Q 3034 3594 2887 3720 
Q 2741 3847 2456 3847 
L 1791 3847 
L 1791 2859 
L 2456 2859 
z
M 2497 819 
Q 2859 819 3042 972 
Q 3225 1125 3225 1434 
Q 3225 1738 3044 1889 
Q 2863 2041 2497 2041 
L 1791 2041 
L 1791 819 
L 2497 819 
z
M 3616 2497 
Q 4003 2384 4215 2081 
Q 4428 1778 4428 1338 
Q 4428 663 3972 331 
Q 3516 0 2584 0 
L 588 0 
L 588 4666 
L 2394 4666 
Q 3366 4666 3802 4372 
Q 4238 4078 4238 3431 
Q 4238 3091 4078 2852 
Q 3919 2613 3616 2497 
z
" transform="scale(0.015625)"/>
      <path id="DejaVuSans-Oblique-64" d="M 2675 525 
Q 2444 222 2128 65 
Q 1813 -91 1428 -91 
Q 903 -91 598 267 
Q 294 625 294 1247 
Q 294 1766 478 2236 
Q 663 2706 1013 3078 
Q 1244 3325 1534 3454 
Q 1825 3584 2144 3584 
Q 2481 3584 2739 3421 
Q 2997 3259 3138 2956 
L 3513 4863 
L 4091 4863 
L 3144 0 
L 2566 0 
L 2675 525 
z
M 891 1350 
Q 891 897 1095 644 
Q 1300 391 1663 391 
Q 1931 391 2161 520 
Q 2391 650 2566 903 
Q 2750 1166 2856 1509 
Q 2963 1853 2963 2188 
Q 2963 2622 2758 2865 
Q 2553 3109 2194 3109 
Q 1922 3109 1687 2981 
Q 1453 2853 1288 2613 
Q 1106 2353 998 2009 
Q 891 1666 891 1350 
z
" transform="scale(0.015625)"/>
     </defs>
     <use xlink:href="#DejaVuSans-Bold-42" transform="translate(0 0.09375)"/>
     <use xlink:href="#DejaVuSans-Oblique-64" transform="translate(77.177734 -16.3125) scale(0.7)"/>
    </g>
   </g>
   <g id="patch_6">
    <path d="M 42.322807 261.095776 
Q 42.322807 204.649523 42.322807 149.656714 
" style="fill: none; stroke: #000000; stroke-width: 1.3; stroke-linecap: round"/>
    <path d="M 39.922807 154.456714 
L 42.322807 149.656714 
L 44.722807 154.456714 
z
" style="fill: #1f77b4; stroke: #000000; stroke-width: 1.3; stroke-linecap: round"/>
   </g>
   <g id="text_2">
    <!-- $\mathbf{L}_d$ -->
    <g transform="translate(26.58386 207.13256) scale(0.09 -0.09)">
     <defs>
      <path id="DejaVuSans-Bold-4c" d="M 588 4666 
L 1791 4666 
L 1791 909 
L 3903 909 
L 3903 0 
L 588 0 
L 588 4666 
z
" transform="scale(0.015625)"/>
     </defs>
     <use xlink:href="#DejaVuSans-Bold-4c" transform="translate(0 0.09375)"/>
     <use xlink:href="#DejaVuSans-Oblique-64" transform="translate(64.677734 -16.3125) scale(0.7)"/>
    </g>
   </g>
   <g id="text_3">
    <!-- ⊥ -->
    <g transform="translate(133.386771 269.83345) scale(0.12 -0.12)">
     <defs>
      <path id="DejaVuSans-22a5" d="M 547 0 
L 547 397 
L 2588 397 
L 2588 4481 
L 2988 4481 
L 2988 397 
L 5028 397 
L 5028 0 
L 547 0 
z
" transform="scale(0.015625)"/>
     </defs>
     <use xlink:href="#DejaVuSans-22a5"/>
    </g>
   </g>
   <g id="text_4">
    <!-- dislocazione a spigolo -->
    <g transform="translate(72.006429 76.8) scale(0.115 -0.115)">
     <defs>
      <path id="DejaVuSans-Bold-64" d="M 2919 2988 
L 2919 4863 
L 4044 4863 
L 4044 0 
L 2919 0 
L 2919 506 
Q 2688 197 2409 53 
Q 2131 -91 1766 -91 
Q 1119 -91 703 423 
Q 288 938 288 1747 
Q 288 2556 703 3070 
Q 1119 3584 1766 3584 
Q 2128 3584 2408 3439 
Q 2688 3294 2919 2988 
z
M 2181 722 
Q 2541 722 2730 984 
Q 2919 1247 2919 1747 
Q 2919 2247 2730 2509 
Q 2541 2772 2181 2772 
Q 1825 2772 1636 2509 
Q 1447 2247 1447 1747 
Q 1447 1247 1636 984 
Q 1825 722 2181 722 
z
" transform="scale(0.015625)"/>
      <path id="DejaVuSans-Bold-69" d="M 538 3500 
L 1656 3500 
L 1656 0 
L 538 0 
L 538 3500 
z
M 538 4863 
L 1656 4863 
L 1656 3950 
L 538 3950 
L 538 4863 
z
" transform="scale(0.015625)"/>
      <path id="DejaVuSans-Bold-73" d="M 3272 3391 
L 3272 2541 
Q 2913 2691 2578 2766 
Q 2244 2841 1947 2841 
Q 1628 2841 1473 2761 
Q 1319 2681 1319 2516 
Q 1319 2381 1436 2309 
Q 1553 2238 1856 2203 
L 2053 2175 
Q 2913 2066 3209 1816 
Q 3506 1566 3506 1031 
Q 3506 472 3093 190 
Q 2681 -91 1863 -91 
Q 1516 -91 1145 -36 
Q 775 19 384 128 
L 384 978 
Q 719 816 1070 734 
Q 1422 653 1784 653 
Q 2113 653 2278 743 
Q 2444 834 2444 1013 
Q 2444 1163 2330 1236 
Q 2216 1309 1875 1350 
L 1678 1375 
Q 931 1469 631 1722 
Q 331 1975 331 2491 
Q 331 3047 712 3315 
Q 1094 3584 1881 3584 
Q 2191 3584 2531 3537 
Q 2872 3491 3272 3391 
z
" transform="scale(0.015625)"/>
      <path id="DejaVuSans-Bold-6c" d="M 538 4863 
L 1656 4863 
L 1656 0 
L 538 0 
L 538 4863 
z
" transform="scale(0.015625)"/>
      <path id="DejaVuSans-Bold-6f" d="M 2203 2784 
Q 1831 2784 1636 2517 
Q 1441 2250 1441 1747 
Q 1441 1244 1636 976 
Q 1831 709 2203 709 
Q 2569 709 2762 976 
Q 2956 1244 2956 1747 
Q 2956 2250 2762 2517 
Q 2569 2784 2203 2784 
z
M 2203 3584 
Q 3106 3584 3614 3096 
Q 4122 2609 4122 1747 
Q 4122 884 3614 396 
Q 3106 -91 2203 -91 
Q 1297 -91 786 396 
Q 275 884 275 1747 
Q 275 2609 786 3096 
Q 1297 3584 2203 3584 
z
" transform="scale(0.015625)"/>
      <path id="DejaVuSans-Bold-63" d="M 3366 3391 
L 3366 2478 
Q 3138 2634 2908 2709 
Q 2678 2784 2431 2784 
Q 1963 2784 1702 2511 
Q 1441 2238 1441 1747 
Q 1441 1256 1702 982 
Q 1963 709 2431 709 
Q 2694 709 2930 787 
Q 3166 866 3366 1019 
L 3366 103 
Q 3103 6 2833 -42 
Q 2563 -91 2291 -91 
Q 1344 -91 809 395 
Q 275 881 275 1747 
Q 275 2613 809 3098 
Q 1344 3584 2291 3584 
Q 2566 3584 2833 3536 
Q 3100 3488 3366 3391 
z
" transform="scale(0.015625)"/>
      <path id="DejaVuSans-Bold-61" d="M 2106 1575 
Q 1756 1575 1579 1456 
Q 1403 1338 1403 1106 
Q 1403 894 1545 773 
Q 1688 653 1941 653 
Q 2256 653 2472 879 
Q 2688 1106 2688 1447 
L 2688 1575 
L 2106 1575 
z
M 3816 1997 
L 3816 0 
L 2688 0 
L 2688 519 
Q 2463 200 2181 54 
Q 1900 -91 1497 -91 
Q 953 -91 614 226 
Q 275 544 275 1050 
Q 275 1666 698 1953 
Q 1122 2241 2028 2241 
L 2688 2241 
L 2688 2328 
Q 2688 2594 2478 2717 
Q 2269 2841 1825 2841 
Q 1466 2841 1156 2769 
Q 847 2697 581 2553 
L 581 3406 
Q 941 3494 1303 3539 
Q 1666 3584 2028 3584 
Q 2975 3584 3395 3211 
Q 3816 2838 3816 1997 
z
" transform="scale(0.015625)"/>
      <path id="DejaVuSans-Bold-7a" d="M 366 3500 
L 3419 3500 
L 3419 2719 
L 1575 800 
L 3419 800 
L 3419 0 
L 288 0 
L 288 781 
L 2131 2700 
L 366 2700 
L 366 3500 
z
" transform="scale(0.015625)"/>
      <path id="DejaVuSans-Bold-6e" d="M 4056 2131 
L 4056 0 
L 2931 0 
L 2931 347 
L 2931 1631 
Q 2931 2084 2911 2256 
Q 2891 2428 2841 2509 
Q 2775 2619 2662 2680 
Q 2550 2741 2406 2741 
Q 2056 2741 1856 2470 
Q 1656 2200 1656 1722 
L 1656 0 
L 538 0 
L 538 3500 
L 1656 3500 
L 1656 2988 
Q 1909 3294 2193 3439 
Q 2478 3584 2822 3584 
Q 3428 3584 3742 3212 
Q 4056 2841 4056 2131 
z
" transform="scale(0.015625)"/>
      <path id="DejaVuSans-Bold-65" d="M 4031 1759 
L 4031 1441 
L 1416 1441 
Q 1456 1047 1700 850 
Q 1944 653 2381 653 
Q 2734 653 3104 758 
Q 3475 863 3866 1075 
L 3866 213 
Q 3469 63 3072 -14 
Q 2675 -91 2278 -91 
Q 1328 -91 801 392 
Q 275 875 275 1747 
Q 275 2603 792 3093 
Q 1309 3584 2216 3584 
Q 3041 3584 3536 3087 
Q 4031 2591 4031 1759 
z
M 2881 2131 
Q 2881 2450 2695 2645 
Q 2509 2841 2209 2841 
Q 1884 2841 1681 2658 
Q 1478 2475 1428 2131 
L 2881 2131 
z
" transform="scale(0.015625)"/>
      <path id="DejaVuSans-Bold-20" transform="scale(0.015625)"/>
      <path id="DejaVuSans-Bold-70" d="M 1656 506 
L 1656 -1331 
L 538 -1331 
L 538 3500 
L 1656 3500 
L 1656 2988 
Q 1888 3294 2169 3439 
Q 2450 3584 2816 3584 
Q 3463 3584 3878 3070 
Q 4294 2556 4294 1747 
Q 4294 938 3878 423 
Q 3463 -91 2816 -91 
Q 2450 -91 2169 54 
Q 1888 200 1656 506 
z
M 2400 2772 
Q 2041 2772 1848 2508 
Q 1656 2244 1656 1747 
Q 1656 1250 1848 986 
Q 2041 722 2400 722 
Q 2759 722 2948 984 
Q 3138 1247 3138 1747 
Q 3138 2247 2948 2509 
Q 2759 2772 2400 2772 
z
" transform="scale(0.015625)"/>
      <path id="DejaVuSans-Bold-67" d="M 2919 594 
Q 2688 288 2409 144 
Q 2131 0 1766 0 
Q 1125 0 706 504 
Q 288 1009 288 1791 
Q 288 2575 706 3076 
Q 1125 3578 1766 3578 
Q 2131 3578 2409 3434 
Q 2688 3291 2919 2981 
L 2919 3500 
L 4044 3500 
L 4044 353 
Q 4044 -491 3511 -936 
Q 2978 -1381 1966 -1381 
Q 1638 -1381 1331 -1331 
Q 1025 -1281 716 -1178 
L 716 -306 
Q 1009 -475 1290 -558 
Q 1572 -641 1856 -641 
Q 2406 -641 2662 -400 
Q 2919 -159 2919 353 
L 2919 594 
z
M 2181 2772 
Q 1834 2772 1640 2515 
Q 1447 2259 1447 1791 
Q 1447 1309 1634 1061 
Q 1822 813 2181 813 
Q 2531 813 2725 1069 
Q 2919 1325 2919 1791 
Q 2919 2259 2725 2515 
Q 2531 2772 2181 2772 
z
" transform="scale(0.015625)"/>
     </defs>
     <use xlink:href="#DejaVuSans-Bold-64"/>
     <use xlink:href="#DejaVuSans-Bold-69" transform="translate(71.582031 0)"/>
     <use xlink:href="#DejaVuSans-Bold-73" transform="translate(105.859375 0)"/>
     <use xlink:href="#DejaVuSans-Bold-6c" transform="translate(165.380859 0)"/>
     <use xlink:href="#DejaVuSans-Bold-6f" transform="translate(199.658203 0)"/>
     <use xlink:href="#DejaVuSans-Bold-63" transform="translate(268.359375 0)"/>
     <use xlink:href="#DejaVuSans-Bold-61" transform="translate(327.636719 0)"/>
     <use xlink:href="#DejaVuSans-Bold-7a" transform="translate(395.117188 0)"/>
     <use xlink:href="#DejaVuSans-Bold-69" transform="translate(453.320312 0)"/>
     <use xlink:href="#DejaVuSans-Bold-6f" transform="translate(487.597656 0)"/>
     <use xlink:href="#DejaVuSans-Bold-6e" transform="translate(556.298828 0)"/>
     <use xlink:href="#DejaVuSans-Bold-65" transform="translate(627.490234 0)"/>
     <use xlink:href="#DejaVuSans-Bold-20" transform="translate(695.3125 0)"/>
     <use xlink:href="#DejaVuSans-Bold-61" transform="translate(730.126953 0)"/>
     <use xlink:href="#DejaVuSans-Bold-20" transform="translate(797.607422 0)"/>
     <use xlink:href="#DejaVuSans-Bold-73" transform="translate(832.421875 0)"/>
     <use xlink:href="#DejaVuSans-Bold-70" transform="translate(891.943359 0)"/>
     <use xlink:href="#DejaVuSans-Bold-69" transform="translate(963.525391 0)"/>
     <use xlink:href="#DejaVuSans-Bold-67" transform="translate(997.802734 0)"/>
     <use xlink:href="#DejaVuSans-Bold-6f" transform="translate(1069.384766 0)"/>
     <use xlink:href="#DejaVuSans-Bold-6c" transform="translate(1138.085938 0)"/>
     <use xlink:href="#DejaVuSans-Bold-6f" transform="translate(1172.363281 0)"/>
    </g>
   </g>
  </g>
  <g id="axes_2">
   <g id="line2d_2">
    <path d="M 486.263477 249.22807 
L 644.766401 249.22807 
" clip-path="url(#pc3c7343407)" style="fill: none; stroke: #1f77b4; stroke-width: 1.2; stroke-linecap: square"/>
   </g>
   <g id="line2d_3">
    <path d="M 644.766401 249.22807 
L 666.560553 233.377778 
" clip-path="url(#pc3c7343407)" style="fill: none; stroke: #ff7f0e; stroke-width: 0.85; stroke-linecap: square"/>
   </g>
   <g id="line2d_4">
    <path d="M 501.321255 219.508772 
L 659.824179 219.508772 
" clip-path="url(#pc3c7343407)" style="fill: none; stroke: #2ca02c; stroke-width: 1.2; stroke-linecap: square"/>
   </g>
   <g id="line2d_5">
    <path d="M 659.824179 219.508772 
L 681.618331 203.65848 
" clip-path="url(#pc3c7343407)" style="fill: none; stroke: #d62728; stroke-width: 0.85; stroke-linecap: square"/>
   </g>
   <g id="line2d_6">
    <path d="M 516.379032 189.789474 
L 674.881956 189.789474 
" clip-path="url(#pc3c7343407)" style="fill: none; stroke: #9467bd; stroke-width: 1.2; stroke-linecap: square"/>
   </g>
   <g id="line2d_7">
    <path d="M 674.881956 189.789474 
L 696.676108 173.939181 
" clip-path="url(#pc3c7343407)" style="fill: none; stroke: #8c564b; stroke-width: 0.85; stroke-linecap: square"/>
   </g>
   <g id="line2d_8">
    <path d="M 531.43681 160.070175 
L 689.939734 160.070175 
" clip-path="url(#pc3c7343407)" style="fill: none; stroke: #e377c2; stroke-width: 1.2; stroke-linecap: square"/>
   </g>
   <g id="line2d_9">
    <path d="M 689.939734 160.070175 
L 711.733886 144.219883 
" clip-path="url(#pc3c7343407)" style="fill: none; stroke: #7f7f7f; stroke-width: 0.85; stroke-linecap: square"/>
   </g>
   <g id="line2d_10">
    <path d="M 575.421372 259.134503 
L 575.421372 142.238596 
" clip-path="url(#pc3c7343407)" style="fill: none; stroke-dasharray: 2.96,1.28; stroke-dashoffset: 0; stroke: #bcbd22; stroke-width: 0.8"/>
   </g>
   <g id="patch_7">
    <path d="M 482.322369 274.984795 
Q 540.750942 274.984795 597.726071 274.984795 
" style="fill: none; stroke: #000000; stroke-width: 1.3; stroke-linecap: round"/>
    <path d="M 592.926071 272.584795 
L 597.726071 274.984795 
L 592.926071 277.384795 
z
" style="fill: #1f77b4; stroke: #000000; stroke-width: 1.3; stroke-linecap: round"/>
   </g>
   <g id="text_5">
    <!-- $\mathbf{B}_d$ -->
    <g transform="translate(535.123857 285.393379) scale(0.09 -0.09)">
     <use xlink:href="#DejaVuSans-Bold-42" transform="translate(0 0.09375)"/>
     <use xlink:href="#DejaVuSans-Oblique-64" transform="translate(77.177734 -16.3125) scale(0.7)"/>
    </g>
   </g>
   <g id="patch_8">
    <path d="M 626.934822 263.079421 
Q 626.934822 205.640794 626.934822 149.655612 
" style="fill: none; stroke: #000000; stroke-width: 1.3; stroke-linecap: round"/>
    <path d="M 624.534822 154.455612 
L 626.934822 149.655612 
L 629.334822 154.455612 
z
" style="fill: #1f77b4; stroke: #000000; stroke-width: 1.3; stroke-linecap: round"/>
   </g>
   <g id="text_6">
    <!-- $\mathbf{L}_d$ -->
    <g transform="translate(632.593769 208.123204) scale(0.09 -0.09)">
     <use xlink:href="#DejaVuSans-Bold-4c" transform="translate(0 0.09375)"/>
     <use xlink:href="#DejaVuSans-Oblique-64" transform="translate(64.677734 -16.3125) scale(0.7)"/>
    </g>
   </g>
   <g id="text_7">
    <!-- ∥ -->
    <g transform="translate(569.64757 269.040936) scale(0.12 -0.12)">
     <defs>
      <path id="DejaVuSans-2225" d="M 850 4934 
L 1350 4934 
L 1350 -1369 
L 850 -1369 
L 850 4934 
z
M 1850 4934 
L 2350 4934 
L 2350 -1369 
L 1850 -1369 
L 1850 4934 
z
" transform="scale(0.015625)"/>
     </defs>
     <use xlink:href="#DejaVuSans-2225"/>
    </g>
   </g>
   <g id="text_8">
    <!-- dislocazione a vite -->
    <g transform="translate(509.244465 76.8) scale(0.115 -0.115)">
     <defs>
      <path id="DejaVuSans-Bold-76" d="M 97 3500 
L 1216 3500 
L 2088 1081 
L 2956 3500 
L 4078 3500 
L 2700 0 
L 1472 0 
L 97 3500 
z
" transform="scale(0.015625)"/>
      <path id="DejaVuSans-Bold-74" d="M 1759 4494 
L 1759 3500 
L 2913 3500 
L 2913 2700 
L 1759 2700 
L 1759 1216 
Q 1759 972 1856 886 
Q 1953 800 2241 800 
L 2816 800 
L 2816 0 
L 1856 0 
Q 1194 0 917 276 
Q 641 553 641 1216 
L 641 2700 
L 84 2700 
L 84 3500 
L 641 3500 
L 641 4494 
L 1759 4494 
z
" transform="scale(0.015625)"/>
     </defs>
     <use xlink:href="#DejaVuSans-Bold-64"/>
     <use xlink:href="#DejaVuSans-Bold-69" transform="translate(71.582031 0)"/>
     <use xlink:href="#DejaVuSans-Bold-73" transform="translate(105.859375 0)"/>
     <use xlink:href="#DejaVuSans-Bold-6c" transform="translate(165.380859 0)"/>
     <use xlink:href="#DejaVuSans-Bold-6f" transform="translate(199.658203 0)"/>
     <use xlink:href="#DejaVuSans-Bold-63" transform="translate(268.359375 0)"/>
     <use xlink:href="#DejaVuSans-Bold-61" transform="translate(327.636719 0)"/>
     <use xlink:href="#DejaVuSans-Bold-7a" transform="translate(395.117188 0)"/>
     <use xlink:href="#DejaVuSans-Bold-69" transform="translate(453.320312 0)"/>
     <use xlink:href="#DejaVuSans-Bold-6f" transform="translate(487.597656 0)"/>
     <use xlink:href="#DejaVuSans-Bold-6e" transform="translate(556.298828 0)"/>
     <use xlink:href="#DejaVuSans-Bold-65" transform="translate(627.490234 0)"/>
     <use xlink:href="#DejaVuSans-Bold-20" transform="translate(695.3125 0)"/>
     <use xlink:href="#DejaVuSans-Bold-61" transform="translate(730.126953 0)"/>
     <use xlink:href="#DejaVuSans-Bold-20" transform="translate(797.607422 0)"/>
     <use xlink:href="#DejaVuSans-Bold-76" transform="translate(832.421875 0)"/>
     <use xlink:href="#DejaVuSans-Bold-69" transform="translate(897.607422 0)"/>
     <use xlink:href="#DejaVuSans-Bold-74" transform="translate(931.884766 0)"/>
     <use xlink:href="#DejaVuSans-Bold-65" transform="translate(979.6875 0)"/>
    </g>
   </g>
  </g>
  <g id="axes_3">
   <g id="PathCollection_1">
    <defs>
     <path id="m01b2d9b0b8" d="M 0 2 
C 0.530406 2 1.03916 1.789267 1.414214 1.414214 
C 1.789267 1.03916 2 0.530406 2 0 
C 2 -0.530406 1.789267 -1.03916 1.414214 -1.414214 
C 1.03916 -1.789267 0.530406 -2 0 -2 
C -0.530406 -2 -1.03916 -1.789267 -1.414214 -1.414214 
C -1.789267 -1.03916 -2 -0.530406 -2 0 
C -2 0.530406 -1.789267 1.03916 -1.414214 1.414214 
C -1.03916 1.789267 -0.530406 2 0 2 
z
" style="stroke: #1f77b4"/>
    </defs>
    <g clip-path="url(#p805e0419a5)">
     <use xlink:href="#m01b2d9b0b8" x="29.894737" y="614.505263" style="fill: #1f77b4; stroke: #1f77b4"/>
    </g>
   </g>
   <g id="PathCollection_2">
    <defs>
     <path id="m4820fd589c" d="M 0 2 
C 0.530406 2 1.03916 1.789267 1.414214 1.414214 
C 1.789267 1.03916 2 0.530406 2 0 
C 2 -0.530406 1.789267 -1.03916 1.414214 -1.414214 
C 1.03916 -1.789267 0.530406 -2 0 -2 
C -0.530406 -2 -1.03916 -1.789267 -1.414214 -1.414214 
C -1.789267 -1.03916 -2 -0.530406 -2 0 
C -2 0.530406 -1.789267 1.03916 -1.414214 1.414214 
C -1.03916 1.789267 -0.530406 2 0 2 
z
" style="stroke: #ff7f0e"/>
    </defs>
    <g clip-path="url(#p805e0419a5)">
     <use xlink:href="#m4820fd589c" x="29.894737" y="586.136842" style="fill: #ff7f0e; stroke: #ff7f0e"/>
    </g>
   </g>
   <g id="PathCollection_3">
    <defs>
     <path id="m2fdcaf0f88" d="M 0 2 
C 0.530406 2 1.03916 1.789267 1.414214 1.414214 
C 1.789267 1.03916 2 0.530406 2 0 
C 2 -0.530406 1.789267 -1.03916 1.414214 -1.414214 
C 1.03916 -1.789267 0.530406 -2 0 -2 
C -0.530406 -2 -1.03916 -1.789267 -1.414214 -1.414214 
C -1.789267 -1.03916 -2 -0.530406 -2 0 
C -2 0.530406 -1.789267 1.03916 -1.414214 1.414214 
C -1.03916 1.789267 -0.530406 2 0 2 
z
" style="stroke: #2ca02c"/>
    </defs>
    <g clip-path="url(#p805e0419a5)">
     <use xlink:href="#m2fdcaf0f88" x="29.894737" y="557.768421" style="fill: #2ca02c; stroke: #2ca02c"/>
    </g>
   </g>
   <g id="PathCollection_4">
    <defs>
     <path id="m6829a80794" d="M 0 2 
C 0.530406 2 1.03916 1.789267 1.414214 1.414214 
C 1.789267 1.03916 2 0.530406 2 0 
C 2 -0.530406 1.789267 -1.03916 1.414214 -1.414214 
C 1.03916 -1.789267 0.530406 -2 0 -2 
C -0.530406 -2 -1.03916 -1.789267 -1.414214 -1.414214 
C -1.789267 -1.03916 -2 -0.530406 -2 0 
C -2 0.530406 -1.789267 1.03916 -1.414214 1.414214 
C -1.03916 1.789267 -0.530406 2 0 2 
z
" style="stroke: #d62728"/>
    </defs>
    <g clip-path="url(#p805e0419a5)">
     <use xlink:href="#m6829a80794" x="29.894737" y="529.4" style="fill: #d62728; stroke: #d62728"/>
    </g>
   </g>
   <g id="PathCollection_5">
    <defs>
     <path id="mbc86fd42e8" d="M 0 2 
C 0.530406 2 1.03916 1.789267 1.414214 1.414214 
C 1.789267 1.03916 2 0.530406 2 0 
C 2 -0.530406 1.789267 -1.03916 1.414214 -1.414214 
C 1.03916 -1.789267 0.530406 -2 0 -2 
C -0.530406 -2 -1.03916 -1.789267 -1.414214 -1.414214 
C -1.789267 -1.03916 -2 -0.530406 -2 0 
C -2 0.530406 -1.789267 1.03916 -1.414214 1.414214 
C -1.03916 1.789267 -0.530406 2 0 2 
z
" style="stroke: #9467bd"/>
    </defs>
    <g clip-path="url(#p805e0419a5)">
     <use xlink:href="#mbc86fd42e8" x="29.894737" y="501.031579" style="fill: #9467bd; stroke: #9467bd"/>
    </g>
   </g>
   <g id="PathCollection_6">
    <defs>
     <path id="me1e64d1733" d="M 0 2 
C 0.530406 2 1.03916 1.789267 1.414214 1.414214 
C 1.789267 1.03916 2 0.530406 2 0 
C 2 -0.530406 1.789267 -1.03916 1.414214 -1.414214 
C 1.03916 -1.789267 0.530406 -2 0 -2 
C -0.530406 -2 -1.03916 -1.789267 -1.414214 -1.414214 
C -1.789267 -1.03916 -2 -0.530406 -2 0 
C -2 0.530406 -1.789267 1.03916 -1.414214 1.414214 
C -1.03916 1.789267 -0.530406 2 0 2 
z
" style="stroke: #8c564b"/>
    </defs>
    <g clip-path="url(#p805e0419a5)">
     <use xlink:href="#me1e64d1733" x="29.894737" y="472.663158" style="fill: #8c564b; stroke: #8c564b"/>
    </g>
   </g>
   <g id="PathCollection_7">
    <defs>
     <path id="m185374b4d5" d="M 0 2 
C 0.530406 2 1.03916 1.789267 1.414214 1.414214 
C 1.789267 1.03916 2 0.530406 2 0 
C 2 -0.530406 1.789267 -1.03916 1.414214 -1.414214 
C 1.03916 -1.789267 0.530406 -2 0 -2 
C -0.530406 -2 -1.03916 -1.789267 -1.414214 -1.414214 
C -1.789267 -1.03916 -2 -0.530406 -2 0 
C -2 0.530406 -1.789267 1.03916 -1.414214 1.414214 
C -1.03916 1.789267 -0.530406 2 0 2 
z
" style="stroke: #e377c2"/>
    </defs>
    <g clip-path="url(#p805e0419a5)">
     <use xlink:href="#m185374b4d5" x="29.894737" y="444.294737" style="fill: #e377c2; stroke: #e377c2"/>
    </g>
   </g>
   <g id="PathCollection_8">
    <defs>
     <path id="mecad6162cd" d="M 0 2 
C 0.530406 2 1.03916 1.789267 1.414214 1.414214 
C 1.789267 1.03916 2 0.530406 2 0 
C 2 -0.530406 1.789267 -1.03916 1.414214 -1.414214 
C 1.03916 -1.789267 0.530406 -2 0 -2 
C -0.530406 -2 -1.03916 -1.789267 -1.414214 -1.414214 
C -1.789267 -1.03916 -2 -0.530406 -2 0 
C -2 0.530406 -1.789267 1.03916 -1.414214 1.414214 
C -1.03916 1.789267 -0.530406 2 0 2 
z
" style="stroke: #7f7f7f"/>
    </defs>
    <g clip-path="url(#p805e0419a5)">
     <use xlink:href="#mecad6162cd" x="29.894737" y="415.926316" style="fill: #7f7f7f; stroke: #7f7f7f"/>
    </g>
   </g>
   <g id="PathCollection_9">
    <defs>
     <path id="m8a5c51c0e2" d="M 0 2 
C 0.530406 2 1.03916 1.789267 1.414214 1.414214 
C 1.789267 1.03916 2 0.530406 2 0 
C 2 -0.530406 1.789267 -1.03916 1.414214 -1.414214 
C 1.03916 -1.789267 0.530406 -2 0 -2 
C -0.530406 -2 -1.03916 -1.789267 -1.414214 -1.414214 
C -1.789267 -1.03916 -2 -0.530406 -2 0 
C -2 0.530406 -1.789267 1.03916 -1.414214 1.414214 
C -1.03916 1.789267 -0.530406 2 0 2 
z
" style="stroke: #bcbd22"/>
    </defs>
    <g clip-path="url(#p805e0419a5)">
     <use xlink:href="#m8a5c51c0e2" x="29.894737" y="387.557895" style="fill: #bcbd22; stroke: #bcbd22"/>
    </g>
   </g>
   <g id="PathCollection_10">
    <defs>
     <path id="m36430f338e" d="M 0 2 
C 0.530406 2 1.03916 1.789267 1.414214 1.414214 
C 1.789267 1.03916 2 0.530406 2 0 
C 2 -0.530406 1.789267 -1.03916 1.414214 -1.414214 
C 1.03916 -1.789267 0.530406 -2 0 -2 
C -0.530406 -2 -1.03916 -1.789267 -1.414214 -1.414214 
C -1.789267 -1.03916 -2 -0.530406 -2 0 
C -2 0.530406 -1.789267 1.03916 -1.414214 1.414214 
C -1.03916 1.789267 -0.530406 2 0 2 
z
" style="stroke: #17becf"/>
    </defs>
    <g clip-path="url(#p805e0419a5)">
     <use xlink:href="#m36430f338e" x="58.263158" y="614.505263" style="fill: #17becf; stroke: #17becf"/>
    </g>
   </g>
   <g id="PathCollection_11">
    <g clip-path="url(#p805e0419a5)">
     <use xlink:href="#m01b2d9b0b8" x="58.263158" y="586.136842" style="fill: #1f77b4; stroke: #1f77b4"/>
    </g>
   </g>
   <g id="PathCollection_12">
    <g clip-path="url(#p805e0419a5)">
     <use xlink:href="#m4820fd589c" x="58.263158" y="557.768421" style="fill: #ff7f0e; stroke: #ff7f0e"/>
    </g>
   </g>
   <g id="PathCollection_13">
    <g clip-path="url(#p805e0419a5)">
     <use xlink:href="#m2fdcaf0f88" x="58.263158" y="529.4" style="fill: #2ca02c; stroke: #2ca02c"/>
    </g>
   </g>
   <g id="PathCollection_14">
    <g clip-path="url(#p805e0419a5)">
     <use xlink:href="#m6829a80794" x="58.263158" y="501.031579" style="fill: #d62728; stroke: #d62728"/>
    </g>
   </g>
   <g id="PathCollection_15">
    <g clip-path="url(#p805e0419a5)">
     <use xlink:href="#mbc86fd42e8" x="58.263158" y="472.663158" style="fill: #9467bd; stroke: #9467bd"/>
    </g>
   </g>
   <g id="PathCollection_16">
    <g clip-path="url(#p805e0419a5)">
     <use xlink:href="#me1e64d1733" x="58.263158" y="444.294737" style="fill: #8c564b; stroke: #8c564b"/>
    </g>
   </g>
   <g id="PathCollection_17">
    <g clip-path="url(#p805e0419a5)">
     <use xlink:href="#m185374b4d5" x="58.263158" y="415.926316" style="fill: #e377c2; stroke: #e377c2"/>
    </g>
   </g>
   <g id="PathCollection_18">
    <g clip-path="url(#p805e0419a5)">
     <use xlink:href="#mecad6162cd" x="58.263158" y="387.557895" style="fill: #7f7f7f; stroke: #7f7f7f"/>
    </g>
   </g>
   <g id="PathCollection_19">
    <g clip-path="url(#p805e0419a5)">
     <use xlink:href="#m8a5c51c0e2" x="86.631579" y="614.505263" style="fill: #bcbd22; stroke: #bcbd22"/>
    </g>
   </g>
   <g id="PathCollection_20">
    <g clip-path="url(#p805e0419a5)">
     <use xlink:href="#m36430f338e" x="86.631579" y="586.136842" style="fill: #17becf; stroke: #17becf"/>
    </g>
   </g>
   <g id="PathCollection_21">
    <g clip-path="url(#p805e0419a5)">
     <use xlink:href="#m01b2d9b0b8" x="86.631579" y="557.768421" style="fill: #1f77b4; stroke: #1f77b4"/>
    </g>
   </g>
   <g id="PathCollection_22">
    <g clip-path="url(#p805e0419a5)">
     <use xlink:href="#m4820fd589c" x="86.631579" y="529.4" style="fill: #ff7f0e; stroke: #ff7f0e"/>
    </g>
   </g>
   <g id="PathCollection_23">
    <g clip-path="url(#p805e0419a5)">
     <use xlink:href="#m2fdcaf0f88" x="86.631579" y="501.031579" style="fill: #2ca02c; stroke: #2ca02c"/>
    </g>
   </g>
   <g id="PathCollection_24">
    <g clip-path="url(#p805e0419a5)">
     <use xlink:href="#m6829a80794" x="86.631579" y="472.663158" style="fill: #d62728; stroke: #d62728"/>
    </g>
   </g>
   <g id="PathCollection_25">
    <g clip-path="url(#p805e0419a5)">
     <use xlink:href="#mbc86fd42e8" x="86.631579" y="444.294737" style="fill: #9467bd; stroke: #9467bd"/>
    </g>
   </g>
   <g id="PathCollection_26">
    <g clip-path="url(#p805e0419a5)">
     <use xlink:href="#me1e64d1733" x="86.631579" y="415.926316" style="fill: #8c564b; stroke: #8c564b"/>
    </g>
   </g>
   <g id="PathCollection_27">
    <g clip-path="url(#p805e0419a5)">
     <use xlink:href="#m185374b4d5" x="86.631579" y="387.557895" style="fill: #e377c2; stroke: #e377c2"/>
    </g>
   </g>
   <g id="PathCollection_28">
    <g clip-path="url(#p805e0419a5)">
     <use xlink:href="#mecad6162cd" x="115" y="614.505263" style="fill: #7f7f7f; stroke: #7f7f7f"/>
    </g>
   </g>
   <g id="PathCollection_29">
    <g clip-path="url(#p805e0419a5)">
     <use xlink:href="#m8a5c51c0e2" x="115" y="586.136842" style="fill: #bcbd22; stroke: #bcbd22"/>
    </g>
   </g>
   <g id="PathCollection_30">
    <g clip-path="url(#p805e0419a5)">
     <use xlink:href="#m36430f338e" x="115" y="557.768421" style="fill: #17becf; stroke: #17becf"/>
    </g>
   </g>
   <g id="PathCollection_31">
    <g clip-path="url(#p805e0419a5)">
     <use xlink:href="#m01b2d9b0b8" x="115" y="529.4" style="fill: #1f77b4; stroke: #1f77b4"/>
    </g>
   </g>
   <g id="PathCollection_32">
    <g clip-path="url(#p805e0419a5)">
     <use xlink:href="#m4820fd589c" x="115" y="501.031579" style="fill: #ff7f0e; stroke: #ff7f0e"/>
    </g>
   </g>
   <g id="PathCollection_33">
    <g clip-path="url(#p805e0419a5)">
     <use xlink:href="#m2fdcaf0f88" x="115" y="472.663158" style="fill: #2ca02c; stroke: #2ca02c"/>
    </g>
   </g>
   <g id="PathCollection_34">
    <g clip-path="url(#p805e0419a5)">
     <use xlink:href="#m6829a80794" x="115" y="444.294737" style="fill: #d62728; stroke: #d62728"/>
    </g>
   </g>
   <g id="PathCollection_35">
    <g clip-path="url(#p805e0419a5)">
     <use xlink:href="#mbc86fd42e8" x="115" y="415.926316" style="fill: #9467bd; stroke: #9467bd"/>
    </g>
   </g>
   <g id="PathCollection_36">
    <g clip-path="url(#p805e0419a5)">
     <use xlink:href="#me1e64d1733" x="115" y="387.557895" style="fill: #8c564b; stroke: #8c564b"/>
    </g>
   </g>
   <g id="PathCollection_37">
    <g clip-path="url(#p805e0419a5)">
     <use xlink:href="#m185374b4d5" x="143.368421" y="614.505263" style="fill: #e377c2; stroke: #e377c2"/>
    </g>
   </g>
   <g id="PathCollection_38">
    <g clip-path="url(#p805e0419a5)">
     <use xlink:href="#mecad6162cd" x="143.368421" y="586.136842" style="fill: #7f7f7f; stroke: #7f7f7f"/>
    </g>
   </g>
   <g id="PathCollection_39">
    <g clip-path="url(#p805e0419a5)">
     <use xlink:href="#m8a5c51c0e2" x="143.368421" y="557.768421" style="fill: #bcbd22; stroke: #bcbd22"/>
    </g>
   </g>
   <g id="PathCollection_40">
    <g clip-path="url(#p805e0419a5)">
     <use xlink:href="#m36430f338e" x="143.368421" y="529.4" style="fill: #17becf; stroke: #17becf"/>
    </g>
   </g>
   <g id="PathCollection_41">
    <g clip-path="url(#p805e0419a5)">
     <use xlink:href="#m01b2d9b0b8" x="143.368421" y="501.031579" style="fill: #1f77b4; stroke: #1f77b4"/>
    </g>
   </g>
   <g id="PathCollection_42">
    <g clip-path="url(#p805e0419a5)">
     <use xlink:href="#m4820fd589c" x="143.368421" y="472.663158" style="fill: #ff7f0e; stroke: #ff7f0e"/>
    </g>
   </g>
   <g id="PathCollection_43">
    <g clip-path="url(#p805e0419a5)">
     <use xlink:href="#m2fdcaf0f88" x="143.368421" y="444.294737" style="fill: #2ca02c; stroke: #2ca02c"/>
    </g>
   </g>
   <g id="PathCollection_44">
    <g clip-path="url(#p805e0419a5)">
     <use xlink:href="#m6829a80794" x="143.368421" y="415.926316" style="fill: #d62728; stroke: #d62728"/>
    </g>
   </g>
   <g id="PathCollection_45">
    <g clip-path="url(#p805e0419a5)">
     <use xlink:href="#mbc86fd42e8" x="143.368421" y="387.557895" style="fill: #9467bd; stroke: #9467bd"/>
    </g>
   </g>
   <g id="PathCollection_46">
    <g clip-path="url(#p805e0419a5)">
     <use xlink:href="#me1e64d1733" x="171.736842" y="614.505263" style="fill: #8c564b; stroke: #8c564b"/>
    </g>
   </g>
   <g id="PathCollection_47">
    <g clip-path="url(#p805e0419a5)">
     <use xlink:href="#m185374b4d5" x="171.736842" y="586.136842" style="fill: #e377c2; stroke: #e377c2"/>
    </g>
   </g>
   <g id="PathCollection_48">
    <g clip-path="url(#p805e0419a5)">
     <use xlink:href="#mecad6162cd" x="171.736842" y="557.768421" style="fill: #7f7f7f; stroke: #7f7f7f"/>
    </g>
   </g>
   <g id="PathCollection_49">
    <g clip-path="url(#p805e0419a5)">
     <use xlink:href="#m8a5c51c0e2" x="171.736842" y="529.4" style="fill: #bcbd22; stroke: #bcbd22"/>
    </g>
   </g>
   <g id="PathCollection_50">
    <g clip-path="url(#p805e0419a5)">
     <use xlink:href="#m36430f338e" x="171.736842" y="501.031579" style="fill: #17becf; stroke: #17becf"/>
    </g>
   </g>
   <g id="PathCollection_51">
    <g clip-path="url(#p805e0419a5)">
     <use xlink:href="#m01b2d9b0b8" x="171.736842" y="472.663158" style="fill: #1f77b4; stroke: #1f77b4"/>
    </g>
   </g>
   <g id="PathCollection_52">
    <g clip-path="url(#p805e0419a5)">
     <use xlink:href="#m4820fd589c" x="171.736842" y="444.294737" style="fill: #ff7f0e; stroke: #ff7f0e"/>
    </g>
   </g>
   <g id="PathCollection_53">
    <g clip-path="url(#p805e0419a5)">
     <use xlink:href="#m2fdcaf0f88" x="171.736842" y="415.926316" style="fill: #2ca02c; stroke: #2ca02c"/>
    </g>
   </g>
   <g id="PathCollection_54">
    <g clip-path="url(#p805e0419a5)">
     <use xlink:href="#m6829a80794" x="171.736842" y="387.557895" style="fill: #d62728; stroke: #d62728"/>
    </g>
   </g>
   <g id="PathCollection_55">
    <g clip-path="url(#p805e0419a5)">
     <use xlink:href="#mbc86fd42e8" x="200.105263" y="614.505263" style="fill: #9467bd; stroke: #9467bd"/>
    </g>
   </g>
   <g id="PathCollection_56">
    <g clip-path="url(#p805e0419a5)">
     <use xlink:href="#me1e64d1733" x="200.105263" y="586.136842" style="fill: #8c564b; stroke: #8c564b"/>
    </g>
   </g>
   <g id="PathCollection_57">
    <g clip-path="url(#p805e0419a5)">
     <use xlink:href="#m185374b4d5" x="200.105263" y="557.768421" style="fill: #e377c2; stroke: #e377c2"/>
    </g>
   </g>
   <g id="PathCollection_58">
    <g clip-path="url(#p805e0419a5)">
     <use xlink:href="#mecad6162cd" x="200.105263" y="529.4" style="fill: #7f7f7f; stroke: #7f7f7f"/>
    </g>
   </g>
   <g id="PathCollection_59">
    <g clip-path="url(#p805e0419a5)">
     <use xlink:href="#m8a5c51c0e2" x="200.105263" y="501.031579" style="fill: #bcbd22; stroke: #bcbd22"/>
    </g>
   </g>
   <g id="PathCollection_60">
    <g clip-path="url(#p805e0419a5)">
     <use xlink:href="#m36430f338e" x="200.105263" y="472.663158" style="fill: #17becf; stroke: #17becf"/>
    </g>
   </g>
   <g id="PathCollection_61">
    <g clip-path="url(#p805e0419a5)">
     <use xlink:href="#m01b2d9b0b8" x="200.105263" y="444.294737" style="fill: #1f77b4; stroke: #1f77b4"/>
    </g>
   </g>
   <g id="PathCollection_62">
    <g clip-path="url(#p805e0419a5)">
     <use xlink:href="#m4820fd589c" x="200.105263" y="415.926316" style="fill: #ff7f0e; stroke: #ff7f0e"/>
    </g>
   </g>
   <g id="PathCollection_63">
    <g clip-path="url(#p805e0419a5)">
     <use xlink:href="#m2fdcaf0f88" x="200.105263" y="387.557895" style="fill: #2ca02c; stroke: #2ca02c"/>
    </g>
   </g>
   <g id="PathCollection_64">
    <g clip-path="url(#p805e0419a5)">
     <use xlink:href="#m6829a80794" x="228.473684" y="614.505263" style="fill: #d62728; stroke: #d62728"/>
    </g>
   </g>
   <g id="PathCollection_65">
    <g clip-path="url(#p805e0419a5)">
     <use xlink:href="#mbc86fd42e8" x="228.473684" y="586.136842" style="fill: #9467bd; stroke: #9467bd"/>
    </g>
   </g>
   <g id="PathCollection_66">
    <g clip-path="url(#p805e0419a5)">
     <use xlink:href="#me1e64d1733" x="228.473684" y="557.768421" style="fill: #8c564b; stroke: #8c564b"/>
    </g>
   </g>
   <g id="PathCollection_67">
    <g clip-path="url(#p805e0419a5)">
     <use xlink:href="#m185374b4d5" x="228.473684" y="529.4" style="fill: #e377c2; stroke: #e377c2"/>
    </g>
   </g>
   <g id="PathCollection_68">
    <g clip-path="url(#p805e0419a5)">
     <use xlink:href="#mecad6162cd" x="228.473684" y="501.031579" style="fill: #7f7f7f; stroke: #7f7f7f"/>
    </g>
   </g>
   <g id="PathCollection_69">
    <g clip-path="url(#p805e0419a5)">
     <use xlink:href="#m8a5c51c0e2" x="228.473684" y="472.663158" style="fill: #bcbd22; stroke: #bcbd22"/>
    </g>
   </g>
   <g id="PathCollection_70">
    <g clip-path="url(#p805e0419a5)">
     <use xlink:href="#m36430f338e" x="228.473684" y="444.294737" style="fill: #17becf; stroke: #17becf"/>
    </g>
   </g>
   <g id="PathCollection_71">
    <g clip-path="url(#p805e0419a5)">
     <use xlink:href="#m01b2d9b0b8" x="228.473684" y="415.926316" style="fill: #1f77b4; stroke: #1f77b4"/>
    </g>
   </g>
   <g id="PathCollection_72">
    <g clip-path="url(#p805e0419a5)">
     <use xlink:href="#m4820fd589c" x="228.473684" y="387.557895" style="fill: #ff7f0e; stroke: #ff7f0e"/>
    </g>
   </g>
   <g id="PathCollection_73">
    <g clip-path="url(#p805e0419a5)">
     <use xlink:href="#m2fdcaf0f88" x="256.842105" y="614.505263" style="fill: #2ca02c; stroke: #2ca02c"/>
    </g>
   </g>
   <g id="PathCollection_74">
    <g clip-path="url(#p805e0419a5)">
     <use xlink:href="#m6829a80794" x="256.842105" y="586.136842" style="fill: #d62728; stroke: #d62728"/>
    </g>
   </g>
   <g id="PathCollection_75">
    <g clip-path="url(#p805e0419a5)">
     <use xlink:href="#mbc86fd42e8" x="256.842105" y="557.768421" style="fill: #9467bd; stroke: #9467bd"/>
    </g>
   </g>
   <g id="PathCollection_76">
    <g clip-path="url(#p805e0419a5)">
     <use xlink:href="#me1e64d1733" x="256.842105" y="529.4" style="fill: #8c564b; stroke: #8c564b"/>
    </g>
   </g>
   <g id="PathCollection_77">
    <g clip-path="url(#p805e0419a5)">
     <use xlink:href="#m185374b4d5" x="256.842105" y="501.031579" style="fill: #e377c2; stroke: #e377c2"/>
    </g>
   </g>
   <g id="PathCollection_78">
    <g clip-path="url(#p805e0419a5)">
     <use xlink:href="#mecad6162cd" x="256.842105" y="472.663158" style="fill: #7f7f7f; stroke: #7f7f7f"/>
    </g>
   </g>
   <g id="PathCollection_79">
    <g clip-path="url(#p805e0419a5)">
     <use xlink:href="#m8a5c51c0e2" x="256.842105" y="444.294737" style="fill: #bcbd22; stroke: #bcbd22"/>
    </g>
   </g>
   <g id="PathCollection_80">
    <g clip-path="url(#p805e0419a5)">
     <use xlink:href="#m36430f338e" x="256.842105" y="415.926316" style="fill: #17becf; stroke: #17becf"/>
    </g>
   </g>
   <g id="PathCollection_81">
    <g clip-path="url(#p805e0419a5)">
     <use xlink:href="#m01b2d9b0b8" x="256.842105" y="387.557895" style="fill: #1f77b4; stroke: #1f77b4"/>
    </g>
   </g>
   <g id="line2d_11">
    <path d="M 29.894737 614.505263 
L 29.894737 387.557895 
" clip-path="url(#p805e0419a5)" style="fill: none; stroke: #bfbfbf; stroke-width: 0.35; stroke-linecap: square"/>
   </g>
   <g id="line2d_12">
    <path d="M 29.894737 614.505263 
L 256.842105 614.505263 
" clip-path="url(#p805e0419a5)" style="fill: none; stroke: #bfbfbf; stroke-width: 0.35; stroke-linecap: square"/>
   </g>
   <g id="line2d_13">
    <path d="M 58.263158 614.505263 
L 58.263158 387.557895 
" clip-path="url(#p805e0419a5)" style="fill: none; stroke: #bfbfbf; stroke-width: 0.35; stroke-linecap: square"/>
   </g>
   <g id="line2d_14">
    <path d="M 29.894737 586.136842 
L 256.842105 586.136842 
" clip-path="url(#p805e0419a5)" style="fill: none; stroke: #bfbfbf; stroke-width: 0.35; stroke-linecap: square"/>
   </g>
   <g id="line2d_15">
    <path d="M 86.631579 614.505263 
L 86.631579 387.557895 
" clip-path="url(#p805e0419a5)" style="fill: none; stroke: #bfbfbf; stroke-width: 0.35; stroke-linecap: square"/>
   </g>
   <g id="line2d_16">
    <path d="M 29.894737 557.768421 
L 256.842105 557.768421 
" clip-path="url(#p805e0419a5)" style="fill: none; stroke: #bfbfbf; stroke-width: 0.35; stroke-linecap: square"/>
   </g>
   <g id="line2d_17">
    <path d="M 115 614.505263 
L 115 387.557895 
" clip-path="url(#p805e0419a5)" style="fill: none; stroke: #bfbfbf; stroke-width: 0.35; stroke-linecap: square"/>
   </g>
   <g id="line2d_18">
    <path d="M 29.894737 529.4 
L 256.842105 529.4 
" clip-path="url(#p805e0419a5)" style="fill: none; stroke: #bfbfbf; stroke-width: 0.35; stroke-linecap: square"/>
   </g>
   <g id="line2d_19">
    <path d="M 143.368421 614.505263 
L 143.368421 387.557895 
" clip-path="url(#p805e0419a5)" style="fill: none; stroke: #bfbfbf; stroke-width: 0.35; stroke-linecap: square"/>
   </g>
   <g id="line2d_20">
    <path d="M 29.894737 501.031579 
L 256.842105 501.031579 
" clip-path="url(#p805e0419a5)" style="fill: none; stroke: #bfbfbf; stroke-width: 0.35; stroke-linecap: square"/>
   </g>
   <g id="line2d_21">
    <path d="M 171.736842 614.505263 
L 171.736842 387.557895 
" clip-path="url(#p805e0419a5)" style="fill: none; stroke: #bfbfbf; stroke-width: 0.35; stroke-linecap: square"/>
   </g>
   <g id="line2d_22">
    <path d="M 29.894737 472.663158 
L 256.842105 472.663158 
" clip-path="url(#p805e0419a5)" style="fill: none; stroke: #bfbfbf; stroke-width: 0.35; stroke-linecap: square"/>
   </g>
   <g id="line2d_23">
    <path d="M 200.105263 614.505263 
L 200.105263 387.557895 
" clip-path="url(#p805e0419a5)" style="fill: none; stroke: #bfbfbf; stroke-width: 0.35; stroke-linecap: square"/>
   </g>
   <g id="line2d_24">
    <path d="M 29.894737 444.294737 
L 256.842105 444.294737 
" clip-path="url(#p805e0419a5)" style="fill: none; stroke: #bfbfbf; stroke-width: 0.35; stroke-linecap: square"/>
   </g>
   <g id="line2d_25">
    <path d="M 228.473684 614.505263 
L 228.473684 387.557895 
" clip-path="url(#p805e0419a5)" style="fill: none; stroke: #bfbfbf; stroke-width: 0.35; stroke-linecap: square"/>
   </g>
   <g id="line2d_26">
    <path d="M 29.894737 415.926316 
L 256.842105 415.926316 
" clip-path="url(#p805e0419a5)" style="fill: none; stroke: #bfbfbf; stroke-width: 0.35; stroke-linecap: square"/>
   </g>
   <g id="line2d_27">
    <path d="M 256.842105 614.505263 
L 256.842105 387.557895 
" clip-path="url(#p805e0419a5)" style="fill: none; stroke: #bfbfbf; stroke-width: 0.35; stroke-linecap: square"/>
   </g>
   <g id="line2d_28">
    <path d="M 29.894737 387.557895 
L 256.842105 387.557895 
" clip-path="url(#p805e0419a5)" style="fill: none; stroke: #bfbfbf; stroke-width: 0.35; stroke-linecap: square"/>
   </g>
   <g id="line2d_29">
    <path d="M 86.631579 557.768421 
L 200.105263 557.768421 
L 200.105263 444.294737 
L 86.631579 444.294737 
L 86.631579 557.768421 
" clip-path="url(#p805e0419a5)" style="fill: none; stroke: #1f77b4; stroke-width: 1.6; stroke-linecap: square"/>
   </g>
   <g id="patch_9">
    <path d="M 88.629696 557.768421 
Q 143.369003 557.768421 197.10208 557.768421 
" style="fill: none; stroke: #000000; stroke-width: 0.9; stroke-linecap: round"/>
    <path d="M 192.30208 555.368421 
L 197.10208 557.768421 
L 192.30208 560.168421 
z
" style="fill: #1f77b4; stroke: #000000; stroke-width: 0.9; stroke-linecap: round"/>
   </g>
   <g id="patch_10">
    <path d="M 200.105263 555.770304 
Q 200.105263 501.030997 200.105263 447.29792 
" style="fill: none; stroke: #000000; stroke-width: 0.9; stroke-linecap: round"/>
    <path d="M 197.705263 452.09792 
L 200.105263 447.29792 
L 202.505263 452.09792 
z
" style="fill: #1f77b4; stroke: #000000; stroke-width: 0.9; stroke-linecap: round"/>
   </g>
   <g id="patch_11">
    <path d="M 198.107146 444.294737 
Q 143.367839 444.294737 89.634763 444.294737 
" style="fill: none; stroke: #000000; stroke-width: 0.9; stroke-linecap: round"/>
    <path d="M 94.434763 446.694737 
L 89.634763 444.294737 
L 94.434763 441.894737 
z
" style="fill: #1f77b4; stroke: #000000; stroke-width: 0.9; stroke-linecap: round"/>
   </g>
   <g id="patch_12">
    <path d="M 86.631579 446.292854 
Q 86.631579 501.032161 86.631579 554.765237 
" style="fill: none; stroke: #000000; stroke-width: 0.9; stroke-linecap: round"/>
    <path d="M 89.031579 549.965237 
L 86.631579 554.765237 
L 84.231579 549.965237 
z
" style="fill: #1f77b4; stroke: #000000; stroke-width: 0.9; stroke-linecap: round"/>
   </g>
   <g id="text_9">
    <!-- cristallo perfetto: circuito di Burgers chiuso -->
    <g transform="translate(7.385218 358.863158) scale(0.11 -0.11)">
     <defs>
      <path id="DejaVuSans-Bold-72" d="M 3138 2547 
Q 2991 2616 2845 2648 
Q 2700 2681 2553 2681 
Q 2122 2681 1889 2404 
Q 1656 2128 1656 1613 
L 1656 0 
L 538 0 
L 538 3500 
L 1656 3500 
L 1656 2925 
Q 1872 3269 2151 3426 
Q 2431 3584 2822 3584 
Q 2878 3584 2943 3579 
Q 3009 3575 3134 3559 
L 3138 2547 
z
" transform="scale(0.015625)"/>
      <path id="DejaVuSans-Bold-66" d="M 2841 4863 
L 2841 4128 
L 2222 4128 
Q 1984 4128 1890 4042 
Q 1797 3956 1797 3744 
L 1797 3500 
L 2753 3500 
L 2753 2700 
L 1797 2700 
L 1797 0 
L 678 0 
L 678 2700 
L 122 2700 
L 122 3500 
L 678 3500 
L 678 3744 
Q 678 4316 997 4589 
Q 1316 4863 1984 4863 
L 2841 4863 
z
" transform="scale(0.015625)"/>
      <path id="DejaVuSans-Bold-3a" d="M 716 3500 
L 1844 3500 
L 1844 2291 
L 716 2291 
L 716 3500 
z
M 716 1209 
L 1844 1209 
L 1844 0 
L 716 0 
L 716 1209 
z
" transform="scale(0.015625)"/>
      <path id="DejaVuSans-Bold-75" d="M 500 1363 
L 500 3500 
L 1625 3500 
L 1625 3150 
Q 1625 2866 1622 2436 
Q 1619 2006 1619 1863 
Q 1619 1441 1641 1255 
Q 1663 1069 1716 984 
Q 1784 875 1895 815 
Q 2006 756 2150 756 
Q 2500 756 2700 1025 
Q 2900 1294 2900 1772 
L 2900 3500 
L 4019 3500 
L 4019 0 
L 2900 0 
L 2900 506 
Q 2647 200 2364 54 
Q 2081 -91 1741 -91 
Q 1134 -91 817 281 
Q 500 653 500 1363 
z
" transform="scale(0.015625)"/>
      <path id="DejaVuSans-Bold-68" d="M 4056 2131 
L 4056 0 
L 2931 0 
L 2931 347 
L 2931 1625 
Q 2931 2084 2911 2256 
Q 2891 2428 2841 2509 
Q 2775 2619 2662 2680 
Q 2550 2741 2406 2741 
Q 2056 2741 1856 2470 
Q 1656 2200 1656 1722 
L 1656 0 
L 538 0 
L 538 4863 
L 1656 4863 
L 1656 2988 
Q 1909 3294 2193 3439 
Q 2478 3584 2822 3584 
Q 3428 3584 3742 3212 
Q 4056 2841 4056 2131 
z
" transform="scale(0.015625)"/>
     </defs>
     <use xlink:href="#DejaVuSans-Bold-63"/>
     <use xlink:href="#DejaVuSans-Bold-72" transform="translate(59.277344 0)"/>
     <use xlink:href="#DejaVuSans-Bold-69" transform="translate(108.59375 0)"/>
     <use xlink:href="#DejaVuSans-Bold-73" transform="translate(142.871094 0)"/>
     <use xlink:href="#DejaVuSans-Bold-74" transform="translate(202.392578 0)"/>
     <use xlink:href="#DejaVuSans-Bold-61" transform="translate(250.195312 0)"/>
     <use xlink:href="#DejaVuSans-Bold-6c" transform="translate(317.675781 0)"/>
     <use xlink:href="#DejaVuSans-Bold-6c" transform="translate(351.953125 0)"/>
     <use xlink:href="#DejaVuSans-Bold-6f" transform="translate(386.230469 0)"/>
     <use xlink:href="#DejaVuSans-Bold-20" transform="translate(454.931641 0)"/>
     <use xlink:href="#DejaVuSans-Bold-70" transform="translate(489.746094 0)"/>
     <use xlink:href="#DejaVuSans-Bold-65" transform="translate(561.328125 0)"/>
     <use xlink:href="#DejaVuSans-Bold-72" transform="translate(629.150391 0)"/>
     <use xlink:href="#DejaVuSans-Bold-66" transform="translate(678.466797 0)"/>
     <use xlink:href="#DejaVuSans-Bold-65" transform="translate(721.972656 0)"/>
     <use xlink:href="#DejaVuSans-Bold-74" transform="translate(789.794922 0)"/>
     <use xlink:href="#DejaVuSans-Bold-74" transform="translate(837.597656 0)"/>
     <use xlink:href="#DejaVuSans-Bold-6f" transform="translate(885.400391 0)"/>
     <use xlink:href="#DejaVuSans-Bold-3a" transform="translate(954.101562 0)"/>
     <use xlink:href="#DejaVuSans-Bold-20" transform="translate(994.091797 0)"/>
     <use xlink:href="#DejaVuSans-Bold-63" transform="translate(1028.90625 0)"/>
     <use xlink:href="#DejaVuSans-Bold-69" transform="translate(1088.183594 0)"/>
     <use xlink:href="#DejaVuSans-Bold-72" transform="translate(1122.460938 0)"/>
     <use xlink:href="#DejaVuSans-Bold-63" transform="translate(1171.777344 0)"/>
     <use xlink:href="#DejaVuSans-Bold-75" transform="translate(1231.054688 0)"/>
     <use xlink:href="#DejaVuSans-Bold-69" transform="translate(1302.246094 0)"/>
     <use xlink:href="#DejaVuSans-Bold-74" transform="translate(1336.523438 0)"/>
     <use xlink:href="#DejaVuSans-Bold-6f" transform="translate(1384.326172 0)"/>
     <use xlink:href="#DejaVuSans-Bold-20" transform="translate(1453.027344 0)"/>
     <use xlink:href="#DejaVuSans-Bold-64" transform="translate(1487.841797 0)"/>
     <use xlink:href="#DejaVuSans-Bold-69" transform="translate(1559.423828 0)"/>
     <use xlink:href="#DejaVuSans-Bold-20" transform="translate(1593.701172 0)"/>
     <use xlink:href="#DejaVuSans-Bold-42" transform="translate(1628.515625 0)"/>
     <use xlink:href="#DejaVuSans-Bold-75" transform="translate(1704.736328 0)"/>
     <use xlink:href="#DejaVuSans-Bold-72" transform="translate(1775.927734 0)"/>
     <use xlink:href="#DejaVuSans-Bold-67" transform="translate(1825.244141 0)"/>
     <use xlink:href="#DejaVuSans-Bold-65" transform="translate(1896.826172 0)"/>
     <use xlink:href="#DejaVuSans-Bold-72" transform="translate(1964.648438 0)"/>
     <use xlink:href="#DejaVuSans-Bold-73" transform="translate(2013.964844 0)"/>
     <use xlink:href="#DejaVuSans-Bold-20" transform="translate(2073.486328 0)"/>
     <use xlink:href="#DejaVuSans-Bold-63" transform="translate(2108.300781 0)"/>
     <use xlink:href="#DejaVuSans-Bold-68" transform="translate(2167.578125 0)"/>
     <use xlink:href="#DejaVuSans-Bold-69" transform="translate(2238.769531 0)"/>
     <use xlink:href="#DejaVuSans-Bold-75" transform="translate(2273.046875 0)"/>
     <use xlink:href="#DejaVuSans-Bold-73" transform="translate(2344.238281 0)"/>
     <use xlink:href="#DejaVuSans-Bold-6f" transform="translate(2403.759766 0)"/>
    </g>
   </g>
  </g>
  <g id="axes_4">
   <g id="PathCollection_82">
    <g clip-path="url(#p200a274fd5)">
     <use xlink:href="#m01b2d9b0b8" x="456.003828" y="614.505263" style="fill: #1f77b4; stroke: #1f77b4"/>
     <use xlink:href="#m01b2d9b0b8" x="456.003828" y="586.136842" style="fill: #1f77b4; stroke: #1f77b4"/>
     <use xlink:href="#m01b2d9b0b8" x="456.003828" y="557.768421" style="fill: #1f77b4; stroke: #1f77b4"/>
     <use xlink:href="#m01b2d9b0b8" x="456.003828" y="529.4" style="fill: #1f77b4; stroke: #1f77b4"/>
     <use xlink:href="#m01b2d9b0b8" x="455.963965" y="501.031579" style="fill: #1f77b4; stroke: #1f77b4"/>
     <use xlink:href="#m01b2d9b0b8" x="455.975737" y="472.663158" style="fill: #1f77b4; stroke: #1f77b4"/>
     <use xlink:href="#m01b2d9b0b8" x="455.993998" y="444.294737" style="fill: #1f77b4; stroke: #1f77b4"/>
     <use xlink:href="#m01b2d9b0b8" x="456.00212" y="415.926316" style="fill: #1f77b4; stroke: #1f77b4"/>
     <use xlink:href="#m01b2d9b0b8" x="456.00368" y="387.557895" style="fill: #1f77b4; stroke: #1f77b4"/>
     <use xlink:href="#m01b2d9b0b8" x="484.372249" y="614.505263" style="fill: #1f77b4; stroke: #1f77b4"/>
     <use xlink:href="#m01b2d9b0b8" x="484.372249" y="586.136842" style="fill: #1f77b4; stroke: #1f77b4"/>
     <use xlink:href="#m01b2d9b0b8" x="484.372249" y="557.768421" style="fill: #1f77b4; stroke: #1f77b4"/>
     <use xlink:href="#m01b2d9b0b8" x="484.372249" y="529.4" style="fill: #1f77b4; stroke: #1f77b4"/>
     <use xlink:href="#m01b2d9b0b8" x="483.910303" y="501.031579" style="fill: #1f77b4; stroke: #1f77b4"/>
     <use xlink:href="#m01b2d9b0b8" x="484.046721" y="472.663158" style="fill: #1f77b4; stroke: #1f77b4"/>
     <use xlink:href="#m01b2d9b0b8" x="484.258334" y="444.294737" style="fill: #1f77b4; stroke: #1f77b4"/>
     <use xlink:href="#m01b2d9b0b8" x="484.352453" y="415.926316" style="fill: #1f77b4; stroke: #1f77b4"/>
     <use xlink:href="#m01b2d9b0b8" x="484.370541" y="387.557895" style="fill: #1f77b4; stroke: #1f77b4"/>
     <use xlink:href="#m01b2d9b0b8" x="512.74067" y="614.505263" style="fill: #1f77b4; stroke: #1f77b4"/>
     <use xlink:href="#m01b2d9b0b8" x="512.74067" y="586.136842" style="fill: #1f77b4; stroke: #1f77b4"/>
     <use xlink:href="#m01b2d9b0b8" x="512.74067" y="557.768421" style="fill: #1f77b4; stroke: #1f77b4"/>
     <use xlink:href="#m01b2d9b0b8" x="512.74067" y="529.4" style="fill: #1f77b4; stroke: #1f77b4"/>
     <use xlink:href="#m01b2d9b0b8" x="510.082355" y="501.031579" style="fill: #1f77b4; stroke: #1f77b4"/>
     <use xlink:href="#m01b2d9b0b8" x="510.867387" y="472.663158" style="fill: #1f77b4; stroke: #1f77b4"/>
     <use xlink:href="#m01b2d9b0b8" x="512.085137" y="444.294737" style="fill: #1f77b4; stroke: #1f77b4"/>
     <use xlink:href="#m01b2d9b0b8" x="512.626755" y="415.926316" style="fill: #1f77b4; stroke: #1f77b4"/>
     <use xlink:href="#m01b2d9b0b8" x="512.73084" y="387.557895" style="fill: #1f77b4; stroke: #1f77b4"/>
     <use xlink:href="#m01b2d9b0b8" x="541.109091" y="614.505263" style="fill: #1f77b4; stroke: #1f77b4"/>
     <use xlink:href="#m01b2d9b0b8" x="541.109091" y="586.136842" style="fill: #1f77b4; stroke: #1f77b4"/>
     <use xlink:href="#m01b2d9b0b8" x="541.109091" y="557.768421" style="fill: #1f77b4; stroke: #1f77b4"/>
     <use xlink:href="#m01b2d9b0b8" x="541.109091" y="529.4" style="fill: #1f77b4; stroke: #1f77b4"/>
     <use xlink:href="#m01b2d9b0b8" x="533.512553" y="501.031579" style="fill: #1f77b4; stroke: #1f77b4"/>
     <use xlink:href="#m01b2d9b0b8" x="535.755901" y="472.663158" style="fill: #1f77b4; stroke: #1f77b4"/>
     <use xlink:href="#m01b2d9b0b8" x="539.235808" y="444.294737" style="fill: #1f77b4; stroke: #1f77b4"/>
     <use xlink:href="#m01b2d9b0b8" x="540.783563" y="415.926316" style="fill: #1f77b4; stroke: #1f77b4"/>
     <use xlink:href="#m01b2d9b0b8" x="541.081" y="387.557895" style="fill: #1f77b4; stroke: #1f77b4"/>
     <use xlink:href="#m01b2d9b0b8" x="569.477512" y="614.505263" style="fill: #1f77b4; stroke: #1f77b4"/>
     <use xlink:href="#m01b2d9b0b8" x="569.477512" y="586.136842" style="fill: #1f77b4; stroke: #1f77b4"/>
     <use xlink:href="#m01b2d9b0b8" x="569.477512" y="557.768421" style="fill: #1f77b4; stroke: #1f77b4"/>
     <use xlink:href="#m01b2d9b0b8" x="569.477512" y="529.4" style="fill: #1f77b4; stroke: #1f77b4"/>
     <use xlink:href="#m01b2d9b0b8" x="569.477512" y="501.031579" style="fill: #1f77b4; stroke: #1f77b4"/>
     <use xlink:href="#m01b2d9b0b8" x="569.477512" y="472.663158" style="fill: #1f77b4; stroke: #1f77b4"/>
     <use xlink:href="#m01b2d9b0b8" x="569.477512" y="444.294737" style="fill: #1f77b4; stroke: #1f77b4"/>
     <use xlink:href="#m01b2d9b0b8" x="569.477512" y="415.926316" style="fill: #1f77b4; stroke: #1f77b4"/>
     <use xlink:href="#m01b2d9b0b8" x="569.477512" y="387.557895" style="fill: #1f77b4; stroke: #1f77b4"/>
     <use xlink:href="#m01b2d9b0b8" x="597.845933" y="614.505263" style="fill: #1f77b4; stroke: #1f77b4"/>
     <use xlink:href="#m01b2d9b0b8" x="597.845933" y="586.136842" style="fill: #1f77b4; stroke: #1f77b4"/>
     <use xlink:href="#m01b2d9b0b8" x="597.845933" y="557.768421" style="fill: #1f77b4; stroke: #1f77b4"/>
     <use xlink:href="#m01b2d9b0b8" x="597.845933" y="529.4" style="fill: #1f77b4; stroke: #1f77b4"/>
     <use xlink:href="#m01b2d9b0b8" x="605.442471" y="501.031579" style="fill: #1f77b4; stroke: #1f77b4"/>
     <use xlink:href="#m01b2d9b0b8" x="603.199123" y="472.663158" style="fill: #1f77b4; stroke: #1f77b4"/>
     <use xlink:href="#m01b2d9b0b8" x="599.719216" y="444.294737" style="fill: #1f77b4; stroke: #1f77b4"/>
     <use xlink:href="#m01b2d9b0b8" x="598.171461" y="415.926316" style="fill: #1f77b4; stroke: #1f77b4"/>
     <use xlink:href="#m01b2d9b0b8" x="597.874024" y="387.557895" style="fill: #1f77b4; stroke: #1f77b4"/>
     <use xlink:href="#m01b2d9b0b8" x="626.214354" y="614.505263" style="fill: #1f77b4; stroke: #1f77b4"/>
     <use xlink:href="#m01b2d9b0b8" x="626.214354" y="586.136842" style="fill: #1f77b4; stroke: #1f77b4"/>
     <use xlink:href="#m01b2d9b0b8" x="626.214354" y="557.768421" style="fill: #1f77b4; stroke: #1f77b4"/>
     <use xlink:href="#m01b2d9b0b8" x="626.214354" y="529.4" style="fill: #1f77b4; stroke: #1f77b4"/>
     <use xlink:href="#m01b2d9b0b8" x="628.872669" y="501.031579" style="fill: #1f77b4; stroke: #1f77b4"/>
     <use xlink:href="#m01b2d9b0b8" x="628.087637" y="472.663158" style="fill: #1f77b4; stroke: #1f77b4"/>
     <use xlink:href="#m01b2d9b0b8" x="626.869887" y="444.294737" style="fill: #1f77b4; stroke: #1f77b4"/>
     <use xlink:href="#m01b2d9b0b8" x="626.328269" y="415.926316" style="fill: #1f77b4; stroke: #1f77b4"/>
     <use xlink:href="#m01b2d9b0b8" x="626.224184" y="387.557895" style="fill: #1f77b4; stroke: #1f77b4"/>
     <use xlink:href="#m01b2d9b0b8" x="654.582775" y="614.505263" style="fill: #1f77b4; stroke: #1f77b4"/>
     <use xlink:href="#m01b2d9b0b8" x="654.582775" y="586.136842" style="fill: #1f77b4; stroke: #1f77b4"/>
     <use xlink:href="#m01b2d9b0b8" x="654.582775" y="557.768421" style="fill: #1f77b4; stroke: #1f77b4"/>
     <use xlink:href="#m01b2d9b0b8" x="654.582775" y="529.4" style="fill: #1f77b4; stroke: #1f77b4"/>
     <use xlink:href="#m01b2d9b0b8" x="655.044721" y="501.031579" style="fill: #1f77b4; stroke: #1f77b4"/>
     <use xlink:href="#m01b2d9b0b8" x="654.908303" y="472.663158" style="fill: #1f77b4; stroke: #1f77b4"/>
     <use xlink:href="#m01b2d9b0b8" x="654.69669" y="444.294737" style="fill: #1f77b4; stroke: #1f77b4"/>
     <use xlink:href="#m01b2d9b0b8" x="654.60257" y="415.926316" style="fill: #1f77b4; stroke: #1f77b4"/>
     <use xlink:href="#m01b2d9b0b8" x="654.584483" y="387.557895" style="fill: #1f77b4; stroke: #1f77b4"/>
     <use xlink:href="#m01b2d9b0b8" x="682.951196" y="614.505263" style="fill: #1f77b4; stroke: #1f77b4"/>
     <use xlink:href="#m01b2d9b0b8" x="682.951196" y="586.136842" style="fill: #1f77b4; stroke: #1f77b4"/>
     <use xlink:href="#m01b2d9b0b8" x="682.951196" y="557.768421" style="fill: #1f77b4; stroke: #1f77b4"/>
     <use xlink:href="#m01b2d9b0b8" x="682.951196" y="529.4" style="fill: #1f77b4; stroke: #1f77b4"/>
     <use xlink:href="#m01b2d9b0b8" x="682.991059" y="501.031579" style="fill: #1f77b4; stroke: #1f77b4"/>
     <use xlink:href="#m01b2d9b0b8" x="682.979287" y="472.663158" style="fill: #1f77b4; stroke: #1f77b4"/>
     <use xlink:href="#m01b2d9b0b8" x="682.961026" y="444.294737" style="fill: #1f77b4; stroke: #1f77b4"/>
     <use xlink:href="#m01b2d9b0b8" x="682.952904" y="415.926316" style="fill: #1f77b4; stroke: #1f77b4"/>
     <use xlink:href="#m01b2d9b0b8" x="682.951344" y="387.557895" style="fill: #1f77b4; stroke: #1f77b4"/>
    </g>
   </g>
   <g id="line2d_30">
    <path d="M 456.003828 614.505263 
L 484.372249 614.505263 
L 512.74067 614.505263 
L 541.109091 614.505263 
L 569.477512 614.505263 
L 597.845933 614.505263 
L 626.214354 614.505263 
L 654.582775 614.505263 
L 682.951196 614.505263 
" clip-path="url(#p200a274fd5)" style="fill: none; stroke: #bfbfbf; stroke-width: 0.35; stroke-linecap: square"/>
   </g>
   <g id="line2d_31">
    <path d="M 456.003828 586.136842 
L 484.372249 586.136842 
L 512.74067 586.136842 
L 541.109091 586.136842 
L 569.477512 586.136842 
L 597.845933 586.136842 
L 626.214354 586.136842 
L 654.582775 586.136842 
L 682.951196 586.136842 
" clip-path="url(#p200a274fd5)" style="fill: none; stroke: #bfbfbf; stroke-width: 0.35; stroke-linecap: square"/>
   </g>
   <g id="line2d_32">
    <path d="M 456.003828 557.768421 
L 484.372249 557.768421 
L 512.74067 557.768421 
L 541.109091 557.768421 
L 569.477512 557.768421 
L 597.845933 557.768421 
L 626.214354 557.768421 
L 654.582775 557.768421 
L 682.951196 557.768421 
" clip-path="url(#p200a274fd5)" style="fill: none; stroke: #bfbfbf; stroke-width: 0.35; stroke-linecap: square"/>
   </g>
   <g id="line2d_33">
    <path d="M 456.003828 529.4 
L 484.372249 529.4 
L 512.74067 529.4 
L 541.109091 529.4 
L 569.477512 529.4 
L 597.845933 529.4 
L 626.214354 529.4 
L 654.582775 529.4 
L 682.951196 529.4 
" clip-path="url(#p200a274fd5)" style="fill: none; stroke: #bfbfbf; stroke-width: 0.35; stroke-linecap: square"/>
   </g>
   <g id="line2d_34">
    <path d="M 455.963965 501.031579 
L 483.910303 501.031579 
L 510.082355 501.031579 
L 533.512553 501.031579 
L 569.477512 501.031579 
L 605.442471 501.031579 
L 628.872669 501.031579 
L 655.044721 501.031579 
L 682.991059 501.031579 
" clip-path="url(#p200a274fd5)" style="fill: none; stroke: #bfbfbf; stroke-width: 0.35; stroke-linecap: square"/>
   </g>
   <g id="line2d_35">
    <path d="M 455.975737 472.663158 
L 484.046721 472.663158 
L 510.867387 472.663158 
L 535.755901 472.663158 
L 569.477512 472.663158 
L 603.199123 472.663158 
L 628.087637 472.663158 
L 654.908303 472.663158 
L 682.979287 472.663158 
" clip-path="url(#p200a274fd5)" style="fill: none; stroke: #bfbfbf; stroke-width: 0.35; stroke-linecap: square"/>
   </g>
   <g id="line2d_36">
    <path d="M 455.993998 444.294737 
L 484.258334 444.294737 
L 512.085137 444.294737 
L 539.235808 444.294737 
L 569.477512 444.294737 
L 599.719216 444.294737 
L 626.869887 444.294737 
L 654.69669 444.294737 
L 682.961026 444.294737 
" clip-path="url(#p200a274fd5)" style="fill: none; stroke: #bfbfbf; stroke-width: 0.35; stroke-linecap: square"/>
   </g>
   <g id="line2d_37">
    <path d="M 456.00212 415.926316 
L 484.352453 415.926316 
L 512.626755 415.926316 
L 540.783563 415.926316 
L 569.477512 415.926316 
L 598.171461 415.926316 
L 626.328269 415.926316 
L 654.60257 415.926316 
L 682.952904 415.926316 
" clip-path="url(#p200a274fd5)" style="fill: none; stroke: #bfbfbf; stroke-width: 0.35; stroke-linecap: square"/>
   </g>
   <g id="line2d_38">
    <path d="M 456.00368 387.557895 
L 484.370541 387.557895 
L 512.73084 387.557895 
L 541.081 387.557895 
L 569.477512 387.557895 
L 597.874024 387.557895 
L 626.224184 387.557895 
L 654.584483 387.557895 
L 682.951344 387.557895 
" clip-path="url(#p200a274fd5)" style="fill: none; stroke: #bfbfbf; stroke-width: 0.35; stroke-linecap: square"/>
   </g>
   <g id="line2d_39">
    <path d="M 456.003828 614.505263 
L 456.003828 586.136842 
L 456.003828 557.768421 
L 456.003828 529.4 
L 455.963965 501.031579 
L 455.975737 472.663158 
L 455.993998 444.294737 
L 456.00212 415.926316 
L 456.00368 387.557895 
" clip-path="url(#p200a274fd5)" style="fill: none; stroke: #bfbfbf; stroke-width: 0.35; stroke-linecap: square"/>
   </g>
   <g id="line2d_40">
    <path d="M 484.372249 614.505263 
L 484.372249 586.136842 
L 484.372249 557.768421 
L 484.372249 529.4 
L 483.910303 501.031579 
L 484.046721 472.663158 
L 484.258334 444.294737 
L 484.352453 415.926316 
L 484.370541 387.557895 
" clip-path="url(#p200a274fd5)" style="fill: none; stroke: #bfbfbf; stroke-width: 0.35; stroke-linecap: square"/>
   </g>
   <g id="line2d_41">
    <path d="M 512.74067 614.505263 
L 512.74067 586.136842 
L 512.74067 557.768421 
L 512.74067 529.4 
L 510.082355 501.031579 
L 510.867387 472.663158 
L 512.085137 444.294737 
L 512.626755 415.926316 
L 512.73084 387.557895 
" clip-path="url(#p200a274fd5)" style="fill: none; stroke: #bfbfbf; stroke-width: 0.35; stroke-linecap: square"/>
   </g>
   <g id="line2d_42">
    <path d="M 541.109091 614.505263 
L 541.109091 586.136842 
L 541.109091 557.768421 
L 541.109091 529.4 
L 533.512553 501.031579 
L 535.755901 472.663158 
L 539.235808 444.294737 
L 540.783563 415.926316 
L 541.081 387.557895 
" clip-path="url(#p200a274fd5)" style="fill: none; stroke: #bfbfbf; stroke-width: 0.35; stroke-linecap: square"/>
   </g>
   <g id="line2d_43">
    <path d="M 569.477512 614.505263 
L 569.477512 586.136842 
L 569.477512 557.768421 
L 569.477512 529.4 
L 569.477512 501.031579 
L 569.477512 472.663158 
L 569.477512 444.294737 
L 569.477512 415.926316 
L 569.477512 387.557895 
" clip-path="url(#p200a274fd5)" style="fill: none; stroke: #bfbfbf; stroke-width: 0.35; stroke-linecap: square"/>
   </g>
   <g id="line2d_44">
    <path d="M 597.845933 614.505263 
L 597.845933 586.136842 
L 597.845933 557.768421 
L 597.845933 529.4 
L 605.442471 501.031579 
L 603.199123 472.663158 
L 599.719216 444.294737 
L 598.171461 415.926316 
L 597.874024 387.557895 
" clip-path="url(#p200a274fd5)" style="fill: none; stroke: #bfbfbf; stroke-width: 0.35; stroke-linecap: square"/>
   </g>
   <g id="line2d_45">
    <path d="M 626.214354 614.505263 
L 626.214354 586.136842 
L 626.214354 557.768421 
L 626.214354 529.4 
L 628.872669 501.031579 
L 628.087637 472.663158 
L 626.869887 444.294737 
L 626.328269 415.926316 
L 626.224184 387.557895 
" clip-path="url(#p200a274fd5)" style="fill: none; stroke: #bfbfbf; stroke-width: 0.35; stroke-linecap: square"/>
   </g>
   <g id="line2d_46">
    <path d="M 654.582775 614.505263 
L 654.582775 586.136842 
L 654.582775 557.768421 
L 654.582775 529.4 
L 655.044721 501.031579 
L 654.908303 472.663158 
L 654.69669 444.294737 
L 654.60257 415.926316 
L 654.584483 387.557895 
" clip-path="url(#p200a274fd5)" style="fill: none; stroke: #bfbfbf; stroke-width: 0.35; stroke-linecap: square"/>
   </g>
   <g id="line2d_47">
    <path d="M 682.951196 614.505263 
L 682.951196 586.136842 
L 682.951196 557.768421 
L 682.951196 529.4 
L 682.991059 501.031579 
L 682.979287 472.663158 
L 682.961026 444.294737 
L 682.952904 415.926316 
L 682.951344 387.557895 
" clip-path="url(#p200a274fd5)" style="fill: none; stroke: #bfbfbf; stroke-width: 0.35; stroke-linecap: square"/>
   </g>
   <g id="line2d_48">
    <path d="M 569.477512 501.031579 
L 569.477512 379.047368 
" clip-path="url(#p200a274fd5)" style="fill: none; stroke: #1f77b4; stroke-width: 1.55; stroke-linecap: square"/>
   </g>
   <g id="line2d_49">
    <path d="M 512.74067 557.768421 
L 626.214354 557.768421 
L 626.214354 444.294737 
L 512.74067 444.294737 
L 512.74067 529.4 
" clip-path="url(#p200a274fd5)" style="fill: none; stroke: #ff7f0e; stroke-width: 1.6; stroke-linecap: square"/>
   </g>
   <g id="text_10">
    <!-- ⊥ -->
    <g transform="translate(572.881722 497.627368) scale(0.12 -0.12)">
     <use xlink:href="#DejaVuSans-22a5"/>
    </g>
   </g>
   <g id="patch_13">
    <path d="M 514.738787 557.768421 
Q 569.478094 557.768421 623.21117 557.768421 
" style="fill: none; stroke: #000000; stroke-width: 0.9; stroke-linecap: round"/>
    <path d="M 618.41117 555.368421 
L 623.21117 557.768421 
L 618.41117 560.168421 
z
" style="fill: #1f77b4; stroke: #000000; stroke-width: 0.9; stroke-linecap: round"/>
   </g>
   <g id="patch_14">
    <path d="M 626.214354 555.770304 
Q 626.214354 501.030997 626.214354 447.29792 
" style="fill: none; stroke: #000000; stroke-width: 0.9; stroke-linecap: round"/>
    <path d="M 623.814354 452.09792 
L 626.214354 447.29792 
L 628.614354 452.09792 
z
" style="fill: #1f77b4; stroke: #000000; stroke-width: 0.9; stroke-linecap: round"/>
   </g>
   <g id="patch_15">
    <path d="M 624.216237 444.294737 
Q 569.47693 444.294737 515.743853 444.294737 
" style="fill: none; stroke: #000000; stroke-width: 0.9; stroke-linecap: round"/>
    <path d="M 520.543853 446.694737 
L 515.743853 444.294737 
L 520.543853 441.894737 
z
" style="fill: #1f77b4; stroke: #000000; stroke-width: 0.9; stroke-linecap: round"/>
   </g>
   <g id="patch_16">
    <path d="M 512.74067 446.297183 
Q 512.74067 486.848101 512.74067 526.392789 
" style="fill: none; stroke: #000000; stroke-width: 0.9; stroke-linecap: round"/>
    <path d="M 515.14067 521.592789 
L 512.74067 526.392789 
L 510.34067 521.592789 
z
" style="fill: #1f77b4; stroke: #000000; stroke-width: 0.9; stroke-linecap: round"/>
   </g>
   <g id="patch_17">
    <path d="M 512.74067 531.398118 
Q 512.74067 543.58376 512.74067 554.539565 
" style="fill: none; stroke: #000000; stroke-width: 1.1; stroke-linecap: round"/>
    <path d="M 515.14067 549.739565 
L 512.74067 554.539565 
L 510.34067 549.739565 
z
" style="fill: #1f77b4; stroke: #000000; stroke-width: 1.1; stroke-linecap: round"/>
   </g>
   <g id="text_11">
    <!-- $\mathbf{B}_d$ -->
    <g transform="translate(498.605144 546.067648) scale(0.09 -0.09)">
     <use xlink:href="#DejaVuSans-Bold-42" transform="translate(0 0.09375)"/>
     <use xlink:href="#DejaVuSans-Oblique-64" transform="translate(77.177734 -16.3125) scale(0.7)"/>
    </g>
   </g>
   <g id="text_12">
    <!-- cristallo con dislocazione a spigolo -->
    <g transform="translate(461.412824 358.863158) scale(0.11 -0.11)">
     <use xlink:href="#DejaVuSans-Bold-63"/>
     <use xlink:href="#DejaVuSans-Bold-72" transform="translate(59.277344 0)"/>
     <use xlink:href="#DejaVuSans-Bold-69" transform="translate(108.59375 0)"/>
     <use xlink:href="#DejaVuSans-Bold-73" transform="translate(142.871094 0)"/>
     <use xlink:href="#DejaVuSans-Bold-74" transform="translate(202.392578 0)"/>
     <use xlink:href="#DejaVuSans-Bold-61" transform="translate(250.195312 0)"/>
     <use xlink:href="#DejaVuSans-Bold-6c" transform="translate(317.675781 0)"/>
     <use xlink:href="#DejaVuSans-Bold-6c" transform="translate(351.953125 0)"/>
     <use xlink:href="#DejaVuSans-Bold-6f" transform="translate(386.230469 0)"/>
     <use xlink:href="#DejaVuSans-Bold-20" transform="translate(454.931641 0)"/>
     <use xlink:href="#DejaVuSans-Bold-63" transform="translate(489.746094 0)"/>
     <use xlink:href="#DejaVuSans-Bold-6f" transform="translate(549.023438 0)"/>
     <use xlink:href="#DejaVuSans-Bold-6e" transform="translate(617.724609 0)"/>
     <use xlink:href="#DejaVuSans-Bold-20" transform="translate(688.916016 0)"/>
     <use xlink:href="#DejaVuSans-Bold-64" transform="translate(723.730469 0)"/>
     <use xlink:href="#DejaVuSans-Bold-69" transform="translate(795.3125 0)"/>
     <use xlink:href="#DejaVuSans-Bold-73" transform="translate(829.589844 0)"/>
     <use xlink:href="#DejaVuSans-Bold-6c" transform="translate(889.111328 0)"/>
     <use xlink:href="#DejaVuSans-Bold-6f" transform="translate(923.388672 0)"/>
     <use xlink:href="#DejaVuSans-Bold-63" transform="translate(992.089844 0)"/>
     <use xlink:href="#DejaVuSans-Bold-61" transform="translate(1051.367188 0)"/>
     <use xlink:href="#DejaVuSans-Bold-7a" transform="translate(1118.847656 0)"/>
     <use xlink:href="#DejaVuSans-Bold-69" transform="translate(1177.050781 0)"/>
     <use xlink:href="#DejaVuSans-Bold-6f" transform="translate(1211.328125 0)"/>
     <use xlink:href="#DejaVuSans-Bold-6e" transform="translate(1280.029297 0)"/>
     <use xlink:href="#DejaVuSans-Bold-65" transform="translate(1351.220703 0)"/>
     <use xlink:href="#DejaVuSans-Bold-20" transform="translate(1419.042969 0)"/>
     <use xlink:href="#DejaVuSans-Bold-61" transform="translate(1453.857422 0)"/>
     <use xlink:href="#DejaVuSans-Bold-20" transform="translate(1521.337891 0)"/>
     <use xlink:href="#DejaVuSans-Bold-73" transform="translate(1556.152344 0)"/>
     <use xlink:href="#DejaVuSans-Bold-70" transform="translate(1615.673828 0)"/>
     <use xlink:href="#DejaVuSans-Bold-69" transform="translate(1687.255859 0)"/>
     <use xlink:href="#DejaVuSans-Bold-67" transform="translate(1721.533203 0)"/>
     <use xlink:href="#DejaVuSans-Bold-6f" transform="translate(1793.115234 0)"/>
     <use xlink:href="#DejaVuSans-Bold-6c" transform="translate(1861.816406 0)"/>
     <use xlink:href="#DejaVuSans-Bold-6f" transform="translate(1896.09375 0)"/>
    </g>
   </g>
  </g>
  <g id="text_13">
   <!-- Dislocazioni a spigolo e a vite e costruzione del vettore di Burgers -->
   <g transform="translate(62.91281 18.597656) scale(0.15 -0.15)">
    <defs>
     <path id="DejaVuSans-Bold-44" d="M 1791 3756 
L 1791 909 
L 2222 909 
Q 2959 909 3348 1275 
Q 3738 1641 3738 2338 
Q 3738 3031 3350 3393 
Q 2963 3756 2222 3756 
L 1791 3756 
z
M 588 4666 
L 1856 4666 
Q 2919 4666 3439 4514 
Q 3959 4363 4331 4000 
Q 4659 3684 4818 3271 
Q 4978 2859 4978 2338 
Q 4978 1809 4818 1395 
Q 4659 981 4331 666 
Q 3956 303 3431 151 
Q 2906 0 1856 0 
L 588 0 
L 588 4666 
z
" transform="scale(0.015625)"/>
    </defs>
    <use xlink:href="#DejaVuSans-Bold-44"/>
    <use xlink:href="#DejaVuSans-Bold-69" transform="translate(83.007812 0)"/>
    <use xlink:href="#DejaVuSans-Bold-73" transform="translate(117.285156 0)"/>
    <use xlink:href="#DejaVuSans-Bold-6c" transform="translate(176.806641 0)"/>
    <use xlink:href="#DejaVuSans-Bold-6f" transform="translate(211.083984 0)"/>
    <use xlink:href="#DejaVuSans-Bold-63" transform="translate(279.785156 0)"/>
    <use xlink:href="#DejaVuSans-Bold-61" transform="translate(339.0625 0)"/>
    <use xlink:href="#DejaVuSans-Bold-7a" transform="translate(406.542969 0)"/>
    <use xlink:href="#DejaVuSans-Bold-69" transform="translate(464.746094 0)"/>
    <use xlink:href="#DejaVuSans-Bold-6f" transform="translate(499.023438 0)"/>
    <use xlink:href="#DejaVuSans-Bold-6e" transform="translate(567.724609 0)"/>
    <use xlink:href="#DejaVuSans-Bold-69" transform="translate(638.916016 0)"/>
    <use xlink:href="#DejaVuSans-Bold-20" transform="translate(673.193359 0)"/>
    <use xlink:href="#DejaVuSans-Bold-61" transform="translate(708.007812 0)"/>
    <use xlink:href="#DejaVuSans-Bold-20" transform="translate(775.488281 0)"/>
    <use xlink:href="#DejaVuSans-Bold-73" transform="translate(810.302734 0)"/>
    <use xlink:href="#DejaVuSans-Bold-70" transform="translate(869.824219 0)"/>
    <use xlink:href="#DejaVuSans-Bold-69" transform="translate(941.40625 0)"/>
    <use xlink:href="#DejaVuSans-Bold-67" transform="translate(975.683594 0)"/>
    <use xlink:href="#DejaVuSans-Bold-6f" transform="translate(1047.265625 0)"/>
    <use xlink:href="#DejaVuSans-Bold-6c" transform="translate(1115.966797 0)"/>
    <use xlink:href="#DejaVuSans-Bold-6f" transform="translate(1150.244141 0)"/>
    <use xlink:href="#DejaVuSans-Bold-20" transform="translate(1218.945312 0)"/>
    <use xlink:href="#DejaVuSans-Bold-65" transform="translate(1253.759766 0)"/>
    <use xlink:href="#DejaVuSans-Bold-20" transform="translate(1321.582031 0)"/>
    <use xlink:href="#DejaVuSans-Bold-61" transform="translate(1356.396484 0)"/>
    <use xlink:href="#DejaVuSans-Bold-20" transform="translate(1423.876953 0)"/>
    <use xlink:href="#DejaVuSans-Bold-76" transform="translate(1458.691406 0)"/>
    <use xlink:href="#DejaVuSans-Bold-69" transform="translate(1523.876953 0)"/>
    <use xlink:href="#DejaVuSans-Bold-74" transform="translate(1558.154297 0)"/>
    <use xlink:href="#DejaVuSans-Bold-65" transform="translate(1605.957031 0)"/>
    <use xlink:href="#DejaVuSans-Bold-20" transform="translate(1673.779297 0)"/>
    <use xlink:href="#DejaVuSans-Bold-65" transform="translate(1708.59375 0)"/>
    <use xlink:href="#DejaVuSans-Bold-20" transform="translate(1776.416016 0)"/>
    <use xlink:href="#DejaVuSans-Bold-63" transform="translate(1811.230469 0)"/>
    <use xlink:href="#DejaVuSans-Bold-6f" transform="translate(1870.507812 0)"/>
    <use xlink:href="#DejaVuSans-Bold-73" transform="translate(1939.208984 0)"/>
    <use xlink:href="#DejaVuSans-Bold-74" transform="translate(1998.730469 0)"/>
    <use xlink:href="#DejaVuSans-Bold-72" transform="translate(2046.533203 0)"/>
    <use xlink:href="#DejaVuSans-Bold-75" transform="translate(2095.849609 0)"/>
    <use xlink:href="#DejaVuSans-Bold-7a" transform="translate(2167.041016 0)"/>
    <use xlink:href="#DejaVuSans-Bold-69" transform="translate(2225.244141 0)"/>
    <use xlink:href="#DejaVuSans-Bold-6f" transform="translate(2259.521484 0)"/>
    <use xlink:href="#DejaVuSans-Bold-6e" transform="translate(2328.222656 0)"/>
    <use xlink:href="#DejaVuSans-Bold-65" transform="translate(2399.414062 0)"/>
    <use xlink:href="#DejaVuSans-Bold-20" transform="translate(2467.236328 0)"/>
    <use xlink:href="#DejaVuSans-Bold-64" transform="translate(2502.050781 0)"/>
    <use xlink:href="#DejaVuSans-Bold-65" transform="translate(2573.632812 0)"/>
    <use xlink:href="#DejaVuSans-Bold-6c" transform="translate(2641.455078 0)"/>
    <use xlink:href="#DejaVuSans-Bold-20" transform="translate(2675.732422 0)"/>
    <use xlink:href="#DejaVuSans-Bold-76" transform="translate(2710.546875 0)"/>
    <use xlink:href="#DejaVuSans-Bold-65" transform="translate(2775.732422 0)"/>
    <use xlink:href="#DejaVuSans-Bold-74" transform="translate(2843.554688 0)"/>
    <use xlink:href="#DejaVuSans-Bold-74" transform="translate(2891.357422 0)"/>
    <use xlink:href="#DejaVuSans-Bold-6f" transform="translate(2939.160156 0)"/>
    <use xlink:href="#DejaVuSans-Bold-72" transform="translate(3007.861328 0)"/>
    <use xlink:href="#DejaVuSans-Bold-65" transform="translate(3057.177734 0)"/>
    <use xlink:href="#DejaVuSans-Bold-20" transform="translate(3125 0)"/>
    <use xlink:href="#DejaVuSans-Bold-64" transform="translate(3159.814453 0)"/>
    <use xlink:href="#DejaVuSans-Bold-69" transform="translate(3231.396484 0)"/>
    <use xlink:href="#DejaVuSans-Bold-20" transform="translate(3265.673828 0)"/>
    <use xlink:href="#DejaVuSans-Bold-42" transform="translate(3300.488281 0)"/>
    <use xlink:href="#DejaVuSans-Bold-75" transform="translate(3376.708984 0)"/>
    <use xlink:href="#DejaVuSans-Bold-72" transform="translate(3447.900391 0)"/>
    <use xlink:href="#DejaVuSans-Bold-67" transform="translate(3497.216797 0)"/>
    <use xlink:href="#DejaVuSans-Bold-65" transform="translate(3568.798828 0)"/>
    <use xlink:href="#DejaVuSans-Bold-72" transform="translate(3636.621094 0)"/>
    <use xlink:href="#DejaVuSans-Bold-73" transform="translate(3685.9375 0)"/>
   </g>
  </g>
  <g id="text_14">
   <!-- Nella dislocazione a spigolo $\mathbf{B}_d\perp\mathbf{L}_d$; nella dislocazione a vite $\mathbf{B}_d\parallel\mathbf{L}_d$. Il circuito di Burgers non si chiude in presenza del difetto. -->
   <g transform="translate(27.022967 703.44) scale(0.1 -0.1)">
    <defs>
     <path id="DejaVuSans-4e" d="M 628 4666 
L 1478 4666 
L 3547 763 
L 3547 4666 
L 4159 4666 
L 4159 0 
L 3309 0 
L 1241 3903 
L 1241 0 
L 628 0 
L 628 4666 
z
" transform="scale(0.015625)"/>
     <path id="DejaVuSans-65" d="M 3597 1894 
L 3597 1613 
L 953 1613 
Q 991 1019 1311 708 
Q 1631 397 2203 397 
Q 2534 397 2845 478 
Q 3156 559 3463 722 
L 3463 178 
Q 3153 47 2828 -22 
Q 2503 -91 2169 -91 
Q 1331 -91 842 396 
Q 353 884 353 1716 
Q 353 2575 817 3079 
Q 1281 3584 2069 3584 
Q 2775 3584 3186 3129 
Q 3597 2675 3597 1894 
z
M 3022 2063 
Q 3016 2534 2758 2815 
Q 2500 3097 2075 3097 
Q 1594 3097 1305 2825 
Q 1016 2553 972 2059 
L 3022 2063 
z
" transform="scale(0.015625)"/>
     <path id="DejaVuSans-6c" d="M 603 4863 
L 1178 4863 
L 1178 0 
L 603 0 
L 603 4863 
z
" transform="scale(0.015625)"/>
     <path id="DejaVuSans-61" d="M 2194 1759 
Q 1497 1759 1228 1600 
Q 959 1441 959 1056 
Q 959 750 1161 570 
Q 1363 391 1709 391 
Q 2188 391 2477 730 
Q 2766 1069 2766 1631 
L 2766 1759 
L 2194 1759 
z
M 3341 1997 
L 3341 0 
L 2766 0 
L 2766 531 
Q 2569 213 2275 61 
Q 1981 -91 1556 -91 
Q 1019 -91 701 211 
Q 384 513 384 1019 
Q 384 1609 779 1909 
Q 1175 2209 1959 2209 
L 2766 2209 
L 2766 2266 
Q 2766 2663 2505 2880 
Q 2244 3097 1772 3097 
Q 1472 3097 1187 3025 
Q 903 2953 641 2809 
L 641 3341 
Q 956 3463 1253 3523 
Q 1550 3584 1831 3584 
Q 2591 3584 2966 3190 
Q 3341 2797 3341 1997 
z
" transform="scale(0.015625)"/>
     <path id="DejaVuSans-20" transform="scale(0.015625)"/>
     <path id="DejaVuSans-64" d="M 2906 2969 
L 2906 4863 
L 3481 4863 
L 3481 0 
L 2906 0 
L 2906 525 
Q 2725 213 2448 61 
Q 2172 -91 1784 -91 
Q 1150 -91 751 415 
Q 353 922 353 1747 
Q 353 2572 751 3078 
Q 1150 3584 1784 3584 
Q 2172 3584 2448 3432 
Q 2725 3281 2906 2969 
z
M 947 1747 
Q 947 1113 1208 752 
Q 1469 391 1925 391 
Q 2381 391 2643 752 
Q 2906 1113 2906 1747 
Q 2906 2381 2643 2742 
Q 2381 3103 1925 3103 
Q 1469 3103 1208 2742 
Q 947 2381 947 1747 
z
" transform="scale(0.015625)"/>
     <path id="DejaVuSans-69" d="M 603 3500 
L 1178 3500 
L 1178 0 
L 603 0 
L 603 3500 
z
M 603 4863 
L 1178 4863 
L 1178 4134 
L 603 4134 
L 603 4863 
z
" transform="scale(0.015625)"/>
     <path id="DejaVuSans-73" d="M 2834 3397 
L 2834 2853 
Q 2591 2978 2328 3040 
Q 2066 3103 1784 3103 
Q 1356 3103 1142 2972 
Q 928 2841 928 2578 
Q 928 2378 1081 2264 
Q 1234 2150 1697 2047 
L 1894 2003 
Q 2506 1872 2764 1633 
Q 3022 1394 3022 966 
Q 3022 478 2636 193 
Q 2250 -91 1575 -91 
Q 1294 -91 989 -36 
Q 684 19 347 128 
L 347 722 
Q 666 556 975 473 
Q 1284 391 1588 391 
Q 1994 391 2212 530 
Q 2431 669 2431 922 
Q 2431 1156 2273 1281 
Q 2116 1406 1581 1522 
L 1381 1569 
Q 847 1681 609 1914 
Q 372 2147 372 2553 
Q 372 3047 722 3315 
Q 1072 3584 1716 3584 
Q 2034 3584 2315 3537 
Q 2597 3491 2834 3397 
z
" transform="scale(0.015625)"/>
     <path id="DejaVuSans-6f" d="M 1959 3097 
Q 1497 3097 1228 2736 
Q 959 2375 959 1747 
Q 959 1119 1226 758 
Q 1494 397 1959 397 
Q 2419 397 2687 759 
Q 2956 1122 2956 1747 
Q 2956 2369 2687 2733 
Q 2419 3097 1959 3097 
z
M 1959 3584 
Q 2709 3584 3137 3096 
Q 3566 2609 3566 1747 
Q 3566 888 3137 398 
Q 2709 -91 1959 -91 
Q 1206 -91 779 398 
Q 353 888 353 1747 
Q 353 2609 779 3096 
Q 1206 3584 1959 3584 
z
" transform="scale(0.015625)"/>
     <path id="DejaVuSans-63" d="M 3122 3366 
L 3122 2828 
Q 2878 2963 2633 3030 
Q 2388 3097 2138 3097 
Q 1578 3097 1268 2742 
Q 959 2388 959 1747 
Q 959 1106 1268 751 
Q 1578 397 2138 397 
Q 2388 397 2633 464 
Q 2878 531 3122 666 
L 3122 134 
Q 2881 22 2623 -34 
Q 2366 -91 2075 -91 
Q 1284 -91 818 406 
Q 353 903 353 1747 
Q 353 2603 823 3093 
Q 1294 3584 2113 3584 
Q 2378 3584 2631 3529 
Q 2884 3475 3122 3366 
z
" transform="scale(0.015625)"/>
     <path id="DejaVuSans-7a" d="M 353 3500 
L 3084 3500 
L 3084 2975 
L 922 459 
L 3084 459 
L 3084 0 
L 275 0 
L 275 525 
L 2438 3041 
L 353 3041 
L 353 3500 
z
" transform="scale(0.015625)"/>
     <path id="DejaVuSans-6e" d="M 3513 2113 
L 3513 0 
L 2938 0 
L 2938 2094 
Q 2938 2591 2744 2837 
Q 2550 3084 2163 3084 
Q 1697 3084 1428 2787 
Q 1159 2491 1159 1978 
L 1159 0 
L 581 0 
L 581 3500 
L 1159 3500 
L 1159 2956 
Q 1366 3272 1645 3428 
Q 1925 3584 2291 3584 
Q 2894 3584 3203 3211 
Q 3513 2838 3513 2113 
z
" transform="scale(0.015625)"/>
     <path id="DejaVuSans-70" d="M 1159 525 
L 1159 -1331 
L 581 -1331 
L 581 3500 
L 1159 3500 
L 1159 2969 
Q 1341 3281 1617 3432 
Q 1894 3584 2278 3584 
Q 2916 3584 3314 3078 
Q 3713 2572 3713 1747 
Q 3713 922 3314 415 
Q 2916 -91 2278 -91 
Q 1894 -91 1617 61 
Q 1341 213 1159 525 
z
M 3116 1747 
Q 3116 2381 2855 2742 
Q 2594 3103 2138 3103 
Q 1681 3103 1420 2742 
Q 1159 2381 1159 1747 
Q 1159 1113 1420 752 
Q 1681 391 2138 391 
Q 2594 391 2855 752 
Q 3116 1113 3116 1747 
z
" transform="scale(0.015625)"/>
     <path id="DejaVuSans-67" d="M 2906 1791 
Q 2906 2416 2648 2759 
Q 2391 3103 1925 3103 
Q 1463 3103 1205 2759 
Q 947 2416 947 1791 
Q 947 1169 1205 825 
Q 1463 481 1925 481 
Q 2391 481 2648 825 
Q 2906 1169 2906 1791 
z
M 3481 434 
Q 3481 -459 3084 -895 
Q 2688 -1331 1869 -1331 
Q 1566 -1331 1297 -1286 
Q 1028 -1241 775 -1147 
L 775 -588 
Q 1028 -725 1275 -790 
Q 1522 -856 1778 -856 
Q 2344 -856 2625 -561 
Q 2906 -266 2906 331 
L 2906 616 
Q 2728 306 2450 153 
Q 2172 0 1784 0 
Q 1141 0 747 490 
Q 353 981 353 1791 
Q 353 2603 747 3093 
Q 1141 3584 1784 3584 
Q 2172 3584 2450 3431 
Q 2728 3278 2906 2969 
L 2906 3500 
L 3481 3500 
L 3481 434 
z
" transform="scale(0.015625)"/>
     <path id="STIXGeneral-Regular-27c2" d="M 4102 0 
L 333 0 
L 333 422 
L 2010 422 
L 2010 4237 
L 2432 4237 
L 2432 422 
L 4102 422 
L 4102 0 
z
" transform="scale(0.015625)"/>
     <path id="DejaVuSans-3b" d="M 750 3309 
L 1409 3309 
L 1409 2516 
L 750 2516 
L 750 3309 
z
M 750 794 
L 1409 794 
L 1409 256 
L 897 -744 
L 494 -744 
L 750 256 
L 750 794 
z
" transform="scale(0.015625)"/>
     <path id="DejaVuSans-76" d="M 191 3500 
L 800 3500 
L 1894 563 
L 2988 3500 
L 3597 3500 
L 2284 0 
L 1503 0 
L 191 3500 
z
" transform="scale(0.015625)"/>
     <path id="DejaVuSans-74" d="M 1172 4494 
L 1172 3500 
L 2356 3500 
L 2356 3053 
L 1172 3053 
L 1172 1153 
Q 1172 725 1289 603 
Q 1406 481 1766 481 
L 2356 481 
L 2356 0 
L 1766 0 
Q 1100 0 847 248 
Q 594 497 594 1153 
L 594 3053 
L 172 3053 
L 172 3500 
L 594 3500 
L 594 4494 
L 1172 4494 
z
" transform="scale(0.015625)"/>
     <path id="DejaVuSans-2e" d="M 684 794 
L 1344 794 
L 1344 0 
L 684 0 
L 684 794 
z
" transform="scale(0.015625)"/>
     <path id="DejaVuSans-49" d="M 628 4666 
L 1259 4666 
L 1259 0 
L 628 0 
L 628 4666 
z
" transform="scale(0.015625)"/>
     <path id="DejaVuSans-72" d="M 2631 2963 
Q 2534 3019 2420 3045 
Q 2306 3072 2169 3072 
Q 1681 3072 1420 2755 
Q 1159 2438 1159 1844 
L 1159 0 
L 581 0 
L 581 3500 
L 1159 3500 
L 1159 2956 
Q 1341 3275 1631 3429 
Q 1922 3584 2338 3584 
Q 2397 3584 2469 3576 
Q 2541 3569 2628 3553 
L 2631 2963 
z
" transform="scale(0.015625)"/>
     <path id="DejaVuSans-75" d="M 544 1381 
L 544 3500 
L 1119 3500 
L 1119 1403 
Q 1119 906 1312 657 
Q 1506 409 1894 409 
Q 2359 409 2629 706 
Q 2900 1003 2900 1516 
L 2900 3500 
L 3475 3500 
L 3475 0 
L 2900 0 
L 2900 538 
Q 2691 219 2414 64 
Q 2138 -91 1772 -91 
Q 1169 -91 856 284 
Q 544 659 544 1381 
z
M 1991 3584 
L 1991 3584 
z
" transform="scale(0.015625)"/>
     <path id="DejaVuSans-42" d="M 1259 2228 
L 1259 519 
L 2272 519 
Q 2781 519 3026 730 
Q 3272 941 3272 1375 
Q 3272 1813 3026 2020 
Q 2781 2228 2272 2228 
L 1259 2228 
z
M 1259 4147 
L 1259 2741 
L 2194 2741 
Q 2656 2741 2882 2914 
Q 3109 3088 3109 3444 
Q 3109 3797 2882 3972 
Q 2656 4147 2194 4147 
L 1259 4147 
z
M 628 4666 
L 2241 4666 
Q 2963 4666 3353 4366 
Q 3744 4066 3744 3513 
Q 3744 3084 3544 2831 
Q 3344 2578 2956 2516 
Q 3422 2416 3680 2098 
Q 3938 1781 3938 1306 
Q 3938 681 3513 340 
Q 3088 0 2303 0 
L 628 0 
L 628 4666 
z
" transform="scale(0.015625)"/>
     <path id="DejaVuSans-68" d="M 3513 2113 
L 3513 0 
L 2938 0 
L 2938 2094 
Q 2938 2591 2744 2837 
Q 2550 3084 2163 3084 
Q 1697 3084 1428 2787 
Q 1159 2491 1159 1978 
L 1159 0 
L 581 0 
L 581 4863 
L 1159 4863 
L 1159 2956 
Q 1366 3272 1645 3428 
Q 1925 3584 2291 3584 
Q 2894 3584 3203 3211 
Q 3513 2838 3513 2113 
z
" transform="scale(0.015625)"/>
     <path id="DejaVuSans-66" d="M 2375 4863 
L 2375 4384 
L 1825 4384 
Q 1516 4384 1395 4259 
Q 1275 4134 1275 3809 
L 1275 3500 
L 2222 3500 
L 2222 3053 
L 1275 3053 
L 1275 0 
L 697 0 
L 697 3053 
L 147 3053 
L 147 3500 
L 697 3500 
L 697 3744 
Q 697 4328 969 4595 
Q 1241 4863 1831 4863 
L 2375 4863 
z
" transform="scale(0.015625)"/>
    </defs>
    <use xlink:href="#DejaVuSans-4e" transform="translate(0 0.90625)"/>
    <use xlink:href="#DejaVuSans-65" transform="translate(74.804688 0.90625)"/>
    <use xlink:href="#DejaVuSans-6c" transform="translate(136.328125 0.90625)"/>
    <use xlink:href="#DejaVuSans-6c" transform="translate(164.111328 0.90625)"/>
    <use xlink:href="#DejaVuSans-61" transform="translate(191.894531 0.90625)"/>
    <use xlink:href="#DejaVuSans-20" transform="translate(253.173828 0.90625)"/>
    <use xlink:href="#DejaVuSans-64" transform="translate(284.960938 0.90625)"/>
    <use xlink:href="#DejaVuSans-69" transform="translate(348.4375 0.90625)"/>
    <use xlink:href="#DejaVuSans-73" transform="translate(376.220703 0.90625)"/>
    <use xlink:href="#DejaVuSans-6c" transform="translate(428.320312 0.90625)"/>
    <use xlink:href="#DejaVuSans-6f" transform="translate(456.103516 0.90625)"/>
    <use xlink:href="#DejaVuSans-63" transform="translate(517.285156 0.90625)"/>
    <use xlink:href="#DejaVuSans-61" transform="translate(572.265625 0.90625)"/>
    <use xlink:href="#DejaVuSans-7a" transform="translate(633.544922 0.90625)"/>
    <use xlink:href="#DejaVuSans-69" transform="translate(686.035156 0.90625)"/>
    <use xlink:href="#DejaVuSans-6f" transform="translate(713.818359 0.90625)"/>
    <use xlink:href="#DejaVuSans-6e" transform="translate(775 0.90625)"/>
    <use xlink:href="#DejaVuSans-65" transform="translate(838.378906 0.90625)"/>
    <use xlink:href="#DejaVuSans-20" transform="translate(899.902344 0.90625)"/>
    <use xlink:href="#DejaVuSans-61" transform="translate(931.689453 0.90625)"/>
    <use xlink:href="#DejaVuSans-20" transform="translate(992.96875 0.90625)"/>
    <use xlink:href="#DejaVuSans-73" transform="translate(1024.755859 0.90625)"/>
    <use xlink:href="#DejaVuSans-70" transform="translate(1076.855469 0.90625)"/>
    <use xlink:href="#DejaVuSans-69" transform="translate(1140.332031 0.90625)"/>
    <use xlink:href="#DejaVuSans-67" transform="translate(1168.115234 0.90625)"/>
    <use xlink:href="#DejaVuSans-6f" transform="translate(1231.591797 0.90625)"/>
    <use xlink:href="#DejaVuSans-6c" transform="translate(1292.773438 0.90625)"/>
    <use xlink:href="#DejaVuSans-6f" transform="translate(1320.556641 0.90625)"/>
    <use xlink:href="#DejaVuSans-20" transform="translate(1381.738281 0.90625)"/>
    <use xlink:href="#DejaVuSans-Bold-42" transform="translate(1413.525391 0.90625)"/>
    <use xlink:href="#DejaVuSans-Oblique-64" transform="translate(1490.703125 -15.5) scale(0.7)"/>
    <use xlink:href="#STIXGeneral-Regular-27c2" transform="translate(1557.353516 0.90625)"/>
    <use xlink:href="#DejaVuSans-Bold-4c" transform="translate(1646.135925 0.90625)"/>
    <use xlink:href="#DejaVuSans-Oblique-64" transform="translate(1710.81366 -15.5) scale(0.7)"/>
    <use xlink:href="#DejaVuSans-3b" transform="translate(1757.981628 0.90625)"/>
    <use xlink:href="#DejaVuSans-20" transform="translate(1791.673035 0.90625)"/>
    <use xlink:href="#DejaVuSans-6e" transform="translate(1823.460144 0.90625)"/>
    <use xlink:href="#DejaVuSans-65" transform="translate(1886.83905 0.90625)"/>
    <use xlink:href="#DejaVuSans-6c" transform="translate(1948.362488 0.90625)"/>
    <use xlink:href="#DejaVuSans-6c" transform="translate(1976.145691 0.90625)"/>
    <use xlink:href="#DejaVuSans-61" transform="translate(2003.928894 0.90625)"/>
    <use xlink:href="#DejaVuSans-20" transform="translate(2065.208191 0.90625)"/>
    <use xlink:href="#DejaVuSans-64" transform="translate(2096.9953 0.90625)"/>
    <use xlink:href="#DejaVuSans-69" transform="translate(2160.471863 0.90625)"/>
    <use xlink:href="#DejaVuSans-73" transform="translate(2188.255066 0.90625)"/>
    <use xlink:href="#DejaVuSans-6c" transform="translate(2240.354675 0.90625)"/>
    <use xlink:href="#DejaVuSans-6f" transform="translate(2268.137878 0.90625)"/>
    <use xlink:href="#DejaVuSans-63" transform="translate(2329.319519 0.90625)"/>
    <use xlink:href="#DejaVuSans-61" transform="translate(2384.299988 0.90625)"/>
    <use xlink:href="#DejaVuSans-7a" transform="translate(2445.579285 0.90625)"/>
    <use xlink:href="#DejaVuSans-69" transform="translate(2498.069519 0.90625)"/>
    <use xlink:href="#DejaVuSans-6f" transform="translate(2525.852722 0.90625)"/>
    <use xlink:href="#DejaVuSans-6e" transform="translate(2587.034363 0.90625)"/>
    <use xlink:href="#DejaVuSans-65" transform="translate(2650.413269 0.90625)"/>
    <use xlink:href="#DejaVuSans-20" transform="translate(2711.936707 0.90625)"/>
    <use xlink:href="#DejaVuSans-61" transform="translate(2743.723816 0.90625)"/>
    <use xlink:href="#DejaVuSans-20" transform="translate(2805.003113 0.90625)"/>
    <use xlink:href="#DejaVuSans-76" transform="translate(2836.790222 0.90625)"/>
    <use xlink:href="#DejaVuSans-69" transform="translate(2895.96991 0.90625)"/>
    <use xlink:href="#DejaVuSans-74" transform="translate(2923.753113 0.90625)"/>
    <use xlink:href="#DejaVuSans-65" transform="translate(2962.962097 0.90625)"/>
    <use xlink:href="#DejaVuSans-20" transform="translate(3024.485535 0.90625)"/>
    <use xlink:href="#DejaVuSans-Bold-42" transform="translate(3056.272644 0.90625)"/>
    <use xlink:href="#DejaVuSans-Oblique-64" transform="translate(3133.450378 -15.5) scale(0.7)"/>
    <use xlink:href="#DejaVuSans-2225" transform="translate(3200.100769 0.90625)"/>
    <use xlink:href="#DejaVuSans-Bold-4c" transform="translate(3269.583191 0.90625)"/>
    <use xlink:href="#DejaVuSans-Oblique-64" transform="translate(3334.260925 -15.5) scale(0.7)"/>
    <use xlink:href="#DejaVuSans-2e" transform="translate(3381.428894 0.90625)"/>
    <use xlink:href="#DejaVuSans-20" transform="translate(3413.216003 0.90625)"/>
    <use xlink:href="#DejaVuSans-49" transform="translate(3445.003113 0.90625)"/>
    <use xlink:href="#DejaVuSans-6c" transform="translate(3474.4953 0.90625)"/>
    <use xlink:href="#DejaVuSans-20" transform="translate(3502.278503 0.90625)"/>
    <use xlink:href="#DejaVuSans-63" transform="translate(3534.065613 0.90625)"/>
    <use xlink:href="#DejaVuSans-69" transform="translate(3589.046082 0.90625)"/>
    <use xlink:href="#DejaVuSans-72" transform="translate(3616.829285 0.90625)"/>
    <use xlink:href="#DejaVuSans-63" transform="translate(3657.942566 0.90625)"/>
    <use xlink:href="#DejaVuSans-75" transform="translate(3712.923035 0.90625)"/>
    <use xlink:href="#DejaVuSans-69" transform="translate(3776.301941 0.90625)"/>
    <use xlink:href="#DejaVuSans-74" transform="translate(3804.085144 0.90625)"/>
    <use xlink:href="#DejaVuSans-6f" transform="translate(3843.294128 0.90625)"/>
    <use xlink:href="#DejaVuSans-20" transform="translate(3904.475769 0.90625)"/>
    <use xlink:href="#DejaVuSans-64" transform="translate(3936.262878 0.90625)"/>
    <use xlink:href="#DejaVuSans-69" transform="translate(3999.739441 0.90625)"/>
    <use xlink:href="#DejaVuSans-20" transform="translate(4027.522644 0.90625)"/>
    <use xlink:href="#DejaVuSans-42" transform="translate(4059.309753 0.90625)"/>
    <use xlink:href="#DejaVuSans-75" transform="translate(4127.913269 0.90625)"/>
    <use xlink:href="#DejaVuSans-72" transform="translate(4191.292175 0.90625)"/>
    <use xlink:href="#DejaVuSans-67" transform="translate(4232.405457 0.90625)"/>
    <use xlink:href="#DejaVuSans-65" transform="translate(4295.882019 0.90625)"/>
    <use xlink:href="#DejaVuSans-72" transform="translate(4357.405457 0.90625)"/>
    <use xlink:href="#DejaVuSans-73" transform="translate(4398.518738 0.90625)"/>
    <use xlink:href="#DejaVuSans-20" transform="translate(4450.618347 0.90625)"/>
    <use xlink:href="#DejaVuSans-6e" transform="translate(4482.405457 0.90625)"/>
    <use xlink:href="#DejaVuSans-6f" transform="translate(4545.784363 0.90625)"/>
    <use xlink:href="#DejaVuSans-6e" transform="translate(4606.966003 0.90625)"/>
    <use xlink:href="#DejaVuSans-20" transform="translate(4670.34491 0.90625)"/>
    <use xlink:href="#DejaVuSans-73" transform="translate(4702.132019 0.90625)"/>
    <use xlink:href="#DejaVuSans-69" transform="translate(4754.231628 0.90625)"/>
    <use xlink:href="#DejaVuSans-20" transform="translate(4782.014832 0.90625)"/>
    <use xlink:href="#DejaVuSans-63" transform="translate(4813.801941 0.90625)"/>
    <use xlink:href="#DejaVuSans-68" transform="translate(4868.78241 0.90625)"/>
    <use xlink:href="#DejaVuSans-69" transform="translate(4932.161316 0.90625)"/>
    <use xlink:href="#DejaVuSans-75" transform="translate(4959.944519 0.90625)"/>
    <use xlink:href="#DejaVuSans-64" transform="translate(5023.323425 0.90625)"/>
    <use xlink:href="#DejaVuSans-65" transform="translate(5086.799988 0.90625)"/>
    <use xlink:href="#DejaVuSans-20" transform="translate(5148.323425 0.90625)"/>
    <use xlink:href="#DejaVuSans-69" transform="translate(5180.110535 0.90625)"/>
    <use xlink:href="#DejaVuSans-6e" transform="translate(5207.893738 0.90625)"/>
    <use xlink:href="#DejaVuSans-20" transform="translate(5271.272644 0.90625)"/>
    <use xlink:href="#DejaVuSans-70" transform="translate(5303.059753 0.90625)"/>
    <use xlink:href="#DejaVuSans-72" transform="translate(5366.536316 0.90625)"/>
    <use xlink:href="#DejaVuSans-65" transform="translate(5407.649597 0.90625)"/>
    <use xlink:href="#DejaVuSans-73" transform="translate(5469.173035 0.90625)"/>
    <use xlink:href="#DejaVuSans-65" transform="translate(5521.272644 0.90625)"/>
    <use xlink:href="#DejaVuSans-6e" transform="translate(5582.796082 0.90625)"/>
    <use xlink:href="#DejaVuSans-7a" transform="translate(5646.174988 0.90625)"/>
    <use xlink:href="#DejaVuSans-61" transform="translate(5698.665222 0.90625)"/>
    <use xlink:href="#DejaVuSans-20" transform="translate(5759.944519 0.90625)"/>
    <use xlink:href="#DejaVuSans-64" transform="translate(5791.731628 0.90625)"/>
    <use xlink:href="#DejaVuSans-65" transform="translate(5855.208191 0.90625)"/>
    <use xlink:href="#DejaVuSans-6c" transform="translate(5916.731628 0.90625)"/>
    <use xlink:href="#DejaVuSans-20" transform="translate(5944.514832 0.90625)"/>
    <use xlink:href="#DejaVuSans-64" transform="translate(5976.301941 0.90625)"/>
    <use xlink:href="#DejaVuSans-69" transform="translate(6039.778503 0.90625)"/>
    <use xlink:href="#DejaVuSans-66" transform="translate(6067.561707 0.90625)"/>
    <use xlink:href="#DejaVuSans-65" transform="translate(6102.766785 0.90625)"/>
    <use xlink:href="#DejaVuSans-74" transform="translate(6164.290222 0.90625)"/>
    <use xlink:href="#DejaVuSans-74" transform="translate(6203.499207 0.90625)"/>
    <use xlink:href="#DejaVuSans-6f" transform="translate(6242.708191 0.90625)"/>
    <use xlink:href="#DejaVuSans-2e" transform="translate(6303.889832 0.90625)"/>
   </g>
  </g>
 </g>
 <defs>
  <clipPath id="p4c8c17e77a">
   <rect x="16.566082" y="82.8" width="253.604678" height="213.978947"/>
  </clipPath>
  <clipPath id="pc3c7343407">
   <rect x="442.675173" y="82.8" width="253.604678" height="213.978947"/>
  </clipPath>
  <clipPath id="p805e0419a5">
   <rect x="7.2" y="364.863158" width="272.336842" height="272.336842"/>
  </clipPath>
  <clipPath id="p200a274fd5">
   <rect x="433.309091" y="364.863158" width="272.336842" height="272.336842"/>
  </clipPath>
 </defs>
</svg>
