<?xml version="1.0" encoding="utf-8" standalone="no"?>
<!DOCTYPE svg PUBLIC "-//W3C//DTD SVG 1.1//EN"
  "http://www.w3.org/Graphics/SVG/1.1/DTD/svg11.dtd">
<svg xmlns:xlink="http://www.w3.org/1999/xlink" width="597.970625pt" height="411.377143pt" viewBox="0 0 597.970625 411.377143" xmlns="http://www.w3.org/2000/svg" version="1.1">
 <metadata>
  <rdf:RDF xmlns:dc="http://purl.org/dc/elements/1.1/" xmlns:cc="http://creativecommons.org/ns#" xmlns:rdf="http://www.w3.org/1999/02/22-rdf-syntax-ns#">
   <cc:Work>
    <dc:type rdf:resource="http://purl.org/dc/dcmitype/StillImage"/>
    <dc:date>2026-06-16T08:10:25.929336</dc:date>
    <dc:format>image/svg+xml</dc:format>
    <dc:creator>
     <cc:Agent>
      <dc:title>Matplotlib v3.10.8, https://matplotlib.org/</dc:title>
     </cc:Agent>
    </dc:creator>
   </cc:Work>
  </rdf:RDF>
 </metadata>
 <defs>
  <style type="text/css">*{stroke-linejoin: round; stroke-linecap: butt}</style>
 </defs>
 <g id="figure_1">
  <g id="patch_1">
   <path d="M 0 411.377143 
L 597.970625 411.377143 
L 597.970625 0 
L 0 0 
z
" style="fill: #ffffff"/>
  </g>
  <g id="axes_1">
   <g id="patch_2">
    <path d="M 126.635312 141.518571 
C 127.269527 141.518571 127.877851 141.266595 128.326308 140.818138 
C 128.774765 140.369681 129.026741 139.761357 129.026741 139.127143 
C 129.026741 138.492929 128.774765 137.884605 128.326308 137.436147 
C 127.877851 136.98769 127.269527 136.735714 126.635312 136.735714 
C 126.001098 136.735714 125.392774 136.98769 124.944317 137.436147 
C 124.49586 137.884605 124.243884 138.492929 124.243884 139.127143 
C 124.243884 139.761357 124.49586 140.369681 124.944317 140.818138 
C 125.392774 141.266595 126.001098 141.518571 126.635312 141.518571 
z
" clip-path="url(#pb6517c5089)" style="fill: #1f77b4"/>
   </g>
   <g id="patch_3">
    <path d="M 116.000578 125.670861 
Q 126.636024 114.319808 136.048464 124.366909 
" clip-path="url(#pb6517c5089)" style="fill: none; stroke: #000000; stroke-width: 1.6; stroke-linecap: round"/>
    <path d="M 134.390751 118.794479 
L 136.048464 124.366909 
L 130.595891 122.349622 
z
" clip-path="url(#pb6517c5089)" style="fill: #1f77b4; stroke: #000000; stroke-width: 1.6; stroke-linecap: round"/>
   </g>
   <g id="patch_4">
    <path d="M 305.257784 289.034699 
Q 315.956651 276.589691 325.489345 287.678011 
" clip-path="url(#pb6517c5089)" style="fill: none; stroke: #000000; stroke-width: 1.6; stroke-linecap: round"/>
    <path d="M 324.070976 282.039906 
L 325.489345 287.678011 
L 320.127839 285.429843 
z
" clip-path="url(#pb6517c5089)" style="fill: #1f77b4; stroke: #000000; stroke-width: 1.6; stroke-linecap: round"/>
   </g>
   <g id="PathCollection_1">
    <defs>
     <path id="m6579679d98" d="M 0 1.732051 
C 0.459345 1.732051 0.899939 1.549551 1.224745 1.224745 
C 1.549551 0.899939 1.732051 0.459345 1.732051 0 
C 1.732051 -0.459345 1.549551 -0.899939 1.224745 -1.224745 
C 0.899939 -1.549551 0.459345 -1.732051 0 -1.732051 
C -0.459345 -1.732051 -0.899939 -1.549551 -1.224745 -1.224745 
C -1.549551 -0.899939 -1.732051 -0.459345 -1.732051 0 
C -1.732051 0.459345 -1.549551 0.899939 -1.224745 1.224745 
C -0.899939 1.549551 -0.459345 1.732051 0 1.732051 
z
" style="stroke: #1f77b4"/>
    </defs>
    <g clip-path="url(#pb6517c5089)">
     <use xlink:href="#m6579679d98" x="72.82817" y="192.934286" style="fill: #1f77b4; stroke: #1f77b4"/>
     <use xlink:href="#m6579679d98" x="72.82817" y="171.012857" style="fill: #1f77b4; stroke: #1f77b4"/>
     <use xlink:href="#m6579679d98" x="72.82817" y="149.091429" style="fill: #1f77b4; stroke: #1f77b4"/>
     <use xlink:href="#m6579679d98" x="72.82817" y="127.17" style="fill: #1f77b4; stroke: #1f77b4"/>
     <use xlink:href="#m6579679d98" x="72.82817" y="105.248571" style="fill: #1f77b4; stroke: #1f77b4"/>
     <use xlink:href="#m6579679d98" x="94.749598" y="192.934286" style="fill: #1f77b4; stroke: #1f77b4"/>
     <use xlink:href="#m6579679d98" x="94.749598" y="171.012857" style="fill: #1f77b4; stroke: #1f77b4"/>
     <use xlink:href="#m6579679d98" x="94.749598" y="149.091429" style="fill: #1f77b4; stroke: #1f77b4"/>
     <use xlink:href="#m6579679d98" x="94.749598" y="127.17" style="fill: #1f77b4; stroke: #1f77b4"/>
     <use xlink:href="#m6579679d98" x="94.749598" y="105.248571" style="fill: #1f77b4; stroke: #1f77b4"/>
     <use xlink:href="#m6579679d98" x="116.671027" y="192.934286" style="fill: #1f77b4; stroke: #1f77b4"/>
     <use xlink:href="#m6579679d98" x="116.671027" y="171.012857" style="fill: #1f77b4; stroke: #1f77b4"/>
     <use xlink:href="#m6579679d98" x="116.671027" y="149.091429" style="fill: #1f77b4; stroke: #1f77b4"/>
     <use xlink:href="#m6579679d98" x="116.671027" y="127.17" style="fill: #1f77b4; stroke: #1f77b4"/>
     <use xlink:href="#m6579679d98" x="116.671027" y="105.248571" style="fill: #1f77b4; stroke: #1f77b4"/>
     <use xlink:href="#m6579679d98" x="138.592455" y="192.934286" style="fill: #1f77b4; stroke: #1f77b4"/>
     <use xlink:href="#m6579679d98" x="138.592455" y="171.012857" style="fill: #1f77b4; stroke: #1f77b4"/>
     <use xlink:href="#m6579679d98" x="138.592455" y="149.091429" style="fill: #1f77b4; stroke: #1f77b4"/>
     <use xlink:href="#m6579679d98" x="138.592455" y="127.17" style="fill: #1f77b4; stroke: #1f77b4"/>
     <use xlink:href="#m6579679d98" x="138.592455" y="105.248571" style="fill: #1f77b4; stroke: #1f77b4"/>
     <use xlink:href="#m6579679d98" x="160.513884" y="192.934286" style="fill: #1f77b4; stroke: #1f77b4"/>
     <use xlink:href="#m6579679d98" x="160.513884" y="171.012857" style="fill: #1f77b4; stroke: #1f77b4"/>
     <use xlink:href="#m6579679d98" x="160.513884" y="149.091429" style="fill: #1f77b4; stroke: #1f77b4"/>
     <use xlink:href="#m6579679d98" x="160.513884" y="127.17" style="fill: #1f77b4; stroke: #1f77b4"/>
     <use xlink:href="#m6579679d98" x="160.513884" y="105.248571" style="fill: #1f77b4; stroke: #1f77b4"/>
    </g>
   </g>
   <g id="text_1">
    <!-- a -->
    <g transform="translate(99.931027 123.184286) scale(0.09 -0.09)">
     <defs>
      <path id="DejaVuSans-61" d="M 2194 1759 
Q 1497 1759 1228 1600 
Q 959 1441 959 1056 
Q 959 750 1161 570 
Q 1363 391 1709 391 
Q 2188 391 2477 730 
Q 2766 1069 2766 1631 
L 2766 1759 
L 2194 1759 
z
M 3341 1997 
L 3341 0 
L 2766 0 
L 2766 531 
Q 2569 213 2275 61 
Q 1981 -91 1556 -91 
Q 1019 -91 701 211 
Q 384 513 384 1019 
Q 384 1609 779 1909 
Q 1175 2209 1959 2209 
L 2766 2209 
L 2766 2266 
Q 2766 2663 2505 2880 
Q 2244 3097 1772 3097 
Q 1472 3097 1187 3025 
Q 903 2953 641 2809 
L 641 3341 
Q 956 3463 1253 3523 
Q 1550 3584 1831 3584 
Q 2591 3584 2966 3190 
Q 3341 2797 3341 1997 
z
" transform="scale(0.015625)"/>
     </defs>
     <use xlink:href="#DejaVuSans-61"/>
    </g>
   </g>
   <g id="text_2">
    <!-- b -->
    <g transform="translate(121.852455 123.184286) scale(0.09 -0.09)">
     <defs>
      <path id="DejaVuSans-62" d="M 3116 1747 
Q 3116 2381 2855 2742 
Q 2594 3103 2138 3103 
Q 1681 3103 1420 2742 
Q 1159 2381 1159 1747 
Q 1159 1113 1420 752 
Q 1681 391 2138 391 
Q 2594 391 2855 752 
Q 3116 1113 3116 1747 
z
M 1159 2969 
Q 1341 3281 1617 3432 
Q 1894 3584 2278 3584 
Q 2916 3584 3314 3078 
Q 3713 2572 3713 1747 
Q 3713 922 3314 415 
Q 2916 -91 2278 -91 
Q 1894 -91 1617 61 
Q 1341 213 1159 525 
L 1159 0 
L 581 0 
L 581 4863 
L 1159 4863 
L 1159 2969 
z
" transform="scale(0.015625)"/>
     </defs>
     <use xlink:href="#DejaVuSans-62"/>
    </g>
   </g>
   <g id="text_3">
    <!-- d -->
    <g transform="translate(99.931027 145.105714) scale(0.09 -0.09)">
     <defs>
      <path id="DejaVuSans-64" d="M 2906 2969 
L 2906 4863 
L 3481 4863 
L 3481 0 
L 2906 0 
L 2906 525 
Q 2725 213 2448 61 
Q 2172 -91 1784 -91 
Q 1150 -91 751 415 
Q 353 922 353 1747 
Q 353 2572 751 3078 
Q 1150 3584 1784 3584 
Q 2172 3584 2448 3432 
Q 2725 3281 2906 2969 
z
M 947 1747 
Q 947 1113 1208 752 
Q 1469 391 1925 391 
Q 2381 391 2643 752 
Q 2906 1113 2906 1747 
Q 2906 2381 2643 2742 
Q 2381 3103 1925 3103 
Q 1469 3103 1208 2742 
Q 947 2381 947 1747 
z
" transform="scale(0.015625)"/>
     </defs>
     <use xlink:href="#DejaVuSans-64"/>
    </g>
   </g>
   <g id="text_4">
    <!-- c -->
    <g transform="translate(121.852455 145.105714) scale(0.09 -0.09)">
     <defs>
      <path id="DejaVuSans-63" d="M 3122 3366 
L 3122 2828 
Q 2878 2963 2633 3030 
Q 2388 3097 2138 3097 
Q 1578 3097 1268 2742 
Q 959 2388 959 1747 
Q 959 1106 1268 751 
Q 1578 397 2138 397 
Q 2388 397 2633 464 
Q 2878 531 3122 666 
L 3122 134 
Q 2881 22 2623 -34 
Q 2366 -91 2075 -91 
Q 1284 -91 818 406 
Q 353 903 353 1747 
Q 353 2603 823 3093 
Q 1294 3584 2113 3584 
Q 2378 3584 2631 3529 
Q 2884 3475 3122 3366 
z
" transform="scale(0.015625)"/>
     </defs>
     <use xlink:href="#DejaVuSans-63"/>
    </g>
   </g>
   <g id="PathCollection_2">
    <defs>
     <path id="m073bead2d8" d="M 0 1.732051 
C 0.459345 1.732051 0.899939 1.549551 1.224745 1.224745 
C 1.549551 0.899939 1.732051 0.459345 1.732051 0 
C 1.732051 -0.459345 1.549551 -0.899939 1.224745 -1.224745 
C 0.899939 -1.549551 0.459345 -1.732051 0 -1.732051 
C -0.459345 -1.732051 -0.899939 -1.549551 -1.224745 -1.224745 
C -1.549551 -0.899939 -1.732051 -0.459345 -1.732051 0 
C -1.732051 0.459345 -1.549551 0.899939 -1.224745 1.224745 
C -0.899939 1.549551 -0.459345 1.732051 0 1.732051 
z
" style="stroke: #ff7f0e"/>
    </defs>
    <g clip-path="url(#pb6517c5089)">
     <use xlink:href="#m073bead2d8" x="272.113884" y="192.934286" style="fill: #ff7f0e; stroke: #ff7f0e"/>
     <use xlink:href="#m073bead2d8" x="272.113884" y="171.012857" style="fill: #ff7f0e; stroke: #ff7f0e"/>
     <use xlink:href="#m073bead2d8" x="272.113884" y="149.091429" style="fill: #ff7f0e; stroke: #ff7f0e"/>
     <use xlink:href="#m073bead2d8" x="272.113884" y="127.17" style="fill: #ff7f0e; stroke: #ff7f0e"/>
     <use xlink:href="#m073bead2d8" x="272.113884" y="105.248571" style="fill: #ff7f0e; stroke: #ff7f0e"/>
     <use xlink:href="#m073bead2d8" x="294.035312" y="192.934286" style="fill: #ff7f0e; stroke: #ff7f0e"/>
     <use xlink:href="#m073bead2d8" x="294.035312" y="171.012857" style="fill: #ff7f0e; stroke: #ff7f0e"/>
     <use xlink:href="#m073bead2d8" x="294.035312" y="149.091429" style="fill: #ff7f0e; stroke: #ff7f0e"/>
     <use xlink:href="#m073bead2d8" x="294.035312" y="127.17" style="fill: #ff7f0e; stroke: #ff7f0e"/>
     <use xlink:href="#m073bead2d8" x="294.035312" y="105.248571" style="fill: #ff7f0e; stroke: #ff7f0e"/>
     <use xlink:href="#m073bead2d8" x="315.956741" y="192.934286" style="fill: #ff7f0e; stroke: #ff7f0e"/>
     <use xlink:href="#m073bead2d8" x="315.956741" y="171.012857" style="fill: #ff7f0e; stroke: #ff7f0e"/>
     <use xlink:href="#m073bead2d8" x="315.956741" y="149.091429" style="fill: #ff7f0e; stroke: #ff7f0e"/>
     <use xlink:href="#m073bead2d8" x="315.956741" y="127.17" style="fill: #ff7f0e; stroke: #ff7f0e"/>
     <use xlink:href="#m073bead2d8" x="315.956741" y="105.248571" style="fill: #ff7f0e; stroke: #ff7f0e"/>
     <use xlink:href="#m073bead2d8" x="337.87817" y="192.934286" style="fill: #ff7f0e; stroke: #ff7f0e"/>
     <use xlink:href="#m073bead2d8" x="337.87817" y="171.012857" style="fill: #ff7f0e; stroke: #ff7f0e"/>
     <use xlink:href="#m073bead2d8" x="337.87817" y="149.091429" style="fill: #ff7f0e; stroke: #ff7f0e"/>
     <use xlink:href="#m073bead2d8" x="337.87817" y="127.17" style="fill: #ff7f0e; stroke: #ff7f0e"/>
     <use xlink:href="#m073bead2d8" x="337.87817" y="105.248571" style="fill: #ff7f0e; stroke: #ff7f0e"/>
     <use xlink:href="#m073bead2d8" x="359.799598" y="192.934286" style="fill: #ff7f0e; stroke: #ff7f0e"/>
     <use xlink:href="#m073bead2d8" x="359.799598" y="171.012857" style="fill: #ff7f0e; stroke: #ff7f0e"/>
     <use xlink:href="#m073bead2d8" x="359.799598" y="149.091429" style="fill: #ff7f0e; stroke: #ff7f0e"/>
     <use xlink:href="#m073bead2d8" x="359.799598" y="127.17" style="fill: #ff7f0e; stroke: #ff7f0e"/>
     <use xlink:href="#m073bead2d8" x="359.799598" y="105.248571" style="fill: #ff7f0e; stroke: #ff7f0e"/>
    </g>
   </g>
   <g id="text_5">
    <!-- b -->
    <g transform="translate(299.216741 123.184286) scale(0.09 -0.09)">
     <use xlink:href="#DejaVuSans-62"/>
    </g>
   </g>
   <g id="text_6">
    <!-- c -->
    <g transform="translate(321.13817 123.184286) scale(0.09 -0.09)">
     <use xlink:href="#DejaVuSans-63"/>
    </g>
   </g>
   <g id="text_7">
    <!-- a -->
    <g transform="translate(299.216741 145.105714) scale(0.09 -0.09)">
     <use xlink:href="#DejaVuSans-61"/>
    </g>
   </g>
   <g id="text_8">
    <!-- d -->
    <g transform="translate(321.13817 145.105714) scale(0.09 -0.09)">
     <use xlink:href="#DejaVuSans-64"/>
    </g>
   </g>
   <g id="PathCollection_3">
    <defs>
     <path id="m2f89f4d77e" d="M 0 1.732051 
C 0.459345 1.732051 0.899939 1.549551 1.224745 1.224745 
C 1.549551 0.899939 1.732051 0.459345 1.732051 0 
C 1.732051 -0.459345 1.549551 -0.899939 1.224745 -1.224745 
C 0.899939 -1.549551 0.459345 -1.732051 0 -1.732051 
C -0.459345 -1.732051 -0.899939 -1.549551 -1.224745 -1.224745 
C -1.549551 -0.899939 -1.732051 -0.459345 -1.732051 0 
C -1.732051 0.459345 -1.549551 0.899939 -1.224745 1.224745 
C -0.899939 1.549551 -0.459345 1.732051 0 1.732051 
z
" style="stroke: #2ca02c"/>
    </defs>
    <g clip-path="url(#pb6517c5089)">
     <use xlink:href="#m2f89f4d77e" x="72.82817" y="352.362857" style="fill: #2ca02c; stroke: #2ca02c"/>
     <use xlink:href="#m2f89f4d77e" x="72.82817" y="330.441429" style="fill: #2ca02c; stroke: #2ca02c"/>
     <use xlink:href="#m2f89f4d77e" x="72.82817" y="308.52" style="fill: #2ca02c; stroke: #2ca02c"/>
     <use xlink:href="#m2f89f4d77e" x="72.82817" y="286.598571" style="fill: #2ca02c; stroke: #2ca02c"/>
     <use xlink:href="#m2f89f4d77e" x="72.82817" y="264.677143" style="fill: #2ca02c; stroke: #2ca02c"/>
     <use xlink:href="#m2f89f4d77e" x="94.749598" y="352.362857" style="fill: #2ca02c; stroke: #2ca02c"/>
     <use xlink:href="#m2f89f4d77e" x="94.749598" y="330.441429" style="fill: #2ca02c; stroke: #2ca02c"/>
     <use xlink:href="#m2f89f4d77e" x="94.749598" y="308.52" style="fill: #2ca02c; stroke: #2ca02c"/>
     <use xlink:href="#m2f89f4d77e" x="94.749598" y="286.598571" style="fill: #2ca02c; stroke: #2ca02c"/>
     <use xlink:href="#m2f89f4d77e" x="94.749598" y="264.677143" style="fill: #2ca02c; stroke: #2ca02c"/>
     <use xlink:href="#m2f89f4d77e" x="116.671027" y="352.362857" style="fill: #2ca02c; stroke: #2ca02c"/>
     <use xlink:href="#m2f89f4d77e" x="116.671027" y="330.441429" style="fill: #2ca02c; stroke: #2ca02c"/>
     <use xlink:href="#m2f89f4d77e" x="116.671027" y="308.52" style="fill: #2ca02c; stroke: #2ca02c"/>
     <use xlink:href="#m2f89f4d77e" x="116.671027" y="286.598571" style="fill: #2ca02c; stroke: #2ca02c"/>
     <use xlink:href="#m2f89f4d77e" x="116.671027" y="264.677143" style="fill: #2ca02c; stroke: #2ca02c"/>
     <use xlink:href="#m2f89f4d77e" x="138.592455" y="352.362857" style="fill: #2ca02c; stroke: #2ca02c"/>
     <use xlink:href="#m2f89f4d77e" x="138.592455" y="330.441429" style="fill: #2ca02c; stroke: #2ca02c"/>
     <use xlink:href="#m2f89f4d77e" x="138.592455" y="308.52" style="fill: #2ca02c; stroke: #2ca02c"/>
     <use xlink:href="#m2f89f4d77e" x="138.592455" y="286.598571" style="fill: #2ca02c; stroke: #2ca02c"/>
     <use xlink:href="#m2f89f4d77e" x="138.592455" y="264.677143" style="fill: #2ca02c; stroke: #2ca02c"/>
     <use xlink:href="#m2f89f4d77e" x="160.513884" y="352.362857" style="fill: #2ca02c; stroke: #2ca02c"/>
     <use xlink:href="#m2f89f4d77e" x="160.513884" y="330.441429" style="fill: #2ca02c; stroke: #2ca02c"/>
     <use xlink:href="#m2f89f4d77e" x="160.513884" y="308.52" style="fill: #2ca02c; stroke: #2ca02c"/>
     <use xlink:href="#m2f89f4d77e" x="160.513884" y="286.598571" style="fill: #2ca02c; stroke: #2ca02c"/>
     <use xlink:href="#m2f89f4d77e" x="160.513884" y="264.677143" style="fill: #2ca02c; stroke: #2ca02c"/>
    </g>
   </g>
   <g id="text_9">
    <!-- a -->
    <g transform="translate(99.931027 282.612857) scale(0.09 -0.09)">
     <use xlink:href="#DejaVuSans-61"/>
    </g>
   </g>
   <g id="text_10">
    <!-- b -->
    <g transform="translate(121.852455 282.612857) scale(0.09 -0.09)">
     <use xlink:href="#DejaVuSans-62"/>
    </g>
   </g>
   <g id="text_11">
    <!-- d -->
    <g transform="translate(99.931027 304.534286) scale(0.09 -0.09)">
     <use xlink:href="#DejaVuSans-64"/>
    </g>
   </g>
   <g id="text_12">
    <!-- c -->
    <g transform="translate(121.852455 304.534286) scale(0.09 -0.09)">
     <use xlink:href="#DejaVuSans-63"/>
    </g>
   </g>
   <g id="PathCollection_4">
    <defs>
     <path id="m44b8bb60d4" d="M 0 1.732051 
C 0.459345 1.732051 0.899939 1.549551 1.224745 1.224745 
C 1.549551 0.899939 1.732051 0.459345 1.732051 0 
C 1.732051 -0.459345 1.549551 -0.899939 1.224745 -1.224745 
C 0.899939 -1.549551 0.459345 -1.732051 0 -1.732051 
C -0.459345 -1.732051 -0.899939 -1.549551 -1.224745 -1.224745 
C -1.549551 -0.899939 -1.732051 -0.459345 -1.732051 0 
C -1.732051 0.459345 -1.549551 0.899939 -1.224745 1.224745 
C -0.899939 1.549551 -0.459345 1.732051 0 1.732051 
z
" style="stroke: #d62728"/>
    </defs>
    <g clip-path="url(#pb6517c5089)">
     <use xlink:href="#m44b8bb60d4" x="272.113884" y="352.362857" style="fill: #d62728; stroke: #d62728"/>
     <use xlink:href="#m44b8bb60d4" x="272.113884" y="330.441429" style="fill: #d62728; stroke: #d62728"/>
     <use xlink:href="#m44b8bb60d4" x="272.113884" y="308.52" style="fill: #d62728; stroke: #d62728"/>
     <use xlink:href="#m44b8bb60d4" x="272.113884" y="286.598571" style="fill: #d62728; stroke: #d62728"/>
     <use xlink:href="#m44b8bb60d4" x="272.113884" y="264.677143" style="fill: #d62728; stroke: #d62728"/>
     <use xlink:href="#m44b8bb60d4" x="294.035312" y="352.362857" style="fill: #d62728; stroke: #d62728"/>
     <use xlink:href="#m44b8bb60d4" x="294.035312" y="330.441429" style="fill: #d62728; stroke: #d62728"/>
     <use xlink:href="#m44b8bb60d4" x="294.035312" y="308.52" style="fill: #d62728; stroke: #d62728"/>
     <use xlink:href="#m44b8bb60d4" x="294.035312" y="286.598571" style="fill: #d62728; stroke: #d62728"/>
     <use xlink:href="#m44b8bb60d4" x="294.035312" y="264.677143" style="fill: #d62728; stroke: #d62728"/>
     <use xlink:href="#m44b8bb60d4" x="315.956741" y="352.362857" style="fill: #d62728; stroke: #d62728"/>
     <use xlink:href="#m44b8bb60d4" x="315.956741" y="330.441429" style="fill: #d62728; stroke: #d62728"/>
     <use xlink:href="#m44b8bb60d4" x="315.956741" y="308.52" style="fill: #d62728; stroke: #d62728"/>
     <use xlink:href="#m44b8bb60d4" x="315.956741" y="286.598571" style="fill: #d62728; stroke: #d62728"/>
     <use xlink:href="#m44b8bb60d4" x="315.956741" y="264.677143" style="fill: #d62728; stroke: #d62728"/>
     <use xlink:href="#m44b8bb60d4" x="337.87817" y="352.362857" style="fill: #d62728; stroke: #d62728"/>
     <use xlink:href="#m44b8bb60d4" x="337.87817" y="330.441429" style="fill: #d62728; stroke: #d62728"/>
     <use xlink:href="#m44b8bb60d4" x="337.87817" y="308.52" style="fill: #d62728; stroke: #d62728"/>
     <use xlink:href="#m44b8bb60d4" x="337.87817" y="286.598571" style="fill: #d62728; stroke: #d62728"/>
     <use xlink:href="#m44b8bb60d4" x="337.87817" y="264.677143" style="fill: #d62728; stroke: #d62728"/>
     <use xlink:href="#m44b8bb60d4" x="359.799598" y="352.362857" style="fill: #d62728; stroke: #d62728"/>
     <use xlink:href="#m44b8bb60d4" x="359.799598" y="330.441429" style="fill: #d62728; stroke: #d62728"/>
     <use xlink:href="#m44b8bb60d4" x="359.799598" y="308.52" style="fill: #d62728; stroke: #d62728"/>
     <use xlink:href="#m44b8bb60d4" x="359.799598" y="286.598571" style="fill: #d62728; stroke: #d62728"/>
     <use xlink:href="#m44b8bb60d4" x="359.799598" y="264.677143" style="fill: #d62728; stroke: #d62728"/>
    </g>
   </g>
   <g id="text_13">
    <!-- a -->
    <g transform="translate(321.13817 282.612857) scale(0.09 -0.09)">
     <use xlink:href="#DejaVuSans-61"/>
    </g>
   </g>
   <g id="text_14">
    <!-- b -->
    <g transform="translate(343.059598 282.612857) scale(0.09 -0.09)">
     <use xlink:href="#DejaVuSans-62"/>
    </g>
   </g>
   <g id="text_15">
    <!-- d -->
    <g transform="translate(321.13817 304.534286) scale(0.09 -0.09)">
     <use xlink:href="#DejaVuSans-64"/>
    </g>
   </g>
   <g id="text_16">
    <!-- c -->
    <g transform="translate(343.059598 304.534286) scale(0.09 -0.09)">
     <use xlink:href="#DejaVuSans-63"/>
    </g>
   </g>
   <g id="PathCollection_5">
    <defs>
     <path id="meb67232678" d="M 0 1.732051 
C 0.459345 1.732051 0.899939 1.549551 1.224745 1.224745 
C 1.549551 0.899939 1.732051 0.459345 1.732051 0 
C 1.732051 -0.459345 1.549551 -0.899939 1.224745 -1.224745 
C 0.899939 -1.549551 0.459345 -1.732051 0 -1.732051 
C -0.459345 -1.732051 -0.899939 -1.549551 -1.224745 -1.224745 
C -1.549551 -0.899939 -1.732051 -0.459345 -1.732051 0 
C -1.732051 0.459345 -1.549551 0.899939 -1.224745 1.224745 
C -0.899939 1.549551 -0.459345 1.732051 0 1.732051 
z
" style="stroke: #9467bd"/>
    </defs>
    <g clip-path="url(#pb6517c5089)">
     <use xlink:href="#meb67232678" x="463.42817" y="352.362857" style="fill: #9467bd; stroke: #9467bd"/>
     <use xlink:href="#meb67232678" x="463.42817" y="330.441429" style="fill: #9467bd; stroke: #9467bd"/>
     <use xlink:href="#meb67232678" x="463.42817" y="308.52" style="fill: #9467bd; stroke: #9467bd"/>
     <use xlink:href="#meb67232678" x="463.42817" y="286.598571" style="fill: #9467bd; stroke: #9467bd"/>
     <use xlink:href="#meb67232678" x="463.42817" y="264.677143" style="fill: #9467bd; stroke: #9467bd"/>
     <use xlink:href="#meb67232678" x="485.349598" y="352.362857" style="fill: #9467bd; stroke: #9467bd"/>
     <use xlink:href="#meb67232678" x="485.349598" y="330.441429" style="fill: #9467bd; stroke: #9467bd"/>
     <use xlink:href="#meb67232678" x="485.349598" y="308.52" style="fill: #9467bd; stroke: #9467bd"/>
     <use xlink:href="#meb67232678" x="485.349598" y="286.598571" style="fill: #9467bd; stroke: #9467bd"/>
     <use xlink:href="#meb67232678" x="485.349598" y="264.677143" style="fill: #9467bd; stroke: #9467bd"/>
     <use xlink:href="#meb67232678" x="507.271027" y="352.362857" style="fill: #9467bd; stroke: #9467bd"/>
     <use xlink:href="#meb67232678" x="507.271027" y="330.441429" style="fill: #9467bd; stroke: #9467bd"/>
     <use xlink:href="#meb67232678" x="507.271027" y="308.52" style="fill: #9467bd; stroke: #9467bd"/>
     <use xlink:href="#meb67232678" x="507.271027" y="286.598571" style="fill: #9467bd; stroke: #9467bd"/>
     <use xlink:href="#meb67232678" x="507.271027" y="264.677143" style="fill: #9467bd; stroke: #9467bd"/>
     <use xlink:href="#meb67232678" x="529.192455" y="352.362857" style="fill: #9467bd; stroke: #9467bd"/>
     <use xlink:href="#meb67232678" x="529.192455" y="330.441429" style="fill: #9467bd; stroke: #9467bd"/>
     <use xlink:href="#meb67232678" x="529.192455" y="308.52" style="fill: #9467bd; stroke: #9467bd"/>
     <use xlink:href="#meb67232678" x="529.192455" y="286.598571" style="fill: #9467bd; stroke: #9467bd"/>
     <use xlink:href="#meb67232678" x="529.192455" y="264.677143" style="fill: #9467bd; stroke: #9467bd"/>
     <use xlink:href="#meb67232678" x="551.113884" y="352.362857" style="fill: #9467bd; stroke: #9467bd"/>
     <use xlink:href="#meb67232678" x="551.113884" y="330.441429" style="fill: #9467bd; stroke: #9467bd"/>
     <use xlink:href="#meb67232678" x="551.113884" y="308.52" style="fill: #9467bd; stroke: #9467bd"/>
     <use xlink:href="#meb67232678" x="551.113884" y="286.598571" style="fill: #9467bd; stroke: #9467bd"/>
     <use xlink:href="#meb67232678" x="551.113884" y="264.677143" style="fill: #9467bd; stroke: #9467bd"/>
    </g>
   </g>
   <g id="text_17">
    <!-- b -->
    <g transform="translate(512.452455 282.612857) scale(0.09 -0.09)">
     <use xlink:href="#DejaVuSans-62"/>
    </g>
   </g>
   <g id="text_18">
    <!-- c -->
    <g transform="translate(534.373884 282.612857) scale(0.09 -0.09)">
     <use xlink:href="#DejaVuSans-63"/>
    </g>
   </g>
   <g id="text_19">
    <!-- a -->
    <g transform="translate(512.452455 304.534286) scale(0.09 -0.09)">
     <use xlink:href="#DejaVuSans-61"/>
    </g>
   </g>
   <g id="text_20">
    <!-- d -->
    <g transform="translate(534.373884 304.534286) scale(0.09 -0.09)">
     <use xlink:href="#DejaVuSans-64"/>
    </g>
   </g>
   <g id="text_21">
    <!-- rotazione di 90° -->
    <g transform="translate(86.686875 96.043616) scale(0.1 -0.1)">
     <defs>
      <path id="DejaVuSans-72" d="M 2631 2963 
Q 2534 3019 2420 3045 
Q 2306 3072 2169 3072 
Q 1681 3072 1420 2755 
Q 1159 2438 1159 1844 
L 1159 0 
L 581 0 
L 581 3500 
L 1159 3500 
L 1159 2956 
Q 1341 3275 1631 3429 
Q 1922 3584 2338 3584 
Q 2397 3584 2469 3576 
Q 2541 3569 2628 3553 
L 2631 2963 
z
" transform="scale(0.015625)"/>
      <path id="DejaVuSans-6f" d="M 1959 3097 
Q 1497 3097 1228 2736 
Q 959 2375 959 1747 
Q 959 1119 1226 758 
Q 1494 397 1959 397 
Q 2419 397 2687 759 
Q 2956 1122 2956 1747 
Q 2956 2369 2687 2733 
Q 2419 3097 1959 3097 
z
M 1959 3584 
Q 2709 3584 3137 3096 
Q 3566 2609 3566 1747 
Q 3566 888 3137 398 
Q 2709 -91 1959 -91 
Q 1206 -91 779 398 
Q 353 888 353 1747 
Q 353 2609 779 3096 
Q 1206 3584 1959 3584 
z
" transform="scale(0.015625)"/>
      <path id="DejaVuSans-74" d="M 1172 4494 
L 1172 3500 
L 2356 3500 
L 2356 3053 
L 1172 3053 
L 1172 1153 
Q 1172 725 1289 603 
Q 1406 481 1766 481 
L 2356 481 
L 2356 0 
L 1766 0 
Q 1100 0 847 248 
Q 594 497 594 1153 
L 594 3053 
L 172 3053 
L 172 3500 
L 594 3500 
L 594 4494 
L 1172 4494 
z
" transform="scale(0.015625)"/>
      <path id="DejaVuSans-7a" d="M 353 3500 
L 3084 3500 
L 3084 2975 
L 922 459 
L 3084 459 
L 3084 0 
L 275 0 
L 275 525 
L 2438 3041 
L 353 3041 
L 353 3500 
z
" transform="scale(0.015625)"/>
      <path id="DejaVuSans-69" d="M 603 3500 
L 1178 3500 
L 1178 0 
L 603 0 
L 603 3500 
z
M 603 4863 
L 1178 4863 
L 1178 4134 
L 603 4134 
L 603 4863 
z
" transform="scale(0.015625)"/>
      <path id="DejaVuSans-6e" d="M 3513 2113 
L 3513 0 
L 2938 0 
L 2938 2094 
Q 2938 2591 2744 2837 
Q 2550 3084 2163 3084 
Q 1697 3084 1428 2787 
Q 1159 2491 1159 1978 
L 1159 0 
L 581 0 
L 581 3500 
L 1159 3500 
L 1159 2956 
Q 1366 3272 1645 3428 
Q 1925 3584 2291 3584 
Q 2894 3584 3203 3211 
Q 3513 2838 3513 2113 
z
" transform="scale(0.015625)"/>
      <path id="DejaVuSans-65" d="M 3597 1894 
L 3597 1613 
L 953 1613 
Q 991 1019 1311 708 
Q 1631 397 2203 397 
Q 2534 397 2845 478 
Q 3156 559 3463 722 
L 3463 178 
Q 3153 47 2828 -22 
Q 2503 -91 2169 -91 
Q 1331 -91 842 396 
Q 353 884 353 1716 
Q 353 2575 817 3079 
Q 1281 3584 2069 3584 
Q 2775 3584 3186 3129 
Q 3597 2675 3597 1894 
z
M 3022 2063 
Q 3016 2534 2758 2815 
Q 2500 3097 2075 3097 
Q 1594 3097 1305 2825 
Q 1016 2553 972 2059 
L 3022 2063 
z
" transform="scale(0.015625)"/>
      <path id="DejaVuSans-20" transform="scale(0.015625)"/>
      <path id="DejaVuSans-39" d="M 703 97 
L 703 672 
Q 941 559 1184 500 
Q 1428 441 1663 441 
Q 2288 441 2617 861 
Q 2947 1281 2994 2138 
Q 2813 1869 2534 1725 
Q 2256 1581 1919 1581 
Q 1219 1581 811 2004 
Q 403 2428 403 3163 
Q 403 3881 828 4315 
Q 1253 4750 1959 4750 
Q 2769 4750 3195 4129 
Q 3622 3509 3622 2328 
Q 3622 1225 3098 567 
Q 2575 -91 1691 -91 
Q 1453 -91 1209 -44 
Q 966 3 703 97 
z
M 1959 2075 
Q 2384 2075 2632 2365 
Q 2881 2656 2881 3163 
Q 2881 3666 2632 3958 
Q 2384 4250 1959 4250 
Q 1534 4250 1286 3958 
Q 1038 3666 1038 3163 
Q 1038 2656 1286 2365 
Q 1534 2075 1959 2075 
z
" transform="scale(0.015625)"/>
      <path id="DejaVuSans-30" d="M 2034 4250 
Q 1547 4250 1301 3770 
Q 1056 3291 1056 2328 
Q 1056 1369 1301 889 
Q 1547 409 2034 409 
Q 2525 409 2770 889 
Q 3016 1369 3016 2328 
Q 3016 3291 2770 3770 
Q 2525 4250 2034 4250 
z
M 2034 4750 
Q 2819 4750 3233 4129 
Q 3647 3509 3647 2328 
Q 3647 1150 3233 529 
Q 2819 -91 2034 -91 
Q 1250 -91 836 529 
Q 422 1150 422 2328 
Q 422 3509 836 4129 
Q 1250 4750 2034 4750 
z
" transform="scale(0.015625)"/>
      <path id="DejaVuSans-b0" d="M 1600 4347 
Q 1350 4347 1178 4173 
Q 1006 4000 1006 3750 
Q 1006 3503 1178 3333 
Q 1350 3163 1600 3163 
Q 1850 3163 2022 3333 
Q 2194 3503 2194 3750 
Q 2194 3997 2020 4172 
Q 1847 4347 1600 4347 
z
M 1600 4750 
Q 1800 4750 1984 4673 
Q 2169 4597 2303 4453 
Q 2447 4313 2519 4134 
Q 2591 3956 2591 3750 
Q 2591 3338 2302 3052 
Q 2013 2766 1594 2766 
Q 1172 2766 890 3047 
Q 609 3328 609 3750 
Q 609 4169 896 4459 
Q 1184 4750 1600 4750 
z
" transform="scale(0.015625)"/>
     </defs>
     <use xlink:href="#DejaVuSans-72"/>
     <use xlink:href="#DejaVuSans-6f" transform="translate(38.863281 0)"/>
     <use xlink:href="#DejaVuSans-74" transform="translate(100.044922 0)"/>
     <use xlink:href="#DejaVuSans-61" transform="translate(139.253906 0)"/>
     <use xlink:href="#DejaVuSans-7a" transform="translate(200.533203 0)"/>
     <use xlink:href="#DejaVuSans-69" transform="translate(253.023438 0)"/>
     <use xlink:href="#DejaVuSans-6f" transform="translate(280.806641 0)"/>
     <use xlink:href="#DejaVuSans-6e" transform="translate(341.988281 0)"/>
     <use xlink:href="#DejaVuSans-65" transform="translate(405.367188 0)"/>
     <use xlink:href="#DejaVuSans-20" transform="translate(466.890625 0)"/>
     <use xlink:href="#DejaVuSans-64" transform="translate(498.677734 0)"/>
     <use xlink:href="#DejaVuSans-69" transform="translate(562.154297 0)"/>
     <use xlink:href="#DejaVuSans-20" transform="translate(589.9375 0)"/>
     <use xlink:href="#DejaVuSans-39" transform="translate(621.724609 0)"/>
     <use xlink:href="#DejaVuSans-30" transform="translate(685.347656 0)"/>
     <use xlink:href="#DejaVuSans-b0" transform="translate(748.970703 0)"/>
    </g>
    <!-- attorno a un punto non reticolare -->
    <g transform="translate(43.470469 107.241429) scale(0.1 -0.1)">
     <defs>
      <path id="DejaVuSans-75" d="M 544 1381 
L 544 3500 
L 1119 3500 
L 1119 1403 
Q 1119 906 1312 657 
Q 1506 409 1894 409 
Q 2359 409 2629 706 
Q 2900 1003 2900 1516 
L 2900 3500 
L 3475 3500 
L 3475 0 
L 2900 0 
L 2900 538 
Q 2691 219 2414 64 
Q 2138 -91 1772 -91 
Q 1169 -91 856 284 
Q 544 659 544 1381 
z
M 1991 3584 
L 1991 3584 
z
" transform="scale(0.015625)"/>
      <path id="DejaVuSans-70" d="M 1159 525 
L 1159 -1331 
L 581 -1331 
L 581 3500 
L 1159 3500 
L 1159 2969 
Q 1341 3281 1617 3432 
Q 1894 3584 2278 3584 
Q 2916 3584 3314 3078 
Q 3713 2572 3713 1747 
Q 3713 922 3314 415 
Q 2916 -91 2278 -91 
Q 1894 -91 1617 61 
Q 1341 213 1159 525 
z
M 3116 1747 
Q 3116 2381 2855 2742 
Q 2594 3103 2138 3103 
Q 1681 3103 1420 2742 
Q 1159 2381 1159 1747 
Q 1159 1113 1420 752 
Q 1681 391 2138 391 
Q 2594 391 2855 752 
Q 3116 1113 3116 1747 
z
" transform="scale(0.015625)"/>
      <path id="DejaVuSans-6c" d="M 603 4863 
L 1178 4863 
L 1178 0 
L 603 0 
L 603 4863 
z
" transform="scale(0.015625)"/>
     </defs>
     <use xlink:href="#DejaVuSans-61"/>
     <use xlink:href="#DejaVuSans-74" transform="translate(61.279297 0)"/>
     <use xlink:href="#DejaVuSans-74" transform="translate(100.488281 0)"/>
     <use xlink:href="#DejaVuSans-6f" transform="translate(139.697266 0)"/>
     <use xlink:href="#DejaVuSans-72" transform="translate(200.878906 0)"/>
     <use xlink:href="#DejaVuSans-6e" transform="translate(240.242188 0)"/>
     <use xlink:href="#DejaVuSans-6f" transform="translate(303.621094 0)"/>
     <use xlink:href="#DejaVuSans-20" transform="translate(364.802734 0)"/>
     <use xlink:href="#DejaVuSans-61" transform="translate(396.589844 0)"/>
     <use xlink:href="#DejaVuSans-20" transform="translate(457.869141 0)"/>
     <use xlink:href="#DejaVuSans-75" transform="translate(489.65625 0)"/>
     <use xlink:href="#DejaVuSans-6e" transform="translate(553.035156 0)"/>
     <use xlink:href="#DejaVuSans-20" transform="translate(616.414062 0)"/>
     <use xlink:href="#DejaVuSans-70" transform="translate(648.201172 0)"/>
     <use xlink:href="#DejaVuSans-75" transform="translate(711.677734 0)"/>
     <use xlink:href="#DejaVuSans-6e" transform="translate(775.056641 0)"/>
     <use xlink:href="#DejaVuSans-74" transform="translate(838.435547 0)"/>
     <use xlink:href="#DejaVuSans-6f" transform="translate(877.644531 0)"/>
     <use xlink:href="#DejaVuSans-20" transform="translate(938.826172 0)"/>
     <use xlink:href="#DejaVuSans-6e" transform="translate(970.613281 0)"/>
     <use xlink:href="#DejaVuSans-6f" transform="translate(1033.992188 0)"/>
     <use xlink:href="#DejaVuSans-6e" transform="translate(1095.173828 0)"/>
     <use xlink:href="#DejaVuSans-20" transform="translate(1158.552734 0)"/>
     <use xlink:href="#DejaVuSans-72" transform="translate(1190.339844 0)"/>
     <use xlink:href="#DejaVuSans-65" transform="translate(1229.203125 0)"/>
     <use xlink:href="#DejaVuSans-74" transform="translate(1290.726562 0)"/>
     <use xlink:href="#DejaVuSans-69" transform="translate(1329.935547 0)"/>
     <use xlink:href="#DejaVuSans-63" transform="translate(1357.71875 0)"/>
     <use xlink:href="#DejaVuSans-6f" transform="translate(1412.699219 0)"/>
     <use xlink:href="#DejaVuSans-6c" transform="translate(1473.880859 0)"/>
     <use xlink:href="#DejaVuSans-61" transform="translate(1501.664062 0)"/>
     <use xlink:href="#DejaVuSans-72" transform="translate(1562.943359 0)"/>
     <use xlink:href="#DejaVuSans-65" transform="translate(1601.806641 0)"/>
    </g>
   </g>
   <g id="text_22">
    <!-- = -->
    <g transform="translate(205.839275 155.989866) scale(0.25 -0.25)">
     <defs>
      <path id="DejaVuSans-3d" d="M 678 2906 
L 4684 2906 
L 4684 2381 
L 678 2381 
L 678 2906 
z
M 678 1631 
L 4684 1631 
L 4684 1100 
L 678 1100 
L 678 1631 
z
" transform="scale(0.015625)"/>
     </defs>
     <use xlink:href="#DejaVuSans-3d"/>
    </g>
   </g>
   <g id="text_23">
    <!-- stessa disposizione finale -->
    <g transform="translate(343.974263 147.098571) scale(0.1 -0.1)">
     <defs>
      <path id="DejaVuSans-73" d="M 2834 3397 
L 2834 2853 
Q 2591 2978 2328 3040 
Q 2066 3103 1784 3103 
Q 1356 3103 1142 2972 
Q 928 2841 928 2578 
Q 928 2378 1081 2264 
Q 1234 2150 1697 2047 
L 1894 2003 
Q 2506 1872 2764 1633 
Q 3022 1394 3022 966 
Q 3022 478 2636 193 
Q 2250 -91 1575 -91 
Q 1294 -91 989 -36 
Q 684 19 347 128 
L 347 722 
Q 666 556 975 473 
Q 1284 391 1588 391 
Q 1994 391 2212 530 
Q 2431 669 2431 922 
Q 2431 1156 2273 1281 
Q 2116 1406 1581 1522 
L 1381 1569 
Q 847 1681 609 1914 
Q 372 2147 372 2553 
Q 372 3047 722 3315 
Q 1072 3584 1716 3584 
Q 2034 3584 2315 3537 
Q 2597 3491 2834 3397 
z
" transform="scale(0.015625)"/>
      <path id="DejaVuSans-66" d="M 2375 4863 
L 2375 4384 
L 1825 4384 
Q 1516 4384 1395 4259 
Q 1275 4134 1275 3809 
L 1275 3500 
L 2222 3500 
L 2222 3053 
L 1275 3053 
L 1275 0 
L 697 0 
L 697 3053 
L 147 3053 
L 147 3500 
L 697 3500 
L 697 3744 
Q 697 4328 969 4595 
Q 1241 4863 1831 4863 
L 2375 4863 
z
" transform="scale(0.015625)"/>
     </defs>
     <use xlink:href="#DejaVuSans-73"/>
     <use xlink:href="#DejaVuSans-74" transform="translate(52.099609 0)"/>
     <use xlink:href="#DejaVuSans-65" transform="translate(91.308594 0)"/>
     <use xlink:href="#DejaVuSans-73" transform="translate(152.832031 0)"/>
     <use xlink:href="#DejaVuSans-73" transform="translate(204.931641 0)"/>
     <use xlink:href="#DejaVuSans-61" transform="translate(257.03125 0)"/>
     <use xlink:href="#DejaVuSans-20" transform="translate(318.310547 0)"/>
     <use xlink:href="#DejaVuSans-64" transform="translate(350.097656 0)"/>
     <use xlink:href="#DejaVuSans-69" transform="translate(413.574219 0)"/>
     <use xlink:href="#DejaVuSans-73" transform="translate(441.357422 0)"/>
     <use xlink:href="#DejaVuSans-70" transform="translate(493.457031 0)"/>
     <use xlink:href="#DejaVuSans-6f" transform="translate(556.933594 0)"/>
     <use xlink:href="#DejaVuSans-73" transform="translate(618.115234 0)"/>
     <use xlink:href="#DejaVuSans-69" transform="translate(670.214844 0)"/>
     <use xlink:href="#DejaVuSans-7a" transform="translate(697.998047 0)"/>
     <use xlink:href="#DejaVuSans-69" transform="translate(750.488281 0)"/>
     <use xlink:href="#DejaVuSans-6f" transform="translate(778.271484 0)"/>
     <use xlink:href="#DejaVuSans-6e" transform="translate(839.453125 0)"/>
     <use xlink:href="#DejaVuSans-65" transform="translate(902.832031 0)"/>
     <use xlink:href="#DejaVuSans-20" transform="translate(964.355469 0)"/>
     <use xlink:href="#DejaVuSans-66" transform="translate(996.142578 0)"/>
     <use xlink:href="#DejaVuSans-69" transform="translate(1031.347656 0)"/>
     <use xlink:href="#DejaVuSans-6e" transform="translate(1059.130859 0)"/>
     <use xlink:href="#DejaVuSans-61" transform="translate(1122.509766 0)"/>
     <use xlink:href="#DejaVuSans-6c" transform="translate(1183.789062 0)"/>
     <use xlink:href="#DejaVuSans-65" transform="translate(1211.572266 0)"/>
    </g>
   </g>
   <g id="patch_5">
    <path d="M 365.578568 152.198055 
Q 409.619366 131.039171 452.148502 151.470254 
" style="fill: none; stroke: #000000; stroke-width: 1.5; stroke-linecap: round"/>
    <path d="M 449.409027 147.935388 
L 452.148502 151.470254 
L 447.676924 151.540915 
z
" style="fill: #1f77b4; stroke: #000000; stroke-width: 1.5; stroke-linecap: round"/>
   </g>
   <g id="patch_6">
    <path d="M 138.592455 288.59824 
Q 138.592455 310.512702 138.592455 330.638309 
" style="fill: none; stroke: #000000; stroke-width: 1.6; stroke-linecap: round"/>
    <path d="M 140.592455 326.638309 
L 138.592455 330.638309 
L 136.592455 326.638309 
z
" style="fill: #1f77b4; stroke: #000000; stroke-width: 1.6; stroke-linecap: round"/>
   </g>
   <g id="text_24">
    <!-- traslazione reticolare -->
    <g transform="translate(63.976496 254.712857) scale(0.1 -0.1)">
     <use xlink:href="#DejaVuSans-74"/>
     <use xlink:href="#DejaVuSans-72" transform="translate(39.208984 0)"/>
     <use xlink:href="#DejaVuSans-61" transform="translate(80.322266 0)"/>
     <use xlink:href="#DejaVuSans-73" transform="translate(141.601562 0)"/>
     <use xlink:href="#DejaVuSans-6c" transform="translate(193.701172 0)"/>
     <use xlink:href="#DejaVuSans-61" transform="translate(221.484375 0)"/>
     <use xlink:href="#DejaVuSans-7a" transform="translate(282.763672 0)"/>
     <use xlink:href="#DejaVuSans-69" transform="translate(335.253906 0)"/>
     <use xlink:href="#DejaVuSans-6f" transform="translate(363.037109 0)"/>
     <use xlink:href="#DejaVuSans-6e" transform="translate(424.21875 0)"/>
     <use xlink:href="#DejaVuSans-65" transform="translate(487.597656 0)"/>
     <use xlink:href="#DejaVuSans-20" transform="translate(549.121094 0)"/>
     <use xlink:href="#DejaVuSans-72" transform="translate(580.908203 0)"/>
     <use xlink:href="#DejaVuSans-65" transform="translate(619.771484 0)"/>
     <use xlink:href="#DejaVuSans-74" transform="translate(681.294922 0)"/>
     <use xlink:href="#DejaVuSans-69" transform="translate(720.503906 0)"/>
     <use xlink:href="#DejaVuSans-63" transform="translate(748.287109 0)"/>
     <use xlink:href="#DejaVuSans-6f" transform="translate(803.267578 0)"/>
     <use xlink:href="#DejaVuSans-6c" transform="translate(864.449219 0)"/>
     <use xlink:href="#DejaVuSans-61" transform="translate(892.232422 0)"/>
     <use xlink:href="#DejaVuSans-72" transform="translate(953.511719 0)"/>
     <use xlink:href="#DejaVuSans-65" transform="translate(992.375 0)"/>
    </g>
   </g>
   <g id="text_25">
    <!-- + -->
    <g transform="translate(205.839275 315.418437) scale(0.25 -0.25)">
     <defs>
      <path id="DejaVuSans-2b" d="M 2944 4013 
L 2944 2272 
L 4684 2272 
L 4684 1741 
L 2944 1741 
L 2944 0 
L 2419 0 
L 2419 1741 
L 678 1741 
L 678 2272 
L 2419 2272 
L 2419 4013 
L 2944 4013 
z
" transform="scale(0.015625)"/>
     </defs>
     <use xlink:href="#DejaVuSans-2b"/>
    </g>
   </g>
   <g id="text_26">
    <!-- rotazione di 90° -->
    <g transform="translate(276.008304 243.515045) scale(0.1 -0.1)">
     <use xlink:href="#DejaVuSans-72"/>
     <use xlink:href="#DejaVuSans-6f" transform="translate(38.863281 0)"/>
     <use xlink:href="#DejaVuSans-74" transform="translate(100.044922 0)"/>
     <use xlink:href="#DejaVuSans-61" transform="translate(139.253906 0)"/>
     <use xlink:href="#DejaVuSans-7a" transform="translate(200.533203 0)"/>
     <use xlink:href="#DejaVuSans-69" transform="translate(253.023438 0)"/>
     <use xlink:href="#DejaVuSans-6f" transform="translate(280.806641 0)"/>
     <use xlink:href="#DejaVuSans-6e" transform="translate(341.988281 0)"/>
     <use xlink:href="#DejaVuSans-65" transform="translate(405.367188 0)"/>
     <use xlink:href="#DejaVuSans-20" transform="translate(466.890625 0)"/>
     <use xlink:href="#DejaVuSans-64" transform="translate(498.677734 0)"/>
     <use xlink:href="#DejaVuSans-69" transform="translate(562.154297 0)"/>
     <use xlink:href="#DejaVuSans-20" transform="translate(589.9375 0)"/>
     <use xlink:href="#DejaVuSans-39" transform="translate(621.724609 0)"/>
     <use xlink:href="#DejaVuSans-30" transform="translate(685.347656 0)"/>
     <use xlink:href="#DejaVuSans-b0" transform="translate(748.970703 0)"/>
    </g>
    <!-- attorno a un punto reticolare -->
    <g transform="translate(243.777835 254.712857) scale(0.1 -0.1)">
     <use xlink:href="#DejaVuSans-61"/>
     <use xlink:href="#DejaVuSans-74" transform="translate(61.279297 0)"/>
     <use xlink:href="#DejaVuSans-74" transform="translate(100.488281 0)"/>
     <use xlink:href="#DejaVuSans-6f" transform="translate(139.697266 0)"/>
     <use xlink:href="#DejaVuSans-72" transform="translate(200.878906 0)"/>
     <use xlink:href="#DejaVuSans-6e" transform="translate(240.242188 0)"/>
     <use xlink:href="#DejaVuSans-6f" transform="translate(303.621094 0)"/>
     <use xlink:href="#DejaVuSans-20" transform="translate(364.802734 0)"/>
     <use xlink:href="#DejaVuSans-61" transform="translate(396.589844 0)"/>
     <use xlink:href="#DejaVuSans-20" transform="translate(457.869141 0)"/>
     <use xlink:href="#DejaVuSans-75" transform="translate(489.65625 0)"/>
     <use xlink:href="#DejaVuSans-6e" transform="translate(553.035156 0)"/>
     <use xlink:href="#DejaVuSans-20" transform="translate(616.414062 0)"/>
     <use xlink:href="#DejaVuSans-70" transform="translate(648.201172 0)"/>
     <use xlink:href="#DejaVuSans-75" transform="translate(711.677734 0)"/>
     <use xlink:href="#DejaVuSans-6e" transform="translate(775.056641 0)"/>
     <use xlink:href="#DejaVuSans-74" transform="translate(838.435547 0)"/>
     <use xlink:href="#DejaVuSans-6f" transform="translate(877.644531 0)"/>
     <use xlink:href="#DejaVuSans-20" transform="translate(938.826172 0)"/>
     <use xlink:href="#DejaVuSans-72" transform="translate(970.613281 0)"/>
     <use xlink:href="#DejaVuSans-65" transform="translate(1009.476562 0)"/>
     <use xlink:href="#DejaVuSans-74" transform="translate(1071 0)"/>
     <use xlink:href="#DejaVuSans-69" transform="translate(1110.208984 0)"/>
     <use xlink:href="#DejaVuSans-63" transform="translate(1137.992188 0)"/>
     <use xlink:href="#DejaVuSans-6f" transform="translate(1192.972656 0)"/>
     <use xlink:href="#DejaVuSans-6c" transform="translate(1254.154297 0)"/>
     <use xlink:href="#DejaVuSans-61" transform="translate(1281.9375 0)"/>
     <use xlink:href="#DejaVuSans-72" transform="translate(1343.216797 0)"/>
     <use xlink:href="#DejaVuSans-65" transform="translate(1382.080078 0)"/>
    </g>
   </g>
   <g id="text_27">
    <!-- = -->
    <g transform="translate(401.139275 315.418437) scale(0.25 -0.25)">
     <use xlink:href="#DejaVuSans-3d"/>
    </g>
   </g>
   <g id="text_28">
    <!-- Nel reticolo quadrato tutti i punti sono equivalenti: la composizione delle due operazioni -->
    <g transform="translate(87.02125 379.02933) scale(0.1 -0.1)">
     <defs>
      <path id="DejaVuSans-4e" d="M 628 4666 
L 1478 4666 
L 3547 763 
L 3547 4666 
L 4159 4666 
L 4159 0 
L 3309 0 
L 1241 3903 
L 1241 0 
L 628 0 
L 628 4666 
z
" transform="scale(0.015625)"/>
      <path id="DejaVuSans-71" d="M 947 1747 
Q 947 1113 1208 752 
Q 1469 391 1925 391 
Q 2381 391 2643 752 
Q 2906 1113 2906 1747 
Q 2906 2381 2643 2742 
Q 2381 3103 1925 3103 
Q 1469 3103 1208 2742 
Q 947 2381 947 1747 
z
M 2906 525 
Q 2725 213 2448 61 
Q 2172 -91 1784 -91 
Q 1150 -91 751 415 
Q 353 922 353 1747 
Q 353 2572 751 3078 
Q 1150 3584 1784 3584 
Q 2172 3584 2448 3432 
Q 2725 3281 2906 2969 
L 2906 3500 
L 3481 3500 
L 3481 -1331 
L 2906 -1331 
L 2906 525 
z
" transform="scale(0.015625)"/>
      <path id="DejaVuSans-76" d="M 191 3500 
L 800 3500 
L 1894 563 
L 2988 3500 
L 3597 3500 
L 2284 0 
L 1503 0 
L 191 3500 
z
" transform="scale(0.015625)"/>
      <path id="DejaVuSans-3a" d="M 750 794 
L 1409 794 
L 1409 0 
L 750 0 
L 750 794 
z
M 750 3309 
L 1409 3309 
L 1409 2516 
L 750 2516 
L 750 3309 
z
" transform="scale(0.015625)"/>
      <path id="DejaVuSans-6d" d="M 3328 2828 
Q 3544 3216 3844 3400 
Q 4144 3584 4550 3584 
Q 5097 3584 5394 3201 
Q 5691 2819 5691 2113 
L 5691 0 
L 5113 0 
L 5113 2094 
Q 5113 2597 4934 2840 
Q 4756 3084 4391 3084 
Q 3944 3084 3684 2787 
Q 3425 2491 3425 1978 
L 3425 0 
L 2847 0 
L 2847 2094 
Q 2847 2600 2669 2842 
Q 2491 3084 2119 3084 
Q 1678 3084 1418 2786 
Q 1159 2488 1159 1978 
L 1159 0 
L 581 0 
L 581 3500 
L 1159 3500 
L 1159 2956 
Q 1356 3278 1631 3431 
Q 1906 3584 2284 3584 
Q 2666 3584 2933 3390 
Q 3200 3197 3328 2828 
z
" transform="scale(0.015625)"/>
     </defs>
     <use xlink:href="#DejaVuSans-4e"/>
     <use xlink:href="#DejaVuSans-65" transform="translate(74.804688 0)"/>
     <use xlink:href="#DejaVuSans-6c" transform="translate(136.328125 0)"/>
     <use xlink:href="#DejaVuSans-20" transform="translate(164.111328 0)"/>
     <use xlink:href="#DejaVuSans-72" transform="translate(195.898438 0)"/>
     <use xlink:href="#DejaVuSans-65" transform="translate(234.761719 0)"/>
     <use xlink:href="#DejaVuSans-74" transform="translate(296.285156 0)"/>
     <use xlink:href="#DejaVuSans-69" transform="translate(335.494141 0)"/>
     <use xlink:href="#DejaVuSans-63" transform="translate(363.277344 0)"/>
     <use xlink:href="#DejaVuSans-6f" transform="translate(418.257812 0)"/>
     <use xlink:href="#DejaVuSans-6c" transform="translate(479.439453 0)"/>
     <use xlink:href="#DejaVuSans-6f" transform="translate(507.222656 0)"/>
     <use xlink:href="#DejaVuSans-20" transform="translate(568.404297 0)"/>
     <use xlink:href="#DejaVuSans-71" transform="translate(600.191406 0)"/>
     <use xlink:href="#DejaVuSans-75" transform="translate(663.667969 0)"/>
     <use xlink:href="#DejaVuSans-61" transform="translate(727.046875 0)"/>
     <use xlink:href="#DejaVuSans-64" transform="translate(788.326172 0)"/>
     <use xlink:href="#DejaVuSans-72" transform="translate(851.802734 0)"/>
     <use xlink:href="#DejaVuSans-61" transform="translate(892.916016 0)"/>
     <use xlink:href="#DejaVuSans-74" transform="translate(954.195312 0)"/>
     <use xlink:href="#DejaVuSans-6f" transform="translate(993.404297 0)"/>
     <use xlink:href="#DejaVuSans-20" transform="translate(1054.585938 0)"/>
     <use xlink:href="#DejaVuSans-74" transform="translate(1086.373047 0)"/>
     <use xlink:href="#DejaVuSans-75" transform="translate(1125.582031 0)"/>
     <use xlink:href="#DejaVuSans-74" transform="translate(1188.960938 0)"/>
     <use xlink:href="#DejaVuSans-74" transform="translate(1228.169922 0)"/>
     <use xlink:href="#DejaVuSans-69" transform="translate(1267.378906 0)"/>
     <use xlink:href="#DejaVuSans-20" transform="translate(1295.162109 0)"/>
     <use xlink:href="#DejaVuSans-69" transform="translate(1326.949219 0)"/>
     <use xlink:href="#DejaVuSans-20" transform="translate(1354.732422 0)"/>
     <use xlink:href="#DejaVuSans-70" transform="translate(1386.519531 0)"/>
     <use xlink:href="#DejaVuSans-75" transform="translate(1449.996094 0)"/>
     <use xlink:href="#DejaVuSans-6e" transform="translate(1513.375 0)"/>
     <use xlink:href="#DejaVuSans-74" transform="translate(1576.753906 0)"/>
     <use xlink:href="#DejaVuSans-69" transform="translate(1615.962891 0)"/>
     <use xlink:href="#DejaVuSans-20" transform="translate(1643.746094 0)"/>
     <use xlink:href="#DejaVuSans-73" transform="translate(1675.533203 0)"/>
     <use xlink:href="#DejaVuSans-6f" transform="translate(1727.632812 0)"/>
     <use xlink:href="#DejaVuSans-6e" transform="translate(1788.814453 0)"/>
     <use xlink:href="#DejaVuSans-6f" transform="translate(1852.193359 0)"/>
     <use xlink:href="#DejaVuSans-20" transform="translate(1913.375 0)"/>
     <use xlink:href="#DejaVuSans-65" transform="translate(1945.162109 0)"/>
     <use xlink:href="#DejaVuSans-71" transform="translate(2006.685547 0)"/>
     <use xlink:href="#DejaVuSans-75" transform="translate(2070.162109 0)"/>
     <use xlink:href="#DejaVuSans-69" transform="translate(2133.541016 0)"/>
     <use xlink:href="#DejaVuSans-76" transform="translate(2161.324219 0)"/>
     <use xlink:href="#DejaVuSans-61" transform="translate(2220.503906 0)"/>
     <use xlink:href="#DejaVuSans-6c" transform="translate(2281.783203 0)"/>
     <use xlink:href="#DejaVuSans-65" transform="translate(2309.566406 0)"/>
     <use xlink:href="#DejaVuSans-6e" transform="translate(2371.089844 0)"/>
     <use xlink:href="#DejaVuSans-74" transform="translate(2434.46875 0)"/>
     <use xlink:href="#DejaVuSans-69" transform="translate(2473.677734 0)"/>
     <use xlink:href="#DejaVuSans-3a" transform="translate(2501.460938 0)"/>
     <use xlink:href="#DejaVuSans-20" transform="translate(2535.152344 0)"/>
     <use xlink:href="#DejaVuSans-6c" transform="translate(2566.939453 0)"/>
     <use xlink:href="#DejaVuSans-61" transform="translate(2594.722656 0)"/>
     <use xlink:href="#DejaVuSans-20" transform="translate(2656.001953 0)"/>
     <use xlink:href="#DejaVuSans-63" transform="translate(2687.789062 0)"/>
     <use xlink:href="#DejaVuSans-6f" transform="translate(2742.769531 0)"/>
     <use xlink:href="#DejaVuSans-6d" transform="translate(2803.951172 0)"/>
     <use xlink:href="#DejaVuSans-70" transform="translate(2901.363281 0)"/>
     <use xlink:href="#DejaVuSans-6f" transform="translate(2964.839844 0)"/>
     <use xlink:href="#DejaVuSans-73" transform="translate(3026.021484 0)"/>
     <use xlink:href="#DejaVuSans-69" transform="translate(3078.121094 0)"/>
     <use xlink:href="#DejaVuSans-7a" transform="translate(3105.904297 0)"/>
     <use xlink:href="#DejaVuSans-69" transform="translate(3158.394531 0)"/>
     <use xlink:href="#DejaVuSans-6f" transform="translate(3186.177734 0)"/>
     <use xlink:href="#DejaVuSans-6e" transform="translate(3247.359375 0)"/>
     <use xlink:href="#DejaVuSans-65" transform="translate(3310.738281 0)"/>
     <use xlink:href="#DejaVuSans-20" transform="translate(3372.261719 0)"/>
     <use xlink:href="#DejaVuSans-64" transform="translate(3404.048828 0)"/>
     <use xlink:href="#DejaVuSans-65" transform="translate(3467.525391 0)"/>
     <use xlink:href="#DejaVuSans-6c" transform="translate(3529.048828 0)"/>
     <use xlink:href="#DejaVuSans-6c" transform="translate(3556.832031 0)"/>
     <use xlink:href="#DejaVuSans-65" transform="translate(3584.615234 0)"/>
     <use xlink:href="#DejaVuSans-20" transform="translate(3646.138672 0)"/>
     <use xlink:href="#DejaVuSans-64" transform="translate(3677.925781 0)"/>
     <use xlink:href="#DejaVuSans-75" transform="translate(3741.402344 0)"/>
     <use xlink:href="#DejaVuSans-65" transform="translate(3804.78125 0)"/>
     <use xlink:href="#DejaVuSans-20" transform="translate(3866.304688 0)"/>
     <use xlink:href="#DejaVuSans-6f" transform="translate(3898.091797 0)"/>
     <use xlink:href="#DejaVuSans-70" transform="translate(3959.273438 0)"/>
     <use xlink:href="#DejaVuSans-65" transform="translate(4022.75 0)"/>
     <use xlink:href="#DejaVuSans-72" transform="translate(4084.273438 0)"/>
     <use xlink:href="#DejaVuSans-61" transform="translate(4125.386719 0)"/>
     <use xlink:href="#DejaVuSans-7a" transform="translate(4186.666016 0)"/>
     <use xlink:href="#DejaVuSans-69" transform="translate(4239.15625 0)"/>
     <use xlink:href="#DejaVuSans-6f" transform="translate(4266.939453 0)"/>
     <use xlink:href="#DejaVuSans-6e" transform="translate(4328.121094 0)"/>
     <use xlink:href="#DejaVuSans-69" transform="translate(4391.5 0)"/>
    </g>
    <!-- produce la stessa trasformazione geometrica della rotazione iniziale. -->
    <g transform="translate(135.432969 390.227143) scale(0.1 -0.1)">
     <defs>
      <path id="DejaVuSans-67" d="M 2906 1791 
Q 2906 2416 2648 2759 
Q 2391 3103 1925 3103 
Q 1463 3103 1205 2759 
Q 947 2416 947 1791 
Q 947 1169 1205 825 
Q 1463 481 1925 481 
Q 2391 481 2648 825 
Q 2906 1169 2906 1791 
z
M 3481 434 
Q 3481 -459 3084 -895 
Q 2688 -1331 1869 -1331 
Q 1566 -1331 1297 -1286 
Q 1028 -1241 775 -1147 
L 775 -588 
Q 1028 -725 1275 -790 
Q 1522 -856 1778 -856 
Q 2344 -856 2625 -561 
Q 2906 -266 2906 331 
L 2906 616 
Q 2728 306 2450 153 
Q 2172 0 1784 0 
Q 1141 0 747 490 
Q 353 981 353 1791 
Q 353 2603 747 3093 
Q 1141 3584 1784 3584 
Q 2172 3584 2450 3431 
Q 2728 3278 2906 2969 
L 2906 3500 
L 3481 3500 
L 3481 434 
z
" transform="scale(0.015625)"/>
      <path id="DejaVuSans-2e" d="M 684 794 
L 1344 794 
L 1344 0 
L 684 0 
L 684 794 
z
" transform="scale(0.015625)"/>
     </defs>
     <use xlink:href="#DejaVuSans-70"/>
     <use xlink:href="#DejaVuSans-72" transform="translate(63.476562 0)"/>
     <use xlink:href="#DejaVuSans-6f" transform="translate(102.339844 0)"/>
     <use xlink:href="#DejaVuSans-64" transform="translate(163.521484 0)"/>
     <use xlink:href="#DejaVuSans-75" transform="translate(226.998047 0)"/>
     <use xlink:href="#DejaVuSans-63" transform="translate(290.376953 0)"/>
     <use xlink:href="#DejaVuSans-65" transform="translate(345.357422 0)"/>
     <use xlink:href="#DejaVuSans-20" transform="translate(406.880859 0)"/>
     <use xlink:href="#DejaVuSans-6c" transform="translate(438.667969 0)"/>
     <use xlink:href="#DejaVuSans-61" transform="translate(466.451172 0)"/>
     <use xlink:href="#DejaVuSans-20" transform="translate(527.730469 0)"/>
     <use xlink:href="#DejaVuSans-73" transform="translate(559.517578 0)"/>
     <use xlink:href="#DejaVuSans-74" transform="translate(611.617188 0)"/>
     <use xlink:href="#DejaVuSans-65" transform="translate(650.826172 0)"/>
     <use xlink:href="#DejaVuSans-73" transform="translate(712.349609 0)"/>
     <use xlink:href="#DejaVuSans-73" transform="translate(764.449219 0)"/>
     <use xlink:href="#DejaVuSans-61" transform="translate(816.548828 0)"/>
     <use xlink:href="#DejaVuSans-20" transform="translate(877.828125 0)"/>
     <use xlink:href="#DejaVuSans-74" transform="translate(909.615234 0)"/>
     <use xlink:href="#DejaVuSans-72" transform="translate(948.824219 0)"/>
     <use xlink:href="#DejaVuSans-61" transform="translate(989.9375 0)"/>
     <use xlink:href="#DejaVuSans-73" transform="translate(1051.216797 0)"/>
     <use xlink:href="#DejaVuSans-66" transform="translate(1103.316406 0)"/>
     <use xlink:href="#DejaVuSans-6f" transform="translate(1138.521484 0)"/>
     <use xlink:href="#DejaVuSans-72" transform="translate(1199.703125 0)"/>
     <use xlink:href="#DejaVuSans-6d" transform="translate(1239.066406 0)"/>
     <use xlink:href="#DejaVuSans-61" transform="translate(1336.478516 0)"/>
     <use xlink:href="#DejaVuSans-7a" transform="translate(1397.757812 0)"/>
     <use xlink:href="#DejaVuSans-69" transform="translate(1450.248047 0)"/>
     <use xlink:href="#DejaVuSans-6f" transform="translate(1478.03125 0)"/>
     <use xlink:href="#DejaVuSans-6e" transform="translate(1539.212891 0)"/>
     <use xlink:href="#DejaVuSans-65" transform="translate(1602.591797 0)"/>
     <use xlink:href="#DejaVuSans-20" transform="translate(1664.115234 0)"/>
     <use xlink:href="#DejaVuSans-67" transform="translate(1695.902344 0)"/>
     <use xlink:href="#DejaVuSans-65" transform="translate(1759.378906 0)"/>
     <use xlink:href="#DejaVuSans-6f" transform="translate(1820.902344 0)"/>
     <use xlink:href="#DejaVuSans-6d" transform="translate(1882.083984 0)"/>
     <use xlink:href="#DejaVuSans-65" transform="translate(1979.496094 0)"/>
     <use xlink:href="#DejaVuSans-74" transform="translate(2041.019531 0)"/>
     <use xlink:href="#DejaVuSans-72" transform="translate(2080.228516 0)"/>
     <use xlink:href="#DejaVuSans-69" transform="translate(2121.341797 0)"/>
     <use xlink:href="#DejaVuSans-63" transform="translate(2149.125 0)"/>
     <use xlink:href="#DejaVuSans-61" transform="translate(2204.105469 0)"/>
     <use xlink:href="#DejaVuSans-20" transform="translate(2265.384766 0)"/>
     <use xlink:href="#DejaVuSans-64" transform="translate(2297.171875 0)"/>
     <use xlink:href="#DejaVuSans-65" transform="translate(2360.648438 0)"/>
     <use xlink:href="#DejaVuSans-6c" transform="translate(2422.171875 0)"/>
     <use xlink:href="#DejaVuSans-6c" transform="translate(2449.955078 0)"/>
     <use xlink:href="#DejaVuSans-61" transform="translate(2477.738281 0)"/>
     <use xlink:href="#DejaVuSans-20" transform="translate(2539.017578 0)"/>
     <use xlink:href="#DejaVuSans-72" transform="translate(2570.804688 0)"/>
     <use xlink:href="#DejaVuSans-6f" transform="translate(2609.667969 0)"/>
     <use xlink:href="#DejaVuSans-74" transform="translate(2670.849609 0)"/>
     <use xlink:href="#DejaVuSans-61" transform="translate(2710.058594 0)"/>
     <use xlink:href="#DejaVuSans-7a" transform="translate(2771.337891 0)"/>
     <use xlink:href="#DejaVuSans-69" transform="translate(2823.828125 0)"/>
     <use xlink:href="#DejaVuSans-6f" transform="translate(2851.611328 0)"/>
     <use xlink:href="#DejaVuSans-6e" transform="translate(2912.792969 0)"/>
     <use xlink:href="#DejaVuSans-65" transform="translate(2976.171875 0)"/>
     <use xlink:href="#DejaVuSans-20" transform="translate(3037.695312 0)"/>
     <use xlink:href="#DejaVuSans-69" transform="translate(3069.482422 0)"/>
     <use xlink:href="#DejaVuSans-6e" transform="translate(3097.265625 0)"/>
     <use xlink:href="#DejaVuSans-69" transform="translate(3160.644531 0)"/>
     <use xlink:href="#DejaVuSans-7a" transform="translate(3188.427734 0)"/>
     <use xlink:href="#DejaVuSans-69" transform="translate(3240.917969 0)"/>
     <use xlink:href="#DejaVuSans-61" transform="translate(3268.701172 0)"/>
     <use xlink:href="#DejaVuSans-6c" transform="translate(3329.980469 0)"/>
     <use xlink:href="#DejaVuSans-65" transform="translate(3357.763672 0)"/>
     <use xlink:href="#DejaVuSans-2e" transform="translate(3419.287109 0)"/>
    </g>
   </g>
  </g>
  <g id="text_29">
   <!-- Una rotazione non centrata equivale a traslazione + rotazione centrata -->
   <g transform="translate(7.2 18.217734) scale(0.145 -0.145)">
    <defs>
     <path id="DejaVuSans-Bold-55" d="M 588 4666 
L 1791 4666 
L 1791 1869 
Q 1791 1291 1980 1042 
Q 2169 794 2597 794 
Q 3028 794 3217 1042 
Q 3406 1291 3406 1869 
L 3406 4666 
L 4609 4666 
L 4609 1869 
Q 4609 878 4112 393 
Q 3616 -91 2597 -91 
Q 1581 -91 1084 393 
Q 588 878 588 1869 
L 588 4666 
z
" transform="scale(0.015625)"/>
     <path id="DejaVuSans-Bold-6e" d="M 4056 2131 
L 4056 0 
L 2931 0 
L 2931 347 
L 2931 1631 
Q 2931 2084 2911 2256 
Q 2891 2428 2841 2509 
Q 2775 2619 2662 2680 
Q 2550 2741 2406 2741 
Q 2056 2741 1856 2470 
Q 1656 2200 1656 1722 
L 1656 0 
L 538 0 
L 538 3500 
L 1656 3500 
L 1656 2988 
Q 1909 3294 2193 3439 
Q 2478 3584 2822 3584 
Q 3428 3584 3742 3212 
Q 4056 2841 4056 2131 
z
" transform="scale(0.015625)"/>
     <path id="DejaVuSans-Bold-61" d="M 2106 1575 
Q 1756 1575 1579 1456 
Q 1403 1338 1403 1106 
Q 1403 894 1545 773 
Q 1688 653 1941 653 
Q 2256 653 2472 879 
Q 2688 1106 2688 1447 
L 2688 1575 
L 2106 1575 
z
M 3816 1997 
L 3816 0 
L 2688 0 
L 2688 519 
Q 2463 200 2181 54 
Q 1900 -91 1497 -91 
Q 953 -91 614 226 
Q 275 544 275 1050 
Q 275 1666 698 1953 
Q 1122 2241 2028 2241 
L 2688 2241 
L 2688 2328 
Q 2688 2594 2478 2717 
Q 2269 2841 1825 2841 
Q 1466 2841 1156 2769 
Q 847 2697 581 2553 
L 581 3406 
Q 941 3494 1303 3539 
Q 1666 3584 2028 3584 
Q 2975 3584 3395 3211 
Q 3816 2838 3816 1997 
z
" transform="scale(0.015625)"/>
     <path id="DejaVuSans-Bold-20" transform="scale(0.015625)"/>
     <path id="DejaVuSans-Bold-72" d="M 3138 2547 
Q 2991 2616 2845 2648 
Q 2700 2681 2553 2681 
Q 2122 2681 1889 2404 
Q 1656 2128 1656 1613 
L 1656 0 
L 538 0 
L 538 3500 
L 1656 3500 
L 1656 2925 
Q 1872 3269 2151 3426 
Q 2431 3584 2822 3584 
Q 2878 3584 2943 3579 
Q 3009 3575 3134 3559 
L 3138 2547 
z
" transform="scale(0.015625)"/>
     <path id="DejaVuSans-Bold-6f" d="M 2203 2784 
Q 1831 2784 1636 2517 
Q 1441 2250 1441 1747 
Q 1441 1244 1636 976 
Q 1831 709 2203 709 
Q 2569 709 2762 976 
Q 2956 1244 2956 1747 
Q 2956 2250 2762 2517 
Q 2569 2784 2203 2784 
z
M 2203 3584 
Q 3106 3584 3614 3096 
Q 4122 2609 4122 1747 
Q 4122 884 3614 396 
Q 3106 -91 2203 -91 
Q 1297 -91 786 396 
Q 275 884 275 1747 
Q 275 2609 786 3096 
Q 1297 3584 2203 3584 
z
" transform="scale(0.015625)"/>
     <path id="DejaVuSans-Bold-74" d="M 1759 4494 
L 1759 3500 
L 2913 3500 
L 2913 2700 
L 1759 2700 
L 1759 1216 
Q 1759 972 1856 886 
Q 1953 800 2241 800 
L 2816 800 
L 2816 0 
L 1856 0 
Q 1194 0 917 276 
Q 641 553 641 1216 
L 641 2700 
L 84 2700 
L 84 3500 
L 641 3500 
L 641 4494 
L 1759 4494 
z
" transform="scale(0.015625)"/>
     <path id="DejaVuSans-Bold-7a" d="M 366 3500 
L 3419 3500 
L 3419 2719 
L 1575 800 
L 3419 800 
L 3419 0 
L 288 0 
L 288 781 
L 2131 2700 
L 366 2700 
L 366 3500 
z
" transform="scale(0.015625)"/>
     <path id="DejaVuSans-Bold-69" d="M 538 3500 
L 1656 3500 
L 1656 0 
L 538 0 
L 538 3500 
z
M 538 4863 
L 1656 4863 
L 1656 3950 
L 538 3950 
L 538 4863 
z
" transform="scale(0.015625)"/>
     <path id="DejaVuSans-Bold-65" d="M 4031 1759 
L 4031 1441 
L 1416 1441 
Q 1456 1047 1700 850 
Q 1944 653 2381 653 
Q 2734 653 3104 758 
Q 3475 863 3866 1075 
L 3866 213 
Q 3469 63 3072 -14 
Q 2675 -91 2278 -91 
Q 1328 -91 801 392 
Q 275 875 275 1747 
Q 275 2603 792 3093 
Q 1309 3584 2216 3584 
Q 3041 3584 3536 3087 
Q 4031 2591 4031 1759 
z
M 2881 2131 
Q 2881 2450 2695 2645 
Q 2509 2841 2209 2841 
Q 1884 2841 1681 2658 
Q 1478 2475 1428 2131 
L 2881 2131 
z
" transform="scale(0.015625)"/>
     <path id="DejaVuSans-Bold-63" d="M 3366 3391 
L 3366 2478 
Q 3138 2634 2908 2709 
Q 2678 2784 2431 2784 
Q 1963 2784 1702 2511 
Q 1441 2238 1441 1747 
Q 1441 1256 1702 982 
Q 1963 709 2431 709 
Q 2694 709 2930 787 
Q 3166 866 3366 1019 
L 3366 103 
Q 3103 6 2833 -42 
Q 2563 -91 2291 -91 
Q 1344 -91 809 395 
Q 275 881 275 1747 
Q 275 2613 809 3098 
Q 1344 3584 2291 3584 
Q 2566 3584 2833 3536 
Q 3100 3488 3366 3391 
z
" transform="scale(0.015625)"/>
     <path id="DejaVuSans-Bold-71" d="M 2181 2772 
Q 1825 2772 1636 2509 
Q 1447 2247 1447 1747 
Q 1447 1247 1636 984 
Q 1825 722 2181 722 
Q 2541 722 2730 984 
Q 2919 1247 2919 1747 
Q 2919 2247 2730 2509 
Q 2541 2772 2181 2772 
z
M 2919 506 
Q 2688 197 2409 53 
Q 2131 -91 1766 -91 
Q 1119 -91 703 423 
Q 288 938 288 1747 
Q 288 2556 703 3067 
Q 1119 3578 1766 3578 
Q 2131 3578 2409 3434 
Q 2688 3291 2919 2981 
L 2919 3500 
L 4044 3500 
L 4044 -1331 
L 2919 -1331 
L 2919 506 
z
" transform="scale(0.015625)"/>
     <path id="DejaVuSans-Bold-75" d="M 500 1363 
L 500 3500 
L 1625 3500 
L 1625 3150 
Q 1625 2866 1622 2436 
Q 1619 2006 1619 1863 
Q 1619 1441 1641 1255 
Q 1663 1069 1716 984 
Q 1784 875 1895 815 
Q 2006 756 2150 756 
Q 2500 756 2700 1025 
Q 2900 1294 2900 1772 
L 2900 3500 
L 4019 3500 
L 4019 0 
L 2900 0 
L 2900 506 
Q 2647 200 2364 54 
Q 2081 -91 1741 -91 
Q 1134 -91 817 281 
Q 500 653 500 1363 
z
" transform="scale(0.015625)"/>
     <path id="DejaVuSans-Bold-76" d="M 97 3500 
L 1216 3500 
L 2088 1081 
L 2956 3500 
L 4078 3500 
L 2700 0 
L 1472 0 
L 97 3500 
z
" transform="scale(0.015625)"/>
     <path id="DejaVuSans-Bold-6c" d="M 538 4863 
L 1656 4863 
L 1656 0 
L 538 0 
L 538 4863 
z
" transform="scale(0.015625)"/>
     <path id="DejaVuSans-Bold-73" d="M 3272 3391 
L 3272 2541 
Q 2913 2691 2578 2766 
Q 2244 2841 1947 2841 
Q 1628 2841 1473 2761 
Q 1319 2681 1319 2516 
Q 1319 2381 1436 2309 
Q 1553 2238 1856 2203 
L 2053 2175 
Q 2913 2066 3209 1816 
Q 3506 1566 3506 1031 
Q 3506 472 3093 190 
Q 2681 -91 1863 -91 
Q 1516 -91 1145 -36 
Q 775 19 384 128 
L 384 978 
Q 719 816 1070 734 
Q 1422 653 1784 653 
Q 2113 653 2278 743 
Q 2444 834 2444 1013 
Q 2444 1163 2330 1236 
Q 2216 1309 1875 1350 
L 1678 1375 
Q 931 1469 631 1722 
Q 331 1975 331 2491 
Q 331 3047 712 3315 
Q 1094 3584 1881 3584 
Q 2191 3584 2531 3537 
Q 2872 3491 3272 3391 
z
" transform="scale(0.015625)"/>
     <path id="DejaVuSans-Bold-2b" d="M 3053 4013 
L 3053 2375 
L 4684 2375 
L 4684 1638 
L 3053 1638 
L 3053 0 
L 2309 0 
L 2309 1638 
L 678 1638 
L 678 2375 
L 2309 2375 
L 2309 4013 
L 3053 4013 
z
" transform="scale(0.015625)"/>
    </defs>
    <use xlink:href="#DejaVuSans-Bold-55"/>
    <use xlink:href="#DejaVuSans-Bold-6e" transform="translate(81.201172 0)"/>
    <use xlink:href="#DejaVuSans-Bold-61" transform="translate(152.392578 0)"/>
    <use xlink:href="#DejaVuSans-Bold-20" transform="translate(219.873047 0)"/>
    <use xlink:href="#DejaVuSans-Bold-72" transform="translate(254.6875 0)"/>
    <use xlink:href="#DejaVuSans-Bold-6f" transform="translate(304.003906 0)"/>
    <use xlink:href="#DejaVuSans-Bold-74" transform="translate(372.705078 0)"/>
    <use xlink:href="#DejaVuSans-Bold-61" transform="translate(420.507812 0)"/>
    <use xlink:href="#DejaVuSans-Bold-7a" transform="translate(487.988281 0)"/>
    <use xlink:href="#DejaVuSans-Bold-69" transform="translate(546.191406 0)"/>
    <use xlink:href="#DejaVuSans-Bold-6f" transform="translate(580.46875 0)"/>
    <use xlink:href="#DejaVuSans-Bold-6e" transform="translate(649.169922 0)"/>
    <use xlink:href="#DejaVuSans-Bold-65" transform="translate(720.361328 0)"/>
    <use xlink:href="#DejaVuSans-Bold-20" transform="translate(788.183594 0)"/>
    <use xlink:href="#DejaVuSans-Bold-6e" transform="translate(822.998047 0)"/>
    <use xlink:href="#DejaVuSans-Bold-6f" transform="translate(894.189453 0)"/>
    <use xlink:href="#DejaVuSans-Bold-6e" transform="translate(962.890625 0)"/>
    <use xlink:href="#DejaVuSans-Bold-20" transform="translate(1034.082031 0)"/>
    <use xlink:href="#DejaVuSans-Bold-63" transform="translate(1068.896484 0)"/>
    <use xlink:href="#DejaVuSans-Bold-65" transform="translate(1128.173828 0)"/>
    <use xlink:href="#DejaVuSans-Bold-6e" transform="translate(1195.996094 0)"/>
    <use xlink:href="#DejaVuSans-Bold-74" transform="translate(1267.1875 0)"/>
    <use xlink:href="#DejaVuSans-Bold-72" transform="translate(1314.990234 0)"/>
    <use xlink:href="#DejaVuSans-Bold-61" transform="translate(1364.306641 0)"/>
    <use xlink:href="#DejaVuSans-Bold-74" transform="translate(1431.787109 0)"/>
    <use xlink:href="#DejaVuSans-Bold-61" transform="translate(1479.589844 0)"/>
    <use xlink:href="#DejaVuSans-Bold-20" transform="translate(1547.070312 0)"/>
    <use xlink:href="#DejaVuSans-Bold-65" transform="translate(1581.884766 0)"/>
    <use xlink:href="#DejaVuSans-Bold-71" transform="translate(1649.707031 0)"/>
    <use xlink:href="#DejaVuSans-Bold-75" transform="translate(1721.289062 0)"/>
    <use xlink:href="#DejaVuSans-Bold-69" transform="translate(1792.480469 0)"/>
    <use xlink:href="#DejaVuSans-Bold-76" transform="translate(1826.757812 0)"/>
    <use xlink:href="#DejaVuSans-Bold-61" transform="translate(1891.943359 0)"/>
    <use xlink:href="#DejaVuSans-Bold-6c" transform="translate(1959.423828 0)"/>
    <use xlink:href="#DejaVuSans-Bold-65" transform="translate(1993.701172 0)"/>
    <use xlink:href="#DejaVuSans-Bold-20" transform="translate(2061.523438 0)"/>
    <use xlink:href="#DejaVuSans-Bold-61" transform="translate(2096.337891 0)"/>
    <use xlink:href="#DejaVuSans-Bold-20" transform="translate(2163.818359 0)"/>
    <use xlink:href="#DejaVuSans-Bold-74" transform="translate(2198.632812 0)"/>
    <use xlink:href="#DejaVuSans-Bold-72" transform="translate(2246.435547 0)"/>
    <use xlink:href="#DejaVuSans-Bold-61" transform="translate(2295.751953 0)"/>
    <use xlink:href="#DejaVuSans-Bold-73" transform="translate(2363.232422 0)"/>
    <use xlink:href="#DejaVuSans-Bold-6c" transform="translate(2422.753906 0)"/>
    <use xlink:href="#DejaVuSans-Bold-61" transform="translate(2457.03125 0)"/>
    <use xlink:href="#DejaVuSans-Bold-7a" transform="translate(2524.511719 0)"/>
    <use xlink:href="#DejaVuSans-Bold-69" transform="translate(2582.714844 0)"/>
    <use xlink:href="#DejaVuSans-Bold-6f" transform="translate(2616.992188 0)"/>
    <use xlink:href="#DejaVuSans-Bold-6e" transform="translate(2685.693359 0)"/>
    <use xlink:href="#DejaVuSans-Bold-65" transform="translate(2756.884766 0)"/>
    <use xlink:href="#DejaVuSans-Bold-20" transform="translate(2824.707031 0)"/>
    <use xlink:href="#DejaVuSans-Bold-2b" transform="translate(2859.521484 0)"/>
    <use xlink:href="#DejaVuSans-Bold-20" transform="translate(2943.310547 0)"/>
    <use xlink:href="#DejaVuSans-Bold-72" transform="translate(2978.125 0)"/>
    <use xlink:href="#DejaVuSans-Bold-6f" transform="translate(3027.441406 0)"/>
    <use xlink:href="#DejaVuSans-Bold-74" transform="translate(3096.142578 0)"/>
    <use xlink:href="#DejaVuSans-Bold-61" transform="translate(3143.945312 0)"/>
    <use xlink:href="#DejaVuSans-Bold-7a" transform="translate(3211.425781 0)"/>
    <use xlink:href="#DejaVuSans-Bold-69" transform="translate(3269.628906 0)"/>
    <use xlink:href="#DejaVuSans-Bold-6f" transform="translate(3303.90625 0)"/>
    <use xlink:href="#DejaVuSans-Bold-6e" transform="translate(3372.607422 0)"/>
    <use xlink:href="#DejaVuSans-Bold-65" transform="translate(3443.798828 0)"/>
    <use xlink:href="#DejaVuSans-Bold-20" transform="translate(3511.621094 0)"/>
    <use xlink:href="#DejaVuSans-Bold-63" transform="translate(3546.435547 0)"/>
    <use xlink:href="#DejaVuSans-Bold-65" transform="translate(3605.712891 0)"/>
    <use xlink:href="#DejaVuSans-Bold-6e" transform="translate(3673.535156 0)"/>
    <use xlink:href="#DejaVuSans-Bold-74" transform="translate(3744.726562 0)"/>
    <use xlink:href="#DejaVuSans-Bold-72" transform="translate(3792.529297 0)"/>
    <use xlink:href="#DejaVuSans-Bold-61" transform="translate(3841.845703 0)"/>
    <use xlink:href="#DejaVuSans-Bold-74" transform="translate(3909.326172 0)"/>
    <use xlink:href="#DejaVuSans-Bold-61" transform="translate(3957.128906 0)"/>
   </g>
  </g>
 </g>
 <defs>
  <clipPath id="pb6517c5089">
   <rect x="28.985312" y="45.462857" width="558" height="358.714286"/>
  </clipPath>
 </defs>
</svg>
