<?xml version="1.0" encoding="utf-8" standalone="no"?>
<!DOCTYPE svg PUBLIC "-//W3C//DTD SVG 1.1//EN"
  "http://www.w3.org/Graphics/SVG/1.1/DTD/svg11.dtd">
<svg xmlns:xlink="http://www.w3.org/1999/xlink" width="684pt" height="326.240733pt" viewBox="0 0 684 326.240733" xmlns="http://www.w3.org/2000/svg" version="1.1">
 <metadata>
  <rdf:RDF xmlns:dc="http://purl.org/dc/elements/1.1/" xmlns:cc="http://creativecommons.org/ns#" xmlns:rdf="http://www.w3.org/1999/02/22-rdf-syntax-ns#">
   <cc:Work>
    <dc:type rdf:resource="http://purl.org/dc/dcmitype/StillImage"/>
    <dc:date>2026-06-16T08:18:20.289815</dc:date>
    <dc:format>image/svg+xml</dc:format>
    <dc:creator>
     <cc:Agent>
      <dc:title>Matplotlib v3.10.8, https://matplotlib.org/</dc:title>
     </cc:Agent>
    </dc:creator>
   </cc:Work>
  </rdf:RDF>
 </metadata>
 <defs>
  <style type="text/css">*{stroke-linejoin: round; stroke-linecap: butt}</style>
 </defs>
 <g id="figure_1">
  <g id="patch_1">
   <path d="M 0 326.240733 
L 684 326.240733 
L 684 0 
L 0 0 
z
" style="fill: #ffffff"/>
  </g>
  <g id="axes_1">
   <g id="patch_2">
    <path d="M 27.803077 252.080733 
L 213.230769 252.080733 
L 213.230769 97.557656 
L 27.803077 97.557656 
L 27.803077 252.080733 
z
" clip-path="url(#p2459bb8ea8)" style="fill: none; stroke: #000000; stroke-width: 1.2; stroke-linejoin: miter"/>
   </g>
   <g id="patch_3">
    <path d="M 33.984 245.89981 
L 207.049846 245.89981 
L 207.049846 103.738579 
L 33.984 103.738579 
z
" clip-path="url(#p2459bb8ea8)" style="fill: #1f77b4; opacity: 0.14"/>
   </g>
   <g id="patch_4">
    <path d="M 50.981538 235.083195 
C 52.620738 235.083195 54.193022 234.431934 55.352111 233.272844 
C 56.5112 232.113755 57.162462 230.541472 57.162462 228.902272 
C 57.162462 227.263072 56.5112 225.690788 55.352111 224.531699 
C 54.193022 223.37261 52.620738 222.721349 50.981538 222.721349 
C 49.342339 222.721349 47.770055 223.37261 46.610966 224.531699 
C 45.451876 225.690788 44.800615 227.263072 44.800615 228.902272 
C 44.800615 230.541472 45.451876 232.113755 46.610966 233.272844 
C 47.770055 234.431934 49.342339 235.083195 50.981538 235.083195 
L 50.981538 235.083195 
z
" clip-path="url(#p2459bb8ea8)" style="fill: none; stroke: #000000; stroke-width: 1.3; stroke-linejoin: miter"/>
   </g>
   <g id="patch_5">
    <path d="M 84.461538 235.083195 
C 86.100738 235.083195 87.673022 234.431934 88.832111 233.272844 
C 89.9912 232.113755 90.642462 230.541472 90.642462 228.902272 
C 90.642462 227.263072 89.9912 225.690788 88.832111 224.531699 
C 87.673022 223.37261 86.100738 222.721349 84.461538 222.721349 
C 82.822339 222.721349 81.250055 223.37261 80.090966 224.531699 
C 78.931876 225.690788 78.280615 227.263072 78.280615 228.902272 
C 78.280615 230.541472 78.931876 232.113755 80.090966 233.272844 
C 81.250055 234.431934 82.822339 235.083195 84.461538 235.083195 
L 84.461538 235.083195 
z
" clip-path="url(#p2459bb8ea8)" style="fill: none; stroke: #000000; stroke-width: 1.3; stroke-linejoin: miter"/>
   </g>
   <g id="patch_6">
    <path d="M 117.941538 235.083195 
C 119.580738 235.083195 121.153022 234.431934 122.312111 233.272844 
C 123.4712 232.113755 124.122462 230.541472 124.122462 228.902272 
C 124.122462 227.263072 123.4712 225.690788 122.312111 224.531699 
C 121.153022 223.37261 119.580738 222.721349 117.941538 222.721349 
C 116.302339 222.721349 114.730055 223.37261 113.570966 224.531699 
C 112.411876 225.690788 111.760615 227.263072 111.760615 228.902272 
C 111.760615 230.541472 112.411876 232.113755 113.570966 233.272844 
C 114.730055 234.431934 116.302339 235.083195 117.941538 235.083195 
L 117.941538 235.083195 
z
" clip-path="url(#p2459bb8ea8)" style="fill: none; stroke: #000000; stroke-width: 1.3; stroke-linejoin: miter"/>
   </g>
   <g id="patch_7">
    <path d="M 151.421538 235.083195 
C 153.060738 235.083195 154.633022 234.431934 155.792111 233.272844 
C 156.9512 232.113755 157.602462 230.541472 157.602462 228.902272 
C 157.602462 227.263072 156.9512 225.690788 155.792111 224.531699 
C 154.633022 223.37261 153.060738 222.721349 151.421538 222.721349 
C 149.782339 222.721349 148.210055 223.37261 147.050966 224.531699 
C 145.891876 225.690788 145.240615 227.263072 145.240615 228.902272 
C 145.240615 230.541472 145.891876 232.113755 147.050966 233.272844 
C 148.210055 234.431934 149.782339 235.083195 151.421538 235.083195 
L 151.421538 235.083195 
z
" clip-path="url(#p2459bb8ea8)" style="fill: none; stroke: #000000; stroke-width: 1.3; stroke-linejoin: miter"/>
   </g>
   <g id="patch_8">
    <path d="M 184.901538 235.083195 
C 186.540738 235.083195 188.113022 234.431934 189.272111 233.272844 
C 190.4312 232.113755 191.082462 230.541472 191.082462 228.902272 
C 191.082462 227.263072 190.4312 225.690788 189.272111 224.531699 
C 188.113022 223.37261 186.540738 222.721349 184.901538 222.721349 
C 183.262339 222.721349 181.690055 223.37261 180.530966 224.531699 
C 179.371876 225.690788 178.720615 227.263072 178.720615 228.902272 
C 178.720615 230.541472 179.371876 232.113755 180.530966 233.272844 
C 181.690055 234.431934 183.262339 235.083195 184.901538 235.083195 
L 184.901538 235.083195 
z
" clip-path="url(#p2459bb8ea8)" style="fill: none; stroke: #000000; stroke-width: 1.3; stroke-linejoin: miter"/>
   </g>
   <g id="patch_9">
    <path d="M 50.981538 191.301656 
C 52.620738 191.301656 54.193022 190.650395 55.352111 189.491306 
C 56.5112 188.332216 57.162462 186.759933 57.162462 185.120733 
C 57.162462 183.481533 56.5112 181.90925 55.352111 180.750161 
C 54.193022 179.591071 52.620738 178.93981 50.981538 178.93981 
C 49.342339 178.93981 47.770055 179.591071 46.610966 180.750161 
C 45.451876 181.90925 44.800615 183.481533 44.800615 185.120733 
C 44.800615 186.759933 45.451876 188.332216 46.610966 189.491306 
C 47.770055 190.650395 49.342339 191.301656 50.981538 191.301656 
L 50.981538 191.301656 
z
" clip-path="url(#p2459bb8ea8)" style="fill: none; stroke: #000000; stroke-width: 1.3; stroke-linejoin: miter"/>
   </g>
   <g id="patch_10">
    <path d="M 84.461538 191.301656 
C 86.100738 191.301656 87.673022 190.650395 88.832111 189.491306 
C 89.9912 188.332216 90.642462 186.759933 90.642462 185.120733 
C 90.642462 183.481533 89.9912 181.90925 88.832111 180.750161 
C 87.673022 179.591071 86.100738 178.93981 84.461538 178.93981 
C 82.822339 178.93981 81.250055 179.591071 80.090966 180.750161 
C 78.931876 181.90925 78.280615 183.481533 78.280615 185.120733 
C 78.280615 186.759933 78.931876 188.332216 80.090966 189.491306 
C 81.250055 190.650395 82.822339 191.301656 84.461538 191.301656 
L 84.461538 191.301656 
z
" clip-path="url(#p2459bb8ea8)" style="fill: none; stroke: #000000; stroke-width: 1.3; stroke-linejoin: miter"/>
   </g>
   <g id="patch_11">
    <path d="M 117.941538 191.301656 
C 119.580738 191.301656 121.153022 190.650395 122.312111 189.491306 
C 123.4712 188.332216 124.122462 186.759933 124.122462 185.120733 
C 124.122462 183.481533 123.4712 181.90925 122.312111 180.750161 
C 121.153022 179.591071 119.580738 178.93981 117.941538 178.93981 
C 116.302339 178.93981 114.730055 179.591071 113.570966 180.750161 
C 112.411876 181.90925 111.760615 183.481533 111.760615 185.120733 
C 111.760615 186.759933 112.411876 188.332216 113.570966 189.491306 
C 114.730055 190.650395 116.302339 191.301656 117.941538 191.301656 
L 117.941538 191.301656 
z
" clip-path="url(#p2459bb8ea8)" style="fill: none; stroke: #000000; stroke-width: 1.3; stroke-linejoin: miter"/>
   </g>
   <g id="patch_12">
    <path d="M 151.421538 191.301656 
C 153.060738 191.301656 154.633022 190.650395 155.792111 189.491306 
C 156.9512 188.332216 157.602462 186.759933 157.602462 185.120733 
C 157.602462 183.481533 156.9512 181.90925 155.792111 180.750161 
C 154.633022 179.591071 153.060738 178.93981 151.421538 178.93981 
C 149.782339 178.93981 148.210055 179.591071 147.050966 180.750161 
C 145.891876 181.90925 145.240615 183.481533 145.240615 185.120733 
C 145.240615 186.759933 145.891876 188.332216 147.050966 189.491306 
C 148.210055 190.650395 149.782339 191.301656 151.421538 191.301656 
L 151.421538 191.301656 
z
" clip-path="url(#p2459bb8ea8)" style="fill: none; stroke: #000000; stroke-width: 1.3; stroke-linejoin: miter"/>
   </g>
   <g id="patch_13">
    <path d="M 184.901538 191.301656 
C 186.540738 191.301656 188.113022 190.650395 189.272111 189.491306 
C 190.4312 188.332216 191.082462 186.759933 191.082462 185.120733 
C 191.082462 183.481533 190.4312 181.90925 189.272111 180.750161 
C 188.113022 179.591071 186.540738 178.93981 184.901538 178.93981 
C 183.262339 178.93981 181.690055 179.591071 180.530966 180.750161 
C 179.371876 181.90925 178.720615 183.481533 178.720615 185.120733 
C 178.720615 186.759933 179.371876 188.332216 180.530966 189.491306 
C 181.690055 190.650395 183.262339 191.301656 184.901538 191.301656 
L 184.901538 191.301656 
z
" clip-path="url(#p2459bb8ea8)" style="fill: none; stroke: #000000; stroke-width: 1.3; stroke-linejoin: miter"/>
   </g>
   <g id="patch_14">
    <path d="M 50.981538 147.520118 
C 52.620738 147.520118 54.193022 146.868857 55.352111 145.709767 
C 56.5112 144.550678 57.162462 142.978395 57.162462 141.339195 
C 57.162462 139.699995 56.5112 138.127711 55.352111 136.968622 
C 54.193022 135.809533 52.620738 135.158272 50.981538 135.158272 
C 49.342339 135.158272 47.770055 135.809533 46.610966 136.968622 
C 45.451876 138.127711 44.800615 139.699995 44.800615 141.339195 
C 44.800615 142.978395 45.451876 144.550678 46.610966 145.709767 
C 47.770055 146.868857 49.342339 147.520118 50.981538 147.520118 
L 50.981538 147.520118 
z
" clip-path="url(#p2459bb8ea8)" style="fill: none; stroke: #000000; stroke-width: 1.3; stroke-linejoin: miter"/>
   </g>
   <g id="patch_15">
    <path d="M 84.461538 147.520118 
C 86.100738 147.520118 87.673022 146.868857 88.832111 145.709767 
C 89.9912 144.550678 90.642462 142.978395 90.642462 141.339195 
C 90.642462 139.699995 89.9912 138.127711 88.832111 136.968622 
C 87.673022 135.809533 86.100738 135.158272 84.461538 135.158272 
C 82.822339 135.158272 81.250055 135.809533 80.090966 136.968622 
C 78.931876 138.127711 78.280615 139.699995 78.280615 141.339195 
C 78.280615 142.978395 78.931876 144.550678 80.090966 145.709767 
C 81.250055 146.868857 82.822339 147.520118 84.461538 147.520118 
L 84.461538 147.520118 
z
" clip-path="url(#p2459bb8ea8)" style="fill: none; stroke: #000000; stroke-width: 1.3; stroke-linejoin: miter"/>
   </g>
   <g id="patch_16">
    <path d="M 117.941538 147.520118 
C 119.580738 147.520118 121.153022 146.868857 122.312111 145.709767 
C 123.4712 144.550678 124.122462 142.978395 124.122462 141.339195 
C 124.122462 139.699995 123.4712 138.127711 122.312111 136.968622 
C 121.153022 135.809533 119.580738 135.158272 117.941538 135.158272 
C 116.302339 135.158272 114.730055 135.809533 113.570966 136.968622 
C 112.411876 138.127711 111.760615 139.699995 111.760615 141.339195 
C 111.760615 142.978395 112.411876 144.550678 113.570966 145.709767 
C 114.730055 146.868857 116.302339 147.520118 117.941538 147.520118 
L 117.941538 147.520118 
z
" clip-path="url(#p2459bb8ea8)" style="fill: none; stroke: #000000; stroke-width: 1.3; stroke-linejoin: miter"/>
   </g>
   <g id="patch_17">
    <path d="M 151.421538 147.520118 
C 153.060738 147.520118 154.633022 146.868857 155.792111 145.709767 
C 156.9512 144.550678 157.602462 142.978395 157.602462 141.339195 
C 157.602462 139.699995 156.9512 138.127711 155.792111 136.968622 
C 154.633022 135.809533 153.060738 135.158272 151.421538 135.158272 
C 149.782339 135.158272 148.210055 135.809533 147.050966 136.968622 
C 145.891876 138.127711 145.240615 139.699995 145.240615 141.339195 
C 145.240615 142.978395 145.891876 144.550678 147.050966 145.709767 
C 148.210055 146.868857 149.782339 147.520118 151.421538 147.520118 
L 151.421538 147.520118 
z
" clip-path="url(#p2459bb8ea8)" style="fill: none; stroke: #000000; stroke-width: 1.3; stroke-linejoin: miter"/>
   </g>
   <g id="patch_18">
    <path d="M 184.901538 147.520118 
C 186.540738 147.520118 188.113022 146.868857 189.272111 145.709767 
C 190.4312 144.550678 191.082462 142.978395 191.082462 141.339195 
C 191.082462 139.699995 190.4312 138.127711 189.272111 136.968622 
C 188.113022 135.809533 186.540738 135.158272 184.901538 135.158272 
C 183.262339 135.158272 181.690055 135.809533 180.530966 136.968622 
C 179.371876 138.127711 178.720615 139.699995 178.720615 141.339195 
C 178.720615 142.978395 179.371876 144.550678 180.530966 145.709767 
C 181.690055 146.868857 183.262339 147.520118 184.901538 147.520118 
L 184.901538 147.520118 
z
" clip-path="url(#p2459bb8ea8)" style="fill: none; stroke: #000000; stroke-width: 1.3; stroke-linejoin: miter"/>
   </g>
   <g id="patch_19">
    <path d="M 254.436923 252.080733 
L 439.864615 252.080733 
L 439.864615 97.557656 
L 254.436923 97.557656 
L 254.436923 252.080733 
z
" clip-path="url(#p2459bb8ea8)" style="fill: none; stroke: #000000; stroke-width: 1.2; stroke-linejoin: miter"/>
   </g>
   <g id="patch_20">
    <path d="M 274.009846 236.113349 
C 275.922246 236.113349 277.756577 235.353544 279.108848 234.001273 
C 280.461119 232.649002 281.220923 230.814672 281.220923 228.902272 
C 281.220923 226.989872 280.461119 225.155541 279.108848 223.80327 
C 277.756577 222.450999 275.922246 221.691195 274.009846 221.691195 
C 272.097446 221.691195 270.263116 222.450999 268.910845 223.80327 
C 267.558574 225.155541 266.798769 226.989872 266.798769 228.902272 
C 266.798769 230.814672 267.558574 232.649002 268.910845 234.001273 
C 270.263116 235.353544 272.097446 236.113349 274.009846 236.113349 
L 274.009846 236.113349 
z
" clip-path="url(#p2459bb8ea8)" style="fill: none; stroke: #000000; stroke-width: 1.3; stroke-linejoin: miter"/>
   </g>
   <g id="patch_21">
    <path d="M 307.489846 242.809349 
C 311.178046 242.809349 314.715683 241.344011 317.323635 238.73606 
C 319.931586 236.128109 321.396923 232.590472 321.396923 228.902272 
C 321.396923 225.214072 319.931586 221.676434 317.323635 219.068483 
C 314.715683 216.460532 311.178046 214.995195 307.489846 214.995195 
C 303.801646 214.995195 300.264009 216.460532 297.656058 219.068483 
C 295.048107 221.676434 293.582769 225.214072 293.582769 228.902272 
C 293.582769 232.590472 295.048107 236.128109 297.656058 238.73606 
C 300.264009 241.344011 303.801646 242.809349 307.489846 242.809349 
z
" clip-path="url(#p2459bb8ea8)" style="fill: #1f77b4; opacity: 0.1"/>
   </g>
   <g id="patch_22">
    <path d="M 307.489846 234.053041 
C 308.855846 234.053041 310.166082 233.510323 311.13199 232.544415 
C 312.097898 231.578508 312.640615 230.268272 312.640615 228.902272 
C 312.640615 227.536272 312.097898 226.226036 311.13199 225.260128 
C 310.166082 224.29422 308.855846 223.751502 307.489846 223.751502 
C 306.123846 223.751502 304.81361 224.29422 303.847702 225.260128 
C 302.881794 226.226036 302.339077 227.536272 302.339077 228.902272 
C 302.339077 230.268272 302.881794 231.578508 303.847702 232.544415 
C 304.81361 233.510323 306.123846 234.053041 307.489846 234.053041 
L 307.489846 234.053041 
z
" clip-path="url(#p2459bb8ea8)" style="fill: none; stroke: #000000; stroke-width: 1.2; stroke-linejoin: miter"/>
   </g>
   <g id="patch_23">
    <path d="M 340.969846 236.113349 
C 342.882246 236.113349 344.716577 235.353544 346.068848 234.001273 
C 347.421119 232.649002 348.180923 230.814672 348.180923 228.902272 
C 348.180923 226.989872 347.421119 225.155541 346.068848 223.80327 
C 344.716577 222.450999 342.882246 221.691195 340.969846 221.691195 
C 339.057446 221.691195 337.223116 222.450999 335.870845 223.80327 
C 334.518574 225.155541 333.758769 226.989872 333.758769 228.902272 
C 333.758769 230.814672 334.518574 232.649002 335.870845 234.001273 
C 337.223116 235.353544 339.057446 236.113349 340.969846 236.113349 
L 340.969846 236.113349 
z
" clip-path="url(#p2459bb8ea8)" style="fill: none; stroke: #000000; stroke-width: 1.3; stroke-linejoin: miter"/>
   </g>
   <g id="patch_24">
    <path d="M 374.449846 242.809349 
C 378.138046 242.809349 381.675683 241.344011 384.283635 238.73606 
C 386.891586 236.128109 388.356923 232.590472 388.356923 228.902272 
C 388.356923 225.214072 386.891586 221.676434 384.283635 219.068483 
C 381.675683 216.460532 378.138046 214.995195 374.449846 214.995195 
C 370.761646 214.995195 367.224009 216.460532 364.616058 219.068483 
C 362.008107 221.676434 360.542769 225.214072 360.542769 228.902272 
C 360.542769 232.590472 362.008107 236.128109 364.616058 238.73606 
C 367.224009 241.344011 370.761646 242.809349 374.449846 242.809349 
z
" clip-path="url(#p2459bb8ea8)" style="fill: #1f77b4; opacity: 0.1"/>
   </g>
   <g id="patch_25">
    <path d="M 374.449846 234.053041 
C 375.815846 234.053041 377.126082 233.510323 378.09199 232.544415 
C 379.057898 231.578508 379.600615 230.268272 379.600615 228.902272 
C 379.600615 227.536272 379.057898 226.226036 378.09199 225.260128 
C 377.126082 224.29422 375.815846 223.751502 374.449846 223.751502 
C 373.083846 223.751502 371.77361 224.29422 370.807702 225.260128 
C 369.841794 226.226036 369.299077 227.536272 369.299077 228.902272 
C 369.299077 230.268272 369.841794 231.578508 370.807702 232.544415 
C 371.77361 233.510323 373.083846 234.053041 374.449846 234.053041 
L 374.449846 234.053041 
z
" clip-path="url(#p2459bb8ea8)" style="fill: none; stroke: #000000; stroke-width: 1.2; stroke-linejoin: miter"/>
   </g>
   <g id="patch_26">
    <path d="M 407.929846 236.113349 
C 409.842246 236.113349 411.676577 235.353544 413.028848 234.001273 
C 414.381119 232.649002 415.140923 230.814672 415.140923 228.902272 
C 415.140923 226.989872 414.381119 225.155541 413.028848 223.80327 
C 411.676577 222.450999 409.842246 221.691195 407.929846 221.691195 
C 406.017446 221.691195 404.183116 222.450999 402.830845 223.80327 
C 401.478574 225.155541 400.718769 226.989872 400.718769 228.902272 
C 400.718769 230.814672 401.478574 232.649002 402.830845 234.001273 
C 404.183116 235.353544 406.017446 236.113349 407.929846 236.113349 
L 407.929846 236.113349 
z
" clip-path="url(#p2459bb8ea8)" style="fill: none; stroke: #000000; stroke-width: 1.3; stroke-linejoin: miter"/>
   </g>
   <g id="patch_27">
    <path d="M 274.009846 199.02781 
C 277.698046 199.02781 281.235683 197.562473 283.843635 194.954522 
C 286.451586 192.34657 287.916923 188.808933 287.916923 185.120733 
C 287.916923 181.432533 286.451586 177.894896 283.843635 175.286945 
C 281.235683 172.678994 277.698046 171.213656 274.009846 171.213656 
C 270.321646 171.213656 266.784009 172.678994 264.176058 175.286945 
C 261.568107 177.894896 260.102769 181.432533 260.102769 185.120733 
C 260.102769 188.808933 261.568107 192.34657 264.176058 194.954522 
C 266.784009 197.562473 270.321646 199.02781 274.009846 199.02781 
z
" clip-path="url(#p2459bb8ea8)" style="fill: #1f77b4; opacity: 0.1"/>
   </g>
   <g id="patch_28">
    <path d="M 274.009846 190.271502 
C 275.375846 190.271502 276.686082 189.728785 277.65199 188.762877 
C 278.617898 187.796969 279.160615 186.486733 279.160615 185.120733 
C 279.160615 183.754733 278.617898 182.444497 277.65199 181.478589 
C 276.686082 180.512681 275.375846 179.969964 274.009846 179.969964 
C 272.643846 179.969964 271.33361 180.512681 270.367702 181.478589 
C 269.401794 182.444497 268.859077 183.754733 268.859077 185.120733 
C 268.859077 186.486733 269.401794 187.796969 270.367702 188.762877 
C 271.33361 189.728785 272.643846 190.271502 274.009846 190.271502 
L 274.009846 190.271502 
z
" clip-path="url(#p2459bb8ea8)" style="fill: none; stroke: #000000; stroke-width: 1.2; stroke-linejoin: miter"/>
   </g>
   <g id="patch_29">
    <path d="M 307.489846 192.33181 
C 309.402246 192.33181 311.236577 191.572006 312.588848 190.219735 
C 313.941119 188.867464 314.700923 187.033133 314.700923 185.120733 
C 314.700923 183.208333 313.941119 181.374003 312.588848 180.021732 
C 311.236577 178.669461 309.402246 177.909656 307.489846 177.909656 
C 305.577446 177.909656 303.743116 178.669461 302.390845 180.021732 
C 301.038574 181.374003 300.278769 183.208333 300.278769 185.120733 
C 300.278769 187.033133 301.038574 188.867464 302.390845 190.219735 
C 303.743116 191.572006 305.577446 192.33181 307.489846 192.33181 
L 307.489846 192.33181 
z
" clip-path="url(#p2459bb8ea8)" style="fill: none; stroke: #000000; stroke-width: 1.3; stroke-linejoin: miter"/>
   </g>
   <g id="patch_30">
    <path d="M 340.969846 199.02781 
C 344.658046 199.02781 348.195683 197.562473 350.803635 194.954522 
C 353.411586 192.34657 354.876923 188.808933 354.876923 185.120733 
C 354.876923 181.432533 353.411586 177.894896 350.803635 175.286945 
C 348.195683 172.678994 344.658046 171.213656 340.969846 171.213656 
C 337.281646 171.213656 333.744009 172.678994 331.136058 175.286945 
C 328.528107 177.894896 327.062769 181.432533 327.062769 185.120733 
C 327.062769 188.808933 328.528107 192.34657 331.136058 194.954522 
C 333.744009 197.562473 337.281646 199.02781 340.969846 199.02781 
z
" clip-path="url(#p2459bb8ea8)" style="fill: #1f77b4; opacity: 0.1"/>
   </g>
   <g id="patch_31">
    <path d="M 340.969846 190.271502 
C 342.335846 190.271502 343.646082 189.728785 344.61199 188.762877 
C 345.577898 187.796969 346.120615 186.486733 346.120615 185.120733 
C 346.120615 183.754733 345.577898 182.444497 344.61199 181.478589 
C 343.646082 180.512681 342.335846 179.969964 340.969846 179.969964 
C 339.603846 179.969964 338.29361 180.512681 337.327702 181.478589 
C 336.361794 182.444497 335.819077 183.754733 335.819077 185.120733 
C 335.819077 186.486733 336.361794 187.796969 337.327702 188.762877 
C 338.29361 189.728785 339.603846 190.271502 340.969846 190.271502 
L 340.969846 190.271502 
z
" clip-path="url(#p2459bb8ea8)" style="fill: none; stroke: #000000; stroke-width: 1.2; stroke-linejoin: miter"/>
   </g>
   <g id="patch_32">
    <path d="M 374.449846 192.33181 
C 376.362246 192.33181 378.196577 191.572006 379.548848 190.219735 
C 380.901119 188.867464 381.660923 187.033133 381.660923 185.120733 
C 381.660923 183.208333 380.901119 181.374003 379.548848 180.021732 
C 378.196577 178.669461 376.362246 177.909656 374.449846 177.909656 
C 372.537446 177.909656 370.703116 178.669461 369.350845 180.021732 
C 367.998574 181.374003 367.238769 183.208333 367.238769 185.120733 
C 367.238769 187.033133 367.998574 188.867464 369.350845 190.219735 
C 370.703116 191.572006 372.537446 192.33181 374.449846 192.33181 
L 374.449846 192.33181 
z
" clip-path="url(#p2459bb8ea8)" style="fill: none; stroke: #000000; stroke-width: 1.3; stroke-linejoin: miter"/>
   </g>
   <g id="patch_33">
    <path d="M 407.929846 199.02781 
C 411.618046 199.02781 415.155683 197.562473 417.763635 194.954522 
C 420.371586 192.34657 421.836923 188.808933 421.836923 185.120733 
C 421.836923 181.432533 420.371586 177.894896 417.763635 175.286945 
C 415.155683 172.678994 411.618046 171.213656 407.929846 171.213656 
C 404.241646 171.213656 400.704009 172.678994 398.096058 175.286945 
C 395.488107 177.894896 394.022769 181.432533 394.022769 185.120733 
C 394.022769 188.808933 395.488107 192.34657 398.096058 194.954522 
C 400.704009 197.562473 404.241646 199.02781 407.929846 199.02781 
z
" clip-path="url(#p2459bb8ea8)" style="fill: #1f77b4; opacity: 0.1"/>
   </g>
   <g id="patch_34">
    <path d="M 407.929846 190.271502 
C 409.295846 190.271502 410.606082 189.728785 411.57199 188.762877 
C 412.537898 187.796969 413.080615 186.486733 413.080615 185.120733 
C 413.080615 183.754733 412.537898 182.444497 411.57199 181.478589 
C 410.606082 180.512681 409.295846 179.969964 407.929846 179.969964 
C 406.563846 179.969964 405.25361 180.512681 404.287702 181.478589 
C 403.321794 182.444497 402.779077 183.754733 402.779077 185.120733 
C 402.779077 186.486733 403.321794 187.796969 404.287702 188.762877 
C 405.25361 189.728785 406.563846 190.271502 407.929846 190.271502 
L 407.929846 190.271502 
z
" clip-path="url(#p2459bb8ea8)" style="fill: none; stroke: #000000; stroke-width: 1.2; stroke-linejoin: miter"/>
   </g>
   <g id="patch_35">
    <path d="M 274.009846 148.550272 
C 275.922246 148.550272 277.756577 147.790467 279.108848 146.438196 
C 280.461119 145.085925 281.220923 143.251595 281.220923 141.339195 
C 281.220923 139.426795 280.461119 137.592464 279.108848 136.240193 
C 277.756577 134.887922 275.922246 134.128118 274.009846 134.128118 
C 272.097446 134.128118 270.263116 134.887922 268.910845 136.240193 
C 267.558574 137.592464 266.798769 139.426795 266.798769 141.339195 
C 266.798769 143.251595 267.558574 145.085925 268.910845 146.438196 
C 270.263116 147.790467 272.097446 148.550272 274.009846 148.550272 
L 274.009846 148.550272 
z
" clip-path="url(#p2459bb8ea8)" style="fill: none; stroke: #000000; stroke-width: 1.3; stroke-linejoin: miter"/>
   </g>
   <g id="patch_36">
    <path d="M 307.489846 155.246272 
C 311.178046 155.246272 314.715683 153.780934 317.323635 151.172983 
C 319.931586 148.565032 321.396923 145.027395 321.396923 141.339195 
C 321.396923 137.650995 319.931586 134.113357 317.323635 131.505406 
C 314.715683 128.897455 311.178046 127.432118 307.489846 127.432118 
C 303.801646 127.432118 300.264009 128.897455 297.656058 131.505406 
C 295.048107 134.113357 293.582769 137.650995 293.582769 141.339195 
C 293.582769 145.027395 295.048107 148.565032 297.656058 151.172983 
C 300.264009 153.780934 303.801646 155.246272 307.489846 155.246272 
z
" clip-path="url(#p2459bb8ea8)" style="fill: #1f77b4; opacity: 0.1"/>
   </g>
   <g id="patch_37">
    <path d="M 307.489846 146.489964 
C 308.855846 146.489964 310.166082 145.947246 311.13199 144.981339 
C 312.097898 144.015431 312.640615 142.705195 312.640615 141.339195 
C 312.640615 139.973195 312.097898 138.662959 311.13199 137.697051 
C 310.166082 136.731143 308.855846 136.188425 307.489846 136.188425 
C 306.123846 136.188425 304.81361 136.731143 303.847702 137.697051 
C 302.881794 138.662959 302.339077 139.973195 302.339077 141.339195 
C 302.339077 142.705195 302.881794 144.015431 303.847702 144.981339 
C 304.81361 145.947246 306.123846 146.489964 307.489846 146.489964 
L 307.489846 146.489964 
z
" clip-path="url(#p2459bb8ea8)" style="fill: none; stroke: #000000; stroke-width: 1.2; stroke-linejoin: miter"/>
   </g>
   <g id="patch_38">
    <path d="M 340.969846 148.550272 
C 342.882246 148.550272 344.716577 147.790467 346.068848 146.438196 
C 347.421119 145.085925 348.180923 143.251595 348.180923 141.339195 
C 348.180923 139.426795 347.421119 137.592464 346.068848 136.240193 
C 344.716577 134.887922 342.882246 134.128118 340.969846 134.128118 
C 339.057446 134.128118 337.223116 134.887922 335.870845 136.240193 
C 334.518574 137.592464 333.758769 139.426795 333.758769 141.339195 
C 333.758769 143.251595 334.518574 145.085925 335.870845 146.438196 
C 337.223116 147.790467 339.057446 148.550272 340.969846 148.550272 
L 340.969846 148.550272 
z
" clip-path="url(#p2459bb8ea8)" style="fill: none; stroke: #000000; stroke-width: 1.3; stroke-linejoin: miter"/>
   </g>
   <g id="patch_39">
    <path d="M 374.449846 155.246272 
C 378.138046 155.246272 381.675683 153.780934 384.283635 151.172983 
C 386.891586 148.565032 388.356923 145.027395 388.356923 141.339195 
C 388.356923 137.650995 386.891586 134.113357 384.283635 131.505406 
C 381.675683 128.897455 378.138046 127.432118 374.449846 127.432118 
C 370.761646 127.432118 367.224009 128.897455 364.616058 131.505406 
C 362.008107 134.113357 360.542769 137.650995 360.542769 141.339195 
C 360.542769 145.027395 362.008107 148.565032 364.616058 151.172983 
C 367.224009 153.780934 370.761646 155.246272 374.449846 155.246272 
z
" clip-path="url(#p2459bb8ea8)" style="fill: #1f77b4; opacity: 0.1"/>
   </g>
   <g id="patch_40">
    <path d="M 374.449846 146.489964 
C 375.815846 146.489964 377.126082 145.947246 378.09199 144.981339 
C 379.057898 144.015431 379.600615 142.705195 379.600615 141.339195 
C 379.600615 139.973195 379.057898 138.662959 378.09199 137.697051 
C 377.126082 136.731143 375.815846 136.188425 374.449846 136.188425 
C 373.083846 136.188425 371.77361 136.731143 370.807702 137.697051 
C 369.841794 138.662959 369.299077 139.973195 369.299077 141.339195 
C 369.299077 142.705195 369.841794 144.015431 370.807702 144.981339 
C 371.77361 145.947246 373.083846 146.489964 374.449846 146.489964 
L 374.449846 146.489964 
z
" clip-path="url(#p2459bb8ea8)" style="fill: none; stroke: #000000; stroke-width: 1.2; stroke-linejoin: miter"/>
   </g>
   <g id="patch_41">
    <path d="M 407.929846 148.550272 
C 409.842246 148.550272 411.676577 147.790467 413.028848 146.438196 
C 414.381119 145.085925 415.140923 143.251595 415.140923 141.339195 
C 415.140923 139.426795 414.381119 137.592464 413.028848 136.240193 
C 411.676577 134.887922 409.842246 134.128118 407.929846 134.128118 
C 406.017446 134.128118 404.183116 134.887922 402.830845 136.240193 
C 401.478574 137.592464 400.718769 139.426795 400.718769 141.339195 
C 400.718769 143.251595 401.478574 145.085925 402.830845 146.438196 
C 404.183116 147.790467 406.017446 148.550272 407.929846 148.550272 
L 407.929846 148.550272 
z
" clip-path="url(#p2459bb8ea8)" style="fill: none; stroke: #000000; stroke-width: 1.3; stroke-linejoin: miter"/>
   </g>
   <g id="patch_42">
    <path d="M 481.070769 252.080733 
L 666.498462 252.080733 
L 666.498462 97.557656 
L 481.070769 97.557656 
L 481.070769 252.080733 
z
" clip-path="url(#p2459bb8ea8)" style="fill: none; stroke: #000000; stroke-width: 1.2; stroke-linejoin: miter"/>
   </g>
   <g id="patch_43">
    <path d="M 500.643692 234.310579 
C 502.077992 234.310579 503.45374 233.740726 504.467943 232.726523 
C 505.482147 231.712319 506.052 230.336572 506.052 228.902272 
C 506.052 227.467972 505.482147 226.092224 504.467943 225.078021 
C 503.45374 224.063817 502.077992 223.493964 500.643692 223.493964 
C 499.209392 223.493964 497.833644 224.063817 496.819441 225.078021 
C 495.805238 226.092224 495.235385 227.467972 495.235385 228.902272 
C 495.235385 230.336572 495.805238 231.712319 496.819441 232.726523 
C 497.833644 233.740726 499.209392 234.310579 500.643692 234.310579 
L 500.643692 234.310579 
z
" clip-path="url(#p2459bb8ea8)" style="fill: none; stroke: #000000; stroke-width: 1.2; stroke-linejoin: miter"/>
   </g>
   <g id="patch_44">
    <path d="M 534.123692 234.310579 
C 535.557992 234.310579 536.93374 233.740726 537.947943 232.726523 
C 538.962147 231.712319 539.532 230.336572 539.532 228.902272 
C 539.532 227.467972 538.962147 226.092224 537.947943 225.078021 
C 536.93374 224.063817 535.557992 223.493964 534.123692 223.493964 
C 532.689392 223.493964 531.313644 224.063817 530.299441 225.078021 
C 529.285238 226.092224 528.715385 227.467972 528.715385 228.902272 
C 528.715385 230.336572 529.285238 231.712319 530.299441 232.726523 
C 531.313644 233.740726 532.689392 234.310579 534.123692 234.310579 
L 534.123692 234.310579 
z
" clip-path="url(#p2459bb8ea8)" style="fill: none; stroke: #000000; stroke-width: 1.2; stroke-linejoin: miter"/>
   </g>
   <g id="patch_45">
    <path d="M 567.603692 234.310579 
C 569.037992 234.310579 570.41374 233.740726 571.427943 232.726523 
C 572.442147 231.712319 573.012 230.336572 573.012 228.902272 
C 573.012 227.467972 572.442147 226.092224 571.427943 225.078021 
C 570.41374 224.063817 569.037992 223.493964 567.603692 223.493964 
C 566.169392 223.493964 564.793644 224.063817 563.779441 225.078021 
C 562.765238 226.092224 562.195385 227.467972 562.195385 228.902272 
C 562.195385 230.336572 562.765238 231.712319 563.779441 232.726523 
C 564.793644 233.740726 566.169392 234.310579 567.603692 234.310579 
L 567.603692 234.310579 
z
" clip-path="url(#p2459bb8ea8)" style="fill: none; stroke: #000000; stroke-width: 1.2; stroke-linejoin: miter"/>
   </g>
   <g id="patch_46">
    <path d="M 601.083692 234.310579 
C 602.517992 234.310579 603.89374 233.740726 604.907943 232.726523 
C 605.922147 231.712319 606.492 230.336572 606.492 228.902272 
C 606.492 227.467972 605.922147 226.092224 604.907943 225.078021 
C 603.89374 224.063817 602.517992 223.493964 601.083692 223.493964 
C 599.649392 223.493964 598.273644 224.063817 597.259441 225.078021 
C 596.245238 226.092224 595.675385 227.467972 595.675385 228.902272 
C 595.675385 230.336572 596.245238 231.712319 597.259441 232.726523 
C 598.273644 233.740726 599.649392 234.310579 601.083692 234.310579 
L 601.083692 234.310579 
z
" clip-path="url(#p2459bb8ea8)" style="fill: none; stroke: #000000; stroke-width: 1.2; stroke-linejoin: miter"/>
   </g>
   <g id="patch_47">
    <path d="M 634.563692 234.310579 
C 635.997992 234.310579 637.37374 233.740726 638.387943 232.726523 
C 639.402147 231.712319 639.972 230.336572 639.972 228.902272 
C 639.972 227.467972 639.402147 226.092224 638.387943 225.078021 
C 637.37374 224.063817 635.997992 223.493964 634.563692 223.493964 
C 633.129392 223.493964 631.753644 224.063817 630.739441 225.078021 
C 629.725238 226.092224 629.155385 227.467972 629.155385 228.902272 
C 629.155385 230.336572 629.725238 231.712319 630.739441 232.726523 
C 631.753644 233.740726 633.129392 234.310579 634.563692 234.310579 
L 634.563692 234.310579 
z
" clip-path="url(#p2459bb8ea8)" style="fill: none; stroke: #000000; stroke-width: 1.2; stroke-linejoin: miter"/>
   </g>
   <g id="patch_48">
    <path d="M 500.643692 190.529041 
C 502.077992 190.529041 503.45374 189.959187 504.467943 188.944984 
C 505.482147 187.930781 506.052 186.555033 506.052 185.120733 
C 506.052 183.686433 505.482147 182.310685 504.467943 181.296482 
C 503.45374 180.282279 502.077992 179.712425 500.643692 179.712425 
C 499.209392 179.712425 497.833644 180.282279 496.819441 181.296482 
C 495.805238 182.310685 495.235385 183.686433 495.235385 185.120733 
C 495.235385 186.555033 495.805238 187.930781 496.819441 188.944984 
C 497.833644 189.959187 499.209392 190.529041 500.643692 190.529041 
L 500.643692 190.529041 
z
" clip-path="url(#p2459bb8ea8)" style="fill: none; stroke: #000000; stroke-width: 1.2; stroke-linejoin: miter"/>
   </g>
   <g id="patch_49">
    <path d="M 534.123692 190.529041 
C 535.557992 190.529041 536.93374 189.959187 537.947943 188.944984 
C 538.962147 187.930781 539.532 186.555033 539.532 185.120733 
C 539.532 183.686433 538.962147 182.310685 537.947943 181.296482 
C 536.93374 180.282279 535.557992 179.712425 534.123692 179.712425 
C 532.689392 179.712425 531.313644 180.282279 530.299441 181.296482 
C 529.285238 182.310685 528.715385 183.686433 528.715385 185.120733 
C 528.715385 186.555033 529.285238 187.930781 530.299441 188.944984 
C 531.313644 189.959187 532.689392 190.529041 534.123692 190.529041 
L 534.123692 190.529041 
z
" clip-path="url(#p2459bb8ea8)" style="fill: none; stroke: #000000; stroke-width: 1.2; stroke-linejoin: miter"/>
   </g>
   <g id="patch_50">
    <path d="M 567.603692 190.529041 
C 569.037992 190.529041 570.41374 189.959187 571.427943 188.944984 
C 572.442147 187.930781 573.012 186.555033 573.012 185.120733 
C 573.012 183.686433 572.442147 182.310685 571.427943 181.296482 
C 570.41374 180.282279 569.037992 179.712425 567.603692 179.712425 
C 566.169392 179.712425 564.793644 180.282279 563.779441 181.296482 
C 562.765238 182.310685 562.195385 183.686433 562.195385 185.120733 
C 562.195385 186.555033 562.765238 187.930781 563.779441 188.944984 
C 564.793644 189.959187 566.169392 190.529041 567.603692 190.529041 
L 567.603692 190.529041 
z
" clip-path="url(#p2459bb8ea8)" style="fill: none; stroke: #000000; stroke-width: 1.2; stroke-linejoin: miter"/>
   </g>
   <g id="patch_51">
    <path d="M 601.083692 190.529041 
C 602.517992 190.529041 603.89374 189.959187 604.907943 188.944984 
C 605.922147 187.930781 606.492 186.555033 606.492 185.120733 
C 606.492 183.686433 605.922147 182.310685 604.907943 181.296482 
C 603.89374 180.282279 602.517992 179.712425 601.083692 179.712425 
C 599.649392 179.712425 598.273644 180.282279 597.259441 181.296482 
C 596.245238 182.310685 595.675385 183.686433 595.675385 185.120733 
C 595.675385 186.555033 596.245238 187.930781 597.259441 188.944984 
C 598.273644 189.959187 599.649392 190.529041 601.083692 190.529041 
L 601.083692 190.529041 
z
" clip-path="url(#p2459bb8ea8)" style="fill: none; stroke: #000000; stroke-width: 1.2; stroke-linejoin: miter"/>
   </g>
   <g id="patch_52">
    <path d="M 634.563692 190.529041 
C 635.997992 190.529041 637.37374 189.959187 638.387943 188.944984 
C 639.402147 187.930781 639.972 186.555033 639.972 185.120733 
C 639.972 183.686433 639.402147 182.310685 638.387943 181.296482 
C 637.37374 180.282279 635.997992 179.712425 634.563692 179.712425 
C 633.129392 179.712425 631.753644 180.282279 630.739441 181.296482 
C 629.725238 182.310685 629.155385 183.686433 629.155385 185.120733 
C 629.155385 186.555033 629.725238 187.930781 630.739441 188.944984 
C 631.753644 189.959187 633.129392 190.529041 634.563692 190.529041 
L 634.563692 190.529041 
z
" clip-path="url(#p2459bb8ea8)" style="fill: none; stroke: #000000; stroke-width: 1.2; stroke-linejoin: miter"/>
   </g>
   <g id="patch_53">
    <path d="M 500.643692 146.747502 
C 502.077992 146.747502 503.45374 146.177649 504.467943 145.163446 
C 505.482147 144.149243 506.052 142.773495 506.052 141.339195 
C 506.052 139.904895 505.482147 138.529147 504.467943 137.514944 
C 503.45374 136.50074 502.077992 135.930887 500.643692 135.930887 
C 499.209392 135.930887 497.833644 136.50074 496.819441 137.514944 
C 495.805238 138.529147 495.235385 139.904895 495.235385 141.339195 
C 495.235385 142.773495 495.805238 144.149243 496.819441 145.163446 
C 497.833644 146.177649 499.209392 146.747502 500.643692 146.747502 
L 500.643692 146.747502 
z
" clip-path="url(#p2459bb8ea8)" style="fill: none; stroke: #000000; stroke-width: 1.2; stroke-linejoin: miter"/>
   </g>
   <g id="patch_54">
    <path d="M 534.123692 146.747502 
C 535.557992 146.747502 536.93374 146.177649 537.947943 145.163446 
C 538.962147 144.149243 539.532 142.773495 539.532 141.339195 
C 539.532 139.904895 538.962147 138.529147 537.947943 137.514944 
C 536.93374 136.50074 535.557992 135.930887 534.123692 135.930887 
C 532.689392 135.930887 531.313644 136.50074 530.299441 137.514944 
C 529.285238 138.529147 528.715385 139.904895 528.715385 141.339195 
C 528.715385 142.773495 529.285238 144.149243 530.299441 145.163446 
C 531.313644 146.177649 532.689392 146.747502 534.123692 146.747502 
L 534.123692 146.747502 
z
" clip-path="url(#p2459bb8ea8)" style="fill: none; stroke: #000000; stroke-width: 1.2; stroke-linejoin: miter"/>
   </g>
   <g id="patch_55">
    <path d="M 567.603692 146.747502 
C 569.037992 146.747502 570.41374 146.177649 571.427943 145.163446 
C 572.442147 144.149243 573.012 142.773495 573.012 141.339195 
C 573.012 139.904895 572.442147 138.529147 571.427943 137.514944 
C 570.41374 136.50074 569.037992 135.930887 567.603692 135.930887 
C 566.169392 135.930887 564.793644 136.50074 563.779441 137.514944 
C 562.765238 138.529147 562.195385 139.904895 562.195385 141.339195 
C 562.195385 142.773495 562.765238 144.149243 563.779441 145.163446 
C 564.793644 146.177649 566.169392 146.747502 567.603692 146.747502 
L 567.603692 146.747502 
z
" clip-path="url(#p2459bb8ea8)" style="fill: none; stroke: #000000; stroke-width: 1.2; stroke-linejoin: miter"/>
   </g>
   <g id="patch_56">
    <path d="M 601.083692 146.747502 
C 602.517992 146.747502 603.89374 146.177649 604.907943 145.163446 
C 605.922147 144.149243 606.492 142.773495 606.492 141.339195 
C 606.492 139.904895 605.922147 138.529147 604.907943 137.514944 
C 603.89374 136.50074 602.517992 135.930887 601.083692 135.930887 
C 599.649392 135.930887 598.273644 136.50074 597.259441 137.514944 
C 596.245238 138.529147 595.675385 139.904895 595.675385 141.339195 
C 595.675385 142.773495 596.245238 144.149243 597.259441 145.163446 
C 598.273644 146.177649 599.649392 146.747502 601.083692 146.747502 
L 601.083692 146.747502 
z
" clip-path="url(#p2459bb8ea8)" style="fill: none; stroke: #000000; stroke-width: 1.2; stroke-linejoin: miter"/>
   </g>
   <g id="patch_57">
    <path d="M 634.563692 146.747502 
C 635.997992 146.747502 637.37374 146.177649 638.387943 145.163446 
C 639.402147 144.149243 639.972 142.773495 639.972 141.339195 
C 639.972 139.904895 639.402147 138.529147 638.387943 137.514944 
C 637.37374 136.50074 635.997992 135.930887 634.563692 135.930887 
C 633.129392 135.930887 631.753644 136.50074 630.739441 137.514944 
C 629.725238 138.529147 629.155385 139.904895 629.155385 141.339195 
C 629.155385 142.773495 629.725238 144.149243 630.739441 145.163446 
C 631.753644 146.177649 633.129392 146.747502 634.563692 146.747502 
L 634.563692 146.747502 
z
" clip-path="url(#p2459bb8ea8)" style="fill: none; stroke: #000000; stroke-width: 1.2; stroke-linejoin: miter"/>
   </g>
   <g id="patch_58">
    <path d="M 517.383692 234.568118 
C 520.662092 234.568118 523.806659 233.971128 526.124838 232.90863 
C 528.443016 231.846131 529.745538 230.404872 529.745538 228.902272 
C 529.745538 227.399672 528.443016 225.958412 526.124838 224.895913 
C 523.806659 223.833415 520.662092 223.236425 517.383692 223.236425 
C 514.105292 223.236425 510.960726 223.833415 508.642547 224.895913 
C 506.324368 225.958412 505.021846 227.399672 505.021846 228.902272 
C 505.021846 230.404872 506.324368 231.846131 508.642547 232.90863 
C 510.960726 233.971128 514.105292 234.568118 517.383692 234.568118 
z
" clip-path="url(#p2459bb8ea8)" style="fill: #1f77b4; opacity: 0.12"/>
   </g>
   <g id="patch_59">
    <path d="M 550.863692 234.568118 
C 554.142092 234.568118 557.286659 233.971128 559.604838 232.90863 
C 561.923016 231.846131 563.225538 230.404872 563.225538 228.902272 
C 563.225538 227.399672 561.923016 225.958412 559.604838 224.895913 
C 557.286659 223.833415 554.142092 223.236425 550.863692 223.236425 
C 547.585292 223.236425 544.440726 223.833415 542.122547 224.895913 
C 539.804368 225.958412 538.501846 227.399672 538.501846 228.902272 
C 538.501846 230.404872 539.804368 231.846131 542.122547 232.90863 
C 544.440726 233.971128 547.585292 234.568118 550.863692 234.568118 
z
" clip-path="url(#p2459bb8ea8)" style="fill: #1f77b4; opacity: 0.12"/>
   </g>
   <g id="patch_60">
    <path d="M 584.343692 234.568118 
C 587.622092 234.568118 590.766659 233.971128 593.084838 232.90863 
C 595.403016 231.846131 596.705538 230.404872 596.705538 228.902272 
C 596.705538 227.399672 595.403016 225.958412 593.084838 224.895913 
C 590.766659 223.833415 587.622092 223.236425 584.343692 223.236425 
C 581.065292 223.236425 577.920726 223.833415 575.602547 224.895913 
C 573.284368 225.958412 571.981846 227.399672 571.981846 228.902272 
C 571.981846 230.404872 573.284368 231.846131 575.602547 232.90863 
C 577.920726 233.971128 581.065292 234.568118 584.343692 234.568118 
z
" clip-path="url(#p2459bb8ea8)" style="fill: #1f77b4; opacity: 0.12"/>
   </g>
   <g id="patch_61">
    <path d="M 617.823692 234.568118 
C 621.102092 234.568118 624.246659 233.971128 626.564838 232.90863 
C 628.883016 231.846131 630.185538 230.404872 630.185538 228.902272 
C 630.185538 227.399672 628.883016 225.958412 626.564838 224.895913 
C 624.246659 223.833415 621.102092 223.236425 617.823692 223.236425 
C 614.545292 223.236425 611.400726 223.833415 609.082547 224.895913 
C 606.764368 225.958412 605.461846 227.399672 605.461846 228.902272 
C 605.461846 230.404872 606.764368 231.846131 609.082547 232.90863 
C 611.400726 233.971128 614.545292 234.568118 617.823692 234.568118 
z
" clip-path="url(#p2459bb8ea8)" style="fill: #1f77b4; opacity: 0.12"/>
   </g>
   <g id="patch_62">
    <path d="M 517.383692 190.786579 
C 520.662092 190.786579 523.806659 190.18959 526.124838 189.127091 
C 528.443016 188.064593 529.745538 186.623333 529.745538 185.120733 
C 529.745538 183.618133 528.443016 182.176874 526.124838 181.114375 
C 523.806659 180.051876 520.662092 179.454887 517.383692 179.454887 
C 514.105292 179.454887 510.960726 180.051876 508.642547 181.114375 
C 506.324368 182.176874 505.021846 183.618133 505.021846 185.120733 
C 505.021846 186.623333 506.324368 188.064593 508.642547 189.127091 
C 510.960726 190.18959 514.105292 190.786579 517.383692 190.786579 
z
" clip-path="url(#p2459bb8ea8)" style="fill: #1f77b4; opacity: 0.12"/>
   </g>
   <g id="patch_63">
    <path d="M 550.863692 190.786579 
C 554.142092 190.786579 557.286659 190.18959 559.604838 189.127091 
C 561.923016 188.064593 563.225538 186.623333 563.225538 185.120733 
C 563.225538 183.618133 561.923016 182.176874 559.604838 181.114375 
C 557.286659 180.051876 554.142092 179.454887 550.863692 179.454887 
C 547.585292 179.454887 544.440726 180.051876 542.122547 181.114375 
C 539.804368 182.176874 538.501846 183.618133 538.501846 185.120733 
C 538.501846 186.623333 539.804368 188.064593 542.122547 189.127091 
C 544.440726 190.18959 547.585292 190.786579 550.863692 190.786579 
z
" clip-path="url(#p2459bb8ea8)" style="fill: #1f77b4; opacity: 0.12"/>
   </g>
   <g id="patch_64">
    <path d="M 584.343692 190.786579 
C 587.622092 190.786579 590.766659 190.18959 593.084838 189.127091 
C 595.403016 188.064593 596.705538 186.623333 596.705538 185.120733 
C 596.705538 183.618133 595.403016 182.176874 593.084838 181.114375 
C 590.766659 180.051876 587.622092 179.454887 584.343692 179.454887 
C 581.065292 179.454887 577.920726 180.051876 575.602547 181.114375 
C 573.284368 182.176874 571.981846 183.618133 571.981846 185.120733 
C 571.981846 186.623333 573.284368 188.064593 575.602547 189.127091 
C 577.920726 190.18959 581.065292 190.786579 584.343692 190.786579 
z
" clip-path="url(#p2459bb8ea8)" style="fill: #1f77b4; opacity: 0.12"/>
   </g>
   <g id="patch_65">
    <path d="M 617.823692 190.786579 
C 621.102092 190.786579 624.246659 190.18959 626.564838 189.127091 
C 628.883016 188.064593 630.185538 186.623333 630.185538 185.120733 
C 630.185538 183.618133 628.883016 182.176874 626.564838 181.114375 
C 624.246659 180.051876 621.102092 179.454887 617.823692 179.454887 
C 614.545292 179.454887 611.400726 180.051876 609.082547 181.114375 
C 606.764368 182.176874 605.461846 183.618133 605.461846 185.120733 
C 605.461846 186.623333 606.764368 188.064593 609.082547 189.127091 
C 611.400726 190.18959 614.545292 190.786579 617.823692 190.786579 
z
" clip-path="url(#p2459bb8ea8)" style="fill: #1f77b4; opacity: 0.12"/>
   </g>
   <g id="patch_66">
    <path d="M 517.383692 147.005041 
C 520.662092 147.005041 523.806659 146.408052 526.124838 145.345553 
C 528.443016 144.283054 529.745538 142.841795 529.745538 141.339195 
C 529.745538 139.836595 528.443016 138.395335 526.124838 137.332836 
C 523.806659 136.270338 520.662092 135.673349 517.383692 135.673349 
C 514.105292 135.673349 510.960726 136.270338 508.642547 137.332836 
C 506.324368 138.395335 505.021846 139.836595 505.021846 141.339195 
C 505.021846 142.841795 506.324368 144.283054 508.642547 145.345553 
C 510.960726 146.408052 514.105292 147.005041 517.383692 147.005041 
z
" clip-path="url(#p2459bb8ea8)" style="fill: #1f77b4; opacity: 0.12"/>
   </g>
   <g id="patch_67">
    <path d="M 550.863692 147.005041 
C 554.142092 147.005041 557.286659 146.408052 559.604838 145.345553 
C 561.923016 144.283054 563.225538 142.841795 563.225538 141.339195 
C 563.225538 139.836595 561.923016 138.395335 559.604838 137.332836 
C 557.286659 136.270338 554.142092 135.673349 550.863692 135.673349 
C 547.585292 135.673349 544.440726 136.270338 542.122547 137.332836 
C 539.804368 138.395335 538.501846 139.836595 538.501846 141.339195 
C 538.501846 142.841795 539.804368 144.283054 542.122547 145.345553 
C 544.440726 146.408052 547.585292 147.005041 550.863692 147.005041 
z
" clip-path="url(#p2459bb8ea8)" style="fill: #1f77b4; opacity: 0.12"/>
   </g>
   <g id="patch_68">
    <path d="M 584.343692 147.005041 
C 587.622092 147.005041 590.766659 146.408052 593.084838 145.345553 
C 595.403016 144.283054 596.705538 142.841795 596.705538 141.339195 
C 596.705538 139.836595 595.403016 138.395335 593.084838 137.332836 
C 590.766659 136.270338 587.622092 135.673349 584.343692 135.673349 
C 581.065292 135.673349 577.920726 136.270338 575.602547 137.332836 
C 573.284368 138.395335 571.981846 139.836595 571.981846 141.339195 
C 571.981846 142.841795 573.284368 144.283054 575.602547 145.345553 
C 577.920726 146.408052 581.065292 147.005041 584.343692 147.005041 
z
" clip-path="url(#p2459bb8ea8)" style="fill: #1f77b4; opacity: 0.12"/>
   </g>
   <g id="patch_69">
    <path d="M 617.823692 147.005041 
C 621.102092 147.005041 624.246659 146.408052 626.564838 145.345553 
C 628.883016 144.283054 630.185538 142.841795 630.185538 141.339195 
C 630.185538 139.836595 628.883016 138.395335 626.564838 137.332836 
C 624.246659 136.270338 621.102092 135.673349 617.823692 135.673349 
C 614.545292 135.673349 611.400726 136.270338 609.082547 137.332836 
C 606.764368 138.395335 605.461846 139.836595 605.461846 141.339195 
C 605.461846 142.841795 606.764368 144.283054 609.082547 145.345553 
C 611.400726 146.408052 614.545292 147.005041 617.823692 147.005041 
z
" clip-path="url(#p2459bb8ea8)" style="fill: #1f77b4; opacity: 0.12"/>
   </g>
   <g id="patch_70">
    <path d="M 500.643692 219.373349 
C 502.146292 219.373349 503.587552 218.070826 504.650051 215.752648 
C 505.712549 213.434469 506.309538 210.289902 506.309538 207.011502 
C 506.309538 203.733102 505.712549 200.588536 504.650051 198.270357 
C 503.587552 195.952178 502.146292 194.649656 500.643692 194.649656 
C 499.141092 194.649656 497.699833 195.952178 496.637334 198.270357 
C 495.574835 200.588536 494.977846 203.733102 494.977846 207.011502 
C 494.977846 210.289902 495.574835 213.434469 496.637334 215.752648 
C 497.699833 218.070826 499.141092 219.373349 500.643692 219.373349 
z
" clip-path="url(#p2459bb8ea8)" style="fill: #1f77b4; opacity: 0.12"/>
   </g>
   <g id="patch_71">
    <path d="M 534.123692 219.373349 
C 535.626292 219.373349 537.067552 218.070826 538.130051 215.752648 
C 539.192549 213.434469 539.789538 210.289902 539.789538 207.011502 
C 539.789538 203.733102 539.192549 200.588536 538.130051 198.270357 
C 537.067552 195.952178 535.626292 194.649656 534.123692 194.649656 
C 532.621092 194.649656 531.179833 195.952178 530.117334 198.270357 
C 529.054835 200.588536 528.457846 203.733102 528.457846 207.011502 
C 528.457846 210.289902 529.054835 213.434469 530.117334 215.752648 
C 531.179833 218.070826 532.621092 219.373349 534.123692 219.373349 
z
" clip-path="url(#p2459bb8ea8)" style="fill: #1f77b4; opacity: 0.12"/>
   </g>
   <g id="patch_72">
    <path d="M 567.603692 219.373349 
C 569.106292 219.373349 570.547552 218.070826 571.610051 215.752648 
C 572.672549 213.434469 573.269538 210.289902 573.269538 207.011502 
C 573.269538 203.733102 572.672549 200.588536 571.610051 198.270357 
C 570.547552 195.952178 569.106292 194.649656 567.603692 194.649656 
C 566.101092 194.649656 564.659833 195.952178 563.597334 198.270357 
C 562.534835 200.588536 561.937846 203.733102 561.937846 207.011502 
C 561.937846 210.289902 562.534835 213.434469 563.597334 215.752648 
C 564.659833 218.070826 566.101092 219.373349 567.603692 219.373349 
z
" clip-path="url(#p2459bb8ea8)" style="fill: #1f77b4; opacity: 0.12"/>
   </g>
   <g id="patch_73">
    <path d="M 601.083692 219.373349 
C 602.586292 219.373349 604.027552 218.070826 605.090051 215.752648 
C 606.152549 213.434469 606.749538 210.289902 606.749538 207.011502 
C 606.749538 203.733102 606.152549 200.588536 605.090051 198.270357 
C 604.027552 195.952178 602.586292 194.649656 601.083692 194.649656 
C 599.581092 194.649656 598.139833 195.952178 597.077334 198.270357 
C 596.014835 200.588536 595.417846 203.733102 595.417846 207.011502 
C 595.417846 210.289902 596.014835 213.434469 597.077334 215.752648 
C 598.139833 218.070826 599.581092 219.373349 601.083692 219.373349 
z
" clip-path="url(#p2459bb8ea8)" style="fill: #1f77b4; opacity: 0.12"/>
   </g>
   <g id="patch_74">
    <path d="M 634.563692 219.373349 
C 636.066292 219.373349 637.507552 218.070826 638.570051 215.752648 
C 639.632549 213.434469 640.229538 210.289902 640.229538 207.011502 
C 640.229538 203.733102 639.632549 200.588536 638.570051 198.270357 
C 637.507552 195.952178 636.066292 194.649656 634.563692 194.649656 
C 633.061092 194.649656 631.619833 195.952178 630.557334 198.270357 
C 629.494835 200.588536 628.897846 203.733102 628.897846 207.011502 
C 628.897846 210.289902 629.494835 213.434469 630.557334 215.752648 
C 631.619833 218.070826 633.061092 219.373349 634.563692 219.373349 
z
" clip-path="url(#p2459bb8ea8)" style="fill: #1f77b4; opacity: 0.12"/>
   </g>
   <g id="patch_75">
    <path d="M 500.643692 175.59181 
C 502.146292 175.59181 503.587552 174.289288 504.650051 171.971109 
C 505.712549 169.65293 506.309538 166.508364 506.309538 163.229964 
C 506.309538 159.951564 505.712549 156.806998 504.650051 154.488819 
C 503.587552 152.17064 502.146292 150.868118 500.643692 150.868118 
C 499.141092 150.868118 497.699833 152.17064 496.637334 154.488819 
C 495.574835 156.806998 494.977846 159.951564 494.977846 163.229964 
C 494.977846 166.508364 495.574835 169.65293 496.637334 171.971109 
C 497.699833 174.289288 499.141092 175.59181 500.643692 175.59181 
z
" clip-path="url(#p2459bb8ea8)" style="fill: #1f77b4; opacity: 0.12"/>
   </g>
   <g id="patch_76">
    <path d="M 534.123692 175.59181 
C 535.626292 175.59181 537.067552 174.289288 538.130051 171.971109 
C 539.192549 169.65293 539.789538 166.508364 539.789538 163.229964 
C 539.789538 159.951564 539.192549 156.806998 538.130051 154.488819 
C 537.067552 152.17064 535.626292 150.868118 534.123692 150.868118 
C 532.621092 150.868118 531.179833 152.17064 530.117334 154.488819 
C 529.054835 156.806998 528.457846 159.951564 528.457846 163.229964 
C 528.457846 166.508364 529.054835 169.65293 530.117334 171.971109 
C 531.179833 174.289288 532.621092 175.59181 534.123692 175.59181 
z
" clip-path="url(#p2459bb8ea8)" style="fill: #1f77b4; opacity: 0.12"/>
   </g>
   <g id="patch_77">
    <path d="M 567.603692 175.59181 
C 569.106292 175.59181 570.547552 174.289288 571.610051 171.971109 
C 572.672549 169.65293 573.269538 166.508364 573.269538 163.229964 
C 573.269538 159.951564 572.672549 156.806998 571.610051 154.488819 
C 570.547552 152.17064 569.106292 150.868118 567.603692 150.868118 
C 566.101092 150.868118 564.659833 152.17064 563.597334 154.488819 
C 562.534835 156.806998 561.937846 159.951564 561.937846 163.229964 
C 561.937846 166.508364 562.534835 169.65293 563.597334 171.971109 
C 564.659833 174.289288 566.101092 175.59181 567.603692 175.59181 
z
" clip-path="url(#p2459bb8ea8)" style="fill: #1f77b4; opacity: 0.12"/>
   </g>
   <g id="patch_78">
    <path d="M 601.083692 175.59181 
C 602.586292 175.59181 604.027552 174.289288 605.090051 171.971109 
C 606.152549 169.65293 606.749538 166.508364 606.749538 163.229964 
C 606.749538 159.951564 606.152549 156.806998 605.090051 154.488819 
C 604.027552 152.17064 602.586292 150.868118 601.083692 150.868118 
C 599.581092 150.868118 598.139833 152.17064 597.077334 154.488819 
C 596.014835 156.806998 595.417846 159.951564 595.417846 163.229964 
C 595.417846 166.508364 596.014835 169.65293 597.077334 171.971109 
C 598.139833 174.289288 599.581092 175.59181 601.083692 175.59181 
z
" clip-path="url(#p2459bb8ea8)" style="fill: #1f77b4; opacity: 0.12"/>
   </g>
   <g id="patch_79">
    <path d="M 634.563692 175.59181 
C 636.066292 175.59181 637.507552 174.289288 638.570051 171.971109 
C 639.632549 169.65293 640.229538 166.508364 640.229538 163.229964 
C 640.229538 159.951564 639.632549 156.806998 638.570051 154.488819 
C 637.507552 152.17064 636.066292 150.868118 634.563692 150.868118 
C 633.061092 150.868118 631.619833 152.17064 630.557334 154.488819 
C 629.494835 156.806998 628.897846 159.951564 628.897846 163.229964 
C 628.897846 166.508364 629.494835 169.65293 630.557334 171.971109 
C 631.619833 174.289288 633.061092 175.59181 634.563692 175.59181 
z
" clip-path="url(#p2459bb8ea8)" style="fill: #1f77b4; opacity: 0.12"/>
   </g>
   <g id="text_1">
    <!-- metallo -->
    <g transform="translate(97.165126 79.529964) scale(0.11 -0.11)">
     <defs>
      <path id="DejaVuSans-Bold-6d" d="M 3781 2919 
Q 3994 3244 4286 3414 
Q 4578 3584 4928 3584 
Q 5531 3584 5847 3212 
Q 6163 2841 6163 2131 
L 6163 0 
L 5038 0 
L 5038 1825 
Q 5041 1866 5042 1909 
Q 5044 1953 5044 2034 
Q 5044 2406 4934 2573 
Q 4825 2741 4581 2741 
Q 4263 2741 4089 2478 
Q 3916 2216 3909 1719 
L 3909 0 
L 2784 0 
L 2784 1825 
Q 2784 2406 2684 2573 
Q 2584 2741 2328 2741 
Q 2006 2741 1831 2477 
Q 1656 2213 1656 1722 
L 1656 0 
L 531 0 
L 531 3500 
L 1656 3500 
L 1656 2988 
Q 1863 3284 2130 3434 
Q 2397 3584 2719 3584 
Q 3081 3584 3359 3409 
Q 3638 3234 3781 2919 
z
" transform="scale(0.015625)"/>
      <path id="DejaVuSans-Bold-65" d="M 4031 1759 
L 4031 1441 
L 1416 1441 
Q 1456 1047 1700 850 
Q 1944 653 2381 653 
Q 2734 653 3104 758 
Q 3475 863 3866 1075 
L 3866 213 
Q 3469 63 3072 -14 
Q 2675 -91 2278 -91 
Q 1328 -91 801 392 
Q 275 875 275 1747 
Q 275 2603 792 3093 
Q 1309 3584 2216 3584 
Q 3041 3584 3536 3087 
Q 4031 2591 4031 1759 
z
M 2881 2131 
Q 2881 2450 2695 2645 
Q 2509 2841 2209 2841 
Q 1884 2841 1681 2658 
Q 1478 2475 1428 2131 
L 2881 2131 
z
" transform="scale(0.015625)"/>
      <path id="DejaVuSans-Bold-74" d="M 1759 4494 
L 1759 3500 
L 2913 3500 
L 2913 2700 
L 1759 2700 
L 1759 1216 
Q 1759 972 1856 886 
Q 1953 800 2241 800 
L 2816 800 
L 2816 0 
L 1856 0 
Q 1194 0 917 276 
Q 641 553 641 1216 
L 641 2700 
L 84 2700 
L 84 3500 
L 641 3500 
L 641 4494 
L 1759 4494 
z
" transform="scale(0.015625)"/>
      <path id="DejaVuSans-Bold-61" d="M 2106 1575 
Q 1756 1575 1579 1456 
Q 1403 1338 1403 1106 
Q 1403 894 1545 773 
Q 1688 653 1941 653 
Q 2256 653 2472 879 
Q 2688 1106 2688 1447 
L 2688 1575 
L 2106 1575 
z
M 3816 1997 
L 3816 0 
L 2688 0 
L 2688 519 
Q 2463 200 2181 54 
Q 1900 -91 1497 -91 
Q 953 -91 614 226 
Q 275 544 275 1050 
Q 275 1666 698 1953 
Q 1122 2241 2028 2241 
L 2688 2241 
L 2688 2328 
Q 2688 2594 2478 2717 
Q 2269 2841 1825 2841 
Q 1466 2841 1156 2769 
Q 847 2697 581 2553 
L 581 3406 
Q 941 3494 1303 3539 
Q 1666 3584 2028 3584 
Q 2975 3584 3395 3211 
Q 3816 2838 3816 1997 
z
" transform="scale(0.015625)"/>
      <path id="DejaVuSans-Bold-6c" d="M 538 4863 
L 1656 4863 
L 1656 0 
L 538 0 
L 538 4863 
z
" transform="scale(0.015625)"/>
      <path id="DejaVuSans-Bold-6f" d="M 2203 2784 
Q 1831 2784 1636 2517 
Q 1441 2250 1441 1747 
Q 1441 1244 1636 976 
Q 1831 709 2203 709 
Q 2569 709 2762 976 
Q 2956 1244 2956 1747 
Q 2956 2250 2762 2517 
Q 2569 2784 2203 2784 
z
M 2203 3584 
Q 3106 3584 3614 3096 
Q 4122 2609 4122 1747 
Q 4122 884 3614 396 
Q 3106 -91 2203 -91 
Q 1297 -91 786 396 
Q 275 884 275 1747 
Q 275 2609 786 3096 
Q 1297 3584 2203 3584 
z
" transform="scale(0.015625)"/>
     </defs>
     <use xlink:href="#DejaVuSans-Bold-6d"/>
     <use xlink:href="#DejaVuSans-Bold-65" transform="translate(104.199219 0)"/>
     <use xlink:href="#DejaVuSans-Bold-74" transform="translate(172.021484 0)"/>
     <use xlink:href="#DejaVuSans-Bold-61" transform="translate(219.824219 0)"/>
     <use xlink:href="#DejaVuSans-Bold-6c" transform="translate(287.304688 0)"/>
     <use xlink:href="#DejaVuSans-Bold-6c" transform="translate(321.582031 0)"/>
     <use xlink:href="#DejaVuSans-Bold-6f" transform="translate(355.859375 0)"/>
    </g>
   </g>
   <g id="text_2">
    <!-- + -->
    <g transform="translate(47.629663 231.109772) scale(0.08 -0.08)">
     <defs>
      <path id="DejaVuSans-2b" d="M 2944 4013 
L 2944 2272 
L 4684 2272 
L 4684 1741 
L 2944 1741 
L 2944 0 
L 2419 0 
L 2419 1741 
L 678 1741 
L 678 2272 
L 2419 2272 
L 2419 4013 
L 2944 4013 
z
" transform="scale(0.015625)"/>
     </defs>
     <use xlink:href="#DejaVuSans-2b"/>
    </g>
   </g>
   <g id="text_3">
    <!-- + -->
    <g transform="translate(81.109663 231.109772) scale(0.08 -0.08)">
     <use xlink:href="#DejaVuSans-2b"/>
    </g>
   </g>
   <g id="text_4">
    <!-- + -->
    <g transform="translate(114.589663 231.109772) scale(0.08 -0.08)">
     <use xlink:href="#DejaVuSans-2b"/>
    </g>
   </g>
   <g id="text_5">
    <!-- + -->
    <g transform="translate(148.069663 231.109772) scale(0.08 -0.08)">
     <use xlink:href="#DejaVuSans-2b"/>
    </g>
   </g>
   <g id="text_6">
    <!-- + -->
    <g transform="translate(181.549663 231.109772) scale(0.08 -0.08)">
     <use xlink:href="#DejaVuSans-2b"/>
    </g>
   </g>
   <g id="text_7">
    <!-- + -->
    <g transform="translate(47.629663 187.328233) scale(0.08 -0.08)">
     <use xlink:href="#DejaVuSans-2b"/>
    </g>
   </g>
   <g id="text_8">
    <!-- + -->
    <g transform="translate(81.109663 187.328233) scale(0.08 -0.08)">
     <use xlink:href="#DejaVuSans-2b"/>
    </g>
   </g>
   <g id="text_9">
    <!-- + -->
    <g transform="translate(114.589663 187.328233) scale(0.08 -0.08)">
     <use xlink:href="#DejaVuSans-2b"/>
    </g>
   </g>
   <g id="text_10">
    <!-- + -->
    <g transform="translate(148.069663 187.328233) scale(0.08 -0.08)">
     <use xlink:href="#DejaVuSans-2b"/>
    </g>
   </g>
   <g id="text_11">
    <!-- + -->
    <g transform="translate(181.549663 187.328233) scale(0.08 -0.08)">
     <use xlink:href="#DejaVuSans-2b"/>
    </g>
   </g>
   <g id="text_12">
    <!-- + -->
    <g transform="translate(47.629663 143.546695) scale(0.08 -0.08)">
     <use xlink:href="#DejaVuSans-2b"/>
    </g>
   </g>
   <g id="text_13">
    <!-- + -->
    <g transform="translate(81.109663 143.546695) scale(0.08 -0.08)">
     <use xlink:href="#DejaVuSans-2b"/>
    </g>
   </g>
   <g id="text_14">
    <!-- + -->
    <g transform="translate(114.589663 143.546695) scale(0.08 -0.08)">
     <use xlink:href="#DejaVuSans-2b"/>
    </g>
   </g>
   <g id="text_15">
    <!-- + -->
    <g transform="translate(148.069663 143.546695) scale(0.08 -0.08)">
     <use xlink:href="#DejaVuSans-2b"/>
    </g>
   </g>
   <g id="text_16">
    <!-- + -->
    <g transform="translate(181.549663 143.546695) scale(0.08 -0.08)">
     <use xlink:href="#DejaVuSans-2b"/>
    </g>
   </g>
   <g id="text_17">
    <!-- carica di valenza delocalizzata -->
    <g transform="translate(51.779423 268.563195) scale(0.09 -0.09)">
     <defs>
      <path id="DejaVuSans-63" d="M 3122 3366 
L 3122 2828 
Q 2878 2963 2633 3030 
Q 2388 3097 2138 3097 
Q 1578 3097 1268 2742 
Q 959 2388 959 1747 
Q 959 1106 1268 751 
Q 1578 397 2138 397 
Q 2388 397 2633 464 
Q 2878 531 3122 666 
L 3122 134 
Q 2881 22 2623 -34 
Q 2366 -91 2075 -91 
Q 1284 -91 818 406 
Q 353 903 353 1747 
Q 353 2603 823 3093 
Q 1294 3584 2113 3584 
Q 2378 3584 2631 3529 
Q 2884 3475 3122 3366 
z
" transform="scale(0.015625)"/>
      <path id="DejaVuSans-61" d="M 2194 1759 
Q 1497 1759 1228 1600 
Q 959 1441 959 1056 
Q 959 750 1161 570 
Q 1363 391 1709 391 
Q 2188 391 2477 730 
Q 2766 1069 2766 1631 
L 2766 1759 
L 2194 1759 
z
M 3341 1997 
L 3341 0 
L 2766 0 
L 2766 531 
Q 2569 213 2275 61 
Q 1981 -91 1556 -91 
Q 1019 -91 701 211 
Q 384 513 384 1019 
Q 384 1609 779 1909 
Q 1175 2209 1959 2209 
L 2766 2209 
L 2766 2266 
Q 2766 2663 2505 2880 
Q 2244 3097 1772 3097 
Q 1472 3097 1187 3025 
Q 903 2953 641 2809 
L 641 3341 
Q 956 3463 1253 3523 
Q 1550 3584 1831 3584 
Q 2591 3584 2966 3190 
Q 3341 2797 3341 1997 
z
" transform="scale(0.015625)"/>
      <path id="DejaVuSans-72" d="M 2631 2963 
Q 2534 3019 2420 3045 
Q 2306 3072 2169 3072 
Q 1681 3072 1420 2755 
Q 1159 2438 1159 1844 
L 1159 0 
L 581 0 
L 581 3500 
L 1159 3500 
L 1159 2956 
Q 1341 3275 1631 3429 
Q 1922 3584 2338 3584 
Q 2397 3584 2469 3576 
Q 2541 3569 2628 3553 
L 2631 2963 
z
" transform="scale(0.015625)"/>
      <path id="DejaVuSans-69" d="M 603 3500 
L 1178 3500 
L 1178 0 
L 603 0 
L 603 3500 
z
M 603 4863 
L 1178 4863 
L 1178 4134 
L 603 4134 
L 603 4863 
z
" transform="scale(0.015625)"/>
      <path id="DejaVuSans-20" transform="scale(0.015625)"/>
      <path id="DejaVuSans-64" d="M 2906 2969 
L 2906 4863 
L 3481 4863 
L 3481 0 
L 2906 0 
L 2906 525 
Q 2725 213 2448 61 
Q 2172 -91 1784 -91 
Q 1150 -91 751 415 
Q 353 922 353 1747 
Q 353 2572 751 3078 
Q 1150 3584 1784 3584 
Q 2172 3584 2448 3432 
Q 2725 3281 2906 2969 
z
M 947 1747 
Q 947 1113 1208 752 
Q 1469 391 1925 391 
Q 2381 391 2643 752 
Q 2906 1113 2906 1747 
Q 2906 2381 2643 2742 
Q 2381 3103 1925 3103 
Q 1469 3103 1208 2742 
Q 947 2381 947 1747 
z
" transform="scale(0.015625)"/>
      <path id="DejaVuSans-76" d="M 191 3500 
L 800 3500 
L 1894 563 
L 2988 3500 
L 3597 3500 
L 2284 0 
L 1503 0 
L 191 3500 
z
" transform="scale(0.015625)"/>
      <path id="DejaVuSans-6c" d="M 603 4863 
L 1178 4863 
L 1178 0 
L 603 0 
L 603 4863 
z
" transform="scale(0.015625)"/>
      <path id="DejaVuSans-65" d="M 3597 1894 
L 3597 1613 
L 953 1613 
Q 991 1019 1311 708 
Q 1631 397 2203 397 
Q 2534 397 2845 478 
Q 3156 559 3463 722 
L 3463 178 
Q 3153 47 2828 -22 
Q 2503 -91 2169 -91 
Q 1331 -91 842 396 
Q 353 884 353 1716 
Q 353 2575 817 3079 
Q 1281 3584 2069 3584 
Q 2775 3584 3186 3129 
Q 3597 2675 3597 1894 
z
M 3022 2063 
Q 3016 2534 2758 2815 
Q 2500 3097 2075 3097 
Q 1594 3097 1305 2825 
Q 1016 2553 972 2059 
L 3022 2063 
z
" transform="scale(0.015625)"/>
      <path id="DejaVuSans-6e" d="M 3513 2113 
L 3513 0 
L 2938 0 
L 2938 2094 
Q 2938 2591 2744 2837 
Q 2550 3084 2163 3084 
Q 1697 3084 1428 2787 
Q 1159 2491 1159 1978 
L 1159 0 
L 581 0 
L 581 3500 
L 1159 3500 
L 1159 2956 
Q 1366 3272 1645 3428 
Q 1925 3584 2291 3584 
Q 2894 3584 3203 3211 
Q 3513 2838 3513 2113 
z
" transform="scale(0.015625)"/>
      <path id="DejaVuSans-7a" d="M 353 3500 
L 3084 3500 
L 3084 2975 
L 922 459 
L 3084 459 
L 3084 0 
L 275 0 
L 275 525 
L 2438 3041 
L 353 3041 
L 353 3500 
z
" transform="scale(0.015625)"/>
      <path id="DejaVuSans-6f" d="M 1959 3097 
Q 1497 3097 1228 2736 
Q 959 2375 959 1747 
Q 959 1119 1226 758 
Q 1494 397 1959 397 
Q 2419 397 2687 759 
Q 2956 1122 2956 1747 
Q 2956 2369 2687 2733 
Q 2419 3097 1959 3097 
z
M 1959 3584 
Q 2709 3584 3137 3096 
Q 3566 2609 3566 1747 
Q 3566 888 3137 398 
Q 2709 -91 1959 -91 
Q 1206 -91 779 398 
Q 353 888 353 1747 
Q 353 2609 779 3096 
Q 1206 3584 1959 3584 
z
" transform="scale(0.015625)"/>
      <path id="DejaVuSans-74" d="M 1172 4494 
L 1172 3500 
L 2356 3500 
L 2356 3053 
L 1172 3053 
L 1172 1153 
Q 1172 725 1289 603 
Q 1406 481 1766 481 
L 2356 481 
L 2356 0 
L 1766 0 
Q 1100 0 847 248 
Q 594 497 594 1153 
L 594 3053 
L 172 3053 
L 172 3500 
L 594 3500 
L 594 4494 
L 1172 4494 
z
" transform="scale(0.015625)"/>
     </defs>
     <use xlink:href="#DejaVuSans-63"/>
     <use xlink:href="#DejaVuSans-61" transform="translate(54.980469 0)"/>
     <use xlink:href="#DejaVuSans-72" transform="translate(116.259766 0)"/>
     <use xlink:href="#DejaVuSans-69" transform="translate(157.373047 0)"/>
     <use xlink:href="#DejaVuSans-63" transform="translate(185.15625 0)"/>
     <use xlink:href="#DejaVuSans-61" transform="translate(240.136719 0)"/>
     <use xlink:href="#DejaVuSans-20" transform="translate(301.416016 0)"/>
     <use xlink:href="#DejaVuSans-64" transform="translate(333.203125 0)"/>
     <use xlink:href="#DejaVuSans-69" transform="translate(396.679688 0)"/>
     <use xlink:href="#DejaVuSans-20" transform="translate(424.462891 0)"/>
     <use xlink:href="#DejaVuSans-76" transform="translate(456.25 0)"/>
     <use xlink:href="#DejaVuSans-61" transform="translate(515.429688 0)"/>
     <use xlink:href="#DejaVuSans-6c" transform="translate(576.708984 0)"/>
     <use xlink:href="#DejaVuSans-65" transform="translate(604.492188 0)"/>
     <use xlink:href="#DejaVuSans-6e" transform="translate(666.015625 0)"/>
     <use xlink:href="#DejaVuSans-7a" transform="translate(729.394531 0)"/>
     <use xlink:href="#DejaVuSans-61" transform="translate(781.884766 0)"/>
     <use xlink:href="#DejaVuSans-20" transform="translate(843.164062 0)"/>
     <use xlink:href="#DejaVuSans-64" transform="translate(874.951172 0)"/>
     <use xlink:href="#DejaVuSans-65" transform="translate(938.427734 0)"/>
     <use xlink:href="#DejaVuSans-6c" transform="translate(999.951172 0)"/>
     <use xlink:href="#DejaVuSans-6f" transform="translate(1027.734375 0)"/>
     <use xlink:href="#DejaVuSans-63" transform="translate(1088.916016 0)"/>
     <use xlink:href="#DejaVuSans-61" transform="translate(1143.896484 0)"/>
     <use xlink:href="#DejaVuSans-6c" transform="translate(1205.175781 0)"/>
     <use xlink:href="#DejaVuSans-69" transform="translate(1232.958984 0)"/>
     <use xlink:href="#DejaVuSans-7a" transform="translate(1260.742188 0)"/>
     <use xlink:href="#DejaVuSans-7a" transform="translate(1313.232422 0)"/>
     <use xlink:href="#DejaVuSans-61" transform="translate(1365.722656 0)"/>
     <use xlink:href="#DejaVuSans-74" transform="translate(1427.001953 0)"/>
     <use xlink:href="#DejaVuSans-61" transform="translate(1466.210938 0)"/>
    </g>
   </g>
   <g id="text_18">
    <!-- isolante ionico -->
    <g transform="translate(301.922722 79.529964) scale(0.11 -0.11)">
     <defs>
      <path id="DejaVuSans-Bold-69" d="M 538 3500 
L 1656 3500 
L 1656 0 
L 538 0 
L 538 3500 
z
M 538 4863 
L 1656 4863 
L 1656 3950 
L 538 3950 
L 538 4863 
z
" transform="scale(0.015625)"/>
      <path id="DejaVuSans-Bold-73" d="M 3272 3391 
L 3272 2541 
Q 2913 2691 2578 2766 
Q 2244 2841 1947 2841 
Q 1628 2841 1473 2761 
Q 1319 2681 1319 2516 
Q 1319 2381 1436 2309 
Q 1553 2238 1856 2203 
L 2053 2175 
Q 2913 2066 3209 1816 
Q 3506 1566 3506 1031 
Q 3506 472 3093 190 
Q 2681 -91 1863 -91 
Q 1516 -91 1145 -36 
Q 775 19 384 128 
L 384 978 
Q 719 816 1070 734 
Q 1422 653 1784 653 
Q 2113 653 2278 743 
Q 2444 834 2444 1013 
Q 2444 1163 2330 1236 
Q 2216 1309 1875 1350 
L 1678 1375 
Q 931 1469 631 1722 
Q 331 1975 331 2491 
Q 331 3047 712 3315 
Q 1094 3584 1881 3584 
Q 2191 3584 2531 3537 
Q 2872 3491 3272 3391 
z
" transform="scale(0.015625)"/>
      <path id="DejaVuSans-Bold-6e" d="M 4056 2131 
L 4056 0 
L 2931 0 
L 2931 347 
L 2931 1631 
Q 2931 2084 2911 2256 
Q 2891 2428 2841 2509 
Q 2775 2619 2662 2680 
Q 2550 2741 2406 2741 
Q 2056 2741 1856 2470 
Q 1656 2200 1656 1722 
L 1656 0 
L 538 0 
L 538 3500 
L 1656 3500 
L 1656 2988 
Q 1909 3294 2193 3439 
Q 2478 3584 2822 3584 
Q 3428 3584 3742 3212 
Q 4056 2841 4056 2131 
z
" transform="scale(0.015625)"/>
      <path id="DejaVuSans-Bold-20" transform="scale(0.015625)"/>
      <path id="DejaVuSans-Bold-63" d="M 3366 3391 
L 3366 2478 
Q 3138 2634 2908 2709 
Q 2678 2784 2431 2784 
Q 1963 2784 1702 2511 
Q 1441 2238 1441 1747 
Q 1441 1256 1702 982 
Q 1963 709 2431 709 
Q 2694 709 2930 787 
Q 3166 866 3366 1019 
L 3366 103 
Q 3103 6 2833 -42 
Q 2563 -91 2291 -91 
Q 1344 -91 809 395 
Q 275 881 275 1747 
Q 275 2613 809 3098 
Q 1344 3584 2291 3584 
Q 2566 3584 2833 3536 
Q 3100 3488 3366 3391 
z
" transform="scale(0.015625)"/>
     </defs>
     <use xlink:href="#DejaVuSans-Bold-69"/>
     <use xlink:href="#DejaVuSans-Bold-73" transform="translate(34.277344 0)"/>
     <use xlink:href="#DejaVuSans-Bold-6f" transform="translate(93.798828 0)"/>
     <use xlink:href="#DejaVuSans-Bold-6c" transform="translate(162.5 0)"/>
     <use xlink:href="#DejaVuSans-Bold-61" transform="translate(196.777344 0)"/>
     <use xlink:href="#DejaVuSans-Bold-6e" transform="translate(264.257812 0)"/>
     <use xlink:href="#DejaVuSans-Bold-74" transform="translate(335.449219 0)"/>
     <use xlink:href="#DejaVuSans-Bold-65" transform="translate(383.251953 0)"/>
     <use xlink:href="#DejaVuSans-Bold-20" transform="translate(451.074219 0)"/>
     <use xlink:href="#DejaVuSans-Bold-69" transform="translate(485.888672 0)"/>
     <use xlink:href="#DejaVuSans-Bold-6f" transform="translate(520.166016 0)"/>
     <use xlink:href="#DejaVuSans-Bold-6e" transform="translate(588.867188 0)"/>
     <use xlink:href="#DejaVuSans-Bold-69" transform="translate(660.058594 0)"/>
     <use xlink:href="#DejaVuSans-Bold-63" transform="translate(694.335938 0)"/>
     <use xlink:href="#DejaVuSans-Bold-6f" transform="translate(753.613281 0)"/>
    </g>
   </g>
   <g id="text_19">
    <!-- + -->
    <g transform="translate(270.657971 231.109772) scale(0.08 -0.08)">
     <use xlink:href="#DejaVuSans-2b"/>
    </g>
   </g>
   <g id="text_20">
    <!-- − -->
    <g transform="translate(304.137971 231.109772) scale(0.08 -0.08)">
     <defs>
      <path id="DejaVuSans-2212" d="M 678 2272 
L 4684 2272 
L 4684 1741 
L 678 1741 
L 678 2272 
z
" transform="scale(0.015625)"/>
     </defs>
     <use xlink:href="#DejaVuSans-2212"/>
    </g>
   </g>
   <g id="text_21">
    <!-- + -->
    <g transform="translate(337.617971 231.109772) scale(0.08 -0.08)">
     <use xlink:href="#DejaVuSans-2b"/>
    </g>
   </g>
   <g id="text_22">
    <!-- − -->
    <g transform="translate(371.097971 231.109772) scale(0.08 -0.08)">
     <use xlink:href="#DejaVuSans-2212"/>
    </g>
   </g>
   <g id="text_23">
    <!-- + -->
    <g transform="translate(404.577971 231.109772) scale(0.08 -0.08)">
     <use xlink:href="#DejaVuSans-2b"/>
    </g>
   </g>
   <g id="text_24">
    <!-- − -->
    <g transform="translate(270.657971 187.328233) scale(0.08 -0.08)">
     <use xlink:href="#DejaVuSans-2212"/>
    </g>
   </g>
   <g id="text_25">
    <!-- + -->
    <g transform="translate(304.137971 187.328233) scale(0.08 -0.08)">
     <use xlink:href="#DejaVuSans-2b"/>
    </g>
   </g>
   <g id="text_26">
    <!-- − -->
    <g transform="translate(337.617971 187.328233) scale(0.08 -0.08)">
     <use xlink:href="#DejaVuSans-2212"/>
    </g>
   </g>
   <g id="text_27">
    <!-- + -->
    <g transform="translate(371.097971 187.328233) scale(0.08 -0.08)">
     <use xlink:href="#DejaVuSans-2b"/>
    </g>
   </g>
   <g id="text_28">
    <!-- − -->
    <g transform="translate(404.577971 187.328233) scale(0.08 -0.08)">
     <use xlink:href="#DejaVuSans-2212"/>
    </g>
   </g>
   <g id="text_29">
    <!-- + -->
    <g transform="translate(270.657971 143.546695) scale(0.08 -0.08)">
     <use xlink:href="#DejaVuSans-2b"/>
    </g>
   </g>
   <g id="text_30">
    <!-- − -->
    <g transform="translate(304.137971 143.546695) scale(0.08 -0.08)">
     <use xlink:href="#DejaVuSans-2212"/>
    </g>
   </g>
   <g id="text_31">
    <!-- + -->
    <g transform="translate(337.617971 143.546695) scale(0.08 -0.08)">
     <use xlink:href="#DejaVuSans-2b"/>
    </g>
   </g>
   <g id="text_32">
    <!-- − -->
    <g transform="translate(371.097971 143.546695) scale(0.08 -0.08)">
     <use xlink:href="#DejaVuSans-2212"/>
    </g>
   </g>
   <g id="text_33">
    <!-- + -->
    <g transform="translate(404.577971 143.546695) scale(0.08 -0.08)">
     <use xlink:href="#DejaVuSans-2b"/>
    </g>
   </g>
   <g id="text_34">
    <!-- carica localizzata sugli anioni -->
    <g transform="translate(281.28905 268.563195) scale(0.09 -0.09)">
     <defs>
      <path id="DejaVuSans-73" d="M 2834 3397 
L 2834 2853 
Q 2591 2978 2328 3040 
Q 2066 3103 1784 3103 
Q 1356 3103 1142 2972 
Q 928 2841 928 2578 
Q 928 2378 1081 2264 
Q 1234 2150 1697 2047 
L 1894 2003 
Q 2506 1872 2764 1633 
Q 3022 1394 3022 966 
Q 3022 478 2636 193 
Q 2250 -91 1575 -91 
Q 1294 -91 989 -36 
Q 684 19 347 128 
L 347 722 
Q 666 556 975 473 
Q 1284 391 1588 391 
Q 1994 391 2212 530 
Q 2431 669 2431 922 
Q 2431 1156 2273 1281 
Q 2116 1406 1581 1522 
L 1381 1569 
Q 847 1681 609 1914 
Q 372 2147 372 2553 
Q 372 3047 722 3315 
Q 1072 3584 1716 3584 
Q 2034 3584 2315 3537 
Q 2597 3491 2834 3397 
z
" transform="scale(0.015625)"/>
      <path id="DejaVuSans-75" d="M 544 1381 
L 544 3500 
L 1119 3500 
L 1119 1403 
Q 1119 906 1312 657 
Q 1506 409 1894 409 
Q 2359 409 2629 706 
Q 2900 1003 2900 1516 
L 2900 3500 
L 3475 3500 
L 3475 0 
L 2900 0 
L 2900 538 
Q 2691 219 2414 64 
Q 2138 -91 1772 -91 
Q 1169 -91 856 284 
Q 544 659 544 1381 
z
M 1991 3584 
L 1991 3584 
z
" transform="scale(0.015625)"/>
      <path id="DejaVuSans-67" d="M 2906 1791 
Q 2906 2416 2648 2759 
Q 2391 3103 1925 3103 
Q 1463 3103 1205 2759 
Q 947 2416 947 1791 
Q 947 1169 1205 825 
Q 1463 481 1925 481 
Q 2391 481 2648 825 
Q 2906 1169 2906 1791 
z
M 3481 434 
Q 3481 -459 3084 -895 
Q 2688 -1331 1869 -1331 
Q 1566 -1331 1297 -1286 
Q 1028 -1241 775 -1147 
L 775 -588 
Q 1028 -725 1275 -790 
Q 1522 -856 1778 -856 
Q 2344 -856 2625 -561 
Q 2906 -266 2906 331 
L 2906 616 
Q 2728 306 2450 153 
Q 2172 0 1784 0 
Q 1141 0 747 490 
Q 353 981 353 1791 
Q 353 2603 747 3093 
Q 1141 3584 1784 3584 
Q 2172 3584 2450 3431 
Q 2728 3278 2906 2969 
L 2906 3500 
L 3481 3500 
L 3481 434 
z
" transform="scale(0.015625)"/>
     </defs>
     <use xlink:href="#DejaVuSans-63"/>
     <use xlink:href="#DejaVuSans-61" transform="translate(54.980469 0)"/>
     <use xlink:href="#DejaVuSans-72" transform="translate(116.259766 0)"/>
     <use xlink:href="#DejaVuSans-69" transform="translate(157.373047 0)"/>
     <use xlink:href="#DejaVuSans-63" transform="translate(185.15625 0)"/>
     <use xlink:href="#DejaVuSans-61" transform="translate(240.136719 0)"/>
     <use xlink:href="#DejaVuSans-20" transform="translate(301.416016 0)"/>
     <use xlink:href="#DejaVuSans-6c" transform="translate(333.203125 0)"/>
     <use xlink:href="#DejaVuSans-6f" transform="translate(360.986328 0)"/>
     <use xlink:href="#DejaVuSans-63" transform="translate(422.167969 0)"/>
     <use xlink:href="#DejaVuSans-61" transform="translate(477.148438 0)"/>
     <use xlink:href="#DejaVuSans-6c" transform="translate(538.427734 0)"/>
     <use xlink:href="#DejaVuSans-69" transform="translate(566.210938 0)"/>
     <use xlink:href="#DejaVuSans-7a" transform="translate(593.994141 0)"/>
     <use xlink:href="#DejaVuSans-7a" transform="translate(646.484375 0)"/>
     <use xlink:href="#DejaVuSans-61" transform="translate(698.974609 0)"/>
     <use xlink:href="#DejaVuSans-74" transform="translate(760.253906 0)"/>
     <use xlink:href="#DejaVuSans-61" transform="translate(799.462891 0)"/>
     <use xlink:href="#DejaVuSans-20" transform="translate(860.742188 0)"/>
     <use xlink:href="#DejaVuSans-73" transform="translate(892.529297 0)"/>
     <use xlink:href="#DejaVuSans-75" transform="translate(944.628906 0)"/>
     <use xlink:href="#DejaVuSans-67" transform="translate(1008.007812 0)"/>
     <use xlink:href="#DejaVuSans-6c" transform="translate(1071.484375 0)"/>
     <use xlink:href="#DejaVuSans-69" transform="translate(1099.267578 0)"/>
     <use xlink:href="#DejaVuSans-20" transform="translate(1127.050781 0)"/>
     <use xlink:href="#DejaVuSans-61" transform="translate(1158.837891 0)"/>
     <use xlink:href="#DejaVuSans-6e" transform="translate(1220.117188 0)"/>
     <use xlink:href="#DejaVuSans-69" transform="translate(1283.496094 0)"/>
     <use xlink:href="#DejaVuSans-6f" transform="translate(1311.279297 0)"/>
     <use xlink:href="#DejaVuSans-6e" transform="translate(1372.460938 0)"/>
     <use xlink:href="#DejaVuSans-69" transform="translate(1435.839844 0)"/>
    </g>
   </g>
   <g id="text_35">
    <!-- isolante covalente -->
    <g transform="translate(516.833834 79.529964) scale(0.11 -0.11)">
     <defs>
      <path id="DejaVuSans-Bold-76" d="M 97 3500 
L 1216 3500 
L 2088 1081 
L 2956 3500 
L 4078 3500 
L 2700 0 
L 1472 0 
L 97 3500 
z
" transform="scale(0.015625)"/>
     </defs>
     <use xlink:href="#DejaVuSans-Bold-69"/>
     <use xlink:href="#DejaVuSans-Bold-73" transform="translate(34.277344 0)"/>
     <use xlink:href="#DejaVuSans-Bold-6f" transform="translate(93.798828 0)"/>
     <use xlink:href="#DejaVuSans-Bold-6c" transform="translate(162.5 0)"/>
     <use xlink:href="#DejaVuSans-Bold-61" transform="translate(196.777344 0)"/>
     <use xlink:href="#DejaVuSans-Bold-6e" transform="translate(264.257812 0)"/>
     <use xlink:href="#DejaVuSans-Bold-74" transform="translate(335.449219 0)"/>
     <use xlink:href="#DejaVuSans-Bold-65" transform="translate(383.251953 0)"/>
     <use xlink:href="#DejaVuSans-Bold-20" transform="translate(451.074219 0)"/>
     <use xlink:href="#DejaVuSans-Bold-63" transform="translate(485.888672 0)"/>
     <use xlink:href="#DejaVuSans-Bold-6f" transform="translate(545.166016 0)"/>
     <use xlink:href="#DejaVuSans-Bold-76" transform="translate(613.867188 0)"/>
     <use xlink:href="#DejaVuSans-Bold-61" transform="translate(679.052734 0)"/>
     <use xlink:href="#DejaVuSans-Bold-6c" transform="translate(746.533203 0)"/>
     <use xlink:href="#DejaVuSans-Bold-65" transform="translate(780.810547 0)"/>
     <use xlink:href="#DejaVuSans-Bold-6e" transform="translate(848.632812 0)"/>
     <use xlink:href="#DejaVuSans-Bold-74" transform="translate(919.824219 0)"/>
     <use xlink:href="#DejaVuSans-Bold-65" transform="translate(967.626953 0)"/>
    </g>
   </g>
   <g id="text_36">
    <!-- carica concentrata nei legami -->
    <g transform="translate(506.724069 268.563195) scale(0.09 -0.09)">
     <defs>
      <path id="DejaVuSans-6d" d="M 3328 2828 
Q 3544 3216 3844 3400 
Q 4144 3584 4550 3584 
Q 5097 3584 5394 3201 
Q 5691 2819 5691 2113 
L 5691 0 
L 5113 0 
L 5113 2094 
Q 5113 2597 4934 2840 
Q 4756 3084 4391 3084 
Q 3944 3084 3684 2787 
Q 3425 2491 3425 1978 
L 3425 0 
L 2847 0 
L 2847 2094 
Q 2847 2600 2669 2842 
Q 2491 3084 2119 3084 
Q 1678 3084 1418 2786 
Q 1159 2488 1159 1978 
L 1159 0 
L 581 0 
L 581 3500 
L 1159 3500 
L 1159 2956 
Q 1356 3278 1631 3431 
Q 1906 3584 2284 3584 
Q 2666 3584 2933 3390 
Q 3200 3197 3328 2828 
z
" transform="scale(0.015625)"/>
     </defs>
     <use xlink:href="#DejaVuSans-63"/>
     <use xlink:href="#DejaVuSans-61" transform="translate(54.980469 0)"/>
     <use xlink:href="#DejaVuSans-72" transform="translate(116.259766 0)"/>
     <use xlink:href="#DejaVuSans-69" transform="translate(157.373047 0)"/>
     <use xlink:href="#DejaVuSans-63" transform="translate(185.15625 0)"/>
     <use xlink:href="#DejaVuSans-61" transform="translate(240.136719 0)"/>
     <use xlink:href="#DejaVuSans-20" transform="translate(301.416016 0)"/>
     <use xlink:href="#DejaVuSans-63" transform="translate(333.203125 0)"/>
     <use xlink:href="#DejaVuSans-6f" transform="translate(388.183594 0)"/>
     <use xlink:href="#DejaVuSans-6e" transform="translate(449.365234 0)"/>
     <use xlink:href="#DejaVuSans-63" transform="translate(512.744141 0)"/>
     <use xlink:href="#DejaVuSans-65" transform="translate(567.724609 0)"/>
     <use xlink:href="#DejaVuSans-6e" transform="translate(629.248047 0)"/>
     <use xlink:href="#DejaVuSans-74" transform="translate(692.626953 0)"/>
     <use xlink:href="#DejaVuSans-72" transform="translate(731.835938 0)"/>
     <use xlink:href="#DejaVuSans-61" transform="translate(772.949219 0)"/>
     <use xlink:href="#DejaVuSans-74" transform="translate(834.228516 0)"/>
     <use xlink:href="#DejaVuSans-61" transform="translate(873.4375 0)"/>
     <use xlink:href="#DejaVuSans-20" transform="translate(934.716797 0)"/>
     <use xlink:href="#DejaVuSans-6e" transform="translate(966.503906 0)"/>
     <use xlink:href="#DejaVuSans-65" transform="translate(1029.882812 0)"/>
     <use xlink:href="#DejaVuSans-69" transform="translate(1091.40625 0)"/>
     <use xlink:href="#DejaVuSans-20" transform="translate(1119.189453 0)"/>
     <use xlink:href="#DejaVuSans-6c" transform="translate(1150.976562 0)"/>
     <use xlink:href="#DejaVuSans-65" transform="translate(1178.759766 0)"/>
     <use xlink:href="#DejaVuSans-67" transform="translate(1240.283203 0)"/>
     <use xlink:href="#DejaVuSans-61" transform="translate(1303.759766 0)"/>
     <use xlink:href="#DejaVuSans-6d" transform="translate(1365.039062 0)"/>
     <use xlink:href="#DejaVuSans-69" transform="translate(1462.451172 0)"/>
    </g>
   </g>
   <g id="text_37">
    <!-- Il disegno confronta la delocalizzazione metallica con la localizzazione ionica e covalente. -->
    <g transform="translate(117.661719 304.618579) scale(0.1 -0.1)">
     <defs>
      <path id="DejaVuSans-49" d="M 628 4666 
L 1259 4666 
L 1259 0 
L 628 0 
L 628 4666 
z
" transform="scale(0.015625)"/>
      <path id="DejaVuSans-66" d="M 2375 4863 
L 2375 4384 
L 1825 4384 
Q 1516 4384 1395 4259 
Q 1275 4134 1275 3809 
L 1275 3500 
L 2222 3500 
L 2222 3053 
L 1275 3053 
L 1275 0 
L 697 0 
L 697 3053 
L 147 3053 
L 147 3500 
L 697 3500 
L 697 3744 
Q 697 4328 969 4595 
Q 1241 4863 1831 4863 
L 2375 4863 
z
" transform="scale(0.015625)"/>
      <path id="DejaVuSans-2e" d="M 684 794 
L 1344 794 
L 1344 0 
L 684 0 
L 684 794 
z
" transform="scale(0.015625)"/>
     </defs>
     <use xlink:href="#DejaVuSans-49"/>
     <use xlink:href="#DejaVuSans-6c" transform="translate(29.492188 0)"/>
     <use xlink:href="#DejaVuSans-20" transform="translate(57.275391 0)"/>
     <use xlink:href="#DejaVuSans-64" transform="translate(89.0625 0)"/>
     <use xlink:href="#DejaVuSans-69" transform="translate(152.539062 0)"/>
     <use xlink:href="#DejaVuSans-73" transform="translate(180.322266 0)"/>
     <use xlink:href="#DejaVuSans-65" transform="translate(232.421875 0)"/>
     <use xlink:href="#DejaVuSans-67" transform="translate(293.945312 0)"/>
     <use xlink:href="#DejaVuSans-6e" transform="translate(357.421875 0)"/>
     <use xlink:href="#DejaVuSans-6f" transform="translate(420.800781 0)"/>
     <use xlink:href="#DejaVuSans-20" transform="translate(481.982422 0)"/>
     <use xlink:href="#DejaVuSans-63" transform="translate(513.769531 0)"/>
     <use xlink:href="#DejaVuSans-6f" transform="translate(568.75 0)"/>
     <use xlink:href="#DejaVuSans-6e" transform="translate(629.931641 0)"/>
     <use xlink:href="#DejaVuSans-66" transform="translate(693.310547 0)"/>
     <use xlink:href="#DejaVuSans-72" transform="translate(728.515625 0)"/>
     <use xlink:href="#DejaVuSans-6f" transform="translate(767.378906 0)"/>
     <use xlink:href="#DejaVuSans-6e" transform="translate(828.560547 0)"/>
     <use xlink:href="#DejaVuSans-74" transform="translate(891.939453 0)"/>
     <use xlink:href="#DejaVuSans-61" transform="translate(931.148438 0)"/>
     <use xlink:href="#DejaVuSans-20" transform="translate(992.427734 0)"/>
     <use xlink:href="#DejaVuSans-6c" transform="translate(1024.214844 0)"/>
     <use xlink:href="#DejaVuSans-61" transform="translate(1051.998047 0)"/>
     <use xlink:href="#DejaVuSans-20" transform="translate(1113.277344 0)"/>
     <use xlink:href="#DejaVuSans-64" transform="translate(1145.064453 0)"/>
     <use xlink:href="#DejaVuSans-65" transform="translate(1208.541016 0)"/>
     <use xlink:href="#DejaVuSans-6c" transform="translate(1270.064453 0)"/>
     <use xlink:href="#DejaVuSans-6f" transform="translate(1297.847656 0)"/>
     <use xlink:href="#DejaVuSans-63" transform="translate(1359.029297 0)"/>
     <use xlink:href="#DejaVuSans-61" transform="translate(1414.009766 0)"/>
     <use xlink:href="#DejaVuSans-6c" transform="translate(1475.289062 0)"/>
     <use xlink:href="#DejaVuSans-69" transform="translate(1503.072266 0)"/>
     <use xlink:href="#DejaVuSans-7a" transform="translate(1530.855469 0)"/>
     <use xlink:href="#DejaVuSans-7a" transform="translate(1583.345703 0)"/>
     <use xlink:href="#DejaVuSans-61" transform="translate(1635.835938 0)"/>
     <use xlink:href="#DejaVuSans-7a" transform="translate(1697.115234 0)"/>
     <use xlink:href="#DejaVuSans-69" transform="translate(1749.605469 0)"/>
     <use xlink:href="#DejaVuSans-6f" transform="translate(1777.388672 0)"/>
     <use xlink:href="#DejaVuSans-6e" transform="translate(1838.570312 0)"/>
     <use xlink:href="#DejaVuSans-65" transform="translate(1901.949219 0)"/>
     <use xlink:href="#DejaVuSans-20" transform="translate(1963.472656 0)"/>
     <use xlink:href="#DejaVuSans-6d" transform="translate(1995.259766 0)"/>
     <use xlink:href="#DejaVuSans-65" transform="translate(2092.671875 0)"/>
     <use xlink:href="#DejaVuSans-74" transform="translate(2154.195312 0)"/>
     <use xlink:href="#DejaVuSans-61" transform="translate(2193.404297 0)"/>
     <use xlink:href="#DejaVuSans-6c" transform="translate(2254.683594 0)"/>
     <use xlink:href="#DejaVuSans-6c" transform="translate(2282.466797 0)"/>
     <use xlink:href="#DejaVuSans-69" transform="translate(2310.25 0)"/>
     <use xlink:href="#DejaVuSans-63" transform="translate(2338.033203 0)"/>
     <use xlink:href="#DejaVuSans-61" transform="translate(2393.013672 0)"/>
     <use xlink:href="#DejaVuSans-20" transform="translate(2454.292969 0)"/>
     <use xlink:href="#DejaVuSans-63" transform="translate(2486.080078 0)"/>
     <use xlink:href="#DejaVuSans-6f" transform="translate(2541.060547 0)"/>
     <use xlink:href="#DejaVuSans-6e" transform="translate(2602.242188 0)"/>
     <use xlink:href="#DejaVuSans-20" transform="translate(2665.621094 0)"/>
     <use xlink:href="#DejaVuSans-6c" transform="translate(2697.408203 0)"/>
     <use xlink:href="#DejaVuSans-61" transform="translate(2725.191406 0)"/>
     <use xlink:href="#DejaVuSans-20" transform="translate(2786.470703 0)"/>
     <use xlink:href="#DejaVuSans-6c" transform="translate(2818.257812 0)"/>
     <use xlink:href="#DejaVuSans-6f" transform="translate(2846.041016 0)"/>
     <use xlink:href="#DejaVuSans-63" transform="translate(2907.222656 0)"/>
     <use xlink:href="#DejaVuSans-61" transform="translate(2962.203125 0)"/>
     <use xlink:href="#DejaVuSans-6c" transform="translate(3023.482422 0)"/>
     <use xlink:href="#DejaVuSans-69" transform="translate(3051.265625 0)"/>
     <use xlink:href="#DejaVuSans-7a" transform="translate(3079.048828 0)"/>
     <use xlink:href="#DejaVuSans-7a" transform="translate(3131.539062 0)"/>
     <use xlink:href="#DejaVuSans-61" transform="translate(3184.029297 0)"/>
     <use xlink:href="#DejaVuSans-7a" transform="translate(3245.308594 0)"/>
     <use xlink:href="#DejaVuSans-69" transform="translate(3297.798828 0)"/>
     <use xlink:href="#DejaVuSans-6f" transform="translate(3325.582031 0)"/>
     <use xlink:href="#DejaVuSans-6e" transform="translate(3386.763672 0)"/>
     <use xlink:href="#DejaVuSans-65" transform="translate(3450.142578 0)"/>
     <use xlink:href="#DejaVuSans-20" transform="translate(3511.666016 0)"/>
     <use xlink:href="#DejaVuSans-69" transform="translate(3543.453125 0)"/>
     <use xlink:href="#DejaVuSans-6f" transform="translate(3571.236328 0)"/>
     <use xlink:href="#DejaVuSans-6e" transform="translate(3632.417969 0)"/>
     <use xlink:href="#DejaVuSans-69" transform="translate(3695.796875 0)"/>
     <use xlink:href="#DejaVuSans-63" transform="translate(3723.580078 0)"/>
     <use xlink:href="#DejaVuSans-61" transform="translate(3778.560547 0)"/>
     <use xlink:href="#DejaVuSans-20" transform="translate(3839.839844 0)"/>
     <use xlink:href="#DejaVuSans-65" transform="translate(3871.626953 0)"/>
     <use xlink:href="#DejaVuSans-20" transform="translate(3933.150391 0)"/>
     <use xlink:href="#DejaVuSans-63" transform="translate(3964.9375 0)"/>
     <use xlink:href="#DejaVuSans-6f" transform="translate(4019.917969 0)"/>
     <use xlink:href="#DejaVuSans-76" transform="translate(4081.099609 0)"/>
     <use xlink:href="#DejaVuSans-61" transform="translate(4140.279297 0)"/>
     <use xlink:href="#DejaVuSans-6c" transform="translate(4201.558594 0)"/>
     <use xlink:href="#DejaVuSans-65" transform="translate(4229.341797 0)"/>
     <use xlink:href="#DejaVuSans-6e" transform="translate(4290.865234 0)"/>
     <use xlink:href="#DejaVuSans-74" transform="translate(4354.244141 0)"/>
     <use xlink:href="#DejaVuSans-65" transform="translate(4393.453125 0)"/>
     <use xlink:href="#DejaVuSans-2e" transform="translate(4454.976562 0)"/>
    </g>
   </g>
   <g id="text_38">
    <!-- Distribuzione qualitativa della carica di valenza -->
    <g transform="translate(140.687109 18.597656) scale(0.15 -0.15)">
     <defs>
      <path id="DejaVuSans-Bold-44" d="M 1791 3756 
L 1791 909 
L 2222 909 
Q 2959 909 3348 1275 
Q 3738 1641 3738 2338 
Q 3738 3031 3350 3393 
Q 2963 3756 2222 3756 
L 1791 3756 
z
M 588 4666 
L 1856 4666 
Q 2919 4666 3439 4514 
Q 3959 4363 4331 4000 
Q 4659 3684 4818 3271 
Q 4978 2859 4978 2338 
Q 4978 1809 4818 1395 
Q 4659 981 4331 666 
Q 3956 303 3431 151 
Q 2906 0 1856 0 
L 588 0 
L 588 4666 
z
" transform="scale(0.015625)"/>
      <path id="DejaVuSans-Bold-72" d="M 3138 2547 
Q 2991 2616 2845 2648 
Q 2700 2681 2553 2681 
Q 2122 2681 1889 2404 
Q 1656 2128 1656 1613 
L 1656 0 
L 538 0 
L 538 3500 
L 1656 3500 
L 1656 2925 
Q 1872 3269 2151 3426 
Q 2431 3584 2822 3584 
Q 2878 3584 2943 3579 
Q 3009 3575 3134 3559 
L 3138 2547 
z
" transform="scale(0.015625)"/>
      <path id="DejaVuSans-Bold-62" d="M 2400 722 
Q 2759 722 2948 984 
Q 3138 1247 3138 1747 
Q 3138 2247 2948 2509 
Q 2759 2772 2400 2772 
Q 2041 2772 1848 2508 
Q 1656 2244 1656 1747 
Q 1656 1250 1848 986 
Q 2041 722 2400 722 
z
M 1656 2988 
Q 1888 3294 2169 3439 
Q 2450 3584 2816 3584 
Q 3463 3584 3878 3070 
Q 4294 2556 4294 1747 
Q 4294 938 3878 423 
Q 3463 -91 2816 -91 
Q 2450 -91 2169 54 
Q 1888 200 1656 506 
L 1656 0 
L 538 0 
L 538 4863 
L 1656 4863 
L 1656 2988 
z
" transform="scale(0.015625)"/>
      <path id="DejaVuSans-Bold-75" d="M 500 1363 
L 500 3500 
L 1625 3500 
L 1625 3150 
Q 1625 2866 1622 2436 
Q 1619 2006 1619 1863 
Q 1619 1441 1641 1255 
Q 1663 1069 1716 984 
Q 1784 875 1895 815 
Q 2006 756 2150 756 
Q 2500 756 2700 1025 
Q 2900 1294 2900 1772 
L 2900 3500 
L 4019 3500 
L 4019 0 
L 2900 0 
L 2900 506 
Q 2647 200 2364 54 
Q 2081 -91 1741 -91 
Q 1134 -91 817 281 
Q 500 653 500 1363 
z
" transform="scale(0.015625)"/>
      <path id="DejaVuSans-Bold-7a" d="M 366 3500 
L 3419 3500 
L 3419 2719 
L 1575 800 
L 3419 800 
L 3419 0 
L 288 0 
L 288 781 
L 2131 2700 
L 366 2700 
L 366 3500 
z
" transform="scale(0.015625)"/>
      <path id="DejaVuSans-Bold-71" d="M 2181 2772 
Q 1825 2772 1636 2509 
Q 1447 2247 1447 1747 
Q 1447 1247 1636 984 
Q 1825 722 2181 722 
Q 2541 722 2730 984 
Q 2919 1247 2919 1747 
Q 2919 2247 2730 2509 
Q 2541 2772 2181 2772 
z
M 2919 506 
Q 2688 197 2409 53 
Q 2131 -91 1766 -91 
Q 1119 -91 703 423 
Q 288 938 288 1747 
Q 288 2556 703 3067 
Q 1119 3578 1766 3578 
Q 2131 3578 2409 3434 
Q 2688 3291 2919 2981 
L 2919 3500 
L 4044 3500 
L 4044 -1331 
L 2919 -1331 
L 2919 506 
z
" transform="scale(0.015625)"/>
      <path id="DejaVuSans-Bold-64" d="M 2919 2988 
L 2919 4863 
L 4044 4863 
L 4044 0 
L 2919 0 
L 2919 506 
Q 2688 197 2409 53 
Q 2131 -91 1766 -91 
Q 1119 -91 703 423 
Q 288 938 288 1747 
Q 288 2556 703 3070 
Q 1119 3584 1766 3584 
Q 2128 3584 2408 3439 
Q 2688 3294 2919 2988 
z
M 2181 722 
Q 2541 722 2730 984 
Q 2919 1247 2919 1747 
Q 2919 2247 2730 2509 
Q 2541 2772 2181 2772 
Q 1825 2772 1636 2509 
Q 1447 2247 1447 1747 
Q 1447 1247 1636 984 
Q 1825 722 2181 722 
z
" transform="scale(0.015625)"/>
     </defs>
     <use xlink:href="#DejaVuSans-Bold-44"/>
     <use xlink:href="#DejaVuSans-Bold-69" transform="translate(83.007812 0)"/>
     <use xlink:href="#DejaVuSans-Bold-73" transform="translate(117.285156 0)"/>
     <use xlink:href="#DejaVuSans-Bold-74" transform="translate(176.806641 0)"/>
     <use xlink:href="#DejaVuSans-Bold-72" transform="translate(224.609375 0)"/>
     <use xlink:href="#DejaVuSans-Bold-69" transform="translate(273.925781 0)"/>
     <use xlink:href="#DejaVuSans-Bold-62" transform="translate(308.203125 0)"/>
     <use xlink:href="#DejaVuSans-Bold-75" transform="translate(379.785156 0)"/>
     <use xlink:href="#DejaVuSans-Bold-7a" transform="translate(450.976562 0)"/>
     <use xlink:href="#DejaVuSans-Bold-69" transform="translate(509.179688 0)"/>
     <use xlink:href="#DejaVuSans-Bold-6f" transform="translate(543.457031 0)"/>
     <use xlink:href="#DejaVuSans-Bold-6e" transform="translate(612.158203 0)"/>
     <use xlink:href="#DejaVuSans-Bold-65" transform="translate(683.349609 0)"/>
     <use xlink:href="#DejaVuSans-Bold-20" transform="translate(751.171875 0)"/>
     <use xlink:href="#DejaVuSans-Bold-71" transform="translate(785.986328 0)"/>
     <use xlink:href="#DejaVuSans-Bold-75" transform="translate(857.568359 0)"/>
     <use xlink:href="#DejaVuSans-Bold-61" transform="translate(928.759766 0)"/>
     <use xlink:href="#DejaVuSans-Bold-6c" transform="translate(996.240234 0)"/>
     <use xlink:href="#DejaVuSans-Bold-69" transform="translate(1030.517578 0)"/>
     <use xlink:href="#DejaVuSans-Bold-74" transform="translate(1064.794922 0)"/>
     <use xlink:href="#DejaVuSans-Bold-61" transform="translate(1112.597656 0)"/>
     <use xlink:href="#DejaVuSans-Bold-74" transform="translate(1180.078125 0)"/>
     <use xlink:href="#DejaVuSans-Bold-69" transform="translate(1227.880859 0)"/>
     <use xlink:href="#DejaVuSans-Bold-76" transform="translate(1262.158203 0)"/>
     <use xlink:href="#DejaVuSans-Bold-61" transform="translate(1327.34375 0)"/>
     <use xlink:href="#DejaVuSans-Bold-20" transform="translate(1394.824219 0)"/>
     <use xlink:href="#DejaVuSans-Bold-64" transform="translate(1429.638672 0)"/>
     <use xlink:href="#DejaVuSans-Bold-65" transform="translate(1501.220703 0)"/>
     <use xlink:href="#DejaVuSans-Bold-6c" transform="translate(1569.042969 0)"/>
     <use xlink:href="#DejaVuSans-Bold-6c" transform="translate(1603.320312 0)"/>
     <use xlink:href="#DejaVuSans-Bold-61" transform="translate(1637.597656 0)"/>
     <use xlink:href="#DejaVuSans-Bold-20" transform="translate(1705.078125 0)"/>
     <use xlink:href="#DejaVuSans-Bold-63" transform="translate(1739.892578 0)"/>
     <use xlink:href="#DejaVuSans-Bold-61" transform="translate(1799.169922 0)"/>
     <use xlink:href="#DejaVuSans-Bold-72" transform="translate(1866.650391 0)"/>
     <use xlink:href="#DejaVuSans-Bold-69" transform="translate(1915.966797 0)"/>
     <use xlink:href="#DejaVuSans-Bold-63" transform="translate(1950.244141 0)"/>
     <use xlink:href="#DejaVuSans-Bold-61" transform="translate(2009.521484 0)"/>
     <use xlink:href="#DejaVuSans-Bold-20" transform="translate(2077.001953 0)"/>
     <use xlink:href="#DejaVuSans-Bold-64" transform="translate(2111.816406 0)"/>
     <use xlink:href="#DejaVuSans-Bold-69" transform="translate(2183.398438 0)"/>
     <use xlink:href="#DejaVuSans-Bold-20" transform="translate(2217.675781 0)"/>
     <use xlink:href="#DejaVuSans-Bold-76" transform="translate(2252.490234 0)"/>
     <use xlink:href="#DejaVuSans-Bold-61" transform="translate(2317.675781 0)"/>
     <use xlink:href="#DejaVuSans-Bold-6c" transform="translate(2385.15625 0)"/>
     <use xlink:href="#DejaVuSans-Bold-65" transform="translate(2419.433594 0)"/>
     <use xlink:href="#DejaVuSans-Bold-6e" transform="translate(2487.255859 0)"/>
     <use xlink:href="#DejaVuSans-Bold-7a" transform="translate(2558.447266 0)"/>
     <use xlink:href="#DejaVuSans-Bold-61" transform="translate(2616.650391 0)"/>
    </g>
   </g>
  </g>
 </g>
 <defs>
  <clipPath id="p2459bb8ea8">
   <rect x="7.2" y="30.597656" width="669.6" height="288.443077"/>
  </clipPath>
 </defs>
</svg>
