<?xml version="1.0" encoding="utf-8" standalone="no"?>
<!DOCTYPE svg PUBLIC "-//W3C//DTD SVG 1.1//EN"
  "http://www.w3.org/Graphics/SVG/1.1/DTD/svg11.dtd">
<svg xmlns:xlink="http://www.w3.org/1999/xlink" width="622.021875pt" height="359.349656pt" viewBox="0 0 622.021875 359.349656" xmlns="http://www.w3.org/2000/svg" version="1.1">
 <metadata>
  <rdf:RDF xmlns:dc="http://purl.org/dc/elements/1.1/" xmlns:cc="http://creativecommons.org/ns#" xmlns:rdf="http://www.w3.org/1999/02/22-rdf-syntax-ns#">
   <cc:Work>
    <dc:type rdf:resource="http://purl.org/dc/dcmitype/StillImage"/>
    <dc:date>2026-06-16T08:14:46.450580</dc:date>
    <dc:format>image/svg+xml</dc:format>
    <dc:creator>
     <cc:Agent>
      <dc:title>Matplotlib v3.10.8, https://matplotlib.org/</dc:title>
     </cc:Agent>
    </dc:creator>
   </cc:Work>
  </rdf:RDF>
 </metadata>
 <defs>
  <style type="text/css">*{stroke-linejoin: round; stroke-linecap: butt}</style>
 </defs>
 <g id="figure_1">
  <g id="patch_1">
   <path d="M 0 359.349656 
L 622.021875 359.349656 
L 622.021875 0 
L 0 0 
z
" style="fill: #ffffff"/>
  </g>
  <g id="axes_1">
   <g id="patch_2">
    <path d="M 115.895373 322.324849 
C 121.846077 322.324849 127.553857 319.960609 131.76164 315.752826 
C 135.969423 311.545042 138.333663 305.837263 138.333663 299.886559 
C 138.333663 293.935855 135.969423 288.228075 131.76164 284.020292 
C 127.553857 279.812509 121.846077 277.448269 115.895373 277.448269 
C 109.944669 277.448269 104.23689 279.812509 100.029106 284.020292 
C 95.821323 288.228075 93.457083 293.935855 93.457083 299.886559 
C 93.457083 305.837263 95.821323 311.545042 100.029106 315.752826 
C 104.23689 319.960609 109.944669 322.324849 115.895373 322.324849 
L 115.895373 322.324849 
z
" clip-path="url(#pbb5de69f85)" style="fill: none; stroke: #000000; stroke-width: 1.2; stroke-linejoin: miter"/>
   </g>
   <g id="patch_3">
    <path d="M 164.674264 322.324849 
C 170.624968 322.324849 176.332748 319.960609 180.540531 315.752826 
C 184.748314 311.545042 187.112554 305.837263 187.112554 299.886559 
C 187.112554 293.935855 184.748314 288.228075 180.540531 284.020292 
C 176.332748 279.812509 170.624968 277.448269 164.674264 277.448269 
C 158.72356 277.448269 153.015781 279.812509 148.807997 284.020292 
C 144.600214 288.228075 142.235974 293.935855 142.235974 299.886559 
C 142.235974 305.837263 144.600214 311.545042 148.807997 315.752826 
C 153.015781 319.960609 158.72356 322.324849 164.674264 322.324849 
L 164.674264 322.324849 
z
" clip-path="url(#pbb5de69f85)" style="fill: none; stroke: #000000; stroke-width: 1.2; stroke-linejoin: miter"/>
   </g>
   <g id="patch_4">
    <path d="M 213.453155 322.324849 
C 219.403859 322.324849 225.111639 319.960609 229.319422 315.752826 
C 233.527206 311.545042 235.891445 305.837263 235.891445 299.886559 
C 235.891445 293.935855 233.527206 288.228075 229.319422 284.020292 
C 225.111639 279.812509 219.403859 277.448269 213.453155 277.448269 
C 207.502451 277.448269 201.794672 279.812509 197.586888 284.020292 
C 193.379105 288.228075 191.014866 293.935855 191.014866 299.886559 
C 191.014866 305.837263 193.379105 311.545042 197.586888 315.752826 
C 201.794672 319.960609 207.502451 322.324849 213.453155 322.324849 
L 213.453155 322.324849 
z
" clip-path="url(#pbb5de69f85)" style="fill: none; stroke: #000000; stroke-width: 1.2; stroke-linejoin: miter"/>
   </g>
   <g id="patch_5">
    <path d="M 262.232046 322.324849 
C 268.18275 322.324849 273.89053 319.960609 278.098313 315.752826 
C 282.306097 311.545042 284.670336 305.837263 284.670336 299.886559 
C 284.670336 293.935855 282.306097 288.228075 278.098313 284.020292 
C 273.89053 279.812509 268.18275 277.448269 262.232046 277.448269 
C 256.281342 277.448269 250.573563 279.812509 246.36578 284.020292 
C 242.157996 288.228075 239.793757 293.935855 239.793757 299.886559 
C 239.793757 305.837263 242.157996 311.545042 246.36578 315.752826 
C 250.573563 319.960609 256.281342 322.324849 262.232046 322.324849 
L 262.232046 322.324849 
z
" clip-path="url(#pbb5de69f85)" style="fill: none; stroke: #000000; stroke-width: 1.2; stroke-linejoin: miter"/>
   </g>
   <g id="patch_6">
    <path d="M 311.010938 322.324849 
C 316.961642 322.324849 322.669421 319.960609 326.877204 315.752826 
C 331.084988 311.545042 333.449227 305.837263 333.449227 299.886559 
C 333.449227 293.935855 331.084988 288.228075 326.877204 284.020292 
C 322.669421 279.812509 316.961642 277.448269 311.010938 277.448269 
C 305.060233 277.448269 299.352454 279.812509 295.144671 284.020292 
C 290.936887 288.228075 288.572648 293.935855 288.572648 299.886559 
C 288.572648 305.837263 290.936887 311.545042 295.144671 315.752826 
C 299.352454 319.960609 305.060233 322.324849 311.010938 322.324849 
L 311.010938 322.324849 
z
" clip-path="url(#pbb5de69f85)" style="fill: none; stroke: #000000; stroke-width: 1.2; stroke-linejoin: miter"/>
   </g>
   <g id="patch_7">
    <path d="M 359.789829 322.324849 
C 365.740533 322.324849 371.448312 319.960609 375.656095 315.752826 
C 379.863879 311.545042 382.228118 305.837263 382.228118 299.886559 
C 382.228118 293.935855 379.863879 288.228075 375.656095 284.020292 
C 371.448312 279.812509 365.740533 277.448269 359.789829 277.448269 
C 353.839125 277.448269 348.131345 279.812509 343.923562 284.020292 
C 339.715778 288.228075 337.351539 293.935855 337.351539 299.886559 
C 337.351539 305.837263 339.715778 311.545042 343.923562 315.752826 
C 348.131345 319.960609 353.839125 322.324849 359.789829 322.324849 
L 359.789829 322.324849 
z
" clip-path="url(#pbb5de69f85)" style="fill: none; stroke: #000000; stroke-width: 1.2; stroke-linejoin: miter"/>
   </g>
   <g id="patch_8">
    <path d="M 408.56872 322.324849 
C 414.519424 322.324849 420.227203 319.960609 424.434987 315.752826 
C 428.64277 311.545042 431.007009 305.837263 431.007009 299.886559 
C 431.007009 293.935855 428.64277 288.228075 424.434987 284.020292 
C 420.227203 279.812509 414.519424 277.448269 408.56872 277.448269 
C 402.618016 277.448269 396.910236 279.812509 392.702453 284.020292 
C 388.494669 288.228075 386.13043 293.935855 386.13043 299.886559 
C 386.13043 305.837263 388.494669 311.545042 392.702453 315.752826 
C 396.910236 319.960609 402.618016 322.324849 408.56872 322.324849 
L 408.56872 322.324849 
z
" clip-path="url(#pbb5de69f85)" style="fill: none; stroke: #000000; stroke-width: 1.2; stroke-linejoin: miter"/>
   </g>
   <g id="patch_9">
    <path d="M 457.347611 322.324849 
C 463.298315 322.324849 469.006094 319.960609 473.213878 315.752826 
C 477.421661 311.545042 479.785901 305.837263 479.785901 299.886559 
C 479.785901 293.935855 477.421661 288.228075 473.213878 284.020292 
C 469.006094 279.812509 463.298315 277.448269 457.347611 277.448269 
C 451.396907 277.448269 445.689127 279.812509 441.481344 284.020292 
C 437.273561 288.228075 434.909321 293.935855 434.909321 299.886559 
C 434.909321 305.837263 437.273561 311.545042 441.481344 315.752826 
C 445.689127 319.960609 451.396907 322.324849 457.347611 322.324849 
L 457.347611 322.324849 
z
" clip-path="url(#pbb5de69f85)" style="fill: none; stroke: #000000; stroke-width: 1.2; stroke-linejoin: miter"/>
   </g>
   <g id="patch_10">
    <path d="M 140.284819 280.08109 
C 146.235523 280.08109 151.943303 277.71685 156.151086 273.509067 
C 160.358869 269.301284 162.723109 263.593504 162.723109 257.6428 
C 162.723109 251.692096 160.358869 245.984316 156.151086 241.776533 
C 151.943303 237.56875 146.235523 235.20451 140.284819 235.20451 
C 134.334115 235.20451 128.626335 237.56875 124.418552 241.776533 
C 120.210769 245.984316 117.846529 251.692096 117.846529 257.6428 
C 117.846529 263.593504 120.210769 269.301284 124.418552 273.509067 
C 128.626335 277.71685 134.334115 280.08109 140.284819 280.08109 
L 140.284819 280.08109 
z
" clip-path="url(#pbb5de69f85)" style="fill: none; stroke: #000000; stroke-width: 1.2; stroke-linejoin: miter"/>
   </g>
   <g id="patch_11">
    <path d="M 189.06371 280.08109 
C 195.014414 280.08109 200.722194 277.71685 204.929977 273.509067 
C 209.13776 269.301284 211.502 263.593504 211.502 257.6428 
C 211.502 251.692096 209.13776 245.984316 204.929977 241.776533 
C 200.722194 237.56875 195.014414 235.20451 189.06371 235.20451 
C 183.113006 235.20451 177.405226 237.56875 173.197443 241.776533 
C 168.98966 245.984316 166.62542 251.692096 166.62542 257.6428 
C 166.62542 263.593504 168.98966 269.301284 173.197443 273.509067 
C 177.405226 277.71685 183.113006 280.08109 189.06371 280.08109 
L 189.06371 280.08109 
z
" clip-path="url(#pbb5de69f85)" style="fill: none; stroke: #000000; stroke-width: 1.2; stroke-linejoin: miter"/>
   </g>
   <g id="patch_12">
    <path d="M 237.842601 280.08109 
C 243.793305 280.08109 249.501085 277.71685 253.708868 273.509067 
C 257.916651 269.301284 260.280891 263.593504 260.280891 257.6428 
C 260.280891 251.692096 257.916651 245.984316 253.708868 241.776533 
C 249.501085 237.56875 243.793305 235.20451 237.842601 235.20451 
C 231.891897 235.20451 226.184117 237.56875 221.976334 241.776533 
C 217.768551 245.984316 215.404311 251.692096 215.404311 257.6428 
C 215.404311 263.593504 217.768551 269.301284 221.976334 273.509067 
C 226.184117 277.71685 231.891897 280.08109 237.842601 280.08109 
L 237.842601 280.08109 
z
" clip-path="url(#pbb5de69f85)" style="fill: none; stroke: #000000; stroke-width: 1.2; stroke-linejoin: miter"/>
   </g>
   <g id="patch_13">
    <path d="M 286.621492 280.08109 
C 292.572196 280.08109 298.279976 277.71685 302.487759 273.509067 
C 306.695542 269.301284 309.059782 263.593504 309.059782 257.6428 
C 309.059782 251.692096 306.695542 245.984316 302.487759 241.776533 
C 298.279976 237.56875 292.572196 235.20451 286.621492 235.20451 
C 280.670788 235.20451 274.963008 237.56875 270.755225 241.776533 
C 266.547442 245.984316 264.183202 251.692096 264.183202 257.6428 
C 264.183202 263.593504 266.547442 269.301284 270.755225 273.509067 
C 274.963008 277.71685 280.670788 280.08109 286.621492 280.08109 
L 286.621492 280.08109 
z
" clip-path="url(#pbb5de69f85)" style="fill: none; stroke: #000000; stroke-width: 1.2; stroke-linejoin: miter"/>
   </g>
   <g id="patch_14">
    <path d="M 335.400383 280.08109 
C 341.351087 280.08109 347.058867 277.71685 351.26665 273.509067 
C 355.474433 269.301284 357.838673 263.593504 357.838673 257.6428 
C 357.838673 251.692096 355.474433 245.984316 351.26665 241.776533 
C 347.058867 237.56875 341.351087 235.20451 335.400383 235.20451 
C 329.449679 235.20451 323.741899 237.56875 319.534116 241.776533 
C 315.326333 245.984316 312.962093 251.692096 312.962093 257.6428 
C 312.962093 263.593504 315.326333 269.301284 319.534116 273.509067 
C 323.741899 277.71685 329.449679 280.08109 335.400383 280.08109 
L 335.400383 280.08109 
z
" clip-path="url(#pbb5de69f85)" style="fill: none; stroke: #000000; stroke-width: 1.2; stroke-linejoin: miter"/>
   </g>
   <g id="patch_15">
    <path d="M 384.179274 280.08109 
C 390.129978 280.08109 395.837758 277.71685 400.045541 273.509067 
C 404.253324 269.301284 406.617564 263.593504 406.617564 257.6428 
C 406.617564 251.692096 404.253324 245.984316 400.045541 241.776533 
C 395.837758 237.56875 390.129978 235.20451 384.179274 235.20451 
C 378.22857 235.20451 372.52079 237.56875 368.313007 241.776533 
C 364.105224 245.984316 361.740984 251.692096 361.740984 257.6428 
C 361.740984 263.593504 364.105224 269.301284 368.313007 273.509067 
C 372.52079 277.71685 378.22857 280.08109 384.179274 280.08109 
L 384.179274 280.08109 
z
" clip-path="url(#pbb5de69f85)" style="fill: none; stroke: #000000; stroke-width: 1.2; stroke-linejoin: miter"/>
   </g>
   <g id="patch_16">
    <path d="M 432.958165 280.08109 
C 438.908869 280.08109 444.616649 277.71685 448.824432 273.509067 
C 453.032215 269.301284 455.396455 263.593504 455.396455 257.6428 
C 455.396455 251.692096 453.032215 245.984316 448.824432 241.776533 
C 444.616649 237.56875 438.908869 235.20451 432.958165 235.20451 
C 427.007461 235.20451 421.299681 237.56875 417.091898 241.776533 
C 412.884115 245.984316 410.519875 251.692096 410.519875 257.6428 
C 410.519875 263.593504 412.884115 269.301284 417.091898 273.509067 
C 421.299681 277.71685 427.007461 280.08109 432.958165 280.08109 
L 432.958165 280.08109 
z
" clip-path="url(#pbb5de69f85)" style="fill: none; stroke: #000000; stroke-width: 1.2; stroke-linejoin: miter"/>
   </g>
   <g id="patch_17">
    <path d="M 481.737056 280.08109 
C 487.68776 280.08109 493.39554 277.71685 497.603323 273.509067 
C 501.811106 269.301284 504.175346 263.593504 504.175346 257.6428 
C 504.175346 251.692096 501.811106 245.984316 497.603323 241.776533 
C 493.39554 237.56875 487.68776 235.20451 481.737056 235.20451 
C 475.786352 235.20451 470.078572 237.56875 465.870789 241.776533 
C 461.663006 245.984316 459.298766 251.692096 459.298766 257.6428 
C 459.298766 263.593504 461.663006 269.301284 465.870789 273.509067 
C 470.078572 277.71685 475.786352 280.08109 481.737056 280.08109 
L 481.737056 280.08109 
z
" clip-path="url(#pbb5de69f85)" style="fill: none; stroke: #000000; stroke-width: 1.2; stroke-linejoin: miter"/>
   </g>
   <g id="patch_18">
    <path d="M 115.895373 237.837331 
C 121.846077 237.837331 127.553857 235.473091 131.76164 231.265308 
C 135.969423 227.057525 138.333663 221.349745 138.333663 215.399041 
C 138.333663 209.448337 135.969423 203.740557 131.76164 199.532774 
C 127.553857 195.324991 121.846077 192.960751 115.895373 192.960751 
C 109.944669 192.960751 104.23689 195.324991 100.029106 199.532774 
C 95.821323 203.740557 93.457083 209.448337 93.457083 215.399041 
C 93.457083 221.349745 95.821323 227.057525 100.029106 231.265308 
C 104.23689 235.473091 109.944669 237.837331 115.895373 237.837331 
L 115.895373 237.837331 
z
" clip-path="url(#pbb5de69f85)" style="fill: none; stroke: #000000; stroke-width: 1.2; stroke-linejoin: miter"/>
   </g>
   <g id="patch_19">
    <path d="M 164.674264 237.837331 
C 170.624968 237.837331 176.332748 235.473091 180.540531 231.265308 
C 184.748314 227.057525 187.112554 221.349745 187.112554 215.399041 
C 187.112554 209.448337 184.748314 203.740557 180.540531 199.532774 
C 176.332748 195.324991 170.624968 192.960751 164.674264 192.960751 
C 158.72356 192.960751 153.015781 195.324991 148.807997 199.532774 
C 144.600214 203.740557 142.235974 209.448337 142.235974 215.399041 
C 142.235974 221.349745 144.600214 227.057525 148.807997 231.265308 
C 153.015781 235.473091 158.72356 237.837331 164.674264 237.837331 
L 164.674264 237.837331 
z
" clip-path="url(#pbb5de69f85)" style="fill: none; stroke: #000000; stroke-width: 1.2; stroke-linejoin: miter"/>
   </g>
   <g id="patch_20">
    <path d="M 213.453155 237.837331 
C 219.403859 237.837331 225.111639 235.473091 229.319422 231.265308 
C 233.527206 227.057525 235.891445 221.349745 235.891445 215.399041 
C 235.891445 209.448337 233.527206 203.740557 229.319422 199.532774 
C 225.111639 195.324991 219.403859 192.960751 213.453155 192.960751 
C 207.502451 192.960751 201.794672 195.324991 197.586888 199.532774 
C 193.379105 203.740557 191.014866 209.448337 191.014866 215.399041 
C 191.014866 221.349745 193.379105 227.057525 197.586888 231.265308 
C 201.794672 235.473091 207.502451 237.837331 213.453155 237.837331 
L 213.453155 237.837331 
z
" clip-path="url(#pbb5de69f85)" style="fill: none; stroke: #000000; stroke-width: 1.2; stroke-linejoin: miter"/>
   </g>
   <g id="patch_21">
    <path d="M 262.232046 237.837331 
C 268.18275 237.837331 273.89053 235.473091 278.098313 231.265308 
C 282.306097 227.057525 284.670336 221.349745 284.670336 215.399041 
C 284.670336 209.448337 282.306097 203.740557 278.098313 199.532774 
C 273.89053 195.324991 268.18275 192.960751 262.232046 192.960751 
C 256.281342 192.960751 250.573563 195.324991 246.36578 199.532774 
C 242.157996 203.740557 239.793757 209.448337 239.793757 215.399041 
C 239.793757 221.349745 242.157996 227.057525 246.36578 231.265308 
C 250.573563 235.473091 256.281342 237.837331 262.232046 237.837331 
L 262.232046 237.837331 
z
" clip-path="url(#pbb5de69f85)" style="fill: none; stroke: #000000; stroke-width: 1.2; stroke-linejoin: miter"/>
   </g>
   <g id="patch_22">
    <path d="M 311.010938 237.837331 
C 316.961642 237.837331 322.669421 235.473091 326.877204 231.265308 
C 331.084988 227.057525 333.449227 221.349745 333.449227 215.399041 
C 333.449227 209.448337 331.084988 203.740557 326.877204 199.532774 
C 322.669421 195.324991 316.961642 192.960751 311.010938 192.960751 
C 305.060233 192.960751 299.352454 195.324991 295.144671 199.532774 
C 290.936887 203.740557 288.572648 209.448337 288.572648 215.399041 
C 288.572648 221.349745 290.936887 227.057525 295.144671 231.265308 
C 299.352454 235.473091 305.060233 237.837331 311.010938 237.837331 
L 311.010938 237.837331 
z
" clip-path="url(#pbb5de69f85)" style="fill: none; stroke: #000000; stroke-width: 1.2; stroke-linejoin: miter"/>
   </g>
   <g id="patch_23">
    <path d="M 359.789829 237.837331 
C 365.740533 237.837331 371.448312 235.473091 375.656095 231.265308 
C 379.863879 227.057525 382.228118 221.349745 382.228118 215.399041 
C 382.228118 209.448337 379.863879 203.740557 375.656095 199.532774 
C 371.448312 195.324991 365.740533 192.960751 359.789829 192.960751 
C 353.839125 192.960751 348.131345 195.324991 343.923562 199.532774 
C 339.715778 203.740557 337.351539 209.448337 337.351539 215.399041 
C 337.351539 221.349745 339.715778 227.057525 343.923562 231.265308 
C 348.131345 235.473091 353.839125 237.837331 359.789829 237.837331 
L 359.789829 237.837331 
z
" clip-path="url(#pbb5de69f85)" style="fill: none; stroke: #000000; stroke-width: 1.2; stroke-linejoin: miter"/>
   </g>
   <g id="patch_24">
    <path d="M 408.56872 237.837331 
C 414.519424 237.837331 420.227203 235.473091 424.434987 231.265308 
C 428.64277 227.057525 431.007009 221.349745 431.007009 215.399041 
C 431.007009 209.448337 428.64277 203.740557 424.434987 199.532774 
C 420.227203 195.324991 414.519424 192.960751 408.56872 192.960751 
C 402.618016 192.960751 396.910236 195.324991 392.702453 199.532774 
C 388.494669 203.740557 386.13043 209.448337 386.13043 215.399041 
C 386.13043 221.349745 388.494669 227.057525 392.702453 231.265308 
C 396.910236 235.473091 402.618016 237.837331 408.56872 237.837331 
L 408.56872 237.837331 
z
" clip-path="url(#pbb5de69f85)" style="fill: none; stroke: #000000; stroke-width: 1.2; stroke-linejoin: miter"/>
   </g>
   <g id="patch_25">
    <path d="M 457.347611 237.837331 
C 463.298315 237.837331 469.006094 235.473091 473.213878 231.265308 
C 477.421661 227.057525 479.785901 221.349745 479.785901 215.399041 
C 479.785901 209.448337 477.421661 203.740557 473.213878 199.532774 
C 469.006094 195.324991 463.298315 192.960751 457.347611 192.960751 
C 451.396907 192.960751 445.689127 195.324991 441.481344 199.532774 
C 437.273561 203.740557 434.909321 209.448337 434.909321 215.399041 
C 434.909321 221.349745 437.273561 227.057525 441.481344 231.265308 
C 445.689127 235.473091 451.396907 237.837331 457.347611 237.837331 
L 457.347611 237.837331 
z
" clip-path="url(#pbb5de69f85)" style="fill: none; stroke: #000000; stroke-width: 1.2; stroke-linejoin: miter"/>
   </g>
   <g id="patch_26">
    <path d="M 140.284819 195.593572 
C 146.235523 195.593572 151.943303 193.229332 156.151086 189.021549 
C 160.358869 184.813766 162.723109 179.105986 162.723109 173.155282 
C 162.723109 167.204578 160.358869 161.496799 156.151086 157.289015 
C 151.943303 153.081232 146.235523 150.716992 140.284819 150.716992 
C 134.334115 150.716992 128.626335 153.081232 124.418552 157.289015 
C 120.210769 161.496799 117.846529 167.204578 117.846529 173.155282 
C 117.846529 179.105986 120.210769 184.813766 124.418552 189.021549 
C 128.626335 193.229332 134.334115 195.593572 140.284819 195.593572 
L 140.284819 195.593572 
z
" clip-path="url(#pbb5de69f85)" style="fill: none; stroke: #000000; stroke-width: 1.2; stroke-linejoin: miter"/>
   </g>
   <g id="patch_27">
    <path d="M 189.06371 195.593572 
C 195.014414 195.593572 200.722194 193.229332 204.929977 189.021549 
C 209.13776 184.813766 211.502 179.105986 211.502 173.155282 
C 211.502 167.204578 209.13776 161.496799 204.929977 157.289015 
C 200.722194 153.081232 195.014414 150.716992 189.06371 150.716992 
C 183.113006 150.716992 177.405226 153.081232 173.197443 157.289015 
C 168.98966 161.496799 166.62542 167.204578 166.62542 173.155282 
C 166.62542 179.105986 168.98966 184.813766 173.197443 189.021549 
C 177.405226 193.229332 183.113006 195.593572 189.06371 195.593572 
L 189.06371 195.593572 
z
" clip-path="url(#pbb5de69f85)" style="fill: none; stroke: #000000; stroke-width: 1.2; stroke-linejoin: miter"/>
   </g>
   <g id="patch_28">
    <path d="M 237.842601 195.593572 
C 243.793305 195.593572 249.501085 193.229332 253.708868 189.021549 
C 257.916651 184.813766 260.280891 179.105986 260.280891 173.155282 
C 260.280891 167.204578 257.916651 161.496799 253.708868 157.289015 
C 249.501085 153.081232 243.793305 150.716992 237.842601 150.716992 
C 231.891897 150.716992 226.184117 153.081232 221.976334 157.289015 
C 217.768551 161.496799 215.404311 167.204578 215.404311 173.155282 
C 215.404311 179.105986 217.768551 184.813766 221.976334 189.021549 
C 226.184117 193.229332 231.891897 195.593572 237.842601 195.593572 
L 237.842601 195.593572 
z
" clip-path="url(#pbb5de69f85)" style="fill: none; stroke: #000000; stroke-width: 1.2; stroke-linejoin: miter"/>
   </g>
   <g id="patch_29">
    <path d="M 286.621492 195.593572 
C 292.572196 195.593572 298.279976 193.229332 302.487759 189.021549 
C 306.695542 184.813766 309.059782 179.105986 309.059782 173.155282 
C 309.059782 167.204578 306.695542 161.496799 302.487759 157.289015 
C 298.279976 153.081232 292.572196 150.716992 286.621492 150.716992 
C 280.670788 150.716992 274.963008 153.081232 270.755225 157.289015 
C 266.547442 161.496799 264.183202 167.204578 264.183202 173.155282 
C 264.183202 179.105986 266.547442 184.813766 270.755225 189.021549 
C 274.963008 193.229332 280.670788 195.593572 286.621492 195.593572 
L 286.621492 195.593572 
z
" clip-path="url(#pbb5de69f85)" style="fill: none; stroke: #000000; stroke-width: 1.2; stroke-linejoin: miter"/>
   </g>
   <g id="patch_30">
    <path d="M 335.400383 195.593572 
C 341.351087 195.593572 347.058867 193.229332 351.26665 189.021549 
C 355.474433 184.813766 357.838673 179.105986 357.838673 173.155282 
C 357.838673 167.204578 355.474433 161.496799 351.26665 157.289015 
C 347.058867 153.081232 341.351087 150.716992 335.400383 150.716992 
C 329.449679 150.716992 323.741899 153.081232 319.534116 157.289015 
C 315.326333 161.496799 312.962093 167.204578 312.962093 173.155282 
C 312.962093 179.105986 315.326333 184.813766 319.534116 189.021549 
C 323.741899 193.229332 329.449679 195.593572 335.400383 195.593572 
L 335.400383 195.593572 
z
" clip-path="url(#pbb5de69f85)" style="fill: none; stroke: #000000; stroke-width: 1.2; stroke-linejoin: miter"/>
   </g>
   <g id="patch_31">
    <path d="M 384.179274 195.593572 
C 390.129978 195.593572 395.837758 193.229332 400.045541 189.021549 
C 404.253324 184.813766 406.617564 179.105986 406.617564 173.155282 
C 406.617564 167.204578 404.253324 161.496799 400.045541 157.289015 
C 395.837758 153.081232 390.129978 150.716992 384.179274 150.716992 
C 378.22857 150.716992 372.52079 153.081232 368.313007 157.289015 
C 364.105224 161.496799 361.740984 167.204578 361.740984 173.155282 
C 361.740984 179.105986 364.105224 184.813766 368.313007 189.021549 
C 372.52079 193.229332 378.22857 195.593572 384.179274 195.593572 
L 384.179274 195.593572 
z
" clip-path="url(#pbb5de69f85)" style="fill: none; stroke: #000000; stroke-width: 1.2; stroke-linejoin: miter"/>
   </g>
   <g id="patch_32">
    <path d="M 432.958165 195.593572 
C 438.908869 195.593572 444.616649 193.229332 448.824432 189.021549 
C 453.032215 184.813766 455.396455 179.105986 455.396455 173.155282 
C 455.396455 167.204578 453.032215 161.496799 448.824432 157.289015 
C 444.616649 153.081232 438.908869 150.716992 432.958165 150.716992 
C 427.007461 150.716992 421.299681 153.081232 417.091898 157.289015 
C 412.884115 161.496799 410.519875 167.204578 410.519875 173.155282 
C 410.519875 179.105986 412.884115 184.813766 417.091898 189.021549 
C 421.299681 193.229332 427.007461 195.593572 432.958165 195.593572 
L 432.958165 195.593572 
z
" clip-path="url(#pbb5de69f85)" style="fill: none; stroke: #000000; stroke-width: 1.2; stroke-linejoin: miter"/>
   </g>
   <g id="patch_33">
    <path d="M 481.737056 195.593572 
C 487.68776 195.593572 493.39554 193.229332 497.603323 189.021549 
C 501.811106 184.813766 504.175346 179.105986 504.175346 173.155282 
C 504.175346 167.204578 501.811106 161.496799 497.603323 157.289015 
C 493.39554 153.081232 487.68776 150.716992 481.737056 150.716992 
C 475.786352 150.716992 470.078572 153.081232 465.870789 157.289015 
C 461.663006 161.496799 459.298766 167.204578 459.298766 173.155282 
C 459.298766 179.105986 461.663006 184.813766 465.870789 189.021549 
C 470.078572 193.229332 475.786352 195.593572 481.737056 195.593572 
L 481.737056 195.593572 
z
" clip-path="url(#pbb5de69f85)" style="fill: none; stroke: #000000; stroke-width: 1.2; stroke-linejoin: miter"/>
   </g>
   <g id="patch_34">
    <path d="M 115.895373 153.349813 
C 121.846077 153.349813 127.553857 150.985574 131.76164 146.77779 
C 135.969423 142.570007 138.333663 136.862227 138.333663 130.911523 
C 138.333663 124.960819 135.969423 119.25304 131.76164 115.045257 
C 127.553857 110.837473 121.846077 108.473234 115.895373 108.473234 
C 109.944669 108.473234 104.23689 110.837473 100.029106 115.045257 
C 95.821323 119.25304 93.457083 124.960819 93.457083 130.911523 
C 93.457083 136.862227 95.821323 142.570007 100.029106 146.77779 
C 104.23689 150.985574 109.944669 153.349813 115.895373 153.349813 
L 115.895373 153.349813 
z
" clip-path="url(#pbb5de69f85)" style="fill: none; stroke: #000000; stroke-width: 1.2; stroke-linejoin: miter"/>
   </g>
   <g id="patch_35">
    <path d="M 164.674264 153.349813 
C 170.624968 153.349813 176.332748 150.985574 180.540531 146.77779 
C 184.748314 142.570007 187.112554 136.862227 187.112554 130.911523 
C 187.112554 124.960819 184.748314 119.25304 180.540531 115.045257 
C 176.332748 110.837473 170.624968 108.473234 164.674264 108.473234 
C 158.72356 108.473234 153.015781 110.837473 148.807997 115.045257 
C 144.600214 119.25304 142.235974 124.960819 142.235974 130.911523 
C 142.235974 136.862227 144.600214 142.570007 148.807997 146.77779 
C 153.015781 150.985574 158.72356 153.349813 164.674264 153.349813 
L 164.674264 153.349813 
z
" clip-path="url(#pbb5de69f85)" style="fill: none; stroke: #000000; stroke-width: 1.2; stroke-linejoin: miter"/>
   </g>
   <g id="patch_36">
    <path d="M 213.453155 153.349813 
C 219.403859 153.349813 225.111639 150.985574 229.319422 146.77779 
C 233.527206 142.570007 235.891445 136.862227 235.891445 130.911523 
C 235.891445 124.960819 233.527206 119.25304 229.319422 115.045257 
C 225.111639 110.837473 219.403859 108.473234 213.453155 108.473234 
C 207.502451 108.473234 201.794672 110.837473 197.586888 115.045257 
C 193.379105 119.25304 191.014866 124.960819 191.014866 130.911523 
C 191.014866 136.862227 193.379105 142.570007 197.586888 146.77779 
C 201.794672 150.985574 207.502451 153.349813 213.453155 153.349813 
L 213.453155 153.349813 
z
" clip-path="url(#pbb5de69f85)" style="fill: none; stroke: #000000; stroke-width: 1.2; stroke-linejoin: miter"/>
   </g>
   <g id="patch_37">
    <path d="M 262.232046 153.349813 
C 268.18275 153.349813 273.89053 150.985574 278.098313 146.77779 
C 282.306097 142.570007 284.670336 136.862227 284.670336 130.911523 
C 284.670336 124.960819 282.306097 119.25304 278.098313 115.045257 
C 273.89053 110.837473 268.18275 108.473234 262.232046 108.473234 
C 256.281342 108.473234 250.573563 110.837473 246.36578 115.045257 
C 242.157996 119.25304 239.793757 124.960819 239.793757 130.911523 
C 239.793757 136.862227 242.157996 142.570007 246.36578 146.77779 
C 250.573563 150.985574 256.281342 153.349813 262.232046 153.349813 
L 262.232046 153.349813 
z
" clip-path="url(#pbb5de69f85)" style="fill: none; stroke: #000000; stroke-width: 1.2; stroke-linejoin: miter"/>
   </g>
   <g id="patch_38">
    <path d="M 311.010938 153.349813 
C 316.961642 153.349813 322.669421 150.985574 326.877204 146.77779 
C 331.084988 142.570007 333.449227 136.862227 333.449227 130.911523 
C 333.449227 124.960819 331.084988 119.25304 326.877204 115.045257 
C 322.669421 110.837473 316.961642 108.473234 311.010938 108.473234 
C 305.060233 108.473234 299.352454 110.837473 295.144671 115.045257 
C 290.936887 119.25304 288.572648 124.960819 288.572648 130.911523 
C 288.572648 136.862227 290.936887 142.570007 295.144671 146.77779 
C 299.352454 150.985574 305.060233 153.349813 311.010938 153.349813 
L 311.010938 153.349813 
z
" clip-path="url(#pbb5de69f85)" style="fill: none; stroke: #000000; stroke-width: 1.2; stroke-linejoin: miter"/>
   </g>
   <g id="patch_39">
    <path d="M 359.789829 153.349813 
C 365.740533 153.349813 371.448312 150.985574 375.656095 146.77779 
C 379.863879 142.570007 382.228118 136.862227 382.228118 130.911523 
C 382.228118 124.960819 379.863879 119.25304 375.656095 115.045257 
C 371.448312 110.837473 365.740533 108.473234 359.789829 108.473234 
C 353.839125 108.473234 348.131345 110.837473 343.923562 115.045257 
C 339.715778 119.25304 337.351539 124.960819 337.351539 130.911523 
C 337.351539 136.862227 339.715778 142.570007 343.923562 146.77779 
C 348.131345 150.985574 353.839125 153.349813 359.789829 153.349813 
L 359.789829 153.349813 
z
" clip-path="url(#pbb5de69f85)" style="fill: none; stroke: #000000; stroke-width: 1.2; stroke-linejoin: miter"/>
   </g>
   <g id="patch_40">
    <path d="M 408.56872 153.349813 
C 414.519424 153.349813 420.227203 150.985574 424.434987 146.77779 
C 428.64277 142.570007 431.007009 136.862227 431.007009 130.911523 
C 431.007009 124.960819 428.64277 119.25304 424.434987 115.045257 
C 420.227203 110.837473 414.519424 108.473234 408.56872 108.473234 
C 402.618016 108.473234 396.910236 110.837473 392.702453 115.045257 
C 388.494669 119.25304 386.13043 124.960819 386.13043 130.911523 
C 386.13043 136.862227 388.494669 142.570007 392.702453 146.77779 
C 396.910236 150.985574 402.618016 153.349813 408.56872 153.349813 
L 408.56872 153.349813 
z
" clip-path="url(#pbb5de69f85)" style="fill: none; stroke: #000000; stroke-width: 1.2; stroke-linejoin: miter"/>
   </g>
   <g id="patch_41">
    <path d="M 457.347611 153.349813 
C 463.298315 153.349813 469.006094 150.985574 473.213878 146.77779 
C 477.421661 142.570007 479.785901 136.862227 479.785901 130.911523 
C 479.785901 124.960819 477.421661 119.25304 473.213878 115.045257 
C 469.006094 110.837473 463.298315 108.473234 457.347611 108.473234 
C 451.396907 108.473234 445.689127 110.837473 441.481344 115.045257 
C 437.273561 119.25304 434.909321 124.960819 434.909321 130.911523 
C 434.909321 136.862227 437.273561 142.570007 441.481344 146.77779 
C 445.689127 150.985574 451.396907 153.349813 457.347611 153.349813 
L 457.347611 153.349813 
z
" clip-path="url(#pbb5de69f85)" style="fill: none; stroke: #000000; stroke-width: 1.2; stroke-linejoin: miter"/>
   </g>
   <g id="patch_42">
    <path d="M 140.284819 289.707617 
C 141.319724 289.707617 142.312381 289.296445 143.04417 288.564657 
C 143.775958 287.832868 144.18713 286.840211 144.18713 285.805306 
C 144.18713 284.770401 143.775958 283.777743 143.04417 283.045955 
C 142.312381 282.314167 141.319724 281.902994 140.284819 281.902994 
C 139.249914 281.902994 138.257256 282.314167 137.525468 283.045955 
C 136.79368 283.777743 136.382508 284.770401 136.382508 285.805306 
C 136.382508 286.840211 136.79368 287.832868 137.525468 288.564657 
C 138.257256 289.296445 139.249914 289.707617 140.284819 289.707617 
z
" clip-path="url(#pbb5de69f85)" style="fill: #1f77b4"/>
   </g>
   <g id="patch_43">
    <path d="M 140.284819 274.894681 
C 141.125679 274.894681 141.932213 274.560603 142.526791 273.966025 
C 143.121369 273.371447 143.455447 272.564913 143.455447 271.724053 
C 143.455447 270.883192 143.121369 270.076658 142.526791 269.48208 
C 141.932213 268.887502 141.125679 268.553425 140.284819 268.553425 
C 139.443958 268.553425 138.637424 268.887502 138.042846 269.48208 
C 137.448268 270.076658 137.114191 270.883192 137.114191 271.724053 
C 137.114191 272.564913 137.448268 273.371447 138.042846 273.966025 
C 138.637424 274.560603 139.443958 274.894681 140.284819 274.894681 
L 140.284819 274.894681 
z
" clip-path="url(#pbb5de69f85)" style="fill: none; stroke: #000000; stroke-width: 1.2; stroke-linejoin: miter"/>
   </g>
   <g id="patch_44">
    <path d="M 237.842601 289.707617 
C 238.877506 289.707617 239.870163 289.296445 240.601952 288.564657 
C 241.33374 287.832868 241.744912 286.840211 241.744912 285.805306 
C 241.744912 284.770401 241.33374 283.777743 240.601952 283.045955 
C 239.870163 282.314167 238.877506 281.902994 237.842601 281.902994 
C 236.807696 281.902994 235.815039 282.314167 235.08325 283.045955 
C 234.351462 283.777743 233.94029 284.770401 233.94029 285.805306 
C 233.94029 286.840211 234.351462 287.832868 235.08325 288.564657 
C 235.815039 289.296445 236.807696 289.707617 237.842601 289.707617 
z
" clip-path="url(#pbb5de69f85)" style="fill: #1f77b4"/>
   </g>
   <g id="patch_45">
    <path d="M 237.842601 274.894681 
C 238.683461 274.894681 239.489995 274.560603 240.084573 273.966025 
C 240.679151 273.371447 241.013229 272.564913 241.013229 271.724053 
C 241.013229 270.883192 240.679151 270.076658 240.084573 269.48208 
C 239.489995 268.887502 238.683461 268.553425 237.842601 268.553425 
C 237.001741 268.553425 236.195206 268.887502 235.600628 269.48208 
C 235.00605 270.076658 234.671973 270.883192 234.671973 271.724053 
C 234.671973 272.564913 235.00605 273.371447 235.600628 273.966025 
C 236.195206 274.560603 237.001741 274.894681 237.842601 274.894681 
L 237.842601 274.894681 
z
" clip-path="url(#pbb5de69f85)" style="fill: none; stroke: #000000; stroke-width: 1.2; stroke-linejoin: miter"/>
   </g>
   <g id="patch_46">
    <path d="M 335.400383 289.707617 
C 336.435288 289.707617 337.427945 289.296445 338.159734 288.564657 
C 338.891522 287.832868 339.302694 286.840211 339.302694 285.805306 
C 339.302694 284.770401 338.891522 283.777743 338.159734 283.045955 
C 337.427945 282.314167 336.435288 281.902994 335.400383 281.902994 
C 334.365478 281.902994 333.372821 282.314167 332.641032 283.045955 
C 331.909244 283.777743 331.498072 284.770401 331.498072 285.805306 
C 331.498072 286.840211 331.909244 287.832868 332.641032 288.564657 
C 333.372821 289.296445 334.365478 289.707617 335.400383 289.707617 
z
" clip-path="url(#pbb5de69f85)" style="fill: #1f77b4"/>
   </g>
   <g id="patch_47">
    <path d="M 335.400383 274.894681 
C 336.241243 274.894681 337.047777 274.560603 337.642356 273.966025 
C 338.236934 273.371447 338.571011 272.564913 338.571011 271.724053 
C 338.571011 270.883192 338.236934 270.076658 337.642356 269.48208 
C 337.047777 268.887502 336.241243 268.553425 335.400383 268.553425 
C 334.559523 268.553425 333.752989 268.887502 333.158411 269.48208 
C 332.563832 270.076658 332.229755 270.883192 332.229755 271.724053 
C 332.229755 272.564913 332.563832 273.371447 333.158411 273.966025 
C 333.752989 274.560603 334.559523 274.894681 335.400383 274.894681 
L 335.400383 274.894681 
z
" clip-path="url(#pbb5de69f85)" style="fill: none; stroke: #000000; stroke-width: 1.2; stroke-linejoin: miter"/>
   </g>
   <g id="patch_48">
    <path d="M 432.958165 289.707617 
C 433.99307 289.707617 434.985728 289.296445 435.717516 288.564657 
C 436.449304 287.832868 436.860476 286.840211 436.860476 285.805306 
C 436.860476 284.770401 436.449304 283.777743 435.717516 283.045955 
C 434.985728 282.314167 433.99307 281.902994 432.958165 281.902994 
C 431.92326 281.902994 430.930603 282.314167 430.198814 283.045955 
C 429.467026 283.777743 429.055854 284.770401 429.055854 285.805306 
C 429.055854 286.840211 429.467026 287.832868 430.198814 288.564657 
C 430.930603 289.296445 431.92326 289.707617 432.958165 289.707617 
z
" clip-path="url(#pbb5de69f85)" style="fill: #1f77b4"/>
   </g>
   <g id="patch_49">
    <path d="M 432.958165 274.894681 
C 433.799025 274.894681 434.60556 274.560603 435.200138 273.966025 
C 435.794716 273.371447 436.128793 272.564913 436.128793 271.724053 
C 436.128793 270.883192 435.794716 270.076658 435.200138 269.48208 
C 434.60556 268.887502 433.799025 268.553425 432.958165 268.553425 
C 432.117305 268.553425 431.310771 268.887502 430.716193 269.48208 
C 430.121615 270.076658 429.787537 270.883192 429.787537 271.724053 
C 429.787537 272.564913 430.121615 273.371447 430.716193 273.966025 
C 431.310771 274.560603 432.117305 274.894681 432.958165 274.894681 
L 432.958165 274.894681 
z
" clip-path="url(#pbb5de69f85)" style="fill: none; stroke: #000000; stroke-width: 1.2; stroke-linejoin: miter"/>
   </g>
   <g id="patch_50">
    <path d="M 213.453155 247.463858 
C 214.48806 247.463858 215.480718 247.052686 216.212506 246.320898 
C 216.944295 245.589109 217.355467 244.596452 217.355467 243.561547 
C 217.355467 242.526642 216.944295 241.533985 216.212506 240.802196 
C 215.480718 240.070408 214.48806 239.659236 213.453155 239.659236 
C 212.41825 239.659236 211.425593 240.070408 210.693805 240.802196 
C 209.962016 241.533985 209.550844 242.526642 209.550844 243.561547 
C 209.550844 244.596452 209.962016 245.589109 210.693805 246.320898 
C 211.425593 247.052686 212.41825 247.463858 213.453155 247.463858 
z
" clip-path="url(#pbb5de69f85)" style="fill: #1f77b4"/>
   </g>
   <g id="patch_51">
    <path d="M 213.453155 232.650922 
C 214.294016 232.650922 215.10055 232.316845 215.695128 231.722267 
C 216.289706 231.127688 216.623783 230.321154 216.623783 229.480294 
C 216.623783 228.639434 216.289706 227.8329 215.695128 227.238322 
C 215.10055 226.643743 214.294016 226.309666 213.453155 226.309666 
C 212.612295 226.309666 211.805761 226.643743 211.211183 227.238322 
C 210.616605 227.8329 210.282527 228.639434 210.282527 229.480294 
C 210.282527 230.321154 210.616605 231.127688 211.211183 231.722267 
C 211.805761 232.316845 212.612295 232.650922 213.453155 232.650922 
L 213.453155 232.650922 
z
" clip-path="url(#pbb5de69f85)" style="fill: none; stroke: #000000; stroke-width: 1.2; stroke-linejoin: miter"/>
   </g>
   <g id="patch_52">
    <path d="M 311.010938 247.463858 
C 312.045843 247.463858 313.0385 247.052686 313.770288 246.320898 
C 314.502077 245.589109 314.913249 244.596452 314.913249 243.561547 
C 314.913249 242.526642 314.502077 241.533985 313.770288 240.802196 
C 313.0385 240.070408 312.045843 239.659236 311.010938 239.659236 
C 309.976032 239.659236 308.983375 240.070408 308.251587 240.802196 
C 307.519798 241.533985 307.108626 242.526642 307.108626 243.561547 
C 307.108626 244.596452 307.519798 245.589109 308.251587 246.320898 
C 308.983375 247.052686 309.976032 247.463858 311.010938 247.463858 
z
" clip-path="url(#pbb5de69f85)" style="fill: #1f77b4"/>
   </g>
   <g id="patch_53">
    <path d="M 311.010938 232.650922 
C 311.851798 232.650922 312.658332 232.316845 313.25291 231.722267 
C 313.847488 231.127688 314.181565 230.321154 314.181565 229.480294 
C 314.181565 228.639434 313.847488 227.8329 313.25291 227.238322 
C 312.658332 226.643743 311.851798 226.309666 311.010938 226.309666 
C 310.170077 226.309666 309.363543 226.643743 308.768965 227.238322 
C 308.174387 227.8329 307.84031 228.639434 307.84031 229.480294 
C 307.84031 230.321154 308.174387 231.127688 308.768965 231.722267 
C 309.363543 232.316845 310.170077 232.650922 311.010938 232.650922 
L 311.010938 232.650922 
z
" clip-path="url(#pbb5de69f85)" style="fill: none; stroke: #000000; stroke-width: 1.2; stroke-linejoin: miter"/>
   </g>
   <g id="patch_54">
    <path d="M 408.56872 247.463858 
C 409.603625 247.463858 410.596282 247.052686 411.32807 246.320898 
C 412.059859 245.589109 412.471031 244.596452 412.471031 243.561547 
C 412.471031 242.526642 412.059859 241.533985 411.32807 240.802196 
C 410.596282 240.070408 409.603625 239.659236 408.56872 239.659236 
C 407.533815 239.659236 406.541157 240.070408 405.809369 240.802196 
C 405.07758 241.533985 404.666408 242.526642 404.666408 243.561547 
C 404.666408 244.596452 405.07758 245.589109 405.809369 246.320898 
C 406.541157 247.052686 407.533815 247.463858 408.56872 247.463858 
z
" clip-path="url(#pbb5de69f85)" style="fill: #1f77b4"/>
   </g>
   <g id="patch_55">
    <path d="M 408.56872 232.650922 
C 409.40958 232.650922 410.216114 232.316845 410.810692 231.722267 
C 411.40527 231.127688 411.739348 230.321154 411.739348 229.480294 
C 411.739348 228.639434 411.40527 227.8329 410.810692 227.238322 
C 410.216114 226.643743 409.40958 226.309666 408.56872 226.309666 
C 407.727859 226.309666 406.921325 226.643743 406.326747 227.238322 
C 405.732169 227.8329 405.398092 228.639434 405.398092 229.480294 
C 405.398092 230.321154 405.732169 231.127688 406.326747 231.722267 
C 406.921325 232.316845 407.727859 232.650922 408.56872 232.650922 
L 408.56872 232.650922 
z
" clip-path="url(#pbb5de69f85)" style="fill: none; stroke: #000000; stroke-width: 1.2; stroke-linejoin: miter"/>
   </g>
   <g id="patch_56">
    <path d="M 140.284819 205.220099 
C 141.319724 205.220099 142.312381 204.808927 143.04417 204.077139 
C 143.775958 203.345351 144.18713 202.352693 144.18713 201.317788 
C 144.18713 200.282883 143.775958 199.290226 143.04417 198.558437 
C 142.312381 197.826649 141.319724 197.415477 140.284819 197.415477 
C 139.249914 197.415477 138.257256 197.826649 137.525468 198.558437 
C 136.79368 199.290226 136.382508 200.282883 136.382508 201.317788 
C 136.382508 202.352693 136.79368 203.345351 137.525468 204.077139 
C 138.257256 204.808927 139.249914 205.220099 140.284819 205.220099 
z
" clip-path="url(#pbb5de69f85)" style="fill: #1f77b4"/>
   </g>
   <g id="patch_57">
    <path d="M 140.284819 190.407163 
C 141.125679 190.407163 141.932213 190.073086 142.526791 189.478508 
C 143.121369 188.88393 143.455447 188.077396 143.455447 187.236535 
C 143.455447 186.395675 143.121369 185.589141 142.526791 184.994563 
C 141.932213 184.399985 141.125679 184.065907 140.284819 184.065907 
C 139.443958 184.065907 138.637424 184.399985 138.042846 184.994563 
C 137.448268 185.589141 137.114191 186.395675 137.114191 187.236535 
C 137.114191 188.077396 137.448268 188.88393 138.042846 189.478508 
C 138.637424 190.073086 139.443958 190.407163 140.284819 190.407163 
L 140.284819 190.407163 
z
" clip-path="url(#pbb5de69f85)" style="fill: none; stroke: #000000; stroke-width: 1.2; stroke-linejoin: miter"/>
   </g>
   <g id="patch_58">
    <path d="M 237.842601 205.220099 
C 238.877506 205.220099 239.870163 204.808927 240.601952 204.077139 
C 241.33374 203.345351 241.744912 202.352693 241.744912 201.317788 
C 241.744912 200.282883 241.33374 199.290226 240.601952 198.558437 
C 239.870163 197.826649 238.877506 197.415477 237.842601 197.415477 
C 236.807696 197.415477 235.815039 197.826649 235.08325 198.558437 
C 234.351462 199.290226 233.94029 200.282883 233.94029 201.317788 
C 233.94029 202.352693 234.351462 203.345351 235.08325 204.077139 
C 235.815039 204.808927 236.807696 205.220099 237.842601 205.220099 
z
" clip-path="url(#pbb5de69f85)" style="fill: #1f77b4"/>
   </g>
   <g id="patch_59">
    <path d="M 237.842601 190.407163 
C 238.683461 190.407163 239.489995 190.073086 240.084573 189.478508 
C 240.679151 188.88393 241.013229 188.077396 241.013229 187.236535 
C 241.013229 186.395675 240.679151 185.589141 240.084573 184.994563 
C 239.489995 184.399985 238.683461 184.065907 237.842601 184.065907 
C 237.001741 184.065907 236.195206 184.399985 235.600628 184.994563 
C 235.00605 185.589141 234.671973 186.395675 234.671973 187.236535 
C 234.671973 188.077396 235.00605 188.88393 235.600628 189.478508 
C 236.195206 190.073086 237.001741 190.407163 237.842601 190.407163 
L 237.842601 190.407163 
z
" clip-path="url(#pbb5de69f85)" style="fill: none; stroke: #000000; stroke-width: 1.2; stroke-linejoin: miter"/>
   </g>
   <g id="patch_60">
    <path d="M 335.400383 205.220099 
C 336.435288 205.220099 337.427945 204.808927 338.159734 204.077139 
C 338.891522 203.345351 339.302694 202.352693 339.302694 201.317788 
C 339.302694 200.282883 338.891522 199.290226 338.159734 198.558437 
C 337.427945 197.826649 336.435288 197.415477 335.400383 197.415477 
C 334.365478 197.415477 333.372821 197.826649 332.641032 198.558437 
C 331.909244 199.290226 331.498072 200.282883 331.498072 201.317788 
C 331.498072 202.352693 331.909244 203.345351 332.641032 204.077139 
C 333.372821 204.808927 334.365478 205.220099 335.400383 205.220099 
z
" clip-path="url(#pbb5de69f85)" style="fill: #1f77b4"/>
   </g>
   <g id="patch_61">
    <path d="M 335.400383 190.407163 
C 336.241243 190.407163 337.047777 190.073086 337.642356 189.478508 
C 338.236934 188.88393 338.571011 188.077396 338.571011 187.236535 
C 338.571011 186.395675 338.236934 185.589141 337.642356 184.994563 
C 337.047777 184.399985 336.241243 184.065907 335.400383 184.065907 
C 334.559523 184.065907 333.752989 184.399985 333.158411 184.994563 
C 332.563832 185.589141 332.229755 186.395675 332.229755 187.236535 
C 332.229755 188.077396 332.563832 188.88393 333.158411 189.478508 
C 333.752989 190.073086 334.559523 190.407163 335.400383 190.407163 
L 335.400383 190.407163 
z
" clip-path="url(#pbb5de69f85)" style="fill: none; stroke: #000000; stroke-width: 1.2; stroke-linejoin: miter"/>
   </g>
   <g id="patch_62">
    <path d="M 432.958165 205.220099 
C 433.99307 205.220099 434.985728 204.808927 435.717516 204.077139 
C 436.449304 203.345351 436.860476 202.352693 436.860476 201.317788 
C 436.860476 200.282883 436.449304 199.290226 435.717516 198.558437 
C 434.985728 197.826649 433.99307 197.415477 432.958165 197.415477 
C 431.92326 197.415477 430.930603 197.826649 430.198814 198.558437 
C 429.467026 199.290226 429.055854 200.282883 429.055854 201.317788 
C 429.055854 202.352693 429.467026 203.345351 430.198814 204.077139 
C 430.930603 204.808927 431.92326 205.220099 432.958165 205.220099 
z
" clip-path="url(#pbb5de69f85)" style="fill: #1f77b4"/>
   </g>
   <g id="patch_63">
    <path d="M 432.958165 190.407163 
C 433.799025 190.407163 434.60556 190.073086 435.200138 189.478508 
C 435.794716 188.88393 436.128793 188.077396 436.128793 187.236535 
C 436.128793 186.395675 435.794716 185.589141 435.200138 184.994563 
C 434.60556 184.399985 433.799025 184.065907 432.958165 184.065907 
C 432.117305 184.065907 431.310771 184.399985 430.716193 184.994563 
C 430.121615 185.589141 429.787537 186.395675 429.787537 187.236535 
C 429.787537 188.077396 430.121615 188.88393 430.716193 189.478508 
C 431.310771 190.073086 432.117305 190.407163 432.958165 190.407163 
L 432.958165 190.407163 
z
" clip-path="url(#pbb5de69f85)" style="fill: none; stroke: #000000; stroke-width: 1.2; stroke-linejoin: miter"/>
   </g>
   <g id="patch_64">
    <path d="M 213.453155 162.976341 
C 214.48806 162.976341 215.480718 162.565168 216.212506 161.83338 
C 216.944295 161.101592 217.355467 160.108934 217.355467 159.074029 
C 217.355467 158.039124 216.944295 157.046467 216.212506 156.314679 
C 215.480718 155.58289 214.48806 155.171718 213.453155 155.171718 
C 212.41825 155.171718 211.425593 155.58289 210.693805 156.314679 
C 209.962016 157.046467 209.550844 158.039124 209.550844 159.074029 
C 209.550844 160.108934 209.962016 161.101592 210.693805 161.83338 
C 211.425593 162.565168 212.41825 162.976341 213.453155 162.976341 
z
" clip-path="url(#pbb5de69f85)" style="fill: #1f77b4"/>
   </g>
   <g id="patch_65">
    <path d="M 213.453155 148.163404 
C 214.294016 148.163404 215.10055 147.829327 215.695128 147.234749 
C 216.289706 146.640171 216.623783 145.833637 216.623783 144.992776 
C 216.623783 144.151916 216.289706 143.345382 215.695128 142.750804 
C 215.10055 142.156226 214.294016 141.822148 213.453155 141.822148 
C 212.612295 141.822148 211.805761 142.156226 211.211183 142.750804 
C 210.616605 143.345382 210.282527 144.151916 210.282527 144.992776 
C 210.282527 145.833637 210.616605 146.640171 211.211183 147.234749 
C 211.805761 147.829327 212.612295 148.163404 213.453155 148.163404 
L 213.453155 148.163404 
z
" clip-path="url(#pbb5de69f85)" style="fill: none; stroke: #000000; stroke-width: 1.2; stroke-linejoin: miter"/>
   </g>
   <g id="patch_66">
    <path d="M 311.010938 162.976341 
C 312.045843 162.976341 313.0385 162.565168 313.770288 161.83338 
C 314.502077 161.101592 314.913249 160.108934 314.913249 159.074029 
C 314.913249 158.039124 314.502077 157.046467 313.770288 156.314679 
C 313.0385 155.58289 312.045843 155.171718 311.010938 155.171718 
C 309.976032 155.171718 308.983375 155.58289 308.251587 156.314679 
C 307.519798 157.046467 307.108626 158.039124 307.108626 159.074029 
C 307.108626 160.108934 307.519798 161.101592 308.251587 161.83338 
C 308.983375 162.565168 309.976032 162.976341 311.010938 162.976341 
z
" clip-path="url(#pbb5de69f85)" style="fill: #1f77b4"/>
   </g>
   <g id="patch_67">
    <path d="M 311.010938 148.163404 
C 311.851798 148.163404 312.658332 147.829327 313.25291 147.234749 
C 313.847488 146.640171 314.181565 145.833637 314.181565 144.992776 
C 314.181565 144.151916 313.847488 143.345382 313.25291 142.750804 
C 312.658332 142.156226 311.851798 141.822148 311.010938 141.822148 
C 310.170077 141.822148 309.363543 142.156226 308.768965 142.750804 
C 308.174387 143.345382 307.84031 144.151916 307.84031 144.992776 
C 307.84031 145.833637 308.174387 146.640171 308.768965 147.234749 
C 309.363543 147.829327 310.170077 148.163404 311.010938 148.163404 
L 311.010938 148.163404 
z
" clip-path="url(#pbb5de69f85)" style="fill: none; stroke: #000000; stroke-width: 1.2; stroke-linejoin: miter"/>
   </g>
   <g id="patch_68">
    <path d="M 408.56872 162.976341 
C 409.603625 162.976341 410.596282 162.565168 411.32807 161.83338 
C 412.059859 161.101592 412.471031 160.108934 412.471031 159.074029 
C 412.471031 158.039124 412.059859 157.046467 411.32807 156.314679 
C 410.596282 155.58289 409.603625 155.171718 408.56872 155.171718 
C 407.533815 155.171718 406.541157 155.58289 405.809369 156.314679 
C 405.07758 157.046467 404.666408 158.039124 404.666408 159.074029 
C 404.666408 160.108934 405.07758 161.101592 405.809369 161.83338 
C 406.541157 162.565168 407.533815 162.976341 408.56872 162.976341 
z
" clip-path="url(#pbb5de69f85)" style="fill: #1f77b4"/>
   </g>
   <g id="patch_69">
    <path d="M 408.56872 148.163404 
C 409.40958 148.163404 410.216114 147.829327 410.810692 147.234749 
C 411.40527 146.640171 411.739348 145.833637 411.739348 144.992776 
C 411.739348 144.151916 411.40527 143.345382 410.810692 142.750804 
C 410.216114 142.156226 409.40958 141.822148 408.56872 141.822148 
C 407.727859 141.822148 406.921325 142.156226 406.326747 142.750804 
C 405.732169 143.345382 405.398092 144.151916 405.398092 144.992776 
C 405.398092 145.833637 405.732169 146.640171 406.326747 147.234749 
C 406.921325 147.829327 407.727859 148.163404 408.56872 148.163404 
L 408.56872 148.163404 
z
" clip-path="url(#pbb5de69f85)" style="fill: none; stroke: #000000; stroke-width: 1.2; stroke-linejoin: miter"/>
   </g>
   <g id="text_1">
    <!-- A -->
    <g transform="translate(112.817092 302.369996) scale(0.09 -0.09)">
     <defs>
      <path id="DejaVuSans-41" d="M 2188 4044 
L 1331 1722 
L 3047 1722 
L 2188 4044 
z
M 1831 4666 
L 2547 4666 
L 4325 0 
L 3669 0 
L 3244 1197 
L 1141 1197 
L 716 0 
L 50 0 
L 1831 4666 
z
" transform="scale(0.015625)"/>
     </defs>
     <use xlink:href="#DejaVuSans-41"/>
    </g>
   </g>
   <g id="text_2">
    <!-- A -->
    <g transform="translate(161.595983 302.369996) scale(0.09 -0.09)">
     <use xlink:href="#DejaVuSans-41"/>
    </g>
   </g>
   <g id="text_3">
    <!-- A -->
    <g transform="translate(210.374874 302.369996) scale(0.09 -0.09)">
     <use xlink:href="#DejaVuSans-41"/>
    </g>
   </g>
   <g id="text_4">
    <!-- A -->
    <g transform="translate(259.153765 302.369996) scale(0.09 -0.09)">
     <use xlink:href="#DejaVuSans-41"/>
    </g>
   </g>
   <g id="text_5">
    <!-- A -->
    <g transform="translate(307.932656 302.369996) scale(0.09 -0.09)">
     <use xlink:href="#DejaVuSans-41"/>
    </g>
   </g>
   <g id="text_6">
    <!-- A -->
    <g transform="translate(356.711547 302.369996) scale(0.09 -0.09)">
     <use xlink:href="#DejaVuSans-41"/>
    </g>
   </g>
   <g id="text_7">
    <!-- A -->
    <g transform="translate(405.490438 302.369996) scale(0.09 -0.09)">
     <use xlink:href="#DejaVuSans-41"/>
    </g>
   </g>
   <g id="text_8">
    <!-- A -->
    <g transform="translate(454.269329 302.369996) scale(0.09 -0.09)">
     <use xlink:href="#DejaVuSans-41"/>
    </g>
   </g>
   <g id="text_9">
    <!-- A -->
    <g transform="translate(137.206538 260.126237) scale(0.09 -0.09)">
     <use xlink:href="#DejaVuSans-41"/>
    </g>
   </g>
   <g id="text_10">
    <!-- A -->
    <g transform="translate(185.985429 260.126237) scale(0.09 -0.09)">
     <use xlink:href="#DejaVuSans-41"/>
    </g>
   </g>
   <g id="text_11">
    <!-- A -->
    <g transform="translate(234.76432 260.126237) scale(0.09 -0.09)">
     <use xlink:href="#DejaVuSans-41"/>
    </g>
   </g>
   <g id="text_12">
    <!-- A -->
    <g transform="translate(283.543211 260.126237) scale(0.09 -0.09)">
     <use xlink:href="#DejaVuSans-41"/>
    </g>
   </g>
   <g id="text_13">
    <!-- A -->
    <g transform="translate(332.322102 260.126237) scale(0.09 -0.09)">
     <use xlink:href="#DejaVuSans-41"/>
    </g>
   </g>
   <g id="text_14">
    <!-- A -->
    <g transform="translate(381.100993 260.126237) scale(0.09 -0.09)">
     <use xlink:href="#DejaVuSans-41"/>
    </g>
   </g>
   <g id="text_15">
    <!-- A -->
    <g transform="translate(429.879884 260.126237) scale(0.09 -0.09)">
     <use xlink:href="#DejaVuSans-41"/>
    </g>
   </g>
   <g id="text_16">
    <!-- A -->
    <g transform="translate(478.658775 260.126237) scale(0.09 -0.09)">
     <use xlink:href="#DejaVuSans-41"/>
    </g>
   </g>
   <g id="text_17">
    <!-- A -->
    <g transform="translate(112.817092 217.882479) scale(0.09 -0.09)">
     <use xlink:href="#DejaVuSans-41"/>
    </g>
   </g>
   <g id="text_18">
    <!-- A -->
    <g transform="translate(161.595983 217.882479) scale(0.09 -0.09)">
     <use xlink:href="#DejaVuSans-41"/>
    </g>
   </g>
   <g id="text_19">
    <!-- A -->
    <g transform="translate(210.374874 217.882479) scale(0.09 -0.09)">
     <use xlink:href="#DejaVuSans-41"/>
    </g>
   </g>
   <g id="text_20">
    <!-- A -->
    <g transform="translate(259.153765 217.882479) scale(0.09 -0.09)">
     <use xlink:href="#DejaVuSans-41"/>
    </g>
   </g>
   <g id="text_21">
    <!-- A -->
    <g transform="translate(307.932656 217.882479) scale(0.09 -0.09)">
     <use xlink:href="#DejaVuSans-41"/>
    </g>
   </g>
   <g id="text_22">
    <!-- A -->
    <g transform="translate(356.711547 217.882479) scale(0.09 -0.09)">
     <use xlink:href="#DejaVuSans-41"/>
    </g>
   </g>
   <g id="text_23">
    <!-- A -->
    <g transform="translate(405.490438 217.882479) scale(0.09 -0.09)">
     <use xlink:href="#DejaVuSans-41"/>
    </g>
   </g>
   <g id="text_24">
    <!-- A -->
    <g transform="translate(454.269329 217.882479) scale(0.09 -0.09)">
     <use xlink:href="#DejaVuSans-41"/>
    </g>
   </g>
   <g id="text_25">
    <!-- A -->
    <g transform="translate(137.206538 175.63872) scale(0.09 -0.09)">
     <use xlink:href="#DejaVuSans-41"/>
    </g>
   </g>
   <g id="text_26">
    <!-- A -->
    <g transform="translate(185.985429 175.63872) scale(0.09 -0.09)">
     <use xlink:href="#DejaVuSans-41"/>
    </g>
   </g>
   <g id="text_27">
    <!-- A -->
    <g transform="translate(234.76432 175.63872) scale(0.09 -0.09)">
     <use xlink:href="#DejaVuSans-41"/>
    </g>
   </g>
   <g id="text_28">
    <!-- A -->
    <g transform="translate(283.543211 175.63872) scale(0.09 -0.09)">
     <use xlink:href="#DejaVuSans-41"/>
    </g>
   </g>
   <g id="text_29">
    <!-- A -->
    <g transform="translate(332.322102 175.63872) scale(0.09 -0.09)">
     <use xlink:href="#DejaVuSans-41"/>
    </g>
   </g>
   <g id="text_30">
    <!-- A -->
    <g transform="translate(381.100993 175.63872) scale(0.09 -0.09)">
     <use xlink:href="#DejaVuSans-41"/>
    </g>
   </g>
   <g id="text_31">
    <!-- A -->
    <g transform="translate(429.879884 175.63872) scale(0.09 -0.09)">
     <use xlink:href="#DejaVuSans-41"/>
    </g>
   </g>
   <g id="text_32">
    <!-- A -->
    <g transform="translate(478.658775 175.63872) scale(0.09 -0.09)">
     <use xlink:href="#DejaVuSans-41"/>
    </g>
   </g>
   <g id="text_33">
    <!-- A -->
    <g transform="translate(112.817092 133.394961) scale(0.09 -0.09)">
     <use xlink:href="#DejaVuSans-41"/>
    </g>
   </g>
   <g id="text_34">
    <!-- A -->
    <g transform="translate(161.595983 133.394961) scale(0.09 -0.09)">
     <use xlink:href="#DejaVuSans-41"/>
    </g>
   </g>
   <g id="text_35">
    <!-- A -->
    <g transform="translate(210.374874 133.394961) scale(0.09 -0.09)">
     <use xlink:href="#DejaVuSans-41"/>
    </g>
   </g>
   <g id="text_36">
    <!-- A -->
    <g transform="translate(259.153765 133.394961) scale(0.09 -0.09)">
     <use xlink:href="#DejaVuSans-41"/>
    </g>
   </g>
   <g id="text_37">
    <!-- A -->
    <g transform="translate(307.932656 133.394961) scale(0.09 -0.09)">
     <use xlink:href="#DejaVuSans-41"/>
    </g>
   </g>
   <g id="text_38">
    <!-- A -->
    <g transform="translate(356.711547 133.394961) scale(0.09 -0.09)">
     <use xlink:href="#DejaVuSans-41"/>
    </g>
   </g>
   <g id="text_39">
    <!-- A -->
    <g transform="translate(405.490438 133.394961) scale(0.09 -0.09)">
     <use xlink:href="#DejaVuSans-41"/>
    </g>
   </g>
   <g id="text_40">
    <!-- A -->
    <g transform="translate(454.269329 133.394961) scale(0.09 -0.09)">
     <use xlink:href="#DejaVuSans-41"/>
    </g>
   </g>
   <g id="text_41">
    <!-- B -->
    <g transform="translate(147.253232 283.482501) scale(0.08 -0.08)">
     <defs>
      <path id="DejaVuSans-42" d="M 1259 2228 
L 1259 519 
L 2272 519 
Q 2781 519 3026 730 
Q 3272 941 3272 1375 
Q 3272 1813 3026 2020 
Q 2781 2228 2272 2228 
L 1259 2228 
z
M 1259 4147 
L 1259 2741 
L 2194 2741 
Q 2656 2741 2882 2914 
Q 3109 3088 3109 3444 
Q 3109 3797 2882 3972 
Q 2656 4147 2194 4147 
L 1259 4147 
z
M 628 4666 
L 2241 4666 
Q 2963 4666 3353 4366 
Q 3744 4066 3744 3513 
Q 3744 3084 3544 2831 
Q 3344 2578 2956 2516 
Q 3422 2416 3680 2098 
Q 3938 1781 3938 1306 
Q 3938 681 3513 340 
Q 3088 0 2303 0 
L 628 0 
L 628 4666 
z
" transform="scale(0.015625)"/>
     </defs>
     <use xlink:href="#DejaVuSans-42"/>
    </g>
   </g>
   <g id="text_42">
    <!-- C -->
    <g transform="translate(147.253232 269.401248) scale(0.08 -0.08)">
     <defs>
      <path id="DejaVuSans-43" d="M 4122 4306 
L 4122 3641 
Q 3803 3938 3442 4084 
Q 3081 4231 2675 4231 
Q 1875 4231 1450 3742 
Q 1025 3253 1025 2328 
Q 1025 1406 1450 917 
Q 1875 428 2675 428 
Q 3081 428 3442 575 
Q 3803 722 4122 1019 
L 4122 359 
Q 3791 134 3420 21 
Q 3050 -91 2638 -91 
Q 1578 -91 968 557 
Q 359 1206 359 2328 
Q 359 3453 968 4101 
Q 1578 4750 2638 4750 
Q 3056 4750 3426 4639 
Q 3797 4528 4122 4306 
z
" transform="scale(0.015625)"/>
     </defs>
     <use xlink:href="#DejaVuSans-43"/>
    </g>
   </g>
   <g id="text_43">
    <!-- B -->
    <g transform="translate(244.811014 283.482501) scale(0.08 -0.08)">
     <use xlink:href="#DejaVuSans-42"/>
    </g>
   </g>
   <g id="text_44">
    <!-- C -->
    <g transform="translate(244.811014 269.401248) scale(0.08 -0.08)">
     <use xlink:href="#DejaVuSans-43"/>
    </g>
   </g>
   <g id="text_45">
    <!-- B -->
    <g transform="translate(342.368796 283.482501) scale(0.08 -0.08)">
     <use xlink:href="#DejaVuSans-42"/>
    </g>
   </g>
   <g id="text_46">
    <!-- C -->
    <g transform="translate(342.368796 269.401248) scale(0.08 -0.08)">
     <use xlink:href="#DejaVuSans-43"/>
    </g>
   </g>
   <g id="text_47">
    <!-- B -->
    <g transform="translate(439.926578 283.482501) scale(0.08 -0.08)">
     <use xlink:href="#DejaVuSans-42"/>
    </g>
   </g>
   <g id="text_48">
    <!-- C -->
    <g transform="translate(439.926578 269.401248) scale(0.08 -0.08)">
     <use xlink:href="#DejaVuSans-43"/>
    </g>
   </g>
   <g id="text_49">
    <!-- B -->
    <g transform="translate(220.421568 241.238743) scale(0.08 -0.08)">
     <use xlink:href="#DejaVuSans-42"/>
    </g>
   </g>
   <g id="text_50">
    <!-- C -->
    <g transform="translate(220.421568 227.15749) scale(0.08 -0.08)">
     <use xlink:href="#DejaVuSans-43"/>
    </g>
   </g>
   <g id="text_51">
    <!-- B -->
    <g transform="translate(317.979351 241.238743) scale(0.08 -0.08)">
     <use xlink:href="#DejaVuSans-42"/>
    </g>
   </g>
   <g id="text_52">
    <!-- C -->
    <g transform="translate(317.979351 227.15749) scale(0.08 -0.08)">
     <use xlink:href="#DejaVuSans-43"/>
    </g>
   </g>
   <g id="text_53">
    <!-- B -->
    <g transform="translate(415.537133 241.238743) scale(0.08 -0.08)">
     <use xlink:href="#DejaVuSans-42"/>
    </g>
   </g>
   <g id="text_54">
    <!-- C -->
    <g transform="translate(415.537133 227.15749) scale(0.08 -0.08)">
     <use xlink:href="#DejaVuSans-43"/>
    </g>
   </g>
   <g id="text_55">
    <!-- B -->
    <g transform="translate(147.253232 198.994984) scale(0.08 -0.08)">
     <use xlink:href="#DejaVuSans-42"/>
    </g>
   </g>
   <g id="text_56">
    <!-- C -->
    <g transform="translate(147.253232 184.913731) scale(0.08 -0.08)">
     <use xlink:href="#DejaVuSans-43"/>
    </g>
   </g>
   <g id="text_57">
    <!-- B -->
    <g transform="translate(244.811014 198.994984) scale(0.08 -0.08)">
     <use xlink:href="#DejaVuSans-42"/>
    </g>
   </g>
   <g id="text_58">
    <!-- C -->
    <g transform="translate(244.811014 184.913731) scale(0.08 -0.08)">
     <use xlink:href="#DejaVuSans-43"/>
    </g>
   </g>
   <g id="text_59">
    <!-- B -->
    <g transform="translate(342.368796 198.994984) scale(0.08 -0.08)">
     <use xlink:href="#DejaVuSans-42"/>
    </g>
   </g>
   <g id="text_60">
    <!-- C -->
    <g transform="translate(342.368796 184.913731) scale(0.08 -0.08)">
     <use xlink:href="#DejaVuSans-43"/>
    </g>
   </g>
   <g id="text_61">
    <!-- B -->
    <g transform="translate(439.926578 198.994984) scale(0.08 -0.08)">
     <use xlink:href="#DejaVuSans-42"/>
    </g>
   </g>
   <g id="text_62">
    <!-- C -->
    <g transform="translate(439.926578 184.913731) scale(0.08 -0.08)">
     <use xlink:href="#DejaVuSans-43"/>
    </g>
   </g>
   <g id="text_63">
    <!-- B -->
    <g transform="translate(220.421568 156.751225) scale(0.08 -0.08)">
     <use xlink:href="#DejaVuSans-42"/>
    </g>
   </g>
   <g id="text_64">
    <!-- C -->
    <g transform="translate(220.421568 142.669972) scale(0.08 -0.08)">
     <use xlink:href="#DejaVuSans-43"/>
    </g>
   </g>
   <g id="text_65">
    <!-- B -->
    <g transform="translate(317.979351 156.751225) scale(0.08 -0.08)">
     <use xlink:href="#DejaVuSans-42"/>
    </g>
   </g>
   <g id="text_66">
    <!-- C -->
    <g transform="translate(317.979351 142.669972) scale(0.08 -0.08)">
     <use xlink:href="#DejaVuSans-43"/>
    </g>
   </g>
   <g id="text_67">
    <!-- B -->
    <g transform="translate(415.537133 156.751225) scale(0.08 -0.08)">
     <use xlink:href="#DejaVuSans-42"/>
    </g>
   </g>
   <g id="text_68">
    <!-- C -->
    <g transform="translate(415.537133 142.669972) scale(0.08 -0.08)">
     <use xlink:href="#DejaVuSans-43"/>
    </g>
   </g>
   <g id="patch_70">
    <path d="M 122.089367 96.577154 
Q 159.087929 152.392497 195.345221 207.089573 
" style="fill: none; stroke: #000000; stroke-width: 1.2; stroke-linecap: round"/>
    <path d="M 194.802193 202.650528 
L 195.345221 207.089573 
L 191.468168 204.860568 
" style="fill: none; stroke: #000000; stroke-width: 1.2; stroke-linecap: round"/>
   </g>
   <g id="text_69">
    <!-- secondo strato: siti B -->
    <g transform="translate(63.632276 90.834169) scale(0.1 -0.1)">
     <defs>
      <path id="DejaVuSans-73" d="M 2834 3397 
L 2834 2853 
Q 2591 2978 2328 3040 
Q 2066 3103 1784 3103 
Q 1356 3103 1142 2972 
Q 928 2841 928 2578 
Q 928 2378 1081 2264 
Q 1234 2150 1697 2047 
L 1894 2003 
Q 2506 1872 2764 1633 
Q 3022 1394 3022 966 
Q 3022 478 2636 193 
Q 2250 -91 1575 -91 
Q 1294 -91 989 -36 
Q 684 19 347 128 
L 347 722 
Q 666 556 975 473 
Q 1284 391 1588 391 
Q 1994 391 2212 530 
Q 2431 669 2431 922 
Q 2431 1156 2273 1281 
Q 2116 1406 1581 1522 
L 1381 1569 
Q 847 1681 609 1914 
Q 372 2147 372 2553 
Q 372 3047 722 3315 
Q 1072 3584 1716 3584 
Q 2034 3584 2315 3537 
Q 2597 3491 2834 3397 
z
" transform="scale(0.015625)"/>
      <path id="DejaVuSans-65" d="M 3597 1894 
L 3597 1613 
L 953 1613 
Q 991 1019 1311 708 
Q 1631 397 2203 397 
Q 2534 397 2845 478 
Q 3156 559 3463 722 
L 3463 178 
Q 3153 47 2828 -22 
Q 2503 -91 2169 -91 
Q 1331 -91 842 396 
Q 353 884 353 1716 
Q 353 2575 817 3079 
Q 1281 3584 2069 3584 
Q 2775 3584 3186 3129 
Q 3597 2675 3597 1894 
z
M 3022 2063 
Q 3016 2534 2758 2815 
Q 2500 3097 2075 3097 
Q 1594 3097 1305 2825 
Q 1016 2553 972 2059 
L 3022 2063 
z
" transform="scale(0.015625)"/>
      <path id="DejaVuSans-63" d="M 3122 3366 
L 3122 2828 
Q 2878 2963 2633 3030 
Q 2388 3097 2138 3097 
Q 1578 3097 1268 2742 
Q 959 2388 959 1747 
Q 959 1106 1268 751 
Q 1578 397 2138 397 
Q 2388 397 2633 464 
Q 2878 531 3122 666 
L 3122 134 
Q 2881 22 2623 -34 
Q 2366 -91 2075 -91 
Q 1284 -91 818 406 
Q 353 903 353 1747 
Q 353 2603 823 3093 
Q 1294 3584 2113 3584 
Q 2378 3584 2631 3529 
Q 2884 3475 3122 3366 
z
" transform="scale(0.015625)"/>
      <path id="DejaVuSans-6f" d="M 1959 3097 
Q 1497 3097 1228 2736 
Q 959 2375 959 1747 
Q 959 1119 1226 758 
Q 1494 397 1959 397 
Q 2419 397 2687 759 
Q 2956 1122 2956 1747 
Q 2956 2369 2687 2733 
Q 2419 3097 1959 3097 
z
M 1959 3584 
Q 2709 3584 3137 3096 
Q 3566 2609 3566 1747 
Q 3566 888 3137 398 
Q 2709 -91 1959 -91 
Q 1206 -91 779 398 
Q 353 888 353 1747 
Q 353 2609 779 3096 
Q 1206 3584 1959 3584 
z
" transform="scale(0.015625)"/>
      <path id="DejaVuSans-6e" d="M 3513 2113 
L 3513 0 
L 2938 0 
L 2938 2094 
Q 2938 2591 2744 2837 
Q 2550 3084 2163 3084 
Q 1697 3084 1428 2787 
Q 1159 2491 1159 1978 
L 1159 0 
L 581 0 
L 581 3500 
L 1159 3500 
L 1159 2956 
Q 1366 3272 1645 3428 
Q 1925 3584 2291 3584 
Q 2894 3584 3203 3211 
Q 3513 2838 3513 2113 
z
" transform="scale(0.015625)"/>
      <path id="DejaVuSans-64" d="M 2906 2969 
L 2906 4863 
L 3481 4863 
L 3481 0 
L 2906 0 
L 2906 525 
Q 2725 213 2448 61 
Q 2172 -91 1784 -91 
Q 1150 -91 751 415 
Q 353 922 353 1747 
Q 353 2572 751 3078 
Q 1150 3584 1784 3584 
Q 2172 3584 2448 3432 
Q 2725 3281 2906 2969 
z
M 947 1747 
Q 947 1113 1208 752 
Q 1469 391 1925 391 
Q 2381 391 2643 752 
Q 2906 1113 2906 1747 
Q 2906 2381 2643 2742 
Q 2381 3103 1925 3103 
Q 1469 3103 1208 2742 
Q 947 2381 947 1747 
z
" transform="scale(0.015625)"/>
      <path id="DejaVuSans-20" transform="scale(0.015625)"/>
      <path id="DejaVuSans-74" d="M 1172 4494 
L 1172 3500 
L 2356 3500 
L 2356 3053 
L 1172 3053 
L 1172 1153 
Q 1172 725 1289 603 
Q 1406 481 1766 481 
L 2356 481 
L 2356 0 
L 1766 0 
Q 1100 0 847 248 
Q 594 497 594 1153 
L 594 3053 
L 172 3053 
L 172 3500 
L 594 3500 
L 594 4494 
L 1172 4494 
z
" transform="scale(0.015625)"/>
      <path id="DejaVuSans-72" d="M 2631 2963 
Q 2534 3019 2420 3045 
Q 2306 3072 2169 3072 
Q 1681 3072 1420 2755 
Q 1159 2438 1159 1844 
L 1159 0 
L 581 0 
L 581 3500 
L 1159 3500 
L 1159 2956 
Q 1341 3275 1631 3429 
Q 1922 3584 2338 3584 
Q 2397 3584 2469 3576 
Q 2541 3569 2628 3553 
L 2631 2963 
z
" transform="scale(0.015625)"/>
      <path id="DejaVuSans-61" d="M 2194 1759 
Q 1497 1759 1228 1600 
Q 959 1441 959 1056 
Q 959 750 1161 570 
Q 1363 391 1709 391 
Q 2188 391 2477 730 
Q 2766 1069 2766 1631 
L 2766 1759 
L 2194 1759 
z
M 3341 1997 
L 3341 0 
L 2766 0 
L 2766 531 
Q 2569 213 2275 61 
Q 1981 -91 1556 -91 
Q 1019 -91 701 211 
Q 384 513 384 1019 
Q 384 1609 779 1909 
Q 1175 2209 1959 2209 
L 2766 2209 
L 2766 2266 
Q 2766 2663 2505 2880 
Q 2244 3097 1772 3097 
Q 1472 3097 1187 3025 
Q 903 2953 641 2809 
L 641 3341 
Q 956 3463 1253 3523 
Q 1550 3584 1831 3584 
Q 2591 3584 2966 3190 
Q 3341 2797 3341 1997 
z
" transform="scale(0.015625)"/>
      <path id="DejaVuSans-3a" d="M 750 794 
L 1409 794 
L 1409 0 
L 750 0 
L 750 794 
z
M 750 3309 
L 1409 3309 
L 1409 2516 
L 750 2516 
L 750 3309 
z
" transform="scale(0.015625)"/>
      <path id="DejaVuSans-69" d="M 603 3500 
L 1178 3500 
L 1178 0 
L 603 0 
L 603 3500 
z
M 603 4863 
L 1178 4863 
L 1178 4134 
L 603 4134 
L 603 4863 
z
" transform="scale(0.015625)"/>
     </defs>
     <use xlink:href="#DejaVuSans-73"/>
     <use xlink:href="#DejaVuSans-65" transform="translate(52.099609 0)"/>
     <use xlink:href="#DejaVuSans-63" transform="translate(113.623047 0)"/>
     <use xlink:href="#DejaVuSans-6f" transform="translate(168.603516 0)"/>
     <use xlink:href="#DejaVuSans-6e" transform="translate(229.785156 0)"/>
     <use xlink:href="#DejaVuSans-64" transform="translate(293.164062 0)"/>
     <use xlink:href="#DejaVuSans-6f" transform="translate(356.640625 0)"/>
     <use xlink:href="#DejaVuSans-20" transform="translate(417.822266 0)"/>
     <use xlink:href="#DejaVuSans-73" transform="translate(449.609375 0)"/>
     <use xlink:href="#DejaVuSans-74" transform="translate(501.708984 0)"/>
     <use xlink:href="#DejaVuSans-72" transform="translate(540.917969 0)"/>
     <use xlink:href="#DejaVuSans-61" transform="translate(582.03125 0)"/>
     <use xlink:href="#DejaVuSans-74" transform="translate(643.310547 0)"/>
     <use xlink:href="#DejaVuSans-6f" transform="translate(682.519531 0)"/>
     <use xlink:href="#DejaVuSans-3a" transform="translate(743.701172 0)"/>
     <use xlink:href="#DejaVuSans-20" transform="translate(777.392578 0)"/>
     <use xlink:href="#DejaVuSans-73" transform="translate(809.179688 0)"/>
     <use xlink:href="#DejaVuSans-69" transform="translate(861.279297 0)"/>
     <use xlink:href="#DejaVuSans-74" transform="translate(889.0625 0)"/>
     <use xlink:href="#DejaVuSans-69" transform="translate(928.271484 0)"/>
     <use xlink:href="#DejaVuSans-20" transform="translate(956.054688 0)"/>
     <use xlink:href="#DejaVuSans-42" transform="translate(987.841797 0)"/>
    </g>
   </g>
   <g id="patch_71">
    <path d="M 461.39372 73.388855 
Q 431.441817 121.909299 402.194653 169.288103 
" style="fill: none; stroke: #000000; stroke-width: 1.2; stroke-linecap: round"/>
    <path d="M 405.997638 166.934954 
L 402.194653 169.288103 
L 402.593925 164.833826 
" style="fill: none; stroke: #000000; stroke-width: 1.2; stroke-linecap: round"/>
   </g>
   <g id="text_70">
    <!-- terzo strato: ritorno su A -->
    <g transform="translate(408.748816 56.408313) scale(0.1 -0.1)">
     <defs>
      <path id="DejaVuSans-7a" d="M 353 3500 
L 3084 3500 
L 3084 2975 
L 922 459 
L 3084 459 
L 3084 0 
L 275 0 
L 275 525 
L 2438 3041 
L 353 3041 
L 353 3500 
z
" transform="scale(0.015625)"/>
      <path id="DejaVuSans-75" d="M 544 1381 
L 544 3500 
L 1119 3500 
L 1119 1403 
Q 1119 906 1312 657 
Q 1506 409 1894 409 
Q 2359 409 2629 706 
Q 2900 1003 2900 1516 
L 2900 3500 
L 3475 3500 
L 3475 0 
L 2900 0 
L 2900 538 
Q 2691 219 2414 64 
Q 2138 -91 1772 -91 
Q 1169 -91 856 284 
Q 544 659 544 1381 
z
M 1991 3584 
L 1991 3584 
z
" transform="scale(0.015625)"/>
     </defs>
     <use xlink:href="#DejaVuSans-74"/>
     <use xlink:href="#DejaVuSans-65" transform="translate(39.208984 0)"/>
     <use xlink:href="#DejaVuSans-72" transform="translate(100.732422 0)"/>
     <use xlink:href="#DejaVuSans-7a" transform="translate(141.845703 0)"/>
     <use xlink:href="#DejaVuSans-6f" transform="translate(194.335938 0)"/>
     <use xlink:href="#DejaVuSans-20" transform="translate(255.517578 0)"/>
     <use xlink:href="#DejaVuSans-73" transform="translate(287.304688 0)"/>
     <use xlink:href="#DejaVuSans-74" transform="translate(339.404297 0)"/>
     <use xlink:href="#DejaVuSans-72" transform="translate(378.613281 0)"/>
     <use xlink:href="#DejaVuSans-61" transform="translate(419.726562 0)"/>
     <use xlink:href="#DejaVuSans-74" transform="translate(481.005859 0)"/>
     <use xlink:href="#DejaVuSans-6f" transform="translate(520.214844 0)"/>
     <use xlink:href="#DejaVuSans-3a" transform="translate(581.396484 0)"/>
     <use xlink:href="#DejaVuSans-20" transform="translate(615.087891 0)"/>
     <use xlink:href="#DejaVuSans-72" transform="translate(646.875 0)"/>
     <use xlink:href="#DejaVuSans-69" transform="translate(687.988281 0)"/>
     <use xlink:href="#DejaVuSans-74" transform="translate(715.771484 0)"/>
     <use xlink:href="#DejaVuSans-6f" transform="translate(754.980469 0)"/>
     <use xlink:href="#DejaVuSans-72" transform="translate(816.162109 0)"/>
     <use xlink:href="#DejaVuSans-6e" transform="translate(855.525391 0)"/>
     <use xlink:href="#DejaVuSans-6f" transform="translate(918.904297 0)"/>
     <use xlink:href="#DejaVuSans-20" transform="translate(980.085938 0)"/>
     <use xlink:href="#DejaVuSans-73" transform="translate(1011.873047 0)"/>
     <use xlink:href="#DejaVuSans-75" transform="translate(1063.972656 0)"/>
     <use xlink:href="#DejaVuSans-20" transform="translate(1127.351562 0)"/>
     <use xlink:href="#DejaVuSans-41" transform="translate(1159.138672 0)"/>
    </g>
    <!-- oppure occupazione dei siti C -->
    <g transform="translate(396.413659 67.606125) scale(0.1 -0.1)">
     <defs>
      <path id="DejaVuSans-70" d="M 1159 525 
L 1159 -1331 
L 581 -1331 
L 581 3500 
L 1159 3500 
L 1159 2969 
Q 1341 3281 1617 3432 
Q 1894 3584 2278 3584 
Q 2916 3584 3314 3078 
Q 3713 2572 3713 1747 
Q 3713 922 3314 415 
Q 2916 -91 2278 -91 
Q 1894 -91 1617 61 
Q 1341 213 1159 525 
z
M 3116 1747 
Q 3116 2381 2855 2742 
Q 2594 3103 2138 3103 
Q 1681 3103 1420 2742 
Q 1159 2381 1159 1747 
Q 1159 1113 1420 752 
Q 1681 391 2138 391 
Q 2594 391 2855 752 
Q 3116 1113 3116 1747 
z
" transform="scale(0.015625)"/>
     </defs>
     <use xlink:href="#DejaVuSans-6f"/>
     <use xlink:href="#DejaVuSans-70" transform="translate(61.181641 0)"/>
     <use xlink:href="#DejaVuSans-70" transform="translate(124.658203 0)"/>
     <use xlink:href="#DejaVuSans-75" transform="translate(188.134766 0)"/>
     <use xlink:href="#DejaVuSans-72" transform="translate(251.513672 0)"/>
     <use xlink:href="#DejaVuSans-65" transform="translate(290.376953 0)"/>
     <use xlink:href="#DejaVuSans-20" transform="translate(351.900391 0)"/>
     <use xlink:href="#DejaVuSans-6f" transform="translate(383.6875 0)"/>
     <use xlink:href="#DejaVuSans-63" transform="translate(444.869141 0)"/>
     <use xlink:href="#DejaVuSans-63" transform="translate(499.849609 0)"/>
     <use xlink:href="#DejaVuSans-75" transform="translate(554.830078 0)"/>
     <use xlink:href="#DejaVuSans-70" transform="translate(618.208984 0)"/>
     <use xlink:href="#DejaVuSans-61" transform="translate(681.685547 0)"/>
     <use xlink:href="#DejaVuSans-7a" transform="translate(742.964844 0)"/>
     <use xlink:href="#DejaVuSans-69" transform="translate(795.455078 0)"/>
     <use xlink:href="#DejaVuSans-6f" transform="translate(823.238281 0)"/>
     <use xlink:href="#DejaVuSans-6e" transform="translate(884.419922 0)"/>
     <use xlink:href="#DejaVuSans-65" transform="translate(947.798828 0)"/>
     <use xlink:href="#DejaVuSans-20" transform="translate(1009.322266 0)"/>
     <use xlink:href="#DejaVuSans-64" transform="translate(1041.109375 0)"/>
     <use xlink:href="#DejaVuSans-65" transform="translate(1104.585938 0)"/>
     <use xlink:href="#DejaVuSans-69" transform="translate(1166.109375 0)"/>
     <use xlink:href="#DejaVuSans-20" transform="translate(1193.892578 0)"/>
     <use xlink:href="#DejaVuSans-73" transform="translate(1225.679688 0)"/>
     <use xlink:href="#DejaVuSans-69" transform="translate(1277.779297 0)"/>
     <use xlink:href="#DejaVuSans-74" transform="translate(1305.5625 0)"/>
     <use xlink:href="#DejaVuSans-69" transform="translate(1344.771484 0)"/>
     <use xlink:href="#DejaVuSans-20" transform="translate(1372.554688 0)"/>
     <use xlink:href="#DejaVuSans-43" transform="translate(1404.341797 0)"/>
    </g>
   </g>
   <g id="text_71">
    <!-- La sequenza ABAB… produce un impilamento esagonale compatto; ABCABC… produce un impilamento cubico compatto. -->
    <g transform="translate(7.2 331.825118) scale(0.1 -0.1)">
     <defs>
      <path id="DejaVuSans-4c" d="M 628 4666 
L 1259 4666 
L 1259 531 
L 3531 531 
L 3531 0 
L 628 0 
L 628 4666 
z
" transform="scale(0.015625)"/>
      <path id="DejaVuSans-71" d="M 947 1747 
Q 947 1113 1208 752 
Q 1469 391 1925 391 
Q 2381 391 2643 752 
Q 2906 1113 2906 1747 
Q 2906 2381 2643 2742 
Q 2381 3103 1925 3103 
Q 1469 3103 1208 2742 
Q 947 2381 947 1747 
z
M 2906 525 
Q 2725 213 2448 61 
Q 2172 -91 1784 -91 
Q 1150 -91 751 415 
Q 353 922 353 1747 
Q 353 2572 751 3078 
Q 1150 3584 1784 3584 
Q 2172 3584 2448 3432 
Q 2725 3281 2906 2969 
L 2906 3500 
L 3481 3500 
L 3481 -1331 
L 2906 -1331 
L 2906 525 
z
" transform="scale(0.015625)"/>
      <path id="DejaVuSans-2026" d="M 2869 794 
L 3531 794 
L 3531 0 
L 2869 0 
L 2869 794 
z
M 4997 794 
L 5663 794 
L 5663 0 
L 4997 0 
L 4997 794 
z
M 738 794 
L 1403 794 
L 1403 0 
L 738 0 
L 738 794 
z
" transform="scale(0.015625)"/>
      <path id="DejaVuSans-6d" d="M 3328 2828 
Q 3544 3216 3844 3400 
Q 4144 3584 4550 3584 
Q 5097 3584 5394 3201 
Q 5691 2819 5691 2113 
L 5691 0 
L 5113 0 
L 5113 2094 
Q 5113 2597 4934 2840 
Q 4756 3084 4391 3084 
Q 3944 3084 3684 2787 
Q 3425 2491 3425 1978 
L 3425 0 
L 2847 0 
L 2847 2094 
Q 2847 2600 2669 2842 
Q 2491 3084 2119 3084 
Q 1678 3084 1418 2786 
Q 1159 2488 1159 1978 
L 1159 0 
L 581 0 
L 581 3500 
L 1159 3500 
L 1159 2956 
Q 1356 3278 1631 3431 
Q 1906 3584 2284 3584 
Q 2666 3584 2933 3390 
Q 3200 3197 3328 2828 
z
" transform="scale(0.015625)"/>
      <path id="DejaVuSans-6c" d="M 603 4863 
L 1178 4863 
L 1178 0 
L 603 0 
L 603 4863 
z
" transform="scale(0.015625)"/>
      <path id="DejaVuSans-67" d="M 2906 1791 
Q 2906 2416 2648 2759 
Q 2391 3103 1925 3103 
Q 1463 3103 1205 2759 
Q 947 2416 947 1791 
Q 947 1169 1205 825 
Q 1463 481 1925 481 
Q 2391 481 2648 825 
Q 2906 1169 2906 1791 
z
M 3481 434 
Q 3481 -459 3084 -895 
Q 2688 -1331 1869 -1331 
Q 1566 -1331 1297 -1286 
Q 1028 -1241 775 -1147 
L 775 -588 
Q 1028 -725 1275 -790 
Q 1522 -856 1778 -856 
Q 2344 -856 2625 -561 
Q 2906 -266 2906 331 
L 2906 616 
Q 2728 306 2450 153 
Q 2172 0 1784 0 
Q 1141 0 747 490 
Q 353 981 353 1791 
Q 353 2603 747 3093 
Q 1141 3584 1784 3584 
Q 2172 3584 2450 3431 
Q 2728 3278 2906 2969 
L 2906 3500 
L 3481 3500 
L 3481 434 
z
" transform="scale(0.015625)"/>
      <path id="DejaVuSans-3b" d="M 750 3309 
L 1409 3309 
L 1409 2516 
L 750 2516 
L 750 3309 
z
M 750 794 
L 1409 794 
L 1409 256 
L 897 -744 
L 494 -744 
L 750 256 
L 750 794 
z
" transform="scale(0.015625)"/>
      <path id="DejaVuSans-62" d="M 3116 1747 
Q 3116 2381 2855 2742 
Q 2594 3103 2138 3103 
Q 1681 3103 1420 2742 
Q 1159 2381 1159 1747 
Q 1159 1113 1420 752 
Q 1681 391 2138 391 
Q 2594 391 2855 752 
Q 3116 1113 3116 1747 
z
M 1159 2969 
Q 1341 3281 1617 3432 
Q 1894 3584 2278 3584 
Q 2916 3584 3314 3078 
Q 3713 2572 3713 1747 
Q 3713 922 3314 415 
Q 2916 -91 2278 -91 
Q 1894 -91 1617 61 
Q 1341 213 1159 525 
L 1159 0 
L 581 0 
L 581 4863 
L 1159 4863 
L 1159 2969 
z
" transform="scale(0.015625)"/>
      <path id="DejaVuSans-2e" d="M 684 794 
L 1344 794 
L 1344 0 
L 684 0 
L 684 794 
z
" transform="scale(0.015625)"/>
     </defs>
     <use xlink:href="#DejaVuSans-4c"/>
     <use xlink:href="#DejaVuSans-61" transform="translate(55.712891 0)"/>
     <use xlink:href="#DejaVuSans-20" transform="translate(116.992188 0)"/>
     <use xlink:href="#DejaVuSans-73" transform="translate(148.779297 0)"/>
     <use xlink:href="#DejaVuSans-65" transform="translate(200.878906 0)"/>
     <use xlink:href="#DejaVuSans-71" transform="translate(262.402344 0)"/>
     <use xlink:href="#DejaVuSans-75" transform="translate(325.878906 0)"/>
     <use xlink:href="#DejaVuSans-65" transform="translate(389.257812 0)"/>
     <use xlink:href="#DejaVuSans-6e" transform="translate(450.78125 0)"/>
     <use xlink:href="#DejaVuSans-7a" transform="translate(514.160156 0)"/>
     <use xlink:href="#DejaVuSans-61" transform="translate(566.650391 0)"/>
     <use xlink:href="#DejaVuSans-20" transform="translate(627.929688 0)"/>
     <use xlink:href="#DejaVuSans-41" transform="translate(659.716797 0)"/>
     <use xlink:href="#DejaVuSans-42" transform="translate(728.125 0)"/>
     <use xlink:href="#DejaVuSans-41" transform="translate(796.728516 0)"/>
     <use xlink:href="#DejaVuSans-42" transform="translate(865.136719 0)"/>
     <use xlink:href="#DejaVuSans-2026" transform="translate(933.740234 0)"/>
     <use xlink:href="#DejaVuSans-20" transform="translate(1033.740234 0)"/>
     <use xlink:href="#DejaVuSans-70" transform="translate(1065.527344 0)"/>
     <use xlink:href="#DejaVuSans-72" transform="translate(1129.003906 0)"/>
     <use xlink:href="#DejaVuSans-6f" transform="translate(1167.867188 0)"/>
     <use xlink:href="#DejaVuSans-64" transform="translate(1229.048828 0)"/>
     <use xlink:href="#DejaVuSans-75" transform="translate(1292.525391 0)"/>
     <use xlink:href="#DejaVuSans-63" transform="translate(1355.904297 0)"/>
     <use xlink:href="#DejaVuSans-65" transform="translate(1410.884766 0)"/>
     <use xlink:href="#DejaVuSans-20" transform="translate(1472.408203 0)"/>
     <use xlink:href="#DejaVuSans-75" transform="translate(1504.195312 0)"/>
     <use xlink:href="#DejaVuSans-6e" transform="translate(1567.574219 0)"/>
     <use xlink:href="#DejaVuSans-20" transform="translate(1630.953125 0)"/>
     <use xlink:href="#DejaVuSans-69" transform="translate(1662.740234 0)"/>
     <use xlink:href="#DejaVuSans-6d" transform="translate(1690.523438 0)"/>
     <use xlink:href="#DejaVuSans-70" transform="translate(1787.935547 0)"/>
     <use xlink:href="#DejaVuSans-69" transform="translate(1851.412109 0)"/>
     <use xlink:href="#DejaVuSans-6c" transform="translate(1879.195312 0)"/>
     <use xlink:href="#DejaVuSans-61" transform="translate(1906.978516 0)"/>
     <use xlink:href="#DejaVuSans-6d" transform="translate(1968.257812 0)"/>
     <use xlink:href="#DejaVuSans-65" transform="translate(2065.669922 0)"/>
     <use xlink:href="#DejaVuSans-6e" transform="translate(2127.193359 0)"/>
     <use xlink:href="#DejaVuSans-74" transform="translate(2190.572266 0)"/>
     <use xlink:href="#DejaVuSans-6f" transform="translate(2229.78125 0)"/>
     <use xlink:href="#DejaVuSans-20" transform="translate(2290.962891 0)"/>
     <use xlink:href="#DejaVuSans-65" transform="translate(2322.75 0)"/>
     <use xlink:href="#DejaVuSans-73" transform="translate(2384.273438 0)"/>
     <use xlink:href="#DejaVuSans-61" transform="translate(2436.373047 0)"/>
     <use xlink:href="#DejaVuSans-67" transform="translate(2497.652344 0)"/>
     <use xlink:href="#DejaVuSans-6f" transform="translate(2561.128906 0)"/>
     <use xlink:href="#DejaVuSans-6e" transform="translate(2622.310547 0)"/>
     <use xlink:href="#DejaVuSans-61" transform="translate(2685.689453 0)"/>
     <use xlink:href="#DejaVuSans-6c" transform="translate(2746.96875 0)"/>
     <use xlink:href="#DejaVuSans-65" transform="translate(2774.751953 0)"/>
     <use xlink:href="#DejaVuSans-20" transform="translate(2836.275391 0)"/>
     <use xlink:href="#DejaVuSans-63" transform="translate(2868.0625 0)"/>
     <use xlink:href="#DejaVuSans-6f" transform="translate(2923.042969 0)"/>
     <use xlink:href="#DejaVuSans-6d" transform="translate(2984.224609 0)"/>
     <use xlink:href="#DejaVuSans-70" transform="translate(3081.636719 0)"/>
     <use xlink:href="#DejaVuSans-61" transform="translate(3145.113281 0)"/>
     <use xlink:href="#DejaVuSans-74" transform="translate(3206.392578 0)"/>
     <use xlink:href="#DejaVuSans-74" transform="translate(3245.601562 0)"/>
     <use xlink:href="#DejaVuSans-6f" transform="translate(3284.810547 0)"/>
     <use xlink:href="#DejaVuSans-3b" transform="translate(3345.992188 0)"/>
     <use xlink:href="#DejaVuSans-20" transform="translate(3379.683594 0)"/>
     <use xlink:href="#DejaVuSans-41" transform="translate(3411.470703 0)"/>
     <use xlink:href="#DejaVuSans-42" transform="translate(3479.878906 0)"/>
     <use xlink:href="#DejaVuSans-43" transform="translate(3546.732422 0)"/>
     <use xlink:href="#DejaVuSans-41" transform="translate(3616.556641 0)"/>
     <use xlink:href="#DejaVuSans-42" transform="translate(3684.964844 0)"/>
     <use xlink:href="#DejaVuSans-43" transform="translate(3751.818359 0)"/>
     <use xlink:href="#DejaVuSans-2026" transform="translate(3821.642578 0)"/>
     <use xlink:href="#DejaVuSans-20" transform="translate(3921.642578 0)"/>
     <use xlink:href="#DejaVuSans-70" transform="translate(3953.429688 0)"/>
     <use xlink:href="#DejaVuSans-72" transform="translate(4016.90625 0)"/>
     <use xlink:href="#DejaVuSans-6f" transform="translate(4055.769531 0)"/>
     <use xlink:href="#DejaVuSans-64" transform="translate(4116.951172 0)"/>
     <use xlink:href="#DejaVuSans-75" transform="translate(4180.427734 0)"/>
     <use xlink:href="#DejaVuSans-63" transform="translate(4243.806641 0)"/>
     <use xlink:href="#DejaVuSans-65" transform="translate(4298.787109 0)"/>
     <use xlink:href="#DejaVuSans-20" transform="translate(4360.310547 0)"/>
     <use xlink:href="#DejaVuSans-75" transform="translate(4392.097656 0)"/>
     <use xlink:href="#DejaVuSans-6e" transform="translate(4455.476562 0)"/>
     <use xlink:href="#DejaVuSans-20" transform="translate(4518.855469 0)"/>
     <use xlink:href="#DejaVuSans-69" transform="translate(4550.642578 0)"/>
     <use xlink:href="#DejaVuSans-6d" transform="translate(4578.425781 0)"/>
     <use xlink:href="#DejaVuSans-70" transform="translate(4675.837891 0)"/>
     <use xlink:href="#DejaVuSans-69" transform="translate(4739.314453 0)"/>
     <use xlink:href="#DejaVuSans-6c" transform="translate(4767.097656 0)"/>
     <use xlink:href="#DejaVuSans-61" transform="translate(4794.880859 0)"/>
     <use xlink:href="#DejaVuSans-6d" transform="translate(4856.160156 0)"/>
     <use xlink:href="#DejaVuSans-65" transform="translate(4953.572266 0)"/>
     <use xlink:href="#DejaVuSans-6e" transform="translate(5015.095703 0)"/>
     <use xlink:href="#DejaVuSans-74" transform="translate(5078.474609 0)"/>
     <use xlink:href="#DejaVuSans-6f" transform="translate(5117.683594 0)"/>
     <use xlink:href="#DejaVuSans-20" transform="translate(5178.865234 0)"/>
     <use xlink:href="#DejaVuSans-63" transform="translate(5210.652344 0)"/>
     <use xlink:href="#DejaVuSans-75" transform="translate(5265.632812 0)"/>
     <use xlink:href="#DejaVuSans-62" transform="translate(5329.011719 0)"/>
     <use xlink:href="#DejaVuSans-69" transform="translate(5392.488281 0)"/>
     <use xlink:href="#DejaVuSans-63" transform="translate(5420.271484 0)"/>
     <use xlink:href="#DejaVuSans-6f" transform="translate(5475.251953 0)"/>
     <use xlink:href="#DejaVuSans-20" transform="translate(5536.433594 0)"/>
     <use xlink:href="#DejaVuSans-63" transform="translate(5568.220703 0)"/>
     <use xlink:href="#DejaVuSans-6f" transform="translate(5623.201172 0)"/>
     <use xlink:href="#DejaVuSans-6d" transform="translate(5684.382812 0)"/>
     <use xlink:href="#DejaVuSans-70" transform="translate(5781.794922 0)"/>
     <use xlink:href="#DejaVuSans-61" transform="translate(5845.271484 0)"/>
     <use xlink:href="#DejaVuSans-74" transform="translate(5906.550781 0)"/>
     <use xlink:href="#DejaVuSans-74" transform="translate(5945.759766 0)"/>
     <use xlink:href="#DejaVuSans-6f" transform="translate(5984.96875 0)"/>
     <use xlink:href="#DejaVuSans-2e" transform="translate(6044.400391 0)"/>
    </g>
   </g>
   <g id="text_72">
    <!-- Impilamento compatto di strati A, B e C -->
    <g transform="translate(134.696515 18.597656) scale(0.15 -0.15)">
     <defs>
      <path id="DejaVuSans-Bold-49" d="M 588 4666 
L 1791 4666 
L 1791 0 
L 588 0 
L 588 4666 
z
" transform="scale(0.015625)"/>
      <path id="DejaVuSans-Bold-6d" d="M 3781 2919 
Q 3994 3244 4286 3414 
Q 4578 3584 4928 3584 
Q 5531 3584 5847 3212 
Q 6163 2841 6163 2131 
L 6163 0 
L 5038 0 
L 5038 1825 
Q 5041 1866 5042 1909 
Q 5044 1953 5044 2034 
Q 5044 2406 4934 2573 
Q 4825 2741 4581 2741 
Q 4263 2741 4089 2478 
Q 3916 2216 3909 1719 
L 3909 0 
L 2784 0 
L 2784 1825 
Q 2784 2406 2684 2573 
Q 2584 2741 2328 2741 
Q 2006 2741 1831 2477 
Q 1656 2213 1656 1722 
L 1656 0 
L 531 0 
L 531 3500 
L 1656 3500 
L 1656 2988 
Q 1863 3284 2130 3434 
Q 2397 3584 2719 3584 
Q 3081 3584 3359 3409 
Q 3638 3234 3781 2919 
z
" transform="scale(0.015625)"/>
      <path id="DejaVuSans-Bold-70" d="M 1656 506 
L 1656 -1331 
L 538 -1331 
L 538 3500 
L 1656 3500 
L 1656 2988 
Q 1888 3294 2169 3439 
Q 2450 3584 2816 3584 
Q 3463 3584 3878 3070 
Q 4294 2556 4294 1747 
Q 4294 938 3878 423 
Q 3463 -91 2816 -91 
Q 2450 -91 2169 54 
Q 1888 200 1656 506 
z
M 2400 2772 
Q 2041 2772 1848 2508 
Q 1656 2244 1656 1747 
Q 1656 1250 1848 986 
Q 2041 722 2400 722 
Q 2759 722 2948 984 
Q 3138 1247 3138 1747 
Q 3138 2247 2948 2509 
Q 2759 2772 2400 2772 
z
" transform="scale(0.015625)"/>
      <path id="DejaVuSans-Bold-69" d="M 538 3500 
L 1656 3500 
L 1656 0 
L 538 0 
L 538 3500 
z
M 538 4863 
L 1656 4863 
L 1656 3950 
L 538 3950 
L 538 4863 
z
" transform="scale(0.015625)"/>
      <path id="DejaVuSans-Bold-6c" d="M 538 4863 
L 1656 4863 
L 1656 0 
L 538 0 
L 538 4863 
z
" transform="scale(0.015625)"/>
      <path id="DejaVuSans-Bold-61" d="M 2106 1575 
Q 1756 1575 1579 1456 
Q 1403 1338 1403 1106 
Q 1403 894 1545 773 
Q 1688 653 1941 653 
Q 2256 653 2472 879 
Q 2688 1106 2688 1447 
L 2688 1575 
L 2106 1575 
z
M 3816 1997 
L 3816 0 
L 2688 0 
L 2688 519 
Q 2463 200 2181 54 
Q 1900 -91 1497 -91 
Q 953 -91 614 226 
Q 275 544 275 1050 
Q 275 1666 698 1953 
Q 1122 2241 2028 2241 
L 2688 2241 
L 2688 2328 
Q 2688 2594 2478 2717 
Q 2269 2841 1825 2841 
Q 1466 2841 1156 2769 
Q 847 2697 581 2553 
L 581 3406 
Q 941 3494 1303 3539 
Q 1666 3584 2028 3584 
Q 2975 3584 3395 3211 
Q 3816 2838 3816 1997 
z
" transform="scale(0.015625)"/>
      <path id="DejaVuSans-Bold-65" d="M 4031 1759 
L 4031 1441 
L 1416 1441 
Q 1456 1047 1700 850 
Q 1944 653 2381 653 
Q 2734 653 3104 758 
Q 3475 863 3866 1075 
L 3866 213 
Q 3469 63 3072 -14 
Q 2675 -91 2278 -91 
Q 1328 -91 801 392 
Q 275 875 275 1747 
Q 275 2603 792 3093 
Q 1309 3584 2216 3584 
Q 3041 3584 3536 3087 
Q 4031 2591 4031 1759 
z
M 2881 2131 
Q 2881 2450 2695 2645 
Q 2509 2841 2209 2841 
Q 1884 2841 1681 2658 
Q 1478 2475 1428 2131 
L 2881 2131 
z
" transform="scale(0.015625)"/>
      <path id="DejaVuSans-Bold-6e" d="M 4056 2131 
L 4056 0 
L 2931 0 
L 2931 347 
L 2931 1631 
Q 2931 2084 2911 2256 
Q 2891 2428 2841 2509 
Q 2775 2619 2662 2680 
Q 2550 2741 2406 2741 
Q 2056 2741 1856 2470 
Q 1656 2200 1656 1722 
L 1656 0 
L 538 0 
L 538 3500 
L 1656 3500 
L 1656 2988 
Q 1909 3294 2193 3439 
Q 2478 3584 2822 3584 
Q 3428 3584 3742 3212 
Q 4056 2841 4056 2131 
z
" transform="scale(0.015625)"/>
      <path id="DejaVuSans-Bold-74" d="M 1759 4494 
L 1759 3500 
L 2913 3500 
L 2913 2700 
L 1759 2700 
L 1759 1216 
Q 1759 972 1856 886 
Q 1953 800 2241 800 
L 2816 800 
L 2816 0 
L 1856 0 
Q 1194 0 917 276 
Q 641 553 641 1216 
L 641 2700 
L 84 2700 
L 84 3500 
L 641 3500 
L 641 4494 
L 1759 4494 
z
" transform="scale(0.015625)"/>
      <path id="DejaVuSans-Bold-6f" d="M 2203 2784 
Q 1831 2784 1636 2517 
Q 1441 2250 1441 1747 
Q 1441 1244 1636 976 
Q 1831 709 2203 709 
Q 2569 709 2762 976 
Q 2956 1244 2956 1747 
Q 2956 2250 2762 2517 
Q 2569 2784 2203 2784 
z
M 2203 3584 
Q 3106 3584 3614 3096 
Q 4122 2609 4122 1747 
Q 4122 884 3614 396 
Q 3106 -91 2203 -91 
Q 1297 -91 786 396 
Q 275 884 275 1747 
Q 275 2609 786 3096 
Q 1297 3584 2203 3584 
z
" transform="scale(0.015625)"/>
      <path id="DejaVuSans-Bold-20" transform="scale(0.015625)"/>
      <path id="DejaVuSans-Bold-63" d="M 3366 3391 
L 3366 2478 
Q 3138 2634 2908 2709 
Q 2678 2784 2431 2784 
Q 1963 2784 1702 2511 
Q 1441 2238 1441 1747 
Q 1441 1256 1702 982 
Q 1963 709 2431 709 
Q 2694 709 2930 787 
Q 3166 866 3366 1019 
L 3366 103 
Q 3103 6 2833 -42 
Q 2563 -91 2291 -91 
Q 1344 -91 809 395 
Q 275 881 275 1747 
Q 275 2613 809 3098 
Q 1344 3584 2291 3584 
Q 2566 3584 2833 3536 
Q 3100 3488 3366 3391 
z
" transform="scale(0.015625)"/>
      <path id="DejaVuSans-Bold-64" d="M 2919 2988 
L 2919 4863 
L 4044 4863 
L 4044 0 
L 2919 0 
L 2919 506 
Q 2688 197 2409 53 
Q 2131 -91 1766 -91 
Q 1119 -91 703 423 
Q 288 938 288 1747 
Q 288 2556 703 3070 
Q 1119 3584 1766 3584 
Q 2128 3584 2408 3439 
Q 2688 3294 2919 2988 
z
M 2181 722 
Q 2541 722 2730 984 
Q 2919 1247 2919 1747 
Q 2919 2247 2730 2509 
Q 2541 2772 2181 2772 
Q 1825 2772 1636 2509 
Q 1447 2247 1447 1747 
Q 1447 1247 1636 984 
Q 1825 722 2181 722 
z
" transform="scale(0.015625)"/>
      <path id="DejaVuSans-Bold-73" d="M 3272 3391 
L 3272 2541 
Q 2913 2691 2578 2766 
Q 2244 2841 1947 2841 
Q 1628 2841 1473 2761 
Q 1319 2681 1319 2516 
Q 1319 2381 1436 2309 
Q 1553 2238 1856 2203 
L 2053 2175 
Q 2913 2066 3209 1816 
Q 3506 1566 3506 1031 
Q 3506 472 3093 190 
Q 2681 -91 1863 -91 
Q 1516 -91 1145 -36 
Q 775 19 384 128 
L 384 978 
Q 719 816 1070 734 
Q 1422 653 1784 653 
Q 2113 653 2278 743 
Q 2444 834 2444 1013 
Q 2444 1163 2330 1236 
Q 2216 1309 1875 1350 
L 1678 1375 
Q 931 1469 631 1722 
Q 331 1975 331 2491 
Q 331 3047 712 3315 
Q 1094 3584 1881 3584 
Q 2191 3584 2531 3537 
Q 2872 3491 3272 3391 
z
" transform="scale(0.015625)"/>
      <path id="DejaVuSans-Bold-72" d="M 3138 2547 
Q 2991 2616 2845 2648 
Q 2700 2681 2553 2681 
Q 2122 2681 1889 2404 
Q 1656 2128 1656 1613 
L 1656 0 
L 538 0 
L 538 3500 
L 1656 3500 
L 1656 2925 
Q 1872 3269 2151 3426 
Q 2431 3584 2822 3584 
Q 2878 3584 2943 3579 
Q 3009 3575 3134 3559 
L 3138 2547 
z
" transform="scale(0.015625)"/>
      <path id="DejaVuSans-Bold-41" d="M 3419 850 
L 1538 850 
L 1241 0 
L 31 0 
L 1759 4666 
L 3194 4666 
L 4922 0 
L 3713 0 
L 3419 850 
z
M 1838 1716 
L 3116 1716 
L 2478 3572 
L 1838 1716 
z
" transform="scale(0.015625)"/>
      <path id="DejaVuSans-Bold-2c" d="M 653 1209 
L 1778 1209 
L 1778 256 
L 1006 -909 
L 341 -909 
L 653 256 
L 653 1209 
z
" transform="scale(0.015625)"/>
      <path id="DejaVuSans-Bold-42" d="M 2456 2859 
Q 2741 2859 2887 2984 
Q 3034 3109 3034 3353 
Q 3034 3594 2887 3720 
Q 2741 3847 2456 3847 
L 1791 3847 
L 1791 2859 
L 2456 2859 
z
M 2497 819 
Q 2859 819 3042 972 
Q 3225 1125 3225 1434 
Q 3225 1738 3044 1889 
Q 2863 2041 2497 2041 
L 1791 2041 
L 1791 819 
L 2497 819 
z
M 3616 2497 
Q 4003 2384 4215 2081 
Q 4428 1778 4428 1338 
Q 4428 663 3972 331 
Q 3516 0 2584 0 
L 588 0 
L 588 4666 
L 2394 4666 
Q 3366 4666 3802 4372 
Q 4238 4078 4238 3431 
Q 4238 3091 4078 2852 
Q 3919 2613 3616 2497 
z
" transform="scale(0.015625)"/>
      <path id="DejaVuSans-Bold-43" d="M 4288 256 
Q 3956 84 3597 -3 
Q 3238 -91 2847 -91 
Q 1681 -91 1000 561 
Q 319 1213 319 2328 
Q 319 3447 1000 4098 
Q 1681 4750 2847 4750 
Q 3238 4750 3597 4662 
Q 3956 4575 4288 4403 
L 4288 3438 
Q 3953 3666 3628 3772 
Q 3303 3878 2944 3878 
Q 2300 3878 1931 3465 
Q 1563 3053 1563 2328 
Q 1563 1606 1931 1193 
Q 2300 781 2944 781 
Q 3303 781 3628 887 
Q 3953 994 4288 1222 
L 4288 256 
z
" transform="scale(0.015625)"/>
     </defs>
     <use xlink:href="#DejaVuSans-Bold-49"/>
     <use xlink:href="#DejaVuSans-Bold-6d" transform="translate(37.207031 0)"/>
     <use xlink:href="#DejaVuSans-Bold-70" transform="translate(141.40625 0)"/>
     <use xlink:href="#DejaVuSans-Bold-69" transform="translate(212.988281 0)"/>
     <use xlink:href="#DejaVuSans-Bold-6c" transform="translate(247.265625 0)"/>
     <use xlink:href="#DejaVuSans-Bold-61" transform="translate(281.542969 0)"/>
     <use xlink:href="#DejaVuSans-Bold-6d" transform="translate(349.023438 0)"/>
     <use xlink:href="#DejaVuSans-Bold-65" transform="translate(453.222656 0)"/>
     <use xlink:href="#DejaVuSans-Bold-6e" transform="translate(521.044922 0)"/>
     <use xlink:href="#DejaVuSans-Bold-74" transform="translate(592.236328 0)"/>
     <use xlink:href="#DejaVuSans-Bold-6f" transform="translate(640.039062 0)"/>
     <use xlink:href="#DejaVuSans-Bold-20" transform="translate(708.740234 0)"/>
     <use xlink:href="#DejaVuSans-Bold-63" transform="translate(743.554688 0)"/>
     <use xlink:href="#DejaVuSans-Bold-6f" transform="translate(802.832031 0)"/>
     <use xlink:href="#DejaVuSans-Bold-6d" transform="translate(871.533203 0)"/>
     <use xlink:href="#DejaVuSans-Bold-70" transform="translate(975.732422 0)"/>
     <use xlink:href="#DejaVuSans-Bold-61" transform="translate(1047.314453 0)"/>
     <use xlink:href="#DejaVuSans-Bold-74" transform="translate(1114.794922 0)"/>
     <use xlink:href="#DejaVuSans-Bold-74" transform="translate(1162.597656 0)"/>
     <use xlink:href="#DejaVuSans-Bold-6f" transform="translate(1210.400391 0)"/>
     <use xlink:href="#DejaVuSans-Bold-20" transform="translate(1279.101562 0)"/>
     <use xlink:href="#DejaVuSans-Bold-64" transform="translate(1313.916016 0)"/>
     <use xlink:href="#DejaVuSans-Bold-69" transform="translate(1385.498047 0)"/>
     <use xlink:href="#DejaVuSans-Bold-20" transform="translate(1419.775391 0)"/>
     <use xlink:href="#DejaVuSans-Bold-73" transform="translate(1454.589844 0)"/>
     <use xlink:href="#DejaVuSans-Bold-74" transform="translate(1514.111328 0)"/>
     <use xlink:href="#DejaVuSans-Bold-72" transform="translate(1561.914062 0)"/>
     <use xlink:href="#DejaVuSans-Bold-61" transform="translate(1611.230469 0)"/>
     <use xlink:href="#DejaVuSans-Bold-74" transform="translate(1678.710938 0)"/>
     <use xlink:href="#DejaVuSans-Bold-69" transform="translate(1726.513672 0)"/>
     <use xlink:href="#DejaVuSans-Bold-20" transform="translate(1760.791016 0)"/>
     <use xlink:href="#DejaVuSans-Bold-41" transform="translate(1795.605469 0)"/>
     <use xlink:href="#DejaVuSans-Bold-2c" transform="translate(1874.873047 0)"/>
     <use xlink:href="#DejaVuSans-Bold-20" transform="translate(1912.861328 0)"/>
     <use xlink:href="#DejaVuSans-Bold-42" transform="translate(1947.675781 0)"/>
     <use xlink:href="#DejaVuSans-Bold-20" transform="translate(2023.896484 0)"/>
     <use xlink:href="#DejaVuSans-Bold-65" transform="translate(2058.710938 0)"/>
     <use xlink:href="#DejaVuSans-Bold-20" transform="translate(2126.533203 0)"/>
     <use xlink:href="#DejaVuSans-Bold-43" transform="translate(2161.347656 0)"/>
    </g>
   </g>
  </g>
 </g>
 <defs>
  <clipPath id="pbb5de69f85">
   <rect x="46.211243" y="30.597656" width="512.178356" height="321.552"/>
  </clipPath>
 </defs>
</svg>
