<?xml version="1.0" encoding="utf-8" standalone="no"?>
<!DOCTYPE svg PUBLIC "-//W3C//DTD SVG 1.1//EN"
  "http://www.w3.org/Graphics/SVG/1.1/DTD/svg11.dtd">
<svg xmlns:xlink="http://www.w3.org/1999/xlink" width="604.816491pt" height="475.723125pt" viewBox="0 0 604.816491 475.723125" xmlns="http://www.w3.org/2000/svg" version="1.1">
 <metadata>
  <rdf:RDF xmlns:dc="http://purl.org/dc/elements/1.1/" xmlns:cc="http://creativecommons.org/ns#" xmlns:rdf="http://www.w3.org/1999/02/22-rdf-syntax-ns#">
   <cc:Work>
    <dc:type rdf:resource="http://purl.org/dc/dcmitype/StillImage"/>
    <dc:date>2026-06-16T08:10:26.876264</dc:date>
    <dc:format>image/svg+xml</dc:format>
    <dc:creator>
     <cc:Agent>
      <dc:title>Matplotlib v3.10.8, https://matplotlib.org/</dc:title>
     </cc:Agent>
    </dc:creator>
   </cc:Work>
  </rdf:RDF>
 </metadata>
 <defs>
  <style type="text/css">*{stroke-linejoin: round; stroke-linecap: butt}</style>
 </defs>
 <g id="figure_1">
  <g id="patch_1">
   <path d="M 0 475.723125 
L 604.816491 475.723125 
L 604.816491 0 
L 0 0 
z
" style="fill: #ffffff"/>
  </g>
  <g id="axes_1">
   <g id="line2d_1">
    <path d="M 80.4375 168.249375 
L 112.213906 202.57093 
" clip-path="url(#pffa4f5cbcc)" style="fill: none; stroke: #383838; stroke-width: 1.35; stroke-linecap: square"/>
   </g>
   <g id="line2d_2">
    <path d="M 80.4375 168.249375 
L 118.307146 139.45017 
" clip-path="url(#pffa4f5cbcc)" style="fill: none; stroke: #383838; stroke-width: 1.35; stroke-linecap: square"/>
   </g>
   <g id="line2d_3">
    <path d="M 80.4375 168.249375 
L 80.4375 189.141641 
" clip-path="url(#pffa4f5cbcc)" style="fill: none; stroke: #383838; stroke-width: 1.35; stroke-linecap: square"/>
   </g>
   <g id="line2d_4">
    <path d="M 80.4375 189.141641 
L 112.213906 223.463196 
" clip-path="url(#pffa4f5cbcc)" style="fill: none; stroke: #383838; stroke-width: 1.35; stroke-linecap: square"/>
   </g>
   <g id="line2d_5">
    <path d="M 80.4375 189.141641 
L 118.307146 160.342436 
" clip-path="url(#pffa4f5cbcc)" style="fill: none; stroke: #383838; stroke-width: 1.35; stroke-linecap: square"/>
   </g>
   <g id="line2d_6">
    <path d="M 118.307146 139.45017 
L 150.083553 173.771726 
" clip-path="url(#pffa4f5cbcc)" style="fill: none; stroke: #383838; stroke-width: 1.35; stroke-linecap: square"/>
   </g>
   <g id="line2d_7">
    <path d="M 118.307146 139.45017 
L 118.307146 160.342436 
" clip-path="url(#pffa4f5cbcc)" style="fill: none; stroke: #383838; stroke-width: 1.35; stroke-linecap: square"/>
   </g>
   <g id="line2d_8">
    <path d="M 118.307146 160.342436 
L 150.083553 194.663992 
" clip-path="url(#pffa4f5cbcc)" style="fill: none; stroke: #383838; stroke-width: 1.35; stroke-linecap: square"/>
   </g>
   <g id="line2d_9">
    <path d="M 112.213906 202.57093 
L 150.083553 173.771726 
" clip-path="url(#pffa4f5cbcc)" style="fill: none; stroke: #383838; stroke-width: 1.35; stroke-linecap: square"/>
   </g>
   <g id="line2d_10">
    <path d="M 112.213906 202.57093 
L 112.213906 223.463196 
" clip-path="url(#pffa4f5cbcc)" style="fill: none; stroke: #383838; stroke-width: 1.35; stroke-linecap: square"/>
   </g>
   <g id="line2d_11">
    <path d="M 112.213906 223.463196 
L 150.083553 194.663992 
" clip-path="url(#pffa4f5cbcc)" style="fill: none; stroke: #383838; stroke-width: 1.35; stroke-linecap: square"/>
   </g>
   <g id="line2d_12">
    <path d="M 150.083553 173.771726 
L 150.083553 194.663992 
" clip-path="url(#pffa4f5cbcc)" style="fill: none; stroke: #383838; stroke-width: 1.35; stroke-linecap: square"/>
   </g>
   <g id="line2d_13">
    <path d="M 226.9125 168.249375 
L 258.688906 202.57093 
" clip-path="url(#pffa4f5cbcc)" style="fill: none; stroke: #383838; stroke-width: 1.35; stroke-linecap: square"/>
   </g>
   <g id="line2d_14">
    <path d="M 226.9125 168.249375 
L 264.782146 139.45017 
" clip-path="url(#pffa4f5cbcc)" style="fill: none; stroke: #383838; stroke-width: 1.35; stroke-linecap: square"/>
   </g>
   <g id="line2d_15">
    <path d="M 226.9125 168.249375 
L 226.9125 198.54316 
" clip-path="url(#pffa4f5cbcc)" style="fill: none; stroke: #383838; stroke-width: 1.35; stroke-linecap: square"/>
   </g>
   <g id="line2d_16">
    <path d="M 226.9125 198.54316 
L 258.688906 232.864716 
" clip-path="url(#pffa4f5cbcc)" style="fill: none; stroke: #383838; stroke-width: 1.35; stroke-linecap: square"/>
   </g>
   <g id="line2d_17">
    <path d="M 226.9125 198.54316 
L 264.782146 169.743956 
" clip-path="url(#pffa4f5cbcc)" style="fill: none; stroke: #383838; stroke-width: 1.35; stroke-linecap: square"/>
   </g>
   <g id="line2d_18">
    <path d="M 264.782146 139.45017 
L 296.558553 173.771726 
" clip-path="url(#pffa4f5cbcc)" style="fill: none; stroke: #383838; stroke-width: 1.35; stroke-linecap: square"/>
   </g>
   <g id="line2d_19">
    <path d="M 264.782146 139.45017 
L 264.782146 169.743956 
" clip-path="url(#pffa4f5cbcc)" style="fill: none; stroke: #383838; stroke-width: 1.35; stroke-linecap: square"/>
   </g>
   <g id="line2d_20">
    <path d="M 264.782146 169.743956 
L 296.558553 204.065511 
" clip-path="url(#pffa4f5cbcc)" style="fill: none; stroke: #383838; stroke-width: 1.35; stroke-linecap: square"/>
   </g>
   <g id="line2d_21">
    <path d="M 258.688906 202.57093 
L 296.558553 173.771726 
" clip-path="url(#pffa4f5cbcc)" style="fill: none; stroke: #383838; stroke-width: 1.35; stroke-linecap: square"/>
   </g>
   <g id="line2d_22">
    <path d="M 258.688906 202.57093 
L 258.688906 232.864716 
" clip-path="url(#pffa4f5cbcc)" style="fill: none; stroke: #383838; stroke-width: 1.35; stroke-linecap: square"/>
   </g>
   <g id="line2d_23">
    <path d="M 258.688906 232.864716 
L 296.558553 204.065511 
" clip-path="url(#pffa4f5cbcc)" style="fill: none; stroke: #383838; stroke-width: 1.35; stroke-linecap: square"/>
   </g>
   <g id="line2d_24">
    <path d="M 296.558553 173.771726 
L 296.558553 204.065511 
" clip-path="url(#pffa4f5cbcc)" style="fill: none; stroke: #383838; stroke-width: 1.35; stroke-linecap: square"/>
   </g>
   <g id="line2d_25">
    <path d="M 373.3875 168.249375 
L 413.108008 211.151319 
" clip-path="url(#pffa4f5cbcc)" style="fill: none; stroke: #383838; stroke-width: 1.35; stroke-linecap: square"/>
   </g>
   <g id="line2d_26">
    <path d="M 373.3875 168.249375 
L 403.683217 145.210011 
" clip-path="url(#pffa4f5cbcc)" style="fill: none; stroke: #383838; stroke-width: 1.35; stroke-linecap: square"/>
   </g>
   <g id="line2d_27">
    <path d="M 373.3875 168.249375 
L 373.3875 198.54316 
" clip-path="url(#pffa4f5cbcc)" style="fill: none; stroke: #383838; stroke-width: 1.35; stroke-linecap: square"/>
   </g>
   <g id="line2d_28">
    <path d="M 373.3875 198.54316 
L 413.108008 241.445105 
" clip-path="url(#pffa4f5cbcc)" style="fill: none; stroke: #383838; stroke-width: 1.35; stroke-linecap: square"/>
   </g>
   <g id="line2d_29">
    <path d="M 373.3875 198.54316 
L 403.683217 175.503797 
" clip-path="url(#pffa4f5cbcc)" style="fill: none; stroke: #383838; stroke-width: 1.35; stroke-linecap: square"/>
   </g>
   <g id="line2d_30">
    <path d="M 403.683217 145.210011 
L 443.403725 188.111956 
" clip-path="url(#pffa4f5cbcc)" style="fill: none; stroke: #383838; stroke-width: 1.35; stroke-linecap: square"/>
   </g>
   <g id="line2d_31">
    <path d="M 403.683217 145.210011 
L 403.683217 175.503797 
" clip-path="url(#pffa4f5cbcc)" style="fill: none; stroke: #383838; stroke-width: 1.35; stroke-linecap: square"/>
   </g>
   <g id="line2d_32">
    <path d="M 403.683217 175.503797 
L 443.403725 218.405741 
" clip-path="url(#pffa4f5cbcc)" style="fill: none; stroke: #383838; stroke-width: 1.35; stroke-linecap: square"/>
   </g>
   <g id="line2d_33">
    <path d="M 413.108008 211.151319 
L 443.403725 188.111956 
" clip-path="url(#pffa4f5cbcc)" style="fill: none; stroke: #383838; stroke-width: 1.35; stroke-linecap: square"/>
   </g>
   <g id="line2d_34">
    <path d="M 413.108008 211.151319 
L 413.108008 241.445105 
" clip-path="url(#pffa4f5cbcc)" style="fill: none; stroke: #383838; stroke-width: 1.35; stroke-linecap: square"/>
   </g>
   <g id="line2d_35">
    <path d="M 413.108008 241.445105 
L 443.403725 218.405741 
" clip-path="url(#pffa4f5cbcc)" style="fill: none; stroke: #383838; stroke-width: 1.35; stroke-linecap: square"/>
   </g>
   <g id="line2d_36">
    <path d="M 443.403725 188.111956 
L 443.403725 218.405741 
" clip-path="url(#pffa4f5cbcc)" style="fill: none; stroke: #383838; stroke-width: 1.35; stroke-linecap: square"/>
   </g>
   <g id="line2d_37">
    <path d="M 519.8625 168.249375 
L 557.994188 209.435242 
" clip-path="url(#pffa4f5cbcc)" style="fill: none; stroke: #383838; stroke-width: 1.35; stroke-linecap: square"/>
   </g>
   <g id="line2d_38">
    <path d="M 519.8625 168.249375 
L 552.051699 143.770051 
" clip-path="url(#pffa4f5cbcc)" style="fill: none; stroke: #383838; stroke-width: 1.35; stroke-linecap: square"/>
   </g>
   <g id="line2d_39">
    <path d="M 519.8625 168.249375 
L 531.937534 209.496125 
" clip-path="url(#pffa4f5cbcc)" style="fill: none; stroke: #383838; stroke-width: 1.35; stroke-linecap: square"/>
   </g>
   <g id="line2d_40">
    <path d="M 531.937534 209.496125 
L 570.069222 250.681992 
" clip-path="url(#pffa4f5cbcc)" style="fill: none; stroke: #383838; stroke-width: 1.35; stroke-linecap: square"/>
   </g>
   <g id="line2d_41">
    <path d="M 531.937534 209.496125 
L 564.126734 185.016801 
" clip-path="url(#pffa4f5cbcc)" style="fill: none; stroke: #383838; stroke-width: 1.35; stroke-linecap: square"/>
   </g>
   <g id="line2d_42">
    <path d="M 552.051699 143.770051 
L 590.183387 184.955918 
" clip-path="url(#pffa4f5cbcc)" style="fill: none; stroke: #383838; stroke-width: 1.35; stroke-linecap: square"/>
   </g>
   <g id="line2d_43">
    <path d="M 552.051699 143.770051 
L 564.126734 185.016801 
" clip-path="url(#pffa4f5cbcc)" style="fill: none; stroke: #383838; stroke-width: 1.35; stroke-linecap: square"/>
   </g>
   <g id="line2d_44">
    <path d="M 564.126734 185.016801 
L 602.258422 226.202668 
" clip-path="url(#pffa4f5cbcc)" style="fill: none; stroke: #383838; stroke-width: 1.35; stroke-linecap: square"/>
   </g>
   <g id="line2d_45">
    <path d="M 557.994188 209.435242 
L 590.183387 184.955918 
" clip-path="url(#pffa4f5cbcc)" style="fill: none; stroke: #383838; stroke-width: 1.35; stroke-linecap: square"/>
   </g>
   <g id="line2d_46">
    <path d="M 557.994188 209.435242 
L 570.069222 250.681992 
" clip-path="url(#pffa4f5cbcc)" style="fill: none; stroke: #383838; stroke-width: 1.35; stroke-linecap: square"/>
   </g>
   <g id="line2d_47">
    <path d="M 570.069222 250.681992 
L 602.258422 226.202668 
" clip-path="url(#pffa4f5cbcc)" style="fill: none; stroke: #383838; stroke-width: 1.35; stroke-linecap: square"/>
   </g>
   <g id="line2d_48">
    <path d="M 590.183387 184.955918 
L 602.258422 226.202668 
" clip-path="url(#pffa4f5cbcc)" style="fill: none; stroke: #383838; stroke-width: 1.35; stroke-linecap: square"/>
   </g>
   <g id="line2d_49">
    <path d="M 131.70375 336.695625 
L 168.246617 376.165414 
" clip-path="url(#pffa4f5cbcc)" style="fill: none; stroke: #383838; stroke-width: 1.35; stroke-linecap: square"/>
   </g>
   <g id="line2d_50">
    <path d="M 131.70375 336.695625 
L 173.425871 322.512768 
" clip-path="url(#pffa4f5cbcc)" style="fill: none; stroke: #383838; stroke-width: 1.35; stroke-linecap: square"/>
   </g>
   <g id="line2d_51">
    <path d="M 131.70375 336.695625 
L 154.334455 371.919832 
" clip-path="url(#pffa4f5cbcc)" style="fill: none; stroke: #383838; stroke-width: 1.35; stroke-linecap: square"/>
   </g>
   <g id="line2d_52">
    <path d="M 154.334455 371.919832 
L 190.877322 411.389621 
" clip-path="url(#pffa4f5cbcc)" style="fill: none; stroke: #383838; stroke-width: 1.35; stroke-linecap: square"/>
   </g>
   <g id="line2d_53">
    <path d="M 154.334455 371.919832 
L 196.056576 357.736975 
" clip-path="url(#pffa4f5cbcc)" style="fill: none; stroke: #383838; stroke-width: 1.35; stroke-linecap: square"/>
   </g>
   <g id="line2d_54">
    <path d="M 173.425871 322.512768 
L 209.968739 361.982557 
" clip-path="url(#pffa4f5cbcc)" style="fill: none; stroke: #383838; stroke-width: 1.35; stroke-linecap: square"/>
   </g>
   <g id="line2d_55">
    <path d="M 173.425871 322.512768 
L 196.056576 357.736975 
" clip-path="url(#pffa4f5cbcc)" style="fill: none; stroke: #383838; stroke-width: 1.35; stroke-linecap: square"/>
   </g>
   <g id="line2d_56">
    <path d="M 196.056576 357.736975 
L 232.599444 397.206764 
" clip-path="url(#pffa4f5cbcc)" style="fill: none; stroke: #383838; stroke-width: 1.35; stroke-linecap: square"/>
   </g>
   <g id="line2d_57">
    <path d="M 168.246617 376.165414 
L 209.968739 361.982557 
" clip-path="url(#pffa4f5cbcc)" style="fill: none; stroke: #383838; stroke-width: 1.35; stroke-linecap: square"/>
   </g>
   <g id="line2d_58">
    <path d="M 168.246617 376.165414 
L 190.877322 411.389621 
" clip-path="url(#pffa4f5cbcc)" style="fill: none; stroke: #383838; stroke-width: 1.35; stroke-linecap: square"/>
   </g>
   <g id="line2d_59">
    <path d="M 190.877322 411.389621 
L 232.599444 397.206764 
" clip-path="url(#pffa4f5cbcc)" style="fill: none; stroke: #383838; stroke-width: 1.35; stroke-linecap: square"/>
   </g>
   <g id="line2d_60">
    <path d="M 209.968739 361.982557 
L 232.599444 397.206764 
" clip-path="url(#pffa4f5cbcc)" style="fill: none; stroke: #383838; stroke-width: 1.35; stroke-linecap: square"/>
   </g>
   <g id="line2d_61">
    <path d="M 300.15 336.695625 
L 331.926406 371.01718 
" clip-path="url(#pffa4f5cbcc)" style="fill: none; stroke: #383838; stroke-width: 1.35; stroke-linecap: square"/>
   </g>
   <g id="line2d_62">
    <path d="M 300.15 336.695625 
L 346.86921 321.636917 
" clip-path="url(#pffa4f5cbcc)" style="fill: none; stroke: #383838; stroke-width: 1.35; stroke-linecap: square"/>
   </g>
   <g id="line2d_63">
    <path d="M 300.15 336.695625 
L 320.739154 360.311408 
" clip-path="url(#pffa4f5cbcc)" style="fill: none; stroke: #383838; stroke-width: 1.35; stroke-linecap: square"/>
   </g>
   <g id="line2d_64">
    <path d="M 320.739154 360.311408 
L 352.51556 394.632963 
" clip-path="url(#pffa4f5cbcc)" style="fill: none; stroke: #383838; stroke-width: 1.35; stroke-linecap: square"/>
   </g>
   <g id="line2d_65">
    <path d="M 320.739154 360.311408 
L 367.458364 345.2527 
" clip-path="url(#pffa4f5cbcc)" style="fill: none; stroke: #383838; stroke-width: 1.35; stroke-linecap: square"/>
   </g>
   <g id="line2d_66">
    <path d="M 346.86921 321.636917 
L 378.645616 355.958473 
" clip-path="url(#pffa4f5cbcc)" style="fill: none; stroke: #383838; stroke-width: 1.35; stroke-linecap: square"/>
   </g>
   <g id="line2d_67">
    <path d="M 346.86921 321.636917 
L 367.458364 345.2527 
" clip-path="url(#pffa4f5cbcc)" style="fill: none; stroke: #383838; stroke-width: 1.35; stroke-linecap: square"/>
   </g>
   <g id="line2d_68">
    <path d="M 367.458364 345.2527 
L 399.23477 379.574255 
" clip-path="url(#pffa4f5cbcc)" style="fill: none; stroke: #383838; stroke-width: 1.35; stroke-linecap: square"/>
   </g>
   <g id="line2d_69">
    <path d="M 331.926406 371.01718 
L 378.645616 355.958473 
" clip-path="url(#pffa4f5cbcc)" style="fill: none; stroke: #383838; stroke-width: 1.35; stroke-linecap: square"/>
   </g>
   <g id="line2d_70">
    <path d="M 331.926406 371.01718 
L 352.51556 394.632963 
" clip-path="url(#pffa4f5cbcc)" style="fill: none; stroke: #383838; stroke-width: 1.35; stroke-linecap: square"/>
   </g>
   <g id="line2d_71">
    <path d="M 352.51556 394.632963 
L 399.23477 379.574255 
" clip-path="url(#pffa4f5cbcc)" style="fill: none; stroke: #383838; stroke-width: 1.35; stroke-linecap: square"/>
   </g>
   <g id="line2d_72">
    <path d="M 378.645616 355.958473 
L 399.23477 379.574255 
" clip-path="url(#pffa4f5cbcc)" style="fill: none; stroke: #383838; stroke-width: 1.35; stroke-linecap: square"/>
   </g>
   <g id="line2d_73">
    <path d="M 468.59625 336.695625 
L 500.372656 371.01718 
" clip-path="url(#pffa4f5cbcc)" style="fill: none; stroke: #383838; stroke-width: 1.35; stroke-linecap: square"/>
   </g>
   <g id="line2d_74">
    <path d="M 468.59625 336.695625 
L 485.503161 294.594736 
" clip-path="url(#pffa4f5cbcc)" style="fill: none; stroke: #383838; stroke-width: 1.35; stroke-linecap: square"/>
   </g>
   <g id="line2d_75">
    <path d="M 468.59625 336.695625 
L 468.59625 366.98941 
" clip-path="url(#pffa4f5cbcc)" style="fill: none; stroke: #383838; stroke-width: 1.35; stroke-linecap: square"/>
   </g>
   <g id="line2d_76">
    <path d="M 468.59625 366.98941 
L 500.372656 401.310966 
" clip-path="url(#pffa4f5cbcc)" style="fill: none; stroke: #383838; stroke-width: 1.35; stroke-linecap: square"/>
   </g>
   <g id="line2d_77">
    <path d="M 468.59625 366.98941 
L 485.503161 324.888522 
" clip-path="url(#pffa4f5cbcc)" style="fill: none; stroke: #383838; stroke-width: 1.35; stroke-linecap: square"/>
   </g>
   <g id="line2d_78">
    <path d="M 485.503161 294.594736 
L 517.279567 328.916292 
" clip-path="url(#pffa4f5cbcc)" style="fill: none; stroke: #383838; stroke-width: 1.35; stroke-linecap: square"/>
   </g>
   <g id="line2d_79">
    <path d="M 485.503161 294.594736 
L 485.503161 324.888522 
" clip-path="url(#pffa4f5cbcc)" style="fill: none; stroke: #383838; stroke-width: 1.35; stroke-linecap: square"/>
   </g>
   <g id="line2d_80">
    <path d="M 485.503161 324.888522 
L 517.279567 359.210077 
" clip-path="url(#pffa4f5cbcc)" style="fill: none; stroke: #383838; stroke-width: 1.35; stroke-linecap: square"/>
   </g>
   <g id="line2d_81">
    <path d="M 500.372656 371.01718 
L 517.279567 328.916292 
" clip-path="url(#pffa4f5cbcc)" style="fill: none; stroke: #383838; stroke-width: 1.35; stroke-linecap: square"/>
   </g>
   <g id="line2d_82">
    <path d="M 500.372656 371.01718 
L 500.372656 401.310966 
" clip-path="url(#pffa4f5cbcc)" style="fill: none; stroke: #383838; stroke-width: 1.35; stroke-linecap: square"/>
   </g>
   <g id="line2d_83">
    <path d="M 500.372656 401.310966 
L 517.279567 359.210077 
" clip-path="url(#pffa4f5cbcc)" style="fill: none; stroke: #383838; stroke-width: 1.35; stroke-linecap: square"/>
   </g>
   <g id="line2d_84">
    <path d="M 517.279567 328.916292 
L 517.279567 359.210077 
" clip-path="url(#pffa4f5cbcc)" style="fill: none; stroke: #383838; stroke-width: 1.35; stroke-linecap: square"/>
   </g>
   <g id="text_1">
    <!-- a -->
    <g transform="translate(105.238273 163.690231) scale(0.09 -0.09)">
     <defs>
      <path id="DejaVuSans-61" d="M 2194 1759 
Q 1497 1759 1228 1600 
Q 959 1441 959 1056 
Q 959 750 1161 570 
Q 1363 391 1709 391 
Q 2188 391 2477 730 
Q 2766 1069 2766 1631 
L 2766 1759 
L 2194 1759 
z
M 3341 1997 
L 3341 0 
L 2766 0 
L 2766 531 
Q 2569 213 2275 61 
Q 1981 -91 1556 -91 
Q 1019 -91 701 211 
Q 384 513 384 1019 
Q 384 1609 779 1909 
Q 1175 2209 1959 2209 
L 2766 2209 
L 2766 2266 
Q 2766 2663 2505 2880 
Q 2244 3097 1772 3097 
Q 1472 3097 1187 3025 
Q 903 2953 641 2809 
L 641 3341 
Q 956 3463 1253 3523 
Q 1550 3584 1831 3584 
Q 2591 3584 2966 3190 
Q 3341 2797 3341 1997 
z
" transform="scale(0.015625)"/>
     </defs>
     <use xlink:href="#DejaVuSans-61"/>
    </g>
   </g>
   <g id="text_2">
    <!-- b -->
    <g transform="translate(105.660056 119.452938) scale(0.09 -0.09)">
     <defs>
      <path id="DejaVuSans-62" d="M 3116 1747 
Q 3116 2381 2855 2742 
Q 2594 3103 2138 3103 
Q 1681 3103 1420 2742 
Q 1159 2381 1159 1747 
Q 1159 1113 1420 752 
Q 1681 391 2138 391 
Q 2594 391 2855 752 
Q 3116 1113 3116 1747 
z
M 1159 2969 
Q 1341 3281 1617 3432 
Q 1894 3584 2278 3584 
Q 2916 3584 3314 3078 
Q 3713 2572 3713 1747 
Q 3713 922 3314 415 
Q 2916 -91 2278 -91 
Q 1894 -91 1617 61 
Q 1341 213 1159 525 
L 1159 0 
L 581 0 
L 581 4863 
L 1159 4863 
L 1159 2969 
z
" transform="scale(0.015625)"/>
     </defs>
     <use xlink:href="#DejaVuSans-62"/>
    </g>
   </g>
   <g id="text_3">
    <!-- c -->
    <g transform="translate(90.69075 147.881809) scale(0.09 -0.09)">
     <defs>
      <path id="DejaVuSans-63" d="M 3122 3366 
L 3122 2828 
Q 2878 2963 2633 3030 
Q 2388 3097 2138 3097 
Q 1578 3097 1268 2742 
Q 959 2388 959 1747 
Q 959 1106 1268 751 
Q 1578 397 2138 397 
Q 2388 397 2633 464 
Q 2878 531 3122 666 
L 3122 134 
Q 2881 22 2623 -34 
Q 2366 -91 2075 -91 
Q 1284 -91 818 406 
Q 353 903 353 1747 
Q 353 2603 823 3093 
Q 1294 3584 2113 3584 
Q 2378 3584 2631 3529 
Q 2884 3475 3122 3366 
z
" transform="scale(0.015625)"/>
     </defs>
     <use xlink:href="#DejaVuSans-63"/>
    </g>
   </g>
   <g id="text_4">
    <!-- cubico -->
    <g transform="translate(60.400312 93.180937) scale(0.11 -0.11)">
     <defs>
      <path id="DejaVuSans-Bold-63" d="M 3366 3391 
L 3366 2478 
Q 3138 2634 2908 2709 
Q 2678 2784 2431 2784 
Q 1963 2784 1702 2511 
Q 1441 2238 1441 1747 
Q 1441 1256 1702 982 
Q 1963 709 2431 709 
Q 2694 709 2930 787 
Q 3166 866 3366 1019 
L 3366 103 
Q 3103 6 2833 -42 
Q 2563 -91 2291 -91 
Q 1344 -91 809 395 
Q 275 881 275 1747 
Q 275 2613 809 3098 
Q 1344 3584 2291 3584 
Q 2566 3584 2833 3536 
Q 3100 3488 3366 3391 
z
" transform="scale(0.015625)"/>
      <path id="DejaVuSans-Bold-75" d="M 500 1363 
L 500 3500 
L 1625 3500 
L 1625 3150 
Q 1625 2866 1622 2436 
Q 1619 2006 1619 1863 
Q 1619 1441 1641 1255 
Q 1663 1069 1716 984 
Q 1784 875 1895 815 
Q 2006 756 2150 756 
Q 2500 756 2700 1025 
Q 2900 1294 2900 1772 
L 2900 3500 
L 4019 3500 
L 4019 0 
L 2900 0 
L 2900 506 
Q 2647 200 2364 54 
Q 2081 -91 1741 -91 
Q 1134 -91 817 281 
Q 500 653 500 1363 
z
" transform="scale(0.015625)"/>
      <path id="DejaVuSans-Bold-62" d="M 2400 722 
Q 2759 722 2948 984 
Q 3138 1247 3138 1747 
Q 3138 2247 2948 2509 
Q 2759 2772 2400 2772 
Q 2041 2772 1848 2508 
Q 1656 2244 1656 1747 
Q 1656 1250 1848 986 
Q 2041 722 2400 722 
z
M 1656 2988 
Q 1888 3294 2169 3439 
Q 2450 3584 2816 3584 
Q 3463 3584 3878 3070 
Q 4294 2556 4294 1747 
Q 4294 938 3878 423 
Q 3463 -91 2816 -91 
Q 2450 -91 2169 54 
Q 1888 200 1656 506 
L 1656 0 
L 538 0 
L 538 4863 
L 1656 4863 
L 1656 2988 
z
" transform="scale(0.015625)"/>
      <path id="DejaVuSans-Bold-69" d="M 538 3500 
L 1656 3500 
L 1656 0 
L 538 0 
L 538 3500 
z
M 538 4863 
L 1656 4863 
L 1656 3950 
L 538 3950 
L 538 4863 
z
" transform="scale(0.015625)"/>
      <path id="DejaVuSans-Bold-6f" d="M 2203 2784 
Q 1831 2784 1636 2517 
Q 1441 2250 1441 1747 
Q 1441 1244 1636 976 
Q 1831 709 2203 709 
Q 2569 709 2762 976 
Q 2956 1244 2956 1747 
Q 2956 2250 2762 2517 
Q 2569 2784 2203 2784 
z
M 2203 3584 
Q 3106 3584 3614 3096 
Q 4122 2609 4122 1747 
Q 4122 884 3614 396 
Q 3106 -91 2203 -91 
Q 1297 -91 786 396 
Q 275 884 275 1747 
Q 275 2609 786 3096 
Q 1297 3584 2203 3584 
z
" transform="scale(0.015625)"/>
     </defs>
     <use xlink:href="#DejaVuSans-Bold-63"/>
     <use xlink:href="#DejaVuSans-Bold-75" transform="translate(59.277344 0)"/>
     <use xlink:href="#DejaVuSans-Bold-62" transform="translate(130.46875 0)"/>
     <use xlink:href="#DejaVuSans-Bold-69" transform="translate(202.050781 0)"/>
     <use xlink:href="#DejaVuSans-Bold-63" transform="translate(236.328125 0)"/>
     <use xlink:href="#DejaVuSans-Bold-6f" transform="translate(295.605469 0)"/>
    </g>
   </g>
   <g id="text_5">
    <!-- a=b=c; α=β=γ=90° -->
    <g transform="translate(37.16175 214.022812) scale(0.084 -0.084)">
     <defs>
      <path id="DejaVuSans-3d" d="M 678 2906 
L 4684 2906 
L 4684 2381 
L 678 2381 
L 678 2906 
z
M 678 1631 
L 4684 1631 
L 4684 1100 
L 678 1100 
L 678 1631 
z
" transform="scale(0.015625)"/>
      <path id="DejaVuSans-3b" d="M 750 3309 
L 1409 3309 
L 1409 2516 
L 750 2516 
L 750 3309 
z
M 750 794 
L 1409 794 
L 1409 256 
L 897 -744 
L 494 -744 
L 750 256 
L 750 794 
z
" transform="scale(0.015625)"/>
      <path id="DejaVuSans-20" transform="scale(0.015625)"/>
      <path id="DejaVuSans-3b1" d="M 2644 1628 
L 2506 2350 
Q 2366 3091 1809 3091 
Q 1391 3091 1200 2747 
Q 959 2316 959 1747 
Q 959 1059 1194 731 
Q 1431 397 1809 397 
Q 2228 397 2453 1063 
L 2644 1628 
z
M 2966 2584 
L 3275 3500 
L 3788 3500 
L 3147 1603 
L 3272 919 
Q 3300 766 3409 638 
Q 3538 488 3638 488 
L 3913 488 
L 3913 0 
L 3569 0 
Q 3275 0 3013 263 
Q 2884 394 2831 669 
Q 2688 322 2394 50 
Q 2256 -78 1809 -78 
Q 1075 -78 719 397 
Q 353 888 353 1747 
Q 353 2666 750 3097 
Q 1191 3578 1809 3578 
Q 2781 3578 2966 2584 
z
" transform="scale(0.015625)"/>
      <path id="DejaVuSans-3b2" d="M 1178 216 
L 1178 -1331 
L 600 -1331 
L 600 3478 
Q 600 4903 1931 4903 
Q 3288 4903 3288 3700 
Q 3288 2844 2750 2531 
Q 3625 2250 3625 1416 
Q 3625 -66 2119 -66 
Q 1456 -66 1178 216 
z
M 1178 966 
Q 1525 425 2141 425 
Q 3041 425 3041 1406 
Q 3041 2288 1591 2219 
L 1591 2750 
Q 2725 2750 2725 3750 
Q 2725 4434 1994 4434 
Q 1178 4434 1178 3459 
L 1178 966 
z
" transform="scale(0.015625)"/>
      <path id="DejaVuSans-3b3" d="M 1128 2950 
L 1894 788 
L 2988 3500 
L 3597 3500 
L 2181 0 
L 2181 -1331 
L 1606 -1331 
L 1606 0 
L 688 2613 
Q 550 3006 253 3006 
L 100 3006 
L 100 3500 
L 319 3500 
Q 934 3500 1128 2950 
z
" transform="scale(0.015625)"/>
      <path id="DejaVuSans-39" d="M 703 97 
L 703 672 
Q 941 559 1184 500 
Q 1428 441 1663 441 
Q 2288 441 2617 861 
Q 2947 1281 2994 2138 
Q 2813 1869 2534 1725 
Q 2256 1581 1919 1581 
Q 1219 1581 811 2004 
Q 403 2428 403 3163 
Q 403 3881 828 4315 
Q 1253 4750 1959 4750 
Q 2769 4750 3195 4129 
Q 3622 3509 3622 2328 
Q 3622 1225 3098 567 
Q 2575 -91 1691 -91 
Q 1453 -91 1209 -44 
Q 966 3 703 97 
z
M 1959 2075 
Q 2384 2075 2632 2365 
Q 2881 2656 2881 3163 
Q 2881 3666 2632 3958 
Q 2384 4250 1959 4250 
Q 1534 4250 1286 3958 
Q 1038 3666 1038 3163 
Q 1038 2656 1286 2365 
Q 1534 2075 1959 2075 
z
" transform="scale(0.015625)"/>
      <path id="DejaVuSans-30" d="M 2034 4250 
Q 1547 4250 1301 3770 
Q 1056 3291 1056 2328 
Q 1056 1369 1301 889 
Q 1547 409 2034 409 
Q 2525 409 2770 889 
Q 3016 1369 3016 2328 
Q 3016 3291 2770 3770 
Q 2525 4250 2034 4250 
z
M 2034 4750 
Q 2819 4750 3233 4129 
Q 3647 3509 3647 2328 
Q 3647 1150 3233 529 
Q 2819 -91 2034 -91 
Q 1250 -91 836 529 
Q 422 1150 422 2328 
Q 422 3509 836 4129 
Q 1250 4750 2034 4750 
z
" transform="scale(0.015625)"/>
      <path id="DejaVuSans-b0" d="M 1600 4347 
Q 1350 4347 1178 4173 
Q 1006 4000 1006 3750 
Q 1006 3503 1178 3333 
Q 1350 3163 1600 3163 
Q 1850 3163 2022 3333 
Q 2194 3503 2194 3750 
Q 2194 3997 2020 4172 
Q 1847 4347 1600 4347 
z
M 1600 4750 
Q 1800 4750 1984 4673 
Q 2169 4597 2303 4453 
Q 2447 4313 2519 4134 
Q 2591 3956 2591 3750 
Q 2591 3338 2302 3052 
Q 2013 2766 1594 2766 
Q 1172 2766 890 3047 
Q 609 3328 609 3750 
Q 609 4169 896 4459 
Q 1184 4750 1600 4750 
z
" transform="scale(0.015625)"/>
     </defs>
     <use xlink:href="#DejaVuSans-61"/>
     <use xlink:href="#DejaVuSans-3d" transform="translate(61.279297 0)"/>
     <use xlink:href="#DejaVuSans-62" transform="translate(145.068359 0)"/>
     <use xlink:href="#DejaVuSans-3d" transform="translate(208.544922 0)"/>
     <use xlink:href="#DejaVuSans-63" transform="translate(292.333984 0)"/>
     <use xlink:href="#DejaVuSans-3b" transform="translate(347.314453 0)"/>
     <use xlink:href="#DejaVuSans-20" transform="translate(381.005859 0)"/>
     <use xlink:href="#DejaVuSans-3b1" transform="translate(412.792969 0)"/>
     <use xlink:href="#DejaVuSans-3d" transform="translate(478.710938 0)"/>
     <use xlink:href="#DejaVuSans-3b2" transform="translate(562.5 0)"/>
     <use xlink:href="#DejaVuSans-3d" transform="translate(626.318359 0)"/>
     <use xlink:href="#DejaVuSans-3b3" transform="translate(710.107422 0)"/>
     <use xlink:href="#DejaVuSans-3d" transform="translate(769.287109 0)"/>
     <use xlink:href="#DejaVuSans-39" transform="translate(853.076172 0)"/>
     <use xlink:href="#DejaVuSans-30" transform="translate(916.699219 0)"/>
     <use xlink:href="#DejaVuSans-b0" transform="translate(980.322266 0)"/>
    </g>
   </g>
   <g id="text_6">
    <!-- a -->
    <g transform="translate(266.360773 163.690231) scale(0.09 -0.09)">
     <use xlink:href="#DejaVuSans-61"/>
    </g>
   </g>
   <g id="text_7">
    <!-- b -->
    <g transform="translate(266.782556 119.452938) scale(0.09 -0.09)">
     <use xlink:href="#DejaVuSans-62"/>
    </g>
   </g>
   <g id="text_8">
    <!-- c -->
    <g transform="translate(251.81325 153.052645) scale(0.09 -0.09)">
     <use xlink:href="#DejaVuSans-63"/>
    </g>
   </g>
   <g id="text_9">
    <!-- tetragonale -->
    <g transform="translate(190.542031 93.180937) scale(0.11 -0.11)">
     <defs>
      <path id="DejaVuSans-Bold-74" d="M 1759 4494 
L 1759 3500 
L 2913 3500 
L 2913 2700 
L 1759 2700 
L 1759 1216 
Q 1759 972 1856 886 
Q 1953 800 2241 800 
L 2816 800 
L 2816 0 
L 1856 0 
Q 1194 0 917 276 
Q 641 553 641 1216 
L 641 2700 
L 84 2700 
L 84 3500 
L 641 3500 
L 641 4494 
L 1759 4494 
z
" transform="scale(0.015625)"/>
      <path id="DejaVuSans-Bold-65" d="M 4031 1759 
L 4031 1441 
L 1416 1441 
Q 1456 1047 1700 850 
Q 1944 653 2381 653 
Q 2734 653 3104 758 
Q 3475 863 3866 1075 
L 3866 213 
Q 3469 63 3072 -14 
Q 2675 -91 2278 -91 
Q 1328 -91 801 392 
Q 275 875 275 1747 
Q 275 2603 792 3093 
Q 1309 3584 2216 3584 
Q 3041 3584 3536 3087 
Q 4031 2591 4031 1759 
z
M 2881 2131 
Q 2881 2450 2695 2645 
Q 2509 2841 2209 2841 
Q 1884 2841 1681 2658 
Q 1478 2475 1428 2131 
L 2881 2131 
z
" transform="scale(0.015625)"/>
      <path id="DejaVuSans-Bold-72" d="M 3138 2547 
Q 2991 2616 2845 2648 
Q 2700 2681 2553 2681 
Q 2122 2681 1889 2404 
Q 1656 2128 1656 1613 
L 1656 0 
L 538 0 
L 538 3500 
L 1656 3500 
L 1656 2925 
Q 1872 3269 2151 3426 
Q 2431 3584 2822 3584 
Q 2878 3584 2943 3579 
Q 3009 3575 3134 3559 
L 3138 2547 
z
" transform="scale(0.015625)"/>
      <path id="DejaVuSans-Bold-61" d="M 2106 1575 
Q 1756 1575 1579 1456 
Q 1403 1338 1403 1106 
Q 1403 894 1545 773 
Q 1688 653 1941 653 
Q 2256 653 2472 879 
Q 2688 1106 2688 1447 
L 2688 1575 
L 2106 1575 
z
M 3816 1997 
L 3816 0 
L 2688 0 
L 2688 519 
Q 2463 200 2181 54 
Q 1900 -91 1497 -91 
Q 953 -91 614 226 
Q 275 544 275 1050 
Q 275 1666 698 1953 
Q 1122 2241 2028 2241 
L 2688 2241 
L 2688 2328 
Q 2688 2594 2478 2717 
Q 2269 2841 1825 2841 
Q 1466 2841 1156 2769 
Q 847 2697 581 2553 
L 581 3406 
Q 941 3494 1303 3539 
Q 1666 3584 2028 3584 
Q 2975 3584 3395 3211 
Q 3816 2838 3816 1997 
z
" transform="scale(0.015625)"/>
      <path id="DejaVuSans-Bold-67" d="M 2919 594 
Q 2688 288 2409 144 
Q 2131 0 1766 0 
Q 1125 0 706 504 
Q 288 1009 288 1791 
Q 288 2575 706 3076 
Q 1125 3578 1766 3578 
Q 2131 3578 2409 3434 
Q 2688 3291 2919 2981 
L 2919 3500 
L 4044 3500 
L 4044 353 
Q 4044 -491 3511 -936 
Q 2978 -1381 1966 -1381 
Q 1638 -1381 1331 -1331 
Q 1025 -1281 716 -1178 
L 716 -306 
Q 1009 -475 1290 -558 
Q 1572 -641 1856 -641 
Q 2406 -641 2662 -400 
Q 2919 -159 2919 353 
L 2919 594 
z
M 2181 2772 
Q 1834 2772 1640 2515 
Q 1447 2259 1447 1791 
Q 1447 1309 1634 1061 
Q 1822 813 2181 813 
Q 2531 813 2725 1069 
Q 2919 1325 2919 1791 
Q 2919 2259 2725 2515 
Q 2531 2772 2181 2772 
z
" transform="scale(0.015625)"/>
      <path id="DejaVuSans-Bold-6e" d="M 4056 2131 
L 4056 0 
L 2931 0 
L 2931 347 
L 2931 1631 
Q 2931 2084 2911 2256 
Q 2891 2428 2841 2509 
Q 2775 2619 2662 2680 
Q 2550 2741 2406 2741 
Q 2056 2741 1856 2470 
Q 1656 2200 1656 1722 
L 1656 0 
L 538 0 
L 538 3500 
L 1656 3500 
L 1656 2988 
Q 1909 3294 2193 3439 
Q 2478 3584 2822 3584 
Q 3428 3584 3742 3212 
Q 4056 2841 4056 2131 
z
" transform="scale(0.015625)"/>
      <path id="DejaVuSans-Bold-6c" d="M 538 4863 
L 1656 4863 
L 1656 0 
L 538 0 
L 538 4863 
z
" transform="scale(0.015625)"/>
     </defs>
     <use xlink:href="#DejaVuSans-Bold-74"/>
     <use xlink:href="#DejaVuSans-Bold-65" transform="translate(47.802734 0)"/>
     <use xlink:href="#DejaVuSans-Bold-74" transform="translate(115.625 0)"/>
     <use xlink:href="#DejaVuSans-Bold-72" transform="translate(163.427734 0)"/>
     <use xlink:href="#DejaVuSans-Bold-61" transform="translate(212.744141 0)"/>
     <use xlink:href="#DejaVuSans-Bold-67" transform="translate(280.224609 0)"/>
     <use xlink:href="#DejaVuSans-Bold-6f" transform="translate(351.806641 0)"/>
     <use xlink:href="#DejaVuSans-Bold-6e" transform="translate(420.507812 0)"/>
     <use xlink:href="#DejaVuSans-Bold-61" transform="translate(491.699219 0)"/>
     <use xlink:href="#DejaVuSans-Bold-6c" transform="translate(559.179688 0)"/>
     <use xlink:href="#DejaVuSans-Bold-65" transform="translate(593.457031 0)"/>
    </g>
   </g>
   <g id="text_10">
    <!-- a=b≠c; α=β=γ=90° -->
    <g transform="translate(183.63675 214.022812) scale(0.084 -0.084)">
     <defs>
      <path id="DejaVuSans-2260" d="M 678 2906 
L 3091 2906 
L 3891 3891 
L 4281 3572 
L 3738 2906 
L 4684 2906 
L 4684 2381 
L 3309 2381 
L 2700 1631 
L 4684 1631 
L 4684 1100 
L 2266 1100 
L 1459 122 
L 1069 441 
L 1613 1100 
L 678 1100 
L 678 1631 
L 2047 1631 
L 2656 2381 
L 678 2381 
L 678 2906 
z
" transform="scale(0.015625)"/>
     </defs>
     <use xlink:href="#DejaVuSans-61"/>
     <use xlink:href="#DejaVuSans-3d" transform="translate(61.279297 0)"/>
     <use xlink:href="#DejaVuSans-62" transform="translate(145.068359 0)"/>
     <use xlink:href="#DejaVuSans-2260" transform="translate(208.544922 0)"/>
     <use xlink:href="#DejaVuSans-63" transform="translate(292.333984 0)"/>
     <use xlink:href="#DejaVuSans-3b" transform="translate(347.314453 0)"/>
     <use xlink:href="#DejaVuSans-20" transform="translate(381.005859 0)"/>
     <use xlink:href="#DejaVuSans-3b1" transform="translate(412.792969 0)"/>
     <use xlink:href="#DejaVuSans-3d" transform="translate(478.710938 0)"/>
     <use xlink:href="#DejaVuSans-3b2" transform="translate(562.5 0)"/>
     <use xlink:href="#DejaVuSans-3d" transform="translate(626.318359 0)"/>
     <use xlink:href="#DejaVuSans-3b3" transform="translate(710.107422 0)"/>
     <use xlink:href="#DejaVuSans-3d" transform="translate(769.287109 0)"/>
     <use xlink:href="#DejaVuSans-39" transform="translate(853.076172 0)"/>
     <use xlink:href="#DejaVuSans-30" transform="translate(916.699219 0)"/>
     <use xlink:href="#DejaVuSans-b0" transform="translate(980.322266 0)"/>
    </g>
   </g>
   <g id="text_11">
    <!-- a -->
    <g transform="translate(431.852529 168.409444) scale(0.09 -0.09)">
     <use xlink:href="#DejaVuSans-61"/>
    </g>
   </g>
   <g id="text_12">
    <!-- b -->
    <g transform="translate(423.739394 122.62085) scale(0.09 -0.09)">
     <use xlink:href="#DejaVuSans-62"/>
    </g>
   </g>
   <g id="text_13">
    <!-- c -->
    <g transform="translate(412.93575 153.052645) scale(0.09 -0.09)">
     <use xlink:href="#DejaVuSans-63"/>
    </g>
   </g>
   <g id="text_14">
    <!-- ortorombico -->
    <g transform="translate(335.405703 93.180937) scale(0.11 -0.11)">
     <defs>
      <path id="DejaVuSans-Bold-6d" d="M 3781 2919 
Q 3994 3244 4286 3414 
Q 4578 3584 4928 3584 
Q 5531 3584 5847 3212 
Q 6163 2841 6163 2131 
L 6163 0 
L 5038 0 
L 5038 1825 
Q 5041 1866 5042 1909 
Q 5044 1953 5044 2034 
Q 5044 2406 4934 2573 
Q 4825 2741 4581 2741 
Q 4263 2741 4089 2478 
Q 3916 2216 3909 1719 
L 3909 0 
L 2784 0 
L 2784 1825 
Q 2784 2406 2684 2573 
Q 2584 2741 2328 2741 
Q 2006 2741 1831 2477 
Q 1656 2213 1656 1722 
L 1656 0 
L 531 0 
L 531 3500 
L 1656 3500 
L 1656 2988 
Q 1863 3284 2130 3434 
Q 2397 3584 2719 3584 
Q 3081 3584 3359 3409 
Q 3638 3234 3781 2919 
z
" transform="scale(0.015625)"/>
     </defs>
     <use xlink:href="#DejaVuSans-Bold-6f"/>
     <use xlink:href="#DejaVuSans-Bold-72" transform="translate(68.701172 0)"/>
     <use xlink:href="#DejaVuSans-Bold-74" transform="translate(118.017578 0)"/>
     <use xlink:href="#DejaVuSans-Bold-6f" transform="translate(165.820312 0)"/>
     <use xlink:href="#DejaVuSans-Bold-72" transform="translate(234.521484 0)"/>
     <use xlink:href="#DejaVuSans-Bold-6f" transform="translate(283.837891 0)"/>
     <use xlink:href="#DejaVuSans-Bold-6d" transform="translate(352.539062 0)"/>
     <use xlink:href="#DejaVuSans-Bold-62" transform="translate(456.738281 0)"/>
     <use xlink:href="#DejaVuSans-Bold-69" transform="translate(528.320312 0)"/>
     <use xlink:href="#DejaVuSans-Bold-63" transform="translate(562.597656 0)"/>
     <use xlink:href="#DejaVuSans-Bold-6f" transform="translate(621.875 0)"/>
    </g>
   </g>
   <g id="text_15">
    <!-- a≠b≠c; α=β=γ=90° -->
    <g transform="translate(330.11175 214.022812) scale(0.084 -0.084)">
     <use xlink:href="#DejaVuSans-61"/>
     <use xlink:href="#DejaVuSans-2260" transform="translate(61.279297 0)"/>
     <use xlink:href="#DejaVuSans-62" transform="translate(145.068359 0)"/>
     <use xlink:href="#DejaVuSans-2260" transform="translate(208.544922 0)"/>
     <use xlink:href="#DejaVuSans-63" transform="translate(292.333984 0)"/>
     <use xlink:href="#DejaVuSans-3b" transform="translate(347.314453 0)"/>
     <use xlink:href="#DejaVuSans-20" transform="translate(381.005859 0)"/>
     <use xlink:href="#DejaVuSans-3b1" transform="translate(412.792969 0)"/>
     <use xlink:href="#DejaVuSans-3d" transform="translate(478.710938 0)"/>
     <use xlink:href="#DejaVuSans-3b2" transform="translate(562.5 0)"/>
     <use xlink:href="#DejaVuSans-3d" transform="translate(626.318359 0)"/>
     <use xlink:href="#DejaVuSans-3b3" transform="translate(710.107422 0)"/>
     <use xlink:href="#DejaVuSans-3d" transform="translate(769.287109 0)"/>
     <use xlink:href="#DejaVuSans-39" transform="translate(853.076172 0)"/>
     <use xlink:href="#DejaVuSans-30" transform="translate(916.699219 0)"/>
     <use xlink:href="#DejaVuSans-b0" transform="translate(980.322266 0)"/>
    </g>
   </g>
   <g id="text_16">
    <!-- a -->
    <g transform="translate(592.101178 167.465602) scale(0.09 -0.09)">
     <use xlink:href="#DejaVuSans-61"/>
    </g>
   </g>
   <g id="text_17">
    <!-- b -->
    <g transform="translate(585.90331 121.828872) scale(0.09 -0.09)">
     <use xlink:href="#DejaVuSans-62"/>
    </g>
   </g>
   <g id="text_18">
    <!-- c -->
    <g transform="translate(580.699519 159.076775) scale(0.09 -0.09)">
     <use xlink:href="#DejaVuSans-63"/>
    </g>
   </g>
   <g id="text_19">
    <!-- monoclino -->
    <g transform="translate(487.933281 93.180937) scale(0.11 -0.11)">
     <use xlink:href="#DejaVuSans-Bold-6d"/>
     <use xlink:href="#DejaVuSans-Bold-6f" transform="translate(104.199219 0)"/>
     <use xlink:href="#DejaVuSans-Bold-6e" transform="translate(172.900391 0)"/>
     <use xlink:href="#DejaVuSans-Bold-6f" transform="translate(244.091797 0)"/>
     <use xlink:href="#DejaVuSans-Bold-63" transform="translate(312.792969 0)"/>
     <use xlink:href="#DejaVuSans-Bold-6c" transform="translate(372.070312 0)"/>
     <use xlink:href="#DejaVuSans-Bold-69" transform="translate(406.347656 0)"/>
     <use xlink:href="#DejaVuSans-Bold-6e" transform="translate(440.625 0)"/>
     <use xlink:href="#DejaVuSans-Bold-6f" transform="translate(511.816406 0)"/>
    </g>
   </g>
   <g id="text_20">
    <!-- a≠b≠c; α=γ=90°, β≠90° -->
    <g transform="translate(466.472625 214.022812) scale(0.084 -0.084)">
     <defs>
      <path id="DejaVuSans-2c" d="M 750 794 
L 1409 794 
L 1409 256 
L 897 -744 
L 494 -744 
L 750 256 
L 750 794 
z
" transform="scale(0.015625)"/>
     </defs>
     <use xlink:href="#DejaVuSans-61"/>
     <use xlink:href="#DejaVuSans-2260" transform="translate(61.279297 0)"/>
     <use xlink:href="#DejaVuSans-62" transform="translate(145.068359 0)"/>
     <use xlink:href="#DejaVuSans-2260" transform="translate(208.544922 0)"/>
     <use xlink:href="#DejaVuSans-63" transform="translate(292.333984 0)"/>
     <use xlink:href="#DejaVuSans-3b" transform="translate(347.314453 0)"/>
     <use xlink:href="#DejaVuSans-20" transform="translate(381.005859 0)"/>
     <use xlink:href="#DejaVuSans-3b1" transform="translate(412.792969 0)"/>
     <use xlink:href="#DejaVuSans-3d" transform="translate(478.710938 0)"/>
     <use xlink:href="#DejaVuSans-3b3" transform="translate(562.5 0)"/>
     <use xlink:href="#DejaVuSans-3d" transform="translate(621.679688 0)"/>
     <use xlink:href="#DejaVuSans-39" transform="translate(705.46875 0)"/>
     <use xlink:href="#DejaVuSans-30" transform="translate(769.091797 0)"/>
     <use xlink:href="#DejaVuSans-b0" transform="translate(832.714844 0)"/>
     <use xlink:href="#DejaVuSans-2c" transform="translate(882.714844 0)"/>
     <use xlink:href="#DejaVuSans-20" transform="translate(914.501953 0)"/>
     <use xlink:href="#DejaVuSans-3b2" transform="translate(946.289062 0)"/>
     <use xlink:href="#DejaVuSans-2260" transform="translate(1010.107422 0)"/>
     <use xlink:href="#DejaVuSans-39" transform="translate(1093.896484 0)"/>
     <use xlink:href="#DejaVuSans-30" transform="translate(1157.519531 0)"/>
     <use xlink:href="#DejaVuSans-b0" transform="translate(1221.142578 0)"/>
    </g>
   </g>
   <g id="text_21">
    <!-- a -->
    <g transform="translate(164.252702 351.812634) scale(0.09 -0.09)">
     <use xlink:href="#DejaVuSans-61"/>
    </g>
   </g>
   <g id="text_22">
    <!-- b -->
    <g transform="translate(164.171792 312.782804) scale(0.09 -0.09)">
     <use xlink:href="#DejaVuSans-62"/>
    </g>
   </g>
   <g id="text_23">
    <!-- c -->
    <g transform="translate(159.530513 341.055251) scale(0.09 -0.09)">
     <use xlink:href="#DejaVuSans-63"/>
    </g>
   </g>
   <g id="text_24">
    <!-- triclino -->
    <g transform="translate(109.751875 261.627187) scale(0.11 -0.11)">
     <use xlink:href="#DejaVuSans-Bold-74"/>
     <use xlink:href="#DejaVuSans-Bold-72" transform="translate(47.802734 0)"/>
     <use xlink:href="#DejaVuSans-Bold-69" transform="translate(97.119141 0)"/>
     <use xlink:href="#DejaVuSans-Bold-63" transform="translate(131.396484 0)"/>
     <use xlink:href="#DejaVuSans-Bold-6c" transform="translate(190.673828 0)"/>
     <use xlink:href="#DejaVuSans-Bold-69" transform="translate(224.951172 0)"/>
     <use xlink:href="#DejaVuSans-Bold-6e" transform="translate(259.228516 0)"/>
     <use xlink:href="#DejaVuSans-Bold-6f" transform="translate(330.419922 0)"/>
    </g>
   </g>
   <g id="text_25">
    <!-- a≠b≠c; α≠β≠γ -->
    <g transform="translate(99.391969 382.469062) scale(0.084 -0.084)">
     <use xlink:href="#DejaVuSans-61"/>
     <use xlink:href="#DejaVuSans-2260" transform="translate(61.279297 0)"/>
     <use xlink:href="#DejaVuSans-62" transform="translate(145.068359 0)"/>
     <use xlink:href="#DejaVuSans-2260" transform="translate(208.544922 0)"/>
     <use xlink:href="#DejaVuSans-63" transform="translate(292.333984 0)"/>
     <use xlink:href="#DejaVuSans-3b" transform="translate(347.314453 0)"/>
     <use xlink:href="#DejaVuSans-20" transform="translate(381.005859 0)"/>
     <use xlink:href="#DejaVuSans-3b1" transform="translate(412.792969 0)"/>
     <use xlink:href="#DejaVuSans-2260" transform="translate(478.710938 0)"/>
     <use xlink:href="#DejaVuSans-3b2" transform="translate(562.5 0)"/>
     <use xlink:href="#DejaVuSans-2260" transform="translate(626.318359 0)"/>
     <use xlink:href="#DejaVuSans-3b3" transform="translate(710.107422 0)"/>
    </g>
   </g>
   <g id="text_26">
    <!-- a -->
    <g transform="translate(346.922023 348.981106) scale(0.09 -0.09)">
     <use xlink:href="#DejaVuSans-61"/>
    </g>
   </g>
   <g id="text_27">
    <!-- b -->
    <g transform="translate(352.211065 312.301086) scale(0.09 -0.09)">
     <use xlink:href="#DejaVuSans-62"/>
    </g>
   </g>
   <g id="text_28">
    <!-- c -->
    <g transform="translate(343.698535 334.670618) scale(0.09 -0.09)">
     <use xlink:href="#DejaVuSans-63"/>
    </g>
   </g>
   <g id="text_29">
    <!-- trigonale -->
    <g transform="translate(271.965078 261.627187) scale(0.11 -0.11)">
     <use xlink:href="#DejaVuSans-Bold-74"/>
     <use xlink:href="#DejaVuSans-Bold-72" transform="translate(47.802734 0)"/>
     <use xlink:href="#DejaVuSans-Bold-69" transform="translate(97.119141 0)"/>
     <use xlink:href="#DejaVuSans-Bold-67" transform="translate(131.396484 0)"/>
     <use xlink:href="#DejaVuSans-Bold-6f" transform="translate(202.978516 0)"/>
     <use xlink:href="#DejaVuSans-Bold-6e" transform="translate(271.679688 0)"/>
     <use xlink:href="#DejaVuSans-Bold-61" transform="translate(342.871094 0)"/>
     <use xlink:href="#DejaVuSans-Bold-6c" transform="translate(410.351562 0)"/>
     <use xlink:href="#DejaVuSans-Bold-65" transform="translate(444.628906 0)"/>
    </g>
   </g>
   <g id="text_30">
    <!-- a=b=c; α=β=γ≠90° -->
    <g transform="translate(256.87425 382.469062) scale(0.084 -0.084)">
     <use xlink:href="#DejaVuSans-61"/>
     <use xlink:href="#DejaVuSans-3d" transform="translate(61.279297 0)"/>
     <use xlink:href="#DejaVuSans-62" transform="translate(145.068359 0)"/>
     <use xlink:href="#DejaVuSans-3d" transform="translate(208.544922 0)"/>
     <use xlink:href="#DejaVuSans-63" transform="translate(292.333984 0)"/>
     <use xlink:href="#DejaVuSans-3b" transform="translate(347.314453 0)"/>
     <use xlink:href="#DejaVuSans-20" transform="translate(381.005859 0)"/>
     <use xlink:href="#DejaVuSans-3b1" transform="translate(412.792969 0)"/>
     <use xlink:href="#DejaVuSans-3d" transform="translate(478.710938 0)"/>
     <use xlink:href="#DejaVuSans-3b2" transform="translate(562.5 0)"/>
     <use xlink:href="#DejaVuSans-3d" transform="translate(626.318359 0)"/>
     <use xlink:href="#DejaVuSans-3b3" transform="translate(710.107422 0)"/>
     <use xlink:href="#DejaVuSans-2260" transform="translate(769.287109 0)"/>
     <use xlink:href="#DejaVuSans-39" transform="translate(853.076172 0)"/>
     <use xlink:href="#DejaVuSans-30" transform="translate(916.699219 0)"/>
     <use xlink:href="#DejaVuSans-b0" transform="translate(980.322266 0)"/>
    </g>
   </g>
   <g id="text_31">
    <!-- a -->
    <g transform="translate(532.212898 348.981106) scale(0.09 -0.09)">
     <use xlink:href="#DejaVuSans-61"/>
    </g>
   </g>
   <g id="text_32">
    <!-- b -->
    <g transform="translate(521.105176 297.427886) scale(0.09 -0.09)">
     <use xlink:href="#DejaVuSans-62"/>
    </g>
   </g>
   <g id="text_33">
    <!-- c -->
    <g transform="translate(517.665375 338.34352) scale(0.09 -0.09)">
     <use xlink:href="#DejaVuSans-63"/>
    </g>
   </g>
   <g id="text_34">
    <!-- esagonale -->
    <g transform="translate(436.922266 261.627187) scale(0.11 -0.11)">
     <defs>
      <path id="DejaVuSans-Bold-73" d="M 3272 3391 
L 3272 2541 
Q 2913 2691 2578 2766 
Q 2244 2841 1947 2841 
Q 1628 2841 1473 2761 
Q 1319 2681 1319 2516 
Q 1319 2381 1436 2309 
Q 1553 2238 1856 2203 
L 2053 2175 
Q 2913 2066 3209 1816 
Q 3506 1566 3506 1031 
Q 3506 472 3093 190 
Q 2681 -91 1863 -91 
Q 1516 -91 1145 -36 
Q 775 19 384 128 
L 384 978 
Q 719 816 1070 734 
Q 1422 653 1784 653 
Q 2113 653 2278 743 
Q 2444 834 2444 1013 
Q 2444 1163 2330 1236 
Q 2216 1309 1875 1350 
L 1678 1375 
Q 931 1469 631 1722 
Q 331 1975 331 2491 
Q 331 3047 712 3315 
Q 1094 3584 1881 3584 
Q 2191 3584 2531 3537 
Q 2872 3491 3272 3391 
z
" transform="scale(0.015625)"/>
     </defs>
     <use xlink:href="#DejaVuSans-Bold-65"/>
     <use xlink:href="#DejaVuSans-Bold-73" transform="translate(67.822266 0)"/>
     <use xlink:href="#DejaVuSans-Bold-61" transform="translate(127.34375 0)"/>
     <use xlink:href="#DejaVuSans-Bold-67" transform="translate(194.824219 0)"/>
     <use xlink:href="#DejaVuSans-Bold-6f" transform="translate(266.40625 0)"/>
     <use xlink:href="#DejaVuSans-Bold-6e" transform="translate(335.107422 0)"/>
     <use xlink:href="#DejaVuSans-Bold-61" transform="translate(406.298828 0)"/>
     <use xlink:href="#DejaVuSans-Bold-6c" transform="translate(473.779297 0)"/>
     <use xlink:href="#DejaVuSans-Bold-65" transform="translate(508.056641 0)"/>
    </g>
   </g>
   <g id="text_35">
    <!-- a=b≠c; α=β=90°, γ=120° -->
    <g transform="translate(412.534125 382.469062) scale(0.084 -0.084)">
     <defs>
      <path id="DejaVuSans-31" d="M 794 531 
L 1825 531 
L 1825 4091 
L 703 3866 
L 703 4441 
L 1819 4666 
L 2450 4666 
L 2450 531 
L 3481 531 
L 3481 0 
L 794 0 
L 794 531 
z
" transform="scale(0.015625)"/>
      <path id="DejaVuSans-32" d="M 1228 531 
L 3431 531 
L 3431 0 
L 469 0 
L 469 531 
Q 828 903 1448 1529 
Q 2069 2156 2228 2338 
Q 2531 2678 2651 2914 
Q 2772 3150 2772 3378 
Q 2772 3750 2511 3984 
Q 2250 4219 1831 4219 
Q 1534 4219 1204 4116 
Q 875 4013 500 3803 
L 500 4441 
Q 881 4594 1212 4672 
Q 1544 4750 1819 4750 
Q 2544 4750 2975 4387 
Q 3406 4025 3406 3419 
Q 3406 3131 3298 2873 
Q 3191 2616 2906 2266 
Q 2828 2175 2409 1742 
Q 1991 1309 1228 531 
z
" transform="scale(0.015625)"/>
     </defs>
     <use xlink:href="#DejaVuSans-61"/>
     <use xlink:href="#DejaVuSans-3d" transform="translate(61.279297 0)"/>
     <use xlink:href="#DejaVuSans-62" transform="translate(145.068359 0)"/>
     <use xlink:href="#DejaVuSans-2260" transform="translate(208.544922 0)"/>
     <use xlink:href="#DejaVuSans-63" transform="translate(292.333984 0)"/>
     <use xlink:href="#DejaVuSans-3b" transform="translate(347.314453 0)"/>
     <use xlink:href="#DejaVuSans-20" transform="translate(381.005859 0)"/>
     <use xlink:href="#DejaVuSans-3b1" transform="translate(412.792969 0)"/>
     <use xlink:href="#DejaVuSans-3d" transform="translate(478.710938 0)"/>
     <use xlink:href="#DejaVuSans-3b2" transform="translate(562.5 0)"/>
     <use xlink:href="#DejaVuSans-3d" transform="translate(626.318359 0)"/>
     <use xlink:href="#DejaVuSans-39" transform="translate(710.107422 0)"/>
     <use xlink:href="#DejaVuSans-30" transform="translate(773.730469 0)"/>
     <use xlink:href="#DejaVuSans-b0" transform="translate(837.353516 0)"/>
     <use xlink:href="#DejaVuSans-2c" transform="translate(887.353516 0)"/>
     <use xlink:href="#DejaVuSans-20" transform="translate(919.140625 0)"/>
     <use xlink:href="#DejaVuSans-3b3" transform="translate(950.927734 0)"/>
     <use xlink:href="#DejaVuSans-3d" transform="translate(1010.107422 0)"/>
     <use xlink:href="#DejaVuSans-31" transform="translate(1093.896484 0)"/>
     <use xlink:href="#DejaVuSans-32" transform="translate(1157.519531 0)"/>
     <use xlink:href="#DejaVuSans-30" transform="translate(1221.142578 0)"/>
     <use xlink:href="#DejaVuSans-b0" transform="translate(1284.765625 0)"/>
    </g>
   </g>
   <g id="text_36">
    <!-- Ogni sistema è definito dai vincoli sulle lunghezze a, b, c e sugli angoli α, β, γ della cella convenzionale. -->
    <g transform="translate(39.696094 444.720937) scale(0.1 -0.1)">
     <defs>
      <path id="DejaVuSans-4f" d="M 2522 4238 
Q 1834 4238 1429 3725 
Q 1025 3213 1025 2328 
Q 1025 1447 1429 934 
Q 1834 422 2522 422 
Q 3209 422 3611 934 
Q 4013 1447 4013 2328 
Q 4013 3213 3611 3725 
Q 3209 4238 2522 4238 
z
M 2522 4750 
Q 3503 4750 4090 4092 
Q 4678 3434 4678 2328 
Q 4678 1225 4090 567 
Q 3503 -91 2522 -91 
Q 1538 -91 948 565 
Q 359 1222 359 2328 
Q 359 3434 948 4092 
Q 1538 4750 2522 4750 
z
" transform="scale(0.015625)"/>
      <path id="DejaVuSans-67" d="M 2906 1791 
Q 2906 2416 2648 2759 
Q 2391 3103 1925 3103 
Q 1463 3103 1205 2759 
Q 947 2416 947 1791 
Q 947 1169 1205 825 
Q 1463 481 1925 481 
Q 2391 481 2648 825 
Q 2906 1169 2906 1791 
z
M 3481 434 
Q 3481 -459 3084 -895 
Q 2688 -1331 1869 -1331 
Q 1566 -1331 1297 -1286 
Q 1028 -1241 775 -1147 
L 775 -588 
Q 1028 -725 1275 -790 
Q 1522 -856 1778 -856 
Q 2344 -856 2625 -561 
Q 2906 -266 2906 331 
L 2906 616 
Q 2728 306 2450 153 
Q 2172 0 1784 0 
Q 1141 0 747 490 
Q 353 981 353 1791 
Q 353 2603 747 3093 
Q 1141 3584 1784 3584 
Q 2172 3584 2450 3431 
Q 2728 3278 2906 2969 
L 2906 3500 
L 3481 3500 
L 3481 434 
z
" transform="scale(0.015625)"/>
      <path id="DejaVuSans-6e" d="M 3513 2113 
L 3513 0 
L 2938 0 
L 2938 2094 
Q 2938 2591 2744 2837 
Q 2550 3084 2163 3084 
Q 1697 3084 1428 2787 
Q 1159 2491 1159 1978 
L 1159 0 
L 581 0 
L 581 3500 
L 1159 3500 
L 1159 2956 
Q 1366 3272 1645 3428 
Q 1925 3584 2291 3584 
Q 2894 3584 3203 3211 
Q 3513 2838 3513 2113 
z
" transform="scale(0.015625)"/>
      <path id="DejaVuSans-69" d="M 603 3500 
L 1178 3500 
L 1178 0 
L 603 0 
L 603 3500 
z
M 603 4863 
L 1178 4863 
L 1178 4134 
L 603 4134 
L 603 4863 
z
" transform="scale(0.015625)"/>
      <path id="DejaVuSans-73" d="M 2834 3397 
L 2834 2853 
Q 2591 2978 2328 3040 
Q 2066 3103 1784 3103 
Q 1356 3103 1142 2972 
Q 928 2841 928 2578 
Q 928 2378 1081 2264 
Q 1234 2150 1697 2047 
L 1894 2003 
Q 2506 1872 2764 1633 
Q 3022 1394 3022 966 
Q 3022 478 2636 193 
Q 2250 -91 1575 -91 
Q 1294 -91 989 -36 
Q 684 19 347 128 
L 347 722 
Q 666 556 975 473 
Q 1284 391 1588 391 
Q 1994 391 2212 530 
Q 2431 669 2431 922 
Q 2431 1156 2273 1281 
Q 2116 1406 1581 1522 
L 1381 1569 
Q 847 1681 609 1914 
Q 372 2147 372 2553 
Q 372 3047 722 3315 
Q 1072 3584 1716 3584 
Q 2034 3584 2315 3537 
Q 2597 3491 2834 3397 
z
" transform="scale(0.015625)"/>
      <path id="DejaVuSans-74" d="M 1172 4494 
L 1172 3500 
L 2356 3500 
L 2356 3053 
L 1172 3053 
L 1172 1153 
Q 1172 725 1289 603 
Q 1406 481 1766 481 
L 2356 481 
L 2356 0 
L 1766 0 
Q 1100 0 847 248 
Q 594 497 594 1153 
L 594 3053 
L 172 3053 
L 172 3500 
L 594 3500 
L 594 4494 
L 1172 4494 
z
" transform="scale(0.015625)"/>
      <path id="DejaVuSans-65" d="M 3597 1894 
L 3597 1613 
L 953 1613 
Q 991 1019 1311 708 
Q 1631 397 2203 397 
Q 2534 397 2845 478 
Q 3156 559 3463 722 
L 3463 178 
Q 3153 47 2828 -22 
Q 2503 -91 2169 -91 
Q 1331 -91 842 396 
Q 353 884 353 1716 
Q 353 2575 817 3079 
Q 1281 3584 2069 3584 
Q 2775 3584 3186 3129 
Q 3597 2675 3597 1894 
z
M 3022 2063 
Q 3016 2534 2758 2815 
Q 2500 3097 2075 3097 
Q 1594 3097 1305 2825 
Q 1016 2553 972 2059 
L 3022 2063 
z
" transform="scale(0.015625)"/>
      <path id="DejaVuSans-6d" d="M 3328 2828 
Q 3544 3216 3844 3400 
Q 4144 3584 4550 3584 
Q 5097 3584 5394 3201 
Q 5691 2819 5691 2113 
L 5691 0 
L 5113 0 
L 5113 2094 
Q 5113 2597 4934 2840 
Q 4756 3084 4391 3084 
Q 3944 3084 3684 2787 
Q 3425 2491 3425 1978 
L 3425 0 
L 2847 0 
L 2847 2094 
Q 2847 2600 2669 2842 
Q 2491 3084 2119 3084 
Q 1678 3084 1418 2786 
Q 1159 2488 1159 1978 
L 1159 0 
L 581 0 
L 581 3500 
L 1159 3500 
L 1159 2956 
Q 1356 3278 1631 3431 
Q 1906 3584 2284 3584 
Q 2666 3584 2933 3390 
Q 3200 3197 3328 2828 
z
" transform="scale(0.015625)"/>
      <path id="DejaVuSans-e8" d="M 3597 1894 
L 3597 1613 
L 953 1613 
Q 991 1019 1311 708 
Q 1631 397 2203 397 
Q 2534 397 2845 478 
Q 3156 559 3463 722 
L 3463 178 
Q 3153 47 2828 -22 
Q 2503 -91 2169 -91 
Q 1331 -91 842 396 
Q 353 884 353 1716 
Q 353 2575 817 3079 
Q 1281 3584 2069 3584 
Q 2775 3584 3186 3129 
Q 3597 2675 3597 1894 
z
M 3022 2063 
Q 3016 2534 2758 2815 
Q 2500 3097 2075 3097 
Q 1594 3097 1305 2825 
Q 1016 2553 972 2059 
L 3022 2063 
z
M 1579 5119 
L 2460 3950 
L 1982 3950 
L 963 5119 
L 1579 5119 
z
" transform="scale(0.015625)"/>
      <path id="DejaVuSans-64" d="M 2906 2969 
L 2906 4863 
L 3481 4863 
L 3481 0 
L 2906 0 
L 2906 525 
Q 2725 213 2448 61 
Q 2172 -91 1784 -91 
Q 1150 -91 751 415 
Q 353 922 353 1747 
Q 353 2572 751 3078 
Q 1150 3584 1784 3584 
Q 2172 3584 2448 3432 
Q 2725 3281 2906 2969 
z
M 947 1747 
Q 947 1113 1208 752 
Q 1469 391 1925 391 
Q 2381 391 2643 752 
Q 2906 1113 2906 1747 
Q 2906 2381 2643 2742 
Q 2381 3103 1925 3103 
Q 1469 3103 1208 2742 
Q 947 2381 947 1747 
z
" transform="scale(0.015625)"/>
      <path id="DejaVuSans-66" d="M 2375 4863 
L 2375 4384 
L 1825 4384 
Q 1516 4384 1395 4259 
Q 1275 4134 1275 3809 
L 1275 3500 
L 2222 3500 
L 2222 3053 
L 1275 3053 
L 1275 0 
L 697 0 
L 697 3053 
L 147 3053 
L 147 3500 
L 697 3500 
L 697 3744 
Q 697 4328 969 4595 
Q 1241 4863 1831 4863 
L 2375 4863 
z
" transform="scale(0.015625)"/>
      <path id="DejaVuSans-6f" d="M 1959 3097 
Q 1497 3097 1228 2736 
Q 959 2375 959 1747 
Q 959 1119 1226 758 
Q 1494 397 1959 397 
Q 2419 397 2687 759 
Q 2956 1122 2956 1747 
Q 2956 2369 2687 2733 
Q 2419 3097 1959 3097 
z
M 1959 3584 
Q 2709 3584 3137 3096 
Q 3566 2609 3566 1747 
Q 3566 888 3137 398 
Q 2709 -91 1959 -91 
Q 1206 -91 779 398 
Q 353 888 353 1747 
Q 353 2609 779 3096 
Q 1206 3584 1959 3584 
z
" transform="scale(0.015625)"/>
      <path id="DejaVuSans-76" d="M 191 3500 
L 800 3500 
L 1894 563 
L 2988 3500 
L 3597 3500 
L 2284 0 
L 1503 0 
L 191 3500 
z
" transform="scale(0.015625)"/>
      <path id="DejaVuSans-6c" d="M 603 4863 
L 1178 4863 
L 1178 0 
L 603 0 
L 603 4863 
z
" transform="scale(0.015625)"/>
      <path id="DejaVuSans-75" d="M 544 1381 
L 544 3500 
L 1119 3500 
L 1119 1403 
Q 1119 906 1312 657 
Q 1506 409 1894 409 
Q 2359 409 2629 706 
Q 2900 1003 2900 1516 
L 2900 3500 
L 3475 3500 
L 3475 0 
L 2900 0 
L 2900 538 
Q 2691 219 2414 64 
Q 2138 -91 1772 -91 
Q 1169 -91 856 284 
Q 544 659 544 1381 
z
M 1991 3584 
L 1991 3584 
z
" transform="scale(0.015625)"/>
      <path id="DejaVuSans-68" d="M 3513 2113 
L 3513 0 
L 2938 0 
L 2938 2094 
Q 2938 2591 2744 2837 
Q 2550 3084 2163 3084 
Q 1697 3084 1428 2787 
Q 1159 2491 1159 1978 
L 1159 0 
L 581 0 
L 581 4863 
L 1159 4863 
L 1159 2956 
Q 1366 3272 1645 3428 
Q 1925 3584 2291 3584 
Q 2894 3584 3203 3211 
Q 3513 2838 3513 2113 
z
" transform="scale(0.015625)"/>
      <path id="DejaVuSans-7a" d="M 353 3500 
L 3084 3500 
L 3084 2975 
L 922 459 
L 3084 459 
L 3084 0 
L 275 0 
L 275 525 
L 2438 3041 
L 353 3041 
L 353 3500 
z
" transform="scale(0.015625)"/>
      <path id="DejaVuSans-2e" d="M 684 794 
L 1344 794 
L 1344 0 
L 684 0 
L 684 794 
z
" transform="scale(0.015625)"/>
     </defs>
     <use xlink:href="#DejaVuSans-4f"/>
     <use xlink:href="#DejaVuSans-67" transform="translate(78.710938 0)"/>
     <use xlink:href="#DejaVuSans-6e" transform="translate(142.1875 0)"/>
     <use xlink:href="#DejaVuSans-69" transform="translate(205.566406 0)"/>
     <use xlink:href="#DejaVuSans-20" transform="translate(233.349609 0)"/>
     <use xlink:href="#DejaVuSans-73" transform="translate(265.136719 0)"/>
     <use xlink:href="#DejaVuSans-69" transform="translate(317.236328 0)"/>
     <use xlink:href="#DejaVuSans-73" transform="translate(345.019531 0)"/>
     <use xlink:href="#DejaVuSans-74" transform="translate(397.119141 0)"/>
     <use xlink:href="#DejaVuSans-65" transform="translate(436.328125 0)"/>
     <use xlink:href="#DejaVuSans-6d" transform="translate(497.851562 0)"/>
     <use xlink:href="#DejaVuSans-61" transform="translate(595.263672 0)"/>
     <use xlink:href="#DejaVuSans-20" transform="translate(656.542969 0)"/>
     <use xlink:href="#DejaVuSans-e8" transform="translate(688.330078 0)"/>
     <use xlink:href="#DejaVuSans-20" transform="translate(749.853516 0)"/>
     <use xlink:href="#DejaVuSans-64" transform="translate(781.640625 0)"/>
     <use xlink:href="#DejaVuSans-65" transform="translate(845.117188 0)"/>
     <use xlink:href="#DejaVuSans-66" transform="translate(906.640625 0)"/>
     <use xlink:href="#DejaVuSans-69" transform="translate(941.845703 0)"/>
     <use xlink:href="#DejaVuSans-6e" transform="translate(969.628906 0)"/>
     <use xlink:href="#DejaVuSans-69" transform="translate(1033.007812 0)"/>
     <use xlink:href="#DejaVuSans-74" transform="translate(1060.791016 0)"/>
     <use xlink:href="#DejaVuSans-6f" transform="translate(1100 0)"/>
     <use xlink:href="#DejaVuSans-20" transform="translate(1161.181641 0)"/>
     <use xlink:href="#DejaVuSans-64" transform="translate(1192.96875 0)"/>
     <use xlink:href="#DejaVuSans-61" transform="translate(1256.445312 0)"/>
     <use xlink:href="#DejaVuSans-69" transform="translate(1317.724609 0)"/>
     <use xlink:href="#DejaVuSans-20" transform="translate(1345.507812 0)"/>
     <use xlink:href="#DejaVuSans-76" transform="translate(1377.294922 0)"/>
     <use xlink:href="#DejaVuSans-69" transform="translate(1436.474609 0)"/>
     <use xlink:href="#DejaVuSans-6e" transform="translate(1464.257812 0)"/>
     <use xlink:href="#DejaVuSans-63" transform="translate(1527.636719 0)"/>
     <use xlink:href="#DejaVuSans-6f" transform="translate(1582.617188 0)"/>
     <use xlink:href="#DejaVuSans-6c" transform="translate(1643.798828 0)"/>
     <use xlink:href="#DejaVuSans-69" transform="translate(1671.582031 0)"/>
     <use xlink:href="#DejaVuSans-20" transform="translate(1699.365234 0)"/>
     <use xlink:href="#DejaVuSans-73" transform="translate(1731.152344 0)"/>
     <use xlink:href="#DejaVuSans-75" transform="translate(1783.251953 0)"/>
     <use xlink:href="#DejaVuSans-6c" transform="translate(1846.630859 0)"/>
     <use xlink:href="#DejaVuSans-6c" transform="translate(1874.414062 0)"/>
     <use xlink:href="#DejaVuSans-65" transform="translate(1902.197266 0)"/>
     <use xlink:href="#DejaVuSans-20" transform="translate(1963.720703 0)"/>
     <use xlink:href="#DejaVuSans-6c" transform="translate(1995.507812 0)"/>
     <use xlink:href="#DejaVuSans-75" transform="translate(2023.291016 0)"/>
     <use xlink:href="#DejaVuSans-6e" transform="translate(2086.669922 0)"/>
     <use xlink:href="#DejaVuSans-67" transform="translate(2150.048828 0)"/>
     <use xlink:href="#DejaVuSans-68" transform="translate(2213.525391 0)"/>
     <use xlink:href="#DejaVuSans-65" transform="translate(2276.904297 0)"/>
     <use xlink:href="#DejaVuSans-7a" transform="translate(2338.427734 0)"/>
     <use xlink:href="#DejaVuSans-7a" transform="translate(2390.917969 0)"/>
     <use xlink:href="#DejaVuSans-65" transform="translate(2443.408203 0)"/>
     <use xlink:href="#DejaVuSans-20" transform="translate(2504.931641 0)"/>
     <use xlink:href="#DejaVuSans-61" transform="translate(2536.71875 0)"/>
     <use xlink:href="#DejaVuSans-2c" transform="translate(2597.998047 0)"/>
     <use xlink:href="#DejaVuSans-20" transform="translate(2629.785156 0)"/>
     <use xlink:href="#DejaVuSans-62" transform="translate(2661.572266 0)"/>
     <use xlink:href="#DejaVuSans-2c" transform="translate(2725.048828 0)"/>
     <use xlink:href="#DejaVuSans-20" transform="translate(2756.835938 0)"/>
     <use xlink:href="#DejaVuSans-63" transform="translate(2788.623047 0)"/>
     <use xlink:href="#DejaVuSans-20" transform="translate(2843.603516 0)"/>
     <use xlink:href="#DejaVuSans-65" transform="translate(2875.390625 0)"/>
     <use xlink:href="#DejaVuSans-20" transform="translate(2936.914062 0)"/>
     <use xlink:href="#DejaVuSans-73" transform="translate(2968.701172 0)"/>
     <use xlink:href="#DejaVuSans-75" transform="translate(3020.800781 0)"/>
     <use xlink:href="#DejaVuSans-67" transform="translate(3084.179688 0)"/>
     <use xlink:href="#DejaVuSans-6c" transform="translate(3147.65625 0)"/>
     <use xlink:href="#DejaVuSans-69" transform="translate(3175.439453 0)"/>
     <use xlink:href="#DejaVuSans-20" transform="translate(3203.222656 0)"/>
     <use xlink:href="#DejaVuSans-61" transform="translate(3235.009766 0)"/>
     <use xlink:href="#DejaVuSans-6e" transform="translate(3296.289062 0)"/>
     <use xlink:href="#DejaVuSans-67" transform="translate(3359.667969 0)"/>
     <use xlink:href="#DejaVuSans-6f" transform="translate(3423.144531 0)"/>
     <use xlink:href="#DejaVuSans-6c" transform="translate(3484.326172 0)"/>
     <use xlink:href="#DejaVuSans-69" transform="translate(3512.109375 0)"/>
     <use xlink:href="#DejaVuSans-20" transform="translate(3539.892578 0)"/>
     <use xlink:href="#DejaVuSans-3b1" transform="translate(3571.679688 0)"/>
     <use xlink:href="#DejaVuSans-2c" transform="translate(3637.597656 0)"/>
     <use xlink:href="#DejaVuSans-20" transform="translate(3669.384766 0)"/>
     <use xlink:href="#DejaVuSans-3b2" transform="translate(3701.171875 0)"/>
     <use xlink:href="#DejaVuSans-2c" transform="translate(3764.990234 0)"/>
     <use xlink:href="#DejaVuSans-20" transform="translate(3796.777344 0)"/>
     <use xlink:href="#DejaVuSans-3b3" transform="translate(3828.564453 0)"/>
     <use xlink:href="#DejaVuSans-20" transform="translate(3887.744141 0)"/>
     <use xlink:href="#DejaVuSans-64" transform="translate(3919.53125 0)"/>
     <use xlink:href="#DejaVuSans-65" transform="translate(3983.007812 0)"/>
     <use xlink:href="#DejaVuSans-6c" transform="translate(4044.53125 0)"/>
     <use xlink:href="#DejaVuSans-6c" transform="translate(4072.314453 0)"/>
     <use xlink:href="#DejaVuSans-61" transform="translate(4100.097656 0)"/>
     <use xlink:href="#DejaVuSans-20" transform="translate(4161.376953 0)"/>
     <use xlink:href="#DejaVuSans-63" transform="translate(4193.164062 0)"/>
     <use xlink:href="#DejaVuSans-65" transform="translate(4248.144531 0)"/>
     <use xlink:href="#DejaVuSans-6c" transform="translate(4309.667969 0)"/>
     <use xlink:href="#DejaVuSans-6c" transform="translate(4337.451172 0)"/>
     <use xlink:href="#DejaVuSans-61" transform="translate(4365.234375 0)"/>
     <use xlink:href="#DejaVuSans-20" transform="translate(4426.513672 0)"/>
     <use xlink:href="#DejaVuSans-63" transform="translate(4458.300781 0)"/>
     <use xlink:href="#DejaVuSans-6f" transform="translate(4513.28125 0)"/>
     <use xlink:href="#DejaVuSans-6e" transform="translate(4574.462891 0)"/>
     <use xlink:href="#DejaVuSans-76" transform="translate(4637.841797 0)"/>
     <use xlink:href="#DejaVuSans-65" transform="translate(4697.021484 0)"/>
     <use xlink:href="#DejaVuSans-6e" transform="translate(4758.544922 0)"/>
     <use xlink:href="#DejaVuSans-7a" transform="translate(4821.923828 0)"/>
     <use xlink:href="#DejaVuSans-69" transform="translate(4874.414062 0)"/>
     <use xlink:href="#DejaVuSans-6f" transform="translate(4902.197266 0)"/>
     <use xlink:href="#DejaVuSans-6e" transform="translate(4963.378906 0)"/>
     <use xlink:href="#DejaVuSans-61" transform="translate(5026.757812 0)"/>
     <use xlink:href="#DejaVuSans-6c" transform="translate(5088.037109 0)"/>
     <use xlink:href="#DejaVuSans-65" transform="translate(5115.820312 0)"/>
     <use xlink:href="#DejaVuSans-2e" transform="translate(5177.34375 0)"/>
    </g>
   </g>
  </g>
  <g id="text_37">
   <!-- I sette sistemi cristallini -->
   <g transform="translate(188.264062 18.597656) scale(0.15 -0.15)">
    <defs>
     <path id="DejaVuSans-Bold-49" d="M 588 4666 
L 1791 4666 
L 1791 0 
L 588 0 
L 588 4666 
z
" transform="scale(0.015625)"/>
     <path id="DejaVuSans-Bold-20" transform="scale(0.015625)"/>
    </defs>
    <use xlink:href="#DejaVuSans-Bold-49"/>
    <use xlink:href="#DejaVuSans-Bold-20" transform="translate(37.207031 0)"/>
    <use xlink:href="#DejaVuSans-Bold-73" transform="translate(72.021484 0)"/>
    <use xlink:href="#DejaVuSans-Bold-65" transform="translate(131.542969 0)"/>
    <use xlink:href="#DejaVuSans-Bold-74" transform="translate(199.365234 0)"/>
    <use xlink:href="#DejaVuSans-Bold-74" transform="translate(247.167969 0)"/>
    <use xlink:href="#DejaVuSans-Bold-65" transform="translate(294.970703 0)"/>
    <use xlink:href="#DejaVuSans-Bold-20" transform="translate(362.792969 0)"/>
    <use xlink:href="#DejaVuSans-Bold-73" transform="translate(397.607422 0)"/>
    <use xlink:href="#DejaVuSans-Bold-69" transform="translate(457.128906 0)"/>
    <use xlink:href="#DejaVuSans-Bold-73" transform="translate(491.40625 0)"/>
    <use xlink:href="#DejaVuSans-Bold-74" transform="translate(550.927734 0)"/>
    <use xlink:href="#DejaVuSans-Bold-65" transform="translate(598.730469 0)"/>
    <use xlink:href="#DejaVuSans-Bold-6d" transform="translate(666.552734 0)"/>
    <use xlink:href="#DejaVuSans-Bold-69" transform="translate(770.751953 0)"/>
    <use xlink:href="#DejaVuSans-Bold-20" transform="translate(805.029297 0)"/>
    <use xlink:href="#DejaVuSans-Bold-63" transform="translate(839.84375 0)"/>
    <use xlink:href="#DejaVuSans-Bold-72" transform="translate(899.121094 0)"/>
    <use xlink:href="#DejaVuSans-Bold-69" transform="translate(948.4375 0)"/>
    <use xlink:href="#DejaVuSans-Bold-73" transform="translate(982.714844 0)"/>
    <use xlink:href="#DejaVuSans-Bold-74" transform="translate(1042.236328 0)"/>
    <use xlink:href="#DejaVuSans-Bold-61" transform="translate(1090.039062 0)"/>
    <use xlink:href="#DejaVuSans-Bold-6c" transform="translate(1157.519531 0)"/>
    <use xlink:href="#DejaVuSans-Bold-6c" transform="translate(1191.796875 0)"/>
    <use xlink:href="#DejaVuSans-Bold-69" transform="translate(1226.074219 0)"/>
    <use xlink:href="#DejaVuSans-Bold-6e" transform="translate(1260.351562 0)"/>
    <use xlink:href="#DejaVuSans-Bold-69" transform="translate(1331.542969 0)"/>
   </g>
  </g>
 </g>
 <defs>
  <clipPath id="pffa4f5cbcc">
   <rect x="7.2" y="65.716875" width="585.9" height="402.80625"/>
  </clipPath>
 </defs>
</svg>
