<?xml version="1.0" encoding="utf-8" standalone="no"?>
<!DOCTYPE svg PUBLIC "-//W3C//DTD SVG 1.1//EN"
  "http://www.w3.org/Graphics/SVG/1.1/DTD/svg11.dtd">
<svg xmlns:xlink="http://www.w3.org/1999/xlink" width="784.44pt" height="382.581656pt" viewBox="0 0 784.44 382.581656" xmlns="http://www.w3.org/2000/svg" version="1.1">
 <metadata>
  <rdf:RDF xmlns:dc="http://purl.org/dc/elements/1.1/" xmlns:cc="http://creativecommons.org/ns#" xmlns:rdf="http://www.w3.org/1999/02/22-rdf-syntax-ns#">
   <cc:Work>
    <dc:type rdf:resource="http://purl.org/dc/dcmitype/StillImage"/>
    <dc:date>2026-06-16T10:45:39.456504</dc:date>
    <dc:format>image/svg+xml</dc:format>
    <dc:creator>
     <cc:Agent>
      <dc:title>Matplotlib v3.10.8, https://matplotlib.org/</dc:title>
     </cc:Agent>
    </dc:creator>
   </cc:Work>
  </rdf:RDF>
 </metadata>
 <defs>
  <style type="text/css">*{stroke-linejoin: round; stroke-linecap: butt}</style>
 </defs>
 <g id="figure_1">
  <g id="patch_1">
   <path d="M 0 382.581656 
L 784.44 382.581656 
L 784.44 0 
L 0 0 
z
" style="fill: #ffffff"/>
  </g>
  <g id="axes_1">
   <g id="table_1">
    <g id="patch_2">
     <path d="M 34.1514 171.521968 
L 108.749025 171.521968 
L 108.749025 135.271016 
L 34.1514 135.271016 
z
" style="fill: #ffffff; stroke: #000000; stroke-width: 0.72; stroke-linejoin: miter"/>
    </g>
    <g id="text_1">
     <!-- elemento -->
     <g transform="translate(40.994978 156.569773) scale(0.115 -0.115)">
      <defs>
       <path id="DejaVuSans-Bold-65" d="M 4031 1759 
L 4031 1441 
L 1416 1441 
Q 1456 1047 1700 850 
Q 1944 653 2381 653 
Q 2734 653 3104 758 
Q 3475 863 3866 1075 
L 3866 213 
Q 3469 63 3072 -14 
Q 2675 -91 2278 -91 
Q 1328 -91 801 392 
Q 275 875 275 1747 
Q 275 2603 792 3093 
Q 1309 3584 2216 3584 
Q 3041 3584 3536 3087 
Q 4031 2591 4031 1759 
z
M 2881 2131 
Q 2881 2450 2695 2645 
Q 2509 2841 2209 2841 
Q 1884 2841 1681 2658 
Q 1478 2475 1428 2131 
L 2881 2131 
z
" transform="scale(0.015625)"/>
       <path id="DejaVuSans-Bold-6c" d="M 538 4863 
L 1656 4863 
L 1656 0 
L 538 0 
L 538 4863 
z
" transform="scale(0.015625)"/>
       <path id="DejaVuSans-Bold-6d" d="M 3781 2919 
Q 3994 3244 4286 3414 
Q 4578 3584 4928 3584 
Q 5531 3584 5847 3212 
Q 6163 2841 6163 2131 
L 6163 0 
L 5038 0 
L 5038 1825 
Q 5041 1866 5042 1909 
Q 5044 1953 5044 2034 
Q 5044 2406 4934 2573 
Q 4825 2741 4581 2741 
Q 4263 2741 4089 2478 
Q 3916 2216 3909 1719 
L 3909 0 
L 2784 0 
L 2784 1825 
Q 2784 2406 2684 2573 
Q 2584 2741 2328 2741 
Q 2006 2741 1831 2477 
Q 1656 2213 1656 1722 
L 1656 0 
L 531 0 
L 531 3500 
L 1656 3500 
L 1656 2988 
Q 1863 3284 2130 3434 
Q 2397 3584 2719 3584 
Q 3081 3584 3359 3409 
Q 3638 3234 3781 2919 
z
" transform="scale(0.015625)"/>
       <path id="DejaVuSans-Bold-6e" d="M 4056 2131 
L 4056 0 
L 2931 0 
L 2931 347 
L 2931 1631 
Q 2931 2084 2911 2256 
Q 2891 2428 2841 2509 
Q 2775 2619 2662 2680 
Q 2550 2741 2406 2741 
Q 2056 2741 1856 2470 
Q 1656 2200 1656 1722 
L 1656 0 
L 538 0 
L 538 3500 
L 1656 3500 
L 1656 2988 
Q 1909 3294 2193 3439 
Q 2478 3584 2822 3584 
Q 3428 3584 3742 3212 
Q 4056 2841 4056 2131 
z
" transform="scale(0.015625)"/>
       <path id="DejaVuSans-Bold-74" d="M 1759 4494 
L 1759 3500 
L 2913 3500 
L 2913 2700 
L 1759 2700 
L 1759 1216 
Q 1759 972 1856 886 
Q 1953 800 2241 800 
L 2816 800 
L 2816 0 
L 1856 0 
Q 1194 0 917 276 
Q 641 553 641 1216 
L 641 2700 
L 84 2700 
L 84 3500 
L 641 3500 
L 641 4494 
L 1759 4494 
z
" transform="scale(0.015625)"/>
       <path id="DejaVuSans-Bold-6f" d="M 2203 2784 
Q 1831 2784 1636 2517 
Q 1441 2250 1441 1747 
Q 1441 1244 1636 976 
Q 1831 709 2203 709 
Q 2569 709 2762 976 
Q 2956 1244 2956 1747 
Q 2956 2250 2762 2517 
Q 2569 2784 2203 2784 
z
M 2203 3584 
Q 3106 3584 3614 3096 
Q 4122 2609 4122 1747 
Q 4122 884 3614 396 
Q 3106 -91 2203 -91 
Q 1297 -91 786 396 
Q 275 884 275 1747 
Q 275 2609 786 3096 
Q 1297 3584 2203 3584 
z
" transform="scale(0.015625)"/>
      </defs>
      <use xlink:href="#DejaVuSans-Bold-65"/>
      <use xlink:href="#DejaVuSans-Bold-6c" transform="translate(67.822266 0)"/>
      <use xlink:href="#DejaVuSans-Bold-65" transform="translate(102.099609 0)"/>
      <use xlink:href="#DejaVuSans-Bold-6d" transform="translate(169.921875 0)"/>
      <use xlink:href="#DejaVuSans-Bold-65" transform="translate(274.121094 0)"/>
      <use xlink:href="#DejaVuSans-Bold-6e" transform="translate(341.943359 0)"/>
      <use xlink:href="#DejaVuSans-Bold-74" transform="translate(413.134766 0)"/>
      <use xlink:href="#DejaVuSans-Bold-6f" transform="translate(460.9375 0)"/>
     </g>
    </g>
    <g id="patch_3">
     <path d="M 108.749025 171.521968 
L 243.02475 171.521968 
L 243.02475 135.271016 
L 108.749025 135.271016 
z
" style="fill: #ffffff; stroke: #000000; stroke-width: 0.72; stroke-linejoin: miter"/>
    </g>
    <g id="text_2">
     <!-- $\epsilon$ [$10^{-4}$ eV] -->
     <g transform="translate(141.674388 156.984851) scale(0.115 -0.115)">
      <defs>
       <path id="DejaVuSans-Oblique-3b5" d="M 1263 1888 
Q 925 1963 778 2166 
Q 669 2309 669 2503 
Q 669 3034 1175 3344 
Q 1575 3588 2188 3588 
Q 2425 3588 2684 3550 
Q 2944 3513 3234 3438 
L 3134 2916 
Q 2847 3006 2606 3047 
Q 2359 3088 2138 3088 
Q 1766 3088 1522 2944 
Q 1228 2772 1228 2522 
Q 1228 2356 1381 2241 
Q 1563 2103 1925 2103 
L 2409 2103 
L 2319 1628 
L 1856 1628 
Q 1425 1628 1172 1469 
Q 828 1253 828 916 
Q 828 703 1013 563 
Q 1244 388 1716 388 
Q 2006 388 2284 444 
Q 2563 503 2806 619 
L 2700 84 
Q 2403 -3 2131 -47 
Q 1859 -91 1609 -91 
Q 866 -91 516 194 
Q 250 413 250 781 
Q 250 1278 600 1584 
Q 859 1813 1263 1888 
z
" transform="scale(0.015625)"/>
       <path id="DejaVuSans-Bold-20" transform="scale(0.015625)"/>
       <path id="DejaVuSans-Bold-5b" d="M 550 4863 
L 2491 4863 
L 2491 4159 
L 1613 4159 
L 1613 -141 
L 2491 -141 
L 2491 -844 
L 550 -844 
L 550 4863 
z
" transform="scale(0.015625)"/>
       <path id="DejaVuSans-31" d="M 794 531 
L 1825 531 
L 1825 4091 
L 703 3866 
L 703 4441 
L 1819 4666 
L 2450 4666 
L 2450 531 
L 3481 531 
L 3481 0 
L 794 0 
L 794 531 
z
" transform="scale(0.015625)"/>
       <path id="DejaVuSans-30" d="M 2034 4250 
Q 1547 4250 1301 3770 
Q 1056 3291 1056 2328 
Q 1056 1369 1301 889 
Q 1547 409 2034 409 
Q 2525 409 2770 889 
Q 3016 1369 3016 2328 
Q 3016 3291 2770 3770 
Q 2525 4250 2034 4250 
z
M 2034 4750 
Q 2819 4750 3233 4129 
Q 3647 3509 3647 2328 
Q 3647 1150 3233 529 
Q 2819 -91 2034 -91 
Q 1250 -91 836 529 
Q 422 1150 422 2328 
Q 422 3509 836 4129 
Q 1250 4750 2034 4750 
z
" transform="scale(0.015625)"/>
       <path id="DejaVuSans-2212" d="M 678 2272 
L 4684 2272 
L 4684 1741 
L 678 1741 
L 678 2272 
z
" transform="scale(0.015625)"/>
       <path id="DejaVuSans-34" d="M 2419 4116 
L 825 1625 
L 2419 1625 
L 2419 4116 
z
M 2253 4666 
L 3047 4666 
L 3047 1625 
L 3713 1625 
L 3713 1100 
L 3047 1100 
L 3047 0 
L 2419 0 
L 2419 1100 
L 313 1100 
L 313 1709 
L 2253 4666 
z
" transform="scale(0.015625)"/>
       <path id="DejaVuSans-Bold-56" d="M 31 4666 
L 1241 4666 
L 2478 1222 
L 3713 4666 
L 4922 4666 
L 3194 0 
L 1759 0 
L 31 4666 
z
" transform="scale(0.015625)"/>
       <path id="DejaVuSans-Bold-5d" d="M 2375 -844 
L 434 -844 
L 434 -141 
L 1313 -141 
L 1313 4159 
L 434 4159 
L 434 4863 
L 2375 4863 
L 2375 -844 
z
" transform="scale(0.015625)"/>
      </defs>
      <use xlink:href="#DejaVuSans-Oblique-3b5" transform="translate(0 0.684375)"/>
      <use xlink:href="#DejaVuSans-Bold-20" transform="translate(54.052734 0.684375)"/>
      <use xlink:href="#DejaVuSans-Bold-5b" transform="translate(88.867188 0.684375)"/>
      <use xlink:href="#DejaVuSans-31" transform="translate(134.570312 0.684375)"/>
      <use xlink:href="#DejaVuSans-30" transform="translate(198.193359 0.684375)"/>
      <use xlink:href="#DejaVuSans-2212" transform="translate(262.773438 38.965625) scale(0.7)"/>
      <use xlink:href="#DejaVuSans-34" transform="translate(321.425781 38.965625) scale(0.7)"/>
      <use xlink:href="#DejaVuSans-Bold-20" transform="translate(368.696289 0.684375)"/>
      <use xlink:href="#DejaVuSans-Bold-65" transform="translate(403.510742 0.684375)"/>
      <use xlink:href="#DejaVuSans-Bold-56" transform="translate(471.333008 0.684375)"/>
      <use xlink:href="#DejaVuSans-Bold-5d" transform="translate(548.725586 0.684375)"/>
     </g>
    </g>
    <g id="patch_4">
     <path d="M 243.02475 171.521968 
L 332.5419 171.521968 
L 332.5419 135.271016 
L 243.02475 135.271016 
z
" style="fill: #ffffff; stroke: #000000; stroke-width: 0.72; stroke-linejoin: miter"/>
    </g>
    <g id="text_3">
     <!-- $\sigma$ [Å] -->
     <g transform="translate(272.430825 157.157351) scale(0.115 -0.115)">
      <defs>
       <path id="DejaVuSans-Oblique-3c3" d="M 2219 3044 
Q 1744 3044 1422 2700 
Q 1081 2341 969 1747 
Q 844 1119 1044 756 
Q 1241 397 1706 397 
Q 2166 397 2503 759 
Q 2844 1122 2966 1747 
Q 3075 2319 2881 2700 
Q 2700 3044 2219 3044 
z
M 2309 3503 
L 4219 3500 
L 4106 2925 
L 3463 2925 
Q 3706 2438 3575 1747 
Q 3406 888 2884 400 
Q 2359 -91 1609 -91 
Q 856 -91 525 400 
Q 194 888 363 1747 
Q 528 2609 1050 3097 
Q 1484 3503 2309 3503 
z
" transform="scale(0.015625)"/>
       <path id="DejaVuSans-Bold-c5" d="M 3225 4575 
L 4922 0 
L 3713 0 
L 3419 850 
L 1538 850 
L 1241 0 
L 31 0 
L 1728 4575 
Q 1656 4681 1622 4798 
Q 1588 4916 1588 5050 
Q 1588 5416 1848 5678 
Q 2109 5941 2478 5941 
Q 2841 5941 3103 5678 
Q 3366 5416 3366 5050 
Q 3366 4903 3331 4784 
Q 3297 4666 3225 4575 
z
M 2069 5050 
Q 2069 4881 2189 4761 
Q 2309 4641 2478 4641 
Q 2647 4641 2767 4761 
Q 2888 4881 2888 5050 
Q 2888 5219 2766 5339 
Q 2644 5459 2478 5459 
Q 2309 5459 2189 5339 
Q 2069 5219 2069 5050 
z
M 1838 1716 
L 3116 1716 
L 2478 3572 
L 1838 1716 
z
" transform="scale(0.015625)"/>
      </defs>
      <use xlink:href="#DejaVuSans-Oblique-3c3" transform="translate(0 0.171875)"/>
      <use xlink:href="#DejaVuSans-Bold-20" transform="translate(63.378906 0.171875)"/>
      <use xlink:href="#DejaVuSans-Bold-5b" transform="translate(98.193359 0.171875)"/>
      <use xlink:href="#DejaVuSans-Bold-c5" transform="translate(143.896484 0.171875)"/>
      <use xlink:href="#DejaVuSans-Bold-5d" transform="translate(221.289062 0.171875)"/>
     </g>
    </g>
    <g id="patch_5">
     <path d="M 332.5419 171.521968 
L 496.656675 171.521968 
L 496.656675 135.271016 
L 332.5419 135.271016 
z
" style="fill: #ffffff; stroke: #000000; stroke-width: 0.72; stroke-linejoin: miter"/>
    </g>
    <g id="text_4">
     <!-- $e_{\rm coesiva}$ [eV/atomo] -->
     <g transform="translate(357.444287 156.569773) scale(0.115 -0.115)">
      <defs>
       <path id="DejaVuSans-Oblique-65" d="M 3078 2063 
Q 3088 2113 3092 2166 
Q 3097 2219 3097 2272 
Q 3097 2653 2873 2875 
Q 2650 3097 2266 3097 
Q 1838 3097 1509 2826 
Q 1181 2556 1013 2059 
L 3078 2063 
z
M 3578 1613 
L 903 1613 
Q 884 1494 878 1425 
Q 872 1356 872 1306 
Q 872 872 1139 634 
Q 1406 397 1894 397 
Q 2269 397 2603 481 
Q 2938 566 3225 728 
L 3116 159 
Q 2806 34 2476 -28 
Q 2147 -91 1806 -91 
Q 1078 -91 686 257 
Q 294 606 294 1247 
Q 294 1794 489 2264 
Q 684 2734 1063 3103 
Q 1306 3334 1642 3459 
Q 1978 3584 2356 3584 
Q 2950 3584 3301 3228 
Q 3653 2872 3653 2272 
Q 3653 2128 3634 1964 
Q 3616 1800 3578 1613 
z
" transform="scale(0.015625)"/>
       <path id="DejaVuSans-63" d="M 3122 3366 
L 3122 2828 
Q 2878 2963 2633 3030 
Q 2388 3097 2138 3097 
Q 1578 3097 1268 2742 
Q 959 2388 959 1747 
Q 959 1106 1268 751 
Q 1578 397 2138 397 
Q 2388 397 2633 464 
Q 2878 531 3122 666 
L 3122 134 
Q 2881 22 2623 -34 
Q 2366 -91 2075 -91 
Q 1284 -91 818 406 
Q 353 903 353 1747 
Q 353 2603 823 3093 
Q 1294 3584 2113 3584 
Q 2378 3584 2631 3529 
Q 2884 3475 3122 3366 
z
" transform="scale(0.015625)"/>
       <path id="DejaVuSans-6f" d="M 1959 3097 
Q 1497 3097 1228 2736 
Q 959 2375 959 1747 
Q 959 1119 1226 758 
Q 1494 397 1959 397 
Q 2419 397 2687 759 
Q 2956 1122 2956 1747 
Q 2956 2369 2687 2733 
Q 2419 3097 1959 3097 
z
M 1959 3584 
Q 2709 3584 3137 3096 
Q 3566 2609 3566 1747 
Q 3566 888 3137 398 
Q 2709 -91 1959 -91 
Q 1206 -91 779 398 
Q 353 888 353 1747 
Q 353 2609 779 3096 
Q 1206 3584 1959 3584 
z
" transform="scale(0.015625)"/>
       <path id="DejaVuSans-65" d="M 3597 1894 
L 3597 1613 
L 953 1613 
Q 991 1019 1311 708 
Q 1631 397 2203 397 
Q 2534 397 2845 478 
Q 3156 559 3463 722 
L 3463 178 
Q 3153 47 2828 -22 
Q 2503 -91 2169 -91 
Q 1331 -91 842 396 
Q 353 884 353 1716 
Q 353 2575 817 3079 
Q 1281 3584 2069 3584 
Q 2775 3584 3186 3129 
Q 3597 2675 3597 1894 
z
M 3022 2063 
Q 3016 2534 2758 2815 
Q 2500 3097 2075 3097 
Q 1594 3097 1305 2825 
Q 1016 2553 972 2059 
L 3022 2063 
z
" transform="scale(0.015625)"/>
       <path id="DejaVuSans-73" d="M 2834 3397 
L 2834 2853 
Q 2591 2978 2328 3040 
Q 2066 3103 1784 3103 
Q 1356 3103 1142 2972 
Q 928 2841 928 2578 
Q 928 2378 1081 2264 
Q 1234 2150 1697 2047 
L 1894 2003 
Q 2506 1872 2764 1633 
Q 3022 1394 3022 966 
Q 3022 478 2636 193 
Q 2250 -91 1575 -91 
Q 1294 -91 989 -36 
Q 684 19 347 128 
L 347 722 
Q 666 556 975 473 
Q 1284 391 1588 391 
Q 1994 391 2212 530 
Q 2431 669 2431 922 
Q 2431 1156 2273 1281 
Q 2116 1406 1581 1522 
L 1381 1569 
Q 847 1681 609 1914 
Q 372 2147 372 2553 
Q 372 3047 722 3315 
Q 1072 3584 1716 3584 
Q 2034 3584 2315 3537 
Q 2597 3491 2834 3397 
z
" transform="scale(0.015625)"/>
       <path id="DejaVuSans-69" d="M 603 3500 
L 1178 3500 
L 1178 0 
L 603 0 
L 603 3500 
z
M 603 4863 
L 1178 4863 
L 1178 4134 
L 603 4134 
L 603 4863 
z
" transform="scale(0.015625)"/>
       <path id="DejaVuSans-76" d="M 191 3500 
L 800 3500 
L 1894 563 
L 2988 3500 
L 3597 3500 
L 2284 0 
L 1503 0 
L 191 3500 
z
" transform="scale(0.015625)"/>
       <path id="DejaVuSans-61" d="M 2194 1759 
Q 1497 1759 1228 1600 
Q 959 1441 959 1056 
Q 959 750 1161 570 
Q 1363 391 1709 391 
Q 2188 391 2477 730 
Q 2766 1069 2766 1631 
L 2766 1759 
L 2194 1759 
z
M 3341 1997 
L 3341 0 
L 2766 0 
L 2766 531 
Q 2569 213 2275 61 
Q 1981 -91 1556 -91 
Q 1019 -91 701 211 
Q 384 513 384 1019 
Q 384 1609 779 1909 
Q 1175 2209 1959 2209 
L 2766 2209 
L 2766 2266 
Q 2766 2663 2505 2880 
Q 2244 3097 1772 3097 
Q 1472 3097 1187 3025 
Q 903 2953 641 2809 
L 641 3341 
Q 956 3463 1253 3523 
Q 1550 3584 1831 3584 
Q 2591 3584 2966 3190 
Q 3341 2797 3341 1997 
z
" transform="scale(0.015625)"/>
       <path id="DejaVuSans-Bold-2f" d="M 1644 4666 
L 2338 4666 
L 691 -594 
L 0 -594 
L 1644 4666 
z
" transform="scale(0.015625)"/>
       <path id="DejaVuSans-Bold-61" d="M 2106 1575 
Q 1756 1575 1579 1456 
Q 1403 1338 1403 1106 
Q 1403 894 1545 773 
Q 1688 653 1941 653 
Q 2256 653 2472 879 
Q 2688 1106 2688 1447 
L 2688 1575 
L 2106 1575 
z
M 3816 1997 
L 3816 0 
L 2688 0 
L 2688 519 
Q 2463 200 2181 54 
Q 1900 -91 1497 -91 
Q 953 -91 614 226 
Q 275 544 275 1050 
Q 275 1666 698 1953 
Q 1122 2241 2028 2241 
L 2688 2241 
L 2688 2328 
Q 2688 2594 2478 2717 
Q 2269 2841 1825 2841 
Q 1466 2841 1156 2769 
Q 847 2697 581 2553 
L 581 3406 
Q 941 3494 1303 3539 
Q 1666 3584 2028 3584 
Q 2975 3584 3395 3211 
Q 3816 2838 3816 1997 
z
" transform="scale(0.015625)"/>
      </defs>
      <use xlink:href="#DejaVuSans-Oblique-65" transform="translate(0 0.015625)"/>
      <use xlink:href="#DejaVuSans-63" transform="translate(61.523438 -16.390625) scale(0.7)"/>
      <use xlink:href="#DejaVuSans-6f" transform="translate(100.009766 -16.390625) scale(0.7)"/>
      <use xlink:href="#DejaVuSans-65" transform="translate(142.836914 -16.390625) scale(0.7)"/>
      <use xlink:href="#DejaVuSans-73" transform="translate(185.90332 -16.390625) scale(0.7)"/>
      <use xlink:href="#DejaVuSans-69" transform="translate(222.373047 -16.390625) scale(0.7)"/>
      <use xlink:href="#DejaVuSans-76" transform="translate(241.821289 -16.390625) scale(0.7)"/>
      <use xlink:href="#DejaVuSans-61" transform="translate(283.24707 -16.390625) scale(0.7)"/>
      <use xlink:href="#DejaVuSans-Bold-20" transform="translate(328.876953 0.015625)"/>
      <use xlink:href="#DejaVuSans-Bold-5b" transform="translate(363.691406 0.015625)"/>
      <use xlink:href="#DejaVuSans-Bold-65" transform="translate(409.394531 0.015625)"/>
      <use xlink:href="#DejaVuSans-Bold-56" transform="translate(477.216797 0.015625)"/>
      <use xlink:href="#DejaVuSans-Bold-2f" transform="translate(554.609375 0.015625)"/>
      <use xlink:href="#DejaVuSans-Bold-61" transform="translate(591.132812 0.015625)"/>
      <use xlink:href="#DejaVuSans-Bold-74" transform="translate(658.613281 0.015625)"/>
      <use xlink:href="#DejaVuSans-Bold-6f" transform="translate(706.416016 0.015625)"/>
      <use xlink:href="#DejaVuSans-Bold-6d" transform="translate(775.117188 0.015625)"/>
      <use xlink:href="#DejaVuSans-Bold-6f" transform="translate(879.316406 0.015625)"/>
      <use xlink:href="#DejaVuSans-Bold-5d" transform="translate(948.017578 0.015625)"/>
     </g>
    </g>
    <g id="patch_6">
     <path d="M 496.656675 171.521968 
L 630.9324 171.521968 
L 630.9324 135.271016 
L 496.656675 135.271016 
z
" style="fill: #ffffff; stroke: #000000; stroke-width: 0.72; stroke-linejoin: miter"/>
    </g>
    <g id="text_5">
     <!-- $R_{nn}$ [Å] -->
     <g transform="translate(542.807037 157.329851) scale(0.115 -0.115)">
      <defs>
       <path id="DejaVuSans-Oblique-52" d="M 1613 4147 
L 1294 2491 
L 2106 2491 
Q 2584 2491 2879 2755 
Q 3175 3019 3175 3444 
Q 3175 3784 2976 3965 
Q 2778 4147 2406 4147 
L 1613 4147 
z
M 2772 2241 
Q 2972 2194 3105 2009 
Q 3238 1825 3413 1275 
L 3809 0 
L 3144 0 
L 2778 1197 
Q 2638 1659 2453 1815 
Q 2269 1972 1888 1972 
L 1191 1972 
L 806 0 
L 172 0 
L 1081 4666 
L 2503 4666 
Q 3150 4666 3495 4373 
Q 3841 4081 3841 3531 
Q 3841 3044 3547 2687 
Q 3253 2331 2772 2241 
z
" transform="scale(0.015625)"/>
       <path id="DejaVuSans-Oblique-6e" d="M 3566 2113 
L 3156 0 
L 2578 0 
L 2988 2091 
Q 3016 2238 3031 2350 
Q 3047 2463 3047 2528 
Q 3047 2791 2881 2937 
Q 2716 3084 2419 3084 
Q 1956 3084 1622 2776 
Q 1288 2469 1184 1941 
L 800 0 
L 225 0 
L 903 3500 
L 1478 3500 
L 1363 2950 
Q 1603 3253 1940 3418 
Q 2278 3584 2650 3584 
Q 3113 3584 3367 3334 
Q 3622 3084 3622 2631 
Q 3622 2519 3608 2391 
Q 3594 2263 3566 2113 
z
" transform="scale(0.015625)"/>
      </defs>
      <use xlink:href="#DejaVuSans-Oblique-52" transform="translate(0 0.171875)"/>
      <use xlink:href="#DejaVuSans-Oblique-6e" transform="translate(69.482422 -16.234375) scale(0.7)"/>
      <use xlink:href="#DejaVuSans-Oblique-6e" transform="translate(113.847656 -16.234375) scale(0.7)"/>
      <use xlink:href="#DejaVuSans-Bold-20" transform="translate(160.947266 0.171875)"/>
      <use xlink:href="#DejaVuSans-Bold-5b" transform="translate(195.761719 0.171875)"/>
      <use xlink:href="#DejaVuSans-Bold-c5" transform="translate(241.464844 0.171875)"/>
      <use xlink:href="#DejaVuSans-Bold-5d" transform="translate(318.857422 0.171875)"/>
     </g>
    </g>
    <g id="patch_7">
     <path d="M 630.9324 171.521968 
L 750.2886 171.521968 
L 750.2886 135.271016 
L 630.9324 135.271016 
z
" style="fill: #ffffff; stroke: #000000; stroke-width: 0.72; stroke-linejoin: miter"/>
    </g>
    <g id="text_6">
     <!-- $B$ [atm] -->
     <g transform="translate(666.748 156.569773) scale(0.115 -0.115)">
      <defs>
       <path id="DejaVuSans-Oblique-42" d="M 1081 4666 
L 2694 4666 
Q 3350 4666 3675 4422 
Q 4000 4178 4000 3688 
Q 4000 3238 3720 2911 
Q 3441 2584 2988 2516 
Q 3375 2428 3569 2181 
Q 3763 1934 3763 1522 
Q 3763 819 3242 409 
Q 2722 0 1819 0 
L 172 0 
L 1081 4666 
z
M 1234 2228 
L 903 519 
L 1919 519 
Q 2491 519 2800 781 
Q 3109 1044 3109 1522 
Q 3109 1891 2904 2059 
Q 2700 2228 2247 2228 
L 1234 2228 
z
M 1606 4147 
L 1331 2741 
L 2272 2741 
Q 2775 2741 3058 2959 
Q 3341 3178 3341 3566 
Q 3341 3869 3150 4008 
Q 2959 4147 2541 4147 
L 1606 4147 
z
" transform="scale(0.015625)"/>
      </defs>
      <use xlink:href="#DejaVuSans-Oblique-42" transform="translate(0 0.015625)"/>
      <use xlink:href="#DejaVuSans-Bold-20" transform="translate(68.603516 0.015625)"/>
      <use xlink:href="#DejaVuSans-Bold-5b" transform="translate(103.417969 0.015625)"/>
      <use xlink:href="#DejaVuSans-Bold-61" transform="translate(149.121094 0.015625)"/>
      <use xlink:href="#DejaVuSans-Bold-74" transform="translate(216.601562 0.015625)"/>
      <use xlink:href="#DejaVuSans-Bold-6d" transform="translate(264.404297 0.015625)"/>
      <use xlink:href="#DejaVuSans-Bold-5d" transform="translate(368.603516 0.015625)"/>
     </g>
    </g>
    <g id="patch_8">
     <path d="M 34.1514 202.19585 
L 108.749025 202.19585 
L 108.749025 171.521968 
L 34.1514 171.521968 
z
" style="fill: #ffffff; stroke: #000000; stroke-width: 0.72; stroke-linejoin: miter"/>
    </g>
    <g id="text_7">
     <!-- Ne -->
     <g transform="translate(62.738064 190.03219) scale(0.115 -0.115)">
      <defs>
       <path id="DejaVuSans-Bold-4e" d="M 588 4666 
L 1931 4666 
L 3628 1466 
L 3628 4666 
L 4769 4666 
L 4769 0 
L 3425 0 
L 1728 3200 
L 1728 0 
L 588 0 
L 588 4666 
z
" transform="scale(0.015625)"/>
      </defs>
      <use xlink:href="#DejaVuSans-Bold-4e"/>
      <use xlink:href="#DejaVuSans-Bold-65" transform="translate(83.691406 0)"/>
     </g>
    </g>
    <g id="patch_9">
     <path d="M 108.749025 202.19585 
L 243.02475 202.19585 
L 243.02475 171.521968 
L 108.749025 171.521968 
z
" style="fill: #ffffff; stroke: #000000; stroke-width: 0.72; stroke-linejoin: miter"/>
    </g>
    <g id="text_8">
     <!-- 32.11 -->
     <g transform="translate(159.425716 190.03219) scale(0.115 -0.115)">
      <defs>
       <path id="DejaVuSans-33" d="M 2597 2516 
Q 3050 2419 3304 2112 
Q 3559 1806 3559 1356 
Q 3559 666 3084 287 
Q 2609 -91 1734 -91 
Q 1441 -91 1130 -33 
Q 819 25 488 141 
L 488 750 
Q 750 597 1062 519 
Q 1375 441 1716 441 
Q 2309 441 2620 675 
Q 2931 909 2931 1356 
Q 2931 1769 2642 2001 
Q 2353 2234 1838 2234 
L 1294 2234 
L 1294 2753 
L 1863 2753 
Q 2328 2753 2575 2939 
Q 2822 3125 2822 3475 
Q 2822 3834 2567 4026 
Q 2313 4219 1838 4219 
Q 1578 4219 1281 4162 
Q 984 4106 628 3988 
L 628 4550 
Q 988 4650 1302 4700 
Q 1616 4750 1894 4750 
Q 2613 4750 3031 4423 
Q 3450 4097 3450 3541 
Q 3450 3153 3228 2886 
Q 3006 2619 2597 2516 
z
" transform="scale(0.015625)"/>
       <path id="DejaVuSans-32" d="M 1228 531 
L 3431 531 
L 3431 0 
L 469 0 
L 469 531 
Q 828 903 1448 1529 
Q 2069 2156 2228 2338 
Q 2531 2678 2651 2914 
Q 2772 3150 2772 3378 
Q 2772 3750 2511 3984 
Q 2250 4219 1831 4219 
Q 1534 4219 1204 4116 
Q 875 4013 500 3803 
L 500 4441 
Q 881 4594 1212 4672 
Q 1544 4750 1819 4750 
Q 2544 4750 2975 4387 
Q 3406 4025 3406 3419 
Q 3406 3131 3298 2873 
Q 3191 2616 2906 2266 
Q 2828 2175 2409 1742 
Q 1991 1309 1228 531 
z
" transform="scale(0.015625)"/>
       <path id="DejaVuSans-2e" d="M 684 794 
L 1344 794 
L 1344 0 
L 684 0 
L 684 794 
z
" transform="scale(0.015625)"/>
      </defs>
      <use xlink:href="#DejaVuSans-33"/>
      <use xlink:href="#DejaVuSans-32" transform="translate(63.623047 0)"/>
      <use xlink:href="#DejaVuSans-2e" transform="translate(127.246094 0)"/>
      <use xlink:href="#DejaVuSans-31" transform="translate(159.033203 0)"/>
      <use xlink:href="#DejaVuSans-31" transform="translate(222.65625 0)"/>
     </g>
    </g>
    <g id="patch_10">
     <path d="M 243.02475 202.19585 
L 332.5419 202.19585 
L 332.5419 171.521968 
L 243.02475 171.521968 
z
" style="fill: #ffffff; stroke: #000000; stroke-width: 0.72; stroke-linejoin: miter"/>
    </g>
    <g id="text_9">
     <!-- 2.74 -->
     <g transform="translate(274.980591 190.03219) scale(0.115 -0.115)">
      <defs>
       <path id="DejaVuSans-37" d="M 525 4666 
L 3525 4666 
L 3525 4397 
L 1831 0 
L 1172 0 
L 2766 4134 
L 525 4134 
L 525 4666 
z
" transform="scale(0.015625)"/>
      </defs>
      <use xlink:href="#DejaVuSans-32"/>
      <use xlink:href="#DejaVuSans-2e" transform="translate(63.623047 0)"/>
      <use xlink:href="#DejaVuSans-37" transform="translate(95.410156 0)"/>
      <use xlink:href="#DejaVuSans-34" transform="translate(159.033203 0)"/>
     </g>
    </g>
    <g id="patch_11">
     <path d="M 332.5419 202.19585 
L 496.656675 202.19585 
L 496.656675 171.521968 
L 332.5419 171.521968 
z
" style="fill: #ffffff; stroke: #000000; stroke-width: 0.72; stroke-linejoin: miter"/>
    </g>
    <g id="text_10">
     <!-- 0.02 -->
     <g transform="translate(401.796553 190.03219) scale(0.115 -0.115)">
      <use xlink:href="#DejaVuSans-30"/>
      <use xlink:href="#DejaVuSans-2e" transform="translate(63.623047 0)"/>
      <use xlink:href="#DejaVuSans-30" transform="translate(95.410156 0)"/>
      <use xlink:href="#DejaVuSans-32" transform="translate(159.033203 0)"/>
     </g>
    </g>
    <g id="patch_12">
     <path d="M 496.656675 202.19585 
L 630.9324 202.19585 
L 630.9324 171.521968 
L 496.656675 171.521968 
z
" style="fill: #ffffff; stroke: #000000; stroke-width: 0.72; stroke-linejoin: miter"/>
    </g>
    <g id="text_11">
     <!-- 2.99  (3.13) -->
     <g transform="translate(530.047428 190.03219) scale(0.115 -0.115)">
      <defs>
       <path id="DejaVuSans-39" d="M 703 97 
L 703 672 
Q 941 559 1184 500 
Q 1428 441 1663 441 
Q 2288 441 2617 861 
Q 2947 1281 2994 2138 
Q 2813 1869 2534 1725 
Q 2256 1581 1919 1581 
Q 1219 1581 811 2004 
Q 403 2428 403 3163 
Q 403 3881 828 4315 
Q 1253 4750 1959 4750 
Q 2769 4750 3195 4129 
Q 3622 3509 3622 2328 
Q 3622 1225 3098 567 
Q 2575 -91 1691 -91 
Q 1453 -91 1209 -44 
Q 966 3 703 97 
z
M 1959 2075 
Q 2384 2075 2632 2365 
Q 2881 2656 2881 3163 
Q 2881 3666 2632 3958 
Q 2384 4250 1959 4250 
Q 1534 4250 1286 3958 
Q 1038 3666 1038 3163 
Q 1038 2656 1286 2365 
Q 1534 2075 1959 2075 
z
" transform="scale(0.015625)"/>
       <path id="DejaVuSans-20" transform="scale(0.015625)"/>
       <path id="DejaVuSans-28" d="M 1984 4856 
Q 1566 4138 1362 3434 
Q 1159 2731 1159 2009 
Q 1159 1288 1364 580 
Q 1569 -128 1984 -844 
L 1484 -844 
Q 1016 -109 783 600 
Q 550 1309 550 2009 
Q 550 2706 781 3412 
Q 1013 4119 1484 4856 
L 1984 4856 
z
" transform="scale(0.015625)"/>
       <path id="DejaVuSans-29" d="M 513 4856 
L 1013 4856 
Q 1481 4119 1714 3412 
Q 1947 2706 1947 2009 
Q 1947 1309 1714 600 
Q 1481 -109 1013 -844 
L 513 -844 
Q 928 -128 1133 580 
Q 1338 1288 1338 2009 
Q 1338 2731 1133 3434 
Q 928 4138 513 4856 
z
" transform="scale(0.015625)"/>
      </defs>
      <use xlink:href="#DejaVuSans-32"/>
      <use xlink:href="#DejaVuSans-2e" transform="translate(63.623047 0)"/>
      <use xlink:href="#DejaVuSans-39" transform="translate(95.410156 0)"/>
      <use xlink:href="#DejaVuSans-39" transform="translate(159.033203 0)"/>
      <use xlink:href="#DejaVuSans-20" transform="translate(222.65625 0)"/>
      <use xlink:href="#DejaVuSans-20" transform="translate(254.443359 0)"/>
      <use xlink:href="#DejaVuSans-28" transform="translate(286.230469 0)"/>
      <use xlink:href="#DejaVuSans-33" transform="translate(325.244141 0)"/>
      <use xlink:href="#DejaVuSans-2e" transform="translate(388.867188 0)"/>
      <use xlink:href="#DejaVuSans-31" transform="translate(420.654297 0)"/>
      <use xlink:href="#DejaVuSans-33" transform="translate(484.277344 0)"/>
      <use xlink:href="#DejaVuSans-29" transform="translate(547.900391 0)"/>
     </g>
    </g>
    <g id="patch_13">
     <path d="M 630.9324 202.19585 
L 750.2886 202.19585 
L 750.2886 171.521968 
L 630.9324 171.521968 
z
" style="fill: #ffffff; stroke: #000000; stroke-width: 0.72; stroke-linejoin: miter"/>
    </g>
    <g id="text_12">
     <!-- 1.79  (1.09) -->
     <g transform="translate(656.863391 190.03219) scale(0.115 -0.115)">
      <use xlink:href="#DejaVuSans-31"/>
      <use xlink:href="#DejaVuSans-2e" transform="translate(63.623047 0)"/>
      <use xlink:href="#DejaVuSans-37" transform="translate(95.410156 0)"/>
      <use xlink:href="#DejaVuSans-39" transform="translate(159.033203 0)"/>
      <use xlink:href="#DejaVuSans-20" transform="translate(222.65625 0)"/>
      <use xlink:href="#DejaVuSans-20" transform="translate(254.443359 0)"/>
      <use xlink:href="#DejaVuSans-28" transform="translate(286.230469 0)"/>
      <use xlink:href="#DejaVuSans-31" transform="translate(325.244141 0)"/>
      <use xlink:href="#DejaVuSans-2e" transform="translate(388.867188 0)"/>
      <use xlink:href="#DejaVuSans-30" transform="translate(420.654297 0)"/>
      <use xlink:href="#DejaVuSans-39" transform="translate(484.277344 0)"/>
      <use xlink:href="#DejaVuSans-29" transform="translate(547.900391 0)"/>
     </g>
    </g>
    <g id="patch_14">
     <path d="M 34.1514 232.869732 
L 108.749025 232.869732 
L 108.749025 202.19585 
L 34.1514 202.19585 
z
" style="fill: #ffffff; stroke: #000000; stroke-width: 0.72; stroke-linejoin: miter"/>
    </g>
    <g id="text_13">
     <!-- Ar -->
     <g transform="translate(64.164783 220.706072) scale(0.115 -0.115)">
      <defs>
       <path id="DejaVuSans-Bold-41" d="M 3419 850 
L 1538 850 
L 1241 0 
L 31 0 
L 1759 4666 
L 3194 4666 
L 4922 0 
L 3713 0 
L 3419 850 
z
M 1838 1716 
L 3116 1716 
L 2478 3572 
L 1838 1716 
z
" transform="scale(0.015625)"/>
       <path id="DejaVuSans-Bold-72" d="M 3138 2547 
Q 2991 2616 2845 2648 
Q 2700 2681 2553 2681 
Q 2122 2681 1889 2404 
Q 1656 2128 1656 1613 
L 1656 0 
L 538 0 
L 538 3500 
L 1656 3500 
L 1656 2925 
Q 1872 3269 2151 3426 
Q 2431 3584 2822 3584 
Q 2878 3584 2943 3579 
Q 3009 3575 3134 3559 
L 3138 2547 
z
" transform="scale(0.015625)"/>
      </defs>
      <use xlink:href="#DejaVuSans-Bold-41"/>
      <use xlink:href="#DejaVuSans-Bold-72" transform="translate(77.392578 0)"/>
     </g>
    </g>
    <g id="patch_15">
     <path d="M 108.749025 232.869732 
L 243.02475 232.869732 
L 243.02475 202.19585 
L 108.749025 202.19585 
z
" style="fill: #ffffff; stroke: #000000; stroke-width: 0.72; stroke-linejoin: miter"/>
    </g>
    <g id="text_14">
     <!-- 107.25 -->
     <g transform="translate(155.767278 220.706072) scale(0.115 -0.115)">
      <defs>
       <path id="DejaVuSans-35" d="M 691 4666 
L 3169 4666 
L 3169 4134 
L 1269 4134 
L 1269 2991 
Q 1406 3038 1543 3061 
Q 1681 3084 1819 3084 
Q 2600 3084 3056 2656 
Q 3513 2228 3513 1497 
Q 3513 744 3044 326 
Q 2575 -91 1722 -91 
Q 1428 -91 1123 -41 
Q 819 9 494 109 
L 494 744 
Q 775 591 1075 516 
Q 1375 441 1709 441 
Q 2250 441 2565 725 
Q 2881 1009 2881 1497 
Q 2881 1984 2565 2268 
Q 2250 2553 1709 2553 
Q 1456 2553 1204 2497 
Q 953 2441 691 2322 
L 691 4666 
z
" transform="scale(0.015625)"/>
      </defs>
      <use xlink:href="#DejaVuSans-31"/>
      <use xlink:href="#DejaVuSans-30" transform="translate(63.623047 0)"/>
      <use xlink:href="#DejaVuSans-37" transform="translate(127.246094 0)"/>
      <use xlink:href="#DejaVuSans-2e" transform="translate(190.869141 0)"/>
      <use xlink:href="#DejaVuSans-32" transform="translate(222.65625 0)"/>
      <use xlink:href="#DejaVuSans-35" transform="translate(286.279297 0)"/>
     </g>
    </g>
    <g id="patch_16">
     <path d="M 243.02475 232.869732 
L 332.5419 232.869732 
L 332.5419 202.19585 
L 243.02475 202.19585 
z
" style="fill: #ffffff; stroke: #000000; stroke-width: 0.72; stroke-linejoin: miter"/>
    </g>
    <g id="text_15">
     <!-- 3.40 -->
     <g transform="translate(274.980591 220.706072) scale(0.115 -0.115)">
      <use xlink:href="#DejaVuSans-33"/>
      <use xlink:href="#DejaVuSans-2e" transform="translate(63.623047 0)"/>
      <use xlink:href="#DejaVuSans-34" transform="translate(95.410156 0)"/>
      <use xlink:href="#DejaVuSans-30" transform="translate(159.033203 0)"/>
     </g>
    </g>
    <g id="patch_17">
     <path d="M 332.5419 232.869732 
L 496.656675 232.869732 
L 496.656675 202.19585 
L 332.5419 202.19585 
z
" style="fill: #ffffff; stroke: #000000; stroke-width: 0.72; stroke-linejoin: miter"/>
    </g>
    <g id="text_16">
     <!-- 0.08 -->
     <g transform="translate(401.796553 220.706072) scale(0.115 -0.115)">
      <defs>
       <path id="DejaVuSans-38" d="M 2034 2216 
Q 1584 2216 1326 1975 
Q 1069 1734 1069 1313 
Q 1069 891 1326 650 
Q 1584 409 2034 409 
Q 2484 409 2743 651 
Q 3003 894 3003 1313 
Q 3003 1734 2745 1975 
Q 2488 2216 2034 2216 
z
M 1403 2484 
Q 997 2584 770 2862 
Q 544 3141 544 3541 
Q 544 4100 942 4425 
Q 1341 4750 2034 4750 
Q 2731 4750 3128 4425 
Q 3525 4100 3525 3541 
Q 3525 3141 3298 2862 
Q 3072 2584 2669 2484 
Q 3125 2378 3379 2068 
Q 3634 1759 3634 1313 
Q 3634 634 3220 271 
Q 2806 -91 2034 -91 
Q 1263 -91 848 271 
Q 434 634 434 1313 
Q 434 1759 690 2068 
Q 947 2378 1403 2484 
z
M 1172 3481 
Q 1172 3119 1398 2916 
Q 1625 2713 2034 2713 
Q 2441 2713 2670 2916 
Q 2900 3119 2900 3481 
Q 2900 3844 2670 4047 
Q 2441 4250 2034 4250 
Q 1625 4250 1398 4047 
Q 1172 3844 1172 3481 
z
" transform="scale(0.015625)"/>
      </defs>
      <use xlink:href="#DejaVuSans-30"/>
      <use xlink:href="#DejaVuSans-2e" transform="translate(63.623047 0)"/>
      <use xlink:href="#DejaVuSans-30" transform="translate(95.410156 0)"/>
      <use xlink:href="#DejaVuSans-38" transform="translate(159.033203 0)"/>
     </g>
    </g>
    <g id="patch_18">
     <path d="M 496.656675 232.869732 
L 630.9324 232.869732 
L 630.9324 202.19585 
L 496.656675 202.19585 
z
" style="fill: #ffffff; stroke: #000000; stroke-width: 0.72; stroke-linejoin: miter"/>
    </g>
    <g id="text_17">
     <!-- 3.71  (3.75) -->
     <g transform="translate(530.047428 220.706072) scale(0.115 -0.115)">
      <use xlink:href="#DejaVuSans-33"/>
      <use xlink:href="#DejaVuSans-2e" transform="translate(63.623047 0)"/>
      <use xlink:href="#DejaVuSans-37" transform="translate(95.410156 0)"/>
      <use xlink:href="#DejaVuSans-31" transform="translate(159.033203 0)"/>
      <use xlink:href="#DejaVuSans-20" transform="translate(222.65625 0)"/>
      <use xlink:href="#DejaVuSans-20" transform="translate(254.443359 0)"/>
      <use xlink:href="#DejaVuSans-28" transform="translate(286.230469 0)"/>
      <use xlink:href="#DejaVuSans-33" transform="translate(325.244141 0)"/>
      <use xlink:href="#DejaVuSans-2e" transform="translate(388.867188 0)"/>
      <use xlink:href="#DejaVuSans-37" transform="translate(420.654297 0)"/>
      <use xlink:href="#DejaVuSans-35" transform="translate(484.277344 0)"/>
      <use xlink:href="#DejaVuSans-29" transform="translate(547.900391 0)"/>
     </g>
    </g>
    <g id="patch_19">
     <path d="M 630.9324 232.869732 
L 750.2886 232.869732 
L 750.2886 202.19585 
L 630.9324 202.19585 
z
" style="fill: #ffffff; stroke: #000000; stroke-width: 0.72; stroke-linejoin: miter"/>
    </g>
    <g id="text_18">
     <!-- 3.15  (2.67) -->
     <g transform="translate(656.863391 220.706072) scale(0.115 -0.115)">
      <defs>
       <path id="DejaVuSans-36" d="M 2113 2584 
Q 1688 2584 1439 2293 
Q 1191 2003 1191 1497 
Q 1191 994 1439 701 
Q 1688 409 2113 409 
Q 2538 409 2786 701 
Q 3034 994 3034 1497 
Q 3034 2003 2786 2293 
Q 2538 2584 2113 2584 
z
M 3366 4563 
L 3366 3988 
Q 3128 4100 2886 4159 
Q 2644 4219 2406 4219 
Q 1781 4219 1451 3797 
Q 1122 3375 1075 2522 
Q 1259 2794 1537 2939 
Q 1816 3084 2150 3084 
Q 2853 3084 3261 2657 
Q 3669 2231 3669 1497 
Q 3669 778 3244 343 
Q 2819 -91 2113 -91 
Q 1303 -91 875 529 
Q 447 1150 447 2328 
Q 447 3434 972 4092 
Q 1497 4750 2381 4750 
Q 2619 4750 2861 4703 
Q 3103 4656 3366 4563 
z
" transform="scale(0.015625)"/>
      </defs>
      <use xlink:href="#DejaVuSans-33"/>
      <use xlink:href="#DejaVuSans-2e" transform="translate(63.623047 0)"/>
      <use xlink:href="#DejaVuSans-31" transform="translate(95.410156 0)"/>
      <use xlink:href="#DejaVuSans-35" transform="translate(159.033203 0)"/>
      <use xlink:href="#DejaVuSans-20" transform="translate(222.65625 0)"/>
      <use xlink:href="#DejaVuSans-20" transform="translate(254.443359 0)"/>
      <use xlink:href="#DejaVuSans-28" transform="translate(286.230469 0)"/>
      <use xlink:href="#DejaVuSans-32" transform="translate(325.244141 0)"/>
      <use xlink:href="#DejaVuSans-2e" transform="translate(388.867188 0)"/>
      <use xlink:href="#DejaVuSans-36" transform="translate(420.654297 0)"/>
      <use xlink:href="#DejaVuSans-37" transform="translate(484.277344 0)"/>
      <use xlink:href="#DejaVuSans-29" transform="translate(547.900391 0)"/>
     </g>
    </g>
    <g id="patch_20">
     <path d="M 34.1514 263.543614 
L 108.749025 263.543614 
L 108.749025 232.869732 
L 34.1514 232.869732 
z
" style="fill: #ffffff; stroke: #000000; stroke-width: 0.72; stroke-linejoin: miter"/>
    </g>
    <g id="text_19">
     <!-- Kr -->
     <g transform="translate(64.159392 251.379954) scale(0.115 -0.115)">
      <defs>
       <path id="DejaVuSans-Bold-4b" d="M 588 4666 
L 1791 4666 
L 1791 2963 
L 3525 4666 
L 4922 4666 
L 2675 2456 
L 5153 0 
L 3647 0 
L 1791 1838 
L 1791 0 
L 588 0 
L 588 4666 
z
" transform="scale(0.015625)"/>
      </defs>
      <use xlink:href="#DejaVuSans-Bold-4b"/>
      <use xlink:href="#DejaVuSans-Bold-72" transform="translate(77.490234 0)"/>
     </g>
    </g>
    <g id="patch_21">
     <path d="M 108.749025 263.543614 
L 243.02475 263.543614 
L 243.02475 232.869732 
L 108.749025 232.869732 
z
" style="fill: #ffffff; stroke: #000000; stroke-width: 0.72; stroke-linejoin: miter"/>
    </g>
    <g id="text_20">
     <!-- 144.49 -->
     <g transform="translate(155.767278 251.379954) scale(0.115 -0.115)">
      <use xlink:href="#DejaVuSans-31"/>
      <use xlink:href="#DejaVuSans-34" transform="translate(63.623047 0)"/>
      <use xlink:href="#DejaVuSans-34" transform="translate(127.246094 0)"/>
      <use xlink:href="#DejaVuSans-2e" transform="translate(190.869141 0)"/>
      <use xlink:href="#DejaVuSans-34" transform="translate(222.65625 0)"/>
      <use xlink:href="#DejaVuSans-39" transform="translate(286.279297 0)"/>
     </g>
    </g>
    <g id="patch_22">
     <path d="M 243.02475 263.543614 
L 332.5419 263.543614 
L 332.5419 232.869732 
L 243.02475 232.869732 
z
" style="fill: #ffffff; stroke: #000000; stroke-width: 0.72; stroke-linejoin: miter"/>
    </g>
    <g id="text_21">
     <!-- 3.65 -->
     <g transform="translate(274.980591 251.379954) scale(0.115 -0.115)">
      <use xlink:href="#DejaVuSans-33"/>
      <use xlink:href="#DejaVuSans-2e" transform="translate(63.623047 0)"/>
      <use xlink:href="#DejaVuSans-36" transform="translate(95.410156 0)"/>
      <use xlink:href="#DejaVuSans-35" transform="translate(159.033203 0)"/>
     </g>
    </g>
    <g id="patch_23">
     <path d="M 332.5419 263.543614 
L 496.656675 263.543614 
L 496.656675 232.869732 
L 332.5419 232.869732 
z
" style="fill: #ffffff; stroke: #000000; stroke-width: 0.72; stroke-linejoin: miter"/>
    </g>
    <g id="text_22">
     <!-- 0.12 -->
     <g transform="translate(401.796553 251.379954) scale(0.115 -0.115)">
      <use xlink:href="#DejaVuSans-30"/>
      <use xlink:href="#DejaVuSans-2e" transform="translate(63.623047 0)"/>
      <use xlink:href="#DejaVuSans-31" transform="translate(95.410156 0)"/>
      <use xlink:href="#DejaVuSans-32" transform="translate(159.033203 0)"/>
     </g>
    </g>
    <g id="patch_24">
     <path d="M 496.656675 263.543614 
L 630.9324 263.543614 
L 630.9324 232.869732 
L 496.656675 232.869732 
z
" style="fill: #ffffff; stroke: #000000; stroke-width: 0.72; stroke-linejoin: miter"/>
    </g>
    <g id="text_23">
     <!-- 3.98  (3.99) -->
     <g transform="translate(530.047428 251.379954) scale(0.115 -0.115)">
      <use xlink:href="#DejaVuSans-33"/>
      <use xlink:href="#DejaVuSans-2e" transform="translate(63.623047 0)"/>
      <use xlink:href="#DejaVuSans-39" transform="translate(95.410156 0)"/>
      <use xlink:href="#DejaVuSans-38" transform="translate(159.033203 0)"/>
      <use xlink:href="#DejaVuSans-20" transform="translate(222.65625 0)"/>
      <use xlink:href="#DejaVuSans-20" transform="translate(254.443359 0)"/>
      <use xlink:href="#DejaVuSans-28" transform="translate(286.230469 0)"/>
      <use xlink:href="#DejaVuSans-33" transform="translate(325.244141 0)"/>
      <use xlink:href="#DejaVuSans-2e" transform="translate(388.867188 0)"/>
      <use xlink:href="#DejaVuSans-39" transform="translate(420.654297 0)"/>
      <use xlink:href="#DejaVuSans-39" transform="translate(484.277344 0)"/>
      <use xlink:href="#DejaVuSans-29" transform="translate(547.900391 0)"/>
     </g>
    </g>
    <g id="patch_25">
     <path d="M 630.9324 263.543614 
L 750.2886 263.543614 
L 750.2886 232.869732 
L 630.9324 232.869732 
z
" style="fill: #ffffff; stroke: #000000; stroke-width: 0.72; stroke-linejoin: miter"/>
    </g>
    <g id="text_24">
     <!-- 3.42  (3.46) -->
     <g transform="translate(656.863391 251.379954) scale(0.115 -0.115)">
      <use xlink:href="#DejaVuSans-33"/>
      <use xlink:href="#DejaVuSans-2e" transform="translate(63.623047 0)"/>
      <use xlink:href="#DejaVuSans-34" transform="translate(95.410156 0)"/>
      <use xlink:href="#DejaVuSans-32" transform="translate(159.033203 0)"/>
      <use xlink:href="#DejaVuSans-20" transform="translate(222.65625 0)"/>
      <use xlink:href="#DejaVuSans-20" transform="translate(254.443359 0)"/>
      <use xlink:href="#DejaVuSans-28" transform="translate(286.230469 0)"/>
      <use xlink:href="#DejaVuSans-33" transform="translate(325.244141 0)"/>
      <use xlink:href="#DejaVuSans-2e" transform="translate(388.867188 0)"/>
      <use xlink:href="#DejaVuSans-34" transform="translate(420.654297 0)"/>
      <use xlink:href="#DejaVuSans-36" transform="translate(484.277344 0)"/>
      <use xlink:href="#DejaVuSans-29" transform="translate(547.900391 0)"/>
     </g>
    </g>
    <g id="patch_26">
     <path d="M 34.1514 294.217496 
L 108.749025 294.217496 
L 108.749025 263.543614 
L 34.1514 263.543614 
z
" style="fill: #ffffff; stroke: #000000; stroke-width: 0.72; stroke-linejoin: miter"/>
    </g>
    <g id="text_25">
     <!-- Xe -->
     <g transform="translate(63.268142 282.053836) scale(0.115 -0.115)">
      <defs>
       <path id="DejaVuSans-Bold-58" d="M 3188 2381 
L 4806 0 
L 3553 0 
L 2463 1594 
L 1381 0 
L 122 0 
L 1741 2381 
L 184 4666 
L 1441 4666 
L 2463 3163 
L 3481 4666 
L 4744 4666 
L 3188 2381 
z
" transform="scale(0.015625)"/>
      </defs>
      <use xlink:href="#DejaVuSans-Bold-58"/>
      <use xlink:href="#DejaVuSans-Bold-65" transform="translate(74.474609 0)"/>
     </g>
    </g>
    <g id="patch_27">
     <path d="M 108.749025 294.217496 
L 243.02475 294.217496 
L 243.02475 263.543614 
L 108.749025 263.543614 
z
" style="fill: #ffffff; stroke: #000000; stroke-width: 0.72; stroke-linejoin: miter"/>
    </g>
    <g id="text_26">
     <!-- 205.50 -->
     <g transform="translate(155.767278 282.053836) scale(0.115 -0.115)">
      <use xlink:href="#DejaVuSans-32"/>
      <use xlink:href="#DejaVuSans-30" transform="translate(63.623047 0)"/>
      <use xlink:href="#DejaVuSans-35" transform="translate(127.246094 0)"/>
      <use xlink:href="#DejaVuSans-2e" transform="translate(190.869141 0)"/>
      <use xlink:href="#DejaVuSans-35" transform="translate(222.65625 0)"/>
      <use xlink:href="#DejaVuSans-30" transform="translate(286.279297 0)"/>
     </g>
    </g>
    <g id="patch_28">
     <path d="M 243.02475 294.217496 
L 332.5419 294.217496 
L 332.5419 263.543614 
L 243.02475 263.543614 
z
" style="fill: #ffffff; stroke: #000000; stroke-width: 0.72; stroke-linejoin: miter"/>
    </g>
    <g id="text_27">
     <!-- 3.98 -->
     <g transform="translate(274.980591 282.053836) scale(0.115 -0.115)">
      <use xlink:href="#DejaVuSans-33"/>
      <use xlink:href="#DejaVuSans-2e" transform="translate(63.623047 0)"/>
      <use xlink:href="#DejaVuSans-39" transform="translate(95.410156 0)"/>
      <use xlink:href="#DejaVuSans-38" transform="translate(159.033203 0)"/>
     </g>
    </g>
    <g id="patch_29">
     <path d="M 332.5419 294.217496 
L 496.656675 294.217496 
L 496.656675 263.543614 
L 332.5419 263.543614 
z
" style="fill: #ffffff; stroke: #000000; stroke-width: 0.72; stroke-linejoin: miter"/>
    </g>
    <g id="text_28">
     <!-- 0.17 -->
     <g transform="translate(401.796553 282.053836) scale(0.115 -0.115)">
      <use xlink:href="#DejaVuSans-30"/>
      <use xlink:href="#DejaVuSans-2e" transform="translate(63.623047 0)"/>
      <use xlink:href="#DejaVuSans-31" transform="translate(95.410156 0)"/>
      <use xlink:href="#DejaVuSans-37" transform="translate(159.033203 0)"/>
     </g>
    </g>
    <g id="patch_30">
     <path d="M 496.656675 294.217496 
L 630.9324 294.217496 
L 630.9324 263.543614 
L 496.656675 263.543614 
z
" style="fill: #ffffff; stroke: #000000; stroke-width: 0.72; stroke-linejoin: miter"/>
    </g>
    <g id="text_29">
     <!-- 4.34  (4.33) -->
     <g transform="translate(530.047428 282.053836) scale(0.115 -0.115)">
      <use xlink:href="#DejaVuSans-34"/>
      <use xlink:href="#DejaVuSans-2e" transform="translate(63.623047 0)"/>
      <use xlink:href="#DejaVuSans-33" transform="translate(95.410156 0)"/>
      <use xlink:href="#DejaVuSans-34" transform="translate(159.033203 0)"/>
      <use xlink:href="#DejaVuSans-20" transform="translate(222.65625 0)"/>
      <use xlink:href="#DejaVuSans-20" transform="translate(254.443359 0)"/>
      <use xlink:href="#DejaVuSans-28" transform="translate(286.230469 0)"/>
      <use xlink:href="#DejaVuSans-34" transform="translate(325.244141 0)"/>
      <use xlink:href="#DejaVuSans-2e" transform="translate(388.867188 0)"/>
      <use xlink:href="#DejaVuSans-33" transform="translate(420.654297 0)"/>
      <use xlink:href="#DejaVuSans-33" transform="translate(484.277344 0)"/>
      <use xlink:href="#DejaVuSans-29" transform="translate(547.900391 0)"/>
     </g>
    </g>
    <g id="patch_31">
     <path d="M 630.9324 294.217496 
L 750.2886 294.217496 
L 750.2886 263.543614 
L 630.9324 263.543614 
z
" style="fill: #ffffff; stroke: #000000; stroke-width: 0.72; stroke-linejoin: miter"/>
    </g>
    <g id="text_30">
     <!-- 3.77  (3.56) -->
     <g transform="translate(656.863391 282.053836) scale(0.115 -0.115)">
      <use xlink:href="#DejaVuSans-33"/>
      <use xlink:href="#DejaVuSans-2e" transform="translate(63.623047 0)"/>
      <use xlink:href="#DejaVuSans-37" transform="translate(95.410156 0)"/>
      <use xlink:href="#DejaVuSans-37" transform="translate(159.033203 0)"/>
      <use xlink:href="#DejaVuSans-20" transform="translate(222.65625 0)"/>
      <use xlink:href="#DejaVuSans-20" transform="translate(254.443359 0)"/>
      <use xlink:href="#DejaVuSans-28" transform="translate(286.230469 0)"/>
      <use xlink:href="#DejaVuSans-33" transform="translate(325.244141 0)"/>
      <use xlink:href="#DejaVuSans-2e" transform="translate(388.867188 0)"/>
      <use xlink:href="#DejaVuSans-35" transform="translate(420.654297 0)"/>
      <use xlink:href="#DejaVuSans-36" transform="translate(484.277344 0)"/>
      <use xlink:href="#DejaVuSans-29" transform="translate(547.900391 0)"/>
     </g>
    </g>
   </g>
   <g id="text_31">
    <!-- I valori tra parentesi sono dati sperimentali; gli altri sono risultati del modello di Lennard–Jones. -->
    <g transform="translate(152.966875 338.181416) scale(0.1 -0.1)">
     <defs>
      <path id="DejaVuSans-49" d="M 628 4666 
L 1259 4666 
L 1259 0 
L 628 0 
L 628 4666 
z
" transform="scale(0.015625)"/>
      <path id="DejaVuSans-6c" d="M 603 4863 
L 1178 4863 
L 1178 0 
L 603 0 
L 603 4863 
z
" transform="scale(0.015625)"/>
      <path id="DejaVuSans-72" d="M 2631 2963 
Q 2534 3019 2420 3045 
Q 2306 3072 2169 3072 
Q 1681 3072 1420 2755 
Q 1159 2438 1159 1844 
L 1159 0 
L 581 0 
L 581 3500 
L 1159 3500 
L 1159 2956 
Q 1341 3275 1631 3429 
Q 1922 3584 2338 3584 
Q 2397 3584 2469 3576 
Q 2541 3569 2628 3553 
L 2631 2963 
z
" transform="scale(0.015625)"/>
      <path id="DejaVuSans-74" d="M 1172 4494 
L 1172 3500 
L 2356 3500 
L 2356 3053 
L 1172 3053 
L 1172 1153 
Q 1172 725 1289 603 
Q 1406 481 1766 481 
L 2356 481 
L 2356 0 
L 1766 0 
Q 1100 0 847 248 
Q 594 497 594 1153 
L 594 3053 
L 172 3053 
L 172 3500 
L 594 3500 
L 594 4494 
L 1172 4494 
z
" transform="scale(0.015625)"/>
      <path id="DejaVuSans-70" d="M 1159 525 
L 1159 -1331 
L 581 -1331 
L 581 3500 
L 1159 3500 
L 1159 2969 
Q 1341 3281 1617 3432 
Q 1894 3584 2278 3584 
Q 2916 3584 3314 3078 
Q 3713 2572 3713 1747 
Q 3713 922 3314 415 
Q 2916 -91 2278 -91 
Q 1894 -91 1617 61 
Q 1341 213 1159 525 
z
M 3116 1747 
Q 3116 2381 2855 2742 
Q 2594 3103 2138 3103 
Q 1681 3103 1420 2742 
Q 1159 2381 1159 1747 
Q 1159 1113 1420 752 
Q 1681 391 2138 391 
Q 2594 391 2855 752 
Q 3116 1113 3116 1747 
z
" transform="scale(0.015625)"/>
      <path id="DejaVuSans-6e" d="M 3513 2113 
L 3513 0 
L 2938 0 
L 2938 2094 
Q 2938 2591 2744 2837 
Q 2550 3084 2163 3084 
Q 1697 3084 1428 2787 
Q 1159 2491 1159 1978 
L 1159 0 
L 581 0 
L 581 3500 
L 1159 3500 
L 1159 2956 
Q 1366 3272 1645 3428 
Q 1925 3584 2291 3584 
Q 2894 3584 3203 3211 
Q 3513 2838 3513 2113 
z
" transform="scale(0.015625)"/>
      <path id="DejaVuSans-64" d="M 2906 2969 
L 2906 4863 
L 3481 4863 
L 3481 0 
L 2906 0 
L 2906 525 
Q 2725 213 2448 61 
Q 2172 -91 1784 -91 
Q 1150 -91 751 415 
Q 353 922 353 1747 
Q 353 2572 751 3078 
Q 1150 3584 1784 3584 
Q 2172 3584 2448 3432 
Q 2725 3281 2906 2969 
z
M 947 1747 
Q 947 1113 1208 752 
Q 1469 391 1925 391 
Q 2381 391 2643 752 
Q 2906 1113 2906 1747 
Q 2906 2381 2643 2742 
Q 2381 3103 1925 3103 
Q 1469 3103 1208 2742 
Q 947 2381 947 1747 
z
" transform="scale(0.015625)"/>
      <path id="DejaVuSans-6d" d="M 3328 2828 
Q 3544 3216 3844 3400 
Q 4144 3584 4550 3584 
Q 5097 3584 5394 3201 
Q 5691 2819 5691 2113 
L 5691 0 
L 5113 0 
L 5113 2094 
Q 5113 2597 4934 2840 
Q 4756 3084 4391 3084 
Q 3944 3084 3684 2787 
Q 3425 2491 3425 1978 
L 3425 0 
L 2847 0 
L 2847 2094 
Q 2847 2600 2669 2842 
Q 2491 3084 2119 3084 
Q 1678 3084 1418 2786 
Q 1159 2488 1159 1978 
L 1159 0 
L 581 0 
L 581 3500 
L 1159 3500 
L 1159 2956 
Q 1356 3278 1631 3431 
Q 1906 3584 2284 3584 
Q 2666 3584 2933 3390 
Q 3200 3197 3328 2828 
z
" transform="scale(0.015625)"/>
      <path id="DejaVuSans-3b" d="M 750 3309 
L 1409 3309 
L 1409 2516 
L 750 2516 
L 750 3309 
z
M 750 794 
L 1409 794 
L 1409 256 
L 897 -744 
L 494 -744 
L 750 256 
L 750 794 
z
" transform="scale(0.015625)"/>
      <path id="DejaVuSans-67" d="M 2906 1791 
Q 2906 2416 2648 2759 
Q 2391 3103 1925 3103 
Q 1463 3103 1205 2759 
Q 947 2416 947 1791 
Q 947 1169 1205 825 
Q 1463 481 1925 481 
Q 2391 481 2648 825 
Q 2906 1169 2906 1791 
z
M 3481 434 
Q 3481 -459 3084 -895 
Q 2688 -1331 1869 -1331 
Q 1566 -1331 1297 -1286 
Q 1028 -1241 775 -1147 
L 775 -588 
Q 1028 -725 1275 -790 
Q 1522 -856 1778 -856 
Q 2344 -856 2625 -561 
Q 2906 -266 2906 331 
L 2906 616 
Q 2728 306 2450 153 
Q 2172 0 1784 0 
Q 1141 0 747 490 
Q 353 981 353 1791 
Q 353 2603 747 3093 
Q 1141 3584 1784 3584 
Q 2172 3584 2450 3431 
Q 2728 3278 2906 2969 
L 2906 3500 
L 3481 3500 
L 3481 434 
z
" transform="scale(0.015625)"/>
      <path id="DejaVuSans-75" d="M 544 1381 
L 544 3500 
L 1119 3500 
L 1119 1403 
Q 1119 906 1312 657 
Q 1506 409 1894 409 
Q 2359 409 2629 706 
Q 2900 1003 2900 1516 
L 2900 3500 
L 3475 3500 
L 3475 0 
L 2900 0 
L 2900 538 
Q 2691 219 2414 64 
Q 2138 -91 1772 -91 
Q 1169 -91 856 284 
Q 544 659 544 1381 
z
M 1991 3584 
L 1991 3584 
z
" transform="scale(0.015625)"/>
      <path id="DejaVuSans-4c" d="M 628 4666 
L 1259 4666 
L 1259 531 
L 3531 531 
L 3531 0 
L 628 0 
L 628 4666 
z
" transform="scale(0.015625)"/>
      <path id="DejaVuSans-2013" d="M 313 1978 
L 2888 1978 
L 2888 1528 
L 313 1528 
L 313 1978 
z
" transform="scale(0.015625)"/>
      <path id="DejaVuSans-4a" d="M 628 4666 
L 1259 4666 
L 1259 325 
Q 1259 -519 939 -900 
Q 619 -1281 -91 -1281 
L -331 -1281 
L -331 -750 
L -134 -750 
Q 284 -750 456 -515 
Q 628 -281 628 325 
L 628 4666 
z
" transform="scale(0.015625)"/>
     </defs>
     <use xlink:href="#DejaVuSans-49"/>
     <use xlink:href="#DejaVuSans-20" transform="translate(29.492188 0)"/>
     <use xlink:href="#DejaVuSans-76" transform="translate(61.279297 0)"/>
     <use xlink:href="#DejaVuSans-61" transform="translate(120.458984 0)"/>
     <use xlink:href="#DejaVuSans-6c" transform="translate(181.738281 0)"/>
     <use xlink:href="#DejaVuSans-6f" transform="translate(209.521484 0)"/>
     <use xlink:href="#DejaVuSans-72" transform="translate(270.703125 0)"/>
     <use xlink:href="#DejaVuSans-69" transform="translate(311.816406 0)"/>
     <use xlink:href="#DejaVuSans-20" transform="translate(339.599609 0)"/>
     <use xlink:href="#DejaVuSans-74" transform="translate(371.386719 0)"/>
     <use xlink:href="#DejaVuSans-72" transform="translate(410.595703 0)"/>
     <use xlink:href="#DejaVuSans-61" transform="translate(451.708984 0)"/>
     <use xlink:href="#DejaVuSans-20" transform="translate(512.988281 0)"/>
     <use xlink:href="#DejaVuSans-70" transform="translate(544.775391 0)"/>
     <use xlink:href="#DejaVuSans-61" transform="translate(608.251953 0)"/>
     <use xlink:href="#DejaVuSans-72" transform="translate(669.53125 0)"/>
     <use xlink:href="#DejaVuSans-65" transform="translate(708.394531 0)"/>
     <use xlink:href="#DejaVuSans-6e" transform="translate(769.917969 0)"/>
     <use xlink:href="#DejaVuSans-74" transform="translate(833.296875 0)"/>
     <use xlink:href="#DejaVuSans-65" transform="translate(872.505859 0)"/>
     <use xlink:href="#DejaVuSans-73" transform="translate(934.029297 0)"/>
     <use xlink:href="#DejaVuSans-69" transform="translate(986.128906 0)"/>
     <use xlink:href="#DejaVuSans-20" transform="translate(1013.912109 0)"/>
     <use xlink:href="#DejaVuSans-73" transform="translate(1045.699219 0)"/>
     <use xlink:href="#DejaVuSans-6f" transform="translate(1097.798828 0)"/>
     <use xlink:href="#DejaVuSans-6e" transform="translate(1158.980469 0)"/>
     <use xlink:href="#DejaVuSans-6f" transform="translate(1222.359375 0)"/>
     <use xlink:href="#DejaVuSans-20" transform="translate(1283.541016 0)"/>
     <use xlink:href="#DejaVuSans-64" transform="translate(1315.328125 0)"/>
     <use xlink:href="#DejaVuSans-61" transform="translate(1378.804688 0)"/>
     <use xlink:href="#DejaVuSans-74" transform="translate(1440.083984 0)"/>
     <use xlink:href="#DejaVuSans-69" transform="translate(1479.292969 0)"/>
     <use xlink:href="#DejaVuSans-20" transform="translate(1507.076172 0)"/>
     <use xlink:href="#DejaVuSans-73" transform="translate(1538.863281 0)"/>
     <use xlink:href="#DejaVuSans-70" transform="translate(1590.962891 0)"/>
     <use xlink:href="#DejaVuSans-65" transform="translate(1654.439453 0)"/>
     <use xlink:href="#DejaVuSans-72" transform="translate(1715.962891 0)"/>
     <use xlink:href="#DejaVuSans-69" transform="translate(1757.076172 0)"/>
     <use xlink:href="#DejaVuSans-6d" transform="translate(1784.859375 0)"/>
     <use xlink:href="#DejaVuSans-65" transform="translate(1882.271484 0)"/>
     <use xlink:href="#DejaVuSans-6e" transform="translate(1943.794922 0)"/>
     <use xlink:href="#DejaVuSans-74" transform="translate(2007.173828 0)"/>
     <use xlink:href="#DejaVuSans-61" transform="translate(2046.382812 0)"/>
     <use xlink:href="#DejaVuSans-6c" transform="translate(2107.662109 0)"/>
     <use xlink:href="#DejaVuSans-69" transform="translate(2135.445312 0)"/>
     <use xlink:href="#DejaVuSans-3b" transform="translate(2163.228516 0)"/>
     <use xlink:href="#DejaVuSans-20" transform="translate(2196.919922 0)"/>
     <use xlink:href="#DejaVuSans-67" transform="translate(2228.707031 0)"/>
     <use xlink:href="#DejaVuSans-6c" transform="translate(2292.183594 0)"/>
     <use xlink:href="#DejaVuSans-69" transform="translate(2319.966797 0)"/>
     <use xlink:href="#DejaVuSans-20" transform="translate(2347.75 0)"/>
     <use xlink:href="#DejaVuSans-61" transform="translate(2379.537109 0)"/>
     <use xlink:href="#DejaVuSans-6c" transform="translate(2440.816406 0)"/>
     <use xlink:href="#DejaVuSans-74" transform="translate(2468.599609 0)"/>
     <use xlink:href="#DejaVuSans-72" transform="translate(2507.808594 0)"/>
     <use xlink:href="#DejaVuSans-69" transform="translate(2548.921875 0)"/>
     <use xlink:href="#DejaVuSans-20" transform="translate(2576.705078 0)"/>
     <use xlink:href="#DejaVuSans-73" transform="translate(2608.492188 0)"/>
     <use xlink:href="#DejaVuSans-6f" transform="translate(2660.591797 0)"/>
     <use xlink:href="#DejaVuSans-6e" transform="translate(2721.773438 0)"/>
     <use xlink:href="#DejaVuSans-6f" transform="translate(2785.152344 0)"/>
     <use xlink:href="#DejaVuSans-20" transform="translate(2846.333984 0)"/>
     <use xlink:href="#DejaVuSans-72" transform="translate(2878.121094 0)"/>
     <use xlink:href="#DejaVuSans-69" transform="translate(2919.234375 0)"/>
     <use xlink:href="#DejaVuSans-73" transform="translate(2947.017578 0)"/>
     <use xlink:href="#DejaVuSans-75" transform="translate(2999.117188 0)"/>
     <use xlink:href="#DejaVuSans-6c" transform="translate(3062.496094 0)"/>
     <use xlink:href="#DejaVuSans-74" transform="translate(3090.279297 0)"/>
     <use xlink:href="#DejaVuSans-61" transform="translate(3129.488281 0)"/>
     <use xlink:href="#DejaVuSans-74" transform="translate(3190.767578 0)"/>
     <use xlink:href="#DejaVuSans-69" transform="translate(3229.976562 0)"/>
     <use xlink:href="#DejaVuSans-20" transform="translate(3257.759766 0)"/>
     <use xlink:href="#DejaVuSans-64" transform="translate(3289.546875 0)"/>
     <use xlink:href="#DejaVuSans-65" transform="translate(3353.023438 0)"/>
     <use xlink:href="#DejaVuSans-6c" transform="translate(3414.546875 0)"/>
     <use xlink:href="#DejaVuSans-20" transform="translate(3442.330078 0)"/>
     <use xlink:href="#DejaVuSans-6d" transform="translate(3474.117188 0)"/>
     <use xlink:href="#DejaVuSans-6f" transform="translate(3571.529297 0)"/>
     <use xlink:href="#DejaVuSans-64" transform="translate(3632.710938 0)"/>
     <use xlink:href="#DejaVuSans-65" transform="translate(3696.1875 0)"/>
     <use xlink:href="#DejaVuSans-6c" transform="translate(3757.710938 0)"/>
     <use xlink:href="#DejaVuSans-6c" transform="translate(3785.494141 0)"/>
     <use xlink:href="#DejaVuSans-6f" transform="translate(3813.277344 0)"/>
     <use xlink:href="#DejaVuSans-20" transform="translate(3874.458984 0)"/>
     <use xlink:href="#DejaVuSans-64" transform="translate(3906.246094 0)"/>
     <use xlink:href="#DejaVuSans-69" transform="translate(3969.722656 0)"/>
     <use xlink:href="#DejaVuSans-20" transform="translate(3997.505859 0)"/>
     <use xlink:href="#DejaVuSans-4c" transform="translate(4029.292969 0)"/>
     <use xlink:href="#DejaVuSans-65" transform="translate(4083.255859 0)"/>
     <use xlink:href="#DejaVuSans-6e" transform="translate(4144.779297 0)"/>
     <use xlink:href="#DejaVuSans-6e" transform="translate(4208.158203 0)"/>
     <use xlink:href="#DejaVuSans-61" transform="translate(4271.537109 0)"/>
     <use xlink:href="#DejaVuSans-72" transform="translate(4332.816406 0)"/>
     <use xlink:href="#DejaVuSans-64" transform="translate(4372.179688 0)"/>
     <use xlink:href="#DejaVuSans-2013" transform="translate(4435.65625 0)"/>
     <use xlink:href="#DejaVuSans-4a" transform="translate(4485.65625 0)"/>
     <use xlink:href="#DejaVuSans-6f" transform="translate(4515.148438 0)"/>
     <use xlink:href="#DejaVuSans-6e" transform="translate(4576.330078 0)"/>
     <use xlink:href="#DejaVuSans-65" transform="translate(4639.708984 0)"/>
     <use xlink:href="#DejaVuSans-73" transform="translate(4701.232422 0)"/>
     <use xlink:href="#DejaVuSans-2e" transform="translate(4753.332031 0)"/>
    </g>
   </g>
   <g id="text_32">
    <!-- Parametri di Lennard–Jones e proprietà di cristalli fcc di gas nobili -->
    <g transform="translate(112.321172 19.197656) scale(0.15 -0.15)">
     <defs>
      <path id="DejaVuSans-Bold-50" d="M 588 4666 
L 2584 4666 
Q 3475 4666 3951 4270 
Q 4428 3875 4428 3144 
Q 4428 2409 3951 2014 
Q 3475 1619 2584 1619 
L 1791 1619 
L 1791 0 
L 588 0 
L 588 4666 
z
M 1791 3794 
L 1791 2491 
L 2456 2491 
Q 2806 2491 2997 2661 
Q 3188 2831 3188 3144 
Q 3188 3456 2997 3625 
Q 2806 3794 2456 3794 
L 1791 3794 
z
" transform="scale(0.015625)"/>
      <path id="DejaVuSans-Bold-69" d="M 538 3500 
L 1656 3500 
L 1656 0 
L 538 0 
L 538 3500 
z
M 538 4863 
L 1656 4863 
L 1656 3950 
L 538 3950 
L 538 4863 
z
" transform="scale(0.015625)"/>
      <path id="DejaVuSans-Bold-64" d="M 2919 2988 
L 2919 4863 
L 4044 4863 
L 4044 0 
L 2919 0 
L 2919 506 
Q 2688 197 2409 53 
Q 2131 -91 1766 -91 
Q 1119 -91 703 423 
Q 288 938 288 1747 
Q 288 2556 703 3070 
Q 1119 3584 1766 3584 
Q 2128 3584 2408 3439 
Q 2688 3294 2919 2988 
z
M 2181 722 
Q 2541 722 2730 984 
Q 2919 1247 2919 1747 
Q 2919 2247 2730 2509 
Q 2541 2772 2181 2772 
Q 1825 2772 1636 2509 
Q 1447 2247 1447 1747 
Q 1447 1247 1636 984 
Q 1825 722 2181 722 
z
" transform="scale(0.015625)"/>
      <path id="DejaVuSans-Bold-4c" d="M 588 4666 
L 1791 4666 
L 1791 909 
L 3903 909 
L 3903 0 
L 588 0 
L 588 4666 
z
" transform="scale(0.015625)"/>
      <path id="DejaVuSans-Bold-2013" d="M 344 2156 
L 2856 2156 
L 2856 1350 
L 344 1350 
L 344 2156 
z
" transform="scale(0.015625)"/>
      <path id="DejaVuSans-Bold-4a" d="M 588 4666 
L 1791 4666 
L 1791 453 
Q 1791 -419 1317 -850 
Q 844 -1281 -116 -1281 
L -359 -1281 
L -359 -372 
L -172 -372 
Q 203 -372 395 -162 
Q 588 47 588 453 
L 588 4666 
z
" transform="scale(0.015625)"/>
      <path id="DejaVuSans-Bold-73" d="M 3272 3391 
L 3272 2541 
Q 2913 2691 2578 2766 
Q 2244 2841 1947 2841 
Q 1628 2841 1473 2761 
Q 1319 2681 1319 2516 
Q 1319 2381 1436 2309 
Q 1553 2238 1856 2203 
L 2053 2175 
Q 2913 2066 3209 1816 
Q 3506 1566 3506 1031 
Q 3506 472 3093 190 
Q 2681 -91 1863 -91 
Q 1516 -91 1145 -36 
Q 775 19 384 128 
L 384 978 
Q 719 816 1070 734 
Q 1422 653 1784 653 
Q 2113 653 2278 743 
Q 2444 834 2444 1013 
Q 2444 1163 2330 1236 
Q 2216 1309 1875 1350 
L 1678 1375 
Q 931 1469 631 1722 
Q 331 1975 331 2491 
Q 331 3047 712 3315 
Q 1094 3584 1881 3584 
Q 2191 3584 2531 3537 
Q 2872 3491 3272 3391 
z
" transform="scale(0.015625)"/>
      <path id="DejaVuSans-Bold-70" d="M 1656 506 
L 1656 -1331 
L 538 -1331 
L 538 3500 
L 1656 3500 
L 1656 2988 
Q 1888 3294 2169 3439 
Q 2450 3584 2816 3584 
Q 3463 3584 3878 3070 
Q 4294 2556 4294 1747 
Q 4294 938 3878 423 
Q 3463 -91 2816 -91 
Q 2450 -91 2169 54 
Q 1888 200 1656 506 
z
M 2400 2772 
Q 2041 2772 1848 2508 
Q 1656 2244 1656 1747 
Q 1656 1250 1848 986 
Q 2041 722 2400 722 
Q 2759 722 2948 984 
Q 3138 1247 3138 1747 
Q 3138 2247 2948 2509 
Q 2759 2772 2400 2772 
z
" transform="scale(0.015625)"/>
      <path id="DejaVuSans-Bold-e0" d="M 2106 1575 
Q 1756 1575 1579 1456 
Q 1403 1338 1403 1106 
Q 1403 894 1545 773 
Q 1688 653 1941 653 
Q 2256 653 2472 879 
Q 2688 1106 2688 1447 
L 2688 1575 
L 2106 1575 
z
M 3816 1997 
L 3816 0 
L 2688 0 
L 2688 519 
Q 2463 200 2181 54 
Q 1900 -91 1497 -91 
Q 953 -91 614 226 
Q 275 544 275 1050 
Q 275 1666 698 1953 
Q 1122 2241 2028 2241 
L 2688 2241 
L 2688 2328 
Q 2688 2594 2478 2717 
Q 2269 2841 1825 2841 
Q 1466 2841 1156 2769 
Q 847 2697 581 2553 
L 581 3406 
Q 941 3494 1303 3539 
Q 1666 3584 2028 3584 
Q 2975 3584 3395 3211 
Q 3816 2838 3816 1997 
z
M 1762 5119 
L 2643 3944 
L 2031 3944 
L 878 5119 
L 1762 5119 
z
" transform="scale(0.015625)"/>
      <path id="DejaVuSans-Bold-63" d="M 3366 3391 
L 3366 2478 
Q 3138 2634 2908 2709 
Q 2678 2784 2431 2784 
Q 1963 2784 1702 2511 
Q 1441 2238 1441 1747 
Q 1441 1256 1702 982 
Q 1963 709 2431 709 
Q 2694 709 2930 787 
Q 3166 866 3366 1019 
L 3366 103 
Q 3103 6 2833 -42 
Q 2563 -91 2291 -91 
Q 1344 -91 809 395 
Q 275 881 275 1747 
Q 275 2613 809 3098 
Q 1344 3584 2291 3584 
Q 2566 3584 2833 3536 
Q 3100 3488 3366 3391 
z
" transform="scale(0.015625)"/>
      <path id="DejaVuSans-Bold-66" d="M 2841 4863 
L 2841 4128 
L 2222 4128 
Q 1984 4128 1890 4042 
Q 1797 3956 1797 3744 
L 1797 3500 
L 2753 3500 
L 2753 2700 
L 1797 2700 
L 1797 0 
L 678 0 
L 678 2700 
L 122 2700 
L 122 3500 
L 678 3500 
L 678 3744 
Q 678 4316 997 4589 
Q 1316 4863 1984 4863 
L 2841 4863 
z
" transform="scale(0.015625)"/>
      <path id="DejaVuSans-Bold-67" d="M 2919 594 
Q 2688 288 2409 144 
Q 2131 0 1766 0 
Q 1125 0 706 504 
Q 288 1009 288 1791 
Q 288 2575 706 3076 
Q 1125 3578 1766 3578 
Q 2131 3578 2409 3434 
Q 2688 3291 2919 2981 
L 2919 3500 
L 4044 3500 
L 4044 353 
Q 4044 -491 3511 -936 
Q 2978 -1381 1966 -1381 
Q 1638 -1381 1331 -1331 
Q 1025 -1281 716 -1178 
L 716 -306 
Q 1009 -475 1290 -558 
Q 1572 -641 1856 -641 
Q 2406 -641 2662 -400 
Q 2919 -159 2919 353 
L 2919 594 
z
M 2181 2772 
Q 1834 2772 1640 2515 
Q 1447 2259 1447 1791 
Q 1447 1309 1634 1061 
Q 1822 813 2181 813 
Q 2531 813 2725 1069 
Q 2919 1325 2919 1791 
Q 2919 2259 2725 2515 
Q 2531 2772 2181 2772 
z
" transform="scale(0.015625)"/>
      <path id="DejaVuSans-Bold-62" d="M 2400 722 
Q 2759 722 2948 984 
Q 3138 1247 3138 1747 
Q 3138 2247 2948 2509 
Q 2759 2772 2400 2772 
Q 2041 2772 1848 2508 
Q 1656 2244 1656 1747 
Q 1656 1250 1848 986 
Q 2041 722 2400 722 
z
M 1656 2988 
Q 1888 3294 2169 3439 
Q 2450 3584 2816 3584 
Q 3463 3584 3878 3070 
Q 4294 2556 4294 1747 
Q 4294 938 3878 423 
Q 3463 -91 2816 -91 
Q 2450 -91 2169 54 
Q 1888 200 1656 506 
L 1656 0 
L 538 0 
L 538 4863 
L 1656 4863 
L 1656 2988 
z
" transform="scale(0.015625)"/>
     </defs>
     <use xlink:href="#DejaVuSans-Bold-50"/>
     <use xlink:href="#DejaVuSans-Bold-61" transform="translate(70.666016 0)"/>
     <use xlink:href="#DejaVuSans-Bold-72" transform="translate(138.146484 0)"/>
     <use xlink:href="#DejaVuSans-Bold-61" transform="translate(187.462891 0)"/>
     <use xlink:href="#DejaVuSans-Bold-6d" transform="translate(254.943359 0)"/>
     <use xlink:href="#DejaVuSans-Bold-65" transform="translate(359.142578 0)"/>
     <use xlink:href="#DejaVuSans-Bold-74" transform="translate(426.964844 0)"/>
     <use xlink:href="#DejaVuSans-Bold-72" transform="translate(474.767578 0)"/>
     <use xlink:href="#DejaVuSans-Bold-69" transform="translate(524.083984 0)"/>
     <use xlink:href="#DejaVuSans-Bold-20" transform="translate(558.361328 0)"/>
     <use xlink:href="#DejaVuSans-Bold-64" transform="translate(593.175781 0)"/>
     <use xlink:href="#DejaVuSans-Bold-69" transform="translate(664.757812 0)"/>
     <use xlink:href="#DejaVuSans-Bold-20" transform="translate(699.035156 0)"/>
     <use xlink:href="#DejaVuSans-Bold-4c" transform="translate(733.849609 0)"/>
     <use xlink:href="#DejaVuSans-Bold-65" transform="translate(797.570312 0)"/>
     <use xlink:href="#DejaVuSans-Bold-6e" transform="translate(865.392578 0)"/>
     <use xlink:href="#DejaVuSans-Bold-6e" transform="translate(936.583984 0)"/>
     <use xlink:href="#DejaVuSans-Bold-61" transform="translate(1007.775391 0)"/>
     <use xlink:href="#DejaVuSans-Bold-72" transform="translate(1075.255859 0)"/>
     <use xlink:href="#DejaVuSans-Bold-64" transform="translate(1124.572266 0)"/>
     <use xlink:href="#DejaVuSans-Bold-2013" transform="translate(1196.154297 0)"/>
     <use xlink:href="#DejaVuSans-Bold-4a" transform="translate(1246.154297 0)"/>
     <use xlink:href="#DejaVuSans-Bold-6f" transform="translate(1283.361328 0)"/>
     <use xlink:href="#DejaVuSans-Bold-6e" transform="translate(1352.0625 0)"/>
     <use xlink:href="#DejaVuSans-Bold-65" transform="translate(1423.253906 0)"/>
     <use xlink:href="#DejaVuSans-Bold-73" transform="translate(1491.076172 0)"/>
     <use xlink:href="#DejaVuSans-Bold-20" transform="translate(1550.597656 0)"/>
     <use xlink:href="#DejaVuSans-Bold-65" transform="translate(1585.412109 0)"/>
     <use xlink:href="#DejaVuSans-Bold-20" transform="translate(1653.234375 0)"/>
     <use xlink:href="#DejaVuSans-Bold-70" transform="translate(1688.048828 0)"/>
     <use xlink:href="#DejaVuSans-Bold-72" transform="translate(1759.630859 0)"/>
     <use xlink:href="#DejaVuSans-Bold-6f" transform="translate(1808.947266 0)"/>
     <use xlink:href="#DejaVuSans-Bold-70" transform="translate(1877.648438 0)"/>
     <use xlink:href="#DejaVuSans-Bold-72" transform="translate(1949.230469 0)"/>
     <use xlink:href="#DejaVuSans-Bold-69" transform="translate(1998.546875 0)"/>
     <use xlink:href="#DejaVuSans-Bold-65" transform="translate(2032.824219 0)"/>
     <use xlink:href="#DejaVuSans-Bold-74" transform="translate(2100.646484 0)"/>
     <use xlink:href="#DejaVuSans-Bold-e0" transform="translate(2148.449219 0)"/>
     <use xlink:href="#DejaVuSans-Bold-20" transform="translate(2215.929688 0)"/>
     <use xlink:href="#DejaVuSans-Bold-64" transform="translate(2250.744141 0)"/>
     <use xlink:href="#DejaVuSans-Bold-69" transform="translate(2322.326172 0)"/>
     <use xlink:href="#DejaVuSans-Bold-20" transform="translate(2356.603516 0)"/>
     <use xlink:href="#DejaVuSans-Bold-63" transform="translate(2391.417969 0)"/>
     <use xlink:href="#DejaVuSans-Bold-72" transform="translate(2450.695312 0)"/>
     <use xlink:href="#DejaVuSans-Bold-69" transform="translate(2500.011719 0)"/>
     <use xlink:href="#DejaVuSans-Bold-73" transform="translate(2534.289062 0)"/>
     <use xlink:href="#DejaVuSans-Bold-74" transform="translate(2593.810547 0)"/>
     <use xlink:href="#DejaVuSans-Bold-61" transform="translate(2641.613281 0)"/>
     <use xlink:href="#DejaVuSans-Bold-6c" transform="translate(2709.09375 0)"/>
     <use xlink:href="#DejaVuSans-Bold-6c" transform="translate(2743.371094 0)"/>
     <use xlink:href="#DejaVuSans-Bold-69" transform="translate(2777.648438 0)"/>
     <use xlink:href="#DejaVuSans-Bold-20" transform="translate(2811.925781 0)"/>
     <use xlink:href="#DejaVuSans-Bold-66" transform="translate(2846.740234 0)"/>
     <use xlink:href="#DejaVuSans-Bold-63" transform="translate(2890.246094 0)"/>
     <use xlink:href="#DejaVuSans-Bold-63" transform="translate(2949.523438 0)"/>
     <use xlink:href="#DejaVuSans-Bold-20" transform="translate(3008.800781 0)"/>
     <use xlink:href="#DejaVuSans-Bold-64" transform="translate(3043.615234 0)"/>
     <use xlink:href="#DejaVuSans-Bold-69" transform="translate(3115.197266 0)"/>
     <use xlink:href="#DejaVuSans-Bold-20" transform="translate(3149.474609 0)"/>
     <use xlink:href="#DejaVuSans-Bold-67" transform="translate(3184.289062 0)"/>
     <use xlink:href="#DejaVuSans-Bold-61" transform="translate(3255.871094 0)"/>
     <use xlink:href="#DejaVuSans-Bold-73" transform="translate(3323.351562 0)"/>
     <use xlink:href="#DejaVuSans-Bold-20" transform="translate(3382.873047 0)"/>
     <use xlink:href="#DejaVuSans-Bold-6e" transform="translate(3417.6875 0)"/>
     <use xlink:href="#DejaVuSans-Bold-6f" transform="translate(3488.878906 0)"/>
     <use xlink:href="#DejaVuSans-Bold-62" transform="translate(3557.580078 0)"/>
     <use xlink:href="#DejaVuSans-Bold-69" transform="translate(3629.162109 0)"/>
     <use xlink:href="#DejaVuSans-Bold-6c" transform="translate(3663.439453 0)"/>
     <use xlink:href="#DejaVuSans-Bold-69" transform="translate(3697.716797 0)"/>
    </g>
   </g>
  </g>
 </g>
</svg>
