<?xml version="1.0" encoding="utf-8" standalone="no"?>
<!DOCTYPE svg PUBLIC "-//W3C//DTD SVG 1.1//EN"
  "http://www.w3.org/Graphics/SVG/1.1/DTD/svg11.dtd">
<svg xmlns:xlink="http://www.w3.org/1999/xlink" width="896.04pt" height="526.125656pt" viewBox="0 0 896.04 526.125656" xmlns="http://www.w3.org/2000/svg" version="1.1">
 <metadata>
  <rdf:RDF xmlns:dc="http://purl.org/dc/elements/1.1/" xmlns:cc="http://creativecommons.org/ns#" xmlns:rdf="http://www.w3.org/1999/02/22-rdf-syntax-ns#">
   <cc:Work>
    <dc:type rdf:resource="http://purl.org/dc/dcmitype/StillImage"/>
    <dc:date>2026-06-16T09:27:52.109533</dc:date>
    <dc:format>image/svg+xml</dc:format>
    <dc:creator>
     <cc:Agent>
      <dc:title>Matplotlib v3.10.8, https://matplotlib.org/</dc:title>
     </cc:Agent>
    </dc:creator>
   </cc:Work>
  </rdf:RDF>
 </metadata>
 <defs>
  <style type="text/css">*{stroke-linejoin: round; stroke-linecap: butt}</style>
 </defs>
 <g id="figure_1">
  <g id="patch_1">
   <path d="M 0 526.125656 
L 896.04 526.125656 
L 896.04 0 
L 0 0 
z
" style="fill: #ffffff"/>
  </g>
  <g id="axes_1">
   <g id="table_1">
    <g id="patch_2">
     <path d="M 20.4246 164.055396 
L 105.94368 164.055396 
L 105.94368 113.770136 
L 20.4246 113.770136 
z
" style="fill: #ffffff; stroke: #000000; stroke-width: 0.72; stroke-linejoin: miter"/>
    </g>
    <g id="text_1">
     <!-- Vettore -->
     <g transform="translate(40.441703 141.892891) scale(0.108 -0.108)">
      <defs>
       <path id="DejaVuSans-Bold-56" d="M 31 4666 
L 1241 4666 
L 2478 1222 
L 3713 4666 
L 4922 4666 
L 3194 0 
L 1759 0 
L 31 4666 
z
" transform="scale(0.015625)"/>
       <path id="DejaVuSans-Bold-65" d="M 4031 1759 
L 4031 1441 
L 1416 1441 
Q 1456 1047 1700 850 
Q 1944 653 2381 653 
Q 2734 653 3104 758 
Q 3475 863 3866 1075 
L 3866 213 
Q 3469 63 3072 -14 
Q 2675 -91 2278 -91 
Q 1328 -91 801 392 
Q 275 875 275 1747 
Q 275 2603 792 3093 
Q 1309 3584 2216 3584 
Q 3041 3584 3536 3087 
Q 4031 2591 4031 1759 
z
M 2881 2131 
Q 2881 2450 2695 2645 
Q 2509 2841 2209 2841 
Q 1884 2841 1681 2658 
Q 1478 2475 1428 2131 
L 2881 2131 
z
" transform="scale(0.015625)"/>
       <path id="DejaVuSans-Bold-74" d="M 1759 4494 
L 1759 3500 
L 2913 3500 
L 2913 2700 
L 1759 2700 
L 1759 1216 
Q 1759 972 1856 886 
Q 1953 800 2241 800 
L 2816 800 
L 2816 0 
L 1856 0 
Q 1194 0 917 276 
Q 641 553 641 1216 
L 641 2700 
L 84 2700 
L 84 3500 
L 641 3500 
L 641 4494 
L 1759 4494 
z
" transform="scale(0.015625)"/>
       <path id="DejaVuSans-Bold-6f" d="M 2203 2784 
Q 1831 2784 1636 2517 
Q 1441 2250 1441 1747 
Q 1441 1244 1636 976 
Q 1831 709 2203 709 
Q 2569 709 2762 976 
Q 2956 1244 2956 1747 
Q 2956 2250 2762 2517 
Q 2569 2784 2203 2784 
z
M 2203 3584 
Q 3106 3584 3614 3096 
Q 4122 2609 4122 1747 
Q 4122 884 3614 396 
Q 3106 -91 2203 -91 
Q 1297 -91 786 396 
Q 275 884 275 1747 
Q 275 2609 786 3096 
Q 1297 3584 2203 3584 
z
" transform="scale(0.015625)"/>
       <path id="DejaVuSans-Bold-72" d="M 3138 2547 
Q 2991 2616 2845 2648 
Q 2700 2681 2553 2681 
Q 2122 2681 1889 2404 
Q 1656 2128 1656 1613 
L 1656 0 
L 538 0 
L 538 3500 
L 1656 3500 
L 1656 2925 
Q 1872 3269 2151 3426 
Q 2431 3584 2822 3584 
Q 2878 3584 2943 3579 
Q 3009 3575 3134 3559 
L 3138 2547 
z
" transform="scale(0.015625)"/>
      </defs>
      <use xlink:href="#DejaVuSans-Bold-56"/>
      <use xlink:href="#DejaVuSans-Bold-65" transform="translate(71.892578 0)"/>
      <use xlink:href="#DejaVuSans-Bold-74" transform="translate(139.714844 0)"/>
      <use xlink:href="#DejaVuSans-Bold-74" transform="translate(187.517578 0)"/>
      <use xlink:href="#DejaVuSans-Bold-6f" transform="translate(235.320312 0)"/>
      <use xlink:href="#DejaVuSans-Bold-72" transform="translate(304.021484 0)"/>
      <use xlink:href="#DejaVuSans-Bold-65" transform="translate(353.337891 0)"/>
     </g>
    </g>
    <g id="patch_3">
     <path d="M 105.94368 164.055396 
L 242.774208 164.055396 
L 242.774208 113.770136 
L 105.94368 113.770136 
z
" style="fill: #ffffff; stroke: #000000; stroke-width: 0.72; stroke-linejoin: miter"/>
    </g>
    <g id="text_2">
     <!-- sc -->
     <g transform="translate(167.943913 141.892891) scale(0.108 -0.108)">
      <defs>
       <path id="DejaVuSans-Bold-73" d="M 3272 3391 
L 3272 2541 
Q 2913 2691 2578 2766 
Q 2244 2841 1947 2841 
Q 1628 2841 1473 2761 
Q 1319 2681 1319 2516 
Q 1319 2381 1436 2309 
Q 1553 2238 1856 2203 
L 2053 2175 
Q 2913 2066 3209 1816 
Q 3506 1566 3506 1031 
Q 3506 472 3093 190 
Q 2681 -91 1863 -91 
Q 1516 -91 1145 -36 
Q 775 19 384 128 
L 384 978 
Q 719 816 1070 734 
Q 1422 653 1784 653 
Q 2113 653 2278 743 
Q 2444 834 2444 1013 
Q 2444 1163 2330 1236 
Q 2216 1309 1875 1350 
L 1678 1375 
Q 931 1469 631 1722 
Q 331 1975 331 2491 
Q 331 3047 712 3315 
Q 1094 3584 1881 3584 
Q 2191 3584 2531 3537 
Q 2872 3491 3272 3391 
z
" transform="scale(0.015625)"/>
       <path id="DejaVuSans-Bold-63" d="M 3366 3391 
L 3366 2478 
Q 3138 2634 2908 2709 
Q 2678 2784 2431 2784 
Q 1963 2784 1702 2511 
Q 1441 2238 1441 1747 
Q 1441 1256 1702 982 
Q 1963 709 2431 709 
Q 2694 709 2930 787 
Q 3166 866 3366 1019 
L 3366 103 
Q 3103 6 2833 -42 
Q 2563 -91 2291 -91 
Q 1344 -91 809 395 
Q 275 881 275 1747 
Q 275 2613 809 3098 
Q 1344 3584 2291 3584 
Q 2566 3584 2833 3536 
Q 3100 3488 3366 3391 
z
" transform="scale(0.015625)"/>
      </defs>
      <use xlink:href="#DejaVuSans-Bold-73"/>
      <use xlink:href="#DejaVuSans-Bold-63" transform="translate(59.521484 0)"/>
     </g>
    </g>
    <g id="patch_4">
     <path d="M 242.774208 164.055396 
L 456.571908 164.055396 
L 456.571908 113.770136 
L 242.774208 113.770136 
z
" style="fill: #ffffff; stroke: #000000; stroke-width: 0.72; stroke-linejoin: miter"/>
    </g>
    <g id="text_3">
     <!-- bcc -->
     <g transform="translate(339.405464 141.892891) scale(0.108 -0.108)">
      <defs>
       <path id="DejaVuSans-Bold-62" d="M 2400 722 
Q 2759 722 2948 984 
Q 3138 1247 3138 1747 
Q 3138 2247 2948 2509 
Q 2759 2772 2400 2772 
Q 2041 2772 1848 2508 
Q 1656 2244 1656 1747 
Q 1656 1250 1848 986 
Q 2041 722 2400 722 
z
M 1656 2988 
Q 1888 3294 2169 3439 
Q 2450 3584 2816 3584 
Q 3463 3584 3878 3070 
Q 4294 2556 4294 1747 
Q 4294 938 3878 423 
Q 3463 -91 2816 -91 
Q 2450 -91 2169 54 
Q 1888 200 1656 506 
L 1656 0 
L 538 0 
L 538 4863 
L 1656 4863 
L 1656 2988 
z
" transform="scale(0.015625)"/>
      </defs>
      <use xlink:href="#DejaVuSans-Bold-62"/>
      <use xlink:href="#DejaVuSans-Bold-63" transform="translate(71.582031 0)"/>
      <use xlink:href="#DejaVuSans-Bold-63" transform="translate(130.859375 0)"/>
     </g>
    </g>
    <g id="patch_5">
     <path d="M 456.571908 164.055396 
L 670.369608 164.055396 
L 670.369608 113.770136 
L 456.571908 113.770136 
z
" style="fill: #ffffff; stroke: #000000; stroke-width: 0.72; stroke-linejoin: miter"/>
    </g>
    <g id="text_4">
     <!-- fcc -->
     <g transform="translate(554.719383 141.892891) scale(0.108 -0.108)">
      <defs>
       <path id="DejaVuSans-Bold-66" d="M 2841 4863 
L 2841 4128 
L 2222 4128 
Q 1984 4128 1890 4042 
Q 1797 3956 1797 3744 
L 1797 3500 
L 2753 3500 
L 2753 2700 
L 1797 2700 
L 1797 0 
L 678 0 
L 678 2700 
L 122 2700 
L 122 3500 
L 678 3500 
L 678 3744 
Q 678 4316 997 4589 
Q 1316 4863 1984 4863 
L 2841 4863 
z
" transform="scale(0.015625)"/>
      </defs>
      <use xlink:href="#DejaVuSans-Bold-66"/>
      <use xlink:href="#DejaVuSans-Bold-63" transform="translate(43.505859 0)"/>
      <use xlink:href="#DejaVuSans-Bold-63" transform="translate(102.783203 0)"/>
     </g>
    </g>
    <g id="patch_6">
     <path d="M 670.369608 164.055396 
L 875.6154 164.055396 
L 875.6154 113.770136 
L 670.369608 113.770136 
z
" style="fill: #ffffff; stroke: #000000; stroke-width: 0.72; stroke-linejoin: miter"/>
    </g>
    <g id="text_5">
     <!-- hex -->
     <g transform="translate(762.00266 141.892891) scale(0.108 -0.108)">
      <defs>
       <path id="DejaVuSans-Bold-68" d="M 4056 2131 
L 4056 0 
L 2931 0 
L 2931 347 
L 2931 1625 
Q 2931 2084 2911 2256 
Q 2891 2428 2841 2509 
Q 2775 2619 2662 2680 
Q 2550 2741 2406 2741 
Q 2056 2741 1856 2470 
Q 1656 2200 1656 1722 
L 1656 0 
L 538 0 
L 538 4863 
L 1656 4863 
L 1656 2988 
Q 1909 3294 2193 3439 
Q 2478 3584 2822 3584 
Q 3428 3584 3742 3212 
Q 4056 2841 4056 2131 
z
" transform="scale(0.015625)"/>
       <path id="DejaVuSans-Bold-78" d="M 1422 1791 
L 159 3500 
L 1344 3500 
L 2059 2463 
L 2784 3500 
L 3969 3500 
L 2706 1797 
L 4031 0 
L 2847 0 
L 2059 1106 
L 1281 0 
L 97 0 
L 1422 1791 
z
" transform="scale(0.015625)"/>
      </defs>
      <use xlink:href="#DejaVuSans-Bold-68"/>
      <use xlink:href="#DejaVuSans-Bold-65" transform="translate(71.191406 0)"/>
      <use xlink:href="#DejaVuSans-Bold-78" transform="translate(139.013672 0)"/>
     </g>
    </g>
    <g id="patch_7">
     <path d="M 20.4246 211.946119 
L 105.94368 211.946119 
L 105.94368 164.055396 
L 20.4246 164.055396 
z
" style="fill: #ffffff; stroke: #000000; stroke-width: 0.72; stroke-linejoin: miter"/>
    </g>
    <g id="text_6">
     <!-- $\mathbf{a}_1$ -->
     <g transform="translate(56.92014 190.980883) scale(0.108 -0.108)">
      <defs>
       <path id="DejaVuSans-Bold-61" d="M 2106 1575 
Q 1756 1575 1579 1456 
Q 1403 1338 1403 1106 
Q 1403 894 1545 773 
Q 1688 653 1941 653 
Q 2256 653 2472 879 
Q 2688 1106 2688 1447 
L 2688 1575 
L 2106 1575 
z
M 3816 1997 
L 3816 0 
L 2688 0 
L 2688 519 
Q 2463 200 2181 54 
Q 1900 -91 1497 -91 
Q 953 -91 614 226 
Q 275 544 275 1050 
Q 275 1666 698 1953 
Q 1122 2241 2028 2241 
L 2688 2241 
L 2688 2328 
Q 2688 2594 2478 2717 
Q 2269 2841 1825 2841 
Q 1466 2841 1156 2769 
Q 847 2697 581 2553 
L 581 3406 
Q 941 3494 1303 3539 
Q 1666 3584 2028 3584 
Q 2975 3584 3395 3211 
Q 3816 2838 3816 1997 
z
" transform="scale(0.015625)"/>
       <path id="DejaVuSans-31" d="M 794 531 
L 1825 531 
L 1825 4091 
L 703 3866 
L 703 4441 
L 1819 4666 
L 2450 4666 
L 2450 531 
L 3481 531 
L 3481 0 
L 794 0 
L 794 531 
z
" transform="scale(0.015625)"/>
      </defs>
      <use xlink:href="#DejaVuSans-Bold-61"/>
      <use xlink:href="#DejaVuSans-31" transform="translate(68.4375 -16.40625) scale(0.7)"/>
     </g>
    </g>
    <g id="patch_8">
     <path d="M 105.94368 211.946119 
L 242.774208 211.946119 
L 242.774208 164.055396 
L 105.94368 164.055396 
z
" style="fill: #ffffff; stroke: #000000; stroke-width: 0.72; stroke-linejoin: miter"/>
    </g>
    <g id="text_7">
     <!-- $a\hat{\mathbf{i}}$ -->
     <g transform="translate(169.174944 191.964695) scale(0.108 -0.108)">
      <defs>
       <path id="DejaVuSans-Oblique-61" d="M 3438 1997 
L 3047 0 
L 2472 0 
L 2578 531 
Q 2325 219 2001 64 
Q 1678 -91 1281 -91 
Q 834 -91 548 182 
Q 263 456 263 884 
Q 263 1497 752 1853 
Q 1241 2209 2100 2209 
L 2900 2209 
L 2931 2363 
Q 2938 2388 2941 2417 
Q 2944 2447 2944 2509 
Q 2944 2788 2717 2942 
Q 2491 3097 2081 3097 
Q 1800 3097 1504 3025 
Q 1209 2953 897 2809 
L 997 3341 
Q 1322 3463 1633 3523 
Q 1944 3584 2234 3584 
Q 2853 3584 3176 3315 
Q 3500 3047 3500 2534 
Q 3500 2431 3484 2292 
Q 3469 2153 3438 1997 
z
M 2816 1759 
L 2241 1759 
Q 1534 1759 1195 1570 
Q 856 1381 856 984 
Q 856 709 1029 553 
Q 1203 397 1509 397 
Q 1978 397 2328 733 
Q 2678 1069 2791 1631 
L 2816 1759 
z
" transform="scale(0.015625)"/>
       <path id="DejaVuSans-302" d="M -1831 5119 
L -1369 5119 
L -603 3944 
L -1038 3944 
L -1600 4709 
L -2163 3944 
L -2597 3944 
L -1831 5119 
z
M -1600 3584 
L -1600 3584 
z
" transform="scale(0.015625)"/>
       <path id="DejaVuSans-Bold-69" d="M 538 3500 
L 1656 3500 
L 1656 0 
L 538 0 
L 538 3500 
z
M 538 4863 
L 1656 4863 
L 1656 3950 
L 538 3950 
L 538 4863 
z
" transform="scale(0.015625)"/>
      </defs>
      <use xlink:href="#DejaVuSans-Oblique-61" transform="translate(0 0.53125)"/>
      <use xlink:href="#DejaVuSans-302" transform="translate(107.426758 33.015625)"/>
      <use xlink:href="#DejaVuSans-Bold-69" transform="translate(61.279297 0.53125)"/>
     </g>
    </g>
    <g id="patch_9">
     <path d="M 242.774208 211.946119 
L 456.571908 211.946119 
L 456.571908 164.055396 
L 242.774208 164.055396 
z
" style="fill: #ffffff; stroke: #000000; stroke-width: 0.72; stroke-linejoin: miter"/>
    </g>
    <g id="text_8">
     <!-- $\frac{a}{2}(\hat{\mathbf{j}}+\hat{\mathbf{k}}-\hat{\mathbf{i}})$ -->
     <g transform="translate(321.809058 191.942758) scale(0.108 -0.108)">
      <defs>
       <path id="DejaVuSans-32" d="M 1228 531 
L 3431 531 
L 3431 0 
L 469 0 
L 469 531 
Q 828 903 1448 1529 
Q 2069 2156 2228 2338 
Q 2531 2678 2651 2914 
Q 2772 3150 2772 3378 
Q 2772 3750 2511 3984 
Q 2250 4219 1831 4219 
Q 1534 4219 1204 4116 
Q 875 4013 500 3803 
L 500 4441 
Q 881 4594 1212 4672 
Q 1544 4750 1819 4750 
Q 2544 4750 2975 4387 
Q 3406 4025 3406 3419 
Q 3406 3131 3298 2873 
Q 3191 2616 2906 2266 
Q 2828 2175 2409 1742 
Q 1991 1309 1228 531 
z
" transform="scale(0.015625)"/>
       <path id="DejaVuSans-28" d="M 1984 4856 
Q 1566 4138 1362 3434 
Q 1159 2731 1159 2009 
Q 1159 1288 1364 580 
Q 1569 -128 1984 -844 
L 1484 -844 
Q 1016 -109 783 600 
Q 550 1309 550 2009 
Q 550 2706 781 3412 
Q 1013 4119 1484 4856 
L 1984 4856 
z
" transform="scale(0.015625)"/>
       <path id="DejaVuSans-Bold-6a" d="M 538 3500 
L 1656 3500 
L 1656 63 
Q 1656 -641 1318 -1011 
Q 981 -1381 341 -1381 
L -213 -1381 
L -213 -647 
L -19 -647 
Q 300 -647 419 -503 
Q 538 -359 538 63 
L 538 3500 
z
M 538 4863 
L 1656 4863 
L 1656 3950 
L 538 3950 
L 538 4863 
z
" transform="scale(0.015625)"/>
       <path id="DejaVuSans-2b" d="M 2944 4013 
L 2944 2272 
L 4684 2272 
L 4684 1741 
L 2944 1741 
L 2944 0 
L 2419 0 
L 2419 1741 
L 678 1741 
L 678 2272 
L 2419 2272 
L 2419 4013 
L 2944 4013 
z
" transform="scale(0.015625)"/>
       <path id="DejaVuSans-Bold-6b" d="M 538 4863 
L 1656 4863 
L 1656 2216 
L 2944 3500 
L 4244 3500 
L 2534 1894 
L 4378 0 
L 3022 0 
L 1656 1459 
L 1656 0 
L 538 0 
L 538 4863 
z
" transform="scale(0.015625)"/>
       <path id="DejaVuSans-2212" d="M 678 2272 
L 4684 2272 
L 4684 1741 
L 678 1741 
L 678 2272 
z
" transform="scale(0.015625)"/>
       <path id="DejaVuSans-29" d="M 513 4856 
L 1013 4856 
Q 1481 4119 1714 3412 
Q 1947 2706 1947 2009 
Q 1947 1309 1714 600 
Q 1481 -109 1013 -844 
L 513 -844 
Q 928 -128 1133 580 
Q 1338 1288 1338 2009 
Q 1338 2731 1133 3434 
Q 928 4138 513 4856 
z
" transform="scale(0.015625)"/>
      </defs>
      <use xlink:href="#DejaVuSans-Oblique-61" transform="translate(1 45.323438) scale(0.7)"/>
      <use xlink:href="#DejaVuSans-32" transform="translate(0 -38.875) scale(0.7)"/>
      <use xlink:href="#DejaVuSans-28" transform="translate(57.036133 0.53125)"/>
      <use xlink:href="#DejaVuSans-302" transform="translate(142.197266 33.015625)"/>
      <use xlink:href="#DejaVuSans-Bold-6a" transform="translate(96.049805 0.53125)"/>
      <use xlink:href="#DejaVuSans-2b" transform="translate(149.80957 0.53125)"/>
      <use xlink:href="#DejaVuSans-302" transform="translate(319.285156 33.015625)"/>
      <use xlink:href="#DejaVuSans-Bold-6b" transform="translate(253.081055 0.53125)"/>
      <use xlink:href="#DejaVuSans-2212" transform="translate(339.067383 0.53125)"/>
      <use xlink:href="#DejaVuSans-302" transform="translate(488.486328 33.015625)"/>
      <use xlink:href="#DejaVuSans-Bold-69" transform="translate(442.338867 0.53125)"/>
      <use xlink:href="#DejaVuSans-29" transform="translate(476.616211 0.53125)"/>
      <path d="M 0 19.328125 
L 0 25.578125 
L 44.536133 25.578125 
L 44.536133 19.328125 
L 0 19.328125 
z
"/>
     </g>
    </g>
    <g id="patch_10">
     <path d="M 456.571908 211.946119 
L 670.369608 211.946119 
L 670.369608 164.055396 
L 456.571908 164.055396 
z
" style="fill: #ffffff; stroke: #000000; stroke-width: 0.72; stroke-linejoin: miter"/>
    </g>
    <g id="text_9">
     <!-- $\frac{a}{2}(\hat{\mathbf{j}}+\hat{\mathbf{k}})$ -->
     <g transform="translate(544.084758 191.942758) scale(0.108 -0.108)">
      <use xlink:href="#DejaVuSans-Oblique-61" transform="translate(1 45.323438) scale(0.7)"/>
      <use xlink:href="#DejaVuSans-32" transform="translate(0 -38.875) scale(0.7)"/>
      <use xlink:href="#DejaVuSans-28" transform="translate(57.036133 0.53125)"/>
      <use xlink:href="#DejaVuSans-302" transform="translate(142.197266 33.015625)"/>
      <use xlink:href="#DejaVuSans-Bold-6a" transform="translate(96.049805 0.53125)"/>
      <use xlink:href="#DejaVuSans-2b" transform="translate(149.80957 0.53125)"/>
      <use xlink:href="#DejaVuSans-302" transform="translate(319.285156 33.015625)"/>
      <use xlink:href="#DejaVuSans-Bold-6b" transform="translate(253.081055 0.53125)"/>
      <use xlink:href="#DejaVuSans-29" transform="translate(319.584961 0.53125)"/>
      <path d="M 0 19.328125 
L 0 25.578125 
L 44.536133 25.578125 
L 44.536133 19.328125 
L 0 19.328125 
z
"/>
     </g>
    </g>
    <g id="patch_11">
     <path d="M 670.369608 211.946119 
L 875.6154 211.946119 
L 875.6154 164.055396 
L 670.369608 164.055396 
z
" style="fill: #ffffff; stroke: #000000; stroke-width: 0.72; stroke-linejoin: miter"/>
    </g>
    <g id="text_10">
     <!-- $a\hat{\mathbf{i}}$ -->
     <g transform="translate(767.808504 191.964695) scale(0.108 -0.108)">
      <use xlink:href="#DejaVuSans-Oblique-61" transform="translate(0 0.53125)"/>
      <use xlink:href="#DejaVuSans-302" transform="translate(107.426758 33.015625)"/>
      <use xlink:href="#DejaVuSans-Bold-69" transform="translate(61.279297 0.53125)"/>
     </g>
    </g>
    <g id="patch_12">
     <path d="M 20.4246 259.836843 
L 105.94368 259.836843 
L 105.94368 211.946119 
L 20.4246 211.946119 
z
" style="fill: #ffffff; stroke: #000000; stroke-width: 0.72; stroke-linejoin: miter"/>
    </g>
    <g id="text_11">
     <!-- $\mathbf{a}_2$ -->
     <g transform="translate(56.92014 238.871606) scale(0.108 -0.108)">
      <use xlink:href="#DejaVuSans-Bold-61"/>
      <use xlink:href="#DejaVuSans-32" transform="translate(68.4375 -16.40625) scale(0.7)"/>
     </g>
    </g>
    <g id="patch_13">
     <path d="M 105.94368 259.836843 
L 242.774208 259.836843 
L 242.774208 211.946119 
L 105.94368 211.946119 
z
" style="fill: #ffffff; stroke: #000000; stroke-width: 0.72; stroke-linejoin: miter"/>
    </g>
    <g id="text_12">
     <!-- $a\hat{\mathbf{j}}$ -->
     <g transform="translate(169.174944 240.805481) scale(0.108 -0.108)">
      <use xlink:href="#DejaVuSans-Oblique-61" transform="translate(0 0.53125)"/>
      <use xlink:href="#DejaVuSans-302" transform="translate(107.426758 33.015625)"/>
      <use xlink:href="#DejaVuSans-Bold-6a" transform="translate(61.279297 0.53125)"/>
     </g>
    </g>
    <g id="patch_14">
     <path d="M 242.774208 259.836843 
L 456.571908 259.836843 
L 456.571908 211.946119 
L 242.774208 211.946119 
z
" style="fill: #ffffff; stroke: #000000; stroke-width: 0.72; stroke-linejoin: miter"/>
    </g>
    <g id="text_13">
     <!-- $\frac{a}{2}(\hat{\mathbf{k}}+\hat{\mathbf{i}}-\hat{\mathbf{j}})$ -->
     <g transform="translate(321.809058 239.833481) scale(0.108 -0.108)">
      <use xlink:href="#DejaVuSans-Oblique-61" transform="translate(1 45.323438) scale(0.7)"/>
      <use xlink:href="#DejaVuSans-32" transform="translate(0 -38.875) scale(0.7)"/>
      <use xlink:href="#DejaVuSans-28" transform="translate(57.036133 0.53125)"/>
      <use xlink:href="#DejaVuSans-302" transform="translate(162.253906 33.015625)"/>
      <use xlink:href="#DejaVuSans-Bold-6b" transform="translate(96.049805 0.53125)"/>
      <use xlink:href="#DejaVuSans-2b" transform="translate(182.036133 0.53125)"/>
      <use xlink:href="#DejaVuSans-302" transform="translate(331.455078 33.015625)"/>
      <use xlink:href="#DejaVuSans-Bold-69" transform="translate(285.307617 0.53125)"/>
      <use xlink:href="#DejaVuSans-2212" transform="translate(339.067383 0.53125)"/>
      <use xlink:href="#DejaVuSans-302" transform="translate(488.486328 33.015625)"/>
      <use xlink:href="#DejaVuSans-Bold-6a" transform="translate(442.338867 0.53125)"/>
      <use xlink:href="#DejaVuSans-29" transform="translate(476.616211 0.53125)"/>
      <path d="M 0 19.328125 
L 0 25.578125 
L 44.536133 25.578125 
L 44.536133 19.328125 
L 0 19.328125 
z
"/>
     </g>
    </g>
    <g id="patch_15">
     <path d="M 456.571908 259.836843 
L 670.369608 259.836843 
L 670.369608 211.946119 
L 456.571908 211.946119 
z
" style="fill: #ffffff; stroke: #000000; stroke-width: 0.72; stroke-linejoin: miter"/>
    </g>
    <g id="text_14">
     <!-- $\frac{a}{2}(\hat{\mathbf{k}}+\hat{\mathbf{i}})$ -->
     <g transform="translate(544.084758 239.833481) scale(0.108 -0.108)">
      <use xlink:href="#DejaVuSans-Oblique-61" transform="translate(1 45.323438) scale(0.7)"/>
      <use xlink:href="#DejaVuSans-32" transform="translate(0 -38.875) scale(0.7)"/>
      <use xlink:href="#DejaVuSans-28" transform="translate(57.036133 0.53125)"/>
      <use xlink:href="#DejaVuSans-302" transform="translate(162.253906 33.015625)"/>
      <use xlink:href="#DejaVuSans-Bold-6b" transform="translate(96.049805 0.53125)"/>
      <use xlink:href="#DejaVuSans-2b" transform="translate(182.036133 0.53125)"/>
      <use xlink:href="#DejaVuSans-302" transform="translate(331.455078 33.015625)"/>
      <use xlink:href="#DejaVuSans-Bold-69" transform="translate(285.307617 0.53125)"/>
      <use xlink:href="#DejaVuSans-29" transform="translate(319.584961 0.53125)"/>
      <path d="M 0 19.328125 
L 0 25.578125 
L 44.536133 25.578125 
L 44.536133 19.328125 
L 0 19.328125 
z
"/>
     </g>
    </g>
    <g id="patch_16">
     <path d="M 670.369608 259.836843 
L 875.6154 259.836843 
L 875.6154 211.946119 
L 670.369608 211.946119 
z
" style="fill: #ffffff; stroke: #000000; stroke-width: 0.72; stroke-linejoin: miter"/>
    </g>
    <g id="text_15">
     <!-- $a(-\frac{1}{2}\hat{\mathbf{i}}+\frac{\sqrt{3}}{2}\hat{\mathbf{j}})$ -->
     <g transform="translate(741.186504 240.373481) scale(0.108 -0.108)">
      <defs>
       <path id="STIXSizeOneSym-Regular-221a" d="M 6970 9933 
L 3373 -1888 
L 3104 -1888 
L 1626 2918 
Q 1555 3149 1465 3251 
Q 1376 3354 1229 3354 
Q 1011 3354 794 3181 
L 717 3309 
L 1766 4115 
L 1926 4115 
L 3379 -602 
L 3405 -602 
L 6605 9933 
L 6970 9933 
z
" transform="scale(0.015625)"/>
       <path id="DejaVuSans-33" d="M 2597 2516 
Q 3050 2419 3304 2112 
Q 3559 1806 3559 1356 
Q 3559 666 3084 287 
Q 2609 -91 1734 -91 
Q 1441 -91 1130 -33 
Q 819 25 488 141 
L 488 750 
Q 750 597 1062 519 
Q 1375 441 1716 441 
Q 2309 441 2620 675 
Q 2931 909 2931 1356 
Q 2931 1769 2642 2001 
Q 2353 2234 1838 2234 
L 1294 2234 
L 1294 2753 
L 1863 2753 
Q 2328 2753 2575 2939 
Q 2822 3125 2822 3475 
Q 2822 3834 2567 4026 
Q 2313 4219 1838 4219 
Q 1578 4219 1281 4162 
Q 984 4106 628 3988 
L 628 4550 
Q 988 4650 1302 4700 
Q 1616 4750 1894 4750 
Q 2613 4750 3031 4423 
Q 3450 4097 3450 3541 
Q 3450 3153 3228 2886 
Q 3006 2619 2597 2516 
z
" transform="scale(0.015625)"/>
      </defs>
      <use xlink:href="#DejaVuSans-Oblique-61" transform="translate(0 0.015625)"/>
      <use xlink:href="#DejaVuSans-28" transform="translate(61.279297 0.015625)"/>
      <use xlink:href="#DejaVuSans-2212" transform="translate(100.292969 0.015625)"/>
      <use xlink:href="#DejaVuSans-31" transform="translate(184.082031 43.8125) scale(0.7)"/>
      <use xlink:href="#DejaVuSans-32" transform="translate(184.082031 -39.390625) scale(0.7)"/>
      <use xlink:href="#DejaVuSans-302" transform="translate(287.265625 32.5)"/>
      <use xlink:href="#DejaVuSans-Bold-69" transform="translate(241.118164 0.015625)"/>
      <use xlink:href="#DejaVuSans-2b" transform="translate(294.87793 0.015625)"/>
      <use xlink:href="#STIXSizeOneSym-Regular-221a" transform="translate(398.149414 55.789063) scale(0.405101)"/>
      <use xlink:href="#DejaVuSans-33" transform="translate(449.721126 44.671875) scale(0.7)"/>
      <use xlink:href="#DejaVuSans-32" transform="translate(428.149414 -39.390625) scale(0.7)"/>
      <use xlink:href="#DejaVuSans-302" transform="translate(561.65472 32.5)"/>
      <use xlink:href="#DejaVuSans-Bold-6a" transform="translate(515.507259 0.015625)"/>
      <use xlink:href="#DejaVuSans-29" transform="translate(549.784602 0.015625)"/>
      <path d="M 184.082031 18.8125 
L 184.082031 25.0625 
L 228.618164 25.0625 
L 228.618164 18.8125 
L 184.082031 18.8125 
z
"/>
      <path d="M 440.971126 114.25 
L 440.971126 118.625 
L 503.007259 118.625 
L 503.007259 114.25 
L 440.971126 114.25 
z
"/>
      <path d="M 398.149414 18.8125 
L 398.149414 25.0625 
L 503.007259 25.0625 
L 503.007259 18.8125 
L 398.149414 18.8125 
z
"/>
     </g>
    </g>
    <g id="patch_17">
     <path d="M 20.4246 307.727566 
L 105.94368 307.727566 
L 105.94368 259.836843 
L 20.4246 259.836843 
z
" style="fill: #ffffff; stroke: #000000; stroke-width: 0.72; stroke-linejoin: miter"/>
    </g>
    <g id="text_16">
     <!-- $\mathbf{a}_3$ -->
     <g transform="translate(56.92014 286.762329) scale(0.108 -0.108)">
      <use xlink:href="#DejaVuSans-Bold-61"/>
      <use xlink:href="#DejaVuSans-33" transform="translate(68.4375 -16.40625) scale(0.7)"/>
     </g>
    </g>
    <g id="patch_18">
     <path d="M 105.94368 307.727566 
L 242.774208 307.727566 
L 242.774208 259.836843 
L 105.94368 259.836843 
z
" style="fill: #ffffff; stroke: #000000; stroke-width: 0.72; stroke-linejoin: miter"/>
    </g>
    <g id="text_17">
     <!-- $a\hat{\mathbf{k}}$ -->
     <g transform="translate(167.446944 287.746142) scale(0.108 -0.108)">
      <use xlink:href="#DejaVuSans-Oblique-61" transform="translate(0 0.53125)"/>
      <use xlink:href="#DejaVuSans-302" transform="translate(127.483398 33.015625)"/>
      <use xlink:href="#DejaVuSans-Bold-6b" transform="translate(61.279297 0.53125)"/>
     </g>
    </g>
    <g id="patch_19">
     <path d="M 242.774208 307.727566 
L 456.571908 307.727566 
L 456.571908 259.836843 
L 242.774208 259.836843 
z
" style="fill: #ffffff; stroke: #000000; stroke-width: 0.72; stroke-linejoin: miter"/>
    </g>
    <g id="text_18">
     <!-- $\frac{a}{2}(\hat{\mathbf{i}}+\hat{\mathbf{j}}-\hat{\mathbf{k}})$ -->
     <g transform="translate(321.809058 287.724204) scale(0.108 -0.108)">
      <use xlink:href="#DejaVuSans-Oblique-61" transform="translate(1 45.323438) scale(0.7)"/>
      <use xlink:href="#DejaVuSans-32" transform="translate(0 -38.875) scale(0.7)"/>
      <use xlink:href="#DejaVuSans-28" transform="translate(57.036133 0.53125)"/>
      <use xlink:href="#DejaVuSans-302" transform="translate(142.197266 33.015625)"/>
      <use xlink:href="#DejaVuSans-Bold-69" transform="translate(96.049805 0.53125)"/>
      <use xlink:href="#DejaVuSans-2b" transform="translate(149.80957 0.53125)"/>
      <use xlink:href="#DejaVuSans-302" transform="translate(299.228516 33.015625)"/>
      <use xlink:href="#DejaVuSans-Bold-6a" transform="translate(253.081055 0.53125)"/>
      <use xlink:href="#DejaVuSans-2212" transform="translate(306.84082 0.53125)"/>
      <use xlink:href="#DejaVuSans-302" transform="translate(476.316406 33.015625)"/>
      <use xlink:href="#DejaVuSans-Bold-6b" transform="translate(410.112305 0.53125)"/>
      <use xlink:href="#DejaVuSans-29" transform="translate(476.616211 0.53125)"/>
      <path d="M 0 19.328125 
L 0 25.578125 
L 44.536133 25.578125 
L 44.536133 19.328125 
L 0 19.328125 
z
"/>
     </g>
    </g>
    <g id="patch_20">
     <path d="M 456.571908 307.727566 
L 670.369608 307.727566 
L 670.369608 259.836843 
L 456.571908 259.836843 
z
" style="fill: #ffffff; stroke: #000000; stroke-width: 0.72; stroke-linejoin: miter"/>
    </g>
    <g id="text_19">
     <!-- $\frac{a}{2}(\hat{\mathbf{i}}+\hat{\mathbf{j}})$ -->
     <g transform="translate(545.812758 287.724204) scale(0.108 -0.108)">
      <use xlink:href="#DejaVuSans-Oblique-61" transform="translate(1 45.323438) scale(0.7)"/>
      <use xlink:href="#DejaVuSans-32" transform="translate(0 -38.875) scale(0.7)"/>
      <use xlink:href="#DejaVuSans-28" transform="translate(57.036133 0.53125)"/>
      <use xlink:href="#DejaVuSans-302" transform="translate(142.197266 33.015625)"/>
      <use xlink:href="#DejaVuSans-Bold-69" transform="translate(96.049805 0.53125)"/>
      <use xlink:href="#DejaVuSans-2b" transform="translate(149.80957 0.53125)"/>
      <use xlink:href="#DejaVuSans-302" transform="translate(299.228516 33.015625)"/>
      <use xlink:href="#DejaVuSans-Bold-6a" transform="translate(253.081055 0.53125)"/>
      <use xlink:href="#DejaVuSans-29" transform="translate(287.358398 0.53125)"/>
      <path d="M 0 19.328125 
L 0 25.578125 
L 44.536133 25.578125 
L 44.536133 19.328125 
L 0 19.328125 
z
"/>
     </g>
    </g>
    <g id="patch_21">
     <path d="M 670.369608 307.727566 
L 875.6154 307.727566 
L 875.6154 259.836843 
L 670.369608 259.836843 
z
" style="fill: #ffffff; stroke: #000000; stroke-width: 0.72; stroke-linejoin: miter"/>
    </g>
    <g id="text_20">
     <!-- $c\hat{\mathbf{k}}$ -->
     <g transform="translate(766.404504 287.746142) scale(0.108 -0.108)">
      <defs>
       <path id="DejaVuSans-Oblique-63" d="M 3431 3366 
L 3316 2797 
Q 3109 2947 2876 3022 
Q 2644 3097 2394 3097 
Q 2119 3097 1870 3000 
Q 1622 2903 1453 2725 
Q 1184 2453 1037 2087 
Q 891 1722 891 1331 
Q 891 859 1127 628 
Q 1363 397 1844 397 
Q 2081 397 2348 469 
Q 2616 541 2906 684 
L 2797 116 
Q 2547 13 2283 -39 
Q 2019 -91 1741 -91 
Q 1044 -91 669 257 
Q 294 606 294 1253 
Q 294 1797 489 2255 
Q 684 2713 1069 3078 
Q 1331 3328 1684 3456 
Q 2038 3584 2456 3584 
Q 2700 3584 2940 3529 
Q 3181 3475 3431 3366 
z
" transform="scale(0.015625)"/>
      </defs>
      <use xlink:href="#DejaVuSans-Oblique-63" transform="translate(0 0.53125)"/>
      <use xlink:href="#DejaVuSans-302" transform="translate(121.18457 33.015625)"/>
      <use xlink:href="#DejaVuSans-Bold-6b" transform="translate(54.980469 0.53125)"/>
     </g>
    </g>
    <g id="patch_22">
     <path d="M 20.4246 355.618289 
L 105.94368 355.618289 
L 105.94368 307.727566 
L 20.4246 307.727566 
z
" style="fill: #ffffff; stroke: #000000; stroke-width: 0.72; stroke-linejoin: miter"/>
    </g>
    <g id="text_21">
     <!-- $\mathbf{b}_1$ -->
     <g transform="translate(56.70414 334.653053) scale(0.108 -0.108)">
      <use xlink:href="#DejaVuSans-Bold-62" transform="translate(0 0.015625)"/>
      <use xlink:href="#DejaVuSans-31" transform="translate(72.539062 -16.390625) scale(0.7)"/>
     </g>
    </g>
    <g id="patch_23">
     <path d="M 105.94368 355.618289 
L 242.774208 355.618289 
L 242.774208 307.727566 
L 105.94368 307.727566 
z
" style="fill: #ffffff; stroke: #000000; stroke-width: 0.72; stroke-linejoin: miter"/>
    </g>
    <g id="text_22">
     <!-- $\frac{2\pi}{a}\hat{\mathbf{i}}$ -->
     <g transform="translate(167.122944 336.262928) scale(0.108 -0.108)">
      <defs>
       <path id="DejaVuSans-Oblique-3c0" d="M 584 3500 
L 3938 3500 
L 3825 2925 
L 3384 2925 
L 2966 775 
Q 2922 550 2981 450 
Q 3038 353 3209 353 
Q 3256 353 3325 363 
Q 3397 369 3419 372 
L 3338 -44 
Q 3222 -84 3103 -103 
Q 2981 -122 2866 -122 
Q 2491 -122 2388 81 
Q 2284 288 2391 838 
L 2797 2925 
L 1506 2925 
L 938 0 
L 350 0 
L 919 2925 
L 472 2925 
L 584 3500 
z
" transform="scale(0.015625)"/>
      </defs>
      <use xlink:href="#DejaVuSans-32" transform="translate(0 45.6625) scale(0.7)"/>
      <use xlink:href="#DejaVuSans-Oblique-3c0" transform="translate(44.536133 45.6625) scale(0.7)"/>
      <use xlink:href="#DejaVuSans-Oblique-61" transform="translate(22 -26.121875) scale(0.7)"/>
      <use xlink:href="#DejaVuSans-302" transform="translate(145.327148 33.015625)"/>
      <use xlink:href="#DejaVuSans-Bold-69" transform="translate(99.179688 0.53125)"/>
      <path d="M 0 19.328125 
L 0 25.578125 
L 86.679688 25.578125 
L 86.679688 19.328125 
L 0 19.328125 
z
"/>
     </g>
    </g>
    <g id="patch_24">
     <path d="M 242.774208 355.618289 
L 456.571908 355.618289 
L 456.571908 307.727566 
L 242.774208 307.727566 
z
" style="fill: #ffffff; stroke: #000000; stroke-width: 0.72; stroke-linejoin: miter"/>
    </g>
    <g id="text_23">
     <!-- $\frac{2\pi}{a}(\hat{\mathbf{j}}+\hat{\mathbf{k}})$ -->
     <g transform="translate(328.019058 336.262928) scale(0.108 -0.108)">
      <use xlink:href="#DejaVuSans-32" transform="translate(0 45.6625) scale(0.7)"/>
      <use xlink:href="#DejaVuSans-Oblique-3c0" transform="translate(44.536133 45.6625) scale(0.7)"/>
      <use xlink:href="#DejaVuSans-Oblique-61" transform="translate(22 -26.121875) scale(0.7)"/>
      <use xlink:href="#DejaVuSans-28" transform="translate(99.179688 0.53125)"/>
      <use xlink:href="#DejaVuSans-302" transform="translate(184.34082 33.015625)"/>
      <use xlink:href="#DejaVuSans-Bold-6a" transform="translate(138.193359 0.53125)"/>
      <use xlink:href="#DejaVuSans-2b" transform="translate(191.953125 0.53125)"/>
      <use xlink:href="#DejaVuSans-302" transform="translate(361.428711 33.015625)"/>
      <use xlink:href="#DejaVuSans-Bold-6b" transform="translate(295.224609 0.53125)"/>
      <use xlink:href="#DejaVuSans-29" transform="translate(361.728516 0.53125)"/>
      <path d="M 0 19.328125 
L 0 25.578125 
L 86.679688 25.578125 
L 86.679688 19.328125 
L 0 19.328125 
z
"/>
     </g>
    </g>
    <g id="patch_25">
     <path d="M 456.571908 355.618289 
L 670.369608 355.618289 
L 670.369608 307.727566 
L 456.571908 307.727566 
z
" style="fill: #ffffff; stroke: #000000; stroke-width: 0.72; stroke-linejoin: miter"/>
    </g>
    <g id="text_24">
     <!-- $\frac{2\pi}{a}(\hat{\mathbf{j}}+\hat{\mathbf{k}}-\hat{\mathbf{i}})$ -->
     <g transform="translate(533.338758 336.262928) scale(0.108 -0.108)">
      <use xlink:href="#DejaVuSans-32" transform="translate(0 45.6625) scale(0.7)"/>
      <use xlink:href="#DejaVuSans-Oblique-3c0" transform="translate(44.536133 45.6625) scale(0.7)"/>
      <use xlink:href="#DejaVuSans-Oblique-61" transform="translate(22 -26.121875) scale(0.7)"/>
      <use xlink:href="#DejaVuSans-28" transform="translate(99.179688 0.53125)"/>
      <use xlink:href="#DejaVuSans-302" transform="translate(184.34082 33.015625)"/>
      <use xlink:href="#DejaVuSans-Bold-6a" transform="translate(138.193359 0.53125)"/>
      <use xlink:href="#DejaVuSans-2b" transform="translate(191.953125 0.53125)"/>
      <use xlink:href="#DejaVuSans-302" transform="translate(361.428711 33.015625)"/>
      <use xlink:href="#DejaVuSans-Bold-6b" transform="translate(295.224609 0.53125)"/>
      <use xlink:href="#DejaVuSans-2212" transform="translate(381.210938 0.53125)"/>
      <use xlink:href="#DejaVuSans-302" transform="translate(530.629883 33.015625)"/>
      <use xlink:href="#DejaVuSans-Bold-69" transform="translate(484.482422 0.53125)"/>
      <use xlink:href="#DejaVuSans-29" transform="translate(518.759766 0.53125)"/>
      <path d="M 0 19.328125 
L 0 25.578125 
L 86.679688 25.578125 
L 86.679688 19.328125 
L 0 19.328125 
z
"/>
     </g>
    </g>
    <g id="patch_26">
     <path d="M 670.369608 355.618289 
L 875.6154 355.618289 
L 875.6154 307.727566 
L 670.369608 307.727566 
z
" style="fill: #ffffff; stroke: #000000; stroke-width: 0.72; stroke-linejoin: miter"/>
    </g>
    <g id="text_25">
     <!-- $\frac{4\pi}{\sqrt{3}a}(\frac{\sqrt{3}}{2}\hat{\mathbf{i}}+\frac{1}{2}\hat{\mathbf{j}})$ -->
     <g transform="translate(740.376504 334.696928) scale(0.108 -0.108)">
      <defs>
       <path id="DejaVuSans-34" d="M 2419 4116 
L 825 1625 
L 2419 1625 
L 2419 4116 
z
M 2253 4666 
L 3047 4666 
L 3047 1625 
L 3713 1625 
L 3713 1100 
L 3047 1100 
L 3047 0 
L 2419 0 
L 2419 1100 
L 313 1100 
L 313 1709 
L 2253 4666 
z
" transform="scale(0.015625)"/>
      </defs>
      <use xlink:href="#DejaVuSans-34" transform="translate(31 45.146875) scale(0.7)"/>
      <use xlink:href="#DejaVuSans-Oblique-3c0" transform="translate(75.536133 45.146875) scale(0.7)"/>
      <use xlink:href="#STIXSizeOneSym-Regular-221a" transform="translate(0 -54.648438) scale(0.405101)"/>
      <use xlink:href="#DejaVuSans-33" transform="translate(51.571712 -65.765625) scale(0.7)"/>
      <use xlink:href="#DejaVuSans-Oblique-61" transform="translate(104.857845 -65.629687) scale(0.7)"/>
      <use xlink:href="#DejaVuSans-28" transform="translate(160.253352 0.015625)"/>
      <use xlink:href="#STIXSizeOneSym-Regular-221a" transform="translate(199.267024 55.789063) scale(0.405101)"/>
      <use xlink:href="#DejaVuSans-33" transform="translate(250.838736 44.671875) scale(0.7)"/>
      <use xlink:href="#DejaVuSans-32" transform="translate(229.267024 -39.390625) scale(0.7)"/>
      <use xlink:href="#DejaVuSans-302" transform="translate(362.77233 32.5)"/>
      <use xlink:href="#DejaVuSans-Bold-69" transform="translate(316.624869 0.015625)"/>
      <use xlink:href="#DejaVuSans-2b" transform="translate(370.384634 0.015625)"/>
      <use xlink:href="#DejaVuSans-31" transform="translate(473.656119 43.8125) scale(0.7)"/>
      <use xlink:href="#DejaVuSans-32" transform="translate(473.656119 -39.390625) scale(0.7)"/>
      <use xlink:href="#DejaVuSans-302" transform="translate(576.839713 32.5)"/>
      <use xlink:href="#DejaVuSans-Bold-6a" transform="translate(530.692252 0.015625)"/>
      <use xlink:href="#DejaVuSans-29" transform="translate(564.969595 0.015625)"/>
      <path d="M 0 18.8125 
L 0 25.0625 
L 147.753352 25.0625 
L 147.753352 18.8125 
L 0 18.8125 
z
"/>
      <path d="M 42.821712 3.8125 
L 42.821712 8.1875 
L 104.857845 8.1875 
L 104.857845 3.8125 
L 42.821712 3.8125 
z
"/>
      <path d="M 242.088736 114.25 
L 242.088736 118.625 
L 304.124869 118.625 
L 304.124869 114.25 
L 242.088736 114.25 
z
"/>
      <path d="M 199.267024 18.8125 
L 199.267024 25.0625 
L 304.124869 25.0625 
L 304.124869 18.8125 
L 199.267024 18.8125 
z
"/>
      <path d="M 473.656119 18.8125 
L 473.656119 25.0625 
L 518.192252 25.0625 
L 518.192252 18.8125 
L 473.656119 18.8125 
z
"/>
     </g>
    </g>
    <g id="patch_27">
     <path d="M 20.4246 403.509013 
L 105.94368 403.509013 
L 105.94368 355.618289 
L 20.4246 355.618289 
z
" style="fill: #ffffff; stroke: #000000; stroke-width: 0.72; stroke-linejoin: miter"/>
    </g>
    <g id="text_26">
     <!-- $\mathbf{b}_2$ -->
     <g transform="translate(56.70414 382.543776) scale(0.108 -0.108)">
      <use xlink:href="#DejaVuSans-Bold-62" transform="translate(0 0.015625)"/>
      <use xlink:href="#DejaVuSans-32" transform="translate(72.539062 -16.390625) scale(0.7)"/>
     </g>
    </g>
    <g id="patch_28">
     <path d="M 105.94368 403.509013 
L 242.774208 403.509013 
L 242.774208 355.618289 
L 105.94368 355.618289 
z
" style="fill: #ffffff; stroke: #000000; stroke-width: 0.72; stroke-linejoin: miter"/>
    </g>
    <g id="text_27">
     <!-- $\frac{2\pi}{a}\hat{\mathbf{j}}$ -->
     <g transform="translate(167.122944 384.153651) scale(0.108 -0.108)">
      <use xlink:href="#DejaVuSans-32" transform="translate(0 45.6625) scale(0.7)"/>
      <use xlink:href="#DejaVuSans-Oblique-3c0" transform="translate(44.536133 45.6625) scale(0.7)"/>
      <use xlink:href="#DejaVuSans-Oblique-61" transform="translate(22 -26.121875) scale(0.7)"/>
      <use xlink:href="#DejaVuSans-302" transform="translate(145.327148 33.015625)"/>
      <use xlink:href="#DejaVuSans-Bold-6a" transform="translate(99.179688 0.53125)"/>
      <path d="M 0 19.328125 
L 0 25.578125 
L 86.679688 25.578125 
L 86.679688 19.328125 
L 0 19.328125 
z
"/>
     </g>
    </g>
    <g id="patch_29">
     <path d="M 242.774208 403.509013 
L 456.571908 403.509013 
L 456.571908 355.618289 
L 242.774208 355.618289 
z
" style="fill: #ffffff; stroke: #000000; stroke-width: 0.72; stroke-linejoin: miter"/>
    </g>
    <g id="text_28">
     <!-- $\frac{2\pi}{a}(\hat{\mathbf{k}}+\hat{\mathbf{i}})$ -->
     <g transform="translate(328.019058 384.153651) scale(0.108 -0.108)">
      <use xlink:href="#DejaVuSans-32" transform="translate(0 45.6625) scale(0.7)"/>
      <use xlink:href="#DejaVuSans-Oblique-3c0" transform="translate(44.536133 45.6625) scale(0.7)"/>
      <use xlink:href="#DejaVuSans-Oblique-61" transform="translate(22 -26.121875) scale(0.7)"/>
      <use xlink:href="#DejaVuSans-28" transform="translate(99.179688 0.53125)"/>
      <use xlink:href="#DejaVuSans-302" transform="translate(204.397461 33.015625)"/>
      <use xlink:href="#DejaVuSans-Bold-6b" transform="translate(138.193359 0.53125)"/>
      <use xlink:href="#DejaVuSans-2b" transform="translate(224.179688 0.53125)"/>
      <use xlink:href="#DejaVuSans-302" transform="translate(373.598633 33.015625)"/>
      <use xlink:href="#DejaVuSans-Bold-69" transform="translate(327.451172 0.53125)"/>
      <use xlink:href="#DejaVuSans-29" transform="translate(361.728516 0.53125)"/>
      <path d="M 0 19.328125 
L 0 25.578125 
L 86.679688 25.578125 
L 86.679688 19.328125 
L 0 19.328125 
z
"/>
     </g>
    </g>
    <g id="patch_30">
     <path d="M 456.571908 403.509013 
L 670.369608 403.509013 
L 670.369608 355.618289 
L 456.571908 355.618289 
z
" style="fill: #ffffff; stroke: #000000; stroke-width: 0.72; stroke-linejoin: miter"/>
    </g>
    <g id="text_29">
     <!-- $\frac{2\pi}{a}(\hat{\mathbf{k}}+\hat{\mathbf{i}}-\hat{\mathbf{j}})$ -->
     <g transform="translate(533.338758 384.153651) scale(0.108 -0.108)">
      <use xlink:href="#DejaVuSans-32" transform="translate(0 45.6625) scale(0.7)"/>
      <use xlink:href="#DejaVuSans-Oblique-3c0" transform="translate(44.536133 45.6625) scale(0.7)"/>
      <use xlink:href="#DejaVuSans-Oblique-61" transform="translate(22 -26.121875) scale(0.7)"/>
      <use xlink:href="#DejaVuSans-28" transform="translate(99.179688 0.53125)"/>
      <use xlink:href="#DejaVuSans-302" transform="translate(204.397461 33.015625)"/>
      <use xlink:href="#DejaVuSans-Bold-6b" transform="translate(138.193359 0.53125)"/>
      <use xlink:href="#DejaVuSans-2b" transform="translate(224.179688 0.53125)"/>
      <use xlink:href="#DejaVuSans-302" transform="translate(373.598633 33.015625)"/>
      <use xlink:href="#DejaVuSans-Bold-69" transform="translate(327.451172 0.53125)"/>
      <use xlink:href="#DejaVuSans-2212" transform="translate(381.210938 0.53125)"/>
      <use xlink:href="#DejaVuSans-302" transform="translate(530.629883 33.015625)"/>
      <use xlink:href="#DejaVuSans-Bold-6a" transform="translate(484.482422 0.53125)"/>
      <use xlink:href="#DejaVuSans-29" transform="translate(518.759766 0.53125)"/>
      <path d="M 0 19.328125 
L 0 25.578125 
L 86.679688 25.578125 
L 86.679688 19.328125 
L 0 19.328125 
z
"/>
     </g>
    </g>
    <g id="patch_31">
     <path d="M 670.369608 403.509013 
L 875.6154 403.509013 
L 875.6154 355.618289 
L 670.369608 355.618289 
z
" style="fill: #ffffff; stroke: #000000; stroke-width: 0.72; stroke-linejoin: miter"/>
    </g>
    <g id="text_30">
     <!-- $\frac{4\pi}{\sqrt{3}a}\hat{\mathbf{j}}$ -->
     <g transform="translate(762.462504 382.047651) scale(0.108 -0.108)">
      <use xlink:href="#DejaVuSans-34" transform="translate(31 45.6625) scale(0.7)"/>
      <use xlink:href="#DejaVuSans-Oblique-3c0" transform="translate(75.536133 45.6625) scale(0.7)"/>
      <use xlink:href="#STIXSizeOneSym-Regular-221a" transform="translate(0 -54.132812) scale(0.405101)"/>
      <use xlink:href="#DejaVuSans-33" transform="translate(51.571712 -65.25) scale(0.7)"/>
      <use xlink:href="#DejaVuSans-Oblique-61" transform="translate(104.857845 -65.114062) scale(0.7)"/>
      <use xlink:href="#DejaVuSans-302" transform="translate(206.400813 33.015625)"/>
      <use xlink:href="#DejaVuSans-Bold-6a" transform="translate(160.253352 0.53125)"/>
      <path d="M 0 19.328125 
L 0 25.578125 
L 147.753352 25.578125 
L 147.753352 19.328125 
L 0 19.328125 
z
"/>
      <path d="M 42.821712 4.328125 
L 42.821712 8.703125 
L 104.857845 8.703125 
L 104.857845 4.328125 
L 42.821712 4.328125 
z
"/>
     </g>
    </g>
    <g id="patch_32">
     <path d="M 20.4246 451.399736 
L 105.94368 451.399736 
L 105.94368 403.509013 
L 20.4246 403.509013 
z
" style="fill: #ffffff; stroke: #000000; stroke-width: 0.72; stroke-linejoin: miter"/>
    </g>
    <g id="text_31">
     <!-- $\mathbf{b}_3$ -->
     <g transform="translate(56.70414 430.4345) scale(0.108 -0.108)">
      <use xlink:href="#DejaVuSans-Bold-62" transform="translate(0 0.015625)"/>
      <use xlink:href="#DejaVuSans-33" transform="translate(72.539062 -16.390625) scale(0.7)"/>
     </g>
    </g>
    <g id="patch_33">
     <path d="M 105.94368 451.399736 
L 242.774208 451.399736 
L 242.774208 403.509013 
L 105.94368 403.509013 
z
" style="fill: #ffffff; stroke: #000000; stroke-width: 0.72; stroke-linejoin: miter"/>
    </g>
    <g id="text_32">
     <!-- $\frac{2\pi}{a}\hat{\mathbf{k}}$ -->
     <g transform="translate(165.394944 432.044375) scale(0.108 -0.108)">
      <use xlink:href="#DejaVuSans-32" transform="translate(0 45.6625) scale(0.7)"/>
      <use xlink:href="#DejaVuSans-Oblique-3c0" transform="translate(44.536133 45.6625) scale(0.7)"/>
      <use xlink:href="#DejaVuSans-Oblique-61" transform="translate(22 -26.121875) scale(0.7)"/>
      <use xlink:href="#DejaVuSans-302" transform="translate(165.383789 33.015625)"/>
      <use xlink:href="#DejaVuSans-Bold-6b" transform="translate(99.179688 0.53125)"/>
      <path d="M 0 19.328125 
L 0 25.578125 
L 86.679688 25.578125 
L 86.679688 19.328125 
L 0 19.328125 
z
"/>
     </g>
    </g>
    <g id="patch_34">
     <path d="M 242.774208 451.399736 
L 456.571908 451.399736 
L 456.571908 403.509013 
L 242.774208 403.509013 
z
" style="fill: #ffffff; stroke: #000000; stroke-width: 0.72; stroke-linejoin: miter"/>
    </g>
    <g id="text_33">
     <!-- $\frac{2\pi}{a}(\hat{\mathbf{i}}+\hat{\mathbf{j}})$ -->
     <g transform="translate(329.747058 432.044375) scale(0.108 -0.108)">
      <use xlink:href="#DejaVuSans-32" transform="translate(0 45.6625) scale(0.7)"/>
      <use xlink:href="#DejaVuSans-Oblique-3c0" transform="translate(44.536133 45.6625) scale(0.7)"/>
      <use xlink:href="#DejaVuSans-Oblique-61" transform="translate(22 -26.121875) scale(0.7)"/>
      <use xlink:href="#DejaVuSans-28" transform="translate(99.179688 0.53125)"/>
      <use xlink:href="#DejaVuSans-302" transform="translate(184.34082 33.015625)"/>
      <use xlink:href="#DejaVuSans-Bold-69" transform="translate(138.193359 0.53125)"/>
      <use xlink:href="#DejaVuSans-2b" transform="translate(191.953125 0.53125)"/>
      <use xlink:href="#DejaVuSans-302" transform="translate(341.37207 33.015625)"/>
      <use xlink:href="#DejaVuSans-Bold-6a" transform="translate(295.224609 0.53125)"/>
      <use xlink:href="#DejaVuSans-29" transform="translate(329.501953 0.53125)"/>
      <path d="M 0 19.328125 
L 0 25.578125 
L 86.679688 25.578125 
L 86.679688 19.328125 
L 0 19.328125 
z
"/>
     </g>
    </g>
    <g id="patch_35">
     <path d="M 456.571908 451.399736 
L 670.369608 451.399736 
L 670.369608 403.509013 
L 456.571908 403.509013 
z
" style="fill: #ffffff; stroke: #000000; stroke-width: 0.72; stroke-linejoin: miter"/>
    </g>
    <g id="text_34">
     <!-- $\frac{2\pi}{a}(\hat{\mathbf{i}}+\hat{\mathbf{j}}-\hat{\mathbf{k}})$ -->
     <g transform="translate(533.338758 432.044375) scale(0.108 -0.108)">
      <use xlink:href="#DejaVuSans-32" transform="translate(0 45.6625) scale(0.7)"/>
      <use xlink:href="#DejaVuSans-Oblique-3c0" transform="translate(44.536133 45.6625) scale(0.7)"/>
      <use xlink:href="#DejaVuSans-Oblique-61" transform="translate(22 -26.121875) scale(0.7)"/>
      <use xlink:href="#DejaVuSans-28" transform="translate(99.179688 0.53125)"/>
      <use xlink:href="#DejaVuSans-302" transform="translate(184.34082 33.015625)"/>
      <use xlink:href="#DejaVuSans-Bold-69" transform="translate(138.193359 0.53125)"/>
      <use xlink:href="#DejaVuSans-2b" transform="translate(191.953125 0.53125)"/>
      <use xlink:href="#DejaVuSans-302" transform="translate(341.37207 33.015625)"/>
      <use xlink:href="#DejaVuSans-Bold-6a" transform="translate(295.224609 0.53125)"/>
      <use xlink:href="#DejaVuSans-2212" transform="translate(348.984375 0.53125)"/>
      <use xlink:href="#DejaVuSans-302" transform="translate(518.459961 33.015625)"/>
      <use xlink:href="#DejaVuSans-Bold-6b" transform="translate(452.255859 0.53125)"/>
      <use xlink:href="#DejaVuSans-29" transform="translate(518.759766 0.53125)"/>
      <path d="M 0 19.328125 
L 0 25.578125 
L 86.679688 25.578125 
L 86.679688 19.328125 
L 0 19.328125 
z
"/>
     </g>
    </g>
    <g id="patch_36">
     <path d="M 670.369608 451.399736 
L 875.6154 451.399736 
L 875.6154 403.509013 
L 670.369608 403.509013 
z
" style="fill: #ffffff; stroke: #000000; stroke-width: 0.72; stroke-linejoin: miter"/>
    </g>
    <g id="text_35">
     <!-- $\frac{2\pi}{c}\hat{\mathbf{k}}$ -->
     <g transform="translate(764.028504 432.044375) scale(0.108 -0.108)">
      <use xlink:href="#DejaVuSans-32" transform="translate(0 45.6625) scale(0.7)"/>
      <use xlink:href="#DejaVuSans-Oblique-3c0" transform="translate(44.536133 45.6625) scale(0.7)"/>
      <use xlink:href="#DejaVuSans-Oblique-63" transform="translate(24 -26.121875) scale(0.7)"/>
      <use xlink:href="#DejaVuSans-302" transform="translate(165.383789 33.015625)"/>
      <use xlink:href="#DejaVuSans-Bold-6b" transform="translate(99.179688 0.53125)"/>
      <path d="M 0 19.328125 
L 0 25.578125 
L 86.679688 25.578125 
L 86.679688 19.328125 
L 0 19.328125 
z
"/>
     </g>
    </g>
   </g>
   <g id="text_36">
    <!-- Nei reticoli cubici compare una sola costante a; nel reticolo esagonale servono le costanti a e c. -->
    <g transform="translate(208.145781 487.574336) scale(0.1 -0.1)">
     <defs>
      <path id="DejaVuSans-4e" d="M 628 4666 
L 1478 4666 
L 3547 763 
L 3547 4666 
L 4159 4666 
L 4159 0 
L 3309 0 
L 1241 3903 
L 1241 0 
L 628 0 
L 628 4666 
z
" transform="scale(0.015625)"/>
      <path id="DejaVuSans-65" d="M 3597 1894 
L 3597 1613 
L 953 1613 
Q 991 1019 1311 708 
Q 1631 397 2203 397 
Q 2534 397 2845 478 
Q 3156 559 3463 722 
L 3463 178 
Q 3153 47 2828 -22 
Q 2503 -91 2169 -91 
Q 1331 -91 842 396 
Q 353 884 353 1716 
Q 353 2575 817 3079 
Q 1281 3584 2069 3584 
Q 2775 3584 3186 3129 
Q 3597 2675 3597 1894 
z
M 3022 2063 
Q 3016 2534 2758 2815 
Q 2500 3097 2075 3097 
Q 1594 3097 1305 2825 
Q 1016 2553 972 2059 
L 3022 2063 
z
" transform="scale(0.015625)"/>
      <path id="DejaVuSans-69" d="M 603 3500 
L 1178 3500 
L 1178 0 
L 603 0 
L 603 3500 
z
M 603 4863 
L 1178 4863 
L 1178 4134 
L 603 4134 
L 603 4863 
z
" transform="scale(0.015625)"/>
      <path id="DejaVuSans-20" transform="scale(0.015625)"/>
      <path id="DejaVuSans-72" d="M 2631 2963 
Q 2534 3019 2420 3045 
Q 2306 3072 2169 3072 
Q 1681 3072 1420 2755 
Q 1159 2438 1159 1844 
L 1159 0 
L 581 0 
L 581 3500 
L 1159 3500 
L 1159 2956 
Q 1341 3275 1631 3429 
Q 1922 3584 2338 3584 
Q 2397 3584 2469 3576 
Q 2541 3569 2628 3553 
L 2631 2963 
z
" transform="scale(0.015625)"/>
      <path id="DejaVuSans-74" d="M 1172 4494 
L 1172 3500 
L 2356 3500 
L 2356 3053 
L 1172 3053 
L 1172 1153 
Q 1172 725 1289 603 
Q 1406 481 1766 481 
L 2356 481 
L 2356 0 
L 1766 0 
Q 1100 0 847 248 
Q 594 497 594 1153 
L 594 3053 
L 172 3053 
L 172 3500 
L 594 3500 
L 594 4494 
L 1172 4494 
z
" transform="scale(0.015625)"/>
      <path id="DejaVuSans-63" d="M 3122 3366 
L 3122 2828 
Q 2878 2963 2633 3030 
Q 2388 3097 2138 3097 
Q 1578 3097 1268 2742 
Q 959 2388 959 1747 
Q 959 1106 1268 751 
Q 1578 397 2138 397 
Q 2388 397 2633 464 
Q 2878 531 3122 666 
L 3122 134 
Q 2881 22 2623 -34 
Q 2366 -91 2075 -91 
Q 1284 -91 818 406 
Q 353 903 353 1747 
Q 353 2603 823 3093 
Q 1294 3584 2113 3584 
Q 2378 3584 2631 3529 
Q 2884 3475 3122 3366 
z
" transform="scale(0.015625)"/>
      <path id="DejaVuSans-6f" d="M 1959 3097 
Q 1497 3097 1228 2736 
Q 959 2375 959 1747 
Q 959 1119 1226 758 
Q 1494 397 1959 397 
Q 2419 397 2687 759 
Q 2956 1122 2956 1747 
Q 2956 2369 2687 2733 
Q 2419 3097 1959 3097 
z
M 1959 3584 
Q 2709 3584 3137 3096 
Q 3566 2609 3566 1747 
Q 3566 888 3137 398 
Q 2709 -91 1959 -91 
Q 1206 -91 779 398 
Q 353 888 353 1747 
Q 353 2609 779 3096 
Q 1206 3584 1959 3584 
z
" transform="scale(0.015625)"/>
      <path id="DejaVuSans-6c" d="M 603 4863 
L 1178 4863 
L 1178 0 
L 603 0 
L 603 4863 
z
" transform="scale(0.015625)"/>
      <path id="DejaVuSans-75" d="M 544 1381 
L 544 3500 
L 1119 3500 
L 1119 1403 
Q 1119 906 1312 657 
Q 1506 409 1894 409 
Q 2359 409 2629 706 
Q 2900 1003 2900 1516 
L 2900 3500 
L 3475 3500 
L 3475 0 
L 2900 0 
L 2900 538 
Q 2691 219 2414 64 
Q 2138 -91 1772 -91 
Q 1169 -91 856 284 
Q 544 659 544 1381 
z
M 1991 3584 
L 1991 3584 
z
" transform="scale(0.015625)"/>
      <path id="DejaVuSans-62" d="M 3116 1747 
Q 3116 2381 2855 2742 
Q 2594 3103 2138 3103 
Q 1681 3103 1420 2742 
Q 1159 2381 1159 1747 
Q 1159 1113 1420 752 
Q 1681 391 2138 391 
Q 2594 391 2855 752 
Q 3116 1113 3116 1747 
z
M 1159 2969 
Q 1341 3281 1617 3432 
Q 1894 3584 2278 3584 
Q 2916 3584 3314 3078 
Q 3713 2572 3713 1747 
Q 3713 922 3314 415 
Q 2916 -91 2278 -91 
Q 1894 -91 1617 61 
Q 1341 213 1159 525 
L 1159 0 
L 581 0 
L 581 4863 
L 1159 4863 
L 1159 2969 
z
" transform="scale(0.015625)"/>
      <path id="DejaVuSans-6d" d="M 3328 2828 
Q 3544 3216 3844 3400 
Q 4144 3584 4550 3584 
Q 5097 3584 5394 3201 
Q 5691 2819 5691 2113 
L 5691 0 
L 5113 0 
L 5113 2094 
Q 5113 2597 4934 2840 
Q 4756 3084 4391 3084 
Q 3944 3084 3684 2787 
Q 3425 2491 3425 1978 
L 3425 0 
L 2847 0 
L 2847 2094 
Q 2847 2600 2669 2842 
Q 2491 3084 2119 3084 
Q 1678 3084 1418 2786 
Q 1159 2488 1159 1978 
L 1159 0 
L 581 0 
L 581 3500 
L 1159 3500 
L 1159 2956 
Q 1356 3278 1631 3431 
Q 1906 3584 2284 3584 
Q 2666 3584 2933 3390 
Q 3200 3197 3328 2828 
z
" transform="scale(0.015625)"/>
      <path id="DejaVuSans-70" d="M 1159 525 
L 1159 -1331 
L 581 -1331 
L 581 3500 
L 1159 3500 
L 1159 2969 
Q 1341 3281 1617 3432 
Q 1894 3584 2278 3584 
Q 2916 3584 3314 3078 
Q 3713 2572 3713 1747 
Q 3713 922 3314 415 
Q 2916 -91 2278 -91 
Q 1894 -91 1617 61 
Q 1341 213 1159 525 
z
M 3116 1747 
Q 3116 2381 2855 2742 
Q 2594 3103 2138 3103 
Q 1681 3103 1420 2742 
Q 1159 2381 1159 1747 
Q 1159 1113 1420 752 
Q 1681 391 2138 391 
Q 2594 391 2855 752 
Q 3116 1113 3116 1747 
z
" transform="scale(0.015625)"/>
      <path id="DejaVuSans-61" d="M 2194 1759 
Q 1497 1759 1228 1600 
Q 959 1441 959 1056 
Q 959 750 1161 570 
Q 1363 391 1709 391 
Q 2188 391 2477 730 
Q 2766 1069 2766 1631 
L 2766 1759 
L 2194 1759 
z
M 3341 1997 
L 3341 0 
L 2766 0 
L 2766 531 
Q 2569 213 2275 61 
Q 1981 -91 1556 -91 
Q 1019 -91 701 211 
Q 384 513 384 1019 
Q 384 1609 779 1909 
Q 1175 2209 1959 2209 
L 2766 2209 
L 2766 2266 
Q 2766 2663 2505 2880 
Q 2244 3097 1772 3097 
Q 1472 3097 1187 3025 
Q 903 2953 641 2809 
L 641 3341 
Q 956 3463 1253 3523 
Q 1550 3584 1831 3584 
Q 2591 3584 2966 3190 
Q 3341 2797 3341 1997 
z
" transform="scale(0.015625)"/>
      <path id="DejaVuSans-6e" d="M 3513 2113 
L 3513 0 
L 2938 0 
L 2938 2094 
Q 2938 2591 2744 2837 
Q 2550 3084 2163 3084 
Q 1697 3084 1428 2787 
Q 1159 2491 1159 1978 
L 1159 0 
L 581 0 
L 581 3500 
L 1159 3500 
L 1159 2956 
Q 1366 3272 1645 3428 
Q 1925 3584 2291 3584 
Q 2894 3584 3203 3211 
Q 3513 2838 3513 2113 
z
" transform="scale(0.015625)"/>
      <path id="DejaVuSans-73" d="M 2834 3397 
L 2834 2853 
Q 2591 2978 2328 3040 
Q 2066 3103 1784 3103 
Q 1356 3103 1142 2972 
Q 928 2841 928 2578 
Q 928 2378 1081 2264 
Q 1234 2150 1697 2047 
L 1894 2003 
Q 2506 1872 2764 1633 
Q 3022 1394 3022 966 
Q 3022 478 2636 193 
Q 2250 -91 1575 -91 
Q 1294 -91 989 -36 
Q 684 19 347 128 
L 347 722 
Q 666 556 975 473 
Q 1284 391 1588 391 
Q 1994 391 2212 530 
Q 2431 669 2431 922 
Q 2431 1156 2273 1281 
Q 2116 1406 1581 1522 
L 1381 1569 
Q 847 1681 609 1914 
Q 372 2147 372 2553 
Q 372 3047 722 3315 
Q 1072 3584 1716 3584 
Q 2034 3584 2315 3537 
Q 2597 3491 2834 3397 
z
" transform="scale(0.015625)"/>
      <path id="DejaVuSans-3b" d="M 750 3309 
L 1409 3309 
L 1409 2516 
L 750 2516 
L 750 3309 
z
M 750 794 
L 1409 794 
L 1409 256 
L 897 -744 
L 494 -744 
L 750 256 
L 750 794 
z
" transform="scale(0.015625)"/>
      <path id="DejaVuSans-67" d="M 2906 1791 
Q 2906 2416 2648 2759 
Q 2391 3103 1925 3103 
Q 1463 3103 1205 2759 
Q 947 2416 947 1791 
Q 947 1169 1205 825 
Q 1463 481 1925 481 
Q 2391 481 2648 825 
Q 2906 1169 2906 1791 
z
M 3481 434 
Q 3481 -459 3084 -895 
Q 2688 -1331 1869 -1331 
Q 1566 -1331 1297 -1286 
Q 1028 -1241 775 -1147 
L 775 -588 
Q 1028 -725 1275 -790 
Q 1522 -856 1778 -856 
Q 2344 -856 2625 -561 
Q 2906 -266 2906 331 
L 2906 616 
Q 2728 306 2450 153 
Q 2172 0 1784 0 
Q 1141 0 747 490 
Q 353 981 353 1791 
Q 353 2603 747 3093 
Q 1141 3584 1784 3584 
Q 2172 3584 2450 3431 
Q 2728 3278 2906 2969 
L 2906 3500 
L 3481 3500 
L 3481 434 
z
" transform="scale(0.015625)"/>
      <path id="DejaVuSans-76" d="M 191 3500 
L 800 3500 
L 1894 563 
L 2988 3500 
L 3597 3500 
L 2284 0 
L 1503 0 
L 191 3500 
z
" transform="scale(0.015625)"/>
      <path id="DejaVuSans-2e" d="M 684 794 
L 1344 794 
L 1344 0 
L 684 0 
L 684 794 
z
" transform="scale(0.015625)"/>
     </defs>
     <use xlink:href="#DejaVuSans-4e"/>
     <use xlink:href="#DejaVuSans-65" transform="translate(74.804688 0)"/>
     <use xlink:href="#DejaVuSans-69" transform="translate(136.328125 0)"/>
     <use xlink:href="#DejaVuSans-20" transform="translate(164.111328 0)"/>
     <use xlink:href="#DejaVuSans-72" transform="translate(195.898438 0)"/>
     <use xlink:href="#DejaVuSans-65" transform="translate(234.761719 0)"/>
     <use xlink:href="#DejaVuSans-74" transform="translate(296.285156 0)"/>
     <use xlink:href="#DejaVuSans-69" transform="translate(335.494141 0)"/>
     <use xlink:href="#DejaVuSans-63" transform="translate(363.277344 0)"/>
     <use xlink:href="#DejaVuSans-6f" transform="translate(418.257812 0)"/>
     <use xlink:href="#DejaVuSans-6c" transform="translate(479.439453 0)"/>
     <use xlink:href="#DejaVuSans-69" transform="translate(507.222656 0)"/>
     <use xlink:href="#DejaVuSans-20" transform="translate(535.005859 0)"/>
     <use xlink:href="#DejaVuSans-63" transform="translate(566.792969 0)"/>
     <use xlink:href="#DejaVuSans-75" transform="translate(621.773438 0)"/>
     <use xlink:href="#DejaVuSans-62" transform="translate(685.152344 0)"/>
     <use xlink:href="#DejaVuSans-69" transform="translate(748.628906 0)"/>
     <use xlink:href="#DejaVuSans-63" transform="translate(776.412109 0)"/>
     <use xlink:href="#DejaVuSans-69" transform="translate(831.392578 0)"/>
     <use xlink:href="#DejaVuSans-20" transform="translate(859.175781 0)"/>
     <use xlink:href="#DejaVuSans-63" transform="translate(890.962891 0)"/>
     <use xlink:href="#DejaVuSans-6f" transform="translate(945.943359 0)"/>
     <use xlink:href="#DejaVuSans-6d" transform="translate(1007.125 0)"/>
     <use xlink:href="#DejaVuSans-70" transform="translate(1104.537109 0)"/>
     <use xlink:href="#DejaVuSans-61" transform="translate(1168.013672 0)"/>
     <use xlink:href="#DejaVuSans-72" transform="translate(1229.292969 0)"/>
     <use xlink:href="#DejaVuSans-65" transform="translate(1268.15625 0)"/>
     <use xlink:href="#DejaVuSans-20" transform="translate(1329.679688 0)"/>
     <use xlink:href="#DejaVuSans-75" transform="translate(1361.466797 0)"/>
     <use xlink:href="#DejaVuSans-6e" transform="translate(1424.845703 0)"/>
     <use xlink:href="#DejaVuSans-61" transform="translate(1488.224609 0)"/>
     <use xlink:href="#DejaVuSans-20" transform="translate(1549.503906 0)"/>
     <use xlink:href="#DejaVuSans-73" transform="translate(1581.291016 0)"/>
     <use xlink:href="#DejaVuSans-6f" transform="translate(1633.390625 0)"/>
     <use xlink:href="#DejaVuSans-6c" transform="translate(1694.572266 0)"/>
     <use xlink:href="#DejaVuSans-61" transform="translate(1722.355469 0)"/>
     <use xlink:href="#DejaVuSans-20" transform="translate(1783.634766 0)"/>
     <use xlink:href="#DejaVuSans-63" transform="translate(1815.421875 0)"/>
     <use xlink:href="#DejaVuSans-6f" transform="translate(1870.402344 0)"/>
     <use xlink:href="#DejaVuSans-73" transform="translate(1931.583984 0)"/>
     <use xlink:href="#DejaVuSans-74" transform="translate(1983.683594 0)"/>
     <use xlink:href="#DejaVuSans-61" transform="translate(2022.892578 0)"/>
     <use xlink:href="#DejaVuSans-6e" transform="translate(2084.171875 0)"/>
     <use xlink:href="#DejaVuSans-74" transform="translate(2147.550781 0)"/>
     <use xlink:href="#DejaVuSans-65" transform="translate(2186.759766 0)"/>
     <use xlink:href="#DejaVuSans-20" transform="translate(2248.283203 0)"/>
     <use xlink:href="#DejaVuSans-61" transform="translate(2280.070312 0)"/>
     <use xlink:href="#DejaVuSans-3b" transform="translate(2341.349609 0)"/>
     <use xlink:href="#DejaVuSans-20" transform="translate(2375.041016 0)"/>
     <use xlink:href="#DejaVuSans-6e" transform="translate(2406.828125 0)"/>
     <use xlink:href="#DejaVuSans-65" transform="translate(2470.207031 0)"/>
     <use xlink:href="#DejaVuSans-6c" transform="translate(2531.730469 0)"/>
     <use xlink:href="#DejaVuSans-20" transform="translate(2559.513672 0)"/>
     <use xlink:href="#DejaVuSans-72" transform="translate(2591.300781 0)"/>
     <use xlink:href="#DejaVuSans-65" transform="translate(2630.164062 0)"/>
     <use xlink:href="#DejaVuSans-74" transform="translate(2691.6875 0)"/>
     <use xlink:href="#DejaVuSans-69" transform="translate(2730.896484 0)"/>
     <use xlink:href="#DejaVuSans-63" transform="translate(2758.679688 0)"/>
     <use xlink:href="#DejaVuSans-6f" transform="translate(2813.660156 0)"/>
     <use xlink:href="#DejaVuSans-6c" transform="translate(2874.841797 0)"/>
     <use xlink:href="#DejaVuSans-6f" transform="translate(2902.625 0)"/>
     <use xlink:href="#DejaVuSans-20" transform="translate(2963.806641 0)"/>
     <use xlink:href="#DejaVuSans-65" transform="translate(2995.59375 0)"/>
     <use xlink:href="#DejaVuSans-73" transform="translate(3057.117188 0)"/>
     <use xlink:href="#DejaVuSans-61" transform="translate(3109.216797 0)"/>
     <use xlink:href="#DejaVuSans-67" transform="translate(3170.496094 0)"/>
     <use xlink:href="#DejaVuSans-6f" transform="translate(3233.972656 0)"/>
     <use xlink:href="#DejaVuSans-6e" transform="translate(3295.154297 0)"/>
     <use xlink:href="#DejaVuSans-61" transform="translate(3358.533203 0)"/>
     <use xlink:href="#DejaVuSans-6c" transform="translate(3419.8125 0)"/>
     <use xlink:href="#DejaVuSans-65" transform="translate(3447.595703 0)"/>
     <use xlink:href="#DejaVuSans-20" transform="translate(3509.119141 0)"/>
     <use xlink:href="#DejaVuSans-73" transform="translate(3540.90625 0)"/>
     <use xlink:href="#DejaVuSans-65" transform="translate(3593.005859 0)"/>
     <use xlink:href="#DejaVuSans-72" transform="translate(3654.529297 0)"/>
     <use xlink:href="#DejaVuSans-76" transform="translate(3695.642578 0)"/>
     <use xlink:href="#DejaVuSans-6f" transform="translate(3754.822266 0)"/>
     <use xlink:href="#DejaVuSans-6e" transform="translate(3816.003906 0)"/>
     <use xlink:href="#DejaVuSans-6f" transform="translate(3879.382812 0)"/>
     <use xlink:href="#DejaVuSans-20" transform="translate(3940.564453 0)"/>
     <use xlink:href="#DejaVuSans-6c" transform="translate(3972.351562 0)"/>
     <use xlink:href="#DejaVuSans-65" transform="translate(4000.134766 0)"/>
     <use xlink:href="#DejaVuSans-20" transform="translate(4061.658203 0)"/>
     <use xlink:href="#DejaVuSans-63" transform="translate(4093.445312 0)"/>
     <use xlink:href="#DejaVuSans-6f" transform="translate(4148.425781 0)"/>
     <use xlink:href="#DejaVuSans-73" transform="translate(4209.607422 0)"/>
     <use xlink:href="#DejaVuSans-74" transform="translate(4261.707031 0)"/>
     <use xlink:href="#DejaVuSans-61" transform="translate(4300.916016 0)"/>
     <use xlink:href="#DejaVuSans-6e" transform="translate(4362.195312 0)"/>
     <use xlink:href="#DejaVuSans-74" transform="translate(4425.574219 0)"/>
     <use xlink:href="#DejaVuSans-69" transform="translate(4464.783203 0)"/>
     <use xlink:href="#DejaVuSans-20" transform="translate(4492.566406 0)"/>
     <use xlink:href="#DejaVuSans-61" transform="translate(4524.353516 0)"/>
     <use xlink:href="#DejaVuSans-20" transform="translate(4585.632812 0)"/>
     <use xlink:href="#DejaVuSans-65" transform="translate(4617.419922 0)"/>
     <use xlink:href="#DejaVuSans-20" transform="translate(4678.943359 0)"/>
     <use xlink:href="#DejaVuSans-63" transform="translate(4710.730469 0)"/>
     <use xlink:href="#DejaVuSans-2e" transform="translate(4765.710938 0)"/>
    </g>
   </g>
   <g id="text_37">
    <!-- Vettori primitivi dei reticoli diretti e reciproci -->
    <g transform="translate(256.342266 18.597656) scale(0.15 -0.15)">
     <defs>
      <path id="DejaVuSans-Bold-20" transform="scale(0.015625)"/>
      <path id="DejaVuSans-Bold-70" d="M 1656 506 
L 1656 -1331 
L 538 -1331 
L 538 3500 
L 1656 3500 
L 1656 2988 
Q 1888 3294 2169 3439 
Q 2450 3584 2816 3584 
Q 3463 3584 3878 3070 
Q 4294 2556 4294 1747 
Q 4294 938 3878 423 
Q 3463 -91 2816 -91 
Q 2450 -91 2169 54 
Q 1888 200 1656 506 
z
M 2400 2772 
Q 2041 2772 1848 2508 
Q 1656 2244 1656 1747 
Q 1656 1250 1848 986 
Q 2041 722 2400 722 
Q 2759 722 2948 984 
Q 3138 1247 3138 1747 
Q 3138 2247 2948 2509 
Q 2759 2772 2400 2772 
z
" transform="scale(0.015625)"/>
      <path id="DejaVuSans-Bold-6d" d="M 3781 2919 
Q 3994 3244 4286 3414 
Q 4578 3584 4928 3584 
Q 5531 3584 5847 3212 
Q 6163 2841 6163 2131 
L 6163 0 
L 5038 0 
L 5038 1825 
Q 5041 1866 5042 1909 
Q 5044 1953 5044 2034 
Q 5044 2406 4934 2573 
Q 4825 2741 4581 2741 
Q 4263 2741 4089 2478 
Q 3916 2216 3909 1719 
L 3909 0 
L 2784 0 
L 2784 1825 
Q 2784 2406 2684 2573 
Q 2584 2741 2328 2741 
Q 2006 2741 1831 2477 
Q 1656 2213 1656 1722 
L 1656 0 
L 531 0 
L 531 3500 
L 1656 3500 
L 1656 2988 
Q 1863 3284 2130 3434 
Q 2397 3584 2719 3584 
Q 3081 3584 3359 3409 
Q 3638 3234 3781 2919 
z
" transform="scale(0.015625)"/>
      <path id="DejaVuSans-Bold-76" d="M 97 3500 
L 1216 3500 
L 2088 1081 
L 2956 3500 
L 4078 3500 
L 2700 0 
L 1472 0 
L 97 3500 
z
" transform="scale(0.015625)"/>
      <path id="DejaVuSans-Bold-64" d="M 2919 2988 
L 2919 4863 
L 4044 4863 
L 4044 0 
L 2919 0 
L 2919 506 
Q 2688 197 2409 53 
Q 2131 -91 1766 -91 
Q 1119 -91 703 423 
Q 288 938 288 1747 
Q 288 2556 703 3070 
Q 1119 3584 1766 3584 
Q 2128 3584 2408 3439 
Q 2688 3294 2919 2988 
z
M 2181 722 
Q 2541 722 2730 984 
Q 2919 1247 2919 1747 
Q 2919 2247 2730 2509 
Q 2541 2772 2181 2772 
Q 1825 2772 1636 2509 
Q 1447 2247 1447 1747 
Q 1447 1247 1636 984 
Q 1825 722 2181 722 
z
" transform="scale(0.015625)"/>
      <path id="DejaVuSans-Bold-6c" d="M 538 4863 
L 1656 4863 
L 1656 0 
L 538 0 
L 538 4863 
z
" transform="scale(0.015625)"/>
     </defs>
     <use xlink:href="#DejaVuSans-Bold-56"/>
     <use xlink:href="#DejaVuSans-Bold-65" transform="translate(71.892578 0)"/>
     <use xlink:href="#DejaVuSans-Bold-74" transform="translate(139.714844 0)"/>
     <use xlink:href="#DejaVuSans-Bold-74" transform="translate(187.517578 0)"/>
     <use xlink:href="#DejaVuSans-Bold-6f" transform="translate(235.320312 0)"/>
     <use xlink:href="#DejaVuSans-Bold-72" transform="translate(304.021484 0)"/>
     <use xlink:href="#DejaVuSans-Bold-69" transform="translate(353.337891 0)"/>
     <use xlink:href="#DejaVuSans-Bold-20" transform="translate(387.615234 0)"/>
     <use xlink:href="#DejaVuSans-Bold-70" transform="translate(422.429688 0)"/>
     <use xlink:href="#DejaVuSans-Bold-72" transform="translate(494.011719 0)"/>
     <use xlink:href="#DejaVuSans-Bold-69" transform="translate(543.328125 0)"/>
     <use xlink:href="#DejaVuSans-Bold-6d" transform="translate(577.605469 0)"/>
     <use xlink:href="#DejaVuSans-Bold-69" transform="translate(681.804688 0)"/>
     <use xlink:href="#DejaVuSans-Bold-74" transform="translate(716.082031 0)"/>
     <use xlink:href="#DejaVuSans-Bold-69" transform="translate(763.884766 0)"/>
     <use xlink:href="#DejaVuSans-Bold-76" transform="translate(798.162109 0)"/>
     <use xlink:href="#DejaVuSans-Bold-69" transform="translate(863.347656 0)"/>
     <use xlink:href="#DejaVuSans-Bold-20" transform="translate(897.625 0)"/>
     <use xlink:href="#DejaVuSans-Bold-64" transform="translate(932.439453 0)"/>
     <use xlink:href="#DejaVuSans-Bold-65" transform="translate(1004.021484 0)"/>
     <use xlink:href="#DejaVuSans-Bold-69" transform="translate(1071.84375 0)"/>
     <use xlink:href="#DejaVuSans-Bold-20" transform="translate(1106.121094 0)"/>
     <use xlink:href="#DejaVuSans-Bold-72" transform="translate(1140.935547 0)"/>
     <use xlink:href="#DejaVuSans-Bold-65" transform="translate(1190.251953 0)"/>
     <use xlink:href="#DejaVuSans-Bold-74" transform="translate(1258.074219 0)"/>
     <use xlink:href="#DejaVuSans-Bold-69" transform="translate(1305.876953 0)"/>
     <use xlink:href="#DejaVuSans-Bold-63" transform="translate(1340.154297 0)"/>
     <use xlink:href="#DejaVuSans-Bold-6f" transform="translate(1399.431641 0)"/>
     <use xlink:href="#DejaVuSans-Bold-6c" transform="translate(1468.132812 0)"/>
     <use xlink:href="#DejaVuSans-Bold-69" transform="translate(1502.410156 0)"/>
     <use xlink:href="#DejaVuSans-Bold-20" transform="translate(1536.6875 0)"/>
     <use xlink:href="#DejaVuSans-Bold-64" transform="translate(1571.501953 0)"/>
     <use xlink:href="#DejaVuSans-Bold-69" transform="translate(1643.083984 0)"/>
     <use xlink:href="#DejaVuSans-Bold-72" transform="translate(1677.361328 0)"/>
     <use xlink:href="#DejaVuSans-Bold-65" transform="translate(1726.677734 0)"/>
     <use xlink:href="#DejaVuSans-Bold-74" transform="translate(1794.5 0)"/>
     <use xlink:href="#DejaVuSans-Bold-74" transform="translate(1842.302734 0)"/>
     <use xlink:href="#DejaVuSans-Bold-69" transform="translate(1890.105469 0)"/>
     <use xlink:href="#DejaVuSans-Bold-20" transform="translate(1924.382812 0)"/>
     <use xlink:href="#DejaVuSans-Bold-65" transform="translate(1959.197266 0)"/>
     <use xlink:href="#DejaVuSans-Bold-20" transform="translate(2027.019531 0)"/>
     <use xlink:href="#DejaVuSans-Bold-72" transform="translate(2061.833984 0)"/>
     <use xlink:href="#DejaVuSans-Bold-65" transform="translate(2111.150391 0)"/>
     <use xlink:href="#DejaVuSans-Bold-63" transform="translate(2178.972656 0)"/>
     <use xlink:href="#DejaVuSans-Bold-69" transform="translate(2238.25 0)"/>
     <use xlink:href="#DejaVuSans-Bold-70" transform="translate(2272.527344 0)"/>
     <use xlink:href="#DejaVuSans-Bold-72" transform="translate(2344.109375 0)"/>
     <use xlink:href="#DejaVuSans-Bold-6f" transform="translate(2393.425781 0)"/>
     <use xlink:href="#DejaVuSans-Bold-63" transform="translate(2462.126953 0)"/>
     <use xlink:href="#DejaVuSans-Bold-69" transform="translate(2521.404297 0)"/>
    </g>
   </g>
  </g>
 </g>
</svg>
