<?xml version="1.0" encoding="utf-8" standalone="no"?>
<!DOCTYPE svg PUBLIC "-//W3C//DTD SVG 1.1//EN"
  "http://www.w3.org/Graphics/SVG/1.1/DTD/svg11.dtd">
<svg xmlns:xlink="http://www.w3.org/1999/xlink" width="706.32pt" height="492.405656pt" viewBox="0 0 706.32 492.405656" xmlns="http://www.w3.org/2000/svg" version="1.1">
 <metadata>
  <rdf:RDF xmlns:dc="http://purl.org/dc/elements/1.1/" xmlns:cc="http://creativecommons.org/ns#" xmlns:rdf="http://www.w3.org/1999/02/22-rdf-syntax-ns#">
   <cc:Work>
    <dc:type rdf:resource="http://purl.org/dc/dcmitype/StillImage"/>
    <dc:date>2026-06-16T08:39:00.289176</dc:date>
    <dc:format>image/svg+xml</dc:format>
    <dc:creator>
     <cc:Agent>
      <dc:title>Matplotlib v3.10.8, https://matplotlib.org/</dc:title>
     </cc:Agent>
    </dc:creator>
   </cc:Work>
  </rdf:RDF>
 </metadata>
 <defs>
  <style type="text/css">*{stroke-linejoin: round; stroke-linecap: butt}</style>
 </defs>
 <g id="figure_1">
  <g id="patch_1">
   <path d="M 0 492.405656 
L 706.32 492.405656 
L 706.32 0 
L 0 0 
z
" style="fill: #ffffff"/>
  </g>
  <g id="axes_1">
   <g id="line2d_1">
    <path d="M 76.889784 396.595622 
L 166.490935 396.595622 
" clip-path="url(#p1560c07dc2)" style="fill: none; stroke: #1f77b4; stroke-width: 2.1; stroke-linecap: square"/>
   </g>
   <g id="line2d_2">
    <path d="M 383.02705 396.595622 
L 517.428777 396.595622 
" clip-path="url(#p1560c07dc2)" style="fill: none; stroke: #ff7f0e; stroke-width: 1.8; stroke-linecap: square"/>
   </g>
   <g id="line2d_3">
    <path d="M 166.490935 396.595622 
L 383.02705 396.595622 
" clip-path="url(#p1560c07dc2)" style="fill: none; stroke-dasharray: 0.8,1.32; stroke-dashoffset: 0; stroke: #2ca02c; stroke-width: 0.8"/>
   </g>
   <g id="line2d_4">
    <path d="M 76.889784 261.754266 
L 166.490935 261.754266 
" clip-path="url(#p1560c07dc2)" style="fill: none; stroke: #d62728; stroke-width: 2.1; stroke-linecap: square"/>
   </g>
   <g id="line2d_5">
    <path d="M 383.02705 254.819568 
L 517.428777 254.819568 
" clip-path="url(#p1560c07dc2)" style="fill: none; stroke: #9467bd; stroke-width: 1.8; stroke-linecap: square"/>
   </g>
   <g id="line2d_6">
    <path d="M 166.490935 261.754266 
L 383.02705 254.819568 
" clip-path="url(#p1560c07dc2)" style="fill: none; stroke-dasharray: 0.8,1.32; stroke-dashoffset: 0; stroke: #8c564b; stroke-width: 0.8"/>
   </g>
   <g id="line2d_7">
    <path d="M 383.02705 272.541575 
L 517.428777 272.541575 
" clip-path="url(#p1560c07dc2)" style="fill: none; stroke: #e377c2; stroke-width: 1.8; stroke-linecap: square"/>
   </g>
   <g id="line2d_8">
    <path d="M 166.490935 261.754266 
L 383.02705 272.541575 
" clip-path="url(#p1560c07dc2)" style="fill: none; stroke-dasharray: 0.8,1.32; stroke-dashoffset: 0; stroke: #7f7f7f; stroke-width: 0.8"/>
   </g>
   <g id="line2d_9">
    <path d="M 76.889784 111.50247 
L 166.490935 111.50247 
" clip-path="url(#p1560c07dc2)" style="fill: none; stroke: #bcbd22; stroke-width: 2.1; stroke-linecap: square"/>
   </g>
   <g id="line2d_10">
    <path d="M 383.02705 98.018334 
L 517.428777 98.018334 
" clip-path="url(#p1560c07dc2)" style="fill: none; stroke: #17becf; stroke-width: 1.8; stroke-linecap: square"/>
   </g>
   <g id="line2d_11">
    <path d="M 166.490935 111.50247 
L 383.02705 98.018334 
" clip-path="url(#p1560c07dc2)" style="fill: none; stroke-dasharray: 0.8,1.32; stroke-dashoffset: 0; stroke: #1f77b4; stroke-width: 0.8"/>
   </g>
   <g id="line2d_12">
    <path d="M 383.02705 111.50247 
L 517.428777 111.50247 
" clip-path="url(#p1560c07dc2)" style="fill: none; stroke: #ff7f0e; stroke-width: 1.8; stroke-linecap: square"/>
   </g>
   <g id="line2d_13">
    <path d="M 166.490935 111.50247 
L 383.02705 111.50247 
" clip-path="url(#p1560c07dc2)" style="fill: none; stroke-dasharray: 0.8,1.32; stroke-dashoffset: 0; stroke: #2ca02c; stroke-width: 0.8"/>
   </g>
   <g id="line2d_14">
    <path d="M 383.02705 124.986605 
L 517.428777 124.986605 
" clip-path="url(#p1560c07dc2)" style="fill: none; stroke: #d62728; stroke-width: 1.8; stroke-linecap: square"/>
   </g>
   <g id="line2d_15">
    <path d="M 166.490935 111.50247 
L 383.02705 124.986605 
" clip-path="url(#p1560c07dc2)" style="fill: none; stroke-dasharray: 0.8,1.32; stroke-dashoffset: 0; stroke: #9467bd; stroke-width: 0.8"/>
   </g>
   <g id="text_1">
    <!-- teoria non relativistica -->
    <g transform="translate(51.019657 55.639622) scale(0.11 -0.11)">
     <defs>
      <path id="DejaVuSans-Bold-74" d="M 1759 4494 
L 1759 3500 
L 2913 3500 
L 2913 2700 
L 1759 2700 
L 1759 1216 
Q 1759 972 1856 886 
Q 1953 800 2241 800 
L 2816 800 
L 2816 0 
L 1856 0 
Q 1194 0 917 276 
Q 641 553 641 1216 
L 641 2700 
L 84 2700 
L 84 3500 
L 641 3500 
L 641 4494 
L 1759 4494 
z
" transform="scale(0.015625)"/>
      <path id="DejaVuSans-Bold-65" d="M 4031 1759 
L 4031 1441 
L 1416 1441 
Q 1456 1047 1700 850 
Q 1944 653 2381 653 
Q 2734 653 3104 758 
Q 3475 863 3866 1075 
L 3866 213 
Q 3469 63 3072 -14 
Q 2675 -91 2278 -91 
Q 1328 -91 801 392 
Q 275 875 275 1747 
Q 275 2603 792 3093 
Q 1309 3584 2216 3584 
Q 3041 3584 3536 3087 
Q 4031 2591 4031 1759 
z
M 2881 2131 
Q 2881 2450 2695 2645 
Q 2509 2841 2209 2841 
Q 1884 2841 1681 2658 
Q 1478 2475 1428 2131 
L 2881 2131 
z
" transform="scale(0.015625)"/>
      <path id="DejaVuSans-Bold-6f" d="M 2203 2784 
Q 1831 2784 1636 2517 
Q 1441 2250 1441 1747 
Q 1441 1244 1636 976 
Q 1831 709 2203 709 
Q 2569 709 2762 976 
Q 2956 1244 2956 1747 
Q 2956 2250 2762 2517 
Q 2569 2784 2203 2784 
z
M 2203 3584 
Q 3106 3584 3614 3096 
Q 4122 2609 4122 1747 
Q 4122 884 3614 396 
Q 3106 -91 2203 -91 
Q 1297 -91 786 396 
Q 275 884 275 1747 
Q 275 2609 786 3096 
Q 1297 3584 2203 3584 
z
" transform="scale(0.015625)"/>
      <path id="DejaVuSans-Bold-72" d="M 3138 2547 
Q 2991 2616 2845 2648 
Q 2700 2681 2553 2681 
Q 2122 2681 1889 2404 
Q 1656 2128 1656 1613 
L 1656 0 
L 538 0 
L 538 3500 
L 1656 3500 
L 1656 2925 
Q 1872 3269 2151 3426 
Q 2431 3584 2822 3584 
Q 2878 3584 2943 3579 
Q 3009 3575 3134 3559 
L 3138 2547 
z
" transform="scale(0.015625)"/>
      <path id="DejaVuSans-Bold-69" d="M 538 3500 
L 1656 3500 
L 1656 0 
L 538 0 
L 538 3500 
z
M 538 4863 
L 1656 4863 
L 1656 3950 
L 538 3950 
L 538 4863 
z
" transform="scale(0.015625)"/>
      <path id="DejaVuSans-Bold-61" d="M 2106 1575 
Q 1756 1575 1579 1456 
Q 1403 1338 1403 1106 
Q 1403 894 1545 773 
Q 1688 653 1941 653 
Q 2256 653 2472 879 
Q 2688 1106 2688 1447 
L 2688 1575 
L 2106 1575 
z
M 3816 1997 
L 3816 0 
L 2688 0 
L 2688 519 
Q 2463 200 2181 54 
Q 1900 -91 1497 -91 
Q 953 -91 614 226 
Q 275 544 275 1050 
Q 275 1666 698 1953 
Q 1122 2241 2028 2241 
L 2688 2241 
L 2688 2328 
Q 2688 2594 2478 2717 
Q 2269 2841 1825 2841 
Q 1466 2841 1156 2769 
Q 847 2697 581 2553 
L 581 3406 
Q 941 3494 1303 3539 
Q 1666 3584 2028 3584 
Q 2975 3584 3395 3211 
Q 3816 2838 3816 1997 
z
" transform="scale(0.015625)"/>
      <path id="DejaVuSans-Bold-20" transform="scale(0.015625)"/>
      <path id="DejaVuSans-Bold-6e" d="M 4056 2131 
L 4056 0 
L 2931 0 
L 2931 347 
L 2931 1631 
Q 2931 2084 2911 2256 
Q 2891 2428 2841 2509 
Q 2775 2619 2662 2680 
Q 2550 2741 2406 2741 
Q 2056 2741 1856 2470 
Q 1656 2200 1656 1722 
L 1656 0 
L 538 0 
L 538 3500 
L 1656 3500 
L 1656 2988 
Q 1909 3294 2193 3439 
Q 2478 3584 2822 3584 
Q 3428 3584 3742 3212 
Q 4056 2841 4056 2131 
z
" transform="scale(0.015625)"/>
      <path id="DejaVuSans-Bold-6c" d="M 538 4863 
L 1656 4863 
L 1656 0 
L 538 0 
L 538 4863 
z
" transform="scale(0.015625)"/>
      <path id="DejaVuSans-Bold-76" d="M 97 3500 
L 1216 3500 
L 2088 1081 
L 2956 3500 
L 4078 3500 
L 2700 0 
L 1472 0 
L 97 3500 
z
" transform="scale(0.015625)"/>
      <path id="DejaVuSans-Bold-73" d="M 3272 3391 
L 3272 2541 
Q 2913 2691 2578 2766 
Q 2244 2841 1947 2841 
Q 1628 2841 1473 2761 
Q 1319 2681 1319 2516 
Q 1319 2381 1436 2309 
Q 1553 2238 1856 2203 
L 2053 2175 
Q 2913 2066 3209 1816 
Q 3506 1566 3506 1031 
Q 3506 472 3093 190 
Q 2681 -91 1863 -91 
Q 1516 -91 1145 -36 
Q 775 19 384 128 
L 384 978 
Q 719 816 1070 734 
Q 1422 653 1784 653 
Q 2113 653 2278 743 
Q 2444 834 2444 1013 
Q 2444 1163 2330 1236 
Q 2216 1309 1875 1350 
L 1678 1375 
Q 931 1469 631 1722 
Q 331 1975 331 2491 
Q 331 3047 712 3315 
Q 1094 3584 1881 3584 
Q 2191 3584 2531 3537 
Q 2872 3491 3272 3391 
z
" transform="scale(0.015625)"/>
      <path id="DejaVuSans-Bold-63" d="M 3366 3391 
L 3366 2478 
Q 3138 2634 2908 2709 
Q 2678 2784 2431 2784 
Q 1963 2784 1702 2511 
Q 1441 2238 1441 1747 
Q 1441 1256 1702 982 
Q 1963 709 2431 709 
Q 2694 709 2930 787 
Q 3166 866 3366 1019 
L 3366 103 
Q 3103 6 2833 -42 
Q 2563 -91 2291 -91 
Q 1344 -91 809 395 
Q 275 881 275 1747 
Q 275 2613 809 3098 
Q 1344 3584 2291 3584 
Q 2566 3584 2833 3536 
Q 3100 3488 3366 3391 
z
" transform="scale(0.015625)"/>
     </defs>
     <use xlink:href="#DejaVuSans-Bold-74"/>
     <use xlink:href="#DejaVuSans-Bold-65" transform="translate(47.802734 0)"/>
     <use xlink:href="#DejaVuSans-Bold-6f" transform="translate(115.625 0)"/>
     <use xlink:href="#DejaVuSans-Bold-72" transform="translate(184.326172 0)"/>
     <use xlink:href="#DejaVuSans-Bold-69" transform="translate(233.642578 0)"/>
     <use xlink:href="#DejaVuSans-Bold-61" transform="translate(267.919922 0)"/>
     <use xlink:href="#DejaVuSans-Bold-20" transform="translate(335.400391 0)"/>
     <use xlink:href="#DejaVuSans-Bold-6e" transform="translate(370.214844 0)"/>
     <use xlink:href="#DejaVuSans-Bold-6f" transform="translate(441.40625 0)"/>
     <use xlink:href="#DejaVuSans-Bold-6e" transform="translate(510.107422 0)"/>
     <use xlink:href="#DejaVuSans-Bold-20" transform="translate(581.298828 0)"/>
     <use xlink:href="#DejaVuSans-Bold-72" transform="translate(616.113281 0)"/>
     <use xlink:href="#DejaVuSans-Bold-65" transform="translate(665.429688 0)"/>
     <use xlink:href="#DejaVuSans-Bold-6c" transform="translate(733.251953 0)"/>
     <use xlink:href="#DejaVuSans-Bold-61" transform="translate(767.529297 0)"/>
     <use xlink:href="#DejaVuSans-Bold-74" transform="translate(835.009766 0)"/>
     <use xlink:href="#DejaVuSans-Bold-69" transform="translate(882.8125 0)"/>
     <use xlink:href="#DejaVuSans-Bold-76" transform="translate(917.089844 0)"/>
     <use xlink:href="#DejaVuSans-Bold-69" transform="translate(982.275391 0)"/>
     <use xlink:href="#DejaVuSans-Bold-73" transform="translate(1016.552734 0)"/>
     <use xlink:href="#DejaVuSans-Bold-74" transform="translate(1076.074219 0)"/>
     <use xlink:href="#DejaVuSans-Bold-69" transform="translate(1123.876953 0)"/>
     <use xlink:href="#DejaVuSans-Bold-63" transform="translate(1158.154297 0)"/>
     <use xlink:href="#DejaVuSans-Bold-61" transform="translate(1217.431641 0)"/>
    </g>
   </g>
   <g id="text_2">
    <!-- struttura fine relativistica -->
    <g transform="translate(369.563539 55.639622) scale(0.11 -0.11)">
     <defs>
      <path id="DejaVuSans-Bold-75" d="M 500 1363 
L 500 3500 
L 1625 3500 
L 1625 3150 
Q 1625 2866 1622 2436 
Q 1619 2006 1619 1863 
Q 1619 1441 1641 1255 
Q 1663 1069 1716 984 
Q 1784 875 1895 815 
Q 2006 756 2150 756 
Q 2500 756 2700 1025 
Q 2900 1294 2900 1772 
L 2900 3500 
L 4019 3500 
L 4019 0 
L 2900 0 
L 2900 506 
Q 2647 200 2364 54 
Q 2081 -91 1741 -91 
Q 1134 -91 817 281 
Q 500 653 500 1363 
z
" transform="scale(0.015625)"/>
      <path id="DejaVuSans-Bold-66" d="M 2841 4863 
L 2841 4128 
L 2222 4128 
Q 1984 4128 1890 4042 
Q 1797 3956 1797 3744 
L 1797 3500 
L 2753 3500 
L 2753 2700 
L 1797 2700 
L 1797 0 
L 678 0 
L 678 2700 
L 122 2700 
L 122 3500 
L 678 3500 
L 678 3744 
Q 678 4316 997 4589 
Q 1316 4863 1984 4863 
L 2841 4863 
z
" transform="scale(0.015625)"/>
     </defs>
     <use xlink:href="#DejaVuSans-Bold-73"/>
     <use xlink:href="#DejaVuSans-Bold-74" transform="translate(59.521484 0)"/>
     <use xlink:href="#DejaVuSans-Bold-72" transform="translate(107.324219 0)"/>
     <use xlink:href="#DejaVuSans-Bold-75" transform="translate(156.640625 0)"/>
     <use xlink:href="#DejaVuSans-Bold-74" transform="translate(227.832031 0)"/>
     <use xlink:href="#DejaVuSans-Bold-74" transform="translate(275.634766 0)"/>
     <use xlink:href="#DejaVuSans-Bold-75" transform="translate(323.4375 0)"/>
     <use xlink:href="#DejaVuSans-Bold-72" transform="translate(394.628906 0)"/>
     <use xlink:href="#DejaVuSans-Bold-61" transform="translate(443.945312 0)"/>
     <use xlink:href="#DejaVuSans-Bold-20" transform="translate(511.425781 0)"/>
     <use xlink:href="#DejaVuSans-Bold-66" transform="translate(546.240234 0)"/>
     <use xlink:href="#DejaVuSans-Bold-69" transform="translate(589.746094 0)"/>
     <use xlink:href="#DejaVuSans-Bold-6e" transform="translate(624.023438 0)"/>
     <use xlink:href="#DejaVuSans-Bold-65" transform="translate(695.214844 0)"/>
     <use xlink:href="#DejaVuSans-Bold-20" transform="translate(763.037109 0)"/>
     <use xlink:href="#DejaVuSans-Bold-72" transform="translate(797.851562 0)"/>
     <use xlink:href="#DejaVuSans-Bold-65" transform="translate(847.167969 0)"/>
     <use xlink:href="#DejaVuSans-Bold-6c" transform="translate(914.990234 0)"/>
     <use xlink:href="#DejaVuSans-Bold-61" transform="translate(949.267578 0)"/>
     <use xlink:href="#DejaVuSans-Bold-74" transform="translate(1016.748047 0)"/>
     <use xlink:href="#DejaVuSans-Bold-69" transform="translate(1064.550781 0)"/>
     <use xlink:href="#DejaVuSans-Bold-76" transform="translate(1098.828125 0)"/>
     <use xlink:href="#DejaVuSans-Bold-69" transform="translate(1164.013672 0)"/>
     <use xlink:href="#DejaVuSans-Bold-73" transform="translate(1198.291016 0)"/>
     <use xlink:href="#DejaVuSans-Bold-74" transform="translate(1257.8125 0)"/>
     <use xlink:href="#DejaVuSans-Bold-69" transform="translate(1305.615234 0)"/>
     <use xlink:href="#DejaVuSans-Bold-63" transform="translate(1339.892578 0)"/>
     <use xlink:href="#DejaVuSans-Bold-61" transform="translate(1399.169922 0)"/>
    </g>
   </g>
   <g id="text_3">
    <!-- degenerazione -->
    <g transform="translate(249.195572 55.639622) scale(0.1 -0.1)">
     <defs>
      <path id="DejaVuSans-Bold-64" d="M 2919 2988 
L 2919 4863 
L 4044 4863 
L 4044 0 
L 2919 0 
L 2919 506 
Q 2688 197 2409 53 
Q 2131 -91 1766 -91 
Q 1119 -91 703 423 
Q 288 938 288 1747 
Q 288 2556 703 3070 
Q 1119 3584 1766 3584 
Q 2128 3584 2408 3439 
Q 2688 3294 2919 2988 
z
M 2181 722 
Q 2541 722 2730 984 
Q 2919 1247 2919 1747 
Q 2919 2247 2730 2509 
Q 2541 2772 2181 2772 
Q 1825 2772 1636 2509 
Q 1447 2247 1447 1747 
Q 1447 1247 1636 984 
Q 1825 722 2181 722 
z
" transform="scale(0.015625)"/>
      <path id="DejaVuSans-Bold-67" d="M 2919 594 
Q 2688 288 2409 144 
Q 2131 0 1766 0 
Q 1125 0 706 504 
Q 288 1009 288 1791 
Q 288 2575 706 3076 
Q 1125 3578 1766 3578 
Q 2131 3578 2409 3434 
Q 2688 3291 2919 2981 
L 2919 3500 
L 4044 3500 
L 4044 353 
Q 4044 -491 3511 -936 
Q 2978 -1381 1966 -1381 
Q 1638 -1381 1331 -1331 
Q 1025 -1281 716 -1178 
L 716 -306 
Q 1009 -475 1290 -558 
Q 1572 -641 1856 -641 
Q 2406 -641 2662 -400 
Q 2919 -159 2919 353 
L 2919 594 
z
M 2181 2772 
Q 1834 2772 1640 2515 
Q 1447 2259 1447 1791 
Q 1447 1309 1634 1061 
Q 1822 813 2181 813 
Q 2531 813 2725 1069 
Q 2919 1325 2919 1791 
Q 2919 2259 2725 2515 
Q 2531 2772 2181 2772 
z
" transform="scale(0.015625)"/>
      <path id="DejaVuSans-Bold-7a" d="M 366 3500 
L 3419 3500 
L 3419 2719 
L 1575 800 
L 3419 800 
L 3419 0 
L 288 0 
L 288 781 
L 2131 2700 
L 366 2700 
L 366 3500 
z
" transform="scale(0.015625)"/>
     </defs>
     <use xlink:href="#DejaVuSans-Bold-64"/>
     <use xlink:href="#DejaVuSans-Bold-65" transform="translate(71.582031 0)"/>
     <use xlink:href="#DejaVuSans-Bold-67" transform="translate(139.404297 0)"/>
     <use xlink:href="#DejaVuSans-Bold-65" transform="translate(210.986328 0)"/>
     <use xlink:href="#DejaVuSans-Bold-6e" transform="translate(278.808594 0)"/>
     <use xlink:href="#DejaVuSans-Bold-65" transform="translate(350 0)"/>
     <use xlink:href="#DejaVuSans-Bold-72" transform="translate(417.822266 0)"/>
     <use xlink:href="#DejaVuSans-Bold-61" transform="translate(467.138672 0)"/>
     <use xlink:href="#DejaVuSans-Bold-7a" transform="translate(534.619141 0)"/>
     <use xlink:href="#DejaVuSans-Bold-69" transform="translate(592.822266 0)"/>
     <use xlink:href="#DejaVuSans-Bold-6f" transform="translate(627.099609 0)"/>
     <use xlink:href="#DejaVuSans-Bold-6e" transform="translate(695.800781 0)"/>
     <use xlink:href="#DejaVuSans-Bold-65" transform="translate(766.992188 0)"/>
    </g>
   </g>
   <g id="text_4">
    <!-- $n=1$ -->
    <g transform="translate(109.19036 385.808314) scale(0.1 -0.1)">
     <defs>
      <path id="DejaVuSans-Oblique-6e" d="M 3566 2113 
L 3156 0 
L 2578 0 
L 2988 2091 
Q 3016 2238 3031 2350 
Q 3047 2463 3047 2528 
Q 3047 2791 2881 2937 
Q 2716 3084 2419 3084 
Q 1956 3084 1622 2776 
Q 1288 2469 1184 1941 
L 800 0 
L 225 0 
L 903 3500 
L 1478 3500 
L 1363 2950 
Q 1603 3253 1940 3418 
Q 2278 3584 2650 3584 
Q 3113 3584 3367 3334 
Q 3622 3084 3622 2631 
Q 3622 2519 3608 2391 
Q 3594 2263 3566 2113 
z
" transform="scale(0.015625)"/>
      <path id="DejaVuSans-3d" d="M 678 2906 
L 4684 2906 
L 4684 2381 
L 678 2381 
L 678 2906 
z
M 678 1631 
L 4684 1631 
L 4684 1100 
L 678 1100 
L 678 1631 
z
" transform="scale(0.015625)"/>
      <path id="DejaVuSans-31" d="M 794 531 
L 1825 531 
L 1825 4091 
L 703 3866 
L 703 4441 
L 1819 4666 
L 2450 4666 
L 2450 531 
L 3481 531 
L 3481 0 
L 794 0 
L 794 531 
z
" transform="scale(0.015625)"/>
     </defs>
     <use xlink:href="#DejaVuSans-Oblique-6e" transform="translate(0 0.09375)"/>
     <use xlink:href="#DejaVuSans-3d" transform="translate(82.861328 0.09375)"/>
     <use xlink:href="#DejaVuSans-31" transform="translate(186.132812 0.09375)"/>
    </g>
   </g>
   <g id="text_5">
    <!-- 2-fold -->
    <g transform="translate(255.118951 399.07906) scale(0.09 -0.09)">
     <defs>
      <path id="DejaVuSans-32" d="M 1228 531 
L 3431 531 
L 3431 0 
L 469 0 
L 469 531 
Q 828 903 1448 1529 
Q 2069 2156 2228 2338 
Q 2531 2678 2651 2914 
Q 2772 3150 2772 3378 
Q 2772 3750 2511 3984 
Q 2250 4219 1831 4219 
Q 1534 4219 1204 4116 
Q 875 4013 500 3803 
L 500 4441 
Q 881 4594 1212 4672 
Q 1544 4750 1819 4750 
Q 2544 4750 2975 4387 
Q 3406 4025 3406 3419 
Q 3406 3131 3298 2873 
Q 3191 2616 2906 2266 
Q 2828 2175 2409 1742 
Q 1991 1309 1228 531 
z
" transform="scale(0.015625)"/>
      <path id="DejaVuSans-2d" d="M 313 2009 
L 1997 2009 
L 1997 1497 
L 313 1497 
L 313 2009 
z
" transform="scale(0.015625)"/>
      <path id="DejaVuSans-66" d="M 2375 4863 
L 2375 4384 
L 1825 4384 
Q 1516 4384 1395 4259 
Q 1275 4134 1275 3809 
L 1275 3500 
L 2222 3500 
L 2222 3053 
L 1275 3053 
L 1275 0 
L 697 0 
L 697 3053 
L 147 3053 
L 147 3500 
L 697 3500 
L 697 3744 
Q 697 4328 969 4595 
Q 1241 4863 1831 4863 
L 2375 4863 
z
" transform="scale(0.015625)"/>
      <path id="DejaVuSans-6f" d="M 1959 3097 
Q 1497 3097 1228 2736 
Q 959 2375 959 1747 
Q 959 1119 1226 758 
Q 1494 397 1959 397 
Q 2419 397 2687 759 
Q 2956 1122 2956 1747 
Q 2956 2369 2687 2733 
Q 2419 3097 1959 3097 
z
M 1959 3584 
Q 2709 3584 3137 3096 
Q 3566 2609 3566 1747 
Q 3566 888 3137 398 
Q 2709 -91 1959 -91 
Q 1206 -91 779 398 
Q 353 888 353 1747 
Q 353 2609 779 3096 
Q 1206 3584 1959 3584 
z
" transform="scale(0.015625)"/>
      <path id="DejaVuSans-6c" d="M 603 4863 
L 1178 4863 
L 1178 0 
L 603 0 
L 603 4863 
z
" transform="scale(0.015625)"/>
      <path id="DejaVuSans-64" d="M 2906 2969 
L 2906 4863 
L 3481 4863 
L 3481 0 
L 2906 0 
L 2906 525 
Q 2725 213 2448 61 
Q 2172 -91 1784 -91 
Q 1150 -91 751 415 
Q 353 922 353 1747 
Q 353 2572 751 3078 
Q 1150 3584 1784 3584 
Q 2172 3584 2448 3432 
Q 2725 3281 2906 2969 
z
M 947 1747 
Q 947 1113 1208 752 
Q 1469 391 1925 391 
Q 2381 391 2643 752 
Q 2906 1113 2906 1747 
Q 2906 2381 2643 2742 
Q 2381 3103 1925 3103 
Q 1469 3103 1208 2742 
Q 947 2381 947 1747 
z
" transform="scale(0.015625)"/>
     </defs>
     <use xlink:href="#DejaVuSans-32"/>
     <use xlink:href="#DejaVuSans-2d" transform="translate(63.623047 0)"/>
     <use xlink:href="#DejaVuSans-66" transform="translate(99.707031 0)"/>
     <use xlink:href="#DejaVuSans-6f" transform="translate(134.912109 0)"/>
     <use xlink:href="#DejaVuSans-6c" transform="translate(196.09375 0)"/>
     <use xlink:href="#DejaVuSans-64" transform="translate(223.876953 0)"/>
    </g>
   </g>
   <g id="text_6">
    <!-- 2-fold -->
    <g transform="translate(300.892662 399.07906) scale(0.09 -0.09)">
     <use xlink:href="#DejaVuSans-32"/>
     <use xlink:href="#DejaVuSans-2d" transform="translate(63.623047 0)"/>
     <use xlink:href="#DejaVuSans-66" transform="translate(99.707031 0)"/>
     <use xlink:href="#DejaVuSans-6f" transform="translate(134.912109 0)"/>
     <use xlink:href="#DejaVuSans-6c" transform="translate(196.09375 0)"/>
     <use xlink:href="#DejaVuSans-64" transform="translate(223.876953 0)"/>
    </g>
   </g>
   <g id="text_7">
    <!-- $n=1,\ l=0,\ j=\frac{1}{2}$ -->
    <g transform="translate(530.86895 399.125622) scale(0.092 -0.092)">
     <defs>
      <path id="DejaVuSans-2c" d="M 750 794 
L 1409 794 
L 1409 256 
L 897 -744 
L 494 -744 
L 750 256 
L 750 794 
z
" transform="scale(0.015625)"/>
      <path id="DejaVuSans-Oblique-6c" d="M 1172 4863 
L 1747 4863 
L 800 0 
L 225 0 
L 1172 4863 
z
" transform="scale(0.015625)"/>
      <path id="DejaVuSans-30" d="M 2034 4250 
Q 1547 4250 1301 3770 
Q 1056 3291 1056 2328 
Q 1056 1369 1301 889 
Q 1547 409 2034 409 
Q 2525 409 2770 889 
Q 3016 1369 3016 2328 
Q 3016 3291 2770 3770 
Q 2525 4250 2034 4250 
z
M 2034 4750 
Q 2819 4750 3233 4129 
Q 3647 3509 3647 2328 
Q 3647 1150 3233 529 
Q 2819 -91 2034 -91 
Q 1250 -91 836 529 
Q 422 1150 422 2328 
Q 422 3509 836 4129 
Q 1250 4750 2034 4750 
z
" transform="scale(0.015625)"/>
      <path id="DejaVuSans-Oblique-6a" d="M 928 3500 
L 1503 3500 
L 813 -63 
L 809 -78 
Q 694 -675 544 -897 
Q 403 -1106 132 -1218 
Q -138 -1331 -506 -1331 
L -722 -1331 
L -628 -844 
L -481 -844 
Q -144 -844 -1 -703 
Q 141 -563 238 -63 
L 928 3500 
z
M 1197 4863 
L 1772 4863 
L 1631 4134 
L 1056 4134 
L 1197 4863 
z
" transform="scale(0.015625)"/>
     </defs>
     <use xlink:href="#DejaVuSans-Oblique-6e" transform="translate(0 0.16875)"/>
     <use xlink:href="#DejaVuSans-3d" transform="translate(82.861328 0.16875)"/>
     <use xlink:href="#DejaVuSans-31" transform="translate(186.132812 0.16875)"/>
     <use xlink:href="#DejaVuSans-2c" transform="translate(249.755859 0.16875)"/>
     <use xlink:href="#DejaVuSans-Oblique-6c" transform="translate(333.495769 0.16875)"/>
     <use xlink:href="#DejaVuSans-3d" transform="translate(380.761394 0.16875)"/>
     <use xlink:href="#DejaVuSans-30" transform="translate(484.032878 0.16875)"/>
     <use xlink:href="#DejaVuSans-2c" transform="translate(547.655925 0.16875)"/>
     <use xlink:href="#DejaVuSans-Oblique-6a" transform="translate(631.395835 0.16875)"/>
     <use xlink:href="#DejaVuSans-3d" transform="translate(678.66146 0.16875)"/>
     <use xlink:href="#DejaVuSans-31" transform="translate(781.932944 43.965625) scale(0.7)"/>
     <use xlink:href="#DejaVuSans-32" transform="translate(781.932944 -39.2375) scale(0.7)"/>
     <path d="M 781.932944 18.965625 
L 781.932944 25.215625 
L 826.469077 25.215625 
L 826.469077 18.965625 
L 781.932944 18.965625 
z
"/>
    </g>
   </g>
   <g id="text_8">
    <!-- $n=2$ -->
    <g transform="translate(109.19036 250.966958) scale(0.1 -0.1)">
     <use xlink:href="#DejaVuSans-Oblique-6e" transform="translate(0 0.78125)"/>
     <use xlink:href="#DejaVuSans-3d" transform="translate(82.861328 0.78125)"/>
     <use xlink:href="#DejaVuSans-32" transform="translate(186.132812 0.78125)"/>
    </g>
   </g>
   <g id="text_9">
    <!-- 8-fold -->
    <g transform="translate(255.118951 264.237704) scale(0.09 -0.09)">
     <defs>
      <path id="DejaVuSans-38" d="M 2034 2216 
Q 1584 2216 1326 1975 
Q 1069 1734 1069 1313 
Q 1069 891 1326 650 
Q 1584 409 2034 409 
Q 2484 409 2743 651 
Q 3003 894 3003 1313 
Q 3003 1734 2745 1975 
Q 2488 2216 2034 2216 
z
M 1403 2484 
Q 997 2584 770 2862 
Q 544 3141 544 3541 
Q 544 4100 942 4425 
Q 1341 4750 2034 4750 
Q 2731 4750 3128 4425 
Q 3525 4100 3525 3541 
Q 3525 3141 3298 2862 
Q 3072 2584 2669 2484 
Q 3125 2378 3379 2068 
Q 3634 1759 3634 1313 
Q 3634 634 3220 271 
Q 2806 -91 2034 -91 
Q 1263 -91 848 271 
Q 434 634 434 1313 
Q 434 1759 690 2068 
Q 947 2378 1403 2484 
z
M 1172 3481 
Q 1172 3119 1398 2916 
Q 1625 2713 2034 2713 
Q 2441 2713 2670 2916 
Q 2900 3119 2900 3481 
Q 2900 3844 2670 4047 
Q 2441 4250 2034 4250 
Q 1625 4250 1398 4047 
Q 1172 3844 1172 3481 
z
" transform="scale(0.015625)"/>
     </defs>
     <use xlink:href="#DejaVuSans-38"/>
     <use xlink:href="#DejaVuSans-2d" transform="translate(63.623047 0)"/>
     <use xlink:href="#DejaVuSans-66" transform="translate(99.707031 0)"/>
     <use xlink:href="#DejaVuSans-6f" transform="translate(134.912109 0)"/>
     <use xlink:href="#DejaVuSans-6c" transform="translate(196.09375 0)"/>
     <use xlink:href="#DejaVuSans-64" transform="translate(223.876953 0)"/>
    </g>
   </g>
   <g id="text_10">
    <!-- 4-fold -->
    <g transform="translate(300.892662 257.303006) scale(0.09 -0.09)">
     <defs>
      <path id="DejaVuSans-34" d="M 2419 4116 
L 825 1625 
L 2419 1625 
L 2419 4116 
z
M 2253 4666 
L 3047 4666 
L 3047 1625 
L 3713 1625 
L 3713 1100 
L 3047 1100 
L 3047 0 
L 2419 0 
L 2419 1100 
L 313 1100 
L 313 1709 
L 2253 4666 
z
" transform="scale(0.015625)"/>
     </defs>
     <use xlink:href="#DejaVuSans-34"/>
     <use xlink:href="#DejaVuSans-2d" transform="translate(63.623047 0)"/>
     <use xlink:href="#DejaVuSans-66" transform="translate(99.707031 0)"/>
     <use xlink:href="#DejaVuSans-6f" transform="translate(134.912109 0)"/>
     <use xlink:href="#DejaVuSans-6c" transform="translate(196.09375 0)"/>
     <use xlink:href="#DejaVuSans-64" transform="translate(223.876953 0)"/>
    </g>
   </g>
   <g id="text_11">
    <!-- $n=2,\ l=1,\ j=\frac{3}{2}$ -->
    <g transform="translate(530.86895 257.441568) scale(0.092 -0.092)">
     <defs>
      <path id="DejaVuSans-33" d="M 2597 2516 
Q 3050 2419 3304 2112 
Q 3559 1806 3559 1356 
Q 3559 666 3084 287 
Q 2609 -91 1734 -91 
Q 1441 -91 1130 -33 
Q 819 25 488 141 
L 488 750 
Q 750 597 1062 519 
Q 1375 441 1716 441 
Q 2309 441 2620 675 
Q 2931 909 2931 1356 
Q 2931 1769 2642 2001 
Q 2353 2234 1838 2234 
L 1294 2234 
L 1294 2753 
L 1863 2753 
Q 2328 2753 2575 2939 
Q 2822 3125 2822 3475 
Q 2822 3834 2567 4026 
Q 2313 4219 1838 4219 
Q 1578 4219 1281 4162 
Q 984 4106 628 3988 
L 628 4550 
Q 988 4650 1302 4700 
Q 1616 4750 1894 4750 
Q 2613 4750 3031 4423 
Q 3450 4097 3450 3541 
Q 3450 3153 3228 2886 
Q 3006 2619 2597 2516 
z
" transform="scale(0.015625)"/>
     </defs>
     <use xlink:href="#DejaVuSans-Oblique-6e" transform="translate(0 0.254687)"/>
     <use xlink:href="#DejaVuSans-3d" transform="translate(82.861328 0.254687)"/>
     <use xlink:href="#DejaVuSans-32" transform="translate(186.132812 0.254687)"/>
     <use xlink:href="#DejaVuSans-2c" transform="translate(249.755859 0.254687)"/>
     <use xlink:href="#DejaVuSans-Oblique-6c" transform="translate(333.495769 0.254687)"/>
     <use xlink:href="#DejaVuSans-3d" transform="translate(380.761394 0.254687)"/>
     <use xlink:href="#DejaVuSans-31" transform="translate(484.032878 0.254687)"/>
     <use xlink:href="#DejaVuSans-2c" transform="translate(547.655925 0.254687)"/>
     <use xlink:href="#DejaVuSans-Oblique-6a" transform="translate(631.395835 0.254687)"/>
     <use xlink:href="#DejaVuSans-3d" transform="translate(678.66146 0.254687)"/>
     <use xlink:href="#DejaVuSans-33" transform="translate(781.932944 45.046875) scale(0.7)"/>
     <use xlink:href="#DejaVuSans-32" transform="translate(781.932944 -39.151563) scale(0.7)"/>
     <path d="M 781.932944 19.051563 
L 781.932944 25.301563 
L 826.469077 25.301563 
L 826.469077 19.051563 
L 781.932944 19.051563 
z
"/>
    </g>
   </g>
   <g id="text_12">
    <!-- 4-fold -->
    <g transform="translate(300.892662 275.025012) scale(0.09 -0.09)">
     <use xlink:href="#DejaVuSans-34"/>
     <use xlink:href="#DejaVuSans-2d" transform="translate(63.623047 0)"/>
     <use xlink:href="#DejaVuSans-66" transform="translate(99.707031 0)"/>
     <use xlink:href="#DejaVuSans-6f" transform="translate(134.912109 0)"/>
     <use xlink:href="#DejaVuSans-6c" transform="translate(196.09375 0)"/>
     <use xlink:href="#DejaVuSans-64" transform="translate(223.876953 0)"/>
    </g>
   </g>
   <g id="text_13">
    <!-- $n=2,\ l=0,1,\ j=\frac{1}{2}$ -->
    <g transform="translate(530.86895 275.071575) scale(0.092 -0.092)">
     <use xlink:href="#DejaVuSans-Oblique-6e" transform="translate(0 0.16875)"/>
     <use xlink:href="#DejaVuSans-3d" transform="translate(82.861328 0.16875)"/>
     <use xlink:href="#DejaVuSans-32" transform="translate(186.132812 0.16875)"/>
     <use xlink:href="#DejaVuSans-2c" transform="translate(249.755859 0.16875)"/>
     <use xlink:href="#DejaVuSans-Oblique-6c" transform="translate(333.495769 0.16875)"/>
     <use xlink:href="#DejaVuSans-3d" transform="translate(380.761394 0.16875)"/>
     <use xlink:href="#DejaVuSans-30" transform="translate(484.032878 0.16875)"/>
     <use xlink:href="#DejaVuSans-2c" transform="translate(547.655925 0.16875)"/>
     <use xlink:href="#DejaVuSans-31" transform="translate(598.925457 0.16875)"/>
     <use xlink:href="#DejaVuSans-2c" transform="translate(662.548503 0.16875)"/>
     <use xlink:href="#DejaVuSans-Oblique-6a" transform="translate(746.288413 0.16875)"/>
     <use xlink:href="#DejaVuSans-3d" transform="translate(793.554038 0.16875)"/>
     <use xlink:href="#DejaVuSans-31" transform="translate(896.825522 43.965625) scale(0.7)"/>
     <use xlink:href="#DejaVuSans-32" transform="translate(896.825522 -39.2375) scale(0.7)"/>
     <path d="M 896.825522 18.965625 
L 896.825522 25.215625 
L 941.361655 25.215625 
L 941.361655 18.965625 
L 896.825522 18.965625 
z
"/>
    </g>
   </g>
   <g id="text_14">
    <!-- $n=3$ -->
    <g transform="translate(109.19036 100.715161) scale(0.1 -0.1)">
     <use xlink:href="#DejaVuSans-Oblique-6e" transform="translate(0 0.78125)"/>
     <use xlink:href="#DejaVuSans-3d" transform="translate(82.861328 0.78125)"/>
     <use xlink:href="#DejaVuSans-33" transform="translate(186.132812 0.78125)"/>
    </g>
   </g>
   <g id="text_15">
    <!-- 18-fold -->
    <g transform="translate(249.392701 113.985907) scale(0.09 -0.09)">
     <use xlink:href="#DejaVuSans-31"/>
     <use xlink:href="#DejaVuSans-38" transform="translate(63.623047 0)"/>
     <use xlink:href="#DejaVuSans-2d" transform="translate(127.246094 0)"/>
     <use xlink:href="#DejaVuSans-66" transform="translate(163.330078 0)"/>
     <use xlink:href="#DejaVuSans-6f" transform="translate(198.535156 0)"/>
     <use xlink:href="#DejaVuSans-6c" transform="translate(259.716797 0)"/>
     <use xlink:href="#DejaVuSans-64" transform="translate(287.5 0)"/>
    </g>
   </g>
   <g id="text_16">
    <!-- 6-fold -->
    <g transform="translate(300.892662 100.501772) scale(0.09 -0.09)">
     <defs>
      <path id="DejaVuSans-36" d="M 2113 2584 
Q 1688 2584 1439 2293 
Q 1191 2003 1191 1497 
Q 1191 994 1439 701 
Q 1688 409 2113 409 
Q 2538 409 2786 701 
Q 3034 994 3034 1497 
Q 3034 2003 2786 2293 
Q 2538 2584 2113 2584 
z
M 3366 4563 
L 3366 3988 
Q 3128 4100 2886 4159 
Q 2644 4219 2406 4219 
Q 1781 4219 1451 3797 
Q 1122 3375 1075 2522 
Q 1259 2794 1537 2939 
Q 1816 3084 2150 3084 
Q 2853 3084 3261 2657 
Q 3669 2231 3669 1497 
Q 3669 778 3244 343 
Q 2819 -91 2113 -91 
Q 1303 -91 875 529 
Q 447 1150 447 2328 
Q 447 3434 972 4092 
Q 1497 4750 2381 4750 
Q 2619 4750 2861 4703 
Q 3103 4656 3366 4563 
z
" transform="scale(0.015625)"/>
     </defs>
     <use xlink:href="#DejaVuSans-36"/>
     <use xlink:href="#DejaVuSans-2d" transform="translate(63.623047 0)"/>
     <use xlink:href="#DejaVuSans-66" transform="translate(99.707031 0)"/>
     <use xlink:href="#DejaVuSans-6f" transform="translate(134.912109 0)"/>
     <use xlink:href="#DejaVuSans-6c" transform="translate(196.09375 0)"/>
     <use xlink:href="#DejaVuSans-64" transform="translate(223.876953 0)"/>
    </g>
   </g>
   <g id="text_17">
    <!-- $n=3,\ l=2,\ j=\frac{5}{2}$ -->
    <g transform="translate(530.86895 100.594334) scale(0.092 -0.092)">
     <defs>
      <path id="DejaVuSans-35" d="M 691 4666 
L 3169 4666 
L 3169 4134 
L 1269 4134 
L 1269 2991 
Q 1406 3038 1543 3061 
Q 1681 3084 1819 3084 
Q 2600 3084 3056 2656 
Q 3513 2228 3513 1497 
Q 3513 744 3044 326 
Q 2575 -91 1722 -91 
Q 1428 -91 1123 -41 
Q 819 9 494 109 
L 494 744 
Q 775 591 1075 516 
Q 1375 441 1709 441 
Q 2250 441 2565 725 
Q 2881 1009 2881 1497 
Q 2881 1984 2565 2268 
Q 2250 2553 1709 2553 
Q 1456 2553 1204 2497 
Q 953 2441 691 2322 
L 691 4666 
z
" transform="scale(0.015625)"/>
     </defs>
     <use xlink:href="#DejaVuSans-Oblique-6e" transform="translate(0 0.173438)"/>
     <use xlink:href="#DejaVuSans-3d" transform="translate(82.861328 0.173438)"/>
     <use xlink:href="#DejaVuSans-33" transform="translate(186.132812 0.173438)"/>
     <use xlink:href="#DejaVuSans-2c" transform="translate(249.755859 0.173438)"/>
     <use xlink:href="#DejaVuSans-Oblique-6c" transform="translate(333.495769 0.173438)"/>
     <use xlink:href="#DejaVuSans-3d" transform="translate(380.761394 0.173438)"/>
     <use xlink:href="#DejaVuSans-32" transform="translate(484.032878 0.173438)"/>
     <use xlink:href="#DejaVuSans-2c" transform="translate(547.655925 0.173438)"/>
     <use xlink:href="#DejaVuSans-Oblique-6a" transform="translate(631.395835 0.173438)"/>
     <use xlink:href="#DejaVuSans-3d" transform="translate(678.66146 0.173438)"/>
     <use xlink:href="#DejaVuSans-35" transform="translate(781.932944 44.965625) scale(0.7)"/>
     <use xlink:href="#DejaVuSans-32" transform="translate(781.932944 -39.232812) scale(0.7)"/>
     <path d="M 781.932944 18.970313 
L 781.932944 25.220313 
L 826.469077 25.220313 
L 826.469077 18.970313 
L 781.932944 18.970313 
z
"/>
    </g>
   </g>
   <g id="text_18">
    <!-- 8-fold -->
    <g transform="translate(300.892662 113.985907) scale(0.09 -0.09)">
     <use xlink:href="#DejaVuSans-38"/>
     <use xlink:href="#DejaVuSans-2d" transform="translate(63.623047 0)"/>
     <use xlink:href="#DejaVuSans-66" transform="translate(99.707031 0)"/>
     <use xlink:href="#DejaVuSans-6f" transform="translate(134.912109 0)"/>
     <use xlink:href="#DejaVuSans-6c" transform="translate(196.09375 0)"/>
     <use xlink:href="#DejaVuSans-64" transform="translate(223.876953 0)"/>
    </g>
   </g>
   <g id="text_19">
    <!-- $n=3,\ l=1,2,\ j=\frac{3}{2}$ -->
    <g transform="translate(530.86895 114.12447) scale(0.092 -0.092)">
     <use xlink:href="#DejaVuSans-Oblique-6e" transform="translate(0 0.254687)"/>
     <use xlink:href="#DejaVuSans-3d" transform="translate(82.861328 0.254687)"/>
     <use xlink:href="#DejaVuSans-33" transform="translate(186.132812 0.254687)"/>
     <use xlink:href="#DejaVuSans-2c" transform="translate(249.755859 0.254687)"/>
     <use xlink:href="#DejaVuSans-Oblique-6c" transform="translate(333.495769 0.254687)"/>
     <use xlink:href="#DejaVuSans-3d" transform="translate(380.761394 0.254687)"/>
     <use xlink:href="#DejaVuSans-31" transform="translate(484.032878 0.254687)"/>
     <use xlink:href="#DejaVuSans-2c" transform="translate(547.655925 0.254687)"/>
     <use xlink:href="#DejaVuSans-32" transform="translate(598.925457 0.254687)"/>
     <use xlink:href="#DejaVuSans-2c" transform="translate(662.548503 0.254687)"/>
     <use xlink:href="#DejaVuSans-Oblique-6a" transform="translate(746.288413 0.254687)"/>
     <use xlink:href="#DejaVuSans-3d" transform="translate(793.554038 0.254687)"/>
     <use xlink:href="#DejaVuSans-33" transform="translate(896.825522 45.046875) scale(0.7)"/>
     <use xlink:href="#DejaVuSans-32" transform="translate(896.825522 -39.151563) scale(0.7)"/>
     <path d="M 896.825522 19.051563 
L 896.825522 25.301563 
L 941.361655 25.301563 
L 941.361655 19.051563 
L 896.825522 19.051563 
z
"/>
    </g>
   </g>
   <g id="text_20">
    <!-- 4-fold -->
    <g transform="translate(300.892662 127.470043) scale(0.09 -0.09)">
     <use xlink:href="#DejaVuSans-34"/>
     <use xlink:href="#DejaVuSans-2d" transform="translate(63.623047 0)"/>
     <use xlink:href="#DejaVuSans-66" transform="translate(99.707031 0)"/>
     <use xlink:href="#DejaVuSans-6f" transform="translate(134.912109 0)"/>
     <use xlink:href="#DejaVuSans-6c" transform="translate(196.09375 0)"/>
     <use xlink:href="#DejaVuSans-64" transform="translate(223.876953 0)"/>
    </g>
   </g>
   <g id="text_21">
    <!-- $n=3,\ l=0,1,\ j=\frac{1}{2}$ -->
    <g transform="translate(530.86895 127.516605) scale(0.092 -0.092)">
     <use xlink:href="#DejaVuSans-Oblique-6e" transform="translate(0 0.16875)"/>
     <use xlink:href="#DejaVuSans-3d" transform="translate(82.861328 0.16875)"/>
     <use xlink:href="#DejaVuSans-33" transform="translate(186.132812 0.16875)"/>
     <use xlink:href="#DejaVuSans-2c" transform="translate(249.755859 0.16875)"/>
     <use xlink:href="#DejaVuSans-Oblique-6c" transform="translate(333.495769 0.16875)"/>
     <use xlink:href="#DejaVuSans-3d" transform="translate(380.761394 0.16875)"/>
     <use xlink:href="#DejaVuSans-30" transform="translate(484.032878 0.16875)"/>
     <use xlink:href="#DejaVuSans-2c" transform="translate(547.655925 0.16875)"/>
     <use xlink:href="#DejaVuSans-31" transform="translate(598.925457 0.16875)"/>
     <use xlink:href="#DejaVuSans-2c" transform="translate(662.548503 0.16875)"/>
     <use xlink:href="#DejaVuSans-Oblique-6a" transform="translate(746.288413 0.16875)"/>
     <use xlink:href="#DejaVuSans-3d" transform="translate(793.554038 0.16875)"/>
     <use xlink:href="#DejaVuSans-31" transform="translate(896.825522 43.965625) scale(0.7)"/>
     <use xlink:href="#DejaVuSans-32" transform="translate(896.825522 -39.2375) scale(0.7)"/>
     <path d="M 896.825522 18.965625 
L 896.825522 25.215625 
L 941.361655 25.215625 
L 941.361655 18.965625 
L 896.825522 18.965625 
z
"/>
    </g>
   </g>
   <g id="patch_2">
    <path d="M 587.118561 388.925266 
Q 587.118561 391.19943 587.118561 393.473595 
" style="fill: none; stroke: #000000; stroke-linecap: round"/>
    <path d="M 585.118561 392.925266 
L 587.118561 388.925266 
L 589.118561 392.925266 
" style="fill: none; stroke: #000000; stroke-linecap: round"/>
    <path d="M 589.118561 389.473595 
L 587.118561 393.473595 
L 585.118561 389.473595 
" style="fill: none; stroke: #000000; stroke-linecap: round"/>
   </g>
   <g id="text_22">
    <!-- $1.18\times10^{-4}\ {\rm eV}$ -->
    <g transform="translate(599.563165 393.630218) scale(0.088 -0.088)">
     <defs>
      <path id="DejaVuSans-2e" d="M 684 794 
L 1344 794 
L 1344 0 
L 684 0 
L 684 794 
z
" transform="scale(0.015625)"/>
      <path id="DejaVuSans-d7" d="M 4488 3438 
L 3059 2003 
L 4488 575 
L 4116 197 
L 2681 1631 
L 1247 197 
L 878 575 
L 2303 2003 
L 878 3438 
L 1247 3816 
L 2681 2381 
L 4116 3816 
L 4488 3438 
z
" transform="scale(0.015625)"/>
      <path id="DejaVuSans-2212" d="M 678 2272 
L 4684 2272 
L 4684 1741 
L 678 1741 
L 678 2272 
z
" transform="scale(0.015625)"/>
      <path id="DejaVuSans-65" d="M 3597 1894 
L 3597 1613 
L 953 1613 
Q 991 1019 1311 708 
Q 1631 397 2203 397 
Q 2534 397 2845 478 
Q 3156 559 3463 722 
L 3463 178 
Q 3153 47 2828 -22 
Q 2503 -91 2169 -91 
Q 1331 -91 842 396 
Q 353 884 353 1716 
Q 353 2575 817 3079 
Q 1281 3584 2069 3584 
Q 2775 3584 3186 3129 
Q 3597 2675 3597 1894 
z
M 3022 2063 
Q 3016 2534 2758 2815 
Q 2500 3097 2075 3097 
Q 1594 3097 1305 2825 
Q 1016 2553 972 2059 
L 3022 2063 
z
" transform="scale(0.015625)"/>
      <path id="DejaVuSans-56" d="M 1831 0 
L 50 4666 
L 709 4666 
L 2188 738 
L 3669 4666 
L 4325 4666 
L 2547 0 
L 1831 0 
z
" transform="scale(0.015625)"/>
     </defs>
     <use xlink:href="#DejaVuSans-31" transform="translate(0 0.684375)"/>
     <use xlink:href="#DejaVuSans-2e" transform="translate(63.623047 0.684375)"/>
     <use xlink:href="#DejaVuSans-31" transform="translate(95.410156 0.684375)"/>
     <use xlink:href="#DejaVuSans-38" transform="translate(159.033203 0.684375)"/>
     <use xlink:href="#DejaVuSans-d7" transform="translate(242.138672 0.684375)"/>
     <use xlink:href="#DejaVuSans-31" transform="translate(345.410156 0.684375)"/>
     <use xlink:href="#DejaVuSans-30" transform="translate(409.033203 0.684375)"/>
     <use xlink:href="#DejaVuSans-2212" transform="translate(473.613281 38.965625) scale(0.7)"/>
     <use xlink:href="#DejaVuSans-34" transform="translate(532.265625 38.965625) scale(0.7)"/>
     <use xlink:href="#DejaVuSans-65" transform="translate(612.006511 0.684375)"/>
     <use xlink:href="#DejaVuSans-56" transform="translate(673.529949 0.684375)"/>
    </g>
   </g>
   <g id="text_23">
    <!-- La figura è volutamente fuori scala: le correzioni relativistiche sono molto più piccole della separazione tra livelli principali. -->
    <g transform="translate(30.330381 464.0163) scale(0.1 -0.1)">
     <defs>
      <path id="DejaVuSans-4c" d="M 628 4666 
L 1259 4666 
L 1259 531 
L 3531 531 
L 3531 0 
L 628 0 
L 628 4666 
z
" transform="scale(0.015625)"/>
      <path id="DejaVuSans-61" d="M 2194 1759 
Q 1497 1759 1228 1600 
Q 959 1441 959 1056 
Q 959 750 1161 570 
Q 1363 391 1709 391 
Q 2188 391 2477 730 
Q 2766 1069 2766 1631 
L 2766 1759 
L 2194 1759 
z
M 3341 1997 
L 3341 0 
L 2766 0 
L 2766 531 
Q 2569 213 2275 61 
Q 1981 -91 1556 -91 
Q 1019 -91 701 211 
Q 384 513 384 1019 
Q 384 1609 779 1909 
Q 1175 2209 1959 2209 
L 2766 2209 
L 2766 2266 
Q 2766 2663 2505 2880 
Q 2244 3097 1772 3097 
Q 1472 3097 1187 3025 
Q 903 2953 641 2809 
L 641 3341 
Q 956 3463 1253 3523 
Q 1550 3584 1831 3584 
Q 2591 3584 2966 3190 
Q 3341 2797 3341 1997 
z
" transform="scale(0.015625)"/>
      <path id="DejaVuSans-20" transform="scale(0.015625)"/>
      <path id="DejaVuSans-69" d="M 603 3500 
L 1178 3500 
L 1178 0 
L 603 0 
L 603 3500 
z
M 603 4863 
L 1178 4863 
L 1178 4134 
L 603 4134 
L 603 4863 
z
" transform="scale(0.015625)"/>
      <path id="DejaVuSans-67" d="M 2906 1791 
Q 2906 2416 2648 2759 
Q 2391 3103 1925 3103 
Q 1463 3103 1205 2759 
Q 947 2416 947 1791 
Q 947 1169 1205 825 
Q 1463 481 1925 481 
Q 2391 481 2648 825 
Q 2906 1169 2906 1791 
z
M 3481 434 
Q 3481 -459 3084 -895 
Q 2688 -1331 1869 -1331 
Q 1566 -1331 1297 -1286 
Q 1028 -1241 775 -1147 
L 775 -588 
Q 1028 -725 1275 -790 
Q 1522 -856 1778 -856 
Q 2344 -856 2625 -561 
Q 2906 -266 2906 331 
L 2906 616 
Q 2728 306 2450 153 
Q 2172 0 1784 0 
Q 1141 0 747 490 
Q 353 981 353 1791 
Q 353 2603 747 3093 
Q 1141 3584 1784 3584 
Q 2172 3584 2450 3431 
Q 2728 3278 2906 2969 
L 2906 3500 
L 3481 3500 
L 3481 434 
z
" transform="scale(0.015625)"/>
      <path id="DejaVuSans-75" d="M 544 1381 
L 544 3500 
L 1119 3500 
L 1119 1403 
Q 1119 906 1312 657 
Q 1506 409 1894 409 
Q 2359 409 2629 706 
Q 2900 1003 2900 1516 
L 2900 3500 
L 3475 3500 
L 3475 0 
L 2900 0 
L 2900 538 
Q 2691 219 2414 64 
Q 2138 -91 1772 -91 
Q 1169 -91 856 284 
Q 544 659 544 1381 
z
M 1991 3584 
L 1991 3584 
z
" transform="scale(0.015625)"/>
      <path id="DejaVuSans-72" d="M 2631 2963 
Q 2534 3019 2420 3045 
Q 2306 3072 2169 3072 
Q 1681 3072 1420 2755 
Q 1159 2438 1159 1844 
L 1159 0 
L 581 0 
L 581 3500 
L 1159 3500 
L 1159 2956 
Q 1341 3275 1631 3429 
Q 1922 3584 2338 3584 
Q 2397 3584 2469 3576 
Q 2541 3569 2628 3553 
L 2631 2963 
z
" transform="scale(0.015625)"/>
      <path id="DejaVuSans-e8" d="M 3597 1894 
L 3597 1613 
L 953 1613 
Q 991 1019 1311 708 
Q 1631 397 2203 397 
Q 2534 397 2845 478 
Q 3156 559 3463 722 
L 3463 178 
Q 3153 47 2828 -22 
Q 2503 -91 2169 -91 
Q 1331 -91 842 396 
Q 353 884 353 1716 
Q 353 2575 817 3079 
Q 1281 3584 2069 3584 
Q 2775 3584 3186 3129 
Q 3597 2675 3597 1894 
z
M 3022 2063 
Q 3016 2534 2758 2815 
Q 2500 3097 2075 3097 
Q 1594 3097 1305 2825 
Q 1016 2553 972 2059 
L 3022 2063 
z
M 1579 5119 
L 2460 3950 
L 1982 3950 
L 963 5119 
L 1579 5119 
z
" transform="scale(0.015625)"/>
      <path id="DejaVuSans-76" d="M 191 3500 
L 800 3500 
L 1894 563 
L 2988 3500 
L 3597 3500 
L 2284 0 
L 1503 0 
L 191 3500 
z
" transform="scale(0.015625)"/>
      <path id="DejaVuSans-74" d="M 1172 4494 
L 1172 3500 
L 2356 3500 
L 2356 3053 
L 1172 3053 
L 1172 1153 
Q 1172 725 1289 603 
Q 1406 481 1766 481 
L 2356 481 
L 2356 0 
L 1766 0 
Q 1100 0 847 248 
Q 594 497 594 1153 
L 594 3053 
L 172 3053 
L 172 3500 
L 594 3500 
L 594 4494 
L 1172 4494 
z
" transform="scale(0.015625)"/>
      <path id="DejaVuSans-6d" d="M 3328 2828 
Q 3544 3216 3844 3400 
Q 4144 3584 4550 3584 
Q 5097 3584 5394 3201 
Q 5691 2819 5691 2113 
L 5691 0 
L 5113 0 
L 5113 2094 
Q 5113 2597 4934 2840 
Q 4756 3084 4391 3084 
Q 3944 3084 3684 2787 
Q 3425 2491 3425 1978 
L 3425 0 
L 2847 0 
L 2847 2094 
Q 2847 2600 2669 2842 
Q 2491 3084 2119 3084 
Q 1678 3084 1418 2786 
Q 1159 2488 1159 1978 
L 1159 0 
L 581 0 
L 581 3500 
L 1159 3500 
L 1159 2956 
Q 1356 3278 1631 3431 
Q 1906 3584 2284 3584 
Q 2666 3584 2933 3390 
Q 3200 3197 3328 2828 
z
" transform="scale(0.015625)"/>
      <path id="DejaVuSans-6e" d="M 3513 2113 
L 3513 0 
L 2938 0 
L 2938 2094 
Q 2938 2591 2744 2837 
Q 2550 3084 2163 3084 
Q 1697 3084 1428 2787 
Q 1159 2491 1159 1978 
L 1159 0 
L 581 0 
L 581 3500 
L 1159 3500 
L 1159 2956 
Q 1366 3272 1645 3428 
Q 1925 3584 2291 3584 
Q 2894 3584 3203 3211 
Q 3513 2838 3513 2113 
z
" transform="scale(0.015625)"/>
      <path id="DejaVuSans-73" d="M 2834 3397 
L 2834 2853 
Q 2591 2978 2328 3040 
Q 2066 3103 1784 3103 
Q 1356 3103 1142 2972 
Q 928 2841 928 2578 
Q 928 2378 1081 2264 
Q 1234 2150 1697 2047 
L 1894 2003 
Q 2506 1872 2764 1633 
Q 3022 1394 3022 966 
Q 3022 478 2636 193 
Q 2250 -91 1575 -91 
Q 1294 -91 989 -36 
Q 684 19 347 128 
L 347 722 
Q 666 556 975 473 
Q 1284 391 1588 391 
Q 1994 391 2212 530 
Q 2431 669 2431 922 
Q 2431 1156 2273 1281 
Q 2116 1406 1581 1522 
L 1381 1569 
Q 847 1681 609 1914 
Q 372 2147 372 2553 
Q 372 3047 722 3315 
Q 1072 3584 1716 3584 
Q 2034 3584 2315 3537 
Q 2597 3491 2834 3397 
z
" transform="scale(0.015625)"/>
      <path id="DejaVuSans-63" d="M 3122 3366 
L 3122 2828 
Q 2878 2963 2633 3030 
Q 2388 3097 2138 3097 
Q 1578 3097 1268 2742 
Q 959 2388 959 1747 
Q 959 1106 1268 751 
Q 1578 397 2138 397 
Q 2388 397 2633 464 
Q 2878 531 3122 666 
L 3122 134 
Q 2881 22 2623 -34 
Q 2366 -91 2075 -91 
Q 1284 -91 818 406 
Q 353 903 353 1747 
Q 353 2603 823 3093 
Q 1294 3584 2113 3584 
Q 2378 3584 2631 3529 
Q 2884 3475 3122 3366 
z
" transform="scale(0.015625)"/>
      <path id="DejaVuSans-3a" d="M 750 794 
L 1409 794 
L 1409 0 
L 750 0 
L 750 794 
z
M 750 3309 
L 1409 3309 
L 1409 2516 
L 750 2516 
L 750 3309 
z
" transform="scale(0.015625)"/>
      <path id="DejaVuSans-7a" d="M 353 3500 
L 3084 3500 
L 3084 2975 
L 922 459 
L 3084 459 
L 3084 0 
L 275 0 
L 275 525 
L 2438 3041 
L 353 3041 
L 353 3500 
z
" transform="scale(0.015625)"/>
      <path id="DejaVuSans-68" d="M 3513 2113 
L 3513 0 
L 2938 0 
L 2938 2094 
Q 2938 2591 2744 2837 
Q 2550 3084 2163 3084 
Q 1697 3084 1428 2787 
Q 1159 2491 1159 1978 
L 1159 0 
L 581 0 
L 581 4863 
L 1159 4863 
L 1159 2956 
Q 1366 3272 1645 3428 
Q 1925 3584 2291 3584 
Q 2894 3584 3203 3211 
Q 3513 2838 3513 2113 
z
" transform="scale(0.015625)"/>
      <path id="DejaVuSans-70" d="M 1159 525 
L 1159 -1331 
L 581 -1331 
L 581 3500 
L 1159 3500 
L 1159 2969 
Q 1341 3281 1617 3432 
Q 1894 3584 2278 3584 
Q 2916 3584 3314 3078 
Q 3713 2572 3713 1747 
Q 3713 922 3314 415 
Q 2916 -91 2278 -91 
Q 1894 -91 1617 61 
Q 1341 213 1159 525 
z
M 3116 1747 
Q 3116 2381 2855 2742 
Q 2594 3103 2138 3103 
Q 1681 3103 1420 2742 
Q 1159 2381 1159 1747 
Q 1159 1113 1420 752 
Q 1681 391 2138 391 
Q 2594 391 2855 752 
Q 3116 1113 3116 1747 
z
" transform="scale(0.015625)"/>
      <path id="DejaVuSans-f9" d="M 544 1381 
L 544 3500 
L 1119 3500 
L 1119 1403 
Q 1119 906 1312 657 
Q 1506 409 1894 409 
Q 2359 409 2629 706 
Q 2900 1003 2900 1516 
L 2900 3500 
L 3475 3500 
L 3475 0 
L 2900 0 
L 2900 538 
Q 2691 219 2414 64 
Q 2138 -91 1772 -91 
Q 1169 -91 856 284 
Q 544 659 544 1381 
z
M 1991 3584 
L 1991 3584 
z
M 1531 5119 
L 2412 3950 
L 1934 3950 
L 915 5119 
L 1531 5119 
z
" transform="scale(0.015625)"/>
     </defs>
     <use xlink:href="#DejaVuSans-4c"/>
     <use xlink:href="#DejaVuSans-61" transform="translate(55.712891 0)"/>
     <use xlink:href="#DejaVuSans-20" transform="translate(116.992188 0)"/>
     <use xlink:href="#DejaVuSans-66" transform="translate(148.779297 0)"/>
     <use xlink:href="#DejaVuSans-69" transform="translate(183.984375 0)"/>
     <use xlink:href="#DejaVuSans-67" transform="translate(211.767578 0)"/>
     <use xlink:href="#DejaVuSans-75" transform="translate(275.244141 0)"/>
     <use xlink:href="#DejaVuSans-72" transform="translate(338.623047 0)"/>
     <use xlink:href="#DejaVuSans-61" transform="translate(379.736328 0)"/>
     <use xlink:href="#DejaVuSans-20" transform="translate(441.015625 0)"/>
     <use xlink:href="#DejaVuSans-e8" transform="translate(472.802734 0)"/>
     <use xlink:href="#DejaVuSans-20" transform="translate(534.326172 0)"/>
     <use xlink:href="#DejaVuSans-76" transform="translate(566.113281 0)"/>
     <use xlink:href="#DejaVuSans-6f" transform="translate(625.292969 0)"/>
     <use xlink:href="#DejaVuSans-6c" transform="translate(686.474609 0)"/>
     <use xlink:href="#DejaVuSans-75" transform="translate(714.257812 0)"/>
     <use xlink:href="#DejaVuSans-74" transform="translate(777.636719 0)"/>
     <use xlink:href="#DejaVuSans-61" transform="translate(816.845703 0)"/>
     <use xlink:href="#DejaVuSans-6d" transform="translate(878.125 0)"/>
     <use xlink:href="#DejaVuSans-65" transform="translate(975.537109 0)"/>
     <use xlink:href="#DejaVuSans-6e" transform="translate(1037.060547 0)"/>
     <use xlink:href="#DejaVuSans-74" transform="translate(1100.439453 0)"/>
     <use xlink:href="#DejaVuSans-65" transform="translate(1139.648438 0)"/>
     <use xlink:href="#DejaVuSans-20" transform="translate(1201.171875 0)"/>
     <use xlink:href="#DejaVuSans-66" transform="translate(1232.958984 0)"/>
     <use xlink:href="#DejaVuSans-75" transform="translate(1268.164062 0)"/>
     <use xlink:href="#DejaVuSans-6f" transform="translate(1331.542969 0)"/>
     <use xlink:href="#DejaVuSans-72" transform="translate(1392.724609 0)"/>
     <use xlink:href="#DejaVuSans-69" transform="translate(1433.837891 0)"/>
     <use xlink:href="#DejaVuSans-20" transform="translate(1461.621094 0)"/>
     <use xlink:href="#DejaVuSans-73" transform="translate(1493.408203 0)"/>
     <use xlink:href="#DejaVuSans-63" transform="translate(1545.507812 0)"/>
     <use xlink:href="#DejaVuSans-61" transform="translate(1600.488281 0)"/>
     <use xlink:href="#DejaVuSans-6c" transform="translate(1661.767578 0)"/>
     <use xlink:href="#DejaVuSans-61" transform="translate(1689.550781 0)"/>
     <use xlink:href="#DejaVuSans-3a" transform="translate(1750.830078 0)"/>
     <use xlink:href="#DejaVuSans-20" transform="translate(1784.521484 0)"/>
     <use xlink:href="#DejaVuSans-6c" transform="translate(1816.308594 0)"/>
     <use xlink:href="#DejaVuSans-65" transform="translate(1844.091797 0)"/>
     <use xlink:href="#DejaVuSans-20" transform="translate(1905.615234 0)"/>
     <use xlink:href="#DejaVuSans-63" transform="translate(1937.402344 0)"/>
     <use xlink:href="#DejaVuSans-6f" transform="translate(1992.382812 0)"/>
     <use xlink:href="#DejaVuSans-72" transform="translate(2053.564453 0)"/>
     <use xlink:href="#DejaVuSans-72" transform="translate(2092.927734 0)"/>
     <use xlink:href="#DejaVuSans-65" transform="translate(2131.791016 0)"/>
     <use xlink:href="#DejaVuSans-7a" transform="translate(2193.314453 0)"/>
     <use xlink:href="#DejaVuSans-69" transform="translate(2245.804688 0)"/>
     <use xlink:href="#DejaVuSans-6f" transform="translate(2273.587891 0)"/>
     <use xlink:href="#DejaVuSans-6e" transform="translate(2334.769531 0)"/>
     <use xlink:href="#DejaVuSans-69" transform="translate(2398.148438 0)"/>
     <use xlink:href="#DejaVuSans-20" transform="translate(2425.931641 0)"/>
     <use xlink:href="#DejaVuSans-72" transform="translate(2457.71875 0)"/>
     <use xlink:href="#DejaVuSans-65" transform="translate(2496.582031 0)"/>
     <use xlink:href="#DejaVuSans-6c" transform="translate(2558.105469 0)"/>
     <use xlink:href="#DejaVuSans-61" transform="translate(2585.888672 0)"/>
     <use xlink:href="#DejaVuSans-74" transform="translate(2647.167969 0)"/>
     <use xlink:href="#DejaVuSans-69" transform="translate(2686.376953 0)"/>
     <use xlink:href="#DejaVuSans-76" transform="translate(2714.160156 0)"/>
     <use xlink:href="#DejaVuSans-69" transform="translate(2773.339844 0)"/>
     <use xlink:href="#DejaVuSans-73" transform="translate(2801.123047 0)"/>
     <use xlink:href="#DejaVuSans-74" transform="translate(2853.222656 0)"/>
     <use xlink:href="#DejaVuSans-69" transform="translate(2892.431641 0)"/>
     <use xlink:href="#DejaVuSans-63" transform="translate(2920.214844 0)"/>
     <use xlink:href="#DejaVuSans-68" transform="translate(2975.195312 0)"/>
     <use xlink:href="#DejaVuSans-65" transform="translate(3038.574219 0)"/>
     <use xlink:href="#DejaVuSans-20" transform="translate(3100.097656 0)"/>
     <use xlink:href="#DejaVuSans-73" transform="translate(3131.884766 0)"/>
     <use xlink:href="#DejaVuSans-6f" transform="translate(3183.984375 0)"/>
     <use xlink:href="#DejaVuSans-6e" transform="translate(3245.166016 0)"/>
     <use xlink:href="#DejaVuSans-6f" transform="translate(3308.544922 0)"/>
     <use xlink:href="#DejaVuSans-20" transform="translate(3369.726562 0)"/>
     <use xlink:href="#DejaVuSans-6d" transform="translate(3401.513672 0)"/>
     <use xlink:href="#DejaVuSans-6f" transform="translate(3498.925781 0)"/>
     <use xlink:href="#DejaVuSans-6c" transform="translate(3560.107422 0)"/>
     <use xlink:href="#DejaVuSans-74" transform="translate(3587.890625 0)"/>
     <use xlink:href="#DejaVuSans-6f" transform="translate(3627.099609 0)"/>
     <use xlink:href="#DejaVuSans-20" transform="translate(3688.28125 0)"/>
     <use xlink:href="#DejaVuSans-70" transform="translate(3720.068359 0)"/>
     <use xlink:href="#DejaVuSans-69" transform="translate(3783.544922 0)"/>
     <use xlink:href="#DejaVuSans-f9" transform="translate(3811.328125 0)"/>
     <use xlink:href="#DejaVuSans-20" transform="translate(3874.707031 0)"/>
     <use xlink:href="#DejaVuSans-70" transform="translate(3906.494141 0)"/>
     <use xlink:href="#DejaVuSans-69" transform="translate(3969.970703 0)"/>
     <use xlink:href="#DejaVuSans-63" transform="translate(3997.753906 0)"/>
     <use xlink:href="#DejaVuSans-63" transform="translate(4052.734375 0)"/>
     <use xlink:href="#DejaVuSans-6f" transform="translate(4107.714844 0)"/>
     <use xlink:href="#DejaVuSans-6c" transform="translate(4168.896484 0)"/>
     <use xlink:href="#DejaVuSans-65" transform="translate(4196.679688 0)"/>
     <use xlink:href="#DejaVuSans-20" transform="translate(4258.203125 0)"/>
     <use xlink:href="#DejaVuSans-64" transform="translate(4289.990234 0)"/>
     <use xlink:href="#DejaVuSans-65" transform="translate(4353.466797 0)"/>
     <use xlink:href="#DejaVuSans-6c" transform="translate(4414.990234 0)"/>
     <use xlink:href="#DejaVuSans-6c" transform="translate(4442.773438 0)"/>
     <use xlink:href="#DejaVuSans-61" transform="translate(4470.556641 0)"/>
     <use xlink:href="#DejaVuSans-20" transform="translate(4531.835938 0)"/>
     <use xlink:href="#DejaVuSans-73" transform="translate(4563.623047 0)"/>
     <use xlink:href="#DejaVuSans-65" transform="translate(4615.722656 0)"/>
     <use xlink:href="#DejaVuSans-70" transform="translate(4677.246094 0)"/>
     <use xlink:href="#DejaVuSans-61" transform="translate(4740.722656 0)"/>
     <use xlink:href="#DejaVuSans-72" transform="translate(4802.001953 0)"/>
     <use xlink:href="#DejaVuSans-61" transform="translate(4843.115234 0)"/>
     <use xlink:href="#DejaVuSans-7a" transform="translate(4904.394531 0)"/>
     <use xlink:href="#DejaVuSans-69" transform="translate(4956.884766 0)"/>
     <use xlink:href="#DejaVuSans-6f" transform="translate(4984.667969 0)"/>
     <use xlink:href="#DejaVuSans-6e" transform="translate(5045.849609 0)"/>
     <use xlink:href="#DejaVuSans-65" transform="translate(5109.228516 0)"/>
     <use xlink:href="#DejaVuSans-20" transform="translate(5170.751953 0)"/>
     <use xlink:href="#DejaVuSans-74" transform="translate(5202.539062 0)"/>
     <use xlink:href="#DejaVuSans-72" transform="translate(5241.748047 0)"/>
     <use xlink:href="#DejaVuSans-61" transform="translate(5282.861328 0)"/>
     <use xlink:href="#DejaVuSans-20" transform="translate(5344.140625 0)"/>
     <use xlink:href="#DejaVuSans-6c" transform="translate(5375.927734 0)"/>
     <use xlink:href="#DejaVuSans-69" transform="translate(5403.710938 0)"/>
     <use xlink:href="#DejaVuSans-76" transform="translate(5431.494141 0)"/>
     <use xlink:href="#DejaVuSans-65" transform="translate(5490.673828 0)"/>
     <use xlink:href="#DejaVuSans-6c" transform="translate(5552.197266 0)"/>
     <use xlink:href="#DejaVuSans-6c" transform="translate(5579.980469 0)"/>
     <use xlink:href="#DejaVuSans-69" transform="translate(5607.763672 0)"/>
     <use xlink:href="#DejaVuSans-20" transform="translate(5635.546875 0)"/>
     <use xlink:href="#DejaVuSans-70" transform="translate(5667.333984 0)"/>
     <use xlink:href="#DejaVuSans-72" transform="translate(5730.810547 0)"/>
     <use xlink:href="#DejaVuSans-69" transform="translate(5771.923828 0)"/>
     <use xlink:href="#DejaVuSans-6e" transform="translate(5799.707031 0)"/>
     <use xlink:href="#DejaVuSans-63" transform="translate(5863.085938 0)"/>
     <use xlink:href="#DejaVuSans-69" transform="translate(5918.066406 0)"/>
     <use xlink:href="#DejaVuSans-70" transform="translate(5945.849609 0)"/>
     <use xlink:href="#DejaVuSans-61" transform="translate(6009.326172 0)"/>
     <use xlink:href="#DejaVuSans-6c" transform="translate(6070.605469 0)"/>
     <use xlink:href="#DejaVuSans-69" transform="translate(6098.388672 0)"/>
     <use xlink:href="#DejaVuSans-2e" transform="translate(6126.171875 0)"/>
    </g>
   </g>
   <g id="text_24">
    <!-- Struttura fine dell'idrogeno per i primi tre numeri quantici principali -->
    <g transform="translate(63.662344 18.597656) scale(0.15 -0.15)">
     <defs>
      <path id="DejaVuSans-Bold-53" d="M 3834 4519 
L 3834 3531 
Q 3450 3703 3084 3790 
Q 2719 3878 2394 3878 
Q 1963 3878 1756 3759 
Q 1550 3641 1550 3391 
Q 1550 3203 1689 3098 
Q 1828 2994 2194 2919 
L 2706 2816 
Q 3484 2659 3812 2340 
Q 4141 2022 4141 1434 
Q 4141 663 3683 286 
Q 3225 -91 2284 -91 
Q 1841 -91 1394 -6 
Q 947 78 500 244 
L 500 1259 
Q 947 1022 1364 901 
Q 1781 781 2169 781 
Q 2563 781 2772 912 
Q 2981 1044 2981 1288 
Q 2981 1506 2839 1625 
Q 2697 1744 2272 1838 
L 1806 1941 
Q 1106 2091 782 2419 
Q 459 2747 459 3303 
Q 459 4000 909 4375 
Q 1359 4750 2203 4750 
Q 2588 4750 2994 4692 
Q 3400 4634 3834 4519 
z
" transform="scale(0.015625)"/>
      <path id="DejaVuSans-Bold-27" d="M 1350 4666 
L 1350 2931 
L 609 2931 
L 609 4666 
L 1350 4666 
z
" transform="scale(0.015625)"/>
      <path id="DejaVuSans-Bold-70" d="M 1656 506 
L 1656 -1331 
L 538 -1331 
L 538 3500 
L 1656 3500 
L 1656 2988 
Q 1888 3294 2169 3439 
Q 2450 3584 2816 3584 
Q 3463 3584 3878 3070 
Q 4294 2556 4294 1747 
Q 4294 938 3878 423 
Q 3463 -91 2816 -91 
Q 2450 -91 2169 54 
Q 1888 200 1656 506 
z
M 2400 2772 
Q 2041 2772 1848 2508 
Q 1656 2244 1656 1747 
Q 1656 1250 1848 986 
Q 2041 722 2400 722 
Q 2759 722 2948 984 
Q 3138 1247 3138 1747 
Q 3138 2247 2948 2509 
Q 2759 2772 2400 2772 
z
" transform="scale(0.015625)"/>
      <path id="DejaVuSans-Bold-6d" d="M 3781 2919 
Q 3994 3244 4286 3414 
Q 4578 3584 4928 3584 
Q 5531 3584 5847 3212 
Q 6163 2841 6163 2131 
L 6163 0 
L 5038 0 
L 5038 1825 
Q 5041 1866 5042 1909 
Q 5044 1953 5044 2034 
Q 5044 2406 4934 2573 
Q 4825 2741 4581 2741 
Q 4263 2741 4089 2478 
Q 3916 2216 3909 1719 
L 3909 0 
L 2784 0 
L 2784 1825 
Q 2784 2406 2684 2573 
Q 2584 2741 2328 2741 
Q 2006 2741 1831 2477 
Q 1656 2213 1656 1722 
L 1656 0 
L 531 0 
L 531 3500 
L 1656 3500 
L 1656 2988 
Q 1863 3284 2130 3434 
Q 2397 3584 2719 3584 
Q 3081 3584 3359 3409 
Q 3638 3234 3781 2919 
z
" transform="scale(0.015625)"/>
      <path id="DejaVuSans-Bold-71" d="M 2181 2772 
Q 1825 2772 1636 2509 
Q 1447 2247 1447 1747 
Q 1447 1247 1636 984 
Q 1825 722 2181 722 
Q 2541 722 2730 984 
Q 2919 1247 2919 1747 
Q 2919 2247 2730 2509 
Q 2541 2772 2181 2772 
z
M 2919 506 
Q 2688 197 2409 53 
Q 2131 -91 1766 -91 
Q 1119 -91 703 423 
Q 288 938 288 1747 
Q 288 2556 703 3067 
Q 1119 3578 1766 3578 
Q 2131 3578 2409 3434 
Q 2688 3291 2919 2981 
L 2919 3500 
L 4044 3500 
L 4044 -1331 
L 2919 -1331 
L 2919 506 
z
" transform="scale(0.015625)"/>
     </defs>
     <use xlink:href="#DejaVuSans-Bold-53"/>
     <use xlink:href="#DejaVuSans-Bold-74" transform="translate(72.021484 0)"/>
     <use xlink:href="#DejaVuSans-Bold-72" transform="translate(119.824219 0)"/>
     <use xlink:href="#DejaVuSans-Bold-75" transform="translate(169.140625 0)"/>
     <use xlink:href="#DejaVuSans-Bold-74" transform="translate(240.332031 0)"/>
     <use xlink:href="#DejaVuSans-Bold-74" transform="translate(288.134766 0)"/>
     <use xlink:href="#DejaVuSans-Bold-75" transform="translate(335.9375 0)"/>
     <use xlink:href="#DejaVuSans-Bold-72" transform="translate(407.128906 0)"/>
     <use xlink:href="#DejaVuSans-Bold-61" transform="translate(456.445312 0)"/>
     <use xlink:href="#DejaVuSans-Bold-20" transform="translate(523.925781 0)"/>
     <use xlink:href="#DejaVuSans-Bold-66" transform="translate(558.740234 0)"/>
     <use xlink:href="#DejaVuSans-Bold-69" transform="translate(602.246094 0)"/>
     <use xlink:href="#DejaVuSans-Bold-6e" transform="translate(636.523438 0)"/>
     <use xlink:href="#DejaVuSans-Bold-65" transform="translate(707.714844 0)"/>
     <use xlink:href="#DejaVuSans-Bold-20" transform="translate(775.537109 0)"/>
     <use xlink:href="#DejaVuSans-Bold-64" transform="translate(810.351562 0)"/>
     <use xlink:href="#DejaVuSans-Bold-65" transform="translate(881.933594 0)"/>
     <use xlink:href="#DejaVuSans-Bold-6c" transform="translate(949.755859 0)"/>
     <use xlink:href="#DejaVuSans-Bold-6c" transform="translate(984.033203 0)"/>
     <use xlink:href="#DejaVuSans-Bold-27" transform="translate(1018.310547 0)"/>
     <use xlink:href="#DejaVuSans-Bold-69" transform="translate(1048.925781 0)"/>
     <use xlink:href="#DejaVuSans-Bold-64" transform="translate(1083.203125 0)"/>
     <use xlink:href="#DejaVuSans-Bold-72" transform="translate(1154.785156 0)"/>
     <use xlink:href="#DejaVuSans-Bold-6f" transform="translate(1204.101562 0)"/>
     <use xlink:href="#DejaVuSans-Bold-67" transform="translate(1272.802734 0)"/>
     <use xlink:href="#DejaVuSans-Bold-65" transform="translate(1344.384766 0)"/>
     <use xlink:href="#DejaVuSans-Bold-6e" transform="translate(1412.207031 0)"/>
     <use xlink:href="#DejaVuSans-Bold-6f" transform="translate(1483.398438 0)"/>
     <use xlink:href="#DejaVuSans-Bold-20" transform="translate(1552.099609 0)"/>
     <use xlink:href="#DejaVuSans-Bold-70" transform="translate(1586.914062 0)"/>
     <use xlink:href="#DejaVuSans-Bold-65" transform="translate(1658.496094 0)"/>
     <use xlink:href="#DejaVuSans-Bold-72" transform="translate(1726.318359 0)"/>
     <use xlink:href="#DejaVuSans-Bold-20" transform="translate(1775.634766 0)"/>
     <use xlink:href="#DejaVuSans-Bold-69" transform="translate(1810.449219 0)"/>
     <use xlink:href="#DejaVuSans-Bold-20" transform="translate(1844.726562 0)"/>
     <use xlink:href="#DejaVuSans-Bold-70" transform="translate(1879.541016 0)"/>
     <use xlink:href="#DejaVuSans-Bold-72" transform="translate(1951.123047 0)"/>
     <use xlink:href="#DejaVuSans-Bold-69" transform="translate(2000.439453 0)"/>
     <use xlink:href="#DejaVuSans-Bold-6d" transform="translate(2034.716797 0)"/>
     <use xlink:href="#DejaVuSans-Bold-69" transform="translate(2138.916016 0)"/>
     <use xlink:href="#DejaVuSans-Bold-20" transform="translate(2173.193359 0)"/>
     <use xlink:href="#DejaVuSans-Bold-74" transform="translate(2208.007812 0)"/>
     <use xlink:href="#DejaVuSans-Bold-72" transform="translate(2255.810547 0)"/>
     <use xlink:href="#DejaVuSans-Bold-65" transform="translate(2305.126953 0)"/>
     <use xlink:href="#DejaVuSans-Bold-20" transform="translate(2372.949219 0)"/>
     <use xlink:href="#DejaVuSans-Bold-6e" transform="translate(2407.763672 0)"/>
     <use xlink:href="#DejaVuSans-Bold-75" transform="translate(2478.955078 0)"/>
     <use xlink:href="#DejaVuSans-Bold-6d" transform="translate(2550.146484 0)"/>
     <use xlink:href="#DejaVuSans-Bold-65" transform="translate(2654.345703 0)"/>
     <use xlink:href="#DejaVuSans-Bold-72" transform="translate(2722.167969 0)"/>
     <use xlink:href="#DejaVuSans-Bold-69" transform="translate(2771.484375 0)"/>
     <use xlink:href="#DejaVuSans-Bold-20" transform="translate(2805.761719 0)"/>
     <use xlink:href="#DejaVuSans-Bold-71" transform="translate(2840.576172 0)"/>
     <use xlink:href="#DejaVuSans-Bold-75" transform="translate(2912.158203 0)"/>
     <use xlink:href="#DejaVuSans-Bold-61" transform="translate(2983.349609 0)"/>
     <use xlink:href="#DejaVuSans-Bold-6e" transform="translate(3050.830078 0)"/>
     <use xlink:href="#DejaVuSans-Bold-74" transform="translate(3122.021484 0)"/>
     <use xlink:href="#DejaVuSans-Bold-69" transform="translate(3169.824219 0)"/>
     <use xlink:href="#DejaVuSans-Bold-63" transform="translate(3204.101562 0)"/>
     <use xlink:href="#DejaVuSans-Bold-69" transform="translate(3263.378906 0)"/>
     <use xlink:href="#DejaVuSans-Bold-20" transform="translate(3297.65625 0)"/>
     <use xlink:href="#DejaVuSans-Bold-70" transform="translate(3332.470703 0)"/>
     <use xlink:href="#DejaVuSans-Bold-72" transform="translate(3404.052734 0)"/>
     <use xlink:href="#DejaVuSans-Bold-69" transform="translate(3453.369141 0)"/>
     <use xlink:href="#DejaVuSans-Bold-6e" transform="translate(3487.646484 0)"/>
     <use xlink:href="#DejaVuSans-Bold-63" transform="translate(3558.837891 0)"/>
     <use xlink:href="#DejaVuSans-Bold-69" transform="translate(3618.115234 0)"/>
     <use xlink:href="#DejaVuSans-Bold-70" transform="translate(3652.392578 0)"/>
     <use xlink:href="#DejaVuSans-Bold-61" transform="translate(3723.974609 0)"/>
     <use xlink:href="#DejaVuSans-Bold-6c" transform="translate(3791.455078 0)"/>
     <use xlink:href="#DejaVuSans-Bold-69" transform="translate(3825.732422 0)"/>
    </g>
   </g>
  </g>
 </g>
 <defs>
  <clipPath id="p1560c07dc2">
   <rect x="7.2" y="30.597656" width="691.92" height="454.608"/>
  </clipPath>
 </defs>
</svg>
