<?xml version="1.0" encoding="utf-8" standalone="no"?>
<!DOCTYPE svg PUBLIC "-//W3C//DTD SVG 1.1//EN"
  "http://www.w3.org/Graphics/SVG/1.1/DTD/svg11.dtd">
<svg xmlns:xlink="http://www.w3.org/1999/xlink" width="467.7525pt" height="341.496pt" viewBox="0 0 467.7525 341.496" xmlns="http://www.w3.org/2000/svg" version="1.1">
 <metadata>
  <rdf:RDF xmlns:dc="http://purl.org/dc/elements/1.1/" xmlns:cc="http://creativecommons.org/ns#" xmlns:rdf="http://www.w3.org/1999/02/22-rdf-syntax-ns#">
   <cc:Work>
    <dc:type rdf:resource="http://purl.org/dc/dcmitype/StillImage"/>
    <dc:date>2026-06-16T07:57:49.025546</dc:date>
    <dc:format>image/svg+xml</dc:format>
    <dc:creator>
     <cc:Agent>
      <dc:title>Matplotlib v3.10.8, https://matplotlib.org/</dc:title>
     </cc:Agent>
    </dc:creator>
   </cc:Work>
  </rdf:RDF>
 </metadata>
 <defs>
  <style type="text/css">*{stroke-linejoin: round; stroke-linecap: butt}</style>
 </defs>
 <g id="figure_1">
  <g id="patch_1">
   <path d="M 0 341.496 
L 467.7525 341.496 
L 467.7525 -0 
L 0 -0 
z
" style="fill: #ffffff"/>
  </g>
  <g id="axes_1">
   <g id="patch_2">
    <path d="M 45.064738 334.296 
L 422.687762 334.296 
L 422.687762 7.2 
L 45.064738 7.2 
z
" style="fill: #ffffff"/>
   </g>
   <g id="patch_3">
    <path d="M 61.02064 227.923317 
L 374.820055 227.923317 
L 406.73186 121.550634 
L 92.932445 121.550634 
z
" clip-path="url(#p6de0f2bbfe)" style="fill: #ebebeb; stroke: #a6a6a6; stroke-linejoin: miter"/>
   </g>
   <g id="matplotlib.axis_1"/>
   <g id="matplotlib.axis_2"/>
   <g id="line2d_1">
    <path d="M 348.226884 174.736976 
L 348.099304 172.928556 
L 347.716847 171.124171 
L 347.080367 169.327848 
L 346.191285 167.543595 
L 345.051584 165.775393 
L 343.663807 164.027188 
L 342.031051 162.30288 
L 340.15696 160.606318 
L 338.045715 158.941287 
L 334.870033 156.776704 
L 331.293775 154.683358 
L 327.331125 152.669552 
L 322.997802 150.743272 
L 318.310991 148.91216 
L 313.289284 147.183477 
L 307.952597 145.564082 
L 302.322098 144.060396 
L 296.420119 142.678384 
L 288.696634 141.130275 
L 280.633469 139.790403 
L 272.280583 138.667069 
L 263.689734 137.767233 
L 254.914154 137.096471 
L 246.008216 136.65894 
L 237.027107 136.45735 
L 228.026473 136.49295 
L 219.062086 136.765521 
L 210.189492 137.273372 
L 201.463667 138.013357 
L 192.938679 138.980892 
L 184.66735 140.169981 
L 176.700933 141.573255 
L 169.088789 143.182021 
L 163.285927 144.610329 
L 157.763051 146.15813 
L 152.542066 147.819285 
L 147.643681 149.587205 
L 143.087323 151.454877 
L 138.891066 153.414894 
L 135.071552 155.459481 
L 131.643932 157.58053 
L 128.6218 159.769627 
L 126.628576 161.450893 
L 124.874663 163.161805 
L 123.363976 164.898546 
L 122.099884 166.65724 
L 121.085209 168.433963 
L 120.322216 170.224751 
L 119.812605 172.025607 
L 119.557515 173.832513 
L 119.557515 175.641438 
L 119.812605 177.448344 
L 120.322216 179.2492 
L 121.085209 181.039988 
L 122.099884 182.816711 
L 123.363976 184.575406 
L 124.874663 186.312146 
L 126.628576 188.023058 
L 128.6218 189.704324 
L 130.849889 191.352191 
L 134.177349 193.491052 
L 137.90025 195.555528 
L 142.003825 197.53743 
L 146.471797 199.428897 
L 151.286445 201.222428 
L 156.428673 202.910909 
L 161.878084 204.487642 
L 167.613065 205.946374 
L 173.610869 207.281318 
L 181.441384 208.767905 
L 189.596799 210.043628 
L 198.026582 211.100581 
L 206.678498 211.932216 
L 215.498938 212.53338 
L 224.433249 212.900347 
L 233.426072 213.030845 
L 242.421684 212.924063 
L 251.364346 212.580665 
L 260.198647 212.002777 
L 268.869848 211.19398 
L 277.324219 210.159287 
L 285.509376 208.905107 
L 293.3746 207.439213 
L 300.871157 205.770688 
L 306.571664 204.29688 
L 311.983835 202.705827 
L 317.086205 201.00384 
L 321.858536 199.19767 
L 326.281898 197.29448 
L 330.338748 195.301819 
L 334.012995 193.227591 
L 337.290065 191.080023 
L 340.15696 188.867633 
L 342.031051 187.171071 
L 343.663807 185.446764 
L 345.051584 183.698558 
L 346.191285 181.930356 
L 347.080367 180.146103 
L 347.716847 178.34978 
L 348.099304 176.545396 
L 348.226884 174.736976 
L 348.226884 174.736976 
" clip-path="url(#p6de0f2bbfe)" style="fill: none; stroke-dasharray: 6.29,2.72; stroke-dashoffset: 0; stroke: #1f77b4; stroke-width: 1.7"/>
   </g>
   <g id="text_1">
    <!-- $+e$ -->
    <g transform="translate(203.862709 161.44039) scale(0.14 -0.14)">
     <defs>
      <path id="DejaVuSans-2b" d="M 2944 4013 
L 2944 2272 
L 4684 2272 
L 4684 1741 
L 2944 1741 
L 2944 0 
L 2419 0 
L 2419 1741 
L 678 1741 
L 678 2272 
L 2419 2272 
L 2419 4013 
L 2944 4013 
z
" transform="scale(0.015625)"/>
      <path id="DejaVuSans-Oblique-65" d="M 3078 2063 
Q 3088 2113 3092 2166 
Q 3097 2219 3097 2272 
Q 3097 2653 2873 2875 
Q 2650 3097 2266 3097 
Q 1838 3097 1509 2826 
Q 1181 2556 1013 2059 
L 3078 2063 
z
M 3578 1613 
L 903 1613 
Q 884 1494 878 1425 
Q 872 1356 872 1306 
Q 872 872 1139 634 
Q 1406 397 1894 397 
Q 2269 397 2603 481 
Q 2938 566 3225 728 
L 3116 159 
Q 2806 34 2476 -28 
Q 2147 -91 1806 -91 
Q 1078 -91 686 257 
Q 294 606 294 1247 
Q 294 1794 489 2264 
Q 684 2734 1063 3103 
Q 1306 3334 1642 3459 
Q 1978 3584 2356 3584 
Q 2950 3584 3301 3228 
Q 3653 2872 3653 2272 
Q 3653 2128 3634 1964 
Q 3616 1800 3578 1613 
z
" transform="scale(0.015625)"/>
     </defs>
     <use xlink:href="#DejaVuSans-2b" transform="translate(0 0.296875)"/>
     <use xlink:href="#DejaVuSans-Oblique-65" transform="translate(83.789062 0.296875)"/>
    </g>
   </g>
   <g id="text_2">
    <!-- $-e$ -->
    <g transform="translate(350.15591 191.702146) scale(0.14 -0.14)">
     <defs>
      <path id="DejaVuSans-2212" d="M 678 2272 
L 4684 2272 
L 4684 1741 
L 678 1741 
L 678 2272 
z
" transform="scale(0.015625)"/>
     </defs>
     <use xlink:href="#DejaVuSans-2212"/>
     <use xlink:href="#DejaVuSans-Oblique-65" transform="translate(83.789062 0)"/>
    </g>
   </g>
   <g id="patch_4">
    <path d="M 235.865053 174.928492 
Q 288.823136 180.02821 339.778025 184.935027 
" style="fill: none; stroke: #000000; stroke-width: 1.8; stroke-linecap: round"/>
    <path d="M 335.988151 182.56082 
L 339.778025 184.935027 
L 335.604736 186.542402 
z
" style="fill: #1f77b4; stroke: #000000; stroke-width: 1.8; stroke-linecap: round"/>
   </g>
   <g id="text_3">
    <!-- $\mathbf{r}$ -->
    <g transform="translate(284.403274 178.991883) scale(0.15 -0.15)">
     <defs>
      <path id="DejaVuSans-Bold-72" d="M 3138 2547 
Q 2991 2616 2845 2648 
Q 2700 2681 2553 2681 
Q 2122 2681 1889 2404 
Q 1656 2128 1656 1613 
L 1656 0 
L 538 0 
L 538 3500 
L 1656 3500 
L 1656 2925 
Q 1872 3269 2151 3426 
Q 2431 3584 2822 3584 
Q 2878 3584 2943 3579 
Q 3009 3575 3134 3559 
L 3138 2547 
z
" transform="scale(0.015625)"/>
     </defs>
     <use xlink:href="#DejaVuSans-Bold-72"/>
    </g>
   </g>
   <g id="patch_5">
    <path d="M 345.077951 183.800688 
Q 357.632283 169.180001 368.87558 156.086137 
" style="fill: none; stroke: #ff7f0e; stroke-width: 1.8; stroke-linecap: round"/>
    <path d="M 364.752377 157.817957 
L 368.87558 156.086137 
L 367.787114 160.423791 
z
" style="fill: #ff7f0e; stroke: #ff7f0e; stroke-width: 1.8; stroke-linecap: round"/>
   </g>
   <g id="text_4">
    <!-- $\mathbf{v}$ -->
    <g style="fill: #ff7f0e" transform="translate(375.650356 148.196282) scale(0.15 -0.15)">
     <defs>
      <path id="DejaVuSans-Bold-76" d="M 97 3500 
L 1216 3500 
L 2088 1081 
L 2956 3500 
L 4078 3500 
L 2700 0 
L 1472 0 
L 97 3500 
z
" transform="scale(0.015625)"/>
     </defs>
     <use xlink:href="#DejaVuSans-Bold-76" transform="translate(0 0.3125)"/>
    </g>
   </g>
   <g id="patch_6">
    <path d="M 146.181699 150.490704 
Q 136.280049 158.780457 127.835744 165.850108 
" style="fill: none; stroke: #2ca02c; stroke-width: 1.7; stroke-linecap: round"/>
    <path d="M 132.186648 164.815877 
L 127.835744 165.850108 
L 129.618901 161.748846 
z
" style="fill: #2ca02c; stroke: #2ca02c; stroke-width: 1.7; stroke-linecap: round"/>
   </g>
   <g id="text_5">
    <!-- equivalent -->
    <g style="fill: #2ca02c" transform="translate(79.63586 135.322375) scale(0.105 -0.105)">
     <defs>
      <path id="DejaVuSans-65" d="M 3597 1894 
L 3597 1613 
L 953 1613 
Q 991 1019 1311 708 
Q 1631 397 2203 397 
Q 2534 397 2845 478 
Q 3156 559 3463 722 
L 3463 178 
Q 3153 47 2828 -22 
Q 2503 -91 2169 -91 
Q 1331 -91 842 396 
Q 353 884 353 1716 
Q 353 2575 817 3079 
Q 1281 3584 2069 3584 
Q 2775 3584 3186 3129 
Q 3597 2675 3597 1894 
z
M 3022 2063 
Q 3016 2534 2758 2815 
Q 2500 3097 2075 3097 
Q 1594 3097 1305 2825 
Q 1016 2553 972 2059 
L 3022 2063 
z
" transform="scale(0.015625)"/>
      <path id="DejaVuSans-71" d="M 947 1747 
Q 947 1113 1208 752 
Q 1469 391 1925 391 
Q 2381 391 2643 752 
Q 2906 1113 2906 1747 
Q 2906 2381 2643 2742 
Q 2381 3103 1925 3103 
Q 1469 3103 1208 2742 
Q 947 2381 947 1747 
z
M 2906 525 
Q 2725 213 2448 61 
Q 2172 -91 1784 -91 
Q 1150 -91 751 415 
Q 353 922 353 1747 
Q 353 2572 751 3078 
Q 1150 3584 1784 3584 
Q 2172 3584 2448 3432 
Q 2725 3281 2906 2969 
L 2906 3500 
L 3481 3500 
L 3481 -1331 
L 2906 -1331 
L 2906 525 
z
" transform="scale(0.015625)"/>
      <path id="DejaVuSans-75" d="M 544 1381 
L 544 3500 
L 1119 3500 
L 1119 1403 
Q 1119 906 1312 657 
Q 1506 409 1894 409 
Q 2359 409 2629 706 
Q 2900 1003 2900 1516 
L 2900 3500 
L 3475 3500 
L 3475 0 
L 2900 0 
L 2900 538 
Q 2691 219 2414 64 
Q 2138 -91 1772 -91 
Q 1169 -91 856 284 
Q 544 659 544 1381 
z
M 1991 3584 
L 1991 3584 
z
" transform="scale(0.015625)"/>
      <path id="DejaVuSans-69" d="M 603 3500 
L 1178 3500 
L 1178 0 
L 603 0 
L 603 3500 
z
M 603 4863 
L 1178 4863 
L 1178 4134 
L 603 4134 
L 603 4863 
z
" transform="scale(0.015625)"/>
      <path id="DejaVuSans-76" d="M 191 3500 
L 800 3500 
L 1894 563 
L 2988 3500 
L 3597 3500 
L 2284 0 
L 1503 0 
L 191 3500 
z
" transform="scale(0.015625)"/>
      <path id="DejaVuSans-61" d="M 2194 1759 
Q 1497 1759 1228 1600 
Q 959 1441 959 1056 
Q 959 750 1161 570 
Q 1363 391 1709 391 
Q 2188 391 2477 730 
Q 2766 1069 2766 1631 
L 2766 1759 
L 2194 1759 
z
M 3341 1997 
L 3341 0 
L 2766 0 
L 2766 531 
Q 2569 213 2275 61 
Q 1981 -91 1556 -91 
Q 1019 -91 701 211 
Q 384 513 384 1019 
Q 384 1609 779 1909 
Q 1175 2209 1959 2209 
L 2766 2209 
L 2766 2266 
Q 2766 2663 2505 2880 
Q 2244 3097 1772 3097 
Q 1472 3097 1187 3025 
Q 903 2953 641 2809 
L 641 3341 
Q 956 3463 1253 3523 
Q 1550 3584 1831 3584 
Q 2591 3584 2966 3190 
Q 3341 2797 3341 1997 
z
" transform="scale(0.015625)"/>
      <path id="DejaVuSans-6c" d="M 603 4863 
L 1178 4863 
L 1178 0 
L 603 0 
L 603 4863 
z
" transform="scale(0.015625)"/>
      <path id="DejaVuSans-6e" d="M 3513 2113 
L 3513 0 
L 2938 0 
L 2938 2094 
Q 2938 2591 2744 2837 
Q 2550 3084 2163 3084 
Q 1697 3084 1428 2787 
Q 1159 2491 1159 1978 
L 1159 0 
L 581 0 
L 581 3500 
L 1159 3500 
L 1159 2956 
Q 1366 3272 1645 3428 
Q 1925 3584 2291 3584 
Q 2894 3584 3203 3211 
Q 3513 2838 3513 2113 
z
" transform="scale(0.015625)"/>
      <path id="DejaVuSans-74" d="M 1172 4494 
L 1172 3500 
L 2356 3500 
L 2356 3053 
L 1172 3053 
L 1172 1153 
Q 1172 725 1289 603 
Q 1406 481 1766 481 
L 2356 481 
L 2356 0 
L 1766 0 
Q 1100 0 847 248 
Q 594 497 594 1153 
L 594 3053 
L 172 3053 
L 172 3500 
L 594 3500 
L 594 4494 
L 1172 4494 
z
" transform="scale(0.015625)"/>
     </defs>
     <use xlink:href="#DejaVuSans-65"/>
     <use xlink:href="#DejaVuSans-71" transform="translate(61.523438 0)"/>
     <use xlink:href="#DejaVuSans-75" transform="translate(125 0)"/>
     <use xlink:href="#DejaVuSans-69" transform="translate(188.378906 0)"/>
     <use xlink:href="#DejaVuSans-76" transform="translate(216.162109 0)"/>
     <use xlink:href="#DejaVuSans-61" transform="translate(275.341797 0)"/>
     <use xlink:href="#DejaVuSans-6c" transform="translate(336.621094 0)"/>
     <use xlink:href="#DejaVuSans-65" transform="translate(364.404297 0)"/>
     <use xlink:href="#DejaVuSans-6e" transform="translate(425.927734 0)"/>
     <use xlink:href="#DejaVuSans-74" transform="translate(489.306641 0)"/>
    </g>
    <!-- conventional current -->
    <g style="fill: #2ca02c" transform="translate(79.63586 147.080078) scale(0.105 -0.105)">
     <defs>
      <path id="DejaVuSans-63" d="M 3122 3366 
L 3122 2828 
Q 2878 2963 2633 3030 
Q 2388 3097 2138 3097 
Q 1578 3097 1268 2742 
Q 959 2388 959 1747 
Q 959 1106 1268 751 
Q 1578 397 2138 397 
Q 2388 397 2633 464 
Q 2878 531 3122 666 
L 3122 134 
Q 2881 22 2623 -34 
Q 2366 -91 2075 -91 
Q 1284 -91 818 406 
Q 353 903 353 1747 
Q 353 2603 823 3093 
Q 1294 3584 2113 3584 
Q 2378 3584 2631 3529 
Q 2884 3475 3122 3366 
z
" transform="scale(0.015625)"/>
      <path id="DejaVuSans-6f" d="M 1959 3097 
Q 1497 3097 1228 2736 
Q 959 2375 959 1747 
Q 959 1119 1226 758 
Q 1494 397 1959 397 
Q 2419 397 2687 759 
Q 2956 1122 2956 1747 
Q 2956 2369 2687 2733 
Q 2419 3097 1959 3097 
z
M 1959 3584 
Q 2709 3584 3137 3096 
Q 3566 2609 3566 1747 
Q 3566 888 3137 398 
Q 2709 -91 1959 -91 
Q 1206 -91 779 398 
Q 353 888 353 1747 
Q 353 2609 779 3096 
Q 1206 3584 1959 3584 
z
" transform="scale(0.015625)"/>
      <path id="DejaVuSans-20" transform="scale(0.015625)"/>
      <path id="DejaVuSans-72" d="M 2631 2963 
Q 2534 3019 2420 3045 
Q 2306 3072 2169 3072 
Q 1681 3072 1420 2755 
Q 1159 2438 1159 1844 
L 1159 0 
L 581 0 
L 581 3500 
L 1159 3500 
L 1159 2956 
Q 1341 3275 1631 3429 
Q 1922 3584 2338 3584 
Q 2397 3584 2469 3576 
Q 2541 3569 2628 3553 
L 2631 2963 
z
" transform="scale(0.015625)"/>
     </defs>
     <use xlink:href="#DejaVuSans-63"/>
     <use xlink:href="#DejaVuSans-6f" transform="translate(54.980469 0)"/>
     <use xlink:href="#DejaVuSans-6e" transform="translate(116.162109 0)"/>
     <use xlink:href="#DejaVuSans-76" transform="translate(179.541016 0)"/>
     <use xlink:href="#DejaVuSans-65" transform="translate(238.720703 0)"/>
     <use xlink:href="#DejaVuSans-6e" transform="translate(300.244141 0)"/>
     <use xlink:href="#DejaVuSans-74" transform="translate(363.623047 0)"/>
     <use xlink:href="#DejaVuSans-69" transform="translate(402.832031 0)"/>
     <use xlink:href="#DejaVuSans-6f" transform="translate(430.615234 0)"/>
     <use xlink:href="#DejaVuSans-6e" transform="translate(491.796875 0)"/>
     <use xlink:href="#DejaVuSans-61" transform="translate(555.175781 0)"/>
     <use xlink:href="#DejaVuSans-6c" transform="translate(616.455078 0)"/>
     <use xlink:href="#DejaVuSans-20" transform="translate(644.238281 0)"/>
     <use xlink:href="#DejaVuSans-63" transform="translate(676.025391 0)"/>
     <use xlink:href="#DejaVuSans-75" transform="translate(731.005859 0)"/>
     <use xlink:href="#DejaVuSans-72" transform="translate(794.384766 0)"/>
     <use xlink:href="#DejaVuSans-72" transform="translate(833.748047 0)"/>
     <use xlink:href="#DejaVuSans-65" transform="translate(872.611328 0)"/>
     <use xlink:href="#DejaVuSans-6e" transform="translate(934.134766 0)"/>
     <use xlink:href="#DejaVuSans-74" transform="translate(997.513672 0)"/>
    </g>
   </g>
   <g id="patch_7">
    <path d="M 233.87625 172.736726 
Q 233.87625 109.584017 233.87625 49.114591 
" style="fill: none; stroke: #d62728; stroke-width: 2.4; stroke-linecap: round"/>
    <path d="M 231.87625 53.114591 
L 233.87625 49.114591 
L 235.87625 53.114591 
z
" style="fill: #d62728; stroke: #d62728; stroke-width: 2.4; stroke-linecap: round"/>
   </g>
   <g id="text_6">
    <!-- $\mathbf{L}$ -->
    <g style="fill: #d62728" transform="translate(241.322338 58.790751) scale(0.18 -0.18)">
     <defs>
      <path id="DejaVuSans-Bold-4c" d="M 588 4666 
L 1791 4666 
L 1791 909 
L 3903 909 
L 3903 0 
L 588 0 
L 588 4666 
z
" transform="scale(0.015625)"/>
     </defs>
     <use xlink:href="#DejaVuSans-Bold-4c" transform="translate(0 0.09375)"/>
    </g>
   </g>
   <g id="patch_8">
    <path d="M 233.87625 176.739498 
Q 233.87625 237.231956 233.87625 295.041132 
" style="fill: none; stroke: #9467bd; stroke-width: 2.4; stroke-linecap: round"/>
    <path d="M 235.87625 291.041132 
L 233.87625 295.041132 
L 231.87625 291.041132 
z
" style="fill: #9467bd; stroke: #9467bd; stroke-width: 2.4; stroke-linecap: round"/>
   </g>
   <g id="text_7">
    <!-- $\mathbf{M}_L$ -->
    <g style="fill: #9467bd" transform="translate(241.854201 285.364566) scale(0.18 -0.18)">
     <defs>
      <path id="DejaVuSans-Bold-4d" d="M 588 4666 
L 2119 4666 
L 3181 2169 
L 4250 4666 
L 5778 4666 
L 5778 0 
L 4641 0 
L 4641 3413 
L 3566 897 
L 2803 897 
L 1728 3413 
L 1728 0 
L 588 0 
L 588 4666 
z
" transform="scale(0.015625)"/>
      <path id="DejaVuSans-Oblique-4c" d="M 1075 4666 
L 1709 4666 
L 909 525 
L 3181 525 
L 3078 0 
L 172 0 
L 1075 4666 
z
" transform="scale(0.015625)"/>
     </defs>
     <use xlink:href="#DejaVuSans-Bold-4d" transform="translate(0 0.09375)"/>
     <use xlink:href="#DejaVuSans-Oblique-4c" transform="translate(100.46875 -16.3125) scale(0.7)"/>
    </g>
   </g>
   <g id="text_8">
    <!-- Orbital angular momentum and magnetic moment -->
    <g transform="translate(7.2 20.496585) scale(0.16 -0.16)">
     <defs>
      <path id="DejaVuSans-Bold-4f" d="M 2719 3878 
Q 2169 3878 1866 3472 
Q 1563 3066 1563 2328 
Q 1563 1594 1866 1187 
Q 2169 781 2719 781 
Q 3272 781 3575 1187 
Q 3878 1594 3878 2328 
Q 3878 3066 3575 3472 
Q 3272 3878 2719 3878 
z
M 2719 4750 
Q 3844 4750 4481 4106 
Q 5119 3463 5119 2328 
Q 5119 1197 4481 553 
Q 3844 -91 2719 -91 
Q 1597 -91 958 553 
Q 319 1197 319 2328 
Q 319 3463 958 4106 
Q 1597 4750 2719 4750 
z
" transform="scale(0.015625)"/>
      <path id="DejaVuSans-Bold-62" d="M 2400 722 
Q 2759 722 2948 984 
Q 3138 1247 3138 1747 
Q 3138 2247 2948 2509 
Q 2759 2772 2400 2772 
Q 2041 2772 1848 2508 
Q 1656 2244 1656 1747 
Q 1656 1250 1848 986 
Q 2041 722 2400 722 
z
M 1656 2988 
Q 1888 3294 2169 3439 
Q 2450 3584 2816 3584 
Q 3463 3584 3878 3070 
Q 4294 2556 4294 1747 
Q 4294 938 3878 423 
Q 3463 -91 2816 -91 
Q 2450 -91 2169 54 
Q 1888 200 1656 506 
L 1656 0 
L 538 0 
L 538 4863 
L 1656 4863 
L 1656 2988 
z
" transform="scale(0.015625)"/>
      <path id="DejaVuSans-Bold-69" d="M 538 3500 
L 1656 3500 
L 1656 0 
L 538 0 
L 538 3500 
z
M 538 4863 
L 1656 4863 
L 1656 3950 
L 538 3950 
L 538 4863 
z
" transform="scale(0.015625)"/>
      <path id="DejaVuSans-Bold-74" d="M 1759 4494 
L 1759 3500 
L 2913 3500 
L 2913 2700 
L 1759 2700 
L 1759 1216 
Q 1759 972 1856 886 
Q 1953 800 2241 800 
L 2816 800 
L 2816 0 
L 1856 0 
Q 1194 0 917 276 
Q 641 553 641 1216 
L 641 2700 
L 84 2700 
L 84 3500 
L 641 3500 
L 641 4494 
L 1759 4494 
z
" transform="scale(0.015625)"/>
      <path id="DejaVuSans-Bold-61" d="M 2106 1575 
Q 1756 1575 1579 1456 
Q 1403 1338 1403 1106 
Q 1403 894 1545 773 
Q 1688 653 1941 653 
Q 2256 653 2472 879 
Q 2688 1106 2688 1447 
L 2688 1575 
L 2106 1575 
z
M 3816 1997 
L 3816 0 
L 2688 0 
L 2688 519 
Q 2463 200 2181 54 
Q 1900 -91 1497 -91 
Q 953 -91 614 226 
Q 275 544 275 1050 
Q 275 1666 698 1953 
Q 1122 2241 2028 2241 
L 2688 2241 
L 2688 2328 
Q 2688 2594 2478 2717 
Q 2269 2841 1825 2841 
Q 1466 2841 1156 2769 
Q 847 2697 581 2553 
L 581 3406 
Q 941 3494 1303 3539 
Q 1666 3584 2028 3584 
Q 2975 3584 3395 3211 
Q 3816 2838 3816 1997 
z
" transform="scale(0.015625)"/>
      <path id="DejaVuSans-Bold-6c" d="M 538 4863 
L 1656 4863 
L 1656 0 
L 538 0 
L 538 4863 
z
" transform="scale(0.015625)"/>
      <path id="DejaVuSans-Bold-20" transform="scale(0.015625)"/>
      <path id="DejaVuSans-Bold-6e" d="M 4056 2131 
L 4056 0 
L 2931 0 
L 2931 347 
L 2931 1631 
Q 2931 2084 2911 2256 
Q 2891 2428 2841 2509 
Q 2775 2619 2662 2680 
Q 2550 2741 2406 2741 
Q 2056 2741 1856 2470 
Q 1656 2200 1656 1722 
L 1656 0 
L 538 0 
L 538 3500 
L 1656 3500 
L 1656 2988 
Q 1909 3294 2193 3439 
Q 2478 3584 2822 3584 
Q 3428 3584 3742 3212 
Q 4056 2841 4056 2131 
z
" transform="scale(0.015625)"/>
      <path id="DejaVuSans-Bold-67" d="M 2919 594 
Q 2688 288 2409 144 
Q 2131 0 1766 0 
Q 1125 0 706 504 
Q 288 1009 288 1791 
Q 288 2575 706 3076 
Q 1125 3578 1766 3578 
Q 2131 3578 2409 3434 
Q 2688 3291 2919 2981 
L 2919 3500 
L 4044 3500 
L 4044 353 
Q 4044 -491 3511 -936 
Q 2978 -1381 1966 -1381 
Q 1638 -1381 1331 -1331 
Q 1025 -1281 716 -1178 
L 716 -306 
Q 1009 -475 1290 -558 
Q 1572 -641 1856 -641 
Q 2406 -641 2662 -400 
Q 2919 -159 2919 353 
L 2919 594 
z
M 2181 2772 
Q 1834 2772 1640 2515 
Q 1447 2259 1447 1791 
Q 1447 1309 1634 1061 
Q 1822 813 2181 813 
Q 2531 813 2725 1069 
Q 2919 1325 2919 1791 
Q 2919 2259 2725 2515 
Q 2531 2772 2181 2772 
z
" transform="scale(0.015625)"/>
      <path id="DejaVuSans-Bold-75" d="M 500 1363 
L 500 3500 
L 1625 3500 
L 1625 3150 
Q 1625 2866 1622 2436 
Q 1619 2006 1619 1863 
Q 1619 1441 1641 1255 
Q 1663 1069 1716 984 
Q 1784 875 1895 815 
Q 2006 756 2150 756 
Q 2500 756 2700 1025 
Q 2900 1294 2900 1772 
L 2900 3500 
L 4019 3500 
L 4019 0 
L 2900 0 
L 2900 506 
Q 2647 200 2364 54 
Q 2081 -91 1741 -91 
Q 1134 -91 817 281 
Q 500 653 500 1363 
z
" transform="scale(0.015625)"/>
      <path id="DejaVuSans-Bold-6d" d="M 3781 2919 
Q 3994 3244 4286 3414 
Q 4578 3584 4928 3584 
Q 5531 3584 5847 3212 
Q 6163 2841 6163 2131 
L 6163 0 
L 5038 0 
L 5038 1825 
Q 5041 1866 5042 1909 
Q 5044 1953 5044 2034 
Q 5044 2406 4934 2573 
Q 4825 2741 4581 2741 
Q 4263 2741 4089 2478 
Q 3916 2216 3909 1719 
L 3909 0 
L 2784 0 
L 2784 1825 
Q 2784 2406 2684 2573 
Q 2584 2741 2328 2741 
Q 2006 2741 1831 2477 
Q 1656 2213 1656 1722 
L 1656 0 
L 531 0 
L 531 3500 
L 1656 3500 
L 1656 2988 
Q 1863 3284 2130 3434 
Q 2397 3584 2719 3584 
Q 3081 3584 3359 3409 
Q 3638 3234 3781 2919 
z
" transform="scale(0.015625)"/>
      <path id="DejaVuSans-Bold-6f" d="M 2203 2784 
Q 1831 2784 1636 2517 
Q 1441 2250 1441 1747 
Q 1441 1244 1636 976 
Q 1831 709 2203 709 
Q 2569 709 2762 976 
Q 2956 1244 2956 1747 
Q 2956 2250 2762 2517 
Q 2569 2784 2203 2784 
z
M 2203 3584 
Q 3106 3584 3614 3096 
Q 4122 2609 4122 1747 
Q 4122 884 3614 396 
Q 3106 -91 2203 -91 
Q 1297 -91 786 396 
Q 275 884 275 1747 
Q 275 2609 786 3096 
Q 1297 3584 2203 3584 
z
" transform="scale(0.015625)"/>
      <path id="DejaVuSans-Bold-65" d="M 4031 1759 
L 4031 1441 
L 1416 1441 
Q 1456 1047 1700 850 
Q 1944 653 2381 653 
Q 2734 653 3104 758 
Q 3475 863 3866 1075 
L 3866 213 
Q 3469 63 3072 -14 
Q 2675 -91 2278 -91 
Q 1328 -91 801 392 
Q 275 875 275 1747 
Q 275 2603 792 3093 
Q 1309 3584 2216 3584 
Q 3041 3584 3536 3087 
Q 4031 2591 4031 1759 
z
M 2881 2131 
Q 2881 2450 2695 2645 
Q 2509 2841 2209 2841 
Q 1884 2841 1681 2658 
Q 1478 2475 1428 2131 
L 2881 2131 
z
" transform="scale(0.015625)"/>
      <path id="DejaVuSans-Bold-64" d="M 2919 2988 
L 2919 4863 
L 4044 4863 
L 4044 0 
L 2919 0 
L 2919 506 
Q 2688 197 2409 53 
Q 2131 -91 1766 -91 
Q 1119 -91 703 423 
Q 288 938 288 1747 
Q 288 2556 703 3070 
Q 1119 3584 1766 3584 
Q 2128 3584 2408 3439 
Q 2688 3294 2919 2988 
z
M 2181 722 
Q 2541 722 2730 984 
Q 2919 1247 2919 1747 
Q 2919 2247 2730 2509 
Q 2541 2772 2181 2772 
Q 1825 2772 1636 2509 
Q 1447 2247 1447 1747 
Q 1447 1247 1636 984 
Q 1825 722 2181 722 
z
" transform="scale(0.015625)"/>
      <path id="DejaVuSans-Bold-63" d="M 3366 3391 
L 3366 2478 
Q 3138 2634 2908 2709 
Q 2678 2784 2431 2784 
Q 1963 2784 1702 2511 
Q 1441 2238 1441 1747 
Q 1441 1256 1702 982 
Q 1963 709 2431 709 
Q 2694 709 2930 787 
Q 3166 866 3366 1019 
L 3366 103 
Q 3103 6 2833 -42 
Q 2563 -91 2291 -91 
Q 1344 -91 809 395 
Q 275 881 275 1747 
Q 275 2613 809 3098 
Q 1344 3584 2291 3584 
Q 2566 3584 2833 3536 
Q 3100 3488 3366 3391 
z
" transform="scale(0.015625)"/>
     </defs>
     <use xlink:href="#DejaVuSans-Bold-4f"/>
     <use xlink:href="#DejaVuSans-Bold-72" transform="translate(85.009766 0)"/>
     <use xlink:href="#DejaVuSans-Bold-62" transform="translate(134.326172 0)"/>
     <use xlink:href="#DejaVuSans-Bold-69" transform="translate(205.908203 0)"/>
     <use xlink:href="#DejaVuSans-Bold-74" transform="translate(240.185547 0)"/>
     <use xlink:href="#DejaVuSans-Bold-61" transform="translate(287.988281 0)"/>
     <use xlink:href="#DejaVuSans-Bold-6c" transform="translate(355.46875 0)"/>
     <use xlink:href="#DejaVuSans-Bold-20" transform="translate(389.746094 0)"/>
     <use xlink:href="#DejaVuSans-Bold-61" transform="translate(424.560547 0)"/>
     <use xlink:href="#DejaVuSans-Bold-6e" transform="translate(492.041016 0)"/>
     <use xlink:href="#DejaVuSans-Bold-67" transform="translate(563.232422 0)"/>
     <use xlink:href="#DejaVuSans-Bold-75" transform="translate(634.814453 0)"/>
     <use xlink:href="#DejaVuSans-Bold-6c" transform="translate(706.005859 0)"/>
     <use xlink:href="#DejaVuSans-Bold-61" transform="translate(740.283203 0)"/>
     <use xlink:href="#DejaVuSans-Bold-72" transform="translate(807.763672 0)"/>
     <use xlink:href="#DejaVuSans-Bold-20" transform="translate(857.080078 0)"/>
     <use xlink:href="#DejaVuSans-Bold-6d" transform="translate(891.894531 0)"/>
     <use xlink:href="#DejaVuSans-Bold-6f" transform="translate(996.09375 0)"/>
     <use xlink:href="#DejaVuSans-Bold-6d" transform="translate(1064.794922 0)"/>
     <use xlink:href="#DejaVuSans-Bold-65" transform="translate(1168.994141 0)"/>
     <use xlink:href="#DejaVuSans-Bold-6e" transform="translate(1236.816406 0)"/>
     <use xlink:href="#DejaVuSans-Bold-74" transform="translate(1308.007812 0)"/>
     <use xlink:href="#DejaVuSans-Bold-75" transform="translate(1355.810547 0)"/>
     <use xlink:href="#DejaVuSans-Bold-6d" transform="translate(1427.001953 0)"/>
     <use xlink:href="#DejaVuSans-Bold-20" transform="translate(1531.201172 0)"/>
     <use xlink:href="#DejaVuSans-Bold-61" transform="translate(1566.015625 0)"/>
     <use xlink:href="#DejaVuSans-Bold-6e" transform="translate(1633.496094 0)"/>
     <use xlink:href="#DejaVuSans-Bold-64" transform="translate(1704.6875 0)"/>
     <use xlink:href="#DejaVuSans-Bold-20" transform="translate(1776.269531 0)"/>
     <use xlink:href="#DejaVuSans-Bold-6d" transform="translate(1811.083984 0)"/>
     <use xlink:href="#DejaVuSans-Bold-61" transform="translate(1915.283203 0)"/>
     <use xlink:href="#DejaVuSans-Bold-67" transform="translate(1982.763672 0)"/>
     <use xlink:href="#DejaVuSans-Bold-6e" transform="translate(2054.345703 0)"/>
     <use xlink:href="#DejaVuSans-Bold-65" transform="translate(2125.537109 0)"/>
     <use xlink:href="#DejaVuSans-Bold-74" transform="translate(2193.359375 0)"/>
     <use xlink:href="#DejaVuSans-Bold-69" transform="translate(2241.162109 0)"/>
     <use xlink:href="#DejaVuSans-Bold-63" transform="translate(2275.439453 0)"/>
     <use xlink:href="#DejaVuSans-Bold-20" transform="translate(2334.716797 0)"/>
     <use xlink:href="#DejaVuSans-Bold-6d" transform="translate(2369.53125 0)"/>
     <use xlink:href="#DejaVuSans-Bold-6f" transform="translate(2473.730469 0)"/>
     <use xlink:href="#DejaVuSans-Bold-6d" transform="translate(2542.431641 0)"/>
     <use xlink:href="#DejaVuSans-Bold-65" transform="translate(2646.630859 0)"/>
     <use xlink:href="#DejaVuSans-Bold-6e" transform="translate(2714.453125 0)"/>
     <use xlink:href="#DejaVuSans-Bold-74" transform="translate(2785.644531 0)"/>
    </g>
   </g>
   <g id="text_9">
    <!-- Because the electron charge is negative, the orbital magnetic moment is antiparallel to $\mathbf{L}$. -->
    <g transform="translate(7.82625 325.254322) scale(0.1 -0.1)">
     <defs>
      <path id="DejaVuSans-42" d="M 1259 2228 
L 1259 519 
L 2272 519 
Q 2781 519 3026 730 
Q 3272 941 3272 1375 
Q 3272 1813 3026 2020 
Q 2781 2228 2272 2228 
L 1259 2228 
z
M 1259 4147 
L 1259 2741 
L 2194 2741 
Q 2656 2741 2882 2914 
Q 3109 3088 3109 3444 
Q 3109 3797 2882 3972 
Q 2656 4147 2194 4147 
L 1259 4147 
z
M 628 4666 
L 2241 4666 
Q 2963 4666 3353 4366 
Q 3744 4066 3744 3513 
Q 3744 3084 3544 2831 
Q 3344 2578 2956 2516 
Q 3422 2416 3680 2098 
Q 3938 1781 3938 1306 
Q 3938 681 3513 340 
Q 3088 0 2303 0 
L 628 0 
L 628 4666 
z
" transform="scale(0.015625)"/>
      <path id="DejaVuSans-73" d="M 2834 3397 
L 2834 2853 
Q 2591 2978 2328 3040 
Q 2066 3103 1784 3103 
Q 1356 3103 1142 2972 
Q 928 2841 928 2578 
Q 928 2378 1081 2264 
Q 1234 2150 1697 2047 
L 1894 2003 
Q 2506 1872 2764 1633 
Q 3022 1394 3022 966 
Q 3022 478 2636 193 
Q 2250 -91 1575 -91 
Q 1294 -91 989 -36 
Q 684 19 347 128 
L 347 722 
Q 666 556 975 473 
Q 1284 391 1588 391 
Q 1994 391 2212 530 
Q 2431 669 2431 922 
Q 2431 1156 2273 1281 
Q 2116 1406 1581 1522 
L 1381 1569 
Q 847 1681 609 1914 
Q 372 2147 372 2553 
Q 372 3047 722 3315 
Q 1072 3584 1716 3584 
Q 2034 3584 2315 3537 
Q 2597 3491 2834 3397 
z
" transform="scale(0.015625)"/>
      <path id="DejaVuSans-68" d="M 3513 2113 
L 3513 0 
L 2938 0 
L 2938 2094 
Q 2938 2591 2744 2837 
Q 2550 3084 2163 3084 
Q 1697 3084 1428 2787 
Q 1159 2491 1159 1978 
L 1159 0 
L 581 0 
L 581 4863 
L 1159 4863 
L 1159 2956 
Q 1366 3272 1645 3428 
Q 1925 3584 2291 3584 
Q 2894 3584 3203 3211 
Q 3513 2838 3513 2113 
z
" transform="scale(0.015625)"/>
      <path id="DejaVuSans-67" d="M 2906 1791 
Q 2906 2416 2648 2759 
Q 2391 3103 1925 3103 
Q 1463 3103 1205 2759 
Q 947 2416 947 1791 
Q 947 1169 1205 825 
Q 1463 481 1925 481 
Q 2391 481 2648 825 
Q 2906 1169 2906 1791 
z
M 3481 434 
Q 3481 -459 3084 -895 
Q 2688 -1331 1869 -1331 
Q 1566 -1331 1297 -1286 
Q 1028 -1241 775 -1147 
L 775 -588 
Q 1028 -725 1275 -790 
Q 1522 -856 1778 -856 
Q 2344 -856 2625 -561 
Q 2906 -266 2906 331 
L 2906 616 
Q 2728 306 2450 153 
Q 2172 0 1784 0 
Q 1141 0 747 490 
Q 353 981 353 1791 
Q 353 2603 747 3093 
Q 1141 3584 1784 3584 
Q 2172 3584 2450 3431 
Q 2728 3278 2906 2969 
L 2906 3500 
L 3481 3500 
L 3481 434 
z
" transform="scale(0.015625)"/>
      <path id="DejaVuSans-2c" d="M 750 794 
L 1409 794 
L 1409 256 
L 897 -744 
L 494 -744 
L 750 256 
L 750 794 
z
" transform="scale(0.015625)"/>
      <path id="DejaVuSans-62" d="M 3116 1747 
Q 3116 2381 2855 2742 
Q 2594 3103 2138 3103 
Q 1681 3103 1420 2742 
Q 1159 2381 1159 1747 
Q 1159 1113 1420 752 
Q 1681 391 2138 391 
Q 2594 391 2855 752 
Q 3116 1113 3116 1747 
z
M 1159 2969 
Q 1341 3281 1617 3432 
Q 1894 3584 2278 3584 
Q 2916 3584 3314 3078 
Q 3713 2572 3713 1747 
Q 3713 922 3314 415 
Q 2916 -91 2278 -91 
Q 1894 -91 1617 61 
Q 1341 213 1159 525 
L 1159 0 
L 581 0 
L 581 4863 
L 1159 4863 
L 1159 2969 
z
" transform="scale(0.015625)"/>
      <path id="DejaVuSans-6d" d="M 3328 2828 
Q 3544 3216 3844 3400 
Q 4144 3584 4550 3584 
Q 5097 3584 5394 3201 
Q 5691 2819 5691 2113 
L 5691 0 
L 5113 0 
L 5113 2094 
Q 5113 2597 4934 2840 
Q 4756 3084 4391 3084 
Q 3944 3084 3684 2787 
Q 3425 2491 3425 1978 
L 3425 0 
L 2847 0 
L 2847 2094 
Q 2847 2600 2669 2842 
Q 2491 3084 2119 3084 
Q 1678 3084 1418 2786 
Q 1159 2488 1159 1978 
L 1159 0 
L 581 0 
L 581 3500 
L 1159 3500 
L 1159 2956 
Q 1356 3278 1631 3431 
Q 1906 3584 2284 3584 
Q 2666 3584 2933 3390 
Q 3200 3197 3328 2828 
z
" transform="scale(0.015625)"/>
      <path id="DejaVuSans-70" d="M 1159 525 
L 1159 -1331 
L 581 -1331 
L 581 3500 
L 1159 3500 
L 1159 2969 
Q 1341 3281 1617 3432 
Q 1894 3584 2278 3584 
Q 2916 3584 3314 3078 
Q 3713 2572 3713 1747 
Q 3713 922 3314 415 
Q 2916 -91 2278 -91 
Q 1894 -91 1617 61 
Q 1341 213 1159 525 
z
M 3116 1747 
Q 3116 2381 2855 2742 
Q 2594 3103 2138 3103 
Q 1681 3103 1420 2742 
Q 1159 2381 1159 1747 
Q 1159 1113 1420 752 
Q 1681 391 2138 391 
Q 2594 391 2855 752 
Q 3116 1113 3116 1747 
z
" transform="scale(0.015625)"/>
      <path id="DejaVuSans-2e" d="M 684 794 
L 1344 794 
L 1344 0 
L 684 0 
L 684 794 
z
" transform="scale(0.015625)"/>
     </defs>
     <use xlink:href="#DejaVuSans-42" transform="translate(0 0.015625)"/>
     <use xlink:href="#DejaVuSans-65" transform="translate(68.603516 0.015625)"/>
     <use xlink:href="#DejaVuSans-63" transform="translate(130.126953 0.015625)"/>
     <use xlink:href="#DejaVuSans-61" transform="translate(185.107422 0.015625)"/>
     <use xlink:href="#DejaVuSans-75" transform="translate(246.386719 0.015625)"/>
     <use xlink:href="#DejaVuSans-73" transform="translate(309.765625 0.015625)"/>
     <use xlink:href="#DejaVuSans-65" transform="translate(361.865234 0.015625)"/>
     <use xlink:href="#DejaVuSans-20" transform="translate(423.388672 0.015625)"/>
     <use xlink:href="#DejaVuSans-74" transform="translate(455.175781 0.015625)"/>
     <use xlink:href="#DejaVuSans-68" transform="translate(494.384766 0.015625)"/>
     <use xlink:href="#DejaVuSans-65" transform="translate(557.763672 0.015625)"/>
     <use xlink:href="#DejaVuSans-20" transform="translate(619.287109 0.015625)"/>
     <use xlink:href="#DejaVuSans-65" transform="translate(651.074219 0.015625)"/>
     <use xlink:href="#DejaVuSans-6c" transform="translate(712.597656 0.015625)"/>
     <use xlink:href="#DejaVuSans-65" transform="translate(740.380859 0.015625)"/>
     <use xlink:href="#DejaVuSans-63" transform="translate(801.904297 0.015625)"/>
     <use xlink:href="#DejaVuSans-74" transform="translate(856.884766 0.015625)"/>
     <use xlink:href="#DejaVuSans-72" transform="translate(896.09375 0.015625)"/>
     <use xlink:href="#DejaVuSans-6f" transform="translate(937.207031 0.015625)"/>
     <use xlink:href="#DejaVuSans-6e" transform="translate(998.388672 0.015625)"/>
     <use xlink:href="#DejaVuSans-20" transform="translate(1061.767578 0.015625)"/>
     <use xlink:href="#DejaVuSans-63" transform="translate(1093.554688 0.015625)"/>
     <use xlink:href="#DejaVuSans-68" transform="translate(1148.535156 0.015625)"/>
     <use xlink:href="#DejaVuSans-61" transform="translate(1211.914062 0.015625)"/>
     <use xlink:href="#DejaVuSans-72" transform="translate(1273.193359 0.015625)"/>
     <use xlink:href="#DejaVuSans-67" transform="translate(1314.306641 0.015625)"/>
     <use xlink:href="#DejaVuSans-65" transform="translate(1377.783203 0.015625)"/>
     <use xlink:href="#DejaVuSans-20" transform="translate(1439.306641 0.015625)"/>
     <use xlink:href="#DejaVuSans-69" transform="translate(1471.09375 0.015625)"/>
     <use xlink:href="#DejaVuSans-73" transform="translate(1498.876953 0.015625)"/>
     <use xlink:href="#DejaVuSans-20" transform="translate(1550.976562 0.015625)"/>
     <use xlink:href="#DejaVuSans-6e" transform="translate(1582.763672 0.015625)"/>
     <use xlink:href="#DejaVuSans-65" transform="translate(1646.142578 0.015625)"/>
     <use xlink:href="#DejaVuSans-67" transform="translate(1707.666016 0.015625)"/>
     <use xlink:href="#DejaVuSans-61" transform="translate(1771.142578 0.015625)"/>
     <use xlink:href="#DejaVuSans-74" transform="translate(1832.421875 0.015625)"/>
     <use xlink:href="#DejaVuSans-69" transform="translate(1871.630859 0.015625)"/>
     <use xlink:href="#DejaVuSans-76" transform="translate(1899.414062 0.015625)"/>
     <use xlink:href="#DejaVuSans-65" transform="translate(1958.59375 0.015625)"/>
     <use xlink:href="#DejaVuSans-2c" transform="translate(2020.117188 0.015625)"/>
     <use xlink:href="#DejaVuSans-20" transform="translate(2051.904297 0.015625)"/>
     <use xlink:href="#DejaVuSans-74" transform="translate(2083.691406 0.015625)"/>
     <use xlink:href="#DejaVuSans-68" transform="translate(2122.900391 0.015625)"/>
     <use xlink:href="#DejaVuSans-65" transform="translate(2186.279297 0.015625)"/>
     <use xlink:href="#DejaVuSans-20" transform="translate(2247.802734 0.015625)"/>
     <use xlink:href="#DejaVuSans-6f" transform="translate(2279.589844 0.015625)"/>
     <use xlink:href="#DejaVuSans-72" transform="translate(2340.771484 0.015625)"/>
     <use xlink:href="#DejaVuSans-62" transform="translate(2381.884766 0.015625)"/>
     <use xlink:href="#DejaVuSans-69" transform="translate(2445.361328 0.015625)"/>
     <use xlink:href="#DejaVuSans-74" transform="translate(2473.144531 0.015625)"/>
     <use xlink:href="#DejaVuSans-61" transform="translate(2512.353516 0.015625)"/>
     <use xlink:href="#DejaVuSans-6c" transform="translate(2573.632812 0.015625)"/>
     <use xlink:href="#DejaVuSans-20" transform="translate(2601.416016 0.015625)"/>
     <use xlink:href="#DejaVuSans-6d" transform="translate(2633.203125 0.015625)"/>
     <use xlink:href="#DejaVuSans-61" transform="translate(2730.615234 0.015625)"/>
     <use xlink:href="#DejaVuSans-67" transform="translate(2791.894531 0.015625)"/>
     <use xlink:href="#DejaVuSans-6e" transform="translate(2855.371094 0.015625)"/>
     <use xlink:href="#DejaVuSans-65" transform="translate(2918.75 0.015625)"/>
     <use xlink:href="#DejaVuSans-74" transform="translate(2980.273438 0.015625)"/>
     <use xlink:href="#DejaVuSans-69" transform="translate(3019.482422 0.015625)"/>
     <use xlink:href="#DejaVuSans-63" transform="translate(3047.265625 0.015625)"/>
     <use xlink:href="#DejaVuSans-20" transform="translate(3102.246094 0.015625)"/>
     <use xlink:href="#DejaVuSans-6d" transform="translate(3134.033203 0.015625)"/>
     <use xlink:href="#DejaVuSans-6f" transform="translate(3231.445312 0.015625)"/>
     <use xlink:href="#DejaVuSans-6d" transform="translate(3292.626953 0.015625)"/>
     <use xlink:href="#DejaVuSans-65" transform="translate(3390.039062 0.015625)"/>
     <use xlink:href="#DejaVuSans-6e" transform="translate(3451.5625 0.015625)"/>
     <use xlink:href="#DejaVuSans-74" transform="translate(3514.941406 0.015625)"/>
     <use xlink:href="#DejaVuSans-20" transform="translate(3554.150391 0.015625)"/>
     <use xlink:href="#DejaVuSans-69" transform="translate(3585.9375 0.015625)"/>
     <use xlink:href="#DejaVuSans-73" transform="translate(3613.720703 0.015625)"/>
     <use xlink:href="#DejaVuSans-20" transform="translate(3665.820312 0.015625)"/>
     <use xlink:href="#DejaVuSans-61" transform="translate(3697.607422 0.015625)"/>
     <use xlink:href="#DejaVuSans-6e" transform="translate(3758.886719 0.015625)"/>
     <use xlink:href="#DejaVuSans-74" transform="translate(3822.265625 0.015625)"/>
     <use xlink:href="#DejaVuSans-69" transform="translate(3861.474609 0.015625)"/>
     <use xlink:href="#DejaVuSans-70" transform="translate(3889.257812 0.015625)"/>
     <use xlink:href="#DejaVuSans-61" transform="translate(3952.734375 0.015625)"/>
     <use xlink:href="#DejaVuSans-72" transform="translate(4014.013672 0.015625)"/>
     <use xlink:href="#DejaVuSans-61" transform="translate(4055.126953 0.015625)"/>
     <use xlink:href="#DejaVuSans-6c" transform="translate(4116.40625 0.015625)"/>
     <use xlink:href="#DejaVuSans-6c" transform="translate(4144.189453 0.015625)"/>
     <use xlink:href="#DejaVuSans-65" transform="translate(4171.972656 0.015625)"/>
     <use xlink:href="#DejaVuSans-6c" transform="translate(4233.496094 0.015625)"/>
     <use xlink:href="#DejaVuSans-20" transform="translate(4261.279297 0.015625)"/>
     <use xlink:href="#DejaVuSans-74" transform="translate(4293.066406 0.015625)"/>
     <use xlink:href="#DejaVuSans-6f" transform="translate(4332.275391 0.015625)"/>
     <use xlink:href="#DejaVuSans-20" transform="translate(4393.457031 0.015625)"/>
     <use xlink:href="#DejaVuSans-Bold-4c" transform="translate(4425.244141 0.015625)"/>
     <use xlink:href="#DejaVuSans-2e" transform="translate(4488.964844 0.015625)"/>
    </g>
   </g>
   <g id="PathCollection_1">
    <defs>
     <path id="m382b3a4ce5" d="M 0 6.708204 
C 1.779036 6.708204 3.485448 6.001385 4.743416 4.743416 
C 6.001385 3.485448 6.708204 1.779036 6.708204 0 
C 6.708204 -1.779036 6.001385 -3.485448 4.743416 -4.743416 
C 3.485448 -6.001385 1.779036 -6.708204 0 -6.708204 
C -1.779036 -6.708204 -3.485448 -6.001385 -4.743416 -4.743416 
C -6.001385 -3.485448 -6.708204 -1.779036 -6.708204 0 
C -6.708204 1.779036 -6.001385 3.485448 -4.743416 4.743416 
C -3.485448 6.001385 -1.779036 6.708204 0 6.708204 
z
" style="stroke: #1f77b4"/>
    </defs>
    <g clip-path="url(#p6de0f2bbfe)">
     <use xlink:href="#m382b3a4ce5" x="233.87625" y="174.736976" style="fill: #1f77b4; stroke: #1f77b4"/>
    </g>
   </g>
   <g id="PathCollection_2">
    <defs>
     <path id="mbd2773037f" d="M 0 4.472136 
C 1.186024 4.472136 2.323632 4.000923 3.162278 3.162278 
C 4.000923 2.323632 4.472136 1.186024 4.472136 0 
C 4.472136 -1.186024 4.000923 -2.323632 3.162278 -3.162278 
C 2.323632 -4.000923 1.186024 -4.472136 0 -4.472136 
C -1.186024 -4.472136 -2.323632 -4.000923 -3.162278 -3.162278 
C -4.000923 -2.323632 -4.472136 -1.186024 -4.472136 0 
C -4.472136 1.186024 -4.000923 2.323632 -3.162278 3.162278 
C -2.323632 4.000923 -1.186024 4.472136 0 4.472136 
z
" style="stroke: #ff7f0e"/>
    </defs>
    <g clip-path="url(#p6de0f2bbfe)">
     <use xlink:href="#mbd2773037f" x="343.773549" y="185.319785" style="fill: #ff7f0e; stroke: #ff7f0e"/>
    </g>
   </g>
  </g>
 </g>
 <defs>
  <clipPath id="p6de0f2bbfe">
   <rect x="45.064738" y="7.2" width="377.623024" height="327.096"/>
  </clipPath>
 </defs>
</svg>
