<?xml version="1.0" encoding="utf-8" standalone="no"?>
<!DOCTYPE svg PUBLIC "-//W3C//DTD SVG 1.1//EN"
  "http://www.w3.org/Graphics/SVG/1.1/DTD/svg11.dtd">
<svg xmlns:xlink="http://www.w3.org/1999/xlink" width="612.59375pt" height="446.173344pt" viewBox="0 0 612.59375 446.173344" xmlns="http://www.w3.org/2000/svg" version="1.1">
 <metadata>
  <rdf:RDF xmlns:dc="http://purl.org/dc/elements/1.1/" xmlns:cc="http://creativecommons.org/ns#" xmlns:rdf="http://www.w3.org/1999/02/22-rdf-syntax-ns#">
   <cc:Work>
    <dc:type rdf:resource="http://purl.org/dc/dcmitype/StillImage"/>
    <dc:date>2026-06-16T09:31:06.885616</dc:date>
    <dc:format>image/svg+xml</dc:format>
    <dc:creator>
     <cc:Agent>
      <dc:title>Matplotlib v3.10.8, https://matplotlib.org/</dc:title>
     </cc:Agent>
    </dc:creator>
   </cc:Work>
  </rdf:RDF>
 </metadata>
 <defs>
  <style type="text/css">*{stroke-linejoin: round; stroke-linecap: butt}</style>
 </defs>
 <g id="figure_1">
  <g id="patch_1">
   <path d="M 0 446.173344 
L 612.59375 446.173344 
L 612.59375 0 
L 0 0 
z
" style="fill: #ffffff"/>
  </g>
  <g id="axes_1">
   <g id="patch_2">
    <path d="M 52.496875 396.501656 
L 577.016875 396.501656 
L 577.016875 30.597656 
L 52.496875 30.597656 
z
" style="fill: #ffffff"/>
   </g>
   <g id="matplotlib.axis_1">
    <g id="xtick_1">
     <g id="line2d_1">
      <path d="M 52.496875 396.501656 
L 52.496875 30.597656 
" clip-path="url(#pb5e5060c6e)" style="fill: none; stroke: #b0b0b0; stroke-opacity: 0.2; stroke-width: 0.8; stroke-linecap: square"/>
     </g>
     <g id="line2d_2">
      <defs>
       <path id="mbaa37173f5" d="M 0 0 
L 0 3.5 
" style="stroke: #000000; stroke-width: 0.8"/>
      </defs>
      <g>
       <use xlink:href="#mbaa37173f5" x="52.496875" y="396.501656" style="stroke: #000000; stroke-width: 0.8"/>
      </g>
     </g>
     <g id="text_1">
      <!-- 0.0 -->
      <g transform="translate(44.545312 411.100094) scale(0.1 -0.1)">
       <defs>
        <path id="DejaVuSans-30" d="M 2034 4250 
Q 1547 4250 1301 3770 
Q 1056 3291 1056 2328 
Q 1056 1369 1301 889 
Q 1547 409 2034 409 
Q 2525 409 2770 889 
Q 3016 1369 3016 2328 
Q 3016 3291 2770 3770 
Q 2525 4250 2034 4250 
z
M 2034 4750 
Q 2819 4750 3233 4129 
Q 3647 3509 3647 2328 
Q 3647 1150 3233 529 
Q 2819 -91 2034 -91 
Q 1250 -91 836 529 
Q 422 1150 422 2328 
Q 422 3509 836 4129 
Q 1250 4750 2034 4750 
z
" transform="scale(0.015625)"/>
        <path id="DejaVuSans-2e" d="M 684 794 
L 1344 794 
L 1344 0 
L 684 0 
L 684 794 
z
" transform="scale(0.015625)"/>
       </defs>
       <use xlink:href="#DejaVuSans-30"/>
       <use xlink:href="#DejaVuSans-2e" transform="translate(63.623047 0)"/>
       <use xlink:href="#DejaVuSans-30" transform="translate(95.410156 0)"/>
      </g>
     </g>
    </g>
    <g id="xtick_2">
     <g id="line2d_3">
      <path d="M 127.428304 396.501656 
L 127.428304 30.597656 
" clip-path="url(#pb5e5060c6e)" style="fill: none; stroke: #b0b0b0; stroke-opacity: 0.2; stroke-width: 0.8; stroke-linecap: square"/>
     </g>
     <g id="line2d_4">
      <g>
       <use xlink:href="#mbaa37173f5" x="127.428304" y="396.501656" style="stroke: #000000; stroke-width: 0.8"/>
      </g>
     </g>
     <g id="text_2">
      <!-- 0.5 -->
      <g transform="translate(119.476741 411.100094) scale(0.1 -0.1)">
       <defs>
        <path id="DejaVuSans-35" d="M 691 4666 
L 3169 4666 
L 3169 4134 
L 1269 4134 
L 1269 2991 
Q 1406 3038 1543 3061 
Q 1681 3084 1819 3084 
Q 2600 3084 3056 2656 
Q 3513 2228 3513 1497 
Q 3513 744 3044 326 
Q 2575 -91 1722 -91 
Q 1428 -91 1123 -41 
Q 819 9 494 109 
L 494 744 
Q 775 591 1075 516 
Q 1375 441 1709 441 
Q 2250 441 2565 725 
Q 2881 1009 2881 1497 
Q 2881 1984 2565 2268 
Q 2250 2553 1709 2553 
Q 1456 2553 1204 2497 
Q 953 2441 691 2322 
L 691 4666 
z
" transform="scale(0.015625)"/>
       </defs>
       <use xlink:href="#DejaVuSans-30"/>
       <use xlink:href="#DejaVuSans-2e" transform="translate(63.623047 0)"/>
       <use xlink:href="#DejaVuSans-35" transform="translate(95.410156 0)"/>
      </g>
     </g>
    </g>
    <g id="xtick_3">
     <g id="line2d_5">
      <path d="M 202.359732 396.501656 
L 202.359732 30.597656 
" clip-path="url(#pb5e5060c6e)" style="fill: none; stroke: #b0b0b0; stroke-opacity: 0.2; stroke-width: 0.8; stroke-linecap: square"/>
     </g>
     <g id="line2d_6">
      <g>
       <use xlink:href="#mbaa37173f5" x="202.359732" y="396.501656" style="stroke: #000000; stroke-width: 0.8"/>
      </g>
     </g>
     <g id="text_3">
      <!-- 1.0 -->
      <g transform="translate(194.40817 411.100094) scale(0.1 -0.1)">
       <defs>
        <path id="DejaVuSans-31" d="M 794 531 
L 1825 531 
L 1825 4091 
L 703 3866 
L 703 4441 
L 1819 4666 
L 2450 4666 
L 2450 531 
L 3481 531 
L 3481 0 
L 794 0 
L 794 531 
z
" transform="scale(0.015625)"/>
       </defs>
       <use xlink:href="#DejaVuSans-31"/>
       <use xlink:href="#DejaVuSans-2e" transform="translate(63.623047 0)"/>
       <use xlink:href="#DejaVuSans-30" transform="translate(95.410156 0)"/>
      </g>
     </g>
    </g>
    <g id="xtick_4">
     <g id="line2d_7">
      <path d="M 277.291161 396.501656 
L 277.291161 30.597656 
" clip-path="url(#pb5e5060c6e)" style="fill: none; stroke: #b0b0b0; stroke-opacity: 0.2; stroke-width: 0.8; stroke-linecap: square"/>
     </g>
     <g id="line2d_8">
      <g>
       <use xlink:href="#mbaa37173f5" x="277.291161" y="396.501656" style="stroke: #000000; stroke-width: 0.8"/>
      </g>
     </g>
     <g id="text_4">
      <!-- 1.5 -->
      <g transform="translate(269.339598 411.100094) scale(0.1 -0.1)">
       <use xlink:href="#DejaVuSans-31"/>
       <use xlink:href="#DejaVuSans-2e" transform="translate(63.623047 0)"/>
       <use xlink:href="#DejaVuSans-35" transform="translate(95.410156 0)"/>
      </g>
     </g>
    </g>
    <g id="xtick_5">
     <g id="line2d_9">
      <path d="M 352.222589 396.501656 
L 352.222589 30.597656 
" clip-path="url(#pb5e5060c6e)" style="fill: none; stroke: #b0b0b0; stroke-opacity: 0.2; stroke-width: 0.8; stroke-linecap: square"/>
     </g>
     <g id="line2d_10">
      <g>
       <use xlink:href="#mbaa37173f5" x="352.222589" y="396.501656" style="stroke: #000000; stroke-width: 0.8"/>
      </g>
     </g>
     <g id="text_5">
      <!-- 2.0 -->
      <g transform="translate(344.271027 411.100094) scale(0.1 -0.1)">
       <defs>
        <path id="DejaVuSans-32" d="M 1228 531 
L 3431 531 
L 3431 0 
L 469 0 
L 469 531 
Q 828 903 1448 1529 
Q 2069 2156 2228 2338 
Q 2531 2678 2651 2914 
Q 2772 3150 2772 3378 
Q 2772 3750 2511 3984 
Q 2250 4219 1831 4219 
Q 1534 4219 1204 4116 
Q 875 4013 500 3803 
L 500 4441 
Q 881 4594 1212 4672 
Q 1544 4750 1819 4750 
Q 2544 4750 2975 4387 
Q 3406 4025 3406 3419 
Q 3406 3131 3298 2873 
Q 3191 2616 2906 2266 
Q 2828 2175 2409 1742 
Q 1991 1309 1228 531 
z
" transform="scale(0.015625)"/>
       </defs>
       <use xlink:href="#DejaVuSans-32"/>
       <use xlink:href="#DejaVuSans-2e" transform="translate(63.623047 0)"/>
       <use xlink:href="#DejaVuSans-30" transform="translate(95.410156 0)"/>
      </g>
     </g>
    </g>
    <g id="xtick_6">
     <g id="line2d_11">
      <path d="M 427.154018 396.501656 
L 427.154018 30.597656 
" clip-path="url(#pb5e5060c6e)" style="fill: none; stroke: #b0b0b0; stroke-opacity: 0.2; stroke-width: 0.8; stroke-linecap: square"/>
     </g>
     <g id="line2d_12">
      <g>
       <use xlink:href="#mbaa37173f5" x="427.154018" y="396.501656" style="stroke: #000000; stroke-width: 0.8"/>
      </g>
     </g>
     <g id="text_6">
      <!-- 2.5 -->
      <g transform="translate(419.202455 411.100094) scale(0.1 -0.1)">
       <use xlink:href="#DejaVuSans-32"/>
       <use xlink:href="#DejaVuSans-2e" transform="translate(63.623047 0)"/>
       <use xlink:href="#DejaVuSans-35" transform="translate(95.410156 0)"/>
      </g>
     </g>
    </g>
    <g id="xtick_7">
     <g id="line2d_13">
      <path d="M 502.085446 396.501656 
L 502.085446 30.597656 
" clip-path="url(#pb5e5060c6e)" style="fill: none; stroke: #b0b0b0; stroke-opacity: 0.2; stroke-width: 0.8; stroke-linecap: square"/>
     </g>
     <g id="line2d_14">
      <g>
       <use xlink:href="#mbaa37173f5" x="502.085446" y="396.501656" style="stroke: #000000; stroke-width: 0.8"/>
      </g>
     </g>
     <g id="text_7">
      <!-- 3.0 -->
      <g transform="translate(494.133884 411.100094) scale(0.1 -0.1)">
       <defs>
        <path id="DejaVuSans-33" d="M 2597 2516 
Q 3050 2419 3304 2112 
Q 3559 1806 3559 1356 
Q 3559 666 3084 287 
Q 2609 -91 1734 -91 
Q 1441 -91 1130 -33 
Q 819 25 488 141 
L 488 750 
Q 750 597 1062 519 
Q 1375 441 1716 441 
Q 2309 441 2620 675 
Q 2931 909 2931 1356 
Q 2931 1769 2642 2001 
Q 2353 2234 1838 2234 
L 1294 2234 
L 1294 2753 
L 1863 2753 
Q 2328 2753 2575 2939 
Q 2822 3125 2822 3475 
Q 2822 3834 2567 4026 
Q 2313 4219 1838 4219 
Q 1578 4219 1281 4162 
Q 984 4106 628 3988 
L 628 4550 
Q 988 4650 1302 4700 
Q 1616 4750 1894 4750 
Q 2613 4750 3031 4423 
Q 3450 4097 3450 3541 
Q 3450 3153 3228 2886 
Q 3006 2619 2597 2516 
z
" transform="scale(0.015625)"/>
       </defs>
       <use xlink:href="#DejaVuSans-33"/>
       <use xlink:href="#DejaVuSans-2e" transform="translate(63.623047 0)"/>
       <use xlink:href="#DejaVuSans-30" transform="translate(95.410156 0)"/>
      </g>
     </g>
    </g>
    <g id="xtick_8">
     <g id="line2d_15">
      <path d="M 577.016875 396.501656 
L 577.016875 30.597656 
" clip-path="url(#pb5e5060c6e)" style="fill: none; stroke: #b0b0b0; stroke-opacity: 0.2; stroke-width: 0.8; stroke-linecap: square"/>
     </g>
     <g id="line2d_16">
      <g>
       <use xlink:href="#mbaa37173f5" x="577.016875" y="396.501656" style="stroke: #000000; stroke-width: 0.8"/>
      </g>
     </g>
     <g id="text_8">
      <!-- 3.5 -->
      <g transform="translate(569.065313 411.100094) scale(0.1 -0.1)">
       <use xlink:href="#DejaVuSans-33"/>
       <use xlink:href="#DejaVuSans-2e" transform="translate(63.623047 0)"/>
       <use xlink:href="#DejaVuSans-35" transform="translate(95.410156 0)"/>
      </g>
     </g>
    </g>
    <g id="text_9">
     <!-- $k_B T/(\hbar\omega_E)$ -->
     <g transform="translate(290.656875 424.778219) scale(0.1 -0.1)">
      <defs>
       <path id="DejaVuSans-Oblique-6b" d="M 1172 4863 
L 1747 4863 
L 1197 2028 
L 3169 3500 
L 3916 3500 
L 1716 1825 
L 3322 0 
L 2625 0 
L 1131 1709 
L 800 0 
L 225 0 
L 1172 4863 
z
" transform="scale(0.015625)"/>
       <path id="DejaVuSans-Oblique-42" d="M 1081 4666 
L 2694 4666 
Q 3350 4666 3675 4422 
Q 4000 4178 4000 3688 
Q 4000 3238 3720 2911 
Q 3441 2584 2988 2516 
Q 3375 2428 3569 2181 
Q 3763 1934 3763 1522 
Q 3763 819 3242 409 
Q 2722 0 1819 0 
L 172 0 
L 1081 4666 
z
M 1234 2228 
L 903 519 
L 1919 519 
Q 2491 519 2800 781 
Q 3109 1044 3109 1522 
Q 3109 1891 2904 2059 
Q 2700 2228 2247 2228 
L 1234 2228 
z
M 1606 4147 
L 1331 2741 
L 2272 2741 
Q 2775 2741 3058 2959 
Q 3341 3178 3341 3566 
Q 3341 3869 3150 4008 
Q 2959 4147 2541 4147 
L 1606 4147 
z
" transform="scale(0.015625)"/>
       <path id="DejaVuSans-Oblique-54" d="M 378 4666 
L 4325 4666 
L 4225 4134 
L 2559 4134 
L 1759 0 
L 1125 0 
L 1925 4134 
L 275 4134 
L 378 4666 
z
" transform="scale(0.015625)"/>
       <path id="DejaVuSans-2f" d="M 1625 4666 
L 2156 4666 
L 531 -594 
L 0 -594 
L 1625 4666 
z
" transform="scale(0.015625)"/>
       <path id="DejaVuSans-28" d="M 1984 4856 
Q 1566 4138 1362 3434 
Q 1159 2731 1159 2009 
Q 1159 1288 1364 580 
Q 1569 -128 1984 -844 
L 1484 -844 
Q 1016 -109 783 600 
Q 550 1309 550 2009 
Q 550 2706 781 3412 
Q 1013 4119 1484 4856 
L 1984 4856 
z
" transform="scale(0.015625)"/>
       <path id="DejaVuSans-Oblique-127" d="M 3634 2113 
L 3225 0 
L 2650 0 
L 3056 2094 
Q 3094 2291 3094 2450 
Q 3094 2688 3006 2838 
Q 2863 3084 2475 3084 
Q 2009 3084 1681 2788 
Q 1356 2491 1256 1978 
L 872 0 
L 294 0 
L 1066 3969 
L 675 3969 
L 775 4481 
L 1166 4481 
L 1238 4863 
L 1816 4863 
L 1744 4481 
L 2844 4481 
L 2744 3969 
L 1644 3969 
L 1447 2956 
Q 1713 3272 2025 3428 
Q 2331 3584 2700 3584 
Q 3300 3584 3538 3213 
Q 3688 2975 3688 2606 
Q 3688 2381 3634 2113 
z
" transform="scale(0.015625)"/>
       <path id="DejaVuSans-Oblique-3c9" d="M 1369 -91 
Q 72 -91 434 1766 
Q 575 2500 1256 3500 
L 1875 3500 
Q 1231 2500 1088 1750 
Q 819 397 1519 397 
Q 2166 397 2478 2078 
L 3009 2078 
Q 2669 388 3316 397 
Q 4013 403 4275 1750 
Q 4419 2500 4169 3500 
L 4788 3500 
Q 5075 2500 4934 1766 
Q 4578 -94 3278 -91 
Q 2428 -88 2503 844 
Q 2194 -91 1369 -91 
z
" transform="scale(0.015625)"/>
       <path id="DejaVuSans-Oblique-45" d="M 1081 4666 
L 4031 4666 
L 3928 4134 
L 1606 4134 
L 1338 2753 
L 3566 2753 
L 3463 2222 
L 1234 2222 
L 909 531 
L 3284 531 
L 3181 0 
L 172 0 
L 1081 4666 
z
" transform="scale(0.015625)"/>
       <path id="DejaVuSans-29" d="M 513 4856 
L 1013 4856 
Q 1481 4119 1714 3412 
Q 1947 2706 1947 2009 
Q 1947 1309 1714 600 
Q 1481 -109 1013 -844 
L 513 -844 
Q 928 -128 1133 580 
Q 1338 1288 1338 2009 
Q 1338 2731 1133 3434 
Q 928 4138 513 4856 
z
" transform="scale(0.015625)"/>
      </defs>
      <use xlink:href="#DejaVuSans-Oblique-6b" transform="translate(0 0.015625)"/>
      <use xlink:href="#DejaVuSans-Oblique-42" transform="translate(57.910156 -16.390625) scale(0.7)"/>
      <use xlink:href="#DejaVuSans-Oblique-54" transform="translate(108.666992 0.015625)"/>
      <use xlink:href="#DejaVuSans-2f" transform="translate(169.750977 0.015625)"/>
      <use xlink:href="#DejaVuSans-28" transform="translate(203.442383 0.015625)"/>
      <use xlink:href="#DejaVuSans-Oblique-127" transform="translate(242.456055 0.015625)"/>
      <use xlink:href="#DejaVuSans-Oblique-3c9" transform="translate(311.938477 0.015625)"/>
      <use xlink:href="#DejaVuSans-Oblique-45" transform="translate(395.678711 -16.390625) scale(0.7)"/>
      <use xlink:href="#DejaVuSans-29" transform="translate(442.641602 0.015625)"/>
     </g>
    </g>
   </g>
   <g id="matplotlib.axis_2">
    <g id="ytick_1">
     <g id="line2d_17">
      <path d="M 52.496875 396.501656 
L 577.016875 396.501656 
" clip-path="url(#pb5e5060c6e)" style="fill: none; stroke: #b0b0b0; stroke-opacity: 0.2; stroke-width: 0.8; stroke-linecap: square"/>
     </g>
     <g id="line2d_18">
      <defs>
       <path id="mc6b3fc1687" d="M 0 0 
L -3.5 0 
" style="stroke: #000000; stroke-width: 0.8"/>
      </defs>
      <g>
       <use xlink:href="#mc6b3fc1687" x="52.496875" y="396.501656" style="stroke: #000000; stroke-width: 0.8"/>
      </g>
     </g>
     <g id="text_10">
      <!-- 0.0 -->
      <g transform="translate(29.59375 400.300875) scale(0.1 -0.1)">
       <use xlink:href="#DejaVuSans-30"/>
       <use xlink:href="#DejaVuSans-2e" transform="translate(63.623047 0)"/>
       <use xlink:href="#DejaVuSans-30" transform="translate(95.410156 0)"/>
      </g>
     </g>
    </g>
    <g id="ytick_2">
     <g id="line2d_19">
      <path d="M 52.496875 347.05517 
L 577.016875 347.05517 
" clip-path="url(#pb5e5060c6e)" style="fill: none; stroke: #b0b0b0; stroke-opacity: 0.2; stroke-width: 0.8; stroke-linecap: square"/>
     </g>
     <g id="line2d_20">
      <g>
       <use xlink:href="#mc6b3fc1687" x="52.496875" y="347.05517" style="stroke: #000000; stroke-width: 0.8"/>
      </g>
     </g>
     <g id="text_11">
      <!-- 0.5 -->
      <g transform="translate(29.59375 350.854389) scale(0.1 -0.1)">
       <use xlink:href="#DejaVuSans-30"/>
       <use xlink:href="#DejaVuSans-2e" transform="translate(63.623047 0)"/>
       <use xlink:href="#DejaVuSans-35" transform="translate(95.410156 0)"/>
      </g>
     </g>
    </g>
    <g id="ytick_3">
     <g id="line2d_21">
      <path d="M 52.496875 297.608683 
L 577.016875 297.608683 
" clip-path="url(#pb5e5060c6e)" style="fill: none; stroke: #b0b0b0; stroke-opacity: 0.2; stroke-width: 0.8; stroke-linecap: square"/>
     </g>
     <g id="line2d_22">
      <g>
       <use xlink:href="#mc6b3fc1687" x="52.496875" y="297.608683" style="stroke: #000000; stroke-width: 0.8"/>
      </g>
     </g>
     <g id="text_12">
      <!-- 1.0 -->
      <g transform="translate(29.59375 301.407902) scale(0.1 -0.1)">
       <use xlink:href="#DejaVuSans-31"/>
       <use xlink:href="#DejaVuSans-2e" transform="translate(63.623047 0)"/>
       <use xlink:href="#DejaVuSans-30" transform="translate(95.410156 0)"/>
      </g>
     </g>
    </g>
    <g id="ytick_4">
     <g id="line2d_23">
      <path d="M 52.496875 248.162197 
L 577.016875 248.162197 
" clip-path="url(#pb5e5060c6e)" style="fill: none; stroke: #b0b0b0; stroke-opacity: 0.2; stroke-width: 0.8; stroke-linecap: square"/>
     </g>
     <g id="line2d_24">
      <g>
       <use xlink:href="#mc6b3fc1687" x="52.496875" y="248.162197" style="stroke: #000000; stroke-width: 0.8"/>
      </g>
     </g>
     <g id="text_13">
      <!-- 1.5 -->
      <g transform="translate(29.59375 251.961416) scale(0.1 -0.1)">
       <use xlink:href="#DejaVuSans-31"/>
       <use xlink:href="#DejaVuSans-2e" transform="translate(63.623047 0)"/>
       <use xlink:href="#DejaVuSans-35" transform="translate(95.410156 0)"/>
      </g>
     </g>
    </g>
    <g id="ytick_5">
     <g id="line2d_25">
      <path d="M 52.496875 198.71571 
L 577.016875 198.71571 
" clip-path="url(#pb5e5060c6e)" style="fill: none; stroke: #b0b0b0; stroke-opacity: 0.2; stroke-width: 0.8; stroke-linecap: square"/>
     </g>
     <g id="line2d_26">
      <g>
       <use xlink:href="#mc6b3fc1687" x="52.496875" y="198.71571" style="stroke: #000000; stroke-width: 0.8"/>
      </g>
     </g>
     <g id="text_14">
      <!-- 2.0 -->
      <g transform="translate(29.59375 202.514929) scale(0.1 -0.1)">
       <use xlink:href="#DejaVuSans-32"/>
       <use xlink:href="#DejaVuSans-2e" transform="translate(63.623047 0)"/>
       <use xlink:href="#DejaVuSans-30" transform="translate(95.410156 0)"/>
      </g>
     </g>
    </g>
    <g id="ytick_6">
     <g id="line2d_27">
      <path d="M 52.496875 149.269224 
L 577.016875 149.269224 
" clip-path="url(#pb5e5060c6e)" style="fill: none; stroke: #b0b0b0; stroke-opacity: 0.2; stroke-width: 0.8; stroke-linecap: square"/>
     </g>
     <g id="line2d_28">
      <g>
       <use xlink:href="#mc6b3fc1687" x="52.496875" y="149.269224" style="stroke: #000000; stroke-width: 0.8"/>
      </g>
     </g>
     <g id="text_15">
      <!-- 2.5 -->
      <g transform="translate(29.59375 153.068443) scale(0.1 -0.1)">
       <use xlink:href="#DejaVuSans-32"/>
       <use xlink:href="#DejaVuSans-2e" transform="translate(63.623047 0)"/>
       <use xlink:href="#DejaVuSans-35" transform="translate(95.410156 0)"/>
      </g>
     </g>
    </g>
    <g id="ytick_7">
     <g id="line2d_29">
      <path d="M 52.496875 99.822737 
L 577.016875 99.822737 
" clip-path="url(#pb5e5060c6e)" style="fill: none; stroke: #b0b0b0; stroke-opacity: 0.2; stroke-width: 0.8; stroke-linecap: square"/>
     </g>
     <g id="line2d_30">
      <g>
       <use xlink:href="#mc6b3fc1687" x="52.496875" y="99.822737" style="stroke: #000000; stroke-width: 0.8"/>
      </g>
     </g>
     <g id="text_16">
      <!-- 3.0 -->
      <g transform="translate(29.59375 103.621956) scale(0.1 -0.1)">
       <use xlink:href="#DejaVuSans-33"/>
       <use xlink:href="#DejaVuSans-2e" transform="translate(63.623047 0)"/>
       <use xlink:href="#DejaVuSans-30" transform="translate(95.410156 0)"/>
      </g>
     </g>
    </g>
    <g id="ytick_8">
     <g id="line2d_31">
      <path d="M 52.496875 50.376251 
L 577.016875 50.376251 
" clip-path="url(#pb5e5060c6e)" style="fill: none; stroke: #b0b0b0; stroke-opacity: 0.2; stroke-width: 0.8; stroke-linecap: square"/>
     </g>
     <g id="line2d_32">
      <g>
       <use xlink:href="#mc6b3fc1687" x="52.496875" y="50.376251" style="stroke: #000000; stroke-width: 0.8"/>
      </g>
     </g>
     <g id="text_17">
      <!-- 3.5 -->
      <g transform="translate(29.59375 54.17547) scale(0.1 -0.1)">
       <use xlink:href="#DejaVuSans-33"/>
       <use xlink:href="#DejaVuSans-2e" transform="translate(63.623047 0)"/>
       <use xlink:href="#DejaVuSans-35" transform="translate(95.410156 0)"/>
      </g>
     </g>
    </g>
    <g id="text_18">
     <!-- $\langle u(T)\rangle/(\hbar\omega_E)$ -->
     <g transform="translate(23.514062 243.199656) rotate(-90) scale(0.1 -0.1)">
      <defs>
       <path id="DejaVuSans-27e8" d="M 572 2006 
L 1453 4856 
L 1984 4856 
L 1103 2006 
L 1984 -844 
L 1453 -844 
L 572 2006 
z
" transform="scale(0.015625)"/>
       <path id="DejaVuSans-Oblique-75" d="M 428 1388 
L 838 3500 
L 1416 3500 
L 1006 1409 
Q 975 1256 961 1147 
Q 947 1038 947 966 
Q 947 700 1109 554 
Q 1272 409 1569 409 
Q 2031 409 2368 721 
Q 2706 1034 2809 1563 
L 3194 3500 
L 3769 3500 
L 3091 0 
L 2516 0 
L 2631 550 
Q 2388 244 2052 76 
Q 1716 -91 1338 -91 
Q 878 -91 622 161 
Q 366 413 366 863 
Q 366 956 381 1097 
Q 397 1238 428 1388 
z
" transform="scale(0.015625)"/>
       <path id="DejaVuSans-27e9" d="M 1925 2006 
L 1044 -844 
L 513 -844 
L 1394 2006 
L 513 4856 
L 1044 4856 
L 1925 2006 
z
" transform="scale(0.015625)"/>
      </defs>
      <use xlink:href="#DejaVuSans-27e8" transform="translate(0 0.015625)"/>
      <use xlink:href="#DejaVuSans-Oblique-75" transform="translate(39.013672 0.015625)"/>
      <use xlink:href="#DejaVuSans-28" transform="translate(102.392578 0.015625)"/>
      <use xlink:href="#DejaVuSans-Oblique-54" transform="translate(141.40625 0.015625)"/>
      <use xlink:href="#DejaVuSans-29" transform="translate(202.490234 0.015625)"/>
      <use xlink:href="#DejaVuSans-27e9" transform="translate(241.503906 0.015625)"/>
      <use xlink:href="#DejaVuSans-2f" transform="translate(280.517578 0.015625)"/>
      <use xlink:href="#DejaVuSans-28" transform="translate(314.208984 0.015625)"/>
      <use xlink:href="#DejaVuSans-Oblique-127" transform="translate(353.222656 0.015625)"/>
      <use xlink:href="#DejaVuSans-Oblique-3c9" transform="translate(422.705078 0.015625)"/>
      <use xlink:href="#DejaVuSans-Oblique-45" transform="translate(506.445312 -16.390625) scale(0.7)"/>
      <use xlink:href="#DejaVuSans-29" transform="translate(553.408203 0.015625)"/>
     </g>
    </g>
   </g>
   <g id="line2d_33">
    <path d="M 56.992761 347.05517 
L 73.914697 346.964647 
L 79.121446 346.698557 
L 83.677352 346.239752 
L 88.233258 345.539768 
L 92.789164 344.597551 
L 97.34507 343.427818 
L 102.55182 341.840596 
L 107.758569 340.020277 
L 113.616162 337.735523 
L 120.124599 334.951583 
L 127.28388 331.645639 
L 135.744848 327.475687 
L 144.85666 322.734664 
L 155.270159 317.070955 
L 167.636189 310.087123 
L 181.954751 301.740189 
L 198.876687 291.613742 
L 219.052841 279.276117 
L 243.784902 263.881332 
L 273.723712 244.975906 
L 311.472646 220.863678 
L 358.984236 190.240101 
L 420.814388 150.108725 
L 502.16985 97.0256 
L 577.016875 48.024854 
L 577.016875 48.024854 
" clip-path="url(#pb5e5060c6e)" style="fill: none; stroke: #1f77b4; stroke-width: 2.2; stroke-linecap: square"/>
   </g>
   <g id="line2d_34">
    <path d="M 56.992761 393.534867 
L 577.016875 50.376251 
L 577.016875 50.376251 
" clip-path="url(#pb5e5060c6e)" style="fill: none; stroke-dasharray: 6.29,2.72; stroke-dashoffset: 0; stroke: #ff7f0e; stroke-width: 1.7"/>
   </g>
   <g id="line2d_35">
    <path d="M 52.496875 347.05517 
L 577.016875 347.05517 
" clip-path="url(#pb5e5060c6e)" style="fill: none; stroke-dasharray: 0.8,1.32; stroke-dashoffset: 0; stroke: #1f77b4; stroke-width: 0.8"/>
   </g>
   <g id="patch_3">
    <path d="M 52.496875 396.501656 
L 52.496875 30.597656 
" style="fill: none; stroke: #000000; stroke-width: 0.8; stroke-linejoin: miter; stroke-linecap: square"/>
   </g>
   <g id="patch_4">
    <path d="M 577.016875 396.501656 
L 577.016875 30.597656 
" style="fill: none; stroke: #000000; stroke-width: 0.8; stroke-linejoin: miter; stroke-linecap: square"/>
   </g>
   <g id="patch_5">
    <path d="M 52.496875 396.501656 
L 577.016875 396.501656 
" style="fill: none; stroke: #000000; stroke-width: 0.8; stroke-linejoin: miter; stroke-linecap: square"/>
   </g>
   <g id="patch_6">
    <path d="M 52.496875 30.597656 
L 577.016875 30.597656 
" style="fill: none; stroke: #000000; stroke-width: 0.8; stroke-linejoin: miter; stroke-linecap: square"/>
   </g>
   <g id="text_19">
    <!-- $\frac{1}{2}\hbar\omega_E$ -->
    <g transform="translate(58.491389 343.05517) scale(0.1 -0.1)">
     <use xlink:href="#DejaVuSans-31" transform="translate(0 43.965625) scale(0.7)"/>
     <use xlink:href="#DejaVuSans-32" transform="translate(0 -39.2375) scale(0.7)"/>
     <use xlink:href="#DejaVuSans-Oblique-127" transform="translate(57.036133 0.16875)"/>
     <use xlink:href="#DejaVuSans-Oblique-3c9" transform="translate(126.518555 0.16875)"/>
     <use xlink:href="#DejaVuSans-Oblique-45" transform="translate(210.258789 -16.2375) scale(0.7)"/>
     <path d="M 0 18.965625 
L 0 25.215625 
L 44.536133 25.215625 
L 44.536133 18.965625 
L 0 18.965625 
z
"/>
    </g>
   </g>
   <g id="text_20">
    <!-- $[n_{\rm BE}(\omega_E)+\frac{1}{2}]\hbar\omega_E$ -->
    <g transform="translate(434.647161 94.878089) scale(0.1 -0.1)">
     <defs>
      <path id="DejaVuSans-5b" d="M 550 4863 
L 1875 4863 
L 1875 4416 
L 1125 4416 
L 1125 -397 
L 1875 -397 
L 1875 -844 
L 550 -844 
L 550 4863 
z
" transform="scale(0.015625)"/>
      <path id="DejaVuSans-Oblique-6e" d="M 3566 2113 
L 3156 0 
L 2578 0 
L 2988 2091 
Q 3016 2238 3031 2350 
Q 3047 2463 3047 2528 
Q 3047 2791 2881 2937 
Q 2716 3084 2419 3084 
Q 1956 3084 1622 2776 
Q 1288 2469 1184 1941 
L 800 0 
L 225 0 
L 903 3500 
L 1478 3500 
L 1363 2950 
Q 1603 3253 1940 3418 
Q 2278 3584 2650 3584 
Q 3113 3584 3367 3334 
Q 3622 3084 3622 2631 
Q 3622 2519 3608 2391 
Q 3594 2263 3566 2113 
z
" transform="scale(0.015625)"/>
      <path id="DejaVuSans-42" d="M 1259 2228 
L 1259 519 
L 2272 519 
Q 2781 519 3026 730 
Q 3272 941 3272 1375 
Q 3272 1813 3026 2020 
Q 2781 2228 2272 2228 
L 1259 2228 
z
M 1259 4147 
L 1259 2741 
L 2194 2741 
Q 2656 2741 2882 2914 
Q 3109 3088 3109 3444 
Q 3109 3797 2882 3972 
Q 2656 4147 2194 4147 
L 1259 4147 
z
M 628 4666 
L 2241 4666 
Q 2963 4666 3353 4366 
Q 3744 4066 3744 3513 
Q 3744 3084 3544 2831 
Q 3344 2578 2956 2516 
Q 3422 2416 3680 2098 
Q 3938 1781 3938 1306 
Q 3938 681 3513 340 
Q 3088 0 2303 0 
L 628 0 
L 628 4666 
z
" transform="scale(0.015625)"/>
      <path id="DejaVuSans-45" d="M 628 4666 
L 3578 4666 
L 3578 4134 
L 1259 4134 
L 1259 2753 
L 3481 2753 
L 3481 2222 
L 1259 2222 
L 1259 531 
L 3634 531 
L 3634 0 
L 628 0 
L 628 4666 
z
" transform="scale(0.015625)"/>
      <path id="DejaVuSans-2b" d="M 2944 4013 
L 2944 2272 
L 4684 2272 
L 4684 1741 
L 2944 1741 
L 2944 0 
L 2419 0 
L 2419 1741 
L 678 1741 
L 678 2272 
L 2419 2272 
L 2419 4013 
L 2944 4013 
z
" transform="scale(0.015625)"/>
      <path id="DejaVuSans-5d" d="M 1947 4863 
L 1947 -844 
L 622 -844 
L 622 -397 
L 1369 -397 
L 1369 4416 
L 622 4416 
L 622 4863 
L 1947 4863 
z
" transform="scale(0.015625)"/>
     </defs>
     <use xlink:href="#DejaVuSans-5b" transform="translate(0 0.16875)"/>
     <use xlink:href="#DejaVuSans-Oblique-6e" transform="translate(39.013672 0.16875)"/>
     <use xlink:href="#DejaVuSans-42" transform="translate(102.392578 -16.2375) scale(0.7)"/>
     <use xlink:href="#DejaVuSans-45" transform="translate(150.415039 -16.2375) scale(0.7)"/>
     <use xlink:href="#DejaVuSans-28" transform="translate(197.37793 0.16875)"/>
     <use xlink:href="#DejaVuSans-Oblique-3c9" transform="translate(236.391602 0.16875)"/>
     <use xlink:href="#DejaVuSans-Oblique-45" transform="translate(320.131836 -16.2375) scale(0.7)"/>
     <use xlink:href="#DejaVuSans-29" transform="translate(367.094727 0.16875)"/>
     <use xlink:href="#DejaVuSans-2b" transform="translate(425.59082 0.16875)"/>
     <use xlink:href="#DejaVuSans-31" transform="translate(528.862305 43.965625) scale(0.7)"/>
     <use xlink:href="#DejaVuSans-32" transform="translate(528.862305 -39.2375) scale(0.7)"/>
     <use xlink:href="#DejaVuSans-5d" transform="translate(585.898438 0.16875)"/>
     <use xlink:href="#DejaVuSans-Oblique-127" transform="translate(624.912109 0.16875)"/>
     <use xlink:href="#DejaVuSans-Oblique-3c9" transform="translate(694.394531 0.16875)"/>
     <use xlink:href="#DejaVuSans-Oblique-45" transform="translate(778.134766 -16.2375) scale(0.7)"/>
     <path d="M 528.862305 18.965625 
L 528.862305 25.215625 
L 573.398438 25.215625 
L 573.398438 18.965625 
L 528.862305 18.965625 
z
"/>
    </g>
   </g>
   <g id="text_21">
    <!-- $k_B T$ -->
    <g transform="translate(434.647161 164.10317) scale(0.1 -0.1)">
     <use xlink:href="#DejaVuSans-Oblique-6b" transform="translate(0 0.015625)"/>
     <use xlink:href="#DejaVuSans-Oblique-42" transform="translate(57.910156 -16.390625) scale(0.7)"/>
     <use xlink:href="#DejaVuSans-Oblique-54" transform="translate(108.666992 0.015625)"/>
    </g>
   </g>
   <g id="text_22">
    <!-- Energia media di un oscillatore classico e di Einstein -->
    <g transform="translate(92.458047 18.597656) scale(0.15 -0.15)">
     <defs>
      <path id="DejaVuSans-Bold-45" d="M 588 4666 
L 3834 4666 
L 3834 3756 
L 1791 3756 
L 1791 2888 
L 3713 2888 
L 3713 1978 
L 1791 1978 
L 1791 909 
L 3903 909 
L 3903 0 
L 588 0 
L 588 4666 
z
" transform="scale(0.015625)"/>
      <path id="DejaVuSans-Bold-6e" d="M 4056 2131 
L 4056 0 
L 2931 0 
L 2931 347 
L 2931 1631 
Q 2931 2084 2911 2256 
Q 2891 2428 2841 2509 
Q 2775 2619 2662 2680 
Q 2550 2741 2406 2741 
Q 2056 2741 1856 2470 
Q 1656 2200 1656 1722 
L 1656 0 
L 538 0 
L 538 3500 
L 1656 3500 
L 1656 2988 
Q 1909 3294 2193 3439 
Q 2478 3584 2822 3584 
Q 3428 3584 3742 3212 
Q 4056 2841 4056 2131 
z
" transform="scale(0.015625)"/>
      <path id="DejaVuSans-Bold-65" d="M 4031 1759 
L 4031 1441 
L 1416 1441 
Q 1456 1047 1700 850 
Q 1944 653 2381 653 
Q 2734 653 3104 758 
Q 3475 863 3866 1075 
L 3866 213 
Q 3469 63 3072 -14 
Q 2675 -91 2278 -91 
Q 1328 -91 801 392 
Q 275 875 275 1747 
Q 275 2603 792 3093 
Q 1309 3584 2216 3584 
Q 3041 3584 3536 3087 
Q 4031 2591 4031 1759 
z
M 2881 2131 
Q 2881 2450 2695 2645 
Q 2509 2841 2209 2841 
Q 1884 2841 1681 2658 
Q 1478 2475 1428 2131 
L 2881 2131 
z
" transform="scale(0.015625)"/>
      <path id="DejaVuSans-Bold-72" d="M 3138 2547 
Q 2991 2616 2845 2648 
Q 2700 2681 2553 2681 
Q 2122 2681 1889 2404 
Q 1656 2128 1656 1613 
L 1656 0 
L 538 0 
L 538 3500 
L 1656 3500 
L 1656 2925 
Q 1872 3269 2151 3426 
Q 2431 3584 2822 3584 
Q 2878 3584 2943 3579 
Q 3009 3575 3134 3559 
L 3138 2547 
z
" transform="scale(0.015625)"/>
      <path id="DejaVuSans-Bold-67" d="M 2919 594 
Q 2688 288 2409 144 
Q 2131 0 1766 0 
Q 1125 0 706 504 
Q 288 1009 288 1791 
Q 288 2575 706 3076 
Q 1125 3578 1766 3578 
Q 2131 3578 2409 3434 
Q 2688 3291 2919 2981 
L 2919 3500 
L 4044 3500 
L 4044 353 
Q 4044 -491 3511 -936 
Q 2978 -1381 1966 -1381 
Q 1638 -1381 1331 -1331 
Q 1025 -1281 716 -1178 
L 716 -306 
Q 1009 -475 1290 -558 
Q 1572 -641 1856 -641 
Q 2406 -641 2662 -400 
Q 2919 -159 2919 353 
L 2919 594 
z
M 2181 2772 
Q 1834 2772 1640 2515 
Q 1447 2259 1447 1791 
Q 1447 1309 1634 1061 
Q 1822 813 2181 813 
Q 2531 813 2725 1069 
Q 2919 1325 2919 1791 
Q 2919 2259 2725 2515 
Q 2531 2772 2181 2772 
z
" transform="scale(0.015625)"/>
      <path id="DejaVuSans-Bold-69" d="M 538 3500 
L 1656 3500 
L 1656 0 
L 538 0 
L 538 3500 
z
M 538 4863 
L 1656 4863 
L 1656 3950 
L 538 3950 
L 538 4863 
z
" transform="scale(0.015625)"/>
      <path id="DejaVuSans-Bold-61" d="M 2106 1575 
Q 1756 1575 1579 1456 
Q 1403 1338 1403 1106 
Q 1403 894 1545 773 
Q 1688 653 1941 653 
Q 2256 653 2472 879 
Q 2688 1106 2688 1447 
L 2688 1575 
L 2106 1575 
z
M 3816 1997 
L 3816 0 
L 2688 0 
L 2688 519 
Q 2463 200 2181 54 
Q 1900 -91 1497 -91 
Q 953 -91 614 226 
Q 275 544 275 1050 
Q 275 1666 698 1953 
Q 1122 2241 2028 2241 
L 2688 2241 
L 2688 2328 
Q 2688 2594 2478 2717 
Q 2269 2841 1825 2841 
Q 1466 2841 1156 2769 
Q 847 2697 581 2553 
L 581 3406 
Q 941 3494 1303 3539 
Q 1666 3584 2028 3584 
Q 2975 3584 3395 3211 
Q 3816 2838 3816 1997 
z
" transform="scale(0.015625)"/>
      <path id="DejaVuSans-Bold-20" transform="scale(0.015625)"/>
      <path id="DejaVuSans-Bold-6d" d="M 3781 2919 
Q 3994 3244 4286 3414 
Q 4578 3584 4928 3584 
Q 5531 3584 5847 3212 
Q 6163 2841 6163 2131 
L 6163 0 
L 5038 0 
L 5038 1825 
Q 5041 1866 5042 1909 
Q 5044 1953 5044 2034 
Q 5044 2406 4934 2573 
Q 4825 2741 4581 2741 
Q 4263 2741 4089 2478 
Q 3916 2216 3909 1719 
L 3909 0 
L 2784 0 
L 2784 1825 
Q 2784 2406 2684 2573 
Q 2584 2741 2328 2741 
Q 2006 2741 1831 2477 
Q 1656 2213 1656 1722 
L 1656 0 
L 531 0 
L 531 3500 
L 1656 3500 
L 1656 2988 
Q 1863 3284 2130 3434 
Q 2397 3584 2719 3584 
Q 3081 3584 3359 3409 
Q 3638 3234 3781 2919 
z
" transform="scale(0.015625)"/>
      <path id="DejaVuSans-Bold-64" d="M 2919 2988 
L 2919 4863 
L 4044 4863 
L 4044 0 
L 2919 0 
L 2919 506 
Q 2688 197 2409 53 
Q 2131 -91 1766 -91 
Q 1119 -91 703 423 
Q 288 938 288 1747 
Q 288 2556 703 3070 
Q 1119 3584 1766 3584 
Q 2128 3584 2408 3439 
Q 2688 3294 2919 2988 
z
M 2181 722 
Q 2541 722 2730 984 
Q 2919 1247 2919 1747 
Q 2919 2247 2730 2509 
Q 2541 2772 2181 2772 
Q 1825 2772 1636 2509 
Q 1447 2247 1447 1747 
Q 1447 1247 1636 984 
Q 1825 722 2181 722 
z
" transform="scale(0.015625)"/>
      <path id="DejaVuSans-Bold-75" d="M 500 1363 
L 500 3500 
L 1625 3500 
L 1625 3150 
Q 1625 2866 1622 2436 
Q 1619 2006 1619 1863 
Q 1619 1441 1641 1255 
Q 1663 1069 1716 984 
Q 1784 875 1895 815 
Q 2006 756 2150 756 
Q 2500 756 2700 1025 
Q 2900 1294 2900 1772 
L 2900 3500 
L 4019 3500 
L 4019 0 
L 2900 0 
L 2900 506 
Q 2647 200 2364 54 
Q 2081 -91 1741 -91 
Q 1134 -91 817 281 
Q 500 653 500 1363 
z
" transform="scale(0.015625)"/>
      <path id="DejaVuSans-Bold-6f" d="M 2203 2784 
Q 1831 2784 1636 2517 
Q 1441 2250 1441 1747 
Q 1441 1244 1636 976 
Q 1831 709 2203 709 
Q 2569 709 2762 976 
Q 2956 1244 2956 1747 
Q 2956 2250 2762 2517 
Q 2569 2784 2203 2784 
z
M 2203 3584 
Q 3106 3584 3614 3096 
Q 4122 2609 4122 1747 
Q 4122 884 3614 396 
Q 3106 -91 2203 -91 
Q 1297 -91 786 396 
Q 275 884 275 1747 
Q 275 2609 786 3096 
Q 1297 3584 2203 3584 
z
" transform="scale(0.015625)"/>
      <path id="DejaVuSans-Bold-73" d="M 3272 3391 
L 3272 2541 
Q 2913 2691 2578 2766 
Q 2244 2841 1947 2841 
Q 1628 2841 1473 2761 
Q 1319 2681 1319 2516 
Q 1319 2381 1436 2309 
Q 1553 2238 1856 2203 
L 2053 2175 
Q 2913 2066 3209 1816 
Q 3506 1566 3506 1031 
Q 3506 472 3093 190 
Q 2681 -91 1863 -91 
Q 1516 -91 1145 -36 
Q 775 19 384 128 
L 384 978 
Q 719 816 1070 734 
Q 1422 653 1784 653 
Q 2113 653 2278 743 
Q 2444 834 2444 1013 
Q 2444 1163 2330 1236 
Q 2216 1309 1875 1350 
L 1678 1375 
Q 931 1469 631 1722 
Q 331 1975 331 2491 
Q 331 3047 712 3315 
Q 1094 3584 1881 3584 
Q 2191 3584 2531 3537 
Q 2872 3491 3272 3391 
z
" transform="scale(0.015625)"/>
      <path id="DejaVuSans-Bold-63" d="M 3366 3391 
L 3366 2478 
Q 3138 2634 2908 2709 
Q 2678 2784 2431 2784 
Q 1963 2784 1702 2511 
Q 1441 2238 1441 1747 
Q 1441 1256 1702 982 
Q 1963 709 2431 709 
Q 2694 709 2930 787 
Q 3166 866 3366 1019 
L 3366 103 
Q 3103 6 2833 -42 
Q 2563 -91 2291 -91 
Q 1344 -91 809 395 
Q 275 881 275 1747 
Q 275 2613 809 3098 
Q 1344 3584 2291 3584 
Q 2566 3584 2833 3536 
Q 3100 3488 3366 3391 
z
" transform="scale(0.015625)"/>
      <path id="DejaVuSans-Bold-6c" d="M 538 4863 
L 1656 4863 
L 1656 0 
L 538 0 
L 538 4863 
z
" transform="scale(0.015625)"/>
      <path id="DejaVuSans-Bold-74" d="M 1759 4494 
L 1759 3500 
L 2913 3500 
L 2913 2700 
L 1759 2700 
L 1759 1216 
Q 1759 972 1856 886 
Q 1953 800 2241 800 
L 2816 800 
L 2816 0 
L 1856 0 
Q 1194 0 917 276 
Q 641 553 641 1216 
L 641 2700 
L 84 2700 
L 84 3500 
L 641 3500 
L 641 4494 
L 1759 4494 
z
" transform="scale(0.015625)"/>
     </defs>
     <use xlink:href="#DejaVuSans-Bold-45"/>
     <use xlink:href="#DejaVuSans-Bold-6e" transform="translate(68.310547 0)"/>
     <use xlink:href="#DejaVuSans-Bold-65" transform="translate(139.501953 0)"/>
     <use xlink:href="#DejaVuSans-Bold-72" transform="translate(207.324219 0)"/>
     <use xlink:href="#DejaVuSans-Bold-67" transform="translate(256.640625 0)"/>
     <use xlink:href="#DejaVuSans-Bold-69" transform="translate(328.222656 0)"/>
     <use xlink:href="#DejaVuSans-Bold-61" transform="translate(362.5 0)"/>
     <use xlink:href="#DejaVuSans-Bold-20" transform="translate(429.980469 0)"/>
     <use xlink:href="#DejaVuSans-Bold-6d" transform="translate(464.794922 0)"/>
     <use xlink:href="#DejaVuSans-Bold-65" transform="translate(568.994141 0)"/>
     <use xlink:href="#DejaVuSans-Bold-64" transform="translate(636.816406 0)"/>
     <use xlink:href="#DejaVuSans-Bold-69" transform="translate(708.398438 0)"/>
     <use xlink:href="#DejaVuSans-Bold-61" transform="translate(742.675781 0)"/>
     <use xlink:href="#DejaVuSans-Bold-20" transform="translate(810.15625 0)"/>
     <use xlink:href="#DejaVuSans-Bold-64" transform="translate(844.970703 0)"/>
     <use xlink:href="#DejaVuSans-Bold-69" transform="translate(916.552734 0)"/>
     <use xlink:href="#DejaVuSans-Bold-20" transform="translate(950.830078 0)"/>
     <use xlink:href="#DejaVuSans-Bold-75" transform="translate(985.644531 0)"/>
     <use xlink:href="#DejaVuSans-Bold-6e" transform="translate(1056.835938 0)"/>
     <use xlink:href="#DejaVuSans-Bold-20" transform="translate(1128.027344 0)"/>
     <use xlink:href="#DejaVuSans-Bold-6f" transform="translate(1162.841797 0)"/>
     <use xlink:href="#DejaVuSans-Bold-73" transform="translate(1231.542969 0)"/>
     <use xlink:href="#DejaVuSans-Bold-63" transform="translate(1291.064453 0)"/>
     <use xlink:href="#DejaVuSans-Bold-69" transform="translate(1350.341797 0)"/>
     <use xlink:href="#DejaVuSans-Bold-6c" transform="translate(1384.619141 0)"/>
     <use xlink:href="#DejaVuSans-Bold-6c" transform="translate(1418.896484 0)"/>
     <use xlink:href="#DejaVuSans-Bold-61" transform="translate(1453.173828 0)"/>
     <use xlink:href="#DejaVuSans-Bold-74" transform="translate(1520.654297 0)"/>
     <use xlink:href="#DejaVuSans-Bold-6f" transform="translate(1568.457031 0)"/>
     <use xlink:href="#DejaVuSans-Bold-72" transform="translate(1637.158203 0)"/>
     <use xlink:href="#DejaVuSans-Bold-65" transform="translate(1686.474609 0)"/>
     <use xlink:href="#DejaVuSans-Bold-20" transform="translate(1754.296875 0)"/>
     <use xlink:href="#DejaVuSans-Bold-63" transform="translate(1789.111328 0)"/>
     <use xlink:href="#DejaVuSans-Bold-6c" transform="translate(1848.388672 0)"/>
     <use xlink:href="#DejaVuSans-Bold-61" transform="translate(1882.666016 0)"/>
     <use xlink:href="#DejaVuSans-Bold-73" transform="translate(1950.146484 0)"/>
     <use xlink:href="#DejaVuSans-Bold-73" transform="translate(2009.667969 0)"/>
     <use xlink:href="#DejaVuSans-Bold-69" transform="translate(2069.189453 0)"/>
     <use xlink:href="#DejaVuSans-Bold-63" transform="translate(2103.466797 0)"/>
     <use xlink:href="#DejaVuSans-Bold-6f" transform="translate(2162.744141 0)"/>
     <use xlink:href="#DejaVuSans-Bold-20" transform="translate(2231.445312 0)"/>
     <use xlink:href="#DejaVuSans-Bold-65" transform="translate(2266.259766 0)"/>
     <use xlink:href="#DejaVuSans-Bold-20" transform="translate(2334.082031 0)"/>
     <use xlink:href="#DejaVuSans-Bold-64" transform="translate(2368.896484 0)"/>
     <use xlink:href="#DejaVuSans-Bold-69" transform="translate(2440.478516 0)"/>
     <use xlink:href="#DejaVuSans-Bold-20" transform="translate(2474.755859 0)"/>
     <use xlink:href="#DejaVuSans-Bold-45" transform="translate(2509.570312 0)"/>
     <use xlink:href="#DejaVuSans-Bold-69" transform="translate(2577.880859 0)"/>
     <use xlink:href="#DejaVuSans-Bold-6e" transform="translate(2612.158203 0)"/>
     <use xlink:href="#DejaVuSans-Bold-73" transform="translate(2683.349609 0)"/>
     <use xlink:href="#DejaVuSans-Bold-74" transform="translate(2742.871094 0)"/>
     <use xlink:href="#DejaVuSans-Bold-65" transform="translate(2790.673828 0)"/>
     <use xlink:href="#DejaVuSans-Bold-69" transform="translate(2858.496094 0)"/>
     <use xlink:href="#DejaVuSans-Bold-6e" transform="translate(2892.773438 0)"/>
    </g>
   </g>
   <g id="legend_1">
    <g id="line2d_36">
     <path d="M 61.496875 43.696094 
L 71.496875 43.696094 
L 81.496875 43.696094 
" style="fill: none; stroke: #1f77b4; stroke-width: 2.2; stroke-linecap: square"/>
    </g>
    <g id="text_23">
     <!-- oscillatore quantistico di Einstein -->
     <g transform="translate(89.496875 47.196094) scale(0.1 -0.1)">
      <defs>
       <path id="DejaVuSans-6f" d="M 1959 3097 
Q 1497 3097 1228 2736 
Q 959 2375 959 1747 
Q 959 1119 1226 758 
Q 1494 397 1959 397 
Q 2419 397 2687 759 
Q 2956 1122 2956 1747 
Q 2956 2369 2687 2733 
Q 2419 3097 1959 3097 
z
M 1959 3584 
Q 2709 3584 3137 3096 
Q 3566 2609 3566 1747 
Q 3566 888 3137 398 
Q 2709 -91 1959 -91 
Q 1206 -91 779 398 
Q 353 888 353 1747 
Q 353 2609 779 3096 
Q 1206 3584 1959 3584 
z
" transform="scale(0.015625)"/>
       <path id="DejaVuSans-73" d="M 2834 3397 
L 2834 2853 
Q 2591 2978 2328 3040 
Q 2066 3103 1784 3103 
Q 1356 3103 1142 2972 
Q 928 2841 928 2578 
Q 928 2378 1081 2264 
Q 1234 2150 1697 2047 
L 1894 2003 
Q 2506 1872 2764 1633 
Q 3022 1394 3022 966 
Q 3022 478 2636 193 
Q 2250 -91 1575 -91 
Q 1294 -91 989 -36 
Q 684 19 347 128 
L 347 722 
Q 666 556 975 473 
Q 1284 391 1588 391 
Q 1994 391 2212 530 
Q 2431 669 2431 922 
Q 2431 1156 2273 1281 
Q 2116 1406 1581 1522 
L 1381 1569 
Q 847 1681 609 1914 
Q 372 2147 372 2553 
Q 372 3047 722 3315 
Q 1072 3584 1716 3584 
Q 2034 3584 2315 3537 
Q 2597 3491 2834 3397 
z
" transform="scale(0.015625)"/>
       <path id="DejaVuSans-63" d="M 3122 3366 
L 3122 2828 
Q 2878 2963 2633 3030 
Q 2388 3097 2138 3097 
Q 1578 3097 1268 2742 
Q 959 2388 959 1747 
Q 959 1106 1268 751 
Q 1578 397 2138 397 
Q 2388 397 2633 464 
Q 2878 531 3122 666 
L 3122 134 
Q 2881 22 2623 -34 
Q 2366 -91 2075 -91 
Q 1284 -91 818 406 
Q 353 903 353 1747 
Q 353 2603 823 3093 
Q 1294 3584 2113 3584 
Q 2378 3584 2631 3529 
Q 2884 3475 3122 3366 
z
" transform="scale(0.015625)"/>
       <path id="DejaVuSans-69" d="M 603 3500 
L 1178 3500 
L 1178 0 
L 603 0 
L 603 3500 
z
M 603 4863 
L 1178 4863 
L 1178 4134 
L 603 4134 
L 603 4863 
z
" transform="scale(0.015625)"/>
       <path id="DejaVuSans-6c" d="M 603 4863 
L 1178 4863 
L 1178 0 
L 603 0 
L 603 4863 
z
" transform="scale(0.015625)"/>
       <path id="DejaVuSans-61" d="M 2194 1759 
Q 1497 1759 1228 1600 
Q 959 1441 959 1056 
Q 959 750 1161 570 
Q 1363 391 1709 391 
Q 2188 391 2477 730 
Q 2766 1069 2766 1631 
L 2766 1759 
L 2194 1759 
z
M 3341 1997 
L 3341 0 
L 2766 0 
L 2766 531 
Q 2569 213 2275 61 
Q 1981 -91 1556 -91 
Q 1019 -91 701 211 
Q 384 513 384 1019 
Q 384 1609 779 1909 
Q 1175 2209 1959 2209 
L 2766 2209 
L 2766 2266 
Q 2766 2663 2505 2880 
Q 2244 3097 1772 3097 
Q 1472 3097 1187 3025 
Q 903 2953 641 2809 
L 641 3341 
Q 956 3463 1253 3523 
Q 1550 3584 1831 3584 
Q 2591 3584 2966 3190 
Q 3341 2797 3341 1997 
z
" transform="scale(0.015625)"/>
       <path id="DejaVuSans-74" d="M 1172 4494 
L 1172 3500 
L 2356 3500 
L 2356 3053 
L 1172 3053 
L 1172 1153 
Q 1172 725 1289 603 
Q 1406 481 1766 481 
L 2356 481 
L 2356 0 
L 1766 0 
Q 1100 0 847 248 
Q 594 497 594 1153 
L 594 3053 
L 172 3053 
L 172 3500 
L 594 3500 
L 594 4494 
L 1172 4494 
z
" transform="scale(0.015625)"/>
       <path id="DejaVuSans-72" d="M 2631 2963 
Q 2534 3019 2420 3045 
Q 2306 3072 2169 3072 
Q 1681 3072 1420 2755 
Q 1159 2438 1159 1844 
L 1159 0 
L 581 0 
L 581 3500 
L 1159 3500 
L 1159 2956 
Q 1341 3275 1631 3429 
Q 1922 3584 2338 3584 
Q 2397 3584 2469 3576 
Q 2541 3569 2628 3553 
L 2631 2963 
z
" transform="scale(0.015625)"/>
       <path id="DejaVuSans-65" d="M 3597 1894 
L 3597 1613 
L 953 1613 
Q 991 1019 1311 708 
Q 1631 397 2203 397 
Q 2534 397 2845 478 
Q 3156 559 3463 722 
L 3463 178 
Q 3153 47 2828 -22 
Q 2503 -91 2169 -91 
Q 1331 -91 842 396 
Q 353 884 353 1716 
Q 353 2575 817 3079 
Q 1281 3584 2069 3584 
Q 2775 3584 3186 3129 
Q 3597 2675 3597 1894 
z
M 3022 2063 
Q 3016 2534 2758 2815 
Q 2500 3097 2075 3097 
Q 1594 3097 1305 2825 
Q 1016 2553 972 2059 
L 3022 2063 
z
" transform="scale(0.015625)"/>
       <path id="DejaVuSans-20" transform="scale(0.015625)"/>
       <path id="DejaVuSans-71" d="M 947 1747 
Q 947 1113 1208 752 
Q 1469 391 1925 391 
Q 2381 391 2643 752 
Q 2906 1113 2906 1747 
Q 2906 2381 2643 2742 
Q 2381 3103 1925 3103 
Q 1469 3103 1208 2742 
Q 947 2381 947 1747 
z
M 2906 525 
Q 2725 213 2448 61 
Q 2172 -91 1784 -91 
Q 1150 -91 751 415 
Q 353 922 353 1747 
Q 353 2572 751 3078 
Q 1150 3584 1784 3584 
Q 2172 3584 2448 3432 
Q 2725 3281 2906 2969 
L 2906 3500 
L 3481 3500 
L 3481 -1331 
L 2906 -1331 
L 2906 525 
z
" transform="scale(0.015625)"/>
       <path id="DejaVuSans-75" d="M 544 1381 
L 544 3500 
L 1119 3500 
L 1119 1403 
Q 1119 906 1312 657 
Q 1506 409 1894 409 
Q 2359 409 2629 706 
Q 2900 1003 2900 1516 
L 2900 3500 
L 3475 3500 
L 3475 0 
L 2900 0 
L 2900 538 
Q 2691 219 2414 64 
Q 2138 -91 1772 -91 
Q 1169 -91 856 284 
Q 544 659 544 1381 
z
M 1991 3584 
L 1991 3584 
z
" transform="scale(0.015625)"/>
       <path id="DejaVuSans-6e" d="M 3513 2113 
L 3513 0 
L 2938 0 
L 2938 2094 
Q 2938 2591 2744 2837 
Q 2550 3084 2163 3084 
Q 1697 3084 1428 2787 
Q 1159 2491 1159 1978 
L 1159 0 
L 581 0 
L 581 3500 
L 1159 3500 
L 1159 2956 
Q 1366 3272 1645 3428 
Q 1925 3584 2291 3584 
Q 2894 3584 3203 3211 
Q 3513 2838 3513 2113 
z
" transform="scale(0.015625)"/>
       <path id="DejaVuSans-64" d="M 2906 2969 
L 2906 4863 
L 3481 4863 
L 3481 0 
L 2906 0 
L 2906 525 
Q 2725 213 2448 61 
Q 2172 -91 1784 -91 
Q 1150 -91 751 415 
Q 353 922 353 1747 
Q 353 2572 751 3078 
Q 1150 3584 1784 3584 
Q 2172 3584 2448 3432 
Q 2725 3281 2906 2969 
z
M 947 1747 
Q 947 1113 1208 752 
Q 1469 391 1925 391 
Q 2381 391 2643 752 
Q 2906 1113 2906 1747 
Q 2906 2381 2643 2742 
Q 2381 3103 1925 3103 
Q 1469 3103 1208 2742 
Q 947 2381 947 1747 
z
" transform="scale(0.015625)"/>
      </defs>
      <use xlink:href="#DejaVuSans-6f"/>
      <use xlink:href="#DejaVuSans-73" transform="translate(61.181641 0)"/>
      <use xlink:href="#DejaVuSans-63" transform="translate(113.28125 0)"/>
      <use xlink:href="#DejaVuSans-69" transform="translate(168.261719 0)"/>
      <use xlink:href="#DejaVuSans-6c" transform="translate(196.044922 0)"/>
      <use xlink:href="#DejaVuSans-6c" transform="translate(223.828125 0)"/>
      <use xlink:href="#DejaVuSans-61" transform="translate(251.611328 0)"/>
      <use xlink:href="#DejaVuSans-74" transform="translate(312.890625 0)"/>
      <use xlink:href="#DejaVuSans-6f" transform="translate(352.099609 0)"/>
      <use xlink:href="#DejaVuSans-72" transform="translate(413.28125 0)"/>
      <use xlink:href="#DejaVuSans-65" transform="translate(452.144531 0)"/>
      <use xlink:href="#DejaVuSans-20" transform="translate(513.667969 0)"/>
      <use xlink:href="#DejaVuSans-71" transform="translate(545.455078 0)"/>
      <use xlink:href="#DejaVuSans-75" transform="translate(608.931641 0)"/>
      <use xlink:href="#DejaVuSans-61" transform="translate(672.310547 0)"/>
      <use xlink:href="#DejaVuSans-6e" transform="translate(733.589844 0)"/>
      <use xlink:href="#DejaVuSans-74" transform="translate(796.96875 0)"/>
      <use xlink:href="#DejaVuSans-69" transform="translate(836.177734 0)"/>
      <use xlink:href="#DejaVuSans-73" transform="translate(863.960938 0)"/>
      <use xlink:href="#DejaVuSans-74" transform="translate(916.060547 0)"/>
      <use xlink:href="#DejaVuSans-69" transform="translate(955.269531 0)"/>
      <use xlink:href="#DejaVuSans-63" transform="translate(983.052734 0)"/>
      <use xlink:href="#DejaVuSans-6f" transform="translate(1038.033203 0)"/>
      <use xlink:href="#DejaVuSans-20" transform="translate(1099.214844 0)"/>
      <use xlink:href="#DejaVuSans-64" transform="translate(1131.001953 0)"/>
      <use xlink:href="#DejaVuSans-69" transform="translate(1194.478516 0)"/>
      <use xlink:href="#DejaVuSans-20" transform="translate(1222.261719 0)"/>
      <use xlink:href="#DejaVuSans-45" transform="translate(1254.048828 0)"/>
      <use xlink:href="#DejaVuSans-69" transform="translate(1317.232422 0)"/>
      <use xlink:href="#DejaVuSans-6e" transform="translate(1345.015625 0)"/>
      <use xlink:href="#DejaVuSans-73" transform="translate(1408.394531 0)"/>
      <use xlink:href="#DejaVuSans-74" transform="translate(1460.494141 0)"/>
      <use xlink:href="#DejaVuSans-65" transform="translate(1499.703125 0)"/>
      <use xlink:href="#DejaVuSans-69" transform="translate(1561.226562 0)"/>
      <use xlink:href="#DejaVuSans-6e" transform="translate(1589.009766 0)"/>
     </g>
    </g>
    <g id="line2d_37">
     <path d="M 61.496875 58.374219 
L 71.496875 58.374219 
L 81.496875 58.374219 
" style="fill: none; stroke-dasharray: 6.29,2.72; stroke-dashoffset: 0; stroke: #ff7f0e; stroke-width: 1.7"/>
    </g>
    <g id="text_24">
     <!-- limite classico -->
     <g transform="translate(89.496875 61.874219) scale(0.1 -0.1)">
      <defs>
       <path id="DejaVuSans-6d" d="M 3328 2828 
Q 3544 3216 3844 3400 
Q 4144 3584 4550 3584 
Q 5097 3584 5394 3201 
Q 5691 2819 5691 2113 
L 5691 0 
L 5113 0 
L 5113 2094 
Q 5113 2597 4934 2840 
Q 4756 3084 4391 3084 
Q 3944 3084 3684 2787 
Q 3425 2491 3425 1978 
L 3425 0 
L 2847 0 
L 2847 2094 
Q 2847 2600 2669 2842 
Q 2491 3084 2119 3084 
Q 1678 3084 1418 2786 
Q 1159 2488 1159 1978 
L 1159 0 
L 581 0 
L 581 3500 
L 1159 3500 
L 1159 2956 
Q 1356 3278 1631 3431 
Q 1906 3584 2284 3584 
Q 2666 3584 2933 3390 
Q 3200 3197 3328 2828 
z
" transform="scale(0.015625)"/>
      </defs>
      <use xlink:href="#DejaVuSans-6c"/>
      <use xlink:href="#DejaVuSans-69" transform="translate(27.783203 0)"/>
      <use xlink:href="#DejaVuSans-6d" transform="translate(55.566406 0)"/>
      <use xlink:href="#DejaVuSans-69" transform="translate(152.978516 0)"/>
      <use xlink:href="#DejaVuSans-74" transform="translate(180.761719 0)"/>
      <use xlink:href="#DejaVuSans-65" transform="translate(219.970703 0)"/>
      <use xlink:href="#DejaVuSans-20" transform="translate(281.494141 0)"/>
      <use xlink:href="#DejaVuSans-63" transform="translate(313.28125 0)"/>
      <use xlink:href="#DejaVuSans-6c" transform="translate(368.261719 0)"/>
      <use xlink:href="#DejaVuSans-61" transform="translate(396.044922 0)"/>
      <use xlink:href="#DejaVuSans-73" transform="translate(457.324219 0)"/>
      <use xlink:href="#DejaVuSans-73" transform="translate(509.423828 0)"/>
      <use xlink:href="#DejaVuSans-69" transform="translate(561.523438 0)"/>
      <use xlink:href="#DejaVuSans-63" transform="translate(589.306641 0)"/>
      <use xlink:href="#DejaVuSans-6f" transform="translate(644.287109 0)"/>
     </g>
    </g>
   </g>
  </g>
  <g id="text_25">
   <!-- A bassa temperatura resta l'energia di punto zero; ad alta temperatura il risultato quantistico tende alla legge classica. -->
   <g transform="translate(7.2 436.893656) scale(0.1 -0.1)">
    <defs>
     <path id="DejaVuSans-41" d="M 2188 4044 
L 1331 1722 
L 3047 1722 
L 2188 4044 
z
M 1831 4666 
L 2547 4666 
L 4325 0 
L 3669 0 
L 3244 1197 
L 1141 1197 
L 716 0 
L 50 0 
L 1831 4666 
z
" transform="scale(0.015625)"/>
     <path id="DejaVuSans-62" d="M 3116 1747 
Q 3116 2381 2855 2742 
Q 2594 3103 2138 3103 
Q 1681 3103 1420 2742 
Q 1159 2381 1159 1747 
Q 1159 1113 1420 752 
Q 1681 391 2138 391 
Q 2594 391 2855 752 
Q 3116 1113 3116 1747 
z
M 1159 2969 
Q 1341 3281 1617 3432 
Q 1894 3584 2278 3584 
Q 2916 3584 3314 3078 
Q 3713 2572 3713 1747 
Q 3713 922 3314 415 
Q 2916 -91 2278 -91 
Q 1894 -91 1617 61 
Q 1341 213 1159 525 
L 1159 0 
L 581 0 
L 581 4863 
L 1159 4863 
L 1159 2969 
z
" transform="scale(0.015625)"/>
     <path id="DejaVuSans-70" d="M 1159 525 
L 1159 -1331 
L 581 -1331 
L 581 3500 
L 1159 3500 
L 1159 2969 
Q 1341 3281 1617 3432 
Q 1894 3584 2278 3584 
Q 2916 3584 3314 3078 
Q 3713 2572 3713 1747 
Q 3713 922 3314 415 
Q 2916 -91 2278 -91 
Q 1894 -91 1617 61 
Q 1341 213 1159 525 
z
M 3116 1747 
Q 3116 2381 2855 2742 
Q 2594 3103 2138 3103 
Q 1681 3103 1420 2742 
Q 1159 2381 1159 1747 
Q 1159 1113 1420 752 
Q 1681 391 2138 391 
Q 2594 391 2855 752 
Q 3116 1113 3116 1747 
z
" transform="scale(0.015625)"/>
     <path id="DejaVuSans-27" d="M 1147 4666 
L 1147 2931 
L 616 2931 
L 616 4666 
L 1147 4666 
z
" transform="scale(0.015625)"/>
     <path id="DejaVuSans-67" d="M 2906 1791 
Q 2906 2416 2648 2759 
Q 2391 3103 1925 3103 
Q 1463 3103 1205 2759 
Q 947 2416 947 1791 
Q 947 1169 1205 825 
Q 1463 481 1925 481 
Q 2391 481 2648 825 
Q 2906 1169 2906 1791 
z
M 3481 434 
Q 3481 -459 3084 -895 
Q 2688 -1331 1869 -1331 
Q 1566 -1331 1297 -1286 
Q 1028 -1241 775 -1147 
L 775 -588 
Q 1028 -725 1275 -790 
Q 1522 -856 1778 -856 
Q 2344 -856 2625 -561 
Q 2906 -266 2906 331 
L 2906 616 
Q 2728 306 2450 153 
Q 2172 0 1784 0 
Q 1141 0 747 490 
Q 353 981 353 1791 
Q 353 2603 747 3093 
Q 1141 3584 1784 3584 
Q 2172 3584 2450 3431 
Q 2728 3278 2906 2969 
L 2906 3500 
L 3481 3500 
L 3481 434 
z
" transform="scale(0.015625)"/>
     <path id="DejaVuSans-7a" d="M 353 3500 
L 3084 3500 
L 3084 2975 
L 922 459 
L 3084 459 
L 3084 0 
L 275 0 
L 275 525 
L 2438 3041 
L 353 3041 
L 353 3500 
z
" transform="scale(0.015625)"/>
     <path id="DejaVuSans-3b" d="M 750 3309 
L 1409 3309 
L 1409 2516 
L 750 2516 
L 750 3309 
z
M 750 794 
L 1409 794 
L 1409 256 
L 897 -744 
L 494 -744 
L 750 256 
L 750 794 
z
" transform="scale(0.015625)"/>
    </defs>
    <use xlink:href="#DejaVuSans-41"/>
    <use xlink:href="#DejaVuSans-20" transform="translate(68.408203 0)"/>
    <use xlink:href="#DejaVuSans-62" transform="translate(100.195312 0)"/>
    <use xlink:href="#DejaVuSans-61" transform="translate(163.671875 0)"/>
    <use xlink:href="#DejaVuSans-73" transform="translate(224.951172 0)"/>
    <use xlink:href="#DejaVuSans-73" transform="translate(277.050781 0)"/>
    <use xlink:href="#DejaVuSans-61" transform="translate(329.150391 0)"/>
    <use xlink:href="#DejaVuSans-20" transform="translate(390.429688 0)"/>
    <use xlink:href="#DejaVuSans-74" transform="translate(422.216797 0)"/>
    <use xlink:href="#DejaVuSans-65" transform="translate(461.425781 0)"/>
    <use xlink:href="#DejaVuSans-6d" transform="translate(522.949219 0)"/>
    <use xlink:href="#DejaVuSans-70" transform="translate(620.361328 0)"/>
    <use xlink:href="#DejaVuSans-65" transform="translate(683.837891 0)"/>
    <use xlink:href="#DejaVuSans-72" transform="translate(745.361328 0)"/>
    <use xlink:href="#DejaVuSans-61" transform="translate(786.474609 0)"/>
    <use xlink:href="#DejaVuSans-74" transform="translate(847.753906 0)"/>
    <use xlink:href="#DejaVuSans-75" transform="translate(886.962891 0)"/>
    <use xlink:href="#DejaVuSans-72" transform="translate(950.341797 0)"/>
    <use xlink:href="#DejaVuSans-61" transform="translate(991.455078 0)"/>
    <use xlink:href="#DejaVuSans-20" transform="translate(1052.734375 0)"/>
    <use xlink:href="#DejaVuSans-72" transform="translate(1084.521484 0)"/>
    <use xlink:href="#DejaVuSans-65" transform="translate(1123.384766 0)"/>
    <use xlink:href="#DejaVuSans-73" transform="translate(1184.908203 0)"/>
    <use xlink:href="#DejaVuSans-74" transform="translate(1237.007812 0)"/>
    <use xlink:href="#DejaVuSans-61" transform="translate(1276.216797 0)"/>
    <use xlink:href="#DejaVuSans-20" transform="translate(1337.496094 0)"/>
    <use xlink:href="#DejaVuSans-6c" transform="translate(1369.283203 0)"/>
    <use xlink:href="#DejaVuSans-27" transform="translate(1397.066406 0)"/>
    <use xlink:href="#DejaVuSans-65" transform="translate(1424.556641 0)"/>
    <use xlink:href="#DejaVuSans-6e" transform="translate(1486.080078 0)"/>
    <use xlink:href="#DejaVuSans-65" transform="translate(1549.458984 0)"/>
    <use xlink:href="#DejaVuSans-72" transform="translate(1610.982422 0)"/>
    <use xlink:href="#DejaVuSans-67" transform="translate(1650.345703 0)"/>
    <use xlink:href="#DejaVuSans-69" transform="translate(1713.822266 0)"/>
    <use xlink:href="#DejaVuSans-61" transform="translate(1741.605469 0)"/>
    <use xlink:href="#DejaVuSans-20" transform="translate(1802.884766 0)"/>
    <use xlink:href="#DejaVuSans-64" transform="translate(1834.671875 0)"/>
    <use xlink:href="#DejaVuSans-69" transform="translate(1898.148438 0)"/>
    <use xlink:href="#DejaVuSans-20" transform="translate(1925.931641 0)"/>
    <use xlink:href="#DejaVuSans-70" transform="translate(1957.71875 0)"/>
    <use xlink:href="#DejaVuSans-75" transform="translate(2021.195312 0)"/>
    <use xlink:href="#DejaVuSans-6e" transform="translate(2084.574219 0)"/>
    <use xlink:href="#DejaVuSans-74" transform="translate(2147.953125 0)"/>
    <use xlink:href="#DejaVuSans-6f" transform="translate(2187.162109 0)"/>
    <use xlink:href="#DejaVuSans-20" transform="translate(2248.34375 0)"/>
    <use xlink:href="#DejaVuSans-7a" transform="translate(2280.130859 0)"/>
    <use xlink:href="#DejaVuSans-65" transform="translate(2332.621094 0)"/>
    <use xlink:href="#DejaVuSans-72" transform="translate(2394.144531 0)"/>
    <use xlink:href="#DejaVuSans-6f" transform="translate(2433.007812 0)"/>
    <use xlink:href="#DejaVuSans-3b" transform="translate(2494.189453 0)"/>
    <use xlink:href="#DejaVuSans-20" transform="translate(2527.880859 0)"/>
    <use xlink:href="#DejaVuSans-61" transform="translate(2559.667969 0)"/>
    <use xlink:href="#DejaVuSans-64" transform="translate(2620.947266 0)"/>
    <use xlink:href="#DejaVuSans-20" transform="translate(2684.423828 0)"/>
    <use xlink:href="#DejaVuSans-61" transform="translate(2716.210938 0)"/>
    <use xlink:href="#DejaVuSans-6c" transform="translate(2777.490234 0)"/>
    <use xlink:href="#DejaVuSans-74" transform="translate(2805.273438 0)"/>
    <use xlink:href="#DejaVuSans-61" transform="translate(2844.482422 0)"/>
    <use xlink:href="#DejaVuSans-20" transform="translate(2905.761719 0)"/>
    <use xlink:href="#DejaVuSans-74" transform="translate(2937.548828 0)"/>
    <use xlink:href="#DejaVuSans-65" transform="translate(2976.757812 0)"/>
    <use xlink:href="#DejaVuSans-6d" transform="translate(3038.28125 0)"/>
    <use xlink:href="#DejaVuSans-70" transform="translate(3135.693359 0)"/>
    <use xlink:href="#DejaVuSans-65" transform="translate(3199.169922 0)"/>
    <use xlink:href="#DejaVuSans-72" transform="translate(3260.693359 0)"/>
    <use xlink:href="#DejaVuSans-61" transform="translate(3301.806641 0)"/>
    <use xlink:href="#DejaVuSans-74" transform="translate(3363.085938 0)"/>
    <use xlink:href="#DejaVuSans-75" transform="translate(3402.294922 0)"/>
    <use xlink:href="#DejaVuSans-72" transform="translate(3465.673828 0)"/>
    <use xlink:href="#DejaVuSans-61" transform="translate(3506.787109 0)"/>
    <use xlink:href="#DejaVuSans-20" transform="translate(3568.066406 0)"/>
    <use xlink:href="#DejaVuSans-69" transform="translate(3599.853516 0)"/>
    <use xlink:href="#DejaVuSans-6c" transform="translate(3627.636719 0)"/>
    <use xlink:href="#DejaVuSans-20" transform="translate(3655.419922 0)"/>
    <use xlink:href="#DejaVuSans-72" transform="translate(3687.207031 0)"/>
    <use xlink:href="#DejaVuSans-69" transform="translate(3728.320312 0)"/>
    <use xlink:href="#DejaVuSans-73" transform="translate(3756.103516 0)"/>
    <use xlink:href="#DejaVuSans-75" transform="translate(3808.203125 0)"/>
    <use xlink:href="#DejaVuSans-6c" transform="translate(3871.582031 0)"/>
    <use xlink:href="#DejaVuSans-74" transform="translate(3899.365234 0)"/>
    <use xlink:href="#DejaVuSans-61" transform="translate(3938.574219 0)"/>
    <use xlink:href="#DejaVuSans-74" transform="translate(3999.853516 0)"/>
    <use xlink:href="#DejaVuSans-6f" transform="translate(4039.0625 0)"/>
    <use xlink:href="#DejaVuSans-20" transform="translate(4100.244141 0)"/>
    <use xlink:href="#DejaVuSans-71" transform="translate(4132.03125 0)"/>
    <use xlink:href="#DejaVuSans-75" transform="translate(4195.507812 0)"/>
    <use xlink:href="#DejaVuSans-61" transform="translate(4258.886719 0)"/>
    <use xlink:href="#DejaVuSans-6e" transform="translate(4320.166016 0)"/>
    <use xlink:href="#DejaVuSans-74" transform="translate(4383.544922 0)"/>
    <use xlink:href="#DejaVuSans-69" transform="translate(4422.753906 0)"/>
    <use xlink:href="#DejaVuSans-73" transform="translate(4450.537109 0)"/>
    <use xlink:href="#DejaVuSans-74" transform="translate(4502.636719 0)"/>
    <use xlink:href="#DejaVuSans-69" transform="translate(4541.845703 0)"/>
    <use xlink:href="#DejaVuSans-63" transform="translate(4569.628906 0)"/>
    <use xlink:href="#DejaVuSans-6f" transform="translate(4624.609375 0)"/>
    <use xlink:href="#DejaVuSans-20" transform="translate(4685.791016 0)"/>
    <use xlink:href="#DejaVuSans-74" transform="translate(4717.578125 0)"/>
    <use xlink:href="#DejaVuSans-65" transform="translate(4756.787109 0)"/>
    <use xlink:href="#DejaVuSans-6e" transform="translate(4818.310547 0)"/>
    <use xlink:href="#DejaVuSans-64" transform="translate(4881.689453 0)"/>
    <use xlink:href="#DejaVuSans-65" transform="translate(4945.166016 0)"/>
    <use xlink:href="#DejaVuSans-20" transform="translate(5006.689453 0)"/>
    <use xlink:href="#DejaVuSans-61" transform="translate(5038.476562 0)"/>
    <use xlink:href="#DejaVuSans-6c" transform="translate(5099.755859 0)"/>
    <use xlink:href="#DejaVuSans-6c" transform="translate(5127.539062 0)"/>
    <use xlink:href="#DejaVuSans-61" transform="translate(5155.322266 0)"/>
    <use xlink:href="#DejaVuSans-20" transform="translate(5216.601562 0)"/>
    <use xlink:href="#DejaVuSans-6c" transform="translate(5248.388672 0)"/>
    <use xlink:href="#DejaVuSans-65" transform="translate(5276.171875 0)"/>
    <use xlink:href="#DejaVuSans-67" transform="translate(5337.695312 0)"/>
    <use xlink:href="#DejaVuSans-67" transform="translate(5401.171875 0)"/>
    <use xlink:href="#DejaVuSans-65" transform="translate(5464.648438 0)"/>
    <use xlink:href="#DejaVuSans-20" transform="translate(5526.171875 0)"/>
    <use xlink:href="#DejaVuSans-63" transform="translate(5557.958984 0)"/>
    <use xlink:href="#DejaVuSans-6c" transform="translate(5612.939453 0)"/>
    <use xlink:href="#DejaVuSans-61" transform="translate(5640.722656 0)"/>
    <use xlink:href="#DejaVuSans-73" transform="translate(5702.001953 0)"/>
    <use xlink:href="#DejaVuSans-73" transform="translate(5754.101562 0)"/>
    <use xlink:href="#DejaVuSans-69" transform="translate(5806.201172 0)"/>
    <use xlink:href="#DejaVuSans-63" transform="translate(5833.984375 0)"/>
    <use xlink:href="#DejaVuSans-61" transform="translate(5888.964844 0)"/>
    <use xlink:href="#DejaVuSans-2e" transform="translate(5950.244141 0)"/>
   </g>
  </g>
 </g>
 <defs>
  <clipPath id="pb5e5060c6e">
   <rect x="52.496875" y="30.597656" width="524.52" height="365.904"/>
  </clipPath>
 </defs>
</svg>
