<?xml version="1.0" encoding="utf-8" standalone="no"?>
<!DOCTYPE svg PUBLIC "-//W3C//DTD SVG 1.1//EN"
  "http://www.w3.org/Graphics/SVG/1.1/DTD/svg11.dtd">
<svg xmlns:xlink="http://www.w3.org/1999/xlink" width="552.62pt" height="458.485344pt" viewBox="0 0 552.62 458.485344" xmlns="http://www.w3.org/2000/svg" version="1.1">
 <metadata>
  <rdf:RDF xmlns:dc="http://purl.org/dc/elements/1.1/" xmlns:cc="http://creativecommons.org/ns#" xmlns:rdf="http://www.w3.org/1999/02/22-rdf-syntax-ns#">
   <cc:Work>
    <dc:type rdf:resource="http://purl.org/dc/dcmitype/StillImage"/>
    <dc:date>2026-06-16T09:31:07.939008</dc:date>
    <dc:format>image/svg+xml</dc:format>
    <dc:creator>
     <cc:Agent>
      <dc:title>Matplotlib v3.10.8, https://matplotlib.org/</dc:title>
     </cc:Agent>
    </dc:creator>
   </cc:Work>
  </rdf:RDF>
 </metadata>
 <defs>
  <style type="text/css">*{stroke-linejoin: round; stroke-linecap: butt}</style>
 </defs>
 <g id="figure_1">
  <g id="patch_1">
   <path d="M 0 458.485344 
L 552.62 458.485344 
L 552.62 0 
L 0 0 
z
" style="fill: #ffffff"/>
  </g>
  <g id="axes_1">
   <g id="patch_2">
    <path d="M 20.9 407.589656 
L 545.42 407.589656 
L 545.42 30.597656 
L 20.9 30.597656 
z
" style="fill: #ffffff"/>
   </g>
   <g id="FillBetweenPolyCollection_1">
    <path d="M 20.9 407.589656 
L 20.9 407.589656 
L 21.775659 407.589656 
L 22.651319 407.589656 
L 23.526978 407.589656 
L 24.402638 407.589656 
L 25.278297 407.589656 
L 26.153957 407.589656 
L 27.029616 407.589656 
L 27.905275 407.589656 
L 28.780935 407.589656 
L 29.656594 407.589656 
L 30.532254 407.589656 
L 31.407913 407.589656 
L 32.283573 407.589656 
L 33.159232 407.589656 
L 34.034891 407.589656 
L 34.910551 407.589656 
L 35.78621 407.589656 
L 36.66187 407.589656 
L 37.537529 407.589656 
L 38.413189 407.589656 
L 39.288848 407.589656 
L 40.164508 407.589656 
L 41.040167 407.589656 
L 41.915826 407.589656 
L 42.791486 407.589656 
L 43.667145 407.589656 
L 44.542805 407.589656 
L 45.418464 407.589656 
L 46.294124 407.589656 
L 47.169783 407.589656 
L 48.045442 407.589656 
L 48.921102 407.589656 
L 49.796761 407.589656 
L 50.672421 407.589656 
L 51.54808 407.589656 
L 52.42374 407.589656 
L 53.299399 407.589656 
L 54.175058 407.589656 
L 55.050718 407.589656 
L 55.926377 407.589656 
L 56.802037 407.589656 
L 57.677696 407.589656 
L 58.553356 407.589656 
L 59.429015 407.589656 
L 60.304674 407.589656 
L 61.180334 407.589656 
L 62.055993 407.589656 
L 62.931653 407.589656 
L 63.807312 407.589656 
L 64.682972 407.589656 
L 65.558631 407.589656 
L 66.43429 407.589656 
L 67.30995 407.589656 
L 68.185609 407.589656 
L 69.061269 407.589656 
L 69.936928 407.589656 
L 70.812588 407.589656 
L 71.688247 407.589656 
L 72.563907 407.589656 
L 73.439566 407.589656 
L 74.315225 407.589656 
L 75.190885 407.589656 
L 76.066544 407.589656 
L 76.942204 407.589656 
L 77.817863 407.589656 
L 78.693523 407.589656 
L 79.569182 407.589656 
L 80.444841 407.589656 
L 81.320501 407.589656 
L 82.19616 407.589656 
L 83.07182 407.589656 
L 83.947479 407.589656 
L 84.823139 407.589656 
L 85.698798 407.589656 
L 86.574457 407.589656 
L 87.450117 407.589656 
L 88.325776 407.589656 
L 89.201436 407.589656 
L 90.077095 407.589656 
L 90.952755 407.589656 
L 91.828414 407.589656 
L 92.704073 407.589656 
L 93.579733 407.589656 
L 94.455392 407.589656 
L 95.331052 407.589656 
L 96.206711 407.589656 
L 97.082371 407.589656 
L 97.95803 407.589656 
L 98.833689 407.589656 
L 99.709349 407.589656 
L 100.585008 407.589656 
L 101.460668 407.589656 
L 102.336327 407.589656 
L 103.211987 407.589656 
L 104.087646 407.589656 
L 104.963306 407.589656 
L 105.838965 407.589656 
L 106.714624 407.589656 
L 107.590284 407.589656 
L 108.465943 407.589656 
L 109.341603 407.589656 
L 110.217262 407.589656 
L 111.092922 407.589656 
L 111.968581 407.589656 
L 112.84424 407.589656 
L 113.7199 407.589656 
L 114.595559 407.589656 
L 115.471219 407.589656 
L 116.346878 407.589656 
L 117.222538 407.589656 
L 118.098197 407.589656 
L 118.973856 407.589656 
L 119.849516 407.589656 
L 120.725175 407.589656 
L 121.600835 407.589656 
L 122.476494 407.589656 
L 123.352154 407.589656 
L 124.227813 407.589656 
L 125.103472 407.589656 
L 125.979132 407.589656 
L 126.854791 407.589656 
L 127.730451 407.589656 
L 128.60611 407.589656 
L 129.48177 407.589656 
L 130.357429 407.589656 
L 131.233088 407.589656 
L 132.108748 407.589656 
L 132.984407 407.589656 
L 133.860067 407.589656 
L 134.735726 407.589656 
L 135.611386 407.589656 
L 136.487045 407.589656 
L 137.362705 407.589656 
L 138.238364 407.589656 
L 139.114023 407.589656 
L 139.989683 407.589656 
L 140.865342 407.589656 
L 141.741002 407.589656 
L 142.616661 407.589656 
L 143.492321 407.589656 
L 144.36798 407.589656 
L 145.243639 407.589656 
L 146.119299 407.589656 
L 146.994958 407.589656 
L 147.870618 407.589656 
L 148.746277 407.589656 
L 149.621937 407.589656 
L 150.497596 407.589656 
L 151.373255 407.589656 
L 152.248915 407.589656 
L 153.124574 407.589656 
L 154.000234 407.589656 
L 154.875893 407.589656 
L 155.751553 407.589656 
L 156.627212 407.589656 
L 157.502871 407.589656 
L 158.378531 407.589656 
L 159.25419 407.589656 
L 160.12985 407.589656 
L 161.005509 407.589656 
L 161.881169 407.589656 
L 162.756828 407.589656 
L 163.632487 407.589656 
L 164.508147 407.589656 
L 165.383806 407.589656 
L 166.259466 407.589656 
L 167.135125 407.589656 
L 168.010785 407.589656 
L 168.886444 407.589656 
L 169.762104 407.589656 
L 170.637763 407.589656 
L 171.513422 407.589656 
L 172.389082 407.589656 
L 173.264741 407.589656 
L 174.140401 407.589656 
L 175.01606 407.589656 
L 175.89172 407.589656 
L 176.767379 407.589656 
L 177.643038 407.589656 
L 178.518698 407.589656 
L 179.394357 407.589656 
L 180.270017 407.589656 
L 181.145676 407.589656 
L 182.021336 407.589656 
L 182.896995 407.589656 
L 183.772654 407.589656 
L 184.648314 407.589656 
L 185.523973 407.589656 
L 186.399633 407.589656 
L 187.275292 407.589656 
L 188.150952 407.589656 
L 189.026611 407.589656 
L 189.90227 407.589656 
L 190.77793 407.589656 
L 191.653589 407.589656 
L 192.529249 407.589656 
L 193.404908 407.589656 
L 194.280568 407.589656 
L 195.156227 407.589656 
L 196.031886 407.589656 
L 196.907546 407.589656 
L 197.783205 407.589656 
L 198.658865 407.589656 
L 199.534524 407.589656 
L 200.410184 407.589656 
L 201.285843 407.589656 
L 202.161503 407.589656 
L 203.037162 407.589656 
L 203.912821 407.589656 
L 204.788481 407.589656 
L 205.66414 407.589656 
L 206.5398 407.589656 
L 207.415459 407.589656 
L 208.291119 407.589656 
L 209.166778 407.589656 
L 210.042437 407.589656 
L 210.918097 407.589656 
L 211.793756 407.589656 
L 212.669416 407.589656 
L 213.545075 407.589656 
L 214.420735 407.589656 
L 215.296394 407.589656 
L 216.172053 407.589656 
L 217.047713 407.589656 
L 217.923372 407.589656 
L 218.799032 407.589656 
L 219.674691 407.589656 
L 220.550351 407.589656 
L 221.42601 407.589656 
L 222.301669 407.589656 
L 223.177329 407.589656 
L 224.052988 407.589656 
L 224.928648 407.589656 
L 225.804307 407.589656 
L 226.679967 407.589656 
L 227.555626 407.589656 
L 228.431285 407.589656 
L 229.306945 407.589656 
L 230.182604 407.589656 
L 231.058264 407.589656 
L 231.933923 407.589656 
L 232.809583 407.589656 
L 233.685242 407.589656 
L 234.560902 407.589656 
L 235.436561 407.589656 
L 236.31222 407.589656 
L 237.18788 407.589656 
L 238.063539 407.589656 
L 238.939199 407.589656 
L 239.814858 407.589656 
L 240.690518 407.589656 
L 241.566177 407.589656 
L 242.441836 407.589656 
L 243.317496 407.589656 
L 244.193155 407.589656 
L 245.068815 407.589656 
L 245.944474 407.589656 
L 246.820134 407.589656 
L 247.695793 407.589656 
L 248.571452 407.589656 
L 249.447112 407.589656 
L 250.322771 407.589656 
L 251.198431 407.589656 
L 252.07409 407.589656 
L 252.94975 407.589656 
L 253.825409 407.589656 
L 254.701068 407.589656 
L 255.576728 407.589656 
L 256.452387 407.589656 
L 257.328047 407.589656 
L 258.203706 407.589656 
L 259.079366 407.589656 
L 259.955025 407.589656 
L 260.830684 407.589656 
L 261.706344 407.589656 
L 262.582003 407.589656 
L 263.457663 407.589656 
L 264.333322 407.589656 
L 265.208982 407.589656 
L 266.084641 407.589656 
L 266.960301 407.589656 
L 267.83596 407.589656 
L 268.711619 407.589656 
L 269.587279 407.589656 
L 270.462938 407.589656 
L 271.338598 407.589656 
L 272.214257 407.589656 
L 273.089917 407.589656 
L 273.965576 407.589656 
L 274.841235 407.589656 
L 275.716895 407.589656 
L 276.592554 407.589656 
L 277.468214 407.589656 
L 278.343873 407.589656 
L 279.219533 407.589656 
L 280.095192 407.589656 
L 280.970851 407.589656 
L 281.846511 407.589656 
L 282.72217 407.589656 
L 283.59783 407.589656 
L 284.473489 407.589656 
L 285.349149 407.589656 
L 286.224808 407.589656 
L 287.100467 407.589656 
L 287.976127 407.589656 
L 288.851786 407.589656 
L 289.727446 407.589656 
L 290.603105 407.589656 
L 291.478765 407.589656 
L 292.354424 407.589656 
L 293.230083 407.589656 
L 294.105743 407.589656 
L 294.981402 407.589656 
L 295.857062 407.589656 
L 296.732721 407.589656 
L 297.608381 407.589656 
L 298.48404 407.589656 
L 299.359699 407.589656 
L 300.235359 407.589656 
L 301.111018 407.589656 
L 301.986678 407.589656 
L 302.862337 407.589656 
L 303.737997 407.589656 
L 304.613656 407.589656 
L 305.489316 407.589656 
L 306.364975 407.589656 
L 307.240634 407.589656 
L 308.116294 407.589656 
L 308.991953 407.589656 
L 309.867613 407.589656 
L 310.743272 407.589656 
L 311.618932 407.589656 
L 312.494591 407.589656 
L 313.37025 407.589656 
L 314.24591 407.589656 
L 315.121569 407.589656 
L 315.997229 407.589656 
L 316.872888 407.589656 
L 317.748548 407.589656 
L 318.624207 407.589656 
L 319.499866 407.589656 
L 320.375526 407.589656 
L 321.251185 407.589656 
L 322.126845 407.589656 
L 323.002504 407.589656 
L 323.878164 407.589656 
L 324.753823 407.589656 
L 325.629482 407.589656 
L 326.505142 407.589656 
L 327.380801 407.589656 
L 328.256461 407.589656 
L 329.13212 407.589656 
L 330.00778 407.589656 
L 330.883439 407.589656 
L 331.759098 407.589656 
L 332.634758 407.589656 
L 333.510417 407.589656 
L 334.386077 407.589656 
L 335.261736 407.589656 
L 336.137396 407.589656 
L 337.013055 407.589656 
L 337.888715 407.589656 
L 338.764374 407.589656 
L 339.640033 407.589656 
L 340.515693 407.589656 
L 341.391352 407.589656 
L 342.267012 407.589656 
L 343.142671 407.589656 
L 344.018331 407.589656 
L 344.89399 407.589656 
L 345.769649 407.589656 
L 346.645309 407.589656 
L 347.520968 407.589656 
L 348.396628 407.589656 
L 349.272287 407.589656 
L 350.147947 407.589656 
L 351.023606 407.589656 
L 351.899265 407.589656 
L 352.774925 407.589656 
L 353.650584 407.589656 
L 354.526244 407.589656 
L 355.401903 407.589656 
L 356.277563 407.589656 
L 357.153222 407.589656 
L 358.028881 407.589656 
L 358.904541 407.589656 
L 359.7802 407.589656 
L 360.65586 407.589656 
L 361.531519 407.589656 
L 362.407179 407.589656 
L 363.282838 407.589656 
L 364.158497 407.589656 
L 365.034157 407.589656 
L 365.909816 407.589656 
L 366.785476 407.589656 
L 367.661135 407.589656 
L 368.536795 407.589656 
L 369.412454 407.589656 
L 370.288114 407.589656 
L 371.163773 407.589656 
L 372.039432 407.589656 
L 372.915092 407.589656 
L 373.790751 407.589656 
L 374.666411 407.589656 
L 375.54207 407.589656 
L 376.41773 407.589656 
L 377.293389 407.589656 
L 378.169048 407.589656 
L 379.044708 407.589656 
L 379.920367 407.589656 
L 380.796027 407.589656 
L 381.671686 407.589656 
L 382.547346 407.589656 
L 383.423005 407.589656 
L 384.298664 407.589656 
L 385.174324 407.589656 
L 386.049983 407.589656 
L 386.925643 407.589656 
L 387.801302 407.589656 
L 388.676962 407.589656 
L 389.552621 407.589656 
L 390.42828 407.589656 
L 391.30394 407.589656 
L 392.179599 407.589656 
L 393.055259 407.589656 
L 393.930918 407.589656 
L 394.806578 407.589656 
L 395.682237 407.589656 
L 396.557896 407.589656 
L 397.433556 407.589656 
L 398.309215 407.589656 
L 399.184875 407.589656 
L 400.060534 407.589656 
L 400.936194 407.589656 
L 401.811853 407.589656 
L 402.687513 407.589656 
L 403.563172 407.589656 
L 404.438831 407.589656 
L 405.314491 407.589656 
L 406.19015 407.589656 
L 407.06581 407.589656 
L 407.941469 407.589656 
L 408.817129 407.589656 
L 409.692788 407.589656 
L 410.568447 407.589656 
L 411.444107 407.589656 
L 412.319766 407.589656 
L 413.195426 407.589656 
L 414.071085 407.589656 
L 414.946745 407.589656 
L 415.822404 407.589656 
L 416.698063 407.589656 
L 417.573723 407.589656 
L 418.449382 407.589656 
L 419.325042 407.589656 
L 420.200701 407.589656 
L 421.076361 407.589656 
L 421.95202 407.589656 
L 422.827679 407.589656 
L 423.703339 407.589656 
L 424.578998 407.589656 
L 425.454658 407.589656 
L 426.330317 407.589656 
L 427.205977 407.589656 
L 428.081636 407.589656 
L 428.957295 407.589656 
L 429.832955 407.589656 
L 430.708614 407.589656 
L 431.584274 407.589656 
L 432.459933 407.589656 
L 433.335593 407.589656 
L 434.211252 407.589656 
L 435.086912 407.589656 
L 435.962571 407.589656 
L 436.83823 407.589656 
L 437.71389 407.589656 
L 438.589549 407.589656 
L 439.465209 407.589656 
L 440.340868 407.589656 
L 441.216528 407.589656 
L 442.092187 407.589656 
L 442.967846 407.589656 
L 443.843506 407.589656 
L 444.719165 407.589656 
L 445.594825 407.589656 
L 446.470484 407.589656 
L 447.346144 407.589656 
L 448.221803 407.589656 
L 449.097462 407.589656 
L 449.973122 407.589656 
L 450.848781 407.589656 
L 451.724441 407.589656 
L 452.6001 407.589656 
L 453.47576 407.589656 
L 454.351419 407.589656 
L 455.227078 407.589656 
L 456.102738 407.589656 
L 456.978397 407.589656 
L 457.854057 407.589656 
L 458.729716 407.589656 
L 459.605376 407.589656 
L 460.481035 407.589656 
L 461.356694 407.589656 
L 462.232354 407.589656 
L 463.108013 407.589656 
L 463.983673 407.589656 
L 464.859332 407.589656 
L 465.734992 407.589656 
L 466.610651 407.589656 
L 467.486311 407.589656 
L 468.36197 407.589656 
L 469.237629 407.589656 
L 470.113289 407.589656 
L 470.988948 407.589656 
L 471.864608 407.589656 
L 472.740267 407.589656 
L 473.615927 407.589656 
L 474.491586 407.589656 
L 475.367245 407.589656 
L 476.242905 407.589656 
L 477.118564 407.589656 
L 477.994224 407.589656 
L 478.869883 407.589656 
L 479.745543 407.589656 
L 480.621202 407.589656 
L 481.496861 407.589656 
L 482.372521 407.589656 
L 483.24818 407.589656 
L 484.12384 407.589656 
L 484.999499 407.589656 
L 485.875159 407.589656 
L 486.750818 407.589656 
L 487.626477 407.589656 
L 488.502137 407.589656 
L 489.377796 407.589656 
L 490.253456 407.589656 
L 491.129115 407.589656 
L 492.004775 407.589656 
L 492.880434 407.589656 
L 493.756093 407.589656 
L 494.631753 407.589656 
L 495.507412 407.589656 
L 496.383072 407.589656 
L 497.258731 407.589656 
L 498.134391 407.589656 
L 499.01005 407.589656 
L 499.88571 407.589656 
L 500.761369 407.589656 
L 500.761369 54.10268 
L 500.761369 54.10268 
L 499.88571 54.74773 
L 499.01005 55.392779 
L 498.134391 56.037828 
L 497.258731 56.682877 
L 496.383072 57.327927 
L 495.507412 57.972976 
L 494.631753 58.618025 
L 493.756093 59.263074 
L 492.880434 59.908123 
L 492.004775 60.553173 
L 491.129115 61.198222 
L 490.253456 61.843271 
L 489.377796 62.48832 
L 488.502137 63.13337 
L 487.626477 63.778419 
L 486.750818 64.423468 
L 485.875159 65.068517 
L 484.999499 65.713566 
L 484.12384 66.358616 
L 483.24818 67.003665 
L 482.372521 67.648714 
L 481.496861 68.293763 
L 480.621202 68.938813 
L 479.745543 69.583862 
L 478.869883 70.228911 
L 477.994224 70.87396 
L 477.118564 71.519009 
L 476.242905 72.164059 
L 475.367245 72.809108 
L 474.491586 73.454157 
L 473.615927 74.099206 
L 472.740267 74.744256 
L 471.864608 75.389305 
L 470.988948 76.034354 
L 470.113289 76.679403 
L 469.237629 77.324453 
L 468.36197 77.969502 
L 467.486311 78.614551 
L 466.610651 79.2596 
L 465.734992 79.904649 
L 464.859332 80.549699 
L 463.983673 81.194748 
L 463.108013 81.839797 
L 462.232354 82.484846 
L 461.356694 83.129896 
L 460.481035 83.774945 
L 459.605376 84.419994 
L 458.729716 85.065043 
L 457.854057 85.710092 
L 456.978397 86.355142 
L 456.102738 87.000191 
L 455.227078 87.64524 
L 454.351419 88.290289 
L 453.47576 88.935339 
L 452.6001 89.580388 
L 451.724441 90.225437 
L 450.848781 90.870486 
L 449.973122 91.515535 
L 449.097462 92.160585 
L 448.221803 92.805634 
L 447.346144 93.450683 
L 446.470484 94.095732 
L 445.594825 94.740782 
L 444.719165 95.385831 
L 443.843506 96.03088 
L 442.967846 96.675929 
L 442.092187 97.320979 
L 441.216528 97.966028 
L 440.340868 98.611077 
L 439.465209 99.256126 
L 438.589549 99.901175 
L 437.71389 100.546225 
L 436.83823 101.191274 
L 435.962571 101.836323 
L 435.086912 102.481372 
L 434.211252 103.126422 
L 433.335593 103.771471 
L 432.459933 104.41652 
L 431.584274 105.061569 
L 430.708614 105.706618 
L 429.832955 106.351668 
L 428.957295 106.996717 
L 428.081636 107.641766 
L 427.205977 108.286815 
L 426.330317 108.931865 
L 425.454658 109.576914 
L 424.578998 110.221963 
L 423.703339 110.867012 
L 422.827679 111.512061 
L 421.95202 112.157111 
L 421.076361 112.80216 
L 420.200701 113.447209 
L 419.325042 114.092258 
L 418.449382 114.737308 
L 417.573723 115.382357 
L 416.698063 116.027406 
L 415.822404 116.672455 
L 414.946745 117.317505 
L 414.071085 117.962554 
L 413.195426 118.607603 
L 412.319766 119.252652 
L 411.444107 119.897701 
L 410.568447 120.542751 
L 409.692788 121.1878 
L 408.817129 121.832849 
L 407.941469 122.477898 
L 407.06581 123.122948 
L 406.19015 123.767997 
L 405.314491 124.413046 
L 404.438831 125.058095 
L 403.563172 125.703144 
L 402.687513 126.348194 
L 401.811853 126.993243 
L 400.936194 127.638292 
L 400.060534 128.283341 
L 399.184875 128.928391 
L 398.309215 129.57344 
L 397.433556 130.218489 
L 396.557896 130.863538 
L 395.682237 131.508588 
L 394.806578 132.153637 
L 393.930918 132.798686 
L 393.055259 133.443735 
L 392.179599 134.088784 
L 391.30394 134.733834 
L 390.42828 135.378883 
L 389.552621 136.023932 
L 388.676962 136.668981 
L 387.801302 137.314031 
L 386.925643 137.95908 
L 386.049983 138.604129 
L 385.174324 139.249178 
L 384.298664 139.894227 
L 383.423005 140.539277 
L 382.547346 141.184326 
L 381.671686 141.829375 
L 380.796027 142.474424 
L 379.920367 143.119474 
L 379.044708 143.764523 
L 378.169048 144.409572 
L 377.293389 145.054621 
L 376.41773 145.69967 
L 375.54207 146.34472 
L 374.666411 146.989769 
L 373.790751 147.634818 
L 372.915092 148.279867 
L 372.039432 148.924917 
L 371.163773 149.569966 
L 370.288114 150.215015 
L 369.412454 150.860064 
L 368.536795 151.505114 
L 367.661135 152.150163 
L 366.785476 152.795212 
L 365.909816 153.440261 
L 365.034157 154.08531 
L 364.158497 154.73036 
L 363.282838 155.375409 
L 362.407179 156.020458 
L 361.531519 156.665507 
L 360.65586 157.310557 
L 359.7802 157.955606 
L 358.904541 158.600655 
L 358.028881 159.245704 
L 357.153222 159.890753 
L 356.277563 160.535803 
L 355.401903 161.180852 
L 354.526244 161.825901 
L 353.650584 162.47095 
L 352.774925 163.116 
L 351.899265 163.761049 
L 351.023606 164.406098 
L 350.147947 165.051147 
L 349.272287 165.696196 
L 348.396628 166.341246 
L 347.520968 166.986295 
L 346.645309 167.631344 
L 345.769649 168.276393 
L 344.89399 168.921443 
L 344.018331 169.566492 
L 343.142671 170.211541 
L 342.267012 170.85659 
L 341.391352 171.50164 
L 340.515693 172.146689 
L 339.640033 172.791738 
L 338.764374 173.436787 
L 337.888715 174.081836 
L 337.013055 174.726886 
L 336.137396 175.371935 
L 335.261736 176.016984 
L 334.386077 176.662033 
L 333.510417 177.307083 
L 332.634758 177.952132 
L 331.759098 178.597181 
L 330.883439 179.24223 
L 330.00778 179.887279 
L 329.13212 180.532329 
L 328.256461 181.177378 
L 327.380801 181.822427 
L 326.505142 182.467476 
L 325.629482 183.112526 
L 324.753823 183.757575 
L 323.878164 184.402624 
L 323.002504 185.047673 
L 322.126845 185.692722 
L 321.251185 186.337772 
L 320.375526 186.982821 
L 319.499866 187.62787 
L 318.624207 188.272919 
L 317.748548 188.917969 
L 316.872888 189.563018 
L 315.997229 190.208067 
L 315.121569 190.853116 
L 314.24591 191.498166 
L 313.37025 192.143215 
L 312.494591 192.788264 
L 311.618932 193.433313 
L 310.743272 194.078362 
L 309.867613 194.723412 
L 308.991953 195.368461 
L 308.116294 196.01351 
L 307.240634 196.658559 
L 306.364975 197.303609 
L 305.489316 197.948658 
L 304.613656 198.593707 
L 303.737997 199.238756 
L 302.862337 199.883805 
L 301.986678 200.528855 
L 301.111018 201.173904 
L 300.235359 201.818953 
L 299.359699 202.464002 
L 298.48404 203.109052 
L 297.608381 203.754101 
L 296.732721 204.39915 
L 295.857062 205.044199 
L 294.981402 205.689248 
L 294.105743 206.334298 
L 293.230083 206.979347 
L 292.354424 207.624396 
L 291.478765 208.269445 
L 290.603105 208.914495 
L 289.727446 209.559544 
L 288.851786 210.204593 
L 287.976127 210.849642 
L 287.100467 211.494692 
L 286.224808 212.139741 
L 285.349149 212.78479 
L 284.473489 213.429839 
L 283.59783 214.074888 
L 282.72217 214.719938 
L 281.846511 215.364987 
L 280.970851 216.010036 
L 280.095192 216.655085 
L 279.219533 217.300135 
L 278.343873 217.945184 
L 277.468214 218.590233 
L 276.592554 219.235282 
L 275.716895 219.880331 
L 274.841235 220.525381 
L 273.965576 221.17043 
L 273.089917 221.815479 
L 272.214257 222.460528 
L 271.338598 223.105578 
L 270.462938 223.750627 
L 269.587279 224.395676 
L 268.711619 225.040725 
L 267.83596 225.685775 
L 266.960301 226.330824 
L 266.084641 226.975873 
L 265.208982 227.620922 
L 264.333322 228.265971 
L 263.457663 228.911021 
L 262.582003 229.55607 
L 261.706344 230.201119 
L 260.830684 230.846168 
L 259.955025 231.491218 
L 259.079366 232.136267 
L 258.203706 232.781316 
L 257.328047 233.426365 
L 256.452387 234.071414 
L 255.576728 234.716464 
L 254.701068 235.361513 
L 253.825409 236.006562 
L 252.94975 236.651611 
L 252.07409 237.296661 
L 251.198431 237.94171 
L 250.322771 238.586759 
L 249.447112 239.231808 
L 248.571452 239.876857 
L 247.695793 240.521907 
L 246.820134 241.166956 
L 245.944474 241.812005 
L 245.068815 242.457054 
L 244.193155 243.102104 
L 243.317496 243.747153 
L 242.441836 244.392202 
L 241.566177 245.037251 
L 240.690518 245.682301 
L 239.814858 246.32735 
L 238.939199 246.972399 
L 238.063539 247.617448 
L 237.18788 248.262497 
L 236.31222 248.907547 
L 235.436561 249.552596 
L 234.560902 250.197645 
L 233.685242 250.842694 
L 232.809583 251.487744 
L 231.933923 252.132793 
L 231.058264 252.777842 
L 230.182604 253.422891 
L 229.306945 254.06794 
L 228.431285 254.71299 
L 227.555626 255.358039 
L 226.679967 256.003088 
L 225.804307 256.648137 
L 224.928648 257.293187 
L 224.052988 257.938236 
L 223.177329 258.583285 
L 222.301669 259.228334 
L 221.42601 259.873383 
L 220.550351 260.518433 
L 219.674691 261.163482 
L 218.799032 261.808531 
L 217.923372 262.45358 
L 217.047713 263.09863 
L 216.172053 263.743679 
L 215.296394 264.388728 
L 214.420735 265.033777 
L 213.545075 265.678827 
L 212.669416 266.323876 
L 211.793756 266.968925 
L 210.918097 267.613974 
L 210.042437 268.259023 
L 209.166778 268.904073 
L 208.291119 269.549122 
L 207.415459 270.194171 
L 206.5398 270.83922 
L 205.66414 271.48427 
L 204.788481 272.129319 
L 203.912821 272.774368 
L 203.037162 273.419417 
L 202.161503 274.064466 
L 201.285843 274.709516 
L 200.410184 275.354565 
L 199.534524 275.999614 
L 198.658865 276.644663 
L 197.783205 277.289713 
L 196.907546 277.934762 
L 196.031886 278.579811 
L 195.156227 279.22486 
L 194.280568 279.869909 
L 193.404908 280.514959 
L 192.529249 281.160008 
L 191.653589 281.805057 
L 190.77793 282.450106 
L 189.90227 283.095156 
L 189.026611 283.740205 
L 188.150952 284.385254 
L 187.275292 285.030303 
L 186.399633 285.675353 
L 185.523973 286.320402 
L 184.648314 286.965451 
L 183.772654 287.6105 
L 182.896995 288.255549 
L 182.021336 288.900599 
L 181.145676 289.545648 
L 180.270017 290.190697 
L 179.394357 290.835746 
L 178.518698 291.480796 
L 177.643038 292.125845 
L 176.767379 292.770894 
L 175.89172 293.415943 
L 175.01606 294.060992 
L 174.140401 294.706042 
L 173.264741 295.351091 
L 172.389082 295.99614 
L 171.513422 296.641189 
L 170.637763 297.286239 
L 169.762104 297.931288 
L 168.886444 298.576337 
L 168.010785 299.221386 
L 167.135125 299.866436 
L 166.259466 300.511485 
L 165.383806 301.156534 
L 164.508147 301.801583 
L 163.632487 302.446632 
L 162.756828 303.091682 
L 161.881169 303.736731 
L 161.005509 304.38178 
L 160.12985 305.026829 
L 159.25419 305.671879 
L 158.378531 306.316928 
L 157.502871 306.961977 
L 156.627212 307.607026 
L 155.751553 308.252075 
L 154.875893 308.897125 
L 154.000234 309.542174 
L 153.124574 310.187223 
L 152.248915 310.832272 
L 151.373255 311.477322 
L 150.497596 312.122371 
L 149.621937 312.76742 
L 148.746277 313.412469 
L 147.870618 314.057518 
L 146.994958 314.702568 
L 146.119299 315.347617 
L 145.243639 315.992666 
L 144.36798 316.637715 
L 143.492321 317.282765 
L 142.616661 317.927814 
L 141.741002 318.572863 
L 140.865342 319.217912 
L 139.989683 319.862962 
L 139.114023 320.508011 
L 138.238364 321.15306 
L 137.362705 321.798109 
L 136.487045 322.443158 
L 135.611386 323.088208 
L 134.735726 323.733257 
L 133.860067 324.378306 
L 132.984407 325.023355 
L 132.108748 325.668405 
L 131.233088 326.313454 
L 130.357429 326.958503 
L 129.48177 327.603552 
L 128.60611 328.248601 
L 127.730451 328.893651 
L 126.854791 329.5387 
L 125.979132 330.183749 
L 125.103472 330.828798 
L 124.227813 331.473848 
L 123.352154 332.118897 
L 122.476494 332.763946 
L 121.600835 333.408995 
L 120.725175 334.054044 
L 119.849516 334.699094 
L 118.973856 335.344143 
L 118.098197 335.989192 
L 117.222538 336.634241 
L 116.346878 337.279291 
L 115.471219 337.92434 
L 114.595559 338.569389 
L 113.7199 339.214438 
L 112.84424 339.859488 
L 111.968581 340.504537 
L 111.092922 341.149586 
L 110.217262 341.794635 
L 109.341603 342.439684 
L 108.465943 343.084734 
L 107.590284 343.729783 
L 106.714624 344.374832 
L 105.838965 345.019881 
L 104.963306 345.664931 
L 104.087646 346.30998 
L 103.211987 346.955029 
L 102.336327 347.600078 
L 101.460668 348.245127 
L 100.585008 348.890177 
L 99.709349 349.535226 
L 98.833689 350.180275 
L 97.95803 350.825324 
L 97.082371 351.470374 
L 96.206711 352.115423 
L 95.331052 352.760472 
L 94.455392 353.405521 
L 93.579733 354.05057 
L 92.704073 354.69562 
L 91.828414 355.340669 
L 90.952755 355.985718 
L 90.077095 356.630767 
L 89.201436 357.275817 
L 88.325776 357.920866 
L 87.450117 358.565915 
L 86.574457 359.210964 
L 85.698798 359.856014 
L 84.823139 360.501063 
L 83.947479 361.146112 
L 83.07182 361.791161 
L 82.19616 362.43621 
L 81.320501 363.08126 
L 80.444841 363.726309 
L 79.569182 364.371358 
L 78.693523 365.016407 
L 77.817863 365.661457 
L 76.942204 366.306506 
L 76.066544 366.951555 
L 75.190885 367.596604 
L 74.315225 368.241653 
L 73.439566 368.886703 
L 72.563907 369.531752 
L 71.688247 370.176801 
L 70.812588 370.82185 
L 69.936928 371.4669 
L 69.061269 372.111949 
L 68.185609 372.756998 
L 67.30995 373.402047 
L 66.43429 374.047096 
L 65.558631 374.692146 
L 64.682972 375.337195 
L 63.807312 375.982244 
L 62.931653 376.627293 
L 62.055993 377.272343 
L 61.180334 377.917392 
L 60.304674 378.562441 
L 59.429015 379.20749 
L 58.553356 379.85254 
L 57.677696 380.497589 
L 56.802037 381.142638 
L 55.926377 381.787687 
L 55.050718 382.432736 
L 54.175058 383.077786 
L 53.299399 383.722835 
L 52.42374 384.367884 
L 51.54808 385.012933 
L 50.672421 385.657983 
L 49.796761 386.303032 
L 48.921102 386.948081 
L 48.045442 387.59313 
L 47.169783 388.238179 
L 46.294124 388.883229 
L 45.418464 389.528278 
L 44.542805 390.173327 
L 43.667145 390.818376 
L 42.791486 391.463426 
L 41.915826 392.108475 
L 41.040167 392.753524 
L 40.164508 393.398573 
L 39.288848 394.043623 
L 38.413189 394.688672 
L 37.537529 395.333721 
L 36.66187 395.97877 
L 35.78621 396.623819 
L 34.910551 397.268869 
L 34.034891 397.913918 
L 33.159232 398.558967 
L 32.283573 399.204016 
L 31.407913 399.849066 
L 30.532254 400.494115 
L 29.656594 401.139164 
L 28.780935 401.784213 
L 27.905275 402.429262 
L 27.029616 403.074312 
L 26.153957 403.719361 
L 25.278297 404.36441 
L 24.402638 405.009459 
L 23.526978 405.654509 
L 22.651319 406.299558 
L 21.775659 406.944607 
L 20.9 407.589656 
z
" clip-path="url(#p89cd0f686a)" style="fill: #1f77b4; fill-opacity: 0.1"/>
   </g>
   <g id="matplotlib.axis_1">
    <g id="text_1">
     <!-- vettore d'onda $q$ -->
     <g transform="translate(241.61 419.189656) scale(0.1 -0.1)">
      <defs>
       <path id="DejaVuSans-76" d="M 191 3500 
L 800 3500 
L 1894 563 
L 2988 3500 
L 3597 3500 
L 2284 0 
L 1503 0 
L 191 3500 
z
" transform="scale(0.015625)"/>
       <path id="DejaVuSans-65" d="M 3597 1894 
L 3597 1613 
L 953 1613 
Q 991 1019 1311 708 
Q 1631 397 2203 397 
Q 2534 397 2845 478 
Q 3156 559 3463 722 
L 3463 178 
Q 3153 47 2828 -22 
Q 2503 -91 2169 -91 
Q 1331 -91 842 396 
Q 353 884 353 1716 
Q 353 2575 817 3079 
Q 1281 3584 2069 3584 
Q 2775 3584 3186 3129 
Q 3597 2675 3597 1894 
z
M 3022 2063 
Q 3016 2534 2758 2815 
Q 2500 3097 2075 3097 
Q 1594 3097 1305 2825 
Q 1016 2553 972 2059 
L 3022 2063 
z
" transform="scale(0.015625)"/>
       <path id="DejaVuSans-74" d="M 1172 4494 
L 1172 3500 
L 2356 3500 
L 2356 3053 
L 1172 3053 
L 1172 1153 
Q 1172 725 1289 603 
Q 1406 481 1766 481 
L 2356 481 
L 2356 0 
L 1766 0 
Q 1100 0 847 248 
Q 594 497 594 1153 
L 594 3053 
L 172 3053 
L 172 3500 
L 594 3500 
L 594 4494 
L 1172 4494 
z
" transform="scale(0.015625)"/>
       <path id="DejaVuSans-6f" d="M 1959 3097 
Q 1497 3097 1228 2736 
Q 959 2375 959 1747 
Q 959 1119 1226 758 
Q 1494 397 1959 397 
Q 2419 397 2687 759 
Q 2956 1122 2956 1747 
Q 2956 2369 2687 2733 
Q 2419 3097 1959 3097 
z
M 1959 3584 
Q 2709 3584 3137 3096 
Q 3566 2609 3566 1747 
Q 3566 888 3137 398 
Q 2709 -91 1959 -91 
Q 1206 -91 779 398 
Q 353 888 353 1747 
Q 353 2609 779 3096 
Q 1206 3584 1959 3584 
z
" transform="scale(0.015625)"/>
       <path id="DejaVuSans-72" d="M 2631 2963 
Q 2534 3019 2420 3045 
Q 2306 3072 2169 3072 
Q 1681 3072 1420 2755 
Q 1159 2438 1159 1844 
L 1159 0 
L 581 0 
L 581 3500 
L 1159 3500 
L 1159 2956 
Q 1341 3275 1631 3429 
Q 1922 3584 2338 3584 
Q 2397 3584 2469 3576 
Q 2541 3569 2628 3553 
L 2631 2963 
z
" transform="scale(0.015625)"/>
       <path id="DejaVuSans-20" transform="scale(0.015625)"/>
       <path id="DejaVuSans-64" d="M 2906 2969 
L 2906 4863 
L 3481 4863 
L 3481 0 
L 2906 0 
L 2906 525 
Q 2725 213 2448 61 
Q 2172 -91 1784 -91 
Q 1150 -91 751 415 
Q 353 922 353 1747 
Q 353 2572 751 3078 
Q 1150 3584 1784 3584 
Q 2172 3584 2448 3432 
Q 2725 3281 2906 2969 
z
M 947 1747 
Q 947 1113 1208 752 
Q 1469 391 1925 391 
Q 2381 391 2643 752 
Q 2906 1113 2906 1747 
Q 2906 2381 2643 2742 
Q 2381 3103 1925 3103 
Q 1469 3103 1208 2742 
Q 947 2381 947 1747 
z
" transform="scale(0.015625)"/>
       <path id="DejaVuSans-27" d="M 1147 4666 
L 1147 2931 
L 616 2931 
L 616 4666 
L 1147 4666 
z
" transform="scale(0.015625)"/>
       <path id="DejaVuSans-6e" d="M 3513 2113 
L 3513 0 
L 2938 0 
L 2938 2094 
Q 2938 2591 2744 2837 
Q 2550 3084 2163 3084 
Q 1697 3084 1428 2787 
Q 1159 2491 1159 1978 
L 1159 0 
L 581 0 
L 581 3500 
L 1159 3500 
L 1159 2956 
Q 1366 3272 1645 3428 
Q 1925 3584 2291 3584 
Q 2894 3584 3203 3211 
Q 3513 2838 3513 2113 
z
" transform="scale(0.015625)"/>
       <path id="DejaVuSans-61" d="M 2194 1759 
Q 1497 1759 1228 1600 
Q 959 1441 959 1056 
Q 959 750 1161 570 
Q 1363 391 1709 391 
Q 2188 391 2477 730 
Q 2766 1069 2766 1631 
L 2766 1759 
L 2194 1759 
z
M 3341 1997 
L 3341 0 
L 2766 0 
L 2766 531 
Q 2569 213 2275 61 
Q 1981 -91 1556 -91 
Q 1019 -91 701 211 
Q 384 513 384 1019 
Q 384 1609 779 1909 
Q 1175 2209 1959 2209 
L 2766 2209 
L 2766 2266 
Q 2766 2663 2505 2880 
Q 2244 3097 1772 3097 
Q 1472 3097 1187 3025 
Q 903 2953 641 2809 
L 641 3341 
Q 956 3463 1253 3523 
Q 1550 3584 1831 3584 
Q 2591 3584 2966 3190 
Q 3341 2797 3341 1997 
z
" transform="scale(0.015625)"/>
       <path id="DejaVuSans-Oblique-71" d="M 2669 525 
Q 2438 222 2123 65 
Q 1809 -91 1428 -91 
Q 897 -91 595 267 
Q 294 625 294 1253 
Q 294 1759 480 2231 
Q 666 2703 1013 3078 
Q 1238 3322 1530 3453 
Q 1822 3584 2144 3584 
Q 2531 3584 2781 3431 
Q 3031 3278 3144 2969 
L 3244 3494 
L 3822 3494 
L 2888 -1319 
L 2309 -1319 
L 2669 525 
z
M 891 1338 
Q 891 875 1084 633 
Q 1278 391 1644 391 
Q 2188 391 2572 911 
Q 2956 1431 2956 2175 
Q 2956 2625 2757 2864 
Q 2559 3103 2188 3103 
Q 1916 3103 1684 2976 
Q 1453 2850 1281 2606 
Q 1100 2350 995 2006 
Q 891 1663 891 1338 
z
" transform="scale(0.015625)"/>
      </defs>
      <use xlink:href="#DejaVuSans-76" transform="translate(0 0.015625)"/>
      <use xlink:href="#DejaVuSans-65" transform="translate(59.179688 0.015625)"/>
      <use xlink:href="#DejaVuSans-74" transform="translate(120.703125 0.015625)"/>
      <use xlink:href="#DejaVuSans-74" transform="translate(159.912109 0.015625)"/>
      <use xlink:href="#DejaVuSans-6f" transform="translate(199.121094 0.015625)"/>
      <use xlink:href="#DejaVuSans-72" transform="translate(260.302734 0.015625)"/>
      <use xlink:href="#DejaVuSans-65" transform="translate(301.416016 0.015625)"/>
      <use xlink:href="#DejaVuSans-20" transform="translate(362.939453 0.015625)"/>
      <use xlink:href="#DejaVuSans-64" transform="translate(394.726562 0.015625)"/>
      <use xlink:href="#DejaVuSans-27" transform="translate(458.203125 0.015625)"/>
      <use xlink:href="#DejaVuSans-6f" transform="translate(485.693359 0.015625)"/>
      <use xlink:href="#DejaVuSans-6e" transform="translate(546.875 0.015625)"/>
      <use xlink:href="#DejaVuSans-64" transform="translate(610.253906 0.015625)"/>
      <use xlink:href="#DejaVuSans-61" transform="translate(673.730469 0.015625)"/>
      <use xlink:href="#DejaVuSans-20" transform="translate(735.009766 0.015625)"/>
      <use xlink:href="#DejaVuSans-Oblique-71" transform="translate(766.796875 0.015625)"/>
     </g>
    </g>
   </g>
   <g id="matplotlib.axis_2">
    <g id="text_2">
     <!-- frequenza $\omega(q)$ -->
     <g transform="translate(14.8 257.143656) rotate(-90) scale(0.1 -0.1)">
      <defs>
       <path id="DejaVuSans-66" d="M 2375 4863 
L 2375 4384 
L 1825 4384 
Q 1516 4384 1395 4259 
Q 1275 4134 1275 3809 
L 1275 3500 
L 2222 3500 
L 2222 3053 
L 1275 3053 
L 1275 0 
L 697 0 
L 697 3053 
L 147 3053 
L 147 3500 
L 697 3500 
L 697 3744 
Q 697 4328 969 4595 
Q 1241 4863 1831 4863 
L 2375 4863 
z
" transform="scale(0.015625)"/>
       <path id="DejaVuSans-71" d="M 947 1747 
Q 947 1113 1208 752 
Q 1469 391 1925 391 
Q 2381 391 2643 752 
Q 2906 1113 2906 1747 
Q 2906 2381 2643 2742 
Q 2381 3103 1925 3103 
Q 1469 3103 1208 2742 
Q 947 2381 947 1747 
z
M 2906 525 
Q 2725 213 2448 61 
Q 2172 -91 1784 -91 
Q 1150 -91 751 415 
Q 353 922 353 1747 
Q 353 2572 751 3078 
Q 1150 3584 1784 3584 
Q 2172 3584 2448 3432 
Q 2725 3281 2906 2969 
L 2906 3500 
L 3481 3500 
L 3481 -1331 
L 2906 -1331 
L 2906 525 
z
" transform="scale(0.015625)"/>
       <path id="DejaVuSans-75" d="M 544 1381 
L 544 3500 
L 1119 3500 
L 1119 1403 
Q 1119 906 1312 657 
Q 1506 409 1894 409 
Q 2359 409 2629 706 
Q 2900 1003 2900 1516 
L 2900 3500 
L 3475 3500 
L 3475 0 
L 2900 0 
L 2900 538 
Q 2691 219 2414 64 
Q 2138 -91 1772 -91 
Q 1169 -91 856 284 
Q 544 659 544 1381 
z
M 1991 3584 
L 1991 3584 
z
" transform="scale(0.015625)"/>
       <path id="DejaVuSans-7a" d="M 353 3500 
L 3084 3500 
L 3084 2975 
L 922 459 
L 3084 459 
L 3084 0 
L 275 0 
L 275 525 
L 2438 3041 
L 353 3041 
L 353 3500 
z
" transform="scale(0.015625)"/>
       <path id="DejaVuSans-Oblique-3c9" d="M 1369 -91 
Q 72 -91 434 1766 
Q 575 2500 1256 3500 
L 1875 3500 
Q 1231 2500 1088 1750 
Q 819 397 1519 397 
Q 2166 397 2478 2078 
L 3009 2078 
Q 2669 388 3316 397 
Q 4013 403 4275 1750 
Q 4419 2500 4169 3500 
L 4788 3500 
Q 5075 2500 4934 1766 
Q 4578 -94 3278 -91 
Q 2428 -88 2503 844 
Q 2194 -91 1369 -91 
z
" transform="scale(0.015625)"/>
       <path id="DejaVuSans-28" d="M 1984 4856 
Q 1566 4138 1362 3434 
Q 1159 2731 1159 2009 
Q 1159 1288 1364 580 
Q 1569 -128 1984 -844 
L 1484 -844 
Q 1016 -109 783 600 
Q 550 1309 550 2009 
Q 550 2706 781 3412 
Q 1013 4119 1484 4856 
L 1984 4856 
z
" transform="scale(0.015625)"/>
       <path id="DejaVuSans-29" d="M 513 4856 
L 1013 4856 
Q 1481 4119 1714 3412 
Q 1947 2706 1947 2009 
Q 1947 1309 1714 600 
Q 1481 -109 1013 -844 
L 513 -844 
Q 928 -128 1133 580 
Q 1338 1288 1338 2009 
Q 1338 2731 1133 3434 
Q 928 4138 513 4856 
z
" transform="scale(0.015625)"/>
      </defs>
      <use xlink:href="#DejaVuSans-66" transform="translate(0 0.015625)"/>
      <use xlink:href="#DejaVuSans-72" transform="translate(35.205078 0.015625)"/>
      <use xlink:href="#DejaVuSans-65" transform="translate(76.318359 0.015625)"/>
      <use xlink:href="#DejaVuSans-71" transform="translate(137.841797 0.015625)"/>
      <use xlink:href="#DejaVuSans-75" transform="translate(201.318359 0.015625)"/>
      <use xlink:href="#DejaVuSans-65" transform="translate(264.697266 0.015625)"/>
      <use xlink:href="#DejaVuSans-6e" transform="translate(326.220703 0.015625)"/>
      <use xlink:href="#DejaVuSans-7a" transform="translate(389.599609 0.015625)"/>
      <use xlink:href="#DejaVuSans-61" transform="translate(442.089844 0.015625)"/>
      <use xlink:href="#DejaVuSans-20" transform="translate(503.369141 0.015625)"/>
      <use xlink:href="#DejaVuSans-Oblique-3c9" transform="translate(535.15625 0.015625)"/>
      <use xlink:href="#DejaVuSans-28" transform="translate(618.896484 0.015625)"/>
      <use xlink:href="#DejaVuSans-Oblique-71" transform="translate(657.910156 0.015625)"/>
      <use xlink:href="#DejaVuSans-29" transform="translate(721.386719 0.015625)"/>
     </g>
    </g>
   </g>
   <g id="line2d_1">
    <path d="M 20.9 407.589656 
L 64.682972 372.732306 
L 88.325776 354.203077 
L 107.590284 339.374734 
L 125.103472 326.16687 
L 140.865342 314.544928 
L 155.751553 303.83303 
L 169.762104 294.012945 
L 183.772654 284.47121 
L 196.907546 275.799436 
L 209.166778 267.96154 
L 221.42601 260.38565 
L 232.809583 253.597931 
L 244.193155 247.059371 
L 255.576728 240.780548 
L 266.960301 234.771623 
L 277.468214 229.472891 
L 287.976127 224.419726 
L 298.48404 219.619092 
L 308.991953 215.077609 
L 318.624207 211.147594 
L 328.256461 207.445156 
L 337.888715 203.974584 
L 347.520968 200.739898 
L 357.153222 197.744847 
L 366.785476 194.992899 
L 376.41773 192.487244 
L 386.049983 190.230783 
L 394.806578 188.397903 
L 403.563172 186.774889 
L 412.319766 185.363293 
L 421.076361 184.164468 
L 429.832955 183.17956 
L 438.589549 182.409514 
L 447.346144 181.855066 
L 456.102738 181.516748 
L 464.859332 181.394882 
L 545.42 181.394456 
L 545.42 181.394456 
" clip-path="url(#p89cd0f686a)" style="fill: none; stroke: #1f77b4; stroke-width: 2; stroke-linecap: square"/>
   </g>
   <g id="line2d_2">
    <path d="M 20.9 131.846936 
L 32.283573 131.951461 
L 43.667145 132.264358 
L 55.926377 132.832005 
L 68.185609 133.634688 
L 80.444841 134.666385 
L 92.704073 135.919356 
L 105.838965 137.496659 
L 118.973856 139.30358 
L 132.984407 141.466483 
L 146.994958 143.851721 
L 161.881169 146.603476 
L 178.518698 149.907242 
L 196.907546 153.785841 
L 219.674691 158.822889 
L 298.48404 176.477077 
L 316.872888 180.244875 
L 333.510417 183.421719 
L 348.396628 186.039904 
L 362.407179 188.283533 
L 375.54207 190.172681 
L 388.676962 191.837824 
L 400.936194 193.177176 
L 413.195426 194.298836 
L 425.454658 195.19439 
L 437.71389 195.857118 
L 449.973122 196.28205 
L 461.356694 196.460888 
L 482.372521 196.474136 
L 545.42 196.474136 
L 545.42 196.474136 
" clip-path="url(#p89cd0f686a)" style="fill: none; stroke: #ff7f0e; stroke-width: 2; stroke-linecap: square"/>
   </g>
   <g id="line2d_3">
    <path d="M 20.9 407.589656 
L 545.42 21.20517 
L 545.42 21.20517 
" clip-path="url(#p89cd0f686a)" style="fill: none; stroke: #2ca02c; stroke-width: 2.2; stroke-linecap: square"/>
   </g>
   <g id="line2d_4">
    <path d="M 465.408475 407.589656 
L 465.408475 30.597656 
" clip-path="url(#p89cd0f686a)" style="fill: none; stroke-dasharray: 1,1.65; stroke-dashoffset: 0; stroke: #1f77b4"/>
   </g>
   <g id="line2d_5">
    <path d="M 500.969153 407.589656 
L 500.969153 30.597656 
" clip-path="url(#p89cd0f686a)" style="fill: none; stroke-dasharray: 3.7,1.6; stroke-dashoffset: 0; stroke: #1f77b4"/>
   </g>
   <g id="patch_3">
    <path d="M 20.9 407.589656 
L 20.9 30.597656 
" style="fill: none; stroke: #000000; stroke-width: 0.8; stroke-linejoin: miter; stroke-linecap: square"/>
   </g>
   <g id="patch_4">
    <path d="M 545.42 407.589656 
L 545.42 30.597656 
" style="fill: none; stroke: #000000; stroke-width: 0.8; stroke-linejoin: miter; stroke-linecap: square"/>
   </g>
   <g id="patch_5">
    <path d="M 20.9 407.589656 
L 545.42 407.589656 
" style="fill: none; stroke: #000000; stroke-width: 0.8; stroke-linejoin: miter; stroke-linecap: square"/>
   </g>
   <g id="patch_6">
    <path d="M 20.9 30.597656 
L 545.42 30.597656 
" style="fill: none; stroke: #000000; stroke-width: 0.8; stroke-linejoin: miter; stroke-linecap: square"/>
   </g>
   <g id="text_3">
    <!-- volume di Debye esteso -->
    <g transform="translate(100.911525 110.304536) scale(0.095 -0.095)">
     <defs>
      <path id="DejaVuSans-6c" d="M 603 4863 
L 1178 4863 
L 1178 0 
L 603 0 
L 603 4863 
z
" transform="scale(0.015625)"/>
      <path id="DejaVuSans-6d" d="M 3328 2828 
Q 3544 3216 3844 3400 
Q 4144 3584 4550 3584 
Q 5097 3584 5394 3201 
Q 5691 2819 5691 2113 
L 5691 0 
L 5113 0 
L 5113 2094 
Q 5113 2597 4934 2840 
Q 4756 3084 4391 3084 
Q 3944 3084 3684 2787 
Q 3425 2491 3425 1978 
L 3425 0 
L 2847 0 
L 2847 2094 
Q 2847 2600 2669 2842 
Q 2491 3084 2119 3084 
Q 1678 3084 1418 2786 
Q 1159 2488 1159 1978 
L 1159 0 
L 581 0 
L 581 3500 
L 1159 3500 
L 1159 2956 
Q 1356 3278 1631 3431 
Q 1906 3584 2284 3584 
Q 2666 3584 2933 3390 
Q 3200 3197 3328 2828 
z
" transform="scale(0.015625)"/>
      <path id="DejaVuSans-69" d="M 603 3500 
L 1178 3500 
L 1178 0 
L 603 0 
L 603 3500 
z
M 603 4863 
L 1178 4863 
L 1178 4134 
L 603 4134 
L 603 4863 
z
" transform="scale(0.015625)"/>
      <path id="DejaVuSans-44" d="M 1259 4147 
L 1259 519 
L 2022 519 
Q 2988 519 3436 956 
Q 3884 1394 3884 2338 
Q 3884 3275 3436 3711 
Q 2988 4147 2022 4147 
L 1259 4147 
z
M 628 4666 
L 1925 4666 
Q 3281 4666 3915 4102 
Q 4550 3538 4550 2338 
Q 4550 1131 3912 565 
Q 3275 0 1925 0 
L 628 0 
L 628 4666 
z
" transform="scale(0.015625)"/>
      <path id="DejaVuSans-62" d="M 3116 1747 
Q 3116 2381 2855 2742 
Q 2594 3103 2138 3103 
Q 1681 3103 1420 2742 
Q 1159 2381 1159 1747 
Q 1159 1113 1420 752 
Q 1681 391 2138 391 
Q 2594 391 2855 752 
Q 3116 1113 3116 1747 
z
M 1159 2969 
Q 1341 3281 1617 3432 
Q 1894 3584 2278 3584 
Q 2916 3584 3314 3078 
Q 3713 2572 3713 1747 
Q 3713 922 3314 415 
Q 2916 -91 2278 -91 
Q 1894 -91 1617 61 
Q 1341 213 1159 525 
L 1159 0 
L 581 0 
L 581 4863 
L 1159 4863 
L 1159 2969 
z
" transform="scale(0.015625)"/>
      <path id="DejaVuSans-79" d="M 2059 -325 
Q 1816 -950 1584 -1140 
Q 1353 -1331 966 -1331 
L 506 -1331 
L 506 -850 
L 844 -850 
Q 1081 -850 1212 -737 
Q 1344 -625 1503 -206 
L 1606 56 
L 191 3500 
L 800 3500 
L 1894 763 
L 2988 3500 
L 3597 3500 
L 2059 -325 
z
" transform="scale(0.015625)"/>
      <path id="DejaVuSans-73" d="M 2834 3397 
L 2834 2853 
Q 2591 2978 2328 3040 
Q 2066 3103 1784 3103 
Q 1356 3103 1142 2972 
Q 928 2841 928 2578 
Q 928 2378 1081 2264 
Q 1234 2150 1697 2047 
L 1894 2003 
Q 2506 1872 2764 1633 
Q 3022 1394 3022 966 
Q 3022 478 2636 193 
Q 2250 -91 1575 -91 
Q 1294 -91 989 -36 
Q 684 19 347 128 
L 347 722 
Q 666 556 975 473 
Q 1284 391 1588 391 
Q 1994 391 2212 530 
Q 2431 669 2431 922 
Q 2431 1156 2273 1281 
Q 2116 1406 1581 1522 
L 1381 1569 
Q 847 1681 609 1914 
Q 372 2147 372 2553 
Q 372 3047 722 3315 
Q 1072 3584 1716 3584 
Q 2034 3584 2315 3537 
Q 2597 3491 2834 3397 
z
" transform="scale(0.015625)"/>
     </defs>
     <use xlink:href="#DejaVuSans-76"/>
     <use xlink:href="#DejaVuSans-6f" transform="translate(59.179688 0)"/>
     <use xlink:href="#DejaVuSans-6c" transform="translate(120.361328 0)"/>
     <use xlink:href="#DejaVuSans-75" transform="translate(148.144531 0)"/>
     <use xlink:href="#DejaVuSans-6d" transform="translate(211.523438 0)"/>
     <use xlink:href="#DejaVuSans-65" transform="translate(308.935547 0)"/>
     <use xlink:href="#DejaVuSans-20" transform="translate(370.458984 0)"/>
     <use xlink:href="#DejaVuSans-64" transform="translate(402.246094 0)"/>
     <use xlink:href="#DejaVuSans-69" transform="translate(465.722656 0)"/>
     <use xlink:href="#DejaVuSans-20" transform="translate(493.505859 0)"/>
     <use xlink:href="#DejaVuSans-44" transform="translate(525.292969 0)"/>
     <use xlink:href="#DejaVuSans-65" transform="translate(602.294922 0)"/>
     <use xlink:href="#DejaVuSans-62" transform="translate(663.818359 0)"/>
     <use xlink:href="#DejaVuSans-79" transform="translate(727.294922 0)"/>
     <use xlink:href="#DejaVuSans-65" transform="translate(786.474609 0)"/>
     <use xlink:href="#DejaVuSans-20" transform="translate(847.998047 0)"/>
     <use xlink:href="#DejaVuSans-65" transform="translate(879.785156 0)"/>
     <use xlink:href="#DejaVuSans-73" transform="translate(941.308594 0)"/>
     <use xlink:href="#DejaVuSans-74" transform="translate(993.408203 0)"/>
     <use xlink:href="#DejaVuSans-65" transform="translate(1032.617188 0)"/>
     <use xlink:href="#DejaVuSans-73" transform="translate(1094.140625 0)"/>
     <use xlink:href="#DejaVuSans-6f" transform="translate(1146.240234 0)"/>
    </g>
   </g>
   <g id="text_4">
    <!-- ramo ottico -->
    <g transform="translate(385.396949 170.623256) scale(0.09 -0.09)">
     <defs>
      <path id="DejaVuSans-63" d="M 3122 3366 
L 3122 2828 
Q 2878 2963 2633 3030 
Q 2388 3097 2138 3097 
Q 1578 3097 1268 2742 
Q 959 2388 959 1747 
Q 959 1106 1268 751 
Q 1578 397 2138 397 
Q 2388 397 2633 464 
Q 2878 531 3122 666 
L 3122 134 
Q 2881 22 2623 -34 
Q 2366 -91 2075 -91 
Q 1284 -91 818 406 
Q 353 903 353 1747 
Q 353 2603 823 3093 
Q 1294 3584 2113 3584 
Q 2378 3584 2631 3529 
Q 2884 3475 3122 3366 
z
" transform="scale(0.015625)"/>
     </defs>
     <use xlink:href="#DejaVuSans-72"/>
     <use xlink:href="#DejaVuSans-61" transform="translate(41.113281 0)"/>
     <use xlink:href="#DejaVuSans-6d" transform="translate(102.392578 0)"/>
     <use xlink:href="#DejaVuSans-6f" transform="translate(199.804688 0)"/>
     <use xlink:href="#DejaVuSans-20" transform="translate(260.986328 0)"/>
     <use xlink:href="#DejaVuSans-6f" transform="translate(292.773438 0)"/>
     <use xlink:href="#DejaVuSans-74" transform="translate(353.955078 0)"/>
     <use xlink:href="#DejaVuSans-74" transform="translate(393.164062 0)"/>
     <use xlink:href="#DejaVuSans-69" transform="translate(432.373047 0)"/>
     <use xlink:href="#DejaVuSans-63" transform="translate(460.15625 0)"/>
     <use xlink:href="#DejaVuSans-6f" transform="translate(515.136719 0)"/>
    </g>
   </g>
   <g id="text_5">
    <!-- ramo acustico -->
    <g transform="translate(385.396949 243.867416) scale(0.09 -0.09)">
     <use xlink:href="#DejaVuSans-72"/>
     <use xlink:href="#DejaVuSans-61" transform="translate(41.113281 0)"/>
     <use xlink:href="#DejaVuSans-6d" transform="translate(102.392578 0)"/>
     <use xlink:href="#DejaVuSans-6f" transform="translate(199.804688 0)"/>
     <use xlink:href="#DejaVuSans-20" transform="translate(260.986328 0)"/>
     <use xlink:href="#DejaVuSans-61" transform="translate(292.773438 0)"/>
     <use xlink:href="#DejaVuSans-63" transform="translate(354.052734 0)"/>
     <use xlink:href="#DejaVuSans-75" transform="translate(409.033203 0)"/>
     <use xlink:href="#DejaVuSans-73" transform="translate(472.412109 0)"/>
     <use xlink:href="#DejaVuSans-74" transform="translate(524.511719 0)"/>
     <use xlink:href="#DejaVuSans-69" transform="translate(563.720703 0)"/>
     <use xlink:href="#DejaVuSans-63" transform="translate(591.503906 0)"/>
     <use xlink:href="#DejaVuSans-6f" transform="translate(646.484375 0)"/>
    </g>
   </g>
   <g id="text_6">
    <!-- $q_D$ -->
    <g transform="translate(494.919153 428.093221) scale(0.1 -0.1)">
     <defs>
      <path id="DejaVuSans-Oblique-44" d="M 1081 4666 
L 2438 4666 
Q 3519 4666 4070 4208 
Q 4622 3750 4622 2847 
Q 4622 2250 4412 1698 
Q 4203 1147 3834 769 
Q 3463 381 2891 190 
Q 2319 0 1538 0 
L 172 0 
L 1081 4666 
z
M 1613 4147 
L 909 519 
L 1734 519 
Q 2794 519 3375 1128 
Q 3956 1738 3956 2847 
Q 3956 3519 3581 3833 
Q 3206 4147 2406 4147 
L 1613 4147 
z
" transform="scale(0.015625)"/>
     </defs>
     <use xlink:href="#DejaVuSans-Oblique-71"/>
     <use xlink:href="#DejaVuSans-Oblique-44" transform="translate(63.476562 -16.40625) scale(0.7)"/>
    </g>
   </g>
   <g id="text_7">
    <!-- bordo 1ª ZB -->
    <g transform="translate(438.40285 427.35369) scale(0.09 -0.09)">
     <defs>
      <path id="DejaVuSans-31" d="M 794 531 
L 1825 531 
L 1825 4091 
L 703 3866 
L 703 4441 
L 1819 4666 
L 2450 4666 
L 2450 531 
L 3481 531 
L 3481 0 
L 794 0 
L 794 531 
z
" transform="scale(0.015625)"/>
      <path id="DejaVuSans-aa" d="M 434 1850 
L 2584 1850 
L 2584 1466 
L 434 1466 
L 434 1850 
z
M 2578 3641 
L 2578 2241 
L 2113 2241 
L 2113 2591 
Q 1975 2394 1750 2287 
Q 1525 2181 1234 2181 
Q 834 2181 596 2392 
Q 359 2603 359 2956 
Q 359 3378 657 3593 
Q 956 3809 1544 3809 
L 2113 3809 
L 2113 3822 
Q 2113 4106 1930 4248 
Q 1747 4391 1381 4391 
Q 1188 4391 975 4337 
Q 763 4284 550 4178 
L 550 4575 
Q 778 4663 1004 4706 
Q 1231 4750 1447 4750 
Q 2019 4750 2298 4475 
Q 2578 4200 2578 3641 
z
M 1716 3450 
Q 1213 3450 1016 3345 
Q 819 3241 819 2994 
Q 819 2794 972 2673 
Q 1125 2553 1381 2553 
Q 1706 2553 1909 2778 
Q 2113 3003 2113 3359 
L 2113 3450 
L 1716 3450 
z
" transform="scale(0.015625)"/>
      <path id="DejaVuSans-5a" d="M 359 4666 
L 4025 4666 
L 4025 4184 
L 1075 531 
L 4097 531 
L 4097 0 
L 288 0 
L 288 481 
L 3238 4134 
L 359 4134 
L 359 4666 
z
" transform="scale(0.015625)"/>
      <path id="DejaVuSans-42" d="M 1259 2228 
L 1259 519 
L 2272 519 
Q 2781 519 3026 730 
Q 3272 941 3272 1375 
Q 3272 1813 3026 2020 
Q 2781 2228 2272 2228 
L 1259 2228 
z
M 1259 4147 
L 1259 2741 
L 2194 2741 
Q 2656 2741 2882 2914 
Q 3109 3088 3109 3444 
Q 3109 3797 2882 3972 
Q 2656 4147 2194 4147 
L 1259 4147 
z
M 628 4666 
L 2241 4666 
Q 2963 4666 3353 4366 
Q 3744 4066 3744 3513 
Q 3744 3084 3544 2831 
Q 3344 2578 2956 2516 
Q 3422 2416 3680 2098 
Q 3938 1781 3938 1306 
Q 3938 681 3513 340 
Q 3088 0 2303 0 
L 628 0 
L 628 4666 
z
" transform="scale(0.015625)"/>
     </defs>
     <use xlink:href="#DejaVuSans-62"/>
     <use xlink:href="#DejaVuSans-6f" transform="translate(63.476562 0)"/>
     <use xlink:href="#DejaVuSans-72" transform="translate(124.658203 0)"/>
     <use xlink:href="#DejaVuSans-64" transform="translate(164.021484 0)"/>
     <use xlink:href="#DejaVuSans-6f" transform="translate(227.498047 0)"/>
     <use xlink:href="#DejaVuSans-20" transform="translate(288.679688 0)"/>
     <use xlink:href="#DejaVuSans-31" transform="translate(320.466797 0)"/>
     <use xlink:href="#DejaVuSans-aa" transform="translate(384.089844 0)"/>
     <use xlink:href="#DejaVuSans-20" transform="translate(431.208984 0)"/>
     <use xlink:href="#DejaVuSans-5a" transform="translate(462.996094 0)"/>
     <use xlink:href="#DejaVuSans-42" transform="translate(531.501953 0)"/>
    </g>
   </g>
   <g id="text_8">
    <!-- Definizione del ramo acustico efficace nel modello di Debye -->
    <g transform="translate(30.344375 18.597656) scale(0.15 -0.15)">
     <defs>
      <path id="DejaVuSans-Bold-44" d="M 1791 3756 
L 1791 909 
L 2222 909 
Q 2959 909 3348 1275 
Q 3738 1641 3738 2338 
Q 3738 3031 3350 3393 
Q 2963 3756 2222 3756 
L 1791 3756 
z
M 588 4666 
L 1856 4666 
Q 2919 4666 3439 4514 
Q 3959 4363 4331 4000 
Q 4659 3684 4818 3271 
Q 4978 2859 4978 2338 
Q 4978 1809 4818 1395 
Q 4659 981 4331 666 
Q 3956 303 3431 151 
Q 2906 0 1856 0 
L 588 0 
L 588 4666 
z
" transform="scale(0.015625)"/>
      <path id="DejaVuSans-Bold-65" d="M 4031 1759 
L 4031 1441 
L 1416 1441 
Q 1456 1047 1700 850 
Q 1944 653 2381 653 
Q 2734 653 3104 758 
Q 3475 863 3866 1075 
L 3866 213 
Q 3469 63 3072 -14 
Q 2675 -91 2278 -91 
Q 1328 -91 801 392 
Q 275 875 275 1747 
Q 275 2603 792 3093 
Q 1309 3584 2216 3584 
Q 3041 3584 3536 3087 
Q 4031 2591 4031 1759 
z
M 2881 2131 
Q 2881 2450 2695 2645 
Q 2509 2841 2209 2841 
Q 1884 2841 1681 2658 
Q 1478 2475 1428 2131 
L 2881 2131 
z
" transform="scale(0.015625)"/>
      <path id="DejaVuSans-Bold-66" d="M 2841 4863 
L 2841 4128 
L 2222 4128 
Q 1984 4128 1890 4042 
Q 1797 3956 1797 3744 
L 1797 3500 
L 2753 3500 
L 2753 2700 
L 1797 2700 
L 1797 0 
L 678 0 
L 678 2700 
L 122 2700 
L 122 3500 
L 678 3500 
L 678 3744 
Q 678 4316 997 4589 
Q 1316 4863 1984 4863 
L 2841 4863 
z
" transform="scale(0.015625)"/>
      <path id="DejaVuSans-Bold-69" d="M 538 3500 
L 1656 3500 
L 1656 0 
L 538 0 
L 538 3500 
z
M 538 4863 
L 1656 4863 
L 1656 3950 
L 538 3950 
L 538 4863 
z
" transform="scale(0.015625)"/>
      <path id="DejaVuSans-Bold-6e" d="M 4056 2131 
L 4056 0 
L 2931 0 
L 2931 347 
L 2931 1631 
Q 2931 2084 2911 2256 
Q 2891 2428 2841 2509 
Q 2775 2619 2662 2680 
Q 2550 2741 2406 2741 
Q 2056 2741 1856 2470 
Q 1656 2200 1656 1722 
L 1656 0 
L 538 0 
L 538 3500 
L 1656 3500 
L 1656 2988 
Q 1909 3294 2193 3439 
Q 2478 3584 2822 3584 
Q 3428 3584 3742 3212 
Q 4056 2841 4056 2131 
z
" transform="scale(0.015625)"/>
      <path id="DejaVuSans-Bold-7a" d="M 366 3500 
L 3419 3500 
L 3419 2719 
L 1575 800 
L 3419 800 
L 3419 0 
L 288 0 
L 288 781 
L 2131 2700 
L 366 2700 
L 366 3500 
z
" transform="scale(0.015625)"/>
      <path id="DejaVuSans-Bold-6f" d="M 2203 2784 
Q 1831 2784 1636 2517 
Q 1441 2250 1441 1747 
Q 1441 1244 1636 976 
Q 1831 709 2203 709 
Q 2569 709 2762 976 
Q 2956 1244 2956 1747 
Q 2956 2250 2762 2517 
Q 2569 2784 2203 2784 
z
M 2203 3584 
Q 3106 3584 3614 3096 
Q 4122 2609 4122 1747 
Q 4122 884 3614 396 
Q 3106 -91 2203 -91 
Q 1297 -91 786 396 
Q 275 884 275 1747 
Q 275 2609 786 3096 
Q 1297 3584 2203 3584 
z
" transform="scale(0.015625)"/>
      <path id="DejaVuSans-Bold-20" transform="scale(0.015625)"/>
      <path id="DejaVuSans-Bold-64" d="M 2919 2988 
L 2919 4863 
L 4044 4863 
L 4044 0 
L 2919 0 
L 2919 506 
Q 2688 197 2409 53 
Q 2131 -91 1766 -91 
Q 1119 -91 703 423 
Q 288 938 288 1747 
Q 288 2556 703 3070 
Q 1119 3584 1766 3584 
Q 2128 3584 2408 3439 
Q 2688 3294 2919 2988 
z
M 2181 722 
Q 2541 722 2730 984 
Q 2919 1247 2919 1747 
Q 2919 2247 2730 2509 
Q 2541 2772 2181 2772 
Q 1825 2772 1636 2509 
Q 1447 2247 1447 1747 
Q 1447 1247 1636 984 
Q 1825 722 2181 722 
z
" transform="scale(0.015625)"/>
      <path id="DejaVuSans-Bold-6c" d="M 538 4863 
L 1656 4863 
L 1656 0 
L 538 0 
L 538 4863 
z
" transform="scale(0.015625)"/>
      <path id="DejaVuSans-Bold-72" d="M 3138 2547 
Q 2991 2616 2845 2648 
Q 2700 2681 2553 2681 
Q 2122 2681 1889 2404 
Q 1656 2128 1656 1613 
L 1656 0 
L 538 0 
L 538 3500 
L 1656 3500 
L 1656 2925 
Q 1872 3269 2151 3426 
Q 2431 3584 2822 3584 
Q 2878 3584 2943 3579 
Q 3009 3575 3134 3559 
L 3138 2547 
z
" transform="scale(0.015625)"/>
      <path id="DejaVuSans-Bold-61" d="M 2106 1575 
Q 1756 1575 1579 1456 
Q 1403 1338 1403 1106 
Q 1403 894 1545 773 
Q 1688 653 1941 653 
Q 2256 653 2472 879 
Q 2688 1106 2688 1447 
L 2688 1575 
L 2106 1575 
z
M 3816 1997 
L 3816 0 
L 2688 0 
L 2688 519 
Q 2463 200 2181 54 
Q 1900 -91 1497 -91 
Q 953 -91 614 226 
Q 275 544 275 1050 
Q 275 1666 698 1953 
Q 1122 2241 2028 2241 
L 2688 2241 
L 2688 2328 
Q 2688 2594 2478 2717 
Q 2269 2841 1825 2841 
Q 1466 2841 1156 2769 
Q 847 2697 581 2553 
L 581 3406 
Q 941 3494 1303 3539 
Q 1666 3584 2028 3584 
Q 2975 3584 3395 3211 
Q 3816 2838 3816 1997 
z
" transform="scale(0.015625)"/>
      <path id="DejaVuSans-Bold-6d" d="M 3781 2919 
Q 3994 3244 4286 3414 
Q 4578 3584 4928 3584 
Q 5531 3584 5847 3212 
Q 6163 2841 6163 2131 
L 6163 0 
L 5038 0 
L 5038 1825 
Q 5041 1866 5042 1909 
Q 5044 1953 5044 2034 
Q 5044 2406 4934 2573 
Q 4825 2741 4581 2741 
Q 4263 2741 4089 2478 
Q 3916 2216 3909 1719 
L 3909 0 
L 2784 0 
L 2784 1825 
Q 2784 2406 2684 2573 
Q 2584 2741 2328 2741 
Q 2006 2741 1831 2477 
Q 1656 2213 1656 1722 
L 1656 0 
L 531 0 
L 531 3500 
L 1656 3500 
L 1656 2988 
Q 1863 3284 2130 3434 
Q 2397 3584 2719 3584 
Q 3081 3584 3359 3409 
Q 3638 3234 3781 2919 
z
" transform="scale(0.015625)"/>
      <path id="DejaVuSans-Bold-63" d="M 3366 3391 
L 3366 2478 
Q 3138 2634 2908 2709 
Q 2678 2784 2431 2784 
Q 1963 2784 1702 2511 
Q 1441 2238 1441 1747 
Q 1441 1256 1702 982 
Q 1963 709 2431 709 
Q 2694 709 2930 787 
Q 3166 866 3366 1019 
L 3366 103 
Q 3103 6 2833 -42 
Q 2563 -91 2291 -91 
Q 1344 -91 809 395 
Q 275 881 275 1747 
Q 275 2613 809 3098 
Q 1344 3584 2291 3584 
Q 2566 3584 2833 3536 
Q 3100 3488 3366 3391 
z
" transform="scale(0.015625)"/>
      <path id="DejaVuSans-Bold-75" d="M 500 1363 
L 500 3500 
L 1625 3500 
L 1625 3150 
Q 1625 2866 1622 2436 
Q 1619 2006 1619 1863 
Q 1619 1441 1641 1255 
Q 1663 1069 1716 984 
Q 1784 875 1895 815 
Q 2006 756 2150 756 
Q 2500 756 2700 1025 
Q 2900 1294 2900 1772 
L 2900 3500 
L 4019 3500 
L 4019 0 
L 2900 0 
L 2900 506 
Q 2647 200 2364 54 
Q 2081 -91 1741 -91 
Q 1134 -91 817 281 
Q 500 653 500 1363 
z
" transform="scale(0.015625)"/>
      <path id="DejaVuSans-Bold-73" d="M 3272 3391 
L 3272 2541 
Q 2913 2691 2578 2766 
Q 2244 2841 1947 2841 
Q 1628 2841 1473 2761 
Q 1319 2681 1319 2516 
Q 1319 2381 1436 2309 
Q 1553 2238 1856 2203 
L 2053 2175 
Q 2913 2066 3209 1816 
Q 3506 1566 3506 1031 
Q 3506 472 3093 190 
Q 2681 -91 1863 -91 
Q 1516 -91 1145 -36 
Q 775 19 384 128 
L 384 978 
Q 719 816 1070 734 
Q 1422 653 1784 653 
Q 2113 653 2278 743 
Q 2444 834 2444 1013 
Q 2444 1163 2330 1236 
Q 2216 1309 1875 1350 
L 1678 1375 
Q 931 1469 631 1722 
Q 331 1975 331 2491 
Q 331 3047 712 3315 
Q 1094 3584 1881 3584 
Q 2191 3584 2531 3537 
Q 2872 3491 3272 3391 
z
" transform="scale(0.015625)"/>
      <path id="DejaVuSans-Bold-74" d="M 1759 4494 
L 1759 3500 
L 2913 3500 
L 2913 2700 
L 1759 2700 
L 1759 1216 
Q 1759 972 1856 886 
Q 1953 800 2241 800 
L 2816 800 
L 2816 0 
L 1856 0 
Q 1194 0 917 276 
Q 641 553 641 1216 
L 641 2700 
L 84 2700 
L 84 3500 
L 641 3500 
L 641 4494 
L 1759 4494 
z
" transform="scale(0.015625)"/>
      <path id="DejaVuSans-Bold-62" d="M 2400 722 
Q 2759 722 2948 984 
Q 3138 1247 3138 1747 
Q 3138 2247 2948 2509 
Q 2759 2772 2400 2772 
Q 2041 2772 1848 2508 
Q 1656 2244 1656 1747 
Q 1656 1250 1848 986 
Q 2041 722 2400 722 
z
M 1656 2988 
Q 1888 3294 2169 3439 
Q 2450 3584 2816 3584 
Q 3463 3584 3878 3070 
Q 4294 2556 4294 1747 
Q 4294 938 3878 423 
Q 3463 -91 2816 -91 
Q 2450 -91 2169 54 
Q 1888 200 1656 506 
L 1656 0 
L 538 0 
L 538 4863 
L 1656 4863 
L 1656 2988 
z
" transform="scale(0.015625)"/>
      <path id="DejaVuSans-Bold-79" d="M 78 3500 
L 1197 3500 
L 2138 1125 
L 2938 3500 
L 4056 3500 
L 2584 -331 
Q 2363 -916 2067 -1148 
Q 1772 -1381 1288 -1381 
L 641 -1381 
L 641 -647 
L 991 -647 
Q 1275 -647 1404 -556 
Q 1534 -466 1606 -231 
L 1638 -134 
L 78 3500 
z
" transform="scale(0.015625)"/>
     </defs>
     <use xlink:href="#DejaVuSans-Bold-44"/>
     <use xlink:href="#DejaVuSans-Bold-65" transform="translate(83.007812 0)"/>
     <use xlink:href="#DejaVuSans-Bold-66" transform="translate(150.830078 0)"/>
     <use xlink:href="#DejaVuSans-Bold-69" transform="translate(194.335938 0)"/>
     <use xlink:href="#DejaVuSans-Bold-6e" transform="translate(228.613281 0)"/>
     <use xlink:href="#DejaVuSans-Bold-69" transform="translate(299.804688 0)"/>
     <use xlink:href="#DejaVuSans-Bold-7a" transform="translate(334.082031 0)"/>
     <use xlink:href="#DejaVuSans-Bold-69" transform="translate(392.285156 0)"/>
     <use xlink:href="#DejaVuSans-Bold-6f" transform="translate(426.5625 0)"/>
     <use xlink:href="#DejaVuSans-Bold-6e" transform="translate(495.263672 0)"/>
     <use xlink:href="#DejaVuSans-Bold-65" transform="translate(566.455078 0)"/>
     <use xlink:href="#DejaVuSans-Bold-20" transform="translate(634.277344 0)"/>
     <use xlink:href="#DejaVuSans-Bold-64" transform="translate(669.091797 0)"/>
     <use xlink:href="#DejaVuSans-Bold-65" transform="translate(740.673828 0)"/>
     <use xlink:href="#DejaVuSans-Bold-6c" transform="translate(808.496094 0)"/>
     <use xlink:href="#DejaVuSans-Bold-20" transform="translate(842.773438 0)"/>
     <use xlink:href="#DejaVuSans-Bold-72" transform="translate(877.587891 0)"/>
     <use xlink:href="#DejaVuSans-Bold-61" transform="translate(926.904297 0)"/>
     <use xlink:href="#DejaVuSans-Bold-6d" transform="translate(994.384766 0)"/>
     <use xlink:href="#DejaVuSans-Bold-6f" transform="translate(1098.583984 0)"/>
     <use xlink:href="#DejaVuSans-Bold-20" transform="translate(1167.285156 0)"/>
     <use xlink:href="#DejaVuSans-Bold-61" transform="translate(1202.099609 0)"/>
     <use xlink:href="#DejaVuSans-Bold-63" transform="translate(1269.580078 0)"/>
     <use xlink:href="#DejaVuSans-Bold-75" transform="translate(1328.857422 0)"/>
     <use xlink:href="#DejaVuSans-Bold-73" transform="translate(1400.048828 0)"/>
     <use xlink:href="#DejaVuSans-Bold-74" transform="translate(1459.570312 0)"/>
     <use xlink:href="#DejaVuSans-Bold-69" transform="translate(1507.373047 0)"/>
     <use xlink:href="#DejaVuSans-Bold-63" transform="translate(1541.650391 0)"/>
     <use xlink:href="#DejaVuSans-Bold-6f" transform="translate(1600.927734 0)"/>
     <use xlink:href="#DejaVuSans-Bold-20" transform="translate(1669.628906 0)"/>
     <use xlink:href="#DejaVuSans-Bold-65" transform="translate(1704.443359 0)"/>
     <use xlink:href="#DejaVuSans-Bold-66" transform="translate(1772.265625 0)"/>
     <use xlink:href="#DejaVuSans-Bold-66" transform="translate(1815.771484 0)"/>
     <use xlink:href="#DejaVuSans-Bold-69" transform="translate(1859.277344 0)"/>
     <use xlink:href="#DejaVuSans-Bold-63" transform="translate(1893.554688 0)"/>
     <use xlink:href="#DejaVuSans-Bold-61" transform="translate(1952.832031 0)"/>
     <use xlink:href="#DejaVuSans-Bold-63" transform="translate(2020.3125 0)"/>
     <use xlink:href="#DejaVuSans-Bold-65" transform="translate(2079.589844 0)"/>
     <use xlink:href="#DejaVuSans-Bold-20" transform="translate(2147.412109 0)"/>
     <use xlink:href="#DejaVuSans-Bold-6e" transform="translate(2182.226562 0)"/>
     <use xlink:href="#DejaVuSans-Bold-65" transform="translate(2253.417969 0)"/>
     <use xlink:href="#DejaVuSans-Bold-6c" transform="translate(2321.240234 0)"/>
     <use xlink:href="#DejaVuSans-Bold-20" transform="translate(2355.517578 0)"/>
     <use xlink:href="#DejaVuSans-Bold-6d" transform="translate(2390.332031 0)"/>
     <use xlink:href="#DejaVuSans-Bold-6f" transform="translate(2494.53125 0)"/>
     <use xlink:href="#DejaVuSans-Bold-64" transform="translate(2563.232422 0)"/>
     <use xlink:href="#DejaVuSans-Bold-65" transform="translate(2634.814453 0)"/>
     <use xlink:href="#DejaVuSans-Bold-6c" transform="translate(2702.636719 0)"/>
     <use xlink:href="#DejaVuSans-Bold-6c" transform="translate(2736.914062 0)"/>
     <use xlink:href="#DejaVuSans-Bold-6f" transform="translate(2771.191406 0)"/>
     <use xlink:href="#DejaVuSans-Bold-20" transform="translate(2839.892578 0)"/>
     <use xlink:href="#DejaVuSans-Bold-64" transform="translate(2874.707031 0)"/>
     <use xlink:href="#DejaVuSans-Bold-69" transform="translate(2946.289062 0)"/>
     <use xlink:href="#DejaVuSans-Bold-20" transform="translate(2980.566406 0)"/>
     <use xlink:href="#DejaVuSans-Bold-44" transform="translate(3015.380859 0)"/>
     <use xlink:href="#DejaVuSans-Bold-65" transform="translate(3098.388672 0)"/>
     <use xlink:href="#DejaVuSans-Bold-62" transform="translate(3166.210938 0)"/>
     <use xlink:href="#DejaVuSans-Bold-79" transform="translate(3237.792969 0)"/>
     <use xlink:href="#DejaVuSans-Bold-65" transform="translate(3302.978516 0)"/>
    </g>
   </g>
   <g id="legend_1">
    <g id="line2d_6">
     <path d="M 29.9 43.696094 
L 39.9 43.696094 
L 49.9 43.696094 
" style="fill: none; stroke: #1f77b4; stroke-width: 2; stroke-linecap: square"/>
    </g>
    <g id="text_9">
     <!-- ramo acustico reale -->
     <g transform="translate(57.9 47.196094) scale(0.1 -0.1)">
      <use xlink:href="#DejaVuSans-72"/>
      <use xlink:href="#DejaVuSans-61" transform="translate(41.113281 0)"/>
      <use xlink:href="#DejaVuSans-6d" transform="translate(102.392578 0)"/>
      <use xlink:href="#DejaVuSans-6f" transform="translate(199.804688 0)"/>
      <use xlink:href="#DejaVuSans-20" transform="translate(260.986328 0)"/>
      <use xlink:href="#DejaVuSans-61" transform="translate(292.773438 0)"/>
      <use xlink:href="#DejaVuSans-63" transform="translate(354.052734 0)"/>
      <use xlink:href="#DejaVuSans-75" transform="translate(409.033203 0)"/>
      <use xlink:href="#DejaVuSans-73" transform="translate(472.412109 0)"/>
      <use xlink:href="#DejaVuSans-74" transform="translate(524.511719 0)"/>
      <use xlink:href="#DejaVuSans-69" transform="translate(563.720703 0)"/>
      <use xlink:href="#DejaVuSans-63" transform="translate(591.503906 0)"/>
      <use xlink:href="#DejaVuSans-6f" transform="translate(646.484375 0)"/>
      <use xlink:href="#DejaVuSans-20" transform="translate(707.666016 0)"/>
      <use xlink:href="#DejaVuSans-72" transform="translate(739.453125 0)"/>
      <use xlink:href="#DejaVuSans-65" transform="translate(778.316406 0)"/>
      <use xlink:href="#DejaVuSans-61" transform="translate(839.839844 0)"/>
      <use xlink:href="#DejaVuSans-6c" transform="translate(901.119141 0)"/>
      <use xlink:href="#DejaVuSans-65" transform="translate(928.902344 0)"/>
     </g>
    </g>
    <g id="line2d_7">
     <path d="M 29.9 58.374219 
L 39.9 58.374219 
L 49.9 58.374219 
" style="fill: none; stroke: #ff7f0e; stroke-width: 2; stroke-linecap: square"/>
    </g>
    <g id="text_10">
     <!-- ramo ottico reale -->
     <g transform="translate(57.9 61.874219) scale(0.1 -0.1)">
      <use xlink:href="#DejaVuSans-72"/>
      <use xlink:href="#DejaVuSans-61" transform="translate(41.113281 0)"/>
      <use xlink:href="#DejaVuSans-6d" transform="translate(102.392578 0)"/>
      <use xlink:href="#DejaVuSans-6f" transform="translate(199.804688 0)"/>
      <use xlink:href="#DejaVuSans-20" transform="translate(260.986328 0)"/>
      <use xlink:href="#DejaVuSans-6f" transform="translate(292.773438 0)"/>
      <use xlink:href="#DejaVuSans-74" transform="translate(353.955078 0)"/>
      <use xlink:href="#DejaVuSans-74" transform="translate(393.164062 0)"/>
      <use xlink:href="#DejaVuSans-69" transform="translate(432.373047 0)"/>
      <use xlink:href="#DejaVuSans-63" transform="translate(460.15625 0)"/>
      <use xlink:href="#DejaVuSans-6f" transform="translate(515.136719 0)"/>
      <use xlink:href="#DejaVuSans-20" transform="translate(576.318359 0)"/>
      <use xlink:href="#DejaVuSans-72" transform="translate(608.105469 0)"/>
      <use xlink:href="#DejaVuSans-65" transform="translate(646.96875 0)"/>
      <use xlink:href="#DejaVuSans-61" transform="translate(708.492188 0)"/>
      <use xlink:href="#DejaVuSans-6c" transform="translate(769.771484 0)"/>
      <use xlink:href="#DejaVuSans-65" transform="translate(797.554688 0)"/>
     </g>
    </g>
    <g id="line2d_8">
     <path d="M 29.9 73.052344 
L 39.9 73.052344 
L 49.9 73.052344 
" style="fill: none; stroke: #2ca02c; stroke-width: 2.2; stroke-linecap: square"/>
    </g>
    <g id="text_11">
     <!-- ramo acustico efficace di Debye -->
     <g transform="translate(57.9 76.552344) scale(0.1 -0.1)">
      <use xlink:href="#DejaVuSans-72"/>
      <use xlink:href="#DejaVuSans-61" transform="translate(41.113281 0)"/>
      <use xlink:href="#DejaVuSans-6d" transform="translate(102.392578 0)"/>
      <use xlink:href="#DejaVuSans-6f" transform="translate(199.804688 0)"/>
      <use xlink:href="#DejaVuSans-20" transform="translate(260.986328 0)"/>
      <use xlink:href="#DejaVuSans-61" transform="translate(292.773438 0)"/>
      <use xlink:href="#DejaVuSans-63" transform="translate(354.052734 0)"/>
      <use xlink:href="#DejaVuSans-75" transform="translate(409.033203 0)"/>
      <use xlink:href="#DejaVuSans-73" transform="translate(472.412109 0)"/>
      <use xlink:href="#DejaVuSans-74" transform="translate(524.511719 0)"/>
      <use xlink:href="#DejaVuSans-69" transform="translate(563.720703 0)"/>
      <use xlink:href="#DejaVuSans-63" transform="translate(591.503906 0)"/>
      <use xlink:href="#DejaVuSans-6f" transform="translate(646.484375 0)"/>
      <use xlink:href="#DejaVuSans-20" transform="translate(707.666016 0)"/>
      <use xlink:href="#DejaVuSans-65" transform="translate(739.453125 0)"/>
      <use xlink:href="#DejaVuSans-66" transform="translate(800.976562 0)"/>
      <use xlink:href="#DejaVuSans-66" transform="translate(836.181641 0)"/>
      <use xlink:href="#DejaVuSans-69" transform="translate(871.386719 0)"/>
      <use xlink:href="#DejaVuSans-63" transform="translate(899.169922 0)"/>
      <use xlink:href="#DejaVuSans-61" transform="translate(954.150391 0)"/>
      <use xlink:href="#DejaVuSans-63" transform="translate(1015.429688 0)"/>
      <use xlink:href="#DejaVuSans-65" transform="translate(1070.410156 0)"/>
      <use xlink:href="#DejaVuSans-20" transform="translate(1131.933594 0)"/>
      <use xlink:href="#DejaVuSans-64" transform="translate(1163.720703 0)"/>
      <use xlink:href="#DejaVuSans-69" transform="translate(1227.197266 0)"/>
      <use xlink:href="#DejaVuSans-20" transform="translate(1254.980469 0)"/>
      <use xlink:href="#DejaVuSans-44" transform="translate(1286.767578 0)"/>
      <use xlink:href="#DejaVuSans-65" transform="translate(1363.769531 0)"/>
      <use xlink:href="#DejaVuSans-62" transform="translate(1425.292969 0)"/>
      <use xlink:href="#DejaVuSans-79" transform="translate(1488.769531 0)"/>
      <use xlink:href="#DejaVuSans-65" transform="translate(1547.949219 0)"/>
     </g>
    </g>
   </g>
  </g>
  <g id="text_12">
   <!-- Il ramo lineare è prolungato fino a qD in modo da conservare il numero totale dei modi vibrazionali. -->
   <g transform="translate(25.224219 449.205656) scale(0.1 -0.1)">
    <defs>
     <path id="DejaVuSans-49" d="M 628 4666 
L 1259 4666 
L 1259 0 
L 628 0 
L 628 4666 
z
" transform="scale(0.015625)"/>
     <path id="DejaVuSans-e8" d="M 3597 1894 
L 3597 1613 
L 953 1613 
Q 991 1019 1311 708 
Q 1631 397 2203 397 
Q 2534 397 2845 478 
Q 3156 559 3463 722 
L 3463 178 
Q 3153 47 2828 -22 
Q 2503 -91 2169 -91 
Q 1331 -91 842 396 
Q 353 884 353 1716 
Q 353 2575 817 3079 
Q 1281 3584 2069 3584 
Q 2775 3584 3186 3129 
Q 3597 2675 3597 1894 
z
M 3022 2063 
Q 3016 2534 2758 2815 
Q 2500 3097 2075 3097 
Q 1594 3097 1305 2825 
Q 1016 2553 972 2059 
L 3022 2063 
z
M 1579 5119 
L 2460 3950 
L 1982 3950 
L 963 5119 
L 1579 5119 
z
" transform="scale(0.015625)"/>
     <path id="DejaVuSans-70" d="M 1159 525 
L 1159 -1331 
L 581 -1331 
L 581 3500 
L 1159 3500 
L 1159 2969 
Q 1341 3281 1617 3432 
Q 1894 3584 2278 3584 
Q 2916 3584 3314 3078 
Q 3713 2572 3713 1747 
Q 3713 922 3314 415 
Q 2916 -91 2278 -91 
Q 1894 -91 1617 61 
Q 1341 213 1159 525 
z
M 3116 1747 
Q 3116 2381 2855 2742 
Q 2594 3103 2138 3103 
Q 1681 3103 1420 2742 
Q 1159 2381 1159 1747 
Q 1159 1113 1420 752 
Q 1681 391 2138 391 
Q 2594 391 2855 752 
Q 3116 1113 3116 1747 
z
" transform="scale(0.015625)"/>
     <path id="DejaVuSans-67" d="M 2906 1791 
Q 2906 2416 2648 2759 
Q 2391 3103 1925 3103 
Q 1463 3103 1205 2759 
Q 947 2416 947 1791 
Q 947 1169 1205 825 
Q 1463 481 1925 481 
Q 2391 481 2648 825 
Q 2906 1169 2906 1791 
z
M 3481 434 
Q 3481 -459 3084 -895 
Q 2688 -1331 1869 -1331 
Q 1566 -1331 1297 -1286 
Q 1028 -1241 775 -1147 
L 775 -588 
Q 1028 -725 1275 -790 
Q 1522 -856 1778 -856 
Q 2344 -856 2625 -561 
Q 2906 -266 2906 331 
L 2906 616 
Q 2728 306 2450 153 
Q 2172 0 1784 0 
Q 1141 0 747 490 
Q 353 981 353 1791 
Q 353 2603 747 3093 
Q 1141 3584 1784 3584 
Q 2172 3584 2450 3431 
Q 2728 3278 2906 2969 
L 2906 3500 
L 3481 3500 
L 3481 434 
z
" transform="scale(0.015625)"/>
     <path id="DejaVuSans-2e" d="M 684 794 
L 1344 794 
L 1344 0 
L 684 0 
L 684 794 
z
" transform="scale(0.015625)"/>
    </defs>
    <use xlink:href="#DejaVuSans-49"/>
    <use xlink:href="#DejaVuSans-6c" transform="translate(29.492188 0)"/>
    <use xlink:href="#DejaVuSans-20" transform="translate(57.275391 0)"/>
    <use xlink:href="#DejaVuSans-72" transform="translate(89.0625 0)"/>
    <use xlink:href="#DejaVuSans-61" transform="translate(130.175781 0)"/>
    <use xlink:href="#DejaVuSans-6d" transform="translate(191.455078 0)"/>
    <use xlink:href="#DejaVuSans-6f" transform="translate(288.867188 0)"/>
    <use xlink:href="#DejaVuSans-20" transform="translate(350.048828 0)"/>
    <use xlink:href="#DejaVuSans-6c" transform="translate(381.835938 0)"/>
    <use xlink:href="#DejaVuSans-69" transform="translate(409.619141 0)"/>
    <use xlink:href="#DejaVuSans-6e" transform="translate(437.402344 0)"/>
    <use xlink:href="#DejaVuSans-65" transform="translate(500.78125 0)"/>
    <use xlink:href="#DejaVuSans-61" transform="translate(562.304688 0)"/>
    <use xlink:href="#DejaVuSans-72" transform="translate(623.583984 0)"/>
    <use xlink:href="#DejaVuSans-65" transform="translate(662.447266 0)"/>
    <use xlink:href="#DejaVuSans-20" transform="translate(723.970703 0)"/>
    <use xlink:href="#DejaVuSans-e8" transform="translate(755.757812 0)"/>
    <use xlink:href="#DejaVuSans-20" transform="translate(817.28125 0)"/>
    <use xlink:href="#DejaVuSans-70" transform="translate(849.068359 0)"/>
    <use xlink:href="#DejaVuSans-72" transform="translate(912.544922 0)"/>
    <use xlink:href="#DejaVuSans-6f" transform="translate(951.408203 0)"/>
    <use xlink:href="#DejaVuSans-6c" transform="translate(1012.589844 0)"/>
    <use xlink:href="#DejaVuSans-75" transform="translate(1040.373047 0)"/>
    <use xlink:href="#DejaVuSans-6e" transform="translate(1103.751953 0)"/>
    <use xlink:href="#DejaVuSans-67" transform="translate(1167.130859 0)"/>
    <use xlink:href="#DejaVuSans-61" transform="translate(1230.607422 0)"/>
    <use xlink:href="#DejaVuSans-74" transform="translate(1291.886719 0)"/>
    <use xlink:href="#DejaVuSans-6f" transform="translate(1331.095703 0)"/>
    <use xlink:href="#DejaVuSans-20" transform="translate(1392.277344 0)"/>
    <use xlink:href="#DejaVuSans-66" transform="translate(1424.064453 0)"/>
    <use xlink:href="#DejaVuSans-69" transform="translate(1459.269531 0)"/>
    <use xlink:href="#DejaVuSans-6e" transform="translate(1487.052734 0)"/>
    <use xlink:href="#DejaVuSans-6f" transform="translate(1550.431641 0)"/>
    <use xlink:href="#DejaVuSans-20" transform="translate(1611.613281 0)"/>
    <use xlink:href="#DejaVuSans-61" transform="translate(1643.400391 0)"/>
    <use xlink:href="#DejaVuSans-20" transform="translate(1704.679688 0)"/>
    <use xlink:href="#DejaVuSans-71" transform="translate(1736.466797 0)"/>
    <use xlink:href="#DejaVuSans-44" transform="translate(1799.943359 0)"/>
    <use xlink:href="#DejaVuSans-20" transform="translate(1876.945312 0)"/>
    <use xlink:href="#DejaVuSans-69" transform="translate(1908.732422 0)"/>
    <use xlink:href="#DejaVuSans-6e" transform="translate(1936.515625 0)"/>
    <use xlink:href="#DejaVuSans-20" transform="translate(1999.894531 0)"/>
    <use xlink:href="#DejaVuSans-6d" transform="translate(2031.681641 0)"/>
    <use xlink:href="#DejaVuSans-6f" transform="translate(2129.09375 0)"/>
    <use xlink:href="#DejaVuSans-64" transform="translate(2190.275391 0)"/>
    <use xlink:href="#DejaVuSans-6f" transform="translate(2253.751953 0)"/>
    <use xlink:href="#DejaVuSans-20" transform="translate(2314.933594 0)"/>
    <use xlink:href="#DejaVuSans-64" transform="translate(2346.720703 0)"/>
    <use xlink:href="#DejaVuSans-61" transform="translate(2410.197266 0)"/>
    <use xlink:href="#DejaVuSans-20" transform="translate(2471.476562 0)"/>
    <use xlink:href="#DejaVuSans-63" transform="translate(2503.263672 0)"/>
    <use xlink:href="#DejaVuSans-6f" transform="translate(2558.244141 0)"/>
    <use xlink:href="#DejaVuSans-6e" transform="translate(2619.425781 0)"/>
    <use xlink:href="#DejaVuSans-73" transform="translate(2682.804688 0)"/>
    <use xlink:href="#DejaVuSans-65" transform="translate(2734.904297 0)"/>
    <use xlink:href="#DejaVuSans-72" transform="translate(2796.427734 0)"/>
    <use xlink:href="#DejaVuSans-76" transform="translate(2837.541016 0)"/>
    <use xlink:href="#DejaVuSans-61" transform="translate(2896.720703 0)"/>
    <use xlink:href="#DejaVuSans-72" transform="translate(2958 0)"/>
    <use xlink:href="#DejaVuSans-65" transform="translate(2996.863281 0)"/>
    <use xlink:href="#DejaVuSans-20" transform="translate(3058.386719 0)"/>
    <use xlink:href="#DejaVuSans-69" transform="translate(3090.173828 0)"/>
    <use xlink:href="#DejaVuSans-6c" transform="translate(3117.957031 0)"/>
    <use xlink:href="#DejaVuSans-20" transform="translate(3145.740234 0)"/>
    <use xlink:href="#DejaVuSans-6e" transform="translate(3177.527344 0)"/>
    <use xlink:href="#DejaVuSans-75" transform="translate(3240.90625 0)"/>
    <use xlink:href="#DejaVuSans-6d" transform="translate(3304.285156 0)"/>
    <use xlink:href="#DejaVuSans-65" transform="translate(3401.697266 0)"/>
    <use xlink:href="#DejaVuSans-72" transform="translate(3463.220703 0)"/>
    <use xlink:href="#DejaVuSans-6f" transform="translate(3502.083984 0)"/>
    <use xlink:href="#DejaVuSans-20" transform="translate(3563.265625 0)"/>
    <use xlink:href="#DejaVuSans-74" transform="translate(3595.052734 0)"/>
    <use xlink:href="#DejaVuSans-6f" transform="translate(3634.261719 0)"/>
    <use xlink:href="#DejaVuSans-74" transform="translate(3695.443359 0)"/>
    <use xlink:href="#DejaVuSans-61" transform="translate(3734.652344 0)"/>
    <use xlink:href="#DejaVuSans-6c" transform="translate(3795.931641 0)"/>
    <use xlink:href="#DejaVuSans-65" transform="translate(3823.714844 0)"/>
    <use xlink:href="#DejaVuSans-20" transform="translate(3885.238281 0)"/>
    <use xlink:href="#DejaVuSans-64" transform="translate(3917.025391 0)"/>
    <use xlink:href="#DejaVuSans-65" transform="translate(3980.501953 0)"/>
    <use xlink:href="#DejaVuSans-69" transform="translate(4042.025391 0)"/>
    <use xlink:href="#DejaVuSans-20" transform="translate(4069.808594 0)"/>
    <use xlink:href="#DejaVuSans-6d" transform="translate(4101.595703 0)"/>
    <use xlink:href="#DejaVuSans-6f" transform="translate(4199.007812 0)"/>
    <use xlink:href="#DejaVuSans-64" transform="translate(4260.189453 0)"/>
    <use xlink:href="#DejaVuSans-69" transform="translate(4323.666016 0)"/>
    <use xlink:href="#DejaVuSans-20" transform="translate(4351.449219 0)"/>
    <use xlink:href="#DejaVuSans-76" transform="translate(4383.236328 0)"/>
    <use xlink:href="#DejaVuSans-69" transform="translate(4442.416016 0)"/>
    <use xlink:href="#DejaVuSans-62" transform="translate(4470.199219 0)"/>
    <use xlink:href="#DejaVuSans-72" transform="translate(4533.675781 0)"/>
    <use xlink:href="#DejaVuSans-61" transform="translate(4574.789062 0)"/>
    <use xlink:href="#DejaVuSans-7a" transform="translate(4636.068359 0)"/>
    <use xlink:href="#DejaVuSans-69" transform="translate(4688.558594 0)"/>
    <use xlink:href="#DejaVuSans-6f" transform="translate(4716.341797 0)"/>
    <use xlink:href="#DejaVuSans-6e" transform="translate(4777.523438 0)"/>
    <use xlink:href="#DejaVuSans-61" transform="translate(4840.902344 0)"/>
    <use xlink:href="#DejaVuSans-6c" transform="translate(4902.181641 0)"/>
    <use xlink:href="#DejaVuSans-69" transform="translate(4929.964844 0)"/>
    <use xlink:href="#DejaVuSans-2e" transform="translate(4957.748047 0)"/>
   </g>
  </g>
 </g>
 <defs>
  <clipPath id="p89cd0f686a">
   <rect x="20.9" y="30.597656" width="524.52" height="376.992"/>
  </clipPath>
 </defs>
</svg>
