<?xml version="1.0" encoding="utf-8" standalone="no"?>
<!DOCTYPE svg PUBLIC "-//W3C//DTD SVG 1.1//EN"
  "http://www.w3.org/Graphics/SVG/1.1/DTD/svg11.dtd">
<svg xmlns:xlink="http://www.w3.org/1999/xlink" width="805.43125pt" height="470.797344pt" viewBox="0 0 805.43125 470.797344" xmlns="http://www.w3.org/2000/svg" version="1.1">
 <metadata>
  <rdf:RDF xmlns:dc="http://purl.org/dc/elements/1.1/" xmlns:cc="http://creativecommons.org/ns#" xmlns:rdf="http://www.w3.org/1999/02/22-rdf-syntax-ns#">
   <cc:Work>
    <dc:type rdf:resource="http://purl.org/dc/dcmitype/StillImage"/>
    <dc:date>2026-06-16T11:04:09.646277</dc:date>
    <dc:format>image/svg+xml</dc:format>
    <dc:creator>
     <cc:Agent>
      <dc:title>Matplotlib v3.10.8, https://matplotlib.org/</dc:title>
     </cc:Agent>
    </dc:creator>
   </cc:Work>
  </rdf:RDF>
 </metadata>
 <defs>
  <style type="text/css">*{stroke-linejoin: round; stroke-linecap: butt}</style>
 </defs>
 <g id="figure_1">
  <g id="patch_1">
   <path d="M -0 470.797344 
L 805.43125 470.797344 
L 805.43125 0 
L -0 0 
z
" style="fill: #ffffff"/>
  </g>
  <g id="axes_1">
   <g id="patch_2">
    <path d="M 119.215625 418.677656 
L 705.115625 418.677656 
L 705.115625 30.597656 
L 119.215625 30.597656 
z
" style="fill: #ffffff"/>
   </g>
   <g id="matplotlib.axis_1">
    <g id="xtick_1">
     <g id="line2d_1">
      <path d="M 195.865419 418.677656 
L 195.865419 30.597656 
" clip-path="url(#pa762cfa4e8)" style="fill: none; stroke: #b0b0b0; stroke-opacity: 0.18; stroke-width: 0.8; stroke-linecap: square"/>
     </g>
     <g id="line2d_2">
      <defs>
       <path id="m7363e222cd" d="M 0 0 
L 0 3.5 
" style="stroke: #000000; stroke-width: 0.8"/>
      </defs>
      <g>
       <use xlink:href="#m7363e222cd" x="195.865419" y="418.677656" style="stroke: #000000; stroke-width: 0.8"/>
      </g>
     </g>
     <g id="text_1">
      <!-- $\mathdefault{10^{1}}$ -->
      <g transform="translate(187.065419 433.276094) scale(0.1 -0.1)">
       <defs>
        <path id="DejaVuSans-31" d="M 794 531 
L 1825 531 
L 1825 4091 
L 703 3866 
L 703 4441 
L 1819 4666 
L 2450 4666 
L 2450 531 
L 3481 531 
L 3481 0 
L 794 0 
L 794 531 
z
" transform="scale(0.015625)"/>
        <path id="DejaVuSans-30" d="M 2034 4250 
Q 1547 4250 1301 3770 
Q 1056 3291 1056 2328 
Q 1056 1369 1301 889 
Q 1547 409 2034 409 
Q 2525 409 2770 889 
Q 3016 1369 3016 2328 
Q 3016 3291 2770 3770 
Q 2525 4250 2034 4250 
z
M 2034 4750 
Q 2819 4750 3233 4129 
Q 3647 3509 3647 2328 
Q 3647 1150 3233 529 
Q 2819 -91 2034 -91 
Q 1250 -91 836 529 
Q 422 1150 422 2328 
Q 422 3509 836 4129 
Q 1250 4750 2034 4750 
z
" transform="scale(0.015625)"/>
       </defs>
       <use xlink:href="#DejaVuSans-31" transform="translate(0 0.684375)"/>
       <use xlink:href="#DejaVuSans-30" transform="translate(63.623047 0.684375)"/>
       <use xlink:href="#DejaVuSans-31" transform="translate(128.203125 38.965625) scale(0.7)"/>
      </g>
     </g>
    </g>
    <g id="xtick_2">
     <g id="line2d_3">
      <path d="M 450.490522 418.677656 
L 450.490522 30.597656 
" clip-path="url(#pa762cfa4e8)" style="fill: none; stroke: #b0b0b0; stroke-opacity: 0.18; stroke-width: 0.8; stroke-linecap: square"/>
     </g>
     <g id="line2d_4">
      <g>
       <use xlink:href="#m7363e222cd" x="450.490522" y="418.677656" style="stroke: #000000; stroke-width: 0.8"/>
      </g>
     </g>
     <g id="text_2">
      <!-- $\mathdefault{10^{2}}$ -->
      <g transform="translate(441.690522 433.276094) scale(0.1 -0.1)">
       <defs>
        <path id="DejaVuSans-32" d="M 1228 531 
L 3431 531 
L 3431 0 
L 469 0 
L 469 531 
Q 828 903 1448 1529 
Q 2069 2156 2228 2338 
Q 2531 2678 2651 2914 
Q 2772 3150 2772 3378 
Q 2772 3750 2511 3984 
Q 2250 4219 1831 4219 
Q 1534 4219 1204 4116 
Q 875 4013 500 3803 
L 500 4441 
Q 881 4594 1212 4672 
Q 1544 4750 1819 4750 
Q 2544 4750 2975 4387 
Q 3406 4025 3406 3419 
Q 3406 3131 3298 2873 
Q 3191 2616 2906 2266 
Q 2828 2175 2409 1742 
Q 1991 1309 1228 531 
z
" transform="scale(0.015625)"/>
       </defs>
       <use xlink:href="#DejaVuSans-31" transform="translate(0 0.765625)"/>
       <use xlink:href="#DejaVuSans-30" transform="translate(63.623047 0.765625)"/>
       <use xlink:href="#DejaVuSans-32" transform="translate(128.203125 39.046875) scale(0.7)"/>
      </g>
     </g>
    </g>
    <g id="xtick_3">
     <g id="line2d_5">
      <path d="M 705.115625 418.677656 
L 705.115625 30.597656 
" clip-path="url(#pa762cfa4e8)" style="fill: none; stroke: #b0b0b0; stroke-opacity: 0.18; stroke-width: 0.8; stroke-linecap: square"/>
     </g>
     <g id="line2d_6">
      <g>
       <use xlink:href="#m7363e222cd" x="705.115625" y="418.677656" style="stroke: #000000; stroke-width: 0.8"/>
      </g>
     </g>
     <g id="text_3">
      <!-- $\mathdefault{10^{3}}$ -->
      <g transform="translate(696.315625 433.276094) scale(0.1 -0.1)">
       <defs>
        <path id="DejaVuSans-33" d="M 2597 2516 
Q 3050 2419 3304 2112 
Q 3559 1806 3559 1356 
Q 3559 666 3084 287 
Q 2609 -91 1734 -91 
Q 1441 -91 1130 -33 
Q 819 25 488 141 
L 488 750 
Q 750 597 1062 519 
Q 1375 441 1716 441 
Q 2309 441 2620 675 
Q 2931 909 2931 1356 
Q 2931 1769 2642 2001 
Q 2353 2234 1838 2234 
L 1294 2234 
L 1294 2753 
L 1863 2753 
Q 2328 2753 2575 2939 
Q 2822 3125 2822 3475 
Q 2822 3834 2567 4026 
Q 2313 4219 1838 4219 
Q 1578 4219 1281 4162 
Q 984 4106 628 3988 
L 628 4550 
Q 988 4650 1302 4700 
Q 1616 4750 1894 4750 
Q 2613 4750 3031 4423 
Q 3450 4097 3450 3541 
Q 3450 3153 3228 2886 
Q 3006 2619 2597 2516 
z
" transform="scale(0.015625)"/>
       </defs>
       <use xlink:href="#DejaVuSans-31" transform="translate(0 0.765625)"/>
       <use xlink:href="#DejaVuSans-30" transform="translate(63.623047 0.765625)"/>
       <use xlink:href="#DejaVuSans-33" transform="translate(128.203125 39.046875) scale(0.7)"/>
      </g>
     </g>
    </g>
    <g id="xtick_4">
     <g id="line2d_7">
      <path d="M 119.215625 418.677656 
L 119.215625 30.597656 
" clip-path="url(#pa762cfa4e8)" style="fill: none; stroke: #b0b0b0; stroke-opacity: 0.18; stroke-width: 0.8; stroke-linecap: square"/>
     </g>
     <g id="line2d_8">
      <defs>
       <path id="m406567cc76" d="M 0 0 
L 0 2 
" style="stroke: #000000; stroke-width: 0.6"/>
      </defs>
      <g>
       <use xlink:href="#m406567cc76" x="119.215625" y="418.677656" style="stroke: #000000; stroke-width: 0.6"/>
      </g>
     </g>
    </g>
    <g id="xtick_5">
     <g id="line2d_9">
      <path d="M 139.377158 418.677656 
L 139.377158 30.597656 
" clip-path="url(#pa762cfa4e8)" style="fill: none; stroke: #b0b0b0; stroke-opacity: 0.18; stroke-width: 0.8; stroke-linecap: square"/>
     </g>
     <g id="line2d_10">
      <g>
       <use xlink:href="#m406567cc76" x="139.377158" y="418.677656" style="stroke: #000000; stroke-width: 0.6"/>
      </g>
     </g>
    </g>
    <g id="xtick_6">
     <g id="line2d_11">
      <path d="M 156.423491 418.677656 
L 156.423491 30.597656 
" clip-path="url(#pa762cfa4e8)" style="fill: none; stroke: #b0b0b0; stroke-opacity: 0.18; stroke-width: 0.8; stroke-linecap: square"/>
     </g>
     <g id="line2d_12">
      <g>
       <use xlink:href="#m406567cc76" x="156.423491" y="418.677656" style="stroke: #000000; stroke-width: 0.6"/>
      </g>
     </g>
    </g>
    <g id="xtick_7">
     <g id="line2d_13">
      <path d="M 171.189697 418.677656 
L 171.189697 30.597656 
" clip-path="url(#pa762cfa4e8)" style="fill: none; stroke: #b0b0b0; stroke-opacity: 0.18; stroke-width: 0.8; stroke-linecap: square"/>
     </g>
     <g id="line2d_14">
      <g>
       <use xlink:href="#m406567cc76" x="171.189697" y="418.677656" style="stroke: #000000; stroke-width: 0.6"/>
      </g>
     </g>
    </g>
    <g id="xtick_8">
     <g id="line2d_15">
      <path d="M 184.214413 418.677656 
L 184.214413 30.597656 
" clip-path="url(#pa762cfa4e8)" style="fill: none; stroke: #b0b0b0; stroke-opacity: 0.18; stroke-width: 0.8; stroke-linecap: square"/>
     </g>
     <g id="line2d_16">
      <g>
       <use xlink:href="#m406567cc76" x="184.214413" y="418.677656" style="stroke: #000000; stroke-width: 0.6"/>
      </g>
     </g>
    </g>
    <g id="xtick_9">
     <g id="line2d_17">
      <path d="M 272.515212 418.677656 
L 272.515212 30.597656 
" clip-path="url(#pa762cfa4e8)" style="fill: none; stroke: #b0b0b0; stroke-opacity: 0.18; stroke-width: 0.8; stroke-linecap: square"/>
     </g>
     <g id="line2d_18">
      <g>
       <use xlink:href="#m406567cc76" x="272.515212" y="418.677656" style="stroke: #000000; stroke-width: 0.6"/>
      </g>
     </g>
    </g>
    <g id="xtick_10">
     <g id="line2d_19">
      <path d="M 317.352467 418.677656 
L 317.352467 30.597656 
" clip-path="url(#pa762cfa4e8)" style="fill: none; stroke: #b0b0b0; stroke-opacity: 0.18; stroke-width: 0.8; stroke-linecap: square"/>
     </g>
     <g id="line2d_20">
      <g>
       <use xlink:href="#m406567cc76" x="317.352467" y="418.677656" style="stroke: #000000; stroke-width: 0.6"/>
      </g>
     </g>
    </g>
    <g id="xtick_11">
     <g id="line2d_21">
      <path d="M 349.165006 418.677656 
L 349.165006 30.597656 
" clip-path="url(#pa762cfa4e8)" style="fill: none; stroke: #b0b0b0; stroke-opacity: 0.18; stroke-width: 0.8; stroke-linecap: square"/>
     </g>
     <g id="line2d_22">
      <g>
       <use xlink:href="#m406567cc76" x="349.165006" y="418.677656" style="stroke: #000000; stroke-width: 0.6"/>
      </g>
     </g>
    </g>
    <g id="xtick_12">
     <g id="line2d_23">
      <path d="M 373.840728 418.677656 
L 373.840728 30.597656 
" clip-path="url(#pa762cfa4e8)" style="fill: none; stroke: #b0b0b0; stroke-opacity: 0.18; stroke-width: 0.8; stroke-linecap: square"/>
     </g>
     <g id="line2d_24">
      <g>
       <use xlink:href="#m406567cc76" x="373.840728" y="418.677656" style="stroke: #000000; stroke-width: 0.6"/>
      </g>
     </g>
    </g>
    <g id="xtick_13">
     <g id="line2d_25">
      <path d="M 394.002261 418.677656 
L 394.002261 30.597656 
" clip-path="url(#pa762cfa4e8)" style="fill: none; stroke: #b0b0b0; stroke-opacity: 0.18; stroke-width: 0.8; stroke-linecap: square"/>
     </g>
     <g id="line2d_26">
      <g>
       <use xlink:href="#m406567cc76" x="394.002261" y="418.677656" style="stroke: #000000; stroke-width: 0.6"/>
      </g>
     </g>
    </g>
    <g id="xtick_14">
     <g id="line2d_27">
      <path d="M 411.048594 418.677656 
L 411.048594 30.597656 
" clip-path="url(#pa762cfa4e8)" style="fill: none; stroke: #b0b0b0; stroke-opacity: 0.18; stroke-width: 0.8; stroke-linecap: square"/>
     </g>
     <g id="line2d_28">
      <g>
       <use xlink:href="#m406567cc76" x="411.048594" y="418.677656" style="stroke: #000000; stroke-width: 0.6"/>
      </g>
     </g>
    </g>
    <g id="xtick_15">
     <g id="line2d_29">
      <path d="M 425.8148 418.677656 
L 425.8148 30.597656 
" clip-path="url(#pa762cfa4e8)" style="fill: none; stroke: #b0b0b0; stroke-opacity: 0.18; stroke-width: 0.8; stroke-linecap: square"/>
     </g>
     <g id="line2d_30">
      <g>
       <use xlink:href="#m406567cc76" x="425.8148" y="418.677656" style="stroke: #000000; stroke-width: 0.6"/>
      </g>
     </g>
    </g>
    <g id="xtick_16">
     <g id="line2d_31">
      <path d="M 438.839516 418.677656 
L 438.839516 30.597656 
" clip-path="url(#pa762cfa4e8)" style="fill: none; stroke: #b0b0b0; stroke-opacity: 0.18; stroke-width: 0.8; stroke-linecap: square"/>
     </g>
     <g id="line2d_32">
      <g>
       <use xlink:href="#m406567cc76" x="438.839516" y="418.677656" style="stroke: #000000; stroke-width: 0.6"/>
      </g>
     </g>
    </g>
    <g id="xtick_17">
     <g id="line2d_33">
      <path d="M 527.140316 418.677656 
L 527.140316 30.597656 
" clip-path="url(#pa762cfa4e8)" style="fill: none; stroke: #b0b0b0; stroke-opacity: 0.18; stroke-width: 0.8; stroke-linecap: square"/>
     </g>
     <g id="line2d_34">
      <g>
       <use xlink:href="#m406567cc76" x="527.140316" y="418.677656" style="stroke: #000000; stroke-width: 0.6"/>
      </g>
     </g>
    </g>
    <g id="xtick_18">
     <g id="line2d_35">
      <path d="M 571.977571 418.677656 
L 571.977571 30.597656 
" clip-path="url(#pa762cfa4e8)" style="fill: none; stroke: #b0b0b0; stroke-opacity: 0.18; stroke-width: 0.8; stroke-linecap: square"/>
     </g>
     <g id="line2d_36">
      <g>
       <use xlink:href="#m406567cc76" x="571.977571" y="418.677656" style="stroke: #000000; stroke-width: 0.6"/>
      </g>
     </g>
    </g>
    <g id="xtick_19">
     <g id="line2d_37">
      <path d="M 603.790109 418.677656 
L 603.790109 30.597656 
" clip-path="url(#pa762cfa4e8)" style="fill: none; stroke: #b0b0b0; stroke-opacity: 0.18; stroke-width: 0.8; stroke-linecap: square"/>
     </g>
     <g id="line2d_38">
      <g>
       <use xlink:href="#m406567cc76" x="603.790109" y="418.677656" style="stroke: #000000; stroke-width: 0.6"/>
      </g>
     </g>
    </g>
    <g id="xtick_20">
     <g id="line2d_39">
      <path d="M 628.465831 418.677656 
L 628.465831 30.597656 
" clip-path="url(#pa762cfa4e8)" style="fill: none; stroke: #b0b0b0; stroke-opacity: 0.18; stroke-width: 0.8; stroke-linecap: square"/>
     </g>
     <g id="line2d_40">
      <g>
       <use xlink:href="#m406567cc76" x="628.465831" y="418.677656" style="stroke: #000000; stroke-width: 0.6"/>
      </g>
     </g>
    </g>
    <g id="xtick_21">
     <g id="line2d_41">
      <path d="M 648.627364 418.677656 
L 648.627364 30.597656 
" clip-path="url(#pa762cfa4e8)" style="fill: none; stroke: #b0b0b0; stroke-opacity: 0.18; stroke-width: 0.8; stroke-linecap: square"/>
     </g>
     <g id="line2d_42">
      <g>
       <use xlink:href="#m406567cc76" x="648.627364" y="418.677656" style="stroke: #000000; stroke-width: 0.6"/>
      </g>
     </g>
    </g>
    <g id="xtick_22">
     <g id="line2d_43">
      <path d="M 665.673697 418.677656 
L 665.673697 30.597656 
" clip-path="url(#pa762cfa4e8)" style="fill: none; stroke: #b0b0b0; stroke-opacity: 0.18; stroke-width: 0.8; stroke-linecap: square"/>
     </g>
     <g id="line2d_44">
      <g>
       <use xlink:href="#m406567cc76" x="665.673697" y="418.677656" style="stroke: #000000; stroke-width: 0.6"/>
      </g>
     </g>
    </g>
    <g id="xtick_23">
     <g id="line2d_45">
      <path d="M 680.439903 418.677656 
L 680.439903 30.597656 
" clip-path="url(#pa762cfa4e8)" style="fill: none; stroke: #b0b0b0; stroke-opacity: 0.18; stroke-width: 0.8; stroke-linecap: square"/>
     </g>
     <g id="line2d_46">
      <g>
       <use xlink:href="#m406567cc76" x="680.439903" y="418.677656" style="stroke: #000000; stroke-width: 0.6"/>
      </g>
     </g>
    </g>
    <g id="xtick_24">
     <g id="line2d_47">
      <path d="M 693.464619 418.677656 
L 693.464619 30.597656 
" clip-path="url(#pa762cfa4e8)" style="fill: none; stroke: #b0b0b0; stroke-opacity: 0.18; stroke-width: 0.8; stroke-linecap: square"/>
     </g>
     <g id="line2d_48">
      <g>
       <use xlink:href="#m406567cc76" x="693.464619" y="418.677656" style="stroke: #000000; stroke-width: 0.6"/>
      </g>
     </g>
    </g>
    <g id="text_4">
     <!-- temperatura (K) -->
     <g transform="translate(371.870313 446.954219) scale(0.1 -0.1)">
      <defs>
       <path id="DejaVuSans-74" d="M 1172 4494 
L 1172 3500 
L 2356 3500 
L 2356 3053 
L 1172 3053 
L 1172 1153 
Q 1172 725 1289 603 
Q 1406 481 1766 481 
L 2356 481 
L 2356 0 
L 1766 0 
Q 1100 0 847 248 
Q 594 497 594 1153 
L 594 3053 
L 172 3053 
L 172 3500 
L 594 3500 
L 594 4494 
L 1172 4494 
z
" transform="scale(0.015625)"/>
       <path id="DejaVuSans-65" d="M 3597 1894 
L 3597 1613 
L 953 1613 
Q 991 1019 1311 708 
Q 1631 397 2203 397 
Q 2534 397 2845 478 
Q 3156 559 3463 722 
L 3463 178 
Q 3153 47 2828 -22 
Q 2503 -91 2169 -91 
Q 1331 -91 842 396 
Q 353 884 353 1716 
Q 353 2575 817 3079 
Q 1281 3584 2069 3584 
Q 2775 3584 3186 3129 
Q 3597 2675 3597 1894 
z
M 3022 2063 
Q 3016 2534 2758 2815 
Q 2500 3097 2075 3097 
Q 1594 3097 1305 2825 
Q 1016 2553 972 2059 
L 3022 2063 
z
" transform="scale(0.015625)"/>
       <path id="DejaVuSans-6d" d="M 3328 2828 
Q 3544 3216 3844 3400 
Q 4144 3584 4550 3584 
Q 5097 3584 5394 3201 
Q 5691 2819 5691 2113 
L 5691 0 
L 5113 0 
L 5113 2094 
Q 5113 2597 4934 2840 
Q 4756 3084 4391 3084 
Q 3944 3084 3684 2787 
Q 3425 2491 3425 1978 
L 3425 0 
L 2847 0 
L 2847 2094 
Q 2847 2600 2669 2842 
Q 2491 3084 2119 3084 
Q 1678 3084 1418 2786 
Q 1159 2488 1159 1978 
L 1159 0 
L 581 0 
L 581 3500 
L 1159 3500 
L 1159 2956 
Q 1356 3278 1631 3431 
Q 1906 3584 2284 3584 
Q 2666 3584 2933 3390 
Q 3200 3197 3328 2828 
z
" transform="scale(0.015625)"/>
       <path id="DejaVuSans-70" d="M 1159 525 
L 1159 -1331 
L 581 -1331 
L 581 3500 
L 1159 3500 
L 1159 2969 
Q 1341 3281 1617 3432 
Q 1894 3584 2278 3584 
Q 2916 3584 3314 3078 
Q 3713 2572 3713 1747 
Q 3713 922 3314 415 
Q 2916 -91 2278 -91 
Q 1894 -91 1617 61 
Q 1341 213 1159 525 
z
M 3116 1747 
Q 3116 2381 2855 2742 
Q 2594 3103 2138 3103 
Q 1681 3103 1420 2742 
Q 1159 2381 1159 1747 
Q 1159 1113 1420 752 
Q 1681 391 2138 391 
Q 2594 391 2855 752 
Q 3116 1113 3116 1747 
z
" transform="scale(0.015625)"/>
       <path id="DejaVuSans-72" d="M 2631 2963 
Q 2534 3019 2420 3045 
Q 2306 3072 2169 3072 
Q 1681 3072 1420 2755 
Q 1159 2438 1159 1844 
L 1159 0 
L 581 0 
L 581 3500 
L 1159 3500 
L 1159 2956 
Q 1341 3275 1631 3429 
Q 1922 3584 2338 3584 
Q 2397 3584 2469 3576 
Q 2541 3569 2628 3553 
L 2631 2963 
z
" transform="scale(0.015625)"/>
       <path id="DejaVuSans-61" d="M 2194 1759 
Q 1497 1759 1228 1600 
Q 959 1441 959 1056 
Q 959 750 1161 570 
Q 1363 391 1709 391 
Q 2188 391 2477 730 
Q 2766 1069 2766 1631 
L 2766 1759 
L 2194 1759 
z
M 3341 1997 
L 3341 0 
L 2766 0 
L 2766 531 
Q 2569 213 2275 61 
Q 1981 -91 1556 -91 
Q 1019 -91 701 211 
Q 384 513 384 1019 
Q 384 1609 779 1909 
Q 1175 2209 1959 2209 
L 2766 2209 
L 2766 2266 
Q 2766 2663 2505 2880 
Q 2244 3097 1772 3097 
Q 1472 3097 1187 3025 
Q 903 2953 641 2809 
L 641 3341 
Q 956 3463 1253 3523 
Q 1550 3584 1831 3584 
Q 2591 3584 2966 3190 
Q 3341 2797 3341 1997 
z
" transform="scale(0.015625)"/>
       <path id="DejaVuSans-75" d="M 544 1381 
L 544 3500 
L 1119 3500 
L 1119 1403 
Q 1119 906 1312 657 
Q 1506 409 1894 409 
Q 2359 409 2629 706 
Q 2900 1003 2900 1516 
L 2900 3500 
L 3475 3500 
L 3475 0 
L 2900 0 
L 2900 538 
Q 2691 219 2414 64 
Q 2138 -91 1772 -91 
Q 1169 -91 856 284 
Q 544 659 544 1381 
z
M 1991 3584 
L 1991 3584 
z
" transform="scale(0.015625)"/>
       <path id="DejaVuSans-20" transform="scale(0.015625)"/>
       <path id="DejaVuSans-28" d="M 1984 4856 
Q 1566 4138 1362 3434 
Q 1159 2731 1159 2009 
Q 1159 1288 1364 580 
Q 1569 -128 1984 -844 
L 1484 -844 
Q 1016 -109 783 600 
Q 550 1309 550 2009 
Q 550 2706 781 3412 
Q 1013 4119 1484 4856 
L 1984 4856 
z
" transform="scale(0.015625)"/>
       <path id="DejaVuSans-4b" d="M 628 4666 
L 1259 4666 
L 1259 2694 
L 3353 4666 
L 4166 4666 
L 1850 2491 
L 4331 0 
L 3500 0 
L 1259 2247 
L 1259 0 
L 628 0 
L 628 4666 
z
" transform="scale(0.015625)"/>
       <path id="DejaVuSans-29" d="M 513 4856 
L 1013 4856 
Q 1481 4119 1714 3412 
Q 1947 2706 1947 2009 
Q 1947 1309 1714 600 
Q 1481 -109 1013 -844 
L 513 -844 
Q 928 -128 1133 580 
Q 1338 1288 1338 2009 
Q 1338 2731 1133 3434 
Q 928 4138 513 4856 
z
" transform="scale(0.015625)"/>
      </defs>
      <use xlink:href="#DejaVuSans-74"/>
      <use xlink:href="#DejaVuSans-65" transform="translate(39.208984 0)"/>
      <use xlink:href="#DejaVuSans-6d" transform="translate(100.732422 0)"/>
      <use xlink:href="#DejaVuSans-70" transform="translate(198.144531 0)"/>
      <use xlink:href="#DejaVuSans-65" transform="translate(261.621094 0)"/>
      <use xlink:href="#DejaVuSans-72" transform="translate(323.144531 0)"/>
      <use xlink:href="#DejaVuSans-61" transform="translate(364.257812 0)"/>
      <use xlink:href="#DejaVuSans-74" transform="translate(425.537109 0)"/>
      <use xlink:href="#DejaVuSans-75" transform="translate(464.746094 0)"/>
      <use xlink:href="#DejaVuSans-72" transform="translate(528.125 0)"/>
      <use xlink:href="#DejaVuSans-61" transform="translate(569.238281 0)"/>
      <use xlink:href="#DejaVuSans-20" transform="translate(630.517578 0)"/>
      <use xlink:href="#DejaVuSans-28" transform="translate(662.304688 0)"/>
      <use xlink:href="#DejaVuSans-4b" transform="translate(701.318359 0)"/>
      <use xlink:href="#DejaVuSans-29" transform="translate(766.894531 0)"/>
     </g>
    </g>
   </g>
   <g id="matplotlib.axis_2">
    <g id="ytick_1">
     <g id="line2d_49">
      <path d="M 119.215625 347.897493 
L 705.115625 347.897493 
" clip-path="url(#pa762cfa4e8)" style="fill: none; stroke: #b0b0b0; stroke-opacity: 0.18; stroke-width: 0.8; stroke-linecap: square"/>
     </g>
     <g id="line2d_50">
      <defs>
       <path id="maccfc462ea" d="M 0 0 
L -3.5 0 
" style="stroke: #000000; stroke-width: 0.8"/>
      </defs>
      <g>
       <use xlink:href="#maccfc462ea" x="119.215625" y="347.897493" style="stroke: #000000; stroke-width: 0.8"/>
      </g>
     </g>
     <g id="text_5">
      <!-- $\mathdefault{10^{2}}$ -->
      <g transform="translate(94.615625 351.696712) scale(0.1 -0.1)">
       <use xlink:href="#DejaVuSans-31" transform="translate(0 0.765625)"/>
       <use xlink:href="#DejaVuSans-30" transform="translate(63.623047 0.765625)"/>
       <use xlink:href="#DejaVuSans-32" transform="translate(128.203125 39.046875) scale(0.7)"/>
      </g>
     </g>
    </g>
    <g id="ytick_2">
     <g id="line2d_51">
      <path d="M 119.215625 230.334187 
L 705.115625 230.334187 
" clip-path="url(#pa762cfa4e8)" style="fill: none; stroke: #b0b0b0; stroke-opacity: 0.18; stroke-width: 0.8; stroke-linecap: square"/>
     </g>
     <g id="line2d_52">
      <g>
       <use xlink:href="#maccfc462ea" x="119.215625" y="230.334187" style="stroke: #000000; stroke-width: 0.8"/>
      </g>
     </g>
     <g id="text_6">
      <!-- $\mathdefault{10^{3}}$ -->
      <g transform="translate(94.615625 234.133406) scale(0.1 -0.1)">
       <use xlink:href="#DejaVuSans-31" transform="translate(0 0.765625)"/>
       <use xlink:href="#DejaVuSans-30" transform="translate(63.623047 0.765625)"/>
       <use xlink:href="#DejaVuSans-33" transform="translate(128.203125 39.046875) scale(0.7)"/>
      </g>
     </g>
    </g>
    <g id="ytick_3">
     <g id="line2d_53">
      <path d="M 119.215625 112.770881 
L 705.115625 112.770881 
" clip-path="url(#pa762cfa4e8)" style="fill: none; stroke: #b0b0b0; stroke-opacity: 0.18; stroke-width: 0.8; stroke-linecap: square"/>
     </g>
     <g id="line2d_54">
      <g>
       <use xlink:href="#maccfc462ea" x="119.215625" y="112.770881" style="stroke: #000000; stroke-width: 0.8"/>
      </g>
     </g>
     <g id="text_7">
      <!-- $\mathdefault{10^{4}}$ -->
      <g transform="translate(94.615625 116.5701) scale(0.1 -0.1)">
       <defs>
        <path id="DejaVuSans-34" d="M 2419 4116 
L 825 1625 
L 2419 1625 
L 2419 4116 
z
M 2253 4666 
L 3047 4666 
L 3047 1625 
L 3713 1625 
L 3713 1100 
L 3047 1100 
L 3047 0 
L 2419 0 
L 2419 1100 
L 313 1100 
L 313 1709 
L 2253 4666 
z
" transform="scale(0.015625)"/>
       </defs>
       <use xlink:href="#DejaVuSans-31" transform="translate(0 0.684375)"/>
       <use xlink:href="#DejaVuSans-30" transform="translate(63.623047 0.684375)"/>
       <use xlink:href="#DejaVuSans-34" transform="translate(128.203125 38.965625) scale(0.7)"/>
      </g>
     </g>
    </g>
    <g id="ytick_4">
     <g id="line2d_55">
      <path d="M 119.215625 409.368847 
L 705.115625 409.368847 
" clip-path="url(#pa762cfa4e8)" style="fill: none; stroke: #b0b0b0; stroke-opacity: 0.18; stroke-width: 0.8; stroke-linecap: square"/>
     </g>
     <g id="line2d_56">
      <defs>
       <path id="mdefae4ee17" d="M 0 0 
L -2 0 
" style="stroke: #000000; stroke-width: 0.6"/>
      </defs>
      <g>
       <use xlink:href="#mdefae4ee17" x="119.215625" y="409.368847" style="stroke: #000000; stroke-width: 0.6"/>
      </g>
     </g>
    </g>
    <g id="ytick_5">
     <g id="line2d_57">
      <path d="M 119.215625 394.680636 
L 705.115625 394.680636 
" clip-path="url(#pa762cfa4e8)" style="fill: none; stroke: #b0b0b0; stroke-opacity: 0.18; stroke-width: 0.8; stroke-linecap: square"/>
     </g>
     <g id="line2d_58">
      <g>
       <use xlink:href="#mdefae4ee17" x="119.215625" y="394.680636" style="stroke: #000000; stroke-width: 0.6"/>
      </g>
     </g>
    </g>
    <g id="ytick_6">
     <g id="line2d_59">
      <path d="M 119.215625 383.287575 
L 705.115625 383.287575 
" clip-path="url(#pa762cfa4e8)" style="fill: none; stroke: #b0b0b0; stroke-opacity: 0.18; stroke-width: 0.8; stroke-linecap: square"/>
     </g>
     <g id="line2d_60">
      <g>
       <use xlink:href="#mdefae4ee17" x="119.215625" y="383.287575" style="stroke: #000000; stroke-width: 0.6"/>
      </g>
     </g>
    </g>
    <g id="ytick_7">
     <g id="line2d_61">
      <path d="M 119.215625 373.978766 
L 705.115625 373.978766 
" clip-path="url(#pa762cfa4e8)" style="fill: none; stroke: #b0b0b0; stroke-opacity: 0.18; stroke-width: 0.8; stroke-linecap: square"/>
     </g>
     <g id="line2d_62">
      <g>
       <use xlink:href="#mdefae4ee17" x="119.215625" y="373.978766" style="stroke: #000000; stroke-width: 0.6"/>
      </g>
     </g>
    </g>
    <g id="ytick_8">
     <g id="line2d_63">
      <path d="M 119.215625 366.10828 
L 705.115625 366.10828 
" clip-path="url(#pa762cfa4e8)" style="fill: none; stroke: #b0b0b0; stroke-opacity: 0.18; stroke-width: 0.8; stroke-linecap: square"/>
     </g>
     <g id="line2d_64">
      <g>
       <use xlink:href="#mdefae4ee17" x="119.215625" y="366.10828" style="stroke: #000000; stroke-width: 0.6"/>
      </g>
     </g>
    </g>
    <g id="ytick_9">
     <g id="line2d_65">
      <path d="M 119.215625 359.290555 
L 705.115625 359.290555 
" clip-path="url(#pa762cfa4e8)" style="fill: none; stroke: #b0b0b0; stroke-opacity: 0.18; stroke-width: 0.8; stroke-linecap: square"/>
     </g>
     <g id="line2d_66">
      <g>
       <use xlink:href="#mdefae4ee17" x="119.215625" y="359.290555" style="stroke: #000000; stroke-width: 0.6"/>
      </g>
     </g>
    </g>
    <g id="ytick_10">
     <g id="line2d_67">
      <path d="M 119.215625 353.276895 
L 705.115625 353.276895 
" clip-path="url(#pa762cfa4e8)" style="fill: none; stroke: #b0b0b0; stroke-opacity: 0.18; stroke-width: 0.8; stroke-linecap: square"/>
     </g>
     <g id="line2d_68">
      <g>
       <use xlink:href="#mdefae4ee17" x="119.215625" y="353.276895" style="stroke: #000000; stroke-width: 0.6"/>
      </g>
     </g>
    </g>
    <g id="ytick_11">
     <g id="line2d_69">
      <path d="M 119.215625 312.507412 
L 705.115625 312.507412 
" clip-path="url(#pa762cfa4e8)" style="fill: none; stroke: #b0b0b0; stroke-opacity: 0.18; stroke-width: 0.8; stroke-linecap: square"/>
     </g>
     <g id="line2d_70">
      <g>
       <use xlink:href="#mdefae4ee17" x="119.215625" y="312.507412" style="stroke: #000000; stroke-width: 0.6"/>
      </g>
     </g>
    </g>
    <g id="ytick_12">
     <g id="line2d_71">
      <path d="M 119.215625 291.805541 
L 705.115625 291.805541 
" clip-path="url(#pa762cfa4e8)" style="fill: none; stroke: #b0b0b0; stroke-opacity: 0.18; stroke-width: 0.8; stroke-linecap: square"/>
     </g>
     <g id="line2d_72">
      <g>
       <use xlink:href="#mdefae4ee17" x="119.215625" y="291.805541" style="stroke: #000000; stroke-width: 0.6"/>
      </g>
     </g>
    </g>
    <g id="ytick_13">
     <g id="line2d_73">
      <path d="M 119.215625 277.11733 
L 705.115625 277.11733 
" clip-path="url(#pa762cfa4e8)" style="fill: none; stroke: #b0b0b0; stroke-opacity: 0.18; stroke-width: 0.8; stroke-linecap: square"/>
     </g>
     <g id="line2d_74">
      <g>
       <use xlink:href="#mdefae4ee17" x="119.215625" y="277.11733" style="stroke: #000000; stroke-width: 0.6"/>
      </g>
     </g>
    </g>
    <g id="ytick_14">
     <g id="line2d_75">
      <path d="M 119.215625 265.724269 
L 705.115625 265.724269 
" clip-path="url(#pa762cfa4e8)" style="fill: none; stroke: #b0b0b0; stroke-opacity: 0.18; stroke-width: 0.8; stroke-linecap: square"/>
     </g>
     <g id="line2d_76">
      <g>
       <use xlink:href="#mdefae4ee17" x="119.215625" y="265.724269" style="stroke: #000000; stroke-width: 0.6"/>
      </g>
     </g>
    </g>
    <g id="ytick_15">
     <g id="line2d_77">
      <path d="M 119.215625 256.415459 
L 705.115625 256.415459 
" clip-path="url(#pa762cfa4e8)" style="fill: none; stroke: #b0b0b0; stroke-opacity: 0.18; stroke-width: 0.8; stroke-linecap: square"/>
     </g>
     <g id="line2d_78">
      <g>
       <use xlink:href="#mdefae4ee17" x="119.215625" y="256.415459" style="stroke: #000000; stroke-width: 0.6"/>
      </g>
     </g>
    </g>
    <g id="ytick_16">
     <g id="line2d_79">
      <path d="M 119.215625 248.544974 
L 705.115625 248.544974 
" clip-path="url(#pa762cfa4e8)" style="fill: none; stroke: #b0b0b0; stroke-opacity: 0.18; stroke-width: 0.8; stroke-linecap: square"/>
     </g>
     <g id="line2d_80">
      <g>
       <use xlink:href="#mdefae4ee17" x="119.215625" y="248.544974" style="stroke: #000000; stroke-width: 0.6"/>
      </g>
     </g>
    </g>
    <g id="ytick_17">
     <g id="line2d_81">
      <path d="M 119.215625 241.727249 
L 705.115625 241.727249 
" clip-path="url(#pa762cfa4e8)" style="fill: none; stroke: #b0b0b0; stroke-opacity: 0.18; stroke-width: 0.8; stroke-linecap: square"/>
     </g>
     <g id="line2d_82">
      <g>
       <use xlink:href="#mdefae4ee17" x="119.215625" y="241.727249" style="stroke: #000000; stroke-width: 0.6"/>
      </g>
     </g>
    </g>
    <g id="ytick_18">
     <g id="line2d_83">
      <path d="M 119.215625 235.713589 
L 705.115625 235.713589 
" clip-path="url(#pa762cfa4e8)" style="fill: none; stroke: #b0b0b0; stroke-opacity: 0.18; stroke-width: 0.8; stroke-linecap: square"/>
     </g>
     <g id="line2d_84">
      <g>
       <use xlink:href="#mdefae4ee17" x="119.215625" y="235.713589" style="stroke: #000000; stroke-width: 0.6"/>
      </g>
     </g>
    </g>
    <g id="ytick_19">
     <g id="line2d_85">
      <path d="M 119.215625 194.944105 
L 705.115625 194.944105 
" clip-path="url(#pa762cfa4e8)" style="fill: none; stroke: #b0b0b0; stroke-opacity: 0.18; stroke-width: 0.8; stroke-linecap: square"/>
     </g>
     <g id="line2d_86">
      <g>
       <use xlink:href="#mdefae4ee17" x="119.215625" y="194.944105" style="stroke: #000000; stroke-width: 0.6"/>
      </g>
     </g>
    </g>
    <g id="ytick_20">
     <g id="line2d_87">
      <path d="M 119.215625 174.242235 
L 705.115625 174.242235 
" clip-path="url(#pa762cfa4e8)" style="fill: none; stroke: #b0b0b0; stroke-opacity: 0.18; stroke-width: 0.8; stroke-linecap: square"/>
     </g>
     <g id="line2d_88">
      <g>
       <use xlink:href="#mdefae4ee17" x="119.215625" y="174.242235" style="stroke: #000000; stroke-width: 0.6"/>
      </g>
     </g>
    </g>
    <g id="ytick_21">
     <g id="line2d_89">
      <path d="M 119.215625 159.554024 
L 705.115625 159.554024 
" clip-path="url(#pa762cfa4e8)" style="fill: none; stroke: #b0b0b0; stroke-opacity: 0.18; stroke-width: 0.8; stroke-linecap: square"/>
     </g>
     <g id="line2d_90">
      <g>
       <use xlink:href="#mdefae4ee17" x="119.215625" y="159.554024" style="stroke: #000000; stroke-width: 0.6"/>
      </g>
     </g>
    </g>
    <g id="ytick_22">
     <g id="line2d_91">
      <path d="M 119.215625 148.160962 
L 705.115625 148.160962 
" clip-path="url(#pa762cfa4e8)" style="fill: none; stroke: #b0b0b0; stroke-opacity: 0.18; stroke-width: 0.8; stroke-linecap: square"/>
     </g>
     <g id="line2d_92">
      <g>
       <use xlink:href="#mdefae4ee17" x="119.215625" y="148.160962" style="stroke: #000000; stroke-width: 0.6"/>
      </g>
     </g>
    </g>
    <g id="ytick_23">
     <g id="line2d_93">
      <path d="M 119.215625 138.852153 
L 705.115625 138.852153 
" clip-path="url(#pa762cfa4e8)" style="fill: none; stroke: #b0b0b0; stroke-opacity: 0.18; stroke-width: 0.8; stroke-linecap: square"/>
     </g>
     <g id="line2d_94">
      <g>
       <use xlink:href="#mdefae4ee17" x="119.215625" y="138.852153" style="stroke: #000000; stroke-width: 0.6"/>
      </g>
     </g>
    </g>
    <g id="ytick_24">
     <g id="line2d_95">
      <path d="M 119.215625 130.981667 
L 705.115625 130.981667 
" clip-path="url(#pa762cfa4e8)" style="fill: none; stroke: #b0b0b0; stroke-opacity: 0.18; stroke-width: 0.8; stroke-linecap: square"/>
     </g>
     <g id="line2d_96">
      <g>
       <use xlink:href="#mdefae4ee17" x="119.215625" y="130.981667" style="stroke: #000000; stroke-width: 0.6"/>
      </g>
     </g>
    </g>
    <g id="ytick_25">
     <g id="line2d_97">
      <path d="M 119.215625 124.163942 
L 705.115625 124.163942 
" clip-path="url(#pa762cfa4e8)" style="fill: none; stroke: #b0b0b0; stroke-opacity: 0.18; stroke-width: 0.8; stroke-linecap: square"/>
     </g>
     <g id="line2d_98">
      <g>
       <use xlink:href="#mdefae4ee17" x="119.215625" y="124.163942" style="stroke: #000000; stroke-width: 0.6"/>
      </g>
     </g>
    </g>
    <g id="ytick_26">
     <g id="line2d_99">
      <path d="M 119.215625 118.150283 
L 705.115625 118.150283 
" clip-path="url(#pa762cfa4e8)" style="fill: none; stroke: #b0b0b0; stroke-opacity: 0.18; stroke-width: 0.8; stroke-linecap: square"/>
     </g>
     <g id="line2d_100">
      <g>
       <use xlink:href="#mdefae4ee17" x="119.215625" y="118.150283" style="stroke: #000000; stroke-width: 0.6"/>
      </g>
     </g>
    </g>
    <g id="ytick_27">
     <g id="line2d_101">
      <path d="M 119.215625 77.380799 
L 705.115625 77.380799 
" clip-path="url(#pa762cfa4e8)" style="fill: none; stroke: #b0b0b0; stroke-opacity: 0.18; stroke-width: 0.8; stroke-linecap: square"/>
     </g>
     <g id="line2d_102">
      <g>
       <use xlink:href="#mdefae4ee17" x="119.215625" y="77.380799" style="stroke: #000000; stroke-width: 0.6"/>
      </g>
     </g>
    </g>
    <g id="ytick_28">
     <g id="line2d_103">
      <path d="M 119.215625 56.678929 
L 705.115625 56.678929 
" clip-path="url(#pa762cfa4e8)" style="fill: none; stroke: #b0b0b0; stroke-opacity: 0.18; stroke-width: 0.8; stroke-linecap: square"/>
     </g>
     <g id="line2d_104">
      <g>
       <use xlink:href="#mdefae4ee17" x="119.215625" y="56.678929" style="stroke: #000000; stroke-width: 0.6"/>
      </g>
     </g>
    </g>
    <g id="ytick_29">
     <g id="line2d_105">
      <path d="M 119.215625 41.990718 
L 705.115625 41.990718 
" clip-path="url(#pa762cfa4e8)" style="fill: none; stroke: #b0b0b0; stroke-opacity: 0.18; stroke-width: 0.8; stroke-linecap: square"/>
     </g>
     <g id="line2d_106">
      <g>
       <use xlink:href="#mdefae4ee17" x="119.215625" y="41.990718" style="stroke: #000000; stroke-width: 0.6"/>
      </g>
     </g>
    </g>
    <g id="ytick_30">
     <g id="line2d_107">
      <path d="M 119.215625 30.597656 
L 705.115625 30.597656 
" clip-path="url(#pa762cfa4e8)" style="fill: none; stroke: #b0b0b0; stroke-opacity: 0.18; stroke-width: 0.8; stroke-linecap: square"/>
     </g>
     <g id="line2d_108">
      <g>
       <use xlink:href="#mdefae4ee17" x="119.215625" y="30.597656" style="stroke: #000000; stroke-width: 0.6"/>
      </g>
     </g>
    </g>
    <g id="text_8">
     <!-- conducibilità termica reticolare $\kappa$ (W m$^{-1}$ K$^{-1}$) -->
     <g transform="translate(88.535937 339.687656) rotate(-90) scale(0.1 -0.1)">
      <defs>
       <path id="DejaVuSans-63" d="M 3122 3366 
L 3122 2828 
Q 2878 2963 2633 3030 
Q 2388 3097 2138 3097 
Q 1578 3097 1268 2742 
Q 959 2388 959 1747 
Q 959 1106 1268 751 
Q 1578 397 2138 397 
Q 2388 397 2633 464 
Q 2878 531 3122 666 
L 3122 134 
Q 2881 22 2623 -34 
Q 2366 -91 2075 -91 
Q 1284 -91 818 406 
Q 353 903 353 1747 
Q 353 2603 823 3093 
Q 1294 3584 2113 3584 
Q 2378 3584 2631 3529 
Q 2884 3475 3122 3366 
z
" transform="scale(0.015625)"/>
       <path id="DejaVuSans-6f" d="M 1959 3097 
Q 1497 3097 1228 2736 
Q 959 2375 959 1747 
Q 959 1119 1226 758 
Q 1494 397 1959 397 
Q 2419 397 2687 759 
Q 2956 1122 2956 1747 
Q 2956 2369 2687 2733 
Q 2419 3097 1959 3097 
z
M 1959 3584 
Q 2709 3584 3137 3096 
Q 3566 2609 3566 1747 
Q 3566 888 3137 398 
Q 2709 -91 1959 -91 
Q 1206 -91 779 398 
Q 353 888 353 1747 
Q 353 2609 779 3096 
Q 1206 3584 1959 3584 
z
" transform="scale(0.015625)"/>
       <path id="DejaVuSans-6e" d="M 3513 2113 
L 3513 0 
L 2938 0 
L 2938 2094 
Q 2938 2591 2744 2837 
Q 2550 3084 2163 3084 
Q 1697 3084 1428 2787 
Q 1159 2491 1159 1978 
L 1159 0 
L 581 0 
L 581 3500 
L 1159 3500 
L 1159 2956 
Q 1366 3272 1645 3428 
Q 1925 3584 2291 3584 
Q 2894 3584 3203 3211 
Q 3513 2838 3513 2113 
z
" transform="scale(0.015625)"/>
       <path id="DejaVuSans-64" d="M 2906 2969 
L 2906 4863 
L 3481 4863 
L 3481 0 
L 2906 0 
L 2906 525 
Q 2725 213 2448 61 
Q 2172 -91 1784 -91 
Q 1150 -91 751 415 
Q 353 922 353 1747 
Q 353 2572 751 3078 
Q 1150 3584 1784 3584 
Q 2172 3584 2448 3432 
Q 2725 3281 2906 2969 
z
M 947 1747 
Q 947 1113 1208 752 
Q 1469 391 1925 391 
Q 2381 391 2643 752 
Q 2906 1113 2906 1747 
Q 2906 2381 2643 2742 
Q 2381 3103 1925 3103 
Q 1469 3103 1208 2742 
Q 947 2381 947 1747 
z
" transform="scale(0.015625)"/>
       <path id="DejaVuSans-69" d="M 603 3500 
L 1178 3500 
L 1178 0 
L 603 0 
L 603 3500 
z
M 603 4863 
L 1178 4863 
L 1178 4134 
L 603 4134 
L 603 4863 
z
" transform="scale(0.015625)"/>
       <path id="DejaVuSans-62" d="M 3116 1747 
Q 3116 2381 2855 2742 
Q 2594 3103 2138 3103 
Q 1681 3103 1420 2742 
Q 1159 2381 1159 1747 
Q 1159 1113 1420 752 
Q 1681 391 2138 391 
Q 2594 391 2855 752 
Q 3116 1113 3116 1747 
z
M 1159 2969 
Q 1341 3281 1617 3432 
Q 1894 3584 2278 3584 
Q 2916 3584 3314 3078 
Q 3713 2572 3713 1747 
Q 3713 922 3314 415 
Q 2916 -91 2278 -91 
Q 1894 -91 1617 61 
Q 1341 213 1159 525 
L 1159 0 
L 581 0 
L 581 4863 
L 1159 4863 
L 1159 2969 
z
" transform="scale(0.015625)"/>
       <path id="DejaVuSans-6c" d="M 603 4863 
L 1178 4863 
L 1178 0 
L 603 0 
L 603 4863 
z
" transform="scale(0.015625)"/>
       <path id="DejaVuSans-e0" d="M 2194 1759 
Q 1497 1759 1228 1600 
Q 959 1441 959 1056 
Q 959 750 1161 570 
Q 1363 391 1709 391 
Q 2188 391 2477 730 
Q 2766 1069 2766 1631 
L 2766 1759 
L 2194 1759 
z
M 3341 1997 
L 3341 0 
L 2766 0 
L 2766 531 
Q 2569 213 2275 61 
Q 1981 -91 1556 -91 
Q 1019 -91 701 211 
Q 384 513 384 1019 
Q 384 1609 779 1909 
Q 1175 2209 1959 2209 
L 2766 2209 
L 2766 2266 
Q 2766 2663 2505 2880 
Q 2244 3097 1772 3097 
Q 1472 3097 1187 3025 
Q 903 2953 641 2809 
L 641 3341 
Q 956 3463 1253 3523 
Q 1550 3584 1831 3584 
Q 2591 3584 2966 3190 
Q 3341 2797 3341 1997 
z
M 1403 5119 
L 2284 3950 
L 1806 3950 
L 787 5119 
L 1403 5119 
z
" transform="scale(0.015625)"/>
       <path id="DejaVuSans-Oblique-3ba" d="M 938 3500 
L 1531 3500 
L 1247 2047 
L 3041 3500 
L 3741 3500 
L 2106 2181 
L 3275 0 
L 2572 0 
L 1628 1806 
L 1122 1403 
L 850 0 
L 256 0 
L 938 3500 
z
" transform="scale(0.015625)"/>
       <path id="DejaVuSans-57" d="M 213 4666 
L 850 4666 
L 1831 722 
L 2809 4666 
L 3519 4666 
L 4500 722 
L 5478 4666 
L 6119 4666 
L 4947 0 
L 4153 0 
L 3169 4050 
L 2175 0 
L 1381 0 
L 213 4666 
z
" transform="scale(0.015625)"/>
       <path id="DejaVuSans-2212" d="M 678 2272 
L 4684 2272 
L 4684 1741 
L 678 1741 
L 678 2272 
z
" transform="scale(0.015625)"/>
      </defs>
      <use xlink:href="#DejaVuSans-63" transform="translate(0 0.684375)"/>
      <use xlink:href="#DejaVuSans-6f" transform="translate(54.980469 0.684375)"/>
      <use xlink:href="#DejaVuSans-6e" transform="translate(116.162109 0.684375)"/>
      <use xlink:href="#DejaVuSans-64" transform="translate(179.541016 0.684375)"/>
      <use xlink:href="#DejaVuSans-75" transform="translate(243.017578 0.684375)"/>
      <use xlink:href="#DejaVuSans-63" transform="translate(306.396484 0.684375)"/>
      <use xlink:href="#DejaVuSans-69" transform="translate(361.376953 0.684375)"/>
      <use xlink:href="#DejaVuSans-62" transform="translate(389.160156 0.684375)"/>
      <use xlink:href="#DejaVuSans-69" transform="translate(452.636719 0.684375)"/>
      <use xlink:href="#DejaVuSans-6c" transform="translate(480.419922 0.684375)"/>
      <use xlink:href="#DejaVuSans-69" transform="translate(508.203125 0.684375)"/>
      <use xlink:href="#DejaVuSans-74" transform="translate(535.986328 0.684375)"/>
      <use xlink:href="#DejaVuSans-e0" transform="translate(575.195312 0.684375)"/>
      <use xlink:href="#DejaVuSans-20" transform="translate(636.474609 0.684375)"/>
      <use xlink:href="#DejaVuSans-74" transform="translate(668.261719 0.684375)"/>
      <use xlink:href="#DejaVuSans-65" transform="translate(707.470703 0.684375)"/>
      <use xlink:href="#DejaVuSans-72" transform="translate(768.994141 0.684375)"/>
      <use xlink:href="#DejaVuSans-6d" transform="translate(810.107422 0.684375)"/>
      <use xlink:href="#DejaVuSans-69" transform="translate(907.519531 0.684375)"/>
      <use xlink:href="#DejaVuSans-63" transform="translate(935.302734 0.684375)"/>
      <use xlink:href="#DejaVuSans-61" transform="translate(990.283203 0.684375)"/>
      <use xlink:href="#DejaVuSans-20" transform="translate(1051.5625 0.684375)"/>
      <use xlink:href="#DejaVuSans-72" transform="translate(1083.349609 0.684375)"/>
      <use xlink:href="#DejaVuSans-65" transform="translate(1124.462891 0.684375)"/>
      <use xlink:href="#DejaVuSans-74" transform="translate(1185.986328 0.684375)"/>
      <use xlink:href="#DejaVuSans-69" transform="translate(1225.195312 0.684375)"/>
      <use xlink:href="#DejaVuSans-63" transform="translate(1252.978516 0.684375)"/>
      <use xlink:href="#DejaVuSans-6f" transform="translate(1307.958984 0.684375)"/>
      <use xlink:href="#DejaVuSans-6c" transform="translate(1369.140625 0.684375)"/>
      <use xlink:href="#DejaVuSans-61" transform="translate(1396.923828 0.684375)"/>
      <use xlink:href="#DejaVuSans-72" transform="translate(1458.203125 0.684375)"/>
      <use xlink:href="#DejaVuSans-65" transform="translate(1499.316406 0.684375)"/>
      <use xlink:href="#DejaVuSans-20" transform="translate(1560.839844 0.684375)"/>
      <use xlink:href="#DejaVuSans-Oblique-3ba" transform="translate(1592.626953 0.684375)"/>
      <use xlink:href="#DejaVuSans-20" transform="translate(1651.5625 0.684375)"/>
      <use xlink:href="#DejaVuSans-28" transform="translate(1683.349609 0.684375)"/>
      <use xlink:href="#DejaVuSans-57" transform="translate(1722.363281 0.684375)"/>
      <use xlink:href="#DejaVuSans-20" transform="translate(1821.240234 0.684375)"/>
      <use xlink:href="#DejaVuSans-6d" transform="translate(1853.027344 0.684375)"/>
      <use xlink:href="#DejaVuSans-2212" transform="translate(1951.396484 38.965625) scale(0.7)"/>
      <use xlink:href="#DejaVuSans-31" transform="translate(2010.048828 38.965625) scale(0.7)"/>
      <use xlink:href="#DejaVuSans-20" transform="translate(2057.319336 0.684375)"/>
      <use xlink:href="#DejaVuSans-4b" transform="translate(2089.106445 0.684375)"/>
      <use xlink:href="#DejaVuSans-2212" transform="translate(2155.639648 38.965625) scale(0.7)"/>
      <use xlink:href="#DejaVuSans-31" transform="translate(2214.291992 38.965625) scale(0.7)"/>
      <use xlink:href="#DejaVuSans-29" transform="translate(2261.5625 0.684375)"/>
     </g>
    </g>
   </g>
   <g id="line2d_109">
    <path d="M 119.215625 307.641151 
L 127.597599 298.34156 
L 135.979573 288.685371 
L 144.361548 278.686077 
L 152.743522 268.357169 
L 161.125496 257.705519 
L 169.50747 246.702094 
L 177.889445 235.329816 
L 186.271419 223.574782 
L 194.653393 211.423088 
L 200.520775 202.603411 
L 207.226355 192.076161 
L 215.608329 178.44587 
L 250.812621 120.235591 
L 258.356398 107.458465 
L 262.547385 100.753858 
L 265.900174 95.750304 
L 269.252964 91.168044 
L 271.767556 88.064007 
L 276.796741 82.116725 
L 282.664123 75.034339 
L 285.178715 72.252644 
L 287.693307 69.774617 
L 289.369702 68.343098 
L 291.046097 67.124235 
L 292.722492 66.149104 
L 294.398887 65.448782 
L 296.075282 65.054347 
L 297.751677 64.991708 
L 299.428071 65.21106 
L 301.104466 65.67887 
L 302.780861 66.378535 
L 304.457256 67.293453 
L 306.133651 68.407023 
L 308.648243 70.413531 
L 311.162835 72.773618 
L 313.677428 75.431252 
L 317.030217 79.340769 
L 321.221204 84.629114 
L 332.117771 98.685777 
L 341.337943 109.906887 
L 346.367127 116.691135 
L 352.234509 125.025101 
L 370.674852 151.604033 
L 376.542234 159.426389 
L 398.335367 188.076006 
L 406.717342 198.701033 
L 414.261119 207.889553 
L 420.128501 214.720515 
L 425.995883 221.220663 
L 434.377857 230.108142 
L 441.921634 237.814773 
L 449.46541 245.192458 
L 456.17099 251.433542 
L 462.038372 256.620845 
L 467.905754 261.527926 
L 473.773136 266.138145 
L 480.478715 271.092625 
L 487.184295 275.771189 
L 494.728071 280.776887 
L 504.78644 287.164515 
L 535.799745 306.635756 
L 553.401891 317.684606 
L 566.81305 325.855775 
L 578.547814 332.750001 
L 591.120775 339.836688 
L 632.192449 362.73143 
L 656.500174 376.896106 
L 679.969702 390.834888 
L 702.601033 404.535112 
L 705.115625 406.073698 
L 705.115625 406.073698 
" clip-path="url(#pa762cfa4e8)" style="fill: none; stroke: #1f77b4; stroke-width: 2.5; stroke-linecap: square"/>
   </g>
   <g id="patch_3">
    <path d="M 119.215625 418.677656 
L 119.215625 30.597656 
" style="fill: none; stroke: #000000; stroke-width: 0.8; stroke-linejoin: miter; stroke-linecap: square"/>
   </g>
   <g id="patch_4">
    <path d="M 705.115625 418.677656 
L 705.115625 30.597656 
" style="fill: none; stroke: #000000; stroke-width: 0.8; stroke-linejoin: miter; stroke-linecap: square"/>
   </g>
   <g id="patch_5">
    <path d="M 119.215625 418.677656 
L 705.115625 418.677656 
" style="fill: none; stroke: #000000; stroke-width: 0.8; stroke-linejoin: miter; stroke-linecap: square"/>
   </g>
   <g id="patch_6">
    <path d="M 119.215625 30.597656 
L 705.115625 30.597656 
" style="fill: none; stroke: #000000; stroke-width: 0.8; stroke-linejoin: miter; stroke-linecap: square"/>
   </g>
   <g id="patch_7">
    <path d="M 386.260845 58.468923 
Q 342.583758 61.652592 299.910239 64.763111 
" style="fill: none; stroke: #000000; stroke-width: 0.9; stroke-linecap: round"/>
    <path d="M 303.631571 66.296635 
L 299.910239 64.763111 
L 303.369857 62.70616 
z
" style="fill: #1f77b4; stroke: #000000; stroke-width: 0.9; stroke-linecap: round"/>
   </g>
   <g id="text_9">
    <!-- massimo dovuto alla competizione -->
    <g transform="translate(390.25335 49.691473) scale(0.09 -0.09)">
     <defs>
      <path id="DejaVuSans-73" d="M 2834 3397 
L 2834 2853 
Q 2591 2978 2328 3040 
Q 2066 3103 1784 3103 
Q 1356 3103 1142 2972 
Q 928 2841 928 2578 
Q 928 2378 1081 2264 
Q 1234 2150 1697 2047 
L 1894 2003 
Q 2506 1872 2764 1633 
Q 3022 1394 3022 966 
Q 3022 478 2636 193 
Q 2250 -91 1575 -91 
Q 1294 -91 989 -36 
Q 684 19 347 128 
L 347 722 
Q 666 556 975 473 
Q 1284 391 1588 391 
Q 1994 391 2212 530 
Q 2431 669 2431 922 
Q 2431 1156 2273 1281 
Q 2116 1406 1581 1522 
L 1381 1569 
Q 847 1681 609 1914 
Q 372 2147 372 2553 
Q 372 3047 722 3315 
Q 1072 3584 1716 3584 
Q 2034 3584 2315 3537 
Q 2597 3491 2834 3397 
z
" transform="scale(0.015625)"/>
      <path id="DejaVuSans-76" d="M 191 3500 
L 800 3500 
L 1894 563 
L 2988 3500 
L 3597 3500 
L 2284 0 
L 1503 0 
L 191 3500 
z
" transform="scale(0.015625)"/>
      <path id="DejaVuSans-7a" d="M 353 3500 
L 3084 3500 
L 3084 2975 
L 922 459 
L 3084 459 
L 3084 0 
L 275 0 
L 275 525 
L 2438 3041 
L 353 3041 
L 353 3500 
z
" transform="scale(0.015625)"/>
     </defs>
     <use xlink:href="#DejaVuSans-6d"/>
     <use xlink:href="#DejaVuSans-61" transform="translate(97.412109 0)"/>
     <use xlink:href="#DejaVuSans-73" transform="translate(158.691406 0)"/>
     <use xlink:href="#DejaVuSans-73" transform="translate(210.791016 0)"/>
     <use xlink:href="#DejaVuSans-69" transform="translate(262.890625 0)"/>
     <use xlink:href="#DejaVuSans-6d" transform="translate(290.673828 0)"/>
     <use xlink:href="#DejaVuSans-6f" transform="translate(388.085938 0)"/>
     <use xlink:href="#DejaVuSans-20" transform="translate(449.267578 0)"/>
     <use xlink:href="#DejaVuSans-64" transform="translate(481.054688 0)"/>
     <use xlink:href="#DejaVuSans-6f" transform="translate(544.53125 0)"/>
     <use xlink:href="#DejaVuSans-76" transform="translate(605.712891 0)"/>
     <use xlink:href="#DejaVuSans-75" transform="translate(664.892578 0)"/>
     <use xlink:href="#DejaVuSans-74" transform="translate(728.271484 0)"/>
     <use xlink:href="#DejaVuSans-6f" transform="translate(767.480469 0)"/>
     <use xlink:href="#DejaVuSans-20" transform="translate(828.662109 0)"/>
     <use xlink:href="#DejaVuSans-61" transform="translate(860.449219 0)"/>
     <use xlink:href="#DejaVuSans-6c" transform="translate(921.728516 0)"/>
     <use xlink:href="#DejaVuSans-6c" transform="translate(949.511719 0)"/>
     <use xlink:href="#DejaVuSans-61" transform="translate(977.294922 0)"/>
     <use xlink:href="#DejaVuSans-20" transform="translate(1038.574219 0)"/>
     <use xlink:href="#DejaVuSans-63" transform="translate(1070.361328 0)"/>
     <use xlink:href="#DejaVuSans-6f" transform="translate(1125.341797 0)"/>
     <use xlink:href="#DejaVuSans-6d" transform="translate(1186.523438 0)"/>
     <use xlink:href="#DejaVuSans-70" transform="translate(1283.935547 0)"/>
     <use xlink:href="#DejaVuSans-65" transform="translate(1347.412109 0)"/>
     <use xlink:href="#DejaVuSans-74" transform="translate(1408.935547 0)"/>
     <use xlink:href="#DejaVuSans-69" transform="translate(1448.144531 0)"/>
     <use xlink:href="#DejaVuSans-7a" transform="translate(1475.927734 0)"/>
     <use xlink:href="#DejaVuSans-69" transform="translate(1528.417969 0)"/>
     <use xlink:href="#DejaVuSans-6f" transform="translate(1556.201172 0)"/>
     <use xlink:href="#DejaVuSans-6e" transform="translate(1617.382812 0)"/>
     <use xlink:href="#DejaVuSans-65" transform="translate(1680.761719 0)"/>
    </g>
    <!-- tra capacità termica e scattering -->
    <g transform="translate(390.25335 60.201504) scale(0.09 -0.09)">
     <defs>
      <path id="DejaVuSans-67" d="M 2906 1791 
Q 2906 2416 2648 2759 
Q 2391 3103 1925 3103 
Q 1463 3103 1205 2759 
Q 947 2416 947 1791 
Q 947 1169 1205 825 
Q 1463 481 1925 481 
Q 2391 481 2648 825 
Q 2906 1169 2906 1791 
z
M 3481 434 
Q 3481 -459 3084 -895 
Q 2688 -1331 1869 -1331 
Q 1566 -1331 1297 -1286 
Q 1028 -1241 775 -1147 
L 775 -588 
Q 1028 -725 1275 -790 
Q 1522 -856 1778 -856 
Q 2344 -856 2625 -561 
Q 2906 -266 2906 331 
L 2906 616 
Q 2728 306 2450 153 
Q 2172 0 1784 0 
Q 1141 0 747 490 
Q 353 981 353 1791 
Q 353 2603 747 3093 
Q 1141 3584 1784 3584 
Q 2172 3584 2450 3431 
Q 2728 3278 2906 2969 
L 2906 3500 
L 3481 3500 
L 3481 434 
z
" transform="scale(0.015625)"/>
     </defs>
     <use xlink:href="#DejaVuSans-74"/>
     <use xlink:href="#DejaVuSans-72" transform="translate(39.208984 0)"/>
     <use xlink:href="#DejaVuSans-61" transform="translate(80.322266 0)"/>
     <use xlink:href="#DejaVuSans-20" transform="translate(141.601562 0)"/>
     <use xlink:href="#DejaVuSans-63" transform="translate(173.388672 0)"/>
     <use xlink:href="#DejaVuSans-61" transform="translate(228.369141 0)"/>
     <use xlink:href="#DejaVuSans-70" transform="translate(289.648438 0)"/>
     <use xlink:href="#DejaVuSans-61" transform="translate(353.125 0)"/>
     <use xlink:href="#DejaVuSans-63" transform="translate(414.404297 0)"/>
     <use xlink:href="#DejaVuSans-69" transform="translate(469.384766 0)"/>
     <use xlink:href="#DejaVuSans-74" transform="translate(497.167969 0)"/>
     <use xlink:href="#DejaVuSans-e0" transform="translate(536.376953 0)"/>
     <use xlink:href="#DejaVuSans-20" transform="translate(597.65625 0)"/>
     <use xlink:href="#DejaVuSans-74" transform="translate(629.443359 0)"/>
     <use xlink:href="#DejaVuSans-65" transform="translate(668.652344 0)"/>
     <use xlink:href="#DejaVuSans-72" transform="translate(730.175781 0)"/>
     <use xlink:href="#DejaVuSans-6d" transform="translate(769.539062 0)"/>
     <use xlink:href="#DejaVuSans-69" transform="translate(866.951172 0)"/>
     <use xlink:href="#DejaVuSans-63" transform="translate(894.734375 0)"/>
     <use xlink:href="#DejaVuSans-61" transform="translate(949.714844 0)"/>
     <use xlink:href="#DejaVuSans-20" transform="translate(1010.994141 0)"/>
     <use xlink:href="#DejaVuSans-65" transform="translate(1042.78125 0)"/>
     <use xlink:href="#DejaVuSans-20" transform="translate(1104.304688 0)"/>
     <use xlink:href="#DejaVuSans-73" transform="translate(1136.091797 0)"/>
     <use xlink:href="#DejaVuSans-63" transform="translate(1188.191406 0)"/>
     <use xlink:href="#DejaVuSans-61" transform="translate(1243.171875 0)"/>
     <use xlink:href="#DejaVuSans-74" transform="translate(1304.451172 0)"/>
     <use xlink:href="#DejaVuSans-74" transform="translate(1343.660156 0)"/>
     <use xlink:href="#DejaVuSans-65" transform="translate(1382.869141 0)"/>
     <use xlink:href="#DejaVuSans-72" transform="translate(1444.392578 0)"/>
     <use xlink:href="#DejaVuSans-69" transform="translate(1485.505859 0)"/>
     <use xlink:href="#DejaVuSans-6e" transform="translate(1513.289062 0)"/>
     <use xlink:href="#DejaVuSans-67" transform="translate(1576.667969 0)"/>
    </g>
   </g>
   <g id="patch_8">
    <path d="M 561.658883 342.87413 
Q 574.354289 340.923459 586.055135 339.125604 
" style="fill: none; stroke: #000000; stroke-width: 0.9; stroke-linecap: round"/>
    <path d="M 582.223528 337.893213 
L 586.055135 339.125604 
L 582.770258 341.451455 
z
" style="fill: #1f77b4; stroke: #000000; stroke-width: 0.9; stroke-linecap: round"/>
   </g>
   <g id="text_10">
    <!-- regime approssimativo $\kappa\sim T^{-1}$ -->
    <g transform="translate(444.818393 353.276895) scale(0.09 -0.09)">
     <defs>
      <path id="DejaVuSans-223c" d="M 4684 2556 
L 4684 1997 
Q 4356 1753 4076 1645 
Q 3797 1538 3494 1538 
Q 3150 1538 2694 1722 
Q 2663 1734 2641 1744 
Q 2622 1750 2575 1769 
Q 2091 1959 1797 1959 
Q 1522 1959 1253 1840 
Q 984 1722 678 1459 
L 678 2019 
Q 1006 2263 1286 2370 
Q 1566 2478 1869 2478 
Q 2213 2478 2672 2294 
Q 2706 2278 2722 2272 
Q 2741 2266 2788 2247 
Q 3272 2056 3566 2056 
Q 3834 2056 4098 2173 
Q 4363 2291 4684 2556 
z
" transform="scale(0.015625)"/>
      <path id="DejaVuSans-Oblique-54" d="M 378 4666 
L 4325 4666 
L 4225 4134 
L 2559 4134 
L 1759 0 
L 1125 0 
L 1925 4134 
L 275 4134 
L 378 4666 
z
" transform="scale(0.015625)"/>
     </defs>
     <use xlink:href="#DejaVuSans-72" transform="translate(0 0.684375)"/>
     <use xlink:href="#DejaVuSans-65" transform="translate(41.113281 0.684375)"/>
     <use xlink:href="#DejaVuSans-67" transform="translate(102.636719 0.684375)"/>
     <use xlink:href="#DejaVuSans-69" transform="translate(166.113281 0.684375)"/>
     <use xlink:href="#DejaVuSans-6d" transform="translate(193.896484 0.684375)"/>
     <use xlink:href="#DejaVuSans-65" transform="translate(291.308594 0.684375)"/>
     <use xlink:href="#DejaVuSans-20" transform="translate(352.832031 0.684375)"/>
     <use xlink:href="#DejaVuSans-61" transform="translate(384.619141 0.684375)"/>
     <use xlink:href="#DejaVuSans-70" transform="translate(445.898438 0.684375)"/>
     <use xlink:href="#DejaVuSans-70" transform="translate(509.375 0.684375)"/>
     <use xlink:href="#DejaVuSans-72" transform="translate(572.851562 0.684375)"/>
     <use xlink:href="#DejaVuSans-6f" transform="translate(613.964844 0.684375)"/>
     <use xlink:href="#DejaVuSans-73" transform="translate(675.146484 0.684375)"/>
     <use xlink:href="#DejaVuSans-73" transform="translate(727.246094 0.684375)"/>
     <use xlink:href="#DejaVuSans-69" transform="translate(779.345703 0.684375)"/>
     <use xlink:href="#DejaVuSans-6d" transform="translate(807.128906 0.684375)"/>
     <use xlink:href="#DejaVuSans-61" transform="translate(904.541016 0.684375)"/>
     <use xlink:href="#DejaVuSans-74" transform="translate(965.820312 0.684375)"/>
     <use xlink:href="#DejaVuSans-69" transform="translate(1005.029297 0.684375)"/>
     <use xlink:href="#DejaVuSans-76" transform="translate(1032.8125 0.684375)"/>
     <use xlink:href="#DejaVuSans-6f" transform="translate(1091.992188 0.684375)"/>
     <use xlink:href="#DejaVuSans-20" transform="translate(1153.173828 0.684375)"/>
     <use xlink:href="#DejaVuSans-Oblique-3ba" transform="translate(1184.960938 0.684375)"/>
     <use xlink:href="#DejaVuSans-223c" transform="translate(1263.378906 0.684375)"/>
     <use xlink:href="#DejaVuSans-Oblique-54" transform="translate(1366.650391 0.684375)"/>
     <use xlink:href="#DejaVuSans-2212" transform="translate(1434.751146 38.965625) scale(0.7)"/>
     <use xlink:href="#DejaVuSans-31" transform="translate(1493.40349 38.965625) scale(0.7)"/>
    </g>
   </g>
   <g id="text_11">
    <!-- Conducibilità termica reticolare del silicio cristallino -->
    <g transform="translate(191.036328 18.597656) scale(0.15 -0.15)">
     <defs>
      <path id="DejaVuSans-Bold-43" d="M 4288 256 
Q 3956 84 3597 -3 
Q 3238 -91 2847 -91 
Q 1681 -91 1000 561 
Q 319 1213 319 2328 
Q 319 3447 1000 4098 
Q 1681 4750 2847 4750 
Q 3238 4750 3597 4662 
Q 3956 4575 4288 4403 
L 4288 3438 
Q 3953 3666 3628 3772 
Q 3303 3878 2944 3878 
Q 2300 3878 1931 3465 
Q 1563 3053 1563 2328 
Q 1563 1606 1931 1193 
Q 2300 781 2944 781 
Q 3303 781 3628 887 
Q 3953 994 4288 1222 
L 4288 256 
z
" transform="scale(0.015625)"/>
      <path id="DejaVuSans-Bold-6f" d="M 2203 2784 
Q 1831 2784 1636 2517 
Q 1441 2250 1441 1747 
Q 1441 1244 1636 976 
Q 1831 709 2203 709 
Q 2569 709 2762 976 
Q 2956 1244 2956 1747 
Q 2956 2250 2762 2517 
Q 2569 2784 2203 2784 
z
M 2203 3584 
Q 3106 3584 3614 3096 
Q 4122 2609 4122 1747 
Q 4122 884 3614 396 
Q 3106 -91 2203 -91 
Q 1297 -91 786 396 
Q 275 884 275 1747 
Q 275 2609 786 3096 
Q 1297 3584 2203 3584 
z
" transform="scale(0.015625)"/>
      <path id="DejaVuSans-Bold-6e" d="M 4056 2131 
L 4056 0 
L 2931 0 
L 2931 347 
L 2931 1631 
Q 2931 2084 2911 2256 
Q 2891 2428 2841 2509 
Q 2775 2619 2662 2680 
Q 2550 2741 2406 2741 
Q 2056 2741 1856 2470 
Q 1656 2200 1656 1722 
L 1656 0 
L 538 0 
L 538 3500 
L 1656 3500 
L 1656 2988 
Q 1909 3294 2193 3439 
Q 2478 3584 2822 3584 
Q 3428 3584 3742 3212 
Q 4056 2841 4056 2131 
z
" transform="scale(0.015625)"/>
      <path id="DejaVuSans-Bold-64" d="M 2919 2988 
L 2919 4863 
L 4044 4863 
L 4044 0 
L 2919 0 
L 2919 506 
Q 2688 197 2409 53 
Q 2131 -91 1766 -91 
Q 1119 -91 703 423 
Q 288 938 288 1747 
Q 288 2556 703 3070 
Q 1119 3584 1766 3584 
Q 2128 3584 2408 3439 
Q 2688 3294 2919 2988 
z
M 2181 722 
Q 2541 722 2730 984 
Q 2919 1247 2919 1747 
Q 2919 2247 2730 2509 
Q 2541 2772 2181 2772 
Q 1825 2772 1636 2509 
Q 1447 2247 1447 1747 
Q 1447 1247 1636 984 
Q 1825 722 2181 722 
z
" transform="scale(0.015625)"/>
      <path id="DejaVuSans-Bold-75" d="M 500 1363 
L 500 3500 
L 1625 3500 
L 1625 3150 
Q 1625 2866 1622 2436 
Q 1619 2006 1619 1863 
Q 1619 1441 1641 1255 
Q 1663 1069 1716 984 
Q 1784 875 1895 815 
Q 2006 756 2150 756 
Q 2500 756 2700 1025 
Q 2900 1294 2900 1772 
L 2900 3500 
L 4019 3500 
L 4019 0 
L 2900 0 
L 2900 506 
Q 2647 200 2364 54 
Q 2081 -91 1741 -91 
Q 1134 -91 817 281 
Q 500 653 500 1363 
z
" transform="scale(0.015625)"/>
      <path id="DejaVuSans-Bold-63" d="M 3366 3391 
L 3366 2478 
Q 3138 2634 2908 2709 
Q 2678 2784 2431 2784 
Q 1963 2784 1702 2511 
Q 1441 2238 1441 1747 
Q 1441 1256 1702 982 
Q 1963 709 2431 709 
Q 2694 709 2930 787 
Q 3166 866 3366 1019 
L 3366 103 
Q 3103 6 2833 -42 
Q 2563 -91 2291 -91 
Q 1344 -91 809 395 
Q 275 881 275 1747 
Q 275 2613 809 3098 
Q 1344 3584 2291 3584 
Q 2566 3584 2833 3536 
Q 3100 3488 3366 3391 
z
" transform="scale(0.015625)"/>
      <path id="DejaVuSans-Bold-69" d="M 538 3500 
L 1656 3500 
L 1656 0 
L 538 0 
L 538 3500 
z
M 538 4863 
L 1656 4863 
L 1656 3950 
L 538 3950 
L 538 4863 
z
" transform="scale(0.015625)"/>
      <path id="DejaVuSans-Bold-62" d="M 2400 722 
Q 2759 722 2948 984 
Q 3138 1247 3138 1747 
Q 3138 2247 2948 2509 
Q 2759 2772 2400 2772 
Q 2041 2772 1848 2508 
Q 1656 2244 1656 1747 
Q 1656 1250 1848 986 
Q 2041 722 2400 722 
z
M 1656 2988 
Q 1888 3294 2169 3439 
Q 2450 3584 2816 3584 
Q 3463 3584 3878 3070 
Q 4294 2556 4294 1747 
Q 4294 938 3878 423 
Q 3463 -91 2816 -91 
Q 2450 -91 2169 54 
Q 1888 200 1656 506 
L 1656 0 
L 538 0 
L 538 4863 
L 1656 4863 
L 1656 2988 
z
" transform="scale(0.015625)"/>
      <path id="DejaVuSans-Bold-6c" d="M 538 4863 
L 1656 4863 
L 1656 0 
L 538 0 
L 538 4863 
z
" transform="scale(0.015625)"/>
      <path id="DejaVuSans-Bold-74" d="M 1759 4494 
L 1759 3500 
L 2913 3500 
L 2913 2700 
L 1759 2700 
L 1759 1216 
Q 1759 972 1856 886 
Q 1953 800 2241 800 
L 2816 800 
L 2816 0 
L 1856 0 
Q 1194 0 917 276 
Q 641 553 641 1216 
L 641 2700 
L 84 2700 
L 84 3500 
L 641 3500 
L 641 4494 
L 1759 4494 
z
" transform="scale(0.015625)"/>
      <path id="DejaVuSans-Bold-e0" d="M 2106 1575 
Q 1756 1575 1579 1456 
Q 1403 1338 1403 1106 
Q 1403 894 1545 773 
Q 1688 653 1941 653 
Q 2256 653 2472 879 
Q 2688 1106 2688 1447 
L 2688 1575 
L 2106 1575 
z
M 3816 1997 
L 3816 0 
L 2688 0 
L 2688 519 
Q 2463 200 2181 54 
Q 1900 -91 1497 -91 
Q 953 -91 614 226 
Q 275 544 275 1050 
Q 275 1666 698 1953 
Q 1122 2241 2028 2241 
L 2688 2241 
L 2688 2328 
Q 2688 2594 2478 2717 
Q 2269 2841 1825 2841 
Q 1466 2841 1156 2769 
Q 847 2697 581 2553 
L 581 3406 
Q 941 3494 1303 3539 
Q 1666 3584 2028 3584 
Q 2975 3584 3395 3211 
Q 3816 2838 3816 1997 
z
M 1762 5119 
L 2643 3944 
L 2031 3944 
L 878 5119 
L 1762 5119 
z
" transform="scale(0.015625)"/>
      <path id="DejaVuSans-Bold-20" transform="scale(0.015625)"/>
      <path id="DejaVuSans-Bold-65" d="M 4031 1759 
L 4031 1441 
L 1416 1441 
Q 1456 1047 1700 850 
Q 1944 653 2381 653 
Q 2734 653 3104 758 
Q 3475 863 3866 1075 
L 3866 213 
Q 3469 63 3072 -14 
Q 2675 -91 2278 -91 
Q 1328 -91 801 392 
Q 275 875 275 1747 
Q 275 2603 792 3093 
Q 1309 3584 2216 3584 
Q 3041 3584 3536 3087 
Q 4031 2591 4031 1759 
z
M 2881 2131 
Q 2881 2450 2695 2645 
Q 2509 2841 2209 2841 
Q 1884 2841 1681 2658 
Q 1478 2475 1428 2131 
L 2881 2131 
z
" transform="scale(0.015625)"/>
      <path id="DejaVuSans-Bold-72" d="M 3138 2547 
Q 2991 2616 2845 2648 
Q 2700 2681 2553 2681 
Q 2122 2681 1889 2404 
Q 1656 2128 1656 1613 
L 1656 0 
L 538 0 
L 538 3500 
L 1656 3500 
L 1656 2925 
Q 1872 3269 2151 3426 
Q 2431 3584 2822 3584 
Q 2878 3584 2943 3579 
Q 3009 3575 3134 3559 
L 3138 2547 
z
" transform="scale(0.015625)"/>
      <path id="DejaVuSans-Bold-6d" d="M 3781 2919 
Q 3994 3244 4286 3414 
Q 4578 3584 4928 3584 
Q 5531 3584 5847 3212 
Q 6163 2841 6163 2131 
L 6163 0 
L 5038 0 
L 5038 1825 
Q 5041 1866 5042 1909 
Q 5044 1953 5044 2034 
Q 5044 2406 4934 2573 
Q 4825 2741 4581 2741 
Q 4263 2741 4089 2478 
Q 3916 2216 3909 1719 
L 3909 0 
L 2784 0 
L 2784 1825 
Q 2784 2406 2684 2573 
Q 2584 2741 2328 2741 
Q 2006 2741 1831 2477 
Q 1656 2213 1656 1722 
L 1656 0 
L 531 0 
L 531 3500 
L 1656 3500 
L 1656 2988 
Q 1863 3284 2130 3434 
Q 2397 3584 2719 3584 
Q 3081 3584 3359 3409 
Q 3638 3234 3781 2919 
z
" transform="scale(0.015625)"/>
      <path id="DejaVuSans-Bold-61" d="M 2106 1575 
Q 1756 1575 1579 1456 
Q 1403 1338 1403 1106 
Q 1403 894 1545 773 
Q 1688 653 1941 653 
Q 2256 653 2472 879 
Q 2688 1106 2688 1447 
L 2688 1575 
L 2106 1575 
z
M 3816 1997 
L 3816 0 
L 2688 0 
L 2688 519 
Q 2463 200 2181 54 
Q 1900 -91 1497 -91 
Q 953 -91 614 226 
Q 275 544 275 1050 
Q 275 1666 698 1953 
Q 1122 2241 2028 2241 
L 2688 2241 
L 2688 2328 
Q 2688 2594 2478 2717 
Q 2269 2841 1825 2841 
Q 1466 2841 1156 2769 
Q 847 2697 581 2553 
L 581 3406 
Q 941 3494 1303 3539 
Q 1666 3584 2028 3584 
Q 2975 3584 3395 3211 
Q 3816 2838 3816 1997 
z
" transform="scale(0.015625)"/>
      <path id="DejaVuSans-Bold-73" d="M 3272 3391 
L 3272 2541 
Q 2913 2691 2578 2766 
Q 2244 2841 1947 2841 
Q 1628 2841 1473 2761 
Q 1319 2681 1319 2516 
Q 1319 2381 1436 2309 
Q 1553 2238 1856 2203 
L 2053 2175 
Q 2913 2066 3209 1816 
Q 3506 1566 3506 1031 
Q 3506 472 3093 190 
Q 2681 -91 1863 -91 
Q 1516 -91 1145 -36 
Q 775 19 384 128 
L 384 978 
Q 719 816 1070 734 
Q 1422 653 1784 653 
Q 2113 653 2278 743 
Q 2444 834 2444 1013 
Q 2444 1163 2330 1236 
Q 2216 1309 1875 1350 
L 1678 1375 
Q 931 1469 631 1722 
Q 331 1975 331 2491 
Q 331 3047 712 3315 
Q 1094 3584 1881 3584 
Q 2191 3584 2531 3537 
Q 2872 3491 3272 3391 
z
" transform="scale(0.015625)"/>
     </defs>
     <use xlink:href="#DejaVuSans-Bold-43"/>
     <use xlink:href="#DejaVuSans-Bold-6f" transform="translate(73.388672 0)"/>
     <use xlink:href="#DejaVuSans-Bold-6e" transform="translate(142.089844 0)"/>
     <use xlink:href="#DejaVuSans-Bold-64" transform="translate(213.28125 0)"/>
     <use xlink:href="#DejaVuSans-Bold-75" transform="translate(284.863281 0)"/>
     <use xlink:href="#DejaVuSans-Bold-63" transform="translate(356.054688 0)"/>
     <use xlink:href="#DejaVuSans-Bold-69" transform="translate(415.332031 0)"/>
     <use xlink:href="#DejaVuSans-Bold-62" transform="translate(449.609375 0)"/>
     <use xlink:href="#DejaVuSans-Bold-69" transform="translate(521.191406 0)"/>
     <use xlink:href="#DejaVuSans-Bold-6c" transform="translate(555.46875 0)"/>
     <use xlink:href="#DejaVuSans-Bold-69" transform="translate(589.746094 0)"/>
     <use xlink:href="#DejaVuSans-Bold-74" transform="translate(624.023438 0)"/>
     <use xlink:href="#DejaVuSans-Bold-e0" transform="translate(671.826172 0)"/>
     <use xlink:href="#DejaVuSans-Bold-20" transform="translate(739.306641 0)"/>
     <use xlink:href="#DejaVuSans-Bold-74" transform="translate(774.121094 0)"/>
     <use xlink:href="#DejaVuSans-Bold-65" transform="translate(821.923828 0)"/>
     <use xlink:href="#DejaVuSans-Bold-72" transform="translate(889.746094 0)"/>
     <use xlink:href="#DejaVuSans-Bold-6d" transform="translate(939.0625 0)"/>
     <use xlink:href="#DejaVuSans-Bold-69" transform="translate(1043.261719 0)"/>
     <use xlink:href="#DejaVuSans-Bold-63" transform="translate(1077.539062 0)"/>
     <use xlink:href="#DejaVuSans-Bold-61" transform="translate(1136.816406 0)"/>
     <use xlink:href="#DejaVuSans-Bold-20" transform="translate(1204.296875 0)"/>
     <use xlink:href="#DejaVuSans-Bold-72" transform="translate(1239.111328 0)"/>
     <use xlink:href="#DejaVuSans-Bold-65" transform="translate(1288.427734 0)"/>
     <use xlink:href="#DejaVuSans-Bold-74" transform="translate(1356.25 0)"/>
     <use xlink:href="#DejaVuSans-Bold-69" transform="translate(1404.052734 0)"/>
     <use xlink:href="#DejaVuSans-Bold-63" transform="translate(1438.330078 0)"/>
     <use xlink:href="#DejaVuSans-Bold-6f" transform="translate(1497.607422 0)"/>
     <use xlink:href="#DejaVuSans-Bold-6c" transform="translate(1566.308594 0)"/>
     <use xlink:href="#DejaVuSans-Bold-61" transform="translate(1600.585938 0)"/>
     <use xlink:href="#DejaVuSans-Bold-72" transform="translate(1668.066406 0)"/>
     <use xlink:href="#DejaVuSans-Bold-65" transform="translate(1717.382812 0)"/>
     <use xlink:href="#DejaVuSans-Bold-20" transform="translate(1785.205078 0)"/>
     <use xlink:href="#DejaVuSans-Bold-64" transform="translate(1820.019531 0)"/>
     <use xlink:href="#DejaVuSans-Bold-65" transform="translate(1891.601562 0)"/>
     <use xlink:href="#DejaVuSans-Bold-6c" transform="translate(1959.423828 0)"/>
     <use xlink:href="#DejaVuSans-Bold-20" transform="translate(1993.701172 0)"/>
     <use xlink:href="#DejaVuSans-Bold-73" transform="translate(2028.515625 0)"/>
     <use xlink:href="#DejaVuSans-Bold-69" transform="translate(2088.037109 0)"/>
     <use xlink:href="#DejaVuSans-Bold-6c" transform="translate(2122.314453 0)"/>
     <use xlink:href="#DejaVuSans-Bold-69" transform="translate(2156.591797 0)"/>
     <use xlink:href="#DejaVuSans-Bold-63" transform="translate(2190.869141 0)"/>
     <use xlink:href="#DejaVuSans-Bold-69" transform="translate(2250.146484 0)"/>
     <use xlink:href="#DejaVuSans-Bold-6f" transform="translate(2284.423828 0)"/>
     <use xlink:href="#DejaVuSans-Bold-20" transform="translate(2353.125 0)"/>
     <use xlink:href="#DejaVuSans-Bold-63" transform="translate(2387.939453 0)"/>
     <use xlink:href="#DejaVuSans-Bold-72" transform="translate(2447.216797 0)"/>
     <use xlink:href="#DejaVuSans-Bold-69" transform="translate(2496.533203 0)"/>
     <use xlink:href="#DejaVuSans-Bold-73" transform="translate(2530.810547 0)"/>
     <use xlink:href="#DejaVuSans-Bold-74" transform="translate(2590.332031 0)"/>
     <use xlink:href="#DejaVuSans-Bold-61" transform="translate(2638.134766 0)"/>
     <use xlink:href="#DejaVuSans-Bold-6c" transform="translate(2705.615234 0)"/>
     <use xlink:href="#DejaVuSans-Bold-6c" transform="translate(2739.892578 0)"/>
     <use xlink:href="#DejaVuSans-Bold-69" transform="translate(2774.169922 0)"/>
     <use xlink:href="#DejaVuSans-Bold-6e" transform="translate(2808.447266 0)"/>
     <use xlink:href="#DejaVuSans-Bold-6f" transform="translate(2879.638672 0)"/>
    </g>
   </g>
   <g id="PathCollection_1">
    <defs>
     <path id="mb817ce8338" d="M 0 2.915476 
C 0.773193 2.915476 1.514823 2.608283 2.061553 2.061553 
C 2.608283 1.514823 2.915476 0.773193 2.915476 0 
C 2.915476 -0.773193 2.608283 -1.514823 2.061553 -2.061553 
C 1.514823 -2.608283 0.773193 -2.915476 0 -2.915476 
C -0.773193 -2.915476 -1.514823 -2.608283 -2.061553 -2.061553 
C -2.608283 -1.514823 -2.915476 -0.773193 -2.915476 0 
C -2.915476 0.773193 -2.608283 1.514823 -2.061553 2.061553 
C -1.514823 2.608283 -0.773193 2.915476 0 2.915476 
z
" style="stroke: #1f77b4"/>
    </defs>
    <g clip-path="url(#pa762cfa4e8)">
     <use xlink:href="#mb817ce8338" x="139.377158" y="282.056239" style="fill: #1f77b4; stroke: #1f77b4"/>
     <use xlink:href="#mb817ce8338" x="171.189697" y="242.25176" style="fill: #1f77b4; stroke: #1f77b4"/>
     <use xlink:href="#mb817ce8338" x="195.865419" y="210.392555" style="fill: #1f77b4; stroke: #1f77b4"/>
     <use xlink:href="#mb817ce8338" x="216.026952" y="178.299148" style="fill: #1f77b4; stroke: #1f77b4"/>
     <use xlink:href="#mb817ce8338" x="240.702674" y="135.630837" style="fill: #1f77b4; stroke: #1f77b4"/>
     <use xlink:href="#mb817ce8338" x="260.864207" y="102.804657" style="fill: #1f77b4; stroke: #1f77b4"/>
     <use xlink:href="#mb817ce8338" x="277.91054" y="88.117128" style="fill: #1f77b4; stroke: #1f77b4"/>
     <use xlink:href="#mb817ce8338" x="297.190934" y="72.551396" style="fill: #1f77b4; stroke: #1f77b4"/>
     <use xlink:href="#mb817ce8338" x="317.352467" y="86.002634" style="fill: #1f77b4; stroke: #1f77b4"/>
     <use xlink:href="#mb817ce8338" x="343.492877" y="108.24081" style="fill: #1f77b4; stroke: #1f77b4"/>
     <use xlink:href="#mb817ce8338" x="373.840728" y="152.419438" style="fill: #1f77b4; stroke: #1f77b4"/>
     <use xlink:href="#mb817ce8338" x="411.048594" y="192.828148" style="fill: #1f77b4; stroke: #1f77b4"/>
     <use xlink:href="#mb817ce8338" x="450.490522" y="243.858837" style="fill: #1f77b4; stroke: #1f77b4"/>
     <use xlink:href="#mb817ce8338" x="495.327777" y="285.655349" style="fill: #1f77b4; stroke: #1f77b4"/>
     <use xlink:href="#mb817ce8338" x="537.679932" y="307.782227" style="fill: #1f77b4; stroke: #1f77b4"/>
     <use xlink:href="#mb817ce8338" x="571.977571" y="325.813112" style="fill: #1f77b4; stroke: #1f77b4"/>
     <use xlink:href="#mb817ce8338" x="616.814826" y="355.610821" style="fill: #1f77b4; stroke: #1f77b4"/>
    </g>
   </g>
   <g id="legend_1">
    <g id="line2d_110">
     <path d="M 128.215625 389.419844 
L 138.215625 389.419844 
L 148.215625 389.419844 
" style="fill: none; stroke: #1f77b4; stroke-width: 2.5; stroke-linecap: square"/>
    </g>
    <g id="text_12">
     <!-- modello fononico SM-RTA-BTE, ricostruzione -->
     <g transform="translate(156.215625 392.919844) scale(0.1 -0.1)">
      <defs>
       <path id="DejaVuSans-66" d="M 2375 4863 
L 2375 4384 
L 1825 4384 
Q 1516 4384 1395 4259 
Q 1275 4134 1275 3809 
L 1275 3500 
L 2222 3500 
L 2222 3053 
L 1275 3053 
L 1275 0 
L 697 0 
L 697 3053 
L 147 3053 
L 147 3500 
L 697 3500 
L 697 3744 
Q 697 4328 969 4595 
Q 1241 4863 1831 4863 
L 2375 4863 
z
" transform="scale(0.015625)"/>
       <path id="DejaVuSans-53" d="M 3425 4513 
L 3425 3897 
Q 3066 4069 2747 4153 
Q 2428 4238 2131 4238 
Q 1616 4238 1336 4038 
Q 1056 3838 1056 3469 
Q 1056 3159 1242 3001 
Q 1428 2844 1947 2747 
L 2328 2669 
Q 3034 2534 3370 2195 
Q 3706 1856 3706 1288 
Q 3706 609 3251 259 
Q 2797 -91 1919 -91 
Q 1588 -91 1214 -16 
Q 841 59 441 206 
L 441 856 
Q 825 641 1194 531 
Q 1563 422 1919 422 
Q 2459 422 2753 634 
Q 3047 847 3047 1241 
Q 3047 1584 2836 1778 
Q 2625 1972 2144 2069 
L 1759 2144 
Q 1053 2284 737 2584 
Q 422 2884 422 3419 
Q 422 4038 858 4394 
Q 1294 4750 2059 4750 
Q 2388 4750 2728 4690 
Q 3069 4631 3425 4513 
z
" transform="scale(0.015625)"/>
       <path id="DejaVuSans-4d" d="M 628 4666 
L 1569 4666 
L 2759 1491 
L 3956 4666 
L 4897 4666 
L 4897 0 
L 4281 0 
L 4281 4097 
L 3078 897 
L 2444 897 
L 1241 4097 
L 1241 0 
L 628 0 
L 628 4666 
z
" transform="scale(0.015625)"/>
       <path id="DejaVuSans-2d" d="M 313 2009 
L 1997 2009 
L 1997 1497 
L 313 1497 
L 313 2009 
z
" transform="scale(0.015625)"/>
       <path id="DejaVuSans-52" d="M 2841 2188 
Q 3044 2119 3236 1894 
Q 3428 1669 3622 1275 
L 4263 0 
L 3584 0 
L 2988 1197 
Q 2756 1666 2539 1819 
Q 2322 1972 1947 1972 
L 1259 1972 
L 1259 0 
L 628 0 
L 628 4666 
L 2053 4666 
Q 2853 4666 3247 4331 
Q 3641 3997 3641 3322 
Q 3641 2881 3436 2590 
Q 3231 2300 2841 2188 
z
M 1259 4147 
L 1259 2491 
L 2053 2491 
Q 2509 2491 2742 2702 
Q 2975 2913 2975 3322 
Q 2975 3731 2742 3939 
Q 2509 4147 2053 4147 
L 1259 4147 
z
" transform="scale(0.015625)"/>
       <path id="DejaVuSans-54" d="M -19 4666 
L 3928 4666 
L 3928 4134 
L 2272 4134 
L 2272 0 
L 1638 0 
L 1638 4134 
L -19 4134 
L -19 4666 
z
" transform="scale(0.015625)"/>
       <path id="DejaVuSans-41" d="M 2188 4044 
L 1331 1722 
L 3047 1722 
L 2188 4044 
z
M 1831 4666 
L 2547 4666 
L 4325 0 
L 3669 0 
L 3244 1197 
L 1141 1197 
L 716 0 
L 50 0 
L 1831 4666 
z
" transform="scale(0.015625)"/>
       <path id="DejaVuSans-42" d="M 1259 2228 
L 1259 519 
L 2272 519 
Q 2781 519 3026 730 
Q 3272 941 3272 1375 
Q 3272 1813 3026 2020 
Q 2781 2228 2272 2228 
L 1259 2228 
z
M 1259 4147 
L 1259 2741 
L 2194 2741 
Q 2656 2741 2882 2914 
Q 3109 3088 3109 3444 
Q 3109 3797 2882 3972 
Q 2656 4147 2194 4147 
L 1259 4147 
z
M 628 4666 
L 2241 4666 
Q 2963 4666 3353 4366 
Q 3744 4066 3744 3513 
Q 3744 3084 3544 2831 
Q 3344 2578 2956 2516 
Q 3422 2416 3680 2098 
Q 3938 1781 3938 1306 
Q 3938 681 3513 340 
Q 3088 0 2303 0 
L 628 0 
L 628 4666 
z
" transform="scale(0.015625)"/>
       <path id="DejaVuSans-45" d="M 628 4666 
L 3578 4666 
L 3578 4134 
L 1259 4134 
L 1259 2753 
L 3481 2753 
L 3481 2222 
L 1259 2222 
L 1259 531 
L 3634 531 
L 3634 0 
L 628 0 
L 628 4666 
z
" transform="scale(0.015625)"/>
       <path id="DejaVuSans-2c" d="M 750 794 
L 1409 794 
L 1409 256 
L 897 -744 
L 494 -744 
L 750 256 
L 750 794 
z
" transform="scale(0.015625)"/>
      </defs>
      <use xlink:href="#DejaVuSans-6d"/>
      <use xlink:href="#DejaVuSans-6f" transform="translate(97.412109 0)"/>
      <use xlink:href="#DejaVuSans-64" transform="translate(158.59375 0)"/>
      <use xlink:href="#DejaVuSans-65" transform="translate(222.070312 0)"/>
      <use xlink:href="#DejaVuSans-6c" transform="translate(283.59375 0)"/>
      <use xlink:href="#DejaVuSans-6c" transform="translate(311.376953 0)"/>
      <use xlink:href="#DejaVuSans-6f" transform="translate(339.160156 0)"/>
      <use xlink:href="#DejaVuSans-20" transform="translate(400.341797 0)"/>
      <use xlink:href="#DejaVuSans-66" transform="translate(432.128906 0)"/>
      <use xlink:href="#DejaVuSans-6f" transform="translate(467.333984 0)"/>
      <use xlink:href="#DejaVuSans-6e" transform="translate(528.515625 0)"/>
      <use xlink:href="#DejaVuSans-6f" transform="translate(591.894531 0)"/>
      <use xlink:href="#DejaVuSans-6e" transform="translate(653.076172 0)"/>
      <use xlink:href="#DejaVuSans-69" transform="translate(716.455078 0)"/>
      <use xlink:href="#DejaVuSans-63" transform="translate(744.238281 0)"/>
      <use xlink:href="#DejaVuSans-6f" transform="translate(799.21875 0)"/>
      <use xlink:href="#DejaVuSans-20" transform="translate(860.400391 0)"/>
      <use xlink:href="#DejaVuSans-53" transform="translate(892.1875 0)"/>
      <use xlink:href="#DejaVuSans-4d" transform="translate(955.664062 0)"/>
      <use xlink:href="#DejaVuSans-2d" transform="translate(1041.943359 0)"/>
      <use xlink:href="#DejaVuSans-52" transform="translate(1078.027344 0)"/>
      <use xlink:href="#DejaVuSans-54" transform="translate(1140.259766 0)"/>
      <use xlink:href="#DejaVuSans-41" transform="translate(1193.59375 0)"/>
      <use xlink:href="#DejaVuSans-2d" transform="translate(1259.751953 0)"/>
      <use xlink:href="#DejaVuSans-42" transform="translate(1292.210938 0)"/>
      <use xlink:href="#DejaVuSans-54" transform="translate(1360.814453 0)"/>
      <use xlink:href="#DejaVuSans-45" transform="translate(1421.898438 0)"/>
      <use xlink:href="#DejaVuSans-2c" transform="translate(1485.082031 0)"/>
      <use xlink:href="#DejaVuSans-20" transform="translate(1516.869141 0)"/>
      <use xlink:href="#DejaVuSans-72" transform="translate(1548.65625 0)"/>
      <use xlink:href="#DejaVuSans-69" transform="translate(1589.769531 0)"/>
      <use xlink:href="#DejaVuSans-63" transform="translate(1617.552734 0)"/>
      <use xlink:href="#DejaVuSans-6f" transform="translate(1672.533203 0)"/>
      <use xlink:href="#DejaVuSans-73" transform="translate(1733.714844 0)"/>
      <use xlink:href="#DejaVuSans-74" transform="translate(1785.814453 0)"/>
      <use xlink:href="#DejaVuSans-72" transform="translate(1825.023438 0)"/>
      <use xlink:href="#DejaVuSans-75" transform="translate(1866.136719 0)"/>
      <use xlink:href="#DejaVuSans-7a" transform="translate(1929.515625 0)"/>
      <use xlink:href="#DejaVuSans-69" transform="translate(1982.005859 0)"/>
      <use xlink:href="#DejaVuSans-6f" transform="translate(2009.789062 0)"/>
      <use xlink:href="#DejaVuSans-6e" transform="translate(2070.970703 0)"/>
      <use xlink:href="#DejaVuSans-65" transform="translate(2134.349609 0)"/>
     </g>
    </g>
    <g id="PathCollection_2">
     <g>
      <use xlink:href="#mb817ce8338" x="138.215625" y="404.972969" style="fill: #1f77b4; stroke: #1f77b4"/>
     </g>
    </g>
    <g id="text_13">
     <!-- campioni sperimentali sintetici -->
     <g transform="translate(156.215625 407.597969) scale(0.1 -0.1)">
      <use xlink:href="#DejaVuSans-63"/>
      <use xlink:href="#DejaVuSans-61" transform="translate(54.980469 0)"/>
      <use xlink:href="#DejaVuSans-6d" transform="translate(116.259766 0)"/>
      <use xlink:href="#DejaVuSans-70" transform="translate(213.671875 0)"/>
      <use xlink:href="#DejaVuSans-69" transform="translate(277.148438 0)"/>
      <use xlink:href="#DejaVuSans-6f" transform="translate(304.931641 0)"/>
      <use xlink:href="#DejaVuSans-6e" transform="translate(366.113281 0)"/>
      <use xlink:href="#DejaVuSans-69" transform="translate(429.492188 0)"/>
      <use xlink:href="#DejaVuSans-20" transform="translate(457.275391 0)"/>
      <use xlink:href="#DejaVuSans-73" transform="translate(489.0625 0)"/>
      <use xlink:href="#DejaVuSans-70" transform="translate(541.162109 0)"/>
      <use xlink:href="#DejaVuSans-65" transform="translate(604.638672 0)"/>
      <use xlink:href="#DejaVuSans-72" transform="translate(666.162109 0)"/>
      <use xlink:href="#DejaVuSans-69" transform="translate(707.275391 0)"/>
      <use xlink:href="#DejaVuSans-6d" transform="translate(735.058594 0)"/>
      <use xlink:href="#DejaVuSans-65" transform="translate(832.470703 0)"/>
      <use xlink:href="#DejaVuSans-6e" transform="translate(893.994141 0)"/>
      <use xlink:href="#DejaVuSans-74" transform="translate(957.373047 0)"/>
      <use xlink:href="#DejaVuSans-61" transform="translate(996.582031 0)"/>
      <use xlink:href="#DejaVuSans-6c" transform="translate(1057.861328 0)"/>
      <use xlink:href="#DejaVuSans-69" transform="translate(1085.644531 0)"/>
      <use xlink:href="#DejaVuSans-20" transform="translate(1113.427734 0)"/>
      <use xlink:href="#DejaVuSans-73" transform="translate(1145.214844 0)"/>
      <use xlink:href="#DejaVuSans-69" transform="translate(1197.314453 0)"/>
      <use xlink:href="#DejaVuSans-6e" transform="translate(1225.097656 0)"/>
      <use xlink:href="#DejaVuSans-74" transform="translate(1288.476562 0)"/>
      <use xlink:href="#DejaVuSans-65" transform="translate(1327.685547 0)"/>
      <use xlink:href="#DejaVuSans-74" transform="translate(1389.208984 0)"/>
      <use xlink:href="#DejaVuSans-69" transform="translate(1428.417969 0)"/>
      <use xlink:href="#DejaVuSans-63" transform="translate(1456.201172 0)"/>
      <use xlink:href="#DejaVuSans-69" transform="translate(1511.181641 0)"/>
     </g>
    </g>
   </g>
  </g>
  <g id="text_14">
   <!-- Curva e punti sono dati sintetici deterministici costruiti per mostrare il picco criogenico e la successiva diminuzione dominata dallo scattering fonone–fonone. -->
   <g transform="translate(7.2 461.517656) scale(0.1 -0.1)">
    <defs>
     <path id="DejaVuSans-43" d="M 4122 4306 
L 4122 3641 
Q 3803 3938 3442 4084 
Q 3081 4231 2675 4231 
Q 1875 4231 1450 3742 
Q 1025 3253 1025 2328 
Q 1025 1406 1450 917 
Q 1875 428 2675 428 
Q 3081 428 3442 575 
Q 3803 722 4122 1019 
L 4122 359 
Q 3791 134 3420 21 
Q 3050 -91 2638 -91 
Q 1578 -91 968 557 
Q 359 1206 359 2328 
Q 359 3453 968 4101 
Q 1578 4750 2638 4750 
Q 3056 4750 3426 4639 
Q 3797 4528 4122 4306 
z
" transform="scale(0.015625)"/>
     <path id="DejaVuSans-2013" d="M 313 1978 
L 2888 1978 
L 2888 1528 
L 313 1528 
L 313 1978 
z
" transform="scale(0.015625)"/>
     <path id="DejaVuSans-2e" d="M 684 794 
L 1344 794 
L 1344 0 
L 684 0 
L 684 794 
z
" transform="scale(0.015625)"/>
    </defs>
    <use xlink:href="#DejaVuSans-43"/>
    <use xlink:href="#DejaVuSans-75" transform="translate(69.824219 0)"/>
    <use xlink:href="#DejaVuSans-72" transform="translate(133.203125 0)"/>
    <use xlink:href="#DejaVuSans-76" transform="translate(174.316406 0)"/>
    <use xlink:href="#DejaVuSans-61" transform="translate(233.496094 0)"/>
    <use xlink:href="#DejaVuSans-20" transform="translate(294.775391 0)"/>
    <use xlink:href="#DejaVuSans-65" transform="translate(326.5625 0)"/>
    <use xlink:href="#DejaVuSans-20" transform="translate(388.085938 0)"/>
    <use xlink:href="#DejaVuSans-70" transform="translate(419.873047 0)"/>
    <use xlink:href="#DejaVuSans-75" transform="translate(483.349609 0)"/>
    <use xlink:href="#DejaVuSans-6e" transform="translate(546.728516 0)"/>
    <use xlink:href="#DejaVuSans-74" transform="translate(610.107422 0)"/>
    <use xlink:href="#DejaVuSans-69" transform="translate(649.316406 0)"/>
    <use xlink:href="#DejaVuSans-20" transform="translate(677.099609 0)"/>
    <use xlink:href="#DejaVuSans-73" transform="translate(708.886719 0)"/>
    <use xlink:href="#DejaVuSans-6f" transform="translate(760.986328 0)"/>
    <use xlink:href="#DejaVuSans-6e" transform="translate(822.167969 0)"/>
    <use xlink:href="#DejaVuSans-6f" transform="translate(885.546875 0)"/>
    <use xlink:href="#DejaVuSans-20" transform="translate(946.728516 0)"/>
    <use xlink:href="#DejaVuSans-64" transform="translate(978.515625 0)"/>
    <use xlink:href="#DejaVuSans-61" transform="translate(1041.992188 0)"/>
    <use xlink:href="#DejaVuSans-74" transform="translate(1103.271484 0)"/>
    <use xlink:href="#DejaVuSans-69" transform="translate(1142.480469 0)"/>
    <use xlink:href="#DejaVuSans-20" transform="translate(1170.263672 0)"/>
    <use xlink:href="#DejaVuSans-73" transform="translate(1202.050781 0)"/>
    <use xlink:href="#DejaVuSans-69" transform="translate(1254.150391 0)"/>
    <use xlink:href="#DejaVuSans-6e" transform="translate(1281.933594 0)"/>
    <use xlink:href="#DejaVuSans-74" transform="translate(1345.3125 0)"/>
    <use xlink:href="#DejaVuSans-65" transform="translate(1384.521484 0)"/>
    <use xlink:href="#DejaVuSans-74" transform="translate(1446.044922 0)"/>
    <use xlink:href="#DejaVuSans-69" transform="translate(1485.253906 0)"/>
    <use xlink:href="#DejaVuSans-63" transform="translate(1513.037109 0)"/>
    <use xlink:href="#DejaVuSans-69" transform="translate(1568.017578 0)"/>
    <use xlink:href="#DejaVuSans-20" transform="translate(1595.800781 0)"/>
    <use xlink:href="#DejaVuSans-64" transform="translate(1627.587891 0)"/>
    <use xlink:href="#DejaVuSans-65" transform="translate(1691.064453 0)"/>
    <use xlink:href="#DejaVuSans-74" transform="translate(1752.587891 0)"/>
    <use xlink:href="#DejaVuSans-65" transform="translate(1791.796875 0)"/>
    <use xlink:href="#DejaVuSans-72" transform="translate(1853.320312 0)"/>
    <use xlink:href="#DejaVuSans-6d" transform="translate(1892.683594 0)"/>
    <use xlink:href="#DejaVuSans-69" transform="translate(1990.095703 0)"/>
    <use xlink:href="#DejaVuSans-6e" transform="translate(2017.878906 0)"/>
    <use xlink:href="#DejaVuSans-69" transform="translate(2081.257812 0)"/>
    <use xlink:href="#DejaVuSans-73" transform="translate(2109.041016 0)"/>
    <use xlink:href="#DejaVuSans-74" transform="translate(2161.140625 0)"/>
    <use xlink:href="#DejaVuSans-69" transform="translate(2200.349609 0)"/>
    <use xlink:href="#DejaVuSans-63" transform="translate(2228.132812 0)"/>
    <use xlink:href="#DejaVuSans-69" transform="translate(2283.113281 0)"/>
    <use xlink:href="#DejaVuSans-20" transform="translate(2310.896484 0)"/>
    <use xlink:href="#DejaVuSans-63" transform="translate(2342.683594 0)"/>
    <use xlink:href="#DejaVuSans-6f" transform="translate(2397.664062 0)"/>
    <use xlink:href="#DejaVuSans-73" transform="translate(2458.845703 0)"/>
    <use xlink:href="#DejaVuSans-74" transform="translate(2510.945312 0)"/>
    <use xlink:href="#DejaVuSans-72" transform="translate(2550.154297 0)"/>
    <use xlink:href="#DejaVuSans-75" transform="translate(2591.267578 0)"/>
    <use xlink:href="#DejaVuSans-69" transform="translate(2654.646484 0)"/>
    <use xlink:href="#DejaVuSans-74" transform="translate(2682.429688 0)"/>
    <use xlink:href="#DejaVuSans-69" transform="translate(2721.638672 0)"/>
    <use xlink:href="#DejaVuSans-20" transform="translate(2749.421875 0)"/>
    <use xlink:href="#DejaVuSans-70" transform="translate(2781.208984 0)"/>
    <use xlink:href="#DejaVuSans-65" transform="translate(2844.685547 0)"/>
    <use xlink:href="#DejaVuSans-72" transform="translate(2906.208984 0)"/>
    <use xlink:href="#DejaVuSans-20" transform="translate(2947.322266 0)"/>
    <use xlink:href="#DejaVuSans-6d" transform="translate(2979.109375 0)"/>
    <use xlink:href="#DejaVuSans-6f" transform="translate(3076.521484 0)"/>
    <use xlink:href="#DejaVuSans-73" transform="translate(3137.703125 0)"/>
    <use xlink:href="#DejaVuSans-74" transform="translate(3189.802734 0)"/>
    <use xlink:href="#DejaVuSans-72" transform="translate(3229.011719 0)"/>
    <use xlink:href="#DejaVuSans-61" transform="translate(3270.125 0)"/>
    <use xlink:href="#DejaVuSans-72" transform="translate(3331.404297 0)"/>
    <use xlink:href="#DejaVuSans-65" transform="translate(3370.267578 0)"/>
    <use xlink:href="#DejaVuSans-20" transform="translate(3431.791016 0)"/>
    <use xlink:href="#DejaVuSans-69" transform="translate(3463.578125 0)"/>
    <use xlink:href="#DejaVuSans-6c" transform="translate(3491.361328 0)"/>
    <use xlink:href="#DejaVuSans-20" transform="translate(3519.144531 0)"/>
    <use xlink:href="#DejaVuSans-70" transform="translate(3550.931641 0)"/>
    <use xlink:href="#DejaVuSans-69" transform="translate(3614.408203 0)"/>
    <use xlink:href="#DejaVuSans-63" transform="translate(3642.191406 0)"/>
    <use xlink:href="#DejaVuSans-63" transform="translate(3697.171875 0)"/>
    <use xlink:href="#DejaVuSans-6f" transform="translate(3752.152344 0)"/>
    <use xlink:href="#DejaVuSans-20" transform="translate(3813.333984 0)"/>
    <use xlink:href="#DejaVuSans-63" transform="translate(3845.121094 0)"/>
    <use xlink:href="#DejaVuSans-72" transform="translate(3900.101562 0)"/>
    <use xlink:href="#DejaVuSans-69" transform="translate(3941.214844 0)"/>
    <use xlink:href="#DejaVuSans-6f" transform="translate(3968.998047 0)"/>
    <use xlink:href="#DejaVuSans-67" transform="translate(4030.179688 0)"/>
    <use xlink:href="#DejaVuSans-65" transform="translate(4093.65625 0)"/>
    <use xlink:href="#DejaVuSans-6e" transform="translate(4155.179688 0)"/>
    <use xlink:href="#DejaVuSans-69" transform="translate(4218.558594 0)"/>
    <use xlink:href="#DejaVuSans-63" transform="translate(4246.341797 0)"/>
    <use xlink:href="#DejaVuSans-6f" transform="translate(4301.322266 0)"/>
    <use xlink:href="#DejaVuSans-20" transform="translate(4362.503906 0)"/>
    <use xlink:href="#DejaVuSans-65" transform="translate(4394.291016 0)"/>
    <use xlink:href="#DejaVuSans-20" transform="translate(4455.814453 0)"/>
    <use xlink:href="#DejaVuSans-6c" transform="translate(4487.601562 0)"/>
    <use xlink:href="#DejaVuSans-61" transform="translate(4515.384766 0)"/>
    <use xlink:href="#DejaVuSans-20" transform="translate(4576.664062 0)"/>
    <use xlink:href="#DejaVuSans-73" transform="translate(4608.451172 0)"/>
    <use xlink:href="#DejaVuSans-75" transform="translate(4660.550781 0)"/>
    <use xlink:href="#DejaVuSans-63" transform="translate(4723.929688 0)"/>
    <use xlink:href="#DejaVuSans-63" transform="translate(4778.910156 0)"/>
    <use xlink:href="#DejaVuSans-65" transform="translate(4833.890625 0)"/>
    <use xlink:href="#DejaVuSans-73" transform="translate(4895.414062 0)"/>
    <use xlink:href="#DejaVuSans-73" transform="translate(4947.513672 0)"/>
    <use xlink:href="#DejaVuSans-69" transform="translate(4999.613281 0)"/>
    <use xlink:href="#DejaVuSans-76" transform="translate(5027.396484 0)"/>
    <use xlink:href="#DejaVuSans-61" transform="translate(5086.576172 0)"/>
    <use xlink:href="#DejaVuSans-20" transform="translate(5147.855469 0)"/>
    <use xlink:href="#DejaVuSans-64" transform="translate(5179.642578 0)"/>
    <use xlink:href="#DejaVuSans-69" transform="translate(5243.119141 0)"/>
    <use xlink:href="#DejaVuSans-6d" transform="translate(5270.902344 0)"/>
    <use xlink:href="#DejaVuSans-69" transform="translate(5368.314453 0)"/>
    <use xlink:href="#DejaVuSans-6e" transform="translate(5396.097656 0)"/>
    <use xlink:href="#DejaVuSans-75" transform="translate(5459.476562 0)"/>
    <use xlink:href="#DejaVuSans-7a" transform="translate(5522.855469 0)"/>
    <use xlink:href="#DejaVuSans-69" transform="translate(5575.345703 0)"/>
    <use xlink:href="#DejaVuSans-6f" transform="translate(5603.128906 0)"/>
    <use xlink:href="#DejaVuSans-6e" transform="translate(5664.310547 0)"/>
    <use xlink:href="#DejaVuSans-65" transform="translate(5727.689453 0)"/>
    <use xlink:href="#DejaVuSans-20" transform="translate(5789.212891 0)"/>
    <use xlink:href="#DejaVuSans-64" transform="translate(5821 0)"/>
    <use xlink:href="#DejaVuSans-6f" transform="translate(5884.476562 0)"/>
    <use xlink:href="#DejaVuSans-6d" transform="translate(5945.658203 0)"/>
    <use xlink:href="#DejaVuSans-69" transform="translate(6043.070312 0)"/>
    <use xlink:href="#DejaVuSans-6e" transform="translate(6070.853516 0)"/>
    <use xlink:href="#DejaVuSans-61" transform="translate(6134.232422 0)"/>
    <use xlink:href="#DejaVuSans-74" transform="translate(6195.511719 0)"/>
    <use xlink:href="#DejaVuSans-61" transform="translate(6234.720703 0)"/>
    <use xlink:href="#DejaVuSans-20" transform="translate(6296 0)"/>
    <use xlink:href="#DejaVuSans-64" transform="translate(6327.787109 0)"/>
    <use xlink:href="#DejaVuSans-61" transform="translate(6391.263672 0)"/>
    <use xlink:href="#DejaVuSans-6c" transform="translate(6452.542969 0)"/>
    <use xlink:href="#DejaVuSans-6c" transform="translate(6480.326172 0)"/>
    <use xlink:href="#DejaVuSans-6f" transform="translate(6508.109375 0)"/>
    <use xlink:href="#DejaVuSans-20" transform="translate(6569.291016 0)"/>
    <use xlink:href="#DejaVuSans-73" transform="translate(6601.078125 0)"/>
    <use xlink:href="#DejaVuSans-63" transform="translate(6653.177734 0)"/>
    <use xlink:href="#DejaVuSans-61" transform="translate(6708.158203 0)"/>
    <use xlink:href="#DejaVuSans-74" transform="translate(6769.4375 0)"/>
    <use xlink:href="#DejaVuSans-74" transform="translate(6808.646484 0)"/>
    <use xlink:href="#DejaVuSans-65" transform="translate(6847.855469 0)"/>
    <use xlink:href="#DejaVuSans-72" transform="translate(6909.378906 0)"/>
    <use xlink:href="#DejaVuSans-69" transform="translate(6950.492188 0)"/>
    <use xlink:href="#DejaVuSans-6e" transform="translate(6978.275391 0)"/>
    <use xlink:href="#DejaVuSans-67" transform="translate(7041.654297 0)"/>
    <use xlink:href="#DejaVuSans-20" transform="translate(7105.130859 0)"/>
    <use xlink:href="#DejaVuSans-66" transform="translate(7136.917969 0)"/>
    <use xlink:href="#DejaVuSans-6f" transform="translate(7172.123047 0)"/>
    <use xlink:href="#DejaVuSans-6e" transform="translate(7233.304688 0)"/>
    <use xlink:href="#DejaVuSans-6f" transform="translate(7296.683594 0)"/>
    <use xlink:href="#DejaVuSans-6e" transform="translate(7357.865234 0)"/>
    <use xlink:href="#DejaVuSans-65" transform="translate(7421.244141 0)"/>
    <use xlink:href="#DejaVuSans-2013" transform="translate(7482.767578 0)"/>
    <use xlink:href="#DejaVuSans-66" transform="translate(7532.767578 0)"/>
    <use xlink:href="#DejaVuSans-6f" transform="translate(7567.972656 0)"/>
    <use xlink:href="#DejaVuSans-6e" transform="translate(7629.154297 0)"/>
    <use xlink:href="#DejaVuSans-6f" transform="translate(7692.533203 0)"/>
    <use xlink:href="#DejaVuSans-6e" transform="translate(7753.714844 0)"/>
    <use xlink:href="#DejaVuSans-65" transform="translate(7817.09375 0)"/>
    <use xlink:href="#DejaVuSans-2e" transform="translate(7878.617188 0)"/>
   </g>
  </g>
 </g>
 <defs>
  <clipPath id="pa762cfa4e8">
   <rect x="119.215625" y="30.597656" width="585.9" height="388.08"/>
  </clipPath>
 </defs>
</svg>
