<?xml version="1.0" encoding="utf-8" standalone="no"?>
<!DOCTYPE svg PUBLIC "-//W3C//DTD SVG 1.1//EN"
  "http://www.w3.org/Graphics/SVG/1.1/DTD/svg11.dtd">
<svg xmlns:xlink="http://www.w3.org/1999/xlink" width="808.722187pt" height="484.047687pt" viewBox="0 0 808.722187 484.047687" xmlns="http://www.w3.org/2000/svg" version="1.1">
 <metadata>
  <rdf:RDF xmlns:dc="http://purl.org/dc/elements/1.1/" xmlns:cc="http://creativecommons.org/ns#" xmlns:rdf="http://www.w3.org/1999/02/22-rdf-syntax-ns#">
   <cc:Work>
    <dc:type rdf:resource="http://purl.org/dc/dcmitype/StillImage"/>
    <dc:date>2026-06-16T12:32:34.560898</dc:date>
    <dc:format>image/svg+xml</dc:format>
    <dc:creator>
     <cc:Agent>
      <dc:title>Matplotlib v3.10.8, https://matplotlib.org/</dc:title>
     </cc:Agent>
    </dc:creator>
   </cc:Work>
  </rdf:RDF>
 </metadata>
 <defs>
  <style type="text/css">*{stroke-linejoin: round; stroke-linecap: butt}</style>
 </defs>
 <g id="figure_1">
  <g id="patch_1">
   <path d="M 0 484.047687 
L 808.722187 484.047687 
L 808.722187 0 
L 0 0 
z
" style="fill: #ffffff"/>
  </g>
  <g id="axes_1">
   <g id="patch_2">
    <path d="M 42.642188 433.152 
L 387.587642 433.152 
L 387.587642 56.16 
L 42.642188 56.16 
z
" style="fill: #ffffff"/>
   </g>
   <g id="patch_3">
    <path d="M 42.642188 305.393869 
L 387.587642 305.393869 
L 387.587642 172.049905 
L 42.642188 172.049905 
z
" clip-path="url(#p17869573ac)" style="fill: #1f77b4; opacity: 0.08"/>
   </g>
   <g id="matplotlib.axis_1">
    <g id="xtick_1">
     <g id="line2d_1">
      <path d="M 50.855175 433.152 
L 50.855175 56.16 
" clip-path="url(#p17869573ac)" style="fill: none; stroke: #b0b0b0; stroke-opacity: 0.14; stroke-width: 0.8; stroke-linecap: square"/>
     </g>
     <g id="line2d_2">
      <defs>
       <path id="m0e4bd2b98f" d="M 0 0 
L 0 3.5 
" style="stroke: #000000; stroke-width: 0.8"/>
      </defs>
      <g>
       <use xlink:href="#m0e4bd2b98f" x="50.855175" y="433.152" style="stroke: #000000; stroke-width: 0.8"/>
      </g>
     </g>
     <g id="text_1">
      <!-- $-\pi/a$ -->
      <g transform="translate(38.905175 447.750437) scale(0.1 -0.1)">
       <defs>
        <path id="DejaVuSans-2212" d="M 678 2272 
L 4684 2272 
L 4684 1741 
L 678 1741 
L 678 2272 
z
" transform="scale(0.015625)"/>
        <path id="DejaVuSans-Oblique-3c0" d="M 584 3500 
L 3938 3500 
L 3825 2925 
L 3384 2925 
L 2966 775 
Q 2922 550 2981 450 
Q 3038 353 3209 353 
Q 3256 353 3325 363 
Q 3397 369 3419 372 
L 3338 -44 
Q 3222 -84 3103 -103 
Q 2981 -122 2866 -122 
Q 2491 -122 2388 81 
Q 2284 288 2391 838 
L 2797 2925 
L 1506 2925 
L 938 0 
L 350 0 
L 919 2925 
L 472 2925 
L 584 3500 
z
" transform="scale(0.015625)"/>
        <path id="DejaVuSans-2f" d="M 1625 4666 
L 2156 4666 
L 531 -594 
L 0 -594 
L 1625 4666 
z
" transform="scale(0.015625)"/>
        <path id="DejaVuSans-Oblique-61" d="M 3438 1997 
L 3047 0 
L 2472 0 
L 2578 531 
Q 2325 219 2001 64 
Q 1678 -91 1281 -91 
Q 834 -91 548 182 
Q 263 456 263 884 
Q 263 1497 752 1853 
Q 1241 2209 2100 2209 
L 2900 2209 
L 2931 2363 
Q 2938 2388 2941 2417 
Q 2944 2447 2944 2509 
Q 2944 2788 2717 2942 
Q 2491 3097 2081 3097 
Q 1800 3097 1504 3025 
Q 1209 2953 897 2809 
L 997 3341 
Q 1322 3463 1633 3523 
Q 1944 3584 2234 3584 
Q 2853 3584 3176 3315 
Q 3500 3047 3500 2534 
Q 3500 2431 3484 2292 
Q 3469 2153 3438 1997 
z
M 2816 1759 
L 2241 1759 
Q 1534 1759 1195 1570 
Q 856 1381 856 984 
Q 856 709 1029 553 
Q 1203 397 1509 397 
Q 1978 397 2328 733 
Q 2678 1069 2791 1631 
L 2816 1759 
z
" transform="scale(0.015625)"/>
       </defs>
       <use xlink:href="#DejaVuSans-2212" transform="translate(0 0.09375)"/>
       <use xlink:href="#DejaVuSans-Oblique-3c0" transform="translate(83.789062 0.09375)"/>
       <use xlink:href="#DejaVuSans-2f" transform="translate(143.994141 0.09375)"/>
       <use xlink:href="#DejaVuSans-Oblique-61" transform="translate(177.685547 0.09375)"/>
      </g>
     </g>
    </g>
    <g id="xtick_2">
     <g id="line2d_3">
      <path d="M 215.114915 433.152 
L 215.114915 56.16 
" clip-path="url(#p17869573ac)" style="fill: none; stroke: #b0b0b0; stroke-opacity: 0.14; stroke-width: 0.8; stroke-linecap: square"/>
     </g>
     <g id="line2d_4">
      <g>
       <use xlink:href="#m0e4bd2b98f" x="215.114915" y="433.152" style="stroke: #000000; stroke-width: 0.8"/>
      </g>
     </g>
     <g id="text_2">
      <!-- $0$ -->
      <g transform="translate(211.914915 447.750437) scale(0.1 -0.1)">
       <defs>
        <path id="DejaVuSans-30" d="M 2034 4250 
Q 1547 4250 1301 3770 
Q 1056 3291 1056 2328 
Q 1056 1369 1301 889 
Q 1547 409 2034 409 
Q 2525 409 2770 889 
Q 3016 1369 3016 2328 
Q 3016 3291 2770 3770 
Q 2525 4250 2034 4250 
z
M 2034 4750 
Q 2819 4750 3233 4129 
Q 3647 3509 3647 2328 
Q 3647 1150 3233 529 
Q 2819 -91 2034 -91 
Q 1250 -91 836 529 
Q 422 1150 422 2328 
Q 422 3509 836 4129 
Q 1250 4750 2034 4750 
z
" transform="scale(0.015625)"/>
       </defs>
       <use xlink:href="#DejaVuSans-30" transform="translate(0 0.78125)"/>
      </g>
     </g>
    </g>
    <g id="xtick_3">
     <g id="line2d_5">
      <path d="M 379.374655 433.152 
L 379.374655 56.16 
" clip-path="url(#p17869573ac)" style="fill: none; stroke: #b0b0b0; stroke-opacity: 0.14; stroke-width: 0.8; stroke-linecap: square"/>
     </g>
     <g id="line2d_6">
      <g>
       <use xlink:href="#m0e4bd2b98f" x="379.374655" y="433.152" style="stroke: #000000; stroke-width: 0.8"/>
      </g>
     </g>
     <g id="text_3">
      <!-- $+\pi/a$ -->
      <g transform="translate(367.424655 447.750437) scale(0.1 -0.1)">
       <defs>
        <path id="DejaVuSans-2b" d="M 2944 4013 
L 2944 2272 
L 4684 2272 
L 4684 1741 
L 2944 1741 
L 2944 0 
L 2419 0 
L 2419 1741 
L 678 1741 
L 678 2272 
L 2419 2272 
L 2419 4013 
L 2944 4013 
z
" transform="scale(0.015625)"/>
       </defs>
       <use xlink:href="#DejaVuSans-2b" transform="translate(0 0.09375)"/>
       <use xlink:href="#DejaVuSans-Oblique-3c0" transform="translate(83.789062 0.09375)"/>
       <use xlink:href="#DejaVuSans-2f" transform="translate(143.994141 0.09375)"/>
       <use xlink:href="#DejaVuSans-Oblique-61" transform="translate(177.685547 0.09375)"/>
      </g>
     </g>
    </g>
    <g id="text_4">
     <!-- vettore d'onda $k$ -->
     <g transform="translate(173.864915 461.428562) scale(0.1 -0.1)">
      <defs>
       <path id="DejaVuSans-76" d="M 191 3500 
L 800 3500 
L 1894 563 
L 2988 3500 
L 3597 3500 
L 2284 0 
L 1503 0 
L 191 3500 
z
" transform="scale(0.015625)"/>
       <path id="DejaVuSans-65" d="M 3597 1894 
L 3597 1613 
L 953 1613 
Q 991 1019 1311 708 
Q 1631 397 2203 397 
Q 2534 397 2845 478 
Q 3156 559 3463 722 
L 3463 178 
Q 3153 47 2828 -22 
Q 2503 -91 2169 -91 
Q 1331 -91 842 396 
Q 353 884 353 1716 
Q 353 2575 817 3079 
Q 1281 3584 2069 3584 
Q 2775 3584 3186 3129 
Q 3597 2675 3597 1894 
z
M 3022 2063 
Q 3016 2534 2758 2815 
Q 2500 3097 2075 3097 
Q 1594 3097 1305 2825 
Q 1016 2553 972 2059 
L 3022 2063 
z
" transform="scale(0.015625)"/>
       <path id="DejaVuSans-74" d="M 1172 4494 
L 1172 3500 
L 2356 3500 
L 2356 3053 
L 1172 3053 
L 1172 1153 
Q 1172 725 1289 603 
Q 1406 481 1766 481 
L 2356 481 
L 2356 0 
L 1766 0 
Q 1100 0 847 248 
Q 594 497 594 1153 
L 594 3053 
L 172 3053 
L 172 3500 
L 594 3500 
L 594 4494 
L 1172 4494 
z
" transform="scale(0.015625)"/>
       <path id="DejaVuSans-6f" d="M 1959 3097 
Q 1497 3097 1228 2736 
Q 959 2375 959 1747 
Q 959 1119 1226 758 
Q 1494 397 1959 397 
Q 2419 397 2687 759 
Q 2956 1122 2956 1747 
Q 2956 2369 2687 2733 
Q 2419 3097 1959 3097 
z
M 1959 3584 
Q 2709 3584 3137 3096 
Q 3566 2609 3566 1747 
Q 3566 888 3137 398 
Q 2709 -91 1959 -91 
Q 1206 -91 779 398 
Q 353 888 353 1747 
Q 353 2609 779 3096 
Q 1206 3584 1959 3584 
z
" transform="scale(0.015625)"/>
       <path id="DejaVuSans-72" d="M 2631 2963 
Q 2534 3019 2420 3045 
Q 2306 3072 2169 3072 
Q 1681 3072 1420 2755 
Q 1159 2438 1159 1844 
L 1159 0 
L 581 0 
L 581 3500 
L 1159 3500 
L 1159 2956 
Q 1341 3275 1631 3429 
Q 1922 3584 2338 3584 
Q 2397 3584 2469 3576 
Q 2541 3569 2628 3553 
L 2631 2963 
z
" transform="scale(0.015625)"/>
       <path id="DejaVuSans-20" transform="scale(0.015625)"/>
       <path id="DejaVuSans-64" d="M 2906 2969 
L 2906 4863 
L 3481 4863 
L 3481 0 
L 2906 0 
L 2906 525 
Q 2725 213 2448 61 
Q 2172 -91 1784 -91 
Q 1150 -91 751 415 
Q 353 922 353 1747 
Q 353 2572 751 3078 
Q 1150 3584 1784 3584 
Q 2172 3584 2448 3432 
Q 2725 3281 2906 2969 
z
M 947 1747 
Q 947 1113 1208 752 
Q 1469 391 1925 391 
Q 2381 391 2643 752 
Q 2906 1113 2906 1747 
Q 2906 2381 2643 2742 
Q 2381 3103 1925 3103 
Q 1469 3103 1208 2742 
Q 947 2381 947 1747 
z
" transform="scale(0.015625)"/>
       <path id="DejaVuSans-27" d="M 1147 4666 
L 1147 2931 
L 616 2931 
L 616 4666 
L 1147 4666 
z
" transform="scale(0.015625)"/>
       <path id="DejaVuSans-6e" d="M 3513 2113 
L 3513 0 
L 2938 0 
L 2938 2094 
Q 2938 2591 2744 2837 
Q 2550 3084 2163 3084 
Q 1697 3084 1428 2787 
Q 1159 2491 1159 1978 
L 1159 0 
L 581 0 
L 581 3500 
L 1159 3500 
L 1159 2956 
Q 1366 3272 1645 3428 
Q 1925 3584 2291 3584 
Q 2894 3584 3203 3211 
Q 3513 2838 3513 2113 
z
" transform="scale(0.015625)"/>
       <path id="DejaVuSans-61" d="M 2194 1759 
Q 1497 1759 1228 1600 
Q 959 1441 959 1056 
Q 959 750 1161 570 
Q 1363 391 1709 391 
Q 2188 391 2477 730 
Q 2766 1069 2766 1631 
L 2766 1759 
L 2194 1759 
z
M 3341 1997 
L 3341 0 
L 2766 0 
L 2766 531 
Q 2569 213 2275 61 
Q 1981 -91 1556 -91 
Q 1019 -91 701 211 
Q 384 513 384 1019 
Q 384 1609 779 1909 
Q 1175 2209 1959 2209 
L 2766 2209 
L 2766 2266 
Q 2766 2663 2505 2880 
Q 2244 3097 1772 3097 
Q 1472 3097 1187 3025 
Q 903 2953 641 2809 
L 641 3341 
Q 956 3463 1253 3523 
Q 1550 3584 1831 3584 
Q 2591 3584 2966 3190 
Q 3341 2797 3341 1997 
z
" transform="scale(0.015625)"/>
       <path id="DejaVuSans-Oblique-6b" d="M 1172 4863 
L 1747 4863 
L 1197 2028 
L 3169 3500 
L 3916 3500 
L 1716 1825 
L 3322 0 
L 2625 0 
L 1131 1709 
L 800 0 
L 225 0 
L 1172 4863 
z
" transform="scale(0.015625)"/>
      </defs>
      <use xlink:href="#DejaVuSans-76" transform="translate(0 0.015625)"/>
      <use xlink:href="#DejaVuSans-65" transform="translate(59.179688 0.015625)"/>
      <use xlink:href="#DejaVuSans-74" transform="translate(120.703125 0.015625)"/>
      <use xlink:href="#DejaVuSans-74" transform="translate(159.912109 0.015625)"/>
      <use xlink:href="#DejaVuSans-6f" transform="translate(199.121094 0.015625)"/>
      <use xlink:href="#DejaVuSans-72" transform="translate(260.302734 0.015625)"/>
      <use xlink:href="#DejaVuSans-65" transform="translate(301.416016 0.015625)"/>
      <use xlink:href="#DejaVuSans-20" transform="translate(362.939453 0.015625)"/>
      <use xlink:href="#DejaVuSans-64" transform="translate(394.726562 0.015625)"/>
      <use xlink:href="#DejaVuSans-27" transform="translate(458.203125 0.015625)"/>
      <use xlink:href="#DejaVuSans-6f" transform="translate(485.693359 0.015625)"/>
      <use xlink:href="#DejaVuSans-6e" transform="translate(546.875 0.015625)"/>
      <use xlink:href="#DejaVuSans-64" transform="translate(610.253906 0.015625)"/>
      <use xlink:href="#DejaVuSans-61" transform="translate(673.730469 0.015625)"/>
      <use xlink:href="#DejaVuSans-20" transform="translate(735.009766 0.015625)"/>
      <use xlink:href="#DejaVuSans-Oblique-6b" transform="translate(766.796875 0.015625)"/>
     </g>
    </g>
   </g>
   <g id="matplotlib.axis_2">
    <g id="ytick_1">
     <g id="line2d_7">
      <path d="M 42.642188 384.282667 
L 387.587642 384.282667 
" clip-path="url(#p17869573ac)" style="fill: none; stroke: #b0b0b0; stroke-opacity: 0.14; stroke-width: 0.8; stroke-linecap: square"/>
     </g>
     <g id="line2d_8">
      <defs>
       <path id="m7072a77b50" d="M 0 0 
L -3.5 0 
" style="stroke: #000000; stroke-width: 0.8"/>
      </defs>
      <g>
       <use xlink:href="#m7072a77b50" x="42.642188" y="384.282667" style="stroke: #000000; stroke-width: 0.8"/>
      </g>
     </g>
     <g id="text_5">
      <!-- −2 -->
      <g transform="translate(20.9 388.081885) scale(0.1 -0.1)">
       <defs>
        <path id="DejaVuSans-32" d="M 1228 531 
L 3431 531 
L 3431 0 
L 469 0 
L 469 531 
Q 828 903 1448 1529 
Q 2069 2156 2228 2338 
Q 2531 2678 2651 2914 
Q 2772 3150 2772 3378 
Q 2772 3750 2511 3984 
Q 2250 4219 1831 4219 
Q 1534 4219 1204 4116 
Q 875 4013 500 3803 
L 500 4441 
Q 881 4594 1212 4672 
Q 1544 4750 1819 4750 
Q 2544 4750 2975 4387 
Q 3406 4025 3406 3419 
Q 3406 3131 3298 2873 
Q 3191 2616 2906 2266 
Q 2828 2175 2409 1742 
Q 1991 1309 1228 531 
z
" transform="scale(0.015625)"/>
       </defs>
       <use xlink:href="#DejaVuSans-2212"/>
       <use xlink:href="#DejaVuSans-32" transform="translate(83.789062 0)"/>
      </g>
     </g>
    </g>
    <g id="ytick_2">
     <g id="line2d_9">
      <path d="M 42.642188 314.469333 
L 387.587642 314.469333 
" clip-path="url(#p17869573ac)" style="fill: none; stroke: #b0b0b0; stroke-opacity: 0.14; stroke-width: 0.8; stroke-linecap: square"/>
     </g>
     <g id="line2d_10">
      <g>
       <use xlink:href="#m7072a77b50" x="42.642188" y="314.469333" style="stroke: #000000; stroke-width: 0.8"/>
      </g>
     </g>
     <g id="text_6">
      <!-- −1 -->
      <g transform="translate(20.9 318.268552) scale(0.1 -0.1)">
       <defs>
        <path id="DejaVuSans-31" d="M 794 531 
L 1825 531 
L 1825 4091 
L 703 3866 
L 703 4441 
L 1819 4666 
L 2450 4666 
L 2450 531 
L 3481 531 
L 3481 0 
L 794 0 
L 794 531 
z
" transform="scale(0.015625)"/>
       </defs>
       <use xlink:href="#DejaVuSans-2212"/>
       <use xlink:href="#DejaVuSans-31" transform="translate(83.789062 0)"/>
      </g>
     </g>
    </g>
    <g id="ytick_3">
     <g id="line2d_11">
      <path d="M 42.642188 244.656 
L 387.587642 244.656 
" clip-path="url(#p17869573ac)" style="fill: none; stroke: #b0b0b0; stroke-opacity: 0.14; stroke-width: 0.8; stroke-linecap: square"/>
     </g>
     <g id="line2d_12">
      <g>
       <use xlink:href="#m7072a77b50" x="42.642188" y="244.656" style="stroke: #000000; stroke-width: 0.8"/>
      </g>
     </g>
     <g id="text_7">
      <!-- 0 -->
      <g transform="translate(29.279688 248.455219) scale(0.1 -0.1)">
       <use xlink:href="#DejaVuSans-30"/>
      </g>
     </g>
    </g>
    <g id="ytick_4">
     <g id="line2d_13">
      <path d="M 42.642188 174.842667 
L 387.587642 174.842667 
" clip-path="url(#p17869573ac)" style="fill: none; stroke: #b0b0b0; stroke-opacity: 0.14; stroke-width: 0.8; stroke-linecap: square"/>
     </g>
     <g id="line2d_14">
      <g>
       <use xlink:href="#m7072a77b50" x="42.642188" y="174.842667" style="stroke: #000000; stroke-width: 0.8"/>
      </g>
     </g>
     <g id="text_8">
      <!-- 1 -->
      <g transform="translate(29.279688 178.641885) scale(0.1 -0.1)">
       <use xlink:href="#DejaVuSans-31"/>
      </g>
     </g>
    </g>
    <g id="ytick_5">
     <g id="line2d_15">
      <path d="M 42.642188 105.029333 
L 387.587642 105.029333 
" clip-path="url(#p17869573ac)" style="fill: none; stroke: #b0b0b0; stroke-opacity: 0.14; stroke-width: 0.8; stroke-linecap: square"/>
     </g>
     <g id="line2d_16">
      <g>
       <use xlink:href="#m7072a77b50" x="42.642188" y="105.029333" style="stroke: #000000; stroke-width: 0.8"/>
      </g>
     </g>
     <g id="text_9">
      <!-- 2 -->
      <g transform="translate(29.279688 108.828552) scale(0.1 -0.1)">
       <use xlink:href="#DejaVuSans-32"/>
      </g>
     </g>
    </g>
    <g id="text_10">
     <!-- energia $E(k)$ -->
     <g transform="translate(14.8 275.206) rotate(-90) scale(0.1 -0.1)">
      <defs>
       <path id="DejaVuSans-67" d="M 2906 1791 
Q 2906 2416 2648 2759 
Q 2391 3103 1925 3103 
Q 1463 3103 1205 2759 
Q 947 2416 947 1791 
Q 947 1169 1205 825 
Q 1463 481 1925 481 
Q 2391 481 2648 825 
Q 2906 1169 2906 1791 
z
M 3481 434 
Q 3481 -459 3084 -895 
Q 2688 -1331 1869 -1331 
Q 1566 -1331 1297 -1286 
Q 1028 -1241 775 -1147 
L 775 -588 
Q 1028 -725 1275 -790 
Q 1522 -856 1778 -856 
Q 2344 -856 2625 -561 
Q 2906 -266 2906 331 
L 2906 616 
Q 2728 306 2450 153 
Q 2172 0 1784 0 
Q 1141 0 747 490 
Q 353 981 353 1791 
Q 353 2603 747 3093 
Q 1141 3584 1784 3584 
Q 2172 3584 2450 3431 
Q 2728 3278 2906 2969 
L 2906 3500 
L 3481 3500 
L 3481 434 
z
" transform="scale(0.015625)"/>
       <path id="DejaVuSans-69" d="M 603 3500 
L 1178 3500 
L 1178 0 
L 603 0 
L 603 3500 
z
M 603 4863 
L 1178 4863 
L 1178 4134 
L 603 4134 
L 603 4863 
z
" transform="scale(0.015625)"/>
       <path id="DejaVuSans-Oblique-45" d="M 1081 4666 
L 4031 4666 
L 3928 4134 
L 1606 4134 
L 1338 2753 
L 3566 2753 
L 3463 2222 
L 1234 2222 
L 909 531 
L 3284 531 
L 3181 0 
L 172 0 
L 1081 4666 
z
" transform="scale(0.015625)"/>
       <path id="DejaVuSans-28" d="M 1984 4856 
Q 1566 4138 1362 3434 
Q 1159 2731 1159 2009 
Q 1159 1288 1364 580 
Q 1569 -128 1984 -844 
L 1484 -844 
Q 1016 -109 783 600 
Q 550 1309 550 2009 
Q 550 2706 781 3412 
Q 1013 4119 1484 4856 
L 1984 4856 
z
" transform="scale(0.015625)"/>
       <path id="DejaVuSans-29" d="M 513 4856 
L 1013 4856 
Q 1481 4119 1714 3412 
Q 1947 2706 1947 2009 
Q 1947 1309 1714 600 
Q 1481 -109 1013 -844 
L 513 -844 
Q 928 -128 1133 580 
Q 1338 1288 1338 2009 
Q 1338 2731 1133 3434 
Q 928 4138 513 4856 
z
" transform="scale(0.015625)"/>
      </defs>
      <use xlink:href="#DejaVuSans-65" transform="translate(0 0.015625)"/>
      <use xlink:href="#DejaVuSans-6e" transform="translate(61.523438 0.015625)"/>
      <use xlink:href="#DejaVuSans-65" transform="translate(124.902344 0.015625)"/>
      <use xlink:href="#DejaVuSans-72" transform="translate(186.425781 0.015625)"/>
      <use xlink:href="#DejaVuSans-67" transform="translate(227.539062 0.015625)"/>
      <use xlink:href="#DejaVuSans-69" transform="translate(291.015625 0.015625)"/>
      <use xlink:href="#DejaVuSans-61" transform="translate(318.798828 0.015625)"/>
      <use xlink:href="#DejaVuSans-20" transform="translate(380.078125 0.015625)"/>
      <use xlink:href="#DejaVuSans-Oblique-45" transform="translate(411.865234 0.015625)"/>
      <use xlink:href="#DejaVuSans-28" transform="translate(475.048828 0.015625)"/>
      <use xlink:href="#DejaVuSans-Oblique-6b" transform="translate(514.0625 0.015625)"/>
      <use xlink:href="#DejaVuSans-29" transform="translate(571.972656 0.015625)"/>
     </g>
    </g>
   </g>
   <g id="line2d_17">
    <path d="M 50.855175 79.896533 
L 54.472506 80.006762 
L 58.089838 80.336919 
L 61.707169 80.885426 
L 65.324501 81.649659 
L 68.941833 82.62596 
L 72.888013 83.927364 
L 76.834192 85.46816 
L 80.780372 87.239575 
L 85.055401 89.407127 
L 89.330429 91.818996 
L 93.934306 94.671105 
L 98.867031 97.995457 
L 104.128604 101.814931 
L 110.047874 106.401998 
L 116.62484 111.789953 
L 124.846049 118.829743 
L 152.469308 142.749256 
L 159.046275 148.000656 
L 164.636696 152.193785 
L 169.89827 155.86751 
L 174.830994 159.03758 
L 179.434871 161.731525 
L 183.709899 163.985373 
L 187.984928 165.985243 
L 191.931108 167.594268 
L 195.877288 168.966322 
L 199.823467 170.093591 
L 203.440799 170.906379 
L 207.058131 171.504182 
L 210.675462 171.884141 
L 214.292794 172.044438 
L 217.910126 171.984305 
L 221.527457 171.70403 
L 225.144789 171.204955 
L 228.76212 170.489466 
L 232.379452 169.560989 
L 236.325632 168.310437 
L 240.271812 166.818836 
L 244.217992 165.094677 
L 248.49302 162.975822 
L 252.768048 160.609734 
L 257.371925 157.803317 
L 262.30465 154.523376 
L 267.566223 150.745654 
L 273.156645 146.458104 
L 279.733611 141.118245 
L 287.625971 134.402218 
L 301.437601 122.282357 
L 312.289596 112.897235 
L 319.524259 106.928247 
L 325.772377 102.06218 
L 331.362799 97.995457 
L 336.295524 94.671105 
L 340.899401 91.818996 
L 345.503277 89.231523 
L 349.778305 87.083386 
L 354.053334 85.195092 
L 357.999514 83.693622 
L 361.945694 82.432874 
L 365.891874 81.420028 
L 369.509205 80.71431 
L 373.126537 80.225136 
L 376.743868 79.954847 
L 379.374655 79.896533 
L 379.374655 79.896533 
" clip-path="url(#p17869573ac)" style="fill: none; stroke: #1f77b4; stroke-width: 2.5; stroke-linecap: square"/>
   </g>
   <g id="line2d_18">
    <path d="M 50.855175 414.3024 
L 54.143658 414.194732 
L 57.432141 413.872152 
L 60.720624 413.335937 
L 64.009108 412.588206 
L 67.626439 411.524957 
L 71.243771 410.214456 
L 74.861103 408.662975 
L 78.478434 406.877936 
L 82.424614 404.674314 
L 86.370794 402.21547 
L 90.645822 399.279982 
L 94.920851 396.08103 
L 99.524727 392.365913 
L 104.457452 388.106636 
L 110.047874 382.97776 
L 116.295992 376.935702 
L 123.859504 369.303907 
L 137.671133 354.974055 
L 147.865432 344.55871 
L 154.771246 337.808962 
L 160.690516 332.324736 
L 165.95209 327.743606 
L 170.884815 323.742984 
L 175.488691 320.298111 
L 179.763719 317.37316 
L 183.709899 314.924681 
L 187.656079 312.731976 
L 191.602259 310.807529 
L 195.219591 309.288497 
L 198.836922 308.01137 
L 202.454254 306.982257 
L 205.742737 306.266086 
L 209.031221 305.761801 
L 212.319704 305.471398 
L 215.608187 305.396023 
L 218.896671 305.535976 
L 222.185154 305.890703 
L 225.473637 306.458802 
L 228.76212 307.238025 
L 232.379452 308.335317 
L 235.996784 309.679073 
L 239.614115 311.262866 
L 243.231447 313.079116 
L 247.177627 315.315357 
L 251.123807 317.805149 
L 255.398835 320.772072 
L 260.002712 324.258596 
L 264.606588 328.020876 
L 269.868162 332.6208 
L 275.458583 337.808962 
L 282.03555 344.230302 
L 290.256758 352.591744 
L 314.920383 377.908174 
L 321.497349 384.210545 
L 327.087771 389.268624 
L 332.349344 393.723203 
L 336.953221 397.341251 
L 341.228249 400.441307 
L 345.503277 403.270139 
L 349.449457 405.62426 
L 353.395637 407.717751 
L 357.012969 409.39762 
L 360.6303 410.840416 
L 364.247632 412.039236 
L 367.864964 412.988346 
L 371.153447 413.630636 
L 374.44193 414.060246 
L 377.730413 414.275476 
L 379.374655 414.3024 
L 379.374655 414.3024 
" clip-path="url(#p17869573ac)" style="fill: none; stroke: #ff7f0e; stroke-width: 2.5; stroke-linecap: square"/>
   </g>
   <g id="line2d_19">
    <path d="M 50.855175 433.152 
L 50.855175 56.16 
" clip-path="url(#p17869573ac)" style="fill: none; stroke-dasharray: 0.8,1.32; stroke-dashoffset: 0; stroke: #1f77b4; stroke-width: 0.8"/>
   </g>
   <g id="line2d_20">
    <path d="M 379.374655 433.152 
L 379.374655 56.16 
" clip-path="url(#p17869573ac)" style="fill: none; stroke-dasharray: 0.8,1.32; stroke-dashoffset: 0; stroke: #1f77b4; stroke-width: 0.8"/>
   </g>
   <g id="patch_4">
    <path d="M 42.642188 433.152 
L 42.642188 56.16 
" style="fill: none; stroke: #000000; stroke-width: 0.8; stroke-linejoin: miter; stroke-linecap: square"/>
   </g>
   <g id="patch_5">
    <path d="M 387.587642 433.152 
L 387.587642 56.16 
" style="fill: none; stroke: #000000; stroke-width: 0.8; stroke-linejoin: miter; stroke-linecap: square"/>
   </g>
   <g id="patch_6">
    <path d="M 42.642188 433.152 
L 387.587642 433.152 
" style="fill: none; stroke: #000000; stroke-width: 0.8; stroke-linejoin: miter; stroke-linecap: square"/>
   </g>
   <g id="patch_7">
    <path d="M 42.642188 56.16 
L 387.587642 56.16 
" style="fill: none; stroke: #000000; stroke-width: 0.8; stroke-linejoin: miter; stroke-linecap: square"/>
   </g>
   <g id="text_11">
    <!-- gap energetico -->
    <g transform="translate(224.970499 245.825952) scale(0.093 -0.093)">
     <defs>
      <path id="DejaVuSans-70" d="M 1159 525 
L 1159 -1331 
L 581 -1331 
L 581 3500 
L 1159 3500 
L 1159 2969 
Q 1341 3281 1617 3432 
Q 1894 3584 2278 3584 
Q 2916 3584 3314 3078 
Q 3713 2572 3713 1747 
Q 3713 922 3314 415 
Q 2916 -91 2278 -91 
Q 1894 -91 1617 61 
Q 1341 213 1159 525 
z
M 3116 1747 
Q 3116 2381 2855 2742 
Q 2594 3103 2138 3103 
Q 1681 3103 1420 2742 
Q 1159 2381 1159 1747 
Q 1159 1113 1420 752 
Q 1681 391 2138 391 
Q 2594 391 2855 752 
Q 3116 1113 3116 1747 
z
" transform="scale(0.015625)"/>
      <path id="DejaVuSans-63" d="M 3122 3366 
L 3122 2828 
Q 2878 2963 2633 3030 
Q 2388 3097 2138 3097 
Q 1578 3097 1268 2742 
Q 959 2388 959 1747 
Q 959 1106 1268 751 
Q 1578 397 2138 397 
Q 2388 397 2633 464 
Q 2878 531 3122 666 
L 3122 134 
Q 2881 22 2623 -34 
Q 2366 -91 2075 -91 
Q 1284 -91 818 406 
Q 353 903 353 1747 
Q 353 2603 823 3093 
Q 1294 3584 2113 3584 
Q 2378 3584 2631 3529 
Q 2884 3475 3122 3366 
z
" transform="scale(0.015625)"/>
     </defs>
     <use xlink:href="#DejaVuSans-67"/>
     <use xlink:href="#DejaVuSans-61" transform="translate(63.476562 0)"/>
     <use xlink:href="#DejaVuSans-70" transform="translate(124.755859 0)"/>
     <use xlink:href="#DejaVuSans-20" transform="translate(188.232422 0)"/>
     <use xlink:href="#DejaVuSans-65" transform="translate(220.019531 0)"/>
     <use xlink:href="#DejaVuSans-6e" transform="translate(281.542969 0)"/>
     <use xlink:href="#DejaVuSans-65" transform="translate(344.921875 0)"/>
     <use xlink:href="#DejaVuSans-72" transform="translate(406.445312 0)"/>
     <use xlink:href="#DejaVuSans-67" transform="translate(445.808594 0)"/>
     <use xlink:href="#DejaVuSans-65" transform="translate(509.285156 0)"/>
     <use xlink:href="#DejaVuSans-74" transform="translate(570.808594 0)"/>
     <use xlink:href="#DejaVuSans-69" transform="translate(610.017578 0)"/>
     <use xlink:href="#DejaVuSans-63" transform="translate(637.800781 0)"/>
     <use xlink:href="#DejaVuSans-6f" transform="translate(692.78125 0)"/>
    </g>
   </g>
   <g id="text_12">
    <!-- dispersioni tight-binding -->
    <g transform="translate(134.805384 50.16) scale(0.115 -0.115)">
     <defs>
      <path id="DejaVuSans-Bold-64" d="M 2919 2988 
L 2919 4863 
L 4044 4863 
L 4044 0 
L 2919 0 
L 2919 506 
Q 2688 197 2409 53 
Q 2131 -91 1766 -91 
Q 1119 -91 703 423 
Q 288 938 288 1747 
Q 288 2556 703 3070 
Q 1119 3584 1766 3584 
Q 2128 3584 2408 3439 
Q 2688 3294 2919 2988 
z
M 2181 722 
Q 2541 722 2730 984 
Q 2919 1247 2919 1747 
Q 2919 2247 2730 2509 
Q 2541 2772 2181 2772 
Q 1825 2772 1636 2509 
Q 1447 2247 1447 1747 
Q 1447 1247 1636 984 
Q 1825 722 2181 722 
z
" transform="scale(0.015625)"/>
      <path id="DejaVuSans-Bold-69" d="M 538 3500 
L 1656 3500 
L 1656 0 
L 538 0 
L 538 3500 
z
M 538 4863 
L 1656 4863 
L 1656 3950 
L 538 3950 
L 538 4863 
z
" transform="scale(0.015625)"/>
      <path id="DejaVuSans-Bold-73" d="M 3272 3391 
L 3272 2541 
Q 2913 2691 2578 2766 
Q 2244 2841 1947 2841 
Q 1628 2841 1473 2761 
Q 1319 2681 1319 2516 
Q 1319 2381 1436 2309 
Q 1553 2238 1856 2203 
L 2053 2175 
Q 2913 2066 3209 1816 
Q 3506 1566 3506 1031 
Q 3506 472 3093 190 
Q 2681 -91 1863 -91 
Q 1516 -91 1145 -36 
Q 775 19 384 128 
L 384 978 
Q 719 816 1070 734 
Q 1422 653 1784 653 
Q 2113 653 2278 743 
Q 2444 834 2444 1013 
Q 2444 1163 2330 1236 
Q 2216 1309 1875 1350 
L 1678 1375 
Q 931 1469 631 1722 
Q 331 1975 331 2491 
Q 331 3047 712 3315 
Q 1094 3584 1881 3584 
Q 2191 3584 2531 3537 
Q 2872 3491 3272 3391 
z
" transform="scale(0.015625)"/>
      <path id="DejaVuSans-Bold-70" d="M 1656 506 
L 1656 -1331 
L 538 -1331 
L 538 3500 
L 1656 3500 
L 1656 2988 
Q 1888 3294 2169 3439 
Q 2450 3584 2816 3584 
Q 3463 3584 3878 3070 
Q 4294 2556 4294 1747 
Q 4294 938 3878 423 
Q 3463 -91 2816 -91 
Q 2450 -91 2169 54 
Q 1888 200 1656 506 
z
M 2400 2772 
Q 2041 2772 1848 2508 
Q 1656 2244 1656 1747 
Q 1656 1250 1848 986 
Q 2041 722 2400 722 
Q 2759 722 2948 984 
Q 3138 1247 3138 1747 
Q 3138 2247 2948 2509 
Q 2759 2772 2400 2772 
z
" transform="scale(0.015625)"/>
      <path id="DejaVuSans-Bold-65" d="M 4031 1759 
L 4031 1441 
L 1416 1441 
Q 1456 1047 1700 850 
Q 1944 653 2381 653 
Q 2734 653 3104 758 
Q 3475 863 3866 1075 
L 3866 213 
Q 3469 63 3072 -14 
Q 2675 -91 2278 -91 
Q 1328 -91 801 392 
Q 275 875 275 1747 
Q 275 2603 792 3093 
Q 1309 3584 2216 3584 
Q 3041 3584 3536 3087 
Q 4031 2591 4031 1759 
z
M 2881 2131 
Q 2881 2450 2695 2645 
Q 2509 2841 2209 2841 
Q 1884 2841 1681 2658 
Q 1478 2475 1428 2131 
L 2881 2131 
z
" transform="scale(0.015625)"/>
      <path id="DejaVuSans-Bold-72" d="M 3138 2547 
Q 2991 2616 2845 2648 
Q 2700 2681 2553 2681 
Q 2122 2681 1889 2404 
Q 1656 2128 1656 1613 
L 1656 0 
L 538 0 
L 538 3500 
L 1656 3500 
L 1656 2925 
Q 1872 3269 2151 3426 
Q 2431 3584 2822 3584 
Q 2878 3584 2943 3579 
Q 3009 3575 3134 3559 
L 3138 2547 
z
" transform="scale(0.015625)"/>
      <path id="DejaVuSans-Bold-6f" d="M 2203 2784 
Q 1831 2784 1636 2517 
Q 1441 2250 1441 1747 
Q 1441 1244 1636 976 
Q 1831 709 2203 709 
Q 2569 709 2762 976 
Q 2956 1244 2956 1747 
Q 2956 2250 2762 2517 
Q 2569 2784 2203 2784 
z
M 2203 3584 
Q 3106 3584 3614 3096 
Q 4122 2609 4122 1747 
Q 4122 884 3614 396 
Q 3106 -91 2203 -91 
Q 1297 -91 786 396 
Q 275 884 275 1747 
Q 275 2609 786 3096 
Q 1297 3584 2203 3584 
z
" transform="scale(0.015625)"/>
      <path id="DejaVuSans-Bold-6e" d="M 4056 2131 
L 4056 0 
L 2931 0 
L 2931 347 
L 2931 1631 
Q 2931 2084 2911 2256 
Q 2891 2428 2841 2509 
Q 2775 2619 2662 2680 
Q 2550 2741 2406 2741 
Q 2056 2741 1856 2470 
Q 1656 2200 1656 1722 
L 1656 0 
L 538 0 
L 538 3500 
L 1656 3500 
L 1656 2988 
Q 1909 3294 2193 3439 
Q 2478 3584 2822 3584 
Q 3428 3584 3742 3212 
Q 4056 2841 4056 2131 
z
" transform="scale(0.015625)"/>
      <path id="DejaVuSans-Bold-20" transform="scale(0.015625)"/>
      <path id="DejaVuSans-Bold-74" d="M 1759 4494 
L 1759 3500 
L 2913 3500 
L 2913 2700 
L 1759 2700 
L 1759 1216 
Q 1759 972 1856 886 
Q 1953 800 2241 800 
L 2816 800 
L 2816 0 
L 1856 0 
Q 1194 0 917 276 
Q 641 553 641 1216 
L 641 2700 
L 84 2700 
L 84 3500 
L 641 3500 
L 641 4494 
L 1759 4494 
z
" transform="scale(0.015625)"/>
      <path id="DejaVuSans-Bold-67" d="M 2919 594 
Q 2688 288 2409 144 
Q 2131 0 1766 0 
Q 1125 0 706 504 
Q 288 1009 288 1791 
Q 288 2575 706 3076 
Q 1125 3578 1766 3578 
Q 2131 3578 2409 3434 
Q 2688 3291 2919 2981 
L 2919 3500 
L 4044 3500 
L 4044 353 
Q 4044 -491 3511 -936 
Q 2978 -1381 1966 -1381 
Q 1638 -1381 1331 -1331 
Q 1025 -1281 716 -1178 
L 716 -306 
Q 1009 -475 1290 -558 
Q 1572 -641 1856 -641 
Q 2406 -641 2662 -400 
Q 2919 -159 2919 353 
L 2919 594 
z
M 2181 2772 
Q 1834 2772 1640 2515 
Q 1447 2259 1447 1791 
Q 1447 1309 1634 1061 
Q 1822 813 2181 813 
Q 2531 813 2725 1069 
Q 2919 1325 2919 1791 
Q 2919 2259 2725 2515 
Q 2531 2772 2181 2772 
z
" transform="scale(0.015625)"/>
      <path id="DejaVuSans-Bold-68" d="M 4056 2131 
L 4056 0 
L 2931 0 
L 2931 347 
L 2931 1625 
Q 2931 2084 2911 2256 
Q 2891 2428 2841 2509 
Q 2775 2619 2662 2680 
Q 2550 2741 2406 2741 
Q 2056 2741 1856 2470 
Q 1656 2200 1656 1722 
L 1656 0 
L 538 0 
L 538 4863 
L 1656 4863 
L 1656 2988 
Q 1909 3294 2193 3439 
Q 2478 3584 2822 3584 
Q 3428 3584 3742 3212 
Q 4056 2841 4056 2131 
z
" transform="scale(0.015625)"/>
      <path id="DejaVuSans-Bold-2d" d="M 347 2297 
L 2309 2297 
L 2309 1388 
L 347 1388 
L 347 2297 
z
" transform="scale(0.015625)"/>
      <path id="DejaVuSans-Bold-62" d="M 2400 722 
Q 2759 722 2948 984 
Q 3138 1247 3138 1747 
Q 3138 2247 2948 2509 
Q 2759 2772 2400 2772 
Q 2041 2772 1848 2508 
Q 1656 2244 1656 1747 
Q 1656 1250 1848 986 
Q 2041 722 2400 722 
z
M 1656 2988 
Q 1888 3294 2169 3439 
Q 2450 3584 2816 3584 
Q 3463 3584 3878 3070 
Q 4294 2556 4294 1747 
Q 4294 938 3878 423 
Q 3463 -91 2816 -91 
Q 2450 -91 2169 54 
Q 1888 200 1656 506 
L 1656 0 
L 538 0 
L 538 4863 
L 1656 4863 
L 1656 2988 
z
" transform="scale(0.015625)"/>
     </defs>
     <use xlink:href="#DejaVuSans-Bold-64"/>
     <use xlink:href="#DejaVuSans-Bold-69" transform="translate(71.582031 0)"/>
     <use xlink:href="#DejaVuSans-Bold-73" transform="translate(105.859375 0)"/>
     <use xlink:href="#DejaVuSans-Bold-70" transform="translate(165.380859 0)"/>
     <use xlink:href="#DejaVuSans-Bold-65" transform="translate(236.962891 0)"/>
     <use xlink:href="#DejaVuSans-Bold-72" transform="translate(304.785156 0)"/>
     <use xlink:href="#DejaVuSans-Bold-73" transform="translate(354.101562 0)"/>
     <use xlink:href="#DejaVuSans-Bold-69" transform="translate(413.623047 0)"/>
     <use xlink:href="#DejaVuSans-Bold-6f" transform="translate(447.900391 0)"/>
     <use xlink:href="#DejaVuSans-Bold-6e" transform="translate(516.601562 0)"/>
     <use xlink:href="#DejaVuSans-Bold-69" transform="translate(587.792969 0)"/>
     <use xlink:href="#DejaVuSans-Bold-20" transform="translate(622.070312 0)"/>
     <use xlink:href="#DejaVuSans-Bold-74" transform="translate(656.884766 0)"/>
     <use xlink:href="#DejaVuSans-Bold-69" transform="translate(704.6875 0)"/>
     <use xlink:href="#DejaVuSans-Bold-67" transform="translate(738.964844 0)"/>
     <use xlink:href="#DejaVuSans-Bold-68" transform="translate(810.546875 0)"/>
     <use xlink:href="#DejaVuSans-Bold-74" transform="translate(881.738281 0)"/>
     <use xlink:href="#DejaVuSans-Bold-2d" transform="translate(929.541016 0)"/>
     <use xlink:href="#DejaVuSans-Bold-62" transform="translate(971.044922 0)"/>
     <use xlink:href="#DejaVuSans-Bold-69" transform="translate(1042.626953 0)"/>
     <use xlink:href="#DejaVuSans-Bold-6e" transform="translate(1076.904297 0)"/>
     <use xlink:href="#DejaVuSans-Bold-64" transform="translate(1148.095703 0)"/>
     <use xlink:href="#DejaVuSans-Bold-69" transform="translate(1219.677734 0)"/>
     <use xlink:href="#DejaVuSans-Bold-6e" transform="translate(1253.955078 0)"/>
     <use xlink:href="#DejaVuSans-Bold-67" transform="translate(1325.146484 0)"/>
    </g>
   </g>
   <g id="legend_1">
    <g id="line2d_21">
     <path d="M 149.089915 69.258437 
L 159.089915 69.258437 
L 169.089915 69.258437 
" style="fill: none; stroke: #1f77b4; stroke-width: 2.5; stroke-linecap: square"/>
    </g>
    <g id="text_13">
     <!-- banda di conduzione -->
     <g transform="translate(177.089915 72.758437) scale(0.1 -0.1)">
      <defs>
       <path id="DejaVuSans-62" d="M 3116 1747 
Q 3116 2381 2855 2742 
Q 2594 3103 2138 3103 
Q 1681 3103 1420 2742 
Q 1159 2381 1159 1747 
Q 1159 1113 1420 752 
Q 1681 391 2138 391 
Q 2594 391 2855 752 
Q 3116 1113 3116 1747 
z
M 1159 2969 
Q 1341 3281 1617 3432 
Q 1894 3584 2278 3584 
Q 2916 3584 3314 3078 
Q 3713 2572 3713 1747 
Q 3713 922 3314 415 
Q 2916 -91 2278 -91 
Q 1894 -91 1617 61 
Q 1341 213 1159 525 
L 1159 0 
L 581 0 
L 581 4863 
L 1159 4863 
L 1159 2969 
z
" transform="scale(0.015625)"/>
       <path id="DejaVuSans-75" d="M 544 1381 
L 544 3500 
L 1119 3500 
L 1119 1403 
Q 1119 906 1312 657 
Q 1506 409 1894 409 
Q 2359 409 2629 706 
Q 2900 1003 2900 1516 
L 2900 3500 
L 3475 3500 
L 3475 0 
L 2900 0 
L 2900 538 
Q 2691 219 2414 64 
Q 2138 -91 1772 -91 
Q 1169 -91 856 284 
Q 544 659 544 1381 
z
M 1991 3584 
L 1991 3584 
z
" transform="scale(0.015625)"/>
       <path id="DejaVuSans-7a" d="M 353 3500 
L 3084 3500 
L 3084 2975 
L 922 459 
L 3084 459 
L 3084 0 
L 275 0 
L 275 525 
L 2438 3041 
L 353 3041 
L 353 3500 
z
" transform="scale(0.015625)"/>
      </defs>
      <use xlink:href="#DejaVuSans-62"/>
      <use xlink:href="#DejaVuSans-61" transform="translate(63.476562 0)"/>
      <use xlink:href="#DejaVuSans-6e" transform="translate(124.755859 0)"/>
      <use xlink:href="#DejaVuSans-64" transform="translate(188.134766 0)"/>
      <use xlink:href="#DejaVuSans-61" transform="translate(251.611328 0)"/>
      <use xlink:href="#DejaVuSans-20" transform="translate(312.890625 0)"/>
      <use xlink:href="#DejaVuSans-64" transform="translate(344.677734 0)"/>
      <use xlink:href="#DejaVuSans-69" transform="translate(408.154297 0)"/>
      <use xlink:href="#DejaVuSans-20" transform="translate(435.9375 0)"/>
      <use xlink:href="#DejaVuSans-63" transform="translate(467.724609 0)"/>
      <use xlink:href="#DejaVuSans-6f" transform="translate(522.705078 0)"/>
      <use xlink:href="#DejaVuSans-6e" transform="translate(583.886719 0)"/>
      <use xlink:href="#DejaVuSans-64" transform="translate(647.265625 0)"/>
      <use xlink:href="#DejaVuSans-75" transform="translate(710.742188 0)"/>
      <use xlink:href="#DejaVuSans-7a" transform="translate(774.121094 0)"/>
      <use xlink:href="#DejaVuSans-69" transform="translate(826.611328 0)"/>
      <use xlink:href="#DejaVuSans-6f" transform="translate(854.394531 0)"/>
      <use xlink:href="#DejaVuSans-6e" transform="translate(915.576172 0)"/>
      <use xlink:href="#DejaVuSans-65" transform="translate(978.955078 0)"/>
     </g>
    </g>
    <g id="line2d_22">
     <path d="M 149.089915 83.936562 
L 159.089915 83.936562 
L 169.089915 83.936562 
" style="fill: none; stroke: #ff7f0e; stroke-width: 2.5; stroke-linecap: square"/>
    </g>
    <g id="text_14">
     <!-- banda di valenza -->
     <g transform="translate(177.089915 87.436562) scale(0.1 -0.1)">
      <defs>
       <path id="DejaVuSans-6c" d="M 603 4863 
L 1178 4863 
L 1178 0 
L 603 0 
L 603 4863 
z
" transform="scale(0.015625)"/>
      </defs>
      <use xlink:href="#DejaVuSans-62"/>
      <use xlink:href="#DejaVuSans-61" transform="translate(63.476562 0)"/>
      <use xlink:href="#DejaVuSans-6e" transform="translate(124.755859 0)"/>
      <use xlink:href="#DejaVuSans-64" transform="translate(188.134766 0)"/>
      <use xlink:href="#DejaVuSans-61" transform="translate(251.611328 0)"/>
      <use xlink:href="#DejaVuSans-20" transform="translate(312.890625 0)"/>
      <use xlink:href="#DejaVuSans-64" transform="translate(344.677734 0)"/>
      <use xlink:href="#DejaVuSans-69" transform="translate(408.154297 0)"/>
      <use xlink:href="#DejaVuSans-20" transform="translate(435.9375 0)"/>
      <use xlink:href="#DejaVuSans-76" transform="translate(467.724609 0)"/>
      <use xlink:href="#DejaVuSans-61" transform="translate(526.904297 0)"/>
      <use xlink:href="#DejaVuSans-6c" transform="translate(588.183594 0)"/>
      <use xlink:href="#DejaVuSans-65" transform="translate(615.966797 0)"/>
      <use xlink:href="#DejaVuSans-6e" transform="translate(677.490234 0)"/>
      <use xlink:href="#DejaVuSans-7a" transform="translate(740.869141 0)"/>
      <use xlink:href="#DejaVuSans-61" transform="translate(793.359375 0)"/>
     </g>
    </g>
   </g>
  </g>
  <g id="axes_2">
   <g id="patch_8">
    <path d="M 515.21746 172.049905 
L 742.88146 172.049905 
L 742.88146 79.896533 
L 515.21746 79.896533 
z
" clip-path="url(#pe4badaf975)" style="fill: #1f77b4; opacity: 0.18"/>
   </g>
   <g id="patch_9">
    <path d="M 515.21746 414.3024 
L 742.88146 414.3024 
L 742.88146 305.393869 
L 515.21746 305.393869 
z
" clip-path="url(#pe4badaf975)" style="fill: #1f77b4; opacity: 0.18"/>
   </g>
   <g id="LineCollection_1">
    <path d="M 508.318551 172.049905 
L 749.780369 172.049905 
" clip-path="url(#pe4badaf975)" style="fill: none; stroke: #1f77b4"/>
    <path d="M 508.318551 79.896533 
L 749.780369 79.896533 
" clip-path="url(#pe4badaf975)" style="fill: none; stroke: #1f77b4"/>
    <path d="M 508.318551 414.3024 
L 749.780369 414.3024 
" clip-path="url(#pe4badaf975)" style="fill: none; stroke: #1f77b4"/>
    <path d="M 508.318551 305.393869 
L 749.780369 305.393869 
" clip-path="url(#pe4badaf975)" style="fill: none; stroke: #1f77b4"/>
   </g>
   <g id="patch_10">
    <path d="M 704.93746 302.054185 
Q 704.93746 238.722951 704.93746 175.391718 
" style="fill: none; stroke: #000000; stroke-width: 1.2; stroke-linecap: round"/>
    <path d="M 706.93746 298.054185 
L 704.93746 302.054185 
L 702.93746 298.054185 
" style="fill: none; stroke: #000000; stroke-width: 1.2; stroke-linecap: round"/>
    <path d="M 702.93746 179.391718 
L 704.93746 175.391718 
L 706.93746 179.391718 
" style="fill: none; stroke: #000000; stroke-width: 1.2; stroke-linecap: round"/>
   </g>
   <g id="text_15">
    <!-- $E_{\rm gap}$ -->
    <g transform="translate(718.735278 240.821887) scale(0.1 -0.1)">
     <use xlink:href="#DejaVuSans-Oblique-45" transform="translate(0 0.09375)"/>
     <use xlink:href="#DejaVuSans-67" transform="translate(63.183594 -16.3125) scale(0.7)"/>
     <use xlink:href="#DejaVuSans-61" transform="translate(107.617188 -16.3125) scale(0.7)"/>
     <use xlink:href="#DejaVuSans-70" transform="translate(150.512695 -16.3125) scale(0.7)"/>
    </g>
   </g>
   <g id="text_16">
    <!-- banda di conduzione -->
    <g transform="translate(570.702585 125.973333) scale(0.1 -0.1)">
     <defs>
      <path id="DejaVuSans-Bold-61" d="M 2106 1575 
Q 1756 1575 1579 1456 
Q 1403 1338 1403 1106 
Q 1403 894 1545 773 
Q 1688 653 1941 653 
Q 2256 653 2472 879 
Q 2688 1106 2688 1447 
L 2688 1575 
L 2106 1575 
z
M 3816 1997 
L 3816 0 
L 2688 0 
L 2688 519 
Q 2463 200 2181 54 
Q 1900 -91 1497 -91 
Q 953 -91 614 226 
Q 275 544 275 1050 
Q 275 1666 698 1953 
Q 1122 2241 2028 2241 
L 2688 2241 
L 2688 2328 
Q 2688 2594 2478 2717 
Q 2269 2841 1825 2841 
Q 1466 2841 1156 2769 
Q 847 2697 581 2553 
L 581 3406 
Q 941 3494 1303 3539 
Q 1666 3584 2028 3584 
Q 2975 3584 3395 3211 
Q 3816 2838 3816 1997 
z
" transform="scale(0.015625)"/>
      <path id="DejaVuSans-Bold-63" d="M 3366 3391 
L 3366 2478 
Q 3138 2634 2908 2709 
Q 2678 2784 2431 2784 
Q 1963 2784 1702 2511 
Q 1441 2238 1441 1747 
Q 1441 1256 1702 982 
Q 1963 709 2431 709 
Q 2694 709 2930 787 
Q 3166 866 3366 1019 
L 3366 103 
Q 3103 6 2833 -42 
Q 2563 -91 2291 -91 
Q 1344 -91 809 395 
Q 275 881 275 1747 
Q 275 2613 809 3098 
Q 1344 3584 2291 3584 
Q 2566 3584 2833 3536 
Q 3100 3488 3366 3391 
z
" transform="scale(0.015625)"/>
      <path id="DejaVuSans-Bold-75" d="M 500 1363 
L 500 3500 
L 1625 3500 
L 1625 3150 
Q 1625 2866 1622 2436 
Q 1619 2006 1619 1863 
Q 1619 1441 1641 1255 
Q 1663 1069 1716 984 
Q 1784 875 1895 815 
Q 2006 756 2150 756 
Q 2500 756 2700 1025 
Q 2900 1294 2900 1772 
L 2900 3500 
L 4019 3500 
L 4019 0 
L 2900 0 
L 2900 506 
Q 2647 200 2364 54 
Q 2081 -91 1741 -91 
Q 1134 -91 817 281 
Q 500 653 500 1363 
z
" transform="scale(0.015625)"/>
      <path id="DejaVuSans-Bold-7a" d="M 366 3500 
L 3419 3500 
L 3419 2719 
L 1575 800 
L 3419 800 
L 3419 0 
L 288 0 
L 288 781 
L 2131 2700 
L 366 2700 
L 366 3500 
z
" transform="scale(0.015625)"/>
     </defs>
     <use xlink:href="#DejaVuSans-Bold-62"/>
     <use xlink:href="#DejaVuSans-Bold-61" transform="translate(71.582031 0)"/>
     <use xlink:href="#DejaVuSans-Bold-6e" transform="translate(139.0625 0)"/>
     <use xlink:href="#DejaVuSans-Bold-64" transform="translate(210.253906 0)"/>
     <use xlink:href="#DejaVuSans-Bold-61" transform="translate(281.835938 0)"/>
     <use xlink:href="#DejaVuSans-Bold-20" transform="translate(349.316406 0)"/>
     <use xlink:href="#DejaVuSans-Bold-64" transform="translate(384.130859 0)"/>
     <use xlink:href="#DejaVuSans-Bold-69" transform="translate(455.712891 0)"/>
     <use xlink:href="#DejaVuSans-Bold-20" transform="translate(489.990234 0)"/>
     <use xlink:href="#DejaVuSans-Bold-63" transform="translate(524.804688 0)"/>
     <use xlink:href="#DejaVuSans-Bold-6f" transform="translate(584.082031 0)"/>
     <use xlink:href="#DejaVuSans-Bold-6e" transform="translate(652.783203 0)"/>
     <use xlink:href="#DejaVuSans-Bold-64" transform="translate(723.974609 0)"/>
     <use xlink:href="#DejaVuSans-Bold-75" transform="translate(795.556641 0)"/>
     <use xlink:href="#DejaVuSans-Bold-7a" transform="translate(866.748047 0)"/>
     <use xlink:href="#DejaVuSans-Bold-69" transform="translate(924.951172 0)"/>
     <use xlink:href="#DejaVuSans-Bold-6f" transform="translate(959.228516 0)"/>
     <use xlink:href="#DejaVuSans-Bold-6e" transform="translate(1027.929688 0)"/>
     <use xlink:href="#DejaVuSans-Bold-65" transform="translate(1099.121094 0)"/>
    </g>
   </g>
   <g id="text_17">
    <!-- banda di valenza -->
    <g transform="translate(581.226804 363.338667) scale(0.1 -0.1)">
     <defs>
      <path id="DejaVuSans-Bold-76" d="M 97 3500 
L 1216 3500 
L 2088 1081 
L 2956 3500 
L 4078 3500 
L 2700 0 
L 1472 0 
L 97 3500 
z
" transform="scale(0.015625)"/>
      <path id="DejaVuSans-Bold-6c" d="M 538 4863 
L 1656 4863 
L 1656 0 
L 538 0 
L 538 4863 
z
" transform="scale(0.015625)"/>
     </defs>
     <use xlink:href="#DejaVuSans-Bold-62"/>
     <use xlink:href="#DejaVuSans-Bold-61" transform="translate(71.582031 0)"/>
     <use xlink:href="#DejaVuSans-Bold-6e" transform="translate(139.0625 0)"/>
     <use xlink:href="#DejaVuSans-Bold-64" transform="translate(210.253906 0)"/>
     <use xlink:href="#DejaVuSans-Bold-61" transform="translate(281.835938 0)"/>
     <use xlink:href="#DejaVuSans-Bold-20" transform="translate(349.316406 0)"/>
     <use xlink:href="#DejaVuSans-Bold-64" transform="translate(384.130859 0)"/>
     <use xlink:href="#DejaVuSans-Bold-69" transform="translate(455.712891 0)"/>
     <use xlink:href="#DejaVuSans-Bold-20" transform="translate(489.990234 0)"/>
     <use xlink:href="#DejaVuSans-Bold-76" transform="translate(524.804688 0)"/>
     <use xlink:href="#DejaVuSans-Bold-61" transform="translate(589.990234 0)"/>
     <use xlink:href="#DejaVuSans-Bold-6c" transform="translate(657.470703 0)"/>
     <use xlink:href="#DejaVuSans-Bold-65" transform="translate(691.748047 0)"/>
     <use xlink:href="#DejaVuSans-Bold-6e" transform="translate(759.570312 0)"/>
     <use xlink:href="#DejaVuSans-Bold-7a" transform="translate(830.761719 0)"/>
     <use xlink:href="#DejaVuSans-Bold-61" transform="translate(888.964844 0)"/>
    </g>
   </g>
   <g id="text_18">
    <!-- diagramma delle bande -->
    <g transform="translate(552.419929 50.16) scale(0.115 -0.115)">
     <defs>
      <path id="DejaVuSans-Bold-6d" d="M 3781 2919 
Q 3994 3244 4286 3414 
Q 4578 3584 4928 3584 
Q 5531 3584 5847 3212 
Q 6163 2841 6163 2131 
L 6163 0 
L 5038 0 
L 5038 1825 
Q 5041 1866 5042 1909 
Q 5044 1953 5044 2034 
Q 5044 2406 4934 2573 
Q 4825 2741 4581 2741 
Q 4263 2741 4089 2478 
Q 3916 2216 3909 1719 
L 3909 0 
L 2784 0 
L 2784 1825 
Q 2784 2406 2684 2573 
Q 2584 2741 2328 2741 
Q 2006 2741 1831 2477 
Q 1656 2213 1656 1722 
L 1656 0 
L 531 0 
L 531 3500 
L 1656 3500 
L 1656 2988 
Q 1863 3284 2130 3434 
Q 2397 3584 2719 3584 
Q 3081 3584 3359 3409 
Q 3638 3234 3781 2919 
z
" transform="scale(0.015625)"/>
     </defs>
     <use xlink:href="#DejaVuSans-Bold-64"/>
     <use xlink:href="#DejaVuSans-Bold-69" transform="translate(71.582031 0)"/>
     <use xlink:href="#DejaVuSans-Bold-61" transform="translate(105.859375 0)"/>
     <use xlink:href="#DejaVuSans-Bold-67" transform="translate(173.339844 0)"/>
     <use xlink:href="#DejaVuSans-Bold-72" transform="translate(244.921875 0)"/>
     <use xlink:href="#DejaVuSans-Bold-61" transform="translate(294.238281 0)"/>
     <use xlink:href="#DejaVuSans-Bold-6d" transform="translate(361.71875 0)"/>
     <use xlink:href="#DejaVuSans-Bold-6d" transform="translate(465.917969 0)"/>
     <use xlink:href="#DejaVuSans-Bold-61" transform="translate(570.117188 0)"/>
     <use xlink:href="#DejaVuSans-Bold-20" transform="translate(637.597656 0)"/>
     <use xlink:href="#DejaVuSans-Bold-64" transform="translate(672.412109 0)"/>
     <use xlink:href="#DejaVuSans-Bold-65" transform="translate(743.994141 0)"/>
     <use xlink:href="#DejaVuSans-Bold-6c" transform="translate(811.816406 0)"/>
     <use xlink:href="#DejaVuSans-Bold-6c" transform="translate(846.09375 0)"/>
     <use xlink:href="#DejaVuSans-Bold-65" transform="translate(880.371094 0)"/>
     <use xlink:href="#DejaVuSans-Bold-20" transform="translate(948.193359 0)"/>
     <use xlink:href="#DejaVuSans-Bold-62" transform="translate(983.007812 0)"/>
     <use xlink:href="#DejaVuSans-Bold-61" transform="translate(1054.589844 0)"/>
     <use xlink:href="#DejaVuSans-Bold-6e" transform="translate(1122.070312 0)"/>
     <use xlink:href="#DejaVuSans-Bold-64" transform="translate(1193.261719 0)"/>
     <use xlink:href="#DejaVuSans-Bold-65" transform="translate(1264.84375 0)"/>
    </g>
   </g>
  </g>
  <g id="text_19">
   <!-- Bande di una catena monoatomica nel modello tight-binding -->
   <g transform="translate(153.380859 18.597656) scale(0.15 -0.15)">
    <defs>
     <path id="DejaVuSans-Bold-42" d="M 2456 2859 
Q 2741 2859 2887 2984 
Q 3034 3109 3034 3353 
Q 3034 3594 2887 3720 
Q 2741 3847 2456 3847 
L 1791 3847 
L 1791 2859 
L 2456 2859 
z
M 2497 819 
Q 2859 819 3042 972 
Q 3225 1125 3225 1434 
Q 3225 1738 3044 1889 
Q 2863 2041 2497 2041 
L 1791 2041 
L 1791 819 
L 2497 819 
z
M 3616 2497 
Q 4003 2384 4215 2081 
Q 4428 1778 4428 1338 
Q 4428 663 3972 331 
Q 3516 0 2584 0 
L 588 0 
L 588 4666 
L 2394 4666 
Q 3366 4666 3802 4372 
Q 4238 4078 4238 3431 
Q 4238 3091 4078 2852 
Q 3919 2613 3616 2497 
z
" transform="scale(0.015625)"/>
    </defs>
    <use xlink:href="#DejaVuSans-Bold-42"/>
    <use xlink:href="#DejaVuSans-Bold-61" transform="translate(76.220703 0)"/>
    <use xlink:href="#DejaVuSans-Bold-6e" transform="translate(143.701172 0)"/>
    <use xlink:href="#DejaVuSans-Bold-64" transform="translate(214.892578 0)"/>
    <use xlink:href="#DejaVuSans-Bold-65" transform="translate(286.474609 0)"/>
    <use xlink:href="#DejaVuSans-Bold-20" transform="translate(354.296875 0)"/>
    <use xlink:href="#DejaVuSans-Bold-64" transform="translate(389.111328 0)"/>
    <use xlink:href="#DejaVuSans-Bold-69" transform="translate(460.693359 0)"/>
    <use xlink:href="#DejaVuSans-Bold-20" transform="translate(494.970703 0)"/>
    <use xlink:href="#DejaVuSans-Bold-75" transform="translate(529.785156 0)"/>
    <use xlink:href="#DejaVuSans-Bold-6e" transform="translate(600.976562 0)"/>
    <use xlink:href="#DejaVuSans-Bold-61" transform="translate(672.167969 0)"/>
    <use xlink:href="#DejaVuSans-Bold-20" transform="translate(739.648438 0)"/>
    <use xlink:href="#DejaVuSans-Bold-63" transform="translate(774.462891 0)"/>
    <use xlink:href="#DejaVuSans-Bold-61" transform="translate(833.740234 0)"/>
    <use xlink:href="#DejaVuSans-Bold-74" transform="translate(901.220703 0)"/>
    <use xlink:href="#DejaVuSans-Bold-65" transform="translate(949.023438 0)"/>
    <use xlink:href="#DejaVuSans-Bold-6e" transform="translate(1016.845703 0)"/>
    <use xlink:href="#DejaVuSans-Bold-61" transform="translate(1088.037109 0)"/>
    <use xlink:href="#DejaVuSans-Bold-20" transform="translate(1155.517578 0)"/>
    <use xlink:href="#DejaVuSans-Bold-6d" transform="translate(1190.332031 0)"/>
    <use xlink:href="#DejaVuSans-Bold-6f" transform="translate(1294.53125 0)"/>
    <use xlink:href="#DejaVuSans-Bold-6e" transform="translate(1363.232422 0)"/>
    <use xlink:href="#DejaVuSans-Bold-6f" transform="translate(1434.423828 0)"/>
    <use xlink:href="#DejaVuSans-Bold-61" transform="translate(1503.125 0)"/>
    <use xlink:href="#DejaVuSans-Bold-74" transform="translate(1570.605469 0)"/>
    <use xlink:href="#DejaVuSans-Bold-6f" transform="translate(1618.408203 0)"/>
    <use xlink:href="#DejaVuSans-Bold-6d" transform="translate(1687.109375 0)"/>
    <use xlink:href="#DejaVuSans-Bold-69" transform="translate(1791.308594 0)"/>
    <use xlink:href="#DejaVuSans-Bold-63" transform="translate(1825.585938 0)"/>
    <use xlink:href="#DejaVuSans-Bold-61" transform="translate(1884.863281 0)"/>
    <use xlink:href="#DejaVuSans-Bold-20" transform="translate(1952.34375 0)"/>
    <use xlink:href="#DejaVuSans-Bold-6e" transform="translate(1987.158203 0)"/>
    <use xlink:href="#DejaVuSans-Bold-65" transform="translate(2058.349609 0)"/>
    <use xlink:href="#DejaVuSans-Bold-6c" transform="translate(2126.171875 0)"/>
    <use xlink:href="#DejaVuSans-Bold-20" transform="translate(2160.449219 0)"/>
    <use xlink:href="#DejaVuSans-Bold-6d" transform="translate(2195.263672 0)"/>
    <use xlink:href="#DejaVuSans-Bold-6f" transform="translate(2299.462891 0)"/>
    <use xlink:href="#DejaVuSans-Bold-64" transform="translate(2368.164062 0)"/>
    <use xlink:href="#DejaVuSans-Bold-65" transform="translate(2439.746094 0)"/>
    <use xlink:href="#DejaVuSans-Bold-6c" transform="translate(2507.568359 0)"/>
    <use xlink:href="#DejaVuSans-Bold-6c" transform="translate(2541.845703 0)"/>
    <use xlink:href="#DejaVuSans-Bold-6f" transform="translate(2576.123047 0)"/>
    <use xlink:href="#DejaVuSans-Bold-20" transform="translate(2644.824219 0)"/>
    <use xlink:href="#DejaVuSans-Bold-74" transform="translate(2679.638672 0)"/>
    <use xlink:href="#DejaVuSans-Bold-69" transform="translate(2727.441406 0)"/>
    <use xlink:href="#DejaVuSans-Bold-67" transform="translate(2761.71875 0)"/>
    <use xlink:href="#DejaVuSans-Bold-68" transform="translate(2833.300781 0)"/>
    <use xlink:href="#DejaVuSans-Bold-74" transform="translate(2904.492188 0)"/>
    <use xlink:href="#DejaVuSans-Bold-2d" transform="translate(2952.294922 0)"/>
    <use xlink:href="#DejaVuSans-Bold-62" transform="translate(2993.798828 0)"/>
    <use xlink:href="#DejaVuSans-Bold-69" transform="translate(3065.380859 0)"/>
    <use xlink:href="#DejaVuSans-Bold-6e" transform="translate(3099.658203 0)"/>
    <use xlink:href="#DejaVuSans-Bold-64" transform="translate(3170.849609 0)"/>
    <use xlink:href="#DejaVuSans-Bold-69" transform="translate(3242.431641 0)"/>
    <use xlink:href="#DejaVuSans-Bold-6e" transform="translate(3276.708984 0)"/>
    <use xlink:href="#DejaVuSans-Bold-67" transform="translate(3347.900391 0)"/>
   </g>
  </g>
  <g id="text_20">
   <!-- Le combinazioni degli orbitali atomici producono due bande cosinusoidali separate da un gap; il pannello destro ne riassume l'estensione energetica. -->
   <g transform="translate(35.607813 474.768) scale(0.1 -0.1)">
    <defs>
     <path id="DejaVuSans-4c" d="M 628 4666 
L 1259 4666 
L 1259 531 
L 3531 531 
L 3531 0 
L 628 0 
L 628 4666 
z
" transform="scale(0.015625)"/>
     <path id="DejaVuSans-6d" d="M 3328 2828 
Q 3544 3216 3844 3400 
Q 4144 3584 4550 3584 
Q 5097 3584 5394 3201 
Q 5691 2819 5691 2113 
L 5691 0 
L 5113 0 
L 5113 2094 
Q 5113 2597 4934 2840 
Q 4756 3084 4391 3084 
Q 3944 3084 3684 2787 
Q 3425 2491 3425 1978 
L 3425 0 
L 2847 0 
L 2847 2094 
Q 2847 2600 2669 2842 
Q 2491 3084 2119 3084 
Q 1678 3084 1418 2786 
Q 1159 2488 1159 1978 
L 1159 0 
L 581 0 
L 581 3500 
L 1159 3500 
L 1159 2956 
Q 1356 3278 1631 3431 
Q 1906 3584 2284 3584 
Q 2666 3584 2933 3390 
Q 3200 3197 3328 2828 
z
" transform="scale(0.015625)"/>
     <path id="DejaVuSans-73" d="M 2834 3397 
L 2834 2853 
Q 2591 2978 2328 3040 
Q 2066 3103 1784 3103 
Q 1356 3103 1142 2972 
Q 928 2841 928 2578 
Q 928 2378 1081 2264 
Q 1234 2150 1697 2047 
L 1894 2003 
Q 2506 1872 2764 1633 
Q 3022 1394 3022 966 
Q 3022 478 2636 193 
Q 2250 -91 1575 -91 
Q 1294 -91 989 -36 
Q 684 19 347 128 
L 347 722 
Q 666 556 975 473 
Q 1284 391 1588 391 
Q 1994 391 2212 530 
Q 2431 669 2431 922 
Q 2431 1156 2273 1281 
Q 2116 1406 1581 1522 
L 1381 1569 
Q 847 1681 609 1914 
Q 372 2147 372 2553 
Q 372 3047 722 3315 
Q 1072 3584 1716 3584 
Q 2034 3584 2315 3537 
Q 2597 3491 2834 3397 
z
" transform="scale(0.015625)"/>
     <path id="DejaVuSans-3b" d="M 750 3309 
L 1409 3309 
L 1409 2516 
L 750 2516 
L 750 3309 
z
M 750 794 
L 1409 794 
L 1409 256 
L 897 -744 
L 494 -744 
L 750 256 
L 750 794 
z
" transform="scale(0.015625)"/>
     <path id="DejaVuSans-2e" d="M 684 794 
L 1344 794 
L 1344 0 
L 684 0 
L 684 794 
z
" transform="scale(0.015625)"/>
    </defs>
    <use xlink:href="#DejaVuSans-4c"/>
    <use xlink:href="#DejaVuSans-65" transform="translate(53.962891 0)"/>
    <use xlink:href="#DejaVuSans-20" transform="translate(115.486328 0)"/>
    <use xlink:href="#DejaVuSans-63" transform="translate(147.273438 0)"/>
    <use xlink:href="#DejaVuSans-6f" transform="translate(202.253906 0)"/>
    <use xlink:href="#DejaVuSans-6d" transform="translate(263.435547 0)"/>
    <use xlink:href="#DejaVuSans-62" transform="translate(360.847656 0)"/>
    <use xlink:href="#DejaVuSans-69" transform="translate(424.324219 0)"/>
    <use xlink:href="#DejaVuSans-6e" transform="translate(452.107422 0)"/>
    <use xlink:href="#DejaVuSans-61" transform="translate(515.486328 0)"/>
    <use xlink:href="#DejaVuSans-7a" transform="translate(576.765625 0)"/>
    <use xlink:href="#DejaVuSans-69" transform="translate(629.255859 0)"/>
    <use xlink:href="#DejaVuSans-6f" transform="translate(657.039062 0)"/>
    <use xlink:href="#DejaVuSans-6e" transform="translate(718.220703 0)"/>
    <use xlink:href="#DejaVuSans-69" transform="translate(781.599609 0)"/>
    <use xlink:href="#DejaVuSans-20" transform="translate(809.382812 0)"/>
    <use xlink:href="#DejaVuSans-64" transform="translate(841.169922 0)"/>
    <use xlink:href="#DejaVuSans-65" transform="translate(904.646484 0)"/>
    <use xlink:href="#DejaVuSans-67" transform="translate(966.169922 0)"/>
    <use xlink:href="#DejaVuSans-6c" transform="translate(1029.646484 0)"/>
    <use xlink:href="#DejaVuSans-69" transform="translate(1057.429688 0)"/>
    <use xlink:href="#DejaVuSans-20" transform="translate(1085.212891 0)"/>
    <use xlink:href="#DejaVuSans-6f" transform="translate(1117 0)"/>
    <use xlink:href="#DejaVuSans-72" transform="translate(1178.181641 0)"/>
    <use xlink:href="#DejaVuSans-62" transform="translate(1219.294922 0)"/>
    <use xlink:href="#DejaVuSans-69" transform="translate(1282.771484 0)"/>
    <use xlink:href="#DejaVuSans-74" transform="translate(1310.554688 0)"/>
    <use xlink:href="#DejaVuSans-61" transform="translate(1349.763672 0)"/>
    <use xlink:href="#DejaVuSans-6c" transform="translate(1411.042969 0)"/>
    <use xlink:href="#DejaVuSans-69" transform="translate(1438.826172 0)"/>
    <use xlink:href="#DejaVuSans-20" transform="translate(1466.609375 0)"/>
    <use xlink:href="#DejaVuSans-61" transform="translate(1498.396484 0)"/>
    <use xlink:href="#DejaVuSans-74" transform="translate(1559.675781 0)"/>
    <use xlink:href="#DejaVuSans-6f" transform="translate(1598.884766 0)"/>
    <use xlink:href="#DejaVuSans-6d" transform="translate(1660.066406 0)"/>
    <use xlink:href="#DejaVuSans-69" transform="translate(1757.478516 0)"/>
    <use xlink:href="#DejaVuSans-63" transform="translate(1785.261719 0)"/>
    <use xlink:href="#DejaVuSans-69" transform="translate(1840.242188 0)"/>
    <use xlink:href="#DejaVuSans-20" transform="translate(1868.025391 0)"/>
    <use xlink:href="#DejaVuSans-70" transform="translate(1899.8125 0)"/>
    <use xlink:href="#DejaVuSans-72" transform="translate(1963.289062 0)"/>
    <use xlink:href="#DejaVuSans-6f" transform="translate(2002.152344 0)"/>
    <use xlink:href="#DejaVuSans-64" transform="translate(2063.333984 0)"/>
    <use xlink:href="#DejaVuSans-75" transform="translate(2126.810547 0)"/>
    <use xlink:href="#DejaVuSans-63" transform="translate(2190.189453 0)"/>
    <use xlink:href="#DejaVuSans-6f" transform="translate(2245.169922 0)"/>
    <use xlink:href="#DejaVuSans-6e" transform="translate(2306.351562 0)"/>
    <use xlink:href="#DejaVuSans-6f" transform="translate(2369.730469 0)"/>
    <use xlink:href="#DejaVuSans-20" transform="translate(2430.912109 0)"/>
    <use xlink:href="#DejaVuSans-64" transform="translate(2462.699219 0)"/>
    <use xlink:href="#DejaVuSans-75" transform="translate(2526.175781 0)"/>
    <use xlink:href="#DejaVuSans-65" transform="translate(2589.554688 0)"/>
    <use xlink:href="#DejaVuSans-20" transform="translate(2651.078125 0)"/>
    <use xlink:href="#DejaVuSans-62" transform="translate(2682.865234 0)"/>
    <use xlink:href="#DejaVuSans-61" transform="translate(2746.341797 0)"/>
    <use xlink:href="#DejaVuSans-6e" transform="translate(2807.621094 0)"/>
    <use xlink:href="#DejaVuSans-64" transform="translate(2871 0)"/>
    <use xlink:href="#DejaVuSans-65" transform="translate(2934.476562 0)"/>
    <use xlink:href="#DejaVuSans-20" transform="translate(2996 0)"/>
    <use xlink:href="#DejaVuSans-63" transform="translate(3027.787109 0)"/>
    <use xlink:href="#DejaVuSans-6f" transform="translate(3082.767578 0)"/>
    <use xlink:href="#DejaVuSans-73" transform="translate(3143.949219 0)"/>
    <use xlink:href="#DejaVuSans-69" transform="translate(3196.048828 0)"/>
    <use xlink:href="#DejaVuSans-6e" transform="translate(3223.832031 0)"/>
    <use xlink:href="#DejaVuSans-75" transform="translate(3287.210938 0)"/>
    <use xlink:href="#DejaVuSans-73" transform="translate(3350.589844 0)"/>
    <use xlink:href="#DejaVuSans-6f" transform="translate(3402.689453 0)"/>
    <use xlink:href="#DejaVuSans-69" transform="translate(3463.871094 0)"/>
    <use xlink:href="#DejaVuSans-64" transform="translate(3491.654297 0)"/>
    <use xlink:href="#DejaVuSans-61" transform="translate(3555.130859 0)"/>
    <use xlink:href="#DejaVuSans-6c" transform="translate(3616.410156 0)"/>
    <use xlink:href="#DejaVuSans-69" transform="translate(3644.193359 0)"/>
    <use xlink:href="#DejaVuSans-20" transform="translate(3671.976562 0)"/>
    <use xlink:href="#DejaVuSans-73" transform="translate(3703.763672 0)"/>
    <use xlink:href="#DejaVuSans-65" transform="translate(3755.863281 0)"/>
    <use xlink:href="#DejaVuSans-70" transform="translate(3817.386719 0)"/>
    <use xlink:href="#DejaVuSans-61" transform="translate(3880.863281 0)"/>
    <use xlink:href="#DejaVuSans-72" transform="translate(3942.142578 0)"/>
    <use xlink:href="#DejaVuSans-61" transform="translate(3983.255859 0)"/>
    <use xlink:href="#DejaVuSans-74" transform="translate(4044.535156 0)"/>
    <use xlink:href="#DejaVuSans-65" transform="translate(4083.744141 0)"/>
    <use xlink:href="#DejaVuSans-20" transform="translate(4145.267578 0)"/>
    <use xlink:href="#DejaVuSans-64" transform="translate(4177.054688 0)"/>
    <use xlink:href="#DejaVuSans-61" transform="translate(4240.53125 0)"/>
    <use xlink:href="#DejaVuSans-20" transform="translate(4301.810547 0)"/>
    <use xlink:href="#DejaVuSans-75" transform="translate(4333.597656 0)"/>
    <use xlink:href="#DejaVuSans-6e" transform="translate(4396.976562 0)"/>
    <use xlink:href="#DejaVuSans-20" transform="translate(4460.355469 0)"/>
    <use xlink:href="#DejaVuSans-67" transform="translate(4492.142578 0)"/>
    <use xlink:href="#DejaVuSans-61" transform="translate(4555.619141 0)"/>
    <use xlink:href="#DejaVuSans-70" transform="translate(4616.898438 0)"/>
    <use xlink:href="#DejaVuSans-3b" transform="translate(4680.375 0)"/>
    <use xlink:href="#DejaVuSans-20" transform="translate(4714.066406 0)"/>
    <use xlink:href="#DejaVuSans-69" transform="translate(4745.853516 0)"/>
    <use xlink:href="#DejaVuSans-6c" transform="translate(4773.636719 0)"/>
    <use xlink:href="#DejaVuSans-20" transform="translate(4801.419922 0)"/>
    <use xlink:href="#DejaVuSans-70" transform="translate(4833.207031 0)"/>
    <use xlink:href="#DejaVuSans-61" transform="translate(4896.683594 0)"/>
    <use xlink:href="#DejaVuSans-6e" transform="translate(4957.962891 0)"/>
    <use xlink:href="#DejaVuSans-6e" transform="translate(5021.341797 0)"/>
    <use xlink:href="#DejaVuSans-65" transform="translate(5084.720703 0)"/>
    <use xlink:href="#DejaVuSans-6c" transform="translate(5146.244141 0)"/>
    <use xlink:href="#DejaVuSans-6c" transform="translate(5174.027344 0)"/>
    <use xlink:href="#DejaVuSans-6f" transform="translate(5201.810547 0)"/>
    <use xlink:href="#DejaVuSans-20" transform="translate(5262.992188 0)"/>
    <use xlink:href="#DejaVuSans-64" transform="translate(5294.779297 0)"/>
    <use xlink:href="#DejaVuSans-65" transform="translate(5358.255859 0)"/>
    <use xlink:href="#DejaVuSans-73" transform="translate(5419.779297 0)"/>
    <use xlink:href="#DejaVuSans-74" transform="translate(5471.878906 0)"/>
    <use xlink:href="#DejaVuSans-72" transform="translate(5511.087891 0)"/>
    <use xlink:href="#DejaVuSans-6f" transform="translate(5549.951172 0)"/>
    <use xlink:href="#DejaVuSans-20" transform="translate(5611.132812 0)"/>
    <use xlink:href="#DejaVuSans-6e" transform="translate(5642.919922 0)"/>
    <use xlink:href="#DejaVuSans-65" transform="translate(5706.298828 0)"/>
    <use xlink:href="#DejaVuSans-20" transform="translate(5767.822266 0)"/>
    <use xlink:href="#DejaVuSans-72" transform="translate(5799.609375 0)"/>
    <use xlink:href="#DejaVuSans-69" transform="translate(5840.722656 0)"/>
    <use xlink:href="#DejaVuSans-61" transform="translate(5868.505859 0)"/>
    <use xlink:href="#DejaVuSans-73" transform="translate(5929.785156 0)"/>
    <use xlink:href="#DejaVuSans-73" transform="translate(5981.884766 0)"/>
    <use xlink:href="#DejaVuSans-75" transform="translate(6033.984375 0)"/>
    <use xlink:href="#DejaVuSans-6d" transform="translate(6097.363281 0)"/>
    <use xlink:href="#DejaVuSans-65" transform="translate(6194.775391 0)"/>
    <use xlink:href="#DejaVuSans-20" transform="translate(6256.298828 0)"/>
    <use xlink:href="#DejaVuSans-6c" transform="translate(6288.085938 0)"/>
    <use xlink:href="#DejaVuSans-27" transform="translate(6315.869141 0)"/>
    <use xlink:href="#DejaVuSans-65" transform="translate(6343.359375 0)"/>
    <use xlink:href="#DejaVuSans-73" transform="translate(6404.882812 0)"/>
    <use xlink:href="#DejaVuSans-74" transform="translate(6456.982422 0)"/>
    <use xlink:href="#DejaVuSans-65" transform="translate(6496.191406 0)"/>
    <use xlink:href="#DejaVuSans-6e" transform="translate(6557.714844 0)"/>
    <use xlink:href="#DejaVuSans-73" transform="translate(6621.09375 0)"/>
    <use xlink:href="#DejaVuSans-69" transform="translate(6673.193359 0)"/>
    <use xlink:href="#DejaVuSans-6f" transform="translate(6700.976562 0)"/>
    <use xlink:href="#DejaVuSans-6e" transform="translate(6762.158203 0)"/>
    <use xlink:href="#DejaVuSans-65" transform="translate(6825.537109 0)"/>
    <use xlink:href="#DejaVuSans-20" transform="translate(6887.060547 0)"/>
    <use xlink:href="#DejaVuSans-65" transform="translate(6918.847656 0)"/>
    <use xlink:href="#DejaVuSans-6e" transform="translate(6980.371094 0)"/>
    <use xlink:href="#DejaVuSans-65" transform="translate(7043.75 0)"/>
    <use xlink:href="#DejaVuSans-72" transform="translate(7105.273438 0)"/>
    <use xlink:href="#DejaVuSans-67" transform="translate(7144.636719 0)"/>
    <use xlink:href="#DejaVuSans-65" transform="translate(7208.113281 0)"/>
    <use xlink:href="#DejaVuSans-74" transform="translate(7269.636719 0)"/>
    <use xlink:href="#DejaVuSans-69" transform="translate(7308.845703 0)"/>
    <use xlink:href="#DejaVuSans-63" transform="translate(7336.628906 0)"/>
    <use xlink:href="#DejaVuSans-61" transform="translate(7391.609375 0)"/>
    <use xlink:href="#DejaVuSans-2e" transform="translate(7452.888672 0)"/>
   </g>
  </g>
 </g>
 <defs>
  <clipPath id="p17869573ac">
   <rect x="42.642188" y="56.16" width="344.945455" height="376.992"/>
  </clipPath>
  <clipPath id="pe4badaf975">
   <rect x="456.576733" y="56.16" width="344.945455" height="376.992"/>
  </clipPath>
 </defs>
</svg>
