<?xml version="1.0" encoding="utf-8" standalone="no"?>
<!DOCTYPE svg PUBLIC "-//W3C//DTD SVG 1.1//EN"
  "http://www.w3.org/Graphics/SVG/1.1/DTD/svg11.dtd">
<svg xmlns:xlink="http://www.w3.org/1999/xlink" width="516.6pt" height="394.613656pt" viewBox="0 0 516.6 394.613656" xmlns="http://www.w3.org/2000/svg" version="1.1">
 <metadata>
  <rdf:RDF xmlns:dc="http://purl.org/dc/elements/1.1/" xmlns:cc="http://creativecommons.org/ns#" xmlns:rdf="http://www.w3.org/1999/02/22-rdf-syntax-ns#">
   <cc:Work>
    <dc:type rdf:resource="http://purl.org/dc/dcmitype/StillImage"/>
    <dc:date>2026-06-16T08:27:04.588588</dc:date>
    <dc:format>image/svg+xml</dc:format>
    <dc:creator>
     <cc:Agent>
      <dc:title>Matplotlib v3.10.8, https://matplotlib.org/</dc:title>
     </cc:Agent>
    </dc:creator>
   </cc:Work>
  </rdf:RDF>
 </metadata>
 <defs>
  <style type="text/css">*{stroke-linejoin: round; stroke-linecap: butt}</style>
 </defs>
 <g id="figure_1">
  <g id="patch_1">
   <path d="M 0 394.613656 
L 516.6 394.613656 
L 516.6 0 
L 0 0 
z
" style="fill: #ffffff"/>
  </g>
  <g id="axes_1">
   <g id="patch_2">
    <path d="M 148.44375 314.837656 
L 352.4625 314.837656 
L 352.4625 256.373656 
L 148.44375 256.373656 
z
" clip-path="url(#p62e7d2fdb4)" style="fill: #1f77b4; opacity: 0.22"/>
   </g>
   <g id="patch_3">
    <path d="M 148.44375 157.589656 
L 352.4625 157.589656 
L 352.4625 87.029656 
L 148.44375 87.029656 
z
" clip-path="url(#p62e7d2fdb4)" style="fill: #1f77b4; opacity: 0.13"/>
   </g>
   <g id="patch_4">
    <path d="M 161.521875 311.007256 
C 162.423648 311.007256 163.288609 310.731112 163.926259 310.239642 
C 164.563909 309.748171 164.922188 309.081501 164.922188 308.386456 
C 164.922188 307.691412 164.563909 307.024741 163.926259 306.533271 
C 163.288609 306.0418 162.423648 305.765656 161.521875 305.765656 
C 160.620102 305.765656 159.755141 306.0418 159.117491 306.533271 
C 158.479841 307.024741 158.121563 307.691412 158.121563 308.386456 
C 158.121563 309.081501 158.479841 309.748171 159.117491 310.239642 
C 159.755141 310.731112 160.620102 311.007256 161.521875 311.007256 
z
" clip-path="url(#p62e7d2fdb4)" style="fill: #1f77b4; opacity: 0.75"/>
   </g>
   <g id="patch_5">
    <path d="M 183.754688 311.007256 
C 184.656461 311.007256 185.521421 310.731112 186.159072 310.239642 
C 186.796722 309.748171 187.155 309.081501 187.155 308.386456 
C 187.155 307.691412 186.796722 307.024741 186.159072 306.533271 
C 185.521421 306.0418 184.656461 305.765656 183.754688 305.765656 
C 182.852914 305.765656 181.987954 306.0418 181.350303 306.533271 
C 180.712653 307.024741 180.354375 307.691412 180.354375 308.386456 
C 180.354375 309.081501 180.712653 309.748171 181.350303 310.239642 
C 181.987954 310.731112 182.852914 311.007256 183.754688 311.007256 
z
" clip-path="url(#p62e7d2fdb4)" style="fill: #1f77b4; opacity: 0.75"/>
   </g>
   <g id="patch_6">
    <path d="M 205.9875 311.007256 
C 206.889273 311.007256 207.754234 310.731112 208.391884 310.239642 
C 209.029534 309.748171 209.387813 309.081501 209.387813 308.386456 
C 209.387813 307.691412 209.029534 307.024741 208.391884 306.533271 
C 207.754234 306.0418 206.889273 305.765656 205.9875 305.765656 
C 205.085727 305.765656 204.220766 306.0418 203.583116 306.533271 
C 202.945466 307.024741 202.587187 307.691412 202.587187 308.386456 
C 202.587187 309.081501 202.945466 309.748171 203.583116 310.239642 
C 204.220766 310.731112 205.085727 311.007256 205.9875 311.007256 
z
" clip-path="url(#p62e7d2fdb4)" style="fill: #1f77b4; opacity: 0.75"/>
   </g>
   <g id="patch_7">
    <path d="M 228.220313 311.007256 
C 229.122086 311.007256 229.987046 310.731112 230.624697 310.239642 
C 231.262347 309.748171 231.620625 309.081501 231.620625 308.386456 
C 231.620625 307.691412 231.262347 307.024741 230.624697 306.533271 
C 229.987046 306.0418 229.122086 305.765656 228.220313 305.765656 
C 227.318539 305.765656 226.453579 306.0418 225.815928 306.533271 
C 225.178278 307.024741 224.82 307.691412 224.82 308.386456 
C 224.82 309.081501 225.178278 309.748171 225.815928 310.239642 
C 226.453579 310.731112 227.318539 311.007256 228.220313 311.007256 
z
" clip-path="url(#p62e7d2fdb4)" style="fill: #1f77b4; opacity: 0.75"/>
   </g>
   <g id="patch_8">
    <path d="M 250.453125 311.007256 
C 251.354898 311.007256 252.219859 310.731112 252.857509 310.239642 
C 253.495159 309.748171 253.853438 309.081501 253.853438 308.386456 
C 253.853438 307.691412 253.495159 307.024741 252.857509 306.533271 
C 252.219859 306.0418 251.354898 305.765656 250.453125 305.765656 
C 249.551352 305.765656 248.686391 306.0418 248.048741 306.533271 
C 247.411091 307.024741 247.052813 307.691412 247.052813 308.386456 
C 247.052813 309.081501 247.411091 309.748171 248.048741 310.239642 
C 248.686391 310.731112 249.551352 311.007256 250.453125 311.007256 
z
" clip-path="url(#p62e7d2fdb4)" style="fill: #1f77b4; opacity: 0.75"/>
   </g>
   <g id="patch_9">
    <path d="M 272.685938 311.007256 
C 273.587711 311.007256 274.452671 310.731112 275.090322 310.239642 
C 275.727972 309.748171 276.08625 309.081501 276.08625 308.386456 
C 276.08625 307.691412 275.727972 307.024741 275.090322 306.533271 
C 274.452671 306.0418 273.587711 305.765656 272.685938 305.765656 
C 271.784164 305.765656 270.919204 306.0418 270.281553 306.533271 
C 269.643903 307.024741 269.285625 307.691412 269.285625 308.386456 
C 269.285625 309.081501 269.643903 309.748171 270.281553 310.239642 
C 270.919204 310.731112 271.784164 311.007256 272.685938 311.007256 
z
" clip-path="url(#p62e7d2fdb4)" style="fill: #1f77b4; opacity: 0.75"/>
   </g>
   <g id="patch_10">
    <path d="M 294.91875 311.007256 
C 295.820523 311.007256 296.685484 310.731112 297.323134 310.239642 
C 297.960784 309.748171 298.319063 309.081501 298.319063 308.386456 
C 298.319063 307.691412 297.960784 307.024741 297.323134 306.533271 
C 296.685484 306.0418 295.820523 305.765656 294.91875 305.765656 
C 294.016977 305.765656 293.152016 306.0418 292.514366 306.533271 
C 291.876716 307.024741 291.518438 307.691412 291.518438 308.386456 
C 291.518438 309.081501 291.876716 309.748171 292.514366 310.239642 
C 293.152016 310.731112 294.016977 311.007256 294.91875 311.007256 
z
" clip-path="url(#p62e7d2fdb4)" style="fill: #1f77b4; opacity: 0.75"/>
   </g>
   <g id="patch_11">
    <path d="M 317.151563 311.007256 
C 318.053336 311.007256 318.918296 310.731112 319.555947 310.239642 
C 320.193597 309.748171 320.551875 309.081501 320.551875 308.386456 
C 320.551875 307.691412 320.193597 307.024741 319.555947 306.533271 
C 318.918296 306.0418 318.053336 305.765656 317.151563 305.765656 
C 316.249789 305.765656 315.384829 306.0418 314.747178 306.533271 
C 314.109528 307.024741 313.75125 307.691412 313.75125 308.386456 
C 313.75125 309.081501 314.109528 309.748171 314.747178 310.239642 
C 315.384829 310.731112 316.249789 311.007256 317.151563 311.007256 
z
" clip-path="url(#p62e7d2fdb4)" style="fill: #1f77b4; opacity: 0.75"/>
   </g>
   <g id="patch_12">
    <path d="M 339.384375 311.007256 
C 340.286148 311.007256 341.151109 310.731112 341.788759 310.239642 
C 342.426409 309.748171 342.784688 309.081501 342.784688 308.386456 
C 342.784688 307.691412 342.426409 307.024741 341.788759 306.533271 
C 341.151109 306.0418 340.286148 305.765656 339.384375 305.765656 
C 338.482602 305.765656 337.617641 306.0418 336.979991 306.533271 
C 336.342341 307.024741 335.984063 307.691412 335.984063 308.386456 
C 335.984063 309.081501 336.342341 309.748171 336.979991 310.239642 
C 337.617641 310.731112 338.482602 311.007256 339.384375 311.007256 
z
" clip-path="url(#p62e7d2fdb4)" style="fill: #1f77b4; opacity: 0.75"/>
   </g>
   <g id="patch_13">
    <path d="M 161.521875 295.820056 
C 162.423648 295.820056 163.288609 295.543912 163.926259 295.052442 
C 164.563909 294.560971 164.922188 293.894301 164.922188 293.199256 
C 164.922188 292.504212 164.563909 291.837541 163.926259 291.346071 
C 163.288609 290.8546 162.423648 290.578456 161.521875 290.578456 
C 160.620102 290.578456 159.755141 290.8546 159.117491 291.346071 
C 158.479841 291.837541 158.121563 292.504212 158.121563 293.199256 
C 158.121563 293.894301 158.479841 294.560971 159.117491 295.052442 
C 159.755141 295.543912 160.620102 295.820056 161.521875 295.820056 
z
" clip-path="url(#p62e7d2fdb4)" style="fill: #1f77b4; opacity: 0.75"/>
   </g>
   <g id="patch_14">
    <path d="M 183.754688 295.820056 
C 184.656461 295.820056 185.521421 295.543912 186.159072 295.052442 
C 186.796722 294.560971 187.155 293.894301 187.155 293.199256 
C 187.155 292.504212 186.796722 291.837541 186.159072 291.346071 
C 185.521421 290.8546 184.656461 290.578456 183.754688 290.578456 
C 182.852914 290.578456 181.987954 290.8546 181.350303 291.346071 
C 180.712653 291.837541 180.354375 292.504212 180.354375 293.199256 
C 180.354375 293.894301 180.712653 294.560971 181.350303 295.052442 
C 181.987954 295.543912 182.852914 295.820056 183.754688 295.820056 
z
" clip-path="url(#p62e7d2fdb4)" style="fill: #1f77b4; opacity: 0.75"/>
   </g>
   <g id="patch_15">
    <path d="M 205.9875 295.820056 
C 206.889273 295.820056 207.754234 295.543912 208.391884 295.052442 
C 209.029534 294.560971 209.387813 293.894301 209.387813 293.199256 
C 209.387813 292.504212 209.029534 291.837541 208.391884 291.346071 
C 207.754234 290.8546 206.889273 290.578456 205.9875 290.578456 
C 205.085727 290.578456 204.220766 290.8546 203.583116 291.346071 
C 202.945466 291.837541 202.587187 292.504212 202.587187 293.199256 
C 202.587187 293.894301 202.945466 294.560971 203.583116 295.052442 
C 204.220766 295.543912 205.085727 295.820056 205.9875 295.820056 
z
" clip-path="url(#p62e7d2fdb4)" style="fill: #1f77b4; opacity: 0.75"/>
   </g>
   <g id="patch_16">
    <path d="M 228.220313 295.820056 
C 229.122086 295.820056 229.987046 295.543912 230.624697 295.052442 
C 231.262347 294.560971 231.620625 293.894301 231.620625 293.199256 
C 231.620625 292.504212 231.262347 291.837541 230.624697 291.346071 
C 229.987046 290.8546 229.122086 290.578456 228.220313 290.578456 
C 227.318539 290.578456 226.453579 290.8546 225.815928 291.346071 
C 225.178278 291.837541 224.82 292.504212 224.82 293.199256 
C 224.82 293.894301 225.178278 294.560971 225.815928 295.052442 
C 226.453579 295.543912 227.318539 295.820056 228.220313 295.820056 
z
" clip-path="url(#p62e7d2fdb4)" style="fill: #1f77b4; opacity: 0.75"/>
   </g>
   <g id="patch_17">
    <path d="M 250.453125 295.820056 
C 251.354898 295.820056 252.219859 295.543912 252.857509 295.052442 
C 253.495159 294.560971 253.853438 293.894301 253.853438 293.199256 
C 253.853438 292.504212 253.495159 291.837541 252.857509 291.346071 
C 252.219859 290.8546 251.354898 290.578456 250.453125 290.578456 
C 249.551352 290.578456 248.686391 290.8546 248.048741 291.346071 
C 247.411091 291.837541 247.052813 292.504212 247.052813 293.199256 
C 247.052813 293.894301 247.411091 294.560971 248.048741 295.052442 
C 248.686391 295.543912 249.551352 295.820056 250.453125 295.820056 
z
" clip-path="url(#p62e7d2fdb4)" style="fill: #1f77b4; opacity: 0.75"/>
   </g>
   <g id="patch_18">
    <path d="M 272.685938 295.820056 
C 273.587711 295.820056 274.452671 295.543912 275.090322 295.052442 
C 275.727972 294.560971 276.08625 293.894301 276.08625 293.199256 
C 276.08625 292.504212 275.727972 291.837541 275.090322 291.346071 
C 274.452671 290.8546 273.587711 290.578456 272.685938 290.578456 
C 271.784164 290.578456 270.919204 290.8546 270.281553 291.346071 
C 269.643903 291.837541 269.285625 292.504212 269.285625 293.199256 
C 269.285625 293.894301 269.643903 294.560971 270.281553 295.052442 
C 270.919204 295.543912 271.784164 295.820056 272.685938 295.820056 
z
" clip-path="url(#p62e7d2fdb4)" style="fill: #1f77b4; opacity: 0.75"/>
   </g>
   <g id="patch_19">
    <path d="M 294.91875 295.820056 
C 295.820523 295.820056 296.685484 295.543912 297.323134 295.052442 
C 297.960784 294.560971 298.319063 293.894301 298.319063 293.199256 
C 298.319063 292.504212 297.960784 291.837541 297.323134 291.346071 
C 296.685484 290.8546 295.820523 290.578456 294.91875 290.578456 
C 294.016977 290.578456 293.152016 290.8546 292.514366 291.346071 
C 291.876716 291.837541 291.518438 292.504212 291.518438 293.199256 
C 291.518438 293.894301 291.876716 294.560971 292.514366 295.052442 
C 293.152016 295.543912 294.016977 295.820056 294.91875 295.820056 
z
" clip-path="url(#p62e7d2fdb4)" style="fill: #1f77b4; opacity: 0.75"/>
   </g>
   <g id="patch_20">
    <path d="M 317.151563 295.820056 
C 318.053336 295.820056 318.918296 295.543912 319.555947 295.052442 
C 320.193597 294.560971 320.551875 293.894301 320.551875 293.199256 
C 320.551875 292.504212 320.193597 291.837541 319.555947 291.346071 
C 318.918296 290.8546 318.053336 290.578456 317.151563 290.578456 
C 316.249789 290.578456 315.384829 290.8546 314.747178 291.346071 
C 314.109528 291.837541 313.75125 292.504212 313.75125 293.199256 
C 313.75125 293.894301 314.109528 294.560971 314.747178 295.052442 
C 315.384829 295.543912 316.249789 295.820056 317.151563 295.820056 
z
" clip-path="url(#p62e7d2fdb4)" style="fill: #1f77b4; opacity: 0.75"/>
   </g>
   <g id="patch_21">
    <path d="M 339.384375 295.820056 
C 340.286148 295.820056 341.151109 295.543912 341.788759 295.052442 
C 342.426409 294.560971 342.784688 293.894301 342.784688 293.199256 
C 342.784688 292.504212 342.426409 291.837541 341.788759 291.346071 
C 341.151109 290.8546 340.286148 290.578456 339.384375 290.578456 
C 338.482602 290.578456 337.617641 290.8546 336.979991 291.346071 
C 336.342341 291.837541 335.984063 292.504212 335.984063 293.199256 
C 335.984063 293.894301 336.342341 294.560971 336.979991 295.052442 
C 337.617641 295.543912 338.482602 295.820056 339.384375 295.820056 
z
" clip-path="url(#p62e7d2fdb4)" style="fill: #1f77b4; opacity: 0.75"/>
   </g>
   <g id="patch_22">
    <path d="M 161.521875 280.632856 
C 162.423648 280.632856 163.288609 280.356712 163.926259 279.865242 
C 164.563909 279.373771 164.922188 278.707101 164.922188 278.012056 
C 164.922188 277.317012 164.563909 276.650341 163.926259 276.158871 
C 163.288609 275.6674 162.423648 275.391256 161.521875 275.391256 
C 160.620102 275.391256 159.755141 275.6674 159.117491 276.158871 
C 158.479841 276.650341 158.121563 277.317012 158.121563 278.012056 
C 158.121563 278.707101 158.479841 279.373771 159.117491 279.865242 
C 159.755141 280.356712 160.620102 280.632856 161.521875 280.632856 
z
" clip-path="url(#p62e7d2fdb4)" style="fill: #1f77b4; opacity: 0.75"/>
   </g>
   <g id="patch_23">
    <path d="M 183.754688 280.632856 
C 184.656461 280.632856 185.521421 280.356712 186.159072 279.865242 
C 186.796722 279.373771 187.155 278.707101 187.155 278.012056 
C 187.155 277.317012 186.796722 276.650341 186.159072 276.158871 
C 185.521421 275.6674 184.656461 275.391256 183.754688 275.391256 
C 182.852914 275.391256 181.987954 275.6674 181.350303 276.158871 
C 180.712653 276.650341 180.354375 277.317012 180.354375 278.012056 
C 180.354375 278.707101 180.712653 279.373771 181.350303 279.865242 
C 181.987954 280.356712 182.852914 280.632856 183.754688 280.632856 
z
" clip-path="url(#p62e7d2fdb4)" style="fill: #1f77b4; opacity: 0.75"/>
   </g>
   <g id="patch_24">
    <path d="M 205.9875 280.632856 
C 206.889273 280.632856 207.754234 280.356712 208.391884 279.865242 
C 209.029534 279.373771 209.387813 278.707101 209.387813 278.012056 
C 209.387813 277.317012 209.029534 276.650341 208.391884 276.158871 
C 207.754234 275.6674 206.889273 275.391256 205.9875 275.391256 
C 205.085727 275.391256 204.220766 275.6674 203.583116 276.158871 
C 202.945466 276.650341 202.587187 277.317012 202.587187 278.012056 
C 202.587187 278.707101 202.945466 279.373771 203.583116 279.865242 
C 204.220766 280.356712 205.085727 280.632856 205.9875 280.632856 
z
" clip-path="url(#p62e7d2fdb4)" style="fill: #1f77b4; opacity: 0.75"/>
   </g>
   <g id="patch_25">
    <path d="M 228.220313 280.632856 
C 229.122086 280.632856 229.987046 280.356712 230.624697 279.865242 
C 231.262347 279.373771 231.620625 278.707101 231.620625 278.012056 
C 231.620625 277.317012 231.262347 276.650341 230.624697 276.158871 
C 229.987046 275.6674 229.122086 275.391256 228.220313 275.391256 
C 227.318539 275.391256 226.453579 275.6674 225.815928 276.158871 
C 225.178278 276.650341 224.82 277.317012 224.82 278.012056 
C 224.82 278.707101 225.178278 279.373771 225.815928 279.865242 
C 226.453579 280.356712 227.318539 280.632856 228.220313 280.632856 
z
" clip-path="url(#p62e7d2fdb4)" style="fill: #1f77b4; opacity: 0.75"/>
   </g>
   <g id="patch_26">
    <path d="M 250.453125 280.632856 
C 251.354898 280.632856 252.219859 280.356712 252.857509 279.865242 
C 253.495159 279.373771 253.853438 278.707101 253.853438 278.012056 
C 253.853438 277.317012 253.495159 276.650341 252.857509 276.158871 
C 252.219859 275.6674 251.354898 275.391256 250.453125 275.391256 
C 249.551352 275.391256 248.686391 275.6674 248.048741 276.158871 
C 247.411091 276.650341 247.052813 277.317012 247.052813 278.012056 
C 247.052813 278.707101 247.411091 279.373771 248.048741 279.865242 
C 248.686391 280.356712 249.551352 280.632856 250.453125 280.632856 
z
" clip-path="url(#p62e7d2fdb4)" style="fill: #1f77b4; opacity: 0.75"/>
   </g>
   <g id="patch_27">
    <path d="M 272.685938 280.632856 
C 273.587711 280.632856 274.452671 280.356712 275.090322 279.865242 
C 275.727972 279.373771 276.08625 278.707101 276.08625 278.012056 
C 276.08625 277.317012 275.727972 276.650341 275.090322 276.158871 
C 274.452671 275.6674 273.587711 275.391256 272.685938 275.391256 
C 271.784164 275.391256 270.919204 275.6674 270.281553 276.158871 
C 269.643903 276.650341 269.285625 277.317012 269.285625 278.012056 
C 269.285625 278.707101 269.643903 279.373771 270.281553 279.865242 
C 270.919204 280.356712 271.784164 280.632856 272.685938 280.632856 
z
" clip-path="url(#p62e7d2fdb4)" style="fill: #1f77b4; opacity: 0.75"/>
   </g>
   <g id="patch_28">
    <path d="M 294.91875 280.632856 
C 295.820523 280.632856 296.685484 280.356712 297.323134 279.865242 
C 297.960784 279.373771 298.319063 278.707101 298.319063 278.012056 
C 298.319063 277.317012 297.960784 276.650341 297.323134 276.158871 
C 296.685484 275.6674 295.820523 275.391256 294.91875 275.391256 
C 294.016977 275.391256 293.152016 275.6674 292.514366 276.158871 
C 291.876716 276.650341 291.518438 277.317012 291.518438 278.012056 
C 291.518438 278.707101 291.876716 279.373771 292.514366 279.865242 
C 293.152016 280.356712 294.016977 280.632856 294.91875 280.632856 
z
" clip-path="url(#p62e7d2fdb4)" style="fill: #1f77b4; opacity: 0.75"/>
   </g>
   <g id="patch_29">
    <path d="M 317.151563 280.632856 
C 318.053336 280.632856 318.918296 280.356712 319.555947 279.865242 
C 320.193597 279.373771 320.551875 278.707101 320.551875 278.012056 
C 320.551875 277.317012 320.193597 276.650341 319.555947 276.158871 
C 318.918296 275.6674 318.053336 275.391256 317.151563 275.391256 
C 316.249789 275.391256 315.384829 275.6674 314.747178 276.158871 
C 314.109528 276.650341 313.75125 277.317012 313.75125 278.012056 
C 313.75125 278.707101 314.109528 279.373771 314.747178 279.865242 
C 315.384829 280.356712 316.249789 280.632856 317.151563 280.632856 
z
" clip-path="url(#p62e7d2fdb4)" style="fill: #1f77b4; opacity: 0.75"/>
   </g>
   <g id="patch_30">
    <path d="M 339.384375 280.632856 
C 340.286148 280.632856 341.151109 280.356712 341.788759 279.865242 
C 342.426409 279.373771 342.784688 278.707101 342.784688 278.012056 
C 342.784688 277.317012 342.426409 276.650341 341.788759 276.158871 
C 341.151109 275.6674 340.286148 275.391256 339.384375 275.391256 
C 338.482602 275.391256 337.617641 275.6674 336.979991 276.158871 
C 336.342341 276.650341 335.984063 277.317012 335.984063 278.012056 
C 335.984063 278.707101 336.342341 279.373771 336.979991 279.865242 
C 337.617641 280.356712 338.482602 280.632856 339.384375 280.632856 
z
" clip-path="url(#p62e7d2fdb4)" style="fill: #1f77b4; opacity: 0.75"/>
   </g>
   <g id="patch_31">
    <path d="M 161.521875 265.445656 
C 162.423648 265.445656 163.288609 265.169512 163.926259 264.678042 
C 164.563909 264.186571 164.922188 263.519901 164.922188 262.824856 
C 164.922188 262.129812 164.563909 261.463141 163.926259 260.971671 
C 163.288609 260.4802 162.423648 260.204056 161.521875 260.204056 
C 160.620102 260.204056 159.755141 260.4802 159.117491 260.971671 
C 158.479841 261.463141 158.121563 262.129812 158.121563 262.824856 
C 158.121563 263.519901 158.479841 264.186571 159.117491 264.678042 
C 159.755141 265.169512 160.620102 265.445656 161.521875 265.445656 
z
" clip-path="url(#p62e7d2fdb4)" style="fill: #1f77b4; opacity: 0.75"/>
   </g>
   <g id="patch_32">
    <path d="M 183.754688 265.445656 
C 184.656461 265.445656 185.521421 265.169512 186.159072 264.678042 
C 186.796722 264.186571 187.155 263.519901 187.155 262.824856 
C 187.155 262.129812 186.796722 261.463141 186.159072 260.971671 
C 185.521421 260.4802 184.656461 260.204056 183.754688 260.204056 
C 182.852914 260.204056 181.987954 260.4802 181.350303 260.971671 
C 180.712653 261.463141 180.354375 262.129812 180.354375 262.824856 
C 180.354375 263.519901 180.712653 264.186571 181.350303 264.678042 
C 181.987954 265.169512 182.852914 265.445656 183.754688 265.445656 
z
" clip-path="url(#p62e7d2fdb4)" style="fill: #1f77b4; opacity: 0.75"/>
   </g>
   <g id="patch_33">
    <path d="M 205.9875 265.445656 
C 206.889273 265.445656 207.754234 265.169512 208.391884 264.678042 
C 209.029534 264.186571 209.387813 263.519901 209.387813 262.824856 
C 209.387813 262.129812 209.029534 261.463141 208.391884 260.971671 
C 207.754234 260.4802 206.889273 260.204056 205.9875 260.204056 
C 205.085727 260.204056 204.220766 260.4802 203.583116 260.971671 
C 202.945466 261.463141 202.587187 262.129812 202.587187 262.824856 
C 202.587187 263.519901 202.945466 264.186571 203.583116 264.678042 
C 204.220766 265.169512 205.085727 265.445656 205.9875 265.445656 
z
" clip-path="url(#p62e7d2fdb4)" style="fill: #1f77b4; opacity: 0.75"/>
   </g>
   <g id="patch_34">
    <path d="M 228.220313 265.445656 
C 229.122086 265.445656 229.987046 265.169512 230.624697 264.678042 
C 231.262347 264.186571 231.620625 263.519901 231.620625 262.824856 
C 231.620625 262.129812 231.262347 261.463141 230.624697 260.971671 
C 229.987046 260.4802 229.122086 260.204056 228.220313 260.204056 
C 227.318539 260.204056 226.453579 260.4802 225.815928 260.971671 
C 225.178278 261.463141 224.82 262.129812 224.82 262.824856 
C 224.82 263.519901 225.178278 264.186571 225.815928 264.678042 
C 226.453579 265.169512 227.318539 265.445656 228.220313 265.445656 
z
" clip-path="url(#p62e7d2fdb4)" style="fill: #1f77b4; opacity: 0.75"/>
   </g>
   <g id="patch_35">
    <path d="M 250.453125 265.445656 
C 251.354898 265.445656 252.219859 265.169512 252.857509 264.678042 
C 253.495159 264.186571 253.853438 263.519901 253.853438 262.824856 
C 253.853438 262.129812 253.495159 261.463141 252.857509 260.971671 
C 252.219859 260.4802 251.354898 260.204056 250.453125 260.204056 
C 249.551352 260.204056 248.686391 260.4802 248.048741 260.971671 
C 247.411091 261.463141 247.052813 262.129812 247.052813 262.824856 
C 247.052813 263.519901 247.411091 264.186571 248.048741 264.678042 
C 248.686391 265.169512 249.551352 265.445656 250.453125 265.445656 
z
" clip-path="url(#p62e7d2fdb4)" style="fill: #1f77b4; opacity: 0.75"/>
   </g>
   <g id="patch_36">
    <path d="M 272.685938 265.445656 
C 273.587711 265.445656 274.452671 265.169512 275.090322 264.678042 
C 275.727972 264.186571 276.08625 263.519901 276.08625 262.824856 
C 276.08625 262.129812 275.727972 261.463141 275.090322 260.971671 
C 274.452671 260.4802 273.587711 260.204056 272.685938 260.204056 
C 271.784164 260.204056 270.919204 260.4802 270.281553 260.971671 
C 269.643903 261.463141 269.285625 262.129812 269.285625 262.824856 
C 269.285625 263.519901 269.643903 264.186571 270.281553 264.678042 
C 270.919204 265.169512 271.784164 265.445656 272.685938 265.445656 
z
" clip-path="url(#p62e7d2fdb4)" style="fill: #1f77b4; opacity: 0.75"/>
   </g>
   <g id="patch_37">
    <path d="M 294.91875 265.445656 
C 295.820523 265.445656 296.685484 265.169512 297.323134 264.678042 
C 297.960784 264.186571 298.319063 263.519901 298.319063 262.824856 
C 298.319063 262.129812 297.960784 261.463141 297.323134 260.971671 
C 296.685484 260.4802 295.820523 260.204056 294.91875 260.204056 
C 294.016977 260.204056 293.152016 260.4802 292.514366 260.971671 
C 291.876716 261.463141 291.518438 262.129812 291.518438 262.824856 
C 291.518438 263.519901 291.876716 264.186571 292.514366 264.678042 
C 293.152016 265.169512 294.016977 265.445656 294.91875 265.445656 
z
" clip-path="url(#p62e7d2fdb4)" style="fill: #1f77b4; opacity: 0.75"/>
   </g>
   <g id="patch_38">
    <path d="M 317.151563 265.445656 
C 318.053336 265.445656 318.918296 265.169512 319.555947 264.678042 
C 320.193597 264.186571 320.551875 263.519901 320.551875 262.824856 
C 320.551875 262.129812 320.193597 261.463141 319.555947 260.971671 
C 318.918296 260.4802 318.053336 260.204056 317.151563 260.204056 
C 316.249789 260.204056 315.384829 260.4802 314.747178 260.971671 
C 314.109528 261.463141 313.75125 262.129812 313.75125 262.824856 
C 313.75125 263.519901 314.109528 264.186571 314.747178 264.678042 
C 315.384829 265.169512 316.249789 265.445656 317.151563 265.445656 
z
" clip-path="url(#p62e7d2fdb4)" style="fill: #1f77b4; opacity: 0.75"/>
   </g>
   <g id="patch_39">
    <path d="M 339.384375 265.445656 
C 340.286148 265.445656 341.151109 265.169512 341.788759 264.678042 
C 342.426409 264.186571 342.784688 263.519901 342.784688 262.824856 
C 342.784688 262.129812 342.426409 261.463141 341.788759 260.971671 
C 341.151109 260.4802 340.286148 260.204056 339.384375 260.204056 
C 338.482602 260.204056 337.617641 260.4802 336.979991 260.971671 
C 336.342341 261.463141 335.984063 262.129812 335.984063 262.824856 
C 335.984063 263.519901 336.342341 264.186571 336.979991 264.678042 
C 337.617641 265.169512 338.482602 265.445656 339.384375 265.445656 
z
" clip-path="url(#p62e7d2fdb4)" style="fill: #1f77b4; opacity: 0.75"/>
   </g>
   <g id="line2d_1">
    <path d="M 114.440625 256.373656 
L 381.234375 256.373656 
" clip-path="url(#p62e7d2fdb4)" style="fill: none; stroke: #1f77b4; stroke-width: 1.5; stroke-linecap: square"/>
   </g>
   <g id="line2d_2">
    <path d="M 114.440625 157.589656 
L 381.234375 157.589656 
" clip-path="url(#p62e7d2fdb4)" style="fill: none; stroke-dasharray: 4.07,1.76; stroke-dashoffset: 0; stroke: #ff7f0e; stroke-width: 1.1"/>
   </g>
   <g id="line2d_3">
    <path d="M 114.440625 256.373656 
L 381.234375 256.373656 
" clip-path="url(#p62e7d2fdb4)" style="fill: none; stroke: #2ca02c; stroke-width: 2; stroke-linecap: square"/>
   </g>
   <g id="text_1">
    <!-- sommità VB -->
    <g transform="translate(43.4625 259.133031) scale(0.1 -0.1)">
     <defs>
      <path id="DejaVuSans-73" d="M 2834 3397 
L 2834 2853 
Q 2591 2978 2328 3040 
Q 2066 3103 1784 3103 
Q 1356 3103 1142 2972 
Q 928 2841 928 2578 
Q 928 2378 1081 2264 
Q 1234 2150 1697 2047 
L 1894 2003 
Q 2506 1872 2764 1633 
Q 3022 1394 3022 966 
Q 3022 478 2636 193 
Q 2250 -91 1575 -91 
Q 1294 -91 989 -36 
Q 684 19 347 128 
L 347 722 
Q 666 556 975 473 
Q 1284 391 1588 391 
Q 1994 391 2212 530 
Q 2431 669 2431 922 
Q 2431 1156 2273 1281 
Q 2116 1406 1581 1522 
L 1381 1569 
Q 847 1681 609 1914 
Q 372 2147 372 2553 
Q 372 3047 722 3315 
Q 1072 3584 1716 3584 
Q 2034 3584 2315 3537 
Q 2597 3491 2834 3397 
z
" transform="scale(0.015625)"/>
      <path id="DejaVuSans-6f" d="M 1959 3097 
Q 1497 3097 1228 2736 
Q 959 2375 959 1747 
Q 959 1119 1226 758 
Q 1494 397 1959 397 
Q 2419 397 2687 759 
Q 2956 1122 2956 1747 
Q 2956 2369 2687 2733 
Q 2419 3097 1959 3097 
z
M 1959 3584 
Q 2709 3584 3137 3096 
Q 3566 2609 3566 1747 
Q 3566 888 3137 398 
Q 2709 -91 1959 -91 
Q 1206 -91 779 398 
Q 353 888 353 1747 
Q 353 2609 779 3096 
Q 1206 3584 1959 3584 
z
" transform="scale(0.015625)"/>
      <path id="DejaVuSans-6d" d="M 3328 2828 
Q 3544 3216 3844 3400 
Q 4144 3584 4550 3584 
Q 5097 3584 5394 3201 
Q 5691 2819 5691 2113 
L 5691 0 
L 5113 0 
L 5113 2094 
Q 5113 2597 4934 2840 
Q 4756 3084 4391 3084 
Q 3944 3084 3684 2787 
Q 3425 2491 3425 1978 
L 3425 0 
L 2847 0 
L 2847 2094 
Q 2847 2600 2669 2842 
Q 2491 3084 2119 3084 
Q 1678 3084 1418 2786 
Q 1159 2488 1159 1978 
L 1159 0 
L 581 0 
L 581 3500 
L 1159 3500 
L 1159 2956 
Q 1356 3278 1631 3431 
Q 1906 3584 2284 3584 
Q 2666 3584 2933 3390 
Q 3200 3197 3328 2828 
z
" transform="scale(0.015625)"/>
      <path id="DejaVuSans-69" d="M 603 3500 
L 1178 3500 
L 1178 0 
L 603 0 
L 603 3500 
z
M 603 4863 
L 1178 4863 
L 1178 4134 
L 603 4134 
L 603 4863 
z
" transform="scale(0.015625)"/>
      <path id="DejaVuSans-74" d="M 1172 4494 
L 1172 3500 
L 2356 3500 
L 2356 3053 
L 1172 3053 
L 1172 1153 
Q 1172 725 1289 603 
Q 1406 481 1766 481 
L 2356 481 
L 2356 0 
L 1766 0 
Q 1100 0 847 248 
Q 594 497 594 1153 
L 594 3053 
L 172 3053 
L 172 3500 
L 594 3500 
L 594 4494 
L 1172 4494 
z
" transform="scale(0.015625)"/>
      <path id="DejaVuSans-e0" d="M 2194 1759 
Q 1497 1759 1228 1600 
Q 959 1441 959 1056 
Q 959 750 1161 570 
Q 1363 391 1709 391 
Q 2188 391 2477 730 
Q 2766 1069 2766 1631 
L 2766 1759 
L 2194 1759 
z
M 3341 1997 
L 3341 0 
L 2766 0 
L 2766 531 
Q 2569 213 2275 61 
Q 1981 -91 1556 -91 
Q 1019 -91 701 211 
Q 384 513 384 1019 
Q 384 1609 779 1909 
Q 1175 2209 1959 2209 
L 2766 2209 
L 2766 2266 
Q 2766 2663 2505 2880 
Q 2244 3097 1772 3097 
Q 1472 3097 1187 3025 
Q 903 2953 641 2809 
L 641 3341 
Q 956 3463 1253 3523 
Q 1550 3584 1831 3584 
Q 2591 3584 2966 3190 
Q 3341 2797 3341 1997 
z
M 1403 5119 
L 2284 3950 
L 1806 3950 
L 787 5119 
L 1403 5119 
z
" transform="scale(0.015625)"/>
      <path id="DejaVuSans-20" transform="scale(0.015625)"/>
      <path id="DejaVuSans-56" d="M 1831 0 
L 50 4666 
L 709 4666 
L 2188 738 
L 3669 4666 
L 4325 4666 
L 2547 0 
L 1831 0 
z
" transform="scale(0.015625)"/>
      <path id="DejaVuSans-42" d="M 1259 2228 
L 1259 519 
L 2272 519 
Q 2781 519 3026 730 
Q 3272 941 3272 1375 
Q 3272 1813 3026 2020 
Q 2781 2228 2272 2228 
L 1259 2228 
z
M 1259 4147 
L 1259 2741 
L 2194 2741 
Q 2656 2741 2882 2914 
Q 3109 3088 3109 3444 
Q 3109 3797 2882 3972 
Q 2656 4147 2194 4147 
L 1259 4147 
z
M 628 4666 
L 2241 4666 
Q 2963 4666 3353 4366 
Q 3744 4066 3744 3513 
Q 3744 3084 3544 2831 
Q 3344 2578 2956 2516 
Q 3422 2416 3680 2098 
Q 3938 1781 3938 1306 
Q 3938 681 3513 340 
Q 3088 0 2303 0 
L 628 0 
L 628 4666 
z
" transform="scale(0.015625)"/>
     </defs>
     <use xlink:href="#DejaVuSans-73"/>
     <use xlink:href="#DejaVuSans-6f" transform="translate(52.099609 0)"/>
     <use xlink:href="#DejaVuSans-6d" transform="translate(113.28125 0)"/>
     <use xlink:href="#DejaVuSans-6d" transform="translate(210.693359 0)"/>
     <use xlink:href="#DejaVuSans-69" transform="translate(308.105469 0)"/>
     <use xlink:href="#DejaVuSans-74" transform="translate(335.888672 0)"/>
     <use xlink:href="#DejaVuSans-e0" transform="translate(375.097656 0)"/>
     <use xlink:href="#DejaVuSans-20" transform="translate(436.376953 0)"/>
     <use xlink:href="#DejaVuSans-56" transform="translate(468.164062 0)"/>
     <use xlink:href="#DejaVuSans-42" transform="translate(536.572266 0)"/>
    </g>
   </g>
   <g id="text_2">
    <!-- fondo CB -->
    <g transform="translate(58.5125 160.349031) scale(0.1 -0.1)">
     <defs>
      <path id="DejaVuSans-66" d="M 2375 4863 
L 2375 4384 
L 1825 4384 
Q 1516 4384 1395 4259 
Q 1275 4134 1275 3809 
L 1275 3500 
L 2222 3500 
L 2222 3053 
L 1275 3053 
L 1275 0 
L 697 0 
L 697 3053 
L 147 3053 
L 147 3500 
L 697 3500 
L 697 3744 
Q 697 4328 969 4595 
Q 1241 4863 1831 4863 
L 2375 4863 
z
" transform="scale(0.015625)"/>
      <path id="DejaVuSans-6e" d="M 3513 2113 
L 3513 0 
L 2938 0 
L 2938 2094 
Q 2938 2591 2744 2837 
Q 2550 3084 2163 3084 
Q 1697 3084 1428 2787 
Q 1159 2491 1159 1978 
L 1159 0 
L 581 0 
L 581 3500 
L 1159 3500 
L 1159 2956 
Q 1366 3272 1645 3428 
Q 1925 3584 2291 3584 
Q 2894 3584 3203 3211 
Q 3513 2838 3513 2113 
z
" transform="scale(0.015625)"/>
      <path id="DejaVuSans-64" d="M 2906 2969 
L 2906 4863 
L 3481 4863 
L 3481 0 
L 2906 0 
L 2906 525 
Q 2725 213 2448 61 
Q 2172 -91 1784 -91 
Q 1150 -91 751 415 
Q 353 922 353 1747 
Q 353 2572 751 3078 
Q 1150 3584 1784 3584 
Q 2172 3584 2448 3432 
Q 2725 3281 2906 2969 
z
M 947 1747 
Q 947 1113 1208 752 
Q 1469 391 1925 391 
Q 2381 391 2643 752 
Q 2906 1113 2906 1747 
Q 2906 2381 2643 2742 
Q 2381 3103 1925 3103 
Q 1469 3103 1208 2742 
Q 947 2381 947 1747 
z
" transform="scale(0.015625)"/>
      <path id="DejaVuSans-43" d="M 4122 4306 
L 4122 3641 
Q 3803 3938 3442 4084 
Q 3081 4231 2675 4231 
Q 1875 4231 1450 3742 
Q 1025 3253 1025 2328 
Q 1025 1406 1450 917 
Q 1875 428 2675 428 
Q 3081 428 3442 575 
Q 3803 722 4122 1019 
L 4122 359 
Q 3791 134 3420 21 
Q 3050 -91 2638 -91 
Q 1578 -91 968 557 
Q 359 1206 359 2328 
Q 359 3453 968 4101 
Q 1578 4750 2638 4750 
Q 3056 4750 3426 4639 
Q 3797 4528 4122 4306 
z
" transform="scale(0.015625)"/>
     </defs>
     <use xlink:href="#DejaVuSans-66"/>
     <use xlink:href="#DejaVuSans-6f" transform="translate(35.205078 0)"/>
     <use xlink:href="#DejaVuSans-6e" transform="translate(96.386719 0)"/>
     <use xlink:href="#DejaVuSans-64" transform="translate(159.765625 0)"/>
     <use xlink:href="#DejaVuSans-6f" transform="translate(223.242188 0)"/>
     <use xlink:href="#DejaVuSans-20" transform="translate(284.423828 0)"/>
     <use xlink:href="#DejaVuSans-43" transform="translate(316.210938 0)"/>
     <use xlink:href="#DejaVuSans-42" transform="translate(386.035156 0)"/>
    </g>
   </g>
   <g id="text_3">
    <!-- $E_F$ -->
    <g transform="translate(391.696875 259.408969) scale(0.11 -0.11)">
     <defs>
      <path id="DejaVuSans-Oblique-45" d="M 1081 4666 
L 4031 4666 
L 3928 4134 
L 1606 4134 
L 1338 2753 
L 3566 2753 
L 3463 2222 
L 1234 2222 
L 909 531 
L 3284 531 
L 3181 0 
L 172 0 
L 1081 4666 
z
" transform="scale(0.015625)"/>
      <path id="DejaVuSans-Oblique-46" d="M 1081 4666 
L 3756 4666 
L 3653 4134 
L 1606 4134 
L 1338 2759 
L 3188 2759 
L 3084 2228 
L 1234 2228 
L 800 0 
L 172 0 
L 1081 4666 
z
" transform="scale(0.015625)"/>
     </defs>
     <use xlink:href="#DejaVuSans-Oblique-45" transform="translate(0 0.09375)"/>
     <use xlink:href="#DejaVuSans-Oblique-46" transform="translate(63.183594 -16.3125) scale(0.7)"/>
    </g>
   </g>
   <g id="patch_40">
    <path d="M 404.775 252.9215 
Q 404.775 206.982112 404.775 161.042723 
" style="fill: none; stroke: #000000; stroke-width: 1.3; stroke-linecap: round"/>
    <path d="M 406.775 248.9215 
L 404.775 252.9215 
L 402.775 248.9215 
" style="fill: none; stroke: #000000; stroke-width: 1.3; stroke-linecap: round"/>
    <path d="M 402.775 165.042723 
L 404.775 161.042723 
L 406.775 165.042723 
" style="fill: none; stroke: #000000; stroke-width: 1.3; stroke-linecap: round"/>
   </g>
   <g id="text_4">
    <!-- $E_{\mathrm{gap}}$ -->
    <g transform="translate(417.853125 209.291656) scale(0.11 -0.11)">
     <defs>
      <path id="DejaVuSans-67" d="M 2906 1791 
Q 2906 2416 2648 2759 
Q 2391 3103 1925 3103 
Q 1463 3103 1205 2759 
Q 947 2416 947 1791 
Q 947 1169 1205 825 
Q 1463 481 1925 481 
Q 2391 481 2648 825 
Q 2906 1169 2906 1791 
z
M 3481 434 
Q 3481 -459 3084 -895 
Q 2688 -1331 1869 -1331 
Q 1566 -1331 1297 -1286 
Q 1028 -1241 775 -1147 
L 775 -588 
Q 1028 -725 1275 -790 
Q 1522 -856 1778 -856 
Q 2344 -856 2625 -561 
Q 2906 -266 2906 331 
L 2906 616 
Q 2728 306 2450 153 
Q 2172 0 1784 0 
Q 1141 0 747 490 
Q 353 981 353 1791 
Q 353 2603 747 3093 
Q 1141 3584 1784 3584 
Q 2172 3584 2450 3431 
Q 2728 3278 2906 2969 
L 2906 3500 
L 3481 3500 
L 3481 434 
z
" transform="scale(0.015625)"/>
      <path id="DejaVuSans-61" d="M 2194 1759 
Q 1497 1759 1228 1600 
Q 959 1441 959 1056 
Q 959 750 1161 570 
Q 1363 391 1709 391 
Q 2188 391 2477 730 
Q 2766 1069 2766 1631 
L 2766 1759 
L 2194 1759 
z
M 3341 1997 
L 3341 0 
L 2766 0 
L 2766 531 
Q 2569 213 2275 61 
Q 1981 -91 1556 -91 
Q 1019 -91 701 211 
Q 384 513 384 1019 
Q 384 1609 779 1909 
Q 1175 2209 1959 2209 
L 2766 2209 
L 2766 2266 
Q 2766 2663 2505 2880 
Q 2244 3097 1772 3097 
Q 1472 3097 1187 3025 
Q 903 2953 641 2809 
L 641 3341 
Q 956 3463 1253 3523 
Q 1550 3584 1831 3584 
Q 2591 3584 2966 3190 
Q 3341 2797 3341 1997 
z
" transform="scale(0.015625)"/>
      <path id="DejaVuSans-70" d="M 1159 525 
L 1159 -1331 
L 581 -1331 
L 581 3500 
L 1159 3500 
L 1159 2969 
Q 1341 3281 1617 3432 
Q 1894 3584 2278 3584 
Q 2916 3584 3314 3078 
Q 3713 2572 3713 1747 
Q 3713 922 3314 415 
Q 2916 -91 2278 -91 
Q 1894 -91 1617 61 
Q 1341 213 1159 525 
z
M 3116 1747 
Q 3116 2381 2855 2742 
Q 2594 3103 2138 3103 
Q 1681 3103 1420 2742 
Q 1159 2381 1159 1747 
Q 1159 1113 1420 752 
Q 1681 391 2138 391 
Q 2594 391 2855 752 
Q 3116 1113 3116 1747 
z
" transform="scale(0.015625)"/>
     </defs>
     <use xlink:href="#DejaVuSans-Oblique-45" transform="translate(0 0.09375)"/>
     <use xlink:href="#DejaVuSans-67" transform="translate(63.183594 -16.3125) scale(0.7)"/>
     <use xlink:href="#DejaVuSans-61" transform="translate(107.617188 -16.3125) scale(0.7)"/>
     <use xlink:href="#DejaVuSans-70" transform="translate(150.512695 -16.3125) scale(0.7)"/>
    </g>
   </g>
   <g id="patch_41">
    <path d="M 376.003125 154.469034 
Q 376.003125 122.306345 376.003125 90.143655 
" style="fill: none; stroke: #000000; stroke-linecap: round"/>
    <path d="M 378.003125 150.469034 
L 376.003125 154.469034 
L 374.003125 150.469034 
" style="fill: none; stroke: #000000; stroke-linecap: round"/>
    <path d="M 374.003125 94.143655 
L 376.003125 90.143655 
L 378.003125 94.143655 
" style="fill: none; stroke: #000000; stroke-linecap: round"/>
   </g>
   <g id="text_5">
    <!-- stati vuoti -->
    <g transform="translate(389.08125 124.793094) scale(0.09 -0.09)">
     <defs>
      <path id="DejaVuSans-76" d="M 191 3500 
L 800 3500 
L 1894 563 
L 2988 3500 
L 3597 3500 
L 2284 0 
L 1503 0 
L 191 3500 
z
" transform="scale(0.015625)"/>
      <path id="DejaVuSans-75" d="M 544 1381 
L 544 3500 
L 1119 3500 
L 1119 1403 
Q 1119 906 1312 657 
Q 1506 409 1894 409 
Q 2359 409 2629 706 
Q 2900 1003 2900 1516 
L 2900 3500 
L 3475 3500 
L 3475 0 
L 2900 0 
L 2900 538 
Q 2691 219 2414 64 
Q 2138 -91 1772 -91 
Q 1169 -91 856 284 
Q 544 659 544 1381 
z
M 1991 3584 
L 1991 3584 
z
" transform="scale(0.015625)"/>
     </defs>
     <use xlink:href="#DejaVuSans-73"/>
     <use xlink:href="#DejaVuSans-74" transform="translate(52.099609 0)"/>
     <use xlink:href="#DejaVuSans-61" transform="translate(91.308594 0)"/>
     <use xlink:href="#DejaVuSans-74" transform="translate(152.587891 0)"/>
     <use xlink:href="#DejaVuSans-69" transform="translate(191.796875 0)"/>
     <use xlink:href="#DejaVuSans-20" transform="translate(219.580078 0)"/>
     <use xlink:href="#DejaVuSans-76" transform="translate(251.367188 0)"/>
     <use xlink:href="#DejaVuSans-75" transform="translate(310.546875 0)"/>
     <use xlink:href="#DejaVuSans-6f" transform="translate(373.925781 0)"/>
     <use xlink:href="#DejaVuSans-74" transform="translate(435.107422 0)"/>
     <use xlink:href="#DejaVuSans-69" transform="translate(474.316406 0)"/>
    </g>
   </g>
   <g id="patch_42">
    <path d="M 376.003125 311.717773 
Q 376.003125 285.605846 376.003125 259.493919 
" style="fill: none; stroke: #000000; stroke-linecap: round"/>
    <path d="M 378.003125 307.717773 
L 376.003125 311.717773 
L 374.003125 307.717773 
" style="fill: none; stroke: #000000; stroke-linecap: round"/>
    <path d="M 374.003125 263.493919 
L 376.003125 259.493919 
L 378.003125 263.493919 
" style="fill: none; stroke: #000000; stroke-linecap: round"/>
   </g>
   <g id="text_6">
    <!-- stati occupati -->
    <g transform="translate(389.08125 288.089094) scale(0.09 -0.09)">
     <defs>
      <path id="DejaVuSans-63" d="M 3122 3366 
L 3122 2828 
Q 2878 2963 2633 3030 
Q 2388 3097 2138 3097 
Q 1578 3097 1268 2742 
Q 959 2388 959 1747 
Q 959 1106 1268 751 
Q 1578 397 2138 397 
Q 2388 397 2633 464 
Q 2878 531 3122 666 
L 3122 134 
Q 2881 22 2623 -34 
Q 2366 -91 2075 -91 
Q 1284 -91 818 406 
Q 353 903 353 1747 
Q 353 2603 823 3093 
Q 1294 3584 2113 3584 
Q 2378 3584 2631 3529 
Q 2884 3475 3122 3366 
z
" transform="scale(0.015625)"/>
     </defs>
     <use xlink:href="#DejaVuSans-73"/>
     <use xlink:href="#DejaVuSans-74" transform="translate(52.099609 0)"/>
     <use xlink:href="#DejaVuSans-61" transform="translate(91.308594 0)"/>
     <use xlink:href="#DejaVuSans-74" transform="translate(152.587891 0)"/>
     <use xlink:href="#DejaVuSans-69" transform="translate(191.796875 0)"/>
     <use xlink:href="#DejaVuSans-20" transform="translate(219.580078 0)"/>
     <use xlink:href="#DejaVuSans-6f" transform="translate(251.367188 0)"/>
     <use xlink:href="#DejaVuSans-63" transform="translate(312.548828 0)"/>
     <use xlink:href="#DejaVuSans-63" transform="translate(367.529297 0)"/>
     <use xlink:href="#DejaVuSans-75" transform="translate(422.509766 0)"/>
     <use xlink:href="#DejaVuSans-70" transform="translate(485.888672 0)"/>
     <use xlink:href="#DejaVuSans-61" transform="translate(549.365234 0)"/>
     <use xlink:href="#DejaVuSans-74" transform="translate(610.644531 0)"/>
     <use xlink:href="#DejaVuSans-69" transform="translate(649.853516 0)"/>
    </g>
   </g>
   <g id="text_7">
    <!-- banda di conduzione (CB) -->
    <g transform="translate(171.101016 72.917656) scale(0.11 -0.11)">
     <defs>
      <path id="DejaVuSans-Bold-62" d="M 2400 722 
Q 2759 722 2948 984 
Q 3138 1247 3138 1747 
Q 3138 2247 2948 2509 
Q 2759 2772 2400 2772 
Q 2041 2772 1848 2508 
Q 1656 2244 1656 1747 
Q 1656 1250 1848 986 
Q 2041 722 2400 722 
z
M 1656 2988 
Q 1888 3294 2169 3439 
Q 2450 3584 2816 3584 
Q 3463 3584 3878 3070 
Q 4294 2556 4294 1747 
Q 4294 938 3878 423 
Q 3463 -91 2816 -91 
Q 2450 -91 2169 54 
Q 1888 200 1656 506 
L 1656 0 
L 538 0 
L 538 4863 
L 1656 4863 
L 1656 2988 
z
" transform="scale(0.015625)"/>
      <path id="DejaVuSans-Bold-61" d="M 2106 1575 
Q 1756 1575 1579 1456 
Q 1403 1338 1403 1106 
Q 1403 894 1545 773 
Q 1688 653 1941 653 
Q 2256 653 2472 879 
Q 2688 1106 2688 1447 
L 2688 1575 
L 2106 1575 
z
M 3816 1997 
L 3816 0 
L 2688 0 
L 2688 519 
Q 2463 200 2181 54 
Q 1900 -91 1497 -91 
Q 953 -91 614 226 
Q 275 544 275 1050 
Q 275 1666 698 1953 
Q 1122 2241 2028 2241 
L 2688 2241 
L 2688 2328 
Q 2688 2594 2478 2717 
Q 2269 2841 1825 2841 
Q 1466 2841 1156 2769 
Q 847 2697 581 2553 
L 581 3406 
Q 941 3494 1303 3539 
Q 1666 3584 2028 3584 
Q 2975 3584 3395 3211 
Q 3816 2838 3816 1997 
z
" transform="scale(0.015625)"/>
      <path id="DejaVuSans-Bold-6e" d="M 4056 2131 
L 4056 0 
L 2931 0 
L 2931 347 
L 2931 1631 
Q 2931 2084 2911 2256 
Q 2891 2428 2841 2509 
Q 2775 2619 2662 2680 
Q 2550 2741 2406 2741 
Q 2056 2741 1856 2470 
Q 1656 2200 1656 1722 
L 1656 0 
L 538 0 
L 538 3500 
L 1656 3500 
L 1656 2988 
Q 1909 3294 2193 3439 
Q 2478 3584 2822 3584 
Q 3428 3584 3742 3212 
Q 4056 2841 4056 2131 
z
" transform="scale(0.015625)"/>
      <path id="DejaVuSans-Bold-64" d="M 2919 2988 
L 2919 4863 
L 4044 4863 
L 4044 0 
L 2919 0 
L 2919 506 
Q 2688 197 2409 53 
Q 2131 -91 1766 -91 
Q 1119 -91 703 423 
Q 288 938 288 1747 
Q 288 2556 703 3070 
Q 1119 3584 1766 3584 
Q 2128 3584 2408 3439 
Q 2688 3294 2919 2988 
z
M 2181 722 
Q 2541 722 2730 984 
Q 2919 1247 2919 1747 
Q 2919 2247 2730 2509 
Q 2541 2772 2181 2772 
Q 1825 2772 1636 2509 
Q 1447 2247 1447 1747 
Q 1447 1247 1636 984 
Q 1825 722 2181 722 
z
" transform="scale(0.015625)"/>
      <path id="DejaVuSans-Bold-20" transform="scale(0.015625)"/>
      <path id="DejaVuSans-Bold-69" d="M 538 3500 
L 1656 3500 
L 1656 0 
L 538 0 
L 538 3500 
z
M 538 4863 
L 1656 4863 
L 1656 3950 
L 538 3950 
L 538 4863 
z
" transform="scale(0.015625)"/>
      <path id="DejaVuSans-Bold-63" d="M 3366 3391 
L 3366 2478 
Q 3138 2634 2908 2709 
Q 2678 2784 2431 2784 
Q 1963 2784 1702 2511 
Q 1441 2238 1441 1747 
Q 1441 1256 1702 982 
Q 1963 709 2431 709 
Q 2694 709 2930 787 
Q 3166 866 3366 1019 
L 3366 103 
Q 3103 6 2833 -42 
Q 2563 -91 2291 -91 
Q 1344 -91 809 395 
Q 275 881 275 1747 
Q 275 2613 809 3098 
Q 1344 3584 2291 3584 
Q 2566 3584 2833 3536 
Q 3100 3488 3366 3391 
z
" transform="scale(0.015625)"/>
      <path id="DejaVuSans-Bold-6f" d="M 2203 2784 
Q 1831 2784 1636 2517 
Q 1441 2250 1441 1747 
Q 1441 1244 1636 976 
Q 1831 709 2203 709 
Q 2569 709 2762 976 
Q 2956 1244 2956 1747 
Q 2956 2250 2762 2517 
Q 2569 2784 2203 2784 
z
M 2203 3584 
Q 3106 3584 3614 3096 
Q 4122 2609 4122 1747 
Q 4122 884 3614 396 
Q 3106 -91 2203 -91 
Q 1297 -91 786 396 
Q 275 884 275 1747 
Q 275 2609 786 3096 
Q 1297 3584 2203 3584 
z
" transform="scale(0.015625)"/>
      <path id="DejaVuSans-Bold-75" d="M 500 1363 
L 500 3500 
L 1625 3500 
L 1625 3150 
Q 1625 2866 1622 2436 
Q 1619 2006 1619 1863 
Q 1619 1441 1641 1255 
Q 1663 1069 1716 984 
Q 1784 875 1895 815 
Q 2006 756 2150 756 
Q 2500 756 2700 1025 
Q 2900 1294 2900 1772 
L 2900 3500 
L 4019 3500 
L 4019 0 
L 2900 0 
L 2900 506 
Q 2647 200 2364 54 
Q 2081 -91 1741 -91 
Q 1134 -91 817 281 
Q 500 653 500 1363 
z
" transform="scale(0.015625)"/>
      <path id="DejaVuSans-Bold-7a" d="M 366 3500 
L 3419 3500 
L 3419 2719 
L 1575 800 
L 3419 800 
L 3419 0 
L 288 0 
L 288 781 
L 2131 2700 
L 366 2700 
L 366 3500 
z
" transform="scale(0.015625)"/>
      <path id="DejaVuSans-Bold-65" d="M 4031 1759 
L 4031 1441 
L 1416 1441 
Q 1456 1047 1700 850 
Q 1944 653 2381 653 
Q 2734 653 3104 758 
Q 3475 863 3866 1075 
L 3866 213 
Q 3469 63 3072 -14 
Q 2675 -91 2278 -91 
Q 1328 -91 801 392 
Q 275 875 275 1747 
Q 275 2603 792 3093 
Q 1309 3584 2216 3584 
Q 3041 3584 3536 3087 
Q 4031 2591 4031 1759 
z
M 2881 2131 
Q 2881 2450 2695 2645 
Q 2509 2841 2209 2841 
Q 1884 2841 1681 2658 
Q 1478 2475 1428 2131 
L 2881 2131 
z
" transform="scale(0.015625)"/>
      <path id="DejaVuSans-Bold-28" d="M 2413 -844 
L 1484 -844 
Q 1006 -72 778 623 
Q 550 1319 550 2003 
Q 550 2688 779 3389 
Q 1009 4091 1484 4856 
L 2413 4856 
Q 2013 4116 1813 3408 
Q 1613 2700 1613 2009 
Q 1613 1319 1811 609 
Q 2009 -100 2413 -844 
z
" transform="scale(0.015625)"/>
      <path id="DejaVuSans-Bold-43" d="M 4288 256 
Q 3956 84 3597 -3 
Q 3238 -91 2847 -91 
Q 1681 -91 1000 561 
Q 319 1213 319 2328 
Q 319 3447 1000 4098 
Q 1681 4750 2847 4750 
Q 3238 4750 3597 4662 
Q 3956 4575 4288 4403 
L 4288 3438 
Q 3953 3666 3628 3772 
Q 3303 3878 2944 3878 
Q 2300 3878 1931 3465 
Q 1563 3053 1563 2328 
Q 1563 1606 1931 1193 
Q 2300 781 2944 781 
Q 3303 781 3628 887 
Q 3953 994 4288 1222 
L 4288 256 
z
" transform="scale(0.015625)"/>
      <path id="DejaVuSans-Bold-42" d="M 2456 2859 
Q 2741 2859 2887 2984 
Q 3034 3109 3034 3353 
Q 3034 3594 2887 3720 
Q 2741 3847 2456 3847 
L 1791 3847 
L 1791 2859 
L 2456 2859 
z
M 2497 819 
Q 2859 819 3042 972 
Q 3225 1125 3225 1434 
Q 3225 1738 3044 1889 
Q 2863 2041 2497 2041 
L 1791 2041 
L 1791 819 
L 2497 819 
z
M 3616 2497 
Q 4003 2384 4215 2081 
Q 4428 1778 4428 1338 
Q 4428 663 3972 331 
Q 3516 0 2584 0 
L 588 0 
L 588 4666 
L 2394 4666 
Q 3366 4666 3802 4372 
Q 4238 4078 4238 3431 
Q 4238 3091 4078 2852 
Q 3919 2613 3616 2497 
z
" transform="scale(0.015625)"/>
      <path id="DejaVuSans-Bold-29" d="M 513 -844 
Q 913 -100 1113 609 
Q 1313 1319 1313 2009 
Q 1313 2700 1113 3408 
Q 913 4116 513 4856 
L 1441 4856 
Q 1916 4091 2145 3389 
Q 2375 2688 2375 2003 
Q 2375 1319 2147 623 
Q 1919 -72 1441 -844 
L 513 -844 
z
" transform="scale(0.015625)"/>
     </defs>
     <use xlink:href="#DejaVuSans-Bold-62"/>
     <use xlink:href="#DejaVuSans-Bold-61" transform="translate(71.582031 0)"/>
     <use xlink:href="#DejaVuSans-Bold-6e" transform="translate(139.0625 0)"/>
     <use xlink:href="#DejaVuSans-Bold-64" transform="translate(210.253906 0)"/>
     <use xlink:href="#DejaVuSans-Bold-61" transform="translate(281.835938 0)"/>
     <use xlink:href="#DejaVuSans-Bold-20" transform="translate(349.316406 0)"/>
     <use xlink:href="#DejaVuSans-Bold-64" transform="translate(384.130859 0)"/>
     <use xlink:href="#DejaVuSans-Bold-69" transform="translate(455.712891 0)"/>
     <use xlink:href="#DejaVuSans-Bold-20" transform="translate(489.990234 0)"/>
     <use xlink:href="#DejaVuSans-Bold-63" transform="translate(524.804688 0)"/>
     <use xlink:href="#DejaVuSans-Bold-6f" transform="translate(584.082031 0)"/>
     <use xlink:href="#DejaVuSans-Bold-6e" transform="translate(652.783203 0)"/>
     <use xlink:href="#DejaVuSans-Bold-64" transform="translate(723.974609 0)"/>
     <use xlink:href="#DejaVuSans-Bold-75" transform="translate(795.556641 0)"/>
     <use xlink:href="#DejaVuSans-Bold-7a" transform="translate(866.748047 0)"/>
     <use xlink:href="#DejaVuSans-Bold-69" transform="translate(924.951172 0)"/>
     <use xlink:href="#DejaVuSans-Bold-6f" transform="translate(959.228516 0)"/>
     <use xlink:href="#DejaVuSans-Bold-6e" transform="translate(1027.929688 0)"/>
     <use xlink:href="#DejaVuSans-Bold-65" transform="translate(1099.121094 0)"/>
     <use xlink:href="#DejaVuSans-Bold-20" transform="translate(1166.943359 0)"/>
     <use xlink:href="#DejaVuSans-Bold-28" transform="translate(1201.757812 0)"/>
     <use xlink:href="#DejaVuSans-Bold-43" transform="translate(1247.460938 0)"/>
     <use xlink:href="#DejaVuSans-Bold-42" transform="translate(1320.849609 0)"/>
     <use xlink:href="#DejaVuSans-Bold-29" transform="translate(1397.070312 0)"/>
    </g>
   </g>
   <g id="text_8">
    <!-- banda di valenza (VB) -->
    <g transform="translate(182.457656 332.981656) scale(0.11 -0.11)">
     <defs>
      <path id="DejaVuSans-Bold-76" d="M 97 3500 
L 1216 3500 
L 2088 1081 
L 2956 3500 
L 4078 3500 
L 2700 0 
L 1472 0 
L 97 3500 
z
" transform="scale(0.015625)"/>
      <path id="DejaVuSans-Bold-6c" d="M 538 4863 
L 1656 4863 
L 1656 0 
L 538 0 
L 538 4863 
z
" transform="scale(0.015625)"/>
      <path id="DejaVuSans-Bold-56" d="M 31 4666 
L 1241 4666 
L 2478 1222 
L 3713 4666 
L 4922 4666 
L 3194 0 
L 1759 0 
L 31 4666 
z
" transform="scale(0.015625)"/>
     </defs>
     <use xlink:href="#DejaVuSans-Bold-62"/>
     <use xlink:href="#DejaVuSans-Bold-61" transform="translate(71.582031 0)"/>
     <use xlink:href="#DejaVuSans-Bold-6e" transform="translate(139.0625 0)"/>
     <use xlink:href="#DejaVuSans-Bold-64" transform="translate(210.253906 0)"/>
     <use xlink:href="#DejaVuSans-Bold-61" transform="translate(281.835938 0)"/>
     <use xlink:href="#DejaVuSans-Bold-20" transform="translate(349.316406 0)"/>
     <use xlink:href="#DejaVuSans-Bold-64" transform="translate(384.130859 0)"/>
     <use xlink:href="#DejaVuSans-Bold-69" transform="translate(455.712891 0)"/>
     <use xlink:href="#DejaVuSans-Bold-20" transform="translate(489.990234 0)"/>
     <use xlink:href="#DejaVuSans-Bold-76" transform="translate(524.804688 0)"/>
     <use xlink:href="#DejaVuSans-Bold-61" transform="translate(589.990234 0)"/>
     <use xlink:href="#DejaVuSans-Bold-6c" transform="translate(657.470703 0)"/>
     <use xlink:href="#DejaVuSans-Bold-65" transform="translate(691.748047 0)"/>
     <use xlink:href="#DejaVuSans-Bold-6e" transform="translate(759.570312 0)"/>
     <use xlink:href="#DejaVuSans-Bold-7a" transform="translate(830.761719 0)"/>
     <use xlink:href="#DejaVuSans-Bold-61" transform="translate(888.964844 0)"/>
     <use xlink:href="#DejaVuSans-Bold-20" transform="translate(956.445312 0)"/>
     <use xlink:href="#DejaVuSans-Bold-28" transform="translate(991.259766 0)"/>
     <use xlink:href="#DejaVuSans-Bold-56" transform="translate(1036.962891 0)"/>
     <use xlink:href="#DejaVuSans-Bold-42" transform="translate(1114.355469 0)"/>
     <use xlink:href="#DejaVuSans-Bold-29" transform="translate(1190.576172 0)"/>
    </g>
   </g>
   <g id="text_9">
    <!-- T = 0 K -->
    <g transform="translate(54.28125 58.805656) scale(0.13 -0.13)">
     <defs>
      <path id="DejaVuSans-54" d="M -19 4666 
L 3928 4666 
L 3928 4134 
L 2272 4134 
L 2272 0 
L 1638 0 
L 1638 4134 
L -19 4134 
L -19 4666 
z
" transform="scale(0.015625)"/>
      <path id="DejaVuSans-3d" d="M 678 2906 
L 4684 2906 
L 4684 2381 
L 678 2381 
L 678 2906 
z
M 678 1631 
L 4684 1631 
L 4684 1100 
L 678 1100 
L 678 1631 
z
" transform="scale(0.015625)"/>
      <path id="DejaVuSans-30" d="M 2034 4250 
Q 1547 4250 1301 3770 
Q 1056 3291 1056 2328 
Q 1056 1369 1301 889 
Q 1547 409 2034 409 
Q 2525 409 2770 889 
Q 3016 1369 3016 2328 
Q 3016 3291 2770 3770 
Q 2525 4250 2034 4250 
z
M 2034 4750 
Q 2819 4750 3233 4129 
Q 3647 3509 3647 2328 
Q 3647 1150 3233 529 
Q 2819 -91 2034 -91 
Q 1250 -91 836 529 
Q 422 1150 422 2328 
Q 422 3509 836 4129 
Q 1250 4750 2034 4750 
z
" transform="scale(0.015625)"/>
      <path id="DejaVuSans-4b" d="M 628 4666 
L 1259 4666 
L 1259 2694 
L 3353 4666 
L 4166 4666 
L 1850 2491 
L 4331 0 
L 3500 0 
L 1259 2247 
L 1259 0 
L 628 0 
L 628 4666 
z
" transform="scale(0.015625)"/>
     </defs>
     <use xlink:href="#DejaVuSans-54"/>
     <use xlink:href="#DejaVuSans-20" transform="translate(61.083984 0)"/>
     <use xlink:href="#DejaVuSans-3d" transform="translate(92.871094 0)"/>
     <use xlink:href="#DejaVuSans-20" transform="translate(176.660156 0)"/>
     <use xlink:href="#DejaVuSans-30" transform="translate(208.447266 0)"/>
     <use xlink:href="#DejaVuSans-20" transform="translate(272.070312 0)"/>
     <use xlink:href="#DejaVuSans-4b" transform="translate(303.857422 0)"/>
    </g>
   </g>
   <g id="text_10">
    <!-- Sono mostrate soltanto la banda di valenza più alta e la prima banda di conduzione. -->
    <g transform="translate(46.939063 371.285656) scale(0.1 -0.1)">
     <defs>
      <path id="DejaVuSans-53" d="M 3425 4513 
L 3425 3897 
Q 3066 4069 2747 4153 
Q 2428 4238 2131 4238 
Q 1616 4238 1336 4038 
Q 1056 3838 1056 3469 
Q 1056 3159 1242 3001 
Q 1428 2844 1947 2747 
L 2328 2669 
Q 3034 2534 3370 2195 
Q 3706 1856 3706 1288 
Q 3706 609 3251 259 
Q 2797 -91 1919 -91 
Q 1588 -91 1214 -16 
Q 841 59 441 206 
L 441 856 
Q 825 641 1194 531 
Q 1563 422 1919 422 
Q 2459 422 2753 634 
Q 3047 847 3047 1241 
Q 3047 1584 2836 1778 
Q 2625 1972 2144 2069 
L 1759 2144 
Q 1053 2284 737 2584 
Q 422 2884 422 3419 
Q 422 4038 858 4394 
Q 1294 4750 2059 4750 
Q 2388 4750 2728 4690 
Q 3069 4631 3425 4513 
z
" transform="scale(0.015625)"/>
      <path id="DejaVuSans-72" d="M 2631 2963 
Q 2534 3019 2420 3045 
Q 2306 3072 2169 3072 
Q 1681 3072 1420 2755 
Q 1159 2438 1159 1844 
L 1159 0 
L 581 0 
L 581 3500 
L 1159 3500 
L 1159 2956 
Q 1341 3275 1631 3429 
Q 1922 3584 2338 3584 
Q 2397 3584 2469 3576 
Q 2541 3569 2628 3553 
L 2631 2963 
z
" transform="scale(0.015625)"/>
      <path id="DejaVuSans-65" d="M 3597 1894 
L 3597 1613 
L 953 1613 
Q 991 1019 1311 708 
Q 1631 397 2203 397 
Q 2534 397 2845 478 
Q 3156 559 3463 722 
L 3463 178 
Q 3153 47 2828 -22 
Q 2503 -91 2169 -91 
Q 1331 -91 842 396 
Q 353 884 353 1716 
Q 353 2575 817 3079 
Q 1281 3584 2069 3584 
Q 2775 3584 3186 3129 
Q 3597 2675 3597 1894 
z
M 3022 2063 
Q 3016 2534 2758 2815 
Q 2500 3097 2075 3097 
Q 1594 3097 1305 2825 
Q 1016 2553 972 2059 
L 3022 2063 
z
" transform="scale(0.015625)"/>
      <path id="DejaVuSans-6c" d="M 603 4863 
L 1178 4863 
L 1178 0 
L 603 0 
L 603 4863 
z
" transform="scale(0.015625)"/>
      <path id="DejaVuSans-62" d="M 3116 1747 
Q 3116 2381 2855 2742 
Q 2594 3103 2138 3103 
Q 1681 3103 1420 2742 
Q 1159 2381 1159 1747 
Q 1159 1113 1420 752 
Q 1681 391 2138 391 
Q 2594 391 2855 752 
Q 3116 1113 3116 1747 
z
M 1159 2969 
Q 1341 3281 1617 3432 
Q 1894 3584 2278 3584 
Q 2916 3584 3314 3078 
Q 3713 2572 3713 1747 
Q 3713 922 3314 415 
Q 2916 -91 2278 -91 
Q 1894 -91 1617 61 
Q 1341 213 1159 525 
L 1159 0 
L 581 0 
L 581 4863 
L 1159 4863 
L 1159 2969 
z
" transform="scale(0.015625)"/>
      <path id="DejaVuSans-7a" d="M 353 3500 
L 3084 3500 
L 3084 2975 
L 922 459 
L 3084 459 
L 3084 0 
L 275 0 
L 275 525 
L 2438 3041 
L 353 3041 
L 353 3500 
z
" transform="scale(0.015625)"/>
      <path id="DejaVuSans-f9" d="M 544 1381 
L 544 3500 
L 1119 3500 
L 1119 1403 
Q 1119 906 1312 657 
Q 1506 409 1894 409 
Q 2359 409 2629 706 
Q 2900 1003 2900 1516 
L 2900 3500 
L 3475 3500 
L 3475 0 
L 2900 0 
L 2900 538 
Q 2691 219 2414 64 
Q 2138 -91 1772 -91 
Q 1169 -91 856 284 
Q 544 659 544 1381 
z
M 1991 3584 
L 1991 3584 
z
M 1531 5119 
L 2412 3950 
L 1934 3950 
L 915 5119 
L 1531 5119 
z
" transform="scale(0.015625)"/>
      <path id="DejaVuSans-2e" d="M 684 794 
L 1344 794 
L 1344 0 
L 684 0 
L 684 794 
z
" transform="scale(0.015625)"/>
     </defs>
     <use xlink:href="#DejaVuSans-53"/>
     <use xlink:href="#DejaVuSans-6f" transform="translate(63.476562 0)"/>
     <use xlink:href="#DejaVuSans-6e" transform="translate(124.658203 0)"/>
     <use xlink:href="#DejaVuSans-6f" transform="translate(188.037109 0)"/>
     <use xlink:href="#DejaVuSans-20" transform="translate(249.21875 0)"/>
     <use xlink:href="#DejaVuSans-6d" transform="translate(281.005859 0)"/>
     <use xlink:href="#DejaVuSans-6f" transform="translate(378.417969 0)"/>
     <use xlink:href="#DejaVuSans-73" transform="translate(439.599609 0)"/>
     <use xlink:href="#DejaVuSans-74" transform="translate(491.699219 0)"/>
     <use xlink:href="#DejaVuSans-72" transform="translate(530.908203 0)"/>
     <use xlink:href="#DejaVuSans-61" transform="translate(572.021484 0)"/>
     <use xlink:href="#DejaVuSans-74" transform="translate(633.300781 0)"/>
     <use xlink:href="#DejaVuSans-65" transform="translate(672.509766 0)"/>
     <use xlink:href="#DejaVuSans-20" transform="translate(734.033203 0)"/>
     <use xlink:href="#DejaVuSans-73" transform="translate(765.820312 0)"/>
     <use xlink:href="#DejaVuSans-6f" transform="translate(817.919922 0)"/>
     <use xlink:href="#DejaVuSans-6c" transform="translate(879.101562 0)"/>
     <use xlink:href="#DejaVuSans-74" transform="translate(906.884766 0)"/>
     <use xlink:href="#DejaVuSans-61" transform="translate(946.09375 0)"/>
     <use xlink:href="#DejaVuSans-6e" transform="translate(1007.373047 0)"/>
     <use xlink:href="#DejaVuSans-74" transform="translate(1070.751953 0)"/>
     <use xlink:href="#DejaVuSans-6f" transform="translate(1109.960938 0)"/>
     <use xlink:href="#DejaVuSans-20" transform="translate(1171.142578 0)"/>
     <use xlink:href="#DejaVuSans-6c" transform="translate(1202.929688 0)"/>
     <use xlink:href="#DejaVuSans-61" transform="translate(1230.712891 0)"/>
     <use xlink:href="#DejaVuSans-20" transform="translate(1291.992188 0)"/>
     <use xlink:href="#DejaVuSans-62" transform="translate(1323.779297 0)"/>
     <use xlink:href="#DejaVuSans-61" transform="translate(1387.255859 0)"/>
     <use xlink:href="#DejaVuSans-6e" transform="translate(1448.535156 0)"/>
     <use xlink:href="#DejaVuSans-64" transform="translate(1511.914062 0)"/>
     <use xlink:href="#DejaVuSans-61" transform="translate(1575.390625 0)"/>
     <use xlink:href="#DejaVuSans-20" transform="translate(1636.669922 0)"/>
     <use xlink:href="#DejaVuSans-64" transform="translate(1668.457031 0)"/>
     <use xlink:href="#DejaVuSans-69" transform="translate(1731.933594 0)"/>
     <use xlink:href="#DejaVuSans-20" transform="translate(1759.716797 0)"/>
     <use xlink:href="#DejaVuSans-76" transform="translate(1791.503906 0)"/>
     <use xlink:href="#DejaVuSans-61" transform="translate(1850.683594 0)"/>
     <use xlink:href="#DejaVuSans-6c" transform="translate(1911.962891 0)"/>
     <use xlink:href="#DejaVuSans-65" transform="translate(1939.746094 0)"/>
     <use xlink:href="#DejaVuSans-6e" transform="translate(2001.269531 0)"/>
     <use xlink:href="#DejaVuSans-7a" transform="translate(2064.648438 0)"/>
     <use xlink:href="#DejaVuSans-61" transform="translate(2117.138672 0)"/>
     <use xlink:href="#DejaVuSans-20" transform="translate(2178.417969 0)"/>
     <use xlink:href="#DejaVuSans-70" transform="translate(2210.205078 0)"/>
     <use xlink:href="#DejaVuSans-69" transform="translate(2273.681641 0)"/>
     <use xlink:href="#DejaVuSans-f9" transform="translate(2301.464844 0)"/>
     <use xlink:href="#DejaVuSans-20" transform="translate(2364.84375 0)"/>
     <use xlink:href="#DejaVuSans-61" transform="translate(2396.630859 0)"/>
     <use xlink:href="#DejaVuSans-6c" transform="translate(2457.910156 0)"/>
     <use xlink:href="#DejaVuSans-74" transform="translate(2485.693359 0)"/>
     <use xlink:href="#DejaVuSans-61" transform="translate(2524.902344 0)"/>
     <use xlink:href="#DejaVuSans-20" transform="translate(2586.181641 0)"/>
     <use xlink:href="#DejaVuSans-65" transform="translate(2617.96875 0)"/>
     <use xlink:href="#DejaVuSans-20" transform="translate(2679.492188 0)"/>
     <use xlink:href="#DejaVuSans-6c" transform="translate(2711.279297 0)"/>
     <use xlink:href="#DejaVuSans-61" transform="translate(2739.0625 0)"/>
     <use xlink:href="#DejaVuSans-20" transform="translate(2800.341797 0)"/>
     <use xlink:href="#DejaVuSans-70" transform="translate(2832.128906 0)"/>
     <use xlink:href="#DejaVuSans-72" transform="translate(2895.605469 0)"/>
     <use xlink:href="#DejaVuSans-69" transform="translate(2936.71875 0)"/>
     <use xlink:href="#DejaVuSans-6d" transform="translate(2964.501953 0)"/>
     <use xlink:href="#DejaVuSans-61" transform="translate(3061.914062 0)"/>
     <use xlink:href="#DejaVuSans-20" transform="translate(3123.193359 0)"/>
     <use xlink:href="#DejaVuSans-62" transform="translate(3154.980469 0)"/>
     <use xlink:href="#DejaVuSans-61" transform="translate(3218.457031 0)"/>
     <use xlink:href="#DejaVuSans-6e" transform="translate(3279.736328 0)"/>
     <use xlink:href="#DejaVuSans-64" transform="translate(3343.115234 0)"/>
     <use xlink:href="#DejaVuSans-61" transform="translate(3406.591797 0)"/>
     <use xlink:href="#DejaVuSans-20" transform="translate(3467.871094 0)"/>
     <use xlink:href="#DejaVuSans-64" transform="translate(3499.658203 0)"/>
     <use xlink:href="#DejaVuSans-69" transform="translate(3563.134766 0)"/>
     <use xlink:href="#DejaVuSans-20" transform="translate(3590.917969 0)"/>
     <use xlink:href="#DejaVuSans-63" transform="translate(3622.705078 0)"/>
     <use xlink:href="#DejaVuSans-6f" transform="translate(3677.685547 0)"/>
     <use xlink:href="#DejaVuSans-6e" transform="translate(3738.867188 0)"/>
     <use xlink:href="#DejaVuSans-64" transform="translate(3802.246094 0)"/>
     <use xlink:href="#DejaVuSans-75" transform="translate(3865.722656 0)"/>
     <use xlink:href="#DejaVuSans-7a" transform="translate(3929.101562 0)"/>
     <use xlink:href="#DejaVuSans-69" transform="translate(3981.591797 0)"/>
     <use xlink:href="#DejaVuSans-6f" transform="translate(4009.375 0)"/>
     <use xlink:href="#DejaVuSans-6e" transform="translate(4070.556641 0)"/>
     <use xlink:href="#DejaVuSans-65" transform="translate(4133.935547 0)"/>
     <use xlink:href="#DejaVuSans-2e" transform="translate(4195.458984 0)"/>
    </g>
   </g>
   <g id="text_11">
    <!-- Nomenclatura essenziale della teoria delle bande -->
    <g transform="translate(48.992578 18.597656) scale(0.15 -0.15)">
     <defs>
      <path id="DejaVuSans-Bold-4e" d="M 588 4666 
L 1931 4666 
L 3628 1466 
L 3628 4666 
L 4769 4666 
L 4769 0 
L 3425 0 
L 1728 3200 
L 1728 0 
L 588 0 
L 588 4666 
z
" transform="scale(0.015625)"/>
      <path id="DejaVuSans-Bold-6d" d="M 3781 2919 
Q 3994 3244 4286 3414 
Q 4578 3584 4928 3584 
Q 5531 3584 5847 3212 
Q 6163 2841 6163 2131 
L 6163 0 
L 5038 0 
L 5038 1825 
Q 5041 1866 5042 1909 
Q 5044 1953 5044 2034 
Q 5044 2406 4934 2573 
Q 4825 2741 4581 2741 
Q 4263 2741 4089 2478 
Q 3916 2216 3909 1719 
L 3909 0 
L 2784 0 
L 2784 1825 
Q 2784 2406 2684 2573 
Q 2584 2741 2328 2741 
Q 2006 2741 1831 2477 
Q 1656 2213 1656 1722 
L 1656 0 
L 531 0 
L 531 3500 
L 1656 3500 
L 1656 2988 
Q 1863 3284 2130 3434 
Q 2397 3584 2719 3584 
Q 3081 3584 3359 3409 
Q 3638 3234 3781 2919 
z
" transform="scale(0.015625)"/>
      <path id="DejaVuSans-Bold-74" d="M 1759 4494 
L 1759 3500 
L 2913 3500 
L 2913 2700 
L 1759 2700 
L 1759 1216 
Q 1759 972 1856 886 
Q 1953 800 2241 800 
L 2816 800 
L 2816 0 
L 1856 0 
Q 1194 0 917 276 
Q 641 553 641 1216 
L 641 2700 
L 84 2700 
L 84 3500 
L 641 3500 
L 641 4494 
L 1759 4494 
z
" transform="scale(0.015625)"/>
      <path id="DejaVuSans-Bold-72" d="M 3138 2547 
Q 2991 2616 2845 2648 
Q 2700 2681 2553 2681 
Q 2122 2681 1889 2404 
Q 1656 2128 1656 1613 
L 1656 0 
L 538 0 
L 538 3500 
L 1656 3500 
L 1656 2925 
Q 1872 3269 2151 3426 
Q 2431 3584 2822 3584 
Q 2878 3584 2943 3579 
Q 3009 3575 3134 3559 
L 3138 2547 
z
" transform="scale(0.015625)"/>
      <path id="DejaVuSans-Bold-73" d="M 3272 3391 
L 3272 2541 
Q 2913 2691 2578 2766 
Q 2244 2841 1947 2841 
Q 1628 2841 1473 2761 
Q 1319 2681 1319 2516 
Q 1319 2381 1436 2309 
Q 1553 2238 1856 2203 
L 2053 2175 
Q 2913 2066 3209 1816 
Q 3506 1566 3506 1031 
Q 3506 472 3093 190 
Q 2681 -91 1863 -91 
Q 1516 -91 1145 -36 
Q 775 19 384 128 
L 384 978 
Q 719 816 1070 734 
Q 1422 653 1784 653 
Q 2113 653 2278 743 
Q 2444 834 2444 1013 
Q 2444 1163 2330 1236 
Q 2216 1309 1875 1350 
L 1678 1375 
Q 931 1469 631 1722 
Q 331 1975 331 2491 
Q 331 3047 712 3315 
Q 1094 3584 1881 3584 
Q 2191 3584 2531 3537 
Q 2872 3491 3272 3391 
z
" transform="scale(0.015625)"/>
     </defs>
     <use xlink:href="#DejaVuSans-Bold-4e"/>
     <use xlink:href="#DejaVuSans-Bold-6f" transform="translate(83.691406 0)"/>
     <use xlink:href="#DejaVuSans-Bold-6d" transform="translate(152.392578 0)"/>
     <use xlink:href="#DejaVuSans-Bold-65" transform="translate(256.591797 0)"/>
     <use xlink:href="#DejaVuSans-Bold-6e" transform="translate(324.414062 0)"/>
     <use xlink:href="#DejaVuSans-Bold-63" transform="translate(395.605469 0)"/>
     <use xlink:href="#DejaVuSans-Bold-6c" transform="translate(454.882812 0)"/>
     <use xlink:href="#DejaVuSans-Bold-61" transform="translate(489.160156 0)"/>
     <use xlink:href="#DejaVuSans-Bold-74" transform="translate(556.640625 0)"/>
     <use xlink:href="#DejaVuSans-Bold-75" transform="translate(604.443359 0)"/>
     <use xlink:href="#DejaVuSans-Bold-72" transform="translate(675.634766 0)"/>
     <use xlink:href="#DejaVuSans-Bold-61" transform="translate(724.951172 0)"/>
     <use xlink:href="#DejaVuSans-Bold-20" transform="translate(792.431641 0)"/>
     <use xlink:href="#DejaVuSans-Bold-65" transform="translate(827.246094 0)"/>
     <use xlink:href="#DejaVuSans-Bold-73" transform="translate(895.068359 0)"/>
     <use xlink:href="#DejaVuSans-Bold-73" transform="translate(954.589844 0)"/>
     <use xlink:href="#DejaVuSans-Bold-65" transform="translate(1014.111328 0)"/>
     <use xlink:href="#DejaVuSans-Bold-6e" transform="translate(1081.933594 0)"/>
     <use xlink:href="#DejaVuSans-Bold-7a" transform="translate(1153.125 0)"/>
     <use xlink:href="#DejaVuSans-Bold-69" transform="translate(1211.328125 0)"/>
     <use xlink:href="#DejaVuSans-Bold-61" transform="translate(1245.605469 0)"/>
     <use xlink:href="#DejaVuSans-Bold-6c" transform="translate(1313.085938 0)"/>
     <use xlink:href="#DejaVuSans-Bold-65" transform="translate(1347.363281 0)"/>
     <use xlink:href="#DejaVuSans-Bold-20" transform="translate(1415.185547 0)"/>
     <use xlink:href="#DejaVuSans-Bold-64" transform="translate(1450 0)"/>
     <use xlink:href="#DejaVuSans-Bold-65" transform="translate(1521.582031 0)"/>
     <use xlink:href="#DejaVuSans-Bold-6c" transform="translate(1589.404297 0)"/>
     <use xlink:href="#DejaVuSans-Bold-6c" transform="translate(1623.681641 0)"/>
     <use xlink:href="#DejaVuSans-Bold-61" transform="translate(1657.958984 0)"/>
     <use xlink:href="#DejaVuSans-Bold-20" transform="translate(1725.439453 0)"/>
     <use xlink:href="#DejaVuSans-Bold-74" transform="translate(1760.253906 0)"/>
     <use xlink:href="#DejaVuSans-Bold-65" transform="translate(1808.056641 0)"/>
     <use xlink:href="#DejaVuSans-Bold-6f" transform="translate(1875.878906 0)"/>
     <use xlink:href="#DejaVuSans-Bold-72" transform="translate(1944.580078 0)"/>
     <use xlink:href="#DejaVuSans-Bold-69" transform="translate(1993.896484 0)"/>
     <use xlink:href="#DejaVuSans-Bold-61" transform="translate(2028.173828 0)"/>
     <use xlink:href="#DejaVuSans-Bold-20" transform="translate(2095.654297 0)"/>
     <use xlink:href="#DejaVuSans-Bold-64" transform="translate(2130.46875 0)"/>
     <use xlink:href="#DejaVuSans-Bold-65" transform="translate(2202.050781 0)"/>
     <use xlink:href="#DejaVuSans-Bold-6c" transform="translate(2269.873047 0)"/>
     <use xlink:href="#DejaVuSans-Bold-6c" transform="translate(2304.150391 0)"/>
     <use xlink:href="#DejaVuSans-Bold-65" transform="translate(2338.427734 0)"/>
     <use xlink:href="#DejaVuSans-Bold-20" transform="translate(2406.25 0)"/>
     <use xlink:href="#DejaVuSans-Bold-62" transform="translate(2441.064453 0)"/>
     <use xlink:href="#DejaVuSans-Bold-61" transform="translate(2512.646484 0)"/>
     <use xlink:href="#DejaVuSans-Bold-6e" transform="translate(2580.126953 0)"/>
     <use xlink:href="#DejaVuSans-Bold-64" transform="translate(2651.318359 0)"/>
     <use xlink:href="#DejaVuSans-Bold-65" transform="translate(2722.900391 0)"/>
    </g>
   </g>
  </g>
 </g>
 <defs>
  <clipPath id="p62e7d2fdb4">
   <rect x="7.2" y="32.597656" width="502.2" height="354.816"/>
  </clipPath>
 </defs>
</svg>
