<?xml version="1.0" encoding="utf-8" standalone="no"?>
<!DOCTYPE svg PUBLIC "-//W3C//DTD SVG 1.1//EN"
  "http://www.w3.org/Graphics/SVG/1.1/DTD/svg11.dtd">
<svg xmlns:xlink="http://www.w3.org/1999/xlink" width="719.998125pt" height="477.171687pt" viewBox="0 0 719.998125 477.171687" xmlns="http://www.w3.org/2000/svg" version="1.1">
 <metadata>
  <rdf:RDF xmlns:dc="http://purl.org/dc/elements/1.1/" xmlns:cc="http://creativecommons.org/ns#" xmlns:rdf="http://www.w3.org/1999/02/22-rdf-syntax-ns#">
   <cc:Work>
    <dc:type rdf:resource="http://purl.org/dc/dcmitype/StillImage"/>
    <dc:date>2026-06-16T09:34:02.731098</dc:date>
    <dc:format>image/svg+xml</dc:format>
    <dc:creator>
     <cc:Agent>
      <dc:title>Matplotlib v3.10.8, https://matplotlib.org/</dc:title>
     </cc:Agent>
    </dc:creator>
   </cc:Work>
  </rdf:RDF>
 </metadata>
 <defs>
  <style type="text/css">*{stroke-linejoin: round; stroke-linecap: butt}</style>
 </defs>
 <g id="figure_1">
  <g id="patch_1">
   <path d="M 0 477.171687 
L 719.998125 477.171687 
L 719.998125 0 
L 0 0 
z
" style="fill: #ffffff"/>
  </g>
  <g id="axes_1">
   <g id="patch_2">
    <path d="M 20.878125 426.888 
L 335.387216 426.888 
L 335.387216 55.44 
L 20.878125 55.44 
z
" style="fill: #ffffff"/>
   </g>
   <g id="matplotlib.axis_1">
    <g id="text_1">
     <!-- vettore d'onda -->
     <g transform="translate(141.493608 438.486437) scale(0.1 -0.1)">
      <defs>
       <path id="DejaVuSans-76" d="M 191 3500 
L 800 3500 
L 1894 563 
L 2988 3500 
L 3597 3500 
L 2284 0 
L 1503 0 
L 191 3500 
z
" transform="scale(0.015625)"/>
       <path id="DejaVuSans-65" d="M 3597 1894 
L 3597 1613 
L 953 1613 
Q 991 1019 1311 708 
Q 1631 397 2203 397 
Q 2534 397 2845 478 
Q 3156 559 3463 722 
L 3463 178 
Q 3153 47 2828 -22 
Q 2503 -91 2169 -91 
Q 1331 -91 842 396 
Q 353 884 353 1716 
Q 353 2575 817 3079 
Q 1281 3584 2069 3584 
Q 2775 3584 3186 3129 
Q 3597 2675 3597 1894 
z
M 3022 2063 
Q 3016 2534 2758 2815 
Q 2500 3097 2075 3097 
Q 1594 3097 1305 2825 
Q 1016 2553 972 2059 
L 3022 2063 
z
" transform="scale(0.015625)"/>
       <path id="DejaVuSans-74" d="M 1172 4494 
L 1172 3500 
L 2356 3500 
L 2356 3053 
L 1172 3053 
L 1172 1153 
Q 1172 725 1289 603 
Q 1406 481 1766 481 
L 2356 481 
L 2356 0 
L 1766 0 
Q 1100 0 847 248 
Q 594 497 594 1153 
L 594 3053 
L 172 3053 
L 172 3500 
L 594 3500 
L 594 4494 
L 1172 4494 
z
" transform="scale(0.015625)"/>
       <path id="DejaVuSans-6f" d="M 1959 3097 
Q 1497 3097 1228 2736 
Q 959 2375 959 1747 
Q 959 1119 1226 758 
Q 1494 397 1959 397 
Q 2419 397 2687 759 
Q 2956 1122 2956 1747 
Q 2956 2369 2687 2733 
Q 2419 3097 1959 3097 
z
M 1959 3584 
Q 2709 3584 3137 3096 
Q 3566 2609 3566 1747 
Q 3566 888 3137 398 
Q 2709 -91 1959 -91 
Q 1206 -91 779 398 
Q 353 888 353 1747 
Q 353 2609 779 3096 
Q 1206 3584 1959 3584 
z
" transform="scale(0.015625)"/>
       <path id="DejaVuSans-72" d="M 2631 2963 
Q 2534 3019 2420 3045 
Q 2306 3072 2169 3072 
Q 1681 3072 1420 2755 
Q 1159 2438 1159 1844 
L 1159 0 
L 581 0 
L 581 3500 
L 1159 3500 
L 1159 2956 
Q 1341 3275 1631 3429 
Q 1922 3584 2338 3584 
Q 2397 3584 2469 3576 
Q 2541 3569 2628 3553 
L 2631 2963 
z
" transform="scale(0.015625)"/>
       <path id="DejaVuSans-20" transform="scale(0.015625)"/>
       <path id="DejaVuSans-64" d="M 2906 2969 
L 2906 4863 
L 3481 4863 
L 3481 0 
L 2906 0 
L 2906 525 
Q 2725 213 2448 61 
Q 2172 -91 1784 -91 
Q 1150 -91 751 415 
Q 353 922 353 1747 
Q 353 2572 751 3078 
Q 1150 3584 1784 3584 
Q 2172 3584 2448 3432 
Q 2725 3281 2906 2969 
z
M 947 1747 
Q 947 1113 1208 752 
Q 1469 391 1925 391 
Q 2381 391 2643 752 
Q 2906 1113 2906 1747 
Q 2906 2381 2643 2742 
Q 2381 3103 1925 3103 
Q 1469 3103 1208 2742 
Q 947 2381 947 1747 
z
" transform="scale(0.015625)"/>
       <path id="DejaVuSans-27" d="M 1147 4666 
L 1147 2931 
L 616 2931 
L 616 4666 
L 1147 4666 
z
" transform="scale(0.015625)"/>
       <path id="DejaVuSans-6e" d="M 3513 2113 
L 3513 0 
L 2938 0 
L 2938 2094 
Q 2938 2591 2744 2837 
Q 2550 3084 2163 3084 
Q 1697 3084 1428 2787 
Q 1159 2491 1159 1978 
L 1159 0 
L 581 0 
L 581 3500 
L 1159 3500 
L 1159 2956 
Q 1366 3272 1645 3428 
Q 1925 3584 2291 3584 
Q 2894 3584 3203 3211 
Q 3513 2838 3513 2113 
z
" transform="scale(0.015625)"/>
       <path id="DejaVuSans-61" d="M 2194 1759 
Q 1497 1759 1228 1600 
Q 959 1441 959 1056 
Q 959 750 1161 570 
Q 1363 391 1709 391 
Q 2188 391 2477 730 
Q 2766 1069 2766 1631 
L 2766 1759 
L 2194 1759 
z
M 3341 1997 
L 3341 0 
L 2766 0 
L 2766 531 
Q 2569 213 2275 61 
Q 1981 -91 1556 -91 
Q 1019 -91 701 211 
Q 384 513 384 1019 
Q 384 1609 779 1909 
Q 1175 2209 1959 2209 
L 2766 2209 
L 2766 2266 
Q 2766 2663 2505 2880 
Q 2244 3097 1772 3097 
Q 1472 3097 1187 3025 
Q 903 2953 641 2809 
L 641 3341 
Q 956 3463 1253 3523 
Q 1550 3584 1831 3584 
Q 2591 3584 2966 3190 
Q 3341 2797 3341 1997 
z
" transform="scale(0.015625)"/>
      </defs>
      <use xlink:href="#DejaVuSans-76"/>
      <use xlink:href="#DejaVuSans-65" transform="translate(59.179688 0)"/>
      <use xlink:href="#DejaVuSans-74" transform="translate(120.703125 0)"/>
      <use xlink:href="#DejaVuSans-74" transform="translate(159.912109 0)"/>
      <use xlink:href="#DejaVuSans-6f" transform="translate(199.121094 0)"/>
      <use xlink:href="#DejaVuSans-72" transform="translate(260.302734 0)"/>
      <use xlink:href="#DejaVuSans-65" transform="translate(299.166016 0)"/>
      <use xlink:href="#DejaVuSans-20" transform="translate(360.689453 0)"/>
      <use xlink:href="#DejaVuSans-64" transform="translate(392.476562 0)"/>
      <use xlink:href="#DejaVuSans-27" transform="translate(455.953125 0)"/>
      <use xlink:href="#DejaVuSans-6f" transform="translate(483.443359 0)"/>
      <use xlink:href="#DejaVuSans-6e" transform="translate(544.625 0)"/>
      <use xlink:href="#DejaVuSans-64" transform="translate(608.003906 0)"/>
      <use xlink:href="#DejaVuSans-61" transform="translate(671.480469 0)"/>
     </g>
    </g>
   </g>
   <g id="matplotlib.axis_2">
    <g id="text_2">
     <!-- energia -->
     <g transform="translate(14.798438 260.081187) rotate(-90) scale(0.1 -0.1)">
      <defs>
       <path id="DejaVuSans-67" d="M 2906 1791 
Q 2906 2416 2648 2759 
Q 2391 3103 1925 3103 
Q 1463 3103 1205 2759 
Q 947 2416 947 1791 
Q 947 1169 1205 825 
Q 1463 481 1925 481 
Q 2391 481 2648 825 
Q 2906 1169 2906 1791 
z
M 3481 434 
Q 3481 -459 3084 -895 
Q 2688 -1331 1869 -1331 
Q 1566 -1331 1297 -1286 
Q 1028 -1241 775 -1147 
L 775 -588 
Q 1028 -725 1275 -790 
Q 1522 -856 1778 -856 
Q 2344 -856 2625 -561 
Q 2906 -266 2906 331 
L 2906 616 
Q 2728 306 2450 153 
Q 2172 0 1784 0 
Q 1141 0 747 490 
Q 353 981 353 1791 
Q 353 2603 747 3093 
Q 1141 3584 1784 3584 
Q 2172 3584 2450 3431 
Q 2728 3278 2906 2969 
L 2906 3500 
L 3481 3500 
L 3481 434 
z
" transform="scale(0.015625)"/>
       <path id="DejaVuSans-69" d="M 603 3500 
L 1178 3500 
L 1178 0 
L 603 0 
L 603 3500 
z
M 603 4863 
L 1178 4863 
L 1178 4134 
L 603 4134 
L 603 4863 
z
" transform="scale(0.015625)"/>
      </defs>
      <use xlink:href="#DejaVuSans-65"/>
      <use xlink:href="#DejaVuSans-6e" transform="translate(61.523438 0)"/>
      <use xlink:href="#DejaVuSans-65" transform="translate(124.902344 0)"/>
      <use xlink:href="#DejaVuSans-72" transform="translate(186.425781 0)"/>
      <use xlink:href="#DejaVuSans-67" transform="translate(225.789062 0)"/>
      <use xlink:href="#DejaVuSans-69" transform="translate(289.265625 0)"/>
      <use xlink:href="#DejaVuSans-61" transform="translate(317.048828 0)"/>
     </g>
    </g>
   </g>
   <g id="line2d_1">
    <path d="M 27.257396 -1 
L 32.954434 12.852052 
L 38.73006 26.350707 
L 44.505686 39.301446 
L 50.281312 51.704269 
L 56.056938 63.559177 
L 61.307507 73.860901 
L 66.558076 83.709803 
L 71.808646 93.105881 
L 77.059215 102.049136 
L 82.309784 110.539568 
L 87.560353 118.577177 
L 92.285865 125.423862 
L 97.011377 131.90376 
L 101.73689 138.016871 
L 106.462402 143.763195 
L 111.187914 149.142733 
L 115.913426 154.155484 
L 120.113882 158.303344 
L 124.314337 162.161396 
L 128.514792 165.729642 
L 132.715247 169.00808 
L 136.915703 171.996713 
L 141.116158 174.695538 
L 145.316613 177.104557 
L 148.992012 178.974716 
L 152.66741 180.622992 
L 156.342809 182.049384 
L 160.018207 183.253894 
L 163.693605 184.23652 
L 167.369004 184.997262 
L 171.044402 185.536122 
L 174.719801 185.853098 
L 178.395199 185.948191 
L 182.070597 185.8214 
L 185.745996 185.472727 
L 189.421394 184.902169 
L 193.096792 184.109729 
L 196.772191 183.095406 
L 200.447589 181.859199 
L 204.122988 180.401108 
L 207.798386 178.721135 
L 211.473784 176.819278 
L 215.67424 174.374034 
L 219.874695 171.638982 
L 224.07515 168.614124 
L 228.275606 165.29946 
L 232.476061 161.694988 
L 236.676516 157.80071 
L 240.876972 153.616625 
L 245.077427 149.142733 
L 249.802939 143.763195 
L 254.528451 138.016871 
L 259.253964 131.90376 
L 263.979476 125.423862 
L 268.704988 118.577177 
L 273.4305 111.363706 
L 278.681069 102.918556 
L 283.931638 94.020583 
L 289.182208 84.669787 
L 294.432777 74.866168 
L 299.683346 64.609726 
L 304.933915 53.900461 
L 310.709541 41.597259 
L 316.485167 28.746141 
L 322.260793 15.347107 
L 328.036419 1.400157 
L 329.007945 -1 
L 329.007945 -1 
" clip-path="url(#p1d9528c482)" style="fill: none; stroke: #1f77b4; stroke-width: 2.2; stroke-linecap: square"/>
   </g>
   <g id="line2d_2">
    <path d="M 20.878125 473.017826 
L 27.178808 460.486918 
L 33.479491 448.468348 
L 39.780174 436.962114 
L 45.5558 426.864807 
L 51.331426 417.198005 
L 57.107052 407.961709 
L 62.882678 399.155918 
L 68.658304 390.780632 
L 73.908873 383.540315 
L 79.159442 376.655787 
L 84.410011 370.127049 
L 89.660581 363.954101 
L 94.91115 358.136942 
L 100.161719 352.675572 
L 104.887231 348.06454 
L 109.612743 343.741697 
L 114.338256 339.707044 
L 119.063768 335.96058 
L 123.78928 332.502305 
L 128.514792 329.332221 
L 133.240304 326.450325 
L 137.965817 323.85662 
L 142.166272 321.79304 
L 146.366727 319.957166 
L 150.567183 318.348998 
L 154.767638 316.968534 
L 158.968093 315.815776 
L 163.168548 314.890723 
L 167.369004 314.193376 
L 171.569459 313.723734 
L 175.769914 313.481797 
L 179.97037 313.467565 
L 184.170825 313.681039 
L 188.37128 314.122218 
L 192.571736 314.791102 
L 196.772191 315.687692 
L 200.972646 316.811987 
L 205.173101 318.163987 
L 209.373557 319.743693 
L 213.574012 321.551103 
L 217.774467 323.58622 
L 221.974923 325.849041 
L 226.175378 328.339568 
L 230.90089 331.413589 
L 235.626402 334.775801 
L 240.351915 338.426201 
L 245.077427 342.364791 
L 249.802939 346.591571 
L 254.528451 351.10654 
L 259.253964 355.909699 
L 264.504533 361.584542 
L 269.755102 367.615175 
L 275.005671 374.001597 
L 280.25624 380.743809 
L 285.506809 387.84181 
L 290.757378 395.295601 
L 296.533004 403.905708 
L 302.30863 412.94632 
L 308.084256 422.417438 
L 313.859882 432.319061 
L 319.635509 442.651189 
L 325.411135 453.413822 
L 331.711818 465.645867 
L 335.387216 473.017826 
L 335.387216 473.017826 
" clip-path="url(#p1d9528c482)" style="fill: none; stroke: #ff7f0e; stroke-width: 2; stroke-linecap: square"/>
   </g>
   <g id="line2d_3">
    <path d="M 62.497065 478.171687 
L 67.60819 463.931042 
L 72.858759 449.972771 
L 78.109329 436.693736 
L 82.834841 425.323349 
L 87.560353 414.503142 
L 92.285865 404.233115 
L 97.011377 394.513268 
L 101.73689 385.343602 
L 105.937345 377.654666 
L 110.1378 370.400441 
L 114.338256 363.580926 
L 118.538711 357.196121 
L 122.739166 351.246026 
L 126.414565 346.396291 
L 130.089963 341.879381 
L 133.765361 337.695296 
L 137.44076 333.844036 
L 141.116158 330.325601 
L 144.791556 327.139991 
L 148.466955 324.287206 
L 151.617296 322.106863 
L 154.767638 320.171044 
L 157.917979 318.47975 
L 161.068321 317.032981 
L 164.218662 315.830735 
L 167.369004 314.873015 
L 170.519345 314.159818 
L 173.669687 313.691146 
L 176.820028 313.466999 
L 179.97037 313.487376 
L 183.120711 313.752278 
L 186.271053 314.261704 
L 189.421394 315.015654 
L 192.571736 316.014129 
L 195.722077 317.257128 
L 198.872419 318.744652 
L 202.02276 320.4767 
L 205.173101 322.453272 
L 208.323443 324.67437 
L 211.473784 327.139991 
L 215.149183 330.325601 
L 218.824581 333.844036 
L 222.49998 337.695296 
L 226.175378 341.879381 
L 229.850776 346.396291 
L 233.526175 351.246026 
L 237.201573 356.428586 
L 241.402028 362.759052 
L 245.602484 369.524228 
L 249.802939 376.724115 
L 254.003394 384.358712 
L 258.20385 392.428018 
L 262.929362 402.025603 
L 267.654874 412.173367 
L 272.380386 422.871312 
L 277.105899 434.119437 
L 281.831411 445.917741 
L 286.556923 458.266226 
L 291.807492 472.632037 
L 293.768275 478.171687 
L 293.768275 478.171687 
" clip-path="url(#p1d9528c482)" style="fill: none; stroke: #2ca02c; stroke-width: 2; stroke-linecap: square"/>
   </g>
   <g id="line2d_4">
    <path d="M 178.13267 426.888 
L 178.13267 55.44 
" clip-path="url(#p1d9528c482)" style="fill: none; stroke-dasharray: 0.8,1.32; stroke-dashoffset: 0; stroke: #1f77b4; stroke-width: 0.8"/>
   </g>
   <g id="patch_3">
    <path d="M 20.878125 426.888 
L 20.878125 55.44 
" style="fill: none; stroke: #000000; stroke-width: 0.8; stroke-linejoin: miter; stroke-linecap: square"/>
   </g>
   <g id="patch_4">
    <path d="M 335.387216 426.888 
L 335.387216 55.44 
" style="fill: none; stroke: #000000; stroke-width: 0.8; stroke-linejoin: miter; stroke-linecap: square"/>
   </g>
   <g id="patch_5">
    <path d="M 20.878125 426.888 
L 335.387216 426.888 
" style="fill: none; stroke: #000000; stroke-width: 0.8; stroke-linejoin: miter; stroke-linecap: square"/>
   </g>
   <g id="patch_6">
    <path d="M 20.878125 55.44 
L 335.387216 55.44 
" style="fill: none; stroke: #000000; stroke-width: 0.8; stroke-linejoin: miter; stroke-linecap: square"/>
   </g>
   <g id="patch_7">
    <path d="M 178.13267 310.100747 
Q 178.13267 249.696777 178.13267 189.292806 
" style="fill: none; stroke: #000000; stroke-width: 1.2; stroke-linecap: round"/>
    <path d="M 180.13267 306.100747 
L 178.13267 310.100747 
L 176.13267 306.100747 
" style="fill: none; stroke: #000000; stroke-width: 1.2; stroke-linecap: round"/>
    <path d="M 176.13267 193.292806 
L 178.13267 189.292806 
L 180.13267 193.292806 
" style="fill: none; stroke: #000000; stroke-width: 1.2; stroke-linecap: round"/>
   </g>
   <g id="text_3">
    <!-- $E_g$ -->
    <g transform="translate(185.532884 249.195308) scale(0.1 -0.1)">
     <defs>
      <path id="DejaVuSans-Oblique-45" d="M 1081 4666 
L 4031 4666 
L 3928 4134 
L 1606 4134 
L 1338 2753 
L 3566 2753 
L 3463 2222 
L 1234 2222 
L 909 531 
L 3284 531 
L 3181 0 
L 172 0 
L 1081 4666 
z
" transform="scale(0.015625)"/>
      <path id="DejaVuSans-Oblique-67" d="M 3816 3500 
L 3219 434 
Q 3047 -456 2561 -893 
Q 2075 -1331 1253 -1331 
Q 950 -1331 690 -1286 
Q 431 -1241 206 -1147 
L 313 -588 
Q 525 -725 762 -790 
Q 1000 -856 1269 -856 
Q 1816 -856 2167 -557 
Q 2519 -259 2631 300 
L 2681 563 
Q 2441 288 2122 144 
Q 1803 0 1434 0 
Q 903 0 598 351 
Q 294 703 294 1319 
Q 294 1803 478 2267 
Q 663 2731 997 3091 
Q 1219 3328 1514 3456 
Q 1809 3584 2131 3584 
Q 2484 3584 2746 3420 
Q 3009 3256 3138 2956 
L 3238 3500 
L 3816 3500 
z
M 2950 2216 
Q 2950 2641 2750 2872 
Q 2550 3103 2181 3103 
Q 1953 3103 1747 3012 
Q 1541 2922 1394 2759 
Q 1156 2491 1023 2127 
Q 891 1763 891 1375 
Q 891 944 1092 712 
Q 1294 481 1672 481 
Q 2219 481 2584 976 
Q 2950 1472 2950 2216 
z
" transform="scale(0.015625)"/>
     </defs>
     <use xlink:href="#DejaVuSans-Oblique-45" transform="translate(0 0.09375)"/>
     <use xlink:href="#DejaVuSans-Oblique-67" transform="translate(63.183594 -16.3125) scale(0.7)"/>
    </g>
   </g>
   <g id="text_4">
    <!-- $\Gamma$ -->
    <g transform="translate(175.33267 416.848865) scale(0.1 -0.1)">
     <defs>
      <path id="DejaVuSans-393" d="M 628 0 
L 628 4666 
L 3531 4666 
L 3531 4134 
L 1259 4134 
L 1259 0 
L 628 0 
z
" transform="scale(0.015625)"/>
     </defs>
     <use xlink:href="#DejaVuSans-393" transform="translate(0 0.09375)"/>
    </g>
   </g>
   <g id="text_5">
    <!-- GaAs — gap diretto -->
    <g transform="translate(112.802045 49.44) scale(0.12 -0.12)">
     <defs>
      <path id="DejaVuSans-Bold-47" d="M 4781 347 
Q 4331 128 3847 18 
Q 3363 -91 2847 -91 
Q 1681 -91 1000 561 
Q 319 1213 319 2328 
Q 319 3456 1012 4103 
Q 1706 4750 2913 4750 
Q 3378 4750 3804 4662 
Q 4231 4575 4609 4403 
L 4609 3438 
Q 4219 3659 3833 3768 
Q 3447 3878 3059 3878 
Q 2341 3878 1952 3476 
Q 1563 3075 1563 2328 
Q 1563 1588 1938 1184 
Q 2313 781 3003 781 
Q 3191 781 3352 804 
Q 3513 828 3641 878 
L 3641 1784 
L 2906 1784 
L 2906 2591 
L 4781 2591 
L 4781 347 
z
" transform="scale(0.015625)"/>
      <path id="DejaVuSans-Bold-61" d="M 2106 1575 
Q 1756 1575 1579 1456 
Q 1403 1338 1403 1106 
Q 1403 894 1545 773 
Q 1688 653 1941 653 
Q 2256 653 2472 879 
Q 2688 1106 2688 1447 
L 2688 1575 
L 2106 1575 
z
M 3816 1997 
L 3816 0 
L 2688 0 
L 2688 519 
Q 2463 200 2181 54 
Q 1900 -91 1497 -91 
Q 953 -91 614 226 
Q 275 544 275 1050 
Q 275 1666 698 1953 
Q 1122 2241 2028 2241 
L 2688 2241 
L 2688 2328 
Q 2688 2594 2478 2717 
Q 2269 2841 1825 2841 
Q 1466 2841 1156 2769 
Q 847 2697 581 2553 
L 581 3406 
Q 941 3494 1303 3539 
Q 1666 3584 2028 3584 
Q 2975 3584 3395 3211 
Q 3816 2838 3816 1997 
z
" transform="scale(0.015625)"/>
      <path id="DejaVuSans-Bold-41" d="M 3419 850 
L 1538 850 
L 1241 0 
L 31 0 
L 1759 4666 
L 3194 4666 
L 4922 0 
L 3713 0 
L 3419 850 
z
M 1838 1716 
L 3116 1716 
L 2478 3572 
L 1838 1716 
z
" transform="scale(0.015625)"/>
      <path id="DejaVuSans-Bold-73" d="M 3272 3391 
L 3272 2541 
Q 2913 2691 2578 2766 
Q 2244 2841 1947 2841 
Q 1628 2841 1473 2761 
Q 1319 2681 1319 2516 
Q 1319 2381 1436 2309 
Q 1553 2238 1856 2203 
L 2053 2175 
Q 2913 2066 3209 1816 
Q 3506 1566 3506 1031 
Q 3506 472 3093 190 
Q 2681 -91 1863 -91 
Q 1516 -91 1145 -36 
Q 775 19 384 128 
L 384 978 
Q 719 816 1070 734 
Q 1422 653 1784 653 
Q 2113 653 2278 743 
Q 2444 834 2444 1013 
Q 2444 1163 2330 1236 
Q 2216 1309 1875 1350 
L 1678 1375 
Q 931 1469 631 1722 
Q 331 1975 331 2491 
Q 331 3047 712 3315 
Q 1094 3584 1881 3584 
Q 2191 3584 2531 3537 
Q 2872 3491 3272 3391 
z
" transform="scale(0.015625)"/>
      <path id="DejaVuSans-Bold-20" transform="scale(0.015625)"/>
      <path id="DejaVuSans-Bold-2014" d="M 344 2156 
L 6056 2156 
L 6056 1350 
L 344 1350 
L 344 2156 
z
" transform="scale(0.015625)"/>
      <path id="DejaVuSans-Bold-67" d="M 2919 594 
Q 2688 288 2409 144 
Q 2131 0 1766 0 
Q 1125 0 706 504 
Q 288 1009 288 1791 
Q 288 2575 706 3076 
Q 1125 3578 1766 3578 
Q 2131 3578 2409 3434 
Q 2688 3291 2919 2981 
L 2919 3500 
L 4044 3500 
L 4044 353 
Q 4044 -491 3511 -936 
Q 2978 -1381 1966 -1381 
Q 1638 -1381 1331 -1331 
Q 1025 -1281 716 -1178 
L 716 -306 
Q 1009 -475 1290 -558 
Q 1572 -641 1856 -641 
Q 2406 -641 2662 -400 
Q 2919 -159 2919 353 
L 2919 594 
z
M 2181 2772 
Q 1834 2772 1640 2515 
Q 1447 2259 1447 1791 
Q 1447 1309 1634 1061 
Q 1822 813 2181 813 
Q 2531 813 2725 1069 
Q 2919 1325 2919 1791 
Q 2919 2259 2725 2515 
Q 2531 2772 2181 2772 
z
" transform="scale(0.015625)"/>
      <path id="DejaVuSans-Bold-70" d="M 1656 506 
L 1656 -1331 
L 538 -1331 
L 538 3500 
L 1656 3500 
L 1656 2988 
Q 1888 3294 2169 3439 
Q 2450 3584 2816 3584 
Q 3463 3584 3878 3070 
Q 4294 2556 4294 1747 
Q 4294 938 3878 423 
Q 3463 -91 2816 -91 
Q 2450 -91 2169 54 
Q 1888 200 1656 506 
z
M 2400 2772 
Q 2041 2772 1848 2508 
Q 1656 2244 1656 1747 
Q 1656 1250 1848 986 
Q 2041 722 2400 722 
Q 2759 722 2948 984 
Q 3138 1247 3138 1747 
Q 3138 2247 2948 2509 
Q 2759 2772 2400 2772 
z
" transform="scale(0.015625)"/>
      <path id="DejaVuSans-Bold-64" d="M 2919 2988 
L 2919 4863 
L 4044 4863 
L 4044 0 
L 2919 0 
L 2919 506 
Q 2688 197 2409 53 
Q 2131 -91 1766 -91 
Q 1119 -91 703 423 
Q 288 938 288 1747 
Q 288 2556 703 3070 
Q 1119 3584 1766 3584 
Q 2128 3584 2408 3439 
Q 2688 3294 2919 2988 
z
M 2181 722 
Q 2541 722 2730 984 
Q 2919 1247 2919 1747 
Q 2919 2247 2730 2509 
Q 2541 2772 2181 2772 
Q 1825 2772 1636 2509 
Q 1447 2247 1447 1747 
Q 1447 1247 1636 984 
Q 1825 722 2181 722 
z
" transform="scale(0.015625)"/>
      <path id="DejaVuSans-Bold-69" d="M 538 3500 
L 1656 3500 
L 1656 0 
L 538 0 
L 538 3500 
z
M 538 4863 
L 1656 4863 
L 1656 3950 
L 538 3950 
L 538 4863 
z
" transform="scale(0.015625)"/>
      <path id="DejaVuSans-Bold-72" d="M 3138 2547 
Q 2991 2616 2845 2648 
Q 2700 2681 2553 2681 
Q 2122 2681 1889 2404 
Q 1656 2128 1656 1613 
L 1656 0 
L 538 0 
L 538 3500 
L 1656 3500 
L 1656 2925 
Q 1872 3269 2151 3426 
Q 2431 3584 2822 3584 
Q 2878 3584 2943 3579 
Q 3009 3575 3134 3559 
L 3138 2547 
z
" transform="scale(0.015625)"/>
      <path id="DejaVuSans-Bold-65" d="M 4031 1759 
L 4031 1441 
L 1416 1441 
Q 1456 1047 1700 850 
Q 1944 653 2381 653 
Q 2734 653 3104 758 
Q 3475 863 3866 1075 
L 3866 213 
Q 3469 63 3072 -14 
Q 2675 -91 2278 -91 
Q 1328 -91 801 392 
Q 275 875 275 1747 
Q 275 2603 792 3093 
Q 1309 3584 2216 3584 
Q 3041 3584 3536 3087 
Q 4031 2591 4031 1759 
z
M 2881 2131 
Q 2881 2450 2695 2645 
Q 2509 2841 2209 2841 
Q 1884 2841 1681 2658 
Q 1478 2475 1428 2131 
L 2881 2131 
z
" transform="scale(0.015625)"/>
      <path id="DejaVuSans-Bold-74" d="M 1759 4494 
L 1759 3500 
L 2913 3500 
L 2913 2700 
L 1759 2700 
L 1759 1216 
Q 1759 972 1856 886 
Q 1953 800 2241 800 
L 2816 800 
L 2816 0 
L 1856 0 
Q 1194 0 917 276 
Q 641 553 641 1216 
L 641 2700 
L 84 2700 
L 84 3500 
L 641 3500 
L 641 4494 
L 1759 4494 
z
" transform="scale(0.015625)"/>
      <path id="DejaVuSans-Bold-6f" d="M 2203 2784 
Q 1831 2784 1636 2517 
Q 1441 2250 1441 1747 
Q 1441 1244 1636 976 
Q 1831 709 2203 709 
Q 2569 709 2762 976 
Q 2956 1244 2956 1747 
Q 2956 2250 2762 2517 
Q 2569 2784 2203 2784 
z
M 2203 3584 
Q 3106 3584 3614 3096 
Q 4122 2609 4122 1747 
Q 4122 884 3614 396 
Q 3106 -91 2203 -91 
Q 1297 -91 786 396 
Q 275 884 275 1747 
Q 275 2609 786 3096 
Q 1297 3584 2203 3584 
z
" transform="scale(0.015625)"/>
     </defs>
     <use xlink:href="#DejaVuSans-Bold-47"/>
     <use xlink:href="#DejaVuSans-Bold-61" transform="translate(82.080078 0)"/>
     <use xlink:href="#DejaVuSans-Bold-41" transform="translate(149.560547 0)"/>
     <use xlink:href="#DejaVuSans-Bold-73" transform="translate(226.953125 0)"/>
     <use xlink:href="#DejaVuSans-Bold-20" transform="translate(286.474609 0)"/>
     <use xlink:href="#DejaVuSans-Bold-2014" transform="translate(321.289062 0)"/>
     <use xlink:href="#DejaVuSans-Bold-20" transform="translate(421.289062 0)"/>
     <use xlink:href="#DejaVuSans-Bold-67" transform="translate(456.103516 0)"/>
     <use xlink:href="#DejaVuSans-Bold-61" transform="translate(527.685547 0)"/>
     <use xlink:href="#DejaVuSans-Bold-70" transform="translate(595.166016 0)"/>
     <use xlink:href="#DejaVuSans-Bold-20" transform="translate(666.748047 0)"/>
     <use xlink:href="#DejaVuSans-Bold-64" transform="translate(701.5625 0)"/>
     <use xlink:href="#DejaVuSans-Bold-69" transform="translate(773.144531 0)"/>
     <use xlink:href="#DejaVuSans-Bold-72" transform="translate(807.421875 0)"/>
     <use xlink:href="#DejaVuSans-Bold-65" transform="translate(856.738281 0)"/>
     <use xlink:href="#DejaVuSans-Bold-74" transform="translate(924.560547 0)"/>
     <use xlink:href="#DejaVuSans-Bold-74" transform="translate(972.363281 0)"/>
     <use xlink:href="#DejaVuSans-Bold-6f" transform="translate(1020.166016 0)"/>
    </g>
   </g>
   <g id="legend_1">
    <g id="line2d_5">
     <path d="M 122.01142 66.573672 
L 130.51142 66.573672 
L 139.01142 66.573672 
" style="fill: none; stroke: #1f77b4; stroke-width: 2.2; stroke-linecap: square"/>
    </g>
    <g id="text_6">
     <!-- banda di conduzione -->
     <g transform="translate(145.81142 69.548672) scale(0.085 -0.085)">
      <defs>
       <path id="DejaVuSans-62" d="M 3116 1747 
Q 3116 2381 2855 2742 
Q 2594 3103 2138 3103 
Q 1681 3103 1420 2742 
Q 1159 2381 1159 1747 
Q 1159 1113 1420 752 
Q 1681 391 2138 391 
Q 2594 391 2855 752 
Q 3116 1113 3116 1747 
z
M 1159 2969 
Q 1341 3281 1617 3432 
Q 1894 3584 2278 3584 
Q 2916 3584 3314 3078 
Q 3713 2572 3713 1747 
Q 3713 922 3314 415 
Q 2916 -91 2278 -91 
Q 1894 -91 1617 61 
Q 1341 213 1159 525 
L 1159 0 
L 581 0 
L 581 4863 
L 1159 4863 
L 1159 2969 
z
" transform="scale(0.015625)"/>
       <path id="DejaVuSans-63" d="M 3122 3366 
L 3122 2828 
Q 2878 2963 2633 3030 
Q 2388 3097 2138 3097 
Q 1578 3097 1268 2742 
Q 959 2388 959 1747 
Q 959 1106 1268 751 
Q 1578 397 2138 397 
Q 2388 397 2633 464 
Q 2878 531 3122 666 
L 3122 134 
Q 2881 22 2623 -34 
Q 2366 -91 2075 -91 
Q 1284 -91 818 406 
Q 353 903 353 1747 
Q 353 2603 823 3093 
Q 1294 3584 2113 3584 
Q 2378 3584 2631 3529 
Q 2884 3475 3122 3366 
z
" transform="scale(0.015625)"/>
       <path id="DejaVuSans-75" d="M 544 1381 
L 544 3500 
L 1119 3500 
L 1119 1403 
Q 1119 906 1312 657 
Q 1506 409 1894 409 
Q 2359 409 2629 706 
Q 2900 1003 2900 1516 
L 2900 3500 
L 3475 3500 
L 3475 0 
L 2900 0 
L 2900 538 
Q 2691 219 2414 64 
Q 2138 -91 1772 -91 
Q 1169 -91 856 284 
Q 544 659 544 1381 
z
M 1991 3584 
L 1991 3584 
z
" transform="scale(0.015625)"/>
       <path id="DejaVuSans-7a" d="M 353 3500 
L 3084 3500 
L 3084 2975 
L 922 459 
L 3084 459 
L 3084 0 
L 275 0 
L 275 525 
L 2438 3041 
L 353 3041 
L 353 3500 
z
" transform="scale(0.015625)"/>
      </defs>
      <use xlink:href="#DejaVuSans-62"/>
      <use xlink:href="#DejaVuSans-61" transform="translate(63.476562 0)"/>
      <use xlink:href="#DejaVuSans-6e" transform="translate(124.755859 0)"/>
      <use xlink:href="#DejaVuSans-64" transform="translate(188.134766 0)"/>
      <use xlink:href="#DejaVuSans-61" transform="translate(251.611328 0)"/>
      <use xlink:href="#DejaVuSans-20" transform="translate(312.890625 0)"/>
      <use xlink:href="#DejaVuSans-64" transform="translate(344.677734 0)"/>
      <use xlink:href="#DejaVuSans-69" transform="translate(408.154297 0)"/>
      <use xlink:href="#DejaVuSans-20" transform="translate(435.9375 0)"/>
      <use xlink:href="#DejaVuSans-63" transform="translate(467.724609 0)"/>
      <use xlink:href="#DejaVuSans-6f" transform="translate(522.705078 0)"/>
      <use xlink:href="#DejaVuSans-6e" transform="translate(583.886719 0)"/>
      <use xlink:href="#DejaVuSans-64" transform="translate(647.265625 0)"/>
      <use xlink:href="#DejaVuSans-75" transform="translate(710.742188 0)"/>
      <use xlink:href="#DejaVuSans-7a" transform="translate(774.121094 0)"/>
      <use xlink:href="#DejaVuSans-69" transform="translate(826.611328 0)"/>
      <use xlink:href="#DejaVuSans-6f" transform="translate(854.394531 0)"/>
      <use xlink:href="#DejaVuSans-6e" transform="translate(915.576172 0)"/>
      <use xlink:href="#DejaVuSans-65" transform="translate(978.955078 0)"/>
     </g>
    </g>
    <g id="line2d_6">
     <path d="M 122.01142 79.050078 
L 130.51142 79.050078 
L 139.01142 79.050078 
" style="fill: none; stroke: #ff7f0e; stroke-width: 2; stroke-linecap: square"/>
    </g>
    <g id="text_7">
     <!-- lacune pesanti -->
     <g transform="translate(145.81142 82.025078) scale(0.085 -0.085)">
      <defs>
       <path id="DejaVuSans-6c" d="M 603 4863 
L 1178 4863 
L 1178 0 
L 603 0 
L 603 4863 
z
" transform="scale(0.015625)"/>
       <path id="DejaVuSans-70" d="M 1159 525 
L 1159 -1331 
L 581 -1331 
L 581 3500 
L 1159 3500 
L 1159 2969 
Q 1341 3281 1617 3432 
Q 1894 3584 2278 3584 
Q 2916 3584 3314 3078 
Q 3713 2572 3713 1747 
Q 3713 922 3314 415 
Q 2916 -91 2278 -91 
Q 1894 -91 1617 61 
Q 1341 213 1159 525 
z
M 3116 1747 
Q 3116 2381 2855 2742 
Q 2594 3103 2138 3103 
Q 1681 3103 1420 2742 
Q 1159 2381 1159 1747 
Q 1159 1113 1420 752 
Q 1681 391 2138 391 
Q 2594 391 2855 752 
Q 3116 1113 3116 1747 
z
" transform="scale(0.015625)"/>
       <path id="DejaVuSans-73" d="M 2834 3397 
L 2834 2853 
Q 2591 2978 2328 3040 
Q 2066 3103 1784 3103 
Q 1356 3103 1142 2972 
Q 928 2841 928 2578 
Q 928 2378 1081 2264 
Q 1234 2150 1697 2047 
L 1894 2003 
Q 2506 1872 2764 1633 
Q 3022 1394 3022 966 
Q 3022 478 2636 193 
Q 2250 -91 1575 -91 
Q 1294 -91 989 -36 
Q 684 19 347 128 
L 347 722 
Q 666 556 975 473 
Q 1284 391 1588 391 
Q 1994 391 2212 530 
Q 2431 669 2431 922 
Q 2431 1156 2273 1281 
Q 2116 1406 1581 1522 
L 1381 1569 
Q 847 1681 609 1914 
Q 372 2147 372 2553 
Q 372 3047 722 3315 
Q 1072 3584 1716 3584 
Q 2034 3584 2315 3537 
Q 2597 3491 2834 3397 
z
" transform="scale(0.015625)"/>
      </defs>
      <use xlink:href="#DejaVuSans-6c"/>
      <use xlink:href="#DejaVuSans-61" transform="translate(27.783203 0)"/>
      <use xlink:href="#DejaVuSans-63" transform="translate(89.0625 0)"/>
      <use xlink:href="#DejaVuSans-75" transform="translate(144.042969 0)"/>
      <use xlink:href="#DejaVuSans-6e" transform="translate(207.421875 0)"/>
      <use xlink:href="#DejaVuSans-65" transform="translate(270.800781 0)"/>
      <use xlink:href="#DejaVuSans-20" transform="translate(332.324219 0)"/>
      <use xlink:href="#DejaVuSans-70" transform="translate(364.111328 0)"/>
      <use xlink:href="#DejaVuSans-65" transform="translate(427.587891 0)"/>
      <use xlink:href="#DejaVuSans-73" transform="translate(489.111328 0)"/>
      <use xlink:href="#DejaVuSans-61" transform="translate(541.210938 0)"/>
      <use xlink:href="#DejaVuSans-6e" transform="translate(602.490234 0)"/>
      <use xlink:href="#DejaVuSans-74" transform="translate(665.869141 0)"/>
      <use xlink:href="#DejaVuSans-69" transform="translate(705.078125 0)"/>
     </g>
    </g>
    <g id="line2d_7">
     <path d="M 122.01142 91.526484 
L 130.51142 91.526484 
L 139.01142 91.526484 
" style="fill: none; stroke: #2ca02c; stroke-width: 2; stroke-linecap: square"/>
    </g>
    <g id="text_8">
     <!-- lacune leggere -->
     <g transform="translate(145.81142 94.501484) scale(0.085 -0.085)">
      <use xlink:href="#DejaVuSans-6c"/>
      <use xlink:href="#DejaVuSans-61" transform="translate(27.783203 0)"/>
      <use xlink:href="#DejaVuSans-63" transform="translate(89.0625 0)"/>
      <use xlink:href="#DejaVuSans-75" transform="translate(144.042969 0)"/>
      <use xlink:href="#DejaVuSans-6e" transform="translate(207.421875 0)"/>
      <use xlink:href="#DejaVuSans-65" transform="translate(270.800781 0)"/>
      <use xlink:href="#DejaVuSans-20" transform="translate(332.324219 0)"/>
      <use xlink:href="#DejaVuSans-6c" transform="translate(364.111328 0)"/>
      <use xlink:href="#DejaVuSans-65" transform="translate(391.894531 0)"/>
      <use xlink:href="#DejaVuSans-67" transform="translate(453.417969 0)"/>
      <use xlink:href="#DejaVuSans-67" transform="translate(516.894531 0)"/>
      <use xlink:href="#DejaVuSans-65" transform="translate(580.371094 0)"/>
      <use xlink:href="#DejaVuSans-72" transform="translate(641.894531 0)"/>
      <use xlink:href="#DejaVuSans-65" transform="translate(680.757812 0)"/>
     </g>
    </g>
   </g>
  </g>
  <g id="axes_2">
   <g id="patch_8">
    <path d="M 398.289034 426.888 
L 712.798125 426.888 
L 712.798125 55.44 
L 398.289034 55.44 
z
" style="fill: #ffffff"/>
   </g>
   <g id="matplotlib.axis_3">
    <g id="text_9">
     <!-- vettore d'onda -->
     <g transform="translate(518.904517 438.486437) scale(0.1 -0.1)">
      <use xlink:href="#DejaVuSans-76"/>
      <use xlink:href="#DejaVuSans-65" transform="translate(59.179688 0)"/>
      <use xlink:href="#DejaVuSans-74" transform="translate(120.703125 0)"/>
      <use xlink:href="#DejaVuSans-74" transform="translate(159.912109 0)"/>
      <use xlink:href="#DejaVuSans-6f" transform="translate(199.121094 0)"/>
      <use xlink:href="#DejaVuSans-72" transform="translate(260.302734 0)"/>
      <use xlink:href="#DejaVuSans-65" transform="translate(299.166016 0)"/>
      <use xlink:href="#DejaVuSans-20" transform="translate(360.689453 0)"/>
      <use xlink:href="#DejaVuSans-64" transform="translate(392.476562 0)"/>
      <use xlink:href="#DejaVuSans-27" transform="translate(455.953125 0)"/>
      <use xlink:href="#DejaVuSans-6f" transform="translate(483.443359 0)"/>
      <use xlink:href="#DejaVuSans-6e" transform="translate(544.625 0)"/>
      <use xlink:href="#DejaVuSans-64" transform="translate(608.003906 0)"/>
      <use xlink:href="#DejaVuSans-61" transform="translate(671.480469 0)"/>
     </g>
    </g>
   </g>
   <g id="matplotlib.axis_4"/>
   <g id="line2d_8">
    <path d="M 487.260826 -1 
L 492.799278 12.92067 
L 498.574904 26.884865 
L 504.350531 40.28549 
L 510.126157 53.122544 
L 515.901783 65.396027 
L 521.152352 76.06469 
L 526.402921 86.267593 
L 531.65349 96.004734 
L 536.904059 105.276115 
L 542.154628 114.081735 
L 547.405197 122.421594 
L 552.13071 129.529241 
L 556.856222 136.259623 
L 561.581734 142.612738 
L 566.307246 148.588586 
L 571.032758 154.187169 
L 575.758271 159.408485 
L 579.958726 163.732937 
L 584.159181 167.759303 
L 588.359637 171.487581 
L 592.560092 174.917773 
L 596.760547 178.049878 
L 600.961003 180.883896 
L 605.161458 183.419827 
L 608.836856 185.394242 
L 612.512255 187.140434 
L 616.187653 188.658403 
L 619.863051 189.94815 
L 623.53845 191.009674 
L 627.213848 191.842975 
L 630.889247 192.448053 
L 634.564645 192.824908 
L 638.240043 192.973541 
L 641.915442 192.89395 
L 645.59084 192.586137 
L 649.266239 192.050101 
L 652.941637 191.285842 
L 656.617035 190.293361 
L 660.292434 189.072656 
L 663.967832 187.623729 
L 667.64323 185.946579 
L 671.318629 184.041206 
L 674.994027 181.907611 
L 679.194483 179.189759 
L 683.394938 176.173821 
L 687.595393 172.859795 
L 691.795848 169.247683 
L 695.996304 165.337483 
L 700.196759 161.129197 
L 704.397214 156.622824 
L 708.59767 151.818364 
L 712.798125 146.715817 
L 712.798125 146.715817 
" clip-path="url(#pb6bc2f2a97)" style="fill: none; stroke: #1f77b4; stroke-width: 2.2; stroke-linecap: square"/>
   </g>
   <g id="line2d_9">
    <path d="M 398.289034 473.017826 
L 404.589717 460.486918 
L 410.8904 448.468348 
L 417.191083 436.962114 
L 422.966709 426.864807 
L 428.742335 417.198005 
L 434.517961 407.961709 
L 440.293587 399.155918 
L 446.069213 390.780632 
L 451.319782 383.540315 
L 456.570351 376.655787 
L 461.820921 370.127049 
L 467.07149 363.954101 
L 472.322059 358.136942 
L 477.572628 352.675572 
L 482.29814 348.06454 
L 487.023652 343.741697 
L 491.749165 339.707044 
L 496.474677 335.96058 
L 501.200189 332.502305 
L 505.925701 329.332221 
L 510.651213 326.450325 
L 515.376726 323.85662 
L 519.577181 321.79304 
L 523.777636 319.957166 
L 527.978092 318.348998 
L 532.178547 316.968534 
L 536.379002 315.815776 
L 540.579458 314.890723 
L 544.779913 314.193376 
L 548.980368 313.723734 
L 553.180823 313.481797 
L 557.381279 313.467565 
L 561.581734 313.681039 
L 565.782189 314.122218 
L 569.982645 314.791102 
L 574.1831 315.687692 
L 578.383555 316.811987 
L 582.584011 318.163987 
L 586.784466 319.743693 
L 590.984921 321.551103 
L 595.185376 323.58622 
L 599.385832 325.849041 
L 603.586287 328.339568 
L 608.311799 331.413589 
L 613.037312 334.775801 
L 617.762824 338.426201 
L 622.488336 342.364791 
L 627.213848 346.591571 
L 631.93936 351.10654 
L 636.664873 355.909699 
L 641.915442 361.584542 
L 647.166011 367.615175 
L 652.41658 374.001597 
L 657.667149 380.743809 
L 662.917718 387.84181 
L 668.168287 395.295601 
L 673.943913 403.905708 
L 679.719539 412.94632 
L 685.495166 422.417438 
L 691.270792 432.319061 
L 697.046418 442.651189 
L 702.822044 453.413822 
L 709.122727 465.645867 
L 712.798125 473.017826 
L 712.798125 473.017826 
" clip-path="url(#pb6bc2f2a97)" style="fill: none; stroke: #ff7f0e; stroke-width: 2; stroke-linecap: square"/>
   </g>
   <g id="line2d_10">
    <path d="M 439.907975 478.171687 
L 445.019099 463.931042 
L 450.269668 449.972771 
L 455.520238 436.693736 
L 460.24575 425.323349 
L 464.971262 414.503142 
L 469.696774 404.233115 
L 474.422286 394.513268 
L 479.147799 385.343602 
L 483.348254 377.654666 
L 487.548709 370.400441 
L 491.749165 363.580926 
L 495.94962 357.196121 
L 500.150075 351.246026 
L 503.825474 346.396291 
L 507.500872 341.879381 
L 511.17627 337.695296 
L 514.851669 333.844036 
L 518.527067 330.325601 
L 522.202466 327.139991 
L 525.877864 324.287206 
L 529.028205 322.106863 
L 532.178547 320.171044 
L 535.328888 318.47975 
L 538.47923 317.032981 
L 541.629571 315.830735 
L 544.779913 314.873015 
L 547.930254 314.159818 
L 551.080596 313.691146 
L 554.230937 313.466999 
L 557.381279 313.487376 
L 560.53162 313.752278 
L 563.681962 314.261704 
L 566.832303 315.015654 
L 569.982645 316.014129 
L 573.132986 317.257128 
L 576.283328 318.744652 
L 579.433669 320.4767 
L 582.584011 322.453272 
L 585.734352 324.67437 
L 588.884694 327.139991 
L 592.560092 330.325601 
L 596.23549 333.844036 
L 599.910889 337.695296 
L 603.586287 341.879381 
L 607.261685 346.396291 
L 610.937084 351.246026 
L 614.612482 356.428586 
L 618.812938 362.759052 
L 623.013393 369.524228 
L 627.213848 376.724115 
L 631.414303 384.358712 
L 635.614759 392.428018 
L 640.340271 402.025603 
L 645.065783 412.173367 
L 649.791295 422.871312 
L 654.516808 434.119437 
L 659.24232 445.917741 
L 663.967832 458.266226 
L 669.218401 472.632037 
L 671.179185 478.171687 
L 671.179185 478.171687 
" clip-path="url(#pb6bc2f2a97)" style="fill: none; stroke: #2ca02c; stroke-width: 2; stroke-linecap: square"/>
   </g>
   <g id="line2d_11">
    <path d="M 555.54358 426.888 
L 555.54358 55.44 
" clip-path="url(#pb6bc2f2a97)" style="fill: none; stroke-dasharray: 0.8,1.32; stroke-dashoffset: 0; stroke: #1f77b4; stroke-width: 0.8"/>
   </g>
   <g id="line2d_12">
    <path d="M 638.795986 426.888 
L 638.795986 55.44 
" clip-path="url(#pb6bc2f2a97)" style="fill: none; stroke-dasharray: 2.96,1.28; stroke-dashoffset: 0; stroke: #1f77b4; stroke-width: 0.8"/>
   </g>
   <g id="patch_9">
    <path d="M 398.289034 426.888 
L 398.289034 55.44 
" style="fill: none; stroke: #000000; stroke-width: 0.8; stroke-linejoin: miter; stroke-linecap: square"/>
   </g>
   <g id="patch_10">
    <path d="M 712.798125 426.888 
L 712.798125 55.44 
" style="fill: none; stroke: #000000; stroke-width: 0.8; stroke-linejoin: miter; stroke-linecap: square"/>
   </g>
   <g id="patch_11">
    <path d="M 398.289034 426.888 
L 712.798125 426.888 
" style="fill: none; stroke: #000000; stroke-width: 0.8; stroke-linejoin: miter; stroke-linecap: square"/>
   </g>
   <g id="patch_12">
    <path d="M 398.289034 55.44 
L 712.798125 55.44 
" style="fill: none; stroke: #000000; stroke-width: 0.8; stroke-linejoin: miter; stroke-linecap: square"/>
   </g>
   <g id="patch_13">
    <path d="M 555.54358 311.447758 
Q 555.54358 258.232524 555.54358 206.358931 
" style="fill: none; stroke: #000000; stroke-width: 1.2; stroke-linecap: round"/>
    <path d="M 553.54358 210.358931 
L 555.54358 206.358931 
L 557.54358 210.358931 
z
" style="fill: #1f77b4; stroke: #000000; stroke-width: 1.2; stroke-linecap: round"/>
   </g>
   <g id="patch_14">
    <path d="M 557.527836 202.776011 
Q 597.167388 197.996008 635.474949 193.376624 
" style="fill: none; stroke: #000000; stroke-width: 1.2; stroke-linecap: round"/>
    <path d="M 631.264279 191.869887 
L 635.474949 193.376624 
L 631.743156 195.841118 
z
" style="fill: #1f77b4; stroke: #000000; stroke-width: 1.2; stroke-linecap: round"/>
   </g>
   <g id="text_10">
    <!-- energia -->
    <g transform="translate(572.194061 256.222703) scale(0.09 -0.09)">
     <use xlink:href="#DejaVuSans-65"/>
     <use xlink:href="#DejaVuSans-6e" transform="translate(61.523438 0)"/>
     <use xlink:href="#DejaVuSans-65" transform="translate(124.902344 0)"/>
     <use xlink:href="#DejaVuSans-72" transform="translate(186.425781 0)"/>
     <use xlink:href="#DejaVuSans-67" transform="translate(225.789062 0)"/>
     <use xlink:href="#DejaVuSans-69" transform="translate(289.265625 0)"/>
     <use xlink:href="#DejaVuSans-61" transform="translate(317.048828 0)"/>
    </g>
   </g>
   <g id="text_11">
    <!-- momento -->
    <g transform="translate(597.169783 182.937016) scale(0.09 -0.09)">
     <defs>
      <path id="DejaVuSans-6d" d="M 3328 2828 
Q 3544 3216 3844 3400 
Q 4144 3584 4550 3584 
Q 5097 3584 5394 3201 
Q 5691 2819 5691 2113 
L 5691 0 
L 5113 0 
L 5113 2094 
Q 5113 2597 4934 2840 
Q 4756 3084 4391 3084 
Q 3944 3084 3684 2787 
Q 3425 2491 3425 1978 
L 3425 0 
L 2847 0 
L 2847 2094 
Q 2847 2600 2669 2842 
Q 2491 3084 2119 3084 
Q 1678 3084 1418 2786 
Q 1159 2488 1159 1978 
L 1159 0 
L 581 0 
L 581 3500 
L 1159 3500 
L 1159 2956 
Q 1356 3278 1631 3431 
Q 1906 3584 2284 3584 
Q 2666 3584 2933 3390 
Q 3200 3197 3328 2828 
z
" transform="scale(0.015625)"/>
     </defs>
     <use xlink:href="#DejaVuSans-6d"/>
     <use xlink:href="#DejaVuSans-6f" transform="translate(97.412109 0)"/>
     <use xlink:href="#DejaVuSans-6d" transform="translate(158.59375 0)"/>
     <use xlink:href="#DejaVuSans-65" transform="translate(256.005859 0)"/>
     <use xlink:href="#DejaVuSans-6e" transform="translate(317.529297 0)"/>
     <use xlink:href="#DejaVuSans-74" transform="translate(380.908203 0)"/>
     <use xlink:href="#DejaVuSans-6f" transform="translate(420.117188 0)"/>
    </g>
   </g>
   <g id="text_12">
    <!-- $\Gamma$ -->
    <g transform="translate(552.74358 416.848865) scale(0.1 -0.1)">
     <use xlink:href="#DejaVuSans-393" transform="translate(0 0.09375)"/>
    </g>
   </g>
   <g id="text_13">
    <!-- minimo CB -->
    <g transform="translate(614.263955 416.848865) scale(0.09 -0.09)">
     <defs>
      <path id="DejaVuSans-43" d="M 4122 4306 
L 4122 3641 
Q 3803 3938 3442 4084 
Q 3081 4231 2675 4231 
Q 1875 4231 1450 3742 
Q 1025 3253 1025 2328 
Q 1025 1406 1450 917 
Q 1875 428 2675 428 
Q 3081 428 3442 575 
Q 3803 722 4122 1019 
L 4122 359 
Q 3791 134 3420 21 
Q 3050 -91 2638 -91 
Q 1578 -91 968 557 
Q 359 1206 359 2328 
Q 359 3453 968 4101 
Q 1578 4750 2638 4750 
Q 3056 4750 3426 4639 
Q 3797 4528 4122 4306 
z
" transform="scale(0.015625)"/>
      <path id="DejaVuSans-42" d="M 1259 2228 
L 1259 519 
L 2272 519 
Q 2781 519 3026 730 
Q 3272 941 3272 1375 
Q 3272 1813 3026 2020 
Q 2781 2228 2272 2228 
L 1259 2228 
z
M 1259 4147 
L 1259 2741 
L 2194 2741 
Q 2656 2741 2882 2914 
Q 3109 3088 3109 3444 
Q 3109 3797 2882 3972 
Q 2656 4147 2194 4147 
L 1259 4147 
z
M 628 4666 
L 2241 4666 
Q 2963 4666 3353 4366 
Q 3744 4066 3744 3513 
Q 3744 3084 3544 2831 
Q 3344 2578 2956 2516 
Q 3422 2416 3680 2098 
Q 3938 1781 3938 1306 
Q 3938 681 3513 340 
Q 3088 0 2303 0 
L 628 0 
L 628 4666 
z
" transform="scale(0.015625)"/>
     </defs>
     <use xlink:href="#DejaVuSans-6d"/>
     <use xlink:href="#DejaVuSans-69" transform="translate(97.412109 0)"/>
     <use xlink:href="#DejaVuSans-6e" transform="translate(125.195312 0)"/>
     <use xlink:href="#DejaVuSans-69" transform="translate(188.574219 0)"/>
     <use xlink:href="#DejaVuSans-6d" transform="translate(216.357422 0)"/>
     <use xlink:href="#DejaVuSans-6f" transform="translate(313.769531 0)"/>
     <use xlink:href="#DejaVuSans-20" transform="translate(374.951172 0)"/>
     <use xlink:href="#DejaVuSans-43" transform="translate(406.738281 0)"/>
     <use xlink:href="#DejaVuSans-42" transform="translate(476.5625 0)"/>
    </g>
   </g>
   <g id="text_14">
    <!-- Si — gap indiretto -->
    <g transform="translate(494.695142 49.44) scale(0.12 -0.12)">
     <defs>
      <path id="DejaVuSans-Bold-53" d="M 3834 4519 
L 3834 3531 
Q 3450 3703 3084 3790 
Q 2719 3878 2394 3878 
Q 1963 3878 1756 3759 
Q 1550 3641 1550 3391 
Q 1550 3203 1689 3098 
Q 1828 2994 2194 2919 
L 2706 2816 
Q 3484 2659 3812 2340 
Q 4141 2022 4141 1434 
Q 4141 663 3683 286 
Q 3225 -91 2284 -91 
Q 1841 -91 1394 -6 
Q 947 78 500 244 
L 500 1259 
Q 947 1022 1364 901 
Q 1781 781 2169 781 
Q 2563 781 2772 912 
Q 2981 1044 2981 1288 
Q 2981 1506 2839 1625 
Q 2697 1744 2272 1838 
L 1806 1941 
Q 1106 2091 782 2419 
Q 459 2747 459 3303 
Q 459 4000 909 4375 
Q 1359 4750 2203 4750 
Q 2588 4750 2994 4692 
Q 3400 4634 3834 4519 
z
" transform="scale(0.015625)"/>
      <path id="DejaVuSans-Bold-6e" d="M 4056 2131 
L 4056 0 
L 2931 0 
L 2931 347 
L 2931 1631 
Q 2931 2084 2911 2256 
Q 2891 2428 2841 2509 
Q 2775 2619 2662 2680 
Q 2550 2741 2406 2741 
Q 2056 2741 1856 2470 
Q 1656 2200 1656 1722 
L 1656 0 
L 538 0 
L 538 3500 
L 1656 3500 
L 1656 2988 
Q 1909 3294 2193 3439 
Q 2478 3584 2822 3584 
Q 3428 3584 3742 3212 
Q 4056 2841 4056 2131 
z
" transform="scale(0.015625)"/>
     </defs>
     <use xlink:href="#DejaVuSans-Bold-53"/>
     <use xlink:href="#DejaVuSans-Bold-69" transform="translate(72.021484 0)"/>
     <use xlink:href="#DejaVuSans-Bold-20" transform="translate(106.298828 0)"/>
     <use xlink:href="#DejaVuSans-Bold-2014" transform="translate(141.113281 0)"/>
     <use xlink:href="#DejaVuSans-Bold-20" transform="translate(241.113281 0)"/>
     <use xlink:href="#DejaVuSans-Bold-67" transform="translate(275.927734 0)"/>
     <use xlink:href="#DejaVuSans-Bold-61" transform="translate(347.509766 0)"/>
     <use xlink:href="#DejaVuSans-Bold-70" transform="translate(414.990234 0)"/>
     <use xlink:href="#DejaVuSans-Bold-20" transform="translate(486.572266 0)"/>
     <use xlink:href="#DejaVuSans-Bold-69" transform="translate(521.386719 0)"/>
     <use xlink:href="#DejaVuSans-Bold-6e" transform="translate(555.664062 0)"/>
     <use xlink:href="#DejaVuSans-Bold-64" transform="translate(626.855469 0)"/>
     <use xlink:href="#DejaVuSans-Bold-69" transform="translate(698.4375 0)"/>
     <use xlink:href="#DejaVuSans-Bold-72" transform="translate(732.714844 0)"/>
     <use xlink:href="#DejaVuSans-Bold-65" transform="translate(782.03125 0)"/>
     <use xlink:href="#DejaVuSans-Bold-74" transform="translate(849.853516 0)"/>
     <use xlink:href="#DejaVuSans-Bold-74" transform="translate(897.65625 0)"/>
     <use xlink:href="#DejaVuSans-Bold-6f" transform="translate(945.458984 0)"/>
    </g>
   </g>
  </g>
  <g id="text_15">
   <!-- Approssimazione parabolica per semiconduttori a gap diretto e indiretto -->
   <g transform="translate(47.86875 18.597656) scale(0.15 -0.15)">
    <defs>
     <path id="DejaVuSans-Bold-6d" d="M 3781 2919 
Q 3994 3244 4286 3414 
Q 4578 3584 4928 3584 
Q 5531 3584 5847 3212 
Q 6163 2841 6163 2131 
L 6163 0 
L 5038 0 
L 5038 1825 
Q 5041 1866 5042 1909 
Q 5044 1953 5044 2034 
Q 5044 2406 4934 2573 
Q 4825 2741 4581 2741 
Q 4263 2741 4089 2478 
Q 3916 2216 3909 1719 
L 3909 0 
L 2784 0 
L 2784 1825 
Q 2784 2406 2684 2573 
Q 2584 2741 2328 2741 
Q 2006 2741 1831 2477 
Q 1656 2213 1656 1722 
L 1656 0 
L 531 0 
L 531 3500 
L 1656 3500 
L 1656 2988 
Q 1863 3284 2130 3434 
Q 2397 3584 2719 3584 
Q 3081 3584 3359 3409 
Q 3638 3234 3781 2919 
z
" transform="scale(0.015625)"/>
     <path id="DejaVuSans-Bold-7a" d="M 366 3500 
L 3419 3500 
L 3419 2719 
L 1575 800 
L 3419 800 
L 3419 0 
L 288 0 
L 288 781 
L 2131 2700 
L 366 2700 
L 366 3500 
z
" transform="scale(0.015625)"/>
     <path id="DejaVuSans-Bold-62" d="M 2400 722 
Q 2759 722 2948 984 
Q 3138 1247 3138 1747 
Q 3138 2247 2948 2509 
Q 2759 2772 2400 2772 
Q 2041 2772 1848 2508 
Q 1656 2244 1656 1747 
Q 1656 1250 1848 986 
Q 2041 722 2400 722 
z
M 1656 2988 
Q 1888 3294 2169 3439 
Q 2450 3584 2816 3584 
Q 3463 3584 3878 3070 
Q 4294 2556 4294 1747 
Q 4294 938 3878 423 
Q 3463 -91 2816 -91 
Q 2450 -91 2169 54 
Q 1888 200 1656 506 
L 1656 0 
L 538 0 
L 538 4863 
L 1656 4863 
L 1656 2988 
z
" transform="scale(0.015625)"/>
     <path id="DejaVuSans-Bold-6c" d="M 538 4863 
L 1656 4863 
L 1656 0 
L 538 0 
L 538 4863 
z
" transform="scale(0.015625)"/>
     <path id="DejaVuSans-Bold-63" d="M 3366 3391 
L 3366 2478 
Q 3138 2634 2908 2709 
Q 2678 2784 2431 2784 
Q 1963 2784 1702 2511 
Q 1441 2238 1441 1747 
Q 1441 1256 1702 982 
Q 1963 709 2431 709 
Q 2694 709 2930 787 
Q 3166 866 3366 1019 
L 3366 103 
Q 3103 6 2833 -42 
Q 2563 -91 2291 -91 
Q 1344 -91 809 395 
Q 275 881 275 1747 
Q 275 2613 809 3098 
Q 1344 3584 2291 3584 
Q 2566 3584 2833 3536 
Q 3100 3488 3366 3391 
z
" transform="scale(0.015625)"/>
     <path id="DejaVuSans-Bold-75" d="M 500 1363 
L 500 3500 
L 1625 3500 
L 1625 3150 
Q 1625 2866 1622 2436 
Q 1619 2006 1619 1863 
Q 1619 1441 1641 1255 
Q 1663 1069 1716 984 
Q 1784 875 1895 815 
Q 2006 756 2150 756 
Q 2500 756 2700 1025 
Q 2900 1294 2900 1772 
L 2900 3500 
L 4019 3500 
L 4019 0 
L 2900 0 
L 2900 506 
Q 2647 200 2364 54 
Q 2081 -91 1741 -91 
Q 1134 -91 817 281 
Q 500 653 500 1363 
z
" transform="scale(0.015625)"/>
    </defs>
    <use xlink:href="#DejaVuSans-Bold-41"/>
    <use xlink:href="#DejaVuSans-Bold-70" transform="translate(77.392578 0)"/>
    <use xlink:href="#DejaVuSans-Bold-70" transform="translate(148.974609 0)"/>
    <use xlink:href="#DejaVuSans-Bold-72" transform="translate(220.556641 0)"/>
    <use xlink:href="#DejaVuSans-Bold-6f" transform="translate(269.873047 0)"/>
    <use xlink:href="#DejaVuSans-Bold-73" transform="translate(338.574219 0)"/>
    <use xlink:href="#DejaVuSans-Bold-73" transform="translate(398.095703 0)"/>
    <use xlink:href="#DejaVuSans-Bold-69" transform="translate(457.617188 0)"/>
    <use xlink:href="#DejaVuSans-Bold-6d" transform="translate(491.894531 0)"/>
    <use xlink:href="#DejaVuSans-Bold-61" transform="translate(596.09375 0)"/>
    <use xlink:href="#DejaVuSans-Bold-7a" transform="translate(663.574219 0)"/>
    <use xlink:href="#DejaVuSans-Bold-69" transform="translate(721.777344 0)"/>
    <use xlink:href="#DejaVuSans-Bold-6f" transform="translate(756.054688 0)"/>
    <use xlink:href="#DejaVuSans-Bold-6e" transform="translate(824.755859 0)"/>
    <use xlink:href="#DejaVuSans-Bold-65" transform="translate(895.947266 0)"/>
    <use xlink:href="#DejaVuSans-Bold-20" transform="translate(963.769531 0)"/>
    <use xlink:href="#DejaVuSans-Bold-70" transform="translate(998.583984 0)"/>
    <use xlink:href="#DejaVuSans-Bold-61" transform="translate(1070.166016 0)"/>
    <use xlink:href="#DejaVuSans-Bold-72" transform="translate(1137.646484 0)"/>
    <use xlink:href="#DejaVuSans-Bold-61" transform="translate(1186.962891 0)"/>
    <use xlink:href="#DejaVuSans-Bold-62" transform="translate(1254.443359 0)"/>
    <use xlink:href="#DejaVuSans-Bold-6f" transform="translate(1326.025391 0)"/>
    <use xlink:href="#DejaVuSans-Bold-6c" transform="translate(1394.726562 0)"/>
    <use xlink:href="#DejaVuSans-Bold-69" transform="translate(1429.003906 0)"/>
    <use xlink:href="#DejaVuSans-Bold-63" transform="translate(1463.28125 0)"/>
    <use xlink:href="#DejaVuSans-Bold-61" transform="translate(1522.558594 0)"/>
    <use xlink:href="#DejaVuSans-Bold-20" transform="translate(1590.039062 0)"/>
    <use xlink:href="#DejaVuSans-Bold-70" transform="translate(1624.853516 0)"/>
    <use xlink:href="#DejaVuSans-Bold-65" transform="translate(1696.435547 0)"/>
    <use xlink:href="#DejaVuSans-Bold-72" transform="translate(1764.257812 0)"/>
    <use xlink:href="#DejaVuSans-Bold-20" transform="translate(1813.574219 0)"/>
    <use xlink:href="#DejaVuSans-Bold-73" transform="translate(1848.388672 0)"/>
    <use xlink:href="#DejaVuSans-Bold-65" transform="translate(1907.910156 0)"/>
    <use xlink:href="#DejaVuSans-Bold-6d" transform="translate(1975.732422 0)"/>
    <use xlink:href="#DejaVuSans-Bold-69" transform="translate(2079.931641 0)"/>
    <use xlink:href="#DejaVuSans-Bold-63" transform="translate(2114.208984 0)"/>
    <use xlink:href="#DejaVuSans-Bold-6f" transform="translate(2173.486328 0)"/>
    <use xlink:href="#DejaVuSans-Bold-6e" transform="translate(2242.1875 0)"/>
    <use xlink:href="#DejaVuSans-Bold-64" transform="translate(2313.378906 0)"/>
    <use xlink:href="#DejaVuSans-Bold-75" transform="translate(2384.960938 0)"/>
    <use xlink:href="#DejaVuSans-Bold-74" transform="translate(2456.152344 0)"/>
    <use xlink:href="#DejaVuSans-Bold-74" transform="translate(2503.955078 0)"/>
    <use xlink:href="#DejaVuSans-Bold-6f" transform="translate(2551.757812 0)"/>
    <use xlink:href="#DejaVuSans-Bold-72" transform="translate(2620.458984 0)"/>
    <use xlink:href="#DejaVuSans-Bold-69" transform="translate(2669.775391 0)"/>
    <use xlink:href="#DejaVuSans-Bold-20" transform="translate(2704.052734 0)"/>
    <use xlink:href="#DejaVuSans-Bold-61" transform="translate(2738.867188 0)"/>
    <use xlink:href="#DejaVuSans-Bold-20" transform="translate(2806.347656 0)"/>
    <use xlink:href="#DejaVuSans-Bold-67" transform="translate(2841.162109 0)"/>
    <use xlink:href="#DejaVuSans-Bold-61" transform="translate(2912.744141 0)"/>
    <use xlink:href="#DejaVuSans-Bold-70" transform="translate(2980.224609 0)"/>
    <use xlink:href="#DejaVuSans-Bold-20" transform="translate(3051.806641 0)"/>
    <use xlink:href="#DejaVuSans-Bold-64" transform="translate(3086.621094 0)"/>
    <use xlink:href="#DejaVuSans-Bold-69" transform="translate(3158.203125 0)"/>
    <use xlink:href="#DejaVuSans-Bold-72" transform="translate(3192.480469 0)"/>
    <use xlink:href="#DejaVuSans-Bold-65" transform="translate(3241.796875 0)"/>
    <use xlink:href="#DejaVuSans-Bold-74" transform="translate(3309.619141 0)"/>
    <use xlink:href="#DejaVuSans-Bold-74" transform="translate(3357.421875 0)"/>
    <use xlink:href="#DejaVuSans-Bold-6f" transform="translate(3405.224609 0)"/>
    <use xlink:href="#DejaVuSans-Bold-20" transform="translate(3473.925781 0)"/>
    <use xlink:href="#DejaVuSans-Bold-65" transform="translate(3508.740234 0)"/>
    <use xlink:href="#DejaVuSans-Bold-20" transform="translate(3576.5625 0)"/>
    <use xlink:href="#DejaVuSans-Bold-69" transform="translate(3611.376953 0)"/>
    <use xlink:href="#DejaVuSans-Bold-6e" transform="translate(3645.654297 0)"/>
    <use xlink:href="#DejaVuSans-Bold-64" transform="translate(3716.845703 0)"/>
    <use xlink:href="#DejaVuSans-Bold-69" transform="translate(3788.427734 0)"/>
    <use xlink:href="#DejaVuSans-Bold-72" transform="translate(3822.705078 0)"/>
    <use xlink:href="#DejaVuSans-Bold-65" transform="translate(3872.021484 0)"/>
    <use xlink:href="#DejaVuSans-Bold-74" transform="translate(3939.84375 0)"/>
    <use xlink:href="#DejaVuSans-Bold-74" transform="translate(3987.646484 0)"/>
    <use xlink:href="#DejaVuSans-Bold-6f" transform="translate(4035.449219 0)"/>
   </g>
  </g>
  <g id="text_16">
   <!-- Nel GaAs il massimo della valenza e il minimo della conduzione coincidono in Γ; nel silicio sono separati nello spazio k. -->
   <g transform="translate(58.353125 467.892) scale(0.1 -0.1)">
    <defs>
     <path id="DejaVuSans-4e" d="M 628 4666 
L 1478 4666 
L 3547 763 
L 3547 4666 
L 4159 4666 
L 4159 0 
L 3309 0 
L 1241 3903 
L 1241 0 
L 628 0 
L 628 4666 
z
" transform="scale(0.015625)"/>
     <path id="DejaVuSans-47" d="M 3809 666 
L 3809 1919 
L 2778 1919 
L 2778 2438 
L 4434 2438 
L 4434 434 
Q 4069 175 3628 42 
Q 3188 -91 2688 -91 
Q 1594 -91 976 548 
Q 359 1188 359 2328 
Q 359 3472 976 4111 
Q 1594 4750 2688 4750 
Q 3144 4750 3555 4637 
Q 3966 4525 4313 4306 
L 4313 3634 
Q 3963 3931 3569 4081 
Q 3175 4231 2741 4231 
Q 1884 4231 1454 3753 
Q 1025 3275 1025 2328 
Q 1025 1384 1454 906 
Q 1884 428 2741 428 
Q 3075 428 3337 486 
Q 3600 544 3809 666 
z
" transform="scale(0.015625)"/>
     <path id="DejaVuSans-41" d="M 2188 4044 
L 1331 1722 
L 3047 1722 
L 2188 4044 
z
M 1831 4666 
L 2547 4666 
L 4325 0 
L 3669 0 
L 3244 1197 
L 1141 1197 
L 716 0 
L 50 0 
L 1831 4666 
z
" transform="scale(0.015625)"/>
     <path id="DejaVuSans-3b" d="M 750 3309 
L 1409 3309 
L 1409 2516 
L 750 2516 
L 750 3309 
z
M 750 794 
L 1409 794 
L 1409 256 
L 897 -744 
L 494 -744 
L 750 256 
L 750 794 
z
" transform="scale(0.015625)"/>
     <path id="DejaVuSans-6b" d="M 581 4863 
L 1159 4863 
L 1159 1991 
L 2875 3500 
L 3609 3500 
L 1753 1863 
L 3688 0 
L 2938 0 
L 1159 1709 
L 1159 0 
L 581 0 
L 581 4863 
z
" transform="scale(0.015625)"/>
     <path id="DejaVuSans-2e" d="M 684 794 
L 1344 794 
L 1344 0 
L 684 0 
L 684 794 
z
" transform="scale(0.015625)"/>
    </defs>
    <use xlink:href="#DejaVuSans-4e"/>
    <use xlink:href="#DejaVuSans-65" transform="translate(74.804688 0)"/>
    <use xlink:href="#DejaVuSans-6c" transform="translate(136.328125 0)"/>
    <use xlink:href="#DejaVuSans-20" transform="translate(164.111328 0)"/>
    <use xlink:href="#DejaVuSans-47" transform="translate(195.898438 0)"/>
    <use xlink:href="#DejaVuSans-61" transform="translate(273.388672 0)"/>
    <use xlink:href="#DejaVuSans-41" transform="translate(334.667969 0)"/>
    <use xlink:href="#DejaVuSans-73" transform="translate(403.076172 0)"/>
    <use xlink:href="#DejaVuSans-20" transform="translate(455.175781 0)"/>
    <use xlink:href="#DejaVuSans-69" transform="translate(486.962891 0)"/>
    <use xlink:href="#DejaVuSans-6c" transform="translate(514.746094 0)"/>
    <use xlink:href="#DejaVuSans-20" transform="translate(542.529297 0)"/>
    <use xlink:href="#DejaVuSans-6d" transform="translate(574.316406 0)"/>
    <use xlink:href="#DejaVuSans-61" transform="translate(671.728516 0)"/>
    <use xlink:href="#DejaVuSans-73" transform="translate(733.007812 0)"/>
    <use xlink:href="#DejaVuSans-73" transform="translate(785.107422 0)"/>
    <use xlink:href="#DejaVuSans-69" transform="translate(837.207031 0)"/>
    <use xlink:href="#DejaVuSans-6d" transform="translate(864.990234 0)"/>
    <use xlink:href="#DejaVuSans-6f" transform="translate(962.402344 0)"/>
    <use xlink:href="#DejaVuSans-20" transform="translate(1023.583984 0)"/>
    <use xlink:href="#DejaVuSans-64" transform="translate(1055.371094 0)"/>
    <use xlink:href="#DejaVuSans-65" transform="translate(1118.847656 0)"/>
    <use xlink:href="#DejaVuSans-6c" transform="translate(1180.371094 0)"/>
    <use xlink:href="#DejaVuSans-6c" transform="translate(1208.154297 0)"/>
    <use xlink:href="#DejaVuSans-61" transform="translate(1235.9375 0)"/>
    <use xlink:href="#DejaVuSans-20" transform="translate(1297.216797 0)"/>
    <use xlink:href="#DejaVuSans-76" transform="translate(1329.003906 0)"/>
    <use xlink:href="#DejaVuSans-61" transform="translate(1388.183594 0)"/>
    <use xlink:href="#DejaVuSans-6c" transform="translate(1449.462891 0)"/>
    <use xlink:href="#DejaVuSans-65" transform="translate(1477.246094 0)"/>
    <use xlink:href="#DejaVuSans-6e" transform="translate(1538.769531 0)"/>
    <use xlink:href="#DejaVuSans-7a" transform="translate(1602.148438 0)"/>
    <use xlink:href="#DejaVuSans-61" transform="translate(1654.638672 0)"/>
    <use xlink:href="#DejaVuSans-20" transform="translate(1715.917969 0)"/>
    <use xlink:href="#DejaVuSans-65" transform="translate(1747.705078 0)"/>
    <use xlink:href="#DejaVuSans-20" transform="translate(1809.228516 0)"/>
    <use xlink:href="#DejaVuSans-69" transform="translate(1841.015625 0)"/>
    <use xlink:href="#DejaVuSans-6c" transform="translate(1868.798828 0)"/>
    <use xlink:href="#DejaVuSans-20" transform="translate(1896.582031 0)"/>
    <use xlink:href="#DejaVuSans-6d" transform="translate(1928.369141 0)"/>
    <use xlink:href="#DejaVuSans-69" transform="translate(2025.78125 0)"/>
    <use xlink:href="#DejaVuSans-6e" transform="translate(2053.564453 0)"/>
    <use xlink:href="#DejaVuSans-69" transform="translate(2116.943359 0)"/>
    <use xlink:href="#DejaVuSans-6d" transform="translate(2144.726562 0)"/>
    <use xlink:href="#DejaVuSans-6f" transform="translate(2242.138672 0)"/>
    <use xlink:href="#DejaVuSans-20" transform="translate(2303.320312 0)"/>
    <use xlink:href="#DejaVuSans-64" transform="translate(2335.107422 0)"/>
    <use xlink:href="#DejaVuSans-65" transform="translate(2398.583984 0)"/>
    <use xlink:href="#DejaVuSans-6c" transform="translate(2460.107422 0)"/>
    <use xlink:href="#DejaVuSans-6c" transform="translate(2487.890625 0)"/>
    <use xlink:href="#DejaVuSans-61" transform="translate(2515.673828 0)"/>
    <use xlink:href="#DejaVuSans-20" transform="translate(2576.953125 0)"/>
    <use xlink:href="#DejaVuSans-63" transform="translate(2608.740234 0)"/>
    <use xlink:href="#DejaVuSans-6f" transform="translate(2663.720703 0)"/>
    <use xlink:href="#DejaVuSans-6e" transform="translate(2724.902344 0)"/>
    <use xlink:href="#DejaVuSans-64" transform="translate(2788.28125 0)"/>
    <use xlink:href="#DejaVuSans-75" transform="translate(2851.757812 0)"/>
    <use xlink:href="#DejaVuSans-7a" transform="translate(2915.136719 0)"/>
    <use xlink:href="#DejaVuSans-69" transform="translate(2967.626953 0)"/>
    <use xlink:href="#DejaVuSans-6f" transform="translate(2995.410156 0)"/>
    <use xlink:href="#DejaVuSans-6e" transform="translate(3056.591797 0)"/>
    <use xlink:href="#DejaVuSans-65" transform="translate(3119.970703 0)"/>
    <use xlink:href="#DejaVuSans-20" transform="translate(3181.494141 0)"/>
    <use xlink:href="#DejaVuSans-63" transform="translate(3213.28125 0)"/>
    <use xlink:href="#DejaVuSans-6f" transform="translate(3268.261719 0)"/>
    <use xlink:href="#DejaVuSans-69" transform="translate(3329.443359 0)"/>
    <use xlink:href="#DejaVuSans-6e" transform="translate(3357.226562 0)"/>
    <use xlink:href="#DejaVuSans-63" transform="translate(3420.605469 0)"/>
    <use xlink:href="#DejaVuSans-69" transform="translate(3475.585938 0)"/>
    <use xlink:href="#DejaVuSans-64" transform="translate(3503.369141 0)"/>
    <use xlink:href="#DejaVuSans-6f" transform="translate(3566.845703 0)"/>
    <use xlink:href="#DejaVuSans-6e" transform="translate(3628.027344 0)"/>
    <use xlink:href="#DejaVuSans-6f" transform="translate(3691.40625 0)"/>
    <use xlink:href="#DejaVuSans-20" transform="translate(3752.587891 0)"/>
    <use xlink:href="#DejaVuSans-69" transform="translate(3784.375 0)"/>
    <use xlink:href="#DejaVuSans-6e" transform="translate(3812.158203 0)"/>
    <use xlink:href="#DejaVuSans-20" transform="translate(3875.537109 0)"/>
    <use xlink:href="#DejaVuSans-393" transform="translate(3907.324219 0)"/>
    <use xlink:href="#DejaVuSans-3b" transform="translate(3963.037109 0)"/>
    <use xlink:href="#DejaVuSans-20" transform="translate(3996.728516 0)"/>
    <use xlink:href="#DejaVuSans-6e" transform="translate(4028.515625 0)"/>
    <use xlink:href="#DejaVuSans-65" transform="translate(4091.894531 0)"/>
    <use xlink:href="#DejaVuSans-6c" transform="translate(4153.417969 0)"/>
    <use xlink:href="#DejaVuSans-20" transform="translate(4181.201172 0)"/>
    <use xlink:href="#DejaVuSans-73" transform="translate(4212.988281 0)"/>
    <use xlink:href="#DejaVuSans-69" transform="translate(4265.087891 0)"/>
    <use xlink:href="#DejaVuSans-6c" transform="translate(4292.871094 0)"/>
    <use xlink:href="#DejaVuSans-69" transform="translate(4320.654297 0)"/>
    <use xlink:href="#DejaVuSans-63" transform="translate(4348.4375 0)"/>
    <use xlink:href="#DejaVuSans-69" transform="translate(4403.417969 0)"/>
    <use xlink:href="#DejaVuSans-6f" transform="translate(4431.201172 0)"/>
    <use xlink:href="#DejaVuSans-20" transform="translate(4492.382812 0)"/>
    <use xlink:href="#DejaVuSans-73" transform="translate(4524.169922 0)"/>
    <use xlink:href="#DejaVuSans-6f" transform="translate(4576.269531 0)"/>
    <use xlink:href="#DejaVuSans-6e" transform="translate(4637.451172 0)"/>
    <use xlink:href="#DejaVuSans-6f" transform="translate(4700.830078 0)"/>
    <use xlink:href="#DejaVuSans-20" transform="translate(4762.011719 0)"/>
    <use xlink:href="#DejaVuSans-73" transform="translate(4793.798828 0)"/>
    <use xlink:href="#DejaVuSans-65" transform="translate(4845.898438 0)"/>
    <use xlink:href="#DejaVuSans-70" transform="translate(4907.421875 0)"/>
    <use xlink:href="#DejaVuSans-61" transform="translate(4970.898438 0)"/>
    <use xlink:href="#DejaVuSans-72" transform="translate(5032.177734 0)"/>
    <use xlink:href="#DejaVuSans-61" transform="translate(5073.291016 0)"/>
    <use xlink:href="#DejaVuSans-74" transform="translate(5134.570312 0)"/>
    <use xlink:href="#DejaVuSans-69" transform="translate(5173.779297 0)"/>
    <use xlink:href="#DejaVuSans-20" transform="translate(5201.5625 0)"/>
    <use xlink:href="#DejaVuSans-6e" transform="translate(5233.349609 0)"/>
    <use xlink:href="#DejaVuSans-65" transform="translate(5296.728516 0)"/>
    <use xlink:href="#DejaVuSans-6c" transform="translate(5358.251953 0)"/>
    <use xlink:href="#DejaVuSans-6c" transform="translate(5386.035156 0)"/>
    <use xlink:href="#DejaVuSans-6f" transform="translate(5413.818359 0)"/>
    <use xlink:href="#DejaVuSans-20" transform="translate(5475 0)"/>
    <use xlink:href="#DejaVuSans-73" transform="translate(5506.787109 0)"/>
    <use xlink:href="#DejaVuSans-70" transform="translate(5558.886719 0)"/>
    <use xlink:href="#DejaVuSans-61" transform="translate(5622.363281 0)"/>
    <use xlink:href="#DejaVuSans-7a" transform="translate(5683.642578 0)"/>
    <use xlink:href="#DejaVuSans-69" transform="translate(5736.132812 0)"/>
    <use xlink:href="#DejaVuSans-6f" transform="translate(5763.916016 0)"/>
    <use xlink:href="#DejaVuSans-20" transform="translate(5825.097656 0)"/>
    <use xlink:href="#DejaVuSans-6b" transform="translate(5856.884766 0)"/>
    <use xlink:href="#DejaVuSans-2e" transform="translate(5914.794922 0)"/>
   </g>
  </g>
 </g>
 <defs>
  <clipPath id="p1d9528c482">
   <rect x="20.878125" y="55.44" width="314.509091" height="371.448"/>
  </clipPath>
  <clipPath id="pb6bc2f2a97">
   <rect x="398.289034" y="55.44" width="314.509091" height="371.448"/>
  </clipPath>
 </defs>
</svg>
