<?xml version="1.0" encoding="utf-8" standalone="no"?>
<!DOCTYPE svg PUBLIC "-//W3C//DTD SVG 1.1//EN"
  "http://www.w3.org/Graphics/SVG/1.1/DTD/svg11.dtd">
<svg xmlns:xlink="http://www.w3.org/1999/xlink" width="610.943437pt" height="454.705344pt" viewBox="0 0 610.943437 454.705344" xmlns="http://www.w3.org/2000/svg" version="1.1">
 <metadata>
  <rdf:RDF xmlns:dc="http://purl.org/dc/elements/1.1/" xmlns:cc="http://creativecommons.org/ns#" xmlns:rdf="http://www.w3.org/1999/02/22-rdf-syntax-ns#">
   <cc:Work>
    <dc:type rdf:resource="http://purl.org/dc/dcmitype/StillImage"/>
    <dc:date>2026-06-16T08:30:03.181549</dc:date>
    <dc:format>image/svg+xml</dc:format>
    <dc:creator>
     <cc:Agent>
      <dc:title>Matplotlib v3.10.8, https://matplotlib.org/</dc:title>
     </cc:Agent>
    </dc:creator>
   </cc:Work>
  </rdf:RDF>
 </metadata>
 <defs>
  <style type="text/css">*{stroke-linejoin: round; stroke-linecap: butt}</style>
 </defs>
 <g id="figure_1">
  <g id="patch_1">
   <path d="M 0 454.705344 
L 610.943437 454.705344 
L 610.943437 0 
L 0 0 
z
" style="fill: #ffffff"/>
  </g>
  <g id="axes_1">
   <g id="patch_2">
    <path d="M 23.423437 373.389656 
L 603.743438 373.389656 
L 603.743438 30.597656 
L 23.423437 30.597656 
z
" style="fill: #ffffff"/>
   </g>
   <g id="FillBetweenPolyCollection_1">
    <path d="M 56.804698 76.216363 
L 56.804698 349.928607 
L 57.833872 349.928607 
L 58.863045 349.928607 
L 59.892218 349.928607 
L 60.921391 349.928607 
L 61.950565 349.928607 
L 62.979738 349.928607 
L 64.008911 349.928607 
L 65.038085 349.928607 
L 66.067258 349.928607 
L 67.096431 349.928607 
L 68.125605 349.928607 
L 69.154778 349.928607 
L 70.183951 349.928607 
L 71.213124 349.928607 
L 72.242298 349.928607 
L 73.271471 349.928607 
L 74.300644 349.928607 
L 75.329818 349.928607 
L 76.358991 349.928607 
L 77.388164 349.928607 
L 78.417338 349.928607 
L 79.446511 349.928607 
L 80.475684 349.928607 
L 81.504858 349.928607 
L 82.534031 349.928607 
L 83.563204 349.928607 
L 84.592377 349.928607 
L 85.621551 349.928607 
L 86.650724 349.928607 
L 87.679897 349.928607 
L 88.709071 349.928607 
L 89.738244 349.928607 
L 90.767417 349.928607 
L 91.796591 349.928607 
L 92.825764 349.928607 
L 93.854937 349.928607 
L 94.88411 349.928607 
L 95.913284 349.928607 
L 96.942457 349.928607 
L 97.97163 349.928607 
L 99.000804 349.928607 
L 100.029977 349.928607 
L 101.05915 349.928607 
L 102.088324 349.928607 
L 103.117497 349.928607 
L 104.14667 349.928607 
L 105.175844 349.928607 
L 106.205017 349.928607 
L 107.23419 349.928607 
L 108.263363 349.928607 
L 109.292537 349.928607 
L 110.32171 349.928607 
L 111.350883 349.928607 
L 112.380057 349.928607 
L 113.40923 349.928607 
L 114.438403 349.928607 
L 115.467577 349.928607 
L 116.49675 349.928607 
L 117.525923 349.928607 
L 118.555096 349.928607 
L 119.58427 349.928607 
L 120.613443 349.928607 
L 121.642616 349.928607 
L 122.67179 349.928607 
L 123.700963 349.928607 
L 124.730136 349.928607 
L 125.75931 349.928607 
L 126.788483 349.928607 
L 127.817656 349.928607 
L 128.846829 349.928607 
L 129.876003 349.928607 
L 130.905176 349.928607 
L 131.934349 349.928607 
L 132.963523 349.928607 
L 133.992696 349.928607 
L 135.021869 349.928607 
L 136.051043 349.928607 
L 137.080216 349.928607 
L 138.109389 349.928607 
L 139.138563 349.928607 
L 140.167736 349.928607 
L 141.196909 349.928607 
L 142.226082 349.928607 
L 143.255256 349.928607 
L 144.284429 349.928607 
L 145.313602 349.928607 
L 146.342776 349.928607 
L 147.371949 349.928607 
L 148.401122 349.928607 
L 149.430296 349.928607 
L 150.459469 349.928607 
L 151.488642 349.928607 
L 152.517815 349.928607 
L 153.546989 349.928607 
L 154.576162 349.928607 
L 155.605335 349.928607 
L 156.634509 349.928607 
L 157.663682 349.928607 
L 158.692855 349.928607 
L 159.722029 349.928607 
L 160.751202 349.928607 
L 161.780375 349.928607 
L 162.809549 349.928607 
L 163.838722 349.928607 
L 164.867895 349.928607 
L 165.897068 349.928607 
L 166.926242 349.928607 
L 167.955415 349.928607 
L 168.984588 349.928607 
L 170.013762 349.928607 
L 171.042935 349.928607 
L 172.072108 349.928607 
L 173.101282 349.928607 
L 174.130455 349.928607 
L 175.159628 349.928607 
L 176.188801 349.928607 
L 177.217975 349.928607 
L 178.247148 349.928607 
L 179.276321 349.928607 
L 180.305495 349.928607 
L 181.334668 349.928607 
L 182.363841 349.928607 
L 183.393015 349.928607 
L 184.422188 349.928607 
L 185.451361 349.928607 
L 186.480535 349.928607 
L 187.509708 349.928607 
L 188.538881 349.928607 
L 189.568054 349.928607 
L 190.597228 349.928607 
L 191.626401 349.928607 
L 192.655574 349.928607 
L 193.684748 349.928607 
L 194.713921 349.928607 
L 195.743094 349.928607 
L 196.772268 349.928607 
L 197.801441 349.928607 
L 198.830614 349.928607 
L 199.859787 349.928607 
L 200.888961 349.928607 
L 201.918134 349.928607 
L 202.947307 349.928607 
L 203.976481 349.928607 
L 205.005654 349.928607 
L 206.034827 349.928607 
L 207.064001 349.928607 
L 208.093174 349.928607 
L 209.122347 349.928607 
L 210.15152 349.928607 
L 211.180694 349.928607 
L 212.209867 349.928607 
L 213.23904 349.928607 
L 214.268214 349.928607 
L 215.297387 349.928607 
L 216.32656 349.928607 
L 217.355734 349.928607 
L 218.384907 349.928607 
L 219.41408 349.928607 
L 220.443254 349.928607 
L 221.472427 349.928607 
L 222.5016 349.928607 
L 223.530773 349.928607 
L 224.559947 349.928607 
L 225.58912 349.928607 
L 226.618293 349.928607 
L 227.647467 349.928607 
L 228.67664 349.928607 
L 229.705813 349.928607 
L 230.734987 349.928607 
L 231.76416 349.928607 
L 232.793333 349.928607 
L 233.822506 349.928607 
L 234.85168 349.928607 
L 235.880853 349.928607 
L 236.910026 349.928607 
L 237.9392 349.928607 
L 238.968373 349.928607 
L 239.997546 349.928607 
L 241.02672 349.928607 
L 242.055893 349.928607 
L 243.085066 349.928607 
L 244.11424 349.928607 
L 245.143413 349.928607 
L 246.172586 349.928607 
L 247.201759 349.928607 
L 248.230933 349.928607 
L 249.260106 349.928607 
L 250.289279 349.928607 
L 251.318453 349.928607 
L 252.347626 349.928607 
L 253.376799 349.928607 
L 254.405973 349.928607 
L 255.435146 349.928607 
L 256.464319 349.928607 
L 257.493492 349.928607 
L 258.522666 349.928607 
L 259.551839 349.928607 
L 260.581012 349.928607 
L 261.610186 349.928607 
L 262.639359 349.928607 
L 263.668532 349.928607 
L 264.697706 349.928607 
L 265.726879 349.928607 
L 266.756052 349.928607 
L 267.785225 349.928607 
L 268.814399 349.928607 
L 269.843572 349.928607 
L 270.872745 349.928607 
L 271.901919 349.928607 
L 272.931092 349.928607 
L 273.960265 349.928607 
L 274.989439 349.928607 
L 276.018612 349.928607 
L 277.047785 349.928607 
L 278.076959 349.928607 
L 279.106132 349.928607 
L 280.135305 349.928607 
L 281.164478 349.928607 
L 282.193652 349.928607 
L 283.222825 349.928607 
L 284.251998 349.928607 
L 285.281172 349.928607 
L 286.310345 349.928607 
L 287.339518 349.928607 
L 288.368692 349.928607 
L 289.397865 349.928607 
L 290.427038 349.928607 
L 291.456211 349.928607 
L 292.485385 349.928607 
L 293.514558 349.928607 
L 294.543731 349.928607 
L 295.572905 349.928607 
L 296.602078 349.928607 
L 297.631251 349.928607 
L 298.660425 349.928607 
L 299.689598 349.928607 
L 300.718771 349.928607 
L 301.747945 349.928607 
L 302.777118 349.928607 
L 303.806291 349.928607 
L 304.835464 349.928607 
L 305.864638 349.928607 
L 306.893811 349.928607 
L 307.922984 349.928607 
L 308.952158 349.928607 
L 309.981331 349.928607 
L 311.010504 349.928607 
L 312.039678 349.928607 
L 313.068851 349.928607 
L 314.098024 349.928607 
L 315.127197 349.928607 
L 316.156371 349.928607 
L 317.185544 349.928607 
L 318.214717 349.928607 
L 319.243891 349.928607 
L 320.273064 349.928607 
L 321.302237 349.928607 
L 322.331411 349.928607 
L 323.360584 349.928607 
L 324.389757 349.928607 
L 325.41893 349.928607 
L 326.448104 349.928607 
L 327.477277 349.928607 
L 328.50645 349.928607 
L 329.535624 349.928607 
L 330.564797 349.928607 
L 331.59397 349.928607 
L 332.623144 349.928607 
L 333.652317 349.928607 
L 334.68149 349.928607 
L 335.710664 349.928607 
L 336.739837 349.928607 
L 337.76901 349.928607 
L 338.798183 349.928607 
L 339.827357 349.928607 
L 340.85653 349.928607 
L 341.885703 349.928607 
L 342.914877 349.928607 
L 343.94405 349.928607 
L 344.973223 349.928607 
L 346.002397 349.928607 
L 347.03157 349.928607 
L 348.060743 349.928607 
L 349.089916 349.928607 
L 350.11909 349.928607 
L 351.148263 349.928607 
L 352.177436 349.928607 
L 353.20661 349.928607 
L 354.235783 349.928607 
L 355.264956 349.928607 
L 356.29413 349.928607 
L 357.323303 349.928607 
L 358.352476 349.928607 
L 359.38165 349.928607 
L 360.410823 349.928607 
L 361.439996 349.928607 
L 362.469169 349.928607 
L 363.498343 349.928607 
L 364.527516 349.928607 
L 365.556689 349.928607 
L 366.585863 349.928607 
L 367.615036 349.928607 
L 368.644209 349.928607 
L 369.673383 349.928607 
L 370.702556 349.928607 
L 371.731729 349.928607 
L 372.760902 349.928607 
L 373.790076 349.928607 
L 374.819249 349.928607 
L 375.848422 349.928607 
L 376.877596 349.928607 
L 377.906769 349.928607 
L 378.935942 349.928607 
L 379.965116 349.928607 
L 380.994289 349.928607 
L 382.023462 349.928607 
L 383.052635 349.928607 
L 384.081809 349.928607 
L 385.110982 349.928607 
L 386.140155 349.928607 
L 387.169329 349.928607 
L 388.198502 349.928607 
L 389.227675 349.928607 
L 390.256849 349.928607 
L 391.286022 349.928607 
L 392.315195 349.928607 
L 393.344369 349.928607 
L 394.373542 349.928607 
L 395.402715 349.928607 
L 396.431888 349.928607 
L 397.461062 349.928607 
L 398.490235 349.928607 
L 399.519408 349.928607 
L 400.548582 349.928607 
L 401.577755 349.928607 
L 402.606928 349.928607 
L 403.636102 349.928607 
L 404.665275 349.928607 
L 405.694448 349.928607 
L 406.723621 349.928607 
L 407.752795 349.928607 
L 408.781968 349.928607 
L 409.811141 349.928607 
L 410.840315 349.928607 
L 411.869488 349.928607 
L 412.898661 349.928607 
L 413.927835 349.928607 
L 414.957008 349.928607 
L 415.986181 349.928607 
L 417.015355 349.928607 
L 418.044528 349.928607 
L 419.073701 349.928607 
L 420.102874 349.928607 
L 421.132048 349.928607 
L 422.161221 349.928607 
L 423.190394 349.928607 
L 424.219568 349.928607 
L 425.248741 349.928607 
L 426.277914 349.928607 
L 427.307088 349.928607 
L 428.336261 349.928607 
L 429.365434 349.928607 
L 430.394607 349.928607 
L 431.423781 349.928607 
L 432.452954 349.928607 
L 433.482127 349.928607 
L 434.511301 349.928607 
L 435.540474 349.928607 
L 436.569647 349.928607 
L 437.598821 349.928607 
L 438.627994 349.928607 
L 439.657167 349.928607 
L 440.68634 349.928607 
L 441.715514 349.928607 
L 442.744687 349.928607 
L 443.77386 349.928607 
L 444.803034 349.928607 
L 445.832207 349.928607 
L 446.86138 349.928607 
L 447.890554 349.928607 
L 448.919727 349.928607 
L 449.9489 349.928607 
L 450.978074 349.928607 
L 452.007247 349.928607 
L 453.03642 349.928607 
L 454.065593 349.928607 
L 455.094767 349.928607 
L 456.12394 349.928607 
L 457.153113 349.928607 
L 458.182287 349.928607 
L 459.21146 349.928607 
L 460.240633 349.928607 
L 461.269807 349.928607 
L 462.29898 349.928607 
L 463.328153 349.928607 
L 464.357326 349.928607 
L 465.3865 349.928607 
L 466.415673 349.928607 
L 467.444846 349.928607 
L 468.47402 349.928607 
L 469.503193 349.928607 
L 470.532366 349.928607 
L 471.56154 349.928607 
L 472.590713 349.928607 
L 473.619886 349.928607 
L 474.64906 349.928607 
L 475.678233 349.928607 
L 476.707406 349.928607 
L 477.736579 349.928607 
L 478.765753 349.928607 
L 479.794926 349.928607 
L 480.824099 349.928607 
L 481.853273 349.928607 
L 482.882446 349.928607 
L 483.911619 349.928607 
L 484.940793 349.928607 
L 485.969966 349.928607 
L 486.999139 349.928607 
L 488.028312 349.928607 
L 489.057486 349.928607 
L 490.086659 349.928607 
L 491.115832 349.928607 
L 492.145006 349.928607 
L 493.174179 349.928607 
L 494.203352 349.928607 
L 495.232526 349.928607 
L 496.261699 349.928607 
L 497.290872 349.928607 
L 498.320046 349.928607 
L 499.349219 349.928607 
L 500.378392 349.928607 
L 501.407565 349.928607 
L 502.436739 349.928607 
L 503.465912 349.928607 
L 504.495085 349.928607 
L 505.524259 349.928607 
L 506.553432 349.928607 
L 507.582605 349.928607 
L 508.611779 349.928607 
L 509.640952 349.928607 
L 510.670125 349.928607 
L 511.699298 349.928607 
L 512.728472 349.928607 
L 513.757645 349.928607 
L 514.786818 349.928607 
L 515.815992 349.928607 
L 516.845165 349.928607 
L 517.874338 349.928607 
L 518.903512 349.928607 
L 519.932685 349.928607 
L 520.961858 349.928607 
L 521.991031 349.928607 
L 523.020205 349.928607 
L 524.049378 349.928607 
L 525.078551 349.928607 
L 526.107725 349.928607 
L 527.136898 349.928607 
L 528.166071 349.928607 
L 529.195245 349.928607 
L 530.224418 349.928607 
L 531.253591 349.928607 
L 532.282765 349.928607 
L 533.311938 349.928607 
L 534.341111 349.928607 
L 535.370284 349.928607 
L 536.399458 349.928607 
L 537.428631 349.928607 
L 538.457804 349.928607 
L 539.486978 349.928607 
L 540.516151 349.928607 
L 541.545324 349.928607 
L 542.574498 349.928607 
L 543.603671 349.928607 
L 544.632844 349.928607 
L 545.662017 349.928607 
L 546.691191 349.928607 
L 547.720364 349.928607 
L 548.749537 349.928607 
L 549.778711 349.928607 
L 550.807884 349.928607 
L 551.837057 349.928607 
L 552.866231 349.928607 
L 553.895404 349.928607 
L 554.924577 349.928607 
L 555.953751 349.928607 
L 556.982924 349.928607 
L 558.012097 349.928607 
L 559.04127 349.928607 
L 560.070444 349.928607 
L 561.099617 349.928607 
L 562.12879 349.928607 
L 563.157964 349.928607 
L 564.187137 349.928607 
L 565.21631 349.928607 
L 566.245484 349.928607 
L 567.274657 349.928607 
L 568.30383 349.928607 
L 569.333003 349.928607 
L 570.362177 349.928607 
L 570.362177 76.216363 
L 570.362177 76.216363 
L 569.333003 76.226179 
L 568.30383 76.255625 
L 567.274657 76.304695 
L 566.245484 76.373384 
L 565.21631 76.461678 
L 564.187137 76.569565 
L 563.157964 76.697028 
L 562.12879 76.844046 
L 561.099617 77.010595 
L 560.070444 77.196651 
L 559.04127 77.402182 
L 558.012097 77.627156 
L 556.982924 77.871539 
L 555.953751 78.13529 
L 554.924577 78.418368 
L 553.895404 78.720729 
L 552.866231 79.042324 
L 551.837057 79.383103 
L 550.807884 79.74301 
L 549.778711 80.12199 
L 548.749537 80.519983 
L 547.720364 80.936924 
L 546.691191 81.372748 
L 545.662017 81.827387 
L 544.632844 82.300767 
L 543.603671 82.792813 
L 542.574498 83.303449 
L 541.545324 83.832592 
L 540.516151 84.380159 
L 539.486978 84.946064 
L 538.457804 85.530215 
L 537.428631 86.132522 
L 536.399458 86.752887 
L 535.370284 87.391214 
L 534.341111 88.0474 
L 533.311938 88.721342 
L 532.282765 89.412932 
L 531.253591 90.122062 
L 530.224418 90.848619 
L 529.195245 91.592487 
L 528.166071 92.353549 
L 527.136898 93.131683 
L 526.107725 93.926767 
L 525.078551 94.738675 
L 524.049378 95.567278 
L 523.020205 96.412443 
L 521.991031 97.274039 
L 520.961858 98.151927 
L 519.932685 99.045969 
L 518.903512 99.956022 
L 517.874338 100.881943 
L 516.845165 101.823585 
L 515.815992 102.780799 
L 514.786818 103.753432 
L 513.757645 104.741331 
L 512.728472 105.744339 
L 511.699298 106.762297 
L 510.670125 107.795043 
L 509.640952 108.842414 
L 508.611779 109.904243 
L 507.582605 110.980363 
L 506.553432 112.070603 
L 505.524259 113.174789 
L 504.495085 114.292748 
L 503.465912 115.424301 
L 502.436739 116.569269 
L 501.407565 117.727471 
L 500.378392 118.898723 
L 499.349219 120.082839 
L 498.320046 121.279632 
L 497.290872 122.488911 
L 496.261699 123.710486 
L 495.232526 124.944162 
L 494.203352 126.189744 
L 493.174179 127.447035 
L 492.145006 128.715834 
L 491.115832 129.995942 
L 490.086659 131.287154 
L 489.057486 132.589266 
L 488.028312 133.902072 
L 486.999139 135.225364 
L 485.969966 136.558932 
L 484.940793 137.902564 
L 483.911619 139.256047 
L 482.882446 140.619167 
L 481.853273 141.991708 
L 480.824099 143.373452 
L 479.794926 144.76418 
L 478.765753 146.163671 
L 477.736579 147.571704 
L 476.707406 148.988056 
L 475.678233 150.412501 
L 474.64906 151.844814 
L 473.619886 153.284768 
L 472.590713 154.732134 
L 471.56154 156.186684 
L 470.532366 157.648186 
L 469.503193 159.116409 
L 468.47402 160.59112 
L 467.444846 162.072085 
L 466.415673 163.55907 
L 465.3865 165.051838 
L 464.357326 166.550153 
L 463.328153 168.053778 
L 462.29898 169.562473 
L 461.269807 171.076001 
L 460.240633 172.59412 
L 459.21146 174.116591 
L 458.182287 175.643171 
L 457.153113 177.173619 
L 456.12394 178.707693 
L 455.094767 180.245148 
L 454.065593 181.785741 
L 453.03642 183.329228 
L 452.007247 184.875365 
L 450.978074 186.423905 
L 449.9489 187.974604 
L 448.919727 189.527216 
L 447.890554 191.081494 
L 446.86138 192.637192 
L 445.832207 194.194064 
L 444.803034 195.751862 
L 443.77386 197.31034 
L 442.744687 198.869251 
L 441.715514 200.428347 
L 440.68634 201.987381 
L 439.657167 203.546106 
L 438.627994 205.104275 
L 437.598821 206.661641 
L 436.569647 208.217957 
L 435.540474 209.772976 
L 434.511301 211.326451 
L 433.482127 212.878138 
L 432.452954 214.427788 
L 431.423781 215.975157 
L 430.394607 217.519999 
L 429.365434 219.06207 
L 428.336261 220.601125 
L 427.307088 222.13692 
L 426.277914 223.669211 
L 425.248741 225.197755 
L 424.219568 226.722311 
L 423.190394 228.242636 
L 422.161221 229.758489 
L 421.132048 231.269631 
L 420.102874 232.775821 
L 419.073701 234.276821 
L 418.044528 235.772392 
L 417.015355 237.262298 
L 415.986181 238.746302 
L 414.957008 240.224169 
L 413.927835 241.695666 
L 412.898661 243.160557 
L 411.869488 244.618612 
L 410.840315 246.069599 
L 409.811141 247.513288 
L 408.781968 248.94945 
L 407.752795 250.377857 
L 406.723621 251.798283 
L 405.694448 253.210504 
L 404.665275 254.614294 
L 403.636102 256.009431 
L 402.606928 257.395694 
L 401.577755 258.772864 
L 400.548582 260.140721 
L 399.519408 261.49905 
L 398.490235 262.847634 
L 397.461062 264.186261 
L 396.431888 265.514717 
L 395.402715 266.832792 
L 394.373542 268.140277 
L 393.344369 269.436965 
L 392.315195 270.722651 
L 391.286022 271.997129 
L 390.256849 273.260199 
L 389.227675 274.51166 
L 388.198502 275.751314 
L 387.169329 276.978964 
L 386.140155 278.194415 
L 385.110982 279.397475 
L 384.081809 280.587953 
L 383.052635 281.76566 
L 382.023462 282.93041 
L 380.994289 284.082018 
L 379.965116 285.220301 
L 378.935942 286.345079 
L 377.906769 287.456174 
L 376.877596 288.553409 
L 375.848422 289.63661 
L 374.819249 290.705606 
L 373.790076 291.760227 
L 372.760902 292.800306 
L 371.731729 293.825679 
L 370.702556 294.836181 
L 369.673383 295.831654 
L 368.644209 296.81194 
L 367.615036 297.776882 
L 366.585863 298.726329 
L 365.556689 299.660129 
L 364.527516 300.578135 
L 363.498343 301.4802 
L 362.469169 302.366183 
L 361.439996 303.235942 
L 360.410823 304.089339 
L 359.38165 304.92624 
L 358.352476 305.746511 
L 357.323303 306.550023 
L 356.29413 307.336648 
L 355.264956 308.106262 
L 354.235783 308.858741 
L 353.20661 309.593968 
L 352.177436 310.311826 
L 351.148263 311.0122 
L 350.11909 311.69498 
L 349.089916 312.360057 
L 348.060743 313.007326 
L 347.03157 313.636685 
L 346.002397 314.248033 
L 344.973223 314.841273 
L 343.94405 315.416313 
L 342.914877 315.973059 
L 341.885703 316.511425 
L 340.85653 317.031325 
L 339.827357 317.532676 
L 338.798183 318.015399 
L 337.76901 318.479417 
L 336.739837 318.924658 
L 335.710664 319.351049 
L 334.68149 319.758524 
L 333.652317 320.147018 
L 332.623144 320.516469 
L 331.59397 320.866819 
L 330.564797 321.198012 
L 329.535624 321.509996 
L 328.50645 321.802722 
L 327.477277 322.076142 
L 326.448104 322.330214 
L 325.41893 322.564897 
L 324.389757 322.780154 
L 323.360584 322.975951 
L 322.331411 323.152257 
L 321.302237 323.309044 
L 320.273064 323.446287 
L 319.243891 323.563964 
L 318.214717 323.662057 
L 317.185544 323.74055 
L 316.156371 323.79943 
L 315.127197 323.838689 
L 314.098024 323.85832 
L 313.068851 323.85832 
L 312.039678 323.838689 
L 311.010504 323.79943 
L 309.981331 323.74055 
L 308.952158 323.662057 
L 307.922984 323.563964 
L 306.893811 323.446287 
L 305.864638 323.309044 
L 304.835464 323.152257 
L 303.806291 322.975951 
L 302.777118 322.780154 
L 301.747945 322.564897 
L 300.718771 322.330214 
L 299.689598 322.076142 
L 298.660425 321.802722 
L 297.631251 321.509996 
L 296.602078 321.198012 
L 295.572905 320.866819 
L 294.543731 320.516469 
L 293.514558 320.147018 
L 292.485385 319.758524 
L 291.456211 319.351049 
L 290.427038 318.924658 
L 289.397865 318.479417 
L 288.368692 318.015399 
L 287.339518 317.532676 
L 286.310345 317.031325 
L 285.281172 316.511425 
L 284.251998 315.973059 
L 283.222825 315.416313 
L 282.193652 314.841273 
L 281.164478 314.248033 
L 280.135305 313.636685 
L 279.106132 313.007326 
L 278.076959 312.360057 
L 277.047785 311.69498 
L 276.018612 311.0122 
L 274.989439 310.311826 
L 273.960265 309.593968 
L 272.931092 308.858741 
L 271.901919 308.106262 
L 270.872745 307.336648 
L 269.843572 306.550023 
L 268.814399 305.746511 
L 267.785225 304.92624 
L 266.756052 304.089339 
L 265.726879 303.235942 
L 264.697706 302.366183 
L 263.668532 301.4802 
L 262.639359 300.578135 
L 261.610186 299.660129 
L 260.581012 298.726329 
L 259.551839 297.776882 
L 258.522666 296.81194 
L 257.493492 295.831654 
L 256.464319 294.836181 
L 255.435146 293.825679 
L 254.405973 292.800306 
L 253.376799 291.760227 
L 252.347626 290.705606 
L 251.318453 289.63661 
L 250.289279 288.553409 
L 249.260106 287.456174 
L 248.230933 286.345079 
L 247.201759 285.220301 
L 246.172586 284.082018 
L 245.143413 282.93041 
L 244.11424 281.76566 
L 243.085066 280.587953 
L 242.055893 279.397475 
L 241.02672 278.194415 
L 239.997546 276.978964 
L 238.968373 275.751314 
L 237.9392 274.51166 
L 236.910026 273.260199 
L 235.880853 271.997129 
L 234.85168 270.722651 
L 233.822506 269.436965 
L 232.793333 268.140277 
L 231.76416 266.832792 
L 230.734987 265.514717 
L 229.705813 264.186261 
L 228.67664 262.847634 
L 227.647467 261.49905 
L 226.618293 260.140721 
L 225.58912 258.772864 
L 224.559947 257.395694 
L 223.530773 256.009431 
L 222.5016 254.614294 
L 221.472427 253.210504 
L 220.443254 251.798283 
L 219.41408 250.377857 
L 218.384907 248.94945 
L 217.355734 247.513288 
L 216.32656 246.069599 
L 215.297387 244.618612 
L 214.268214 243.160557 
L 213.23904 241.695666 
L 212.209867 240.224169 
L 211.180694 238.746302 
L 210.15152 237.262298 
L 209.122347 235.772392 
L 208.093174 234.276821 
L 207.064001 232.775821 
L 206.034827 231.269631 
L 205.005654 229.758489 
L 203.976481 228.242636 
L 202.947307 226.722311 
L 201.918134 225.197755 
L 200.888961 223.669211 
L 199.859787 222.13692 
L 198.830614 220.601125 
L 197.801441 219.06207 
L 196.772268 217.519999 
L 195.743094 215.975157 
L 194.713921 214.427788 
L 193.684748 212.878138 
L 192.655574 211.326451 
L 191.626401 209.772976 
L 190.597228 208.217957 
L 189.568054 206.661641 
L 188.538881 205.104275 
L 187.509708 203.546106 
L 186.480535 201.987381 
L 185.451361 200.428347 
L 184.422188 198.869251 
L 183.393015 197.31034 
L 182.363841 195.751862 
L 181.334668 194.194064 
L 180.305495 192.637192 
L 179.276321 191.081494 
L 178.247148 189.527216 
L 177.217975 187.974604 
L 176.188801 186.423905 
L 175.159628 184.875365 
L 174.130455 183.329228 
L 173.101282 181.785741 
L 172.072108 180.245148 
L 171.042935 178.707693 
L 170.013762 177.173619 
L 168.984588 175.643171 
L 167.955415 174.116591 
L 166.926242 172.59412 
L 165.897068 171.076001 
L 164.867895 169.562473 
L 163.838722 168.053778 
L 162.809549 166.550153 
L 161.780375 165.051838 
L 160.751202 163.55907 
L 159.722029 162.072085 
L 158.692855 160.59112 
L 157.663682 159.116409 
L 156.634509 157.648186 
L 155.605335 156.186684 
L 154.576162 154.732134 
L 153.546989 153.284768 
L 152.517815 151.844814 
L 151.488642 150.412501 
L 150.459469 148.988056 
L 149.430296 147.571704 
L 148.401122 146.163671 
L 147.371949 144.76418 
L 146.342776 143.373452 
L 145.313602 141.991708 
L 144.284429 140.619167 
L 143.255256 139.256047 
L 142.226082 137.902564 
L 141.196909 136.558932 
L 140.167736 135.225364 
L 139.138563 133.902072 
L 138.109389 132.589266 
L 137.080216 131.287154 
L 136.051043 129.995942 
L 135.021869 128.715834 
L 133.992696 127.447035 
L 132.963523 126.189744 
L 131.934349 124.944162 
L 130.905176 123.710486 
L 129.876003 122.488911 
L 128.846829 121.279632 
L 127.817656 120.082839 
L 126.788483 118.898723 
L 125.75931 117.727471 
L 124.730136 116.569269 
L 123.700963 115.424301 
L 122.67179 114.292748 
L 121.642616 113.174789 
L 120.613443 112.070603 
L 119.58427 110.980363 
L 118.555096 109.904243 
L 117.525923 108.842414 
L 116.49675 107.795043 
L 115.467577 106.762297 
L 114.438403 105.744339 
L 113.40923 104.741331 
L 112.380057 103.753432 
L 111.350883 102.780799 
L 110.32171 101.823585 
L 109.292537 100.881943 
L 108.263363 99.956022 
L 107.23419 99.045969 
L 106.205017 98.151927 
L 105.175844 97.274039 
L 104.14667 96.412443 
L 103.117497 95.567278 
L 102.088324 94.738675 
L 101.05915 93.926767 
L 100.029977 93.131683 
L 99.000804 92.353549 
L 97.97163 91.592487 
L 96.942457 90.848619 
L 95.913284 90.122062 
L 94.88411 89.412932 
L 93.854937 88.721342 
L 92.825764 88.0474 
L 91.796591 87.391214 
L 90.767417 86.752887 
L 89.738244 86.132522 
L 88.709071 85.530215 
L 87.679897 84.946064 
L 86.650724 84.380159 
L 85.621551 83.832592 
L 84.592377 83.303449 
L 83.563204 82.792813 
L 82.534031 82.300767 
L 81.504858 81.827387 
L 80.475684 81.372748 
L 79.446511 80.936924 
L 78.417338 80.519983 
L 77.388164 80.12199 
L 76.358991 79.74301 
L 75.329818 79.383103 
L 74.300644 79.042324 
L 73.271471 78.720729 
L 72.242298 78.418368 
L 71.213124 78.13529 
L 70.183951 77.871539 
L 69.154778 77.627156 
L 68.125605 77.402182 
L 67.096431 77.196651 
L 66.067258 77.010595 
L 65.038085 76.844046 
L 64.008911 76.697028 
L 62.979738 76.569565 
L 61.950565 76.461678 
L 60.921391 76.373384 
L 59.892218 76.304695 
L 58.863045 76.255625 
L 57.833872 76.226179 
L 56.804698 76.216363 
z
" clip-path="url(#p924260fc22)" style="fill: #1f77b4; fill-opacity: 0.08"/>
   </g>
   <g id="patch_3">
    <path d="M 568.767497 344.619842 
Q 313.584868 537.354217 59.651269 345.56536 
" clip-path="url(#p924260fc22)" style="fill: none; stroke: #000000; stroke-width: 1.4; stroke-linecap: round"/>
    <path d="M 62.233754 350.77408 
L 59.651269 345.56536 
L 65.367736 346.624604 
z
" clip-path="url(#p924260fc22)" style="fill: #1f77b4; stroke: #000000; stroke-width: 1.4; stroke-linecap: round"/>
   </g>
   <g id="matplotlib.axis_1">
    <g id="xtick_1">
     <g id="line2d_1">
      <defs>
       <path id="mef2f2d2b57" d="M 0 0 
L 0 3.5 
" style="stroke: #000000; stroke-width: 0.8"/>
      </defs>
      <g>
       <use xlink:href="#mef2f2d2b57" x="56.804698" y="373.389656" style="stroke: #000000; stroke-width: 0.8"/>
      </g>
     </g>
     <g id="text_1">
      <!-- $-\pi/a$ -->
      <g transform="translate(44.854698 387.988094) scale(0.1 -0.1)">
       <defs>
        <path id="DejaVuSans-2212" d="M 678 2272 
L 4684 2272 
L 4684 1741 
L 678 1741 
L 678 2272 
z
" transform="scale(0.015625)"/>
        <path id="DejaVuSans-Oblique-3c0" d="M 584 3500 
L 3938 3500 
L 3825 2925 
L 3384 2925 
L 2966 775 
Q 2922 550 2981 450 
Q 3038 353 3209 353 
Q 3256 353 3325 363 
Q 3397 369 3419 372 
L 3338 -44 
Q 3222 -84 3103 -103 
Q 2981 -122 2866 -122 
Q 2491 -122 2388 81 
Q 2284 288 2391 838 
L 2797 2925 
L 1506 2925 
L 938 0 
L 350 0 
L 919 2925 
L 472 2925 
L 584 3500 
z
" transform="scale(0.015625)"/>
        <path id="DejaVuSans-2f" d="M 1625 4666 
L 2156 4666 
L 531 -594 
L 0 -594 
L 1625 4666 
z
" transform="scale(0.015625)"/>
        <path id="DejaVuSans-Oblique-61" d="M 3438 1997 
L 3047 0 
L 2472 0 
L 2578 531 
Q 2325 219 2001 64 
Q 1678 -91 1281 -91 
Q 834 -91 548 182 
Q 263 456 263 884 
Q 263 1497 752 1853 
Q 1241 2209 2100 2209 
L 2900 2209 
L 2931 2363 
Q 2938 2388 2941 2417 
Q 2944 2447 2944 2509 
Q 2944 2788 2717 2942 
Q 2491 3097 2081 3097 
Q 1800 3097 1504 3025 
Q 1209 2953 897 2809 
L 997 3341 
Q 1322 3463 1633 3523 
Q 1944 3584 2234 3584 
Q 2853 3584 3176 3315 
Q 3500 3047 3500 2534 
Q 3500 2431 3484 2292 
Q 3469 2153 3438 1997 
z
M 2816 1759 
L 2241 1759 
Q 1534 1759 1195 1570 
Q 856 1381 856 984 
Q 856 709 1029 553 
Q 1203 397 1509 397 
Q 1978 397 2328 733 
Q 2678 1069 2791 1631 
L 2816 1759 
z
" transform="scale(0.015625)"/>
       </defs>
       <use xlink:href="#DejaVuSans-2212" transform="translate(0 0.09375)"/>
       <use xlink:href="#DejaVuSans-Oblique-3c0" transform="translate(83.789062 0.09375)"/>
       <use xlink:href="#DejaVuSans-2f" transform="translate(143.994141 0.09375)"/>
       <use xlink:href="#DejaVuSans-Oblique-61" transform="translate(177.685547 0.09375)"/>
      </g>
     </g>
    </g>
    <g id="xtick_2">
     <g id="line2d_2">
      <g>
       <use xlink:href="#mef2f2d2b57" x="313.583438" y="373.389656" style="stroke: #000000; stroke-width: 0.8"/>
      </g>
     </g>
     <g id="text_2">
      <!-- 0 -->
      <g transform="translate(310.402188 387.988094) scale(0.1 -0.1)">
       <defs>
        <path id="DejaVuSans-30" d="M 2034 4250 
Q 1547 4250 1301 3770 
Q 1056 3291 1056 2328 
Q 1056 1369 1301 889 
Q 1547 409 2034 409 
Q 2525 409 2770 889 
Q 3016 1369 3016 2328 
Q 3016 3291 2770 3770 
Q 2525 4250 2034 4250 
z
M 2034 4750 
Q 2819 4750 3233 4129 
Q 3647 3509 3647 2328 
Q 3647 1150 3233 529 
Q 2819 -91 2034 -91 
Q 1250 -91 836 529 
Q 422 1150 422 2328 
Q 422 3509 836 4129 
Q 1250 4750 2034 4750 
z
" transform="scale(0.015625)"/>
       </defs>
       <use xlink:href="#DejaVuSans-30"/>
      </g>
     </g>
    </g>
    <g id="xtick_3">
     <g id="line2d_3">
      <g>
       <use xlink:href="#mef2f2d2b57" x="570.362177" y="373.389656" style="stroke: #000000; stroke-width: 0.8"/>
      </g>
     </g>
     <g id="text_3">
      <!-- $+\pi/a$ -->
      <g transform="translate(558.412177 387.988094) scale(0.1 -0.1)">
       <defs>
        <path id="DejaVuSans-2b" d="M 2944 4013 
L 2944 2272 
L 4684 2272 
L 4684 1741 
L 2944 1741 
L 2944 0 
L 2419 0 
L 2419 1741 
L 678 1741 
L 678 2272 
L 2419 2272 
L 2419 4013 
L 2944 4013 
z
" transform="scale(0.015625)"/>
       </defs>
       <use xlink:href="#DejaVuSans-2b" transform="translate(0 0.09375)"/>
       <use xlink:href="#DejaVuSans-Oblique-3c0" transform="translate(83.789062 0.09375)"/>
       <use xlink:href="#DejaVuSans-2f" transform="translate(143.994141 0.09375)"/>
       <use xlink:href="#DejaVuSans-Oblique-61" transform="translate(177.685547 0.09375)"/>
      </g>
     </g>
    </g>
    <g id="text_4">
     <!-- vettore d'onda $k$ -->
     <g transform="translate(272.333438 406.666219) scale(0.1 -0.1)">
      <defs>
       <path id="DejaVuSans-76" d="M 191 3500 
L 800 3500 
L 1894 563 
L 2988 3500 
L 3597 3500 
L 2284 0 
L 1503 0 
L 191 3500 
z
" transform="scale(0.015625)"/>
       <path id="DejaVuSans-65" d="M 3597 1894 
L 3597 1613 
L 953 1613 
Q 991 1019 1311 708 
Q 1631 397 2203 397 
Q 2534 397 2845 478 
Q 3156 559 3463 722 
L 3463 178 
Q 3153 47 2828 -22 
Q 2503 -91 2169 -91 
Q 1331 -91 842 396 
Q 353 884 353 1716 
Q 353 2575 817 3079 
Q 1281 3584 2069 3584 
Q 2775 3584 3186 3129 
Q 3597 2675 3597 1894 
z
M 3022 2063 
Q 3016 2534 2758 2815 
Q 2500 3097 2075 3097 
Q 1594 3097 1305 2825 
Q 1016 2553 972 2059 
L 3022 2063 
z
" transform="scale(0.015625)"/>
       <path id="DejaVuSans-74" d="M 1172 4494 
L 1172 3500 
L 2356 3500 
L 2356 3053 
L 1172 3053 
L 1172 1153 
Q 1172 725 1289 603 
Q 1406 481 1766 481 
L 2356 481 
L 2356 0 
L 1766 0 
Q 1100 0 847 248 
Q 594 497 594 1153 
L 594 3053 
L 172 3053 
L 172 3500 
L 594 3500 
L 594 4494 
L 1172 4494 
z
" transform="scale(0.015625)"/>
       <path id="DejaVuSans-6f" d="M 1959 3097 
Q 1497 3097 1228 2736 
Q 959 2375 959 1747 
Q 959 1119 1226 758 
Q 1494 397 1959 397 
Q 2419 397 2687 759 
Q 2956 1122 2956 1747 
Q 2956 2369 2687 2733 
Q 2419 3097 1959 3097 
z
M 1959 3584 
Q 2709 3584 3137 3096 
Q 3566 2609 3566 1747 
Q 3566 888 3137 398 
Q 2709 -91 1959 -91 
Q 1206 -91 779 398 
Q 353 888 353 1747 
Q 353 2609 779 3096 
Q 1206 3584 1959 3584 
z
" transform="scale(0.015625)"/>
       <path id="DejaVuSans-72" d="M 2631 2963 
Q 2534 3019 2420 3045 
Q 2306 3072 2169 3072 
Q 1681 3072 1420 2755 
Q 1159 2438 1159 1844 
L 1159 0 
L 581 0 
L 581 3500 
L 1159 3500 
L 1159 2956 
Q 1341 3275 1631 3429 
Q 1922 3584 2338 3584 
Q 2397 3584 2469 3576 
Q 2541 3569 2628 3553 
L 2631 2963 
z
" transform="scale(0.015625)"/>
       <path id="DejaVuSans-20" transform="scale(0.015625)"/>
       <path id="DejaVuSans-64" d="M 2906 2969 
L 2906 4863 
L 3481 4863 
L 3481 0 
L 2906 0 
L 2906 525 
Q 2725 213 2448 61 
Q 2172 -91 1784 -91 
Q 1150 -91 751 415 
Q 353 922 353 1747 
Q 353 2572 751 3078 
Q 1150 3584 1784 3584 
Q 2172 3584 2448 3432 
Q 2725 3281 2906 2969 
z
M 947 1747 
Q 947 1113 1208 752 
Q 1469 391 1925 391 
Q 2381 391 2643 752 
Q 2906 1113 2906 1747 
Q 2906 2381 2643 2742 
Q 2381 3103 1925 3103 
Q 1469 3103 1208 2742 
Q 947 2381 947 1747 
z
" transform="scale(0.015625)"/>
       <path id="DejaVuSans-27" d="M 1147 4666 
L 1147 2931 
L 616 2931 
L 616 4666 
L 1147 4666 
z
" transform="scale(0.015625)"/>
       <path id="DejaVuSans-6e" d="M 3513 2113 
L 3513 0 
L 2938 0 
L 2938 2094 
Q 2938 2591 2744 2837 
Q 2550 3084 2163 3084 
Q 1697 3084 1428 2787 
Q 1159 2491 1159 1978 
L 1159 0 
L 581 0 
L 581 3500 
L 1159 3500 
L 1159 2956 
Q 1366 3272 1645 3428 
Q 1925 3584 2291 3584 
Q 2894 3584 3203 3211 
Q 3513 2838 3513 2113 
z
" transform="scale(0.015625)"/>
       <path id="DejaVuSans-61" d="M 2194 1759 
Q 1497 1759 1228 1600 
Q 959 1441 959 1056 
Q 959 750 1161 570 
Q 1363 391 1709 391 
Q 2188 391 2477 730 
Q 2766 1069 2766 1631 
L 2766 1759 
L 2194 1759 
z
M 3341 1997 
L 3341 0 
L 2766 0 
L 2766 531 
Q 2569 213 2275 61 
Q 1981 -91 1556 -91 
Q 1019 -91 701 211 
Q 384 513 384 1019 
Q 384 1609 779 1909 
Q 1175 2209 1959 2209 
L 2766 2209 
L 2766 2266 
Q 2766 2663 2505 2880 
Q 2244 3097 1772 3097 
Q 1472 3097 1187 3025 
Q 903 2953 641 2809 
L 641 3341 
Q 956 3463 1253 3523 
Q 1550 3584 1831 3584 
Q 2591 3584 2966 3190 
Q 3341 2797 3341 1997 
z
" transform="scale(0.015625)"/>
       <path id="DejaVuSans-Oblique-6b" d="M 1172 4863 
L 1747 4863 
L 1197 2028 
L 3169 3500 
L 3916 3500 
L 1716 1825 
L 3322 0 
L 2625 0 
L 1131 1709 
L 800 0 
L 225 0 
L 1172 4863 
z
" transform="scale(0.015625)"/>
      </defs>
      <use xlink:href="#DejaVuSans-76" transform="translate(0 0.015625)"/>
      <use xlink:href="#DejaVuSans-65" transform="translate(59.179688 0.015625)"/>
      <use xlink:href="#DejaVuSans-74" transform="translate(120.703125 0.015625)"/>
      <use xlink:href="#DejaVuSans-74" transform="translate(159.912109 0.015625)"/>
      <use xlink:href="#DejaVuSans-6f" transform="translate(199.121094 0.015625)"/>
      <use xlink:href="#DejaVuSans-72" transform="translate(260.302734 0.015625)"/>
      <use xlink:href="#DejaVuSans-65" transform="translate(301.416016 0.015625)"/>
      <use xlink:href="#DejaVuSans-20" transform="translate(362.939453 0.015625)"/>
      <use xlink:href="#DejaVuSans-64" transform="translate(394.726562 0.015625)"/>
      <use xlink:href="#DejaVuSans-27" transform="translate(458.203125 0.015625)"/>
      <use xlink:href="#DejaVuSans-6f" transform="translate(485.693359 0.015625)"/>
      <use xlink:href="#DejaVuSans-6e" transform="translate(546.875 0.015625)"/>
      <use xlink:href="#DejaVuSans-64" transform="translate(610.253906 0.015625)"/>
      <use xlink:href="#DejaVuSans-61" transform="translate(673.730469 0.015625)"/>
      <use xlink:href="#DejaVuSans-20" transform="translate(735.009766 0.015625)"/>
      <use xlink:href="#DejaVuSans-Oblique-6b" transform="translate(766.796875 0.015625)"/>
     </g>
    </g>
   </g>
   <g id="matplotlib.axis_2">
    <g id="text_5">
     <!-- $E(k)$ -->
     <g transform="translate(17.34375 211.993656) rotate(-90) scale(0.1 -0.1)">
      <defs>
       <path id="DejaVuSans-Oblique-45" d="M 1081 4666 
L 4031 4666 
L 3928 4134 
L 1606 4134 
L 1338 2753 
L 3566 2753 
L 3463 2222 
L 1234 2222 
L 909 531 
L 3284 531 
L 3181 0 
L 172 0 
L 1081 4666 
z
" transform="scale(0.015625)"/>
       <path id="DejaVuSans-28" d="M 1984 4856 
Q 1566 4138 1362 3434 
Q 1159 2731 1159 2009 
Q 1159 1288 1364 580 
Q 1569 -128 1984 -844 
L 1484 -844 
Q 1016 -109 783 600 
Q 550 1309 550 2009 
Q 550 2706 781 3412 
Q 1013 4119 1484 4856 
L 1984 4856 
z
" transform="scale(0.015625)"/>
       <path id="DejaVuSans-29" d="M 513 4856 
L 1013 4856 
Q 1481 4119 1714 3412 
Q 1947 2706 1947 2009 
Q 1947 1309 1714 600 
Q 1481 -109 1013 -844 
L 513 -844 
Q 928 -128 1133 580 
Q 1338 1288 1338 2009 
Q 1338 2731 1133 3434 
Q 928 4138 513 4856 
z
" transform="scale(0.015625)"/>
      </defs>
      <use xlink:href="#DejaVuSans-Oblique-45" transform="translate(0 0.015625)"/>
      <use xlink:href="#DejaVuSans-28" transform="translate(63.183594 0.015625)"/>
      <use xlink:href="#DejaVuSans-Oblique-6b" transform="translate(102.197266 0.015625)"/>
      <use xlink:href="#DejaVuSans-29" transform="translate(160.107422 0.015625)"/>
     </g>
    </g>
   </g>
   <g id="line2d_4">
    <path d="M 56.804698 76.216363 
L 59.892218 76.304695 
L 62.979738 76.569565 
L 66.067258 77.010595 
L 69.154778 77.627156 
L 72.242298 78.418368 
L 76.358991 79.74301 
L 80.475684 81.372748 
L 84.592377 83.303449 
L 88.709071 85.530215 
L 92.825764 88.0474 
L 96.942457 90.848619 
L 101.05915 93.926767 
L 105.175844 97.274039 
L 109.292537 100.881943 
L 113.40923 104.741331 
L 118.555096 109.904243 
L 123.700963 115.424301 
L 128.846829 121.279632 
L 133.992696 127.447035 
L 140.167736 135.225364 
L 146.342776 143.373452 
L 153.546989 153.284768 
L 161.780375 165.051838 
L 171.042935 178.707693 
L 185.451361 200.428347 
L 201.918134 225.197755 
L 211.180694 238.746302 
L 219.41408 250.377857 
L 226.618293 260.140721 
L 232.793333 268.140277 
L 238.968373 275.751314 
L 244.11424 281.76566 
L 249.260106 287.456174 
L 254.405973 292.800306 
L 259.551839 297.776882 
L 263.668532 301.4802 
L 267.785225 304.92624 
L 271.901919 308.106262 
L 276.018612 311.0122 
L 280.135305 313.636685 
L 284.251998 315.973059 
L 288.368692 318.015399 
L 292.485385 319.758524 
L 296.602078 321.198012 
L 300.718771 322.330214 
L 303.806291 322.975951 
L 306.893811 323.446287 
L 309.981331 323.74055 
L 313.068851 323.85832 
L 316.156371 323.79943 
L 319.243891 323.563964 
L 322.331411 323.152257 
L 325.41893 322.564897 
L 328.50645 321.802722 
L 332.623144 320.516469 
L 336.739837 318.924658 
L 340.85653 317.031325 
L 344.973223 314.841273 
L 349.089916 312.360057 
L 353.20661 309.593968 
L 357.323303 306.550023 
L 361.439996 303.235942 
L 365.556689 299.660129 
L 369.673383 295.831654 
L 374.819249 290.705606 
L 379.965116 285.220301 
L 385.110982 279.397475 
L 390.256849 273.260199 
L 396.431888 265.514717 
L 402.606928 257.395694 
L 409.811141 247.513288 
L 418.044528 235.772392 
L 427.307088 222.13692 
L 440.68634 201.987381 
L 459.21146 174.116591 
L 468.47402 160.59112 
L 475.678233 150.412501 
L 482.882446 140.619167 
L 489.057486 132.589266 
L 495.232526 124.944162 
L 500.378392 118.898723 
L 505.524259 113.174789 
L 510.670125 107.795043 
L 515.815992 102.780799 
L 519.932685 99.045969 
L 524.049378 95.567278 
L 528.166071 92.353549 
L 532.282765 89.412932 
L 536.399458 86.752887 
L 540.516151 84.380159 
L 544.632844 82.300767 
L 548.749537 80.519983 
L 552.866231 79.042324 
L 556.982924 77.871539 
L 560.070444 77.196651 
L 563.157964 76.697028 
L 566.245484 76.373384 
L 569.333003 76.226179 
L 570.362177 76.216363 
L 570.362177 76.216363 
" clip-path="url(#p924260fc22)" style="fill: none; stroke: #1f77b4; stroke-width: 2; stroke-linecap: square"/>
   </g>
   <g id="line2d_5">
    <path d="M 56.804698 373.389656 
L 56.804698 30.597656 
" clip-path="url(#p924260fc22)" style="fill: none; stroke-dasharray: 3.7,1.6; stroke-dashoffset: 0; stroke: #1f77b4"/>
   </g>
   <g id="line2d_6">
    <path d="M 570.362177 373.389656 
L 570.362177 30.597656 
" clip-path="url(#p924260fc22)" style="fill: none; stroke-dasharray: 3.7,1.6; stroke-dashoffset: 0; stroke: #1f77b4"/>
   </g>
   <g id="line2d_7">
    <path d="M 313.583438 373.389656 
L 313.583438 30.597656 
" clip-path="url(#p924260fc22)" style="fill: none; stroke-dasharray: 0.8,1.32; stroke-dashoffset: 0; stroke: #1f77b4; stroke-width: 0.8"/>
   </g>
   <g id="line2d_8">
    <path d="M 121.505691 113.027086 
L 178.720339 190.241646 
L 240.021747 277.007686 
L 301.323156 322.470384 
L 370.798085 294.743015 
L 440.273015 202.61343 
L 513.834705 104.666836 
L 560.423776 77.130578 
" clip-path="url(#p924260fc22)" style="fill: none; stroke: #ff7f0e; stroke-width: 1.2; stroke-linecap: square"/>
    <defs>
     <path id="m62dddfcf3a" d="M 0 3 
C 0.795609 3 1.55874 2.683901 2.12132 2.12132 
C 2.683901 1.55874 3 0.795609 3 0 
C 3 -0.795609 2.683901 -1.55874 2.12132 -2.12132 
C 1.55874 -2.683901 0.795609 -3 0 -3 
C -0.795609 -3 -1.55874 -2.683901 -2.12132 -2.12132 
C -2.683901 -1.55874 -3 -0.795609 -3 0 
C -3 0.795609 -2.683901 1.55874 -2.12132 2.12132 
C -1.55874 2.683901 -0.795609 3 0 3 
z
" style="stroke: #ff7f0e"/>
    </defs>
    <g clip-path="url(#p924260fc22)">
     <use xlink:href="#m62dddfcf3a" x="121.505691" y="113.027086" style="fill: #ff7f0e; stroke: #ff7f0e"/>
     <use xlink:href="#m62dddfcf3a" x="178.720339" y="190.241646" style="fill: #ff7f0e; stroke: #ff7f0e"/>
     <use xlink:href="#m62dddfcf3a" x="240.021747" y="277.007686" style="fill: #ff7f0e; stroke: #ff7f0e"/>
     <use xlink:href="#m62dddfcf3a" x="301.323156" y="322.470384" style="fill: #ff7f0e; stroke: #ff7f0e"/>
     <use xlink:href="#m62dddfcf3a" x="370.798085" y="294.743015" style="fill: #ff7f0e; stroke: #ff7f0e"/>
     <use xlink:href="#m62dddfcf3a" x="440.273015" y="202.61343" style="fill: #ff7f0e; stroke: #ff7f0e"/>
     <use xlink:href="#m62dddfcf3a" x="513.834705" y="104.666836" style="fill: #ff7f0e; stroke: #ff7f0e"/>
     <use xlink:href="#m62dddfcf3a" x="560.423776" y="77.130578" style="fill: #ff7f0e; stroke: #ff7f0e"/>
    </g>
   </g>
   <g id="patch_4">
    <path d="M 23.423437 373.389656 
L 23.423437 30.597656 
" style="fill: none; stroke: #000000; stroke-width: 0.8; stroke-linejoin: miter; stroke-linecap: square"/>
   </g>
   <g id="patch_5">
    <path d="M 603.743438 373.389656 
L 603.743438 30.597656 
" style="fill: none; stroke: #000000; stroke-width: 0.8; stroke-linejoin: miter; stroke-linecap: square"/>
   </g>
   <g id="patch_6">
    <path d="M 23.423437 373.389656 
L 603.743438 373.389656 
" style="fill: none; stroke: #000000; stroke-width: 0.8; stroke-linejoin: miter; stroke-linecap: square"/>
   </g>
   <g id="patch_7">
    <path d="M 23.423437 30.597656 
L 603.743438 30.597656 
" style="fill: none; stroke: #000000; stroke-width: 0.8; stroke-linejoin: miter; stroke-linecap: square"/>
   </g>
   <g id="text_6">
    <!-- $t_1$ -->
    <g transform="translate(117.808191 97.386386) scale(0.085 -0.085)">
     <defs>
      <path id="DejaVuSans-Oblique-74" d="M 2706 3500 
L 2619 3053 
L 1472 3053 
L 1100 1153 
Q 1081 1047 1072 975 
Q 1063 903 1063 863 
Q 1063 663 1183 572 
Q 1303 481 1569 481 
L 2150 481 
L 2053 0 
L 1503 0 
Q 991 0 739 200 
Q 488 400 488 806 
Q 488 878 497 964 
Q 506 1050 525 1153 
L 897 3053 
L 409 3053 
L 500 3500 
L 978 3500 
L 1172 4494 
L 1747 4494 
L 1556 3500 
L 2706 3500 
z
" transform="scale(0.015625)"/>
      <path id="DejaVuSans-31" d="M 794 531 
L 1825 531 
L 1825 4091 
L 703 3866 
L 703 4441 
L 1819 4666 
L 2450 4666 
L 2450 531 
L 3481 531 
L 3481 0 
L 794 0 
L 794 531 
z
" transform="scale(0.015625)"/>
     </defs>
     <use xlink:href="#DejaVuSans-Oblique-74" transform="translate(0 0.78125)"/>
     <use xlink:href="#DejaVuSans-31" transform="translate(39.208984 -15.625) scale(0.7)"/>
    </g>
   </g>
   <g id="text_7">
    <!-- $t_2$ -->
    <g transform="translate(175.022839 174.600946) scale(0.085 -0.085)">
     <defs>
      <path id="DejaVuSans-32" d="M 1228 531 
L 3431 531 
L 3431 0 
L 469 0 
L 469 531 
Q 828 903 1448 1529 
Q 2069 2156 2228 2338 
Q 2531 2678 2651 2914 
Q 2772 3150 2772 3378 
Q 2772 3750 2511 3984 
Q 2250 4219 1831 4219 
Q 1534 4219 1204 4116 
Q 875 4013 500 3803 
L 500 4441 
Q 881 4594 1212 4672 
Q 1544 4750 1819 4750 
Q 2544 4750 2975 4387 
Q 3406 4025 3406 3419 
Q 3406 3131 3298 2873 
Q 3191 2616 2906 2266 
Q 2828 2175 2409 1742 
Q 1991 1309 1228 531 
z
" transform="scale(0.015625)"/>
     </defs>
     <use xlink:href="#DejaVuSans-Oblique-74" transform="translate(0 0.78125)"/>
     <use xlink:href="#DejaVuSans-32" transform="translate(39.208984 -15.625) scale(0.7)"/>
    </g>
   </g>
   <g id="text_8">
    <!-- $t_3$ -->
    <g transform="translate(236.324247 261.366986) scale(0.085 -0.085)">
     <defs>
      <path id="DejaVuSans-33" d="M 2597 2516 
Q 3050 2419 3304 2112 
Q 3559 1806 3559 1356 
Q 3559 666 3084 287 
Q 2609 -91 1734 -91 
Q 1441 -91 1130 -33 
Q 819 25 488 141 
L 488 750 
Q 750 597 1062 519 
Q 1375 441 1716 441 
Q 2309 441 2620 675 
Q 2931 909 2931 1356 
Q 2931 1769 2642 2001 
Q 2353 2234 1838 2234 
L 1294 2234 
L 1294 2753 
L 1863 2753 
Q 2328 2753 2575 2939 
Q 2822 3125 2822 3475 
Q 2822 3834 2567 4026 
Q 2313 4219 1838 4219 
Q 1578 4219 1281 4162 
Q 984 4106 628 3988 
L 628 4550 
Q 988 4650 1302 4700 
Q 1616 4750 1894 4750 
Q 2613 4750 3031 4423 
Q 3450 4097 3450 3541 
Q 3450 3153 3228 2886 
Q 3006 2619 2597 2516 
z
" transform="scale(0.015625)"/>
     </defs>
     <use xlink:href="#DejaVuSans-Oblique-74" transform="translate(0 0.78125)"/>
     <use xlink:href="#DejaVuSans-33" transform="translate(39.208984 -15.625) scale(0.7)"/>
    </g>
   </g>
   <g id="text_9">
    <!-- $t_4$ -->
    <g transform="translate(297.625656 306.829685) scale(0.085 -0.085)">
     <defs>
      <path id="DejaVuSans-34" d="M 2419 4116 
L 825 1625 
L 2419 1625 
L 2419 4116 
z
M 2253 4666 
L 3047 4666 
L 3047 1625 
L 3713 1625 
L 3713 1100 
L 3047 1100 
L 3047 0 
L 2419 0 
L 2419 1100 
L 313 1100 
L 313 1709 
L 2253 4666 
z
" transform="scale(0.015625)"/>
     </defs>
     <use xlink:href="#DejaVuSans-Oblique-74" transform="translate(0 0.78125)"/>
     <use xlink:href="#DejaVuSans-34" transform="translate(39.208984 -15.625) scale(0.7)"/>
    </g>
   </g>
   <g id="text_10">
    <!-- $t_5$ -->
    <g transform="translate(367.100585 279.102316) scale(0.085 -0.085)">
     <defs>
      <path id="DejaVuSans-35" d="M 691 4666 
L 3169 4666 
L 3169 4134 
L 1269 4134 
L 1269 2991 
Q 1406 3038 1543 3061 
Q 1681 3084 1819 3084 
Q 2600 3084 3056 2656 
Q 3513 2228 3513 1497 
Q 3513 744 3044 326 
Q 2575 -91 1722 -91 
Q 1428 -91 1123 -41 
Q 819 9 494 109 
L 494 744 
Q 775 591 1075 516 
Q 1375 441 1709 441 
Q 2250 441 2565 725 
Q 2881 1009 2881 1497 
Q 2881 1984 2565 2268 
Q 2250 2553 1709 2553 
Q 1456 2553 1204 2497 
Q 953 2441 691 2322 
L 691 4666 
z
" transform="scale(0.015625)"/>
     </defs>
     <use xlink:href="#DejaVuSans-Oblique-74" transform="translate(0 0.78125)"/>
     <use xlink:href="#DejaVuSans-35" transform="translate(39.208984 -15.625) scale(0.7)"/>
    </g>
   </g>
   <g id="text_11">
    <!-- $t_6$ -->
    <g transform="translate(436.575515 186.972731) scale(0.085 -0.085)">
     <defs>
      <path id="DejaVuSans-36" d="M 2113 2584 
Q 1688 2584 1439 2293 
Q 1191 2003 1191 1497 
Q 1191 994 1439 701 
Q 1688 409 2113 409 
Q 2538 409 2786 701 
Q 3034 994 3034 1497 
Q 3034 2003 2786 2293 
Q 2538 2584 2113 2584 
z
M 3366 4563 
L 3366 3988 
Q 3128 4100 2886 4159 
Q 2644 4219 2406 4219 
Q 1781 4219 1451 3797 
Q 1122 3375 1075 2522 
Q 1259 2794 1537 2939 
Q 1816 3084 2150 3084 
Q 2853 3084 3261 2657 
Q 3669 2231 3669 1497 
Q 3669 778 3244 343 
Q 2819 -91 2113 -91 
Q 1303 -91 875 529 
Q 447 1150 447 2328 
Q 447 3434 972 4092 
Q 1497 4750 2381 4750 
Q 2619 4750 2861 4703 
Q 3103 4656 3366 4563 
z
" transform="scale(0.015625)"/>
     </defs>
     <use xlink:href="#DejaVuSans-Oblique-74" transform="translate(0 0.78125)"/>
     <use xlink:href="#DejaVuSans-36" transform="translate(39.208984 -15.625) scale(0.7)"/>
    </g>
   </g>
   <g id="text_12">
    <!-- $t_7$ -->
    <g transform="translate(510.137205 89.026137) scale(0.085 -0.085)">
     <defs>
      <path id="DejaVuSans-37" d="M 525 4666 
L 3525 4666 
L 3525 4397 
L 1831 0 
L 1172 0 
L 2766 4134 
L 525 4134 
L 525 4666 
z
" transform="scale(0.015625)"/>
     </defs>
     <use xlink:href="#DejaVuSans-Oblique-74" transform="translate(0 0.78125)"/>
     <use xlink:href="#DejaVuSans-37" transform="translate(39.208984 -15.625) scale(0.7)"/>
    </g>
   </g>
   <g id="text_13">
    <!-- $t_8$ -->
    <g transform="translate(556.726276 61.489878) scale(0.085 -0.085)">
     <defs>
      <path id="DejaVuSans-38" d="M 2034 2216 
Q 1584 2216 1326 1975 
Q 1069 1734 1069 1313 
Q 1069 891 1326 650 
Q 1584 409 2034 409 
Q 2484 409 2743 651 
Q 3003 894 3003 1313 
Q 3003 1734 2745 1975 
Q 2488 2216 2034 2216 
z
M 1403 2484 
Q 997 2584 770 2862 
Q 544 3141 544 3541 
Q 544 4100 942 4425 
Q 1341 4750 2034 4750 
Q 2731 4750 3128 4425 
Q 3525 4100 3525 3541 
Q 3525 3141 3298 2862 
Q 3072 2584 2669 2484 
Q 3125 2378 3379 2068 
Q 3634 1759 3634 1313 
Q 3634 634 3220 271 
Q 2806 -91 2034 -91 
Q 1263 -91 848 271 
Q 434 634 434 1313 
Q 434 1759 690 2068 
Q 947 2378 1403 2484 
z
M 1172 3481 
Q 1172 3119 1398 2916 
Q 1625 2713 2034 2713 
Q 2441 2713 2670 2916 
Q 2900 3119 2900 3481 
Q 2900 3844 2670 4047 
Q 2441 4250 2034 4250 
Q 1625 4250 1398 4047 
Q 1172 3844 1172 3481 
z
" transform="scale(0.015625)"/>
     </defs>
     <use xlink:href="#DejaVuSans-Oblique-74" transform="translate(0 0.78125)"/>
     <use xlink:href="#DejaVuSans-38" transform="translate(39.208984 -15.625) scale(0.7)"/>
    </g>
   </g>
   <g id="patch_8">
    <path d="M 524.09426 56.665489 
Q 313.581956 56.665489 104.970309 56.665489 
" style="fill: none; stroke: #000000; stroke-width: 1.7; stroke-linecap: round"/>
    <path d="M 110.170309 59.265489 
L 104.970309 56.665489 
L 110.170309 54.065489 
z
" style="fill: #1f77b4; stroke: #000000; stroke-width: 1.7; stroke-linecap: round"/>
   </g>
   <g id="text_14">
    <!-- campo elettrico costante -->
    <g transform="translate(254.252227 38.432629) scale(0.095 -0.095)">
     <defs>
      <path id="DejaVuSans-63" d="M 3122 3366 
L 3122 2828 
Q 2878 2963 2633 3030 
Q 2388 3097 2138 3097 
Q 1578 3097 1268 2742 
Q 959 2388 959 1747 
Q 959 1106 1268 751 
Q 1578 397 2138 397 
Q 2388 397 2633 464 
Q 2878 531 3122 666 
L 3122 134 
Q 2881 22 2623 -34 
Q 2366 -91 2075 -91 
Q 1284 -91 818 406 
Q 353 903 353 1747 
Q 353 2603 823 3093 
Q 1294 3584 2113 3584 
Q 2378 3584 2631 3529 
Q 2884 3475 3122 3366 
z
" transform="scale(0.015625)"/>
      <path id="DejaVuSans-6d" d="M 3328 2828 
Q 3544 3216 3844 3400 
Q 4144 3584 4550 3584 
Q 5097 3584 5394 3201 
Q 5691 2819 5691 2113 
L 5691 0 
L 5113 0 
L 5113 2094 
Q 5113 2597 4934 2840 
Q 4756 3084 4391 3084 
Q 3944 3084 3684 2787 
Q 3425 2491 3425 1978 
L 3425 0 
L 2847 0 
L 2847 2094 
Q 2847 2600 2669 2842 
Q 2491 3084 2119 3084 
Q 1678 3084 1418 2786 
Q 1159 2488 1159 1978 
L 1159 0 
L 581 0 
L 581 3500 
L 1159 3500 
L 1159 2956 
Q 1356 3278 1631 3431 
Q 1906 3584 2284 3584 
Q 2666 3584 2933 3390 
Q 3200 3197 3328 2828 
z
" transform="scale(0.015625)"/>
      <path id="DejaVuSans-70" d="M 1159 525 
L 1159 -1331 
L 581 -1331 
L 581 3500 
L 1159 3500 
L 1159 2969 
Q 1341 3281 1617 3432 
Q 1894 3584 2278 3584 
Q 2916 3584 3314 3078 
Q 3713 2572 3713 1747 
Q 3713 922 3314 415 
Q 2916 -91 2278 -91 
Q 1894 -91 1617 61 
Q 1341 213 1159 525 
z
M 3116 1747 
Q 3116 2381 2855 2742 
Q 2594 3103 2138 3103 
Q 1681 3103 1420 2742 
Q 1159 2381 1159 1747 
Q 1159 1113 1420 752 
Q 1681 391 2138 391 
Q 2594 391 2855 752 
Q 3116 1113 3116 1747 
z
" transform="scale(0.015625)"/>
      <path id="DejaVuSans-6c" d="M 603 4863 
L 1178 4863 
L 1178 0 
L 603 0 
L 603 4863 
z
" transform="scale(0.015625)"/>
      <path id="DejaVuSans-69" d="M 603 3500 
L 1178 3500 
L 1178 0 
L 603 0 
L 603 3500 
z
M 603 4863 
L 1178 4863 
L 1178 4134 
L 603 4134 
L 603 4863 
z
" transform="scale(0.015625)"/>
      <path id="DejaVuSans-73" d="M 2834 3397 
L 2834 2853 
Q 2591 2978 2328 3040 
Q 2066 3103 1784 3103 
Q 1356 3103 1142 2972 
Q 928 2841 928 2578 
Q 928 2378 1081 2264 
Q 1234 2150 1697 2047 
L 1894 2003 
Q 2506 1872 2764 1633 
Q 3022 1394 3022 966 
Q 3022 478 2636 193 
Q 2250 -91 1575 -91 
Q 1294 -91 989 -36 
Q 684 19 347 128 
L 347 722 
Q 666 556 975 473 
Q 1284 391 1588 391 
Q 1994 391 2212 530 
Q 2431 669 2431 922 
Q 2431 1156 2273 1281 
Q 2116 1406 1581 1522 
L 1381 1569 
Q 847 1681 609 1914 
Q 372 2147 372 2553 
Q 372 3047 722 3315 
Q 1072 3584 1716 3584 
Q 2034 3584 2315 3537 
Q 2597 3491 2834 3397 
z
" transform="scale(0.015625)"/>
     </defs>
     <use xlink:href="#DejaVuSans-63"/>
     <use xlink:href="#DejaVuSans-61" transform="translate(54.980469 0)"/>
     <use xlink:href="#DejaVuSans-6d" transform="translate(116.259766 0)"/>
     <use xlink:href="#DejaVuSans-70" transform="translate(213.671875 0)"/>
     <use xlink:href="#DejaVuSans-6f" transform="translate(277.148438 0)"/>
     <use xlink:href="#DejaVuSans-20" transform="translate(338.330078 0)"/>
     <use xlink:href="#DejaVuSans-65" transform="translate(370.117188 0)"/>
     <use xlink:href="#DejaVuSans-6c" transform="translate(431.640625 0)"/>
     <use xlink:href="#DejaVuSans-65" transform="translate(459.423828 0)"/>
     <use xlink:href="#DejaVuSans-74" transform="translate(520.947266 0)"/>
     <use xlink:href="#DejaVuSans-74" transform="translate(560.15625 0)"/>
     <use xlink:href="#DejaVuSans-72" transform="translate(599.365234 0)"/>
     <use xlink:href="#DejaVuSans-69" transform="translate(640.478516 0)"/>
     <use xlink:href="#DejaVuSans-63" transform="translate(668.261719 0)"/>
     <use xlink:href="#DejaVuSans-6f" transform="translate(723.242188 0)"/>
     <use xlink:href="#DejaVuSans-20" transform="translate(784.423828 0)"/>
     <use xlink:href="#DejaVuSans-63" transform="translate(816.210938 0)"/>
     <use xlink:href="#DejaVuSans-6f" transform="translate(871.191406 0)"/>
     <use xlink:href="#DejaVuSans-73" transform="translate(932.373047 0)"/>
     <use xlink:href="#DejaVuSans-74" transform="translate(984.472656 0)"/>
     <use xlink:href="#DejaVuSans-61" transform="translate(1023.681641 0)"/>
     <use xlink:href="#DejaVuSans-6e" transform="translate(1084.960938 0)"/>
     <use xlink:href="#DejaVuSans-74" transform="translate(1148.339844 0)"/>
     <use xlink:href="#DejaVuSans-65" transform="translate(1187.548828 0)"/>
    </g>
   </g>
   <g id="text_15">
    <!-- equivalenza periodica tra i bordi della zona -->
    <g transform="translate(218.48775 361.828798) scale(0.088 -0.088)">
     <defs>
      <path id="DejaVuSans-71" d="M 947 1747 
Q 947 1113 1208 752 
Q 1469 391 1925 391 
Q 2381 391 2643 752 
Q 2906 1113 2906 1747 
Q 2906 2381 2643 2742 
Q 2381 3103 1925 3103 
Q 1469 3103 1208 2742 
Q 947 2381 947 1747 
z
M 2906 525 
Q 2725 213 2448 61 
Q 2172 -91 1784 -91 
Q 1150 -91 751 415 
Q 353 922 353 1747 
Q 353 2572 751 3078 
Q 1150 3584 1784 3584 
Q 2172 3584 2448 3432 
Q 2725 3281 2906 2969 
L 2906 3500 
L 3481 3500 
L 3481 -1331 
L 2906 -1331 
L 2906 525 
z
" transform="scale(0.015625)"/>
      <path id="DejaVuSans-75" d="M 544 1381 
L 544 3500 
L 1119 3500 
L 1119 1403 
Q 1119 906 1312 657 
Q 1506 409 1894 409 
Q 2359 409 2629 706 
Q 2900 1003 2900 1516 
L 2900 3500 
L 3475 3500 
L 3475 0 
L 2900 0 
L 2900 538 
Q 2691 219 2414 64 
Q 2138 -91 1772 -91 
Q 1169 -91 856 284 
Q 544 659 544 1381 
z
M 1991 3584 
L 1991 3584 
z
" transform="scale(0.015625)"/>
      <path id="DejaVuSans-7a" d="M 353 3500 
L 3084 3500 
L 3084 2975 
L 922 459 
L 3084 459 
L 3084 0 
L 275 0 
L 275 525 
L 2438 3041 
L 353 3041 
L 353 3500 
z
" transform="scale(0.015625)"/>
      <path id="DejaVuSans-62" d="M 3116 1747 
Q 3116 2381 2855 2742 
Q 2594 3103 2138 3103 
Q 1681 3103 1420 2742 
Q 1159 2381 1159 1747 
Q 1159 1113 1420 752 
Q 1681 391 2138 391 
Q 2594 391 2855 752 
Q 3116 1113 3116 1747 
z
M 1159 2969 
Q 1341 3281 1617 3432 
Q 1894 3584 2278 3584 
Q 2916 3584 3314 3078 
Q 3713 2572 3713 1747 
Q 3713 922 3314 415 
Q 2916 -91 2278 -91 
Q 1894 -91 1617 61 
Q 1341 213 1159 525 
L 1159 0 
L 581 0 
L 581 4863 
L 1159 4863 
L 1159 2969 
z
" transform="scale(0.015625)"/>
     </defs>
     <use xlink:href="#DejaVuSans-65"/>
     <use xlink:href="#DejaVuSans-71" transform="translate(61.523438 0)"/>
     <use xlink:href="#DejaVuSans-75" transform="translate(125 0)"/>
     <use xlink:href="#DejaVuSans-69" transform="translate(188.378906 0)"/>
     <use xlink:href="#DejaVuSans-76" transform="translate(216.162109 0)"/>
     <use xlink:href="#DejaVuSans-61" transform="translate(275.341797 0)"/>
     <use xlink:href="#DejaVuSans-6c" transform="translate(336.621094 0)"/>
     <use xlink:href="#DejaVuSans-65" transform="translate(364.404297 0)"/>
     <use xlink:href="#DejaVuSans-6e" transform="translate(425.927734 0)"/>
     <use xlink:href="#DejaVuSans-7a" transform="translate(489.306641 0)"/>
     <use xlink:href="#DejaVuSans-61" transform="translate(541.796875 0)"/>
     <use xlink:href="#DejaVuSans-20" transform="translate(603.076172 0)"/>
     <use xlink:href="#DejaVuSans-70" transform="translate(634.863281 0)"/>
     <use xlink:href="#DejaVuSans-65" transform="translate(698.339844 0)"/>
     <use xlink:href="#DejaVuSans-72" transform="translate(759.863281 0)"/>
     <use xlink:href="#DejaVuSans-69" transform="translate(800.976562 0)"/>
     <use xlink:href="#DejaVuSans-6f" transform="translate(828.759766 0)"/>
     <use xlink:href="#DejaVuSans-64" transform="translate(889.941406 0)"/>
     <use xlink:href="#DejaVuSans-69" transform="translate(953.417969 0)"/>
     <use xlink:href="#DejaVuSans-63" transform="translate(981.201172 0)"/>
     <use xlink:href="#DejaVuSans-61" transform="translate(1036.181641 0)"/>
     <use xlink:href="#DejaVuSans-20" transform="translate(1097.460938 0)"/>
     <use xlink:href="#DejaVuSans-74" transform="translate(1129.248047 0)"/>
     <use xlink:href="#DejaVuSans-72" transform="translate(1168.457031 0)"/>
     <use xlink:href="#DejaVuSans-61" transform="translate(1209.570312 0)"/>
     <use xlink:href="#DejaVuSans-20" transform="translate(1270.849609 0)"/>
     <use xlink:href="#DejaVuSans-69" transform="translate(1302.636719 0)"/>
     <use xlink:href="#DejaVuSans-20" transform="translate(1330.419922 0)"/>
     <use xlink:href="#DejaVuSans-62" transform="translate(1362.207031 0)"/>
     <use xlink:href="#DejaVuSans-6f" transform="translate(1425.683594 0)"/>
     <use xlink:href="#DejaVuSans-72" transform="translate(1486.865234 0)"/>
     <use xlink:href="#DejaVuSans-64" transform="translate(1526.228516 0)"/>
     <use xlink:href="#DejaVuSans-69" transform="translate(1589.705078 0)"/>
     <use xlink:href="#DejaVuSans-20" transform="translate(1617.488281 0)"/>
     <use xlink:href="#DejaVuSans-64" transform="translate(1649.275391 0)"/>
     <use xlink:href="#DejaVuSans-65" transform="translate(1712.751953 0)"/>
     <use xlink:href="#DejaVuSans-6c" transform="translate(1774.275391 0)"/>
     <use xlink:href="#DejaVuSans-6c" transform="translate(1802.058594 0)"/>
     <use xlink:href="#DejaVuSans-61" transform="translate(1829.841797 0)"/>
     <use xlink:href="#DejaVuSans-20" transform="translate(1891.121094 0)"/>
     <use xlink:href="#DejaVuSans-7a" transform="translate(1922.908203 0)"/>
     <use xlink:href="#DejaVuSans-6f" transform="translate(1975.398438 0)"/>
     <use xlink:href="#DejaVuSans-6e" transform="translate(2036.580078 0)"/>
     <use xlink:href="#DejaVuSans-61" transform="translate(2099.958984 0)"/>
    </g>
   </g>
   <g id="text_16">
    <!-- $k'=k+G$ -->
    <g transform="translate(50.396057 318.647208) scale(0.095 -0.095)">
     <defs>
      <path id="Cmsy10-30" d="M 225 347 
Q 184 359 184 409 
L 966 3316 
Q 1003 3434 1093 3506 
Q 1184 3578 1300 3578 
Q 1450 3578 1564 3479 
Q 1678 3381 1678 3231 
Q 1678 3166 1644 3084 
L 488 319 
Q 466 275 428 275 
Q 394 275 320 306 
Q 247 338 225 347 
z
" transform="scale(0.015625)"/>
      <path id="DejaVuSans-3d" d="M 678 2906 
L 4684 2906 
L 4684 2381 
L 678 2381 
L 678 2906 
z
M 678 1631 
L 4684 1631 
L 4684 1100 
L 678 1100 
L 678 1631 
z
" transform="scale(0.015625)"/>
      <path id="DejaVuSans-Oblique-47" d="M 3494 697 
L 3738 1919 
L 2700 1919 
L 2797 2438 
L 4453 2438 
L 4050 384 
Q 3634 156 3143 32 
Q 2653 -91 2156 -91 
Q 1278 -91 783 396 
Q 288 884 288 1753 
Q 288 2475 589 3126 
Q 891 3778 1422 4213 
Q 1756 4484 2153 4617 
Q 2550 4750 3034 4750 
Q 3472 4750 3873 4639 
Q 4275 4528 4641 4306 
L 4513 3634 
Q 4231 3928 3853 4083 
Q 3475 4238 3047 4238 
Q 2550 4238 2172 4048 
Q 1794 3859 1497 3463 
Q 1244 3125 1098 2667 
Q 953 2209 953 1734 
Q 953 1081 1287 751 
Q 1622 422 2284 422 
Q 2616 422 2925 492 
Q 3234 563 3494 697 
z
" transform="scale(0.015625)"/>
     </defs>
     <use xlink:href="#DejaVuSans-Oblique-6b" transform="translate(0 0.584375)"/>
     <use xlink:href="#Cmsy10-30" transform="translate(65.357865 38.865625) scale(0.7)"/>
     <use xlink:href="#DejaVuSans-3d" transform="translate(106.817826 0.584375)"/>
     <use xlink:href="#DejaVuSans-Oblique-6b" transform="translate(210.08931 0.584375)"/>
     <use xlink:href="#DejaVuSans-2b" transform="translate(287.481888 0.584375)"/>
     <use xlink:href="#DejaVuSans-Oblique-47" transform="translate(390.753372 0.584375)"/>
    </g>
   </g>
   <g id="text_17">
    <!-- Oscillazione di Bloch in una banda periodica -->
    <g transform="translate(127.004531 18.597656) scale(0.15 -0.15)">
     <defs>
      <path id="DejaVuSans-Bold-4f" d="M 2719 3878 
Q 2169 3878 1866 3472 
Q 1563 3066 1563 2328 
Q 1563 1594 1866 1187 
Q 2169 781 2719 781 
Q 3272 781 3575 1187 
Q 3878 1594 3878 2328 
Q 3878 3066 3575 3472 
Q 3272 3878 2719 3878 
z
M 2719 4750 
Q 3844 4750 4481 4106 
Q 5119 3463 5119 2328 
Q 5119 1197 4481 553 
Q 3844 -91 2719 -91 
Q 1597 -91 958 553 
Q 319 1197 319 2328 
Q 319 3463 958 4106 
Q 1597 4750 2719 4750 
z
" transform="scale(0.015625)"/>
      <path id="DejaVuSans-Bold-73" d="M 3272 3391 
L 3272 2541 
Q 2913 2691 2578 2766 
Q 2244 2841 1947 2841 
Q 1628 2841 1473 2761 
Q 1319 2681 1319 2516 
Q 1319 2381 1436 2309 
Q 1553 2238 1856 2203 
L 2053 2175 
Q 2913 2066 3209 1816 
Q 3506 1566 3506 1031 
Q 3506 472 3093 190 
Q 2681 -91 1863 -91 
Q 1516 -91 1145 -36 
Q 775 19 384 128 
L 384 978 
Q 719 816 1070 734 
Q 1422 653 1784 653 
Q 2113 653 2278 743 
Q 2444 834 2444 1013 
Q 2444 1163 2330 1236 
Q 2216 1309 1875 1350 
L 1678 1375 
Q 931 1469 631 1722 
Q 331 1975 331 2491 
Q 331 3047 712 3315 
Q 1094 3584 1881 3584 
Q 2191 3584 2531 3537 
Q 2872 3491 3272 3391 
z
" transform="scale(0.015625)"/>
      <path id="DejaVuSans-Bold-63" d="M 3366 3391 
L 3366 2478 
Q 3138 2634 2908 2709 
Q 2678 2784 2431 2784 
Q 1963 2784 1702 2511 
Q 1441 2238 1441 1747 
Q 1441 1256 1702 982 
Q 1963 709 2431 709 
Q 2694 709 2930 787 
Q 3166 866 3366 1019 
L 3366 103 
Q 3103 6 2833 -42 
Q 2563 -91 2291 -91 
Q 1344 -91 809 395 
Q 275 881 275 1747 
Q 275 2613 809 3098 
Q 1344 3584 2291 3584 
Q 2566 3584 2833 3536 
Q 3100 3488 3366 3391 
z
" transform="scale(0.015625)"/>
      <path id="DejaVuSans-Bold-69" d="M 538 3500 
L 1656 3500 
L 1656 0 
L 538 0 
L 538 3500 
z
M 538 4863 
L 1656 4863 
L 1656 3950 
L 538 3950 
L 538 4863 
z
" transform="scale(0.015625)"/>
      <path id="DejaVuSans-Bold-6c" d="M 538 4863 
L 1656 4863 
L 1656 0 
L 538 0 
L 538 4863 
z
" transform="scale(0.015625)"/>
      <path id="DejaVuSans-Bold-61" d="M 2106 1575 
Q 1756 1575 1579 1456 
Q 1403 1338 1403 1106 
Q 1403 894 1545 773 
Q 1688 653 1941 653 
Q 2256 653 2472 879 
Q 2688 1106 2688 1447 
L 2688 1575 
L 2106 1575 
z
M 3816 1997 
L 3816 0 
L 2688 0 
L 2688 519 
Q 2463 200 2181 54 
Q 1900 -91 1497 -91 
Q 953 -91 614 226 
Q 275 544 275 1050 
Q 275 1666 698 1953 
Q 1122 2241 2028 2241 
L 2688 2241 
L 2688 2328 
Q 2688 2594 2478 2717 
Q 2269 2841 1825 2841 
Q 1466 2841 1156 2769 
Q 847 2697 581 2553 
L 581 3406 
Q 941 3494 1303 3539 
Q 1666 3584 2028 3584 
Q 2975 3584 3395 3211 
Q 3816 2838 3816 1997 
z
" transform="scale(0.015625)"/>
      <path id="DejaVuSans-Bold-7a" d="M 366 3500 
L 3419 3500 
L 3419 2719 
L 1575 800 
L 3419 800 
L 3419 0 
L 288 0 
L 288 781 
L 2131 2700 
L 366 2700 
L 366 3500 
z
" transform="scale(0.015625)"/>
      <path id="DejaVuSans-Bold-6f" d="M 2203 2784 
Q 1831 2784 1636 2517 
Q 1441 2250 1441 1747 
Q 1441 1244 1636 976 
Q 1831 709 2203 709 
Q 2569 709 2762 976 
Q 2956 1244 2956 1747 
Q 2956 2250 2762 2517 
Q 2569 2784 2203 2784 
z
M 2203 3584 
Q 3106 3584 3614 3096 
Q 4122 2609 4122 1747 
Q 4122 884 3614 396 
Q 3106 -91 2203 -91 
Q 1297 -91 786 396 
Q 275 884 275 1747 
Q 275 2609 786 3096 
Q 1297 3584 2203 3584 
z
" transform="scale(0.015625)"/>
      <path id="DejaVuSans-Bold-6e" d="M 4056 2131 
L 4056 0 
L 2931 0 
L 2931 347 
L 2931 1631 
Q 2931 2084 2911 2256 
Q 2891 2428 2841 2509 
Q 2775 2619 2662 2680 
Q 2550 2741 2406 2741 
Q 2056 2741 1856 2470 
Q 1656 2200 1656 1722 
L 1656 0 
L 538 0 
L 538 3500 
L 1656 3500 
L 1656 2988 
Q 1909 3294 2193 3439 
Q 2478 3584 2822 3584 
Q 3428 3584 3742 3212 
Q 4056 2841 4056 2131 
z
" transform="scale(0.015625)"/>
      <path id="DejaVuSans-Bold-65" d="M 4031 1759 
L 4031 1441 
L 1416 1441 
Q 1456 1047 1700 850 
Q 1944 653 2381 653 
Q 2734 653 3104 758 
Q 3475 863 3866 1075 
L 3866 213 
Q 3469 63 3072 -14 
Q 2675 -91 2278 -91 
Q 1328 -91 801 392 
Q 275 875 275 1747 
Q 275 2603 792 3093 
Q 1309 3584 2216 3584 
Q 3041 3584 3536 3087 
Q 4031 2591 4031 1759 
z
M 2881 2131 
Q 2881 2450 2695 2645 
Q 2509 2841 2209 2841 
Q 1884 2841 1681 2658 
Q 1478 2475 1428 2131 
L 2881 2131 
z
" transform="scale(0.015625)"/>
      <path id="DejaVuSans-Bold-20" transform="scale(0.015625)"/>
      <path id="DejaVuSans-Bold-64" d="M 2919 2988 
L 2919 4863 
L 4044 4863 
L 4044 0 
L 2919 0 
L 2919 506 
Q 2688 197 2409 53 
Q 2131 -91 1766 -91 
Q 1119 -91 703 423 
Q 288 938 288 1747 
Q 288 2556 703 3070 
Q 1119 3584 1766 3584 
Q 2128 3584 2408 3439 
Q 2688 3294 2919 2988 
z
M 2181 722 
Q 2541 722 2730 984 
Q 2919 1247 2919 1747 
Q 2919 2247 2730 2509 
Q 2541 2772 2181 2772 
Q 1825 2772 1636 2509 
Q 1447 2247 1447 1747 
Q 1447 1247 1636 984 
Q 1825 722 2181 722 
z
" transform="scale(0.015625)"/>
      <path id="DejaVuSans-Bold-42" d="M 2456 2859 
Q 2741 2859 2887 2984 
Q 3034 3109 3034 3353 
Q 3034 3594 2887 3720 
Q 2741 3847 2456 3847 
L 1791 3847 
L 1791 2859 
L 2456 2859 
z
M 2497 819 
Q 2859 819 3042 972 
Q 3225 1125 3225 1434 
Q 3225 1738 3044 1889 
Q 2863 2041 2497 2041 
L 1791 2041 
L 1791 819 
L 2497 819 
z
M 3616 2497 
Q 4003 2384 4215 2081 
Q 4428 1778 4428 1338 
Q 4428 663 3972 331 
Q 3516 0 2584 0 
L 588 0 
L 588 4666 
L 2394 4666 
Q 3366 4666 3802 4372 
Q 4238 4078 4238 3431 
Q 4238 3091 4078 2852 
Q 3919 2613 3616 2497 
z
" transform="scale(0.015625)"/>
      <path id="DejaVuSans-Bold-68" d="M 4056 2131 
L 4056 0 
L 2931 0 
L 2931 347 
L 2931 1625 
Q 2931 2084 2911 2256 
Q 2891 2428 2841 2509 
Q 2775 2619 2662 2680 
Q 2550 2741 2406 2741 
Q 2056 2741 1856 2470 
Q 1656 2200 1656 1722 
L 1656 0 
L 538 0 
L 538 4863 
L 1656 4863 
L 1656 2988 
Q 1909 3294 2193 3439 
Q 2478 3584 2822 3584 
Q 3428 3584 3742 3212 
Q 4056 2841 4056 2131 
z
" transform="scale(0.015625)"/>
      <path id="DejaVuSans-Bold-75" d="M 500 1363 
L 500 3500 
L 1625 3500 
L 1625 3150 
Q 1625 2866 1622 2436 
Q 1619 2006 1619 1863 
Q 1619 1441 1641 1255 
Q 1663 1069 1716 984 
Q 1784 875 1895 815 
Q 2006 756 2150 756 
Q 2500 756 2700 1025 
Q 2900 1294 2900 1772 
L 2900 3500 
L 4019 3500 
L 4019 0 
L 2900 0 
L 2900 506 
Q 2647 200 2364 54 
Q 2081 -91 1741 -91 
Q 1134 -91 817 281 
Q 500 653 500 1363 
z
" transform="scale(0.015625)"/>
      <path id="DejaVuSans-Bold-62" d="M 2400 722 
Q 2759 722 2948 984 
Q 3138 1247 3138 1747 
Q 3138 2247 2948 2509 
Q 2759 2772 2400 2772 
Q 2041 2772 1848 2508 
Q 1656 2244 1656 1747 
Q 1656 1250 1848 986 
Q 2041 722 2400 722 
z
M 1656 2988 
Q 1888 3294 2169 3439 
Q 2450 3584 2816 3584 
Q 3463 3584 3878 3070 
Q 4294 2556 4294 1747 
Q 4294 938 3878 423 
Q 3463 -91 2816 -91 
Q 2450 -91 2169 54 
Q 1888 200 1656 506 
L 1656 0 
L 538 0 
L 538 4863 
L 1656 4863 
L 1656 2988 
z
" transform="scale(0.015625)"/>
      <path id="DejaVuSans-Bold-70" d="M 1656 506 
L 1656 -1331 
L 538 -1331 
L 538 3500 
L 1656 3500 
L 1656 2988 
Q 1888 3294 2169 3439 
Q 2450 3584 2816 3584 
Q 3463 3584 3878 3070 
Q 4294 2556 4294 1747 
Q 4294 938 3878 423 
Q 3463 -91 2816 -91 
Q 2450 -91 2169 54 
Q 1888 200 1656 506 
z
M 2400 2772 
Q 2041 2772 1848 2508 
Q 1656 2244 1656 1747 
Q 1656 1250 1848 986 
Q 2041 722 2400 722 
Q 2759 722 2948 984 
Q 3138 1247 3138 1747 
Q 3138 2247 2948 2509 
Q 2759 2772 2400 2772 
z
" transform="scale(0.015625)"/>
      <path id="DejaVuSans-Bold-72" d="M 3138 2547 
Q 2991 2616 2845 2648 
Q 2700 2681 2553 2681 
Q 2122 2681 1889 2404 
Q 1656 2128 1656 1613 
L 1656 0 
L 538 0 
L 538 3500 
L 1656 3500 
L 1656 2925 
Q 1872 3269 2151 3426 
Q 2431 3584 2822 3584 
Q 2878 3584 2943 3579 
Q 3009 3575 3134 3559 
L 3138 2547 
z
" transform="scale(0.015625)"/>
     </defs>
     <use xlink:href="#DejaVuSans-Bold-4f"/>
     <use xlink:href="#DejaVuSans-Bold-73" transform="translate(85.009766 0)"/>
     <use xlink:href="#DejaVuSans-Bold-63" transform="translate(144.53125 0)"/>
     <use xlink:href="#DejaVuSans-Bold-69" transform="translate(203.808594 0)"/>
     <use xlink:href="#DejaVuSans-Bold-6c" transform="translate(238.085938 0)"/>
     <use xlink:href="#DejaVuSans-Bold-6c" transform="translate(272.363281 0)"/>
     <use xlink:href="#DejaVuSans-Bold-61" transform="translate(306.640625 0)"/>
     <use xlink:href="#DejaVuSans-Bold-7a" transform="translate(374.121094 0)"/>
     <use xlink:href="#DejaVuSans-Bold-69" transform="translate(432.324219 0)"/>
     <use xlink:href="#DejaVuSans-Bold-6f" transform="translate(466.601562 0)"/>
     <use xlink:href="#DejaVuSans-Bold-6e" transform="translate(535.302734 0)"/>
     <use xlink:href="#DejaVuSans-Bold-65" transform="translate(606.494141 0)"/>
     <use xlink:href="#DejaVuSans-Bold-20" transform="translate(674.316406 0)"/>
     <use xlink:href="#DejaVuSans-Bold-64" transform="translate(709.130859 0)"/>
     <use xlink:href="#DejaVuSans-Bold-69" transform="translate(780.712891 0)"/>
     <use xlink:href="#DejaVuSans-Bold-20" transform="translate(814.990234 0)"/>
     <use xlink:href="#DejaVuSans-Bold-42" transform="translate(849.804688 0)"/>
     <use xlink:href="#DejaVuSans-Bold-6c" transform="translate(926.025391 0)"/>
     <use xlink:href="#DejaVuSans-Bold-6f" transform="translate(960.302734 0)"/>
     <use xlink:href="#DejaVuSans-Bold-63" transform="translate(1029.003906 0)"/>
     <use xlink:href="#DejaVuSans-Bold-68" transform="translate(1088.28125 0)"/>
     <use xlink:href="#DejaVuSans-Bold-20" transform="translate(1159.472656 0)"/>
     <use xlink:href="#DejaVuSans-Bold-69" transform="translate(1194.287109 0)"/>
     <use xlink:href="#DejaVuSans-Bold-6e" transform="translate(1228.564453 0)"/>
     <use xlink:href="#DejaVuSans-Bold-20" transform="translate(1299.755859 0)"/>
     <use xlink:href="#DejaVuSans-Bold-75" transform="translate(1334.570312 0)"/>
     <use xlink:href="#DejaVuSans-Bold-6e" transform="translate(1405.761719 0)"/>
     <use xlink:href="#DejaVuSans-Bold-61" transform="translate(1476.953125 0)"/>
     <use xlink:href="#DejaVuSans-Bold-20" transform="translate(1544.433594 0)"/>
     <use xlink:href="#DejaVuSans-Bold-62" transform="translate(1579.248047 0)"/>
     <use xlink:href="#DejaVuSans-Bold-61" transform="translate(1650.830078 0)"/>
     <use xlink:href="#DejaVuSans-Bold-6e" transform="translate(1718.310547 0)"/>
     <use xlink:href="#DejaVuSans-Bold-64" transform="translate(1789.501953 0)"/>
     <use xlink:href="#DejaVuSans-Bold-61" transform="translate(1861.083984 0)"/>
     <use xlink:href="#DejaVuSans-Bold-20" transform="translate(1928.564453 0)"/>
     <use xlink:href="#DejaVuSans-Bold-70" transform="translate(1963.378906 0)"/>
     <use xlink:href="#DejaVuSans-Bold-65" transform="translate(2034.960938 0)"/>
     <use xlink:href="#DejaVuSans-Bold-72" transform="translate(2102.783203 0)"/>
     <use xlink:href="#DejaVuSans-Bold-69" transform="translate(2152.099609 0)"/>
     <use xlink:href="#DejaVuSans-Bold-6f" transform="translate(2186.376953 0)"/>
     <use xlink:href="#DejaVuSans-Bold-64" transform="translate(2255.078125 0)"/>
     <use xlink:href="#DejaVuSans-Bold-69" transform="translate(2326.660156 0)"/>
     <use xlink:href="#DejaVuSans-Bold-63" transform="translate(2360.9375 0)"/>
     <use xlink:href="#DejaVuSans-Bold-61" transform="translate(2420.214844 0)"/>
    </g>
   </g>
  </g>
  <g id="text_18">
   <!-- Il campo sposta progressivamente il vettore d'onda; raggiunto un bordo della zona, lo stato riappare al bordo opposto. -->
   <g transform="translate(7.2 445.425656) scale(0.1 -0.1)">
    <defs>
     <path id="DejaVuSans-49" d="M 628 4666 
L 1259 4666 
L 1259 0 
L 628 0 
L 628 4666 
z
" transform="scale(0.015625)"/>
     <path id="DejaVuSans-67" d="M 2906 1791 
Q 2906 2416 2648 2759 
Q 2391 3103 1925 3103 
Q 1463 3103 1205 2759 
Q 947 2416 947 1791 
Q 947 1169 1205 825 
Q 1463 481 1925 481 
Q 2391 481 2648 825 
Q 2906 1169 2906 1791 
z
M 3481 434 
Q 3481 -459 3084 -895 
Q 2688 -1331 1869 -1331 
Q 1566 -1331 1297 -1286 
Q 1028 -1241 775 -1147 
L 775 -588 
Q 1028 -725 1275 -790 
Q 1522 -856 1778 -856 
Q 2344 -856 2625 -561 
Q 2906 -266 2906 331 
L 2906 616 
Q 2728 306 2450 153 
Q 2172 0 1784 0 
Q 1141 0 747 490 
Q 353 981 353 1791 
Q 353 2603 747 3093 
Q 1141 3584 1784 3584 
Q 2172 3584 2450 3431 
Q 2728 3278 2906 2969 
L 2906 3500 
L 3481 3500 
L 3481 434 
z
" transform="scale(0.015625)"/>
     <path id="DejaVuSans-3b" d="M 750 3309 
L 1409 3309 
L 1409 2516 
L 750 2516 
L 750 3309 
z
M 750 794 
L 1409 794 
L 1409 256 
L 897 -744 
L 494 -744 
L 750 256 
L 750 794 
z
" transform="scale(0.015625)"/>
     <path id="DejaVuSans-2c" d="M 750 794 
L 1409 794 
L 1409 256 
L 897 -744 
L 494 -744 
L 750 256 
L 750 794 
z
" transform="scale(0.015625)"/>
     <path id="DejaVuSans-2e" d="M 684 794 
L 1344 794 
L 1344 0 
L 684 0 
L 684 794 
z
" transform="scale(0.015625)"/>
    </defs>
    <use xlink:href="#DejaVuSans-49"/>
    <use xlink:href="#DejaVuSans-6c" transform="translate(29.492188 0)"/>
    <use xlink:href="#DejaVuSans-20" transform="translate(57.275391 0)"/>
    <use xlink:href="#DejaVuSans-63" transform="translate(89.0625 0)"/>
    <use xlink:href="#DejaVuSans-61" transform="translate(144.042969 0)"/>
    <use xlink:href="#DejaVuSans-6d" transform="translate(205.322266 0)"/>
    <use xlink:href="#DejaVuSans-70" transform="translate(302.734375 0)"/>
    <use xlink:href="#DejaVuSans-6f" transform="translate(366.210938 0)"/>
    <use xlink:href="#DejaVuSans-20" transform="translate(427.392578 0)"/>
    <use xlink:href="#DejaVuSans-73" transform="translate(459.179688 0)"/>
    <use xlink:href="#DejaVuSans-70" transform="translate(511.279297 0)"/>
    <use xlink:href="#DejaVuSans-6f" transform="translate(574.755859 0)"/>
    <use xlink:href="#DejaVuSans-73" transform="translate(635.9375 0)"/>
    <use xlink:href="#DejaVuSans-74" transform="translate(688.037109 0)"/>
    <use xlink:href="#DejaVuSans-61" transform="translate(727.246094 0)"/>
    <use xlink:href="#DejaVuSans-20" transform="translate(788.525391 0)"/>
    <use xlink:href="#DejaVuSans-70" transform="translate(820.3125 0)"/>
    <use xlink:href="#DejaVuSans-72" transform="translate(883.789062 0)"/>
    <use xlink:href="#DejaVuSans-6f" transform="translate(922.652344 0)"/>
    <use xlink:href="#DejaVuSans-67" transform="translate(983.833984 0)"/>
    <use xlink:href="#DejaVuSans-72" transform="translate(1047.310547 0)"/>
    <use xlink:href="#DejaVuSans-65" transform="translate(1086.173828 0)"/>
    <use xlink:href="#DejaVuSans-73" transform="translate(1147.697266 0)"/>
    <use xlink:href="#DejaVuSans-73" transform="translate(1199.796875 0)"/>
    <use xlink:href="#DejaVuSans-69" transform="translate(1251.896484 0)"/>
    <use xlink:href="#DejaVuSans-76" transform="translate(1279.679688 0)"/>
    <use xlink:href="#DejaVuSans-61" transform="translate(1338.859375 0)"/>
    <use xlink:href="#DejaVuSans-6d" transform="translate(1400.138672 0)"/>
    <use xlink:href="#DejaVuSans-65" transform="translate(1497.550781 0)"/>
    <use xlink:href="#DejaVuSans-6e" transform="translate(1559.074219 0)"/>
    <use xlink:href="#DejaVuSans-74" transform="translate(1622.453125 0)"/>
    <use xlink:href="#DejaVuSans-65" transform="translate(1661.662109 0)"/>
    <use xlink:href="#DejaVuSans-20" transform="translate(1723.185547 0)"/>
    <use xlink:href="#DejaVuSans-69" transform="translate(1754.972656 0)"/>
    <use xlink:href="#DejaVuSans-6c" transform="translate(1782.755859 0)"/>
    <use xlink:href="#DejaVuSans-20" transform="translate(1810.539062 0)"/>
    <use xlink:href="#DejaVuSans-76" transform="translate(1842.326172 0)"/>
    <use xlink:href="#DejaVuSans-65" transform="translate(1901.505859 0)"/>
    <use xlink:href="#DejaVuSans-74" transform="translate(1963.029297 0)"/>
    <use xlink:href="#DejaVuSans-74" transform="translate(2002.238281 0)"/>
    <use xlink:href="#DejaVuSans-6f" transform="translate(2041.447266 0)"/>
    <use xlink:href="#DejaVuSans-72" transform="translate(2102.628906 0)"/>
    <use xlink:href="#DejaVuSans-65" transform="translate(2141.492188 0)"/>
    <use xlink:href="#DejaVuSans-20" transform="translate(2203.015625 0)"/>
    <use xlink:href="#DejaVuSans-64" transform="translate(2234.802734 0)"/>
    <use xlink:href="#DejaVuSans-27" transform="translate(2298.279297 0)"/>
    <use xlink:href="#DejaVuSans-6f" transform="translate(2325.769531 0)"/>
    <use xlink:href="#DejaVuSans-6e" transform="translate(2386.951172 0)"/>
    <use xlink:href="#DejaVuSans-64" transform="translate(2450.330078 0)"/>
    <use xlink:href="#DejaVuSans-61" transform="translate(2513.806641 0)"/>
    <use xlink:href="#DejaVuSans-3b" transform="translate(2575.085938 0)"/>
    <use xlink:href="#DejaVuSans-20" transform="translate(2608.777344 0)"/>
    <use xlink:href="#DejaVuSans-72" transform="translate(2640.564453 0)"/>
    <use xlink:href="#DejaVuSans-61" transform="translate(2681.677734 0)"/>
    <use xlink:href="#DejaVuSans-67" transform="translate(2742.957031 0)"/>
    <use xlink:href="#DejaVuSans-67" transform="translate(2806.433594 0)"/>
    <use xlink:href="#DejaVuSans-69" transform="translate(2869.910156 0)"/>
    <use xlink:href="#DejaVuSans-75" transform="translate(2897.693359 0)"/>
    <use xlink:href="#DejaVuSans-6e" transform="translate(2961.072266 0)"/>
    <use xlink:href="#DejaVuSans-74" transform="translate(3024.451172 0)"/>
    <use xlink:href="#DejaVuSans-6f" transform="translate(3063.660156 0)"/>
    <use xlink:href="#DejaVuSans-20" transform="translate(3124.841797 0)"/>
    <use xlink:href="#DejaVuSans-75" transform="translate(3156.628906 0)"/>
    <use xlink:href="#DejaVuSans-6e" transform="translate(3220.007812 0)"/>
    <use xlink:href="#DejaVuSans-20" transform="translate(3283.386719 0)"/>
    <use xlink:href="#DejaVuSans-62" transform="translate(3315.173828 0)"/>
    <use xlink:href="#DejaVuSans-6f" transform="translate(3378.650391 0)"/>
    <use xlink:href="#DejaVuSans-72" transform="translate(3439.832031 0)"/>
    <use xlink:href="#DejaVuSans-64" transform="translate(3479.195312 0)"/>
    <use xlink:href="#DejaVuSans-6f" transform="translate(3542.671875 0)"/>
    <use xlink:href="#DejaVuSans-20" transform="translate(3603.853516 0)"/>
    <use xlink:href="#DejaVuSans-64" transform="translate(3635.640625 0)"/>
    <use xlink:href="#DejaVuSans-65" transform="translate(3699.117188 0)"/>
    <use xlink:href="#DejaVuSans-6c" transform="translate(3760.640625 0)"/>
    <use xlink:href="#DejaVuSans-6c" transform="translate(3788.423828 0)"/>
    <use xlink:href="#DejaVuSans-61" transform="translate(3816.207031 0)"/>
    <use xlink:href="#DejaVuSans-20" transform="translate(3877.486328 0)"/>
    <use xlink:href="#DejaVuSans-7a" transform="translate(3909.273438 0)"/>
    <use xlink:href="#DejaVuSans-6f" transform="translate(3961.763672 0)"/>
    <use xlink:href="#DejaVuSans-6e" transform="translate(4022.945312 0)"/>
    <use xlink:href="#DejaVuSans-61" transform="translate(4086.324219 0)"/>
    <use xlink:href="#DejaVuSans-2c" transform="translate(4147.603516 0)"/>
    <use xlink:href="#DejaVuSans-20" transform="translate(4179.390625 0)"/>
    <use xlink:href="#DejaVuSans-6c" transform="translate(4211.177734 0)"/>
    <use xlink:href="#DejaVuSans-6f" transform="translate(4238.960938 0)"/>
    <use xlink:href="#DejaVuSans-20" transform="translate(4300.142578 0)"/>
    <use xlink:href="#DejaVuSans-73" transform="translate(4331.929688 0)"/>
    <use xlink:href="#DejaVuSans-74" transform="translate(4384.029297 0)"/>
    <use xlink:href="#DejaVuSans-61" transform="translate(4423.238281 0)"/>
    <use xlink:href="#DejaVuSans-74" transform="translate(4484.517578 0)"/>
    <use xlink:href="#DejaVuSans-6f" transform="translate(4523.726562 0)"/>
    <use xlink:href="#DejaVuSans-20" transform="translate(4584.908203 0)"/>
    <use xlink:href="#DejaVuSans-72" transform="translate(4616.695312 0)"/>
    <use xlink:href="#DejaVuSans-69" transform="translate(4657.808594 0)"/>
    <use xlink:href="#DejaVuSans-61" transform="translate(4685.591797 0)"/>
    <use xlink:href="#DejaVuSans-70" transform="translate(4746.871094 0)"/>
    <use xlink:href="#DejaVuSans-70" transform="translate(4810.347656 0)"/>
    <use xlink:href="#DejaVuSans-61" transform="translate(4873.824219 0)"/>
    <use xlink:href="#DejaVuSans-72" transform="translate(4935.103516 0)"/>
    <use xlink:href="#DejaVuSans-65" transform="translate(4973.966797 0)"/>
    <use xlink:href="#DejaVuSans-20" transform="translate(5035.490234 0)"/>
    <use xlink:href="#DejaVuSans-61" transform="translate(5067.277344 0)"/>
    <use xlink:href="#DejaVuSans-6c" transform="translate(5128.556641 0)"/>
    <use xlink:href="#DejaVuSans-20" transform="translate(5156.339844 0)"/>
    <use xlink:href="#DejaVuSans-62" transform="translate(5188.126953 0)"/>
    <use xlink:href="#DejaVuSans-6f" transform="translate(5251.603516 0)"/>
    <use xlink:href="#DejaVuSans-72" transform="translate(5312.785156 0)"/>
    <use xlink:href="#DejaVuSans-64" transform="translate(5352.148438 0)"/>
    <use xlink:href="#DejaVuSans-6f" transform="translate(5415.625 0)"/>
    <use xlink:href="#DejaVuSans-20" transform="translate(5476.806641 0)"/>
    <use xlink:href="#DejaVuSans-6f" transform="translate(5508.59375 0)"/>
    <use xlink:href="#DejaVuSans-70" transform="translate(5569.775391 0)"/>
    <use xlink:href="#DejaVuSans-70" transform="translate(5633.251953 0)"/>
    <use xlink:href="#DejaVuSans-6f" transform="translate(5696.728516 0)"/>
    <use xlink:href="#DejaVuSans-73" transform="translate(5757.910156 0)"/>
    <use xlink:href="#DejaVuSans-74" transform="translate(5810.009766 0)"/>
    <use xlink:href="#DejaVuSans-6f" transform="translate(5849.21875 0)"/>
    <use xlink:href="#DejaVuSans-2e" transform="translate(5908.650391 0)"/>
   </g>
  </g>
 </g>
 <defs>
  <clipPath id="p924260fc22">
   <rect x="23.423437" y="30.597656" width="580.32" height="342.792"/>
  </clipPath>
 </defs>
</svg>
