<?xml version="1.0" encoding="utf-8" standalone="no"?>
<!DOCTYPE svg PUBLIC "-//W3C//DTD SVG 1.1//EN"
  "http://www.w3.org/Graphics/SVG/1.1/DTD/svg11.dtd">
<svg xmlns:xlink="http://www.w3.org/1999/xlink" width="786.572187pt" height="456.543687pt" viewBox="0 0 786.572187 456.543687" xmlns="http://www.w3.org/2000/svg" version="1.1">
 <metadata>
  <rdf:RDF xmlns:dc="http://purl.org/dc/elements/1.1/" xmlns:cc="http://creativecommons.org/ns#" xmlns:rdf="http://www.w3.org/1999/02/22-rdf-syntax-ns#">
   <cc:Work>
    <dc:type rdf:resource="http://purl.org/dc/dcmitype/StillImage"/>
    <dc:date>2026-06-16T12:05:00.498984</dc:date>
    <dc:format>image/svg+xml</dc:format>
    <dc:creator>
     <cc:Agent>
      <dc:title>Matplotlib v3.10.8, https://matplotlib.org/</dc:title>
     </cc:Agent>
    </dc:creator>
   </cc:Work>
  </rdf:RDF>
 </metadata>
 <defs>
  <style type="text/css">*{stroke-linejoin: round; stroke-linecap: butt}</style>
 </defs>
 <g id="figure_1">
  <g id="patch_1">
   <path d="M 0 456.543687 
L 786.572187 456.543687 
L 786.572187 0 
L 0 0 
z
" style="fill: #ffffff"/>
  </g>
  <g id="axes_1">
   <g id="patch_2">
    <path d="M 42.642188 408.096 
L 394.182187 408.096 
L 394.182187 53.28 
L 42.642188 53.28 
z
" style="fill: #ffffff"/>
   </g>
   <g id="matplotlib.axis_1">
    <g id="xtick_1">
     <g id="line2d_1">
      <path d="M 55.662188 408.096 
L 55.662188 53.28 
" clip-path="url(#p7789451db5)" style="fill: none; stroke: #b0b0b0; stroke-opacity: 0.14; stroke-width: 0.8; stroke-linecap: square"/>
     </g>
     <g id="line2d_2">
      <defs>
       <path id="m5aaadd6339" d="M 0 0 
L 0 3.5 
" style="stroke: #000000; stroke-width: 0.8"/>
      </defs>
      <g>
       <use xlink:href="#m5aaadd6339" x="55.662188" y="408.096" style="stroke: #000000; stroke-width: 0.8"/>
      </g>
     </g>
     <g id="text_1">
      <!-- $-\pi/a$ -->
      <g transform="translate(43.712188 422.694437) scale(0.1 -0.1)">
       <defs>
        <path id="DejaVuSans-2212" d="M 678 2272 
L 4684 2272 
L 4684 1741 
L 678 1741 
L 678 2272 
z
" transform="scale(0.015625)"/>
        <path id="DejaVuSans-Oblique-3c0" d="M 584 3500 
L 3938 3500 
L 3825 2925 
L 3384 2925 
L 2966 775 
Q 2922 550 2981 450 
Q 3038 353 3209 353 
Q 3256 353 3325 363 
Q 3397 369 3419 372 
L 3338 -44 
Q 3222 -84 3103 -103 
Q 2981 -122 2866 -122 
Q 2491 -122 2388 81 
Q 2284 288 2391 838 
L 2797 2925 
L 1506 2925 
L 938 0 
L 350 0 
L 919 2925 
L 472 2925 
L 584 3500 
z
" transform="scale(0.015625)"/>
        <path id="DejaVuSans-2f" d="M 1625 4666 
L 2156 4666 
L 531 -594 
L 0 -594 
L 1625 4666 
z
" transform="scale(0.015625)"/>
        <path id="DejaVuSans-Oblique-61" d="M 3438 1997 
L 3047 0 
L 2472 0 
L 2578 531 
Q 2325 219 2001 64 
Q 1678 -91 1281 -91 
Q 834 -91 548 182 
Q 263 456 263 884 
Q 263 1497 752 1853 
Q 1241 2209 2100 2209 
L 2900 2209 
L 2931 2363 
Q 2938 2388 2941 2417 
Q 2944 2447 2944 2509 
Q 2944 2788 2717 2942 
Q 2491 3097 2081 3097 
Q 1800 3097 1504 3025 
Q 1209 2953 897 2809 
L 997 3341 
Q 1322 3463 1633 3523 
Q 1944 3584 2234 3584 
Q 2853 3584 3176 3315 
Q 3500 3047 3500 2534 
Q 3500 2431 3484 2292 
Q 3469 2153 3438 1997 
z
M 2816 1759 
L 2241 1759 
Q 1534 1759 1195 1570 
Q 856 1381 856 984 
Q 856 709 1029 553 
Q 1203 397 1509 397 
Q 1978 397 2328 733 
Q 2678 1069 2791 1631 
L 2816 1759 
z
" transform="scale(0.015625)"/>
       </defs>
       <use xlink:href="#DejaVuSans-2212" transform="translate(0 0.09375)"/>
       <use xlink:href="#DejaVuSans-Oblique-3c0" transform="translate(83.789062 0.09375)"/>
       <use xlink:href="#DejaVuSans-2f" transform="translate(143.994141 0.09375)"/>
       <use xlink:href="#DejaVuSans-Oblique-61" transform="translate(177.685547 0.09375)"/>
      </g>
     </g>
    </g>
    <g id="xtick_2">
     <g id="line2d_3">
      <path d="M 218.412188 408.096 
L 218.412188 53.28 
" clip-path="url(#p7789451db5)" style="fill: none; stroke: #b0b0b0; stroke-opacity: 0.14; stroke-width: 0.8; stroke-linecap: square"/>
     </g>
     <g id="line2d_4">
      <g>
       <use xlink:href="#m5aaadd6339" x="218.412188" y="408.096" style="stroke: #000000; stroke-width: 0.8"/>
      </g>
     </g>
     <g id="text_2">
      <!-- $0$ -->
      <g transform="translate(215.212188 422.694437) scale(0.1 -0.1)">
       <defs>
        <path id="DejaVuSans-30" d="M 2034 4250 
Q 1547 4250 1301 3770 
Q 1056 3291 1056 2328 
Q 1056 1369 1301 889 
Q 1547 409 2034 409 
Q 2525 409 2770 889 
Q 3016 1369 3016 2328 
Q 3016 3291 2770 3770 
Q 2525 4250 2034 4250 
z
M 2034 4750 
Q 2819 4750 3233 4129 
Q 3647 3509 3647 2328 
Q 3647 1150 3233 529 
Q 2819 -91 2034 -91 
Q 1250 -91 836 529 
Q 422 1150 422 2328 
Q 422 3509 836 4129 
Q 1250 4750 2034 4750 
z
" transform="scale(0.015625)"/>
       </defs>
       <use xlink:href="#DejaVuSans-30" transform="translate(0 0.78125)"/>
      </g>
     </g>
    </g>
    <g id="xtick_3">
     <g id="line2d_5">
      <path d="M 381.162187 408.096 
L 381.162187 53.28 
" clip-path="url(#p7789451db5)" style="fill: none; stroke: #b0b0b0; stroke-opacity: 0.14; stroke-width: 0.8; stroke-linecap: square"/>
     </g>
     <g id="line2d_6">
      <g>
       <use xlink:href="#m5aaadd6339" x="381.162187" y="408.096" style="stroke: #000000; stroke-width: 0.8"/>
      </g>
     </g>
     <g id="text_3">
      <!-- $+\pi/a$ -->
      <g transform="translate(369.212187 422.694437) scale(0.1 -0.1)">
       <defs>
        <path id="DejaVuSans-2b" d="M 2944 4013 
L 2944 2272 
L 4684 2272 
L 4684 1741 
L 2944 1741 
L 2944 0 
L 2419 0 
L 2419 1741 
L 678 1741 
L 678 2272 
L 2419 2272 
L 2419 4013 
L 2944 4013 
z
" transform="scale(0.015625)"/>
       </defs>
       <use xlink:href="#DejaVuSans-2b" transform="translate(0 0.09375)"/>
       <use xlink:href="#DejaVuSans-Oblique-3c0" transform="translate(83.789062 0.09375)"/>
       <use xlink:href="#DejaVuSans-2f" transform="translate(143.994141 0.09375)"/>
       <use xlink:href="#DejaVuSans-Oblique-61" transform="translate(177.685547 0.09375)"/>
      </g>
     </g>
    </g>
    <g id="text_4">
     <!-- vettore d'onda $k$ -->
     <g transform="translate(177.162188 436.372562) scale(0.1 -0.1)">
      <defs>
       <path id="DejaVuSans-76" d="M 191 3500 
L 800 3500 
L 1894 563 
L 2988 3500 
L 3597 3500 
L 2284 0 
L 1503 0 
L 191 3500 
z
" transform="scale(0.015625)"/>
       <path id="DejaVuSans-65" d="M 3597 1894 
L 3597 1613 
L 953 1613 
Q 991 1019 1311 708 
Q 1631 397 2203 397 
Q 2534 397 2845 478 
Q 3156 559 3463 722 
L 3463 178 
Q 3153 47 2828 -22 
Q 2503 -91 2169 -91 
Q 1331 -91 842 396 
Q 353 884 353 1716 
Q 353 2575 817 3079 
Q 1281 3584 2069 3584 
Q 2775 3584 3186 3129 
Q 3597 2675 3597 1894 
z
M 3022 2063 
Q 3016 2534 2758 2815 
Q 2500 3097 2075 3097 
Q 1594 3097 1305 2825 
Q 1016 2553 972 2059 
L 3022 2063 
z
" transform="scale(0.015625)"/>
       <path id="DejaVuSans-74" d="M 1172 4494 
L 1172 3500 
L 2356 3500 
L 2356 3053 
L 1172 3053 
L 1172 1153 
Q 1172 725 1289 603 
Q 1406 481 1766 481 
L 2356 481 
L 2356 0 
L 1766 0 
Q 1100 0 847 248 
Q 594 497 594 1153 
L 594 3053 
L 172 3053 
L 172 3500 
L 594 3500 
L 594 4494 
L 1172 4494 
z
" transform="scale(0.015625)"/>
       <path id="DejaVuSans-6f" d="M 1959 3097 
Q 1497 3097 1228 2736 
Q 959 2375 959 1747 
Q 959 1119 1226 758 
Q 1494 397 1959 397 
Q 2419 397 2687 759 
Q 2956 1122 2956 1747 
Q 2956 2369 2687 2733 
Q 2419 3097 1959 3097 
z
M 1959 3584 
Q 2709 3584 3137 3096 
Q 3566 2609 3566 1747 
Q 3566 888 3137 398 
Q 2709 -91 1959 -91 
Q 1206 -91 779 398 
Q 353 888 353 1747 
Q 353 2609 779 3096 
Q 1206 3584 1959 3584 
z
" transform="scale(0.015625)"/>
       <path id="DejaVuSans-72" d="M 2631 2963 
Q 2534 3019 2420 3045 
Q 2306 3072 2169 3072 
Q 1681 3072 1420 2755 
Q 1159 2438 1159 1844 
L 1159 0 
L 581 0 
L 581 3500 
L 1159 3500 
L 1159 2956 
Q 1341 3275 1631 3429 
Q 1922 3584 2338 3584 
Q 2397 3584 2469 3576 
Q 2541 3569 2628 3553 
L 2631 2963 
z
" transform="scale(0.015625)"/>
       <path id="DejaVuSans-20" transform="scale(0.015625)"/>
       <path id="DejaVuSans-64" d="M 2906 2969 
L 2906 4863 
L 3481 4863 
L 3481 0 
L 2906 0 
L 2906 525 
Q 2725 213 2448 61 
Q 2172 -91 1784 -91 
Q 1150 -91 751 415 
Q 353 922 353 1747 
Q 353 2572 751 3078 
Q 1150 3584 1784 3584 
Q 2172 3584 2448 3432 
Q 2725 3281 2906 2969 
z
M 947 1747 
Q 947 1113 1208 752 
Q 1469 391 1925 391 
Q 2381 391 2643 752 
Q 2906 1113 2906 1747 
Q 2906 2381 2643 2742 
Q 2381 3103 1925 3103 
Q 1469 3103 1208 2742 
Q 947 2381 947 1747 
z
" transform="scale(0.015625)"/>
       <path id="DejaVuSans-27" d="M 1147 4666 
L 1147 2931 
L 616 2931 
L 616 4666 
L 1147 4666 
z
" transform="scale(0.015625)"/>
       <path id="DejaVuSans-6e" d="M 3513 2113 
L 3513 0 
L 2938 0 
L 2938 2094 
Q 2938 2591 2744 2837 
Q 2550 3084 2163 3084 
Q 1697 3084 1428 2787 
Q 1159 2491 1159 1978 
L 1159 0 
L 581 0 
L 581 3500 
L 1159 3500 
L 1159 2956 
Q 1366 3272 1645 3428 
Q 1925 3584 2291 3584 
Q 2894 3584 3203 3211 
Q 3513 2838 3513 2113 
z
" transform="scale(0.015625)"/>
       <path id="DejaVuSans-61" d="M 2194 1759 
Q 1497 1759 1228 1600 
Q 959 1441 959 1056 
Q 959 750 1161 570 
Q 1363 391 1709 391 
Q 2188 391 2477 730 
Q 2766 1069 2766 1631 
L 2766 1759 
L 2194 1759 
z
M 3341 1997 
L 3341 0 
L 2766 0 
L 2766 531 
Q 2569 213 2275 61 
Q 1981 -91 1556 -91 
Q 1019 -91 701 211 
Q 384 513 384 1019 
Q 384 1609 779 1909 
Q 1175 2209 1959 2209 
L 2766 2209 
L 2766 2266 
Q 2766 2663 2505 2880 
Q 2244 3097 1772 3097 
Q 1472 3097 1187 3025 
Q 903 2953 641 2809 
L 641 3341 
Q 956 3463 1253 3523 
Q 1550 3584 1831 3584 
Q 2591 3584 2966 3190 
Q 3341 2797 3341 1997 
z
" transform="scale(0.015625)"/>
       <path id="DejaVuSans-Oblique-6b" d="M 1172 4863 
L 1747 4863 
L 1197 2028 
L 3169 3500 
L 3916 3500 
L 1716 1825 
L 3322 0 
L 2625 0 
L 1131 1709 
L 800 0 
L 225 0 
L 1172 4863 
z
" transform="scale(0.015625)"/>
      </defs>
      <use xlink:href="#DejaVuSans-76" transform="translate(0 0.015625)"/>
      <use xlink:href="#DejaVuSans-65" transform="translate(59.179688 0.015625)"/>
      <use xlink:href="#DejaVuSans-74" transform="translate(120.703125 0.015625)"/>
      <use xlink:href="#DejaVuSans-74" transform="translate(159.912109 0.015625)"/>
      <use xlink:href="#DejaVuSans-6f" transform="translate(199.121094 0.015625)"/>
      <use xlink:href="#DejaVuSans-72" transform="translate(260.302734 0.015625)"/>
      <use xlink:href="#DejaVuSans-65" transform="translate(301.416016 0.015625)"/>
      <use xlink:href="#DejaVuSans-20" transform="translate(362.939453 0.015625)"/>
      <use xlink:href="#DejaVuSans-64" transform="translate(394.726562 0.015625)"/>
      <use xlink:href="#DejaVuSans-27" transform="translate(458.203125 0.015625)"/>
      <use xlink:href="#DejaVuSans-6f" transform="translate(485.693359 0.015625)"/>
      <use xlink:href="#DejaVuSans-6e" transform="translate(546.875 0.015625)"/>
      <use xlink:href="#DejaVuSans-64" transform="translate(610.253906 0.015625)"/>
      <use xlink:href="#DejaVuSans-61" transform="translate(673.730469 0.015625)"/>
      <use xlink:href="#DejaVuSans-20" transform="translate(735.009766 0.015625)"/>
      <use xlink:href="#DejaVuSans-Oblique-6b" transform="translate(766.796875 0.015625)"/>
     </g>
    </g>
   </g>
   <g id="matplotlib.axis_2">
    <g id="ytick_1">
     <g id="line2d_7">
      <path d="M 42.642188 364.58083 
L 394.182187 364.58083 
" clip-path="url(#p7789451db5)" style="fill: none; stroke: #b0b0b0; stroke-opacity: 0.14; stroke-width: 0.8; stroke-linecap: square"/>
     </g>
     <g id="line2d_8">
      <defs>
       <path id="m6039f979b7" d="M 0 0 
L -3.5 0 
" style="stroke: #000000; stroke-width: 0.8"/>
      </defs>
      <g>
       <use xlink:href="#m6039f979b7" x="42.642188" y="364.58083" style="stroke: #000000; stroke-width: 0.8"/>
      </g>
     </g>
     <g id="text_5">
      <!-- −2 -->
      <g transform="translate(20.9 368.380049) scale(0.1 -0.1)">
       <defs>
        <path id="DejaVuSans-32" d="M 1228 531 
L 3431 531 
L 3431 0 
L 469 0 
L 469 531 
Q 828 903 1448 1529 
Q 2069 2156 2228 2338 
Q 2531 2678 2651 2914 
Q 2772 3150 2772 3378 
Q 2772 3750 2511 3984 
Q 2250 4219 1831 4219 
Q 1534 4219 1204 4116 
Q 875 4013 500 3803 
L 500 4441 
Q 881 4594 1212 4672 
Q 1544 4750 1819 4750 
Q 2544 4750 2975 4387 
Q 3406 4025 3406 3419 
Q 3406 3131 3298 2873 
Q 3191 2616 2906 2266 
Q 2828 2175 2409 1742 
Q 1991 1309 1228 531 
z
" transform="scale(0.015625)"/>
       </defs>
       <use xlink:href="#DejaVuSans-2212"/>
       <use xlink:href="#DejaVuSans-32" transform="translate(83.789062 0)"/>
      </g>
     </g>
    </g>
    <g id="ytick_2">
     <g id="line2d_9">
      <path d="M 42.642188 297.634415 
L 394.182187 297.634415 
" clip-path="url(#p7789451db5)" style="fill: none; stroke: #b0b0b0; stroke-opacity: 0.14; stroke-width: 0.8; stroke-linecap: square"/>
     </g>
     <g id="line2d_10">
      <g>
       <use xlink:href="#m6039f979b7" x="42.642188" y="297.634415" style="stroke: #000000; stroke-width: 0.8"/>
      </g>
     </g>
     <g id="text_6">
      <!-- −1 -->
      <g transform="translate(20.9 301.433634) scale(0.1 -0.1)">
       <defs>
        <path id="DejaVuSans-31" d="M 794 531 
L 1825 531 
L 1825 4091 
L 703 3866 
L 703 4441 
L 1819 4666 
L 2450 4666 
L 2450 531 
L 3481 531 
L 3481 0 
L 794 0 
L 794 531 
z
" transform="scale(0.015625)"/>
       </defs>
       <use xlink:href="#DejaVuSans-2212"/>
       <use xlink:href="#DejaVuSans-31" transform="translate(83.789062 0)"/>
      </g>
     </g>
    </g>
    <g id="ytick_3">
     <g id="line2d_11">
      <path d="M 42.642188 230.688 
L 394.182187 230.688 
" clip-path="url(#p7789451db5)" style="fill: none; stroke: #b0b0b0; stroke-opacity: 0.14; stroke-width: 0.8; stroke-linecap: square"/>
     </g>
     <g id="line2d_12">
      <g>
       <use xlink:href="#m6039f979b7" x="42.642188" y="230.688" style="stroke: #000000; stroke-width: 0.8"/>
      </g>
     </g>
     <g id="text_7">
      <!-- 0 -->
      <g transform="translate(29.279688 234.487219) scale(0.1 -0.1)">
       <use xlink:href="#DejaVuSans-30"/>
      </g>
     </g>
    </g>
    <g id="ytick_4">
     <g id="line2d_13">
      <path d="M 42.642188 163.741585 
L 394.182187 163.741585 
" clip-path="url(#p7789451db5)" style="fill: none; stroke: #b0b0b0; stroke-opacity: 0.14; stroke-width: 0.8; stroke-linecap: square"/>
     </g>
     <g id="line2d_14">
      <g>
       <use xlink:href="#m6039f979b7" x="42.642188" y="163.741585" style="stroke: #000000; stroke-width: 0.8"/>
      </g>
     </g>
     <g id="text_8">
      <!-- 1 -->
      <g transform="translate(29.279688 167.540804) scale(0.1 -0.1)">
       <use xlink:href="#DejaVuSans-31"/>
      </g>
     </g>
    </g>
    <g id="ytick_5">
     <g id="line2d_15">
      <path d="M 42.642188 96.79517 
L 394.182187 96.79517 
" clip-path="url(#p7789451db5)" style="fill: none; stroke: #b0b0b0; stroke-opacity: 0.14; stroke-width: 0.8; stroke-linecap: square"/>
     </g>
     <g id="line2d_16">
      <g>
       <use xlink:href="#m6039f979b7" x="42.642188" y="96.79517" style="stroke: #000000; stroke-width: 0.8"/>
      </g>
     </g>
     <g id="text_9">
      <!-- 2 -->
      <g transform="translate(29.279688 100.594389) scale(0.1 -0.1)">
       <use xlink:href="#DejaVuSans-32"/>
      </g>
     </g>
    </g>
    <g id="text_10">
     <!-- energia $E(k)$ -->
     <g transform="translate(14.8 261.238) rotate(-90) scale(0.1 -0.1)">
      <defs>
       <path id="DejaVuSans-67" d="M 2906 1791 
Q 2906 2416 2648 2759 
Q 2391 3103 1925 3103 
Q 1463 3103 1205 2759 
Q 947 2416 947 1791 
Q 947 1169 1205 825 
Q 1463 481 1925 481 
Q 2391 481 2648 825 
Q 2906 1169 2906 1791 
z
M 3481 434 
Q 3481 -459 3084 -895 
Q 2688 -1331 1869 -1331 
Q 1566 -1331 1297 -1286 
Q 1028 -1241 775 -1147 
L 775 -588 
Q 1028 -725 1275 -790 
Q 1522 -856 1778 -856 
Q 2344 -856 2625 -561 
Q 2906 -266 2906 331 
L 2906 616 
Q 2728 306 2450 153 
Q 2172 0 1784 0 
Q 1141 0 747 490 
Q 353 981 353 1791 
Q 353 2603 747 3093 
Q 1141 3584 1784 3584 
Q 2172 3584 2450 3431 
Q 2728 3278 2906 2969 
L 2906 3500 
L 3481 3500 
L 3481 434 
z
" transform="scale(0.015625)"/>
       <path id="DejaVuSans-69" d="M 603 3500 
L 1178 3500 
L 1178 0 
L 603 0 
L 603 3500 
z
M 603 4863 
L 1178 4863 
L 1178 4134 
L 603 4134 
L 603 4863 
z
" transform="scale(0.015625)"/>
       <path id="DejaVuSans-Oblique-45" d="M 1081 4666 
L 4031 4666 
L 3928 4134 
L 1606 4134 
L 1338 2753 
L 3566 2753 
L 3463 2222 
L 1234 2222 
L 909 531 
L 3284 531 
L 3181 0 
L 172 0 
L 1081 4666 
z
" transform="scale(0.015625)"/>
       <path id="DejaVuSans-28" d="M 1984 4856 
Q 1566 4138 1362 3434 
Q 1159 2731 1159 2009 
Q 1159 1288 1364 580 
Q 1569 -128 1984 -844 
L 1484 -844 
Q 1016 -109 783 600 
Q 550 1309 550 2009 
Q 550 2706 781 3412 
Q 1013 4119 1484 4856 
L 1984 4856 
z
" transform="scale(0.015625)"/>
       <path id="DejaVuSans-29" d="M 513 4856 
L 1013 4856 
Q 1481 4119 1714 3412 
Q 1947 2706 1947 2009 
Q 1947 1309 1714 600 
Q 1481 -109 1013 -844 
L 513 -844 
Q 928 -128 1133 580 
Q 1338 1288 1338 2009 
Q 1338 2731 1133 3434 
Q 928 4138 513 4856 
z
" transform="scale(0.015625)"/>
      </defs>
      <use xlink:href="#DejaVuSans-65" transform="translate(0 0.015625)"/>
      <use xlink:href="#DejaVuSans-6e" transform="translate(61.523438 0.015625)"/>
      <use xlink:href="#DejaVuSans-65" transform="translate(124.902344 0.015625)"/>
      <use xlink:href="#DejaVuSans-72" transform="translate(186.425781 0.015625)"/>
      <use xlink:href="#DejaVuSans-67" transform="translate(227.539062 0.015625)"/>
      <use xlink:href="#DejaVuSans-69" transform="translate(291.015625 0.015625)"/>
      <use xlink:href="#DejaVuSans-61" transform="translate(318.798828 0.015625)"/>
      <use xlink:href="#DejaVuSans-20" transform="translate(380.078125 0.015625)"/>
      <use xlink:href="#DejaVuSans-Oblique-45" transform="translate(411.865234 0.015625)"/>
      <use xlink:href="#DejaVuSans-28" transform="translate(475.048828 0.015625)"/>
      <use xlink:href="#DejaVuSans-Oblique-6b" transform="translate(514.0625 0.015625)"/>
      <use xlink:href="#DejaVuSans-29" transform="translate(571.972656 0.015625)"/>
     </g>
    </g>
   </g>
   <g id="line2d_17">
    <path d="M 55.662188 75.372317 
L 59.282877 75.489994 
L 62.903567 75.842452 
L 66.524256 76.42797 
L 70.144946 77.243687 
L 73.765636 78.285623 
L 77.386325 79.548688 
L 81.369084 81.186073 
L 85.351843 83.073868 
L 89.334601 85.200921 
L 93.679429 87.779412 
L 98.024256 90.609533 
L 102.731153 93.93634 
L 107.800119 97.791651 
L 113.231153 102.195015 
L 119.386325 107.466572 
L 126.989774 114.283711 
L 139.300119 125.678589 
L 150.886325 136.306601 
L 158.127705 142.659614 
L 164.282877 147.77163 
L 169.713912 152.001125 
L 174.782877 155.667908 
L 179.489774 158.798567 
L 183.834601 161.431036 
L 188.179429 163.797373 
L 192.162188 165.718483 
L 196.144946 167.390618 
L 199.765636 168.686347 
L 203.386325 169.761803 
L 207.007015 170.611735 
L 210.627705 171.231992 
L 214.248394 171.619547 
L 217.869084 171.772506 
L 221.489774 171.690123 
L 225.110463 171.372801 
L 228.731153 170.822088 
L 232.351843 170.040673 
L 235.972532 169.032373 
L 239.593222 167.80211 
L 243.575981 166.199655 
L 247.558739 164.345382 
L 251.541498 162.250247 
L 255.886325 159.704522 
L 260.231153 156.904801 
L 264.93805 153.608012 
L 270.007015 149.781359 
L 275.43805 145.404177 
L 281.593222 140.156283 
L 289.19667 133.359092 
L 300.782877 122.647363 
L 313.455291 111.003407 
L 320.69667 104.642649 
L 326.851843 99.521668 
L 332.282877 95.28255 
L 337.351843 91.605434 
L 342.058739 88.4641 
L 346.403567 85.82093 
L 350.748394 83.443159 
L 354.731153 81.510991 
L 358.713912 79.827313 
L 362.69667 78.402072 
L 366.31736 77.337777 
L 369.93805 76.499239 
L 373.558739 75.890555 
L 377.179429 75.514695 
L 380.800119 75.373494 
L 381.162187 75.372317 
L 381.162187 75.372317 
" clip-path="url(#p7789451db5)" style="fill: none; stroke: #1f77b4; stroke-width: 2.5; stroke-linecap: square"/>
   </g>
   <g id="line2d_18">
    <path d="M 55.662188 386.003683 
L 59.282877 385.886006 
L 62.903567 385.533548 
L 66.524256 384.94803 
L 70.144946 384.132313 
L 73.765636 383.090377 
L 77.386325 381.827312 
L 81.369084 380.189927 
L 85.351843 378.302132 
L 89.334601 376.175079 
L 93.679429 373.596588 
L 98.024256 370.766467 
L 102.731153 367.43966 
L 107.800119 363.584349 
L 113.231153 359.180985 
L 119.386325 353.909428 
L 126.989774 347.092289 
L 139.300119 335.697411 
L 150.886325 325.069399 
L 158.127705 318.716386 
L 164.282877 313.60437 
L 169.713912 309.374875 
L 174.782877 305.708092 
L 179.489774 302.577433 
L 183.834601 299.944964 
L 188.179429 297.578627 
L 192.162188 295.657517 
L 196.144946 293.985382 
L 199.765636 292.689653 
L 203.386325 291.614197 
L 207.007015 290.764265 
L 210.627705 290.144008 
L 214.248394 289.756453 
L 217.869084 289.603494 
L 221.489774 289.685877 
L 225.110463 290.003199 
L 228.731153 290.553912 
L 232.351843 291.335327 
L 235.972532 292.343627 
L 239.593222 293.57389 
L 243.575981 295.176345 
L 247.558739 297.030618 
L 251.541498 299.125753 
L 255.886325 301.671478 
L 260.231153 304.471199 
L 264.93805 307.767988 
L 270.007015 311.594641 
L 275.43805 315.971823 
L 281.593222 321.219717 
L 289.19667 328.016908 
L 300.782877 338.728637 
L 313.455291 350.372593 
L 320.69667 356.733351 
L 326.851843 361.854332 
L 332.282877 366.09345 
L 337.351843 369.770566 
L 342.058739 372.9119 
L 346.403567 375.55507 
L 350.748394 377.932841 
L 354.731153 379.865009 
L 358.713912 381.548687 
L 362.69667 382.973928 
L 366.31736 384.038223 
L 369.93805 384.876761 
L 373.558739 385.485445 
L 377.179429 385.861305 
L 380.800119 386.002506 
L 381.162187 386.003683 
L 381.162187 386.003683 
" clip-path="url(#p7789451db5)" style="fill: none; stroke: #ff7f0e; stroke-width: 2.5; stroke-linecap: square"/>
   </g>
   <g id="line2d_19">
    <path d="M 42.642188 230.688 
L 394.182187 230.688 
" clip-path="url(#p7789451db5)" style="fill: none; stroke: #1f77b4; stroke-width: 0.8; stroke-linecap: square"/>
   </g>
   <g id="line2d_20">
    <path d="M 55.662188 408.096 
L 55.662188 53.28 
" clip-path="url(#p7789451db5)" style="fill: none; stroke-dasharray: 0.8,1.32; stroke-dashoffset: 0; stroke: #1f77b4; stroke-width: 0.8"/>
   </g>
   <g id="line2d_21">
    <path d="M 381.162187 408.096 
L 381.162187 53.28 
" clip-path="url(#p7789451db5)" style="fill: none; stroke-dasharray: 0.8,1.32; stroke-dashoffset: 0; stroke: #1f77b4; stroke-width: 0.8"/>
   </g>
   <g id="LineCollection_1">
    <path d="M 55.662188 171.77486 
L 381.162187 171.77486 
" clip-path="url(#p7789451db5)" style="fill: none; stroke-dasharray: 2.96,1.28; stroke-dashoffset: 0; stroke: #1f77b4; stroke-width: 0.8"/>
    <path d="M 55.662188 75.372317 
L 381.162187 75.372317 
" clip-path="url(#p7789451db5)" style="fill: none; stroke-dasharray: 2.96,1.28; stroke-dashoffset: 0; stroke: #1f77b4; stroke-width: 0.8"/>
    <path d="M 55.662188 386.003683 
L 381.162187 386.003683 
" clip-path="url(#p7789451db5)" style="fill: none; stroke-dasharray: 2.96,1.28; stroke-dashoffset: 0; stroke: #1f77b4; stroke-width: 0.8"/>
    <path d="M 55.662188 289.60114 
L 381.162187 289.60114 
" clip-path="url(#p7789451db5)" style="fill: none; stroke-dasharray: 2.96,1.28; stroke-dashoffset: 0; stroke: #1f77b4; stroke-width: 0.8"/>
   </g>
   <g id="patch_3">
    <path d="M 42.642188 408.096 
L 42.642188 53.28 
" style="fill: none; stroke: #000000; stroke-width: 0.8; stroke-linejoin: miter; stroke-linecap: square"/>
   </g>
   <g id="patch_4">
    <path d="M 394.182187 408.096 
L 394.182187 53.28 
" style="fill: none; stroke: #000000; stroke-width: 0.8; stroke-linejoin: miter; stroke-linecap: square"/>
   </g>
   <g id="patch_5">
    <path d="M 42.642188 408.096 
L 394.182187 408.096 
" style="fill: none; stroke: #000000; stroke-width: 0.8; stroke-linejoin: miter; stroke-linecap: square"/>
   </g>
   <g id="patch_6">
    <path d="M 42.642188 53.28 
L 394.182187 53.28 
" style="fill: none; stroke: #000000; stroke-width: 0.8; stroke-linejoin: miter; stroke-linecap: square"/>
   </g>
   <g id="text_11">
    <!-- $E_c-2\delta$ -->
    <g transform="translate(342.972187 167.758075) scale(0.09 -0.09)">
     <defs>
      <path id="DejaVuSans-Oblique-63" d="M 3431 3366 
L 3316 2797 
Q 3109 2947 2876 3022 
Q 2644 3097 2394 3097 
Q 2119 3097 1870 3000 
Q 1622 2903 1453 2725 
Q 1184 2453 1037 2087 
Q 891 1722 891 1331 
Q 891 859 1127 628 
Q 1363 397 1844 397 
Q 2081 397 2348 469 
Q 2616 541 2906 684 
L 2797 116 
Q 2547 13 2283 -39 
Q 2019 -91 1741 -91 
Q 1044 -91 669 257 
Q 294 606 294 1253 
Q 294 1797 489 2255 
Q 684 2713 1069 3078 
Q 1331 3328 1684 3456 
Q 2038 3584 2456 3584 
Q 2700 3584 2940 3529 
Q 3181 3475 3431 3366 
z
" transform="scale(0.015625)"/>
      <path id="DejaVuSans-Oblique-3b4" d="M 3472 4053 
Q 3197 4272 2450 4272 
Q 1659 4272 1588 3906 
Q 1531 3619 2328 3469 
Q 2953 3353 3253 3003 
Q 3616 2581 3447 1716 
Q 3284 888 2763 400 
Q 2238 -91 1488 -91 
Q 741 -91 406 400 
Q 72 888 241 1747 
Q 363 2384 891 2900 
Q 1097 3100 1353 3213 
Q 913 3459 1000 3900 
Q 1166 4750 2544 4750 
Q 3234 4750 3566 4531 
L 3472 4053 
z
M 1753 3056 
Q 1525 2966 1306 2738 
Q 969 2384 847 1747 
Q 722 1113 919 756 
Q 1119 397 1584 397 
Q 2044 397 2381 759 
Q 2722 1122 2838 1716 
Q 2956 2338 2731 2638 
Q 2491 2959 2103 2994 
Q 1906 3013 1753 3056 
z
" transform="scale(0.015625)"/>
     </defs>
     <use xlink:href="#DejaVuSans-Oblique-45" transform="translate(0 0.78125)"/>
     <use xlink:href="#DejaVuSans-Oblique-63" transform="translate(63.183594 -15.625) scale(0.7)"/>
     <use xlink:href="#DejaVuSans-2212" transform="translate(123.886719 0.78125)"/>
     <use xlink:href="#DejaVuSans-32" transform="translate(227.158203 0.78125)"/>
     <use xlink:href="#DejaVuSans-Oblique-3b4" transform="translate(290.78125 0.78125)"/>
    </g>
   </g>
   <g id="text_12">
    <!-- $E_c+2\delta$ -->
    <g transform="translate(342.972187 71.355532) scale(0.09 -0.09)">
     <use xlink:href="#DejaVuSans-Oblique-45" transform="translate(0 0.78125)"/>
     <use xlink:href="#DejaVuSans-Oblique-63" transform="translate(63.183594 -15.625) scale(0.7)"/>
     <use xlink:href="#DejaVuSans-2b" transform="translate(123.886719 0.78125)"/>
     <use xlink:href="#DejaVuSans-32" transform="translate(227.158203 0.78125)"/>
     <use xlink:href="#DejaVuSans-Oblique-3b4" transform="translate(290.78125 0.78125)"/>
    </g>
   </g>
   <g id="text_13">
    <!-- $E_v+2\gamma$ -->
    <g transform="translate(342.882187 285.584355) scale(0.09 -0.09)">
     <defs>
      <path id="DejaVuSans-Oblique-76" d="M 459 3500 
L 1069 3500 
L 1581 525 
L 3256 3500 
L 3866 3500 
L 1875 0 
L 1100 0 
L 459 3500 
z
" transform="scale(0.015625)"/>
      <path id="DejaVuSans-Oblique-3b3" d="M 1491 2950 
L 1838 788 
L 3456 3500 
L 4066 3500 
L 1972 0 
L 1713 -1331 
L 1138 -1331 
L 1397 0 
L 988 2613 
Q 925 3006 628 3006 
L 475 3006 
L 569 3500 
L 788 3500 
Q 1403 3500 1491 2950 
z
" transform="scale(0.015625)"/>
     </defs>
     <use xlink:href="#DejaVuSans-Oblique-45" transform="translate(0 0.78125)"/>
     <use xlink:href="#DejaVuSans-Oblique-76" transform="translate(63.183594 -15.625) scale(0.7)"/>
     <use xlink:href="#DejaVuSans-2b" transform="translate(126.826172 0.78125)"/>
     <use xlink:href="#DejaVuSans-32" transform="translate(230.097656 0.78125)"/>
     <use xlink:href="#DejaVuSans-Oblique-3b3" transform="translate(293.720703 0.78125)"/>
    </g>
   </g>
   <g id="text_14">
    <!-- $E_v-2\gamma$ -->
    <g transform="translate(342.882187 381.986898) scale(0.09 -0.09)">
     <use xlink:href="#DejaVuSans-Oblique-45" transform="translate(0 0.78125)"/>
     <use xlink:href="#DejaVuSans-Oblique-76" transform="translate(63.183594 -15.625) scale(0.7)"/>
     <use xlink:href="#DejaVuSans-2212" transform="translate(126.826172 0.78125)"/>
     <use xlink:href="#DejaVuSans-32" transform="translate(230.097656 0.78125)"/>
     <use xlink:href="#DejaVuSans-Oblique-3b3" transform="translate(293.720703 0.78125)"/>
    </g>
   </g>
   <g id="text_15">
    <!-- dispersione delle bande -->
    <g transform="translate(140.747656 47.28) scale(0.115 -0.115)">
     <defs>
      <path id="DejaVuSans-Bold-64" d="M 2919 2988 
L 2919 4863 
L 4044 4863 
L 4044 0 
L 2919 0 
L 2919 506 
Q 2688 197 2409 53 
Q 2131 -91 1766 -91 
Q 1119 -91 703 423 
Q 288 938 288 1747 
Q 288 2556 703 3070 
Q 1119 3584 1766 3584 
Q 2128 3584 2408 3439 
Q 2688 3294 2919 2988 
z
M 2181 722 
Q 2541 722 2730 984 
Q 2919 1247 2919 1747 
Q 2919 2247 2730 2509 
Q 2541 2772 2181 2772 
Q 1825 2772 1636 2509 
Q 1447 2247 1447 1747 
Q 1447 1247 1636 984 
Q 1825 722 2181 722 
z
" transform="scale(0.015625)"/>
      <path id="DejaVuSans-Bold-69" d="M 538 3500 
L 1656 3500 
L 1656 0 
L 538 0 
L 538 3500 
z
M 538 4863 
L 1656 4863 
L 1656 3950 
L 538 3950 
L 538 4863 
z
" transform="scale(0.015625)"/>
      <path id="DejaVuSans-Bold-73" d="M 3272 3391 
L 3272 2541 
Q 2913 2691 2578 2766 
Q 2244 2841 1947 2841 
Q 1628 2841 1473 2761 
Q 1319 2681 1319 2516 
Q 1319 2381 1436 2309 
Q 1553 2238 1856 2203 
L 2053 2175 
Q 2913 2066 3209 1816 
Q 3506 1566 3506 1031 
Q 3506 472 3093 190 
Q 2681 -91 1863 -91 
Q 1516 -91 1145 -36 
Q 775 19 384 128 
L 384 978 
Q 719 816 1070 734 
Q 1422 653 1784 653 
Q 2113 653 2278 743 
Q 2444 834 2444 1013 
Q 2444 1163 2330 1236 
Q 2216 1309 1875 1350 
L 1678 1375 
Q 931 1469 631 1722 
Q 331 1975 331 2491 
Q 331 3047 712 3315 
Q 1094 3584 1881 3584 
Q 2191 3584 2531 3537 
Q 2872 3491 3272 3391 
z
" transform="scale(0.015625)"/>
      <path id="DejaVuSans-Bold-70" d="M 1656 506 
L 1656 -1331 
L 538 -1331 
L 538 3500 
L 1656 3500 
L 1656 2988 
Q 1888 3294 2169 3439 
Q 2450 3584 2816 3584 
Q 3463 3584 3878 3070 
Q 4294 2556 4294 1747 
Q 4294 938 3878 423 
Q 3463 -91 2816 -91 
Q 2450 -91 2169 54 
Q 1888 200 1656 506 
z
M 2400 2772 
Q 2041 2772 1848 2508 
Q 1656 2244 1656 1747 
Q 1656 1250 1848 986 
Q 2041 722 2400 722 
Q 2759 722 2948 984 
Q 3138 1247 3138 1747 
Q 3138 2247 2948 2509 
Q 2759 2772 2400 2772 
z
" transform="scale(0.015625)"/>
      <path id="DejaVuSans-Bold-65" d="M 4031 1759 
L 4031 1441 
L 1416 1441 
Q 1456 1047 1700 850 
Q 1944 653 2381 653 
Q 2734 653 3104 758 
Q 3475 863 3866 1075 
L 3866 213 
Q 3469 63 3072 -14 
Q 2675 -91 2278 -91 
Q 1328 -91 801 392 
Q 275 875 275 1747 
Q 275 2603 792 3093 
Q 1309 3584 2216 3584 
Q 3041 3584 3536 3087 
Q 4031 2591 4031 1759 
z
M 2881 2131 
Q 2881 2450 2695 2645 
Q 2509 2841 2209 2841 
Q 1884 2841 1681 2658 
Q 1478 2475 1428 2131 
L 2881 2131 
z
" transform="scale(0.015625)"/>
      <path id="DejaVuSans-Bold-72" d="M 3138 2547 
Q 2991 2616 2845 2648 
Q 2700 2681 2553 2681 
Q 2122 2681 1889 2404 
Q 1656 2128 1656 1613 
L 1656 0 
L 538 0 
L 538 3500 
L 1656 3500 
L 1656 2925 
Q 1872 3269 2151 3426 
Q 2431 3584 2822 3584 
Q 2878 3584 2943 3579 
Q 3009 3575 3134 3559 
L 3138 2547 
z
" transform="scale(0.015625)"/>
      <path id="DejaVuSans-Bold-6f" d="M 2203 2784 
Q 1831 2784 1636 2517 
Q 1441 2250 1441 1747 
Q 1441 1244 1636 976 
Q 1831 709 2203 709 
Q 2569 709 2762 976 
Q 2956 1244 2956 1747 
Q 2956 2250 2762 2517 
Q 2569 2784 2203 2784 
z
M 2203 3584 
Q 3106 3584 3614 3096 
Q 4122 2609 4122 1747 
Q 4122 884 3614 396 
Q 3106 -91 2203 -91 
Q 1297 -91 786 396 
Q 275 884 275 1747 
Q 275 2609 786 3096 
Q 1297 3584 2203 3584 
z
" transform="scale(0.015625)"/>
      <path id="DejaVuSans-Bold-6e" d="M 4056 2131 
L 4056 0 
L 2931 0 
L 2931 347 
L 2931 1631 
Q 2931 2084 2911 2256 
Q 2891 2428 2841 2509 
Q 2775 2619 2662 2680 
Q 2550 2741 2406 2741 
Q 2056 2741 1856 2470 
Q 1656 2200 1656 1722 
L 1656 0 
L 538 0 
L 538 3500 
L 1656 3500 
L 1656 2988 
Q 1909 3294 2193 3439 
Q 2478 3584 2822 3584 
Q 3428 3584 3742 3212 
Q 4056 2841 4056 2131 
z
" transform="scale(0.015625)"/>
      <path id="DejaVuSans-Bold-20" transform="scale(0.015625)"/>
      <path id="DejaVuSans-Bold-6c" d="M 538 4863 
L 1656 4863 
L 1656 0 
L 538 0 
L 538 4863 
z
" transform="scale(0.015625)"/>
      <path id="DejaVuSans-Bold-62" d="M 2400 722 
Q 2759 722 2948 984 
Q 3138 1247 3138 1747 
Q 3138 2247 2948 2509 
Q 2759 2772 2400 2772 
Q 2041 2772 1848 2508 
Q 1656 2244 1656 1747 
Q 1656 1250 1848 986 
Q 2041 722 2400 722 
z
M 1656 2988 
Q 1888 3294 2169 3439 
Q 2450 3584 2816 3584 
Q 3463 3584 3878 3070 
Q 4294 2556 4294 1747 
Q 4294 938 3878 423 
Q 3463 -91 2816 -91 
Q 2450 -91 2169 54 
Q 1888 200 1656 506 
L 1656 0 
L 538 0 
L 538 4863 
L 1656 4863 
L 1656 2988 
z
" transform="scale(0.015625)"/>
      <path id="DejaVuSans-Bold-61" d="M 2106 1575 
Q 1756 1575 1579 1456 
Q 1403 1338 1403 1106 
Q 1403 894 1545 773 
Q 1688 653 1941 653 
Q 2256 653 2472 879 
Q 2688 1106 2688 1447 
L 2688 1575 
L 2106 1575 
z
M 3816 1997 
L 3816 0 
L 2688 0 
L 2688 519 
Q 2463 200 2181 54 
Q 1900 -91 1497 -91 
Q 953 -91 614 226 
Q 275 544 275 1050 
Q 275 1666 698 1953 
Q 1122 2241 2028 2241 
L 2688 2241 
L 2688 2328 
Q 2688 2594 2478 2717 
Q 2269 2841 1825 2841 
Q 1466 2841 1156 2769 
Q 847 2697 581 2553 
L 581 3406 
Q 941 3494 1303 3539 
Q 1666 3584 2028 3584 
Q 2975 3584 3395 3211 
Q 3816 2838 3816 1997 
z
" transform="scale(0.015625)"/>
     </defs>
     <use xlink:href="#DejaVuSans-Bold-64"/>
     <use xlink:href="#DejaVuSans-Bold-69" transform="translate(71.582031 0)"/>
     <use xlink:href="#DejaVuSans-Bold-73" transform="translate(105.859375 0)"/>
     <use xlink:href="#DejaVuSans-Bold-70" transform="translate(165.380859 0)"/>
     <use xlink:href="#DejaVuSans-Bold-65" transform="translate(236.962891 0)"/>
     <use xlink:href="#DejaVuSans-Bold-72" transform="translate(304.785156 0)"/>
     <use xlink:href="#DejaVuSans-Bold-73" transform="translate(354.101562 0)"/>
     <use xlink:href="#DejaVuSans-Bold-69" transform="translate(413.623047 0)"/>
     <use xlink:href="#DejaVuSans-Bold-6f" transform="translate(447.900391 0)"/>
     <use xlink:href="#DejaVuSans-Bold-6e" transform="translate(516.601562 0)"/>
     <use xlink:href="#DejaVuSans-Bold-65" transform="translate(587.792969 0)"/>
     <use xlink:href="#DejaVuSans-Bold-20" transform="translate(655.615234 0)"/>
     <use xlink:href="#DejaVuSans-Bold-64" transform="translate(690.429688 0)"/>
     <use xlink:href="#DejaVuSans-Bold-65" transform="translate(762.011719 0)"/>
     <use xlink:href="#DejaVuSans-Bold-6c" transform="translate(829.833984 0)"/>
     <use xlink:href="#DejaVuSans-Bold-6c" transform="translate(864.111328 0)"/>
     <use xlink:href="#DejaVuSans-Bold-65" transform="translate(898.388672 0)"/>
     <use xlink:href="#DejaVuSans-Bold-20" transform="translate(966.210938 0)"/>
     <use xlink:href="#DejaVuSans-Bold-62" transform="translate(1001.025391 0)"/>
     <use xlink:href="#DejaVuSans-Bold-61" transform="translate(1072.607422 0)"/>
     <use xlink:href="#DejaVuSans-Bold-6e" transform="translate(1140.087891 0)"/>
     <use xlink:href="#DejaVuSans-Bold-64" transform="translate(1211.279297 0)"/>
     <use xlink:href="#DejaVuSans-Bold-65" transform="translate(1282.861328 0)"/>
    </g>
   </g>
   <g id="legend_1">
    <g id="line2d_22">
     <path d="M 152.387187 66.378437 
L 162.387187 66.378437 
L 172.387187 66.378437 
" style="fill: none; stroke: #1f77b4; stroke-width: 2.5; stroke-linecap: square"/>
    </g>
    <g id="text_16">
     <!-- banda di conduzione -->
     <g transform="translate(180.387187 69.878437) scale(0.1 -0.1)">
      <defs>
       <path id="DejaVuSans-62" d="M 3116 1747 
Q 3116 2381 2855 2742 
Q 2594 3103 2138 3103 
Q 1681 3103 1420 2742 
Q 1159 2381 1159 1747 
Q 1159 1113 1420 752 
Q 1681 391 2138 391 
Q 2594 391 2855 752 
Q 3116 1113 3116 1747 
z
M 1159 2969 
Q 1341 3281 1617 3432 
Q 1894 3584 2278 3584 
Q 2916 3584 3314 3078 
Q 3713 2572 3713 1747 
Q 3713 922 3314 415 
Q 2916 -91 2278 -91 
Q 1894 -91 1617 61 
Q 1341 213 1159 525 
L 1159 0 
L 581 0 
L 581 4863 
L 1159 4863 
L 1159 2969 
z
" transform="scale(0.015625)"/>
       <path id="DejaVuSans-63" d="M 3122 3366 
L 3122 2828 
Q 2878 2963 2633 3030 
Q 2388 3097 2138 3097 
Q 1578 3097 1268 2742 
Q 959 2388 959 1747 
Q 959 1106 1268 751 
Q 1578 397 2138 397 
Q 2388 397 2633 464 
Q 2878 531 3122 666 
L 3122 134 
Q 2881 22 2623 -34 
Q 2366 -91 2075 -91 
Q 1284 -91 818 406 
Q 353 903 353 1747 
Q 353 2603 823 3093 
Q 1294 3584 2113 3584 
Q 2378 3584 2631 3529 
Q 2884 3475 3122 3366 
z
" transform="scale(0.015625)"/>
       <path id="DejaVuSans-75" d="M 544 1381 
L 544 3500 
L 1119 3500 
L 1119 1403 
Q 1119 906 1312 657 
Q 1506 409 1894 409 
Q 2359 409 2629 706 
Q 2900 1003 2900 1516 
L 2900 3500 
L 3475 3500 
L 3475 0 
L 2900 0 
L 2900 538 
Q 2691 219 2414 64 
Q 2138 -91 1772 -91 
Q 1169 -91 856 284 
Q 544 659 544 1381 
z
M 1991 3584 
L 1991 3584 
z
" transform="scale(0.015625)"/>
       <path id="DejaVuSans-7a" d="M 353 3500 
L 3084 3500 
L 3084 2975 
L 922 459 
L 3084 459 
L 3084 0 
L 275 0 
L 275 525 
L 2438 3041 
L 353 3041 
L 353 3500 
z
" transform="scale(0.015625)"/>
      </defs>
      <use xlink:href="#DejaVuSans-62"/>
      <use xlink:href="#DejaVuSans-61" transform="translate(63.476562 0)"/>
      <use xlink:href="#DejaVuSans-6e" transform="translate(124.755859 0)"/>
      <use xlink:href="#DejaVuSans-64" transform="translate(188.134766 0)"/>
      <use xlink:href="#DejaVuSans-61" transform="translate(251.611328 0)"/>
      <use xlink:href="#DejaVuSans-20" transform="translate(312.890625 0)"/>
      <use xlink:href="#DejaVuSans-64" transform="translate(344.677734 0)"/>
      <use xlink:href="#DejaVuSans-69" transform="translate(408.154297 0)"/>
      <use xlink:href="#DejaVuSans-20" transform="translate(435.9375 0)"/>
      <use xlink:href="#DejaVuSans-63" transform="translate(467.724609 0)"/>
      <use xlink:href="#DejaVuSans-6f" transform="translate(522.705078 0)"/>
      <use xlink:href="#DejaVuSans-6e" transform="translate(583.886719 0)"/>
      <use xlink:href="#DejaVuSans-64" transform="translate(647.265625 0)"/>
      <use xlink:href="#DejaVuSans-75" transform="translate(710.742188 0)"/>
      <use xlink:href="#DejaVuSans-7a" transform="translate(774.121094 0)"/>
      <use xlink:href="#DejaVuSans-69" transform="translate(826.611328 0)"/>
      <use xlink:href="#DejaVuSans-6f" transform="translate(854.394531 0)"/>
      <use xlink:href="#DejaVuSans-6e" transform="translate(915.576172 0)"/>
      <use xlink:href="#DejaVuSans-65" transform="translate(978.955078 0)"/>
     </g>
    </g>
    <g id="line2d_23">
     <path d="M 152.387187 81.056562 
L 162.387187 81.056562 
L 172.387187 81.056562 
" style="fill: none; stroke: #ff7f0e; stroke-width: 2.5; stroke-linecap: square"/>
    </g>
    <g id="text_17">
     <!-- banda di valenza -->
     <g transform="translate(180.387187 84.556562) scale(0.1 -0.1)">
      <defs>
       <path id="DejaVuSans-6c" d="M 603 4863 
L 1178 4863 
L 1178 0 
L 603 0 
L 603 4863 
z
" transform="scale(0.015625)"/>
      </defs>
      <use xlink:href="#DejaVuSans-62"/>
      <use xlink:href="#DejaVuSans-61" transform="translate(63.476562 0)"/>
      <use xlink:href="#DejaVuSans-6e" transform="translate(124.755859 0)"/>
      <use xlink:href="#DejaVuSans-64" transform="translate(188.134766 0)"/>
      <use xlink:href="#DejaVuSans-61" transform="translate(251.611328 0)"/>
      <use xlink:href="#DejaVuSans-20" transform="translate(312.890625 0)"/>
      <use xlink:href="#DejaVuSans-64" transform="translate(344.677734 0)"/>
      <use xlink:href="#DejaVuSans-69" transform="translate(408.154297 0)"/>
      <use xlink:href="#DejaVuSans-20" transform="translate(435.9375 0)"/>
      <use xlink:href="#DejaVuSans-76" transform="translate(467.724609 0)"/>
      <use xlink:href="#DejaVuSans-61" transform="translate(526.904297 0)"/>
      <use xlink:href="#DejaVuSans-6c" transform="translate(588.183594 0)"/>
      <use xlink:href="#DejaVuSans-65" transform="translate(615.966797 0)"/>
      <use xlink:href="#DejaVuSans-6e" transform="translate(677.490234 0)"/>
      <use xlink:href="#DejaVuSans-7a" transform="translate(740.869141 0)"/>
      <use xlink:href="#DejaVuSans-61" transform="translate(793.359375 0)"/>
     </g>
    </g>
   </g>
  </g>
  <g id="axes_2">
   <g id="patch_7">
    <path d="M 461.142187 408.096 
L 779.202187 408.096 
L 779.202187 53.28 
L 461.142187 53.28 
z
" style="fill: #ffffff"/>
   </g>
   <g id="matplotlib.axis_3">
    <g id="xtick_4">
     <g id="line2d_24">
      <path d="M 472.922187 408.096 
L 472.922187 53.28 
" clip-path="url(#p9f739225cd)" style="fill: none; stroke: #b0b0b0; stroke-opacity: 0.14; stroke-width: 0.8; stroke-linecap: square"/>
     </g>
     <g id="line2d_25">
      <g>
       <use xlink:href="#m5aaadd6339" x="472.922187" y="408.096" style="stroke: #000000; stroke-width: 0.8"/>
      </g>
     </g>
     <g id="text_18">
      <!-- $-\pi/a$ -->
      <g transform="translate(460.972187 422.694437) scale(0.1 -0.1)">
       <use xlink:href="#DejaVuSans-2212" transform="translate(0 0.09375)"/>
       <use xlink:href="#DejaVuSans-Oblique-3c0" transform="translate(83.789062 0.09375)"/>
       <use xlink:href="#DejaVuSans-2f" transform="translate(143.994141 0.09375)"/>
       <use xlink:href="#DejaVuSans-Oblique-61" transform="translate(177.685547 0.09375)"/>
      </g>
     </g>
    </g>
    <g id="xtick_5">
     <g id="line2d_26">
      <path d="M 620.172187 408.096 
L 620.172187 53.28 
" clip-path="url(#p9f739225cd)" style="fill: none; stroke: #b0b0b0; stroke-opacity: 0.14; stroke-width: 0.8; stroke-linecap: square"/>
     </g>
     <g id="line2d_27">
      <g>
       <use xlink:href="#m5aaadd6339" x="620.172187" y="408.096" style="stroke: #000000; stroke-width: 0.8"/>
      </g>
     </g>
     <g id="text_19">
      <!-- $0$ -->
      <g transform="translate(616.972187 422.694437) scale(0.1 -0.1)">
       <use xlink:href="#DejaVuSans-30" transform="translate(0 0.78125)"/>
      </g>
     </g>
    </g>
    <g id="xtick_6">
     <g id="line2d_28">
      <path d="M 767.422187 408.096 
L 767.422187 53.28 
" clip-path="url(#p9f739225cd)" style="fill: none; stroke: #b0b0b0; stroke-opacity: 0.14; stroke-width: 0.8; stroke-linecap: square"/>
     </g>
     <g id="line2d_29">
      <g>
       <use xlink:href="#m5aaadd6339" x="767.422187" y="408.096" style="stroke: #000000; stroke-width: 0.8"/>
      </g>
     </g>
     <g id="text_20">
      <!-- $+\pi/a$ -->
      <g transform="translate(755.472187 422.694437) scale(0.1 -0.1)">
       <use xlink:href="#DejaVuSans-2b" transform="translate(0 0.09375)"/>
       <use xlink:href="#DejaVuSans-Oblique-3c0" transform="translate(83.789062 0.09375)"/>
       <use xlink:href="#DejaVuSans-2f" transform="translate(143.994141 0.09375)"/>
       <use xlink:href="#DejaVuSans-Oblique-61" transform="translate(177.685547 0.09375)"/>
      </g>
     </g>
    </g>
    <g id="text_21">
     <!-- vettore d'onda $k$ -->
     <g transform="translate(578.922187 436.372562) scale(0.1 -0.1)">
      <use xlink:href="#DejaVuSans-76" transform="translate(0 0.015625)"/>
      <use xlink:href="#DejaVuSans-65" transform="translate(59.179688 0.015625)"/>
      <use xlink:href="#DejaVuSans-74" transform="translate(120.703125 0.015625)"/>
      <use xlink:href="#DejaVuSans-74" transform="translate(159.912109 0.015625)"/>
      <use xlink:href="#DejaVuSans-6f" transform="translate(199.121094 0.015625)"/>
      <use xlink:href="#DejaVuSans-72" transform="translate(260.302734 0.015625)"/>
      <use xlink:href="#DejaVuSans-65" transform="translate(301.416016 0.015625)"/>
      <use xlink:href="#DejaVuSans-20" transform="translate(362.939453 0.015625)"/>
      <use xlink:href="#DejaVuSans-64" transform="translate(394.726562 0.015625)"/>
      <use xlink:href="#DejaVuSans-27" transform="translate(458.203125 0.015625)"/>
      <use xlink:href="#DejaVuSans-6f" transform="translate(485.693359 0.015625)"/>
      <use xlink:href="#DejaVuSans-6e" transform="translate(546.875 0.015625)"/>
      <use xlink:href="#DejaVuSans-64" transform="translate(610.253906 0.015625)"/>
      <use xlink:href="#DejaVuSans-61" transform="translate(673.730469 0.015625)"/>
      <use xlink:href="#DejaVuSans-20" transform="translate(735.009766 0.015625)"/>
      <use xlink:href="#DejaVuSans-Oblique-6b" transform="translate(766.796875 0.015625)"/>
     </g>
    </g>
   </g>
   <g id="matplotlib.axis_4">
    <g id="ytick_6">
     <g id="line2d_30">
      <path d="M 461.142187 395.718698 
L 779.202187 395.718698 
" clip-path="url(#p9f739225cd)" style="fill: none; stroke: #b0b0b0; stroke-opacity: 0.14; stroke-width: 0.8; stroke-linecap: square"/>
     </g>
     <g id="line2d_31">
      <g>
       <use xlink:href="#m6039f979b7" x="461.142187" y="395.718698" style="stroke: #000000; stroke-width: 0.8"/>
      </g>
     </g>
     <g id="text_22">
      <!-- −0.8 -->
      <g transform="translate(429.859375 399.517916) scale(0.1 -0.1)">
       <defs>
        <path id="DejaVuSans-2e" d="M 684 794 
L 1344 794 
L 1344 0 
L 684 0 
L 684 794 
z
" transform="scale(0.015625)"/>
        <path id="DejaVuSans-38" d="M 2034 2216 
Q 1584 2216 1326 1975 
Q 1069 1734 1069 1313 
Q 1069 891 1326 650 
Q 1584 409 2034 409 
Q 2484 409 2743 651 
Q 3003 894 3003 1313 
Q 3003 1734 2745 1975 
Q 2488 2216 2034 2216 
z
M 1403 2484 
Q 997 2584 770 2862 
Q 544 3141 544 3541 
Q 544 4100 942 4425 
Q 1341 4750 2034 4750 
Q 2731 4750 3128 4425 
Q 3525 4100 3525 3541 
Q 3525 3141 3298 2862 
Q 3072 2584 2669 2484 
Q 3125 2378 3379 2068 
Q 3634 1759 3634 1313 
Q 3634 634 3220 271 
Q 2806 -91 2034 -91 
Q 1263 -91 848 271 
Q 434 634 434 1313 
Q 434 1759 690 2068 
Q 947 2378 1403 2484 
z
M 1172 3481 
Q 1172 3119 1398 2916 
Q 1625 2713 2034 2713 
Q 2441 2713 2670 2916 
Q 2900 3119 2900 3481 
Q 2900 3844 2670 4047 
Q 2441 4250 2034 4250 
Q 1625 4250 1398 4047 
Q 1172 3844 1172 3481 
z
" transform="scale(0.015625)"/>
       </defs>
       <use xlink:href="#DejaVuSans-2212"/>
       <use xlink:href="#DejaVuSans-30" transform="translate(83.789062 0)"/>
       <use xlink:href="#DejaVuSans-2e" transform="translate(147.412109 0)"/>
       <use xlink:href="#DejaVuSans-38" transform="translate(179.199219 0)"/>
      </g>
     </g>
    </g>
    <g id="ytick_7">
     <g id="line2d_32">
      <path d="M 461.142187 354.461023 
L 779.202187 354.461023 
" clip-path="url(#p9f739225cd)" style="fill: none; stroke: #b0b0b0; stroke-opacity: 0.14; stroke-width: 0.8; stroke-linecap: square"/>
     </g>
     <g id="line2d_33">
      <g>
       <use xlink:href="#m6039f979b7" x="461.142187" y="354.461023" style="stroke: #000000; stroke-width: 0.8"/>
      </g>
     </g>
     <g id="text_23">
      <!-- −0.6 -->
      <g transform="translate(429.859375 358.260242) scale(0.1 -0.1)">
       <defs>
        <path id="DejaVuSans-36" d="M 2113 2584 
Q 1688 2584 1439 2293 
Q 1191 2003 1191 1497 
Q 1191 994 1439 701 
Q 1688 409 2113 409 
Q 2538 409 2786 701 
Q 3034 994 3034 1497 
Q 3034 2003 2786 2293 
Q 2538 2584 2113 2584 
z
M 3366 4563 
L 3366 3988 
Q 3128 4100 2886 4159 
Q 2644 4219 2406 4219 
Q 1781 4219 1451 3797 
Q 1122 3375 1075 2522 
Q 1259 2794 1537 2939 
Q 1816 3084 2150 3084 
Q 2853 3084 3261 2657 
Q 3669 2231 3669 1497 
Q 3669 778 3244 343 
Q 2819 -91 2113 -91 
Q 1303 -91 875 529 
Q 447 1150 447 2328 
Q 447 3434 972 4092 
Q 1497 4750 2381 4750 
Q 2619 4750 2861 4703 
Q 3103 4656 3366 4563 
z
" transform="scale(0.015625)"/>
       </defs>
       <use xlink:href="#DejaVuSans-2212"/>
       <use xlink:href="#DejaVuSans-30" transform="translate(83.789062 0)"/>
       <use xlink:href="#DejaVuSans-2e" transform="translate(147.412109 0)"/>
       <use xlink:href="#DejaVuSans-36" transform="translate(179.199219 0)"/>
      </g>
     </g>
    </g>
    <g id="ytick_8">
     <g id="line2d_34">
      <path d="M 461.142187 313.203349 
L 779.202187 313.203349 
" clip-path="url(#p9f739225cd)" style="fill: none; stroke: #b0b0b0; stroke-opacity: 0.14; stroke-width: 0.8; stroke-linecap: square"/>
     </g>
     <g id="line2d_35">
      <g>
       <use xlink:href="#m6039f979b7" x="461.142187" y="313.203349" style="stroke: #000000; stroke-width: 0.8"/>
      </g>
     </g>
     <g id="text_24">
      <!-- −0.4 -->
      <g transform="translate(429.859375 317.002568) scale(0.1 -0.1)">
       <defs>
        <path id="DejaVuSans-34" d="M 2419 4116 
L 825 1625 
L 2419 1625 
L 2419 4116 
z
M 2253 4666 
L 3047 4666 
L 3047 1625 
L 3713 1625 
L 3713 1100 
L 3047 1100 
L 3047 0 
L 2419 0 
L 2419 1100 
L 313 1100 
L 313 1709 
L 2253 4666 
z
" transform="scale(0.015625)"/>
       </defs>
       <use xlink:href="#DejaVuSans-2212"/>
       <use xlink:href="#DejaVuSans-30" transform="translate(83.789062 0)"/>
       <use xlink:href="#DejaVuSans-2e" transform="translate(147.412109 0)"/>
       <use xlink:href="#DejaVuSans-34" transform="translate(179.199219 0)"/>
      </g>
     </g>
    </g>
    <g id="ytick_9">
     <g id="line2d_36">
      <path d="M 461.142187 271.945674 
L 779.202187 271.945674 
" clip-path="url(#p9f739225cd)" style="fill: none; stroke: #b0b0b0; stroke-opacity: 0.14; stroke-width: 0.8; stroke-linecap: square"/>
     </g>
     <g id="line2d_37">
      <g>
       <use xlink:href="#m6039f979b7" x="461.142187" y="271.945674" style="stroke: #000000; stroke-width: 0.8"/>
      </g>
     </g>
     <g id="text_25">
      <!-- −0.2 -->
      <g transform="translate(429.859375 275.744893) scale(0.1 -0.1)">
       <use xlink:href="#DejaVuSans-2212"/>
       <use xlink:href="#DejaVuSans-30" transform="translate(83.789062 0)"/>
       <use xlink:href="#DejaVuSans-2e" transform="translate(147.412109 0)"/>
       <use xlink:href="#DejaVuSans-32" transform="translate(179.199219 0)"/>
      </g>
     </g>
    </g>
    <g id="ytick_10">
     <g id="line2d_38">
      <path d="M 461.142187 230.688 
L 779.202187 230.688 
" clip-path="url(#p9f739225cd)" style="fill: none; stroke: #b0b0b0; stroke-opacity: 0.14; stroke-width: 0.8; stroke-linecap: square"/>
     </g>
     <g id="line2d_39">
      <g>
       <use xlink:href="#m6039f979b7" x="461.142187" y="230.688" style="stroke: #000000; stroke-width: 0.8"/>
      </g>
     </g>
     <g id="text_26">
      <!-- 0.0 -->
      <g transform="translate(438.239062 234.487219) scale(0.1 -0.1)">
       <use xlink:href="#DejaVuSans-30"/>
       <use xlink:href="#DejaVuSans-2e" transform="translate(63.623047 0)"/>
       <use xlink:href="#DejaVuSans-30" transform="translate(95.410156 0)"/>
      </g>
     </g>
    </g>
    <g id="ytick_11">
     <g id="line2d_40">
      <path d="M 461.142187 189.430326 
L 779.202187 189.430326 
" clip-path="url(#p9f739225cd)" style="fill: none; stroke: #b0b0b0; stroke-opacity: 0.14; stroke-width: 0.8; stroke-linecap: square"/>
     </g>
     <g id="line2d_41">
      <g>
       <use xlink:href="#m6039f979b7" x="461.142187" y="189.430326" style="stroke: #000000; stroke-width: 0.8"/>
      </g>
     </g>
     <g id="text_27">
      <!-- 0.2 -->
      <g transform="translate(438.239062 193.229544) scale(0.1 -0.1)">
       <use xlink:href="#DejaVuSans-30"/>
       <use xlink:href="#DejaVuSans-2e" transform="translate(63.623047 0)"/>
       <use xlink:href="#DejaVuSans-32" transform="translate(95.410156 0)"/>
      </g>
     </g>
    </g>
    <g id="ytick_12">
     <g id="line2d_42">
      <path d="M 461.142187 148.172651 
L 779.202187 148.172651 
" clip-path="url(#p9f739225cd)" style="fill: none; stroke: #b0b0b0; stroke-opacity: 0.14; stroke-width: 0.8; stroke-linecap: square"/>
     </g>
     <g id="line2d_43">
      <g>
       <use xlink:href="#m6039f979b7" x="461.142187" y="148.172651" style="stroke: #000000; stroke-width: 0.8"/>
      </g>
     </g>
     <g id="text_28">
      <!-- 0.4 -->
      <g transform="translate(438.239062 151.97187) scale(0.1 -0.1)">
       <use xlink:href="#DejaVuSans-30"/>
       <use xlink:href="#DejaVuSans-2e" transform="translate(63.623047 0)"/>
       <use xlink:href="#DejaVuSans-34" transform="translate(95.410156 0)"/>
      </g>
     </g>
    </g>
    <g id="ytick_13">
     <g id="line2d_44">
      <path d="M 461.142187 106.914977 
L 779.202187 106.914977 
" clip-path="url(#p9f739225cd)" style="fill: none; stroke: #b0b0b0; stroke-opacity: 0.14; stroke-width: 0.8; stroke-linecap: square"/>
     </g>
     <g id="line2d_45">
      <g>
       <use xlink:href="#m6039f979b7" x="461.142187" y="106.914977" style="stroke: #000000; stroke-width: 0.8"/>
      </g>
     </g>
     <g id="text_29">
      <!-- 0.6 -->
      <g transform="translate(438.239062 110.714195) scale(0.1 -0.1)">
       <use xlink:href="#DejaVuSans-30"/>
       <use xlink:href="#DejaVuSans-2e" transform="translate(63.623047 0)"/>
       <use xlink:href="#DejaVuSans-36" transform="translate(95.410156 0)"/>
      </g>
     </g>
    </g>
    <g id="ytick_14">
     <g id="line2d_46">
      <path d="M 461.142187 65.657302 
L 779.202187 65.657302 
" clip-path="url(#p9f739225cd)" style="fill: none; stroke: #b0b0b0; stroke-opacity: 0.14; stroke-width: 0.8; stroke-linecap: square"/>
     </g>
     <g id="line2d_47">
      <g>
       <use xlink:href="#m6039f979b7" x="461.142187" y="65.657302" style="stroke: #000000; stroke-width: 0.8"/>
      </g>
     </g>
     <g id="text_30">
      <!-- 0.8 -->
      <g transform="translate(438.239062 69.456521) scale(0.1 -0.1)">
       <use xlink:href="#DejaVuSans-30"/>
       <use xlink:href="#DejaVuSans-2e" transform="translate(63.623047 0)"/>
       <use xlink:href="#DejaVuSans-38" transform="translate(95.410156 0)"/>
      </g>
     </g>
    </g>
    <g id="text_31">
     <!-- velocità di gruppo $v=(1/\hbar)\,dE/dk$ -->
     <g transform="translate(423.759375 313.738) rotate(-90) scale(0.1 -0.1)">
      <defs>
       <path id="DejaVuSans-e0" d="M 2194 1759 
Q 1497 1759 1228 1600 
Q 959 1441 959 1056 
Q 959 750 1161 570 
Q 1363 391 1709 391 
Q 2188 391 2477 730 
Q 2766 1069 2766 1631 
L 2766 1759 
L 2194 1759 
z
M 3341 1997 
L 3341 0 
L 2766 0 
L 2766 531 
Q 2569 213 2275 61 
Q 1981 -91 1556 -91 
Q 1019 -91 701 211 
Q 384 513 384 1019 
Q 384 1609 779 1909 
Q 1175 2209 1959 2209 
L 2766 2209 
L 2766 2266 
Q 2766 2663 2505 2880 
Q 2244 3097 1772 3097 
Q 1472 3097 1187 3025 
Q 903 2953 641 2809 
L 641 3341 
Q 956 3463 1253 3523 
Q 1550 3584 1831 3584 
Q 2591 3584 2966 3190 
Q 3341 2797 3341 1997 
z
M 1403 5119 
L 2284 3950 
L 1806 3950 
L 787 5119 
L 1403 5119 
z
" transform="scale(0.015625)"/>
       <path id="DejaVuSans-70" d="M 1159 525 
L 1159 -1331 
L 581 -1331 
L 581 3500 
L 1159 3500 
L 1159 2969 
Q 1341 3281 1617 3432 
Q 1894 3584 2278 3584 
Q 2916 3584 3314 3078 
Q 3713 2572 3713 1747 
Q 3713 922 3314 415 
Q 2916 -91 2278 -91 
Q 1894 -91 1617 61 
Q 1341 213 1159 525 
z
M 3116 1747 
Q 3116 2381 2855 2742 
Q 2594 3103 2138 3103 
Q 1681 3103 1420 2742 
Q 1159 2381 1159 1747 
Q 1159 1113 1420 752 
Q 1681 391 2138 391 
Q 2594 391 2855 752 
Q 3116 1113 3116 1747 
z
" transform="scale(0.015625)"/>
       <path id="DejaVuSans-3d" d="M 678 2906 
L 4684 2906 
L 4684 2381 
L 678 2381 
L 678 2906 
z
M 678 1631 
L 4684 1631 
L 4684 1100 
L 678 1100 
L 678 1631 
z
" transform="scale(0.015625)"/>
       <path id="DejaVuSans-Oblique-127" d="M 3634 2113 
L 3225 0 
L 2650 0 
L 3056 2094 
Q 3094 2291 3094 2450 
Q 3094 2688 3006 2838 
Q 2863 3084 2475 3084 
Q 2009 3084 1681 2788 
Q 1356 2491 1256 1978 
L 872 0 
L 294 0 
L 1066 3969 
L 675 3969 
L 775 4481 
L 1166 4481 
L 1238 4863 
L 1816 4863 
L 1744 4481 
L 2844 4481 
L 2744 3969 
L 1644 3969 
L 1447 2956 
Q 1713 3272 2025 3428 
Q 2331 3584 2700 3584 
Q 3300 3584 3538 3213 
Q 3688 2975 3688 2606 
Q 3688 2381 3634 2113 
z
" transform="scale(0.015625)"/>
       <path id="DejaVuSans-Oblique-64" d="M 2675 525 
Q 2444 222 2128 65 
Q 1813 -91 1428 -91 
Q 903 -91 598 267 
Q 294 625 294 1247 
Q 294 1766 478 2236 
Q 663 2706 1013 3078 
Q 1244 3325 1534 3454 
Q 1825 3584 2144 3584 
Q 2481 3584 2739 3421 
Q 2997 3259 3138 2956 
L 3513 4863 
L 4091 4863 
L 3144 0 
L 2566 0 
L 2675 525 
z
M 891 1350 
Q 891 897 1095 644 
Q 1300 391 1663 391 
Q 1931 391 2161 520 
Q 2391 650 2566 903 
Q 2750 1166 2856 1509 
Q 2963 1853 2963 2188 
Q 2963 2622 2758 2865 
Q 2553 3109 2194 3109 
Q 1922 3109 1687 2981 
Q 1453 2853 1288 2613 
Q 1106 2353 998 2009 
Q 891 1666 891 1350 
z
" transform="scale(0.015625)"/>
      </defs>
      <use xlink:href="#DejaVuSans-76" transform="translate(0 0.015625)"/>
      <use xlink:href="#DejaVuSans-65" transform="translate(59.179688 0.015625)"/>
      <use xlink:href="#DejaVuSans-6c" transform="translate(120.703125 0.015625)"/>
      <use xlink:href="#DejaVuSans-6f" transform="translate(148.486328 0.015625)"/>
      <use xlink:href="#DejaVuSans-63" transform="translate(209.667969 0.015625)"/>
      <use xlink:href="#DejaVuSans-69" transform="translate(264.648438 0.015625)"/>
      <use xlink:href="#DejaVuSans-74" transform="translate(292.431641 0.015625)"/>
      <use xlink:href="#DejaVuSans-e0" transform="translate(331.640625 0.015625)"/>
      <use xlink:href="#DejaVuSans-20" transform="translate(392.919922 0.015625)"/>
      <use xlink:href="#DejaVuSans-64" transform="translate(424.707031 0.015625)"/>
      <use xlink:href="#DejaVuSans-69" transform="translate(488.183594 0.015625)"/>
      <use xlink:href="#DejaVuSans-20" transform="translate(515.966797 0.015625)"/>
      <use xlink:href="#DejaVuSans-67" transform="translate(547.753906 0.015625)"/>
      <use xlink:href="#DejaVuSans-72" transform="translate(611.230469 0.015625)"/>
      <use xlink:href="#DejaVuSans-75" transform="translate(652.34375 0.015625)"/>
      <use xlink:href="#DejaVuSans-70" transform="translate(715.722656 0.015625)"/>
      <use xlink:href="#DejaVuSans-70" transform="translate(779.199219 0.015625)"/>
      <use xlink:href="#DejaVuSans-6f" transform="translate(842.675781 0.015625)"/>
      <use xlink:href="#DejaVuSans-20" transform="translate(903.857422 0.015625)"/>
      <use xlink:href="#DejaVuSans-Oblique-76" transform="translate(935.644531 0.015625)"/>
      <use xlink:href="#DejaVuSans-3d" transform="translate(1014.306641 0.015625)"/>
      <use xlink:href="#DejaVuSans-28" transform="translate(1117.578125 0.015625)"/>
      <use xlink:href="#DejaVuSans-31" transform="translate(1156.591797 0.015625)"/>
      <use xlink:href="#DejaVuSans-2f" transform="translate(1220.214844 0.015625)"/>
      <use xlink:href="#DejaVuSans-Oblique-127" transform="translate(1253.90625 0.015625)"/>
      <use xlink:href="#DejaVuSans-29" transform="translate(1323.388672 0.015625)"/>
      <use xlink:href="#DejaVuSans-Oblique-64" transform="translate(1378.63802 0.015625)"/>
      <use xlink:href="#DejaVuSans-Oblique-45" transform="translate(1442.114583 0.015625)"/>
      <use xlink:href="#DejaVuSans-2f" transform="translate(1505.298176 0.015625)"/>
      <use xlink:href="#DejaVuSans-Oblique-64" transform="translate(1538.989583 0.015625)"/>
      <use xlink:href="#DejaVuSans-Oblique-6b" transform="translate(1602.466145 0.015625)"/>
     </g>
    </g>
   </g>
   <g id="line2d_48">
    <path d="M 472.922187 230.688 
L 484.387705 266.659254 
L 490.611843 285.422572 
L 495.525636 299.57078 
L 500.111843 312.096356 
L 504.042877 322.217059 
L 507.646325 330.930785 
L 511.249774 339.052316 
L 514.525636 345.881193 
L 517.473912 351.547174 
L 520.422187 356.735119 
L 523.042877 360.928677 
L 525.663567 364.715179 
L 528.284256 368.082792 
L 530.57736 370.677525 
L 532.870463 372.937258 
L 535.163567 374.856583 
L 537.129084 376.227277 
L 539.094601 377.342078 
L 541.060119 378.199025 
L 543.025636 378.796612 
L 544.991153 379.133788 
L 546.95667 379.20996 
L 548.922187 379.024994 
L 550.887705 378.579215 
L 552.853222 377.873407 
L 554.818739 376.908812 
L 556.784256 375.687124 
L 558.749774 374.210493 
L 560.715291 372.481514 
L 563.008394 370.149513 
L 565.301498 367.483775 
L 567.594601 364.490679 
L 570.215291 360.678375 
L 572.835981 356.459798 
L 575.784256 351.24474 
L 578.732532 345.552841 
L 582.008394 338.696694 
L 585.284256 331.313169 
L 588.887705 322.62527 
L 592.818739 312.529986 
L 597.07736 300.946497 
L 601.663567 287.826631 
L 607.232532 271.172976 
L 614.111843 249.838865 
L 635.404946 183.262901 
L 640.646325 167.852185 
L 645.232532 155.005351 
L 649.491153 143.721919 
L 653.422187 133.94119 
L 657.025636 125.571394 
L 660.301498 118.50013 
L 663.57736 111.976651 
L 666.525636 106.600259 
L 669.473912 101.714675 
L 672.094601 97.799635 
L 674.715291 94.299927 
L 677.008394 91.587014 
L 679.301498 89.206976 
L 681.594601 87.165507 
L 683.560119 85.688876 
L 685.525636 84.467188 
L 687.491153 83.502593 
L 689.45667 82.796785 
L 691.422187 82.351006 
L 693.387705 82.16604 
L 695.353222 82.242212 
L 697.318739 82.579388 
L 699.284256 83.176975 
L 701.249774 84.033922 
L 703.215291 85.148723 
L 705.180808 86.519417 
L 707.146325 88.143596 
L 709.439429 90.355011 
L 711.732532 92.902249 
L 714.025636 95.779213 
L 716.646325 99.462052 
L 719.267015 103.555026 
L 721.887705 108.045343 
L 724.835981 113.554377 
L 727.784256 119.526713 
L 731.060119 126.677229 
L 734.663567 135.127953 
L 738.267015 144.143209 
L 742.19805 154.559215 
L 746.784256 167.38227 
L 751.69805 181.789936 
L 757.594601 199.773524 
L 766.111843 226.536253 
L 767.422187 230.688 
L 767.422187 230.688 
" clip-path="url(#p9f739225cd)" style="fill: none; stroke: #1f77b4; stroke-width: 2.3; stroke-linecap: square"/>
   </g>
   <g id="line2d_49">
    <path d="M 472.922187 230.688 
L 484.387705 194.716746 
L 490.611843 175.953428 
L 495.525636 161.80522 
L 500.111843 149.279644 
L 504.042877 139.158941 
L 507.646325 130.445215 
L 511.249774 122.323684 
L 514.525636 115.494807 
L 517.473912 109.828826 
L 520.422187 104.640881 
L 523.042877 100.447323 
L 525.663567 96.660821 
L 528.284256 93.293208 
L 530.57736 90.698475 
L 532.870463 88.438742 
L 535.163567 86.519417 
L 537.129084 85.148723 
L 539.094601 84.033922 
L 541.060119 83.176975 
L 543.025636 82.579388 
L 544.991153 82.242212 
L 546.95667 82.16604 
L 548.922187 82.351006 
L 550.887705 82.796785 
L 552.853222 83.502593 
L 554.818739 84.467188 
L 556.784256 85.688876 
L 558.749774 87.165507 
L 560.715291 88.894486 
L 563.008394 91.226487 
L 565.301498 93.892225 
L 567.594601 96.885321 
L 570.215291 100.697625 
L 572.835981 104.916202 
L 575.784256 110.13126 
L 578.732532 115.823159 
L 582.008394 122.679306 
L 585.284256 130.062831 
L 588.887705 138.75073 
L 592.818739 148.846014 
L 597.07736 160.429503 
L 601.663567 173.549369 
L 607.232532 190.203024 
L 614.111843 211.537135 
L 635.404946 278.113099 
L 640.646325 293.523815 
L 645.232532 306.370649 
L 649.491153 317.654081 
L 653.422187 327.43481 
L 657.025636 335.804606 
L 660.301498 342.87587 
L 663.57736 349.399349 
L 666.525636 354.775741 
L 669.473912 359.661325 
L 672.094601 363.576365 
L 674.715291 367.076073 
L 677.008394 369.788986 
L 679.301498 372.169024 
L 681.594601 374.210493 
L 683.560119 375.687124 
L 685.525636 376.908812 
L 687.491153 377.873407 
L 689.45667 378.579215 
L 691.422187 379.024994 
L 693.387705 379.20996 
L 695.353222 379.133788 
L 697.318739 378.796612 
L 699.284256 378.199025 
L 701.249774 377.342078 
L 703.215291 376.227277 
L 705.180808 374.856583 
L 707.146325 373.232404 
L 709.439429 371.020989 
L 711.732532 368.473751 
L 714.025636 365.596787 
L 716.646325 361.913948 
L 719.267015 357.820974 
L 721.887705 353.330657 
L 724.835981 347.821623 
L 727.784256 341.849287 
L 731.060119 334.698771 
L 734.663567 326.248047 
L 738.267015 317.232791 
L 742.19805 306.816785 
L 746.784256 293.99373 
L 751.69805 279.586064 
L 757.594601 261.602476 
L 766.111843 234.839747 
L 767.422187 230.688 
L 767.422187 230.688 
" clip-path="url(#p9f739225cd)" style="fill: none; stroke: #ff7f0e; stroke-width: 2.3; stroke-linecap: square"/>
   </g>
   <g id="line2d_50">
    <path d="M 461.142187 230.688 
L 779.202187 230.688 
" clip-path="url(#p9f739225cd)" style="fill: none; stroke: #1f77b4; stroke-width: 0.8; stroke-linecap: square"/>
   </g>
   <g id="line2d_51">
    <path d="M 472.922187 408.096 
L 472.922187 53.28 
" clip-path="url(#p9f739225cd)" style="fill: none; stroke-dasharray: 0.8,1.32; stroke-dashoffset: 0; stroke: #1f77b4; stroke-width: 0.8"/>
   </g>
   <g id="line2d_52">
    <path d="M 767.422187 408.096 
L 767.422187 53.28 
" clip-path="url(#p9f739225cd)" style="fill: none; stroke-dasharray: 0.8,1.32; stroke-dashoffset: 0; stroke: #1f77b4; stroke-width: 0.8"/>
   </g>
   <g id="patch_8">
    <path d="M 461.142187 408.096 
L 461.142187 53.28 
" style="fill: none; stroke: #000000; stroke-width: 0.8; stroke-linejoin: miter; stroke-linecap: square"/>
   </g>
   <g id="patch_9">
    <path d="M 779.202187 408.096 
L 779.202187 53.28 
" style="fill: none; stroke: #000000; stroke-width: 0.8; stroke-linejoin: miter; stroke-linecap: square"/>
   </g>
   <g id="patch_10">
    <path d="M 461.142187 408.096 
L 779.202187 408.096 
" style="fill: none; stroke: #000000; stroke-width: 0.8; stroke-linejoin: miter; stroke-linecap: square"/>
   </g>
   <g id="patch_11">
    <path d="M 461.142187 53.28 
L 779.202187 53.28 
" style="fill: none; stroke: #000000; stroke-width: 0.8; stroke-linejoin: miter; stroke-linecap: square"/>
   </g>
   <g id="text_32">
    <!-- velocità nelle due bande -->
    <g transform="translate(540.538281 47.28) scale(0.115 -0.115)">
     <defs>
      <path id="DejaVuSans-Bold-76" d="M 97 3500 
L 1216 3500 
L 2088 1081 
L 2956 3500 
L 4078 3500 
L 2700 0 
L 1472 0 
L 97 3500 
z
" transform="scale(0.015625)"/>
      <path id="DejaVuSans-Bold-63" d="M 3366 3391 
L 3366 2478 
Q 3138 2634 2908 2709 
Q 2678 2784 2431 2784 
Q 1963 2784 1702 2511 
Q 1441 2238 1441 1747 
Q 1441 1256 1702 982 
Q 1963 709 2431 709 
Q 2694 709 2930 787 
Q 3166 866 3366 1019 
L 3366 103 
Q 3103 6 2833 -42 
Q 2563 -91 2291 -91 
Q 1344 -91 809 395 
Q 275 881 275 1747 
Q 275 2613 809 3098 
Q 1344 3584 2291 3584 
Q 2566 3584 2833 3536 
Q 3100 3488 3366 3391 
z
" transform="scale(0.015625)"/>
      <path id="DejaVuSans-Bold-74" d="M 1759 4494 
L 1759 3500 
L 2913 3500 
L 2913 2700 
L 1759 2700 
L 1759 1216 
Q 1759 972 1856 886 
Q 1953 800 2241 800 
L 2816 800 
L 2816 0 
L 1856 0 
Q 1194 0 917 276 
Q 641 553 641 1216 
L 641 2700 
L 84 2700 
L 84 3500 
L 641 3500 
L 641 4494 
L 1759 4494 
z
" transform="scale(0.015625)"/>
      <path id="DejaVuSans-Bold-e0" d="M 2106 1575 
Q 1756 1575 1579 1456 
Q 1403 1338 1403 1106 
Q 1403 894 1545 773 
Q 1688 653 1941 653 
Q 2256 653 2472 879 
Q 2688 1106 2688 1447 
L 2688 1575 
L 2106 1575 
z
M 3816 1997 
L 3816 0 
L 2688 0 
L 2688 519 
Q 2463 200 2181 54 
Q 1900 -91 1497 -91 
Q 953 -91 614 226 
Q 275 544 275 1050 
Q 275 1666 698 1953 
Q 1122 2241 2028 2241 
L 2688 2241 
L 2688 2328 
Q 2688 2594 2478 2717 
Q 2269 2841 1825 2841 
Q 1466 2841 1156 2769 
Q 847 2697 581 2553 
L 581 3406 
Q 941 3494 1303 3539 
Q 1666 3584 2028 3584 
Q 2975 3584 3395 3211 
Q 3816 2838 3816 1997 
z
M 1762 5119 
L 2643 3944 
L 2031 3944 
L 878 5119 
L 1762 5119 
z
" transform="scale(0.015625)"/>
      <path id="DejaVuSans-Bold-75" d="M 500 1363 
L 500 3500 
L 1625 3500 
L 1625 3150 
Q 1625 2866 1622 2436 
Q 1619 2006 1619 1863 
Q 1619 1441 1641 1255 
Q 1663 1069 1716 984 
Q 1784 875 1895 815 
Q 2006 756 2150 756 
Q 2500 756 2700 1025 
Q 2900 1294 2900 1772 
L 2900 3500 
L 4019 3500 
L 4019 0 
L 2900 0 
L 2900 506 
Q 2647 200 2364 54 
Q 2081 -91 1741 -91 
Q 1134 -91 817 281 
Q 500 653 500 1363 
z
" transform="scale(0.015625)"/>
     </defs>
     <use xlink:href="#DejaVuSans-Bold-76"/>
     <use xlink:href="#DejaVuSans-Bold-65" transform="translate(65.185547 0)"/>
     <use xlink:href="#DejaVuSans-Bold-6c" transform="translate(133.007812 0)"/>
     <use xlink:href="#DejaVuSans-Bold-6f" transform="translate(167.285156 0)"/>
     <use xlink:href="#DejaVuSans-Bold-63" transform="translate(235.986328 0)"/>
     <use xlink:href="#DejaVuSans-Bold-69" transform="translate(295.263672 0)"/>
     <use xlink:href="#DejaVuSans-Bold-74" transform="translate(329.541016 0)"/>
     <use xlink:href="#DejaVuSans-Bold-e0" transform="translate(377.34375 0)"/>
     <use xlink:href="#DejaVuSans-Bold-20" transform="translate(444.824219 0)"/>
     <use xlink:href="#DejaVuSans-Bold-6e" transform="translate(479.638672 0)"/>
     <use xlink:href="#DejaVuSans-Bold-65" transform="translate(550.830078 0)"/>
     <use xlink:href="#DejaVuSans-Bold-6c" transform="translate(618.652344 0)"/>
     <use xlink:href="#DejaVuSans-Bold-6c" transform="translate(652.929688 0)"/>
     <use xlink:href="#DejaVuSans-Bold-65" transform="translate(687.207031 0)"/>
     <use xlink:href="#DejaVuSans-Bold-20" transform="translate(755.029297 0)"/>
     <use xlink:href="#DejaVuSans-Bold-64" transform="translate(789.84375 0)"/>
     <use xlink:href="#DejaVuSans-Bold-75" transform="translate(861.425781 0)"/>
     <use xlink:href="#DejaVuSans-Bold-65" transform="translate(932.617188 0)"/>
     <use xlink:href="#DejaVuSans-Bold-20" transform="translate(1000.439453 0)"/>
     <use xlink:href="#DejaVuSans-Bold-62" transform="translate(1035.253906 0)"/>
     <use xlink:href="#DejaVuSans-Bold-61" transform="translate(1106.835938 0)"/>
     <use xlink:href="#DejaVuSans-Bold-6e" transform="translate(1174.316406 0)"/>
     <use xlink:href="#DejaVuSans-Bold-64" transform="translate(1245.507812 0)"/>
     <use xlink:href="#DejaVuSans-Bold-65" transform="translate(1317.089844 0)"/>
    </g>
   </g>
   <g id="legend_2">
    <g id="line2d_53">
     <path d="M 591.422187 66.378437 
L 601.422187 66.378437 
L 611.422187 66.378437 
" style="fill: none; stroke: #1f77b4; stroke-width: 2.3; stroke-linecap: square"/>
    </g>
    <g id="text_33">
     <!-- $v_{\rm CB}(k)$ -->
     <g transform="translate(619.422187 69.878437) scale(0.1 -0.1)">
      <defs>
       <path id="DejaVuSans-43" d="M 4122 4306 
L 4122 3641 
Q 3803 3938 3442 4084 
Q 3081 4231 2675 4231 
Q 1875 4231 1450 3742 
Q 1025 3253 1025 2328 
Q 1025 1406 1450 917 
Q 1875 428 2675 428 
Q 3081 428 3442 575 
Q 3803 722 4122 1019 
L 4122 359 
Q 3791 134 3420 21 
Q 3050 -91 2638 -91 
Q 1578 -91 968 557 
Q 359 1206 359 2328 
Q 359 3453 968 4101 
Q 1578 4750 2638 4750 
Q 3056 4750 3426 4639 
Q 3797 4528 4122 4306 
z
" transform="scale(0.015625)"/>
       <path id="DejaVuSans-42" d="M 1259 2228 
L 1259 519 
L 2272 519 
Q 2781 519 3026 730 
Q 3272 941 3272 1375 
Q 3272 1813 3026 2020 
Q 2781 2228 2272 2228 
L 1259 2228 
z
M 1259 4147 
L 1259 2741 
L 2194 2741 
Q 2656 2741 2882 2914 
Q 3109 3088 3109 3444 
Q 3109 3797 2882 3972 
Q 2656 4147 2194 4147 
L 1259 4147 
z
M 628 4666 
L 2241 4666 
Q 2963 4666 3353 4366 
Q 3744 4066 3744 3513 
Q 3744 3084 3544 2831 
Q 3344 2578 2956 2516 
Q 3422 2416 3680 2098 
Q 3938 1781 3938 1306 
Q 3938 681 3513 340 
Q 3088 0 2303 0 
L 628 0 
L 628 4666 
z
" transform="scale(0.015625)"/>
      </defs>
      <use xlink:href="#DejaVuSans-Oblique-76" transform="translate(0 0.015625)"/>
      <use xlink:href="#DejaVuSans-43" transform="translate(59.179688 -16.390625) scale(0.7)"/>
      <use xlink:href="#DejaVuSans-42" transform="translate(108.056641 -16.390625) scale(0.7)"/>
      <use xlink:href="#DejaVuSans-28" transform="translate(158.813477 0.015625)"/>
      <use xlink:href="#DejaVuSans-Oblique-6b" transform="translate(197.827148 0.015625)"/>
      <use xlink:href="#DejaVuSans-29" transform="translate(255.737305 0.015625)"/>
     </g>
    </g>
    <g id="line2d_54">
     <path d="M 591.422187 81.056562 
L 601.422187 81.056562 
L 611.422187 81.056562 
" style="fill: none; stroke: #ff7f0e; stroke-width: 2.3; stroke-linecap: square"/>
    </g>
    <g id="text_34">
     <!-- $v_{\rm VB}(k)$ -->
     <g transform="translate(619.422187 84.556562) scale(0.1 -0.1)">
      <defs>
       <path id="DejaVuSans-56" d="M 1831 0 
L 50 4666 
L 709 4666 
L 2188 738 
L 3669 4666 
L 4325 4666 
L 2547 0 
L 1831 0 
z
" transform="scale(0.015625)"/>
      </defs>
      <use xlink:href="#DejaVuSans-Oblique-76" transform="translate(0 0.015625)"/>
      <use xlink:href="#DejaVuSans-56" transform="translate(59.179688 -16.390625) scale(0.7)"/>
      <use xlink:href="#DejaVuSans-42" transform="translate(107.06543 -16.390625) scale(0.7)"/>
      <use xlink:href="#DejaVuSans-28" transform="translate(157.822266 0.015625)"/>
      <use xlink:href="#DejaVuSans-Oblique-6b" transform="translate(196.835938 0.015625)"/>
      <use xlink:href="#DejaVuSans-29" transform="translate(254.746094 0.015625)"/>
     </g>
    </g>
   </g>
  </g>
  <g id="text_35">
   <!-- Bande elettroniche e velocità di gruppo in un cristallo unidimensionale -->
   <g transform="translate(98.353125 19.197656) scale(0.15 -0.15)">
    <defs>
     <path id="DejaVuSans-Bold-42" d="M 2456 2859 
Q 2741 2859 2887 2984 
Q 3034 3109 3034 3353 
Q 3034 3594 2887 3720 
Q 2741 3847 2456 3847 
L 1791 3847 
L 1791 2859 
L 2456 2859 
z
M 2497 819 
Q 2859 819 3042 972 
Q 3225 1125 3225 1434 
Q 3225 1738 3044 1889 
Q 2863 2041 2497 2041 
L 1791 2041 
L 1791 819 
L 2497 819 
z
M 3616 2497 
Q 4003 2384 4215 2081 
Q 4428 1778 4428 1338 
Q 4428 663 3972 331 
Q 3516 0 2584 0 
L 588 0 
L 588 4666 
L 2394 4666 
Q 3366 4666 3802 4372 
Q 4238 4078 4238 3431 
Q 4238 3091 4078 2852 
Q 3919 2613 3616 2497 
z
" transform="scale(0.015625)"/>
     <path id="DejaVuSans-Bold-68" d="M 4056 2131 
L 4056 0 
L 2931 0 
L 2931 347 
L 2931 1625 
Q 2931 2084 2911 2256 
Q 2891 2428 2841 2509 
Q 2775 2619 2662 2680 
Q 2550 2741 2406 2741 
Q 2056 2741 1856 2470 
Q 1656 2200 1656 1722 
L 1656 0 
L 538 0 
L 538 4863 
L 1656 4863 
L 1656 2988 
Q 1909 3294 2193 3439 
Q 2478 3584 2822 3584 
Q 3428 3584 3742 3212 
Q 4056 2841 4056 2131 
z
" transform="scale(0.015625)"/>
     <path id="DejaVuSans-Bold-67" d="M 2919 594 
Q 2688 288 2409 144 
Q 2131 0 1766 0 
Q 1125 0 706 504 
Q 288 1009 288 1791 
Q 288 2575 706 3076 
Q 1125 3578 1766 3578 
Q 2131 3578 2409 3434 
Q 2688 3291 2919 2981 
L 2919 3500 
L 4044 3500 
L 4044 353 
Q 4044 -491 3511 -936 
Q 2978 -1381 1966 -1381 
Q 1638 -1381 1331 -1331 
Q 1025 -1281 716 -1178 
L 716 -306 
Q 1009 -475 1290 -558 
Q 1572 -641 1856 -641 
Q 2406 -641 2662 -400 
Q 2919 -159 2919 353 
L 2919 594 
z
M 2181 2772 
Q 1834 2772 1640 2515 
Q 1447 2259 1447 1791 
Q 1447 1309 1634 1061 
Q 1822 813 2181 813 
Q 2531 813 2725 1069 
Q 2919 1325 2919 1791 
Q 2919 2259 2725 2515 
Q 2531 2772 2181 2772 
z
" transform="scale(0.015625)"/>
     <path id="DejaVuSans-Bold-6d" d="M 3781 2919 
Q 3994 3244 4286 3414 
Q 4578 3584 4928 3584 
Q 5531 3584 5847 3212 
Q 6163 2841 6163 2131 
L 6163 0 
L 5038 0 
L 5038 1825 
Q 5041 1866 5042 1909 
Q 5044 1953 5044 2034 
Q 5044 2406 4934 2573 
Q 4825 2741 4581 2741 
Q 4263 2741 4089 2478 
Q 3916 2216 3909 1719 
L 3909 0 
L 2784 0 
L 2784 1825 
Q 2784 2406 2684 2573 
Q 2584 2741 2328 2741 
Q 2006 2741 1831 2477 
Q 1656 2213 1656 1722 
L 1656 0 
L 531 0 
L 531 3500 
L 1656 3500 
L 1656 2988 
Q 1863 3284 2130 3434 
Q 2397 3584 2719 3584 
Q 3081 3584 3359 3409 
Q 3638 3234 3781 2919 
z
" transform="scale(0.015625)"/>
    </defs>
    <use xlink:href="#DejaVuSans-Bold-42"/>
    <use xlink:href="#DejaVuSans-Bold-61" transform="translate(76.220703 0)"/>
    <use xlink:href="#DejaVuSans-Bold-6e" transform="translate(143.701172 0)"/>
    <use xlink:href="#DejaVuSans-Bold-64" transform="translate(214.892578 0)"/>
    <use xlink:href="#DejaVuSans-Bold-65" transform="translate(286.474609 0)"/>
    <use xlink:href="#DejaVuSans-Bold-20" transform="translate(354.296875 0)"/>
    <use xlink:href="#DejaVuSans-Bold-65" transform="translate(389.111328 0)"/>
    <use xlink:href="#DejaVuSans-Bold-6c" transform="translate(456.933594 0)"/>
    <use xlink:href="#DejaVuSans-Bold-65" transform="translate(491.210938 0)"/>
    <use xlink:href="#DejaVuSans-Bold-74" transform="translate(559.033203 0)"/>
    <use xlink:href="#DejaVuSans-Bold-74" transform="translate(606.835938 0)"/>
    <use xlink:href="#DejaVuSans-Bold-72" transform="translate(654.638672 0)"/>
    <use xlink:href="#DejaVuSans-Bold-6f" transform="translate(703.955078 0)"/>
    <use xlink:href="#DejaVuSans-Bold-6e" transform="translate(772.65625 0)"/>
    <use xlink:href="#DejaVuSans-Bold-69" transform="translate(843.847656 0)"/>
    <use xlink:href="#DejaVuSans-Bold-63" transform="translate(878.125 0)"/>
    <use xlink:href="#DejaVuSans-Bold-68" transform="translate(937.402344 0)"/>
    <use xlink:href="#DejaVuSans-Bold-65" transform="translate(1008.59375 0)"/>
    <use xlink:href="#DejaVuSans-Bold-20" transform="translate(1076.416016 0)"/>
    <use xlink:href="#DejaVuSans-Bold-65" transform="translate(1111.230469 0)"/>
    <use xlink:href="#DejaVuSans-Bold-20" transform="translate(1179.052734 0)"/>
    <use xlink:href="#DejaVuSans-Bold-76" transform="translate(1213.867188 0)"/>
    <use xlink:href="#DejaVuSans-Bold-65" transform="translate(1279.052734 0)"/>
    <use xlink:href="#DejaVuSans-Bold-6c" transform="translate(1346.875 0)"/>
    <use xlink:href="#DejaVuSans-Bold-6f" transform="translate(1381.152344 0)"/>
    <use xlink:href="#DejaVuSans-Bold-63" transform="translate(1449.853516 0)"/>
    <use xlink:href="#DejaVuSans-Bold-69" transform="translate(1509.130859 0)"/>
    <use xlink:href="#DejaVuSans-Bold-74" transform="translate(1543.408203 0)"/>
    <use xlink:href="#DejaVuSans-Bold-e0" transform="translate(1591.210938 0)"/>
    <use xlink:href="#DejaVuSans-Bold-20" transform="translate(1658.691406 0)"/>
    <use xlink:href="#DejaVuSans-Bold-64" transform="translate(1693.505859 0)"/>
    <use xlink:href="#DejaVuSans-Bold-69" transform="translate(1765.087891 0)"/>
    <use xlink:href="#DejaVuSans-Bold-20" transform="translate(1799.365234 0)"/>
    <use xlink:href="#DejaVuSans-Bold-67" transform="translate(1834.179688 0)"/>
    <use xlink:href="#DejaVuSans-Bold-72" transform="translate(1905.761719 0)"/>
    <use xlink:href="#DejaVuSans-Bold-75" transform="translate(1955.078125 0)"/>
    <use xlink:href="#DejaVuSans-Bold-70" transform="translate(2026.269531 0)"/>
    <use xlink:href="#DejaVuSans-Bold-70" transform="translate(2097.851562 0)"/>
    <use xlink:href="#DejaVuSans-Bold-6f" transform="translate(2169.433594 0)"/>
    <use xlink:href="#DejaVuSans-Bold-20" transform="translate(2238.134766 0)"/>
    <use xlink:href="#DejaVuSans-Bold-69" transform="translate(2272.949219 0)"/>
    <use xlink:href="#DejaVuSans-Bold-6e" transform="translate(2307.226562 0)"/>
    <use xlink:href="#DejaVuSans-Bold-20" transform="translate(2378.417969 0)"/>
    <use xlink:href="#DejaVuSans-Bold-75" transform="translate(2413.232422 0)"/>
    <use xlink:href="#DejaVuSans-Bold-6e" transform="translate(2484.423828 0)"/>
    <use xlink:href="#DejaVuSans-Bold-20" transform="translate(2555.615234 0)"/>
    <use xlink:href="#DejaVuSans-Bold-63" transform="translate(2590.429688 0)"/>
    <use xlink:href="#DejaVuSans-Bold-72" transform="translate(2649.707031 0)"/>
    <use xlink:href="#DejaVuSans-Bold-69" transform="translate(2699.023438 0)"/>
    <use xlink:href="#DejaVuSans-Bold-73" transform="translate(2733.300781 0)"/>
    <use xlink:href="#DejaVuSans-Bold-74" transform="translate(2792.822266 0)"/>
    <use xlink:href="#DejaVuSans-Bold-61" transform="translate(2840.625 0)"/>
    <use xlink:href="#DejaVuSans-Bold-6c" transform="translate(2908.105469 0)"/>
    <use xlink:href="#DejaVuSans-Bold-6c" transform="translate(2942.382812 0)"/>
    <use xlink:href="#DejaVuSans-Bold-6f" transform="translate(2976.660156 0)"/>
    <use xlink:href="#DejaVuSans-Bold-20" transform="translate(3045.361328 0)"/>
    <use xlink:href="#DejaVuSans-Bold-75" transform="translate(3080.175781 0)"/>
    <use xlink:href="#DejaVuSans-Bold-6e" transform="translate(3151.367188 0)"/>
    <use xlink:href="#DejaVuSans-Bold-69" transform="translate(3222.558594 0)"/>
    <use xlink:href="#DejaVuSans-Bold-64" transform="translate(3256.835938 0)"/>
    <use xlink:href="#DejaVuSans-Bold-69" transform="translate(3328.417969 0)"/>
    <use xlink:href="#DejaVuSans-Bold-6d" transform="translate(3362.695312 0)"/>
    <use xlink:href="#DejaVuSans-Bold-65" transform="translate(3466.894531 0)"/>
    <use xlink:href="#DejaVuSans-Bold-6e" transform="translate(3534.716797 0)"/>
    <use xlink:href="#DejaVuSans-Bold-73" transform="translate(3605.908203 0)"/>
    <use xlink:href="#DejaVuSans-Bold-69" transform="translate(3665.429688 0)"/>
    <use xlink:href="#DejaVuSans-Bold-6f" transform="translate(3699.707031 0)"/>
    <use xlink:href="#DejaVuSans-Bold-6e" transform="translate(3768.408203 0)"/>
    <use xlink:href="#DejaVuSans-Bold-61" transform="translate(3839.599609 0)"/>
    <use xlink:href="#DejaVuSans-Bold-6c" transform="translate(3907.080078 0)"/>
    <use xlink:href="#DejaVuSans-Bold-65" transform="translate(3941.357422 0)"/>
   </g>
  </g>
  <g id="text_36">
   <!-- Le velocità sono le derivate delle dispersioni: si annullano al centro e ai bordi della zona di Brillouin e cambiano segno tra i due lati della zona. -->
   <g transform="translate(41.977344 447.264) scale(0.1 -0.1)">
    <defs>
     <path id="DejaVuSans-4c" d="M 628 4666 
L 1259 4666 
L 1259 531 
L 3531 531 
L 3531 0 
L 628 0 
L 628 4666 
z
" transform="scale(0.015625)"/>
     <path id="DejaVuSans-73" d="M 2834 3397 
L 2834 2853 
Q 2591 2978 2328 3040 
Q 2066 3103 1784 3103 
Q 1356 3103 1142 2972 
Q 928 2841 928 2578 
Q 928 2378 1081 2264 
Q 1234 2150 1697 2047 
L 1894 2003 
Q 2506 1872 2764 1633 
Q 3022 1394 3022 966 
Q 3022 478 2636 193 
Q 2250 -91 1575 -91 
Q 1294 -91 989 -36 
Q 684 19 347 128 
L 347 722 
Q 666 556 975 473 
Q 1284 391 1588 391 
Q 1994 391 2212 530 
Q 2431 669 2431 922 
Q 2431 1156 2273 1281 
Q 2116 1406 1581 1522 
L 1381 1569 
Q 847 1681 609 1914 
Q 372 2147 372 2553 
Q 372 3047 722 3315 
Q 1072 3584 1716 3584 
Q 2034 3584 2315 3537 
Q 2597 3491 2834 3397 
z
" transform="scale(0.015625)"/>
     <path id="DejaVuSans-3a" d="M 750 794 
L 1409 794 
L 1409 0 
L 750 0 
L 750 794 
z
M 750 3309 
L 1409 3309 
L 1409 2516 
L 750 2516 
L 750 3309 
z
" transform="scale(0.015625)"/>
     <path id="DejaVuSans-6d" d="M 3328 2828 
Q 3544 3216 3844 3400 
Q 4144 3584 4550 3584 
Q 5097 3584 5394 3201 
Q 5691 2819 5691 2113 
L 5691 0 
L 5113 0 
L 5113 2094 
Q 5113 2597 4934 2840 
Q 4756 3084 4391 3084 
Q 3944 3084 3684 2787 
Q 3425 2491 3425 1978 
L 3425 0 
L 2847 0 
L 2847 2094 
Q 2847 2600 2669 2842 
Q 2491 3084 2119 3084 
Q 1678 3084 1418 2786 
Q 1159 2488 1159 1978 
L 1159 0 
L 581 0 
L 581 3500 
L 1159 3500 
L 1159 2956 
Q 1356 3278 1631 3431 
Q 1906 3584 2284 3584 
Q 2666 3584 2933 3390 
Q 3200 3197 3328 2828 
z
" transform="scale(0.015625)"/>
    </defs>
    <use xlink:href="#DejaVuSans-4c"/>
    <use xlink:href="#DejaVuSans-65" transform="translate(53.962891 0)"/>
    <use xlink:href="#DejaVuSans-20" transform="translate(115.486328 0)"/>
    <use xlink:href="#DejaVuSans-76" transform="translate(147.273438 0)"/>
    <use xlink:href="#DejaVuSans-65" transform="translate(206.453125 0)"/>
    <use xlink:href="#DejaVuSans-6c" transform="translate(267.976562 0)"/>
    <use xlink:href="#DejaVuSans-6f" transform="translate(295.759766 0)"/>
    <use xlink:href="#DejaVuSans-63" transform="translate(356.941406 0)"/>
    <use xlink:href="#DejaVuSans-69" transform="translate(411.921875 0)"/>
    <use xlink:href="#DejaVuSans-74" transform="translate(439.705078 0)"/>
    <use xlink:href="#DejaVuSans-e0" transform="translate(478.914062 0)"/>
    <use xlink:href="#DejaVuSans-20" transform="translate(540.193359 0)"/>
    <use xlink:href="#DejaVuSans-73" transform="translate(571.980469 0)"/>
    <use xlink:href="#DejaVuSans-6f" transform="translate(624.080078 0)"/>
    <use xlink:href="#DejaVuSans-6e" transform="translate(685.261719 0)"/>
    <use xlink:href="#DejaVuSans-6f" transform="translate(748.640625 0)"/>
    <use xlink:href="#DejaVuSans-20" transform="translate(809.822266 0)"/>
    <use xlink:href="#DejaVuSans-6c" transform="translate(841.609375 0)"/>
    <use xlink:href="#DejaVuSans-65" transform="translate(869.392578 0)"/>
    <use xlink:href="#DejaVuSans-20" transform="translate(930.916016 0)"/>
    <use xlink:href="#DejaVuSans-64" transform="translate(962.703125 0)"/>
    <use xlink:href="#DejaVuSans-65" transform="translate(1026.179688 0)"/>
    <use xlink:href="#DejaVuSans-72" transform="translate(1087.703125 0)"/>
    <use xlink:href="#DejaVuSans-69" transform="translate(1128.816406 0)"/>
    <use xlink:href="#DejaVuSans-76" transform="translate(1156.599609 0)"/>
    <use xlink:href="#DejaVuSans-61" transform="translate(1215.779297 0)"/>
    <use xlink:href="#DejaVuSans-74" transform="translate(1277.058594 0)"/>
    <use xlink:href="#DejaVuSans-65" transform="translate(1316.267578 0)"/>
    <use xlink:href="#DejaVuSans-20" transform="translate(1377.791016 0)"/>
    <use xlink:href="#DejaVuSans-64" transform="translate(1409.578125 0)"/>
    <use xlink:href="#DejaVuSans-65" transform="translate(1473.054688 0)"/>
    <use xlink:href="#DejaVuSans-6c" transform="translate(1534.578125 0)"/>
    <use xlink:href="#DejaVuSans-6c" transform="translate(1562.361328 0)"/>
    <use xlink:href="#DejaVuSans-65" transform="translate(1590.144531 0)"/>
    <use xlink:href="#DejaVuSans-20" transform="translate(1651.667969 0)"/>
    <use xlink:href="#DejaVuSans-64" transform="translate(1683.455078 0)"/>
    <use xlink:href="#DejaVuSans-69" transform="translate(1746.931641 0)"/>
    <use xlink:href="#DejaVuSans-73" transform="translate(1774.714844 0)"/>
    <use xlink:href="#DejaVuSans-70" transform="translate(1826.814453 0)"/>
    <use xlink:href="#DejaVuSans-65" transform="translate(1890.291016 0)"/>
    <use xlink:href="#DejaVuSans-72" transform="translate(1951.814453 0)"/>
    <use xlink:href="#DejaVuSans-73" transform="translate(1992.927734 0)"/>
    <use xlink:href="#DejaVuSans-69" transform="translate(2045.027344 0)"/>
    <use xlink:href="#DejaVuSans-6f" transform="translate(2072.810547 0)"/>
    <use xlink:href="#DejaVuSans-6e" transform="translate(2133.992188 0)"/>
    <use xlink:href="#DejaVuSans-69" transform="translate(2197.371094 0)"/>
    <use xlink:href="#DejaVuSans-3a" transform="translate(2225.154297 0)"/>
    <use xlink:href="#DejaVuSans-20" transform="translate(2258.845703 0)"/>
    <use xlink:href="#DejaVuSans-73" transform="translate(2290.632812 0)"/>
    <use xlink:href="#DejaVuSans-69" transform="translate(2342.732422 0)"/>
    <use xlink:href="#DejaVuSans-20" transform="translate(2370.515625 0)"/>
    <use xlink:href="#DejaVuSans-61" transform="translate(2402.302734 0)"/>
    <use xlink:href="#DejaVuSans-6e" transform="translate(2463.582031 0)"/>
    <use xlink:href="#DejaVuSans-6e" transform="translate(2526.960938 0)"/>
    <use xlink:href="#DejaVuSans-75" transform="translate(2590.339844 0)"/>
    <use xlink:href="#DejaVuSans-6c" transform="translate(2653.71875 0)"/>
    <use xlink:href="#DejaVuSans-6c" transform="translate(2681.501953 0)"/>
    <use xlink:href="#DejaVuSans-61" transform="translate(2709.285156 0)"/>
    <use xlink:href="#DejaVuSans-6e" transform="translate(2770.564453 0)"/>
    <use xlink:href="#DejaVuSans-6f" transform="translate(2833.943359 0)"/>
    <use xlink:href="#DejaVuSans-20" transform="translate(2895.125 0)"/>
    <use xlink:href="#DejaVuSans-61" transform="translate(2926.912109 0)"/>
    <use xlink:href="#DejaVuSans-6c" transform="translate(2988.191406 0)"/>
    <use xlink:href="#DejaVuSans-20" transform="translate(3015.974609 0)"/>
    <use xlink:href="#DejaVuSans-63" transform="translate(3047.761719 0)"/>
    <use xlink:href="#DejaVuSans-65" transform="translate(3102.742188 0)"/>
    <use xlink:href="#DejaVuSans-6e" transform="translate(3164.265625 0)"/>
    <use xlink:href="#DejaVuSans-74" transform="translate(3227.644531 0)"/>
    <use xlink:href="#DejaVuSans-72" transform="translate(3266.853516 0)"/>
    <use xlink:href="#DejaVuSans-6f" transform="translate(3305.716797 0)"/>
    <use xlink:href="#DejaVuSans-20" transform="translate(3366.898438 0)"/>
    <use xlink:href="#DejaVuSans-65" transform="translate(3398.685547 0)"/>
    <use xlink:href="#DejaVuSans-20" transform="translate(3460.208984 0)"/>
    <use xlink:href="#DejaVuSans-61" transform="translate(3491.996094 0)"/>
    <use xlink:href="#DejaVuSans-69" transform="translate(3553.275391 0)"/>
    <use xlink:href="#DejaVuSans-20" transform="translate(3581.058594 0)"/>
    <use xlink:href="#DejaVuSans-62" transform="translate(3612.845703 0)"/>
    <use xlink:href="#DejaVuSans-6f" transform="translate(3676.322266 0)"/>
    <use xlink:href="#DejaVuSans-72" transform="translate(3737.503906 0)"/>
    <use xlink:href="#DejaVuSans-64" transform="translate(3776.867188 0)"/>
    <use xlink:href="#DejaVuSans-69" transform="translate(3840.34375 0)"/>
    <use xlink:href="#DejaVuSans-20" transform="translate(3868.126953 0)"/>
    <use xlink:href="#DejaVuSans-64" transform="translate(3899.914062 0)"/>
    <use xlink:href="#DejaVuSans-65" transform="translate(3963.390625 0)"/>
    <use xlink:href="#DejaVuSans-6c" transform="translate(4024.914062 0)"/>
    <use xlink:href="#DejaVuSans-6c" transform="translate(4052.697266 0)"/>
    <use xlink:href="#DejaVuSans-61" transform="translate(4080.480469 0)"/>
    <use xlink:href="#DejaVuSans-20" transform="translate(4141.759766 0)"/>
    <use xlink:href="#DejaVuSans-7a" transform="translate(4173.546875 0)"/>
    <use xlink:href="#DejaVuSans-6f" transform="translate(4226.037109 0)"/>
    <use xlink:href="#DejaVuSans-6e" transform="translate(4287.21875 0)"/>
    <use xlink:href="#DejaVuSans-61" transform="translate(4350.597656 0)"/>
    <use xlink:href="#DejaVuSans-20" transform="translate(4411.876953 0)"/>
    <use xlink:href="#DejaVuSans-64" transform="translate(4443.664062 0)"/>
    <use xlink:href="#DejaVuSans-69" transform="translate(4507.140625 0)"/>
    <use xlink:href="#DejaVuSans-20" transform="translate(4534.923828 0)"/>
    <use xlink:href="#DejaVuSans-42" transform="translate(4566.710938 0)"/>
    <use xlink:href="#DejaVuSans-72" transform="translate(4635.314453 0)"/>
    <use xlink:href="#DejaVuSans-69" transform="translate(4676.427734 0)"/>
    <use xlink:href="#DejaVuSans-6c" transform="translate(4704.210938 0)"/>
    <use xlink:href="#DejaVuSans-6c" transform="translate(4731.994141 0)"/>
    <use xlink:href="#DejaVuSans-6f" transform="translate(4759.777344 0)"/>
    <use xlink:href="#DejaVuSans-75" transform="translate(4820.958984 0)"/>
    <use xlink:href="#DejaVuSans-69" transform="translate(4884.337891 0)"/>
    <use xlink:href="#DejaVuSans-6e" transform="translate(4912.121094 0)"/>
    <use xlink:href="#DejaVuSans-20" transform="translate(4975.5 0)"/>
    <use xlink:href="#DejaVuSans-65" transform="translate(5007.287109 0)"/>
    <use xlink:href="#DejaVuSans-20" transform="translate(5068.810547 0)"/>
    <use xlink:href="#DejaVuSans-63" transform="translate(5100.597656 0)"/>
    <use xlink:href="#DejaVuSans-61" transform="translate(5155.578125 0)"/>
    <use xlink:href="#DejaVuSans-6d" transform="translate(5216.857422 0)"/>
    <use xlink:href="#DejaVuSans-62" transform="translate(5314.269531 0)"/>
    <use xlink:href="#DejaVuSans-69" transform="translate(5377.746094 0)"/>
    <use xlink:href="#DejaVuSans-61" transform="translate(5405.529297 0)"/>
    <use xlink:href="#DejaVuSans-6e" transform="translate(5466.808594 0)"/>
    <use xlink:href="#DejaVuSans-6f" transform="translate(5530.1875 0)"/>
    <use xlink:href="#DejaVuSans-20" transform="translate(5591.369141 0)"/>
    <use xlink:href="#DejaVuSans-73" transform="translate(5623.15625 0)"/>
    <use xlink:href="#DejaVuSans-65" transform="translate(5675.255859 0)"/>
    <use xlink:href="#DejaVuSans-67" transform="translate(5736.779297 0)"/>
    <use xlink:href="#DejaVuSans-6e" transform="translate(5800.255859 0)"/>
    <use xlink:href="#DejaVuSans-6f" transform="translate(5863.634766 0)"/>
    <use xlink:href="#DejaVuSans-20" transform="translate(5924.816406 0)"/>
    <use xlink:href="#DejaVuSans-74" transform="translate(5956.603516 0)"/>
    <use xlink:href="#DejaVuSans-72" transform="translate(5995.8125 0)"/>
    <use xlink:href="#DejaVuSans-61" transform="translate(6036.925781 0)"/>
    <use xlink:href="#DejaVuSans-20" transform="translate(6098.205078 0)"/>
    <use xlink:href="#DejaVuSans-69" transform="translate(6129.992188 0)"/>
    <use xlink:href="#DejaVuSans-20" transform="translate(6157.775391 0)"/>
    <use xlink:href="#DejaVuSans-64" transform="translate(6189.5625 0)"/>
    <use xlink:href="#DejaVuSans-75" transform="translate(6253.039062 0)"/>
    <use xlink:href="#DejaVuSans-65" transform="translate(6316.417969 0)"/>
    <use xlink:href="#DejaVuSans-20" transform="translate(6377.941406 0)"/>
    <use xlink:href="#DejaVuSans-6c" transform="translate(6409.728516 0)"/>
    <use xlink:href="#DejaVuSans-61" transform="translate(6437.511719 0)"/>
    <use xlink:href="#DejaVuSans-74" transform="translate(6498.791016 0)"/>
    <use xlink:href="#DejaVuSans-69" transform="translate(6538 0)"/>
    <use xlink:href="#DejaVuSans-20" transform="translate(6565.783203 0)"/>
    <use xlink:href="#DejaVuSans-64" transform="translate(6597.570312 0)"/>
    <use xlink:href="#DejaVuSans-65" transform="translate(6661.046875 0)"/>
    <use xlink:href="#DejaVuSans-6c" transform="translate(6722.570312 0)"/>
    <use xlink:href="#DejaVuSans-6c" transform="translate(6750.353516 0)"/>
    <use xlink:href="#DejaVuSans-61" transform="translate(6778.136719 0)"/>
    <use xlink:href="#DejaVuSans-20" transform="translate(6839.416016 0)"/>
    <use xlink:href="#DejaVuSans-7a" transform="translate(6871.203125 0)"/>
    <use xlink:href="#DejaVuSans-6f" transform="translate(6923.693359 0)"/>
    <use xlink:href="#DejaVuSans-6e" transform="translate(6984.875 0)"/>
    <use xlink:href="#DejaVuSans-61" transform="translate(7048.253906 0)"/>
    <use xlink:href="#DejaVuSans-2e" transform="translate(7109.533203 0)"/>
   </g>
  </g>
 </g>
 <defs>
  <clipPath id="p7789451db5">
   <rect x="42.642188" y="53.28" width="351.54" height="354.816"/>
  </clipPath>
  <clipPath id="p9f739225cd">
   <rect x="461.142187" y="53.28" width="318.06" height="354.816"/>
  </clipPath>
 </defs>
</svg>
