<?xml version="1.0" encoding="utf-8" standalone="no"?>
<!DOCTYPE svg PUBLIC "-//W3C//DTD SVG 1.1//EN"
  "http://www.w3.org/Graphics/SVG/1.1/DTD/svg11.dtd">
<svg xmlns:xlink="http://www.w3.org/1999/xlink" width="706.887812pt" height="483.109344pt" viewBox="0 0 706.887812 483.109344" xmlns="http://www.w3.org/2000/svg" version="1.1">
 <metadata>
  <rdf:RDF xmlns:dc="http://purl.org/dc/elements/1.1/" xmlns:cc="http://creativecommons.org/ns#" xmlns:rdf="http://www.w3.org/1999/02/22-rdf-syntax-ns#">
   <cc:Work>
    <dc:type rdf:resource="http://purl.org/dc/dcmitype/StillImage"/>
    <dc:date>2026-06-16T12:32:35.511042</dc:date>
    <dc:format>image/svg+xml</dc:format>
    <dc:creator>
     <cc:Agent>
      <dc:title>Matplotlib v3.10.8, https://matplotlib.org/</dc:title>
     </cc:Agent>
    </dc:creator>
   </cc:Work>
  </rdf:RDF>
 </metadata>
 <defs>
  <style type="text/css">*{stroke-linejoin: round; stroke-linecap: butt}</style>
 </defs>
 <g id="figure_1">
  <g id="patch_1">
   <path d="M 0 483.109344 
L 706.887812 483.109344 
L 706.887812 0 
L 0 0 
z
" style="fill: #ffffff"/>
  </g>
  <g id="axes_1">
   <g id="patch_2">
    <path d="M 48.982813 429.765656 
L 696.262812 429.765656 
L 696.262812 30.597656 
L 48.982813 30.597656 
z
" style="fill: #ffffff"/>
   </g>
   <g id="patch_3">
    <path d="M 48.982813 234.095068 
L 696.262812 234.095068 
L 696.262812 211.866889 
L 48.982813 211.866889 
z
" clip-path="url(#p1f7836ab9c)" style="fill: #1f77b4; opacity: 0.1"/>
   </g>
   <g id="matplotlib.axis_1">
    <g id="xtick_1">
     <g id="line2d_1">
      <defs>
       <path id="m5f40976aee" d="M 0 0 
L 0 3.5 
" style="stroke: #000000; stroke-width: 0.8"/>
      </defs>
      <g>
       <use xlink:href="#m5f40976aee" x="48.982813" y="429.765656" style="stroke: #000000; stroke-width: 0.8"/>
      </g>
     </g>
     <g id="text_1">
      <!-- $\Gamma$ -->
      <g transform="translate(46.182813 444.364094) scale(0.1 -0.1)">
       <defs>
        <path id="DejaVuSans-393" d="M 628 0 
L 628 4666 
L 3531 4666 
L 3531 4134 
L 1259 4134 
L 1259 0 
L 628 0 
z
" transform="scale(0.015625)"/>
       </defs>
       <use xlink:href="#DejaVuSans-393" transform="translate(0 0.09375)"/>
      </g>
     </g>
    </g>
    <g id="xtick_2">
     <g id="line2d_2">
      <g>
       <use xlink:href="#m5f40976aee" x="141.451384" y="429.765656" style="stroke: #000000; stroke-width: 0.8"/>
      </g>
     </g>
     <g id="text_2">
      <!-- X -->
      <g transform="translate(138.026384 444.364094) scale(0.1 -0.1)">
       <defs>
        <path id="DejaVuSans-58" d="M 403 4666 
L 1081 4666 
L 2241 2931 
L 3406 4666 
L 4084 4666 
L 2584 2425 
L 4184 0 
L 3506 0 
L 2194 1984 
L 872 0 
L 191 0 
L 1856 2491 
L 403 4666 
z
" transform="scale(0.015625)"/>
       </defs>
       <use xlink:href="#DejaVuSans-58"/>
      </g>
     </g>
    </g>
    <g id="xtick_3">
     <g id="line2d_3">
      <g>
       <use xlink:href="#m5f40976aee" x="233.919955" y="429.765656" style="stroke: #000000; stroke-width: 0.8"/>
      </g>
     </g>
     <g id="text_3">
      <!-- K -->
      <g transform="translate(230.641049 444.364094) scale(0.1 -0.1)">
       <defs>
        <path id="DejaVuSans-4b" d="M 628 4666 
L 1259 4666 
L 1259 2694 
L 3353 4666 
L 4166 4666 
L 1850 2491 
L 4331 0 
L 3500 0 
L 1259 2247 
L 1259 0 
L 628 0 
L 628 4666 
z
" transform="scale(0.015625)"/>
       </defs>
       <use xlink:href="#DejaVuSans-4b"/>
      </g>
     </g>
    </g>
    <g id="xtick_4">
     <g id="line2d_4">
      <g>
       <use xlink:href="#m5f40976aee" x="326.388527" y="429.765656" style="stroke: #000000; stroke-width: 0.8"/>
      </g>
     </g>
     <g id="text_4">
      <!-- $\Gamma$ -->
      <g transform="translate(323.588527 444.364094) scale(0.1 -0.1)">
       <use xlink:href="#DejaVuSans-393" transform="translate(0 0.09375)"/>
      </g>
     </g>
    </g>
    <g id="xtick_5">
     <g id="line2d_5">
      <g>
       <use xlink:href="#m5f40976aee" x="418.857098" y="429.765656" style="stroke: #000000; stroke-width: 0.8"/>
      </g>
     </g>
     <g id="text_5">
      <!-- L -->
      <g transform="translate(416.071161 444.364094) scale(0.1 -0.1)">
       <defs>
        <path id="DejaVuSans-4c" d="M 628 4666 
L 1259 4666 
L 1259 531 
L 3531 531 
L 3531 0 
L 628 0 
L 628 4666 
z
" transform="scale(0.015625)"/>
       </defs>
       <use xlink:href="#DejaVuSans-4c"/>
      </g>
     </g>
    </g>
    <g id="xtick_6">
     <g id="line2d_6">
      <g>
       <use xlink:href="#m5f40976aee" x="511.32567" y="429.765656" style="stroke: #000000; stroke-width: 0.8"/>
      </g>
     </g>
     <g id="text_6">
      <!-- A -->
      <g transform="translate(507.905357 444.364094) scale(0.1 -0.1)">
       <defs>
        <path id="DejaVuSans-41" d="M 2188 4044 
L 1331 1722 
L 3047 1722 
L 2188 4044 
z
M 1831 4666 
L 2547 4666 
L 4325 0 
L 3669 0 
L 3244 1197 
L 1141 1197 
L 716 0 
L 50 0 
L 1831 4666 
z
" transform="scale(0.015625)"/>
       </defs>
       <use xlink:href="#DejaVuSans-41"/>
      </g>
     </g>
    </g>
    <g id="xtick_7">
     <g id="line2d_7">
      <g>
       <use xlink:href="#m5f40976aee" x="603.794241" y="429.765656" style="stroke: #000000; stroke-width: 0.8"/>
      </g>
     </g>
     <g id="text_7">
      <!-- W -->
      <g transform="translate(598.850491 444.364094) scale(0.1 -0.1)">
       <defs>
        <path id="DejaVuSans-57" d="M 213 4666 
L 850 4666 
L 1831 722 
L 2809 4666 
L 3519 4666 
L 4500 722 
L 5478 4666 
L 6119 4666 
L 4947 0 
L 4153 0 
L 3169 4050 
L 2175 0 
L 1381 0 
L 213 4666 
z
" transform="scale(0.015625)"/>
       </defs>
       <use xlink:href="#DejaVuSans-57"/>
      </g>
     </g>
    </g>
    <g id="xtick_8">
     <g id="line2d_8">
      <g>
       <use xlink:href="#m5f40976aee" x="696.262812" y="429.765656" style="stroke: #000000; stroke-width: 0.8"/>
      </g>
     </g>
     <g id="text_8">
      <!-- X -->
      <g transform="translate(692.837813 444.364094) scale(0.1 -0.1)">
       <use xlink:href="#DejaVuSans-58"/>
      </g>
     </g>
    </g>
    <g id="text_9">
     <!-- percorso ad alta simmetria -->
     <g transform="translate(305.138438 458.042219) scale(0.1 -0.1)">
      <defs>
       <path id="DejaVuSans-70" d="M 1159 525 
L 1159 -1331 
L 581 -1331 
L 581 3500 
L 1159 3500 
L 1159 2969 
Q 1341 3281 1617 3432 
Q 1894 3584 2278 3584 
Q 2916 3584 3314 3078 
Q 3713 2572 3713 1747 
Q 3713 922 3314 415 
Q 2916 -91 2278 -91 
Q 1894 -91 1617 61 
Q 1341 213 1159 525 
z
M 3116 1747 
Q 3116 2381 2855 2742 
Q 2594 3103 2138 3103 
Q 1681 3103 1420 2742 
Q 1159 2381 1159 1747 
Q 1159 1113 1420 752 
Q 1681 391 2138 391 
Q 2594 391 2855 752 
Q 3116 1113 3116 1747 
z
" transform="scale(0.015625)"/>
       <path id="DejaVuSans-65" d="M 3597 1894 
L 3597 1613 
L 953 1613 
Q 991 1019 1311 708 
Q 1631 397 2203 397 
Q 2534 397 2845 478 
Q 3156 559 3463 722 
L 3463 178 
Q 3153 47 2828 -22 
Q 2503 -91 2169 -91 
Q 1331 -91 842 396 
Q 353 884 353 1716 
Q 353 2575 817 3079 
Q 1281 3584 2069 3584 
Q 2775 3584 3186 3129 
Q 3597 2675 3597 1894 
z
M 3022 2063 
Q 3016 2534 2758 2815 
Q 2500 3097 2075 3097 
Q 1594 3097 1305 2825 
Q 1016 2553 972 2059 
L 3022 2063 
z
" transform="scale(0.015625)"/>
       <path id="DejaVuSans-72" d="M 2631 2963 
Q 2534 3019 2420 3045 
Q 2306 3072 2169 3072 
Q 1681 3072 1420 2755 
Q 1159 2438 1159 1844 
L 1159 0 
L 581 0 
L 581 3500 
L 1159 3500 
L 1159 2956 
Q 1341 3275 1631 3429 
Q 1922 3584 2338 3584 
Q 2397 3584 2469 3576 
Q 2541 3569 2628 3553 
L 2631 2963 
z
" transform="scale(0.015625)"/>
       <path id="DejaVuSans-63" d="M 3122 3366 
L 3122 2828 
Q 2878 2963 2633 3030 
Q 2388 3097 2138 3097 
Q 1578 3097 1268 2742 
Q 959 2388 959 1747 
Q 959 1106 1268 751 
Q 1578 397 2138 397 
Q 2388 397 2633 464 
Q 2878 531 3122 666 
L 3122 134 
Q 2881 22 2623 -34 
Q 2366 -91 2075 -91 
Q 1284 -91 818 406 
Q 353 903 353 1747 
Q 353 2603 823 3093 
Q 1294 3584 2113 3584 
Q 2378 3584 2631 3529 
Q 2884 3475 3122 3366 
z
" transform="scale(0.015625)"/>
       <path id="DejaVuSans-6f" d="M 1959 3097 
Q 1497 3097 1228 2736 
Q 959 2375 959 1747 
Q 959 1119 1226 758 
Q 1494 397 1959 397 
Q 2419 397 2687 759 
Q 2956 1122 2956 1747 
Q 2956 2369 2687 2733 
Q 2419 3097 1959 3097 
z
M 1959 3584 
Q 2709 3584 3137 3096 
Q 3566 2609 3566 1747 
Q 3566 888 3137 398 
Q 2709 -91 1959 -91 
Q 1206 -91 779 398 
Q 353 888 353 1747 
Q 353 2609 779 3096 
Q 1206 3584 1959 3584 
z
" transform="scale(0.015625)"/>
       <path id="DejaVuSans-73" d="M 2834 3397 
L 2834 2853 
Q 2591 2978 2328 3040 
Q 2066 3103 1784 3103 
Q 1356 3103 1142 2972 
Q 928 2841 928 2578 
Q 928 2378 1081 2264 
Q 1234 2150 1697 2047 
L 1894 2003 
Q 2506 1872 2764 1633 
Q 3022 1394 3022 966 
Q 3022 478 2636 193 
Q 2250 -91 1575 -91 
Q 1294 -91 989 -36 
Q 684 19 347 128 
L 347 722 
Q 666 556 975 473 
Q 1284 391 1588 391 
Q 1994 391 2212 530 
Q 2431 669 2431 922 
Q 2431 1156 2273 1281 
Q 2116 1406 1581 1522 
L 1381 1569 
Q 847 1681 609 1914 
Q 372 2147 372 2553 
Q 372 3047 722 3315 
Q 1072 3584 1716 3584 
Q 2034 3584 2315 3537 
Q 2597 3491 2834 3397 
z
" transform="scale(0.015625)"/>
       <path id="DejaVuSans-20" transform="scale(0.015625)"/>
       <path id="DejaVuSans-61" d="M 2194 1759 
Q 1497 1759 1228 1600 
Q 959 1441 959 1056 
Q 959 750 1161 570 
Q 1363 391 1709 391 
Q 2188 391 2477 730 
Q 2766 1069 2766 1631 
L 2766 1759 
L 2194 1759 
z
M 3341 1997 
L 3341 0 
L 2766 0 
L 2766 531 
Q 2569 213 2275 61 
Q 1981 -91 1556 -91 
Q 1019 -91 701 211 
Q 384 513 384 1019 
Q 384 1609 779 1909 
Q 1175 2209 1959 2209 
L 2766 2209 
L 2766 2266 
Q 2766 2663 2505 2880 
Q 2244 3097 1772 3097 
Q 1472 3097 1187 3025 
Q 903 2953 641 2809 
L 641 3341 
Q 956 3463 1253 3523 
Q 1550 3584 1831 3584 
Q 2591 3584 2966 3190 
Q 3341 2797 3341 1997 
z
" transform="scale(0.015625)"/>
       <path id="DejaVuSans-64" d="M 2906 2969 
L 2906 4863 
L 3481 4863 
L 3481 0 
L 2906 0 
L 2906 525 
Q 2725 213 2448 61 
Q 2172 -91 1784 -91 
Q 1150 -91 751 415 
Q 353 922 353 1747 
Q 353 2572 751 3078 
Q 1150 3584 1784 3584 
Q 2172 3584 2448 3432 
Q 2725 3281 2906 2969 
z
M 947 1747 
Q 947 1113 1208 752 
Q 1469 391 1925 391 
Q 2381 391 2643 752 
Q 2906 1113 2906 1747 
Q 2906 2381 2643 2742 
Q 2381 3103 1925 3103 
Q 1469 3103 1208 2742 
Q 947 2381 947 1747 
z
" transform="scale(0.015625)"/>
       <path id="DejaVuSans-6c" d="M 603 4863 
L 1178 4863 
L 1178 0 
L 603 0 
L 603 4863 
z
" transform="scale(0.015625)"/>
       <path id="DejaVuSans-74" d="M 1172 4494 
L 1172 3500 
L 2356 3500 
L 2356 3053 
L 1172 3053 
L 1172 1153 
Q 1172 725 1289 603 
Q 1406 481 1766 481 
L 2356 481 
L 2356 0 
L 1766 0 
Q 1100 0 847 248 
Q 594 497 594 1153 
L 594 3053 
L 172 3053 
L 172 3500 
L 594 3500 
L 594 4494 
L 1172 4494 
z
" transform="scale(0.015625)"/>
       <path id="DejaVuSans-69" d="M 603 3500 
L 1178 3500 
L 1178 0 
L 603 0 
L 603 3500 
z
M 603 4863 
L 1178 4863 
L 1178 4134 
L 603 4134 
L 603 4863 
z
" transform="scale(0.015625)"/>
       <path id="DejaVuSans-6d" d="M 3328 2828 
Q 3544 3216 3844 3400 
Q 4144 3584 4550 3584 
Q 5097 3584 5394 3201 
Q 5691 2819 5691 2113 
L 5691 0 
L 5113 0 
L 5113 2094 
Q 5113 2597 4934 2840 
Q 4756 3084 4391 3084 
Q 3944 3084 3684 2787 
Q 3425 2491 3425 1978 
L 3425 0 
L 2847 0 
L 2847 2094 
Q 2847 2600 2669 2842 
Q 2491 3084 2119 3084 
Q 1678 3084 1418 2786 
Q 1159 2488 1159 1978 
L 1159 0 
L 581 0 
L 581 3500 
L 1159 3500 
L 1159 2956 
Q 1356 3278 1631 3431 
Q 1906 3584 2284 3584 
Q 2666 3584 2933 3390 
Q 3200 3197 3328 2828 
z
" transform="scale(0.015625)"/>
      </defs>
      <use xlink:href="#DejaVuSans-70"/>
      <use xlink:href="#DejaVuSans-65" transform="translate(63.476562 0)"/>
      <use xlink:href="#DejaVuSans-72" transform="translate(125 0)"/>
      <use xlink:href="#DejaVuSans-63" transform="translate(163.863281 0)"/>
      <use xlink:href="#DejaVuSans-6f" transform="translate(218.84375 0)"/>
      <use xlink:href="#DejaVuSans-72" transform="translate(280.025391 0)"/>
      <use xlink:href="#DejaVuSans-73" transform="translate(321.138672 0)"/>
      <use xlink:href="#DejaVuSans-6f" transform="translate(373.238281 0)"/>
      <use xlink:href="#DejaVuSans-20" transform="translate(434.419922 0)"/>
      <use xlink:href="#DejaVuSans-61" transform="translate(466.207031 0)"/>
      <use xlink:href="#DejaVuSans-64" transform="translate(527.486328 0)"/>
      <use xlink:href="#DejaVuSans-20" transform="translate(590.962891 0)"/>
      <use xlink:href="#DejaVuSans-61" transform="translate(622.75 0)"/>
      <use xlink:href="#DejaVuSans-6c" transform="translate(684.029297 0)"/>
      <use xlink:href="#DejaVuSans-74" transform="translate(711.8125 0)"/>
      <use xlink:href="#DejaVuSans-61" transform="translate(751.021484 0)"/>
      <use xlink:href="#DejaVuSans-20" transform="translate(812.300781 0)"/>
      <use xlink:href="#DejaVuSans-73" transform="translate(844.087891 0)"/>
      <use xlink:href="#DejaVuSans-69" transform="translate(896.1875 0)"/>
      <use xlink:href="#DejaVuSans-6d" transform="translate(923.970703 0)"/>
      <use xlink:href="#DejaVuSans-6d" transform="translate(1021.382812 0)"/>
      <use xlink:href="#DejaVuSans-65" transform="translate(1118.794922 0)"/>
      <use xlink:href="#DejaVuSans-74" transform="translate(1180.318359 0)"/>
      <use xlink:href="#DejaVuSans-72" transform="translate(1219.527344 0)"/>
      <use xlink:href="#DejaVuSans-69" transform="translate(1260.640625 0)"/>
      <use xlink:href="#DejaVuSans-61" transform="translate(1288.423828 0)"/>
     </g>
    </g>
   </g>
   <g id="matplotlib.axis_2">
    <g id="ytick_1">
     <g id="line2d_9">
      <path d="M 48.982813 390.631539 
L 696.262812 390.631539 
" clip-path="url(#p1f7836ab9c)" style="fill: none; stroke: #b0b0b0; stroke-opacity: 0.13; stroke-width: 0.8; stroke-linecap: square"/>
     </g>
     <g id="line2d_10">
      <defs>
       <path id="maf48e22eca" d="M 0 0 
L -3.5 0 
" style="stroke: #000000; stroke-width: 0.8"/>
      </defs>
      <g>
       <use xlink:href="#maf48e22eca" x="48.982813" y="390.631539" style="stroke: #000000; stroke-width: 0.8"/>
      </g>
     </g>
     <g id="text_10">
      <!-- −10 -->
      <g transform="translate(20.878125 394.430757) scale(0.1 -0.1)">
       <defs>
        <path id="DejaVuSans-2212" d="M 678 2272 
L 4684 2272 
L 4684 1741 
L 678 1741 
L 678 2272 
z
" transform="scale(0.015625)"/>
        <path id="DejaVuSans-31" d="M 794 531 
L 1825 531 
L 1825 4091 
L 703 3866 
L 703 4441 
L 1819 4666 
L 2450 4666 
L 2450 531 
L 3481 531 
L 3481 0 
L 794 0 
L 794 531 
z
" transform="scale(0.015625)"/>
        <path id="DejaVuSans-30" d="M 2034 4250 
Q 1547 4250 1301 3770 
Q 1056 3291 1056 2328 
Q 1056 1369 1301 889 
Q 1547 409 2034 409 
Q 2525 409 2770 889 
Q 3016 1369 3016 2328 
Q 3016 3291 2770 3770 
Q 2525 4250 2034 4250 
z
M 2034 4750 
Q 2819 4750 3233 4129 
Q 3647 3509 3647 2328 
Q 3647 1150 3233 529 
Q 2819 -91 2034 -91 
Q 1250 -91 836 529 
Q 422 1150 422 2328 
Q 422 3509 836 4129 
Q 1250 4750 2034 4750 
z
" transform="scale(0.015625)"/>
       </defs>
       <use xlink:href="#DejaVuSans-2212"/>
       <use xlink:href="#DejaVuSans-31" transform="translate(83.789062 0)"/>
       <use xlink:href="#DejaVuSans-30" transform="translate(147.412109 0)"/>
      </g>
     </g>
    </g>
    <g id="ytick_2">
     <g id="line2d_11">
      <path d="M 48.982813 312.363303 
L 696.262812 312.363303 
" clip-path="url(#p1f7836ab9c)" style="fill: none; stroke: #b0b0b0; stroke-opacity: 0.13; stroke-width: 0.8; stroke-linecap: square"/>
     </g>
     <g id="line2d_12">
      <g>
       <use xlink:href="#maf48e22eca" x="48.982813" y="312.363303" style="stroke: #000000; stroke-width: 0.8"/>
      </g>
     </g>
     <g id="text_11">
      <!-- −5 -->
      <g transform="translate(27.240625 316.162522) scale(0.1 -0.1)">
       <defs>
        <path id="DejaVuSans-35" d="M 691 4666 
L 3169 4666 
L 3169 4134 
L 1269 4134 
L 1269 2991 
Q 1406 3038 1543 3061 
Q 1681 3084 1819 3084 
Q 2600 3084 3056 2656 
Q 3513 2228 3513 1497 
Q 3513 744 3044 326 
Q 2575 -91 1722 -91 
Q 1428 -91 1123 -41 
Q 819 9 494 109 
L 494 744 
Q 775 591 1075 516 
Q 1375 441 1709 441 
Q 2250 441 2565 725 
Q 2881 1009 2881 1497 
Q 2881 1984 2565 2268 
Q 2250 2553 1709 2553 
Q 1456 2553 1204 2497 
Q 953 2441 691 2322 
L 691 4666 
z
" transform="scale(0.015625)"/>
       </defs>
       <use xlink:href="#DejaVuSans-2212"/>
       <use xlink:href="#DejaVuSans-35" transform="translate(83.789062 0)"/>
      </g>
     </g>
    </g>
    <g id="ytick_3">
     <g id="line2d_13">
      <path d="M 48.982813 234.095068 
L 696.262812 234.095068 
" clip-path="url(#p1f7836ab9c)" style="fill: none; stroke: #b0b0b0; stroke-opacity: 0.13; stroke-width: 0.8; stroke-linecap: square"/>
     </g>
     <g id="line2d_14">
      <g>
       <use xlink:href="#maf48e22eca" x="48.982813" y="234.095068" style="stroke: #000000; stroke-width: 0.8"/>
      </g>
     </g>
     <g id="text_12">
      <!-- 0 -->
      <g transform="translate(35.620312 237.894287) scale(0.1 -0.1)">
       <use xlink:href="#DejaVuSans-30"/>
      </g>
     </g>
    </g>
    <g id="ytick_4">
     <g id="line2d_15">
      <path d="M 48.982813 155.826833 
L 696.262812 155.826833 
" clip-path="url(#p1f7836ab9c)" style="fill: none; stroke: #b0b0b0; stroke-opacity: 0.13; stroke-width: 0.8; stroke-linecap: square"/>
     </g>
     <g id="line2d_16">
      <g>
       <use xlink:href="#maf48e22eca" x="48.982813" y="155.826833" style="stroke: #000000; stroke-width: 0.8"/>
      </g>
     </g>
     <g id="text_13">
      <!-- 5 -->
      <g transform="translate(35.620312 159.626051) scale(0.1 -0.1)">
       <use xlink:href="#DejaVuSans-35"/>
      </g>
     </g>
    </g>
    <g id="ytick_5">
     <g id="line2d_17">
      <path d="M 48.982813 77.558597 
L 696.262812 77.558597 
" clip-path="url(#p1f7836ab9c)" style="fill: none; stroke: #b0b0b0; stroke-opacity: 0.13; stroke-width: 0.8; stroke-linecap: square"/>
     </g>
     <g id="line2d_18">
      <g>
       <use xlink:href="#maf48e22eca" x="48.982813" y="77.558597" style="stroke: #000000; stroke-width: 0.8"/>
      </g>
     </g>
     <g id="text_14">
      <!-- 10 -->
      <g transform="translate(29.257812 81.357816) scale(0.1 -0.1)">
       <use xlink:href="#DejaVuSans-31"/>
       <use xlink:href="#DejaVuSans-30" transform="translate(63.623047 0)"/>
      </g>
     </g>
    </g>
    <g id="text_15">
     <!-- energia (eV) -->
     <g transform="translate(14.798437 261.086344) rotate(-90) scale(0.1 -0.1)">
      <defs>
       <path id="DejaVuSans-6e" d="M 3513 2113 
L 3513 0 
L 2938 0 
L 2938 2094 
Q 2938 2591 2744 2837 
Q 2550 3084 2163 3084 
Q 1697 3084 1428 2787 
Q 1159 2491 1159 1978 
L 1159 0 
L 581 0 
L 581 3500 
L 1159 3500 
L 1159 2956 
Q 1366 3272 1645 3428 
Q 1925 3584 2291 3584 
Q 2894 3584 3203 3211 
Q 3513 2838 3513 2113 
z
" transform="scale(0.015625)"/>
       <path id="DejaVuSans-67" d="M 2906 1791 
Q 2906 2416 2648 2759 
Q 2391 3103 1925 3103 
Q 1463 3103 1205 2759 
Q 947 2416 947 1791 
Q 947 1169 1205 825 
Q 1463 481 1925 481 
Q 2391 481 2648 825 
Q 2906 1169 2906 1791 
z
M 3481 434 
Q 3481 -459 3084 -895 
Q 2688 -1331 1869 -1331 
Q 1566 -1331 1297 -1286 
Q 1028 -1241 775 -1147 
L 775 -588 
Q 1028 -725 1275 -790 
Q 1522 -856 1778 -856 
Q 2344 -856 2625 -561 
Q 2906 -266 2906 331 
L 2906 616 
Q 2728 306 2450 153 
Q 2172 0 1784 0 
Q 1141 0 747 490 
Q 353 981 353 1791 
Q 353 2603 747 3093 
Q 1141 3584 1784 3584 
Q 2172 3584 2450 3431 
Q 2728 3278 2906 2969 
L 2906 3500 
L 3481 3500 
L 3481 434 
z
" transform="scale(0.015625)"/>
       <path id="DejaVuSans-28" d="M 1984 4856 
Q 1566 4138 1362 3434 
Q 1159 2731 1159 2009 
Q 1159 1288 1364 580 
Q 1569 -128 1984 -844 
L 1484 -844 
Q 1016 -109 783 600 
Q 550 1309 550 2009 
Q 550 2706 781 3412 
Q 1013 4119 1484 4856 
L 1984 4856 
z
" transform="scale(0.015625)"/>
       <path id="DejaVuSans-56" d="M 1831 0 
L 50 4666 
L 709 4666 
L 2188 738 
L 3669 4666 
L 4325 4666 
L 2547 0 
L 1831 0 
z
" transform="scale(0.015625)"/>
       <path id="DejaVuSans-29" d="M 513 4856 
L 1013 4856 
Q 1481 4119 1714 3412 
Q 1947 2706 1947 2009 
Q 1947 1309 1714 600 
Q 1481 -109 1013 -844 
L 513 -844 
Q 928 -128 1133 580 
Q 1338 1288 1338 2009 
Q 1338 2731 1133 3434 
Q 928 4138 513 4856 
z
" transform="scale(0.015625)"/>
      </defs>
      <use xlink:href="#DejaVuSans-65"/>
      <use xlink:href="#DejaVuSans-6e" transform="translate(61.523438 0)"/>
      <use xlink:href="#DejaVuSans-65" transform="translate(124.902344 0)"/>
      <use xlink:href="#DejaVuSans-72" transform="translate(186.425781 0)"/>
      <use xlink:href="#DejaVuSans-67" transform="translate(225.789062 0)"/>
      <use xlink:href="#DejaVuSans-69" transform="translate(289.265625 0)"/>
      <use xlink:href="#DejaVuSans-61" transform="translate(317.048828 0)"/>
      <use xlink:href="#DejaVuSans-20" transform="translate(378.328125 0)"/>
      <use xlink:href="#DejaVuSans-28" transform="translate(410.115234 0)"/>
      <use xlink:href="#DejaVuSans-65" transform="translate(449.128906 0)"/>
      <use xlink:href="#DejaVuSans-56" transform="translate(510.652344 0)"/>
      <use xlink:href="#DejaVuSans-29" transform="translate(579.060547 0)"/>
     </g>
    </g>
   </g>
   <g id="line2d_19">
    <path d="M 48.982813 398.458362 
L 58.482586 390.248368 
L 66.255127 383.813113 
L 73.164053 378.364235 
L 79.641171 373.531441 
L 85.686482 369.29635 
L 91.299984 365.63016 
L 96.481678 362.496051 
L 101.663373 359.622389 
L 106.413259 357.233935 
L 111.163146 355.09627 
L 115.481225 353.383421 
L 119.799303 351.901937 
L 124.117382 350.663298 
L 128.003653 349.76564 
L 131.889924 349.082349 
L 135.776195 348.621791 
L 139.662466 348.392334 
L 143.980544 348.380616 
L 151.321278 348.573087 
L 159.09382 349.006998 
L 167.298169 349.697593 
L 175.934327 350.654238 
L 185.4341 351.942719 
L 195.797489 353.584052 
L 207.456301 355.660465 
L 222.569577 358.595436 
L 236.819237 361.550709 
L 240.705508 362.650393 
L 244.591778 363.971689 
L 248.909857 365.669182 
L 253.659744 367.775541 
L 259.273246 370.526962 
L 265.750364 373.960491 
L 276.113753 379.751606 
L 286.90895 385.723428 
L 293.386068 389.056481 
L 298.567762 391.491218 
L 303.317649 393.486959 
L 307.635728 395.065526 
L 311.521999 396.264835 
L 315.408269 397.228367 
L 318.862732 397.86661 
L 322.317195 398.281097 
L 325.771658 398.454199 
L 328.362506 398.388744 
L 330.953353 398.093123 
L 333.5442 397.578206 
L 336.135047 396.857629 
L 339.157702 395.775214 
L 342.180358 394.453083 
L 345.634821 392.67632 
L 349.089283 390.647058 
L 352.975554 388.102565 
L 357.293633 385.004493 
L 362.475328 380.996558 
L 369.384253 375.33921 
L 383.633913 363.577362 
L 388.815608 359.615634 
L 393.133686 356.569956 
L 397.019957 354.083411 
L 400.47442 352.114244 
L 403.928883 350.405656 
L 406.951538 349.149806 
L 409.974193 348.139858 
L 412.565041 347.486319 
L 415.155888 347.042986 
L 417.746735 346.823494 
L 421.201198 346.819128 
L 427.246508 347.019231 
L 433.723626 347.451579 
L 441.06436 348.166268 
L 449.700518 349.239124 
L 461.35933 350.930049 
L 482.517916 354.026752 
L 491.154073 355.047665 
L 498.494807 355.701186 
L 504.971925 356.066576 
L 511.017235 356.193202 
L 520.948817 356.097087 
L 532.175821 355.769826 
L 545.130057 355.167724 
L 561.970564 354.147652 
L 604.719544 351.450429 
L 696.262812 346.801327 
L 696.262812 346.801327 
" clip-path="url(#p1f7836ab9c)" style="fill: none; stroke: #1f77b4; stroke-width: 1.75; stroke-linecap: square"/>
   </g>
   <g id="line2d_20">
    <path d="M 48.982813 337.409139 
L 58.482586 330.706151 
L 66.686935 325.177668 
L 74.027669 320.48951 
L 80.936595 316.341618 
L 87.413713 312.719705 
L 93.459023 309.59981 
L 99.072526 306.95035 
L 104.25422 304.734025 
L 109.435915 302.753992 
L 114.185801 301.159949 
L 118.935688 299.789745 
L 123.685574 298.655474 
L 128.003653 297.839229 
L 132.321732 297.23705 
L 136.63981 296.858024 
L 140.957889 296.711237 
L 147.866815 296.788831 
L 155.639357 297.085217 
L 163.843706 297.614444 
L 172.911672 298.428649 
L 182.411445 299.504586 
L 193.206642 300.956169 
L 205.72907 302.8736 
L 222.569577 305.699618 
L 237.682853 308.410702 
L 242.000931 309.474585 
L 246.750818 310.874544 
L 251.932512 312.635886 
L 257.977823 314.939928 
L 265.318556 317.998089 
L 277.840985 323.519797 
L 288.204374 327.986018 
L 295.113299 330.715962 
L 300.726802 332.699779 
L 305.908496 334.290132 
L 310.658383 335.50451 
L 314.976462 336.375746 
L 318.862732 336.947628 
L 322.749003 337.298373 
L 326.635274 337.408404 
L 329.657929 337.283029 
L 332.680584 336.952477 
L 336.135047 336.341983 
L 339.58951 335.503904 
L 343.475781 334.315856 
L 347.362052 332.897718 
L 351.680131 331.089465 
L 356.430017 328.866267 
L 362.04352 325.997041 
L 369.816061 321.756176 
L 384.497529 313.702251 
L 390.542839 310.680512 
L 395.292726 308.540639 
L 399.610804 306.82581 
L 403.497075 305.506147 
L 407.383346 304.430209 
L 410.837809 303.703229 
L 414.292272 303.214608 
L 417.314927 302.999532 
L 420.76939 302.983 
L 426.8147 303.167815 
L 433.291819 303.586279 
L 440.632552 304.288356 
L 449.26871 305.35062 
L 460.927522 307.034529 
L 482.517916 310.19654 
L 491.154073 311.217453 
L 498.494807 311.870975 
L 504.971925 312.236364 
L 511.017235 312.362991 
L 518.789777 312.265424 
L 527.425935 311.930055 
L 536.925708 311.329587 
L 547.720905 310.415518 
L 561.106949 309.047643 
L 602.560504 304.642282 
L 663.877222 299.450872 
L 696.262812 296.709656 
L 696.262812 296.709656 
" clip-path="url(#p1f7836ab9c)" style="fill: none; stroke: #ff7f0e; stroke-width: 1.75; stroke-linecap: square"/>
   </g>
   <g id="line2d_21">
    <path d="M 48.982813 287.317468 
L 60.641625 283.187725 
L 71.005014 279.752455 
L 80.072979 276.977308 
L 88.277329 274.686899 
L 96.049871 272.73792 
L 103.390604 271.117601 
L 110.29953 269.807477 
L 117.208456 268.723722 
L 123.685574 267.928965 
L 130.162692 267.363185 
L 136.208003 267.054525 
L 142.253313 266.969131 
L 149.594047 267.104836 
L 157.798396 267.485601 
L 167.298169 268.161883 
L 179.38879 269.264774 
L 210.910764 272.259044 
L 220.410538 272.867295 
L 228.614887 273.169722 
L 235.092005 273.210483 
L 238.11466 272.994895 
L 241.137316 272.551173 
L 244.159971 271.89572 
L 247.614434 270.90841 
L 251.068897 269.690462 
L 254.955167 268.075073 
L 259.273246 266.016589 
L 264.023133 263.487002 
L 269.636635 260.223771 
L 276.977369 255.675704 
L 291.658837 246.509481 
L 297.272339 243.291722 
L 302.022225 240.815039 
L 306.340304 238.816128 
L 310.226575 237.2637 
L 313.681038 236.10915 
L 317.135501 235.192233 
L 320.158156 234.604113 
L 323.180811 234.233081 
L 326.203466 234.095538 
L 329.226121 234.204312 
L 332.248776 234.551018 
L 335.271432 235.119717 
L 338.725895 236.021035 
L 342.180358 237.16768 
L 345.634821 238.535852 
L 349.521091 240.310209 
L 353.83917 242.534004 
L 358.589057 245.233221 
L 364.202559 248.682794 
L 371.975101 253.74183 
L 385.792953 262.765381 
L 391.406455 266.15654 
L 396.156342 268.787501 
L 400.47442 270.934268 
L 404.360691 272.627102 
L 407.815154 273.913111 
L 411.269617 274.968462 
L 414.292272 275.683975 
L 417.314927 276.188726 
L 421.201198 276.572374 
L 438.905321 278.050592 
L 455.31402 279.197061 
L 470.427295 280.034867 
L 485.108763 280.624421 
L 498.926615 280.956951 
L 511.880851 281.055267 
L 518.789777 280.927302 
L 526.130511 280.572592 
L 534.334861 279.950264 
L 543.834634 278.991839 
L 555.493446 277.57 
L 596.515194 272.33128 
L 606.014967 271.483917 
L 635.80971 269.187913 
L 662.149991 267.374741 
L 686.331231 265.928027 
L 696.262812 265.402362 
L 696.262812 265.402362 
" clip-path="url(#p1f7836ab9c)" style="fill: none; stroke: #2ca02c; stroke-width: 1.75; stroke-linecap: square"/>
   </g>
   <g id="line2d_22">
    <path d="M 48.982813 287.317468 
L 60.641625 281.42083 
L 70.141398 276.861303 
L 78.345748 273.164009 
L 85.686482 270.087265 
L 92.595408 267.423938 
L 99.072526 265.158451 
L 105.117836 263.267864 
L 111.163146 261.613577 
L 116.776648 260.306243 
L 122.390151 259.235389 
L 127.571845 258.47043 
L 132.75354 257.932793 
L 137.503426 257.650242 
L 142.253313 257.576943 
L 149.594047 257.712648 
L 157.798396 258.093413 
L 167.298169 258.769695 
L 179.38879 259.872586 
L 210.910764 262.866855 
L 220.410538 263.475106 
L 228.614887 263.777533 
L 235.092005 263.822784 
L 238.546468 263.621086 
L 242.000931 263.195256 
L 245.887202 262.471459 
L 249.773473 261.514042 
L 254.091552 260.208472 
L 258.841438 258.520377 
L 264.023133 256.432938 
L 270.068443 253.754895 
L 279.136408 249.457023 
L 291.658837 243.530022 
L 297.704147 240.905478 
L 302.885841 238.882524 
L 307.635728 237.268647 
L 311.953806 236.043087 
L 315.840077 235.16789 
L 319.726348 234.535985 
L 323.180811 234.199958 
L 326.635274 234.09555 
L 330.521545 234.22672 
L 334.407816 234.577706 
L 338.725895 235.203219 
L 343.043973 236.052366 
L 347.79386 237.214734 
L 352.975554 238.717409 
L 358.589057 240.572601 
L 365.497983 243.100747 
L 374.997756 246.839508 
L 390.542839 252.966151 
L 397.451765 255.43471 
L 403.065267 257.222515 
L 408.246962 258.647888 
L 412.996849 259.726663 
L 417.314927 260.489248 
L 424.223853 261.405212 
L 445.382439 264.033574 
L 460.063907 265.640475 
L 472.586335 266.796537 
L 483.81334 267.618985 
L 494.176728 268.164224 
L 504.108309 268.465428 
L 513.176275 268.524414 
L 520.085201 268.347077 
L 527.425935 267.934807 
L 535.630284 267.246467 
L 545.130057 266.216059 
L 557.220678 264.665585 
L 588.310845 260.569455 
L 597.810618 259.608235 
L 606.446775 258.961951 
L 635.80971 257.099303 
L 658.695528 255.863013 
L 678.990498 254.987537 
L 696.262812 254.444809 
L 696.262812 254.444809 
" clip-path="url(#p1f7836ab9c)" style="fill: none; stroke: #d62728; stroke-width: 1.75; stroke-linecap: square"/>
   </g>
   <g id="line2d_23">
    <path d="M 48.982813 171.48048 
L 64.959704 176.236024 
L 77.482132 179.742634 
L 88.709137 182.656057 
L 98.640718 185.007918 
L 107.708683 186.938252 
L 116.344841 188.557931 
L 124.54919 189.876818 
L 132.321732 190.909819 
L 140.094273 191.714445 
L 150.025855 192.470249 
L 162.548283 193.200348 
L 178.525174 193.895116 
L 219.115114 195.555861 
L 231.637542 196.353568 
L 238.546468 196.962363 
L 244.591778 197.741538 
L 251.068897 198.798313 
L 258.841438 200.302731 
L 268.773019 202.473839 
L 294.249684 208.162339 
L 302.022225 209.600401 
L 308.499344 210.583631 
L 314.544654 211.279197 
L 320.158156 211.697789 
L 325.339851 211.861929 
L 331.385161 211.798785 
L 338.294087 211.496839 
L 345.634821 210.945925 
L 353.83917 210.0982 
L 363.338943 208.882097 
L 375.861372 207.035819 
L 402.201652 203.088698 
L 411.701425 201.923158 
L 419.905774 201.132608 
L 444.518823 198.901178 
L 466.541025 196.990727 
L 480.358877 196.009152 
L 492.017689 195.393946 
L 502.381078 195.058739 
L 512.312659 194.962013 
L 523.107856 195.100483 
L 535.630284 195.496118 
L 552.902599 196.290587 
L 582.265534 197.661588 
L 594.787963 198.008367 
L 605.583159 198.089635 
L 618.969203 197.947585 
L 632.787055 197.577193 
L 647.036715 196.973561 
L 662.149991 196.106363 
L 677.695074 194.991808 
L 694.103773 193.594891 
L 696.262812 193.395586 
L 696.262812 193.395586 
" clip-path="url(#p1f7836ab9c)" style="fill: none; stroke: #9467bd; stroke-width: 1.75; stroke-linecap: square"/>
   </g>
   <g id="line2d_24">
    <path d="M 48.982813 126.084903 
L 58.914394 132.264867 
L 67.550551 137.385702 
L 75.323093 141.736658 
L 82.232019 145.359342 
L 88.709137 148.515458 
L 94.754447 151.226731 
L 100.799757 153.688815 
L 106.413259 155.732409 
L 111.594954 157.395579 
L 116.776648 158.830014 
L 121.958343 160.021666 
L 126.708229 160.888737 
L 131.458116 161.529179 
L 136.208003 161.93217 
L 140.526081 162.083367 
L 146.139584 162.02977 
L 153.04851 161.74675 
L 160.389243 161.224442 
L 169.025401 160.373922 
L 179.38879 159.108879 
L 195.797489 156.837745 
L 211.77438 154.704674 
L 221.274153 153.653615 
L 229.478503 152.963442 
L 238.11466 152.483218 
L 272.65929 150.843797 
L 292.95426 150.105327 
L 309.794767 149.707558 
L 324.908043 149.566571 
L 330.521545 149.665498 
L 335.271432 150.011551 
L 340.021318 150.577836 
L 345.203013 151.413866 
L 351.248323 152.629859 
L 358.157249 154.266172 
L 366.793406 156.555226 
L 388.815608 162.51295 
L 395.724534 164.090684 
L 401.769844 165.237744 
L 406.951538 166.001559 
L 411.701425 166.491 
L 416.451311 166.750025 
L 420.76939 166.76854 
L 425.951085 166.574579 
L 431.564587 166.139879 
L 437.609897 165.448142 
L 444.518823 164.426291 
L 452.723173 162.975513 
L 464.813793 160.579317 
L 480.358877 157.534171 
L 488.563226 156.164411 
L 495.472152 155.239554 
L 501.517462 154.654264 
L 507.130965 154.336441 
L 512.312659 154.262638 
L 522.24424 154.396237 
L 533.471245 154.776636 
L 546.857289 155.467201 
L 565.856835 156.698731 
L 592.628923 158.417995 
L 606.014967 159.047514 
L 647.468523 160.610736 
L 682.876768 161.729173 
L 696.262812 162.088292 
L 696.262812 162.088292 
" clip-path="url(#p1f7836ab9c)" style="fill: none; stroke: #8c564b; stroke-width: 1.75; stroke-linecap: square"/>
   </g>
   <g id="line2d_25">
    <path d="M 48.982813 85.385421 
L 58.482586 90.405761 
L 67.118743 94.71757 
L 74.891285 98.353636 
L 82.232019 101.543659 
L 89.140945 104.303717 
L 95.618063 106.656522 
L 101.663373 108.630035 
L 107.708683 110.372657 
L 113.322185 111.770302 
L 118.935688 112.942677 
L 124.54919 113.877176 
L 129.730885 114.517753 
L 134.912579 114.934984 
L 140.094273 115.118951 
L 145.707776 115.078293 
L 152.616702 114.80371 
L 159.957436 114.278904 
L 168.161785 113.454498 
L 177.22975 112.31354 
L 188.888563 110.605123 
L 223.433193 105.37463 
L 232.501158 104.313297 
L 255.386975 101.850311 
L 282.590871 98.869052 
L 295.113299 97.732108 
L 305.476688 97.001411 
L 314.976462 96.549271 
L 323.612619 96.355729 
L 329.226121 96.416615 
L 332.680584 96.695849 
L 336.566855 97.239269 
L 340.453126 98.00263 
L 344.771205 99.079931 
L 349.521091 100.505968 
L 354.702786 102.300235 
L 360.748096 104.635216 
L 368.952446 108.06748 
L 385.792953 115.180081 
L 391.838263 117.465893 
L 397.019957 119.202797 
L 401.769844 120.56391 
L 406.087923 121.571946 
L 409.974193 122.264628 
L 413.860464 122.729466 
L 417.314927 122.932215 
L 421.201198 122.927472 
L 426.382893 122.689404 
L 431.564587 122.229104 
L 437.178089 121.514167 
L 443.655207 120.457944 
L 450.995941 119.03155 
L 460.927522 116.859053 
L 480.790684 112.460067 
L 488.563226 111.006702 
L 495.040344 110.022915 
L 500.653847 109.385526 
L 505.835541 109.008984 
L 510.585428 108.868586 
L 518.789777 108.930245 
L 529.584974 109.225348 
L 542.107402 109.802884 
L 558.084293 110.779006 
L 596.947002 113.250029 
L 612.060277 113.893959 
L 652.650217 115.392757 
L 687.626655 116.465353 
L 696.262812 116.692715 
L 696.262812 116.692715 
" clip-path="url(#p1f7836ab9c)" style="fill: none; stroke: #e377c2; stroke-width: 1.75; stroke-linecap: square"/>
   </g>
   <g id="line2d_26">
    <path d="M 48.982813 43.120574 
L 58.914394 47.793205 
L 67.982359 51.815996 
L 76.186708 55.213384 
L 83.95925 58.185781 
L 91.299984 60.744941 
L 98.20891 62.909786 
L 104.686028 64.70507 
L 110.731338 66.160116 
L 116.776648 67.387436 
L 122.390151 68.310567 
L 128.003653 69.013339 
L 133.617155 69.484195 
L 138.79885 69.702995 
L 144.412352 69.713538 
L 152.184894 69.501968 
L 160.389243 69.048655 
L 169.457209 68.315829 
L 179.820598 67.241313 
L 192.343026 65.706069 
L 239.841892 59.643059 
L 250.205281 58.230517 
L 264.886748 55.977526 
L 286.477142 52.672904 
L 296.840531 51.320814 
L 305.476688 50.409484 
L 313.24923 49.807682 
L 320.589964 49.468615 
L 327.067082 49.386311 
L 330.521545 49.53677 
L 334.407816 49.947757 
L 338.294087 50.591855 
L 342.612165 51.552089 
L 346.930244 52.738328 
L 351.680131 54.265417 
L 357.293633 56.312814 
L 364.202559 59.092968 
L 375.861372 64.083366 
L 385.361145 68.047372 
L 391.838263 70.504952 
L 397.019957 72.241856 
L 401.769844 73.602969 
L 406.087923 74.611005 
L 409.974193 75.303686 
L 413.860464 75.768525 
L 417.314927 75.971274 
L 421.201198 75.972465 
L 426.8147 75.763749 
L 432.860011 75.315491 
L 439.768937 74.565464 
L 447.541478 73.484134 
L 457.473059 71.856361 
L 485.108763 67.17868 
L 492.881305 66.169657 
L 499.358423 65.538773 
L 505.403733 65.164749 
L 511.017235 65.036045 
L 523.971472 65.134669 
L 539.084747 65.475776 
L 557.220678 66.117676 
L 586.583613 67.41824 
L 664.740838 71.073786 
L 696.262812 72.862503 
L 696.262812 72.862503 
" clip-path="url(#p1f7836ab9c)" style="fill: none; stroke: #7f7f7f; stroke-width: 1.75; stroke-linecap: square"/>
   </g>
   <g id="line2d_27">
    <path d="M 48.982813 429.765656 
L 48.982813 30.597656 
" clip-path="url(#p1f7836ab9c)" style="fill: none; stroke: #1f77b4; stroke-opacity: 0.45; stroke-width: 0.55; stroke-linecap: square"/>
   </g>
   <g id="line2d_28">
    <path d="M 141.451384 429.765656 
L 141.451384 30.597656 
" clip-path="url(#p1f7836ab9c)" style="fill: none; stroke: #1f77b4; stroke-opacity: 0.45; stroke-width: 0.55; stroke-linecap: square"/>
   </g>
   <g id="line2d_29">
    <path d="M 233.919955 429.765656 
L 233.919955 30.597656 
" clip-path="url(#p1f7836ab9c)" style="fill: none; stroke: #1f77b4; stroke-opacity: 0.45; stroke-width: 0.55; stroke-linecap: square"/>
   </g>
   <g id="line2d_30">
    <path d="M 326.388527 429.765656 
L 326.388527 30.597656 
" clip-path="url(#p1f7836ab9c)" style="fill: none; stroke: #1f77b4; stroke-opacity: 0.45; stroke-width: 0.55; stroke-linecap: square"/>
   </g>
   <g id="line2d_31">
    <path d="M 418.857098 429.765656 
L 418.857098 30.597656 
" clip-path="url(#p1f7836ab9c)" style="fill: none; stroke: #1f77b4; stroke-opacity: 0.45; stroke-width: 0.55; stroke-linecap: square"/>
   </g>
   <g id="line2d_32">
    <path d="M 511.32567 429.765656 
L 511.32567 30.597656 
" clip-path="url(#p1f7836ab9c)" style="fill: none; stroke: #1f77b4; stroke-opacity: 0.45; stroke-width: 0.55; stroke-linecap: square"/>
   </g>
   <g id="line2d_33">
    <path d="M 603.794241 429.765656 
L 603.794241 30.597656 
" clip-path="url(#p1f7836ab9c)" style="fill: none; stroke: #1f77b4; stroke-opacity: 0.45; stroke-width: 0.55; stroke-linecap: square"/>
   </g>
   <g id="line2d_34">
    <path d="M 696.262812 429.765656 
L 696.262812 30.597656 
" clip-path="url(#p1f7836ab9c)" style="fill: none; stroke: #1f77b4; stroke-opacity: 0.45; stroke-width: 0.55; stroke-linecap: square"/>
   </g>
   <g id="line2d_35">
    <path d="M 48.982813 234.095068 
L 696.262812 234.095068 
" clip-path="url(#p1f7836ab9c)" style="fill: none; stroke-dasharray: 3.33,1.44; stroke-dashoffset: 0; stroke: #1f77b4; stroke-width: 0.9"/>
   </g>
   <g id="patch_4">
    <path d="M 48.982813 429.765656 
L 48.982813 30.597656 
" style="fill: none; stroke: #000000; stroke-width: 0.8; stroke-linejoin: miter; stroke-linecap: square"/>
   </g>
   <g id="patch_5">
    <path d="M 696.262812 429.765656 
L 696.262812 30.597656 
" style="fill: none; stroke: #000000; stroke-width: 0.8; stroke-linejoin: miter; stroke-linecap: square"/>
   </g>
   <g id="patch_6">
    <path d="M 48.982813 429.765656 
L 696.262812 429.765656 
" style="fill: none; stroke: #000000; stroke-width: 0.8; stroke-linejoin: miter; stroke-linecap: square"/>
   </g>
   <g id="patch_7">
    <path d="M 48.982813 30.597656 
L 696.262812 30.597656 
" style="fill: none; stroke: #000000; stroke-width: 0.8; stroke-linejoin: miter; stroke-linecap: square"/>
   </g>
   <g id="text_16">
    <!-- gap diretto -->
    <g transform="translate(631.123371 223.763661) scale(0.093 -0.093)">
     <use xlink:href="#DejaVuSans-67"/>
     <use xlink:href="#DejaVuSans-61" transform="translate(63.476562 0)"/>
     <use xlink:href="#DejaVuSans-70" transform="translate(124.755859 0)"/>
     <use xlink:href="#DejaVuSans-20" transform="translate(188.232422 0)"/>
     <use xlink:href="#DejaVuSans-64" transform="translate(220.019531 0)"/>
     <use xlink:href="#DejaVuSans-69" transform="translate(283.496094 0)"/>
     <use xlink:href="#DejaVuSans-72" transform="translate(311.279297 0)"/>
     <use xlink:href="#DejaVuSans-65" transform="translate(350.142578 0)"/>
     <use xlink:href="#DejaVuSans-74" transform="translate(411.666016 0)"/>
     <use xlink:href="#DejaVuSans-74" transform="translate(450.875 0)"/>
     <use xlink:href="#DejaVuSans-6f" transform="translate(490.083984 0)"/>
    </g>
   </g>
   <g id="patch_8">
    <path d="M 392.290416 195.404725 
Q 360.310865 203.393155 329.307547 211.137724 
" style="fill: none; stroke: #000000; stroke-width: 0.9; stroke-linecap: round"/>
    <path d="M 333.236458 212.011599 
L 329.307547 211.137724 
L 332.363993 208.51892 
z
" style="fill: #1f77b4; stroke: #000000; stroke-width: 0.9; stroke-linecap: round"/>
   </g>
   <g id="text_17">
    <!-- CB bottom -->
    <g transform="translate(395.739955 191.047539) scale(0.09 -0.09)">
     <defs>
      <path id="DejaVuSans-43" d="M 4122 4306 
L 4122 3641 
Q 3803 3938 3442 4084 
Q 3081 4231 2675 4231 
Q 1875 4231 1450 3742 
Q 1025 3253 1025 2328 
Q 1025 1406 1450 917 
Q 1875 428 2675 428 
Q 3081 428 3442 575 
Q 3803 722 4122 1019 
L 4122 359 
Q 3791 134 3420 21 
Q 3050 -91 2638 -91 
Q 1578 -91 968 557 
Q 359 1206 359 2328 
Q 359 3453 968 4101 
Q 1578 4750 2638 4750 
Q 3056 4750 3426 4639 
Q 3797 4528 4122 4306 
z
" transform="scale(0.015625)"/>
      <path id="DejaVuSans-42" d="M 1259 2228 
L 1259 519 
L 2272 519 
Q 2781 519 3026 730 
Q 3272 941 3272 1375 
Q 3272 1813 3026 2020 
Q 2781 2228 2272 2228 
L 1259 2228 
z
M 1259 4147 
L 1259 2741 
L 2194 2741 
Q 2656 2741 2882 2914 
Q 3109 3088 3109 3444 
Q 3109 3797 2882 3972 
Q 2656 4147 2194 4147 
L 1259 4147 
z
M 628 4666 
L 2241 4666 
Q 2963 4666 3353 4366 
Q 3744 4066 3744 3513 
Q 3744 3084 3544 2831 
Q 3344 2578 2956 2516 
Q 3422 2416 3680 2098 
Q 3938 1781 3938 1306 
Q 3938 681 3513 340 
Q 3088 0 2303 0 
L 628 0 
L 628 4666 
z
" transform="scale(0.015625)"/>
      <path id="DejaVuSans-62" d="M 3116 1747 
Q 3116 2381 2855 2742 
Q 2594 3103 2138 3103 
Q 1681 3103 1420 2742 
Q 1159 2381 1159 1747 
Q 1159 1113 1420 752 
Q 1681 391 2138 391 
Q 2594 391 2855 752 
Q 3116 1113 3116 1747 
z
M 1159 2969 
Q 1341 3281 1617 3432 
Q 1894 3584 2278 3584 
Q 2916 3584 3314 3078 
Q 3713 2572 3713 1747 
Q 3713 922 3314 415 
Q 2916 -91 2278 -91 
Q 1894 -91 1617 61 
Q 1341 213 1159 525 
L 1159 0 
L 581 0 
L 581 4863 
L 1159 4863 
L 1159 2969 
z
" transform="scale(0.015625)"/>
     </defs>
     <use xlink:href="#DejaVuSans-43"/>
     <use xlink:href="#DejaVuSans-42" transform="translate(69.824219 0)"/>
     <use xlink:href="#DejaVuSans-20" transform="translate(138.427734 0)"/>
     <use xlink:href="#DejaVuSans-62" transform="translate(170.214844 0)"/>
     <use xlink:href="#DejaVuSans-6f" transform="translate(233.691406 0)"/>
     <use xlink:href="#DejaVuSans-74" transform="translate(294.873047 0)"/>
     <use xlink:href="#DejaVuSans-74" transform="translate(334.082031 0)"/>
     <use xlink:href="#DejaVuSans-6f" transform="translate(373.291016 0)"/>
     <use xlink:href="#DejaVuSans-6d" transform="translate(434.472656 0)"/>
    </g>
   </g>
   <g id="patch_9">
    <path d="M 391.79493 249.774882 
Q 360.063802 242.168009 329.311181 234.795713 
" style="fill: none; stroke: #000000; stroke-width: 0.9; stroke-linecap: round"/>
    <path d="M 332.392367 237.385363 
L 329.311181 234.795713 
L 333.231613 233.884554 
z
" style="fill: #1f77b4; stroke: #000000; stroke-width: 0.9; stroke-linecap: round"/>
   </g>
   <g id="text_18">
    <!-- VB top -->
    <g transform="translate(395.739955 256.792856) scale(0.09 -0.09)">
     <use xlink:href="#DejaVuSans-56"/>
     <use xlink:href="#DejaVuSans-42" transform="translate(68.408203 0)"/>
     <use xlink:href="#DejaVuSans-20" transform="translate(137.011719 0)"/>
     <use xlink:href="#DejaVuSans-74" transform="translate(168.798828 0)"/>
     <use xlink:href="#DejaVuSans-6f" transform="translate(208.007812 0)"/>
     <use xlink:href="#DejaVuSans-70" transform="translate(269.189453 0)"/>
    </g>
   </g>
   <g id="text_19">
    <!-- Struttura a bande qualitativa dell'arseniuro di gallio -->
    <g transform="translate(151.177109 18.597656) scale(0.15 -0.15)">
     <defs>
      <path id="DejaVuSans-Bold-53" d="M 3834 4519 
L 3834 3531 
Q 3450 3703 3084 3790 
Q 2719 3878 2394 3878 
Q 1963 3878 1756 3759 
Q 1550 3641 1550 3391 
Q 1550 3203 1689 3098 
Q 1828 2994 2194 2919 
L 2706 2816 
Q 3484 2659 3812 2340 
Q 4141 2022 4141 1434 
Q 4141 663 3683 286 
Q 3225 -91 2284 -91 
Q 1841 -91 1394 -6 
Q 947 78 500 244 
L 500 1259 
Q 947 1022 1364 901 
Q 1781 781 2169 781 
Q 2563 781 2772 912 
Q 2981 1044 2981 1288 
Q 2981 1506 2839 1625 
Q 2697 1744 2272 1838 
L 1806 1941 
Q 1106 2091 782 2419 
Q 459 2747 459 3303 
Q 459 4000 909 4375 
Q 1359 4750 2203 4750 
Q 2588 4750 2994 4692 
Q 3400 4634 3834 4519 
z
" transform="scale(0.015625)"/>
      <path id="DejaVuSans-Bold-74" d="M 1759 4494 
L 1759 3500 
L 2913 3500 
L 2913 2700 
L 1759 2700 
L 1759 1216 
Q 1759 972 1856 886 
Q 1953 800 2241 800 
L 2816 800 
L 2816 0 
L 1856 0 
Q 1194 0 917 276 
Q 641 553 641 1216 
L 641 2700 
L 84 2700 
L 84 3500 
L 641 3500 
L 641 4494 
L 1759 4494 
z
" transform="scale(0.015625)"/>
      <path id="DejaVuSans-Bold-72" d="M 3138 2547 
Q 2991 2616 2845 2648 
Q 2700 2681 2553 2681 
Q 2122 2681 1889 2404 
Q 1656 2128 1656 1613 
L 1656 0 
L 538 0 
L 538 3500 
L 1656 3500 
L 1656 2925 
Q 1872 3269 2151 3426 
Q 2431 3584 2822 3584 
Q 2878 3584 2943 3579 
Q 3009 3575 3134 3559 
L 3138 2547 
z
" transform="scale(0.015625)"/>
      <path id="DejaVuSans-Bold-75" d="M 500 1363 
L 500 3500 
L 1625 3500 
L 1625 3150 
Q 1625 2866 1622 2436 
Q 1619 2006 1619 1863 
Q 1619 1441 1641 1255 
Q 1663 1069 1716 984 
Q 1784 875 1895 815 
Q 2006 756 2150 756 
Q 2500 756 2700 1025 
Q 2900 1294 2900 1772 
L 2900 3500 
L 4019 3500 
L 4019 0 
L 2900 0 
L 2900 506 
Q 2647 200 2364 54 
Q 2081 -91 1741 -91 
Q 1134 -91 817 281 
Q 500 653 500 1363 
z
" transform="scale(0.015625)"/>
      <path id="DejaVuSans-Bold-61" d="M 2106 1575 
Q 1756 1575 1579 1456 
Q 1403 1338 1403 1106 
Q 1403 894 1545 773 
Q 1688 653 1941 653 
Q 2256 653 2472 879 
Q 2688 1106 2688 1447 
L 2688 1575 
L 2106 1575 
z
M 3816 1997 
L 3816 0 
L 2688 0 
L 2688 519 
Q 2463 200 2181 54 
Q 1900 -91 1497 -91 
Q 953 -91 614 226 
Q 275 544 275 1050 
Q 275 1666 698 1953 
Q 1122 2241 2028 2241 
L 2688 2241 
L 2688 2328 
Q 2688 2594 2478 2717 
Q 2269 2841 1825 2841 
Q 1466 2841 1156 2769 
Q 847 2697 581 2553 
L 581 3406 
Q 941 3494 1303 3539 
Q 1666 3584 2028 3584 
Q 2975 3584 3395 3211 
Q 3816 2838 3816 1997 
z
" transform="scale(0.015625)"/>
      <path id="DejaVuSans-Bold-20" transform="scale(0.015625)"/>
      <path id="DejaVuSans-Bold-62" d="M 2400 722 
Q 2759 722 2948 984 
Q 3138 1247 3138 1747 
Q 3138 2247 2948 2509 
Q 2759 2772 2400 2772 
Q 2041 2772 1848 2508 
Q 1656 2244 1656 1747 
Q 1656 1250 1848 986 
Q 2041 722 2400 722 
z
M 1656 2988 
Q 1888 3294 2169 3439 
Q 2450 3584 2816 3584 
Q 3463 3584 3878 3070 
Q 4294 2556 4294 1747 
Q 4294 938 3878 423 
Q 3463 -91 2816 -91 
Q 2450 -91 2169 54 
Q 1888 200 1656 506 
L 1656 0 
L 538 0 
L 538 4863 
L 1656 4863 
L 1656 2988 
z
" transform="scale(0.015625)"/>
      <path id="DejaVuSans-Bold-6e" d="M 4056 2131 
L 4056 0 
L 2931 0 
L 2931 347 
L 2931 1631 
Q 2931 2084 2911 2256 
Q 2891 2428 2841 2509 
Q 2775 2619 2662 2680 
Q 2550 2741 2406 2741 
Q 2056 2741 1856 2470 
Q 1656 2200 1656 1722 
L 1656 0 
L 538 0 
L 538 3500 
L 1656 3500 
L 1656 2988 
Q 1909 3294 2193 3439 
Q 2478 3584 2822 3584 
Q 3428 3584 3742 3212 
Q 4056 2841 4056 2131 
z
" transform="scale(0.015625)"/>
      <path id="DejaVuSans-Bold-64" d="M 2919 2988 
L 2919 4863 
L 4044 4863 
L 4044 0 
L 2919 0 
L 2919 506 
Q 2688 197 2409 53 
Q 2131 -91 1766 -91 
Q 1119 -91 703 423 
Q 288 938 288 1747 
Q 288 2556 703 3070 
Q 1119 3584 1766 3584 
Q 2128 3584 2408 3439 
Q 2688 3294 2919 2988 
z
M 2181 722 
Q 2541 722 2730 984 
Q 2919 1247 2919 1747 
Q 2919 2247 2730 2509 
Q 2541 2772 2181 2772 
Q 1825 2772 1636 2509 
Q 1447 2247 1447 1747 
Q 1447 1247 1636 984 
Q 1825 722 2181 722 
z
" transform="scale(0.015625)"/>
      <path id="DejaVuSans-Bold-65" d="M 4031 1759 
L 4031 1441 
L 1416 1441 
Q 1456 1047 1700 850 
Q 1944 653 2381 653 
Q 2734 653 3104 758 
Q 3475 863 3866 1075 
L 3866 213 
Q 3469 63 3072 -14 
Q 2675 -91 2278 -91 
Q 1328 -91 801 392 
Q 275 875 275 1747 
Q 275 2603 792 3093 
Q 1309 3584 2216 3584 
Q 3041 3584 3536 3087 
Q 4031 2591 4031 1759 
z
M 2881 2131 
Q 2881 2450 2695 2645 
Q 2509 2841 2209 2841 
Q 1884 2841 1681 2658 
Q 1478 2475 1428 2131 
L 2881 2131 
z
" transform="scale(0.015625)"/>
      <path id="DejaVuSans-Bold-71" d="M 2181 2772 
Q 1825 2772 1636 2509 
Q 1447 2247 1447 1747 
Q 1447 1247 1636 984 
Q 1825 722 2181 722 
Q 2541 722 2730 984 
Q 2919 1247 2919 1747 
Q 2919 2247 2730 2509 
Q 2541 2772 2181 2772 
z
M 2919 506 
Q 2688 197 2409 53 
Q 2131 -91 1766 -91 
Q 1119 -91 703 423 
Q 288 938 288 1747 
Q 288 2556 703 3067 
Q 1119 3578 1766 3578 
Q 2131 3578 2409 3434 
Q 2688 3291 2919 2981 
L 2919 3500 
L 4044 3500 
L 4044 -1331 
L 2919 -1331 
L 2919 506 
z
" transform="scale(0.015625)"/>
      <path id="DejaVuSans-Bold-6c" d="M 538 4863 
L 1656 4863 
L 1656 0 
L 538 0 
L 538 4863 
z
" transform="scale(0.015625)"/>
      <path id="DejaVuSans-Bold-69" d="M 538 3500 
L 1656 3500 
L 1656 0 
L 538 0 
L 538 3500 
z
M 538 4863 
L 1656 4863 
L 1656 3950 
L 538 3950 
L 538 4863 
z
" transform="scale(0.015625)"/>
      <path id="DejaVuSans-Bold-76" d="M 97 3500 
L 1216 3500 
L 2088 1081 
L 2956 3500 
L 4078 3500 
L 2700 0 
L 1472 0 
L 97 3500 
z
" transform="scale(0.015625)"/>
      <path id="DejaVuSans-Bold-27" d="M 1350 4666 
L 1350 2931 
L 609 2931 
L 609 4666 
L 1350 4666 
z
" transform="scale(0.015625)"/>
      <path id="DejaVuSans-Bold-73" d="M 3272 3391 
L 3272 2541 
Q 2913 2691 2578 2766 
Q 2244 2841 1947 2841 
Q 1628 2841 1473 2761 
Q 1319 2681 1319 2516 
Q 1319 2381 1436 2309 
Q 1553 2238 1856 2203 
L 2053 2175 
Q 2913 2066 3209 1816 
Q 3506 1566 3506 1031 
Q 3506 472 3093 190 
Q 2681 -91 1863 -91 
Q 1516 -91 1145 -36 
Q 775 19 384 128 
L 384 978 
Q 719 816 1070 734 
Q 1422 653 1784 653 
Q 2113 653 2278 743 
Q 2444 834 2444 1013 
Q 2444 1163 2330 1236 
Q 2216 1309 1875 1350 
L 1678 1375 
Q 931 1469 631 1722 
Q 331 1975 331 2491 
Q 331 3047 712 3315 
Q 1094 3584 1881 3584 
Q 2191 3584 2531 3537 
Q 2872 3491 3272 3391 
z
" transform="scale(0.015625)"/>
      <path id="DejaVuSans-Bold-6f" d="M 2203 2784 
Q 1831 2784 1636 2517 
Q 1441 2250 1441 1747 
Q 1441 1244 1636 976 
Q 1831 709 2203 709 
Q 2569 709 2762 976 
Q 2956 1244 2956 1747 
Q 2956 2250 2762 2517 
Q 2569 2784 2203 2784 
z
M 2203 3584 
Q 3106 3584 3614 3096 
Q 4122 2609 4122 1747 
Q 4122 884 3614 396 
Q 3106 -91 2203 -91 
Q 1297 -91 786 396 
Q 275 884 275 1747 
Q 275 2609 786 3096 
Q 1297 3584 2203 3584 
z
" transform="scale(0.015625)"/>
      <path id="DejaVuSans-Bold-67" d="M 2919 594 
Q 2688 288 2409 144 
Q 2131 0 1766 0 
Q 1125 0 706 504 
Q 288 1009 288 1791 
Q 288 2575 706 3076 
Q 1125 3578 1766 3578 
Q 2131 3578 2409 3434 
Q 2688 3291 2919 2981 
L 2919 3500 
L 4044 3500 
L 4044 353 
Q 4044 -491 3511 -936 
Q 2978 -1381 1966 -1381 
Q 1638 -1381 1331 -1331 
Q 1025 -1281 716 -1178 
L 716 -306 
Q 1009 -475 1290 -558 
Q 1572 -641 1856 -641 
Q 2406 -641 2662 -400 
Q 2919 -159 2919 353 
L 2919 594 
z
M 2181 2772 
Q 1834 2772 1640 2515 
Q 1447 2259 1447 1791 
Q 1447 1309 1634 1061 
Q 1822 813 2181 813 
Q 2531 813 2725 1069 
Q 2919 1325 2919 1791 
Q 2919 2259 2725 2515 
Q 2531 2772 2181 2772 
z
" transform="scale(0.015625)"/>
     </defs>
     <use xlink:href="#DejaVuSans-Bold-53"/>
     <use xlink:href="#DejaVuSans-Bold-74" transform="translate(72.021484 0)"/>
     <use xlink:href="#DejaVuSans-Bold-72" transform="translate(119.824219 0)"/>
     <use xlink:href="#DejaVuSans-Bold-75" transform="translate(169.140625 0)"/>
     <use xlink:href="#DejaVuSans-Bold-74" transform="translate(240.332031 0)"/>
     <use xlink:href="#DejaVuSans-Bold-74" transform="translate(288.134766 0)"/>
     <use xlink:href="#DejaVuSans-Bold-75" transform="translate(335.9375 0)"/>
     <use xlink:href="#DejaVuSans-Bold-72" transform="translate(407.128906 0)"/>
     <use xlink:href="#DejaVuSans-Bold-61" transform="translate(456.445312 0)"/>
     <use xlink:href="#DejaVuSans-Bold-20" transform="translate(523.925781 0)"/>
     <use xlink:href="#DejaVuSans-Bold-61" transform="translate(558.740234 0)"/>
     <use xlink:href="#DejaVuSans-Bold-20" transform="translate(626.220703 0)"/>
     <use xlink:href="#DejaVuSans-Bold-62" transform="translate(661.035156 0)"/>
     <use xlink:href="#DejaVuSans-Bold-61" transform="translate(732.617188 0)"/>
     <use xlink:href="#DejaVuSans-Bold-6e" transform="translate(800.097656 0)"/>
     <use xlink:href="#DejaVuSans-Bold-64" transform="translate(871.289062 0)"/>
     <use xlink:href="#DejaVuSans-Bold-65" transform="translate(942.871094 0)"/>
     <use xlink:href="#DejaVuSans-Bold-20" transform="translate(1010.693359 0)"/>
     <use xlink:href="#DejaVuSans-Bold-71" transform="translate(1045.507812 0)"/>
     <use xlink:href="#DejaVuSans-Bold-75" transform="translate(1117.089844 0)"/>
     <use xlink:href="#DejaVuSans-Bold-61" transform="translate(1188.28125 0)"/>
     <use xlink:href="#DejaVuSans-Bold-6c" transform="translate(1255.761719 0)"/>
     <use xlink:href="#DejaVuSans-Bold-69" transform="translate(1290.039062 0)"/>
     <use xlink:href="#DejaVuSans-Bold-74" transform="translate(1324.316406 0)"/>
     <use xlink:href="#DejaVuSans-Bold-61" transform="translate(1372.119141 0)"/>
     <use xlink:href="#DejaVuSans-Bold-74" transform="translate(1439.599609 0)"/>
     <use xlink:href="#DejaVuSans-Bold-69" transform="translate(1487.402344 0)"/>
     <use xlink:href="#DejaVuSans-Bold-76" transform="translate(1521.679688 0)"/>
     <use xlink:href="#DejaVuSans-Bold-61" transform="translate(1586.865234 0)"/>
     <use xlink:href="#DejaVuSans-Bold-20" transform="translate(1654.345703 0)"/>
     <use xlink:href="#DejaVuSans-Bold-64" transform="translate(1689.160156 0)"/>
     <use xlink:href="#DejaVuSans-Bold-65" transform="translate(1760.742188 0)"/>
     <use xlink:href="#DejaVuSans-Bold-6c" transform="translate(1828.564453 0)"/>
     <use xlink:href="#DejaVuSans-Bold-6c" transform="translate(1862.841797 0)"/>
     <use xlink:href="#DejaVuSans-Bold-27" transform="translate(1897.119141 0)"/>
     <use xlink:href="#DejaVuSans-Bold-61" transform="translate(1927.734375 0)"/>
     <use xlink:href="#DejaVuSans-Bold-72" transform="translate(1995.214844 0)"/>
     <use xlink:href="#DejaVuSans-Bold-73" transform="translate(2044.53125 0)"/>
     <use xlink:href="#DejaVuSans-Bold-65" transform="translate(2104.052734 0)"/>
     <use xlink:href="#DejaVuSans-Bold-6e" transform="translate(2171.875 0)"/>
     <use xlink:href="#DejaVuSans-Bold-69" transform="translate(2243.066406 0)"/>
     <use xlink:href="#DejaVuSans-Bold-75" transform="translate(2277.34375 0)"/>
     <use xlink:href="#DejaVuSans-Bold-72" transform="translate(2348.535156 0)"/>
     <use xlink:href="#DejaVuSans-Bold-6f" transform="translate(2397.851562 0)"/>
     <use xlink:href="#DejaVuSans-Bold-20" transform="translate(2466.552734 0)"/>
     <use xlink:href="#DejaVuSans-Bold-64" transform="translate(2501.367188 0)"/>
     <use xlink:href="#DejaVuSans-Bold-69" transform="translate(2572.949219 0)"/>
     <use xlink:href="#DejaVuSans-Bold-20" transform="translate(2607.226562 0)"/>
     <use xlink:href="#DejaVuSans-Bold-67" transform="translate(2642.041016 0)"/>
     <use xlink:href="#DejaVuSans-Bold-61" transform="translate(2713.623047 0)"/>
     <use xlink:href="#DejaVuSans-Bold-6c" transform="translate(2781.103516 0)"/>
     <use xlink:href="#DejaVuSans-Bold-6c" transform="translate(2815.380859 0)"/>
     <use xlink:href="#DejaVuSans-Bold-69" transform="translate(2849.658203 0)"/>
     <use xlink:href="#DejaVuSans-Bold-6f" transform="translate(2883.935547 0)"/>
    </g>
   </g>
  </g>
  <g id="text_20">
   <!-- Ricostruzione sintetica: massimo di valenza e minimo di conduzione coincidono a Γ, caratteristica di un semiconduttore a gap diretto. -->
   <g transform="translate(27.109375 473.829656) scale(0.1 -0.1)">
    <defs>
     <path id="DejaVuSans-52" d="M 2841 2188 
Q 3044 2119 3236 1894 
Q 3428 1669 3622 1275 
L 4263 0 
L 3584 0 
L 2988 1197 
Q 2756 1666 2539 1819 
Q 2322 1972 1947 1972 
L 1259 1972 
L 1259 0 
L 628 0 
L 628 4666 
L 2053 4666 
Q 2853 4666 3247 4331 
Q 3641 3997 3641 3322 
Q 3641 2881 3436 2590 
Q 3231 2300 2841 2188 
z
M 1259 4147 
L 1259 2491 
L 2053 2491 
Q 2509 2491 2742 2702 
Q 2975 2913 2975 3322 
Q 2975 3731 2742 3939 
Q 2509 4147 2053 4147 
L 1259 4147 
z
" transform="scale(0.015625)"/>
     <path id="DejaVuSans-75" d="M 544 1381 
L 544 3500 
L 1119 3500 
L 1119 1403 
Q 1119 906 1312 657 
Q 1506 409 1894 409 
Q 2359 409 2629 706 
Q 2900 1003 2900 1516 
L 2900 3500 
L 3475 3500 
L 3475 0 
L 2900 0 
L 2900 538 
Q 2691 219 2414 64 
Q 2138 -91 1772 -91 
Q 1169 -91 856 284 
Q 544 659 544 1381 
z
M 1991 3584 
L 1991 3584 
z
" transform="scale(0.015625)"/>
     <path id="DejaVuSans-7a" d="M 353 3500 
L 3084 3500 
L 3084 2975 
L 922 459 
L 3084 459 
L 3084 0 
L 275 0 
L 275 525 
L 2438 3041 
L 353 3041 
L 353 3500 
z
" transform="scale(0.015625)"/>
     <path id="DejaVuSans-3a" d="M 750 794 
L 1409 794 
L 1409 0 
L 750 0 
L 750 794 
z
M 750 3309 
L 1409 3309 
L 1409 2516 
L 750 2516 
L 750 3309 
z
" transform="scale(0.015625)"/>
     <path id="DejaVuSans-76" d="M 191 3500 
L 800 3500 
L 1894 563 
L 2988 3500 
L 3597 3500 
L 2284 0 
L 1503 0 
L 191 3500 
z
" transform="scale(0.015625)"/>
     <path id="DejaVuSans-2c" d="M 750 794 
L 1409 794 
L 1409 256 
L 897 -744 
L 494 -744 
L 750 256 
L 750 794 
z
" transform="scale(0.015625)"/>
     <path id="DejaVuSans-2e" d="M 684 794 
L 1344 794 
L 1344 0 
L 684 0 
L 684 794 
z
" transform="scale(0.015625)"/>
    </defs>
    <use xlink:href="#DejaVuSans-52"/>
    <use xlink:href="#DejaVuSans-69" transform="translate(69.482422 0)"/>
    <use xlink:href="#DejaVuSans-63" transform="translate(97.265625 0)"/>
    <use xlink:href="#DejaVuSans-6f" transform="translate(152.246094 0)"/>
    <use xlink:href="#DejaVuSans-73" transform="translate(213.427734 0)"/>
    <use xlink:href="#DejaVuSans-74" transform="translate(265.527344 0)"/>
    <use xlink:href="#DejaVuSans-72" transform="translate(304.736328 0)"/>
    <use xlink:href="#DejaVuSans-75" transform="translate(345.849609 0)"/>
    <use xlink:href="#DejaVuSans-7a" transform="translate(409.228516 0)"/>
    <use xlink:href="#DejaVuSans-69" transform="translate(461.71875 0)"/>
    <use xlink:href="#DejaVuSans-6f" transform="translate(489.501953 0)"/>
    <use xlink:href="#DejaVuSans-6e" transform="translate(550.683594 0)"/>
    <use xlink:href="#DejaVuSans-65" transform="translate(614.0625 0)"/>
    <use xlink:href="#DejaVuSans-20" transform="translate(675.585938 0)"/>
    <use xlink:href="#DejaVuSans-73" transform="translate(707.373047 0)"/>
    <use xlink:href="#DejaVuSans-69" transform="translate(759.472656 0)"/>
    <use xlink:href="#DejaVuSans-6e" transform="translate(787.255859 0)"/>
    <use xlink:href="#DejaVuSans-74" transform="translate(850.634766 0)"/>
    <use xlink:href="#DejaVuSans-65" transform="translate(889.84375 0)"/>
    <use xlink:href="#DejaVuSans-74" transform="translate(951.367188 0)"/>
    <use xlink:href="#DejaVuSans-69" transform="translate(990.576172 0)"/>
    <use xlink:href="#DejaVuSans-63" transform="translate(1018.359375 0)"/>
    <use xlink:href="#DejaVuSans-61" transform="translate(1073.339844 0)"/>
    <use xlink:href="#DejaVuSans-3a" transform="translate(1134.619141 0)"/>
    <use xlink:href="#DejaVuSans-20" transform="translate(1168.310547 0)"/>
    <use xlink:href="#DejaVuSans-6d" transform="translate(1200.097656 0)"/>
    <use xlink:href="#DejaVuSans-61" transform="translate(1297.509766 0)"/>
    <use xlink:href="#DejaVuSans-73" transform="translate(1358.789062 0)"/>
    <use xlink:href="#DejaVuSans-73" transform="translate(1410.888672 0)"/>
    <use xlink:href="#DejaVuSans-69" transform="translate(1462.988281 0)"/>
    <use xlink:href="#DejaVuSans-6d" transform="translate(1490.771484 0)"/>
    <use xlink:href="#DejaVuSans-6f" transform="translate(1588.183594 0)"/>
    <use xlink:href="#DejaVuSans-20" transform="translate(1649.365234 0)"/>
    <use xlink:href="#DejaVuSans-64" transform="translate(1681.152344 0)"/>
    <use xlink:href="#DejaVuSans-69" transform="translate(1744.628906 0)"/>
    <use xlink:href="#DejaVuSans-20" transform="translate(1772.412109 0)"/>
    <use xlink:href="#DejaVuSans-76" transform="translate(1804.199219 0)"/>
    <use xlink:href="#DejaVuSans-61" transform="translate(1863.378906 0)"/>
    <use xlink:href="#DejaVuSans-6c" transform="translate(1924.658203 0)"/>
    <use xlink:href="#DejaVuSans-65" transform="translate(1952.441406 0)"/>
    <use xlink:href="#DejaVuSans-6e" transform="translate(2013.964844 0)"/>
    <use xlink:href="#DejaVuSans-7a" transform="translate(2077.34375 0)"/>
    <use xlink:href="#DejaVuSans-61" transform="translate(2129.833984 0)"/>
    <use xlink:href="#DejaVuSans-20" transform="translate(2191.113281 0)"/>
    <use xlink:href="#DejaVuSans-65" transform="translate(2222.900391 0)"/>
    <use xlink:href="#DejaVuSans-20" transform="translate(2284.423828 0)"/>
    <use xlink:href="#DejaVuSans-6d" transform="translate(2316.210938 0)"/>
    <use xlink:href="#DejaVuSans-69" transform="translate(2413.623047 0)"/>
    <use xlink:href="#DejaVuSans-6e" transform="translate(2441.40625 0)"/>
    <use xlink:href="#DejaVuSans-69" transform="translate(2504.785156 0)"/>
    <use xlink:href="#DejaVuSans-6d" transform="translate(2532.568359 0)"/>
    <use xlink:href="#DejaVuSans-6f" transform="translate(2629.980469 0)"/>
    <use xlink:href="#DejaVuSans-20" transform="translate(2691.162109 0)"/>
    <use xlink:href="#DejaVuSans-64" transform="translate(2722.949219 0)"/>
    <use xlink:href="#DejaVuSans-69" transform="translate(2786.425781 0)"/>
    <use xlink:href="#DejaVuSans-20" transform="translate(2814.208984 0)"/>
    <use xlink:href="#DejaVuSans-63" transform="translate(2845.996094 0)"/>
    <use xlink:href="#DejaVuSans-6f" transform="translate(2900.976562 0)"/>
    <use xlink:href="#DejaVuSans-6e" transform="translate(2962.158203 0)"/>
    <use xlink:href="#DejaVuSans-64" transform="translate(3025.537109 0)"/>
    <use xlink:href="#DejaVuSans-75" transform="translate(3089.013672 0)"/>
    <use xlink:href="#DejaVuSans-7a" transform="translate(3152.392578 0)"/>
    <use xlink:href="#DejaVuSans-69" transform="translate(3204.882812 0)"/>
    <use xlink:href="#DejaVuSans-6f" transform="translate(3232.666016 0)"/>
    <use xlink:href="#DejaVuSans-6e" transform="translate(3293.847656 0)"/>
    <use xlink:href="#DejaVuSans-65" transform="translate(3357.226562 0)"/>
    <use xlink:href="#DejaVuSans-20" transform="translate(3418.75 0)"/>
    <use xlink:href="#DejaVuSans-63" transform="translate(3450.537109 0)"/>
    <use xlink:href="#DejaVuSans-6f" transform="translate(3505.517578 0)"/>
    <use xlink:href="#DejaVuSans-69" transform="translate(3566.699219 0)"/>
    <use xlink:href="#DejaVuSans-6e" transform="translate(3594.482422 0)"/>
    <use xlink:href="#DejaVuSans-63" transform="translate(3657.861328 0)"/>
    <use xlink:href="#DejaVuSans-69" transform="translate(3712.841797 0)"/>
    <use xlink:href="#DejaVuSans-64" transform="translate(3740.625 0)"/>
    <use xlink:href="#DejaVuSans-6f" transform="translate(3804.101562 0)"/>
    <use xlink:href="#DejaVuSans-6e" transform="translate(3865.283203 0)"/>
    <use xlink:href="#DejaVuSans-6f" transform="translate(3928.662109 0)"/>
    <use xlink:href="#DejaVuSans-20" transform="translate(3989.84375 0)"/>
    <use xlink:href="#DejaVuSans-61" transform="translate(4021.630859 0)"/>
    <use xlink:href="#DejaVuSans-20" transform="translate(4082.910156 0)"/>
    <use xlink:href="#DejaVuSans-393" transform="translate(4114.697266 0)"/>
    <use xlink:href="#DejaVuSans-2c" transform="translate(4170.410156 0)"/>
    <use xlink:href="#DejaVuSans-20" transform="translate(4202.197266 0)"/>
    <use xlink:href="#DejaVuSans-63" transform="translate(4233.984375 0)"/>
    <use xlink:href="#DejaVuSans-61" transform="translate(4288.964844 0)"/>
    <use xlink:href="#DejaVuSans-72" transform="translate(4350.244141 0)"/>
    <use xlink:href="#DejaVuSans-61" transform="translate(4391.357422 0)"/>
    <use xlink:href="#DejaVuSans-74" transform="translate(4452.636719 0)"/>
    <use xlink:href="#DejaVuSans-74" transform="translate(4491.845703 0)"/>
    <use xlink:href="#DejaVuSans-65" transform="translate(4531.054688 0)"/>
    <use xlink:href="#DejaVuSans-72" transform="translate(4592.578125 0)"/>
    <use xlink:href="#DejaVuSans-69" transform="translate(4633.691406 0)"/>
    <use xlink:href="#DejaVuSans-73" transform="translate(4661.474609 0)"/>
    <use xlink:href="#DejaVuSans-74" transform="translate(4713.574219 0)"/>
    <use xlink:href="#DejaVuSans-69" transform="translate(4752.783203 0)"/>
    <use xlink:href="#DejaVuSans-63" transform="translate(4780.566406 0)"/>
    <use xlink:href="#DejaVuSans-61" transform="translate(4835.546875 0)"/>
    <use xlink:href="#DejaVuSans-20" transform="translate(4896.826172 0)"/>
    <use xlink:href="#DejaVuSans-64" transform="translate(4928.613281 0)"/>
    <use xlink:href="#DejaVuSans-69" transform="translate(4992.089844 0)"/>
    <use xlink:href="#DejaVuSans-20" transform="translate(5019.873047 0)"/>
    <use xlink:href="#DejaVuSans-75" transform="translate(5051.660156 0)"/>
    <use xlink:href="#DejaVuSans-6e" transform="translate(5115.039062 0)"/>
    <use xlink:href="#DejaVuSans-20" transform="translate(5178.417969 0)"/>
    <use xlink:href="#DejaVuSans-73" transform="translate(5210.205078 0)"/>
    <use xlink:href="#DejaVuSans-65" transform="translate(5262.304688 0)"/>
    <use xlink:href="#DejaVuSans-6d" transform="translate(5323.828125 0)"/>
    <use xlink:href="#DejaVuSans-69" transform="translate(5421.240234 0)"/>
    <use xlink:href="#DejaVuSans-63" transform="translate(5449.023438 0)"/>
    <use xlink:href="#DejaVuSans-6f" transform="translate(5504.003906 0)"/>
    <use xlink:href="#DejaVuSans-6e" transform="translate(5565.185547 0)"/>
    <use xlink:href="#DejaVuSans-64" transform="translate(5628.564453 0)"/>
    <use xlink:href="#DejaVuSans-75" transform="translate(5692.041016 0)"/>
    <use xlink:href="#DejaVuSans-74" transform="translate(5755.419922 0)"/>
    <use xlink:href="#DejaVuSans-74" transform="translate(5794.628906 0)"/>
    <use xlink:href="#DejaVuSans-6f" transform="translate(5833.837891 0)"/>
    <use xlink:href="#DejaVuSans-72" transform="translate(5895.019531 0)"/>
    <use xlink:href="#DejaVuSans-65" transform="translate(5933.882812 0)"/>
    <use xlink:href="#DejaVuSans-20" transform="translate(5995.40625 0)"/>
    <use xlink:href="#DejaVuSans-61" transform="translate(6027.193359 0)"/>
    <use xlink:href="#DejaVuSans-20" transform="translate(6088.472656 0)"/>
    <use xlink:href="#DejaVuSans-67" transform="translate(6120.259766 0)"/>
    <use xlink:href="#DejaVuSans-61" transform="translate(6183.736328 0)"/>
    <use xlink:href="#DejaVuSans-70" transform="translate(6245.015625 0)"/>
    <use xlink:href="#DejaVuSans-20" transform="translate(6308.492188 0)"/>
    <use xlink:href="#DejaVuSans-64" transform="translate(6340.279297 0)"/>
    <use xlink:href="#DejaVuSans-69" transform="translate(6403.755859 0)"/>
    <use xlink:href="#DejaVuSans-72" transform="translate(6431.539062 0)"/>
    <use xlink:href="#DejaVuSans-65" transform="translate(6470.402344 0)"/>
    <use xlink:href="#DejaVuSans-74" transform="translate(6531.925781 0)"/>
    <use xlink:href="#DejaVuSans-74" transform="translate(6571.134766 0)"/>
    <use xlink:href="#DejaVuSans-6f" transform="translate(6610.34375 0)"/>
    <use xlink:href="#DejaVuSans-2e" transform="translate(6669.775391 0)"/>
   </g>
  </g>
 </g>
 <defs>
  <clipPath id="p1f7836ab9c">
   <rect x="48.982813" y="30.597656" width="647.28" height="399.168"/>
  </clipPath>
 </defs>
</svg>
