<?xml version="1.0" encoding="utf-8" standalone="no"?>
<!DOCTYPE svg PUBLIC "-//W3C//DTD SVG 1.1//EN"
  "http://www.w3.org/Graphics/SVG/1.1/DTD/svg11.dtd">
<svg xmlns:xlink="http://www.w3.org/1999/xlink" width="806.370312pt" height="483.109344pt" viewBox="0 0 806.370312 483.109344" xmlns="http://www.w3.org/2000/svg" version="1.1">
 <metadata>
  <rdf:RDF xmlns:dc="http://purl.org/dc/elements/1.1/" xmlns:cc="http://creativecommons.org/ns#" xmlns:rdf="http://www.w3.org/1999/02/22-rdf-syntax-ns#">
   <cc:Work>
    <dc:type rdf:resource="http://purl.org/dc/dcmitype/StillImage"/>
    <dc:date>2026-06-16T12:32:35.064443</dc:date>
    <dc:format>image/svg+xml</dc:format>
    <dc:creator>
     <cc:Agent>
      <dc:title>Matplotlib v3.10.8, https://matplotlib.org/</dc:title>
     </cc:Agent>
    </dc:creator>
   </cc:Work>
  </rdf:RDF>
 </metadata>
 <defs>
  <style type="text/css">*{stroke-linejoin: round; stroke-linecap: butt}</style>
 </defs>
 <g id="figure_1">
  <g id="patch_1">
   <path d="M 0 483.109344 
L 806.370312 483.109344 
L 806.370312 0 
L 0 0 
z
" style="fill: #ffffff"/>
  </g>
  <g id="axes_1">
   <g id="patch_2">
    <path d="M 89.985156 429.765656 
L 737.265156 429.765656 
L 737.265156 30.597656 
L 89.985156 30.597656 
z
" style="fill: #ffffff"/>
   </g>
   <g id="patch_3">
    <path d="M 89.985156 234.095068 
L 737.265156 234.095068 
L 737.265156 216.093374 
L 89.985156 216.093374 
z
" clip-path="url(#pb9a93c6f59)" style="fill: #1f77b4; opacity: 0.1"/>
   </g>
   <g id="matplotlib.axis_1">
    <g id="xtick_1">
     <g id="line2d_1">
      <defs>
       <path id="m9791fe1cc8" d="M 0 0 
L 0 3.5 
" style="stroke: #000000; stroke-width: 0.8"/>
      </defs>
      <g>
       <use xlink:href="#m9791fe1cc8" x="89.985156" y="429.765656" style="stroke: #000000; stroke-width: 0.8"/>
      </g>
     </g>
     <g id="text_1">
      <!-- $\Gamma$ -->
      <g transform="translate(87.185156 444.364094) scale(0.1 -0.1)">
       <defs>
        <path id="DejaVuSans-393" d="M 628 0 
L 628 4666 
L 3531 4666 
L 3531 4134 
L 1259 4134 
L 1259 0 
L 628 0 
z
" transform="scale(0.015625)"/>
       </defs>
       <use xlink:href="#DejaVuSans-393" transform="translate(0 0.09375)"/>
      </g>
     </g>
    </g>
    <g id="xtick_2">
     <g id="line2d_2">
      <g>
       <use xlink:href="#m9791fe1cc8" x="182.453728" y="429.765656" style="stroke: #000000; stroke-width: 0.8"/>
      </g>
     </g>
     <g id="text_2">
      <!-- X -->
      <g transform="translate(179.028728 444.364094) scale(0.1 -0.1)">
       <defs>
        <path id="DejaVuSans-58" d="M 403 4666 
L 1081 4666 
L 2241 2931 
L 3406 4666 
L 4084 4666 
L 2584 2425 
L 4184 0 
L 3506 0 
L 2194 1984 
L 872 0 
L 191 0 
L 1856 2491 
L 403 4666 
z
" transform="scale(0.015625)"/>
       </defs>
       <use xlink:href="#DejaVuSans-58"/>
      </g>
     </g>
    </g>
    <g id="xtick_3">
     <g id="line2d_3">
      <g>
       <use xlink:href="#m9791fe1cc8" x="274.922299" y="429.765656" style="stroke: #000000; stroke-width: 0.8"/>
      </g>
     </g>
     <g id="text_3">
      <!-- K -->
      <g transform="translate(271.643393 444.364094) scale(0.1 -0.1)">
       <defs>
        <path id="DejaVuSans-4b" d="M 628 4666 
L 1259 4666 
L 1259 2694 
L 3353 4666 
L 4166 4666 
L 1850 2491 
L 4331 0 
L 3500 0 
L 1259 2247 
L 1259 0 
L 628 0 
L 628 4666 
z
" transform="scale(0.015625)"/>
       </defs>
       <use xlink:href="#DejaVuSans-4b"/>
      </g>
     </g>
    </g>
    <g id="xtick_4">
     <g id="line2d_4">
      <g>
       <use xlink:href="#m9791fe1cc8" x="367.390871" y="429.765656" style="stroke: #000000; stroke-width: 0.8"/>
      </g>
     </g>
     <g id="text_4">
      <!-- $\Gamma$ -->
      <g transform="translate(364.590871 444.364094) scale(0.1 -0.1)">
       <use xlink:href="#DejaVuSans-393" transform="translate(0 0.09375)"/>
      </g>
     </g>
    </g>
    <g id="xtick_5">
     <g id="line2d_5">
      <g>
       <use xlink:href="#m9791fe1cc8" x="459.859442" y="429.765656" style="stroke: #000000; stroke-width: 0.8"/>
      </g>
     </g>
     <g id="text_5">
      <!-- L -->
      <g transform="translate(457.073504 444.364094) scale(0.1 -0.1)">
       <defs>
        <path id="DejaVuSans-4c" d="M 628 4666 
L 1259 4666 
L 1259 531 
L 3531 531 
L 3531 0 
L 628 0 
L 628 4666 
z
" transform="scale(0.015625)"/>
       </defs>
       <use xlink:href="#DejaVuSans-4c"/>
      </g>
     </g>
    </g>
    <g id="xtick_6">
     <g id="line2d_6">
      <g>
       <use xlink:href="#m9791fe1cc8" x="552.328013" y="429.765656" style="stroke: #000000; stroke-width: 0.8"/>
      </g>
     </g>
     <g id="text_6">
      <!-- A -->
      <g transform="translate(548.907701 444.364094) scale(0.1 -0.1)">
       <defs>
        <path id="DejaVuSans-41" d="M 2188 4044 
L 1331 1722 
L 3047 1722 
L 2188 4044 
z
M 1831 4666 
L 2547 4666 
L 4325 0 
L 3669 0 
L 3244 1197 
L 1141 1197 
L 716 0 
L 50 0 
L 1831 4666 
z
" transform="scale(0.015625)"/>
       </defs>
       <use xlink:href="#DejaVuSans-41"/>
      </g>
     </g>
    </g>
    <g id="xtick_7">
     <g id="line2d_7">
      <g>
       <use xlink:href="#m9791fe1cc8" x="644.796585" y="429.765656" style="stroke: #000000; stroke-width: 0.8"/>
      </g>
     </g>
     <g id="text_7">
      <!-- W -->
      <g transform="translate(639.852835 444.364094) scale(0.1 -0.1)">
       <defs>
        <path id="DejaVuSans-57" d="M 213 4666 
L 850 4666 
L 1831 722 
L 2809 4666 
L 3519 4666 
L 4500 722 
L 5478 4666 
L 6119 4666 
L 4947 0 
L 4153 0 
L 3169 4050 
L 2175 0 
L 1381 0 
L 213 4666 
z
" transform="scale(0.015625)"/>
       </defs>
       <use xlink:href="#DejaVuSans-57"/>
      </g>
     </g>
    </g>
    <g id="xtick_8">
     <g id="line2d_8">
      <g>
       <use xlink:href="#m9791fe1cc8" x="737.265156" y="429.765656" style="stroke: #000000; stroke-width: 0.8"/>
      </g>
     </g>
     <g id="text_8">
      <!-- X -->
      <g transform="translate(733.840156 444.364094) scale(0.1 -0.1)">
       <use xlink:href="#DejaVuSans-58"/>
      </g>
     </g>
    </g>
    <g id="text_9">
     <!-- percorso ad alta simmetria -->
     <g transform="translate(346.140781 458.042219) scale(0.1 -0.1)">
      <defs>
       <path id="DejaVuSans-70" d="M 1159 525 
L 1159 -1331 
L 581 -1331 
L 581 3500 
L 1159 3500 
L 1159 2969 
Q 1341 3281 1617 3432 
Q 1894 3584 2278 3584 
Q 2916 3584 3314 3078 
Q 3713 2572 3713 1747 
Q 3713 922 3314 415 
Q 2916 -91 2278 -91 
Q 1894 -91 1617 61 
Q 1341 213 1159 525 
z
M 3116 1747 
Q 3116 2381 2855 2742 
Q 2594 3103 2138 3103 
Q 1681 3103 1420 2742 
Q 1159 2381 1159 1747 
Q 1159 1113 1420 752 
Q 1681 391 2138 391 
Q 2594 391 2855 752 
Q 3116 1113 3116 1747 
z
" transform="scale(0.015625)"/>
       <path id="DejaVuSans-65" d="M 3597 1894 
L 3597 1613 
L 953 1613 
Q 991 1019 1311 708 
Q 1631 397 2203 397 
Q 2534 397 2845 478 
Q 3156 559 3463 722 
L 3463 178 
Q 3153 47 2828 -22 
Q 2503 -91 2169 -91 
Q 1331 -91 842 396 
Q 353 884 353 1716 
Q 353 2575 817 3079 
Q 1281 3584 2069 3584 
Q 2775 3584 3186 3129 
Q 3597 2675 3597 1894 
z
M 3022 2063 
Q 3016 2534 2758 2815 
Q 2500 3097 2075 3097 
Q 1594 3097 1305 2825 
Q 1016 2553 972 2059 
L 3022 2063 
z
" transform="scale(0.015625)"/>
       <path id="DejaVuSans-72" d="M 2631 2963 
Q 2534 3019 2420 3045 
Q 2306 3072 2169 3072 
Q 1681 3072 1420 2755 
Q 1159 2438 1159 1844 
L 1159 0 
L 581 0 
L 581 3500 
L 1159 3500 
L 1159 2956 
Q 1341 3275 1631 3429 
Q 1922 3584 2338 3584 
Q 2397 3584 2469 3576 
Q 2541 3569 2628 3553 
L 2631 2963 
z
" transform="scale(0.015625)"/>
       <path id="DejaVuSans-63" d="M 3122 3366 
L 3122 2828 
Q 2878 2963 2633 3030 
Q 2388 3097 2138 3097 
Q 1578 3097 1268 2742 
Q 959 2388 959 1747 
Q 959 1106 1268 751 
Q 1578 397 2138 397 
Q 2388 397 2633 464 
Q 2878 531 3122 666 
L 3122 134 
Q 2881 22 2623 -34 
Q 2366 -91 2075 -91 
Q 1284 -91 818 406 
Q 353 903 353 1747 
Q 353 2603 823 3093 
Q 1294 3584 2113 3584 
Q 2378 3584 2631 3529 
Q 2884 3475 3122 3366 
z
" transform="scale(0.015625)"/>
       <path id="DejaVuSans-6f" d="M 1959 3097 
Q 1497 3097 1228 2736 
Q 959 2375 959 1747 
Q 959 1119 1226 758 
Q 1494 397 1959 397 
Q 2419 397 2687 759 
Q 2956 1122 2956 1747 
Q 2956 2369 2687 2733 
Q 2419 3097 1959 3097 
z
M 1959 3584 
Q 2709 3584 3137 3096 
Q 3566 2609 3566 1747 
Q 3566 888 3137 398 
Q 2709 -91 1959 -91 
Q 1206 -91 779 398 
Q 353 888 353 1747 
Q 353 2609 779 3096 
Q 1206 3584 1959 3584 
z
" transform="scale(0.015625)"/>
       <path id="DejaVuSans-73" d="M 2834 3397 
L 2834 2853 
Q 2591 2978 2328 3040 
Q 2066 3103 1784 3103 
Q 1356 3103 1142 2972 
Q 928 2841 928 2578 
Q 928 2378 1081 2264 
Q 1234 2150 1697 2047 
L 1894 2003 
Q 2506 1872 2764 1633 
Q 3022 1394 3022 966 
Q 3022 478 2636 193 
Q 2250 -91 1575 -91 
Q 1294 -91 989 -36 
Q 684 19 347 128 
L 347 722 
Q 666 556 975 473 
Q 1284 391 1588 391 
Q 1994 391 2212 530 
Q 2431 669 2431 922 
Q 2431 1156 2273 1281 
Q 2116 1406 1581 1522 
L 1381 1569 
Q 847 1681 609 1914 
Q 372 2147 372 2553 
Q 372 3047 722 3315 
Q 1072 3584 1716 3584 
Q 2034 3584 2315 3537 
Q 2597 3491 2834 3397 
z
" transform="scale(0.015625)"/>
       <path id="DejaVuSans-20" transform="scale(0.015625)"/>
       <path id="DejaVuSans-61" d="M 2194 1759 
Q 1497 1759 1228 1600 
Q 959 1441 959 1056 
Q 959 750 1161 570 
Q 1363 391 1709 391 
Q 2188 391 2477 730 
Q 2766 1069 2766 1631 
L 2766 1759 
L 2194 1759 
z
M 3341 1997 
L 3341 0 
L 2766 0 
L 2766 531 
Q 2569 213 2275 61 
Q 1981 -91 1556 -91 
Q 1019 -91 701 211 
Q 384 513 384 1019 
Q 384 1609 779 1909 
Q 1175 2209 1959 2209 
L 2766 2209 
L 2766 2266 
Q 2766 2663 2505 2880 
Q 2244 3097 1772 3097 
Q 1472 3097 1187 3025 
Q 903 2953 641 2809 
L 641 3341 
Q 956 3463 1253 3523 
Q 1550 3584 1831 3584 
Q 2591 3584 2966 3190 
Q 3341 2797 3341 1997 
z
" transform="scale(0.015625)"/>
       <path id="DejaVuSans-64" d="M 2906 2969 
L 2906 4863 
L 3481 4863 
L 3481 0 
L 2906 0 
L 2906 525 
Q 2725 213 2448 61 
Q 2172 -91 1784 -91 
Q 1150 -91 751 415 
Q 353 922 353 1747 
Q 353 2572 751 3078 
Q 1150 3584 1784 3584 
Q 2172 3584 2448 3432 
Q 2725 3281 2906 2969 
z
M 947 1747 
Q 947 1113 1208 752 
Q 1469 391 1925 391 
Q 2381 391 2643 752 
Q 2906 1113 2906 1747 
Q 2906 2381 2643 2742 
Q 2381 3103 1925 3103 
Q 1469 3103 1208 2742 
Q 947 2381 947 1747 
z
" transform="scale(0.015625)"/>
       <path id="DejaVuSans-6c" d="M 603 4863 
L 1178 4863 
L 1178 0 
L 603 0 
L 603 4863 
z
" transform="scale(0.015625)"/>
       <path id="DejaVuSans-74" d="M 1172 4494 
L 1172 3500 
L 2356 3500 
L 2356 3053 
L 1172 3053 
L 1172 1153 
Q 1172 725 1289 603 
Q 1406 481 1766 481 
L 2356 481 
L 2356 0 
L 1766 0 
Q 1100 0 847 248 
Q 594 497 594 1153 
L 594 3053 
L 172 3053 
L 172 3500 
L 594 3500 
L 594 4494 
L 1172 4494 
z
" transform="scale(0.015625)"/>
       <path id="DejaVuSans-69" d="M 603 3500 
L 1178 3500 
L 1178 0 
L 603 0 
L 603 3500 
z
M 603 4863 
L 1178 4863 
L 1178 4134 
L 603 4134 
L 603 4863 
z
" transform="scale(0.015625)"/>
       <path id="DejaVuSans-6d" d="M 3328 2828 
Q 3544 3216 3844 3400 
Q 4144 3584 4550 3584 
Q 5097 3584 5394 3201 
Q 5691 2819 5691 2113 
L 5691 0 
L 5113 0 
L 5113 2094 
Q 5113 2597 4934 2840 
Q 4756 3084 4391 3084 
Q 3944 3084 3684 2787 
Q 3425 2491 3425 1978 
L 3425 0 
L 2847 0 
L 2847 2094 
Q 2847 2600 2669 2842 
Q 2491 3084 2119 3084 
Q 1678 3084 1418 2786 
Q 1159 2488 1159 1978 
L 1159 0 
L 581 0 
L 581 3500 
L 1159 3500 
L 1159 2956 
Q 1356 3278 1631 3431 
Q 1906 3584 2284 3584 
Q 2666 3584 2933 3390 
Q 3200 3197 3328 2828 
z
" transform="scale(0.015625)"/>
      </defs>
      <use xlink:href="#DejaVuSans-70"/>
      <use xlink:href="#DejaVuSans-65" transform="translate(63.476562 0)"/>
      <use xlink:href="#DejaVuSans-72" transform="translate(125 0)"/>
      <use xlink:href="#DejaVuSans-63" transform="translate(163.863281 0)"/>
      <use xlink:href="#DejaVuSans-6f" transform="translate(218.84375 0)"/>
      <use xlink:href="#DejaVuSans-72" transform="translate(280.025391 0)"/>
      <use xlink:href="#DejaVuSans-73" transform="translate(321.138672 0)"/>
      <use xlink:href="#DejaVuSans-6f" transform="translate(373.238281 0)"/>
      <use xlink:href="#DejaVuSans-20" transform="translate(434.419922 0)"/>
      <use xlink:href="#DejaVuSans-61" transform="translate(466.207031 0)"/>
      <use xlink:href="#DejaVuSans-64" transform="translate(527.486328 0)"/>
      <use xlink:href="#DejaVuSans-20" transform="translate(590.962891 0)"/>
      <use xlink:href="#DejaVuSans-61" transform="translate(622.75 0)"/>
      <use xlink:href="#DejaVuSans-6c" transform="translate(684.029297 0)"/>
      <use xlink:href="#DejaVuSans-74" transform="translate(711.8125 0)"/>
      <use xlink:href="#DejaVuSans-61" transform="translate(751.021484 0)"/>
      <use xlink:href="#DejaVuSans-20" transform="translate(812.300781 0)"/>
      <use xlink:href="#DejaVuSans-73" transform="translate(844.087891 0)"/>
      <use xlink:href="#DejaVuSans-69" transform="translate(896.1875 0)"/>
      <use xlink:href="#DejaVuSans-6d" transform="translate(923.970703 0)"/>
      <use xlink:href="#DejaVuSans-6d" transform="translate(1021.382812 0)"/>
      <use xlink:href="#DejaVuSans-65" transform="translate(1118.794922 0)"/>
      <use xlink:href="#DejaVuSans-74" transform="translate(1180.318359 0)"/>
      <use xlink:href="#DejaVuSans-72" transform="translate(1219.527344 0)"/>
      <use xlink:href="#DejaVuSans-69" transform="translate(1260.640625 0)"/>
      <use xlink:href="#DejaVuSans-61" transform="translate(1288.423828 0)"/>
     </g>
    </g>
   </g>
   <g id="matplotlib.axis_2">
    <g id="ytick_1">
     <g id="line2d_9">
      <path d="M 89.985156 390.631539 
L 737.265156 390.631539 
" clip-path="url(#pb9a93c6f59)" style="fill: none; stroke: #b0b0b0; stroke-opacity: 0.13; stroke-width: 0.8; stroke-linecap: square"/>
     </g>
     <g id="line2d_10">
      <defs>
       <path id="m819acd992a" d="M 0 0 
L -3.5 0 
" style="stroke: #000000; stroke-width: 0.8"/>
      </defs>
      <g>
       <use xlink:href="#m819acd992a" x="89.985156" y="390.631539" style="stroke: #000000; stroke-width: 0.8"/>
      </g>
     </g>
     <g id="text_10">
      <!-- −10 -->
      <g transform="translate(61.880469 394.430757) scale(0.1 -0.1)">
       <defs>
        <path id="DejaVuSans-2212" d="M 678 2272 
L 4684 2272 
L 4684 1741 
L 678 1741 
L 678 2272 
z
" transform="scale(0.015625)"/>
        <path id="DejaVuSans-31" d="M 794 531 
L 1825 531 
L 1825 4091 
L 703 3866 
L 703 4441 
L 1819 4666 
L 2450 4666 
L 2450 531 
L 3481 531 
L 3481 0 
L 794 0 
L 794 531 
z
" transform="scale(0.015625)"/>
        <path id="DejaVuSans-30" d="M 2034 4250 
Q 1547 4250 1301 3770 
Q 1056 3291 1056 2328 
Q 1056 1369 1301 889 
Q 1547 409 2034 409 
Q 2525 409 2770 889 
Q 3016 1369 3016 2328 
Q 3016 3291 2770 3770 
Q 2525 4250 2034 4250 
z
M 2034 4750 
Q 2819 4750 3233 4129 
Q 3647 3509 3647 2328 
Q 3647 1150 3233 529 
Q 2819 -91 2034 -91 
Q 1250 -91 836 529 
Q 422 1150 422 2328 
Q 422 3509 836 4129 
Q 1250 4750 2034 4750 
z
" transform="scale(0.015625)"/>
       </defs>
       <use xlink:href="#DejaVuSans-2212"/>
       <use xlink:href="#DejaVuSans-31" transform="translate(83.789062 0)"/>
       <use xlink:href="#DejaVuSans-30" transform="translate(147.412109 0)"/>
      </g>
     </g>
    </g>
    <g id="ytick_2">
     <g id="line2d_11">
      <path d="M 89.985156 312.363303 
L 737.265156 312.363303 
" clip-path="url(#pb9a93c6f59)" style="fill: none; stroke: #b0b0b0; stroke-opacity: 0.13; stroke-width: 0.8; stroke-linecap: square"/>
     </g>
     <g id="line2d_12">
      <g>
       <use xlink:href="#m819acd992a" x="89.985156" y="312.363303" style="stroke: #000000; stroke-width: 0.8"/>
      </g>
     </g>
     <g id="text_11">
      <!-- −5 -->
      <g transform="translate(68.242969 316.162522) scale(0.1 -0.1)">
       <defs>
        <path id="DejaVuSans-35" d="M 691 4666 
L 3169 4666 
L 3169 4134 
L 1269 4134 
L 1269 2991 
Q 1406 3038 1543 3061 
Q 1681 3084 1819 3084 
Q 2600 3084 3056 2656 
Q 3513 2228 3513 1497 
Q 3513 744 3044 326 
Q 2575 -91 1722 -91 
Q 1428 -91 1123 -41 
Q 819 9 494 109 
L 494 744 
Q 775 591 1075 516 
Q 1375 441 1709 441 
Q 2250 441 2565 725 
Q 2881 1009 2881 1497 
Q 2881 1984 2565 2268 
Q 2250 2553 1709 2553 
Q 1456 2553 1204 2497 
Q 953 2441 691 2322 
L 691 4666 
z
" transform="scale(0.015625)"/>
       </defs>
       <use xlink:href="#DejaVuSans-2212"/>
       <use xlink:href="#DejaVuSans-35" transform="translate(83.789062 0)"/>
      </g>
     </g>
    </g>
    <g id="ytick_3">
     <g id="line2d_13">
      <path d="M 89.985156 234.095068 
L 737.265156 234.095068 
" clip-path="url(#pb9a93c6f59)" style="fill: none; stroke: #b0b0b0; stroke-opacity: 0.13; stroke-width: 0.8; stroke-linecap: square"/>
     </g>
     <g id="line2d_14">
      <g>
       <use xlink:href="#m819acd992a" x="89.985156" y="234.095068" style="stroke: #000000; stroke-width: 0.8"/>
      </g>
     </g>
     <g id="text_12">
      <!-- 0 -->
      <g transform="translate(76.622656 237.894287) scale(0.1 -0.1)">
       <use xlink:href="#DejaVuSans-30"/>
      </g>
     </g>
    </g>
    <g id="ytick_4">
     <g id="line2d_15">
      <path d="M 89.985156 155.826833 
L 737.265156 155.826833 
" clip-path="url(#pb9a93c6f59)" style="fill: none; stroke: #b0b0b0; stroke-opacity: 0.13; stroke-width: 0.8; stroke-linecap: square"/>
     </g>
     <g id="line2d_16">
      <g>
       <use xlink:href="#m819acd992a" x="89.985156" y="155.826833" style="stroke: #000000; stroke-width: 0.8"/>
      </g>
     </g>
     <g id="text_13">
      <!-- 5 -->
      <g transform="translate(76.622656 159.626051) scale(0.1 -0.1)">
       <use xlink:href="#DejaVuSans-35"/>
      </g>
     </g>
    </g>
    <g id="ytick_5">
     <g id="line2d_17">
      <path d="M 89.985156 77.558597 
L 737.265156 77.558597 
" clip-path="url(#pb9a93c6f59)" style="fill: none; stroke: #b0b0b0; stroke-opacity: 0.13; stroke-width: 0.8; stroke-linecap: square"/>
     </g>
     <g id="line2d_18">
      <g>
       <use xlink:href="#m819acd992a" x="89.985156" y="77.558597" style="stroke: #000000; stroke-width: 0.8"/>
      </g>
     </g>
     <g id="text_14">
      <!-- 10 -->
      <g transform="translate(70.260156 81.357816) scale(0.1 -0.1)">
       <use xlink:href="#DejaVuSans-31"/>
       <use xlink:href="#DejaVuSans-30" transform="translate(63.623047 0)"/>
      </g>
     </g>
    </g>
    <g id="text_15">
     <!-- energia (eV) -->
     <g transform="translate(55.800781 261.086344) rotate(-90) scale(0.1 -0.1)">
      <defs>
       <path id="DejaVuSans-6e" d="M 3513 2113 
L 3513 0 
L 2938 0 
L 2938 2094 
Q 2938 2591 2744 2837 
Q 2550 3084 2163 3084 
Q 1697 3084 1428 2787 
Q 1159 2491 1159 1978 
L 1159 0 
L 581 0 
L 581 3500 
L 1159 3500 
L 1159 2956 
Q 1366 3272 1645 3428 
Q 1925 3584 2291 3584 
Q 2894 3584 3203 3211 
Q 3513 2838 3513 2113 
z
" transform="scale(0.015625)"/>
       <path id="DejaVuSans-67" d="M 2906 1791 
Q 2906 2416 2648 2759 
Q 2391 3103 1925 3103 
Q 1463 3103 1205 2759 
Q 947 2416 947 1791 
Q 947 1169 1205 825 
Q 1463 481 1925 481 
Q 2391 481 2648 825 
Q 2906 1169 2906 1791 
z
M 3481 434 
Q 3481 -459 3084 -895 
Q 2688 -1331 1869 -1331 
Q 1566 -1331 1297 -1286 
Q 1028 -1241 775 -1147 
L 775 -588 
Q 1028 -725 1275 -790 
Q 1522 -856 1778 -856 
Q 2344 -856 2625 -561 
Q 2906 -266 2906 331 
L 2906 616 
Q 2728 306 2450 153 
Q 2172 0 1784 0 
Q 1141 0 747 490 
Q 353 981 353 1791 
Q 353 2603 747 3093 
Q 1141 3584 1784 3584 
Q 2172 3584 2450 3431 
Q 2728 3278 2906 2969 
L 2906 3500 
L 3481 3500 
L 3481 434 
z
" transform="scale(0.015625)"/>
       <path id="DejaVuSans-28" d="M 1984 4856 
Q 1566 4138 1362 3434 
Q 1159 2731 1159 2009 
Q 1159 1288 1364 580 
Q 1569 -128 1984 -844 
L 1484 -844 
Q 1016 -109 783 600 
Q 550 1309 550 2009 
Q 550 2706 781 3412 
Q 1013 4119 1484 4856 
L 1984 4856 
z
" transform="scale(0.015625)"/>
       <path id="DejaVuSans-56" d="M 1831 0 
L 50 4666 
L 709 4666 
L 2188 738 
L 3669 4666 
L 4325 4666 
L 2547 0 
L 1831 0 
z
" transform="scale(0.015625)"/>
       <path id="DejaVuSans-29" d="M 513 4856 
L 1013 4856 
Q 1481 4119 1714 3412 
Q 1947 2706 1947 2009 
Q 1947 1309 1714 600 
Q 1481 -109 1013 -844 
L 513 -844 
Q 928 -128 1133 580 
Q 1338 1288 1338 2009 
Q 1338 2731 1133 3434 
Q 928 4138 513 4856 
z
" transform="scale(0.015625)"/>
      </defs>
      <use xlink:href="#DejaVuSans-65"/>
      <use xlink:href="#DejaVuSans-6e" transform="translate(61.523438 0)"/>
      <use xlink:href="#DejaVuSans-65" transform="translate(124.902344 0)"/>
      <use xlink:href="#DejaVuSans-72" transform="translate(186.425781 0)"/>
      <use xlink:href="#DejaVuSans-67" transform="translate(225.789062 0)"/>
      <use xlink:href="#DejaVuSans-69" transform="translate(289.265625 0)"/>
      <use xlink:href="#DejaVuSans-61" transform="translate(317.048828 0)"/>
      <use xlink:href="#DejaVuSans-20" transform="translate(378.328125 0)"/>
      <use xlink:href="#DejaVuSans-28" transform="translate(410.115234 0)"/>
      <use xlink:href="#DejaVuSans-65" transform="translate(449.128906 0)"/>
      <use xlink:href="#DejaVuSans-56" transform="translate(510.652344 0)"/>
      <use xlink:href="#DejaVuSans-29" transform="translate(579.060547 0)"/>
     </g>
    </g>
   </g>
   <g id="line2d_19">
    <path d="M 89.985156 406.285186 
L 100.348545 397.484478 
L 108.552895 390.798018 
L 115.893629 385.101808 
L 122.370747 380.351107 
L 128.416057 376.188734 
L 134.029559 372.589044 
L 139.211254 369.517311 
L 144.392948 366.708676 
L 149.142835 364.383568 
L 153.892721 362.314137 
L 158.2108 360.668631 
L 162.528879 359.260541 
L 166.846957 358.102298 
L 170.733228 357.283777 
L 174.619499 356.686769 
L 178.50577 356.320337 
L 182.392041 356.193546 
L 191.028198 356.301751 
L 200.096164 356.639162 
L 209.595937 357.217124 
L 219.527518 358.042462 
L 230.322715 359.165792 
L 241.981527 360.605904 
L 254.935763 362.432108 
L 270.480847 364.858431 
L 277.821581 366.152228 
L 281.276044 367.045315 
L 284.730506 368.155956 
L 288.616777 369.639711 
L 292.934856 371.544718 
L 297.684743 373.90527 
L 302.866437 376.735751 
L 309.343555 380.544878 
L 320.138752 387.212406 
L 329.638525 392.977898 
L 335.683835 396.390104 
L 340.86553 399.055054 
L 345.183609 401.039315 
L 349.069879 402.605598 
L 352.95615 403.933336 
L 356.410613 404.889473 
L 359.865076 405.613164 
L 362.887731 406.039451 
L 365.910386 406.258071 
L 368.501234 406.25966 
L 370.660273 406.06736 
L 373.25112 405.598724 
L 375.841967 404.885416 
L 378.432815 403.943138 
L 381.023662 402.78759 
L 384.046317 401.190847 
L 387.068972 399.350123 
L 390.523435 396.97967 
L 394.409706 394.017264 
L 398.727785 390.420711 
L 403.909479 385.780218 
L 410.818405 379.24825 
L 424.204449 366.513132 
L 429.386144 361.924102 
L 433.704222 358.386428 
L 437.590493 355.489443 
L 441.044956 353.187026 
L 444.067611 351.413467 
L 447.090266 349.891013 
L 449.681114 348.80481 
L 452.271961 347.93711 
L 454.862808 347.303616 
L 457.453655 346.920026 
L 459.612695 346.802595 
L 464.362581 346.887532 
L 469.976084 347.218216 
L 476.021394 347.815289 
L 482.498512 348.6857 
L 489.839246 349.896837 
L 499.339019 351.700374 
L 524.383875 356.584485 
L 531.724609 357.736141 
L 538.201727 358.536754 
L 544.247038 359.054037 
L 549.86054 359.297969 
L 555.474042 359.302994 
L 563.246584 359.082959 
L 571.882741 358.602616 
L 581.814322 357.820229 
L 596.063982 356.447026 
L 617.654376 354.364526 
L 628.017765 353.606456 
L 636.653922 353.199895 
L 644.426464 353.063086 
L 659.107931 353.159428 
L 673.789399 353.471634 
L 688.039059 353.998662 
L 701.856911 354.736866 
L 715.242955 355.68022 
L 728.197191 356.820554 
L 737.265156 357.75888 
L 737.265156 357.75888 
" clip-path="url(#pb9a93c6f59)" style="fill: none; stroke: #1f77b4; stroke-width: 1.75; stroke-linecap: square"/>
   </g>
   <g id="line2d_20">
    <path d="M 89.985156 343.670597 
L 98.189506 336.80268 
L 105.53024 330.938476 
L 112.439166 325.703039 
L 118.916284 321.078569 
L 124.961594 317.037813 
L 130.575096 313.546112 
L 136.188599 310.325671 
L 141.370293 307.610981 
L 146.551987 305.160134 
L 151.301874 303.158711 
L 156.051761 301.404276 
L 160.369839 300.033838 
L 164.687918 298.886604 
L 169.005997 297.971658 
L 173.324076 297.298087 
L 177.210346 296.905759 
L 181.096617 296.722928 
L 185.846504 296.749213 
L 191.891814 297.007164 
L 197.937124 297.487199 
L 204.414242 298.223912 
L 211.323168 299.234616 
L 218.663902 300.528209 
L 226.868252 302.196146 
L 236.799833 304.455691 
L 249.754069 307.651508 
L 283.003275 316.157893 
L 288.616777 318.036689 
L 294.662088 320.296502 
L 302.002821 323.281318 
L 313.661634 328.300299 
L 325.752254 333.440669 
L 333.092988 336.31826 
L 339.138298 338.451751 
L 344.319993 340.059121 
L 349.069879 341.31715 
L 353.819766 342.337585 
L 358.137845 343.033296 
L 362.024116 343.450876 
L 365.910386 343.653471 
L 369.364849 343.619966 
L 372.387504 343.353362 
L 375.41016 342.871928 
L 378.864623 342.078859 
L 382.319086 341.049267 
L 386.205356 339.637524 
L 390.091627 337.989649 
L 394.409706 335.922437 
L 399.5914 333.176153 
L 405.636711 329.706174 
L 416.0001 323.440132 
L 425.068065 318.05496 
L 430.681567 314.963091 
L 435.431454 312.582224 
L 439.749533 310.659625 
L 443.635803 309.165453 
L 447.090266 308.053225 
L 450.544729 307.168705 
L 453.567384 306.600021 
L 456.59004 306.239419 
L 459.612695 306.102646 
L 465.226197 306.193085 
L 471.703315 306.524633 
L 478.612241 307.104027 
L 486.384783 307.977021 
L 496.316364 309.33049 
L 529.133762 314.017682 
L 536.906304 314.797445 
L 543.81523 315.269884 
L 549.86054 315.474326 
L 556.769466 315.468586 
L 566.701047 315.240539 
L 577.496244 314.760078 
L 589.586864 313.991866 
L 604.268332 312.825736 
L 630.608612 310.455803 
L 654.358045 308.432549 
L 675.948438 306.4645 
L 698.834256 304.155673 
L 723.447304 301.448797 
L 737.265156 299.840386 
L 737.265156 299.840386 
" clip-path="url(#pb9a93c6f59)" style="fill: none; stroke: #ff7f0e; stroke-width: 1.75; stroke-linecap: square"/>
   </g>
   <g id="line2d_21">
    <path d="M 89.985156 295.144292 
L 101.643969 290.425583 
L 111.57555 286.640602 
L 120.211707 283.577577 
L 128.416057 280.90466 
L 135.756791 278.738856 
L 142.665717 276.91929 
L 149.574643 275.333927 
L 156.051761 274.079514 
L 162.097071 273.127191 
L 168.142381 272.400577 
L 173.755883 271.940581 
L 179.369386 271.699205 
L 184.982888 271.677617 
L 192.75543 271.87965 
L 201.391587 272.344143 
L 211.323168 273.113708 
L 225.14102 274.434983 
L 248.458645 276.680286 
L 258.390226 277.396414 
L 267.026384 277.796111 
L 274.367118 277.924605 
L 277.389773 277.833316 
L 280.412428 277.480104 
L 283.435083 276.879254 
L 286.457738 276.04914 
L 289.912201 274.843271 
L 293.366664 273.389371 
L 297.252935 271.491405 
L 301.571013 269.102579 
L 306.3209 266.196343 
L 311.934402 262.480201 
L 320.138752 256.733738 
L 331.797565 248.578006 
L 337.411067 244.929355 
L 342.160953 242.103455 
L 346.479032 239.806141 
L 350.365303 238.005582 
L 353.819766 236.650234 
L 356.842421 235.676068 
L 359.865076 234.918796 
L 362.887731 234.396788 
L 365.910386 234.128415 
L 368.501234 234.11298 
L 371.523889 234.338028 
L 374.546544 234.807736 
L 377.569199 235.505381 
L 380.591854 236.414242 
L 384.046317 237.690125 
L 387.50078 239.195083 
L 391.387051 241.1309 
L 395.70513 243.541569 
L 400.455016 246.452814 
L 406.068518 250.157692 
L 414.272868 255.875175 
L 426.795296 264.604897 
L 432.408799 268.248804 
L 437.158685 271.08816 
L 441.476764 273.41733 
L 445.363035 275.26665 
L 448.817498 276.684266 
L 452.271961 277.862964 
L 455.294616 278.678717 
L 458.317271 279.275718 
L 462.203542 279.767526 
L 478.612241 281.577151 
L 493.293709 282.97631 
L 507.111561 284.069428 
L 520.065797 284.869582 
L 532.156417 285.39766 
L 543.81523 285.687355 
L 554.610426 285.740293 
L 561.95116 285.550961 
L 569.723702 285.125302 
L 578.359859 284.424301 
L 588.29144 283.384337 
L 600.813869 281.829853 
L 637.949346 277.048878 
L 648.312735 276.036171 
L 685.880019 272.699007 
L 721.288265 269.775314 
L 737.265156 268.533092 
L 737.265156 268.533092 
" clip-path="url(#pb9a93c6f59)" style="fill: none; stroke: #2ca02c; stroke-width: 1.75; stroke-linecap: square"/>
   </g>
   <g id="line2d_22">
    <path d="M 89.985156 295.144292 
L 100.780353 288.511717 
L 109.41651 283.44965 
L 117.189052 279.141048 
L 124.097978 275.549973 
L 130.575096 272.420144 
L 136.620406 269.73194 
L 142.665717 267.292855 
L 148.279219 265.271698 
L 153.460913 263.631099 
L 158.642608 262.221868 
L 163.392494 261.146027 
L 168.142381 260.288555 
L 172.892268 259.660909 
L 177.642154 259.274547 
L 181.960233 259.142328 
L 188.005543 259.222158 
L 194.914469 259.528987 
L 202.687011 260.101127 
L 211.754976 261.000544 
L 223.845597 262.441748 
L 247.595029 265.321023 
L 256.662995 266.172694 
L 264.435537 266.688563 
L 271.344462 266.933481 
L 276.526157 266.938401 
L 279.548812 266.729087 
L 283.003275 266.258433 
L 286.457738 265.560622 
L 290.344009 264.529668 
L 294.23028 263.266533 
L 298.548358 261.626356 
L 303.298245 259.580787 
L 308.911747 256.908308 
L 316.252481 253.13671 
L 334.82022 243.457366 
L 340.433722 240.847514 
L 345.183609 238.872361 
L 349.501687 237.310057 
L 353.387958 236.128293 
L 357.274229 235.189401 
L 360.728692 234.582397 
L 364.183155 234.210999 
L 367.20581 234.095462 
L 370.660273 234.189037 
L 374.546544 234.533356 
L 378.432815 235.110483 
L 382.319086 235.899444 
L 386.637164 236.999001 
L 391.387051 238.446323 
L 396.568745 240.265677 
L 402.614056 242.640797 
L 409.954789 245.78183 
L 435.431454 256.934144 
L 441.044956 259.044363 
L 446.226651 260.760172 
L 450.976537 262.093594 
L 455.294616 263.073849 
L 459.180887 263.742607 
L 471.703315 265.396038 
L 488.97563 267.50795 
L 502.793482 268.983282 
L 515.31591 270.096506 
L 526.542915 270.872345 
L 536.906304 271.370538 
L 546.837885 271.625417 
L 555.474042 271.640347 
L 562.814776 271.414504 
L 570.587318 270.944908 
L 579.223475 270.193083 
L 589.155056 269.098357 
L 602.5411 267.375514 
L 630.608612 263.693359 
L 640.972001 262.604105 
L 652.630813 261.641976 
L 681.993749 259.421454 
L 707.902221 257.680783 
L 731.651654 256.302113 
L 737.265156 256.010174 
L 737.265156 256.010174 
" clip-path="url(#pb9a93c6f59)" style="fill: none; stroke: #d62728; stroke-width: 1.75; stroke-linecap: square"/>
   </g>
   <g id="line2d_23">
    <path d="M 89.985156 184.003397 
L 98.621314 188.996621 
L 106.825663 193.483365 
L 114.166397 197.252932 
L 121.075323 200.563225 
L 127.552441 203.436084 
L 134.029559 206.06604 
L 140.074869 208.284428 
L 146.12018 210.258603 
L 151.733682 211.859331 
L 157.347184 213.223302 
L 162.528879 214.261309 
L 167.710573 215.076924 
L 172.892268 215.660229 
L 177.642154 215.98238 
L 182.392041 216.093355 
L 188.869159 215.984293 
L 195.778085 215.63844 
L 203.118819 215.038948 
L 210.89136 214.176524 
L 219.527518 212.986423 
L 229.459099 211.377852 
L 241.549719 209.176923 
L 280.412428 201.695358 
L 286.457738 200.267311 
L 293.366664 198.40322 
L 302.002821 195.825029 
L 318.843328 190.484023 
L 329.206717 187.339753 
L 336.547451 185.333109 
L 343.024569 183.789076 
L 348.638072 182.668194 
L 353.819766 181.845937 
L 359.00146 181.257181 
L 363.751347 180.947205 
L 368.069426 180.875688 
L 372.387504 181.031285 
L 376.705583 181.406098 
L 381.45547 182.04419 
L 386.637164 182.975229 
L 392.250667 184.215742 
L 398.727785 185.882502 
L 406.932134 188.239638 
L 430.681567 195.226421 
L 437.158685 196.81657 
L 442.772188 197.969799 
L 447.953882 198.803052 
L 452.703769 199.336988 
L 457.021847 199.605062 
L 461.339926 199.653472 
L 469.976084 199.500711 
L 479.907665 199.090517 
L 491.998285 198.349503 
L 513.588679 196.743043 
L 529.133762 195.699125 
L 539.928959 195.191613 
L 548.996924 194.978794 
L 555.90585 195.009076 
L 561.519352 195.267293 
L 567.564663 195.769446 
L 574.041781 196.530381 
L 581.382514 197.623676 
L 590.018672 199.150393 
L 601.245677 201.379674 
L 624.563302 206.066679 
L 633.199459 207.539016 
L 640.540193 208.568985 
L 647.880927 209.361165 
L 672.062168 211.686471 
L 691.92533 213.37577 
L 709.197645 214.624463 
L 724.742728 215.533194 
L 737.265156 216.093374 
L 737.265156 216.093374 
" clip-path="url(#pb9a93c6f59)" style="fill: none; stroke: #9467bd; stroke-width: 1.75; stroke-linecap: square"/>
   </g>
   <g id="line2d_24">
    <path d="M 89.985156 133.911727 
L 97.757698 139.047624 
L 105.098432 143.644614 
L 112.007358 147.720413 
L 118.484476 151.299269 
L 124.961594 154.623936 
L 131.006904 157.480537 
L 137.052214 160.083092 
L 142.665717 162.25851 
L 148.279219 164.188694 
L 153.460913 165.741834 
L 158.642608 167.065358 
L 163.824302 168.149348 
L 168.574189 168.924113 
L 173.324076 169.481634 
L 178.073962 169.814271 
L 182.823849 169.914587 
L 188.437351 169.781196 
L 194.050853 169.427134 
L 200.096164 168.823352 
L 206.573282 167.949777 
L 213.482208 166.795388 
L 221.254749 165.270272 
L 230.322715 163.260358 
L 242.845143 160.234959 
L 265.73096 154.676569 
L 275.230733 152.633619 
L 281.707851 151.208101 
L 289.480393 149.256818 
L 298.980166 146.624036 
L 330.070333 137.802959 
L 337.411067 136.051471 
L 343.888185 134.723202 
L 349.933495 133.709096 
L 355.546997 132.995568 
L 360.728692 132.558188 
L 365.478579 132.364299 
L 369.364849 132.388555 
L 372.819312 132.657384 
L 376.273775 133.157593 
L 379.728238 133.869596 
L 383.614509 134.899369 
L 387.932588 136.294945 
L 392.682474 138.09152 
L 397.864169 140.305718 
L 403.909479 143.13845 
L 412.977444 147.671085 
L 425.068065 153.692727 
L 431.113375 156.457974 
L 436.29507 158.590453 
L 441.044956 160.292762 
L 445.363035 161.586573 
L 449.249306 162.511674 
L 452.703769 163.120228 
L 456.158232 163.507196 
L 459.612695 163.652989 
L 464.794389 163.550459 
L 470.407891 163.201942 
L 476.453202 162.588556 
L 482.93032 161.703995 
L 490.702861 160.40326 
L 500.634442 158.496061 
L 523.52026 154.019756 
L 531.292801 152.780055 
L 537.769919 151.96421 
L 543.81523 151.429603 
L 549.428732 151.1669 
L 555.042234 151.146686 
L 562.382968 151.340773 
L 570.587318 151.79087 
L 579.223475 152.488783 
L 589.155056 153.516916 
L 601.677484 155.053298 
L 643.562848 160.395964 
L 694.947985 165.616889 
L 737.265156 169.915115 
L 737.265156 169.915115 
" clip-path="url(#pb9a93c6f59)" style="fill: none; stroke: #8c564b; stroke-width: 1.75; stroke-linecap: square"/>
   </g>
   <g id="line2d_25">
    <path d="M 89.985156 93.212244 
L 99.053122 97.843183 
L 107.257471 101.788585 
L 115.030013 105.281291 
L 122.370747 108.33543 
L 129.279673 110.971458 
L 135.756791 113.214942 
L 142.233909 115.221482 
L 148.279219 116.866239 
L 154.324529 118.27741 
L 159.938032 119.367158 
L 165.551534 120.233677 
L 171.165036 120.86646 
L 176.346731 121.234024 
L 181.528425 121.385212 
L 187.573735 121.31173 
L 194.050853 121.008072 
L 200.959779 120.459276 
L 208.732321 119.60518 
L 217.368478 118.418068 
L 227.731867 116.751738 
L 243.276951 113.992713 
L 260.981074 110.904898 
L 270.912655 109.398309 
L 296.389319 105.768592 
L 326.61587 101.150706 
L 336.979259 99.835972 
L 346.047224 98.911245 
L 353.819766 98.332321 
L 361.1605 98.001385 
L 368.069426 97.912617 
L 371.523889 98.063076 
L 375.41016 98.474063 
L 379.29643 99.118161 
L 383.614509 100.078395 
L 387.932588 101.264634 
L 392.682474 102.791723 
L 398.295977 104.83912 
L 405.204903 107.619274 
L 416.863715 112.609672 
L 426.363488 116.573678 
L 432.840607 119.031258 
L 438.022301 120.768162 
L 442.772188 122.129275 
L 447.090266 123.137311 
L 450.976537 123.829992 
L 454.862808 124.294831 
L 458.317271 124.49758 
L 462.203542 124.495804 
L 467.385236 124.284188 
L 472.998739 123.832848 
L 479.044049 123.126083 
L 485.952975 122.090731 
L 494.157324 120.629008 
L 506.679753 118.139039 
L 521.36122 115.269324 
L 529.56557 113.899564 
L 536.474496 112.974707 
L 542.519806 112.389417 
L 548.133308 112.071594 
L 553.315003 111.99804 
L 562.382968 112.136644 
L 572.314549 112.518443 
L 583.541554 113.182717 
L 596.927598 114.207315 
L 619.381607 116.194118 
L 638.812961 117.82838 
L 656.517084 119.051727 
L 737.265156 124.519539 
L 737.265156 124.519539 
" clip-path="url(#pb9a93c6f59)" style="fill: none; stroke: #e377c2; stroke-width: 1.75; stroke-linecap: square"/>
   </g>
   <g id="line2d_26">
    <path d="M 89.985156 46.251303 
L 99.053122 50.423194 
L 107.257471 53.960656 
L 115.030013 57.079528 
L 122.370747 59.797009 
L 129.71148 62.273723 
L 136.620406 64.367977 
L 143.097524 66.108587 
L 149.574643 67.620431 
L 155.619953 68.813698 
L 161.665263 69.785938 
L 167.710573 70.526654 
L 173.324076 70.997978 
L 178.937578 71.252215 
L 184.55108 71.2835 
L 190.59639 71.098825 
L 197.073508 70.682904 
L 203.982434 70.023151 
L 211.754976 69.05799 
L 220.822941 67.699275 
L 232.481754 65.708798 
L 262.276497 60.506694 
L 271.344462 59.212819 
L 334.388412 51.237895 
L 344.319993 50.342804 
L 352.95615 49.776459 
L 361.1605 49.458757 
L 368.501234 49.394124 
L 371.955697 49.581254 
L 375.41016 49.981035 
L 379.29643 50.663021 
L 383.182701 51.566731 
L 387.50078 52.800368 
L 392.250667 54.396644 
L 397.432361 56.371655 
L 403.909479 59.094912 
L 413.409252 63.371632 
L 425.499873 68.778577 
L 431.976991 71.417907 
L 437.158685 73.297886 
L 441.908572 74.785272 
L 446.226651 75.901841 
L 450.112921 76.68547 
L 453.999192 77.233431 
L 457.453655 77.502372 
L 460.908118 77.554401 
L 466.521621 77.396154 
L 472.566931 76.994654 
L 479.044049 76.339324 
L 486.384783 75.370892 
L 495.452748 73.937863 
L 512.293255 70.984457 
L 523.952068 69.063358 
L 532.156417 67.93787 
L 539.065343 67.212634 
L 545.110653 66.790888 
L 550.724156 66.61082 
L 558.928505 66.628847 
L 573.178165 66.858847 
L 589.586864 67.352128 
L 611.177258 68.23793 
L 698.402448 72.247467 
L 733.810693 74.224073 
L 737.265156 74.427868 
L 737.265156 74.427868 
" clip-path="url(#pb9a93c6f59)" style="fill: none; stroke: #7f7f7f; stroke-width: 1.75; stroke-linecap: square"/>
   </g>
   <g id="line2d_27">
    <path d="M 89.985156 429.765656 
L 89.985156 30.597656 
" clip-path="url(#pb9a93c6f59)" style="fill: none; stroke: #1f77b4; stroke-opacity: 0.45; stroke-width: 0.55; stroke-linecap: square"/>
   </g>
   <g id="line2d_28">
    <path d="M 182.453728 429.765656 
L 182.453728 30.597656 
" clip-path="url(#pb9a93c6f59)" style="fill: none; stroke: #1f77b4; stroke-opacity: 0.45; stroke-width: 0.55; stroke-linecap: square"/>
   </g>
   <g id="line2d_29">
    <path d="M 274.922299 429.765656 
L 274.922299 30.597656 
" clip-path="url(#pb9a93c6f59)" style="fill: none; stroke: #1f77b4; stroke-opacity: 0.45; stroke-width: 0.55; stroke-linecap: square"/>
   </g>
   <g id="line2d_30">
    <path d="M 367.390871 429.765656 
L 367.390871 30.597656 
" clip-path="url(#pb9a93c6f59)" style="fill: none; stroke: #1f77b4; stroke-opacity: 0.45; stroke-width: 0.55; stroke-linecap: square"/>
   </g>
   <g id="line2d_31">
    <path d="M 459.859442 429.765656 
L 459.859442 30.597656 
" clip-path="url(#pb9a93c6f59)" style="fill: none; stroke: #1f77b4; stroke-opacity: 0.45; stroke-width: 0.55; stroke-linecap: square"/>
   </g>
   <g id="line2d_32">
    <path d="M 552.328013 429.765656 
L 552.328013 30.597656 
" clip-path="url(#pb9a93c6f59)" style="fill: none; stroke: #1f77b4; stroke-opacity: 0.45; stroke-width: 0.55; stroke-linecap: square"/>
   </g>
   <g id="line2d_33">
    <path d="M 644.796585 429.765656 
L 644.796585 30.597656 
" clip-path="url(#pb9a93c6f59)" style="fill: none; stroke: #1f77b4; stroke-opacity: 0.45; stroke-width: 0.55; stroke-linecap: square"/>
   </g>
   <g id="line2d_34">
    <path d="M 737.265156 429.765656 
L 737.265156 30.597656 
" clip-path="url(#pb9a93c6f59)" style="fill: none; stroke: #1f77b4; stroke-opacity: 0.45; stroke-width: 0.55; stroke-linecap: square"/>
   </g>
   <g id="line2d_35">
    <path d="M 89.985156 234.095068 
L 737.265156 234.095068 
" clip-path="url(#pb9a93c6f59)" style="fill: none; stroke-dasharray: 3.33,1.44; stroke-dashoffset: 0; stroke: #1f77b4; stroke-width: 0.9"/>
   </g>
   <g id="patch_4">
    <path d="M 89.985156 429.765656 
L 89.985156 30.597656 
" style="fill: none; stroke: #000000; stroke-width: 0.8; stroke-linejoin: miter; stroke-linecap: square"/>
   </g>
   <g id="patch_5">
    <path d="M 737.265156 429.765656 
L 737.265156 30.597656 
" style="fill: none; stroke: #000000; stroke-width: 0.8; stroke-linejoin: miter; stroke-linecap: square"/>
   </g>
   <g id="patch_6">
    <path d="M 89.985156 429.765656 
L 737.265156 429.765656 
" style="fill: none; stroke: #000000; stroke-width: 0.8; stroke-linejoin: miter; stroke-linecap: square"/>
   </g>
   <g id="patch_7">
    <path d="M 89.985156 30.597656 
L 737.265156 30.597656 
" style="fill: none; stroke: #000000; stroke-width: 0.8; stroke-linejoin: miter; stroke-linecap: square"/>
   </g>
   <g id="text_16">
    <!-- gap indiretto -->
    <g transform="translate(663.648183 225.955172) scale(0.093 -0.093)">
     <use xlink:href="#DejaVuSans-67"/>
     <use xlink:href="#DejaVuSans-61" transform="translate(63.476562 0)"/>
     <use xlink:href="#DejaVuSans-70" transform="translate(124.755859 0)"/>
     <use xlink:href="#DejaVuSans-20" transform="translate(188.232422 0)"/>
     <use xlink:href="#DejaVuSans-69" transform="translate(220.019531 0)"/>
     <use xlink:href="#DejaVuSans-6e" transform="translate(247.802734 0)"/>
     <use xlink:href="#DejaVuSans-64" transform="translate(311.181641 0)"/>
     <use xlink:href="#DejaVuSans-69" transform="translate(374.658203 0)"/>
     <use xlink:href="#DejaVuSans-72" transform="translate(402.441406 0)"/>
     <use xlink:href="#DejaVuSans-65" transform="translate(441.304688 0)"/>
     <use xlink:href="#DejaVuSans-74" transform="translate(502.828125 0)"/>
     <use xlink:href="#DejaVuSans-74" transform="translate(542.037109 0)"/>
     <use xlink:href="#DejaVuSans-6f" transform="translate(581.246094 0)"/>
    </g>
   </g>
   <g id="patch_8">
    <path d="M 238.098805 195.611875 
Q 211.215345 205.506974 185.276181 215.054503 
" style="fill: none; stroke: #000000; stroke-width: 0.9; stroke-linecap: round"/>
    <path d="M 189.27635 215.500204 
L 185.276181 215.054503 
L 188.032843 212.121788 
z
" style="fill: #1f77b4; stroke: #000000; stroke-width: 0.9; stroke-linecap: round"/>
   </g>
   <g id="text_17">
    <!-- CB bottom -->
    <g transform="translate(233.311442 191.047539) scale(0.09 -0.09)">
     <defs>
      <path id="DejaVuSans-43" d="M 4122 4306 
L 4122 3641 
Q 3803 3938 3442 4084 
Q 3081 4231 2675 4231 
Q 1875 4231 1450 3742 
Q 1025 3253 1025 2328 
Q 1025 1406 1450 917 
Q 1875 428 2675 428 
Q 3081 428 3442 575 
Q 3803 722 4122 1019 
L 4122 359 
Q 3791 134 3420 21 
Q 3050 -91 2638 -91 
Q 1578 -91 968 557 
Q 359 1206 359 2328 
Q 359 3453 968 4101 
Q 1578 4750 2638 4750 
Q 3056 4750 3426 4639 
Q 3797 4528 4122 4306 
z
" transform="scale(0.015625)"/>
      <path id="DejaVuSans-42" d="M 1259 2228 
L 1259 519 
L 2272 519 
Q 2781 519 3026 730 
Q 3272 941 3272 1375 
Q 3272 1813 3026 2020 
Q 2781 2228 2272 2228 
L 1259 2228 
z
M 1259 4147 
L 1259 2741 
L 2194 2741 
Q 2656 2741 2882 2914 
Q 3109 3088 3109 3444 
Q 3109 3797 2882 3972 
Q 2656 4147 2194 4147 
L 1259 4147 
z
M 628 4666 
L 2241 4666 
Q 2963 4666 3353 4366 
Q 3744 4066 3744 3513 
Q 3744 3084 3544 2831 
Q 3344 2578 2956 2516 
Q 3422 2416 3680 2098 
Q 3938 1781 3938 1306 
Q 3938 681 3513 340 
Q 3088 0 2303 0 
L 628 0 
L 628 4666 
z
" transform="scale(0.015625)"/>
      <path id="DejaVuSans-62" d="M 3116 1747 
Q 3116 2381 2855 2742 
Q 2594 3103 2138 3103 
Q 1681 3103 1420 2742 
Q 1159 2381 1159 1747 
Q 1159 1113 1420 752 
Q 1681 391 2138 391 
Q 2594 391 2855 752 
Q 3116 1113 3116 1747 
z
M 1159 2969 
Q 1341 3281 1617 3432 
Q 1894 3584 2278 3584 
Q 2916 3584 3314 3078 
Q 3713 2572 3713 1747 
Q 3713 922 3314 415 
Q 2916 -91 2278 -91 
Q 1894 -91 1617 61 
Q 1341 213 1159 525 
L 1159 0 
L 581 0 
L 581 4863 
L 1159 4863 
L 1159 2969 
z
" transform="scale(0.015625)"/>
     </defs>
     <use xlink:href="#DejaVuSans-43"/>
     <use xlink:href="#DejaVuSans-42" transform="translate(69.824219 0)"/>
     <use xlink:href="#DejaVuSans-20" transform="translate(138.427734 0)"/>
     <use xlink:href="#DejaVuSans-62" transform="translate(170.214844 0)"/>
     <use xlink:href="#DejaVuSans-6f" transform="translate(233.691406 0)"/>
     <use xlink:href="#DejaVuSans-74" transform="translate(294.873047 0)"/>
     <use xlink:href="#DejaVuSans-74" transform="translate(334.082031 0)"/>
     <use xlink:href="#DejaVuSans-6f" transform="translate(373.291016 0)"/>
     <use xlink:href="#DejaVuSans-6d" transform="translate(434.472656 0)"/>
    </g>
   </g>
   <g id="patch_9">
    <path d="M 423.564903 249.22027 
Q 396.443035 241.917541 370.292793 234.876428 
" style="fill: none; stroke: #000000; stroke-width: 0.9; stroke-linecap: round"/>
    <path d="M 373.300994 237.550512 
L 370.292793 234.876428 
L 374.236981 234.074318 
z
" style="fill: #1f77b4; stroke: #000000; stroke-width: 0.9; stroke-linecap: round"/>
   </g>
   <g id="text_18">
    <!-- VB top -->
    <g transform="translate(427.495442 256.792856) scale(0.09 -0.09)">
     <use xlink:href="#DejaVuSans-56"/>
     <use xlink:href="#DejaVuSans-42" transform="translate(68.408203 0)"/>
     <use xlink:href="#DejaVuSans-20" transform="translate(137.011719 0)"/>
     <use xlink:href="#DejaVuSans-74" transform="translate(168.798828 0)"/>
     <use xlink:href="#DejaVuSans-6f" transform="translate(208.007812 0)"/>
     <use xlink:href="#DejaVuSans-70" transform="translate(269.189453 0)"/>
    </g>
   </g>
   <g id="text_19">
    <!-- Struttura a bande qualitativa del silicio -->
    <g transform="translate(246.956406 18.597656) scale(0.15 -0.15)">
     <defs>
      <path id="DejaVuSans-Bold-53" d="M 3834 4519 
L 3834 3531 
Q 3450 3703 3084 3790 
Q 2719 3878 2394 3878 
Q 1963 3878 1756 3759 
Q 1550 3641 1550 3391 
Q 1550 3203 1689 3098 
Q 1828 2994 2194 2919 
L 2706 2816 
Q 3484 2659 3812 2340 
Q 4141 2022 4141 1434 
Q 4141 663 3683 286 
Q 3225 -91 2284 -91 
Q 1841 -91 1394 -6 
Q 947 78 500 244 
L 500 1259 
Q 947 1022 1364 901 
Q 1781 781 2169 781 
Q 2563 781 2772 912 
Q 2981 1044 2981 1288 
Q 2981 1506 2839 1625 
Q 2697 1744 2272 1838 
L 1806 1941 
Q 1106 2091 782 2419 
Q 459 2747 459 3303 
Q 459 4000 909 4375 
Q 1359 4750 2203 4750 
Q 2588 4750 2994 4692 
Q 3400 4634 3834 4519 
z
" transform="scale(0.015625)"/>
      <path id="DejaVuSans-Bold-74" d="M 1759 4494 
L 1759 3500 
L 2913 3500 
L 2913 2700 
L 1759 2700 
L 1759 1216 
Q 1759 972 1856 886 
Q 1953 800 2241 800 
L 2816 800 
L 2816 0 
L 1856 0 
Q 1194 0 917 276 
Q 641 553 641 1216 
L 641 2700 
L 84 2700 
L 84 3500 
L 641 3500 
L 641 4494 
L 1759 4494 
z
" transform="scale(0.015625)"/>
      <path id="DejaVuSans-Bold-72" d="M 3138 2547 
Q 2991 2616 2845 2648 
Q 2700 2681 2553 2681 
Q 2122 2681 1889 2404 
Q 1656 2128 1656 1613 
L 1656 0 
L 538 0 
L 538 3500 
L 1656 3500 
L 1656 2925 
Q 1872 3269 2151 3426 
Q 2431 3584 2822 3584 
Q 2878 3584 2943 3579 
Q 3009 3575 3134 3559 
L 3138 2547 
z
" transform="scale(0.015625)"/>
      <path id="DejaVuSans-Bold-75" d="M 500 1363 
L 500 3500 
L 1625 3500 
L 1625 3150 
Q 1625 2866 1622 2436 
Q 1619 2006 1619 1863 
Q 1619 1441 1641 1255 
Q 1663 1069 1716 984 
Q 1784 875 1895 815 
Q 2006 756 2150 756 
Q 2500 756 2700 1025 
Q 2900 1294 2900 1772 
L 2900 3500 
L 4019 3500 
L 4019 0 
L 2900 0 
L 2900 506 
Q 2647 200 2364 54 
Q 2081 -91 1741 -91 
Q 1134 -91 817 281 
Q 500 653 500 1363 
z
" transform="scale(0.015625)"/>
      <path id="DejaVuSans-Bold-61" d="M 2106 1575 
Q 1756 1575 1579 1456 
Q 1403 1338 1403 1106 
Q 1403 894 1545 773 
Q 1688 653 1941 653 
Q 2256 653 2472 879 
Q 2688 1106 2688 1447 
L 2688 1575 
L 2106 1575 
z
M 3816 1997 
L 3816 0 
L 2688 0 
L 2688 519 
Q 2463 200 2181 54 
Q 1900 -91 1497 -91 
Q 953 -91 614 226 
Q 275 544 275 1050 
Q 275 1666 698 1953 
Q 1122 2241 2028 2241 
L 2688 2241 
L 2688 2328 
Q 2688 2594 2478 2717 
Q 2269 2841 1825 2841 
Q 1466 2841 1156 2769 
Q 847 2697 581 2553 
L 581 3406 
Q 941 3494 1303 3539 
Q 1666 3584 2028 3584 
Q 2975 3584 3395 3211 
Q 3816 2838 3816 1997 
z
" transform="scale(0.015625)"/>
      <path id="DejaVuSans-Bold-20" transform="scale(0.015625)"/>
      <path id="DejaVuSans-Bold-62" d="M 2400 722 
Q 2759 722 2948 984 
Q 3138 1247 3138 1747 
Q 3138 2247 2948 2509 
Q 2759 2772 2400 2772 
Q 2041 2772 1848 2508 
Q 1656 2244 1656 1747 
Q 1656 1250 1848 986 
Q 2041 722 2400 722 
z
M 1656 2988 
Q 1888 3294 2169 3439 
Q 2450 3584 2816 3584 
Q 3463 3584 3878 3070 
Q 4294 2556 4294 1747 
Q 4294 938 3878 423 
Q 3463 -91 2816 -91 
Q 2450 -91 2169 54 
Q 1888 200 1656 506 
L 1656 0 
L 538 0 
L 538 4863 
L 1656 4863 
L 1656 2988 
z
" transform="scale(0.015625)"/>
      <path id="DejaVuSans-Bold-6e" d="M 4056 2131 
L 4056 0 
L 2931 0 
L 2931 347 
L 2931 1631 
Q 2931 2084 2911 2256 
Q 2891 2428 2841 2509 
Q 2775 2619 2662 2680 
Q 2550 2741 2406 2741 
Q 2056 2741 1856 2470 
Q 1656 2200 1656 1722 
L 1656 0 
L 538 0 
L 538 3500 
L 1656 3500 
L 1656 2988 
Q 1909 3294 2193 3439 
Q 2478 3584 2822 3584 
Q 3428 3584 3742 3212 
Q 4056 2841 4056 2131 
z
" transform="scale(0.015625)"/>
      <path id="DejaVuSans-Bold-64" d="M 2919 2988 
L 2919 4863 
L 4044 4863 
L 4044 0 
L 2919 0 
L 2919 506 
Q 2688 197 2409 53 
Q 2131 -91 1766 -91 
Q 1119 -91 703 423 
Q 288 938 288 1747 
Q 288 2556 703 3070 
Q 1119 3584 1766 3584 
Q 2128 3584 2408 3439 
Q 2688 3294 2919 2988 
z
M 2181 722 
Q 2541 722 2730 984 
Q 2919 1247 2919 1747 
Q 2919 2247 2730 2509 
Q 2541 2772 2181 2772 
Q 1825 2772 1636 2509 
Q 1447 2247 1447 1747 
Q 1447 1247 1636 984 
Q 1825 722 2181 722 
z
" transform="scale(0.015625)"/>
      <path id="DejaVuSans-Bold-65" d="M 4031 1759 
L 4031 1441 
L 1416 1441 
Q 1456 1047 1700 850 
Q 1944 653 2381 653 
Q 2734 653 3104 758 
Q 3475 863 3866 1075 
L 3866 213 
Q 3469 63 3072 -14 
Q 2675 -91 2278 -91 
Q 1328 -91 801 392 
Q 275 875 275 1747 
Q 275 2603 792 3093 
Q 1309 3584 2216 3584 
Q 3041 3584 3536 3087 
Q 4031 2591 4031 1759 
z
M 2881 2131 
Q 2881 2450 2695 2645 
Q 2509 2841 2209 2841 
Q 1884 2841 1681 2658 
Q 1478 2475 1428 2131 
L 2881 2131 
z
" transform="scale(0.015625)"/>
      <path id="DejaVuSans-Bold-71" d="M 2181 2772 
Q 1825 2772 1636 2509 
Q 1447 2247 1447 1747 
Q 1447 1247 1636 984 
Q 1825 722 2181 722 
Q 2541 722 2730 984 
Q 2919 1247 2919 1747 
Q 2919 2247 2730 2509 
Q 2541 2772 2181 2772 
z
M 2919 506 
Q 2688 197 2409 53 
Q 2131 -91 1766 -91 
Q 1119 -91 703 423 
Q 288 938 288 1747 
Q 288 2556 703 3067 
Q 1119 3578 1766 3578 
Q 2131 3578 2409 3434 
Q 2688 3291 2919 2981 
L 2919 3500 
L 4044 3500 
L 4044 -1331 
L 2919 -1331 
L 2919 506 
z
" transform="scale(0.015625)"/>
      <path id="DejaVuSans-Bold-6c" d="M 538 4863 
L 1656 4863 
L 1656 0 
L 538 0 
L 538 4863 
z
" transform="scale(0.015625)"/>
      <path id="DejaVuSans-Bold-69" d="M 538 3500 
L 1656 3500 
L 1656 0 
L 538 0 
L 538 3500 
z
M 538 4863 
L 1656 4863 
L 1656 3950 
L 538 3950 
L 538 4863 
z
" transform="scale(0.015625)"/>
      <path id="DejaVuSans-Bold-76" d="M 97 3500 
L 1216 3500 
L 2088 1081 
L 2956 3500 
L 4078 3500 
L 2700 0 
L 1472 0 
L 97 3500 
z
" transform="scale(0.015625)"/>
      <path id="DejaVuSans-Bold-73" d="M 3272 3391 
L 3272 2541 
Q 2913 2691 2578 2766 
Q 2244 2841 1947 2841 
Q 1628 2841 1473 2761 
Q 1319 2681 1319 2516 
Q 1319 2381 1436 2309 
Q 1553 2238 1856 2203 
L 2053 2175 
Q 2913 2066 3209 1816 
Q 3506 1566 3506 1031 
Q 3506 472 3093 190 
Q 2681 -91 1863 -91 
Q 1516 -91 1145 -36 
Q 775 19 384 128 
L 384 978 
Q 719 816 1070 734 
Q 1422 653 1784 653 
Q 2113 653 2278 743 
Q 2444 834 2444 1013 
Q 2444 1163 2330 1236 
Q 2216 1309 1875 1350 
L 1678 1375 
Q 931 1469 631 1722 
Q 331 1975 331 2491 
Q 331 3047 712 3315 
Q 1094 3584 1881 3584 
Q 2191 3584 2531 3537 
Q 2872 3491 3272 3391 
z
" transform="scale(0.015625)"/>
      <path id="DejaVuSans-Bold-63" d="M 3366 3391 
L 3366 2478 
Q 3138 2634 2908 2709 
Q 2678 2784 2431 2784 
Q 1963 2784 1702 2511 
Q 1441 2238 1441 1747 
Q 1441 1256 1702 982 
Q 1963 709 2431 709 
Q 2694 709 2930 787 
Q 3166 866 3366 1019 
L 3366 103 
Q 3103 6 2833 -42 
Q 2563 -91 2291 -91 
Q 1344 -91 809 395 
Q 275 881 275 1747 
Q 275 2613 809 3098 
Q 1344 3584 2291 3584 
Q 2566 3584 2833 3536 
Q 3100 3488 3366 3391 
z
" transform="scale(0.015625)"/>
      <path id="DejaVuSans-Bold-6f" d="M 2203 2784 
Q 1831 2784 1636 2517 
Q 1441 2250 1441 1747 
Q 1441 1244 1636 976 
Q 1831 709 2203 709 
Q 2569 709 2762 976 
Q 2956 1244 2956 1747 
Q 2956 2250 2762 2517 
Q 2569 2784 2203 2784 
z
M 2203 3584 
Q 3106 3584 3614 3096 
Q 4122 2609 4122 1747 
Q 4122 884 3614 396 
Q 3106 -91 2203 -91 
Q 1297 -91 786 396 
Q 275 884 275 1747 
Q 275 2609 786 3096 
Q 1297 3584 2203 3584 
z
" transform="scale(0.015625)"/>
     </defs>
     <use xlink:href="#DejaVuSans-Bold-53"/>
     <use xlink:href="#DejaVuSans-Bold-74" transform="translate(72.021484 0)"/>
     <use xlink:href="#DejaVuSans-Bold-72" transform="translate(119.824219 0)"/>
     <use xlink:href="#DejaVuSans-Bold-75" transform="translate(169.140625 0)"/>
     <use xlink:href="#DejaVuSans-Bold-74" transform="translate(240.332031 0)"/>
     <use xlink:href="#DejaVuSans-Bold-74" transform="translate(288.134766 0)"/>
     <use xlink:href="#DejaVuSans-Bold-75" transform="translate(335.9375 0)"/>
     <use xlink:href="#DejaVuSans-Bold-72" transform="translate(407.128906 0)"/>
     <use xlink:href="#DejaVuSans-Bold-61" transform="translate(456.445312 0)"/>
     <use xlink:href="#DejaVuSans-Bold-20" transform="translate(523.925781 0)"/>
     <use xlink:href="#DejaVuSans-Bold-61" transform="translate(558.740234 0)"/>
     <use xlink:href="#DejaVuSans-Bold-20" transform="translate(626.220703 0)"/>
     <use xlink:href="#DejaVuSans-Bold-62" transform="translate(661.035156 0)"/>
     <use xlink:href="#DejaVuSans-Bold-61" transform="translate(732.617188 0)"/>
     <use xlink:href="#DejaVuSans-Bold-6e" transform="translate(800.097656 0)"/>
     <use xlink:href="#DejaVuSans-Bold-64" transform="translate(871.289062 0)"/>
     <use xlink:href="#DejaVuSans-Bold-65" transform="translate(942.871094 0)"/>
     <use xlink:href="#DejaVuSans-Bold-20" transform="translate(1010.693359 0)"/>
     <use xlink:href="#DejaVuSans-Bold-71" transform="translate(1045.507812 0)"/>
     <use xlink:href="#DejaVuSans-Bold-75" transform="translate(1117.089844 0)"/>
     <use xlink:href="#DejaVuSans-Bold-61" transform="translate(1188.28125 0)"/>
     <use xlink:href="#DejaVuSans-Bold-6c" transform="translate(1255.761719 0)"/>
     <use xlink:href="#DejaVuSans-Bold-69" transform="translate(1290.039062 0)"/>
     <use xlink:href="#DejaVuSans-Bold-74" transform="translate(1324.316406 0)"/>
     <use xlink:href="#DejaVuSans-Bold-61" transform="translate(1372.119141 0)"/>
     <use xlink:href="#DejaVuSans-Bold-74" transform="translate(1439.599609 0)"/>
     <use xlink:href="#DejaVuSans-Bold-69" transform="translate(1487.402344 0)"/>
     <use xlink:href="#DejaVuSans-Bold-76" transform="translate(1521.679688 0)"/>
     <use xlink:href="#DejaVuSans-Bold-61" transform="translate(1586.865234 0)"/>
     <use xlink:href="#DejaVuSans-Bold-20" transform="translate(1654.345703 0)"/>
     <use xlink:href="#DejaVuSans-Bold-64" transform="translate(1689.160156 0)"/>
     <use xlink:href="#DejaVuSans-Bold-65" transform="translate(1760.742188 0)"/>
     <use xlink:href="#DejaVuSans-Bold-6c" transform="translate(1828.564453 0)"/>
     <use xlink:href="#DejaVuSans-Bold-20" transform="translate(1862.841797 0)"/>
     <use xlink:href="#DejaVuSans-Bold-73" transform="translate(1897.65625 0)"/>
     <use xlink:href="#DejaVuSans-Bold-69" transform="translate(1957.177734 0)"/>
     <use xlink:href="#DejaVuSans-Bold-6c" transform="translate(1991.455078 0)"/>
     <use xlink:href="#DejaVuSans-Bold-69" transform="translate(2025.732422 0)"/>
     <use xlink:href="#DejaVuSans-Bold-63" transform="translate(2060.009766 0)"/>
     <use xlink:href="#DejaVuSans-Bold-69" transform="translate(2119.287109 0)"/>
     <use xlink:href="#DejaVuSans-Bold-6f" transform="translate(2153.564453 0)"/>
    </g>
   </g>
  </g>
  <g id="text_20">
   <!-- Ricostruzione sintetica: il massimo della banda di valenza è a Γ, mentre il minimo della banda di conduzione è spostato verso X, evidenziando il gap indiretto. -->
   <g transform="translate(7.2 473.829656) scale(0.1 -0.1)">
    <defs>
     <path id="DejaVuSans-52" d="M 2841 2188 
Q 3044 2119 3236 1894 
Q 3428 1669 3622 1275 
L 4263 0 
L 3584 0 
L 2988 1197 
Q 2756 1666 2539 1819 
Q 2322 1972 1947 1972 
L 1259 1972 
L 1259 0 
L 628 0 
L 628 4666 
L 2053 4666 
Q 2853 4666 3247 4331 
Q 3641 3997 3641 3322 
Q 3641 2881 3436 2590 
Q 3231 2300 2841 2188 
z
M 1259 4147 
L 1259 2491 
L 2053 2491 
Q 2509 2491 2742 2702 
Q 2975 2913 2975 3322 
Q 2975 3731 2742 3939 
Q 2509 4147 2053 4147 
L 1259 4147 
z
" transform="scale(0.015625)"/>
     <path id="DejaVuSans-75" d="M 544 1381 
L 544 3500 
L 1119 3500 
L 1119 1403 
Q 1119 906 1312 657 
Q 1506 409 1894 409 
Q 2359 409 2629 706 
Q 2900 1003 2900 1516 
L 2900 3500 
L 3475 3500 
L 3475 0 
L 2900 0 
L 2900 538 
Q 2691 219 2414 64 
Q 2138 -91 1772 -91 
Q 1169 -91 856 284 
Q 544 659 544 1381 
z
M 1991 3584 
L 1991 3584 
z
" transform="scale(0.015625)"/>
     <path id="DejaVuSans-7a" d="M 353 3500 
L 3084 3500 
L 3084 2975 
L 922 459 
L 3084 459 
L 3084 0 
L 275 0 
L 275 525 
L 2438 3041 
L 353 3041 
L 353 3500 
z
" transform="scale(0.015625)"/>
     <path id="DejaVuSans-3a" d="M 750 794 
L 1409 794 
L 1409 0 
L 750 0 
L 750 794 
z
M 750 3309 
L 1409 3309 
L 1409 2516 
L 750 2516 
L 750 3309 
z
" transform="scale(0.015625)"/>
     <path id="DejaVuSans-76" d="M 191 3500 
L 800 3500 
L 1894 563 
L 2988 3500 
L 3597 3500 
L 2284 0 
L 1503 0 
L 191 3500 
z
" transform="scale(0.015625)"/>
     <path id="DejaVuSans-e8" d="M 3597 1894 
L 3597 1613 
L 953 1613 
Q 991 1019 1311 708 
Q 1631 397 2203 397 
Q 2534 397 2845 478 
Q 3156 559 3463 722 
L 3463 178 
Q 3153 47 2828 -22 
Q 2503 -91 2169 -91 
Q 1331 -91 842 396 
Q 353 884 353 1716 
Q 353 2575 817 3079 
Q 1281 3584 2069 3584 
Q 2775 3584 3186 3129 
Q 3597 2675 3597 1894 
z
M 3022 2063 
Q 3016 2534 2758 2815 
Q 2500 3097 2075 3097 
Q 1594 3097 1305 2825 
Q 1016 2553 972 2059 
L 3022 2063 
z
M 1579 5119 
L 2460 3950 
L 1982 3950 
L 963 5119 
L 1579 5119 
z
" transform="scale(0.015625)"/>
     <path id="DejaVuSans-2c" d="M 750 794 
L 1409 794 
L 1409 256 
L 897 -744 
L 494 -744 
L 750 256 
L 750 794 
z
" transform="scale(0.015625)"/>
     <path id="DejaVuSans-2e" d="M 684 794 
L 1344 794 
L 1344 0 
L 684 0 
L 684 794 
z
" transform="scale(0.015625)"/>
    </defs>
    <use xlink:href="#DejaVuSans-52"/>
    <use xlink:href="#DejaVuSans-69" transform="translate(69.482422 0)"/>
    <use xlink:href="#DejaVuSans-63" transform="translate(97.265625 0)"/>
    <use xlink:href="#DejaVuSans-6f" transform="translate(152.246094 0)"/>
    <use xlink:href="#DejaVuSans-73" transform="translate(213.427734 0)"/>
    <use xlink:href="#DejaVuSans-74" transform="translate(265.527344 0)"/>
    <use xlink:href="#DejaVuSans-72" transform="translate(304.736328 0)"/>
    <use xlink:href="#DejaVuSans-75" transform="translate(345.849609 0)"/>
    <use xlink:href="#DejaVuSans-7a" transform="translate(409.228516 0)"/>
    <use xlink:href="#DejaVuSans-69" transform="translate(461.71875 0)"/>
    <use xlink:href="#DejaVuSans-6f" transform="translate(489.501953 0)"/>
    <use xlink:href="#DejaVuSans-6e" transform="translate(550.683594 0)"/>
    <use xlink:href="#DejaVuSans-65" transform="translate(614.0625 0)"/>
    <use xlink:href="#DejaVuSans-20" transform="translate(675.585938 0)"/>
    <use xlink:href="#DejaVuSans-73" transform="translate(707.373047 0)"/>
    <use xlink:href="#DejaVuSans-69" transform="translate(759.472656 0)"/>
    <use xlink:href="#DejaVuSans-6e" transform="translate(787.255859 0)"/>
    <use xlink:href="#DejaVuSans-74" transform="translate(850.634766 0)"/>
    <use xlink:href="#DejaVuSans-65" transform="translate(889.84375 0)"/>
    <use xlink:href="#DejaVuSans-74" transform="translate(951.367188 0)"/>
    <use xlink:href="#DejaVuSans-69" transform="translate(990.576172 0)"/>
    <use xlink:href="#DejaVuSans-63" transform="translate(1018.359375 0)"/>
    <use xlink:href="#DejaVuSans-61" transform="translate(1073.339844 0)"/>
    <use xlink:href="#DejaVuSans-3a" transform="translate(1134.619141 0)"/>
    <use xlink:href="#DejaVuSans-20" transform="translate(1168.310547 0)"/>
    <use xlink:href="#DejaVuSans-69" transform="translate(1200.097656 0)"/>
    <use xlink:href="#DejaVuSans-6c" transform="translate(1227.880859 0)"/>
    <use xlink:href="#DejaVuSans-20" transform="translate(1255.664062 0)"/>
    <use xlink:href="#DejaVuSans-6d" transform="translate(1287.451172 0)"/>
    <use xlink:href="#DejaVuSans-61" transform="translate(1384.863281 0)"/>
    <use xlink:href="#DejaVuSans-73" transform="translate(1446.142578 0)"/>
    <use xlink:href="#DejaVuSans-73" transform="translate(1498.242188 0)"/>
    <use xlink:href="#DejaVuSans-69" transform="translate(1550.341797 0)"/>
    <use xlink:href="#DejaVuSans-6d" transform="translate(1578.125 0)"/>
    <use xlink:href="#DejaVuSans-6f" transform="translate(1675.537109 0)"/>
    <use xlink:href="#DejaVuSans-20" transform="translate(1736.71875 0)"/>
    <use xlink:href="#DejaVuSans-64" transform="translate(1768.505859 0)"/>
    <use xlink:href="#DejaVuSans-65" transform="translate(1831.982422 0)"/>
    <use xlink:href="#DejaVuSans-6c" transform="translate(1893.505859 0)"/>
    <use xlink:href="#DejaVuSans-6c" transform="translate(1921.289062 0)"/>
    <use xlink:href="#DejaVuSans-61" transform="translate(1949.072266 0)"/>
    <use xlink:href="#DejaVuSans-20" transform="translate(2010.351562 0)"/>
    <use xlink:href="#DejaVuSans-62" transform="translate(2042.138672 0)"/>
    <use xlink:href="#DejaVuSans-61" transform="translate(2105.615234 0)"/>
    <use xlink:href="#DejaVuSans-6e" transform="translate(2166.894531 0)"/>
    <use xlink:href="#DejaVuSans-64" transform="translate(2230.273438 0)"/>
    <use xlink:href="#DejaVuSans-61" transform="translate(2293.75 0)"/>
    <use xlink:href="#DejaVuSans-20" transform="translate(2355.029297 0)"/>
    <use xlink:href="#DejaVuSans-64" transform="translate(2386.816406 0)"/>
    <use xlink:href="#DejaVuSans-69" transform="translate(2450.292969 0)"/>
    <use xlink:href="#DejaVuSans-20" transform="translate(2478.076172 0)"/>
    <use xlink:href="#DejaVuSans-76" transform="translate(2509.863281 0)"/>
    <use xlink:href="#DejaVuSans-61" transform="translate(2569.042969 0)"/>
    <use xlink:href="#DejaVuSans-6c" transform="translate(2630.322266 0)"/>
    <use xlink:href="#DejaVuSans-65" transform="translate(2658.105469 0)"/>
    <use xlink:href="#DejaVuSans-6e" transform="translate(2719.628906 0)"/>
    <use xlink:href="#DejaVuSans-7a" transform="translate(2783.007812 0)"/>
    <use xlink:href="#DejaVuSans-61" transform="translate(2835.498047 0)"/>
    <use xlink:href="#DejaVuSans-20" transform="translate(2896.777344 0)"/>
    <use xlink:href="#DejaVuSans-e8" transform="translate(2928.564453 0)"/>
    <use xlink:href="#DejaVuSans-20" transform="translate(2990.087891 0)"/>
    <use xlink:href="#DejaVuSans-61" transform="translate(3021.875 0)"/>
    <use xlink:href="#DejaVuSans-20" transform="translate(3083.154297 0)"/>
    <use xlink:href="#DejaVuSans-393" transform="translate(3114.941406 0)"/>
    <use xlink:href="#DejaVuSans-2c" transform="translate(3170.654297 0)"/>
    <use xlink:href="#DejaVuSans-20" transform="translate(3202.441406 0)"/>
    <use xlink:href="#DejaVuSans-6d" transform="translate(3234.228516 0)"/>
    <use xlink:href="#DejaVuSans-65" transform="translate(3331.640625 0)"/>
    <use xlink:href="#DejaVuSans-6e" transform="translate(3393.164062 0)"/>
    <use xlink:href="#DejaVuSans-74" transform="translate(3456.542969 0)"/>
    <use xlink:href="#DejaVuSans-72" transform="translate(3495.751953 0)"/>
    <use xlink:href="#DejaVuSans-65" transform="translate(3534.615234 0)"/>
    <use xlink:href="#DejaVuSans-20" transform="translate(3596.138672 0)"/>
    <use xlink:href="#DejaVuSans-69" transform="translate(3627.925781 0)"/>
    <use xlink:href="#DejaVuSans-6c" transform="translate(3655.708984 0)"/>
    <use xlink:href="#DejaVuSans-20" transform="translate(3683.492188 0)"/>
    <use xlink:href="#DejaVuSans-6d" transform="translate(3715.279297 0)"/>
    <use xlink:href="#DejaVuSans-69" transform="translate(3812.691406 0)"/>
    <use xlink:href="#DejaVuSans-6e" transform="translate(3840.474609 0)"/>
    <use xlink:href="#DejaVuSans-69" transform="translate(3903.853516 0)"/>
    <use xlink:href="#DejaVuSans-6d" transform="translate(3931.636719 0)"/>
    <use xlink:href="#DejaVuSans-6f" transform="translate(4029.048828 0)"/>
    <use xlink:href="#DejaVuSans-20" transform="translate(4090.230469 0)"/>
    <use xlink:href="#DejaVuSans-64" transform="translate(4122.017578 0)"/>
    <use xlink:href="#DejaVuSans-65" transform="translate(4185.494141 0)"/>
    <use xlink:href="#DejaVuSans-6c" transform="translate(4247.017578 0)"/>
    <use xlink:href="#DejaVuSans-6c" transform="translate(4274.800781 0)"/>
    <use xlink:href="#DejaVuSans-61" transform="translate(4302.583984 0)"/>
    <use xlink:href="#DejaVuSans-20" transform="translate(4363.863281 0)"/>
    <use xlink:href="#DejaVuSans-62" transform="translate(4395.650391 0)"/>
    <use xlink:href="#DejaVuSans-61" transform="translate(4459.126953 0)"/>
    <use xlink:href="#DejaVuSans-6e" transform="translate(4520.40625 0)"/>
    <use xlink:href="#DejaVuSans-64" transform="translate(4583.785156 0)"/>
    <use xlink:href="#DejaVuSans-61" transform="translate(4647.261719 0)"/>
    <use xlink:href="#DejaVuSans-20" transform="translate(4708.541016 0)"/>
    <use xlink:href="#DejaVuSans-64" transform="translate(4740.328125 0)"/>
    <use xlink:href="#DejaVuSans-69" transform="translate(4803.804688 0)"/>
    <use xlink:href="#DejaVuSans-20" transform="translate(4831.587891 0)"/>
    <use xlink:href="#DejaVuSans-63" transform="translate(4863.375 0)"/>
    <use xlink:href="#DejaVuSans-6f" transform="translate(4918.355469 0)"/>
    <use xlink:href="#DejaVuSans-6e" transform="translate(4979.537109 0)"/>
    <use xlink:href="#DejaVuSans-64" transform="translate(5042.916016 0)"/>
    <use xlink:href="#DejaVuSans-75" transform="translate(5106.392578 0)"/>
    <use xlink:href="#DejaVuSans-7a" transform="translate(5169.771484 0)"/>
    <use xlink:href="#DejaVuSans-69" transform="translate(5222.261719 0)"/>
    <use xlink:href="#DejaVuSans-6f" transform="translate(5250.044922 0)"/>
    <use xlink:href="#DejaVuSans-6e" transform="translate(5311.226562 0)"/>
    <use xlink:href="#DejaVuSans-65" transform="translate(5374.605469 0)"/>
    <use xlink:href="#DejaVuSans-20" transform="translate(5436.128906 0)"/>
    <use xlink:href="#DejaVuSans-e8" transform="translate(5467.916016 0)"/>
    <use xlink:href="#DejaVuSans-20" transform="translate(5529.439453 0)"/>
    <use xlink:href="#DejaVuSans-73" transform="translate(5561.226562 0)"/>
    <use xlink:href="#DejaVuSans-70" transform="translate(5613.326172 0)"/>
    <use xlink:href="#DejaVuSans-6f" transform="translate(5676.802734 0)"/>
    <use xlink:href="#DejaVuSans-73" transform="translate(5737.984375 0)"/>
    <use xlink:href="#DejaVuSans-74" transform="translate(5790.083984 0)"/>
    <use xlink:href="#DejaVuSans-61" transform="translate(5829.292969 0)"/>
    <use xlink:href="#DejaVuSans-74" transform="translate(5890.572266 0)"/>
    <use xlink:href="#DejaVuSans-6f" transform="translate(5929.78125 0)"/>
    <use xlink:href="#DejaVuSans-20" transform="translate(5990.962891 0)"/>
    <use xlink:href="#DejaVuSans-76" transform="translate(6022.75 0)"/>
    <use xlink:href="#DejaVuSans-65" transform="translate(6081.929688 0)"/>
    <use xlink:href="#DejaVuSans-72" transform="translate(6143.453125 0)"/>
    <use xlink:href="#DejaVuSans-73" transform="translate(6184.566406 0)"/>
    <use xlink:href="#DejaVuSans-6f" transform="translate(6236.666016 0)"/>
    <use xlink:href="#DejaVuSans-20" transform="translate(6297.847656 0)"/>
    <use xlink:href="#DejaVuSans-58" transform="translate(6329.634766 0)"/>
    <use xlink:href="#DejaVuSans-2c" transform="translate(6398.140625 0)"/>
    <use xlink:href="#DejaVuSans-20" transform="translate(6429.927734 0)"/>
    <use xlink:href="#DejaVuSans-65" transform="translate(6461.714844 0)"/>
    <use xlink:href="#DejaVuSans-76" transform="translate(6523.238281 0)"/>
    <use xlink:href="#DejaVuSans-69" transform="translate(6582.417969 0)"/>
    <use xlink:href="#DejaVuSans-64" transform="translate(6610.201172 0)"/>
    <use xlink:href="#DejaVuSans-65" transform="translate(6673.677734 0)"/>
    <use xlink:href="#DejaVuSans-6e" transform="translate(6735.201172 0)"/>
    <use xlink:href="#DejaVuSans-7a" transform="translate(6798.580078 0)"/>
    <use xlink:href="#DejaVuSans-69" transform="translate(6851.070312 0)"/>
    <use xlink:href="#DejaVuSans-61" transform="translate(6878.853516 0)"/>
    <use xlink:href="#DejaVuSans-6e" transform="translate(6940.132812 0)"/>
    <use xlink:href="#DejaVuSans-64" transform="translate(7003.511719 0)"/>
    <use xlink:href="#DejaVuSans-6f" transform="translate(7066.988281 0)"/>
    <use xlink:href="#DejaVuSans-20" transform="translate(7128.169922 0)"/>
    <use xlink:href="#DejaVuSans-69" transform="translate(7159.957031 0)"/>
    <use xlink:href="#DejaVuSans-6c" transform="translate(7187.740234 0)"/>
    <use xlink:href="#DejaVuSans-20" transform="translate(7215.523438 0)"/>
    <use xlink:href="#DejaVuSans-67" transform="translate(7247.310547 0)"/>
    <use xlink:href="#DejaVuSans-61" transform="translate(7310.787109 0)"/>
    <use xlink:href="#DejaVuSans-70" transform="translate(7372.066406 0)"/>
    <use xlink:href="#DejaVuSans-20" transform="translate(7435.542969 0)"/>
    <use xlink:href="#DejaVuSans-69" transform="translate(7467.330078 0)"/>
    <use xlink:href="#DejaVuSans-6e" transform="translate(7495.113281 0)"/>
    <use xlink:href="#DejaVuSans-64" transform="translate(7558.492188 0)"/>
    <use xlink:href="#DejaVuSans-69" transform="translate(7621.96875 0)"/>
    <use xlink:href="#DejaVuSans-72" transform="translate(7649.751953 0)"/>
    <use xlink:href="#DejaVuSans-65" transform="translate(7688.615234 0)"/>
    <use xlink:href="#DejaVuSans-74" transform="translate(7750.138672 0)"/>
    <use xlink:href="#DejaVuSans-74" transform="translate(7789.347656 0)"/>
    <use xlink:href="#DejaVuSans-6f" transform="translate(7828.556641 0)"/>
    <use xlink:href="#DejaVuSans-2e" transform="translate(7887.988281 0)"/>
   </g>
  </g>
 </g>
 <defs>
  <clipPath id="pb9a93c6f59">
   <rect x="89.985156" y="30.597656" width="647.28" height="399.168"/>
  </clipPath>
 </defs>
</svg>
