<?xml version="1.0" encoding="utf-8" standalone="no"?>
<!DOCTYPE svg PUBLIC "-//W3C//DTD SVG 1.1//EN"
  "http://www.w3.org/Graphics/SVG/1.1/DTD/svg11.dtd">
<svg xmlns:xlink="http://www.w3.org/1999/xlink" width="728.64pt" height="707.679688pt" viewBox="0 0 728.64 707.679688" xmlns="http://www.w3.org/2000/svg" version="1.1">
 <metadata>
  <rdf:RDF xmlns:dc="http://purl.org/dc/elements/1.1/" xmlns:cc="http://creativecommons.org/ns#" xmlns:rdf="http://www.w3.org/1999/02/22-rdf-syntax-ns#">
   <cc:Work>
    <dc:type rdf:resource="http://purl.org/dc/dcmitype/StillImage"/>
    <dc:date>2026-06-16T12:24:04.496430</dc:date>
    <dc:format>image/svg+xml</dc:format>
    <dc:creator>
     <cc:Agent>
      <dc:title>Matplotlib v3.10.8, https://matplotlib.org/</dc:title>
     </cc:Agent>
    </dc:creator>
   </cc:Work>
  </rdf:RDF>
 </metadata>
 <defs>
  <style type="text/css">*{stroke-linejoin: round; stroke-linecap: butt}</style>
 </defs>
 <g id="figure_1">
  <g id="patch_1">
   <path d="M 0 707.679688 
L 728.64 707.679688 
L 728.64 0 
L 0 0 
z
" style="fill: #ffffff"/>
  </g>
  <g id="axes_1">
   <g id="patch_2">
    <path d="M 97.05974 215.756883 
C 98.904727 215.756883 100.674397 215.023862 101.978999 213.719259 
C 103.283602 212.414656 104.016623 210.644987 104.016623 208.8 
C 104.016623 206.955013 103.283602 205.185344 101.978999 203.880741 
C 100.674397 202.576138 98.904727 201.843117 97.05974 201.843117 
C 95.214753 201.843117 93.445084 202.576138 92.140481 203.880741 
C 90.835878 205.185344 90.102857 206.955013 90.102857 208.8 
C 90.102857 210.644987 90.835878 212.414656 92.140481 213.719259 
C 93.445084 215.023862 95.214753 215.756883 97.05974 215.756883 
z
" clip-path="url(#p68ca0fbb70)" style="fill: #1f77b4; opacity: 0.75"/>
   </g>
   <g id="patch_3">
    <path d="M 241.994805 215.756883 
C 243.839792 215.756883 245.609462 215.023862 246.914064 213.719259 
C 248.218667 212.414656 248.951688 210.644987 248.951688 208.8 
C 248.951688 206.955013 248.218667 205.185344 246.914064 203.880741 
C 245.609462 202.576138 243.839792 201.843117 241.994805 201.843117 
C 240.149818 201.843117 238.380149 202.576138 237.075546 203.880741 
C 235.770943 205.185344 235.037922 206.955013 235.037922 208.8 
C 235.037922 210.644987 235.770943 212.414656 237.075546 213.719259 
C 238.380149 215.023862 240.149818 215.756883 241.994805 215.756883 
z
" clip-path="url(#p68ca0fbb70)" style="fill: #1f77b4; opacity: 0.75"/>
   </g>
   <g id="patch_4">
    <path d="M 97.05974 250.541299 
C 108.129662 250.541299 118.747679 246.143172 126.575296 238.315555 
C 134.402912 230.487939 138.801039 219.869922 138.801039 208.8 
C 138.801039 197.730078 134.402912 187.112061 126.575296 179.284445 
C 118.747679 171.456828 108.129662 167.058701 97.05974 167.058701 
C 85.989818 167.058701 75.371802 171.456828 67.544185 179.284445 
C 59.716568 187.112061 55.318442 197.730078 55.318442 208.8 
C 55.318442 219.869922 59.716568 230.487939 67.544185 238.315555 
C 75.371802 246.143172 85.989818 250.541299 97.05974 250.541299 
z
" clip-path="url(#p68ca0fbb70)" style="fill: #1f77b4; opacity: 0.18"/>
   </g>
   <g id="patch_5">
    <path d="M 241.994805 250.541299 
C 253.064727 250.541299 263.682744 246.143172 271.510361 238.315555 
C 279.337977 230.487939 283.736104 219.869922 283.736104 208.8 
C 283.736104 197.730078 279.337977 187.112061 271.510361 179.284445 
C 263.682744 171.456828 253.064727 167.058701 241.994805 167.058701 
C 230.924883 167.058701 220.306867 171.456828 212.47925 179.284445 
C 204.651633 187.112061 200.253506 197.730078 200.253506 208.8 
C 200.253506 219.869922 204.651633 230.487939 212.47925 238.315555 
C 220.306867 246.143172 230.924883 250.541299 241.994805 250.541299 
z
" clip-path="url(#p68ca0fbb70)" style="fill: #1f77b4; opacity: 0.18"/>
   </g>
   <g id="line2d_1">
    <path d="M 97.05974 208.8 
L 241.994805 208.8 
" clip-path="url(#p68ca0fbb70)" style="fill: none; stroke-dasharray: 0.8,1.32; stroke-dashoffset: 0; stroke: #1f77b4; stroke-width: 0.8"/>
   </g>
   <g id="text_1">
    <!-- A -->
    <g transform="translate(93.810443 233.149091) scale(0.095 -0.095)">
     <defs>
      <path id="DejaVuSans-41" d="M 2188 4044 
L 1331 1722 
L 3047 1722 
L 2188 4044 
z
M 1831 4666 
L 2547 4666 
L 4325 0 
L 3669 0 
L 3244 1197 
L 1141 1197 
L 716 0 
L 50 0 
L 1831 4666 
z
" transform="scale(0.015625)"/>
     </defs>
     <use xlink:href="#DejaVuSans-41"/>
    </g>
   </g>
   <g id="text_2">
    <!-- B -->
    <g transform="translate(238.73586 233.149091) scale(0.095 -0.095)">
     <defs>
      <path id="DejaVuSans-42" d="M 1259 2228 
L 1259 519 
L 2272 519 
Q 2781 519 3026 730 
Q 3272 941 3272 1375 
Q 3272 1813 3026 2020 
Q 2781 2228 2272 2228 
L 1259 2228 
z
M 1259 4147 
L 1259 2741 
L 2194 2741 
Q 2656 2741 2882 2914 
Q 3109 3088 3109 3444 
Q 3109 3797 2882 3972 
Q 2656 4147 2194 4147 
L 1259 4147 
z
M 628 4666 
L 2241 4666 
Q 2963 4666 3353 4366 
Q 3744 4066 3744 3513 
Q 3744 3084 3544 2831 
Q 3344 2578 2956 2516 
Q 3422 2416 3680 2098 
Q 3938 1781 3938 1306 
Q 3938 681 3513 340 
Q 3088 0 2303 0 
L 628 0 
L 628 4666 
z
" transform="scale(0.015625)"/>
     </defs>
     <use xlink:href="#DejaVuSans-42"/>
    </g>
   </g>
   <g id="patch_6">
    <path d="M 99.06339 275.47013 
Q 169.528037 275.47013 238.762846 275.47013 
" style="fill: none; stroke: #000000; stroke-width: 1.1; stroke-linecap: round"/>
    <path d="M 233.962846 273.07013 
L 238.762846 275.47013 
L 233.962846 277.87013 
z
" style="fill: #1f77b4; stroke: #000000; stroke-width: 1.1; stroke-linecap: round"/>
   </g>
   <g id="text_3">
    <!-- $\mathbf{t}$ -->
    <g transform="translate(167.367273 288.388892) scale(0.09 -0.09)">
     <defs>
      <path id="DejaVuSans-Bold-74" d="M 1759 4494 
L 1759 3500 
L 2913 3500 
L 2913 2700 
L 1759 2700 
L 1759 1216 
Q 1759 972 1856 886 
Q 1953 800 2241 800 
L 2816 800 
L 2816 0 
L 1856 0 
Q 1194 0 917 276 
Q 641 553 641 1216 
L 641 2700 
L 84 2700 
L 84 3500 
L 641 3500 
L 641 4494 
L 1759 4494 
z
" transform="scale(0.015625)"/>
     </defs>
     <use xlink:href="#DejaVuSans-Bold-74" transform="translate(0 0.78125)"/>
    </g>
   </g>
   <g id="text_4">
    <!-- $V_{ss\sigma}$ -->
    <g transform="translate(158.659773 98.446753) scale(0.115 -0.115)">
     <defs>
      <path id="DejaVuSans-Oblique-56" d="M 1319 0 
L 500 4666 
L 1119 4666 
L 1797 653 
L 4063 4666 
L 4750 4666 
L 2053 0 
L 1319 0 
z
" transform="scale(0.015625)"/>
      <path id="DejaVuSans-Oblique-73" d="M 3200 3397 
L 3091 2853 
Q 2863 2978 2609 3040 
Q 2356 3103 2088 3103 
Q 1634 3103 1373 2948 
Q 1113 2794 1113 2528 
Q 1113 2219 1719 2053 
Q 1766 2041 1788 2034 
L 1972 1978 
Q 2547 1819 2739 1644 
Q 2931 1469 2931 1166 
Q 2931 609 2489 259 
Q 2047 -91 1331 -91 
Q 1053 -91 747 -37 
Q 441 16 72 128 
L 184 722 
Q 500 559 806 475 
Q 1113 391 1394 391 
Q 1816 391 2080 572 
Q 2344 753 2344 1031 
Q 2344 1331 1650 1516 
L 1591 1531 
L 1394 1581 
Q 956 1697 753 1886 
Q 550 2075 550 2369 
Q 550 2928 970 3256 
Q 1391 3584 2113 3584 
Q 2397 3584 2667 3537 
Q 2938 3491 3200 3397 
z
" transform="scale(0.015625)"/>
      <path id="DejaVuSans-Oblique-3c3" d="M 2219 3044 
Q 1744 3044 1422 2700 
Q 1081 2341 969 1747 
Q 844 1119 1044 756 
Q 1241 397 1706 397 
Q 2166 397 2503 759 
Q 2844 1122 2966 1747 
Q 3075 2319 2881 2700 
Q 2700 3044 2219 3044 
z
M 2309 3503 
L 4219 3500 
L 4106 2925 
L 3463 2925 
Q 3706 2438 3575 1747 
Q 3406 888 2884 400 
Q 2359 -91 1609 -91 
Q 856 -91 525 400 
Q 194 888 363 1747 
Q 528 2609 1050 3097 
Q 1484 3503 2309 3503 
z
" transform="scale(0.015625)"/>
     </defs>
     <use xlink:href="#DejaVuSans-Oblique-56" transform="translate(0 0.09375)"/>
     <use xlink:href="#DejaVuSans-Oblique-73" transform="translate(68.408203 -16.3125) scale(0.7)"/>
     <use xlink:href="#DejaVuSans-Oblique-73" transform="translate(104.87793 -16.3125) scale(0.7)"/>
     <use xlink:href="#DejaVuSans-Oblique-3c3" transform="translate(141.347656 -16.3125) scale(0.7)"/>
    </g>
   </g>
  </g>
  <g id="axes_2">
   <g id="patch_7">
    <path d="M 486.645195 215.756883 
C 488.490182 215.756883 490.259851 215.023862 491.564454 213.719259 
C 492.869057 212.414656 493.602078 210.644987 493.602078 208.8 
C 493.602078 206.955013 492.869057 205.185344 491.564454 203.880741 
C 490.259851 202.576138 488.490182 201.843117 486.645195 201.843117 
C 484.800208 201.843117 483.030538 202.576138 481.725936 203.880741 
C 480.421333 205.185344 479.688312 206.955013 479.688312 208.8 
C 479.688312 210.644987 480.421333 212.414656 481.725936 213.719259 
C 483.030538 215.023862 484.800208 215.756883 486.645195 215.756883 
z
" clip-path="url(#p3d7b5e8654)" style="fill: #1f77b4; opacity: 0.75"/>
   </g>
   <g id="patch_8">
    <path d="M 631.58026 215.756883 
C 633.425247 215.756883 635.194916 215.023862 636.499519 213.719259 
C 637.804122 212.414656 638.537143 210.644987 638.537143 208.8 
C 638.537143 206.955013 637.804122 205.185344 636.499519 203.880741 
C 635.194916 202.576138 633.425247 201.843117 631.58026 201.843117 
C 629.735273 201.843117 627.965603 202.576138 626.661001 203.880741 
C 625.356398 205.185344 624.623377 206.955013 624.623377 208.8 
C 624.623377 210.644987 625.356398 212.414656 626.661001 213.719259 
C 627.965603 215.023862 629.735273 215.756883 631.58026 215.756883 
z
" clip-path="url(#p3d7b5e8654)" style="fill: #1f77b4; opacity: 0.75"/>
   </g>
   <g id="patch_9">
    <path d="M 486.645195 250.541299 
C 497.715117 250.541299 508.333133 246.143172 516.16075 238.315555 
C 523.988367 230.487939 528.386494 219.869922 528.386494 208.8 
C 528.386494 197.730078 523.988367 187.112061 516.16075 179.284445 
C 508.333133 171.456828 497.715117 167.058701 486.645195 167.058701 
C 475.575273 167.058701 464.957256 171.456828 457.129639 179.284445 
C 449.302023 187.112061 444.903896 197.730078 444.903896 208.8 
C 444.903896 219.869922 449.302023 230.487939 457.129639 238.315555 
C 464.957256 246.143172 475.575273 250.541299 486.645195 250.541299 
z
" clip-path="url(#p3d7b5e8654)" style="fill: #1f77b4; opacity: 0.18"/>
   </g>
   <g id="patch_10">
    <path d="M 662.306494 225.612468 
C 672.146424 225.612468 681.584661 223.841 688.542543 220.68821 
C 695.500424 217.53542 699.40987 213.258719 699.40987 208.8 
C 699.40987 204.341281 695.500424 200.06458 688.542543 196.91179 
C 681.584661 193.759 672.146424 191.987532 662.306494 191.987532 
C 652.466563 191.987532 643.028326 193.759 636.070444 196.91179 
C 629.112563 200.06458 625.203117 204.341281 625.203117 208.8 
C 625.203117 213.258719 629.112563 217.53542 636.070444 220.68821 
C 643.028326 223.841 652.466563 225.612468 662.306494 225.612468 
z
" clip-path="url(#p3d7b5e8654)" style="fill: url(#he1f2b617f3); opacity: 0.22"/>
   </g>
   <g id="patch_11">
    <path d="M 600.854026 225.612468 
C 610.693956 225.612468 620.132194 223.841 627.090075 220.68821 
C 634.047957 217.53542 637.957403 213.258719 637.957403 208.8 
C 637.957403 204.341281 634.047957 200.06458 627.090075 196.91179 
C 620.132194 193.759 610.693956 191.987532 600.854026 191.987532 
C 591.014095 191.987532 581.575858 193.759 574.617977 196.91179 
C 567.660095 200.06458 563.750649 204.341281 563.750649 208.8 
C 563.750649 213.258719 567.660095 217.53542 574.617977 220.68821 
C 581.575858 223.841 591.014095 225.612468 600.854026 225.612468 
z
" clip-path="url(#p3d7b5e8654)" style="fill: url(#hb4a2326062); opacity: 0.13"/>
   </g>
   <g id="line2d_2">
    <path d="M 486.645195 208.8 
L 631.58026 208.8 
" clip-path="url(#p3d7b5e8654)" style="fill: none; stroke-dasharray: 0.8,1.32; stroke-dashoffset: 0; stroke: #1f77b4; stroke-width: 0.8"/>
   </g>
   <g id="text_5">
    <!-- A -->
    <g transform="translate(483.395898 233.149091) scale(0.095 -0.095)">
     <use xlink:href="#DejaVuSans-41"/>
    </g>
   </g>
   <g id="text_6">
    <!-- B -->
    <g transform="translate(628.321314 233.149091) scale(0.095 -0.095)">
     <use xlink:href="#DejaVuSans-42"/>
    </g>
   </g>
   <g id="patch_12">
    <path d="M 488.648844 275.47013 
Q 559.113491 275.47013 628.348301 275.47013 
" style="fill: none; stroke: #000000; stroke-width: 1.1; stroke-linecap: round"/>
    <path d="M 623.548301 273.07013 
L 628.348301 275.47013 
L 623.548301 277.87013 
z
" style="fill: #1f77b4; stroke: #000000; stroke-width: 1.1; stroke-linecap: round"/>
   </g>
   <g id="text_7">
    <!-- $\mathbf{t}$ -->
    <g transform="translate(556.952727 288.388892) scale(0.09 -0.09)">
     <use xlink:href="#DejaVuSans-Bold-74" transform="translate(0 0.78125)"/>
    </g>
   </g>
   <g id="text_8">
    <!-- $V_{sp\sigma}$ -->
    <g transform="translate(547.785227 98.446753) scale(0.115 -0.115)">
     <defs>
      <path id="DejaVuSans-Oblique-70" d="M 3175 2156 
Q 3175 2616 2975 2859 
Q 2775 3103 2400 3103 
Q 2144 3103 1911 2972 
Q 1678 2841 1497 2591 
Q 1319 2344 1212 1994 
Q 1106 1644 1106 1300 
Q 1106 863 1306 627 
Q 1506 391 1875 391 
Q 2147 391 2380 519 
Q 2613 647 2778 891 
Q 2956 1147 3065 1494 
Q 3175 1841 3175 2156 
z
M 1394 2969 
Q 1625 3272 1939 3428 
Q 2253 3584 2638 3584 
Q 3175 3584 3472 3232 
Q 3769 2881 3769 2247 
Q 3769 1728 3584 1258 
Q 3400 788 3053 416 
Q 2822 169 2531 39 
Q 2241 -91 1919 -91 
Q 1547 -91 1294 64 
Q 1041 219 916 525 
L 556 -1331 
L -19 -1331 
L 922 3500 
L 1497 3500 
L 1394 2969 
z
" transform="scale(0.015625)"/>
     </defs>
     <use xlink:href="#DejaVuSans-Oblique-56" transform="translate(0 0.09375)"/>
     <use xlink:href="#DejaVuSans-Oblique-73" transform="translate(68.408203 -16.3125) scale(0.7)"/>
     <use xlink:href="#DejaVuSans-Oblique-70" transform="translate(104.87793 -16.3125) scale(0.7)"/>
     <use xlink:href="#DejaVuSans-Oblique-3c3" transform="translate(149.311523 -16.3125) scale(0.7)"/>
    </g>
   </g>
  </g>
  <g id="axes_3">
   <g id="patch_13">
    <path d="M 97.05974 518.156883 
C 98.904727 518.156883 100.674397 517.423862 101.978999 516.119259 
C 103.283602 514.814656 104.016623 513.044987 104.016623 511.2 
C 104.016623 509.355013 103.283602 507.585344 101.978999 506.280741 
C 100.674397 504.976138 98.904727 504.243117 97.05974 504.243117 
C 95.214753 504.243117 93.445084 504.976138 92.140481 506.280741 
C 90.835878 507.585344 90.102857 509.355013 90.102857 511.2 
C 90.102857 513.044987 90.835878 514.814656 92.140481 516.119259 
C 93.445084 517.423862 95.214753 518.156883 97.05974 518.156883 
z
" clip-path="url(#pcb9af7753e)" style="fill: #1f77b4; opacity: 0.75"/>
   </g>
   <g id="patch_14">
    <path d="M 241.994805 518.156883 
C 243.839792 518.156883 245.609462 517.423862 246.914064 516.119259 
C 248.218667 514.814656 248.951688 513.044987 248.951688 511.2 
C 248.951688 509.355013 248.218667 507.585344 246.914064 506.280741 
C 245.609462 504.976138 243.839792 504.243117 241.994805 504.243117 
C 240.149818 504.243117 238.380149 504.976138 237.075546 506.280741 
C 235.770943 507.585344 235.037922 509.355013 235.037922 511.2 
C 235.037922 513.044987 235.770943 514.814656 237.075546 516.119259 
C 238.380149 517.423862 240.149818 518.156883 241.994805 518.156883 
z
" clip-path="url(#pcb9af7753e)" style="fill: #1f77b4; opacity: 0.75"/>
   </g>
   <g id="patch_15">
    <path d="M 127.785974 528.012468 
C 137.625905 528.012468 147.064142 526.241 154.022023 523.08821 
C 160.979905 519.93542 164.889351 515.658719 164.889351 511.2 
C 164.889351 506.741281 160.979905 502.46458 154.022023 499.31179 
C 147.064142 496.159 137.625905 494.387532 127.785974 494.387532 
C 117.946044 494.387532 108.507806 496.159 101.549925 499.31179 
C 94.592043 502.46458 90.682597 506.741281 90.682597 511.2 
C 90.682597 515.658719 94.592043 519.93542 101.549925 523.08821 
C 108.507806 526.241 117.946044 528.012468 127.785974 528.012468 
z
" clip-path="url(#pcb9af7753e)" style="fill: url(#he1f2b617f3); opacity: 0.22"/>
   </g>
   <g id="patch_16">
    <path d="M 66.333506 528.012468 
C 76.173437 528.012468 85.611674 526.241 92.569556 523.08821 
C 99.527437 519.93542 103.436883 515.658719 103.436883 511.2 
C 103.436883 506.741281 99.527437 502.46458 92.569556 499.31179 
C 85.611674 496.159 76.173437 494.387532 66.333506 494.387532 
C 56.493576 494.387532 47.055339 496.159 40.097457 499.31179 
C 33.139576 502.46458 29.23013 506.741281 29.23013 511.2 
C 29.23013 515.658719 33.139576 519.93542 40.097457 523.08821 
C 47.055339 526.241 56.493576 528.012468 66.333506 528.012468 
z
" clip-path="url(#pcb9af7753e)" style="fill: url(#hb4a2326062); opacity: 0.13"/>
   </g>
   <g id="patch_17">
    <path d="M 272.721039 528.012468 
C 282.560969 528.012468 291.999207 526.241 298.957088 523.08821 
C 305.91497 519.93542 309.824416 515.658719 309.824416 511.2 
C 309.824416 506.741281 305.91497 502.46458 298.957088 499.31179 
C 291.999207 496.159 282.560969 494.387532 272.721039 494.387532 
C 262.881108 494.387532 253.442871 496.159 246.48499 499.31179 
C 239.527108 502.46458 235.617662 506.741281 235.617662 511.2 
C 235.617662 515.658719 239.527108 519.93542 246.48499 523.08821 
C 253.442871 526.241 262.881108 528.012468 272.721039 528.012468 
z
" clip-path="url(#pcb9af7753e)" style="fill: url(#he1f2b617f3); opacity: 0.22"/>
   </g>
   <g id="patch_18">
    <path d="M 211.268571 528.012468 
C 221.108502 528.012468 230.546739 526.241 237.504621 523.08821 
C 244.462502 519.93542 248.371948 515.658719 248.371948 511.2 
C 248.371948 506.741281 244.462502 502.46458 237.504621 499.31179 
C 230.546739 496.159 221.108502 494.387532 211.268571 494.387532 
C 201.428641 494.387532 191.990404 496.159 185.032522 499.31179 
C 178.074641 502.46458 174.165195 506.741281 174.165195 511.2 
C 174.165195 515.658719 178.074641 519.93542 185.032522 523.08821 
C 191.990404 526.241 201.428641 528.012468 211.268571 528.012468 
z
" clip-path="url(#pcb9af7753e)" style="fill: url(#hb4a2326062); opacity: 0.13"/>
   </g>
   <g id="line2d_3">
    <path d="M 97.05974 511.2 
L 241.994805 511.2 
" clip-path="url(#pcb9af7753e)" style="fill: none; stroke-dasharray: 0.8,1.32; stroke-dashoffset: 0; stroke: #1f77b4; stroke-width: 0.8"/>
   </g>
   <g id="text_9">
    <!-- A -->
    <g transform="translate(93.810443 535.549091) scale(0.095 -0.095)">
     <use xlink:href="#DejaVuSans-41"/>
    </g>
   </g>
   <g id="text_10">
    <!-- B -->
    <g transform="translate(238.73586 535.549091) scale(0.095 -0.095)">
     <use xlink:href="#DejaVuSans-42"/>
    </g>
   </g>
   <g id="patch_19">
    <path d="M 99.06339 577.87013 
Q 169.528037 577.87013 238.762846 577.87013 
" style="fill: none; stroke: #000000; stroke-width: 1.1; stroke-linecap: round"/>
    <path d="M 233.962846 575.47013 
L 238.762846 577.87013 
L 233.962846 580.27013 
z
" style="fill: #1f77b4; stroke: #000000; stroke-width: 1.1; stroke-linecap: round"/>
   </g>
   <g id="text_11">
    <!-- $\mathbf{t}$ -->
    <g transform="translate(167.367273 590.788892) scale(0.09 -0.09)">
     <use xlink:href="#DejaVuSans-Bold-74" transform="translate(0 0.78125)"/>
    </g>
   </g>
   <g id="text_12">
    <!-- $V_{pp\sigma}$ -->
    <g transform="translate(157.739773 400.846753) scale(0.115 -0.115)">
     <use xlink:href="#DejaVuSans-Oblique-56" transform="translate(0 0.09375)"/>
     <use xlink:href="#DejaVuSans-Oblique-70" transform="translate(68.408203 -16.3125) scale(0.7)"/>
     <use xlink:href="#DejaVuSans-Oblique-70" transform="translate(112.841797 -16.3125) scale(0.7)"/>
     <use xlink:href="#DejaVuSans-Oblique-3c3" transform="translate(157.275391 -16.3125) scale(0.7)"/>
    </g>
   </g>
  </g>
  <g id="axes_4">
   <g id="patch_20">
    <path d="M 486.645195 518.156883 
C 488.490182 518.156883 490.259851 517.423862 491.564454 516.119259 
C 492.869057 514.814656 493.602078 513.044987 493.602078 511.2 
C 493.602078 509.355013 492.869057 507.585344 491.564454 506.280741 
C 490.259851 504.976138 488.490182 504.243117 486.645195 504.243117 
C 484.800208 504.243117 483.030538 504.976138 481.725936 506.280741 
C 480.421333 507.585344 479.688312 509.355013 479.688312 511.2 
C 479.688312 513.044987 480.421333 514.814656 481.725936 516.119259 
C 483.030538 517.423862 484.800208 518.156883 486.645195 518.156883 
z
" clip-path="url(#p06e481831c)" style="fill: #1f77b4; opacity: 0.75"/>
   </g>
   <g id="patch_21">
    <path d="M 631.58026 518.156883 
C 633.425247 518.156883 635.194916 517.423862 636.499519 516.119259 
C 637.804122 514.814656 638.537143 513.044987 638.537143 511.2 
C 638.537143 509.355013 637.804122 507.585344 636.499519 506.280741 
C 635.194916 504.976138 633.425247 504.243117 631.58026 504.243117 
C 629.735273 504.243117 627.965603 504.976138 626.661001 506.280741 
C 625.356398 507.585344 624.623377 509.355013 624.623377 511.2 
C 624.623377 513.044987 625.356398 514.814656 626.661001 516.119259 
C 627.965603 517.423862 629.735273 518.156883 631.58026 518.156883 
z
" clip-path="url(#p06e481831c)" style="fill: #1f77b4; opacity: 0.75"/>
   </g>
   <g id="patch_22">
    <path d="M 503.457662 480.473766 
C 503.457662 470.633836 501.686195 461.195599 498.533405 454.237717 
C 495.380615 447.279835 491.103913 443.37039 486.645195 443.37039 
C 482.186476 443.37039 477.909775 447.279835 474.756985 454.237717 
C 471.604195 461.195599 469.832727 470.633836 469.832727 480.473766 
C 469.832727 490.313697 471.604195 499.751934 474.756985 506.709815 
C 477.909775 513.667697 482.186476 517.577143 486.645195 517.577143 
C 491.103913 517.577143 495.380615 513.667697 498.533405 506.709815 
C 501.686195 499.751934 503.457662 490.313697 503.457662 480.473766 
z
" clip-path="url(#p06e481831c)" style="fill: url(#he1f2b617f3); opacity: 0.22"/>
   </g>
   <g id="patch_23">
    <path d="M 503.457662 541.926234 
C 503.457662 532.086303 501.686195 522.648066 498.533405 515.690185 
C 495.380615 508.732303 491.103913 504.822857 486.645195 504.822857 
C 482.186476 504.822857 477.909775 508.732303 474.756985 515.690185 
C 471.604195 522.648066 469.832727 532.086303 469.832727 541.926234 
C 469.832727 551.766164 471.604195 561.204401 474.756985 568.162283 
C 477.909775 575.120165 482.186476 579.02961 486.645195 579.02961 
C 491.103913 579.02961 495.380615 575.120165 498.533405 568.162283 
C 501.686195 561.204401 503.457662 551.766164 503.457662 541.926234 
z
" clip-path="url(#p06e481831c)" style="fill: url(#hb4a2326062); opacity: 0.13"/>
   </g>
   <g id="patch_24">
    <path d="M 648.392727 480.473766 
C 648.392727 470.633836 646.62126 461.195599 643.46847 454.237717 
C 640.315679 447.279835 636.038978 443.37039 631.58026 443.37039 
C 627.121541 443.37039 622.84484 447.279835 619.69205 454.237717 
C 616.53926 461.195599 614.767792 470.633836 614.767792 480.473766 
C 614.767792 490.313697 616.53926 499.751934 619.69205 506.709815 
C 622.84484 513.667697 627.121541 517.577143 631.58026 517.577143 
C 636.038978 517.577143 640.315679 513.667697 643.46847 506.709815 
C 646.62126 499.751934 648.392727 490.313697 648.392727 480.473766 
z
" clip-path="url(#p06e481831c)" style="fill: url(#he1f2b617f3); opacity: 0.22"/>
   </g>
   <g id="patch_25">
    <path d="M 648.392727 541.926234 
C 648.392727 532.086303 646.62126 522.648066 643.46847 515.690185 
C 640.315679 508.732303 636.038978 504.822857 631.58026 504.822857 
C 627.121541 504.822857 622.84484 508.732303 619.69205 515.690185 
C 616.53926 522.648066 614.767792 532.086303 614.767792 541.926234 
C 614.767792 551.766164 616.53926 561.204401 619.69205 568.162283 
C 622.84484 575.120165 627.121541 579.02961 631.58026 579.02961 
C 636.038978 579.02961 640.315679 575.120165 643.46847 568.162283 
C 646.62126 561.204401 648.392727 551.766164 648.392727 541.926234 
z
" clip-path="url(#p06e481831c)" style="fill: url(#hb4a2326062); opacity: 0.13"/>
   </g>
   <g id="line2d_4">
    <path d="M 486.645195 511.2 
L 631.58026 511.2 
" clip-path="url(#p06e481831c)" style="fill: none; stroke-dasharray: 0.8,1.32; stroke-dashoffset: 0; stroke: #1f77b4; stroke-width: 0.8"/>
   </g>
   <g id="text_13">
    <!-- A -->
    <g transform="translate(483.395898 535.549091) scale(0.095 -0.095)">
     <use xlink:href="#DejaVuSans-41"/>
    </g>
   </g>
   <g id="text_14">
    <!-- B -->
    <g transform="translate(628.321314 535.549091) scale(0.095 -0.095)">
     <use xlink:href="#DejaVuSans-42"/>
    </g>
   </g>
   <g id="patch_26">
    <path d="M 488.648844 577.87013 
Q 559.113491 577.87013 628.348301 577.87013 
" style="fill: none; stroke: #000000; stroke-width: 1.1; stroke-linecap: round"/>
    <path d="M 623.548301 575.47013 
L 628.348301 577.87013 
L 623.548301 580.27013 
z
" style="fill: #1f77b4; stroke: #000000; stroke-width: 1.1; stroke-linecap: round"/>
   </g>
   <g id="text_15">
    <!-- $\mathbf{t}$ -->
    <g transform="translate(556.952727 590.788892) scale(0.09 -0.09)">
     <use xlink:href="#DejaVuSans-Bold-74" transform="translate(0 0.78125)"/>
    </g>
   </g>
   <g id="text_16">
    <!-- $V_{pp\pi}$ -->
    <g transform="translate(547.440227 400.846753) scale(0.115 -0.115)">
     <defs>
      <path id="DejaVuSans-Oblique-3c0" d="M 584 3500 
L 3938 3500 
L 3825 2925 
L 3384 2925 
L 2966 775 
Q 2922 550 2981 450 
Q 3038 353 3209 353 
Q 3256 353 3325 363 
Q 3397 369 3419 372 
L 3338 -44 
Q 3222 -84 3103 -103 
Q 2981 -122 2866 -122 
Q 2491 -122 2388 81 
Q 2284 288 2391 838 
L 2797 2925 
L 1506 2925 
L 938 0 
L 350 0 
L 919 2925 
L 472 2925 
L 584 3500 
z
" transform="scale(0.015625)"/>
     </defs>
     <use xlink:href="#DejaVuSans-Oblique-56" transform="translate(0 0.09375)"/>
     <use xlink:href="#DejaVuSans-Oblique-70" transform="translate(68.408203 -16.3125) scale(0.7)"/>
     <use xlink:href="#DejaVuSans-Oblique-70" transform="translate(112.841797 -16.3125) scale(0.7)"/>
     <use xlink:href="#DejaVuSans-Oblique-3c0" transform="translate(157.275391 -16.3125) scale(0.7)"/>
    </g>
   </g>
  </g>
  <g id="text_17">
   <!-- Integrali di hopping a due centri nello schema di Slater–Koster -->
   <g transform="translate(87.507422 18.597656) scale(0.15 -0.15)">
    <defs>
     <path id="DejaVuSans-Bold-49" d="M 588 4666 
L 1791 4666 
L 1791 0 
L 588 0 
L 588 4666 
z
" transform="scale(0.015625)"/>
     <path id="DejaVuSans-Bold-6e" d="M 4056 2131 
L 4056 0 
L 2931 0 
L 2931 347 
L 2931 1631 
Q 2931 2084 2911 2256 
Q 2891 2428 2841 2509 
Q 2775 2619 2662 2680 
Q 2550 2741 2406 2741 
Q 2056 2741 1856 2470 
Q 1656 2200 1656 1722 
L 1656 0 
L 538 0 
L 538 3500 
L 1656 3500 
L 1656 2988 
Q 1909 3294 2193 3439 
Q 2478 3584 2822 3584 
Q 3428 3584 3742 3212 
Q 4056 2841 4056 2131 
z
" transform="scale(0.015625)"/>
     <path id="DejaVuSans-Bold-65" d="M 4031 1759 
L 4031 1441 
L 1416 1441 
Q 1456 1047 1700 850 
Q 1944 653 2381 653 
Q 2734 653 3104 758 
Q 3475 863 3866 1075 
L 3866 213 
Q 3469 63 3072 -14 
Q 2675 -91 2278 -91 
Q 1328 -91 801 392 
Q 275 875 275 1747 
Q 275 2603 792 3093 
Q 1309 3584 2216 3584 
Q 3041 3584 3536 3087 
Q 4031 2591 4031 1759 
z
M 2881 2131 
Q 2881 2450 2695 2645 
Q 2509 2841 2209 2841 
Q 1884 2841 1681 2658 
Q 1478 2475 1428 2131 
L 2881 2131 
z
" transform="scale(0.015625)"/>
     <path id="DejaVuSans-Bold-67" d="M 2919 594 
Q 2688 288 2409 144 
Q 2131 0 1766 0 
Q 1125 0 706 504 
Q 288 1009 288 1791 
Q 288 2575 706 3076 
Q 1125 3578 1766 3578 
Q 2131 3578 2409 3434 
Q 2688 3291 2919 2981 
L 2919 3500 
L 4044 3500 
L 4044 353 
Q 4044 -491 3511 -936 
Q 2978 -1381 1966 -1381 
Q 1638 -1381 1331 -1331 
Q 1025 -1281 716 -1178 
L 716 -306 
Q 1009 -475 1290 -558 
Q 1572 -641 1856 -641 
Q 2406 -641 2662 -400 
Q 2919 -159 2919 353 
L 2919 594 
z
M 2181 2772 
Q 1834 2772 1640 2515 
Q 1447 2259 1447 1791 
Q 1447 1309 1634 1061 
Q 1822 813 2181 813 
Q 2531 813 2725 1069 
Q 2919 1325 2919 1791 
Q 2919 2259 2725 2515 
Q 2531 2772 2181 2772 
z
" transform="scale(0.015625)"/>
     <path id="DejaVuSans-Bold-72" d="M 3138 2547 
Q 2991 2616 2845 2648 
Q 2700 2681 2553 2681 
Q 2122 2681 1889 2404 
Q 1656 2128 1656 1613 
L 1656 0 
L 538 0 
L 538 3500 
L 1656 3500 
L 1656 2925 
Q 1872 3269 2151 3426 
Q 2431 3584 2822 3584 
Q 2878 3584 2943 3579 
Q 3009 3575 3134 3559 
L 3138 2547 
z
" transform="scale(0.015625)"/>
     <path id="DejaVuSans-Bold-61" d="M 2106 1575 
Q 1756 1575 1579 1456 
Q 1403 1338 1403 1106 
Q 1403 894 1545 773 
Q 1688 653 1941 653 
Q 2256 653 2472 879 
Q 2688 1106 2688 1447 
L 2688 1575 
L 2106 1575 
z
M 3816 1997 
L 3816 0 
L 2688 0 
L 2688 519 
Q 2463 200 2181 54 
Q 1900 -91 1497 -91 
Q 953 -91 614 226 
Q 275 544 275 1050 
Q 275 1666 698 1953 
Q 1122 2241 2028 2241 
L 2688 2241 
L 2688 2328 
Q 2688 2594 2478 2717 
Q 2269 2841 1825 2841 
Q 1466 2841 1156 2769 
Q 847 2697 581 2553 
L 581 3406 
Q 941 3494 1303 3539 
Q 1666 3584 2028 3584 
Q 2975 3584 3395 3211 
Q 3816 2838 3816 1997 
z
" transform="scale(0.015625)"/>
     <path id="DejaVuSans-Bold-6c" d="M 538 4863 
L 1656 4863 
L 1656 0 
L 538 0 
L 538 4863 
z
" transform="scale(0.015625)"/>
     <path id="DejaVuSans-Bold-69" d="M 538 3500 
L 1656 3500 
L 1656 0 
L 538 0 
L 538 3500 
z
M 538 4863 
L 1656 4863 
L 1656 3950 
L 538 3950 
L 538 4863 
z
" transform="scale(0.015625)"/>
     <path id="DejaVuSans-Bold-20" transform="scale(0.015625)"/>
     <path id="DejaVuSans-Bold-64" d="M 2919 2988 
L 2919 4863 
L 4044 4863 
L 4044 0 
L 2919 0 
L 2919 506 
Q 2688 197 2409 53 
Q 2131 -91 1766 -91 
Q 1119 -91 703 423 
Q 288 938 288 1747 
Q 288 2556 703 3070 
Q 1119 3584 1766 3584 
Q 2128 3584 2408 3439 
Q 2688 3294 2919 2988 
z
M 2181 722 
Q 2541 722 2730 984 
Q 2919 1247 2919 1747 
Q 2919 2247 2730 2509 
Q 2541 2772 2181 2772 
Q 1825 2772 1636 2509 
Q 1447 2247 1447 1747 
Q 1447 1247 1636 984 
Q 1825 722 2181 722 
z
" transform="scale(0.015625)"/>
     <path id="DejaVuSans-Bold-68" d="M 4056 2131 
L 4056 0 
L 2931 0 
L 2931 347 
L 2931 1625 
Q 2931 2084 2911 2256 
Q 2891 2428 2841 2509 
Q 2775 2619 2662 2680 
Q 2550 2741 2406 2741 
Q 2056 2741 1856 2470 
Q 1656 2200 1656 1722 
L 1656 0 
L 538 0 
L 538 4863 
L 1656 4863 
L 1656 2988 
Q 1909 3294 2193 3439 
Q 2478 3584 2822 3584 
Q 3428 3584 3742 3212 
Q 4056 2841 4056 2131 
z
" transform="scale(0.015625)"/>
     <path id="DejaVuSans-Bold-6f" d="M 2203 2784 
Q 1831 2784 1636 2517 
Q 1441 2250 1441 1747 
Q 1441 1244 1636 976 
Q 1831 709 2203 709 
Q 2569 709 2762 976 
Q 2956 1244 2956 1747 
Q 2956 2250 2762 2517 
Q 2569 2784 2203 2784 
z
M 2203 3584 
Q 3106 3584 3614 3096 
Q 4122 2609 4122 1747 
Q 4122 884 3614 396 
Q 3106 -91 2203 -91 
Q 1297 -91 786 396 
Q 275 884 275 1747 
Q 275 2609 786 3096 
Q 1297 3584 2203 3584 
z
" transform="scale(0.015625)"/>
     <path id="DejaVuSans-Bold-70" d="M 1656 506 
L 1656 -1331 
L 538 -1331 
L 538 3500 
L 1656 3500 
L 1656 2988 
Q 1888 3294 2169 3439 
Q 2450 3584 2816 3584 
Q 3463 3584 3878 3070 
Q 4294 2556 4294 1747 
Q 4294 938 3878 423 
Q 3463 -91 2816 -91 
Q 2450 -91 2169 54 
Q 1888 200 1656 506 
z
M 2400 2772 
Q 2041 2772 1848 2508 
Q 1656 2244 1656 1747 
Q 1656 1250 1848 986 
Q 2041 722 2400 722 
Q 2759 722 2948 984 
Q 3138 1247 3138 1747 
Q 3138 2247 2948 2509 
Q 2759 2772 2400 2772 
z
" transform="scale(0.015625)"/>
     <path id="DejaVuSans-Bold-75" d="M 500 1363 
L 500 3500 
L 1625 3500 
L 1625 3150 
Q 1625 2866 1622 2436 
Q 1619 2006 1619 1863 
Q 1619 1441 1641 1255 
Q 1663 1069 1716 984 
Q 1784 875 1895 815 
Q 2006 756 2150 756 
Q 2500 756 2700 1025 
Q 2900 1294 2900 1772 
L 2900 3500 
L 4019 3500 
L 4019 0 
L 2900 0 
L 2900 506 
Q 2647 200 2364 54 
Q 2081 -91 1741 -91 
Q 1134 -91 817 281 
Q 500 653 500 1363 
z
" transform="scale(0.015625)"/>
     <path id="DejaVuSans-Bold-63" d="M 3366 3391 
L 3366 2478 
Q 3138 2634 2908 2709 
Q 2678 2784 2431 2784 
Q 1963 2784 1702 2511 
Q 1441 2238 1441 1747 
Q 1441 1256 1702 982 
Q 1963 709 2431 709 
Q 2694 709 2930 787 
Q 3166 866 3366 1019 
L 3366 103 
Q 3103 6 2833 -42 
Q 2563 -91 2291 -91 
Q 1344 -91 809 395 
Q 275 881 275 1747 
Q 275 2613 809 3098 
Q 1344 3584 2291 3584 
Q 2566 3584 2833 3536 
Q 3100 3488 3366 3391 
z
" transform="scale(0.015625)"/>
     <path id="DejaVuSans-Bold-73" d="M 3272 3391 
L 3272 2541 
Q 2913 2691 2578 2766 
Q 2244 2841 1947 2841 
Q 1628 2841 1473 2761 
Q 1319 2681 1319 2516 
Q 1319 2381 1436 2309 
Q 1553 2238 1856 2203 
L 2053 2175 
Q 2913 2066 3209 1816 
Q 3506 1566 3506 1031 
Q 3506 472 3093 190 
Q 2681 -91 1863 -91 
Q 1516 -91 1145 -36 
Q 775 19 384 128 
L 384 978 
Q 719 816 1070 734 
Q 1422 653 1784 653 
Q 2113 653 2278 743 
Q 2444 834 2444 1013 
Q 2444 1163 2330 1236 
Q 2216 1309 1875 1350 
L 1678 1375 
Q 931 1469 631 1722 
Q 331 1975 331 2491 
Q 331 3047 712 3315 
Q 1094 3584 1881 3584 
Q 2191 3584 2531 3537 
Q 2872 3491 3272 3391 
z
" transform="scale(0.015625)"/>
     <path id="DejaVuSans-Bold-6d" d="M 3781 2919 
Q 3994 3244 4286 3414 
Q 4578 3584 4928 3584 
Q 5531 3584 5847 3212 
Q 6163 2841 6163 2131 
L 6163 0 
L 5038 0 
L 5038 1825 
Q 5041 1866 5042 1909 
Q 5044 1953 5044 2034 
Q 5044 2406 4934 2573 
Q 4825 2741 4581 2741 
Q 4263 2741 4089 2478 
Q 3916 2216 3909 1719 
L 3909 0 
L 2784 0 
L 2784 1825 
Q 2784 2406 2684 2573 
Q 2584 2741 2328 2741 
Q 2006 2741 1831 2477 
Q 1656 2213 1656 1722 
L 1656 0 
L 531 0 
L 531 3500 
L 1656 3500 
L 1656 2988 
Q 1863 3284 2130 3434 
Q 2397 3584 2719 3584 
Q 3081 3584 3359 3409 
Q 3638 3234 3781 2919 
z
" transform="scale(0.015625)"/>
     <path id="DejaVuSans-Bold-53" d="M 3834 4519 
L 3834 3531 
Q 3450 3703 3084 3790 
Q 2719 3878 2394 3878 
Q 1963 3878 1756 3759 
Q 1550 3641 1550 3391 
Q 1550 3203 1689 3098 
Q 1828 2994 2194 2919 
L 2706 2816 
Q 3484 2659 3812 2340 
Q 4141 2022 4141 1434 
Q 4141 663 3683 286 
Q 3225 -91 2284 -91 
Q 1841 -91 1394 -6 
Q 947 78 500 244 
L 500 1259 
Q 947 1022 1364 901 
Q 1781 781 2169 781 
Q 2563 781 2772 912 
Q 2981 1044 2981 1288 
Q 2981 1506 2839 1625 
Q 2697 1744 2272 1838 
L 1806 1941 
Q 1106 2091 782 2419 
Q 459 2747 459 3303 
Q 459 4000 909 4375 
Q 1359 4750 2203 4750 
Q 2588 4750 2994 4692 
Q 3400 4634 3834 4519 
z
" transform="scale(0.015625)"/>
     <path id="DejaVuSans-Bold-2013" d="M 344 2156 
L 2856 2156 
L 2856 1350 
L 344 1350 
L 344 2156 
z
" transform="scale(0.015625)"/>
     <path id="DejaVuSans-Bold-4b" d="M 588 4666 
L 1791 4666 
L 1791 2963 
L 3525 4666 
L 4922 4666 
L 2675 2456 
L 5153 0 
L 3647 0 
L 1791 1838 
L 1791 0 
L 588 0 
L 588 4666 
z
" transform="scale(0.015625)"/>
    </defs>
    <use xlink:href="#DejaVuSans-Bold-49"/>
    <use xlink:href="#DejaVuSans-Bold-6e" transform="translate(37.207031 0)"/>
    <use xlink:href="#DejaVuSans-Bold-74" transform="translate(108.398438 0)"/>
    <use xlink:href="#DejaVuSans-Bold-65" transform="translate(156.201172 0)"/>
    <use xlink:href="#DejaVuSans-Bold-67" transform="translate(224.023438 0)"/>
    <use xlink:href="#DejaVuSans-Bold-72" transform="translate(295.605469 0)"/>
    <use xlink:href="#DejaVuSans-Bold-61" transform="translate(344.921875 0)"/>
    <use xlink:href="#DejaVuSans-Bold-6c" transform="translate(412.402344 0)"/>
    <use xlink:href="#DejaVuSans-Bold-69" transform="translate(446.679688 0)"/>
    <use xlink:href="#DejaVuSans-Bold-20" transform="translate(480.957031 0)"/>
    <use xlink:href="#DejaVuSans-Bold-64" transform="translate(515.771484 0)"/>
    <use xlink:href="#DejaVuSans-Bold-69" transform="translate(587.353516 0)"/>
    <use xlink:href="#DejaVuSans-Bold-20" transform="translate(621.630859 0)"/>
    <use xlink:href="#DejaVuSans-Bold-68" transform="translate(656.445312 0)"/>
    <use xlink:href="#DejaVuSans-Bold-6f" transform="translate(727.636719 0)"/>
    <use xlink:href="#DejaVuSans-Bold-70" transform="translate(796.337891 0)"/>
    <use xlink:href="#DejaVuSans-Bold-70" transform="translate(867.919922 0)"/>
    <use xlink:href="#DejaVuSans-Bold-69" transform="translate(939.501953 0)"/>
    <use xlink:href="#DejaVuSans-Bold-6e" transform="translate(973.779297 0)"/>
    <use xlink:href="#DejaVuSans-Bold-67" transform="translate(1044.970703 0)"/>
    <use xlink:href="#DejaVuSans-Bold-20" transform="translate(1116.552734 0)"/>
    <use xlink:href="#DejaVuSans-Bold-61" transform="translate(1151.367188 0)"/>
    <use xlink:href="#DejaVuSans-Bold-20" transform="translate(1218.847656 0)"/>
    <use xlink:href="#DejaVuSans-Bold-64" transform="translate(1253.662109 0)"/>
    <use xlink:href="#DejaVuSans-Bold-75" transform="translate(1325.244141 0)"/>
    <use xlink:href="#DejaVuSans-Bold-65" transform="translate(1396.435547 0)"/>
    <use xlink:href="#DejaVuSans-Bold-20" transform="translate(1464.257812 0)"/>
    <use xlink:href="#DejaVuSans-Bold-63" transform="translate(1499.072266 0)"/>
    <use xlink:href="#DejaVuSans-Bold-65" transform="translate(1558.349609 0)"/>
    <use xlink:href="#DejaVuSans-Bold-6e" transform="translate(1626.171875 0)"/>
    <use xlink:href="#DejaVuSans-Bold-74" transform="translate(1697.363281 0)"/>
    <use xlink:href="#DejaVuSans-Bold-72" transform="translate(1745.166016 0)"/>
    <use xlink:href="#DejaVuSans-Bold-69" transform="translate(1794.482422 0)"/>
    <use xlink:href="#DejaVuSans-Bold-20" transform="translate(1828.759766 0)"/>
    <use xlink:href="#DejaVuSans-Bold-6e" transform="translate(1863.574219 0)"/>
    <use xlink:href="#DejaVuSans-Bold-65" transform="translate(1934.765625 0)"/>
    <use xlink:href="#DejaVuSans-Bold-6c" transform="translate(2002.587891 0)"/>
    <use xlink:href="#DejaVuSans-Bold-6c" transform="translate(2036.865234 0)"/>
    <use xlink:href="#DejaVuSans-Bold-6f" transform="translate(2071.142578 0)"/>
    <use xlink:href="#DejaVuSans-Bold-20" transform="translate(2139.84375 0)"/>
    <use xlink:href="#DejaVuSans-Bold-73" transform="translate(2174.658203 0)"/>
    <use xlink:href="#DejaVuSans-Bold-63" transform="translate(2234.179688 0)"/>
    <use xlink:href="#DejaVuSans-Bold-68" transform="translate(2293.457031 0)"/>
    <use xlink:href="#DejaVuSans-Bold-65" transform="translate(2364.648438 0)"/>
    <use xlink:href="#DejaVuSans-Bold-6d" transform="translate(2432.470703 0)"/>
    <use xlink:href="#DejaVuSans-Bold-61" transform="translate(2536.669922 0)"/>
    <use xlink:href="#DejaVuSans-Bold-20" transform="translate(2604.150391 0)"/>
    <use xlink:href="#DejaVuSans-Bold-64" transform="translate(2638.964844 0)"/>
    <use xlink:href="#DejaVuSans-Bold-69" transform="translate(2710.546875 0)"/>
    <use xlink:href="#DejaVuSans-Bold-20" transform="translate(2744.824219 0)"/>
    <use xlink:href="#DejaVuSans-Bold-53" transform="translate(2779.638672 0)"/>
    <use xlink:href="#DejaVuSans-Bold-6c" transform="translate(2851.660156 0)"/>
    <use xlink:href="#DejaVuSans-Bold-61" transform="translate(2885.9375 0)"/>
    <use xlink:href="#DejaVuSans-Bold-74" transform="translate(2953.417969 0)"/>
    <use xlink:href="#DejaVuSans-Bold-65" transform="translate(3001.220703 0)"/>
    <use xlink:href="#DejaVuSans-Bold-72" transform="translate(3069.042969 0)"/>
    <use xlink:href="#DejaVuSans-Bold-2013" transform="translate(3118.359375 0)"/>
    <use xlink:href="#DejaVuSans-Bold-4b" transform="translate(3168.359375 0)"/>
    <use xlink:href="#DejaVuSans-Bold-6f" transform="translate(3244.099609 0)"/>
    <use xlink:href="#DejaVuSans-Bold-73" transform="translate(3312.800781 0)"/>
    <use xlink:href="#DejaVuSans-Bold-74" transform="translate(3372.322266 0)"/>
    <use xlink:href="#DejaVuSans-Bold-65" transform="translate(3420.125 0)"/>
    <use xlink:href="#DejaVuSans-Bold-72" transform="translate(3487.947266 0)"/>
   </g>
  </g>
  <g id="text_18">
   <!-- La classificazione σ o π dipende dalla simmetria dell'overlap rispetto al vettore internucleare t. -->
   <g transform="translate(115.682031 698.4) scale(0.1 -0.1)">
    <defs>
     <path id="DejaVuSans-4c" d="M 628 4666 
L 1259 4666 
L 1259 531 
L 3531 531 
L 3531 0 
L 628 0 
L 628 4666 
z
" transform="scale(0.015625)"/>
     <path id="DejaVuSans-61" d="M 2194 1759 
Q 1497 1759 1228 1600 
Q 959 1441 959 1056 
Q 959 750 1161 570 
Q 1363 391 1709 391 
Q 2188 391 2477 730 
Q 2766 1069 2766 1631 
L 2766 1759 
L 2194 1759 
z
M 3341 1997 
L 3341 0 
L 2766 0 
L 2766 531 
Q 2569 213 2275 61 
Q 1981 -91 1556 -91 
Q 1019 -91 701 211 
Q 384 513 384 1019 
Q 384 1609 779 1909 
Q 1175 2209 1959 2209 
L 2766 2209 
L 2766 2266 
Q 2766 2663 2505 2880 
Q 2244 3097 1772 3097 
Q 1472 3097 1187 3025 
Q 903 2953 641 2809 
L 641 3341 
Q 956 3463 1253 3523 
Q 1550 3584 1831 3584 
Q 2591 3584 2966 3190 
Q 3341 2797 3341 1997 
z
" transform="scale(0.015625)"/>
     <path id="DejaVuSans-20" transform="scale(0.015625)"/>
     <path id="DejaVuSans-63" d="M 3122 3366 
L 3122 2828 
Q 2878 2963 2633 3030 
Q 2388 3097 2138 3097 
Q 1578 3097 1268 2742 
Q 959 2388 959 1747 
Q 959 1106 1268 751 
Q 1578 397 2138 397 
Q 2388 397 2633 464 
Q 2878 531 3122 666 
L 3122 134 
Q 2881 22 2623 -34 
Q 2366 -91 2075 -91 
Q 1284 -91 818 406 
Q 353 903 353 1747 
Q 353 2603 823 3093 
Q 1294 3584 2113 3584 
Q 2378 3584 2631 3529 
Q 2884 3475 3122 3366 
z
" transform="scale(0.015625)"/>
     <path id="DejaVuSans-6c" d="M 603 4863 
L 1178 4863 
L 1178 0 
L 603 0 
L 603 4863 
z
" transform="scale(0.015625)"/>
     <path id="DejaVuSans-73" d="M 2834 3397 
L 2834 2853 
Q 2591 2978 2328 3040 
Q 2066 3103 1784 3103 
Q 1356 3103 1142 2972 
Q 928 2841 928 2578 
Q 928 2378 1081 2264 
Q 1234 2150 1697 2047 
L 1894 2003 
Q 2506 1872 2764 1633 
Q 3022 1394 3022 966 
Q 3022 478 2636 193 
Q 2250 -91 1575 -91 
Q 1294 -91 989 -36 
Q 684 19 347 128 
L 347 722 
Q 666 556 975 473 
Q 1284 391 1588 391 
Q 1994 391 2212 530 
Q 2431 669 2431 922 
Q 2431 1156 2273 1281 
Q 2116 1406 1581 1522 
L 1381 1569 
Q 847 1681 609 1914 
Q 372 2147 372 2553 
Q 372 3047 722 3315 
Q 1072 3584 1716 3584 
Q 2034 3584 2315 3537 
Q 2597 3491 2834 3397 
z
" transform="scale(0.015625)"/>
     <path id="DejaVuSans-69" d="M 603 3500 
L 1178 3500 
L 1178 0 
L 603 0 
L 603 3500 
z
M 603 4863 
L 1178 4863 
L 1178 4134 
L 603 4134 
L 603 4863 
z
" transform="scale(0.015625)"/>
     <path id="DejaVuSans-66" d="M 2375 4863 
L 2375 4384 
L 1825 4384 
Q 1516 4384 1395 4259 
Q 1275 4134 1275 3809 
L 1275 3500 
L 2222 3500 
L 2222 3053 
L 1275 3053 
L 1275 0 
L 697 0 
L 697 3053 
L 147 3053 
L 147 3500 
L 697 3500 
L 697 3744 
Q 697 4328 969 4595 
Q 1241 4863 1831 4863 
L 2375 4863 
z
" transform="scale(0.015625)"/>
     <path id="DejaVuSans-7a" d="M 353 3500 
L 3084 3500 
L 3084 2975 
L 922 459 
L 3084 459 
L 3084 0 
L 275 0 
L 275 525 
L 2438 3041 
L 353 3041 
L 353 3500 
z
" transform="scale(0.015625)"/>
     <path id="DejaVuSans-6f" d="M 1959 3097 
Q 1497 3097 1228 2736 
Q 959 2375 959 1747 
Q 959 1119 1226 758 
Q 1494 397 1959 397 
Q 2419 397 2687 759 
Q 2956 1122 2956 1747 
Q 2956 2369 2687 2733 
Q 2419 3097 1959 3097 
z
M 1959 3584 
Q 2709 3584 3137 3096 
Q 3566 2609 3566 1747 
Q 3566 888 3137 398 
Q 2709 -91 1959 -91 
Q 1206 -91 779 398 
Q 353 888 353 1747 
Q 353 2609 779 3096 
Q 1206 3584 1959 3584 
z
" transform="scale(0.015625)"/>
     <path id="DejaVuSans-6e" d="M 3513 2113 
L 3513 0 
L 2938 0 
L 2938 2094 
Q 2938 2591 2744 2837 
Q 2550 3084 2163 3084 
Q 1697 3084 1428 2787 
Q 1159 2491 1159 1978 
L 1159 0 
L 581 0 
L 581 3500 
L 1159 3500 
L 1159 2956 
Q 1366 3272 1645 3428 
Q 1925 3584 2291 3584 
Q 2894 3584 3203 3211 
Q 3513 2838 3513 2113 
z
" transform="scale(0.015625)"/>
     <path id="DejaVuSans-65" d="M 3597 1894 
L 3597 1613 
L 953 1613 
Q 991 1019 1311 708 
Q 1631 397 2203 397 
Q 2534 397 2845 478 
Q 3156 559 3463 722 
L 3463 178 
Q 3153 47 2828 -22 
Q 2503 -91 2169 -91 
Q 1331 -91 842 396 
Q 353 884 353 1716 
Q 353 2575 817 3079 
Q 1281 3584 2069 3584 
Q 2775 3584 3186 3129 
Q 3597 2675 3597 1894 
z
M 3022 2063 
Q 3016 2534 2758 2815 
Q 2500 3097 2075 3097 
Q 1594 3097 1305 2825 
Q 1016 2553 972 2059 
L 3022 2063 
z
" transform="scale(0.015625)"/>
     <path id="DejaVuSans-3c3" d="M 1959 3044 
Q 1484 3044 1228 2700 
Q 959 2341 959 1747 
Q 959 1119 1226 758 
Q 1494 397 1959 397 
Q 2419 397 2687 759 
Q 2956 1122 2956 1747 
Q 2956 2319 2688 2700 
Q 2441 3044 1959 3044 
z
M 1959 3500 
L 3869 3500 
L 3869 2925 
L 3225 2925 
Q 3566 2438 3566 1747 
Q 3566 888 3138 400 
Q 2709 -91 1959 -91 
Q 1206 -91 781 400 
Q 353 888 353 1747 
Q 353 2613 781 3097 
Q 1134 3500 1959 3500 
z
" transform="scale(0.015625)"/>
     <path id="DejaVuSans-3c0" d="M 231 3500 
L 3584 3500 
L 3584 2925 
L 3144 2925 
L 3144 775 
Q 3144 550 3220 451 
Q 3297 353 3469 353 
Q 3516 353 3584 361 
Q 3653 369 3675 372 
L 3675 -44 
Q 3566 -84 3450 -103 
Q 3334 -122 3219 -122 
Q 2844 -122 2700 83 
Q 2556 288 2556 838 
L 2556 2925 
L 1266 2925 
L 1266 0 
L 678 0 
L 678 2925 
L 231 2925 
L 231 3500 
z
" transform="scale(0.015625)"/>
     <path id="DejaVuSans-64" d="M 2906 2969 
L 2906 4863 
L 3481 4863 
L 3481 0 
L 2906 0 
L 2906 525 
Q 2725 213 2448 61 
Q 2172 -91 1784 -91 
Q 1150 -91 751 415 
Q 353 922 353 1747 
Q 353 2572 751 3078 
Q 1150 3584 1784 3584 
Q 2172 3584 2448 3432 
Q 2725 3281 2906 2969 
z
M 947 1747 
Q 947 1113 1208 752 
Q 1469 391 1925 391 
Q 2381 391 2643 752 
Q 2906 1113 2906 1747 
Q 2906 2381 2643 2742 
Q 2381 3103 1925 3103 
Q 1469 3103 1208 2742 
Q 947 2381 947 1747 
z
" transform="scale(0.015625)"/>
     <path id="DejaVuSans-70" d="M 1159 525 
L 1159 -1331 
L 581 -1331 
L 581 3500 
L 1159 3500 
L 1159 2969 
Q 1341 3281 1617 3432 
Q 1894 3584 2278 3584 
Q 2916 3584 3314 3078 
Q 3713 2572 3713 1747 
Q 3713 922 3314 415 
Q 2916 -91 2278 -91 
Q 1894 -91 1617 61 
Q 1341 213 1159 525 
z
M 3116 1747 
Q 3116 2381 2855 2742 
Q 2594 3103 2138 3103 
Q 1681 3103 1420 2742 
Q 1159 2381 1159 1747 
Q 1159 1113 1420 752 
Q 1681 391 2138 391 
Q 2594 391 2855 752 
Q 3116 1113 3116 1747 
z
" transform="scale(0.015625)"/>
     <path id="DejaVuSans-6d" d="M 3328 2828 
Q 3544 3216 3844 3400 
Q 4144 3584 4550 3584 
Q 5097 3584 5394 3201 
Q 5691 2819 5691 2113 
L 5691 0 
L 5113 0 
L 5113 2094 
Q 5113 2597 4934 2840 
Q 4756 3084 4391 3084 
Q 3944 3084 3684 2787 
Q 3425 2491 3425 1978 
L 3425 0 
L 2847 0 
L 2847 2094 
Q 2847 2600 2669 2842 
Q 2491 3084 2119 3084 
Q 1678 3084 1418 2786 
Q 1159 2488 1159 1978 
L 1159 0 
L 581 0 
L 581 3500 
L 1159 3500 
L 1159 2956 
Q 1356 3278 1631 3431 
Q 1906 3584 2284 3584 
Q 2666 3584 2933 3390 
Q 3200 3197 3328 2828 
z
" transform="scale(0.015625)"/>
     <path id="DejaVuSans-74" d="M 1172 4494 
L 1172 3500 
L 2356 3500 
L 2356 3053 
L 1172 3053 
L 1172 1153 
Q 1172 725 1289 603 
Q 1406 481 1766 481 
L 2356 481 
L 2356 0 
L 1766 0 
Q 1100 0 847 248 
Q 594 497 594 1153 
L 594 3053 
L 172 3053 
L 172 3500 
L 594 3500 
L 594 4494 
L 1172 4494 
z
" transform="scale(0.015625)"/>
     <path id="DejaVuSans-72" d="M 2631 2963 
Q 2534 3019 2420 3045 
Q 2306 3072 2169 3072 
Q 1681 3072 1420 2755 
Q 1159 2438 1159 1844 
L 1159 0 
L 581 0 
L 581 3500 
L 1159 3500 
L 1159 2956 
Q 1341 3275 1631 3429 
Q 1922 3584 2338 3584 
Q 2397 3584 2469 3576 
Q 2541 3569 2628 3553 
L 2631 2963 
z
" transform="scale(0.015625)"/>
     <path id="DejaVuSans-27" d="M 1147 4666 
L 1147 2931 
L 616 2931 
L 616 4666 
L 1147 4666 
z
" transform="scale(0.015625)"/>
     <path id="DejaVuSans-76" d="M 191 3500 
L 800 3500 
L 1894 563 
L 2988 3500 
L 3597 3500 
L 2284 0 
L 1503 0 
L 191 3500 
z
" transform="scale(0.015625)"/>
     <path id="DejaVuSans-75" d="M 544 1381 
L 544 3500 
L 1119 3500 
L 1119 1403 
Q 1119 906 1312 657 
Q 1506 409 1894 409 
Q 2359 409 2629 706 
Q 2900 1003 2900 1516 
L 2900 3500 
L 3475 3500 
L 3475 0 
L 2900 0 
L 2900 538 
Q 2691 219 2414 64 
Q 2138 -91 1772 -91 
Q 1169 -91 856 284 
Q 544 659 544 1381 
z
M 1991 3584 
L 1991 3584 
z
" transform="scale(0.015625)"/>
     <path id="DejaVuSans-2e" d="M 684 794 
L 1344 794 
L 1344 0 
L 684 0 
L 684 794 
z
" transform="scale(0.015625)"/>
    </defs>
    <use xlink:href="#DejaVuSans-4c"/>
    <use xlink:href="#DejaVuSans-61" transform="translate(55.712891 0)"/>
    <use xlink:href="#DejaVuSans-20" transform="translate(116.992188 0)"/>
    <use xlink:href="#DejaVuSans-63" transform="translate(148.779297 0)"/>
    <use xlink:href="#DejaVuSans-6c" transform="translate(203.759766 0)"/>
    <use xlink:href="#DejaVuSans-61" transform="translate(231.542969 0)"/>
    <use xlink:href="#DejaVuSans-73" transform="translate(292.822266 0)"/>
    <use xlink:href="#DejaVuSans-73" transform="translate(344.921875 0)"/>
    <use xlink:href="#DejaVuSans-69" transform="translate(397.021484 0)"/>
    <use xlink:href="#DejaVuSans-66" transform="translate(424.804688 0)"/>
    <use xlink:href="#DejaVuSans-69" transform="translate(460.009766 0)"/>
    <use xlink:href="#DejaVuSans-63" transform="translate(487.792969 0)"/>
    <use xlink:href="#DejaVuSans-61" transform="translate(542.773438 0)"/>
    <use xlink:href="#DejaVuSans-7a" transform="translate(604.052734 0)"/>
    <use xlink:href="#DejaVuSans-69" transform="translate(656.542969 0)"/>
    <use xlink:href="#DejaVuSans-6f" transform="translate(684.326172 0)"/>
    <use xlink:href="#DejaVuSans-6e" transform="translate(745.507812 0)"/>
    <use xlink:href="#DejaVuSans-65" transform="translate(808.886719 0)"/>
    <use xlink:href="#DejaVuSans-20" transform="translate(870.410156 0)"/>
    <use xlink:href="#DejaVuSans-3c3" transform="translate(902.197266 0)"/>
    <use xlink:href="#DejaVuSans-20" transform="translate(965.576172 0)"/>
    <use xlink:href="#DejaVuSans-6f" transform="translate(997.363281 0)"/>
    <use xlink:href="#DejaVuSans-20" transform="translate(1058.544922 0)"/>
    <use xlink:href="#DejaVuSans-3c0" transform="translate(1090.332031 0)"/>
    <use xlink:href="#DejaVuSans-20" transform="translate(1150.537109 0)"/>
    <use xlink:href="#DejaVuSans-64" transform="translate(1182.324219 0)"/>
    <use xlink:href="#DejaVuSans-69" transform="translate(1245.800781 0)"/>
    <use xlink:href="#DejaVuSans-70" transform="translate(1273.583984 0)"/>
    <use xlink:href="#DejaVuSans-65" transform="translate(1337.060547 0)"/>
    <use xlink:href="#DejaVuSans-6e" transform="translate(1398.583984 0)"/>
    <use xlink:href="#DejaVuSans-64" transform="translate(1461.962891 0)"/>
    <use xlink:href="#DejaVuSans-65" transform="translate(1525.439453 0)"/>
    <use xlink:href="#DejaVuSans-20" transform="translate(1586.962891 0)"/>
    <use xlink:href="#DejaVuSans-64" transform="translate(1618.75 0)"/>
    <use xlink:href="#DejaVuSans-61" transform="translate(1682.226562 0)"/>
    <use xlink:href="#DejaVuSans-6c" transform="translate(1743.505859 0)"/>
    <use xlink:href="#DejaVuSans-6c" transform="translate(1771.289062 0)"/>
    <use xlink:href="#DejaVuSans-61" transform="translate(1799.072266 0)"/>
    <use xlink:href="#DejaVuSans-20" transform="translate(1860.351562 0)"/>
    <use xlink:href="#DejaVuSans-73" transform="translate(1892.138672 0)"/>
    <use xlink:href="#DejaVuSans-69" transform="translate(1944.238281 0)"/>
    <use xlink:href="#DejaVuSans-6d" transform="translate(1972.021484 0)"/>
    <use xlink:href="#DejaVuSans-6d" transform="translate(2069.433594 0)"/>
    <use xlink:href="#DejaVuSans-65" transform="translate(2166.845703 0)"/>
    <use xlink:href="#DejaVuSans-74" transform="translate(2228.369141 0)"/>
    <use xlink:href="#DejaVuSans-72" transform="translate(2267.578125 0)"/>
    <use xlink:href="#DejaVuSans-69" transform="translate(2308.691406 0)"/>
    <use xlink:href="#DejaVuSans-61" transform="translate(2336.474609 0)"/>
    <use xlink:href="#DejaVuSans-20" transform="translate(2397.753906 0)"/>
    <use xlink:href="#DejaVuSans-64" transform="translate(2429.541016 0)"/>
    <use xlink:href="#DejaVuSans-65" transform="translate(2493.017578 0)"/>
    <use xlink:href="#DejaVuSans-6c" transform="translate(2554.541016 0)"/>
    <use xlink:href="#DejaVuSans-6c" transform="translate(2582.324219 0)"/>
    <use xlink:href="#DejaVuSans-27" transform="translate(2610.107422 0)"/>
    <use xlink:href="#DejaVuSans-6f" transform="translate(2637.597656 0)"/>
    <use xlink:href="#DejaVuSans-76" transform="translate(2698.779297 0)"/>
    <use xlink:href="#DejaVuSans-65" transform="translate(2757.958984 0)"/>
    <use xlink:href="#DejaVuSans-72" transform="translate(2819.482422 0)"/>
    <use xlink:href="#DejaVuSans-6c" transform="translate(2860.595703 0)"/>
    <use xlink:href="#DejaVuSans-61" transform="translate(2888.378906 0)"/>
    <use xlink:href="#DejaVuSans-70" transform="translate(2949.658203 0)"/>
    <use xlink:href="#DejaVuSans-20" transform="translate(3013.134766 0)"/>
    <use xlink:href="#DejaVuSans-72" transform="translate(3044.921875 0)"/>
    <use xlink:href="#DejaVuSans-69" transform="translate(3086.035156 0)"/>
    <use xlink:href="#DejaVuSans-73" transform="translate(3113.818359 0)"/>
    <use xlink:href="#DejaVuSans-70" transform="translate(3165.917969 0)"/>
    <use xlink:href="#DejaVuSans-65" transform="translate(3229.394531 0)"/>
    <use xlink:href="#DejaVuSans-74" transform="translate(3290.917969 0)"/>
    <use xlink:href="#DejaVuSans-74" transform="translate(3330.126953 0)"/>
    <use xlink:href="#DejaVuSans-6f" transform="translate(3369.335938 0)"/>
    <use xlink:href="#DejaVuSans-20" transform="translate(3430.517578 0)"/>
    <use xlink:href="#DejaVuSans-61" transform="translate(3462.304688 0)"/>
    <use xlink:href="#DejaVuSans-6c" transform="translate(3523.583984 0)"/>
    <use xlink:href="#DejaVuSans-20" transform="translate(3551.367188 0)"/>
    <use xlink:href="#DejaVuSans-76" transform="translate(3583.154297 0)"/>
    <use xlink:href="#DejaVuSans-65" transform="translate(3642.333984 0)"/>
    <use xlink:href="#DejaVuSans-74" transform="translate(3703.857422 0)"/>
    <use xlink:href="#DejaVuSans-74" transform="translate(3743.066406 0)"/>
    <use xlink:href="#DejaVuSans-6f" transform="translate(3782.275391 0)"/>
    <use xlink:href="#DejaVuSans-72" transform="translate(3843.457031 0)"/>
    <use xlink:href="#DejaVuSans-65" transform="translate(3882.320312 0)"/>
    <use xlink:href="#DejaVuSans-20" transform="translate(3943.84375 0)"/>
    <use xlink:href="#DejaVuSans-69" transform="translate(3975.630859 0)"/>
    <use xlink:href="#DejaVuSans-6e" transform="translate(4003.414062 0)"/>
    <use xlink:href="#DejaVuSans-74" transform="translate(4066.792969 0)"/>
    <use xlink:href="#DejaVuSans-65" transform="translate(4106.001953 0)"/>
    <use xlink:href="#DejaVuSans-72" transform="translate(4167.525391 0)"/>
    <use xlink:href="#DejaVuSans-6e" transform="translate(4206.888672 0)"/>
    <use xlink:href="#DejaVuSans-75" transform="translate(4270.267578 0)"/>
    <use xlink:href="#DejaVuSans-63" transform="translate(4333.646484 0)"/>
    <use xlink:href="#DejaVuSans-6c" transform="translate(4388.626953 0)"/>
    <use xlink:href="#DejaVuSans-65" transform="translate(4416.410156 0)"/>
    <use xlink:href="#DejaVuSans-61" transform="translate(4477.933594 0)"/>
    <use xlink:href="#DejaVuSans-72" transform="translate(4539.212891 0)"/>
    <use xlink:href="#DejaVuSans-65" transform="translate(4578.076172 0)"/>
    <use xlink:href="#DejaVuSans-20" transform="translate(4639.599609 0)"/>
    <use xlink:href="#DejaVuSans-74" transform="translate(4671.386719 0)"/>
    <use xlink:href="#DejaVuSans-2e" transform="translate(4710.595703 0)"/>
   </g>
  </g>
 </g>
 <defs>
  <clipPath id="p68ca0fbb70">
   <rect x="7.2" y="104.446753" width="324.654545" height="208.706494"/>
  </clipPath>
  <clipPath id="p3d7b5e8654">
   <rect x="396.785455" y="104.446753" width="324.654545" height="208.706494"/>
  </clipPath>
  <clipPath id="pcb9af7753e">
   <rect x="7.2" y="406.846753" width="324.654545" height="208.706494"/>
  </clipPath>
  <clipPath id="p06e481831c">
   <rect x="396.785455" y="406.846753" width="324.654545" height="208.706494"/>
  </clipPath>
 </defs>
 <defs>
  <pattern id="he1f2b617f3" patternUnits="userSpaceOnUse" x="0" y="0" width="72" height="72">
   <rect x="0" y="0" width="73" height="73" fill="#1f77b4"/>
   <path d="M -36 36 
L 36 -36 
M -32 40 
L 40 -32 
M -28 44 
L 44 -28 
M -24 48 
L 48 -24 
M -20 52 
L 52 -20 
M -16 56 
L 56 -16 
M -12 60 
L 60 -12 
M -8 64 
L 64 -8 
M -4 68 
L 68 -4 
M 0 72 
L 72 0 
M 4 76 
L 76 4 
M 8 80 
L 80 8 
M 12 84 
L 84 12 
M 16 88 
L 88 16 
M 20 92 
L 92 20 
M 24 96 
L 96 24 
M 28 100 
L 100 28 
M 32 104 
L 104 32 
M 36 108 
L 108 36 
" style="fill: #000000; stroke: #000000; stroke-width: 1.0; stroke-linecap: butt; stroke-linejoin: miter"/>
  </pattern>
  <pattern id="hb4a2326062" patternUnits="userSpaceOnUse" x="0" y="0" width="72" height="72">
   <rect x="0" y="0" width="73" height="73" fill="#1f77b4"/>
   <path d="M -36 36 
L 36 108 
M -30 30 
L 42 102 
M -24 24 
L 48 96 
M -18 18 
L 54 90 
M -12 12 
L 60 84 
M -6 6 
L 66 78 
M 0 0 
L 72 72 
M 6 -6 
L 78 66 
M 12 -12 
L 84 60 
M 18 -18 
L 90 54 
M 24 -24 
L 96 48 
M 30 -30 
L 102 42 
M 36 -36 
L 108 36 
" style="fill: #000000; stroke: #000000; stroke-width: 1.0; stroke-linecap: butt; stroke-linejoin: miter"/>
  </pattern>
 </defs>
</svg>
