<?xml version="1.0" encoding="utf-8" standalone="no"?>
<!DOCTYPE svg PUBLIC "-//W3C//DTD SVG 1.1//EN"
  "http://www.w3.org/Graphics/SVG/1.1/DTD/svg11.dtd">
<svg xmlns:xlink="http://www.w3.org/1999/xlink" width="661.68pt" height="378.69pt" viewBox="0 0 661.68 378.69" xmlns="http://www.w3.org/2000/svg" version="1.1">
 <metadata>
  <rdf:RDF xmlns:dc="http://purl.org/dc/elements/1.1/" xmlns:cc="http://creativecommons.org/ns#" xmlns:rdf="http://www.w3.org/1999/02/22-rdf-syntax-ns#">
   <cc:Work>
    <dc:type rdf:resource="http://purl.org/dc/dcmitype/StillImage"/>
    <dc:date>2026-06-16T09:43:32.406834</dc:date>
    <dc:format>image/svg+xml</dc:format>
    <dc:creator>
     <cc:Agent>
      <dc:title>Matplotlib v3.10.8, https://matplotlib.org/</dc:title>
     </cc:Agent>
    </dc:creator>
   </cc:Work>
  </rdf:RDF>
 </metadata>
 <defs>
  <style type="text/css">*{stroke-linejoin: round; stroke-linecap: butt}</style>
 </defs>
 <g id="figure_1">
  <g id="patch_1">
   <path d="M 0 378.69 
L 661.68 378.69 
L 661.68 0 
L 0 0 
z
" style="fill: #ffffff"/>
  </g>
  <g id="axes_1">
   <g id="table_1">
    <g id="patch_2">
     <path d="M 52.5096 139.816024 
L 177.474269 139.816024 
L 177.474269 105.378 
L 52.5096 105.378 
z
" style="fill: #ffffff; stroke: #000000; stroke-width: 0.75; stroke-linejoin: miter"/>
    </g>
    <g id="text_1">
     <!-- integrale -->
     <g transform="translate(84.297247 125.861387) scale(0.12 -0.12)">
      <defs>
       <path id="DejaVuSans-Bold-69" d="M 538 3500 
L 1656 3500 
L 1656 0 
L 538 0 
L 538 3500 
z
M 538 4863 
L 1656 4863 
L 1656 3950 
L 538 3950 
L 538 4863 
z
" transform="scale(0.015625)"/>
       <path id="DejaVuSans-Bold-6e" d="M 4056 2131 
L 4056 0 
L 2931 0 
L 2931 347 
L 2931 1631 
Q 2931 2084 2911 2256 
Q 2891 2428 2841 2509 
Q 2775 2619 2662 2680 
Q 2550 2741 2406 2741 
Q 2056 2741 1856 2470 
Q 1656 2200 1656 1722 
L 1656 0 
L 538 0 
L 538 3500 
L 1656 3500 
L 1656 2988 
Q 1909 3294 2193 3439 
Q 2478 3584 2822 3584 
Q 3428 3584 3742 3212 
Q 4056 2841 4056 2131 
z
" transform="scale(0.015625)"/>
       <path id="DejaVuSans-Bold-74" d="M 1759 4494 
L 1759 3500 
L 2913 3500 
L 2913 2700 
L 1759 2700 
L 1759 1216 
Q 1759 972 1856 886 
Q 1953 800 2241 800 
L 2816 800 
L 2816 0 
L 1856 0 
Q 1194 0 917 276 
Q 641 553 641 1216 
L 641 2700 
L 84 2700 
L 84 3500 
L 641 3500 
L 641 4494 
L 1759 4494 
z
" transform="scale(0.015625)"/>
       <path id="DejaVuSans-Bold-65" d="M 4031 1759 
L 4031 1441 
L 1416 1441 
Q 1456 1047 1700 850 
Q 1944 653 2381 653 
Q 2734 653 3104 758 
Q 3475 863 3866 1075 
L 3866 213 
Q 3469 63 3072 -14 
Q 2675 -91 2278 -91 
Q 1328 -91 801 392 
Q 275 875 275 1747 
Q 275 2603 792 3093 
Q 1309 3584 2216 3584 
Q 3041 3584 3536 3087 
Q 4031 2591 4031 1759 
z
M 2881 2131 
Q 2881 2450 2695 2645 
Q 2509 2841 2209 2841 
Q 1884 2841 1681 2658 
Q 1478 2475 1428 2131 
L 2881 2131 
z
" transform="scale(0.015625)"/>
       <path id="DejaVuSans-Bold-67" d="M 2919 594 
Q 2688 288 2409 144 
Q 2131 0 1766 0 
Q 1125 0 706 504 
Q 288 1009 288 1791 
Q 288 2575 706 3076 
Q 1125 3578 1766 3578 
Q 2131 3578 2409 3434 
Q 2688 3291 2919 2981 
L 2919 3500 
L 4044 3500 
L 4044 353 
Q 4044 -491 3511 -936 
Q 2978 -1381 1966 -1381 
Q 1638 -1381 1331 -1331 
Q 1025 -1281 716 -1178 
L 716 -306 
Q 1009 -475 1290 -558 
Q 1572 -641 1856 -641 
Q 2406 -641 2662 -400 
Q 2919 -159 2919 353 
L 2919 594 
z
M 2181 2772 
Q 1834 2772 1640 2515 
Q 1447 2259 1447 1791 
Q 1447 1309 1634 1061 
Q 1822 813 2181 813 
Q 2531 813 2725 1069 
Q 2919 1325 2919 1791 
Q 2919 2259 2725 2515 
Q 2531 2772 2181 2772 
z
" transform="scale(0.015625)"/>
       <path id="DejaVuSans-Bold-72" d="M 3138 2547 
Q 2991 2616 2845 2648 
Q 2700 2681 2553 2681 
Q 2122 2681 1889 2404 
Q 1656 2128 1656 1613 
L 1656 0 
L 538 0 
L 538 3500 
L 1656 3500 
L 1656 2925 
Q 1872 3269 2151 3426 
Q 2431 3584 2822 3584 
Q 2878 3584 2943 3579 
Q 3009 3575 3134 3559 
L 3138 2547 
z
" transform="scale(0.015625)"/>
       <path id="DejaVuSans-Bold-61" d="M 2106 1575 
Q 1756 1575 1579 1456 
Q 1403 1338 1403 1106 
Q 1403 894 1545 773 
Q 1688 653 1941 653 
Q 2256 653 2472 879 
Q 2688 1106 2688 1447 
L 2688 1575 
L 2106 1575 
z
M 3816 1997 
L 3816 0 
L 2688 0 
L 2688 519 
Q 2463 200 2181 54 
Q 1900 -91 1497 -91 
Q 953 -91 614 226 
Q 275 544 275 1050 
Q 275 1666 698 1953 
Q 1122 2241 2028 2241 
L 2688 2241 
L 2688 2328 
Q 2688 2594 2478 2717 
Q 2269 2841 1825 2841 
Q 1466 2841 1156 2769 
Q 847 2697 581 2553 
L 581 3406 
Q 941 3494 1303 3539 
Q 1666 3584 2028 3584 
Q 2975 3584 3395 3211 
Q 3816 2838 3816 1997 
z
" transform="scale(0.015625)"/>
       <path id="DejaVuSans-Bold-6c" d="M 538 4863 
L 1656 4863 
L 1656 0 
L 538 0 
L 538 4863 
z
" transform="scale(0.015625)"/>
      </defs>
      <use xlink:href="#DejaVuSans-Bold-69"/>
      <use xlink:href="#DejaVuSans-Bold-6e" transform="translate(34.277344 0)"/>
      <use xlink:href="#DejaVuSans-Bold-74" transform="translate(105.46875 0)"/>
      <use xlink:href="#DejaVuSans-Bold-65" transform="translate(153.271484 0)"/>
      <use xlink:href="#DejaVuSans-Bold-67" transform="translate(221.09375 0)"/>
      <use xlink:href="#DejaVuSans-Bold-72" transform="translate(292.675781 0)"/>
      <use xlink:href="#DejaVuSans-Bold-61" transform="translate(341.992188 0)"/>
      <use xlink:href="#DejaVuSans-Bold-6c" transform="translate(409.472656 0)"/>
      <use xlink:href="#DejaVuSans-Bold-65" transform="translate(443.75 0)"/>
     </g>
    </g>
    <g id="patch_3">
     <path d="M 177.474269 139.816024 
L 285.398302 139.816024 
L 285.398302 105.378 
L 177.474269 105.378 
z
" style="fill: #ffffff; stroke: #000000; stroke-width: 0.75; stroke-linejoin: miter"/>
    </g>
    <g id="text_2">
     <!-- Ref. [1] -->
     <g transform="translate(206.439723 125.908262) scale(0.12 -0.12)">
      <defs>
       <path id="DejaVuSans-Bold-52" d="M 2297 2597 
Q 2675 2597 2839 2737 
Q 3003 2878 3003 3200 
Q 3003 3519 2839 3656 
Q 2675 3794 2297 3794 
L 1791 3794 
L 1791 2597 
L 2297 2597 
z
M 1791 1766 
L 1791 0 
L 588 0 
L 588 4666 
L 2425 4666 
Q 3347 4666 3776 4356 
Q 4206 4047 4206 3378 
Q 4206 2916 3982 2619 
Q 3759 2322 3309 2181 
Q 3556 2125 3751 1926 
Q 3947 1728 4147 1325 
L 4800 0 
L 3519 0 
L 2950 1159 
Q 2778 1509 2601 1637 
Q 2425 1766 2131 1766 
L 1791 1766 
z
" transform="scale(0.015625)"/>
       <path id="DejaVuSans-Bold-66" d="M 2841 4863 
L 2841 4128 
L 2222 4128 
Q 1984 4128 1890 4042 
Q 1797 3956 1797 3744 
L 1797 3500 
L 2753 3500 
L 2753 2700 
L 1797 2700 
L 1797 0 
L 678 0 
L 678 2700 
L 122 2700 
L 122 3500 
L 678 3500 
L 678 3744 
Q 678 4316 997 4589 
Q 1316 4863 1984 4863 
L 2841 4863 
z
" transform="scale(0.015625)"/>
       <path id="DejaVuSans-Bold-2e" d="M 653 1209 
L 1778 1209 
L 1778 0 
L 653 0 
L 653 1209 
z
" transform="scale(0.015625)"/>
       <path id="DejaVuSans-Bold-20" transform="scale(0.015625)"/>
       <path id="DejaVuSans-Bold-5b" d="M 550 4863 
L 2491 4863 
L 2491 4159 
L 1613 4159 
L 1613 -141 
L 2491 -141 
L 2491 -844 
L 550 -844 
L 550 4863 
z
" transform="scale(0.015625)"/>
       <path id="DejaVuSans-Bold-31" d="M 750 831 
L 1813 831 
L 1813 3847 
L 722 3622 
L 722 4441 
L 1806 4666 
L 2950 4666 
L 2950 831 
L 4013 831 
L 4013 0 
L 750 0 
L 750 831 
z
" transform="scale(0.015625)"/>
       <path id="DejaVuSans-Bold-5d" d="M 2375 -844 
L 434 -844 
L 434 -141 
L 1313 -141 
L 1313 4159 
L 434 4159 
L 434 4863 
L 2375 4863 
L 2375 -844 
z
" transform="scale(0.015625)"/>
      </defs>
      <use xlink:href="#DejaVuSans-Bold-52"/>
      <use xlink:href="#DejaVuSans-Bold-65" transform="translate(77.001953 0)"/>
      <use xlink:href="#DejaVuSans-Bold-66" transform="translate(144.824219 0)"/>
      <use xlink:href="#DejaVuSans-Bold-2e" transform="translate(182.830078 0)"/>
      <use xlink:href="#DejaVuSans-Bold-20" transform="translate(220.818359 0)"/>
      <use xlink:href="#DejaVuSans-Bold-5b" transform="translate(255.632812 0)"/>
      <use xlink:href="#DejaVuSans-Bold-31" transform="translate(301.335938 0)"/>
      <use xlink:href="#DejaVuSans-Bold-5d" transform="translate(370.916016 0)"/>
     </g>
    </g>
    <g id="patch_4">
     <path d="M 285.398302 139.816024 
L 393.322335 139.816024 
L 393.322335 105.378 
L 285.398302 105.378 
z
" style="fill: #ffffff; stroke: #000000; stroke-width: 0.75; stroke-linejoin: miter"/>
    </g>
    <g id="text_3">
     <!-- Ref. [2] -->
     <g transform="translate(314.363756 125.908262) scale(0.12 -0.12)">
      <defs>
       <path id="DejaVuSans-Bold-32" d="M 1844 884 
L 3897 884 
L 3897 0 
L 506 0 
L 506 884 
L 2209 2388 
Q 2438 2594 2547 2791 
Q 2656 2988 2656 3200 
Q 2656 3528 2436 3728 
Q 2216 3928 1850 3928 
Q 1569 3928 1234 3808 
Q 900 3688 519 3450 
L 519 4475 
Q 925 4609 1322 4679 
Q 1719 4750 2100 4750 
Q 2938 4750 3402 4381 
Q 3866 4013 3866 3353 
Q 3866 2972 3669 2642 
Q 3472 2313 2841 1759 
L 1844 884 
z
" transform="scale(0.015625)"/>
      </defs>
      <use xlink:href="#DejaVuSans-Bold-52"/>
      <use xlink:href="#DejaVuSans-Bold-65" transform="translate(77.001953 0)"/>
      <use xlink:href="#DejaVuSans-Bold-66" transform="translate(144.824219 0)"/>
      <use xlink:href="#DejaVuSans-Bold-2e" transform="translate(182.830078 0)"/>
      <use xlink:href="#DejaVuSans-Bold-20" transform="translate(220.818359 0)"/>
      <use xlink:href="#DejaVuSans-Bold-5b" transform="translate(255.632812 0)"/>
      <use xlink:href="#DejaVuSans-Bold-32" transform="translate(301.335938 0)"/>
      <use xlink:href="#DejaVuSans-Bold-5d" transform="translate(370.916016 0)"/>
     </g>
    </g>
    <g id="patch_5">
     <path d="M 393.322335 139.816024 
L 501.246367 139.816024 
L 501.246367 105.378 
L 393.322335 105.378 
z
" style="fill: #ffffff; stroke: #000000; stroke-width: 0.75; stroke-linejoin: miter"/>
    </g>
    <g id="text_4">
     <!-- Ref. [3] -->
     <g transform="translate(422.287789 125.908262) scale(0.12 -0.12)">
      <defs>
       <path id="DejaVuSans-Bold-33" d="M 2981 2516 
Q 3453 2394 3698 2092 
Q 3944 1791 3944 1325 
Q 3944 631 3412 270 
Q 2881 -91 1863 -91 
Q 1503 -91 1142 -33 
Q 781 25 428 141 
L 428 1069 
Q 766 900 1098 814 
Q 1431 728 1753 728 
Q 2231 728 2486 893 
Q 2741 1059 2741 1369 
Q 2741 1688 2480 1852 
Q 2219 2016 1709 2016 
L 1228 2016 
L 1228 2791 
L 1734 2791 
Q 2188 2791 2409 2933 
Q 2631 3075 2631 3366 
Q 2631 3634 2415 3781 
Q 2200 3928 1806 3928 
Q 1516 3928 1219 3862 
Q 922 3797 628 3669 
L 628 4550 
Q 984 4650 1334 4700 
Q 1684 4750 2022 4750 
Q 2931 4750 3382 4451 
Q 3834 4153 3834 3553 
Q 3834 3144 3618 2883 
Q 3403 2622 2981 2516 
z
" transform="scale(0.015625)"/>
      </defs>
      <use xlink:href="#DejaVuSans-Bold-52"/>
      <use xlink:href="#DejaVuSans-Bold-65" transform="translate(77.001953 0)"/>
      <use xlink:href="#DejaVuSans-Bold-66" transform="translate(144.824219 0)"/>
      <use xlink:href="#DejaVuSans-Bold-2e" transform="translate(182.830078 0)"/>
      <use xlink:href="#DejaVuSans-Bold-20" transform="translate(220.818359 0)"/>
      <use xlink:href="#DejaVuSans-Bold-5b" transform="translate(255.632812 0)"/>
      <use xlink:href="#DejaVuSans-Bold-33" transform="translate(301.335938 0)"/>
      <use xlink:href="#DejaVuSans-Bold-5d" transform="translate(370.916016 0)"/>
     </g>
    </g>
    <g id="patch_6">
     <path d="M 501.246367 139.816024 
L 609.1704 139.816024 
L 609.1704 105.378 
L 501.246367 105.378 
z
" style="fill: #ffffff; stroke: #000000; stroke-width: 0.75; stroke-linejoin: miter"/>
    </g>
    <g id="text_5">
     <!-- Ref. [4] -->
     <g transform="translate(530.211821 125.908262) scale(0.12 -0.12)">
      <defs>
       <path id="DejaVuSans-Bold-34" d="M 2356 3675 
L 1038 1722 
L 2356 1722 
L 2356 3675 
z
M 2156 4666 
L 3494 4666 
L 3494 1722 
L 4159 1722 
L 4159 850 
L 3494 850 
L 3494 0 
L 2356 0 
L 2356 850 
L 288 850 
L 288 1881 
L 2156 4666 
z
" transform="scale(0.015625)"/>
      </defs>
      <use xlink:href="#DejaVuSans-Bold-52"/>
      <use xlink:href="#DejaVuSans-Bold-65" transform="translate(77.001953 0)"/>
      <use xlink:href="#DejaVuSans-Bold-66" transform="translate(144.824219 0)"/>
      <use xlink:href="#DejaVuSans-Bold-2e" transform="translate(182.830078 0)"/>
      <use xlink:href="#DejaVuSans-Bold-20" transform="translate(220.818359 0)"/>
      <use xlink:href="#DejaVuSans-Bold-5b" transform="translate(255.632812 0)"/>
      <use xlink:href="#DejaVuSans-Bold-34" transform="translate(301.335938 0)"/>
      <use xlink:href="#DejaVuSans-Bold-5d" transform="translate(370.916016 0)"/>
     </g>
    </g>
    <g id="patch_7">
     <path d="M 52.5096 169.557953 
L 177.474269 169.557953 
L 177.474269 139.816024 
L 52.5096 139.816024 
z
" style="fill: #ffffff; stroke: #000000; stroke-width: 0.75; stroke-linejoin: miter"/>
    </g>
    <g id="text_6">
     <!-- $\varepsilon_s$ -->
     <g transform="translate(109.351935 157.998238) scale(0.12 -0.12)">
      <defs>
       <path id="DejaVuSans-Oblique-3b5" d="M 1263 1888 
Q 925 1963 778 2166 
Q 669 2309 669 2503 
Q 669 3034 1175 3344 
Q 1575 3588 2188 3588 
Q 2425 3588 2684 3550 
Q 2944 3513 3234 3438 
L 3134 2916 
Q 2847 3006 2606 3047 
Q 2359 3088 2138 3088 
Q 1766 3088 1522 2944 
Q 1228 2772 1228 2522 
Q 1228 2356 1381 2241 
Q 1563 2103 1925 2103 
L 2409 2103 
L 2319 1628 
L 1856 1628 
Q 1425 1628 1172 1469 
Q 828 1253 828 916 
Q 828 703 1013 563 
Q 1244 388 1716 388 
Q 2006 388 2284 444 
Q 2563 503 2806 619 
L 2700 84 
Q 2403 -3 2131 -47 
Q 1859 -91 1609 -91 
Q 866 -91 516 194 
Q 250 413 250 781 
Q 250 1278 600 1584 
Q 859 1813 1263 1888 
z
" transform="scale(0.015625)"/>
       <path id="DejaVuSans-Oblique-73" d="M 3200 3397 
L 3091 2853 
Q 2863 2978 2609 3040 
Q 2356 3103 2088 3103 
Q 1634 3103 1373 2948 
Q 1113 2794 1113 2528 
Q 1113 2219 1719 2053 
Q 1766 2041 1788 2034 
L 1972 1978 
Q 2547 1819 2739 1644 
Q 2931 1469 2931 1166 
Q 2931 609 2489 259 
Q 2047 -91 1331 -91 
Q 1053 -91 747 -37 
Q 441 16 72 128 
L 184 722 
Q 500 559 806 475 
Q 1113 391 1394 391 
Q 1816 391 2080 572 
Q 2344 753 2344 1031 
Q 2344 1331 1650 1516 
L 1591 1531 
L 1394 1581 
Q 956 1697 753 1886 
Q 550 2075 550 2369 
Q 550 2928 970 3256 
Q 1391 3584 2113 3584 
Q 2397 3584 2667 3537 
Q 2938 3491 3200 3397 
z
" transform="scale(0.015625)"/>
      </defs>
      <use xlink:href="#DejaVuSans-Oblique-3b5" transform="translate(0 0.9375)"/>
      <use xlink:href="#DejaVuSans-Oblique-73" transform="translate(54.052734 -15.46875) scale(0.7)"/>
     </g>
    </g>
    <g id="patch_8">
     <path d="M 177.474269 169.557953 
L 285.398302 169.557953 
L 285.398302 139.816024 
L 177.474269 139.816024 
z
" style="fill: #ffffff; stroke: #000000; stroke-width: 0.75; stroke-linejoin: miter"/>
    </g>
    <g id="text_7">
     <!-- −5.250 -->
     <g transform="translate(209.231598 157.998238) scale(0.12 -0.12)">
      <defs>
       <path id="DejaVuSans-2212" d="M 678 2272 
L 4684 2272 
L 4684 1741 
L 678 1741 
L 678 2272 
z
" transform="scale(0.015625)"/>
       <path id="DejaVuSans-35" d="M 691 4666 
L 3169 4666 
L 3169 4134 
L 1269 4134 
L 1269 2991 
Q 1406 3038 1543 3061 
Q 1681 3084 1819 3084 
Q 2600 3084 3056 2656 
Q 3513 2228 3513 1497 
Q 3513 744 3044 326 
Q 2575 -91 1722 -91 
Q 1428 -91 1123 -41 
Q 819 9 494 109 
L 494 744 
Q 775 591 1075 516 
Q 1375 441 1709 441 
Q 2250 441 2565 725 
Q 2881 1009 2881 1497 
Q 2881 1984 2565 2268 
Q 2250 2553 1709 2553 
Q 1456 2553 1204 2497 
Q 953 2441 691 2322 
L 691 4666 
z
" transform="scale(0.015625)"/>
       <path id="DejaVuSans-2e" d="M 684 794 
L 1344 794 
L 1344 0 
L 684 0 
L 684 794 
z
" transform="scale(0.015625)"/>
       <path id="DejaVuSans-32" d="M 1228 531 
L 3431 531 
L 3431 0 
L 469 0 
L 469 531 
Q 828 903 1448 1529 
Q 2069 2156 2228 2338 
Q 2531 2678 2651 2914 
Q 2772 3150 2772 3378 
Q 2772 3750 2511 3984 
Q 2250 4219 1831 4219 
Q 1534 4219 1204 4116 
Q 875 4013 500 3803 
L 500 4441 
Q 881 4594 1212 4672 
Q 1544 4750 1819 4750 
Q 2544 4750 2975 4387 
Q 3406 4025 3406 3419 
Q 3406 3131 3298 2873 
Q 3191 2616 2906 2266 
Q 2828 2175 2409 1742 
Q 1991 1309 1228 531 
z
" transform="scale(0.015625)"/>
       <path id="DejaVuSans-30" d="M 2034 4250 
Q 1547 4250 1301 3770 
Q 1056 3291 1056 2328 
Q 1056 1369 1301 889 
Q 1547 409 2034 409 
Q 2525 409 2770 889 
Q 3016 1369 3016 2328 
Q 3016 3291 2770 3770 
Q 2525 4250 2034 4250 
z
M 2034 4750 
Q 2819 4750 3233 4129 
Q 3647 3509 3647 2328 
Q 3647 1150 3233 529 
Q 2819 -91 2034 -91 
Q 1250 -91 836 529 
Q 422 1150 422 2328 
Q 422 3509 836 4129 
Q 1250 4750 2034 4750 
z
" transform="scale(0.015625)"/>
      </defs>
      <use xlink:href="#DejaVuSans-2212"/>
      <use xlink:href="#DejaVuSans-35" transform="translate(83.789062 0)"/>
      <use xlink:href="#DejaVuSans-2e" transform="translate(147.412109 0)"/>
      <use xlink:href="#DejaVuSans-32" transform="translate(179.199219 0)"/>
      <use xlink:href="#DejaVuSans-35" transform="translate(242.822266 0)"/>
      <use xlink:href="#DejaVuSans-30" transform="translate(306.445312 0)"/>
     </g>
    </g>
    <g id="patch_9">
     <path d="M 285.398302 169.557953 
L 393.322335 169.557953 
L 393.322335 139.816024 
L 285.398302 139.816024 
z
" style="fill: #ffffff; stroke: #000000; stroke-width: 0.75; stroke-linejoin: miter"/>
    </g>
    <g id="text_8">
     <!-- −6.535 -->
     <g transform="translate(317.155631 157.998238) scale(0.12 -0.12)">
      <defs>
       <path id="DejaVuSans-36" d="M 2113 2584 
Q 1688 2584 1439 2293 
Q 1191 2003 1191 1497 
Q 1191 994 1439 701 
Q 1688 409 2113 409 
Q 2538 409 2786 701 
Q 3034 994 3034 1497 
Q 3034 2003 2786 2293 
Q 2538 2584 2113 2584 
z
M 3366 4563 
L 3366 3988 
Q 3128 4100 2886 4159 
Q 2644 4219 2406 4219 
Q 1781 4219 1451 3797 
Q 1122 3375 1075 2522 
Q 1259 2794 1537 2939 
Q 1816 3084 2150 3084 
Q 2853 3084 3261 2657 
Q 3669 2231 3669 1497 
Q 3669 778 3244 343 
Q 2819 -91 2113 -91 
Q 1303 -91 875 529 
Q 447 1150 447 2328 
Q 447 3434 972 4092 
Q 1497 4750 2381 4750 
Q 2619 4750 2861 4703 
Q 3103 4656 3366 4563 
z
" transform="scale(0.015625)"/>
       <path id="DejaVuSans-33" d="M 2597 2516 
Q 3050 2419 3304 2112 
Q 3559 1806 3559 1356 
Q 3559 666 3084 287 
Q 2609 -91 1734 -91 
Q 1441 -91 1130 -33 
Q 819 25 488 141 
L 488 750 
Q 750 597 1062 519 
Q 1375 441 1716 441 
Q 2309 441 2620 675 
Q 2931 909 2931 1356 
Q 2931 1769 2642 2001 
Q 2353 2234 1838 2234 
L 1294 2234 
L 1294 2753 
L 1863 2753 
Q 2328 2753 2575 2939 
Q 2822 3125 2822 3475 
Q 2822 3834 2567 4026 
Q 2313 4219 1838 4219 
Q 1578 4219 1281 4162 
Q 984 4106 628 3988 
L 628 4550 
Q 988 4650 1302 4700 
Q 1616 4750 1894 4750 
Q 2613 4750 3031 4423 
Q 3450 4097 3450 3541 
Q 3450 3153 3228 2886 
Q 3006 2619 2597 2516 
z
" transform="scale(0.015625)"/>
      </defs>
      <use xlink:href="#DejaVuSans-2212"/>
      <use xlink:href="#DejaVuSans-36" transform="translate(83.789062 0)"/>
      <use xlink:href="#DejaVuSans-2e" transform="translate(147.412109 0)"/>
      <use xlink:href="#DejaVuSans-35" transform="translate(179.199219 0)"/>
      <use xlink:href="#DejaVuSans-33" transform="translate(242.822266 0)"/>
      <use xlink:href="#DejaVuSans-35" transform="translate(306.445312 0)"/>
     </g>
    </g>
    <g id="patch_10">
     <path d="M 393.322335 169.557953 
L 501.246367 169.557953 
L 501.246367 139.816024 
L 393.322335 139.816024 
z
" style="fill: #ffffff; stroke: #000000; stroke-width: 0.75; stroke-linejoin: miter"/>
    </g>
    <g id="text_9">
     <!-- −5.200 -->
     <g transform="translate(425.079664 157.998238) scale(0.12 -0.12)">
      <use xlink:href="#DejaVuSans-2212"/>
      <use xlink:href="#DejaVuSans-35" transform="translate(83.789062 0)"/>
      <use xlink:href="#DejaVuSans-2e" transform="translate(147.412109 0)"/>
      <use xlink:href="#DejaVuSans-32" transform="translate(179.199219 0)"/>
      <use xlink:href="#DejaVuSans-30" transform="translate(242.822266 0)"/>
      <use xlink:href="#DejaVuSans-30" transform="translate(306.445312 0)"/>
     </g>
    </g>
    <g id="patch_11">
     <path d="M 501.246367 169.557953 
L 609.1704 169.557953 
L 609.1704 139.816024 
L 501.246367 139.816024 
z
" style="fill: #ffffff; stroke: #000000; stroke-width: 0.75; stroke-linejoin: miter"/>
    </g>
    <g id="text_10">
     <!-- −4.478 -->
     <g transform="translate(533.003696 157.998238) scale(0.12 -0.12)">
      <defs>
       <path id="DejaVuSans-34" d="M 2419 4116 
L 825 1625 
L 2419 1625 
L 2419 4116 
z
M 2253 4666 
L 3047 4666 
L 3047 1625 
L 3713 1625 
L 3713 1100 
L 3047 1100 
L 3047 0 
L 2419 0 
L 2419 1100 
L 313 1100 
L 313 1709 
L 2253 4666 
z
" transform="scale(0.015625)"/>
       <path id="DejaVuSans-37" d="M 525 4666 
L 3525 4666 
L 3525 4397 
L 1831 0 
L 1172 0 
L 2766 4134 
L 525 4134 
L 525 4666 
z
" transform="scale(0.015625)"/>
       <path id="DejaVuSans-38" d="M 2034 2216 
Q 1584 2216 1326 1975 
Q 1069 1734 1069 1313 
Q 1069 891 1326 650 
Q 1584 409 2034 409 
Q 2484 409 2743 651 
Q 3003 894 3003 1313 
Q 3003 1734 2745 1975 
Q 2488 2216 2034 2216 
z
M 1403 2484 
Q 997 2584 770 2862 
Q 544 3141 544 3541 
Q 544 4100 942 4425 
Q 1341 4750 2034 4750 
Q 2731 4750 3128 4425 
Q 3525 4100 3525 3541 
Q 3525 3141 3298 2862 
Q 3072 2584 2669 2484 
Q 3125 2378 3379 2068 
Q 3634 1759 3634 1313 
Q 3634 634 3220 271 
Q 2806 -91 2034 -91 
Q 1263 -91 848 271 
Q 434 634 434 1313 
Q 434 1759 690 2068 
Q 947 2378 1403 2484 
z
M 1172 3481 
Q 1172 3119 1398 2916 
Q 1625 2713 2034 2713 
Q 2441 2713 2670 2916 
Q 2900 3119 2900 3481 
Q 2900 3844 2670 4047 
Q 2441 4250 2034 4250 
Q 1625 4250 1398 4047 
Q 1172 3844 1172 3481 
z
" transform="scale(0.015625)"/>
      </defs>
      <use xlink:href="#DejaVuSans-2212"/>
      <use xlink:href="#DejaVuSans-34" transform="translate(83.789062 0)"/>
      <use xlink:href="#DejaVuSans-2e" transform="translate(147.412109 0)"/>
      <use xlink:href="#DejaVuSans-34" transform="translate(179.199219 0)"/>
      <use xlink:href="#DejaVuSans-37" transform="translate(242.822266 0)"/>
      <use xlink:href="#DejaVuSans-38" transform="translate(306.445312 0)"/>
     </g>
    </g>
    <g id="patch_12">
     <path d="M 52.5096 199.299882 
L 177.474269 199.299882 
L 177.474269 169.557953 
L 52.5096 169.557953 
z
" style="fill: #ffffff; stroke: #000000; stroke-width: 0.75; stroke-linejoin: miter"/>
    </g>
    <g id="text_11">
     <!-- $\varepsilon_p$ -->
     <g transform="translate(108.871935 186.515793) scale(0.12 -0.12)">
      <defs>
       <path id="DejaVuSans-Oblique-70" d="M 3175 2156 
Q 3175 2616 2975 2859 
Q 2775 3103 2400 3103 
Q 2144 3103 1911 2972 
Q 1678 2841 1497 2591 
Q 1319 2344 1212 1994 
Q 1106 1644 1106 1300 
Q 1106 863 1306 627 
Q 1506 391 1875 391 
Q 2147 391 2380 519 
Q 2613 647 2778 891 
Q 2956 1147 3065 1494 
Q 3175 1841 3175 2156 
z
M 1394 2969 
Q 1625 3272 1939 3428 
Q 2253 3584 2638 3584 
Q 3175 3584 3472 3232 
Q 3769 2881 3769 2247 
Q 3769 1728 3584 1258 
Q 3400 788 3053 416 
Q 2822 169 2531 39 
Q 2241 -91 1919 -91 
Q 1547 -91 1294 64 
Q 1041 219 916 525 
L 556 -1331 
L -19 -1331 
L 922 3500 
L 1497 3500 
L 1394 2969 
z
" transform="scale(0.015625)"/>
      </defs>
      <use xlink:href="#DejaVuSans-Oblique-3b5" transform="translate(0 0.9375)"/>
      <use xlink:href="#DejaVuSans-Oblique-70" transform="translate(54.052734 -15.46875) scale(0.7)"/>
     </g>
    </g>
    <g id="patch_13">
     <path d="M 177.474269 199.299882 
L 285.398302 199.299882 
L 285.398302 169.557953 
L 177.474269 169.557953 
z
" style="fill: #ffffff; stroke: #000000; stroke-width: 0.75; stroke-linejoin: miter"/>
    </g>
    <g id="text_12">
     <!-- +1.200 -->
     <g transform="translate(209.231598 187.740168) scale(0.12 -0.12)">
      <defs>
       <path id="DejaVuSans-2b" d="M 2944 4013 
L 2944 2272 
L 4684 2272 
L 4684 1741 
L 2944 1741 
L 2944 0 
L 2419 0 
L 2419 1741 
L 678 1741 
L 678 2272 
L 2419 2272 
L 2419 4013 
L 2944 4013 
z
" transform="scale(0.015625)"/>
       <path id="DejaVuSans-31" d="M 794 531 
L 1825 531 
L 1825 4091 
L 703 3866 
L 703 4441 
L 1819 4666 
L 2450 4666 
L 2450 531 
L 3481 531 
L 3481 0 
L 794 0 
L 794 531 
z
" transform="scale(0.015625)"/>
      </defs>
      <use xlink:href="#DejaVuSans-2b"/>
      <use xlink:href="#DejaVuSans-31" transform="translate(83.789062 0)"/>
      <use xlink:href="#DejaVuSans-2e" transform="translate(147.412109 0)"/>
      <use xlink:href="#DejaVuSans-32" transform="translate(179.199219 0)"/>
      <use xlink:href="#DejaVuSans-30" transform="translate(242.822266 0)"/>
      <use xlink:href="#DejaVuSans-30" transform="translate(306.445312 0)"/>
     </g>
    </g>
    <g id="patch_14">
     <path d="M 285.398302 199.299882 
L 393.322335 199.299882 
L 393.322335 169.557953 
L 285.398302 169.557953 
z
" style="fill: #ffffff; stroke: #000000; stroke-width: 0.75; stroke-linejoin: miter"/>
    </g>
    <g id="text_13">
     <!-- +1.760 -->
     <g transform="translate(317.155631 187.740168) scale(0.12 -0.12)">
      <use xlink:href="#DejaVuSans-2b"/>
      <use xlink:href="#DejaVuSans-31" transform="translate(83.789062 0)"/>
      <use xlink:href="#DejaVuSans-2e" transform="translate(147.412109 0)"/>
      <use xlink:href="#DejaVuSans-37" transform="translate(179.199219 0)"/>
      <use xlink:href="#DejaVuSans-36" transform="translate(242.822266 0)"/>
      <use xlink:href="#DejaVuSans-30" transform="translate(306.445312 0)"/>
     </g>
    </g>
    <g id="patch_15">
     <path d="M 393.322335 199.299882 
L 501.246367 199.299882 
L 501.246367 169.557953 
L 393.322335 169.557953 
z
" style="fill: #ffffff; stroke: #000000; stroke-width: 0.75; stroke-linejoin: miter"/>
    </g>
    <g id="text_14">
     <!-- +1.200 -->
     <g transform="translate(425.079664 187.740168) scale(0.12 -0.12)">
      <use xlink:href="#DejaVuSans-2b"/>
      <use xlink:href="#DejaVuSans-31" transform="translate(83.789062 0)"/>
      <use xlink:href="#DejaVuSans-2e" transform="translate(147.412109 0)"/>
      <use xlink:href="#DejaVuSans-32" transform="translate(179.199219 0)"/>
      <use xlink:href="#DejaVuSans-30" transform="translate(242.822266 0)"/>
      <use xlink:href="#DejaVuSans-30" transform="translate(306.445312 0)"/>
     </g>
    </g>
    <g id="patch_16">
     <path d="M 501.246367 199.299882 
L 609.1704 199.299882 
L 609.1704 169.557953 
L 501.246367 169.557953 
z
" style="fill: #ffffff; stroke: #000000; stroke-width: 0.75; stroke-linejoin: miter"/>
    </g>
    <g id="text_15">
     <!-- +2.552 -->
     <g transform="translate(533.003696 187.740168) scale(0.12 -0.12)">
      <use xlink:href="#DejaVuSans-2b"/>
      <use xlink:href="#DejaVuSans-32" transform="translate(83.789062 0)"/>
      <use xlink:href="#DejaVuSans-2e" transform="translate(147.412109 0)"/>
      <use xlink:href="#DejaVuSans-35" transform="translate(179.199219 0)"/>
      <use xlink:href="#DejaVuSans-35" transform="translate(242.822266 0)"/>
      <use xlink:href="#DejaVuSans-32" transform="translate(306.445312 0)"/>
     </g>
    </g>
    <g id="patch_17">
     <path d="M 52.5096 229.041812 
L 177.474269 229.041812 
L 177.474269 199.299882 
L 52.5096 199.299882 
z
" style="fill: #ffffff; stroke: #000000; stroke-width: 0.75; stroke-linejoin: miter"/>
    </g>
    <g id="text_16">
     <!-- $(ss\sigma)$ -->
     <g transform="translate(100.231935 217.482097) scale(0.12 -0.12)">
      <defs>
       <path id="DejaVuSans-28" d="M 1984 4856 
Q 1566 4138 1362 3434 
Q 1159 2731 1159 2009 
Q 1159 1288 1364 580 
Q 1569 -128 1984 -844 
L 1484 -844 
Q 1016 -109 783 600 
Q 550 1309 550 2009 
Q 550 2706 781 3412 
Q 1013 4119 1484 4856 
L 1984 4856 
z
" transform="scale(0.015625)"/>
       <path id="DejaVuSans-Oblique-3c3" d="M 2219 3044 
Q 1744 3044 1422 2700 
Q 1081 2341 969 1747 
Q 844 1119 1044 756 
Q 1241 397 1706 397 
Q 2166 397 2503 759 
Q 2844 1122 2966 1747 
Q 3075 2319 2881 2700 
Q 2700 3044 2219 3044 
z
M 2309 3503 
L 4219 3500 
L 4106 2925 
L 3463 2925 
Q 3706 2438 3575 1747 
Q 3406 888 2884 400 
Q 2359 -91 1609 -91 
Q 856 -91 525 400 
Q 194 888 363 1747 
Q 528 2609 1050 3097 
Q 1484 3503 2309 3503 
z
" transform="scale(0.015625)"/>
       <path id="DejaVuSans-29" d="M 513 4856 
L 1013 4856 
Q 1481 4119 1714 3412 
Q 1947 2706 1947 2009 
Q 1947 1309 1714 600 
Q 1481 -109 1013 -844 
L 513 -844 
Q 928 -128 1133 580 
Q 1338 1288 1338 2009 
Q 1338 2731 1133 3434 
Q 928 4138 513 4856 
z
" transform="scale(0.015625)"/>
      </defs>
      <use xlink:href="#DejaVuSans-28" transform="translate(0 0.125)"/>
      <use xlink:href="#DejaVuSans-Oblique-73" transform="translate(39.013672 0.125)"/>
      <use xlink:href="#DejaVuSans-Oblique-73" transform="translate(91.113281 0.125)"/>
      <use xlink:href="#DejaVuSans-Oblique-3c3" transform="translate(143.212891 0.125)"/>
      <use xlink:href="#DejaVuSans-29" transform="translate(206.591797 0.125)"/>
     </g>
    </g>
    <g id="patch_18">
     <path d="M 177.474269 229.041812 
L 285.398302 229.041812 
L 285.398302 199.299882 
L 177.474269 199.299882 
z
" style="fill: #ffffff; stroke: #000000; stroke-width: 0.75; stroke-linejoin: miter"/>
    </g>
    <g id="text_17">
     <!-- −2.038 -->
     <g transform="translate(209.231598 217.482097) scale(0.12 -0.12)">
      <use xlink:href="#DejaVuSans-2212"/>
      <use xlink:href="#DejaVuSans-32" transform="translate(83.789062 0)"/>
      <use xlink:href="#DejaVuSans-2e" transform="translate(147.412109 0)"/>
      <use xlink:href="#DejaVuSans-30" transform="translate(179.199219 0)"/>
      <use xlink:href="#DejaVuSans-33" transform="translate(242.822266 0)"/>
      <use xlink:href="#DejaVuSans-38" transform="translate(306.445312 0)"/>
     </g>
    </g>
    <g id="patch_19">
     <path d="M 285.398302 229.041812 
L 393.322335 229.041812 
L 393.322335 199.299882 
L 285.398302 199.299882 
z
" style="fill: #ffffff; stroke: #000000; stroke-width: 0.75; stroke-linejoin: miter"/>
    </g>
    <g id="text_18">
     <!-- −1.820 -->
     <g transform="translate(317.155631 217.482097) scale(0.12 -0.12)">
      <use xlink:href="#DejaVuSans-2212"/>
      <use xlink:href="#DejaVuSans-31" transform="translate(83.789062 0)"/>
      <use xlink:href="#DejaVuSans-2e" transform="translate(147.412109 0)"/>
      <use xlink:href="#DejaVuSans-38" transform="translate(179.199219 0)"/>
      <use xlink:href="#DejaVuSans-32" transform="translate(242.822266 0)"/>
      <use xlink:href="#DejaVuSans-30" transform="translate(306.445312 0)"/>
     </g>
    </g>
    <g id="patch_20">
     <path d="M 393.322335 229.041812 
L 501.246367 229.041812 
L 501.246367 199.299882 
L 393.322335 199.299882 
z
" style="fill: #ffffff; stroke: #000000; stroke-width: 0.75; stroke-linejoin: miter"/>
    </g>
    <g id="text_19">
     <!-- −1.940 -->
     <g transform="translate(425.079664 217.482097) scale(0.12 -0.12)">
      <defs>
       <path id="DejaVuSans-39" d="M 703 97 
L 703 672 
Q 941 559 1184 500 
Q 1428 441 1663 441 
Q 2288 441 2617 861 
Q 2947 1281 2994 2138 
Q 2813 1869 2534 1725 
Q 2256 1581 1919 1581 
Q 1219 1581 811 2004 
Q 403 2428 403 3163 
Q 403 3881 828 4315 
Q 1253 4750 1959 4750 
Q 2769 4750 3195 4129 
Q 3622 3509 3622 2328 
Q 3622 1225 3098 567 
Q 2575 -91 1691 -91 
Q 1453 -91 1209 -44 
Q 966 3 703 97 
z
M 1959 2075 
Q 2384 2075 2632 2365 
Q 2881 2656 2881 3163 
Q 2881 3666 2632 3958 
Q 2384 4250 1959 4250 
Q 1534 4250 1286 3958 
Q 1038 3666 1038 3163 
Q 1038 2656 1286 2365 
Q 1534 2075 1959 2075 
z
" transform="scale(0.015625)"/>
      </defs>
      <use xlink:href="#DejaVuSans-2212"/>
      <use xlink:href="#DejaVuSans-31" transform="translate(83.789062 0)"/>
      <use xlink:href="#DejaVuSans-2e" transform="translate(147.412109 0)"/>
      <use xlink:href="#DejaVuSans-39" transform="translate(179.199219 0)"/>
      <use xlink:href="#DejaVuSans-34" transform="translate(242.822266 0)"/>
      <use xlink:href="#DejaVuSans-30" transform="translate(306.445312 0)"/>
     </g>
    </g>
    <g id="patch_21">
     <path d="M 501.246367 229.041812 
L 609.1704 229.041812 
L 609.1704 199.299882 
L 501.246367 199.299882 
z
" style="fill: #ffffff; stroke: #000000; stroke-width: 0.75; stroke-linejoin: miter"/>
    </g>
    <g id="text_20">
     <!-- −1.913 -->
     <g transform="translate(533.003696 217.482097) scale(0.12 -0.12)">
      <use xlink:href="#DejaVuSans-2212"/>
      <use xlink:href="#DejaVuSans-31" transform="translate(83.789062 0)"/>
      <use xlink:href="#DejaVuSans-2e" transform="translate(147.412109 0)"/>
      <use xlink:href="#DejaVuSans-39" transform="translate(179.199219 0)"/>
      <use xlink:href="#DejaVuSans-31" transform="translate(242.822266 0)"/>
      <use xlink:href="#DejaVuSans-33" transform="translate(306.445312 0)"/>
     </g>
    </g>
    <g id="patch_22">
     <path d="M 52.5096 258.783741 
L 177.474269 258.783741 
L 177.474269 229.041812 
L 52.5096 229.041812 
z
" style="fill: #ffffff; stroke: #000000; stroke-width: 0.75; stroke-linejoin: miter"/>
    </g>
    <g id="text_21">
     <!-- $(sp\sigma)$ -->
     <g transform="translate(99.571935 247.212776) scale(0.12 -0.12)">
      <use xlink:href="#DejaVuSans-28" transform="translate(0 0.125)"/>
      <use xlink:href="#DejaVuSans-Oblique-73" transform="translate(39.013672 0.125)"/>
      <use xlink:href="#DejaVuSans-Oblique-70" transform="translate(91.113281 0.125)"/>
      <use xlink:href="#DejaVuSans-Oblique-3c3" transform="translate(154.589844 0.125)"/>
      <use xlink:href="#DejaVuSans-29" transform="translate(217.96875 0.125)"/>
     </g>
    </g>
    <g id="patch_23">
     <path d="M 177.474269 258.783741 
L 285.398302 258.783741 
L 285.398302 229.041812 
L 177.474269 229.041812 
z
" style="fill: #ffffff; stroke: #000000; stroke-width: 0.75; stroke-linejoin: miter"/>
    </g>
    <g id="text_22">
     <!-- +1.745 -->
     <g transform="translate(209.231598 247.224026) scale(0.12 -0.12)">
      <use xlink:href="#DejaVuSans-2b"/>
      <use xlink:href="#DejaVuSans-31" transform="translate(83.789062 0)"/>
      <use xlink:href="#DejaVuSans-2e" transform="translate(147.412109 0)"/>
      <use xlink:href="#DejaVuSans-37" transform="translate(179.199219 0)"/>
      <use xlink:href="#DejaVuSans-34" transform="translate(242.822266 0)"/>
      <use xlink:href="#DejaVuSans-35" transform="translate(306.445312 0)"/>
     </g>
    </g>
    <g id="patch_24">
     <path d="M 285.398302 258.783741 
L 393.322335 258.783741 
L 393.322335 229.041812 
L 285.398302 229.041812 
z
" style="fill: #ffffff; stroke: #000000; stroke-width: 0.75; stroke-linejoin: miter"/>
    </g>
    <g id="text_23">
     <!-- +1.960 -->
     <g transform="translate(317.155631 247.224026) scale(0.12 -0.12)">
      <use xlink:href="#DejaVuSans-2b"/>
      <use xlink:href="#DejaVuSans-31" transform="translate(83.789062 0)"/>
      <use xlink:href="#DejaVuSans-2e" transform="translate(147.412109 0)"/>
      <use xlink:href="#DejaVuSans-39" transform="translate(179.199219 0)"/>
      <use xlink:href="#DejaVuSans-36" transform="translate(242.822266 0)"/>
      <use xlink:href="#DejaVuSans-30" transform="translate(306.445312 0)"/>
     </g>
    </g>
    <g id="patch_25">
     <path d="M 393.322335 258.783741 
L 501.246367 258.783741 
L 501.246367 229.041812 
L 393.322335 229.041812 
z
" style="fill: #ffffff; stroke: #000000; stroke-width: 0.75; stroke-linejoin: miter"/>
    </g>
    <g id="text_24">
     <!-- +1.750 -->
     <g transform="translate(425.079664 247.224026) scale(0.12 -0.12)">
      <use xlink:href="#DejaVuSans-2b"/>
      <use xlink:href="#DejaVuSans-31" transform="translate(83.789062 0)"/>
      <use xlink:href="#DejaVuSans-2e" transform="translate(147.412109 0)"/>
      <use xlink:href="#DejaVuSans-37" transform="translate(179.199219 0)"/>
      <use xlink:href="#DejaVuSans-35" transform="translate(242.822266 0)"/>
      <use xlink:href="#DejaVuSans-30" transform="translate(306.445312 0)"/>
     </g>
    </g>
    <g id="patch_26">
     <path d="M 501.246367 258.783741 
L 609.1704 258.783741 
L 609.1704 229.041812 
L 501.246367 229.041812 
z
" style="fill: #ffffff; stroke: #000000; stroke-width: 0.75; stroke-linejoin: miter"/>
    </g>
    <g id="text_25">
     <!-- +2.594 -->
     <g transform="translate(533.003696 247.224026) scale(0.12 -0.12)">
      <use xlink:href="#DejaVuSans-2b"/>
      <use xlink:href="#DejaVuSans-32" transform="translate(83.789062 0)"/>
      <use xlink:href="#DejaVuSans-2e" transform="translate(147.412109 0)"/>
      <use xlink:href="#DejaVuSans-35" transform="translate(179.199219 0)"/>
      <use xlink:href="#DejaVuSans-39" transform="translate(242.822266 0)"/>
      <use xlink:href="#DejaVuSans-34" transform="translate(306.445312 0)"/>
     </g>
    </g>
    <g id="patch_27">
     <path d="M 52.5096 288.525671 
L 177.474269 288.525671 
L 177.474269 258.783741 
L 52.5096 258.783741 
z
" style="fill: #ffffff; stroke: #000000; stroke-width: 0.75; stroke-linejoin: miter"/>
    </g>
    <g id="text_26">
     <!-- $(pp\sigma)$ -->
     <g transform="translate(98.851935 276.954706) scale(0.12 -0.12)">
      <use xlink:href="#DejaVuSans-28" transform="translate(0 0.125)"/>
      <use xlink:href="#DejaVuSans-Oblique-70" transform="translate(39.013672 0.125)"/>
      <use xlink:href="#DejaVuSans-Oblique-70" transform="translate(102.490234 0.125)"/>
      <use xlink:href="#DejaVuSans-Oblique-3c3" transform="translate(165.966797 0.125)"/>
      <use xlink:href="#DejaVuSans-29" transform="translate(229.345703 0.125)"/>
     </g>
    </g>
    <g id="patch_28">
     <path d="M 177.474269 288.525671 
L 285.398302 288.525671 
L 285.398302 258.783741 
L 177.474269 258.783741 
z
" style="fill: #ffffff; stroke: #000000; stroke-width: 0.75; stroke-linejoin: miter"/>
    </g>
    <g id="text_27">
     <!-- +2.750 -->
     <g transform="translate(209.231598 276.965956) scale(0.12 -0.12)">
      <use xlink:href="#DejaVuSans-2b"/>
      <use xlink:href="#DejaVuSans-32" transform="translate(83.789062 0)"/>
      <use xlink:href="#DejaVuSans-2e" transform="translate(147.412109 0)"/>
      <use xlink:href="#DejaVuSans-37" transform="translate(179.199219 0)"/>
      <use xlink:href="#DejaVuSans-35" transform="translate(242.822266 0)"/>
      <use xlink:href="#DejaVuSans-30" transform="translate(306.445312 0)"/>
     </g>
    </g>
    <g id="patch_29">
     <path d="M 285.398302 288.525671 
L 393.322335 288.525671 
L 393.322335 258.783741 
L 285.398302 258.783741 
z
" style="fill: #ffffff; stroke: #000000; stroke-width: 0.75; stroke-linejoin: miter"/>
    </g>
    <g id="text_28">
     <!-- +3.060 -->
     <g transform="translate(317.155631 276.965956) scale(0.12 -0.12)">
      <use xlink:href="#DejaVuSans-2b"/>
      <use xlink:href="#DejaVuSans-33" transform="translate(83.789062 0)"/>
      <use xlink:href="#DejaVuSans-2e" transform="translate(147.412109 0)"/>
      <use xlink:href="#DejaVuSans-30" transform="translate(179.199219 0)"/>
      <use xlink:href="#DejaVuSans-36" transform="translate(242.822266 0)"/>
      <use xlink:href="#DejaVuSans-30" transform="translate(306.445312 0)"/>
     </g>
    </g>
    <g id="patch_30">
     <path d="M 393.322335 288.525671 
L 501.246367 288.525671 
L 501.246367 258.783741 
L 393.322335 258.783741 
z
" style="fill: #ffffff; stroke: #000000; stroke-width: 0.75; stroke-linejoin: miter"/>
    </g>
    <g id="text_29">
     <!-- +3.050 -->
     <g transform="translate(425.079664 276.965956) scale(0.12 -0.12)">
      <use xlink:href="#DejaVuSans-2b"/>
      <use xlink:href="#DejaVuSans-33" transform="translate(83.789062 0)"/>
      <use xlink:href="#DejaVuSans-2e" transform="translate(147.412109 0)"/>
      <use xlink:href="#DejaVuSans-30" transform="translate(179.199219 0)"/>
      <use xlink:href="#DejaVuSans-35" transform="translate(242.822266 0)"/>
      <use xlink:href="#DejaVuSans-30" transform="translate(306.445312 0)"/>
     </g>
    </g>
    <g id="patch_31">
     <path d="M 501.246367 288.525671 
L 609.1704 288.525671 
L 609.1704 258.783741 
L 501.246367 258.783741 
z
" style="fill: #ffffff; stroke: #000000; stroke-width: 0.75; stroke-linejoin: miter"/>
    </g>
    <g id="text_30">
     <!-- +4.464 -->
     <g transform="translate(533.003696 276.965956) scale(0.12 -0.12)">
      <use xlink:href="#DejaVuSans-2b"/>
      <use xlink:href="#DejaVuSans-34" transform="translate(83.789062 0)"/>
      <use xlink:href="#DejaVuSans-2e" transform="translate(147.412109 0)"/>
      <use xlink:href="#DejaVuSans-34" transform="translate(179.199219 0)"/>
      <use xlink:href="#DejaVuSans-36" transform="translate(242.822266 0)"/>
      <use xlink:href="#DejaVuSans-34" transform="translate(306.445312 0)"/>
     </g>
    </g>
    <g id="patch_32">
     <path d="M 52.5096 318.2676 
L 177.474269 318.2676 
L 177.474269 288.525671 
L 52.5096 288.525671 
z
" style="fill: #ffffff; stroke: #000000; stroke-width: 0.75; stroke-linejoin: miter"/>
    </g>
    <g id="text_31">
     <!-- $(pp\pi)$ -->
     <g transform="translate(99.031935 306.696635) scale(0.12 -0.12)">
      <defs>
       <path id="DejaVuSans-Oblique-3c0" d="M 584 3500 
L 3938 3500 
L 3825 2925 
L 3384 2925 
L 2966 775 
Q 2922 550 2981 450 
Q 3038 353 3209 353 
Q 3256 353 3325 363 
Q 3397 369 3419 372 
L 3338 -44 
Q 3222 -84 3103 -103 
Q 2981 -122 2866 -122 
Q 2491 -122 2388 81 
Q 2284 288 2391 838 
L 2797 2925 
L 1506 2925 
L 938 0 
L 350 0 
L 919 2925 
L 472 2925 
L 584 3500 
z
" transform="scale(0.015625)"/>
      </defs>
      <use xlink:href="#DejaVuSans-28" transform="translate(0 0.125)"/>
      <use xlink:href="#DejaVuSans-Oblique-70" transform="translate(39.013672 0.125)"/>
      <use xlink:href="#DejaVuSans-Oblique-70" transform="translate(102.490234 0.125)"/>
      <use xlink:href="#DejaVuSans-Oblique-3c0" transform="translate(165.966797 0.125)"/>
      <use xlink:href="#DejaVuSans-29" transform="translate(226.171875 0.125)"/>
     </g>
    </g>
    <g id="patch_33">
     <path d="M 177.474269 318.2676 
L 285.398302 318.2676 
L 285.398302 288.525671 
L 177.474269 288.525671 
z
" style="fill: #ffffff; stroke: #000000; stroke-width: 0.75; stroke-linejoin: miter"/>
    </g>
    <g id="text_32">
     <!-- −1.075 -->
     <g transform="translate(209.231598 306.707885) scale(0.12 -0.12)">
      <use xlink:href="#DejaVuSans-2212"/>
      <use xlink:href="#DejaVuSans-31" transform="translate(83.789062 0)"/>
      <use xlink:href="#DejaVuSans-2e" transform="translate(147.412109 0)"/>
      <use xlink:href="#DejaVuSans-30" transform="translate(179.199219 0)"/>
      <use xlink:href="#DejaVuSans-37" transform="translate(242.822266 0)"/>
      <use xlink:href="#DejaVuSans-35" transform="translate(306.445312 0)"/>
     </g>
    </g>
    <g id="patch_34">
     <path d="M 285.398302 318.2676 
L 393.322335 318.2676 
L 393.322335 288.525671 
L 285.398302 288.525671 
z
" style="fill: #ffffff; stroke: #000000; stroke-width: 0.75; stroke-linejoin: miter"/>
    </g>
    <g id="text_33">
     <!-- −0.870 -->
     <g transform="translate(317.155631 306.707885) scale(0.12 -0.12)">
      <use xlink:href="#DejaVuSans-2212"/>
      <use xlink:href="#DejaVuSans-30" transform="translate(83.789062 0)"/>
      <use xlink:href="#DejaVuSans-2e" transform="translate(147.412109 0)"/>
      <use xlink:href="#DejaVuSans-38" transform="translate(179.199219 0)"/>
      <use xlink:href="#DejaVuSans-37" transform="translate(242.822266 0)"/>
      <use xlink:href="#DejaVuSans-30" transform="translate(306.445312 0)"/>
     </g>
    </g>
    <g id="patch_35">
     <path d="M 393.322335 318.2676 
L 501.246367 318.2676 
L 501.246367 288.525671 
L 393.322335 288.525671 
z
" style="fill: #ffffff; stroke: #000000; stroke-width: 0.75; stroke-linejoin: miter"/>
    </g>
    <g id="text_34">
     <!-- −1.080 -->
     <g transform="translate(425.079664 306.707885) scale(0.12 -0.12)">
      <use xlink:href="#DejaVuSans-2212"/>
      <use xlink:href="#DejaVuSans-31" transform="translate(83.789062 0)"/>
      <use xlink:href="#DejaVuSans-2e" transform="translate(147.412109 0)"/>
      <use xlink:href="#DejaVuSans-30" transform="translate(179.199219 0)"/>
      <use xlink:href="#DejaVuSans-38" transform="translate(242.822266 0)"/>
      <use xlink:href="#DejaVuSans-30" transform="translate(306.445312 0)"/>
     </g>
    </g>
    <g id="patch_36">
     <path d="M 501.246367 318.2676 
L 609.1704 318.2676 
L 609.1704 288.525671 
L 501.246367 288.525671 
z
" style="fill: #ffffff; stroke: #000000; stroke-width: 0.75; stroke-linejoin: miter"/>
    </g>
    <g id="text_35">
     <!-- −1.275 -->
     <g transform="translate(533.003696 306.707885) scale(0.12 -0.12)">
      <use xlink:href="#DejaVuSans-2212"/>
      <use xlink:href="#DejaVuSans-31" transform="translate(83.789062 0)"/>
      <use xlink:href="#DejaVuSans-2e" transform="translate(147.412109 0)"/>
      <use xlink:href="#DejaVuSans-32" transform="translate(179.199219 0)"/>
      <use xlink:href="#DejaVuSans-37" transform="translate(242.822266 0)"/>
      <use xlink:href="#DejaVuSans-35" transform="translate(306.445312 0)"/>
     </g>
    </g>
   </g>
   <g id="text_36">
    <!-- Tutti i valori sono espressi in elettronvolt. -->
    <g transform="translate(227.710313 348.2052) scale(0.1 -0.1)">
     <defs>
      <path id="DejaVuSans-54" d="M -19 4666 
L 3928 4666 
L 3928 4134 
L 2272 4134 
L 2272 0 
L 1638 0 
L 1638 4134 
L -19 4134 
L -19 4666 
z
" transform="scale(0.015625)"/>
      <path id="DejaVuSans-75" d="M 544 1381 
L 544 3500 
L 1119 3500 
L 1119 1403 
Q 1119 906 1312 657 
Q 1506 409 1894 409 
Q 2359 409 2629 706 
Q 2900 1003 2900 1516 
L 2900 3500 
L 3475 3500 
L 3475 0 
L 2900 0 
L 2900 538 
Q 2691 219 2414 64 
Q 2138 -91 1772 -91 
Q 1169 -91 856 284 
Q 544 659 544 1381 
z
M 1991 3584 
L 1991 3584 
z
" transform="scale(0.015625)"/>
      <path id="DejaVuSans-74" d="M 1172 4494 
L 1172 3500 
L 2356 3500 
L 2356 3053 
L 1172 3053 
L 1172 1153 
Q 1172 725 1289 603 
Q 1406 481 1766 481 
L 2356 481 
L 2356 0 
L 1766 0 
Q 1100 0 847 248 
Q 594 497 594 1153 
L 594 3053 
L 172 3053 
L 172 3500 
L 594 3500 
L 594 4494 
L 1172 4494 
z
" transform="scale(0.015625)"/>
      <path id="DejaVuSans-69" d="M 603 3500 
L 1178 3500 
L 1178 0 
L 603 0 
L 603 3500 
z
M 603 4863 
L 1178 4863 
L 1178 4134 
L 603 4134 
L 603 4863 
z
" transform="scale(0.015625)"/>
      <path id="DejaVuSans-20" transform="scale(0.015625)"/>
      <path id="DejaVuSans-76" d="M 191 3500 
L 800 3500 
L 1894 563 
L 2988 3500 
L 3597 3500 
L 2284 0 
L 1503 0 
L 191 3500 
z
" transform="scale(0.015625)"/>
      <path id="DejaVuSans-61" d="M 2194 1759 
Q 1497 1759 1228 1600 
Q 959 1441 959 1056 
Q 959 750 1161 570 
Q 1363 391 1709 391 
Q 2188 391 2477 730 
Q 2766 1069 2766 1631 
L 2766 1759 
L 2194 1759 
z
M 3341 1997 
L 3341 0 
L 2766 0 
L 2766 531 
Q 2569 213 2275 61 
Q 1981 -91 1556 -91 
Q 1019 -91 701 211 
Q 384 513 384 1019 
Q 384 1609 779 1909 
Q 1175 2209 1959 2209 
L 2766 2209 
L 2766 2266 
Q 2766 2663 2505 2880 
Q 2244 3097 1772 3097 
Q 1472 3097 1187 3025 
Q 903 2953 641 2809 
L 641 3341 
Q 956 3463 1253 3523 
Q 1550 3584 1831 3584 
Q 2591 3584 2966 3190 
Q 3341 2797 3341 1997 
z
" transform="scale(0.015625)"/>
      <path id="DejaVuSans-6c" d="M 603 4863 
L 1178 4863 
L 1178 0 
L 603 0 
L 603 4863 
z
" transform="scale(0.015625)"/>
      <path id="DejaVuSans-6f" d="M 1959 3097 
Q 1497 3097 1228 2736 
Q 959 2375 959 1747 
Q 959 1119 1226 758 
Q 1494 397 1959 397 
Q 2419 397 2687 759 
Q 2956 1122 2956 1747 
Q 2956 2369 2687 2733 
Q 2419 3097 1959 3097 
z
M 1959 3584 
Q 2709 3584 3137 3096 
Q 3566 2609 3566 1747 
Q 3566 888 3137 398 
Q 2709 -91 1959 -91 
Q 1206 -91 779 398 
Q 353 888 353 1747 
Q 353 2609 779 3096 
Q 1206 3584 1959 3584 
z
" transform="scale(0.015625)"/>
      <path id="DejaVuSans-72" d="M 2631 2963 
Q 2534 3019 2420 3045 
Q 2306 3072 2169 3072 
Q 1681 3072 1420 2755 
Q 1159 2438 1159 1844 
L 1159 0 
L 581 0 
L 581 3500 
L 1159 3500 
L 1159 2956 
Q 1341 3275 1631 3429 
Q 1922 3584 2338 3584 
Q 2397 3584 2469 3576 
Q 2541 3569 2628 3553 
L 2631 2963 
z
" transform="scale(0.015625)"/>
      <path id="DejaVuSans-73" d="M 2834 3397 
L 2834 2853 
Q 2591 2978 2328 3040 
Q 2066 3103 1784 3103 
Q 1356 3103 1142 2972 
Q 928 2841 928 2578 
Q 928 2378 1081 2264 
Q 1234 2150 1697 2047 
L 1894 2003 
Q 2506 1872 2764 1633 
Q 3022 1394 3022 966 
Q 3022 478 2636 193 
Q 2250 -91 1575 -91 
Q 1294 -91 989 -36 
Q 684 19 347 128 
L 347 722 
Q 666 556 975 473 
Q 1284 391 1588 391 
Q 1994 391 2212 530 
Q 2431 669 2431 922 
Q 2431 1156 2273 1281 
Q 2116 1406 1581 1522 
L 1381 1569 
Q 847 1681 609 1914 
Q 372 2147 372 2553 
Q 372 3047 722 3315 
Q 1072 3584 1716 3584 
Q 2034 3584 2315 3537 
Q 2597 3491 2834 3397 
z
" transform="scale(0.015625)"/>
      <path id="DejaVuSans-6e" d="M 3513 2113 
L 3513 0 
L 2938 0 
L 2938 2094 
Q 2938 2591 2744 2837 
Q 2550 3084 2163 3084 
Q 1697 3084 1428 2787 
Q 1159 2491 1159 1978 
L 1159 0 
L 581 0 
L 581 3500 
L 1159 3500 
L 1159 2956 
Q 1366 3272 1645 3428 
Q 1925 3584 2291 3584 
Q 2894 3584 3203 3211 
Q 3513 2838 3513 2113 
z
" transform="scale(0.015625)"/>
      <path id="DejaVuSans-65" d="M 3597 1894 
L 3597 1613 
L 953 1613 
Q 991 1019 1311 708 
Q 1631 397 2203 397 
Q 2534 397 2845 478 
Q 3156 559 3463 722 
L 3463 178 
Q 3153 47 2828 -22 
Q 2503 -91 2169 -91 
Q 1331 -91 842 396 
Q 353 884 353 1716 
Q 353 2575 817 3079 
Q 1281 3584 2069 3584 
Q 2775 3584 3186 3129 
Q 3597 2675 3597 1894 
z
M 3022 2063 
Q 3016 2534 2758 2815 
Q 2500 3097 2075 3097 
Q 1594 3097 1305 2825 
Q 1016 2553 972 2059 
L 3022 2063 
z
" transform="scale(0.015625)"/>
      <path id="DejaVuSans-70" d="M 1159 525 
L 1159 -1331 
L 581 -1331 
L 581 3500 
L 1159 3500 
L 1159 2969 
Q 1341 3281 1617 3432 
Q 1894 3584 2278 3584 
Q 2916 3584 3314 3078 
Q 3713 2572 3713 1747 
Q 3713 922 3314 415 
Q 2916 -91 2278 -91 
Q 1894 -91 1617 61 
Q 1341 213 1159 525 
z
M 3116 1747 
Q 3116 2381 2855 2742 
Q 2594 3103 2138 3103 
Q 1681 3103 1420 2742 
Q 1159 2381 1159 1747 
Q 1159 1113 1420 752 
Q 1681 391 2138 391 
Q 2594 391 2855 752 
Q 3116 1113 3116 1747 
z
" transform="scale(0.015625)"/>
     </defs>
     <use xlink:href="#DejaVuSans-54"/>
     <use xlink:href="#DejaVuSans-75" transform="translate(45.958984 0)"/>
     <use xlink:href="#DejaVuSans-74" transform="translate(109.337891 0)"/>
     <use xlink:href="#DejaVuSans-74" transform="translate(148.546875 0)"/>
     <use xlink:href="#DejaVuSans-69" transform="translate(187.755859 0)"/>
     <use xlink:href="#DejaVuSans-20" transform="translate(215.539062 0)"/>
     <use xlink:href="#DejaVuSans-69" transform="translate(247.326172 0)"/>
     <use xlink:href="#DejaVuSans-20" transform="translate(275.109375 0)"/>
     <use xlink:href="#DejaVuSans-76" transform="translate(306.896484 0)"/>
     <use xlink:href="#DejaVuSans-61" transform="translate(366.076172 0)"/>
     <use xlink:href="#DejaVuSans-6c" transform="translate(427.355469 0)"/>
     <use xlink:href="#DejaVuSans-6f" transform="translate(455.138672 0)"/>
     <use xlink:href="#DejaVuSans-72" transform="translate(516.320312 0)"/>
     <use xlink:href="#DejaVuSans-69" transform="translate(557.433594 0)"/>
     <use xlink:href="#DejaVuSans-20" transform="translate(585.216797 0)"/>
     <use xlink:href="#DejaVuSans-73" transform="translate(617.003906 0)"/>
     <use xlink:href="#DejaVuSans-6f" transform="translate(669.103516 0)"/>
     <use xlink:href="#DejaVuSans-6e" transform="translate(730.285156 0)"/>
     <use xlink:href="#DejaVuSans-6f" transform="translate(793.664062 0)"/>
     <use xlink:href="#DejaVuSans-20" transform="translate(854.845703 0)"/>
     <use xlink:href="#DejaVuSans-65" transform="translate(886.632812 0)"/>
     <use xlink:href="#DejaVuSans-73" transform="translate(948.15625 0)"/>
     <use xlink:href="#DejaVuSans-70" transform="translate(1000.255859 0)"/>
     <use xlink:href="#DejaVuSans-72" transform="translate(1063.732422 0)"/>
     <use xlink:href="#DejaVuSans-65" transform="translate(1102.595703 0)"/>
     <use xlink:href="#DejaVuSans-73" transform="translate(1164.119141 0)"/>
     <use xlink:href="#DejaVuSans-73" transform="translate(1216.21875 0)"/>
     <use xlink:href="#DejaVuSans-69" transform="translate(1268.318359 0)"/>
     <use xlink:href="#DejaVuSans-20" transform="translate(1296.101562 0)"/>
     <use xlink:href="#DejaVuSans-69" transform="translate(1327.888672 0)"/>
     <use xlink:href="#DejaVuSans-6e" transform="translate(1355.671875 0)"/>
     <use xlink:href="#DejaVuSans-20" transform="translate(1419.050781 0)"/>
     <use xlink:href="#DejaVuSans-65" transform="translate(1450.837891 0)"/>
     <use xlink:href="#DejaVuSans-6c" transform="translate(1512.361328 0)"/>
     <use xlink:href="#DejaVuSans-65" transform="translate(1540.144531 0)"/>
     <use xlink:href="#DejaVuSans-74" transform="translate(1601.667969 0)"/>
     <use xlink:href="#DejaVuSans-74" transform="translate(1640.876953 0)"/>
     <use xlink:href="#DejaVuSans-72" transform="translate(1680.085938 0)"/>
     <use xlink:href="#DejaVuSans-6f" transform="translate(1718.949219 0)"/>
     <use xlink:href="#DejaVuSans-6e" transform="translate(1780.130859 0)"/>
     <use xlink:href="#DejaVuSans-76" transform="translate(1843.509766 0)"/>
     <use xlink:href="#DejaVuSans-6f" transform="translate(1902.689453 0)"/>
     <use xlink:href="#DejaVuSans-6c" transform="translate(1963.871094 0)"/>
     <use xlink:href="#DejaVuSans-74" transform="translate(1991.654297 0)"/>
     <use xlink:href="#DejaVuSans-2e" transform="translate(2030.863281 0)"/>
    </g>
   </g>
   <g id="text_37">
    <!-- Integrali a due centri in diverse parametrizzazioni $sp^3$ del silicio -->
    <g transform="translate(60.915 20.85) scale(0.15 -0.15)">
     <defs>
      <path id="DejaVuSans-Bold-49" d="M 588 4666 
L 1791 4666 
L 1791 0 
L 588 0 
L 588 4666 
z
" transform="scale(0.015625)"/>
      <path id="DejaVuSans-Bold-64" d="M 2919 2988 
L 2919 4863 
L 4044 4863 
L 4044 0 
L 2919 0 
L 2919 506 
Q 2688 197 2409 53 
Q 2131 -91 1766 -91 
Q 1119 -91 703 423 
Q 288 938 288 1747 
Q 288 2556 703 3070 
Q 1119 3584 1766 3584 
Q 2128 3584 2408 3439 
Q 2688 3294 2919 2988 
z
M 2181 722 
Q 2541 722 2730 984 
Q 2919 1247 2919 1747 
Q 2919 2247 2730 2509 
Q 2541 2772 2181 2772 
Q 1825 2772 1636 2509 
Q 1447 2247 1447 1747 
Q 1447 1247 1636 984 
Q 1825 722 2181 722 
z
" transform="scale(0.015625)"/>
      <path id="DejaVuSans-Bold-75" d="M 500 1363 
L 500 3500 
L 1625 3500 
L 1625 3150 
Q 1625 2866 1622 2436 
Q 1619 2006 1619 1863 
Q 1619 1441 1641 1255 
Q 1663 1069 1716 984 
Q 1784 875 1895 815 
Q 2006 756 2150 756 
Q 2500 756 2700 1025 
Q 2900 1294 2900 1772 
L 2900 3500 
L 4019 3500 
L 4019 0 
L 2900 0 
L 2900 506 
Q 2647 200 2364 54 
Q 2081 -91 1741 -91 
Q 1134 -91 817 281 
Q 500 653 500 1363 
z
" transform="scale(0.015625)"/>
      <path id="DejaVuSans-Bold-63" d="M 3366 3391 
L 3366 2478 
Q 3138 2634 2908 2709 
Q 2678 2784 2431 2784 
Q 1963 2784 1702 2511 
Q 1441 2238 1441 1747 
Q 1441 1256 1702 982 
Q 1963 709 2431 709 
Q 2694 709 2930 787 
Q 3166 866 3366 1019 
L 3366 103 
Q 3103 6 2833 -42 
Q 2563 -91 2291 -91 
Q 1344 -91 809 395 
Q 275 881 275 1747 
Q 275 2613 809 3098 
Q 1344 3584 2291 3584 
Q 2566 3584 2833 3536 
Q 3100 3488 3366 3391 
z
" transform="scale(0.015625)"/>
      <path id="DejaVuSans-Bold-76" d="M 97 3500 
L 1216 3500 
L 2088 1081 
L 2956 3500 
L 4078 3500 
L 2700 0 
L 1472 0 
L 97 3500 
z
" transform="scale(0.015625)"/>
      <path id="DejaVuSans-Bold-73" d="M 3272 3391 
L 3272 2541 
Q 2913 2691 2578 2766 
Q 2244 2841 1947 2841 
Q 1628 2841 1473 2761 
Q 1319 2681 1319 2516 
Q 1319 2381 1436 2309 
Q 1553 2238 1856 2203 
L 2053 2175 
Q 2913 2066 3209 1816 
Q 3506 1566 3506 1031 
Q 3506 472 3093 190 
Q 2681 -91 1863 -91 
Q 1516 -91 1145 -36 
Q 775 19 384 128 
L 384 978 
Q 719 816 1070 734 
Q 1422 653 1784 653 
Q 2113 653 2278 743 
Q 2444 834 2444 1013 
Q 2444 1163 2330 1236 
Q 2216 1309 1875 1350 
L 1678 1375 
Q 931 1469 631 1722 
Q 331 1975 331 2491 
Q 331 3047 712 3315 
Q 1094 3584 1881 3584 
Q 2191 3584 2531 3537 
Q 2872 3491 3272 3391 
z
" transform="scale(0.015625)"/>
      <path id="DejaVuSans-Bold-70" d="M 1656 506 
L 1656 -1331 
L 538 -1331 
L 538 3500 
L 1656 3500 
L 1656 2988 
Q 1888 3294 2169 3439 
Q 2450 3584 2816 3584 
Q 3463 3584 3878 3070 
Q 4294 2556 4294 1747 
Q 4294 938 3878 423 
Q 3463 -91 2816 -91 
Q 2450 -91 2169 54 
Q 1888 200 1656 506 
z
M 2400 2772 
Q 2041 2772 1848 2508 
Q 1656 2244 1656 1747 
Q 1656 1250 1848 986 
Q 2041 722 2400 722 
Q 2759 722 2948 984 
Q 3138 1247 3138 1747 
Q 3138 2247 2948 2509 
Q 2759 2772 2400 2772 
z
" transform="scale(0.015625)"/>
      <path id="DejaVuSans-Bold-6d" d="M 3781 2919 
Q 3994 3244 4286 3414 
Q 4578 3584 4928 3584 
Q 5531 3584 5847 3212 
Q 6163 2841 6163 2131 
L 6163 0 
L 5038 0 
L 5038 1825 
Q 5041 1866 5042 1909 
Q 5044 1953 5044 2034 
Q 5044 2406 4934 2573 
Q 4825 2741 4581 2741 
Q 4263 2741 4089 2478 
Q 3916 2216 3909 1719 
L 3909 0 
L 2784 0 
L 2784 1825 
Q 2784 2406 2684 2573 
Q 2584 2741 2328 2741 
Q 2006 2741 1831 2477 
Q 1656 2213 1656 1722 
L 1656 0 
L 531 0 
L 531 3500 
L 1656 3500 
L 1656 2988 
Q 1863 3284 2130 3434 
Q 2397 3584 2719 3584 
Q 3081 3584 3359 3409 
Q 3638 3234 3781 2919 
z
" transform="scale(0.015625)"/>
      <path id="DejaVuSans-Bold-7a" d="M 366 3500 
L 3419 3500 
L 3419 2719 
L 1575 800 
L 3419 800 
L 3419 0 
L 288 0 
L 288 781 
L 2131 2700 
L 366 2700 
L 366 3500 
z
" transform="scale(0.015625)"/>
      <path id="DejaVuSans-Bold-6f" d="M 2203 2784 
Q 1831 2784 1636 2517 
Q 1441 2250 1441 1747 
Q 1441 1244 1636 976 
Q 1831 709 2203 709 
Q 2569 709 2762 976 
Q 2956 1244 2956 1747 
Q 2956 2250 2762 2517 
Q 2569 2784 2203 2784 
z
M 2203 3584 
Q 3106 3584 3614 3096 
Q 4122 2609 4122 1747 
Q 4122 884 3614 396 
Q 3106 -91 2203 -91 
Q 1297 -91 786 396 
Q 275 884 275 1747 
Q 275 2609 786 3096 
Q 1297 3584 2203 3584 
z
" transform="scale(0.015625)"/>
     </defs>
     <use xlink:href="#DejaVuSans-Bold-49" transform="translate(0 0.765625)"/>
     <use xlink:href="#DejaVuSans-Bold-6e" transform="translate(37.207031 0.765625)"/>
     <use xlink:href="#DejaVuSans-Bold-74" transform="translate(108.398438 0.765625)"/>
     <use xlink:href="#DejaVuSans-Bold-65" transform="translate(156.201172 0.765625)"/>
     <use xlink:href="#DejaVuSans-Bold-67" transform="translate(224.023438 0.765625)"/>
     <use xlink:href="#DejaVuSans-Bold-72" transform="translate(295.605469 0.765625)"/>
     <use xlink:href="#DejaVuSans-Bold-61" transform="translate(344.921875 0.765625)"/>
     <use xlink:href="#DejaVuSans-Bold-6c" transform="translate(412.402344 0.765625)"/>
     <use xlink:href="#DejaVuSans-Bold-69" transform="translate(446.679688 0.765625)"/>
     <use xlink:href="#DejaVuSans-Bold-20" transform="translate(480.957031 0.765625)"/>
     <use xlink:href="#DejaVuSans-Bold-61" transform="translate(515.771484 0.765625)"/>
     <use xlink:href="#DejaVuSans-Bold-20" transform="translate(583.251953 0.765625)"/>
     <use xlink:href="#DejaVuSans-Bold-64" transform="translate(618.066406 0.765625)"/>
     <use xlink:href="#DejaVuSans-Bold-75" transform="translate(689.648438 0.765625)"/>
     <use xlink:href="#DejaVuSans-Bold-65" transform="translate(760.839844 0.765625)"/>
     <use xlink:href="#DejaVuSans-Bold-20" transform="translate(828.662109 0.765625)"/>
     <use xlink:href="#DejaVuSans-Bold-63" transform="translate(863.476562 0.765625)"/>
     <use xlink:href="#DejaVuSans-Bold-65" transform="translate(922.753906 0.765625)"/>
     <use xlink:href="#DejaVuSans-Bold-6e" transform="translate(990.576172 0.765625)"/>
     <use xlink:href="#DejaVuSans-Bold-74" transform="translate(1061.767578 0.765625)"/>
     <use xlink:href="#DejaVuSans-Bold-72" transform="translate(1109.570312 0.765625)"/>
     <use xlink:href="#DejaVuSans-Bold-69" transform="translate(1158.886719 0.765625)"/>
     <use xlink:href="#DejaVuSans-Bold-20" transform="translate(1193.164062 0.765625)"/>
     <use xlink:href="#DejaVuSans-Bold-69" transform="translate(1227.978516 0.765625)"/>
     <use xlink:href="#DejaVuSans-Bold-6e" transform="translate(1262.255859 0.765625)"/>
     <use xlink:href="#DejaVuSans-Bold-20" transform="translate(1333.447266 0.765625)"/>
     <use xlink:href="#DejaVuSans-Bold-64" transform="translate(1368.261719 0.765625)"/>
     <use xlink:href="#DejaVuSans-Bold-69" transform="translate(1439.84375 0.765625)"/>
     <use xlink:href="#DejaVuSans-Bold-76" transform="translate(1474.121094 0.765625)"/>
     <use xlink:href="#DejaVuSans-Bold-65" transform="translate(1539.306641 0.765625)"/>
     <use xlink:href="#DejaVuSans-Bold-72" transform="translate(1607.128906 0.765625)"/>
     <use xlink:href="#DejaVuSans-Bold-73" transform="translate(1656.445312 0.765625)"/>
     <use xlink:href="#DejaVuSans-Bold-65" transform="translate(1715.966797 0.765625)"/>
     <use xlink:href="#DejaVuSans-Bold-20" transform="translate(1783.789062 0.765625)"/>
     <use xlink:href="#DejaVuSans-Bold-70" transform="translate(1818.603516 0.765625)"/>
     <use xlink:href="#DejaVuSans-Bold-61" transform="translate(1890.185547 0.765625)"/>
     <use xlink:href="#DejaVuSans-Bold-72" transform="translate(1957.666016 0.765625)"/>
     <use xlink:href="#DejaVuSans-Bold-61" transform="translate(2006.982422 0.765625)"/>
     <use xlink:href="#DejaVuSans-Bold-6d" transform="translate(2074.462891 0.765625)"/>
     <use xlink:href="#DejaVuSans-Bold-65" transform="translate(2178.662109 0.765625)"/>
     <use xlink:href="#DejaVuSans-Bold-74" transform="translate(2246.484375 0.765625)"/>
     <use xlink:href="#DejaVuSans-Bold-72" transform="translate(2294.287109 0.765625)"/>
     <use xlink:href="#DejaVuSans-Bold-69" transform="translate(2343.603516 0.765625)"/>
     <use xlink:href="#DejaVuSans-Bold-7a" transform="translate(2377.880859 0.765625)"/>
     <use xlink:href="#DejaVuSans-Bold-7a" transform="translate(2436.083984 0.765625)"/>
     <use xlink:href="#DejaVuSans-Bold-61" transform="translate(2494.287109 0.765625)"/>
     <use xlink:href="#DejaVuSans-Bold-7a" transform="translate(2561.767578 0.765625)"/>
     <use xlink:href="#DejaVuSans-Bold-69" transform="translate(2619.970703 0.765625)"/>
     <use xlink:href="#DejaVuSans-Bold-6f" transform="translate(2654.248047 0.765625)"/>
     <use xlink:href="#DejaVuSans-Bold-6e" transform="translate(2722.949219 0.765625)"/>
     <use xlink:href="#DejaVuSans-Bold-69" transform="translate(2794.140625 0.765625)"/>
     <use xlink:href="#DejaVuSans-Bold-20" transform="translate(2828.417969 0.765625)"/>
     <use xlink:href="#DejaVuSans-Oblique-73" transform="translate(2863.232422 0.765625)"/>
     <use xlink:href="#DejaVuSans-Oblique-70" transform="translate(2915.332031 0.765625)"/>
     <use xlink:href="#DejaVuSans-33" transform="translate(2983.45849 39.046875) scale(0.7)"/>
     <use xlink:href="#DejaVuSans-Bold-20" transform="translate(3030.728997 0.765625)"/>
     <use xlink:href="#DejaVuSans-Bold-64" transform="translate(3065.543451 0.765625)"/>
     <use xlink:href="#DejaVuSans-Bold-65" transform="translate(3137.125482 0.765625)"/>
     <use xlink:href="#DejaVuSans-Bold-6c" transform="translate(3204.947747 0.765625)"/>
     <use xlink:href="#DejaVuSans-Bold-20" transform="translate(3239.225091 0.765625)"/>
     <use xlink:href="#DejaVuSans-Bold-73" transform="translate(3274.039544 0.765625)"/>
     <use xlink:href="#DejaVuSans-Bold-69" transform="translate(3333.561029 0.765625)"/>
     <use xlink:href="#DejaVuSans-Bold-6c" transform="translate(3367.838372 0.765625)"/>
     <use xlink:href="#DejaVuSans-Bold-69" transform="translate(3402.115716 0.765625)"/>
     <use xlink:href="#DejaVuSans-Bold-63" transform="translate(3436.39306 0.765625)"/>
     <use xlink:href="#DejaVuSans-Bold-69" transform="translate(3495.670404 0.765625)"/>
     <use xlink:href="#DejaVuSans-Bold-6f" transform="translate(3529.947747 0.765625)"/>
    </g>
   </g>
  </g>
 </g>
</svg>
