<?xml version="1.0" encoding="utf-8" standalone="no"?>
<!DOCTYPE svg PUBLIC "-//W3C//DTD SVG 1.1//EN"
  "http://www.w3.org/Graphics/SVG/1.1/DTD/svg11.dtd">
<svg xmlns:xlink="http://www.w3.org/1999/xlink" width="795.375pt" height="670.945288pt" viewBox="0 0 795.375 670.945288" xmlns="http://www.w3.org/2000/svg" version="1.1">
 <metadata>
  <rdf:RDF xmlns:dc="http://purl.org/dc/elements/1.1/" xmlns:cc="http://creativecommons.org/ns#" xmlns:rdf="http://www.w3.org/1999/02/22-rdf-syntax-ns#">
   <cc:Work>
    <dc:type rdf:resource="http://purl.org/dc/dcmitype/StillImage"/>
    <dc:date>2026-06-16T10:37:25.908925</dc:date>
    <dc:format>image/svg+xml</dc:format>
    <dc:creator>
     <cc:Agent>
      <dc:title>Matplotlib v3.10.8, https://matplotlib.org/</dc:title>
     </cc:Agent>
    </dc:creator>
   </cc:Work>
  </rdf:RDF>
 </metadata>
 <defs>
  <style type="text/css">*{stroke-linejoin: round; stroke-linecap: butt}</style>
 </defs>
 <g id="figure_1">
  <g id="patch_1">
   <path d="M 0 670.945288 
L 795.375 670.945288 
L 795.375 0 
L 0 0 
z
" style="fill: #ffffff"/>
  </g>
  <g id="axes_1">
   <g id="patch_2">
    <path d="M 140.961392 227.706857 
C 142.461683 227.706857 143.900729 227.110785 144.961596 226.049918 
C 146.022462 224.989052 146.618534 223.550006 146.618534 222.049714 
C 146.618534 220.549422 146.022462 219.110377 144.961596 218.04951 
C 143.900729 216.988644 142.461683 216.392571 140.961392 216.392571 
C 139.4611 216.392571 138.022054 216.988644 136.961188 218.04951 
C 135.900321 219.110377 135.304249 220.549422 135.304249 222.049714 
C 135.304249 223.550006 135.900321 224.989052 136.961188 226.049918 
C 138.022054 227.110785 139.4611 227.706857 140.961392 227.706857 
z
" clip-path="url(#p24607c97e6)" style="fill: #1f77b4; opacity: 0.7"/>
   </g>
   <g id="patch_3">
    <path d="M 140.961392 126.349714 
C 142.211635 126.349714 143.41084 125.852987 144.294895 124.968932 
C 145.17895 124.084877 145.675677 122.885672 145.675677 121.635429 
C 145.675677 120.385185 145.17895 119.185981 144.294895 118.301925 
C 143.41084 117.41787 142.211635 116.921143 140.961392 116.921143 
C 139.711148 116.921143 138.511944 117.41787 137.627888 118.301925 
C 136.743833 119.185981 136.247106 120.385185 136.247106 121.635429 
C 136.247106 122.885672 136.743833 124.084877 137.627888 124.968932 
C 138.511944 125.852987 139.711148 126.349714 140.961392 126.349714 
z
" clip-path="url(#p24607c97e6)" style="fill: #1f77b4; opacity: 0.7"/>
   </g>
   <g id="patch_4">
    <path d="M 160.289963 189.049714 
C 160.289963 176.859843 158.253383 165.167597 154.628756 156.548056 
C 151.004128 147.928516 146.087389 143.085429 140.961392 143.085429 
C 135.835395 143.085429 130.918655 147.928516 127.294028 156.548056 
C 123.6694 165.167597 121.63282 176.859843 121.63282 189.049714 
C 121.63282 201.239585 123.6694 212.931832 127.294028 221.551372 
C 130.918655 230.170913 135.835395 235.014 140.961392 235.014 
C 146.087389 235.014 151.004128 230.170913 154.628756 221.551372 
C 158.253383 212.931832 160.289963 201.239585 160.289963 189.049714 
z
" clip-path="url(#p24607c97e6)" style="fill: url(#hcd7cd16e59); opacity: 0.28"/>
   </g>
   <g id="patch_5">
    <path d="M 157.461392 256.464 
C 157.461392 247.712298 155.722848 239.317864 152.628654 233.129476 
C 149.534459 226.941088 145.337243 223.464 140.961392 223.464 
C 136.58554 223.464 132.388324 226.941088 129.29413 233.129476 
C 126.199936 239.317864 124.461392 247.712298 124.461392 256.464 
C 124.461392 265.215702 126.199936 273.610136 129.29413 279.798524 
C 132.388324 285.986912 136.58554 289.464 140.961392 289.464 
C 145.337243 289.464 149.534459 285.986912 152.628654 279.798524 
C 155.722848 273.610136 157.461392 265.215702 157.461392 256.464 
z
" clip-path="url(#p24607c97e6)" style="fill: url(#h13a9647afa); opacity: 0.16"/>
   </g>
   <g id="patch_6">
    <path d="M 140.961392 143.321143 
C 146.71251 143.321143 152.228852 141.036199 156.295507 136.969544 
C 160.362162 132.902889 162.647106 127.386547 162.647106 121.635429 
C 162.647106 115.88431 160.362162 110.367968 156.295507 106.301313 
C 152.228852 102.234658 146.71251 99.949714 140.961392 99.949714 
C 135.210273 99.949714 129.693931 102.234658 125.627276 106.301313 
C 121.560621 110.367968 119.275677 115.88431 119.275677 121.635429 
C 119.275677 127.386547 121.560621 132.902889 125.627276 136.969544 
C 129.693931 141.036199 135.210273 143.321143 140.961392 143.321143 
z
" clip-path="url(#p24607c97e6)" style="fill: #1f77b4; opacity: 0.18"/>
   </g>
   <g id="line2d_1">
    <path d="M 67.889963 222.049714 
L 214.03282 222.049714 
" clip-path="url(#p24607c97e6)" style="fill: none; stroke: #1f77b4; stroke-width: 0.8; stroke-linecap: square"/>
   </g>
   <g id="line2d_2">
    <path d="M 140.961392 288.049714 
L 140.961392 92.406857 
" clip-path="url(#p24607c97e6)" style="fill: none; stroke: #ff7f0e; stroke-width: 0.8; stroke-linecap: square"/>
   </g>
   <g id="text_1">
    <!-- O -->
    <g transform="translate(137.222251 237.606857) scale(0.095 -0.095)">
     <defs>
      <path id="DejaVuSans-4f" d="M 2522 4238 
Q 1834 4238 1429 3725 
Q 1025 3213 1025 2328 
Q 1025 1447 1429 934 
Q 1834 422 2522 422 
Q 3209 422 3611 934 
Q 4013 1447 4013 2328 
Q 4013 3213 3611 3725 
Q 3209 4238 2522 4238 
z
M 2522 4750 
Q 3503 4750 4090 4092 
Q 4678 3434 4678 2328 
Q 4678 1225 4090 567 
Q 3503 -91 2522 -91 
Q 1538 -91 948 565 
Q 359 1222 359 2328 
Q 359 3434 948 4092 
Q 1538 4750 2522 4750 
z
" transform="scale(0.015625)"/>
     </defs>
     <use xlink:href="#DejaVuSans-4f"/>
    </g>
   </g>
   <g id="text_2">
    <!-- H -->
    <g transform="translate(137.389243 137.192571) scale(0.095 -0.095)">
     <defs>
      <path id="DejaVuSans-48" d="M 628 4666 
L 1259 4666 
L 1259 2753 
L 3553 2753 
L 3553 4666 
L 4184 4666 
L 4184 0 
L 3553 0 
L 3553 2222 
L 1259 2222 
L 1259 0 
L 628 0 
L 628 4666 
z
" transform="scale(0.015625)"/>
     </defs>
     <use xlink:href="#DejaVuSans-48"/>
    </g>
   </g>
   <g id="text_3">
    <!-- $x$ -->
    <g transform="translate(218.747106 224.533152) scale(0.09 -0.09)">
     <defs>
      <path id="DejaVuSans-Oblique-78" d="M 3841 3500 
L 2234 1784 
L 3219 0 
L 2559 0 
L 1819 1388 
L 531 0 
L -166 0 
L 1556 1844 
L 641 3500 
L 1300 3500 
L 1972 2234 
L 3144 3500 
L 3841 3500 
z
" transform="scale(0.015625)"/>
     </defs>
     <use xlink:href="#DejaVuSans-Oblique-78" transform="translate(0 0.3125)"/>
    </g>
   </g>
   <g id="text_4">
    <!-- $y$ -->
    <g transform="translate(145.675677 92.406857) scale(0.09 -0.09)">
     <defs>
      <path id="DejaVuSans-Oblique-79" d="M 1588 -325 
Q 1188 -997 936 -1164 
Q 684 -1331 294 -1331 
L -159 -1331 
L -63 -850 
L 269 -850 
Q 509 -850 678 -719 
Q 847 -588 1056 -206 
L 1234 128 
L 459 3500 
L 1069 3500 
L 1650 819 
L 3256 3500 
L 3859 3500 
L 1588 -325 
z
" transform="scale(0.015625)"/>
     </defs>
     <use xlink:href="#DejaVuSans-Oblique-79" transform="translate(0 0.3125)"/>
    </g>
   </g>
   <g id="text_5">
    <!-- $2p_y$ -->
    <g transform="translate(174.904249 165.949714) scale(0.095 -0.095)">
     <defs>
      <path id="DejaVuSans-32" d="M 1228 531 
L 3431 531 
L 3431 0 
L 469 0 
L 469 531 
Q 828 903 1448 1529 
Q 2069 2156 2228 2338 
Q 2531 2678 2651 2914 
Q 2772 3150 2772 3378 
Q 2772 3750 2511 3984 
Q 2250 4219 1831 4219 
Q 1534 4219 1204 4116 
Q 875 4013 500 3803 
L 500 4441 
Q 881 4594 1212 4672 
Q 1544 4750 1819 4750 
Q 2544 4750 2975 4387 
Q 3406 4025 3406 3419 
Q 3406 3131 3298 2873 
Q 3191 2616 2906 2266 
Q 2828 2175 2409 1742 
Q 1991 1309 1228 531 
z
" transform="scale(0.015625)"/>
      <path id="DejaVuSans-Oblique-70" d="M 3175 2156 
Q 3175 2616 2975 2859 
Q 2775 3103 2400 3103 
Q 2144 3103 1911 2972 
Q 1678 2841 1497 2591 
Q 1319 2344 1212 1994 
Q 1106 1644 1106 1300 
Q 1106 863 1306 627 
Q 1506 391 1875 391 
Q 2147 391 2380 519 
Q 2613 647 2778 891 
Q 2956 1147 3065 1494 
Q 3175 1841 3175 2156 
z
M 1394 2969 
Q 1625 3272 1939 3428 
Q 2253 3584 2638 3584 
Q 3175 3584 3472 3232 
Q 3769 2881 3769 2247 
Q 3769 1728 3584 1258 
Q 3400 788 3053 416 
Q 2822 169 2531 39 
Q 2241 -91 1919 -91 
Q 1547 -91 1294 64 
Q 1041 219 916 525 
L 556 -1331 
L -19 -1331 
L 922 3500 
L 1497 3500 
L 1394 2969 
z
" transform="scale(0.015625)"/>
     </defs>
     <use xlink:href="#DejaVuSans-32" transform="translate(0 0.78125)"/>
     <use xlink:href="#DejaVuSans-Oblique-70" transform="translate(63.623047 0.78125)"/>
     <use xlink:href="#DejaVuSans-Oblique-79" transform="translate(127.099609 -15.625) scale(0.7)"/>
    </g>
   </g>
   <g id="text_6">
    <!-- $1s$ -->
    <g transform="translate(162.175677 113.149714) scale(0.095 -0.095)">
     <defs>
      <path id="DejaVuSans-31" d="M 794 531 
L 1825 531 
L 1825 4091 
L 703 3866 
L 703 4441 
L 1819 4666 
L 2450 4666 
L 2450 531 
L 3481 531 
L 3481 0 
L 794 0 
L 794 531 
z
" transform="scale(0.015625)"/>
      <path id="DejaVuSans-Oblique-73" d="M 3200 3397 
L 3091 2853 
Q 2863 2978 2609 3040 
Q 2356 3103 2088 3103 
Q 1634 3103 1373 2948 
Q 1113 2794 1113 2528 
Q 1113 2219 1719 2053 
Q 1766 2041 1788 2034 
L 1972 1978 
Q 2547 1819 2739 1644 
Q 2931 1469 2931 1166 
Q 2931 609 2489 259 
Q 2047 -91 1331 -91 
Q 1053 -91 747 -37 
Q 441 16 72 128 
L 184 722 
Q 500 559 806 475 
Q 1113 391 1394 391 
Q 1816 391 2080 572 
Q 2344 753 2344 1031 
Q 2344 1331 1650 1516 
L 1591 1531 
L 1394 1581 
Q 956 1697 753 1886 
Q 550 2075 550 2369 
Q 550 2928 970 3256 
Q 1391 3584 2113 3584 
Q 2397 3584 2667 3537 
Q 2938 3491 3200 3397 
z
" transform="scale(0.015625)"/>
     </defs>
     <use xlink:href="#DejaVuSans-31" transform="translate(0 0.09375)"/>
     <use xlink:href="#DejaVuSans-Oblique-73" transform="translate(63.623047 0.09375)"/>
    </g>
   </g>
   <g id="text_7">
    <!-- sovrapposizione lungo $y$ -->
    <g transform="translate(68.408534 72.264) scale(0.11 -0.11)">
     <defs>
      <path id="DejaVuSans-Bold-73" d="M 3272 3391 
L 3272 2541 
Q 2913 2691 2578 2766 
Q 2244 2841 1947 2841 
Q 1628 2841 1473 2761 
Q 1319 2681 1319 2516 
Q 1319 2381 1436 2309 
Q 1553 2238 1856 2203 
L 2053 2175 
Q 2913 2066 3209 1816 
Q 3506 1566 3506 1031 
Q 3506 472 3093 190 
Q 2681 -91 1863 -91 
Q 1516 -91 1145 -36 
Q 775 19 384 128 
L 384 978 
Q 719 816 1070 734 
Q 1422 653 1784 653 
Q 2113 653 2278 743 
Q 2444 834 2444 1013 
Q 2444 1163 2330 1236 
Q 2216 1309 1875 1350 
L 1678 1375 
Q 931 1469 631 1722 
Q 331 1975 331 2491 
Q 331 3047 712 3315 
Q 1094 3584 1881 3584 
Q 2191 3584 2531 3537 
Q 2872 3491 3272 3391 
z
" transform="scale(0.015625)"/>
      <path id="DejaVuSans-Bold-6f" d="M 2203 2784 
Q 1831 2784 1636 2517 
Q 1441 2250 1441 1747 
Q 1441 1244 1636 976 
Q 1831 709 2203 709 
Q 2569 709 2762 976 
Q 2956 1244 2956 1747 
Q 2956 2250 2762 2517 
Q 2569 2784 2203 2784 
z
M 2203 3584 
Q 3106 3584 3614 3096 
Q 4122 2609 4122 1747 
Q 4122 884 3614 396 
Q 3106 -91 2203 -91 
Q 1297 -91 786 396 
Q 275 884 275 1747 
Q 275 2609 786 3096 
Q 1297 3584 2203 3584 
z
" transform="scale(0.015625)"/>
      <path id="DejaVuSans-Bold-76" d="M 97 3500 
L 1216 3500 
L 2088 1081 
L 2956 3500 
L 4078 3500 
L 2700 0 
L 1472 0 
L 97 3500 
z
" transform="scale(0.015625)"/>
      <path id="DejaVuSans-Bold-72" d="M 3138 2547 
Q 2991 2616 2845 2648 
Q 2700 2681 2553 2681 
Q 2122 2681 1889 2404 
Q 1656 2128 1656 1613 
L 1656 0 
L 538 0 
L 538 3500 
L 1656 3500 
L 1656 2925 
Q 1872 3269 2151 3426 
Q 2431 3584 2822 3584 
Q 2878 3584 2943 3579 
Q 3009 3575 3134 3559 
L 3138 2547 
z
" transform="scale(0.015625)"/>
      <path id="DejaVuSans-Bold-61" d="M 2106 1575 
Q 1756 1575 1579 1456 
Q 1403 1338 1403 1106 
Q 1403 894 1545 773 
Q 1688 653 1941 653 
Q 2256 653 2472 879 
Q 2688 1106 2688 1447 
L 2688 1575 
L 2106 1575 
z
M 3816 1997 
L 3816 0 
L 2688 0 
L 2688 519 
Q 2463 200 2181 54 
Q 1900 -91 1497 -91 
Q 953 -91 614 226 
Q 275 544 275 1050 
Q 275 1666 698 1953 
Q 1122 2241 2028 2241 
L 2688 2241 
L 2688 2328 
Q 2688 2594 2478 2717 
Q 2269 2841 1825 2841 
Q 1466 2841 1156 2769 
Q 847 2697 581 2553 
L 581 3406 
Q 941 3494 1303 3539 
Q 1666 3584 2028 3584 
Q 2975 3584 3395 3211 
Q 3816 2838 3816 1997 
z
" transform="scale(0.015625)"/>
      <path id="DejaVuSans-Bold-70" d="M 1656 506 
L 1656 -1331 
L 538 -1331 
L 538 3500 
L 1656 3500 
L 1656 2988 
Q 1888 3294 2169 3439 
Q 2450 3584 2816 3584 
Q 3463 3584 3878 3070 
Q 4294 2556 4294 1747 
Q 4294 938 3878 423 
Q 3463 -91 2816 -91 
Q 2450 -91 2169 54 
Q 1888 200 1656 506 
z
M 2400 2772 
Q 2041 2772 1848 2508 
Q 1656 2244 1656 1747 
Q 1656 1250 1848 986 
Q 2041 722 2400 722 
Q 2759 722 2948 984 
Q 3138 1247 3138 1747 
Q 3138 2247 2948 2509 
Q 2759 2772 2400 2772 
z
" transform="scale(0.015625)"/>
      <path id="DejaVuSans-Bold-69" d="M 538 3500 
L 1656 3500 
L 1656 0 
L 538 0 
L 538 3500 
z
M 538 4863 
L 1656 4863 
L 1656 3950 
L 538 3950 
L 538 4863 
z
" transform="scale(0.015625)"/>
      <path id="DejaVuSans-Bold-7a" d="M 366 3500 
L 3419 3500 
L 3419 2719 
L 1575 800 
L 3419 800 
L 3419 0 
L 288 0 
L 288 781 
L 2131 2700 
L 366 2700 
L 366 3500 
z
" transform="scale(0.015625)"/>
      <path id="DejaVuSans-Bold-6e" d="M 4056 2131 
L 4056 0 
L 2931 0 
L 2931 347 
L 2931 1631 
Q 2931 2084 2911 2256 
Q 2891 2428 2841 2509 
Q 2775 2619 2662 2680 
Q 2550 2741 2406 2741 
Q 2056 2741 1856 2470 
Q 1656 2200 1656 1722 
L 1656 0 
L 538 0 
L 538 3500 
L 1656 3500 
L 1656 2988 
Q 1909 3294 2193 3439 
Q 2478 3584 2822 3584 
Q 3428 3584 3742 3212 
Q 4056 2841 4056 2131 
z
" transform="scale(0.015625)"/>
      <path id="DejaVuSans-Bold-65" d="M 4031 1759 
L 4031 1441 
L 1416 1441 
Q 1456 1047 1700 850 
Q 1944 653 2381 653 
Q 2734 653 3104 758 
Q 3475 863 3866 1075 
L 3866 213 
Q 3469 63 3072 -14 
Q 2675 -91 2278 -91 
Q 1328 -91 801 392 
Q 275 875 275 1747 
Q 275 2603 792 3093 
Q 1309 3584 2216 3584 
Q 3041 3584 3536 3087 
Q 4031 2591 4031 1759 
z
M 2881 2131 
Q 2881 2450 2695 2645 
Q 2509 2841 2209 2841 
Q 1884 2841 1681 2658 
Q 1478 2475 1428 2131 
L 2881 2131 
z
" transform="scale(0.015625)"/>
      <path id="DejaVuSans-Bold-20" transform="scale(0.015625)"/>
      <path id="DejaVuSans-Bold-6c" d="M 538 4863 
L 1656 4863 
L 1656 0 
L 538 0 
L 538 4863 
z
" transform="scale(0.015625)"/>
      <path id="DejaVuSans-Bold-75" d="M 500 1363 
L 500 3500 
L 1625 3500 
L 1625 3150 
Q 1625 2866 1622 2436 
Q 1619 2006 1619 1863 
Q 1619 1441 1641 1255 
Q 1663 1069 1716 984 
Q 1784 875 1895 815 
Q 2006 756 2150 756 
Q 2500 756 2700 1025 
Q 2900 1294 2900 1772 
L 2900 3500 
L 4019 3500 
L 4019 0 
L 2900 0 
L 2900 506 
Q 2647 200 2364 54 
Q 2081 -91 1741 -91 
Q 1134 -91 817 281 
Q 500 653 500 1363 
z
" transform="scale(0.015625)"/>
      <path id="DejaVuSans-Bold-67" d="M 2919 594 
Q 2688 288 2409 144 
Q 2131 0 1766 0 
Q 1125 0 706 504 
Q 288 1009 288 1791 
Q 288 2575 706 3076 
Q 1125 3578 1766 3578 
Q 2131 3578 2409 3434 
Q 2688 3291 2919 2981 
L 2919 3500 
L 4044 3500 
L 4044 353 
Q 4044 -491 3511 -936 
Q 2978 -1381 1966 -1381 
Q 1638 -1381 1331 -1331 
Q 1025 -1281 716 -1178 
L 716 -306 
Q 1009 -475 1290 -558 
Q 1572 -641 1856 -641 
Q 2406 -641 2662 -400 
Q 2919 -159 2919 353 
L 2919 594 
z
M 2181 2772 
Q 1834 2772 1640 2515 
Q 1447 2259 1447 1791 
Q 1447 1309 1634 1061 
Q 1822 813 2181 813 
Q 2531 813 2725 1069 
Q 2919 1325 2919 1791 
Q 2919 2259 2725 2515 
Q 2531 2772 2181 2772 
z
" transform="scale(0.015625)"/>
     </defs>
     <use xlink:href="#DejaVuSans-Bold-73" transform="translate(0 0.015625)"/>
     <use xlink:href="#DejaVuSans-Bold-6f" transform="translate(59.521484 0.015625)"/>
     <use xlink:href="#DejaVuSans-Bold-76" transform="translate(128.222656 0.015625)"/>
     <use xlink:href="#DejaVuSans-Bold-72" transform="translate(193.408203 0.015625)"/>
     <use xlink:href="#DejaVuSans-Bold-61" transform="translate(242.724609 0.015625)"/>
     <use xlink:href="#DejaVuSans-Bold-70" transform="translate(310.205078 0.015625)"/>
     <use xlink:href="#DejaVuSans-Bold-70" transform="translate(381.787109 0.015625)"/>
     <use xlink:href="#DejaVuSans-Bold-6f" transform="translate(453.369141 0.015625)"/>
     <use xlink:href="#DejaVuSans-Bold-73" transform="translate(522.070312 0.015625)"/>
     <use xlink:href="#DejaVuSans-Bold-69" transform="translate(581.591797 0.015625)"/>
     <use xlink:href="#DejaVuSans-Bold-7a" transform="translate(615.869141 0.015625)"/>
     <use xlink:href="#DejaVuSans-Bold-69" transform="translate(674.072266 0.015625)"/>
     <use xlink:href="#DejaVuSans-Bold-6f" transform="translate(708.349609 0.015625)"/>
     <use xlink:href="#DejaVuSans-Bold-6e" transform="translate(777.050781 0.015625)"/>
     <use xlink:href="#DejaVuSans-Bold-65" transform="translate(848.242188 0.015625)"/>
     <use xlink:href="#DejaVuSans-Bold-20" transform="translate(916.064453 0.015625)"/>
     <use xlink:href="#DejaVuSans-Bold-6c" transform="translate(950.878906 0.015625)"/>
     <use xlink:href="#DejaVuSans-Bold-75" transform="translate(985.15625 0.015625)"/>
     <use xlink:href="#DejaVuSans-Bold-6e" transform="translate(1056.347656 0.015625)"/>
     <use xlink:href="#DejaVuSans-Bold-67" transform="translate(1127.539062 0.015625)"/>
     <use xlink:href="#DejaVuSans-Bold-6f" transform="translate(1199.121094 0.015625)"/>
     <use xlink:href="#DejaVuSans-Bold-20" transform="translate(1267.822266 0.015625)"/>
     <use xlink:href="#DejaVuSans-Oblique-79" transform="translate(1302.636719 0.015625)"/>
    </g>
   </g>
  </g>
  <g id="axes_2">
   <g id="patch_7">
    <path d="M 379.386555 199.325726 
C 380.873045 199.325726 382.298851 198.735138 383.349958 197.684031 
C 384.401064 196.632925 384.991653 195.207118 384.991653 193.720629 
C 384.991653 192.23414 384.401064 190.808333 383.349958 189.757226 
C 382.298851 188.70612 380.873045 188.115531 379.386555 188.115531 
C 377.900066 188.115531 376.47426 188.70612 375.423153 189.757226 
C 374.372046 190.808333 373.781458 192.23414 373.781458 193.720629 
C 373.781458 195.207118 374.372046 196.632925 375.423153 197.684031 
C 376.47426 198.735138 377.900066 199.325726 379.386555 199.325726 
z
" clip-path="url(#p7817059646)" style="fill: #1f77b4; opacity: 0.7"/>
   </g>
   <g id="patch_8">
    <path d="M 477.475761 198.391543 
C 478.714502 198.391543 479.902674 197.899386 480.778596 197.023464 
C 481.654518 196.147542 482.146675 194.95937 482.146675 193.720629 
C 482.146675 192.481888 481.654518 191.293716 480.778596 190.417793 
C 479.902674 189.541871 478.714502 189.049714 477.475761 189.049714 
C 476.23702 189.049714 475.048848 189.541871 474.172926 190.417793 
C 473.297003 191.293716 472.804846 192.481888 472.804846 193.720629 
C 472.804846 194.95937 473.297003 196.147542 474.172926 197.023464 
C 475.048848 197.899386 476.23702 198.391543 477.475761 198.391543 
z
" clip-path="url(#p7817059646)" style="fill: #1f77b4; opacity: 0.7"/>
   </g>
   <g id="patch_9">
    <path d="M 412.082957 212.871378 
C 424.160682 212.871378 435.745361 210.853535 444.285602 207.262254 
C 452.825843 203.670973 457.624374 198.799467 457.624374 193.720629 
C 457.624374 188.641791 452.825843 183.770285 444.285602 180.179004 
C 435.745361 176.587723 424.160682 174.569879 412.082957 174.569879 
C 400.005232 174.569879 388.420554 176.587723 379.880313 180.179004 
C 371.340071 183.770285 366.54154 188.641791 366.54154 193.720629 
C 366.54154 198.799467 371.340071 203.670973 379.880313 207.262254 
C 388.420554 210.853535 400.005232 212.871378 412.082957 212.871378 
z
" clip-path="url(#p7817059646)" style="fill: url(#hcd7cd16e59); opacity: 0.28"/>
   </g>
   <g id="patch_10">
    <path d="M 345.288879 210.06883 
C 353.960066 210.06883 362.277272 208.34628 368.408727 205.280553 
C 374.540182 202.214825 377.985281 198.056222 377.985281 193.720629 
C 377.985281 189.385035 374.540182 185.226433 368.408727 182.160705 
C 362.277272 179.094978 353.960066 177.372428 345.288879 177.372428 
C 336.617692 177.372428 328.300487 179.094978 322.169032 182.160705 
C 316.037577 185.226433 312.592478 189.385035 312.592478 193.720629 
C 312.592478 198.056222 316.037577 202.214825 322.169032 205.280553 
C 328.300487 208.34628 336.617692 210.06883 345.288879 210.06883 
z
" clip-path="url(#p7817059646)" style="fill: url(#h13a9647afa); opacity: 0.16"/>
   </g>
   <g id="patch_11">
    <path d="M 477.475761 215.206836 
C 483.17397 215.206836 488.639561 212.942913 492.668803 208.913671 
C 496.698045 204.884429 498.961968 199.418838 498.961968 193.720629 
C 498.961968 188.02242 496.698045 182.556828 492.668803 178.527586 
C 488.639561 174.498344 483.17397 172.234422 477.475761 172.234422 
C 471.777552 172.234422 466.31196 174.498344 462.282718 178.527586 
C 458.253476 182.556828 455.989554 188.02242 455.989554 193.720629 
C 455.989554 199.418838 458.253476 204.884429 462.282718 208.913671 
C 466.31196 212.942913 471.777552 215.206836 477.475761 215.206836 
z
" clip-path="url(#p7817059646)" style="fill: #1f77b4; opacity: 0.18"/>
   </g>
   <g id="line2d_3">
    <path d="M 311.658295 193.720629 
L 503.165791 193.720629 
" clip-path="url(#p7817059646)" style="fill: none; stroke: #1f77b4; stroke-width: 0.8; stroke-linecap: square"/>
   </g>
   <g id="line2d_4">
    <path d="M 379.386555 266.119804 
L 379.386555 116.650539 
" clip-path="url(#p7817059646)" style="fill: none; stroke: #ff7f0e; stroke-width: 0.8; stroke-linecap: square"/>
   </g>
   <g id="text_8">
    <!-- O -->
    <g transform="translate(375.647415 209.134647) scale(0.095 -0.095)">
     <use xlink:href="#DejaVuSans-4f"/>
    </g>
   </g>
   <g id="text_9">
    <!-- H -->
    <g transform="translate(473.903612 209.134647) scale(0.095 -0.095)">
     <use xlink:href="#DejaVuSans-48"/>
    </g>
   </g>
   <g id="text_10">
    <!-- $x$ -->
    <g transform="translate(504.567065 189.049714) scale(0.09 -0.09)">
     <use xlink:href="#DejaVuSans-Oblique-78" transform="translate(0 0.3125)"/>
    </g>
   </g>
   <g id="text_11">
    <!-- $y$ -->
    <g transform="translate(384.05747 114.782173) scale(0.09 -0.09)">
     <use xlink:href="#DejaVuSans-Oblique-79" transform="translate(0 0.3125)"/>
    </g>
   </g>
   <g id="text_12">
    <!-- $2p_x$ -->
    <g transform="translate(434.036256 171.300239) scale(0.095 -0.095)">
     <use xlink:href="#DejaVuSans-32" transform="translate(0 0.78125)"/>
     <use xlink:href="#DejaVuSans-Oblique-70" transform="translate(63.623047 0.78125)"/>
     <use xlink:href="#DejaVuSans-Oblique-78" transform="translate(127.099609 -15.625) scale(0.7)"/>
    </g>
   </g>
   <g id="text_13">
    <!-- $1s$ -->
    <g transform="translate(475.140304 167.096416) scale(0.095 -0.095)">
     <use xlink:href="#DejaVuSans-31" transform="translate(0 0.09375)"/>
     <use xlink:href="#DejaVuSans-Oblique-73" transform="translate(63.623047 0.09375)"/>
    </g>
   </g>
   <g id="text_14">
    <!-- sovrapposizione lungo $x$ -->
    <g transform="translate(334.8375 75.61868) scale(0.11 -0.11)">
     <use xlink:href="#DejaVuSans-Bold-73" transform="translate(0 0.015625)"/>
     <use xlink:href="#DejaVuSans-Bold-6f" transform="translate(59.521484 0.015625)"/>
     <use xlink:href="#DejaVuSans-Bold-76" transform="translate(128.222656 0.015625)"/>
     <use xlink:href="#DejaVuSans-Bold-72" transform="translate(193.408203 0.015625)"/>
     <use xlink:href="#DejaVuSans-Bold-61" transform="translate(242.724609 0.015625)"/>
     <use xlink:href="#DejaVuSans-Bold-70" transform="translate(310.205078 0.015625)"/>
     <use xlink:href="#DejaVuSans-Bold-70" transform="translate(381.787109 0.015625)"/>
     <use xlink:href="#DejaVuSans-Bold-6f" transform="translate(453.369141 0.015625)"/>
     <use xlink:href="#DejaVuSans-Bold-73" transform="translate(522.070312 0.015625)"/>
     <use xlink:href="#DejaVuSans-Bold-69" transform="translate(581.591797 0.015625)"/>
     <use xlink:href="#DejaVuSans-Bold-7a" transform="translate(615.869141 0.015625)"/>
     <use xlink:href="#DejaVuSans-Bold-69" transform="translate(674.072266 0.015625)"/>
     <use xlink:href="#DejaVuSans-Bold-6f" transform="translate(708.349609 0.015625)"/>
     <use xlink:href="#DejaVuSans-Bold-6e" transform="translate(777.050781 0.015625)"/>
     <use xlink:href="#DejaVuSans-Bold-65" transform="translate(848.242188 0.015625)"/>
     <use xlink:href="#DejaVuSans-Bold-20" transform="translate(916.064453 0.015625)"/>
     <use xlink:href="#DejaVuSans-Bold-6c" transform="translate(950.878906 0.015625)"/>
     <use xlink:href="#DejaVuSans-Bold-75" transform="translate(985.15625 0.015625)"/>
     <use xlink:href="#DejaVuSans-Bold-6e" transform="translate(1056.347656 0.015625)"/>
     <use xlink:href="#DejaVuSans-Bold-67" transform="translate(1127.539062 0.015625)"/>
     <use xlink:href="#DejaVuSans-Bold-6f" transform="translate(1199.121094 0.015625)"/>
     <use xlink:href="#DejaVuSans-Bold-20" transform="translate(1267.822266 0.015625)"/>
     <use xlink:href="#DejaVuSans-Oblique-78" transform="translate(1302.636719 0.015625)"/>
    </g>
   </g>
  </g>
  <g id="axes_3">
   <g id="patch_12">
    <path d="M 676.176466 201.661184 
C 677.662955 201.661184 679.088761 201.070595 680.139868 200.019489 
C 681.190975 198.968382 681.781563 197.542575 681.781563 196.056086 
C 681.781563 194.569597 681.190975 193.14379 680.139868 192.092684 
C 679.088761 191.041577 677.662955 190.450989 676.176466 190.450989 
C 674.689976 190.450989 673.26417 191.041577 672.213063 192.092684 
C 671.161956 193.14379 670.571368 194.569597 670.571368 196.056086 
C 670.571368 197.542575 671.161956 198.968382 672.213063 200.019489 
C 673.26417 201.070595 674.689976 201.661184 676.176466 201.661184 
z
" clip-path="url(#p2299b98900)" style="fill: #1f77b4; opacity: 0.7"/>
   </g>
   <g id="patch_13">
    <path d="M 732.985233 143.918233 
C 734.223975 143.918233 735.412147 143.426076 736.288069 142.550153 
C 737.163991 141.674231 737.656148 140.486059 737.656148 139.247318 
C 737.656148 138.008577 737.163991 136.820405 736.288069 135.944483 
C 735.412147 135.068561 734.223975 134.576404 732.985233 134.576404 
C 731.746492 134.576404 730.55832 135.068561 729.682398 135.944483 
C 728.806476 136.820405 728.314319 138.008577 728.314319 139.247318 
C 728.314319 140.486059 728.806476 141.674231 729.682398 142.550153 
C 730.55832 143.426076 731.746492 143.918233 732.985233 143.918233 
z
" clip-path="url(#p2299b98900)" style="fill: #1f77b4; opacity: 0.7"/>
   </g>
   <g id="patch_14">
    <path d="M 711.516804 183.835595 
C 718.305201 177.047198 723.59845 169.317896 726.230774 162.349978 
C 728.863099 155.38206 728.619582 149.744425 725.553854 146.678698 
C 722.488126 143.61297 716.850492 143.369453 709.882573 146.001777 
C 702.914655 148.634102 695.185353 153.927351 688.396956 160.715748 
C 681.608559 167.504145 676.31531 175.233447 673.682986 182.201365 
C 671.050661 189.169283 671.294178 194.806918 674.359906 197.872646 
C 677.425634 200.938373 683.063268 201.181891 690.031187 198.549566 
C 696.999105 195.917241 704.728407 190.623992 711.516804 183.835595 
z
" clip-path="url(#p2299b98900)" style="fill: url(#h8c5b0213e8); opacity: 0.27"/>
   </g>
   <g id="patch_15">
    <path d="M 732.985233 158.865159 
C 738.187946 158.865159 743.178269 156.7981 746.857142 153.119227 
C 750.536015 149.440353 752.603075 144.45003 752.603075 139.247318 
C 752.603075 134.044606 750.536015 129.054283 746.857142 125.37541 
C 743.178269 121.696537 738.187946 119.629477 732.985233 119.629477 
C 727.782521 119.629477 722.792198 121.696537 719.113325 125.37541 
C 715.434452 129.054283 713.367392 134.044606 713.367392 139.247318 
C 713.367392 144.45003 715.434452 149.440353 719.113325 153.119227 
C 722.792198 156.7981 727.782521 158.865159 732.985233 158.865159 
z
" clip-path="url(#p2299b98900)" style="fill: #1f77b4; opacity: 0.16"/>
   </g>
   <g id="patch_16">
    <path d="M 619.367698 143.918233 
C 620.606439 143.918233 621.794611 143.426076 622.670533 142.550153 
C 623.546455 141.674231 624.038612 140.486059 624.038612 139.247318 
C 624.038612 138.008577 623.546455 136.820405 622.670533 135.944483 
C 621.794611 135.068561 620.606439 134.576404 619.367698 134.576404 
C 618.128957 134.576404 616.940784 135.068561 616.064862 135.944483 
C 615.18894 136.820405 614.696783 138.008577 614.696783 139.247318 
C 614.696783 140.486059 615.18894 141.674231 616.064862 142.550153 
C 616.940784 143.426076 618.128957 143.918233 619.367698 143.918233 
z
" clip-path="url(#p2299b98900)" style="fill: #1f77b4; opacity: 0.7"/>
   </g>
   <g id="patch_17">
    <path d="M 663.955975 160.715748 
C 657.167578 153.927351 649.438276 148.634102 642.470358 146.001777 
C 635.502439 143.369453 629.864805 143.61297 626.799077 146.678698 
C 623.733349 149.744425 623.489832 155.38206 626.122157 162.349978 
C 628.754481 169.317896 634.04773 177.047198 640.836127 183.835595 
C 647.624524 190.623992 655.353826 195.917241 662.321744 198.549566 
C 669.289663 201.181891 674.927297 200.938373 677.993025 197.872646 
C 681.058753 194.806918 681.30227 189.169283 678.669945 182.201365 
C 676.037621 175.233447 670.744372 167.504145 663.955975 160.715748 
z
" clip-path="url(#p2299b98900)" style="fill: url(#h8c5b0213e8); opacity: 0.27"/>
   </g>
   <g id="patch_18">
    <path d="M 619.367698 158.865159 
C 624.57041 158.865159 629.560733 156.7981 633.239606 153.119227 
C 636.918479 149.440353 638.985539 144.45003 638.985539 139.247318 
C 638.985539 134.044606 636.918479 129.054283 633.239606 125.37541 
C 629.560733 121.696537 624.57041 119.629477 619.367698 119.629477 
C 614.164985 119.629477 609.174662 121.696537 605.495789 125.37541 
C 601.816916 129.054283 599.749856 134.044606 599.749856 139.247318 
C 599.749856 144.45003 601.816916 149.440353 605.495789 153.119227 
C 609.174662 156.7981 614.164985 158.865159 619.367698 158.865159 
z
" clip-path="url(#p2299b98900)" style="fill: #1f77b4; opacity: 0.16"/>
   </g>
   <g id="patch_19">
    <path d="M 698.470604 173.761948 
C 692.560099 167.851442 684.535183 164.527413 676.176466 164.527413 
C 667.817748 164.527413 659.792832 167.851442 653.882327 173.761948 
" clip-path="url(#p2299b98900)" style="fill: none; stroke: #000000; stroke-linejoin: miter"/>
   </g>
   <g id="line2d_5">
    <path d="M 676.176466 196.056086 
L 732.985233 139.247318 
" clip-path="url(#p2299b98900)" style="fill: none; stroke-dasharray: 0.8,1.32; stroke-dashoffset: 0; stroke: #1f77b4; stroke-width: 0.8"/>
   </g>
   <g id="line2d_6">
    <path d="M 676.176466 196.056086 
L 619.367698 139.247318 
" clip-path="url(#p2299b98900)" style="fill: none; stroke-dasharray: 0.8,1.32; stroke-dashoffset: 0; stroke: #ff7f0e; stroke-width: 0.8"/>
   </g>
   <g id="text_15">
    <!-- O -->
    <g transform="translate(672.437325 211.470104) scale(0.095 -0.095)">
     <use xlink:href="#DejaVuSans-4f"/>
    </g>
   </g>
   <g id="text_16">
    <!-- H -->
    <g transform="translate(729.413085 154.661336) scale(0.095 -0.095)">
     <use xlink:href="#DejaVuSans-48"/>
    </g>
   </g>
   <g id="text_17">
    <!-- H -->
    <g transform="translate(615.795549 154.661336) scale(0.095 -0.095)">
     <use xlink:href="#DejaVuSans-48"/>
    </g>
   </g>
   <g id="text_18">
    <!-- $90^\circ$ -->
    <g transform="translate(666.533966 157.287495) scale(0.095 -0.095)">
     <defs>
      <path id="DejaVuSans-39" d="M 703 97 
L 703 672 
Q 941 559 1184 500 
Q 1428 441 1663 441 
Q 2288 441 2617 861 
Q 2947 1281 2994 2138 
Q 2813 1869 2534 1725 
Q 2256 1581 1919 1581 
Q 1219 1581 811 2004 
Q 403 2428 403 3163 
Q 403 3881 828 4315 
Q 1253 4750 1959 4750 
Q 2769 4750 3195 4129 
Q 3622 3509 3622 2328 
Q 3622 1225 3098 567 
Q 2575 -91 1691 -91 
Q 1453 -91 1209 -44 
Q 966 3 703 97 
z
M 1959 2075 
Q 2384 2075 2632 2365 
Q 2881 2656 2881 3163 
Q 2881 3666 2632 3958 
Q 2384 4250 1959 4250 
Q 1534 4250 1286 3958 
Q 1038 3666 1038 3163 
Q 1038 2656 1286 2365 
Q 1534 2075 1959 2075 
z
" transform="scale(0.015625)"/>
      <path id="DejaVuSans-30" d="M 2034 4250 
Q 1547 4250 1301 3770 
Q 1056 3291 1056 2328 
Q 1056 1369 1301 889 
Q 1547 409 2034 409 
Q 2525 409 2770 889 
Q 3016 1369 3016 2328 
Q 3016 3291 2770 3770 
Q 2525 4250 2034 4250 
z
M 2034 4750 
Q 2819 4750 3233 4129 
Q 3647 3509 3647 2328 
Q 3647 1150 3233 529 
Q 2819 -91 2034 -91 
Q 1250 -91 836 529 
Q 422 1150 422 2328 
Q 422 3509 836 4129 
Q 1250 4750 2034 4750 
z
" transform="scale(0.015625)"/>
      <path id="DejaVuSans-2218" d="M 2000 2619 
Q 1750 2619 1578 2445 
Q 1406 2272 1406 2022 
Q 1406 1775 1578 1605 
Q 1750 1435 2000 1435 
Q 2250 1435 2422 1605 
Q 2594 1775 2594 2022 
Q 2594 2269 2420 2444 
Q 2247 2619 2000 2619 
z
M 2000 3022 
Q 2200 3022 2384 2945 
Q 2569 2869 2703 2725 
Q 2847 2585 2919 2406 
Q 2991 2228 2991 2022 
Q 2991 1610 2702 1324 
Q 2413 1038 1994 1038 
Q 1572 1038 1290 1319 
Q 1009 1600 1009 2022 
Q 1009 2441 1296 2731 
Q 1584 3022 2000 3022 
z
" transform="scale(0.015625)"/>
     </defs>
     <use xlink:href="#DejaVuSans-39" transform="translate(0 0.78125)"/>
     <use xlink:href="#DejaVuSans-30" transform="translate(63.623047 0.78125)"/>
     <use xlink:href="#DejaVuSans-2218" transform="translate(141.84082 39.0625) scale(0.7)"/>
    </g>
   </g>
   <g id="text_19">
    <!-- costruzione per massimo overlap -->
    <g transform="translate(573.247403 73.283223) scale(0.11 -0.11)">
     <defs>
      <path id="DejaVuSans-Bold-63" d="M 3366 3391 
L 3366 2478 
Q 3138 2634 2908 2709 
Q 2678 2784 2431 2784 
Q 1963 2784 1702 2511 
Q 1441 2238 1441 1747 
Q 1441 1256 1702 982 
Q 1963 709 2431 709 
Q 2694 709 2930 787 
Q 3166 866 3366 1019 
L 3366 103 
Q 3103 6 2833 -42 
Q 2563 -91 2291 -91 
Q 1344 -91 809 395 
Q 275 881 275 1747 
Q 275 2613 809 3098 
Q 1344 3584 2291 3584 
Q 2566 3584 2833 3536 
Q 3100 3488 3366 3391 
z
" transform="scale(0.015625)"/>
      <path id="DejaVuSans-Bold-74" d="M 1759 4494 
L 1759 3500 
L 2913 3500 
L 2913 2700 
L 1759 2700 
L 1759 1216 
Q 1759 972 1856 886 
Q 1953 800 2241 800 
L 2816 800 
L 2816 0 
L 1856 0 
Q 1194 0 917 276 
Q 641 553 641 1216 
L 641 2700 
L 84 2700 
L 84 3500 
L 641 3500 
L 641 4494 
L 1759 4494 
z
" transform="scale(0.015625)"/>
      <path id="DejaVuSans-Bold-6d" d="M 3781 2919 
Q 3994 3244 4286 3414 
Q 4578 3584 4928 3584 
Q 5531 3584 5847 3212 
Q 6163 2841 6163 2131 
L 6163 0 
L 5038 0 
L 5038 1825 
Q 5041 1866 5042 1909 
Q 5044 1953 5044 2034 
Q 5044 2406 4934 2573 
Q 4825 2741 4581 2741 
Q 4263 2741 4089 2478 
Q 3916 2216 3909 1719 
L 3909 0 
L 2784 0 
L 2784 1825 
Q 2784 2406 2684 2573 
Q 2584 2741 2328 2741 
Q 2006 2741 1831 2477 
Q 1656 2213 1656 1722 
L 1656 0 
L 531 0 
L 531 3500 
L 1656 3500 
L 1656 2988 
Q 1863 3284 2130 3434 
Q 2397 3584 2719 3584 
Q 3081 3584 3359 3409 
Q 3638 3234 3781 2919 
z
" transform="scale(0.015625)"/>
     </defs>
     <use xlink:href="#DejaVuSans-Bold-63"/>
     <use xlink:href="#DejaVuSans-Bold-6f" transform="translate(59.277344 0)"/>
     <use xlink:href="#DejaVuSans-Bold-73" transform="translate(127.978516 0)"/>
     <use xlink:href="#DejaVuSans-Bold-74" transform="translate(187.5 0)"/>
     <use xlink:href="#DejaVuSans-Bold-72" transform="translate(235.302734 0)"/>
     <use xlink:href="#DejaVuSans-Bold-75" transform="translate(284.619141 0)"/>
     <use xlink:href="#DejaVuSans-Bold-7a" transform="translate(355.810547 0)"/>
     <use xlink:href="#DejaVuSans-Bold-69" transform="translate(414.013672 0)"/>
     <use xlink:href="#DejaVuSans-Bold-6f" transform="translate(448.291016 0)"/>
     <use xlink:href="#DejaVuSans-Bold-6e" transform="translate(516.992188 0)"/>
     <use xlink:href="#DejaVuSans-Bold-65" transform="translate(588.183594 0)"/>
     <use xlink:href="#DejaVuSans-Bold-20" transform="translate(656.005859 0)"/>
     <use xlink:href="#DejaVuSans-Bold-70" transform="translate(690.820312 0)"/>
     <use xlink:href="#DejaVuSans-Bold-65" transform="translate(762.402344 0)"/>
     <use xlink:href="#DejaVuSans-Bold-72" transform="translate(830.224609 0)"/>
     <use xlink:href="#DejaVuSans-Bold-20" transform="translate(879.541016 0)"/>
     <use xlink:href="#DejaVuSans-Bold-6d" transform="translate(914.355469 0)"/>
     <use xlink:href="#DejaVuSans-Bold-61" transform="translate(1018.554688 0)"/>
     <use xlink:href="#DejaVuSans-Bold-73" transform="translate(1086.035156 0)"/>
     <use xlink:href="#DejaVuSans-Bold-73" transform="translate(1145.556641 0)"/>
     <use xlink:href="#DejaVuSans-Bold-69" transform="translate(1205.078125 0)"/>
     <use xlink:href="#DejaVuSans-Bold-6d" transform="translate(1239.355469 0)"/>
     <use xlink:href="#DejaVuSans-Bold-6f" transform="translate(1343.554688 0)"/>
     <use xlink:href="#DejaVuSans-Bold-20" transform="translate(1412.255859 0)"/>
     <use xlink:href="#DejaVuSans-Bold-6f" transform="translate(1447.070312 0)"/>
     <use xlink:href="#DejaVuSans-Bold-76" transform="translate(1515.771484 0)"/>
     <use xlink:href="#DejaVuSans-Bold-65" transform="translate(1580.957031 0)"/>
     <use xlink:href="#DejaVuSans-Bold-72" transform="translate(1648.779297 0)"/>
     <use xlink:href="#DejaVuSans-Bold-6c" transform="translate(1698.095703 0)"/>
     <use xlink:href="#DejaVuSans-Bold-61" transform="translate(1732.373047 0)"/>
     <use xlink:href="#DejaVuSans-Bold-70" transform="translate(1799.853516 0)"/>
    </g>
   </g>
  </g>
  <g id="axes_4">
   <g id="patch_20">
    <path d="M 409.7475 514.501214 
C 411.471169 514.501214 413.124472 513.816393 414.34329 512.597576 
C 415.562108 511.378758 416.246929 509.725454 416.246929 508.001786 
C 416.246929 506.278117 415.562108 504.624813 414.34329 503.405996 
C 413.124472 502.187178 411.471169 501.502357 409.7475 501.502357 
C 408.023831 501.502357 406.370528 502.187178 405.15171 503.405996 
C 403.932892 504.624813 403.248071 506.278117 403.248071 508.001786 
C 403.248071 509.725454 403.932892 511.378758 405.15171 512.597576 
C 406.370528 513.816393 408.023831 514.501214 409.7475 514.501214 
z
" clip-path="url(#p5501e89c68)" style="fill: #1f77b4; opacity: 0.7"/>
   </g>
   <g id="patch_21">
    <path d="M 461.972695 445.426583 
C 463.265447 445.426583 464.505424 444.912967 465.419538 443.998854 
C 466.333651 443.084741 466.847267 441.844763 466.847267 440.552012 
C 466.847267 439.25926 466.333651 438.019282 465.419538 437.105169 
C 464.505424 436.191056 463.265447 435.67744 461.972695 435.67744 
C 460.679944 435.67744 459.439966 436.191056 458.525853 437.105169 
C 457.611739 438.019282 457.098124 439.25926 457.098124 440.552012 
C 457.098124 441.844763 457.611739 443.084741 458.525853 443.998854 
C 459.439966 444.912967 460.679944 445.426583 461.972695 445.426583 
z
" clip-path="url(#p5501e89c68)" style="fill: #1f77b4; opacity: 0.7"/>
   </g>
   <g id="patch_22">
    <path d="M 446.293257 488.00633 
C 454.37259 477.571728 460.734557 466.488744 463.978009 457.198276 
C 467.221462 447.907809 467.081587 441.168384 463.589189 438.464281 
C 460.096792 435.760178 453.537011 437.312175 445.354563 442.778463 
C 437.172114 448.244751 428.035059 457.179032 419.955727 467.613634 
C 411.876395 478.048236 405.514427 489.131221 402.270975 498.421688 
C 399.027522 507.712155 399.167398 514.451581 402.659795 517.155684 
C 406.152192 519.859787 412.711973 518.307789 420.894421 512.841501 
C 429.07687 507.375213 438.213925 498.440932 446.293257 488.00633 
z
" clip-path="url(#p5501e89c68)" style="fill: url(#h14ef42d77c); opacity: 0.23"/>
   </g>
   <g id="patch_23">
    <path d="M 461.972695 460.862726 
C 467.359159 460.862726 472.525733 458.722661 476.334539 454.913855 
C 480.143344 451.10505 482.283409 445.938476 482.283409 440.552012 
C 482.283409 435.165547 480.143344 429.998973 476.334539 426.190168 
C 472.525733 422.381362 467.359159 420.241297 461.972695 420.241297 
C 456.586231 420.241297 451.419657 422.381362 447.610851 426.190168 
C 443.802046 429.998973 441.661981 435.165547 441.661981 440.552012 
C 441.661981 445.938476 443.802046 451.10505 447.610851 454.913855 
C 451.419657 458.722661 456.586231 460.862726 461.972695 460.862726 
z
" clip-path="url(#p5501e89c68)" style="fill: #1f77b4; opacity: 0.14"/>
   </g>
   <g id="patch_24">
    <path d="M 357.522305 445.426583 
C 358.815056 445.426583 360.055034 444.912967 360.969147 443.998854 
C 361.883261 443.084741 362.396876 441.844763 362.396876 440.552012 
C 362.396876 439.25926 361.883261 438.019282 360.969147 437.105169 
C 360.055034 436.191056 358.815056 435.67744 357.522305 435.67744 
C 356.229553 435.67744 354.989576 436.191056 354.075462 437.105169 
C 353.161349 438.019282 352.647733 439.25926 352.647733 440.552012 
C 352.647733 441.844763 353.161349 443.084741 354.075462 443.998854 
C 354.989576 444.912967 356.229553 445.426583 357.522305 445.426583 
z
" clip-path="url(#p5501e89c68)" style="fill: #1f77b4; opacity: 0.7"/>
   </g>
   <g id="patch_25">
    <path d="M 399.539273 467.613634 
C 391.459941 457.179032 382.322886 448.244751 374.140437 442.778463 
C 365.957989 437.312175 359.398208 435.760178 355.905811 438.464281 
C 352.413413 441.168384 352.273538 447.907809 355.516991 457.198276 
C 358.760443 466.488744 365.12241 477.571728 373.201743 488.00633 
C 381.281075 498.440932 390.41813 507.375213 398.600579 512.841501 
C 406.783027 518.307789 413.342808 519.859787 416.835205 517.155684 
C 420.327602 514.451581 420.467478 507.712155 417.224025 498.421688 
C 413.980573 489.131221 407.618605 478.048236 399.539273 467.613634 
z
" clip-path="url(#p5501e89c68)" style="fill: url(#h14ef42d77c); opacity: 0.23"/>
   </g>
   <g id="patch_26">
    <path d="M 357.522305 460.862726 
C 362.908769 460.862726 368.075343 458.722661 371.884149 454.913855 
C 375.692954 451.10505 377.833019 445.938476 377.833019 440.552012 
C 377.833019 435.165547 375.692954 429.998973 371.884149 426.190168 
C 368.075343 422.381362 362.908769 420.241297 357.522305 420.241297 
C 352.135841 420.241297 346.969267 422.381362 343.160461 426.190168 
C 339.351656 429.998973 337.211591 435.165547 337.211591 440.552012 
C 337.211591 445.938476 339.351656 451.10505 343.160461 454.913855 
C 346.969267 458.722661 352.135841 460.862726 357.522305 460.862726 
z
" clip-path="url(#p5501e89c68)" style="fill: #1f77b4; opacity: 0.14"/>
   </g>
   <g id="patch_27">
    <path d="M 410.2278 543.634448 
C 414.211532 552.177589 419.429118 559.720784 424.731446 564.602734 
C 430.033774 569.484684 434.987932 571.306798 438.502824 569.667777 
C 442.017716 568.028756 443.806367 563.062418 443.474847 555.862543 
C 443.143327 548.662667 440.718704 539.817091 436.734972 531.273951 
C 432.75124 522.73081 427.533654 515.187614 422.231326 510.305665 
C 416.928998 505.423715 411.97484 503.601601 408.459948 505.240622 
C 404.945056 506.879643 403.156405 511.84598 403.487925 519.045856 
C 403.819445 526.245732 406.244068 535.091307 410.2278 543.634448 
z
" clip-path="url(#p5501e89c68)" style="fill: url(#hcc07264e8c); opacity: 0.15"/>
   </g>
   <g id="patch_28">
    <path d="M 382.760028 531.273951 
C 378.776296 539.817091 376.351673 548.662667 376.020153 555.862543 
C 375.688633 563.062418 377.477284 568.028756 380.992176 569.667777 
C 384.507068 571.306798 389.461226 569.484684 394.763554 564.602734 
C 400.065882 559.720784 405.283468 552.177589 409.2672 543.634448 
C 413.250932 535.091307 415.675555 526.245732 416.007075 519.045856 
C 416.338595 511.84598 414.549944 506.879643 411.035052 505.240622 
C 407.52016 503.601601 402.566002 505.423715 397.263674 510.305665 
C 391.961346 515.187614 386.74376 522.73081 382.760028 531.273951 
z
" clip-path="url(#p5501e89c68)" style="fill: url(#hcc07264e8c); opacity: 0.15"/>
   </g>
   <g id="patch_29">
    <path d="M 441.86644 483.132645 
C 438.070307 478.229871 433.20152 474.260754 427.634373 471.530424 
C 422.067226 468.800094 415.948131 467.380357 409.7475 467.380357 
C 403.546869 467.380357 397.427774 468.800094 391.860627 471.530424 
C 386.29348 474.260754 381.424693 478.229871 377.62856 483.132645 
" clip-path="url(#p5501e89c68)" style="fill: none; stroke: #000000; stroke-width: 1.2; stroke-linejoin: miter"/>
   </g>
   <g id="line2d_7">
    <path d="M 409.7475 508.001786 
L 461.972695 440.552012 
" clip-path="url(#p5501e89c68)" style="fill: none; stroke-dasharray: 0.75,1.2375; stroke-dashoffset: 0; stroke: #1f77b4; stroke-width: 0.75"/>
   </g>
   <g id="line2d_8">
    <path d="M 409.7475 508.001786 
L 357.522305 440.552012 
" clip-path="url(#p5501e89c68)" style="fill: none; stroke-dasharray: 0.75,1.2375; stroke-dashoffset: 0; stroke: #ff7f0e; stroke-width: 0.75"/>
   </g>
   <g id="line2d_9">
    <path d="M 239.1375 508.001786 
L 580.3575 508.001786 
" clip-path="url(#p5501e89c68)" style="fill: none; stroke: #2ca02c; stroke-width: 0.75; stroke-linecap: square"/>
   </g>
   <g id="line2d_10">
    <path d="M 409.7475 579.089286 
L 409.7475 375.982143 
" clip-path="url(#p5501e89c68)" style="fill: none; stroke: #d62728; stroke-width: 0.75; stroke-linecap: square"/>
   </g>
   <g id="text_20">
    <!-- O -->
    <g transform="translate(406.008359 521.406857) scale(0.095 -0.095)">
     <use xlink:href="#DejaVuSans-4f"/>
    </g>
   </g>
   <g id="text_21">
    <!-- H -->
    <g transform="translate(458.400547 453.957083) scale(0.095 -0.095)">
     <use xlink:href="#DejaVuSans-48"/>
    </g>
   </g>
   <g id="text_22">
    <!-- H -->
    <g transform="translate(353.950156 453.957083) scale(0.095 -0.095)">
     <use xlink:href="#DejaVuSans-48"/>
    </g>
   </g>
   <g id="text_23">
    <!-- $104.5^\circ$ -->
    <g transform="translate(391.6475 458.037429) scale(0.1 -0.1)">
     <defs>
      <path id="DejaVuSans-34" d="M 2419 4116 
L 825 1625 
L 2419 1625 
L 2419 4116 
z
M 2253 4666 
L 3047 4666 
L 3047 1625 
L 3713 1625 
L 3713 1100 
L 3047 1100 
L 3047 0 
L 2419 0 
L 2419 1100 
L 313 1100 
L 313 1709 
L 2253 4666 
z
" transform="scale(0.015625)"/>
      <path id="DejaVuSans-2e" d="M 684 794 
L 1344 794 
L 1344 0 
L 684 0 
L 684 794 
z
" transform="scale(0.015625)"/>
      <path id="DejaVuSans-35" d="M 691 4666 
L 3169 4666 
L 3169 4134 
L 1269 4134 
L 1269 2991 
Q 1406 3038 1543 3061 
Q 1681 3084 1819 3084 
Q 2600 3084 3056 2656 
Q 3513 2228 3513 1497 
Q 3513 744 3044 326 
Q 2575 -91 1722 -91 
Q 1428 -91 1123 -41 
Q 819 9 494 109 
L 494 744 
Q 775 591 1075 516 
Q 1375 441 1709 441 
Q 2250 441 2565 725 
Q 2881 1009 2881 1497 
Q 2881 1984 2565 2268 
Q 2250 2553 1709 2553 
Q 1456 2553 1204 2497 
Q 953 2441 691 2322 
L 691 4666 
z
" transform="scale(0.015625)"/>
     </defs>
     <use xlink:href="#DejaVuSans-31" transform="translate(0 0.78125)"/>
     <use xlink:href="#DejaVuSans-30" transform="translate(63.623047 0.78125)"/>
     <use xlink:href="#DejaVuSans-34" transform="translate(127.246094 0.78125)"/>
     <use xlink:href="#DejaVuSans-2e" transform="translate(190.869141 0.78125)"/>
     <use xlink:href="#DejaVuSans-35" transform="translate(222.65625 0.78125)"/>
     <use xlink:href="#DejaVuSans-2218" transform="translate(300.874023 39.0625) scale(0.7)"/>
    </g>
   </g>
   <g id="text_24">
    <!-- $x$ -->
    <g transform="translate(582.388571 510.485223) scale(0.09 -0.09)">
     <use xlink:href="#DejaVuSans-Oblique-78" transform="translate(0 0.3125)"/>
    </g>
   </g>
   <g id="text_25">
    <!-- $y$ -->
    <g transform="translate(413.809643 373.951071) scale(0.09 -0.09)">
     <use xlink:href="#DejaVuSans-Oblique-79" transform="translate(0 0.3125)"/>
    </g>
   </g>
   <g id="text_26">
    <!-- distribuzione elettronica qualitativa proiettata sul piano molecolare -->
    <g transform="translate(217.576406 583.151429) scale(0.1 -0.1)">
     <defs>
      <path id="DejaVuSans-Bold-64" d="M 2919 2988 
L 2919 4863 
L 4044 4863 
L 4044 0 
L 2919 0 
L 2919 506 
Q 2688 197 2409 53 
Q 2131 -91 1766 -91 
Q 1119 -91 703 423 
Q 288 938 288 1747 
Q 288 2556 703 3070 
Q 1119 3584 1766 3584 
Q 2128 3584 2408 3439 
Q 2688 3294 2919 2988 
z
M 2181 722 
Q 2541 722 2730 984 
Q 2919 1247 2919 1747 
Q 2919 2247 2730 2509 
Q 2541 2772 2181 2772 
Q 1825 2772 1636 2509 
Q 1447 2247 1447 1747 
Q 1447 1247 1636 984 
Q 1825 722 2181 722 
z
" transform="scale(0.015625)"/>
      <path id="DejaVuSans-Bold-62" d="M 2400 722 
Q 2759 722 2948 984 
Q 3138 1247 3138 1747 
Q 3138 2247 2948 2509 
Q 2759 2772 2400 2772 
Q 2041 2772 1848 2508 
Q 1656 2244 1656 1747 
Q 1656 1250 1848 986 
Q 2041 722 2400 722 
z
M 1656 2988 
Q 1888 3294 2169 3439 
Q 2450 3584 2816 3584 
Q 3463 3584 3878 3070 
Q 4294 2556 4294 1747 
Q 4294 938 3878 423 
Q 3463 -91 2816 -91 
Q 2450 -91 2169 54 
Q 1888 200 1656 506 
L 1656 0 
L 538 0 
L 538 4863 
L 1656 4863 
L 1656 2988 
z
" transform="scale(0.015625)"/>
      <path id="DejaVuSans-Bold-71" d="M 2181 2772 
Q 1825 2772 1636 2509 
Q 1447 2247 1447 1747 
Q 1447 1247 1636 984 
Q 1825 722 2181 722 
Q 2541 722 2730 984 
Q 2919 1247 2919 1747 
Q 2919 2247 2730 2509 
Q 2541 2772 2181 2772 
z
M 2919 506 
Q 2688 197 2409 53 
Q 2131 -91 1766 -91 
Q 1119 -91 703 423 
Q 288 938 288 1747 
Q 288 2556 703 3067 
Q 1119 3578 1766 3578 
Q 2131 3578 2409 3434 
Q 2688 3291 2919 2981 
L 2919 3500 
L 4044 3500 
L 4044 -1331 
L 2919 -1331 
L 2919 506 
z
" transform="scale(0.015625)"/>
     </defs>
     <use xlink:href="#DejaVuSans-Bold-64"/>
     <use xlink:href="#DejaVuSans-Bold-69" transform="translate(71.582031 0)"/>
     <use xlink:href="#DejaVuSans-Bold-73" transform="translate(105.859375 0)"/>
     <use xlink:href="#DejaVuSans-Bold-74" transform="translate(165.380859 0)"/>
     <use xlink:href="#DejaVuSans-Bold-72" transform="translate(213.183594 0)"/>
     <use xlink:href="#DejaVuSans-Bold-69" transform="translate(262.5 0)"/>
     <use xlink:href="#DejaVuSans-Bold-62" transform="translate(296.777344 0)"/>
     <use xlink:href="#DejaVuSans-Bold-75" transform="translate(368.359375 0)"/>
     <use xlink:href="#DejaVuSans-Bold-7a" transform="translate(439.550781 0)"/>
     <use xlink:href="#DejaVuSans-Bold-69" transform="translate(497.753906 0)"/>
     <use xlink:href="#DejaVuSans-Bold-6f" transform="translate(532.03125 0)"/>
     <use xlink:href="#DejaVuSans-Bold-6e" transform="translate(600.732422 0)"/>
     <use xlink:href="#DejaVuSans-Bold-65" transform="translate(671.923828 0)"/>
     <use xlink:href="#DejaVuSans-Bold-20" transform="translate(739.746094 0)"/>
     <use xlink:href="#DejaVuSans-Bold-65" transform="translate(774.560547 0)"/>
     <use xlink:href="#DejaVuSans-Bold-6c" transform="translate(842.382812 0)"/>
     <use xlink:href="#DejaVuSans-Bold-65" transform="translate(876.660156 0)"/>
     <use xlink:href="#DejaVuSans-Bold-74" transform="translate(944.482422 0)"/>
     <use xlink:href="#DejaVuSans-Bold-74" transform="translate(992.285156 0)"/>
     <use xlink:href="#DejaVuSans-Bold-72" transform="translate(1040.087891 0)"/>
     <use xlink:href="#DejaVuSans-Bold-6f" transform="translate(1089.404297 0)"/>
     <use xlink:href="#DejaVuSans-Bold-6e" transform="translate(1158.105469 0)"/>
     <use xlink:href="#DejaVuSans-Bold-69" transform="translate(1229.296875 0)"/>
     <use xlink:href="#DejaVuSans-Bold-63" transform="translate(1263.574219 0)"/>
     <use xlink:href="#DejaVuSans-Bold-61" transform="translate(1322.851562 0)"/>
     <use xlink:href="#DejaVuSans-Bold-20" transform="translate(1390.332031 0)"/>
     <use xlink:href="#DejaVuSans-Bold-71" transform="translate(1425.146484 0)"/>
     <use xlink:href="#DejaVuSans-Bold-75" transform="translate(1496.728516 0)"/>
     <use xlink:href="#DejaVuSans-Bold-61" transform="translate(1567.919922 0)"/>
     <use xlink:href="#DejaVuSans-Bold-6c" transform="translate(1635.400391 0)"/>
     <use xlink:href="#DejaVuSans-Bold-69" transform="translate(1669.677734 0)"/>
     <use xlink:href="#DejaVuSans-Bold-74" transform="translate(1703.955078 0)"/>
     <use xlink:href="#DejaVuSans-Bold-61" transform="translate(1751.757812 0)"/>
     <use xlink:href="#DejaVuSans-Bold-74" transform="translate(1819.238281 0)"/>
     <use xlink:href="#DejaVuSans-Bold-69" transform="translate(1867.041016 0)"/>
     <use xlink:href="#DejaVuSans-Bold-76" transform="translate(1901.318359 0)"/>
     <use xlink:href="#DejaVuSans-Bold-61" transform="translate(1966.503906 0)"/>
     <use xlink:href="#DejaVuSans-Bold-20" transform="translate(2033.984375 0)"/>
     <use xlink:href="#DejaVuSans-Bold-70" transform="translate(2068.798828 0)"/>
     <use xlink:href="#DejaVuSans-Bold-72" transform="translate(2140.380859 0)"/>
     <use xlink:href="#DejaVuSans-Bold-6f" transform="translate(2189.697266 0)"/>
     <use xlink:href="#DejaVuSans-Bold-69" transform="translate(2258.398438 0)"/>
     <use xlink:href="#DejaVuSans-Bold-65" transform="translate(2292.675781 0)"/>
     <use xlink:href="#DejaVuSans-Bold-74" transform="translate(2360.498047 0)"/>
     <use xlink:href="#DejaVuSans-Bold-74" transform="translate(2408.300781 0)"/>
     <use xlink:href="#DejaVuSans-Bold-61" transform="translate(2456.103516 0)"/>
     <use xlink:href="#DejaVuSans-Bold-74" transform="translate(2523.583984 0)"/>
     <use xlink:href="#DejaVuSans-Bold-61" transform="translate(2571.386719 0)"/>
     <use xlink:href="#DejaVuSans-Bold-20" transform="translate(2638.867188 0)"/>
     <use xlink:href="#DejaVuSans-Bold-73" transform="translate(2673.681641 0)"/>
     <use xlink:href="#DejaVuSans-Bold-75" transform="translate(2733.203125 0)"/>
     <use xlink:href="#DejaVuSans-Bold-6c" transform="translate(2804.394531 0)"/>
     <use xlink:href="#DejaVuSans-Bold-20" transform="translate(2838.671875 0)"/>
     <use xlink:href="#DejaVuSans-Bold-70" transform="translate(2873.486328 0)"/>
     <use xlink:href="#DejaVuSans-Bold-69" transform="translate(2945.068359 0)"/>
     <use xlink:href="#DejaVuSans-Bold-61" transform="translate(2979.345703 0)"/>
     <use xlink:href="#DejaVuSans-Bold-6e" transform="translate(3046.826172 0)"/>
     <use xlink:href="#DejaVuSans-Bold-6f" transform="translate(3118.017578 0)"/>
     <use xlink:href="#DejaVuSans-Bold-20" transform="translate(3186.71875 0)"/>
     <use xlink:href="#DejaVuSans-Bold-6d" transform="translate(3221.533203 0)"/>
     <use xlink:href="#DejaVuSans-Bold-6f" transform="translate(3325.732422 0)"/>
     <use xlink:href="#DejaVuSans-Bold-6c" transform="translate(3394.433594 0)"/>
     <use xlink:href="#DejaVuSans-Bold-65" transform="translate(3428.710938 0)"/>
     <use xlink:href="#DejaVuSans-Bold-63" transform="translate(3496.533203 0)"/>
     <use xlink:href="#DejaVuSans-Bold-6f" transform="translate(3555.810547 0)"/>
     <use xlink:href="#DejaVuSans-Bold-6c" transform="translate(3624.511719 0)"/>
     <use xlink:href="#DejaVuSans-Bold-61" transform="translate(3658.789062 0)"/>
     <use xlink:href="#DejaVuSans-Bold-72" transform="translate(3726.269531 0)"/>
     <use xlink:href="#DejaVuSans-Bold-65" transform="translate(3775.585938 0)"/>
    </g>
   </g>
  </g>
  <g id="text_27">
   <!-- Formazione qualitativa dei legami nella molecola d'acqua -->
   <g transform="translate(154.364063 18.597656) scale(0.15 -0.15)">
    <defs>
     <path id="DejaVuSans-Bold-46" d="M 588 4666 
L 3834 4666 
L 3834 3756 
L 1791 3756 
L 1791 2888 
L 3713 2888 
L 3713 1978 
L 1791 1978 
L 1791 0 
L 588 0 
L 588 4666 
z
" transform="scale(0.015625)"/>
     <path id="DejaVuSans-Bold-27" d="M 1350 4666 
L 1350 2931 
L 609 2931 
L 609 4666 
L 1350 4666 
z
" transform="scale(0.015625)"/>
    </defs>
    <use xlink:href="#DejaVuSans-Bold-46"/>
    <use xlink:href="#DejaVuSans-Bold-6f" transform="translate(64.310547 0)"/>
    <use xlink:href="#DejaVuSans-Bold-72" transform="translate(133.011719 0)"/>
    <use xlink:href="#DejaVuSans-Bold-6d" transform="translate(182.328125 0)"/>
    <use xlink:href="#DejaVuSans-Bold-61" transform="translate(286.527344 0)"/>
    <use xlink:href="#DejaVuSans-Bold-7a" transform="translate(354.007812 0)"/>
    <use xlink:href="#DejaVuSans-Bold-69" transform="translate(412.210938 0)"/>
    <use xlink:href="#DejaVuSans-Bold-6f" transform="translate(446.488281 0)"/>
    <use xlink:href="#DejaVuSans-Bold-6e" transform="translate(515.189453 0)"/>
    <use xlink:href="#DejaVuSans-Bold-65" transform="translate(586.380859 0)"/>
    <use xlink:href="#DejaVuSans-Bold-20" transform="translate(654.203125 0)"/>
    <use xlink:href="#DejaVuSans-Bold-71" transform="translate(689.017578 0)"/>
    <use xlink:href="#DejaVuSans-Bold-75" transform="translate(760.599609 0)"/>
    <use xlink:href="#DejaVuSans-Bold-61" transform="translate(831.791016 0)"/>
    <use xlink:href="#DejaVuSans-Bold-6c" transform="translate(899.271484 0)"/>
    <use xlink:href="#DejaVuSans-Bold-69" transform="translate(933.548828 0)"/>
    <use xlink:href="#DejaVuSans-Bold-74" transform="translate(967.826172 0)"/>
    <use xlink:href="#DejaVuSans-Bold-61" transform="translate(1015.628906 0)"/>
    <use xlink:href="#DejaVuSans-Bold-74" transform="translate(1083.109375 0)"/>
    <use xlink:href="#DejaVuSans-Bold-69" transform="translate(1130.912109 0)"/>
    <use xlink:href="#DejaVuSans-Bold-76" transform="translate(1165.189453 0)"/>
    <use xlink:href="#DejaVuSans-Bold-61" transform="translate(1230.375 0)"/>
    <use xlink:href="#DejaVuSans-Bold-20" transform="translate(1297.855469 0)"/>
    <use xlink:href="#DejaVuSans-Bold-64" transform="translate(1332.669922 0)"/>
    <use xlink:href="#DejaVuSans-Bold-65" transform="translate(1404.251953 0)"/>
    <use xlink:href="#DejaVuSans-Bold-69" transform="translate(1472.074219 0)"/>
    <use xlink:href="#DejaVuSans-Bold-20" transform="translate(1506.351562 0)"/>
    <use xlink:href="#DejaVuSans-Bold-6c" transform="translate(1541.166016 0)"/>
    <use xlink:href="#DejaVuSans-Bold-65" transform="translate(1575.443359 0)"/>
    <use xlink:href="#DejaVuSans-Bold-67" transform="translate(1643.265625 0)"/>
    <use xlink:href="#DejaVuSans-Bold-61" transform="translate(1714.847656 0)"/>
    <use xlink:href="#DejaVuSans-Bold-6d" transform="translate(1782.328125 0)"/>
    <use xlink:href="#DejaVuSans-Bold-69" transform="translate(1886.527344 0)"/>
    <use xlink:href="#DejaVuSans-Bold-20" transform="translate(1920.804688 0)"/>
    <use xlink:href="#DejaVuSans-Bold-6e" transform="translate(1955.619141 0)"/>
    <use xlink:href="#DejaVuSans-Bold-65" transform="translate(2026.810547 0)"/>
    <use xlink:href="#DejaVuSans-Bold-6c" transform="translate(2094.632812 0)"/>
    <use xlink:href="#DejaVuSans-Bold-6c" transform="translate(2128.910156 0)"/>
    <use xlink:href="#DejaVuSans-Bold-61" transform="translate(2163.1875 0)"/>
    <use xlink:href="#DejaVuSans-Bold-20" transform="translate(2230.667969 0)"/>
    <use xlink:href="#DejaVuSans-Bold-6d" transform="translate(2265.482422 0)"/>
    <use xlink:href="#DejaVuSans-Bold-6f" transform="translate(2369.681641 0)"/>
    <use xlink:href="#DejaVuSans-Bold-6c" transform="translate(2438.382812 0)"/>
    <use xlink:href="#DejaVuSans-Bold-65" transform="translate(2472.660156 0)"/>
    <use xlink:href="#DejaVuSans-Bold-63" transform="translate(2540.482422 0)"/>
    <use xlink:href="#DejaVuSans-Bold-6f" transform="translate(2599.759766 0)"/>
    <use xlink:href="#DejaVuSans-Bold-6c" transform="translate(2668.460938 0)"/>
    <use xlink:href="#DejaVuSans-Bold-61" transform="translate(2702.738281 0)"/>
    <use xlink:href="#DejaVuSans-Bold-20" transform="translate(2770.21875 0)"/>
    <use xlink:href="#DejaVuSans-Bold-64" transform="translate(2805.033203 0)"/>
    <use xlink:href="#DejaVuSans-Bold-27" transform="translate(2876.615234 0)"/>
    <use xlink:href="#DejaVuSans-Bold-61" transform="translate(2907.230469 0)"/>
    <use xlink:href="#DejaVuSans-Bold-63" transform="translate(2974.710938 0)"/>
    <use xlink:href="#DejaVuSans-Bold-71" transform="translate(3033.988281 0)"/>
    <use xlink:href="#DejaVuSans-Bold-75" transform="translate(3105.570312 0)"/>
    <use xlink:href="#DejaVuSans-Bold-61" transform="translate(3176.761719 0)"/>
   </g>
  </g>
  <g id="text_28">
   <!-- Il semplice criterio di massimo overlap suggerisce due legami quasi ortogonali; la distribuzione elettronica reale porta all'angolo molecolare di circa 104,5°. -->
   <g transform="translate(7.2 661.6656) scale(0.1 -0.1)">
    <defs>
     <path id="DejaVuSans-49" d="M 628 4666 
L 1259 4666 
L 1259 0 
L 628 0 
L 628 4666 
z
" transform="scale(0.015625)"/>
     <path id="DejaVuSans-6c" d="M 603 4863 
L 1178 4863 
L 1178 0 
L 603 0 
L 603 4863 
z
" transform="scale(0.015625)"/>
     <path id="DejaVuSans-20" transform="scale(0.015625)"/>
     <path id="DejaVuSans-73" d="M 2834 3397 
L 2834 2853 
Q 2591 2978 2328 3040 
Q 2066 3103 1784 3103 
Q 1356 3103 1142 2972 
Q 928 2841 928 2578 
Q 928 2378 1081 2264 
Q 1234 2150 1697 2047 
L 1894 2003 
Q 2506 1872 2764 1633 
Q 3022 1394 3022 966 
Q 3022 478 2636 193 
Q 2250 -91 1575 -91 
Q 1294 -91 989 -36 
Q 684 19 347 128 
L 347 722 
Q 666 556 975 473 
Q 1284 391 1588 391 
Q 1994 391 2212 530 
Q 2431 669 2431 922 
Q 2431 1156 2273 1281 
Q 2116 1406 1581 1522 
L 1381 1569 
Q 847 1681 609 1914 
Q 372 2147 372 2553 
Q 372 3047 722 3315 
Q 1072 3584 1716 3584 
Q 2034 3584 2315 3537 
Q 2597 3491 2834 3397 
z
" transform="scale(0.015625)"/>
     <path id="DejaVuSans-65" d="M 3597 1894 
L 3597 1613 
L 953 1613 
Q 991 1019 1311 708 
Q 1631 397 2203 397 
Q 2534 397 2845 478 
Q 3156 559 3463 722 
L 3463 178 
Q 3153 47 2828 -22 
Q 2503 -91 2169 -91 
Q 1331 -91 842 396 
Q 353 884 353 1716 
Q 353 2575 817 3079 
Q 1281 3584 2069 3584 
Q 2775 3584 3186 3129 
Q 3597 2675 3597 1894 
z
M 3022 2063 
Q 3016 2534 2758 2815 
Q 2500 3097 2075 3097 
Q 1594 3097 1305 2825 
Q 1016 2553 972 2059 
L 3022 2063 
z
" transform="scale(0.015625)"/>
     <path id="DejaVuSans-6d" d="M 3328 2828 
Q 3544 3216 3844 3400 
Q 4144 3584 4550 3584 
Q 5097 3584 5394 3201 
Q 5691 2819 5691 2113 
L 5691 0 
L 5113 0 
L 5113 2094 
Q 5113 2597 4934 2840 
Q 4756 3084 4391 3084 
Q 3944 3084 3684 2787 
Q 3425 2491 3425 1978 
L 3425 0 
L 2847 0 
L 2847 2094 
Q 2847 2600 2669 2842 
Q 2491 3084 2119 3084 
Q 1678 3084 1418 2786 
Q 1159 2488 1159 1978 
L 1159 0 
L 581 0 
L 581 3500 
L 1159 3500 
L 1159 2956 
Q 1356 3278 1631 3431 
Q 1906 3584 2284 3584 
Q 2666 3584 2933 3390 
Q 3200 3197 3328 2828 
z
" transform="scale(0.015625)"/>
     <path id="DejaVuSans-70" d="M 1159 525 
L 1159 -1331 
L 581 -1331 
L 581 3500 
L 1159 3500 
L 1159 2969 
Q 1341 3281 1617 3432 
Q 1894 3584 2278 3584 
Q 2916 3584 3314 3078 
Q 3713 2572 3713 1747 
Q 3713 922 3314 415 
Q 2916 -91 2278 -91 
Q 1894 -91 1617 61 
Q 1341 213 1159 525 
z
M 3116 1747 
Q 3116 2381 2855 2742 
Q 2594 3103 2138 3103 
Q 1681 3103 1420 2742 
Q 1159 2381 1159 1747 
Q 1159 1113 1420 752 
Q 1681 391 2138 391 
Q 2594 391 2855 752 
Q 3116 1113 3116 1747 
z
" transform="scale(0.015625)"/>
     <path id="DejaVuSans-69" d="M 603 3500 
L 1178 3500 
L 1178 0 
L 603 0 
L 603 3500 
z
M 603 4863 
L 1178 4863 
L 1178 4134 
L 603 4134 
L 603 4863 
z
" transform="scale(0.015625)"/>
     <path id="DejaVuSans-63" d="M 3122 3366 
L 3122 2828 
Q 2878 2963 2633 3030 
Q 2388 3097 2138 3097 
Q 1578 3097 1268 2742 
Q 959 2388 959 1747 
Q 959 1106 1268 751 
Q 1578 397 2138 397 
Q 2388 397 2633 464 
Q 2878 531 3122 666 
L 3122 134 
Q 2881 22 2623 -34 
Q 2366 -91 2075 -91 
Q 1284 -91 818 406 
Q 353 903 353 1747 
Q 353 2603 823 3093 
Q 1294 3584 2113 3584 
Q 2378 3584 2631 3529 
Q 2884 3475 3122 3366 
z
" transform="scale(0.015625)"/>
     <path id="DejaVuSans-72" d="M 2631 2963 
Q 2534 3019 2420 3045 
Q 2306 3072 2169 3072 
Q 1681 3072 1420 2755 
Q 1159 2438 1159 1844 
L 1159 0 
L 581 0 
L 581 3500 
L 1159 3500 
L 1159 2956 
Q 1341 3275 1631 3429 
Q 1922 3584 2338 3584 
Q 2397 3584 2469 3576 
Q 2541 3569 2628 3553 
L 2631 2963 
z
" transform="scale(0.015625)"/>
     <path id="DejaVuSans-74" d="M 1172 4494 
L 1172 3500 
L 2356 3500 
L 2356 3053 
L 1172 3053 
L 1172 1153 
Q 1172 725 1289 603 
Q 1406 481 1766 481 
L 2356 481 
L 2356 0 
L 1766 0 
Q 1100 0 847 248 
Q 594 497 594 1153 
L 594 3053 
L 172 3053 
L 172 3500 
L 594 3500 
L 594 4494 
L 1172 4494 
z
" transform="scale(0.015625)"/>
     <path id="DejaVuSans-6f" d="M 1959 3097 
Q 1497 3097 1228 2736 
Q 959 2375 959 1747 
Q 959 1119 1226 758 
Q 1494 397 1959 397 
Q 2419 397 2687 759 
Q 2956 1122 2956 1747 
Q 2956 2369 2687 2733 
Q 2419 3097 1959 3097 
z
M 1959 3584 
Q 2709 3584 3137 3096 
Q 3566 2609 3566 1747 
Q 3566 888 3137 398 
Q 2709 -91 1959 -91 
Q 1206 -91 779 398 
Q 353 888 353 1747 
Q 353 2609 779 3096 
Q 1206 3584 1959 3584 
z
" transform="scale(0.015625)"/>
     <path id="DejaVuSans-64" d="M 2906 2969 
L 2906 4863 
L 3481 4863 
L 3481 0 
L 2906 0 
L 2906 525 
Q 2725 213 2448 61 
Q 2172 -91 1784 -91 
Q 1150 -91 751 415 
Q 353 922 353 1747 
Q 353 2572 751 3078 
Q 1150 3584 1784 3584 
Q 2172 3584 2448 3432 
Q 2725 3281 2906 2969 
z
M 947 1747 
Q 947 1113 1208 752 
Q 1469 391 1925 391 
Q 2381 391 2643 752 
Q 2906 1113 2906 1747 
Q 2906 2381 2643 2742 
Q 2381 3103 1925 3103 
Q 1469 3103 1208 2742 
Q 947 2381 947 1747 
z
" transform="scale(0.015625)"/>
     <path id="DejaVuSans-61" d="M 2194 1759 
Q 1497 1759 1228 1600 
Q 959 1441 959 1056 
Q 959 750 1161 570 
Q 1363 391 1709 391 
Q 2188 391 2477 730 
Q 2766 1069 2766 1631 
L 2766 1759 
L 2194 1759 
z
M 3341 1997 
L 3341 0 
L 2766 0 
L 2766 531 
Q 2569 213 2275 61 
Q 1981 -91 1556 -91 
Q 1019 -91 701 211 
Q 384 513 384 1019 
Q 384 1609 779 1909 
Q 1175 2209 1959 2209 
L 2766 2209 
L 2766 2266 
Q 2766 2663 2505 2880 
Q 2244 3097 1772 3097 
Q 1472 3097 1187 3025 
Q 903 2953 641 2809 
L 641 3341 
Q 956 3463 1253 3523 
Q 1550 3584 1831 3584 
Q 2591 3584 2966 3190 
Q 3341 2797 3341 1997 
z
" transform="scale(0.015625)"/>
     <path id="DejaVuSans-76" d="M 191 3500 
L 800 3500 
L 1894 563 
L 2988 3500 
L 3597 3500 
L 2284 0 
L 1503 0 
L 191 3500 
z
" transform="scale(0.015625)"/>
     <path id="DejaVuSans-75" d="M 544 1381 
L 544 3500 
L 1119 3500 
L 1119 1403 
Q 1119 906 1312 657 
Q 1506 409 1894 409 
Q 2359 409 2629 706 
Q 2900 1003 2900 1516 
L 2900 3500 
L 3475 3500 
L 3475 0 
L 2900 0 
L 2900 538 
Q 2691 219 2414 64 
Q 2138 -91 1772 -91 
Q 1169 -91 856 284 
Q 544 659 544 1381 
z
M 1991 3584 
L 1991 3584 
z
" transform="scale(0.015625)"/>
     <path id="DejaVuSans-67" d="M 2906 1791 
Q 2906 2416 2648 2759 
Q 2391 3103 1925 3103 
Q 1463 3103 1205 2759 
Q 947 2416 947 1791 
Q 947 1169 1205 825 
Q 1463 481 1925 481 
Q 2391 481 2648 825 
Q 2906 1169 2906 1791 
z
M 3481 434 
Q 3481 -459 3084 -895 
Q 2688 -1331 1869 -1331 
Q 1566 -1331 1297 -1286 
Q 1028 -1241 775 -1147 
L 775 -588 
Q 1028 -725 1275 -790 
Q 1522 -856 1778 -856 
Q 2344 -856 2625 -561 
Q 2906 -266 2906 331 
L 2906 616 
Q 2728 306 2450 153 
Q 2172 0 1784 0 
Q 1141 0 747 490 
Q 353 981 353 1791 
Q 353 2603 747 3093 
Q 1141 3584 1784 3584 
Q 2172 3584 2450 3431 
Q 2728 3278 2906 2969 
L 2906 3500 
L 3481 3500 
L 3481 434 
z
" transform="scale(0.015625)"/>
     <path id="DejaVuSans-71" d="M 947 1747 
Q 947 1113 1208 752 
Q 1469 391 1925 391 
Q 2381 391 2643 752 
Q 2906 1113 2906 1747 
Q 2906 2381 2643 2742 
Q 2381 3103 1925 3103 
Q 1469 3103 1208 2742 
Q 947 2381 947 1747 
z
M 2906 525 
Q 2725 213 2448 61 
Q 2172 -91 1784 -91 
Q 1150 -91 751 415 
Q 353 922 353 1747 
Q 353 2572 751 3078 
Q 1150 3584 1784 3584 
Q 2172 3584 2448 3432 
Q 2725 3281 2906 2969 
L 2906 3500 
L 3481 3500 
L 3481 -1331 
L 2906 -1331 
L 2906 525 
z
" transform="scale(0.015625)"/>
     <path id="DejaVuSans-6e" d="M 3513 2113 
L 3513 0 
L 2938 0 
L 2938 2094 
Q 2938 2591 2744 2837 
Q 2550 3084 2163 3084 
Q 1697 3084 1428 2787 
Q 1159 2491 1159 1978 
L 1159 0 
L 581 0 
L 581 3500 
L 1159 3500 
L 1159 2956 
Q 1366 3272 1645 3428 
Q 1925 3584 2291 3584 
Q 2894 3584 3203 3211 
Q 3513 2838 3513 2113 
z
" transform="scale(0.015625)"/>
     <path id="DejaVuSans-3b" d="M 750 3309 
L 1409 3309 
L 1409 2516 
L 750 2516 
L 750 3309 
z
M 750 794 
L 1409 794 
L 1409 256 
L 897 -744 
L 494 -744 
L 750 256 
L 750 794 
z
" transform="scale(0.015625)"/>
     <path id="DejaVuSans-62" d="M 3116 1747 
Q 3116 2381 2855 2742 
Q 2594 3103 2138 3103 
Q 1681 3103 1420 2742 
Q 1159 2381 1159 1747 
Q 1159 1113 1420 752 
Q 1681 391 2138 391 
Q 2594 391 2855 752 
Q 3116 1113 3116 1747 
z
M 1159 2969 
Q 1341 3281 1617 3432 
Q 1894 3584 2278 3584 
Q 2916 3584 3314 3078 
Q 3713 2572 3713 1747 
Q 3713 922 3314 415 
Q 2916 -91 2278 -91 
Q 1894 -91 1617 61 
Q 1341 213 1159 525 
L 1159 0 
L 581 0 
L 581 4863 
L 1159 4863 
L 1159 2969 
z
" transform="scale(0.015625)"/>
     <path id="DejaVuSans-7a" d="M 353 3500 
L 3084 3500 
L 3084 2975 
L 922 459 
L 3084 459 
L 3084 0 
L 275 0 
L 275 525 
L 2438 3041 
L 353 3041 
L 353 3500 
z
" transform="scale(0.015625)"/>
     <path id="DejaVuSans-27" d="M 1147 4666 
L 1147 2931 
L 616 2931 
L 616 4666 
L 1147 4666 
z
" transform="scale(0.015625)"/>
     <path id="DejaVuSans-2c" d="M 750 794 
L 1409 794 
L 1409 256 
L 897 -744 
L 494 -744 
L 750 256 
L 750 794 
z
" transform="scale(0.015625)"/>
     <path id="DejaVuSans-b0" d="M 1600 4347 
Q 1350 4347 1178 4173 
Q 1006 4000 1006 3750 
Q 1006 3503 1178 3333 
Q 1350 3163 1600 3163 
Q 1850 3163 2022 3333 
Q 2194 3503 2194 3750 
Q 2194 3997 2020 4172 
Q 1847 4347 1600 4347 
z
M 1600 4750 
Q 1800 4750 1984 4673 
Q 2169 4597 2303 4453 
Q 2447 4313 2519 4134 
Q 2591 3956 2591 3750 
Q 2591 3338 2302 3052 
Q 2013 2766 1594 2766 
Q 1172 2766 890 3047 
Q 609 3328 609 3750 
Q 609 4169 896 4459 
Q 1184 4750 1600 4750 
z
" transform="scale(0.015625)"/>
    </defs>
    <use xlink:href="#DejaVuSans-49"/>
    <use xlink:href="#DejaVuSans-6c" transform="translate(29.492188 0)"/>
    <use xlink:href="#DejaVuSans-20" transform="translate(57.275391 0)"/>
    <use xlink:href="#DejaVuSans-73" transform="translate(89.0625 0)"/>
    <use xlink:href="#DejaVuSans-65" transform="translate(141.162109 0)"/>
    <use xlink:href="#DejaVuSans-6d" transform="translate(202.685547 0)"/>
    <use xlink:href="#DejaVuSans-70" transform="translate(300.097656 0)"/>
    <use xlink:href="#DejaVuSans-6c" transform="translate(363.574219 0)"/>
    <use xlink:href="#DejaVuSans-69" transform="translate(391.357422 0)"/>
    <use xlink:href="#DejaVuSans-63" transform="translate(419.140625 0)"/>
    <use xlink:href="#DejaVuSans-65" transform="translate(474.121094 0)"/>
    <use xlink:href="#DejaVuSans-20" transform="translate(535.644531 0)"/>
    <use xlink:href="#DejaVuSans-63" transform="translate(567.431641 0)"/>
    <use xlink:href="#DejaVuSans-72" transform="translate(622.412109 0)"/>
    <use xlink:href="#DejaVuSans-69" transform="translate(663.525391 0)"/>
    <use xlink:href="#DejaVuSans-74" transform="translate(691.308594 0)"/>
    <use xlink:href="#DejaVuSans-65" transform="translate(730.517578 0)"/>
    <use xlink:href="#DejaVuSans-72" transform="translate(792.041016 0)"/>
    <use xlink:href="#DejaVuSans-69" transform="translate(833.154297 0)"/>
    <use xlink:href="#DejaVuSans-6f" transform="translate(860.9375 0)"/>
    <use xlink:href="#DejaVuSans-20" transform="translate(922.119141 0)"/>
    <use xlink:href="#DejaVuSans-64" transform="translate(953.90625 0)"/>
    <use xlink:href="#DejaVuSans-69" transform="translate(1017.382812 0)"/>
    <use xlink:href="#DejaVuSans-20" transform="translate(1045.166016 0)"/>
    <use xlink:href="#DejaVuSans-6d" transform="translate(1076.953125 0)"/>
    <use xlink:href="#DejaVuSans-61" transform="translate(1174.365234 0)"/>
    <use xlink:href="#DejaVuSans-73" transform="translate(1235.644531 0)"/>
    <use xlink:href="#DejaVuSans-73" transform="translate(1287.744141 0)"/>
    <use xlink:href="#DejaVuSans-69" transform="translate(1339.84375 0)"/>
    <use xlink:href="#DejaVuSans-6d" transform="translate(1367.626953 0)"/>
    <use xlink:href="#DejaVuSans-6f" transform="translate(1465.039062 0)"/>
    <use xlink:href="#DejaVuSans-20" transform="translate(1526.220703 0)"/>
    <use xlink:href="#DejaVuSans-6f" transform="translate(1558.007812 0)"/>
    <use xlink:href="#DejaVuSans-76" transform="translate(1619.189453 0)"/>
    <use xlink:href="#DejaVuSans-65" transform="translate(1678.369141 0)"/>
    <use xlink:href="#DejaVuSans-72" transform="translate(1739.892578 0)"/>
    <use xlink:href="#DejaVuSans-6c" transform="translate(1781.005859 0)"/>
    <use xlink:href="#DejaVuSans-61" transform="translate(1808.789062 0)"/>
    <use xlink:href="#DejaVuSans-70" transform="translate(1870.068359 0)"/>
    <use xlink:href="#DejaVuSans-20" transform="translate(1933.544922 0)"/>
    <use xlink:href="#DejaVuSans-73" transform="translate(1965.332031 0)"/>
    <use xlink:href="#DejaVuSans-75" transform="translate(2017.431641 0)"/>
    <use xlink:href="#DejaVuSans-67" transform="translate(2080.810547 0)"/>
    <use xlink:href="#DejaVuSans-67" transform="translate(2144.287109 0)"/>
    <use xlink:href="#DejaVuSans-65" transform="translate(2207.763672 0)"/>
    <use xlink:href="#DejaVuSans-72" transform="translate(2269.287109 0)"/>
    <use xlink:href="#DejaVuSans-69" transform="translate(2310.400391 0)"/>
    <use xlink:href="#DejaVuSans-73" transform="translate(2338.183594 0)"/>
    <use xlink:href="#DejaVuSans-63" transform="translate(2390.283203 0)"/>
    <use xlink:href="#DejaVuSans-65" transform="translate(2445.263672 0)"/>
    <use xlink:href="#DejaVuSans-20" transform="translate(2506.787109 0)"/>
    <use xlink:href="#DejaVuSans-64" transform="translate(2538.574219 0)"/>
    <use xlink:href="#DejaVuSans-75" transform="translate(2602.050781 0)"/>
    <use xlink:href="#DejaVuSans-65" transform="translate(2665.429688 0)"/>
    <use xlink:href="#DejaVuSans-20" transform="translate(2726.953125 0)"/>
    <use xlink:href="#DejaVuSans-6c" transform="translate(2758.740234 0)"/>
    <use xlink:href="#DejaVuSans-65" transform="translate(2786.523438 0)"/>
    <use xlink:href="#DejaVuSans-67" transform="translate(2848.046875 0)"/>
    <use xlink:href="#DejaVuSans-61" transform="translate(2911.523438 0)"/>
    <use xlink:href="#DejaVuSans-6d" transform="translate(2972.802734 0)"/>
    <use xlink:href="#DejaVuSans-69" transform="translate(3070.214844 0)"/>
    <use xlink:href="#DejaVuSans-20" transform="translate(3097.998047 0)"/>
    <use xlink:href="#DejaVuSans-71" transform="translate(3129.785156 0)"/>
    <use xlink:href="#DejaVuSans-75" transform="translate(3193.261719 0)"/>
    <use xlink:href="#DejaVuSans-61" transform="translate(3256.640625 0)"/>
    <use xlink:href="#DejaVuSans-73" transform="translate(3317.919922 0)"/>
    <use xlink:href="#DejaVuSans-69" transform="translate(3370.019531 0)"/>
    <use xlink:href="#DejaVuSans-20" transform="translate(3397.802734 0)"/>
    <use xlink:href="#DejaVuSans-6f" transform="translate(3429.589844 0)"/>
    <use xlink:href="#DejaVuSans-72" transform="translate(3490.771484 0)"/>
    <use xlink:href="#DejaVuSans-74" transform="translate(3531.884766 0)"/>
    <use xlink:href="#DejaVuSans-6f" transform="translate(3571.09375 0)"/>
    <use xlink:href="#DejaVuSans-67" transform="translate(3632.275391 0)"/>
    <use xlink:href="#DejaVuSans-6f" transform="translate(3695.751953 0)"/>
    <use xlink:href="#DejaVuSans-6e" transform="translate(3756.933594 0)"/>
    <use xlink:href="#DejaVuSans-61" transform="translate(3820.3125 0)"/>
    <use xlink:href="#DejaVuSans-6c" transform="translate(3881.591797 0)"/>
    <use xlink:href="#DejaVuSans-69" transform="translate(3909.375 0)"/>
    <use xlink:href="#DejaVuSans-3b" transform="translate(3937.158203 0)"/>
    <use xlink:href="#DejaVuSans-20" transform="translate(3970.849609 0)"/>
    <use xlink:href="#DejaVuSans-6c" transform="translate(4002.636719 0)"/>
    <use xlink:href="#DejaVuSans-61" transform="translate(4030.419922 0)"/>
    <use xlink:href="#DejaVuSans-20" transform="translate(4091.699219 0)"/>
    <use xlink:href="#DejaVuSans-64" transform="translate(4123.486328 0)"/>
    <use xlink:href="#DejaVuSans-69" transform="translate(4186.962891 0)"/>
    <use xlink:href="#DejaVuSans-73" transform="translate(4214.746094 0)"/>
    <use xlink:href="#DejaVuSans-74" transform="translate(4266.845703 0)"/>
    <use xlink:href="#DejaVuSans-72" transform="translate(4306.054688 0)"/>
    <use xlink:href="#DejaVuSans-69" transform="translate(4347.167969 0)"/>
    <use xlink:href="#DejaVuSans-62" transform="translate(4374.951172 0)"/>
    <use xlink:href="#DejaVuSans-75" transform="translate(4438.427734 0)"/>
    <use xlink:href="#DejaVuSans-7a" transform="translate(4501.806641 0)"/>
    <use xlink:href="#DejaVuSans-69" transform="translate(4554.296875 0)"/>
    <use xlink:href="#DejaVuSans-6f" transform="translate(4582.080078 0)"/>
    <use xlink:href="#DejaVuSans-6e" transform="translate(4643.261719 0)"/>
    <use xlink:href="#DejaVuSans-65" transform="translate(4706.640625 0)"/>
    <use xlink:href="#DejaVuSans-20" transform="translate(4768.164062 0)"/>
    <use xlink:href="#DejaVuSans-65" transform="translate(4799.951172 0)"/>
    <use xlink:href="#DejaVuSans-6c" transform="translate(4861.474609 0)"/>
    <use xlink:href="#DejaVuSans-65" transform="translate(4889.257812 0)"/>
    <use xlink:href="#DejaVuSans-74" transform="translate(4950.78125 0)"/>
    <use xlink:href="#DejaVuSans-74" transform="translate(4989.990234 0)"/>
    <use xlink:href="#DejaVuSans-72" transform="translate(5029.199219 0)"/>
    <use xlink:href="#DejaVuSans-6f" transform="translate(5068.0625 0)"/>
    <use xlink:href="#DejaVuSans-6e" transform="translate(5129.244141 0)"/>
    <use xlink:href="#DejaVuSans-69" transform="translate(5192.623047 0)"/>
    <use xlink:href="#DejaVuSans-63" transform="translate(5220.40625 0)"/>
    <use xlink:href="#DejaVuSans-61" transform="translate(5275.386719 0)"/>
    <use xlink:href="#DejaVuSans-20" transform="translate(5336.666016 0)"/>
    <use xlink:href="#DejaVuSans-72" transform="translate(5368.453125 0)"/>
    <use xlink:href="#DejaVuSans-65" transform="translate(5407.316406 0)"/>
    <use xlink:href="#DejaVuSans-61" transform="translate(5468.839844 0)"/>
    <use xlink:href="#DejaVuSans-6c" transform="translate(5530.119141 0)"/>
    <use xlink:href="#DejaVuSans-65" transform="translate(5557.902344 0)"/>
    <use xlink:href="#DejaVuSans-20" transform="translate(5619.425781 0)"/>
    <use xlink:href="#DejaVuSans-70" transform="translate(5651.212891 0)"/>
    <use xlink:href="#DejaVuSans-6f" transform="translate(5714.689453 0)"/>
    <use xlink:href="#DejaVuSans-72" transform="translate(5775.871094 0)"/>
    <use xlink:href="#DejaVuSans-74" transform="translate(5816.984375 0)"/>
    <use xlink:href="#DejaVuSans-61" transform="translate(5856.193359 0)"/>
    <use xlink:href="#DejaVuSans-20" transform="translate(5917.472656 0)"/>
    <use xlink:href="#DejaVuSans-61" transform="translate(5949.259766 0)"/>
    <use xlink:href="#DejaVuSans-6c" transform="translate(6010.539062 0)"/>
    <use xlink:href="#DejaVuSans-6c" transform="translate(6038.322266 0)"/>
    <use xlink:href="#DejaVuSans-27" transform="translate(6066.105469 0)"/>
    <use xlink:href="#DejaVuSans-61" transform="translate(6093.595703 0)"/>
    <use xlink:href="#DejaVuSans-6e" transform="translate(6154.875 0)"/>
    <use xlink:href="#DejaVuSans-67" transform="translate(6218.253906 0)"/>
    <use xlink:href="#DejaVuSans-6f" transform="translate(6281.730469 0)"/>
    <use xlink:href="#DejaVuSans-6c" transform="translate(6342.912109 0)"/>
    <use xlink:href="#DejaVuSans-6f" transform="translate(6370.695312 0)"/>
    <use xlink:href="#DejaVuSans-20" transform="translate(6431.876953 0)"/>
    <use xlink:href="#DejaVuSans-6d" transform="translate(6463.664062 0)"/>
    <use xlink:href="#DejaVuSans-6f" transform="translate(6561.076172 0)"/>
    <use xlink:href="#DejaVuSans-6c" transform="translate(6622.257812 0)"/>
    <use xlink:href="#DejaVuSans-65" transform="translate(6650.041016 0)"/>
    <use xlink:href="#DejaVuSans-63" transform="translate(6711.564453 0)"/>
    <use xlink:href="#DejaVuSans-6f" transform="translate(6766.544922 0)"/>
    <use xlink:href="#DejaVuSans-6c" transform="translate(6827.726562 0)"/>
    <use xlink:href="#DejaVuSans-61" transform="translate(6855.509766 0)"/>
    <use xlink:href="#DejaVuSans-72" transform="translate(6916.789062 0)"/>
    <use xlink:href="#DejaVuSans-65" transform="translate(6955.652344 0)"/>
    <use xlink:href="#DejaVuSans-20" transform="translate(7017.175781 0)"/>
    <use xlink:href="#DejaVuSans-64" transform="translate(7048.962891 0)"/>
    <use xlink:href="#DejaVuSans-69" transform="translate(7112.439453 0)"/>
    <use xlink:href="#DejaVuSans-20" transform="translate(7140.222656 0)"/>
    <use xlink:href="#DejaVuSans-63" transform="translate(7172.009766 0)"/>
    <use xlink:href="#DejaVuSans-69" transform="translate(7226.990234 0)"/>
    <use xlink:href="#DejaVuSans-72" transform="translate(7254.773438 0)"/>
    <use xlink:href="#DejaVuSans-63" transform="translate(7293.636719 0)"/>
    <use xlink:href="#DejaVuSans-61" transform="translate(7348.617188 0)"/>
    <use xlink:href="#DejaVuSans-20" transform="translate(7409.896484 0)"/>
    <use xlink:href="#DejaVuSans-31" transform="translate(7441.683594 0)"/>
    <use xlink:href="#DejaVuSans-30" transform="translate(7505.306641 0)"/>
    <use xlink:href="#DejaVuSans-34" transform="translate(7568.929688 0)"/>
    <use xlink:href="#DejaVuSans-2c" transform="translate(7632.552734 0)"/>
    <use xlink:href="#DejaVuSans-35" transform="translate(7664.339844 0)"/>
    <use xlink:href="#DejaVuSans-b0" transform="translate(7727.962891 0)"/>
    <use xlink:href="#DejaVuSans-2e" transform="translate(7777.962891 0)"/>
   </g>
  </g>
 </g>
 <defs>
  <clipPath id="p24607c97e6">
   <rect x="41.961392" y="78.264" width="202.714286" height="221.571429"/>
  </clipPath>
  <clipPath id="p7817059646">
   <rect x="302.316466" y="81.61868" width="214.862069" height="214.862069"/>
  </clipPath>
  <clipPath id="p2299b98900">
   <rect x="568.745431" y="79.283223" width="214.862069" height="219.532984"/>
  </clipPath>
  <clipPath id="p5501e89c68">
   <rect x="214.764643" y="355.671429" width="389.965714" height="243.728571"/>
  </clipPath>
 </defs>
 <defs>
  <pattern id="hcd7cd16e59" patternUnits="userSpaceOnUse" x="0" y="0" width="72" height="72">
   <rect x="0" y="0" width="73" height="73" fill="#1f77b4"/>
   <path d="M -36 36 
L 36 -36 
M -32 40 
L 40 -32 
M -28 44 
L 44 -28 
M -24 48 
L 48 -24 
M -20 52 
L 52 -20 
M -16 56 
L 56 -16 
M -12 60 
L 60 -12 
M -8 64 
L 64 -8 
M -4 68 
L 68 -4 
M 0 72 
L 72 0 
M 4 76 
L 76 4 
M 8 80 
L 80 8 
M 12 84 
L 84 12 
M 16 88 
L 88 16 
M 20 92 
L 92 20 
M 24 96 
L 96 24 
M 28 100 
L 100 28 
M 32 104 
L 104 32 
M 36 108 
L 108 36 
" style="fill: #000000; stroke: #000000; stroke-width: 1.0; stroke-linecap: butt; stroke-linejoin: miter"/>
  </pattern>
  <pattern id="h13a9647afa" patternUnits="userSpaceOnUse" x="0" y="0" width="72" height="72">
   <rect x="0" y="0" width="73" height="73" fill="#1f77b4"/>
   <path d="M -36 36 
L 36 108 
M -30 30 
L 42 102 
M -24 24 
L 48 96 
M -18 18 
L 54 90 
M -12 12 
L 60 84 
M -6 6 
L 66 78 
M 0 0 
L 72 72 
M 6 -6 
L 78 66 
M 12 -12 
L 84 60 
M 18 -18 
L 90 54 
M 24 -24 
L 96 48 
M 30 -30 
L 102 42 
M 36 -36 
L 108 36 
" style="fill: #000000; stroke: #000000; stroke-width: 1.0; stroke-linecap: butt; stroke-linejoin: miter"/>
  </pattern>
  <pattern id="h8c5b0213e8" patternUnits="userSpaceOnUse" x="0" y="0" width="72" height="72">
   <rect x="0" y="0" width="73" height="73" fill="#1f77b4"/>
   <path d="M -36 36 
L 36 -36 
M -32 40 
L 40 -32 
M -28 44 
L 44 -28 
M -24 48 
L 48 -24 
M -20 52 
L 52 -20 
M -16 56 
L 56 -16 
M -12 60 
L 60 -12 
M -8 64 
L 64 -8 
M -4 68 
L 68 -4 
M 0 72 
L 72 0 
M 4 76 
L 76 4 
M 8 80 
L 80 8 
M 12 84 
L 84 12 
M 16 88 
L 88 16 
M 20 92 
L 92 20 
M 24 96 
L 96 24 
M 28 100 
L 100 28 
M 32 104 
L 104 32 
M 36 108 
L 108 36 
" style="fill: #000000; stroke: #000000; stroke-width: 1.0; stroke-linecap: butt; stroke-linejoin: miter"/>
  </pattern>
  <pattern id="h14ef42d77c" patternUnits="userSpaceOnUse" x="0" y="0" width="72" height="72">
   <rect x="0" y="0" width="73" height="73" fill="#1f77b4"/>
   <path d="M -36 36 
L 36 -36 
M -32 40 
L 40 -32 
M -28 44 
L 44 -28 
M -24 48 
L 48 -24 
M -20 52 
L 52 -20 
M -16 56 
L 56 -16 
M -12 60 
L 60 -12 
M -8 64 
L 64 -8 
M -4 68 
L 68 -4 
M 0 72 
L 72 0 
M 4 76 
L 76 4 
M 8 80 
L 80 8 
M 12 84 
L 84 12 
M 16 88 
L 88 16 
M 20 92 
L 92 20 
M 24 96 
L 96 24 
M 28 100 
L 100 28 
M 32 104 
L 104 32 
M 36 108 
L 108 36 
" style="fill: #000000; stroke: #000000; stroke-width: 1.0; stroke-linecap: butt; stroke-linejoin: miter"/>
  </pattern>
  <pattern id="hcc07264e8c" patternUnits="userSpaceOnUse" x="0" y="0" width="72" height="72">
   <rect x="0" y="0" width="73" height="73" fill="#1f77b4"/>
   <path d="M -36 36 
L 36 108 
M -30 30 
L 42 102 
M -24 24 
L 48 96 
M -18 18 
L 54 90 
M -12 12 
L 60 84 
M -6 6 
L 66 78 
M 0 0 
L 72 72 
M 6 -6 
L 78 66 
M 12 -12 
L 84 60 
M 18 -18 
L 90 54 
M 24 -24 
L 96 48 
M 30 -30 
L 102 42 
M 36 -36 
L 108 36 
" style="fill: #000000; stroke: #000000; stroke-width: 1.0; stroke-linecap: butt; stroke-linejoin: miter"/>
  </pattern>
 </defs>
</svg>
